<svg fill="none" stroke-linecap="square" stroke-miterlimit="10" viewBox="0 0 1024 768" xmlns="http://www.w3.org/2000/svg" xmlns:xlink="http://www.w3.org/1999/xlink"><clipPath id="a"><path d="m0 0h1024v768h-1024z"/></clipPath><g clip-path="url(#a)"><path d="m0 0h1024v768h-1024z" fill="none"/><g stroke="#000" stroke-linecap="butt"><path d="m692.8373 67.480316v106.58792"/><path d="m803.76117 67.480316v106.58792"/><path d="m692.33856 67.979004h111.921265"/><path d="m692.33856 103.17585h111.921265"/><path d="m692.33856 138.3727h111.921265"/><path d="m692.33856 173.56955h111.921265"/></g><path d="m703.0404 89.779v-1.328125h1.34375v1.328125zm3.703003 0v-1.328125h1.34375v1.328125zm3.702942 0v-1.328125h1.34375v1.328125z" fill="#000"/><path d="m702.1498 123.0071 1.828125-.28125q.125.53125.484375.8125.359375.265625 1 .265625.703125 0 1.0625-.25.25-.1875.25-.484375 0-.21875-.140625-.359375-.125-.125-.609375-.234375-2.203125-.484375-2.796875-.890625-.828125-.5625-.828125-1.5625 0-.890625.703125-1.5.71875-.609375 2.203125-.609375 1.421875 0 2.109375.46875.703125.453125.953125 1.359375l-1.71875.3125q-.109375-.40625-.421875-.609375-.3125-.21875-.890625-.21875-.71875 0-1.03125.203125-.203125.140625-.203125.359375 0 .203125.1875.34375.234375.171875 1.6875.515625 1.46875.328125 2.0625.8125.5625.484375.5625 1.359375 0 .953125-.796875 1.640625-.78125.671875-2.34375.671875-1.40625 0-2.234375-.5625-.828125-.578125-1.078125-1.5625zm14.084351-2.90625-1.796875.328125q-.09375-.53125-.421875-.796875-.328125-.28125-.828125-.28125-.6875 0-1.09375.46875-.40625.46875-.40625 1.578125 0 1.234375.40625 1.75.421875.5 1.109375.5.53125 0 .859375-.296875.328125-.296875.46875-1.03125l1.796875.3125q-.28125 1.234375-1.078125 1.875-.796875.625-2.125.625-1.515625 0-2.421875-.953125-.90625-.953125-.90625-2.65625 0-1.703125.90625-2.65625.90625-.953125 2.453125-.953125 1.265625 0 2 .546875.75.53125 1.078125 1.640625zm.9593506 1.328125q0-.921875.453125-1.765625.453125-.859375 1.265625-1.296875.828125-.453125 1.84375-.453125 1.5625 0 2.5625 1.015625 1.015625 1.015625 1.015625 2.578125 0 1.5625-1.015625 2.59375-1.015625 1.03125-2.546875 1.03125-.953125 0-1.8125-.421875-.859375-.4375-1.3125-1.265625-.453125-.828125-.453125-2.015625zm1.875.09375q0 1.03125.484375 1.578125.5.546875 1.203125.546875.71875 0 1.203125-.546875.484375-.546875.484375-1.59375 0-1.015625-.484375-1.5625-.484375-.546875-1.203125-.546875-.703125 0-1.203125.546875-.484375.546875-.484375 1.578125zm6.6413574-3.453125h1.703125v1.015625q.328125-.53125.890625-.84375.578125-.328125 1.265625-.328125 1.203125 0 2.03125.9375.84375.9375.84375 2.625 0 1.734375-.84375 2.703125-.84375.953125-2.046875.953125-.578125 0-1.046875-.21875-.453125-.234375-.96875-.796875v3.484375h-1.828125zm1.8125 3.328125q0 1.171875.453125 1.734375.46875.546875 1.125.546875.640625 0 1.0625-.5.421875-.515625.421875-1.6875 0-1.078125-.4375-1.609375-.4375-.53125-1.078125-.53125-.671875 0-1.109375.515625-.4375.515625-.4375 1.53125zm10.375732 1.375 1.828125.3125q-.34375 1-1.109375 1.53125-.765625.515625-1.890625.515625-1.8125 0-2.671875-1.171875-.6875-.953125-.6875-2.390625 0-1.71875.890625-2.6875.90625-.96875 2.28125-.96875 1.546875 0 2.4375 1.015625.890625 1.015625.84375 3.125h-4.578125q.015625.8125.4375 1.265625.421875.453125 1.0625.453125.421875 0 .71875-.234375.296875-.234375.4375-.765625zm.109375-1.84375q-.015625-.796875-.40625-1.203125-.390625-.421875-.953125-.421875-.59375 0-.984375.4375-.390625.4375-.390625 1.1875zm2.2249756 6.6875v-1.1875h7.609375v1.1875zm8.490601-10.484375v-1.703125h1.828125v1.703125zm0 7.84375v-6.90625h1.828125v6.90625zm9.999878 0h-1.828125v-3.53125q0-1.109375-.125-1.4375-.109375-.328125-.375-.515625-.265625-.1875-.640625-.1875-.46875 0-.859375.265625-.375.265625-.515625.703125-.140625.421875-.140625 1.578125v3.125h-1.828125v-6.90625h1.703125v1.015625q.90625-1.171875 2.28125-1.171875.609375 0 1.109375.21875.5.21875.75.5625.265625.328125.359375.765625.109375.421875.109375 1.21875zm1.0476074-6.90625h1.015625v-.53125q0-.859375.1875-1.28125.1875-.4375.671875-.703125.5-.28125 1.265625-.28125.78125 0 1.53125.234375l-.25 1.28125q-.4375-.109375-.84375-.109375-.390625 0-.5625.1875-.171875.1875-.171875.703125v.5h1.359375v1.4375h-1.359375v5.46875h-1.828125v-5.46875h-1.015625zm4.8133545 3.359375q0-.921875.453125-1.765625.453125-.859375 1.265625-1.296875.828125-.453125 1.84375-.453125 1.5625 0 2.5625 1.015625 1.015625 1.015625 1.015625 2.578125 0 1.5625-1.015625 2.59375-1.015625 1.03125-2.546875 1.03125-.953125 0-1.8125-.421875-.859375-.4375-1.3125-1.265625-.453125-.828125-.453125-2.015625zm1.875.09375q0 1.03125.484375 1.578125.5.546875 1.203125.546875.71875 0 1.203125-.546875.484375-.546875.484375-1.59375 0-1.015625-.484375-1.5625-.484375-.546875-1.203125-.546875-.703125 0-1.203125.546875-.484375.546875-.484375 1.578125z" fill="#000"/><path d="m703.0404 160.1727v-1.328125h1.34375v1.328125zm3.703003 0v-1.328125h1.34375v1.328125zm3.702942 0v-1.328125h1.34375v1.328125z" fill="#000"/><path d="m683.40967 20.356955h154.86609v47.622047h-154.86609z" fill="none"/><path d="m702.3159 49.992752 2.609375.828125q-.59375 2.1875-2 3.25-1.390625 1.0625-3.546875 1.0625-2.65625 0-4.375-1.8125-1.703125-1.828125-1.703125-4.984375 0-3.328125 1.71875-5.171875 1.71875-1.84375 4.515625-1.84375 2.453125 0 3.984375 1.4375.921875.859375 1.375 2.46875l-2.671875.640625q-.234375-1.046875-.984375-1.640625-.75-.609375-1.828125-.609375-1.484375 0-2.421875 1.078125-.921875 1.0625-.921875 3.4375 0 2.53125.90625 3.609375.921875 1.078125 2.375 1.078125 1.078125 0 1.84375-.671875.78125-.6875 1.125-2.15625zm4.3166504-.0625q0-1.28125.625-2.46875.625-1.203125 1.78125-1.828125 1.15625-.625 2.578125-.625 2.1875 0 3.59375 1.421875 1.40625 1.421875 1.40625 3.609375 0 2.1875-1.421875 3.640625-1.421875 1.4375-3.5625 1.4375-1.328125 0-2.546875-.59375-1.203125-.609375-1.828125-1.765625-.625-1.171875-.625-2.828125zm2.625.125q0 1.453125.671875 2.21875.6875.75 1.6875.75 1 0 1.671875-.75.6875-.765625.6875-2.234375 0-1.421875-.6875-2.1875-.671875-.765625-1.671875-.765625-1 0-1.6875.765625-.671875.765625-.671875 2.203125zm18.161621 4.84375h-2.5625v-4.9375q0-1.5625-.171875-2.015625-.15625-.46875-.53125-.71875-.359375-.265625-.875-.265625-.671875 0-1.203125.375-.53125.359375-.734375.96875-.1875.59375-.1875 2.21875v4.375h-2.546875v-9.671875h2.375v1.421875q1.265625-1.640625 3.1875-1.640625.84375 0 1.546875.3125.703125.296875 1.0625.78125.359375.46875.5 1.078125.140625.59375.140625 1.703125zm7.036621-9.671875v2.03125h-1.75v3.90625q0 1.1875.046875 1.390625.046875.1875.21875.3125.1875.125.4375.125.359375 0 1.03125-.25l.21875 2q-.890625.375-2.015625.375-.703125 0-1.265625-.234375-.546875-.234375-.8125-.59375-.25-.375-.34375-1-.09375-.453125-.09375-1.8125v-4.21875h-1.171875v-2.03125h1.171875v-1.921875l2.578125-1.5v3.421875zm7.3688965 6.59375 2.546875.421875q-.484375 1.40625-1.546875 2.140625-1.0625.734375-2.65625.734375-2.515625 0-3.734375-1.65625-.953125-1.3125-.953125-3.328125 0-2.40625 1.25-3.765625 1.265625-1.359375 3.1875-1.359375 2.15625 0 3.40625 1.421875 1.25 1.421875 1.1875 4.375h-6.40625q.03125 1.140625.609375 1.78125.59375.625 1.484375.625.59375 0 1-.328125.421875-.328125.625-1.0625zm.15625-2.59375q-.03125-1.109375-.578125-1.6875-.546875-.578125-1.328125-.578125-.84375 0-1.390625.609375-.546875.609375-.53125 1.65625zm3.3913574 5.671875 3.484375-4.984375-3.34375-4.6875h3.125l1.71875 2.65625 1.796875-2.65625h3.015625l-3.28125 4.578125 3.578125 5.09375h-3.140625l-1.96875-3-1.984375 3zm16.047607-9.671875v2.03125h-1.75v3.90625q0 1.1875.046875 1.390625.046875.1875.21875.3125.1875.125.4375.125.359375 0 1.03125-.25l.21875 2q-.890625.375-2.015625.375-.703125 0-1.265625-.234375-.546875-.234375-.8125-.59375-.25-.375-.34375-1-.09375-.453125-.09375-1.8125v-4.21875h-1.171875v-2.03125h1.171875v-1.921875l2.578125-1.5v3.421875z" fill="#000"/><path d="m519.5619 20.356955h154.86615v47.622047h-154.86615z" fill="none"/><path d="m529.23376 50.555252 2.625-.25q.234375 1.3125.953125 1.9375.734375.609375 1.96875.609375 1.296875 0 1.953125-.546875.671875-.546875.671875-1.28125 0-.484375-.28125-.8125-.28125-.328125-.96875-.578125-.484375-.15625-2.171875-.578125-2.15625-.546875-3.03125-1.328125-1.234375-1.09375-1.234375-2.6875 0-1.015625.578125-1.90625.578125-.890625 1.65625-1.34375 1.09375-.46875 2.640625-.46875 2.515625 0 3.78125 1.109375 1.28125 1.09375 1.34375 2.9375l-2.703125.109375q-.171875-1.03125-.75-1.46875-.5625-.453125-1.703125-.453125-1.171875 0-1.84375.46875-.421875.3125-.421875.84375 0 .46875.40625.796875.5.4375 2.46875.90625 1.96875.453125 2.90625.953125.953125.5 1.484375 1.359375.53125.859375.53125 2.125 0 1.15625-.640625 2.15625-.640625 1-1.8125 1.484375-1.15625.484375-2.890625.484375-2.53125 0-3.890625-1.171875-1.359375-1.171875-1.625-3.40625zm21.552917-2.46875-2.53125.453125q-.125-.75-.578125-1.125-.453125-.390625-1.171875-.390625-.953125 0-1.53125.65625-.5625.65625-.5625 2.203125 0 1.734375.578125 2.4375.578125.703125 1.546875.703125.734375 0 1.203125-.40625.46875-.421875.65625-1.421875l2.515625.421875q-.390625 1.734375-1.515625 2.625-1.109375.875-2.96875.875-2.125 0-3.390625-1.328125-1.25-1.34375-1.25-3.71875 0-2.390625 1.265625-3.71875 1.265625-1.34375 3.421875-1.34375 1.765625 0 2.796875.765625 1.046875.75 1.515625 2.3125zm1.3444824 1.84375q0-1.28125.625-2.46875.625-1.203125 1.78125-1.828125 1.15625-.625 2.578125-.625 2.1875 0 3.59375 1.421875 1.40625 1.421875 1.40625 3.609375 0 2.1875-1.421875 3.640625-1.421875 1.4375-3.5625 1.4375-1.328125 0-2.546875-.59375-1.203125-.609375-1.828125-1.765625-.625-1.171875-.625-2.828125zm2.625.125q0 1.453125.671875 2.21875.6875.75 1.6875.75 1 0 1.671875-.75.6875-.765625.6875-2.234375 0-1.421875-.6875-2.1875-.671875-.765625-1.671875-.765625-1 0-1.6875.765625-.671875.765625-.671875 2.203125zm9.286621-4.828125h2.390625v1.421875q.46875-.734375 1.25-1.1875.796875-.453125 1.765625-.453125 1.6875 0 2.859375 1.328125 1.171875 1.3125 1.171875 3.671875 0 2.421875-1.1875 3.765625-1.1875 1.34375-2.859375 1.34375-.8125 0-1.46875-.3125-.640625-.328125-1.359375-1.09375v4.875h-2.5625zm2.53125 4.671875q0 1.625.640625 2.40625.65625.78125 1.578125.78125.90625 0 1.484375-.71875.59375-.71875.59375-2.34375 0-1.515625-.609375-2.25-.609375-.75-1.515625-.75-.9375 0-1.5625.734375-.609375.71875-.609375 2.140625zm14.53656 1.921875 2.546875.421875q-.484375 1.40625-1.546875 2.140625-1.0625.734375-2.65625.734375-2.515625 0-3.734375-1.65625-.953125-1.3125-.953125-3.328125 0-2.40625 1.25-3.765625 1.265625-1.359375 3.1875-1.359375 2.15625 0 3.40625 1.421875 1.25 1.421875 1.1875 4.375h-6.40625q.03125 1.140625.609375 1.78125.59375.625 1.484375.625.59375 0 1-.328125.421875-.328125.625-1.0625zm.15625-2.59375q-.03125-1.109375-.578125-1.6875-.546875-.578125-1.328125-.578125-.84375 0-1.390625.609375-.546875.609375-.53125 1.65625zm4.5632324 5.671875v-13.359375h2.6875v13.359375zm14.042664 0h-2.5625v-4.9375q0-1.5625-.171875-2.015625-.15625-.46875-.53125-.71875-.359375-.265625-.875-.265625-.671875 0-1.203125.375-.53125.359375-.734375.96875-.1875.59375-.1875 2.21875v4.375h-2.546875v-9.671875h2.375v1.421875q1.265625-1.640625 3.1875-1.640625.84375 0 1.546875.3125.703125.296875 1.0625.78125.359375.46875.5 1.078125.140625.59375.140625 1.703125zm1.4741211-9.671875h1.421875v-.734375q0-1.21875.25-1.8125.265625-.609375.953125-.984375.703125-.375 1.78125-.375 1.09375 0 2.140625.328125l-.359375 1.78125q-.609375-.140625-1.171875-.140625-.546875 0-.796875.265625-.234375.25-.234375.984375v.6875h1.90625v2.015625h-1.90625v7.65625h-2.5625v-7.65625h-1.421875zm6.7439575 4.703125q0-1.28125.625-2.46875.625-1.203125 1.78125-1.828125 1.15625-.625 2.578125-.625 2.1875 0 3.59375 1.421875 1.40625 1.421875 1.40625 3.609375 0 2.1875-1.421875 3.640625-1.421875 1.4375-3.5625 1.4375-1.328125 0-2.546875-.59375-1.203125-.609375-1.828125-1.765625-.625-1.171875-.625-2.828125zm2.625.125q0 1.453125.671875 2.21875.6875.75 1.6875.75 1 0 1.671875-.75.6875-.765625.6875-2.234375 0-1.421875-.6875-2.1875-.671875-.765625-1.671875-.765625-1 0-1.6875.765625-.671875.765625-.671875 2.203125z" fill="#000"/><path d="m528.99475 67.979004h110.92389v35.196846h-110.92389z" fill="#fff" shape-rendering="crispEdges"/><path d="m528.99475 103.17585h110.92389v35.196846h-110.92389z" fill="#fff" shape-rendering="crispEdges"/><path d="m528.99475 138.3727h110.92389v35.196854h-110.92389z" fill="#fff" shape-rendering="crispEdges"/><path d="m528.99475 67.480316v106.58792" stroke="#000" stroke-linecap="butt"/><path d="m639.91864 67.480316v106.58792" stroke="#000" stroke-linecap="butt"/><path d="m528.49603 67.979004h111.921265" stroke="#000" stroke-linecap="butt"/><path d="m528.49603 103.17585h111.921265" stroke="#000" stroke-linecap="butt"/><path d="m528.49603 138.3727h111.921265" stroke="#000" stroke-linecap="butt"/><path d="m528.49603 173.56955h111.921265" stroke="#000" stroke-linecap="butt"/><path d="m539.1979 89.779v-1.328125h1.34375v1.328125zm3.703003 0v-1.328125h1.34375v1.328125zm3.702942 0v-1.328125h1.34375v1.328125z" fill="#000"/><path d="m538.526 121.42898q0-.921875.453125-1.765625.453125-.859375 1.265625-1.296875.828125-.453125 1.84375-.453125 1.5625 0 2.5625 1.015625 1.015625 1.015625 1.015625 2.578125 0 1.5625-1.015625 2.59375-1.015625 1.03125-2.546875 1.03125-.953125 0-1.8125-.421875-.859375-.4375-1.3125-1.265625-.453125-.828125-.453125-2.015625zm1.875.09375q0 1.03125.484375 1.578125.5.546875 1.203125.546875.71875 0 1.203125-.546875.484375-.546875.484375-1.59375 0-1.015625-.484375-1.5625-.484375-.546875-1.203125-.546875-.703125 0-1.203125.546875-.484375.546875-.484375 1.578125zm11.235107 3.453125v-1.03125q-.375.546875-1 .875-.609375.3125-1.28125.3125-.703125 0-1.265625-.296875-.546875-.3125-.796875-.859375-.234375-.5625-.234375-1.53125v-4.375h1.828125v3.171875q0 1.453125.09375 1.78125.109375.328125.375.53125.265625.1875.671875.1875.46875 0 .84375-.25.375-.265625.5-.640625.140625-.390625.140625-1.875v-2.90625h1.828125v6.90625zm6.7663574-6.90625v1.453125h-1.25v2.78125q0 .84375.03125.984375.046875.140625.171875.234375.125.09375.3125.09375.25 0 .734375-.171875l.15625 1.421875q-.640625.265625-1.453125.265625-.484375 0-.890625-.15625-.390625-.171875-.578125-.4375-.1875-.265625-.265625-.71875-.046875-.3125-.046875-1.28125v-3.015625h-.84375v-1.453125h.84375v-1.375l1.828125-1.078125v2.453125zm5.2664795 4.703125 1.828125.3125q-.34375 1-1.109375 1.53125-.765625.515625-1.890625.515625-1.8125 0-2.671875-1.171875-.6875-.953125-.6875-2.390625 0-1.71875.890625-2.6875.90625-.96875 2.28125-.96875 1.546875 0 2.4375 1.015625.890625 1.015625.84375 3.125h-4.578125q.015625.8125.4375 1.265625.421875.453125 1.0625.453125.421875 0 .71875-.234375.296875-.234375.4375-.765625zm.109375-1.84375q-.015625-.796875-.40625-1.203125-.390625-.421875-.953125-.421875-.59375 0-.984375.4375-.390625.4375-.390625 1.1875zm5.0531006 4.046875h-1.828125v-6.90625h1.703125v.984375q.4375-.703125.78125-.921875.34375-.21875.796875-.21875.625 0 1.203125.34375l-.5625 1.59375q-.46875-.296875-.859375-.296875-.390625 0-.65625.21875-.265625.203125-.421875.765625-.15625.546875-.15625 2.296875zm2.3586426 2.640625v-1.1875h7.609375v1.1875zm7.8499756-4.609375 1.828125-.28125q.125.53125.484375.8125.359375.265625 1 .265625.703125 0 1.0625-.25.25-.1875.25-.484375 0-.21875-.140625-.359375-.125-.125-.609375-.234375-2.203125-.484375-2.796875-.890625-.828125-.5625-.828125-1.5625 0-.890625.703125-1.5.71875-.609375 2.203125-.609375 1.421875 0 2.109375.46875.703125.453125.953125 1.359375l-1.71875.3125q-.109375-.40625-.421875-.609375-.3125-.21875-.890625-.21875-.71875 0-1.03125.203125-.203125.140625-.203125.359375 0 .203125.1875.34375.234375.171875 1.6875.515625 1.46875.328125 2.0625.8125.5625.484375.5625 1.359375 0 .953125-.796875 1.640625-.78125.671875-2.34375.671875-1.40625 0-2.234375-.5625-.828125-.578125-1.078125-1.5625zm14.084351-2.90625-1.796875.328125q-.09375-.53125-.421875-.796875-.328125-.28125-.828125-.28125-.6875 0-1.09375.46875-.40625.46875-.40625 1.578125 0 1.234375.40625 1.75.421875.5 1.109375.5.53125 0 .859375-.296875.328125-.296875.46875-1.03125l1.796875.3125q-.28125 1.234375-1.078125 1.875-.796875.625-2.125.625-1.515625 0-2.421875-.953125-.90625-.953125-.90625-2.65625 0-1.703125.90625-2.65625.90625-.953125 2.453125-.953125 1.265625 0 2 .546875.75.53125 1.078125 1.640625zm.9593506 1.328125q0-.921875.453125-1.765625.453125-.859375 1.265625-1.296875.828125-.453125 1.84375-.453125 1.5625 0 2.5625 1.015625 1.015625 1.015625 1.015625 2.578125 0 1.5625-1.015625 2.59375-1.015625 1.03125-2.546875 1.03125-.953125 0-1.8125-.421875-.859375-.4375-1.3125-1.265625-.453125-.828125-.453125-2.015625zm1.875.09375q0 1.03125.484375 1.578125.5.546875 1.203125.546875.71875 0 1.203125-.546875.484375-.546875.484375-1.59375 0-1.015625-.484375-1.5625-.484375-.546875-1.203125-.546875-.703125 0-1.203125.546875-.484375.546875-.484375 1.578125zm6.6413574-3.453125h1.703125v1.015625q.328125-.53125.890625-.84375.578125-.328125 1.265625-.328125 1.203125 0 2.03125.9375.84375.9375.84375 2.625 0 1.734375-.84375 2.703125-.84375.953125-2.046875.953125-.578125 0-1.046875-.21875-.453125-.234375-.96875-.796875v3.484375h-1.828125zm1.8125 3.328125q0 1.171875.453125 1.734375.46875.546875 1.125.546875.640625 0 1.0625-.5.421875-.515625.421875-1.6875 0-1.078125-.4375-1.609375-.4375-.53125-1.078125-.53125-.671875 0-1.109375.515625-.4375.515625-.4375 1.53125zm10.375732 1.375 1.828125.3125q-.34375 1-1.109375 1.53125-.765625.515625-1.890625.515625-1.8125 0-2.671875-1.171875-.6875-.953125-.6875-2.390625 0-1.71875.890625-2.6875.90625-.96875 2.28125-.96875 1.546875 0 2.4375 1.015625.890625 1.015625.84375 3.125h-4.578125q.015625.8125.4375 1.265625.421875.453125 1.0625.453125.421875 0 .71875-.234375.296875-.234375.4375-.765625zm.109375-1.84375q-.015625-.796875-.40625-1.203125-.390625-.421875-.953125-.421875-.59375 0-.984375.4375-.390625.4375-.390625 1.1875z" fill="#000"/><path d="m539.1979 160.1727v-1.328125h1.34375v1.328125zm3.703003 0v-1.328125h1.34375v1.328125zm3.702942 0v-1.328125h1.34375v1.328125z" fill="#000"/><path d="m693.4304 122.82396h-19.164001v-74.63493h-26.349426" fill="none"/><path d="m693.4304 122.82396h-19.164001v-74.63493h-14.349426" fill-rule="evenodd" stroke="#000" stroke-linecap="butt" stroke-linejoin="round" stroke-width="2"/><path d="m659.917 44.885563-9.076172 3.303463 9.076172 3.3034668z" fill="#000" fill-rule="evenodd" stroke="#000" stroke-linecap="butt" stroke-width="2"/><path d="m359.56186 20.356955h154.86618v47.622047h-154.86618z" fill="none"/><path d="m369.4056 50.602127 1.65625-.140625q.125 1 .546875 1.640625.4375.640625 1.34375 1.046875.921875.390625 2.0625.390625 1 0 1.78125-.296875.78125-.296875 1.15625-.8125.375-.53125.375-1.15625 0-.625-.375-1.09375-.359375-.46875-1.1875-.796875-.546875-.203125-2.390625-.640625-1.828125-.453125-2.5625-.84375-.96875-.5-1.4375-1.234375-.46875-.75-.46875-1.671875 0-1 .578125-1.875.578125-.890625 1.671875-1.34375 1.109375-.453125 2.453125-.453125 1.484375 0 2.609375.484375 1.140625.46875 1.75 1.40625.609375.921875.65625 2.09375l-1.6875.125q-.140625-1.265625-.9375-1.90625-.78125-.65625-2.3125-.65625-1.609375 0-2.34375.59375-.734375.59375-.734375 1.421875 0 .71875.53125 1.171875.5.46875 2.65625.96875 2.15625.484375 2.953125.84375 1.171875.53125 1.71875 1.359375.5625.828125.5625 1.90625 0 1.0625-.609375 2.015625-.609375.9375-1.75 1.46875-1.140625.515625-2.578125.515625-1.8125 0-3.046875-.53125-1.21875-.53125-1.921875-1.59375-.6875-1.0625-.71875-2.40625zm13.131073 4.296875v-13.359375h9.015625v1.578125h-7.25v4.140625h6.265625v1.578125h-6.265625v6.0625zm11.599121 0v-13.359375h1.765625v13.359375z" fill="#000"/><path d="m159.55905 67.480316v106.58792" stroke="#000" stroke-linecap="butt"/><path d="m314.4252 67.480316v106.58792" stroke="#000" stroke-linecap="butt"/><path d="m159.06036 67.979004h155.86353" stroke="#000" stroke-linecap="butt"/><path d="m159.06036 103.17585h155.86353" stroke="#000" stroke-linecap="butt"/><path d="m159.06036 138.3727h155.86353" stroke="#000" stroke-linecap="butt"/><path d="m159.06036 173.56955h155.86353" stroke="#000" stroke-linecap="butt"/><path d="m169.76218 89.779v-1.328125h1.34375v1.328125zm3.7029877 0v-1.328125h1.34375v1.328125zm3.7029877 0v-1.328125h1.34375v1.328125z" fill="#000"/><path d="m168.9653 122.91335 1.15625-.1875q.109375.703125.546875 1.078125.453125.359375 1.25.359375.8125 0 1.203125-.328125.390625-.328125.390625-.765625 0-.390625-.359375-.625-.234375-.15625-1.1875-.390625-1.296875-.328125-1.796875-.5625-.484375-.25-.75-.65625-.25-.421875-.25-.9375 0-.453125.203125-.84375.21875-.40625.578125-.671875.28125-.1875.75-.328125.46875-.140625 1.015625-.140625.8125 0 1.421875.234375.609375.234375.90625.640625.296875.390625.40625 1.0625l-1.140625.15625q-.078125-.53125-.453125-.828125-.375-.3125-1.0625-.3125-.8125 0-1.15625.265625-.34375.265625-.34375.625 0 .234375.140625.421875.15625.1875.453125.3125.171875.0625 1.03125.296875 1.25.328125 1.734375.546875.5.203125.78125.609375.28125.40625.28125 1 0 .59375-.34375 1.109375-.34375.515625-1 .796875-.640625.28125-1.453125.28125-1.34375 0-2.046875-.5625-.703125-.5625-.90625-1.65625zm7.1328125 2.0625v-9.546875h1.171875v3.421875q.828125-.9375 2.078125-.9375.765625 0 1.328125.296875.5625.296875.8125.84375.25.53125.25 1.546875v4.375h-1.171875v-4.375q0-.890625-.390625-1.28125-.375-.40625-1.078125-.40625-.515625 0-.984375.28125-.453125.265625-.65625.734375-.1875.453125-.1875 1.265625v3.78125zm11.928101-.859375q-.65625.5625-1.265625.796875-.59375.21875-1.28125.21875-1.140625 0-1.75-.546875-.609375-.5625-.609375-1.4375 0-.5.21875-.921875.234375-.421875.609375-.671875.375-.25.84375-.390625.34375-.078125 1.046875-.171875 1.421875-.171875 2.09375-.40625 0-.234375 0-.296875 0-.71875-.328125-1.015625-.453125-.390625-1.34375-.390625-.8125 0-1.21875.296875-.390625.28125-.578125 1.015625l-1.140625-.15625q.15625-.734375.515625-1.1875.359375-.453125 1.03125-.6875.671875-.25 1.5625-.25.890625 0 1.4375.203125.5625.203125.8125.53125.265625.3125.375.796875.046875.296875.046875 1.078125v1.5625q0 1.625.078125 2.0625.078125.4375.296875.828125h-1.21875q-.1875-.359375-.234375-.859375zm-.09375-2.609375q-.640625.265625-1.921875.4375-.71875.109375-1.015625.25-.296875.125-.46875.375-.15625.25-.15625.546875 0 .46875.34375.78125.359375.3125 1.046875.3125.671875 0 1.203125-.296875.53125-.296875.78125-.8125.1875-.390625.1875-1.171875zm2.9749756 3.46875v-6.90625h1.0625v1.046875q.40625-.734375.734375-.96875.34375-.234375.765625-.234375.59375 0 1.203125.375l-.40625 1.078125q-.4375-.25-.859375-.25-.390625 0-.703125.234375-.296875.234375-.421875.640625-.203125.625-.203125 1.359375v3.625zm9.18837-2.21875 1.203125.140625q-.28125 1.0625-1.0625 1.65625-.765625.578125-1.96875.578125-1.515625 0-2.40625-.9375-.890625-.9375-.890625-2.609375 0-1.75.890625-2.703125.90625-.96875 2.34375-.96875 1.390625 0 2.265625.9375.875.9375.875 2.65625 0 .109375 0 .3125h-5.15625q.0625 1.140625.640625 1.75.578125.59375 1.4375.59375.65625 0 1.109375-.328125.453125-.34375.71875-1.078125zm-3.84375-1.90625h3.859375q-.078125-.859375-.4375-1.296875-.5625-.6875-1.453125-.6875-.8125 0-1.359375.546875-.546875.53125-.609375 1.4375zm11.006226 4.125v-.875q-.65625 1.03125-1.9375 1.03125-.8125 0-1.515625-.453125-.6875-.453125-1.078125-1.265625-.375-.828125-.375-1.890625 0-1.03125.34375-1.875.34375-.84375 1.03125-1.28125.703125-.453125 1.546875-.453125.625 0 1.109375.265625.5.25.796875.671875v-3.421875h1.171875v9.546875zm-3.703125-3.453125q0 1.328125.5625 1.984375.5625.65625 1.328125.65625.765625 0 1.296875-.625.53125-.625.53125-1.90625 0-1.421875-.546875-2.078125-.546875-.671875-1.34375-.671875-.78125 0-1.3125.640625-.515625.625-.515625 2zm5.5531006 6.109375v-.859375h7.765625v.859375zm8.771851-2.65625v-6h-1.03125v-.90625h1.03125v-.734375q0-.703125.125-1.046875.171875-.453125.59375-.734375.421875-.28125 1.203125-.28125.484375 0 1.09375.109375l-.1875 1.03125q-.359375-.0625-.6875-.0625-.53125 0-.75.234375-.21875.21875-.21875.84375v.640625h1.34375v.90625h-1.34375v6zm7.9529877 0v-1.015625q-.8125 1.171875-2.1875 1.171875-.609375 0-1.140625-.234375-.53125-.234375-.796875-.578125-.25-.359375-.359375-.875-.0625-.34375-.0625-1.09375v-4.28125h1.171875v3.828125q0 .921875.0625 1.234375.109375.46875.46875.734375.359375.25.890625.25.515625 0 .984375-.265625.46875-.265625.65625-.734375.1875-.46875.1875-1.34375v-3.703125h1.171875v6.90625zm2.8812256 0v-6.90625h1.0625v.984375q.75-1.140625 2.1875-1.140625.625 0 1.15625.21875.53125.21875.78125.59375.265625.359375.375.859375.0625.328125.0625 1.140625v4.25h-1.171875v-4.203125q0-.71875-.140625-1.0625-.140625-.359375-.484375-.5625-.34375-.21875-.8125-.21875-.75 0-1.296875.46875-.546875.46875-.546875 1.796875v3.78125zm11.928101-2.53125 1.15625.15625q-.1875 1.1875-.96875 1.859375-.78125.671875-1.921875.671875-1.40625 0-2.28125-.921875-.859375-.9375-.859375-2.65625 0-1.125.375-1.96875.375-.84375 1.125-1.25.765625-.421875 1.65625-.421875 1.125 0 1.84375.578125.71875.5625.921875 1.609375l-1.140625.171875q-.171875-.703125-.59375-1.046875-.40625-.359375-.984375-.359375-.890625 0-1.453125.640625-.546875.640625-.546875 2 0 1.40625.53125 2.03125.546875.625 1.40625.625.6875 0 1.140625-.421875.46875-.421875.59375-1.296875zm4.7109375 1.484375.171875 1.03125q-.5.109375-.890625.109375-.640625 0-1-.203125-.34375-.203125-.484375-.53125-.140625-.328125-.140625-1.390625v-3.96875h-.859375v-.90625h.859375v-1.71875l1.171875-.703125v2.421875h1.171875v.90625h-1.171875v4.046875q0 .5.046875.640625.0625.140625.203125.234375.140625.078125.40625.078125.203125 0 .515625-.046875zm1.1561127-7.140625v-1.359375h1.171875v1.359375zm0 8.1875v-6.90625h1.171875v6.90625zm2.507965-3.453125q0-1.921875 1.078125-2.84375.890625-.765625 2.171875-.765625 1.421875 0 2.328125.9375.90625.921875.90625 2.578125 0 1.328125-.40625 2.09375-.390625.765625-1.15625 1.1875-.765625.421875-1.671875.421875-1.453125 0-2.359375-.921875-.890625-.9375-.890625-2.6875zm1.203125 0q0 1.328125.578125 1.984375.59375.65625 1.46875.65625.875 0 1.453125-.65625.578125-.671875.578125-2.03125 0-1.28125-.59375-1.9375-.578125-.65625-1.4375-.65625-.875 0-1.46875.65625-.578125.65625-.578125 1.984375zm6.646866 3.453125v-6.90625h1.0625v.984375q.75-1.140625 2.1875-1.140625.625 0 1.15625.21875.53125.21875.78125.59375.265625.359375.375.859375.0625.328125.0625 1.140625v4.25h-1.171875v-4.203125q0-.71875-.140625-1.0625-.140625-.359375-.484375-.5625-.34375-.21875-.8125-.21875-.75 0-1.296875.46875-.546875.46875-.546875 1.796875v3.78125zm6.3343506 2.65625v-.859375h7.765625v.859375zm8.506226-10.84375v-1.359375h1.171875v1.359375zm0 8.1875v-6.90625h1.171875v6.90625zm2.945465 0v-6.90625h1.0625v.984375q.75-1.140625 2.1875-1.140625.625 0 1.15625.21875.53125.21875.78125.59375.265625.359375.375.859375.0625.328125.0625 1.140625v4.25h-1.171875v-4.203125q0-.71875-.140625-1.0625-.140625-.359375-.484375-.5625-.34375-.21875-.8125-.21875-.75 0-1.296875.46875-.546875.46875-.546875 1.796875v3.78125zm7.6937256 0v-6h-1.03125v-.90625h1.03125v-.734375q0-.703125.125-1.046875.171875-.453125.59375-.734375.421875-.28125 1.203125-.28125.484375 0 1.09375.109375l-.1875 1.03125q-.359375-.0625-.6875-.0625-.53125 0-.75.234375-.21875.21875-.21875.84375v.640625h1.34375v.90625h-1.34375v6zm2.9842224-3.453125q0-1.921875 1.078125-2.84375.890625-.765625 2.171875-.765625 1.421875 0 2.328125.9375.90625.921875.90625 2.578125 0 1.328125-.40625 2.09375-.390625.765625-1.15625 1.1875-.765625.421875-1.671875.421875-1.453125 0-2.359375-.921875-.890625-.9375-.890625-2.6875zm1.203125 0q0 1.328125.578125 1.984375.59375.65625 1.46875.65625.875 0 1.453125-.65625.578125-.671875.578125-2.03125 0-1.28125-.59375-1.9375-.578125-.65625-1.4375-.65625-.875 0-1.46875.65625-.578125.65625-.578125 1.984375z" fill="#000"/><path d="m169.76218 160.1727v-1.328125h1.34375v1.328125zm3.7029877 0v-1.328125h1.34375v1.328125zm3.7029877 0v-1.328125h1.34375v1.328125z" fill="#000"/><path d="m150.13142 20.356955h154.86613v47.622047h-154.86613z" fill="none"/><path d="m159.66267 51.102127 1.59375-.21875q.078125 1.53125.578125 2.109375.515625.5625 1.421875.5625.65625 0 1.140625-.296875.484375-.3125.65625-.828125.1875-.53125.1875-1.6875v-9.203125h1.765625v9.109375q0 1.671875-.40625 2.59375-.40625.921875-1.28125 1.40625-.875.484375-2.0625.484375-1.75 0-2.6875-1.015625-.9375-1.015625-.90625-3.015625zm9.640625-.5 1.65625-.140625q.125 1 .546875 1.640625.4375.640625 1.34375 1.046875.921875.390625 2.0625.390625 1 0 1.78125-.296875.78125-.296875 1.15625-.8125.375-.53125.375-1.15625 0-.625-.375-1.09375-.359375-.46875-1.1875-.796875-.546875-.203125-2.390625-.640625-1.828125-.453125-2.5625-.84375-.96875-.5-1.4375-1.234375-.46875-.75-.46875-1.671875 0-1 .578125-1.875.578125-.890625 1.671875-1.34375 1.109375-.453125 2.453125-.453125 1.484375 0 2.609375.484375 1.140625.46875 1.75 1.40625.609375.921875.65625 2.09375l-1.6875.125q-.140625-1.265625-.9375-1.90625-.78125-.65625-2.3125-.65625-1.609375 0-2.34375.59375-.734375.59375-.734375 1.421875 0 .71875.53125 1.171875.5.46875 2.65625.96875 2.15625.484375 2.953125.84375 1.171875.53125 1.71875 1.359375.5625.828125.5625 1.90625 0 1.0625-.609375 2.015625-.609375.9375-1.75 1.46875-1.140625.515625-2.578125.515625-1.8125 0-3.046875-.53125-1.21875-.53125-1.921875-1.59375-.6875-1.0625-.71875-2.40625zm13.131073 4.296875v-13.359375h9.015625v1.578125h-7.25v4.140625h6.265625v1.578125h-6.265625v6.0625zm17.42723 0v-1.421875q-1.125 1.640625-3.0625 1.640625-.859375 0-1.609375-.328125-.734375-.328125-1.09375-.828125-.359375-.5-.5-1.21875-.109375-.46875-.109375-1.53125v-5.984375h1.640625v5.359375q0 1.28125.109375 1.734375.15625.640625.65625 1.015625.5.375 1.234375.375.734375 0 1.375-.375.65625-.390625.921875-1.03125.265625-.65625.265625-1.890625v-5.1875h1.640625v9.671875zm4.047592 0v-9.671875h1.46875v1.375q1.0625-1.59375 3.078125-1.59375.875 0 1.609375.3125.734375.3125 1.09375.828125.375.5.515625 1.203125.09375.453125.09375 1.59375v5.953125h-1.640625v-5.890625q0-1-.203125-1.484375-.1875-.5-.671875-.796875-.484375-.296875-1.140625-.296875-1.046875 0-1.8125.671875-.75.65625-.75 2.515625v5.28125zm16.688217-3.546875 1.609375.21875q-.265625 1.65625-1.359375 2.609375-1.078125.9375-2.671875.9375-1.984375 0-3.1875-1.296875-1.203125-1.296875-1.203125-3.71875 0-1.578125.515625-2.75.515625-1.171875 1.578125-1.75 1.0625-.59375 2.3125-.59375 1.578125 0 2.578125.796875 1 .796875 1.28125 2.265625l-1.59375.234375q-.234375-.96875-.8125-1.453125-.578125-.5-1.390625-.5-1.234375 0-2.015625.890625-.78125.890625-.78125 2.8125 0 1.953125.75 2.84375.75.875 1.953125.875.96875 0 1.609375-.59375.65625-.59375.828125-1.828125zm6.59375 2.078125.234375 1.453125q-.6875.140625-1.234375.140625-.890625 0-1.390625-.28125-.484375-.28125-.6875-.734375-.203125-.46875-.203125-1.9375v-5.578125h-1.203125v-1.265625h1.203125v-2.390625l1.625-.984375v3.375h1.65625v1.265625h-1.65625v5.671875q0 .6875.078125.890625.09375.203125.28125.328125.203125.109375.578125.109375.265625 0 .71875-.0625zm1.6051788-10v-1.890625h1.640625v1.890625zm0 11.46875v-9.671875h1.640625v9.671875zm3.5354462-4.84375q0-2.6875 1.484375-3.96875 1.25-1.078125 3.046875-1.078125 2 0 3.265625 1.3125 1.265625 1.296875 1.265625 3.609375 0 1.859375-.5625 2.9375-.5625 1.0625-1.640625 1.65625-1.0625.59375-2.328125.59375-2.03125 0-3.28125-1.296875-1.25-1.3125-1.25-3.765625zm1.6875 0q0 1.859375.796875 2.796875.8125.921875 2.046875.921875 1.21875 0 2.03125-.921875.8125-.9375.8125-2.84375 0-1.796875-.8125-2.71875-.8125-.921875-2.03125-.921875-1.234375 0-2.046875.921875-.796875.90625-.796875 2.765625zm9.297592 4.84375v-9.671875h1.46875v1.375q1.0625-1.59375 3.078125-1.59375.875 0 1.609375.3125.734375.3125 1.09375.828125.375.5.515625 1.203125.09375.453125.09375 1.59375v5.953125h-1.640625v-5.890625q0-1-.203125-1.484375-.1875-.5-.671875-.796875-.484375-.296875-1.140625-.296875-1.046875 0-1.8125.671875-.75.65625-.75 2.515625v5.28125z" fill="#000"/><path d="m367.81628 67.979004h100.03937v35.196846h-100.03937z" fill="#fff" shape-rendering="crispEdges"/><path d="m367.81628 103.17585h100.03937v35.196846h-100.03937z" fill="#fff" shape-rendering="crispEdges"/><path d="m367.81628 138.3727h100.03937v35.196854h-100.03937z" fill="#fff" shape-rendering="crispEdges"/><path d="m367.81628 67.480316v106.58792" stroke="#000" stroke-linecap="butt"/><path d="m467.85565 67.480316v106.58792" stroke="#000" stroke-linecap="butt"/><path d="m367.3176 67.979004h101.03674" stroke="#000" stroke-linecap="butt"/><path d="m367.3176 103.17585h101.03674" stroke="#000" stroke-linecap="butt"/><path d="m367.3176 138.3727h101.03674" stroke="#000" stroke-linecap="butt"/><path d="m367.3176 173.56955h101.03674" stroke="#000" stroke-linecap="butt"/><path d="m377.7694 89.779v-1.828125h1.828125v1.828125zm3.7029724 0v-1.828125h1.828125v1.828125zm3.703003 0v-1.828125h1.828125v1.828125z" fill="#000"/><path d="m377.22253 122.91335 1.15625-.1875q.109375.703125.546875 1.078125.453125.359375 1.25.359375.8125 0 1.203125-.328125.390625-.328125.390625-.765625 0-.390625-.359375-.625-.234375-.15625-1.1875-.390625-1.296875-.328125-1.796875-.5625-.484375-.25-.75-.65625-.25-.421875-.25-.9375 0-.453125.203125-.84375.21875-.40625.578125-.671875.28125-.1875.75-.328125.46875-.140625 1.015625-.140625.8125 0 1.421875.234375.609375.234375.90625.640625.296875.390625.40625 1.0625l-1.140625.15625q-.078125-.53125-.453125-.828125-.375-.3125-1.0625-.3125-.8125 0-1.15625.265625-.34375.265625-.34375.625 0 .234375.140625.421875.15625.1875.453125.3125.171875.0625 1.03125.296875 1.25.328125 1.734375.546875.5.203125.78125.609375.28125.40625.28125 1 0 .59375-.34375 1.109375-.34375.515625-1 .796875-.640625.28125-1.453125.28125-1.34375 0-2.046875-.5625-.703125-.5625-.90625-1.65625zm11.6484375-.46875 1.15625.15625q-.1875 1.1875-.96875 1.859375-.78125.671875-1.921875.671875-1.40625 0-2.28125-.921875-.859375-.9375-.859375-2.65625 0-1.125.375-1.96875.375-.84375 1.125-1.25.765625-.421875 1.65625-.421875 1.125 0 1.84375.578125.71875.5625.921875 1.609375l-1.140625.171875q-.171875-.703125-.59375-1.046875-.40625-.359375-.984375-.359375-.890625 0-1.453125.640625-.546875.640625-.546875 2 0 1.40625.53125 2.03125.546875.625 1.40625.625.6875 0 1.140625-.421875.46875-.421875.59375-1.296875zm1.7109375-.921875q0-1.921875 1.078125-2.84375.890625-.765625 2.171875-.765625 1.421875 0 2.328125.9375.90625.921875.90625 2.578125 0 1.328125-.40625 2.09375-.390625.765625-1.15625 1.1875-.765625.421875-1.671875.421875-1.453125 0-2.359375-.921875-.890625-.9375-.890625-2.6875zm1.203125 0q0 1.328125.578125 1.984375.59375.65625 1.46875.65625.875 0 1.453125-.65625.578125-.671875.578125-2.03125 0-1.28125-.59375-1.9375-.578125-.65625-1.4375-.65625-.875 0-1.46875.65625-.578125.65625-.578125 1.984375zm6.6468506 6.109375v-9.5625h1.078125v.890625q.375-.53125.84375-.78125.484375-.265625 1.15625-.265625.875 0 1.546875.453125.6875.453125 1.03125 1.28125.34375.828125.34375 1.828125 0 1.046875-.375 1.90625-.375.84375-1.109375 1.296875-.71875.453125-1.53125.453125-.578125 0-1.046875-.25-.46875-.25-.765625-.625v3.375zm1.0625-6.078125q0 1.34375.53125 1.984375.546875.625 1.3125.625.78125 0 1.34375-.65625.5625-.65625.5625-2.046875 0-1.3125-.546875-1.96875-.546875-.671875-1.296875-.671875-.75 0-1.328125.703125-.578125.703125-.578125 2.03125zm11.084351 1.203125 1.203125.140625q-.28125 1.0625-1.0625 1.65625-.765625.578125-1.96875.578125-1.515625 0-2.40625-.9375-.890625-.9375-.890625-2.609375 0-1.75.890625-2.703125.90625-.96875 2.34375-.96875 1.390625 0 2.265625.9375.875.9375.875 2.65625 0 .109375 0 .3125h-5.15625q.0625 1.140625.640625 1.75.578125.59375 1.4375.59375.65625 0 1.109375-.328125.453125-.34375.71875-1.078125zm-3.84375-1.90625h3.859375q-.078125-.859375-.4375-1.296875-.5625-.6875-1.453125-.6875-.8125 0-1.359375.546875-.546875.53125-.609375 1.4375zm5.4437256 6.78125v-.859375h7.765625v.859375zm8.506226-10.84375v-1.359375h1.171875v1.359375zm0 8.1875v-6.90625h1.171875v6.90625zm2.945465 0v-6.90625h1.0625v.984375q.75-1.140625 2.1875-1.140625.625 0 1.15625.21875.53125.21875.78125.59375.265625.359375.375.859375.0625.328125.0625 1.140625v4.25h-1.171875v-4.203125q0-.71875-.140625-1.0625-.140625-.359375-.484375-.5625-.34375-.21875-.8125-.21875-.75 0-1.296875.46875-.546875.46875-.546875 1.796875v3.78125zm7.6937256 0v-6h-1.03125v-.90625h1.03125v-.734375q0-.703125.125-1.046875.171875-.453125.59375-.734375.421875-.28125 1.203125-.28125.484375 0 1.09375.109375l-.1875 1.03125q-.359375-.0625-.6875-.0625-.53125 0-.75.234375-.21875.21875-.21875.84375v.640625h1.34375v.90625h-1.34375v6zm2.9842224-3.453125q0-1.921875 1.078125-2.84375.890625-.765625 2.171875-.765625 1.421875 0 2.328125.9375.90625.921875.90625 2.578125 0 1.328125-.40625 2.09375-.390625.765625-1.15625 1.1875-.765625.421875-1.671875.421875-1.453125 0-2.359375-.921875-.890625-.9375-.890625-2.6875zm1.203125 0q0 1.328125.578125 1.984375.59375.65625 1.46875.65625.875 0 1.453125-.65625.578125-.671875.578125-2.03125 0-1.28125-.59375-1.9375-.578125-.65625-1.4375-.65625-.875 0-1.46875.65625-.578125.65625-.578125 1.984375z" fill="#000"/><path d="m377.7694 160.1727v-1.828125h1.828125v1.828125zm3.7029724 0v-1.828125h1.828125v1.828125zm3.703003 0v-1.828125h1.828125v1.828125z" fill="#000"/><path d="m315.48294 122.82398h19.164032v-74.63493h26.349426" fill="none"/><path d="m315.48294 122.82398h19.164032v-74.63493h14.349426" fill-rule="evenodd" stroke="#000" stroke-linecap="butt" stroke-linejoin="round" stroke-width="2"/><path d="m348.9964 51.49252 9.076202-3.3034668-9.076202-3.303463z" fill="#000" fill-rule="evenodd" stroke="#000" stroke-linecap="butt" stroke-width="2"/><path d="m467.85565 122.82389h19.164032v-74.63493h26.349396" fill="none"/><path d="m467.85565 122.82389h19.164032v-74.63493h14.349396" fill-rule="evenodd" stroke="#000" stroke-linecap="butt" stroke-linejoin="round" stroke-width="2"/><path d="m501.3691 51.49242 9.076172-3.303463-9.076172-3.3034668z" fill="#000" fill-rule="evenodd" stroke="#000" stroke-linecap="butt" stroke-width="2"/></g></svg>