<svg height="210" width="714" xmlns="http://www.w3.org/2000/svg" xmlns:xlink="http://www.w3.org/1999/xlink"><defs><path id="a" d="m0 0h714v210h-714z"/><mask id="b" fill="#fff"><use fill="#fff" fill-rule="evenodd" xlink:href="#a"/></mask><mask id="c" fill="#fff"><path d="m0 0h1024v768h-1024z" fill="#fff" fill-rule="evenodd"/></mask></defs><g fill="none" fill-rule="evenodd"><use fill="#fff" xlink:href="#a"/><g mask="url(#b)"><g mask="url(#c)" transform="translate(0 -20)"><path d="m0 0h1024v768h-1024z"/><path d="m191.562 20.357h154.866v47.622h-154.866z"/><path d="m201.093 51.102 1.594-.219c.052 1.021.245 1.725.578 2.11.344.375.818.562 1.422.562.437 0 .817-.099 1.14-.297.323-.208.542-.484.657-.828.125-.354.187-.916.187-1.687v-9.203h1.766v9.109c0 1.115-.135 1.98-.406 2.594a2.904 2.904 0 0 1 -1.282 1.406c-.583.323-1.27.484-2.062.484-1.167 0-2.063-.338-2.688-1.015s-.927-1.683-.906-3.016zm9.64-.5 1.657-.14c.083.667.266 1.213.547 1.64.291.427.74.776 1.344 1.047.614.26 1.301.39 2.062.39.667 0 1.26-.099 1.781-.296.521-.198.907-.469 1.157-.813.25-.354.375-.74.375-1.156a1.7 1.7 0 0 0 -.375-1.094c-.24-.312-.636-.578-1.188-.797-.365-.135-1.161-.349-2.39-.64-1.22-.302-2.074-.583-2.563-.844-.646-.333-1.125-.745-1.438-1.234a3.094 3.094 0 0 1 -.468-1.672c0-.667.193-1.292.578-1.875.385-.593.943-1.041 1.672-1.344.74-.302 1.558-.453 2.453-.453.99 0 1.86.161 2.61.484.76.313 1.343.782 1.75 1.407.406.614.624 1.312.655 2.093l-1.687.125c-.093-.843-.406-1.479-.938-1.906-.52-.437-1.29-.656-2.312-.656-1.073 0-1.855.198-2.344.594-.49.395-.734.869-.734 1.421 0 .48.177.87.531 1.172.333.313 1.219.636 2.656.969 1.438.323 2.422.604 2.953.844.781.354 1.355.807 1.72 1.36.375.551.562 1.186.562 1.905 0 .709-.203 1.38-.61 2.016-.406.625-.99 1.115-1.75 1.469-.76.343-1.62.515-2.578.515-1.208 0-2.224-.177-3.047-.53a4.324 4.324 0 0 1 -1.922-1.595c-.458-.708-.697-1.51-.718-2.406zm13.132 4.297v-13.36h9.015v1.579h-7.25v4.14h6.266v1.579h-6.266v6.062zm17.427 0v-1.422c-.75 1.093-1.77 1.64-3.062 1.64-.573 0-1.11-.109-1.61-.327-.49-.219-.854-.495-1.094-.828s-.406-.74-.5-1.22c-.073-.312-.109-.822-.109-1.53v-5.985h1.64v5.36c0 .853.037 1.431.11 1.734.104.427.323.765.656 1.016.333.25.745.375 1.235.375s.948-.125 1.375-.375c.437-.26.745-.605.922-1.032.177-.437.265-1.067.265-1.89v-5.188h1.64v9.673h-1.468zm4.048 0v-9.672h1.468v1.375c.709-1.063 1.735-1.594 3.079-1.594.583 0 1.12.104 1.609.313.49.208.854.484 1.094.828.25.333.422.734.515 1.203.063.302.094.833.094 1.594v5.953h-1.64v-5.89c0-.667-.068-1.162-.204-1.485a1.56 1.56 0 0 0 -.672-.797c-.323-.198-.703-.297-1.14-.297a2.66 2.66 0 0 0 -1.813.672c-.5.437-.75 1.276-.75 2.516v5.281zm16.688-3.547 1.61.219c-.177 1.104-.63 1.974-1.36 2.61-.719.625-1.61.937-2.672.937-1.323 0-2.385-.432-3.188-1.297-.802-.865-1.203-2.104-1.203-3.719 0-1.052.172-1.969.516-2.75s.87-1.365 1.578-1.75a4.663 4.663 0 0 1 2.313-.594c1.052 0 1.911.266 2.578.797s1.094 1.287 1.281 2.266l-1.594.234c-.156-.645-.427-1.13-.812-1.453-.385-.333-.849-.5-1.39-.5-.823 0-1.496.297-2.017.89-.52.594-.78 1.532-.78 2.813 0 1.302.25 2.25.75 2.844.5.583 1.15.875 1.952.875.647 0 1.183-.198 1.61-.594.437-.395.713-1.005.828-1.828zm6.594 2.078.234 1.453c-.459.094-.87.141-1.234.141-.594 0-1.058-.094-1.391-.281a1.61 1.61 0 0 1 -.688-.735c-.135-.312-.203-.958-.203-1.937v-5.578h-1.203v-1.266h1.203v-2.39l1.625-.985v3.375h1.657v1.266h-1.657v5.672c0 .458.026.755.078.89a.781.781 0 0 0 .282.328c.135.073.328.11.578.11.177 0 .416-.021.719-.063zm1.605-10v-1.89h1.64v1.89zm0 11.469v-9.672h1.64v9.673h-1.64zm3.535-4.844c0-1.791.495-3.114 1.485-3.968.833-.72 1.849-1.079 3.046-1.079 1.333 0 2.422.438 3.266 1.313.844.865 1.266 2.068 1.266 3.61 0 1.24-.188 2.218-.563 2.937a3.99 3.99 0 0 1 -1.64 1.656 4.694 4.694 0 0 1 -2.329.594c-1.353 0-2.447-.432-3.28-1.297-.833-.875-1.25-2.13-1.25-3.766zm1.688 0c0 1.24.266 2.172.797 2.797.541.615 1.223.922 2.046.922.813 0 1.49-.307 2.032-.922.541-.625.812-1.573.812-2.844 0-1.197-.27-2.103-.812-2.718s-1.22-.922-2.032-.922c-.823 0-1.505.307-2.046.922-.531.604-.797 1.526-.797 2.765zm9.297 4.844v-9.672h1.47v1.375c.708-1.063 1.734-1.594 3.077-1.594.583 0 1.12.104 1.61.313.49.208.854.484 1.093.828.25.333.422.734.516 1.203.063.302.094.833.094 1.594v5.953h-1.64v-5.89c0-.667-.068-1.162-.204-1.485a1.566 1.566 0 0 0 -.672-.797c-.323-.198-.703-.297-1.14-.297a2.66 2.66 0 0 0 -1.813.672c-.5.437-.75 1.276-.75 2.516v5.281z" fill="#000" fill-rule="nonzero"/><path d="m36.56 67.48v106.588m110.923-106.588v106.588m-111.423-106.089h111.922m-111.922 35.197h111.922m-111.922 35.197h111.922m-111.922 35.197h111.922" stroke="#000"/><path d="m46.762 89.779v-1.328h1.344v1.328zm3.703 0v-1.328h1.344v1.328zm3.703 0v-1.328h1.344v1.328zm-8.453 28.291h1.016v-.532c0-.573.062-1 .187-1.28.125-.292.35-.527.672-.704.333-.187.755-.281 1.266-.281.52 0 1.031.078 1.531.234l-.25 1.281a3.484 3.484 0 0 0 -.844-.109c-.26 0-.447.062-.562.187s-.172.36-.172.704v.5h1.36v1.437h-1.36v5.469h-1.828v-5.469h-1.016zm9.782 6.906v-1.031c-.25.364-.583.656-1 .875a2.77 2.77 0 0 1 -1.28.312c-.47 0-.891-.099-1.266-.297a1.864 1.864 0 0 1 -.797-.86c-.157-.375-.235-.885-.235-1.53v-4.375h1.828v3.171c0 .97.031 1.563.094 1.782.073.219.198.396.375.531.177.125.401.187.672.187.313 0 .594-.083.844-.25.25-.177.417-.39.5-.64.093-.26.14-.885.14-1.875v-2.906h1.829v6.906zm9.892 0h-1.829v-3.531c0-.74-.042-1.22-.125-1.438a1.005 1.005 0 0 0 -.375-.516 1.086 1.086 0 0 0 -.641-.187c-.313 0-.6.089-.86.266-.25.177-.421.411-.515.703-.093.281-.14.807-.14 1.578v3.125h-1.829v-6.906h1.703v1.015c.605-.781 1.365-1.172 2.282-1.172.406 0 .776.073 1.109.22.333.145.583.333.75.562.177.219.297.474.36.765.073.281.109.688.109 1.219v4.297zm7.876-4.875-1.797.328c-.063-.354-.203-.62-.422-.797-.219-.187-.495-.281-.828-.281-.459 0-.823.156-1.094.469-.27.312-.406.838-.406 1.578 0 .823.135 1.406.406 1.75.281.333.651.5 1.11.5.353 0 .64-.099.859-.297s.375-.542.468-1.031l1.797.312c-.187.823-.547 1.448-1.078 1.875-.531.417-1.24.625-2.125.625-1.01 0-1.817-.318-2.422-.953-.604-.635-.906-1.52-.906-2.656 0-1.135.302-2.021.906-2.657.605-.635 1.422-.953 2.453-.953.844 0 1.51.182 2 .547.5.354.86.9 1.079 1.64zm4.553-2.031v1.453h-1.25v2.781c0 .563.01.89.03.984a.485.485 0 0 0 .485.328c.167 0 .412-.057.735-.171l.156 1.421a3.756 3.756 0 0 1 -1.453.266c-.323 0-.62-.052-.89-.156-.261-.115-.454-.26-.579-.438-.125-.177-.214-.416-.266-.718-.031-.209-.047-.636-.047-1.282v-3.015h-.843v-1.453h.843v-1.375l1.829-1.079v2.454zm1.266-.938v-1.703h1.828v1.703zm0 7.844v-6.906h1.828v6.906zm3.281-3.547c0-.615.151-1.203.453-1.766a3.046 3.046 0 0 1 1.266-1.297 3.778 3.778 0 0 1 1.844-.453c1.041 0 1.895.339 2.562 1.016.677.677 1.016 1.537 1.016 2.578 0 1.042-.339 1.907-1.016 2.594s-1.526 1.031-2.547 1.031c-.635 0-1.24-.14-1.812-.422a3.018 3.018 0 0 1 -1.313-1.265c-.302-.553-.453-1.225-.453-2.016zm1.875.094c0 .687.162 1.213.485 1.578.333.365.734.547 1.203.547.479 0 .88-.182 1.203-.547s.484-.896.484-1.594c0-.677-.161-1.198-.484-1.562a1.543 1.543 0 0 0 -1.203-.547c-.469 0-.87.182-1.203.547-.323.364-.485.89-.485 1.578zm12.985 3.453h-1.828v-3.531c0-.74-.042-1.22-.125-1.438a1.005 1.005 0 0 0 -.375-.516 1.081 1.081 0 0 0 -.64-.187c-.313 0-.6.089-.86.266-.25.177-.422.411-.515.703-.094.281-.141.807-.141 1.578v3.125h-1.828v-6.906h1.703v1.015c.604-.781 1.364-1.172 2.281-1.172.407 0 .777.073 1.11.22.333.145.583.333.75.562a1.8 1.8 0 0 1 .359.765c.073.281.11.688.11 1.219v4.297zm-50.463 35.197v-1.328h1.344v1.328zm3.703 0v-1.328h1.344v1.328zm3.703 0v-1.328h1.344v1.328z" fill="#000" fill-rule="nonzero"/><path d="m27.131 20.357h154.867v47.622h-154.868z"/><path d="m46.038 49.993 2.609.828c-.396 1.458-1.063 2.541-2 3.25-.927.708-2.109 1.062-3.547 1.062-1.77 0-3.229-.604-4.375-1.812-1.135-1.219-1.703-2.88-1.703-4.984 0-2.22.573-3.943 1.719-5.172 1.146-1.23 2.651-1.844 4.515-1.844 1.636 0 2.964.479 3.985 1.437.615.573 1.073 1.397 1.375 2.47l-2.672.64c-.156-.698-.484-1.245-.984-1.64-.5-.407-1.11-.61-1.829-.61-.99 0-1.796.36-2.421 1.078-.615.708-.922 1.854-.922 3.437 0 1.688.302 2.891.906 3.61.615.719 1.406 1.078 2.375 1.078.719 0 1.333-.224 1.844-.672.52-.458.895-1.177 1.125-2.156zm4.316-.063c0-.854.208-1.677.625-2.468a4.25 4.25 0 0 1 1.782-1.829c.77-.417 1.63-.625 2.578-.625 1.458 0 2.656.474 3.593 1.422.938.948 1.407 2.151 1.407 3.61 0 1.458-.474 2.671-1.422 3.64-.948.959-2.136 1.438-3.563 1.438a5.745 5.745 0 0 1 -2.547-.594 4.166 4.166 0 0 1 -1.828-1.766c-.417-.78-.625-1.723-.625-2.828zm2.625.125c0 .969.224 1.708.672 2.219.459.5 1.021.75 1.688.75s1.224-.25 1.672-.75c.458-.51.687-1.255.687-2.234 0-.948-.229-1.677-.687-2.188-.448-.51-1.005-.765-1.672-.765s-1.23.255-1.688.765c-.448.51-.672 1.245-.672 2.203zm18.162 4.845h-2.563v-4.937c0-1.042-.057-1.714-.171-2.016a1.347 1.347 0 0 0 -.532-.719c-.24-.177-.531-.265-.875-.265-.448 0-.849.125-1.203.375a1.84 1.84 0 0 0 -.734.968c-.125.396-.188 1.136-.188 2.219v4.375h-2.547v-9.672h2.375v1.422c.844-1.093 1.907-1.64 3.188-1.64.563 0 1.078.104 1.547.312.469.198.823.458 1.062.781.24.313.407.672.5 1.078.094.396.141.964.141 1.703zm7.037-9.672v2.031h-1.75v3.907c0 .791.015 1.255.046 1.39.031.125.105.23.22.313.125.083.27.125.437.125.24 0 .584-.083 1.031-.25l.219 2c-.593.25-1.265.375-2.016.375-.469 0-.89-.078-1.266-.235-.364-.156-.635-.354-.812-.593-.167-.25-.281-.583-.344-1-.063-.302-.094-.906-.094-1.813v-4.219h-1.171v-2.03h1.171v-1.923l2.579-1.5v3.422zm7.369 6.594 2.546.422c-.323.937-.838 1.65-1.546 2.14-.709.49-1.594.735-2.657.735-1.677 0-2.921-.552-3.734-1.656-.635-.875-.953-1.985-.953-3.329 0-1.604.417-2.859 1.25-3.765.843-.907 1.906-1.36 3.187-1.36 1.438 0 2.574.474 3.407 1.422s1.229 2.406 1.187 4.375h-6.406c.02.76.224 1.354.61 1.782.395.417.89.625 1.484.625.395 0 .729-.11 1-.329.28-.219.489-.573.625-1.062zm.156-2.594c-.02-.74-.213-1.302-.578-1.687a1.76 1.76 0 0 0 -1.328-.578c-.563 0-1.026.203-1.391.609-.365.407-.542.959-.531 1.656zm3.391 5.672 3.484-4.984-3.343-4.688h3.125l1.718 2.656 1.797-2.656h3.016l-3.281 4.578 3.578 5.094h-3.14l-1.97-3-1.984 3zm16.048-9.672v2.031h-1.75v3.907c0 .791.016 1.255.047 1.39.03.125.103.23.218.313a.773.773 0 0 0 .438.125c.24 0 .584-.083 1.031-.25l.219 2c-.593.25-1.265.375-2.016.375-.469 0-.89-.078-1.265-.235-.365-.156-.636-.354-.813-.593-.167-.25-.281-.583-.344-1-.062-.302-.093-.906-.093-1.813v-4.219h-1.172v-2.03h1.172v-1.923l2.578-1.5v3.422z" fill="#000" fill-rule="nonzero"/><path d="m408.336 67.48v141.785m110.924-141.785v141.785m-111.423-141.286h111.923m-111.923 35.197h111.923m-111.923 35.197h111.923m-111.923 35.197h111.923m-111.923 35.196h111.923" stroke="#000"/><path d="m418.54 89.779v-1.328h1.343v1.328h-1.344zm3.702 0v-1.328h1.344v1.328zm3.703 0v-1.328h1.344v1.328zm-8.203 33.134 1.156-.187c.073.469.256.828.547 1.078.302.24.719.36 1.25.36.542 0 .943-.11 1.203-.329s.391-.474.391-.765c0-.26-.12-.469-.36-.625-.156-.105-.552-.235-1.187-.391-.865-.219-1.464-.406-1.797-.563a1.933 1.933 0 0 1 -.75-.656 1.804 1.804 0 0 1 -.25-.937c0-.302.068-.583.203-.844.147-.27.34-.495.579-.672.187-.125.437-.234.75-.328.312-.093.65-.14 1.015-.14.542 0 1.016.078 1.422.234.407.156.709.37.906.64.198.26.334.615.407 1.063l-1.141.156c-.052-.354-.203-.63-.453-.828-.25-.209-.604-.313-1.063-.313-.541 0-.927.089-1.156.266-.23.177-.344.386-.344.625 0 .156.047.297.141.422.104.125.255.229.453.312.115.042.458.141 1.031.297.833.219 1.412.401 1.735.547.333.135.594.339.781.61.187.27.281.604.281 1 0 .395-.115.765-.344 1.109s-.562.61-1 .797a3.58 3.58 0 0 1 -1.453.281c-.895 0-1.578-.187-2.047-.562s-.77-.928-.906-1.657zm11.649-.468 1.156.156c-.125.791-.448 1.411-.969 1.86-.52.447-1.161.671-1.922.671-.937 0-1.698-.307-2.281-.922-.573-.625-.86-1.51-.86-2.656 0-.75.125-1.406.376-1.969.25-.563.625-.98 1.125-1.25a3.373 3.373 0 0 1 1.656-.422c.75 0 1.365.193 1.844.578.479.375.786.912.922 1.61l-1.141.172c-.115-.469-.313-.818-.594-1.047-.27-.24-.599-.36-.984-.36-.593 0-1.078.214-1.453.641-.365.427-.547 1.093-.547 2 0 .937.177 1.614.531 2.031.365.417.833.625 1.406.625.459 0 .839-.14 1.14-.422.313-.28.512-.713.595-1.296zm1.71-.922c0-1.281.36-2.23 1.079-2.844.593-.51 1.317-.766 2.172-.766.947 0 1.723.313 2.328.938.604.615.906 1.474.906 2.578 0 .885-.135 1.583-.406 2.094a2.76 2.76 0 0 1 -1.157 1.187 3.403 3.403 0 0 1 -1.671.422c-.97 0-1.756-.307-2.36-.922-.593-.625-.89-1.52-.89-2.687zm1.204 0c0 .885.193 1.547.578 1.984.396.437.886.656 1.469.656s1.068-.219 1.453-.656c.385-.448.578-1.125.578-2.031 0-.854-.198-1.5-.594-1.938a1.838 1.838 0 0 0 -1.437-.656c-.583 0-1.073.219-1.47.656-.385.438-.577 1.1-.577 1.985zm6.647 6.11v-9.563h1.078v.89c.25-.354.531-.614.843-.781.323-.177.709-.266 1.157-.266.583 0 1.099.151 1.547.453.458.303.801.73 1.03 1.282.23.552.345 1.161.345 1.828 0 .698-.125 1.333-.375 1.906-.25.563-.62.995-1.11 1.297-.48.302-.99.453-1.531.453a2.19 2.19 0 0 1 -1.047-.25 2.401 2.401 0 0 1 -.766-.625v3.375h-1.171zm1.062-6.079c0 .896.177 1.557.531 1.984.365.417.802.625 1.313.625.52 0 .969-.219 1.344-.656s.562-1.12.562-2.047c0-.875-.182-1.531-.547-1.969-.365-.447-.797-.671-1.297-.671s-.943.234-1.328.703-.578 1.146-.578 2.031zm11.084 1.203 1.204.14c-.188.709-.542 1.261-1.063 1.657-.51.385-1.167.578-1.969.578-1.01 0-1.812-.312-2.406-.937-.593-.625-.89-1.495-.89-2.61 0-1.167.297-2.068.89-2.703.604-.646 1.385-.969 2.344-.969.927 0 1.682.313 2.265.938s.875 1.51.875 2.656v.313h-5.156c.042.76.255 1.343.64 1.75.386.395.865.593 1.438.593.438 0 .808-.11 1.11-.328.302-.23.541-.589.718-1.078zm-3.843-1.906h3.859c-.052-.573-.198-1.006-.437-1.297a1.793 1.793 0 0 0 -1.454-.688c-.541 0-.994.182-1.359.547-.365.355-.568.834-.61 1.438zm5.443 6.781v-.86h7.766v.86zm8.507-10.844v-1.359h1.171v1.36h-1.171zm0 8.188v-6.906h1.171v6.906zm2.945 0v-6.906h1.063v.984c.5-.76 1.229-1.14 2.187-1.14.417 0 .802.073 1.156.218.355.146.615.344.782.594.177.24.302.527.375.86.041.218.062.598.062 1.14v4.25h-1.172v-4.203c0-.48-.047-.834-.14-1.063a1.105 1.105 0 0 0 -.485-.562 1.48 1.48 0 0 0 -.812-.219c-.5 0-.932.156-1.297.469-.365.312-.547.911-.547 1.797v3.78h-1.172zm7.694 0v-6h-1.031v-.906h1.03v-.735c0-.469.042-.818.126-1.047.115-.302.313-.547.594-.734.28-.187.682-.281 1.203-.281.323 0 .687.037 1.093.11l-.187 1.03a4.057 4.057 0 0 0 -.688-.062c-.353 0-.603.078-.75.234-.145.146-.218.427-.218.844v.64h1.343v.907h-1.343v6zm2.984-3.453c0-1.281.36-2.23 1.078-2.844.593-.51 1.317-.766 2.172-.766.948 0 1.724.313 2.328.938.604.615.906 1.474.906 2.578 0 .885-.135 1.583-.406 2.094-.26.51-.645.906-1.156 1.187a3.408 3.408 0 0 1 -1.672.422c-.969 0-1.755-.307-2.36-.922-.593-.625-.89-1.52-.89-2.687zm1.203 0c0 .885.193 1.547.578 1.984.396.437.886.656 1.469.656s1.068-.219 1.453-.656c.385-.448.578-1.125.578-2.031 0-.854-.198-1.5-.593-1.938a1.84 1.84 0 0 0 -1.438-.656c-.583 0-1.073.219-1.469.656-.385.438-.578 1.1-.578 1.985zm-57.883 35.775c0-1.281.36-2.302 1.079-3.063.719-.76 1.666-1.14 2.843-1.14 1.021 0 1.818.281 2.391.843.573.563.86 1.318.86 2.266 0 1.125-.36 2.093-1.079 2.906-.708.813-1.666 1.219-2.875 1.219-.646 0-1.224-.13-1.734-.39-.5-.26-.875-.625-1.125-1.094-.24-.48-.36-.996-.36-1.547zm5.313-1.328c0-.448-.13-.802-.39-1.063-.25-.27-.579-.406-.985-.406-.407 0-.766.125-1.078.375-.313.25-.558.615-.735 1.094a3.93 3.93 0 0 0 -.25 1.312c0 .49.13.88.391 1.172.27.291.61.437 1.016.437.52 0 .953-.219 1.297-.656.49-.625.734-1.38.734-2.265zm3.985-2.704h1.86l-.844 4.094c-.105.49-.157.792-.157.906 0 .209.073.386.22.532a.792.792 0 0 0 .562.203c.167 0 .328-.031.484-.094.167-.063.333-.156.5-.281.167-.135.318-.281.453-.438.135-.167.26-.385.375-.656.083-.198.172-.526.266-.984l.703-3.282h1.86l-1.438 6.907h-1.75l.203-.938c-.77.73-1.604 1.094-2.5 1.094-.573 0-1.021-.161-1.344-.484s-.484-.761-.484-1.313c0-.23.073-.703.219-1.422zm7.173 1.375.28-1.375h.923l.219-1.109 2.14-1.297-.5 2.406h1.14l-.28 1.375h-1.141l-.61 2.907c-.114.52-.171.817-.171.89 0 .147.047.261.14.344.093.073.26.11.5.11.083 0 .287-.016.61-.047l-.282 1.39a5.234 5.234 0 0 1 -1 .094c-.656 0-1.135-.125-1.437-.375-.292-.25-.438-.604-.438-1.063 0-.208.078-.697.235-1.468l.578-2.782zm10.704 2.657h-4.688v.172c0 .458.13.828.39 1.109s.579.422.954.422c.625 0 1.109-.323 1.453-.969l1.672.281c-.323.677-.76 1.183-1.313 1.516-.541.333-1.15.5-1.828.5-.927 0-1.682-.292-2.265-.875-.573-.583-.86-1.36-.86-2.328 0-.948.26-1.792.782-2.531.719-1 1.74-1.5 3.062-1.5.844 0 1.516.265 2.016.796.5.521.75 1.25.75 2.188 0 .448-.042.854-.125 1.219zm-1.578-1.14v-.188c0-.51-.115-.891-.344-1.141-.23-.26-.537-.39-.922-.39s-.734.146-1.047.437c-.302.281-.505.708-.61 1.281h2.923zm3.6-2.892h1.75l-.282 1.329c.646-1 1.35-1.5 2.11-1.5.27 0 .557.068.859.203l-.703 1.53a1.646 1.646 0 0 0 -.547-.093c-.323 0-.65.125-.984.375-.333.24-.594.563-.782.969-.177.407-.359 1.047-.546 1.922l-.454 2.172h-1.875zm3.186 9.547v-1.187h7.61v1.187zm7.835-4.578 1.812-.281c.157.385.355.656.594.812.24.157.563.235.969.235.427 0 .77-.094 1.03-.281.178-.136.267-.298.267-.485a.45.45 0 0 0 -.141-.328c-.093-.104-.354-.224-.781-.36-1.125-.375-1.823-.666-2.094-.874a1.644 1.644 0 0 1 -.625-1.328c0-.553.203-1.027.61-1.422.573-.552 1.416-.828 2.53-.828.896 0 1.568.167 2.016.5.459.323.75.76.875 1.312l-1.734.297a.999.999 0 0 0 -.438-.563c-.281-.167-.615-.25-1-.25-.395 0-.682.068-.86.204-.167.125-.25.27-.25.437 0 .177.089.318.267.422.104.073.453.198 1.046.375.917.26 1.526.52 1.829.781.437.354.656.786.656 1.297 0 .656-.276 1.224-.828 1.703-.552.48-1.328.719-2.328.719s-1.776-.182-2.329-.547c-.541-.365-.906-.88-1.093-1.547zm12.334-.672 1.813.297c-.292.813-.735 1.427-1.329 1.844-.583.417-1.26.625-2.03.625-.886 0-1.59-.26-2.11-.781-.51-.521-.766-1.245-.766-2.172 0-.75.156-1.458.469-2.125a3.623 3.623 0 0 1 1.406-1.578 3.933 3.933 0 0 1 2.078-.578c.813 0 1.464.213 1.953.64.49.427.761.99.813 1.688l-1.766.187c-.041-.385-.161-.667-.36-.844-.187-.187-.437-.28-.75-.28-.364 0-.702.135-1.015.405-.312.26-.551.662-.718 1.204-.167.53-.25 1.03-.25 1.5 0 .406.099.724.296.953a.968.968 0 0 0 .75.328c.303 0 .59-.11.86-.328.281-.219.5-.547.656-.985zm3.006-.265c0-1.281.36-2.302 1.078-3.063.719-.76 1.667-1.14 2.844-1.14 1.02 0 1.817.281 2.39.843.573.563.86 1.318.86 2.266 0 1.125-.36 2.093-1.078 2.906-.709.813-1.667 1.219-2.875 1.219-.646 0-1.224-.13-1.734-.39-.5-.26-.875-.625-1.125-1.094-.24-.48-.36-.996-.36-1.547zm5.313-1.328c0-.448-.13-.802-.39-1.063-.25-.27-.579-.406-.985-.406-.407 0-.766.125-1.078.375-.313.25-.558.615-.735 1.094a3.93 3.93 0 0 0 -.25 1.312c0 .49.13.88.39 1.172.271.291.61.437 1.016.437.521 0 .954-.219 1.297-.656.49-.625.735-1.38.735-2.265zm3.938-2.704h1.766l-.141.704c.375-.313.724-.537 1.047-.672a2.796 2.796 0 0 1 1.062-.203c.73 0 1.313.25 1.75.75.438.5.657 1.245.657 2.234 0 1.25-.375 2.302-1.125 3.156-.657.73-1.428 1.094-2.313 1.094-.917 0-1.61-.37-2.078-1.11l-.75 3.594h-1.875zm1.125 3.954c0 .541.13.963.39 1.265.26.292.568.438.922.438.313 0 .61-.11.891-.328.292-.23.532-.6.719-1.11.187-.52.281-1.005.281-1.453 0-.51-.125-.901-.375-1.172a1.173 1.173 0 0 0 -.937-.422c-.355 0-.678.125-.97.375-.291.25-.52.625-.687 1.125-.156.49-.234.917-.234 1.282zm12.36.078h-4.687v.172c0 .458.13.828.39 1.109s.578.422.953.422c.625 0 1.11-.323 1.453-.969l1.672.281c-.323.677-.76 1.183-1.312 1.516a3.42 3.42 0 0 1 -1.828.5c-.927 0-1.682-.292-2.266-.875-.573-.583-.86-1.36-.86-2.328 0-.948.26-1.792.782-2.531.719-1 1.74-1.5 3.062-1.5.844 0 1.516.265 2.016.796.5.521.75 1.25.75 2.188 0 .448-.042.854-.125 1.219zm-1.578-1.14v-.188c0-.51-.115-.891-.344-1.141-.23-.26-.537-.39-.922-.39s-.734.146-1.047.437c-.302.281-.505.708-.609 1.281h2.922zm-76.324 39.212v-1.329h1.343v1.329h-1.344zm3.702 0v-1.329h1.344v1.329zm3.703 0v-1.329h1.344v1.329z" fill="#000" fill-rule="nonzero"/><path d="m398.908 20.357h154.866v47.622h-154.866z"/><g fill-rule="nonzero"><path d="m408.752 50.602 1.656-.14c.083.667.266 1.213.547 1.64.292.427.74.776 1.344 1.047.615.26 1.302.39 2.062.39.667 0 1.26-.099 1.782-.296.52-.198.906-.469 1.156-.813.25-.354.375-.74.375-1.156a1.7 1.7 0 0 0 -.375-1.094c-.24-.312-.636-.578-1.188-.797-.364-.135-1.16-.349-2.39-.64-1.219-.302-2.073-.583-2.563-.844-.645-.333-1.124-.745-1.437-1.234a3.09 3.09 0 0 1 -.469-1.672c0-.667.193-1.292.578-1.875.385-.593.943-1.041 1.672-1.344.74-.302 1.558-.453 2.453-.453.99 0 1.86.161 2.61.484.76.313 1.343.782 1.75 1.407a4.01 4.01 0 0 1 .656 2.093l-1.688.125c-.093-.843-.406-1.479-.937-1.906-.52-.437-1.292-.656-2.313-.656-1.073 0-1.854.198-2.343.594-.49.395-.735.869-.735 1.421 0 .48.177.87.531 1.172.333.313 1.219.636 2.657.969 1.437.323 2.422.604 2.953.844.781.354 1.354.807 1.719 1.36.375.551.562 1.186.562 1.905 0 .709-.203 1.38-.61 2.016-.406.625-.99 1.115-1.75 1.469-.76.343-1.619.515-2.577.515-1.209 0-2.224-.177-3.047-.53a4.317 4.317 0 0 1 -1.922-1.595c-.459-.708-.698-1.51-.719-2.406zm13.131 4.297v-13.36h9.016v1.579h-7.25v4.14h6.265v1.579h-6.265v6.062zm11.6 0v-13.36h1.765v13.361h-1.766z" fill="#000"/><path d="m200.995 67.979h154.86v35.197h-154.86z" fill="#fff"/><path d="m200.995 103.176h154.86v35.197h-154.86zm0 35.197h154.86v35.197h-154.86z" fill="#fff"/></g><path d="m200.995 67.48v106.588m154.861-106.588v106.588m-155.36-106.089h155.858m-155.858 35.197h155.858m-155.858 35.197h155.858m-155.858 35.197h155.858" stroke="#000"/><path d="m210.948 89.779v-1.828h1.828v1.828zm3.703 0v-1.828h1.828v1.828zm3.703 0v-1.828h1.828v1.828zm-7.953 33.134 1.156-.187c.073.469.256.828.547 1.078.302.24.719.36 1.25.36.542 0 .943-.11 1.203-.329s.39-.474.39-.765c0-.26-.12-.469-.358-.625-.157-.105-.553-.235-1.188-.391-.865-.219-1.464-.406-1.797-.563a1.933 1.933 0 0 1 -.75-.656 1.804 1.804 0 0 1 -.25-.937c0-.302.068-.583.203-.844.146-.27.339-.495.578-.672.188-.125.438-.234.75-.328.313-.093.652-.14 1.016-.14.542 0 1.016.078 1.422.234.407.156.709.37.906.64.198.26.333.615.406 1.063l-1.14.156c-.052-.354-.203-.63-.453-.828-.25-.209-.604-.313-1.063-.313-.541 0-.927.089-1.156.266-.23.177-.344.386-.344.625a.69.69 0 0 0 .14.422c.105.125.256.229.454.312.115.042.458.141 1.031.297.833.219 1.411.401 1.734.547.333.135.594.339.782.61.187.27.281.604.281 1 0 .395-.115.765-.344 1.109s-.562.61-1 .797a3.58 3.58 0 0 1 -1.453.281c-.896 0-1.578-.187-2.047-.562s-.77-.928-.906-1.657zm7.133 2.063v-9.547h1.172v3.422a2.655 2.655 0 0 1 2.078-.938c.51 0 .953.099 1.328.297s.645.48.812.844c.167.354.25.87.25 1.547v4.375h-1.171v-4.376c0-.593-.13-1.02-.391-1.281-.25-.271-.61-.407-1.078-.407-.344 0-.672.094-.985.282-.302.177-.52.421-.656.734-.125.302-.187.724-.187 1.266v3.78h-1.172zm11.928-.86c-.437.375-.86.641-1.266.797-.395.147-.822.22-1.281.22-.76 0-1.343-.183-1.75-.548-.407-.375-.61-.854-.61-1.437 0-.333.073-.64.22-.922.156-.281.359-.505.609-.672a3.12 3.12 0 0 1 .844-.39c.229-.053.577-.11 1.046-.173.948-.114 1.646-.25 2.094-.406v-.297c0-.479-.11-.817-.328-1.015-.302-.26-.75-.39-1.344-.39-.541 0-.947.099-1.218.296-.26.187-.454.526-.579 1.016l-1.14-.157c.104-.49.276-.885.515-1.187.24-.302.584-.531 1.032-.688.448-.167.969-.25 1.562-.25s1.073.068 1.438.203c.375.136.645.313.812.532.177.208.302.474.375.797.031.197.047.557.047 1.078v1.562c0 1.083.026 1.771.078 2.063.052.291.151.567.297.828h-1.219a2.326 2.326 0 0 1 -.234-.86zm-.094-2.609c-.427.177-1.067.323-1.922.438-.479.073-.817.156-1.015.25a1.054 1.054 0 0 0 -.47.375 1.017 1.017 0 0 0 -.155.546c0 .313.114.574.343.782.24.208.589.312 1.047.312.448 0 .849-.099 1.203-.297.355-.198.615-.469.782-.812.125-.26.187-.65.187-1.172zm2.975 3.469v-6.906h1.063v1.046c.27-.49.515-.812.734-.968.23-.157.485-.235.766-.235.395 0 .796.125 1.203.375l-.406 1.078a1.728 1.728 0 0 0 -.86-.25c-.26 0-.494.078-.703.235-.198.156-.339.37-.422.64a4.38 4.38 0 0 0 -.203 1.36v3.625zm9.189-2.219 1.203.14c-.188.709-.542 1.261-1.063 1.657-.51.385-1.166.578-1.969.578-1.01 0-1.812-.312-2.406-.937-.593-.625-.89-1.495-.89-2.61 0-1.167.297-2.068.89-2.703.604-.646 1.385-.969 2.344-.969.927 0 1.682.313 2.266.938.583.625.875 1.51.875 2.656v.313h-5.157c.042.76.255 1.343.64 1.75.386.395.865.593 1.438.593.438 0 .808-.11 1.11-.328.302-.23.542-.589.719-1.078zm-3.844-1.906h3.86c-.053-.573-.199-1.006-.438-1.297a1.792 1.792 0 0 0 -1.453-.688c-.542 0-.995.182-1.36.547-.365.355-.568.834-.61 1.438zm11.006 4.125v-.875c-.437.687-1.083 1.031-1.938 1.031a2.745 2.745 0 0 1 -1.515-.453 3.06 3.06 0 0 1 -1.078-1.266c-.25-.552-.375-1.182-.375-1.89 0-.688.114-1.313.343-1.875.23-.563.573-.99 1.032-1.282a2.798 2.798 0 0 1 1.547-.453c.417 0 .786.089 1.109.266.333.167.599.39.797.672v-3.422h1.172v9.547zm-3.703-3.453c0 .885.187 1.547.562 1.984s.818.656 1.328.656.943-.208 1.297-.625c.355-.417.532-1.052.532-1.906 0-.948-.182-1.64-.547-2.078-.365-.448-.813-.672-1.344-.672-.52 0-.958.213-1.313.64-.343.417-.515 1.084-.515 2zm5.553 6.11v-.86h7.766v.86zm8.772-2.657v-6h-1.031v-.906h1.03v-.735c0-.469.042-.818.126-1.047.115-.302.313-.547.594-.734.28-.187.682-.281 1.203-.281.323 0 .687.037 1.093.11l-.187 1.03a4.057 4.057 0 0 0 -.688-.062c-.353 0-.603.078-.75.234-.145.146-.218.427-.218.844v.64h1.343v.907h-1.343v6zm7.953 0v-1.016c-.542.781-1.271 1.172-2.188 1.172a2.79 2.79 0 0 1 -1.14-.234c-.355-.157-.62-.35-.797-.578a2.394 2.394 0 0 1 -.36-.875c-.041-.23-.062-.594-.062-1.094v-4.281h1.172v3.828c0 .615.02 1.026.062 1.234.073.313.23.557.469.734.24.167.537.25.89.25.344 0 .672-.088.985-.265s.531-.422.656-.735c.125-.312.188-.76.188-1.343v-3.703h1.172v6.906zm2.881 0v-6.906h1.063v.984c.5-.76 1.229-1.14 2.187-1.14.417 0 .802.073 1.156.218.355.146.615.344.782.594.177.24.302.527.375.86.041.218.062.598.062 1.14v4.25h-1.172v-4.203c0-.48-.047-.834-.14-1.063a1.105 1.105 0 0 0 -.485-.562 1.48 1.48 0 0 0 -.812-.219c-.5 0-.932.156-1.297.469-.365.312-.547.911-.547 1.797v3.78h-1.172zm11.928-2.531 1.156.156c-.125.791-.447 1.411-.968 1.86-.521.447-1.162.671-1.922.671-.937 0-1.698-.307-2.281-.922-.573-.625-.86-1.51-.86-2.656 0-.75.125-1.406.375-1.969s.625-.98 1.125-1.25a3.377 3.377 0 0 1 1.656-.422c.75 0 1.365.193 1.844.578.48.375.787.912.922 1.61l-1.14.172c-.115-.469-.313-.818-.594-1.047-.271-.24-.6-.36-.985-.36-.593 0-1.078.214-1.453.641-.365.427-.547 1.093-.547 2 0 .937.177 1.614.532 2.031.364.417.833.625 1.406.625.458 0 .838-.14 1.14-.422.313-.28.511-.713.594-1.296zm4.711 1.484.172 1.031c-.333.073-.63.11-.89.11-.427 0-.76-.068-1-.204a1.133 1.133 0 0 1 -.485-.53c-.093-.22-.14-.683-.14-1.391v-3.97h-.86v-.905h.86v-1.72l1.171-.702v2.422h1.172v.906h-1.172v4.047c0 .333.016.547.047.64.042.094.11.172.203.235.093.052.229.078.406.078.136 0 .308-.016.516-.047zm1.156-7.14v-1.36h1.172v1.36zm0 8.187v-6.906h1.172v6.906zm2.508-3.453c0-1.281.36-2.23 1.078-2.844.593-.51 1.317-.766 2.172-.766.948 0 1.724.313 2.328.938.605.615.907 1.474.907 2.578 0 .885-.136 1.583-.407 2.094-.26.51-.645.906-1.156 1.187a3.408 3.408 0 0 1 -1.672.422c-.969 0-1.755-.307-2.36-.922-.593-.625-.89-1.52-.89-2.687zm1.203 0c0 .885.193 1.547.578 1.984.396.437.886.656 1.47.656.583 0 1.067-.219 1.452-.656.385-.448.578-1.125.578-2.031 0-.854-.198-1.5-.593-1.938a1.839 1.839 0 0 0 -1.438-.656c-.583 0-1.073.219-1.469.656-.385.438-.578 1.1-.578 1.985zm6.647 3.453v-6.906h1.063v.984c.5-.76 1.229-1.14 2.187-1.14.417 0 .802.073 1.156.218.355.146.615.344.782.594.177.24.302.527.375.86.041.218.062.598.062 1.14v4.25h-1.172v-4.203c0-.48-.047-.834-.14-1.063a1.105 1.105 0 0 0 -.485-.562 1.48 1.48 0 0 0 -.812-.219c-.5 0-.932.156-1.297.469-.365.312-.547.911-.547 1.797v3.78h-1.172zm6.334 2.656v-.86h7.766v.86zm8.507-10.844v-1.359h1.172v1.36h-1.172zm0 8.188v-6.906h1.172v6.906zm2.945 0v-6.906h1.063v.984c.5-.76 1.229-1.14 2.187-1.14.417 0 .802.073 1.156.218.355.146.615.344.782.594.177.24.302.527.375.86.041.218.062.598.062 1.14v4.25h-1.172v-4.203c0-.48-.047-.834-.14-1.063a1.105 1.105 0 0 0 -.485-.562 1.476 1.476 0 0 0 -.812-.219c-.5 0-.932.156-1.297.469-.365.312-.547.911-.547 1.797v3.78h-1.172zm7.694 0v-6h-1.031v-.906h1.03v-.735c0-.469.042-.818.126-1.047.115-.302.313-.547.594-.734.28-.187.682-.281 1.203-.281.323 0 .687.037 1.093.11l-.187 1.03a4.057 4.057 0 0 0 -.688-.062c-.353 0-.603.078-.75.234-.145.146-.218.427-.218.844v.64h1.343v.907h-1.343v6zm2.984-3.453c0-1.281.36-2.23 1.078-2.844.593-.51 1.317-.766 2.172-.766.948 0 1.724.313 2.328.938.604.615.906 1.474.906 2.578 0 .885-.135 1.583-.406 2.094-.26.51-.645.906-1.156 1.187a3.408 3.408 0 0 1 -1.672.422c-.969 0-1.755-.307-2.36-.922-.593-.625-.89-1.52-.89-2.687zm1.203 0c0 .885.193 1.547.578 1.984.396.437.886.656 1.47.656.583 0 1.067-.219 1.452-.656.385-.448.578-1.125.578-2.031 0-.854-.198-1.5-.593-1.938a1.84 1.84 0 0 0 -1.438-.656c-.583 0-1.073.219-1.469.656-.385.438-.578 1.1-.578 1.985zm-117.022 38.65v-1.828h1.828v1.828zm3.703 0v-1.828h1.828v1.828zm3.703 0v-1.828h1.828v1.828z" fill="#000" fill-rule="nonzero"/><path d="m559.562 20.357h154.866v47.622h-154.866z"/><path d="m569.406 50.602 1.656-.14c.083.667.266 1.213.547 1.64.291.427.74.776 1.344 1.047.614.26 1.301.39 2.062.39.667 0 1.26-.099 1.781-.296.521-.198.907-.469 1.157-.813.25-.354.375-.74.375-1.156a1.7 1.7 0 0 0 -.375-1.094c-.24-.312-.636-.578-1.188-.797-.365-.135-1.161-.349-2.39-.64-1.22-.302-2.074-.583-2.563-.844-.646-.333-1.125-.745-1.438-1.234a3.094 3.094 0 0 1 -.468-1.672c0-.667.193-1.292.578-1.875.385-.593.943-1.041 1.672-1.344.74-.302 1.557-.453 2.453-.453.99 0 1.86.161 2.61.484.76.313 1.343.782 1.75 1.407.406.614.624 1.312.655 2.093l-1.687.125c-.093-.843-.406-1.479-.938-1.906-.52-.437-1.29-.656-2.312-.656-1.073 0-1.855.198-2.344.594-.49.395-.734.869-.734 1.421 0 .48.177.87.531 1.172.333.313 1.219.636 2.656.969 1.438.323 2.422.604 2.953.844.781.354 1.355.807 1.72 1.36.375.551.562 1.186.562 1.905 0 .709-.203 1.38-.61 2.016-.407.625-.99 1.115-1.75 1.469-.76.343-1.62.515-2.578.515-1.208 0-2.224-.177-3.047-.53a4.324 4.324 0 0 1 -1.922-1.595c-.458-.708-.697-1.51-.718-2.406zm19.146.75 1.61.219c-.177 1.104-.63 1.974-1.36 2.61-.719.625-1.61.937-2.672.937-1.323 0-2.385-.432-3.187-1.297s-1.203-2.104-1.203-3.719c0-1.052.172-1.969.515-2.75.344-.781.87-1.365 1.579-1.75a4.657 4.657 0 0 1 2.312-.594c1.052 0 1.911.266 2.578.797s1.094 1.287 1.281 2.266l-1.593.234c-.157-.645-.428-1.13-.813-1.453-.385-.333-.849-.5-1.39-.5-.823 0-1.495.297-2.016.89-.52.594-.781 1.532-.781 2.813 0 1.302.25 2.25.75 2.844.5.583 1.151.875 1.953.875.646 0 1.183-.198 1.61-.594.437-.395.712-1.005.827-1.828zm2.407-1.297c0-1.791.495-3.114 1.484-3.968.833-.72 1.849-1.079 3.047-1.079 1.333 0 2.422.438 3.265 1.313.844.865 1.266 2.068 1.266 3.61 0 1.24-.187 2.218-.562 2.937a3.996 3.996 0 0 1 -1.641 1.656 4.692 4.692 0 0 1 -2.328.594c-1.354 0-2.448-.432-3.281-1.297-.833-.875-1.25-2.13-1.25-3.766zm1.687 0c0 1.24.266 2.172.797 2.797.541.615 1.224.922 2.047.922.813 0 1.49-.307 2.031-.922.542-.625.813-1.573.813-2.844 0-1.197-.271-2.103-.813-2.718-.541-.615-1.218-.922-2.031-.922-.823 0-1.506.307-2.047.922-.531.604-.797 1.526-.797 2.765zm9.298 8.547v-13.375h1.484v1.25c.354-.49.75-.854 1.188-1.094.447-.25.989-.375 1.625-.375.823 0 1.546.214 2.171.641.636.417 1.115 1.016 1.438 1.797.323.77.484 1.62.484 2.547 0 .99-.177 1.88-.531 2.672-.354.791-.87 1.4-1.547 1.828a4.018 4.018 0 0 1 -2.14.625 3.17 3.17 0 0 1 -2.532-1.219v4.703zm1.484-8.484c0 1.24.25 2.162.75 2.765.51.594 1.12.891 1.828.891.73 0 1.354-.307 1.875-.922.52-.625.781-1.583.781-2.875 0-1.23-.255-2.151-.765-2.765-.5-.615-1.104-.922-1.813-.922-.698 0-1.318.328-1.86.984-.53.646-.796 1.594-.796 2.844zm15.516 1.672 1.688.203c-.27.99-.765 1.76-1.484 2.312-.72.542-1.641.813-2.766.813-1.417 0-2.542-.432-3.375-1.297-.823-.875-1.234-2.1-1.234-3.672 0-1.635.417-2.901 1.25-3.797.843-.896 1.932-1.344 3.265-1.344 1.292 0 2.344.443 3.156 1.329.823.875 1.235 2.109 1.235 3.703v.437h-7.219c.063 1.063.365 1.88.906 2.453.542.563 1.214.844 2.016.844.604 0 1.12-.156 1.547-.469.427-.323.765-.828 1.015-1.515zm-5.39-2.657h5.406c-.073-.812-.282-1.421-.625-1.828-.52-.635-1.198-.953-2.031-.953-.75 0-1.385.255-1.906.766-.51.5-.792 1.172-.844 2.015zm9.641 5.766v-13.36h1.766v13.361h-1.766zm4.683 0v-9.672h1.47v1.375c.708-1.063 1.734-1.594 3.077-1.594.583 0 1.12.104 1.61.313.49.208.854.484 1.093.828.25.333.422.734.516 1.203.063.302.094.833.094 1.594v5.953h-1.64v-5.89c0-.667-.068-1.162-.204-1.485a1.56 1.56 0 0 0 -.672-.797c-.323-.198-.703-.297-1.14-.297a2.66 2.66 0 0 0 -1.813.672c-.5.437-.75 1.276-.75 2.516v5.281zm10.767 0v-8.406h-1.453v-1.266h1.453v-1.031c0-.646.057-1.13.172-1.453.156-.427.432-.77.828-1.031.395-.26.953-.391 1.672-.391.458 0 .968.052 1.53.156l-.25 1.438a5.158 5.158 0 0 0 -.952-.094c-.5 0-.854.11-1.063.328-.208.209-.312.605-.312 1.188v.89h1.89v1.266h-1.89v8.406zm4.183-4.844c0-1.791.495-3.114 1.484-3.968.833-.72 1.849-1.079 3.047-1.079 1.333 0 2.422.438 3.266 1.313.844.865 1.266 2.068 1.266 3.61 0 1.24-.188 2.218-.563 2.937a3.99 3.99 0 0 1 -1.64 1.656 4.694 4.694 0 0 1 -2.329.594c-1.353 0-2.447-.432-3.28-1.297-.833-.875-1.25-2.13-1.25-3.766zm1.688 0c0 1.24.265 2.172.796 2.797.542.615 1.224.922 2.047.922.813 0 1.49-.307 2.032-.922.541-.625.812-1.573.812-2.844 0-1.197-.27-2.103-.812-2.718s-1.22-.922-2.032-.922c-.823 0-1.505.307-2.047.922-.53.604-.796 1.526-.796 2.765z" fill="#000" fill-rule="nonzero"/><path d="m568.995 67.979h110.924v35.197h-110.924z" fill="#fff" fill-rule="nonzero"/><path d="m568.995 103.176h110.924v35.197h-110.924zm0 35.197h110.924v35.197h-110.924z" fill="#fff" fill-rule="nonzero"/><path d="m568.995 67.48v106.588m110.924-106.588v106.588m-111.423-106.089h111.921m-111.921 35.197h111.921m-111.921 35.197h111.921m-111.921 35.197h111.921" stroke="#000"/><path d="m579.198 89.779v-1.328h1.344v1.328zm3.703 0v-1.328h1.344v1.328h-1.345zm3.703 0v-1.328h1.344v1.328zm-8.078 31.65c0-.615.151-1.203.453-1.766a3.046 3.046 0 0 1 1.266-1.297 3.776 3.776 0 0 1 1.843-.453c1.042 0 1.896.339 2.563 1.016.677.677 1.016 1.537 1.016 2.578 0 1.042-.339 1.907-1.016 2.594s-1.526 1.031-2.547 1.031c-.635 0-1.24-.14-1.812-.422a3.018 3.018 0 0 1 -1.313-1.265c-.302-.553-.453-1.225-.453-2.016zm1.875.094c0 .687.161 1.213.484 1.578.333.365.734.547 1.203.547.48 0 .881-.182 1.204-.547s.484-.896.484-1.594c0-.677-.161-1.198-.484-1.562a1.544 1.544 0 0 0 -1.204-.547c-.469 0-.87.182-1.203.547-.323.364-.484.89-.484 1.578zm11.235 3.453v-1.031c-.25.364-.583.656-1 .875a2.776 2.776 0 0 1 -1.281.312c-.469 0-.89-.099-1.266-.297a1.864 1.864 0 0 1 -.797-.86c-.156-.375-.234-.885-.234-1.53v-4.375h1.828v3.171c0 .97.031 1.563.094 1.782.073.219.198.396.375.531.177.125.4.187.672.187.312 0 .593-.083.843-.25.25-.177.417-.39.5-.64.094-.26.141-.885.141-1.875v-2.906h1.828v6.906zm6.766-6.906v1.453h-1.25v2.781c0 .563.01.89.032.984a.479.479 0 0 0 .484.328c.167 0 .411-.057.734-.171l.157 1.421a3.756 3.756 0 0 1 -1.453.266c-.323 0-.62-.052-.891-.156-.26-.115-.453-.26-.578-.438-.125-.177-.214-.416-.266-.718-.031-.209-.047-.636-.047-1.282v-3.015h-.843v-1.453h.843v-1.375l1.828-1.079v2.454zm5.267 4.703 1.828.312c-.23.667-.6 1.177-1.11 1.531-.51.344-1.14.516-1.89.516-1.208 0-2.099-.39-2.672-1.172-.458-.635-.687-1.432-.687-2.39 0-1.147.297-2.043.89-2.688.605-.646 1.365-.969 2.282-.969 1.03 0 1.843.339 2.437 1.016.593.677.875 1.719.844 3.125h-4.578c.01.541.156.963.437 1.266.281.302.636.453 1.063.453.281 0 .52-.078.718-.235.198-.156.344-.411.438-.765zm.11-1.844c-.01-.531-.146-.932-.407-1.203a1.248 1.248 0 0 0 -.953-.422c-.396 0-.724.146-.984.437-.26.292-.391.688-.391 1.188zm5.052 4.047h-1.828v-6.906h1.703v.984c.292-.469.553-.776.782-.922s.494-.219.797-.219c.417 0 .818.115 1.203.344l-.563 1.594c-.313-.198-.6-.297-.86-.297a.994.994 0 0 0 -.655.219c-.177.135-.318.39-.422.765-.105.365-.157 1.13-.157 2.297zm2.36 2.64v-1.187h7.608v1.187h-7.609zm7.849-4.609 1.828-.281c.083.354.245.625.485.812.24.177.573.266 1 .266.469 0 .823-.083 1.062-.25a.58.58 0 0 0 .25-.484.487.487 0 0 0 -.14-.36c-.084-.083-.287-.161-.61-.234-1.469-.323-2.401-.62-2.797-.89-.552-.375-.828-.896-.828-1.563 0-.593.234-1.093.703-1.5.48-.407 1.214-.61 2.203-.61.948 0 1.651.157 2.11.47.469.301.786.754.953 1.358l-1.719.313a1.013 1.013 0 0 0 -.422-.61c-.208-.145-.505-.218-.89-.218-.48 0-.824.068-1.032.203a.422.422 0 0 0 -.203.36c0 .135.063.249.188.343.156.115.718.287 1.687.516.98.219 1.667.49 2.063.812.375.323.562.777.562 1.36 0 .635-.266 1.182-.797 1.64-.52.448-1.302.672-2.343.672-.938 0-1.683-.187-2.235-.562a2.642 2.642 0 0 1 -1.078-1.563zm14.084-2.906-1.796.328c-.063-.354-.203-.62-.422-.797-.219-.187-.495-.281-.828-.281-.459 0-.823.156-1.094.469-.27.312-.406.838-.406 1.578 0 .823.135 1.406.406 1.75.281.333.651.5 1.11.5.353 0 .64-.099.859-.297s.375-.542.468-1.031l1.797.312c-.187.823-.547 1.448-1.078 1.875-.531.417-1.24.625-2.125.625-1.01 0-1.818-.318-2.422-.953s-.906-1.52-.906-2.656c0-1.135.302-2.021.906-2.657.604-.635 1.422-.953 2.453-.953.844 0 1.51.182 2 .547.5.354.86.9 1.078 1.64zm.96 1.328c0-.615.151-1.203.453-1.766a3.047 3.047 0 0 1 1.265-1.297 3.782 3.782 0 0 1 1.844-.453c1.042 0 1.896.339 2.563 1.016.677.677 1.015 1.537 1.015 2.578 0 1.042-.338 1.907-1.015 2.594s-1.526 1.031-2.547 1.031c-.635 0-1.24-.14-1.813-.422a3.019 3.019 0 0 1 -1.312-1.265c-.302-.553-.453-1.225-.453-2.016zm1.875.094c0 .687.161 1.213.484 1.578.333.365.734.547 1.203.547.48 0 .88-.182 1.203-.547s.485-.896.485-1.594c0-.677-.162-1.198-.485-1.562a1.541 1.541 0 0 0 -1.203-.547c-.469 0-.87.182-1.203.547-.323.364-.484.89-.484 1.578zm6.641-3.453h1.703v1.015c.219-.354.515-.635.89-.844a2.525 2.525 0 0 1 1.266-.328c.803 0 1.48.313 2.032.938.562.625.843 1.5.843 2.625 0 1.156-.281 2.057-.843 2.703-.563.635-1.245.953-2.047.953-.385 0-.734-.073-1.047-.219-.302-.156-.625-.422-.969-.797v3.485h-1.828zm1.813 3.328c0 .781.151 1.36.453 1.734.312.365.687.547 1.125.547.427 0 .78-.167 1.062-.5.281-.344.422-.907.422-1.688 0-.719-.146-1.255-.437-1.609-.292-.354-.652-.531-1.079-.531-.447 0-.817.172-1.109.515-.291.344-.437.855-.437 1.532zm10.375 1.375 1.828.312c-.229.667-.598 1.177-1.109 1.531-.51.344-1.14.516-1.89.516-1.209 0-2.1-.39-2.672-1.172-.459-.635-.688-1.432-.688-2.39 0-1.147.297-2.043.89-2.688.605-.646 1.365-.969 2.282-.969 1.031 0 1.844.339 2.437 1.016.594.677.875 1.719.844 3.125h-4.578c.01.541.157.963.438 1.266.28.302.635.453 1.062.453.281 0 .521-.078.719-.235.198-.156.344-.411.437-.765zm.11-1.844c-.01-.531-.146-.932-.407-1.203a1.248 1.248 0 0 0 -.953-.422c-.395 0-.723.146-.984.437-.26.292-.39.688-.39 1.188zm-75.7 39.244v-1.328h1.344v1.328zm3.703 0v-1.328h1.344v1.328h-1.345zm3.703 0v-1.328h1.344v1.328z" fill="#000" fill-rule="nonzero"/><path d="m147.483 122.824h19.164v-74.635h26.35"/><path d="m147.483 122.824h19.164v-74.635h14.35" stroke="#000" stroke-linejoin="round" stroke-width="2"/><path d="m180.996 51.493 9.077-3.304-9.077-3.303z" fill="#000" stroke="#000" stroke-width="2"/><path d="m355.856 122.824h19.164v-74.635h26.35"/><path d="m355.856 122.824h19.164v-74.635h14.35" stroke="#000" stroke-linejoin="round" stroke-width="2"/><path d="m389.37 51.492 9.075-3.303-9.076-3.304z" fill="#000" stroke="#000" stroke-width="2"/><path d="m519.26 155.905h19.164v-107.715h26.35"/><g stroke="#595959" stroke-width="2"><path d="m519.26 155.905h19.164v-107.716h14.35" stroke-linejoin="round"/><path d="m552.773 51.492 9.076-3.303-9.076-3.303z" fill="#595959"/></g></g></g></g></svg>