<svg fill="none" height="371" stroke-linecap="square" stroke-miterlimit="10" width="600" xmlns="http://www.w3.org/2000/svg"><clipPath id="a"><path d="M121.936 52.917h383.545V298.45H121.936z"/></clipPath><path d="M0 0h600v371H0z" fill="#fff"/><path d="M121.5 52.5v246" stroke="#333" stroke-linecap="butt"/><path d="M198.5 52.5v246m77-246v246m77-246v246m76-246v246m77-246v246" stroke="#ccc" stroke-linecap="butt"/><path clip-path="url(#a)" d="M122 101V78h120a2 2 0 0 1 2 2v19a2 2 0 0 1-2 2z"/><path clip-path="url(#a)" d="M122 101V78h120a2 2 0 0 1 2 2v19a2 2 0 0 1-2 2z" fill="#6d9eeb"/><path clip-path="url(#a)" d="M122 175v-23h147a2 2 0 0 1 2 2v19a2 2 0 0 1-2 2z"/><path clip-path="url(#a)" d="M122 175v-23h147a2 2 0 0 1 2 2v19a2 2 0 0 1-2 2z" fill="#6d9eeb"/><path clip-path="url(#a)" d="M122 248v-23h47a2 2 0 0 1 2 2v19a2 2 0 0 1-2 2z"/><path clip-path="url(#a)" d="M122 248v-23h47a2 2 0 0 1 2 2v19a2 2 0 0 1-2 2z" fill="#6d9eeb"/><path clip-path="url(#a)" d="M122 125v-23h332a2 2 0 0 1 2 2v19a2 2 0 0 1-2 2z"/><path clip-path="url(#a)" d="M122 125v-23h332a2 2 0 0 1 2 2v19a2 2 0 0 1-2 2z" fill="#1c4587"/><path clip-path="url(#a)" d="M122 199v-23h185a2 2 0 0 1 2 2v19a2 2 0 0 1-2 2z"/><path clip-path="url(#a)" d="M122 199v-23h185a2 2 0 0 1 2 2v19a2 2 0 0 1-2 2z" fill="#1c4587"/><path clip-path="url(#a)" d="M122 272v-23h80a2 2 0 0 1 2 2v19a2 2 0 0 1-2 2z"/><path clip-path="url(#a)" d="M122 272v-23h80a2 2 0 0 1 2 2v19a2 2 0 0 1-2 2z" fill="#1c4587"/><path d="M222.693 349.45v-8.531h2.797q1.39 0 2.078.578.703.562.703 1.687 0 .61-.344 1.078-.328.454-.921.704.703.187 1.093.734.407.531.407 1.281 0 1.156-.75 1.813-.735.656-2.094.656zm1.125-3.984v3.062h1.86q.796 0 1.25-.406.453-.406.453-1.125 0-1.531-1.688-1.531zm0-.907h1.703q.735 0 1.172-.359.453-.375.453-1.016 0-.703-.406-1.015-.406-.328-1.25-.328h-1.672zm8.344 5.016q-1.297 0-2.11-.844-.796-.86-.796-2.281v-.188q0-.953.359-1.687.36-.75 1-1.156.656-.422 1.406-.422 1.235 0 1.922.812.688.813.688 2.328v.454h-4.297q.03.937.547 1.515.53.578 1.343.578.563 0 .953-.234.407-.234.72-.625l.655.516q-.796 1.234-2.39 1.234zm-.14-5.688q-.657 0-1.11.485-.438.469-.531 1.328h3.171v-.078q-.046-.828-.453-1.281-.39-.454-1.078-.454zm4.53-.78l.032.796q.734-.906 1.906-.906 2.016 0 2.031 2.265v4.188h-1.094v-4.203q0-.672-.312-1-.297-.328-.953-.328-.531 0-.938.281-.39.281-.61.734v4.516h-1.077v-6.344h1.015zm8.516 5.577q.578 0 1.016-.343.437-.36.484-.891h1.031q-.031.547-.39 1.047-.344.484-.922.781-.563.297-1.219.297-1.297 0-2.062-.86-.75-.874-.75-2.374v-.188q0-.922.328-1.64.343-.72.968-1.11.641-.406 1.516-.406 1.063 0 1.766.64.718.625.765 1.657h-1.031q-.047-.625-.469-1.016-.422-.39-1.031-.39-.828 0-1.281.593-.453.594-.453 1.719v.203q0 1.094.453 1.688.453.593 1.281.593zm4.547-4.812q.719-.875 1.875-.875 2.016 0 2.031 2.265v4.188h-1.094v-4.203q0-.672-.312-1-.297-.328-.953-.328-.531 0-.938.281-.39.281-.61.734v4.516h-1.077v-9h1.078zm6.937-.766l.032.703q.687-.812 1.875-.812 1.328 0 1.812 1.015.313-.453.813-.734.515-.281 1.203-.281 2.094 0 2.125 2.203v4.25h-1.078v-4.188q0-.671-.313-1-.312-.343-1.047-.343-.61 0-1.015.36-.39.358-.453.968v4.203h-1.079v-4.156q0-1.375-1.359-1.375-1.062 0-1.453.906v4.625h-1.094v-6.344zm13.891 6.344q-.094-.188-.156-.672-.75.797-1.797.797-.938 0-1.547-.531-.594-.531-.594-1.36 0-.984.75-1.53.75-.548 2.125-.548h1.047v-.5q0-.562-.344-.89-.328-.344-1-.344-.578 0-.968.297-.39.281-.39.703h-1.095q0-.485.328-.922.344-.438.922-.688.578-.265 1.266-.265 1.11 0 1.719.547.625.547.656 1.5v2.922q0 .875.219 1.39v.094h-1.14zm-1.797-.828q.516 0 .969-.266.453-.265.656-.687v-1.297h-.844q-2 0-2 1.172 0 .5.344.797.344.28.875.28zm7.953-4.547q-.25-.031-.53-.031-1.08 0-1.454.906v4.5h-1.078v-6.344h1.047l.015.735q.532-.844 1.516-.844.312 0 .484.078zm2.703 2.438l-.687.703v2.234h-1.078v-9h1.078v5.438l.578-.688 1.984-2.094h1.313l-2.469 2.656 2.766 3.688h-1.281l-2.204-2.938zm10.922 1.25q0-.438-.343-.672-.329-.25-1.157-.422-.812-.172-1.297-.422-.484-.25-.718-.578-.22-.344-.22-.813 0-.781.657-1.312.656-.547 1.688-.547 1.078 0 1.734.562.672.547.672 1.407h-1.078q0-.438-.39-.75-.376-.329-.938-.329-.594 0-.938.266-.328.25-.328.656 0 .391.313.594.312.203 1.125.39.812.173 1.312.423t.734.609q.25.36.25.86 0 .859-.687 1.374-.672.516-1.75.516-.766 0-1.36-.266-.578-.28-.906-.765-.328-.485-.328-1.047h1.078q.032.547.438.875.406.312 1.078.312.61 0 .984-.25.375-.25.375-.672zm4.844.921q.578 0 1.016-.343.437-.36.484-.891h1.031q-.03.547-.39 1.047-.344.484-.922.781-.563.297-1.219.297-1.297 0-2.062-.86-.75-.874-.75-2.374v-.188q0-.922.328-1.64.343-.72.968-1.11.641-.406 1.516-.406 1.063 0 1.766.64.718.625.765 1.657h-1.03q-.048-.625-.47-1.016-.422-.39-1.03-.39-.83 0-1.282.593-.453.594-.453 1.719v.203q0 1.094.453 1.688.453.593 1.281.593zm3.172-2.468q0-.922.36-1.672.374-.75 1.03-1.14.657-.407 1.485-.407 1.297 0 2.094.89.812.891.812 2.391v.078q0 .922-.36 1.656-.359.735-1.015 1.157-.656.406-1.515.406-1.282 0-2.094-.89-.797-.907-.797-2.391zm1.094.14q0 1.047.484 1.688.5.64 1.313.64.828 0 1.312-.64.484-.656.484-1.828 0-1.032-.5-1.672-.484-.656-1.312-.656-.797 0-1.297.64-.484.625-.484 1.828zm9.265-2.281q-.25-.031-.53-.031-1.08 0-1.454.906v4.5h-1.078v-6.344h1.047l.015.735q.532-.844 1.516-.844.312 0 .484.078zm3.563 5.5q-1.297 0-2.11-.844-.796-.86-.796-2.281v-.188q0-.953.359-1.687.36-.75 1-1.156.656-.422 1.406-.422 1.235 0 1.922.812.688.813.688 2.328v.454h-4.297q.03.937.547 1.515.53.578 1.343.578.563 0 .953-.234.407-.234.72-.625l.655.516q-.796 1.234-2.39 1.234zm-.14-5.688q-.657 0-1.11.485-.438.469-.531 1.328h3.171v-.078q-.046-.828-.453-1.281-.39-.454-1.078-.454zm6.468 2.094q0-1.312.344-2.531.36-1.219 1.062-2.219.703-1 1.469-1.406l.219.719q-.86.656-1.407 2-.546 1.344-.593 3.015l-.016.5q0 2.266.828 3.922.5 1 1.188 1.563l-.22.656q-.78-.422-1.5-1.453-1.374-1.985-1.374-4.766zm5.125-2.11q.719-.874 1.875-.874 2.016 0 2.031 2.265v4.188h-1.094v-4.203q0-.672-.312-1-.297-.328-.953-.328-.531 0-.938.281-.39.281-.61.734v4.516h-1.077v-9h1.078v3.422zm7.094 5.579h-1.078v-6.344h1.078zm-1.172-8.016q0-.265.156-.453.172-.187.484-.187.313 0 .47.187.171.188.171.453 0 .25-.172.438-.156.172-.469.172-.312 0-.484-.172-.156-.188-.156-.438zm2.734 4.797q0-1.484.688-2.36.687-.874 1.812-.874 1.156 0 1.813.812l.047-.703h1v6.188q0 1.234-.735 1.937-.734.719-1.953.719-.687 0-1.344-.297-.656-.297-1-.797l.563-.656q.687.86 1.703.86.781 0 1.219-.454.453-.437.453-1.25v-.547q-.656.766-1.781.766-1.11 0-1.797-.89-.688-.907-.688-2.454zm1.094.125q0 1.063.437 1.688.438.61 1.235.61 1.015 0 1.5-.938v-2.891q-.5-.906-1.5-.906-.781 0-1.235.61-.437.608-.437 1.827zm7.25-2.484q.719-.875 1.875-.875 2.016 0 2.031 2.265v4.188h-1.094v-4.203q0-.672-.312-1-.297-.328-.953-.328-.531 0-.938.281-.39.281-.61.734v4.516h-1.077v-9h1.078zm8.547 5.703q-1.297 0-2.11-.844-.796-.86-.796-2.281v-.188q0-.953.359-1.687.36-.75 1-1.156.656-.422 1.406-.422 1.235 0 1.922.812.688.813.688 2.328v.454h-4.297q.03.937.547 1.515.53.578 1.343.578.563 0 .953-.234.407-.234.72-.625l.655.516q-.796 1.234-2.39 1.234zm-.14-5.688q-.657 0-1.11.485-.438.469-.531 1.328h3.171v-.078q-.046-.828-.453-1.281-.39-.454-1.078-.454zm6.577.188q-.25-.031-.53-.031-1.08 0-1.454.906v4.5h-1.078v-6.344h1.047l.015.735q.532-.844 1.516-.844.312 0 .484.078zm5.11 5.375h-1.078v-6.344h1.078zm-1.172-8.016q0-.265.156-.453.172-.187.484-.187.313 0 .47.187.171.188.171.453 0 .25-.172.438-.156.172-.469.172-.312 0-.484-.172-.156-.188-.156-.438zm6.687 6.328q0-.437-.343-.671-.329-.25-1.157-.422-.812-.172-1.297-.422-.484-.25-.718-.578-.22-.344-.22-.813 0-.781.657-1.312.656-.547 1.688-.547 1.078 0 1.734.562.672.547.672 1.407h-1.078q0-.438-.39-.75-.376-.329-.938-.329-.594 0-.938.266-.328.25-.328.656 0 .391.313.594.312.203 1.125.39.812.173 1.312.423t.734.609q.25.36.25.86 0 .859-.687 1.374-.672.516-1.75.516-.766 0-1.36-.266-.578-.28-.906-.765-.328-.485-.328-1.047h1.078q.032.547.438.875.406.312 1.078.312.61 0 .984-.25.375-.25.375-.672zm10.672-1.406q0 1.453-.672 2.344-.656.875-1.78.875-1.204 0-1.86-.86l-.063.735h-.984v-9h1.078v3.36q.656-.813 1.812-.813 1.157 0 1.813.875.656.86.656 2.39zm-1.078-.125q0-1.11-.437-1.703-.422-.61-1.22-.61-1.077 0-1.546.985v2.75q.5 1 1.547 1 .781 0 1.219-.61.437-.609.437-1.812zm5.344 3.344q-1.297 0-2.11-.844-.796-.86-.796-2.281v-.188q0-.953.359-1.687.36-.75 1-1.156.656-.422 1.406-.422 1.235 0 1.922.812.688.813.688 2.328v.454h-4.297q.03.937.547 1.515.53.578 1.343.578.563 0 .953-.234.407-.234.72-.625l.655.516q-.796 1.234-2.39 1.234zm-.14-5.688q-.657 0-1.11.485-.438.469-.531 1.328h3.171v-.078q-.046-.828-.453-1.281-.39-.454-1.078-.454zm4.984-2.312v1.531h1.171v.844h-1.171v3.922q0 .39.156.578.156.188.531.188.188 0 .516-.063v.875q-.422.125-.828.125-.72 0-1.094-.438-.375-.453-.375-1.265v-3.922h-1.156v-.844h1.156v-1.531zm4 0v1.531h1.171v.844h-1.171v3.922q0 .39.156.578.156.188.531.188.188 0 .516-.063v.875q-.422.125-.828.125-.72 0-1.094-.438-.375-.453-.375-1.265v-3.922h-1.156v-.844h1.156v-1.531zm5.156 8q-1.297 0-2.11-.844-.796-.86-.796-2.281v-.188q0-.953.359-1.687.36-.75 1-1.156.656-.422 1.406-.422 1.235 0 1.922.812.688.813.688 2.328v.454h-4.297q.03.937.547 1.515.53.578 1.343.578.563 0 .953-.234.407-.234.72-.625l.655.516q-.796 1.234-2.39 1.234zm-.14-5.688q-.657 0-1.11.485-.438.469-.531 1.328h3.171v-.078q-.046-.828-.453-1.281-.39-.454-1.078-.454zm6.577.188q-.25-.031-.53-.031-1.08 0-1.454.906v4.5h-1.078v-6.344h1.047l.015.735q.532-.844 1.516-.844.312 0 .484.078zm3.438 1.969q0 1.312-.344 2.515-.344 1.188-1.062 2.203-.704 1.016-1.47 1.438l-.234-.656q.907-.688 1.454-2.14.546-1.47.562-3.235v-.188q0-1.234-.266-2.297-.25-1.062-.718-1.89-.453-.844-1.032-1.313l.235-.656q.765.422 1.469 1.422.703 1 1.046 2.219.36 1.203.36 2.578z" fill="#424242"/><path d="M81.14 99.39h-1.126v-8.531h1.125v8.53zm2.64-6.344l.031.797q.735-.906 1.906-.906 2.016 0 2.032 2.265v4.188h-1.094v-4.203q0-.672-.313-1-.296-.328-.953-.328-.53 0-.937.28-.39.282-.61.735v4.516h-1.078v-6.344zm7.453-1.531v1.531h1.172v.844h-1.172v3.922q0 .39.156.578.157.187.532.187.187 0 .515-.062v.875q-.422.125-.828.125-.719 0-1.094-.438-.375-.453-.375-1.265V93.89h-1.156v-.844h1.156v-1.531zm5.156 8q-1.297 0-2.109-.844-.797-.86-.797-2.281v-.188q0-.953.36-1.687.359-.75 1-1.156.656-.422 1.406-.422 1.234 0 1.922.812.687.813.687 2.328v.453h-4.297q.031.938.547 1.516.531.578 1.344.578.562 0 .953-.234.406-.235.719-.625l.656.515q-.797 1.235-2.39 1.235zm-.14-5.688q-.657 0-1.11.485-.437.468-.53 1.328h3.171v-.078q-.047-.828-.453-1.282-.39-.453-1.078-.453zm3.25 2.344q0-1.484.687-2.36.688-.874 1.813-.874 1.156 0 1.812.812l.047-.703h1v6.188q0 1.234-.734 1.937-.735.719-1.953.719-.688 0-1.344-.297-.656-.297-1-.797l.562-.656q.688.86 1.703.86.782 0 1.22-.454.452-.437.452-1.25v-.547q-.656.766-1.78.766-1.11 0-1.798-.89-.687-.907-.687-2.454zm1.093.125q0 1.063.438 1.688.437.609 1.234.609 1.016 0 1.5-.938v-2.89q-.5-.906-1.5-.906-.78 0-1.234.609-.438.61-.438 1.828zm8.797 3.219q-1.297 0-2.109-.844-.797-.86-.797-2.281v-.188q0-.953.36-1.687.359-.75 1-1.156.656-.422 1.406-.422 1.234 0 1.922.812.687.813.687 2.328v.453h-4.297q.031.938.547 1.516.531.578 1.344.578.562 0 .953-.234.406-.235.719-.625l.656.515q-.797 1.235-2.39 1.235zm-.14-5.688q-.657 0-1.11.485-.437.468-.53 1.328h3.171v-.078q-.047-.828-.453-1.282-.39-.453-1.078-.453zm6.578.188q-.25-.031-.531-.031-1.079 0-1.454.906v4.5h-1.078v-6.344h1.047l.016.734q.531-.843 1.515-.843.313 0 .485.078zm-61 12.765h-2.75v7.61h-1.11v-7.61h-2.75v-.921h6.61zm3 6.016l1.484-4.75h1.156l-2.546 7.328q-.594 1.578-1.875 1.578l-.22-.015-.39-.078v-.875l.281.015q.563 0 .86-.219.312-.218.515-.812l.235-.656-2.266-6.266h1.188zm9.281-1.5q0 1.438-.656 2.328-.656.89-1.797.89-1.156 0-1.813-.734v3.047h-1.078v-8.781h.985l.047.703q.671-.812 1.843-.812 1.141 0 1.797.859.672.86.672 2.39zm-1.078-.125q0-1.078-.469-1.687-.453-.625-1.25-.625-.984 0-1.469.859v3.031q.485.875 1.485.875.781 0 1.234-.61.469-.624.469-1.843zm5.36 3.344q-1.298 0-2.11-.844-.797-.86-.797-2.281v-.188q0-.953.36-1.687.359-.75 1-1.156.656-.422 1.406-.422 1.234 0 1.922.812.687.813.687 2.328v.453h-4.297q.031.938.547 1.516.531.578 1.344.578.562 0 .953-.234.406-.235.719-.625l.656.515q-.797 1.235-2.39 1.235zm-.141-5.688q-.657 0-1.11.485-.437.468-.53 1.328h3.171v-.078q-.047-.828-.453-1.282-.39-.453-1.078-.453zm3.25 2.344q0-1.469.687-2.344.688-.89 1.813-.89 1.11 0 1.765.75v-3.297h1.078v9h-1l-.046-.688q-.657.813-1.813.813-1.094 0-1.797-.906-.687-.907-.687-2.36zm1.078.125q0 1.078.437 1.688.453.609 1.235.609 1.031 0 1.515-.938v-2.906q-.484-.89-1.5-.89-.797 0-1.25.609-.437.61-.437 1.828zm11.062.86h-3.578l-.797 2.234h-1.156l3.25-8.531h.984l3.266 8.53h-1.156l-.813-2.234zm-3.234-.922h2.906l-1.453-3.985zm9.422-2.22q-.25-.03-.531-.03-1.079 0-1.454.906v4.5h-1.078v-6.344h1.047l.016.734q.531-.843 1.515-.843.313 0 .485.078v1zm4 0q-.25-.03-.531-.03-1.079 0-1.454.906v4.5h-1.078v-6.344h1.047l.016.734q.531-.843 1.515-.843.313 0 .485.078v1zm4.844 5.376q-.094-.188-.157-.672-.75.797-1.797.797-.937 0-1.546-.531-.594-.532-.594-1.36 0-.984.75-1.531.75-.547 2.125-.547h1.047v-.5q0-.562-.344-.89-.328-.344-1-.344-.578 0-.969.297-.39.28-.39.703h-1.094q0-.485.328-.922.344-.438.922-.688.578-.265 1.265-.265 1.11 0 1.72.547.624.546.655 1.5v2.921q0 .875.22 1.391v.094zm-1.797-.828q.515 0 .968-.266.454-.266.657-.687v-1.297h-.844q-2 0-2 1.172 0 .5.344.796.343.282.875.282zm6.953-.766l1.484-4.75h1.156l-2.546 7.328q-.594 1.578-1.875 1.578l-.22-.015-.39-.078v-.875l.281.015q.563 0 .86-.219.312-.218.515-.812l.235-.656-2.266-6.266h1.188zm7.625-.094q0-.437-.344-.672-.328-.25-1.156-.421-.813-.172-1.297-.422t-.719-.578q-.219-.344-.219-.813 0-.781.657-1.312.656-.547 1.687-.547 1.078 0 1.735.562.671.547.671 1.406h-1.078q0-.437-.39-.75-.375-.328-.938-.328-.594 0-.937.266-.328.25-.328.656 0 .39.312.594.313.203 1.125.39.813.172 1.313.422t.734.61q.25.36.25.86 0 .859-.688 1.374-.671.516-1.75.516-.765 0-1.359-.266-.578-.281-.906-.765-.328-.485-.328-1.047h1.078q.031.547.437.875.407.312 1.078.312.61 0 .985-.25t.375-.672zM93.64 168.918h-3.594v3.765H88.92v-8.53h5.296v.921h-4.171v2.922h3.593v.922zm3.296 3.765h-1.078v-9h1.078zm1.531-3.234q0-.922.36-1.672.375-.75 1.031-1.14.656-.407 1.484-.407 1.297 0 2.094.89.813.891.813 2.391v.079q0 .921-.36 1.656-.359.734-1.015 1.156-.657.406-1.516.406-1.281 0-2.094-.89-.797-.907-.797-2.39zm1.094.14q0 1.047.485 1.688.5.64 1.312.64.828 0 1.313-.64.484-.656.484-1.828 0-1.031-.5-1.672-.484-.656-1.313-.656-.796 0-1.296.64-.485.625-.485 1.829zm10.11 3.094q-.094-.187-.157-.672-.75.797-1.797.797-.937 0-1.546-.53-.594-.532-.594-1.36 0-.985.75-1.532.75-.546 2.125-.546h1.047v-.5q0-.563-.344-.891-.328-.344-1-.344-.578 0-.969.297-.39.281-.39.703h-1.094q0-.484.328-.922.344-.437.922-.687.578-.266 1.265-.266 1.11 0 1.72.547.624.547.655 1.5v2.922q0 .875.22 1.39v.094zm-1.797-.828q.515 0 .968-.265.454-.266.657-.688v-1.297h-.844q-2 0-2 1.172 0 .5.344.797.343.281.875.281zm6.36-7.047v1.532h1.171v.843h-1.172v3.922q0 .39.156.578.157.188.532.188.187 0 .515-.063v.875q-.422.125-.828.125-.719 0-1.094-.437-.375-.453-.375-1.266v-3.922h-1.156v-.843h1.156v-1.532h1.094zm-59.407 15.266h-2.75v7.61h-1.11v-7.61h-2.75v-.922h6.61zm3 6.016l1.484-4.75h1.156l-2.546 7.328q-.594 1.578-1.875 1.578l-.22-.016-.39-.078v-.875l.281.016q.563 0 .86-.219.312-.219.515-.813l.235-.656-2.266-6.265h1.188zm9.281-1.5q0 1.437-.656 2.328-.656.89-1.797.89-1.156 0-1.813-.734v3.047h-1.078v-8.781h.985l.047.703q.671-.813 1.843-.813 1.141 0 1.797.86.672.859.672 2.39zm-1.078-.125q0-1.079-.469-1.688-.453-.625-1.25-.625-.984 0-1.469.86v3.03q.485.876 1.485.876.781 0 1.234-.61.469-.625.469-1.843zm5.36 3.343q-1.298 0-2.11-.843-.797-.86-.797-2.282v-.187q0-.953.36-1.688.359-.75 1-1.156.656-.422 1.406-.422 1.234 0 1.922.813.687.812.687 2.328v.453h-4.297q.031.937.547 1.516.531.578 1.344.578.562 0 .953-.235.406-.234.719-.625l.656.516q-.797 1.234-2.39 1.234zm-.141-5.687q-.657 0-1.11.484-.437.469-.53 1.328h3.171v-.078q-.047-.828-.453-1.281-.39-.453-1.078-.453zm3.25 2.344q0-1.47.687-2.344.688-.89 1.813-.89 1.11 0 1.765.75v-3.298h1.078v9h-1l-.046-.687q-.657.812-1.813.812-1.094 0-1.797-.906-.687-.906-.687-2.36zm1.078.125q0 1.078.437 1.687.453.61 1.235.61 1.031 0 1.515-.938v-2.906q-.484-.89-1.5-.89-.797 0-1.25.608-.437.61-.437 1.829zm11.062.859h-3.578l-.797 2.234h-1.156l3.25-8.53h.984l3.266 8.53h-1.156zm-3.234-.922h2.906l-1.453-3.984zm9.422-2.219q-.25-.03-.531-.03-1.079 0-1.454.905v4.5h-1.078v-6.343h1.047l.016.734q.531-.844 1.515-.844.313 0 .485.078zm4 0q-.25-.03-.531-.03-1.079 0-1.454.905v4.5h-1.078v-6.343h1.047l.016.734q.531-.844 1.515-.844.313 0 .485.078zm4.844 5.375q-.094-.187-.157-.672-.75.797-1.797.797-.937 0-1.546-.53-.594-.532-.594-1.36 0-.985.75-1.532.75-.546 2.125-.546h1.047v-.5q0-.563-.344-.891-.328-.344-1-.344-.578 0-.969.297-.39.281-.39.703h-1.094q0-.484.328-.922.344-.437.922-.687.578-.266 1.265-.266 1.11 0 1.72.547.624.547.655 1.5v2.922q0 .875.22 1.39v.094zm-1.797-.828q.515 0 .968-.265.454-.266.657-.688v-1.297h-.844q-2 0-2 1.172 0 .5.344.797.343.281.875.281zm6.953-.765l1.484-4.75h1.156l-2.546 7.328q-.594 1.578-1.875 1.578l-.22-.016-.39-.078v-.875l.281.016q.563 0 .86-.219.312-.219.515-.813l.235-.656-2.266-6.265h1.188zm7.625-.094q0-.438-.344-.672-.328-.25-1.156-.422-.813-.172-1.297-.422t-.719-.578q-.219-.344-.219-.812 0-.782.657-1.313.656-.547 1.687-.547 1.078 0 1.735.563.671.547.671 1.406h-1.078q0-.438-.39-.75-.375-.328-.938-.328-.594 0-.937.265-.328.25-.328.657 0 .39.312.593.313.204 1.125.391.813.172 1.313.422t.734.61q.25.359.25.859 0 .86-.688 1.375-.671.515-1.75.515-.765 0-1.359-.265-.578-.282-.906-.766-.328-.484-.328-1.047h1.078q.031.547.437.875.407.313 1.078.313.61 0 .985-.25t.375-.672zM85.92 245.977v-8.531h2.797q1.391 0 2.079.578.703.562.703 1.687 0 .61-.344 1.078-.328.454-.922.704.703.187 1.094.734.406.531.406 1.281 0 1.156-.75 1.813-.734.656-2.094.656h-2.968zm1.126-3.984v3.062h1.859q.797 0 1.25-.406.453-.406.453-1.125 0-1.531-1.687-1.531zm0-.907h1.703q.734 0 1.172-.36.453-.374.453-1.015 0-.703-.407-1.015-.406-.328-1.25-.328h-1.671zm6.89 4.89h-1.078v-6.343h1.078v6.344zm-1.172-8.015q0-.265.157-.453.171-.187.484-.187.312 0 .469.187.172.188.172.453 0 .25-.172.438-.157.172-.469.172-.313 0-.484-.172-.157-.188-.157-.438zm2.735 4.797q0-1.484.687-2.36.688-.874 1.813-.874 1.156 0 1.812.812l.047-.703h1v6.188q0 1.234-.734 1.937-.735.719-1.953.719-.688 0-1.344-.297-.656-.297-1-.797l.562-.656q.688.86 1.703.86.782 0 1.22-.454.452-.437.452-1.25v-.547q-.656.766-1.78.766-1.11 0-1.798-.89-.687-.907-.687-2.454zm1.093.125q0 1.063.438 1.688.437.609 1.234.609 1.016 0 1.5-.938v-2.89q-.5-.906-1.5-.906-.78 0-1.234.609-.438.61-.438 1.828zm7.547 3.094h-1.125v-8.531h1.125v8.53zm2.641-6.344l.031.797q.735-.906 1.906-.906 2.016 0 2.032 2.265v4.188h-1.094v-4.203q0-.672-.313-1-.296-.328-.953-.328-.53 0-.937.28-.39.282-.61.735v4.516h-1.078v-6.344zm7.453-1.531v1.531h1.172v.844h-1.172v3.922q0 .39.156.578.157.187.532.187.187 0 .515-.062v.875q-.422.125-.828.125-.719 0-1.094-.438-.375-.453-.375-1.265v-3.922h-1.156v-.844h1.156v-1.531zm-59.406 15.266h-2.75v7.609h-1.11v-7.61h-2.75v-.921h6.61zm3 6.015l1.484-4.75h1.156l-2.546 7.328q-.594 1.578-1.875 1.578l-.22-.015-.39-.078v-.875l.281.015q.563 0 .86-.219.312-.218.515-.812l.235-.656-2.266-6.266h1.188zm9.281-1.5q0 1.438-.656 2.328-.656.89-1.797.89-1.156 0-1.813-.733v3.046h-1.078v-8.78h.985l.047.702q.671-.812 1.843-.812 1.141 0 1.797.86.672.859.672 2.39v.11zm-1.078-.125q0-1.078-.469-1.687-.453-.625-1.25-.625-.984 0-1.469.859v3.031q.485.875 1.485.875.781 0 1.234-.61.469-.624.469-1.843zm5.36 3.344q-1.298 0-2.11-.844-.797-.86-.797-2.281v-.188q0-.953.36-1.687.359-.75 1-1.156.656-.422 1.406-.422 1.234 0 1.922.812.687.813.687 2.328v.454h-4.297q.031.937.547 1.515.531.578 1.344.578.562 0 .953-.234.406-.234.719-.625l.656.516q-.797 1.234-2.39 1.234zm-.141-5.688q-.657 0-1.11.485-.437.469-.53 1.328h3.171v-.078q-.047-.828-.453-1.281-.39-.454-1.078-.454zm3.25 2.344q0-1.469.687-2.344.688-.89 1.813-.89 1.11 0 1.765.75v-3.297h1.078v9h-1l-.046-.688q-.657.813-1.813.813-1.094 0-1.797-.906-.687-.907-.687-2.36zm1.078.125q0 1.078.437 1.688.453.609 1.235.609 1.031 0 1.515-.938v-2.906q-.484-.89-1.5-.89-.797 0-1.25.609-.437.61-.437 1.828zm11.062.86h-3.578l-.797 2.234h-1.156l3.25-8.531h.984l3.266 8.53h-1.156zm-3.234-.922h2.906l-1.453-3.985zm9.422-2.22q-.25-.03-.531-.03-1.079 0-1.454.906v4.5h-1.078v-6.344h1.047l.016.734q.531-.843 1.515-.843.313 0 .485.078v1zm4 0q-.25-.03-.531-.03-1.079 0-1.454.906v4.5h-1.078v-6.344h1.047l.016.734q.531-.843 1.515-.843.313 0 .485.078v1zm4.844 5.376q-.094-.188-.157-.672-.75.797-1.797.797-.937 0-1.546-.531-.594-.532-.594-1.36 0-.984.75-1.531.75-.547 2.125-.547h1.047v-.5q0-.562-.344-.89-.328-.344-1-.344-.578 0-.969.297-.39.28-.39.703h-1.094q0-.485.328-.922.344-.438.922-.688.578-.265 1.265-.265 1.11 0 1.72.547.624.547.655 1.5v2.921q0 .875.22 1.391v.094zm-1.797-.828q.515 0 .968-.266.454-.265.657-.687v-1.297h-.844q-2 0-2 1.172 0 .5.344.796.343.282.875.282zm6.953-.766l1.484-4.75h1.156l-2.546 7.328q-.594 1.578-1.875 1.578l-.22-.015-.39-.078v-.875l.281.015q.563 0 .86-.219.312-.218.515-.812l.235-.656-2.266-6.266h1.188zm7.625-.094q0-.437-.344-.671-.328-.25-1.156-.422-.813-.172-1.297-.422t-.719-.578q-.219-.344-.219-.813 0-.781.657-1.312.656-.547 1.687-.547 1.078 0 1.735.562.671.547.671 1.406h-1.078q0-.437-.39-.75-.375-.328-.938-.328-.594 0-.937.266-.328.25-.328.656 0 .39.312.594.313.203 1.125.39.813.173 1.313.423t.734.609q.25.36.25.86 0 .859-.688 1.374-.671.516-1.75.516-.765 0-1.359-.266-.578-.281-.906-.765-.328-.485-.328-1.047h1.078q.031.547.437.875.407.312 1.078.312.61 0 .985-.25t.375-.672zm10.047 53.521q0 1.906-.657 2.843-.64.922-2.03.922-1.36 0-2.016-.906-.657-.906-.688-2.719v-1.438q0-1.89.64-2.796.657-.922 2.048-.922 1.375 0 2.03.89.657.875.673 2.72v1.405zm-1.094-1.485q0-1.375-.39-2-.376-.64-1.22-.64-.828 0-1.218.64-.375.625-.375 1.922v1.734q0 1.375.39 2.047.407.656 1.22.656.796 0 1.187-.625.39-.625.406-1.953zm69.443.844l.438-4.25h4.375v1h-3.453l-.266 2.328q.64-.375 1.438-.375 1.156 0 1.843.781.688.766.688 2.078 0 1.313-.719 2.078-.703.766-1.984.766-1.125 0-1.844-.625-.719-.64-.813-1.75h1.016q.11.734.531 1.11.422.374 1.11.374.75 0 1.187-.515.438-.516.438-1.422 0-.86-.47-1.375-.468-.516-1.25-.516-.702 0-1.108.297l-.282.234zm11.86.64q0 1.907-.657 2.844-.64.922-2.03.922-1.36 0-2.016-.906-.657-.906-.688-2.719v-1.438q0-1.89.64-2.796.657-.922 2.048-.922 1.375 0 2.03.89.657.875.673 2.72zm-1.094-1.484q0-1.375-.39-2-.376-.64-1.22-.64-.828 0-1.218.64-.375.625-.375 1.922v1.734q0 1.375.39 2.047.407.656 1.22.656.796 0 1.187-.625.39-.625.406-1.953zm65.506 5.125h-1.078v-7.219l-2.188.797v-.984l3.11-1.172h.156zm8.797-3.64q0 1.906-.657 2.843-.64.922-2.03.922-1.36 0-2.016-.906-.657-.906-.688-2.719v-1.438q0-1.89.64-2.796.657-.922 2.048-.922 1.375 0 2.03.89.657.875.673 2.72v1.405zm-1.094-1.485q0-1.375-.39-2-.376-.64-1.22-.64-.828 0-1.218.64-.375.625-.375 1.922v1.734q0 1.375.39 2.047.407.656 1.22.656.796 0 1.187-.625.39-.625.406-1.953zm8.094 1.484q0 1.907-.657 2.844-.64.922-2.03.922-1.36 0-2.016-.906-.657-.906-.688-2.719v-1.438q0-1.89.64-2.796.657-.922 2.048-.922 1.375 0 2.03.89.657.875.673 2.72zm-1.094-1.484q0-1.375-.39-2-.376-.64-1.22-.64-.828 0-1.218.64-.375.625-.375 1.922v1.734q0 1.375.39 2.047.407.656 1.22.656.796 0 1.187-.625.39-.625.406-1.953zm62.006 5.125h-1.078v-7.219l-2.188.797v-.984l3.11-1.172h.156zm3.937-4.281l.438-4.25h4.375v1h-3.453l-.266 2.328q.64-.375 1.438-.375 1.156 0 1.843.781.688.766.688 2.078 0 1.313-.719 2.078-.703.766-1.984.766-1.125 0-1.844-.625-.719-.64-.813-1.75h1.016q.11.734.531 1.11.422.374 1.11.374.75 0 1.187-.515.438-.516.438-1.422 0-.86-.47-1.375-.468-.516-1.25-.516-.702 0-1.108.297l-.282.234zm11.86.64q0 1.907-.657 2.844-.64.922-2.03.922-1.36 0-2.016-.906-.657-.906-.688-2.719v-1.438q0-1.89.64-2.796.657-.922 2.048-.922 1.375 0 2.03.89.657.875.673 2.72zm-1.094-1.484q0-1.375-.39-2-.376-.64-1.22-.64-.828 0-1.218.64-.375.625-.375 1.922v1.734q0 1.375.39 2.047.407.656 1.22.656.796 0 1.187-.625.39-.625.406-1.953zm64.037 5.125h-5.594v-.781l2.953-3.281q.657-.75.907-1.204.25-.468.25-.968 0-.672-.407-1.094-.39-.438-1.078-.438-.797 0-1.25.47-.453.452-.453 1.28h-1.078q0-1.187.75-1.906.766-.734 2.031-.734 1.203 0 1.89.625.688.625.688 1.672 0 1.25-1.609 3l-2.281 2.468h4.281zm6.766-3.64q0 1.906-.657 2.843-.64.922-2.03.922-1.36 0-2.017-.906-.656-.906-.687-2.719v-1.438q0-1.89.64-2.796.657-.922 2.048-.922 1.375 0 2.03.89.657.875.673 2.72v1.405zm-1.094-1.485q0-1.375-.39-2-.376-.64-1.22-.64-.828 0-1.218.64-.375.625-.375 1.922v1.734q0 1.375.39 2.047.407.656 1.22.656.796 0 1.187-.625.39-.625.406-1.953zm8.094 1.484q0 1.907-.657 2.844-.64.922-2.03.922-1.36 0-2.017-.906-.656-.906-.687-2.719v-1.438q0-1.89.64-2.796.657-.922 2.048-.922 1.375 0 2.03.89.657.875.673 2.72zm-1.094-1.484q0-1.375-.39-2-.376-.64-1.22-.64-.828 0-1.218.64-.375.625-.375 1.922v1.734q0 1.375.39 2.047.407.656 1.22.656.796 0 1.187-.625.39-.625.406-1.953zm64.037 5.125h-5.594v-.781l2.953-3.281q.657-.75.907-1.204.25-.468.25-.968 0-.672-.407-1.094-.39-.438-1.078-.438-.797 0-1.25.47-.453.452-.453 1.28h-1.078q0-1.187.75-1.906.766-.734 2.031-.734 1.203 0 1.89.625.688.625.688 1.672 0 1.25-1.609 3l-2.281 2.468h4.281zm1.906-4.281l.438-4.25h4.375v1h-3.453l-.266 2.328q.64-.375 1.437-.375 1.157 0 1.844.781.688.766.688 2.078 0 1.313-.719 2.078-.703.766-1.984.766-1.125 0-1.844-.625-.719-.64-.813-1.75h1.016q.11.734.531 1.11.422.374 1.11.374.75 0 1.187-.515.438-.516.438-1.422 0-.86-.47-1.375-.468-.516-1.25-.516-.702 0-1.109.297l-.28.234zm11.86.64q0 1.907-.657 2.844-.64.922-2.03.922-1.36 0-2.017-.906-.656-.906-.687-2.719v-1.438q0-1.89.64-2.796.657-.922 2.047-.922 1.375 0 2.032.89.656.875.672 2.72zm-1.094-1.484q0-1.375-.39-2-.376-.64-1.22-.64-.828 0-1.218.64-.375.625-.375 1.922v1.734q0 1.375.39 2.047.407.656 1.22.656.796 0 1.187-.625.39-.625.406-1.953z" fill="#757575"/><path d="M525.45 54.917a1 1 0 0 1 1-1h10a1 1 0 0 1 1 1v10a1 1 0 0 1-1 1h-10a1 1 0 0 1-1-1z" fill="#6d9eeb"/><path d="M548.95 62.542l2.234-6.453h1.125l-2.906 7.828h-.906l-2.89-7.828h1.109zm8.89-4.407q0 .594-.312 1.047-.297.453-.828.719.61.25.969.766.36.5.36 1.14 0 1.016-.688 1.625-.688.594-1.797.594-1.14 0-1.813-.594-.672-.61-.672-1.625 0-.64.344-1.14.344-.516.953-.782-.515-.25-.828-.703-.297-.468-.297-1.047 0-.984.625-1.562.64-.578 1.688-.578 1.031 0 1.656.578.64.578.64 1.562zm-.812 3.657q0-.657-.422-1.063-.406-.422-1.078-.422t-1.078.407q-.406.406-.406 1.078 0 .656.39 1.047.407.375 1.11.375.687 0 1.078-.375.406-.391.406-1.047zm-1.484-4.985q-.594 0-.953.36-.36.359-.36.984 0 .594.36.969.359.36.953.36t.953-.36q.36-.375.36-.969t-.376-.969q-.375-.375-.937-.375zm8.578 5.766l1.437-4.469h1.016l-2.078 5.813h-.766l-2.11-5.813h1.017zm6.875-6.484v.843h-.188q-1.156.016-1.843.688-.688.672-.797 1.875.625-.703 1.687-.703 1.032 0 1.64.718.61.72.61 1.86 0 1.203-.672 1.937-.656.719-1.75.719-1.125 0-1.828-.86-.703-.859-.703-2.218v-.39q0-2.157.922-3.298.922-1.14 2.75-1.171zm-1.297 3.53q-.516 0-.953.313-.422.297-.594.75v.375q0 .969.438 1.563.437.578 1.093.578.672 0 1.047-.484.39-.5.39-1.297 0-.813-.39-1.297-.39-.5-1.031-.5zm3.531 3.782q0-.266.14-.437.157-.172.454-.172.313 0 .469.172.172.171.172.437 0 .234-.172.406-.156.172-.469.172-.297 0-.453-.172-.14-.172-.14-.406zm7.922-6.75l-3.25 7.266h-1.031l3.219-7h-4.235v-.828h5.297z" fill="#666"/><path d="M525.45 78.917a1 1 0 0 1 1-1h10a1 1 0 0 1 1 1v10a1 1 0 0 1-1 1h-10a1 1 0 0 1-1-1z" fill="#1c4587"/><path d="M548.95 86.542l2.234-6.453h1.125l-2.906 7.828h-.906l-2.89-7.828h1.109zm8.89-4.407q0 .594-.312 1.047-.297.453-.828.719.61.25.969.766.36.5.36 1.14 0 1.016-.688 1.625-.688.594-1.797.594-1.14 0-1.813-.594-.672-.61-.672-1.625 0-.64.344-1.14.344-.516.953-.782-.515-.25-.828-.703-.297-.468-.297-1.047 0-.984.625-1.562.64-.578 1.688-.578 1.031 0 1.656.578.64.578.64 1.562zm-.812 3.657q0-.657-.422-1.063-.406-.422-1.078-.422t-1.078.407q-.406.406-.406 1.078 0 .656.39 1.047.407.375 1.11.375.687 0 1.078-.375.406-.391.406-1.047zm-1.484-4.985q-.594 0-.953.36-.36.359-.36.984 0 .594.36.969.359.36.953.36t.953-.36q.36-.375.36-.969t-.376-.969q-.375-.375-.937-.375zm8.578 5.766l1.437-4.469h1.016l-2.078 5.813h-.766l-2.11-5.813h1.017zm6.875-6.484v.843h-.188q-1.156.016-1.843.688-.688.672-.797 1.875.625-.703 1.687-.703 1.032 0 1.64.718.61.72.61 1.86 0 1.203-.672 1.937-.656.719-1.75.719-1.125 0-1.828-.86-.703-.859-.703-2.218v-.39q0-2.157.922-3.298.922-1.14 2.75-1.171zm-1.297 3.53q-.516 0-.953.313-.422.297-.594.75v.375q0 .969.438 1.563.437.578 1.093.578.672 0 1.047-.484.39-.5.39-1.297 0-.813-.39-1.297-.39-.5-1.031-.5zm3.531 3.782q0-.266.14-.437.157-.172.454-.172.313 0 .469.172.172.171.172.437 0 .234-.172.406-.156.172-.469.172-.297 0-.453-.172-.14-.172-.14-.406zm7.61-5.266q0 .594-.313 1.047-.297.453-.828.719.61.25.969.766.36.5.36 1.14 0 1.016-.688 1.625-.688.594-1.797.594-1.14 0-1.813-.594-.672-.61-.672-1.625 0-.64.344-1.14.344-.516.953-.782-.515-.25-.828-.703-.297-.468-.297-1.047 0-.984.625-1.562.64-.578 1.688-.578 1.031 0 1.656.578.64.578.64 1.562zm-.813 3.657q0-.657-.422-1.063-.406-.422-1.078-.422t-1.078.407q-.406.406-.406 1.078 0 .656.39 1.047.407.375 1.11.375.687 0 1.078-.375.406-.391.406-1.047zm-1.484-4.985q-.594 0-.953.36-.36.359-.36.984 0 .594.36.969.359.36.953.36t.953-.36q.36-.375.36-.969t-.376-.969q-.375-.375-.937-.375z" fill="#666"/><path d="M28.878 24.144h-4.11V35.55h-1.687V24.144h-4.093v-1.39h9.89zm5.016 9.031l2.218-7.14h1.735l-3.828 10.984q-.875 2.375-2.813 2.375l-.312-.032-.61-.109v-1.328l.438.047q.828 0 1.281-.344.469-.328.766-1.219l.375-.968-3.406-9.407h1.78zm13.922-2.281q0 2.172-1 3.5-.985 1.328-2.688 1.328-1.734 0-2.719-1.094v4.578h-1.625V26.034h1.485l.078 1.063q.984-1.235 2.765-1.235 1.704 0 2.704 1.297 1 1.282 1 3.594v.14zm-1.625-.172q0-1.61-.688-2.547-.687-.938-1.875-.938-1.484 0-2.219 1.313v4.547q.735 1.297 2.235 1.297 1.172 0 1.86-.922.687-.922.687-2.75zm7.53 5q-1.921 0-3.14-1.266-1.219-1.265-1.219-3.39v-.313q0-1.406.547-2.515.547-1.11 1.516-1.735.969-.64 2.094-.64 1.86 0 2.89 1.218 1.032 1.219 1.032 3.5v.672h-6.454q.047 1.406.829 2.281.78.86 2 .86.859 0 1.453-.344.61-.36 1.047-.938l1 .782q-1.204 1.828-3.594 1.828zm-.202-8.516q-.985 0-1.657.719-.656.703-.812 2h4.766V29.8q-.079-1.234-.672-1.906-.594-.688-1.625-.688zm5.86 3.516q0-2.188 1.03-3.516 1.047-1.343 2.735-1.343 1.672 0 2.64 1.14V22.05h1.625v13.5h-1.5l-.078-1.016q-.969 1.188-2.703 1.188-1.656 0-2.703-1.344-1.047-1.36-1.047-3.547v-.11zm1.64.172q0 1.625.656 2.547.672.906 1.844.906 1.547 0 2.265-1.39V28.58q-.734-1.343-2.234-1.343-1.203 0-1.875.937-.656.922-.656 2.719zm16.078 1.312h-5.36l-1.203 3.344H68.8l4.89-12.797h1.47l4.89 12.797h-1.719zm-4.844-1.39h4.344l-2.172-5.985zm14.125-3.313q-.375-.062-.797-.062-1.61 0-2.172 1.359v6.75h-1.625v-9.516h1.578l.032 1.11q.797-1.281 2.265-1.281.47 0 .72.125v1.515zm6 0q-.375-.062-.797-.062-1.61 0-2.172 1.359v6.75h-1.625v-9.516h1.578l.032 1.11q.797-1.281 2.265-1.281.47 0 .72.125v1.515zm7.281 8.047q-.14-.281-.234-1-1.14 1.172-2.703 1.172-1.406 0-2.313-.797-.906-.797-.906-2.016 0-1.484 1.125-2.296 1.14-.829 3.188-.829h1.578v-.75q0-.843-.516-1.343-.5-.516-1.5-.516-.86 0-1.453.438-.594.437-.594 1.062h-1.625q0-.703.5-1.36.5-.671 1.36-1.062.875-.39 1.921-.39 1.641 0 2.563.828.938.812.969 2.265v4.375q0 1.297.343 2.078v.141H99.66zm-2.703-1.234q.766 0 1.453-.391.688-.406.985-1.031V30.94h-1.266q-3 0-3 1.75 0 .765.516 1.203.515.422 1.312.422zm9.938-1.141l2.218-7.14h1.735l-3.828 10.984q-.875 2.375-2.813 2.375l-.312-.032-.61-.109v-1.328l.438.047q.828 0 1.281-.344.469-.328.766-1.219l.375-.968-3.407-9.407h1.782zm5.922 1.516q0-.422.25-.704.25-.28.75-.28t.75.28q.265.282.265.704 0 .406-.265.687-.25.266-.75.266t-.75-.266q-.25-.281-.25-.687zm13-3.797q0 2.172-1 3.5-.985 1.328-2.688 1.328-1.734 0-2.719-1.094v4.578h-1.625V26.034h1.485l.078 1.063q.984-1.235 2.766-1.235 1.703 0 2.703 1.297 1 1.282 1 3.594v.14zm-1.625-.172q0-1.61-.688-2.547-.687-.938-1.875-.938-1.484 0-2.219 1.313v4.547q.735 1.297 2.235 1.297 1.172 0 1.86-.922.687-.922.687-2.75zm8.187-3.219q-.375-.062-.797-.062-1.61 0-2.172 1.359v6.75h-1.625v-9.516h1.579l.03 1.11q.798-1.281 2.266-1.281.47 0 .72.125v1.515zm.969 3.203q0-1.39.547-2.5.562-1.125 1.531-1.734.984-.61 2.234-.61 1.954 0 3.141 1.344 1.203 1.344 1.203 3.578v.11q0 1.39-.531 2.5-.531 1.093-1.516 1.718-.984.61-2.265.61-1.938 0-3.141-1.344t-1.203-3.562zm1.64.188q0 1.593.735 2.547.734.953 1.969.953 1.234 0 1.953-.969.734-.969.734-2.719 0-1.562-.75-2.531-.734-.969-1.969-.969-1.203 0-1.937.953-.734.954-.734 2.735zm11-7.156v2.296h1.782V27.3h-1.781v5.89q0 .579.234.86t.812.281q.282 0 .766-.094v1.313q-.64.172-1.234.172-1.094 0-1.657-.656-.546-.657-.546-1.875V27.3h-1.735v-1.266h1.735v-2.296h1.625zm3.36 6.968q0-1.39.547-2.5.562-1.125 1.531-1.734.984-.61 2.234-.61 1.954 0 3.141 1.344 1.203 1.344 1.203 3.578v.11q0 1.39-.531 2.5-.531 1.093-1.516 1.718-.984.61-2.265.61-1.938 0-3.141-1.344t-1.203-3.562zm1.64.188q0 1.593.735 2.547.734.953 1.969.953 1.234 0 1.953-.969.734-.969.734-2.719 0-1.562-.75-2.531-.734-.969-1.969-.969-1.203 0-1.937.953-.734.954-.734 2.735zm11-7.156v2.296h1.782V27.3h-1.781v5.89q0 .579.234.86t.812.281q.282 0 .766-.094v1.313q-.64.172-1.234.172-1.094 0-1.657-.656-.546-.657-.546-1.875V27.3h-1.735v-1.266h1.735v-2.296h1.625zm6.907 9.437l2.219-7.14h1.734l-3.828 10.984q-.875 2.375-2.813 2.375l-.312-.032-.61-.109v-1.328l.438.047q.828 0 1.281-.344.469-.328.766-1.219l.375-.968-3.406-9.407h1.78zm13.922-2.281q0 2.172-1 3.5-.985 1.328-2.688 1.328-1.734 0-2.719-1.094v4.578h-1.625V26.034h1.485l.078 1.063q.984-1.235 2.766-1.235 1.703 0 2.703 1.297 1 1.282 1 3.594v.14zm-1.625-.172q0-1.61-.688-2.547-.687-.938-1.875-.938-1.484 0-2.219 1.313v4.547q.735 1.297 2.235 1.297 1.172 0 1.86-.922.687-.922.687-2.75zm7.53 5q-1.921 0-3.14-1.266-1.218-1.265-1.218-3.39v-.313q0-1.406.546-2.515.547-1.11 1.516-1.735.969-.64 2.094-.64 1.86 0 2.89 1.218 1.032 1.219 1.032 3.5v.672h-6.453q.046 1.406.828 2.281.78.86 2 .86.859 0 1.453-.344.61-.36 1.047-.938l1 .782q-1.203 1.828-3.594 1.828zm-.202-8.516q-.985 0-1.656.719-.657.703-.813 2h4.766V29.8q-.078-1.234-.672-1.906-.594-.688-1.625-.688zm6.297 7.485q0-.422.25-.704.25-.28.75-.28t.75.28q.265.282.265.704 0 .406-.265.687-.25.266-.75.266t-.75-.266q-.25-.281-.25-.687zm10.5-1.657q0-.672-.5-1.03-.485-.36-1.72-.626-1.233-.265-1.968-.625-.719-.375-1.078-.89-.344-.516-.344-1.22 0-1.155.985-1.968 1-.813 2.53-.813 1.626 0 2.626.844 1.016.828 1.016 2.125h-1.641q0-.672-.578-1.14-.563-.485-1.422-.485-.89 0-1.39.39-.5.376-.5 1 0 .595.468.892.469.296 1.688.578 1.218.265 1.968.64.766.375 1.125.907.36.53.36 1.296 0 1.282-1.016 2.047-1.016.766-2.64.766-1.141 0-2.032-.406-.875-.407-1.375-1.125-.5-.72-.5-1.563h1.64q.032.813.641 1.297.625.469 1.625.469.922 0 1.47-.375.562-.375.562-.985zm3.03-2.328q0-1.39.548-2.5.562-1.125 1.531-1.734.984-.61 2.234-.61 1.954 0 3.141 1.344 1.203 1.344 1.203 3.578v.11q0 1.39-.531 2.5-.531 1.093-1.516 1.718-.984.61-2.265.61-1.938 0-3.141-1.344t-1.203-3.562v-.11zm1.642.188q0 1.593.734 2.547.734.953 1.969.953 1.234 0 1.953-.969.734-.969.734-2.719 0-1.562-.75-2.531-.734-.969-1.969-.969-1.203 0-1.937.953-.734.954-.734 2.735zm13.39-3.39q-.375-.063-.797-.063-1.61 0-2.172 1.359v6.75h-1.625v-9.516h1.579l.03 1.11q.798-1.281 2.266-1.281.47 0 .72.125v1.515zm3.61-3.767v2.297h1.78V27.3h-1.78v5.89q0 .579.234.86t.812.281q.282 0 .766-.094v1.313q-.64.172-1.234.172-1.094 0-1.657-.656-.546-.657-.546-1.875V27.3h-1.735v-1.266h1.735v-2.296h1.625zm15.828 7.157q0 2.172-1 3.5-.985 1.328-2.688 1.328-1.734 0-2.719-1.094v4.578h-1.625V26.034h1.485l.078 1.063q.984-1.235 2.766-1.235 1.703 0 2.703 1.297 1 1.282 1 3.594v.14zm-1.625-.172q0-1.61-.688-2.547-.687-.938-1.875-.938-1.484 0-2.219 1.313v4.547q.735 1.297 2.235 1.297 1.172 0 1.86-.922.687-.922.687-2.75zm7.53 5q-1.921 0-3.14-1.266-1.218-1.265-1.218-3.39v-.313q0-1.406.546-2.515.547-1.11 1.516-1.735.969-.64 2.094-.64 1.86 0 2.89 1.218 1.032 1.219 1.032 3.5v.672h-6.453q.046 1.406.828 2.281.78.86 2 .86.859 0 1.453-.344.61-.36 1.047-.938l1 .782q-1.203 1.828-3.594 1.828zm-.202-8.516q-.985 0-1.656.719-.657.703-.813 2h4.766V29.8q-.078-1.234-.672-1.906-.594-.688-1.625-.688zm10.86.297q-.376-.062-.798-.062-1.61 0-2.172 1.359v6.75h-1.625v-9.516h1.579l.03 1.11q.798-1.281 2.266-1.281.47 0 .72.125zm2.202 8.047V27.3h-1.5v-1.266h1.5v-.968q0-1.532.813-2.36.828-.843 2.312-.843.563 0 1.125.156l-.094 1.312q-.406-.078-.875-.078-.796 0-1.234.469-.422.453-.422 1.312v1h2.031V27.3h-2.03v8.25zm4.766-4.844q0-1.39.547-2.5.562-1.125 1.531-1.734.984-.61 2.234-.61 1.954 0 3.141 1.344 1.203 1.344 1.203 3.578v.11q0 1.39-.531 2.5-.531 1.093-1.516 1.718-.984.61-2.265.61-1.938 0-3.141-1.344t-1.203-3.562zm1.64.188q0 1.593.735 2.547.734.953 1.969.953 1.234 0 1.953-.969.734-.969.734-2.719 0-1.562-.75-2.531-.734-.969-1.969-.969-1.203 0-1.937.953-.734.954-.734 2.735zm13.391-3.39q-.375-.063-.797-.063-1.61 0-2.172 1.359v6.75h-1.625v-9.516h1.579l.03 1.11q.798-1.281 2.266-1.281.47 0 .72.125v1.515zm2.938-1.47l.03 1.063q1.048-1.235 2.829-1.235 2 0 2.719 1.532.469-.688 1.234-1.11.766-.421 1.797-.421 3.125 0 3.188 3.312v6.375h-1.641v-6.281q0-1.016-.469-1.516-.453-.515-1.547-.515-.906 0-1.515.546-.594.547-.688 1.454v6.312h-1.64v-6.234q0-2.078-2.032-2.078-1.594 0-2.187 1.375v6.937h-1.625v-9.516zm20.343 9.516q-.14-.281-.234-1-1.14 1.172-2.703 1.172-1.406 0-2.313-.797-.906-.797-.906-2.016 0-1.484 1.125-2.296 1.14-.829 3.188-.829h1.578v-.75q0-.843-.516-1.343-.5-.516-1.5-.516-.86 0-1.453.438-.594.437-.594 1.062h-1.625q0-.703.5-1.36.5-.671 1.36-1.062.875-.39 1.922-.39 1.64 0 2.562.828.938.812.969 2.265v4.375q0 1.297.344 2.078v.141zm-2.703-1.234q.766 0 1.453-.391.688-.406.985-1.031V30.94h-1.266q-3 0-3 1.75 0 .765.516 1.203.515.422 1.312.422zm8.36-8.282l.062 1.204q1.078-1.375 2.844-1.375 3.016 0 3.031 3.406v6.281h-1.625v-6.297q0-1.031-.469-1.515-.453-.5-1.437-.5-.781 0-1.39.421-.594.422-.923 1.11v6.781h-1.625v-9.516zm12.28 8.36q.876 0 1.517-.516.656-.531.718-1.328h1.547q-.047.813-.562 1.563-.516.734-1.391 1.171-.86.438-1.828.438-1.938 0-3.094-1.297-1.14-1.297-1.14-3.547v-.265q0-1.391.5-2.47.515-1.077 1.468-1.671.953-.61 2.25-.61 1.61 0 2.656.97 1.063.952 1.141 2.484h-1.547q-.062-.922-.703-1.516-.625-.594-1.547-.594-1.234 0-1.922.89-.671.892-.671 2.579v.297q0 1.656.671 2.547.672.875 1.938.875zm9.126 1.328q-1.922 0-3.14-1.266-1.22-1.265-1.22-3.39v-.313q0-1.406.547-2.515.547-1.11 1.516-1.735.969-.64 2.094-.64 1.86 0 2.89 1.218 1.032 1.219 1.032 3.5v.672h-6.453q.046 1.406.828 2.281.78.86 2 .86.859 0 1.453-.344.61-.36 1.047-.938l1 .782q-1.203 1.828-3.594 1.828zm-.203-8.516q-.985 0-1.656.719-.657.703-.813 2h4.766V29.8q-.078-1.234-.672-1.906-.594-.688-1.625-.688zm12.031 8.344h-1.625v-9.516h1.625zm-1.766-12.031q0-.39.235-.656.25-.282.719-.282.484 0 .734.282.25.265.25.656 0 .39-.25.656t-.734.266q-.47 0-.72-.266-.234-.266-.234-.656zm5.532 2.515l.03 1.063q1.048-1.235 2.829-1.235 2 0 2.719 1.532.469-.688 1.234-1.11.766-.421 1.797-.421 3.125 0 3.188 3.312v6.375h-1.641v-6.281q0-1.016-.469-1.516-.453-.515-1.547-.515-.906 0-1.515.546-.594.547-.688 1.454v6.312h-1.64v-6.234q0-2.078-2.032-2.078-1.594 0-2.187 1.375v6.937h-1.625v-9.516zm22.5 4.86q0 2.172-1 3.5-.985 1.328-2.688 1.328-1.734 0-2.719-1.094v4.578h-1.625V26.034h1.485l.078 1.063q.984-1.235 2.766-1.235 1.703 0 2.703 1.297 1 1.282 1 3.594v.14zm-1.625-.172q0-1.61-.688-2.547-.687-.938-1.875-.938-1.484 0-2.219 1.313v4.547q.735 1.297 2.235 1.297 1.172 0 1.86-.922.687-.922.687-2.75zm8.187-3.219q-.375-.062-.797-.062-1.61 0-2.172 1.359v6.75h-1.625v-9.516h1.579l.03 1.11q.798-1.281 2.266-1.281.47 0 .72.125v1.515zm.969 3.203q0-1.39.547-2.5.562-1.125 1.531-1.734.984-.61 2.234-.61 1.954 0 3.141 1.344 1.203 1.344 1.203 3.578v.11q0 1.39-.531 2.5-.531 1.093-1.516 1.718-.984.61-2.265.61-1.938 0-3.141-1.344t-1.203-3.562zm1.64.188q0 1.593.735 2.547.734.953 1.969.953 1.234 0 1.953-.969.734-.969.734-2.719 0-1.562-.75-2.531-.734-.969-1.969-.969-1.203 0-1.937.953-.734.954-.734 2.735zm11.938 2.453l2.344-7.313h1.672l-3.422 9.516h-1.235l-3.437-9.516h1.656zm9.797 2.375q-1.922 0-3.14-1.266-1.22-1.265-1.22-3.39v-.313q0-1.406.547-2.515.547-1.11 1.516-1.735.969-.64 2.094-.64 1.86 0 2.89 1.218 1.032 1.219 1.032 3.5v.672h-6.453q.046 1.406.828 2.281.78.86 2 .86.859 0 1.453-.344.61-.36 1.047-.938l1 .782q-1.203 1.828-3.594 1.828zm-.203-8.516q-.985 0-1.656.719-.657.703-.813 2h4.766V29.8q-.078-1.234-.672-1.906-.594-.688-1.625-.688zm7.797-1.172l.03 1.063q1.048-1.235 2.829-1.235 2 0 2.719 1.532.469-.688 1.234-1.11.766-.421 1.797-.421 3.125 0 3.188 3.312v6.375h-1.641v-6.281q0-1.016-.469-1.516-.453-.515-1.547-.515-.906 0-1.515.546-.594.547-.688 1.454v6.312h-1.64v-6.234q0-2.078-2.032-2.078-1.594 0-2.187 1.375v6.937h-1.625v-9.516zm18.406 9.688q-1.922 0-3.14-1.266-1.22-1.265-1.22-3.39v-.313q0-1.406.547-2.515.547-1.11 1.516-1.735.969-.64 2.094-.64 1.86 0 2.89 1.218 1.032 1.219 1.032 3.5v.672h-6.453q.046 1.406.828 2.281.78.86 2 .86.859 0 1.453-.344.61-.36 1.047-.938l1 .782q-1.203 1.828-3.594 1.828zm-.203-8.516q-.985 0-1.656.719-.657.703-.813 2h4.766V29.8q-.078-1.234-.672-1.906-.594-.688-1.625-.688zm7.797-1.172l.062 1.204q1.078-1.375 2.844-1.375 3.016 0 3.031 3.406v6.281h-1.625v-6.297q0-1.031-.469-1.515-.453-.5-1.437-.5-.781 0-1.39.421-.594.422-.923 1.11v6.781h-1.625v-9.516zm10.672-2.296v2.296h1.78V27.3h-1.78v5.89q0 .579.234.86t.812.281q.282 0 .766-.094v1.313q-.64.172-1.234.172-1.094 0-1.657-.656-.546-.657-.546-1.875V27.3h-1.735v-1.266h1.735v-2.296zm9.328 9.296q0-.672-.5-1.03-.485-.36-1.72-.626-1.233-.265-1.968-.625-.719-.375-1.078-.89-.344-.516-.344-1.22 0-1.155.985-1.968 1-.813 2.53-.813 1.626 0 2.626.844 1.016.828 1.016 2.125h-1.641q0-.672-.578-1.14-.563-.485-1.422-.485-.89 0-1.39.39-.5.376-.5 1 0 .595.468.892.469.296 1.688.578 1.218.265 1.968.64.766.375 1.125.907.36.53.36 1.296 0 1.282-1.016 2.047-1.016.766-2.64.766-1.141 0-2.032-.406-.875-.407-1.375-1.125-.5-.72-.5-1.563h1.64q.032.813.641 1.297.625.469 1.625.469.922 0 1.47-.375.562-.375.562-.985z" fill="#000"/></svg>