<svg fill="none" stroke-linecap="square" stroke-miterlimit="10" viewBox="0 0 451.168 214.598" xmlns="http://www.w3.org/2000/svg"><clipPath id="a"><path d="M0 0h451.168v214.598H0z"/></clipPath><g clip-path="url(#a)"><path d="M0 0h451.168v214.598H0z"/><path d="M20.291 16.433H489.3V220.56H20.291z"/><path d="M38.791 38.478q-.109.906-.437 1.828-.313.906-.875 1.64-.547.72-1.344 1.173-.781.437-1.828.422-.75-.016-1.422-.282-.656-.265-1.14-.86l-.891 4.75h-1.64l2.359-13.655h1.5l-.172 1.078q.578-.625 1.281-.953.719-.328 1.594-.297.672.015 1.172.234.5.219.859.594.36.36.578.844.219.484.328 1.03.125.548.14 1.126.016.578-.046 1.125zm-1.625-.203q.063-.547.032-1.156-.032-.625-.25-1.14-.204-.517-.625-.86-.422-.36-1.125-.375-.782-.016-1.375.36-.594.374-1.047.983l-.828 4.766q.546 1.266 1.937 1.313.766.015 1.328-.313.578-.328.969-.86.406-.53.64-1.202.235-.672.329-1.313zm11.56-4.984q.437.015.874.062.438.047.86.203l-.422 1.64q-.438-.093-.875-.155-.438-.063-.89-.079-1.141-.015-1.97.532-.812.53-1.359 1.53l-1.094 6.33h-1.656l1.703-9.86h1.578l-.28 1.562q.343-.39.733-.719.391-.328.829-.562.437-.234.921-.36.5-.124 1.047-.124zM52.19 38.4q.078-.672.28-1.313.22-.64.532-1.203.313-.578.75-1.047.438-.484.969-.828.531-.343 1.156-.53.64-.188 1.375-.157 1.031.015 1.766.453.734.437 1.172 1.14.453.688.625 1.579.171.89.062 1.812l-.016.203q-.125 1-.53 1.922-.407.922-1.063 1.625-.64.688-1.516 1.094-.875.406-1.953.39-1.031-.03-1.766-.453-.734-.421-1.187-1.109-.438-.703-.61-1.578-.171-.875-.078-1.797zm1.625.203q-.047.375-.047.797.015.406.078.797.062.39.203.75.156.344.39.625.25.265.594.437.36.157.844.172.75.031 1.328-.297.594-.328 1-.86.422-.53.656-1.187.25-.671.36-1.328l.015-.187q.063-.578.016-1.203-.031-.64-.266-1.172-.234-.531-.671-.875-.422-.36-1.141-.375-.766-.031-1.36.297-.578.328-.984.875-.406.53-.656 1.203-.25.672-.328 1.328zm11.371-5.11l-.187.938q.39-.531.875-.828.5-.297 1.14-.281.297 0 .547.062.25.047.469.172.219.125.375.328t.234.485q.39-.485.875-.766t1.11-.281q.578 0 .953.234.39.219.593.61.22.375.282.859.078.469.03.969l-1.218 7.36h-1.578l1.25-7.392q.016-.25-.016-.468-.015-.235-.109-.39-.094-.173-.281-.267-.188-.109-.469-.109-.5 0-.86.281-.359.266-.5.75l-1.28 7.594h-1.579l1.25-7.39q.032-.25 0-.47-.015-.218-.11-.374-.093-.172-.265-.266-.172-.094-.453-.11-.453-.015-.781.188-.313.203-.547.563l-1.36 7.86h-1.562l1.703-9.86zm10.45 0h4.906L79.09 41.9h3.125l-.266 1.453h-8.015l.265-1.453h3.235l1.203-6.938h-3.25zm3.5-2.562q0-.437.265-.719.282-.28.719-.312.219 0 .39.078.188.063.313.203.14.125.203.313.063.172.063.39 0 .438-.281.703-.266.266-.704.282-.421.03-.703-.235-.265-.265-.265-.703zm12.356 9.75q.046-.422-.141-.687-.188-.282-.5-.453-.313-.172-.688-.282-.375-.11-.671-.172-.547-.14-1.141-.343t-1.094-.516q-.484-.328-.797-.797-.297-.484-.265-1.172.015-.5.203-.906.187-.422.484-.75t.688-.578q.406-.25.843-.406.438-.157.891-.235.469-.078.922-.062.687.015 1.328.219.64.187 1.125.578.484.39.766.968.28.563.28 1.313h-1.64q0-.422-.156-.719-.14-.312-.422-.531-.265-.219-.625-.328-.344-.11-.719-.11-.375-.015-.765.079-.375.078-.719.25-.328.171-.578.468-.234.282-.281.688-.063.422.125.687.187.25.484.407.313.156.672.25.36.078.656.14.375.094.766.219.406.11.781.281.39.156.734.375t.594.5q.25.281.375.656.14.375.125.844-.031.797-.437 1.375-.407.563-1.016.922-.594.36-1.328.531-.719.172-1.406.157-.735-.016-1.422-.22-.672-.218-1.203-.624-.516-.406-.844-1-.313-.594-.297-1.39l1.64.015q.016.469.188.812.172.344.453.578.297.22.688.344.406.11.844.11.359 0 .765-.063.422-.078.781-.25.375-.172.625-.453.266-.297.329-.719zm8.418 2.86q-1-.032-1.766-.422-.765-.39-1.265-1.032-.485-.64-.703-1.484-.204-.86-.125-1.812l.046-.391q.079-.64.282-1.266.218-.64.547-1.203.328-.578.765-1.062.453-.485.985-.828.546-.36 1.171-.547.641-.203 1.344-.172 1.016.015 1.719.437.703.407 1.11 1.094.421.672.546 1.531.14.86.016 1.766l-.11.75h-6.78q-.079.61.03 1.187.11.563.407 1.032.297.453.78.734.485.281 1.142.297.859.031 1.578-.328.734-.375 1.312-.969l.953.797q-.343.469-.797.828-.453.36-.968.61-.516.234-1.078.343-.563.11-1.141.11zm1.203-8.844q-.64-.031-1.156.219-.5.234-.906.64-.391.406-.688.922-.281.516-.484 1.047l5.14.016.047-.157q.078-.515-.015-.984-.094-.469-.36-.844-.25-.375-.656-.61-.39-.234-.922-.25z" fill="#595959"/><path d="M126.837 36.244h-8.125v-1.47h8.125zm0 3.78h-8.125v-1.452h8.125z" fill="#e67c73"/><path d="M145.307 42.166q.453 0 .89-.141.438-.14.766-.406.344-.266.547-.61.203-.36.218-.765h1.594q-.015.656-.344 1.265-.328.594-.89 1.047-.563.438-1.281.719-.72.266-1.5.266-1.11 0-1.954-.407-.843-.406-1.406-1.078-.547-.687-.844-1.562-.28-.89-.28-1.875v-.39q0-.97.28-1.86.297-.89.844-1.563.563-.687 1.406-1.078.844-.406 1.954-.406.875 0 1.609.281.734.266 1.266.75.53.469.828 1.125.312.656.312 1.406h-1.594q-.015-.453-.203-.843-.187-.391-.515-.688-.313-.312-.75-.484-.438-.172-.953-.172-.782 0-1.313.312-.531.313-.86.828-.327.5-.468 1.141-.14.625-.14 1.25v.39q0 .641.14 1.282.14.625.453 1.14.328.5.86.813.53.313 1.328.313zm13.46-8.844q.235 0 .485.015.266 0 .485.032.234.03.421.078.204.047.344.11l-.234 1.64q-.485-.11-.938-.156-.437-.047-.922-.047-1.187 0-1.921.547-.735.53-1.079 1.484v6.328h-1.687v-9.86h1.594l.093 1.563q.594-.797 1.438-1.265.844-.47 1.922-.47zm9.087 10.219q-1.031 0-1.906-.36t-1.5-.984q-.61-.64-.953-1.516-.344-.875-.344-1.906v-.39q0-1.188.375-2.126.39-.953 1.016-1.593.64-.657 1.437-1 .813-.344 1.656-.344 1.063 0 1.86.375.797.36 1.328 1.015.531.641.781 1.532.266.875.266 1.906v.75h-7.032q.016.687.25 1.281.235.578.641 1.031.406.438.969.704.562.25 1.25.25.906 0 1.594-.36.703-.375 1.171-.969l1.032.797q-.25.375-.625.72-.36.327-.844.593-.484.265-1.094.422-.61.172-1.328.172zm-.219-8.844q-.515 0-.968.187-.454.188-.813.547-.36.36-.625.89-.25.516-.344 1.204h5.297V37.4q-.015-.5-.187-.984-.157-.485-.47-.86-.296-.39-.765-.625-.468-.234-1.125-.234zm13.54 8.656q-.094-.187-.157-.469-.062-.297-.093-.61-.25.267-.563.5-.312.22-.703.392-.375.171-.813.265-.421.11-.89.11-.797 0-1.438-.22-.625-.234-1.062-.624-.438-.39-.688-.922-.234-.531-.234-1.156 0-.813.312-1.422.329-.61.922-1.016.594-.406 1.422-.594.844-.203 1.875-.203h1.828v-.78q0-.454-.172-.798-.156-.36-.453-.61-.297-.25-.734-.39-.422-.14-.969-.14-.5 0-.906.14-.39.125-.672.344-.266.203-.422.484-.14.282-.14.594h-1.688q0-.531.266-1.047.281-.531.781-.937.5-.422 1.219-.672.734-.25 1.656-.25.844 0 1.562.203.72.203 1.235.625.531.406.828 1.031.297.61.297 1.438v4.578q0 .5.094 1.047.093.547.25.968v.141zm-2.985-1.281q.5 0 .922-.125.438-.14.781-.344.344-.203.594-.469.266-.28.406-.562v-2h-1.562q-1.469 0-2.297.437-.813.438-.813 1.375 0 .36.125.672.125.313.36.531.25.22.625.36.375.125.86.125zm11.696-10.969v2.39h3.75v1.313h-3.75v5.344q0 .578.14.953.141.375.391.594.266.219.594.312.344.094.719.094.265 0 .546-.031.297-.031.579-.078.28-.047.515-.094.25-.047.406-.094l.235 1.203q-.219.125-.516.22-.297.093-.656.155-.344.078-.75.11-.39.047-.781.047-.657 0-1.235-.188-.562-.187-.984-.594-.422-.406-.672-1.047-.234-.64-.234-1.562v-5.344h-2.578v-1.312h2.578v-2.39zm11.555 12.438q-1.032 0-1.907-.36t-1.5-.984q-.609-.64-.953-1.516-.343-.875-.343-1.906v-.39q0-1.188.375-2.126.39-.953 1.015-1.593.64-.657 1.438-1 .812-.344 1.656-.344 1.062 0 1.86.375.796.36 1.327 1.015.532.641.782 1.532.265.875.265 1.906v.75h-7.03q.015.687.25 1.281.233.578.64 1.031.406.438.968.704.563.25 1.25.25.907 0 1.594-.36.703-.375 1.172-.969l1.031.797q-.25.375-.625.72-.359.327-.843.593-.485.265-1.094.422-.61.172-1.328.172zm-.219-8.844q-.516 0-.969.187-.453.188-.812.547-.36.36-.625.89-.25.516-.344 1.204h5.297V37.4q-.016-.5-.188-.984-.156-.485-.468-.86-.297-.39-.766-.625-.469-.234-1.125-.234zm8.899 3.344v5.312h-1.688V30.087h4.313q.89.016 1.687.282.797.265 1.39.765.61.5.954 1.25.36.735.36 1.688t-.36 1.687q-.344.735-.953 1.235-.594.5-1.39.765-.798.266-1.688.282zm0-1.391h2.625q.578-.016 1.062-.188.5-.171.86-.5.359-.328.562-.796.219-.47.219-1.079 0-.593-.219-1.078-.203-.484-.562-.812-.36-.344-.86-.531-.484-.188-1.062-.188h-2.625zm15.82-3.328q.235 0 .485.015.265 0 .484.032.234.03.422.078.203.047.344.11l-.235 1.64q-.484-.11-.937-.156-.438-.047-.922-.047-1.188 0-1.922.547-.734.53-1.078 1.484v6.328h-1.688v-9.86h1.594l.094 1.563q.594-.797 1.437-1.265.844-.47 1.922-.47zm4.258 5.015q0-1.062.313-1.984.312-.922.89-1.594.579-.672 1.407-1.047.828-.39 1.86-.39 1.046 0 1.874.39.844.375 1.422 1.047.578.672.89 1.594.313.922.313 1.984v.204q0 1.062-.312 1.968-.313.907-.891 1.594-.578.672-1.406 1.063-.828.375-1.86.375-1.047 0-1.89-.375-.828-.391-1.407-1.063-.578-.687-.89-1.594-.313-.906-.313-1.968zm1.688.204q0 .718.172 1.39.172.656.515 1.156.36.5.89.797.532.282 1.235.282.688 0 1.203-.282.532-.297.875-.797.36-.5.532-1.156.172-.672.172-1.39v-.204q0-.718-.188-1.375-.172-.671-.531-1.171-.344-.5-.875-.797-.516-.297-1.219-.297-.703 0-1.219.297-.515.297-.875.797-.343.5-.515 1.171-.172.657-.172 1.375zm10.758-5.047l.047.937q.297-.531.781-.812.5-.297 1.188-.297 1.359 0 1.812 1.047.297-.47.766-.75.484-.297 1.156-.297 1.094 0 1.672.672.578.656.578 2v7.36h-1.594v-7.376q0-1.25-1.14-1.234-.297 0-.516.093-.219.079-.375.22-.14.14-.219.327-.078.188-.11.375v7.594h-1.609v-7.39q0-.594-.265-.907-.266-.328-.828-.312-.532 0-.828.218-.282.204-.422.547v7.844h-1.61v-9.86zm10.68 0h5.047V41.9h3.218v1.453h-8.265V41.9h3.36v-6.938h-3.36zm3.14-2.578q0-.422.25-.704.25-.296.766-.296.5 0 .75.296.25.282.25.704 0 .406-.25.687-.25.266-.75.266-.516 0-.766-.266-.25-.281-.25-.687zm14.352 9.828q0-.313-.125-.547-.125-.235-.406-.438t-.75-.375q-.453-.172-1.14-.297-.86-.187-1.563-.421-.688-.25-1.188-.594-.484-.344-.765-.797-.266-.469-.266-1.078 0-.594.281-1.11.282-.53.782-.921.515-.391 1.218-.61.704-.234 1.563-.234.906 0 1.625.234.734.235 1.25.656.516.407.781.97.281.562.281 1.218h-1.687q0-.328-.172-.625-.156-.313-.453-.547-.281-.234-.703-.375-.406-.156-.922-.156-.547 0-.953.125-.406.11-.672.312-.266.203-.406.47-.141.265-.141.546t.11.516q.109.234.374.421.282.172.735.329.453.14 1.14.265.907.203 1.625.453.72.25 1.204.61.5.343.75.812.265.453.265 1.063 0 .656-.297 1.203-.281.531-.812.922-.531.375-1.266.593-.734.204-1.61.204-1.015 0-1.796-.266-.781-.281-1.328-.719-.531-.437-.828-1.015-.282-.594-.282-1.22h1.688q.031.516.266.876.25.36.609.578.36.219.797.312.437.079.875.079 1.062 0 1.672-.391.625-.39.64-1.031zm8.993 2.797q-1.032 0-1.907-.36t-1.5-.984q-.609-.64-.953-1.516-.343-.875-.343-1.906v-.39q0-1.188.375-2.126.39-.953 1.015-1.593.64-.657 1.438-1 .812-.344 1.656-.344 1.062 0 1.86.375.796.36 1.327 1.015.532.641.782 1.532.265.875.265 1.906v.75h-7.03q.015.687.25 1.281.233.578.64 1.031.406.438.968.704.563.25 1.25.25.907 0 1.594-.36.703-.375 1.172-.969l1.031.797q-.25.375-.625.72-.359.327-.843.593-.485.265-1.094.422-.61.172-1.328.172zm-.219-8.844q-.516 0-.969.187-.453.188-.812.547-.36.36-.625.89-.25.516-.344 1.204h5.297V37.4q-.016-.5-.188-.984-.156-.485-.468-.86-.297-.39-.766-.625-.469-.234-1.125-.234z" fill="#78909c"/><path d="M288.318 37.962q0-1.296.203-2.437.203-1.156.547-2.125.36-.984.797-1.797.453-.812.953-1.437.5-.625 1-1.079.5-.453.953-.703l.36 1.11q-.563.437-1.126 1.172-.562.734-1 1.796-.437 1.047-.718 2.422-.282 1.36-.282 3.063v.125q0 1.703.282 3.094.28 1.375.718 2.421.438 1.063 1 1.813.563.75 1.125 1.203l-.36 1.031q-.452-.25-.968-.703-.5-.437-1-1.078-.484-.625-.937-1.437-.453-.797-.797-1.766-.344-.984-.547-2.125-.203-1.156-.203-2.469zm15.68.094q0 1.313-.203 2.469-.203 1.14-.563 2.125-.344.969-.797 1.766-.437.812-.937 1.437-.5.64-1.016 1.078-.5.453-.953.703l-.344-1.03q.563-.423 1.11-1.173.562-.75 1-1.812.453-1.063.734-2.453.281-1.391.281-3.094v-.125q0-1.703-.297-3.094-.296-1.39-.765-2.453-.453-1.078-1-1.813-.547-.75-1.063-1.171l.344-1.032q.453.25.953.703.516.454 1.016 1.079t.937 1.437q.453.813.797 1.797.36.969.563 2.125.203 1.14.203 2.437zm7.977-3.797q0-.265.078-.5.093-.25.25-.422.172-.187.422-.28.25-.095.578-.095.328 0 .578.094.25.094.406.281.172.172.25.422.094.235.094.5 0 .266-.094.5-.078.235-.25.407-.156.171-.406.265t-.578.094q-.328 0-.578-.094-.25-.094-.422-.265-.157-.172-.25-.407-.078-.234-.078-.5zm2.343 8.703q0 .422-.11.891-.108.469-.312.922-.203.469-.5.89-.28.422-.671.75l-1.047-.578q.437-.64.625-1.359.187-.719.187-1.484v-1.64h1.828z" fill="#e67c73"/><path d="M37.338 55.322q.235 0 .485.015.265 0 .484.032.234.03.422.078.203.047.344.11l-.235 1.64q-.484-.11-.937-.156-.438-.047-.922-.047-1.188 0-1.922.547-.734.53-1.078 1.484v6.328H32.29v-9.86h1.594l.094 1.563q.594-.797 1.437-1.265.844-.47 1.922-.47zm9.086 10.219q-1.03 0-1.906-.36-.875-.36-1.5-.984-.61-.64-.953-1.516-.344-.875-.344-1.906v-.39q0-1.188.375-2.126.39-.953 1.016-1.593.64-.657 1.437-1 .813-.344 1.657-.344 1.062 0 1.859.375.797.36 1.328 1.015.531.641.781 1.532.266.875.266 1.906v.75h-7.031q.015.687.25 1.281.234.578.64 1.031.407.438.97.704.562.25 1.25.25.905 0 1.593-.36.703-.375 1.172-.969l1.031.797q-.25.375-.625.72-.36.327-.844.593-.484.265-1.093.422-.61.172-1.329.172zm-.218-8.844q-.516 0-.97.187-.452.188-.812.547-.359.36-.625.89-.25.516-.343 1.204h5.297V59.4q-.016-.5-.188-.984-.156-.485-.469-.86-.297-.39-.765-.625-.47-.234-1.125-.234zm13.617 6.047q0-.313-.125-.547-.125-.235-.406-.438t-.75-.375q-.453-.172-1.14-.297-.86-.187-1.563-.421-.688-.25-1.188-.594-.484-.344-.765-.797-.266-.469-.266-1.078 0-.594.281-1.11.281-.53.781-.921.516-.391 1.22-.61.702-.234 1.562-.234.906 0 1.625.234.734.235 1.25.656.515.407.781.97.281.562.281 1.218h-1.687q0-.328-.172-.625-.156-.313-.453-.547-.282-.234-.703-.375-.407-.156-.922-.156-.547 0-.953.125-.407.11-.672.312-.266.203-.407.47-.14.265-.14.546t.11.516q.109.234.374.421.281.172.735.329.453.14 1.14.265.906.203 1.625.453t1.203.61q.5.343.75.812.266.453.266 1.063 0 .656-.297 1.203-.281.531-.812.922-.532.375-1.266.593-.734.204-1.61.204-1.015 0-1.796-.266-.782-.281-1.328-.719-.532-.437-.829-1.015-.28-.594-.28-1.22h1.687q.031.516.265.876.25.36.61.578.36.219.797.312.437.079.875.079 1.062 0 1.671-.391.625-.39.641-1.031zm4.164-2.407q0-1.062.313-1.984.312-.922.89-1.594.579-.672 1.407-1.047.828-.39 1.86-.39 1.046 0 1.874.39.844.375 1.422 1.047.578.672.89 1.594.313.922.313 1.984v.204q0 1.062-.312 1.968-.313.907-.89 1.594-.58.672-1.407 1.063-.828.375-1.86.375-1.046 0-1.89-.375-.828-.391-1.406-1.063-.579-.687-.891-1.594-.313-.906-.313-1.968zm1.688.204q0 .718.172 1.39.172.656.515 1.156.36.5.891.797.531.282 1.234.282.688 0 1.204-.282.53-.297.875-.797.359-.5.53-1.156.173-.672.173-1.39v-.204q0-.718-.188-1.375-.172-.671-.531-1.171-.344-.5-.875-.797-.516-.297-1.219-.297-.703 0-1.219.297-.515.297-.875.797-.343.5-.515 1.171-.172.657-.172 1.375zm10.242-9.188h5.047V63.9h3.219v1.453h-8.266V63.9h3.36V52.822h-3.36zm14.805 11.578l.157.61.156-.61 2.765-7.437h1.72l-4.016 9.86h-1.282l-4.062-9.86h1.734zm11.68 2.61q-1.031 0-1.906-.36t-1.5-.984q-.61-.64-.953-1.516-.344-.875-.344-1.906v-.39q0-1.188.375-2.126.39-.953 1.016-1.593.64-.657 1.437-1 .813-.344 1.657-.344 1.062 0 1.859.375.797.36 1.328 1.015.531.641.781 1.532.266.875.266 1.906v.75h-7.031q.015.687.25 1.281.234.578.64 1.031.407.438.969.704.563.25 1.25.25.906 0 1.594-.36.703-.375 1.172-.969l1.03.797q-.25.375-.624.72-.36.327-.844.593-.484.265-1.094.422-.609.172-1.328.172zm-.218-8.844q-.516 0-.97.187-.452.188-.812.547-.36.36-.625.89-.25.516-.343 1.204h5.296V59.4q-.015-.5-.187-.984-.156-.485-.469-.86-.297-.39-.765-.625-.47-.234-1.125-.234zm8.898 3.344v5.312h-1.687V52.087h4.312q.89.016 1.688.282.797.265 1.39.765.61.5.953 1.25.36.735.36 1.688t-.36 1.687q-.343.735-.953 1.235-.593.5-1.39.765-.797.266-1.688.282zm0-1.391h2.625q.578-.016 1.063-.188.5-.171.86-.5.358-.328.562-.796.218-.47.218-1.079 0-.593-.218-1.078-.204-.484-.563-.812-.36-.344-.86-.531-.484-.188-1.062-.188h-2.625zm15.82-3.328q.235 0 .485.015.266 0 .485.032.234.03.421.078.204.047.344.11l-.234 1.64q-.485-.11-.938-.156-.437-.047-.922-.047-1.187 0-1.921.547-.735.53-1.079 1.484v6.328h-1.687v-9.86h1.594l.093 1.563q.594-.797 1.438-1.265.844-.47 1.922-.47zm4.259 5.015q0-1.062.312-1.984.313-.922.891-1.594.578-.672 1.406-1.047.828-.39 1.86-.39 1.046 0 1.875.39.843.375 1.421 1.047.579.672.891 1.594.313.922.313 1.984v.204q0 1.062-.313 1.968-.312.907-.89 1.594-.579.672-1.407 1.063-.828.375-1.86.375-1.046 0-1.89-.375-.828-.391-1.406-1.063-.578-.687-.89-1.594-.313-.906-.313-1.968zm1.687.204q0 .718.172 1.39.172.656.516 1.156.36.5.89.797.532.282 1.235.282.687 0 1.203-.282.531-.297.875-.797.36-.5.531-1.156.172-.672.172-1.39v-.204q0-.718-.187-1.375-.172-.671-.532-1.171-.343-.5-.875-.797-.515-.297-1.218-.297-.704 0-1.22.297-.515.297-.874.797-.344.5-.516 1.171-.172.657-.172 1.375zm10.758-5.047l.047.937q.297-.531.782-.812.5-.297 1.187-.297 1.36 0 1.813 1.047.296-.47.765-.75.485-.297 1.156-.297 1.094 0 1.672.672.578.656.578 2v7.36h-1.593v-7.376q0-1.25-1.14-1.234-.298 0-.517.093-.218.079-.375.22-.14.14-.218.327-.078.188-.11.375v7.594h-1.61v-7.39q0-.594-.265-.907-.265-.328-.828-.312-.531 0-.828.218-.281.204-.422.547v7.844h-1.61v-9.86zm10.68 0h5.047V63.9h3.219v1.453h-8.266V63.9h3.36v-6.938h-3.36zm3.141-2.578q0-.422.25-.704.25-.296.766-.296.5 0 .75.296.25.282.25.704 0 .406-.25.687-.25.266-.75.266-.516 0-.766-.266-.25-.281-.25-.687zm14.352 9.828q0-.313-.125-.547-.125-.235-.406-.438-.282-.203-.75-.375-.454-.172-1.141-.297-.86-.187-1.563-.421-.687-.25-1.187-.594-.484-.344-.766-.797-.265-.469-.265-1.078 0-.594.281-1.11.281-.53.781-.921.516-.391 1.219-.61.703-.234 1.562-.234.907 0 1.625.234.735.235 1.25.656.516.407.782.97.281.562.281 1.218h-1.688q0-.328-.171-.625-.157-.313-.454-.547-.28-.234-.703-.375-.406-.156-.922-.156-.546 0-.953.125-.406.11-.672.312-.265.203-.406.47-.14.265-.14.546t.109.516q.11.234.375.421.281.172.734.329.453.14 1.141.265.906.203 1.625.453t1.203.61q.5.343.75.812.266.453.266 1.063 0 .656-.297 1.203-.281.531-.813.922-.53.375-1.265.593-.735.204-1.61.204-1.015 0-1.797-.266-.78-.281-1.328-.719-.53-.437-.828-1.015-.281-.594-.281-1.22h1.687q.032.516.266.876.25.36.61.578.359.219.796.312.438.079.875.079 1.063 0 1.672-.391.625-.39.64-1.031zm8.992 2.797q-1.031 0-1.906-.36t-1.5-.984q-.61-.64-.953-1.516-.344-.875-.344-1.906v-.39q0-1.188.375-2.126.39-.953 1.016-1.593.64-.657 1.437-1 .813-.344 1.657-.344 1.062 0 1.859.375.797.36 1.328 1.015.531.641.781 1.532.266.875.266 1.906v.75h-7.031q.015.687.25 1.281.234.578.64 1.031.407.438.969.704.563.25 1.25.25.906 0 1.594-.36.703-.375 1.172-.969l1.03.797q-.25.375-.624.72-.36.327-.844.593-.484.265-1.094.422-.609.172-1.328.172zm-.218-8.844q-.516 0-.97.187-.452.188-.812.547-.36.36-.625.89-.25.516-.343 1.204h5.296V59.4q-.015-.5-.187-.984-.156-.485-.469-.86-.297-.39-.765-.625-.47-.234-1.125-.234z" fill="#78909c"/><path d="M189.28 59.962q0-1.296.202-2.437.204-1.156.547-2.125.36-.984.797-1.797.453-.812.953-1.437.5-.625 1-1.079.5-.453.953-.703l.36 1.11q-.563.437-1.125 1.172-.563.734-1 1.796-.438 1.047-.719 2.422-.281 1.36-.281 3.063v.125q0 1.703.281 3.094.281 1.375.719 2.421.437 1.063 1 1.813.562.75 1.125 1.203l-.36 1.031q-.453-.25-.968-.703-.5-.437-1-1.078-.485-.625-.938-1.437-.453-.797-.797-1.766-.343-.984-.547-2.125-.203-1.156-.203-2.469z" fill="#e67c73"/><path d="M207.131 60.54q0 1.047-.265 1.97-.25.906-.75 1.593-.485.672-1.22 1.063-.718.375-1.64.375-.906 0-1.594-.297-.687-.297-1.171-.844v4.75h-1.688V55.494h1.531l.094 1.078q.484-.61 1.172-.922.703-.328 1.625-.328.953 0 1.672.375.734.36 1.219 1.031.5.656.75 1.594.265.922.265 2.015v.204zm-1.687-.203q0-.718-.172-1.359-.156-.656-.485-1.156-.328-.5-.843-.781-.5-.297-1.22-.297-.812 0-1.358.375-.547.375-.875.968v4.75q.328.579.875.954.546.375 1.375.375.703 0 1.203-.297.515-.297.843-.797.329-.5.485-1.156.172-.657.172-1.375zm11.023-5.015q.235 0 .485.015.265 0 .484.032.234.03.422.078.203.047.344.11l-.235 1.64q-.484-.11-.937-.156-.438-.047-.922-.047-1.188 0-1.922.547-.734.53-1.078 1.484v6.328h-1.688v-9.86h1.594l.094 1.563q.594-.797 1.437-1.265.844-.47 1.922-.47zm4.258 5.015q0-1.062.313-1.984.312-.922.89-1.594.579-.672 1.407-1.047.828-.39 1.86-.39 1.046 0 1.874.39.844.375 1.422 1.047.578.672.89 1.594.313.922.313 1.984v.204q0 1.062-.312 1.968-.313.907-.89 1.594-.58.672-1.407 1.063-.828.375-1.86.375-1.046 0-1.89-.375-.828-.391-1.406-1.063-.579-.687-.891-1.594-.313-.906-.313-1.968zm1.688.204q0 .718.172 1.39.172.656.515 1.156.36.5.891.797.531.282 1.234.282.688 0 1.204-.282.53-.297.875-.797.359-.5.53-1.156.173-.672.173-1.39v-.204q0-.718-.188-1.375-.172-.671-.531-1.171-.344-.5-.875-.797-.516-.297-1.219-.297-.703 0-1.219.297-.515.297-.875.797-.343.5-.515 1.171-.172.657-.172 1.375zm10.758-5.047l.047.937q.297-.531.781-.812.5-.297 1.188-.297 1.359 0 1.812 1.047.297-.47.766-.75.484-.297 1.156-.297 1.094 0 1.672.672.578.656.578 2v7.36h-1.594v-7.376q0-1.25-1.14-1.234-.297 0-.516.093-.219.079-.375.22-.14.14-.219.327-.078.188-.11.375v7.594h-1.608v-7.39q0-.594-.266-.907-.266-.328-.828-.312-.531 0-.828.218-.282.204-.422.547v7.844h-1.61v-9.86zm10.68 0h5.047V63.9h3.219v1.453h-8.266V63.9h3.36v-6.938h-3.36zm3.14-2.578q0-.422.25-.704.25-.296.766-.296.5 0 .75.296.25.282.25.704 0 .406-.25.687-.25.266-.75.266-.515 0-.765-.266-.25-.281-.25-.687zm14.352 9.828q0-.313-.125-.547-.125-.235-.406-.438t-.75-.375q-.453-.172-1.14-.297-.86-.187-1.563-.421-.687-.25-1.187-.594-.485-.344-.766-.797-.266-.469-.266-1.078 0-.594.282-1.11.28-.53.78-.921.516-.391 1.22-.61.703-.234 1.562-.234.906 0 1.625.234.734.235 1.25.656.516.407.781.97.282.562.282 1.218h-1.688q0-.328-.172-.625-.156-.313-.453-.547-.281-.234-.703-.375-.406-.156-.922-.156-.547 0-.953.125-.406.11-.672.312-.266.203-.406.47-.14.265-.14.546t.109.516q.109.234.375.421.28.172.734.329.453.14 1.14.265.907.203 1.626.453.718.25 1.203.61.5.343.75.812.265.453.265 1.063 0 .656-.297 1.203-.28.531-.812.922-.531.375-1.266.593-.734.204-1.61.204-1.015 0-1.796-.266-.781-.281-1.328-.719-.531-.437-.828-1.015-.281-.594-.281-1.22h1.687q.031.516.266.876.25.36.609.578.36.219.797.312.437.079.875.079 1.062 0 1.672-.391.625-.39.64-1.031zm8.993 2.797q-1.031 0-1.906-.36t-1.5-.984q-.61-.64-.954-1.516-.343-.875-.343-1.906v-.39q0-1.188.375-2.126.39-.953 1.015-1.593.641-.657 1.438-1 .812-.344 1.656-.344 1.063 0 1.86.375.796.36 1.328 1.015.53.641.78 1.532.266.875.266 1.906v.75h-7.03q.015.687.25 1.281.234.578.64 1.031.406.438.969.704.562.25 1.25.25.906 0 1.593-.36.703-.375 1.172-.969l1.031.797q-.25.375-.625.72-.359.327-.843.593-.485.265-1.094.422-.61.172-1.328.172zm-.219-8.844q-.516 0-.969.187-.453.188-.812.547-.36.36-.625.89-.25.516-.344 1.204h5.297V59.4q-.016-.5-.188-.984-.156-.485-.468-.86-.297-.39-.766-.625-.469-.234-1.125-.234z" fill="#595959"/><path d="M281.453 64.962q0 .422-.11.891-.108.469-.312.922-.203.469-.5.89-.28.422-.671.75l-1.047-.578q.437-.64.625-1.359.187-.719.187-1.484v-1.64h1.828z" fill="#e67c73"/><path d="M303.438 62.931l.156.61.157-.61 2.765-7.437h1.72l-4.017 9.86h-1.28l-4.063-9.86h1.734z" fill="#000"/><path d="M316.915 60.056q0 1.313-.203 2.469-.203 1.14-.563 2.125-.343.969-.796 1.766-.438.812-.938 1.437-.5.64-1.016 1.078-.5.453-.953.703l-.343-1.03q.562-.423 1.109-1.173.562-.75 1-1.812.453-1.063.734-2.453.282-1.391.282-3.094v-.125q0-1.703-.297-3.094-.297-1.39-.766-2.453-.453-1.078-1-1.813-.547-.75-1.062-1.171l.343-1.032q.453.25.953.703.516.454 1.016 1.079t.938 1.437q.453.813.796 1.797.36.969.563 2.125.203 1.14.203 2.437zm7.977-3.797q0-.265.078-.5.094-.25.25-.422.172-.187.422-.28.25-.095.578-.095.328 0 .578.094.25.094.406.281.172.172.25.422.094.235.094.5 0 .266-.094.5-.078.235-.25.407-.156.171-.406.265t-.578.094q-.328 0-.578-.094-.25-.094-.422-.265-.156-.172-.25-.407-.078-.234-.078-.5zm2.344 8.703q0 .422-.11.891-.11.469-.312.922-.203.469-.5.89-.281.422-.672.75l-1.047-.578q.438-.64.625-1.359.188-.719.188-1.484v-1.64h1.828z" fill="#e67c73"/><path d="M35.885 75.103l-.422 2.39h3.64l-.218 1.313h-3.64l-.891 5.36q-.047.406 0 .75.047.343.203.609.156.25.437.406.297.14.735.156.5.016.984-.078.5-.093 1-.203l.156 1.219q-.578.312-1.28.406-.704.11-1.345.094-.75-.016-1.265-.281-.5-.282-.813-.735-.297-.468-.422-1.062-.109-.61-.046-1.297l.89-5.344h-2.515l.234-1.312h2.5l.422-2.39zm7.965 3.875q.297-.375.641-.672.36-.312.75-.531.406-.219.844-.344.437-.125.937-.11.828.016 1.39.345.579.312.907.843.328.516.438 1.203.109.688.015 1.438l-1.031 6.203h-1.656l1.047-6.234q.062-.485 0-.907-.047-.421-.25-.734-.204-.328-.563-.516-.344-.187-.875-.203-.422-.015-.797.094-.375.094-.719.297-.343.203-.656.469-.297.25-.547.562l-1.25 7.172H40.82l2.438-14h1.656zm15.825-1.687q.437.015.875.062.437.047.86.203l-.423 1.64q-.437-.093-.875-.155-.437-.063-.89-.079-1.14-.015-1.969.532-.812.53-1.36 1.53l-1.093 6.33h-1.656l1.703-9.86h1.578l-.281 1.562q.343-.39.734-.719.39-.328.828-.562.438-.234.922-.36.5-.124 1.047-.124zM63.14 82.4q.078-.672.281-1.313.22-.64.532-1.203.312-.578.75-1.047.437-.484.968-.828.532-.343 1.157-.53.64-.188 1.375-.157 1.03.015 1.765.453.735.437 1.172 1.14.453.688.625 1.579.172.89.063 1.812l-.016.203q-.125 1-.531 1.922-.406.922-1.063 1.625-.64.688-1.515 1.094-.875.406-1.953.39-1.032-.03-1.766-.453-.734-.421-1.188-1.109-.437-.703-.609-1.578-.172-.875-.078-1.797zm1.625.203q-.047.375-.047.797.016.406.078.797.063.39.204.75.156.344.39.625.25.265.594.437.36.157.844.172.75.031 1.328-.297.594-.328 1-.86.422-.53.656-1.187.25-.671.36-1.328l.015-.187q.063-.578.016-1.203-.032-.64-.266-1.172-.234-.531-.672-.875-.422-.36-1.14-.375-.766-.031-1.36.297-.578.328-.984.875-.406.53-.656 1.203-.25.672-.329 1.328zm10.981 1.281l-.062 1.25.5-1.437 2.593-6.203h1.063l.422 6.39-.016 1.407.484-1.438 2.172-6.36h1.5l-3.75 9.86h-1.281l-.453-6.125.016-1.406-.532 1.578-2.484 5.953H74.62l-.328-9.86h1.422zm15.247 3.47q-.063-.267-.063-.532 0-.266.031-.547-.656.578-1.422.922-.75.344-1.64.328-.61-.016-1.172-.203-.547-.203-.953-.563-.406-.375-.625-.89-.219-.516-.188-1.172.032-.64.25-1.125.235-.5.578-.86.36-.375.829-.625.468-.265.984-.421.531-.157 1.078-.22.563-.077 1.11-.077l1.89.015.11-.797q.062-.453-.063-.812-.125-.36-.39-.594-.25-.25-.626-.375-.36-.14-.812-.14-.39-.016-.766.078-.375.093-.687.28-.313.188-.547.485-.219.297-.313.72H85.93q.094-.75.484-1.298.407-.547.985-.906.594-.375 1.297-.547.703-.187 1.375-.172.75.016 1.39.235.657.218 1.11.64.453.422.687 1.031.25.61.156 1.407l-.75 4.578q-.093.5-.093 1.015 0 .5.109.985l-.016.156zm-2.766-1.282q.875.031 1.625-.39.75-.423 1.266-1.11l.359-2-1.422-.016q-.5 0-1.078.063-.563.062-1.063.265t-.859.578q-.344.375-.422.985-.047.39.047.703.11.297.328.5.219.203.531.312.313.11.688.11zm9.418-2.188l-.062 1.25.5-1.437 2.594-6.203h1.062l.422 6.39-.016 1.407.485-1.438 2.172-6.36h1.5l-3.75 9.86h-1.282l-.453-6.125.016-1.406-.531 1.578-2.485 5.953H96.52l-.328-9.86h1.422zm15.247 3.47q-.063-.267-.063-.532 0-.266.032-.547-.657.578-1.422.922-.75.344-1.641.328-.61-.016-1.172-.203-.547-.203-.953-.563-.406-.375-.625-.89-.219-.516-.187-1.172.03-.64.25-1.125.234-.5.578-.86.359-.375.828-.625.469-.265.984-.421.531-.157 1.078-.22.563-.077 1.11-.077l1.89.015.11-.797q.062-.453-.063-.812-.125-.36-.39-.594-.25-.25-.625-.375-.36-.14-.813-.14-.39-.016-.766.078-.375.093-.687.28-.313.188-.547.485-.219.297-.312.72h-1.657q.094-.75.485-1.298.406-.547.984-.906.594-.375 1.297-.547.703-.187 1.375-.172.75.016 1.39.235.657.218 1.11.64.453.422.687 1.031.25.61.157 1.407l-.75 4.578q-.094.5-.094 1.015 0 .5.11.985l-.016.156zm-2.766-1.282q.875.031 1.625-.39.75-.423 1.266-1.11l.36-2-1.423-.016q-.5 0-1.078.063-.562.062-1.062.265t-.86.578q-.343.375-.422.985-.046.39.047.703.11.297.328.5.22.203.532.312.312.11.687.11zm11.465-2.14l.188 1.093 4.234-7.531h1.922l-6.812 11.39q-.282.47-.625.907-.344.453-.782.796-.421.36-.921.563-.5.219-1.094.219-.266 0-.531-.063l-.532-.094.375-1.39q.188.015.39.047.204.03.392.03.359-.015.656-.187.312-.156.547-.406.25-.234.453-.531.203-.297.375-.563l.937-1.421-2.468-9.297h1.75z" fill="#595959"/><path d="M148.737 80.244h-8.125v-1.47h8.125zm0 3.78h-8.125v-1.452h8.125z" fill="#e67c73"/><path d="M167.206 86.166q.453 0 .89-.141.438-.14.766-.406.344-.266.547-.61.203-.36.219-.765h1.593q-.015.656-.343 1.265-.328.594-.89 1.047-.563.438-1.282.719-.719.266-1.5.266-1.11 0-1.953-.407-.844-.406-1.407-1.078-.546-.687-.843-1.562-.282-.89-.282-1.875v-.39q0-.97.282-1.86.297-.89.843-1.563.563-.687 1.407-1.078.843-.406 1.953-.406.875 0 1.61.281.734.266 1.265.75.531.469.828 1.125.312.656.312 1.406h-1.593q-.016-.453-.203-.843-.188-.391-.516-.688-.313-.312-.75-.484-.438-.172-.953-.172-.781 0-1.313.312-.53.313-.859.828-.328.5-.469 1.141-.14.625-.14 1.25v.39q0 .641.14 1.282.14.625.453 1.14.328.5.86.813.531.313 1.328.313zm13.461-8.844q.234 0 .484.015.266 0 .485.032.234.03.422.078.203.047.343.11l-.234 1.64q-.484-.11-.937-.156-.438-.047-.922-.047-1.188 0-1.922.547-.735.53-1.078 1.484v6.328h-1.688v-9.86h1.594l.094 1.563q.593-.797 1.437-1.265.844-.47 1.922-.47zm9.086 10.219q-1.031 0-1.906-.36t-1.5-.984q-.61-.64-.953-1.516-.344-.875-.344-1.906v-.39q0-1.188.375-2.126.39-.953 1.016-1.593.64-.657 1.437-1 .813-.344 1.656-.344 1.063 0 1.86.375.797.36 1.328 1.015.531.641.781 1.532.266.875.266 1.906v.75h-7.031q.015.687.25 1.281.234.578.64 1.031.406.438.969.704.562.25 1.25.25.906 0 1.594-.36.703-.375 1.172-.969l1.03.797q-.25.375-.624.72-.36.327-.844.593-.484.265-1.094.422-.609.172-1.328.172zm-.219-8.844q-.515 0-.968.187-.453.188-.813.547-.36.36-.625.89-.25.516-.344 1.204h5.297V81.4q-.015-.5-.187-.984-.156-.485-.469-.86-.297-.39-.766-.625-.468-.234-1.125-.234zm13.54 8.656q-.094-.187-.156-.469-.063-.297-.094-.61-.25.267-.563.5-.312.22-.703.392-.375.171-.812.265-.422.11-.89.11-.798 0-1.438-.22-.625-.234-1.063-.624-.437-.39-.687-.922-.235-.531-.235-1.156 0-.813.313-1.422.328-.61.922-1.016.593-.406 1.421-.594.844-.203 1.875-.203h1.829v-.78q0-.454-.172-.798-.157-.36-.453-.61-.297-.25-.735-.39-.422-.14-.969-.14-.5 0-.906.14-.39.125-.672.344-.265.203-.422.484-.14.282-.14.594h-1.688q0-.531.266-1.047.281-.531.781-.937.5-.422 1.219-.672.734-.25 1.656-.25.844 0 1.563.203.718.203 1.234.625.531.406.828 1.031.297.61.297 1.438v4.578q0 .5.094 1.047.094.547.25.968v.141zm-2.985-1.281q.5 0 .922-.125.438-.14.782-.344.343-.203.593-.469.266-.28.407-.562v-2h-1.563q-1.469 0-2.297.437-.812.438-.812 1.375 0 .36.125.672.125.313.36.531.25.22.624.36.375.125.86.125zm11.696-10.969v2.39h3.75v1.313h-3.75v5.344q0 .578.14.953.141.375.391.594.266.219.594.312.344.094.719.094.265 0 .547-.031.297-.031.578-.078.281-.047.515-.094.25-.047.407-.094l.234 1.203q-.219.125-.516.22-.296.093-.656.155-.344.078-.75.11-.39.047-.781.047-.656 0-1.234-.188-.563-.187-.985-.594-.422-.406-.672-1.047-.234-.64-.234-1.562v-5.344h-2.578v-1.312h2.578v-2.39zm11.555 12.438q-1.031 0-1.906-.36t-1.5-.984q-.61-.64-.953-1.516-.344-.875-.344-1.906v-.39q0-1.188.375-2.126.39-.953 1.015-1.593.641-.657 1.438-1 .812-.344 1.656-.344 1.063 0 1.86.375.796.36 1.328 1.015.53.641.78 1.532.267.875.267 1.906v.75h-7.032q.016.687.25 1.281.235.578.64 1.031.407.438.97.704.562.25 1.25.25.906 0 1.593-.36.704-.375 1.172-.969l1.032.797q-.25.375-.625.72-.36.327-.844.593-.485.265-1.094.422-.61.172-1.328.172zm-.219-8.844q-.515 0-.969.187-.453.188-.812.547-.36.36-.625.89-.25.516-.344 1.204h5.297V81.4q-.016-.5-.187-.984-.157-.485-.47-.86-.296-.39-.765-.625-.469-.234-1.125-.234zm8.899 3.344v5.312h-1.688V74.087h4.313q.89.016 1.687.282.797.265 1.391.765.61.5.953 1.25.36.735.36 1.688t-.36 1.687q-.344.735-.953 1.235-.594.5-1.39.765-.797.266-1.688.282zm0-1.391h2.625q.578-.016 1.062-.188.5-.171.86-.5.36-.328.562-.796.219-.47.219-1.079 0-.593-.219-1.078-.203-.484-.562-.812-.36-.344-.86-.531-.484-.188-1.062-.188h-2.625zm15.82-3.328q.235 0 .485.015.265 0 .484.032.235.03.422.078.203.047.344.11l-.235 1.64q-.484-.11-.937-.156-.438-.047-.922-.047-1.187 0-1.922.547-.734.53-1.078 1.484v6.328h-1.687v-9.86h1.593l.094 1.563q.594-.797 1.438-1.265.843-.47 1.921-.47zm4.259 5.015q0-1.062.312-1.984.313-.922.89-1.594.579-.672 1.407-1.047.828-.39 1.86-.39 1.046 0 1.874.39.844.375 1.422 1.047.578.672.89 1.594.313.922.313 1.984v.204q0 1.062-.312 1.968-.313.907-.89 1.594-.579.672-1.407 1.063-.828.375-1.86.375-1.046 0-1.89-.375-.828-.391-1.406-1.063-.578-.687-.891-1.594-.312-.906-.312-1.968zm1.687.204q0 .718.172 1.39.172.656.516 1.156.359.5.89.797.531.282 1.235.282.687 0 1.203-.282.53-.297.875-.797.359-.5.53-1.156.173-.672.173-1.39v-.204q0-.718-.188-1.375-.172-.671-.531-1.171-.344-.5-.875-.797-.516-.297-1.219-.297-.703 0-1.218.297-.516.297-.875.797-.344.5-.516 1.171-.172.657-.172 1.375zm10.758-5.047l.047.937q.297-.531.781-.812.5-.297 1.188-.297 1.36 0 1.812 1.047.297-.47.766-.75.484-.297 1.156-.297 1.094 0 1.672.672.578.656.578 2v7.36h-1.594v-7.376q0-1.25-1.14-1.234-.297 0-.516.093-.219.079-.375.22-.14.14-.219.327-.078.188-.109.375v7.594h-1.61v-7.39q0-.594-.265-.907-.266-.328-.828-.312-.531 0-.828.218-.281.204-.422.547v7.844h-1.61v-9.86zm10.68 0h5.047V85.9h3.219v1.453h-8.266V85.9h3.36v-6.938h-3.36zm3.14-2.578q0-.422.25-.704.25-.296.766-.296.5 0 .75.296.25.282.25.704 0 .406-.25.687-.25.266-.75.266-.515 0-.765-.266-.25-.281-.25-.687zm14.353 9.828q0-.313-.125-.547-.125-.235-.407-.438-.281-.203-.75-.375-.453-.172-1.14-.297-.86-.187-1.563-.421-.687-.25-1.187-.594-.485-.344-.766-.797-.266-.469-.266-1.078 0-.594.282-1.11.28-.53.78-.921.517-.391 1.22-.61.703-.234 1.562-.234.906 0 1.625.234.735.235 1.25.656.516.407.781.97.282.562.282 1.218h-1.688q0-.328-.172-.625-.156-.313-.453-.547-.281-.234-.703-.375-.406-.156-.922-.156-.547 0-.953.125-.406.11-.672.312-.265.203-.406.47-.14.265-.14.546t.109.516q.109.234.375.421.28.172.734.329.453.14 1.14.265.907.203 1.626.453.718.25 1.203.61.5.343.75.812.265.453.265 1.063 0 .656-.296 1.203-.282.531-.813.922-.531.375-1.266.593-.734.204-1.609.204-1.016 0-1.797-.266-.781-.281-1.328-.719-.531-.437-.828-1.015-.281-.594-.281-1.22h1.687q.031.516.266.876.25.36.61.578.359.219.796.312.438.079.875.079 1.063 0 1.672-.391.625-.39.64-1.031zm8.992 2.797q-1.031 0-1.906-.36t-1.5-.984q-.61-.64-.953-1.516-.344-.875-.344-1.906v-.39q0-1.188.375-2.126.39-.953 1.015-1.593.641-.657 1.438-1 .812-.344 1.656-.344 1.063 0 1.86.375.796.36 1.328 1.015.531.641.781 1.532.266.875.266 1.906v.75h-7.032q.016.687.25 1.281.235.578.641 1.031.406.438.969.704.562.25 1.25.25.906 0 1.593-.36.704-.375 1.172-.969l1.032.797q-.25.375-.625.72-.36.327-.844.593-.485.265-1.094.422-.61.172-1.328.172zm-.219-8.844q-.515 0-.969.187-.453.188-.812.547-.36.36-.625.89-.25.516-.344 1.204h5.297V81.4q-.016-.5-.187-.984-.157-.485-.47-.86-.296-.39-.765-.625-.469-.234-1.125-.234z" fill="#78909c"/><path d="M310.217 81.962q0-1.296.203-2.437.203-1.156.547-2.125.36-.984.797-1.797.453-.812.953-1.437.5-.625 1-1.079.5-.453.953-.703l.36 1.11q-.563.437-1.125 1.172-.563.734-1 1.796-.438 1.047-.72 2.422-.28 1.36-.28 3.063v.125q0 1.703.28 3.094.282 1.375.72 2.421.437 1.063 1 1.813.562.75 1.125 1.203l-.36 1.031q-.453-.25-.969-.703-.5-.437-1-1.078-.484-.625-.937-1.437-.453-.797-.797-1.766-.344-.984-.547-2.125-.203-1.156-.203-2.469zm15.68.094q0 1.313-.203 2.469-.203 1.14-.563 2.125-.343.969-.796 1.766-.438.812-.938 1.437-.5.64-1.016 1.078-.5.453-.953.703l-.343-1.03q.562-.423 1.109-1.173.562-.75 1-1.812.453-1.063.734-2.453.282-1.391.282-3.094v-.125q0-1.703-.297-3.094-.297-1.39-.766-2.453-.453-1.078-1-1.813-.547-.75-1.062-1.171l.343-1.032q.453.25.953.703.516.454 1.016 1.079t.938 1.437q.453.813.796 1.797.36.969.563 2.125.203 1.14.203 2.437zm7.977-3.797q0-.265.078-.5.094-.25.25-.422.172-.187.422-.28.25-.095.578-.095.328 0 .578.094.25.094.406.281.172.172.25.422.094.235.094.5 0 .266-.094.5-.078.235-.25.407-.156.171-.406.265t-.578.094q-.328 0-.578-.094-.25-.094-.422-.265-.156-.172-.25-.407-.078-.234-.078-.5zm2.344 8.703q0 .422-.11.891-.11.469-.312.922-.203.469-.5.89-.282.422-.672.75l-1.047-.578q.437-.64.625-1.359.187-.719.187-1.484v-1.64h1.829z" fill="#e67c73"/><path d="M39.198 104.54q0 1.047-.266 1.97-.25.906-.75 1.593-.484.672-1.219 1.063-.719.375-1.64.375-.907 0-1.594-.297-.688-.297-1.172-.844v4.75h-1.688V99.494h1.532l.093 1.078q.485-.61 1.172-.922.703-.328 1.625-.328.953 0 1.672.375.735.36 1.219 1.031.5.656.75 1.594.266.922.266 2.015zm-1.688-.203q0-.718-.172-1.359-.156-.656-.484-1.156-.328-.5-.844-.781-.5-.297-1.219-.297-.812 0-1.359.375-.547.375-.875.968v4.75q.328.579.875.954.547.375 1.375.375.703 0 1.203-.297.516-.297.844-.797.328-.5.484-1.156.172-.657.172-1.375zm8.914 5.204q-1.03 0-1.906-.36-.875-.36-1.5-.984-.61-.64-.953-1.516-.344-.875-.344-1.906v-.39q0-1.188.375-2.126.39-.953 1.016-1.593.64-.657 1.437-1 .813-.344 1.657-.344 1.062 0 1.859.375.797.36 1.328 1.015.531.641.781 1.532.266.875.266 1.906v.75h-7.031q.015.687.25 1.281.234.578.64 1.031.407.438.97.704.562.25 1.25.25.905 0 1.593-.36.703-.375 1.172-.969l1.031.797q-.25.375-.625.72-.36.327-.844.593-.484.265-1.093.422-.61.172-1.329.172zm-.218-8.844q-.516 0-.97.187-.452.188-.812.547-.359.36-.625.89-.25.516-.343 1.204h5.297v-.125q-.016-.5-.188-.984-.156-.485-.469-.86-.297-.39-.765-.625-.47-.234-1.125-.234zm13.523-1.375q.235 0 .485.015.265 0 .484.032.234.03.422.078.203.047.344.11l-.235 1.64q-.484-.11-.937-.156-.438-.047-.922-.047-1.188 0-1.922.547-.734.53-1.078 1.484v6.328h-1.688v-9.86h1.594l.094 1.563q.594-.797 1.437-1.265.844-.47 1.922-.47zm7.243 10.031v-8.547h-2.703v-1.312h2.703v-.688q0-.953.281-1.656.281-.719.781-1.203.516-.485 1.22-.735.718-.25 1.593-.25.594 0 1.156.11.578.094 1.172.25l-.188 1.39q-.375-.125-.875-.218-.5-.094-1.062-.094-1.188.016-1.781.61-.594.577-.594 1.796v.688h3.797v1.312h-3.797v8.547zm8.22-5.016q0-1.062.313-1.984.312-.922.89-1.594.578-.672 1.406-1.047.829-.39 1.86-.39 1.047 0 1.875.39.844.375 1.422 1.047.578.672.89 1.594.313.922.313 1.984v.204q0 1.062-.313 1.968-.312.907-.89 1.594-.578.672-1.407 1.063-.828.375-1.859.375-1.047 0-1.89-.375-.829-.391-1.407-1.063-.578-.687-.89-1.594-.313-.906-.313-1.968zm1.688.204q0 .718.171 1.39.172.656.516 1.156.36.5.89.797.532.282 1.235.282.688 0 1.203-.282.531-.297.875-.797.36-.5.531-1.156.172-.672.172-1.39v-.204q0-.718-.187-1.375-.172-.671-.531-1.171-.344-.5-.875-.797-.516-.297-1.22-.297-.702 0-1.218.297t-.875.797q-.344.5-.516 1.171-.171.657-.171 1.375zm16.445-5.22q.235 0 .485.016.265 0 .484.032.234.03.422.078.203.047.344.11l-.235 1.64q-.484-.11-.937-.156-.438-.047-.922-.047-1.188 0-1.922.547-.734.53-1.078 1.484v6.328h-1.688v-9.86h1.594l.094 1.563q.594-.797 1.437-1.265.844-.47 1.922-.47zm5.508.173l.047.937q.297-.531.781-.812.5-.297 1.188-.297 1.36 0 1.812 1.047.297-.47.766-.75.484-.297 1.156-.297 1.094 0 1.672.672.578.656.578 2v7.36h-1.593v-7.376q0-1.25-1.141-1.234-.297 0-.516.093-.218.079-.375.22-.14.14-.218.327-.079.188-.11.375v7.594h-1.61v-7.39q0-.594-.265-.907-.265-.328-.828-.312-.531 0-.828.218-.281.204-.422.547v7.844h-1.61v-9.86zm12.258 4.547v5.312h-1.687V96.087h4.312q.89.016 1.688.282.797.265 1.39.765.61.5.954 1.25.359.735.359 1.688t-.36 1.687q-.343.735-.953 1.235-.593.5-1.39.765-.797.266-1.688.282zm0-1.391h2.625q.578-.016 1.063-.188.5-.171.86-.5.359-.328.562-.796.218-.47.218-1.079 0-.593-.218-1.078-.203-.484-.563-.812-.36-.344-.86-.531-.484-.188-1.062-.188h-2.625zm15.82-3.328q.235 0 .485.015.266 0 .485.032.234.03.422.078.203.047.343.11l-.234 1.64q-.484-.11-.938-.156-.437-.047-.921-.047-1.188 0-1.922.547-.735.53-1.078 1.484v6.328h-1.688v-9.86h1.594l.094 1.563q.593-.797 1.437-1.265.844-.47 1.922-.47zm4.259 5.015q0-1.062.312-1.984.313-.922.891-1.594.578-.672 1.406-1.047.828-.39 1.86-.39 1.047 0 1.875.39.843.375 1.422 1.047.578.672.89 1.594.313.922.313 1.984v.204q0 1.062-.313 1.968-.312.907-.89 1.594-.579.672-1.407 1.063-.828.375-1.859.375-1.047 0-1.89-.375-.829-.391-1.407-1.063-.578-.687-.89-1.594-.313-.906-.313-1.968zm1.687.204q0 .718.172 1.39.172.656.516 1.156.36.5.89.797.532.282 1.235.282.687 0 1.203-.282.531-.297.875-.797.36-.5.531-1.156.172-.672.172-1.39v-.204q0-.718-.187-1.375-.172-.671-.532-1.171-.343-.5-.875-.797-.515-.297-1.218-.297t-1.219.297q-.516.297-.875.797-.344.5-.516 1.171-.172.657-.172 1.375zm10.759-5.047l.046.937q.297-.531.782-.812.5-.297 1.187-.297 1.36 0 1.813 1.047.297-.47.765-.75.485-.297 1.157-.297 1.093 0 1.671.672.579.656.579 2v7.36h-1.594v-7.376q0-1.25-1.14-1.234-.298 0-.516.093-.22.079-.375.22-.141.14-.22.327-.077.188-.109.375v7.594h-1.609v-7.39q0-.594-.266-.907-.265-.328-.828-.312-.531 0-.828.218-.281.204-.422.547v7.844h-1.61v-9.86zm10.68 0h5.046v8.406h3.22v1.453h-8.267V107.9h3.36v-6.938h-3.36zm3.14-2.578q0-.422.25-.704.25-.296.766-.296.5 0 .75.296.25.282.25.704 0 .406-.25.687-.25.266-.75.266-.516 0-.766-.266-.25-.281-.25-.687zm14.352 9.828q0-.313-.125-.547-.125-.235-.406-.438-.282-.203-.75-.375-.453-.172-1.14-.297-.86-.187-1.563-.421-.688-.25-1.188-.594-.484-.344-.766-.797-.265-.469-.265-1.078 0-.594.281-1.11.281-.53.781-.921.516-.391 1.22-.61.702-.234 1.562-.234.906 0 1.625.234.734.235 1.25.656.515.407.78.97.282.562.282 1.218h-1.687q0-.328-.172-.625-.157-.313-.453-.547-.282-.234-.704-.375-.406-.156-.921-.156-.547 0-.954.125-.406.11-.671.312-.266.203-.407.47-.14.265-.14.546t.11.516q.108.234.374.421.281.172.734.329.454.14 1.141.265.906.203 1.625.453t1.203.61q.5.343.75.812.266.453.266 1.063 0 .656-.297 1.203-.281.531-.813.922-.53.375-1.265.593-.735.204-1.61.204-1.015 0-1.796-.266-.782-.281-1.329-.719-.53-.437-.828-1.015-.28-.594-.28-1.22h1.687q.03.516.265.876.25.36.61.578.359.219.796.312.438.079.875.079 1.063 0 1.672-.391.625-.39.64-1.031zm8.992 2.797q-1.03 0-1.906-.36-.875-.36-1.5-.984-.61-.64-.953-1.516-.344-.875-.344-1.906v-.39q0-1.188.375-2.126.39-.953 1.016-1.593.64-.657 1.437-1 .813-.344 1.657-.344 1.062 0 1.859.375.797.36 1.328 1.015.531.641.781 1.532.266.875.266 1.906v.75h-7.031q.015.687.25 1.281.234.578.64 1.031.407.438.97.704.562.25 1.25.25.905 0 1.593-.36.703-.375 1.172-.969l1.031.797q-.25.375-.625.72-.36.327-.844.593-.484.265-1.093.422-.61.172-1.329.172zm-.218-8.844q-.516 0-.97.187-.452.188-.812.547-.359.36-.625.89-.25.516-.343 1.204h5.297v-.125q-.016-.5-.188-.984-.156-.485-.469-.86-.297-.39-.765-.625-.47-.234-1.125-.234zm16.008-3.172h-4.094v11.828h-1.64V97.525h-4.11v-1.438h9.844zm3.93 3.437q.53-.78 1.297-1.203.78-.437 1.75-.437.78 0 1.406.219.64.218 1.078.703.453.468.687 1.187.25.719.25 1.719v6.203h-1.687v-6.219q0-1.218-.578-1.812-.578-.594-1.656-.578-.813 0-1.47.406-.655.39-1.077 1.047v7.156h-1.688v-14h1.688zm13.867 8.579q-1.031 0-1.906-.36t-1.5-.984q-.61-.64-.953-1.516-.344-.875-.344-1.906v-.39q0-1.188.375-2.126.39-.953 1.016-1.593.64-.657 1.437-1 .813-.344 1.656-.344 1.063 0 1.86.375.797.36 1.328 1.015.531.641.781 1.532.266.875.266 1.906v.75h-7.032q.016.687.25 1.281.235.578.641 1.031.406.438.969.704.562.25 1.25.25.906 0 1.594-.36.703-.375 1.171-.969l1.032.797q-.25.375-.625.72-.36.327-.844.593-.484.265-1.094.422-.61.172-1.328.172zm-.219-8.844q-.515 0-.968.187-.454.188-.813.547-.36.36-.625.89-.25.516-.344 1.204h5.297v-.125q-.015-.5-.187-.984-.157-.485-.469-.86-.297-.39-.766-.625-.468-.234-1.125-.234zm8.57-1.203l.126 1.453q.531-.766 1.312-1.188.782-.437 1.75-.437.782 0 1.407.219.64.218 1.078.687.453.453.687 1.172.25.719.25 1.687v6.266h-1.687v-6.219q0-.656-.156-1.11-.141-.452-.422-.733-.282-.297-.703-.422-.407-.125-.954-.125-.843 0-1.484.422-.64.421-1.031 1.125v7.062h-1.688v-9.86z" fill="#78909c"/><path d="M234.07 103.962q0-1.296.204-2.437.203-1.156.547-2.125.36-.984.797-1.797.453-.812.953-1.437.5-.625 1-1.079.5-.453.953-.703l.36 1.11q-.563.437-1.126 1.172-.562.734-1 1.796-.437 1.047-.719 2.422-.28 1.36-.28 3.063v.125q0 1.703.28 3.094.282 1.375.72 2.421.437 1.063 1 1.813.562.75 1.124 1.203l-.36 1.031q-.452-.25-.968-.703-.5-.437-1-1.078-.484-.625-.937-1.437-.454-.797-.797-1.766-.344-.984-.547-2.125-.203-1.156-.203-2.469z" fill="#e67c73"/><path d="M251.516 104.478q-.11.906-.437 1.828-.313.906-.875 1.64-.547.72-1.344 1.173-.781.437-1.828.422-.75-.016-1.422-.282-.656-.265-1.14-.86l-.891 4.75h-1.64l2.359-13.655h1.5l-.172 1.078q.578-.625 1.28-.953.72-.328 1.595-.297.672.015 1.172.234.5.219.859.594.36.36.578.844.219.484.328 1.03.125.548.14 1.126.016.578-.046 1.125zm-1.625-.203q.063-.547.032-1.156-.032-.625-.25-1.14-.204-.517-.625-.86-.422-.36-1.125-.375-.782-.016-1.375.36-.594.374-1.047.983l-.828 4.766q.546 1.266 1.937 1.313.766.015 1.328-.313.578-.328.969-.86.406-.53.64-1.202.235-.672.329-1.313zm11.56-4.984q.437.015.874.062.438.047.86.203l-.422 1.64q-.438-.093-.875-.155-.438-.063-.89-.079-1.141-.015-1.97.532-.812.53-1.359 1.53l-1.094 6.33h-1.656l1.703-9.86h1.578l-.28 1.562q.343-.39.733-.719.391-.328.829-.562.437-.234.921-.36.5-.124 1.047-.124zm3.465 5.109q.078-.672.28-1.313.22-.64.532-1.203.313-.578.75-1.047.438-.484.969-.828.531-.343 1.156-.53.64-.188 1.375-.157 1.031.015 1.766.453.734.437 1.172 1.14.453.688.625 1.579.171.89.062 1.812l-.016.203q-.125 1-.53 1.922-.407.922-1.063 1.625-.64.688-1.516 1.094-.875.406-1.953.39-1.031-.03-1.766-.453-.734-.421-1.187-1.109-.438-.703-.61-1.578-.171-.875-.078-1.797zm1.625.203q-.047.375-.047.797.015.406.078.797.062.39.203.75.156.344.39.625.25.265.594.437.36.157.844.172.75.031 1.328-.297.594-.328 1-.86.422-.53.656-1.187.25-.671.36-1.328l.015-.187q.063-.578.016-1.203-.031-.64-.266-1.172-.234-.531-.671-.875-.422-.36-1.141-.375-.766-.031-1.36.297-.578.328-.984.875-.406.53-.656 1.203-.25.672-.328 1.328zm11.371-5.11l-.187.938q.39-.531.875-.828.5-.297 1.14-.281.297 0 .547.062.25.047.469.172.219.125.375.328t.234.485q.39-.485.875-.766t1.11-.281q.578 0 .953.234.39.219.593.61.22.375.282.859.078.469.03.969l-1.218 7.36h-1.578l1.25-7.392q.016-.25-.016-.468-.015-.235-.109-.39-.094-.173-.281-.267-.188-.109-.469-.109-.5 0-.86.281-.359.266-.5.75l-1.28 7.594h-1.579l1.25-7.39q.032-.25 0-.47-.015-.218-.11-.374-.093-.172-.265-.266-.172-.094-.453-.11-.453-.015-.781.188-.313.203-.547.563l-1.36 7.86h-1.562l1.703-9.86zm10.45 0h4.906l-1.453 8.407h3.125l-.266 1.453h-8.015l.265-1.453h3.235l1.203-6.938h-3.25zm3.5-2.562q0-.437.265-.719.282-.28.719-.312.219 0 .39.078.188.063.313.203.14.125.203.313.063.172.063.39 0 .438-.281.703-.266.266-.704.282-.421.03-.703-.235-.265-.265-.265-.703zm12.356 9.75q.046-.422-.141-.687-.188-.282-.5-.453-.313-.172-.688-.282-.375-.11-.671-.172-.547-.14-1.141-.343t-1.094-.516q-.484-.328-.797-.797-.297-.484-.265-1.172.015-.5.203-.906.187-.422.484-.75t.688-.578q.406-.25.843-.406.438-.157.891-.235.469-.078.922-.062.687.015 1.328.219.64.187 1.125.578.484.39.766.968.28.563.28 1.313h-1.64q0-.422-.156-.719-.14-.312-.422-.531-.265-.219-.625-.328-.344-.11-.719-.11-.375-.015-.765.079-.375.078-.719.25-.328.171-.578.468-.234.282-.281.688-.063.422.125.687.187.25.484.407.313.156.672.25.36.078.656.14.375.094.766.219.406.11.781.281.39.156.734.375t.594.5q.25.281.375.656.14.375.125.844-.031.797-.437 1.375-.407.563-1.016.922-.594.36-1.328.531-.719.172-1.406.157-.735-.016-1.422-.22-.672-.218-1.203-.624-.516-.406-.844-1-.313-.594-.297-1.39l1.64.015q.016.469.188.812.172.344.453.578.297.22.688.344.406.11.844.11.359 0 .765-.063.422-.078.781-.25.375-.172.625-.453.266-.297.329-.719zm8.418 2.86q-1-.032-1.766-.422-.765-.39-1.265-1.032-.485-.64-.703-1.484-.204-.86-.125-1.812l.046-.391q.079-.64.282-1.266.218-.64.547-1.203.328-.578.765-1.062.453-.485.985-.828.546-.36 1.171-.547.641-.203 1.344-.172 1.016.015 1.719.437.703.407 1.11 1.094.421.672.546 1.531.14.86.016 1.766l-.11.75h-6.78q-.079.61.03 1.187.11.563.407 1.032.297.453.78.734.485.281 1.142.297.859.031 1.578-.328.734-.375 1.312-.969l.953.797q-.343.469-.797.828-.453.36-.968.61-.516.234-1.078.343-.563.11-1.141.11zm1.203-8.844q-.64-.031-1.156.219-.5.234-.906.64-.391.406-.688.922-.281.516-.484 1.047l5.14.016.047-.157q.078-.515-.015-.984-.094-.469-.36-.844-.25-.375-.656-.61-.39-.234-.922-.25z" fill="#595959"/><path d="M324.523 108.962q0 .422-.11.891-.109.469-.312.922-.203.469-.5.89-.281.422-.672.75l-1.047-.578q.438-.64.625-1.359.188-.719.188-1.484v-1.64h1.828z" fill="#e67c73"/><path d="M59.73 121.322q.234 0 .484.015.265 0 .484.032.234.03.422.078.203.047.344.11l-.235 1.64q-.484-.11-.937-.156-.438-.047-.922-.047-1.188 0-1.922.547-.734.53-1.078 1.484v6.328h-1.688v-9.86h1.594l.094 1.563q.594-.797 1.437-1.265.844-.47 1.922-.47zm9.086 10.219q-1.032 0-1.907-.36t-1.5-.984q-.61-.64-.953-1.516-.344-.875-.344-1.906v-.39q0-1.188.375-2.126.391-.953 1.016-1.593.64-.657 1.438-1 .812-.344 1.656-.344 1.062 0 1.86.375.796.36 1.327 1.015.532.641.782 1.532.265.875.265 1.906v.75H65.8q.016.687.25 1.281.234.578.64 1.031.407.438.97.704.562.25 1.25.25.906 0 1.593-.36.703-.375 1.172-.969l1.031.797q-.25.375-.625.72-.36.327-.844.593-.484.265-1.093.422-.61.172-1.328.172zm-.22-8.844q-.515 0-.968.187-.453.188-.812.547-.36.36-.625.89-.25.516-.344 1.204h5.297v-.125q-.016-.5-.188-.984-.156-.485-.469-.86-.296-.39-.765-.625-.469-.234-1.125-.234zm13.618 6.047q0-.313-.125-.547-.125-.235-.406-.438t-.75-.375q-.453-.172-1.14-.297-.86-.187-1.563-.421-.688-.25-1.188-.594-.484-.344-.765-.797-.266-.469-.266-1.078 0-.594.281-1.11.282-.53.782-.921.515-.391 1.218-.61.703-.234 1.563-.234.906 0 1.625.234.734.235 1.25.656.515.407.781.97.281.562.281 1.218h-1.687q0-.328-.172-.625-.156-.313-.453-.547-.281-.234-.703-.375-.407-.156-.922-.156-.547 0-.953.125-.407.11-.672.312-.266.203-.406.47-.141.265-.141.546t.11.516q.109.234.374.421.282.172.735.329.453.14 1.14.265.907.203 1.625.453.72.25 1.203.61.5.343.75.812.266.453.266 1.063 0 .656-.297 1.203-.281.531-.812.922-.532.375-1.266.593-.734.204-1.61.204-1.015 0-1.796-.266-.781-.281-1.328-.719-.532-.437-.828-1.015-.282-.594-.282-1.22h1.688q.031.516.265.876.25.36.61.578.36.219.797.312.437.079.875.079 1.062 0 1.672-.391.625-.39.64-1.031z" fill="#000"/><path d="M106.168 124.244h-8.125v-1.47h8.125zm0 3.78h-8.125v-1.452h8.125zm3.117-4.952v-1.735l8.047 3.438v1.328l-8.047 3.453v-1.75l5.891-2.219.547-.156-.547-.172z" fill="#e67c73"/><path d="M138.098 121.322q.235 0 .485.015.265 0 .484.032.234.03.422.078.203.047.344.11l-.235 1.64q-.484-.11-.937-.156-.438-.047-.922-.047-1.188 0-1.922.547-.734.53-1.078 1.484v6.328h-1.688v-9.86h1.594l.094 1.563q.594-.797 1.437-1.265.844-.47 1.922-.47zm9.087 10.219q-1.032 0-1.907-.36t-1.5-.984q-.61-.64-.953-1.516-.344-.875-.344-1.906v-.39q0-1.188.375-2.126.391-.953 1.016-1.593.64-.657 1.438-1 .812-.344 1.656-.344 1.062 0 1.86.375.796.36 1.327 1.015.532.641.782 1.532.265.875.265 1.906v.75h-7.031q.016.687.25 1.281.234.578.64 1.031.407.438.97.704.562.25 1.25.25.906 0 1.593-.36.703-.375 1.172-.969l1.031.797q-.25.375-.625.72-.36.327-.844.593-.484.265-1.093.422-.61.172-1.328.172zm-.22-8.844q-.515 0-.968.187-.453.188-.812.547-.36.36-.625.89-.25.516-.344 1.204h5.297v-.125q-.016-.5-.188-.984-.156-.485-.469-.86-.296-.39-.765-.625-.469-.234-1.125-.234zm13.618 6.047q0-.313-.125-.547-.125-.235-.406-.438t-.75-.375q-.453-.172-1.14-.297-.86-.187-1.563-.421-.688-.25-1.188-.594-.484-.344-.765-.797-.266-.469-.266-1.078 0-.594.281-1.11.282-.53.782-.921.515-.391 1.218-.61.704-.234 1.563-.234.906 0 1.625.234.734.235 1.25.656.516.407.781.97.281.562.281 1.218h-1.687q0-.328-.172-.625-.156-.313-.453-.547-.281-.234-.703-.375-.406-.156-.922-.156-.547 0-.953.125-.406.11-.672.312-.266.203-.406.47-.141.265-.141.546t.11.516q.109.234.374.421.282.172.735.329.453.14 1.14.265.907.203 1.625.453.72.25 1.204.61.5.343.75.812.265.453.265 1.063 0 .656-.297 1.203-.281.531-.812.922-.531.375-1.266.593-.734.204-1.61.204-1.015 0-1.796-.266-.781-.281-1.328-.719-.531-.437-.828-1.015-.282-.594-.282-1.22h1.688q.031.516.266.876.25.36.609.578.36.219.797.312.437.079.875.079 1.062 0 1.672-.391.625-.39.64-1.031zm11.04 1.25q-.5.734-1.235 1.14-.734.407-1.703.407-.781 0-1.406-.235-.625-.25-1.078-.765-.438-.516-.688-1.297-.234-.782-.234-1.89v-5.86h1.687v5.875q0 .812.125 1.343.125.516.375.829.266.312.625.453.375.125.86.125 1.031 0 1.656-.422.64-.422.953-1.125v-7.078h1.688v9.86h-1.532l-.093-1.36zm5.57-8.5l.047.937q.297-.531.781-.812.5-.297 1.188-.297 1.36 0 1.812 1.047.297-.47.766-.75.484-.297 1.156-.297 1.094 0 1.672.672.578.656.578 2v7.36H183.6v-7.376q0-1.25-1.14-1.234-.297 0-.516.093-.219.079-.375.22-.14.14-.219.327-.078.188-.109.375v7.594h-1.61v-7.39q0-.594-.265-.907-.266-.328-.828-.312-.531 0-.828.218-.281.204-.422.547v7.844h-1.61v-9.86h1.516zm14.774 10.047q-1.031 0-1.906-.36t-1.5-.984q-.61-.64-.954-1.516-.343-.875-.343-1.906v-.39q0-1.188.375-2.126.39-.953 1.015-1.593.641-.657 1.438-1 .812-.344 1.656-.344 1.063 0 1.86.375.796.36 1.328 1.015.53.641.78 1.532.266.875.266 1.906v.75h-7.03q.015.687.25 1.281.234.578.64 1.031.406.438.969.704.562.25 1.25.25.906 0 1.593-.36.703-.375 1.172-.969l1.031.797q-.25.375-.625.72-.359.327-.843.593-.485.265-1.094.422-.61.172-1.328.172zm-.219-8.844q-.516 0-.969.187-.453.188-.812.547-.36.36-.625.89-.25.516-.344 1.204h5.297v-.125q-.016-.5-.188-.984-.156-.485-.468-.86-.297-.39-.766-.625-.469-.234-1.125-.234z" fill="#78909c"/><path d="M200.475 125.962q0-1.296.203-2.437.203-1.156.547-2.125.36-.984.797-1.797.453-.812.953-1.437.5-.625 1-1.079.5-.453.953-.703l.36 1.11q-.563.437-1.126 1.172-.562.734-1 1.796-.437 1.047-.718 2.422-.282 1.36-.282 3.063v.125q0 1.703.282 3.094.28 1.375.718 2.421.438 1.063 1 1.813.563.75 1.125 1.203l-.359 1.031q-.453-.25-.969-.703-.5-.437-1-1.078-.484-.625-.937-1.437-.453-.797-.797-1.766-.344-.984-.547-2.125-.203-1.156-.203-2.469z" fill="#e67c73"/><path d="M211.655 126.337l2.344 3.625h-1.282l-2.687-3.53v-.173l2.687-3.547H214zm3 0l2.344 3.625h-1.282l-2.687-3.53v-.173l2.687-3.547H217zm9.055 5.016v-8.547h-2.703v-1.312h2.703v-.688q0-.953.281-1.656.281-.719.781-1.203.516-.485 1.22-.735.718-.25 1.593-.25.594 0 1.156.11.578.094 1.172.25l-.188 1.39q-.375-.125-.875-.218-.5-.094-1.062-.094-1.188.016-1.781.61-.594.577-.594 1.796v.688h3.797v1.312h-3.797v8.547zm8.22-5.016q0-1.062.313-1.984.312-.922.89-1.594.578-.672 1.406-1.047.829-.39 1.86-.39 1.047 0 1.875.39.844.375 1.422 1.047.578.672.89 1.594.313.922.313 1.984v.204q0 1.062-.313 1.968-.312.907-.89 1.594-.578.672-1.407 1.063-.828.375-1.859.375-1.047 0-1.89-.375-.829-.391-1.407-1.063-.578-.687-.89-1.594-.313-.906-.313-1.968zm1.688.204q0 .718.171 1.39.172.656.516 1.156.36.5.89.797.532.282 1.235.282.688 0 1.203-.282.531-.297.875-.797.36-.5.531-1.156.172-.672.172-1.39v-.204q0-.718-.187-1.375-.172-.671-.531-1.171-.344-.5-.875-.797-.516-.297-1.22-.297-.702 0-1.218.297t-.875.797q-.344.5-.516 1.171-.171.657-.171 1.375zm9.508-.204q0-1.062.312-1.984.313-.922.89-1.594.579-.672 1.407-1.047.828-.39 1.86-.39 1.046 0 1.874.39.844.375 1.422 1.047.578.672.89 1.594.313.922.313 1.984v.204q0 1.062-.312 1.968-.313.907-.89 1.594-.579.672-1.407 1.063-.828.375-1.86.375-1.046 0-1.89-.375-.828-.391-1.406-1.063-.578-.687-.89-1.594-.313-.906-.313-1.968zm1.687.204q0 .718.172 1.39.172.656.516 1.156.36.5.89.797.532.282 1.235.282.687 0 1.203-.282.531-.297.875-.797.36-.5.531-1.156.172-.672.172-1.39v-.204q0-.718-.188-1.375-.171-.671-.53-1.171-.345-.5-.876-.797-.515-.297-1.219-.297-.703 0-1.218.297-.516.297-.875.797-.344.5-.516 1.171-.172.657-.172 1.375zm12.305-3.829l2.672 3.547v.172l-2.672 3.531h-1.297l2.344-3.625-2.344-3.625zm3 0l2.672 3.547v.172l-2.672 3.531h-1.297l2.344-3.625-2.344-3.625z" fill="#000"/><path d="M270.267 130.962q0 .422-.11.891-.109.469-.312.922-.203.469-.5.89-.281.422-.672.75l-1.047-.578q.438-.64.625-1.359.188-.719.188-1.484v-1.64h1.828z" fill="#e67c73"/><path d="M294.846 121.322q.234 0 .484.015.266 0 .484.032.235.03.422.078.203.047.344.11l-.234 1.64q-.485-.11-.938-.156-.438-.047-.922-.047-1.187 0-1.922.547-.734.53-1.078 1.484v6.328H289.8v-9.86h1.593l.094 1.563q.594-.797 1.438-1.265.843-.47 1.922-.47zm9.086 10.219q-1.032 0-1.907-.36t-1.5-.984q-.609-.64-.953-1.516-.343-.875-.343-1.906v-.39q0-1.188.375-2.126.39-.953 1.015-1.593.64-.657 1.438-1 .812-.344 1.656-.344 1.062 0 1.86.375.796.36 1.327 1.015.532.641.782 1.532.265.875.265 1.906v.75h-7.03q.015.687.25 1.281.233.578.64 1.031.406.438.968.704.563.25 1.25.25.907 0 1.594-.36.703-.375 1.172-.969l1.031.797q-.25.375-.625.72-.36.327-.843.593-.485.265-1.094.422-.61.172-1.328.172zm-.22-8.844q-.515 0-.968.187-.453.188-.812.547-.36.36-.625.89-.25.516-.344 1.204h5.297v-.125q-.016-.5-.188-.984-.156-.485-.468-.86-.297-.39-.766-.625-.469-.234-1.125-.234zm13.618 6.047q0-.313-.125-.547-.125-.235-.406-.438t-.75-.375q-.453-.172-1.14-.297-.86-.187-1.563-.421-.687-.25-1.187-.594-.485-.344-.766-.797-.266-.469-.266-1.078 0-.594.282-1.11.28-.53.78-.921.516-.391 1.22-.61.703-.234 1.562-.234.906 0 1.625.234.734.235 1.25.656.516.407.781.97.282.562.282 1.218h-1.688q0-.328-.172-.625-.156-.313-.453-.547-.281-.234-.703-.375-.406-.156-.922-.156-.547 0-.953.125-.406.11-.672.312-.266.203-.406.47-.14.265-.14.546t.109.516q.109.234.375.421.28.172.734.329.453.14 1.14.265.907.203 1.626.453.718.25 1.203.61.5.343.75.812.265.453.265 1.063 0 .656-.297 1.203-.28.531-.812.922-.531.375-1.266.593-.734.204-1.61.204-1.015 0-1.796-.266-.781-.281-1.328-.719-.531-.437-.828-1.015-.281-.594-.281-1.22h1.687q.031.516.266.876.25.36.609.578.36.219.797.312.437.079.875.079 1.062 0 1.672-.391.625-.39.64-1.031z" fill="#000"/><path d="M328.12 126.056q0 1.313-.203 2.469-.204 1.14-.563 2.125-.344.969-.797 1.766-.437.812-.937 1.437-.5.64-1.016 1.078-.5.453-.953.703l-.344-1.03q.563-.423 1.11-1.173.562-.75 1-1.812.453-1.063.734-2.453.281-1.391.281-3.094v-.125q0-1.703-.297-3.094-.297-1.39-.765-2.453-.453-1.078-1-1.813-.547-.75-1.063-1.171l.344-1.032q.453.25.953.703.516.454 1.016 1.079t.937 1.437q.453.813.797 1.797.36.969.563 2.125.203 1.14.203 2.437zm9.32 4.906q0 .422-.11.891-.108.469-.312.922-.203.469-.5.89-.28.422-.671.75l-1.047-.578q.437-.64.625-1.359.187-.719.187-1.484v-1.64h1.828z" fill="#e67c73"/><path d="M57.62 153.54q-1.031 0-1.906-.359-.875-.36-1.5-.984-.61-.64-.953-1.516-.344-.875-.344-1.906v-.39q0-1.188.375-2.126.39-.953 1.015-1.593.641-.657 1.438-1 .812-.344 1.656-.344 1.063 0 1.86.375.796.36 1.328 1.015.531.641.781 1.532.266.875.266 1.906v.75h-7.032q.016.687.25 1.281.235.578.641 1.031.406.438.969.704.562.25 1.25.25.906 0 1.593-.36.704-.375 1.172-.969l1.032.797q-.25.375-.625.72-.36.327-.844.593-.485.265-1.094.422-.61.172-1.328.172zm-.219-8.843q-.515 0-.969.187-.453.188-.812.547-.36.36-.625.89-.25.516-.344 1.204h5.297v-.125q-.016-.5-.187-.984-.157-.485-.47-.86-.296-.39-.765-.625-.469-.234-1.125-.234zm13.524-1.375q.234 0 .484.015.266 0 .485.032.234.03.422.078.203.047.343.11l-.234 1.64q-.484-.11-.938-.156-.437-.047-.921-.047-1.188 0-1.922.547-.735.53-1.078 1.484v6.328h-1.688v-9.86h1.594l.094 1.563q.593-.797 1.437-1.265.844-.47 1.922-.47zm11.195 0q.235 0 .485.015.265 0 .484.032.235.03.422.078.203.047.344.11l-.235 1.64q-.484-.11-.937-.156-.438-.047-.922-.047-1.187 0-1.922.547-.734.53-1.078 1.484v6.328h-1.687v-9.86h1.593l.094 1.563q.594-.797 1.438-1.265.843-.47 1.921-.47z" fill="#000"/><path d="M106.168 146.244h-8.125v-1.47h8.125zm0 3.78h-8.125v-1.452h8.125zm3.117-4.952v-1.735l8.047 3.438v1.328l-8.047 3.453v-1.75l5.891-2.219.547-.156-.547-.172z" fill="#e67c73"/><path d="M135.63 141.103v2.39h3.75v1.313h-3.75v5.344q0 .578.14.953t.39.594q.266.219.595.312.343.094.718.094.266 0 .547-.031.297-.031.578-.078.282-.047.516-.094.25-.047.406-.094l.235 1.203q-.22.125-.516.22-.297.093-.656.155-.344.078-.75.11-.39.047-.782.047-.656 0-1.234-.188-.562-.187-.984-.594-.422-.406-.672-1.047-.235-.64-.235-1.562v-5.344h-2.578v-1.312h2.578v-2.39zm8.883 3.86q.53-.782 1.297-1.204.78-.437 1.75-.437.78 0 1.406.219.64.218 1.078.703.453.468.687 1.187.25.719.25 1.719v6.203h-1.687v-6.219q0-1.218-.578-1.812-.578-.594-1.656-.578-.813 0-1.47.406-.655.39-1.077 1.047v7.156h-1.688v-14h1.688zm15.977-1.641q.234 0 .484.015.266 0 .484.032.235.03.422.078.203.047.344.11l-.234 1.64q-.485-.11-.938-.156-.437-.047-.922-.047-1.187 0-1.922.547-.734.53-1.078 1.484v6.328h-1.687v-9.86h1.593l.094 1.563q.594-.797 1.438-1.265.843-.47 1.922-.47zm4.258 5.015q0-1.062.312-1.984.313-.922.89-1.594.579-.672 1.407-1.047.828-.39 1.86-.39 1.046 0 1.874.39.844.375 1.422 1.047.578.672.89 1.594.313.922.313 1.984v.204q0 1.062-.312 1.968-.313.907-.89 1.594-.579.672-1.407 1.063-.828.375-1.86.375-1.046 0-1.89-.375-.828-.391-1.406-1.063-.578-.687-.89-1.594-.313-.906-.313-1.968zm1.687.204q0 .718.172 1.39.172.656.516 1.156.359.5.89.797.531.282 1.235.282.687 0 1.203-.282.531-.297.875-.797.36-.5.531-1.156.172-.672.172-1.39v-.204q0-.718-.188-1.375-.172-.671-.53-1.171-.345-.5-.876-.797-.516-.297-1.219-.297-.703 0-1.218.297-.516.297-.875.797-.344.5-.516 1.171-.172.657-.172 1.375zm11.477 1.234l.203 1.422.25-1.422 1.563-6.281h1.093l1.563 6.28.265 1.563.25-1.562 1.094-6.281h1.485l-2.094 9.86h-1.328l-1.532-6.048-.265-1.515-.235 1.515-1.53 6.047h-1.329l-2.094-9.86h1.5z" fill="#78909c"/><path d="M189.28 147.962q0-1.296.202-2.437.204-1.156.547-2.125.36-.984.797-1.797.453-.812.953-1.437.5-.625 1-1.079.5-.453.953-.703l.36 1.11q-.563.437-1.125 1.172-.563.734-1 1.796-.438 1.047-.719 2.422-.281 1.36-.281 3.063v.125q0 1.703.281 3.094.281 1.375.719 2.421.437 1.063 1 1.813.562.75 1.125 1.203l-.36 1.031q-.453-.25-.968-.703-.5-.437-1-1.078-.485-.625-.938-1.437-.453-.797-.797-1.766-.343-.984-.547-2.125-.203-1.156-.203-2.469z" fill="#e67c73"/><path d="M200.46 148.337l2.343 3.625h-1.281l-2.688-3.53v-.173l2.688-3.547h1.281zm3 0l2.343 3.625h-1.281l-2.688-3.53v-.173l2.688-3.547h1.281zm9.054 5.016v-8.547h-2.703v-1.312h2.703v-.688q0-.953.281-1.656.282-.719.782-1.203.515-.485 1.218-.735.72-.25 1.594-.25.594 0 1.156.11.579.094 1.172.25l-.187 1.39q-.375-.125-.875-.218-.5-.094-1.063-.094-1.187.016-1.78.61-.595.577-.595 1.796v.688h3.797v1.312h-3.797v8.547zm8.22-5.016q0-1.062.313-1.984.313-.922.89-1.594.579-.672 1.407-1.047.828-.39 1.86-.39 1.046 0 1.874.39.844.375 1.422 1.047.578.672.89 1.594.313.922.313 1.984v.204q0 1.062-.312 1.968-.313.907-.89 1.594-.579.672-1.407 1.063-.828.375-1.86.375-1.046 0-1.89-.375-.828-.391-1.406-1.063-.578-.687-.891-1.594-.312-.906-.312-1.968zm1.688.204q0 .718.172 1.39.172.656.516 1.156.359.5.89.797.531.282 1.235.282.687 0 1.203-.282.53-.297.875-.797.359-.5.53-1.156.173-.672.173-1.39v-.204q0-.718-.188-1.375-.172-.671-.531-1.171-.344-.5-.875-.797-.516-.297-1.219-.297-.703 0-1.218.297-.516.297-.875.797-.344.5-.516 1.171-.172.657-.172 1.375zm9.508-.204q0-1.062.313-1.984.312-.922.89-1.594.578-.672 1.406-1.047.829-.39 1.86-.39 1.047 0 1.875.39.844.375 1.422 1.047.578.672.89 1.594.313.922.313 1.984v.204q0 1.062-.313 1.968-.312.907-.89 1.594-.578.672-1.407 1.063-.828.375-1.859.375-1.047 0-1.89-.375-.829-.391-1.407-1.063-.578-.687-.89-1.594-.313-.906-.313-1.968zm1.688.204q0 .718.171 1.39.172.656.516 1.156.36.5.89.797.532.282 1.235.282.688 0 1.203-.282.531-.297.875-.797.36-.5.531-1.156.172-.672.172-1.39v-.204q0-.718-.187-1.375-.172-.671-.531-1.171-.344-.5-.875-.797-.516-.297-1.22-.297-.702 0-1.218.297t-.875.797q-.344.5-.516 1.171-.171.657-.171 1.375zm12.305-3.829l2.671 3.547v.172l-2.671 3.531h-1.297l2.343-3.625-2.343-3.625zm3 0l2.671 3.547v.172l-2.671 3.531h-1.297l2.343-3.625-2.343-3.625z" fill="#000"/><path d="M259.071 152.962q0 .422-.11.891-.108.469-.312.922-.203.469-.5.89-.28.422-.671.75l-1.047-.578q.437-.64.625-1.359.187-.719.187-1.484v-1.64h1.828z" fill="#e67c73"/><path d="M281.54 153.54q-1.03 0-1.906-.359-.875-.36-1.5-.984-.61-.64-.953-1.516-.344-.875-.344-1.906v-.39q0-1.188.375-2.126.391-.953 1.016-1.593.64-.657 1.438-1 .812-.344 1.656-.344 1.062 0 1.86.375.796.36 1.327 1.015.532.641.782 1.532.265.875.265 1.906v.75h-7.031q.016.687.25 1.281.234.578.64 1.031.407.438.97.704.562.25 1.25.25.906 0 1.593-.36.703-.375 1.172-.969l1.031.797q-.25.375-.625.72-.36.327-.844.593-.484.265-1.093.422-.61.172-1.328.172zm-.218-8.843q-.516 0-.969.187-.453.188-.812.547-.36.36-.625.89-.25.516-.344 1.204h5.297v-.125q-.016-.5-.188-.984-.156-.485-.469-.86-.296-.39-.765-.625-.469-.234-1.125-.234zm13.523-1.375q.235 0 .485.015.265 0 .484.032.235.03.422.078.203.047.344.11l-.235 1.64q-.484-.11-.937-.156-.438-.047-.922-.047-1.187 0-1.922.547-.734.53-1.078 1.484v6.328H289.8v-9.86h1.593l.094 1.563q.594-.797 1.438-1.265.843-.47 1.921-.47zm11.196 0q.234 0 .484.015.266 0 .485.032.234.03.422.078.203.047.343.11l-.234 1.64q-.484-.11-.937-.156-.438-.047-.922-.047-1.188 0-1.922.547-.735.53-1.078 1.484v6.328h-1.688v-9.86h1.594l.094 1.563q.593-.797 1.437-1.265.844-.47 1.922-.47z" fill="#000"/><path d="M316.924 148.056q0 1.313-.203 2.469-.203 1.14-.562 2.125-.344.969-.797 1.766-.438.812-.938 1.437-.5.64-1.015 1.078-.5.453-.954.703l-.343-1.03q.562-.423 1.109-1.173.563-.75 1-1.812.453-1.063.734-2.453.282-1.391.282-3.094v-.125q0-1.703-.297-3.094-.297-1.39-.766-2.453-.453-1.078-1-1.813-.547-.75-1.062-1.171l.343-1.032q.454.25.954.703.515.454 1.015 1.079.5.625.938 1.437.453.813.797 1.797.359.969.562 2.125.203 1.14.203 2.437zm9.32 4.906q0 .422-.109.891-.109.469-.312.922-.203.469-.5.89-.281.422-.672.75l-1.047-.578q.438-.64.625-1.359.188-.719.188-1.484v-1.64h1.828z" fill="#e67c73"/><path d="M58.276 163.103l-.422 2.39h3.641l-.219 1.313h-3.64l-.891 5.36q-.047.406 0 .75.047.343.203.609.156.25.438.406.296.14.734.156.5.016.984-.078.5-.093 1-.203l.157 1.219q-.579.312-1.282.406-.703.11-1.343.094-.75-.016-1.266-.281-.5-.282-.813-.735-.296-.468-.421-1.062-.11-.61-.047-1.297l.89-5.344h-2.515l.234-1.312h2.5l.422-2.39zm7.965 3.875q.297-.375.641-.672.36-.312.75-.531.406-.219.844-.344.437-.125.937-.11.828.016 1.391.345.578.312.906.843.328.516.438 1.203.11.688.015 1.438l-1.03 6.203h-1.657l1.047-6.234q.062-.485 0-.907-.047-.421-.25-.734-.203-.328-.563-.516-.344-.187-.875-.203-.422-.015-.797.094-.375.094-.718.297-.344.203-.657.469-.297.25-.547.562l-1.25 7.172H63.21l2.438-14h1.656zm15.825-1.687q.438.015.875.062.438.047.86.203l-.422 1.64q-.438-.093-.875-.155-.438-.063-.891-.079-1.14-.015-1.969.532-.812.53-1.36 1.53l-1.093 6.33h-1.656l1.703-9.86h1.578l-.281 1.562q.344-.39.734-.719.39-.328.828-.562.438-.234.922-.36.5-.124 1.047-.124zm3.465 5.109q.078-.672.282-1.313.218-.64.53-1.203.313-.578.75-1.047.438-.484.97-.828.53-.343 1.156-.53.64-.188 1.375-.157 1.031.015 1.765.453.735.437 1.172 1.14.453.688.625 1.579.172.89.063 1.812l-.016.203q-.125 1-.531 1.922-.406.922-1.063 1.625-.64.688-1.515 1.094-.875.406-1.953.39-1.032-.03-1.766-.453-.734-.421-1.187-1.109-.438-.703-.61-1.578-.172-.875-.078-1.797zm1.625.203q-.047.375-.047.797.016.406.079.797.062.39.203.75.156.344.39.625.25.265.594.437.36.157.844.172.75.031 1.328-.297.594-.328 1-.86.422-.53.656-1.187.25-.671.36-1.328l.015-.187q.063-.578.016-1.203-.031-.64-.266-1.172-.234-.531-.672-.875-.422-.36-1.14-.375-.766-.031-1.36.297-.578.328-.984.875-.406.53-.656 1.203-.25.672-.328 1.328zm10.981 1.281l-.062 1.25.5-1.437 2.593-6.203h1.063l.422 6.39-.016 1.407.485-1.438 2.171-6.36h1.5l-3.75 9.86h-1.28l-.454-6.125.016-1.406-.532 1.578-2.484 5.953h-1.297l-.328-9.86h1.422zm15.247 3.47q-.063-.267-.063-.532 0-.266.031-.547-.656.578-1.421.922-.75.344-1.641.328-.61-.016-1.172-.203-.547-.203-.953-.563-.406-.375-.625-.89-.219-.516-.188-1.172.032-.64.25-1.125.235-.5.579-.86.359-.375.828-.625.468-.265.984-.421.531-.157 1.078-.22.563-.077 1.11-.077l1.89.015.11-.797q.062-.453-.063-.812-.125-.36-.39-.594-.25-.25-.626-.375-.359-.14-.812-.14-.39-.016-.766.078-.375.093-.687.28-.313.188-.547.485-.219.297-.313.72h-1.656q.094-.75.485-1.298.406-.547.984-.906.594-.375 1.297-.547.703-.187 1.375-.172.75.016 1.39.235.657.218 1.11.64.453.422.687 1.031.25.61.157 1.407l-.75 4.578q-.094.5-.094 1.015 0 .5.11.985l-.016.156zm-2.766-1.282q.875.031 1.625-.39.75-.423 1.266-1.11l.36-2-1.423-.016q-.5 0-1.078.063-.562.062-1.062.265t-.86.578q-.344.375-.422.985-.047.39.047.703.11.297.328.5.22.203.532.312.312.11.687.11zm9.418-2.188l-.062 1.25.5-1.437 2.594-6.203h1.062l.422 6.39-.016 1.407.485-1.438 2.172-6.36h1.5l-3.75 9.86h-1.282l-.453-6.125.016-1.406-.531 1.578-2.485 5.953h-1.297l-.328-9.86h1.422zm15.247 3.47q-.063-.267-.063-.532 0-.266.032-.547-.657.578-1.422.922-.75.344-1.64.328-.61-.016-1.173-.203-.547-.203-.953-.563-.406-.375-.625-.89-.219-.516-.187-1.172.03-.64.25-1.125.234-.5.578-.86.36-.375.828-.625.469-.265.984-.421.532-.157 1.078-.22.563-.077 1.11-.077l1.89.015.11-.797q.062-.453-.063-.812-.125-.36-.39-.594-.25-.25-.625-.375-.36-.14-.813-.14-.39-.016-.765.078-.375.093-.688.28-.312.188-.547.485-.219.297-.312.72h-1.657q.094-.75.485-1.298.406-.547.984-.906.594-.375 1.297-.547.703-.187 1.375-.172.75.016 1.39.235.657.218 1.11.64.453.422.688 1.031.25.61.156 1.407l-.75 4.578q-.094.5-.094 1.015 0 .5.11.985l-.016.156zm-2.766-1.282q.875.031 1.625-.39.75-.423 1.266-1.11l.36-2-1.423-.016q-.5 0-1.078.063-.562.062-1.062.265t-.86.578q-.343.375-.421.985-.047.39.046.703.11.297.329.5.218.203.53.312.313.11.688.11zm11.466-2.14l.187 1.093 4.234-7.531h1.922l-6.812 11.39q-.281.47-.625.907-.344.453-.781.796-.422.36-.922.563-.5.219-1.094.219-.266 0-.531-.063l-.532-.094.375-1.39q.188.015.391.047.203.03.39.03.36-.015.657-.187.312-.156.547-.406.25-.234.453-.531.203-.297.375-.563l.937-1.421-2.468-9.297h1.75z" fill="#595959"/><path d="M157.963 170.056q0 1.313-.203 2.469-.203 1.14-.562 2.125-.344.969-.797 1.766-.438.812-.938 1.437-.5.64-1.015 1.078-.5.453-.953.703l-.344-1.03q.562-.423 1.11-1.173.562-.75 1-1.812.452-1.063.734-2.453.28-1.391.28-3.094v-.125q0-1.703-.296-3.094-.297-1.39-.766-2.453-.453-1.078-1-1.813-.546-.75-1.062-1.171l.344-1.032q.453.25.953.703.515.454 1.015 1.079.5.625.938 1.437.453.813.797 1.797.36.969.562 2.125.203 1.14.203 2.437zm7.977-3.797q0-.265.078-.5.094-.25.25-.422.172-.187.422-.28.25-.095.578-.095.328 0 .578.094.25.094.407.281.172.172.25.422.093.235.093.5 0 .266-.093.5-.078.235-.25.407-.157.171-.407.265-.25.094-.578.094-.328 0-.578-.094-.25-.094-.422-.265-.156-.172-.25-.407-.078-.234-.078-.5zm2.344 8.703q0 .422-.11.891-.109.469-.312.922-.203.469-.5.89-.281.422-.672.75l-1.047-.578q.438-.64.625-1.359.188-.719.188-1.484v-1.64h1.828z" fill="#e67c73"/><path d="M32.37 193.775l.203 1.422.25-1.422 1.562-6.281h1.094l1.562 6.28.266 1.563.25-1.562 1.094-6.281h1.484l-2.094 9.86h-1.328l-1.531-6.048-.266-1.515-.234 1.515-1.531 6.047h-1.328l-2.094-9.86h1.5z" fill="#000"/><path d="M61.386 190.244H53.26v-1.47h8.125zm0 3.78H53.26v-1.452h8.125z" fill="#e67c73"/><path d="M82.214 194.744q0-.313-.125-.547-.125-.235-.406-.438t-.75-.375q-.453-.172-1.14-.297-.86-.187-1.563-.421-.688-.25-1.188-.594-.484-.344-.765-.797-.266-.469-.266-1.078 0-.594.281-1.11.282-.53.782-.921.515-.391 1.218-.61.704-.234 1.563-.234.906 0 1.625.234.734.235 1.25.656.516.407.781.97.281.562.281 1.218h-1.687q0-.328-.172-.625-.156-.313-.453-.547-.281-.234-.703-.375-.406-.156-.922-.156-.547 0-.953.125-.406.11-.672.312-.266.203-.406.47-.141.265-.141.546t.11.516q.109.234.374.421.282.172.735.329.453.14 1.14.265.907.203 1.625.453.72.25 1.204.61.5.343.75.812.265.453.265 1.063 0 .656-.297 1.203-.281.531-.812.922-.531.375-1.266.593-.734.204-1.61.204-1.015 0-1.796-.266-.781-.281-1.328-.719-.531-.437-.828-1.015-.282-.594-.282-1.22h1.688q.031.516.266.876.25.36.609.578.36.219.797.312.437.079.875.079 1.062 0 1.672-.391.625-.39.64-1.031zm11.04 1.25q-.5.734-1.235 1.14-.734.407-1.703.407-.781 0-1.406-.235-.625-.25-1.078-.765-.438-.516-.688-1.297-.234-.782-.234-1.89v-5.86h1.687v5.875q0 .812.125 1.343.125.516.375.829.266.312.625.453.375.125.86.125 1.03 0 1.656-.422.64-.422.953-1.125v-7.078h1.688v9.86h-1.532zm11.351-1.25q0-.313-.125-.547-.125-.235-.406-.438t-.75-.375q-.453-.172-1.14-.297-.86-.187-1.563-.421-.687-.25-1.187-.594-.485-.344-.766-.797-.266-.469-.266-1.078 0-.594.282-1.11.28-.53.78-.921.516-.391 1.22-.61.703-.234 1.562-.234.906 0 1.625.234.734.235 1.25.656.516.407.781.97.282.562.282 1.218h-1.688q0-.328-.172-.625-.156-.313-.453-.547-.281-.234-.703-.375-.406-.156-.922-.156-.547 0-.953.125-.406.11-.672.312-.266.203-.406.47-.14.265-.14.546t.109.516q.109.234.375.421.28.172.734.329.453.14 1.14.265.907.203 1.626.453.718.25 1.203.61.5.343.75.812.265.453.265 1.063 0 .656-.297 1.203-.28.531-.812.922-.531.375-1.266.593-.734.204-1.61.204-1.015 0-1.796-.266-.781-.281-1.328-.719-.531-.437-.828-1.015-.281-.594-.281-1.22h1.687q.031.516.266.876.25.36.609.578.36.219.797.312.437.079.875.079 1.062 0 1.672-.391.625-.39.64-1.031zm12.962-2.203q0 1.046-.266 1.968-.25.907-.75 1.594-.484.672-1.219 1.063-.719.375-1.64.375-.907 0-1.594-.297-.688-.297-1.172-.844v4.75h-1.688v-13.656h1.532l.093 1.078q.485-.61 1.172-.922.703-.328 1.625-.328.953 0 1.672.375.735.36 1.219 1.031.5.656.75 1.594.266.922.266 2.015zm-1.688-.204q0-.718-.172-1.359-.156-.656-.484-1.156-.328-.5-.844-.781-.5-.297-1.219-.297-.812 0-1.359.375-.547.375-.875.968v4.75q.328.579.875.954.547.375 1.375.375.703 0 1.203-.297.516-.297.844-.797.328-.5.484-1.156.172-.657.172-1.375zm8.914 5.204q-1.03 0-1.906-.36-.875-.36-1.5-.984-.61-.64-.953-1.516-.344-.875-.344-1.906v-.39q0-1.188.375-2.126.39-.953 1.016-1.593.64-.657 1.437-1 .813-.344 1.657-.344 1.062 0 1.859.375.797.36 1.328 1.015.531.641.781 1.532.266.875.266 1.906v.75h-7.031q.015.687.25 1.281.234.578.64 1.031.407.438.97.704.562.25 1.25.25.905 0 1.593-.36.703-.375 1.172-.969l1.031.797q-.25.375-.625.72-.36.327-.844.593-.484.265-1.093.422-.61.172-1.329.172zm-.218-8.844q-.516 0-.97.187-.452.188-.812.547-.359.36-.625.89-.25.516-.343 1.204h5.297v-.125q-.016-.5-.188-.984-.156-.485-.469-.86-.297-.39-.765-.625-.47-.234-1.125-.234zm8.57-1.203l.125 1.453q.531-.766 1.313-1.188.781-.437 1.75-.437.781 0 1.406.219.64.218 1.078.687.453.453.688 1.172.25.719.25 1.687v6.266h-1.688v-6.219q0-.656-.156-1.109-.14-.453-.422-.734-.281-.297-.703-.422-.406-.125-.953-.125-.844 0-1.485.422-.64.421-1.03 1.125v7.062h-1.688v-9.86zm9.368 4.843q0-1.093.28-2.015.282-.938.782-1.594.516-.672 1.25-1.031.735-.375 1.625-.375t1.547.297q.672.28 1.14.86v-5.126h1.688v14h-1.547l-.062-1.031q-.5.594-1.188.906-.672.313-1.593.313-.891 0-1.625-.375-.72-.391-1.235-1.063-.5-.687-.781-1.594-.281-.922-.281-1.968zm1.687.204q0 .718.156 1.359.157.64.47 1.14.327.485.827.782.5.281 1.203.281.438 0 .782-.094.343-.109.625-.297.28-.187.5-.437.218-.266.375-.578v-4.578q-.328-.594-.89-.985-.548-.39-1.376-.39-.703 0-1.219.297-.5.28-.828.78-.312.5-.469 1.157-.156.64-.156 1.36z" fill="#78909c"/><path d="M155.693 191.962q0-1.296.203-2.437.203-1.156.547-2.125.359-.984.797-1.797.453-.812.953-1.437.5-.625 1-1.079.5-.453.953-.703l.36 1.11q-.563.437-1.126 1.172-.562.734-1 1.796-.437 1.047-.719 2.422-.28 1.36-.28 3.063v.125q0 1.703.28 3.094.282 1.375.72 2.421.437 1.063 1 1.813.562.75 1.124 1.203l-.36 1.031q-.452-.25-.968-.703-.5-.437-1-1.078-.484-.625-.937-1.437-.454-.797-.797-1.766-.344-.984-.547-2.125-.203-1.156-.203-2.469z" fill="#e67c73"/><path d="M166.873 192.337l2.343 3.625h-1.28l-2.688-3.53v-.173l2.687-3.547h1.281zm3 0l2.343 3.625h-1.28l-2.688-3.53v-.173l2.687-3.547h1.281zm9.055 5.016v-8.547h-2.704v-1.312h2.704v-.688q0-.953.28-1.656.282-.719.782-1.203.516-.485 1.219-.735.719-.25 1.594-.25.593 0 1.156.11.578.094 1.172.25l-.188 1.39q-.375-.125-.875-.218-.5-.094-1.062-.094-1.188.016-1.782.61-.593.577-.593 1.796v.688h3.797v1.312h-3.797v8.547zm8.22-5.016q0-1.062.312-1.984.313-.922.89-1.594.58-.672 1.407-1.047.828-.39 1.86-.39 1.046 0 1.875.39.843.375 1.421 1.047.579.672.891 1.594.313.922.313 1.984v.204q0 1.062-.313 1.968-.312.907-.89 1.594-.579.672-1.407 1.063-.828.375-1.86.375-1.046 0-1.89-.375-.828-.391-1.406-1.063-.578-.687-.89-1.594-.313-.906-.313-1.968zm1.687.204q0 .718.172 1.39.172.656.516 1.156.36.5.89.797.532.282 1.235.282.687 0 1.203-.282.531-.297.875-.797.36-.5.531-1.156.172-.672.172-1.39v-.204q0-.718-.187-1.375-.172-.671-.532-1.171-.343-.5-.875-.797-.515-.297-1.218-.297-.704 0-1.22.297-.515.297-.874.797-.344.5-.516 1.171-.172.657-.172 1.375zm9.508-.204q0-1.062.313-1.984.312-.922.89-1.594.579-.672 1.407-1.047.828-.39 1.86-.39 1.046 0 1.874.39.844.375 1.422 1.047.578.672.89 1.594.313.922.313 1.984v.204q0 1.062-.312 1.968-.313.907-.891 1.594-.578.672-1.406 1.063-.828.375-1.86.375-1.046 0-1.89-.375-.828-.391-1.406-1.063-.579-.687-.891-1.594-.313-.906-.313-1.968zm1.688.204q0 .718.172 1.39.172.656.515 1.156.36.5.891.797.531.282 1.234.282.688 0 1.204-.282.53-.297.875-.797.359-.5.53-1.156.173-.672.173-1.39v-.204q0-.718-.188-1.375-.172-.671-.531-1.171-.344-.5-.875-.797-.516-.297-1.219-.297-.703 0-1.219.297-.515.297-.875.797-.343.5-.515 1.171-.172.657-.172 1.375zm12.305-3.829l2.672 3.547v.172l-2.672 3.531h-1.297l2.344-3.625-2.344-3.625zm3 0l2.672 3.547v.172l-2.672 3.531h-1.297l2.344-3.625-2.344-3.625z" fill="#000"/><path d="M225.485 196.962q0 .422-.11.891-.11.469-.312.922-.203.469-.5.89-.282.422-.672.75l-1.047-.578q.437-.64.625-1.359.187-.719.187-1.484v-1.64h1.829z" fill="#e67c73"/><path d="M244.563 187.494h4.906l-1.453 8.406h3.125l-.265 1.453h-8.016l.266-1.453h3.234l1.203-6.938h-3.25zm3.5-2.563q0-.437.266-.719.281-.28.719-.312.218 0 .39.078.188.063.313.203.14.125.203.313.062.172.062.39 0 .438-.28.703-.267.266-.704.282-.422.03-.703-.235-.266-.265-.266-.703zm7.95 2.563l-.188.937q.39-.531.875-.828.5-.297 1.14-.281.298 0 .548.062.25.047.469.172.218.125.375.328.156.203.234.485.39-.485.875-.766.484-.281 1.11-.281.577 0 .952.234.391.219.594.61.219.375.281.859.079.469.032.969l-1.22 7.36h-1.577l1.25-7.392q.015-.25-.016-.468-.015-.235-.11-.39-.093-.173-.28-.267-.188-.109-.47-.109-.5 0-.859.281-.359.266-.5.75l-1.28 7.594h-1.579l1.25-7.39q.031-.25 0-.47-.016-.218-.11-.374-.093-.172-.265-.266-.172-.094-.453-.11-.453-.015-.781.188-.313.203-.547.563l-1.36 7.86h-1.562l1.703-9.86h1.469zm17.403 4.984q-.11.906-.438 1.828-.312.906-.875 1.64-.547.72-1.344 1.173-.78.437-1.828.422-.75-.016-1.422-.282-.656-.265-1.14-.859l-.89 4.75h-1.642l2.36-13.656h1.5l-.172 1.078q.578-.625 1.281-.953.719-.328 1.594-.297.672.015 1.172.234.5.219.86.594.359.36.577.844.22.484.328 1.03.125.548.141 1.126.016.578-.047 1.125zm-1.625-.203q.062-.547.03-1.156-.03-.625-.25-1.14-.202-.517-.624-.86-.422-.36-1.125-.375-.781-.016-1.375.36-.594.374-1.047.983l-.828 4.766q.547 1.266 1.937 1.313.766.015 1.328-.313.579-.328.97-.86.405-.53.64-1.202.234-.672.328-1.313zm6.34-8.922h4.906l-2.172 12.547h3.125l-.265 1.453h-8.016l.266-1.453h3.234l1.922-11.078h-3.266zm10.23 4.14h4.907l-1.453 8.407h3.125l-.266 1.453h-8.015l.265-1.453h3.235l1.203-6.938h-3.25zm3.5-2.562q0-.437.266-.719.282-.28.719-.312.219 0 .39.078.188.063.313.203.14.125.203.313.063.172.063.39 0 .438-.281.703-.266.266-.704.282-.421.03-.703-.235-.265-.265-.265-.703zm9.763 11.25q.437 0 .875-.125.437-.14.797-.39.359-.25.609-.61.266-.36.36-.797l1.562-.015q-.078.765-.5 1.375-.406.61-1.016 1.047-.593.437-1.328.671-.719.22-1.437.204-1.032-.032-1.766-.438-.734-.422-1.187-1.094-.438-.687-.61-1.562-.156-.875-.062-1.797l.047-.39q.078-.673.28-1.298.22-.625.532-1.187.328-.563.766-1.016.437-.468.968-.78.547-.33 1.172-.5.625-.188 1.344-.157.75.015 1.39.297.657.265 1.11.734.469.469.719 1.125.25.64.203 1.422l-1.547-.016q.016-.453-.11-.843-.124-.391-.39-.688-.25-.297-.625-.469t-.844-.187q-.765-.031-1.343.281-.579.297-.985.813-.406.5-.656 1.156-.25.64-.344 1.312l-.047.375q-.047.391-.047.813 0 .406.063.797.078.375.219.734.14.344.39.61.25.25.594.421.36.157.844.172zm8.637-8.687h4.906l-1.453 8.406h3.125l-.266 1.453h-8.015l.265-1.453h3.235l1.203-6.938h-3.25zm3.5-2.563q0-.437.266-.719.28-.28.718-.312.219 0 .39.078.188.063.313.203.141.125.204.313.062.172.062.39 0 .438-.281.703-.266.266-.703.282-.422.03-.703-.235-.266-.265-.266-.703zm11.496.172l-.421 2.39h3.64l-.219 1.313h-3.64l-.89 5.36q-.048.406 0 .75.046.343.202.609.157.25.438.406.297.14.734.156.5.016.985-.078.5-.093 1-.203l.156 1.219q-.578.312-1.281.406-.704.11-1.344.094-.75-.016-1.266-.281-.5-.282-.812-.735-.297-.468-.422-1.062-.11-.61-.047-1.297l.89-5.344h-2.515l.234-1.312h2.5l.422-2.39zm12.653 13.625h-8.11l.235-1.375h8.11zm12.153-6.25q-.11.906-.438 1.828-.312.906-.875 1.64-.547.72-1.343 1.173-.782.437-1.829.422-.75-.016-1.421-.282-.657-.265-1.141-.859l-.89 4.75h-1.641l2.36-13.656h1.5l-.173 1.078q.578-.625 1.281-.953.72-.328 1.594-.297.672.015 1.172.234.5.219.86.594.359.36.578.844.218.484.328 1.03.125.548.14 1.126.016.578-.047 1.125zm-1.625-.203q.062-.547.031-1.156-.031-.625-.25-1.14-.203-.517-.625-.86-.422-.36-1.125-.375-.781-.016-1.375.36-.594.374-1.047.983l-.828 4.766q.547 1.266 1.938 1.313.765.015 1.328-.313.578-.328.968-.86.407-.53.641-1.202.234-.672.328-1.313zm11.559-4.984q.437.015.875.062.437.047.86.203l-.423 1.64q-.437-.093-.875-.155-.437-.063-.89-.079-1.14-.015-1.969.532-.813.53-1.36 1.53l-1.093 6.33h-1.656l1.703-9.86h1.578l-.281 1.562q.343-.39.734-.719.39-.328.828-.562.438-.234.922-.36.5-.124 1.047-.124zm3.465 5.109q.078-.672.281-1.313.22-.64.532-1.203.312-.578.75-1.047.437-.484.968-.828.532-.343 1.157-.53.64-.188 1.375-.157 1.03.015 1.765.453.735.437 1.172 1.14.453.688.625 1.579.172.89.063 1.812l-.016.203q-.125 1-.531 1.922-.407.922-1.063 1.625-.64.688-1.515 1.094-.875.406-1.954.39-1.03-.03-1.765-.453-.735-.421-1.188-1.109-.437-.703-.609-1.578-.172-.875-.078-1.797zm1.625.203q-.047.375-.047.797.016.406.078.797.063.39.203.75.157.344.391.625.25.265.594.437.36.157.844.172.75.031 1.328-.297.593-.328 1-.859.422-.531.656-1.188.25-.671.36-1.328l.015-.187q.062-.578.016-1.203-.032-.64-.266-1.172-.234-.531-.672-.875-.422-.36-1.14-.375-.766-.031-1.36.297-.578.328-.984.875-.407.53-.657 1.203-.25.672-.328 1.328zm11.372-5.11l-.188.938q.39-.531.875-.828.5-.297 1.14-.281.298 0 .548.062.25.047.468.172.22.125.375.328.157.203.235.485.39-.485.875-.766.484-.281 1.11-.281.577 0 .952.234.39.219.594.61.219.375.281.859.078.469.031.969l-1.218 7.36h-1.578l1.25-7.392q.015-.25-.016-.468-.016-.235-.11-.39-.093-.173-.28-.267-.188-.109-.47-.109-.5 0-.859.281-.36.266-.5.75l-1.281 7.594h-1.578l1.25-7.39q.031-.25 0-.47-.016-.218-.11-.374-.093-.172-.265-.266-.172-.094-.453-.11-.453-.015-.782.188-.312.203-.546.563l-1.36 7.86h-1.562l1.703-9.86zm10.45 0h4.905l-1.453 8.407h3.125l-.265 1.453h-8.016l.266-1.453h3.234l1.203-6.938h-3.25zm3.5-2.562q0-.437.265-.719.281-.28.719-.312.218 0 .39.078.188.063.313.203.14.125.203.313.062.172.062.39 0 .438-.28.703-.267.266-.704.282-.422.03-.703-.235-.266-.265-.266-.703zm12.355 9.75q.047-.422-.14-.687-.188-.282-.5-.453-.313-.172-.688-.282-.375-.109-.672-.172-.547-.14-1.14-.343-.594-.203-1.094-.516-.485-.328-.797-.797-.297-.484-.266-1.172.016-.5.203-.906.188-.422.485-.75t.687-.578q.406-.25.844-.406.437-.157.89-.235.47-.078.922-.062.688.015 1.329.219.64.187 1.125.578.484.39.765.968.281.563.281 1.313h-1.64q0-.422-.156-.719-.141-.312-.422-.531-.266-.219-.625-.328-.344-.11-.72-.11-.374-.015-.765.079-.375.078-.718.25-.329.171-.579.468-.234.282-.28.688-.063.422.124.687.188.25.485.407.312.156.671.25.36.078.657.14.375.094.765.219.407.11.782.281.39.156.734.375t.594.5q.25.281.375.656.14.375.125.844-.032.797-.438 1.375-.406.563-1.015.922-.594.36-1.329.531-.718.172-1.406.157-.734-.016-1.422-.22-.672-.218-1.203-.624-.515-.406-.844-1-.312-.594-.296-1.39l1.64.015q.016.469.188.812.172.344.453.578.297.22.687.344.407.11.844.11.36 0 .766-.063.422-.078.78-.25.376-.172.626-.453.266-.297.328-.719zm8.418 2.86q-1-.032-1.765-.422-.766-.39-1.266-1.032-.484-.64-.703-1.484-.203-.86-.125-1.812l.047-.391q.078-.64.281-1.266.219-.64.547-1.203.328-.578.766-1.062.453-.485.984-.828.547-.36 1.172-.547.64-.203 1.344-.172 1.015.015 1.718.437.704.407 1.11 1.094.422.672.547 1.531.14.86.015 1.766l-.11.75h-6.78q-.078.61.03 1.187.11.563.407 1.032.297.453.781.734.485.281 1.141.297.86.031 1.578-.328.735-.375 1.313-.969l.953.797q-.344.469-.797.828-.453.36-.969.61-.515.234-1.078.343-.562.11-1.14.11zm1.204-8.844q-.641-.031-1.157.219-.5.234-.906.64-.39.406-.687.922-.282.516-.485 1.047l5.14.016.048-.157q.078-.515-.016-.984t-.36-.844q-.25-.375-.656-.61-.39-.234-.921-.25z" fill="#595959"/><path d="M424.945 192.056q0 1.313-.204 2.469-.203 1.14-.562 2.125-.344.969-.797 1.766-.437.812-.937 1.437-.5.64-1.016 1.078-.5.453-.953.703l-.344-1.03q.563-.423 1.11-1.173.562-.75 1-1.812.453-1.063.734-2.453.281-1.391.281-3.094v-.125q0-1.703-.297-3.094-.297-1.39-.765-2.453-.454-1.078-1-1.813-.547-.75-1.063-1.171l.344-1.032q.453.25.953.703.516.454 1.016 1.079t.937 1.437q.453.813.797 1.797.36.969.562 2.125.204 1.14.204 2.437zm7.976-3.797q0-.265.078-.5.094-.25.25-.422.172-.187.422-.28.25-.095.578-.095.329 0 .579.094.25.094.406.281.172.172.25.422.094.235.094.5 0 .266-.094.5-.078.235-.25.407-.156.171-.406.265t-.579.094q-.328 0-.578-.094-.25-.094-.422-.265-.156-.172-.25-.407-.078-.234-.078-.5zm2.344 8.703q0 .422-.11.891-.109.469-.312.922-.203.469-.5.89-.281.422-.672.75l-1.047-.578q.438-.64.625-1.359.188-.719.188-1.484v-1.64h1.828z" fill="#e67c73"/></g></svg>