<svg fill="none" stroke-linecap="square" stroke-miterlimit="10" viewBox="0 0 832.507 286.244" xmlns="http://www.w3.org/2000/svg"><clipPath id="a"><path d="M0 0h832.507v286.244H0z"/></clipPath><g clip-path="url(#a)"><path d="M0 0h832.507v286.244H0z"/><path d="M28.336 82.86h137.433l34.976 34.977-34.976 34.977H28.336l34.976-34.977z" fill="#3d85c6" fill-rule="evenodd"/><path d="M28.336 82.86h137.433l34.976 34.977-34.976 34.977H28.336l34.976-34.977z" stroke="#3d85c6" stroke-linecap="butt" stroke-linejoin="round"/><path d="M233.444 71.207h563.401"/><path d="M233.444 71.207h563.401" stroke="#595959" stroke-linecap="butt" stroke-linejoin="round"/><path d="M233.444 164.467h563.401"/><path d="M233.444 164.467h563.401" stroke="#595959" stroke-linecap="butt" stroke-linejoin="round"/><path d="M233.444 221.129h563.401"/><g fill-rule="evenodd"><path d="M233.444 221.129h563.401" stroke="#595959" stroke-linecap="butt" stroke-linejoin="round"/><path d="M360.932 173.066h47.092v32.887a6.578 6.578 0 0 1-6.578 6.577h-47.092v-32.887a6.578 6.578 0 0 1 6.578-6.577z" fill="#674ea7"/><path d="M360.932 173.066h47.092v32.887a6.578 6.578 0 0 1-6.578 6.577h-47.092v-32.887a6.578 6.578 0 0 1 6.578-6.577z" stroke="#38761d" stroke-linecap="butt" stroke-linejoin="round"/><path d="M425.727 173.066h47.092v32.887a6.578 6.578 0 0 1-6.578 6.577H419.15v-32.887a6.578 6.578 0 0 1 6.577-6.577z" fill="#674ea7"/><path d="M425.727 173.066h47.092v32.887a6.578 6.578 0 0 1-6.578 6.577H419.15v-32.887a6.578 6.578 0 0 1 6.577-6.577z" stroke="#595959" stroke-linecap="butt" stroke-linejoin="round"/><path d="M490.522 173.066h47.092v32.887a6.578 6.578 0 0 1-6.577 6.577h-47.092v-32.887a6.578 6.578 0 0 1 6.577-6.577z" fill="#674ea7"/><path d="M490.522 173.066h47.092v32.887a6.578 6.578 0 0 1-6.577 6.577h-47.092v-32.887a6.578 6.578 0 0 1 6.577-6.577z" stroke="#595959" stroke-linecap="butt" stroke-linejoin="round"/><path d="M652.625 172.558h47.092v32.887a6.578 6.578 0 0 1-6.578 6.577h-47.092v-32.887a6.578 6.578 0 0 1 6.578-6.577z" fill="#674ea7"/><path d="M652.625 172.558h47.092v32.887a6.578 6.578 0 0 1-6.578 6.577h-47.092v-32.887a6.578 6.578 0 0 1 6.578-6.577z" stroke="#595959" stroke-linecap="butt" stroke-linejoin="round"/><path d="M717.42 173.064h47.092v32.887a6.578 6.578 0 0 1-6.578 6.578h-47.091v-32.887a6.578 6.578 0 0 1 6.577-6.578z" fill="#674ea7"/><path d="M717.42 173.064h47.092v32.887a6.578 6.578 0 0 1-6.578 6.578h-47.091v-32.887a6.578 6.578 0 0 1 6.577-6.578z" stroke="#595959" stroke-linecap="butt" stroke-linejoin="round"/></g><path d="M56.777 82.593h143.968v54.488H56.777z"/><path d="M70.277 109.81q-1.531 0-2.563-.719-1.015-.718-1.453-1.828l1.422-.64q.344.859 1.047 1.328.703.468 1.547.468.89 0 1.516-.359.64-.375.64-1.047 0-.594-.5-.953-.5-.375-1.578-.625l-1.156-.312q-1.14-.282-1.875-.938-.719-.672-.719-1.75 0-.812.484-1.437.5-.625 1.313-.954.828-.343 1.781-.343 1.25 0 2.219.547.984.53 1.39 1.5l-1.374.64q-.641-1.265-2.25-1.265-.797 0-1.391.359-.578.36-.578.922 0 .531.406.86.422.312 1.234.515l1.391.36q1.39.359 2.094 1.062.719.687.719 1.703 0 .875-.516 1.547-.5.656-1.36 1.015-.843.344-1.89.344zm9.73 0q-1.359 0-2.437-.64-1.078-.657-1.687-1.797-.61-1.157-.61-2.594 0-1.39.563-2.547.578-1.156 1.625-1.844 1.047-.687 2.422-.687 1.39 0 2.421.625 1.032.625 1.579 1.734.546 1.094.546 2.516 0 .265-.046.484H76.85q.063 1.078.532 1.828.468.735 1.187 1.11.719.375 1.5.375 1.828 0 2.813-1.72l1.343.657q-.61 1.156-1.672 1.828-1.046.672-2.546.672zm2.75-6.062q-.046-.594-.343-1.188-.297-.61-.938-1.016-.64-.406-1.61-.406-1.124 0-1.905.719-.766.719-1.016 1.89zm7.176 5.921q-.578 0-1.078-.187-.485-.188-.828-.516-.36-.343-.547-.812-.188-.469-.188-1.14v-5.579H85.62v-1.437h1.672V97.31h1.578v2.688h2.313v1.437H88.87v5.188q0 .78.297 1.156.36.406 1.032.406.546 0 1.046-.312v1.546q-.28.125-.578.188-.281.062-.734.062zm6.234-12h-3.75v-1.515h9.063v1.515H97.76v11.844h-1.594zm7.931.579q-.469 0-.812-.329-.329-.343-.329-.812 0-.469.329-.797.343-.328.812-.328.469 0 .797.328.344.328.344.797 0 .469-.328.812-.329.329-.813.329zm-.781 1.75h1.562v9.515h-1.562zm4.06 0h1.515v1.406h.079q.406-.735 1.218-1.219.828-.484 1.75-.484 1.032 0 1.813.5.781.5 1.11 1.343.5-.843 1.327-1.343.844-.5 1.938-.5 1.64 0 2.469 1 .828 1 .828 2.718v6.094h-1.563v-5.86q0-1.327-.547-1.921-.53-.594-1.593-.594-.72 0-1.297.406-.578.407-.907 1.11-.312.687-.312 1.484v5.375h-1.594v-5.844q0-1.343-.547-1.937-.53-.594-1.578-.594-.703 0-1.281.422t-.906 1.125q-.328.688-.328 1.5v5.328h-1.594zm20.558 9.812q-1.359 0-2.437-.64-1.078-.657-1.688-1.797-.609-1.157-.609-2.594 0-1.39.563-2.547.578-1.156 1.625-1.844 1.046-.687 2.421-.687 1.391 0 2.422.625 1.032.625 1.578 1.734.547 1.094.547 2.516 0 .265-.047.484h-7.53q.062 1.078.53 1.828.47.735 1.188 1.11.719.375 1.5.375 1.828 0 2.812-1.72l1.344.657q-.61 1.156-1.672 1.828-1.047.672-2.547.672zm2.75-6.062q-.046-.594-.343-1.188-.297-.61-.938-1.016-.64-.406-1.61-.406-1.124 0-1.905.719-.766.719-1.016 1.89zm7.91 6.062q-1.406 0-2.531-.672-1.11-.672-1.734-1.828-.625-1.156-.625-2.547 0-1.406.625-2.562.625-1.157 1.734-1.828 1.125-.672 2.531-.672 1.39 0 2.516.672 1.125.671 1.75 1.828.625 1.156.625 2.562 0 1.39-.625 2.547-.625 1.156-1.75 1.828-1.125.672-2.516.672zm0-1.437q.875 0 1.625-.438.766-.437 1.219-1.25.453-.828.453-1.922 0-1.11-.453-1.922-.453-.828-1.219-1.265-.75-.438-1.625-.438t-1.64.438q-.766.437-1.235 1.265-.453.813-.453 1.922 0 1.094.453 1.922.469.813 1.235 1.25.765.438 1.64.438zm10.182 1.437q-1.719 0-2.625-1-.906-1.016-.906-2.828v-5.984h1.593v5.75q0 1.359.61 2 .625.625 1.672.625.796 0 1.421-.422.625-.438.97-1.125.343-.688.343-1.453v-5.375h1.594v9.515h-1.516v-1.375h-.078q-.39.703-1.25 1.188-.86.484-1.828.484zm10.67-.14q-.58 0-1.08-.188-.483-.188-.827-.516-.36-.343-.547-.812-.188-.469-.188-1.14v-5.579h-1.671v-1.437h1.671V97.31h1.579v2.688h2.312v1.437h-2.312v5.188q0 .78.296 1.156.36.406 1.032.406.547 0 1.047-.312v1.546q-.282.125-.579.188-.28.062-.734.062zm2.952 1.39l.985-1.547q-.328-.062-.594-.36-.266-.296-.266-.718 0-.484.344-.828t.86-.344q.5 0 .843.344.344.344.344.828 0 .313-.14.61-.126.28-.376.656l-1.234 1.86zM70.277 131.81q-1.531 0-2.563-.719-1.015-.718-1.453-1.828l1.422-.64q.344.859 1.047 1.328.703.468 1.547.468.89 0 1.516-.359.64-.375.64-1.047 0-.594-.5-.953-.5-.375-1.578-.625l-1.156-.312q-1.14-.282-1.875-.938-.719-.672-.719-1.75 0-.812.484-1.437.5-.625 1.313-.954.828-.343 1.781-.343 1.25 0 2.219.547.984.53 1.39 1.5l-1.374.64q-.641-1.265-2.25-1.265-.797 0-1.391.359-.578.36-.578.922 0 .531.406.86.422.312 1.234.515l1.391.36q1.39.359 2.094 1.062.719.687.719 1.703 0 .875-.516 1.547-.5.656-1.36 1.015-.843.344-1.89.344zm9.73 0q-1.359 0-2.437-.64-1.078-.657-1.687-1.797-.61-1.157-.61-2.594 0-1.39.563-2.547.578-1.156 1.625-1.844 1.047-.687 2.422-.687 1.39 0 2.421.625 1.032.625 1.579 1.734.546 1.094.546 2.516 0 .265-.046.484H76.85q.063 1.078.532 1.828.468.735 1.187 1.11.719.375 1.5.375 1.828 0 2.813-1.72l1.343.657q-.61 1.156-1.672 1.828-1.046.672-2.546.672zm2.75-6.062q-.046-.594-.343-1.188-.297-.61-.938-1.016-.64-.406-1.61-.406-1.124 0-1.905.719-.766.719-1.016 1.89zm7.176 5.921q-.578 0-1.078-.187-.485-.188-.828-.516-.36-.343-.547-.812-.188-.469-.188-1.14v-5.579H85.62v-1.437h1.672v-2.688h1.578v2.688h2.313v1.437H88.87v5.188q0 .78.297 1.156.36.406 1.032.406.546 0 1.046-.312v1.546q-.28.125-.578.188-.281.062-.734.062zm3.5-13.515h1.562v13.36h-1.562zm4.224 3.844h1.516v1.406h.078q.406-.735 1.218-1.219.829-.484 1.75-.484 1.032 0 1.813.5.781.5 1.11 1.343.5-.843 1.327-1.343.844-.5 1.938-.5 1.64 0 2.469 1 .828 1 .828 2.718v6.094h-1.563v-5.86q0-1.327-.547-1.921-.53-.594-1.593-.594-.719 0-1.297.406-.578.407-.906 1.11-.313.687-.313 1.484v5.375h-1.594v-5.844q0-1.343-.547-1.937-.53-.594-1.578-.594-.703 0-1.28.422-.579.422-.907 1.125-.328.688-.328 1.5v5.328h-1.594v-9.515zm16.324 0h1.516v1.406h.078q.406-.735 1.219-1.219.828-.484 1.75-.484 1.03 0 1.812.5.781.5 1.11 1.343.5-.843 1.328-1.343.843-.5 1.937-.5 1.64 0 2.469 1 .828 1 .828 2.718v6.094h-1.562v-5.86q0-1.327-.547-1.921-.532-.594-1.594-.594-.719 0-1.297.406-.578.407-.906 1.11-.313.687-.313 1.484v5.375h-1.593v-5.844q0-1.343-.547-1.937-.532-.594-1.578-.594-.704 0-1.282.422-.578.422-.906 1.125-.328.688-.328 1.5v5.328h-1.594v-9.515zm20.559 9.812q-1.36 0-2.438-.64-1.078-.657-1.687-1.797-.61-1.157-.61-2.594 0-1.39.563-2.547.578-1.156 1.625-1.844 1.047-.687 2.422-.687 1.39 0 2.422.625 1.03.625 1.578 1.734.547 1.094.547 2.516 0 .265-.047.484h-7.531q.062 1.078.53 1.828.47.735 1.188 1.11.719.375 1.5.375 1.828 0 2.813-1.72l1.344.657q-.61 1.156-1.672 1.828-1.047.672-2.547.672zm2.75-6.062q-.047-.594-.344-1.188-.297-.61-.937-1.016-.641-.406-1.61-.406-1.125 0-1.906.719-.766.719-1.016 1.89zm7.55 6.062q-1.266 0-2.312-.64-1.032-.657-1.625-1.797-.594-1.157-.594-2.61 0-1.437.594-2.594.593-1.156 1.625-1.812 1.046-.656 2.312-.656 1.11 0 1.953.5.86.484 1.313 1.218h.078l-.078-1.328v-3.937h1.593v13.36h-1.515v-1.407h-.078q-.453.719-1.313 1.219-.844.484-1.953.484zm.188-1.437q.843 0 1.562-.438.719-.453 1.156-1.266.438-.828.438-1.906 0-1.094-.438-1.906-.437-.828-1.156-1.266-.719-.453-1.562-.453-.813 0-1.547.453-.735.438-1.172 1.266-.438.828-.438 1.906 0 1.063.438 1.89.437.829 1.172 1.282.734.438 1.547.438zm7.95-10.125q-.47 0-.813-.329-.328-.343-.328-.812 0-.469.328-.797.344-.328.812-.328.47 0 .797.328.344.328.344.797 0 .469-.328.812-.328.329-.813.329zm-.782 1.75h1.563v9.515h-1.563zm7.107 9.812q-1.047 0-1.875-.406-.812-.406-1.266-1.125-.437-.719-.437-1.64 0-1.516 1.125-2.36 1.14-.844 2.875-.844.86 0 1.594.188.75.187 1.14.421v-.578q0-1.062-.75-1.703-.75-.64-1.89-.64-.797 0-1.469.343-.672.344-1.063.953l-1.203-.89q.563-.86 1.547-1.344.985-.484 2.172-.484 1.938 0 3.047 1.015 1.11 1.016 1.11 2.766v6.031h-1.5v-1.36h-.079q-.406.688-1.234 1.173-.813.484-1.844.484zm.14-1.39q.813 0 1.5-.407.688-.422 1.094-1.11.422-.687.422-1.515-.453-.297-1.109-.484-.656-.188-1.375-.188-1.313 0-1.984.547-.657.531-.657 1.39 0 .782.594 1.282.61.484 1.516.484zm10.376 1.25q-.578 0-1.078-.188-.485-.188-.828-.516-.36-.343-.547-.812-.188-.469-.188-1.14v-5.579h-1.672v-1.437h1.672v-2.688h1.578v2.688h2.313v1.437h-2.313v5.188q0 .78.297 1.156.36.406 1.032.406.546 0 1.046-.312v1.546q-.28.125-.578.188-.28.062-.734.062zm7.406.14q-1.36 0-2.437-.64-1.078-.657-1.688-1.797-.61-1.157-.61-2.594 0-1.39.563-2.547.578-1.156 1.625-1.844 1.047-.687 2.422-.687 1.39 0 2.422.625 1.031.625 1.578 1.734.547 1.094.547 2.516 0 .265-.047.484h-7.531q.063 1.078.531 1.828.469.735 1.188 1.11.718.375 1.5.375 1.828 0 2.812-1.72l1.344.657q-.61 1.156-1.672 1.828-1.047.672-2.547.672zm2.75-6.062q-.047-.594-.344-1.188-.296-.61-.937-1.016-.64-.406-1.61-.406-1.124 0-1.906.719-.765.719-1.015 1.89z" fill="#fff"/><path d="M58.43 164.142h114.804l29.165 29.165-29.165 29.165H58.43l29.166-29.165z" fill="#674ea7" fill-rule="evenodd"/><path d="M58.43 164.142h114.804l29.165 29.165-29.165 29.165H58.43l29.166-29.165z" stroke="#351c75" stroke-linecap="butt" stroke-linejoin="round"/><path d="M80.777 160.386h143.968v54.488H80.777z"/><path d="M93.996 187.603q-1.047 0-1.875-.407-.813-.406-1.266-1.125-.437-.718-.437-1.64 0-1.516 1.125-2.36 1.14-.843 2.875-.843.859 0 1.593.187.75.188 1.14.422v-.578q0-1.063-.75-1.703-.75-.64-1.89-.64-.797 0-1.468.343-.672.344-1.063.953l-1.203-.89q.562-.86 1.547-1.344.984-.485 2.172-.485 1.937 0 3.047 1.016 1.109 1.016 1.109 2.766v6.03h-1.5v-1.359h-.078q-.406.688-1.235 1.172-.812.485-1.843.485zm.14-1.39q.813 0 1.5-.407.688-.422 1.094-1.11.422-.687.422-1.515-.453-.297-1.11-.485-.656-.187-1.374-.187-1.313 0-1.985.547-.656.531-.656 1.39 0 .782.594 1.282.609.484 1.515.484zm5.672-8.423h1.625l2.282 7.516h.015l2.39-7.516h1.641l2.407 7.5h.015l2.266-7.5h1.594l-3.078 9.516h-1.594l-2.469-7.594-2.437 7.594h-1.594zm18.59 9.813q-1.047 0-1.875-.407-.812-.406-1.266-1.125-.437-.718-.437-1.64 0-1.516 1.125-2.36 1.14-.843 2.875-.843.86 0 1.594.187.75.188 1.14.422v-.578q0-1.063-.75-1.703-.75-.64-1.89-.64-.797 0-1.47.343-.671.344-1.062.953l-1.203-.89q.563-.86 1.547-1.344.985-.485 2.172-.485 1.938 0 3.047 1.016 1.11 1.016 1.11 2.766v6.03h-1.5v-1.359h-.079q-.406.688-1.234 1.172-.813.485-1.844.485zm.14-1.39q.813 0 1.5-.407.688-.422 1.094-1.11.422-.687.422-1.515-.453-.297-1.11-.485-.655-.187-1.374-.187-1.313 0-1.984.547-.657.531-.657 1.39 0 .782.594 1.282.61.484 1.516.484zm7.657-10.173q-.469 0-.812-.328-.329-.344-.329-.812 0-.47.329-.797.343-.328.812-.328.469 0 .797.328.344.328.344.797 0 .468-.328.812-.329.328-.813.328zm-.781 1.75h1.562v9.516h-1.562zm7.716 9.672q-.578 0-1.078-.187-.484-.188-.828-.516-.36-.344-.547-.813-.187-.468-.187-1.14v-5.578h-1.672v-1.438h1.672v-2.687h1.578v2.687h2.312v1.438h-2.312v5.187q0 .781.297 1.156.359.407 1.03.407.548 0 1.048-.313v1.547q-.282.125-.578.188-.282.062-.735.062zm2.953 1.39l.985-1.546q-.328-.063-.594-.36-.266-.296-.266-.718 0-.485.344-.828.344-.344.86-.344.5 0 .843.344.344.343.344.828 0 .312-.14.61-.126.28-.376.655l-1.234 1.86zM90.87 199.79h1.516v1.422h.078q.422-.734 1.282-1.219.875-.5 1.968-.5 1.266 0 2.313.657 1.047.656 1.64 1.812.594 1.156.594 2.594 0 1.453-.593 2.61-.594 1.14-1.641 1.796-1.047.64-2.313.64-1.093 0-1.968-.484-.86-.5-1.282-1.218h-.078l.078 1.312v4.125h-1.593zm4.657 8.375q.812 0 1.531-.437.735-.453 1.172-1.282.453-.828.453-1.89 0-1.078-.453-1.906-.437-.829-1.172-1.266-.719-.453-1.531-.453-.828 0-1.563.453-.718.437-1.156 1.266-.422.812-.422 1.906 0 1.078.422 1.906.438.813 1.156 1.266.735.437 1.563.437zm6.578-8.375h1.516v1.531h.078q.281-.78 1.078-1.296t1.672-.516q.656 0 1.125.187v1.72q-.594-.298-1.344-.298-.687 0-1.265.391-.579.39-.922 1.062-.344.657-.344 1.422v5.313h-1.594zm11.387 9.813q-1.406 0-2.531-.672-1.11-.672-1.735-1.828-.625-1.157-.625-2.547 0-1.406.625-2.563.625-1.156 1.735-1.828 1.125-.672 2.53-.672 1.392 0 2.517.672t1.75 1.828q.625 1.157.625 2.563 0 1.39-.625 2.547-.625 1.156-1.75 1.828-1.125.672-2.516.672zm0-1.438q.875 0 1.625-.437.766-.438 1.219-1.25.453-.828.453-1.922 0-1.11-.453-1.922-.453-.828-1.22-1.266-.75-.437-1.624-.437-.875 0-1.64.437-.766.438-1.235 1.266-.453.812-.453 1.922 0 1.094.453 1.922.469.812 1.234 1.25.766.437 1.64.437zm6.728-8.375h1.516v1.406h.078q.406-.734 1.219-1.218.828-.485 1.75-.485 1.031 0 1.812.5.782.5 1.11 1.344.5-.844 1.328-1.344.844-.5 1.937-.5 1.641 0 2.47 1 .827 1 .827 2.72v6.093h-1.562v-5.86q0-1.328-.547-1.921-.531-.594-1.594-.594-.719 0-1.297.406t-.906 1.11q-.312.687-.312 1.484v5.375h-1.594v-5.844q0-1.344-.547-1.937-.531-.594-1.578-.594-.703 0-1.281.422-.579.422-.907 1.125-.328.687-.328 1.5v5.328h-1.594zm17.262-1.75q-.469 0-.812-.328-.328-.344-.328-.812 0-.47.328-.797.343-.328.812-.328.469 0 .797.328.344.328.344.797 0 .468-.328.812-.328.328-.813.328zm-.781 1.75h1.562v9.516h-1.562zm7.388 9.813q-1.531 0-2.562-.72-1.016-.718-1.454-1.827l1.422-.64q.344.859 1.047 1.327.703.47 1.547.47.89 0 1.516-.36.64-.375.64-1.047 0-.594-.5-.953-.5-.375-1.578-.625l-1.156-.313q-1.14-.281-1.875-.937-.719-.672-.719-1.75 0-.813.485-1.438.5-.625 1.312-.953.828-.344 1.781-.344 1.25 0 2.22.547.983.531 1.39 1.5l-1.375.64q-.64-1.265-2.25-1.265-.797 0-1.39.36-.579.359-.579.921 0 .532.406.86.422.312 1.235.515l1.39.36q1.39.36 2.094 1.062.719.688.719 1.703 0 .875-.516 1.547-.5.657-1.36 1.016-.843.344-1.89.344zm9.73 0q-1.359 0-2.437-.64-1.078-.657-1.687-1.798-.61-1.156-.61-2.594 0-1.39.563-2.546.578-1.157 1.625-1.844 1.047-.688 2.422-.688 1.39 0 2.422.625 1.03.625 1.578 1.735.547 1.093.547 2.515 0 .266-.047.485h-7.532q.063 1.078.532 1.828.468.734 1.187 1.11.719.374 1.5.374 1.828 0 2.813-1.719l1.343.657q-.609 1.156-1.671 1.828-1.047.672-2.547.672zm2.75-6.063q-.046-.594-.343-1.187-.297-.61-.938-1.016-.64-.406-1.609-.406-1.125 0-1.906.719-.766.718-1.016 1.89zm6.848 6.063q-1.531 0-2.563-.72-1.015-.718-1.453-1.827l1.422-.64q.344.859 1.047 1.327.703.47 1.547.47.89 0 1.516-.36.64-.375.64-1.047 0-.594-.5-.953-.5-.375-1.578-.625l-1.156-.313q-1.14-.281-1.875-.937-.719-.672-.719-1.75 0-.813.484-1.438.5-.625 1.313-.953.828-.344 1.781-.344 1.25 0 2.219.547.984.531 1.39 1.5l-1.374.64q-.641-1.265-2.25-1.265-.797 0-1.391.36-.578.359-.578.921 0 .532.406.86.422.312 1.234.515l1.391.36q1.39.36 2.094 1.062.719.688.719 1.703 0 .875-.516 1.547-.5.657-1.36 1.016-.843.344-1.89.344z" fill="#fff"/><path d="M448.058 23.774H582.23v35.78H448.058z"/><path d="M464.01 56.205q-1.75 0-3.14-.844-1.39-.844-2.172-2.312-.78-1.485-.78-3.328 0-1.782.733-3.266.735-1.484 2.079-2.375 1.343-.89 3.125-.89 1.796 0 3.109.812 1.328.797 2.031 2.219.703 1.406.703 3.234 0 .36-.062.625h-9.672q.062 1.39.656 2.36.61.952 1.531 1.437.938.469 1.938.469 2.36 0 3.625-2.204l1.734.844q-.797 1.485-2.156 2.36-1.36.859-3.281.859zm3.532-7.813q-.047-.765-.437-1.53-.375-.766-1.204-1.298-.828-.531-2.078-.531-1.437 0-2.437.938-.985.921-1.297 2.421zm3.2-4.812h2.187l3.781 9.828h.047l3.844-9.828h2.14l-5 12.234h-2.062zm19.117 12.625q-1.75 0-3.14-.844-1.391-.844-2.173-2.312-.781-1.485-.781-3.328 0-1.782.734-3.266.735-1.484 2.079-2.375 1.343-.89 3.125-.89 1.796 0 3.109.812 1.328.797 2.031 2.219.703 1.406.703 3.234 0 .36-.062.625h-9.672q.062 1.39.656 2.36.61.952 1.531 1.437.938.469 1.938.469 2.36 0 3.625-2.204l1.734.844q-.797 1.485-2.156 2.36-1.36.859-3.281.859zm3.531-7.813q-.047-.765-.437-1.53-.375-.766-1.204-1.298-.828-.531-2.078-.531-1.437 0-2.437.938-.985.921-1.297 2.421zm4.543-4.812h1.938v1.797h.094q.515-.922 1.609-1.547 1.11-.64 2.36-.64 2.202 0 3.359 1.28 1.172 1.282 1.172 3.5v7.844h-2.032v-7.531q0-1.703-.828-2.469-.812-.781-2.234-.781-.985 0-1.766.563-.765.546-1.203 1.453-.437.89-.437 1.875v6.89h-2.032zM516.1 56.002q-.75 0-1.39-.235-.625-.234-1.063-.656-.484-.453-.719-1.047-.234-.61-.234-1.468v-7.172h-2.14V43.58h2.14V40.11h2.031v3.469h2.985v1.844h-2.985v6.672q0 1 .391 1.484.453.531 1.312.531.704 0 1.344-.406v1.984q-.36.172-.734.235-.36.078-.938.078zm9.65-17.375h2.03v17.187h-2.03zm10.704 17.578q-1.797 0-3.25-.86-1.438-.874-2.25-2.359-.797-1.484-.797-3.297 0-1.797.797-3.281.812-1.484 2.25-2.344 1.453-.875 3.25-.875t3.234.875q1.438.86 2.235 2.344.812 1.484.812 3.281 0 1.813-.812 3.297-.797 1.485-2.235 2.36-1.437.859-3.234.859zm0-1.86q1.125 0 2.094-.562.968-.562 1.562-1.61.594-1.062.594-2.484 0-1.406-.594-2.453-.594-1.062-1.562-1.625-.97-.578-2.094-.578-1.125 0-2.11.578-.984.563-1.578 1.625-.593 1.047-.593 2.453 0 1.422.593 2.485.594 1.047 1.578 1.609.985.563 2.11.563zm14.304 1.86q-1.797 0-3.25-.86-1.438-.874-2.25-2.359-.797-1.484-.797-3.297 0-1.797.797-3.281.812-1.484 2.25-2.344 1.453-.875 3.25-.875t3.234.875q1.438.86 2.234 2.344.813 1.484.813 3.281 0 1.813-.813 3.297-.796 1.485-2.234 2.36-1.437.859-3.234.859zm0-1.86q1.125 0 2.093-.562.97-.562 1.563-1.61.594-1.062.594-2.484 0-1.406-.594-2.453-.594-1.062-1.563-1.625-.968-.578-2.093-.578t-2.11.578q-.984.563-1.578 1.625-.594 1.047-.594 2.453 0 1.422.594 2.485.594 1.047 1.578 1.609.985.563 2.11.563zm8.57-10.765h1.937v1.812h.094q.562-.937 1.671-1.562 1.11-.64 2.5-.64 1.641 0 2.985.843 1.344.844 2.11 2.328.765 1.485.765 3.328 0 1.875-.766 3.36-.765 1.468-2.11 2.312-1.343.844-2.984.844-1.39 0-2.5-.64-1.109-.641-1.671-1.548h-.094l.094 1.672v5.313h-2.032zm5.968 10.766q1.063 0 1.984-.563.938-.578 1.5-1.64.579-1.079.579-2.454 0-1.36-.579-2.422-.562-1.078-1.5-1.656-.921-.578-1.984-.578-1.047 0-1.984.578-.938.578-1.5 1.64-.547 1.048-.547 2.438 0 1.39.547 2.453.562 1.063 1.5 1.641.937.563 1.984.563z" fill="#444"/><path d="M424.947 221.129h200.347v35.78H424.948z"/><path d="M435.463 240.934h1.938v1.797h.093q.532-.937 1.579-1.562 1.062-.625 2.25-.625 1.343 0 2.328.656 1 .64 1.437 1.719.64-1.079 1.703-1.72 1.078-.655 2.5-.655 2.11 0 3.172 1.28 1.063 1.282 1.063 3.5v7.845h-2.016v-7.532q0-1.703-.703-2.468-.688-.782-2.047-.782-.922 0-1.672.532-.734.53-1.156 1.421-.422.891-.422 1.922v6.907h-2.031v-7.516q0-1.719-.703-2.484-.688-.782-2.032-.782-.921 0-1.671.547-.735.531-1.157 1.438-.422.906-.422 1.937v6.86h-2.03zm22.203-2.265q-.61 0-1.047-.422-.422-.438-.422-1.032 0-.609.422-1.03.438-.423 1.047-.423.594 0 1.016.422.437.422.437 1.031 0 .594-.422 1.032-.406.422-1.03.422zm-1.015 2.265h2.015v12.235h-2.015zm10.783 12.625q-1.781 0-3.203-.844-1.406-.859-2.203-2.328-.797-1.484-.797-3.343 0-1.844.797-3.329.797-1.484 2.203-2.328 1.422-.843 3.203-.843 1.984 0 3.344.921 1.359.922 1.937 2.47l-1.86.765q-.452-1.125-1.359-1.719-.89-.594-2.171-.594-1.079 0-2.016.594-.922.594-1.5 1.656-.563 1.047-.563 2.407 0 1.375.563 2.437.578 1.047 1.5 1.64.937.579 2.016.579 1.296 0 2.234-.594.937-.594 1.39-1.703l1.829.766q-.625 1.515-2 2.453-1.375.937-3.344.937zm7.557-12.625h1.937v1.969h.094q.36-1.016 1.39-1.672 1.032-.656 2.173-.656.828 0 1.437.234v2.203q-.765-.375-1.734-.375-.89 0-1.64.5-.735.5-1.188 1.36-.438.843-.438 1.828v6.844h-2.031zm14.64 12.625q-1.796 0-3.25-.86-1.437-.874-2.25-2.359-.796-1.484-.796-3.296 0-1.797.797-3.282.812-1.484 2.25-2.343 1.453-.875 3.25-.875 1.796 0 3.234.875 1.437.859 2.234 2.343.813 1.485.813 3.282 0 1.812-.813 3.296-.797 1.485-2.234 2.36-1.438.86-3.234.86zm0-1.86q1.126 0 2.094-.562.97-.562 1.563-1.609.594-1.063.594-2.484 0-1.407-.594-2.454-.594-1.062-1.563-1.625-.968-.578-2.093-.578t-2.11.578q-.984.563-1.578 1.625-.594 1.047-.594 2.454 0 1.421.594 2.484.594 1.047 1.578 1.61.985.562 2.11.562zm13.367 1.657q-.75 0-1.39-.234-.626-.235-1.063-.657-.484-.453-.719-1.046-.234-.61-.234-1.47v-7.171h-2.14v-1.844h2.14v-3.469h2.031v3.47h2.984v1.843h-2.984v6.672q0 1 .39 1.484.454.531 1.313.531.703 0 1.344-.406v1.985q-.36.171-.734.234-.36.078-.938.078zm7.987.203q-1.344 0-2.406-.531-1.047-.531-1.625-1.453-.578-.922-.578-2.11 0-1.937 1.469-3.03 1.468-1.095 3.687-1.095 1.11 0 2.047.25.953.235 1.469.547v-.75q0-1.359-.97-2.187-.952-.828-2.421-.828-1.031 0-1.89.453-.86.437-1.376 1.219l-1.53-1.141q.718-1.11 1.968-1.734 1.266-.625 2.812-.625 2.485 0 3.907 1.312 1.437 1.297 1.437 3.563v7.75h-1.937v-1.75h-.094q-.531.89-1.594 1.515-1.047.625-2.375.625zm.188-1.812q1.03 0 1.922-.516.89-.531 1.421-1.422.532-.89.532-1.937-.578-.39-1.422-.625-.844-.25-1.781-.25-1.672 0-2.532.703-.843.687-.843 1.797 0 1.015.765 1.64.766.61 1.938.61zm12.915 1.812q-1.968 0-3.296-.922-1.313-.937-1.86-2.375l1.828-.812q.453 1.11 1.344 1.703.906.594 1.984.594 1.157 0 1.97-.469.812-.469.812-1.328 0-.766-.657-1.235-.64-.468-2.03-.796l-1.485-.391q-1.469-.36-2.406-1.219-.922-.875-.922-2.234 0-1.063.625-1.86.64-.812 1.687-1.234 1.063-.437 2.281-.437 1.61 0 2.875.703 1.266.687 1.782 1.937l-1.766.813q-.812-1.625-2.906-1.625-1.016 0-1.766.468-.75.47-.75 1.188 0 .672.516 1.094.531.422 1.594.672l1.78.468q1.798.453 2.704 1.36.906.89.906 2.187 0 1.125-.64 1.985-.641.843-1.75 1.312-1.11.453-2.454.453zm7.087-17.578h2.031v10.797l5.766-5.844h2.593v.094l-4.796 4.844 4.921 7.203v.094h-2.437l-3.938-5.875-2.109 2.109v3.766h-2.031zm27.063 17.063l.094-1.672h-.094q-.578.906-1.688 1.547-1.093.64-2.5.64-1.64 0-2.968-.844-1.329-.843-2.11-2.312-.765-1.484-.765-3.36 0-1.843.765-3.328.781-1.484 2.11-2.328 1.328-.843 2.968-.843 1.407 0 2.5.64 1.11.625 1.688 1.563h.094v-1.813h1.953v17.422h-2.047zm-3.953-1.344q1.078 0 2-.563.922-.578 1.484-1.64.563-1.063.563-2.453 0-1.391-.563-2.438-.562-1.062-1.484-1.64-.922-.579-2-.579-1.063 0-2 .578-.922.579-1.5 1.657-.563 1.062-.563 2.422 0 1.375.563 2.453.578 1.062 1.5 1.64.937.563 2 .563zm13.367 1.86q-2.203 0-3.375-1.298-1.156-1.297-1.156-3.625v-7.703h2.031v7.39q0 1.75.797 2.563.797.813 2.14.813 1.032 0 1.829-.547.812-.547 1.25-1.438.437-.89.437-1.875v-6.906h2.047v12.235h-1.937v-1.782h-.11q-.5.922-1.609 1.547-1.094.625-2.344.625zm14.464 0q-1.75 0-3.14-.845-1.391-.843-2.172-2.312-.782-1.484-.782-3.328 0-1.781.735-3.266.734-1.484 2.078-2.375 1.344-.89 3.125-.89 1.797 0 3.11.812 1.327.797 2.03 2.219.704 1.406.704 3.234 0 .36-.063.625h-9.672q.063 1.39.657 2.36.609.953 1.53 1.437.938.469 1.938.469 2.36 0 3.625-2.203l1.735.843q-.797 1.485-2.157 2.36-1.359.86-3.28.86zm3.531-7.813q-.046-.766-.437-1.532-.375-.765-1.203-1.296-.828-.532-2.078-.532-1.438 0-2.438.938-.984.922-1.297 2.422zm8.981 7.812q-2.203 0-3.375-1.297-1.156-1.297-1.156-3.625v-7.703h2.031v7.39q0 1.75.797 2.563.797.813 2.14.813 1.032 0 1.829-.547.812-.547 1.25-1.438.437-.89.437-1.875v-6.906h2.047v12.235h-1.937v-1.782h-.11q-.5.922-1.61 1.547-1.093.625-2.343.625zm14.464 0q-1.75 0-3.14-.844-1.391-.843-2.172-2.312-.782-1.484-.782-3.328 0-1.781.735-3.266.734-1.484 2.078-2.375 1.344-.89 3.125-.89 1.797 0 3.11.812 1.327.797 2.03 2.219.704 1.406.704 3.234 0 .36-.063.625h-9.672q.063 1.39.656 2.36.61.953 1.532 1.437.937.469 1.937.469 2.36 0 3.625-2.203l1.735.843q-.797 1.485-2.157 2.36-1.359.86-3.28.86zm3.531-7.812q-.047-.766-.437-1.532-.375-.765-1.203-1.296-.828-.532-2.078-.532-1.438 0-2.438.938-.984.922-1.297 2.422z" fill="#444"/><path d="M276.276 91.811c0-7.187 5.826-13.013 13.013-13.013h52.052a13.013 13.013 0 0 1 13.013 13.013v52.052c0 7.187-5.826 13.014-13.013 13.014h-52.052c-7.187 0-13.013-5.827-13.013-13.014z" fill="#3d85c6" fill-rule="evenodd"/><path d="M276.276 91.811c0-7.187 5.826-13.013 13.013-13.013h52.052a13.013 13.013 0 0 1 13.013 13.013v52.052c0 7.187-5.826 13.014-13.013 13.014h-52.052c-7.187 0-13.013-5.827-13.013-13.014z" stroke="#0b5394" stroke-linecap="butt" stroke-linejoin="round"/><path d="M559.835 91.811c0-7.187 5.826-13.013 13.013-13.013H624.9a13.013 13.013 0 0 1 13.013 13.013v52.052c0 7.187-5.826 13.014-13.013 13.014h-52.052c-7.187 0-13.013-5.827-13.013-13.014z" fill="#3d85c6" fill-rule="evenodd"/><path d="M559.835 91.811c0-7.187 5.826-13.013 13.013-13.013H624.9a13.013 13.013 0 0 1 13.013 13.013v52.052c0 7.187-5.826 13.014-13.013 13.014h-52.052c-7.187 0-13.013-5.827-13.013-13.014z" stroke="#0b5394" stroke-linecap="butt" stroke-linejoin="round"/></g></svg>