<?xml version="1.0" encoding="UTF-8" standalone="no"?>
<svg width="600" height="230" style='overflow: visible; margin: 5px;'
     xmlns="http://www.w3.org/2000/svg">
    <defs>
      <marker id="red-arrowhead" viewBox="0 0 10 10" refX="7" refY="5" markerUnits="strokeWidth" markerWidth="10" markerHeight="3" orient="auto">
        <path d="M 0 0 L 10 5 L 0 10 z" stroke="none" fill="red"/>
      </marker>
    </defs>

  <line x1="10" y1="30" x2="10" y2="0" stroke="black"/>
  <line x1="210" y1="30" x2="210" y2="0" stroke="black"/>
  <rect x="10" y="0" width="200" height="30" fill="lightgrey"/>
  <text x="35" y="20">...(previous object)...</text>

  <rect x="10" y="30" width="200" height="120" stroke="black" fill="transparent" stroke-width="2"/>  
  
  <line x1="10" y1="150" x2="10" y2="180" stroke="black"/>
  <line x1="210" y1="150" x2="210" y2="180" stroke="black"/>
  <rect x="10" y="150" width="200" height="30" fill="lightgrey"/>
  <text x="35" y="170">...(next object)...</text>

  <text x="20" y="50">Map (hidden class)</text>
  <line x1="10" y1="55" x2="210" y2="55" stroke="black" />
  <text x="20" y="70">Properties</text>
  <line x1="10" y1="75" x2="210" y2="75" stroke="black" />
  <text x="20" y="90">Elements</text>
  <line x1="10" y1="95" x2="210" y2="95" stroke="black" />  
  <text x="20" y="110">In-object property #1</text>
  <line x1="10" y1="115" x2="210" y2="115" stroke="black" />
  <text x="20" y="130">In-object property #2</text>

  <line x1="210" y1="65" x2="290" y2="50" stroke="black" stroke-width="2" marker-end="url(#red-arrowhead)"/>

  <text x="295" y="40">Property backing store</text>
  <rect x="290" y="50" width="180" height="120" stroke="black" fill="transparent" stroke-width="2"/> 
  <text x="300" y="70">Property #1</text>
  <text x="300" y="90">Property #2</text>
  <text x="300" y="110">Property #3</text>
  <text x="300" y="130">...</text>
</svg>

