<svg viewBox="0 0 2452 1329" xmlns="http://www.w3.org/2000/svg" xmlns:xlink="http://www.w3.org/1999/xlink" overflow="hidden"><defs><clipPath id="clip0"><rect x="1640" y="481" width="2452" height="1329"/></clipPath><clipPath id="clip1"><rect x="1640" y="483" width="2450" height="1327"/></clipPath><clipPath id="clip2"><rect x="1907" y="743" width="1692" height="976"/></clipPath><clipPath id="clip3"><rect x="1907" y="743" width="1692" height="976"/></clipPath><clipPath id="clip4"><rect x="1907" y="743" width="1692" height="976"/></clipPath><clipPath id="clip5"><rect x="1907" y="743" width="1692" height="976"/></clipPath><clipPath id="clip6"><rect x="1907" y="743" width="1692" height="976"/></clipPath><clipPath id="clip7"><rect x="1640" y="483" width="2450" height="1327"/></clipPath><clipPath id="clip8"><rect x="1640" y="483" width="2450" height="1327"/></clipPath><clipPath id="clip9"><rect x="1640" y="483" width="2450" height="1327"/></clipPath><clipPath id="clip10"><rect x="1640" y="483" width="2450" height="1327"/></clipPath><clipPath id="clip11"><rect x="1640" y="483" width="2450" height="1327"/></clipPath><clipPath id="clip12"><rect x="1640" y="483" width="2450" height="1327"/></clipPath><clipPath id="clip13"><rect x="1640" y="483" width="2450" height="1327"/></clipPath><clipPath id="clip14"><rect x="1640" y="483" width="2450" height="1327"/></clipPath><clipPath id="clip15"><rect x="1640" y="483" width="2450" height="1327"/></clipPath><clipPath id="clip16"><rect x="1640" y="483" width="2450" height="1327"/></clipPath><clipPath id="clip17"><rect x="1686" y="1727" width="1287" height="66"/></clipPath><clipPath id="clip18"><rect x="1640" y="483" width="2450" height="1327"/></clipPath><clipPath id="clip19"><rect x="2657" y="1727" width="1034" height="66"/></clipPath><clipPath id="clip20"><rect x="1640" y="483" width="2450" height="1327"/></clipPath><clipPath id="clip21"><rect x="1640" y="483" width="2450" height="1327"/></clipPath><clipPath id="clip22"><rect x="1640" y="483" width="2450" height="1327"/></clipPath><clipPath id="clip23"><rect x="1640" y="483" width="2450" height="1327"/></clipPath><clipPath id="clip24"><rect x="1640" y="483" width="2450" height="1327"/></clipPath><clipPath id="clip25"><rect x="1640" y="483" width="2450" height="1327"/></clipPath><clipPath id="clip26"><rect x="1640" y="483" width="2450" height="1327"/></clipPath><clipPath id="clip27"><rect x="1640" y="483" width="2450" height="1327"/></clipPath><clipPath id="clip28"><rect x="1640" y="483" width="2450" height="1327"/></clipPath><clipPath id="clip29"><rect x="1640" y="483" width="2450" height="1327"/></clipPath><clipPath id="clip30"><rect x="1640" y="483" width="2450" height="1327"/></clipPath><clipPath id="clip31"><rect x="1640" y="483" width="2450" height="1327"/></clipPath><clipPath id="clip32"><rect x="1640" y="483" width="2450" height="1327"/></clipPath><clipPath id="clip33"><rect x="1640" y="483" width="2451" height="1328"/></clipPath><clipPath id="clip34"><rect x="1640" y="483" width="2451" height="1328"/></clipPath><clipPath id="clip35"><rect x="1640" y="483" width="2451" height="1328"/></clipPath><clipPath id="clip36"><rect x="1640" y="483" width="2451" height="1328"/></clipPath><clipPath id="clip37"><rect x="1640" y="483" width="2451" height="1328"/></clipPath><clipPath id="clip38"><rect x="1640" y="483" width="2451" height="1328"/></clipPath><clipPath id="clip39"><rect x="1640" y="483" width="2451" height="1328"/></clipPath></defs><g clip-path="url(#clip0)" transform="translate(-1640 -481)"><g clip-path="url(#clip1)"><path d="M1907.5 1554.55 3595.5 1554.55M1907.5 1392.55 3595.5 1392.55M1907.5 1229.54 3595.5 1229.54M1907.5 1067.54 3595.5 1067.54M1907.5 905.53 3595.5 905.53M1907.5 743.5 3595.5 743.5" stroke="#D9D9D9" stroke-width="3.4375" stroke-linecap="butt" stroke-linejoin="round" stroke-miterlimit="10" stroke-opacity="1" fill="none" fill-rule="nonzero"/></g><g clip-path="url(#clip2)"><path d="M2005.07 957.031 2135.07 957.031 2135.07 1716 2005.07 1716ZM2849.09 933.031 2979.1 933.031 2979.1 1716 2849.09 1716Z" fill="#4472C4" fill-rule="nonzero" fill-opacity="1"/></g><g clip-path="url(#clip3)"><path d="M2135.07 1052.03 2265.07 1052.03 2265.07 1716 2135.07 1716ZM2979.1 1035.03 3109.1 1035.03 3109.1 1716 2979.1 1716Z" fill="#ED7D31" fill-rule="nonzero" fill-opacity="1"/></g><g clip-path="url(#clip4)"><path d="M2265.07 1622.05 2395.08 1622.05 2395.08 1716 2265.07 1716ZM3109.1 927.03 3239.11 927.03 3239.11 1716 3109.1 1716Z" fill="#A5A5A5" fill-rule="nonzero" fill-opacity="1"/></g><g clip-path="url(#clip5)"><path d="M2395.08 1605.05 2525.08 1605.05 2525.08 1716 2395.08 1716ZM3239.11 1078.04 3369.11 1078.04 3369.11 1716 3239.11 1716Z" fill="#FFC000" fill-rule="nonzero" fill-opacity="1"/></g><g clip-path="url(#clip6)"><path d="M2525.08 1620.05 2654.09 1620.05 2654.09 1716 2525.08 1716ZM3369.11 1051.03 3498.11 1051.03 3498.11 1716 3369.11 1716Z" fill="#5B9BD5" fill-rule="nonzero" fill-opacity="1"/></g><g clip-path="url(#clip7)"><path d="M0 0 0.000360892 973" stroke="#D9D9D9" stroke-width="3.4375" stroke-linecap="butt" stroke-linejoin="round" stroke-miterlimit="10" stroke-opacity="1" fill="none" fill-rule="evenodd" transform="matrix(1 0 0 -1 1907.5 1716.5)"/></g><g clip-path="url(#clip8)"><path d="M1907.5 1716.5 3595.5 1716.5" stroke="#D9D9D9" stroke-width="3.4375" stroke-linecap="butt" stroke-linejoin="round" stroke-miterlimit="10" stroke-opacity="1" fill="none" fill-rule="evenodd"/></g><g clip-path="url(#clip9)"><text fill="#595959" fill-opacity="1" font-family="Arial,Arial_MSFontService,sans-serif" font-style="normal" font-variant="normal" font-weight="400" font-stretch="normal" font-size="41" text-anchor="start" direction="ltr" writing-mode="lr-tb" unicode-bidi="normal" text-decoration="none" transform="matrix(1 0 0 1 1849.45 1729)">0</text></g><g clip-path="url(#clip10)"><text fill="#595959" fill-opacity="1" font-family="Arial,Arial_MSFontService,sans-serif" font-style="normal" font-variant="normal" font-weight="400" font-stretch="normal" font-size="41" text-anchor="start" direction="ltr" writing-mode="lr-tb" unicode-bidi="normal" text-decoration="none" transform="matrix(1 0 0 1 1780.63 1566)">1000</text></g><g clip-path="url(#clip11)"><text fill="#595959" fill-opacity="1" font-family="Arial,Arial_MSFontService,sans-serif" font-style="normal" font-variant="normal" font-weight="400" font-stretch="normal" font-size="41" text-anchor="start" direction="ltr" writing-mode="lr-tb" unicode-bidi="normal" text-decoration="none" transform="matrix(1 0 0 1 1780.63 1404)">2000</text></g><g clip-path="url(#clip12)"><text fill="#595959" fill-opacity="1" font-family="Arial,Arial_MSFontService,sans-serif" font-style="normal" font-variant="normal" font-weight="400" font-stretch="normal" font-size="41" text-anchor="start" direction="ltr" writing-mode="lr-tb" unicode-bidi="normal" text-decoration="none" transform="matrix(1 0 0 1 1780.63 1242)">3000</text></g><g clip-path="url(#clip13)"><text fill="#595959" fill-opacity="1" font-family="Arial,Arial_MSFontService,sans-serif" font-style="normal" font-variant="normal" font-weight="400" font-stretch="normal" font-size="41" text-anchor="start" direction="ltr" writing-mode="lr-tb" unicode-bidi="normal" text-decoration="none" transform="matrix(1 0 0 1 1780.63 1080)">4000</text></g><g clip-path="url(#clip14)"><text fill="#595959" fill-opacity="1" font-family="Arial,Arial_MSFontService,sans-serif" font-style="normal" font-variant="normal" font-weight="400" font-stretch="normal" font-size="41" text-anchor="start" direction="ltr" writing-mode="lr-tb" unicode-bidi="normal" text-decoration="none" transform="matrix(1 0 0 1 1780.63 918)">5000</text></g><g clip-path="url(#clip15)"><text fill="#595959" fill-opacity="1" font-family="Arial,Arial_MSFontService,sans-serif" font-style="normal" font-variant="normal" font-weight="400" font-stretch="normal" font-size="41" text-anchor="start" direction="ltr" writing-mode="lr-tb" unicode-bidi="normal" text-decoration="none" transform="matrix(1 0 0 1 1780.63 756)">6000</text></g><g clip-path="url(#clip16)"><g clip-path="url(#clip17)"><text fill="#595959" fill-opacity="1" font-family="Arial,Arial_MSFontService,sans-serif" font-style="normal" font-variant="normal" font-weight="400" font-stretch="normal" font-size="37" text-anchor="start" direction="ltr" writing-mode="lr-tb" unicode-bidi="normal" text-decoration="none" transform="matrix(1 0 0 1 2237.99 1773)">BEFORE</text></g></g><g clip-path="url(#clip18)"><g clip-path="url(#clip19)"><text fill="#595959" fill-opacity="1" font-family="Arial,Arial_MSFontService,sans-serif" font-style="normal" font-variant="normal" font-weight="400" font-stretch="normal" font-size="37" text-anchor="start" direction="ltr" writing-mode="lr-tb" unicode-bidi="normal" text-decoration="none" transform="matrix(1 0 0 1 3100.04 1773)">AFTER</text></g></g><g clip-path="url(#clip20)"><text fill="#595959" fill-opacity="1" font-family="Arial,Arial_MSFontService,sans-serif" font-style="normal" font-variant="normal" font-weight="400" font-stretch="normal" font-size="41" text-anchor="start" direction="ltr" writing-mode="lr-tb" unicode-bidi="normal" text-decoration="none" transform="matrix(6.12323e-17 -1 1 6.12323e-17 1758.5 1403)">Operations/second</text></g><g clip-path="url(#clip21)"><text fill="#595959" fill-opacity="1" font-family="Arial,Arial_MSFontService,sans-serif" font-style="normal" font-variant="normal" font-weight="700" font-stretch="normal" font-size="73" text-anchor="start" direction="ltr" writing-mode="lr-tb" unicode-bidi="normal" text-decoration="none" transform="matrix(1 0 0 1 2142.15 587)">Performance of initializations, interpreted</text></g><g clip-path="url(#clip22)"><text fill="#595959" fill-opacity="1" font-family="Arial,Arial_MSFontService,sans-serif" font-style="normal" font-variant="normal" font-weight="700" font-stretch="normal" font-size="73" text-anchor="start" direction="ltr" writing-mode="lr-tb" unicode-bidi="normal" text-decoration="none" transform="matrix(1 0 0 1 2586.36 671)">(higher is better)</text></g><g clip-path="url(#clip23)"><rect x="3673" y="1095" width="21" height="21.0004" fill="#4472C4" fill-opacity="1"/></g><g clip-path="url(#clip24)"><text fill="#595959" fill-opacity="1" font-family="Arial,Arial_MSFontService,sans-serif" font-style="normal" font-variant="normal" font-weight="400" font-stretch="normal" font-size="41" text-anchor="start" direction="ltr" writing-mode="lr-tb" unicode-bidi="normal" text-decoration="none" transform="matrix(1 0 0 1 3702.57 1118)">Named property</text></g><g clip-path="url(#clip25)"><rect x="3673" y="1168" width="21" height="21" fill="#ED7D31" fill-opacity="1"/></g><g clip-path="url(#clip26)"><text fill="#595959" fill-opacity="1" font-family="Arial,Arial_MSFontService,sans-serif" font-style="normal" font-variant="normal" font-weight="400" font-stretch="normal" font-size="41" text-anchor="start" direction="ltr" writing-mode="lr-tb" unicode-bidi="normal" text-decoration="none" transform="matrix(1 0 0 1 3702.57 1191)">Symbol property</text></g><g clip-path="url(#clip27)"><rect x="3673" y="1241" width="21" height="21" fill="#A5A5A5" fill-opacity="1"/></g><g clip-path="url(#clip28)"><text fill="#595959" fill-opacity="1" font-family="Arial,Arial_MSFontService,sans-serif" font-style="normal" font-variant="normal" font-weight="400" font-stretch="normal" font-size="41" text-anchor="start" direction="ltr" writing-mode="lr-tb" unicode-bidi="normal" text-decoration="none" transform="matrix(1 0 0 1 3702.57 1264)">Public field</text></g><g clip-path="url(#clip29)"><rect x="3673" y="1314" width="21" height="21" fill="#FFC000" fill-opacity="1"/></g><g clip-path="url(#clip30)"><text fill="#595959" fill-opacity="1" font-family="Arial,Arial_MSFontService,sans-serif" font-style="normal" font-variant="normal" font-weight="400" font-stretch="normal" font-size="41" text-anchor="start" direction="ltr" writing-mode="lr-tb" unicode-bidi="normal" text-decoration="none" transform="matrix(1 0 0 1 3702.57 1337)">Private field</text></g><g clip-path="url(#clip31)"><rect x="3673" y="1387" width="21" height="21" fill="#5B9BD5" fill-opacity="1"/></g><g clip-path="url(#clip32)"><text fill="#595959" fill-opacity="1" font-family="Arial,Arial_MSFontService,sans-serif" font-style="normal" font-variant="normal" font-weight="400" font-stretch="normal" font-size="41" text-anchor="start" direction="ltr" writing-mode="lr-tb" unicode-bidi="normal" text-decoration="none" transform="matrix(1 0 0 1 3702.57 1410)">Computed field</text></g><g clip-path="url(#clip33)"><text fill="#7F7F7F" fill-opacity="1" font-family="Arial,Arial_MSFontService,sans-serif" font-style="normal" font-variant="normal" font-weight="400" font-stretch="normal" font-size="41" text-anchor="start" direction="ltr" writing-mode="lr-tb" unicode-bidi="normal" text-decoration="none" transform="matrix(1 0 0 1 3670.33 1528)">Restuls are </text></g><g clip-path="url(#clip34)"><text fill="#7F7F7F" fill-opacity="1" font-family="Arial,Arial_MSFontService,sans-serif" font-style="normal" font-variant="normal" font-weight="400" font-stretch="normal" font-size="41" text-anchor="start" direction="ltr" writing-mode="lr-tb" unicode-bidi="normal" text-decoration="none" transform="matrix(1 0 0 1 3670.33 1575)">generated with </text></g><g clip-path="url(#clip35)"><text fill="#7F7F7F" fill-opacity="1" font-family="Arial,Arial_MSFontService,sans-serif" font-style="normal" font-variant="normal" font-weight="400" font-stretch="normal" font-size="41" text-anchor="start" direction="ltr" writing-mode="lr-tb" unicode-bidi="normal" text-decoration="none" transform="matrix(1 0 0 1 3670.33 1622)">macOS 11.4</text></g><g clip-path="url(#clip36)"><text fill="#7F7F7F" fill-opacity="1" font-family="Arial,Arial_MSFontService,sans-serif" font-style="normal" font-variant="normal" font-weight="400" font-stretch="normal" font-size="41" text-anchor="start" direction="ltr" writing-mode="lr-tb" unicode-bidi="normal" text-decoration="none" transform="matrix(1 0 0 1 3911.05 1622)">on</text></g><g clip-path="url(#clip37)"><text fill="#7F7F7F" fill-opacity="1" font-family="Arial,Arial_MSFontService,sans-serif" font-style="normal" font-variant="normal" font-weight="400" font-stretch="normal" font-size="41" text-anchor="start" direction="ltr" writing-mode="lr-tb" unicode-bidi="normal" text-decoration="none" transform="matrix(1 0 0 1 3670.33 1670)">Intel Core i9</text></g><g clip-path="url(#clip38)"><text fill="#7F7F7F" fill-opacity="1" font-family="Arial,Arial_MSFontService,sans-serif" font-style="normal" font-variant="normal" font-weight="400" font-stretch="normal" font-size="41" text-anchor="start" direction="ltr" writing-mode="lr-tb" unicode-bidi="normal" text-decoration="none" transform="matrix(1 0 0 1 3892.72 1670)">-</text></g><g clip-path="url(#clip39)"><text fill="#7F7F7F" fill-opacity="1" font-family="Arial,Arial_MSFontService,sans-serif" font-style="normal" font-variant="normal" font-weight="400" font-stretch="normal" font-size="41" text-anchor="start" direction="ltr" writing-mode="lr-tb" unicode-bidi="normal" text-decoration="none" transform="matrix(1 0 0 1 3670.33 1718)">9880H@2.30GHz</text></g></g></svg>