<svg viewBox="0 0 2462 1329" xmlns="http://www.w3.org/2000/svg" xmlns:xlink="http://www.w3.org/1999/xlink" overflow="hidden"><defs><clipPath id="clip0"><rect x="1640" y="481" width="2462" height="1329"/></clipPath><clipPath id="clip1"><rect x="1645" y="483" width="2457" height="1327"/></clipPath><clipPath id="clip2"><rect x="1802" y="659" width="1856" height="1060"/></clipPath><clipPath id="clip3"><rect x="1802" y="659" width="1856" height="1060"/></clipPath><clipPath id="clip4"><rect x="1802" y="659" width="1856" height="1060"/></clipPath><clipPath id="clip5"><rect x="1802" y="659" width="1856" height="1060"/></clipPath><clipPath id="clip6"><rect x="1802" y="659" width="1856" height="1060"/></clipPath><clipPath id="clip7"><rect x="1645" y="483" width="2457" height="1327"/></clipPath><clipPath id="clip8"><rect x="1645" y="483" width="2457" height="1327"/></clipPath><clipPath id="clip9"><rect x="1645" y="483" width="2457" height="1327"/></clipPath><clipPath id="clip10"><rect x="1645" y="483" width="2457" height="1327"/></clipPath><clipPath id="clip11"><rect x="1645" y="483" width="2457" height="1327"/></clipPath><clipPath id="clip12"><rect x="1645" y="483" width="2457" height="1327"/></clipPath><clipPath id="clip13"><rect x="1645" y="483" width="2457" height="1327"/></clipPath><clipPath id="clip14"><rect x="1645" y="483" width="2457" height="1327"/></clipPath><clipPath id="clip15"><rect x="1645" y="483" width="2457" height="1327"/></clipPath><clipPath id="clip16"><rect x="1645" y="483" width="2457" height="1327"/></clipPath><clipPath id="clip17"><rect x="1645" y="483" width="2457" height="1327"/></clipPath><clipPath id="clip18"><rect x="1645" y="483" width="2457" height="1327"/></clipPath><clipPath id="clip19"><rect x="1645" y="483" width="2457" height="1327"/></clipPath><clipPath id="clip20"><rect x="1645" y="483" width="2457" height="1327"/></clipPath><clipPath id="clip21"><rect x="1645" y="483" width="2457" height="1327"/></clipPath><clipPath id="clip22"><rect x="1645" y="483" width="2457" height="1327"/></clipPath><clipPath id="clip23"><rect x="1645" y="483" width="2457" height="1327"/></clipPath><clipPath id="clip24"><rect x="1645" y="483" width="2457" height="1327"/></clipPath><clipPath id="clip25"><rect x="1645" y="483" width="2457" height="1327"/></clipPath><clipPath id="clip26"><rect x="1645" y="483" width="2457" height="1327"/></clipPath><clipPath id="clip27"><rect x="1645" y="483" width="2457" height="1327"/></clipPath><clipPath id="clip28"><rect x="1645" y="483" width="2457" height="1327"/></clipPath></defs><g clip-path="url(#clip0)" transform="translate(-1640 -481)"><g clip-path="url(#clip1)"><path d="M1802.5 1540.55 3654.5 1540.55M1802.5 1364.54 3654.5 1364.54M1802.5 1187.54 3654.5 1187.54M1802.5 1011.53 3654.5 1011.53M1802.5 835.528 3654.5 835.528M1802.5 659.5 3654.5 659.5" stroke="#D9D9D9" stroke-width="3.4375" stroke-linecap="butt" stroke-linejoin="round" stroke-miterlimit="10" stroke-opacity="1" fill="none" fill-rule="nonzero"/></g><g clip-path="url(#clip2)"><path d="M1909.06 891.029 2052.07 891.029 2052.07 1716 1909.06 1716ZM2835.09 866.028 2978.1 866.028 2978.1 1716 2835.09 1716Z" fill="#4472C4" fill-rule="nonzero" fill-opacity="1"/></g><g clip-path="url(#clip3)"><path d="M2052.07 995.033 2194.07 995.033 2194.07 1716 2052.07 1716ZM2978.1 976.032 3120.1 976.032 3120.1 1716 2978.1 1716Z" fill="#ED7D31" fill-rule="nonzero" fill-opacity="1"/></g><g clip-path="url(#clip4)"><path d="M2194.07 1614.05 2337.08 1614.05 2337.08 1716 2194.07 1716ZM3120.1 859.028 3263.11 859.028 3263.11 1716 3120.1 1716Z" fill="#A5A5A5" fill-rule="nonzero" fill-opacity="1"/></g><g clip-path="url(#clip5)"><path d="M2337.08 1595.05 2479.08 1595.05 2479.08 1716 2337.08 1716ZM3263.11 1022.03 3405.11 1022.03 3405.11 1716 3263.11 1716Z" fill="#FFC000" fill-rule="nonzero" fill-opacity="1"/></g><g clip-path="url(#clip6)"><path d="M2479.08 1612.05 2622.09 1612.05 2622.09 1716 2479.08 1716ZM3405.11 993.033 3548.12 993.033 3548.12 1716 3405.11 1716Z" fill="#5B9BD5" fill-rule="nonzero" fill-opacity="1"/></g><g clip-path="url(#clip7)"><path d="M0 0 0.000360892 1057" stroke="#D9D9D9" stroke-width="3.4375" stroke-linecap="butt" stroke-linejoin="round" stroke-miterlimit="10" stroke-opacity="1" fill="none" fill-rule="evenodd" transform="matrix(1 0 0 -1 1802.5 1716.5)"/></g><g clip-path="url(#clip8)"><path d="M1802.5 1716.5 3654.5 1716.5" stroke="#D9D9D9" stroke-width="3.4375" stroke-linecap="butt" stroke-linejoin="round" stroke-miterlimit="10" stroke-opacity="1" fill="none" fill-rule="evenodd"/></g><g clip-path="url(#clip9)"><text fill="#595959" fill-opacity="1" font-family="Arial,Arial_MSFontService,sans-serif" font-style="normal" font-variant="normal" font-weight="400" font-stretch="normal" font-size="41" text-anchor="start" direction="ltr" writing-mode="lr-tb" unicode-bidi="normal" text-decoration="none" transform="matrix(1 0 0 1 1744.03 1728)">0</text></g><g clip-path="url(#clip10)"><text fill="#595959" fill-opacity="1" font-family="Arial,Arial_MSFontService,sans-serif" font-style="normal" font-variant="normal" font-weight="400" font-stretch="normal" font-size="41" text-anchor="start" direction="ltr" writing-mode="lr-tb" unicode-bidi="normal" text-decoration="none" transform="matrix(1 0 0 1 1675.21 1552)">1000</text></g><g clip-path="url(#clip11)"><text fill="#595959" fill-opacity="1" font-family="Arial,Arial_MSFontService,sans-serif" font-style="normal" font-variant="normal" font-weight="400" font-stretch="normal" font-size="41" text-anchor="start" direction="ltr" writing-mode="lr-tb" unicode-bidi="normal" text-decoration="none" transform="matrix(1 0 0 1 1675.21 1376)">2000</text></g><g clip-path="url(#clip12)"><text fill="#595959" fill-opacity="1" font-family="Arial,Arial_MSFontService,sans-serif" font-style="normal" font-variant="normal" font-weight="400" font-stretch="normal" font-size="41" text-anchor="start" direction="ltr" writing-mode="lr-tb" unicode-bidi="normal" text-decoration="none" transform="matrix(1 0 0 1 1675.21 1200)">3000</text></g><g clip-path="url(#clip13)"><text fill="#595959" fill-opacity="1" font-family="Arial,Arial_MSFontService,sans-serif" font-style="normal" font-variant="normal" font-weight="400" font-stretch="normal" font-size="41" text-anchor="start" direction="ltr" writing-mode="lr-tb" unicode-bidi="normal" text-decoration="none" transform="matrix(1 0 0 1 1675.21 1024)">4000</text></g><g clip-path="url(#clip14)"><text fill="#595959" fill-opacity="1" font-family="Arial,Arial_MSFontService,sans-serif" font-style="normal" font-variant="normal" font-weight="400" font-stretch="normal" font-size="41" text-anchor="start" direction="ltr" writing-mode="lr-tb" unicode-bidi="normal" text-decoration="none" transform="matrix(1 0 0 1 1675.21 848)">5000</text></g><g clip-path="url(#clip15)"><text fill="#595959" fill-opacity="1" font-family="Arial,Arial_MSFontService,sans-serif" font-style="normal" font-variant="normal" font-weight="400" font-stretch="normal" font-size="41" text-anchor="start" direction="ltr" writing-mode="lr-tb" unicode-bidi="normal" text-decoration="none" transform="matrix(1 0 0 1 1675.21 672)">6000</text></g><g clip-path="url(#clip16)"><text fill="#595959" fill-opacity="1" font-family="Arial,Arial_MSFontService,sans-serif" font-style="normal" font-variant="normal" font-weight="400" font-stretch="normal" font-size="37" text-anchor="start" direction="ltr" writing-mode="lr-tb" unicode-bidi="normal" text-decoration="none" transform="matrix(1 0 0 1 2173.69 1772)">BEFORE</text></g><g clip-path="url(#clip17)"><text fill="#595959" fill-opacity="1" font-family="Arial,Arial_MSFontService,sans-serif" font-style="normal" font-variant="normal" font-weight="400" font-stretch="normal" font-size="37" text-anchor="start" direction="ltr" writing-mode="lr-tb" unicode-bidi="normal" text-decoration="none" transform="matrix(1 0 0 1 3117.97 1772)">AFTER</text></g><g clip-path="url(#clip18)"><text fill="#595959" fill-opacity="1" font-family="Arial,Arial_MSFontService,sans-serif" font-style="normal" font-variant="normal" font-weight="700" font-stretch="normal" font-size="73" text-anchor="start" direction="ltr" writing-mode="lr-tb" unicode-bidi="normal" text-decoration="none" transform="matrix(1 0 0 1 1993.57 587)">Op/s of initializations, interpreted (higher is better)</text></g><g clip-path="url(#clip19)"><rect x="3726" y="1053" width="21" height="21" fill="#4472C4" fill-opacity="1"/></g><g clip-path="url(#clip20)"><text fill="#595959" fill-opacity="1" font-family="Arial,Arial_MSFontService,sans-serif" font-style="normal" font-variant="normal" font-weight="400" font-stretch="normal" font-size="41" text-anchor="start" direction="ltr" writing-mode="lr-tb" unicode-bidi="normal" text-decoration="none" transform="matrix(1 0 0 1 3755.38 1076)">Named property</text></g><g clip-path="url(#clip21)"><rect x="3726" y="1126" width="21" height="21" fill="#ED7D31" fill-opacity="1"/></g><g clip-path="url(#clip22)"><text fill="#595959" fill-opacity="1" font-family="Arial,Arial_MSFontService,sans-serif" font-style="normal" font-variant="normal" font-weight="400" font-stretch="normal" font-size="41" text-anchor="start" direction="ltr" writing-mode="lr-tb" unicode-bidi="normal" text-decoration="none" transform="matrix(1 0 0 1 3755.38 1149)">Symbol property</text></g><g clip-path="url(#clip23)"><rect x="3726" y="1199" width="21" height="21" fill="#A5A5A5" fill-opacity="1"/></g><g clip-path="url(#clip24)"><text fill="#595959" fill-opacity="1" font-family="Arial,Arial_MSFontService,sans-serif" font-style="normal" font-variant="normal" font-weight="400" font-stretch="normal" font-size="41" text-anchor="start" direction="ltr" writing-mode="lr-tb" unicode-bidi="normal" text-decoration="none" transform="matrix(1 0 0 1 3755.38 1222)">Public field</text></g><g clip-path="url(#clip25)"><rect x="3726" y="1273" width="21" height="19.9999" fill="#FFC000" fill-opacity="1"/></g><g clip-path="url(#clip26)"><text fill="#595959" fill-opacity="1" font-family="Arial,Arial_MSFontService,sans-serif" font-style="normal" font-variant="normal" font-weight="400" font-stretch="normal" font-size="41" text-anchor="start" direction="ltr" writing-mode="lr-tb" unicode-bidi="normal" text-decoration="none" transform="matrix(1 0 0 1 3755.38 1295)">Private field</text></g><g clip-path="url(#clip27)"><rect x="3726" y="1346" width="21" height="19.9999" fill="#5B9BD5" fill-opacity="1"/></g><g clip-path="url(#clip28)"><text fill="#595959" fill-opacity="1" font-family="Arial,Arial_MSFontService,sans-serif" font-style="normal" font-variant="normal" font-weight="400" font-stretch="normal" font-size="41" text-anchor="start" direction="ltr" writing-mode="lr-tb" unicode-bidi="normal" text-decoration="none" transform="matrix(1 0 0 1 3755.38 1368)">Computed field</text></g></g></svg>