<svg fill="none" stroke-linecap="square" stroke-miterlimit="10" width="600" height="371" xmlns="http://www.w3.org/2000/svg"><path fill="#fff" d="M0 0h600v371H0V0z"/><path stroke="#333" stroke-linecap="butt" d="M91.5 300.5h490"/><path stroke="#ccc" stroke-linecap="butt" d="M91.5 253.5h490M91.5 206.5h490M91.5 158.5h490M91.5 111.5h490"/><clipPath id="a"><path d="M91.55 111.783h489.9V300.45H91.55V111.783z"/></clipPath><path clip-path="url(#a)" d="M209 300h-43v-73a2 2 0 012-2h39a2 2 0 012 2z"/><path fill="#5891ad" clip-path="url(#a)" d="M209 300h-43v-73a2 2 0 012-2h39a2 2 0 012 2z"/><path clip-path="url(#a)" d="M418 300h-43V147a2 2 0 012-2h39a2 2 0 012 2z"/><path fill="#5891ad" clip-path="url(#a)" d="M418 300h-43V147a2 2 0 012-2h39a2 2 0 012 2z"/><path clip-path="url(#a)" d="M254 300h-43v-64a2 2 0 012-2h39a2 2 0 012 2z"/><path fill="#900" clip-path="url(#a)" d="M254 300h-43v-64a2 2 0 012-2h39a2 2 0 012 2z"/><path clip-path="url(#a)" d="M463 300h-43v-91a2 2 0 012-2h39a2 2 0 012 2z"/><path fill="#900" clip-path="url(#a)" d="M463 300h-43v-91a2 2 0 012-2h39a2 2 0 012 2z"/><path clip-path="url(#a)" d="M299 300h-43v-64a2 2 0 012-2h39a2 2 0 012 2z"/><path fill="#ff6f31" clip-path="url(#a)" d="M299 300h-43v-64a2 2 0 012-2h39a2 2 0 012 2z"/><path clip-path="url(#a)" d="M508 300h-43v-70a2 2 0 012-2h39a2 2 0 012 2z"/><path fill="#ff6f31" clip-path="url(#a)" d="M508 300h-43v-70a2 2 0 012-2h39a2 2 0 012 2z"/><path fill="#000" d="M147.875 342.434l.266-.828q.937.328 1.359.563-.11-1.063-.125-1.453h.86q-.016.578-.141 1.453.61-.313 1.39-.563l.266.828q-.75.25-1.453.328.344.313 1 1.11l-.703.5q-.344-.469-.797-1.266-.438.828-.766 1.266l-.687-.5q.672-.844.969-1.11-.75-.14-1.438-.328zm7.734 7.016v-7.578h-2.828v-1.016h6.813v1.016h-2.844v7.578h-1.14zm4.688 0v-8.594h1.047v3.078q.734-.843 1.86-.843.702 0 1.202.28.516.267.735.75.218.47.218 1.392v3.937h-1.047v-3.938q0-.796-.343-1.156-.344-.36-.969-.36-.469 0-.89.25-.407.235-.594.657-.172.406-.172 1.14v3.407h-1.047zm11.25-2l1.094.125q-.25.953-.953 1.484-.704.532-1.782.532-1.36 0-2.172-.844-.797-.844-.797-2.36 0-1.562.813-2.421.813-.875 2.094-.875 1.25 0 2.031.843.797.844.797 2.391v.281h-4.64q.062 1.031.577 1.578.516.532 1.297.532.578 0 .985-.297.422-.313.656-.969zm-3.453-1.703h3.469q-.063-.797-.391-1.188-.516-.609-1.313-.609-.734 0-1.234.484-.484.485-.531 1.313zm11.5 2.765l.156.922q-.453.094-.797.094-.578 0-.89-.172-.313-.187-.454-.484-.125-.297-.125-1.25v-3.578h-.765v-.813h.765v-1.547l1.047-.625v2.172h1.063v.813h-1.063v3.64q0 .453.047.578.063.125.188.204.125.078.359.078.188 0 .469-.031zm4.953-1.062l1.094.125q-.25.953-.953 1.484-.704.532-1.782.532-1.36 0-2.172-.844-.797-.844-.797-2.36 0-1.562.813-2.421.813-.875 2.094-.875 1.25 0 2.031.843.797.844.797 2.391v.281h-4.64q.062 1.031.577 1.578.516.532 1.297.532.578 0 .985-.297.422-.313.656-.969zm-3.453-1.703h3.469q-.063-.797-.391-1.188-.516-.609-1.313-.609-.734 0-1.234.484-.484.485-.531 1.313zm5.781 1.844l1.031-.157q.094.625.485.953.406.329 1.14.329.719 0 1.063-.282.36-.297.36-.703 0-.36-.313-.562-.22-.14-1.078-.36-1.157-.297-1.61-.5-.437-.218-.672-.593-.234-.375-.234-.844 0-.406.187-.766.188-.36.516-.594.25-.171.672-.296.422-.125.922-.125.719 0 1.265.218.563.203.828.563.266.36.36.953l-1.031.14q-.063-.468-.407-.734-.328-.281-.953-.281-.719 0-1.031.25-.313.234-.313.563 0 .203.125.359.141.172.407.281.156.063.937.266 1.125.312 1.563.5.437.187.687.547.25.359.25.906 0 .531-.312 1-.297.453-.875.719-.578.25-1.313.25-1.219 0-1.86-.5-.624-.516-.796-1.5zm8.719.921l.156.922q-.453.094-.797.094-.578 0-.89-.172-.313-.187-.454-.484-.125-.297-.125-1.25v-3.578h-.765v-.813h.765v-1.547l1.047-.625v2.172h1.063v.813h-1.063v3.64q0 .453.047.578.063.125.188.204.125.078.359.078.188 0 .469-.031zm4.844.938l-1.907-6.219h1.094l.984 3.594.375 1.328q.032-.094.328-1.281l.985-3.64h1.078l.938 3.609.312 1.187.36-1.203 1.062-3.594h1.031l-1.953 6.219h-1.094l-.984-3.734-.25-1.047-1.25 4.781h-1.11zm11.921-.766q-.593.5-1.14.703-.531.204-1.156.204-1.032 0-1.579-.5-.547-.5-.547-1.282 0-.453.204-.828.203-.39.547-.61.343-.233.765-.343.297-.094.938-.172 1.265-.14 1.875-.36v-.265q0-.656-.297-.922-.406-.343-1.203-.343-.735 0-1.094.265-.36.25-.531.906l-1.032-.14q.141-.656.47-1.063.327-.406.937-.625.609-.218 1.406-.218.797 0 1.297.187.5.188.734.469.234.281.328.719.047.265.047.968v1.407q0 1.468.063 1.859.078.39.28.75h-1.108q-.157-.328-.204-.766zm-.093-2.359q-.578.234-1.72.406-.655.094-.921.219-.266.11-.422.328-.14.219-.14.5 0 .422.312.703.328.281.938.281.609 0 1.078-.265.484-.266.703-.735.172-.359.172-1.046v-.391zm2.609 1.266l1.031-.157q.094.625.485.953.406.329 1.14.329.719 0 1.063-.282.36-.297.36-.703 0-.36-.313-.562-.22-.14-1.078-.36-1.157-.297-1.61-.5-.437-.218-.672-.593-.234-.375-.234-.844 0-.406.187-.766.188-.36.516-.594.25-.171.672-.296.422-.125.922-.125.719 0 1.265.218.563.203.828.563.266.36.36.953l-1.031.14q-.063-.468-.407-.734-.328-.281-.953-.281-.719 0-1.031.25-.313.234-.313.563 0 .203.125.359.141.172.407.281.156.063.937.266 1.125.312 1.563.5.437.187.687.547.25.359.25.906 0 .531-.312 1-.297.453-.875.719-.578.25-1.313.25-1.219 0-1.86-.5-.624-.516-.796-1.5zm9 0l1.031-.157q.094.625.485.953.406.329 1.14.329.719 0 1.063-.282.36-.297.36-.703 0-.36-.313-.562-.22-.14-1.078-.36-1.157-.297-1.61-.5-.437-.218-.672-.593-.234-.375-.234-.844 0-.406.187-.766.188-.36.516-.594.25-.171.672-.296.422-.125.922-.125.719 0 1.265.218.563.203.828.563.266.36.36.953l-1.031.14q-.063-.468-.407-.734-.328-.281-.953-.281-.719 0-1.031.25-.313.234-.313.563 0 .203.125.359.141.172.407.281.156.063.937.266 1.125.312 1.563.5.437.187.687.547.25.359.25.906 0 .531-.312 1-.297.453-.875.719-.578.25-1.313.25-1.219 0-1.86-.5-.624-.516-.796-1.5zm6.39 1.859v-8.594h1.063v8.594h-1.062zm3.032-7.375v-1.219h1.062v1.219h-1.062zm0 7.375v-6.219h1.062v6.219h-1.062zm2.797.516l1.031.156q.063.469.36.687.39.297 1.062.297.734 0 1.125-.297.406-.297.547-.812.094-.328.078-1.36-.688.813-1.719.813-1.281 0-1.984-.922-.703-.937-.703-2.219 0-.89.312-1.64.328-.766.938-1.172.609-.406 1.437-.406 1.11 0 1.828.89v-.75h.969v5.375q0 1.453-.297 2.063-.297.61-.937.953-.641.36-1.578.36-1.11 0-1.797-.5-.688-.5-.672-1.516zm.875-3.735q0 1.219.484 1.781.484.563 1.219.563.734 0 1.219-.563.5-.562.5-1.75 0-1.14-.516-1.718-.5-.578-1.219-.578-.703 0-1.203.578-.484.562-.484 1.687zm6.328 3.219v-8.594h1.047v3.078q.734-.843 1.86-.843.702 0 1.202.28.516.267.735.75.218.47.218 1.392v3.937h-1.047v-3.938q0-.796-.343-1.156-.344-.36-.969-.36-.469 0-.89.25-.407.235-.594.657-.172.406-.172 1.14v3.407h-1.047zm9.297-.938l.156.922q-.453.094-.797.094-.578 0-.89-.172-.313-.187-.454-.484-.125-.297-.125-1.25v-3.578h-.765v-.813h.765v-1.547l1.047-.625v2.172h1.063v.813h-1.063v3.64q0 .453.047.578.063.125.188.204.125.078.359.078.188 0 .469-.031zm.672.938v-8.594h1.062v8.594h-1.062zm2.984 2.39l-.125-.984q.344.094.61.094.343 0 .546-.125.219-.11.36-.313.093-.171.328-.796.015-.079.094-.25l-2.375-6.235h1.14l1.297 3.594q.25.688.453 1.453.188-.734.438-1.422l1.328-3.625h1.047l-2.36 6.328q-.39 1.016-.594 1.407-.28.53-.656.765-.36.25-.86.25-.296 0-.671-.14zm13.11-4.671l1.03.14q-.171 1.063-.874 1.672-.704.61-1.72.61-1.28 0-2.062-.829-.765-.843-.765-2.406 0-1 .328-1.75.344-.765 1.015-1.14.688-.375 1.5-.375 1 0 1.641.515.656.5.844 1.453l-1.031.157q-.141-.625-.516-.938-.375-.328-.906-.328-.797 0-1.297.578-.5.563-.5 1.797 0 1.266.484 1.828.485.563 1.25.563.625 0 1.031-.375.422-.375.547-1.172zm1.937 2.281v-8.594h1.047v3.078q.734-.843 1.86-.843.702 0 1.202.28.516.267.735.75.218.47.218 1.392v3.937h-1.046v-3.938q0-.796-.344-1.156-.344-.36-.969-.36-.469 0-.89.25-.407.235-.594.657-.172.406-.172 1.14v3.407h-1.047zm11.062-.766q-.593.5-1.14.703-.531.204-1.156.204-1.032 0-1.579-.5-.546-.5-.546-1.282 0-.453.203-.828.203-.39.546-.61.344-.233.766-.343.297-.094.938-.172 1.265-.14 1.875-.36v-.265q0-.656-.297-.922-.406-.343-1.203-.343-.735 0-1.094.265-.36.25-.531.906l-1.032-.14q.141-.656.47-1.063.327-.406.937-.625.609-.218 1.406-.218.797 0 1.297.187.5.188.734.469.235.281.328.719.047.265.047.968v1.407q0 1.468.063 1.859.078.39.28.75h-1.108q-.157-.328-.204-.766zm-.093-2.359q-.579.234-1.72.406-.655.094-.921.219-.266.11-.422.328-.14.219-.14.5 0 .422.312.703.328.281.938.281.609 0 1.078-.265.484-.266.703-.735.172-.359.172-1.046v-.391zm3.03 3.125v-6.219h.938v.875q.688-1.015 1.985-1.015.562 0 1.031.203.484.203.719.531.234.328.328.766.047.296.047 1.03v3.829h-1.047v-3.781q0-.656-.125-.969-.125-.313-.438-.5-.312-.203-.734-.203-.672 0-1.172.437-.484.422-.484 1.61v3.406h-1.047zm6.798.516l1.031.156q.063.469.36.687.39.297 1.062.297.734 0 1.125-.297.406-.297.547-.812.094-.328.078-1.36-.688.813-1.719.813-1.281 0-1.984-.922-.703-.937-.703-2.219 0-.89.312-1.64.328-.766.938-1.172.609-.406 1.437-.406 1.11 0 1.828.89v-.75h.969v5.375q0 1.453-.297 2.063-.297.61-.937.953-.641.36-1.579.36-1.109 0-1.796-.5-.688-.5-.672-1.516zm.875-3.735q0 1.219.484 1.781.485.563 1.219.563.734 0 1.219-.563.5-.562.5-1.75 0-1.14-.516-1.718-.5-.578-1.219-.578-.703 0-1.203.578-.484.562-.484 1.687zm10.578 1.219l1.094.125q-.25.953-.954 1.484-.703.532-1.78.532-1.36 0-2.173-.844-.796-.844-.796-2.36 0-1.562.812-2.421.813-.875 2.094-.875 1.25 0 2.031.843.797.844.797 2.391v.281h-4.64q.062 1.031.577 1.578.516.532 1.297.532.578 0 .985-.297.421-.313.656-.969zm-3.453-1.703h3.469q-.063-.797-.391-1.188-.516-.609-1.313-.609-.734 0-1.234.484-.484.485-.531 1.313zm10.234 3.703v-.781q-.594.922-1.734.922-.75 0-1.375-.407-.625-.422-.969-1.156t-.344-1.687q0-.922.313-1.688.312-.766.937-1.156.625-.406 1.39-.406.563 0 1 .234.438.234.72.61v-3.079h1.046v8.594h-.984zM307 346.34q0 1.204.5 1.798.5.578 1.188.578.687 0 1.171-.563.485-.562.485-1.719 0-1.28-.5-1.875-.485-.593-1.203-.593-.704 0-1.172.578-.469.562-.469 1.797zm11.594 2.173l.156.921q-.453.094-.797.094-.578 0-.89-.172-.313-.187-.454-.484-.125-.297-.125-1.25v-3.578h-.765v-.813h.765v-1.547l1.047-.625v2.172h1.063v.813h-1.063v3.64q0 .453.047.578.063.125.188.204.125.078.359.078.188 0 .469-.031zm.312-2.172q0-1.735.953-2.563.797-.687 1.954-.687 1.28 0 2.093.843.828.828.828 2.313 0 1.203-.359 1.89-.36.688-1.063 1.079-.687.375-1.5.375-1.296 0-2.109-.829-.797-.843-.797-2.421zm1.078 0q0 1.187.516 1.78.531.595 1.313.595.796 0 1.312-.594t.516-1.813q0-1.156-.532-1.75-.515-.593-1.296-.593-.782 0-1.313.593-.516.578-.516 1.782zm13.375 2.343q-.593.5-1.14.703-.531.204-1.156.204-1.032 0-1.579-.5-.546-.5-.546-1.282 0-.453.203-.828.203-.39.546-.61.344-.233.766-.343.297-.094.938-.172 1.265-.14 1.875-.36v-.265q0-.656-.297-.922-.406-.343-1.203-.343-.735 0-1.094.265-.36.25-.531.906l-1.032-.14q.141-.656.47-1.063.327-.406.937-.625.609-.218 1.406-.218.797 0 1.297.187.5.188.734.469.235.281.328.719.047.265.047.968v1.407q0 1.468.063 1.859.078.39.28.75h-1.108q-.157-.328-.204-.766zm-.093-2.359q-.579.234-1.72.406-.655.094-.921.219-.266.11-.422.328-.14.219-.14.5 0 .422.312.703.328.281.938.281.609 0 1.078-.265.484-.266.703-.735.172-.359.172-1.046v-.391zm4.75 3.125l-2.36-6.219h1.11l1.343 3.719q.204.61.391 1.25.14-.484.39-1.172l1.391-3.797h1.078L339 349.45h-.984zm3.89-3.11q0-1.734.953-2.562.797-.687 1.954-.687 1.28 0 2.093.843.828.828.828 2.313 0 1.203-.359 1.89-.36.688-1.063 1.079-.687.375-1.5.375-1.296 0-2.109-.829-.797-.843-.797-2.421zm1.078 0q0 1.188.516 1.782.531.594 1.313.594.796 0 1.312-.594t.516-1.813q0-1.156-.532-1.75-.515-.593-1.296-.593-.782 0-1.313.593-.516.578-.516 1.782zm6.313-4.265v-1.219h1.062v1.219h-1.062zm0 7.375v-6.219h1.062v6.219h-1.062zm7.031 0v-.781q-.594.922-1.734.922-.75 0-1.375-.407-.625-.422-.969-1.156t-.344-1.687q0-.922.313-1.688.312-.766.937-1.156.625-.406 1.39-.406.563 0 1 .234.438.234.72.61v-3.079h1.046v8.594h-.984zM353 346.34q0 1.204.5 1.798.5.578 1.188.578.687 0 1.171-.563.485-.562.485-1.719 0-1.28-.5-1.875-.485-.593-1.203-.593-.704 0-1.172.578-.469.562-.469 1.797zm13.36 2.344q-.594.5-1.141.703-.531.204-1.156.204-1.032 0-1.579-.5-.546-.5-.546-1.282 0-.453.203-.828.203-.39.546-.61.344-.233.766-.343.297-.094.938-.172 1.265-.14 1.875-.36v-.265q0-.656-.297-.922-.406-.343-1.203-.343-.735 0-1.094.265-.36.25-.531.906l-1.032-.14q.141-.656.47-1.063.327-.406.937-.625.609-.218 1.406-.218.797 0 1.297.187.5.188.734.469.235.281.328.719.047.265.047.968v1.407q0 1.468.063 1.859.078.39.28.75h-1.108q-.157-.328-.204-.766zm-.094-2.359q-.579.234-1.72.406-.655.094-.921.219-.266.11-.422.328-.14.219-.14.5 0 .422.312.703.328.281.938.281.609 0 1.078-.265.484-.266.703-.735.172-.359.172-1.046v-.391zm3.03 3.125v-6.219h.938v.875q.688-1.015 1.985-1.015.562 0 1.031.203.484.203.719.531.234.328.328.766.047.296.047 1.03v3.829h-1.047v-3.781q0-.656-.125-.969-.125-.313-.438-.5-.312-.203-.734-.203-.672 0-1.172.437-.484.422-.484 1.61v3.406h-1.047zm6.954 2.39l-.125-.984q.344.094.61.094.343 0 .546-.125.219-.11.36-.313.093-.171.328-.796.015-.079.094-.25l-2.375-6.235h1.14l1.297 3.594q.25.688.453 1.453.188-.734.438-1.422l1.328-3.625h1.047l-2.36 6.328q-.39 1.016-.594 1.407-.28.53-.656.765-.36.25-.86.25-.296 0-.671-.14zm13.11-3.156q-.594.5-1.141.703-.531.204-1.156.204-1.032 0-1.579-.5-.546-.5-.546-1.282 0-.453.203-.828.203-.39.546-.61.344-.233.766-.343.297-.094.938-.172 1.265-.14 1.875-.36v-.265q0-.656-.297-.922-.406-.343-1.203-.343-.735 0-1.094.265-.36.25-.531.906l-1.032-.14q.141-.656.47-1.063.327-.406.937-.625.609-.218 1.406-.218.797 0 1.297.187.5.188.734.469.235.281.328.719.047.265.047.968v1.407q0 1.468.063 1.859.078.39.28.75h-1.108q-.157-.328-.204-.766zm-.094-2.359q-.579.234-1.72.406-.655.094-.921.219-.266.11-.422.328-.14.219-.14.5 0 .422.312.703.328.281.938.281.609 0 1.078-.265.484-.266.703-.735.172-.359.172-1.046v-.391zm3.015 3.125v-6.219h.953v.938q.36-.656.657-.86.312-.218.687-.218.531 0 1.078.328l-.36.984q-.39-.234-.765-.234-.36 0-.64.219-.266.203-.375.578-.188.562-.188 1.218v3.266h-1.047zm3.813.516l1.031.156q.063.469.36.687.39.297 1.062.297.734 0 1.125-.297.406-.297.547-.812.094-.328.078-1.36-.688.813-1.719.813-1.281 0-1.984-.922-.703-.937-.703-2.219 0-.89.312-1.64.328-.766.938-1.172.609-.406 1.437-.406 1.11 0 1.828.89v-.75h.969v5.375q0 1.453-.297 2.063-.297.61-.937.953-.641.36-1.579.36-1.109 0-1.796-.5-.688-.5-.672-1.516zm.875-3.735q0 1.219.484 1.781.485.563 1.219.563.734 0 1.219-.563.5-.562.5-1.75 0-1.14-.516-1.718-.5-.578-1.219-.578-.703 0-1.203.578-.484.562-.484 1.687zm10.406 3.219v-.922q-.734 1.063-1.984 1.063-.547 0-1.032-.204-.468-.218-.703-.53-.234-.329-.328-.798-.062-.297-.062-.984v-3.844h1.062v3.453q0 .813.063 1.11.093.406.406.656.328.234.812.234.47 0 .875-.234.422-.25.594-.672.188-.422.188-1.219v-3.328h1.046v6.219h-.937zm2.922 0v-6.219h.937v.875q.297-.469.782-.734.484-.281 1.109-.281.688 0 1.125.28.453.282.625.798.75-1.078 1.922-1.078.937 0 1.422.515.5.5.5 1.578v4.266h-1.047v-3.922q0-.625-.11-.906-.093-.281-.359-.453-.265-.172-.64-.172-.657 0-1.094.437-.422.438-.422 1.407v3.609h-1.063v-4.047q0-.703-.265-1.047-.25-.36-.828-.36-.454 0-.829.235-.375.235-.546.688-.172.453-.172 1.297v3.234h-1.047zm14.25-2l1.094.125q-.25.953-.954 1.484-.703.532-1.78.532-1.36 0-2.173-.844-.796-.844-.796-2.36 0-1.562.812-2.421.813-.875 2.094-.875 1.25 0 2.031.843.797.844.797 2.391v.281h-4.64q.062 1.031.577 1.578.516.532 1.297.532.578 0 .985-.297.421-.313.656-.969zm-3.453-1.703h3.469q-.063-.797-.391-1.188-.516-.609-1.313-.609-.734 0-1.234.484-.484.485-.531 1.313zm6.203 3.703v-6.219h.937v.875q.688-1.015 1.985-1.015.562 0 1.031.203.484.203.719.531.234.328.328.766.047.296.047 1.03v3.829h-1.047v-3.781q0-.656-.125-.969-.125-.313-.438-.5-.312-.203-.734-.203-.672 0-1.172.437-.484.422-.484 1.61v3.406h-1.047zm9.297-.938l.156.922q-.453.094-.797.094-.578 0-.89-.172-.313-.187-.454-.484-.125-.297-.125-1.25v-3.578h-.765v-.813h.765v-1.547l1.047-.625v2.172h1.063v.813h-1.063v3.64q0 .453.047.578.063.125.188.204.125.078.359.078.188 0 .469-.031zm.281-.921l1.031-.157q.094.625.485.953.406.329 1.14.329.719 0 1.063-.282.36-.297.36-.703 0-.36-.313-.562-.22-.14-1.079-.36-1.156-.297-1.609-.5-.437-.218-.672-.593-.234-.375-.234-.844 0-.406.187-.766.188-.36.516-.594.25-.171.672-.296.422-.125.922-.125.719 0 1.265.218.563.203.829.563.265.36.359.953l-1.031.14q-.063-.468-.407-.734-.328-.281-.953-.281-.719 0-1.031.25-.313.234-.313.563 0 .203.125.359.141.172.407.281.156.063.937.266 1.125.312 1.563.5.437.187.687.547.25.359.25.906 0 .531-.312 1-.297.453-.875.719-.578.25-1.313.25-1.219 0-1.86-.5-.624-.516-.796-1.5zm9 0l1.031-.157q.094.625.485.953.406.329 1.14.329.719 0 1.063-.282.36-.297.36-.703 0-.36-.313-.562-.22-.14-1.079-.36-1.156-.297-1.609-.5-.437-.218-.672-.593-.234-.375-.234-.844 0-.406.187-.766.188-.36.516-.594.25-.171.672-.296.422-.125.922-.125.719 0 1.265.218.563.203.829.563.265.36.359.953l-1.031.14q-.063-.468-.407-.734-.328-.281-.953-.281-.719 0-1.031.25-.313.234-.313.563 0 .203.125.359.141.172.407.281.156.063.937.266 1.125.312 1.563.5.437.187.687.547.25.359.25.906 0 .531-.312 1-.297.453-.875.719-.578.25-1.313.25-1.219 0-1.86-.5-.624-.516-.796-1.5zm6.422-5.516v-1.219h1.062v1.219h-1.062zm0 7.375v-6.219h1.062v6.219h-1.062zm2.437 0v-.86l3.97-4.546q-.688.031-1.204.031h-2.531v-.844h5.094v.688l-3.375 3.953-.657.719q.719-.047 1.328-.047h2.891v.906h-5.516zm10.813-2l1.094.125q-.25.953-.954 1.484-.703.532-1.78.532-1.36 0-2.173-.844-.796-.844-.796-2.36 0-1.562.812-2.421.813-.875 2.094-.875 1.25 0 2.031.843.797.844.797 2.391v.281h-4.64q.062 1.031.577 1.578.516.532 1.297.532.578 0 .985-.297.421-.313.656-.969zm-3.453-1.703h3.469q-.063-.797-.391-1.188-.516-.609-1.313-.609-.734 0-1.234.484-.484.485-.531 1.313zm9.203 3.703v-6.219h.937v.875q.297-.469.782-.734.484-.281 1.109-.281.688 0 1.125.28.453.282.625.798.75-1.078 1.922-1.078.937 0 1.422.515.5.5.5 1.578v4.266h-1.047v-3.922q0-.625-.11-.906-.093-.281-.359-.453-.265-.172-.64-.172-.657 0-1.094.437-.422.438-.422 1.407v3.609h-1.063v-4.047q0-.703-.265-1.047-.25-.36-.828-.36-.454 0-.829.235-.375.235-.546.688-.172.453-.172 1.297v3.234h-1.047zm10-7.375v-1.219h1.062v1.219h-1.062zm0 7.375v-6.219h1.062v6.219h-1.062zm2.578-1.86l1.031-.156q.094.625.485.953.406.329 1.14.329.719 0 1.063-.282.36-.297.36-.703 0-.36-.313-.562-.22-.14-1.079-.36-1.156-.297-1.609-.5-.437-.218-.672-.593-.234-.375-.234-.844 0-.406.187-.766.188-.36.516-.594.25-.171.672-.296.422-.125.922-.125.719 0 1.265.218.563.203.829.563.265.36.359.953l-1.031.14q-.063-.468-.407-.734-.328-.281-.953-.281-.719 0-1.031.25-.313.234-.313.563 0 .203.125.359.141.172.407.281.156.063.937.266 1.125.312 1.563.5.437.187.687.547.25.359.25.906 0 .531-.312 1-.297.453-.875.719-.578.25-1.313.25-1.219 0-1.86-.5-.624-.516-.796-1.5zm6.422 1.86v-6.219h.937v.875q.297-.469.782-.734.484-.281 1.109-.281.688 0 1.125.28.453.282.625.798.75-1.078 1.922-1.078.937 0 1.422.515.5.5.5 1.578v4.266h-1.047v-3.922q0-.625-.11-.906-.093-.281-.359-.453-.265-.172-.64-.172-.657 0-1.094.437-.422.438-.422 1.407v3.609h-1.063v-4.047q0-.703-.265-1.047-.25-.36-.828-.36-.454 0-.829.235-.375.235-.546.688-.172.453-.172 1.297v3.234h-1.047zm14.062-.766q-.593.5-1.14.703-.531.204-1.156.204-1.032 0-1.579-.5-.546-.5-.546-1.282 0-.453.203-.828.203-.39.546-.61.344-.233.766-.343.297-.094.938-.172 1.265-.14 1.875-.36v-.265q0-.656-.297-.922-.406-.343-1.203-.343-.735 0-1.094.265-.36.25-.531.906l-1.032-.14q.141-.656.47-1.063.327-.406.937-.625.609-.218 1.406-.218.797 0 1.297.187.5.188.734.469.235.281.328.719.047.265.047.968v1.407q0 1.468.063 1.859.078.39.28.75h-1.108q-.157-.328-.204-.766zm-.093-2.359q-.579.234-1.72.406-.655.094-.921.219-.266.11-.422.328-.14.219-.14.5 0 .422.312.703.328.281.938.281.609 0 1.078-.265.484-.266.703-.735.172-.359.172-1.046v-.391zm5.328 2.188l.156.921q-.453.094-.797.094-.578 0-.89-.172-.313-.187-.454-.484-.125-.297-.125-1.25v-3.578h-.765v-.813h.765v-1.547l1.047-.625v2.172h1.063v.813h-1.063v3.64q0 .453.047.578.063.125.188.204.125.078.359.078.188 0 .469-.031zm4.765-1.344l1.032.14q-.172 1.063-.875 1.672-.703.61-1.72.61-1.28 0-2.062-.829-.765-.843-.765-2.406 0-1 .328-1.75.344-.765 1.015-1.14.688-.375 1.5-.375 1 0 1.641.515.656.5.844 1.453l-1.031.157q-.141-.625-.516-.938-.375-.328-.906-.328-.797 0-1.297.578-.5.563-.5 1.797 0 1.266.484 1.828.485.563 1.25.563.625 0 1.032-.375.421-.375.546-1.172zm1.938 2.281v-8.594h1.047v3.078q.734-.843 1.86-.843.702 0 1.202.28.516.267.735.75.218.47.218 1.392v3.937h-1.047v-3.938q0-.796-.343-1.156-.344-.36-.969-.36-.469 0-.89.25-.407.235-.594.657-.172.406-.172 1.14v3.407h-1.047zm7.297 0v-1.203h1.203v1.203h-1.203zM32.081 252.804q-1.11.875-2.578 1.485-1.484.593-3.062.593-1.391 0-2.672-.437-1.485-.531-2.953-1.64v-.75q1.218.702 1.734.937.813.359 1.688.562 1.093.25 2.203.25 2.828 0 5.64-1.75v.75zm-9.906-1.984h-1.219v-1.063h1.219v1.063zm7.375 0h-6.219v-1.063h6.219v1.063zm0-3h-6.219v-.938h.875q-1.015-.687-1.015-1.984 0-.563.203-1.031.203-.485.531-.72.328-.233.766-.327.297-.047 1.03-.047h3.829v1.047h-3.781q-.656 0-.969.125-.312.125-.5.437-.203.313-.203.735 0 .672.437 1.172.422.484 1.61.484h3.406v1.047zm0-10h-6.219v-.938h.875q-.468-.297-.734-.781-.281-.484-.281-1.11 0-.687.28-1.124.282-.453.798-.625-1.078-.75-1.078-1.922 0-.938.515-1.422.5-.5 1.578-.5h4.266v1.047h-3.922q-.625 0-.906.11-.281.093-.453.359-.172.265-.172.64 0 .656.437 1.094.438.422 1.407.422h3.609v1.062h-4.047q-.703 0-1.047.266-.36.25-.36.828 0 .453.235.828.235.375.688.547.453.172 1.297.172h3.234v1.047zm-7.375-10h-1.219v-1.063h1.219v1.063zm7.375 0h-6.219v-1.063h6.219v1.063zm0-2.969h-8.594v-1.062h8.594v1.062zm-7.375-3.031h-1.219v-1.063h1.219v1.063zm7.375 0h-6.219v-1.063h6.219v1.063zm-1.86-2.578l-.156-1.032q.625-.093.954-.484.328-.406.328-1.14 0-.72-.282-1.063-.296-.36-.703-.36-.36 0-.562.313-.14.219-.36 1.078-.296 1.156-.5 1.61-.218.437-.593.671-.375.235-.844.235-.406 0-.766-.188-.36-.187-.593-.515-.172-.25-.297-.672-.125-.422-.125-.922 0-.719.218-1.266.204-.562.563-.828.36-.265.953-.36l.14 1.032q-.468.063-.734.406-.281.328-.281.953 0 .72.25 1.032.234.312.563.312.203 0 .359-.125.172-.14.281-.406.063-.156.266-.938.312-1.125.5-1.562.187-.438.547-.688.359-.25.906-.25.531 0 1 .313.453.297.719.875.25.578.25 1.312 0 1.22-.5 1.86-.516.625-1.5.797zm-.14-10.672l.125-1.094q.953.25 1.484.953.532.703.532 1.781 0 1.36-.844 2.172-.844.797-2.36.797-1.562 0-2.421-.812-.875-.813-.875-2.094 0-1.25.843-2.031.844-.797 2.391-.797h.281v4.64q1.032-.062 1.578-.578.532-.515.532-1.297 0-.578-.297-.984-.313-.422-.969-.656zm-1.703 3.453v-3.469q-.797.063-1.188.39-.609.516-.609 1.313 0 .735.484 1.235.485.484 1.313.53zm1.422-10.266l.14-1.031q1.063.172 1.672.875.61.703.61 1.719 0 1.281-.828 2.062-.844.766-2.407.766-1 0-1.75-.328-.765-.344-1.14-1.016-.375-.687-.375-1.5 0-1 .515-1.64.5-.657 1.453-.844l.157 1.031q-.625.14-.938.516-.328.375-.328.906 0 .797.578 1.297.563.5 1.797.5 1.266 0 1.828-.485.563-.484.563-1.25 0-.625-.375-1.03-.375-.423-1.172-.548zm-.828-1.547q-1.735 0-2.563-.953-.687-.797-.687-1.953 0-1.281.843-2.094.829-.828 2.313-.828 1.203 0 1.89.36.688.359 1.079 1.062.375.688.375 1.5 0 1.297-.828 2.11-.844.796-2.422.796zm0-1.078q1.187 0 1.78-.515.595-.532.595-1.313 0-.797-.594-1.312-.594-.516-1.813-.516-1.156 0-1.75.531-.593.516-.593 1.297 0 .781.593 1.313.579.515 1.782.515zm3.109-6.312h-6.219v-.938h.875q-1.015-.687-1.015-1.984 0-.563.203-1.031.203-.485.531-.72.328-.233.766-.327.297-.047 1.03-.047h3.829v1.047h-3.781q-.656 0-.969.125-.312.125-.5.437-.203.313-.203.735 0 .672.437 1.172.422.484 1.61.484h3.406v1.047zm0-11.031h-.781q.922.593.922 1.734 0 .75-.407 1.375-.421.625-1.156.969-.734.343-1.687.343-.922 0-1.688-.312-.765-.313-1.156-.938-.406-.625-.406-1.39 0-.563.234-1 .234-.438.61-.719h-3.079v-1.047h8.594v.985zm-3.11 3.328q1.204 0 1.798-.5.578-.5.578-1.188 0-.687-.563-1.172-.562-.484-1.719-.484-1.28 0-1.875.5-.593.484-.593 1.203 0 .703.578 1.172.562.469 1.797.469zm1.25-5.875l-.156-1.032q.625-.093.954-.484.328-.406.328-1.14 0-.72-.282-1.063-.296-.36-.703-.36-.36 0-.562.313-.14.219-.36 1.078-.296 1.156-.5 1.61-.218.437-.593.671-.375.235-.844.235-.406 0-.766-.188-.36-.187-.593-.515-.172-.25-.297-.672-.125-.422-.125-.922 0-.719.218-1.266.204-.562.563-.828.36-.265.953-.36l.14 1.032q-.468.063-.734.406-.281.328-.281.953 0 .72.25 1.032.234.312.563.312.203 0 .359-.125.172-.14.281-.406.063-.156.266-.938.312-1.125.5-1.562.187-.438.547-.688.359-.25.906-.25.531 0 1 .313.453.297.719.875.25.578.25 1.312 0 1.22-.5 1.86-.516.625-1.5.797zm4.391-7.11v.75q-2.812-1.75-5.64-1.75-1.094 0-2.188.25-.875.203-1.687.563-.516.234-1.75.937v-.75q1.468-1.093 2.953-1.625 1.281-.453 2.672-.453 1.578 0 3.062.61 1.469.609 2.578 1.468zM79.05 300.216q0-1.532.313-2.454.312-.937.921-1.437.625-.5 1.563-.5.687 0 1.203.281.531.281.875.813.344.515.531 1.265.188.75.188 2.032 0 1.515-.313 2.437-.297.922-.922 1.438-.609.5-1.562.5-1.234 0-1.953-.891-.844-1.063-.844-3.484zm1.078 0q0 2.109.5 2.812.5.703 1.219.703.734 0 1.219-.703.5-.703.5-2.812 0-2.125-.5-2.813-.485-.703-1.235-.703-.719 0-1.156.61-.547.78-.547 2.906zM63.597 256.268v1.015h-5.688q0-.375.125-.734.22-.578.688-1.14.484-.563 1.39-1.298 1.407-1.156 1.891-1.828.5-.672.5-1.265 0-.625-.453-1.047-.453-.438-1.172-.438-.766 0-1.219.453-.453.454-.468 1.266l-1.079-.11q.11-1.218.829-1.843.734-.64 1.968-.64 1.235 0 1.953.687.72.687.72 1.703 0 .516-.22 1.016-.203.484-.703 1.046-.484.547-1.609 1.5-.953.797-1.234 1.094-.266.281-.438.563h4.219zm1.453-1.235l1.11-.093q.124.812.562 1.218.453.407 1.094.407.75 0 1.28-.579.532-.578.532-1.515 0-.906-.516-1.422-.5-.531-1.328-.531-.5 0-.922.234-.406.234-.64.594l-.984-.125.828-4.406h4.28v1H66.91l-.453 2.312q.766-.547 1.61-.547 1.125 0 1.89.781.781.782.781 2.016 0 1.156-.671 2.016-.829 1.031-2.25 1.031-1.172 0-1.922-.656-.735-.657-.844-1.735zm7-1.984q0-1.531.313-2.453.312-.938.921-1.438.625-.5 1.563-.5.687 0 1.203.282.531.28.875.812.344.516.531 1.266.188.75.188 2.03 0 1.517-.313 2.438-.297.922-.922 1.438-.609.5-1.562.5-1.234 0-1.953-.89-.844-1.063-.844-3.485zm1.078 0q0 2.11.5 2.812.5.704 1.219.704.734 0 1.219-.704.5-.703.5-2.812 0-2.125-.5-2.813-.485-.703-1.235-.703-.719 0-1.156.61-.547.78-.547 2.906zm5.922 0q0-1.531.313-2.453.312-.938.921-1.438.625-.5 1.563-.5.687 0 1.203.282.531.28.875.812.344.516.531 1.266.188.75.188 2.03 0 1.517-.313 2.438-.297.922-.922 1.438-.609.5-1.562.5-1.234 0-1.953-.89-.844-1.063-.844-3.485zm1.078 0q0 2.11.5 2.812.5.704 1.219.704.734 0 1.219-.704.5-.703.5-2.812 0-2.125-.5-2.813-.485-.703-1.235-.703-.719 0-1.156.61-.547.78-.547 2.906zM58.05 207.867l1.11-.094q.124.812.562 1.219.453.406 1.094.406.75 0 1.28-.578.532-.578.532-1.516 0-.906-.516-1.422-.5-.531-1.328-.531-.5 0-.922.234-.406.235-.64.594l-.985-.125.829-4.406h4.28v1H59.91l-.453 2.312q.766-.546 1.61-.546 1.125 0 1.89.78.781.782.781 2.016 0 1.157-.671 2.016-.829 1.031-2.25 1.031-1.172 0-1.922-.656-.735-.656-.844-1.734zm7-1.985q0-1.531.313-2.453.312-.937.921-1.437.625-.5 1.563-.5.687 0 1.203.28.531.282.875.813.344.516.531 1.266.188.75.188 2.031 0 1.516-.313 2.438-.297.922-.922 1.437-.609.5-1.562.5-1.234 0-1.953-.89-.844-1.063-.844-3.485zm1.078 0q0 2.11.5 2.813.5.703 1.219.703.734 0 1.219-.703.5-.703.5-2.813 0-2.125-.5-2.812-.485-.703-1.235-.703-.719 0-1.156.609-.547.781-.547 2.906zm5.922 0q0-1.531.313-2.453.312-.937.921-1.437.625-.5 1.563-.5.687 0 1.203.28.531.282.875.813.344.516.531 1.266.188.75.188 2.031 0 1.516-.313 2.438-.297.922-.922 1.437-.609.5-1.562.5-1.234 0-1.953-.89-.844-1.063-.844-3.485zm1.078 0q0 2.11.5 2.813.5.703 1.219.703.734 0 1.219-.703.5-.703.5-2.813 0-2.125-.5-2.812-.485-.703-1.235-.703-.719 0-1.156.609-.547.781-.547 2.906zm5.922 0q0-1.531.313-2.453.312-.937.921-1.437.625-.5 1.563-.5.687 0 1.203.28.531.282.875.813.344.516.531 1.266.188.75.188 2.031 0 1.516-.313 2.438-.297.922-.922 1.437-.609.5-1.562.5-1.234 0-1.953-.89-.844-1.063-.844-3.485zm1.078 0q0 2.11.5 2.813.5.703 1.219.703.734 0 1.219-.703.5-.703.5-2.813 0-2.125-.5-2.812-.485-.703-1.235-.703-.719 0-1.156.609-.547.781-.547 2.906zM58.112 155.481v-1.015h5.563v.828q-.813.875-1.625 2.328-.797 1.437-1.234 2.969-.329 1.078-.407 2.359h-1.093q.015-1.016.39-2.453.39-1.438 1.094-2.766.719-1.328 1.531-2.25h-4.219zm6.938 5.219l1.11-.094q.124.813.562 1.219.453.406 1.094.406.75 0 1.28-.578.532-.578.532-1.516 0-.906-.516-1.421-.5-.532-1.328-.532-.5 0-.922.235-.406.234-.64.593l-.984-.125.828-4.406h4.28v1H66.91l-.453 2.313q.766-.547 1.61-.547 1.125 0 1.89.781.781.781.781 2.016 0 1.156-.671 2.015-.829 1.032-2.25 1.032-1.172 0-1.922-.657-.735-.656-.844-1.734zm7-1.984q0-1.532.313-2.454.312-.937.921-1.437.625-.5 1.563-.5.687 0 1.203.281.531.281.875.813.344.515.531 1.265.188.75.188 2.032 0 1.515-.313 2.437-.297.922-.922 1.438-.609.5-1.562.5-1.234 0-1.953-.891-.844-1.063-.844-3.484zm1.078 0q0 2.109.5 2.812.5.703 1.219.703.734 0 1.219-.703.5-.703.5-2.812 0-2.125-.5-2.813-.485-.703-1.235-.703-.719 0-1.156.61-.547.78-.547 2.906zm5.922 0q0-1.532.313-2.454.312-.937.921-1.437.625-.5 1.563-.5.687 0 1.203.281.531.281.875.813.344.515.531 1.265.188.75.188 2.032 0 1.515-.313 2.437-.297.922-.922 1.438-.609.5-1.562.5-1.234 0-1.953-.891-.844-1.063-.844-3.484zm1.078 0q0 2.109.5 2.812.5.703 1.219.703.734 0 1.219-.703.5-.703.5-2.812 0-2.125-.5-2.813-.485-.703-1.235-.703-.719 0-1.156.61-.547.78-.547 2.906zM55.019 115.783h-1.047v-6.718q-.39.359-1.016.734-.61.36-1.094.531v-1.015q.875-.422 1.532-1 .672-.594.953-1.157h.672v8.625zm3.031-4.234q0-1.531.313-2.453.312-.938.921-1.438.625-.5 1.563-.5.687 0 1.203.282.531.28.875.812.344.516.531 1.266.188.75.188 2.031 0 1.516-.313 2.437-.297.922-.922 1.438-.609.5-1.562.5-1.235 0-1.953-.89-.844-1.063-.844-3.485zm1.078 0q0 2.11.5 2.812.5.704 1.219.704.734 0 1.219-.704.5-.703.5-2.812 0-2.125-.5-2.813-.485-.703-1.235-.703-.719 0-1.156.61-.547.781-.547 2.906zm5.922 0q0-1.531.313-2.453.312-.938.921-1.438.625-.5 1.563-.5.687 0 1.203.282.531.28.875.812.344.516.531 1.266.188.75.188 2.031 0 1.516-.313 2.437-.297.922-.922 1.438-.609.5-1.562.5-1.234 0-1.953-.89-.844-1.063-.844-3.485zm1.078 0q0 2.11.5 2.812.5.704 1.219.704.734 0 1.219-.704.5-.703.5-2.812 0-2.125-.5-2.813-.485-.703-1.235-.703-.719 0-1.156.61-.547.781-.547 2.906zm5.922 0q0-1.531.313-2.453.312-.938.921-1.438.625-.5 1.563-.5.687 0 1.203.282.531.28.875.812.344.516.531 1.266.188.75.188 2.031 0 1.516-.313 2.437-.297.922-.922 1.438-.609.5-1.562.5-1.234 0-1.953-.89-.844-1.063-.844-3.485zm1.078 0q0 2.11.5 2.812.5.704 1.219.704.734 0 1.219-.704.5-.703.5-2.812 0-2.125-.5-2.813-.485-.703-1.235-.703-.719 0-1.156.61-.547.781-.547 2.906zm5.922 0q0-1.531.313-2.453.312-.938.921-1.438.625-.5 1.563-.5.687 0 1.203.282.531.28.875.812.344.516.531 1.266.188.75.188 2.031 0 1.516-.313 2.437-.297.922-.922 1.438-.609.5-1.562.5-1.234 0-1.953-.89-.844-1.063-.844-3.485zm1.078 0q0 2.11.5 2.812.5.704 1.219.704.734 0 1.219-.704.5-.703.5-2.812 0-2.125-.5-2.813-.485-.703-1.235-.703-.719 0-1.156.61-.547.781-.547 2.906zM184.891 317.45v-8.594h1.125v8.594h-1.125zm2.469.516l1.031.156q.062.469.36.687.39.297 1.062.297.734 0 1.125-.297.406-.297.547-.812.093-.328.078-1.36-.688.813-1.719.813-1.281 0-1.984-.922-.703-.937-.703-2.219 0-.89.312-1.64.328-.766.938-1.172.609-.406 1.437-.406 1.11 0 1.828.89v-.75h.969v5.375q0 1.453-.297 2.063-.297.61-.937.953-.641.36-1.579.36-1.109 0-1.796-.5-.688-.5-.672-1.516zm.875-3.735q0 1.219.484 1.781.484.563 1.219.563.734 0 1.219-.563.5-.562.5-1.75 0-1.14-.516-1.718-.5-.578-1.219-.578-.703 0-1.203.578-.484.562-.484 1.687zm6.328 3.219v-6.219h.937v.875q.688-1.015 1.985-1.015.562 0 1.031.203.484.203.719.531.234.328.328.766.047.296.047 1.03v3.829h-1.047v-3.781q0-.656-.125-.969-.125-.313-.438-.5-.312-.203-.734-.203-.672 0-1.172.437-.484.422-.484 1.61v3.406h-1.047zm7-7.375v-1.219h1.062v1.219h-1.062zm0 7.375v-6.219h1.062v6.219h-1.062zm5.297-.938l.156.922q-.453.094-.797.094-.578 0-.89-.172-.313-.187-.454-.484-.125-.297-.125-1.25v-3.578h-.765v-.813h.765v-1.547l1.047-.625v2.172h1.063v.813h-1.063v3.64q0 .453.047.578.063.125.188.204.125.078.359.078.187 0 .469-.031zm.703-6.437v-1.219h1.062v1.219h-1.062zm0 7.375v-6.219h1.062v6.219h-1.062zm2.61-3.11q0-1.734.952-2.562.797-.687 1.953-.687 1.282 0 2.094.843.828.828.828 2.313 0 1.203-.359 1.89-.36.688-1.063 1.079-.687.375-1.5.375-1.296 0-2.109-.829-.797-.843-.797-2.421zm1.077 0q0 1.188.516 1.782.531.594 1.312.594.797 0 1.313-.594.516-.594.516-1.813 0-1.156-.532-1.75-.515-.593-1.297-.593-.78 0-1.312.593-.516.578-.516 1.782zm6.313 3.11v-6.219h.937v.875q.688-1.015 1.985-1.015.562 0 1.031.203.484.203.719.531.234.328.328.766.047.296.047 1.03v3.829h-1.047v-3.781q0-.656-.125-.969-.125-.313-.438-.5-.312-.203-.734-.203-.672 0-1.172.437-.484.422-.484 1.61v3.406h-1.047zm12.015 2.531q-.875-1.11-1.484-2.578-.594-1.484-.594-3.062 0-1.391.438-2.672.531-1.485 1.64-2.953h.75q-.703 1.218-.937 1.734-.36.813-.563 1.688-.25 1.093-.25 2.203 0 2.828 1.75 5.64h-.75zm2.11-2.531v-8.594h1.156l4.516 6.75v-6.75h1.093v8.594h-1.171l-4.516-6.75v6.75h-1.078zm17.422-5.047h-5.672v-.984h5.672v.984zm0 2.61h-5.672v-.985h5.672v.984zm8.125 2.437h-1.047v-6.719q-.39.36-1.016.735-.61.359-1.094.53v-1.015q.875-.422 1.532-1 .672-.594.953-1.156h.672v8.625zm3.031-4.234q0-1.532.312-2.454.313-.937.922-1.437.625-.5 1.563-.5.687 0 1.203.281.531.281.875.813.344.515.531 1.265.188.75.188 2.032 0 1.515-.313 2.437-.297.922-.922 1.438-.609.5-1.562.5-1.235 0-1.953-.891-.844-1.063-.844-3.484zm1.078 0q0 2.109.5 2.812.5.703 1.219.703.734 0 1.219-.703.5-.703.5-2.812 0-2.125-.5-2.813-.485-.703-1.235-.703-.719 0-1.156.61-.547.78-.547 2.906zm6.313 4.234v-8.594h1.718l2.032 6.078q.28.86.406 1.282.14-.47.453-1.375l2.062-5.985h1.532v8.594h-1.094v-7.188l-2.5 7.188h-1.031l-2.485-7.313v7.313h-1.093zm10.593 2.531h-.75q1.75-2.812 1.75-5.64 0-1.094-.25-2.188-.203-.875-.562-1.687-.235-.516-.938-1.75h.75q1.094 1.468 1.625 2.953.453 1.281.453 2.672 0 1.578-.609 3.062-.61 1.469-1.469 2.578zM382.343 317.45v-7.578h-2.828v-1.016h6.813v1.016h-2.844v7.578h-1.14zm4.875 0v-8.594h5.797v1.016h-4.656v2.656h4.031v1.016h-4.031v3.906h-1.14zm9.813 0v-6.219h.937v.875q.688-1.015 1.985-1.015.562 0 1.031.203.484.203.719.531.234.328.328.766.047.296.047 1.03v3.829h-1.047v-3.781q0-.656-.125-.969-.125-.313-.438-.5-.312-.203-.734-.203-.672 0-1.172.437-.484.422-.484 1.61v3.406h-1.047zm6.61-3.11q0-1.734.952-2.562.797-.687 1.954-.687 1.28 0 2.093.843.828.828.828 2.313 0 1.203-.359 1.89-.36.688-1.062 1.079-.688.375-1.5.375-1.297 0-2.11-.829-.797-.843-.797-2.421zm1.077 0q0 1.188.516 1.782.531.594 1.313.594.796 0 1.312-.594t.516-1.813q0-1.156-.532-1.75-.515-.593-1.296-.593-.782 0-1.313.593-.516.578-.516 1.782zm9.313-4.265v-1.219h1.062v1.219h-1.062zm0 7.375v-6.219h1.062v6.219h-1.062zm3 0v-6.219h.937v.875q.688-1.015 1.985-1.015.562 0 1.031.203.484.203.719.531.234.328.328.766.047.296.047 1.03v3.829h-1.047v-3.781q0-.656-.125-.969-.125-.313-.438-.5-.312-.203-.734-.203-.672 0-1.172.437-.484.422-.484 1.61v3.406h-1.047zm6.969 0v-8.594h1.062v8.594H424zm3.03-7.375v-1.219h1.063v1.219h-1.062zm0 7.375v-6.219h1.063v6.219h-1.062zm3 0v-6.219h.938v.875q.688-1.015 1.985-1.015.562 0 1.031.203.484.203.719.531.234.328.328.766.047.296.047 1.03v3.829h-1.047v-3.781q0-.656-.125-.969-.125-.313-.438-.5-.312-.203-.734-.203-.672 0-1.172.437-.484.422-.484 1.61v3.406h-1.047zm7-7.375v-1.219h1.063v1.219h-1.062zm0 7.375v-6.219h1.063v6.219h-1.062zm3 0v-6.219h.938v.875q.688-1.015 1.985-1.015.562 0 1.031.203.484.203.719.531.234.328.328.766.047.296.047 1.03v3.829h-1.047v-3.781q0-.656-.125-.969-.125-.313-.438-.5-.312-.203-.734-.203-.672 0-1.172.437-.484.422-.484 1.61v3.406h-1.047zm6.798.516l1.031.156q.063.469.36.687.39.297 1.062.297.734 0 1.125-.297.406-.297.547-.812.094-.328.078-1.36-.688.813-1.719.813-1.281 0-1.984-.922-.703-.937-.703-2.219 0-.89.312-1.64.328-.766.938-1.172.609-.406 1.437-.406 1.11 0 1.828.89v-.75h.969v5.375q0 1.453-.297 2.063-.297.61-.937.953-.641.36-1.578.36-1.11 0-1.797-.5-.688-.5-.672-1.516zm.875-3.735q0 1.219.484 1.781.485.563 1.219.563.734 0 1.219-.563.5-.562.5-1.75 0-1.14-.516-1.718-.5-.578-1.219-.578-.703 0-1.203.578-.484.562-.484 1.687zm11.344 5.75q-.875-1.11-1.485-2.578-.594-1.484-.594-3.062 0-1.391.438-2.672.531-1.485 1.64-2.953h.75q-.703 1.218-.937 1.734-.36.813-.562 1.688-.25 1.093-.25 2.203 0 2.828 1.75 5.64h-.75zm2.109-2.531v-8.594h1.156l4.516 6.75v-6.75h1.094v8.594h-1.172l-4.516-6.75v6.75h-1.078zm17.422-5.047h-5.672v-.984h5.672v.984zm0 2.61h-5.672v-.985h5.672v.984zm8.125 2.437h-1.047v-6.719q-.39.36-1.016.735-.61.359-1.093.53v-1.015q.875-.422 1.53-1 .673-.594.954-1.156h.672v8.625zm7.484-3.375v-1l3.625-.016v3.188q-.828.672-1.719 1.015-.89.329-1.828.329-1.265 0-2.312-.532-1.031-.547-1.563-1.562-.515-1.031-.515-2.297 0-1.266.515-2.344.532-1.094 1.516-1.61.984-.53 2.266-.53.937 0 1.687.296.75.297 1.172.844.437.531.656 1.406l-1.015.282q-.204-.656-.5-1.031-.282-.375-.813-.594-.531-.235-1.172-.235-.781 0-1.36.235-.562.234-.921.625-.344.39-.531.86-.328.796-.328 1.718 0 1.156.39 1.937.406.766 1.156 1.141.75.375 1.61.375.734 0 1.437-.281.703-.297 1.063-.61v-1.609h-2.516zm5.531 5.906h-.75q1.75-2.812 1.75-5.64 0-1.094-.25-2.188-.203-.875-.562-1.687-.234-.516-.938-1.75h.75q1.094 1.468 1.625 2.953.454 1.281.454 2.672 0 1.578-.61 3.062-.61 1.469-1.469 2.578z"/><path fill="#5891ad" d="M151 80.417a1 1 0 011-1h10a1 1 0 011 1v10a1 1 0 01-1 1h-10a1 1 0 01-1-1z"/><path fill="#1a1a1a" d="M173.422 89.417l-2.281-8.594h1.172l1.312 5.64q.203.876.36 1.75.327-1.374.39-1.593L176 80.823h1.375l1.234 4.344q.453 1.625.672 3.047.156-.813.422-1.875l1.344-5.516h1.14l-2.343 8.594h-1.11l-1.797-6.547q-.234-.813-.28-1-.126.578-.25 1l-1.813 6.547h-1.172zm9.375-7.375v-1.22h1.062v1.22h-1.062zm0 7.375v-6.22h1.062v6.22h-1.062zm5.297-.938l.156.922q-.453.094-.797.094-.578 0-.89-.172-.313-.188-.454-.484-.125-.297-.125-1.25V84.01h-.765v-.812h.765V81.65l1.047-.625v2.172h1.063v.812h-1.063v3.641q0 .453.047.578.063.125.188.203.125.078.359.078.188 0 .469-.03zm.703.938v-8.594h1.047V83.9q.734-.844 1.86-.844.702 0 1.202.282.516.265.735.75.218.468.218 1.39v3.938h-1.047v-3.938q0-.797-.343-1.156-.344-.36-.969-.36-.469 0-.89.25-.407.235-.594.657-.172.406-.172 1.14v3.407h-1.047zm14.062-.766q-.593.5-1.14.703-.531.203-1.156.203-1.032 0-1.579-.5-.547-.5-.547-1.281 0-.453.204-.828.203-.39.547-.61.343-.234.765-.343.297-.094.938-.172 1.265-.14 1.875-.36v-.265q0-.656-.297-.922-.406-.344-1.203-.344-.735 0-1.094.266-.36.25-.531.906l-1.032-.14q.141-.657.47-1.063.327-.406.937-.625.609-.219 1.406-.219.797 0 1.297.188.5.187.734.469.234.28.328.718.047.266.047.969v1.406q0 1.469.063 1.86.078.39.28.75h-1.108q-.157-.328-.204-.766zm-.093-2.36q-.578.235-1.72.407-.655.094-.921.219-.266.109-.422.328-.14.219-.14.5 0 .422.312.703.328.281.938.281.609 0 1.078-.265.484-.266.703-.735.172-.36.172-1.047v-.39zm7.062 3.126v-.782q-.594.922-1.734.922-.75 0-1.375-.406-.625-.422-.969-1.156-.344-.735-.344-1.688 0-.922.313-1.687.312-.766.937-1.156.625-.407 1.39-.407.563 0 1 .235.438.234.72.609v-3.078h1.047v8.594h-.985zm-3.328-3.11q0 1.203.5 1.797.5.578 1.188.578.687 0 1.171-.562.485-.563.485-1.719 0-1.281-.5-1.875-.485-.594-1.203-.594-.703 0-1.172.578-.469.563-.469 1.797zm10.36 2.344q-.594.5-1.141.703-.531.203-1.156.203-1.032 0-1.579-.5-.547-.5-.547-1.281 0-.453.204-.828.203-.39.547-.61.343-.234.765-.343.297-.094.938-.172 1.265-.14 1.875-.36v-.265q0-.656-.297-.922-.406-.344-1.203-.344-.735 0-1.094.266-.36.25-.531.906l-1.032-.14q.141-.657.47-1.063.327-.406.937-.625.609-.219 1.406-.219.797 0 1.297.188.5.187.734.469.234.28.328.718.047.266.047.969v1.406q0 1.469.063 1.86.078.39.28.75h-1.108q-.157-.328-.204-.766zm-.094-2.36q-.578.235-1.72.407-.655.094-.921.219-.266.109-.422.328-.14.219-.14.5 0 .422.312.703.328.281.938.281.609 0 1.078-.265.484-.266.703-.735.172-.36.172-1.047v-.39zm3.03 5.516v-8.61h.954v.798q.344-.469.766-.703.437-.235 1.047-.235.796 0 1.406.407.61.406.906 1.156.313.75.313 1.64 0 .954-.344 1.72-.328.765-.985 1.171-.656.406-1.375.406-.53 0-.953-.218-.422-.235-.687-.563v3.031h-1.047zm.954-5.468q0 1.203.484 1.78.485.563 1.172.563.703 0 1.203-.593.5-.594.5-1.844 0-1.188-.484-1.766-.484-.594-1.172-.594-.672 0-1.187.625-.516.625-.516 1.829zm8.344 2.14l.156.922q-.453.094-.797.094-.578 0-.89-.172-.313-.188-.454-.484-.125-.297-.125-1.25V84.01h-.765v-.812h.765V81.65l1.047-.625v2.172h1.063v.812h-1.063v3.641q0 .453.047.578.063.125.188.203.125.078.359.078.188 0 .469-.03zm.312-2.172q0-1.734.953-2.562.797-.688 1.953-.688 1.282 0 2.094.844.828.828.828 2.313 0 1.203-.359 1.89-.36.688-1.063 1.078-.687.375-1.5.375-1.296 0-2.109-.828-.797-.844-.797-2.422zm1.078 0q0 1.188.516 1.782.531.593 1.313.593.796 0 1.312-.593.516-.594.516-1.813 0-1.156-.532-1.75-.515-.594-1.297-.594-.78 0-1.312.594-.516.578-.516 1.781zm6.297 3.11v-6.22h.953v.938q.36-.656.657-.859.312-.219.687-.219.531 0 1.078.328l-.36.985q-.39-.235-.765-.235-.36 0-.64.22-.266.202-.375.577-.188.563-.188 1.219v3.266h-1.047z"/><path fill="#900" d="M256 80.417a1 1 0 011-1h10a1 1 0 011 1v10a1 1 0 01-1 1h-10a1 1 0 01-1-1z"/><path fill="#1a1a1a" d="M276.922 89.417v-8.594h1.156l4.516 6.75v-6.75h1.094v8.594h-1.172L278 82.667v6.75h-1.078zm8.484-3.11q0-1.734.953-2.562.797-.688 1.954-.688 1.28 0 2.093.844.828.828.828 2.313 0 1.203-.359 1.89-.36.688-1.063 1.078-.687.375-1.5.375-1.296 0-2.109-.828-.797-.844-.797-2.422zm1.078 0q0 1.188.516 1.782.531.593 1.313.593.796 0 1.312-.593.516-.594.516-1.813 0-1.156-.532-1.75-.515-.594-1.296-.594-.782 0-1.313.594-.516.578-.516 1.781zm13.375 2.344q-.593.5-1.14.703-.531.203-1.156.203-1.032 0-1.579-.5-.546-.5-.546-1.281 0-.453.203-.828.203-.39.546-.61.344-.234.766-.343.297-.094.938-.172 1.265-.14 1.875-.36v-.265q0-.656-.297-.922-.406-.344-1.203-.344-.735 0-1.094.266-.36.25-.531.906l-1.032-.14q.141-.657.47-1.063.327-.406.937-.625.609-.219 1.406-.219.797 0 1.297.188.5.187.734.469.235.28.328.718.047.266.047.969v1.406q0 1.469.063 1.86.078.39.28.75h-1.108q-.157-.328-.204-.766zm-.093-2.36q-.579.235-1.72.407-.655.094-.921.219-.266.109-.422.328-.14.219-.14.5 0 .422.312.703.328.281.938.281.609 0 1.078-.265.484-.266.703-.735.172-.36.172-1.047v-.39zm7.062 3.126v-.782q-.594.922-1.734.922-.75 0-1.375-.406-.625-.422-.969-1.156-.344-.735-.344-1.688 0-.922.313-1.687.312-.766.937-1.156.625-.407 1.39-.407.563 0 1 .235.438.234.72.609v-3.078h1.046v8.594h-.984zm-3.328-3.11q0 1.203.5 1.797.5.578 1.188.578.687 0 1.171-.562.485-.563.485-1.719 0-1.281-.5-1.875-.485-.594-1.203-.594-.704 0-1.172.578-.469.563-.469 1.797zm10.36 2.344q-.594.5-1.141.703-.531.203-1.156.203-1.032 0-1.579-.5-.546-.5-.546-1.281 0-.453.203-.828.203-.39.546-.61.344-.234.766-.343.297-.094.938-.172 1.265-.14 1.875-.36v-.265q0-.656-.297-.922-.406-.344-1.203-.344-.735 0-1.094.266-.36.25-.531.906l-1.032-.14q.141-.657.47-1.063.327-.406.937-.625.609-.219 1.406-.219.797 0 1.297.188.5.187.734.469.235.28.328.718.047.266.047.969v1.406q0 1.469.063 1.86.078.39.28.75h-1.108q-.157-.328-.204-.766zm-.094-2.36q-.579.235-1.72.407-.655.094-.921.219-.266.109-.422.328-.14.219-.14.5 0 .422.312.703.328.281.938.281.609 0 1.078-.265.484-.266.703-.735.172-.36.172-1.047v-.39zm3.03 5.516v-8.61h.954v.798q.344-.469.766-.703.437-.235 1.046-.235.797 0 1.407.407.61.406.906 1.156.313.75.313 1.64 0 .954-.344 1.72-.328.765-.985 1.171-.656.406-1.375.406-.53 0-.953-.218-.422-.235-.687-.563v3.031h-1.047zm.954-5.468q0 1.203.484 1.78.485.563 1.172.563.703 0 1.203-.593.5-.594.5-1.844 0-1.188-.484-1.766-.484-.594-1.172-.594-.672 0-1.187.625-.516.625-.516 1.829zm8.344 2.14l.156.922q-.453.094-.797.094-.578 0-.89-.172-.313-.188-.454-.484-.125-.297-.125-1.25V84.01h-.765v-.812h.765V81.65l1.047-.625v2.172h1.063v.812h-1.063v3.641q0 .453.047.578.063.125.188.203.125.078.359.078.188 0 .469-.03zm.312-2.172q0-1.734.953-2.562.797-.688 1.954-.688 1.28 0 2.093.844.828.828.828 2.313 0 1.203-.359 1.89-.36.688-1.063 1.078-.687.375-1.5.375-1.296 0-2.109-.828-.797-.844-.797-2.422zm1.078 0q0 1.188.516 1.782.531.593 1.313.593.796 0 1.312-.593.516-.594.516-1.813 0-1.156-.532-1.75-.515-.594-1.296-.594-.782 0-1.313.594-.516.578-.516 1.781zm6.297 3.11v-6.22h.953v.938q.36-.656.657-.859.312-.219.687-.219.531 0 1.078.328l-.36.985q-.39-.235-.765-.235-.36 0-.64.22-.266.202-.375.577-.188.563-.188 1.219v3.266h-1.047z"/><path fill="#ff6f31" d="M353 80.417a1 1 0 011-1h10a1 1 0 011 1v10a1 1 0 01-1 1h-10a1 1 0 01-1-1z"/><path fill="#1a1a1a" d="M373.922 89.417v-8.594h1.156l4.516 6.75v-6.75h1.094v8.594h-1.172L375 82.667v6.75h-1.078zm8.484-3.11q0-1.734.953-2.562.797-.688 1.954-.688 1.28 0 2.093.844.828.828.828 2.313 0 1.203-.359 1.89-.36.688-1.063 1.078-.687.375-1.5.375-1.296 0-2.109-.828-.797-.844-.797-2.422zm1.078 0q0 1.188.516 1.782.531.593 1.313.593.796 0 1.312-.593.516-.594.516-1.813 0-1.156-.532-1.75-.515-.594-1.296-.594-.782 0-1.313.594-.516.578-.516 1.781zm9.313 3.11v-6.22h.937v.876q.297-.469.782-.734.484-.282 1.109-.282.688 0 1.125.282.453.28.625.796.75-1.078 1.922-1.078.937 0 1.422.516.5.5.5 1.578v4.266h-1.047v-3.922q0-.625-.11-.906-.093-.282-.359-.454-.265-.171-.64-.171-.657 0-1.094.437-.422.438-.422 1.406v3.61h-1.063V85.37q0-.703-.265-1.047-.25-.36-.828-.36-.454 0-.829.235-.375.234-.546.687-.172.454-.172 1.297v3.235h-1.047zm10-7.375v-1.22h1.062v1.22h-1.062zm0 7.375v-6.22h1.062v6.22h-1.062zm2.578-1.86l1.031-.156q.094.625.485.953.406.328 1.14.328.719 0 1.063-.281.36-.297.36-.703 0-.36-.313-.563-.22-.14-1.079-.359-1.156-.297-1.609-.5-.437-.219-.672-.594-.234-.375-.234-.843 0-.407.187-.766.188-.36.516-.594.25-.172.672-.297.422-.125.922-.125.719 0 1.265.219.563.203.829.563.265.359.359.953l-1.031.14q-.063-.468-.407-.734-.328-.281-.953-.281-.719 0-1.031.25-.313.234-.313.562 0 .203.125.36.141.171.407.28.156.063.937.266 1.125.313 1.563.5.437.188.687.547.25.36.25.907 0 .53-.312 1-.297.453-.875.718-.578.25-1.313.25-1.219 0-1.86-.5-.624-.515-.796-1.5zm6.422 1.86v-6.22h.937v.876q.297-.469.782-.734.484-.282 1.109-.282.688 0 1.125.282.453.28.625.796.75-1.078 1.922-1.078.937 0 1.422.516.5.5.5 1.578v4.266h-1.047v-3.922q0-.625-.11-.906-.093-.282-.359-.454-.265-.171-.64-.171-.657 0-1.094.437-.422.438-.422 1.406v3.61h-1.063V85.37q0-.703-.265-1.047-.25-.36-.828-.36-.454 0-.829.235-.375.234-.546.687-.172.454-.172 1.297v3.235h-1.047zm14.062-.766q-.593.5-1.14.703-.531.203-1.156.203-1.032 0-1.579-.5-.546-.5-.546-1.281 0-.453.203-.828.203-.39.546-.61.344-.234.766-.343.297-.094.938-.172 1.265-.14 1.875-.36v-.265q0-.656-.297-.922-.406-.344-1.203-.344-.735 0-1.094.266-.36.25-.531.906l-1.032-.14q.141-.657.47-1.063.327-.406.937-.625.609-.219 1.406-.219.797 0 1.297.188.5.187.734.469.235.28.328.718.047.266.047.969v1.406q0 1.469.063 1.86.078.39.28.75h-1.108q-.157-.328-.204-.766zm-.093-2.36q-.579.235-1.72.407-.655.094-.921.219-.266.109-.422.328-.14.219-.14.5 0 .422.312.703.328.281.938.281.609 0 1.078-.265.484-.266.703-.735.172-.36.172-1.047v-.39zm5.328 2.188l.156.922q-.453.094-.797.094-.578 0-.89-.172-.313-.188-.454-.484-.125-.297-.125-1.25V84.01h-.765v-.812h.765V81.65l1.047-.625v2.172h1.063v.812h-1.063v3.641q0 .453.047.578.063.125.188.203.125.078.359.078.188 0 .469-.03zm4.765-1.344l1.032.141q-.172 1.063-.875 1.672-.704.61-1.72.61-1.28 0-2.062-.829-.765-.844-.765-2.406 0-1 .328-1.75.344-.766 1.015-1.14.688-.376 1.5-.376 1 0 1.641.516.656.5.844 1.453l-1.031.156q-.141-.625-.516-.937-.375-.328-.906-.328-.797 0-1.297.578-.5.562-.5 1.797 0 1.265.484 1.828.485.562 1.25.562.625 0 1.031-.375.422-.375.547-1.172zm1.938 2.282v-8.594h1.047V83.9q.734-.844 1.86-.844.702 0 1.202.282.516.265.735.75.218.468.218 1.39v3.938h-1.046v-3.938q0-.797-.344-1.156-.344-.36-.969-.36-.469 0-.89.25-.407.235-.594.657-.172.406-.172 1.14v3.407h-1.047zm6.578-7.016l.266-.828q.937.328 1.359.562-.11-1.062-.125-1.453h.86q-.016.578-.141 1.453.61-.312 1.39-.562l.266.828q-.75.25-1.453.328.344.313 1 1.11l-.703.5q-.344-.47-.797-1.266-.438.828-.766 1.266l-.687-.5q.672-.844.969-1.11-.75-.14-1.438-.328z"/><path fill="#999" d="M26.206 53.034h1.328v5.782q0 1.515-.343 2.406-.344.89-1.235 1.453-.89.547-2.343.547-1.407 0-2.313-.485-.89-.484-1.281-1.406-.375-.922-.375-2.515v-5.782h1.328v5.782q0 1.296.234 1.921.25.61.844.954.594.328 1.453.328 1.453 0 2.078-.657.625-.671.625-2.546v-5.782zm3.266 12.797V55.784h1.125v.953q.39-.562.89-.828.5-.28 1.22-.28.921 0 1.624.483.719.47 1.078 1.344.36.875.36 1.906 0 1.11-.407 2.016-.39.89-1.156 1.375-.75.469-1.594.469-.609 0-1.109-.266-.484-.265-.797-.656v3.531h-1.234zm1.11-6.375q0 1.406.562 2.078.578.672 1.39.672.813 0 1.391-.687.594-.703.594-2.157 0-1.39-.578-2.078-.563-.687-1.36-.687-.781 0-1.39.734-.61.735-.61 2.125zm13.577 2.5l.172 1.078q-.515.11-.922.11-.672 0-1.047-.203-.359-.22-.515-.563-.14-.344-.14-1.453v-4.172H40.8v-.969h.906v-1.797l1.219-.734v2.531h1.234v.97h-1.234v4.233q0 .532.063.688.062.14.203.234.156.094.421.094.22 0 .547-.047zm.86-2.531q0-2.016 1.125-3 .922-.797 2.281-.797 1.484 0 2.438.984.953.97.953 2.704 0 1.406-.422 2.218-.422.797-1.235 1.25-.797.438-1.734.438-1.531 0-2.469-.985-.937-.984-.937-2.812zm1.265 0q0 1.39.61 2.094.61.687 1.531.687.906 0 1.516-.703.609-.703.609-2.125 0-1.344-.61-2.031-.609-.703-1.515-.703-.922 0-1.531.687-.61.688-.61 2.094zm14.797 3.625v-2.406h-4.36v-1.125l4.579-6.485h1v6.485h1.36v1.125H62.3v2.406h-1.219zm0-3.531v-4.516l-3.14 4.516h3.14zm4.047-1.407q0-1.78.36-2.859.374-1.094 1.093-1.672.719-.594 1.813-.594.812 0 1.422.329.609.328 1 .937.406.61.625 1.484.218.875.218 2.375 0 1.766-.359 2.844-.36 1.078-1.078 1.672-.719.594-1.828.594-1.438 0-2.266-1.047-1-1.25-1-4.063zm1.266 0q0 2.47.578 3.282.578.812 1.422.812.86 0 1.437-.812.578-.828.578-3.282 0-2.484-.578-3.296-.578-.813-1.453-.813-.844 0-1.344.719-.64.922-.64 3.39zm6.968-2.671q0-1.079.532-1.829.547-.75 1.578-.75.937 0 1.547.672.625.672.625 1.97 0 1.28-.625 1.968-.625.687-1.532.687-.906 0-1.515-.672-.61-.687-.61-2.046zm2.141-1.735q-.453 0-.766.406-.296.391-.296 1.438 0 .969.296 1.36.313.39.766.39.469 0 .766-.39.312-.391.312-1.454 0-.969-.312-1.36-.313-.39-.766-.39zm0 9.719l5.484-10.563h1l-5.453 10.563h-1.03zm4.344-2.734q0-1.079.531-1.813.547-.75 1.578-.75.938 0 1.563.672t.625 1.969q0 1.281-.625 1.968-.625.688-1.563.688-.906 0-1.515-.672-.594-.687-.594-2.062zm2.14-1.72q-.468 0-.765.407-.297.39-.297 1.438 0 .968.297 1.359.312.39.766.39.468 0 .765-.39.313-.39.313-1.453 0-.969-.313-1.36-.297-.39-.766-.39zm7.782 4.079v-6.297h-1.094v-.969h1.094v-.765q0-.735.125-1.094.187-.469.625-.766.453-.297 1.265-.297.516 0 1.141.125l-.188 1.063q-.374-.063-.718-.063-.563 0-.797.235-.234.234-.234.89v.672h1.421v.97h-1.422v6.296H89.77zm8.437-.89q-.672.578-1.312.828-.625.234-1.36.234-1.187 0-1.843-.578-.641-.594-.641-1.516 0-.531.234-.969.25-.437.641-.703.406-.265.89-.406.36-.094 1.094-.188 1.5-.171 2.203-.421v-.313q0-.766-.343-1.062-.469-.422-1.407-.422-.859 0-1.28.312-.407.297-.61 1.063l-1.203-.157q.156-.78.531-1.25.39-.468 1.094-.718.718-.266 1.656-.266.922 0 1.5.219t.844.547q.281.328.39.843.063.313.063 1.125v1.641q0 1.719.078 2.172.078.453.313.875h-1.282q-.187-.39-.25-.89zm-.094-2.75q-.671.265-2.015.468-.75.11-1.078.25-.313.125-.485.39-.172.266-.172.579 0 .5.376.828.374.328 1.093.328t1.266-.312q.547-.313.812-.86.203-.406.203-1.219v-.453zm2.876 1.468l1.203-.187q.109.734.578 1.125.468.39 1.312.39.844 0 1.25-.344.422-.343.422-.812 0-.422-.375-.656-.25-.172-1.25-.422-1.36-.344-1.89-.594-.516-.25-.782-.687-.265-.438-.265-.97 0-.483.218-.89.22-.422.61-.703.281-.203.765-.344.5-.156 1.078-.156.844 0 1.485.25.656.234.969.656.312.422.421 1.125l-1.203.172q-.078-.562-.484-.875-.39-.312-1.11-.312-.843 0-1.203.281-.359.266-.359.656 0 .235.14.422.157.203.485.328.172.063 1.078.313 1.313.36 1.828.578.516.219.797.64.297.422.297 1.047t-.36 1.172q-.343.531-1.03.844-.672.297-1.532.297-1.406 0-2.156-.594-.734-.594-.938-1.75zm10.171 1.078l.172 1.078q-.515.11-.922.11-.672 0-1.047-.203-.359-.22-.515-.563-.14-.344-.14-1.453v-4.172h-.907v-.969h.906v-1.797l1.219-.734v2.531h1.234v.97h-1.234v4.233q0 .532.063.688.062.14.203.234.156.094.421.094.22 0 .547-.047zm6.282-1.25l1.28.156q-.312 1.125-1.124 1.75-.813.61-2.078.61-1.594 0-2.532-.985-.921-.984-.921-2.75 0-1.843.937-2.843.953-1.016 2.453-1.016 1.453 0 2.375 1 .922.984.922 2.781v.328h-5.422q.078 1.188.672 1.829.61.64 1.531.64.672 0 1.141-.36.484-.358.766-1.14zm-4.032-1.984h4.047q-.078-.922-.469-1.375-.578-.703-1.515-.703-.86 0-1.438.562-.562.563-.625 1.516zm7.047 4.328v-7.266h1.11v1.11q.421-.782.78-1.016.36-.25.798-.25.625 0 1.265.39l-.422 1.141q-.453-.265-.906-.265-.406 0-.734.25-.313.234-.453.672-.203.656-.203 1.437v3.797h-1.235zm10.36 0l-2.22-7.266h1.267l1.156 4.203.437 1.547q.016-.109.375-1.5l1.157-4.25h1.25l1.093 4.22.36 1.39.422-1.407 1.25-4.203h1.187l-2.266 7.266h-1.28l-1.157-4.344-.281-1.234-1.47 5.578h-1.28zm8.672-8.61v-1.406h1.218v1.407h-1.218zm0 8.61v-7.266h1.218v7.266h-1.218zm5.671-1.094l.172 1.078q-.515.11-.922.11-.671 0-1.046-.203-.36-.22-.516-.563-.14-.344-.14-1.453v-4.172h-.907v-.969h.906v-1.797l1.219-.734v2.531h1.234v.97h-1.234v4.233q0 .532.063.688.062.14.203.234.156.094.422.094.218 0 .546-.047zm1.313 1.094V53.034h1.234v3.594q.86-1 2.172-1 .813 0 1.406.328.594.313.844.875.266.547.266 1.625v4.594h-1.235v-4.594q0-.937-.406-1.344-.39-.421-1.125-.421-.547 0-1.031.28-.484.282-.688.767-.203.484-.203 1.343v3.969h-1.234zm7.547-3.625q0-2.016 1.125-3 .922-.797 2.281-.797 1.484 0 2.438.984.953.97.953 2.704 0 1.406-.422 2.218-.422.797-1.235 1.25-.796.438-1.734.438-1.531 0-2.469-.985-.937-.984-.937-2.812zm1.265 0q0 1.39.61 2.094.61.687 1.531.687.906 0 1.516-.703.609-.703.609-2.125 0-1.344-.61-2.031-.609-.703-1.515-.703-.922 0-1.531.687-.61.688-.61 2.094zm11.954 3.625v-1.063q-.86 1.235-2.313 1.235-.64 0-1.203-.25-.547-.25-.828-.625-.266-.375-.375-.906-.078-.36-.078-1.157v-4.5h1.234v4.032q0 .968.078 1.296.11.485.485.766t.937.281q.547 0 1.031-.28.485-.298.688-.782.203-.485.203-1.422v-3.89h1.234v7.265h-1.093zm5.921-1.094l.172 1.078q-.515.11-.922.11-.671 0-1.046-.203-.36-.22-.516-.563-.14-.344-.14-1.453v-4.172h-.907v-.969h.906v-1.797l1.219-.734v2.531h1.234v.97h-1.234v4.233q0 .532.063.688.062.14.203.234.156.094.422.094.218 0 .546-.047zm8 0l.172 1.078q-.515.11-.922.11-.671 0-1.046-.203-.36-.22-.516-.563-.14-.344-.14-1.453v-4.172h-.907v-.969h.906v-1.797l1.219-.734v2.531h1.234v.97h-1.234v4.233q0 .532.063.688.062.14.203.234.156.094.422.094.218 0 .546-.047zm1.313 1.094V53.034h1.234v3.594q.86-1 2.172-1 .813 0 1.406.328.594.313.844.875.266.547.266 1.625v4.594h-1.235v-4.594q0-.937-.406-1.344-.39-.421-1.125-.421-.547 0-1.031.28-.484.282-.688.767-.203.484-.203 1.343v3.969h-1.234zm12.969-2.344l1.28.156q-.312 1.125-1.124 1.75-.813.61-2.078.61-1.594 0-2.531-.985-.922-.984-.922-2.75 0-1.843.937-2.843.953-1.016 2.453-1.016 1.453 0 2.375 1 .922.984.922 2.781v.328h-5.422q.078 1.188.672 1.829.61.64 1.531.64.672 0 1.141-.36.484-.358.766-1.14zm-4.032-1.984h4.047q-.078-.922-.468-1.375-.579-.703-1.516-.703-.86 0-1.438.562-.562.563-.625 1.516zm15.797 3.437q-.672.578-1.312.828-.625.235-1.36.235-1.187 0-1.843-.578-.641-.594-.641-1.516 0-.531.234-.969.25-.437.641-.703.406-.265.89-.406.36-.094 1.094-.188 1.5-.171 2.204-.421v-.313q0-.766-.344-1.062-.469-.422-1.406-.422-.86 0-1.282.312-.406.297-.61 1.063l-1.202-.157q.156-.78.531-1.25.39-.468 1.094-.718.719-.266 1.656-.266.922 0 1.5.219t.844.547q.281.328.39.843.063.313.063 1.125v1.641q0 1.719.078 2.172.078.453.313.875h-1.282q-.187-.39-.25-.89zm-.093-2.75q-.672.266-2.016.47-.75.108-1.078.25-.313.124-.485.39-.171.265-.171.578 0 .5.375.828.375.328 1.093.328.719 0 1.266-.312.547-.313.812-.86.204-.406.204-1.219v-.453zm3.343 3.641v-7.266h1.11v1.11q.422-.782.78-1.016.36-.25.798-.25.625 0 1.265.39l-.421 1.141q-.454-.265-.907-.265-.406 0-.734.25-.313.234-.453.672-.203.656-.203 1.437v3.797h-1.235zm4.797.61l1.188.171q.078.547.422.813.453.328 1.25.328.859 0 1.312-.344.469-.328.64-.953.094-.375.079-1.578-.797.953-2 .953-1.5 0-2.328-1.078-.813-1.078-.813-2.594 0-1.031.375-1.906.375-.89 1.078-1.36.719-.484 1.688-.484 1.281 0 2.125 1.031v-.875h1.125v6.282q0 1.703-.344 2.406-.344.703-1.094 1.11-.75.421-1.843.421-1.297 0-2.094-.594-.797-.578-.766-1.75zm1.016-4.376q0 1.438.562 2.094.563.656 1.422.656.844 0 1.422-.656t.578-2.047q0-1.328-.594-2-.593-.687-1.421-.687-.829 0-1.407.672-.562.656-.562 1.968zm11.969 3.766v-1.063q-.86 1.235-2.313 1.235-.64 0-1.203-.25-.547-.25-.828-.625-.266-.375-.375-.906-.078-.36-.078-1.157v-4.5h1.234v4.032q0 .968.078 1.296.11.485.485.766t.937.281q.547 0 1.031-.28.485-.298.688-.782.203-.485.203-1.422v-3.89h1.234v7.265h-1.093zm3.234 0v-7.266h1.11v1.032q.327-.547.89-.86.578-.328 1.297-.328.812 0 1.328.344.516.328.734.922.86-1.266 2.235-1.266 1.078 0 1.656.594.594.594.594 1.844v4.984h-1.235v-4.578q0-.735-.125-1.063-.11-.328-.422-.515-.312-.203-.734-.203-.766 0-1.281.515-.5.5-.5 1.625v4.219h-1.235v-4.719q0-.812-.296-1.219-.297-.421-.985-.421-.515 0-.969.28-.437.267-.64.798-.188.515-.188 1.515v3.766h-1.234zm16.969-2.344l1.28.156q-.312 1.125-1.124 1.75-.813.61-2.078.61-1.594 0-2.531-.985-.922-.984-.922-2.75 0-1.843.937-2.843.953-1.016 2.453-1.016 1.453 0 2.375 1 .922.984.922 2.781v.328h-5.422q.078 1.188.672 1.829.61.64 1.531.64.672 0 1.141-.36.484-.358.766-1.14zm-4.032-1.984h4.047q-.078-.922-.468-1.375-.579-.703-1.516-.703-.86 0-1.438.562-.562.563-.625 1.516zm7.063 4.328v-7.266h1.11v1.032q.796-1.188 2.312-1.188.656 0 1.203.234.547.235.812.625.282.375.391.907.078.343.078 1.187v4.469h-1.234v-4.422q0-.75-.14-1.11-.142-.374-.517-.593-.359-.234-.859-.234-.781 0-1.36.5-.562.5-.562 1.89v3.969h-1.234zm10.687-1.094l.172 1.078q-.515.11-.922.11-.671 0-1.046-.203-.36-.22-.516-.563-.14-.344-.14-1.453v-4.172h-.907v-.969h.906v-1.797l1.219-.734v2.531h1.234v.97h-1.234v4.233q0 .532.063.688.062.14.203.234.156.094.422.094.218 0 .546-.047zm.829-1.078l1.203-.187q.109.734.578 1.125.469.39 1.312.39.844 0 1.25-.344.422-.343.422-.812 0-.422-.375-.656-.25-.172-1.25-.422-1.36-.344-1.89-.594-.516-.25-.782-.687-.265-.438-.265-.97 0-.483.218-.89.22-.422.61-.703.281-.203.765-.344.5-.156 1.079-.156.843 0 1.484.25.656.234.969.656.312.422.422 1.125l-1.204.172q-.078-.562-.484-.875-.39-.312-1.11-.312-.843 0-1.202.281-.36.266-.36.656 0 .235.14.422.157.203.485.328.172.063 1.078.313 1.313.36 1.828.578.516.219.797.64.297.422.297 1.047t-.36 1.172q-.343.531-1.03.844-.672.297-1.532.297-1.406 0-2.156-.594-.734-.594-.938-1.75zm16.218 1.281q-.672.578-1.312.828-.625.235-1.36.235-1.187 0-1.843-.578-.641-.594-.641-1.516 0-.531.234-.969.25-.437.641-.703.406-.265.89-.406.36-.094 1.094-.188 1.5-.171 2.204-.421v-.313q0-.766-.344-1.062-.469-.422-1.406-.422-.86 0-1.282.312-.406.297-.61 1.063l-1.202-.157q.156-.78.531-1.25.39-.468 1.094-.718.719-.266 1.656-.266.922 0 1.5.219t.844.547q.281.328.39.843.063.313.063 1.125v1.641q0 1.719.078 2.172.078.453.313.875h-1.282q-.187-.39-.25-.89zm-.094-2.75q-.671.266-2.015.47-.75.108-1.078.25-.313.124-.485.39-.171.265-.171.578 0 .5.375.828.375.328 1.093.328.719 0 1.266-.312.547-.313.812-.86.204-.406.204-1.219v-.453zm8.079 3.641v-.922q-.703 1.094-2.032 1.094-.875 0-1.609-.485-.719-.484-1.125-1.343-.39-.86-.39-1.969 0-1.078.359-1.969.36-.89 1.078-1.36.734-.468 1.625-.468.656 0 1.172.281.515.266.828.72v-3.595h1.234V63.05h-1.14zm-3.891-3.625q0 1.39.578 2.094.594.687 1.39.687.813 0 1.376-.656.562-.672.562-2.016 0-1.5-.578-2.187-.578-.703-1.406-.703t-1.375.672q-.547.671-.547 2.109zm11.906 2.734q-.672.578-1.312.828-.625.235-1.36.235-1.187 0-1.843-.578-.641-.594-.641-1.516 0-.531.234-.969.25-.437.641-.703.406-.265.89-.406.36-.094 1.094-.188 1.5-.171 2.204-.421v-.313q0-.766-.344-1.062-.469-.422-1.406-.422-.86 0-1.282.312-.406.297-.61 1.063l-1.202-.157q.156-.78.531-1.25.39-.468 1.094-.718.719-.266 1.656-.266.922 0 1.5.219t.844.547q.281.328.39.843.063.313.063 1.125v1.641q0 1.719.078 2.172.078.453.313.875h-1.282q-.187-.39-.25-.89zm-.094-2.75q-.671.266-2.015.47-.75.108-1.078.25-.313.124-.485.39-.171.265-.171.578 0 .5.375.828.375.328 1.093.328.719 0 1.266-.312.547-.313.812-.86.204-.406.204-1.219v-.453zm3.36 6.422V55.784h1.125v.953q.39-.562.89-.828.5-.28 1.22-.28.921 0 1.624.483.719.47 1.078 1.344.36.875.36 1.906 0 1.11-.406 2.016-.391.89-1.157 1.375-.75.469-1.594.469-.609 0-1.109-.266-.484-.265-.797-.656v3.531h-1.234zm1.11-6.375q0 1.406.562 2.078.578.672 1.39.672.813 0 1.391-.687.594-.703.594-2.157 0-1.39-.578-2.078-.563-.687-1.36-.687-.781 0-1.39.734-.61.735-.61 2.125zm9.577 2.5l.172 1.078q-.515.11-.922.11-.671 0-1.046-.203-.36-.22-.516-.563-.14-.344-.14-1.453v-4.172h-.907v-.969h.906v-1.797l1.219-.734v2.531h1.234v.97h-1.234v4.233q0 .532.063.688.062.14.203.234.156.094.422.094.218 0 .546-.047zm.86-2.531q0-2.016 1.125-3 .922-.797 2.281-.797 1.484 0 2.438.984.953.97.953 2.704 0 1.406-.422 2.218-.422.797-1.235 1.25-.796.438-1.734.438-1.531 0-2.469-.985-.937-.984-.937-2.812zm1.265 0q0 1.39.61 2.094.61.687 1.531.687.906 0 1.516-.703.609-.703.609-2.125 0-1.344-.61-2.031-.609-.703-1.515-.703-.922 0-1.531.687-.61.688-.61 2.094zm7.172 3.625v-7.266h1.11v1.11q.422-.782.78-1.016.36-.25.798-.25.625 0 1.265.39l-.421 1.141q-.454-.265-.907-.265-.406 0-.734.25-.313.234-.453.672-.203.656-.203 1.437v3.797h-1.235z"/><path fill="#757575" d="M20.034 37.55V23.238h2.86l3.375 10.124q.469 1.422.687 2.125.25-.78.766-2.296l3.422-9.954h2.547V37.55h-1.813V25.566L27.706 37.55h-1.703l-4.14-12.187V37.55h-1.829zm16.844-12.297v-2.015h1.766v2.015h-1.766zm0 12.297V27.175h1.766V37.55h-1.766zm10.766-3.797l1.718.219q-.28 1.797-1.453 2.812-1.156 1-2.859 1-2.125 0-3.422-1.39-1.297-1.39-1.297-3.985 0-1.687.547-2.937.563-1.266 1.703-1.89 1.14-.641 2.485-.641 1.687 0 2.75.859 1.078.86 1.39 2.422l-1.719.265q-.234-1.046-.859-1.562-.625-.531-1.5-.531-1.328 0-2.156.953-.828.953-.828 3 0 2.094.797 3.047.796.937 2.093.937 1.032 0 1.72-.625.702-.64.89-1.953zm3.203 3.797V27.175h1.578v1.578q.61-1.11 1.125-1.453.516-.36 1.125-.36.89 0 1.813.563l-.61 1.64q-.64-.39-1.281-.39-.578 0-1.047.36-.453.343-.656.953-.282.937-.282 2.046v5.438h-1.765zm6.375-5.188q0-2.875 1.594-4.265 1.343-1.156 3.265-1.156 2.14 0 3.485 1.406 1.359 1.406 1.359 3.875 0 2-.594 3.156-.594 1.14-1.75 1.781-1.14.625-2.5.625-2.187 0-3.531-1.39-1.328-1.407-1.328-4.032zm1.797 0q0 2 .86 2.985.874.984 2.202.984 1.313 0 2.172-.984.875-1 .875-3.047 0-1.922-.875-2.906-.875-1-2.172-1-1.328 0-2.203 1-.86.984-.86 2.968zm11.468 5.188h-1.624V23.238h1.75v5.109q1.124-1.406 2.843-1.406.953 0 1.813.39t1.406 1.094q.547.688.86 1.672.312.984.312 2.11 0 2.671-1.313 4.124-1.312 1.453-3.156 1.453t-2.89-1.53v1.296zm-.015-5.266q0 1.86.5 2.703.844 1.344 2.25 1.344 1.156 0 1.984-1 .844-1 .844-2.984 0-2.031-.813-2.985-.796-.968-1.937-.968-1.156 0-2 1-.828 1-.828 2.89zm16.5 1.922l1.812.235q-.422 1.578-1.593 2.468-1.157.875-2.97.875-2.265 0-3.609-1.39-1.328-1.407-1.328-3.938 0-2.625 1.344-4.062 1.344-1.453 3.5-1.453 2.078 0 3.39 1.422 1.329 1.406 1.329 3.984 0 .156-.016.469h-7.734q.094 1.703.969 2.609.875.906 2.171.906.97 0 1.641-.5.688-.515 1.094-1.625zm-5.781-2.844h5.796q-.109-1.296-.656-1.953-.844-1.015-2.187-1.015-1.203 0-2.032.812-.828.797-.921 2.157zm9.671 6.188V27.175h1.594v1.484q1.14-1.718 3.297-1.718.938 0 1.719.343.797.329 1.187.875.391.547.547 1.297.094.5.094 1.719v6.375h-1.766v-6.312q0-1.079-.203-1.61-.203-.531-.734-.844-.516-.312-1.219-.312-1.125 0-1.937.719-.813.703-.813 2.687v5.672h-1.766zm17.782-3.797l1.718.219q-.28 1.797-1.453 2.812-1.156 1-2.859 1-2.125 0-3.422-1.39-1.297-1.39-1.297-3.985 0-1.687.547-2.937.563-1.266 1.703-1.89 1.14-.641 2.485-.641 1.687 0 2.75.859 1.078.86 1.39 2.422l-1.719.265q-.234-1.046-.859-1.562-.625-.531-1.5-.531-1.328 0-2.156.953-.828.953-.828 3 0 2.094.797 3.047.796.937 2.093.937 1.032 0 1.72-.625.702-.64.89-1.953zm3.218 3.797V23.238h1.766v5.125q1.234-1.422 3.11-1.422 1.14 0 1.984.453.86.453 1.219 1.265.375.797.375 2.313v6.578h-1.75v-6.578q0-1.313-.579-1.906-.578-.61-1.609-.61-.781 0-1.484.407-.688.406-.985 1.109-.28.687-.28 1.906v5.672h-1.767zm11 0V27.175h1.579v1.453q.484-.75 1.296-1.219.813-.468 1.844-.468 1.157 0 1.89.484.735.469 1.048 1.328 1.234-1.812 3.203-1.812 1.547 0 2.375.859.828.86.828 2.625v7.125h-1.75v-6.531q0-1.063-.172-1.516-.172-.469-.625-.75-.437-.281-1.047-.281-1.093 0-1.828.734-.719.719-.719 2.313v6.031h-1.75v-6.734q0-1.172-.437-1.75-.422-.594-1.406-.594-.735 0-1.375.39-.625.391-.907 1.141-.28.75-.28 2.172v5.375h-1.767zm23.782-1.281q-.985.828-1.89 1.172-.907.343-1.938.343-1.703 0-2.625-.828-.922-.844-.922-2.14 0-.766.344-1.391.359-.625.921-1 .563-.39 1.266-.594.516-.125 1.563-.265 2.125-.25 3.125-.594.015-.36.015-.469 0-1.062-.5-1.515-.672-.594-2-.594-1.25 0-1.844.437-.578.438-.859 1.547l-1.719-.234q.235-1.11.766-1.781.531-.688 1.547-1.047 1.015-.375 2.36-.375 1.327 0 2.155.312.829.313 1.22.797.39.469.546 1.188.094.453.094 1.625v2.343q0 2.453.11 3.11.109.64.452 1.234h-1.843q-.266-.547-.344-1.281zm-.156-3.922q-.954.39-2.875.656-1.079.156-1.532.36-.437.187-.687.562-.25.375-.25.844 0 .703.531 1.172.531.468 1.563.468 1.015 0 1.796-.437.797-.453 1.172-1.219.282-.61.282-1.766v-.64zm4.359 5.203V27.175h1.578v1.578q.61-1.11 1.125-1.453.516-.36 1.125-.36.89 0 1.813.563l-.61 1.64q-.64-.39-1.281-.39-.578 0-1.047.36-.453.343-.656.953-.281.937-.281 2.046v5.438h-1.766zm7.031 0V23.238h1.766v8.156l4.156-4.219h2.266l-3.953 3.844 4.359 6.531H164.3l-3.422-5.297-1.234 1.188v4.109h-1.766zm16.219 0V23.238h5.39q1.438 0 2.188.125 1.047.187 1.766.687.718.484 1.14 1.375.438.89.438 1.953 0 1.828-1.172 3.094-1.156 1.25-4.188 1.25h-3.671v5.828h-1.891zm1.89-7.516h3.704q1.828 0 2.593-.671.782-.688.782-1.938 0-.89-.453-1.531-.454-.64-1.188-.844-.484-.125-1.781-.125h-3.656v5.11zm17.985 4.172l1.812.235q-.421 1.578-1.593 2.468-1.157.875-2.97.875-2.265 0-3.608-1.39-1.329-1.407-1.329-3.938 0-2.625 1.344-4.062 1.344-1.453 3.5-1.453 2.078 0 3.39 1.422 1.329 1.406 1.329 3.984 0 .156-.016.469h-7.734q.094 1.703.969 2.609.875.906 2.172.906.968 0 1.64-.5.688-.515 1.094-1.625zm-5.781-2.844h5.797q-.11-1.296-.657-1.953-.843-1.015-2.187-1.015-1.203 0-2.031.812-.829.797-.922 2.157zm9.656 6.188V27.175h1.578v1.578q.61-1.11 1.125-1.453.516-.36 1.125-.36.89 0 1.813.563l-.61 1.64q-.64-.39-1.281-.39-.578 0-1.047.36-.453.343-.656.953-.281.937-.281 2.046v5.438h-1.766zm7.437 0v-9h-1.546v-1.375h1.546v-1.094q0-1.047.188-1.562.25-.688.89-1.11.641-.421 1.797-.421.75 0 1.641.171l-.266 1.532q-.546-.094-1.03-.094-.798 0-1.141.344-.329.343-.329 1.28v.954h2.032v1.375h-2.032v9h-1.75zm4.938-5.188q0-2.875 1.594-4.265 1.343-1.156 3.265-1.156 2.14 0 3.485 1.406 1.359 1.406 1.359 3.875 0 2-.594 3.156-.593 1.14-1.75 1.781-1.14.625-2.5.625-2.187 0-3.531-1.39-1.328-1.407-1.328-4.032zm1.797 0q0 2 .86 2.985.874.984 2.202.984 1.313 0 2.172-.984.875-1 .875-3.047 0-1.922-.875-2.906-.875-1-2.172-1-1.328 0-2.203 1-.86.984-.86 2.968zm9.828 5.188V27.175h1.578v1.578q.61-1.11 1.125-1.453.516-.36 1.125-.36.89 0 1.813.563l-.61 1.64q-.64-.39-1.281-.39-.578 0-1.047.36-.453.343-.656.953-.281.937-.281 2.046v5.438h-1.766zm7.016 0V27.175h1.578v1.453q.484-.75 1.297-1.219.812-.468 1.843-.468 1.157 0 1.89.484.735.469 1.048 1.328 1.234-1.812 3.203-1.812 1.547 0 2.375.859.828.86.828 2.625v7.125h-1.75v-6.531q0-1.063-.172-1.516-.172-.469-.625-.75-.437-.281-1.047-.281-1.093 0-1.828.734-.719.719-.719 2.313v6.031h-1.75v-6.734q0-1.172-.437-1.75-.422-.594-1.406-.594-.735 0-1.375.39-.625.391-.907 1.141-.28.75-.28 2.172v5.375h-1.766zm23.78-1.281q-.984.828-1.89 1.172-.906.343-1.937.343-1.703 0-2.625-.828-.922-.844-.922-2.14 0-.766.344-1.391.359-.625.921-1 .563-.39 1.266-.594.516-.125 1.563-.265 2.125-.25 3.125-.594.015-.36.015-.469 0-1.062-.5-1.515-.672-.594-2-.594-1.25 0-1.844.437-.578.438-.859 1.547l-1.719-.234q.235-1.11.766-1.781.531-.688 1.547-1.047 1.015-.375 2.36-.375 1.327 0 2.155.312.829.313 1.22.797.39.469.546 1.188.094.453.094 1.625v2.343q0 2.453.11 3.11.109.64.452 1.234h-1.843q-.266-.547-.344-1.281zm-.155-3.922q-.954.39-2.875.656-1.079.156-1.532.36-.437.187-.687.562-.25.375-.25.844 0 .703.531 1.172.531.468 1.563.468 1.015 0 1.796-.437.797-.453 1.172-1.219.282-.61.282-1.766v-.64zm4.375 5.203V27.175h1.593v1.484q1.14-1.718 3.297-1.718.938 0 1.719.343.797.329 1.187.875.391.547.547 1.297.094.5.094 1.719v6.375h-1.766v-6.312q0-1.079-.203-1.61-.203-.531-.734-.844-.516-.312-1.219-.312-1.125 0-1.937.719-.813.703-.813 2.687v5.672h-1.765zm17.78-3.797l1.72.219q-.282 1.797-1.454 2.812-1.156 1-2.859 1-2.125 0-3.422-1.39-1.297-1.39-1.297-3.985 0-1.687.547-2.937.563-1.266 1.703-1.89 1.14-.641 2.485-.641 1.687 0 2.75.859 1.078.86 1.39 2.422l-1.719.265q-.234-1.046-.859-1.562-.625-.531-1.5-.531-1.328 0-2.156.953-.828.953-.828 3 0 2.094.797 3.047.797.937 2.093.937 1.032 0 1.72-.625.702-.64.89-1.953zm10.329.453l1.812.235q-.421 1.578-1.593 2.468-1.157.875-2.97.875-2.265 0-3.608-1.39-1.329-1.407-1.329-3.938 0-2.625 1.344-4.062 1.344-1.453 3.5-1.453 2.078 0 3.39 1.422 1.329 1.406 1.329 3.984 0 .156-.016.469h-7.734q.094 1.703.969 2.609.875.906 2.172.906.968 0 1.64-.5.688-.515 1.094-1.625zm-5.781-2.844h5.797q-.11-1.296-.657-1.953-.844-1.015-2.187-1.015-1.203 0-2.031.812-.829.797-.922 2.157zm19.03 10.391q-1.452-1.828-2.452-4.281-1-2.469-1-5.11 0-2.328.75-4.453.875-2.468 2.703-4.921h1.266q-1.188 2.03-1.563 2.906-.594 1.344-.938 2.812-.421 1.828-.421 3.672 0 4.688 2.922 9.375h-1.266zm3-9.39q0-2.875 1.595-4.266 1.343-1.156 3.265-1.156 2.14 0 3.485 1.406 1.359 1.406 1.359 3.875 0 2-.594 3.156-.594 1.14-1.75 1.781-1.14.625-2.5.625-2.187 0-3.531-1.39-1.328-1.407-1.328-4.032zm1.798 0q0 2 .86 2.984.874.984 2.202.984 1.313 0 2.172-.984.875-1 .875-3.047 0-1.922-.875-2.906-.875-1-2.172-1-1.328 0-2.203 1-.86.984-.86 2.968zm9.844 5.187V27.175h1.593v1.484q1.14-1.718 3.297-1.718.938 0 1.719.343.797.329 1.187.875.391.547.547 1.297.094.5.094 1.719v6.375h-1.766v-6.312q0-1.079-.203-1.61-.203-.531-.734-.844-.516-.312-1.219-.312-1.125 0-1.937.719-.813.703-.813 2.687v5.672h-1.765zm15.828 0l3.797-5.39-3.5-4.985h2.187l1.594 2.438q.453.687.719 1.156.437-.64.796-1.14l1.75-2.454h2.094l-3.578 4.89 3.86 5.485h-2.157l-2.14-3.219-.563-.875-2.719 4.094h-2.14zm19.812-10.812l-1.75.14q-.234-1.031-.656-1.5-.719-.765-1.766-.765-.844 0-1.469.468-.828.61-1.312 1.782-.484 1.156-.5 3.296.64-.953 1.547-1.421.922-.47 1.937-.47 1.75 0 2.985 1.298 1.234 1.28 1.234 3.328 0 1.36-.578 2.515-.578 1.157-1.594 1.782-1.015.609-2.312.609-2.188 0-3.578-1.61-1.391-1.624-1.391-5.343 0-4.14 1.531-6.031 1.344-1.641 3.61-1.641 1.687 0 2.765.953 1.078.938 1.297 2.61zm-7.172 6.171q0 .907.375 1.735.39.828 1.078 1.265.704.438 1.454.438 1.125 0 1.921-.89.797-.907.797-2.454 0-1.484-.797-2.328-.78-.86-1.984-.86-1.188 0-2.016.86-.828.844-.828 2.234zm14.688 4.641v-3.422H349.8v-1.625l6.531-9.265h1.438v9.265h1.937v1.625h-1.937v3.422h-1.75zm0-5.047V26.05l-4.485 6.453h4.485zm7 9.25h-1.25q2.906-4.687 2.906-9.375 0-1.844-.406-3.64-.344-1.47-.938-2.813-.375-.89-1.562-2.938h1.25q1.844 2.454 2.719 4.922.75 2.125.75 4.453 0 2.641-1.016 5.11-1 2.453-2.453 4.281z"/></svg>