<svg version="1.1" viewBox="0.0 0.0 600.0 371.0" fill="none" stroke="none" stroke-linecap="square" stroke-miterlimit="10" width="600" height="371" xmlns:xlink="http://www.w3.org/1999/xlink" xmlns="http://www.w3.org/2000/svg"><path fill="#ffffff" d="M0 0L600.0 0L600.0 371.0L0 371.0L0 0Z" fill-rule="nonzero"/><path fill="#ffffff" d="M0 0L600.0 0L600.0 371.0L0 371.0L0 0Z" fill-rule="nonzero"/><path stroke="#333333" stroke-width="1.0" stroke-linecap="butt" d="M85.5 305.5L581.5 305.5" fill-rule="nonzero"/><path stroke="#cccccc" stroke-width="1.0" stroke-linecap="butt" d="M85.5 235.5L581.5 235.5" fill-rule="nonzero"/><path stroke="#cccccc" stroke-width="1.0" stroke-linecap="butt" d="M85.5 165.5L581.5 165.5" fill-rule="nonzero"/><path stroke="#cccccc" stroke-width="1.0" stroke-linecap="butt" d="M85.5 95.5L581.5 95.5" fill-rule="nonzero"/><path stroke="#cccccc" stroke-width="1.0" stroke-linecap="butt" d="M85.5 25.5L581.5 25.5" fill-rule="nonzero"/><clipPath id="id_0"><path d="M85.55 25.05L581.45 25.05L581.45 305.08334L85.55 305.08334L85.55 25.05Z" clip-rule="nonzero"/></clipPath><path fill="#0b5394" clip-path="url(#id_0)" d="M150.0 305.0L126.0 305.0L126.0 228.0C126.0 226.89543 126.89543 226.0 128.0 226.0L148.0 226.0C149.10457 226.0 150.0 226.89543 150.0 228.0Z" fill-rule="nonzero"/><path fill="#0b5394" clip-path="url(#id_0)" d="M264.0 305.0L240.0 305.0L240.0 213.0C240.0 211.89543 240.89543 211.0 242.0 211.0L262.0 211.0C263.10458 211.0 264.0 211.89543 264.0 213.0Z" fill-rule="nonzero"/><path fill="#0b5394" clip-path="url(#id_0)" d="M378.0 305.0L354.0 305.0L354.0 65.0C354.0 63.89543 354.89542 63.0 356.0 63.0L376.0 63.0C377.10458 63.0 378.0 63.89543 378.0 65.0Z" fill-rule="nonzero"/><path fill="#0b5394" clip-path="url(#id_0)" d="M492.0 305.0L468.0 305.0L468.0 54.0C468.0 52.89543 468.89542 52.0 470.0 52.0L490.0 52.0C491.10458 52.0 492.0 52.89543 492.0 54.0Z" fill-rule="nonzero"/><path fill="#3d85c6" clip-path="url(#id_0)" d="M175.0 305.0L151.0 305.0L151.0 236.0C151.0 234.89543 151.89543 234.0 153.0 234.0L173.0 234.0C174.10457 234.0 175.0 234.89543 175.0 236.0Z" fill-rule="nonzero"/><path fill="#3d85c6" clip-path="url(#id_0)" d="M289.0 305.0L265.0 305.0L265.0 231.0C265.0 229.89543 265.89542 229.0 267.0 229.0L287.0 229.0C288.10458 229.0 289.0 229.89543 289.0 231.0Z" fill-rule="nonzero"/><path fill="#3d85c6" clip-path="url(#id_0)" d="M403.0 305.0L379.0 305.0L379.0 121.0C379.0 119.89543 379.89542 119.0 381.0 119.0L401.0 119.0C402.10458 119.0 403.0 119.89543 403.0 121.0Z" fill-rule="nonzero"/><path fill="#3d85c6" clip-path="url(#id_0)" d="M517.0 305.0L493.0 305.0L493.0 96.0C493.0 94.89543 493.89542 94.0 495.0 94.0L515.0 94.0C516.10455 94.0 517.0 94.89543 517.0 96.0Z" fill-rule="nonzero"/><path fill="#6fa8dc" clip-path="url(#id_0)" d="M200.0 305.0L176.0 305.0L176.0 236.0C176.0 234.89543 176.89543 234.0 178.0 234.0L198.0 234.0C199.10457 234.0 200.0 234.89543 200.0 236.0Z" fill-rule="nonzero"/><path fill="#6fa8dc" clip-path="url(#id_0)" d="M314.0 305.0L290.0 305.0L290.0 251.0C290.0 249.89543 290.89542 249.0 292.0 249.0L312.0 249.0C313.10458 249.0 314.0 249.89543 314.0 251.0Z" fill-rule="nonzero"/><path fill="#6fa8dc" clip-path="url(#id_0)" d="M428.0 305.0L404.0 305.0L404.0 123.0C404.0 121.89543 404.89542 121.0 406.0 121.0L426.0 121.0C427.10458 121.0 428.0 121.89543 428.0 123.0Z" fill-rule="nonzero"/><path fill="#6fa8dc" clip-path="url(#id_0)" d="M542.0 305.0L518.0 305.0L518.0 116.0C518.0 114.89543 518.89545 114.0 520.0 114.0L540.0 114.0C541.10455 114.0 542.0 114.89543 542.0 116.0Z" fill-rule="nonzero"/><path fill="#b7b7b7" d="M28.64376 234.37917Q28.628136 235.36354 27.92501 235.92604Q27.20626 236.47292 26.11251 236.39479L25.89376 236.36354Q25.11251 236.28542 24.471886 235.91042Q23.815636 235.51979 23.48751 234.97292Q23.159386 234.41042 23.17501 233.76979Q23.190636 232.95729 23.721886 232.50417Q24.23751 232.03542 25.128136 231.98854Q25.440636 231.97292 25.76876 232.00417L26.159386 232.06667L26.159386 235.51979Q26.878136 235.59792 27.39376 235.28542Q27.89376 234.95729 27.909386 234.30104Q27.92501 233.51979 27.20626 232.86354L27.64376 232.34792Q28.11251 232.69167 28.39376 233.22292Q28.659386 233.73854 28.64376 234.37917ZM23.909386 233.81667Q23.89376 234.36354 24.284386 234.76979Q24.659386 235.17604 25.42501 235.42604L25.42501 232.84792L25.346886 232.83229Q24.73751 232.75417 24.33126 233.03542Q23.92501 233.30104 23.909386 233.81667ZM25.190636 229.39479L23.26876 227.95729L23.26876 226.87917L25.92501 228.98854L28.55001 227.70729L28.55001 228.66042L26.58126 229.53542L28.55001 231.03542L28.55001 232.11354L25.83126 229.92604L23.26876 231.17604L23.26876 230.20729L25.190636 229.39479ZM28.64376 224.37917Q28.628136 225.36354 27.92501 225.92604Q27.20626 226.47292 26.11251 226.39479L25.89376 226.36354Q25.11251 226.28542 24.471886 225.91042Q23.815636 225.51979 23.48751 224.97292Q23.159386 224.41042 23.17501 223.76979Q23.190636 222.95729 23.721886 222.50417Q24.23751 222.03542 25.128136 221.98854Q25.440636 221.97292 25.76876 222.00417L26.159386 222.06667L26.159386 225.51979Q26.878136 225.59792 27.39376 225.28542Q27.89376 224.95729 27.909386 224.30104Q27.92501 223.51979 27.20626 222.86354L27.64376 222.34792Q28.11251 222.69167 28.39376 223.22292Q28.659386 223.73854 28.64376 224.37917ZM23.909386 223.81667Q23.89376 224.36354 24.284386 224.76979Q24.659386 225.17604 25.42501 225.42604L25.42501 222.84792L25.346886 222.83229Q24.73751 222.75417 24.33126 223.03542Q23.92501 223.30104 23.909386 223.81667ZM27.909386 219.42604Q27.92501 218.95729 27.64376 218.58229Q27.346886 218.19167 26.89376 218.08229L26.878136 217.23854Q27.378136 217.31667 27.80001 217.64479Q28.20626 217.97292 28.440636 218.47292Q28.659386 218.95729 28.64376 219.47292Q28.64376 220.12917 28.315636 220.59792Q27.971886 221.05104 27.378136 221.26979Q26.76876 221.47292 26.01876 221.41042L25.784386 221.37917Q25.01876 221.28542 24.42501 220.94167Q23.815636 220.58229 23.48751 220.01979Q23.14376 219.45729 23.17501 218.76979Q23.190636 217.94167 23.73751 217.44167Q24.26876 216.94167 25.08126 216.94167L25.08126 217.76979Q24.565636 217.78542 24.253136 218.06667Q23.92501 218.33229 23.909386 218.80104Q23.89376 219.50417 24.42501 219.95729Q24.940636 220.41042 25.89376 220.51979L26.01876 220.53542Q26.33126 220.56667 26.659386 220.55104Q27.23751 220.51979 27.565636 220.23854Q27.89376 219.94167 27.909386 219.42604ZM28.034386 213.31667Q28.67501 213.92604 28.64376 214.89479Q28.628136 215.64479 28.11251 216.01979Q27.58126 216.37917 26.67501 216.28542L23.26876 215.70729L23.26876 214.83229L26.690636 215.39479Q26.909386 215.42604 27.11251 215.41042Q27.471886 215.37917 27.67501 215.20729Q27.86251 215.01979 27.878136 214.67604Q27.909386 213.73854 27.11251 213.22292L23.26876 212.55104L23.26876 211.67604L28.55001 212.58229L28.55001 213.42604L28.034386 213.31667ZM21.98751 209.33229L23.26876 209.55104L23.26876 208.59792L23.971886 208.72292L23.971886 209.67604L27.253136 210.22292Q27.378136 210.23854 27.48751 210.22292Q27.86251 210.19167 27.86251 209.81667Q27.86251 209.66042 27.815636 209.37917L28.55001 209.45729Q28.64376 209.76979 28.64376 210.09792Q28.628136 210.62917 28.253136 210.89479Q27.878136 211.14479 27.23751 211.09792L23.971886 210.55104L23.971886 211.48854L23.26876 211.36354L23.26876 210.44167L21.98751 210.20729L21.98751 209.33229ZM28.55001 207.70729L28.55001 208.58229L23.26876 207.67604L23.26876 206.78542L28.55001 207.70729ZM21.33126 206.97292Q21.33126 206.75417 21.471886 206.61354Q21.61251 206.45729 21.846886 206.45729Q22.08126 206.45729 22.23751 206.61354Q22.378136 206.75417 22.39376 206.98854Q22.39376 207.20729 22.253136 207.36354Q22.11251 207.50417 21.878136 207.50417Q21.64376 207.48854 21.503136 207.34792Q21.346886 207.20729 21.33126 206.97292ZM23.17501 203.72292Q23.17501 203.06667 23.534386 202.59792Q23.878136 202.11354 24.503136 201.89479Q25.11251 201.66042 25.846886 201.73854L25.95626 201.75417Q26.721886 201.84792 27.346886 202.20729Q27.971886 202.56667 28.33126 203.16042Q28.67501 203.73854 28.64376 204.42604Q28.64376 205.08229 28.30001 205.56667Q27.940636 206.03542 27.33126 206.25417Q26.721886 206.47292 26.003136 206.41042Q25.17501 206.34792 24.51876 205.97292Q23.86251 205.59792 23.503136 205.01979Q23.14376 204.42604 23.17501 203.72292ZM26.003136 205.51979Q26.315636 205.56667 26.64376 205.51979Q27.221886 205.47292 27.565636 205.19167Q27.89376 204.89479 27.909386 204.39479Q27.92501 203.95729 27.70626 203.58229Q27.471886 203.20729 27.003136 202.95729Q26.534386 202.70729 25.95626 202.62917Q25.503136 202.59792 25.20626 202.61354Q24.61251 202.67604 24.26876 202.97292Q23.92501 203.26979 23.909386 203.76979Q23.89376 204.44167 24.440636 204.92604Q24.98751 205.41042 25.89376 205.51979L26.003136 205.51979ZM23.26876 198.91042L23.92501 199.03542Q23.14376 198.33229 23.17501 197.41042Q23.190636 196.67604 23.690636 196.31667Q24.190636 195.95729 25.08126 196.05104L28.55001 196.62917L28.55001 197.50417L25.065636 196.92604Q24.83126 196.89479 24.628136 196.92604Q23.940636 197.00417 23.92501 197.72292Q23.909386 198.51979 24.784386 199.12917L28.55001 199.78542L28.55001 200.66042L23.26876 199.75417L23.26876 198.91042ZM21.98751 191.33229L23.26876 191.55104L23.26876 190.59792L23.971886 190.72292L23.971886 191.67604L27.253136 192.22292Q27.378136 192.23854 27.48751 192.22292Q27.86251 192.19167 27.86251 191.81667Q27.86251 191.66042 27.815636 191.37917L28.55001 191.45729Q28.64376 191.76979 28.64376 192.09792Q28.628136 192.62917 28.253136 192.89479Q27.878136 193.14479 27.23751 193.09792L23.971886 192.55104L23.971886 193.48854L23.26876 193.36354L23.26876 192.44167L21.98751 192.20729L21.98751 191.33229ZM28.55001 189.70729L28.55001 190.58229L23.26876 189.67604L23.26876 188.78542L28.55001 189.70729ZM21.33126 188.97292Q21.33126 188.75417 21.471886 188.61354Q21.61251 188.45729 21.846886 188.45729Q22.08126 188.45729 22.23751 188.61354Q22.378136 188.75417 22.39376 188.98854Q22.39376 189.20729 22.253136 189.36354Q22.11251 189.50417 21.878136 189.50417Q21.64376 189.48854 21.503136 189.34792Q21.346886 189.20729 21.33126 188.97292ZM23.26876 186.92604L23.846886 187.03542Q23.14376 186.36354 23.17501 185.42604Q23.17501 184.92604 23.39376 184.58229Q23.61251 184.22292 24.01876 184.09792Q23.14376 183.34792 23.17501 182.34792Q23.190636 181.55104 23.70626 181.17604Q24.20626 180.80104 25.08126 180.89479L28.55001 181.47292L28.55001 182.36354L25.065636 181.78542Q24.815636 181.75417 24.596886 181.78542Q23.940636 181.87917 23.92501 182.64479Q23.909386 183.12917 24.221886 183.53542Q24.534386 183.92604 25.034386 184.03542L28.55001 184.62917L28.55001 185.51979L25.065636 184.94167Q24.534386 184.86354 24.23751 185.09792Q23.940636 185.33229 23.940636 185.80104Q23.909386 186.62917 24.690636 187.11354L28.55001 187.78542L28.55001 188.67604L23.26876 187.75417L23.26876 186.92604ZM28.64376 177.37917Q28.628136 178.36354 27.92501 178.92604Q27.20626 179.47292 26.11251 179.39479L25.89376 179.36354Q25.11251 179.28542 24.471886 178.91042Q23.815636 178.51979 23.48751 177.97292Q23.159386 177.41042 23.17501 176.76979Q23.190636 175.95729 23.721886 175.50417Q24.23751 175.03542 25.128136 174.98854Q25.440636 174.97292 25.76876 175.00417L26.159386 175.06667L26.159386 178.51979Q26.878136 178.59792 27.39376 178.28542Q27.89376 177.95729 27.909386 177.30104Q27.92501 176.51979 27.20626 175.86354L27.64376 175.34792Q28.11251 175.69167 28.39376 176.22292Q28.659386 176.73854 28.64376 177.37917ZM23.909386 176.81667Q23.89376 177.36354 24.284386 177.76979Q24.659386 178.17604 25.42501 178.42604L25.42501 175.84792L25.346886 175.83229Q24.73751 175.75417 24.33126 176.03542Q23.92501 176.30104 23.909386 176.81667ZM25.690636 172.16042Q24.55001 172.00417 23.48751 171.56667Q22.409386 171.12917 21.659386 170.50417Q20.909386 169.86354 20.51876 169.08229L21.128136 168.94167Q21.70626 169.72292 22.628136 170.26979Q23.534386 170.81667 24.815636 171.11354Q26.08126 171.41042 27.30001 171.39479Q28.315636 171.39479 29.08126 171.14479Q29.846886 170.87917 30.30001 170.37917L30.846886 170.59792Q30.284386 171.42604 29.17501 171.86354Q28.065636 172.28542 26.628136 172.23854Q26.159386 172.23854 25.73751 172.17604L25.690636 172.16042ZM28.55001 168.70729L28.55001 169.58229L21.05001 168.28542L21.05001 167.41042L28.55001 168.70729ZM23.17501 164.72292Q23.17501 164.06667 23.534386 163.59792Q23.878136 163.11354 24.503136 162.89479Q25.11251 162.66042 25.846886 162.73854L25.95626 162.75417Q26.721886 162.84792 27.346886 163.20729Q27.971886 163.56667 28.33126 164.16042Q28.67501 164.73854 28.64376 165.42604Q28.64376 166.08229 28.30001 166.56667Q27.940636 167.03542 27.33126 167.25417Q26.721886 167.47292 26.003136 167.41042Q25.17501 167.34792 24.51876 166.97292Q23.86251 166.59792 23.503136 166.01979Q23.14376 165.42604 23.17501 164.72292ZM26.003136 166.51979Q26.315636 166.56667 26.64376 166.51979Q27.221886 166.47292 27.565636 166.19167Q27.89376 165.89479 27.909386 165.39479Q27.92501 164.95729 27.70626 164.58229Q27.471886 164.20729 27.003136 163.95729Q26.534386 163.70729 25.95626 163.62917Q25.503136 163.59792 25.20626 163.61354Q24.61251 163.67604 24.26876 163.97292Q23.92501 164.26979 23.909386 164.76979Q23.89376 165.44167 24.440636 165.92604Q24.98751 166.41042 25.89376 166.51979L26.003136 166.51979ZM27.30001 156.92604L23.26876 155.23854L23.26876 154.33229L28.55001 156.73854L28.55001 157.45729L24.55001 158.00417L28.55001 159.89479L28.55001 160.61354L23.26876 161.19167L23.26876 160.34792L27.20626 160.01979L23.26876 158.14479L23.26876 157.44167L27.30001 156.92604ZM28.64376 152.37917Q28.628136 153.36354 27.92501 153.92604Q27.20626 154.47292 26.11251 154.39479L25.89376 154.36354Q25.11251 154.28542 24.471886 153.91042Q23.815636 153.51979 23.48751 152.97292Q23.159386 152.41042 23.17501 151.76979Q23.190636 150.95729 23.721886 150.50417Q24.23751 150.03542 25.128136 149.98854Q25.440636 149.97292 25.76876 150.00417L26.159386 150.06667L26.159386 153.51979Q26.878136 153.59792 27.39376 153.28542Q27.89376 152.95729 27.909386 152.30104Q27.92501 151.51979 27.20626 150.86354L27.64376 150.34792Q28.11251 150.69167 28.39376 151.22292Q28.659386 151.73854 28.64376 152.37917ZM23.909386 151.81667Q23.89376 152.36354 24.284386 152.76979Q24.659386 153.17604 25.42501 153.42604L25.42501 150.84792L25.346886 150.83229Q24.73751 150.75417 24.33126 151.03542Q23.92501 151.30104 23.909386 151.81667ZM24.065636 146.37917L24.034386 146.80104Q24.034386 147.64479 24.80001 148.12917L28.55001 148.78542L28.55001 149.66042L23.26876 148.75417L23.26876 147.89479L23.878136 148.01979Q23.14376 147.45729 23.159386 146.70729Q23.159386 146.53542 23.23751 146.28542L24.065636 146.37917ZM28.55001 143.70729L28.55001 144.58229L23.26876 143.67604L23.26876 142.78542L28.55001 143.70729ZM21.33126 142.97292Q21.33126 142.75417 21.471886 142.61354Q21.61251 142.45729 21.846886 142.45729Q22.08126 142.45729 22.23751 142.61354Q22.378136 142.75417 22.39376 142.98854Q22.39376 143.20729 22.253136 143.36354Q22.11251 143.50417 21.878136 143.50417Q21.64376 143.48854 21.503136 143.34792Q21.346886 143.20729 21.33126 142.97292ZM27.11251 139.39479Q26.565636 139.31667 26.346886 139.98854L26.08126 140.91042Q25.67501 142.06667 24.753136 142.03542Q24.05001 142.00417 23.61251 141.41042Q23.159386 140.80104 23.17501 139.97292Q23.17501 139.17604 23.64376 138.67604Q24.096886 138.17604 24.83126 138.19167L24.815636 139.08229Q24.42501 139.06667 24.17501 139.33229Q23.92501 139.58229 23.909386 140.01979Q23.909386 140.47292 24.14376 140.80104Q24.36251 141.11354 24.721886 141.16042Q25.17501 141.22292 25.378136 140.59792L25.503136 140.16042Q25.73751 139.25417 26.11251 138.87917Q26.48751 138.48854 27.05001 138.51979Q27.55001 138.55104 27.909386 138.84792Q28.26876 139.12917 28.471886 139.62917Q28.659386 140.11354 28.64376 140.66042Q28.64376 141.50417 28.159386 142.05104Q27.67501 142.59792 26.92501 142.56667L26.92501 141.69167Q27.36251 141.69167 27.64376 141.41042Q27.909386 141.12917 27.909386 140.62917Q27.909386 140.14479 27.70626 139.80104Q27.48751 139.44167 27.11251 139.39479ZM25.92501 130.86354Q26.73751 130.97292 27.39376 131.31667Q28.034386 131.66042 28.36251 132.16042Q28.67501 132.64479 28.659386 133.25417Q28.628136 134.20729 27.940636 134.67604L28.55001 134.84792L28.55001 135.66042L21.05001 134.36354L21.05001 133.47292L23.846886 134.00417Q23.14376 133.37917 23.17501 132.47292Q23.190636 131.70729 23.73751 131.28542Q24.26876 130.84792 25.221886 130.83229Q25.534386 130.83229 25.83126 130.86354L25.92501 130.86354ZM25.42501 131.70729Q24.70626 131.69167 24.33126 131.95729Q23.95626 132.20729 23.92501 132.72292Q23.909386 133.55104 24.753136 134.12917L27.065636 134.51979Q27.86251 134.22292 27.878136 133.42604Q27.909386 132.89479 27.58126 132.51979Q27.253136 132.12917 26.67501 131.92604Q26.08126 131.72292 25.42501 131.70729ZM28.64376 127.379166Q28.628136 128.36354 27.92501 128.92604Q27.20626 129.47292 26.11251 129.39479L25.89376 129.36354Q25.11251 129.28542 24.471886 128.91042Q23.815636 128.51979 23.48751 127.972916Q23.159386 127.410416 23.17501 126.76979Q23.190636 125.95729 23.721886 125.504166Q24.23751 125.035416 25.128136 124.98854Q25.440636 124.972916 25.76876 125.004166L26.159386 125.066666L26.159386 128.51979Q26.878136 128.59792 27.39376 128.28542Q27.89376 127.95729 27.909386 127.30104Q27.92501 126.51979 27.20626 125.86354L27.64376 125.347916Q28.11251 125.691666 28.39376 126.222916Q28.659386 126.73854 28.64376 127.379166ZM23.909386 126.816666Q23.89376 127.36354 24.284386 127.76979Q24.659386 128.17604 25.42501 128.42604L25.42501 125.847916L25.346886 125.83229Q24.73751 125.754166 24.33126 126.035416Q23.92501 126.30104 23.909386 126.816666ZM21.98751 122.33229L23.26876 122.55104L23.26876 121.597916L23.971886 121.722916L23.971886 122.67604L27.253136 123.222916Q27.378136 123.23854 27.48751 123.222916Q27.86251 123.191666 27.86251 122.816666Q27.86251 122.660416 27.815636 122.379166L28.55001 122.45729Q28.64376 122.76979 28.64376 123.097916Q28.628136 123.629166 28.253136 123.89479Q27.878136 124.14479 27.23751 124.097916L23.971886 123.55104L23.971886 124.48854L23.26876 124.36354L23.26876 123.441666L21.98751 123.20729L21.98751 122.33229ZM21.98751 119.33229L23.26876 119.55104L23.26876 118.597916L23.971886 118.722916L23.971886 119.67604L27.253136 120.222916Q27.378136 120.23854 27.48751 120.222916Q27.86251 120.191666 27.86251 119.816666Q27.86251 119.660416 27.815636 119.379166L28.55001 119.45729Q28.64376 119.76979 28.64376 120.097916Q28.628136 120.629166 28.253136 120.89479Q27.878136 121.14479 27.23751 121.097916L23.971886 120.55104L23.971886 121.48854L23.26876 121.36354L23.26876 120.441666L21.98751 120.20729L21.98751 119.33229ZM28.64376 116.379166Q28.628136 117.36354 27.92501 117.92604Q27.20626 118.472916 26.11251 118.39479L25.89376 118.36354Q25.11251 118.285416 24.471886 117.910416Q23.815636 117.51979 23.48751 116.972916Q23.159386 116.410416 23.17501 115.76979Q23.190636 114.95729 23.721886 114.504166Q24.23751 114.035416 25.128136 113.98854Q25.440636 113.972916 25.76876 114.004166L26.159386 114.066666L26.159386 117.51979Q26.878136 117.597916 27.39376 117.285416Q27.89376 116.95729 27.909386 116.30104Q27.92501 115.51979 27.20626 114.86354L27.64376 114.347916Q28.11251 114.691666 28.39376 115.222916Q28.659386 115.73854 28.64376 116.379166ZM23.909386 115.816666Q23.89376 116.36354 24.284386 116.76979Q24.659386 117.17604 25.42501 117.42604L25.42501 114.847916L25.346886 114.83229Q24.73751 114.754166 24.33126 115.035416Q23.92501 115.30104 23.909386 115.816666ZM24.065636 110.379166L24.034386 110.80104Q24.034386 111.64479 24.80001 112.129166L28.55001 112.785416L28.55001 113.660416L23.26876 112.754166L23.26876 111.89479L23.878136 112.01979Q23.14376 111.45729 23.159386 110.70729Q23.159386 110.535416 23.23751 110.285416L24.065636 110.379166ZM25.690636 108.14479Q26.878136 108.316666 27.940636 108.76979Q29.003136 109.20729 29.73751 109.847916Q30.471886 110.472916 30.846886 111.23854L30.284386 111.36354Q29.034386 109.691666 26.23751 109.129166Q25.11251 108.910416 24.08126 108.910416Q21.98751 108.941666 21.08126 109.92604L20.534386 109.70729Q20.909386 109.160416 21.55001 108.785416Q22.17501 108.39479 23.01876 108.222916Q23.846886 108.035416 24.753136 108.066666Q25.221886 108.08229 25.64376 108.129166L25.690636 108.14479Z" fill-rule="nonzero"/><path fill="#b7b7b7" d="M63.596874 305.5521Q63.596874 307.13022 63.05 307.91147Q62.51875 308.6771 61.3625 308.6771Q60.221874 308.6771 59.675 307.9271Q59.128124 307.1771 59.1125 305.6771L59.1125 304.47397Q59.1125 302.89584 59.64375 302.14584Q60.190624 301.38022 61.346874 301.38022Q62.503124 301.38022 63.034374 302.1146Q63.58125 302.84897 63.596874 304.38022L63.596874 305.5521ZM62.690624 304.31772Q62.690624 303.16147 62.3625 302.64584Q62.05 302.1146 61.346874 302.1146Q60.659374 302.1146 60.33125 302.64584Q60.01875 303.16147 60.01875 304.2396L60.01875 305.69272Q60.01875 306.84897 60.346874 307.39584Q60.690624 307.94272 61.3625 307.94272Q62.034374 307.94272 62.346874 307.4271Q62.675 306.91147 62.690624 305.8021L62.690624 304.31772ZM68.08125 303.3021L68.1125 303.88022Q68.69063 303.20834 69.675 303.20834Q70.78438 303.20834 71.19063 304.0521Q71.44063 303.6771 71.8625 303.44272Q72.3 303.20834 72.8625 303.20834Q74.6125 303.20834 74.64375 305.03647L74.64375 308.58334L73.7375 308.58334L73.7375 305.09897Q73.7375 304.53647 73.47188 304.25522Q73.22188 303.97397 72.6125 303.97397Q72.09688 303.97397 71.76875 304.27084Q71.44063 304.56772 71.37813 305.08334L71.37813 308.58334L70.47188 308.58334L70.47188 305.1146Q70.47188 303.97397 69.34688 303.97397Q68.45625 303.97397 68.12813 304.72397L68.12813 308.58334L67.22188 308.58334L67.22188 303.3021L68.08125 303.3021ZM79.31563 307.1771Q79.31563 306.81772 79.03438 306.6146Q78.75313 306.41147 78.06563 306.27084Q77.39375 306.1146 76.9875 305.91147Q76.58125 305.70834 76.37813 305.4271Q76.19063 305.14584 76.19063 304.75522Q76.19063 304.09897 76.7375 303.66147Q77.3 303.20834 78.14375 303.20834Q79.05 303.20834 79.59688 303.6771Q80.15938 304.13022 80.15938 304.84897L79.25313 304.84897Q79.25313 304.47397 78.94063 304.20834Q78.62813 303.94272 78.14375 303.94272Q77.65938 303.94272 77.37813 304.16147Q77.09688 304.38022 77.09688 304.72397Q77.09688 305.0521 77.34688 305.22397Q77.6125 305.38022 78.28438 305.53647Q78.97188 305.6771 79.39375 305.89584Q79.81563 306.09897 80.00313 306.39584Q80.20625 306.69272 80.20625 307.1146Q80.20625 307.83334 79.64375 308.25522Q79.08125 308.6771 78.175 308.6771Q77.55 308.6771 77.05 308.45834Q76.56563 308.22397 76.28438 307.83334Q76.01875 307.4271 76.01875 306.95834L76.925 306.95834Q76.94063 307.41147 77.28438 307.6771Q77.62813 307.94272 78.175 307.94272Q78.69063 307.94272 79.00313 307.7396Q79.31563 307.52084 79.31563 307.1771Z" fill-rule="nonzero"/><path fill="#b7b7b7" d="M57.8 238.575L53.14375 238.575L53.14375 237.91875L55.596874 235.18437Q56.14375 234.575 56.346874 234.18437Q56.565624 233.79375 56.565624 233.37187Q56.565624 232.825 56.221874 232.46562Q55.89375 232.10625 55.33125 232.10625Q54.659374 232.10625 54.284374 232.49687Q53.909374 232.87187 53.909374 233.55937L53.003124 233.55937Q53.003124 232.575 53.628124 231.98125Q54.26875 231.37187 55.33125 231.37187Q56.315624 231.37187 56.89375 231.8875Q57.471874 232.40312 57.471874 233.27812Q57.471874 234.325 56.128124 235.77812L54.2375 237.84062L57.8 237.84062L57.8 238.575ZM59.55 235.0125L59.925 231.46562L63.565624 231.46562L63.565624 232.29375L60.690624 232.29375L60.471874 234.23125Q60.9875 233.93437 61.659374 233.93437Q62.628124 233.93437 63.190624 234.575Q63.76875 235.21562 63.76875 236.30937Q63.76875 237.40312 63.175 238.04375Q62.58125 238.66875 61.51875 238.66875Q60.58125 238.66875 59.971874 238.15312Q59.378124 237.62187 59.3 236.7L60.159374 236.7Q60.2375 237.30937 60.58125 237.62187Q60.940624 237.93437 61.51875 237.93437Q62.14375 237.93437 62.503124 237.5125Q62.8625 237.075 62.8625 236.325Q62.8625 235.60625 62.471874 235.18437Q62.096874 234.74687 61.440624 234.74687Q60.8625 234.74687 60.51875 234.99687L60.284374 235.2L59.55 235.0125ZM68.08125 233.29375L68.1125 233.87187Q68.69063 233.2 69.675 233.2Q70.78438 233.2 71.19063 234.04375Q71.44063 233.66875 71.8625 233.43437Q72.3 233.2 72.8625 233.2Q74.6125 233.2 74.64375 235.02812L74.64375 238.575L73.7375 238.575L73.7375 235.09062Q73.7375 234.52812 73.47188 234.24687Q73.22188 233.96562 72.6125 233.96562Q72.09688 233.96562 71.76875 234.2625Q71.44063 234.55937 71.37813 235.075L71.37813 238.575L70.47188 238.575L70.47188 235.10625Q70.47188 233.96562 69.34688 233.96562Q68.45625 233.96562 68.12813 234.71562L68.12813 238.575L67.22188 238.575L67.22188 233.29375L68.08125 233.29375ZM79.31563 237.16875Q79.31563 236.80937 79.03438 236.60625Q78.75313 236.40312 78.06563 236.2625Q77.39375 236.10625 76.9875 235.90312Q76.58125 235.7 76.37813 235.41875Q76.19063 235.1375 76.19063 234.74687Q76.19063 234.09062 76.7375 233.65312Q77.3 233.2 78.14375 233.2Q79.05 233.2 79.59688 233.66875Q80.15938 234.12187 80.15938 234.84062L79.25313 234.84062Q79.25313 234.46562 78.94063 234.2Q78.62813 233.93437 78.14375 233.93437Q77.65938 233.93437 77.37813 234.15312Q77.09688 234.37187 77.09688 234.71562Q77.09688 235.04375 77.34688 235.21562Q77.6125 235.37187 78.28438 235.52812Q78.97188 235.66875 79.39375 235.8875Q79.81563 236.09062 80.00313 236.3875Q80.20625 236.68437 80.20625 237.10625Q80.20625 237.825 79.64375 238.24687Q79.08125 238.66875 78.175 238.66875Q77.55 238.66875 77.05 238.45Q76.56563 238.21562 76.28438 237.825Q76.01875 237.41875 76.01875 236.95L76.925 236.95Q76.94063 237.40312 77.28438 237.66875Q77.62813 237.93437 78.175 237.93437Q78.69063 237.93437 79.00313 237.73125Q79.31563 237.5125 79.31563 237.16875Z" fill-rule="nonzero"/><path fill="#b7b7b7" d="M53.55 165.00417L53.925 161.45729L57.565624 161.45729L57.565624 162.28542L54.690624 162.28542L54.471874 164.22292Q54.9875 163.92604 55.659374 163.92604Q56.628124 163.92604 57.190624 164.56667Q57.76875 165.20729 57.76875 166.30104Q57.76875 167.39479 57.175 168.03542Q56.58125 168.66042 55.51875 168.66042Q54.58125 168.66042 53.971874 168.14479Q53.378124 167.61354 53.3 166.69167L54.159374 166.69167Q54.2375 167.30104 54.58125 167.61354Q54.940624 167.92604 55.51875 167.92604Q56.14375 167.92604 56.503124 167.50417Q56.8625 167.06667 56.8625 166.31667Q56.8625 165.59792 56.471874 165.17604Q56.096874 164.73854 55.440624 164.73854Q54.8625 164.73854 54.51875 164.98854L54.284374 165.19167L53.55 165.00417ZM63.596874 165.53542Q63.596874 167.11354 63.05 167.89479Q62.51875 168.66042 61.3625 168.66042Q60.221874 168.66042 59.675 167.91042Q59.128124 167.16042 59.1125 165.66042L59.1125 164.45729Q59.1125 162.87917 59.64375 162.12917Q60.190624 161.36354 61.346874 161.36354Q62.503124 161.36354 63.034374 162.09792Q63.58125 162.83229 63.596874 164.36354L63.596874 165.53542ZM62.690624 164.30104Q62.690624 163.14479 62.3625 162.62917Q62.05 162.09792 61.346874 162.09792Q60.659374 162.09792 60.33125 162.62917Q60.01875 163.14479 60.01875 164.22292L60.01875 165.67604Q60.01875 166.83229 60.346874 167.37917Q60.690624 167.92604 61.3625 167.92604Q62.034374 167.92604 62.346874 167.41042Q62.675 166.89479 62.690624 165.78542L62.690624 164.30104ZM68.08125 163.28542L68.1125 163.86354Q68.69063 163.19167 69.675 163.19167Q70.78438 163.19167 71.19063 164.03542Q71.44063 163.66042 71.8625 163.42604Q72.3 163.19167 72.8625 163.19167Q74.6125 163.19167 74.64375 165.01979L74.64375 168.56667L73.7375 168.56667L73.7375 165.08229Q73.7375 164.51979 73.47188 164.23854Q73.22188 163.95729 72.6125 163.95729Q72.09688 163.95729 71.76875 164.25417Q71.44063 164.55104 71.37813 165.06667L71.37813 168.56667L70.47188 168.56667L70.47188 165.09792Q70.47188 163.95729 69.34688 163.95729Q68.45625 163.95729 68.12813 164.70729L68.12813 168.56667L67.22188 168.56667L67.22188 163.28542L68.08125 163.28542ZM79.31563 167.16042Q79.31563 166.80104 79.03438 166.59792Q78.75313 166.39479 78.06563 166.25417Q77.39375 166.09792 76.9875 165.89479Q76.58125 165.69167 76.37813 165.41042Q76.19063 165.12917 76.19063 164.73854Q76.19063 164.08229 76.7375 163.64479Q77.3 163.19167 78.14375 163.19167Q79.05 163.19167 79.59688 163.66042Q80.15938 164.11354 80.15938 164.83229L79.25313 164.83229Q79.25313 164.45729 78.94063 164.19167Q78.62813 163.92604 78.14375 163.92604Q77.65938 163.92604 77.37813 164.14479Q77.09688 164.36354 77.09688 164.70729Q77.09688 165.03542 77.34688 165.20729Q77.6125 165.36354 78.28438 165.51979Q78.97188 165.66042 79.39375 165.87917Q79.81563 166.08229 80.00313 166.37917Q80.20625 166.67604 80.20625 167.09792Q80.20625 167.81667 79.64375 168.23854Q79.08125 168.66042 78.175 168.66042Q77.55 168.66042 77.05 168.44167Q76.56563 168.20729 76.28438 167.81667Q76.01875 167.41042 76.01875 166.94167L76.925 166.94167Q76.94063 167.39479 77.28438 167.66042Q77.62813 167.92604 78.175 167.92604Q78.69063 167.92604 79.00313 167.72292Q79.31563 167.50417 79.31563 167.16042Z" fill-rule="nonzero"/><path fill="#b7b7b7" d="M57.7375 91.94896L54.784374 98.558334L53.846874 98.558334L56.76875 92.183334L52.925 92.183334L52.925 91.44896L57.7375 91.44896L57.7375 91.94896ZM59.55 94.995834L59.925 91.44896L63.565624 91.44896L63.565624 92.277084L60.690624 92.277084L60.471874 94.214584Q60.9875 93.91771 61.659374 93.91771Q62.628124 93.91771 63.190624 94.558334Q63.76875 95.19896 63.76875 96.29271Q63.76875 97.38646 63.175 98.027084Q62.58125 98.652084 61.51875 98.652084Q60.58125 98.652084 59.971874 98.13646Q59.378124 97.60521 59.3 96.683334L60.159374 96.683334Q60.2375 97.29271 60.58125 97.60521Q60.940624 97.91771 61.51875 97.91771Q62.14375 97.91771 62.503124 97.495834Q62.8625 97.058334 62.8625 96.308334Q62.8625 95.589584 62.471874 95.16771Q62.096874 94.73021 61.440624 94.73021Q60.8625 94.73021 60.51875 94.98021L60.284374 95.183334L59.55 94.995834ZM68.08125 93.277084L68.1125 93.85521Q68.69063 93.183334 69.675 93.183334Q70.78438 93.183334 71.19063 94.027084Q71.44063 93.652084 71.8625 93.41771Q72.3 93.183334 72.8625 93.183334Q74.6125 93.183334 74.64375 95.01146L74.64375 98.558334L73.7375 98.558334L73.7375 95.07396Q73.7375 94.51146 73.47188 94.23021Q73.22188 93.94896 72.6125 93.94896Q72.09688 93.94896 71.76875 94.245834Q71.44063 94.54271 71.37813 95.058334L71.37813 98.558334L70.47188 98.558334L70.47188 95.089584Q70.47188 93.94896 69.34688 93.94896Q68.45625 93.94896 68.12813 94.69896L68.12813 98.558334L67.22188 98.558334L67.22188 93.277084L68.08125 93.277084ZM79.31563 97.152084Q79.31563 96.79271 79.03438 96.589584Q78.75313 96.38646 78.06563 96.245834Q77.39375 96.089584 76.9875 95.88646Q76.58125 95.683334 76.37813 95.402084Q76.19063 95.120834 76.19063 94.73021Q76.19063 94.07396 76.7375 93.63646Q77.3 93.183334 78.14375 93.183334Q79.05 93.183334 79.59688 93.652084Q80.15938 94.10521 80.15938 94.82396L79.25313 94.82396Q79.25313 94.44896 78.94063 94.183334Q78.62813 93.91771 78.14375 93.91771Q77.65938 93.91771 77.37813 94.13646Q77.09688 94.35521 77.09688 94.69896Q77.09688 95.027084 77.34688 95.19896Q77.6125 95.35521 78.28438 95.51146Q78.97188 95.652084 79.39375 95.870834Q79.81563 96.07396 80.00313 96.370834Q80.20625 96.66771 80.20625 97.089584Q80.20625 97.808334 79.64375 98.23021Q79.08125 98.652084 78.175 98.652084Q77.55 98.652084 77.05 98.433334Q76.56563 98.19896 76.28438 97.808334Q76.01875 97.402084 76.01875 96.933334L76.925 96.933334Q76.94063 97.38646 77.28438 97.652084Q77.62813 97.91771 78.175 97.91771Q78.69063 97.91771 79.00313 97.714584Q79.31563 97.495834 79.31563 97.152084Z" fill-rule="nonzero"/><path fill="#b7b7b7" d="M50.1125 28.55L49.20625 28.55L49.20625 22.534374L47.378124 23.190624L47.378124 22.378124L49.971874 21.409374L50.1125 21.409374L50.1125 28.55ZM57.596874 25.51875Q57.596874 27.096874 57.05 27.878124Q56.51875 28.64375 55.3625 28.64375Q54.221874 28.64375 53.675 27.89375Q53.128124 27.14375 53.1125 25.64375L53.1125 24.440624Q53.1125 22.8625 53.64375 22.1125Q54.190624 21.346874 55.346874 21.346874Q56.503124 21.346874 57.034374 22.08125Q57.58125 22.815624 57.596874 24.346874L57.596874 25.51875ZM56.690624 24.284374Q56.690624 23.128124 56.3625 22.6125Q56.05 22.08125 55.346874 22.08125Q54.659374 22.08125 54.33125 22.6125Q54.01875 23.128124 54.01875 24.20625L54.01875 25.659374Q54.01875 26.815624 54.346874 27.3625Q54.690624 27.909374 55.3625 27.909374Q56.034374 27.909374 56.346874 27.39375Q56.675 26.878124 56.690624 25.76875L56.690624 24.284374ZM63.596874 25.51875Q63.596874 27.096874 63.05 27.878124Q62.51875 28.64375 61.3625 28.64375Q60.221874 28.64375 59.675 27.89375Q59.128124 27.14375 59.1125 25.64375L59.1125 24.440624Q59.1125 22.8625 59.64375 22.1125Q60.190624 21.346874 61.346874 21.346874Q62.503124 21.346874 63.034374 22.08125Q63.58125 22.815624 63.596874 24.346874L63.596874 25.51875ZM62.690624 24.284374Q62.690624 23.128124 62.3625 22.6125Q62.05 22.08125 61.346874 22.08125Q60.659374 22.08125 60.33125 22.6125Q60.01875 23.128124 60.01875 24.20625L60.01875 25.659374Q60.01875 26.815624 60.346874 27.3625Q60.690624 27.909374 61.3625 27.909374Q62.034374 27.909374 62.346874 27.39375Q62.675 26.878124 62.690624 25.76875L62.690624 24.284374ZM68.08125 23.26875L68.1125 23.846874Q68.69063 23.175 69.675 23.175Q70.78438 23.175 71.19063 24.01875Q71.44063 23.64375 71.8625 23.409374Q72.3 23.175 72.8625 23.175Q74.6125 23.175 74.64375 25.003124L74.64375 28.55L73.7375 28.55L73.7375 25.065624Q73.7375 24.503124 73.47188 24.221874Q73.22188 23.940624 72.6125 23.940624Q72.09688 23.940624 71.76875 24.2375Q71.44063 24.534374 71.37813 25.05L71.37813 28.55L70.47188 28.55L70.47188 25.08125Q70.47188 23.940624 69.34688 23.940624Q68.45625 23.940624 68.12813 24.690624L68.12813 28.55L67.22188 28.55L67.22188 23.26875L68.08125 23.26875ZM79.31563 27.14375Q79.31563 26.784374 79.03438 26.58125Q78.75313 26.378124 78.06563 26.2375Q77.39375 26.08125 76.9875 25.878124Q76.58125 25.675 76.37813 25.39375Q76.19063 25.1125 76.19063 24.721874Q76.19063 24.065624 76.7375 23.628124Q77.3 23.175 78.14375 23.175Q79.05 23.175 79.59688 23.64375Q80.15938 24.096874 80.15938 24.815624L79.25313 24.815624Q79.25313 24.440624 78.94063 24.175Q78.62813 23.909374 78.14375 23.909374Q77.65938 23.909374 77.37813 24.128124Q77.09688 24.346874 77.09688 24.690624Q77.09688 25.01875 77.34688 25.190624Q77.6125 25.346874 78.28438 25.503124Q78.97188 25.64375 79.39375 25.8625Q79.81563 26.065624 80.00313 26.3625Q80.20625 26.659374 80.20625 27.08125Q80.20625 27.8 79.64375 28.221874Q79.08125 28.64375 78.175 28.64375Q77.55 28.64375 77.05 28.425Q76.56563 28.190624 76.28438 27.8Q76.01875 27.39375 76.01875 26.925L76.925 26.925Q76.94063 27.378124 77.28438 27.64375Q77.62813 27.909374 78.175 27.909374Q78.69063 27.909374 79.00313 27.70625Q79.31563 27.4875 79.31563 27.14375Z" fill-rule="nonzero"/><path fill="#000000" d="M117.0625 319.8646Q117.0625 318.39584 117.75 317.52084Q118.4375 316.63022 119.5625 316.63022Q120.671875 316.63022 121.328125 317.38022L121.328125 314.08334L122.40625 314.08334L122.40625 323.08334L121.40625 323.08334L121.359375 322.39584Q120.703125 323.20834 119.546875 323.20834Q118.453125 323.20834 117.75 322.3021Q117.0625 321.39584 117.0625 319.94272L117.0625 319.8646ZM118.140625 319.9896Q118.140625 321.06772 118.578125 321.6771Q119.03125 322.28647 119.8125 322.28647Q120.84375 322.28647 121.328125 321.34897L121.328125 318.44272Q120.84375 317.5521 119.828125 317.5521Q119.03125 317.5521 118.578125 318.16147Q118.140625 318.77084 118.140625 319.9896ZM124.03125 319.84897Q124.03125 318.9271 124.390625 318.1771Q124.765625 317.4271 125.421875 317.03647Q126.078125 316.63022 126.90625 316.63022Q128.20312 316.63022 129.0 317.52084Q129.8125 318.41147 129.8125 319.91147L129.8125 319.9896Q129.8125 320.91147 129.45312 321.64584Q129.09375 322.38022 128.4375 322.8021Q127.78125 323.20834 126.921875 323.20834Q125.640625 323.20834 124.828125 322.31772Q124.03125 321.41147 124.03125 319.9271L124.03125 319.84897ZM125.125 319.9896Q125.125 321.03647 125.609375 321.6771Q126.109375 322.31772 126.921875 322.31772Q127.75 322.31772 128.23438 321.6771Q128.71875 321.02084 128.71875 319.84897Q128.71875 318.81772 128.21875 318.1771Q127.734375 317.52084 126.90625 317.52084Q126.109375 317.52084 125.609375 318.16147Q125.125 318.78647 125.125 319.9896ZM133.45312 319.0521L134.85938 316.7396L136.125 316.7396L134.04688 319.88022L136.1875 323.08334L134.9375 323.08334L133.46875 320.70834L132.0 323.08334L130.73438 323.08334L132.875 319.88022L130.8125 316.7396L132.0625 316.7396L133.45312 319.0521ZM142.6875 319.9896Q142.6875 321.44272 142.01562 322.33334Q141.35938 323.20834 140.23438 323.20834Q139.03125 323.20834 138.375 322.34897L138.3125 323.08334L137.32812 323.08334L137.32812 314.08334L138.40625 314.08334L138.40625 317.44272Q139.0625 316.63022 140.21875 316.63022Q141.375 316.63022 142.03125 317.50522Q142.6875 318.3646 142.6875 319.89584L142.6875 319.9896ZM141.60938 319.8646Q141.60938 318.75522 141.17188 318.16147Q140.75 317.5521 139.95312 317.5521Q138.875 317.5521 138.40625 318.53647L138.40625 321.28647Q138.90625 322.28647 139.95312 322.28647Q140.73438 322.28647 141.17188 321.6771Q141.60938 321.06772 141.60938 319.8646ZM146.95312 323.20834Q145.65625 323.20834 144.84375 322.3646Q144.04688 321.50522 144.04688 320.08334L144.04688 319.89584Q144.04688 318.94272 144.40625 318.20834Q144.76562 317.45834 145.40625 317.0521Q146.0625 316.63022 146.8125 316.63022Q148.04688 316.63022 148.73438 317.44272Q149.42188 318.25522 149.42188 319.77084L149.42188 320.22397L145.125 320.22397Q145.15625 321.16147 145.67188 321.7396Q146.20312 322.31772 147.01562 322.31772Q147.57812 322.31772 147.96875 322.08334Q148.375 321.84897 148.6875 321.45834L149.34375 321.97397Q148.54688 323.20834 146.95312 323.20834ZM146.8125 317.52084Q146.15625 317.52084 145.70312 318.00522Q145.26562 318.47397 145.17188 319.33334L148.34375 319.33334L148.34375 319.25522Q148.29688 318.4271 147.89062 317.97397Q147.5 317.52084 146.8125 317.52084ZM152.95312 323.20834Q151.65625 323.20834 150.84375 322.3646Q150.04688 321.50522 150.04688 320.08334L150.04688 319.89584Q150.04688 318.94272 150.40625 318.20834Q150.76562 317.45834 151.40625 317.0521Q152.0625 316.63022 152.8125 316.63022Q154.04688 316.63022 154.73438 317.44272Q155.42188 318.25522 155.42188 319.77084L155.42188 320.22397L151.125 320.22397Q151.15625 321.16147 151.67188 321.7396Q152.20312 322.31772 153.01562 322.31772Q153.57812 322.31772 153.96875 322.08334Q154.375 321.84897 154.6875 321.45834L155.34375 321.97397Q154.54688 323.20834 152.95312 323.20834ZM152.8125 317.52084Q152.15625 317.52084 151.70312 318.00522Q151.26562 318.47397 151.17188 319.33334L154.34375 319.33334L154.34375 319.25522Q154.29688 318.4271 153.89062 317.97397Q153.5 317.52084 152.8125 317.52084ZM164.67188 319.9896Q164.67188 321.4271 164.01562 322.31772Q163.35938 323.20834 162.21875 323.20834Q161.0625 323.20834 160.40625 322.47397L160.40625 325.52084L159.32812 325.52084L159.32812 316.7396L160.3125 316.7396L160.35938 317.44272Q161.03125 316.63022 162.20312 316.63022Q163.34375 316.63022 164.0 317.4896Q164.67188 318.34897 164.67188 319.88022L164.67188 319.9896ZM163.59375 319.8646Q163.59375 318.78647 163.125 318.1771Q162.67188 317.5521 161.875 317.5521Q160.89062 317.5521 160.40625 318.41147L160.40625 321.44272Q160.89062 322.31772 161.89062 322.31772Q162.67188 322.31772 163.125 321.70834Q163.59375 321.08334 163.59375 319.8646ZM169.39062 317.70834Q169.14062 317.6771 168.85938 317.6771Q167.78125 317.6771 167.40625 318.58334L167.40625 323.08334L166.32812 323.08334L166.32812 316.7396L167.375 316.7396L167.39062 317.47397Q167.92188 316.63022 168.90625 316.63022Q169.21875 316.63022 169.39062 316.70834L169.39062 317.70834ZM170.03125 319.84897Q170.03125 318.9271 170.39062 318.1771Q170.76562 317.4271 171.42188 317.03647Q172.07812 316.63022 172.90625 316.63022Q174.20312 316.63022 175.0 317.52084Q175.8125 318.41147 175.8125 319.91147L175.8125 319.9896Q175.8125 320.91147 175.45312 321.64584Q175.09375 322.38022 174.4375 322.8021Q173.78125 323.20834 172.92188 323.20834Q171.64062 323.20834 170.82812 322.31772Q170.03125 321.41147 170.03125 319.9271L170.03125 319.84897ZM171.125 319.9896Q171.125 321.03647 171.60938 321.6771Q172.10938 322.31772 172.92188 322.31772Q173.75 322.31772 174.23438 321.6771Q174.71875 321.02084 174.71875 319.84897Q174.71875 318.81772 174.21875 318.1771Q173.73438 317.52084 172.90625 317.52084Q172.10938 317.52084 171.60938 318.16147Q171.125 318.78647 171.125 319.9896ZM178.34375 316.7396L178.375 317.44272Q179.0625 316.63022 180.25 316.63022Q181.57812 316.63022 182.0625 317.64584Q182.375 317.19272 182.875 316.91147Q183.39062 316.63022 184.07812 316.63022Q186.17188 316.63022 186.20312 318.83334L186.20312 323.08334L185.125 323.08334L185.125 318.89584Q185.125 318.22397 184.8125 317.89584Q184.5 317.5521 183.76562 317.5521Q183.15625 317.5521 182.75 317.91147Q182.35938 318.27084 182.29688 318.88022L182.29688 323.08334L181.21875 323.08334L181.21875 318.9271Q181.21875 317.5521 179.85938 317.5521Q178.79688 317.5521 178.40625 318.45834L178.40625 323.08334L177.3125 323.08334L177.3125 316.7396L178.34375 316.7396ZM189.5 323.08334L188.42188 323.08334L188.42188 316.7396L189.5 316.7396L189.5 323.08334ZM188.32812 315.06772Q188.32812 314.8021 188.48438 314.6146Q188.65625 314.4271 188.96875 314.4271Q189.28125 314.4271 189.4375 314.6146Q189.60938 314.8021 189.60938 315.06772Q189.60938 315.31772 189.4375 315.50522Q189.28125 315.6771 188.96875 315.6771Q188.65625 315.6771 188.48438 315.50522Q188.32812 315.31772 188.32812 315.06772ZM195.01562 321.39584Q195.01562 320.95834 194.67188 320.72397Q194.34375 320.47397 193.51562 320.3021Q192.70312 320.13022 192.21875 319.88022Q191.73438 319.63022 191.5 319.3021Q191.28125 318.95834 191.28125 318.4896Q191.28125 317.70834 191.9375 317.1771Q192.59375 316.63022 193.625 316.63022Q194.70312 316.63022 195.35938 317.19272Q196.03125 317.7396 196.03125 318.59897L194.95312 318.59897Q194.95312 318.16147 194.5625 317.84897Q194.1875 317.52084 193.625 317.52084Q193.03125 317.52084 192.6875 317.78647Q192.35938 318.03647 192.35938 318.44272Q192.35938 318.83334 192.67188 319.03647Q192.98438 319.2396 193.79688 319.4271Q194.60938 319.59897 195.10938 319.84897Q195.60938 320.09897 195.84375 320.45834Q196.09375 320.81772 196.09375 321.31772Q196.09375 322.1771 195.40625 322.69272Q194.73438 323.20834 193.65625 323.20834Q192.89062 323.20834 192.29688 322.94272Q191.71875 322.66147 191.39062 322.1771Q191.0625 321.69272 191.0625 321.13022L192.14062 321.13022Q192.17188 321.6771 192.57812 322.00522Q192.98438 322.31772 193.65625 322.31772Q194.26562 322.31772 194.64062 322.06772Q195.01562 321.81772 195.01562 321.39584ZM199.95312 323.20834Q198.65625 323.20834 197.84375 322.3646Q197.04688 321.50522 197.04688 320.08334L197.04688 319.89584Q197.04688 318.94272 197.40625 318.20834Q197.76562 317.45834 198.40625 317.0521Q199.0625 316.63022 199.8125 316.63022Q201.04688 316.63022 201.73438 317.44272Q202.42188 318.25522 202.42188 319.77084L202.42188 320.22397L198.125 320.22397Q198.15625 321.16147 198.67188 321.7396Q199.20312 322.31772 200.01562 322.31772Q200.57812 322.31772 200.96875 322.08334Q201.375 321.84897 201.6875 321.45834L202.34375 321.97397Q201.54688 323.20834 199.95312 323.20834ZM199.8125 317.52084Q199.15625 317.52084 198.70312 318.00522Q198.26562 318.47397 198.17188 319.33334L201.34375 319.33334L201.34375 319.25522Q201.29688 318.4271 200.89062 317.97397Q200.5 317.52084 199.8125 317.52084ZM207.01562 321.39584Q207.01562 320.95834 206.67188 320.72397Q206.34375 320.47397 205.51562 320.3021Q204.70312 320.13022 204.21875 319.88022Q203.73438 319.63022 203.5 319.3021Q203.28125 318.95834 203.28125 318.4896Q203.28125 317.70834 203.9375 317.1771Q204.59375 316.63022 205.625 316.63022Q206.70312 316.63022 207.35938 317.19272Q208.03125 317.7396 208.03125 318.59897L206.95312 318.59897Q206.95312 318.16147 206.5625 317.84897Q206.1875 317.52084 205.625 317.52084Q205.03125 317.52084 204.6875 317.78647Q204.35938 318.03647 204.35938 318.44272Q204.35938 318.83334 204.67188 319.03647Q204.98438 319.2396 205.79688 319.4271Q206.60938 319.59897 207.10938 319.84897Q207.60938 320.09897 207.84375 320.45834Q208.09375 320.81772 208.09375 321.31772Q208.09375 322.1771 207.40625 322.69272Q206.73438 323.20834 205.65625 323.20834Q204.89062 323.20834 204.29688 322.94272Q203.71875 322.66147 203.39062 322.1771Q203.0625 321.69272 203.0625 321.13022L204.14062 321.13022Q204.17188 321.6771 204.57812 322.00522Q204.98438 322.31772 205.65625 322.31772Q206.26562 322.31772 206.64062 322.06772Q207.01562 321.81772 207.01562 321.39584Z" fill-rule="nonzero"/><path fill="#000000" d="M240.0625 319.8646Q240.0625 318.39584 240.75 317.52084Q241.4375 316.63022 242.5625 316.63022Q243.67188 316.63022 244.32812 317.38022L244.32812 314.08334L245.40625 314.08334L245.40625 323.08334L244.40625 323.08334L244.35938 322.39584Q243.70312 323.20834 242.54688 323.20834Q241.45312 323.20834 240.75 322.3021Q240.0625 321.39584 240.0625 319.94272L240.0625 319.8646ZM241.14062 319.9896Q241.14062 321.06772 241.57812 321.6771Q242.03125 322.28647 242.8125 322.28647Q243.84375 322.28647 244.32812 321.34897L244.32812 318.44272Q243.84375 317.5521 242.82812 317.5521Q242.03125 317.5521 241.57812 318.16147Q241.14062 318.77084 241.14062 319.9896ZM247.03125 319.84897Q247.03125 318.9271 247.39062 318.1771Q247.76562 317.4271 248.42188 317.03647Q249.07812 316.63022 249.90625 316.63022Q251.20312 316.63022 252.0 317.52084Q252.8125 318.41147 252.8125 319.91147L252.8125 319.9896Q252.8125 320.91147 252.45312 321.64584Q252.09375 322.38022 251.4375 322.8021Q250.78125 323.20834 249.92188 323.20834Q248.64062 323.20834 247.82812 322.31772Q247.03125 321.41147 247.03125 319.9271L247.03125 319.84897ZM248.125 319.9896Q248.125 321.03647 248.60938 321.6771Q249.10938 322.31772 249.92188 322.31772Q250.75 322.31772 251.23438 321.6771Q251.71875 321.02084 251.71875 319.84897Q251.71875 318.81772 251.21875 318.1771Q250.73438 317.52084 249.90625 317.52084Q249.10938 317.52084 248.60938 318.16147Q248.125 318.78647 248.125 319.9896ZM256.45312 319.0521L257.85938 316.7396L259.125 316.7396L257.04688 319.88022L259.1875 323.08334L257.9375 323.08334L256.46875 320.70834L255.0 323.08334L253.73438 323.08334L255.875 319.88022L253.8125 316.7396L255.0625 316.7396L256.45312 319.0521ZM265.6875 319.9896Q265.6875 321.44272 265.01562 322.33334Q264.35938 323.20834 263.23438 323.20834Q262.03125 323.20834 261.375 322.34897L261.3125 323.08334L260.32812 323.08334L260.32812 314.08334L261.40625 314.08334L261.40625 317.44272Q262.0625 316.63022 263.21875 316.63022Q264.375 316.63022 265.03125 317.50522Q265.6875 318.3646 265.6875 319.89584L265.6875 319.9896ZM264.60938 319.8646Q264.60938 318.75522 264.17188 318.16147Q263.75 317.5521 262.95312 317.5521Q261.875 317.5521 261.40625 318.53647L261.40625 321.28647Q261.90625 322.28647 262.95312 322.28647Q263.73438 322.28647 264.17188 321.6771Q264.60938 321.06772 264.60938 319.8646ZM269.95312 323.20834Q268.65625 323.20834 267.84375 322.3646Q267.04688 321.50522 267.04688 320.08334L267.04688 319.89584Q267.04688 318.94272 267.40625 318.20834Q267.76562 317.45834 268.40625 317.0521Q269.0625 316.63022 269.8125 316.63022Q271.04688 316.63022 271.73438 317.44272Q272.42188 318.25522 272.42188 319.77084L272.42188 320.22397L268.125 320.22397Q268.15625 321.16147 268.67188 321.7396Q269.20312 322.31772 270.01562 322.31772Q270.57812 322.31772 270.96875 322.08334Q271.375 321.84897 271.6875 321.45834L272.34375 321.97397Q271.54688 323.20834 269.95312 323.20834ZM269.8125 317.52084Q269.15625 317.52084 268.70312 318.00522Q268.26562 318.47397 268.17188 319.33334L271.34375 319.33334L271.34375 319.25522Q271.29688 318.4271 270.89062 317.97397Q270.5 317.52084 269.8125 317.52084ZM275.95312 323.20834Q274.65625 323.20834 273.84375 322.3646Q273.04688 321.50522 273.04688 320.08334L273.04688 319.89584Q273.04688 318.94272 273.40625 318.20834Q273.76562 317.45834 274.40625 317.0521Q275.0625 316.63022 275.8125 316.63022Q277.04688 316.63022 277.73438 317.44272Q278.42188 318.25522 278.42188 319.77084L278.42188 320.22397L274.125 320.22397Q274.15625 321.16147 274.67188 321.7396Q275.20312 322.31772 276.01562 322.31772Q276.57812 322.31772 276.96875 322.08334Q277.375 321.84897 277.6875 321.45834L278.34375 321.97397Q277.54688 323.20834 275.95312 323.20834ZM275.8125 317.52084Q275.15625 317.52084 274.70312 318.00522Q274.26562 318.47397 274.17188 319.33334L277.34375 319.33334L277.34375 319.25522Q277.29688 318.4271 276.89062 317.97397Q276.5 317.52084 275.8125 317.52084ZM286.23438 323.08334Q286.14062 322.89584 286.07812 322.41147Q285.32812 323.20834 284.28125 323.20834Q283.34375 323.20834 282.73438 322.6771Q282.14062 322.14584 282.14062 321.31772Q282.14062 320.33334 282.89062 319.78647Q283.64062 319.2396 285.01562 319.2396L286.0625 319.2396L286.0625 318.7396Q286.0625 318.1771 285.71875 317.84897Q285.39062 317.50522 284.71875 317.50522Q284.14062 317.50522 283.75 317.8021Q283.35938 318.08334 283.35938 318.50522L282.26562 318.50522Q282.26562 318.02084 282.59375 317.58334Q282.9375 317.14584 283.51562 316.89584Q284.09375 316.63022 284.78125 316.63022Q285.89062 316.63022 286.5 317.1771Q287.125 317.72397 287.15625 318.6771L287.15625 321.59897Q287.15625 322.47397 287.375 322.9896L287.375 323.08334L286.23438 323.08334ZM284.4375 322.25522Q284.95312 322.25522 285.40625 321.9896Q285.85938 321.72397 286.0625 321.3021L286.0625 320.00522L285.21875 320.00522Q283.21875 320.00522 283.21875 321.1771Q283.21875 321.6771 283.5625 321.97397Q283.90625 322.25522 284.4375 322.25522ZM293.01562 321.39584Q293.01562 320.95834 292.67188 320.72397Q292.34375 320.47397 291.51562 320.3021Q290.70312 320.13022 290.21875 319.88022Q289.73438 319.63022 289.5 319.3021Q289.28125 318.95834 289.28125 318.4896Q289.28125 317.70834 289.9375 317.1771Q290.59375 316.63022 291.625 316.63022Q292.70312 316.63022 293.35938 317.19272Q294.03125 317.7396 294.03125 318.59897L292.95312 318.59897Q292.95312 318.16147 292.5625 317.84897Q292.1875 317.52084 291.625 317.52084Q291.03125 317.52084 290.6875 317.78647Q290.35938 318.03647 290.35938 318.44272Q290.35938 318.83334 290.67188 319.03647Q290.98438 319.2396 291.79688 319.4271Q292.60938 319.59897 293.10938 319.84897Q293.60938 320.09897 293.84375 320.45834Q294.09375 320.81772 294.09375 321.31772Q294.09375 322.1771 293.40625 322.69272Q292.73438 323.20834 291.65625 323.20834Q290.89062 323.20834 290.29688 322.94272Q289.71875 322.66147 289.39062 322.1771Q289.0625 321.69272 289.0625 321.13022L290.14062 321.13022Q290.17188 321.6771 290.57812 322.00522Q290.98438 322.31772 291.65625 322.31772Q292.26562 322.31772 292.64062 322.06772Q293.01562 321.81772 293.01562 321.39584ZM297.39062 321.4896L298.875 316.7396L300.03125 316.7396L297.48438 324.06772Q296.89062 325.64584 295.60938 325.64584L295.39062 325.63022L295.0 325.5521L295.0 324.6771L295.28125 324.69272Q295.84375 324.69272 296.14062 324.47397Q296.45312 324.25522 296.65625 323.66147L296.89062 323.00522L294.625 316.7396L295.8125 316.7396L297.39062 321.4896ZM302.34375 316.7396L302.375 317.53647Q303.10938 316.63022 304.28125 316.63022Q306.29688 316.63022 306.3125 318.89584L306.3125 323.08334L305.21875 323.08334L305.21875 318.88022Q305.21875 318.20834 304.90625 317.88022Q304.60938 317.5521 303.95312 317.5521Q303.42188 317.5521 303.01562 317.83334Q302.625 318.1146 302.40625 318.56772L302.40625 323.08334L301.32812 323.08334L301.32812 316.7396L302.34375 316.7396ZM310.85938 322.31772Q311.4375 322.31772 311.875 321.97397Q312.3125 321.6146 312.35938 321.08334L313.39062 321.08334Q313.35938 321.63022 313.0 322.13022Q312.65625 322.6146 312.07812 322.91147Q311.51562 323.20834 310.85938 323.20834Q309.5625 323.20834 308.79688 322.34897Q308.04688 321.47397 308.04688 319.97397L308.04688 319.78647Q308.04688 318.8646 308.375 318.14584Q308.71875 317.4271 309.34375 317.03647Q309.98438 316.63022 310.85938 316.63022Q311.92188 316.63022 312.625 317.27084Q313.34375 317.89584 313.39062 318.9271L312.35938 318.9271Q312.3125 318.3021 311.89062 317.91147Q311.46875 317.52084 310.85938 317.52084Q310.03125 317.52084 309.57812 318.1146Q309.125 318.70834 309.125 319.83334L309.125 320.03647Q309.125 321.13022 309.57812 321.72397Q310.03125 322.31772 310.85938 322.31772Z" fill-rule="nonzero"/><path fill="#000000" d="M350.17188 319.9896Q350.17188 321.4271 349.51562 322.31772Q348.85938 323.20834 347.71875 323.20834Q346.5625 323.20834 345.90625 322.47397L345.90625 325.52084L344.82812 325.52084L344.82812 316.7396L345.8125 316.7396L345.85938 317.44272Q346.53125 316.63022 347.70312 316.63022Q348.84375 316.63022 349.5 317.4896Q350.17188 318.34897 350.17188 319.88022L350.17188 319.9896ZM349.09375 319.8646Q349.09375 318.78647 348.625 318.1771Q348.17188 317.5521 347.375 317.5521Q346.39062 317.5521 345.90625 318.41147L345.90625 321.44272Q346.39062 322.31772 347.39062 322.31772Q348.17188 322.31772 348.625 321.70834Q349.09375 321.08334 349.09375 319.8646ZM355.73438 323.08334Q355.64062 322.89584 355.57812 322.41147Q354.82812 323.20834 353.78125 323.20834Q352.84375 323.20834 352.23438 322.6771Q351.64062 322.14584 351.64062 321.31772Q351.64062 320.33334 352.39062 319.78647Q353.14062 319.2396 354.51562 319.2396L355.5625 319.2396L355.5625 318.7396Q355.5625 318.1771 355.21875 317.84897Q354.89062 317.50522 354.21875 317.50522Q353.64062 317.50522 353.25 317.8021Q352.85938 318.08334 352.85938 318.50522L351.76562 318.50522Q351.76562 318.02084 352.09375 317.58334Q352.4375 317.14584 353.01562 316.89584Q353.59375 316.63022 354.28125 316.63022Q355.39062 316.63022 356.0 317.1771Q356.625 317.72397 356.65625 318.6771L356.65625 321.59897Q356.65625 322.47397 356.875 322.9896L356.875 323.08334L355.73438 323.08334ZM353.9375 322.25522Q354.45312 322.25522 354.90625 321.9896Q355.35938 321.72397 355.5625 321.3021L355.5625 320.00522L354.71875 320.00522Q352.71875 320.00522 352.71875 321.1771Q352.71875 321.6771 353.0625 321.97397Q353.40625 322.25522 353.9375 322.25522ZM361.89062 317.70834Q361.64062 317.6771 361.35938 317.6771Q360.28125 317.6771 359.90625 318.58334L359.90625 323.08334L358.82812 323.08334L358.82812 316.7396L359.875 316.7396L359.89062 317.47397Q360.42188 316.63022 361.40625 316.63022Q361.71875 316.63022 361.89062 316.70834L361.89062 317.70834ZM366.73438 323.08334Q366.64062 322.89584 366.57812 322.41147Q365.82812 323.20834 364.78125 323.20834Q363.84375 323.20834 363.23438 322.6771Q362.64062 322.14584 362.64062 321.31772Q362.64062 320.33334 363.39062 319.78647Q364.14062 319.2396 365.51562 319.2396L366.5625 319.2396L366.5625 318.7396Q366.5625 318.1771 366.21875 317.84897Q365.89062 317.50522 365.21875 317.50522Q364.64062 317.50522 364.25 317.8021Q363.85938 318.08334 363.85938 318.50522L362.76562 318.50522Q362.76562 318.02084 363.09375 317.58334Q363.4375 317.14584 364.01562 316.89584Q364.59375 316.63022 365.28125 316.63022Q366.39062 316.63022 367.0 317.1771Q367.625 317.72397 367.65625 318.6771L367.65625 321.59897Q367.65625 322.47397 367.875 322.9896L367.875 323.08334L366.73438 323.08334ZM364.9375 322.25522Q365.45312 322.25522 365.90625 321.9896Q366.35938 321.72397 366.5625 321.3021L366.5625 320.00522L365.71875 320.00522Q363.71875 320.00522 363.71875 321.1771Q363.71875 321.6771 364.0625 321.97397Q364.40625 322.25522 364.9375 322.25522ZM371.0 323.08334L369.92188 323.08334L369.92188 314.08334L371.0 314.08334L371.0 323.08334ZM374.0 323.08334L372.92188 323.08334L372.92188 314.08334L374.0 314.08334L374.0 323.08334ZM378.45312 323.20834Q377.15625 323.20834 376.34375 322.3646Q375.54688 321.50522 375.54688 320.08334L375.54688 319.89584Q375.54688 318.94272 375.90625 318.20834Q376.26562 317.45834 376.90625 317.0521Q377.5625 316.63022 378.3125 316.63022Q379.54688 316.63022 380.23438 317.44272Q380.92188 318.25522 380.92188 319.77084L380.92188 320.22397L376.625 320.22397Q376.65625 321.16147 377.17188 321.7396Q377.70312 322.31772 378.51562 322.31772Q379.07812 322.31772 379.46875 322.08334Q379.875 321.84897 380.1875 321.45834L380.84375 321.97397Q380.04688 323.20834 378.45312 323.20834ZM378.3125 317.52084Q377.65625 317.52084 377.20312 318.00522Q376.76562 318.47397 376.67188 319.33334L379.84375 319.33334L379.84375 319.25522Q379.79688 318.4271 379.39062 317.97397Q379.0 317.52084 378.3125 317.52084ZM383.0 323.08334L381.92188 323.08334L381.92188 314.08334L383.0 314.08334L383.0 323.08334ZM393.17188 319.9896Q393.17188 321.4271 392.51562 322.31772Q391.85938 323.20834 390.71875 323.20834Q389.5625 323.20834 388.90625 322.47397L388.90625 325.52084L387.82812 325.52084L387.82812 316.7396L388.8125 316.7396L388.85938 317.44272Q389.53125 316.63022 390.70312 316.63022Q391.84375 316.63022 392.5 317.4896Q393.17188 318.34897 393.17188 319.88022L393.17188 319.9896ZM392.09375 319.8646Q392.09375 318.78647 391.625 318.1771Q391.17188 317.5521 390.375 317.5521Q389.39062 317.5521 388.90625 318.41147L388.90625 321.44272Q389.39062 322.31772 390.39062 322.31772Q391.17188 322.31772 391.625 321.70834Q392.09375 321.08334 392.09375 319.8646ZM397.89062 317.70834Q397.64062 317.6771 397.35938 317.6771Q396.28125 317.6771 395.90625 318.58334L395.90625 323.08334L394.82812 323.08334L394.82812 316.7396L395.875 316.7396L395.89062 317.47397Q396.42188 316.63022 397.40625 316.63022Q397.71875 316.63022 397.89062 316.70834L397.89062 317.70834ZM398.53125 319.84897Q398.53125 318.9271 398.89062 318.1771Q399.26562 317.4271 399.92188 317.03647Q400.57812 316.63022 401.40625 316.63022Q402.70312 316.63022 403.5 317.52084Q404.3125 318.41147 404.3125 319.91147L404.3125 319.9896Q404.3125 320.91147 403.95312 321.64584Q403.59375 322.38022 402.9375 322.8021Q402.28125 323.20834 401.42188 323.20834Q400.14062 323.20834 399.32812 322.31772Q398.53125 321.41147 398.53125 319.9271L398.53125 319.84897ZM399.625 319.9896Q399.625 321.03647 400.10938 321.6771Q400.60938 322.31772 401.42188 322.31772Q402.25 322.31772 402.73438 321.6771Q403.21875 321.02084 403.21875 319.84897Q403.21875 318.81772 402.71875 318.1771Q402.23438 317.52084 401.40625 317.52084Q400.60938 317.52084 400.10938 318.16147Q399.625 318.78647 399.625 319.9896ZM406.84375 316.7396L406.875 317.44272Q407.5625 316.63022 408.75 316.63022Q410.07812 316.63022 410.5625 317.64584Q410.875 317.19272 411.375 316.91147Q411.89062 316.63022 412.57812 316.63022Q414.67188 316.63022 414.70312 318.83334L414.70312 323.08334L413.625 323.08334L413.625 318.89584Q413.625 318.22397 413.3125 317.89584Q413.0 317.5521 412.26562 317.5521Q411.65625 317.5521 411.25 317.91147Q410.85938 318.27084 410.79688 318.88022L410.79688 323.08334L409.71875 323.08334L409.71875 318.9271Q409.71875 317.5521 408.35938 317.5521Q407.29688 317.5521 406.90625 318.45834L406.90625 323.08334L405.8125 323.08334L405.8125 316.7396L406.84375 316.7396ZM418.0 323.08334L416.92188 323.08334L416.92188 316.7396L418.0 316.7396L418.0 323.08334ZM416.82812 315.06772Q416.82812 314.8021 416.98438 314.6146Q417.15625 314.4271 417.46875 314.4271Q417.78125 314.4271 417.9375 314.6146Q418.10938 314.8021 418.10938 315.06772Q418.10938 315.31772 417.9375 315.50522Q417.78125 315.6771 417.46875 315.6771Q417.15625 315.6771 416.98438 315.50522Q416.82812 315.31772 416.82812 315.06772ZM423.51562 321.39584Q423.51562 320.95834 423.17188 320.72397Q422.84375 320.47397 422.01562 320.3021Q421.20312 320.13022 420.71875 319.88022Q420.23438 319.63022 420.0 319.3021Q419.78125 318.95834 419.78125 318.4896Q419.78125 317.70834 420.4375 317.1771Q421.09375 316.63022 422.125 316.63022Q423.20312 316.63022 423.85938 317.19272Q424.53125 317.7396 424.53125 318.59897L423.45312 318.59897Q423.45312 318.16147 423.0625 317.84897Q422.6875 317.52084 422.125 317.52084Q421.53125 317.52084 421.1875 317.78647Q420.85938 318.03647 420.85938 318.44272Q420.85938 318.83334 421.17188 319.03647Q421.48438 319.2396 422.29688 319.4271Q423.10938 319.59897 423.60938 319.84897Q424.10938 320.09897 424.34375 320.45834Q424.59375 320.81772 424.59375 321.31772Q424.59375 322.1771 423.90625 322.69272Q423.23438 323.20834 422.15625 323.20834Q421.39062 323.20834 420.79688 322.94272Q420.21875 322.66147 419.89062 322.1771Q419.5625 321.69272 419.5625 321.13022L420.64062 321.13022Q420.67188 321.6771 421.07812 322.00522Q421.48438 322.31772 422.15625 322.31772Q422.76562 322.31772 423.14062 322.06772Q423.51562 321.81772 423.51562 321.39584ZM428.45312 323.20834Q427.15625 323.20834 426.34375 322.3646Q425.54688 321.50522 425.54688 320.08334L425.54688 319.89584Q425.54688 318.94272 425.90625 318.20834Q426.26562 317.45834 426.90625 317.0521Q427.5625 316.63022 428.3125 316.63022Q429.54688 316.63022 430.23438 317.44272Q430.92188 318.25522 430.92188 319.77084L430.92188 320.22397L426.625 320.22397Q426.65625 321.16147 427.17188 321.7396Q427.70312 322.31772 428.51562 322.31772Q429.07812 322.31772 429.46875 322.08334Q429.875 321.84897 430.1875 321.45834L430.84375 321.97397Q430.04688 323.20834 428.45312 323.20834ZM428.3125 317.52084Q427.65625 317.52084 427.20312 318.00522Q426.76562 318.47397 426.67188 319.33334L429.84375 319.33334L429.84375 319.25522Q429.79688 318.4271 429.39062 317.97397Q429.0 317.52084 428.3125 317.52084ZM435.51562 321.39584Q435.51562 320.95834 435.17188 320.72397Q434.84375 320.47397 434.01562 320.3021Q433.20312 320.13022 432.71875 319.88022Q432.23438 319.63022 432.0 319.3021Q431.78125 318.95834 431.78125 318.4896Q431.78125 317.70834 432.4375 317.1771Q433.09375 316.63022 434.125 316.63022Q435.20312 316.63022 435.85938 317.19272Q436.53125 317.7396 436.53125 318.59897L435.45312 318.59897Q435.45312 318.16147 435.0625 317.84897Q434.6875 317.52084 434.125 317.52084Q433.53125 317.52084 433.1875 317.78647Q432.85938 318.03647 432.85938 318.44272Q432.85938 318.83334 433.17188 319.03647Q433.48438 319.2396 434.29688 319.4271Q435.10938 319.59897 435.60938 319.84897Q436.10938 320.09897 436.34375 320.45834Q436.59375 320.81772 436.59375 321.31772Q436.59375 322.1771 435.90625 322.69272Q435.23438 323.20834 434.15625 323.20834Q433.39062 323.20834 432.79688 322.94272Q432.21875 322.66147 431.89062 322.1771Q431.5625 321.69272 431.5625 321.13022L432.64062 321.13022Q432.67188 321.6771 433.07812 322.00522Q433.48438 322.31772 434.15625 322.31772Q434.76562 322.31772 435.14062 322.06772Q435.51562 321.81772 435.51562 321.39584Z" fill-rule="nonzero"/><path fill="#000000" d="M473.17188 319.9896Q473.17188 321.4271 472.51562 322.31772Q471.85938 323.20834 470.71875 323.20834Q469.5625 323.20834 468.90625 322.47397L468.90625 325.52084L467.82812 325.52084L467.82812 316.7396L468.8125 316.7396L468.85938 317.44272Q469.53125 316.63022 470.70312 316.63022Q471.84375 316.63022 472.5 317.4896Q473.17188 318.34897 473.17188 319.88022L473.17188 319.9896ZM472.09375 319.8646Q472.09375 318.78647 471.625 318.1771Q471.17188 317.5521 470.375 317.5521Q469.39062 317.5521 468.90625 318.41147L468.90625 321.44272Q469.39062 322.31772 470.39062 322.31772Q471.17188 322.31772 471.625 321.70834Q472.09375 321.08334 472.09375 319.8646ZM478.73438 323.08334Q478.64062 322.89584 478.57812 322.41147Q477.82812 323.20834 476.78125 323.20834Q475.84375 323.20834 475.23438 322.6771Q474.64062 322.14584 474.64062 321.31772Q474.64062 320.33334 475.39062 319.78647Q476.14062 319.2396 477.51562 319.2396L478.5625 319.2396L478.5625 318.7396Q478.5625 318.1771 478.21875 317.84897Q477.89062 317.50522 477.21875 317.50522Q476.64062 317.50522 476.25 317.8021Q475.85938 318.08334 475.85938 318.50522L474.76562 318.50522Q474.76562 318.02084 475.09375 317.58334Q475.4375 317.14584 476.01562 316.89584Q476.59375 316.63022 477.28125 316.63022Q478.39062 316.63022 479.0 317.1771Q479.625 317.72397 479.65625 318.6771L479.65625 321.59897Q479.65625 322.47397 479.875 322.9896L479.875 323.08334L478.73438 323.08334ZM476.9375 322.25522Q477.45312 322.25522 477.90625 321.9896Q478.35938 321.72397 478.5625 321.3021L478.5625 320.00522L477.71875 320.00522Q475.71875 320.00522 475.71875 321.1771Q475.71875 321.6771 476.0625 321.97397Q476.40625 322.25522 476.9375 322.25522ZM484.89062 317.70834Q484.64062 317.6771 484.35938 317.6771Q483.28125 317.6771 482.90625 318.58334L482.90625 323.08334L481.82812 323.08334L481.82812 316.7396L482.875 316.7396L482.89062 317.47397Q483.42188 316.63022 484.40625 316.63022Q484.71875 316.63022 484.89062 316.70834L484.89062 317.70834ZM489.73438 323.08334Q489.64062 322.89584 489.57812 322.41147Q488.82812 323.20834 487.78125 323.20834Q486.84375 323.20834 486.23438 322.6771Q485.64062 322.14584 485.64062 321.31772Q485.64062 320.33334 486.39062 319.78647Q487.14062 319.2396 488.51562 319.2396L489.5625 319.2396L489.5625 318.7396Q489.5625 318.1771 489.21875 317.84897Q488.89062 317.50522 488.21875 317.50522Q487.64062 317.50522 487.25 317.8021Q486.85938 318.08334 486.85938 318.50522L485.76562 318.50522Q485.76562 318.02084 486.09375 317.58334Q486.4375 317.14584 487.01562 316.89584Q487.59375 316.63022 488.28125 316.63022Q489.39062 316.63022 490.0 317.1771Q490.625 317.72397 490.65625 318.6771L490.65625 321.59897Q490.65625 322.47397 490.875 322.9896L490.875 323.08334L489.73438 323.08334ZM487.9375 322.25522Q488.45312 322.25522 488.90625 321.9896Q489.35938 321.72397 489.5625 321.3021L489.5625 320.00522L488.71875 320.00522Q486.71875 320.00522 486.71875 321.1771Q486.71875 321.6771 487.0625 321.97397Q487.40625 322.25522 487.9375 322.25522ZM494.0 323.08334L492.92188 323.08334L492.92188 314.08334L494.0 314.08334L494.0 323.08334ZM497.0 323.08334L495.92188 323.08334L495.92188 314.08334L497.0 314.08334L497.0 323.08334ZM501.45312 323.20834Q500.15625 323.20834 499.34375 322.3646Q498.54688 321.50522 498.54688 320.08334L498.54688 319.89584Q498.54688 318.94272 498.90625 318.20834Q499.26562 317.45834 499.90625 317.0521Q500.5625 316.63022 501.3125 316.63022Q502.54688 316.63022 503.23438 317.44272Q503.92188 318.25522 503.92188 319.77084L503.92188 320.22397L499.625 320.22397Q499.65625 321.16147 500.17188 321.7396Q500.70312 322.31772 501.51562 322.31772Q502.07812 322.31772 502.46875 322.08334Q502.875 321.84897 503.1875 321.45834L503.84375 321.97397Q503.04688 323.20834 501.45312 323.20834ZM501.3125 317.52084Q500.65625 317.52084 500.20312 318.00522Q499.76562 318.47397 499.67188 319.33334L502.84375 319.33334L502.84375 319.25522Q502.79688 318.4271 502.39062 317.97397Q502.0 317.52084 501.3125 317.52084ZM506.0 323.08334L504.92188 323.08334L504.92188 314.08334L506.0 314.08334L506.0 323.08334ZM514.7344 323.08334Q514.6406 322.89584 514.5781 322.41147Q513.8281 323.20834 512.78125 323.20834Q511.84375 323.20834 511.23438 322.6771Q510.64062 322.14584 510.64062 321.31772Q510.64062 320.33334 511.39062 319.78647Q512.1406 319.2396 513.5156 319.2396L514.5625 319.2396L514.5625 318.7396Q514.5625 318.1771 514.21875 317.84897Q513.8906 317.50522 513.21875 317.50522Q512.6406 317.50522 512.25 317.8021Q511.85938 318.08334 511.85938 318.50522L510.76562 318.50522Q510.76562 318.02084 511.09375 317.58334Q511.4375 317.14584 512.0156 316.89584Q512.59375 316.63022 513.28125 316.63022Q514.3906 316.63022 515.0 317.1771Q515.625 317.72397 515.65625 318.6771L515.65625 321.59897Q515.65625 322.47397 515.875 322.9896L515.875 323.08334L514.7344 323.08334ZM512.9375 322.25522Q513.4531 322.25522 513.90625 321.9896Q514.3594 321.72397 514.5625 321.3021L514.5625 320.00522L513.71875 320.00522Q511.71875 320.00522 511.71875 321.1771Q511.71875 321.6771 512.0625 321.97397Q512.40625 322.25522 512.9375 322.25522ZM521.5156 321.39584Q521.5156 320.95834 521.1719 320.72397Q520.84375 320.47397 520.0156 320.3021Q519.2031 320.13022 518.71875 319.88022Q518.2344 319.63022 518.0 319.3021Q517.78125 318.95834 517.78125 318.4896Q517.78125 317.70834 518.4375 317.1771Q519.09375 316.63022 520.125 316.63022Q521.2031 316.63022 521.8594 317.19272Q522.53125 317.7396 522.53125 318.59897L521.4531 318.59897Q521.4531 318.16147 521.0625 317.84897Q520.6875 317.52084 520.125 317.52084Q519.53125 317.52084 519.1875 317.78647Q518.8594 318.03647 518.8594 318.44272Q518.8594 318.83334 519.1719 319.03647Q519.4844 319.2396 520.2969 319.4271Q521.1094 319.59897 521.6094 319.84897Q522.1094 320.09897 522.34375 320.45834Q522.59375 320.81772 522.59375 321.31772Q522.59375 322.1771 521.90625 322.69272Q521.2344 323.20834 520.15625 323.20834Q519.3906 323.20834 518.7969 322.94272Q518.21875 322.66147 517.8906 322.1771Q517.5625 321.69272 517.5625 321.13022L518.6406 321.13022Q518.6719 321.6771 519.0781 322.00522Q519.4844 322.31772 520.15625 322.31772Q520.7656 322.31772 521.1406 322.06772Q521.5156 321.81772 521.5156 321.39584ZM525.8906 321.4896L527.375 316.7396L528.53125 316.7396L525.9844 324.06772Q525.3906 325.64584 524.1094 325.64584L523.8906 325.63022L523.5 325.5521L523.5 324.6771L523.78125 324.69272Q524.34375 324.69272 524.6406 324.47397Q524.9531 324.25522 525.15625 323.66147L525.3906 323.00522L523.125 316.7396L524.3125 316.7396L525.8906 321.4896ZM530.84375 316.7396L530.875 317.53647Q531.6094 316.63022 532.78125 316.63022Q534.7969 316.63022 534.8125 318.89584L534.8125 323.08334L533.71875 323.08334L533.71875 318.88022Q533.71875 318.20834 533.40625 317.88022Q533.1094 317.5521 532.4531 317.5521Q531.9219 317.5521 531.5156 317.83334Q531.125 318.1146 530.90625 318.56772L530.90625 323.08334L529.8281 323.08334L529.8281 316.7396L530.84375 316.7396ZM539.3594 322.31772Q539.9375 322.31772 540.375 321.97397Q540.8125 321.6146 540.8594 321.08334L541.8906 321.08334Q541.8594 321.63022 541.5 322.13022Q541.15625 322.6146 540.5781 322.91147Q540.0156 323.20834 539.3594 323.20834Q538.0625 323.20834 537.2969 322.34897Q536.5469 321.47397 536.5469 319.97397L536.5469 319.78647Q536.5469 318.8646 536.875 318.14584Q537.21875 317.4271 537.84375 317.03647Q538.4844 316.63022 539.3594 316.63022Q540.4219 316.63022 541.125 317.27084Q541.84375 317.89584 541.8906 318.9271L540.8594 318.9271Q540.8125 318.3021 540.3906 317.91147Q539.96875 317.52084 539.3594 317.52084Q538.53125 317.52084 538.0781 318.1146Q537.625 318.70834 537.625 319.83334L537.625 320.03647Q537.625 321.13022 538.0781 321.72397Q538.53125 322.31772 539.3594 322.31772Z" fill-rule="nonzero"/><path fill="#0b5394" d="M90.5 340.45C90.5 339.8977 90.947716 339.45 91.5 339.45L101.5 339.45C102.052284 339.45 102.5 339.8977 102.5 340.45L102.5 350.45C102.5 351.0023 102.052284 351.45 101.5 351.45L91.5 351.45C90.947716 351.45 90.5 351.0023 90.5 350.45Z" fill-rule="nonzero"/><path fill="#666666" d="M114.0 348.075L116.234375 341.6219L117.359375 341.6219L114.453125 349.45L113.546875 349.45L110.65625 341.6219L111.765625 341.6219L114.0 348.075ZM122.890625 343.66876Q122.890625 344.2625 122.578125 344.71564Q122.28125 345.16876 121.75 345.4344Q122.359375 345.6844 122.71875 346.2Q123.078125 346.7 123.078125 347.34064Q123.078125 348.35626 122.390625 348.96564Q121.703125 349.5594 120.59375 349.5594Q119.453125 349.5594 118.78125 348.96564Q118.109375 348.35626 118.109375 347.34064Q118.109375 346.7 118.453125 346.2Q118.796875 345.6844 119.40625 345.41876Q118.890625 345.16876 118.578125 344.71564Q118.28125 344.2469 118.28125 343.66876Q118.28125 342.6844 118.90625 342.10626Q119.546875 341.52814 120.59375 341.52814Q121.625 341.52814 122.25 342.10626Q122.890625 342.6844 122.890625 343.66876ZM122.078125 347.325Q122.078125 346.66876 121.65625 346.2625Q121.25 345.84064 120.578125 345.84064Q119.90625 345.84064 119.5 346.2469Q119.09375 346.65314 119.09375 347.325Q119.09375 347.98126 119.484375 348.3719Q119.890625 348.7469 120.59375 348.7469Q121.28125 348.7469 121.671875 348.3719Q122.078125 347.98126 122.078125 347.325ZM120.59375 342.34064Q120.0 342.34064 119.640625 342.7Q119.28125 343.0594 119.28125 343.6844Q119.28125 344.27814 119.640625 344.65314Q120.0 345.0125 120.59375 345.0125Q121.1875 345.0125 121.546875 344.65314Q121.90625 344.27814 121.90625 343.6844Q121.90625 343.09064 121.53125 342.71564Q121.15625 342.34064 120.59375 342.34064ZM129.17188 348.10626L130.60938 343.6375L131.625 343.6375L129.54688 349.45L128.78125 349.45L126.671875 343.6375L127.6875 343.6375L129.17188 348.10626ZM136.04688 341.6219L136.04688 342.46564L135.85938 342.46564Q134.70312 342.48126 134.01562 343.15314Q133.32812 343.825 133.21875 345.02814Q133.84375 344.325 134.90625 344.325Q135.9375 344.325 136.54688 345.04376Q137.15625 345.7625 137.15625 346.90314Q137.15625 348.10626 136.48438 348.84064Q135.82812 349.5594 134.73438 349.5594Q133.60938 349.5594 132.90625 348.7Q132.20312 347.84064 132.20312 346.48126L132.20312 346.09064Q132.20312 343.9344 133.125 342.79376Q134.04688 341.65314 135.875 341.6219L136.04688 341.6219ZM134.75 345.15314Q134.23438 345.15314 133.79688 345.46564Q133.375 345.7625 133.20312 346.21564L133.20312 346.59064Q133.20312 347.5594 133.64062 348.15314Q134.07812 348.73126 134.73438 348.73126Q135.40625 348.73126 135.78125 348.2469Q136.17188 347.7469 136.17188 346.95Q136.17188 346.1375 135.78125 345.65314Q135.39062 345.15314 134.75 345.15314ZM138.28125 348.9344Q138.28125 348.66876 138.42188 348.4969Q138.57812 348.325 138.875 348.325Q139.1875 348.325 139.34375 348.4969Q139.51562 348.66876 139.51562 348.9344Q139.51562 349.16876 139.34375 349.34064Q139.1875 349.5125 138.875 349.5125Q138.57812 349.5125 138.42188 349.34064Q138.28125 349.16876 138.28125 348.9344ZM145.89062 343.66876Q145.89062 344.2625 145.57812 344.71564Q145.28125 345.16876 144.75 345.4344Q145.35938 345.6844 145.71875 346.2Q146.07812 346.7 146.07812 347.34064Q146.07812 348.35626 145.39062 348.96564Q144.70312 349.5594 143.59375 349.5594Q142.45312 349.5594 141.78125 348.96564Q141.10938 348.35626 141.10938 347.34064Q141.10938 346.7 141.45312 346.2Q141.79688 345.6844 142.40625 345.41876Q141.89062 345.16876 141.57812 344.71564Q141.28125 344.2469 141.28125 343.66876Q141.28125 342.6844 141.90625 342.10626Q142.54688 341.52814 143.59375 341.52814Q144.625 341.52814 145.25 342.10626Q145.89062 342.6844 145.89062 343.66876ZM145.07812 347.325Q145.07812 346.66876 144.65625 346.2625Q144.25 345.84064 143.57812 345.84064Q142.90625 345.84064 142.5 346.2469Q142.09375 346.65314 142.09375 347.325Q142.09375 347.98126 142.48438 348.3719Q142.89062 348.7469 143.59375 348.7469Q144.28125 348.7469 144.67188 348.3719Q145.07812 347.98126 145.07812 347.325ZM143.59375 342.34064Q143.0 342.34064 142.64062 342.7Q142.28125 343.0594 142.28125 343.6844Q142.28125 344.27814 142.64062 344.65314Q143.0 345.0125 143.59375 345.0125Q144.1875 345.0125 144.54688 344.65314Q144.90625 344.27814 144.90625 343.6844Q144.90625 343.09064 144.53125 342.71564Q144.15625 342.34064 143.59375 342.34064ZM150.21875 346.27814Q150.21875 345.0594 150.53125 343.95Q150.85938 342.825 151.5 341.91876Q152.15625 340.9969 152.84375 340.6219L153.04688 341.27814Q152.26562 341.8875 151.76562 343.1219Q151.26562 344.35626 151.21875 345.8875L151.20312 346.34064Q151.20312 348.41876 151.96875 349.9344Q152.42188 350.85626 153.04688 351.3719L152.84375 351.98126Q152.125 351.575 151.48438 350.6375Q150.21875 348.8094 150.21875 346.27814ZM160.42188 349.45L159.375 349.45L155.4375 343.41876L155.4375 349.45L154.40625 349.45L154.40625 341.6219L155.4375 341.6219L159.39062 347.6844L159.39062 341.6219L160.42188 341.6219L160.42188 349.45ZM161.98438 346.4969Q161.98438 345.6375 162.3125 344.96564Q162.65625 344.27814 163.25 343.90314Q163.85938 343.52814 164.625 343.52814Q165.8125 343.52814 166.54688 344.35626Q167.28125 345.16876 167.28125 346.54376L167.28125 346.60626Q167.28125 347.45 166.95312 348.1375Q166.625 348.8094 166.01562 349.1844Q165.42188 349.5594 164.64062 349.5594Q163.45312 349.5594 162.71875 348.7469Q161.98438 347.91876 161.98438 346.5594L161.98438 346.4969ZM162.98438 346.60626Q162.98438 347.575 163.4375 348.16876Q163.89062 348.7469 164.64062 348.7469Q165.39062 348.7469 165.82812 348.15314Q166.28125 347.5594 166.28125 346.4969Q166.28125 345.52814 165.82812 344.9344Q165.375 344.34064 164.625 344.34064Q163.89062 344.34064 163.4375 344.9344Q162.98438 345.5125 162.98438 346.60626ZM168.01562 346.4969Q168.01562 345.15314 168.64062 344.34064Q169.28125 343.52814 170.29688 343.52814Q171.32812 343.52814 171.92188 344.23126L171.92188 341.2L172.92188 341.2L172.92188 349.45L172.0 349.45L171.95312 348.825Q171.35938 349.5594 170.29688 349.5594Q169.28125 349.5594 168.64062 348.73126Q168.01562 347.90314 168.01562 346.575L168.01562 346.4969ZM169.0 346.60626Q169.0 347.59064 169.40625 348.15314Q169.82812 348.71564 170.54688 348.71564Q171.48438 348.71564 171.92188 347.8719L171.92188 345.2Q171.46875 344.3719 170.54688 344.3719Q169.82812 344.3719 169.40625 344.9344Q169.0 345.4969 169.0 346.60626ZM176.65625 349.5594Q175.48438 349.5594 174.73438 348.79376Q174.0 348.0125 174.0 346.7L174.0 346.52814Q174.0 345.65314 174.32812 344.98126Q174.65625 344.29376 175.25 343.91876Q175.84375 343.52814 176.54688 343.52814Q177.67188 343.52814 178.29688 344.27814Q178.9375 345.02814 178.9375 346.41876L178.9375 346.825L175.0 346.825Q175.01562 347.6844 175.48438 348.21564Q175.96875 348.7469 176.71875 348.7469Q177.25 348.7469 177.60938 348.52814Q177.96875 348.3094 178.25 347.96564L178.85938 348.4344Q178.125 349.5594 176.65625 349.5594ZM176.54688 344.34064Q175.9375 344.34064 175.53125 344.77814Q175.125 345.21564 175.03125 346.0125L177.9375 346.0125L177.9375 345.9344Q177.89062 345.1844 177.51562 344.7625Q177.15625 344.34064 176.54688 344.34064ZM180.28125 348.9344Q180.28125 348.66876 180.42188 348.4969Q180.57812 348.325 180.875 348.325Q181.1875 348.325 181.34375 348.4969Q181.51562 348.66876 181.51562 348.9344Q181.51562 349.16876 181.34375 349.34064Q181.1875 349.5125 180.875 349.5125Q180.57812 349.5125 180.42188 349.34064Q180.28125 349.16876 180.28125 348.9344ZM184.28125 343.6375L184.28125 350.1219Q184.28125 351.79376 182.76562 351.79376Q182.4375 351.79376 182.15625 351.7L182.15625 350.90314Q182.32812 350.95 182.60938 350.95Q182.9375 350.95 183.10938 350.7625Q183.28125 350.59064 183.28125 350.1375L183.28125 343.6375L184.28125 343.6375ZM183.1875 342.09064Q183.1875 341.85626 183.32812 341.7Q183.48438 341.52814 183.76562 341.52814Q184.04688 341.52814 184.20312 341.7Q184.35938 341.85626 184.35938 342.10626Q184.35938 342.34064 184.20312 342.4969Q184.04688 342.65314 183.75 342.65314Q183.46875 342.65314 183.32812 342.4969Q183.1875 342.34064 183.1875 342.09064ZM189.64062 347.90314Q189.64062 347.5125 189.32812 347.29376Q189.03125 347.0594 188.26562 346.90314Q187.51562 346.73126 187.07812 346.5125Q186.64062 346.29376 186.42188 345.98126Q186.20312 345.66876 186.20312 345.23126Q186.20312 344.5125 186.8125 344.02814Q187.42188 343.52814 188.35938 343.52814Q189.34375 343.52814 189.95312 344.04376Q190.57812 344.54376 190.57812 345.34064L189.57812 345.34064Q189.57812 344.9344 189.23438 344.6375Q188.89062 344.34064 188.35938 344.34064Q187.8125 344.34064 187.5 344.59064Q187.20312 344.825 187.20312 345.2Q187.20312 345.5594 187.48438 345.7469Q187.76562 345.91876 188.51562 346.09064Q189.26562 346.2625 189.71875 346.4969Q190.1875 346.71564 190.40625 347.04376Q190.625 347.3719 190.625 347.84064Q190.625 348.6219 190.0 349.09064Q189.39062 349.5594 188.39062 349.5594Q187.6875 349.5594 187.15625 349.3094Q186.625 349.0594 186.3125 348.6219Q186.01562 348.1844 186.01562 347.66876L187.0 347.66876Q187.03125 348.15314 187.40625 348.45Q187.78125 348.7469 188.39062 348.7469Q188.95312 348.7469 189.29688 348.52814Q189.64062 348.29376 189.64062 347.90314ZM198.42188 349.45L197.42188 349.45L197.42188 342.825L195.40625 343.5594L195.40625 342.65314L198.26562 341.59064L198.42188 341.59064L198.42188 349.45ZM206.04688 346.1219Q206.04688 347.85626 205.45312 348.71564Q204.85938 349.5594 203.59375 349.5594Q202.34375 349.5594 201.73438 348.73126Q201.14062 347.90314 201.125 346.2469L201.125 344.91876Q201.125 343.2 201.71875 342.3719Q202.3125 341.52814 203.57812 341.52814Q204.84375 341.52814 205.4375 342.34064Q206.03125 343.1375 206.04688 344.825L206.04688 346.1219ZM205.0625 344.7625Q205.0625 343.4969 204.70312 342.91876Q204.34375 342.34064 203.57812 342.34064Q202.82812 342.34064 202.46875 342.91876Q202.125 343.48126 202.10938 344.6844L202.10938 346.2625Q202.10938 347.54376 202.46875 348.15314Q202.84375 348.7469 203.59375 348.7469Q204.32812 348.7469 204.6875 348.1844Q205.04688 347.60626 205.0625 346.3875L205.0625 344.7625ZM209.54688 346.325Q209.54688 347.52814 209.23438 348.6375Q208.92188 349.73126 208.26562 350.65314Q207.625 351.575 206.90625 351.98126L206.70312 351.3719Q207.53125 350.73126 208.03125 349.40314Q208.53125 348.0594 208.54688 346.4344L208.54688 346.2625Q208.54688 345.1375 208.3125 344.16876Q208.07812 343.2 207.65625 342.4344Q207.23438 341.66876 206.70312 341.23126L206.90625 340.6219Q207.625 341.0125 208.26562 341.9344Q208.90625 342.85626 209.21875 343.96564Q209.54688 345.0594 209.54688 346.325Z" fill-rule="nonzero"/><path fill="#3d85c6" d="M226.5 340.45C226.5 339.8977 226.94771 339.45 227.5 339.45L237.5 339.45C238.05229 339.45 238.5 339.8977 238.5 340.45L238.5 350.45C238.5 351.0023 238.05229 351.45 237.5 351.45L227.5 351.45C226.94771 351.45 226.5 351.0023 226.5 350.45Z" fill-rule="nonzero"/><path fill="#666666" d="M250.0 348.075L252.23438 341.6219L253.35938 341.6219L250.45312 349.45L249.54688 349.45L246.65625 341.6219L247.76562 341.6219L250.0 348.075ZM258.89062 343.66876Q258.89062 344.2625 258.57812 344.71564Q258.28125 345.16876 257.75 345.4344Q258.35938 345.6844 258.71875 346.2Q259.07812 346.7 259.07812 347.34064Q259.07812 348.35626 258.39062 348.96564Q257.70312 349.5594 256.59375 349.5594Q255.45312 349.5594 254.78125 348.96564Q254.10938 348.35626 254.10938 347.34064Q254.10938 346.7 254.45312 346.2Q254.79688 345.6844 255.40625 345.41876Q254.89062 345.16876 254.57812 344.71564Q254.28125 344.2469 254.28125 343.66876Q254.28125 342.6844 254.90625 342.10626Q255.54688 341.52814 256.59375 341.52814Q257.625 341.52814 258.25 342.10626Q258.89062 342.6844 258.89062 343.66876ZM258.07812 347.325Q258.07812 346.66876 257.65625 346.2625Q257.25 345.84064 256.57812 345.84064Q255.90625 345.84064 255.5 346.2469Q255.09375 346.65314 255.09375 347.325Q255.09375 347.98126 255.48438 348.3719Q255.89062 348.7469 256.59375 348.7469Q257.28125 348.7469 257.67188 348.3719Q258.07812 347.98126 258.07812 347.325ZM256.59375 342.34064Q256.0 342.34064 255.64062 342.7Q255.28125 343.0594 255.28125 343.6844Q255.28125 344.27814 255.64062 344.65314Q256.0 345.0125 256.59375 345.0125Q257.1875 345.0125 257.54688 344.65314Q257.90625 344.27814 257.90625 343.6844Q257.90625 343.09064 257.53125 342.71564Q257.15625 342.34064 256.59375 342.34064ZM265.17188 348.10626L266.60938 343.6375L267.625 343.6375L265.54688 349.45L264.78125 349.45L262.67188 343.6375L263.6875 343.6375L265.17188 348.10626ZM273.20312 342.1844L269.95312 349.45L268.92188 349.45L272.14062 342.45L267.90625 342.45L267.90625 341.6219L273.20312 341.6219L273.20312 342.1844ZM274.28125 348.9344Q274.28125 348.66876 274.42188 348.4969Q274.57812 348.325 274.875 348.325Q275.1875 348.325 275.34375 348.4969Q275.51562 348.66876 275.51562 348.9344Q275.51562 349.16876 275.34375 349.34064Q275.1875 349.5125 274.875 349.5125Q274.57812 349.5125 274.42188 349.34064Q274.28125 349.16876 274.28125 348.9344ZM282.28125 349.45L277.15625 349.45L277.15625 348.73126L279.85938 345.73126Q280.45312 345.04376 280.6875 344.6219Q280.92188 344.1844 280.92188 343.73126Q280.92188 343.1219 280.54688 342.73126Q280.17188 342.34064 279.5625 342.34064Q278.8125 342.34064 278.40625 342.7625Q278.0 343.1844 278.0 343.9344L277.0 343.9344Q277.0 342.85626 277.6875 342.2Q278.39062 341.52814 279.5625 341.52814Q280.64062 341.52814 281.28125 342.10626Q281.92188 342.66876 281.92188 343.6219Q281.92188 344.77814 280.4375 346.3719L278.34375 348.6375L282.28125 348.6375L282.28125 349.45Z" fill-rule="nonzero"/><path fill="#6fa8dc" d="M298.5 340.45C298.5 339.8977 298.94772 339.45 299.5 339.45L309.5 339.45C310.05228 339.45 310.5 339.8977 310.5 340.45L310.5 350.45C310.5 351.0023 310.05228 351.45 309.5 351.45L299.5 351.45C298.94772 351.45 298.5 351.0023 298.5 350.45Z" fill-rule="nonzero"/><path fill="#666666" d="M322.0 348.075L324.23438 341.6219L325.35938 341.6219L322.45312 349.45L321.54688 349.45L318.65625 341.6219L319.76562 341.6219L322.0 348.075ZM330.89062 343.66876Q330.89062 344.2625 330.57812 344.71564Q330.28125 345.16876 329.75 345.4344Q330.35938 345.6844 330.71875 346.2Q331.07812 346.7 331.07812 347.34064Q331.07812 348.35626 330.39062 348.96564Q329.70312 349.5594 328.59375 349.5594Q327.45312 349.5594 326.78125 348.96564Q326.10938 348.35626 326.10938 347.34064Q326.10938 346.7 326.45312 346.2Q326.79688 345.6844 327.40625 345.41876Q326.89062 345.16876 326.57812 344.71564Q326.28125 344.2469 326.28125 343.66876Q326.28125 342.6844 326.90625 342.10626Q327.54688 341.52814 328.59375 341.52814Q329.625 341.52814 330.25 342.10626Q330.89062 342.6844 330.89062 343.66876ZM330.07812 347.325Q330.07812 346.66876 329.65625 346.2625Q329.25 345.84064 328.57812 345.84064Q327.90625 345.84064 327.5 346.2469Q327.09375 346.65314 327.09375 347.325Q327.09375 347.98126 327.48438 348.3719Q327.89062 348.7469 328.59375 348.7469Q329.28125 348.7469 329.67188 348.3719Q330.07812 347.98126 330.07812 347.325ZM328.59375 342.34064Q328.0 342.34064 327.64062 342.7Q327.28125 343.0594 327.28125 343.6844Q327.28125 344.27814 327.64062 344.65314Q328.0 345.0125 328.59375 345.0125Q329.1875 345.0125 329.54688 344.65314Q329.90625 344.27814 329.90625 343.6844Q329.90625 343.09064 329.53125 342.71564Q329.15625 342.34064 328.59375 342.34064ZM337.17188 348.10626L338.60938 343.6375L339.625 343.6375L337.54688 349.45L336.78125 349.45L334.67188 343.6375L335.6875 343.6375L337.17188 348.10626ZM345.20312 342.1844L341.95312 349.45L340.92188 349.45L344.14062 342.45L339.90625 342.45L339.90625 341.6219L345.20312 341.6219L345.20312 342.1844ZM346.28125 348.9344Q346.28125 348.66876 346.42188 348.4969Q346.57812 348.325 346.875 348.325Q347.1875 348.325 347.34375 348.4969Q347.51562 348.66876 347.51562 348.9344Q347.51562 349.16876 347.34375 349.34064Q347.1875 349.5125 346.875 349.5125Q346.57812 349.5125 346.42188 349.34064Q346.28125 349.16876 346.28125 348.9344ZM354.28125 349.45L349.15625 349.45L349.15625 348.73126L351.85938 345.73126Q352.45312 345.04376 352.6875 344.6219Q352.92188 344.1844 352.92188 343.73126Q352.92188 343.1219 352.54688 342.73126Q352.17188 342.34064 351.5625 342.34064Q350.8125 342.34064 350.40625 342.7625Q350.0 343.1844 350.0 343.9344L349.0 343.9344Q349.0 342.85626 349.6875 342.2Q350.39062 341.52814 351.5625 341.52814Q352.64062 341.52814 353.28125 342.10626Q353.92188 342.66876 353.92188 343.6219Q353.92188 344.77814 352.4375 346.3719L350.34375 348.6375L354.28125 348.6375L354.28125 349.45ZM358.21875 346.27814Q358.21875 345.0594 358.53125 343.95Q358.85938 342.825 359.5 341.91876Q360.15625 340.9969 360.84375 340.6219L361.04688 341.27814Q360.26562 341.8875 359.76562 343.1219Q359.26562 344.35626 359.21875 345.8875L359.20312 346.34064Q359.20312 348.41876 359.96875 349.9344Q360.42188 350.85626 361.04688 351.3719L360.84375 351.98126Q360.125 351.575 359.48438 350.6375Q358.21875 348.8094 358.21875 346.27814ZM364.3125 346.52814L361.70312 346.52814L361.70312 345.71564L364.3125 345.71564L364.3125 346.52814ZM367.3125 346.52814L364.70312 346.52814L364.70312 345.71564L367.3125 345.71564L367.3125 346.52814ZM369.25 344.34064Q369.90625 343.52814 370.96875 343.52814Q372.8125 343.52814 372.82812 345.60626L372.82812 349.45L371.82812 349.45L371.82812 345.60626Q371.82812 344.98126 371.54688 344.6844Q371.26562 344.3719 370.65625 344.3719Q370.1875 344.3719 369.8125 344.6375Q369.45312 344.8875 369.25 345.3094L369.25 349.45L368.25 349.45L368.25 341.2L369.25 341.2L369.25 344.34064ZM377.84375 349.45Q377.75 349.27814 377.70312 348.84064Q377.0 349.5594 376.04688 349.5594Q375.1875 349.5594 374.625 349.075Q374.07812 348.59064 374.07812 347.84064Q374.07812 346.9344 374.76562 346.4344Q375.46875 345.91876 376.71875 345.91876L377.6875 345.91876L377.6875 345.46564Q377.6875 344.95 377.375 344.6375Q377.0625 344.325 376.45312 344.325Q375.92188 344.325 375.5625 344.60626Q375.20312 344.8719 375.20312 345.2469L374.20312 345.2469Q374.20312 344.8094 374.51562 344.40314Q374.82812 343.9969 375.34375 343.7625Q375.875 343.52814 376.51562 343.52814Q377.51562 343.52814 378.07812 344.02814Q378.65625 344.52814 378.67188 345.41876L378.67188 348.09064Q378.67188 348.8875 378.875 349.35626L378.875 349.45L377.84375 349.45ZM376.1875 348.7Q376.65625 348.7 377.07812 348.46564Q377.5 348.21564 377.6875 347.825L377.6875 346.6375L376.90625 346.6375Q375.07812 346.6375 375.07812 347.7Q375.07812 348.16876 375.39062 348.4344Q375.70312 348.7 376.1875 348.7ZM383.0625 344.52814Q382.82812 344.4969 382.57812 344.4969Q381.59375 344.4969 381.25 345.325L381.25 349.45L380.25 349.45L380.25 343.6375L381.21875 343.6375L381.23438 344.3094Q381.71875 343.52814 382.625 343.52814Q382.90625 343.52814 383.0625 343.60626L383.0625 344.52814ZM385.1875 343.6375L385.21875 344.27814Q385.85938 343.52814 386.9375 343.52814Q388.15625 343.52814 388.59375 344.46564Q388.89062 344.04376 389.34375 343.79376Q389.8125 343.52814 390.45312 343.52814Q392.35938 343.52814 392.39062 345.5594L392.39062 349.45L391.40625 349.45L391.40625 345.6219Q391.40625 344.9969 391.10938 344.6844Q390.82812 344.3719 390.15625 344.3719Q389.60938 344.3719 389.23438 344.7Q388.875 345.02814 388.8125 345.59064L388.8125 349.45L387.8125 349.45L387.8125 345.6375Q387.8125 344.3719 386.57812 344.3719Q385.59375 344.3719 385.23438 345.2L385.23438 349.45L384.25 349.45L384.25 343.6375L385.1875 343.6375ZM393.98438 346.4969Q393.98438 345.6375 394.3125 344.96564Q394.65625 344.27814 395.25 343.90314Q395.85938 343.52814 396.625 343.52814Q397.8125 343.52814 398.54688 344.35626Q399.28125 345.16876 399.28125 346.54376L399.28125 346.60626Q399.28125 347.45 398.95312 348.1375Q398.625 348.8094 398.01562 349.1844Q397.42188 349.5594 396.64062 349.5594Q395.45312 349.5594 394.71875 348.7469Q393.98438 347.91876 393.98438 346.5594L393.98438 346.4969ZM394.98438 346.60626Q394.98438 347.575 395.4375 348.16876Q395.89062 348.7469 396.64062 348.7469Q397.39062 348.7469 397.82812 348.15314Q398.28125 347.5594 398.28125 346.4969Q398.28125 345.52814 397.82812 344.9344Q397.375 344.34064 396.625 344.34064Q395.89062 344.34064 395.4375 344.9344Q394.98438 345.5125 394.98438 346.60626ZM401.1875 343.6375L401.21875 344.3719Q401.89062 343.52814 402.96875 343.52814Q404.8125 343.52814 404.82812 345.60626L404.82812 349.45L403.82812 349.45L403.82812 345.60626Q403.82812 344.98126 403.54688 344.6844Q403.26562 344.3719 402.65625 344.3719Q402.1875 344.3719 401.8125 344.6375Q401.45312 344.8875 401.25 345.3094L401.25 349.45L400.25 349.45L400.25 343.6375L401.1875 343.6375ZM408.15625 347.9969L409.5 343.6375L410.57812 343.6375L408.23438 350.34064Q407.6875 351.79376 406.51562 351.79376L406.32812 351.77814L405.95312 351.71564L405.95312 350.90314L406.21875 350.9344Q406.71875 350.9344 407.0 350.71564Q407.28125 350.5125 407.46875 349.98126L407.6875 349.3875L405.625 343.6375L406.70312 343.6375L408.15625 347.9969ZM413.3125 346.52814L410.70312 346.52814L410.70312 345.71564L413.3125 345.71564L413.3125 346.52814ZM417.84375 349.45Q417.75 349.27814 417.70312 348.84064Q417.0 349.5594 416.04688 349.5594Q415.1875 349.5594 414.625 349.075Q414.07812 348.59064 414.07812 347.84064Q414.07812 346.9344 414.76562 346.4344Q415.46875 345.91876 416.71875 345.91876L417.6875 345.91876L417.6875 345.46564Q417.6875 344.95 417.375 344.6375Q417.0625 344.325 416.45312 344.325Q415.92188 344.325 415.5625 344.60626Q415.20312 344.8719 415.20312 345.2469L414.20312 345.2469Q414.20312 344.8094 414.51562 344.40314Q414.82812 343.9969 415.34375 343.7625Q415.875 343.52814 416.51562 343.52814Q417.51562 343.52814 418.07812 344.02814Q418.65625 344.52814 418.67188 345.41876L418.67188 348.09064Q418.67188 348.8875 418.875 349.35626L418.875 349.45L417.84375 349.45ZM416.1875 348.7Q416.65625 348.7 417.07812 348.46564Q417.5 348.21564 417.6875 347.825L417.6875 346.6375L416.90625 346.6375Q415.07812 346.6375 415.07812 347.7Q415.07812 348.16876 415.39062 348.4344Q415.70312 348.7 416.1875 348.7ZM425.39062 348.075L426.51562 343.6375L427.51562 343.6375L425.8125 349.45L425.01562 349.45L423.59375 345.04376L422.21875 349.45L421.42188 349.45L419.73438 343.6375L420.71875 343.6375L421.85938 347.98126L423.21875 343.6375L424.01562 343.6375L425.39062 348.075ZM431.84375 349.45Q431.75 349.27814 431.70312 348.84064Q431.0 349.5594 430.04688 349.5594Q429.1875 349.5594 428.625 349.075Q428.07812 348.59064 428.07812 347.84064Q428.07812 346.9344 428.76562 346.4344Q429.46875 345.91876 430.71875 345.91876L431.6875 345.91876L431.6875 345.46564Q431.6875 344.95 431.375 344.6375Q431.0625 344.325 430.45312 344.325Q429.92188 344.325 429.5625 344.60626Q429.20312 344.8719 429.20312 345.2469L428.20312 345.2469Q428.20312 344.8094 428.51562 344.40314Q428.82812 343.9969 429.34375 343.7625Q429.875 343.52814 430.51562 343.52814Q431.51562 343.52814 432.07812 344.02814Q432.65625 344.52814 432.67188 345.41876L432.67188 348.09064Q432.67188 348.8875 432.875 349.35626L432.875 349.45L431.84375 349.45ZM430.1875 348.7Q430.65625 348.7 431.07812 348.46564Q431.5 348.21564 431.6875 347.825L431.6875 346.6375L430.90625 346.6375Q429.07812 346.6375 429.07812 347.7Q429.07812 348.16876 429.39062 348.4344Q429.70312 348.7 430.1875 348.7ZM435.32812 349.45L434.34375 349.45L434.34375 343.6375L435.32812 343.6375L435.32812 349.45ZM434.25 342.09064Q434.25 341.85626 434.39062 341.7Q434.54688 341.52814 434.84375 341.52814Q435.14062 341.52814 435.28125 341.7Q435.4375 341.85626 435.4375 342.10626Q435.4375 342.34064 435.28125 342.4969Q435.14062 342.65314 434.84375 342.65314Q434.54688 342.65314 434.39062 342.4969Q434.25 342.34064 434.25 342.09064ZM438.59375 342.23126L438.59375 343.6375L439.6875 343.6375L439.6875 344.40314L438.59375 344.40314L438.59375 348.0125Q438.59375 348.35626 438.73438 348.54376Q438.89062 348.71564 439.23438 348.71564Q439.40625 348.71564 439.71875 348.6375L439.71875 349.45Q439.3125 349.5594 438.95312 349.5594Q438.28125 349.5594 437.9375 349.15314Q437.60938 348.7469 437.60938 348.0125L437.60938 344.40314L436.54688 344.40314L436.54688 343.6375L437.60938 343.6375L437.60938 342.23126L438.59375 342.23126ZM443.3125 346.52814L440.70312 346.52814L440.70312 345.71564L443.3125 345.71564L443.3125 346.52814ZM443.98438 346.4969Q443.98438 345.6375 444.3125 344.96564Q444.65625 344.27814 445.25 343.90314Q445.85938 343.52814 446.625 343.52814Q447.8125 343.52814 448.54688 344.35626Q449.28125 345.16876 449.28125 346.54376L449.28125 346.60626Q449.28125 347.45 448.95312 348.1375Q448.625 348.8094 448.01562 349.1844Q447.42188 349.5594 446.64062 349.5594Q445.45312 349.5594 444.71875 348.7469Q443.98438 347.91876 443.98438 346.5594L443.98438 346.4969ZM444.98438 346.60626Q444.98438 347.575 445.4375 348.16876Q445.89062 348.7469 446.64062 348.7469Q447.39062 348.7469 447.82812 348.15314Q448.28125 347.5594 448.28125 346.4969Q448.28125 345.52814 447.82812 344.9344Q447.375 344.34064 446.625 344.34064Q445.89062 344.34064 445.4375 344.9344Q444.98438 345.5125 444.98438 346.60626ZM455.15625 346.60626Q455.15625 347.9344 454.54688 348.7469Q453.95312 349.5594 452.90625 349.5594Q451.85938 349.5594 451.25 348.8875L451.25 351.6844L450.25 351.6844L450.25 343.6375L451.15625 343.6375L451.20312 344.27814Q451.8125 343.52814 452.89062 343.52814Q453.9375 343.52814 454.54688 344.325Q455.15625 345.10626 455.15625 346.5125L455.15625 346.60626ZM454.17188 346.4969Q454.17188 345.5125 453.75 344.95Q453.32812 344.3719 452.59375 344.3719Q451.70312 344.3719 451.25 345.16876L451.25 347.95Q451.6875 348.7469 452.60938 348.7469Q453.32812 348.7469 453.75 348.1844Q454.17188 347.60626 454.17188 346.4969ZM457.59375 342.23126L457.59375 343.6375L458.6875 343.6375L458.6875 344.40314L457.59375 344.40314L457.59375 348.0125Q457.59375 348.35626 457.73438 348.54376Q457.89062 348.71564 458.23438 348.71564Q458.40625 348.71564 458.71875 348.6375L458.71875 349.45Q458.3125 349.5594 457.95312 349.5594Q457.28125 349.5594 456.9375 349.15314Q456.60938 348.7469 456.60938 348.0125L456.60938 344.40314L455.54688 344.40314L455.54688 343.6375L456.60938 343.6375L456.60938 342.23126L457.59375 342.23126ZM461.32812 349.45L460.34375 349.45L460.34375 343.6375L461.32812 343.6375L461.32812 349.45ZM460.25 342.09064Q460.25 341.85626 460.39062 341.7Q460.54688 341.52814 460.84375 341.52814Q461.14062 341.52814 461.28125 341.7Q461.4375 341.85626 461.4375 342.10626Q461.4375 342.34064 461.28125 342.4969Q461.14062 342.65314 460.84375 342.65314Q460.54688 342.65314 460.39062 342.4969Q460.25 342.34064 460.25 342.09064ZM464.1875 343.6375L464.21875 344.27814Q464.85938 343.52814 465.9375 343.52814Q467.15625 343.52814 467.59375 344.46564Q467.89062 344.04376 468.34375 343.79376Q468.8125 343.52814 469.45312 343.52814Q471.35938 343.52814 471.39062 345.5594L471.39062 349.45L470.40625 349.45L470.40625 345.6219Q470.40625 344.9969 470.10938 344.6844Q469.82812 344.3719 469.15625 344.3719Q468.60938 344.3719 468.23438 344.7Q467.875 345.02814 467.8125 345.59064L467.8125 349.45L466.8125 349.45L466.8125 345.6375Q466.8125 344.3719 465.57812 344.3719Q464.59375 344.3719 464.23438 345.2L464.23438 349.45L463.25 349.45L463.25 343.6375L464.1875 343.6375ZM474.32812 349.45L473.34375 349.45L473.34375 343.6375L474.32812 343.6375L474.32812 349.45ZM473.25 342.09064Q473.25 341.85626 473.39062 341.7Q473.54688 341.52814 473.84375 341.52814Q474.14062 341.52814 474.28125 341.7Q474.4375 341.85626 474.4375 342.10626Q474.4375 342.34064 474.28125 342.4969Q474.14062 342.65314 473.84375 342.65314Q473.54688 342.65314 473.39062 342.4969Q473.25 342.34064 473.25 342.09064ZM477.1875 348.6375L480.59375 348.6375L480.59375 349.45L475.96875 349.45L475.96875 348.71564L479.17188 344.46564L476.01562 344.46564L476.01562 343.6375L480.42188 343.6375L480.42188 344.34064L477.1875 348.6375ZM484.84375 349.45Q484.75 349.27814 484.70312 348.84064Q484.0 349.5594 483.04688 349.5594Q482.1875 349.5594 481.625 349.075Q481.07812 348.59064 481.07812 347.84064Q481.07812 346.9344 481.76562 346.4344Q482.46875 345.91876 483.71875 345.91876L484.6875 345.91876L484.6875 345.46564Q484.6875 344.95 484.375 344.6375Q484.0625 344.325 483.45312 344.325Q482.92188 344.325 482.5625 344.60626Q482.20312 344.8719 482.20312 345.2469L481.20312 345.2469Q481.20312 344.8094 481.51562 344.40314Q481.82812 343.9969 482.34375 343.7625Q482.875 343.52814 483.51562 343.52814Q484.51562 343.52814 485.07812 344.02814Q485.65625 344.52814 485.67188 345.41876L485.67188 348.09064Q485.67188 348.8875 485.875 349.35626L485.875 349.45L484.84375 349.45ZM483.1875 348.7Q483.65625 348.7 484.07812 348.46564Q484.5 348.21564 484.6875 347.825L484.6875 346.6375L483.90625 346.6375Q482.07812 346.6375 482.07812 347.7Q482.07812 348.16876 482.39062 348.4344Q482.70312 348.7 483.1875 348.7ZM488.59375 342.23126L488.59375 343.6375L489.6875 343.6375L489.6875 344.40314L488.59375 344.40314L488.59375 348.0125Q488.59375 348.35626 488.73438 348.54376Q488.89062 348.71564 489.23438 348.71564Q489.40625 348.71564 489.71875 348.6375L489.71875 349.45Q489.3125 349.5594 488.95312 349.5594Q488.28125 349.5594 487.9375 349.15314Q487.60938 348.7469 487.60938 348.0125L487.60938 344.40314L486.54688 344.40314L486.54688 343.6375L487.60938 343.6375L487.60938 342.23126L488.59375 342.23126ZM492.32812 349.45L491.34375 349.45L491.34375 343.6375L492.32812 343.6375L492.32812 349.45ZM491.25 342.09064Q491.25 341.85626 491.39062 341.7Q491.54688 341.52814 491.84375 341.52814Q492.14062 341.52814 492.28125 341.7Q492.4375 341.85626 492.4375 342.10626Q492.4375 342.34064 492.28125 342.4969Q492.14062 342.65314 491.84375 342.65314Q491.54688 342.65314 491.39062 342.4969Q491.25 342.34064 491.25 342.09064ZM493.98438 346.4969Q493.98438 345.6375 494.3125 344.96564Q494.65625 344.27814 495.25 343.90314Q495.85938 343.52814 496.625 343.52814Q497.8125 343.52814 498.54688 344.35626Q499.28125 345.16876 499.28125 346.54376L499.28125 346.60626Q499.28125 347.45 498.95312 348.1375Q498.625 348.8094 498.01562 349.1844Q497.42188 349.5594 496.64062 349.5594Q495.45312 349.5594 494.71875 348.7469Q493.98438 347.91876 493.98438 346.5594L493.98438 346.4969ZM494.98438 346.60626Q494.98438 347.575 495.4375 348.16876Q495.89062 348.7469 496.64062 348.7469Q497.39062 348.7469 497.82812 348.15314Q498.28125 347.5594 498.28125 346.4969Q498.28125 345.52814 497.82812 344.9344Q497.375 344.34064 496.625 344.34064Q495.89062 344.34064 495.4375 344.9344Q494.98438 345.5125 494.98438 346.60626ZM501.1875 343.6375L501.21875 344.3719Q501.89062 343.52814 502.96875 343.52814Q504.8125 343.52814 504.82812 345.60626L504.82812 349.45L503.82812 349.45L503.82812 345.60626Q503.82812 344.98126 503.54688 344.6844Q503.26562 344.3719 502.65625 344.3719Q502.1875 344.3719 501.8125 344.6375Q501.45312 344.8875 501.25 345.3094L501.25 349.45L500.25 349.45L500.25 343.6375L501.1875 343.6375ZM508.54688 346.325Q508.54688 347.52814 508.23438 348.6375Q507.92188 349.73126 507.26562 350.65314Q506.625 351.575 505.90625 351.98126L505.70312 351.3719Q506.53125 350.73126 507.03125 349.40314Q507.53125 348.0594 507.54688 346.4344L507.54688 346.2625Q507.54688 345.1375 507.3125 344.16876Q507.07812 343.2 506.65625 342.4344Q506.23438 341.66876 505.70312 341.23126L505.90625 340.6219Q506.625 341.0125 507.26562 341.9344Q507.90625 342.85626 508.21875 343.96564Q508.54688 345.0594 508.54688 346.325Z" fill-rule="nonzero"/></svg>