<svg version="1.1" viewBox="0.0 0.0 832.50656167979 286.244094488189" fill="none" stroke="none" stroke-linecap="square" stroke-miterlimit="10" xmlns:xlink="http://www.w3.org/1999/xlink" xmlns="http://www.w3.org/2000/svg"><clipPath id="p.0"><path d="m0 0l832.5066 0l0 286.24408l-832.5066 0l0 -286.24408z" clip-rule="nonzero"/></clipPath><g clip-path="url(#p.0)"><path fill="#000000" fill-opacity="0.0" d="m0 0l832.5066 0l0 286.24408l-832.5066 0z" fill-rule="evenodd"/><path fill="#3d85c6" d="m28.335958 82.86089l137.43307 0l34.97638 34.97638l-34.97638 34.97637l-137.43307 0l34.97638 -34.97637z" fill-rule="evenodd"/><path stroke="#3d85c6" stroke-width="1.0" stroke-linejoin="round" stroke-linecap="butt" d="m28.335958 82.86089l137.43307 0l34.97638 34.97638l-34.97638 34.97637l-137.43307 0l34.97638 -34.97637z" fill-rule="evenodd"/><path fill="#000000" fill-opacity="0.0" d="m233.44357 71.20735l563.4016 0" fill-rule="evenodd"/><path stroke="#595959" stroke-width="1.0" stroke-linejoin="round" stroke-linecap="butt" d="m233.44357 71.20735l563.4016 0" fill-rule="evenodd"/><path fill="#000000" fill-opacity="0.0" d="m233.44357 164.4672l563.4016 0" fill-rule="evenodd"/><path stroke="#595959" stroke-width="1.0" stroke-linejoin="round" stroke-linecap="butt" d="m233.44357 164.4672l563.4016 0" fill-rule="evenodd"/><path fill="#000000" fill-opacity="0.0" d="m233.44357 221.12862l563.4016 0" fill-rule="evenodd"/><path stroke="#595959" stroke-width="1.0" stroke-linejoin="round" stroke-linecap="butt" d="m233.44357 221.12862l563.4016 0" fill-rule="evenodd"/><path fill="#674ea7" d="m360.9319 173.06561l47.091736 0c1.2207031E-4 0 2.4414062E-4 4.5776367E-5 3.0517578E-4 1.373291E-4c9.1552734E-5 7.6293945E-5 1.5258789E-4 1.9836426E-4 1.5258789E-4 3.2043457E-4l-4.5776367E-4 32.88655c0 3.6326904 -2.9448853 6.5775604 -6.577545 6.5775604l-47.091736 0l0 0c-2.4414062E-4 0 -4.5776367E-4 -1.9836426E-4 -4.5776367E-4 -4.4250488E-4l4.5776367E-4 -32.886566l0 0c0 -3.6326752 2.9448547 -6.5775604 6.577545 -6.5775604z" fill-rule="evenodd"/><path stroke="#38761d" stroke-width="1.0" stroke-linejoin="round" stroke-linecap="butt" d="m360.9319 173.06561l47.091736 0c1.2207031E-4 0 2.4414062E-4 4.5776367E-5 3.0517578E-4 1.373291E-4c9.1552734E-5 7.6293945E-5 1.5258789E-4 1.9836426E-4 1.5258789E-4 3.2043457E-4l-4.5776367E-4 32.88655c0 3.6326904 -2.9448853 6.5775604 -6.577545 6.5775604l-47.091736 0l0 0c-2.4414062E-4 0 -4.5776367E-4 -1.9836426E-4 -4.5776367E-4 -4.4250488E-4l4.5776367E-4 -32.886566l0 0c0 -3.6326752 2.9448547 -6.5775604 6.577545 -6.5775604z" fill-rule="evenodd"/><path fill="#674ea7" d="m425.72717 173.06561l47.091736 0c1.2207031E-4 0 2.1362305E-4 4.5776367E-5 3.0517578E-4 1.373291E-4c9.1552734E-5 7.6293945E-5 1.2207031E-4 1.9836426E-4 1.2207031E-4 3.2043457E-4l-4.272461E-4 32.88655c0 3.6326904 -2.9448853 6.5775604 -6.5775757 6.5775604l-47.091736 0l0 0c-2.4414062E-4 0 -4.272461E-4 -1.9836426E-4 -4.272461E-4 -4.4250488E-4l4.272461E-4 -32.886566l0 0c0 -3.6326752 2.9448853 -6.5775604 6.5775757 -6.5775604z" fill-rule="evenodd"/><path stroke="#595959" stroke-width="1.0" stroke-linejoin="round" stroke-linecap="butt" d="m425.72717 173.06561l47.091736 0c1.2207031E-4 0 2.1362305E-4 4.5776367E-5 3.0517578E-4 1.373291E-4c9.1552734E-5 7.6293945E-5 1.2207031E-4 1.9836426E-4 1.2207031E-4 3.2043457E-4l-4.272461E-4 32.88655c0 3.6326904 -2.9448853 6.5775604 -6.5775757 6.5775604l-47.091736 0l0 0c-2.4414062E-4 0 -4.272461E-4 -1.9836426E-4 -4.272461E-4 -4.4250488E-4l4.272461E-4 -32.886566l0 0c0 -3.6326752 2.9448853 -6.5775604 6.5775757 -6.5775604z" fill-rule="evenodd"/><path fill="#674ea7" d="m490.52243 173.06561l47.091766 0c1.2207031E-4 0 1.8310547E-4 4.5776367E-5 3.0517578E-4 1.373291E-4c6.1035156E-5 7.6293945E-5 1.2207031E-4 1.9836426E-4 1.2207031E-4 3.2043457E-4l-4.272461E-4 32.88655c0 3.6326904 -2.9448853 6.5775604 -6.5775757 6.5775604l-47.091736 0l0 0c-2.4414062E-4 0 -4.5776367E-4 -1.9836426E-4 -4.5776367E-4 -4.4250488E-4l4.5776367E-4 -32.886566l0 0c0 -3.6326752 2.9448853 -6.5775604 6.577545 -6.5775604z" fill-rule="evenodd"/><path stroke="#595959" stroke-width="1.0" stroke-linejoin="round" stroke-linecap="butt" d="m490.52243 173.06561l47.091766 0c1.2207031E-4 0 1.8310547E-4 4.5776367E-5 3.0517578E-4 1.373291E-4c6.1035156E-5 7.6293945E-5 1.2207031E-4 1.9836426E-4 1.2207031E-4 3.2043457E-4l-4.272461E-4 32.88655c0 3.6326904 -2.9448853 6.5775604 -6.5775757 6.5775604l-47.091736 0l0 0c-2.4414062E-4 0 -4.5776367E-4 -1.9836426E-4 -4.5776367E-4 -4.4250488E-4l4.5776367E-4 -32.886566l0 0c0 -3.6326752 2.9448853 -6.5775604 6.577545 -6.5775604z" fill-rule="evenodd"/><path fill="#674ea7" d="m652.6248 172.55774l47.091736 0c1.2207031E-4 0 2.4414062E-4 4.5776367E-5 3.0517578E-4 1.373291E-4c6.1035156E-5 7.6293945E-5 1.2207031E-4 1.9836426E-4 1.2207031E-4 3.2043457E-4l-4.272461E-4 32.88655c0 3.6326904 -2.9448853 6.5775604 -6.5775757 6.5775604l-47.091736 0l0 0c-2.4414062E-4 0 -4.272461E-4 -1.9836426E-4 -4.272461E-4 -4.4250488E-4l4.272461E-4 -32.886566l0 0c0 -3.6326904 2.9448853 -6.5775604 6.5775757 -6.5775604z" fill-rule="evenodd"/><path stroke="#595959" stroke-width="1.0" stroke-linejoin="round" stroke-linecap="butt" d="m652.6248 172.55774l47.091736 0c1.2207031E-4 0 2.4414062E-4 4.5776367E-5 3.0517578E-4 1.373291E-4c6.1035156E-5 7.6293945E-5 1.2207031E-4 1.9836426E-4 1.2207031E-4 3.2043457E-4l-4.272461E-4 32.88655c0 3.6326904 -2.9448853 6.5775604 -6.5775757 6.5775604l-47.091736 0l0 0c-2.4414062E-4 0 -4.272461E-4 -1.9836426E-4 -4.272461E-4 -4.4250488E-4l4.272461E-4 -32.886566l0 0c0 -3.6326904 2.9448853 -6.5775604 6.5775757 -6.5775604z" fill-rule="evenodd"/><path fill="#674ea7" d="m717.4201 173.0643l47.091736 0c6.1035156E-5 0 1.8310547E-4 4.5776367E-5 3.0517578E-4 1.373291E-4c6.1035156E-5 7.6293945E-5 1.2207031E-4 1.9836426E-4 1.2207031E-4 3.2043457E-4l-4.272461E-4 32.88655c0 3.6326904 -2.9448853 6.5775604 -6.5775757 6.5775604l-47.091736 0l0 0c-2.4414062E-4 0 -4.272461E-4 -1.9836426E-4 -4.272461E-4 -4.4250488E-4l4.272461E-4 -32.886566l0 0c0 -3.6326904 2.9448853 -6.5775604 6.5775757 -6.5775604z" fill-rule="evenodd"/><path stroke="#595959" stroke-width="1.0" stroke-linejoin="round" stroke-linecap="butt" d="m717.4201 173.0643l47.091736 0c6.1035156E-5 0 1.8310547E-4 4.5776367E-5 3.0517578E-4 1.373291E-4c6.1035156E-5 7.6293945E-5 1.2207031E-4 1.9836426E-4 1.2207031E-4 3.2043457E-4l-4.272461E-4 32.88655c0 3.6326904 -2.9448853 6.5775604 -6.5775757 6.5775604l-47.091736 0l0 0c-2.4414062E-4 0 -4.272461E-4 -1.9836426E-4 -4.272461E-4 -4.4250488E-4l4.272461E-4 -32.886566l0 0c0 -3.6326904 2.9448853 -6.5775604 6.5775757 -6.5775604z" fill-rule="evenodd"/><path fill="#000000" fill-opacity="0.0" d="m56.7769 82.59318l143.9685 0l0 54.488182l-143.9685 0z" fill-rule="evenodd"/><path fill="#ffffff" d="m70.2769 109.81005q-1.53125 0 -2.5625 -0.71875q-1.015625 -0.71875 -1.453125 -1.828125l1.421875 -0.640625q0.34375 0.859375 1.046875 1.328125q0.703125 0.46875 1.546875 0.46875q0.890625 0 1.515625 -0.359375q0.640625 -0.375 0.640625 -1.046875q0 -0.59375 -0.5 -0.953125q-0.5 -0.375 -1.578125 -0.625l-1.15625 -0.3125q-1.140625 -0.28125 -1.875 -0.9375q-0.71875 -0.671875 -0.71875 -1.75q0 -0.8125 0.484375 -1.4375q0.5 -0.625 1.3125 -0.953125q0.828125 -0.34375 1.78125 -0.34375q1.25 0 2.21875 0.546875q0.984375 0.53125 1.390625 1.5l-1.375 0.640625q-0.640625 -1.265625 -2.25 -1.265625q-0.796875 0 -1.390625 0.359375q-0.578125 0.359375 -0.578125 0.921875q0 0.53125 0.40625 0.859375q0.421875 0.3125 1.234375 0.515625l1.390625 0.359375q1.390625 0.359375 2.09375 1.0625q0.71875 0.6875 0.71875 1.703125q0 0.875 -0.515625 1.546875q-0.5 0.65625 -1.359375 1.015625q-0.84375 0.34375 -1.890625 0.34375zm9.730652 0q-1.359375 0 -2.4375 -0.640625q-1.078125 -0.65625 -1.6875 -1.796875q-0.609375 -1.15625 -0.609375 -2.59375q0 -1.390625 0.5625 -2.546875q0.578125 -1.15625 1.625 -1.84375q1.046875 -0.6875 2.421875 -0.6875q1.390625 0 2.421875 0.625q1.03125 0.625 1.578125 1.734375q0.546875 1.09375 0.546875 2.515625q0 0.265625 -0.046875 0.484375l-7.53125 0q0.0625 1.078125 0.53125 1.828125q0.46875 0.734375 1.1875 1.109375q0.71875 0.375 1.5 0.375q1.828125 0 2.8125 -1.71875l1.34375 0.65625q-0.609375 1.15625 -1.671875 1.828125q-1.046875 0.671875 -2.546875 0.671875zm2.75 -6.0625q-0.046875 -0.59375 -0.34375 -1.1875q-0.296875 -0.609375 -0.9375 -1.015625q-0.640625 -0.40625 -1.609375 -0.40625q-1.125 0 -1.90625 0.71875q-0.765625 0.71875 -1.015625 1.890625l5.8125 0zm7.1753387 5.921875q-0.578125 0 -1.078125 -0.1875q-0.484375 -0.1875 -0.828125 -0.515625q-0.359375 -0.34375 -0.546875 -0.8125q-0.1875 -0.46875 -0.1875 -1.140625l0 -5.578125l-1.671875 0l0 -1.4375l1.671875 0l0 -2.6875l1.578125 0l0 2.6875l2.3125 0l0 1.4375l-2.3125 0l0 5.1875q0 0.78125 0.296875 1.15625q0.359375 0.40625 1.03125 0.40625q0.546875 0 1.046875 -0.3125l0 1.546875q-0.28125 0.125 -0.578125 0.1875q-0.28125 0.0625 -0.734375 0.0625zm6.234436 -12.0l-3.75 0l0 -1.515625l9.0625 0l0 1.515625l-3.71875 0l0 11.84375l-1.59375 0l0 -11.84375zm7.930725 0.578125q-0.46875 0 -0.8125 -0.328125q-0.328125 -0.34375 -0.328125 -0.8125q0 -0.46875 0.328125 -0.796875q0.34375 -0.328125 0.8125 -0.328125q0.46875 0 0.796875 0.328125q0.34375 0.328125 0.34375 0.796875q0 0.46875 -0.328125 0.8125q-0.328125 0.328125 -0.8125 0.328125zm-0.78125 1.75l1.5625 0l0 9.515625l-1.5625 0l0 -9.515625zm4.0600586 0l1.515625 0l0 1.40625l0.078125 0q0.40625 -0.734375 1.21875 -1.21875q0.828125 -0.484375 1.75 -0.484375q1.03125 0 1.8125 0.5q0.78125 0.5 1.109375 1.34375q0.5 -0.84375 1.328125 -1.34375q0.84375 -0.5 1.9375 -0.5q1.640625 0 2.46875 1.0q0.828125 1.0 0.828125 2.71875l0 6.09375l-1.5625 0l0 -5.859375q0 -1.328125 -0.546875 -1.921875q-0.53125 -0.59375 -1.59375 -0.59375q-0.71875 0 -1.296875 0.40625q-0.578125 0.40625 -0.90625 1.109375q-0.3125 0.6875 -0.3125 1.484375l0 5.375l-1.59375 0l0 -5.84375q0 -1.34375 -0.546875 -1.9375q-0.53125 -0.59375 -1.578125 -0.59375q-0.703125 0 -1.28125 0.421875q-0.578125 0.421875 -0.90625 1.125q-0.328125 0.6875 -0.328125 1.5l0 5.328125l-1.59375 0l0 -9.515625zm20.558594 9.8125q-1.359375 0 -2.4375 -0.640625q-1.078125 -0.65625 -1.6875 -1.796875q-0.609375 -1.15625 -0.609375 -2.59375q0 -1.390625 0.5625 -2.546875q0.578125 -1.15625 1.625 -1.84375q1.046875 -0.6875 2.421875 -0.6875q1.390625 0 2.421875 0.625q1.03125 0.625 1.578125 1.734375q0.546875 1.09375 0.546875 2.515625q0 0.265625 -0.046875 0.484375l-7.53125 0q0.0625 1.078125 0.53125 1.828125q0.46875 0.734375 1.1875 1.109375q0.71875 0.375 1.5 0.375q1.828125 0 2.8125 -1.71875l1.34375 0.65625q-0.609375 1.15625 -1.671875 1.828125q-1.046875 0.671875 -2.546875 0.671875zm2.75 -6.0625q-0.046875 -0.59375 -0.34375 -1.1875q-0.296875 -0.609375 -0.9375 -1.015625q-0.640625 -0.40625 -1.609375 -0.40625q-1.125 0 -1.90625 0.71875q-0.765625 0.71875 -1.015625 1.890625l5.8125 0zm7.9097137 6.0625q-1.40625 0 -2.53125 -0.671875q-1.109375 -0.671875 -1.734375 -1.828125q-0.625 -1.15625 -0.625 -2.546875q0 -1.40625 0.625 -2.5625q0.625 -1.15625 1.734375 -1.828125q1.125 -0.671875 2.53125 -0.671875q1.390625 0 2.515625 0.671875q1.125 0.671875 1.75 1.828125q0.625 1.15625 0.625 2.5625q0 1.390625 -0.625 2.546875q-0.625 1.15625 -1.75 1.828125q-1.125 0.671875 -2.515625 0.671875zm0 -1.4375q0.875 0 1.625 -0.4375q0.765625 -0.4375 1.21875 -1.25q0.453125 -0.828125 0.453125 -1.921875q0 -1.109375 -0.453125 -1.921875q-0.453125 -0.828125 -1.21875 -1.265625q-0.75 -0.4375 -1.625 -0.4375q-0.875 0 -1.640625 0.4375q-0.765625 0.4375 -1.234375 1.265625q-0.453125 0.8125 -0.453125 1.921875q0 1.09375 0.453125 1.921875q0.46875 0.8125 1.234375 1.25q0.765625 0.4375 1.640625 0.4375zm10.181625 1.4375q-1.71875 0 -2.625 -1.0q-0.90625 -1.015625 -0.90625 -2.828125l0 -5.984375l1.59375 0l0 5.75q0 1.359375 0.609375 2.0q0.625 0.625 1.671875 0.625q0.796875 0 1.421875 -0.421875q0.625 -0.4375 0.96875 -1.125q0.34375 -0.6875 0.34375 -1.453125l0 -5.375l1.59375 0l0 9.515625l-1.515625 0l0 -1.375l-0.078125 0q-0.390625 0.703125 -1.25 1.1875q-0.859375 0.484375 -1.828125 0.484375zm10.669281 -0.140625q-0.578125 0 -1.078125 -0.1875q-0.484375 -0.1875 -0.828125 -0.515625q-0.359375 -0.34375 -0.546875 -0.8125q-0.1875 -0.46875 -0.1875 -1.140625l0 -5.578125l-1.671875 0l0 -1.4375l1.671875 0l0 -2.6875l1.578125 0l0 2.6875l2.3125 0l0 1.4375l-2.3125 0l0 5.1875q0 0.78125 0.296875 1.15625q0.359375 0.40625 1.03125 0.40625q0.546875 0 1.046875 -0.3125l0 1.546875q-0.28125 0.125 -0.578125 0.1875q-0.28125 0.0625 -0.734375 0.0625zm2.953186 1.390625l0.984375 -1.546875q-0.328125 -0.0625 -0.59375 -0.359375q-0.265625 -0.296875 -0.265625 -0.71875q0 -0.484375 0.34375 -0.828125q0.34375 -0.34375 0.859375 -0.34375q0.5 0 0.84375 0.34375q0.34375 0.34375 0.34375 0.828125q0 0.3125 -0.140625 0.609375q-0.125 0.28125 -0.375 0.65625l-1.234375 1.859375l-0.765625 -0.5zm3.5430298 -1.546875l0 0z" fill-rule="nonzero"/><path fill="#ffffff" d="m70.2769 131.81004q-1.53125 0 -2.5625 -0.71875q-1.015625 -0.71875 -1.453125 -1.828125l1.421875 -0.640625q0.34375 0.859375 1.046875 1.328125q0.703125 0.46875 1.546875 0.46875q0.890625 0 1.515625 -0.359375q0.640625 -0.375 0.640625 -1.046875q0 -0.59375 -0.5 -0.953125q-0.5 -0.37499237 -1.578125 -0.6249924l-1.15625 -0.3125q-1.140625 -0.28125 -1.875 -0.9375q-0.71875 -0.671875 -0.71875 -1.75q0 -0.8125 0.484375 -1.4375q0.5 -0.625 1.3125 -0.953125q0.828125 -0.34375 1.78125 -0.34375q1.25 0 2.21875 0.546875q0.984375 0.53125 1.390625 1.5l-1.375 0.640625q-0.640625 -1.265625 -2.25 -1.265625q-0.796875 0 -1.390625 0.359375q-0.578125 0.359375 -0.578125 0.921875q0 0.53125 0.40625 0.859375q0.421875 0.3125 1.234375 0.515625l1.390625 0.359375q1.390625 0.359375 2.09375 1.0625q0.71875 0.6875 0.71875 1.7031174q0 0.875 -0.515625 1.546875q-0.5 0.65625 -1.359375 1.015625q-0.84375 0.34375 -1.890625 0.34375zm9.730652 0q-1.359375 0 -2.4375 -0.640625q-1.078125 -0.65625 -1.6875 -1.796875q-0.609375 -1.15625 -0.609375 -2.5937424q0 -1.390625 0.5625 -2.546875q0.578125 -1.15625 1.625 -1.84375q1.046875 -0.6875 2.421875 -0.6875q1.390625 0 2.421875 0.625q1.03125 0.625 1.578125 1.734375q0.546875 1.09375 0.546875 2.515625q0 0.265625 -0.046875 0.484375l-7.53125 0q0.0625 1.0781174 0.53125 1.8281174q0.46875 0.734375 1.1875 1.109375q0.71875 0.375 1.5 0.375q1.828125 0 2.8125 -1.71875l1.34375 0.65625q-0.609375 1.15625 -1.671875 1.828125q-1.046875 0.671875 -2.546875 0.671875zm2.75 -6.0624924q-0.046875 -0.59375 -0.34375 -1.1875q-0.296875 -0.609375 -0.9375 -1.015625q-0.640625 -0.40625 -1.609375 -0.40625q-1.125 0 -1.90625 0.71875q-0.765625 0.71875 -1.015625 1.890625l5.8125 0zm7.1753387 5.9218674q-0.578125 0 -1.078125 -0.1875q-0.484375 -0.1875 -0.828125 -0.515625q-0.359375 -0.34375 -0.546875 -0.8125q-0.1875 -0.46875 -0.1875 -1.140625l0 -5.5781174l-1.671875 0l0 -1.4375l1.671875 0l0 -2.6875l1.578125 0l0 2.6875l2.3125 0l0 1.4375l-2.3125 0l0 5.1874924q0 0.78125 0.296875 1.15625q0.359375 0.40625 1.03125 0.40625q0.546875 0 1.046875 -0.3125l0 1.546875q-0.28125 0.125 -0.578125 0.1875q-0.28125 0.0625 -0.734375 0.0625zm3.500061 -13.515617l1.5625 0l0 13.359367l-1.5625 0l0 -13.359367zm4.223999 3.84375l1.515625 0l0 1.40625l0.078125 0q0.40625 -0.734375 1.21875 -1.21875q0.828125 -0.484375 1.75 -0.484375q1.03125 0 1.8125 0.5q0.78125 0.5 1.109375 1.34375q0.5 -0.84375 1.328125 -1.34375q0.84375 -0.5 1.9375 -0.5q1.640625 0 2.46875 1.0q0.828125 1.0 0.828125 2.71875l0 6.0937424l-1.5625 0l0 -5.8593674q0 -1.328125 -0.546875 -1.921875q-0.53125 -0.59375 -1.59375 -0.59375q-0.71875 0 -1.296875 0.40625q-0.578125 0.40625 -0.90625 1.109375q-0.3125 0.6875 -0.3125 1.484375l0 5.3749924l-1.59375 0l0 -5.8437424q0 -1.34375 -0.546875 -1.9375q-0.53125 -0.59375 -1.578125 -0.59375q-0.703125 0 -1.28125 0.421875q-0.578125 0.421875 -0.90625 1.125q-0.328125 0.6875 -0.328125 1.5l0 5.3281174l-1.59375 0l0 -9.515617zm16.324219 0l1.515625 0l0 1.40625l0.078125 0q0.40625 -0.734375 1.21875 -1.21875q0.828125 -0.484375 1.75 -0.484375q1.03125 0 1.8125 0.5q0.78125 0.5 1.109375 1.34375q0.5 -0.84375 1.328125 -1.34375q0.84375 -0.5 1.9375 -0.5q1.640625 0 2.46875 1.0q0.828125 1.0 0.828125 2.71875l0 6.0937424l-1.5625 0l0 -5.8593674q0 -1.328125 -0.546875 -1.921875q-0.53125 -0.59375 -1.59375 -0.59375q-0.71875 0 -1.296875 0.40625q-0.578125 0.40625 -0.90625 1.109375q-0.3125 0.6875 -0.3125 1.484375l0 5.3749924l-1.59375 0l0 -5.8437424q0 -1.34375 -0.546875 -1.9375q-0.53125 -0.59375 -1.578125 -0.59375q-0.703125 0 -1.28125 0.421875q-0.578125 0.421875 -0.90625 1.125q-0.328125 0.6875 -0.328125 1.5l0 5.3281174l-1.59375 0l0 -9.515617zm20.558594 9.812492q-1.359375 0 -2.4375 -0.640625q-1.078125 -0.65625 -1.6875 -1.796875q-0.609375 -1.15625 -0.609375 -2.5937424q0 -1.390625 0.5625 -2.546875q0.578125 -1.15625 1.625 -1.84375q1.046875 -0.6875 2.421875 -0.6875q1.390625 0 2.421875 0.625q1.03125 0.625 1.578125 1.734375q0.546875 1.09375 0.546875 2.515625q0 0.265625 -0.046875 0.484375l-7.53125 0q0.0625 1.0781174 0.53125 1.8281174q0.46875 0.734375 1.1875 1.109375q0.71875 0.375 1.5 0.375q1.828125 0 2.8125 -1.71875l1.34375 0.65625q-0.609375 1.15625 -1.671875 1.828125q-1.046875 0.671875 -2.546875 0.671875zm2.75 -6.0624924q-0.046875 -0.59375 -0.34375 -1.1875q-0.296875 -0.609375 -0.9375 -1.015625q-0.640625 -0.40625 -1.609375 -0.40625q-1.125 0 -1.90625 0.71875q-0.765625 0.71875 -1.015625 1.890625l5.8125 0zm7.5503387 6.0624924q-1.265625 0 -2.3125 -0.640625q-1.03125 -0.65625 -1.625 -1.796875q-0.59375 -1.15625 -0.59375 -2.6093674q0 -1.4375 0.59375 -2.59375q0.59375 -1.15625 1.625 -1.8125q1.046875 -0.65625 2.3125 -0.65625q1.109375 0 1.953125 0.5q0.859375 0.484375 1.3125 1.21875l0.078125 0l-0.078125 -1.328125l0 -3.9375l1.59375 0l0 13.359367l-1.515625 0l0 -1.40625l-0.078125 0q-0.453125 0.71875 -1.3125 1.21875q-0.84375 0.484375 -1.953125 0.484375zm0.1875 -1.4375q0.84375 0 1.5625 -0.4375q0.71875 -0.453125 1.15625 -1.265625q0.4375 -0.8281174 0.4375 -1.9062424q0 -1.09375 -0.4375 -1.90625q-0.4375 -0.828125 -1.15625 -1.265625q-0.71875 -0.453125 -1.5625 -0.453125q-0.8125 0 -1.546875 0.453125q-0.734375 0.4375 -1.171875 1.265625q-0.4375 0.828125 -0.4375 1.90625q0 1.0625 0.4375 1.8906174q0.4375 0.828125 1.171875 1.28125q0.734375 0.4375 1.546875 0.4375zm7.949814 -10.124992q-0.46875 0 -0.8125 -0.328125q-0.328125 -0.34375 -0.328125 -0.8125q0 -0.46875 0.328125 -0.796875q0.34375 -0.328125 0.8125 -0.328125q0.46875 0 0.796875 0.328125q0.34375 0.328125 0.34375 0.796875q0 0.46875 -0.328125 0.8125q-0.328125 0.328125 -0.8125 0.328125zm-0.78125 1.75l1.5625 0l0 9.515617l-1.5625 0l0 -9.515617zm7.1069336 9.812492q-1.046875 0 -1.875 -0.40625q-0.8125 -0.40625 -1.265625 -1.125q-0.4375 -0.71875 -0.4375 -1.640625q0 -1.5156174 1.125 -2.3593674q1.140625 -0.84375 2.875 -0.84375q0.859375 0 1.59375 0.1875q0.75 0.1875 1.140625 0.421875l0 -0.578125q0 -1.0625 -0.75 -1.703125q-0.75 -0.640625 -1.890625 -0.640625q-0.796875 0 -1.46875 0.34375q-0.671875 0.34375 -1.0625 0.953125l-1.203125 -0.890625q0.5625 -0.859375 1.546875 -1.34375q0.984375 -0.484375 2.171875 -0.484375q1.9375 0 3.046875 1.015625q1.109375 1.015625 1.109375 2.765625l0 6.0312424l-1.5 0l0 -1.359375l-0.078125 0q-0.40625 0.6875 -1.234375 1.171875q-0.8125 0.484375 -1.84375 0.484375zm0.140625 -1.390625q0.8125 0 1.5 -0.40625q0.6875 -0.421875 1.09375 -1.109375q0.421875 -0.6875 0.421875 -1.5156174q-0.453125 -0.296875 -1.109375 -0.484375q-0.65625 -0.1875 -1.375 -0.1875q-1.3125 0 -1.984375 0.546875q-0.65625 0.53125 -0.65625 1.3906174q0 0.78125 0.59375 1.28125q0.609375 0.484375 1.515625 0.484375zm10.375214 1.25q-0.578125 0 -1.078125 -0.1875q-0.484375 -0.1875 -0.828125 -0.515625q-0.359375 -0.34375 -0.546875 -0.8125q-0.1875 -0.46875 -0.1875 -1.140625l0 -5.5781174l-1.671875 0l0 -1.4375l1.671875 0l0 -2.6875l1.578125 0l0 2.6875l2.3125 0l0 1.4375l-2.3125 0l0 5.1874924q0 0.78125 0.296875 1.15625q0.359375 0.40625 1.03125 0.40625q0.546875 0 1.046875 -0.3125l0 1.546875q-0.28125 0.125 -0.578125 0.1875q-0.28125 0.0625 -0.734375 0.0625zm7.406311 0.140625q-1.359375 0 -2.4375 -0.640625q-1.078125 -0.65625 -1.6875 -1.796875q-0.609375 -1.15625 -0.609375 -2.5937424q0 -1.390625 0.5625 -2.546875q0.578125 -1.15625 1.625 -1.84375q1.046875 -0.6875 2.421875 -0.6875q1.390625 0 2.421875 0.625q1.03125 0.625 1.578125 1.734375q0.546875 1.09375 0.546875 2.515625q0 0.265625 -0.046875 0.484375l-7.53125 0q0.0625 1.0781174 0.53125 1.8281174q0.46875 0.734375 1.1875 1.109375q0.71875 0.375 1.5 0.375q1.828125 0 2.8125 -1.71875l1.34375 0.65625q-0.609375 1.15625 -1.671875 1.828125q-1.046875 0.671875 -2.546875 0.671875zm2.75 -6.0624924q-0.046875 -0.59375 -0.34375 -1.1875q-0.296875 -0.609375 -0.9375 -1.015625q-0.640625 -0.40625 -1.609375 -0.40625q-1.125 0 -1.90625 0.71875q-0.765625 0.71875 -1.015625 1.890625l5.8125 0z" fill-rule="nonzero"/><path fill="#674ea7" d="m58.430447 164.14174l114.80315 0l29.16536 29.165344l-29.16536 29.16536l-114.80315 0l29.165356 -29.16536z" fill-rule="evenodd"/><path stroke="#351c75" stroke-width="1.0" stroke-linejoin="round" stroke-linecap="butt" d="m58.430447 164.14174l114.80315 0l29.16536 29.165344l-29.16536 29.16536l-114.80315 0l29.165356 -29.16536z" fill-rule="evenodd"/><path fill="#000000" fill-opacity="0.0" d="m80.7769 160.38583l143.9685 0l0 54.488174l-143.9685 0z" fill-rule="evenodd"/><path fill="#ffffff" d="m93.99565 187.6027q-1.046875 0 -1.875 -0.40625q-0.8125 -0.40625 -1.265625 -1.125q-0.4375 -0.71875 -0.4375 -1.640625q0 -1.515625 1.125 -2.359375q1.140625 -0.84375 2.875 -0.84375q0.859375 0 1.59375 0.1875q0.75 0.1875 1.140625 0.421875l0 -0.578125q0 -1.0625 -0.75 -1.703125q-0.75 -0.640625 -1.890625 -0.640625q-0.796875 0 -1.46875 0.34375q-0.671875 0.34375 -1.0625 0.953125l-1.203125 -0.890625q0.5625 -0.859375 1.546875 -1.34375q0.984375 -0.484375 2.171875 -0.484375q1.9375 0 3.046875 1.015625q1.109375 1.015625 1.109375 2.765625l0 6.03125l-1.5 0l0 -1.359375l-0.078125 0q-0.40625 0.6875 -1.234375 1.171875q-0.8125 0.484375 -1.84375 0.484375zm0.140625 -1.390625q0.8125 0 1.5 -0.40625q0.6875 -0.421875 1.09375 -1.109375q0.421875 -0.6875 0.421875 -1.515625q-0.453125 -0.296875 -1.109375 -0.484375q-0.65625 -0.1875 -1.375 -0.1875q-1.3125 0 -1.984375 0.546875q-0.65625 0.53125 -0.65625 1.390625q0 0.78125 0.59375 1.28125q0.609375 0.484375 1.515625 0.484375zm5.6720886 -8.421875l1.625 0l2.28125 7.515625l0.015625 0l2.390625 -7.515625l1.640625 0l2.40625 7.5l0.015625 0l2.265625 -7.5l1.59375 0l-3.078125 9.515625l-1.59375 0l-2.46875 -7.59375l-2.4375 7.59375l-1.59375 0l-3.0625 -9.515625zm18.58966 9.8125q-1.046875 0 -1.875 -0.40625q-0.8125 -0.40625 -1.265625 -1.125q-0.4375 -0.71875 -0.4375 -1.640625q0 -1.515625 1.125 -2.359375q1.140625 -0.84375 2.875 -0.84375q0.859375 0 1.59375 0.1875q0.75 0.1875 1.140625 0.421875l0 -0.578125q0 -1.0625 -0.75 -1.703125q-0.75 -0.640625 -1.890625 -0.640625q-0.796875 0 -1.46875 0.34375q-0.671875 0.34375 -1.0625 0.953125l-1.203125 -0.890625q0.5625 -0.859375 1.546875 -1.34375q0.984375 -0.484375 2.171875 -0.484375q1.9375 0 3.046875 1.015625q1.109375 1.015625 1.109375 2.765625l0 6.03125l-1.5 0l0 -1.359375l-0.078125 0q-0.40625 0.6875 -1.234375 1.171875q-0.8125 0.484375 -1.84375 0.484375zm0.140625 -1.390625q0.8125 0 1.5 -0.40625q0.6875 -0.421875 1.09375 -1.109375q0.421875 -0.6875 0.421875 -1.515625q-0.453125 -0.296875 -1.109375 -0.484375q-0.65625 -0.1875 -1.375 -0.1875q-1.3125 0 -1.984375 0.546875q-0.65625 0.53125 -0.65625 1.390625q0 0.78125 0.59375 1.28125q0.609375 0.484375 1.515625 0.484375zm7.6564636 -10.171875q-0.46875 0 -0.8125 -0.328125q-0.328125 -0.34375 -0.328125 -0.8125q0 -0.46875 0.328125 -0.796875q0.34375 -0.328125 0.8125 -0.328125q0.46875 0 0.796875 0.328125q0.34375 0.328125 0.34375 0.796875q0 0.46875 -0.328125 0.8125q-0.328125 0.328125 -0.8125 0.328125zm-0.78125 1.75l1.5625 0l0 9.515625l-1.5625 0l0 -9.515625zm7.7163086 9.671875q-0.578125 0 -1.078125 -0.1875q-0.484375 -0.1875 -0.828125 -0.515625q-0.359375 -0.34375 -0.546875 -0.8125q-0.1875 -0.46875 -0.1875 -1.140625l0 -5.578125l-1.671875 0l0 -1.4375l1.671875 0l0 -2.6875l1.578125 0l0 2.6875l2.3125 0l0 1.4375l-2.3125 0l0 5.1875q0 0.78125 0.296875 1.15625q0.359375 0.40625 1.03125 0.40625q0.546875 0 1.046875 -0.3125l0 1.546875q-0.28125 0.125 -0.578125 0.1875q-0.28125 0.0625 -0.734375 0.0625zm2.953186 1.390625l0.984375 -1.546875q-0.328125 -0.0625 -0.59375 -0.359375q-0.265625 -0.296875 -0.265625 -0.71875q0 -0.484375 0.34375 -0.828125q0.34375 -0.34375 0.859375 -0.34375q0.5 0 0.84375 0.34375q0.34375 0.34375 0.34375 0.828125q0 0.3125 -0.140625 0.609375q-0.125 0.28125 -0.375 0.65625l-1.234375 1.859375l-0.765625 -0.5zm3.5430298 -1.546875l0 0z" fill-rule="nonzero"/><path fill="#ffffff" d="m90.87065 199.7902l1.515625 0l0 1.421875l0.078125 0q0.421875 -0.734375 1.28125 -1.21875q0.875 -0.5 1.96875 -0.5q1.265625 0 2.3125 0.65625q1.046875 0.65625 1.640625 1.8125q0.59375 1.15625 0.59375 2.59375q0 1.453125 -0.59375 2.609375q-0.59375 1.140625 -1.640625 1.796875q-1.046875 0.640625 -2.3125 0.640625q-1.09375 0 -1.96875 -0.484375q-0.859375 -0.5 -1.28125 -1.21875l-0.078125 0l0.078125 1.3125l0 4.125l-1.59375 0l0 -13.546875zm4.65625 8.375q0.8125 0 1.53125 -0.4375q0.734375 -0.453125 1.171875 -1.28125q0.453125 -0.828125 0.453125 -1.890625q0 -1.078125 -0.453125 -1.90625q-0.4375 -0.828125 -1.171875 -1.265625q-0.71875 -0.453125 -1.53125 -0.453125q-0.828125 0 -1.5625 0.453125q-0.71875 0.4375 -1.15625 1.265625q-0.421875 0.8125 -0.421875 1.90625q0 1.078125 0.421875 1.90625q0.4375 0.8125 1.15625 1.265625q0.734375 0.4375 1.5625 0.4375zm6.578308 -8.375l1.515625 0l0 1.53125l0.078125 0q0.28125 -0.78125 1.078125 -1.296875q0.796875 -0.515625 1.671875 -0.515625q0.65625 0 1.125 0.1875l0 1.71875q-0.59375 -0.296875 -1.34375 -0.296875q-0.6875 0 -1.265625 0.390625q-0.578125 0.390625 -0.921875 1.0625q-0.34375 0.65625 -0.34375 1.421875l0 5.3125l-1.59375 0l0 -9.515625zm11.386719 9.8125q-1.40625 0 -2.53125 -0.671875q-1.109375 -0.671875 -1.734375 -1.828125q-0.625 -1.15625 -0.625 -2.546875q0 -1.40625 0.625 -2.5625q0.625 -1.15625 1.734375 -1.828125q1.125 -0.671875 2.53125 -0.671875q1.390625 0 2.515625 0.671875q1.125 0.671875 1.75 1.828125q0.625 1.15625 0.625 2.5625q0 1.390625 -0.625 2.546875q-0.625 1.15625 -1.75 1.828125q-1.125 0.671875 -2.515625 0.671875zm0 -1.4375q0.875 0 1.625 -0.4375q0.765625 -0.4375 1.21875 -1.25q0.453125 -0.828125 0.453125 -1.921875q0 -1.109375 -0.453125 -1.921875q-0.453125 -0.828125 -1.21875 -1.265625q-0.75 -0.4375 -1.625 -0.4375q-0.875 0 -1.640625 0.4375q-0.765625 0.4375 -1.234375 1.265625q-0.453125 0.8125 -0.453125 1.921875q0 1.09375 0.453125 1.921875q0.46875 0.8125 1.234375 1.25q0.765625 0.4375 1.640625 0.4375zm6.7285004 -8.375l1.515625 0l0 1.40625l0.078125 0q0.40625 -0.734375 1.21875 -1.21875q0.828125 -0.484375 1.75 -0.484375q1.03125 0 1.8125 0.5q0.78125 0.5 1.109375 1.34375q0.5 -0.84375 1.328125 -1.34375q0.84375 -0.5 1.9375 -0.5q1.640625 0 2.46875 1.0q0.828125 1.0 0.828125 2.71875l0 6.09375l-1.5625 0l0 -5.859375q0 -1.328125 -0.546875 -1.921875q-0.53125 -0.59375 -1.59375 -0.59375q-0.71875 0 -1.296875 0.40625q-0.578125 0.40625 -0.90625 1.109375q-0.3125 0.6875 -0.3125 1.484375l0 5.375l-1.59375 0l0 -5.84375q0 -1.34375 -0.546875 -1.9375q-0.53125 -0.59375 -1.578125 -0.59375q-0.703125 0 -1.28125 0.421875q-0.578125 0.421875 -0.90625 1.125q-0.328125 0.6875 -0.328125 1.5l0 5.328125l-1.59375 0l0 -9.515625zm17.261719 -1.75q-0.46875 0 -0.8125 -0.328125q-0.328125 -0.34375 -0.328125 -0.8125q0 -0.46875 0.328125 -0.796875q0.34375 -0.328125 0.8125 -0.328125q0.46875 0 0.796875 0.328125q0.34375 0.328125 0.34375 0.796875q0 0.46875 -0.328125 0.8125q-0.328125 0.328125 -0.8125 0.328125zm-0.78125 1.75l1.5625 0l0 9.515625l-1.5625 0l0 -9.515625zm7.3881836 9.8125q-1.53125 0 -2.5625 -0.71875q-1.015625 -0.71875 -1.453125 -1.828125l1.421875 -0.640625q0.34375 0.859375 1.046875 1.328125q0.703125 0.46875 1.546875 0.46875q0.890625 0 1.515625 -0.359375q0.640625 -0.375 0.640625 -1.046875q0 -0.59375 -0.5 -0.953125q-0.5 -0.375 -1.578125 -0.625l-1.15625 -0.3125q-1.140625 -0.28125 -1.875 -0.9375q-0.71875 -0.671875 -0.71875 -1.75q0 -0.8125 0.484375 -1.4375q0.5 -0.625 1.3125 -0.953125q0.828125 -0.34375 1.78125 -0.34375q1.25 0 2.21875 0.546875q0.984375 0.53125 1.390625 1.5l-1.375 0.640625q-0.640625 -1.265625 -2.25 -1.265625q-0.796875 0 -1.390625 0.359375q-0.578125 0.359375 -0.578125 0.921875q0 0.53125 0.40625 0.859375q0.421875 0.3125 1.234375 0.515625l1.390625 0.359375q1.390625 0.359375 2.09375 1.0625q0.71875 0.6875 0.71875 1.703125q0 0.875 -0.515625 1.546875q-0.5 0.65625 -1.359375 1.015625q-0.84375 0.34375 -1.890625 0.34375zm9.730652 0q-1.359375 0 -2.4375 -0.640625q-1.078125 -0.65625 -1.6875 -1.796875q-0.609375 -1.15625 -0.609375 -2.59375q0 -1.390625 0.5625 -2.546875q0.578125 -1.15625 1.625 -1.84375q1.046875 -0.6875 2.421875 -0.6875q1.390625 0 2.421875 0.625q1.03125 0.625 1.578125 1.734375q0.546875 1.09375 0.546875 2.515625q0 0.265625 -0.046875 0.484375l-7.53125 0q0.0625 1.078125 0.53125 1.828125q0.46875 0.734375 1.1875 1.109375q0.71875 0.375 1.5 0.375q1.828125 0 2.8125 -1.71875l1.34375 0.65625q-0.609375 1.15625 -1.671875 1.828125q-1.046875 0.671875 -2.546875 0.671875zm2.75 -6.0625q-0.046875 -0.59375 -0.34375 -1.1875q-0.296875 -0.609375 -0.9375 -1.015625q-0.640625 -0.40625 -1.609375 -0.40625q-1.125 0 -1.90625 0.71875q-0.765625 0.71875 -1.015625 1.890625l5.8125 0zm6.8472137 6.0625q-1.53125 0 -2.5625 -0.71875q-1.015625 -0.71875 -1.453125 -1.828125l1.421875 -0.640625q0.34375 0.859375 1.046875 1.328125q0.703125 0.46875 1.546875 0.46875q0.890625 0 1.515625 -0.359375q0.640625 -0.375 0.640625 -1.046875q0 -0.59375 -0.5 -0.953125q-0.5 -0.375 -1.578125 -0.625l-1.15625 -0.3125q-1.140625 -0.28125 -1.875 -0.9375q-0.71875 -0.671875 -0.71875 -1.75q0 -0.8125 0.484375 -1.4375q0.5 -0.625 1.3125 -0.953125q0.828125 -0.34375 1.78125 -0.34375q1.25 0 2.21875 0.546875q0.984375 0.53125 1.390625 1.5l-1.375 0.640625q-0.640625 -1.265625 -2.25 -1.265625q-0.796875 0 -1.390625 0.359375q-0.578125 0.359375 -0.578125 0.921875q0 0.53125 0.40625 0.859375q0.421875 0.3125 1.234375 0.515625l1.390625 0.359375q1.390625 0.359375 2.09375 1.0625q0.71875 0.6875 0.71875 1.703125q0 0.875 -0.515625 1.546875q-0.5 0.65625 -1.359375 1.015625q-0.84375 0.34375 -1.890625 0.34375z" fill-rule="nonzero"/><path fill="#000000" fill-opacity="0.0" d="m448.05774 23.774279l134.17322 0l0 35.779526l-134.17322 0z" fill-rule="evenodd"/><path fill="#444444" d="m464.01086 56.204903q-1.75 0 -3.140625 -0.84375q-1.390625 -0.84375 -2.171875 -2.3125q-0.78125 -1.484375 -0.78125 -3.328125q0 -1.78125 0.734375 -3.265625q0.734375 -1.484375 2.078125 -2.375q1.34375 -0.890625 3.125 -0.890625q1.796875 0 3.109375 0.8125q1.328125 0.796875 2.03125 2.21875q0.703125 1.40625 0.703125 3.234375q0 0.359375 -0.0625 0.625l-9.671875 0q0.0625 1.390625 0.65625 2.359375q0.609375 0.953125 1.53125 1.4375q0.9375 0.46875 1.9375 0.46875q2.359375 0 3.625 -2.203125l1.734375 0.84375q-0.796875 1.484375 -2.15625 2.359375q-1.359375 0.859375 -3.28125 0.859375zm3.53125 -7.8125q-0.046875 -0.765625 -0.4375 -1.53125q-0.375 -0.765625 -1.203125 -1.296875q-0.828125 -0.53125 -2.078125 -0.53125q-1.4375 0 -2.4375 0.9375q-0.984375 0.921875 -1.296875 2.421875l7.453125 0zm3.199463 -4.8125l2.1875 0l3.78125 9.828125l0.046875 0l3.84375 -9.828125l2.140625 0l-5.0 12.234375l-2.0625 0l-4.9375 -12.234375zm19.117218 12.625q-1.75 0 -3.140625 -0.84375q-1.390625 -0.84375 -2.171875 -2.3125q-0.78125 -1.484375 -0.78125 -3.328125q0 -1.78125 0.734375 -3.265625q0.734375 -1.484375 2.078125 -2.375q1.34375 -0.890625 3.125 -0.890625q1.796875 0 3.109375 0.8125q1.328125 0.796875 2.03125 2.21875q0.703125 1.40625 0.703125 3.234375q0 0.359375 -0.0625 0.625l-9.671875 0q0.0625 1.390625 0.65625 2.359375q0.609375 0.953125 1.53125 1.4375q0.9375 0.46875 1.9375 0.46875q2.359375 0 3.625 -2.203125l1.734375 0.84375q-0.796875 1.484375 -2.15625 2.359375q-1.359375 0.859375 -3.28125 0.859375zm3.53125 -7.8125q-0.046875 -0.765625 -0.4375 -1.53125q-0.375 -0.765625 -1.203125 -1.296875q-0.828125 -0.53125 -2.078125 -0.53125q-1.4375 0 -2.4375 0.9375q-0.984375 0.921875 -1.296875 2.421875l7.453125 0zm4.543213 -4.8125l1.9375 0l0 1.796875l0.09375 0q0.515625 -0.921875 1.609375 -1.546875q1.109375 -0.640625 2.359375 -0.640625q2.203125 0 3.359375 1.28125q1.171875 1.28125 1.171875 3.5l0 7.84375l-2.03125 0l0 -7.53125q0 -1.703125 -0.828125 -2.46875q-0.8125 -0.78125 -2.234375 -0.78125q-0.984375 0 -1.765625 0.5625q-0.765625 0.546875 -1.203125 1.453125q-0.4375 0.890625 -0.4375 1.875l0 6.890625l-2.03125 0l0 -12.234375zm18.167084 12.421875q-0.75 0 -1.390625 -0.234375q-0.625 -0.234375 -1.0625 -0.65625q-0.484375 -0.453125 -0.71875 -1.046875q-0.234375 -0.609375 -0.234375 -1.46875l0 -7.171875l-2.140625 0l0 -1.84375l2.140625 0l0 -3.46875l2.03125 0l0 3.46875l2.984375 0l0 1.84375l-2.984375 0l0 6.671875q0 1.0 0.390625 1.484375q0.453125 0.53125 1.3125 0.53125q0.703125 0 1.34375 -0.40625l0 1.984375q-0.359375 0.171875 -0.734375 0.234375q-0.359375 0.078125 -0.9375 0.078125zm2.5652466 -0.1875l0 0zm7.083618 -17.1875l2.03125 0l0 17.1875l-2.03125 0l0 -17.1875zm10.70459 17.578125q-1.796875 0 -3.25 -0.859375q-1.4375 -0.875 -2.25 -2.359375q-0.796875 -1.484375 -0.796875 -3.296875q0 -1.796875 0.796875 -3.28125q0.8125 -1.484375 2.25 -2.34375q1.453125 -0.875 3.25 -0.875q1.796875 0 3.234375 0.875q1.4375 0.859375 2.234375 2.34375q0.8125 1.484375 0.8125 3.28125q0 1.8125 -0.8125 3.296875q-0.796875 1.484375 -2.234375 2.359375q-1.4375 0.859375 -3.234375 0.859375zm0 -1.859375q1.125 0 2.09375 -0.5625q0.96875 -0.5625 1.5625 -1.609375q0.59375 -1.0625 0.59375 -2.484375q0 -1.40625 -0.59375 -2.453125q-0.59375 -1.0625 -1.5625 -1.625q-0.96875 -0.578125 -2.09375 -0.578125q-1.125 0 -2.109375 0.578125q-0.984375 0.5625 -1.578125 1.625q-0.59375 1.046875 -0.59375 2.453125q0 1.421875 0.59375 2.484375q0.59375 1.046875 1.578125 1.609375q0.984375 0.5625 2.109375 0.5625zm14.303955 1.859375q-1.796875 0 -3.25 -0.859375q-1.4375 -0.875 -2.25 -2.359375q-0.796875 -1.484375 -0.796875 -3.296875q0 -1.796875 0.796875 -3.28125q0.8125 -1.484375 2.25 -2.34375q1.453125 -0.875 3.25 -0.875q1.796875 0 3.234375 0.875q1.4375 0.859375 2.234375 2.34375q0.8125 1.484375 0.8125 3.28125q0 1.8125 -0.8125 3.296875q-0.796875 1.484375 -2.234375 2.359375q-1.4375 0.859375 -3.234375 0.859375zm0 -1.859375q1.125 0 2.09375 -0.5625q0.96875 -0.5625 1.5625 -1.609375q0.59375 -1.0625 0.59375 -2.484375q0 -1.40625 -0.59375 -2.453125q-0.59375 -1.0625 -1.5625 -1.625q-0.96875 -0.578125 -2.09375 -0.578125q-1.125 0 -2.109375 0.578125q-0.984375 0.5625 -1.578125 1.625q-0.59375 1.046875 -0.59375 2.453125q0 1.421875 0.59375 2.484375q0.59375 1.046875 1.578125 1.609375q0.984375 0.5625 2.109375 0.5625zm8.56958 -10.765625l1.9375 0l0 1.8125l0.09375 0q0.5625 -0.9375 1.671875 -1.5625q1.109375 -0.640625 2.5 -0.640625q1.640625 0 2.984375 0.84375q1.34375 0.84375 2.109375 2.328125q0.765625 1.484375 0.765625 3.328125q0 1.875 -0.765625 3.359375q-0.765625 1.46875 -2.109375 2.3125q-1.34375 0.84375 -2.984375 0.84375q-1.390625 0 -2.5 -0.640625q-1.109375 -0.640625 -1.671875 -1.546875l-0.09375 0l0.09375 1.671875l0 5.3125l-2.03125 0l0 -17.421875zm5.96875 10.765625q1.0625 0 1.984375 -0.5625q0.9375 -0.578125 1.5 -1.640625q0.578125 -1.078125 0.578125 -2.453125q0 -1.359375 -0.578125 -2.421875q-0.5625 -1.078125 -1.5 -1.65625q-0.921875 -0.578125 -1.984375 -0.578125q-1.046875 0 -1.984375 0.578125q-0.9375 0.578125 -1.5 1.640625q-0.546875 1.046875 -0.546875 2.4375q0 1.390625 0.546875 2.453125q0.5625 1.0625 1.5 1.640625q0.9375 0.5625 1.984375 0.5625z" fill-rule="nonzero"/><path fill="#000000" fill-opacity="0.0" d="m424.9475 221.12862l200.34644 0l0 35.779526l-200.34644 0z" fill-rule="evenodd"/><path fill="#444444" d="m435.46313 240.93423l1.9375 0l0 1.796875l0.09375 0q0.53125 -0.9375 1.578125 -1.5625q1.0625 -0.625 2.25 -0.625q1.34375 0 2.328125 0.65625q1.0 0.640625 1.4375 1.71875q0.640625 -1.078125 1.703125 -1.71875q1.078125 -0.65625 2.5 -0.65625q2.109375 0 3.171875 1.28125q1.0625 1.28125 1.0625 3.5l0 7.84375l-2.015625 0l0 -7.53125q0 -1.703125 -0.703125 -2.46875q-0.6875 -0.78125 -2.046875 -0.78125q-0.921875 0 -1.671875 0.53125q-0.734375 0.53125 -1.15625 1.421875q-0.421875 0.890625 -0.421875 1.921875l0 6.90625l-2.03125 0l0 -7.515625q0 -1.71875 -0.703125 -2.484375q-0.6875 -0.78125 -2.03125 -0.78125q-0.921875 0 -1.671875 0.546875q-0.734375 0.53125 -1.15625 1.4375q-0.421875 0.90625 -0.421875 1.9375l0 6.859375l-2.03125 0l0 -12.234375zm22.203064 -2.265625q-0.609375 0 -1.046875 -0.421875q-0.421875 -0.4375 -0.421875 -1.03125q0 -0.609375 0.421875 -1.03125q0.4375 -0.421875 1.046875 -0.421875q0.59375 0 1.015625 0.421875q0.4375 0.421875 0.4375 1.03125q0 0.59375 -0.421875 1.03125q-0.40625 0.421875 -1.03125 0.421875zm-1.015625 2.265625l2.015625 0l0 12.234375l-2.015625 0l0 -12.234375zm10.783356 12.625q-1.78125 0 -3.203125 -0.84375q-1.40625 -0.859375 -2.203125 -2.328125q-0.796875 -1.484375 -0.796875 -3.34375q0 -1.84375 0.796875 -3.328125q0.796875 -1.484375 2.203125 -2.328125q1.421875 -0.84375 3.203125 -0.84375q1.984375 0 3.34375 0.921875q1.359375 0.921875 1.9375 2.46875l-1.859375 0.765625q-0.453125 -1.125 -1.359375 -1.71875q-0.890625 -0.59375 -2.171875 -0.59375q-1.078125 0 -2.015625 0.59375q-0.921875 0.59375 -1.5 1.65625q-0.5625 1.046875 -0.5625 2.40625q0 1.375 0.5625 2.4375q0.578125 1.046875 1.5 1.640625q0.9375 0.578125 2.015625 0.578125q1.296875 0 2.234375 -0.59375q0.9375 -0.59375 1.390625 -1.703125l1.828125 0.765625q-0.625 1.515625 -2.0 2.453125q-1.375 0.9375 -3.34375 0.9375zm7.557068 -12.625l1.9375 0l0 1.96875l0.09375 0q0.359375 -1.015625 1.390625 -1.671875q1.03125 -0.65625 2.171875 -0.65625q0.828125 0 1.4375 0.234375l0 2.203125q-0.765625 -0.375 -1.734375 -0.375q-0.890625 0 -1.640625 0.5q-0.734375 0.5 -1.1875 1.359375q-0.4375 0.84375 -0.4375 1.828125l0 6.84375l-2.03125 0l0 -12.234375zm14.6405945 12.625q-1.796875 0 -3.25 -0.859375q-1.4375 -0.875 -2.25 -2.359375q-0.796875 -1.484375 -0.796875 -3.296875q0 -1.796875 0.796875 -3.28125q0.8125 -1.484375 2.25 -2.34375q1.453125 -0.875 3.25 -0.875q1.796875 0 3.234375 0.875q1.4375 0.859375 2.234375 2.34375q0.8125 1.484375 0.8125 3.28125q0 1.8125 -0.8125 3.296875q-0.796875 1.484375 -2.234375 2.359375q-1.4375 0.859375 -3.234375 0.859375zm0 -1.859375q1.125 0 2.09375 -0.5625q0.96875 -0.5625 1.5625 -1.609375q0.59375 -1.0625 0.59375 -2.484375q0 -1.40625 -0.59375 -2.453125q-0.59375 -1.0625 -1.5625 -1.625q-0.96875 -0.578125 -2.09375 -0.578125q-1.125 0 -2.109375 0.578125q-0.984375 0.5625 -1.578125 1.625q-0.59375 1.046875 -0.59375 2.453125q0 1.421875 0.59375 2.484375q0.59375 1.046875 1.578125 1.609375q0.984375 0.5625 2.109375 0.5625zm13.366455 1.65625q-0.75 0 -1.390625 -0.234375q-0.625 -0.234375 -1.0625 -0.65625q-0.484375 -0.453125 -0.71875 -1.046875q-0.234375 -0.609375 -0.234375 -1.46875l0 -7.171875l-2.140625 0l0 -1.84375l2.140625 0l0 -3.46875l2.03125 0l0 3.46875l2.984375 0l0 1.84375l-2.984375 0l0 6.671875q0 1.0 0.390625 1.484375q0.453125 0.53125 1.3125 0.53125q0.703125 0 1.34375 -0.40625l0 1.984375q-0.359375 0.171875 -0.734375 0.234375q-0.359375 0.078125 -0.9375 0.078125zm7.9871216 0.203125q-1.34375 0 -2.40625 -0.53125q-1.046875 -0.53125 -1.625 -1.453125q-0.578125 -0.921875 -0.578125 -2.109375q0 -1.9375 1.46875 -3.03125q1.46875 -1.09375 3.6875 -1.09375q1.109375 0 2.046875 0.25q0.953125 0.234375 1.46875 0.546875l0 -0.75q0 -1.359375 -0.96875 -2.1875q-0.953125 -0.828125 -2.421875 -0.828125q-1.03125 0 -1.890625 0.453125q-0.859375 0.4375 -1.375 1.21875l-1.53125 -1.140625q0.71875 -1.109375 1.96875 -1.734375q1.265625 -0.625 2.8125 -0.625q2.484375 0 3.90625 1.3125q1.4375 1.296875 1.4375 3.5625l0 7.75l-1.9375 0l0 -1.75l-0.09375 0q-0.53125 0.890625 -1.59375 1.515625q-1.046875 0.625 -2.375 0.625zm0.1875 -1.8125q1.03125 0 1.921875 -0.515625q0.890625 -0.53125 1.421875 -1.421875q0.53125 -0.890625 0.53125 -1.9375q-0.578125 -0.390625 -1.421875 -0.625q-0.84375 -0.25 -1.78125 -0.25q-1.671875 0 -2.53125 0.703125q-0.84375 0.6875 -0.84375 1.796875q0 1.015625 0.765625 1.640625q0.765625 0.609375 1.9375 0.609375zm12.9158325 1.8125q-1.96875 0 -3.296875 -0.921875q-1.3125 -0.9375 -1.859375 -2.375l1.828125 -0.8125q0.453125 1.109375 1.34375 1.703125q0.90625 0.59375 1.984375 0.59375q1.15625 0 1.96875 -0.46875q0.8125 -0.46875 0.8125 -1.328125q0 -0.765625 -0.65625 -1.234375q-0.640625 -0.46875 -2.03125 -0.796875l-1.484375 -0.390625q-1.46875 -0.359375 -2.40625 -1.21875q-0.921875 -0.875 -0.921875 -2.234375q0 -1.0625 0.625 -1.859375q0.640625 -0.8125 1.6875 -1.234375q1.0625 -0.4375 2.28125 -0.4375q1.609375 0 2.875 0.703125q1.265625 0.6875 1.78125 1.9375l-1.765625 0.8125q-0.8125 -1.625 -2.90625 -1.625q-1.015625 0 -1.765625 0.46875q-0.75 0.46875 -0.75 1.1875q0 0.671875 0.515625 1.09375q0.53125 0.421875 1.59375 0.671875l1.78125 0.46875q1.796875 0.453125 2.703125 1.359375q0.90625 0.890625 0.90625 2.1875q0 1.125 -0.640625 1.984375q-0.640625 0.84375 -1.75 1.3125q-1.109375 0.453125 -2.453125 0.453125zm7.0863037 -17.578125l2.03125 0l0 10.796875l5.765625 -5.84375l2.59375 0l0 0.09375l-4.796875 4.84375l4.921875 7.203125l0 0.09375l-2.4375 0l-3.9375 -5.875l-2.109375 2.109375l0 3.765625l-2.03125 0l0 -17.1875zm10.60437 17.1875l0 0zm16.458618 -0.125l0.09375 -1.671875l-0.09375 0q-0.578125 0.90625 -1.6875 1.546875q-1.09375 0.640625 -2.5 0.640625q-1.640625 0 -2.96875 -0.84375q-1.328125 -0.84375 -2.109375 -2.3125q-0.765625 -1.484375 -0.765625 -3.359375q0 -1.84375 0.765625 -3.328125q0.78125 -1.484375 2.109375 -2.328125q1.328125 -0.84375 2.96875 -0.84375q1.40625 0 2.5 0.640625q1.109375 0.625 1.6875 1.5625l0.09375 0l0 -1.8125l1.953125 0l0 17.421875l-2.046875 0l0 -5.3125zm-3.953125 -1.34375q1.078125 0 2.0 -0.5625q0.921875 -0.578125 1.484375 -1.640625q0.5625 -1.0625 0.5625 -2.453125q0 -1.390625 -0.5625 -2.4375q-0.5625 -1.0625 -1.484375 -1.640625q-0.921875 -0.578125 -2.0 -0.578125q-1.0625 0 -2.0 0.578125q-0.921875 0.578125 -1.5 1.65625q-0.5625 1.0625 -0.5625 2.421875q0 1.375 0.5625 2.453125q0.578125 1.0625 1.5 1.640625q0.9375 0.5625 2.0 0.5625zm13.367554 1.859375q-2.203125 0 -3.375 -1.296875q-1.15625 -1.296875 -1.15625 -3.625l0 -7.703125l2.03125 0l0 7.390625q0 1.75 0.796875 2.5625q0.796875 0.8125 2.140625 0.8125q1.03125 0 1.828125 -0.546875q0.8125 -0.546875 1.25 -1.4375q0.4375 -0.890625 0.4375 -1.875l0 -6.90625l2.046875 0l0 12.234375l-1.9375 0l0 -1.78125l-0.109375 0q-0.5 0.921875 -1.609375 1.546875q-1.09375 0.625 -2.34375 0.625zm14.463989 0q-1.75 0 -3.140625 -0.84375q-1.390625 -0.84375 -2.171875 -2.3125q-0.78125 -1.484375 -0.78125 -3.328125q0 -1.78125 0.734375 -3.265625q0.734375 -1.484375 2.078125 -2.375q1.34375 -0.890625 3.125 -0.890625q1.796875 0 3.109375 0.8125q1.328125 0.796875 2.03125 2.21875q0.703125 1.40625 0.703125 3.234375q0 0.359375 -0.0625 0.625l-9.671875 0q0.0625 1.390625 0.65625 2.359375q0.609375 0.953125 1.53125 1.4375q0.9375 0.46875 1.9375 0.46875q2.359375 0 3.625 -2.203125l1.734375 0.84375q-0.796875 1.484375 -2.15625 2.359375q-1.359375 0.859375 -3.28125 0.859375zm3.53125 -7.8125q-0.046875 -0.765625 -0.4375 -1.53125q-0.375 -0.765625 -1.203125 -1.296875q-0.828125 -0.53125 -2.078125 -0.53125q-1.4375 0 -2.4375 0.9375q-0.984375 0.921875 -1.296875 2.421875l7.453125 0zm8.980713 7.8125q-2.203125 0 -3.375 -1.296875q-1.15625 -1.296875 -1.15625 -3.625l0 -7.703125l2.03125 0l0 7.390625q0 1.75 0.796875 2.5625q0.796875 0.8125 2.140625 0.8125q1.03125 0 1.828125 -0.546875q0.8125 -0.546875 1.25 -1.4375q0.4375 -0.890625 0.4375 -1.875l0 -6.90625l2.046875 0l0 12.234375l-1.9375 0l0 -1.78125l-0.109375 0q-0.5 0.921875 -1.609375 1.546875q-1.09375 0.625 -2.34375 0.625zm14.463928 0q-1.75 0 -3.140625 -0.84375q-1.390625 -0.84375 -2.171875 -2.3125q-0.78125 -1.484375 -0.78125 -3.328125q0 -1.78125 0.734375 -3.265625q0.734375 -1.484375 2.078125 -2.375q1.34375 -0.890625 3.125 -0.890625q1.796875 0 3.109375 0.8125q1.328125 0.796875 2.03125 2.21875q0.703125 1.40625 0.703125 3.234375q0 0.359375 -0.0625 0.625l-9.671875 0q0.0625 1.390625 0.65625 2.359375q0.609375 0.953125 1.53125 1.4375q0.9375 0.46875 1.9375 0.46875q2.359375 0 3.625 -2.203125l1.734375 0.84375q-0.796875 1.484375 -2.15625 2.359375q-1.359375 0.859375 -3.28125 0.859375zm3.53125 -7.8125q-0.046875 -0.765625 -0.4375 -1.53125q-0.375 -0.765625 -1.203125 -1.296875q-0.828125 -0.53125 -2.078125 -0.53125q-1.4375 0 -2.4375 0.9375q-0.984375 0.921875 -1.296875 2.421875l7.453125 0z" fill-rule="nonzero"/><path fill="#3d85c6" d="m276.2756 91.81129l0 0c0 -7.1870956 5.8262634 -13.01339 13.013367 -13.01339l52.05197 0l0 0c3.451355 0 6.761383 1.3710556 9.201843 3.811531c2.4404907 2.440483 3.811554 5.7504883 3.811554 9.2018585l0 52.051964c0 7.1871033 -5.826294 13.013397 -13.013397 13.013397l-52.05197 0c-7.1871033 0 -13.013367 -5.826294 -13.013367 -13.013397z" fill-rule="evenodd"/><path stroke="#0b5394" stroke-width="1.0" stroke-linejoin="round" stroke-linecap="butt" d="m276.2756 91.81129l0 0c0 -7.1870956 5.8262634 -13.01339 13.013367 -13.01339l52.05197 0l0 0c3.451355 0 6.761383 1.3710556 9.201843 3.811531c2.4404907 2.440483 3.811554 5.7504883 3.811554 9.2018585l0 52.051964c0 7.1871033 -5.826294 13.013397 -13.013397 13.013397l-52.05197 0c-7.1871033 0 -13.013367 -5.826294 -13.013367 -13.013397z" fill-rule="evenodd"/><path fill="#3d85c6" d="m559.83466 91.81129l0 0c0 -7.1870956 5.826294 -13.01339 13.013367 -13.01339l52.052002 0l0 0c3.451355 0 6.7613525 1.3710556 9.201843 3.811531c2.4404907 2.440483 3.8115234 5.7504883 3.8115234 9.2018585l0 52.051964c0 7.1871033 -5.826294 13.013397 -13.013367 13.013397l-52.052002 0c-7.1870728 0 -13.013367 -5.826294 -13.013367 -13.013397z" fill-rule="evenodd"/><path stroke="#0b5394" stroke-width="1.0" stroke-linejoin="round" stroke-linecap="butt" d="m559.83466 91.81129l0 0c0 -7.1870956 5.826294 -13.01339 13.013367 -13.01339l52.052002 0l0 0c3.451355 0 6.7613525 1.3710556 9.201843 3.811531c2.4404907 2.440483 3.8115234 5.7504883 3.8115234 9.2018585l0 52.051964c0 7.1871033 -5.826294 13.013397 -13.013367 13.013397l-52.052002 0c-7.1870728 0 -13.013367 -5.826294 -13.013367 -13.013397z" fill-rule="evenodd"/></g></svg>