<svg fill="none" height="497" stroke-linecap="square" stroke-miterlimit="10" width="804" xmlns="http://www.w3.org/2000/svg" xmlns:xlink="http://www.w3.org/1999/xlink"><clipPath id="a"><path d="m93.85 33.35h685.3v381.233h-685.3z"/></clipPath><path d="m0 0h804v497h-804z" fill="#fff"/><g stroke-linecap="butt"><path d="m93.5 414.5h686m-686-127h686m-686-127h686m-686-127h686" stroke="#ccc"/><path d="m93.5 351.5h686m-686-128h686m-686-127h686" stroke="#e6e6e6"/><path d="m179.512 125.366v16m171.325-5.834v16m171.326 161.909v16m171.324 18.311v16m-513.975-92.246v16m171.325 22.123v16m171.326 47.539v16m171.324-3.292v16" stroke="#eee"/><path clip-path="url(#a)" d="m179.512 141.366s114.217-21.18 171.325 10.166c57.109 31.346 114.217 142.54 171.326 177.91 57.108 35.37 171.324 34.31 171.324 34.31" stroke="#e69138" stroke-width="4"/><path clip-path="url(#a)" d="m0-54.797s2.667 2.724 4 4.079a1658.925 1658.925 0 0 0 24 23.893 1626.326 1626.326 0 0 0 24 22.93 1598.125 1598.125 0 0 0 28 25.584 1571.067 1571.067 0 0 0 28 24.384 1548.165 1548.165 0 0 0 36 29.68 1529.697 1529.697 0 0 0 36 27.901 1517.817 1517.817 0 0 0 60 42.84 1516.771 1516.771 0 0 0 48 31.234 1528.538 1528.538 0 0 0 32 19.439 1546.614 1546.614 0 0 0 36 20.63 1567.897 1567.897 0 0 0 28 15.188 1596.186 1596.186 0 0 0 32 16.488 1637.168 1637.168 0 0 0 36 17.498 1676.317 1676.317 0 0 0 32 14.672 1721.6 1721.6 0 0 0 32 13.889 1769 1769 0 0 0 28 11.542 1802.808 1802.808 0 0 0 24 9.462 1848.2 1848.2 0 0 0 24 9.08 1917.21 1917.21 0 0 0 32 11.54 1975.218 1975.218 0 0 0 24 8.248 2032.064 2032.064 0 0 0 28 9.204 2128.246 2128.246 0 0 0 36 11.202 2176.491 2176.491 0 0 0 20 5.931 2289.894 2289.894 0 0 0 40 11.268c1.333.363 4 1.085 4 1.085" stroke="#e69138" stroke-opacity=".302" stroke-width="4"/><path clip-path="url(#a)" d="m179.512 287.506s114.217 21.18 171.325 38.123c57.109 16.944 114.217 50.831 171.326 63.539 57.108 12.708 171.324 12.708 171.324 12.708" stroke="#3d85c6" stroke-width="4"/><path clip-path="url(#a)" d="m0 220.585s2.667 1.076 4 1.612a2497.659 2497.659 0 0 0 48 18.716 2573.882 2573.882 0 0 0 36 13.314 2669.488 2669.488 0 0 0 48 16.84 2731.048 2731.048 0 0 0 28 9.363 2787.145 2787.145 0 0 0 24 7.768 2920.572 2920.572 0 0 0 52 16.046 3014.25 3014.25 0 0 0 32 9.366 3125.745 3125.745 0 0 0 36 10.096 3265.141 3265.141 0 0 0 44 11.734 3417.271 3417.271 0 0 0 48 12.082 3524.185 3524.185 0 0 0 28 6.718 3730.135 3730.135 0 0 0 64 14.495 4024.133 4024.133 0 0 0 76 15.765 4214.449 4214.449 0 0 0 28 5.438 4361.098 4361.098 0 0 0 32 5.985 4555.279 4555.279 0 0 0 36 6.452 4851.736 4851.736 0 0 0 68 11.418 5178.077 5178.077 0 0 0 40 6.274l4 .61" stroke="#3d85c6" stroke-opacity=".302" stroke-width="4"/></g><path clip-path="url(#a)" d="m175.27 137.123h8.485v8.486h-8.485zm171.325 10.167h8.485v8.485h-8.485zm171.325 177.909h8.485v8.485h-8.485zm171.325 34.311h8.485v8.485h-8.485z" fill="#e69138"/><path clip-path="url(#a)" d="m175.27 283.263h8.485v8.485h-8.485zm171.325 38.123h8.485v8.486h-8.485zm171.325 63.539h8.485v8.485h-8.485zm171.325 12.708h8.485v8.485h-8.485z" fill="#3d85c6"/><path d="m164.684 117.772h.938q.906-.015 1.406-.468.516-.454.516-1.235 0-1.75-1.735-1.75-.828 0-1.312.469-.485.469-.485 1.234h-1.265q0-1.187.86-1.968.874-.782 2.202-.782 1.407 0 2.203.75.797.75.797 2.063 0 .656-.422 1.265-.406.61-1.14.907.828.265 1.265.875.454.593.454 1.453 0 1.344-.875 2.14-.875.782-2.282.782-1.39 0-2.28-.75-.876-.766-.876-2.016h1.281q0 .781.5 1.266.516.468 1.375.468.922 0 1.407-.484.484-.484.484-1.375 0-.86-.531-1.328-.532-.469-1.547-.484h-.938zm6.313 4.938q0-.328.187-.547.203-.219.594-.219.39 0 .594.219.203.219.203.547 0 .312-.203.531-.203.203-.594.203-.39 0-.594-.203-.187-.219-.187-.531zm8 .656h-1.266v-8.422l-2.562.922v-1.14l3.625-1.36h.203zm4.422-4.984.515-4.969h5.094v1.172h-4.031l-.297 2.703q.734-.422 1.656-.422 1.36 0 2.156.906.813.891.813 2.422 0 1.531-.844 2.422-.828.89-2.312.89-1.313 0-2.157-.734-.828-.734-.953-2.03h1.203q.11.858.594 1.296.5.437 1.313.437.875 0 1.375-.593.515-.61.515-1.672 0-1-.547-1.594-.546-.61-1.453-.61-.812 0-1.297.36l-.328.266zm7.203 2.734 2.25-2.297-2.235-2.297.813-.828 2.25 2.281 2.25-2.28.813.827-2.25 2.297 2.265 2.297-.812.844-2.266-2.313-2.266 2.313z" stroke="#fff" stroke-linecap="round" stroke-linejoin="round" stroke-width="3"/><path d="m164.684 117.772h.938q.906-.015 1.406-.468.516-.454.516-1.235 0-1.75-1.735-1.75-.828 0-1.312.469-.485.469-.485 1.234h-1.265q0-1.187.86-1.968.874-.782 2.202-.782 1.407 0 2.203.75.797.75.797 2.063 0 .656-.422 1.265-.406.61-1.14.907.828.265 1.265.875.454.593.454 1.453 0 1.344-.875 2.14-.875.782-2.282.782-1.39 0-2.28-.75-.876-.766-.876-2.016h1.281q0 .781.5 1.266.516.468 1.375.468.922 0 1.407-.484.484-.484.484-1.375 0-.86-.531-1.328-.532-.469-1.547-.484h-.938zm6.313 4.938q0-.328.187-.547.203-.219.594-.219.39 0 .594.219.203.219.203.547 0 .312-.203.531-.203.203-.594.203-.39 0-.594-.203-.187-.219-.187-.531zm8 .656h-1.266v-8.422l-2.562.922v-1.14l3.625-1.36h.203zm4.422-4.984.515-4.969h5.094v1.172h-4.031l-.297 2.703q.734-.422 1.656-.422 1.36 0 2.156.906.813.891.813 2.422 0 1.531-.844 2.422-.828.89-2.312.89-1.313 0-2.157-.734-.828-.734-.953-2.03h1.203q.11.858.594 1.296.5.437 1.313.437.875 0 1.375-.593.515-.61.515-1.672 0-1-.547-1.594-.546-.61-1.453-.61-.812 0-1.297.36l-.328.266zm7.203 2.734 2.25-2.297-2.235-2.297.813-.828 2.25 2.281 2.25-2.28.813.827-2.25 2.297 2.265 2.297-.812.844-2.266-2.313-2.266 2.313z" fill="#e69138"/><path d="m336.01 127.939h.937q.906-.016 1.406-.47.516-.452.516-1.234 0-1.75-1.735-1.75-.828 0-1.312.47-.485.468-.485 1.234h-1.265q0-1.188.86-1.97.874-.78 2.202-.78 1.407 0 2.203.75.797.75.797 2.062 0 .656-.422 1.266-.406.61-1.14.906.828.266 1.265.875.454.594.454 1.453 0 1.344-.875 2.14-.875.782-2.282.782-1.39 0-2.28-.75-.876-.766-.876-2.016h1.281q0 .782.5 1.266.516.469 1.375.469.922 0 1.407-.485.484-.484.484-1.375 0-.859-.531-1.328-.532-.469-1.547-.484h-.938v-1.031zm6.312 4.937q0-.328.187-.547.203-.219.594-.219.39 0 .594.22.203.218.203.546 0 .313-.203.531-.203.203-.594.203-.39 0-.594-.203-.187-.218-.187-.53zm10.078-3.594q0 2.22-.766 3.313-.75 1.078-2.359 1.078-1.594 0-2.36-1.047-.765-1.062-.796-3.172v-1.687q0-2.188.75-3.25.765-1.078 2.39-1.078 1.61 0 2.36 1.03.765 1.032.781 3.173zm-1.266-1.718q0-1.61-.453-2.344-.437-.735-1.422-.735-.968 0-1.422.735-.437.719-.453 2.234v2.031q0 1.61.47 2.391.468.766 1.421.766.938 0 1.39-.719.454-.734.47-2.297v-2.062zm9.453-3.282-4.125 9.25h-1.312l4.094-8.922h-5.375v-1.03h6.718zm1.36 7 2.25-2.297-2.235-2.296.813-.829 2.25 2.282 2.25-2.282.813.829-2.25 2.296 2.265 2.297-.812.844-2.266-2.312-2.266 2.312z" stroke="#fff" stroke-linecap="round" stroke-linejoin="round" stroke-width="3"/><path d="m336.01 127.939h.937q.906-.016 1.406-.47.516-.452.516-1.234 0-1.75-1.735-1.75-.828 0-1.312.47-.485.468-.485 1.234h-1.265q0-1.188.86-1.97.874-.78 2.202-.78 1.407 0 2.203.75.797.75.797 2.062 0 .656-.422 1.266-.406.61-1.14.906.828.266 1.265.875.454.594.454 1.453 0 1.344-.875 2.14-.875.782-2.282.782-1.39 0-2.28-.75-.876-.766-.876-2.016h1.281q0 .782.5 1.266.516.469 1.375.469.922 0 1.407-.485.484-.484.484-1.375 0-.859-.531-1.328-.532-.469-1.547-.484h-.938v-1.031zm6.312 4.937q0-.328.187-.547.203-.219.594-.219.39 0 .594.22.203.218.203.546 0 .313-.203.531-.203.203-.594.203-.39 0-.594-.203-.187-.218-.187-.53zm10.078-3.594q0 2.22-.766 3.313-.75 1.078-2.359 1.078-1.594 0-2.36-1.047-.765-1.062-.796-3.172v-1.687q0-2.188.75-3.25.765-1.078 2.39-1.078 1.61 0 2.36 1.03.765 1.032.781 3.173zm-1.266-1.718q0-1.61-.453-2.344-.437-.735-1.422-.735-.968 0-1.422.735-.437.719-.453 2.234v2.031q0 1.61.47 2.391.468.766 1.421.766.938 0 1.39-.719.454-.734.47-2.297v-2.062zm9.453-3.282-4.125 9.25h-1.312l4.094-8.922h-5.375v-1.03h6.718zm1.36 7 2.25-2.297-2.235-2.296.813-.829 2.25 2.282 2.25-2.282.813.829-2.25 2.296 2.265 2.297-.812.844-2.266-2.312-2.266 2.312z" fill="#e69138"/><path d="m509.647 311.441h-1.266v-8.422l-2.562.922v-1.14l3.625-1.36h.203zm4-.656q0-.328.187-.547.204-.219.594-.219t.594.22q.203.218.203.546 0 .312-.203.531-.203.203-.594.203-.39 0-.594-.203-.187-.219-.187-.531zm8.812-9.297v1.063h-.234q-1.484.03-2.36.875-.874.843-1.015 2.39.797-.906 2.156-.906 1.297 0 2.063.922.781.906.781 2.36 0 1.546-.844 2.468-.828.922-2.234.922-1.422 0-2.313-1.094-.89-1.11-.89-2.828v-.484q0-2.75 1.172-4.204 1.172-1.453 3.484-1.484zm-1.671 4.484q-.641 0-1.188.391-.547.375-.766.969v.469q0 1.234.547 1.984.563.75 1.39.75.86 0 1.345-.625.484-.64.484-1.656 0-1.032-.5-1.657-.484-.625-1.313-.625zm11.125-3.78-4.125 9.25h-1.313l4.094-8.923h-5.375v-1.03h6.719v.702zm1.359 7 2.25-2.298-2.235-2.297.813-.828 2.25 2.282 2.25-2.282.813.828-2.25 2.297 2.265 2.297-.812.844-2.266-2.313-2.266 2.313-.812-.844z" stroke="#fff" stroke-linecap="round" stroke-linejoin="round" stroke-width="3"/><path d="m509.647 311.441h-1.266v-8.422l-2.562.922v-1.14l3.625-1.36h.203zm4-.656q0-.328.187-.547.204-.219.594-.219t.594.22q.203.218.203.546 0 .312-.203.531-.203.203-.594.203-.39 0-.594-.203-.187-.219-.187-.531zm8.812-9.297v1.063h-.234q-1.484.03-2.36.875-.874.843-1.015 2.39.797-.906 2.156-.906 1.297 0 2.063.922.781.906.781 2.36 0 1.546-.844 2.468-.828.922-2.234.922-1.422 0-2.313-1.094-.89-1.11-.89-2.828v-.484q0-2.75 1.172-4.204 1.172-1.453 3.484-1.484zm-1.671 4.484q-.641 0-1.188.391-.547.375-.766.969v.469q0 1.234.547 1.984.563.75 1.39.75.86 0 1.345-.625.484-.64.484-1.656 0-1.032-.5-1.657-.484-.625-1.313-.625zm11.125-3.78-4.125 9.25h-1.313l4.094-8.923h-5.375v-1.03h6.719v.702zm1.359 7 2.25-2.298-2.235-2.297.813-.828 2.25 2.282 2.25-2.282.813.828-2.25 2.297 2.265 2.297-.812.844-2.266-2.313-2.266 2.313-.812-.844z" fill="#e69138"/><path d="m680.972 345.752h-1.266v-8.422l-2.562.922v-1.14l3.625-1.36h.203zm4-.656q0-.328.187-.547.203-.219.594-.219.39 0 .594.22.203.218.203.546 0 .312-.203.531-.203.203-.594.203-.39 0-.594-.203-.187-.219-.187-.531zm9.187-2.688h1.375v1.032h-1.375v2.312h-1.28v-2.312h-4.532v-.75l4.453-6.89h1.36v6.608zm-4.375 0h3.094v-4.875l-.14.266-2.954 4.61zm13.266-.906q0 2.219-.766 3.313-.75 1.078-2.359 1.078-1.594 0-2.36-1.047-.765-1.063-.796-3.172v-1.687q0-2.188.75-3.25.765-1.079 2.39-1.079 1.61 0 2.36 1.032.765 1.031.781 3.172zm-1.266-1.719q0-1.609-.453-2.343-.437-.735-1.422-.735-.968 0-1.422.735-.437.718-.453 2.234v2.031q0 1.61.47 2.391.468.766 1.421.766.938 0 1.39-.72.454-.734.47-2.296v-2.063zm2.813 3.72 2.25-2.298-2.235-2.297.813-.828 2.25 2.282 2.25-2.282.813.828-2.25 2.297 2.265 2.297-.812.844-2.266-2.313-2.266 2.313-.812-.844z" stroke="#fff" stroke-linecap="round" stroke-linejoin="round" stroke-width="3"/><path d="m680.972 345.752h-1.266v-8.422l-2.562.922v-1.14l3.625-1.36h.203zm4-.656q0-.328.187-.547.203-.219.594-.219.39 0 .594.22.203.218.203.546 0 .312-.203.531-.203.203-.594.203-.39 0-.594-.203-.187-.219-.187-.531zm9.187-2.688h1.375v1.032h-1.375v2.312h-1.28v-2.312h-4.532v-.75l4.453-6.89h1.36v6.608zm-4.375 0h3.094v-4.875l-.14.266-2.954 4.61zm13.266-.906q0 2.219-.766 3.313-.75 1.078-2.359 1.078-1.594 0-2.36-1.047-.765-1.063-.796-3.172v-1.687q0-2.188.75-3.25.765-1.079 2.39-1.079 1.61 0 2.36 1.032.765 1.031.781 3.172zm-1.266-1.719q0-1.609-.453-2.343-.437-.735-1.422-.735-.968 0-1.422.735-.437.718-.453 2.234v2.031q0 1.61.47 2.391.468.766 1.421.766.938 0 1.39-.72.454-.734.47-2.296v-2.063zm2.813 3.72 2.25-2.298-2.235-2.297.813-.828 2.25 2.282 2.25-2.282.813.828-2.25 2.297 2.265 2.297-.812.844-2.266-2.313-2.266 2.313-.812-.844z" fill="#e69138"/><path d="m169.356 269.506h-6.515v-.907l3.437-3.828q.766-.875 1.063-1.406.296-.547.296-1.14 0-.766-.484-1.266-.469-.5-1.25-.5-.937 0-1.469.53-.515.532-.515 1.5h-1.266q0-1.374.875-2.218.89-.86 2.375-.86 1.39 0 2.188.735.812.719.812 1.938 0 1.468-1.875 3.5l-2.656 2.89h4.984zm1.64-.657q0-.328.188-.547.203-.218.594-.218.39 0 .594.218.203.22.203.547 0 .313-.203.532-.203.203-.594.203-.39 0-.594-.203-.187-.22-.187-.532zm10.079-3.593q0 2.218-.766 3.312-.75 1.078-2.359 1.078-1.594 0-2.36-1.047-.765-1.062-.796-3.172v-1.687q0-2.188.75-3.25.765-1.078 2.39-1.078 1.61 0 2.36 1.031.765 1.031.781 3.172v1.64zm-1.266-1.72q0-1.609-.453-2.343-.437-.734-1.422-.734-.968 0-1.422.734-.437.719-.453 2.234v2.032q0 1.61.47 2.39.468.766 1.421.766.938 0 1.39-.719.454-.734.47-2.297v-2.062zm9.266 1.72q0 2.218-.766 3.312-.75 1.078-2.359 1.078-1.594 0-2.36-1.047-.765-1.062-.796-3.172v-1.687q0-2.188.75-3.25.765-1.078 2.39-1.078 1.61 0 2.36 1.031.765 1.031.781 3.172v1.64zm-1.266-1.72q0-1.609-.453-2.343-.437-.734-1.422-.734-.968 0-1.422.734-.437.719-.453 2.234v2.032q0 1.61.47 2.39.468.766 1.421.766.938 0 1.39-.719.454-.734.47-2.297v-2.062zm2.813 3.72 2.25-2.297-2.235-2.297.813-.828 2.25 2.28 2.25-2.28.813.828-2.25 2.297 2.265 2.297-.812.843-2.266-2.312-2.266 2.312z" stroke="#fff" stroke-linecap="round" stroke-linejoin="round" stroke-width="3"/><path d="m169.356 269.506h-6.515v-.907l3.437-3.828q.766-.875 1.063-1.406.296-.547.296-1.14 0-.766-.484-1.266-.469-.5-1.25-.5-.937 0-1.469.53-.515.532-.515 1.5h-1.266q0-1.374.875-2.218.89-.86 2.375-.86 1.39 0 2.188.735.812.719.812 1.938 0 1.468-1.875 3.5l-2.656 2.89h4.984zm1.64-.657q0-.328.188-.547.203-.218.594-.218.39 0 .594.218.203.22.203.547 0 .313-.203.532-.203.203-.594.203-.39 0-.594-.203-.187-.22-.187-.532zm10.079-3.593q0 2.218-.766 3.312-.75 1.078-2.359 1.078-1.594 0-2.36-1.047-.765-1.062-.796-3.172v-1.687q0-2.188.75-3.25.765-1.078 2.39-1.078 1.61 0 2.36 1.031.765 1.031.781 3.172v1.64zm-1.266-1.72q0-1.609-.453-2.343-.437-.734-1.422-.734-.968 0-1.422.734-.437.719-.453 2.234v2.032q0 1.61.47 2.39.468.766 1.421.766.938 0 1.39-.719.454-.734.47-2.297v-2.062zm9.266 1.72q0 2.218-.766 3.312-.75 1.078-2.359 1.078-1.594 0-2.36-1.047-.765-1.062-.796-3.172v-1.687q0-2.188.75-3.25.765-1.078 2.39-1.078 1.61 0 2.36 1.031.765 1.031.781 3.172v1.64zm-1.266-1.72q0-1.609-.453-2.343-.437-.734-1.422-.734-.968 0-1.422.734-.437.719-.453 2.234v2.032q0 1.61.47 2.39.468.766 1.421.766.938 0 1.39-.719.454-.734.47-2.297v-2.062zm2.813 3.72 2.25-2.297-2.235-2.297.813-.828 2.25 2.28 2.25-2.28.813.828-2.25 2.297 2.265 2.297-.812.843-2.266-2.312-2.266 2.312z" fill="#3d85c6"/><path d="m338.322 307.629h-1.266v-8.422l-2.562.922v-1.14l3.625-1.36h.203zm4-.656q0-.329.187-.547.203-.219.594-.219.39 0 .594.219.203.219.203.547 0 .312-.203.53-.203.204-.594.204-.39 0-.594-.203-.187-.219-.187-.531zm10.265-8.594-4.125 9.25h-1.312l4.094-8.922h-5.375v-1.031h6.718zm7.813 5q0 2.219-.766 3.312-.75 1.079-2.359 1.079-1.594 0-2.36-1.047-.765-1.063-.796-3.172v-1.688q0-2.187.75-3.25.765-1.078 2.39-1.078 1.61 0 2.36 1.031.765 1.032.781 3.172v1.64zm-1.266-1.719q0-1.61-.453-2.344-.437-.734-1.422-.734-.968 0-1.422.734-.437.72-.453 2.235v2.031q0 1.61.47 2.39.468.766 1.421.766.938 0 1.39-.719.454-.734.47-2.296v-2.063zm2.813 3.719 2.25-2.297-2.235-2.297.813-.828 2.25 2.281 2.25-2.281.813.828-2.25 2.297 2.265 2.297-.812.844-2.266-2.313-2.266 2.313z" stroke="#fff" stroke-linecap="round" stroke-linejoin="round" stroke-width="3"/><path d="m338.322 307.629h-1.266v-8.422l-2.562.922v-1.14l3.625-1.36h.203zm4-.656q0-.329.187-.547.203-.219.594-.219.39 0 .594.219.203.219.203.547 0 .312-.203.53-.203.204-.594.204-.39 0-.594-.203-.187-.219-.187-.531zm10.265-8.594-4.125 9.25h-1.312l4.094-8.922h-5.375v-1.031h6.718zm7.813 5q0 2.219-.766 3.312-.75 1.079-2.359 1.079-1.594 0-2.36-1.047-.765-1.063-.796-3.172v-1.688q0-2.187.75-3.25.765-1.078 2.39-1.078 1.61 0 2.36 1.031.765 1.032.781 3.172v1.64zm-1.266-1.719q0-1.61-.453-2.344-.437-.734-1.422-.734-.968 0-1.422.734-.437.72-.453 2.235v2.031q0 1.61.47 2.39.468.766 1.421.766.938 0 1.39-.719.454-.734.47-2.296v-2.063zm2.813 3.719 2.25-2.297-2.235-2.297.813-.828 2.25 2.281 2.25-2.281.813.828-2.25 2.297 2.265 2.297-.812.844-2.266-2.313-2.266 2.313z" fill="#3d85c6"/><path d="m509.647 371.168h-1.266v-8.422l-2.562.922v-1.14l3.625-1.36h.203zm4-.656q0-.329.187-.547.204-.22.594-.22t.594.22q.203.218.203.547 0 .312-.203.53-.203.204-.594.204-.39 0-.594-.203-.187-.219-.187-.531zm10.36.656h-6.516v-.906l3.437-3.829q.766-.875 1.063-1.406.297-.547.297-1.14 0-.766-.485-1.266-.469-.5-1.25-.5-.937 0-1.469.531-.515.531-.515 1.5h-1.266q0-1.375.875-2.219.89-.859 2.375-.859 1.39 0 2.188.734.812.72.812 1.938 0 1.469-1.875 3.5l-2.656 2.89h4.984v1.032zm7.718-4.25q0 2.219-.766 3.312-.75 1.078-2.359 1.078-1.594 0-2.36-1.046-.765-1.063-.796-3.172v-1.688q0-2.187.75-3.25.765-1.078 2.39-1.078 1.61 0 2.36 1.031.765 1.032.781 3.172v1.64zm-1.266-1.719q0-1.61-.453-2.344-.437-.734-1.422-.734-.968 0-1.421.734-.438.719-.454 2.235v2.03q0 1.61.47 2.392.468.765 1.421.765.938 0 1.39-.719.454-.734.47-2.296v-2.063zm2.813 3.719 2.25-2.297-2.235-2.297.813-.828 2.25 2.281 2.25-2.281.813.828-2.25 2.297 2.265 2.297-.812.844-2.266-2.313-2.266 2.313z" stroke="#fff" stroke-linecap="round" stroke-linejoin="round" stroke-width="3"/><path d="m509.647 371.168h-1.266v-8.422l-2.562.922v-1.14l3.625-1.36h.203zm4-.656q0-.329.187-.547.204-.22.594-.22t.594.22q.203.218.203.547 0 .312-.203.53-.203.204-.594.204-.39 0-.594-.203-.187-.219-.187-.531zm10.36.656h-6.516v-.906l3.437-3.829q.766-.875 1.063-1.406.297-.547.297-1.14 0-.766-.485-1.266-.469-.5-1.25-.5-.937 0-1.469.531-.515.531-.515 1.5h-1.266q0-1.375.875-2.219.89-.859 2.375-.859 1.39 0 2.188.734.812.72.812 1.938 0 1.469-1.875 3.5l-2.656 2.89h4.984v1.032zm7.718-4.25q0 2.219-.766 3.312-.75 1.078-2.359 1.078-1.594 0-2.36-1.046-.765-1.063-.796-3.172v-1.688q0-2.187.75-3.25.765-1.078 2.39-1.078 1.61 0 2.36 1.031.765 1.032.781 3.172v1.64zm-1.266-1.719q0-1.61-.453-2.344-.437-.734-1.422-.734-.968 0-1.421.734-.438.719-.454 2.235v2.03q0 1.61.47 2.392.468.765 1.421.765.938 0 1.39-.719.454-.734.47-2.296v-2.063zm2.813 3.719 2.25-2.297-2.235-2.297.813-.828 2.25 2.281 2.25-2.281.813.828-2.25 2.297 2.265 2.297-.812.844-2.266-2.313-2.266 2.313z" fill="#3d85c6"/><path d="m680.972 383.876h-1.266v-8.422l-2.562.922v-1.141l3.625-1.36h.203v10zm4-.657q0-.328.187-.547.203-.218.594-.218.39 0 .594.218.203.22.203.547 0 .313-.203.532-.203.203-.594.203-.39 0-.594-.203-.187-.22-.187-.532zm8 .657h-1.266v-8.422l-2.562.922v-1.141l3.625-1.36h.203v10zm10.078-4.25q0 2.218-.766 3.312-.75 1.078-2.359 1.078-1.594 0-2.36-1.047-.765-1.062-.796-3.172v-1.687q0-2.188.75-3.25.765-1.078 2.39-1.078 1.61 0 2.36 1.031.765 1.031.781 3.172v1.64zm-1.266-1.72q0-1.609-.453-2.343-.437-.734-1.422-.734-.968 0-1.422.734-.437.719-.453 2.234v2.032q0 1.609.47 2.39.468.766 1.421.766.938 0 1.39-.719.454-.734.47-2.297v-2.062zm2.813 3.72 2.25-2.297-2.235-2.297.813-.828 2.25 2.28 2.25-2.28.813.828-2.25 2.297 2.265 2.297-.812.843-2.266-2.312-2.266 2.312z" stroke="#fff" stroke-linecap="round" stroke-linejoin="round" stroke-width="3"/><path d="m680.972 383.876h-1.266v-8.422l-2.562.922v-1.141l3.625-1.36h.203v10zm4-.657q0-.328.187-.547.203-.218.594-.218.39 0 .594.218.203.22.203.547 0 .313-.203.532-.203.203-.594.203-.39 0-.594-.203-.187-.22-.187-.532zm8 .657h-1.266v-8.422l-2.562.922v-1.141l3.625-1.36h.203v10zm10.078-4.25q0 2.218-.766 3.312-.75 1.078-2.359 1.078-1.594 0-2.36-1.047-.765-1.062-.796-3.172v-1.687q0-2.188.75-3.25.765-1.078 2.39-1.078 1.61 0 2.36 1.031.765 1.031.781 3.172v1.64zm-1.266-1.72q0-1.609-.453-2.343-.437-.734-1.422-.734-.968 0-1.422.734-.437.719-.453 2.234v2.032q0 1.609.47 2.39.468.766 1.421.766.938 0 1.39-.719.454-.734.47-2.297v-2.062zm2.813 3.72 2.25-2.297-2.235-2.297.813-.828 2.25 2.28 2.25-2.28.813.828-2.25 2.297 2.265 2.297-.812.843-2.266-2.312-2.266 2.312z" fill="#3d85c6"/><path d="m33.413 310.123q-.485 1.687-1.188 2.469-.719.765-1.75.765-1.172 0-1.937-.937-.782-.938-.782-2.453 0-1.016.407-1.813.39-.812 1.093-1.25.688-.453 1.516-.453v1.328q-.906 0-1.422.578-.516.563-.516 1.61 0 .968.438 1.515.422.547 1.187.547.61 0 1.032-.515.406-.516.765-1.75.344-1.25.766-1.954.422-.703.984-1.03.563-.345 1.313-.345 1.219 0 1.953.954.719.937.719 2.515 0 1.031-.391 1.922-.406.875-1.078 1.36-.688.484-1.563.484v-1.313q.907 0 1.438-.672.516-.671.516-1.78 0-1.048-.422-1.595-.422-.546-1.157-.546-.734 0-1.125.515-.406.5-.796 1.844zm4.437-6.234v1.265h-10.5v-1.265zm-3.766-1.297q-1.093 0-1.953-.422-.875-.438-1.343-1.188-.47-.765-.47-1.75 0-1.5 1.048-2.437 1.047-.938 2.78-.938h.095q1.078 0 1.937.422.844.406 1.328 1.188.485.765.485 1.75 0 1.515-1.047 2.453-1.047.922-2.766.922zm.157-1.266q1.218 0 1.968-.562.75-.579.75-1.547 0-.953-.75-1.516-.765-.578-2.125-.578-1.218 0-1.968.578-.766.578-.766 1.531 0 .938.75 1.516.75.578 2.14.578zm1.859-13.61-5.64-1.421v-1.266l7.39 2.14v1.032l-5.61 1.797 5.61 1.75v1.031l-7.39 2.14v-1.25l5.53-1.468-5.53-1.719v-1.015l5.64-1.75zm-2.016-4.156q-1.703 0-2.734-.796-1.031-.813-1.031-2.11 0-1.312.89-2.062h-3.859v-1.266h10.5v1.156l-.797.063q.938.765.938 2.11 0 1.296-1.047 2.109-1.063.796-2.766.796zm.157-1.265q1.25 0 1.968-.516.704-.515.704-1.437 0-1.203-1.079-1.75h-3.406q-1.031.562-1.031 1.734 0 .938.719 1.453.703.516 2.125.516zm-.157-6.703q-1.093 0-1.953-.422-.875-.438-1.343-1.188-.47-.765-.47-1.75 0-1.5 1.048-2.437 1.047-.938 2.78-.938h.095q1.078 0 1.937.422.844.406 1.328 1.188.485.765.485 1.75 0 1.515-1.047 2.453-1.047.922-2.766.922zm.157-1.266q1.218 0 1.968-.562.75-.579.75-1.547 0-.953-.75-1.516-.765-.578-2.125-.578-1.218 0-1.968.578-.766.578-.766 1.531 0 .938.75 1.516.75.578 2.14.578zm1.859-13.61-5.64-1.421v-1.266l7.39 2.14v1.032l-5.61 1.797 5.61 1.75v1.031l-7.39 2.14v-1.25l5.53-1.468-5.53-1.719v-1.015l5.64-1.75zm-5.64-5.656.921-.03q-1.062-.86-1.062-2.22 0-2.343 2.64-2.375h4.891v1.266h-4.89q-.797.016-1.172.375-.391.36-.391 1.11 0 .624.328 1.093.328.453.86.719h5.265v1.266h-7.39zm3.343-9.75q-1.531 0-2.953-.406-1.422-.422-2.578-1.234-1.172-.828-1.656-1.719l.843-.25q.766 1 2.344 1.64 1.563.626 3.5.688l.594.016q2.64 0 4.578-.969 1.156-.578 1.813-1.375l.78.25q-.515.922-1.702 1.75-2.328 1.61-5.563 1.61zm4.047-6.421v1.265h-10.5v-1.265zm-3.766-1.297q-1.093 0-1.953-.422-.875-.438-1.343-1.188-.47-.765-.47-1.75 0-1.5 1.048-2.437 1.047-.938 2.78-.938h.095q1.078 0 1.937.422.844.406 1.328 1.188.485.765.485 1.75 0 1.515-1.047 2.453-1.047.922-2.766.922zm.157-1.266q1.218 0 1.968-.562.75-.579.75-1.547 0-.953-.75-1.516-.765-.578-2.125-.578-1.218 0-1.968.578-.766.578-.766 1.531 0 .938.75 1.516.75.578 2.14.578zm1.859-13.61-5.64-1.421v-1.266l7.39 2.14v1.032l-5.61 1.797 5.61 1.75v1.031l-7.39 2.14v-1.25l5.53-1.468-5.53-1.719v-1.015l5.64-1.75zm1.89-7.53q0 1.515-.984 2.453-1 .937-2.656.937h-.219q-1.11 0-1.968-.422-.875-.422-1.36-1.172-.484-.75-.484-1.64 0-1.438.953-2.235.937-.797 2.719-.797h.515v5q1.094-.015 1.782-.625.671-.625.671-1.562 0-.672-.265-1.125-.281-.469-.735-.828l.594-.766q1.438.922 1.438 2.781zm-6.64.156q0 .765.563 1.297.562.515 1.562.64v-3.703h-.094q-.968.047-1.5.516-.531.468-.531 1.25zm.234-7.657q-.046.282-.046.625 0 1.235 1.062 1.688h5.25v1.266h-7.39v-1.235l.843-.015q-.984-.625-.984-1.766 0-.375.094-.563zm6.266-5.796v1.265h-7.39v-1.265zm-9.36 1.359q-.312 0-.515-.188-.219-.187-.219-.546 0-.375.219-.563.203-.203.516-.203.312 0 .515.203.203.188.203.563 0 .359-.203.546-.203.188-.515.188zm7.391-7.297q-.5 0-.781.39-.297.391-.5 1.344-.203.954-.484 1.532-.297.562-.688.828-.39.265-.937.265-.922 0-1.547-.765-.625-.766-.625-1.969 0-1.25.656-2.031.64-.781 1.656-.781v1.265q-.531 0-.906.438-.375.437-.375 1.109 0 .688.313 1.078.296.39.78.39.454 0 .688-.359.235-.359.453-1.296.204-.954.5-1.547.297-.594.72-.875.405-.282 1-.282.984 0 1.593.797.594.797.594 2.063 0 .875-.313 1.562-.328.688-.89 1.078-.563.375-1.22.375v-1.265q.641-.031 1.016-.5.375-.485.375-1.25 0-.719-.296-1.156-.297-.438-.782-.438zm-1.64-11.953q1.687 0 2.718.781 1.032.781 1.032 2.094 0 1.39-1 2.156l.859.063v1.172h-10.5v-1.266h3.922q-.953-.766-.953-2.11 0-1.359 1.015-2.124 1.016-.766 2.797-.766zm-.157 1.266q-1.28 0-1.984.5-.703.5-.703 1.437 0 1.25 1.156 1.797h3.203q1.157-.578 1.157-1.813 0-.906-.704-1.406-.703-.515-2.125-.515zm3.907-6.079q0 1.516-.985 2.454-1 .937-2.656.937h-.219q-1.11 0-1.968-.422-.875-.422-1.36-1.172-.484-.75-.484-1.64 0-1.438.953-2.235.937-.797 2.719-.797h.515v5q1.094-.015 1.782-.625.671-.625.671-1.562 0-.672-.265-1.125-.281-.469-.735-.828l.594-.766q1.438.922 1.438 2.781zm-6.641.157q0 .765.563 1.297.562.515 1.562.64v-3.703h-.094q-.968.047-1.5.516-.531.468-.531 1.25zm-2.687-5.797h1.796v-1.375h.97v1.375h4.593q.437 0 .672-.188.219-.187.219-.625 0-.218-.094-.61h1.031q.14.5.14.97 0 .859-.515 1.297-.516.421-1.453.421h-4.594v1.344h-.969v-1.344h-1.796zm0-5h1.796v-1.375h.97v1.375h4.593q.437 0 .672-.188.219-.187.219-.625 0-.218-.094-.61h1.031q.14.5.14.97 0 .859-.515 1.297-.516.421-1.453.421h-4.594v1.344h-.969v-1.344h-1.796zm9.328-6.36q0 1.516-.985 2.454-1 .937-2.656.937h-.219q-1.11 0-1.968-.422-.875-.422-1.36-1.172-.484-.75-.484-1.64 0-1.438.953-2.235.937-.797 2.719-.797h.515v5q1.094-.015 1.782-.625.671-.625.671-1.562 0-.672-.265-1.125-.281-.469-.735-.828l.594-.766q1.438.922 1.438 2.781zm-6.641.157q0 .765.563 1.297.562.515 1.562.64v-3.703h-.094q-.968.047-1.5.516-.531.468-.531 1.25zm.234-7.657q-.046.282-.046.625 0 1.235 1.062 1.688h5.25v1.266h-7.39v-1.235l.843-.015q-.984-.625-.984-1.766 0-.375.094-.563zm2.297-4.343q1.516 0 2.922.406 1.39.39 2.578 1.219 1.188.828 1.688 1.718l-.781.266q-.797-1.047-2.5-1.687-1.704-.641-3.766-.657h-.219q-1.437 0-2.672.313-1.234.297-2.203.828-.984.531-1.531 1.203l-.781-.266q.5-.89 1.672-1.703 1.171-.828 2.578-1.234 1.406-.406 3.015-.406z" fill="#424242"/><path d="m76.834 419.083h-1.264v-8.422l-2.563.922v-1.14l3.625-1.36h.203v10zm6.453-4.703 1.641-2.687h1.484l-2.421 3.656 2.484 3.734h-1.453l-1.719-2.765-1.703 2.765h-1.469l2.5-3.734-2.422-3.656h1.453zm-4.093-122.374h-6.516v-.907l3.438-3.828q.765-.875 1.062-1.406.297-.547.297-1.14 0-.766-.484-1.266-.47-.5-1.25-.5-.938 0-1.47.53-.515.532-.515 1.5h-1.265q0-1.374.875-2.218.89-.86 2.375-.86 1.39 0 2.187.735.813.719.813 1.938 0 1.468-1.875 3.5l-2.657 2.89h4.985zm4.093-4.704 1.641-2.687h1.484l-2.421 3.656 2.484 3.735h-1.453l-1.719-2.766-1.703 2.766h-1.469l2.5-3.735-2.422-3.656h1.453zm-8.765-127.968h.937q.907-.016 1.407-.469.515-.453.515-1.234 0-1.75-1.734-1.75-.828 0-1.313.469-.484.468-.484 1.234h-1.266q0-1.187.86-1.969.875-.781 2.203-.781 1.406 0 2.203.75.797.75.797 2.063 0 .656-.422 1.265-.406.61-1.14.906.828.266 1.265.875.453.594.453 1.454 0 1.343-.875 2.14-.875.781-2.281.781-1.39 0-2.281-.75-.875-.765-.875-2.015h1.28q0 .781.5 1.265.516.47 1.376.47.922 0 1.406-.485.484-.485.484-1.375 0-.86-.53-1.328-.532-.47-1.548-.485h-.937zm8.765.89 1.641-2.687h1.484l-2.421 3.656 2.484 3.735h-1.453l-1.719-2.766-1.703 2.766h-1.469l2.5-3.735-2.422-3.656h1.453l1.625 2.688zm-5.265-125.718h1.375v1.032h-1.375v2.312h-1.282v-2.313h-4.532v-.75l4.453-6.89h1.36v6.61zm-4.375 0h3.094v-4.875l-.141.266-2.953 4.61zm9.64-1.36 1.641-2.687h1.484l-2.421 3.657 2.484 3.734h-1.453l-1.719-2.766-1.703 2.766h-1.469l2.5-3.734-2.422-3.657h1.453l1.625 2.688z" fill="#b7b7b7"/><path d="m153.997 431.427q-.188 1.578-1.172 2.438-.984.859-2.61.859-1.765 0-2.828-1.266-1.062-1.265-1.062-3.39v-.953q0-1.391.5-2.438.5-1.062 1.406-1.625.906-.562 2.094-.562 1.594 0 2.547.89.953.89 1.125 2.453h-1.328q-.172-1.187-.75-1.718-.563-.547-1.594-.547-1.25 0-1.969.937-.703.922-.703 2.64v.97q0 1.625.672 2.578.672.953 1.89.953 1.094 0 1.672-.485.594-.5.782-1.734zm2.734-3.344q.844-1.03 2.188-1.03 2.343 0 2.375 2.64v4.89h-1.266v-4.89q-.016-.797-.375-1.172-.36-.39-1.11-.39-.624 0-1.093.327-.453.328-.719.86v5.265h-1.265v-10.5h1.265zm10.313.235q-.282-.047-.625-.047-1.235 0-1.688 1.062v5.25h-1.265v-7.39h1.234l.016.843q.625-.984 1.765-.984.375 0 .563.094zm1.093 2.5q0-1.094.422-1.953.438-.875 1.188-1.344.765-.469 1.75-.469 1.5 0 2.437 1.047.938 1.047.938 2.781v.094q0 1.078-.422 1.937-.406.844-1.188 1.329-.765.484-1.75.484-1.515 0-2.453-1.047-.922-1.047-.922-2.766zm1.266.156q0 1.219.563 1.969.578.75 1.546.75.954 0 1.516-.75.578-.766.578-2.125 0-1.219-.578-1.969-.578-.766-1.531-.766-.938 0-1.516.75-.578.75-.578 2.141zm8.25-3.781.047.812q.813-.953 2.188-.953 1.546 0 2.109 1.188.375-.532.969-.86.593-.328 1.39-.328 2.438 0 2.485 2.578v4.953h-1.266v-4.875q0-.797-.375-1.187-.36-.39-1.203-.39-.719 0-1.188.421-.453.406-.53 1.125v4.906h-1.267v-4.843q0-1.61-1.578-1.61-1.25 0-1.703 1.047v5.406h-1.265v-7.39zm13.89 7.531q-1.515 0-2.452-.984-.938-1-.938-2.657v-.218q0-1.11.422-1.97.422-.874 1.172-1.359.75-.484 1.64-.484 1.438 0 2.235.953.797.938.797 2.719v.516h-5q.015 1.093.625 1.78.625.673 1.562.673.672 0 1.125-.266.469-.281.828-.734l.766.593q-.922 1.438-2.781 1.438zm-.156-6.64q-.765 0-1.296.562-.516.562-.641 1.562h3.703v-.093q-.047-.97-.516-1.5-.468-.532-1.25-.532zm7.532 1.515.515-4.969h5.094v1.172h-4.031l-.297 2.703q.734-.422 1.656-.422 1.36 0 2.156.907.813.89.813 2.421 0 1.532-.844 2.422-.828.891-2.312.891-1.313 0-2.157-.734-.828-.735-.953-2.032h1.203q.11.86.594 1.297.5.438 1.313.438.875 0 1.375-.594.515-.61.515-1.672 0-1-.547-1.594-.546-.609-1.453-.609-.812 0-1.297.36l-.328.265zm12.765 1.64h1.375v1.032h-1.375v2.312h-1.28v-2.312h-4.532v-.75l4.453-6.89h1.36v6.609zm-4.375 0h3.094v-4.874l-.14.265-2.954 4.61zm118.013.188q-.188 1.578-1.172 2.438-.984.859-2.61.859-1.765 0-2.828-1.266-1.062-1.265-1.062-3.39v-.953q0-1.391.5-2.438.5-1.062 1.406-1.625.906-.562 2.094-.562 1.594 0 2.547.89.953.89 1.125 2.453h-1.328q-.172-1.187-.75-1.718-.563-.547-1.594-.547-1.25 0-1.969.937-.703.922-.703 2.64v.97q0 1.625.672 2.578.672.953 1.89.953 1.094 0 1.672-.485.594-.5.782-1.734zm2.734-3.344q.844-1.03 2.188-1.03 2.343 0 2.375 2.64v4.89h-1.266v-4.89q-.016-.797-.375-1.172-.36-.39-1.11-.39-.624 0-1.093.327-.453.328-.719.86v5.265h-1.265v-10.5h1.265zm10.313.235q-.282-.047-.625-.047-1.235 0-1.688 1.062v5.25h-1.265v-7.39h1.234l.016.843q.625-.984 1.765-.984.375 0 .563.094zm1.093 2.5q0-1.094.422-1.953.438-.875 1.188-1.344.765-.469 1.75-.469 1.5 0 2.437 1.047.938 1.047.938 2.781v.094q0 1.078-.422 1.937-.406.844-1.188 1.329-.765.484-1.75.484-1.515 0-2.453-1.047-.922-1.047-.922-2.766zm1.266.156q0 1.219.563 1.969.578.75 1.546.75.954 0 1.516-.75.578-.766.578-2.125 0-1.219-.578-1.969-.578-.766-1.531-.766-.938 0-1.516.75-.578.75-.578 2.141zm8.25-3.781.047.812q.813-.953 2.188-.953 1.546 0 2.109 1.188.375-.532.969-.86.593-.328 1.39-.328 2.438 0 2.485 2.578v4.953h-1.266v-4.875q0-.797-.375-1.187-.36-.39-1.203-.39-.719 0-1.188.421-.453.406-.53 1.125v4.906h-1.267v-4.843q0-1.61-1.578-1.61-1.25 0-1.703 1.047v5.406h-1.265v-7.39zm13.89 7.531q-1.515 0-2.452-.984-.938-1-.938-2.657v-.218q0-1.11.422-1.97.422-.874 1.172-1.359.75-.484 1.64-.484 1.438 0 2.235.953.797.938.797 2.719v.516h-5q.015 1.093.625 1.78.625.673 1.562.673.672 0 1.125-.266.469-.281.828-.734l.766.593q-.922 1.438-2.781 1.438zm-.156-6.64q-.765 0-1.296.562-.516.562-.641 1.562h3.703v-.093q-.047-.97-.516-1.5-.468-.532-1.25-.532zm7.532 1.515.515-4.969h5.094v1.172h-4.031l-.297 2.703q.734-.422 1.656-.422 1.36 0 2.156.907.813.89.813 2.421 0 1.532-.844 2.422-.828.891-2.312.891-1.313 0-2.157-.734-.828-.735-.953-2.032h1.203q.11.86.594 1.297.5.438 1.313.438.875 0 1.375-.594.515-.61.515-1.672 0-1-.547-1.594-.546-.609-1.453-.609-.812 0-1.297.36l-.328.265zm12.39-4.969v1.063h-.234q-1.484.031-2.36.875-.874.843-1.015 2.39.797-.906 2.156-.906 1.297 0 2.063.922.781.906.781 2.36 0 1.546-.844 2.468-.828.922-2.234.922-1.422 0-2.313-1.094-.89-1.11-.89-2.828v-.484q0-2.75 1.172-4.203 1.171-1.454 3.484-1.485zm-1.672 4.485q-.64 0-1.187.39-.547.375-.766.969v.469q0 1.234.547 1.984.563.75 1.39.75.86 0 1.345-.625.484-.64.484-1.656 0-1.031-.5-1.656-.484-.625-1.313-.625zm115.685 2.312q-.188 1.578-1.172 2.438-.984.859-2.61.859-1.765 0-2.827-1.266-1.063-1.265-1.063-3.39v-.953q0-1.391.5-2.438.5-1.062 1.406-1.625.907-.562 2.094-.562 1.594 0 2.547.89.953.89 1.125 2.453h-1.328q-.172-1.187-.75-1.718-.563-.547-1.594-.547-1.25 0-1.969.937-.703.922-.703 2.64v.97q0 1.625.672 2.578.672.953 1.89.953 1.094 0 1.673-.485.593-.5.78-1.734zm2.734-3.344q.844-1.03 2.188-1.03 2.344 0 2.375 2.64v4.89h-1.266v-4.89q-.015-.797-.375-1.172-.36-.39-1.11-.39-.624 0-1.093.327-.453.328-.719.86v5.265h-1.265v-10.5h1.265zm10.313.235q-.281-.047-.625-.047-1.235 0-1.688 1.062v5.25h-1.265v-7.39h1.234l.016.843q.625-.984 1.765-.984.375 0 .563.094zm1.094 2.5q0-1.094.421-1.953.438-.875 1.188-1.344.765-.469 1.75-.469 1.5 0 2.437 1.047.938 1.047.938 2.781v.094q0 1.078-.422 1.937-.406.844-1.188 1.329-.765.484-1.75.484-1.515 0-2.453-1.047-.921-1.047-.921-2.766zm1.265.156q0 1.219.563 1.969.578.75 1.547.75.953 0 1.515-.75.578-.766.578-2.125 0-1.219-.578-1.969-.578-.766-1.531-.766-.938 0-1.516.75-.578.75-.578 2.141zm8.25-3.781.047.812q.813-.953 2.188-.953 1.546 0 2.109 1.188.375-.532.969-.86.593-.328 1.39-.328 2.438 0 2.485 2.578v4.953h-1.266v-4.875q0-.797-.375-1.187-.36-.39-1.203-.39-.719 0-1.188.421-.453.406-.53 1.125v4.906h-1.266v-4.843q0-1.61-1.579-1.61-1.25 0-1.703 1.047v5.406h-1.265v-7.39zm13.89 7.531q-1.515 0-2.452-.984-.938-1-.938-2.657v-.218q0-1.11.422-1.97.422-.874 1.172-1.359.75-.484 1.64-.484 1.438 0 2.235.953.797.938.797 2.719v.516h-5q.015 1.093.625 1.78.625.673 1.562.673.672 0 1.125-.266.469-.281.828-.734l.766.593q-.922 1.438-2.781 1.438zm-.155-6.64q-.766 0-1.297.562-.516.562-.641 1.562h3.703v-.093q-.047-.97-.515-1.5-.47-.532-1.25-.532zm7.53 1.515.516-4.969h5.094v1.172h-4.031l-.297 2.703q.734-.422 1.656-.422 1.36 0 2.157.907.812.89.812 2.421 0 1.532-.844 2.422-.828.891-2.312.891-1.313 0-2.156-.734-.829-.735-.954-2.032h1.204q.109.86.593 1.297.5.438 1.313.438.875 0 1.375-.594.515-.61.515-1.672 0-1-.546-1.594-.547-.609-1.454-.609-.812 0-1.296.36l-.329.265-1.015-.25zm13.454-2.375q0 .75-.39 1.328-.391.578-1.063.906.781.344 1.234.985.453.64.453 1.453 0 1.297-.875 2.062-.86.766-2.281.766-1.438 0-2.313-.766-.859-.78-.859-2.062 0-.813.438-1.453.437-.657 1.218-.985-.656-.328-1.046-.906-.375-.594-.375-1.328 0-1.25.796-1.984.813-.75 2.141-.75 1.313 0 2.11.75.812.734.812 1.984zm-1.031 4.64q0-.828-.532-1.343-.53-.531-1.39-.531-.844 0-1.36.515-.515.516-.515 1.375 0 .844.5 1.328.5.485 1.406.485.875 0 1.375-.485.516-.5.516-1.343zm-1.891-6.328q-.75 0-1.219.47-.453.452-.453 1.25 0 .75.453 1.218.453.469 1.203.469.766 0 1.22-.469.452-.469.452-1.219 0-.765-.468-1.234-.47-.485-1.188-.485zm115.872 5.891q-.188 1.578-1.172 2.438-.984.859-2.61.859-1.765 0-2.828-1.266-1.062-1.265-1.062-3.39v-.953q0-1.391.5-2.438.5-1.062 1.406-1.625.906-.562 2.094-.562 1.594 0 2.547.89.953.89 1.125 2.453h-1.328q-.172-1.187-.75-1.718-.563-.547-1.594-.547-1.25 0-1.969.937-.703.922-.703 2.64v.97q0 1.625.672 2.578.672.953 1.89.953 1.094 0 1.672-.485.594-.5.782-1.734zm2.734-3.344q.844-1.03 2.188-1.03 2.343 0 2.375 2.64v4.89h-1.266v-4.89q-.016-.797-.375-1.172-.36-.39-1.11-.39-.624 0-1.093.327-.453.328-.719.86v5.265h-1.265v-10.5h1.265zm10.313.235q-.282-.047-.625-.047-1.235 0-1.688 1.062v5.25h-1.265v-7.39h1.234l.016.843q.625-.984 1.765-.984.375 0 .563.094zm1.093 2.5q0-1.094.422-1.953.438-.875 1.188-1.344.765-.469 1.75-.469 1.5 0 2.437 1.047.938 1.047.938 2.781v.094q0 1.078-.422 1.937-.406.844-1.188 1.329-.765.484-1.75.484-1.515 0-2.453-1.047-.922-1.047-.922-2.766zm1.266.156q0 1.219.563 1.969.578.75 1.546.75.954 0 1.516-.75.578-.766.578-2.125 0-1.219-.578-1.969-.578-.766-1.531-.766-.938 0-1.516.75-.578.75-.578 2.141zm8.25-3.781.047.812q.813-.953 2.188-.953 1.546 0 2.109 1.188.375-.532.969-.86.593-.328 1.39-.328 2.438 0 2.485 2.578v4.953h-1.266v-4.875q0-.797-.375-1.187-.36-.39-1.203-.39-.719 0-1.188.421-.453.406-.53 1.125v4.906h-1.267v-4.843q0-1.61-1.578-1.61-1.25 0-1.703 1.047v5.406h-1.265v-7.39zm13.89 7.531q-1.515 0-2.452-.984-.938-1-.938-2.657v-.218q0-1.11.422-1.97.422-.874 1.172-1.359.75-.484 1.64-.484 1.438 0 2.235.953.797.938.797 2.719v.516h-5q.015 1.093.625 1.78.625.673 1.562.673.672 0 1.125-.266.469-.281.828-.734l.766.593q-.922 1.438-2.781 1.438zm-.156-6.64q-.765 0-1.296.562-.516.562-.641 1.562h3.703v-.093q-.047-.97-.516-1.5-.468-.532-1.25-.532zm11.922-3.454v1.063h-.234q-1.484.031-2.36.875-.874.843-1.015 2.39.797-.906 2.156-.906 1.297 0 2.063.922.781.906.781 2.36 0 1.546-.844 2.468-.828.922-2.234.922-1.422 0-2.313-1.094-.89-1.11-.89-2.828v-.484q0-2.75 1.172-4.203 1.171-1.454 3.484-1.485zm-1.672 4.485q-.64 0-1.187.39-.547.375-.766.969v.469q0 1.234.547 1.984.563.75 1.39.75.86 0 1.345-.625.484-.64.484-1.656 0-1.031-.5-1.656-.484-.625-1.313-.625zm10.938 1.218q0 2.22-.766 3.313-.75 1.078-2.359 1.078-1.594 0-2.36-1.047-.765-1.062-.796-3.172v-1.687q0-2.188.75-3.25.765-1.078 2.39-1.078 1.61 0 2.36 1.03.765 1.032.781 3.173zm-1.266-1.718q0-1.61-.453-2.344-.437-.735-1.422-.735-.968 0-1.422.735-.437.719-.453 2.234v2.031q0 1.61.47 2.391.468.766 1.421.766.938 0 1.39-.719.454-.734.47-2.297v-2.062z" fill="#000"/><path d="m327.257 459.407h8.486v8.486h-8.486z" fill="#e69138"/><path d="m352.156 465.556h-4.172l-.937 2.594h-1.36l3.813-9.953h1.14l3.813 9.953h-1.344zm-3.781-1.078h3.39l-1.702-4.656zm9.516 1.953 1.843-5.672h1.282l-2.641 7.391h-.969l-2.687-7.39h1.297zm7.64 1.86q-1.515 0-2.453-.985-.937-1-.937-2.656v-.219q0-1.11.421-1.969.422-.875 1.172-1.359t1.641-.484q1.438 0 2.234.953.797.937.797 2.719v.515h-5q.016 1.094.625 1.781.625.672 1.563.672.672 0 1.125-.265.469-.282.828-.735l.765.594q-.921 1.438-2.78 1.438zm-.156-6.641q-.766 0-1.297.563-.515.562-.64 1.562h3.703v-.094q-.047-.969-.516-1.5-.469-.531-1.25-.531zm7.656.234q-.281-.047-.625-.047-1.234 0-1.687 1.063v5.25h-1.266v-7.39h1.235l.015.843q.625-.984 1.766-.984.375 0 .562.093zm6 6.266q-.11-.219-.187-.781-.875.922-2.11.922-1.093 0-1.796-.61-.688-.625-.688-1.578 0-1.156.875-1.797.875-.64 2.469-.64h1.234v-.579q0-.671-.406-1.062-.39-.39-1.156-.39-.688 0-1.141.343-.453.344-.453.828h-1.281q0-.562.39-1.078.406-.516 1.078-.812.672-.297 1.47-.297 1.28 0 2 .64.733.641.765 1.75v3.407q0 1.015.25 1.625v.109zm-2.11-.969q.595 0 1.126-.297.547-.312.781-.812v-1.516h-1q-2.312 0-2.312 1.36 0 .593.39.937.39.328 1.016.328zm5.235-2.797q0-1.718.797-2.734.797-1.031 2.125-1.031 1.344 0 2.11.953l.062-.813h1.156v7.22q0 1.437-.86 2.25-.843.827-2.28.827-.797 0-1.563-.344-.765-.328-1.172-.921l.656-.766q.813 1 1.985 1 .922 0 1.437-.516.532-.515.532-1.468v-.625q-.766.875-2.079.875-1.296 0-2.109-1.047-.797-1.047-.797-2.86zm1.266.157q0 1.25.515 1.968.516.703 1.438.703 1.203 0 1.766-1.093v-3.375q-.594-1.047-1.75-1.047-.922 0-1.454.719-.515.703-.515 2.125zm10.11 3.75q-1.516 0-2.454-.985-.937-1-.937-2.656v-.219q0-1.11.421-1.969.422-.875 1.172-1.359t1.641-.484q1.438 0 2.234.953.797.937.797 2.719v.515h-5q.016 1.094.625 1.781.625.672 1.563.672.672 0 1.125-.265.469-.282.828-.735l.765.594q-.921 1.438-2.78 1.438zm-.157-6.641q-.766 0-1.297.563-.515.562-.64 1.562h3.703v-.094q-.047-.969-.516-1.5-.469-.531-1.25-.531z" fill="#666"/><path d="m414.257 459.407h8.486v8.486h-8.486z" fill="#3d85c6"/><path d="m435.344 458.197 3.265 8.125 3.25-8.125h1.704v9.953h-1.313v-3.875l.125-4.188-3.266 8.063h-1.015l-3.25-8.047.125 4.172v3.875h-1.313v-9.953zm13.187 10.094q-1.515 0-2.453-.985-.937-1-.937-2.656v-.219q0-1.11.421-1.969.422-.875 1.172-1.359t1.641-.484q1.438 0 2.234.953.797.937.797 2.719v.515h-5q.016 1.094.625 1.781.625.672 1.563.672.672 0 1.125-.265.469-.282.828-.735l.765.594q-.921 1.438-2.78 1.438zm-.156-6.641q-.766 0-1.297.563-.515.562-.64 1.562h3.703v-.094q-.047-.969-.516-1.5-.469-.531-1.25-.531zm3.781 2.734q0-1.703.797-2.734.813-1.031 2.11-1.031 1.312 0 2.062.89v-3.859h1.266v10.5h-1.157l-.062-.797q-.766.938-2.11.938-1.296 0-2.109-1.047-.797-1.063-.797-2.766zm1.266.157q0 1.25.515 1.968.516.703 1.438.703 1.203 0 1.75-1.078v-3.406q-.563-1.031-1.734-1.031-.938 0-1.454.719-.515.703-.515 2.125zm8.406 3.609h-1.265v-7.39h1.265zm-1.36-9.36q0-.312.188-.515.188-.219.547-.219.375 0 .563.219.203.203.203.516 0 .312-.203.515-.188.203-.563.203-.36 0-.547-.203-.187-.203-.187-.515zm7.563 9.36q-.11-.219-.187-.781-.875.922-2.11.922-1.093 0-1.796-.61-.688-.625-.688-1.578 0-1.156.875-1.797.875-.64 2.469-.64h1.234v-.579q0-.671-.406-1.062-.39-.39-1.156-.39-.688 0-1.141.343-.453.344-.453.828h-1.281q0-.562.39-1.078.406-.516 1.078-.812.672-.297 1.47-.297 1.28 0 2 .64.733.641.765 1.75v3.407q0 1.015.25 1.625v.109zm-2.11-.969q.595 0 1.126-.297.547-.312.781-.812v-1.516h-1q-2.312 0-2.312 1.36 0 .593.39.937.39.328 1.016.328zm6.735-6.422.031.922q.86-1.062 2.22-1.062 2.343 0 2.374 2.64v4.891h-1.265v-4.89q-.016-.798-.375-1.173-.36-.39-1.11-.39-.625 0-1.094.328-.453.328-.718.86v5.265h-1.266v-7.39h1.203z" fill="#666"/></svg>