<svg viewBox="0 0 487 280" xmlns="http://www.w3.org/2000/svg" xmlns:xlink="http://www.w3.org/1999/xlink"><clipPath id="a"><path d="m0-19h960v540h-960z"/></clipPath><g clip-path="url(#a)"><path clip-rule="evenodd" d="m0-19h960v540h-960z" fill="#fff" fill-rule="evenodd"/><path clip-rule="evenodd" d="m24.7 50.9h137.1v50.8h-137.1z" fill="#0b5394" fill-rule="evenodd"/><path d="m52.5 81.3c.5 0 .9-.1 1.2-.4s.5-.6.5-1.1h2.5c0 .7-.2 1.3-.5 1.8-.4.6-.8 1-1.5 1.3-.6.3-1.3.5-2.1.5-1.4 0-2.5-.4-3.3-1.3s-1.2-2.1-1.2-3.7v-.2c0-1.5.4-2.7 1.2-3.6s1.9-1.4 3.3-1.4c1.2 0 2.2.3 3 1s1.1 1.6 1.1 2.8h-2.5c0-.5-.2-.9-.5-1.2s-.7-.5-1.2-.5c-.6 0-1.1.2-1.4.7-.3.4-.5 1.2-.5 2.2v.3c0 1 .2 1.8.5 2.2s.8.6 1.4.6zm5.2-3.1c0-1 .2-1.8.6-2.6s.9-1.4 1.6-1.8 1.5-.6 2.5-.6c1.3 0 2.4.4 3.3 1.2.8.8 1.3 1.9 1.4 3.3v.7c0 1.5-.4 2.7-1.3 3.6-.8.9-2 1.4-3.4 1.4s-2.6-.5-3.4-1.4-1.3-2.2-1.3-3.7zm2.7.2c0 .9.2 1.7.5 2.2.4.5.9.7 1.5.7s1.1-.2 1.5-.7.5-1.3.5-2.3c0-.9-.2-1.6-.5-2.1-.4-.5-.9-.8-1.5-.8s-1.1.3-1.5.8c-.3.4-.5 1.2-.5 2.2zm11.1 4.8h-2.7v-14h2.7zm1.7-5c0-1.5.3-2.8 1-3.7s1.6-1.4 2.8-1.4c1 0 1.8.4 2.4 1.1v-5h2.6v14h-2.4l-.1-1c-.7.8-1.5 1.2-2.5 1.2-1.2 0-2.1-.5-2.8-1.4-.6-.9-1-2.1-1-3.8zm2.7.2c0 .9.2 1.6.5 2.1s.8.7 1.4.7c.8 0 1.4-.3 1.7-1v-3.9c-.3-.7-.9-1-1.7-1-1.3 0-1.9 1.1-1.9 3.1zm18.4-2.6c-.4 0-.7-.1-.9-.1-1 0-1.7.3-2 1v6.5h-2.6v-9.9h2.5l.1 1.2c.5-.9 1.3-1.3 2.2-1.3.3 0 .6 0 .8.1zm7.2 6.4c-.7.8-1.6 1.2-2.7 1.2s-1.9-.3-2.4-.9c-.6-.6-.8-1.5-.8-2.7v-6.5h2.6v6.4c0 1 .5 1.5 1.4 1.5s1.5-.3 1.8-.9v-7h2.6v9.9h-2.5zm7-8.8.1 1.1c.7-.9 1.7-1.3 2.8-1.3s1.8.3 2.3.9.8 1.5.8 2.7v6.4h-2.6v-6.3c0-.6-.1-1-.4-1.2-.2-.2-.6-.4-1.2-.4-.7 0-1.3.3-1.7.9v7h-2.6v-9.9h2.5zm26.4 4.6 1.6 1-.8 1.2-1.5-.9.1 1.6h-1.5l-.1-2.5-1.9-1.1v2.2l2.2 1.5-.8 1.1-1.3-.9v1.8h-1.5v-1.8l-1.3.9-.8-1.1 2.2-1.5v-2.2l-1.9 1.1-.1 2.5h-1.5l.1-1.6-1.5.9-.8-1.2 1.6-1-1.5-.8.7-1.2 2.3 1.1 1.9-1.1-1.9-1.1-2.3 1.1-.7-1.3 1.5-.7-1.5-.9.8-1.4 1.6.9-.1-1.6h1.5l.1 2.5 1.9 1.1v-2.2l-2.2-1.4.8-1.1 1.3.9v-1.8h1.5v1.8l1.3-.9.8 1.1-2.2 1.4v2.2l1.9-1.1.1-2.5h1.5l-.1 1.6 1.6-.9.8 1.4-1.5.9 1.5.7-.7 1.3-2.3-1.1-1.9 1.1 1.9 1.1 2.3-1.1.7 1.2z" fill="#fff"/><path clip-rule="evenodd" d="m24.7 112.5h137.1v50.8h-137.1z" fill="#bf9000" fill-rule="evenodd"/><path d="m51.5 141.2 1.3-6.3h2.5l-2.5 9.9h-2.2l-1.9-6.2-1.9 6.2h-2.2l-2.5-9.9h2.5l1.3 6.3 1.8-6.3h1.9zm10.9 3.6c-.1-.2-.2-.5-.3-.9-.6.7-1.5 1.1-2.5 1.1s-1.8-.3-2.4-.8c-.6-.6-.9-1.3-.9-2.1 0-1.1.4-1.9 1.2-2.4.8-.6 1.9-.8 3.4-.8h1.1v-.6c0-.4-.1-.8-.4-1.1-.2-.3-.6-.4-1.1-.4-.4 0-.8.1-1 .3s-.4.5-.4.9h-2.6c0-.6.2-1.1.5-1.6.4-.5.9-.9 1.5-1.1.6-.3 1.4-.4 2.2-.4 1.2 0 2.2.3 2.9.9s1.1 1.5 1.1 2.6v4.3c0 .9.1 1.6.4 2.1v.2h-2.7zm-2.2-1.8c.4 0 .7-.1 1.1-.2.3-.2.6-.4.7-.7v-1.7h-1c-1.3 0-2 .5-2.1 1.4v.2c0 .3.1.6.3.8.3.1.6.2 1 .2zm12-5.6c-.4 0-.7-.1-.9-.1-1 0-1.7.3-2 1v6.5h-2.6v-9.8h2.5l.1 1.2c.5-.9 1.2-1.3 2.2-1.3.3 0 .6 0 .8.1zm3.8-2.4.1 1.1c.7-.9 1.6-1.3 2.8-1.3 1.3 0 2.1.5 2.6 1.5.7-1 1.7-1.5 3-1.5 1.1 0 1.9.3 2.4.9s.8 1.5.8 2.8v6.3h-2.7v-6.3c0-.6-.1-1-.3-1.2-.2-.3-.6-.4-1.2-.4-.8 0-1.3.4-1.6 1.1v6.8h-2.6v-6.3c0-.6-.1-1-.3-1.2-.2-.3-.6-.4-1.1-.4-.8 0-1.3.3-1.6.9v7h-2.6v-9.8zm23.8 2.4c-.4 0-.7-.1-.9-.1-1 0-1.7.3-2 1v6.5h-2.6v-9.8h2.5l.1 1.2c.5-.9 1.3-1.3 2.2-1.3.3 0 .6 0 .8.1zm7.2 6.4c-.7.8-1.6 1.2-2.7 1.2s-1.9-.3-2.4-.9c-.6-.6-.8-1.5-.8-2.7v-6.4h2.6v6.4c0 1 .5 1.5 1.4 1.5s1.5-.3 1.8-.9v-7h2.6v9.9h-2.5zm6.9-8.8.1 1.1c.7-.9 1.7-1.3 2.8-1.3s1.8.3 2.3.9.8 1.5.8 2.7v6.4h-2.6v-6.3c0-.6-.1-1-.4-1.2s-.6-.4-1.2-.4c-.7 0-1.3.3-1.7.9v7h-2.6v-9.8zm25.7-.4-1.1-1.1 2.8-2.9 1.2 1.1zm-8.2 6.1 1.1 1.1-2.8 2.8-1.1-1.1zm13.2-3.9v1.7h-4v-1.7zm-14.1 1.7h-4v-1.7h4zm9.1 2.2 2.9 2.9-1.2 1-2.7-2.8zm-8.2-6.1-2.8-2.8 1.1-1.1 2.8 2.9zm3.3 8.1h1.5v4.1h-1.5zm1.6-10.1h-1.5v-4h1.5zm-.8.8c1.2 0 2.3.5 3.3 1.5.8.9 1.1 1.9 1 3.2-.1 1-.5 1.9-1.2 2.6-.8.9-1.8 1.3-3 1.2-1.1 0-2.1-.4-2.9-1.2s-1.3-1.8-1.3-3 .4-2.2 1.2-3c.7-.9 1.7-1.3 2.9-1.3z" fill="#fff"/><path clip-rule="evenodd" d="m24.7 174.1h137.1v80.5h-137.1z" fill="#900" fill-rule="evenodd"/><path d="m50.6 212.5c.7-.8 1.6-1.2 2.6-1.2 2.1 0 3.2 1.2 3.2 3.7v6.3h-2.6v-6.2c0-.6-.1-1-.4-1.2-.2-.3-.6-.4-1.2-.4-.8 0-1.3.3-1.7.9v7h-2.5v-14h2.6zm7.4 3.8c0-1 .2-1.8.6-2.6s.9-1.4 1.6-1.8 1.5-.6 2.5-.6c1.3 0 2.4.4 3.3 1.2s1.3 1.9 1.4 3.3v.7c0 1.5-.4 2.7-1.3 3.6s-2 1.4-3.4 1.4-2.6-.5-3.4-1.4-1.3-2.2-1.3-3.7zm2.7.2c0 .9.2 1.7.5 2.2.4.5.9.7 1.5.7s1.1-.2 1.5-.7.5-1.3.5-2.3c0-.9-.2-1.6-.5-2.1-.4-.5-.9-.8-1.5-.8s-1.1.2-1.5.8c-.3.3-.5 1.1-.5 2.2zm11.5-7.5v2.4h1.7v1.9h-1.7v4.9c0 .4.1.6.2.8s.4.2.8.2c.3 0 .6 0 .8-.1v2c-.5.2-1.1.2-1.6.2-1.9 0-2.8-.9-2.8-2.8v-5.3h-1.4v-1.9h1.4v-2.3zm13.3 4.9c-.4 0-.7-.1-.9-.1-1 0-1.7.3-2 1v6.5h-2.6v-9.9h2.5l.1 1.2c.5-.9 1.2-1.3 2.2-1.3.3 0 .6 0 .8.1zm7.2 6.4c-.7.8-1.6 1.2-2.7 1.2s-1.9-.3-2.4-.9c-.6-.6-.8-1.5-.8-2.7v-6.5h2.6v6.4c0 1 .5 1.5 1.4 1.5s1.5-.3 1.8-.9v-7h2.6v9.9h-2.5zm6.9-8.9.1 1.1c.7-.9 1.7-1.3 2.8-1.3s1.8.3 2.3.9.8 1.5.8 2.7v6.4h-2.6v-6.2c0-.6-.1-1-.4-1.2s-.6-.4-1.2-.4c-.7 0-1.3.3-1.7.9v7h-2.6v-9.9zm13.4 7.2c0-.3-.2-.6-.5-.8s-.8-.4-1.5-.5c-2.4-.5-3.5-1.5-3.5-3 0-.9.4-1.6 1.1-2.2s1.7-.9 2.8-.9c1.2 0 2.2.3 3 .9.7.6 1.1 1.3 1.1 2.3h-2.6c0-.4-.1-.7-.4-.9-.2-.2-.6-.4-1.1-.4-.4 0-.8.1-1 .3s-.4.5-.4.8.1.5.4.7.7.3 1.4.5c.7.1 1.2.3 1.7.4 1.4.5 2.1 1.4 2.1 2.7 0 .9-.4 1.6-1.2 2.2s-1.8.8-3 .8c-.8 0-1.6-.1-2.2-.4s-1.1-.7-1.5-1.2-.5-1.1-.5-1.7h2.5c0 .5.2.8.5 1.1.3.2.7.4 1.3.4.5 0 .9-.1 1.1-.3.3-.3.4-.5.4-.8zm22.6-7.7c.4 0 .6.2.6.5 0 .2-.1.4-.4.5-.6.2-.8.6-.8 1.2 0 .3 0 .6.1.9s.2.6.2.9c.1.3.2.6.3 1s.1.7.1 1c0 .9-.3 1.6-.8 2.3s-1.2 1.2-2 1.7-1.7.6-2.5.6-1.6-.2-2.4-.6-1.4-1-1.9-1.7-.7-1.5-.7-2.3c0-.3 0-.7.1-1.1s.2-1 .5-1.7c.2-.7.3-1.2.3-1.6 0-.7-.3-1.1-.8-1.2-.3-.1-.4-.2-.4-.5 0-.2.1-.4.3-.5s.4-.1.6-.1c.5 0 .9.1 1.2.4s.6.7.8 1.1v.2c-.1.2-.2.2-.2.1 0 .2-.1.2-.2.1.4-.8 1-1.5 1.7-2.1l.9-.8c1.1-1 1.6-1.9 1.6-2.7 0-.4-.1-.8-.4-1.2-.1-.2-.2-.3-.2-.5 0-.3.2-.4.5-.4s.7.2 1.1.7.8 1 .9 1.6c.2.6.3 1.1.3 1.8 0 .9-.2 1.8-.5 2.9-.1.2-.2.5-.2.7s-.1.4-.1.6v.1s.1-.1.2-.4c.2-.5.4-.8.7-1s.6-.4.9-.4c.1-.1.3-.1.6-.1zm-4 8c-.3 0-.5-.1-.7-.3s-.3-.4-.3-.7.1-.6.3-1l.2-.4c.1-.2.2-.5.2-.9 0-.6-.1-1.2-.4-1.7-.1.1-.2.1-.2 0v.1c0-.2.1-.3.3-.3v.2c0 .1.1.2.1.3v.2c-.1.3-.2.6-.4.9s-.5.6-1 1.1c-.3.3-.6.6-.7.9s-.2.6-.2.9c0 .5.2 1 .5 1.3.3.4.8.5 1.2.5.3 0 .6-.1.9-.2s.6-.4.8-.6.3-.5.3-.8c0-.1 0-.2-.1-.4s-.1-.2-.1-.3 0-.1 0 0c0-.2.1-.3.3-.3v.2c0 .3-.1.6-.4.9 0 .2-.3.4-.6.4z" fill="#fff"/><path clip-rule="evenodd" d="m173.5 112.5h137.1v142.1h-137.1z" fill="#38761d" fill-rule="evenodd"/><path d="m203.3 178.5c-.7.8-1.6 1.2-2.7 1.2s-1.9-.3-2.4-.9c-.6-.6-.8-1.5-.8-2.7v-6.5h2.6v6.4c0 1 .5 1.5 1.4 1.5s1.5-.3 1.8-.9v-7h2.6v9.9h-2.5zm9.9-1.7c0-.3-.2-.6-.5-.8s-.8-.4-1.5-.5c-2.4-.5-3.5-1.5-3.5-3 0-.9.4-1.6 1.1-2.2s1.7-.9 2.8-.9c1.3 0 2.3.3 3 .9.8.6 1.1 1.3 1.1 2.3h-2.6c0-.4-.1-.7-.4-.9-.2-.3-.6-.4-1.1-.4-.4 0-.8.1-1 .3s-.4.5-.4.8.1.5.4.7.8.3 1.4.5c.7.1 1.2.3 1.7.4 1.4.5 2.1 1.4 2.1 2.7 0 .9-.4 1.6-1.2 2.2s-1.8.8-3 .8c-.8 0-1.6-.1-2.2-.4s-1.1-.7-1.5-1.2-.5-1.1-.5-1.7h2.5c0 .5.2.8.5 1.1.3.2.8.4 1.3.4s.9-.1 1.1-.3c.3-.3.4-.5.4-.8zm8.8 2.9c-1.4 0-2.6-.4-3.5-1.3s-1.4-2.1-1.4-3.5v-.3c0-1 .2-1.9.6-2.6.4-.8.9-1.4 1.6-1.8s1.5-.6 2.4-.6c1.4 0 2.4.4 3.2 1.3.8.8 1.2 2 1.2 3.6v1.1h-6.3c.1.6.3 1.2.8 1.6.4.4 1 .6 1.6.6 1 0 1.8-.4 2.4-1.1l1.3 1.5c-.4.6-.9 1-1.6 1.3-.7 0-1.5.2-2.3.2zm-.3-8.1c-.5 0-.9.2-1.3.5-.3.4-.5.9-.6 1.5h3.7v-.2c0-.6-.2-1-.5-1.3-.3-.4-.7-.5-1.3-.5zm13.3 7.9h-2.7v-9.9h2.7zm-2.8-12.4c0-.4.1-.7.4-1s.6-.4 1.1-.4c.4 0 .8.1 1.1.4.3.2.4.6.4 1s-.1.7-.4 1c-.3.2-.6.4-1.1.4-.4 0-.8-.1-1.1-.4s-.4-.6-.4-1zm10.3 9.7c0-.3-.2-.6-.5-.8s-.8-.4-1.5-.5c-2.4-.5-3.5-1.5-3.5-3 0-.9.4-1.6 1.1-2.2s1.7-.9 2.8-.9c1.2 0 2.2.3 3 .9s1.1 1.3 1.1 2.3h-2.6c0-.4-.1-.7-.4-.9-.2-.3-.6-.4-1.1-.4-.4 0-.8.1-1 .3s-.4.5-.4.8.1.5.4.7.8.3 1.4.5c.7.1 1.2.3 1.7.4 1.4.5 2.1 1.4 2.1 2.7 0 .9-.4 1.6-1.2 2.2s-1.8.8-3 .8c-.8 0-1.6-.1-2.2-.4s-1.1-.7-1.5-1.2-.5-1.1-.5-1.7h2.5c0 .5.2.8.5 1.1.3.2.8.4 1.3.4s.9-.1 1.1-.3c.2-.3.4-.5.4-.8zm3.8-2.3c0-1 .2-1.8.6-2.6s.9-1.4 1.6-1.8 1.5-.6 2.5-.6c1.3 0 2.4.4 3.3 1.2.8.8 1.3 1.9 1.4 3.3v.7c0 1.5-.4 2.7-1.3 3.6-.8.9-2 1.4-3.4 1.4s-2.6-.5-3.4-1.4-1.3-2.2-1.3-3.7zm2.7.2c0 .9.2 1.7.5 2.2.4.5.9.7 1.5.7s1.1-.2 1.5-.7.5-1.3.5-2.3c0-.9-.2-1.6-.5-2.1-.4-.5-.9-.8-1.5-.8s-1.1.2-1.5.8c-.4.3-.5 1.1-.5 2.2zm11.1 4.8h-2.7v-14h2.7zm7.8 0c-.1-.2-.2-.5-.3-.9-.6.7-1.5 1.1-2.5 1.1s-1.8-.3-2.4-.8c-.6-.6-.9-1.3-.9-2.1 0-1.1.4-1.9 1.2-2.4.8-.6 1.9-.8 3.4-.8h1.2v-.6c0-.4-.1-.8-.4-1.1-.2-.3-.6-.4-1.1-.4-.4 0-.8.1-1 .3s-.4.5-.4.9h-2.6c0-.6.2-1.1.5-1.6.4-.5.9-.9 1.5-1.1.6-.3 1.4-.4 2.2-.4 1.2 0 2.2.3 2.9.9s1.1 1.5 1.1 2.6v4.3c0 .9.1 1.6.4 2.1v.2h-2.8zm-2.1-1.8c.4 0 .7-.1 1.1-.2.3-.2.6-.4.7-.7v-1.8h-1c-1.3 0-2 .5-2.1 1.4v.2c0 .3.1.6.3.8.2.1.6.3 1 .3zm9.6-10.5v2.4h1.7v1.9h-1.7v4.9c0 .4.1.6.2.8s.4.2.8.2c.3 0 .6 0 .8-.1v2c-.5.2-1.1.2-1.6.2-1.9 0-2.8-.9-2.8-2.8v-5.3h-1.4v-1.9h1.4v-2.4h2.6zm7.7 12.5c-1.4 0-2.6-.4-3.5-1.3s-1.4-2.1-1.4-3.5v-.3c0-1 .2-1.9.6-2.6.4-.8.9-1.4 1.6-1.8s1.5-.6 2.4-.6c1.4 0 2.4.4 3.2 1.3.8.8 1.2 2 1.2 3.6v1.1h-6.3c.1.6.3 1.2.8 1.6.4.4 1 .6 1.6.6 1 0 1.8-.4 2.4-1.1l1.3 1.5c-.4.6-.9 1-1.6 1.3-.8 0-1.5.2-2.3.2zm-.3-8.1c-.5 0-.9.2-1.3.5-.3.4-.5.9-.6 1.5h3.7v-.2c0-.6-.2-1-.5-1.3-.3-.4-.8-.5-1.3-.5zm-60.7 27.9c.5 0 .9-.1 1.2-.4s.5-.6.5-1.1h2.5c0 .7-.2 1.3-.5 1.8-.4.6-.8 1-1.5 1.3-.6.3-1.3.5-2.1.5-1.4 0-2.5-.4-3.3-1.3s-1.2-2.1-1.2-3.7v-.2c0-1.5.4-2.7 1.2-3.6s1.9-1.4 3.3-1.4c1.2 0 2.2.3 3 1s1.1 1.6 1.1 2.8h-2.5c0-.5-.2-.9-.5-1.2s-.7-.5-1.2-.5c-.6 0-1.1.2-1.4.7-.3.4-.5 1.2-.5 2.2v.3c0 1 .2 1.8.5 2.2s.8.6 1.4.6zm11.4 2c-.1-.2-.2-.5-.3-.9-.6.7-1.5 1.1-2.5 1.1s-1.8-.3-2.4-.8c-.6-.6-.9-1.3-.9-2.1 0-1.1.4-1.9 1.2-2.4.8-.6 1.9-.8 3.4-.8h1.2v-.6c0-.4-.1-.8-.4-1.1-.2-.3-.6-.4-1.1-.4-.4 0-.8.1-1 .3s-.4.5-.4.9h-2.6c0-.6.2-1.1.5-1.6.4-.5.9-.9 1.5-1.1.6-.3 1.4-.4 2.2-.4 1.2 0 2.2.3 2.9.9s1.1 1.5 1.1 2.6v4.3c0 .9.1 1.6.4 2.1v.2h-2.8zm-2.2-1.8c.4 0 .7-.1 1.1-.2.3-.2.6-.4.7-.7v-1.8h-1c-1.3 0-2 .5-2.1 1.4v.2c0 .3.1.6.3.8.3.1.6.3 1 .3zm10.6-.2c.5 0 .9-.1 1.2-.4s.5-.6.5-1.1h2.5c0 .7-.2 1.3-.5 1.8-.4.6-.8 1-1.5 1.3-.6.3-1.3.5-2.1.5-1.4 0-2.5-.4-3.3-1.3s-1.2-2.1-1.2-3.7v-.2c0-1.5.4-2.7 1.2-3.6s1.9-1.4 3.3-1.4c1.2 0 2.2.3 3 1s1.1 1.6 1.1 2.8h-2.5c0-.5-.2-.9-.5-1.2s-.7-.5-1.2-.5c-.6 0-1.1.2-1.4.7-.3.4-.5 1.2-.5 2.2v.3c0 1 .2 1.8.5 2.2s.7.6 1.4.6zm8.2-6.8c.7-.8 1.6-1.3 2.6-1.2 2.1 0 3.2 1.2 3.2 3.7v6.3h-2.6v-6.2c0-.6-.1-1-.4-1.2-.2-.3-.6-.4-1.2-.4-.8 0-1.3.3-1.7.9v7h-2.6v-14h2.6v5.1zm12.4 9c-1.4 0-2.6-.4-3.5-1.3s-1.4-2.1-1.4-3.5v-.3c0-1 .2-1.9.6-2.6.4-.8.9-1.4 1.6-1.8s1.5-.6 2.4-.6c1.4 0 2.4.4 3.2 1.3.8.8 1.2 2 1.2 3.6v1.1h-6.3c.1.6.3 1.2.8 1.6.4.4 1 .6 1.6.6 1 0 1.8-.4 2.4-1.1l1.3 1.5c-.4.6-.9 1-1.6 1.3-.8 0-1.5.2-2.3.2zm-.3-8.1c-.5 0-.9.2-1.3.5-.3.4-.5.9-.6 1.5h3.7v-.2c0-.6-.2-1-.5-1.3-.3-.4-.8-.5-1.3-.5z" fill="#fff"/><path clip-rule="evenodd" d="m173.5 50.9h285.8v50.8h-285.8z" fill="#b45f06" fill-rule="evenodd"/><path d="m288 81.3c.5 0 .9-.1 1.2-.4s.5-.6.5-1.1h2.5c0 .7-.2 1.3-.5 1.8-.4.6-.8 1-1.5 1.3-.6.3-1.3.5-2.1.5-1.4 0-2.5-.4-3.3-1.3s-1.2-2.1-1.2-3.7v-.2c0-1.5.4-2.7 1.2-3.6s1.9-1.4 3.3-1.4c1.2 0 2.2.3 3 1s1.1 1.6 1.1 2.8h-2.5c0-.5-.2-.9-.5-1.2s-.7-.5-1.2-.5c-.6 0-1.1.2-1.4.7-.3.4-.5 1.2-.5 2.2v.3c0 1 .2 1.8.5 2.2s.8.6 1.4.6zm5.2-3.1c0-1 .2-1.8.6-2.6s.9-1.4 1.6-1.8 1.5-.6 2.5-.6c1.3 0 2.4.4 3.3 1.2.8.8 1.3 1.9 1.4 3.3v.7c0 1.5-.4 2.7-1.3 3.6-.8.9-2 1.4-3.4 1.4s-2.6-.5-3.4-1.4-1.3-2.2-1.3-3.7zm2.7.2c0 .9.2 1.7.5 2.2.4.5.9.7 1.5.7s1.1-.2 1.5-.7.5-1.3.5-2.3c0-.9-.2-1.6-.5-2.1-.4-.5-.9-.8-1.5-.8s-1.1.3-1.5.8c-.3.4-.5 1.2-.5 2.2zm10.8-5 .1 1.1c.7-.9 1.6-1.3 2.8-1.3 1.3 0 2.1.5 2.6 1.5.7-1 1.7-1.5 3-1.5 1.1 0 1.9.3 2.4.9s.8 1.5.8 2.8v6.3h-2.6v-6.2c0-.6-.1-1-.3-1.2-.2-.3-.6-.4-1.2-.4-.8 0-1.3.4-1.6 1.1v6.8h-2.7v-6.3c0-.6-.1-1-.3-1.2-.2-.3-.6-.4-1.1-.4-.8 0-1.3.3-1.6.9v7h-2.6v-9.9zm22.5 5c0 1.5-.3 2.7-1 3.7-.7.9-1.6 1.4-2.8 1.4-1 0-1.8-.3-2.4-1v4.5h-2.6v-13.6h2.4l.1 1c.6-.8 1.5-1.1 2.5-1.1 1.2 0 2.2.4 2.8 1.3.7.9 1 2.1 1 3.7zm-2.6-.2c0-.9-.2-1.6-.5-2.1s-.8-.7-1.4-.8c-.8 0-1.4.3-1.7.9v4c.3.7.9 1 1.7 1 1.3.1 1.9-.9 1.9-3zm7.1 5h-2.7v-9.9h2.7zm-2.8-12.4c0-.4.1-.7.4-1s.6-.4 1.1-.4c.4 0 .8.1 1.1.4s.4.6.4 1-.1.7-.4 1-.6.4-1.1.4c-.4 0-.8-.1-1.1-.4-.3-.2-.4-.6-.4-1zm7.7 12.4h-2.7v-14h2.7zm6.7.2c-1.4 0-2.6-.4-3.5-1.3s-1.4-2.1-1.4-3.5v-.3c0-1 .2-1.9.6-2.6.4-.8.9-1.4 1.6-1.8s1.5-.6 2.4-.6c1.4 0 2.4.4 3.2 1.3.8.8 1.2 2 1.2 3.6v1.1h-6.3c.1.6.3 1.2.8 1.6.4.4 1 .6 1.6.6 1 0 1.8-.4 2.4-1.1l1.3 1.5c-.4.6-.9 1-1.6 1.3-.7.1-1.5.2-2.3.2zm-.3-8.1c-.5 0-.9.2-1.3.5-.3.4-.5.9-.6 1.5h3.7v-.2c0-.6-.2-1-.5-1.3s-.7-.5-1.3-.5z" fill="#fff"/><path clip-rule="evenodd" d="m322.2 112.5h137.1v50.8h-137.1z" fill="#b45f06" fill-rule="evenodd"/><path d="m355 131.9c.5 0 .9-.1 1.2-.4s.5-.6.5-1.1h2.5c0 .7-.2 1.3-.5 1.8-.4.6-.8 1-1.5 1.3-.6.3-1.3.5-2.1.5-1.4 0-2.5-.4-3.3-1.3s-1.2-2.1-1.2-3.7v-.2c0-1.5.4-2.7 1.2-3.6s1.9-1.4 3.3-1.4c1.2 0 2.2.3 3 1 .7.7 1.1 1.6 1.1 2.8h-2.5c0-.5-.2-.9-.5-1.2s-.7-.5-1.2-.5c-.6 0-1.1.2-1.4.7-.3.4-.5 1.2-.5 2.2v.3c0 1 .2 1.8.5 2.2s.8.6 1.4.6zm5.2-3.1c0-1 .2-1.8.6-2.6s.9-1.4 1.6-1.8 1.5-.6 2.5-.6c1.3 0 2.4.4 3.3 1.2s1.3 1.9 1.4 3.3v.7c0 1.5-.4 2.7-1.3 3.6s-2 1.4-3.4 1.4-2.6-.5-3.4-1.4-1.3-2.2-1.3-3.7zm2.7.2c0 .9.2 1.7.5 2.2.4.5.9.7 1.5.7s1.1-.2 1.5-.7.5-1.3.5-2.3c0-.9-.2-1.6-.5-2.1-.4-.5-.9-.8-1.5-.8s-1.1.2-1.5.8-.5 1.1-.5 2.2zm10.8-5 .1 1.1c.7-.9 1.6-1.3 2.8-1.3 1.3 0 2.1.5 2.6 1.5.7-1 1.7-1.5 3-1.5 1.1 0 1.9.3 2.4.9s.8 1.5.8 2.8v6.3h-2.6v-6.3c0-.6-.1-1-.3-1.2-.2-.3-.6-.4-1.2-.4-.8 0-1.3.4-1.6 1.1v6.8h-2.6v-6.3c0-.6-.1-1-.3-1.2-.2-.3-.6-.4-1.1-.4-.8 0-1.3.3-1.6.9v7h-2.6v-9.8zm22.5 5c0 1.5-.3 2.7-1 3.7-.7.9-1.6 1.4-2.8 1.4-1 0-1.8-.3-2.4-1v4.7h-2.6v-13.8h2.4l.1 1c.6-.8 1.5-1.1 2.5-1.1 1.2 0 2.2.4 2.8 1.3s1 2.1 1 3.7zm-2.6-.2c0-.9-.2-1.6-.5-2.1s-.8-.8-1.4-.8c-.8 0-1.4.3-1.7.9v4c.3.7.9 1 1.7 1 1.2.1 1.9-.9 1.9-3zm7 5h-2.6v-9.8h2.7v9.8zm-2.8-12.4c0-.4.1-.7.4-1s.6-.4 1.1-.4c.4 0 .8.1 1.1.4.3.2.4.6.4 1s-.1.7-.4 1c-.3.2-.6.4-1.1.4-.4 0-.8-.1-1.1-.4-.2-.3-.4-.6-.4-1zm7.8 12.4h-2.7v-14h2.7zm6.7.2c-1.4 0-2.6-.4-3.5-1.3s-1.4-2.1-1.4-3.5v-.3c0-1 .2-1.9.6-2.6.4-.8.9-1.4 1.6-1.8s1.5-.6 2.4-.6c1.4 0 2.4.4 3.2 1.3.8.8 1.2 2 1.2 3.6v1.1h-6.4c.1.6.3 1.2.8 1.6.4.4 1 .6 1.6.6 1 0 1.8-.4 2.4-1.1l1.3 1.5c-.4.6-.9 1-1.6 1.3-.7.1-1.4.2-2.2.2zm-.3-8.1c-.5 0-.9.2-1.3.5-.3.4-.5.9-.6 1.5h3.7v-.2c0-.6-.2-1-.5-1.3-.4-.3-.8-.5-1.3-.5zm15.8.5h3.3v2.4h-3.3v3.7h-2.5v-3.7h-3.3v-2.4h3.3v-3.6h2.5zm-66.1 26.7c0-.3-.2-.6-.5-.8s-.8-.4-1.5-.5c-2.4-.5-3.5-1.5-3.5-3 0-.9.4-1.6 1.1-2.2s1.7-.9 2.8-.9c1.2 0 2.2.3 3 .9.7.6 1.1 1.3 1.1 2.3h-2.6c0-.4-.1-.7-.4-.9-.2-.2-.6-.4-1.1-.4-.4 0-.8.1-1 .3s-.4.5-.4.8.1.5.4.7.7.3 1.4.5c.7.1 1.2.3 1.7.4 1.4.5 2.1 1.4 2.1 2.7 0 .9-.4 1.6-1.2 2.2s-1.8.8-3 .8c-.8 0-1.6-.1-2.2-.4s-1.1-.7-1.5-1.2-.5-1.1-.5-1.7h2.5c0 .5.2.8.5 1.1.3.2.7.4 1.3.4.5 0 .9-.1 1.1-.3s.4-.5.4-.8zm8.8 2.9c-1.4 0-2.6-.4-3.5-1.3s-1.4-2.1-1.4-3.5v-.3c0-1 .2-1.9.6-2.6.4-.8.9-1.4 1.6-1.8s1.5-.6 2.4-.6c1.4 0 2.4.4 3.2 1.3.8.8 1.2 2 1.2 3.6v1.1h-6.3c.1.6.3 1.2.8 1.6.4.4 1 .6 1.6.6 1 0 1.8-.4 2.4-1.1l1.3 1.5c-.4.6-.9 1-1.6 1.3-.8.1-1.5.2-2.3.2zm-.3-8.1c-.5 0-.9.2-1.3.5-.3.4-.5.9-.6 1.5h3.7v-.2c0-.6-.2-1-.5-1.3-.4-.3-.8-.5-1.3-.5zm11.3.5c-.4 0-.7-.1-.9-.1-1 0-1.7.3-2 1v6.5h-2.6v-9.8h2.5l.1 1.2c.5-.9 1.2-1.3 2.2-1.3.3 0 .6 0 .8.1zm4.1 7.4h-2.7v-9.8h2.7zm-2.8-12.4c0-.4.1-.7.4-1s.6-.4 1.1-.4c.4 0 .8.1 1.1.4.3.2.4.6.4 1s-.1.7-.4 1c-.3.2-.6.4-1.1.4-.4 0-.8-.1-1.1-.4s-.4-.6-.4-1zm10.7 12.4c-.1-.2-.2-.5-.3-.9-.6.7-1.5 1.1-2.5 1.1s-1.8-.3-2.4-.8c-.6-.6-.9-1.3-.9-2.1 0-1.1.4-1.9 1.2-2.4.8-.6 1.9-.8 3.4-.8h1.2v-.6c0-.4-.1-.8-.4-1.1-.2-.3-.6-.4-1.1-.4-.4 0-.8.1-1 .3s-.4.5-.4.9h-2.6c0-.6.2-1.1.5-1.6.4-.5.9-.9 1.5-1.1.6-.3 1.4-.4 2.2-.4 1.2 0 2.2.3 2.9.9s1.1 1.5 1.1 2.6v4.3c0 .9.1 1.6.4 2.1v.2h-2.8zm-2.2-1.8c.4 0 .7-.1 1.1-.2.3-.2.6-.4.7-.7v-1.7h-1c-1.3 0-2 .5-2.1 1.4v.2c0 .3.1.6.3.8.3.1.6.2 1 .2zm9.2 1.8h-2.7v-14h2.7zm5 0h-2.7v-9.8h2.7zm-2.8-12.4c0-.4.1-.7.4-1s.6-.4 1.1-.4c.4 0 .8.1 1.1.4.3.2.4.6.4 1s-.1.7-.4 1c-.3.2-.6.4-1.1.4-.4 0-.8-.1-1.1-.4s-.4-.6-.4-1zm8 10.3h4.8v2.1h-8.2v-1.6l4.6-6.1h-4.5v-2.1h7.9v1.6zm11 2.3c-1.4 0-2.6-.4-3.5-1.3s-1.4-2.1-1.4-3.5v-.3c0-1 .2-1.9.6-2.6.4-.8.9-1.4 1.6-1.8s1.5-.6 2.4-.6c1.4 0 2.4.4 3.2 1.3.8.8 1.2 2 1.2 3.6v1.1h-6.3c.1.6.3 1.2.8 1.6.4.4 1 .6 1.6.6 1 0 1.8-.4 2.4-1.1l1.3 1.5c-.4.6-.9 1-1.6 1.3-.8.1-1.5.2-2.3.2zm-.3-8.1c-.5 0-.9.2-1.3.5-.3.4-.5.9-.6 1.5h3.7v-.2c0-.6-.2-1-.5-1.3s-.8-.5-1.3-.5z" fill="#fff"/><path clip-rule="evenodd" d="m322.2 174.1h137.1v80.5h-137.1z" fill="#38761d" fill-rule="evenodd"/><path d="m345.6 216.3c0-1.5.3-2.8 1-3.7s1.6-1.4 2.8-1.4c1 0 1.8.4 2.4 1.1v-5h2.6v14h-2.4l-.1-1c-.7.8-1.5 1.2-2.5 1.2-1.2 0-2.1-.5-2.8-1.4-.6-.9-1-2.2-1-3.8zm2.7.2c0 .9.2 1.6.5 2.1s.8.7 1.4.7c.8 0 1.4-.3 1.7-1v-3.9c-.3-.7-.9-1-1.7-1-1.3 0-1.9 1-1.9 3.1zm12.8 5c-1.4 0-2.6-.4-3.5-1.3s-1.4-2.1-1.4-3.5v-.3c0-1 .2-1.9.6-2.6.4-.8.9-1.4 1.6-1.8s1.5-.6 2.4-.6c1.4 0 2.4.4 3.2 1.3.8.8 1.2 2 1.2 3.6v1.1h-6.3c.1.6.3 1.2.8 1.6.4.4 1 .6 1.6.6 1 0 1.8-.4 2.4-1.1l1.3 1.5c-.4.6-.9 1-1.6 1.3-.8 0-1.5.2-2.3.2zm-.3-8.1c-.5 0-.9.2-1.3.5-.3.4-.5.9-.6 1.5h3.7v-.2c0-.6-.2-1-.5-1.3-.3-.4-.8-.5-1.3-.5zm11.2 5.2c0-.3-.2-.6-.5-.8s-.8-.4-1.5-.5c-2.4-.5-3.5-1.5-3.5-3 0-.9.4-1.6 1.1-2.2s1.7-.9 2.8-.9c1.2 0 2.2.3 3 .9s1.1 1.3 1.1 2.3h-2.6c0-.4-.1-.7-.4-.9-.2-.2-.6-.4-1.1-.4-.4 0-.8.1-1 .3s-.4.5-.4.8.1.5.4.7.8.3 1.4.5c.7.1 1.2.3 1.7.4 1.4.5 2.1 1.4 2.1 2.7 0 .9-.4 1.6-1.2 2.2s-1.8.8-3 .8c-.8 0-1.6-.1-2.2-.4s-1.1-.7-1.5-1.2-.5-1.1-.5-1.7h2.5c0 .5.2.8.5 1.1s.8.4 1.3.4.9-.1 1.1-.3c.2-.3.4-.5.4-.8zm8.8 2.9c-1.4 0-2.6-.4-3.5-1.3s-1.4-2.1-1.4-3.5v-.3c0-1 .2-1.9.6-2.6.4-.8.9-1.4 1.6-1.8s1.5-.6 2.4-.6c1.4 0 2.4.4 3.2 1.3.8.8 1.2 2 1.2 3.6v1.1h-6.3c.1.6.3 1.2.8 1.6.4.4 1 .6 1.6.6 1 0 1.8-.4 2.4-1.1l1.3 1.5c-.4.6-.9 1-1.6 1.3-.8 0-1.5.2-2.3.2zm-.3-8.1c-.5 0-.9.2-1.3.5-.3.4-.5.9-.6 1.5h3.7v-.2c0-.6-.2-1-.5-1.3-.4-.4-.8-.5-1.3-.5zm11.3.5c-.4 0-.7-.1-.9-.1-1 0-1.7.3-2 1v6.5h-2.6v-9.9h2.5l.1 1.2c.5-.9 1.2-1.3 2.2-1.3.3 0 .6 0 .8.1zm4.1 7.4h-2.7v-9.9h2.7zm-2.8-12.4c0-.4.1-.7.4-1s.6-.4 1.1-.4c.4 0 .8.1 1.1.4.3.2.4.6.4 1s-.1.7-.4 1c-.3.2-.6.4-1.1.4-.4 0-.8-.1-1.1-.4s-.4-.6-.4-1zm10.7 12.4c-.1-.2-.2-.5-.3-.9-.6.7-1.5 1.1-2.5 1.1s-1.8-.3-2.4-.8c-.6-.6-.9-1.3-.9-2.1 0-1.1.4-1.9 1.2-2.4.8-.6 1.9-.8 3.4-.8h1.2v-.6c0-.4-.1-.8-.4-1.1-.2-.3-.6-.4-1.1-.4-.4 0-.8.1-1 .3s-.4.5-.4.9h-2.6c0-.6.2-1.1.5-1.6.4-.5.9-.9 1.5-1.1.6-.3 1.4-.4 2.2-.4 1.2 0 2.2.3 2.9.9s1.1 1.5 1.1 2.6v4.3c0 .9.1 1.6.4 2.1v.2h-2.8zm-2.2-1.9c.4 0 .7-.1 1.1-.2.3-.2.6-.4.7-.7v-1.7h-1c-1.3 0-2 .5-2.1 1.4v.2c0 .3.1.6.3.8.3.1.6.2 1 .2zm9.2 1.9h-2.7v-14h2.7zm5 0h-2.7v-9.9h2.7zm-2.8-12.4c0-.4.1-.7.4-1s.6-.4 1.1-.4c.4 0 .8.1 1.1.4.3.2.4.6.4 1s-.1.7-.4 1c-.3.2-.6.4-1.1.4-.4 0-.8-.1-1.1-.4s-.4-.6-.4-1zm8 10.3h4.8v2.1h-8.2v-1.6l4.6-6.1h-4.5v-2.1h7.9v1.6zm11 2.3c-1.4 0-2.6-.4-3.5-1.3s-1.4-2.1-1.4-3.5v-.3c0-1 .2-1.9.6-2.6.4-.8.9-1.4 1.6-1.8s1.5-.6 2.4-.6c1.4 0 2.4.4 3.2 1.3.8.8 1.2 2 1.2 3.6v1.1h-6.3c.1.6.3 1.2.8 1.6.4.4 1 .6 1.6.6 1 0 1.8-.4 2.4-1.1l1.3 1.5c-.4.6-.9 1-1.6 1.3-.8 0-1.5.2-2.3.2zm-.3-8.1c-.5 0-.9.2-1.3.5-.3.4-.5.9-.6 1.5h3.7v-.2c0-.6-.2-1-.5-1.3-.3-.4-.8-.5-1.3-.5z" fill="#fff"/><path clip-rule="evenodd" d="m173.5-4.8h137.1v54.3h-137.1z" fill="none"/><path d="m199.9 36.4h-2.7v-9.9h2.7zm-2.8-12.4c0-.4.1-.7.4-1s.6-.4 1.1-.4c.4 0 .8.1 1.1.4.3.2.4.6.4 1s-.1.7-.4 1c-.3.2-.6.4-1.1.4-.4 0-.8-.1-1.1-.4-.2-.3-.4-.6-.4-1zm7.4 2.5.1 1.1c.7-.9 1.7-1.3 2.8-1.3s1.8.3 2.3.9.8 1.5.8 2.7v6.4h-2.6v-6.3c0-.6-.1-1-.4-1.2s-.6-.4-1.2-.4c-.7 0-1.3.3-1.7.9v7h-2.6v-9.9h2.5zm13.2 5.3h-5.1v-2.1h5.1zm4.6-5.3.1 1.1c.7-.9 1.6-1.3 2.8-1.3 1.3 0 2.1.5 2.6 1.5.7-1 1.7-1.5 3-1.5 1.1 0 1.9.3 2.4.9s.8 1.5.8 2.8v6.3h-2.6v-6.3c0-.6-.1-1-.3-1.2-.2-.3-.6-.4-1.2-.4-.8 0-1.3.4-1.6 1.1v6.8h-2.6v-6.3c0-.6-.1-1-.3-1.2-.2-.3-.6-.4-1.1-.4-.8 0-1.3.3-1.6.9v7h-2.6v-9.9h2.2zm18.2 10.1c-1.4 0-2.6-.4-3.5-1.3s-1.4-2.1-1.4-3.5v-.3c0-1 .2-1.9.6-2.6.4-.8.9-1.4 1.6-1.8s1.5-.6 2.4-.6c1.4 0 2.4.4 3.2 1.3.8.8 1.2 2 1.2 3.6v1.1h-6.3c.1.6.3 1.2.8 1.6.4.4 1 .6 1.6.6 1 0 1.8-.4 2.4-1.1l1.3 1.5c-.4.6-.9 1-1.6 1.3-.8 0-1.5.2-2.3.2zm-.3-8.1c-.5 0-.9.2-1.3.5-.3.4-.5.9-.6 1.5h3.7v-.2c0-.6-.2-1-.5-1.3-.4-.4-.8-.5-1.3-.5zm8.3-2 .1 1.1c.7-.9 1.6-1.3 2.8-1.3 1.3 0 2.1.5 2.6 1.5.7-1 1.7-1.5 3-1.5 1.1 0 1.9.3 2.4.9s.8 1.5.8 2.8v6.3h-2.6v-6.3c0-.6-.1-1-.3-1.2-.2-.3-.6-.4-1.2-.4-.8 0-1.3.4-1.6 1.1v6.8h-2.6v-6.3c0-.6-.1-1-.3-1.2-.2-.3-.6-.4-1.1-.4-.8 0-1.3.3-1.6.9v7h-2.9v-9.9h2.5zm13.2 4.9c0-1 .2-1.8.6-2.6s.9-1.4 1.6-1.8 1.5-.6 2.5-.6c1.3 0 2.4.4 3.3 1.2s1.3 1.9 1.4 3.3v.7c0 1.5-.4 2.7-1.3 3.6s-2 1.4-3.4 1.4-2.6-.5-3.4-1.4-1.3-2.2-1.3-3.7zm2.7.2c0 .9.2 1.7.5 2.2.4.5.9.7 1.5.7s1.1-.2 1.5-.7.5-1.3.5-2.3c0-.9-.2-1.6-.5-2.1-.4-.5-.9-.8-1.5-.8s-1.1.2-1.5.8c-.3.3-.5 1.1-.5 2.2zm13.9-2.6c-.4 0-.7-.1-.9-.1-1 0-1.7.3-2 1v6.5h-2.6v-9.9h2.5l.1 1.2c.5-.9 1.2-1.3 2.2-1.3.3 0 .6 0 .8.1zm4.9 3.7 1.8-6.1h2.8l-4 11.4-.2.5c-.6 1.3-1.6 1.9-2.9 1.9-.4 0-.8-.1-1.2-.2v-2h.4c.5 0 .9-.1 1.1-.2.2-.2.4-.4.6-.8l.3-.8-3.5-9.9h2.8z"/><path clip-rule="evenodd" d="m322.2-4.8h137.1v54.3h-137.1z" fill="none"/><path d="m359.7 31.4c0-1 .2-1.8.6-2.6s.9-1.4 1.6-1.8 1.5-.6 2.5-.6c1.3 0 2.4.4 3.3 1.2s1.3 1.9 1.4 3.3v.7c0 1.5-.4 2.7-1.3 3.6s-2 1.4-3.4 1.4-2.6-.5-3.4-1.4-1.3-2.2-1.3-3.7zm2.7.2c0 .9.2 1.7.5 2.2.4.5.9.7 1.5.7s1.1-.2 1.5-.7.5-1.3.5-2.3c0-.9-.2-1.6-.5-2.1-.4-.5-.9-.8-1.5-.8s-1.1.2-1.5.8c-.4.3-.5 1.1-.5 2.2zm10.7-5.1.1 1.1c.7-.9 1.7-1.3 2.8-1.3s1.8.3 2.3.9.8 1.5.8 2.7v6.4h-2.6v-6.3c0-.6-.1-1-.4-1.2-.2-.2-.6-.4-1.2-.4-.7 0-1.3.3-1.7.9v7h-2.6v-9.9h2.5zm13.1 5.3h-5.1v-2.1h5.1zm1.8-.4c0-1.5.3-2.8 1-3.7s1.6-1.4 2.8-1.4c1 0 1.8.4 2.4 1.1v-5h2.6v14h-2.4l-.1-1c-.7.8-1.5 1.2-2.5 1.2-1.2 0-2.1-.5-2.8-1.4s-1-2.2-1-3.8zm2.6.2c0 .9.2 1.6.5 2.1s.8.7 1.4.7c.8 0 1.4-.3 1.7-1v-3.9c-.3-.7-.9-1-1.7-1-1.3 0-1.9 1-1.9 3.1zm11.1 4.8h-2.7v-9.9h2.7zm-2.8-12.4c0-.4.1-.7.4-1s.6-.4 1.1-.4c.4 0 .8.1 1.1.4.3.2.4.6.4 1s-.1.7-.4 1c-.3.2-.6.4-1.1.4s-.8-.1-1.1-.4-.4-.6-.4-1zm10.3 9.7c0-.3-.2-.6-.5-.8s-.8-.4-1.5-.5c-2.4-.5-3.5-1.5-3.5-3 0-.9.4-1.6 1.1-2.2s1.7-.9 2.8-.9c1.2 0 2.2.3 3 .9s1.1 1.3 1.1 2.3h-2.6c0-.4-.1-.7-.4-.9-.2-.2-.6-.4-1.1-.4-.4 0-.8.1-1 .3s-.4.5-.4.8.1.5.4.7.8.3 1.4.5c.7.1 1.2.3 1.7.4 1.4.5 2.1 1.4 2.1 2.7 0 .9-.4 1.6-1.2 2.2s-1.8.8-3 .8c-.8 0-1.6-.1-2.2-.4s-1.1-.7-1.5-1.2-.5-1.1-.5-1.7h2.5c0 .5.2.8.5 1.1.3.2.8.4 1.3.4s.9-.1 1.1-.3c.2-.3.4-.5.4-.8zm7.8-1.3-1 1v3h-2.6v-14h2.6v7.8l.5-.7 2.5-3h3.2l-3.6 4.1 3.9 5.8h-3z"/></g></svg>