<svg fill="none" stroke-linecap="square" stroke-miterlimit="10" width="600" height="371" xmlns="http://www.w3.org/2000/svg"><path fill="#fff" d="M0 0h600v371H0V0z"/><path stroke="#333" stroke-linecap="butt" d="M77.5 61.5v239"/><path stroke="#ccc" stroke-linecap="butt" d="M203.5 61.5v239M329.5 61.5v239M455.5 61.5v239M581.5 61.5v239"/><path stroke="#333" stroke-linecap="butt" d="M77.5 300.5h504"/><path stroke="#ccc" stroke-linecap="butt" d="M77.5 240.5h504M77.5 181.5h504M77.5 121.5h504M77.5 61.5h504"/><clipPath id="a"><path d="M77.55 61.917h503.9V300.45H77.55V61.917z"/></clipPath><path stroke="#4285f4" stroke-width="2" stroke-linecap="butt" clip-path="url(#a)" d="M77.55 300.384l5.039-.028 5.039-.053 5.039-.095 5.039-.16 5.039-.329 5.039-.634 5.039-1.232 5.039-2.442 5.039-4.957 5.039-10.233 5.039-19.161 5.039-40.576 5.039-80.673 5.039-1.753 5.039-5.07 5.039.354 5.039 3.108 5.039-.645 5.039.493 5.039-.231 5.039-.161 5.039 2.072 5.039-7.804 5.039 4.882 5.039-.02 5.039-.555 5.039.522 5.039 1.7 5.039-1.275 5.039-3.017 5.039-.051 5.039-3.045 5.039 5.661 5.039-6.522 5.039-.115 5.039 2.56 5.039-4.385 5.039 3.773 5.039.869 5.039 2.88 5.039.528 5.039.385 5.039-2.829 5.039 2.916 5.039-5.019 5.039-.307 5.039 3.132 5.039-2.721 5.039 2.388 5.039-1.11 5.039 3.165 5.039-1.05 5.039-4.146 5.039 1.705 5.039 1.547 5.039 1.139 5.039-3.705 5.039 1.01 5.039-.639 5.039-1.499 5.039-.337 5.039-2.464 5.039 5.606 5.039-.11 5.039-2.892 5.039 2.336 5.039-4.471 5.039 3.735 5.039-3.961 5.039 5.891 5.039-.25 5.039-4.171 5.039 3.282 5.039-2.283 5.039-5.047 5.039 7.164 5.039-2.32 5.039 1.459 5.039-5.699 5.039.878 5.039 5.654 5.039-8.094 5.039-.841 5.039 3.075 5.039-.417 5.039.223 5.039.777 5.039-5.782 5.039-1.93 5.039 10.184 5.039-2.25 5.039-3.645 5.039 4.2 5.039-2.91 5.039 1.119 5.039-3.12 5.039-2.956 5.039 3.621 5.039-2.92 5.039 7.889"/><path fill="none" clip-path="url(#a)" d="M80.55 300.384a3 3 0 11-6 0 3 3 0 016 0z"/><path fill="none" clip-path="url(#a)" d="M85.589 300.356a3 3 0 11-6 0 3 3 0 016 0z"/><path fill="none" clip-path="url(#a)" d="M90.628 300.303a3 3 0 11-6 0 3 3 0 016 0z"/><path fill="none" clip-path="url(#a)" d="M95.667 300.208a3 3 0 11-6 0 3 3 0 016 0z"/><path fill="none" clip-path="url(#a)" d="M100.706 300.047a3 3 0 11-6 0 3 3 0 016 0z"/><path fill="none" clip-path="url(#a)" d="M105.745 299.72a3 3 0 11-6 0 3 3 0 016 0z"/><path fill="none" clip-path="url(#a)" d="M110.784 299.085a3 3 0 11-6 0 3 3 0 016 0z"/><path fill="none" clip-path="url(#a)" d="M115.823 297.853a3 3 0 11-6 0 3 3 0 016 0z"/><path fill="none" clip-path="url(#a)" d="M120.862 295.41a3 3 0 11-6 0 3 3 0 016 0zM125.901 290.454a3 3 0 11-6 0 3 3 0 016 0zM130.94 280.221a3 3 0 11-6 0 3 3 0 016 0zM135.979 261.06a3 3 0 11-6 0 3 3 0 016 0zM141.018 220.484a3 3 0 11-6 0 3 3 0 016 0zM146.057 139.81a3 3 0 11-6 0 3 3 0 016 0z"/><path fill="none" clip-path="url(#a)" d="M151.096 138.058a3 3 0 11-6 0 3 3 0 016 0zM156.135 132.989a3 3 0 11-6 0 3 3 0 016 0z"/><path fill="none" clip-path="url(#a)" d="M161.174 133.342a3 3 0 11-6 0 3 3 0 016 0z"/><path fill="none" clip-path="url(#a)" d="M166.213 136.45a3 3 0 11-6 0 3 3 0 016 0z"/><path fill="none" clip-path="url(#a)" d="M171.252 135.805a3 3 0 11-6 0 3 3 0 016 0z"/><path fill="none" clip-path="url(#a)" d="M176.291 136.298a3 3 0 11-6 0 3 3 0 016 0z"/><path fill="none" clip-path="url(#a)" d="M181.33 136.067a3 3 0 11-6 0 3 3 0 016 0z"/><path fill="none" clip-path="url(#a)" d="M186.369 135.906a3 3 0 11-6 0 3 3 0 016 0z"/><path fill="none" clip-path="url(#a)" d="M191.408 137.978a3 3 0 11-6 0 3 3 0 016 0zM196.447 130.174a3 3 0 11-6 0 3 3 0 016 0zM201.486 135.056a3 3 0 11-6 0 3 3 0 016 0z"/><path fill="none" clip-path="url(#a)" d="M206.525 135.036a3 3 0 11-6 0 3 3 0 016 0z"/><path fill="none" clip-path="url(#a)" d="M211.564 134.48a3 3 0 11-6 0 3 3 0 016 0z"/><path fill="none" clip-path="url(#a)" d="M216.603 135.003a3 3 0 11-6 0 3 3 0 016 0z"/><path fill="none" clip-path="url(#a)" d="M221.642 136.703a3 3 0 11-6 0 3 3 0 016 0z"/><path fill="none" clip-path="url(#a)" d="M226.681 135.428a3 3 0 11-6 0 3 3 0 016 0z"/><path fill="none" clip-path="url(#a)" d="M231.72 132.41a3 3 0 11-6 0 3 3 0 016 0z"/><path fill="none" clip-path="url(#a)" d="M236.759 132.36a3 3 0 11-6 0 3 3 0 016 0z"/><path fill="none" clip-path="url(#a)" d="M241.798 129.315a3 3 0 11-6 0 3 3 0 016 0zM246.837 134.976a3 3 0 11-6 0 3 3 0 016 0zM251.876 128.454a3 3 0 11-6 0 3 3 0 016 0z"/><path fill="none" clip-path="url(#a)" d="M256.915 128.34a3 3 0 11-6 0 3 3 0 016 0z"/><path fill="none" clip-path="url(#a)" d="M261.954 130.898a3 3 0 11-6 0 3 3 0 016 0zM266.993 126.514a3 3 0 11-6 0 3 3 0 016 0zM272.032 130.287a3 3 0 11-6 0 3 3 0 016 0z"/><path fill="none" clip-path="url(#a)" d="M277.071 131.156a3 3 0 11-6 0 3 3 0 016 0z"/><path fill="none" clip-path="url(#a)" d="M282.11 134.037a3 3 0 11-6 0 3 3 0 016 0z"/><path fill="none" clip-path="url(#a)" d="M287.149 134.564a3 3 0 11-6 0 3 3 0 016 0z"/><path fill="none" clip-path="url(#a)" d="M292.188 134.95a3 3 0 11-6 0 3 3 0 016 0z"/><path fill="none" clip-path="url(#a)" d="M297.227 132.12a3 3 0 11-6 0 3 3 0 016 0z"/><path fill="none" clip-path="url(#a)" d="M302.266 135.036a3 3 0 11-6 0 3 3 0 016 0zM307.305 130.017a3 3 0 11-6 0 3 3 0 016 0z"/><path fill="none" clip-path="url(#a)" d="M312.344 129.71a3 3 0 11-6 0 3 3 0 016 0z"/><path fill="none" clip-path="url(#a)" d="M317.383 132.842a3 3 0 11-6 0 3 3 0 016 0z"/><path fill="none" clip-path="url(#a)" d="M322.422 130.12a3 3 0 11-6 0 3 3 0 016 0z"/><path fill="none" clip-path="url(#a)" d="M327.461 132.51a3 3 0 11-6 0 3 3 0 016 0z"/><path fill="none" clip-path="url(#a)" d="M332.5 131.398a3 3 0 11-6 0 3 3 0 016 0z"/><path fill="none" clip-path="url(#a)" d="M337.539 134.564a3 3 0 11-6 0 3 3 0 016 0z"/><path fill="none" clip-path="url(#a)" d="M342.578 133.515a3 3 0 11-6 0 3 3 0 016 0zM347.617 129.368a3 3 0 11-6 0 3 3 0 016 0z"/><path fill="none" clip-path="url(#a)" d="M352.656 131.073a3 3 0 11-6 0 3 3 0 016 0z"/><path fill="none" clip-path="url(#a)" d="M357.695 132.62a3 3 0 11-6 0 3 3 0 016 0z"/><path fill="none" clip-path="url(#a)" d="M362.734 133.759a3 3 0 11-6 0 3 3 0 016 0zM367.773 130.054a3 3 0 11-6 0 3 3 0 016 0z"/><path fill="none" clip-path="url(#a)" d="M372.812 131.065a3 3 0 11-6 0 3 3 0 016 0z"/><path fill="none" clip-path="url(#a)" d="M377.851 130.425a3 3 0 11-6 0 3 3 0 016 0z"/><path fill="none" clip-path="url(#a)" d="M382.89 128.926a3 3 0 11-6 0 3 3 0 016 0z"/><path fill="none" clip-path="url(#a)" d="M387.929 128.589a3 3 0 11-6 0 3 3 0 016 0z"/><path fill="none" clip-path="url(#a)" d="M392.968 126.125a3 3 0 11-6 0 3 3 0 016 0zM398.007 131.731a3 3 0 11-6 0 3 3 0 016 0z"/><path fill="none" clip-path="url(#a)" d="M403.046 131.62a3 3 0 11-6 0 3 3 0 016 0z"/><path fill="none" clip-path="url(#a)" d="M408.085 128.729a3 3 0 11-6 0 3 3 0 016 0z"/><path fill="none" clip-path="url(#a)" d="M413.124 131.065a3 3 0 11-6 0 3 3 0 016 0zM418.163 126.594a3 3 0 11-6 0 3 3 0 016 0z"/><path fill="none" clip-path="url(#a)" d="M423.202 130.33a3 3 0 11-6 0 3 3 0 016 0zM428.241 126.368a3 3 0 11-6 0 3 3 0 016 0zM433.28 132.26a3 3 0 11-6 0 3 3 0 016 0z"/><path fill="none" clip-path="url(#a)" d="M438.319 132.01a3 3 0 11-6 0 3 3 0 016 0zM443.358 127.838a3 3 0 11-6 0 3 3 0 016 0z"/><path fill="none" clip-path="url(#a)" d="M448.397 131.12a3 3 0 11-6 0 3 3 0 016 0z"/><path fill="none" clip-path="url(#a)" d="M453.436 128.837a3 3 0 11-6 0 3 3 0 016 0zM458.475 123.79a3 3 0 11-6 0 3 3 0 016 0zM463.514 130.954a3 3 0 11-6 0 3 3 0 016 0z"/><path fill="none" clip-path="url(#a)" d="M468.553 128.635a3 3 0 11-6 0 3 3 0 016 0z"/><path fill="none" clip-path="url(#a)" d="M473.592 130.093a3 3 0 11-6 0 3 3 0 016 0zM478.631 124.394a3 3 0 11-6 0 3 3 0 016 0z"/><path fill="none" clip-path="url(#a)" d="M483.67 125.272a3 3 0 11-6 0 3 3 0 016 0zM488.709 130.926a3 3 0 11-6 0 3 3 0 016 0zM493.748 122.832a3 3 0 11-6 0 3 3 0 016 0z"/><path fill="none" clip-path="url(#a)" d="M498.787 121.991a3 3 0 11-6 0 3 3 0 016 0z"/><path fill="none" clip-path="url(#a)" d="M503.826 125.066a3 3 0 11-6 0 3 3 0 016 0z"/><path fill="none" clip-path="url(#a)" d="M508.865 124.65a3 3 0 11-6 0 3 3 0 016 0z"/><path fill="none" clip-path="url(#a)" d="M513.904 124.872a3 3 0 11-6 0 3 3 0 016 0z"/><path fill="none" clip-path="url(#a)" d="M518.943 125.65a3 3 0 11-6 0 3 3 0 016 0zM523.982 119.867a3 3 0 11-6 0 3 3 0 016 0z"/><path fill="none" clip-path="url(#a)" d="M529.021 117.936a3 3 0 11-6 0 3 3 0 016 0zM534.06 128.121a3 3 0 11-6 0 3 3 0 016 0z"/><path fill="none" clip-path="url(#a)" d="M539.099 125.871a3 3 0 11-6 0 3 3 0 016 0zM544.138 122.226a3 3 0 11-6 0 3 3 0 016 0zM549.177 126.427a3 3 0 11-6 0 3 3 0 016 0z"/><path fill="none" clip-path="url(#a)" d="M554.216 123.516a3 3 0 11-6 0 3 3 0 016 0z"/><path fill="none" clip-path="url(#a)" d="M559.255 124.635a3 3 0 11-6 0 3 3 0 016 0z"/><path fill="none" clip-path="url(#a)" d="M564.294 121.515a3 3 0 11-6 0 3 3 0 016 0z"/><path fill="none" clip-path="url(#a)" d="M569.333 118.56a3 3 0 11-6 0 3 3 0 016 0z"/><path fill="none" clip-path="url(#a)" d="M574.372 122.18a3 3 0 11-6 0 3 3 0 016 0z"/><path fill="none" clip-path="url(#a)" d="M579.411 119.26a3 3 0 11-6 0 3 3 0 016 0zM584.45 127.149a3 3 0 11-6 0 3 3 0 016 0z"/><path fill="#000" d="M286.047 346.684l1.062-.093q.079.656.36 1.062.281.406.86.672.593.25 1.327.25.64 0 1.14-.188.5-.203.735-.53.25-.345.25-.735 0-.406-.234-.703-.235-.313-.766-.516-.36-.14-1.547-.422-1.171-.281-1.64-.531-.625-.328-.922-.797-.297-.484-.297-1.078 0-.64.36-1.203.374-.578 1.077-.86.72-.296 1.579-.296.953 0 1.687.312.735.297 1.125.906.39.594.422 1.344l-1.094.078q-.094-.812-.61-1.219-.5-.421-1.483-.421-1.032 0-1.5.375-.47.375-.47.906 0 .469.329.765.328.297 1.703.61 1.39.312 1.906.547.75.36 1.11.89.359.516.359 1.22 0 .687-.39 1.296-.391.594-1.126.938-.734.328-1.656.328-1.172 0-1.969-.329-.78-.343-1.234-1.03-.438-.688-.453-1.548zm12.328 2.766v-.922q-.734 1.063-1.984 1.063-.547 0-1.032-.204-.468-.218-.703-.53-.234-.329-.328-.798-.062-.297-.062-.984v-3.844h1.062v3.453q0 .813.063 1.11.093.406.406.656.328.234.812.234.47 0 .875-.234.422-.25.594-.672.188-.422.188-1.219v-3.328h1.046v6.219h-.937zm3.89 0h-.984v-8.594h1.063v3.063q.672-.828 1.703-.828.578 0 1.078.234.516.219.844.64.344.423.531 1.016.188.594.188 1.266 0 1.594-.797 2.469-.797.875-1.891.875-1.11 0-1.734-.922v.781zm-.015-3.156q0 1.11.313 1.61.5.812 1.343.812.688 0 1.188-.594.515-.594.515-1.797 0-1.219-.484-1.797-.484-.578-1.172-.578-.687 0-1.203.61-.5.593-.5 1.734zm6.031-4.203v-1.235h1.063v1.235h-1.063zm-1.328 9.78l.188-.905q.328.078.5.078.328 0 .484-.219.156-.203.156-1.063v-6.53h1.063v6.562q0 1.14-.297 1.594-.39.593-1.266.593-.437 0-.828-.11zm8.594-4.421l1.094.125q-.25.953-.954 1.484-.703.532-1.78.532-1.36 0-2.173-.844-.796-.844-.796-2.36 0-1.562.812-2.421.813-.875 2.094-.875 1.25 0 2.031.843.797.844.797 2.391v.281h-4.64q.062 1.031.577 1.578.516.532 1.297.532.578 0 .985-.297.421-.313.656-.969zm-3.453-1.703h3.469q-.063-.797-.391-1.188-.516-.609-1.313-.609-.734 0-1.234.484-.484.485-.531 1.313zm10.265 1.422l1.032.14q-.172 1.063-.875 1.672-.704.61-1.72.61-1.28 0-2.062-.829-.765-.843-.765-2.406 0-1 .328-1.75.344-.765 1.015-1.14.688-.375 1.5-.375 1 0 1.641.515.656.5.844 1.453l-1.031.157q-.141-.625-.516-.938-.375-.328-.906-.328-.797 0-1.297.578-.5.563-.5 1.797 0 1.266.484 1.828.485.563 1.25.563.625 0 1.031-.375.422-.375.547-1.172zm4.235 1.344l.156.921q-.453.094-.797.094-.578 0-.89-.172-.313-.187-.454-.484-.125-.297-.125-1.25v-3.578h-.765v-.813h.765v-1.547l1.047-.625v2.172h1.063v.813h-1.063v3.64q0 .453.047.578.063.125.188.204.125.078.359.078.188 0 .469-.031zm3.672.937v-8.594h1.062v8.594h-1.062zm7.28-2l1.095.125q-.25.953-.954 1.484-.703.532-1.78.532-1.36 0-2.173-.844-.796-.844-.796-2.36 0-1.562.812-2.421.813-.875 2.094-.875 1.25 0 2.031.843.797.844.797 2.391v.281h-4.64q.062 1.031.577 1.578.516.532 1.297.532.578 0 .985-.297.421-.313.656-.969zm-3.452-1.703h3.469q-.063-.797-.391-1.188-.516-.609-1.313-.609-.734 0-1.234.484-.484.485-.531 1.313zm6.203 3.703v-6.219h.937v.875q.688-1.015 1.985-1.015.562 0 1.031.203.484.203.719.531.234.328.328.766.047.296.047 1.03v3.829h-1.047v-3.781q0-.656-.125-.969-.125-.313-.438-.5-.312-.203-.734-.203-.672 0-1.172.437-.484.422-.484 1.61v3.406h-1.047zm6.797.516l1.031.156q.063.469.36.687.39.297 1.062.297.734 0 1.125-.297.406-.297.547-.812.094-.328.078-1.36-.688.813-1.719.813-1.281 0-1.984-.922-.703-.937-.703-2.219 0-.89.312-1.64.328-.766.938-1.172.609-.406 1.437-.406 1.11 0 1.828.89v-.75h.969v5.375q0 1.453-.297 2.063-.297.61-.937.953-.641.36-1.579.36-1.109 0-1.796-.5-.688-.5-.672-1.516zm.875-3.735q0 1.219.484 1.781.485.563 1.219.563.734 0 1.219-.563.5-.562.5-1.75 0-1.14-.516-1.718-.5-.578-1.219-.578-.703 0-1.203.578-.484.562-.484 1.687zm8.625 2.281l.156.922q-.453.094-.797.094-.578 0-.89-.172-.313-.187-.454-.484-.125-.297-.125-1.25v-3.578h-.765v-.813h.765v-1.547l1.047-.625v2.172h1.063v.813h-1.063v3.64q0 .453.047.578.063.125.188.204.125.078.359.078.188 0 .469-.031zm.703.938v-8.594h1.047v3.078q.734-.843 1.86-.843.702 0 1.202.28.516.267.735.75.218.47.218 1.392v3.937h-1.046v-3.938q0-.796-.344-1.156-.344-.36-.969-.36-.469 0-.89.25-.407.235-.594.657-.172.406-.172 1.14v3.407h-1.047zm10 0v-6.219h.937v.875q.688-1.015 1.985-1.015.562 0 1.031.203.484.203.719.531.234.328.328.766.047.296.047 1.03v3.829h-1.047v-3.781q0-.656-.125-.969-.125-.313-.438-.5-.312-.203-.734-.203-.672 0-1.172.437-.484.422-.484 1.61v3.406h-1.047zM29.55 223.246h-8.594v-3.813q0-1.156.235-1.75.234-.593.828-.953.578-.36 1.281-.36.922 0 1.547.595.625.593.797 1.828.219-.453.422-.688.453-.5 1.14-.937l2.344-1.5v1.437l-1.781 1.125q-.781.5-1.188.828-.406.313-.562.578-.172.25-.25.516-.031.188-.031.625v1.328h3.812v1.14zm-4.797-1.14v-2.454q0-.766-.156-1.203-.172-.453-.516-.672-.36-.234-.781-.234-.61 0-1 .453-.39.437-.39 1.39v2.72h2.843zm4.797-11.798h-.922q1.063.735 1.063 1.985 0 .547-.203 1.031-.22.469-.532.703-.328.234-.797.328-.296.063-.984.063h-3.844v-1.063h3.453q.813 0 1.11-.062.406-.094.656-.407.234-.328.234-.812 0-.469-.234-.875-.25-.422-.672-.594-.422-.187-1.219-.187h-3.328v-1.047h6.219v.937zm0-2.922h-6.219v-.937h.875q-1.015-.688-1.015-1.984 0-.563.203-1.032.203-.484.531-.718.328-.235.766-.329.297-.046 1.03-.046h3.829v1.046h-3.781q-.656 0-.969.125-.312.125-.5.438-.203.312-.203.734 0 .672.437 1.172.422.485 1.61.485h3.406v1.046zm-.937-9.296l.921-.157q.094.453.094.797 0 .578-.172.89-.187.313-.484.454-.297.125-1.25.125h-3.578v.766h-.813v-.766h-1.547l-.625-1.047h2.172v-1.062h.813v1.062h3.64q.454 0 .579-.047.125-.062.203-.187.078-.125.078-.36 0-.187-.031-.468zm-6.438-.704h-1.219v-1.062h1.219v1.062zm7.375 0h-6.219v-1.062h6.219v1.062zm0-3h-6.219v-.937h.875q-.468-.297-.734-.781-.281-.485-.281-1.11 0-.687.28-1.125.282-.453.798-.625-1.078-.75-1.078-1.922 0-.937.515-1.421.5-.5 1.578-.5h4.266v1.046h-3.922q-.625 0-.906.11-.281.094-.453.36-.172.265-.172.64 0 .656.437 1.094.438.421 1.407.421h3.609v1.063h-4.047q-.703 0-1.047.266-.36.25-.36.828 0 .453.235.828.235.375.688.547.453.172 1.297.172h3.234v1.046zm-2-14.25l.125-1.093q.953.25 1.484.953.532.703.532 1.781 0 1.36-.844 2.172-.844.797-2.36.797-1.562 0-2.421-.813-.875-.812-.875-2.093 0-1.25.843-2.032.844-.797 2.391-.797h.281v4.641q1.032-.062 1.578-.578.532-.516.532-1.297 0-.578-.297-.984-.313-.422-.969-.657zm-1.703 3.454v-3.47q-.797.063-1.188.391-.609.516-.609 1.313 0 .734.484 1.234.485.485 1.313.532zm6.234-11.22q-1.11.876-2.578 1.485-1.484.594-3.062.594-1.391 0-2.672-.438-1.485-.53-2.953-1.64v-.75q1.218.703 1.734.937.813.36 1.688.563 1.093.25 2.203.25 2.828 0 5.64-1.75v.75zm-2.531-1.984h-6.219v-.937h.875q-.468-.297-.734-.781-.281-.485-.281-1.11 0-.687.28-1.125.282-.453.798-.625-1.078-.75-1.078-1.922 0-.937.515-1.421.5-.5 1.578-.5h4.266v1.046h-3.922q-.625 0-.906.11-.281.094-.453.36-.172.265-.172.64 0 .656.437 1.094.438.421 1.407.421h3.609v1.063h-4.047q-.703 0-1.047.266-.36.25-.36.828 0 .453.235.828.235.375.688.547.453.172 1.297.172h3.234v1.046zm-1.86-9.578l-.156-1.03q.625-.095.954-.485.328-.407.328-1.14 0-.72-.282-1.063-.296-.36-.703-.36-.36 0-.562.313-.14.218-.36 1.078-.296 1.156-.5 1.61-.218.437-.593.671-.375.234-.844.234-.406 0-.766-.187-.36-.188-.593-.516-.172-.25-.297-.672-.125-.421-.125-.921 0-.72.218-1.266.204-.563.563-.828.36-.266.953-.36l.14 1.032q-.468.062-.734.406-.281.328-.281.953 0 .719.25 1.031.234.313.563.313.203 0 .359-.125.172-.14.281-.406.063-.157.266-.938.312-1.125.5-1.562.187-.438.547-.688.359-.25.906-.25.531 0 1 .313.453.296.719.875.25.578.25 1.312 0 1.219-.5 1.86-.516.624-1.5.796zm4.391-7.109v.75q-2.812-1.75-5.64-1.75-1.094 0-2.188.25-.875.203-1.687.562-.516.235-1.75.938v-.75q1.468-1.094 2.953-1.625 1.281-.453 2.672-.453 1.578 0 3.062.61 1.469.609 2.578 1.468zM65.05 300.216q0-1.532.313-2.454.312-.937.921-1.437.625-.5 1.563-.5.687 0 1.203.281.531.281.875.813.344.515.531 1.265.188.75.188 2.032 0 1.515-.313 2.437-.297.922-.922 1.438-.609.5-1.562.5-1.234 0-1.953-.891-.844-1.063-.844-3.484zm1.078 0q0 2.109.5 2.812.5.703 1.219.703.734 0 1.219-.703.5-.703.5-2.812 0-2.125-.5-2.813-.485-.703-1.235-.703-.719 0-1.156.61-.547.78-.547 2.906zM55.05 240.582q0-1.531.313-2.453.312-.937.921-1.437.625-.5 1.563-.5.687 0 1.203.28.531.282.875.813.344.516.531 1.266.188.75.188 2.031 0 1.516-.313 2.438-.297.922-.922 1.437-.609.5-1.562.5-1.235 0-1.953-.89-.844-1.063-.844-3.485zm1.078 0q0 2.11.5 2.813.5.703 1.219.703.734 0 1.219-.703.5-.703.5-2.813 0-2.125-.5-2.812-.485-.703-1.235-.703-.719 0-1.156.609-.547.781-.547 2.906zm6.516 4.235v-1.203h1.203v1.203h-1.203zm6.375 0h-1.047v-6.72q-.39.36-1.016.735-.61.36-1.094.532v-1.016q.876-.422 1.532-1 .672-.594.953-1.156h.672v8.625zM55.05 180.949q0-1.531.313-2.453.312-.938.921-1.438.625-.5 1.563-.5.687 0 1.203.282.531.28.875.812.344.516.531 1.266.188.75.188 2.031 0 1.516-.313 2.437-.297.922-.922 1.438-.609.5-1.562.5-1.235 0-1.953-.89-.844-1.063-.844-3.485zm1.078 0q0 2.11.5 2.812.5.704 1.219.704.734 0 1.219-.704.5-.703.5-2.812 0-2.125-.5-2.813-.485-.703-1.235-.703-.719 0-1.156.61-.547.781-.547 2.906zm6.516 4.234v-1.203h1.203v1.203h-1.203zm7.953-1.015v1.015h-5.688q0-.375.125-.734.22-.578.688-1.14.484-.563 1.39-1.298 1.407-1.156 1.891-1.828.5-.672.5-1.265 0-.625-.453-1.047-.453-.438-1.172-.438-.766 0-1.219.453-.453.454-.468 1.266l-1.079-.11q.11-1.218.829-1.843.734-.64 1.968-.64 1.235 0 1.953.687.72.687.72 1.703 0 .516-.22 1.016-.203.484-.703 1.046-.484.547-1.609 1.5-.953.797-1.234 1.094-.266.281-.438.563h4.219zM55.05 121.316q0-1.532.313-2.454.312-.937.921-1.437.625-.5 1.563-.5.687 0 1.203.281.531.281.875.813.344.515.531 1.265.188.75.188 2.032 0 1.515-.313 2.437-.297.922-.922 1.438-.609.5-1.562.5-1.235 0-1.953-.891-.844-1.063-.844-3.484zm1.078 0q0 2.109.5 2.812.5.703 1.219.703.734 0 1.219-.703.5-.703.5-2.812 0-2.125-.5-2.813-.485-.703-1.235-.703-.719 0-1.156.61-.547.78-.547 2.906zm6.516 4.234v-1.203h1.203v1.203h-1.203zm2.406-2.266l1.063-.14q.171.89.609 1.297.437.39 1.062.39.75 0 1.266-.515.516-.516.516-1.282 0-.718-.485-1.187-.469-.484-1.203-.484-.297 0-.75.124l.125-.937q.11.016.172.016.672 0 1.203-.344.547-.36.547-1.094 0-.578-.39-.953-.391-.39-1.016-.39-.61 0-1.032.39-.406.39-.515 1.156l-1.063-.187q.188-1.047.875-1.625.688-.594 1.703-.594.704 0 1.297.313.594.296.907.812.312.516.312 1.11 0 .546-.297 1.015-.297.453-.875.719.75.172 1.172.734.422.547.422 1.39 0 1.126-.828 1.907-.813.781-2.063.781-1.125 0-1.875-.672-.75-.687-.859-1.75zM55.05 61.682q0-1.531.313-2.453.312-.937.921-1.437.625-.5 1.563-.5.687 0 1.203.28.531.282.875.813.344.516.531 1.266.188.75.188 2.031 0 1.516-.313 2.438-.297.922-.922 1.437-.609.5-1.562.5-1.235 0-1.953-.89-.844-1.063-.844-3.485zm1.078 0q0 2.11.5 2.813.5.703 1.219.703.734 0 1.219-.703.5-.703.5-2.813 0-2.125-.5-2.812-.485-.703-1.235-.703-.719 0-1.156.609-.547.781-.547 2.906zm6.516 4.235v-1.203h1.203v1.203h-1.203zm5.781 0v-2.063h-3.719v-.969l3.922-5.562h.86v5.562h1.156v.97h-1.157v2.062h-1.062zm0-3.032v-3.859l-2.688 3.86h2.688zM74.55 313.216q0-1.532.313-2.454.312-.937.921-1.437.625-.5 1.563-.5.687 0 1.203.281.531.281.875.813.344.515.531 1.265.188.75.188 2.032 0 1.515-.313 2.437-.297.922-.922 1.438-.609.5-1.562.5-1.234 0-1.953-.891-.844-1.063-.844-3.484zm1.078 0q0 2.109.5 2.812.5.703 1.219.703.734 0 1.219-.703.5-.703.5-2.812 0-2.125-.5-2.813-.485-.703-1.235-.703-.719 0-1.156.61-.547.78-.547 2.906zM202.572 316.434v1.016h-5.688q0-.375.125-.734.22-.579.688-1.141.484-.563 1.39-1.297 1.407-1.156 1.891-1.828.5-.672.5-1.266 0-.625-.453-1.047-.453-.437-1.172-.437-.766 0-1.219.453-.453.453-.468 1.266l-1.078-.11q.109-1.218.828-1.843.734-.641 1.968-.641 1.235 0 1.954.688.718.687.718 1.703 0 .515-.219 1.015-.203.485-.703 1.047-.484.547-1.609 1.5-.953.797-1.234 1.094-.266.281-.438.562h4.219zm1.453-1.234l1.11-.094q.124.813.562 1.219.453.406 1.094.406.75 0 1.28-.578.532-.578.532-1.516 0-.906-.516-1.421-.5-.532-1.328-.532-.5 0-.921.235-.407.234-.641.594l-.984-.125.828-4.407h4.28v1h-3.437l-.453 2.313q.766-.547 1.61-.547 1.125 0 1.89.781.781.781.781 2.016 0 1.156-.671 2.015-.828 1.032-2.25 1.032-1.172 0-1.922-.657-.735-.656-.844-1.734zM323 315.2l1.11-.094q.124.813.562 1.219.453.406 1.094.406.75 0 1.28-.578.532-.578.532-1.516 0-.906-.515-1.421-.5-.532-1.329-.532-.5 0-.921.235-.407.234-.641.594l-.985-.125.829-4.407h4.28v1h-3.437l-.453 2.313q.766-.547 1.61-.547 1.125 0 1.89.781.781.781.781 2.016 0 1.156-.671 2.015-.829 1.032-2.25 1.032-1.172 0-1.922-.657-.735-.656-.844-1.734zm7-1.984q0-1.532.313-2.454.312-.937.921-1.437.625-.5 1.563-.5.687 0 1.203.281.531.281.875.813.344.515.531 1.265.188.75.188 2.032 0 1.515-.313 2.437-.297.922-.922 1.438-.609.5-1.562.5-1.235 0-1.953-.891-.844-1.063-.844-3.484zm1.078 0q0 2.109.5 2.812.5.703 1.219.703.734 0 1.219-.703.5-.703.5-2.812 0-2.125-.5-2.813-.485-.703-1.235-.703-.719 0-1.156.61-.547.78-.547 2.906zM449.038 309.981v-1.015h5.562v.828q-.813.875-1.625 2.328-.797 1.437-1.234 2.969-.328 1.078-.407 2.359h-1.093q.015-1.016.39-2.453.39-1.438 1.094-2.766.719-1.328 1.531-2.25h-4.218zm6.937 5.219l1.11-.094q.124.813.562 1.219.453.406 1.094.406.75 0 1.28-.578.532-.578.532-1.516 0-.906-.515-1.421-.5-.532-1.329-.532-.5 0-.921.235-.407.234-.641.594l-.984-.125.828-4.407h4.28v1h-3.437l-.453 2.313q.766-.547 1.61-.547 1.125 0 1.89.781.782.781.782 2.016 0 1.156-.672 2.015-.828 1.032-2.25 1.032-1.172 0-1.922-.657-.735-.656-.844-1.734zM575.419 317.45h-1.047v-6.719q-.39.36-1.016.735-.61.359-1.093.53v-1.015q.875-.422 1.53-1 .673-.594.954-1.156h.672v8.625zm3.031-4.234q0-1.532.313-2.454.312-.937.921-1.437.625-.5 1.563-.5.687 0 1.203.281.531.281.875.813.344.515.531 1.265.188.75.188 2.032 0 1.515-.313 2.437-.297.922-.922 1.438-.609.5-1.562.5-1.234 0-1.953-.891-.844-1.063-.844-3.484zm1.078 0q0 2.109.5 2.812.5.703 1.219.703.734 0 1.219-.703.5-.703.5-2.812 0-2.125-.5-2.813-.485-.703-1.235-.703-.718 0-1.156.61-.547.78-.547 2.906zm5.922 0q0-1.532.313-2.454.312-.937.921-1.437.625-.5 1.563-.5.687 0 1.203.281.531.281.875.813.344.515.531 1.265.188.75.188 2.032 0 1.515-.313 2.437-.297.922-.922 1.438-.609.5-1.562.5-1.234 0-1.953-.891-.844-1.063-.844-3.484zm1.078 0q0 2.109.5 2.812.5.703 1.219.703.734 0 1.219-.703.5-.703.5-2.812 0-2.125-.5-2.813-.485-.703-1.235-.703-.718 0-1.156.61-.547.78-.547 2.906z"/><path fill="#757575" d="M20.284 38.769h-1.562l5.937-15.438h1.547L20.284 38.77zm7.563-6.985q0-2.218.594-4.25.593-2.03 1.765-3.687 1.172-1.656 2.422-2.344l.375 1.188q-1.422 1.093-2.344 3.343-.906 2.25-1 5.032v.828q0 3.765 1.375 6.547.829 1.656 1.97 2.593l-.376 1.11q-1.297-.719-2.469-2.422-2.312-3.328-2.312-7.938zM41.44 37.55q-.157-.313-.25-1.11-1.266 1.313-3.016 1.313-1.563 0-2.563-.89-1-.891-1-2.25 0-1.641 1.25-2.547 1.266-.922 3.532-.922h1.765v-.828q0-.953-.578-1.516-.562-.563-1.656-.563-.969 0-1.625.5-.656.485-.656 1.172H34.83q0-.78.563-1.515.562-.75 1.515-1.172.97-.438 2.125-.438 1.828 0 2.86.922 1.031.907 1.078 2.516v4.86q0 1.452.36 2.312v.156H41.44zm-3-1.375q.859 0 1.609-.438.766-.437 1.11-1.14v-2.172h-1.422q-3.313 0-3.313 1.938 0 .859.563 1.343.562.469 1.453.469zm9.328-8.219l-2.938-.89.438-1.47 2.953 1.095-.094-3.36h1.5l-.094 3.407 2.891-1.079.453 1.485-3 .89 1.938 2.657-1.204.906-1.828-2.813-1.75 2.75-1.218-.89 1.953-2.688zm11.312 3.922q0 2.172-.578 4.172-.562 2-1.734 3.688-1.172 1.687-2.469 2.406l-.375-1.11q1.5-1.156 2.406-3.578.922-2.422.938-5.39v-.313q0-2.047-.438-3.812-.422-1.766-1.187-3.157-.766-1.39-1.719-2.171l.375-1.11q1.297.719 2.453 2.39 1.172 1.657 1.75 3.673.578 2.015.578 4.312zm4.688-3.922l-2.938-.89.438-1.47 2.953 1.095-.094-3.36h1.5l-.094 3.407 2.891-1.079.453 1.485-3 .89 1.938 2.657-1.204.906-1.828-2.813-1.75 2.75-1.218-.89 1.953-2.688zm16.093 4.422q0 2.422-1.109 3.906-1.11 1.47-2.984 1.47-2.016 0-3.11-1.423l-.078 1.219h-1.656v-15h1.797v5.594q1.094-1.36 3.016-1.36 1.921 0 3.015 1.454 1.11 1.453 1.11 3.984v.156zm-1.812-.203q0-1.844-.719-2.844-.703-1.015-2.031-1.015-1.797 0-2.578 1.672v4.562q.828 1.656 2.594 1.656 1.296 0 2.015-1 .719-1 .719-3.031zm4.234 6.594h-1.562l5.937-15.438h1.547L82.284 38.77zm7.672-2.172q0-.469.281-.781.282-.313.829-.313.562 0 .843.313.297.312.297.78 0 .454-.297.767-.28.296-.843.296-.547 0-.829-.297-.28-.312-.28-.765zm9.344 1.156q-2.14 0-3.5-1.406-1.344-1.422-1.344-3.781v-.344q0-1.563.594-2.797.61-1.234 1.688-1.938 1.078-.703 2.343-.703 2.063 0 3.203 1.36 1.141 1.36 1.141 3.89v.75h-7.156q.031 1.563.906 2.532.875.953 2.219.953.968 0 1.625-.39.672-.392 1.172-1.032l1.093.86q-1.328 2.046-3.984 2.046zm-.219-9.484q-1.094 0-1.844.797-.734.797-.906 2.234h5.281v-.14q-.078-1.376-.75-2.126-.656-.765-1.78-.765zm10.375 2.578l2.344-3.86h2.11l-3.454 5.22 3.563 5.343h-2.078l-2.454-3.953-2.437 3.953h-2.094l3.563-5.344-3.453-5.219h2.078l2.312 3.86zm10.844 6.906q-2.14 0-3.5-1.406-1.344-1.422-1.344-3.781v-.344q0-1.563.594-2.797.61-1.234 1.688-1.938 1.078-.703 2.343-.703 2.063 0 3.203 1.36 1.141 1.36 1.141 3.89v.75h-7.156q.031 1.563.906 2.532.875.953 2.219.953.968 0 1.625-.39.672-.392 1.172-1.032l1.093.86q-1.328 2.046-3.984 2.046zm-.219-9.484q-1.094 0-1.844.797-.734.797-.906 2.234h5.281v-.14q-.078-1.376-.75-2.126-.656-.765-1.78-.765zm11.078 8q.97 0 1.688-.578.719-.594.797-1.47h1.719q-.063.907-.641 1.735-.563.813-1.531 1.313-.953.484-2.032.484-2.156 0-3.437-1.437-1.266-1.454-1.266-3.954v-.296q0-1.547.563-2.75.562-1.203 1.625-1.86 1.062-.672 2.5-.672 1.781 0 2.953 1.063 1.187 1.062 1.266 2.765h-1.72q-.077-1.015-.78-1.671-.688-.672-1.72-.672-1.374 0-2.14 1-.75.984-.75 2.86v.343q0 1.828.75 2.812.75.985 2.156.985zm5.688-4.485q0-2.218.594-4.25.593-2.03 1.765-3.687 1.172-1.656 2.422-2.344l.375 1.188q-1.422 1.093-2.344 3.343-.906 2.25-1 5.032v.828q0 3.765 1.375 6.547.829 1.656 1.97 2.593l-.376 1.11q-1.297-.719-2.469-2.422-2.312-3.328-2.312-7.938zm8.172-8.156l-.203 3.594h-1.266l.016-4.672h1.453v1.078zm8.422 13.922q-.157-.313-.25-1.11-1.266 1.313-3.016 1.313-1.563 0-2.563-.89-1-.891-1-2.25 0-1.641 1.25-2.547 1.266-.922 3.532-.922h1.765v-.828q0-.953-.578-1.516-.562-.563-1.656-.563-.969 0-1.625.5-.656.485-.656 1.172h-1.813q0-.78.563-1.515.562-.75 1.515-1.172.97-.438 2.125-.438 1.829 0 2.86.922 1.031.907 1.078 2.516v4.86q0 1.452.36 2.312v.156h-1.891zm-3-1.375q.859 0 1.609-.438.766-.437 1.11-1.14v-2.172h-1.422q-3.313 0-3.313 1.938 0 .859.563 1.343.562.469 1.453.469zm8.578-12.547l-.203 3.594h-1.266l.016-4.672h1.453v1.078zm1.937 12.969q0-.469.282-.781.28-.313.828-.313.562 0 .843.313.297.312.297.78 0 .454-.297.767-.28.296-.843.296-.547 0-.828-.297-.282-.312-.282-.765zm10.063-8q-.406-.063-.875-.063-1.781 0-2.422 1.516v7.5h-1.797V26.988h1.75l.031 1.218q.89-1.422 2.516-1.422.531 0 .797.141v1.672zm6.281 9.156q-2.14 0-3.5-1.406-1.344-1.422-1.344-3.781v-.344q0-1.563.594-2.797.61-1.234 1.688-1.938 1.078-.703 2.343-.703 2.063 0 3.203 1.36 1.141 1.36 1.141 3.89v.75h-7.156q.031 1.563.906 2.532.875.953 2.219.953.969 0 1.625-.39.672-.392 1.172-1.032l1.093.86q-1.328 2.046-3.984 2.046zm-.219-9.484q-1.093 0-1.843.797-.735.797-.907 2.234h5.282v-.14q-.079-1.376-.75-2.126-.657-.765-1.782-.765zm15.766 4.11q0 2.421-1.11 3.905-1.093 1.47-2.984 1.47-1.922 0-3.031-1.235v5.093h-1.797V26.987h1.64l.094 1.172q1.094-1.375 3.063-1.375 1.906 0 3.016 1.438 1.109 1.437 1.109 4v.156zm-1.813-.204q0-1.781-.765-2.812-.75-1.047-2.078-1.047-1.641 0-2.47 1.453v5.062q.813 1.438 2.485 1.438 1.297 0 2.063-1.032.765-1.03.765-3.062zm8.266 5.578q-2.14 0-3.5-1.406-1.344-1.422-1.344-3.781v-.344q0-1.563.594-2.797.61-1.234 1.688-1.938 1.078-.703 2.343-.703 2.063 0 3.203 1.36 1.141 1.36 1.141 3.89v.75h-7.156q.031 1.563.906 2.532.875.953 2.219.953.969 0 1.625-.39.672-.392 1.172-1.032l1.093.86q-1.328 2.046-3.984 2.046zm-.219-9.484q-1.093 0-1.843.797-.735.797-.907 2.234h5.282v-.14q-.079-1.376-.75-2.126-.657-.765-1.782-.765zm13.36 9.281q-.157-.313-.25-1.11-1.266 1.313-3.016 1.313-1.563 0-2.563-.89-1-.891-1-2.25 0-1.641 1.25-2.547 1.266-.922 3.532-.922h1.765v-.828q0-.953-.578-1.516-.562-.563-1.656-.563-.969 0-1.625.5-.656.485-.656 1.172h-1.813q0-.78.563-1.515.562-.75 1.515-1.172.97-.438 2.125-.438 1.829 0 2.86.922 1.031.907 1.078 2.516v4.86q0 1.452.36 2.312v.156h-1.891zm-3-1.375q.859 0 1.609-.438.766-.437 1.11-1.14v-2.172h-1.422q-3.313 0-3.313 1.938 0 .859.563 1.343.562.469 1.453.469zm9.922-11.75v2.563h1.984v1.39h-1.984v6.547q0 .64.265.969.266.312.906.312.313 0 .86-.125v1.469q-.719.203-1.39.203-1.204 0-1.829-.734-.61-.735-.61-2.094v-6.547h-1.921v-1.39h1.922v-2.563h1.797zm4.484 7.36q0-2.22.594-4.25.593-2.032 1.765-3.688 1.172-1.656 2.422-2.344l.375 1.188q-1.422 1.093-2.344 3.343-.906 2.25-1 5.032v.828q0 3.765 1.375 6.547.829 1.656 1.97 2.593l-.376 1.11q-1.297-.719-2.469-2.422-2.312-3.328-2.312-7.938zm8.781-4.797l.063 1.328q1.203-1.532 3.156-1.532 3.36 0 3.375 3.782v6.984h-1.797v-7q-.016-1.14-.531-1.688-.5-.546-1.594-.546-.875 0-1.547.468-.656.47-1.031 1.235v7.531h-1.797V26.988h1.703zm13.453 4.89q0 2.172-.578 4.172-.562 2-1.734 3.688-1.172 1.687-2.469 2.406l-.375-1.11q1.5-1.156 2.406-3.578.922-2.422.938-5.39v-.313q0-2.047-.438-3.812-.422-1.766-1.187-3.157-.766-1.39-1.719-2.171l.375-1.11q1.297.719 2.453 2.39 1.172 1.657 1.75 3.673.578 2.015.578 4.312zm7 0q0 2.172-.578 4.172-.562 2-1.734 3.688-1.172 1.687-2.469 2.406l-.375-1.11q1.5-1.156 2.406-3.578.922-2.422.938-5.39v-.313q0-2.047-.438-3.812-.422-1.766-1.187-3.157-.766-1.39-1.719-2.171l.375-1.11q1.297.719 2.453 2.39 1.172 1.657 1.75 3.673.578 2.015.578 4.312z"/></svg>