<svg fill="none" height="337" stroke-linecap="square" stroke-miterlimit="10" width="809" xmlns="http://www.w3.org/2000/svg" xmlns:xlink="http://www.w3.org/1999/xlink"><clipPath id="a"><path d="m79.85 24.35h712.3v248.567h-712.3z"/></clipPath><path d="m0 0h809v337h-809z" fill="#fff"/><path d="m79.5 272.5h713" stroke="#333" stroke-linecap="butt"/><path d="m79.5 210.5h713m-713-62h713m-713-62h713m-713-62h713" stroke="#ccc" stroke-linecap="butt"/><path clip-path="url(#a)" d="m332 273h-68v-247a2 2 0 0 1 2-2h64a2 2 0 0 1 2 2z"/><path clip-path="url(#a)" d="m332 273h-68v-247a2 2 0 0 1 2-2h64a2 2 0 0 1 2 2z" fill="#7dce59"/><path clip-path="url(#a)" d="m401 273h-68v-104a2 2 0 0 1 2-2h64a2 2 0 0 1 2 2z"/><path clip-path="url(#a)" d="m401 273h-68v-104a2 2 0 0 1 2-2h64a2 2 0 0 1 2 2z" fill="#18a5f7"/><path clip-path="url(#a)" d="m470 273h-68v-54a2 2 0 0 1 2-2h64a2 2 0 0 1 2 2z"/><path clip-path="url(#a)" d="m470 273h-68v-54a2 2 0 0 1 2-2h64a2 2 0 0 1 2 2z" fill="#f5b940"/><path clip-path="url(#a)" d="m539 273h-68v-88a2 2 0 0 1 2-2h64a2 2 0 0 1 2 2z"/><path clip-path="url(#a)" d="m539 273h-68v-88a2 2 0 0 1 2-2h64a2 2 0 0 1 2 2z" fill="#f24c16"/><path clip-path="url(#a)" d="m608 273h-68v-33a2 2 0 0 1 2-2h64a2 2 0 0 1 2 2z"/><path clip-path="url(#a)" d="m608 273h-68v-33a2 2 0 0 1 2-2h64a2 2 0 0 1 2 2z" fill="#b85982"/><path d="m28.975 287.415q-.031.812-.406 1.421-.375.594-1.094.938-.734.344-1.64.375-.72.031-1.75-.156-1.048-.188-1.876-.657-.843-.484-1.359-1.171-.672-.922-.656-2.094.031-1.25.875-1.969.843-.719 2.265-.766.625-.03 1.578.125.938.141 1.766.532.813.375 1.36.968.953 1.032.937 2.454zm-5.36-3q-1.156-.032-1.796.406-.64.437-.657 1.297-.03.797.422 1.422.438.609 1.328 1 .891.39 2.25.5l.375.015q1.157.047 1.813-.39.64-.454.672-1.313.031-1.11-.797-1.828-.844-.734-2.344-.969-.734-.125-1.265-.14zm2.094-7.454q.97.11 1.75.516.766.406 1.157 1.016.375.593.359 1.312-.031 1.11-.75 1.688l3.062.562v1.063l-8.78-1.516v-.969l.702.125q-.843-.78-.812-1.89.015-.907.672-1.407.64-.515 1.797-.546.375-.016.718.03zm-.125 1.047-.484-.03q-.86 0-1.313.327-.453.313-.484.938-.016.922.875 1.578l3.047.531q.844-.344.86-1.281.015-.781-.61-1.328-.64-.563-1.89-.735zm3.391-5.047q-.031 1.188-.875 1.86-.86.656-2.188.547l-.25-.032q-.937-.093-1.718-.546-.782-.47-1.172-1.125-.39-.672-.375-1.438.015-.969.64-1.531.625-.563 1.704-.61.375-.015.765.032l.485.062v4.14q.859.11 1.468-.28.594-.391.625-1.172.016-.938-.843-1.735l.515-.609q.578.406.906 1.031.313.625.313 1.406zm-5.703-.671q-.016.656.453 1.14.453.485 1.375.781v-3.093l-.094-.016q-.734-.094-1.219.234-.5.329-.515.954zm.203-6.532-.047.5q0 1.016.922 1.61l4.5.765v1.063l-6.344-1.094v-1.031l.735.156q-.891-.672-.86-1.578 0-.203.094-.516zm5.375-3.937q-.172.047-.328.047l-.344-.016q.813.86.797 1.844-.016.844-.531 1.375-.532.515-1.313.469-1-.063-1.562-.875-.563-.829-.563-2.172v-1.11l-.5-.078q-.578-.047-.906.235-.328.265-.344.828-.015.547.266.968.281.407.734.5l.016 1.079q-.563-.063-.985-.438-.437-.375-.671-.969-.235-.609-.235-1.25.031-.984.61-1.53.578-.563 1.53-.47l3.141.516.454.031q.312.016.64-.078l.094.016zm-.828 1.672q.015-.516-.235-.969-.25-.453-.703-.781l-1.312-.235v.813q0 1 .312 1.531.313.531.891.594.453.062.75-.203.297-.266.297-.75zm-7.047-6.594 1.531.266v-1.157l.844.157v1.14l3.937.672q.157.016.282 0 .453-.047.453-.5 0-.187-.047-.516l.875.079q.11.39.11.78-.016.626-.47.954-.453.312-1.218.234l-3.922-.64v1.125l-.844-.157v-1.109l-1.531-.266v-1.061zm7.875-2.344v1.047l-6.344-1.094v-1.062l6.344 1.11zm-8.656-.875q-.016-.265.156-.437.172-.188.453-.188t.469.172q.172.172.187.453 0 .281-.172.453-.171.172-.437.172-.281-.015-.453-.172-.188-.172-.203-.453zm2.203-4.5q0-.797.422-1.36.422-.577 1.172-.843.734-.281 1.625-.187l.125.015q.921.11 1.671.547.75.438 1.172 1.14.407.688.391 1.532-.016.781-.438 1.36-.421.562-1.14.827-.735.266-1.61.188-.984-.078-1.765-.516-.797-.453-1.219-1.156-.437-.703-.406-1.547zm3.39 2.156q.375.047.766 0 .703-.062 1.11-.406.406-.36.421-.953.016-.531-.25-.969-.28-.453-.843-.75-.563-.312-1.25-.39-.547-.047-.907-.032-.718.079-1.125.438-.406.36-.437.953-.016.813.656 1.39.656.579 1.734.704zm-3.28-7.734.796.14q-.937-.843-.906-1.937.015-.89.625-1.312.594-.438 1.672-.328l4.156.687v1.063l-4.172-.704q-.281-.03-.531 0-.828.094-.844.97-.016.952 1.016 1.671l4.531.781v1.063l-6.344-1.094v-1zm4.624-7.828q-.656-.094-.922.719l-.328 1.11q-.484 1.39-1.594 1.343-.828-.047-1.359-.766-.547-.719-.531-1.703 0-.953.562-1.547.547-.61 1.422-.594l-.015 1.063q-.47-.016-.766.297-.297.312-.313.828-.015.547.266.937.266.375.703.438.547.078.797-.672l.14-.531q.282-1.094.735-1.547.453-.469 1.125-.422.594.031 1.031.39.438.344.672.938.235.578.219 1.235-.016 1.015-.594 1.671-.578.657-1.484.625v-1.062q.531 0 .86-.328.312-.344.312-.938.015-.578-.235-1-.25-.422-.703-.484zm-1.422-10.813q.97.11 1.75.516.766.406 1.157 1.016.375.593.359 1.312-.031 1.11-.75 1.688l3.062.562v1.063l-8.78-1.516v-.969l.702.125q-.843-.78-.812-1.89.015-.907.672-1.407.64-.515 1.797-.546.375-.016.718.03zm-.125 1.047-.484-.03q-.86 0-1.313.327-.453.313-.484.938-.016.922.875 1.578l3.047.531q.844-.344.86-1.281.015-.781-.61-1.328-.64-.563-1.89-.735zm3.391-5.047q-.031 1.188-.875 1.86-.86.656-2.188.547l-.25-.032q-.937-.093-1.718-.546-.782-.47-1.172-1.125-.39-.672-.375-1.438.015-.969.64-1.531.625-.563 1.704-.61.375-.015.765.032l.485.062v4.14q.859.11 1.468-.28.594-.391.625-1.172.016-.938-.843-1.735l.515-.609q.578.406.906 1.031.313.625.313 1.406zm-5.703-.671q-.016.656.453 1.14.453.485 1.375.781v-3.093l-.094-.016q-.734-.094-1.219.234-.5.329-.515.954zm.203-6.532-.047.5q0 1.016.922 1.61l4.5.765v1.063l-6.344-1.094v-1.031l.735.156q-.891-.672-.86-1.578 0-.203.094-.516zm3.656-6.984q-.656-.094-.922.719l-.328 1.11q-.484 1.39-1.594 1.343-.828-.047-1.359-.766-.547-.719-.531-1.703 0-.953.562-1.547.547-.61 1.422-.594l-.015 1.063q-.47-.016-.766.297-.297.312-.313.828-.015.547.266.937.266.375.703.438.547.078.797-.672l.14-.531q.282-1.094.735-1.547.453-.469 1.125-.422.594.031 1.031.39.438.344.672.938.235.578.219 1.235-.016 1.015-.594 1.671-.578.657-1.484.625v-1.062q.531 0 .86-.328.312-.344.312-.938.015-.578-.235-1-.25-.422-.703-.484zm1.844-4.813q-.031 1.188-.875 1.86-.86.656-2.188.547l-.25-.032q-.937-.093-1.718-.546-.782-.47-1.172-1.125-.39-.672-.375-1.438.015-.969.64-1.531.625-.563 1.704-.61.375-.015.765.032l.485.062v4.14q.859.11 1.468-.28.594-.391.625-1.172.016-.938-.843-1.735l.515-.609q.578.406.906 1.031.313.625.313 1.406zm-5.703-.671q-.016.656.453 1.14.453.485 1.375.781v-3.093l-.094-.016q-.734-.094-1.219.234-.5.329-.515.954zm4.812-5.266q.016-.563-.328-1.016-.344-.468-.906-.609v-1q.594.094 1.094.484.484.375.765.97.282.593.266 1.218-.016.797-.422 1.344-.406.546-1.125.812-.719.25-1.61.156l-.296-.015q-.906-.125-1.625-.547-.719-.422-1.125-1.094-.406-.687-.375-1.5.015-1 .672-1.594.64-.593 1.625-.593v.984q-.625.016-1 .36-.39.327-.422.89-.016.828.625 1.375.625.547 1.765.687l.157.016q.375.031.765 0 .688-.031 1.094-.375.39-.344.406-.953zm-5.687-6.844q0-.797.422-1.36.422-.577 1.172-.843.734-.281 1.625-.187l.125.015q.921.11 1.671.547.75.438 1.172 1.14.407.688.391 1.532-.016.781-.438 1.36-.421.562-1.14.827-.735.266-1.61.188-.984-.078-1.765-.516-.797-.453-1.219-1.156-.437-.703-.406-1.547zm3.39 2.156q.375.047.766 0 .703-.062 1.11-.406.406-.36.421-.953.016-.531-.25-.969-.28-.453-.843-.75-.563-.312-1.25-.39-.547-.047-.907-.032-.718.079-1.125.438-.406.36-.437.953-.016.813.656 1.39.656.579 1.734.704zm-3.28-7.734.796.14q-.937-.843-.906-1.937.015-.89.625-1.312.594-.438 1.672-.328l4.156.687v1.063l-4.172-.704q-.281-.03-.531 0-.828.094-.844.97-.016.952 1.016 1.671l4.531.781v1.063l-6.344-1.094v-1zm3.155-4.203q-.968-.125-1.734-.531-.781-.422-1.172-1.032-.39-.609-.375-1.343.031-1.063.781-1.625l-3.312-.61v-1.062l9 1.562v.97l-.688-.11q.829.75.813 1.843-.031.875-.688 1.407-.671.515-1.796.562-.344.016-.829-.031zm.61-1.016q.844.016 1.312-.297.453-.328.47-.937.046-.922-.923-1.625l-2.937-.516q-.86.36-.89 1.282-.017.625.39 1.109.39.469 1.11.719.702.25 1.468.265zm-.86-9.28q-1.359-.188-2.64-.704-1.281-.531-2.188-1.297-.906-.766-1.375-1.703l.735-.156q.687.922 1.797 1.578 1.093.656 2.625 1.015 1.515.36 2.984.344 1.219 0 2.14-.312.922-.313 1.454-.907l.656.266q-.672.984-2.016 1.5-1.328.516-3.03.469-.563-.016-1.079-.078l-.063-.016zm-2.906-5.5.797.14q-.937-.844-.906-1.938.015-.89.625-1.312.594-.438 1.672-.328l4.156.687v1.063l-4.172-.704q-.281-.03-.531 0-.828.094-.844.97-.016.952 1.016 1.671l4.531.781v1.063l-6.344-1.094v-1zm-.11-7.423q0-.797.423-1.36.422-.577 1.172-.843.734-.281 1.625-.187l.125.015q.921.11 1.671.547.75.438 1.172 1.14.407.688.391 1.532-.016.781-.438 1.36-.421.562-1.14.827-.735.266-1.61.188-.984-.078-1.765-.516-.797-.453-1.219-1.156-.437-.703-.406-1.547zm3.391 2.156q.375.047.766 0 .703-.062 1.11-.406.406-.36.421-.953.016-.531-.25-.969-.28-.453-.843-.75-.563-.312-1.25-.39-.547-.047-.907-.032-.718.079-1.125.438-.406.36-.437.953-.016.813.656 1.39.656.579 1.734.704zm-2.312-9.578-.047.5q0 1.016.922 1.61l4.5.765v1.063l-6.344-1.094v-1.031l.735.156q-.891-.672-.86-1.578 0-.203.094-.516zm-.969-2.156.703.14q-.843-.796-.812-1.921 0-.61.265-1.031.266-.422.75-.579-1.046-.89-1.015-2.093.015-.953.64-1.407.61-.453 1.641-.328l4.172.688v1.062l-4.172-.687q-.312-.047-.562 0-.797.11-.813 1.031-.016.578.36 1.063.374.468.968.593l4.219.735v1.062l-4.172-.703q-.656-.078-1 .203-.36.266-.36.844-.03.984.891 1.562l4.641.813v1.062l-6.344-1.109zm6.344-11.781q-.172.047-.328.047l-.344-.016q.813.86.797 1.844-.016.844-.531 1.375-.532.515-1.313.469-1-.063-1.562-.875-.563-.829-.563-2.172v-1.11l-.5-.078q-.578-.047-.906.235-.328.265-.344.828-.015.547.266.968.281.407.734.5l.016 1.079q-.563-.063-.985-.438-.437-.375-.671-.969-.235-.609-.235-1.25.031-.984.61-1.53.578-.563 1.53-.47l3.141.516.454.031q.312.016.64-.078l.094.016zm-.828 1.672q.015-.516-.235-.969-.25-.453-.703-.781l-1.312-.235v.813q0 1 .312 1.531.313.531.891.594.453.062.75-.203.297-.266.297-.75zm.828-4.938v1.047l-9-1.547v-1.062zm0-3v1.047l-6.344-1.094v-1.062l6.344 1.11zm-8.656-.875q-.016-.265.156-.437.172-.188.453-.188t.469.172q.172.172.187.453 0 .281-.172.453-.171.172-.437.172-.281-.015-.453-.172-.188-.172-.203-.453zm7.765-2.172v-3.562l.891.156v4.89l-.844-.14-4.594-4.156v3.312l-.906-.172v-4.656l.828.14zm1.016-7.547q-.031 1.188-.875 1.86-.86.656-2.188.547l-.25-.032q-.937-.093-1.718-.546-.782-.47-1.172-1.125-.39-.672-.375-1.438.015-.969.64-1.531.625-.563 1.704-.61.375-.015.765.032l.485.062v4.14q.859.11 1.468-.28.594-.391.625-1.172.016-.938-.843-1.735l.515-.609q.578.406.906 1.031.313.625.313 1.406zm-5.703-.671q-.016.656.453 1.14.453.485 1.375.781v-3.093l-.094-.016q-.734-.094-1.219.234-.5.329-.515.954zm2.39-2.891q-.968-.125-1.734-.531-.781-.422-1.172-1.032-.39-.609-.375-1.343.031-1.063.781-1.625l-3.312-.61v-1.062l9 1.562v.97l-.688-.11q.829.75.813 1.843-.031.875-.688 1.407-.671.515-1.796.562-.344.016-.829-.031zm.61-1.016q.844.016 1.312-.297.453-.328.47-.937.046-.922-.923-1.625l-2.937-.516q-.86.36-.89 1.282-.017.625.39 1.109.39.469 1.11.719.702.25 1.468.265zm-3.656-7.468q0-.282.187-.47.172-.187.469-.171.281 0 .469.187.171.188.187.47 0 .28-.172.468-.172.172-.453.172-.297 0-.484-.172-.188-.188-.203-.484zm7.937 2.015-.437.61q-.844-.672-1.672-.844l-.875-.14v-1.048l.781.125q1.344.22 2.203 1.297zm-7.266-8.203q-.906-.844-.89-1.922.015-.89.625-1.312.594-.438 1.672-.328l4.156.687v1.063l-4.172-.704q-.281-.03-.531 0-.828.094-.844.97-.016.968 1.016 1.671l4.531.781v1.063l-9-1.563v-1.062zm5.563-5.172v1.047l-6.344-1.094v-1.062l6.344 1.11zm-8.656-.875q-.016-.265.156-.437.172-.188.453-.188t.469.172q.172.172.187.453 0 .281-.172.453-.171.172-.437.172-.281-.015-.453-.172-.188-.172-.203-.453zm5.468-1.297q-1.03-.14-1.796-.547-.766-.421-1.125-1.015-.375-.61-.36-1.328.031-1.094.844-1.657l-.719-.218v-.969l6.203 1.047q1.22.172 1.938 1 .734.812.703 2-.016.64-.313 1.234-.28.594-.796.922l-.641-.594q.844-.578.875-1.515.016-.766-.438-1.282-.437-.53-1.265-.703l-.563-.109q.782.766.766 1.812-.031.594-.328 1.032-.297.422-.86.672-.578.234-1.28.265-.36 0-.845-.047zm.61-1.015q.844.015 1.297-.282.453-.312.484-.937.016-.953-.937-1.64l-2.907-.5q-.875.359-.906 1.28-.016.86.719 1.422.719.547 1.953.641zm-2.985-7.64q-.906-.845-.89-1.923.015-.89.625-1.312.594-.438 1.672-.328l4.156.687v1.063l-4.172-.704q-.281-.03-.531 0-.828.094-.844.97-.016.968 1.016 1.671l4.531.781v1.063l-9-1.563v-1.062l3.437.656zm5.688-6.767q-.031 1.188-.875 1.86-.86.656-2.188.547l-.25-.032q-.937-.093-1.718-.546-.782-.47-1.172-1.125-.39-.672-.375-1.438.015-.969.64-1.531.625-.563 1.704-.61.375-.015.765.032l.485.062v4.14q.859.11 1.468-.28.594-.391.625-1.172.016-.938-.843-1.735l.515-.609q.578.406.906 1.031.313.625.313 1.406zm-5.703-.671q-.016.656.453 1.14.453.485 1.375.781v-3.093l-.094-.016q-.734-.094-1.219.234-.5.329-.515.954zm.203-6.532-.047.5q0 1.016.922 1.61l4.5.765v1.063l-6.344-1.094v-1.031l.735.156q-.891-.672-.86-1.578 0-.203.094-.516zm5.375-4.203v1.047l-6.344-1.094v-1.062l6.344 1.11zm-8.656-.875q-.016-.265.156-.437.172-.188.453-.188t.469.172q.172.172.187.453 0 .281-.172.453-.171.172-.437.172-.281-.015-.453-.172-.188-.172-.203-.453zm6.937-4.906q-.656-.094-.922.719l-.328 1.11q-.484 1.39-1.594 1.343-.828-.047-1.359-.766-.547-.719-.531-1.703 0-.953.562-1.547.547-.61 1.422-.594l-.015 1.063q-.47-.016-.766.297-.297.312-.313.828-.015.547.266.937.266.375.703.438.547.078.797-.672l.14-.531q.282-1.094.735-1.547.453-.469 1.125-.422.594.031 1.031.39.438.344.672.938.235.578.219 1.235-.016 1.015-.594 1.671-.578.657-1.484.625v-1.062q.531 0 .86-.328.312-.344.312-.938.015-.578-.235-1-.25-.422-.703-.484zm-1.421-10.828q.97.125 1.75.547.782.406 1.157 1 .375.593.359 1.312-.031 1.14-.86 1.703l.735.22v.968l-9-1.563v-1.062l3.36.64q-.844-.765-.813-1.843.015-.922.672-1.422.64-.516 1.797-.547.375 0 .718.031zm-.61 1.014q-.86-.03-1.313.282-.453.297-.484.937-.016.985 1 1.672l2.766.469q.953-.344.984-1.313.016-.625-.375-1.093-.39-.47-1.094-.704-.703-.234-1.484-.25zm3.875-5q-.031 1.188-.875 1.86-.86.656-2.188.547l-.25-.032q-.937-.093-1.718-.546-.782-.47-1.172-1.125-.39-.672-.375-1.438.015-.969.64-1.531.625-.563 1.704-.61.375-.015.765.032l.485.062v4.14q.859.11 1.468-.28.594-.391.625-1.172.016-.938-.843-1.735l.515-.609q.578.406.906 1.031.313.625.313 1.406zm-5.703-.671q-.016.656.453 1.14.453.485 1.375.781v-3.093l-.094-.016q-.734-.094-1.219.234-.5.329-.515.954zm-2.297-5.391 1.531.266v-1.157l.844.157v1.14l3.937.672q.157.016.282 0 .453-.047.453-.5 0-.187-.047-.516l.875.079q.11.39.11.78-.016.626-.47.954-.453.312-1.218.234l-3.922-.64v1.125l-.844-.157v-1.109l-1.531-.266v-1.06zm0-4 1.531.266v-1.157l.844.157v1.14l3.937.672q.157.016.282 0 .453-.047.453-.5 0-.187-.047-.516l.875.079q.11.39.11.78-.016.626-.47.954-.453.312-1.218.234l-3.922-.64v1.125l-.844-.157v-1.109l-1.531-.266v-1.06zm8-3.938q-.031 1.188-.875 1.86-.86.656-2.188.547l-.25-.032q-.937-.093-1.718-.546-.782-.47-1.172-1.125-.39-.672-.375-1.438.015-.969.64-1.531.625-.563 1.704-.61.375-.015.765.032l.485.062v4.14q.859.11 1.468-.28.594-.391.625-1.172.016-.938-.843-1.735l.515-.609q.578.406.906 1.031.313.625.313 1.406zm-5.703-.671q-.016.656.453 1.14.453.485 1.375.781v-3.093l-.094-.016q-.734-.094-1.219.234-.5.329-.515.954zm.203-6.532-.047.5q0 1.016.922 1.61l4.5.765v1.063l-6.344-1.094v-1.031l.735.156q-.891-.672-.86-1.578 0-.203.094-.516zm1.953-3.078q1.422.203 2.703.75 1.266.531 2.14 1.281.876.75 1.345 1.672l-.672.157q-1.516-2-4.86-2.672-1.359-.282-2.609-.266-2.5.031-3.594 1.219l-.656-.281q.453-.657 1.219-1.11.75-.453 1.765-.656 1-.219 2.078-.203.563.031 1.063.094z" fill="#666"/><path d="m55.913 273.776q0 1.906-.657 2.844-.64.922-2.031.922-1.36 0-2.016-.907-.656-.906-.687-2.718v-1.438q0-1.89.64-2.797.657-.922 2.047-.922 1.375 0 2.032.891.656.875.672 2.719zm-1.094-1.484q0-1.375-.39-2-.376-.641-1.22-.641-.828 0-1.218.64-.375.626-.375 1.923v1.734q0 1.375.39 2.047.407.656 1.219.656.797 0 1.188-.625.39-.625.406-1.953zm2.875 4.562q0-.281.156-.469.172-.187.5-.187.344 0 .516.187.172.188.172.47 0 .265-.172.452-.172.172-.516.172-.328 0-.5-.172-.156-.187-.156-.453zm8.218-3.078q0 1.906-.656 2.844-.64.922-2.031.922-1.36 0-2.016-.907-.656-.906-.687-2.718v-1.438q0-1.89.64-2.797.657-.922 2.047-.922 1.375 0 2.032.891.656.875.671 2.719zm-1.093-1.484q0-1.375-.39-2-.376-.641-1.22-.641-.828 0-1.218.64-.375.626-.375 1.923v1.734q0 1.375.39 2.047.407.656 1.219.656.797 0 1.187-.625.391-.625.407-1.953zm8.093 1.484q0 1.906-.656 2.844-.64.922-2.031.922-1.36 0-2.016-.907-.656-.906-.687-2.718v-1.438q0-1.89.64-2.797.657-.922 2.047-.922 1.375 0 2.032.891.656.875.671 2.719zm-1.093-1.484q0-1.375-.39-2-.376-.641-1.22-.641-.828 0-1.218.64-.375.626-.375 1.923v1.734q0 1.375.39 2.047.406.656 1.219.656.797 0 1.188-.625.39-.625.406-1.953zm-15.906-60.658q0 1.907-.657 2.844-.64.922-2.031.922-1.36 0-2.016-.906-.656-.906-.687-2.719v-1.438q0-1.89.64-2.796.657-.922 2.047-.922 1.375 0 2.032.89.656.875.672 2.72zm-1.094-1.484q0-1.375-.39-2-.376-.64-1.22-.64-.828 0-1.218.64-.375.625-.375 1.922v1.734q0 1.375.39 2.047.407.656 1.219.656.797 0 1.188-.625.39-.625.406-1.953zm2.875 4.563q0-.282.156-.47.172-.187.5-.187.344 0 .516.188.172.187.172.469 0 .265-.172.453-.172.172-.516.172-.328 0-.5-.172-.156-.188-.156-.453zm8.453.562h-5.594v-.781l2.953-3.281q.656-.75.906-1.204.25-.468.25-.968 0-.672-.406-1.094-.39-.438-1.078-.438-.797 0-1.25.47-.453.452-.453 1.28h-1.078q0-1.187.75-1.906.766-.734 2.031-.734 1.203 0 1.89.625.688.625.688 1.672 0 1.25-1.61 3l-2.28 2.468h4.28v.891zm1.906-4.281.438-4.25h4.375v1h-3.454l-.265 2.328q.64-.375 1.437-.375 1.157 0 1.844.781.688.766.688 2.078 0 1.313-.72 2.078-.702.766-1.984.766-1.125 0-1.843-.625-.719-.64-.813-1.75h1.016q.11.734.531 1.11.422.374 1.11.374.75 0 1.187-.515.438-.516.438-1.422 0-.86-.47-1.375-.468-.516-1.25-.516-.702 0-1.109.297l-.28.234zm-12.14-61.501q0 1.906-.657 2.843-.64.922-2.031.922-1.36 0-2.016-.906-.656-.906-.687-2.719v-1.437q0-1.89.64-2.797.657-.922 2.047-.922 1.375 0 2.032.89.656.876.672 2.72zm-1.094-1.485q0-1.375-.39-2-.376-.64-1.22-.64-.828 0-1.218.64-.375.625-.375 1.922v1.735q0 1.375.39 2.046.407.657 1.219.657.797 0 1.188-.625.39-.625.406-1.953zm2.875 4.563q0-.281.156-.469.172-.187.5-.187.344 0 .516.187.172.188.172.469 0 .265-.172.453-.172.172-.516.172-.328 0-.5-.172-.156-.188-.156-.453zm3.36-3.719.437-4.25h4.375v1h-3.453l-.266 2.328q.64-.375 1.437-.375 1.157 0 1.844.781.688.766.688 2.079 0 1.312-.72 2.078-.702.765-1.983.765-1.125 0-1.844-.625-.719-.64-.813-1.75h1.016q.11.735.531 1.11.422.375 1.11.375.75 0 1.187-.516.438-.516.438-1.422 0-.86-.47-1.375-.468-.515-1.25-.515-.702 0-1.109.296l-.28.235-.876-.219zm11.858.64q0 1.907-.656 2.844-.64.922-2.031.922-1.36 0-2.016-.906-.656-.906-.687-2.719v-1.437q0-1.89.64-2.797.657-.922 2.047-.922 1.375 0 2.032.89.656.876.671 2.72v1.406zm-1.093-1.484q0-1.375-.39-2-.376-.64-1.22-.64-.828 0-1.218.64-.375.625-.375 1.922v1.735q0 1.375.39 2.046.406.657 1.219.657.797 0 1.188-.625.39-.625.406-1.953zm-15.906-60.657q0 1.906-.657 2.844-.64.922-2.031.922-1.36 0-2.016-.907-.656-.906-.687-2.718v-1.438q0-1.89.64-2.797.657-.922 2.047-.922 1.375 0 2.032.891.656.875.672 2.719zm-1.094-1.484q0-1.375-.39-2-.376-.641-1.22-.641-.828 0-1.218.64-.375.626-.375 1.923v1.734q0 1.375.39 2.047.407.656 1.219.656.797 0 1.188-.625.39-.625.406-1.953zm2.875 4.562q0-.281.156-.469.172-.187.5-.187.344 0 .516.187.172.188.172.47 0 .265-.172.452-.172.172-.516.172-.328 0-.5-.172-.156-.187-.156-.453zm8.375-7.36-3.532 7.923h-1.14l3.515-7.641h-4.609v-.89h5.766v.609zm1.984 3.641.438-4.25h4.375v1h-3.454l-.265 2.329q.64-.375 1.437-.375 1.157 0 1.844.78.688.766.688 2.079 0 1.312-.72 2.078-.702.766-1.984.766-1.125 0-1.843-.625-.719-.641-.813-1.75h1.016q.11.734.531 1.109.422.375 1.11.375.75 0 1.187-.516.438-.515.438-1.421 0-.86-.47-1.375-.468-.516-1.25-.516-.702 0-1.109.297l-.28.234zm-13.937-57.86h-1.078v-7.219l-2.188.797v-.984l3.11-1.172h.156zm3.578-.563q0-.28.156-.468.172-.188.5-.188.344 0 .516.188.172.187.172.469 0 .265-.172.453-.172.172-.516.172-.328 0-.5-.172-.156-.188-.156-.453zm8.218-3.078q0 1.907-.656 2.844-.64.922-2.031.922-1.36 0-2.016-.906-.656-.906-.687-2.719v-1.438q0-1.89.64-2.796.657-.922 2.047-.922 1.375 0 2.032.89.656.875.671 2.72zm-1.093-1.484q0-1.375-.39-2-.376-.64-1.22-.64-.828 0-1.218.64-.375.625-.375 1.922v1.734q0 1.375.39 2.047.407.656 1.219.656.797 0 1.187-.625.391-.625.407-1.953zm8.093 1.484q0 1.907-.656 2.844-.64.922-2.031.922-1.36 0-2.016-.906-.656-.906-.687-2.719v-1.438q0-1.89.64-2.796.657-.922 2.047-.922 1.375 0 2.032.89.656.875.671 2.72zm-1.093-1.484q0-1.375-.39-2-.376-.64-1.22-.64-.828 0-1.218.64-.375.625-.375 1.922v1.734q0 1.375.39 2.047.406.656 1.219.656.797 0 1.188-.625.39-.625.406-1.953zm356.697 265.505q0-.438-.344-.673-.328-.25-1.156-.422-.813-.171-1.297-.421-.485-.25-.719-.579-.219-.343-.219-.812 0-.781.656-1.313.657-.546 1.688-.546 1.078 0 1.734.562.672.547.672 1.406h-1.078q0-.437-.39-.75-.375-.328-.938-.328-.594 0-.938.266-.328.25-.328.656 0 .39.313.594.312.203 1.125.39.812.172 1.312.422t.735.61q.25.359.25.859 0 .86-.688 1.375-.672.516-1.75.516-.765 0-1.36-.266-.577-.281-.905-.766-.329-.484-.329-1.046h1.079q.03.546.437.875.406.312 1.078.312.61 0 .985-.25t.375-.672zm6.218 1.062q-.625.75-1.859.75-1.016 0-1.547-.594-.531-.594-.531-1.75v-4.125h1.078v4.094q0 1.453 1.172 1.453 1.25 0 1.656-.938v-4.61h1.094v6.345h-1.031zm4.11-5.72.031.704q.688-.812 1.875-.812 1.328 0 1.813 1.015.312-.453.812-.734.516-.281 1.203-.281 2.094 0 2.125 2.203v4.25h-1.078v-4.188q0-.672-.313-1-.312-.344-1.046-.344-.61 0-1.016.36-.39.36-.453.969v4.203h-1.078v-4.157q0-1.375-1.36-1.375-1.062 0-1.453.907v4.625h-1.094v-6.344h1.032z" fill="#757575"/><path d="m213 307.65a1 1 0 0 1 1-1h10a1 1 0 0 1 1 1v10a1 1 0 0 1 -1 1h-10a1 1 0 0 1 -1-1z" fill="#7dce59"/><path d="m233.984 317.15v-8.531h2.797q1.39 0 2.078.578.703.562.703 1.687 0 .61-.343 1.078-.328.454-.922.704.703.187 1.094.734.406.531.406 1.281 0 1.156-.75 1.813-.734.656-2.094.656zm1.125-3.984v3.062h1.86q.797 0 1.25-.406.453-.406.453-1.125 0-1.531-1.688-1.531zm0-.907h1.703q.735 0 1.172-.359.453-.375.453-1.016 0-.703-.406-1.015-.406-.328-1.25-.328h-1.672zm6.891 4.891h-1.078v-6.344h1.078zm-1.172-8.016q0-.265.156-.453.172-.187.485-.187.312 0 .469.187.171.188.171.453 0 .25-.172.438-.156.172-.468.172-.313 0-.485-.172-.156-.188-.156-.438zm2.734 4.797q0-1.484.688-2.36.688-.874 1.813-.874 1.156 0 1.812.812l.047-.703h1v6.188q0 1.234-.734 1.937-.735.719-1.954.719-.687 0-1.343-.297-.657-.297-1-.797l.562-.656q.688.86 1.703.86.781 0 1.219-.454.453-.437.453-1.25v-.547q-.656.766-1.781.766-1.11 0-1.797-.89-.688-.907-.688-2.454zm1.094.125q0 1.063.438 1.688.437.61 1.234.61 1.016 0 1.5-.938v-2.891q-.5-.906-1.5-.906-.781 0-1.234.61-.438.608-.438 1.827zm7.547 3.094h-1.125v-8.531h1.125zm2.64-6.344.032.797q.734-.906 1.906-.906 2.016 0 2.031 2.265v4.188h-1.093v-4.203q0-.672-.313-1-.297-.328-.953-.328-.531 0-.937.281-.391.281-.61.734v4.516h-1.078v-6.344h1.016zm7.454-1.531v1.531h1.172v.844h-1.172v3.922q0 .39.156.578.156.188.531.188.188 0 .516-.063v.875q-.422.125-.828.125-.719 0-1.094-.438-.375-.453-.375-1.265v-3.922h-1.156v-.844h1.156v-1.531z" fill="#757575"/><path d="m280 307.65a1 1 0 0 1 1-1h10a1 1 0 0 1 1 1v10a1 1 0 0 1 -1 1h-10a1 1 0 0 1 -1-1z" fill="#18a5f7"/><path d="m306.188 314.056q0 1.453-.672 2.344-.657.875-1.782.875-1.203 0-1.859-.86l-.063.735h-.984v-9h1.078v3.36q.656-.813 1.813-.813 1.156 0 1.812.875.656.86.656 2.39v.094zm-1.079-.125q0-1.11-.437-1.703-.422-.61-1.219-.61-1.078 0-1.547.985v2.75q.5 1 1.547 1 .781 0 1.219-.61.437-.609.437-1.812zm3.735-3.125.031.797q.734-.906 1.906-.906 2.016 0 2.031 2.265v4.188h-1.093v-4.203q0-.672-.313-1-.297-.328-.953-.328-.531 0-.937.281-.391.281-.61.734v4.516h-1.078v-6.344zm6 5.781q0-.28.156-.468.172-.188.5-.188.344 0 .516.188.171.187.171.468 0 .266-.171.454-.172.171-.516.171-.328 0-.5-.171-.156-.188-.156-.454zm4.094-5.78v7.077q0 1.828-1.657 1.828-.36 0-.656-.109v-.86q.188.048.484.048.36 0 .547-.204.203-.187.203-.687v-7.094h1.079zm-1.188-1.673q0-.265.156-.453.156-.187.469-.187.313 0 .469.187.172.188.172.453 0 .25-.172.438-.156.172-.469.172-.313 0-.469-.172-.156-.188-.156-.438zm6.766 6.328q0-.437-.344-.671-.328-.25-1.156-.422-.813-.172-1.297-.422-.485-.25-.719-.578-.219-.344-.219-.813 0-.781.656-1.312.657-.547 1.688-.547 1.078 0 1.734.562.672.547.672 1.407h-1.078q0-.438-.39-.75-.375-.329-.938-.329-.594 0-.938.266-.328.25-.328.656 0 .391.313.594.312.203 1.125.39.812.173 1.312.423t.735.609q.25.36.25.86 0 .859-.688 1.374-.672.516-1.75.516-.765 0-1.36-.266-.577-.28-.905-.765-.329-.485-.329-1.047h1.079q.03.547.437.875.406.312 1.078.312.61 0 .985-.25t.375-.672z" fill="#757575"/><path d="m342 307.65a1 1 0 0 1 1-1h10a1 1 0 0 1 1 1v10a1 1 0 0 1 -1 1h-10a1 1 0 0 1 -1-1z" fill="#f5b940"/><path d="m368.188 314.056q0 1.453-.672 2.344-.657.875-1.782.875-1.203 0-1.859-.86l-.063.735h-.984v-9h1.078v3.36q.656-.813 1.813-.813 1.156 0 1.812.875.656.86.656 2.39v.094zm-1.079-.125q0-1.11-.437-1.703-.422-.61-1.219-.61-1.078 0-1.547.985v2.75q.5 1 1.547 1 .781 0 1.219-.61.437-.609.437-1.812zm3.891 3.219h-1.078v-6.344h1.078zm-1.172-8.016q0-.265.156-.453.172-.187.485-.187.312 0 .469.187.171.188.171.453 0 .25-.171.438-.157.172-.47.172-.312 0-.484-.172-.156-.188-.156-.438zm2.735 4.797q0-1.484.687-2.36.688-.874 1.813-.874 1.156 0 1.812.812l.047-.703h1v6.188q0 1.234-.735 1.937-.734.719-1.953.719-.687 0-1.343-.297-.657-.297-1-.797l.562-.656q.688.86 1.703.86.781 0 1.219-.454.453-.437.453-1.25v-.547q-.656.766-1.781.766-1.11 0-1.797-.89-.688-.907-.688-2.454zm1.093.125q0 1.063.438 1.688.437.61 1.234.61 1.016 0 1.5-.938v-2.891q-.5-.906-1.5-.906-.781 0-1.234.61-.438.608-.438 1.827zm7.344 3.094h-1.078v-6.344h1.078zm-1.172-8.016q0-.265.156-.453.172-.187.485-.187.312 0 .469.187.171.188.171.453 0 .25-.171.438-.157.172-.47.172-.312 0-.484-.172-.156-.188-.156-.438z" fill="#757575"/><path d="m398 307.65a1 1 0 0 1 1-1h10a1 1 0 0 1 1 1v10a1 1 0 0 1 -1 1h-10a1 1 0 0 1 -1-1z" fill="#f24c16"/><path d="m420.89 315.556 1.485-4.75h1.156l-2.547 7.328q-.593 1.578-1.875 1.578l-.218-.015-.391-.078v-.875l.281.015q.563 0 .86-.218.312-.22.515-.813l.235-.656-2.266-6.266h1.188l1.578 4.75zm7.844 1.594q-.093-.188-.156-.672-.75.797-1.797.797-.937 0-1.547-.531-.593-.532-.593-1.36 0-.984.75-1.53.75-.548 2.125-.548h1.046v-.5q0-.562-.343-.89-.328-.344-1-.344-.578 0-.969.297-.39.281-.39.703h-1.094q0-.485.328-.922.344-.438.922-.688.578-.265 1.265-.265 1.11 0 1.719.547.625.547.656 1.5v2.922q0 .875.219 1.39v.094h-1.14zm-1.796-.828q.515 0 .968-.266.453-.265.656-.687v-1.297h-.843q-2 0-2 1.172 0 .5.344.797.343.28.875.28zm5.421.828v-5.5h-1v-.844h1v-.64q0-1.032.532-1.579.546-.562 1.546-.562.375 0 .75.094l-.062.89q-.281-.062-.578-.062-.531 0-.828.312-.281.313-.281.875v.672h1.359v.844h-1.36v5.5zm4 0v-5.5h-1v-.844h1v-.64q0-1.032.532-1.579.546-.562 1.546-.562.375 0 .75.094l-.062.89q-.281-.062-.578-.062-.531 0-.828.312-.281.313-.281.875v.672h1.359v.844h-1.36v5.5zm4.641 0h-1.078v-9h1.078zm4.453.125q-1.297 0-2.11-.844-.796-.86-.796-2.281v-.188q0-.953.36-1.687.359-.75 1-1.156.656-.422 1.406-.422 1.234 0 1.921.812.688.813.688 2.328v.454h-4.297q.031.937.547 1.515.531.578 1.344.578.562 0 .953-.234.406-.234.719-.625l.656.516q-.797 1.234-2.39 1.234zm-.14-5.688q-.657 0-1.11.485-.437.469-.531 1.328h3.172v-.078q-.047-.828-.453-1.281-.391-.454-1.079-.454z" fill="#757575"/><path d="m464 307.65a1 1 0 0 1 1-1h10a1 1 0 0 1 1 1v10a1 1 0 0 1 -1 1h-10a1 1 0 0 1 -1-1z" fill="#b85982"/><path d="m488.516 315.462q0-.437-.344-.671-.328-.25-1.156-.422-.813-.172-1.297-.422-.485-.25-.719-.578-.219-.344-.219-.813 0-.781.656-1.312.657-.547 1.688-.547 1.078 0 1.734.562.672.547.672 1.407h-1.078q0-.438-.39-.75-.375-.329-.938-.329-.594 0-.938.266-.328.25-.328.656 0 .391.313.594.312.203 1.125.39.812.173 1.312.423t.735.609q.25.36.25.86 0 .859-.688 1.374-.672.516-1.75.516-.765 0-1.36-.266-.577-.28-.905-.765-.329-.485-.329-1.047h1.079q.03.547.437.875.406.312 1.078.312.61 0 .985-.25t.375-.672zm3.484 1.688h-1.078v-6.344h1.078zm-1.172-8.016q0-.265.156-.453.172-.187.485-.187.312 0 .469.187.171.188.171.453 0 .25-.171.438-.157.172-.47.172-.312 0-.484-.172-.156-.188-.156-.438zm4.172 8.016h-1.078v-9h1.078zm4.453.125q-1.297 0-2.11-.844-.796-.86-.796-2.281v-.188q0-.953.36-1.687.359-.75 1-1.156.656-.422 1.406-.422 1.234 0 1.921.812.688.813.688 2.328v.454h-4.297q.031.937.547 1.515.531.578 1.344.578.562 0 .953-.234.406-.234.719-.625l.656.516q-.797 1.234-2.39 1.234zm-.14-5.688q-.657 0-1.11.485-.437.469-.531 1.328h3.172v-.078q-.047-.828-.453-1.281-.391-.454-1.079-.454zm4.53-.78.032.796q.734-.906 1.906-.906 2.016 0 2.031 2.265v4.188h-1.093v-4.203q0-.672-.313-1-.297-.328-.953-.328-.531 0-.937.281-.391.281-.61.734v4.516h-1.078v-6.344h1.016zm7.454-1.532v1.531h1.172v.844h-1.172v3.922q0 .39.156.578.156.188.531.188.188 0 .516-.063v.875q-.422.125-.828.125-.719 0-1.094-.438-.375-.453-.375-1.265v-3.922h-1.156v-.844h1.156v-1.531zm3.547 1.531.031.703q.688-.812 1.875-.812 1.328 0 1.813 1.015.312-.453.812-.734.516-.281 1.203-.281 2.094 0 2.125 2.203v4.25h-1.078v-4.188q0-.671-.313-1-.312-.343-1.046-.343-.61 0-1.016.36-.39.358-.453.968v4.203h-1.078v-4.156q0-1.375-1.36-1.375-1.062 0-1.453.906v4.625h-1.093v-6.344h1.03zm13.89 6.344q-.093-.188-.156-.672-.75.797-1.797.797-.937 0-1.547-.531-.593-.532-.593-1.36 0-.984.75-1.53.75-.548 2.125-.548h1.047v-.5q0-.562-.344-.89-.328-.344-1-.344-.578 0-.969.297-.39.281-.39.703h-1.094q0-.485.328-.922.343-.438.922-.688.578-.265 1.265-.265 1.11 0 1.719.547.625.547.656 1.5v2.922q0 .875.219 1.39v.094h-1.14zm-1.797-.828q.516 0 .97-.266.452-.265.655-.687v-1.297h-.843q-2 0-2 1.172 0 .5.343.797.344.28.875.28zm6.36-7.047v1.531h1.172v.844h-1.172v3.922q0 .39.156.578.156.188.531.188.188 0 .516-.063v.875q-.422.125-.828.125-.719 0-1.094-.438-.375-.453-.375-1.265v-3.922h-1.156v-.844h1.156v-1.531zm4 0v1.531h1.172v.844h-1.172v3.922q0 .39.156.578.156.188.531.188.188 0 .516-.063v.875q-.422.125-.828.125-.719 0-1.094-.438-.375-.453-.375-1.265v-3.922h-1.156v-.844h1.156v-1.531zm4.781 4.688h-2.86v-.876h2.86v.875zm6.11.093q0 1.453-.672 2.344-.657.875-1.782.875-1.203 0-1.859-.86l-.063.735h-.984v-9h1.078v3.36q.657-.813 1.813-.813t1.812.875q.657.86.657 2.39zm-1.079-.125q0-1.11-.437-1.703-.422-.61-1.219-.61-1.078 0-1.547.985v2.75q.5 1 1.547 1 .781 0 1.219-.61.437-.609.437-1.812zm3.891 3.219h-1.078v-6.344h1.078zm-1.172-8.016q0-.265.156-.453.172-.187.485-.187.312 0 .468.187.172.188.172.453 0 .25-.172.438-.156.172-.468.172-.313 0-.485-.172-.156-.188-.156-.438zm2.735 4.797q0-1.484.687-2.36.688-.874 1.813-.874 1.156 0 1.812.812l.047-.703h1v6.188q0 1.234-.735 1.937-.734.719-1.953.719-.687 0-1.343-.297-.657-.297-1-.797l.562-.656q.688.86 1.703.86.782 0 1.219-.454.453-.437.453-1.25v-.547q-.656.766-1.781.766-1.11 0-1.797-.89-.688-.907-.688-2.454zm1.093.125q0 1.063.438 1.688.437.61 1.234.61 1.016 0 1.5-.938v-2.891q-.5-.906-1.5-.906-.781 0-1.234.61-.438.608-.438 1.827zm7.344 3.094h-1.078v-6.344h1.078zm-1.172-8.016q0-.265.156-.453.172-.187.485-.187.312 0 .468.187.172.188.172.453 0 .25-.172.438-.156.172-.468.172-.313 0-.485-.172-.156-.188-.156-.438zm4.016 1.672.031.797q.734-.906 1.906-.906 2.016 0 2.032 2.265v4.188h-1.094v-4.203q0-.672-.313-1-.297-.328-.953-.328-.531 0-.937.281-.391.281-.61.734v4.516h-1.078v-6.344zm7.453-1.531v1.531h1.172v.844h-1.172v3.922q0 .39.156.578.156.188.531.188.188 0 .516-.063v.875q-.422.125-.828.125-.719 0-1.094-.438-.375-.453-.375-1.265v-3.922h-1.156v-.844h1.156v-1.531zm5.156 8q-1.297 0-2.11-.844-.796-.86-.796-2.281v-.188q0-.953.36-1.687.359-.75 1-1.156.655-.422 1.405-.422 1.235 0 1.922.812.688.813.688 2.328v.454h-4.297q.031.937.547 1.515.531.578 1.344.578.562 0 .953-.234.406-.234.718-.625l.657.516q-.797 1.234-2.39 1.234zm-.14-5.688q-.657 0-1.11.485-.437.469-.531 1.328h3.172v-.078q-.047-.828-.453-1.281-.391-.454-1.078-.454zm3.25 2.344q0-1.484.687-2.36.688-.874 1.813-.874 1.156 0 1.812.812l.047-.703h1v6.188q0 1.234-.735 1.937-.734.719-1.953.719-.687 0-1.343-.297-.657-.297-1-.797l.562-.656q.688.86 1.703.86.782 0 1.219-.454.453-.437.453-1.25v-.547q-.656.766-1.781.766-1.11 0-1.797-.89-.688-.907-.688-2.454zm1.093.125q0 1.063.438 1.688.437.61 1.234.61 1.016 0 1.5-.938v-2.891q-.5-.906-1.5-.906-.781 0-1.234.61-.438.608-.438 1.827zm8.797 3.219q-1.297 0-2.11-.844-.796-.86-.796-2.281v-.188q0-.953.36-1.687.359-.75 1-1.156.655-.422 1.405-.422 1.235 0 1.922.812.688.813.688 2.328v.454h-4.297q.031.937.547 1.515.531.578 1.344.578.562 0 .953-.234.406-.234.718-.625l.657.516q-.797 1.234-2.39 1.234zm-.14-5.688q-.657 0-1.11.485-.437.469-.531 1.328h3.172v-.078q-.047-.828-.453-1.281-.391-.454-1.078-.454zm6.578.188q-.25-.031-.532-.031-1.078 0-1.453.906v4.5h-1.078v-6.344h1.047l.016.735q.53-.844 1.515-.844.313 0 .485.078z" fill="#757575"/></svg>