<svg xmlns="http://www.w3.org/2000/svg" xmlns:xlink="http://www.w3.org/1999/xlink" width="504" height="175" viewBox="-2 -2 502 173"><style>svg{background:#fff}.a,.s{stroke:#000;stroke-linejoin:round;stroke-linecap:round;stroke-miterlimit:10}.s{fill:none}rect{fill:#fff}text{font:14px "Comic Sans MS";text-anchor:middle}.b{font-size:16px}</style><path d="M90 50h-.5l1.2 10.6-.4 10.6.1 10.6v10.6l-.5 10.6.1 10.6" class="s"/><path d="M90 118.9l-.6-1.4-.6-1.3-1-1.6-.4-1.2-.9-1.5v-.1l.7.5.7.3.8.5.6.3.7.2.6-.5.7-.4.7-.3.8-.2.7-.3h-.1l-.8 1.3-.5 1.5-.5 1.5-.9 1.3-.7 1.4z" class="a"/><path d="M0 0v-.5l10 .4L20 0l10-.6 10 .8 10-1 10 .3 10-.1 10-.1L90 .7h10l10-.8 10 .5 10-.4 10-.1 10-.3 10 1 10-.6h10l.6 10-1 10-.2 10 .3 10 .3 10v.6h-10l-10-.3-10 .4-10-.8h-10l-10-.4-10 1-10-1.2-10 1.3-10-1.2H70l-10 .8-10 .2-10-.4-10 .5H20l-10-.2L0 50h.4V40l-.9-10 .6-10V10L0 0z" class="s"/><text x="91" y="28" class="b">MovingAvgComponent</text><path d="M436 50l-.2 7 .1 7 .1 7-.2 7 .2 7v-.2l-1 .3h-3l-1-.1v5.7l.2 5.8-.2 5.7-.2 5.7.2 5.7" class="s"/><path d="M431 118.9l-1-1.5-.6-1.4-.5-1.3-.6-1.4-.8-1.4v.1l.6.1.7.3.7.4.7.4.8.4v-.1l.6-.3.8-.3.6-.5.7-.3.8-.2-.8 1.3-.8 1.4-.5 1.5-.8 1.3-.6 1.5z" class="a"/><path d="M360 0v-.5l10 1.2 10-.4 10-.7 10 .7 10-.5 10 .3 10-.1 10 .4 10-1 10 .6h.2l-.2 10-.5 10 1 10-1.2 10 .7 10v-.7l-10 .5-10 .8-10-.8-10-.5-10 .2-10-.1-10 .8-10-.4-10 .6-10-.4h-.6l1.3-10-1-10-.1-10 .3-10 .1-10z" class="s"/><text x="411" y="28" class="b">MovingAvg</text><path d="M130 145l10.2.1 10.2.6 10.2-.8h10.2l10.2-.4 10.2-.2 10.2.5 10.2-.2 10.2.3 10.2-.1 10.2-.4 10.2.6h10.2l10.2.7 10.2-.2 10.2.1 10.2-.1 10.2-1h10.2l10.2 1 10.2-1 10.2.8 10.2-.3" class="s"/><path d="M369.9 145l-.1-.2-1.4.7-1.3.9-1.3.8-1.6.4-1.3.9-.2-.1.6-.6.1-.8.6-.6.1-.8.5-.6h-.1l-.4-.8v-.5l-.5-.8-.2-.6-.5-.8 1.4.7 1.5.9 1.3.6 1.4.7 1.4.6z" class="a"/><rect x="195" y="135" width="112" height="18"/><text x="251" y="149">(event listeners)</text><path d="M50 120v-.5l10 .7 10 .3 10-1.1h20l10 .6 10-.2 10 .2h.3l.2 10-.1 10-.5 10 .3 10-.2 10v-.8l-10 .5-10 .8-10-.5-10-.3-10 1-10-1.4H60l-10 .7h.6l-1.3-10 1-10-1-10 1.3-10-.6-10z" class="s"/><text x="91" y="148" class="b">socket</text><path d="M391 120h-.1l.3-7-.4-7 .3-7-.2-7 .1-7h-2l-1-.1-1 .3-1-.2h.1l-.1-5.7-.2-5.8v-5.7l.4-5.7-.2-5.7" class="s"/><path d="M386 51.1l.7 1.4.6 1.3.6 1.4.8 1.4.8 1.5V58l-.8-.3-.6-.4-.7-.3-.7-.2-.7-.4v.1h-.8l-.6.6-.8.1-.6.5-.7.4.2.1.7-1.4.5-1.5.7-1.4.8-1.4.6-1.4z" class="a"/><rect x="0" y="77" width="500" height="16"/><text x="90" y="89">this.socket</text><text x="370" y="89">(closure)</text><text x="460" y="89">this.listener</text><path d="M371 120v.5h10l10-1 10 .9 10-.5 10-.6 10 .5 10-.4 10 .6h.3l.3 10-.2 10-.4 10v20.1l-10 .3-10-1.1-10 .8-10 .5-10-.6-10-.2-10 .6-10-.4h-.6l.4-10 .4-10 .5-10-1-10 .3-10z" class="s"/><text x="412" y="148" class="b">listener</text><path d="M180 25v.3l10.2-.4 10.2-.4 10.2-.2 10.3.3 10.2-.3 10.2 1.3h10.2l10.2-1 10.2-.2h10.2l10.3.5 10.2-.3 10.2-.2H323l10.2.7 10.2-.4 10.2.3" class="s"/><path d="M358.9 25l-1.3.8-1.6.5-1.4.6-1.4.7-1.3.9h-.2l.5-.7.3-.7.4-.7.6-.6.1-.8-.2-.6-.6-.9V23l-.6-.8-.3-.7 1.4.6 1.5 1 1.3.5 1.3.6 1.5.8z" class="a"/><rect x="220" y="15" width="100" height="18"/><text x="270" y="29">this.movingAvg</text></svg>