<svg xmlns="http://www.w3.org/2000/svg" xmlns:xlink="http://www.w3.org/1999/xlink" width="723" height="175" viewBox="-2 -2 721 173"><style>svg{background:#fff}.a,.s{stroke:#000;stroke-linejoin:round;stroke-linecap:round;stroke-miterlimit:10}.s{fill:none}rect{fill:#fff}text{font:14px "Comic Sans MS";text-anchor:middle}.b{font-size:16px}.u{fill:</style><path d="M180 25v-.26l10.09-.34 10.1.58 10.09.23 10.09.27 10.1-.39 10.09.51 10.09-.52 10.1.33 10.09-.71 10.09.5 10.09-.05 10.1-.75 10.09.4 10.09-.35 10.1 1.13 10.09-1.15 10.09 1.19 10.1-.06 10.09-.21 10.09-.36 10.1-.51 10.09.55 10.09.23 10.1.02 10.09-.24 10.09.06 10.09-.16 10.1.33 10.09-.07 10.09-.71 10.1 1.13 10.09-.59 10.09-.41 10.1.6 10.09.28 10.09-1.15 10.1.15 10.09 1.16 10.09-.66" class="s"/><path d="M578.88 25l.05.09-1.36.8-1.57.34-1.35.81-1.45.6-1.32.86.2.1.36-.7.34-.7.07-.84.64-.56.14-.8-.02-.01-.37-.71-.52-.78v-.53l-.67-.86-.17-.61.07.14 1.29.47 1.51.92 1.32.54 1.51.93 1.3.5z" class="a"/><rect x="330" y="15" width="100" height="18"/><text x="380" y="29">this.movingAvg</text><path d="M90 50h-.1l-.03 10.61.83 10.6-.84 10.61-.13 10.6.91 10.61-.64 10.6" class="s"/><path d="M90 118.88h0l-.52-1.31-.79-1.44-1.01-1.56-.31-1.2-.87-1.49-.02-.04.65.25.75.45.66.28.79.53.67.28.04.07.67-.4.76-.23.53-.69.76-.23.74-.27-.12-.06-.51 1.5-.96 1.27-.5 1.5-.93 1.28-.48 1.51z" class="a"/><path d="M0 0v.25l10 .38 10 .01 10-.35 10-.08 10-.79L60-.1l10-.08 10-.38L90 .53l10-1.2 10 .5 10-.29 10 .37 10 .46 10-.07 10 .03 10-.6L180 0h.53l-.63 10 .35 10 .04 10-.88 10 .59 10v.72l-10-1.27-10 1.03-10-.46-10-.04-10-.05-10-.25-10 .72-10-.88-10 .2-10 .36-10-.27-10-.38-10 .72-10-.22-10-.14-10-.01-10-.11L0 50h.07l-.11-10L.2 30l-.76-10 .99-10L0 0h0z" class="s"/><text x="91" y="28" class="b">MovingAvgComponent</text><path d="M656 50h-.12l.14 7-.27 7 .44 7-.43 7 .24 7v-.02l-1 .12-1 .07-1 .05-1-.14-1-.08h.05l.17 5.73-.14 5.72-.08 5.73.08 5.73-.08 5.72" class="s"/><path d="M651 118.88h-.01l-.83-1.47-.72-1.41-.39-1.24-.88-1.49-.67-1.39-.11-.21.89.73.72.37.67.3.58.11.75.45-.07-.14.75-.24.73-.29.79-.18.57-.6.73-.3-.07-.03-.56 1.47-.59 1.45-.99 1.26-.7 1.39-.59 1.46z" class="a"/><path d="M580 0v.65l10-1.16 10-.16 10 .23 10 .84 10 .12 10-1.16 10 .93 10 .21 10-1.16L680 0h.18l-.53 10 .39 10 .11 10-.85 10 .7 10v.38l-10 .21-10-.75-10 .37-10-.1-10-.75-10 .74-10-.76-10 .23-10 .65-10-.22h-.06l.31-10-.08-10-.62-10 1-10L580 0h0z" class="s"/><text x="631" y="28" class="b">MovingAvg</text><path d="M130 145v.07l10.28.67 10.28-.09 10.28-.29 10.28-.18 10.28-.56 10.28.24 10.28.84 10.28-.7 10.27-.7 10.28.04 10.28.26 10.28-.06 10.28.46" class="s"/><path d="M268.88 145l-.03-.07-1.41.68-1.35.81-1.46.57-1.42.66-1.33.85h0l.38-.69.11-.82.78-.48-.05-.9.53-.61.1.05-.49-.77-.13-.59-.75-.9-.1-.58-.38-.71-.06-.13 1.36.63 1.39.69 1.46.8 1.5.91 1.35.6z" class="a"/><rect x="144" y="135" width="112" height="18"/><text x="200" y="149">(event listeners)</text><path d="M50 120v-.3l10 .13 10-.22 10-.35 10 .61 10-.01 10 .3 10 .17 10-.33h-.71l.66 10-.16 10-.32 10 .8 10-.27 10v-.5l-10 .2-10 .52-10 .27-10-.6-10-.01-10 .03-10 .31-10-.22h.5l.13-10-1.2-10 .02-10 .95-10-.4-10h0z" class="s"/><text x="91" y="148" class="b">socket</text><path d="M611 120h-.22l.34-7-.3-7 .18-7 .03-7-.03-7v-.03l-1-.02-1 .09-1-.17-1 .14-1-.01h.13l-.2-5.73-.02-5.72.25-5.73-.13-5.73-.03-5.72" class="s"/><path d="M606 51.12l-.11-.06.7 1.4.83 1.47.52 1.31 1.01 1.55.55 1.33.11.21-.8-.53-.8-.56-.56-.08-.68-.31-.77-.48-.07-.14-.62.52-.64.45-.75.27-.73.27-.69.38-.12-.06.95-1.28.6-1.45.62-1.44.78-1.36.67-1.41z" class="a"/><rect x="0" y="77" width="720" height="16"/><text x="90" y="89">this.socket</text><text x="590" y="89">(closure)</text><text x="680" y="89">this.listener</text><path d="M591 120v-.03l10-.05 10 .12 10 .06 10-.35 10 .32 10 .26 10-1.06 10 .73h.4l-.44 10 .08 10-.26 10 .07 10 .15 10v.03l-10-.37-10-.33-10 .67-10 .24-10 .49-10-.2-10-.09-10-.44h.73l-.75-10-.61-10 .39-10 .49-10-.25-10h0z" class="s"/><text x="632" y="148" class="b">listener</text><path d="M350 145v.03l10.4-.76 10.41.09 10.4.81 10.4.43 10.41-.64 10.4.22 10.4.07 10.41.06 10.4-.31" class="s"/><path d="M448.88 145l-.03-.06-1.29.91-1.46.59-1.35.79-1.42.66-1.45.61-.22-.11.4-.68.69-.53.29-.72.1-.83.49-.63-.01-.01-.2-.62-.58-.82-.24-.64-.3-.68-.42-.73-.06-.12 1.55 1 1.33.57 1.43.74 1.27.44 1.48.87z" class="a"/><rect x="370" y="135" width="60" height="18"/><text x="400" y="149">(closure)</text><path d="M270 120h0l10 .56 10-1.17 10 .82 10-.86 10 .77 10-.62 10 .8 10-.3h-.55l-.06 10 1.02 10-.3 10-.23 10 .12 10h0l-10 .74-10-1h-10l-10 .55-10-.69-10-.33-10 1.15-10-.42h.59l-.36-10-.87-10 .95-10-.19-10-.12-10h0z" class="s"/><text x="311" y="148" class="b">wrapper</text><path d="M530 145v.13l10.93.2 10.92-.22 10.93.62 10.93.02 10.92-.75" class="s" stroke-dasharray="3 3"/><path d="M589.88 145l.01.01-1.47.56-1.28.94-1.45.61-1.48.53-1.33.85.09.05.15-.81.31-.72.36-.69.37-.69.47-.64.05.03-.6-.83.07-.49-.41-.73-.73-.89-.13-.59.05.09 1.43.77 1.23.36 1.56 1.01 1.42.75 1.31.52z" class="a"/><path d="M450 120v.63l10-1.34 10 .26 10 .68 10 .23 10-.32 10-.07 10 .36 10-.43h.4l-.95 10 1.11 10-.14 10-.75 10 .33 10v.12l-10-.67-10 .36-10-.1-10 .37-10 .26-10-1.04-10 1.4-10-.7h.7l.02-10-1.03-10 .96-10-.64-10-.01-10h0z" class="s"/><text x="491" y="148" class="b">WeakRef</text></svg>