<svg viewBox="0 0 679.213 276.058" fill="none" stroke-linecap="square" stroke-miterlimit="10" xmlns="http://www.w3.org/2000/svg"><clipPath id="a"><path d="M0 0h679.213v276.058H0V0z"/></clipPath><g clip-path="url(#a)"><path fill="none" d="M0 0h679.213v276.058H0z"/><path fill="#d9ead3" d="M428.193 40.083H676.57v38.803H428.193z" fill-rule="evenodd"/><path stroke="#000" stroke-linejoin="round" stroke-linecap="butt" d="M428.193 40.083H676.57v38.803H428.193z"/><path fill="#000" d="M543.26 69.364v-2.797h2.797v2.797h-2.797zm7.78 0v-2.797h2.796v2.797h-2.797zm7.778 0v-2.797h2.797v2.797h-2.797z"/><path fill="#d9ead3" d="M428.193 78.886H676.57v38.803H428.193z" fill-rule="evenodd"/><path stroke="#000" stroke-linejoin="round" stroke-linecap="butt" d="M428.193 78.886H676.57v38.803H428.193z"/><path fill="#000" d="M461.058 99.973v-1.578h5.657v4.953q-1.297 1.047-2.688 1.578-1.375.516-2.844.516-1.968 0-3.578-.844-1.61-.844-2.422-2.437-.812-1.594-.812-3.563 0-1.953.812-3.64.813-1.688 2.344-2.5 1.531-.829 3.516-.829 1.453 0 2.625.469t1.828 1.313q.672.828 1.015 2.171l-1.593.438q-.297-1.016-.75-1.594-.438-.594-1.266-.937-.828-.344-1.844-.344-1.203 0-2.093.375-.891.36-1.438.969-.531.593-.828 1.312-.516 1.235-.516 2.688 0 1.78.61 2.984.625 1.203 1.797 1.797 1.171.578 2.5.578 1.14 0 2.234-.437 1.094-.454 1.656-.954v-2.484h-3.922zm8.012 5.234V91.848h1.64v13.36h-1.64zm3.582-4.843q0-2.688 1.484-3.97 1.25-1.077 3.047-1.077 2 0 3.266 1.312 1.266 1.297 1.266 3.61 0 1.859-.563 2.937-.562 1.063-1.64 1.656-1.063.594-2.329.594-2.031 0-3.281-1.297-1.25-1.312-1.25-3.765zm1.688 0q0 1.859.796 2.797.813.921 2.047.921 1.219 0 2.032-.921.812-.938.812-2.844 0-1.797-.812-2.719-.813-.922-2.032-.922-1.234 0-2.047.922-.796.906-.796 2.766zm10.797 4.843h-1.516V91.848h1.641v4.766q1.047-1.297 2.656-1.297.891 0 1.688.36.797.359 1.312 1.015.516.64.797 1.562.297.922.297 1.969 0 2.484-1.234 3.844-1.219 1.36-2.953 1.36-1.704 0-2.688-1.438v1.218zm-.016-4.906q0 1.735.485 2.516.765 1.265 2.094 1.265 1.078 0 1.859-.937.781-.938.781-2.781 0-1.891-.75-2.797-.75-.906-1.828-.906-1.062 0-1.86.937-.78.938-.78 2.703zm15.204 3.719q-.922.766-1.765 1.094-.828.312-1.797.312-1.594 0-2.453-.781-.86-.781-.86-1.984 0-.72.328-1.297.329-.594.844-.938.531-.36 1.188-.547.468-.125 1.453-.25 1.984-.234 2.922-.562.015-.344.015-.422 0-1-.468-1.422-.625-.547-1.875-.547-1.157 0-1.704.406-.546.407-.812 1.422l-1.61-.218q.22-1.016.72-1.641.5-.64 1.452-.984.954-.344 2.188-.344 1.25 0 2.016.297.78.28 1.14.734.375.438.516 1.11.078.421.078 1.515v2.188q0 2.28.11 2.89.109.594.406 1.156h-1.704q-.265-.515-.328-1.187zm-.14-3.672q-.89.375-2.672.625-1.016.14-1.438.328-.422.188-.656.531-.219.344-.219.782 0 .656.5 1.093.5.438 1.453.438.938 0 1.672-.406.75-.422 1.094-1.141.266-.562.266-1.64v-.61zm4.157 4.86v-13.36h1.64v13.36h-1.64zm9.578 0v-13.36h5.047q1.328 0 2.03.125.97.172 1.642.64.671.454 1.078 1.282.406.828.406 1.828 0 1.703-1.094 2.89-1.078 1.173-3.922 1.173h-3.422v5.421h-1.765zm1.765-7h3.454q1.718 0 2.437-.641.719-.64.719-1.797 0-.844-.422-1.438-.422-.593-1.125-.78-.438-.126-1.64-.126h-3.423v4.781zm10.46 7v-9.672h1.468v1.468q.563-1.031 1.032-1.36.484-.327 1.062-.327.828 0 1.688.531l-.563 1.516q-.61-.36-1.203-.36-.547 0-.969.328-.422.329-.61.891-.28.875-.28 1.922v5.062h-1.625zm5.619-4.844q0-2.688 1.484-3.97 1.25-1.077 3.047-1.077 2 0 3.265 1.312 1.266 1.297 1.266 3.61 0 1.859-.562 2.937-.563 1.063-1.641 1.656-1.063.594-2.328.594-2.031 0-3.281-1.297-1.25-1.312-1.25-3.765zm1.687 0q0 1.859.797 2.797.812.921 2.047.921 1.219 0 2.031-.921.813-.938.813-2.844 0-1.797-.813-2.719-.812-.922-2.031-.922-1.235 0-2.047.922-.797.906-.797 2.766zm8.204 4.843l3.531-5.03-3.265-4.641h2.046l1.485 2.265q.422.64.672 1.078.406-.593.734-1.062l1.64-2.281h1.954l-3.344 4.546 3.594 5.125h-2.016l-1.984-3-.516-.812-2.547 3.812h-1.984zm10.344 3.72l-.188-1.532q.547.14.938.14.547 0 .875-.187.328-.172.547-.5.156-.25.5-1.219.046-.14.14-.406l-3.672-9.687h1.766l2.016 5.593q.39 1.078.703 2.25.28-1.125.672-2.203l2.078-5.64h1.64l-3.687 9.828q-.594 1.609-.922 2.203-.438.812-1 1.187-.563.375-1.344.375-.484 0-1.062-.203zm17.714.202q-1.36-1.703-2.297-4-.937-2.297-.937-4.765 0-2.157.703-4.141.828-2.312 2.531-4.594h1.172q-1.094 1.89-1.453 2.703-.547 1.25-.875 2.625-.39 1.704-.39 3.422 0 4.375 2.718 8.75h-1.172zm3.322-3.922V91.848h5.922q1.781 0 2.703.36.938.359 1.485 1.28.562.907.562 2.016 0 1.407-.922 2.39-.922.97-2.844 1.235.704.344 1.079.672.765.703 1.453 1.766l2.328 3.64h-2.219l-1.766-2.78q-.78-1.204-1.28-1.829-.5-.64-.907-.89-.39-.266-.797-.36-.297-.078-.984-.078H574.8v5.937h-1.766zm1.766-7.453h3.797q1.218 0 1.89-.25.688-.265 1.047-.812.36-.547.36-1.188 0-.953-.688-1.562-.687-.61-2.187-.61h-4.22v4.422zm18.098 4.344l1.687.203q-.406 1.485-1.484 2.313-1.078.812-2.766.812-2.125 0-3.375-1.297-1.234-1.312-1.234-3.672 0-2.453 1.25-3.796 1.266-1.344 3.266-1.344 1.937 0 3.156 1.328 1.234 1.312 1.234 3.703v.438h-7.219q.094 1.593.907 2.453.812.843 2.015.843.907 0 1.547-.468.64-.485 1.016-1.516zm-5.39-2.656h5.405q-.109-1.219-.625-1.828-.78-.953-2.03-.953-1.126 0-1.907.765-.766.75-.844 2.016zm15.453 2.219l1.61.218q-.266 1.657-1.36 2.61-1.078.937-2.672.937-1.984 0-3.187-1.297-1.203-1.297-1.203-3.718 0-1.579.515-2.75.516-1.172 1.578-1.75 1.063-.594 2.313-.594 1.578 0 2.578.797 1 .797 1.281 2.265l-1.594.235q-.234-.97-.812-1.453-.578-.5-1.39-.5-1.235 0-2.016.89-.782.89-.782 2.813 0 1.953.75 2.843.75.875 1.954.875.968 0 1.609-.593.656-.594.828-1.828zm9.64.437l1.688.203q-.406 1.485-1.484 2.313-1.078.812-2.766.812-2.125 0-3.375-1.297-1.234-1.312-1.234-3.672 0-2.453 1.25-3.796 1.265-1.344 3.265-1.344 1.938 0 3.157 1.328 1.234 1.312 1.234 3.703v.438h-7.219q.094 1.593.907 2.453.812.843 2.015.843.906 0 1.547-.468.64-.485 1.016-1.516zm-5.39-2.656h5.406q-.11-1.219-.625-1.828-.781-.953-2.031-.953-1.125 0-1.906.765-.766.75-.844 2.016zm9.141-5.703v-1.891h1.641v1.89h-1.64zm0 11.468v-9.671h1.641v9.671h-1.64zm6.833 0l-3.688-9.671h1.735l2.078 5.796q.328.938.625 1.938.203-.766.609-1.828l2.14-5.906h1.688l-3.656 9.671h-1.531zm13.265-3.109l1.688.203q-.406 1.485-1.485 2.313-1.078.812-2.765.812-2.125 0-3.375-1.297-1.235-1.312-1.235-3.672 0-2.453 1.25-3.796 1.266-1.344 3.266-1.344 1.938 0 3.156 1.328 1.235 1.312 1.235 3.703v.438h-7.22q.095 1.593.907 2.453.813.843 2.016.843.906 0 1.547-.468.64-.485 1.015-1.516zm-5.39-2.656h5.406q-.11-1.219-.625-1.828-.781-.953-2.031-.953-1.125 0-1.907.765-.765.75-.843 2.016zm9.125 5.765v-9.671h1.47v1.468q.562-1.031 1.03-1.36.485-.327 1.063-.327.828 0 1.687.531l-.562 1.516q-.61-.36-1.203-.36-.547 0-.969.328-.422.329-.61.891-.28.875-.28 1.922v5.062h-1.626zm7.307 3.922h-1.188q2.735-4.375 2.735-8.75 0-1.718-.39-3.39-.313-1.375-.876-2.625-.36-.828-1.469-2.735h1.188q1.703 2.282 2.531 4.594.688 1.984.688 4.14 0 2.47-.938 4.766-.937 2.297-2.281 4z"/><path fill="#d9ead3" d="M428.193 117.689H676.57v38.803H428.193z" fill-rule="evenodd"/><path stroke="#000" stroke-linejoin="round" stroke-linecap="butt" d="M428.193 117.689H676.57v38.803H428.193z"/><path fill="#000" d="M472.356 139.714l1.656-.141q.125 1 .547 1.64.438.641 1.344 1.048.922.39 2.062.39 1 0 1.782-.297.781-.297 1.156-.812.375-.531.375-1.156 0-.625-.375-1.094-.36-.469-1.188-.797-.546-.203-2.39-.64-1.828-.454-2.563-.844-.968-.5-1.437-1.235-.469-.75-.469-1.672 0-1 .578-1.875.578-.89 1.672-1.343 1.11-.454 2.453-.454 1.485 0 2.61.485 1.14.469 1.75 1.406.609.922.656 2.094l-1.688.125q-.14-1.266-.937-1.906-.781-.657-2.313-.657-1.609 0-2.343.594-.735.594-.735 1.422 0 .719.531 1.172.5.469 2.657.969 2.156.484 2.953.843 1.172.532 1.719 1.36.562.828.562 1.906 0 1.062-.61 2.016-.609.937-1.75 1.468-1.14.516-2.577.516-1.813 0-3.047-.531-1.219-.532-1.922-1.594-.688-1.063-.719-2.406zm12.834 4.297v-9.672h1.469v1.359q.453-.719 1.203-1.14.766-.438 1.719-.438 1.078 0 1.766.453.687.438.968 1.234 1.157-1.687 2.985-1.687 1.453 0 2.218.797.782.797.782 2.453v6.64h-1.641v-6.093q0-.985-.156-1.406-.156-.438-.578-.704-.422-.265-.985-.265-1.015 0-1.687.687-.672.672-.672 2.157v5.625h-1.64v-6.282q0-1.093-.407-1.64-.406-.547-1.312-.547-.688 0-1.282.36-.593.359-.86 1.062-.25.703-.25 2.03v5.017h-1.64zm15.541-11.47v-1.89h1.64v1.89h-1.64zm0 11.47v-9.672h1.64v9.672h-1.64zm15.047 0h-1.64v-10.454q-.594.563-1.563 1.141-.953.563-1.719.844v-1.594q1.375-.64 2.406-1.562 1.032-.922 1.453-1.782h1.063v13.407zm12.965 3.921q-1.36-1.703-2.297-4-.937-2.296-.937-4.765 0-2.156.703-4.14.828-2.313 2.531-4.595h1.172q-1.094 1.891-1.453 2.704-.547 1.25-.875 2.625-.39 1.703-.39 3.421 0 4.375 2.718 8.75h-1.172zm1.822-3.921l5.125-13.36h1.907l5.468 13.36h-2.015l-1.547-4.047h-5.594l-1.469 4.047h-1.875zm3.86-5.485h4.53l-1.405-3.703q-.625-1.687-.938-2.766-.265 1.282-.719 2.547l-1.468 3.922zm9.834 5.485v-9.672h1.469v1.468q.562-1.03 1.03-1.359.485-.328 1.063-.328.828 0 1.688.531l-.563 1.516q-.609-.36-1.203-.36-.547 0-.969.329-.421.328-.609.89-.281.875-.281 1.922v5.063h-1.625zm5.916.796l1.593.235q.11.75.563 1.078.61.453 1.672.453 1.14 0 1.75-.453.625-.453.844-1.266.125-.5.109-2.11-1.063 1.267-2.672 1.267-2 0-3.094-1.438-1.093-1.437-1.093-3.453 0-1.39.5-2.563.515-1.171 1.453-1.796.953-.641 2.25-.641 1.703 0 2.812 1.375v-1.156h1.516v8.359q0 2.266-.469 3.203-.453.938-1.453 1.485-.984.546-2.453.546-1.719 0-2.797-.78-1.063-.766-1.031-2.345zm1.36-5.812q0 1.906.75 2.781.765.875 1.905.875 1.125 0 1.89-.86.767-.874.767-2.734 0-1.78-.797-2.671-.782-.907-1.89-.907-1.095 0-1.86.89-.766.876-.766 2.626zm15.656 5.016v-1.422q-1.125 1.64-3.063 1.64-.859 0-1.609-.328-.734-.328-1.094-.828-.359-.5-.5-1.219-.109-.468-.109-1.531v-5.984h1.64v5.359q0 1.281.11 1.734.156.641.656 1.016t1.235.375q.734 0 1.375-.375.656-.39.921-1.031.266-.656.266-1.89v-5.188h1.64v9.672h-1.468zm4.048 0v-9.672h1.468v1.359q.453-.719 1.203-1.14.766-.438 1.72-.438 1.077 0 1.765.453.687.438.969 1.234 1.156-1.687 2.984-1.687 1.453 0 2.219.797.781.797.781 2.453v6.64h-1.64v-6.093q0-.985-.157-1.406-.156-.438-.578-.704-.422-.265-.984-.265-1.016 0-1.688.687-.672.672-.672 2.157v5.625h-1.64v-6.282q0-1.093-.407-1.64-.406-.547-1.312-.547-.688 0-1.281.36-.594.359-.86 1.062-.25.703-.25 2.03v5.017h-1.64zm22.165-3.11l1.688.203q-.406 1.485-1.484 2.313-1.079.812-2.766.812-2.125 0-3.375-1.297-1.234-1.312-1.234-3.671 0-2.454 1.25-3.797 1.265-1.344 3.265-1.344 1.938 0 3.156 1.328 1.235 1.313 1.235 3.703v.438h-7.219q.094 1.593.906 2.453.813.844 2.016.844.906 0 1.547-.47.64-.484 1.015-1.515zm-5.39-2.656h5.406q-.11-1.219-.625-1.828-.781-.953-2.031-.953-1.125 0-1.906.765-.766.75-.844 2.016zm9.141 5.766v-9.672h1.469v1.375q1.062-1.594 3.078-1.594.875 0 1.61.312.734.313 1.093.829.375.5.516 1.203.093.453.093 1.593v5.954h-1.64v-5.891q0-1-.203-1.484-.188-.5-.672-.797-.485-.297-1.14-.297-1.048 0-1.813.672-.75.656-.75 2.515v5.282h-1.64zm13.954-1.47l.234 1.454q-.687.14-1.234.14-.89 0-1.39-.28-.485-.282-.688-.735-.203-.469-.203-1.938v-5.578h-1.203v-1.265h1.203v-2.391l1.625-.984v3.375h1.656v1.265h-1.656v5.672q0 .688.078.89.094.204.281.329.203.11.578.11.266 0 .719-.063zm12.507 1.47h-1.64v-10.454q-.594.563-1.563 1.141-.953.563-1.719.844v-1.594q1.375-.64 2.407-1.562 1.03-.922 1.453-1.782h1.062v13.407zm5.735 3.921h-1.187q2.734-4.375 2.734-8.75 0-1.718-.39-3.39-.313-1.375-.875-2.625-.36-.828-1.47-2.735h1.188q1.703 2.282 2.532 4.594.687 1.985.687 4.14 0 2.47-.937 4.766-.938 2.297-2.282 4z"/><path fill="#d9ead3" d="M428.193 156.492H676.57v38.803H428.193z" fill-rule="evenodd"/><path stroke="#000" stroke-linejoin="round" stroke-linecap="butt" d="M428.193 156.492H676.57v38.803H428.193z"/><path fill="#000" d="M472.356 178.517l1.656-.14q.125 1 .547 1.64.438.64 1.344 1.047.922.39 2.062.39 1 0 1.782-.297.781-.296 1.156-.812.375-.531.375-1.156 0-.625-.375-1.094-.36-.469-1.188-.797-.546-.203-2.39-.64-1.828-.454-2.563-.844-.968-.5-1.437-1.235-.469-.75-.469-1.672 0-1 .578-1.875.578-.89 1.672-1.343 1.11-.453 2.453-.453 1.485 0 2.61.484 1.14.469 1.75 1.406.609.922.656 2.094l-1.688.125q-.14-1.266-.937-1.906-.781-.657-2.313-.657-1.609 0-2.343.594-.735.594-.735 1.422 0 .719.531 1.172.5.469 2.657.969 2.156.484 2.953.843 1.172.532 1.719 1.36.562.828.562 1.906 0 1.063-.61 2.016-.609.937-1.75 1.468-1.14.516-2.577.516-1.813 0-3.047-.531-1.219-.531-1.922-1.594-.688-1.062-.719-2.406zm12.834 4.297v-9.672h1.469v1.36q.453-.72 1.203-1.141.766-.438 1.719-.438 1.078 0 1.766.453.687.438.968 1.235 1.157-1.688 2.985-1.688 1.453 0 2.218.797.782.797.782 2.453v6.64h-1.641v-6.093q0-.984-.156-1.406-.156-.438-.578-.703-.422-.266-.985-.266-1.015 0-1.687.687-.672.672-.672 2.157v5.625h-1.64v-6.282q0-1.093-.407-1.64-.406-.547-1.312-.547-.688 0-1.282.36-.593.359-.86 1.062-.25.703-.25 2.031v5.016h-1.64zm15.541-11.469v-1.89h1.64v1.89h-1.64zm0 11.469v-9.672h1.64v9.672h-1.64zm17.484-1.578v1.578h-8.828q-.015-.594.188-1.14.344-.907 1.078-1.782.75-.875 2.156-2.016 2.172-1.781 2.938-2.828.765-1.047.765-1.969 0-.984-.703-1.64-.687-.672-1.812-.672-1.188 0-1.907.719-.703.703-.703 1.953l-1.687-.172q.172-1.89 1.297-2.875 1.14-.985 3.031-.985 1.922 0 3.047 1.063 1.125 1.062 1.125 2.64 0 .797-.328 1.579-.328.781-1.094 1.64-.75.844-2.531 2.344-1.469 1.234-1.89 1.688-.423.437-.688.875h6.546zm10.528 5.5q-1.36-1.704-2.297-4-.937-2.297-.937-4.766 0-2.156.703-4.14.828-2.313 2.531-4.594h1.172q-1.094 1.89-1.453 2.703-.547 1.25-.875 2.625-.39 1.703-.39 3.422 0 4.375 2.718 8.75h-1.172zm1.822-3.922l5.125-13.36h1.907l5.468 13.36h-2.015l-1.547-4.047h-5.594l-1.469 4.047h-1.875zm3.86-5.485h4.53l-1.405-3.703q-.625-1.687-.938-2.765-.265 1.28-.719 2.546l-1.468 3.922zm9.834 5.485v-9.672h1.469v1.469q.562-1.032 1.03-1.36.485-.328 1.063-.328.828 0 1.688.531l-.563 1.516q-.609-.36-1.203-.36-.547 0-.969.329-.421.328-.609.89-.281.875-.281 1.922v5.063h-1.625zm5.916.797l1.593.234q.11.75.563 1.078.61.453 1.672.453 1.14 0 1.75-.453.625-.453.844-1.266.125-.5.109-2.109-1.063 1.266-2.672 1.266-2 0-3.094-1.438-1.093-1.437-1.093-3.453 0-1.39.5-2.562.515-1.172 1.453-1.797.953-.64 2.25-.64 1.703 0 2.812 1.374v-1.156h1.516v8.36q0 2.265-.469 3.202-.453.938-1.453 1.485-.984.547-2.453.547-1.719 0-2.797-.782-1.063-.765-1.031-2.343zm1.36-5.813q0 1.906.75 2.781.765.875 1.905.875 1.125 0 1.89-.859.767-.875.767-2.734 0-1.782-.797-2.672-.782-.907-1.89-.907-1.095 0-1.86.891-.766.875-.766 2.625zm15.656 5.016v-1.422q-1.125 1.64-3.063 1.64-.859 0-1.609-.328-.734-.328-1.094-.828-.359-.5-.5-1.219-.109-.468-.109-1.53v-5.985h1.64v5.36q0 1.28.11 1.734.156.64.656 1.015.5.375 1.235.375.734 0 1.375-.375.656-.39.921-1.031.266-.656.266-1.89v-5.188h1.64v9.672h-1.468zm4.048 0v-9.672h1.468v1.36q.453-.72 1.203-1.141.766-.438 1.72-.438 1.077 0 1.765.453.687.438.969 1.235 1.156-1.688 2.984-1.688 1.453 0 2.219.797.781.797.781 2.453v6.64h-1.64v-6.093q0-.984-.157-1.406-.156-.438-.578-.703-.422-.266-.984-.266-1.016 0-1.688.687-.672.672-.672 2.157v5.625h-1.64v-6.282q0-1.093-.407-1.64-.406-.547-1.312-.547-.688 0-1.281.36-.594.359-.86 1.062-.25.703-.25 2.031v5.016h-1.64zm22.165-3.11l1.688.203q-.406 1.485-1.484 2.313-1.079.812-2.766.812-2.125 0-3.375-1.296-1.234-1.313-1.234-3.672 0-2.453 1.25-3.797 1.265-1.344 3.265-1.344 1.938 0 3.156 1.328 1.235 1.313 1.235 3.703v.438h-7.219q.094 1.594.906 2.453.813.844 2.016.844.906 0 1.547-.469.64-.484 1.015-1.516zm-5.39-2.656h5.406q-.11-1.219-.625-1.828-.781-.953-2.031-.953-1.125 0-1.906.765-.766.75-.844 2.016zm9.141 5.766v-9.672h1.469v1.375q1.062-1.594 3.078-1.594.875 0 1.61.313.734.312 1.093.828.375.5.516 1.203.093.453.093 1.594v5.953h-1.64v-5.89q0-1-.203-1.485-.188-.5-.672-.797-.485-.297-1.14-.297-1.048 0-1.813.672-.75.656-.75 2.515v5.282h-1.64zm13.954-1.469l.234 1.453q-.687.14-1.234.14-.89 0-1.39-.28-.485-.282-.688-.735-.203-.469-.203-1.937v-5.579h-1.203v-1.265h1.203v-2.39l1.625-.985v3.375h1.656v1.265h-1.656v5.672q0 .688.078.891.094.203.281.328.203.11.578.11.266 0 .719-.063zm14.945-.11v1.579h-8.828q-.016-.594.187-1.14.344-.907 1.078-1.782.75-.875 2.156-2.016 2.172-1.781 2.938-2.828t.766-1.969q0-.984-.704-1.64-.687-.672-1.812-.672-1.188 0-1.906.719-.703.703-.703 1.953l-1.688-.172q.172-1.89 1.297-2.875 1.14-.985 3.031-.985 1.922 0 3.047 1.063 1.125 1.062 1.125 2.64 0 .797-.328 1.579-.328.781-1.094 1.64-.75.844-2.531 2.344-1.469 1.234-1.89 1.688-.423.437-.688.875h6.547zm3.297 5.5h-1.187q2.734-4.374 2.734-8.75 0-1.718-.39-3.39-.313-1.375-.875-2.625-.36-.828-1.47-2.734h1.188q1.703 2.28 2.532 4.593.687 1.985.687 4.141 0 2.469-.937 4.766-.938 2.296-2.282 4z"/><path fill="#d9ead3" d="M428.193 195.295H676.57v38.803H428.193z" fill-rule="evenodd"/><path stroke="#000" stroke-linejoin="round" stroke-linecap="butt" d="M428.193 195.295H676.57v38.803H428.193z"/><path fill="#000" d="M472.356 217.32l1.656-.14q.125 1 .547 1.64.438.64 1.344 1.047.922.39 2.062.39 1 0 1.782-.296.781-.297 1.156-.813.375-.531.375-1.156 0-.625-.375-1.094-.36-.469-1.188-.797-.546-.203-2.39-.64-1.828-.454-2.563-.844-.968-.5-1.437-1.235-.469-.75-.469-1.671 0-1 .578-1.875.578-.891 1.672-1.344 1.11-.453 2.453-.453 1.485 0 2.61.484 1.14.469 1.75 1.406.609.922.656 2.094l-1.688.125q-.14-1.266-.937-1.906-.781-.656-2.313-.656-1.609 0-2.343.593-.735.594-.735 1.422 0 .719.531 1.172.5.469 2.657.969 2.156.484 2.953.844 1.172.53 1.719 1.359.562.828.562 1.906 0 1.063-.61 2.016-.609.937-1.75 1.469-1.14.515-2.577.515-1.813 0-3.047-.531-1.219-.531-1.922-1.594-.688-1.062-.719-2.406zm12.834 4.297v-9.672h1.469v1.36q.453-.72 1.203-1.141.766-.438 1.719-.438 1.078 0 1.766.453.687.438.968 1.235 1.157-1.688 2.985-1.688 1.453 0 2.218.797.782.797.782 2.453v6.64h-1.641v-6.093q0-.984-.156-1.406-.156-.438-.578-.703-.422-.266-.985-.266-1.015 0-1.687.688-.672.671-.672 2.156v5.625h-1.64v-6.281q0-1.094-.407-1.641-.406-.547-1.312-.547-.688 0-1.282.36-.593.359-.86 1.062-.25.703-.25 2.031v5.016h-1.64zm15.541-11.469v-1.89h1.64v1.89h-1.64zm0 11.469v-9.672h1.64v9.672h-1.64zm8.875-3.531l1.64-.22q.282 1.407.954 2.016.687.61 1.656.61 1.156 0 1.953-.797.797-.797.797-1.984 0-1.125-.734-1.86-.735-.734-1.875-.734-.469 0-1.157.172l.188-1.438q.156.016.266.016 1.046 0 1.875-.547.843-.547.843-1.672 0-.906-.609-1.5-.61-.594-1.578-.594-.953 0-1.594.61-.64.593-.812 1.797l-1.641-.297q.297-1.64 1.36-2.547 1.062-.906 2.656-.906 1.093 0 2 .468.921.47 1.406 1.282.5.812.5 1.718 0 .86-.469 1.578-.469.704-1.375 1.125 1.188.282 1.844 1.141.656.86.656 2.156 0 1.735-1.281 2.953-1.266 1.22-3.219 1.22-1.766 0-2.922-1.048-1.156-1.047-1.328-2.718zm19.137 7.453q-1.36-1.703-2.297-4-.937-2.297-.937-4.766 0-2.156.703-4.14.828-2.313 2.531-4.594h1.172q-1.094 1.89-1.453 2.703-.547 1.25-.875 2.625-.39 1.703-.39 3.422 0 4.375 2.718 8.75h-1.172zm1.822-3.922l5.125-13.36h1.907l5.468 13.36h-2.015l-1.547-4.047h-5.594l-1.469 4.047h-1.875zm3.86-5.485h4.53l-1.405-3.703q-.625-1.687-.938-2.765-.265 1.281-.719 2.547l-1.468 3.921zm9.834 5.485v-9.672h1.469v1.469q.562-1.032 1.03-1.36.485-.328 1.063-.328.828 0 1.688.531l-.563 1.516q-.609-.36-1.203-.36-.547 0-.969.329-.421.328-.609.89-.281.875-.281 1.922v5.063h-1.625zm5.916.797l1.593.234q.11.75.563 1.078.61.453 1.672.453 1.14 0 1.75-.453.625-.453.844-1.265.125-.5.109-2.11-1.063 1.266-2.672 1.266-2 0-3.094-1.438-1.093-1.437-1.093-3.453 0-1.39.5-2.562.515-1.172 1.453-1.797.953-.64 2.25-.64 1.703 0 2.812 1.374v-1.156h1.516v8.36q0 2.265-.469 3.202-.453.938-1.453 1.485-.984.547-2.453.547-1.719 0-2.797-.782-1.063-.765-1.031-2.343zm1.36-5.813q0 1.906.75 2.781.765.875 1.905.875 1.125 0 1.89-.859.767-.875.767-2.734 0-1.782-.797-2.672-.782-.906-1.89-.906-1.095 0-1.86.89-.766.875-.766 2.625zm15.656 5.016v-1.422q-1.125 1.64-3.063 1.64-.859 0-1.609-.328-.734-.328-1.094-.828-.359-.5-.5-1.218-.109-.47-.109-1.532v-5.984h1.64v5.36q0 1.28.11 1.734.156.64.656 1.015.5.375 1.235.375.734 0 1.375-.375.656-.39.921-1.03.266-.657.266-1.892v-5.187h1.64v9.672h-1.468zm4.048 0v-9.672h1.468v1.36q.453-.72 1.203-1.141.766-.438 1.72-.438 1.077 0 1.765.453.687.438.969 1.235 1.156-1.688 2.984-1.688 1.453 0 2.219.797.781.797.781 2.453v6.64h-1.64v-6.093q0-.984-.157-1.406-.156-.438-.578-.703-.422-.266-.984-.266-1.016 0-1.688.688-.672.671-.672 2.156v5.625h-1.64v-6.281q0-1.094-.407-1.641-.406-.547-1.312-.547-.688 0-1.281.36-.594.359-.86 1.062-.25.703-.25 2.031v5.016h-1.64zm22.165-3.11l1.688.204q-.406 1.484-1.484 2.312-1.079.813-2.766.813-2.125 0-3.375-1.297-1.234-1.313-1.234-3.672 0-2.453 1.25-3.797 1.265-1.344 3.265-1.344 1.938 0 3.156 1.328 1.235 1.313 1.235 3.703v.438h-7.219q.094 1.594.906 2.453.813.844 2.016.844.906 0 1.547-.469.64-.484 1.015-1.516zm-5.39-2.656h5.406q-.11-1.219-.625-1.828-.781-.953-2.031-.953-1.125 0-1.906.766-.766.75-.844 2.015zm9.141 5.766v-9.672h1.469v1.375q1.062-1.594 3.078-1.594.875 0 1.61.313.734.312 1.093.828.375.5.516 1.203.093.453.093 1.594v5.953h-1.64v-5.89q0-1-.203-1.485-.188-.5-.672-.797-.485-.297-1.14-.297-1.048 0-1.813.672-.75.656-.75 2.516v5.28h-1.64zm13.954-1.469l.234 1.453q-.687.14-1.234.14-.89 0-1.39-.28-.485-.282-.688-.735-.203-.469-.203-1.937v-5.578h-1.203v-1.266h1.203v-2.39l1.625-.985v3.375h1.656v1.266h-1.656v5.671q0 .688.078.891.094.203.281.328.203.11.578.11.266 0 .719-.063zm6.335-2.062l1.641-.22q.281 1.407.953 2.016.688.61 1.656.61 1.157 0 1.953-.797.797-.797.797-1.984 0-1.125-.734-1.86-.734-.734-1.875-.734-.469 0-1.156.172l.187-1.438q.156.016.266.016 1.047 0 1.875-.547.844-.547.844-1.672 0-.906-.61-1.5t-1.578-.594q-.953 0-1.594.61-.64.593-.812 1.797l-1.64-.297q.296-1.64 1.359-2.547 1.062-.906 2.656-.906 1.094 0 2 .468.922.47 1.406 1.282.5.812.5 1.718 0 .86-.469 1.578-.468.704-1.375 1.125 1.188.282 1.844 1.141.656.86.656 2.156 0 1.735-1.28 2.953-1.267 1.22-3.22 1.22-1.765 0-2.922-1.048-1.156-1.047-1.328-2.718zm11.907 7.453h-1.187q2.734-4.375 2.734-8.75 0-1.719-.39-3.39-.313-1.376-.875-2.626-.36-.828-1.47-2.734h1.188q1.703 2.281 2.532 4.593.687 1.985.687 4.141 0 2.469-.937 4.766-.938 2.297-2.282 4z"/><path fill="#fce5cd" d="M428.193 234.098H676.57v38.804H428.193z" fill-rule="evenodd"/><path stroke="#000" stroke-linejoin="round" stroke-linecap="butt" d="M428.193 234.098H676.57v38.804H428.193z"/><path fill="#000" d="M489.556 260.42v-13.36h5.922q1.781 0 2.703.36.938.36 1.484 1.281.563.906.563 2.016 0 1.406-.922 2.39-.922.97-2.844 1.235.703.344 1.078.672.766.703 1.454 1.765l2.328 3.641h-2.219l-1.766-2.781q-.78-1.203-1.28-1.828-.5-.641-.907-.891-.39-.266-.797-.36-.297-.078-.984-.078h-2.047v5.938h-1.766zm1.766-7.453h3.797q1.218 0 1.89-.25.688-.266 1.047-.813.36-.547.36-1.187 0-.953-.688-1.563-.688-.609-2.188-.609h-4.218v4.422zm18.098 4.344l1.687.203q-.406 1.484-1.484 2.312-1.078.813-2.766.813-2.125 0-3.375-1.297-1.234-1.313-1.234-3.672 0-2.453 1.25-3.797 1.265-1.344 3.265-1.344 1.938 0 3.157 1.328 1.234 1.313 1.234 3.704v.437h-7.219q.094 1.594.907 2.453.812.844 2.015.844.906 0 1.547-.469.64-.484 1.016-1.515zm-5.39-2.657h5.405q-.11-1.218-.625-1.828-.78-.953-2.03-.953-1.126 0-1.907.766-.766.75-.844 2.015zm12.719 4.297l.234 1.453q-.688.141-1.234.141-.891 0-1.391-.281-.484-.281-.688-.735-.203-.468-.203-1.937v-5.578h-1.203v-1.266h1.203v-2.39l1.625-.985v3.375h1.657v1.266h-1.657v5.672q0 .687.078.89.094.203.282.328.203.11.578.11.265 0 .719-.063zm7.933 1.469v-1.422q-1.125 1.64-3.063 1.64-.859 0-1.609-.327-.734-.328-1.094-.828-.36-.5-.5-1.22-.11-.468-.11-1.53v-5.985h1.641v5.36q0 1.28.11 1.734.156.64.656 1.016.5.375 1.234.375.735 0 1.375-.375.657-.391.922-1.032.266-.656.266-1.89v-5.188h1.64v9.672h-1.468zm4.032 0v-9.672h1.469v1.469q.562-1.031 1.03-1.36.485-.328 1.063-.328.828 0 1.688.532l-.563 1.515q-.61-.36-1.203-.36-.547 0-.969.329-.421.328-.609.89-.281.876-.281 1.922v5.063h-1.625zm6.228 0v-9.672h1.469v1.375q1.062-1.594 3.078-1.594.875 0 1.61.313.734.312 1.093.828.375.5.516 1.203.093.453.093 1.594v5.953h-1.64v-5.89q0-1-.203-1.485-.188-.5-.672-.797-.485-.297-1.14-.297-1.048 0-1.813.672-.75.656-.75 2.516v5.281h-1.64zm13.264 0l5.125-13.36h1.906l5.469 13.36h-2.016l-1.547-4.047h-5.594l-1.468 4.047h-1.875zm3.859-5.484h4.531l-1.406-3.704q-.625-1.687-.938-2.765-.265 1.281-.718 2.547l-1.47 3.922zm16.115 5.484v-1.219q-.906 1.438-2.703 1.438-1.156 0-2.125-.64-.969-.642-1.5-1.782-.531-1.14-.531-2.625 0-1.453.484-2.625.485-1.188 1.438-1.813.969-.625 2.172-.625.875 0 1.547.375.687.36 1.109.953v-4.796h1.64v13.359h-1.53zm-5.172-4.828q0 1.86.782 2.781.781.922 1.843.922 1.079 0 1.829-.875.75-.89.75-2.688 0-1.984-.766-2.906-.766-.937-1.89-.937-1.079 0-1.813.89-.735.891-.735 2.813zm15.548 4.828v-1.219q-.906 1.438-2.703 1.438-1.156 0-2.125-.64-.969-.642-1.5-1.782-.531-1.14-.531-2.625 0-1.453.484-2.625.484-1.188 1.438-1.813.968-.625 2.171-.625.875 0 1.547.375.688.36 1.11.953v-4.796h1.64v13.359h-1.53zm-5.172-4.828q0 1.86.781 2.781.782.922 1.844.922 1.078 0 1.828-.875.75-.89.75-2.688 0-1.984-.765-2.906-.766-.937-1.89-.937-1.079 0-1.813.89-.735.891-.735 2.813zm9.267 4.828v-9.672h1.468v1.469q.563-1.031 1.032-1.36.484-.328 1.062-.328.828 0 1.688.532l-.563 1.515q-.61-.36-1.203-.36-.547 0-.969.329-.422.328-.61.89-.28.876-.28 1.922v5.063h-1.625zm12.853-3.11l1.687.204q-.406 1.484-1.484 2.312-1.078.813-2.766.813-2.125 0-3.375-1.297-1.234-1.313-1.234-3.672 0-2.453 1.25-3.797 1.266-1.344 3.266-1.344 1.937 0 3.156 1.328 1.234 1.313 1.234 3.704v.437h-7.219q.094 1.594.907 2.453.812.844 2.015.844.907 0 1.547-.469.64-.484 1.016-1.515zm-5.39-2.656h5.405q-.109-1.218-.625-1.828-.78-.953-2.03-.953-1.126 0-1.907.766-.766.75-.844 2.015zm8.484 2.875l1.625-.25q.125.97.75 1.5.625.516 1.75.516t1.672-.453q.547-.469.547-1.094 0-.547-.484-.875-.328-.219-1.672-.547-1.813-.469-2.516-.797-.687-.328-1.047-.906-.359-.594-.359-1.312 0-.641.297-1.188.297-.562.812-.922.375-.281 1.032-.469.671-.203 1.421-.203 1.141 0 2 .328.86.329 1.266.891.422.563.578 1.5l-1.61.219q-.109-.75-.64-1.172-.515-.422-1.469-.422-1.14 0-1.625.375-.468.375-.468.875 0 .313.187.578.203.266.64.438.235.093 1.438.422 1.75.453 2.438.75.687.296 1.078.859.39.563.39 1.406 0 .828-.484 1.547-.469.719-1.375 1.125-.906.39-2.047.39-1.875 0-2.875-.78-.984-.782-1.25-2.329zm9.328 0l1.625-.25q.125.97.75 1.5.625.516 1.75.516t1.672-.453q.547-.469.547-1.094 0-.547-.484-.875-.328-.219-1.672-.547-1.813-.469-2.516-.797-.687-.328-1.047-.906-.359-.594-.359-1.312 0-.641.297-1.188.297-.562.812-.922.375-.281 1.032-.469.672-.203 1.422-.203 1.14 0 2 .328.859.329 1.265.891.422.563.578 1.5l-1.609.219q-.11-.75-.64-1.172-.516-.422-1.47-.422-1.14 0-1.624.375-.47.375-.47.875 0 .313.188.578.203.266.641.438.234.093 1.437.422 1.75.453 2.438.75.687.296 1.078.859.39.563.39 1.406 0 .828-.484 1.547-.468.719-1.375 1.125-.906.39-2.047.39-1.875 0-2.875-.78-.984-.782-1.25-2.329z"/><path fill="none" d="M468.76 3.156h167.244v42.016H468.76z"/><path fill="#000" d="M487.673 30.076h1.75v-.14q-.156-.422-.25-.97-.094-.546-.094-1.046v-4.578q0-.828-.296-1.438-.297-.625-.813-1.047-.531-.406-1.25-.609-.719-.203-1.562-.203-.922 0-1.657.25-.718.25-1.218.656-.5.422-.782.953-.265.516-.265 1.047h1.687q0-.312.14-.594.157-.28.438-.5.266-.203.657-.328.406-.14.906-.14.547 0 .969.14.437.14.734.39t.453.61q.172.344.172.797v.781h-1.828q-1.031 0-1.875.204-.828.187-1.422.593-.594.407-.922 1.016-.312.61-.312 1.422 0 .625.234 1.156.25.531.687.906.438.407 1.063.64.64.22 1.437.22.47 0 .891-.11.438-.093.828-.265.375-.172.688-.391.312-.234.562-.5.031.313.094.61.062.28.156.468zm-2.984-1.281q-.485 0-.86-.125-.375-.14-.625-.36-.234-.218-.359-.53-.125-.313-.125-.673 0-.39.14-.687.141-.297.407-.516.39-.312 1.031-.453.656-.156 1.531-.156h1.563v2q-.14.281-.406.562-.25.266-.594.47-.344.202-.781.343-.422.125-.922.125zm7.383-3.734v.203q0 1.047.281 1.968.281.907.797 1.594.5.672 1.219 1.063.734.375 1.625.375.922 0 1.594-.313.687-.312 1.187-.906l.063 1.031h1.546v-14h-1.687v5.125q-.469-.578-1.14-.86-.657-.296-1.548-.296-.89 0-1.625.375-.734.36-1.234 1.031-.516.656-.797 1.594-.281.922-.281 2.016zm1.687.203v-.203q0-.72.157-1.36.156-.656.484-1.156.313-.5.813-.781.515-.297 1.218-.297.828 0 1.375.39.563.391.89.985v4.578q-.327.64-.89 1.031-.547.375-1.39.375-.703 0-1.203-.281-.5-.297-.813-.781-.328-.5-.484-1.141-.157-.64-.157-1.36zm9.508-.203v.203q0 1.047.282 1.968.281.907.797 1.594.5.672 1.218 1.063.735.375 1.625.375.922 0 1.594-.313.688-.312 1.188-.906l.062 1.031h1.547v-14h-1.688v5.125q-.468-.578-1.14-.86-.656-.296-1.547-.296-.89 0-1.625.375-.734.36-1.234 1.031-.516.656-.797 1.594-.282.922-.282 2.016zm1.688.203v-.203q0-.72.156-1.36.156-.656.485-1.156.312-.5.812-.781.516-.297 1.219-.297.828 0 1.375.39.562.391.89.985v4.578q-.328.64-.89 1.031-.547.375-1.39.375-.704 0-1.204-.281-.5-.297-.812-.781-.329-.5-.485-1.141-.156-.64-.156-1.36zm16.664.359v-8.812h-1.797l-5.937 9.187v1h6.047v3.078h1.687v-3.078h1.844v-1.375h-1.844zm-5.875 0l3.907-6.062.28-.5v6.562h-4.187zm18.368 4.453v-1.375h-6.657l3.563-3.86q.5-.546.953-1.093.453-.562.797-1.125.328-.562.531-1.14.203-.579.203-1.172 0-.797-.28-1.47-.282-.671-.798-1.155-.515-.5-1.265-.782-.75-.281-1.688-.281-1.031 0-1.828.328-.797.328-1.344.89-.547.563-.844 1.313-.28.735-.28 1.563h1.687q0-.61.156-1.11.156-.515.484-.859.328-.344.813-.531.484-.203 1.156-.203.547 0 .969.187.437.188.75.5.297.328.453.766.172.422.172.922 0 .39-.11.78-.093.376-.328.798-.25.422-.64.922t-.969 1.14l-4.344 4.828v1.22h8.688zm4.727-5.39v.093q0 1.313.203 2.469.203 1.14.562 2.11.328.984.781 1.78.454.813.954 1.438.484.64.984 1.078.516.453.969.703l.36-1.03q-.376-.298-.75-.72-.36-.421-.704-.968-.344-.578-.656-1.313-.313-.719-.547-1.562-.219-.844-.344-1.828-.125-1-.125-2.141v-.125q0-1.188.125-2.203.14-1.031.39-1.89.266-.954.641-1.75.391-.798.797-1.391.281-.375.578-.688.297-.312.594-.531l-.36-1.11q-.452.25-.952.704-.5.453-1 1.078t-.954 1.437q-.437.813-.78 1.781-.36.985-.563 2.141-.203 1.14-.203 2.438zm14.992 5.39V16.811h-.125l-5.031 1.937v1.531l3.469-1.312v11.11h1.687zm10.008-.39v-1.61h-1.828v1.64q0 .766-.188 1.485-.187.719-.625 1.36l1.047.578q.735-.657 1.157-1.61.437-.937.437-1.843zm15.055.39v-1.375h-6.656l3.562-3.86q.5-.546.953-1.093.453-.562.797-1.125.328-.562.531-1.14.204-.579.204-1.172 0-.797-.282-1.47-.28-.671-.797-1.155-.515-.5-1.265-.782-.75-.281-1.688-.281-1.03 0-1.828.328-.797.328-1.344.89-.546.563-.843 1.313-.282.735-.282 1.563h1.688q0-.61.156-1.11.156-.515.485-.859.328-.344.812-.531.484-.203 1.156-.203.547 0 .97.187.437.188.75.5.296.328.452.766.172.422.172.922 0 .39-.11.78-.093.376-.327.798-.25.422-.641.922-.39.5-.969 1.14l-4.344 4.828v1.22h8.688zm7.336-.39v-1.61h-1.828v1.64q0 .766-.187 1.485-.188.719-.625 1.36l1.046.578q.735-.657 1.157-1.61.437-.937.437-1.843zm8.883-7.047v1.359h1.203q.641 0 1.157.156.53.14.906.438.36.297.562.75.204.453.204 1.078t-.188 1.094q-.172.453-.5.765-.328.297-.797.453-.453.157-1.031.157-.578 0-1.047-.157-.469-.171-.797-.484-.328-.297-.5-.719-.172-.437-.172-.953h-1.687q0 .875.328 1.563.328.687.906 1.156.563.469 1.328.719.766.25 1.64.25.892 0 1.657-.266.781-.266 1.344-.766.562-.484.875-1.203.328-.718.328-1.656 0-.453-.11-.906-.093-.469-.359-.89-.265-.423-.703-.75-.422-.345-1.078-.563.547-.22.922-.563.39-.344.64-.734.25-.375.36-.781.125-.422.125-.797 0-.922-.297-1.625-.281-.703-.812-1.172-.532-.485-1.266-.719-.734-.25-1.625-.25-.922 0-1.688.297-.75.281-1.28.781-.532.5-.829 1.172-.297.656-.297 1.422h1.688q0-.516.172-.938.171-.421.5-.718.312-.297.75-.453.437-.172.984-.172.547 0 .984.14.438.14.719.422.297.297.453.735.156.437.156 1.03 0 .5-.171.923-.172.422-.5.718-.329.313-.829.485-.484.172-1.125.172h-1.203zm15.383 2.14v-.093q0-1.391-.218-2.5-.204-1.125-.532-2.079-.343-.984-.797-1.78-.437-.798-.953-1.438-.484-.625-1-1.078-.515-.454-.968-.704l-.344 1.032q.297.25.61.609.327.344.624.797.39.594.766 1.39.375.797.64 1.797.172.704.329 1.72.156 1 .156 2.218v.125q0 1.094-.125 2.047-.11.953-.313 1.765-.203.891-.53 1.625-.313.75-.642 1.344-.359.578-.75 1.016-.39.453-.765.734l.344 1.031q.453-.25.953-.703.515-.437 1.015-1.078.5-.625.938-1.437.453-.797.812-1.782.344-.968.547-2.109.203-1.156.203-2.469zm8.352-3.781q0 .531.328.906.344.36 1 .36.64 0 .985-.36.343-.375.343-.906 0-.547-.343-.922-.328-.375-.985-.375-.672 0-1 .39-.328.376-.328.907zm2.172 8.688v-1.61h-1.828v1.64q0 .766-.188 1.485-.187.719-.625 1.36l1.047.578q.735-.657 1.157-1.61.437-.937.437-1.843z"/><path fill="#d9ead3" d="M2.642 156.49H251.02v38.804H2.642z" fill-rule="evenodd"/><path stroke="#000" stroke-linejoin="round" stroke-linecap="butt" d="M2.642 156.49H251.02v38.804H2.642z"/><path fill="#000" d="M120.743 182.812v-1.875h1.875v1.875h-1.875zm5.184 0v-1.875h1.875v1.875h-1.875zm5.183 0v-1.875h1.875v1.875h-1.875z"/><path fill="#d9ead3" d="M2.642 195.294H251.02v38.803H2.642z" fill-rule="evenodd"/><path stroke="#000" stroke-linejoin="round" stroke-linecap="butt" d="M2.642 195.294H251.02v38.803H2.642z"/><path fill="#000" d="M35.507 216.381v-1.578h5.656v4.953q-1.297 1.047-2.687 1.578-1.375.516-2.844.516-1.969 0-3.578-.844-1.61-.844-2.422-2.437-.812-1.594-.812-3.563 0-1.953.812-3.64.813-1.688 2.344-2.5 1.531-.829 3.515-.829 1.454 0 2.625.47 1.172.468 1.829 1.312.671.828 1.015 2.172l-1.594.437q-.296-1.016-.75-1.594-.437-.593-1.265-.937-.828-.344-1.844-.344-1.203 0-2.094.375-.89.36-1.437.969-.531.594-.828 1.312-.516 1.235-.516 2.688 0 1.781.61 2.984.624 1.203 1.796 1.797 1.172.578 2.5.578 1.141 0 2.235-.437 1.093-.453 1.656-.953v-2.485h-3.922zm8.012 5.235v-13.36h1.64v13.36h-1.64zm3.582-4.844q0-2.688 1.484-3.969 1.25-1.078 3.047-1.078 2 0 3.266 1.312 1.265 1.297 1.265 3.61 0 1.86-.562 2.937-.563 1.063-1.64 1.657-1.063.593-2.329.593-2.031 0-3.281-1.297-1.25-1.312-1.25-3.765zm1.687 0q0 1.86.797 2.797.813.922 2.047.922 1.219 0 2.031-.922.813-.938.813-2.844 0-1.797-.813-2.719-.812-.922-2.03-.922-1.235 0-2.048.922-.797.906-.797 2.766zm10.798 4.844H58.07v-13.36h1.64v4.766q1.048-1.297 2.657-1.297.89 0 1.688.36.797.359 1.312 1.015.516.64.797 1.562.297.922.297 1.97 0 2.484-1.234 3.843-1.22 1.36-2.954 1.36-1.703 0-2.687-1.438v1.219zm-.016-4.907q0 1.735.485 2.516.765 1.266 2.093 1.266 1.079 0 1.86-.938.781-.937.781-2.781 0-1.89-.75-2.797-.75-.906-1.828-.906-1.063 0-1.86.937-.78.938-.78 2.703zm15.204 3.719q-.922.766-1.765 1.094-.829.312-1.797.312-1.594 0-2.453-.781-.86-.781-.86-1.984 0-.72.328-1.297.328-.594.844-.938.531-.36 1.188-.547.468-.125 1.453-.25 1.984-.234 2.922-.562.015-.344.015-.422 0-1-.469-1.422-.625-.547-1.875-.547-1.156 0-1.703.407-.547.406-.812 1.421l-1.61-.218q.22-1.016.72-1.641.5-.64 1.452-.984.953-.344 2.188-.344 1.25 0 2.015.297.782.281 1.141.734.375.438.516 1.11.078.421.078 1.515v2.188q0 2.28.11 2.89.109.594.405 1.157h-1.703q-.265-.516-.328-1.188zm-.14-3.672q-.891.375-2.672.625-1.016.14-1.438.328-.422.188-.656.532-.219.343-.219.78 0 .657.5 1.095.5.437 1.453.437.938 0 1.672-.406.75-.422 1.094-1.14.266-.563.266-1.641v-.61zm4.156 4.86v-13.36h1.641v13.36h-1.64zm9.579 0v-13.36h5.046q1.329 0 2.032.125.968.172 1.64.64.672.454 1.078 1.282.407.828.407 1.828 0 1.703-1.094 2.89-1.078 1.173-3.922 1.173h-3.422v5.422H88.37zm1.765-7h3.453q1.72 0 2.438-.641.719-.64.719-1.797 0-.844-.422-1.437-.422-.594-1.125-.782-.438-.125-1.64-.125h-3.423v4.782zm10.46 7v-9.672h1.468v1.468q.563-1.03 1.031-1.359.485-.328 1.063-.328.828 0 1.687.531l-.562 1.516q-.61-.36-1.203-.36-.547 0-.969.329-.422.328-.61.89-.28.875-.28 1.922v5.063h-1.626zm5.618-4.844q0-2.688 1.485-3.969 1.25-1.078 3.047-1.078 2 0 3.265 1.312 1.266 1.297 1.266 3.61 0 1.86-.563 2.937-.562 1.063-1.64 1.657-1.063.593-2.328.593-2.032 0-3.282-1.297-1.25-1.312-1.25-3.765zm1.688 0q0 1.86.797 2.797.812.922 2.047.922 1.218 0 2.03-.922.813-.938.813-2.844 0-1.797-.812-2.719-.813-.922-2.031-.922-1.235 0-2.047.922-.797.906-.797 2.766zm8.204 4.844l3.531-5.032-3.266-4.64h2.047l1.485 2.265q.421.64.671 1.078.407-.593.735-1.062l1.64-2.281h1.954l-3.344 4.547 3.594 5.125h-2.016l-1.984-3-.516-.813-2.547 3.813h-1.984zm10.343 3.718l-.187-1.531q.547.14.937.14.547 0 .875-.187.329-.172.547-.5.157-.25.5-1.219.047-.14.141-.406l-3.672-9.687h1.766l2.015 5.593q.391 1.079.703 2.25.282-1.125.672-2.203l2.078-5.64h1.641l-3.687 9.828q-.594 1.61-.922 2.203-.438.812-1 1.187-.563.375-1.344.375-.484 0-1.063-.203zm17.715.203q-1.36-1.703-2.297-4-.937-2.296-.937-4.765 0-2.156.703-4.14.828-2.313 2.531-4.595h1.172q-1.094 1.891-1.453 2.704-.547 1.25-.875 2.625-.39 1.703-.39 3.421 0 4.375 2.718 8.75h-1.172zm3.322-3.921v-13.36h5.922q1.781 0 2.703.36.938.359 1.484 1.28.563.907.563 2.016 0 1.407-.922 2.391-.922.969-2.844 1.234.703.344 1.078.672.766.703 1.454 1.766l2.328 3.64h-2.22l-1.765-2.78q-.78-1.204-1.28-1.829-.5-.64-.907-.89-.39-.266-.797-.36-.297-.078-.984-.078h-2.047v5.938h-1.766zm1.766-7.454h3.797q1.218 0 1.89-.25.688-.265 1.047-.812.36-.547.36-1.188 0-.953-.688-1.562-.688-.61-2.188-.61h-4.218v4.422zm18.098 4.344l1.687.203q-.406 1.485-1.484 2.313-1.078.812-2.766.812-2.125 0-3.375-1.297-1.234-1.312-1.234-3.671 0-2.454 1.25-3.797 1.265-1.344 3.265-1.344 1.938 0 3.157 1.328 1.234 1.313 1.234 3.703v.438h-7.219q.094 1.593.907 2.453.812.844 2.015.844.906 0 1.547-.47.64-.484 1.016-1.515zm-5.391-2.656h5.406q-.11-1.219-.625-1.828-.781-.953-2.031-.953-1.125 0-1.906.765-.766.75-.844 2.016zm15.454 2.219l1.61.218q-.266 1.657-1.36 2.61-1.078.937-2.672.937-1.984 0-3.188-1.297-1.203-1.296-1.203-3.718 0-1.578.516-2.75t1.578-1.75q1.063-.594 2.313-.594 1.578 0 2.578.797 1 .797 1.281 2.265l-1.594.235q-.234-.969-.812-1.453-.578-.5-1.39-.5-1.235 0-2.017.89-.78.89-.78 2.813 0 1.953.75 2.844.75.875 1.952.875.97 0 1.61-.594.656-.594.828-1.828zm9.64.437l1.688.203q-.406 1.485-1.484 2.313-1.079.812-2.766.812-2.125 0-3.375-1.297-1.234-1.312-1.234-3.671 0-2.454 1.25-3.797 1.265-1.344 3.265-1.344 1.938 0 3.156 1.328 1.235 1.313 1.235 3.703v.438h-7.219q.094 1.593.906 2.453.813.844 2.016.844.906 0 1.547-.47.64-.484 1.015-1.515zm-5.39-2.656h5.406q-.11-1.219-.625-1.828-.781-.953-2.031-.953-1.125 0-1.906.765-.766.75-.844 2.016zm9.141-5.703v-1.89h1.64v1.89h-1.64zm0 11.469v-9.672h1.64v9.672h-1.64zm6.833 0l-3.688-9.672h1.734l2.079 5.797q.328.937.625 1.937.203-.766.609-1.828l2.14-5.906h1.688l-3.656 9.672h-1.531zm13.265-3.11l1.688.203q-.407 1.485-1.485 2.313-1.078.812-2.765.812-2.125 0-3.375-1.297-1.235-1.312-1.235-3.671 0-2.454 1.25-3.797 1.266-1.344 3.266-1.344 1.937 0 3.156 1.328 1.235 1.313 1.235 3.703v.438h-7.22q.095 1.593.907 2.453.813.844 2.016.844.906 0 1.547-.47.64-.484 1.015-1.515zm-5.39-2.656h5.406q-.11-1.219-.625-1.828-.781-.953-2.031-.953-1.125 0-1.907.765-.765.75-.843 2.016zm9.125 5.766v-9.672h1.469v1.468q.562-1.03 1.031-1.359.485-.328 1.063-.328.828 0 1.687.531l-.562 1.516q-.61-.36-1.203-.36-.547 0-.97.329-.421.328-.609.89-.28.875-.28 1.922v5.063h-1.626zm7.307 3.921h-1.188q2.735-4.375 2.735-8.75 0-1.718-.391-3.39-.313-1.375-.875-2.625-.36-.828-1.469-2.735h1.188q1.703 2.282 2.53 4.594.688 1.985.688 4.14 0 2.47-.937 4.766-.938 2.297-2.281 4z"/><path fill="#fce5cd" d="M2.642 234.097H251.02V272.9H2.642z" fill-rule="evenodd"/><path stroke="#000" stroke-linejoin="round" stroke-linecap="butt" d="M2.642 234.097H251.02V272.9H2.642z"/><path fill="#000" d="M64.005 260.419v-13.36h5.922q1.781 0 2.703.36.937.36 1.484 1.28.563.907.563 2.017 0 1.406-.922 2.39-.922.969-2.844 1.235.703.343 1.078.671.766.704 1.453 1.766l2.329 3.64h-2.22l-1.765-2.78q-.781-1.204-1.281-1.829-.5-.64-.906-.89-.391-.266-.797-.36-.297-.078-.985-.078h-2.046v5.938h-1.766zm1.766-7.453h3.796q1.22 0 1.891-.25.688-.266 1.047-.813.36-.547.36-1.187 0-.954-.688-1.563-.688-.61-2.188-.61h-4.218v4.423zm18.097 4.343l1.688.203q-.406 1.485-1.484 2.313-1.079.812-2.766.812-2.125 0-3.375-1.296-1.234-1.313-1.234-3.672 0-2.453 1.25-3.797 1.265-1.344 3.265-1.344 1.938 0 3.156 1.328 1.235 1.313 1.235 3.703v.438h-7.219q.094 1.594.906 2.453.813.844 2.016.844.906 0 1.547-.469.64-.484 1.015-1.516zm-5.39-2.656h5.406q-.11-1.219-.625-1.828-.781-.953-2.031-.953-1.125 0-1.906.765-.766.75-.844 2.016zm12.72 4.297l.234 1.453q-.688.14-1.235.14-.89 0-1.39-.28-.485-.282-.688-.735-.203-.469-.203-1.937v-5.579h-1.203v-1.265h1.203v-2.39l1.625-.985v3.375h1.656v1.265h-1.656v5.672q0 .688.078.89.094.204.281.33.204.108.579.108.265 0 .718-.062zm7.933 1.469v-1.422q-1.125 1.64-3.063 1.64-.86 0-1.61-.328-.734-.328-1.093-.828-.36-.5-.5-1.219-.11-.468-.11-1.53v-5.985h1.641v5.36q0 1.28.11 1.734.156.64.656 1.015.5.375 1.234.375.735 0 1.375-.375.657-.39.922-1.031.266-.656.266-1.89v-5.188h1.64v9.672h-1.468zm4.032 0v-9.672h1.468v1.469q.563-1.032 1.032-1.36.484-.328 1.062-.328.828 0 1.688.531l-.563 1.516q-.61-.36-1.203-.36-.547 0-.969.329-.422.328-.61.89-.28.875-.28 1.922v5.063h-1.625zm6.228 0v-9.672h1.469v1.375q1.062-1.594 3.078-1.594.875 0 1.61.313.734.312 1.093.828.375.5.516 1.203.093.453.093 1.594v5.953h-1.64v-5.89q0-1-.203-1.485-.188-.5-.672-.797-.485-.297-1.141-.297-1.047 0-1.812.672-.75.656-.75 2.515v5.282h-1.641zm13.263 0l5.125-13.36h1.907l5.468 13.36h-2.015l-1.547-4.047h-5.594l-1.469 4.047h-1.875zm3.86-5.485h4.531l-1.406-3.703q-.625-1.687-.938-2.765-.265 1.28-.719 2.546l-1.468 3.922zm16.115 5.485V259.2q-.906 1.437-2.703 1.437-1.156 0-2.125-.64-.969-.64-1.5-1.781t-.531-2.625q0-1.454.484-2.625.485-1.188 1.438-1.813.968-.625 2.172-.625.875 0 1.546.375.688.36 1.11.953v-4.797h1.64v13.36h-1.53zm-5.172-4.828q0 1.859.782 2.78.78.923 1.843.923 1.078 0 1.828-.875.75-.89.75-2.688 0-1.984-.765-2.906-.766-.938-1.89-.938-1.079 0-1.813.891-.735.89-.735 2.813zm15.548 4.828V259.2q-.906 1.437-2.703 1.437-1.156 0-2.125-.64-.969-.64-1.5-1.781t-.531-2.625q0-1.454.484-2.625.484-1.188 1.437-1.813.97-.625 2.172-.625.875 0 1.547.375.688.36 1.11.953v-4.797h1.64v13.36h-1.531zm-5.172-4.828q0 1.859.781 2.78.782.923 1.844.923 1.078 0 1.828-.875.75-.89.75-2.688 0-1.984-.765-2.906-.766-.938-1.891-.938-1.078 0-1.813.891-.734.89-.734 2.813zm9.266 4.828v-9.672h1.47v1.469q.562-1.032 1.03-1.36.485-.328 1.063-.328.828 0 1.687.531l-.562 1.516q-.61-.36-1.203-.36-.547 0-.969.329-.422.328-.61.89-.28.875-.28 1.922v5.063h-1.626zm12.854-3.11l1.687.203q-.406 1.485-1.484 2.313-1.078.812-2.766.812-2.125 0-3.375-1.296-1.234-1.313-1.234-3.672 0-2.453 1.25-3.797 1.265-1.344 3.265-1.344 1.938 0 3.157 1.328 1.234 1.313 1.234 3.703v.438h-7.219q.094 1.594.907 2.453.812.844 2.015.844.906 0 1.547-.469.64-.484 1.016-1.516zm-5.391-2.656h5.406q-.11-1.219-.625-1.828-.781-.953-2.031-.953-1.125 0-1.906.765-.766.75-.844 2.016zm8.485 2.875l1.625-.25q.125.969.75 1.5.625.516 1.75.516t1.672-.453q.547-.47.547-1.094 0-.547-.484-.875-.329-.219-1.672-.547-1.813-.469-2.516-.797-.687-.328-1.047-.906-.36-.594-.36-1.313 0-.64.298-1.187.297-.563.812-.922.375-.281 1.031-.469.672-.203 1.422-.203 1.14 0 2 .328.86.328 1.266.89.422.563.578 1.5l-1.61.22q-.109-.75-.64-1.172-.516-.422-1.469-.422-1.14 0-1.625.375-.468.375-.468.875 0 .312.187.578.203.266.64.437.235.094 1.438.422 1.75.453 2.438.75.687.297 1.078.86.39.562.39 1.406 0 .828-.484 1.547-.469.719-1.375 1.125-.906.39-2.047.39-1.875 0-2.875-.78-.984-.782-1.25-2.329zm9.328 0l1.625-.25q.125.969.75 1.5.625.516 1.75.516t1.672-.453q.547-.47.547-1.094 0-.547-.484-.875-.328-.219-1.672-.547-1.813-.469-2.516-.797-.687-.328-1.047-.906-.36-.594-.36-1.313 0-.64.298-1.187.297-.563.812-.922.375-.281 1.032-.469.671-.203 1.421-.203 1.141 0 2 .328.86.328 1.266.89.422.563.578 1.5l-1.61.22q-.109-.75-.64-1.172-.515-.422-1.469-.422-1.14 0-1.625.375-.468.375-.468.875 0 .312.187.578.203.266.64.437.235.094 1.438.422 1.75.453 2.438.75.687.297 1.078.86.39.562.39 1.406 0 .828-.484 1.547-.469.719-1.375 1.125-.906.39-2.047.39-1.875 0-2.875-.78-.984-.782-1.25-2.329z"/><path fill="none" d="M43.209 117.688h167.244v42.015H43.209z"/><path fill="#000" d="M90.11 144.608h1.75v-.141q-.155-.422-.25-.969-.093-.547-.093-1.047v-4.578q0-.828-.297-1.437-.297-.625-.812-1.047-.531-.406-1.25-.61-.719-.203-1.563-.203-.922 0-1.656.25-.719.25-1.219.657-.5.422-.781.953-.266.515-.266 1.047h1.688q0-.313.14-.594.157-.281.438-.5.266-.203.656-.328.407-.14.907-.14.546 0 .968.14.438.14.735.39t.453.61q.172.344.172.797v.78h-1.828q-1.032 0-1.875.204-.829.188-1.422.594-.594.406-.922 1.015-.313.61-.313 1.422 0 .625.235 1.157.25.53.687.906.438.406 1.063.64.64.22 1.437.22.469 0 .89-.11.438-.094.829-.266.375-.172.687-.39.313-.235.563-.5.031.312.094.609.062.281.156.469zm-2.983-1.282q-.485 0-.86-.125-.375-.14-.625-.359-.234-.219-.36-.531-.124-.313-.124-.672 0-.39.14-.688.141-.296.407-.515.39-.313 1.03-.453.657-.157 1.532-.157h1.563v2q-.141.282-.407.563-.25.266-.593.469-.344.203-.782.343-.421.125-.921.125zm7.383-3.734v.203q0 1.047.28 1.969.282.906.798 1.594.5.672 1.218 1.062.735.375 1.625.375.922 0 1.594-.312.688-.313 1.188-.907l.062 1.032h1.547v-14h-1.687v5.125q-.47-.578-1.141-.86-.656-.297-1.547-.297-.89 0-1.625.375-.734.36-1.234 1.032-.516.656-.797 1.593-.281.922-.281 2.016zm1.687.203v-.203q0-.719.156-1.36.157-.656.485-1.156.312-.5.812-.78.516-.298 1.219-.298.828 0 1.375.39.562.392.89.985v4.578q-.328.641-.89 1.032-.547.375-1.39.375-.704 0-1.204-.282-.5-.296-.812-.78-.328-.5-.485-1.141-.156-.641-.156-1.36zm9.508-.203v.203q0 1.047.281 1.969.282.906.797 1.594.5.672 1.22 1.062.733.375 1.624.375.922 0 1.594-.312.687-.313 1.187-.907l.063 1.032h1.547v-14h-1.688v5.125q-.469-.578-1.14-.86-.657-.297-1.547-.297-.89 0-1.625.375-.735.36-1.235 1.032-.515.656-.797 1.593-.28.922-.28 2.016zm1.688.203v-.203q0-.719.156-1.36.156-.656.484-1.156.313-.5.813-.78.515-.298 1.219-.298.828 0 1.375.39.562.392.89.985v4.578q-.328.641-.89 1.032-.547.375-1.391.375-.703 0-1.203-.282-.5-.296-.813-.78-.328-.5-.484-1.141-.156-.641-.156-1.36zm16.664.36v-8.813h-1.797l-5.937 9.188v1h6.047v3.078h1.687v-3.078h1.844v-1.375h-1.844zm-5.875 0l3.906-6.063.282-.5v6.563h-4.188zm18.367 4.453v-1.375h-6.656l3.563-3.86q.5-.547.953-1.093.453-.563.797-1.125.328-.563.531-1.141.203-.578.203-1.172 0-.797-.281-1.469t-.797-1.156q-.516-.5-1.266-.781t-1.687-.281q-1.031 0-1.828.328-.797.328-1.344.89-.547.563-.844 1.313-.281.734-.281 1.562h1.687q0-.61.157-1.11.156-.515.484-.858.328-.344.813-.532.484-.203 1.156-.203.547 0 .969.188.437.187.75.5.296.328.453.765.172.422.172.922 0 .39-.11.781-.094.375-.328.797-.25.422-.64.922-.391.5-.97 1.14l-4.343 4.829v1.219h8.687zm4.727-5.391v.094q0 1.312.203 2.469.204 1.14.563 2.109.328.984.781 1.781.453.813.953 1.438.485.64.985 1.078.515.453.968.703l.36-1.031q-.375-.297-.75-.72-.36-.421-.703-.968-.344-.578-.657-1.312-.312-.72-.546-1.563-.22-.844-.344-1.828-.125-1-.125-2.14v-.126q0-1.187.125-2.203.14-1.031.39-1.89.266-.953.641-1.75.39-.797.797-1.391.281-.375.578-.687.297-.313.594-.532l-.36-1.11q-.453.25-.953.704-.5.453-1 1.078t-.953 1.438q-.437.812-.781 1.78-.36.985-.563 2.142-.203 1.14-.203 2.437zm15.68.094v-.094q0-1.39-.219-2.5-.203-1.125-.53-2.078-.345-.984-.798-1.781-.437-.797-.953-1.438-.484-.625-1-1.078-.515-.453-.969-.703l-.343 1.031q.297.25.61.61.327.343.624.796.39.594.766 1.391.375.797.64 1.797.172.703.328 1.719.157 1 .157 2.218v.125q0 1.094-.125 2.047-.11.953-.313 1.766-.203.89-.531 1.625-.313.75-.64 1.344-.36.578-.75 1.015-.391.453-.766.735l.343 1.03q.454-.25.954-.702.515-.438 1.015-1.078.5-.625.938-1.438.453-.797.812-1.781.344-.969.547-2.11.203-1.156.203-2.468zm8.352-3.781q0 .53.328.906.344.36 1 .36.64 0 .985-.36.343-.375.343-.906 0-.547-.343-.922-.329-.375-.985-.375-.672 0-1 .39-.328.375-.328.907zm2.172 8.687v-1.61h-1.828v1.641q0 .766-.188 1.485-.187.718-.625 1.359l1.047.578q.735-.656 1.156-1.61.438-.937.438-1.843z"/><path fill="none" d="M250.492 156.492a6.11 6.11 0 016.11 6.11V189.5a6.11 6.11 0 006.11 6.11 6.11 6.11 0 00-6.11 6.11v26.898a6.11 6.11 0 01-6.11 6.11z"/><path fill="none" d="M250.492 156.492a6.11 6.11 0 016.11 6.11V189.5a6.11 6.11 0 006.11 6.11 6.11 6.11 0 00-6.11 6.11v26.898a6.11 6.11 0 01-6.11 6.11"/><path stroke="#000" stroke-linejoin="round" stroke-linecap="butt" d="M250.492 156.492h0a6.11 6.11 0 016.11 6.11V189.5a6.11 6.11 0 006.11 6.11h0a6.11 6.11 0 00-6.11 6.11v26.898a6.11 6.11 0 01-6.11 6.11"/><path fill="none" d="M428.193 234.718a6.11 6.11 0 01-6.11-6.11v-26.46a6.11 6.11 0 00-6.11-6.11 6.11 6.11 0 006.11-6.11V47.411a6.11 6.11 0 016.11-6.11z"/><path fill="none" d="M428.193 234.718a6.11 6.11 0 01-6.11-6.11v-26.46a6.11 6.11 0 00-6.11-6.11 6.11 6.11 0 006.11-6.11V47.411a6.11 6.11 0 016.11-6.11"/><path stroke="#000" stroke-linejoin="round" stroke-linecap="butt" d="M428.193 234.718h0a6.11 6.11 0 01-6.11-6.11v-26.46a6.11 6.11 0 00-6.11-6.11h0a6.11 6.11 0 006.11-6.11V47.411a6.11 6.11 0 016.11-6.11"/><path fill="none" d="M289.342 164.54h100v62.141h-100z"/><path fill="#000" d="M316.162 187.303H313.6q-.032.61-.204 1.031-.156.422-.437.703-.281.266-.688.407-.406.125-.906.125-.375 0-.687-.078-.297-.094-.547-.282-.219-.156-.406-.406-.172-.25-.297-.562-.188-.47-.282-1.094-.078-.625-.078-1.422v-1.797q0-.578.047-1.078.063-.516.188-.938.156-.53.406-.937.266-.406.64-.625.22-.125.47-.188.265-.078.562-.078.562 0 .969.157.406.156.687.437.266.313.406.766.14.437.172 1.031h2.547q-.078-1.047-.437-1.875-.344-.828-.938-1.406-.61-.563-1.469-.875-.843-.313-1.937-.313-.735 0-1.375.188-.64.187-1.188.531-.593.406-1.078 1-.469.594-.75 1.344-.265.625-.39 1.36-.125.718-.125 1.515v1.781q0 .86.14 1.625.14.766.406 1.406.282.64.672 1.172.39.516.907.89.546.407 1.25.626.703.203 1.515.203 1.047 0 1.89-.297.86-.313 1.485-.875.61-.563.985-1.36.375-.812.437-1.812zm8.227 4.156h2.578v-.156q-.203-.375-.297-.89-.094-.516-.094-1.313v-4.234q0-.844-.328-1.5-.312-.657-.875-1.079-.562-.421-1.344-.64-.765-.219-1.656-.219-1 0-1.765.25-.766.25-1.297.672-.532.422-.813 1-.281.562-.281 1.187h2.531q0-.265.078-.484.078-.219.25-.375.172-.172.453-.266.297-.093.704-.093.453 0 .796.11.344.108.579.327.218.203.328.485.11.265.11.609v.594h-1.423q-1.094 0-1.937.203-.844.187-1.407.562-.64.407-.968 1.047-.313.625-.313 1.438 0 .64.25 1.187.266.547.719.938.453.39 1.078.61.64.218 1.39.218.47 0 .86-.094.406-.078.75-.234.328-.157.594-.344.281-.203.484-.438.047.266.11.5.062.235.156.422zm-2.406-1.78q-.36 0-.625-.079-.266-.094-.454-.234-.187-.157-.28-.375-.095-.235-.095-.485 0-.344.125-.625.125-.297.391-.5t.688-.312q.421-.125 1.015-.125h1.297v1.703q-.11.187-.312.375-.188.187-.454.328-.265.156-.593.25-.328.078-.703.078zm7.976-12.22v2.078h2.954v9.86h-2.954v2.062h8.329v-2.062h-2.813v-11.938h-5.516zm11.196 0v2.078h2.953v9.86h-2.953v2.062h8.328v-2.062h-2.812v-11.938h-5.516zm15.446 14.188q1.437 0 2.484-.547 1.047-.563 1.531-1.25l-1.265-1.375q-.438.578-1.141.86-.703.28-1.453.28-.531 0-.985-.156-.437-.172-.78-.484-.329-.281-.532-.64-.203-.36-.328-.954v-.031h6.687v-1.078q0-1.078-.312-1.969-.297-.906-.875-1.547-.578-.64-1.422-.984-.828-.344-1.89-.344-1.032 0-1.907.375-.875.36-1.5 1.031-.64.688-1 1.625-.36.922-.36 2.047v.375q0 .985.36 1.86.36.875 1.031 1.5.657.656 1.578 1.03.938.376 2.079.376zm-.297-8.172q.484 0 .843.156.375.14.625.39.266.266.407.626.14.36.14.75v.203h-4.14q.078-.484.265-.875.188-.39.453-.672.266-.281.625-.422.36-.156.782-.156zm13.789-2.047q-.984 0-1.828.484-.844.47-1.438 1.297l-.015-.218-.11-1.391h-2.359v9.86h2.531v-5.923q.172-.421.438-.718.265-.313.64-.516.313-.172.704-.25.406-.094.89-.094.485 0 1 .063.531.047 1.031.172l.375-2.532q-.312-.093-.796-.156-.485-.078-1.063-.078zM320.963 207.96v-2.063h-5.688v-3.61h6.407v-2.093h-8.97v13.265h2.563v-5.5h5.688zm9.946-4.532q-.985 0-1.829.484-.843.47-1.437 1.297l-.016-.218-.11-1.391h-2.358v9.86h2.53v-5.923q.173-.421.438-.718.266-.313.64-.516.313-.172.704-.25.406-.094.89-.094.485 0 1 .063.532.047 1.032.172l.375-2.532q-.313-.093-.797-.156-.484-.078-1.062-.078zm10.273 10.031h2.578v-.156q-.203-.375-.297-.89-.093-.516-.093-1.313v-4.234q0-.844-.328-1.5-.313-.657-.875-1.079-.563-.421-1.344-.64-.766-.219-1.656-.219-1 0-1.766.25t-1.297.672q-.531.422-.812 1-.282.562-.282 1.187h2.532q0-.265.078-.484.078-.219.25-.375.172-.172.453-.266.297-.093.703-.093.453 0 .797.11.344.108.578.327.219.203.328.485.11.265.11.609v.594h-1.422q-1.094 0-1.938.203-.844.187-1.406.562-.64.407-.969 1.047-.312.625-.312 1.438 0 .64.25 1.187.265.547.718.938.453.39 1.078.61.641.218 1.391.218.469 0 .86-.094.406-.078.75-.234.328-.157.593-.344.281-.203.485-.438.046.266.109.5.062.235.156.422zm-2.406-1.78q-.36 0-.625-.079-.266-.094-.453-.234-.188-.157-.281-.375-.094-.235-.094-.485 0-.344.125-.625.125-.297.39-.5.266-.203.688-.312.422-.125 1.016-.125h1.296v1.703q-.109.187-.312.375-.188.187-.453.328-.266.156-.594.25-.328.078-.703.078zm9.024-8.079h-2.172v9.86h2.297v-7.376q.047-.125.093-.218.063-.11.141-.172.094-.11.219-.157.14-.062.297-.062.14 0 .265.047.14.047.235.14.093.094.14.282.063.187.063.468v7.047h2.234v-7.265-.172-.094q.047-.094.11-.172.062-.078.14-.14.094-.063.203-.094.125-.047.266-.047.14 0 .266.047.14.047.234.14.11.11.156.297.063.172.063.453v7.047h2.312v-7.03q0-.829-.156-1.392-.156-.562-.453-.937-.281-.344-.672-.5-.39-.172-.828-.172-.36 0-.672.094-.297.078-.531.25-.188.125-.344.312-.156.172-.281.391-.094-.234-.203-.406-.11-.188-.266-.313-.203-.172-.484-.25-.266-.078-.61-.078-.719 0-1.219.375-.484.36-.765 1l-.078-1.203zm14.398 10.047q1.438 0 2.485-.547 1.047-.563 1.531-1.25l-1.266-1.375q-.437.578-1.14.86-.703.28-1.453.28-.532 0-.985-.156-.437-.172-.781-.484-.328-.281-.531-.64-.203-.36-.328-.954v-.031h6.687v-1.078q0-1.078-.312-1.969-.297-.906-.875-1.547-.579-.64-1.422-.984-.828-.344-1.89-.344-1.032 0-1.907.375-.875.36-1.5 1.031-.64.688-1 1.625-.36.922-.36 2.047v.375q0 .985.36 1.86.36.875 1.031 1.5.656.656 1.578 1.03.938.376 2.078.376zm-.297-8.172q.485 0 .844.156.375.14.625.39.266.266.406.626.141.36.141.75v.203h-4.14q.078-.484.265-.875.188-.39.453-.672.266-.281.625-.422.36-.156.781-.156z"/></g></svg>