<svg viewBox="0 0 679.213 276.058" fill="none" stroke-linecap="square" stroke-miterlimit="10" xmlns="http://www.w3.org/2000/svg"><clipPath id="a"><path d="M0 0h679.213v276.058H0V0z"/></clipPath><g clip-path="url(#a)"><path fill="none" d="M0 0h679.213v276.058H0z"/><path fill="#d9ead3" d="M428.286 36.927h248.378V75.73H428.286z" fill-rule="evenodd"/><path stroke="#000" stroke-linejoin="round" stroke-linecap="butt" d="M428.286 36.927h248.378V75.73H428.286z"/><path fill="#000" d="M543.353 66.208v-2.797h2.797v2.797h-2.797zm7.78 0v-2.797h2.796v2.797h-2.797zm7.779 0v-2.797h2.796v2.797h-2.796z"/><path fill="#d9ead3" d="M428.286 75.73h248.378v38.803H428.286z" fill-rule="evenodd"/><path stroke="#000" stroke-linejoin="round" stroke-linecap="butt" d="M428.286 75.73h248.378v38.803H428.286z"/><path fill="#000" d="M472.45 97.754l1.656-.14q.125 1 .546 1.64.438.641 1.344 1.047.922.39 2.063.39 1 0 1.78-.296.782-.297 1.157-.813.375-.53.375-1.156 0-.625-.375-1.094-.36-.468-1.187-.796-.547-.204-2.391-.641-1.828-.453-2.563-.844-.968-.5-1.437-1.234-.469-.75-.469-1.672 0-1 .578-1.875.579-.89 1.672-1.344 1.11-.453 2.453-.453 1.485 0 2.61.484 1.14.47 1.75 1.407.61.922.656 2.093l-1.688.125q-.14-1.265-.937-1.906-.781-.656-2.313-.656-1.609 0-2.343.594-.735.593-.735 1.422 0 .718.532 1.171.5.47 2.656.97 2.156.484 2.953.843 1.172.531 1.719 1.36.562.827.562 1.906 0 1.062-.61 2.015-.608.938-1.75 1.469-1.14.516-2.577.516-1.813 0-3.047-.532-1.219-.53-1.922-1.593-.688-1.063-.719-2.407zm12.833 4.297V92.38h1.47v1.36q.452-.719 1.202-1.14.766-.438 1.72-.438 1.077 0 1.765.453.687.437.968 1.234 1.157-1.687 2.985-1.687 1.453 0 2.219.796.78.797.78 2.454v6.64h-1.64v-6.094q0-.984-.156-1.406-.156-.437-.578-.703-.422-.266-.985-.266-1.015 0-1.687.688-.672.672-.672 2.156v5.625h-1.64V95.77q0-1.094-.407-1.64-.406-.548-1.312-.548-.688 0-1.282.36-.593.36-.859 1.062-.25.703-.25 2.032v5.015h-1.64zm15.541-11.469v-1.89h1.64v1.89h-1.64zm0 11.47v-9.673h1.64v9.672h-1.64zm8.875-3.532l1.64-.219q.282 1.406.954 2.016.688.61 1.656.61 1.157 0 1.953-.798.797-.797.797-1.984 0-1.125-.734-1.86-.734-.734-1.875-.734-.469 0-1.156.172l.187-1.437q.156.015.266.015 1.047 0 1.875-.547.844-.547.844-1.672 0-.906-.61-1.5-.61-.593-1.578-.593-.953 0-1.594.61-.64.593-.812 1.796l-1.64-.297q.296-1.64 1.358-2.547 1.063-.906 2.657-.906 1.094 0 2 .469.922.468 1.406 1.281.5.812.5 1.719 0 .86-.469 1.578-.468.703-1.375 1.125 1.188.281 1.844 1.14.656.86.656 2.157 0 1.734-1.281 2.953-1.266 1.219-3.219 1.219-1.765 0-2.922-1.047-1.156-1.047-1.328-2.719zm19.137 7.453q-1.359-1.703-2.296-4-.938-2.297-.938-4.766 0-2.156.703-4.14.828-2.313 2.531-4.594h1.172q-1.093 1.89-1.453 2.703-.547 1.25-.875 2.625-.39 1.703-.39 3.422 0 4.375 2.718 8.75h-1.172zm1.822-3.922l5.125-13.36h1.907l5.468 13.36h-2.015l-1.547-4.047h-5.594l-1.469 4.047h-1.875zm3.86-5.484h4.531l-1.406-3.703q-.625-1.688-.938-2.766-.265 1.281-.718 2.547l-1.47 3.922zm9.834 5.484V92.38h1.469v1.47q.562-1.032 1.031-1.36.484-.328 1.063-.328.828 0 1.687.53l-.562 1.516q-.61-.359-1.204-.359-.546 0-.968.328-.422.328-.61.89-.28.876-.28 1.923v5.062h-1.626zm5.916.797l1.594.234q.109.75.562 1.079.61.453 1.672.453 1.14 0 1.75-.453.625-.454.844-1.266.125-.5.11-2.11-1.063 1.266-2.673 1.266-2 0-3.094-1.437-1.093-1.438-1.093-3.453 0-1.391.5-2.563.515-1.172 1.453-1.797.953-.64 2.25-.64 1.703 0 2.812 1.375v-1.157h1.516v8.36q0 2.265-.469 3.203-.453.937-1.453 1.484-.984.547-2.453.547-1.719 0-2.797-.781-1.062-.766-1.031-2.344zm1.36-5.812q0 1.906.75 2.78.765.876 1.905.876 1.125 0 1.891-.86.766-.875.766-2.734 0-1.781-.797-2.672-.781-.906-1.89-.906-1.095 0-1.86.89-.766.876-.766 2.626zm15.656 5.015v-1.422q-1.125 1.641-3.062 1.641-.86 0-1.61-.328-.734-.328-1.093-.828-.36-.5-.5-1.219-.11-.469-.11-1.531v-5.985h1.64v5.36q0 1.281.11 1.734.156.64.656 1.016.5.375 1.235.375.734 0 1.375-.375.656-.39.922-1.032.265-.656.265-1.89v-5.188h1.64v9.672h-1.468zm4.048 0V92.38h1.469v1.36q.453-.719 1.203-1.14.765-.438 1.718-.438 1.079 0 1.766.453.688.437.969 1.234 1.156-1.687 2.984-1.687 1.453 0 2.219.796.781.797.781 2.454v6.64h-1.64v-6.094q0-.984-.157-1.406-.156-.437-.578-.703-.422-.266-.984-.266-1.016 0-1.688.688-.672.672-.672 2.156v5.625h-1.64V95.77q0-1.094-.406-1.64-.407-.548-1.313-.548-.687 0-1.281.36-.594.36-.86 1.062-.25.703-.25 2.032v5.015h-1.64zm22.166-3.11l1.687.204q-.406 1.484-1.484 2.312-1.078.813-2.766.813-2.125 0-3.375-1.297-1.234-1.312-1.234-3.672 0-2.453 1.25-3.797 1.265-1.343 3.265-1.343 1.938 0 3.157 1.328 1.234 1.312 1.234 3.703v.437h-7.219q.094 1.594.906 2.453.813.844 2.016.844.906 0 1.547-.469.64-.484 1.016-1.515zm-5.391-2.655h5.406q-.11-1.22-.625-1.829-.781-.953-2.031-.953-1.125 0-1.906.766-.766.75-.844 2.016zm9.141 5.765V92.38h1.469v1.375q1.063-1.593 3.078-1.593.875 0 1.61.312.734.313 1.093.828.375.5.516 1.203.094.453.094 1.594v5.953h-1.641v-5.89q0-1-.203-1.485-.188-.5-.672-.797-.484-.297-1.14-.297-1.047 0-1.813.672-.75.657-.75 2.516v5.281h-1.64zm13.954-1.469l.235 1.454q-.688.14-1.235.14-.89 0-1.39-.281-.485-.281-.688-.734-.203-.47-.203-1.938v-5.578h-1.203v-1.266h1.203v-2.39l1.625-.985v3.375h1.656v1.266h-1.656v5.672q0 .687.078.89.094.204.281.329.203.109.578.109.266 0 .72-.063zm6.335-2.062l1.641-.219q.281 1.406.953 2.016.688.61 1.656.61 1.157 0 1.954-.798.796-.797.796-1.984 0-1.125-.734-1.86-.734-.734-1.875-.734-.469 0-1.156.172l.187-1.437q.157.015.266.015 1.047 0 1.875-.547.844-.547.844-1.672 0-.906-.61-1.5-.609-.593-1.578-.593-.953 0-1.594.61-.64.593-.812 1.796l-1.64-.297q.296-1.64 1.359-2.547 1.062-.906 2.656-.906 1.094 0 2 .469.922.468 1.406 1.281.5.812.5 1.719 0 .86-.469 1.578-.468.703-1.375 1.125 1.188.281 1.844 1.14.656.86.656 2.157 0 1.734-1.28 2.953-1.266 1.219-3.22 1.219-1.765 0-2.921-1.047-1.157-1.047-1.329-2.719zm11.907 7.453h-1.187q2.734-4.375 2.734-8.75 0-1.719-.39-3.39-.313-1.376-.875-2.626-.36-.828-1.469-2.734h1.187q1.704 2.281 2.532 4.594.687 1.984.687 4.14 0 2.47-.937 4.766-.938 2.297-2.282 4z"/><path fill="#d9ead3" d="M428.286 114.533h248.378v38.803H428.286z" fill-rule="evenodd"/><path stroke="#000" stroke-linejoin="round" stroke-linecap="butt" d="M428.286 114.533h248.378v38.803H428.286z"/><path fill="#000" d="M472.45 136.558l1.656-.141q.125 1 .546 1.64.438.641 1.344 1.047.922.391 2.063.391 1 0 1.78-.297.782-.297 1.157-.812.375-.532.375-1.157t-.375-1.093q-.36-.47-1.187-.797-.547-.203-2.391-.64-1.828-.454-2.563-.845-.968-.5-1.437-1.234-.469-.75-.469-1.672 0-1 .578-1.875.579-.89 1.672-1.344 1.11-.453 2.453-.453 1.485 0 2.61.485 1.14.468 1.75 1.406.61.922.656 2.094l-1.688.125q-.14-1.266-.937-1.907-.781-.656-2.313-.656-1.609 0-2.343.594-.735.594-.735 1.422 0 .719.532 1.172.5.468 2.656.968 2.156.485 2.953.844 1.172.531 1.719 1.36.562.828.562 1.906 0 1.062-.61 2.015-.608.938-1.75 1.47-1.14.515-2.577.515-1.813 0-3.047-.531-1.219-.532-1.922-1.594-.688-1.063-.719-2.406zm12.833 4.296v-9.671h1.47v1.359q.452-.719 1.202-1.14.766-.438 1.72-.438 1.077 0 1.765.453.687.437.968 1.234 1.157-1.687 2.985-1.687 1.453 0 2.219.797.78.797.78 2.453v6.64h-1.64v-6.093q0-.985-.156-1.407-.156-.437-.578-.703-.422-.265-.985-.265-1.015 0-1.687.687-.672.672-.672 2.156v5.625h-1.64v-6.28q0-1.095-.407-1.641-.406-.547-1.312-.547-.688 0-1.282.359-.593.36-.859 1.063-.25.703-.25 2.03v5.016h-1.64zm15.541-11.468v-1.891h1.64v1.89h-1.64zm0 11.468v-9.671h1.64v9.671h-1.64zm17.485-1.578v1.578h-8.828q-.016-.593.187-1.14.344-.906 1.078-1.781.75-.875 2.156-2.016 2.172-1.781 2.938-2.828t.766-1.969q0-.984-.704-1.64-.687-.672-1.812-.672-1.188 0-1.906.718-.703.703-.703 1.953l-1.688-.171q.172-1.891 1.297-2.875 1.14-.985 3.031-.985 1.922 0 3.047 1.063 1.125 1.062 1.125 2.64 0 .797-.328 1.578-.328.782-1.094 1.641-.75.844-2.531 2.344-1.469 1.234-1.89 1.687-.423.438-.688.875h6.547zm10.527 5.5q-1.359-1.703-2.296-4-.938-2.297-.938-4.765 0-2.157.703-4.141.828-2.312 2.531-4.594h1.172q-1.093 1.89-1.453 2.703-.547 1.25-.875 2.625-.39 1.704-.39 3.422 0 4.375 2.718 8.75h-1.172zm1.822-3.922l5.125-13.359h1.907l5.468 13.36h-2.015l-1.547-4.047h-5.594l-1.469 4.046h-1.875zm3.86-5.484h4.531l-1.406-3.703q-.625-1.688-.938-2.766-.265 1.282-.718 2.547l-1.47 3.922zm9.834 5.484v-9.671h1.469v1.468q.562-1.031 1.031-1.36.484-.327 1.063-.327.828 0 1.687.531l-.562 1.516q-.61-.36-1.204-.36-.546 0-.968.328-.422.329-.61.891-.28.875-.28 1.922v5.062h-1.626zm5.916.797l1.594.235q.109.75.562 1.078.61.453 1.672.453 1.14 0 1.75-.453.625-.453.844-1.266.125-.5.11-2.11-1.063 1.266-2.673 1.266-2 0-3.094-1.437-1.093-1.438-1.093-3.453 0-1.39.5-2.563.515-1.172 1.453-1.797.953-.64 2.25-.64 1.703 0 2.812 1.375v-1.156h1.516v8.359q0 2.266-.469 3.203-.453.938-1.453 1.484-.984.547-2.453.547-1.719 0-2.797-.781-1.062-.766-1.031-2.344zm1.36-5.812q0 1.906.75 2.781.765.875 1.905.875 1.125 0 1.891-.86.766-.874.766-2.734 0-1.781-.797-2.672-.781-.906-1.89-.906-1.095 0-1.86.89-.766.876-.766 2.626zm15.656 5.015v-1.421q-1.125 1.64-3.062 1.64-.86 0-1.61-.328-.734-.328-1.093-.828-.36-.5-.5-1.219-.11-.469-.11-1.531v-5.984h1.64v5.359q0 1.281.11 1.734.156.64.656 1.016.5.375 1.235.375.734 0 1.375-.375.656-.39.922-1.031.265-.657.265-1.891v-5.187h1.64v9.671h-1.468zm4.048 0v-9.671h1.469v1.359q.453-.719 1.203-1.14.765-.438 1.718-.438 1.079 0 1.766.453.688.437.969 1.234 1.156-1.687 2.984-1.687 1.453 0 2.219.797.781.797.781 2.453v6.64h-1.64v-6.093q0-.985-.157-1.407-.156-.437-.578-.703-.422-.265-.984-.265-1.016 0-1.688.687-.672.672-.672 2.156v5.625h-1.64v-6.28q0-1.095-.406-1.641-.407-.547-1.313-.547-.687 0-1.281.359-.594.36-.86 1.063-.25.703-.25 2.03v5.016h-1.64zm22.166-3.109l1.687.203q-.406 1.485-1.484 2.313-1.078.812-2.766.812-2.125 0-3.375-1.297-1.234-1.312-1.234-3.672 0-2.453 1.25-3.796 1.265-1.344 3.265-1.344 1.938 0 3.157 1.328 1.234 1.312 1.234 3.703v.438h-7.219q.094 1.593.906 2.453.813.843 2.016.843.906 0 1.547-.468.64-.485 1.016-1.516zm-5.391-2.656h5.406q-.11-1.219-.625-1.828-.781-.953-2.031-.953-1.125 0-1.906.765-.766.75-.844 2.016zm9.141 5.765v-9.671h1.469v1.375q1.063-1.594 3.078-1.594.875 0 1.61.312.734.313 1.093.828.375.5.516 1.204.094.453.094 1.593v5.953h-1.641v-5.89q0-1-.203-1.485-.188-.5-.672-.796-.484-.297-1.14-.297-1.047 0-1.813.672-.75.656-.75 2.515v5.281h-1.64zm13.954-1.468l.235 1.453q-.688.14-1.235.14-.89 0-1.39-.28-.485-.282-.688-.735-.203-.469-.203-1.938v-5.578h-1.203v-1.265h1.203v-2.391l1.625-.984v3.375h1.656v1.265h-1.656v5.672q0 .688.078.89.094.204.281.329.203.11.578.11.266 0 .72-.063zm14.945-.11v1.578h-8.828q-.016-.593.187-1.14.344-.906 1.078-1.781.75-.875 2.157-2.016 2.171-1.781 2.937-2.828t.766-1.969q0-.984-.703-1.64-.688-.672-1.813-.672-1.187 0-1.906.718-.703.703-.703 1.953l-1.688-.171q.172-1.891 1.297-2.875 1.14-.985 3.031-.985 1.922 0 3.047 1.063 1.125 1.062 1.125 2.64 0 .797-.328 1.578-.328.782-1.094 1.641-.75.844-2.53 2.344-1.47 1.234-1.892 1.687-.421.438-.687.875h6.547zm3.297 5.5h-1.187q2.734-4.375 2.734-8.75 0-1.718-.39-3.39-.313-1.375-.875-2.625-.36-.828-1.469-2.735h1.187q1.704 2.282 2.532 4.594.687 1.984.687 4.14 0 2.47-.937 4.766-.938 2.297-2.282 4z"/><path fill="#d9ead3" d="M428.286 153.336h248.378v38.803H428.286z" fill-rule="evenodd"/><path stroke="#000" stroke-linejoin="round" stroke-linecap="butt" d="M428.286 153.336h248.378v38.803H428.286z"/><path fill="#000" d="M472.45 175.36l1.656-.14q.125 1 .546 1.64.438.641 1.344 1.048.922.39 2.063.39 1 0 1.78-.297.782-.297 1.157-.812.375-.531.375-1.156 0-.625-.375-1.094-.36-.469-1.187-.797-.547-.203-2.391-.64-1.828-.454-2.563-.844-.968-.5-1.437-1.235-.469-.75-.469-1.672 0-1 .578-1.875.579-.89 1.672-1.343 1.11-.454 2.453-.454 1.485 0 2.61.485 1.14.469 1.75 1.406.61.922.656 2.094l-1.688.125q-.14-1.266-.937-1.906-.781-.657-2.313-.657-1.609 0-2.343.594-.735.594-.735 1.422 0 .719.532 1.172.5.469 2.656.969 2.156.484 2.953.843 1.172.532 1.719 1.36.562.828.562 1.906 0 1.062-.61 2.016-.608.937-1.75 1.468-1.14.516-2.577.516-1.813 0-3.047-.531-1.219-.532-1.922-1.594-.688-1.063-.719-2.406zm12.833 4.298v-9.672h1.47v1.359q.452-.719 1.202-1.14.766-.438 1.72-.438 1.077 0 1.765.453.687.438.968 1.234 1.157-1.687 2.985-1.687 1.453 0 2.219.797.78.797.78 2.453v6.64h-1.64v-6.093q0-.985-.156-1.406-.156-.438-.578-.704-.422-.265-.985-.265-1.015 0-1.687.687-.672.672-.672 2.157v5.625h-1.64v-6.282q0-1.093-.407-1.64-.406-.547-1.312-.547-.688 0-1.282.36-.593.359-.859 1.062-.25.703-.25 2.03v5.017h-1.64zm15.541-11.47v-1.89h1.64v1.89h-1.64zm0 11.47v-9.672h1.64v9.672h-1.64zm15.047 0h-1.64v-10.454q-.594.563-1.563 1.141-.953.563-1.719.844v-1.594q1.375-.64 2.407-1.562 1.03-.922 1.453-1.782h1.062v13.407zm12.965 3.921q-1.359-1.703-2.296-4-.938-2.296-.938-4.765 0-2.156.703-4.14.828-2.313 2.531-4.595h1.172q-1.093 1.891-1.453 2.704-.547 1.25-.875 2.625-.39 1.703-.39 3.421 0 4.375 2.718 8.75h-1.172zm1.822-3.921l5.125-13.36h1.907l5.468 13.36h-2.015l-1.547-4.047h-5.594l-1.469 4.047h-1.875zm3.86-5.485h4.531l-1.406-3.703q-.625-1.687-.938-2.766-.265 1.282-.718 2.547l-1.47 3.922zm9.834 5.485v-9.672h1.469v1.468q.562-1.03 1.031-1.359.484-.328 1.063-.328.828 0 1.687.531l-.562 1.516q-.61-.36-1.204-.36-.546 0-.968.329-.422.328-.61.89-.28.875-.28 1.922v5.063h-1.626zm5.916.796l1.594.235q.109.75.562 1.078.61.453 1.672.453 1.14 0 1.75-.453.625-.453.844-1.266.125-.5.11-2.11-1.063 1.267-2.673 1.267-2 0-3.094-1.438-1.093-1.437-1.093-3.453 0-1.39.5-2.563.515-1.171 1.453-1.796.953-.641 2.25-.641 1.703 0 2.812 1.375v-1.156h1.516v8.359q0 2.266-.469 3.203-.453.938-1.453 1.485-.984.546-2.453.546-1.719 0-2.797-.78-1.062-.766-1.031-2.345zm1.36-5.812q0 1.906.75 2.781.765.875 1.905.875 1.125 0 1.891-.86.766-.874.766-2.734 0-1.78-.797-2.671-.781-.907-1.89-.907-1.095 0-1.86.89-.766.876-.766 2.626zm15.656 5.016v-1.422q-1.125 1.64-3.062 1.64-.86 0-1.61-.328-.734-.328-1.093-.828-.36-.5-.5-1.219-.11-.468-.11-1.531v-5.984h1.64v5.359q0 1.281.11 1.734.156.641.656 1.016t1.235.375q.734 0 1.375-.375.656-.39.922-1.031.265-.656.265-1.89v-5.188h1.64v9.672h-1.468zm4.048 0v-9.672h1.469v1.359q.453-.719 1.203-1.14.765-.438 1.718-.438 1.079 0 1.766.453.688.438.969 1.234 1.156-1.687 2.984-1.687 1.453 0 2.219.797.781.797.781 2.453v6.64h-1.64v-6.093q0-.985-.157-1.406-.156-.438-.578-.704-.422-.265-.984-.265-1.016 0-1.688.687-.672.672-.672 2.157v5.625h-1.64v-6.282q0-1.093-.406-1.64-.407-.547-1.313-.547-.687 0-1.281.36-.594.359-.86 1.062-.25.703-.25 2.03v5.017h-1.64zm22.166-3.11l1.687.203q-.406 1.485-1.484 2.313-1.078.812-2.766.812-2.125 0-3.375-1.297-1.234-1.312-1.234-3.671 0-2.454 1.25-3.797 1.265-1.344 3.265-1.344 1.938 0 3.157 1.328 1.234 1.313 1.234 3.703v.438h-7.219q.094 1.593.906 2.453.813.844 2.016.844.906 0 1.547-.47.64-.484 1.016-1.515zm-5.391-2.656h5.406q-.11-1.219-.625-1.828-.781-.953-2.031-.953-1.125 0-1.906.765-.766.75-.844 2.016zm9.141 5.766v-9.672h1.469v1.375q1.063-1.594 3.078-1.594.875 0 1.61.312.734.313 1.093.829.375.5.516 1.203.094.453.094 1.593v5.954h-1.641v-5.891q0-1-.203-1.484-.188-.5-.672-.797-.484-.297-1.14-.297-1.047 0-1.813.672-.75.656-.75 2.515v5.282h-1.64zm13.954-1.47l.235 1.454q-.688.14-1.235.14-.89 0-1.39-.28-.485-.282-.688-.735-.203-.469-.203-1.938v-5.578h-1.203v-1.265h1.203v-2.391l1.625-.984v3.375h1.656v1.265h-1.656v5.672q0 .688.078.89.094.204.281.329.203.11.578.11.266 0 .72-.063zm12.507 1.47h-1.64v-10.454q-.594.563-1.563 1.141-.953.563-1.719.844v-1.594q1.375-.64 2.407-1.562 1.031-.922 1.453-1.782h1.062v13.407zm5.735 3.921h-1.187q2.734-4.375 2.734-8.75 0-1.718-.39-3.39-.313-1.375-.875-2.625-.36-.828-1.469-2.735h1.187q1.704 2.282 2.532 4.594.687 1.985.687 4.14 0 2.47-.937 4.766-.938 2.297-2.282 4z"/><path fill="#d9ead3" d="M428.286 192.14h248.378v38.802H428.286z" fill-rule="evenodd"/><path stroke="#000" stroke-linejoin="round" stroke-linecap="butt" d="M428.286 192.14h248.378v38.802H428.286z"/><path fill="#000" d="M461.151 213.226v-1.578h5.657v4.953q-1.297 1.047-2.688 1.578-1.375.516-2.844.516-1.968 0-3.578-.844-1.609-.843-2.422-2.437-.812-1.594-.812-3.563 0-1.953.812-3.64.813-1.688 2.344-2.5 1.531-.828 3.516-.828 1.453 0 2.625.468 1.172.47 1.828 1.313.672.828 1.016 2.172l-1.594.437q-.297-1.015-.75-1.594-.438-.593-1.266-.937-.828-.344-1.844-.344-1.203 0-2.093.375-.89.36-1.438.969-.531.594-.828 1.312-.516 1.235-.516 2.688 0 1.781.61 2.984.625 1.203 1.797 1.797 1.172.578 2.5.578 1.14 0 2.234-.437 1.094-.453 1.656-.953v-2.485h-3.922zm8.012 5.235V205.1h1.64v13.36h-1.64zm3.582-4.844q0-2.688 1.485-3.969 1.25-1.078 3.046-1.078 2 0 3.266 1.313 1.266 1.296 1.266 3.609 0 1.86-.563 2.937-.562 1.063-1.64 1.657-1.063.593-2.329.593-2.03 0-3.28-1.296-1.25-1.313-1.25-3.766zm1.688 0q0 1.86.797 2.797.812.922 2.046.922 1.22 0 2.032-.922.812-.938.812-2.844 0-1.797-.812-2.719-.813-.922-2.032-.922-1.234 0-2.046.922-.797.907-.797 2.766zm10.797 4.844h-1.515V205.1h1.64v4.766q1.047-1.297 2.657-1.297.89 0 1.687.36.797.359 1.313 1.015.515.64.796 1.563.297.921.297 1.968 0 2.485-1.234 3.844-1.219 1.36-2.953 1.36-1.703 0-2.688-1.438v1.219zm-.015-4.907q0 1.735.484 2.516.766 1.266 2.094 1.266 1.078 0 1.86-.938.78-.937.78-2.781 0-1.89-.75-2.797-.75-.906-1.828-.906-1.062 0-1.86.937-.78.938-.78 2.703zm15.204 3.72q-.922.765-1.766 1.093-.828.312-1.797.312-1.594 0-2.453-.78-.86-.782-.86-1.985 0-.719.329-1.297.328-.594.843-.938.532-.359 1.188-.546.469-.125 1.453-.25 1.984-.235 2.922-.563.016-.344.016-.422 0-1-.47-1.422-.624-.547-1.874-.547-1.156 0-1.703.407-.547.406-.813 1.422l-1.61-.22q.22-1.015.72-1.64.5-.64 1.453-.984.953-.344 2.187-.344 1.25 0 2.016.297.781.281 1.14.734.375.438.516 1.11.078.422.078 1.515v2.188q0 2.281.11 2.89.109.594.406 1.157h-1.703q-.266-.516-.328-1.188zm-.141-3.673q-.89.375-2.672.625-1.016.14-1.437.328-.422.188-.657.532-.218.343-.218.78 0 .657.5 1.095.5.437 1.453.437.937 0 1.672-.406.75-.422 1.093-1.14.266-.563.266-1.641v-.61zm4.157 4.86V205.1h1.64v13.36h-1.64zm9.578 0V205.1h5.047q1.328 0 2.031.125.969.172 1.64.64.673.454 1.079 1.282.406.828.406 1.828 0 1.703-1.094 2.89-1.078 1.173-3.921 1.173h-3.422v5.422h-1.766zm1.766-7h3.453q1.719 0 2.437-.641.719-.64.719-1.797 0-.844-.422-1.437-.422-.594-1.125-.782-.437-.125-1.64-.125h-3.422v4.782zm10.459 7v-9.672h1.469v1.469q.562-1.032 1.03-1.36.485-.328 1.063-.328.828 0 1.688.531l-.563 1.516q-.61-.36-1.203-.36-.547 0-.969.329-.421.328-.609.89-.281.875-.281 1.922v5.063h-1.625zm5.619-4.844q0-2.688 1.484-3.969 1.25-1.078 3.047-1.078 2 0 3.266 1.313 1.265 1.296 1.265 3.609 0 1.86-.562 2.937-.563 1.063-1.64 1.657-1.063.593-2.329.593-2.031 0-3.281-1.296-1.25-1.313-1.25-3.766zm1.687 0q0 1.86.797 2.797.813.922 2.047.922 1.219 0 2.031-.922.813-.938.813-2.844 0-1.797-.813-2.719-.812-.922-2.031-.922-1.234 0-2.047.922-.797.907-.797 2.766zm8.204 4.844l3.531-5.032-3.265-4.64h2.047l1.484 2.265q.422.641.672 1.079.406-.594.734-1.063l1.64-2.281h1.954l-3.344 4.547 3.594 5.125h-2.016l-1.984-3-.516-.813-2.547 3.813h-1.984zm10.344 3.718l-.188-1.53q.547.14.938.14.547 0 .875-.188.328-.172.547-.5.156-.25.5-1.218.047-.141.14-.407l-3.672-9.687h1.766l2.016 5.594q.39 1.078.703 2.25.281-1.125.672-2.204l2.078-5.64h1.64l-3.687 9.828q-.594 1.61-.922 2.203-.437.813-1 1.188-.562.375-1.344.375-.484 0-1.062-.204zm17.714.204q-1.359-1.704-2.296-4-.938-2.297-.938-4.766 0-2.156.703-4.14.828-2.313 2.531-4.594h1.172q-1.093 1.89-1.453 2.703-.547 1.25-.875 2.625-.39 1.703-.39 3.422 0 4.375 2.718 8.75h-1.172zm3.322-3.922V205.1h5.922q1.782 0 2.703.36.938.359 1.485 1.28.562.907.562 2.017 0 1.406-.922 2.39-.921.969-2.843 1.235.703.343 1.078.671.765.704 1.453 1.766l2.328 3.64h-2.219l-1.765-2.78q-.782-1.204-1.282-1.829-.5-.64-.906-.89-.39-.266-.797-.36-.297-.078-.984-.078h-2.047v5.938h-1.766zm1.766-7.453h3.797q1.219 0 1.89-.25.688-.266 1.047-.813.36-.547.36-1.187 0-.954-.688-1.563-.687-.61-2.187-.61h-4.219v4.423zm18.098 4.343l1.688.203q-.407 1.485-1.485 2.313-1.078.812-2.765.812-2.125 0-3.375-1.296-1.235-1.313-1.235-3.672 0-2.453 1.25-3.797 1.266-1.344 3.266-1.344 1.937 0 3.156 1.328 1.234 1.313 1.234 3.703v.438h-7.218q.093 1.594.906 2.453.812.844 2.016.844.906 0 1.546-.47.641-.483 1.016-1.515zm-5.39-2.656h5.406q-.11-1.219-.625-1.828-.782-.953-2.032-.953-1.125 0-1.906.765-.765.75-.844 2.016zm15.453 2.219l1.61.219q-.266 1.656-1.36 2.609-1.078.937-2.672.937-1.984 0-3.187-1.296-1.203-1.297-1.203-3.72 0-1.577.515-2.75.516-1.171 1.578-1.75 1.063-.593 2.313-.593 1.578 0 2.578.797 1 .797 1.281 2.266l-1.593.234q-.235-.969-.813-1.453-.578-.5-1.39-.5-1.235 0-2.016.89-.781.891-.781 2.813 0 1.953.75 2.844.75.875 1.953.875.968 0 1.61-.594.655-.594.827-1.828zm9.64.437l1.688.203q-.406 1.485-1.484 2.313-1.078.812-2.766.812-2.125 0-3.375-1.296-1.234-1.313-1.234-3.672 0-2.453 1.25-3.797 1.266-1.344 3.266-1.344 1.937 0 3.156 1.328 1.234 1.313 1.234 3.703v.438h-7.219q.094 1.594.907 2.453.812.844 2.015.844.907 0 1.547-.47.64-.483 1.016-1.515zm-5.39-2.656h5.406q-.109-1.219-.625-1.828-.78-.953-2.03-.953-1.126 0-1.907.765-.766.75-.844 2.016zm9.142-5.703v-1.89h1.64v1.89h-1.64zm0 11.469v-9.672h1.64v9.672h-1.64zm6.832 0l-3.688-9.672h1.735l2.078 5.797q.328.937.625 1.937.203-.765.61-1.828l2.14-5.906h1.687l-3.656 9.672h-1.531zm13.265-3.11l1.688.203q-.406 1.485-1.484 2.313-1.079.812-2.766.812-2.125 0-3.375-1.296-1.234-1.313-1.234-3.672 0-2.453 1.25-3.797 1.265-1.344 3.265-1.344 1.938 0 3.156 1.328 1.235 1.313 1.235 3.703v.438h-7.219q.094 1.594.906 2.453.813.844 2.016.844.906 0 1.547-.47.64-.483 1.015-1.515zm-5.39-2.656h5.406q-.11-1.219-.625-1.828-.781-.953-2.031-.953-1.125 0-1.906.765-.766.75-.844 2.016zm9.126 5.766v-9.672h1.468v1.469q.563-1.032 1.032-1.36.484-.328 1.062-.328.828 0 1.688.531l-.563 1.516q-.61-.36-1.203-.36-.547 0-.969.329-.422.328-.61.89-.28.875-.28 1.922v5.063h-1.625zm7.306 3.922h-1.188q2.735-4.375 2.735-8.75 0-1.72-.39-3.391-.313-1.375-.876-2.625-.36-.828-1.469-2.734h1.188q1.703 2.28 2.531 4.593.688 1.985.688 4.14 0 2.47-.938 4.767-.937 2.296-2.281 4z"/><path fill="#cfe2f3" d="M428.286 230.942h248.378v38.803H428.286z" fill-rule="evenodd"/><path stroke="#000" stroke-linejoin="round" stroke-linecap="butt" d="M428.286 230.942h248.378v38.803H428.286z"/><path fill="#000" d="M489.65 257.264v-13.36h5.921q1.781 0 2.703.36.938.36 1.485 1.281.562.906.562 2.016 0 1.406-.922 2.39-.922.97-2.843 1.235.703.343 1.078.672.765.703 1.453 1.765l2.328 3.64h-2.219l-1.765-2.78q-.782-1.204-1.282-1.829-.5-.64-.906-.89-.39-.266-.797-.36-.297-.078-.984-.078h-2.047v5.938h-1.766zm1.765-7.453h3.797q1.219 0 1.89-.25.688-.266 1.047-.813.36-.547.36-1.187 0-.953-.688-1.563-.687-.61-2.187-.61h-4.22v4.423zm18.098 4.343l1.687.204q-.406 1.484-1.484 2.312-1.078.813-2.766.813-2.125 0-3.375-1.297-1.234-1.313-1.234-3.672 0-2.453 1.25-3.797 1.266-1.344 3.266-1.344 1.937 0 3.156 1.328 1.234 1.313 1.234 3.703v.438h-7.219q.094 1.594.907 2.453.812.844 2.015.844.907 0 1.547-.469.64-.484 1.016-1.516zm-5.39-2.656h5.405q-.109-1.219-.625-1.828-.78-.953-2.03-.953-1.126 0-1.907.766-.766.75-.844 2.015zm12.719 4.297l.234 1.453q-.687.14-1.234.14-.89 0-1.39-.28-.485-.282-.688-.735-.204-.469-.204-1.937v-5.578h-1.203v-1.266h1.203v-2.39l1.625-.985v3.375h1.657v1.266h-1.657v5.671q0 .688.079.891.093.203.28.328.204.11.579.11.266 0 .719-.063zm7.933 1.469v-1.422q-1.125 1.64-3.062 1.64-.86 0-1.61-.328-.734-.328-1.094-.828-.359-.5-.5-1.218-.109-.47-.109-1.532v-5.984h1.64v5.36q0 1.28.11 1.734.156.64.656 1.015.5.375 1.235.375.734 0 1.375-.375.656-.39.922-1.03.265-.657.265-1.892v-5.187h1.64v9.672h-1.468zm4.032 0v-9.672h1.469v1.469q.562-1.032 1.031-1.36.484-.328 1.062-.328.829 0 1.688.531l-.563 1.516q-.609-.36-1.203-.36-.547 0-.968.329-.422.328-.61.89-.281.875-.281 1.922v5.063h-1.625zm6.228 0v-9.672h1.469v1.375q1.063-1.594 3.078-1.594.875 0 1.61.313.734.312 1.093.828.375.5.516 1.203.094.453.094 1.594v5.953h-1.641v-5.89q0-1-.203-1.485-.188-.5-.672-.797-.484-.297-1.14-.297-1.047 0-1.813.672-.75.656-.75 2.516v5.28h-1.64zm13.264 0l5.125-13.36h1.906l5.469 13.36h-2.016l-1.547-4.047h-5.594l-1.468 4.047h-1.875zm3.86-5.485h4.53l-1.406-3.703q-.625-1.687-.937-2.765-.266 1.28-.72 2.547l-1.468 3.921zm16.115 5.485v-1.219q-.907 1.438-2.704 1.438-1.156 0-2.125-.641-.968-.64-1.5-1.781-.53-1.14-.53-2.625 0-1.453.484-2.625.484-1.188 1.437-1.813.969-.625 2.172-.625.875 0 1.547.375.687.36 1.11.953v-4.797h1.64v13.36h-1.531zm-5.172-4.828q0 1.86.78 2.78.782.923 1.845.923 1.078 0 1.828-.875.75-.89.75-2.688 0-1.984-.766-2.906-.765-.937-1.89-.937-1.079 0-1.813.89t-.734 2.813zm15.547 4.828v-1.219q-.906 1.438-2.703 1.438-1.156 0-2.125-.641-.969-.64-1.5-1.781-.531-1.14-.531-2.625 0-1.453.484-2.625.485-1.188 1.438-1.813.968-.625 2.172-.625.875 0 1.546.375.688.36 1.11.953v-4.797h1.64v13.36h-1.53zm-5.172-4.828q0 1.86.782 2.78.78.923 1.843.923 1.078 0 1.828-.875.75-.89.75-2.688 0-1.984-.765-2.906-.766-.937-1.89-.937-1.079 0-1.813.89-.735.89-.735 2.813zm9.267 4.828v-9.672h1.468v1.469q.563-1.032 1.032-1.36.484-.328 1.062-.328.828 0 1.688.531l-.563 1.516q-.61-.36-1.203-.36-.547 0-.969.329-.422.328-.609.89-.281.875-.281 1.922v5.063h-1.625zm12.853-3.11l1.688.204q-.407 1.484-1.485 2.312-1.078.813-2.765.813-2.125 0-3.375-1.297-1.235-1.313-1.235-3.672 0-2.453 1.25-3.797 1.266-1.344 3.266-1.344 1.937 0 3.156 1.328 1.234 1.313 1.234 3.703v.438h-7.218q.093 1.594.906 2.453.812.844 2.016.844.906 0 1.546-.469.641-.484 1.016-1.516zm-5.39-2.656h5.406q-.11-1.219-.625-1.828-.782-.953-2.032-.953-1.125 0-1.906.766-.765.75-.844 2.015zm8.484 2.875l1.625-.25q.125.969.75 1.5.625.516 1.75.516t1.672-.453q.547-.47.547-1.094 0-.547-.484-.875-.328-.219-1.672-.547-1.813-.469-2.516-.797-.687-.328-1.047-.906-.359-.594-.359-1.313 0-.64.297-1.187.297-.563.812-.922.375-.281 1.032-.469.672-.203 1.422-.203 1.14 0 2 .328.859.328 1.265.89.422.563.578 1.5l-1.609.22q-.11-.75-.64-1.172-.516-.422-1.47-.422-1.14 0-1.624.375-.47.375-.47.875 0 .312.188.578.203.266.641.438.234.093 1.437.421 1.75.454 2.438.75.687.297 1.078.86.39.562.39 1.406 0 .828-.484 1.547-.468.719-1.375 1.125-.906.39-2.047.39-1.875 0-2.875-.78-.984-.782-1.25-2.329zm9.329 0l1.625-.25q.125.969.75 1.5.625.516 1.75.516t1.671-.453q.547-.47.547-1.094 0-.547-.484-.875-.328-.219-1.672-.547-1.812-.469-2.516-.797-.687-.328-1.046-.906-.36-.594-.36-1.313 0-.64.297-1.187.297-.563.813-.922.375-.281 1.03-.469.673-.203 1.423-.203 1.14 0 2 .328.86.328 1.265.89.422.563.578 1.5l-1.609.22q-.11-.75-.64-1.172-.516-.422-1.47-.422-1.14 0-1.624.375-.469.375-.469.875 0 .312.187.578.204.266.641.438.234.093 1.438.421 1.75.454 2.437.75.688.297 1.078.86.39.562.39 1.406 0 .828-.484 1.547-.468.719-1.375 1.125-.906.39-2.046.39-1.875 0-2.875-.78-.985-.782-1.25-2.329z"/><path fill="none" d="M468.853 0h167.244v42.016H468.853z"/><path fill="#000" d="M487.766 26.92h1.75v-.14q-.156-.423-.25-.97-.093-.546-.093-1.046v-4.578q0-.829-.297-1.438-.297-.625-.813-1.047-.531-.406-1.25-.61-.719-.202-1.562-.202-.922 0-1.657.25-.718.25-1.218.656-.5.422-.782.953-.265.516-.265 1.047h1.687q0-.313.141-.594.156-.281.437-.5.266-.203.657-.328.406-.14.906-.14.547 0 .969.14.437.14.734.39t.453.61q.172.344.172.797v.781h-1.828q-1.031 0-1.875.203-.828.188-1.422.594-.594.406-.922 1.016-.312.61-.312 1.422 0 .625.234 1.156.25.531.688.906.437.406 1.062.64.64.22 1.438.22.468 0 .89-.11.438-.094.828-.266.375-.171.688-.39.312-.235.562-.5.032.312.094.61.063.28.156.468zm-2.984-1.281q-.484 0-.86-.125-.374-.14-.624-.36-.235-.218-.36-.53-.125-.313-.125-.673 0-.39.14-.687.141-.297.407-.516.39-.312 1.031-.453.657-.156 1.532-.156h1.562v2q-.14.281-.406.562-.25.266-.594.469-.344.203-.781.344-.422.125-.922.125zm7.383-3.735v.203q0 1.047.281 1.97.282.905.797 1.593.5.672 1.219 1.062.734.375 1.625.375.922 0 1.594-.312.687-.313 1.187-.906l.063 1.031h1.547v-14h-1.688v5.125q-.469-.578-1.14-.86-.657-.296-1.547-.296-.891 0-1.625.375-.735.36-1.235 1.031-.515.656-.797 1.594-.281.922-.281 2.015zm1.688.203v-.203q0-.718.156-1.359.156-.656.484-1.156.313-.5.813-.782.515-.296 1.218-.296.829 0 1.375.39.563.39.891.985v4.578q-.328.64-.89 1.031-.547.375-1.391.375-.703 0-1.203-.281-.5-.297-.813-.782-.328-.5-.484-1.14-.156-.64-.156-1.36zm9.508-.203v.203q0 1.047.28 1.97.282.905.798 1.593.5.672 1.219 1.062.734.375 1.625.375.921 0 1.593-.312.688-.313 1.188-.906l.062 1.031h1.547v-14h-1.687v5.125q-.47-.578-1.141-.86-.656-.296-1.547-.296-.89 0-1.625.375-.734.36-1.234 1.031-.516.656-.797 1.594-.281.922-.281 2.015zm1.687.203v-.203q0-.718.156-1.359.157-.656.485-1.156.312-.5.812-.782.516-.296 1.219-.296.828 0 1.375.39.563.39.89.985v4.578q-.327.64-.89 1.031-.547.375-1.39.375-.704 0-1.204-.281-.5-.297-.812-.782-.328-.5-.485-1.14-.156-.64-.156-1.36zm16.664.36v-8.813h-1.796l-5.938 9.188v1h6.047v3.078h1.687v-3.078h1.844v-1.375h-1.844zm-5.875 0l3.907-6.063.281-.5v6.563h-4.188zm18.368 4.453v-1.375h-6.656l3.562-3.86q.5-.546.953-1.093.453-.563.797-1.125.328-.563.531-1.14.204-.579.204-1.173 0-.797-.282-1.468-.281-.672-.797-1.157-.515-.5-1.265-.78-.75-.282-1.688-.282-1.031 0-1.828.328-.797.328-1.344.89-.546.563-.843 1.313-.282.734-.282 1.563h1.688q0-.61.156-1.11.156-.515.485-.86.328-.343.812-.53.484-.204 1.156-.204.547 0 .969.188.438.187.75.5.297.328.453.766.172.421.172.921 0 .391-.11.782-.093.375-.327.797-.25.421-.641.921-.39.5-.969 1.141l-4.344 4.828v1.219h8.688zm4.727-5.39v.093q0 1.313.203 2.469.203 1.14.562 2.11.328.984.782 1.78.453.813.953 1.438.484.64.984 1.078.516.453.969.703l.36-1.031q-.376-.297-.75-.719-.36-.422-.704-.969-.344-.578-.656-1.312-.313-.719-.547-1.563-.219-.843-.344-1.828-.125-1-.125-2.14v-.125q0-1.188.125-2.203.14-1.032.39-1.891.266-.953.641-1.75.391-.797.797-1.39.282-.376.578-.688.297-.313.594-.531l-.36-1.11q-.452.25-.952.703-.5.453-1 1.078t-.953 1.438q-.438.812-.782 1.781-.359.985-.562 2.14-.203 1.141-.203 2.438zm14.992 5.39V13.654h-.125l-5.031 1.938v1.531l3.469-1.312V26.92h1.687zm10.008-.39v-1.61h-1.828v1.64q0 .766-.187 1.485-.188.719-.625 1.36l1.047.577q.734-.656 1.156-1.609.437-.937.437-1.844zm15.055.39v-1.375h-6.656l3.562-3.86q.5-.546.954-1.093.453-.563.796-1.125.329-.563.532-1.14.203-.579.203-1.173 0-.797-.281-1.468-.282-.672-.797-1.157-.516-.5-1.266-.78-.75-.282-1.687-.282-1.032 0-1.829.328-.796.328-1.343.89-.547.563-.844 1.313-.281.734-.281 1.563h1.687q0-.61.156-1.11.157-.515.485-.86.328-.343.812-.53.485-.204 1.157-.204.546 0 .968.188.438.187.75.5.297.328.453.766.172.421.172.921 0 .391-.11.782-.093.375-.327.797-.25.421-.64.921-.391.5-.97 1.141l-4.343 4.828v1.219h8.687zm7.336-.39v-1.61h-1.828v1.64q0 .766-.187 1.485-.188.719-.625 1.36l1.047.577q.734-.656 1.156-1.609.437-.937.437-1.844zm8.883-7.048v1.36h1.204q.64 0 1.156.156.531.14.906.438.36.296.563.75.203.453.203 1.078t-.188 1.093q-.172.454-.5.766-.328.297-.797.453-.453.156-1.031.156-.578 0-1.047-.156-.469-.172-.797-.484-.328-.297-.5-.719-.172-.437-.172-.953h-1.687q0 .875.328 1.562.328.688.906 1.157.563.468 1.328.718.766.25 1.641.25.89 0 1.656-.265.782-.266 1.344-.766.563-.484.875-1.203.328-.719.328-1.656 0-.453-.11-.906-.093-.47-.359-.891-.265-.422-.703-.75-.422-.344-1.078-.563.547-.218.922-.562.39-.344.64-.734.25-.375.36-.782.125-.422.125-.797 0-.921-.297-1.625-.281-.703-.812-1.171-.532-.485-1.266-.72-.734-.25-1.625-.25-.922 0-1.687.298-.75.281-1.282.781-.531.5-.828 1.172-.297.656-.297 1.422h1.688q0-.516.172-.938.172-.422.5-.719.312-.296.75-.453.437-.172.984-.172.547 0 .984.141.438.14.72.422.296.297.452.734.157.438.157 1.032 0 .5-.172.921-.172.422-.5.72-.328.312-.828.484-.485.171-1.125.171h-1.204zm15.384 2.141v-.094q0-1.39-.22-2.5-.202-1.125-.53-2.078-.344-.984-.797-1.781-.438-.797-.953-1.438-.485-.625-1-1.078-.516-.453-.97-.703l-.343 1.031q.297.25.61.61.328.344.624.797.391.593.766 1.39.375.797.64 1.797.173.703.329 1.719.156 1 .156 2.219v.125q0 1.093-.125 2.047-.11.953-.312 1.765-.204.89-.532 1.625-.312.75-.64 1.344-.36.578-.75 1.016-.391.453-.766.734l.344 1.031q.453-.25.953-.703.516-.437 1.016-1.078.5-.625.937-1.438.453-.796.813-1.78.343-.97.546-2.11.204-1.156.204-2.469zm8.351-3.781q0 .531.328.906.344.36 1 .36.641 0 .985-.36.344-.375.344-.906 0-.547-.344-.922-.328-.375-.985-.375-.671 0-1 .39-.328.376-.328.907zm2.172 8.687V24.92h-1.828v1.64q0 .766-.187 1.485-.188.719-.625 1.36l1.046.577q.735-.656 1.157-1.609.437-.937.437-1.844z"/><path fill="#d9ead3" d="M2.735 153.335h248.378v38.803H2.735z" fill-rule="evenodd"/><path stroke="#000" stroke-linejoin="round" stroke-linecap="butt" d="M2.735 153.335h248.378v38.803H2.735z"/><path fill="#000" d="M120.836 179.656v-1.875h1.875v1.875h-1.875zm5.184 0v-1.875h1.875v1.875h-1.875zm5.183 0v-1.875h1.875v1.875h-1.875z"/><path fill="#d9ead3" d="M2.735 192.138h248.378v38.803H2.735z" fill-rule="evenodd"/><path stroke="#000" stroke-linejoin="round" stroke-linecap="butt" d="M2.735 192.138h248.378v38.803H2.735z"/><path fill="#000" d="M35.6 213.225v-1.578h5.657v4.953q-1.297 1.047-2.688 1.578-1.375.516-2.844.516-1.968 0-3.578-.844-1.61-.844-2.422-2.438-.812-1.593-.812-3.562 0-1.953.812-3.64.813-1.688 2.344-2.5 1.531-.829 3.516-.829 1.453 0 2.625.469t1.828 1.312q.672.829 1.015 2.172l-1.593.438q-.297-1.016-.75-1.594-.438-.594-1.266-.937-.828-.344-1.844-.344-1.203 0-2.093.375-.891.36-1.438.969-.531.593-.828 1.312-.516 1.234-.516 2.688 0 1.78.61 2.984.625 1.203 1.797 1.797 1.171.578 2.5.578 1.14 0 2.234-.438 1.094-.453 1.656-.953v-2.484H35.6zm8.012 5.234V205.1h1.64v13.36h-1.64zm3.582-4.843q0-2.688 1.484-3.97 1.25-1.077 3.047-1.077 2 0 3.266 1.312 1.266 1.297 1.266 3.61 0 1.859-.563 2.937-.562 1.063-1.64 1.656-1.063.594-2.329.594-2.031 0-3.281-1.297-1.25-1.312-1.25-3.765zm1.688 0q0 1.859.796 2.796.813.922 2.047.922 1.219 0 2.032-.922.812-.937.812-2.843 0-1.797-.812-2.719-.813-.922-2.032-.922-1.234 0-2.047.922-.796.906-.796 2.766zm10.797 4.843h-1.516V205.1h1.641v4.766q1.047-1.297 2.656-1.297.891 0 1.688.36.797.358 1.312 1.015.516.64.797 1.562.297.922.297 1.969 0 2.484-1.234 3.844-1.219 1.36-2.953 1.36-1.704 0-2.688-1.438v1.218zm-.016-4.906q0 1.734.485 2.516.765 1.265 2.094 1.265 1.078 0 1.859-.937.781-.938.781-2.781 0-1.891-.75-2.797-.75-.907-1.828-.907-1.062 0-1.86.938-.78.937-.78 2.703zm15.204 3.719q-.922.765-1.765 1.094-.828.312-1.797.312-1.594 0-2.453-.781-.86-.781-.86-1.985 0-.718.328-1.296.329-.594.844-.938.531-.36 1.188-.547.468-.125 1.453-.25 1.984-.234 2.922-.562.015-.344.015-.422 0-1-.468-1.422-.625-.547-1.875-.547-1.157 0-1.704.406-.546.407-.812 1.422l-1.61-.219q.22-1.015.72-1.64.5-.64 1.452-.985.954-.343 2.188-.343 1.25 0 2.016.297.78.28 1.14.734.375.437.516 1.11.078.421.078 1.515v2.187q0 2.282.11 2.891.109.594.406 1.156h-1.704q-.265-.515-.328-1.187zm-.14-3.672q-.89.375-2.672.625-1.016.14-1.438.328-.422.188-.656.531-.219.344-.219.782 0 .656.5 1.093.5.438 1.453.438.938 0 1.672-.406.75-.422 1.094-1.141.266-.563.266-1.64v-.61zm4.157 4.86V205.1h1.64v13.36h-1.64zm9.578 0V205.1h5.047q1.328 0 2.03.125.97.172 1.642.64.671.454 1.078 1.282.406.828.406 1.828 0 1.703-1.094 2.89-1.078 1.172-3.922 1.172h-3.422v5.422h-1.765zm1.765-7h3.454q1.718 0 2.437-.641.719-.64.719-1.797 0-.844-.422-1.438-.422-.593-1.125-.78-.438-.126-1.64-.126h-3.423v4.781zm10.46 7v-9.673h1.468v1.47q.563-1.032 1.032-1.36.484-.328 1.062-.328.828 0 1.688.531l-.563 1.516q-.61-.36-1.203-.36-.547 0-.969.328-.422.328-.61.891-.28.875-.28 1.922v5.062h-1.625zm5.619-4.844q0-2.688 1.484-3.97 1.25-1.077 3.047-1.077 2 0 3.265 1.312 1.266 1.297 1.266 3.61 0 1.859-.562 2.937-.563 1.063-1.641 1.656-1.063.594-2.328.594-2.031 0-3.281-1.297-1.25-1.312-1.25-3.765zm1.687 0q0 1.859.797 2.796.812.922 2.047.922 1.219 0 2.031-.922.813-.937.813-2.843 0-1.797-.813-2.719-.812-.922-2.031-.922-1.235 0-2.047.922-.797.906-.797 2.766zm8.204 4.843l3.531-5.03-3.265-4.642h2.046l1.485 2.266q.422.64.672 1.078.406-.594.734-1.062l1.64-2.282h1.954l-3.344 4.547 3.594 5.125h-2.016l-1.984-3-.516-.812-2.547 3.812h-1.984zm10.344 3.72l-.188-1.532q.547.14.938.14.547 0 .875-.187.328-.172.547-.5.156-.25.5-1.219.046-.14.14-.406l-3.672-9.688h1.766l2.016 5.594q.39 1.078.703 2.25.28-1.125.672-2.203l2.078-5.64h1.64l-3.687 9.828q-.594 1.609-.922 2.203-.438.812-1 1.187-.563.375-1.344.375-.484 0-1.062-.203zm17.714.202q-1.36-1.703-2.297-4-.937-2.297-.937-4.765 0-2.157.703-4.141.828-2.313 2.531-4.594h1.172q-1.094 1.89-1.453 2.703-.547 1.25-.875 2.625-.39 1.703-.39 3.422 0 4.375 2.718 8.75h-1.172zm3.322-3.922V205.1h5.922q1.781 0 2.703.36.938.359 1.485 1.28.562.907.562 2.016 0 1.406-.922 2.39-.922.97-2.844 1.235.704.344 1.079.672.765.703 1.453 1.766l2.328 3.64h-2.219l-1.766-2.78q-.78-1.204-1.28-1.829-.5-.64-.907-.89-.39-.266-.797-.36-.297-.078-.984-.078h-2.047v5.937h-1.766zm1.766-7.453h3.797q1.218 0 1.89-.25.688-.265 1.047-.812.36-.547.36-1.188 0-.953-.688-1.562-.687-.61-2.187-.61h-4.22v4.422zm18.098 4.344l1.687.203q-.406 1.484-1.484 2.313-1.078.812-2.766.812-2.125 0-3.375-1.297-1.234-1.312-1.234-3.672 0-2.453 1.25-3.797 1.266-1.343 3.266-1.343 1.937 0 3.156 1.328 1.234 1.312 1.234 3.703v.437h-7.219q.094 1.594.907 2.454.812.843 2.015.843.907 0 1.547-.468.64-.485 1.016-1.516zm-5.39-2.656h5.405q-.109-1.219-.625-1.828-.78-.954-2.03-.954-1.126 0-1.907.766-.766.75-.844 2.016zm15.453 2.218l1.61.22q-.266 1.655-1.36 2.609-1.078.937-2.672.937-1.984 0-3.187-1.297-1.203-1.297-1.203-3.719 0-1.578.515-2.75.516-1.171 1.578-1.75 1.063-.593 2.313-.593 1.578 0 2.578.797 1 .796 1.281 2.265l-1.594.235q-.234-.97-.812-1.454-.578-.5-1.39-.5-1.235 0-2.016.891-.782.89-.782 2.813 0 1.953.75 2.843.75.875 1.954.875.968 0 1.609-.593.656-.594.828-1.829zm9.64.438l1.688.203q-.406 1.484-1.484 2.313-1.078.812-2.766.812-2.125 0-3.375-1.297-1.234-1.312-1.234-3.672 0-2.453 1.25-3.797 1.265-1.343 3.265-1.343 1.938 0 3.157 1.328 1.234 1.312 1.234 3.703v.437h-7.219q.094 1.594.907 2.454.812.843 2.015.843.906 0 1.547-.468.64-.485 1.016-1.516zm-5.39-2.656h5.406q-.11-1.219-.625-1.828-.781-.954-2.031-.954-1.125 0-1.906.766-.766.75-.844 2.016zm9.141-5.703V205.1h1.641v1.89h-1.64zm0 11.468v-9.672h1.641v9.672h-1.64zm6.833 0l-3.688-9.672h1.735l2.078 5.797q.328.938.625 1.938.203-.766.61-1.828l2.14-5.907h1.687l-3.656 9.672h-1.531zm13.265-3.109l1.688.203q-.406 1.484-1.485 2.313-1.078.812-2.765.812-2.125 0-3.375-1.297-1.235-1.312-1.235-3.672 0-2.453 1.25-3.797 1.266-1.343 3.266-1.343 1.938 0 3.156 1.328 1.235 1.312 1.235 3.703v.437h-7.22q.095 1.594.907 2.454.813.843 2.016.843.906 0 1.547-.468.64-.485 1.015-1.516zm-5.39-2.656h5.406q-.11-1.219-.625-1.828-.781-.954-2.031-.954-1.125 0-1.907.766-.765.75-.843 2.016zm9.125 5.765v-9.672h1.47v1.47q.562-1.032 1.03-1.36.485-.328 1.063-.328.828 0 1.687.531l-.562 1.516q-.61-.36-1.203-.36-.547 0-.969.328-.422.328-.61.891-.28.875-.28 1.922v5.062h-1.626zm7.307 3.922h-1.188q2.735-4.375 2.735-8.75 0-1.719-.39-3.39-.313-1.375-.876-2.625-.36-.829-1.469-2.735h1.188q1.703 2.281 2.531 4.594.688 1.984.688 4.14 0 2.47-.938 4.766-.937 2.297-2.281 4z"/><path fill="#cfe2f3" d="M2.735 230.94h248.378v38.804H2.735z" fill-rule="evenodd"/><path stroke="#000" stroke-linejoin="round" stroke-linecap="butt" d="M2.735 230.94h248.378v38.804H2.735z"/><path fill="#000" d="M64.098 257.262v-13.359h5.922q1.781 0 2.703.36.938.359 1.484 1.28.563.907.563 2.016 0 1.407-.922 2.391-.922.969-2.844 1.234.703.344 1.078.672.766.703 1.454 1.766l2.328 3.64h-2.219l-1.766-2.78q-.78-1.204-1.28-1.829-.5-.64-.907-.89-.39-.266-.797-.36-.297-.078-.984-.078h-2.047v5.938h-1.766zm1.766-7.453h3.797q1.218 0 1.89-.25.688-.265 1.047-.812.36-.547.36-1.188 0-.953-.688-1.562-.688-.61-2.188-.61h-4.218v4.422zm18.098 4.344l1.687.203q-.406 1.485-1.484 2.313-1.078.812-2.766.812-2.125 0-3.375-1.297-1.234-1.312-1.234-3.672 0-2.453 1.25-3.796 1.265-1.344 3.265-1.344 1.938 0 3.157 1.328 1.234 1.313 1.234 3.703v.438h-7.219q.094 1.593.907 2.453.812.843 2.015.843.906 0 1.547-.468.64-.485 1.016-1.516zm-5.391-2.656h5.406q-.11-1.219-.625-1.828-.781-.953-2.031-.953-1.125 0-1.906.765-.766.75-.844 2.016zm12.72 4.297l.234 1.453q-.688.14-1.234.14-.891 0-1.391-.28-.484-.282-.688-.735-.203-.469-.203-1.938v-5.578h-1.203v-1.265h1.203V245.2l1.625-.984v3.375h1.657v1.265h-1.657v5.672q0 .688.078.89.094.204.282.329.203.11.578.11.265 0 .719-.063zm7.933 1.468v-1.421q-1.125 1.64-3.063 1.64-.86 0-1.61-.328-.733-.328-1.093-.828-.36-.5-.5-1.219-.11-.469-.11-1.531v-5.984h1.641v5.359q0 1.281.11 1.734.156.641.656 1.016t1.234.375q.735 0 1.375-.375.657-.39.922-1.031.266-.657.266-1.89v-5.188h1.64v9.671h-1.468zm4.032 0v-9.671h1.469v1.468q.562-1.03 1.03-1.359.485-.328 1.063-.328.828 0 1.688.531l-.563 1.516q-.61-.36-1.203-.36-.547 0-.969.328-.421.329-.609.891-.281.875-.281 1.922v5.063h-1.625zm6.228 0v-9.671h1.469v1.375q1.062-1.594 3.078-1.594.875 0 1.61.312.734.313 1.093.828.375.5.516 1.204.093.453.093 1.593v5.953h-1.64v-5.89q0-1-.203-1.485-.188-.5-.672-.796-.485-.297-1.14-.297-1.048 0-1.813.672-.75.656-.75 2.515v5.281h-1.64zm13.264 0l5.125-13.359h1.906l5.469 13.36h-2.016l-1.547-4.047h-5.594l-1.468 4.046h-1.875zm3.859-5.484h4.531l-1.406-3.703q-.625-1.688-.938-2.766-.265 1.282-.718 2.547l-1.47 3.922zm16.115 5.484v-1.218q-.906 1.437-2.703 1.437-1.156 0-2.125-.64-.969-.641-1.5-1.782-.531-1.14-.531-2.625 0-1.453.484-2.625.485-1.187 1.438-1.812.969-.625 2.172-.625.875 0 1.547.375.687.36 1.109.953v-4.797h1.64v13.36h-1.53zm-5.172-4.828q0 1.86.782 2.782.781.921 1.843.921 1.079 0 1.829-.875.75-.89.75-2.687 0-1.984-.766-2.906-.766-.938-1.89-.938-1.079 0-1.813.89-.735.891-.735 2.813zm15.548 4.828v-1.218q-.906 1.437-2.703 1.437-1.156 0-2.125-.64-.969-.641-1.5-1.782-.531-1.14-.531-2.625 0-1.453.484-2.625.484-1.187 1.438-1.812.968-.625 2.171-.625.875 0 1.547.375.688.36 1.11.953v-4.797h1.64v13.36h-1.53zm-5.172-4.828q0 1.86.781 2.782.782.921 1.844.921 1.078 0 1.828-.875.75-.89.75-2.687 0-1.984-.765-2.906-.766-.938-1.89-.938-1.08 0-1.813.89-.735.891-.735 2.813zm9.267 4.828v-9.671h1.468v1.468q.563-1.03 1.032-1.359.484-.328 1.062-.328.828 0 1.688.531l-.563 1.516q-.61-.36-1.203-.36-.547 0-.969.328-.422.329-.61.891-.28.875-.28 1.922v5.063h-1.625zm12.853-3.109l1.687.203q-.406 1.485-1.484 2.313-1.078.812-2.766.812-2.125 0-3.375-1.297-1.234-1.312-1.234-3.672 0-2.453 1.25-3.796 1.266-1.344 3.266-1.344 1.937 0 3.156 1.328 1.234 1.313 1.234 3.703v.438h-7.219q.094 1.593.907 2.453.812.843 2.015.843.907 0 1.547-.468.64-.485 1.016-1.516zm-5.39-2.656h5.405q-.109-1.219-.625-1.828-.78-.953-2.03-.953-1.126 0-1.907.765-.766.75-.844 2.016zm8.484 2.875l1.625-.25q.125.969.75 1.5.625.515 1.75.515t1.672-.453q.547-.468.547-1.093 0-.547-.484-.875-.328-.22-1.672-.547-1.813-.469-2.516-.797-.687-.328-1.047-.906-.36-.594-.36-1.313 0-.64.298-1.187.297-.563.812-.922.375-.282 1.032-.469.671-.203 1.421-.203 1.141 0 2 .328.86.328 1.266.89.422.563.578 1.5l-1.61.22q-.109-.75-.64-1.173-.515-.421-1.469-.421-1.14 0-1.625.375-.468.375-.468.875 0 .312.187.578.203.265.64.437.235.094 1.438.422 1.75.453 2.438.75.687.297 1.078.86.39.562.39 1.406 0 .828-.484 1.547-.469.718-1.375 1.125-.906.39-2.047.39-1.875 0-2.875-.781-.984-.781-1.25-2.328zm9.328 0l1.625-.25q.125.969.75 1.5.625.515 1.75.515t1.672-.453q.547-.468.547-1.093 0-.547-.484-.875-.328-.22-1.672-.547-1.813-.469-2.516-.797-.687-.328-1.047-.906-.359-.594-.359-1.313 0-.64.297-1.187.297-.563.812-.922.375-.282 1.032-.469.672-.203 1.422-.203 1.14 0 2 .328.859.328 1.265.89.422.563.578 1.5l-1.61.22q-.108-.75-.64-1.173-.515-.421-1.468-.421-1.141 0-1.625.375-.47.375-.47.875 0 .312.188.578.203.265.64.437.235.094 1.438.422 1.75.453 2.438.75.687.297 1.078.86.39.562.39 1.406 0 .828-.484 1.547-.468.718-1.375 1.125-.906.39-2.047.39-1.875 0-2.875-.781-.984-.781-1.25-2.328z"/><path fill="none" d="M43.302 114.531h167.244v42.016H43.302z"/><path fill="#000" d="M90.204 141.451h1.75v-.14q-.156-.422-.25-.969-.094-.547-.094-1.047v-4.578q0-.828-.297-1.437-.296-.625-.812-1.047-.531-.407-1.25-.61t-1.563-.203q-.921 0-1.656.25-.719.25-1.219.656-.5.422-.78.954-.266.515-.266 1.046h1.687q0-.312.14-.593.157-.282.438-.5.266-.203.656-.328.407-.141.907-.141.547 0 .968.14.438.141.735.391t.453.61q.172.343.172.796v.782h-1.828q-1.032 0-1.875.203-.828.187-1.422.594-.594.406-.922 1.015-.313.61-.313 1.422 0 .625.235 1.156.25.532.687.907.438.406 1.063.64.64.219 1.437.219.47 0 .891-.11.437-.093.828-.265.375-.172.688-.39.312-.235.562-.5.031.312.094.609.062.281.156.468zm-2.984-1.28q-.485 0-.86-.126-.375-.14-.625-.36-.234-.218-.359-.53-.125-.313-.125-.672 0-.39.14-.688.141-.297.407-.515.39-.313 1.031-.454.656-.156 1.531-.156h1.563v2q-.14.281-.406.563-.25.265-.594.468-.344.204-.781.344-.422.125-.922.125zm7.383-3.735v.203q0 1.047.281 1.969.281.906.797 1.593.5.672 1.219 1.063.734.375 1.625.375.922 0 1.593-.313.688-.312 1.188-.906l.062 1.031h1.547v-14h-1.687v5.125q-.469-.578-1.14-.859-.657-.297-1.548-.297-.89 0-1.625.375-.734.36-1.234 1.031-.516.657-.797 1.594-.281.922-.281 2.016zm1.687.203v-.203q0-.719.157-1.36.156-.656.484-1.156.312-.5.812-.781.516-.297 1.22-.297.827 0 1.374.39.563.391.89.985v4.578q-.327.64-.89 1.031-.547.375-1.39.375-.704 0-1.204-.28-.5-.298-.812-.782-.328-.5-.484-1.14-.157-.641-.157-1.36zm9.508-.203v.203q0 1.047.282 1.969.28.906.796 1.593.5.672 1.22 1.063.734.375 1.624.375.922 0 1.594-.313.687-.312 1.187-.906l.063 1.031h1.547v-14h-1.688v5.125q-.468-.578-1.14-.859-.657-.297-1.547-.297-.89 0-1.625.375-.735.36-1.235 1.031-.515.657-.796 1.594-.282.922-.282 2.016zm1.688.203v-.203q0-.719.156-1.36.156-.656.484-1.156.313-.5.813-.781.516-.297 1.219-.297.828 0 1.375.39.562.391.89.985v4.578q-.328.64-.89 1.031-.547.375-1.39.375-.704 0-1.204-.28-.5-.298-.813-.782-.328-.5-.484-1.14-.156-.641-.156-1.36zm16.664.36v-8.813h-1.797l-5.937 9.187v1h6.047v3.078h1.687v-3.078h1.844v-1.375h-1.844zm-5.875 0l3.906-6.063.282-.5v6.562h-4.188zm18.368 4.452v-1.375h-6.657l3.563-3.859q.5-.547.953-1.094.453-.562.797-1.125.328-.562.531-1.14.203-.578.203-1.172 0-.797-.281-1.469t-.797-1.156q-.515-.5-1.265-.781-.75-.282-1.688-.282-1.031 0-1.828.328-.797.329-1.344.891-.547.563-.844 1.313-.28.734-.28 1.562h1.687q0-.61.156-1.11.156-.515.484-.859.328-.343.813-.53.484-.204 1.156-.204.547 0 .969.187.437.188.75.5.297.329.453.766.172.422.172.922 0 .39-.11.781-.093.375-.328.797-.25.422-.64.922-.391.5-.97 1.14l-4.343 4.829v1.218h8.688zm4.726-5.39v.094q0 1.312.204 2.468.203 1.141.562 2.11.328.984.781 1.781.453.812.953 1.437.485.641.985 1.079.515.453.969.703l.359-1.032q-.375-.296-.75-.718-.36-.422-.703-.969-.344-.578-.656-1.313-.313-.718-.547-1.562-.219-.844-.344-1.828-.125-1-.125-2.14v-.126q0-1.187.125-2.203.14-1.031.39-1.89.266-.954.641-1.75.39-.797.797-1.391.281-.375.578-.688.297-.312.594-.53l-.36-1.11q-.453.25-.953.703-.5.453-1 1.078t-.953 1.437q-.437.813-.78 1.782-.36.984-.563 2.14-.204 1.141-.204 2.438zm15.68.094v-.094q0-1.39-.218-2.5-.203-1.125-.532-2.078-.343-.985-.796-1.782-.438-.796-.954-1.437-.484-.625-1-1.078-.515-.453-.968-.703l-.344 1.031q.297.25.61.61.327.343.624.796.39.594.766 1.39.375.798.64 1.798.172.703.329 1.718.156 1 .156 2.22v.124q0 1.094-.125 2.047-.11.953-.313 1.766-.203.89-.53 1.625-.313.75-.641 1.343-.36.579-.75 1.016-.391.453-.766.734l.344 1.032q.453-.25.953-.703.515-.438 1.015-1.079.5-.625.938-1.437.453-.797.812-1.781.344-.969.547-2.11.203-1.156.203-2.468zm8.352-3.782q0 .532.328.907.344.359 1 .359.641 0 .985-.36.343-.374.343-.906 0-.547-.343-.922-.328-.375-.985-.375-.672 0-1 .391-.328.375-.328.906zm2.172 8.688v-1.61h-1.828v1.641q0 .766-.188 1.484-.187.72-.625 1.36l1.047.578q.735-.656 1.157-1.61.437-.937.437-1.843z"/><path fill="none" d="M250.585 153.336a6.11 6.11 0 016.11 6.11v26.898a6.11 6.11 0 006.11 6.11 6.11 6.11 0 00-6.11 6.11v26.898a6.11 6.11 0 01-6.11 6.11z"/><path fill="none" d="M250.585 153.336a6.11 6.11 0 016.11 6.11v26.898a6.11 6.11 0 006.11 6.11 6.11 6.11 0 00-6.11 6.11v26.898a6.11 6.11 0 01-6.11 6.11"/><path stroke="#000" stroke-linejoin="round" stroke-linecap="butt" d="M250.585 153.336h0a6.11 6.11 0 016.11 6.11v26.898a6.11 6.11 0 006.11 6.11h0a6.11 6.11 0 00-6.11 6.11v26.898a6.11 6.11 0 01-6.11 6.11"/><path fill="none" d="M428.286 231.562a6.11 6.11 0 01-6.11-6.11v-26.46a6.11 6.11 0 00-6.11-6.11 6.11 6.11 0 006.11-6.11V44.255a6.11 6.11 0 016.11-6.11z"/><path fill="none" d="M428.286 231.562a6.11 6.11 0 01-6.11-6.11v-26.46a6.11 6.11 0 00-6.11-6.11 6.11 6.11 0 006.11-6.11V44.255a6.11 6.11 0 016.11-6.11"/><path stroke="#000" stroke-linejoin="round" stroke-linecap="butt" d="M428.286 231.562h0a6.11 6.11 0 01-6.11-6.11v-26.46a6.11 6.11 0 00-6.11-6.11h0a6.11 6.11 0 006.11-6.11V44.255a6.11 6.11 0 016.11-6.11"/><path fill="none" d="M289.436 161.383h100v62.142h-100z"/><path fill="#000" d="M316.255 184.147h-2.562q-.032.61-.203 1.031-.157.422-.438.703-.281.266-.687.407-.407.125-.907.125-.375 0-.687-.079-.297-.093-.547-.28-.219-.157-.406-.407-.172-.25-.297-.563-.188-.468-.281-1.093-.079-.625-.079-1.422v-1.797q0-.578.047-1.078.063-.516.188-.938.156-.53.406-.937.266-.406.64-.625.22-.125.47-.188.265-.078.562-.078.562 0 .969.156.406.157.687.438.266.312.406.766.141.437.172 1.03h2.547q-.078-1.046-.437-1.874-.344-.828-.938-1.406-.61-.563-1.469-.875-.843-.313-1.937-.313-.734 0-1.375.188-.64.187-1.188.53-.593.407-1.078 1-.468.595-.75 1.345-.265.625-.39 1.359-.125.719-.125 1.516v1.78q0 .86.14 1.626.141.765.407 1.406.28.64.671 1.172.391.516.907.89.547.407 1.25.626.703.203 1.515.203 1.047 0 1.891-.297.86-.313 1.484-.875.61-.563.985-1.36.375-.812.437-1.812zm8.227 4.156h2.578v-.156q-.203-.375-.297-.89-.093-.516-.093-1.313v-4.235q0-.843-.329-1.5-.312-.656-.875-1.078-.562-.422-1.343-.64-.766-.219-1.657-.219-1 0-1.765.25-.766.25-1.297.672-.531.422-.813 1-.28.562-.28 1.187h2.53q0-.265.079-.484.078-.219.25-.375.171-.172.453-.266.297-.093.703-.093.453 0 .797.109.343.11.578.328.219.203.328.484.11.266.11.61v.594h-1.423q-1.093 0-1.937.203-.844.187-1.406.562-.64.406-.97 1.047-.312.625-.312 1.438 0 .64.25 1.187.266.547.72.938.452.39 1.077.609.64.219 1.39.219.47 0 .86-.094.407-.078.75-.234.328-.157.594-.344.281-.203.484-.438.047.266.11.5.062.235.156.422zm-2.406-1.781q-.36 0-.625-.078-.266-.094-.453-.235-.188-.156-.282-.375-.093-.234-.093-.484 0-.344.125-.625.125-.297.39-.5.266-.203.688-.312.422-.125 1.015-.125h1.297v1.703q-.11.187-.312.375-.188.187-.453.328-.266.156-.594.25-.328.078-.703.078zm7.977-12.219v2.078h2.953v9.86h-2.953v2.062h8.328v-2.062h-2.813v-11.938h-5.515zm11.195 0v2.078h2.953v9.86h-2.953v2.062h8.328v-2.062h-2.812v-11.938h-5.516zm15.446 14.188q1.437 0 2.484-.547 1.047-.563 1.531-1.25l-1.265-1.375q-.438.578-1.14.86-.704.28-1.454.28-.531 0-.984-.156-.438-.172-.782-.484-.328-.281-.53-.64-.204-.36-.329-.954v-.031h6.688v-1.078q0-1.078-.313-1.969-.297-.906-.875-1.547-.578-.64-1.422-.984-.828-.344-1.89-.344-1.032 0-1.907.375-.875.36-1.5 1.031-.64.688-1 1.625-.36.922-.36 2.047v.375q0 .984.36 1.86.36.874 1.032 1.5.656.656 1.578 1.03.937.376 2.078.376zm-.297-8.172q.484 0 .844.156.375.14.625.39.265.266.406.626.14.36.14.75v.203h-4.14q.078-.485.266-.875.187-.39.453-.672.265-.281.625-.422.359-.156.78-.156zm13.79-2.047q-.985 0-1.829.484-.844.47-1.437 1.297l-.016-.219-.11-1.39h-2.359v9.86h2.531v-5.923q.172-.422.438-.718.266-.313.64-.516.313-.172.704-.25.406-.094.89-.094.485 0 1 .063.532.047 1.032.172l.375-2.532q-.313-.093-.797-.156-.485-.078-1.063-.078zM321.056 204.803v-2.062h-5.687v-3.61h6.406v-2.093h-8.969v13.265h2.563v-5.5h5.687zm9.946-4.531q-.985 0-1.828.484-.844.47-1.438 1.297l-.016-.219-.109-1.39h-2.36v9.86h2.532v-5.923q.172-.422.437-.718.266-.313.641-.516.313-.172.703-.25.406-.094.89-.094.485 0 1 .063.532.047 1.032.172l.375-2.532q-.312-.093-.797-.156-.484-.078-1.062-.078zm10.273 10.031h2.579v-.156q-.204-.375-.297-.89-.094-.516-.094-1.313v-4.235q0-.843-.328-1.5-.313-.656-.875-1.078-.563-.422-1.344-.64-.766-.22-1.656-.22-1 .001-1.766.251-.765.25-1.297.672-.531.422-.812 1-.281.562-.281 1.187h2.53q0-.265.079-.484.078-.219.25-.375.172-.172.453-.266.297-.093.703-.093.453 0 .797.109.344.11.578.328.219.203.328.484.11.266.11.61v.594h-1.422q-1.094 0-1.938.203-.843.187-1.406.562-.64.406-.969 1.047-.312.625-.312 1.438 0 .64.25 1.187.265.547.719.938.453.39 1.078.609.64.219 1.39.219.469 0 .86-.094.406-.078.75-.234.328-.157.593-.344.282-.203.485-.438.047.266.11.5.062.235.155.422zm-2.406-1.781q-.36 0-.625-.078-.265-.094-.453-.235-.187-.156-.281-.375-.094-.234-.094-.484 0-.344.125-.625.125-.297.39-.5.266-.203.688-.312.422-.125 1.016-.125h1.297v1.703q-.11.187-.313.375-.187.187-.453.328-.266.156-.594.25-.328.078-.703.078zm9.024-8.078h-2.172v9.86h2.297v-7.376q.047-.125.094-.219.062-.109.14-.171.094-.11.219-.157.14-.062.297-.062.14 0 .265.047.141.047.235.14.094.094.14.282.063.187.063.468v7.047h2.234v-7.265-.172-.094q.047-.094.11-.172.062-.078.14-.14.094-.063.203-.094.125-.047.266-.047.14 0 .266.047.14.047.234.14.11.11.156.297.063.172.063.453v7.047h2.312v-7.031q0-.828-.156-1.39-.156-.563-.453-.938-.281-.344-.672-.5-.39-.172-.828-.172-.36 0-.672.094-.297.078-.531.25-.188.125-.344.312-.156.172-.281.39-.094-.234-.203-.405-.11-.188-.266-.313-.203-.172-.484-.25-.266-.078-.61-.078-.718 0-1.218.375-.485.36-.766 1l-.078-1.203zm14.399 10.047q1.437 0 2.484-.547 1.047-.563 1.531-1.25l-1.265-1.375q-.438.578-1.141.86-.703.28-1.453.28-.531 0-.985-.156-.437-.172-.78-.484-.329-.281-.532-.64-.203-.36-.328-.954v-.031h6.687v-1.078q0-1.078-.312-1.97-.297-.905-.875-1.546-.578-.64-1.422-.984-.828-.344-1.89-.344-1.032 0-1.907.375-.875.36-1.5 1.031-.64.688-1 1.625-.36.922-.36 2.047v.375q0 .984.36 1.86.36.874 1.031 1.5.657.656 1.578 1.03.938.376 2.079.376zm-.297-8.172q.484 0 .843.156.375.14.625.39.266.266.407.626.14.36.14.75v.203h-4.14q.078-.485.265-.875.188-.39.453-.672.266-.281.625-.422.36-.156.782-.156z"/></g></svg>