<svg width="1024" height="1024" viewBox="0 0 1024 1024" fill="none" xmlns="http://www.w3.org/2000/svg">
<circle cx="421" cy="573" r="315" fill="#4B8BF5"/>
<path d="M329.598 724.526C329.598 724.526 328 765 316.5 824C316.5 824 316.5 835.5 275.499 835.5C234.498 835.5 234.999 831 234.999 831C220.999 818 209.499 787.5 245.5 769.5C245.5 735.243 240.301 726.994 221.887 698C198.273 691.5 185.5 706 172 718.5C158.5 731 201.5 775.5 146.5 775.5C91.5003 775.5 111.5 698 111.5 698C111.5 698 117.5 666.5 172 666.5C149.098 651.698 143.507 641.559 139.598 624.526C132.598 594.026 89.0003 579.5 77.5003 560.5L51.4963 435C48.9963 380.5 99.9994 336.5 163.5 345L295 379C295 379 318.098 388.862 360.5 443.5C374.849 461.989 467.097 453.526 493.098 453.526C515.563 453.183 566.995 456.37 592.995 471.862C592.995 471.862 600.828 447.318 588.495 425.362L635.597 418.862L619.495 328.526L691.995 321.862C691.995 272.362 660.995 161.362 660.995 161.362C731.597 140.362 964.995 124.362 977.995 127.362C990.995 130.362 1000.49 335.862 969.495 328.526C940.759 321.725 823.828 291.805 765.495 284.862L784.495 397.862L685.995 388.862L700.098 449.526L635.597 458.362V486.862C676.597 494.862 678.098 588.526 674.098 633.026C670.098 677.526 690.597 655.5 705.597 680.5C717.597 700.5 714.93 766.167 712.097 796.5C707.93 814.833 689.102 839.577 635.597 824C596.096 812.5 606.096 761 641.096 754C645.096 717 594.098 743.526 581.098 733.526C563.761 729.409 549.554 722.963 538 715.326L533.5 718.5C529.937 720.62 525.916 722.55 521.5 724.294C476.968 741.878 392.191 740.538 329.598 724.526Z" fill="white"/>
<path d="M444.571 781.474C440.971 769.074 455.237 744.148 464.071 736.314L527.071 734C534.071 754.526 526.571 796.974 515.071 796.974C503.571 796.974 449.071 796.974 444.571 781.474Z" fill="#B5B5B5"/>
<path d="M112.546 697.5C112.546 697.5 118.546 666 173.045 666L222.932 697.5C199.319 691 186.545 705.5 173.045 718C159.545 730.5 202.546 775 147.546 775C92.5457 775 112.546 697.5 112.546 697.5Z" fill="#B5B5B5"/>
<path d="M820 143L971 127.5C1009.8 148.7 987.167 269 971 326.5C917.167 319.5 814.4 302.8 834 292C853.6 281.2 832.833 188.167 820 143Z" fill="#4B8BF5"/>
<path d="M356 604.5C379.2 569.7 376.333 488.333 372 452L419.5 452C456 574.5 327 648 356 604.5Z" fill="#4B8BF5"/>
<path d="M506.5 574.5C518.1 536.1 519.333 483.167 514.5 461C518.5 440.167 552.5 461 552.5 461C587 524 494.9 612.9 506.5 574.5Z" fill="#4B8BF5"/>
<path d="M429.5 592.5C451.5 549.7 451.667 481.167 442.5 452L486 461C525 578.5 407.5 635.3 429.5 592.5Z" fill="#4B8BF5"/>
<path d="M533.5 718.5L539.891 729.243L540.309 728.994L540.706 728.714L533.5 718.5ZM329.598 724.526L332.696 712.416L317.718 708.584L317.108 724.033L329.598 724.526ZM316.5 824L304.231 821.609L304 822.793L304 824L316.5 824ZM234.999 831L247.422 832.383L248.119 826.125L243.505 821.84L234.999 831ZM245.5 769.5L251.09 780.681L258 777.226V769.5H245.5ZM139.598 624.526L151.781 621.73L139.598 624.526ZM77.5003 560.5L65.2603 563.036L65.6956 565.137L66.8066 566.973L77.5003 560.5ZM51.4963 435L39.0095 435.573L39.055 436.564L39.2563 437.536L51.4963 435ZM163.5 345L166.629 332.898L165.903 332.71L165.159 332.611L163.5 345ZM581.098 733.526L588.719 723.618L586.594 721.983L583.986 721.364L581.098 733.526ZM641.096 754L643.548 766.257L652.539 764.459L653.524 755.344L641.096 754ZM635.597 824L639.091 811.998L635.597 824ZM712.097 796.5L724.286 799.27L724.467 798.475L724.543 797.663L712.097 796.5ZM635.597 486.862H623.097V497.159L633.203 499.131L635.597 486.862ZM635.597 458.362L633.9 445.978L623.097 447.458V458.362H635.597ZM700.098 449.526L701.794 461.91L715.378 460.049L712.273 446.695L700.098 449.526ZM295 379L299.909 367.504L299.042 367.134L298.129 366.898L295 379ZM360.5 443.5L350.625 451.164L350.625 451.164L360.5 443.5ZM493.098 453.526V466.026H493.193L493.289 466.024L493.098 453.526ZM592.995 471.862L586.596 482.601L600.117 490.658L604.903 475.663L592.995 471.862ZM588.495 425.362L586.786 412.98L568.61 415.488L577.596 431.485L588.495 425.362ZM635.597 418.862L637.306 431.245L650.185 429.468L647.903 416.669L635.597 418.862ZM685.995 388.862L687.132 376.414L669.901 374.84L673.819 391.693L685.995 388.862ZM784.495 397.862L783.357 410.311L799.511 411.787L796.822 395.79L784.495 397.862ZM765.495 284.862L766.972 272.45L750.4 270.478L753.168 286.935L765.495 284.862ZM969.495 328.526L972.373 316.362L969.495 328.526ZM660.995 161.362L657.431 149.381L645.649 152.886L648.955 164.725L660.995 161.362ZM691.995 321.862L693.139 334.31L704.495 333.266V321.862H691.995ZM619.495 328.526L618.351 316.078L604.801 317.324L607.189 330.719L619.495 328.526ZM228.948 639.233C232.376 633.241 230.298 625.604 224.305 622.176C218.313 618.748 210.676 620.826 207.248 626.818L228.948 639.233ZM505.501 648.443C504.641 641.593 498.391 636.737 491.541 637.597C484.691 638.457 479.835 644.707 480.695 651.557L505.501 648.443ZM445 781L457.005 777.515L445 781ZM527.5 733.526L539.331 729.491L538.829 728.018L537.981 726.714L527.5 733.526ZM172 666.5L178.785 656.002L178.785 656.002L172 666.5ZM111.5 698L123.604 701.123L123.704 700.734L123.78 700.339L111.5 698ZM221.887 698L232.439 691.299L221.887 698ZM521.5 724.294L516.909 712.668L521.5 724.294ZM329.598 724.526C317.108 724.033 317.108 724.031 317.108 724.03C317.108 724.03 317.108 724.029 317.108 724.029C317.108 724.028 317.108 724.028 317.108 724.029C317.108 724.03 317.108 724.034 317.108 724.04C317.107 724.052 317.106 724.074 317.105 724.106C317.102 724.17 317.098 724.272 317.091 724.412C317.078 724.692 317.057 725.125 317.025 725.704C316.963 726.864 316.859 728.61 316.699 730.901C316.379 735.483 315.832 742.241 314.93 750.833C313.125 768.021 309.901 792.522 304.231 821.609L328.769 826.391C334.6 796.478 337.924 771.242 339.793 753.443C340.728 744.542 341.3 737.494 341.638 732.643C341.808 730.217 341.919 728.341 341.989 727.056C342.024 726.413 342.048 725.919 342.064 725.578C342.072 725.407 342.078 725.275 342.082 725.181C342.084 725.135 342.085 725.098 342.086 725.071C342.087 725.057 342.087 725.046 342.088 725.037C342.088 725.033 342.088 725.029 342.088 725.026C342.088 725.025 342.088 725.023 342.088 725.022C342.088 725.02 342.089 725.019 329.598 724.526ZM243.505 821.84C238.359 817.062 234.077 809.255 233.999 801.989C233.935 796.114 236.561 787.945 251.09 780.681L239.91 758.32C218.439 769.055 208.814 785.137 209 802.261C209.171 817.995 217.64 831.939 226.494 840.16L243.505 821.84ZM151.781 621.73C147.156 601.577 130.832 587.932 117.693 578.168C110.227 572.619 104.631 568.93 98.7322 564.354C93.1142 559.996 89.8079 556.694 88.1941 554.027L66.8066 566.973C70.9428 573.806 77.3987 579.445 83.4084 584.107C89.1377 588.552 97.0346 593.963 102.781 598.233C116.066 608.106 125.04 616.974 127.415 627.322L151.781 621.73ZM63.9832 434.427C61.9029 389.077 104.651 349.734 161.842 357.389L165.159 332.611C95.3479 323.266 36.0898 371.923 39.0095 435.573L63.9832 434.427ZM573.476 743.434C577.653 746.647 582.44 747.749 586.137 748.176C589.945 748.616 593.914 748.477 597.476 748.204C601.064 747.929 604.885 747.458 608.302 747.058C611.858 746.642 615.113 746.285 618.153 746.119C624.927 745.75 627.664 746.584 628.428 747.08C628.488 747.12 628.452 747.105 628.398 747.036C628.342 746.967 628.382 746.986 628.461 747.201C628.642 747.696 629.035 749.271 628.669 752.657L653.524 755.344C654.821 743.347 651.827 732.469 642.047 726.116C633.967 720.867 623.892 720.769 616.792 721.157C612.894 721.369 608.946 721.812 605.397 722.227C601.708 722.659 598.522 723.05 595.563 723.277C592.578 723.506 590.462 723.51 589.007 723.342C587.442 723.161 587.792 722.905 588.719 723.618L573.476 743.434ZM638.645 741.743C615.262 746.419 600.543 765.871 598.01 785.731C596.724 795.806 598.481 806.498 604.251 815.79C610.098 825.206 619.552 832.348 632.103 836.002L639.091 811.998C631.892 809.902 627.783 806.294 625.489 802.601C623.119 798.783 622.156 794.007 622.809 788.894C624.15 778.379 631.931 768.581 643.548 766.257L638.645 741.743ZM632.103 836.002C660.83 844.365 682.595 842.566 698.357 833.928C714.111 825.294 721.606 811.064 724.286 799.27L699.908 793.73C698.422 800.27 694.419 807.578 686.342 812.005C678.271 816.427 663.869 819.212 639.091 811.998L632.103 836.002ZM724.543 797.663C725.993 782.143 727.398 757.654 726.907 734.361C726.661 722.724 725.938 711.125 724.44 700.972C723 691.212 720.649 681.291 716.316 674.069L694.878 686.931C696.545 689.709 698.361 695.497 699.708 704.622C700.996 713.355 701.679 723.818 701.912 734.889C702.379 757.013 701.035 780.523 699.651 795.337L724.543 797.663ZM716.316 674.069C706.305 657.384 691.465 654.437 688.217 652.848C687.247 652.373 687.315 652.417 687.029 651.596C686.334 649.596 685.589 644.809 686.548 634.145L661.648 631.907C660.606 643.493 660.924 652.64 663.416 659.807C666.318 668.153 671.698 672.597 677.228 675.303C686.98 680.076 689.889 678.616 694.878 686.931L716.316 674.069ZM686.548 634.145C688.604 611.263 689.286 575.58 684.052 544.2C681.444 528.564 677.235 513.147 670.419 500.783C663.579 488.375 653.223 477.566 637.991 474.594L633.203 499.131C638.471 500.159 643.678 504.058 648.525 512.852C653.397 521.691 657.001 533.971 659.393 548.313C664.159 576.89 663.591 610.289 661.648 631.907L686.548 634.145ZM648.097 486.862V458.362H623.097V486.862H648.097ZM637.294 470.747L701.794 461.91L698.401 437.142L633.9 445.978L637.294 470.747ZM295 379C290.092 390.496 290.084 390.493 290.077 390.49C290.075 390.489 290.067 390.486 290.063 390.484C290.054 390.48 290.045 390.476 290.036 390.472C290.019 390.465 290.003 390.458 289.989 390.452C289.961 390.439 289.938 390.429 289.922 390.421C289.888 390.406 289.878 390.401 289.892 390.408C289.918 390.42 290.037 390.478 290.249 390.589C290.672 390.812 291.464 391.251 292.618 391.976C294.925 393.427 298.678 396.025 303.813 400.335C314.092 408.963 329.866 424.414 350.625 451.164L370.375 435.836C348.733 407.949 331.756 391.15 319.886 381.186C313.946 376.201 309.275 372.919 305.926 370.813C304.252 369.76 302.908 369.001 301.902 368.472C301.399 368.207 300.981 367.999 300.649 367.84C300.482 367.761 300.337 367.694 300.214 367.638C300.152 367.611 300.096 367.586 300.045 367.563C300.02 367.552 299.996 367.542 299.973 367.532C299.962 367.527 299.951 367.522 299.94 367.517C299.935 367.515 299.927 367.512 299.924 367.511C299.917 367.507 299.909 367.504 295 379ZM350.625 451.164C354.419 456.052 359.845 458.989 364.712 460.886C369.777 462.86 375.597 464.224 381.603 465.204C393.628 467.166 408.074 467.847 422.343 467.946C436.703 468.046 451.362 467.555 463.931 467.049C476.746 466.533 486.932 466.026 493.098 466.026V441.026C486.263 441.026 475.168 441.576 462.925 442.069C450.437 442.572 436.262 443.042 422.516 442.947C408.68 442.851 395.748 442.181 385.629 440.53C380.562 439.703 376.618 438.695 373.79 437.592C370.765 436.413 370.169 435.571 370.375 435.836L350.625 451.164ZM316.5 824C304 824 304 823.978 304 823.956C304 823.949 304.001 823.927 304.001 823.913C304.001 823.884 304.001 823.855 304.002 823.826C304.002 823.769 304.004 823.712 304.005 823.655C304.008 823.541 304.013 823.427 304.02 823.315C304.033 823.091 304.052 822.87 304.078 822.654C304.129 822.22 304.206 821.805 304.307 821.409C304.512 820.604 304.801 819.937 305.114 819.411C305.773 818.303 306.24 818.298 305.26 818.848C302.921 820.16 295.241 823 275.499 823V848C296.759 848 309.579 845.09 317.491 840.652C321.635 838.327 324.665 835.447 326.606 832.182C327.559 830.579 328.168 829.013 328.534 827.579C328.714 826.869 328.831 826.207 328.903 825.604C328.939 825.304 328.963 825.019 328.978 824.751C328.986 824.617 328.992 824.487 328.995 824.362C328.997 824.299 328.998 824.238 328.999 824.178C329 824.148 329 824.118 329 824.088C329 824.073 329 824.051 329 824.044C329 824.022 329 824 316.5 824ZM275.499 823C255.198 823 246.212 821.864 242.618 821.055C240.694 820.622 241.385 820.507 242.802 821.514C243.614 822.09 244.982 823.263 246.059 825.258C246.604 826.27 247.035 827.422 247.278 828.689C247.399 829.315 247.469 829.943 247.491 830.568C247.502 830.879 247.501 831.187 247.489 831.491C247.484 831.642 247.475 831.793 247.464 831.942C247.458 832.016 247.452 832.09 247.445 832.164C247.441 832.2 247.436 832.255 247.434 832.274C247.428 832.329 247.422 832.383 234.999 831C222.576 829.617 222.57 829.672 222.564 829.727C222.562 829.745 222.557 829.8 222.553 829.837C222.546 829.911 222.54 829.985 222.535 830.06C222.523 830.21 222.514 830.362 222.508 830.516C222.496 830.824 222.496 831.138 222.507 831.458C222.53 832.1 222.602 832.754 222.729 833.412C222.985 834.745 223.445 835.994 224.057 837.128C225.266 839.37 226.916 840.894 228.321 841.893C230.925 843.743 234.054 844.753 237.13 845.445C243.535 846.886 254.8 848 275.499 848V823ZM493.289 466.024C503.943 465.862 521.761 466.543 539.961 469.131C558.537 471.773 575.826 476.183 586.596 482.601L599.393 461.124C584.163 452.049 562.736 447.119 543.481 444.38C523.849 441.588 504.718 440.847 492.907 441.027L493.289 466.024ZM592.995 471.862C604.903 475.663 604.904 475.659 604.906 475.654C604.906 475.653 604.907 475.648 604.908 475.645C604.91 475.639 604.913 475.632 604.915 475.625C604.919 475.611 604.924 475.595 604.93 475.578C604.941 475.543 604.953 475.502 604.968 475.456C604.996 475.362 605.032 475.244 605.073 475.103C605.156 474.821 605.263 474.445 605.386 473.981C605.633 473.054 605.948 471.773 606.272 470.193C606.917 467.044 607.612 462.638 607.856 457.431C608.339 447.131 607.087 432.938 599.393 419.24L577.596 431.485C582.235 439.742 583.233 448.8 582.883 456.26C582.711 459.934 582.218 463.036 581.78 465.176C581.562 466.239 581.361 467.047 581.228 467.549C581.161 467.799 581.112 467.972 581.086 468.06C581.073 468.104 581.066 468.126 581.066 468.127C581.066 468.127 581.067 468.122 581.071 468.111C581.072 468.106 581.075 468.099 581.077 468.091C581.078 468.087 581.08 468.082 581.081 468.078C581.082 468.075 581.083 468.071 581.084 468.07C581.085 468.066 581.086 468.062 592.995 471.862ZM590.203 437.745L637.306 431.245L633.888 406.48L586.786 412.98L590.203 437.745ZM712.273 446.695L698.17 386.032L673.819 391.693L687.922 452.356L712.273 446.695ZM684.857 401.311L783.357 410.311L785.632 385.414L687.132 376.414L684.857 401.311ZM796.822 395.79L777.822 282.79L753.168 286.935L772.168 399.935L796.822 395.79ZM764.017 297.275C821.414 304.106 937.175 333.722 966.616 340.69L972.373 316.362C944.342 309.728 826.242 279.504 766.972 272.45L764.017 297.275ZM966.616 340.69C972.156 342.001 977.494 340.806 981.846 337.862C985.77 335.207 988.428 331.473 990.27 328.091C993.938 321.358 996.337 312.309 998.034 302.809C1001.49 283.436 1002.81 257.474 1002.74 231.79C1002.68 205.988 1001.22 179.779 998.93 159.674C997.789 149.681 996.401 140.836 994.774 134.194C993.978 130.943 992.996 127.675 991.715 124.924C991.082 123.561 990.152 121.834 988.793 120.209C987.531 118.698 984.95 116.139 980.805 115.183L975.184 139.542C971.852 138.773 970.076 136.798 969.61 136.24C969.048 135.567 968.906 135.164 969.049 135.47C969.321 136.054 969.845 137.502 970.492 140.143C971.752 145.285 972.997 152.93 974.091 162.509C976.264 181.55 977.683 206.82 977.745 231.851C977.806 257 976.494 281.224 973.424 298.413C971.855 307.194 970.012 313.02 968.316 316.132C967.477 317.673 967.173 317.605 967.837 317.155C968.929 316.417 970.708 315.968 972.373 316.362L966.616 340.69ZM980.805 115.183C978.495 114.649 975.487 114.559 973.285 114.521C970.596 114.474 967.193 114.507 963.229 114.605C955.279 114.801 944.674 115.269 932.2 115.976C907.233 117.391 874.491 119.777 839.965 122.914C771.461 129.137 694.15 138.459 657.431 149.381L664.558 173.344C698.441 163.265 773.131 154.088 842.226 147.811C876.5 144.698 908.958 142.334 933.615 140.936C945.953 140.237 956.267 139.784 963.845 139.597C967.645 139.503 970.658 139.479 972.85 139.517C975.531 139.564 975.869 139.701 975.184 139.542L980.805 115.183ZM660.995 161.362C648.955 164.725 648.955 164.725 648.955 164.725C648.955 164.725 648.956 164.726 648.956 164.727C648.957 164.73 648.958 164.734 648.959 164.74C648.963 164.751 648.968 164.77 648.975 164.794C648.989 164.844 649.01 164.92 649.038 165.022C649.095 165.226 649.179 165.533 649.291 165.938C649.513 166.747 649.842 167.946 650.261 169.494C651.099 172.591 652.299 177.08 653.74 182.625C656.625 193.72 660.468 209.017 664.308 225.833C672.097 259.941 679.495 298.733 679.495 321.862H704.495C704.495 295.492 696.392 254.034 688.681 220.267C684.771 203.146 680.864 187.598 677.936 176.335C676.471 170.7 675.25 166.13 674.392 162.963C673.964 161.379 673.626 160.146 673.395 159.305C673.279 158.884 673.19 158.562 673.129 158.342C673.099 158.233 673.075 158.149 673.059 158.092C673.051 158.063 673.045 158.041 673.041 158.026C673.039 158.018 673.037 158.012 673.036 158.008C673.035 158.006 673.035 158.004 673.035 158.003C673.034 158.001 673.034 158 660.995 161.362ZM690.851 309.415L618.351 316.078L620.639 340.973L693.139 334.31L690.851 309.415ZM607.189 330.719L623.291 421.056L647.903 416.669L631.801 326.332L607.189 330.719ZM207.248 626.818C200.598 638.443 192.595 666.924 206.77 697.31L229.426 686.741C219.343 665.127 225.491 645.275 228.948 639.233L207.248 626.818ZM456.207 726.488C450.093 731.909 443.443 741.701 438.827 751.282C436.444 756.229 434.341 761.648 433.106 767.005C431.922 772.138 431.242 778.443 432.996 784.485L457.005 777.515C457.01 777.532 456.905 777.156 456.935 776.237C456.965 775.335 457.119 774.131 457.467 772.623C458.17 769.575 459.511 765.947 461.349 762.133C465.175 754.192 470.074 747.604 472.794 745.192L456.207 726.488ZM432.996 784.485C434.533 789.779 437.959 793.528 441.266 796.052C444.553 798.562 448.349 800.355 451.979 801.692C459.229 804.36 467.925 805.955 476.087 806.967C492.563 809.011 509.763 809 515.5 809V784C509.737 784 493.937 783.989 479.164 782.158C471.701 781.232 465.209 779.921 460.615 778.23C458.323 777.387 457.033 776.637 456.434 776.18C455.855 775.738 456.593 776.096 457.005 777.515L432.996 784.485ZM515.5 809C521.052 809 525.323 806.387 528.115 803.792C530.851 801.249 532.85 798.138 534.328 795.262C537.303 789.476 539.39 782.226 540.729 774.984C543.355 760.791 543.81 742.624 539.331 729.491L515.669 737.561C518.191 744.954 518.396 758.273 516.146 770.437C515.048 776.372 513.541 781.017 512.095 783.831C511.362 785.256 510.943 785.621 511.095 785.48C511.303 785.287 512.823 784 515.5 784V809ZM223.843 680.924C216.499 677.124 188.084 662.011 178.785 656.002L165.215 676.998C175.728 683.793 205.306 699.48 212.353 703.127L223.843 680.924ZM178.785 656.002C167.935 648.989 162.241 643.738 158.777 638.986C155.442 634.41 153.557 629.468 151.781 621.73L127.415 627.322C129.548 636.616 132.414 645.261 138.576 653.713C144.61 661.99 153.163 669.209 165.215 676.998L178.785 656.002ZM172 654C142.198 654 123.781 662.693 112.716 673.176C107.302 678.304 103.996 683.544 102.015 687.68C101.028 689.742 100.369 691.531 99.9389 692.901C99.7235 693.587 99.5643 694.171 99.449 694.636C99.3913 694.868 99.3445 695.071 99.307 695.243C99.2883 695.328 99.2719 695.406 99.2576 695.476C99.2505 695.511 99.2439 695.544 99.2378 695.575C99.2348 695.59 99.2319 695.605 99.2291 695.62C99.2277 695.627 99.2257 695.637 99.225 695.641C99.223 695.651 99.2211 695.661 111.5 698C123.78 700.339 123.778 700.349 123.776 700.359C123.775 700.362 123.773 700.371 123.772 700.378C123.77 700.39 123.767 700.402 123.765 700.414C123.76 700.437 123.756 700.458 123.752 700.478C123.744 700.518 123.737 700.55 123.731 700.577C123.72 700.629 123.714 700.655 123.713 700.657C123.712 700.66 123.735 700.567 123.79 700.392C123.901 700.039 124.137 699.367 124.564 698.477C125.411 696.706 127.011 694.071 129.91 691.324C135.47 686.057 147.302 679 172 679V654ZM111.5 698C99.3969 694.877 99.3958 694.881 99.3946 694.885C99.3941 694.887 99.3929 694.892 99.3919 694.896C99.3899 694.904 99.3877 694.912 99.3851 694.922C99.38 694.942 99.3737 694.967 99.3662 694.997C99.3514 695.056 99.3319 695.133 99.3083 695.229C99.261 695.421 99.1969 695.685 99.119 696.018C98.9633 696.682 98.7519 697.619 98.5088 698.792C98.0234 701.133 97.4067 704.432 96.8551 708.379C95.7647 716.179 94.8666 726.93 95.9335 737.954C96.984 748.809 100.066 761.277 108.098 771.238C116.6 781.78 129.421 788 146.5 788V763C136.08 763 130.776 759.533 127.559 755.544C123.872 750.973 121.642 744.066 120.817 735.546C120.009 727.195 120.673 718.571 121.614 711.84C122.078 708.521 122.594 705.766 122.988 703.868C123.184 702.922 123.349 702.194 123.459 701.723C123.514 701.488 123.556 701.317 123.581 701.215C123.594 701.165 123.602 701.131 123.606 701.116C123.608 701.108 123.609 701.105 123.608 701.106C123.608 701.106 123.608 701.108 123.607 701.111C123.607 701.113 123.606 701.116 123.606 701.116C123.605 701.12 123.604 701.123 111.5 698ZM146.5 788C161.161 788 173.489 785.184 181.098 776.694C189.022 767.853 188.378 756.797 187.131 749.564C186.467 745.712 185.44 741.905 184.545 738.684C183.589 735.24 182.813 732.556 182.276 730.055C181.73 727.512 181.682 726.215 181.731 725.692C181.754 725.438 181.657 726.594 180.493 727.672L163.507 709.328C158.968 713.531 157.261 718.812 156.837 723.385C156.439 727.688 157.106 731.918 157.833 735.304C158.57 738.733 159.626 742.381 160.457 745.373C161.349 748.587 162.065 751.32 162.494 753.811C162.927 756.322 162.951 757.965 162.804 758.995C162.682 759.849 162.495 759.993 162.481 760.009C162.261 760.254 159.339 763 146.5 763V788ZM258 769.5C258 751.799 256.677 739.493 252.355 727.529C248.187 715.994 241.411 705.426 232.439 691.299L211.335 704.701C220.777 719.569 225.807 727.622 228.843 736.024C231.723 743.997 233 752.944 233 769.5H258ZM232.439 691.299C231.232 689.399 229.976 687.422 228.663 685.345L207.533 698.707C208.862 700.808 210.131 702.805 211.335 704.701L232.439 691.299ZM180.493 727.672C187.997 720.723 193.092 715.476 199.246 712.038C204.441 709.137 210.171 707.74 218.569 710.052L225.204 685.948C209.989 681.76 197.526 684.363 187.055 690.212C177.545 695.524 169.503 703.777 163.507 709.328L180.493 727.672ZM160.371 357.102L291.871 391.102L298.129 366.898L166.629 332.898L160.371 357.102ZM480.695 651.557C483.084 670.59 496.803 703.078 531.107 725.754L544.893 704.898C517.109 686.533 507.048 660.772 505.501 648.443L480.695 651.557ZM531.107 725.754C543.918 734.222 559.488 741.241 578.21 745.688L583.986 721.364C568.035 717.576 555.19 711.704 544.893 704.898L531.107 725.754ZM540.706 728.714L545.205 725.54L530.795 705.112L526.295 708.286L540.706 728.714ZM527.109 707.757C524.219 709.477 520.819 711.124 516.909 712.668L526.091 735.92C531.014 733.976 535.654 731.763 539.891 729.243L527.109 707.757ZM516.909 712.668C496.793 720.611 466.302 724.645 432.372 724.509C398.689 724.374 362.882 720.138 332.696 712.416L326.5 736.636C358.908 744.926 396.785 749.366 432.272 749.508C467.511 749.65 501.675 745.562 526.091 735.92L516.909 712.668ZM537.981 726.714L531.981 717.482L511.019 731.106L517.02 740.338L537.981 726.714ZM39.2563 437.536L65.2603 563.036L89.7403 557.964L63.7364 432.464L39.2563 437.536Z" fill="#454545"/>
<path d="M137.949 524.659C139.626 512.071 77.5724 466.145 61.5019 443.5L39.5004 466.5C37.8234 488.377 57.8792 561.121 67.1023 563.808C76.3254 566.494 135.853 540.396 137.949 524.659Z" fill="#B5B5B5" stroke="#454545" stroke-width="25"/>
<path d="M33.4688 448.014C34.4827 441.721 51.8021 441.578 60.3351 442.293C68.1923 448.014 56.7866 476.378 50.4502 474.948C44.1139 473.518 44.3674 476.14 37.0172 470.181C29.667 464.222 32.2016 455.88 33.4688 448.014Z" fill="#454545" stroke="#454545" stroke-width="25"/>
<path d="M300.5 386.5C317.774 365.793 245.505 334.463 197.279 331.874C182.398 331.075 171.807 343.823 171.061 358.707C163.78 503.928 214.518 489.221 247.272 479.726L247.5 479.66C282 469.66 253.5 442.84 300.5 386.5Z" fill="#454545" stroke="#454545" stroke-width="25"/>
<ellipse cx="126.5" cy="414" rx="21.5" ry="22" fill="#454545"/>
</svg>
