<svg xmlns="http://www.w3.org/2000/svg" viewBox="-10 -10 450 240" style="width:450px;height:240px"><defs><linearGradient id="grad0" x1="0" y1="0" x2="0" y2="100%"><stop offset="0%"/><stop offset="100%" stop-color="#fff"/></linearGradient><mask id="m0"><path fill="#fff" d="M-10-10h450v240H-10z"/><path fill="url(#grad0)" d="M-10 5h450v48H-10z"/><path d="M-10-10h450V5H-10z"/></mask></defs><g class="frame" style="transform-origin:0 110px" mask="url(#m0)"><g fill="none"><path d="M79.7.4s0 0 0 0m0 0s0 0 0 0m.4 7c2.3-1.8 3.6-5 6.3-7.7M80.5 7a39 39 0 006-7.4m-8.1 14.7c6.7-5 11-6.7 16.1-13.7M80.3 14.9c2-3.7 6.2-6 12.9-15M78.8 22c9-9 18.1-17.3 21-24M80.4 23c7.5-7.8 14-17.9 20.3-23.1m-19 31.5c7.8-13.4 18.5-23.6 23-29.8M80.6 30A245.7 245.7 0 01107.6-.5M81.6 36c5.4-7.6 14.5-16.2 29.6-34.8M81 38c10.9-13.8 22.8-25.3 31-38.7M80.7 45.8c16.5-19.8 30.5-36.5 39-48M79.1 46.3L119.9 0M80.6 54.5C98 31.3 118.1 12.4 127.1-1.9M80.7 54c11.7-15 25.5-30 45.4-55M79.6 60c22.2-20.9 41.8-44.9 52.8-59.4M81 61c17.3-23 37.5-43.2 51.8-60M87.1 59C105 39.6 122 24.3 140.4-1.8M88 59.7c20.8-23.2 39.8-46.9 52.2-61M93.7 58.5c17.6-20.6 39-39.4 53-57.5m-53 59.9c11.4-14 22.5-25.9 52.2-60.2m-43.7 59.2c17-24.7 37.9-47.9 48.8-58M101 60.5c14-15.7 25.5-30.8 51-59.8m-43.1 57.6c11.7-12.9 23-25.3 50.4-58.2m-51.7 61C118.5 46 132 32.5 159.9.1m-45.5 59.2C124 45 137.8 33.6 164.9.7m-50.4 60.6A639.4 639.4 0 01166.7.8m-45.4 58.6a508 508 0 0049.4-60.6m-50.3 61c10.4-12 19.8-23.1 52.2-60M125 59.2c19.4-17.8 31.1-36.4 56.4-57.6m-54.6 59.2c19-23.5 39-45.2 52.5-61.7m-46 60.8c15.4-16.5 29.3-32 52.2-59.7m-52 60.1c18-20.4 35.8-40.5 53.3-59.6m-46 58.4A677.5 677.5 0 01192 2m-51.6 59C151.6 47.2 165.2 32 192 0m-46.5 62.1c16.4-20.2 34-38 52.7-64m-50.4 62.1A623 623 0 01199 0M152 60.8C171 40 190.8 17 204.4.8m-50.6 60.4C169.2 41.6 187 22.7 206 .9m-45.3 57.8c14.3-16 29.6-29.6 50-60m-50.1 61.9c17.9-21.8 35.9-43 52.2-59.5m-44.4 61c18.7-21.4 37-42.5 49-63.2m-51.3 61c11.7-11.7 24.4-26.8 52.6-59.5m-46.3 59.8c13.2-16 26.6-27.5 51.3-58.8M174 60c16.6-18.5 33.8-38.5 52.4-59.5M181.3 60c17-21.5 35.2-42.7 49.4-59.2M179 60.3C200 36 219.4 12.8 232.7.2m-47 61C201.7 40.3 220.2 22 239 .9m-52.4 59.5c17.5-22 35.7-42.1 52.8-59.8M194 61.4c17.9-21.2 32.7-43.1 49.6-59.7m-50 58.4c13.9-14.6 26.8-31.8 50.2-57.7m-45.5 60.3c16.9-19.2 34.4-38.4 43.5-52.4M200 61.5c12.8-16 26.2-30.4 43.7-50.5M205 58.8c10.7-9.6 23.1-22.8 37.2-42.5M206 59.5c14.7-14.5 26-29.9 37-42.3m-28.7 41.7c6.8-7.4 19.3-19.3 28.3-31.4m-29 33.7c6-8.2 12.4-15.8 30.2-35.3m-24.5 35.6c7.1-11.3 16.9-19.3 23-28.6m-22.8 28.5c5.8-9.3 14-15.8 23.9-27.1M226.5 61c4.6-7.3 11.6-15.4 15.6-20.1M226 60.5a236 236 0 0016.5-20m-10.7 21.1c3.8-5.6 6.5-8.7 13-12m-12.1 11.6c2.8-4.2 5.9-6 10.6-13.2M240 60c.4-1.1 1-2.2 3.2-4m-3.7 4.2c.9-1.2 1.9-2.2 3.5-4" stroke="var(--other-frame-bg)"/><path d="M79.1 1c48.7-1.6 94.8-.3 160-2.2M79.5 0c48.4-.4 96.4.2 160.9.3m1-1.5c-2.3 14 .3 30-1 61.7m.3-61c-.2 17.9-1.2 34.2-1.5 60.4m-.1 1.3c-58.6.4-118.7-.9-158.5-.6m158.7.4c-55 1.1-109.2.3-158.5-1.4m-1-1c1.3-19.2-.9-44.4.1-58.9m.6 61.4c-.2-20.5-1.5-38.7-1.2-61.1"/><g><path d="M79.9 60.2s0 0 0 0m0 0s0 0 0 0m.5 4.3c1.3-1.2 1.5-2.2 3.3-4.4m-3.4 4l3.7-4.4m-5.3 8.8c4.1-2.7 7.5-5.6 8.1-8m-7.2 9.2c2.8-4 5.9-6.8 8.4-9.8m-8 14.9c4.7-3.3 5.4-9.5 13.3-14.7M80.1 74.3c2.2-3.5 4.9-6 11.3-13.5M78.8 78.4A158 158 0 0197 61.1M79.5 79.4c4-6.9 9.9-10.2 15.7-20.1M78.4 84.7a89 89 0 0120.8-24M80.5 82.6c6.2-8.7 14.4-17.1 19.1-22.1M80 88.3c6.2-8.5 13.3-14.7 25.1-27.5M80 87c8-8.5 14.8-17 23.5-27.3M78.3 93.3c13.5-14.5 23.1-23.1 27.3-33.8M79.5 93c9.6-12 20.8-24.3 28.4-32.1m-28 36.5c13.5-13.4 25.5-30 33.6-37.4m-33 36.9c6.1-8 12.8-16.2 31.3-36m-30.3 42c12.8-18.9 25.7-34 32.8-44.4M80.1 101c12.3-13.3 25-27.8 35.2-41.9M81.8 106c12-16.6 23.9-29 39.7-45.4m-42.2 45.3c17-17 32.8-36 39.5-45.3m-37 50.5c10.4-11 21.1-25.1 41.1-50.2m-42.2 48.8c17.3-19.6 34.5-38.9 43.8-50m-45.4 57c19-22.4 36-42.3 48.7-56M79.6 115A900 900 0 00128 60.2m-50 61.2c14.3-16.5 28.6-29.2 54.7-62.7m-53.5 61.8c14-16.3 28.2-34 51.8-59.6m-49 64.3c12.2-18.8 27.6-34.8 52.2-64.3m-55 63.9C102.9 97.9 125.2 74 135 59m-56 69.4a493.4 493.4 0 0059.2-67.8m-58.7 67.7c19.9-22.5 40.5-45.9 60.8-67.4m-61.6 70.9a897 897 0 0065-73.8m-62.9 75c12.2-13.3 24.7-28.2 63.8-73.4m-63.4 79.6c18-22.6 34.5-40.9 66.9-78m-68.7 76.5c28.4-31 54.5-61.9 68.5-79m-66.8 84.5c15.3-20.1 30-36.9 69.7-81.3m-71 79.9c21.7-23.3 43.6-46.7 71.4-81.4M81.5 148c30.6-36.6 58-69.4 72.3-87.6m-72.8 86c27.2-33 58.2-68.3 74.1-87.5M81 152.2c23.5-23.7 42.9-51.5 79-91.6m-79.5 90.5c20-22.8 40.1-46.5 78.3-91.4M79.7 154c22.9-24.8 47.7-51 84.5-93m-84 95.5c24-28.1 46.9-55.3 83-97.3m-84 103.2c22.8-29 51-58.6 89-102.8M78.8 160.7c32.6-35.9 64.4-71 89.8-100.5M80.7 166.7c30-36.8 61.2-75.8 91.7-107M80.6 165.2c22.1-29 46.9-56.6 91-105.7M81 169.5c28.6-33.6 59-63.4 92.7-110M80.2 169.6c29.9-36.2 60.1-70.6 94.6-109M80 174c37.5-42.5 72.6-82.7 99.1-115M80.2 174.7c38.3-44.8 76-87.8 98.2-114.2M79.6 180.1c26.8-29 48.8-58.8 102-118.4M80 178.7c31.2-36.4 63-73.3 104-118.1M83.5 183.2c42-48 83.1-94 103.7-122.3m-105.3 121c36-42.3 73.4-84.3 106.3-121.4M83.8 183.4c33-34.2 62.9-70.3 105.8-122.2M86 182.6c29.7-37.5 59.3-72 104.2-122.7M89.3 182.5c37.5-41.7 71-82.3 105.7-124M88.8 182.2c37.4-43 73.8-84.6 106.6-122.7M94.1 183.1c38.9-50.2 82-96 103.1-122M93.7 181.7c39.8-47 78.1-91.2 104.8-122.2M96 182.4C125.6 146 157 112.2 201.4 60.8M97 181.8c37-40.4 70.5-81 105.5-121m-99.6 118.5c35-40.2 72.7-78.8 105.3-119.2M102 180.5c31.9-34.4 64.2-72.7 105-121.3M105.6 180.6c27.8-25.7 50-56.7 104.6-121.1M105 181.1c34-37.8 66.6-76.5 105.8-121.8M109.4 183c36.8-44.2 73-84.2 104.1-121.9M108.8 181c26.1-30.7 52.2-61.3 105.9-122M115 183.7A1704 1704 0 01220.4 59.5m-108 122.9A5670 5670 0 00219.3 60M118 180.9c20.5-23 40.5-47.2 105-122M117.7 182.5c20.3-24.9 42.5-50.8 105.5-122.7M122.7 180c23.7-28 45.1-55.4 106.5-120.4M121.8 181c29.8-33 58.7-65.4 106.1-120.4M124.8 180.8c34.6-39.5 68-76.7 106.4-120.2m-106.9 122A4296 4296 0 01230.4 61.3M128.3 180.6c33-36.8 62.7-73 105.9-121.8M129.4 181.2c39.5-44 78.6-89.5 105.7-121M131.9 179.2c24.4-25.6 47.1-53 107.8-118.2m-106 119.2c27-30.8 54.7-63.7 105-121.6m-103 122c27.9-29.1 53-59.3 107.7-117.3M137.3 182.1c38.9-46.2 80.4-92.7 104-121m-98.7 119.6c40.7-44.5 80.6-91.6 99-114.5m-99.2 115.6c35-42 71.7-84.3 98.6-115.5m-95.7 116c32.3-36 63.8-72.2 97.4-111M145 181.7c36-40.6 71-81.6 96.9-110.6m-92.4 112.2c21.1-24 39-48.3 92.3-109.4m-92.5 106.7c27.6-30.3 54.9-60.7 92.2-105.7m-87.8 104.6c20-21 41-45.7 86-97.6M153 180.2c27.3-30.5 55.6-61.4 88.2-100.5m-85.3 101c32-37.2 66.4-75.4 84.4-98m-82.5 99.8c18.7-21.3 36.7-42.1 83.7-98.2m-78.2 95.3c13.6-18.2 31.8-34.8 76.5-91.3m-79.2 93.5c30.4-36.3 61.4-69.3 80-92.1m-77.4 91.8c26.6-32 55.2-63.3 80.3-90m-77.7 90.6c17-19.7 34.1-38.4 75.7-89m-73.2 89.6c15.3-21.6 32.9-37.5 73.8-84.9M169.3 182c24.5-27.2 48-55 72.6-85.2m-67 83.8c21.7-25.8 43.6-53.1 66.6-77.3m-68.4 77.6c21-23.5 41.7-47.4 69.3-79M178 180.8c23-29.6 48.3-55.2 64.7-75.3m-65.4 76.5c12.6-14.9 24.6-29.7 63.8-75.2m-61.6 75c14.2-15.6 25.7-30.5 60.8-69.4m-59 69.6c19.1-21.7 37-45.3 59.9-70m-56.3 69c11.3-11.5 25.2-25 55.3-64.5m-55.4 65a1202 1202 0 0156.9-64.4m-52.5 64c11.6-14.4 22.3-23.4 53.2-60.4m-52.7 60c12-14 24.2-27.5 52-59.2m-49.8 60.4a645 645 0 0150.5-54.4m-49.8 53.5c10-12.3 20-23.1 48.7-56.3m-42.6 58.3c13.4-17 27.5-33.8 43.8-53.2m-46 52.5c10.4-13 20.3-24.9 45.8-51M200 179.7c16.3-12 28-28.2 41.4-43.7m-40.8 44.7c10-11.7 21.3-21.7 40.7-45.2M205.2 182c8.8-9.6 16.5-16.7 36.7-43M205 181.7c8-10.8 19.2-22 36.4-42.7m-33 41c8.4-4.1 14.5-13 34-37.2m-33.3 38A500.5 500.5 0 00242 144m-29.2 38.2a310.1 310.1 0 0129-34.6m-28 34.3c4.5-8.1 11.6-15.1 28.7-33.7m-27.7 32.1c9.3-7.9 14.3-13 28.4-26.4m-25.5 27.1c5.6-5.6 9.8-11.7 24.3-28.3m-19.3 27.6c3.5-6.8 11.5-11.3 20-22.6M220.8 181c7.6-9.8 15.8-19.2 21.9-24.5M223.9 182c5-4.7 10.2-9.3 18-19.2m-17.4 18c6.9-6.2 13.7-13.1 16.5-17.8m-13.3 18.5c4.6-2.3 8.3-8 13.2-15.9m-12.2 15.5c5-4.6 11-11 13-15.6m-8 16c1.4-3.5 5.5-5.3 6.5-10.3m-7.5 9.9c1.9-2.7 3.6-4 8.8-9.6m-4.8 9.7c1.2-1 3.8-3.7 4.6-5.2m-4.7 5.5l5.5-5.6" stroke="var(--machine-frame-bg)"/><path d="M79.4 58.7c58.8 1.9 114.1 1.3 160.5 3.2M80.8 60.2c44.4.3 88.5 1.3 160-.3m0 1.5c-.6 44.9-.6 94-.7 120m-1-121.7c.7 31.4 1 63.4 1.3 119.4m-1.1 1c-39.4.3-80.3-.7-160.8-2m160.7 1.8c-45.8 1.5-93.9.6-159.2.5m.3 1.2c-2.4-34.7-1.7-72.5.2-123.1M80 180.4c-1.6-33.6-1.6-66.7.4-121.2"/></g></g><path d="M80.5 20c40-1.3 77.8 0 159.8-.1M81.8 58.2c43.3 3.6 86.6 3.6 159.5 1.5" stroke="rgba(0,0,0,0.2)" fill="none" stroke-dasharray="8"/><path d="M.2 59.9c168.1-1 335.2-1 429.6.1" stroke="rgba(0,0,100,0.5)" stroke-width="2" fill="none" stroke-dasharray="8"/><path d="M81 100c46 .1 91.4 1 158.4 1.6" stroke="rgba(0,0,0,0.2)" fill="none" stroke-dasharray="8"/><path d="M289.40000000000003 79.1c-12.9 2.5-25.3-1-40.4.9m41.8-.8c-10.6.1-19.3.6-40.2.4m-1.7 1.3c4.1-3.8 5.6-4.8 10-7.5m-8.8 6.7c2.1-2.1 4-3.5 10.4-7.4m-11.1 6.8c3.2 2 4.8 4.4 10 7.7m-9-6.8c3.3 1.9 5.6 4.6 10.1 6.2" stroke="rgba(0,0,0,0.8)" stroke-width="2" fill="none"/><text x="300" y="80" text-anchor="right" dominant-baseline="middle" style="transform-origin:300px 80px">Frame pointer</text><path d="M81 139c36.4 2.4 78.5 3.4 160.1.3" stroke="rgba(0,0,0,0.2)" fill="none" stroke-dasharray="8"/><text x="160" y="120" text-anchor="middle" dominant-baseline="middle" style="transform-origin:160px 120px" fill="rgba(0,0,0,0.5)">&lt;function locals&gt;</text><path d="M78.6 1.6C120.9.4 162.9-2.1 241 .5M80.2.5c57.6-1.3 113.5.1 159-.4m-.6-1.4c.8 37.2 4.3 75.8-.1 181.1M239 .6c1.8 50.7 1.6 101 1.4 179.1m-.5-1.3c-54.7.3-108.7 1.8-161.6 1.7m162.3 0c-58-.4-113.8 1-160 0m-1.4 1c1.2-56.4-.8-114 0-182.9m.6 182.3c-.6-38.5-2.3-76.4.4-179.7" stroke="rgba(0,0,0,0.6)" stroke-width="2" fill="none"/><path d="M292 199.3c-18 1.7-35.4.4-41.2 1.3m39.4-1c-13.7.9-28 .6-40.5 1.3m-.8-1.1c5-2 6.7-5.4 12-6.9m-10.8 6.9c2.3-2.2 5.1-3.4 9.5-6.7m-10.3 5.9c5.3 2.7 7 6.4 10.2 7m-9.5-6.2c2.1 2.1 6 4.5 10.2 7.6" stroke="rgba(0,0,0,0.8)" stroke-width="2" fill="none"/><text x="300" y="200" text-anchor="right" dominant-baseline="middle" style="transform-origin:300px 200px">Stack pointer</text><text x="160" y="200" text-anchor="middle" dominant-baseline="middle" style="transform-origin:160px 200px" fill="rgba(0,0,0,0.5)" font-style="italic">end of stack</text></g></svg>