<svg xmlns="http://www.w3.org/2000/svg" viewBox="-10 -10 450 740" style="width:450px;height:740px"><defs><linearGradient id="grad3" x1="0" y1="0" x2="0" y2="100%"><stop offset="0%"/><stop offset="100%" stop-color="#fff"/></linearGradient><mask id="m3"><path fill="#fff" d="M-10-10h450v740H-10z"/><path fill="url(#grad3)" d="M-10 5h450v48H-10z"/><path d="M-10-10h450V5H-10z"/></mask></defs><g class="frame" style="transform-origin:0 360px" mask="url(#m3)"><g fill="none"><path d="M79.7.4s0 0 0 0m0 0s0 0 0 0m-.4 6.3c3.2-2 4-3.5 6.6-7.8m-6 8.3c2-2.2 5.1-4.5 7.1-7M80 14C85 10 90.2 5.4 93.2 1.9M80.5 15.2c2.7-4.8 6.2-8.2 12-14.3M78.1 23c5.6-7.9 13.5-11.2 22.5-23m-21 23.6C87.8 13.8 96 5 101.1.1M77.7 30.9c9.9-10.5 17-18.2 29.5-31.8M79.4 30.5c8-7.7 16.3-16.5 27.2-31.1M79 37.7c12.7-13 27.2-25.9 33.3-38.8M80 36.9C87.6 29 97 18 112 .6m-34 45.7C92.4 31.8 103 16.2 119 .5m-39 45.2C90.7 33 103.2 19.5 120.3.3M81.2 54.2C98.8 31.5 116.3 12 124.7-1.7M80.3 53.7c9.3-11.2 20.2-23 46.9-54M78.7 63C89.2 48.9 100 38 133.5.4M80.4 61.1L133-.6m-51.4 70c11.1-15.2 25.8-32.2 57.7-70.6M80.7 68.3c16.1-19.2 30.8-38 59-68.6m-58.3 75c21.4-23.4 45.5-48.4 64.8-74.3M80 75.6c17-21.1 35.8-40 66-75M78.7 83.3c29.2-31 54.2-62 72.8-82.7M80 84.1C98.5 62.8 116 43 152.5-.4M79.2 93.5c31.6-36.5 65-74 80.6-95.5M79 91C96.1 72.8 113.5 54.3 159.8.2m-78 97c19.8-21.9 39.5-43 84.6-98.8M80 98.5c31.6-37 62.7-72.4 87-98.7M79 106.3c34.7-35.6 67.3-73 93.3-105.6M80 107C102.4 81.8 126 56.8 173.5.4m-93 113.4C117.5 71.2 153.2 33 180.8-.7M80.6 114.5c36.7-41 72-84.4 98.9-115.6m-100.1 122c37.8-41.4 73.3-84.6 106-122.1m-105.7 123C116.4 81.4 152.2 40.3 185.2-.4M78.3 131.2c33.4-40.9 67.3-77.7 115.3-132M80.4 129.7c44.4-50 86.8-99 112.2-130m-112 136c29.6-33.4 63.8-72.4 117.5-137m-119 139C126.7 83 172.2 29.9 198.9.6M79.3 145C107.6 111.6 139.2 76.4 204.7.2M80.1 145.5A11472 11472 0 00206.6 0M78.7 152C122.5 102 163.4 53.4 212.2 1.7M79.2 152C112 116 142.2 80.2 212.4.7M81.7 159.5C128 104.1 174.8 50 217.9-1.9M79.4 160C109 127.6 135.4 95 219.7-.7M88 161.3C140.5 99.4 191 38.8 224.9-1.5M86.6 159.2A5250 5250 0 00226.2.2m-135 158.5c40.8-41 77-83 140-159.9M93.4 160.1c53.4-63 107-124.2 138.7-159M101.5 158.7C152.8 99.8 204.1 41 238.7-.3M99.8 159.5C151.3 100.5 203 42.5 239-.1M108 160.4c31.5-40.7 67.4-78.6 133.5-158m-135 158c38.4-44 77-88.5 136.5-157.3M114 162c31.2-41.7 68.3-82.6 131.3-151.4M113.7 161c25.4-33.3 54.9-65.4 128.8-149.8M120.2 159.8c23.1-28.1 50.4-58.6 123-140.6M120.5 159A9267 9267 0 00243.7 17.1M125.4 159.6c42.8-48 85.3-98.3 116.9-132.3M127 159.4c33.7-39.2 67.5-79.4 117-133.2M135 160.7c32.3-40.1 66.1-80 108.7-127.3m-110 126.2c32-39.2 65.3-77 108.4-127m-102.8 128c44.2-49 82.6-97.3 102.3-118.3M139.7 159.4c21.5-26.9 43.8-52.1 103.6-118.2M147.9 159c23.2-29.4 50.5-61.7 94-109.3m-95 111c36.6-41.8 73.7-83.3 97-111.7M154.5 161c30-34 58.5-66.1 86.6-104m-87 102.3c18-19.5 36.1-42.8 89.7-102.5M158.1 158A2923 2923 0 00243 62.4m-83.2 97.9c21-26.5 43.5-51.1 84-96.5m-79 98.3c18.3-23.3 37.2-41.8 77.7-91m-76 88.2c14.7-19.5 32.3-36.9 77.2-88m-70.4 89.1c27.1-31 53.2-65.3 70.4-83.3m-71.3 81.8c26.2-28.8 51.3-58.1 71.5-80.7m-65.5 82.1c26-29.9 47.6-56.8 66.3-74.5m-65.9 75c23.7-25.4 44.5-51.6 64.7-73m-56 72c17.9-22.7 40.3-47.2 54.5-64.9m-55.8 65.4a1685 1685 0 0157-65m-51 65.3c16-19 31.6-37.6 53-58.6m-51.2 58.7c14.8-20.2 33-39.8 49.6-58.2m-44.9 59.1c15-20.6 31.9-37.3 44.5-50.7m-42.8 48.6c13.8-15 26.6-30.4 43.9-49m-36.6 51.1c12.1-18.6 27.3-33.6 36.2-44.1m-37.5 41.8c11-12.1 22.3-25 36.4-41.4m-30 42.5c5.8-9.8 13.6-15.4 28.2-36.7M212.5 159c11.1-10.1 20.9-23 30-33.9m-24.9 34c8.6-7.5 14.2-15.7 24-25.3m-23.4 25.3c9.6-8.8 17.8-18 25.4-26.6m-18.8 27.1c4.9-2.4 8-5.7 16.6-20m-16.5 21.1c8-7 13.2-15.1 17.6-20.3m-11 19.9c3.9-3.2 6.2-6.4 11.1-11.4m-9.3 10.5c.8-2.2 4-5.2 10-11.4m-4.4 12.4c1.1-1 2.5-2.1 4.6-4.5M239 160c1.5-1.6 3.2-3.5 3.7-4.5" stroke="var(--other-frame-bg)"/><path d="M81.9.9C137.4.5 197.3.5 241 .4M79.7.4c45.7-.7 90.7-1 160.6.4m-1 .6c-.8 50.3.5 105 1.8 158M239.8-.2c-.8 34.6.6 70.6-.6 159.8m2.4.8c-54.5-1.3-106.2-1-160.5-1.1m158.9.6c-35 2.4-68.8 1.8-159.8-.8m-1 2.3c-.1-60.5 0-120.6 1-163m0 161.1c-.5-39.5.2-81 0-159.4"/><path d="M80.2 159.8s0 0 0 0m0 0s0 0 0 0m-.1 4.6c.2-1 1.3-1.6 3.4-4.1m-3.5 4.4c1-1.6 2.4-2.6 4-4.3m-3.9 7.8c2-1.2 5-5.1 7.8-7.2m-7.3 7.8c1.9-3 3.8-4.4 7-8.5M80.9 173c2.9-4 4.7-5.2 11-14m-12.4 16c5.3-6 9.5-10.4 12.2-15M81 180a98 98 0 0013.3-21.7M79.4 178c7.5-7.3 12.6-14.7 16.2-18M79 184.9c8.5-9 15-17 22.1-23.5m-21.4 21c3.7-4.6 9.4-8.6 20.8-22.2m-22.4 29c11-10.5 18-19.1 26-30.7m-24.6 28.4c4.7-5.6 9.8-11.2 25-26m-24.1 29.5c6.7-6.4 18-16.8 28.2-31.4m-27.8 33.5c6.1-8 11.2-13.5 26.2-33.2M79.2 195c11.5-11 24.7-25 34.9-37m-34 39.3c11.3-14.4 24-28.3 31.6-37.1m-30.5 41.4c10.2-13.6 20.9-26.2 32.7-40.1m-33 38.6c12.7-14.5 25.8-30.4 35-39.5m-37.2 44.8c11.6-11.5 25-27.4 41-44M79 205.1c10.4-9.9 16.7-19.2 41.3-45.4m-40 51.1c11-10.8 17.4-21 45.1-48.6m-45 47.4c10.2-12.5 21.2-23.1 42.3-49.8m-44.3 54.6c15.2-15 25.8-27 48-55.4m-46.5 56.5c12.1-14.5 23-26.6 47.2-56.4m-46 58.9c17.7-19.4 33.3-40.9 51.3-59.4m-53.2 61.5c15.2-16.3 28.4-32.4 52.2-61m-53 64.3c23.4-21.9 42.3-47.2 56.5-64.5m-54.7 65c20.7-24.7 42.1-49.2 54.4-64.2m-56 69.6c13.3-16.4 26.8-31 60.2-69.2m-58 67.8c20.2-23.8 42.5-50.8 59.4-67.3M79 231.5c20-20.4 37.8-43 63.4-72.8m-61.6 74.6c14.6-19.3 30.9-36.7 62.8-72.1m-65 76.2c24.7-24.5 47-52 70.2-75.9m-69.5 77c27.3-29.8 53.3-60.3 69-78.7m-67.3 80.5c25.7-30.2 54.7-60 70-79.2M80.5 243c21.3-24.8 41-48.2 70.9-84m-69.8 86.7c20.2-19.8 38.7-44.2 75.6-84.7M80 247.2c25.9-31 50.4-60.2 75.3-87.9m-76.5 90.2c18.3-16.6 31-33.8 82.3-88.2M80.7 252c17.8-23.7 39.3-48 78.5-91.4M81.5 257c20.7-31.6 49.2-60.2 83-95.6m-84.7 94.3c26.3-30 52.4-60.2 83.6-94.3m-81.3 97.2c27-30.4 54.5-66.4 83.4-100.1M80.6 260.5c17.4-20.3 35-41.1 87.7-99.6m-87.8 106c25.7-34.7 56-66.6 90.5-105.4M79.8 264.8c33.4-34.6 64.2-73 91.8-105M80 270.2c37.4-43.1 73.2-84.3 95.8-111.4m-95 110.6c26.4-29.8 54-60.1 94.5-109.9M78.7 276.3c35.7-41.7 66.8-80.4 102-116.9M79.4 275.5c28.9-33 58.5-67.6 100.4-115.5M80.3 279.3c32.6-36.7 65.7-78.2 105.3-120.7M80 278.2c21.2-24.1 42.6-47.5 104.3-119.5M80 282.7c26.8-33.4 55.6-61.9 107.2-123.5M81.5 281.8c39-44.6 77.7-90.5 105.6-120.8M85 281.6c25.7-30.7 51.8-57.5 106.6-121M86.2 281c27.2-32 55-64.9 104.6-120.9M91 281.6c37.4-42.3 76-86.5 102.5-121.4m-104.8 122c30.7-34 60.1-67.3 107.3-122.6M93.3 281.3a7178 7178 0 00104-122M93.7 280.8c25.4-26.6 47.5-55 104.7-119.8M97.9 281.4c30.8-34.5 63-72.7 105.8-123M97.8 281.6c22.4-25.5 44-50.6 106.6-121M100.7 281.6c43-47 83.9-95.8 106-120M100.8 281c41-45.8 81.3-94 106.9-120.6M104.8 280c34.8-40.2 70.3-78.9 106.8-120.2M105.7 281.5c41-47 81-93.8 104.7-122.5m-99.6 121.5c34-40.8 67.9-81.5 104.4-120M109.2 282c31.6-36.6 64.6-73.7 106-122.7m-103 123c37.2-39.9 70.6-77.5 108-123m-106 123c30.6-36.8 61.5-72.5 105.8-123.2M116 283.2c44.4-47.3 83.8-95.7 106.6-122.6M117 280.5c31.9-34.5 60.4-68.6 107-119.8M122.5 280c35.4-45.2 75.7-89.6 103-118.4M121.8 281.8c26.6-33.5 56-67 105.5-122.3M125.6 280.6c25.5-26 48.3-53.8 107.1-121.4M124.6 281.5c41.7-47.1 83.4-93.3 105.7-121.3M128.4 281.1c40-43.5 82.2-91.4 107.5-121.6M129.2 281.9c34.4-37.7 65.6-75.9 105.6-121.7M132.6 283c31.3-35.4 64.7-73.8 106.5-124.6M132.4 280.7c35.7-38.4 67.1-77.2 106.5-121.1M137 279.6c32.4-36 65.2-74.4 106.2-118.1M137.8 280.7c37-40 73.4-82.5 104.5-119.6m-99.8 121c33.6-40.7 65.3-78.8 97.3-115.6m-98 115c23.3-27.5 45.7-55 99.5-114.3m-95 112.6c21.7-20.9 43-46.6 96.9-109.4m-98 111c23.8-27 48.6-56.8 97-110.9M149.9 282c19.2-21 36.2-43.5 91.5-108.5M149.7 281c34.5-39.7 70.4-79.5 92-105.6M152.2 282c20.1-23 42.5-46.6 90.3-104m-89.3 103.7C177 253.1 200 226 241.3 180m-84.5 102c19-19.1 35.7-42 86.1-96.5m-85.2 95.2c25.1-28.1 49.7-58 84.3-96.4m-80.2 98c19.5-24 36.6-46 80.6-92.7M161 281.4c14.9-17.2 30.9-36.7 80-92m-74.3 93.8c23.7-28.6 44.9-57.8 75-89m-75.7 86.4l75.6-86.6m-70.3 88.1c15.6-19.2 28.6-35 71.8-85.6m-73.5 85c15-18.8 30.7-35.4 72-83.4m-67 84.7c17.8-20.4 35.7-44.5 68.9-78.5m-69.8 77.2c20.2-23.7 40.7-48.2 68-78.9M178.2 281c14-14.7 24.1-31 62.6-74.1M177 281c14.1-16.7 28.1-31.1 64.7-73.3M180 281.6c14.9-15 26.8-28.5 60.3-71m-59 72.2c19.2-23.6 39.8-47.7 59.6-72m-56.4 72c16.4-23 32.2-41.5 56.9-64.5m-57 63.6c17.9-20.4 34.5-41.9 56.4-65.6m-53.1 66.5c17.7-22.4 33.8-39.4 54-61.4M189.8 282a4302 4302 0 0153-62m-50.3 59.7c12-11.8 23.3-24.7 50.5-52.6m-51 54.9c12.3-14.3 24-25.9 49.4-55.9M196 282.8c12-14.8 23.6-31.7 44-54.3m-42.6 53.7c14-17.3 27.4-33.2 43.7-52.5m-41.6 51.6a537.8 537.8 0 0141.6-45.8M201 281.2a583.3 583.3 0 0039.5-47.2m-35 49.2c6.9-12 13.5-21.2 35.8-42.2m-36.6 40.6c12.3-14.2 23.3-28.2 36-42.2M209 280.3c12-12 22.8-26.9 31.6-35.5M210 282.1c9.9-14.3 22.2-27 31.2-38.6m-30.4 38.6a150 150 0 0028.9-35m-27.3 34.5c7.6-8.6 13.8-17.1 28.7-32.3m-26 30.9c6-6.6 14.2-12.2 25.3-27.5m-23.6 29.6a441 441 0 0124.5-30.4m-20.7 31.3c4.6-10 12-14.3 21.7-26.5m-22.4 26c6-6.5 10.5-10.3 22.1-24.9m-15.4 22.3c1.5-3.8 6.5-8.5 17.1-16.7M224.5 282c4.7-5.3 8.7-10.4 16.9-20.5m-13.7 19c5.2-4.2 6.1-6.7 15.2-15.4m-14 15.3c4.4-4.4 9.9-10.9 12.9-13.9m-9.4 16.1c2.4-3.4 6.7-8.2 8.8-11m-8 9.6c2.5-3 5.2-6.2 9-10m-6 9.6c1.5-.5 2.6-1.8 4.6-4.4m-4 4.7c1.8-1.1 3.1-3.2 4.5-5.4" stroke="var(--js-frame-bg)"/><path d="M81 158.7c46 3.7 89.5 2.9 158.6 1m-159 .3c47.8-2.1 96.3-1.3 158.8.5m1-2.4c-1.2 28.2-1.6 50.4-1.8 121m.7-118.3c.4 45.8-.1 94 1.3 119m-2.2-.3c-51.3-1-101.3.8-157.7 2m159.2-1c-34.1-1.8-69.9-1-159 0m-1.5.4c-.5-36 2-71.3 1-119.5M81 280c-1-31-.3-61.3-.5-119.4"/><path d="M79.9 280.1s0 0 0 0m0 0s0 0 0 0m-.3 3.7c1.3-.8 2.2-2 4.1-3.7m-3.6 4c1.1-.7 1.6-2 4-4.4m-3.9 10.2c2.7-3.3 5.2-4.9 7-10.4m-7.4 10.2c2.8-2.6 4.6-5.5 8.1-9.2m-8.5 13.1a64 64 0 0011.8-13.4m-11 12.9c3-3 7-6.9 11.8-13.3m-13 20.3c5.2-8.5 13-17.3 18.2-20m-16.8 18c4.8-7.2 12.2-13.2 16.6-18.6m-18 24.8c3.5-5.3 8-10 21.1-23.3m-20.7 21.4c7.7-7 13.1-14.9 21-21.6m-20.1 25.3c9-9 16.6-18.5 23.2-25.4m-23.6 26.8a364 364 0 0023.1-27.8m-21.8 32.5c6.3-10.3 15-20.7 24.7-30m-26.1 28.9c7.2-8.6 15.7-18 28.7-31.7m-27 38.3a203.5 203.5 0 0131-36.8m-31.6 36c11.2-15 23.3-29 30-37m-32 41.7c10.3-8.6 17-21.4 35.4-42.9m-34.6 42.5c10.8-11.9 22.7-25.8 36-42.1m-33.5 46.7c6.1-13.1 19.7-23.5 37-47.6M81 324.6c11.2-12.8 23.4-26.2 39.3-44.3m-40.4 50.4c13.8-12.7 25.5-30.7 43.4-51m-42.6 50c15.1-15 28.1-33 43.7-50.4M80 334.7c16.3-15.1 30.2-34.2 48-54.5m-48.9 55c17.6-20.8 34.7-41 49-54.7m-48.4 58.7c13.6-15.8 26.6-30.5 53.2-59.6M79 339c11.2-12 21.5-24.6 52.6-59.8M82 343.4c19.6-19.3 38-43.4 54.3-64.1m-56.4 64c18.4-20.8 38.4-41.3 55.8-64.2M78 350.8c22.2-25.4 38-46.8 61.8-71.3m-61 69c22.3-25.8 44.7-49.5 59.7-68.6m-59 72c22-22.5 41.6-47 65.3-72.2m-65.4 73c16.5-17 32.8-35 65.3-73.5m-65.2 77.3c19.6-20 34-36.6 68.3-76M79 358.7c22.8-25.4 45.4-51.8 67.8-79m-66.6 81.4c20.4-21.5 38.5-43.6 73-81.2m-71 81.6c19.1-23.3 37.8-45.5 68.6-81.6M85 359.3c19.6-21.2 38-43.4 68.8-77.8M85.4 361c20-24.7 41.8-48.3 70.5-81.5m-68 80c24.7-26.4 52.4-56.8 70.4-79.7m-68.7 81.9c17.6-22.9 35.8-42.5 68.9-81.6M93 359.6c20-19.9 41-45.8 72.3-81.4m-71.4 82c17.6-20.9 35-41 70.5-81.2m-65.8 82.2c19.6-20.5 38.4-46.1 68.8-82.6m-70.9 83.2c24-28.6 49-57.5 71.7-82.3m-68 80.3c26.6-29.6 56.3-63.3 71-80.1m-70.9 81.2c21-22.6 40-43.7 71-80.4m-65.8 79.8c15-17.6 33.5-41 71.4-81.3m-72 81.4c19.3-22.2 38-44.7 70.1-81.1m-65.2 80.4c12.7-15.3 27-33.6 71-80.3m-72 82c16.3-17 30.9-37 70.7-81.8m-66.1 82.8c17.4-20.5 36.4-43.7 69-81.6m-70.2 79.5c23.6-25.4 44-51.3 71-79.6M117 359.4c18.2-18.4 38.6-42 70.7-81.2M116 361.8c25.3-27.7 49-56.2 72.4-81.7m-67.2 82.6c25-34.8 54-67.2 71.6-82.8m-71.4 80.5c14-16.2 29.4-35 70.6-80m-66.5 81.1c20.1-23.2 45.3-52 68.7-82m-69.6 82.3a2139 2139 0 0070.2-81.6m-64.5 81c26-30 53-63.5 69.1-81.8m-71.2 82c20.3-24 41.5-47.8 70.5-80.6m-66.1 80c22.8-23 42.5-48.4 71.4-79m-71 79c20.5-23.8 40.6-47.8 71-81.3M136 361c23.8-29.5 49.8-56.2 72.8-80.6M137 360.8c17.5-20.6 35.3-41 70.4-82M140 359.4c16-16.3 34.2-35.4 72.5-80.5M140 360.6c22.8-27 47.4-53.3 71.5-81m-66 81.3c19-23 42.1-46.9 69.3-79.7m-69 80.3c22.5-28.3 46-55.5 69-81.3m-66.3 80c27.3-28.7 53-58.9 70.3-79.1m-69.4 80.7c24-26.7 46.2-55.8 68.4-80.8m-65.4 81.4c18-21.5 36.5-43.7 70.9-82.6M153 360.6c13.3-16.1 28.4-32.7 70.9-80.2M157 363c20.2-25 44.4-50.2 71.4-84.4M156 360.4c19.3-20.5 37.8-41.7 71.5-80m-66 78.6c12.4-12.4 29.7-30.2 68.2-79.7m-69.1 81.6c22.6-25.6 45-50.3 69.4-80.4m-64.6 79.1c18.1-21.2 37-42.3 70.3-79.6m-71.4 79.7a2843 2843 0 0070.4-80.2m-64.3 79.8c21.2-23.8 43-49.8 70.1-79.3m-73 80.2c15.5-17.6 31.9-36.7 70.2-80.4M172 362.5a1042 1042 0 0069-82.4m-69.1 80c25.5-27.3 49-55.9 68.8-78.5m-65 81.1c17-21.4 37.4-44.4 64.6-77.5M176 361c17.2-17.6 32.6-35.6 66.3-75m-61 76.9c13.2-18.4 29.8-35.6 58.3-73M180 361.6c17.7-20 34-38.6 61.8-70.4m-58 70.5c21.7-22.5 42.1-48.4 57.4-68.3m-56.3 67.2c16.4-19.1 31.2-37 57.1-65.6m-51.9 64.7c11.5-13.2 22.9-23.4 50.9-61.2m-53.4 61.7a966.5 966.5 0 0053.4-61M193 362a718.4 718.4 0 0150.7-57.5m-50.6 55.4c14.8-17.8 31.5-36 48.3-55.8m-44.2 59a515.4 515.4 0 0145.3-52.8M197 361c16.4-18.9 32.6-38.6 43.6-51m-41.8 51.8c9.5-10.6 22.2-24.8 41.5-48.8m-40 48.5a1075 1075 0 0040.7-48.3m-38.3 47.5c9.6-11.7 22.4-22.1 38.3-41.5m-36.7 41.2c15.5-17.4 30.8-34 37.8-43.4m-34.3 45a202.3 202.3 0 0032.8-40.9m-33.2 40.6c14.4-16 25.3-29.7 35-38.4M214 361.7c8-14.7 22-25.7 27.4-36.3m-28.8 35.3c8-9.3 15.3-18.3 30-33.1m-27.2 32.8c9.5-10.2 16.5-19.3 25.9-27.8m-25.6 28.6c9.8-10.2 16.8-20.3 25.5-28.8M221 362a280 280 0 0121.5-24.2m-21.8 23c4-5.7 8.1-10.5 20.6-24.7m-18.8 25.7c7.2-10.3 16.2-16.4 17.1-22.4m-15.2 21.8c7-9.2 13.7-16.7 16.8-21M227.5 360c3.4-5 9.8-9.3 12.4-15m-12.8 15.9c5-4.8 8.7-9.6 14.5-15.1m-10.4 16.4c2.2-2.5 5-5.2 10-12m-9.1 10.4c2.4-1.6 4-4.6 9.2-10.8m-5.5 11c2.2-1.8 5-4.9 6.3-6.5m-6 6.7c1-1.6 3.2-3.5 5.4-6.5" stroke="var(--machine-frame-bg)"/><path d="M80.7 281c50.4-2 104.7-2.6 159.5.7m-159.3-1.2c39-.9 77.3-2 159.3-1.3m-.4.3c.4 29.6 1.4 58.1-1.7 80.2m2.5-79.7a1216 1216 0 00-.4 79.4m-1.6.2c-43.1 0-85-.7-158.1-1m160.3 1.6c-58.4.3-115.2.5-161.2-.6m1 2c-1-21.9-.6-39.7 1-83m-2.2 81.8a498 498 0 00-.1-81.3"/><g><path d="M80.1 359.8s0 0 0 0m0 0s0 0 0 0m-.9 5.4c1.8-2 2.5-2.7 4.9-5m-4.2 4.7c.6-1 1.8-2.2 4-4.5m-4.5 8c2.6-3.2 5.1-5.8 8.2-7.8M80 369c2.8-2.4 5-4.8 7.5-9.4M79.7 373a44.7 44.7 0 0112-11.3m-12.9 12.2c3.8-3.3 8.6-7.3 12.8-14.9m-10 18.8c3.8-3.2 9.1-11.5 14.6-18.1m-17 18c6-5.7 10.8-12 17.2-17.5m-16 21c2.7-5 11.6-9.5 20-19.7m-21 20.3c9-7.3 15.2-17.3 21.3-22.4m-22.2 27.3c7.3-5 12-13.4 23.2-28m-21 29.5c7.3-10.5 15.3-19.9 22-28.7m-21.3 31.2c8.5-9.2 19.2-24.1 26.6-32m-28.2 32.2c7.4-6.4 12-13.4 27.7-31.7m-28.3 37c12.9-14.5 24-27 33.1-34.6m-33 34.8C88 387 96.7 378 111.4 359M80 400.6a321.5 321.5 0 0035.9-41.2m-36.7 40.8c11.2-11.8 22.4-23.4 36.3-40.3m-36.4 46c10-13.9 21.3-23.7 40.2-47.8m-39.6 47.3c13-13.7 24.6-26.2 40.3-45.6m-41.7 49.6c16.2-15.4 29.5-30 45.8-47.5m-44.3 48a783.2 783.2 0 0044.3-49m-43 54.5C98 394.6 117 374 128 361.3M79.3 416c17.5-20.6 34.4-39.7 48.7-56.4M82 417.9C98.3 395 119.4 373.6 133 358m-53.3 61a832 832 0 0051.2-58.2m-51 63.7c12-13.7 25.2-27 56.6-65.3m-56.2 65.2c16.9-20.8 36-42 54.4-63.5M80 430c11.7-15.4 25-32.1 58.4-71.6m-57.8 69.4c13-13.4 24.4-27.1 59-67.2m-60.7 73.2c17.3-19 36-41 64-73.2M81 432c21-24.2 42.8-50 63.6-72.5m-64.4 78.3c22.7-28.1 47.7-55.1 65.5-76.3m-66.2 76.6c27.3-30.7 53.3-61 67.8-77.6m-66.7 82.2c27.3-32.3 53.7-63.9 72.2-81.7m-73.2 81.4c27.2-30.5 51.4-60.3 72.4-82M80.6 448c20.4-28 45.7-53.8 74.7-87m-74.8 86.6c17.6-22.3 34-43.1 75.7-86.5m-76 91c18.8-21.8 37-41.7 79.3-93m-78.9 92.5c22-26 43.4-50.5 79.6-91.3m-82.2 96c34-36.2 62.8-73.8 87.2-98m-85.4 97.2c21-24.6 42.6-50.8 84.1-95.2m-82 98.8c18.8-18.5 36.8-40.8 85.5-98.4m-87 100.5c28.3-33.2 57-67.9 86.3-102.1M78 467.2a4757 4757 0 0095.5-106M80 466.2c34.5-39.6 68.8-79 91.4-106.7m-92.8 112c20.6-25 43.8-48.5 94.7-110.1M79.3 469c33.5-37.5 66-74.6 95.5-109.2m-94.5 115c36.2-40 70.7-80 98-113m-98.4 112A3702 3702 0 00179.5 359m-98.2 118c29.1-32.3 60-68 102.5-118M80 478.7c40.3-45.8 80.2-91 103.5-118.7M82.3 482.3c26.5-28 48.7-56.4 104.2-124M82 482.2c40-46.7 79-92.7 105.2-121.6M85 479.4c27.5-30.7 54.9-62.8 106.3-121M85.7 480.7A3530 3530 0 01190.5 360M89.3 481.1c28.2-34.8 58.3-67 106.5-119M89 482.5c32-36.6 61.6-71 106.8-123.2M95.3 479.7c18-20.7 41-45.8 105.3-120.2M94 481c29-35 60-67.4 105.6-120.1m-102 120c27.5-30.2 52.5-56.9 105.6-120.7M98.4 481.8c24.2-28.8 47.7-57 106-122.9m-102 121.7c26-30 55.7-64.4 105.5-120.5M100.5 482c43-48.7 83.7-95.8 106.5-121.3M106 480.3c41-47.3 83.2-94 104.7-118.9m-106 120c41.2-46.9 83-93.5 105.7-121.2M108 480.9c37.2-39 73.4-80.2 107-119.9M109.4 481c35.8-38.7 70.6-79.1 106.3-120.6M114 481.7c34.8-39.7 70-81.4 105.5-122.3m-106 122.9c37.2-44 75-89.2 106-122.8M119.3 480.9c23-28.2 46.4-54.7 104.5-122.2M117 481.3A7623 7623 0 00223.1 360M121.8 481.6c30.5-32 60.9-65 106-120.4M121.4 481c26.7-30.5 53.4-60.3 104.7-120.6m-102 122a2596 2596 0 00105.6-123M125.4 481c27.3-29.4 55-61.5 105.2-120.6M130 481.5c37.5-45.7 74.6-89 105.1-120.2M130.5 481.6c22.3-26 45.6-52.4 104.4-120.6M134 482.2c37-45.5 75-88.3 103.2-120.7m-103.7 120c27.5-31 53.6-62.6 105-121.2M136 481.8c39.2-46 80.4-93.4 104.9-121.8M137.5 482.2c31.2-37.7 62.6-74.3 104.4-121M142.3 480c22.6-24 45-52.2 98.6-114.7M140.7 481c36.2-41.8 72.4-84.2 100.5-114.3m-95.7 113.9c32.5-39.1 67.7-77.4 98.1-108.3M146 480.5c22-24.2 45-50.9 95.5-109.3m-90.6 110.4c26.8-32 55.8-62.8 91.7-104.1m-92.4 103.2c28.8-31.1 56.1-63.5 91.2-104.4m-88.2 104.4c28.1-32.7 59.1-66.8 87.4-102m-88.3 103.6c28.7-33.3 58.9-67.6 89-102.3m-84 100c31-35.3 63.5-70.5 86.5-97.6M157.6 482c24.8-29.7 51.1-60.3 83.6-97.3m-79.3 95.9c24.2-27 49.2-57 80.8-92.1m-82.4 92.3c19.4-20.3 38-42 81-91.8m-75.5 91.4c14.2-19.5 33.7-37.2 77.2-86m-76.8 86.8c28.8-34.2 58.9-69 76.3-88.2m-72.2 86.1c20.8-23 41-45.2 71.1-80.9m-72.7 83.2c23.5-26.9 47.2-53.6 73-82.5m-69.6 82c28.2-29.7 55.6-62.9 69.7-80.3m-68.6 81c25-28.6 51.3-57 69.6-78.4m-63.7 80c18.6-27 42.1-49 61-76.1m-63.4 74.7c16-18.6 30.7-36 64-74.3m-58.3 74.6c23.2-28.7 48.5-56.3 58.3-69.5M181.5 482c24.4-27.3 47.2-54.5 60.6-69.6m-57.7 71c25-26.2 46.8-53.3 56-67.5m-54.5 66.3c9.8-15.1 22.2-28.9 56.6-66.2m-53.9 64.8c18.7-22.8 41.6-45 52.7-61.1m-52.6 62c12-13.7 23-27 53.3-61.7m-49.5 62c13.4-16.3 25.2-29.6 50-58.2m-49.8 58.7c20.1-23.5 38.7-45.6 47.9-57.4m-42.7 56.4c13.9-16.9 27.9-32.3 43.4-51.2m-43.5 50.3c8.5-9.5 18.9-21.6 44.2-50.7m-43.2 50.9c14-10.7 23-24.2 42.2-45.2M200.2 481c11.3-12 24.1-25.9 42-47.1m-35.8 46.5c8-6.8 12.5-16.8 36.4-40.5M205 482.1c10.7-13.1 20.1-24 36.8-41.8M208 479.4c12.1-13 26.4-27.4 34.4-35.4m-33.7 38.2c10.8-12.9 20.2-24.7 32.4-39m-30 38.2c11.2-9.6 18.3-20.2 29.9-33.9m-29 33.6c7.4-7 13.3-14.5 30.5-31.7M218.2 482c7.3-8.3 12.6-18.5 23.3-27.5m-24 27.8c7.4-10.8 17.6-20.2 24.5-28.7m-23.3 29.5c8.6-8 13.7-16.6 23.4-24.4m-21.2 24.2c6.4-9.3 14.2-16.7 20.8-25.9m-15.3 23.6c3.5-5.6 7.7-9.1 16.3-17m-18.5 18.3c6.4-6 11.4-12.7 17.4-19.4m-12.7 19c4.5-5 10.2-11.2 13-15.4m-13.7 14.7c5.3-5.4 10.3-9.8 13-14.8m-8.7 16.1c2.8-2.9 5.3-6.4 10.1-11.2m-10 10.5c2.3-2.6 4.3-4.4 8.5-10.9m-4.6 11.4c2.7-2.8 4-4.8 5.5-6m-5 5.3l4-4.8" stroke="var(--js-frame-bg)"/><path d="M80.8 359.1c31.5 2 68.5 1 157.9 1.5M80.9 360c52.8-1 105-1.6 158.6 0m.5-.9c1.2 40.8-2.2 79.7 1 121.3m-.4-119.7c.4 34.4-1 71.1-.7 118.8m0 1.6c-33.3-2.8-63-2.3-159.2-2.6M240 481a2553 2553 0 00-159.3-1m1.2.3c-.8-24.2-1-49.4-2.6-120.5m1.1 119.3c.3-31-.8-60.5-.4-119.8"/></g><g><path d="M79.9 480.2s0 0 0 0m0 0s0 0 0 0m.8 4c.2-1 2.3-2 3.5-4.8m-4.2 5.2c1.1-1.3 2.9-2.8 4-4.5m-4.4 10.3c3.6-3.1 5.2-7.4 9-9.5m-8.3 7.9c2.8-3.2 5.1-6.8 7.6-8.9m-7 12c3.9-4 5-6.6 12-10.8M79.2 494c5.2-3.7 7-8.4 12.9-14.3M78.9 497c5-6 10.9-8.2 16.6-18.7m-15.7 21c2.8-4.5 7.5-10.1 16.4-20M81 503.7c2.1-7.8 7.9-11.2 17.5-25M79 502.3c4.3-4.8 8.8-9.6 21.6-22.3m-21.5 27.4c8.8-12.6 18.3-19.5 23.2-25.7M80.3 508c10.4-12.7 18.1-22.4 23.8-28m-24.6 30.5c9.5-8.5 19-22 28.2-31.7M80 511.4c10-10.5 19.2-20.9 27.6-31.5m-28.4 37.6a301 301 0 0134-36.7m-33.7 34.6a503 503 0 0032-34.9M80.6 522c12.7-16.4 21.7-28.4 37.1-42m-38 42.3c12.2-15.6 24.4-28.4 35.7-42m-37.3 46c10.8-11.4 20.4-22.5 41.7-46m-39.7 45.1c10.7-12.1 20.4-23.8 39.4-45.7m-40.5 52.8c13.5-19.5 28.8-33.2 46.7-52m-46.2 49.3c10.2-11.6 22.7-24.5 44.3-50M82 535c12-14.8 25.8-31.8 45.7-57.3m-47.5 56.5c9-10.7 17.8-21.3 47-54.8M80.9 539c15.2-19.2 30-35.6 49.1-59.5m-49.7 60.2C96 521.9 113 501.6 131 480m-49.6 62c18.6-20.7 36.3-42.4 54.2-61.4m-55 63.1c14.2-17.5 27.6-34.3 56-64m-58.2 70.6c18.4-22 41-44.1 60.5-71.6m-58.4 70c13.2-17 28.3-33 59-67.6m-61 73.6c16.5-17.3 30.5-36.1 65.5-75m-64.5 72.7c15-15.1 28.1-32.3 64.2-71.6m-64.4 76.6c16-17.8 33.5-36.4 69.4-77m-68 76.6c18.3-21.7 37.4-42 68-77.2m-68.2 80.8c12.6-18.2 29.8-34.8 72-79m-72.9 81.2c16.6-16.6 31-34.8 71.6-83m-72.9 87c29.2-33.6 58.1-66.7 76.2-89M80 567.2c27.8-32.7 55.8-63.5 76-86.7m-74.3 90.3c23.7-27 47.3-50.8 79-90.5m-81 92c22.6-25.4 44-48.8 79.6-92.4m-80.5 95.5c29-29.6 56.8-62.7 83.4-94.1M79.3 575c27.1-29 52.5-58.5 85-95m-85.5 99.2c20.9-20.4 43.1-44 88.5-99.3M80 581.2c24.8-28 49.4-57.4 88.2-100.9M79 584.8c24.7-29.8 52.3-58.5 93.7-106.2M79.4 585.7c23.7-25.2 45.6-51.9 92.3-106M79 590c23.4-24.7 45.6-52.4 96.8-108.4m-95 109c30.1-34.7 58-67.9 95.7-110.6M78.4 594c34.5-33.8 65.2-71.3 100.1-113M81 595.2c28.4-35.7 56.8-68.9 97.6-114.2M81.4 598.8c31.2-39.6 65-77.2 103.9-118.3m-106 119.3c33.5-34.7 63.8-71.3 103.7-120M81 605c30.8-37.4 63.9-75.3 104.6-127m-105 126c22-28.1 46.5-54.8 107-125M81.3 608.5c32-39.2 68.6-81.7 108.1-129.5M81.1 608.6c34.7-42.7 69.8-81.7 110.6-128.2M80.9 612.2c43.7-50.4 88.9-103.8 115.5-130.8M80.2 612.7c37-43.3 74-86.8 116-133.3M81.3 616.2c35.3-40.6 69.3-83.3 118.7-136M80 617.2c43-46.1 82.6-93.4 119.8-136.3M79.4 623c28.4-31.5 57-65.5 125.7-143M80.2 623c41.6-48 82.5-96.1 122.3-142.5m-124.2 144c38-45.7 78-86.7 129.2-142.8m-128.3 144c29.6-33.8 59.2-67 127.2-146M80.8 631c37.7-44 75.2-88.2 131.2-149.3M79.3 630.3c45.9-50 91.3-102.9 132-149.2M80 634.9c47.8-56.7 96.8-109.9 135.8-153.6M81 635.6c32-35.2 64.7-73.6 133.7-155.4m-134.6 161c42.2-49.1 86.3-98 140.3-159.6M80 640.3c52.8-60.8 104.4-120.7 139.2-159.3m-141 164.3c46.7-55.6 93.3-107 144.6-165m-142.2 165c37-44.7 75.9-89.1 141.8-164.8M78.7 647.9C131 593.3 177.9 535.7 226 480.3m-146.6 169c32.7-37.6 65-76 147.3-169.7M80.4 652.2c53-61.2 104-121.8 150.5-172.8M79.5 654.5c56.2-68 114.7-133.7 151.3-174m-152 177.3c38.7-43.6 79.5-86.1 156.4-176.8M80.4 658.6c46-53 93.5-105.3 155.2-179M80 664.6C119.6 621 154.4 579 239.3 480M79.6 662.4c56.3-63.2 109.3-125.2 159.3-182.1M79.3 668.8c52.5-61 102.2-115.3 161.2-188.1M80.3 667.2C133 608.5 184 549.7 242 482.1m-161.9 189c62.6-71 122.3-144.5 160.8-186.5M80.3 673c43-49.8 86.2-99.7 161-187.4M80 675.6c49.6-55.1 96.9-109 161.3-185.6M79.5 676.4c59.2-68 118.2-134.5 162-185M81.9 679.2C138.2 617.3 194 552 243.4 495.1M79.8 680.3c61.3-70.9 123.6-141.9 161.2-185M85 680.3c52.2-62 107.8-127 156-179M84.8 680.2c35.5-43 72.4-85 155.9-179.9m-151 179.1c41-45 85.5-96.7 152-175.2M87.6 680.7a6078 6078 0 00155-177m-151 175.5c34.4-35.3 67-74.6 149.4-169.8M93.1 680c37.6-41.7 75-85 147.5-171.2m-143 170.6c38-45 79.5-93.3 143.9-165.8M96.3 679.8c30.9-34.7 62-70 144.8-165.8M100 682.5C149.6 625.8 199 565 241.5 518.7m-140.7 162c56.4-65.2 112.5-131 141.8-163m-139.4 164c37.2-45.8 76-87.8 139.6-159.2M105.2 681.3c32.9-40.4 66.9-78.6 136-159.3M107.7 679.6C137.2 647.2 165 615 242.2 528M107.9 680l134.9-153.4M110.5 681.7c34-39.6 67.6-79.6 130.7-148.7M112.7 681.6c43.8-53 88.6-103.4 128.6-150.2m-122.9 147a3231.8 3231.8 0 01124.3-141.2m-125.2 144c30.4-35.9 60.6-70 123.5-144.6M121.1 681.9c28.5-39 62.5-74.2 120.7-142.2M119.3 680.3c33.4-36.4 66-72.9 121.6-139.2M123.7 681c43.7-49 84.7-99.3 116.3-134.2M125.3 681.2C169 630 211.8 579.7 241.8 545.5M128.4 680.1c34.4-40.7 73.3-84 114-129.6M128.1 680c23.6-25.9 46.8-52 113.2-128.8M133.9 680.8c28.6-35.3 56.9-68.6 109.3-126M131.9 681.5a7939 7939 0 01110.4-126.8M137.8 680.5c34.5-38.6 66.6-79 104.9-119.8M136 681.3c40-46.3 80.2-93.1 106.2-123.4M139.4 679c24.1-26.1 46-52.6 102.1-115.1M140.6 681.4c28.9-35.4 59.3-70 101.7-118.2m-97 119.2c24.6-30.6 48-56.3 98.4-113.6m-98.9 111c29-31.9 56-66 96.7-111.7M148 681c22.6-28 47-55.5 93.2-109M149 679.6a5301 5301 0 0091.7-106.1m-88 107.3c20.5-27 41.3-52.5 91.1-104.5m-92 104c27.2-32.2 56.9-64 89.6-102.4M158 680c25-27.5 51.8-57.7 82.3-97m-83.8 98c27-31.5 54.4-64.3 84.8-98m-79.8 96.2c29.7-33 55.8-67.4 79.9-94.2M159 681.4c28.9-34.3 58.8-66.3 82-95m-78 93c18.6-17.3 36-39.4 77.5-86M164.9 680c20-21.5 38.7-45.2 75.7-87.5m-72.6 86c21.4-21.3 39.4-44 73.4-82.6m-72.8 83.4c16.7-19.3 35.1-39.8 73-84m-69 87.4c23.5-31.6 49.5-61.9 67.4-82.4m-68.4 80.4c23.2-25.5 44.7-51.4 70.4-80.8m-67.5 79.4a699.1 699.1 0 0065.6-76.1m-63.3 77.1c13.3-16.1 26.7-32.6 65.3-74.6M178 679.1c24.1-26 51.2-54.5 65.6-71.9m-64.5 74c19.6-21.5 38.4-42.8 62.7-72.2m-56.2 72.5c9.6-14.7 23.4-31.7 57.8-66.1m-59 65.3c17-22 35.7-41 58-65.7M187 678.8c22.1-21 40.6-44.4 54.4-61.8m-54.1 63.8c20.6-22.5 41.5-45.4 55.6-62m-51.6 61.8c16.6-22.1 37.3-39.9 48.3-57.3M192 680.1c16.9-19 32.5-36.6 50.3-56.2m-47.5 57.8c12.5-11.3 22.5-25.3 49-53.1m-47.2 51l45-51.7m-42.7 52.2c10.7-9.7 19.4-22.5 43.8-48.9m-43.2 49.1c9.5-9.8 19.6-20.1 41.2-46.9m-36.7 45.7c9.8-10.6 18.6-21.6 38.5-42.2M204.7 681c10.9-13 22.5-27.5 37.1-43.8m-35.4 44.6c12.2-13.2 20.5-23.7 36-40m-35 38.6c13.3-15.3 26.5-31.3 33-37.9m-27.8 38c10.3-9.6 15.9-21.6 30.8-34.9M211.8 681c7.4-10 16-20.1 29.5-35.4m-24.7 36.9c5.7-10.3 15.4-18 25.4-33.2m-25.5 31.4c6.7-8 14.5-17.4 26-30.5M219 680.4c9-9.1 16-20.7 22.8-27M220.2 681c5.8-5.8 10.9-12.3 20.9-25.9m-15.7 24c4.6-5.4 11.6-12.8 14.9-20.7M224 681.1c4.7-5.3 7.6-10.3 18.1-20.7m-16 19.8c4-6.8 9.1-9.5 14.8-16.8m-12.3 16.4c4.6-4.8 9.3-11.2 12.5-14.6m-10.6 15c3.9-.6 5.3-5.4 11-11.2m-10.8 12.3c3-4.2 6.1-6.6 11.5-13m-6.4 12.7c1.3-2.5 2.2-4.1 6-8m-5.8 7.4c1.4-1.8 2.2-3.5 5.4-6.4" stroke="var(--interpreter-frame-bg)"/><path d="M81.2 479.4c39.5 1.3 82.7-.1 157-1.1m-159 2.2c51.2-.9 102.9-1 160-.2m0-1.1c0 61.9.1 125 1.2 201.6m.2-201c0 66.5.9 135.2-.3 199.8m1.5-1c-47.4 3-95.6 1.6-162.3-.2m159.6 2.3c-37.7-.3-75.6-1.9-158.6.3m-1.7-1.3c.6-44.3.7-86.5 1.3-200.3m.3 199.7a6576 6576 0 00.5-198.3"/></g></g><path d="M81.1 18.4c31 3.7 65 .3 158.1 1.5m-158.5.3c45.8-.9 93.9-.1 159.8-.6" stroke="rgba(0,0,0,0.5)" fill="none"/><text x="160" y="40" text-anchor="middle" dominant-baseline="middle" style="transform-origin:160px 40px" fill="rgba(0,0,0,0.5)">Return address</text><path d="M80.2 60.7c36.6-.5 70.2.3 161-1.8m-160.9 2c37.4-1.7 75.9-1.7 160.4-.5" stroke="rgba(0,0,0,0.5)" fill="none"/><path d="M.7 59.3c153 1.8 308.7 2 430.2 1.5" stroke="rgba(0,0,100,0.5)" stroke-width="2" fill="none" stroke-dasharray="8"/><text x="160" y="80" text-anchor="middle" dominant-baseline="middle" style="transform-origin:160px 80px" fill="rgba(0,0,0,0.5)">Caller frame ptr</text><path d="M89.2 74.6c-11.5 1.3-19 .6-38.4 2m38.4-1.3c-10.9 1-23.3 1.3-38.6-.1m-.5.4c1.6-25.3-.6-52-.5-91.3m1 91c.2-27.8-.4-58.5-1.2-90.8m-1 1.3a153 153 0 0131-.6m-29.6-.7c9.2.2 18.6-.1 29.2-1.5m-.1 1.5c-2-2.5-7.4-5.9-8-7.5m9.3 7c-4.3-2.6-7.6-6-9.7-6.5m9.6 6.3a32.7 32.7 0 01-10 7m9.5-6.8c-2.6 1.9-6.8 4.4-10 6.6" stroke="rgba(0,0,0,0.5)" stroke-width="2" fill="none"/><path d="M80 99c60.9-2 123-1.5 158.8-.5m-158 2.4c58.2-.4 115.7-1 160.1-1.8M80 158.9c63.2 1.3 126.8 2.7 160.7 2M80 159.1c48.6-.5 100.1.1 159.4 1.9" stroke="rgba(0,0,0,0.5)" fill="none"/><text x="160" y="130" text-anchor="middle" dominant-baseline="middle" style="transform-origin:160px 130px" fill="rgba(0,0,0,0.25)">&lt;function locals&gt;</text><text x="160" y="180" text-anchor="middle" dominant-baseline="middle" style="transform-origin:160px 180px">Argument N</text><path d="M79.3 202c50.3-.2 98.6-1 159.2-2.2m-159.4 0c62.3-.4 125 .9 160.6-.4" stroke="rgba(0,0,0,1)" fill="none"/><text x="160" y="220" text-anchor="middle" dominant-baseline="middle" style="transform-origin:160px 220px">⋮</text><path d="M78.4 241.3c58.8-1.3 112.2-2.4 161.5-2.9m-160.2 1.3c38.5.6 76 1.7 160.5.1" stroke="rgba(0,0,0,1)" fill="none"/><text x="160" y="260" text-anchor="middle" dominant-baseline="middle" style="transform-origin:160px 260px">Argument 0</text><path d="M78 281.2c63.2-2.3 124.2-.3 163.4.2m-161.2-1.6c48.2-.4 95.4.3 160.7.5" stroke="rgba(0,0,0,1)" fill="none"/><text x="160" y="300" text-anchor="middle" dominant-baseline="middle" style="transform-origin:160px 300px">Return address</text><path d="M79.4 318.6c61.2 2.9 124.9 1 160 .4m-159.4.4c57.6.6 115.2.2 161 .6" stroke="rgba(0,0,0,1)" fill="none"/><path d="M.4 319.7c120 1.4 239.7 2.5 428.7-.5" stroke="rgba(0,0,100,0.5)" stroke-width="2" fill="none" stroke-dasharray="8"/><text x="160" y="340" text-anchor="middle" dominant-baseline="middle" style="transform-origin:160px 340px">Caller frame ptr</text><path d="M89.8 334.4c-10.5 2-23.3.4-38.7 3m38.9-2c-11.5.3-21.8 1.9-39.9 1.5m-1-.3c1.1-77.4.2-152.5-.6-253m1.2 252.1c2-62.9 2-126.4 0-252.3m.6 1.9C55.5 83.5 64.4 83 78 83m-28 1.6c11.8-.7 22.2-.5 30.2.1m-.4 0c-2.3-2-6.4-4.5-10.4-7.7m10.8 7.3c-2.1-1.6-4.2-3.7-10.6-7.7M81 83c-4 3-6 3.6-11.2 8.9m9.8-8.4c-3.4 2.5-5.9 5.4-9.5 7.9" stroke="rgba(0,0,0,0.8)" stroke-width="2" fill="none"/><path d="M81.7 358.6c60.8 1 121.6.4 160 1.6m-162.4 0c52.2.8 103-.3 161-.3" stroke="rgba(0,0,0,1)" fill="none"/><path d="M289.4 338.3c-14.5.3-27.7-.4-39.3 2.2m40.5-.7c-15 1-27 1.5-39.9 1m-1.3-1.2c3.3-2.4 4.7-3.6 11.4-6.6m-11 7.1a71 71 0 0010-6.9m-11 6c3.7 3.6 8.7 5.6 10.5 7.8m-9.7-6.9c3.6 1.5 6.4 4.7 10 6.7" stroke="rgba(0,0,0,0.8)" stroke-width="2" fill="none"/><text x="300" y="340" text-anchor="right" dominant-baseline="middle" style="transform-origin:300px 340px">Frame pointer</text><text x="160" y="380" text-anchor="middle" dominant-baseline="middle" style="transform-origin:160px 380px">JS Context</text><path d="M80.4 400.3c50.4-2 98.9.5 159.7.5m-160.6-1a8129 8129 0 00160.3 1" stroke="rgba(0,0,0,1)" fill="none"/><text x="160" y="420" text-anchor="middle" dominant-baseline="middle" style="transform-origin:160px 420px">JS Function</text><path d="M79.4 438.4c46 1.2 90.5 4.6 161.7-.2m-160.6 1c44.1.2 88.7-.2 159.2 1.7" stroke="rgba(0,0,0,1)" fill="none"/><text x="160" y="460" text-anchor="middle" dominant-baseline="middle" style="transform-origin:160px 460px">Argument count</text><path d="M79.2 480.8c43.5-1.3 89.8-1.6 160.9.2m-160-.3c38-2.5 76.5-1.5 159.8-.6" stroke="rgba(0,0,0,1)" fill="none"/><text x="160" y="500" text-anchor="middle" dominant-baseline="middle" style="transform-origin:160px 500px">Bytecode array</text><path d="M79.3 518.3c38.5 2.6 76.8 3.9 159.7 0m-158 1.4c55.6 1.3 111.5 1.7 159.7 0" stroke="rgba(0,0,0,1)" fill="none"/><text x="160" y="540" text-anchor="middle" dominant-baseline="middle" style="transform-origin:160px 540px">Bytecode offset</text><path d="M80.8 558.5c30 2.4 65.4 4 159 .6m-160.1 1.6c36.9-2.3 72.5-.8 159.6-.5" stroke="rgba(0,0,0,1)" fill="none"/><text x="160" y="580" text-anchor="middle" dominant-baseline="middle" style="transform-origin:160px 580px">Register 0</text><path d="M80.6 601.7c34.6-3.2 69.5-4.2 161-2.6m-160.8.7c39.6.7 81.5 0 158.3.2" stroke="rgba(0,0,0,1)" fill="none"/><text x="160" y="620" text-anchor="middle" dominant-baseline="middle" style="transform-origin:160px 620px">⋮</text><path d="M79.8 641c50.3 0 103.8.7 161.3-.8m-160.7.4c59.3.8 118.3.4 159.1-1.6" stroke="rgba(0,0,0,1)" fill="none"/><text x="160" y="660" text-anchor="middle" dominant-baseline="middle" style="transform-origin:160px 660px">Register N</text><path d="M81.8 680.2c40.9 1.4 84 1.9 156.3.1m-157.7.2c48.2-.1 95.6.7 159.5-1.2" stroke="rgba(0,0,0,1)" fill="none"/><path d="M78.9.8c48.1-3 97-1 162.1-.3M80.4.5c49-2 99.8-1.7 160.3 0m-.6-1c2 172.9 2.9 344.2-.1 680.3m0-680c-2.9 177.5-2.4 355.7 0 680.6m.8-.9c-44.7.7-86.8-.7-162 1.8m160.2-.9c-43.2-2.2-86.8-2.3-159 .2m-.3-.4A60244 60244 0 0179.5.7m.2 679.7c2.5-182 3-364.4.7-680.5" stroke="rgba(0,0,0,0.6)" stroke-width="2" fill="none"/><path d="M289.8 700.4c-12.5 1.2-24.4-1.3-40.1-.5m40.8-.8c-11.5 1.3-19.7.6-40.3 1m.2-1.1c1.8.4 4-2.6 10.7-7m-11.3 7.6c2.7-1 5.2-2.3 9.7-6.6M249.5 701.1c4.4 2.4 8.2 2.7 10 5.5m-9.2-6.7c3.1 2 5.5 4.5 9.3 6.8" stroke="rgba(0,0,0,0.8)" stroke-width="2" fill="none"/><text x="300" y="700" text-anchor="right" dominant-baseline="middle" style="transform-origin:300px 700px">Stack pointer</text><text x="160" y="700" text-anchor="middle" dominant-baseline="middle" style="transform-origin:160px 700px" fill="rgba(0,0,0,0.5)" font-style="italic">end of stack</text></g></svg>