<svg xmlns="http://www.w3.org/2000/svg" viewBox="-10 -10 450 600" style="width:450px;height:600px"><defs><linearGradient id="grad2" x1="0" y1="0" x2="0" y2="100%"><stop offset="0%"/><stop offset="100%" stop-color="#fff"/></linearGradient><mask id="m2"><path fill="#fff" d="M-10-10h450v600H-10z"/><path fill="url(#grad2)" d="M-10 5h450v48H-10z"/><path d="M-10-10h450V5H-10z"/></mask></defs><g class="frame" style="transform-origin:0 290px" mask="url(#m2)"><g fill="none"><path d="M79.7.4s0 0 0 0m0 0s0 0 0 0m.2 6.3c2.6-.9 4.7-2.7 6.6-6.9m-6.4 7.9c1.8-2 3.7-4.2 6.3-8M78 15c5-3.3 8.7-6.3 14.5-16.3m-13 16.9c2.8-3.3 6.9-7.9 12.7-15.3M80.6 22.8c5-5.8 5.3-8.2 19-25M80 23.2C87.5 14.3 94.2 5.6 99.4-.3M79.8 29.5C89.4 21.8 98.2 9.2 105.6.8M79.3 31.3A421.6 421.6 0 00106.8-.4M81.4 38c10.3-13 25-30.3 33.3-37.3M79.3 38.2c9.5-9 18-19.2 34.5-38.8m-34 47C96 28.5 112 11.1 118.6-1.2M80.7 46.7c13.3-17 29-35 38.6-47.4M81.5 52C95.8 35 117.1 12.8 127-1.2M79 52.7C91 41.2 101.8 28.4 127.2.9M81.3 59.6c19.5-22.6 39.8-44.2 51-58.7M80 61.3C91 48.8 102.8 34.4 132 0M81.8 69.3c20-27 43.9-49 56.3-71.4m-58.8 70c25-25.7 48.2-53 60.4-68.5M80.4 74.6C104 48.8 125 24.4 146.2-1.8M81 75.4c24.6-29.5 49-59 64.8-75.2m-64 84.2A1358 1358 0 01151 0M79 83.4c26.7-28.9 53.1-58.3 74.5-83M80 90.7c22.1-27 44.2-53 78.2-91.1m-78.9 92C95.8 73.4 112.3 53 159.5.7m-80.8 99.4c26.8-31.9 53-60 87.2-101.4m-86.4 101c33.6-37 65.8-74.9 85.8-99.6M78.2 106.7c39-41 72.6-81.8 93.6-107.2M79.2 106.8C106.5 78.5 129.7 48.5 172.5 0m-93 115.2C114.8 72.1 153.4 30.2 178.5 0M79.8 114.4c23.2-28.2 47.9-54 98.9-115m-98.5 124C114.2 84 148.1 46 187.5 1M79.8 122.8C103.4 94.3 128.2 67 185-.2m-103.7 129c26.2-34.3 54-66.6 110.9-127M79.7 130.1C115 91.6 148.3 52.7 193-.6M80.6 138.1c35-46.3 75.7-88.9 118.8-140M80.5 138C115.2 100.6 148.3 60.7 200 .8M78.4 146a8061 8061 0 01127-144.3m-125 142.6C128.4 87 178.7 29.6 205-.5M78 153.3c34.4-37.5 66.6-73.6 135.6-154.7M80.6 152C122.3 102.7 165 52.6 212.4 0M78.9 158A6099.1 6099.1 0 00220.1.6M80.6 159.2c44-51.8 88.7-103 138-158.5m-132 158.8c36.8-44 75.4-85.4 138-158.5m-138 159.3A4647 4647 0 00225.2 0M92.7 162C122 126.5 150.3 94.3 231.2 1.5M92.4 160.4c39.2-44.6 75.5-87.7 139-159.7M101.3 158.5C139.9 112.2 184 62.2 240.8.5M100 159c31.4-36 63.2-73 139-159.8M105 160.5C159.4 101.7 211.8 40.2 243.6 2M107.3 160.7a17426 17426 0 01136-157.2M112.5 159.6c37.4-43 75.4-87 132.4-151M112 160c32.8-35 65-73.5 131.2-150.4M120.5 159.4C153 122 188 79.9 244.7 17M120 160c38.6-42.9 75.5-88 123.7-141.9M127 160.5a4761.8 4761.8 0 01116-132.7M127.2 161c38.6-46.3 79-92.7 116-135M132.8 159c30.4-34 64.6-71.2 110.7-125.6M134.2 158.8C176 111.2 217.7 64 242.6 34M138.8 159c32.8-38.2 66.2-75.1 105-119.2m-103.4 121C180 115.4 219.1 69.5 244 41.6m-96.7 118l95.8-112.1M145.5 160c29.3-32.3 56.8-65 97.3-112.5m-91.2 112.6c22.8-23 40.3-49.1 90-102m-88 102.3c20.9-24.2 41.4-47.5 89.7-103.3m-85 104c29.8-31.4 55.3-62 84.3-96m-82.4 95.5c20-23.6 39.6-46.5 81.7-97.2M164.7 160c20.6-25.5 46.2-47.8 78.8-89.2m-78 89.4c29.5-34.4 59.7-70.2 78.7-88.3M173.7 159c13.7-15.9 27.7-34 71.2-79m-71.2 80.4c17.3-22.3 35.7-41.9 69.8-81m-64.3 80.2c21.3-24.1 45.3-49.8 62.7-73m-63 72.8c16.3-18.9 31.8-38 64.5-73.6M184 159.4c24.7-23.4 45.6-48.2 59.4-63.5m-56.8 64.8A3020 3020 0 00244 94.4m-50.2 67.3c12.3-15.7 23.2-30 49-60.2m-49.6 57.3c16.9-21 36.3-42.2 50.8-57m-46.4 57.5c13.5-16.2 28.7-31.5 44.3-49.6m-43 50.4c15.7-19.1 31.4-36 45-51.2m-38 51.7c12.7-14.6 23-26.5 36.9-44.2m-36.5 44.2c7.9-9.5 15-18.4 36.5-43m-31 42.3c7.4-8.7 14.1-18 33-33m-32.5 32.4c9.4-8 16.8-17.3 30.4-35.1m-21.8 36.6c5-7.2 8.4-11.2 22.3-28.6m-24.7 28.4c5.3-7.2 11.2-13.8 24.2-28.5m-15.3 28.1c1.7-6 8.5-11.8 16.6-20.7m-17.8 21c3.3-5 6.2-8.4 18-21m-10.8 20.9a41 41 0 0111-11.7M233 159.4c2.3-3.1 5.8-5.6 10.7-11.6m-5 11.9c1.5-.6 2.1-2 4.7-4.1m-4.2 4.7c1.3-2 2.8-3.5 3.6-4.5" stroke="var(--other-frame-bg)"/><path d="M80.4.9c34.8-2 71.6-.7 161 .5M79.2-.8c36.9 0 71.2.5 160 .8m1.7 1c.8 37.3.2 72.1-1.8 157.1m0-157.7c.2 33.5-.6 67.8 1.2 159.5m-2-.2c-54.7 2.8-113.7 1.1-157.7.6m158.5.7c-42 .6-83.4-1-158.2-2m-1-.3c1.5-60.5-1.1-120-1.5-158.6m.7 160.1c.2-58.2-.1-117.3.7-161"/><path d="M80.2 159.8s0 0 0 0m0 0s0 0 0 0m-.1 4.8c1.2-1.4 1.5-2.1 3.2-4.3m-3.7 4.4c1.5-1.3 2.2-2.3 4-4.5m-4.3 8.5c4.2-3.3 7-7.6 9.8-8.2m-9.3 8.3c2.8-3.3 6-5.2 8-8.3m-6.3 13.4c3.2-4.5 7-10 10.9-13.4M79 173.9c4.3-4.6 9.1-10 12.4-14m-11.3 17.6A95.5 95.5 0 0097 162m-16 17c4.8-6.5 10.8-13.6 14.2-18.7m-17 24.6a281 281 0 0021.8-25.3m-20.7 24.1c8.1-9.8 15.2-17 20.6-23m-21 27.5c11-11.7 18.5-20.2 23.5-26.8M80.5 188c4.8-8 12-14.7 23.3-27.9M82 192.5C91.2 180.3 98 170 109.5 162m-28.3 28.8c7-6.8 13.8-16.2 26.4-31.6m-26.7 36.2l29.6-35.2m-29.9 37.3C89 185 99.7 175.2 113.1 160m-33 39.2c12.7-11.6 24-27.2 34-37.3m-33.4 39.4c11-15.3 23.1-28.9 34.5-40.8m-34.8 46.3c6.4-10.6 17.2-19.4 40.5-46.5m-40.7 45.4c10.9-12 21.7-26.2 39.7-46.6m-41.6 49.4c14.4-11.9 26.7-29.1 45.2-50.1M80 209.8c9.5-11.3 21-24 42.9-48.9M81 215.4c9.1-13.9 22.8-28 47-54.2m-48.3 54c10.5-12.4 20.8-24.2 48.3-54.8M80 219.2c15.6-17.4 31.1-33.6 50.6-60.8m-50.8 60.3a955.7 955.7 0 0051.2-59.5m-49.5 64c11.6-13.4 24.8-26.3 54.6-62M79.4 224c15.5-17.5 32.3-36 56-63.3m-54.6 68.7c22.4-26.1 42.3-52.5 60.4-69.4M81 229.5c18.4-24.3 40-48.5 58-69.6m-58.8 73.6c19.3-23.5 41.6-46.9 62.6-72.6M80 233c15.1-18.5 31.8-35.2 63.2-72.5m-64.4 78.7c15.7-22.2 31-39 69.2-78.6m-67.8 77.4c27-29.5 52.4-58.3 68.3-78m-69 81c22.7-23.7 43.9-47.2 71.5-81m-71.2 82.7c16.8-19.3 31.5-37.1 71.5-82.5m-71.7 88.2c28-28.7 52.1-61.5 75-89.6m-75 87.8c18.6-18.4 34.9-38 76-85.9M80.8 251c26-29.4 53.3-60.8 77.4-92m-77.3 93.2c26.5-31.5 52-61 79.5-91.6m-80 94.4c19.8-25.3 40.8-48.5 81.2-93.5m-80.8 94.2c26-31.4 52.3-61.3 82.5-95m-81.5 100c26-32 51.6-59.9 86.1-102.4M79.2 261c25.1-30 50-57.1 88.5-101.7M78 267.3c25.4-29.6 52.8-59.9 93-108.7M79.5 265.5c22.2-26.5 46-54.3 91.5-105.4M79 268.4c30-34 60.3-66 96.8-108.2M81 269c28-32.6 55.5-66.9 94.4-108.4M78.1 274.3c24.7-30.4 53-58.5 100.7-114.2M80.2 275c31.9-36.8 62.8-73.4 98.3-115.3M82 277.2c23-27 50.4-57.3 101.4-117.2m-104 119.6c25-30.4 49.1-58.8 104.2-120.4M82.2 279.8c22.9-27 49-53.8 103.5-119M81.3 281.7c25.1-30.5 50.3-59.3 106.7-122m-102 123c32.4-40.8 67.8-78.8 104-122M85 281.2c24-26.8 49.2-55.3 106.3-122M90 282.6c35.4-43.8 71-84.5 104.5-122.8m-106 122c26.2-30 50.8-59.5 106.3-121.8M94.5 280.3c26-33.5 57.4-67.3 103-121.2m-103 121.7c26.3-28.5 50.5-56.6 104.9-120.3M99.8 282c25.7-33 52.2-62.5 104.6-121.4M96.9 280.9c40.6-45.8 82.7-93.2 106.4-121.9M100 281.1c43.4-47.1 84.3-95.8 106-121.4M101.1 281.1c36-40 73.3-82.4 105.3-120.2M105 279.4c37.2-40.5 78.3-87.2 107.9-120.7M105.4 281.5c41-44.3 79.7-88.6 106.8-121M109.3 282.2c24.7-31.9 52.8-61.3 106.1-122.8m-107 123c37.7-46.8 76.6-89.6 106.2-121.9m-99.3 121.5c33-37.9 66.4-77.7 104.2-123.3M113.8 281.6c34.4-40.3 67-79.9 105.4-122M116.8 282.9c32.4-38.9 64.4-78.2 107.6-124.6m-106 123.1c29.2-33.8 59.3-69 104.3-122.3M121 282.4c26.3-32.2 56.6-63.3 105.9-123.8M120.8 281.8c21-26 44-51.8 106.8-120.7m-101 119c40.3-46.1 82-94.3 105.6-121.1M125.6 282c21-23.4 42.9-49.5 106-123M127.3 282.5c46.1-50 84.8-97 107.1-121.6M129.8 282.4c29.7-34.8 61.5-70.1 105.8-122M131.6 283c34.7-45.3 73.8-86.8 108-121.1M134 282c25.2-28.7 50.9-57.1 105.8-121.7M138.1 283c21.4-29.8 46-58.6 103.6-123.2M137.2 282c25.7-29.1 51.2-59.3 104.2-120.1M140.1 281.4c39.2-46.2 80.7-90.8 103.2-115.3m-102.8 116c23.7-26.6 46.1-54.5 100.7-115.2m-94 116c26.4-35.7 54.4-68.5 95.3-113m-97.3 111.7c33.5-38 67-78.5 96.8-111.9m-91.2 112.1a3205 3205 0 0091-106.6M148.2 281c21.8-25 46-50.9 92.9-106m-89.5 106a2491 2491 0 0089.7-100.3m-88 99.9c19-19.6 37.9-41.4 88.2-101.8m-84.2 101.4c26.3-25 47-52.5 83.2-95.9m-84 96.5c18.5-21.8 39.3-43.4 85.6-96.2m-80 98c23.3-28 46.4-56.3 81.4-93.5m-83.3 92.6c21.2-22.4 40.4-45 81.8-92.2m-77.9 93.8c20-24.6 41.4-51 77.9-92M164.5 282c25.3-27.2 49.3-56 77.5-89.2M171.3 281c15.8-21.3 34-43.1 72.2-81.4m-74.5 82c22.3-27.6 45.6-52.9 72.7-84M174 283.3c22.7-26.2 41.6-51 66.2-80.4m-67.4 79.6c20.3-23.8 41.7-48.7 69.5-79.3m-66.5 77.6a974 974 0 0067.8-74.7M177 281c13-14.8 27.5-30.3 65.3-73.4m-62.5 75.8c19.2-21.8 35.3-42.7 62.3-73.1m-60.6 70.6c15.4-16.8 32.9-36 61.1-70.2m-58.2 69.8c17.7-22 38.4-41.7 56.9-65.4m-56.2 66.5c21.2-24.4 43.3-49.2 57.2-64.4m-54.6 63.4c20-23 38.4-41.8 55.7-60.2m-53.7 60.4c13.1-16.3 27.6-34.2 52.2-60m-51 59c15.2-11.8 28.4-27 50.4-53.6m-48.7 55.4c17.8-19.5 34.9-39.4 48.3-56.1m-43.3 54.1c9.6-10 17.3-22.2 44.7-51m-44.9 53c12.3-13.8 24.6-29.5 43.7-52M199 283c11.3-11.7 21.4-24.4 42.7-48.8m-40.5 48c11.6-15.6 26.5-31.2 39.9-47.1m-35.4 45.8c13.2-13.6 27.7-31 37.3-40m-38.8 40.7c11-12.3 23.6-26.1 38.5-43.1m-32.3 44.3c9.5-10.1 16.8-22.1 30.7-40.8m-31.5 40c5.4-8.5 11.7-15 32.2-38.8m-29 37.8c8-8.8 16.8-18.4 27.9-31.7m-27.4 32.6a305.5 305.5 0 0027.4-33.9m-21.9 32c6-5.8 9.4-12.3 22.7-26m-24.2 27c8.8-11 20-21.4 24.4-28.2m-19.4 29.7A54 54 0 01242 259m-21.3 23.5c5.6-7.6 12.1-17 20.5-25M223.6 281c8.3-5.7 10.8-10.3 16.5-18.2M225 282c6.8-6.9 12.4-16 17.4-20.8m-12.7 20c1-2 4-7 13.3-13m-14.7 12.3a61 61 0 0012.9-13.5m-9.1 15.4c2.6-4.6 7.5-9.2 8.6-12.3m-8.9 11.4c3.7-3.2 6.3-5.3 10.4-10m-5.6 10l5.3-5.4m-5.2 5.2c1.8-1.6 3.4-3.5 4.6-5.2" stroke="var(--js-frame-bg)"/><path d="M81 158.5c63.1 2.8 122.5 1.1 157.6 3m-158.7-2c55.6 0 110.8 1.2 160.6 1m.1.7c1.1 23.8-.5 51.2.6 120.4m-.8-122.5c-.1 35.8-1.4 70 .2 121m-1.9.3c-35.3-1.3-66.6 2-159.7.8m161.1-.4c-40.8-1.2-83.2-1-161-1.8m.6 2.4c.8-41 .6-82.2-1-120.5m2.2 119.8c-.2-25.2-1.2-50.4-1.4-120.9"/><path d="M79.9 280.1s0 0 0 0m0 0s0 0 0 0m.3 4.3a34 34 0 003.9-4.7m-3.6 4.6l3.4-4.3m-3.6 8.4c2-3 5.3-5 6.9-7m-7.4 7.8c3.2-2.6 5.7-6.7 7.8-9.5M80 294.5c4.2-5 7.5-9 10.3-14.3m-9.8 13.6a45.2 45.2 0 0110.7-13.2m-11 19.3c1.9-7 8.8-11.6 17.6-19m-17.6 17.4c3.6-3.8 7.4-9.9 16.3-19.1m-16.3 24.1c2.9-5.4 9.1-9 19.4-21.2m-20.3 21c6.7-9.5 15.2-18.2 20.3-23.5m-19 29.2c5.4-5.2 8.7-10.8 23-27.4m-23.4 26.3c5.6-8.9 12.5-16 23-27m-23.5 32.7c5.5-7.2 11-15 27.6-31.4m-28 30.2c10-11.4 20-22 28.6-31.5m-27.5 34.9c7-8.5 11.8-16.3 30.2-37.5m-31.3 39c7.2-8.2 16-18.3 32.2-37.6m-31.5 42.4c8.3-13.6 19.5-21.7 35.5-43.8m-35.4 44c10.1-13 19.7-24.9 36.4-42.7m-36.8 45.9c17.2-17 29.9-34.1 40.6-43.4m-41 43.5c12.6-15.6 26.2-28.4 40.1-44.5m-39.3 50.2c17-18.3 32.1-38.8 45.2-50.1m-46 49.5c16.2-18.5 32.5-35 44.4-51.2m-45 54.1c16.3-17 34.8-34.9 48.5-52.5m-46.6 54.7c15.1-19.8 32.4-38.3 46-54.5m-48.2 57.8a3977 3977 0 0051.6-57.3M79.8 339C95 320.5 110.6 303 132.5 280m-52.8 63.3c15.7-16.6 29-29.1 54.7-65m-54.7 66.5c18.2-22 38.3-42.7 55.4-65M78.5 350c21.2-26 44-50.3 62.1-69.3M79.3 348c23.8-26.9 47.1-54.2 61-67.4m-60.6 72.5a934.9 934.9 0 0163.2-71.5m-62.1 70.7c20-24.4 40.5-47.5 62.3-73.1M78 357c24-25.4 49.6-54.7 70.3-76.6M79 359c15.7-17.2 30.5-34.5 68.8-78m-65.3 79.4c16-20.7 33.6-38.2 68.8-78.2m-70.5 78c21-23.5 42-45.8 71-81m-67.5 81.3c22.6-26.9 49.5-51.2 70.2-79.4M84 362c15.8-18.8 30.5-36.4 72.5-81.7m-66.7 82.5c21.8-25.4 38.5-48 70-82.6M88.2 361c17-17.8 34-37.5 70-80.4M94 361c22.6-26.2 48.4-57 69.8-81.8M94 360.8c17.9-23.7 39.2-45.9 69.9-81.5m-66.7 81.1c23-25.1 43.8-52.6 72.2-82.5m-71.7 84.2c20-24 38.9-44.8 69.1-81.6m-64.4 82c14.6-17.3 27.2-33.6 68.2-84m-70.2 83.2c20.8-23.5 41.3-47.7 70.6-82.1m-66.4 81.3c25.3-26 48.9-54 72.1-79.6M104 361.7c28.1-31.2 55.8-62.6 72.6-82.6m-69.4 81.4c17-16.6 33.7-35.3 71.8-79.5m-69.2 80.3c19-23 38.7-44.5 69.1-81.8m-67 81.3c15.3-16.7 34-36 69.5-79M114 360.5c26.2-29.5 50.6-60.3 69.3-80.7m-68 81.4c17.7-17.1 33.7-33 72-83.6m-69.6 83.7c28.4-32.3 55-63.6 70-82.2m-65.1 81c26-32 54-60.1 68.2-82m-69.4 82c14.3-16.4 27.7-31.6 70-79.4m-65 81.9c15-18.2 29-34.7 70.7-81.6m-71.6 79.7c16.8-21.4 35.9-43 69.5-81.7m-64.4 81.2c12-16.2 29.7-34.7 70.3-81.6m-72.2 82.7c21.3-26 45.1-52.4 69.5-82M133 361.7c17.6-20.5 37.4-42.5 69.4-80.1m-69 79c21-24.1 40.7-47.2 70.5-81M137.5 360c20-20 39.3-44.3 70-80.2m-70.3 81c13.7-17 29.6-34 70.5-81.4m-68 80.3c25-26.8 50-58.2 71.7-81.1m-71.5 81.8c18-19.4 34.6-38.8 71.5-79.4m-67.2 79.7c16.6-22.2 37.2-41 71.6-81.4m-71 80.6c22.7-23.7 43-47.7 71.3-79.8m-67.4 82.4c28-30.9 51.4-61 68.3-80.2m-67.6 79.3c27-31.5 54-62 69.1-80.5m-64.9 80c15-21.3 33.2-39.6 67.6-80M152 360.6c21.4-24 44.2-48.7 71.6-79.6m-67 79c20.2-23.6 44.7-49.8 70.8-79.4m-70.2 81.5c28-33.8 55.4-65.6 69.4-83.2m-64.9 82.6c25.6-28.3 48-60 68.8-82.5M160.8 362c26.8-32.1 54.8-64 70-80.9m-64 79.2a904.5 904.5 0 0167.6-81m-70 81.2a1086 1086 0 0070.2-80M170 360.7c12.4-15.2 29.4-32.1 67.1-79m-68.5 80.2c18.3-21.3 38.7-44 70.4-81.1m-66.3 81.5c20.2-22.4 38-46 67.1-82.6m-67 81.4c24.8-28 48-56.4 68.2-79.2m-64 77.4l63.5-74.5m-65.1 76.9c20-20.7 39-44 66.6-76.8m-62.5 77c24.8-28.9 47.8-54 62.3-72m-61 70.6c16.3-16.9 33.9-35.7 60.3-68.8m-57.5 70c16.7-20.6 33.8-37.4 60-67.4m-58.8 66.9c21.6-25 43.5-51.2 56.2-66m-52.2 65.9c16.7-19.8 32-37.2 52-62.2M189 361.2c12.4-15 26.5-32.2 51.7-61.4m-49.5 61.3c14-12.9 23.5-27.7 51.7-56.8M193 360.5a794 794 0 0148.6-55.9m-46.5 57.1A2949 2949 0 01243 309m-46.6 53.1c18.2-21.8 34.3-40.3 44.6-53.5m-41.2 52.6c12.3-13.1 22-24 41.5-46.9m-40.6 46c14-15.8 29-33.4 41.6-46.8m-35.9 45.4c13.7-13.8 30.6-31.3 36-42M204 361.3c13.6-14.1 25.1-29.5 38.7-44m-36 43.4c11.9-11.4 21.9-23 37-39.6M208 360.9c7.7-8.4 13.5-15.8 32.9-38.2m-28.5 39.5c8.7-11.2 15.8-16.3 30-33.8m-29.7 33.1c9.9-12.8 20.5-25 30-33.6m-26.7 33c5.4-6 10.6-12.5 25.1-27.7m-25.7 27.4c8.3-7.3 16.8-17.8 26.8-29.1m-22.4 29.4c8-6.4 14.7-13.5 23.9-23.8m-23.3 23c4.6-3.2 7.9-10 21-24.2m-17 23.3c7.4-4.5 14.4-15 15.6-17.3m-14.7 18.4c4.3-4.8 7.7-10.6 17-19.5m-13.8 22.1c6.7-7.1 9.3-15.9 12.9-15.8M227.7 361c4-4.8 8.4-10.4 13.3-15.6m-8.6 15.8c2.6-3.7 6.6-7.2 10.4-11.7M232.1 361l9.5-10.3m-5.6 10.9c1.3-1.5 2.2-3 5.2-7.4m-5.7 7.2c2.7-2.4 4.5-4.8 6.5-6.6" stroke="var(--machine-frame-bg)"/><path d="M79.9 278.5c49.7 2.7 104 .6 159.6 1m-158.7.3c51.7 1.5 102 1.8 159.7.3m-.7 1.3c-.5 20.5.1 44 1 78.7m-1.6-81c1.2 24.4 1.6 45.8.6 81.1m2.1 1.7c-43-4.4-82.6-1-161.3-.5m159.5-2c-49.8-.7-99.5-.7-160 0m.8-.8c-.3-17.2.8-37.8-.9-77.6m-.5 78.4c.7-17 .2-37.3.4-80.1"/><g><path d="M80.1 359.8s0 0 0 0m0 0s0 0 0 0m-.8 5.2c2-1.2 2.7-3 3.9-4.8m-3.3 4.7l4-4.6m-4.6 8.4c2.6-1.3 5.6-4.8 8.4-7.7m-7 8.6c.6-2.8 2.2-4.7 7.8-9.2m-8.3 13c3.3-2.9 9.2-10.2 13.7-13M80 373c2.9-4.2 7.3-7.5 12.3-13.8m-10.7 19.5c.2-2.9 6.6-8.4 16.1-20.3M81 378.7c5.6-6.7 11.3-15.8 14.7-17.6m-15.3 21.8c4.8-4.8 9-9.7 18.9-24.2M80 383.3c6.5-7.7 11.7-15.5 19.8-23.3m-20.5 26.8c7.9-7.8 14.7-15.9 24.6-25M80.4 387c6-6.4 10.2-12.4 22.6-26.2m-21.6 32c7.6-12 19-22.2 24.8-33.4M80.4 391c7.1-9 15.2-18 27.4-30.2M80 397.6c8.2-11.6 19.7-23.7 30.4-38.1M79 397.3c13.5-13.1 25-26.7 32.6-37.9m-32.4 42.2c10-9.9 18.4-17.8 35.5-42m-34.6 40.6c8.1-8.3 17.4-19.9 34.7-40.1m-33 46.7C92 390.3 105.4 378 118 359.2m-37.8 46.6c10-13.2 21-24.7 40.3-46m-41.7 50c10.9-13.2 20.6-25 45.3-47.7m-45 47.3a935 935 0 0044.2-49.6m-43.4 57c19.3-23.2 35-44.8 45.8-56.8m-46.4 54.3c17.5-17.7 35-37.8 49.3-54.1m-49.7 57.5c19.3-18.5 34.3-39 51.3-59.6m-49.9 60.8c13.3-13.7 24.4-29.1 51-59.6m-51.4 65.4c22.1-22 39-45.8 53.7-65.8m-53.2 65.4c22.2-23.9 43.6-50 55.4-64.8m-57.4 71c13.5-17 28.7-30 62-69.2m-59.6 67.3c15.8-20 32.2-37.7 59.3-69.3m-61.4 73.4c18.1-17.9 34.4-36 65-73.5m-62.9 74.6c25-28.9 50-58 62.3-75m-64.4 80.5c22.2-22 39.3-45.5 66.8-79.4m-65.2 78.6C103.5 410.3 127 383 147 360m-65.4 80.4c14.8-14.3 29-35.5 68.4-81.8m-70.2 82.8c26-28.7 52.3-58.7 72.4-81.3m-71.8 85.7c16.7-20.5 37-42 76.9-86.2m-77.4 88.1c30.5-35 59.2-69.3 75.8-88.2M80 449.8c20-23.4 43-46.9 80-89m-78.9 90c22.6-25.3 44.7-53.4 77.4-90.6M78.7 458c16.6-23.4 38-42 84.4-98m-82.8 97.2c33.6-39 65.6-76.7 83.8-96.8m-82.8 101c19.8-27.2 44-57 87.2-100m-88.7 98.9a1524 1524 0 0086.7-101m-87 107.3c36.2-42.2 72.6-85.8 91.6-108.2M79.3 464.9c31.6-35.9 63.1-74 91.7-104.4M81.4 471c19.9-28.5 45.2-52 95-110M80.2 469.5c29-35.7 60-69 94.7-108.5M78.4 474.3c22.1-26 48.2-54.4 101.5-115.6m-100.1 116c33.8-37.4 64-73 100-115m-101.2 119c24.2-24.4 42.3-50.5 105-120.3M79.1 478.2c31.2-32.7 59.2-65.5 103.7-117.6m-100 120.1c22-25.5 41.5-50.7 105.7-120M82.4 481c24.9-29.6 51.8-58.4 104-119.8m-102 121.4c41.4-45.4 82.3-92.8 108.6-123.8m-107.6 123A7945 7945 0 01192 360.6M90.6 479.9c22.9-25.7 47.9-52.9 104-120M89.7 482c22.3-25.9 46.1-53.1 106-120.8M95.2 479.8c32.6-38.6 70.3-79.8 105.2-118.9M94 481c32.5-37.5 67.1-78.2 105.7-121.7M99.4 480.7c42.9-47.5 84-93.3 103.9-121m-106 122.2c38.4-44.7 78.3-88.6 105.6-122.2M102.1 481.5c40-48.1 82.5-94 104.4-123m-105 124c21.3-26.8 43.3-52.1 105.5-122.1M104.6 483.3c39.5-48.1 76-92.2 106.4-122M106.5 481.8c33-39.2 67-77.2 105.7-122.4m-104 122c25.4-28.6 50.7-58.4 107.5-120.2m-105.8 120c34.3-39.5 70.4-80 105.8-120M114.2 481.3c25.1-32 56-63.4 106.6-121.1m-107 120.3c41.6-45.4 82.1-94.5 104.6-120m-99.1 120c31.4-35.9 61.1-71.4 103.7-122.6M117.3 480.7c23.5-25.2 45.1-50.2 106.7-121.8M120.7 480.1c22.8-24.5 45.8-46.5 104.3-121.2M121.5 482.7c32.6-37.4 62.5-72.5 104.7-122.9M126 483.4c38.8-44.6 76.6-87.8 106.1-124.4M125.8 482a3592 3592 0 01104.5-122.9m-99.3 123c38-44.5 79.8-89.3 102-119.8M129.5 480.7c37.4-44 77.2-89 105.5-120M133.4 481c37.5-43.6 74.4-87.9 107.2-122.4M133.2 482.4c34.3-41.5 68.4-82.1 105-121.6m-98.8 121.8c37.3-44.9 74.5-90.5 101-120.9M137.8 481.8C171 443.1 203.3 403 241 361.5m-98.1 122.2c36.5-46.3 77.7-92 98.7-119.3M142 481.3c38.6-43.4 75.6-87.4 100-115.2M145 480.8c23.8-25.8 46-47.4 94.8-109.3m-94.2 110.3c26.2-31.6 54-62.5 97-111.3m-92.1 111.8c17.6-26.6 38.2-50.5 91.4-107m-93.1 106a3216 3216 0 0093-106.5M153 480.4c18.8-21.4 37.4-44 87.4-100.3m-87.7 101.1L241.2 379m-83 104c26-28.2 51-58.7 85.2-100m-86.3 97.4c29-34.2 60-67.5 85-95.4M160 481.7c21.2-24.4 41.3-47.3 82.3-91.9m-82 92.9c31-34 59-67.7 82-94.6M165 482.4c29.6-35.3 56-65.4 77.9-89.5m-77.4 88c15.2-18.7 31.9-36 76.8-86.7m-73.8 88.6c21-25.4 45.4-49 74.9-84.9m-74.2 84c19.2-22.7 39.7-45.8 72.7-83.5m-67.6 82.2c16.5-21.7 37.3-43.4 67.5-80m-68 80.7c24.3-27.6 48.3-53.4 68.1-78.9m-65 79.2c25.6-29 52.3-60.4 62.6-74.8m-63.2 75c26.2-28.2 48.8-57.4 64.4-73.4m-58.6 75.3c12.3-16.5 25.3-32.8 58-70.1m-58.4 67.8c13.6-17.1 28.7-33.8 60.8-69.2m-58 70.2c22.1-25.1 40.9-47.5 55.6-66m-55.5 64.4c16.1-16.1 30.4-32.7 57.5-63.9m-51.6 63.4c10.2-14.3 24-28.1 52-60.1M188.8 482c16.5-20.4 32.7-37.8 52.2-61.7M194.8 483c10.5-17 28.4-34.1 44.6-58.6M192.6 482c12.6-15.4 24.5-28.2 48.8-56.6m-44.6 54.3c15-17 29-33.8 44.7-47.6M197 482.4c13.8-16.1 28.4-32.8 44.7-52M199 483.4c13.2-12.7 20.7-25.9 42.8-50.3m-42 48.4c12.6-12.6 23.6-26.4 41.3-47.3m-35.6 48.2c13.7-17 28.2-35.8 35-41.5m-35.7 39.8c11-11.5 22.5-25.2 37.6-42.5m-33.6 43c6.3-7.7 15.6-17.7 31.7-37.7m-32 37.3c12.2-13 24.3-25.6 33.9-36.6m-31 35.7c11.8-7.2 20.4-19.9 31.4-32.8m-30.2 33.6c8.1-7.6 14.6-14 29.5-32M217.5 480c6-9 17-15.4 24.8-28.3m-25 30.6c7.3-10.7 17-20.6 24.6-30.1M220 481.8c8.3-7.6 16.7-19.1 22.1-24.3m-21.5 23.8c6.3-7 13-15 20.4-22.6m-14.5 24.7c2.9-8.8 8-11.3 16.3-22.3m-17.6 19.5c4.7-5.8 10.8-11.5 16.6-19.2m-11 19.6c1.8-5.5 8.8-11.7 9.3-14.4m-10.7 15.6c2.3-4.4 5.8-8.9 11.2-14.4m-7.7 14.5c2.8-3.3 4.7-5.2 10.1-9.8m-10.2 9a90 90 0 019.3-9.8m-5 9.3c2-2 2.8-3.6 4.1-5.5m-4.3 6.1c1-1.5 2-2.6 4.8-5.3" stroke="var(--js-frame-bg)"/><path d="M79.6 360.3c53.6-.2 111.8.5 160.8-1.2m-160.9 1.4c42.7.4 85.5-.7 161.4-1m-2.7 1c2.8 27 .8 52.9 2.8 118.7m-1.6-118.3c1.2 42.2.4 84.4.5 119.4m-1.8 1.1c-52.5-3.1-109.2-1.1-157.2-2.2m159.2 1c-43.8 0-86.8-.8-160.1-1m-1.6-.5c1-44.5.7-92.2 1.5-117.2M79.2 481c.4-38.4 1.3-74.3.4-121.1"/></g><g><path d="M79.9 480.2s0 0 0 0m0 0s0 0 0 0m.4 4.4c.5-1.2 1.8-2.6 4.3-4.5m-4.2 4.2l3.7-4.6m-4 10.6c2.5-3.8 5.9-8.3 7.8-9.3m-7.7 8.3c1.3-2.2 3.3-4.6 7-8.7m-5.5 11.7c2.7-1.8 5.3-5.4 10.7-12.4M80 493.2c3-3 5.7-5 12.7-12.7m-13.1 19.8c4-8.1 10.1-10.5 16.5-19.2M79 499c7-7 13.8-15.3 16.8-18.6m-16.4 23.6c6.4-11.5 14-18.5 19.4-25.1m-18.1 23.8c7.1-7.7 12.7-14.5 18.4-22.2m-17 26.7c7.5-10.4 16-18 20.4-26.3m-22 26.2c7.2-8.2 14.9-19 23.7-26.6m-22.9 29.5c5-8.4 13.8-15.4 25.1-29.7M79 512.3c12-12.9 22-23.6 29.2-32.3m-29 37c14.3-12.7 24.7-28 33-35.5M80.3 517c6.8-7.8 12.5-15.8 31.6-37.9m-33.4 42.2c9.7-7.6 16.8-17.8 37.5-40.6m-35.7 40a768 768 0 0135-40.6m-37 46.1c15.2-17.4 30.7-35 42.6-47M81 525c10.6-12.5 22-24.9 38.2-44.2m-37.8 50.1a292.1 292.1 0 0143-51m-43.9 51.4c12.1-15 25.5-30.6 44.2-51m-46 53c18.3-16.2 32.8-33 51.1-52.2m-49.2 53.5c11.7-12.4 21.8-25.1 46.5-55.3m-47.4 62.4c15.3-20.4 32.8-40 52.1-63m-53 61.5c14-15 26.8-29.1 52-59.7m-48.1 62.8a582 582 0 0154.8-65.4m-55 64.4c12.5-14.4 25.8-29.3 53-62.9m-48.7 61.4c9.7-13.2 22.4-24.6 51.1-60.6M86.3 541c18.4-21.5 37.3-43.9 53.2-60.2m-50.8 59.3c16.7-16 28.9-30.4 56.3-61m-55 62.3c19.5-22.2 38.7-44.3 54-61.5m-48.4 63.2c17-23.3 38.3-47.2 50.5-61.9m-51.4 60c13.9-15.2 26.6-29.9 52.7-62.5m-50.3 64.8c15.6-21.9 35.6-42.5 55.1-64.6m-54.5 62.6c14.3-16 28.1-31.4 54-62.2M101 542.4c11.5-14.2 24.3-25.4 54-62.7m-54 62.5c17.3-19.4 32.6-38 55-62.5m-51.7 63.6c14.5-17.2 26.5-33.6 56.6-62.5m-55.6 60.7c16.8-17 31.7-33.8 53.2-61m-47.5 60.3c8.6-10.1 20.8-24.5 53.7-60.2M109 542.2c21.2-22.8 39-43.7 54-61.7M113 540.7c15.7-18.9 36-39 55.2-62.9m-54.4 63.9c17.3-21 35.9-39.6 53.4-62.2m-49.5 63c11.4-14.6 22.4-28 52-62.8m-53 61.9a956 956 0 0054-61.8m-47 60c20.3-23.4 40.4-44.7 53.7-58.2m-55 59.7c11-13.1 24.7-27.6 53.6-60.7m-49.3 62.6c9.8-13.4 19.6-27.5 53.7-63.1m-54.8 61c14.5-15.3 29.7-33.4 52.8-60.3M131 542.2c10.2-13.7 19.5-26 51.2-63.7m-52.7 63c10.3-11.1 20.7-25.2 54.4-60.9M134 542c20-20.5 35.4-41.1 52.5-60.2m-53.2 59.6c19.6-22.2 39-44.2 54.6-61.5m-50.2 63c22.3-26.3 39.8-50 54.7-61.5m-55.8 60.5c16.6-17.1 31.5-34.1 55.5-61.9m-50.8 63.5c21-27 40.2-47.5 53.4-63.7m-52.4 61c16.5-18.5 34.2-38 53.8-60.3m-49.7 60.8c11-15.3 26.7-31.2 54-59.9m-53.6 61c19.9-24 42.6-48.8 52.9-62.3M151 543c15.3-21 31.7-38.7 52.3-62.5m-53 62.2c14.9-17.2 30.6-35.6 52-63M155 542.1c12.5-14.4 24.3-29.4 53.5-61.9m-54.7 61.6c19.7-22.6 41.7-47.2 53-62.6m-50.6 64.4c19-23.4 38-46 55.1-64.8m-53.2 63.4c18.2-22.2 39.1-46.2 52.2-63M162.8 540c19.8-22.8 41.2-45.9 51.6-58.8m-52 59.7c12.1-13.3 23.9-27.6 53.8-61.2m-49.8 61.6c21.2-24.7 42.2-46.6 50.7-61m-51.3 60.3C178.6 525 193 511 218.5 480M168.7 543a771.4 771.4 0 0054.1-64.4M169.3 541c18.6-21.2 38.4-42.9 54.7-61.9M172 543.3c13-17 25.6-29.5 56.9-62.8m-55 61.2a718.7 718.7 0 0154-61.3m-48.2 60.2c18.7-20.8 33.4-41.2 52.6-61.4m-54 62c11-13.3 22.2-26.5 53-60.4m-51.7 59.3c15.7-12.9 30.2-30.7 57.2-61.5m-55.9 63.3c17.4-19.7 35.8-40.4 54.8-62.5m-49.1 62.8c20.5-25.3 37.8-48.7 54.4-62m-56.3 60.6c21-22.6 39.3-44 54.2-60.2m-49.1 62.5c17.9-22.8 35-42.1 52-60M189.2 543c14.8-17.5 31.3-36.4 51.8-61m-46 60.9c7.8-14.1 20.2-30 48.5-56.1m-50.7 54.5c12.2-11.4 22.8-24.5 48.4-55.2M198 539.5c12.8-17 30-32.1 44.1-47.4m-45.3 49.6c16.3-16.7 30.6-34.5 44.1-51.2m-41.4 53c16-19 30.4-35.7 43.4-47.4m-41.7 46.3c11.8-13 22.8-25.5 41.6-46.8m-37.4 47.6c8.8-15.5 22-25.6 37.6-43.1m-37.5 41.4c7.7-9 14.5-17.7 36.2-41.7m-34 42.9c11.6-14 23.7-24.1 32-38.7m-30.5 38c8.3-11 16.5-19.3 32.6-38.6M214 540.8c6-5.8 14.1-15.1 27.1-32.7m-28.7 34.2c9.5-11.2 18-20.3 28.8-32.6m-22.7 33.6c4-11.5 11-16.8 22.2-30.9m-23.2 29.4c6-7.2 12-14.1 23.8-27.3m-21.4 27.8c5.8-4.2 10.2-12 23.5-25.9m-23 26.2c8-9.3 16.6-20 21.5-24.9m-17.2 22.8c6.5-5.5 10.8-13.1 17-19.4M226 540.9c4-4.1 6.3-8.2 16.2-19m-12.6 20.2c3.9-3.2 3-4.8 13-13.2m-13 12.4c3.4-4.8 8-9 12-13.8m-7.5 14c3.3-4.7 4.8-8.1 8-9m-8.6 8.8c2.2-2.4 3.9-4.7 8.4-9m-5.2 9.6c2.1-1.5 1.9-2.2 4.9-6.3m-4.1 5.9c1.4-1.9 3-4.2 4.1-5.5" stroke="var(--machine-frame-bg)"/><path d="M78.2 479.3c61.2-1 120-2 162.6 2.5m-161-.9c32.8-.4 66.9-1.2 159.5-.2m2.5 1.2c-2.8 18.6-1.3 36.7-.5 58.4m-1.5-61.3c-1 19.3-.5 37.5-.2 61.3m.9-1.4c-36.1.9-69.8.6-160.4.1m159 .6c-34.8 1.2-70 .3-158.1-.4m-2.6 1.5c-.2-17.7 2.9-30.8.7-61m.2 60.4c.8-17.2-.7-33.8.6-59.7"/></g></g><path d="M79.9 19c52.9.5 107.5 1.5 159.4 1.4m-159-.2c39.5-2 77.8-2 160.4-1" stroke="rgba(0,0,0,0.5)" fill="none"/><text x="160" y="40" text-anchor="middle" dominant-baseline="middle" style="transform-origin:160px 40px" fill="rgba(0,0,0,0.5)">Return address</text><path d="M81.1 58.4c46.4 1.6 89 1.9 160 0M80.7 60.2c51.2-.2 102.7-.3 159.3-.7" stroke="rgba(0,0,0,0.5)" fill="none"/><path d="M.9 60.8c153-2.2 308-1 429-1" stroke="rgba(0,0,100,0.5)" stroke-width="2" fill="none" stroke-dasharray="8"/><text x="160" y="80" text-anchor="middle" dominant-baseline="middle" style="transform-origin:160px 80px" fill="rgba(0,0,0,0.5)">Caller frame ptr</text><path d="M88.2 76.8c-7.2.7-18.9-2.5-38.1-.5m40-1c-14.3 0-28.4.3-40.8.9m-.5.5c3-27.3 1.3-55-.4-91M50 75.7c-1-30.8.3-62.2-.9-92.7m-.8-.8c15.1.3 25.2 1.2 33 .4M50-15.5c9.8-1 20.3.3 30.5-.2m-.2 0c-4-2-8-5.8-10.8-7.8m10.4 7c-4-2.4-8.4-5.5-10.2-7m9.5 7.7c-2 1.2-3.2 3.2-9.6 7M80-16.4c-2.7 2.4-5.2 3.2-9.8 7.5" stroke="rgba(0,0,0,0.5)" stroke-width="2" fill="none"/><path d="M79.5 98.7c38 2.6 71.5 2.7 159.2 1.5m-158 .5c56.2.3 113.6-.6 159.4-1M79.5 158.8c60.5 4 116.5 2.1 159 2.9m-159.2-2.3c57.3 1 114.5.2 160 1.3" stroke="rgba(0,0,0,0.5)" fill="none"/><text x="160" y="130" text-anchor="middle" dominant-baseline="middle" style="transform-origin:160px 130px" fill="rgba(0,0,0,0.25)">&lt;function locals&gt;</text><text x="160" y="180" text-anchor="middle" dominant-baseline="middle" style="transform-origin:160px 180px">Argument N</text><path d="M81.6 200.6c52.6-.4 105.1 0 159-1.3m-160.5.6c64.5.4 127.5.6 159.1 1" stroke="rgba(0,0,0,1)" fill="none"/><text x="160" y="220" text-anchor="middle" dominant-baseline="middle" style="transform-origin:160px 220px">⋮</text><path d="M81.4 238.5c40.3 2 81.8 1.7 159.4 2m-160.5-1c41.5-1.6 83.3-1.3 158.8.2" stroke="rgba(0,0,0,1)" fill="none"/><text x="160" y="260" text-anchor="middle" dominant-baseline="middle" style="transform-origin:160px 260px">Argument 0</text><path d="M81 279.7c37.3-1.5 76.4.4 157 1M80.9 280c42.8-.6 88.2-1.5 160 1" stroke="rgba(0,0,0,1)" fill="none"/><text x="160" y="300" text-anchor="middle" dominant-baseline="middle" style="transform-origin:160px 300px">Return address</text><path d="M81.9 319.6c54.8.2 110.6 2.8 159.3-.7M79 320.2c34.6 1.4 69 1.8 161.5.2" stroke="rgba(0,0,0,1)" fill="none"/><path d="M1 321c139 0 277.8-.3 428.2-.6" stroke="rgba(0,0,100,0.5)" stroke-width="2" fill="none" stroke-dasharray="8"/><text x="160" y="340" text-anchor="middle" dominant-baseline="middle" style="transform-origin:160px 340px">Caller frame ptr</text><path d="M90.3 335.4c-11.3-.7-21.4 0-39.1.6m38 1c-8.4-1-18-.4-39.6-.7m0-1.6c2.8-72.9.4-149-.7-252.1m1.2 253.2c0-97.9-.3-193.7-.7-251.5m0-2.2c13 1.8 21.5 1.3 31.7 1.3M50.4 83c7.1 1.6 13.1.9 29 .3m-.2 1.3c-2.2-2-5.2-5.5-9.8-7M80 83.8c-3-1.8-6.7-5-10.1-7m11 6.3a48.6 48.6 0 00-11.6 7.1m11-6.6c-3.6 3.1-8 5.2-10.5 7.6" stroke="rgba(0,0,0,0.8)" stroke-width="2" fill="none"/><path d="M81.3 360.5c35.5-.1 68.9-3 158.6-.4m-159.8-.9c39.7-.5 79.5-.5 160 1.7" stroke="rgba(0,0,0,1)" fill="none"/><path d="M288.8 341.7c-9.7.2-19.3-3.4-39.8-.6m40.9-1.3c-15.5-1-29.4-.6-40.2.6m.3.2c2.3-1.4 4.5-3.8 10.8-7m-10.8 7c3.5-3 7.5-5.7 10.2-7.7M249.8 339a46 46 0 009 7.9m-8.3-6.6c2 1 4.7 3.6 9.8 6.8" stroke="rgba(0,0,0,0.8)" stroke-width="2" fill="none"/><text x="300" y="340" text-anchor="right" dominant-baseline="middle" style="transform-origin:300px 340px">Frame pointer</text><text x="160" y="380" text-anchor="middle" dominant-baseline="middle" style="transform-origin:160px 380px">JS Context</text><path d="M81.7 400.2c51.1-.9 102 1.4 157.5.5M80.8 400c55.5.1 112.5 0 159.4.3" stroke="rgba(0,0,0,1)" fill="none"/><text x="160" y="420" text-anchor="middle" dominant-baseline="middle" style="transform-origin:160px 420px">JS Function</text><path d="M78.7 438.8c56.1 2 114.4 3.1 159.4 1.3m-158.9 0c35.5 0 71-.4 160.6.7" stroke="rgba(0,0,0,1)" fill="none"/><text x="160" y="460" text-anchor="middle" dominant-baseline="middle" style="transform-origin:160px 460px">Argument count</text><path d="M80.1 480.8c32.7 1.9 67.4 1.7 158.3-.4m-158-.5c47.8-1.4 95.1-1.3 159.7 1M78.7 540.4c35.6-.2 69.4-2.6 159.4-.1m-159-.9c37-.7 73.1-1 160.6 1.3" stroke="rgba(0,0,0,1)" fill="none"/><text x="160" y="510" text-anchor="middle" dominant-baseline="middle" style="transform-origin:160px 510px" fill="rgba(0,0,0,0.5)">&lt;function locals&gt;</text><path d="M81.4.2C128-.8 177.7-1 238.8 1.4M80-.2c64 1.6 126.8.2 159.8.9m-.2-.3c1.8 174 1.4 348.7 1 540.1M240.4.3c-1.7 182.1-1.8 364-.7 539.8m.4.4c-34.4.2-70.3 1.5-161.7.8m162.2-2.2c-43 .2-83.6.9-159.8 1.7m-1.2-.7c-.2-211.2-1-420.8-.1-540m.7 539.9c1-113.6 1-228-.5-539.9" stroke="rgba(0,0,0,0.6)" stroke-width="2" fill="none"/><path d="M291.5 561.7a241 241 0 01-40.1-3.3m38 2c-9.5.1-21.7-.4-38.9-1.2m-1.4-.3c4.4-1.4 7-2.9 10.7-4.8m-9.9 5.9c3.3-2 5.8-3.8 10-7.5m-10.2 6.4c2.2 3.6 5.3 5.9 11.5 8m-10.8-6.8c2 2.3 5.7 4.3 9.2 7.3" stroke="rgba(0,0,0,0.8)" stroke-width="2" fill="none"/><text x="300" y="560" text-anchor="right" dominant-baseline="middle" style="transform-origin:300px 560px">Stack pointer</text><text x="160" y="560" text-anchor="middle" dominant-baseline="middle" style="transform-origin:160px 560px" fill="rgba(0,0,0,0.5)" font-style="italic">end of stack</text></g></svg>