<svg viewBox="-10 -10 600 60" style="width:600px;height:60px" xmlns="http://www.w3.org/2000/svg"><g fill="none"><path d="M0 0s0 0 0 0m0 0s0 0 0 0m.7 3.7L4.2.3m-3.8 4c1-1.4 2-2.2 3.8-4.4M-1 9.9C1.5 6 5.5 4.4 8.5-.8M0 9.3c2.2-3.4 5.6-6 8.3-9m-8 13.9C3.9 9.2 5 6 12.5-.1M0 13.8C3.7 8.8 8.7 4 11.9.6M.6 19.6c5-8.8 9.7-16.3 17-18.7M.8 17.6C5.9 11.8 11.3 6.1 16.6 0M0 23.4C6.2 13.4 13.6 9.2 20.3 0m-21 22.5C6.8 15.1 13.7 7 20 .2M-2 28c8-10.2 17.6-16 27.8-26.5M0 27.2c7.9-7.4 15.6-16 23.2-26.6M1.8 32.2C7.5 22.2 15.5 12.8 26-1.5M-.2 32.3C7.2 25 13 18.5 27.4.6m-29 35.6C10.3 24.2 19.7 12.5 31.8.8M.2 36.5c10.7-12.7 21.5-25 30.8-37m-29.2 42C14 25.5 22.9 12 36.2 1.5M1.6 41C13.2 26 26.6 11 35.4.4M5.1 39.6C17.3 24.8 31.1 11.4 38.3 0m-35 41c7.8-8.5 14.8-17 35.8-42M10.4 41.7A178.7 178.7 0 0143 1.5M7.8 40C19.8 27 33 13.7 44.8-.6m-30.1 42A256.7 256.7 0 0148.2-1.4m-36.4 42C21.6 29 31.6 18.4 47.6-.6M18 39.4C28.5 27 43.5 11.8 52.3-.2m-36.7 41C29.3 24.8 42.9 9.4 51 .2M21.9 39.5C34.8 24.3 50.3 9.6 55.7-1.9M20 40.5c12.5-13 23.8-26.9 35.5-41.2M26 40.6C40.4 25 51.6 7.6 61.4 1.2M25 41C34.9 27.4 46.5 15.3 59 0M28 39.8C36.6 31.5 43 24.5 65.7 1.6M29.3 41C36.6 31.2 45.7 20.7 64.5.2m-33.9 42C40.6 30.2 48.1 19 68.8-.4m-37 40c8.8-8 17-16.8 36-40.2M34.3 39C48.6 24.8 64 12.3 73 1.8M35.6 40c8-7.7 15-16.6 36.5-40.6m-31.5 43c8.3-12.6 17.1-22.3 34-41m-35.1 40C53.5 25.3 67.5 9 75.3.6M44.7 42.4A509.1 509.1 0 0077.5.7M43.9 41.8A1418 1418 0 0079.3.5m-31 39.2C56 30.6 65.8 18.5 85 .4m-37.8 40C61 25.4 71.8 12.7 84.6-1M50.7 41.1C62 28 71.2 16 86.1 1.5M51.6 41c7.3-8.9 14-17.3 34.7-40.9M57.2 39.4c9-7.4 16-18.9 33.9-39.2m-35.8 40A373.2 373.2 0 0091.7-.1M61.3 39.3C69.4 30 81.9 16 94.7-1.1M59.6 41.4A525.7 525.7 0 0095.3.6M63.9 38.8C74.3 26.2 89 12.3 99.2 2.1M64 40.5A597.4 597.4 0 0199.5-.7M70 41.3a159.8 159.8 0 0132.9-40M68.2 40.5c10.3-11 19.7-22 35.3-41.6M71.4 42.2a327.9 327.9 0 0034-42.4m-34 40.9c11.3-11.2 20-23.4 36.3-40.4M75 41.4C85.7 32 92.7 23.5 111.9.7M76 40.5l35.1-41M79 40.8c7.6-10.3 14-15.3 37-42.3M79.8 40.8C93.2 24 107.4 8.8 115 .5M85.5 41.7A245.8 245.8 0 01120-.7M83.4 40.9c7.4-8.7 16-18 35.2-41.4M85.9 42.3c14-15.2 26.3-31.4 39-44M88 39.7c11.9-12 24.3-27 34.8-40m-32 40.9c14.9-16 28.9-32.7 38.1-41.9m-36 42.2c9.9-11.9 20.5-25.3 34.6-39.8M97.2 41.3c6.7-8 16.7-21.2 32-42.2m-33 42.6C105.6 29 114.4 19 130.3-.1M99 41.3c9.4-12.9 21.3-21.8 37.5-39.9m-36 39c9-11.7 20.4-23.2 33.9-41m-31 41.4c9-13 20-21.1 36.3-39.7m-36.2 38.3c12.1-13.1 25.6-27.8 34.9-38.6m-30.4 38c4.8-5 15.5-13.3 33.5-35.5m-34 37.7C114.9 32.2 122 24 142 .6m-31.9 39.6c9.7-6.2 17-15.5 32.5-35.5M111.8 40l30.6-33.2m-27.2 35.7C126 28.7 133 20 140.2 9m-25 32c8.4-9.2 15.1-16.8 26-30.4m-22.8 30.8c8-9.7 17.6-18.4 21.7-26M118.8 41c9-9.4 18.5-19.5 23.2-25.2m-19.2 24.6c6.3-6 13.5-13.1 17.2-18.6m-16.8 19.1c4.4-5.5 7.5-10.4 18.9-20m-13 20.8c1.7-5.7 4.2-8.8 12.8-16.6m-13.8 15c3-4.4 8.9-9 13.5-15.6m-10.2 16.1c1.6-3.6 4.6-5.8 11.3-12.2m-10.4 12.3c1.6-3 5-6.6 9.7-11.4m-6.4 11c1.5-.9 3.3-2 6.4-6.9m-6.5 7.3c1.9-1.5 3.5-3.7 6.4-7.4" stroke="var(--machine-frame-bg)"/><path d="M-1.4-.6c54.3.7 106-.7 140.5 1M-.1 1C41.6.5 83.6.7 140.2-.4m-1.4-.4c2.9 18.3 3 33.3 0 39.3m.6-39.5c1.1 10.5-.1 20.4 1 40.8m-1.4.2c-40.3.8-83-.5-137.9 1.9m139.5-.9c-31.2.2-60.6 0-140.4-1.2m-.6-1.6C-1.7 27.8.3 14 .2-.1m-.4 40.9C-.3 31.3.3 22.6.3-1" stroke="rgba(0,0,0,0.6)" stroke-width="2"/></g><text x="70" y="20" text-anchor="middle" dominant-baseline="middle">Ignition</text><path d="M148.39999999999998 19.9c20 .7 36.7 2.2 61.4-1.1m-59.9 1.1c13.6-1 25.6.3 60.9-.5m.3.7a33 33 0 01-12-7.8m10.4 7.7c-2.7-2.3-6.3-4.3-9.3-7.2M209.1 20.6a32 32 0 00-10.3 7m11-8c-3.6 2.5-7.5 5.5-10.2 7.8" stroke="rgba(0,0,0,0.8)" stroke-width="2" fill="none"/><g fill="none"><path d="M219.8.3s0 0 0 0m0 0s0 0 0 0m.1 4.6c1-2.3 2.3-3.7 4.6-5.5m-4.3 5.3c1.5-1.5 2.6-3 3.8-4.7m-5.2 10.8c1.6-4.2 5.2-5 9.6-12.2m-8.7 10.8c3-2.3 5-5.1 8.7-9.3m-8 14.8c1.5-6.3 7.4-9.5 11-13.4M220 13.2c4.2-4 9.4-9.8 11.6-13m-12.9 19C226.1 13.6 232.5 7 235 1.5m-14.8 16.2c4.5-5.2 9.9-11.2 16.5-17.3M220 23.8c7.7-10.3 12.5-18.6 18.3-23.4m-18.5 21.9c6.7-6.7 11.4-12.8 20.3-22.6M220 25.3c6.4-3 8.8-8.5 23-23.8m-23 25.3c6.8-6.7 15-15 24.3-27M219 33.4c11.7-11 21.5-22.6 30.6-32m-29.8 29.8C230.5 18.2 241.2 7 249-.5m-27 38.8a295.2 295.2 0 0130.1-36.8m-31.3 34.2c10.5-12.4 23.5-27.3 30.7-36.4m-32 42.6c10.3-11.7 20.6-26.1 37.2-41.5M220 41.6c13-14.8 24.2-27.3 35.7-42m-31.9 41.6c11-9.7 18.7-24 34-40.4m-32.4 39.9L258.7.8m-32.1 38.6C241.8 28 251.8 14.9 265-1.8m-36.6 42A401 401 0 00263-.6M231.4 42a335.8 335.8 0 0036.4-43.3m-35.2 41.2a282.3 282.3 0 0136-39.2M238 41.2c8.2-14 18.3-27.8 31.7-39.2m-33 37.8c11-12.6 22.4-25.5 34.6-39.9m-29.7 42.4a228.7 228.7 0 0134.1-43m-35 41.7a381.2 381.2 0 0136-42m-30.5 40.7c10.8-14.2 23-27.2 32.8-38.2m-35 39.8c8.7-12.1 19.6-23.9 36-41.7M247.9 42c9-9.3 15.2-20.4 36.6-41M249 41.5A494.1 494.1 0 01283.3.8m-29.2 38.6c4.4-9 14-17 34.4-38.6m-37 40.3c12-14.3 23-26.6 36.4-40.4m-32 39C265.1 30.6 272 24.9 292-.6M257.4 41c7.3-8.6 14.6-17.6 33.4-41.1M262 41.3c12.2-17.4 25-35 34.2-41.3m-36.8 40.7c14.1-15.6 28.1-30.4 35.7-41m-32.3 41c9.9-9.6 20.2-22.3 34.4-39.4m-32.1 38.4c7.4-7 13-15.4 33.7-38.6m-30.3 40.8c10.5-15.2 23.7-28.6 36-42.7m-36 42.2c11-14.8 23.1-27.8 34-42.2m-29 40.2C284.2 24.6 301 9.9 306.4 1m-33.8 39.2C280 31.8 288.1 22 308 .5m-30.7 40.8c7.3-8.6 15.3-17.7 33.2-40.4M276 40.3A879.8 879.8 0 00310.5 0M282 41c10-13.3 23-28.3 32-42.8m-34.5 42.3c7.5-9 14.7-16.8 35.6-41.6m-32.4 42.6C293 29 306.2 16.2 319 .2m-35 40.9C294 29.5 303.4 18.7 319.4.4m-29.6 42c7-13.2 16-24 33-41.9m-35.5 39.7a661 661 0 0035-39.3m-29.1 40.6c8.7-11.2 16-23 34.2-40.3m-35.9 39C303.2 26.8 316 12.6 326.7-.6M298 39c7.7-10.6 19.8-24.9 33.5-37.2M296 40.1c12.1-14 25-27 35.3-39.9m-32.7 39.9c10-9.5 19.8-23 38.2-40.6M300 41.3c9-12.1 18.9-20.9 35-40.8M304.3 40c9.8-8.1 17.6-21.8 34.4-39.7m-34 40.6c11.3-15.2 25-29.4 35.8-41.1M307 41.4c11.3-13 16.7-23.2 37-41.1m-34.8 40.8A483.2 483.2 0 01343.9-.4M311.3 40C325 25 336.3 10.7 345.4-.2m-33.3 41c12.6-15.3 24.2-29 35.1-41.8M318 41.7a165 165 0 0133.1-40M315.3 41c13.9-15 26.3-28.7 35.4-41.4m-30.8 40.2C333.7 25 345.7 12.5 355-.4m-36 41.2A552 552 0 01355 .6M325.4 42c8-14.5 17.8-22.9 35.7-42.3M325 40.2c9-9 17.5-20.5 35-41.2m-31 42.9c9.5-13.6 17-22.3 31.6-40.8m-33.1 38.4c8-8.2 15-16.3 34.6-37.4m-28.7 39c3.3-9.5 9.7-16.6 30.5-36.4m-33 35.5c10-9.5 18.4-19.4 30.2-35m-26.4 34.6c5.8-8.7 14.6-12.8 25.3-28.6m-23.2 28.2c8.3-8 15.8-18.3 24.6-28M340 42c4.6-8 12.4-16.5 22.7-28.6m-23.5 28.3c7.4-9.3 14.3-17.7 22.3-26.2m-16.6 24c6-5 10-13.3 16.5-19m-17.1 19c5.2-6 11.2-11.8 17.6-19.3m-14.3 21.7c4.7-6.2 7.3-10.1 13.5-18.8m-13.4 17.3c4.2-4 6.8-8.3 14.4-16.5m-10.7 15.6c3.3-1.8 7.3-7.7 10.1-11.3M351.5 40c1.7-1 3.7-4.5 10.5-10m-6.5 10.5c2.4-1.3 3.3-4 7-7m-6.9 7c1.9-2.8 4.6-4.6 6.6-7.1" stroke="var(--sparkplug-frame-bg)"/><path d="M218.4 1.7c38.1-1.2 74.9-.4 142-3.3m-140.1.8c43.2 1 87.6 1.5 139.6.5m1.4 2c.1 7.7-2.3 20.7-2.3 37m.6-38.3c.4 9.7.7 18.6-.1 39.8m.8-.4c-46.6.6-92.9-1.8-138.4 1m138.6-.8c-35.4-1.1-67.9-2-140 0m1.5 1.7c-1-12.8-1-28.4-3-40m0 37.5c2-15.2 1.4-31 1.2-39.9" stroke="rgba(0,0,0,0.6)" stroke-width="2"/></g><text x="290" y="20" text-anchor="middle" dominant-baseline="middle">Sparkplug</text><path d="M368.3 21.7c24.8-3.2 43.9-2.9 61.2-2.8m-59.8.3c13.1 1.3 27.3 1.2 59.6 0m1.8.2c-5.3-1.1-6.9-4.3-11.6-6m11 6.7c-3.7-1.8-6.7-4.6-10.2-6.7m9 6.8c-1.7 0-4.2 3-8.7 5.9m9-5.8c-2.7 1.8-5.4 3.1-9.8 6.6" stroke="rgba(0,0,0,0.8)" stroke-width="2" fill="none"/><g fill="none"><path d="M440.2-.3s0 0 0 0m0 0s0 0 0 0m-.4 4.9c1.2-1.9 2-2.8 3.4-4M439.6 5c1.2-1.8 3-3 4.4-4.6m-4.7 8.8c3.2-2 5-5.3 8.7-9.4m-7.4 8.7c2.3-2.2 4.7-5.1 7.1-8.1m-9.1 12.1c4.2-1.5 7.2-5 14.4-13m-13.7 15.1c3.9-4 6-5.8 11.6-14.9m-10.2 19.8c2.4-5 6-8.2 15-21M439.3 19c5-5.5 8.4-10 16.5-18m-14.2 22c6.1-8.5 9.5-14.7 18-21.9m-19 22.3C445.3 15.5 453 9.6 460-1m-18.3 26.5c5.6-4.9 13.7-15.4 23.2-24.8M439.4 27c4.6-6.2 9.9-10.3 24.6-26m-25.4 30.3c10-9 18.4-17.3 29.9-32.2m-28.1 32.1C450.8 19.8 459.6 8 468.5 1m-30 34.7c9.6-7.5 15.2-13.1 32.8-35.3m-31.6 36.9c10.6-13 20.6-25.4 32.8-37m-32 39c6.6-7 13.6-13.2 37-38.6m-37.3 40.6c7.3-8.5 14.2-17.7 35.6-40.8m-33.1 40.2c8-7.6 15.7-18 38.3-39.2m-35.7 40c9-12.9 18.4-23 33.7-42.3m-31.5 41.2c13.7-15.2 26.9-32 37.4-41.5m-36.1 41.5c7.5-10.5 17.2-19 35.6-41M453 41.7C462.3 27.4 472.2 19 486.2.7m-33 39.3c8.5-10.3 19.2-23.4 35.5-41m-34.1 39.7c8.1-7.5 18-15.8 37.5-39m-35.6 41.4c10.6-14 20.3-25.6 36.4-41.2m-32 42C475.2 25 485.2 9.2 494.1 1m-32.9 39.4c7.3-9.7 16-19.5 34.2-40.5m-30 40C472.2 28.5 485 17 501-.6m-36.4 41.4c7.8-9.7 15.7-19.4 35.7-40.4M468 39.3c11.1-11.9 25-24.1 34.5-39.6m-33 40.6C481 27.2 490.9 13 502.6-.3m-31 40c10-8.8 20.9-20.6 36.6-41m-35.3 43c10-13.3 21.3-27.2 35-41m-30.3 38.6c5.2-6.2 14.9-14.2 34.9-39m-37 40.9C484.7 29.3 494 19.6 512 .7m-30.6 41c10.9-12.4 21.4-23.6 33.2-43.2M480.3 40c14.3-15.7 26.2-30.3 35.2-39M483 38.7C495 28.6 506.5 12 521.3 0m-37 40C497.6 25 509.9 10.4 519.2-.4m-31.7 39.5c12.1-9.8 21-25.3 35.5-38.4m-35 40c10.6-11 21-24 36.2-39.6m-33.6 40.4c8.4-10.3 16.9-20.1 36.8-39.7m-36.2 39.8C503.5 27.8 517 12 528.2.1m-32.3 39c12.8-14.6 23.5-28.3 34.8-38.3m-33.6 40C509.5 24.5 523 9 531.5-.6M498.7 40c11.6-11 22.5-24.3 36-41m-34.3 41.5c7.6-9.5 16-18.1 35.2-39.3m-32.9 40.2c7.5-10 18.5-18.4 36.8-43.2M503.6 41c8.3-9 16-16.3 35.2-41.9m-29.2 42.7c10.1-11.5 20-25.6 34.9-42m-36.2 40.6a432.3 432.3 0 0135.4-39m-31 39.2c6.6-8.8 14.7-17.6 34.6-40.6m-34.5 40c9.1-10.7 18.3-21.7 33.7-40.7m-30.8 43.2c13.7-18.7 29.3-31 34-42.2m-34.2 40.2c14.2-16 27.3-32 35.6-40.3m-29.3 39.8c6.3-8 13.3-18 34.8-41.7M519.8 41c9-11.8 19.2-21.3 34.9-40.8m-32.3 42.2c14-16.9 25.5-28.5 38.7-41.5m-38 40.3a430 430 0 0035.3-41M527 42.2A1038 1038 0 00561.7-.2m-33.4 40.8c9-10.9 18.3-20 35.3-41.4M531 40.4C542.3 30 548.7 19.5 565.6.3m-33 40c10.9-13.2 23.2-26.3 34-39.3M535 40.5c12.2-15.3 27.5-29.9 36.8-42M536.4 41c5.8-7.7 14.4-17.6 35.7-42.1m-32.4 43.3c6-8.7 16.7-19.6 34.9-40M539.4 41A552 552 0 01575 0m-30.6 41.3C558.2 26.8 573.1 11 578.1 0M544.6 40a978 978 0 0135.2-41M548 40.9c11.6-10.5 21.6-24.9 36-39.5m-36 38.6c11-11.5 20.2-23.8 34.3-39m-30.6 39.3c12-14 22.1-27.3 28.3-34m-28.8 34c8.4-8.2 16.6-17.9 30.9-33.2m-28 33.6c5.7-7 13.7-13.8 28-30m-25.7 29.7c7.8-9.5 14-17.9 24.8-30.9m-20 31.2c5.4-8.6 10-12.7 20.3-25.3m-20.8 25.1a381 381 0 0120.5-25.8M565.5 40c4.5-4.4 8-12.1 15-21.8m-16.7 22.5c3-3.5 7.9-8.5 19-21M569 42c.3-3.6 7-7.5 12.6-15.5m-13.2 14.7c3.3-3.7 5.7-8.8 13.3-17.2m-8.5 15.2c2.3-2.4 7-7.4 8.5-11.3m-10.2 12.9c4.7-4.5 6.8-8.6 10.9-12.8M576 41.4c.6-3.3 3.9-4.7 5.9-8.2m-6 7.4a42 42 0 015.7-6.8" stroke="var(--machine-frame-bg)"/><path d="M440.8 1.2C494.6.6 544.4-1.3 580.2.4M439.7-.5c45.7.2 91.6 1 140.8.8m-2.4-.9c1.7 10.4 1.9 20 1.6 40.7m.7-39.7c-.3 14-.8 27.1.6 40.6m.5-.6c-46.8.9-97 .3-141.5 1.3m139.3-1c-47-1.9-95.3-2-139.9-1.6m1.1 0c-1.2-7.3-1.3-19.8-1.8-37.4m.7 39.2c-.5-12-.1-24.4.7-40.4" stroke="rgba(0,0,0,0.6)" stroke-width="2"/></g><text x="510" y="20" text-anchor="middle" dominant-baseline="middle">TurboFan</text></svg>
