<svg xmlns="http://www.w3.org/2000/svg" viewBox="-10 -10 450 740" style="width:450px;height:740px"><defs><linearGradient id="grad4" x1="0" y1="0" x2="0" y2="100%"><stop offset="0%"/><stop offset="100%" stop-color="#fff"/></linearGradient><mask id="m4"><path fill="#fff" d="M-10-10h450v740H-10z"/><path fill="url(#grad4)" d="M-10 5h450v48H-10z"/><path d="M-10-10h450V5H-10z"/></mask></defs><g class="frame" style="transform-origin:0 360px" mask="url(#m4)"><g fill="none"><path d="M79.7.4s0 0 0 0m0 0s0 0 0 0m.6 8C82 3.9 85.1 1 87.7-.4m-7.4 8.3c1-2 3.3-4.1 6.8-7.8m-8.5 13.2C84 10.9 87 8.5 92.1-1.3M79.6 16c3.5-4 6-7.3 14.5-16M78.8 22.4a91.4 91.4 0 0020.6-24m-20 25c3.9-6.3 9.2-10.3 20.8-24.5m-20 30.4c5.2-7.1 12-13.1 25.6-31.1M79.3 29.9C85.5 23.6 90.9 17.5 106-.6M82 36.4C92.3 25 104.7 12.7 113.1-1M80 38.5c6.6-8.2 14-16.4 33.8-38.9M81.4 44c10-9.5 18-23.4 38.4-44.2m-40 46.5c13.4-14.6 24.9-28.9 41-45.6M79.6 54.1C94.5 34 110.4 17.8 124.5.6M79.7 54c14.6-16.2 28-31.4 47-55M79 59.6c11.6-12.3 27.1-28.6 54.2-61.2M80 61.6c19.4-21 38.1-44.8 53.2-60.5m-53.6 68c14-16 31-32.2 62.3-68.3M81 67.6c18-19.2 35-40 57.9-68.2M81.8 76C105.2 46.2 130 17.5 144.5.2M80 76.2c20.5-23.6 42.8-48 65.6-76M80.5 84.5c16.9-19 32.7-36.7 70.2-84.5M79.1 84c27.5-32.7 56.5-64.1 73.2-83.5M79.1 91.7C111 54 141 18.1 158.7 0M80.1 92.5c28.5-34.3 56-68.2 79.8-92.3M79 99.4A1419 1419 0 00166-.6M80 98.5c28.7-33.3 58.2-65.1 87-99.5M80.6 107.8c33.2-37 63.2-75.6 90.4-109M80.5 107.7a5280 5280 0 0192.1-108M80.3 116.4c33-39.7 66-76.8 100.8-118.4M80.4 113.7C117.9 70 154.8 28 180.4-.6M78.7 122.8c32.4-35 63.2-70.7 107.3-124.5M79.2 121.9c26-29.5 49.5-57.7 106-121.8M80.8 129.8c28.3-30.8 55.8-65.4 112-128.5m-112.2 128c32.8-36.7 64-72.7 111.7-128.9m-111 135c44.6-50.6 88.3-101.1 119.6-137M79.5 136.6C112.3 101 144.2 64 199.9 0M80.4 146.4c33-42.5 71.5-82.1 125.4-144.4M80.1 144.5c42.7-46.3 83.7-95 126-144.4M78.6 152.4c45.6-49.8 90-100 134.1-152M79.3 152.9c30-35 58.7-66.4 133.6-153.2M79.7 158.7c30.5-35.5 60.7-68 140.4-158m-140 159.9C116 119.2 151 77.2 219.7-.5M85.3 160.6C140.2 99.3 191.5 38.3 225.7.6M86.5 160.5C133.8 104.8 181.2 50 226.1-.6M92.4 161.8C137.1 108.8 181 58 232.7 1.4M92.2 160.9A5081 5081 0 01232.8.6M101.3 159.3c38.8-44.6 78.1-92.8 138.1-160M100.4 159c48.2-53.9 97.3-109.7 139.5-159M106.7 161.1c27-34.3 58-66.6 137-158.4M107 159.3c36.6-43.8 72.8-86.5 135.7-156M113.3 158.8c43-52.7 90.5-105.9 131-150.5m-131.8 153c49.5-56.7 97.9-110.6 130-152M120 158.9A3713 3713 0 01244.8 19.5m-124 141.2c26.5-32 52.9-62.2 123-143M126.4 158.4C159.1 119.7 192.8 81.2 245 26M125.4 160.7c31.8-39.5 64.6-76 117.3-135M134.8 158c26.4-30.2 58.3-66 106.3-124M132.5 159.3C172 113.6 213 68 242 34.2M139.5 161c26.4-32.2 54.3-66 105.8-121.3M140 159.4c20-23.6 42.6-48.3 103.5-119.5m-98.2 121.4c29.7-32.7 57.5-69.5 96.3-111.7M146 160.9c23.8-30 48.2-56.1 97.4-112.8m-88.6 113.3c29.4-39.2 62.8-74.2 86.3-106.8m-88.5 104c20.8-24.2 42.3-47.3 90.2-101.5m-82 103.2c21.7-29.8 47.4-54.3 83.5-94.9m-85.2 95c31-38.2 63-74.1 84.5-97.1m-77.3 97c27.6-31 53.6-64 77-89.5m-77.1 89.3c22.3-26.2 45.6-53.2 76.2-89m-69 88.8c15-20.2 33.5-38.4 69.1-82.8m-70.5 82.8c15.8-16.4 29-32.9 70.5-81.5m-64.1 79.7c17.6-18.6 33.6-37.3 63.7-70m-63.4 71.1C203.4 132.6 227 105 244 87.5m-58.9 72c20.5-24.9 45.1-48.3 56.1-65.2m-55 65.1c16.7-17.6 34.3-38.4 55.9-65.3m-48.2 67c9.4-12.4 22.6-25.4 50.6-60.7m-51.6 59.5c12.6-15.2 26-32 51-59.1m-43.3 57.5c6.8-10 15-17.5 43.7-48.4m-45.8 49.6c11.7-12 23.1-24.9 44-49.5M206.7 159c8.5-12.9 22-25.8 36-40m-36.3 41c8.7-10.7 18.8-21 37.6-42.9m-30 43.8a151 151 0 0127-36.5M212.7 160a440.6 440.6 0 0130-35M218 161.4c10.8-9.5 17.2-22.5 24.9-29.4m-23 27.4c7.4-8.5 15.8-19.2 23-26.7M226.7 161c4.6-4.9 6.8-10.8 18.1-22.3m-18.3 22.3c5.3-9.5 12.5-17.3 16.6-21.8m-11 20.6c1.8-2.7 5-4.3 11.2-10.8m-10.4 10c3.4-4.1 7-7.9 10.7-11.5m-4.9 12.8c1.6-1.8 3-3.1 4.3-4.4m-3.8 3.8c1-1.2 2.7-2.4 3.6-4.1" stroke="var(--other-frame-bg)"/><path d="M78.5 1.9c47.6.2 89.3 1 161.3-1.5m-160-1c52.6 2 107.8 2.7 159.4.6m2-.7c-3.2 56.5-1.5 115-2.6 160M240-.2c0 35.7.1 69.7-.5 161.2m0-.3c-35.4-.3-71.1-1.9-159.8-1.4M240 159c-57.6-1.2-117.5-1.3-160 .2m.8.8c1.1-45.5-1.3-89 .7-160.3M80.1 160c-1-46-1.3-93.4-.3-161"/><path d="M80.2 159.8s0 0 0 0m0 0s0 0 0 0m-.7 5.2c1.5-1.2 2.9-3.6 4-4.5m-3.7 4.6c1.3-1.9 2.5-3.3 4.1-4.7m-2.8 8.2c2.8-2.6 4.8-7.3 5.8-9.4m-6.2 9.6c1.5-2 4-4.4 7.9-8.3m-10.2 15.4c3.8-5.5 10-10.8 12-14.8M80 174.3c3.5-3.3 6.3-7 12.4-14.5m-12.7 17c5.6-2.3 5.6-5 17-18.3m-16.4 20c5.1-6.6 11.2-12.7 15.4-18.9m-17.6 24c8.7-6.8 13.2-15.4 20.6-23.6m-19.3 23.8c6-8 12-13.4 21.1-25m-22.2 27.4a213 213 0 0025.3-25.5m-23.1 26L104 160m-25.2 31c9-9.7 16.7-17.3 28.3-30.7M79.6 192c11.2-10.7 20.2-22.7 29-32.7m-30 37.5c10.8-13.5 23.8-22.7 31.8-35.5M78.9 197c11.6-12.3 21-25 32.6-37.1m-29.6 40c8.3-12.2 16-20.5 33.2-38.3m-34 38.4c7-9.3 16.5-18.6 35.3-39.8m-38.5 44.5c16-12 29-29.9 44-43.5M80 205.9a722 722 0 0140.7-45.9m-40 51.8C96 192.3 108 176 121.7 159m-42.1 52c12.3-13.8 24.1-27.3 43.1-50m-41.4 55.3c14-21.5 32.8-38 46.5-57.3m-48.3 55.5c11.5-14 24-27.2 47.4-53.9M79.3 220c12.6-16.8 29-30.3 54-62.2m-53.9 61c20.5-23.5 41.5-47 52.7-58.4M78 224c11.4-12.3 23-26 58.1-65.7m-57.4 66.2c13.7-15 26.3-30 57.4-63.6M82 229c17.3-22.4 32.2-42 57.6-67.6M81 228.6c17.2-21 35.3-41.7 59.7-69.2m-60.8 72.3c13.5-14 25-28.8 63.9-71m-64 72.6c16.3-17.2 31.6-35.7 63.5-73.6m-64.7 77.9c27.6-29.1 53.4-62 69-77.8m-68 77.4c22.7-23.5 46-49.7 68.7-77.2m-67.5 80.3c15.4-16.9 31.4-35.4 72.4-79.8m-72 81.1c24.8-29.2 50-59.2 71.4-81.5m-73.1 88.5c22-27.6 46.4-55 77.3-87.5m-76.1 86.6c16.4-21.1 34.2-40.2 74.3-87.6M81.4 251c24.1-31.1 48-58.2 78.5-90m-79.1 89.6c16.5-21.2 36.5-41.3 78.9-90.6m-79.4 95c20.9-23 43.2-48.5 84-92.8m-84.8 93.5c24.5-28 47.7-56.5 83.7-96.3M81.4 259.8c27.9-34.8 61.7-72.3 87.4-98.6M80 260.5c18-20.3 35.8-41.6 88.4-100M79.5 265.8c28.4-31.2 56.7-65 93.5-106.5M80.7 264.7c26.3-30.5 54.7-61 91.2-105.6m-93.7 111c20.9-24.9 42.7-45.8 96.4-108.5M80.2 268.9c25.8-29.5 52.3-60.5 94.5-109.6M81.2 276.5c29.4-36.6 59-70.5 98.4-114.8M79.4 274c41-44.4 79.6-90 99.7-113.8m-100.7 117c37.4-38.6 72.3-81 105.5-118.8M79.3 277.9c35.4-40.4 71.6-81.7 105.3-118.8M80 281.6c43.2-44.9 85.6-96.3 106.5-123m-105 123c42.2-48.8 84.6-95.8 105.5-121.7m-102 121.7c32-37 64.3-76.7 108.4-123M86.8 280.4c27.7-30.7 55.5-64 104.6-120.3M87.8 281.5c22.1-25 44-49 105.8-122M90.2 282.1c25.4-32.9 55.4-65.8 103.9-121.6m-102 121c40-44 81-90.4 105.8-122.2M93.3 281.8c29.4-31.5 55.9-65 105.7-121.3M96.2 282.9c37-41 69.5-79.3 109-125M98.5 280.5c24.3-28.2 46.3-55 105.7-120.2M103 280c36.1-41 69.8-80.4 103.5-118.7M101 281.3c27.7-30.5 53.1-59.9 106.7-120.4m-103 120.6c21.7-26.2 44.7-52 106.8-120M106.2 281c24.3-27.4 49.1-56.3 104.3-120.1m-102.9 121c30.8-37.3 63.3-68.8 107.9-120.2m-105.7 120c26.4-30.4 51.8-61.5 105-121.9M115 280.6c38.5-43.5 74.2-88.6 103.3-119.6M112.6 280.8a3116 3116 0 00106.6-121.7m-99.8 120.4c24.5-27.6 49.8-58.2 106-119.8M116.8 282.1c39.8-44.9 79.8-91.6 107.2-123.3M119.6 281.4c41.3-47.2 84.1-93.7 106-120.5m-105 120.2c41.8-48 84-96.1 107.2-120M124.5 282.6a4685 4685 0 00106.5-124M125 280.9c22.2-23.6 44.4-48.8 106-120.3M128 281c30.8-35 60.6-69.7 106-122.3m-104 122.6c36-42.2 73.5-86 105-121.4M132.4 283c26.6-33.6 55.8-66.5 108.4-122.3m-107 121.6c24-28.3 47.3-56.8 104.6-121.4M137.3 283c31.8-37 60.6-71.6 105.6-122.3m-106 121c32.1-35.1 62-68.7 105.8-120M140 280.4c35.8-42.1 71.8-81.2 101.8-113.3M141.3 282.3c38.8-45.4 77.3-89 99.3-115.2M146 283.3c28.8-36.2 58-69.3 94.8-112.5m-95 110c21.6-22.7 41.3-48.3 96.8-110.2m-92.9 112A3342 3342 0 01240 177.3m-90 103.7c27.3-30.4 56.8-63.1 91-105.1m-89 107.3c35.8-39.1 66-75.5 89.7-105.5m-88.8 103.9c30-36.8 60.7-71.4 90-102m-86.3 101.7c29.4-32.8 60-66 84.4-98.2m-83.6 98.6c20.7-22.6 40.7-47 83.7-97m-80.7 96.6c26.3-26.2 47.9-54.7 82.3-92.1m-81.1 93.2c25.1-28.2 49-57.7 80.9-93.8m-76.8 93.7c16.5-22.1 37.6-44.6 77.6-88m-78 87c28-34.6 59-67 76.5-87.7m-74 85.6c23.1-22.1 43-43.2 74.5-79.4m-72.7 81.3c23-25.3 45-51.1 71.2-83.4m-67.2 84c17.8-19.7 37.5-43.6 66.5-78.4m-67.8 77.3c27.5-30.8 56-63 70-77.4m-66.8 79.9a2573 2573 0 0065.3-75.4m-62.8 73.3c13.8-17.1 28.3-34 63.3-74.7m-60 75.9c20.4-26.3 42.7-49.9 60.4-70.6m-59.8 70c23.3-27.6 48.5-55 60.2-69.2M186 282c13.1-17.1 29-38 55.6-64.8m-57 64c12.5-13.5 25.7-28.3 57-64.2m-51.2 65.2c14.4-18.9 28-35.2 50.4-61.4m-50.5 59.6c15-19 32.6-37.2 50.9-59.5m-46.5 61.5c15.8-19.3 28.3-38.5 46.6-55m-47.7 54.2c14.2-15.8 26.7-33.2 48.7-55.8m-46 55c12.6-14.3 23-24.9 45.3-52.9m-44.2 53.5c18-21 35.5-41.1 43.5-51.4M199.4 281c13.5-13.3 26.3-25.7 43.1-45.4M200.3 282c11.6-14.1 23.8-28.5 40.8-47.6m-38 45.4c11.1-7.2 18.7-20.2 40.4-41.3m-38.9 42c11.2-12.4 21.9-24.6 37.6-42.2m-33.7 42c8.4-7.5 19-17.2 33-36.9m-32 37.8c10.6-12 22.4-24.7 33-36.8M213 280.7a225.5 225.5 0 0130.5-33.7M212 282.5c12.1-13 22.4-26.5 29.2-34.8M217.6 280c5-4.2 12.4-12.2 23.8-27.6m-24.9 28.8c10-10.7 19.1-19.2 24.7-29M221.5 283c4.4-6 8.7-13.3 18.7-26.4m-19.5 25.8l20.3-24.3m-15.8 24c3.7-3.6 5.9-10.6 16-19m-16.4 18.2c6-7.6 12.4-14 17.8-18.8m-14.9 17.6c4-4.3 10.9-9.6 12.2-14.8m-10.5 15.9a215 215 0 0012.4-15m-9.4 16.7c4.8-6 6.7-9.7 10.5-12.4m-10.6 11.6c4.3-3.8 6.3-7.3 8.9-10.9m-4.9 10.3c1.5-1.8 3.8-3.4 5.7-5.7m-5 5.7c1.3-1.7 3-3.9 4.7-5.7" stroke="var(--js-frame-bg)"/><path d="M80.4 160c54 .6 105.3-3 161.3-.8m-161 .9c58.7 0 116.7.2 158.7-.8m.4-1.2c.7 40.4 2.6 80.6 1 122m-.5-121c-.6 37.2 0 73-.4 120.3m2 2.4c-59.2-1-117.8-3.7-161-.5m159.7-2.3c-60.4 2.2-120.1 2.4-160.1.7m-.2-1.4c.1-33.3-3-69.9-1-120.1m1.5 121c-.4-24.8-1-52.4-.6-119.2"/><path d="M79.9 280.1s0 0 0 0m0 0s0 0 0 0m.6 3.7c.8-.2 1.7-2 3.6-3.8m-3.8 4.2c1.6-1.4 2.9-3.3 3.6-4m-3.4 9.8c3-3.6 5.3-7.9 7.5-9.5m-7.7 8.7c2.4-3.3 6.2-7 7-9M79 292.6c5.1-2.7 9.8-8.8 13.5-13m-11.7 13.5c1.7-2.1 4-6 10.3-13.2M81 298.6c3.4-3.9 7.3-8.7 15.6-19m-17.1 19.6c5.4-5 8.7-11.6 16.2-19.5m-17.1 25c6.5-7.3 15.2-14.6 22-24.1m-20.3 21.6c5.4-7.6 12.2-13.3 20.3-21.7m-19.8 28a168.9 168.9 0 0124.7-28.1m-25 26.6c7.2-7.8 14-16.6 24.2-26.3M79 312c8-5.6 10.8-13 28.4-33.7m-26.7 33.7c9.4-11.6 19-23.5 27.5-32.6m-28 38.7c12.2-14.7 20.8-26.3 32-37m-31.2 35.2c7.5-8.2 14.2-16.7 31-36m-33.6 39.9c11.3-7.4 18.5-18.3 39-41.5m-37 41.6c8.9-10 19-22 36.5-41m-36 46c12.8-17.5 26.8-31.4 37.3-45.6m-38 46.5c14.6-17.5 30-35 39.4-45.8M81.7 329c7.1-10 14.4-18.3 43.3-49m-44.4 50.7a580.4 580.4 0 0144.2-50.3M79 333.8c15.3-16.5 27.3-28.7 49.3-54.3m-47.6 54.4c12.7-14 24.8-28.1 45.8-54.3m-48.4 61.2c12.2-13.5 25.8-28.5 53.6-62.6m-51 61.3c17.4-19.9 35.3-40.3 50.3-60m-50.4 63c20.6-20 39-43 55.4-64.1m-56.5 64.9c21.1-24.9 42.8-49.5 56.7-64.1m-57 69.4c25.1-25.4 50.3-55 59.2-66.5m-57.8 66.6c19.2-21.3 39-43.6 58-67.5m-59.5 71c23.1-19.6 39.8-45.6 66.2-70.9m-65.9 71c21.7-21.6 40.8-45.8 65-73.4m-66.2 80.7c16.1-19.9 33.2-37.1 68.2-78.6m-66.5 77.3c15.5-17.7 29.3-35.9 66.5-77m-67 80.3c19.3-18.5 34.1-38.6 70.9-80.8m-68.6 80.4c20.3-23.7 41.5-47.7 70.2-81.5M83.5 361c22.6-22 41-46 73.5-82.3m-72.6 83.2a6500 6500 0 0172-82.6m-65.7 80.2c24.4-27.2 49.8-58.8 69.2-78.2m-70 80c23.1-29.3 47.6-56.1 69.5-80.5m-67.7 79.6c19-16.2 33.4-35 73.3-80.8M94.2 361c14.4-17 28.6-34.2 68.8-81.4m-66.2 83c28-31.5 53.4-66.7 70.4-84.1m-70.8 82.2c17-17.5 33.6-38.1 70.5-80.7m-66.7 79.8c15.1-15.8 28.5-30.3 73.1-79.3m-73 81.1c18.3-20.3 34.5-39.6 72-80.6m-68.7 78.5c17-17.4 35.3-40.8 70.1-81.6m-69.6 84.4c22-25.2 44.4-51 71.8-81.4m-67.6 79c26.4-26.7 47.4-53.1 71.8-78.6m-71.4 79c23.9-25.6 46-52.9 69.5-80.2M113 359.3c21-22 39.1-41.6 70.5-80.6M113 360.4c23.4-27.5 48.2-53.3 71.2-79.5M118 360.2c13.3-16.4 25-33.5 69.3-81.3m-71.1 81.4c18.4-21.8 37-42.6 70.9-80m-67.3 81.2c26.3-29.5 50.1-57.6 72-80.7m-71 80.7a2775 2775 0 0169.8-81.2m-67.5 80.2c23.9-24.2 42.7-47.4 71.3-79m-70.7 80.7c16.2-18.2 32.4-36.7 71.3-81.5m-66.4 78.9c15.9-16 30.4-37.8 68.8-79.4M128 360.5c28.9-32.5 54.5-62.3 70.6-79.7m-64.4 79c18.5-22.4 40.3-50.6 68.9-77.9M132.4 360c18.4-19.6 34.3-39.2 70.7-80.2m-64.7 80c23.5-24.8 44.4-54.7 67.3-80.8m-68.2 81.5c26.9-29.5 52.9-61.4 69.2-81.3m-67.5 83.6c21.4-24.3 42.3-45.4 73-83.1M140.3 360c20.5-24.5 42-48.2 70.2-80.2m-64.8 81c22.4-25.2 41-49.6 69.7-79M145.8 360c24-28.5 50-58 70.3-80m-66.8 82.8c23.9-30.2 52.9-61 71.2-82m-72 80.7c17.2-18.7 33-38.7 71.2-81.2m-66 79.1c19.6-20.5 37.7-44.2 70.7-78.8m-71.6 81c28-32.6 55-65.3 70.6-80.9m-67.8 79.6c23.1-25.2 49.4-54.8 71.4-80m-69.6 80c14.1-16.5 28.6-31 69.7-80.5M160.3 360c13.5-18.3 30.9-34.7 71-78m-71.6 79.3c17.6-19 34.2-39.8 70.7-80.3m-64.3 78.5c18.9-18 34.2-39.3 68.8-79.6m-70.8 81.4c14.3-16.5 29.3-33.6 71.3-82.4m-67.8 81.3c28.2-30.7 52.2-59.7 69.1-78.2m-67.4 79.5a1555 1555 0 0170.4-80.9m-67 79c20.1-21.2 37.4-46.1 70.9-77.9m-71.3 78.8c28.5-31.6 55.3-62 70-78.8M175 361c19.9-19.8 36-41.7 65.7-73.5m-65.2 73.1c24.8-26.8 47.7-53.1 67.1-74.8m-60.3 74c18.8-24.5 40-46.7 59-68m-60.5 70c12.8-15.5 27-31 60.4-71.8m-55.5 71c11.6-14.1 24.3-28.8 54.4-66m-56.2 64.8C205.6 336 224 313.6 241 295m-51 67.7c9.6-14.7 23.2-31.8 51.8-60.8M189 362a823.2 823.2 0 0151.7-61.8m-50 59.2c16.8-18 31.5-35.8 49.6-55.2m-48.3 57c20.6-22.8 38.9-43.4 49-56.8m-45.6 58.3c9.5-13.3 21.2-22.4 45.1-53.3m-45.2 52.9c19-23 36-42.5 45.4-52.6m-41.6 50a281 281 0 0041-45.7m-40 47.9c11.7-15 25-28.8 41.8-47.6m-37.1 45.5c11-12.3 24.1-27 36.3-41.6m-36 43.1a448 448 0 0137.6-44.2M207 359.9c14-12 24-28.1 36.7-37.2m-34.6 38c7.7-11 17.8-20.8 32-38M211 359c12.9-11 22.2-24.5 32.6-32.6m-32.1 34.4c12.2-13.3 23.2-25 31.4-33.2m-27.5 33.5c7.8-10.4 18.7-18.7 27.6-29.4m-26.9 29c5.6-5.4 11.1-11.4 24.7-28.7M222 360.5a70.4 70.4 0 0118.4-22.7M221 361.3c3.9-6.2 10.2-11.6 21.8-26M223 360.7c6.5-5 11.7-13.5 19.9-20.6m-19 19.9c6-5.6 9-10.8 17-19.4M226 360.2c7.5-5.3 9.6-7.9 14.8-16.7m-13.2 17c3-2.7 7.3-6.8 14.6-15.4M231 360.7c5.4-4 8-5.5 9.4-10.1m-8.5 11c3.5-5 7.3-7.8 9.7-11.1m-6 11.8c1.8-2.7 3-4.4 6.5-7.5m-6.1 6.1c1-1.3 2.2-3 5.5-6.4" stroke="var(--machine-frame-bg)"/><path d="M81.2 279.8c46.4-.5 95.2 0 158.3-.4m-160.4 1.4c60.6-.4 120.6-1.3 161.7-.6m.4-1c-1.6 29.2-2.6 56.6-2 79.8m1-78.1a912 912 0 00-.4 78.5m-1.7-.4a4229 4229 0 01-157 2.3m158.3-2c-56 .5-112.5-.4-159.8 1.3m-.5-2.1c-.5-16.1 2.7-31.2 2-79.3m-2 81.2c1.2-18.3-.2-37.2.6-79.7"/><path d="M80.1 359.8s0 0 0 0m0 0s0 0 0 0m-.5 5.3c1.5-2 3-3.6 3.7-4.8m-3.7 4.3c1-1 2.1-1.6 4-4.1m-4.5 8c4.6-2.8 7-7 9-7.5m-8.5 8.5c2.8-2.8 4.7-4.8 8-9m-6 14.2c.7-6.5 7.2-8.2 11.3-14.4m-13.6 14.2c4-5.2 9-9.3 12.4-15.4m-13.5 17.4c6.6-2.3 11-9.8 16.5-16.2m-15.5 17.4c6-5.8 10.3-11 17.4-16.8m-18 21.2c6.4-7 13-9 21.2-23.3m-19.3 24c4.8-5.6 9.1-11.7 19.4-23.5m-20.3 27.4c8.2-9 13.6-14.1 22-26.8m-21.5 27.6c6.3-8.6 13.6-15.9 24.2-27m-24.6 32.7c11-13.5 16.4-22.2 28-34.8m-27.3 33a496.9 496.9 0 0127.5-30.8m-28.6 34.6c11.6-12.2 27.3-29.4 32.3-33.5m-32.5 36c9-10.7 16.4-19.8 33.5-38.7M80 400.4c9.4-6.8 15.5-19.9 36.9-38.5m-37.4 38.4c9-8.7 16.5-17.6 37-40.5m-36.8 44.9c7.9-9 16.8-17.7 41-43.7m-41 44.5c12.2-13.2 23.3-27.7 40.6-46.6m-41.6 52.5c11.8-13.7 21.7-24 43.7-50.4m-42.1 49.6c12-15.2 25-30 43.7-49.5m-45.5 53.8c20.3-21.9 38.4-39.6 51-53.2m-49 54.2c15.2-17.9 27.9-35.4 47.4-55.9m-49.4 58.8c20.6-21.7 39.3-39.7 53.3-59m-51.8 60c13.3-16.5 28.1-32.8 51.8-60.4m-52.3 65.7c16.2-19.7 34.4-38.2 54.7-64.2m-53.5 63.7c10.7-13 22.8-27.6 54-64.5m-54.3 67c15.7-15.4 28.5-32.5 58.4-67.8m-58.5 69.3c14.5-17.4 30-35.5 58.8-69.5m-58.3 71.8c22-26.6 46.2-52 65-69.7M79.7 433c22.1-25.7 45.5-52.1 63.5-73.2m-65 79.3c19.9-22.7 40.5-44.3 71-78.3m-70 76.5c21.2-21.2 41-43.9 68.1-77.2M82 441c18.7-21.1 39.9-48.4 69-81m-70 81.7c16.4-19.2 35-40.7 71.2-81M78 448.4c31.4-31.8 56.8-66.2 79-88.1m-77.8 86c25.4-25.7 48.4-54.4 76-86m-73.1 91c25-29 49.6-60 76-93.2m-78 93.8c25.2-29.6 49.8-58.2 78.6-92.5m-80.7 96c22.7-25.2 45.4-49.4 85.8-96.9m-83 98.1c21.4-26.4 45.7-55.5 83.1-97.3m-83 102.4c18.5-22 41.6-45.2 87.8-99.7m-89 98.3c19.1-19.5 37.1-40.2 88-100.4M79 464.8c35.1-39.9 70.4-78 92.4-104.9M80.2 465.3c34.3-39.1 67.5-76.8 90.5-105.8M79.5 469.4a2024 2024 0 0096.8-110m-96 109.9c20-24.5 42-48.4 93.9-109.7M81 474.7c24.8-32.5 51.5-61.8 99-113.4M79.7 474.9c39.2-45.9 78.8-90.2 99.2-114M79.1 478.4c41.6-43.6 78.4-91.8 106.2-117.9M79.9 479.9c28.3-35.3 57.3-68.7 104.3-119.4M79.6 480.1a3789 3789 0 00105.7-118.5M80.7 481c32-33.9 62-71 106.2-120M85 480.5c26.6-29.7 49.2-58.4 106.5-120.6m-106 122c29-35.1 59.3-69 105.3-122M90 480.4c37-41.3 69-81 105.4-119.4M89 482.4c23.6-28 47.5-57.1 106.3-121.3M93.8 481c27.7-30.7 58.2-66.4 107.3-120M94.5 481c19.6-23.2 40.3-48.2 104.1-120.2m-99 121.5c37-44 71.4-84 104-123.7m-106 122.5l106.7-122.3m-104.1 121c34.8-40.6 73.1-81.6 107.4-121.4M100.8 482.6A11333 11333 0 01206 360.4M103.7 479.7c34.9-33.8 64-67.2 107.3-121.2M106 481.6c22.9-27.5 46.8-53.7 105.5-122m-103 123.6c21.8-26 44.8-51.2 104.7-122.4M109.8 481.6c26-30 51-59.2 104.3-120.3m-102 118.9c35.2-36.2 70.6-75.8 107-120M114.4 481c28.3-33.5 58.4-67.2 104-120.9m-100 119.9c41.4-46 84.6-92.1 104.4-118.8m-105 120.3c35.9-41.6 71.5-81.5 104.8-122.5M120.6 483a2917 2917 0 01108.3-121.6M121.2 482c26.3-31 55.4-62.9 105.8-122.7M126 482c23.2-27 46.2-52.8 105.8-121.5M125.6 481.7c25.2-30 53.4-61.3 105.6-120.8M130.2 480c31.2-34.7 63.2-70 104.9-118.9m-104.9 120c21.5-24.3 42.7-50.2 105.2-121M131.6 481c32.2-31.4 61.5-65.2 105.7-122.8m-104.9 124C157.4 453.7 182 425 240 361M138 481.5c35.8-42.6 71.4-83.6 102-119.7M138 482.1a2968 2968 0 01103.7-120.6m-99.8 118.9c35.5-45.3 74.3-89.6 100.8-116M140.9 481.6c34.1-38.2 68.3-76.6 101.4-114.8M146.9 480c33.9-39.8 70-79.3 93.9-109.7M145 482.2c25.7-31.8 49.9-60.7 95.9-112.2m-90.4 110.5c29-33.2 60.8-72 91-105.3m-91 105c19.8-22.5 38.5-44.6 91.5-104.3m-90 104c17.6-19.7 36-38.2 90-102m-87.9 104c30.7-38.1 64.2-74.5 86.9-101.2m-83.9 101c33.5-36 62.6-75.3 84.3-99.6m-84.1 100c24.4-29.6 50.4-59.6 85-98m-81.2 98c22.9-26.4 46.9-56.7 79.2-91.8M161 480.9l80.9-92m-77.2 93.7c28-35.2 57-65.9 78.9-89.6m-78.5 88.7c21.9-24.7 43.1-49.7 77.4-89m-72.4 87.8c22.9-27.8 47.4-56 73.4-82.2m-73.3 83.2c20.8-26.3 42.9-51.9 71.2-83.4M172 481.7c16-16.3 35.6-38.3 69.8-79.7m-69.1 79.8c16.6-17.9 31.6-35.4 69.8-78.6m-64.7 80c20.2-25.4 42.8-49.4 63-74.5m-64.3 72.1c24-23 44.5-48 64.8-72.6M181.6 482c16.6-21.2 32.3-41.2 59.4-71.1m-60 70c13.4-16 28.8-31.5 60.7-68.3m-56 68.8c12.5-15.2 25.6-33.8 54-64.6M186 481.6c13-15.2 24.8-30.2 55.5-64.1m-51.3 62.9c12.4-16.6 30-34.1 51.2-60.2m-51.7 61c11.3-12.4 21.3-25.9 51.6-60.3m-49.9 62c15.4-16.4 26.6-30 48.8-57m-47.5 56.3c10.7-13.3 23-26 48.6-57.3m-43.7 57.5a343 343 0 0042.6-53m-42.4 51.2c9.8-11.6 19.6-22.9 43.7-50.7M199 481.5c16.7-19.8 33.2-35.5 44.3-46.7m-43 48c10.8-11 19.9-22.5 41-48m-37.8 47.8a349.5 349.5 0 0037.2-43.5m-36.3 41.7c15.2-16.1 28.4-31.4 37.6-40.8m-33 40.2c11.6-11.5 20.2-21 32-38M208.3 482c11.1-12 19.3-21.4 34.2-37.8m-27.8 36.6a169.3 169.3 0 0127.7-32.5M213 481.5c9.1-9.2 16.1-18 28.2-32.7m-23.7 32.7c7.7-9.3 13.8-15.1 24.5-28.5m-25 29.1c4.2-6.1 10-13.4 25.5-29.8m-23 29.6c7.4-4.7 9.4-11 21.4-22.7M221 482c4.4-6.6 9.1-12.7 20.5-23.8M223 479.7c4.5-1 9.2-5.6 17.7-16.8m-15.8 18.8c6.6-8.5 14.3-15.5 17.7-19m-12.2 16.7c4.5-1.1 7-9.3 10.1-13.7M228 481.6c4.5-4.7 9.4-9.4 13-14.4m-8.8 13.2a23 23 0 0010-8.6m-9.6 10.6c2-3 4.9-6.4 9.4-10.5m-4.6 10c1-2 2.7-4.1 3.9-5.5m-4.4 5l4.2-5" stroke="var(--js-frame-bg)"/><path d="M81.8 358.9c60.6.9 120.8-1.2 156.4 2.8M79.6 360c60.8.5 119 1.9 159.5-.4m2-1.4c0 40 .5 77 .8 121.7m-2.5-120c.4 35.3.4 71.2-.2 119.7m2.6.5c-57.9-2.2-113.5-2-163.1-1.9m161.6.7c-37.7 1.6-73 .8-160.6 1m-.7.3c1.4-26.8 1.8-52.8-1-119.6M79.3 480c-.5-36.7 0-75.9 1.5-120.8"/><g><path d="M79.9 480.2s0 0 0 0m0 0s0 0 0 0m.5 4.5c.8-1.2 2.3-3.5 3.1-4.4m-3.1 4.1c1-1.5 2.5-3 3.6-4.7m-3.3 9c1.5-3 2.9-4.4 7.5-8m-8.6 9.1c2-2.4 3.6-5.5 8.2-9.5m-6.8 15c4-4.8 7.4-11.5 10.1-16.8m-10.4 15.7c3.8-5.3 8.2-9.9 10.6-14M79.8 500c2.4-5.3 7.3-10.4 16.7-19m-17 16.5c6.2-4.5 11.3-10 16.4-17.8m-16.2 23.7c6-3.3 9.8-11.2 19.4-22.8M79.9 503a132 132 0 0120.3-22.4m-19.3 26.9c6.7-5.4 9-14 22.2-25.8m-23 26.2c4.5-5.9 9.5-12.3 24.5-28m-26.5 31.8c10.8-10.5 22.7-23.4 31-29.5m-30 29c7.3-5.5 12-13.4 29.2-32m-28 39c12-16.8 21.2-29.8 30.4-36.8m-31.2 35.6c11-14 22.4-26 32.1-37.1m-31 42c8-8.2 16-17 36.4-41.8m-36.9 40.2a1069 1069 0 0035.1-39.8m-30.3 39c8.2-11.6 21.9-23.1 36.5-41M84 519.2c10.8-12 22.8-23.6 34.8-39.2M88 520.8c12.4-15.8 25-29.2 34.8-40.7m-33.7 40c6.7-7.7 13-15.8 35-41m-33 40.2c13.6-14.9 25.1-28.6 35.4-40.8M92.4 521c14.3-16.8 28.5-33.8 35-41.8m-32 41c12-11.5 20.9-24.1 34.5-40.4M96 520.7c12.4-14 26.3-29.8 35-41.5M100 519.8a238.8 238.8 0 0035.7-40.2m-35 41.8c11.4-13.7 23.3-27.4 34.5-41.3m-29.4 39c13.8-12.7 24.8-29.4 33.6-39.4m-34.8 40.6c10.9-12.9 22.7-26.8 35.4-40.7m-31 41.3a763.2 763.2 0 0133.3-42.9m-34.6 43.3a545.3 545.3 0 0035.7-41.2m-29.9 42.2c11.3-16.3 27.5-32.5 36-42.8m-37.6 41.8c11.6-14.6 24.5-28.2 35.5-42.2m-29 42.3c5.3-10.4 11.4-17.5 34-40m-34.8 37.7c9.2-9.9 17.6-20.4 33.5-39.4m-30 40.1c12.3-13.6 25-31.5 34.4-40m-35.5 40c14.7-14.5 27.7-30.6 36.2-39.6m-30 38.4c8-12.6 21.5-24.2 33.4-39.3m-34 40.7c6.9-7.8 13.2-17.9 34.6-39.2M127.4 522c10.9-11.4 19.5-25.9 38-40.4m-36.7 40.1c11.1-15.3 24.7-29.7 34.7-41m-30.3 39c6.2-7 14.9-16 33.3-41.5m-33.1 42.4c9.2-13.5 19.8-25.3 33.8-41.8m-29.7 39.6c9.5-7.1 19-19.5 35.1-40m-35.8 41.9c12.4-14.1 23.1-26.9 34.5-40.6m-32.5 39.1c13.9-12.1 25-22.8 36.6-40m-35 41.4c8.2-9.8 18.8-19.5 34.3-39.9m-30 41c5.9-9.3 14.2-17.3 34.5-42.1m-34 40.3c10.4-12.7 22.3-24 34.3-38.3m-30.5 40.6c10-14.2 21.5-26 33.8-40.8m-35.6 39.2a681.3 681.3 0 0036.3-40m-31.2 39.6c8.1-10.9 19-23.4 36.5-39.7m-36.5 39.5c13.4-16 27-31.9 35.3-39.5m-30.7 39c9-11 20.7-22.6 33.2-40m-34.3 42c12.4-14.2 24.8-28 34.7-41.3M159.8 520c12-12.9 20.9-24.4 34-38.2M159 520c12.9-13.4 25-28.7 35.8-40.4m-29.6 42.1c8-10.3 15.6-20.8 34.4-40.4m-35.3 39.4c8.4-10.8 18.7-21.8 35.2-40m-32.2 38.6c10.8-8.6 20.4-22.9 36.5-38.8m-36.2 40.2a483.5 483.5 0 0034.7-41m-31.2 42c9.8-12.6 22.9-24.4 35.2-41.7m-34.6 40a508 508 0 0036.6-40.8m-31.5 40.5A870.4 870.4 0 01212 479m-35 41a931.7 931.7 0 0134.3-39M179 518.7c11-9.8 22.2-22.7 38-38m-37.5 39.7c8.2-9.8 18-19.4 35.6-40m-30 38.9c8.4-6.7 13.3-17.2 32.3-38.5m-34 40.5c14-16.1 25.5-30.2 35-41.5m-32.3 41.5c11.3-8.6 19.5-18.3 35.7-41.2m-34.3 41c8.5-9 14.6-18.4 34.7-40m-32.3 40c14.8-14 25.8-27.4 36.2-42.6m-35 42.5c12-14.3 25.3-28.4 36.1-40.5m-32 39.4c8-7.7 15.9-20 36.5-38.5m-36 38.2c8.4-8.3 14.5-15.7 34.3-39.4m-31 41.3c9.2-11 16.5-22.4 37.1-40.6m-36 40.2c13-14.8 26.1-31.1 34.4-40.8m-31.4 40.5c11.4-10.7 16.5-18 37-39.5m-35.3 39.2c8.8-11.2 18.2-21.2 34-40.2M206 521c8.2-9.5 16.5-21 33.6-41M208 520.6c9.7-11 20-23.6 34-38m-32.3 37.7c12-8.9 17.5-20.2 31.5-34.5m-28.8 34.6c11.7-13 21.2-25.7 29.4-35m-26 35.5c9.4-11.9 19-22.2 24.8-31.4m-25 31.2c9.8-10.8 20.8-22.3 26.2-29M221 521c6.4-11.6 14.6-18.5 20.3-26m-21 26.7c8-10.1 14.7-19.5 22.2-25.8m-18.3 24.2c3-5 6-8 16-20.3m-17.5 21.5c8.7-7.5 15-15.6 18.9-21.3m-12 18.5c5-2.2 9.1-10.6 13.7-12.4m-16 14.7c6-5.5 9.8-12.1 13.7-16.2m-8.1 15.7c.5-3.3 2.3-5.4 9.4-12.5M230.9 521c2.8-3.6 6.5-7.1 11-11.8m-5.4 11.8c1.3-3.1 4-6 5.4-7.6m-6 7.2c.8-2.1 2.3-3 5.5-7" stroke="var(--interpreter-frame-bg)"/><path d="M81.4 480.2c39.3-.2 80.5 2.6 158.2.3m-159.6.3c56.6-.5 112.6 0 159.7-.8m-1.2-.8c0 9.1.5 18.1-.1 39m2.3-38.3c-1.2 11-1.5 21.7-1.2 39.1m.7 1.7c-42.7 2-86-.3-161.6 1m161.1-2.2c-35.2-1.5-70.7-1.7-159.8.3m-1.2.4c0-14.6 1.5-27 1.8-41.6m-.2 42c-.7-15 .2-28 .5-41.5"/></g><g><path d="M80 520s0 0 0 0m0 0s0 0 0 0m-.2 4.2c1.7-1.2 3-3 4-4m-3.2 4.1c.7-1.5 2.6-3.4 3.4-4.5m-3.2 8.5c2-2.6 4.8-5 6.1-7m-6.7 7.7c2.9-2.6 4.9-6.5 7.3-9.3m-6.3 15.5c2-5.6 4.3-8.7 11.5-15.9m-13.2 13.8c3.5-2 6.6-6.6 13.2-13.8M81.4 540c3.6-9.4 7.5-12.4 15.8-19M79 539.4c5-5.5 9.5-12.2 15.6-18.2m-15 20.2c9-5.1 15.7-13 21-23m-20 25.2c4-6.5 9.3-13.5 18.6-24m-21.3 27.2a112 112 0 0024.3-27.7m-21.7 28c5.8-7 11-12.5 24.4-27.2m-24.8 33.9c9.8-12 15.3-23 26.9-32m-27.7 31.1c10.8-11.3 19.8-21.8 29.3-32.8m-28.2 37.7c13.4-14.3 23.1-29.4 33-39.3m-32.8 38.2c8-9.4 16.4-20 30.5-36.4m-30.8 42a363 363 0 0136.5-41.3m-36.4 39c7.7-8 15.1-16 36-40.9m-31 40.8c10-8.8 17.8-20.7 35.7-40.4M83.4 561c13.8-15 27.6-30.8 35.3-40.8M88 558.9c14.7-12.4 28-27.6 37.8-40.3m-38.1 41a236.7 236.7 0 0036.3-40.4m-29.6 40.7c11.2-14.2 19.5-26.1 33.4-41M93 560.5c13-14.8 25.6-31 34-40m-30 39c9.7-14 23.3-24.8 36.2-38.5m-37.8 40.4c9.2-12.7 20.6-22 36.4-42.4m-33 42.4a426.8 426.8 0 0035.5-41.3m-33.8 40c10.3-10.8 18-21 36-40.4m-31.8 41.3c12.2-14 25-30.5 36-40m-37.4 40a545 545 0 0036.9-41.5M109 560.5c7-11.4 19.8-21.2 33-39.1m-33.5 40c12.1-14.4 25.4-30.2 35.6-41.8m-32.7 42.6c10.9-12.4 15.5-17.4 34.3-42.5M112.8 561c12.9-14 24.2-28 35-41.7M115.4 560c13-13.1 25.9-25 37.1-39.6m-35.3 40.4c7.7-10.3 17.1-22.9 33.6-40.8m-30.2 40.8c10.6-12.3 21.7-23.6 36.4-41m-36.6 40.2c14-14.5 26-28.4 36-40.7m-30.7 40.5c9.3-11.2 19.5-23.2 32.4-39.3m-33.3 39.2c9.8-10.6 20.5-22.4 34.6-38.8m-31.6 40.6c6.4-8.3 14-16.9 37.3-41.1m-36.3 40.4c13.1-16.3 27.7-31.2 35.5-41.3m-30.1 40.4c6.2-11 15-20 31.6-37.5m-33.8 38.2c10-10.8 18.5-19.9 35.2-40.4m-29.8 39.2c9.8-12.4 20.2-23.7 32.2-41.1m-33.1 42.3a484 484 0 0034.6-41.2M140.6 560c11.3-12.8 22.6-23.5 34.5-39M141 560c12.4-14.8 26.2-30.2 34.7-39.5m-29.5 39.1c5.2-8.7 13.8-19.2 34.7-40.8m-35.6 41.5c7.5-9.6 16.3-20.1 33.4-41m-30 40.3c11.9-12.1 21.7-28.5 34-38.9m-34 40c9.8-12.7 19.9-25 34.3-40.3m-32.2 41c13.2-15 25-31.7 36.4-40.8m-35.8 40.6c14.6-15.4 26.3-30.8 36.3-40.1m-30.9 40.2c5.6-9 14.9-21 33.6-39.5M156.3 560c12.2-14.3 24.5-28.5 34.1-39.4m-30 40.2c12.8-15.3 27.3-31.2 33.3-41.3m-33.3 40l35.6-40.3m-32.9 41.2c13.6-12.5 22.7-27.4 36.8-38.8M164.7 561c10.3-14.2 21.6-24.9 34.4-41.5m-31.3 41c12.3-12.4 23.1-24.3 36.8-40.4m-36.2 41.1A356 356 0 01204 520m-33.6 38.6c13.2-11.5 28-27.6 37.5-37.8m-35.2 39c12.4-14.9 24.4-29.3 33.2-38.7m-30 40.2c8.3-10.2 18.4-20 37-42.4m-37.5 42c8.7-8.5 16.6-18.8 35.1-41.6m-30.6 42.5c11.8-11.2 18.4-25.7 34.9-40.3m-34.4 39.4c12.8-14.6 23.6-28.5 34.6-41.7m-32.6 39.5c11-9.1 19.3-19.2 34.7-38.2m-32.4 40.2c8.3-11.5 17-20.7 33.6-40M189.7 561a295.2 295.2 0 0132.5-39.7m-34 39.7c10.6-12.7 22.6-27.8 35.7-41m-32.3 41.8c10.8-13.3 21.3-25 34.3-43.9M192 559.6c8.1-8.8 15.5-18.7 34.5-39.3M194 562.6c13.3-15.8 30-31.6 35.5-44.2m-34.5 43c14-15.7 26.8-29.8 35-41.6m-28.6 41.9c11.3-15 24-30 33-43.8m-33.8 42c13.3-15 27-31.4 35-40.9m-30 40.4c3.8-8.4 13-15.6 32-39.2M203.3 561c13.8-15 25.7-30.8 35.2-39.8m-30.8 39.6c6.5-6 15.5-17 34.3-40.5m-35 40.3c10-10.3 19.8-20 35.4-38m-29.6 36.9c6.8-8.4 18.5-21.2 29.2-33.4m-30.3 34.6c12.6-13.6 23.8-27.5 31-34.3m-26.8 34.8a177 177 0 0024.7-32.2m-23.9 30.3a362 362 0 0025.6-29m-22.1 30c5.4-6.9 15.3-16.2 21.2-25.2m-22.6 25.8c7.7-8.1 16.3-18.5 23.8-26.6m-16.9 25.1c4.1-4.5 9.4-12.8 14.7-18.6m-17 19.4c5.6-6.8 11.5-11.4 17.8-20.6m-13.2 22.9c3-5.1 8.4-11.9 16-18.1M227.3 561c2.7-4.8 8.3-9 15.4-16.8M231 561.4c3.9-3.4 7.5-6.8 10.7-13.1m-9.4 12.8c3.2-4.8 7-9.2 9.5-11.8m-5.4 11.5c1.6-3.2 4.2-4.4 6.3-7.8m-7 6.8c2.9-2.4 4.5-5 6.5-6.6" stroke="var(--sparkplug-frame-bg)"/><path d="M79.9 520.4c41.8.3 81.2-1 160.4-.2m-160.6.4c38.8-.7 76-1.4 160.6-.6m-2 1.2c2.5 9 2.8 16.4 3.5 39.5m-1-41.6c-.9 15.5-.4 30.6-1.7 40m.3 1.1c-38.6-.5-74.7-1.6-157.7-.8m157.8-.3c-37.6-.2-74.8-.1-159.5 1.4m1.5-.8c-1.3-13.4-2-32-1.7-38.9m-.5 39c.7-8.5 1-18.9 1.2-39.3"/></g><g><path d="M80.1 559.9s0 0 0 0m0 0s0 0 0 0m-1 5.1c2-.6 2.5-2 4.5-4.3m-3.8 4.4c1.3-1.8 2.3-3.2 3.8-4.9m-4.4 9.5c4-3.4 7.2-7.2 9.7-9.1m-9.4 8.3c3.6-2.8 6.8-6 8.6-8.8m-10 12.8c4.5-2.3 6.4-6.8 15.2-12m-13.7 13.9c4.5-5.7 7.8-10.8 11.9-15.5M79 578.8c6.7-7.1 12.5-12.3 17.3-17.9m-17.2 16.4c7-6 12-12 17.6-16.2M81 583.5c3.7-6.3 10.6-12.9 19-23.3M80 582c7.5-7.5 15.9-17.3 20.5-21.5M80 587a219.1 219.1 0 0122.9-26.7M80.4 588c6.2-9.7 15.2-17.1 23.3-27.3m-22.4 32.7c8.3-12 15.3-22.2 25.4-33.1m-26.8 31.5c8-9.2 16.5-17.8 28.2-32.5m-28 38.1c7.7-7.1 11.8-15.2 31.9-36M80.8 597c7.4-8.6 14.7-19.4 32.1-37.7m-34 42.3c11.7-10.1 20.5-23.3 36-41m-34.7 39.9c13.6-15.9 27-31 36-40.5M80 606.5a2167 2167 0 0038.3-48.1m-37.7 47c11.2-13.9 21.8-26.7 40-45.4m-40.2 51c12.3-17.9 28.4-32.7 44.3-52.6M80.6 611c10-12.2 18.3-24 42.6-51.9M80 613.3c10.5-8.2 20.7-21.4 46.5-54.7m-46.9 55.6c15-14.3 28.3-31.3 49-55m-47.2 62.2c13.3-15.3 27.4-31.1 49.9-61.3m-51.7 59.6c16.3-18.8 33.1-36.5 52-60.3m-52.6 65c22.2-28 46.5-50.6 58.2-64.1m-56.5 63.5c12.7-15 25.2-29 55.8-63.5M79.8 627c21-23 40.5-47.5 60.5-66.5M79 628.2c21-22.6 38.9-44.6 60.5-69m-58.3 73.1c22.3-24.5 44.1-48.2 63.8-71m-64.2 71.3c14.1-15.4 28.5-32.8 62.9-73.5m-65 77.6c18.7-20 36.5-37.8 70.3-76.7m-70 78.4c23.9-25.2 45.4-52.4 68.2-77.4m-68.3 80c27-31.2 53.8-59 71-82.4m-69.7 82.8c18.6-21.3 37.8-43.7 70.8-81m-70.7 84.8c16.7-18.8 34-38.7 75.5-85.4M80.4 647c25.6-32.6 54.4-63 75-86.6m-76.6 89.8c22-19.7 40-41.6 79.1-91.2m-77.1 92.8c18.5-24.8 40-48 79.5-92.2m-81.8 98c28-35 58.7-66.9 83.4-99.3m-82 97.6c19.3-22.3 40.4-44.5 84.3-95.8M80.5 661.4c30.3-36.6 58.7-71.6 87-100M80 660.4c22.4-26.3 44.5-52 87.5-99.5M81.5 666.3c26.7-33 56.2-63.5 92-107.7M79.3 665.1c34-38.6 68.6-77.4 91.4-106.2M81.3 670.1c33.1-40.3 69.4-80 94.4-110.8M80.5 670c35.7-43.1 74-88 94.3-110M82.1 675.5c33.8-39.2 67.6-82.4 96.7-117M81 674c28.4-35.4 60.5-71.5 99.4-113.9M79.9 679.3c30.9-35.5 65.2-75.3 103-120.2M80.2 679.3c38.2-44.1 76.3-87.8 104.1-120.4M81.3 681c34.5-35.5 66.5-75.8 107.6-121.6m-108 123c36.6-42.6 72.5-83.5 105.3-123.1M84.6 681.9c44-48.4 83.8-94.1 106.8-121.6M86.6 680.4c39.2-45.7 80.2-91.7 105.3-120.8M90.5 681.4c29.9-37 66.4-75.6 106.2-121.5m-107 122c40.2-48 82-95.4 104.3-120.7M92.3 679.9c42.7-44.4 81.6-93 105.2-119.1M92.6 681.3c25.5-29.7 52.1-60 107.4-121.2M99.5 681.7c19.7-26.1 45.5-52 105-120.7M97.8 681.5c25.8-28.8 52.7-59.1 106.3-122m-104 121.2c41.9-44.8 81.6-90.5 105.4-122.4M101.1 681.6c33.8-38.8 66.7-78 105.8-121.6m-99.4 121.7c28.4-33.9 62.5-71.6 102.8-120.5m-105.6 120c43-46.3 83.8-94.1 106.3-121M108.3 682.6c35.8-41.8 69.6-83.6 105.8-124.3M110.7 680.7c28.7-33.3 59-67.9 105-120.5M114.6 681.7c21.6-27.2 45.7-50.3 104.8-121.4M113.5 681.2c36-40.2 71.6-82.2 106.2-120.3M117.4 681c33.3-38.7 68.4-78.9 105.4-120.5M117 680.9c39.8-42.6 78.5-86.3 107.1-121.4M120 682.6c37.1-41 68.4-80 106.2-124.1m-105 123.4c43.2-48.1 83.7-93.8 106.3-120.7M124.9 680.6c39.5-45.5 80.6-91.6 108.1-119M125.6 681.8c32.8-39.5 65.5-77.8 105.2-122.1m-99.5 119.8a2301 2301 0 01102.8-118.9m-104 120.6c26-27.2 50.3-55.2 105-122.3m-100.2 124c39.9-50.2 82.5-100.6 105.8-121.8M133.4 682.4c27.8-34 58-68 105.1-122.2M135.6 679.9c34.9-36 68-75 107.3-117.4M136.7 682c28.6-30.9 53.3-61 105.4-120.5M139.2 679.9c24.4-25.7 50.4-55.7 104.1-111.8m-102.6 114c33.7-38.6 67.4-76.8 100.2-116.3m-95.7 115.8c29-32.9 57.9-64.4 98-110.4m-97.8 110.7c33.2-38.6 67.4-77.2 96.5-110.7m-91.7 110.4c26.2-33.3 53.8-64.9 92-104.1m-92.7 104.2a5930 5930 0 0091.3-107M154 681.8c23.2-29.8 46.4-55.5 86.3-101.2m-88 100.2c22-21.8 44-46 88.5-100m-83.2 99.1c33.1-35.2 66.3-75.3 84.2-94.6m-83.7 96c31.4-35.4 62.7-70.3 83.8-97.2m-82.8 97.1c33-33.6 61.2-64 83.5-93.4M161 681.9c19.3-24.6 40.8-48.9 81.2-92.3m-77 92.5c16.2-20.8 33.3-38.3 76.4-89m-75.8 88.2c30.3-35.1 60.3-68.4 75.7-88.9m-71.8 90c14.8-17.6 28.5-34.1 70.4-83.2m-70.6 81.2c21-23.5 42.5-47.4 71.7-82.3m-68.7 82.1c23.6-26.1 52.4-55.8 68.3-79.3m-68.1 81.8c23.7-29.3 47-55.6 68.3-80.5m-64.9 78.2c18.2-19.4 35.9-36.6 65.4-71.2m-65.1 72.6c23.6-26.4 47.9-54 65.6-74m-61.6 75.6c23.2-28.8 46.7-52.2 62.5-73m-62.1 72c16.7-20.7 34.3-39.8 60.4-70m-56 70.7c16.3-19.4 29.6-36.6 57-66.5m-57.6 65.1l56-65.8m-51.3 65.7c15.8-20 32.6-40 52-59.7m-52.8 60.2c20-23.1 39.7-46.8 53.8-61.3m-48.2 62c13.3-17.6 30-36.2 47.5-58.3m-47.8 56.4c15.7-18.2 32.1-36.6 47.9-56.6M198.4 682c7.8-10.3 16.7-24 42.3-51.8m-44 51.6c10.9-12.5 22-24.3 44.3-52.3M202 680.3c10.9-15 25-28 39.8-47m-39.8 48c14-16.9 28.8-34.5 39.5-47.2m-38 49a364.7 364.7 0 0039.3-43.8m-37.5 41.3c12.9-13.5 25.8-28 36.7-40.9m-34.4 42.1c14-13.5 25-24 35.4-39m-34.6 39.4c9.4-9.7 16.8-19.9 34-39.5m-31.1 40.2c8.5-10.3 21-22.4 30-34.5m-28.8 32.5c7-6.6 13.4-14.1 29.6-32.9M216.2 681c5.2-4.8 14-11.4 25.5-26.1m-25 25.9c5.7-6.2 11-11.8 24.4-28.4m-19.7 28.4c9.8-7.4 15.5-18.3 22-24.1M220.5 681c5.8-6.1 9.5-9.7 20.6-23M223 679.9c9.5-7.5 15.5-12.2 18.2-17.3m-16 20c4-4.7 7-9.5 17.2-20.6m-15.2 20.3c5.1-3.8 8.7-9.2 15-13.5m-12.4 13.2c2.6-5.4 7.5-9.2 11.5-14.8m-7.6 13.9c2.1-2 4-7 7.8-10m-8.7 11.4c2.4-3.2 5.7-5.9 8.7-11.3m-4.8 11.2c1.6-3.2 4.3-5.4 5.5-6.7M237 681c1.6-1.4 3.6-3.8 5-5.9" stroke="var(--interpreter-frame-bg)"/><path d="M80.9 560.1c43-1.7 84 1.2 157.9-.8m-158.5.8c36.7-.2 75.4.6 159.1.4m-.5-2.1c-1.9 28.5-1.3 55.8-.2 122.4m.5-120.6c1.8 44.1 2.5 88.3.2 119m-1 2.5c-29.3-5.2-63.2-3.7-157.1-2.5m158.5 1.7c-58.2-.8-115.1-1.3-159.9-1.3m.4-1.4c-.2-41.6-1.2-82.8 1.1-117.4M79.7 679c-1.6-44.4.2-90-.6-119.5"/></g></g><path d="M79.5 21.6c34.4-.7 70.8.3 158.8-.6M80 20c64.8-.5 128.7-.6 159.9.5" stroke="rgba(0,0,0,0.5)" fill="none"/><text x="160" y="40" text-anchor="middle" dominant-baseline="middle" style="transform-origin:160px 40px" fill="rgba(0,0,0,0.5)">Return address</text><path d="M80 61.9c46.5-1.9 94.9-1.8 161.8-.5M79.5 59c58.5-.8 118.5.2 160.2 0" stroke="rgba(0,0,0,0.5)" fill="none"/><path d="M-1 59c126.3 1.7 251.2 1.1 431.3 1.3" stroke="rgba(0,0,100,0.5)" stroke-width="2" fill="none" stroke-dasharray="8"/><text x="160" y="80" text-anchor="middle" dominant-baseline="middle" style="transform-origin:160px 80px" fill="rgba(0,0,0,0.5)">Caller frame ptr</text><path d="M88.7 75.2c-11-.1-28.2-.4-36.9.5m37.9-.7c-8.2.2-19.7 1-39 1.6m-.6-1.1c.4-28.5-1.5-57.5-1.5-91.8m2.4 93a631.6 631.6 0 01-.5-92.9m-1.8-1.4c11.9 2.6 23.2 2.8 31 0M49.5-16c10.2.2 20.2.8 31.4.6m-.1-.5c-4.2-2.5-6.3-4.7-11.7-8.2m11.4 7.8c-3.4-1.6-7.6-4.7-10-6.2m9.1 6.6c-3 1.7-8.6 4.7-10.1 8m10.9-7.7c-3.9 1.9-7 4.5-10.3 6.4" stroke="rgba(0,0,0,0.5)" stroke-width="2" fill="none"/><path d="M81.8 100.7c51.2-1.7 104.1-1 159.8-.6m-160.7.5c63-1.6 125.6-2.4 158.3-1.2M80.5 160.3c34.6.4 70-2 160.8-1.2m-161 1.4c60-.2 118.9.3 159-.5" stroke="rgba(0,0,0,0.5)" fill="none"/><text x="160" y="130" text-anchor="middle" dominant-baseline="middle" style="transform-origin:160px 130px" fill="rgba(0,0,0,0.25)">&lt;function locals&gt;</text><text x="160" y="180" text-anchor="middle" dominant-baseline="middle" style="transform-origin:160px 180px">Argument N</text><path d="M81.8 200c41.7-1.9 86-2.4 156.4 1M81 199.5c47-1.2 95.2.3 158.9 1.2" stroke="rgba(0,0,0,1)" fill="none"/><text x="160" y="220" text-anchor="middle" dominant-baseline="middle" style="transform-origin:160px 220px">⋮</text><path d="M78.6 239.3c47.6-.5 88.8-.3 160.8 1.2M80 239.8c37.8 0 77 0 159.5-.5" stroke="rgba(0,0,0,1)" fill="none"/><text x="160" y="260" text-anchor="middle" dominant-baseline="middle" style="transform-origin:160px 260px">Argument 0</text><path d="M80 278.4c38 2.8 75.7 4.6 160.8 3.6m-160.3-1.6c50-1.3 99 .3 159.7-.6" stroke="rgba(0,0,0,1)" fill="none"/><text x="160" y="300" text-anchor="middle" dominant-baseline="middle" style="transform-origin:160px 300px">Return address</text><path d="M80.6 318.6c39.4 3.5 78 .8 159.2.7m-159.7 1.6c50.1-.2 99.6-.1 160-.5" stroke="rgba(0,0,0,1)" fill="none"/><path d="M.8 320.7c128.3 1.3 255.9 1 429.5-1.1" stroke="rgba(0,0,100,0.5)" stroke-width="2" fill="none" stroke-dasharray="8"/><text x="160" y="340" text-anchor="middle" dominant-baseline="middle" style="transform-origin:160px 340px">Caller frame ptr</text><path d="M88.2 334.7c-11.6 2-24.9 0-39 .7m39.8 1.5c-9-.2-17.1-.4-38.2-1.6m-1.2.3c.3-94.9 1.8-187 .7-250.5m-.2 250.3c.5-97 .4-194.2 0-251m-.8 0c6.3-1 11.2 1.7 31.6-2m-31.3.7c11.3.8 22.4 1.1 30.7.2m.8 0c-4.4-1-7.4-4-10.5-7m9.2 8.2c-3.5-3-7-5.2-10.3-7.4M81 83c-3.5 3.8-5.5 5-11.2 8.5m10.7-6.8c-2 1.2-5.2 2.8-11 6.2" stroke="rgba(0,0,0,0.8)" stroke-width="2" fill="none"/><path d="M78 362c63.2-2 122.8-2.2 160.1-3.2M80 361c43.5-.3 88.4-1.4 159.4 0" stroke="rgba(0,0,0,1)" fill="none"/><path d="M288.5 341.4c-14-1.3-26.9-2-38.1-2.7m40 .5c-14.4.2-27.6.9-41.3.4m1 1.2c4-3.8 6.5-4.7 9.6-8m-9.4 6.9c3-1.7 6.3-4.6 9.9-6.8M249 339.8l11.4 6.6m-11-6.7c2.4 2 5.1 2.7 11 7.7" stroke="rgba(0,0,0,0.8)" stroke-width="2" fill="none"/><text x="300" y="340" text-anchor="right" dominant-baseline="middle" style="transform-origin:300px 340px">Frame pointer</text><text x="160" y="380" text-anchor="middle" dominant-baseline="middle" style="transform-origin:160px 380px">JS Context</text><path d="M81.8 400.7c36.1-1 70-2 158.4.2M80 400.7c48.4-.2 96 .3 160.7-1.6" stroke="rgba(0,0,0,1)" fill="none"/><text x="160" y="420" text-anchor="middle" dominant-baseline="middle" style="transform-origin:160px 420px">JS Function</text><path d="M78.1 439c34.7-1 65.8 1.6 160.2-.5m-157.5 1c45.6.7 92.5-1.1 159 .2" stroke="rgba(0,0,0,1)" fill="none"/><text x="160" y="460" text-anchor="middle" dominant-baseline="middle" style="transform-origin:160px 460px">Argument count</text><path d="M81.5 480.2c43.8 2.2 85.3-.6 158.3 1.5m-159.9-1.1c33.4-1 64.7-.5 159.4 0" stroke="rgba(0,0,0,1)" fill="none"/><text x="160" y="500" text-anchor="middle" dominant-baseline="middle" style="transform-origin:160px 500px">Bytecode array</text><path d="M79.6 519.2c56.9-1.8 115.6-2 161.2 1.7m-160.6-.3c42-2.3 83.8-2.7 160.3-.8" stroke="rgba(0,0,0,1)" fill="none"/><text x="160" y="540" text-anchor="middle" dominant-baseline="middle" style="transform-origin:160px 540px">Feedback vector</text><path d="M79.7 560c49.3 1.7 94.6 1.2 161.4-.6m-160.5 0c45.3 1.1 92.7.2 159.8.5" stroke="rgba(0,0,0,1)" fill="none"/><text x="160" y="580" text-anchor="middle" dominant-baseline="middle" style="transform-origin:160px 580px">Register 0</text><path d="M78.8 598.2c57 2.1 116 1.8 161.3 3.7m-159.6-1.2a2272 2272 0 01158.6-.3" stroke="rgba(0,0,0,1)" fill="none"/><text x="160" y="620" text-anchor="middle" dominant-baseline="middle" style="transform-origin:160px 620px">⋮</text><path d="M80.9 639.6c39.5 2.1 78.6 2.2 160.3-1.2M80.6 640c35 1 71.6 1.5 159 .6" stroke="rgba(0,0,0,1)" fill="none"/><text x="160" y="660" text-anchor="middle" dominant-baseline="middle" style="transform-origin:160px 660px">Register N</text><path d="M81.2 681.6c37-1.2 75.4-2.2 160.5-2.5M81 680.6c36.6-.7 75.1-2 159.3-1" stroke="rgba(0,0,0,1)" fill="none"/><path d="M78.2.7C115.7 3.1 153.5 2 239.5-.9M80.5 1c41.5-1 83.3-2 160.3-.3m-.2-1.2c0 265.4-.1 529.5-.5 680.4m.1-680a48339 48339 0 000 680.3m1.3 1.7c-42.9-1.8-84.2.3-162 .2m160.4-2.4c-53-1.2-107-.6-160-.4m-.1 1.4c3.2-203.4 3-407 .3-680.6m-.3 680.1C78 470.7 78.5 261 80.2.1" stroke="rgba(0,0,0,0.6)" stroke-width="2" fill="none"/><path d="M290.3 700c-16.3-1.8-28.9.1-40.4.2m41 .6c-12.7.1-23.2-.5-41.5-1.2m1-.2c3.7-.6 5.7-3.5 10.7-5.6m-11.1 5.7c3.5-2.7 7.9-4.3 9.6-6.5m-8.6 8a15 15 0 018.4 6.6m-8.8-7c2.4 1.9 5.6 3.6 9.6 6" stroke="rgba(0,0,0,0.8)" stroke-width="2" fill="none"/><text x="300" y="700" text-anchor="right" dominant-baseline="middle" style="transform-origin:300px 700px">Stack pointer</text><text x="160" y="700" text-anchor="middle" dominant-baseline="middle" style="transform-origin:160px 700px" fill="rgba(0,0,0,0.5)" font-style="italic">end of stack</text></g></svg>