<svg fill="none" height="520" stroke-linecap="square" stroke-miterlimit="10" width="842" xmlns="http://www.w3.org/2000/svg" xmlns:xlink="http://www.w3.org/1999/xlink"><clipPath id="a"><path d="m55 107.167h761v327.955h-761z"/></clipPath><path d="m0 0h842v520h-842z" fill="#fff"/><path d="m55.5 435.5h761" stroke="#333" stroke-linecap="butt"/><path d="m55.5 353.5h761m-761-82h761m-761-82h761m-761-82h761" stroke="#ccc" stroke-linecap="butt"/><path clip-path="url(#a)" d="m135 435h-38v-162a2 2 0 0 1 2-2h34a2 2 0 0 1 2 2z"/><path clip-path="url(#a)" d="m135 435h-38v-162a2 2 0 0 1 2-2h34a2 2 0 0 1 2 2z" fill="#4285f4"/><path clip-path="url(#a)" d="m255 435h-38v-162a2 2 0 0 1 2-2h34a2 2 0 0 1 2 2z"/><path clip-path="url(#a)" d="m255 435h-38v-162a2 2 0 0 1 2-2h34a2 2 0 0 1 2 2z" fill="#4285f4"/><path clip-path="url(#a)" d="m375 435h-38v-162a2 2 0 0 1 2-2h34a2 2 0 0 1 2 2z"/><path clip-path="url(#a)" d="m375 435h-38v-162a2 2 0 0 1 2-2h34a2 2 0 0 1 2 2z" fill="#4285f4"/><path clip-path="url(#a)" d="m494 435h-38v-162a2 2 0 0 1 2-2h34a2 2 0 0 1 2 2z"/><path clip-path="url(#a)" d="m494 435h-38v-162a2 2 0 0 1 2-2h34a2 2 0 0 1 2 2z" fill="#4285f4"/><path clip-path="url(#a)" d="m614 435h-38v-162a2 2 0 0 1 2-2h34a2 2 0 0 1 2 2z"/><path clip-path="url(#a)" d="m614 435h-38v-162a2 2 0 0 1 2-2h34a2 2 0 0 1 2 2z" fill="#4285f4"/><path clip-path="url(#a)" d="m734 435h-38v-162a2 2 0 0 1 2-2h34a2 2 0 0 1 2 2z"/><path clip-path="url(#a)" d="m734 435h-38v-162a2 2 0 0 1 2-2h34a2 2 0 0 1 2 2z" fill="#4285f4"/><path clip-path="url(#a)" d="m174 435h-38v-245a2 2 0 0 1 2-2h34a2 2 0 0 1 2 2z"/><path clip-path="url(#a)" d="m174 435h-38v-245a2 2 0 0 1 2-2h34a2 2 0 0 1 2 2z" fill="#6aa84f"/><path clip-path="url(#a)" d="m294 435h-38v-273a2 2 0 0 1 2-2h34a2 2 0 0 1 2 2z"/><path clip-path="url(#a)" d="m294 435h-38v-273a2 2 0 0 1 2-2h34a2 2 0 0 1 2 2z" fill="#6aa84f"/><path clip-path="url(#a)" d="m414 435h-38v-275a2 2 0 0 1 2-2h34a2 2 0 0 1 2 2z"/><path clip-path="url(#a)" d="m414 435h-38v-275a2 2 0 0 1 2-2h34a2 2 0 0 1 2 2z" fill="#6aa84f"/><path clip-path="url(#a)" d="m533 435h-38v-324a2 2 0 0 1 2-2h34a2 2 0 0 1 2 2z"/><path clip-path="url(#a)" d="m533 435h-38v-324a2 2 0 0 1 2-2h34a2 2 0 0 1 2 2z" fill="#6aa84f"/><path clip-path="url(#a)" d="m653 435h-38v-196a2 2 0 0 1 2-2h34a2 2 0 0 1 2 2z"/><path clip-path="url(#a)" d="m653 435h-38v-196a2 2 0 0 1 2-2h34a2 2 0 0 1 2 2z" fill="#6aa84f"/><path clip-path="url(#a)" d="m773 435h-38v-246a2 2 0 0 1 2-2h34a2 2 0 0 1 2 2z"/><path clip-path="url(#a)" d="m773 435h-38v-246a2 2 0 0 1 2-2h34a2 2 0 0 1 2 2z" fill="#6aa84f"/><path d="m32.063 435.981q0 1.906-.657 2.844-.64.922-2.031.922-1.36 0-2.016-.907-.656-.906-.687-2.718v-1.438q0-1.89.64-2.797.657-.922 2.047-.922 1.375 0 2.032.891.656.875.672 2.719zm-1.094-1.484q0-1.375-.39-2-.376-.641-1.22-.641-.828 0-1.218.64-.375.626-.375 1.923v1.734q0 1.375.39 2.047.407.656 1.219.656.797 0 1.188-.625.39-.625.406-1.953zm2.875 4.562q0-.281.156-.469.172-.187.5-.187.344 0 .516.187.172.188.172.47 0 .265-.172.452-.172.172-.516.172-.328 0-.5-.172-.156-.187-.156-.453zm8.218-3.078q0 1.906-.656 2.844-.64.922-2.031.922-1.36 0-2.016-.907-.656-.906-.687-2.718v-1.438q0-1.89.64-2.797.657-.922 2.047-.922 1.375 0 2.032.891.656.875.672 2.719v1.406zm-1.093-1.484q0-1.375-.39-2-.376-.641-1.22-.641-.828 0-1.218.64-.375.626-.375 1.923v1.734q0 1.375.39 2.047.407.656 1.219.656.797 0 1.188-.625.39-.625.406-1.953zm2.547 3.203 1.937-1.969-1.922-1.969.703-.719 1.922 1.954 1.938-1.954.687.72-1.922 1.968 1.938 1.969-.703.719-1.938-1.985-1.937 1.984zm-11.453-83.708q0 1.906-.657 2.844-.64.922-2.031.922-1.36 0-2.016-.906-.656-.907-.687-2.72v-1.437q0-1.89.64-2.796.657-.922 2.047-.922 1.375 0 2.032.89.656.875.672 2.719zm-1.094-1.484q0-1.375-.39-2-.376-.64-1.22-.64-.828 0-1.218.64-.375.625-.375 1.922v1.734q0 1.375.39 2.047.407.656 1.219.656.797 0 1.188-.625.39-.625.406-1.953zm2.875 4.562q0-.28.156-.468.172-.188.5-.188.344 0 .516.188.172.187.172.468 0 .266-.172.454-.172.171-.516.171-.328 0-.5-.171-.156-.188-.156-.454zm3.36-3.718.437-4.25h4.375v1h-3.453l-.266 2.328q.64-.375 1.437-.375 1.157 0 1.844.781.688.766.688 2.078 0 1.313-.72 2.078-.702.766-1.983.766-1.126 0-1.844-.625-.719-.64-.813-1.75h1.016q.11.734.531 1.11.422.374 1.11.374.75 0 1.187-.515.438-.516.438-1.422 0-.86-.47-1.375-.468-.516-1.25-.516-.702 0-1.109.297l-.28.234-.876-.218zm6.312 2.359 1.937-1.969-1.922-1.969.703-.718 1.922 1.953 1.938-1.953.687.719-1.922 1.968 1.938 1.969-.703.719-1.938-1.985-1.937 1.985zm-13.25-80.067h-1.078v-7.219l-2.188.797v-.984l3.11-1.172h.156zm3.578-.562q0-.282.156-.47.172-.187.5-.187.344 0 .516.188.172.187.172.469 0 .265-.172.453-.172.172-.516.172-.328 0-.5-.172-.156-.188-.156-.453zm8.218-3.079q0 1.907-.656 2.844-.64.922-2.031.922-1.36 0-2.016-.906-.656-.906-.687-2.719v-1.437q0-1.891.64-2.797.657-.922 2.047-.922 1.375 0 2.032.89.656.875.672 2.72v1.405zm-1.093-1.484q0-1.375-.39-2-.376-.64-1.22-.64-.828 0-1.218.64-.375.625-.375 1.922v1.734q0 1.375.39 2.047.407.656 1.219.656.797 0 1.188-.625.39-.625.406-1.953v-1.78zm2.547 3.203 1.937-1.969-1.922-1.968.703-.719 1.922 1.953 1.938-1.953.687.719-1.922 1.968 1.938 1.97-.703.718-1.938-1.984-1.937 1.984zm-13.25-80.067h-1.078v-7.218l-2.188.797v-.985l3.11-1.172h.156zm3.578-.562q0-.281.156-.469.172-.187.5-.187.344 0 .516.187.172.188.172.469 0 .266-.172.453-.172.172-.516.172-.328 0-.5-.172-.156-.187-.156-.453zm3.36-3.719.437-4.25h4.375v1h-3.453l-.266 2.328q.64-.375 1.437-.375 1.157 0 1.844.782.688.765.688 2.078 0 1.312-.72 2.078-.702.765-1.983.765-1.126 0-1.844-.625-.719-.64-.813-1.75h1.016q.11.735.531 1.11.422.375 1.11.375.75 0 1.187-.516.438-.515.438-1.422 0-.86-.47-1.375-.468-.515-1.25-.515-.702 0-1.109.297l-.28.234-.876-.219zm6.312 2.36 1.937-1.97-1.922-1.968.703-.719 1.922 1.953 1.938-1.953.687.719-1.922 1.969 1.938 1.969-.703.718-1.938-1.984-1.937 1.984zm-11.219-80.067h-5.594v-.782l2.953-3.28q.657-.75.907-1.204.25-.469.25-.969 0-.672-.407-1.093-.39-.438-1.078-.438-.797 0-1.25.469-.453.453-.453 1.281h-1.078q0-1.187.75-1.906.765-.735 2.031-.735 1.203 0 1.89.625.688.625.688 1.672 0 1.25-1.61 3l-2.28 2.469h4.28v.89zm1.547-.563q0-.281.156-.469.172-.187.5-.187.344 0 .516.187.172.188.172.47 0 .265-.172.452-.172.172-.516.172-.328 0-.5-.172-.156-.187-.156-.453zm8.218-3.078q0 1.906-.656 2.844-.64.922-2.031.922-1.36 0-2.016-.907-.656-.906-.687-2.718v-1.438q0-1.89.64-2.797.657-.922 2.047-.922 1.375 0 2.032.891.656.875.672 2.719v1.406zm-1.093-1.484q0-1.375-.39-2-.376-.641-1.22-.641-.828 0-1.218.64-.375.626-.375 1.923v1.734q0 1.375.39 2.047.407.656 1.219.656.797 0 1.188-.625.39-.625.406-1.953zm2.547 3.203 1.937-1.969-1.922-1.969.703-.718 1.922 1.953 1.938-1.953.687.718-1.922 1.969 1.938 1.969-.703.719-1.938-1.985-1.937 1.985-.703-.72zm65.507 353.962-.115-7.44 1.16-.423-.062 9.102-.925.336-5.884-6.937 1.145-.417 4.68 5.78zm7.824-7.969q.22.602.067 1.19-.152.587-.584 1.044.713.04 1.272.434.554.38.795 1.041.374 1.028-.101 1.916-.466.868-1.611 1.285-1.16.422-2.09.062-.92-.38-1.293-1.408-.24-.661-.075-1.303.16-.657.695-1.151-.625-.072-1.104-.43-.48-.357-.699-.96-.369-1.012.064-1.835.427-.837 1.498-1.227 1.058-.385 1.923-.018.874.347 1.243 1.36zm.526 4.049q-.246-.676-.821-.932-.581-.27-1.271-.02-.69.252-.961.833-.262.56-.01 1.25.245.676.8.923.55.232 1.27-.03.705-.257.972-.803t.02-1.221zm-3.387-4.554q-.602.22-.845.74-.233.5.002 1.146.22.602.725.85.506.249 1.108.03.617-.225.845-.74.228-.516.009-1.118-.225-.616-.745-.859-.526-.257-1.099-.05zm11.11 2.657-.184-5.12 1.042-.38.026 6.741-.778.284-4.328-5.176 1.043-.38 3.18 4.031zm6.544-9.249-.609 8.652-1.072.39.69-8.382-4.33 1.576-.305-.837 5.418-1.971zm4.044 6.36q-.096-.264-.013-.494.097-.235.405-.347.323-.118.549 0 .226.117.322.381.09.25-.007.485-.102.22-.426.338-.308.112-.528.01-.211-.123-.302-.373zm1.885-4.644-1.043-4.143 4.112-1.496.342.94-3.245 1.18.546 2.28q.474-.572 1.223-.845 1.086-.395 2 .104.908.484 1.357 1.717.448 1.234.035 2.199-.399.96-1.603 1.398-1.057.385-1.946.043-.895-.356-1.362-1.366l.954-.348q.354.653.879.861.524.208 1.17-.027.705-.256.94-.89.235-.635-.075-1.486-.294-.808-.911-1.132-.617-.324-1.351-.057-.66.24-.94.658l-.185.317zm91.296 13.35-.114-7.44 1.16-.423-.063 9.102-.925.336-5.884-6.937 1.146-.417 4.68 5.78zm7.825-7.969q.219.602.067 1.19-.152.587-.585 1.044.713.04 1.273.434.554.38.794 1.041.374 1.028-.1 1.916-.466.868-1.612 1.285-1.16.422-2.089.062-.92-.38-1.294-1.408-.24-.661-.075-1.303.16-.657.695-1.151-.625-.072-1.104-.43-.48-.357-.698-.96-.37-1.012.063-1.835.427-.837 1.499-1.227 1.057-.385 1.922-.018.875.347 1.244 1.36zm.525 4.049q-.245-.676-.82-.932-.582-.27-1.272-.02-.69.252-.96.833-.262.56-.011 1.25.246.676.801.923.55.232 1.27-.03.704-.257.971-.803t.021-1.221zm-3.386-4.554q-.602.22-.845.74-.234.5.001 1.146.22.602.726.85.506.249 1.108.03.616-.225.844-.74.229-.516.01-1.118-.225-.616-.746-.859-.526-.257-1.098-.05zm11.11 2.657-.185-5.12 1.043-.38.026 6.741-.778.284-4.328-5.176 1.042-.38zm6.543-9.249-.608 8.652-1.072.39.69-8.382-4.331 1.576-.305-.836 5.418-1.972zm4.045 6.36q-.097-.264-.014-.494.097-.235.406-.347.323-.118.548 0 .226.117.322.381.091.25-.006.485-.103.22-.426.338-.308.112-.529.01-.21-.123-.301-.373zm3.97-9.925.31.851-.192.07q-1.178.462-1.632 1.409-.459.932-.127 2.208.384-.955 1.47-1.35 1.043-.38 1.941.125.899.504 1.327 1.679.448 1.233.046 2.228-.403.994-1.548 1.411-1.146.417-2.186-.202-1.03-.64-1.538-2.034l-.14-.382q-.806-2.217-.294-3.734.512-1.516 2.371-2.21l.191-.07zm-.022 4.098q-.529.193-.857.661-.328.469-.328 1.018l.134.367q.363.998 1.023 1.44.674.436 1.335.195.69-.25.904-.894.21-.658-.09-1.48-.299-.823-.877-1.178-.583-.37-1.244-.129zm89.233 14.533-.115-7.44 1.16-.423-.062 9.102-.925.336-5.884-6.937 1.145-.417 4.68 5.78zm7.824-7.969q.22.602.067 1.19-.152.587-.584 1.044.713.04 1.272.434.554.38.795 1.041.374 1.028-.101 1.916-.466.868-1.611 1.285-1.16.422-2.09.062-.92-.38-1.293-1.408-.24-.661-.075-1.303.16-.657.695-1.151-.625-.072-1.104-.43-.48-.357-.699-.96-.369-1.012.064-1.835.427-.837 1.499-1.227 1.057-.385 1.922-.018.874.347 1.243 1.36zm.526 4.049q-.246-.676-.821-.932-.581-.27-1.271-.02-.69.252-.961.833-.262.56-.01 1.25.245.676.8.923.55.232 1.27-.03.705-.257.972-.803t.02-1.221zm-3.387-4.554q-.602.22-.845.74-.233.5.002 1.146.22.602.725.85.506.249 1.108.03.617-.225.845-.74.228-.516.009-1.118-.225-.616-.745-.859-.526-.257-1.099-.05zm11.11 2.657-.184-5.12 1.042-.38.026 6.741-.778.284-4.328-5.176 1.043-.38 3.18 4.031zm6.544-9.249-.609 8.652-1.072.39.69-8.382-4.33 1.576-.305-.836 5.418-1.972zm4.044 6.36q-.096-.264-.013-.494.097-.235.405-.347.323-.118.549 0 .226.117.322.381.09.25-.007.485-.102.22-.425.338-.309.112-.53.01-.21-.123-.301-.373zm5.353-9.78-.609 8.652-1.072.39.69-8.382-4.33 1.576-.305-.837 5.418-1.972zm-1.263 43.43 1.072-.39 2.068 5.682q.417 1.146-.048 2.063-.455.897-1.6 1.314-1.19.433-2.09.062-.884-.376-1.285-1.477l1.057-.385q.251.69.763.953.52.243 1.24-.02.66-.24.907-.795.256-.576-.01-1.31zm9.657 5.564q-.152-.144-.377-.578-.432 1.006-1.416 1.364-.88.32-1.635.03-.74-.297-1.023-1.075-.336-.925.181-1.695.518-.77 1.81-1.24l.984-.359-.171-.47q-.193-.528-.628-.72-.426-.21-1.057.02-.543.198-.809.61-.27.398-.127.794l-1.027.375q-.166-.456-.007-.979.173-.529.63-.961.453-.448 1.1-.683 1.042-.38 1.802-.074.774.3 1.13 1.185l.999 2.746q.299.822.68 1.232l.033.088zm-1.972-.163q.485-.177.82-.581.335-.405.381-.87l-.443-1.22-.793.29q-1.88.683-1.479 1.784.171.47.596.632.419.146.918-.035zm6.33-2.986-.185-5.12 1.043-.38.026 6.741-.779.284-4.328-5.176 1.043-.38zm7.858-1.297q-.152-.144-.377-.578-.432 1.005-1.416 1.363-.88.321-1.635.03-.74-.296-1.023-1.074-.336-.925.181-1.695.518-.77 1.81-1.241l.984-.358-.171-.47q-.193-.529-.628-.72-.426-.21-1.057.02-.543.197-.809.61-.27.398-.126.794l-1.028.374q-.166-.455-.007-.978.173-.529.63-.962.453-.447 1.1-.682 1.042-.38 1.802-.074.774.3 1.13 1.185l.999 2.746q.299.822.68 1.232l.033.088zm-1.972-.164q.485-.176.82-.58.335-.405.381-.871l-.443-1.219-.793.289q-1.88.684-1.479 1.785.171.47.596.631.419.147.918-.035zm6.091-5.376q-1.495.095-2.335-.248-.825-.348-1.13-1.185-.341-.94.183-1.829.534-.909 1.752-1.352.823-.3 1.586-.212.764.088 1.32.518.57.424.815 1.1l-1.072.39q-.267-.734-.886-.975-.605-.245-1.442.06-.778.283-1.09.796-.318.498-.099 1.1.182.499.716.687.549.183 1.649.098 1.1-.084 1.78.05.696.13 1.126.489.445.353.664.955.358.984-.192 1.85-.55.864-1.813 1.324-.836.305-1.673.243-.823-.066-1.417-.465-.585-.419-.836-1.11l1.057-.384q.262.72.96.948.699.228 1.594-.098.837-.305 1.155-.803.312-.513.098-1.1-.214-.587-.742-.76-.529-.174-1.728-.087zm7.483.502q.543-.197.837-.67.288-.487.15-1.002l.97-.353q.157.524-.01 1.117-.157.573-.599 1.05-.427.471-1.044.695-1.218.444-2.232-.102-1.004-.565-1.517-1.975l-.064-.176q-.315-.866-.253-1.654.077-.793.531-1.374.463-.6 1.285-.9.999-.363 1.879-.002.889.342 1.286 1.295l-.97.352q-.257-.571-.787-.794-.53-.223-1.103-.014-.778.283-1 .996-.224.713.161 1.77l.07.191q.374 1.028 1.003 1.43.629.404 1.407.12zm4.56-6.565q-.245.056-.51.153-1.012.368-1.055 1.348l1.54 4.229-1.014.369-2.17-5.962.984-.358.266.685q.21-.974 1.136-1.311.293-.107.482-.092l.342.94zm3.821 4.33-1.013.368-2.17-5.96 1.013-.37zm-3.843-7.132q-.09-.25-.008-.479.098-.235.391-.342.294-.107.505.016.226.117.316.367.086.235-.012.47-.088.215-.381.322-.294.107-.514.004-.211-.123-.297-.358zm9.524 1.772q.492 1.35.18 2.412-.312 1.061-1.384 1.451-1.087.396-1.954-.07l1.042 2.863-1.013.369-3.004-8.252.925-.336.285.644q.353-.993 1.454-1.394 1.072-.39 1.983.193.925.578 1.449 2.017zm-1.056.25q-.368-1.012-1.017-1.425-.64-.432-1.389-.16-.925.337-1.086 1.31l1.037 2.849q.754.657 1.694.315.734-.268.952-.995.226-.748-.19-1.893zm2.358-5.812.523 1.439 1.101-.401.29.793-1.102.4 1.341 3.686q.134.367.345.49.21.123.563-.006.176-.064.463-.235l.3.822q-.354.262-.736.401-.675.246-1.177-.037-.508-.297-.786-1.06l-1.34-3.686-1.087.395-.289-.793 1.087-.395-.524-1.44zm10.196 1.792q.313 1.317-.223 2.31-.542.978-1.849 1.454-1.424.519-2.644-.185-1.226-.717-1.851-2.435l-.278-.764q-.406-1.116-.32-2.112.087-.995.655-1.718.569-.722 1.523-1.07 1.277-.465 2.303-.023 1.04.436 1.626 1.636l-1.057.385q-.494-.901-1.104-1.161-.61-.26-1.447.044-1.013.37-1.314 1.326-.3.958.203 2.338l.283.778q.476 1.307 1.302 1.887.821.566 1.805.208.88-.32 1.206-.888.32-.582.124-1.625zm1.008-.932q-.315-.866-.234-1.694.096-.833.579-1.424.478-.606 1.256-.89 1.218-.443 2.272.121 1.068.56 1.58 1.969l.028.073q.315.866.228 1.68-.086.812-.559 1.433-.477.606-1.285.9-1.204.439-2.272-.12-1.059-.58-1.566-1.974zm1.076-.242q.358.984 1.032 1.42.69.431 1.453.153.778-.283 1.014-1.05.23-.783-.17-1.884-.353-.969-1.042-1.4-.68-.451-1.458-.168-.749.273-1 1.046-.24.753.17 1.883zm7.926-5.312q-.245.056-.51.152-1.013.369-1.055 1.349l1.54 4.228-1.014.369-2.17-5.961.984-.358.266.684q.21-.974 1.135-1.31.294-.108.482-.093zm5.23 3.95q-1.22.443-2.272-.072-1.042-.535-1.529-1.871l-.064-.176q-.326-.896-.24-1.709.082-.828.545-1.428.472-.621 1.177-.878 1.16-.422 2.084.106.924.529 1.442 1.953l.155.426-4.037 1.47q.35.87 1.032 1.236.697.362 1.46.084.529-.192.816-.546.301-.36.461-.833l.793.26q-.326 1.432-1.824 1.977zm-2.078-5.297q-.617.224-.877.835-.25.59-.045 1.43l2.98-1.085-.026-.074q-.327-.762-.864-1.049-.522-.292-1.168-.057zm9.475.908-.184-5.121 1.043-.38.026 6.742-.779.283-4.328-5.175 1.043-.38 3.18 4.03zm9.327-1.832-5.256 1.913-.268-.734 1.653-4.093q.36-.93.44-1.44.075-.527-.096-.997-.23-.631-.756-.888-.517-.278-1.163-.043-.748.273-1.014.868-.27.58.012 1.36l-1.013.368q-.406-1.116.053-2.048.468-.952 1.658-1.385 1.13-.411 1.99-.06.86.353 1.218 1.337.428 1.174-.486 3.37l-1.3 3.1 4.023-1.465zm4.646-4.734 1.115-.406.3.822-1.116.407.679 1.864-1.014.37-.678-1.866-3.656 1.331-.22-.602 1.563-6.854 1.087-.395 1.94 5.33zm-3.51 1.278 2.496-.909-1.432-3.935-.052.268zm7.854-8.895.31.852-.191.07q-1.179.462-1.632 1.408-.46.932-.128 2.208.384-.954 1.47-1.35 1.043-.38 1.942.125.899.504 1.326 1.679.449 1.233.046 2.228-.403.995-1.548 1.412-1.145.416-2.185-.203-1.031-.639-1.539-2.034l-.139-.382q-.807-2.217-.295-3.733.513-1.517 2.372-2.21l.19-.07zm-.022 4.099q-.528.192-.856.66-.329.47-.329 1.018l.134.367q.363.998 1.023 1.44.674.436 1.335.196.69-.251.905-.895.21-.658-.09-1.48t-.877-1.177q-.584-.37-1.245-.13zm8.225-4.723q.219.602.067 1.19-.152.587-.584 1.043.712.04 1.272.435.554.38.794 1.041.375 1.028-.1 1.916-.466.868-1.611 1.284-1.16.423-2.09.063-.92-.38-1.293-1.409-.24-.66-.076-1.302.16-.657.696-1.151-.625-.072-1.104-.43-.48-.357-.699-.96-.369-1.012.064-1.835.426-.837 1.498-1.227 1.058-.385 1.923-.018.874.347 1.243 1.36zm.526 4.048q-.246-.675-.822-.931-.58-.27-1.27-.02-.69.251-.961.832-.262.561-.01 1.251.245.675.8.922.55.232 1.27-.03.705-.256.972-.802t.02-1.221zm-3.387-4.553q-.602.219-.845.74-.233.5.002 1.146.219.602.725.85t1.108.03q.617-.225.845-.74.228-.516.009-1.118-.225-.616-.745-.86-.526-.257-1.1-.048zm9.197-3.514-.61 8.652-1.071.39.69-8.382-4.331 1.576-.305-.837 5.418-1.972zm6.82-.77q.219.602.067 1.19-.152.587-.585 1.044.713.04 1.273.435.554.38.794 1.04.374 1.029-.1 1.917-.466.867-1.612 1.284-1.16.422-2.089.062-.92-.38-1.294-1.408-.24-.66-.075-1.303.16-.656.695-1.15-.624-.072-1.104-.43-.48-.358-.698-.96-.369-1.013.063-1.835.427-.837 1.5-1.228 1.056-.384 1.921-.017.875.346 1.244 1.36zm.525 4.05q-.245-.676-.82-.932-.582-.271-1.272-.02-.69.251-.96.832-.262.56-.011 1.25.246.676.801.923.55.232 1.27-.03.705-.256.971-.802.267-.546.021-1.222zm-3.386-4.555q-.602.22-.845.74-.234.5.002 1.147.219.602.725.85t1.108.03q.616-.225.844-.74.229-.516.01-1.118-.225-.617-.746-.86-.526-.257-1.098-.049zm5.734 45.756q-1.494.095-2.334-.248-.825-.348-1.13-1.185-.342-.94.183-1.829.533-.91 1.752-1.353.822-.3 1.586-.211.763.088 1.319.517.57.425.816 1.1l-1.072.39q-.267-.734-.887-.974-.604-.245-1.441.06-.779.282-1.09.795-.318.498-.1 1.1.182.5.716.687.55.183 1.65.099 1.1-.085 1.78.05.695.13 1.125.488.445.354.664.956.358.983-.191 1.849-.55.865-1.813 1.324-.837.305-1.674.244-.822-.067-1.416-.466-.585-.419-.836-1.109l1.057-.384q.262.719.96.947.698.228 1.594-.098.837-.304 1.154-.803.312-.512.099-1.1-.214-.587-.743-.76-.528-.174-1.727-.086zm9.33-2.648q.492 1.351.18 2.412-.313 1.062-1.384 1.452-1.087.395-1.955-.07l1.042 2.863-1.013.369-3.003-8.252.925-.337.284.645q.354-.993 1.455-1.394 1.072-.39 1.983.193.925.578 1.449 2.017zm-1.056.252q-.369-1.014-1.018-1.426-.64-.432-1.388-.16-.925.337-1.086 1.31l1.037 2.849q.754.656 1.694.314.734-.267.951-.995.227-.747-.19-1.892zm4.772 1.688-1.014.369-2.17-5.961 1.014-.369zm-3.843-7.131q-.091-.25-.008-.48.097-.234.39-.341.294-.107.505.016.226.117.317.367.085.234-.012.47-.088.214-.382.321-.293.107-.514.004-.21-.122-.296-.357zm4.21 3.572q-.502-1.38-.156-2.437.342-1.072 1.399-1.457 1.043-.38 1.916.1l-1.128-3.097 1.013-.37 3.078 8.458-.94.342-.279-.63q-.338.988-1.425 1.384-1.028.374-1.998-.237-.956-.617-1.453-1.982zm1.056-.251q.369 1.013.988 1.436.634.418 1.369.15.969-.352 1.103-1.399l-.994-2.73q-.76-.672-1.714-.325-.749.273-.966 1-.203.723.214 1.868zm9.382.01q-1.219.444-2.271-.071-1.043-.535-1.529-1.871l-.064-.176q-.326-.896-.24-1.709.082-.828.545-1.428.472-.621 1.177-.878 1.16-.422 2.084.106.924.529 1.442 1.953l.155.426-4.038 1.47q.35.87 1.032 1.236.697.362 1.46.084.53-.192.816-.546.302-.36.462-.833l.793.26q-.327 1.432-1.824 1.977zm-2.078-5.296q-.616.225-.876.835-.251.59-.045 1.43l2.98-1.085-.026-.074q-.328-.762-.865-1.049-.522-.292-1.168-.057zm6.246-2.074q-.246.057-.51.153-1.013.368-1.055 1.348l1.539 4.229-1.014.369-2.17-5.962.984-.358.266.685q.211-.974 1.136-1.311.294-.107.482-.092l.342.94zm1.314-3.837 5.006 5.578.235-7.485 1.38-.503 2.918 8.017-1.057.385-1.138-3.128-1.121-3.4-.28 7.452-.808.294-4.985-5.518 1.321 3.31 1.138 3.127-1.057.385-2.918-8.017zm9.417 2.21q-.315-.867-.234-1.694.096-.833.579-1.425.478-.606 1.256-.89 1.218-.443 2.272.122 1.068.558 1.581 1.968l.027.073q.315.867.228 1.68-.086.813-.558 1.434-.478.606-1.286.9-1.204.438-2.272-.121-1.059-.58-1.566-1.974zm1.076-.242q.358.983 1.032 1.42.69.43 1.453.153.778-.283 1.014-1.051.23-.782-.17-1.884-.353-.969-1.042-1.4-.68-.45-1.458-.167-.748.272-1 1.045-.24.753.17 1.884zm5.672-5.523.302.738q.38-1.103 1.48-1.504 1.895-.69 2.685 1.435l1.432 3.935-1.028.374-1.438-3.95q-.23-.631-.635-.833-.391-.207-1.008.018-.5.181-.785.585-.27.398-.321.898l1.544 4.243-1.013.37-2.17-5.962zm8.447.55-.405.896.764 2.1-1.013.368-3.078-8.457 1.013-.369 1.86 5.11.308-.844 1.148-2.646 1.234-.45-1.412 3.341 3.86 2.52-1.204.438zm7.493.532q-1.218.443-2.27-.072-1.043-.535-1.53-1.87l-.063-.177q-.326-.896-.24-1.709.081-.827.544-1.428.473-.621 1.178-.878 1.16-.422 2.083.107.924.528 1.443 1.952l.155.426-4.038 1.47q.35.87 1.032 1.237.697.361 1.46.083.53-.192.816-.546.302-.359.462-.833l.793.26q-.327 1.433-1.825 1.978zm-2.077-5.297q-.617.225-.877.835-.25.59-.045 1.43l2.98-1.085-.026-.074q-.327-.762-.864-1.049-.522-.292-1.168-.057zm6.6 1.822-.23-4.971 1.086-.396.113 7.757q-.018 1.686-1.222 2.125l-.211.06-.394.06-.299-.822.27-.082q.528-.192.732-.5.22-.312.207-.94l-.004-.696-4.272-5.113 1.116-.406 3.107 3.924zm8.514-2.966-.185-5.121 1.043-.38.026 6.742-.778.283-4.328-5.175 1.042-.38 3.18 4.03zm5.16-9.394.31.851-.19.07q-1.179.462-1.632 1.409-.46.931-.128 2.208.384-.955 1.47-1.35 1.043-.38 1.942.124.898.505 1.326 1.68.449 1.233.046 2.227-.403.995-1.548 1.412-1.145.417-2.186-.202-1.03-.64-1.538-2.034l-.139-.382q-.807-2.217-.295-3.734t2.372-2.21l.19-.07zm-.02 4.098q-.53.192-.858.66-.328.47-.328 1.018l.134.367q.363.999 1.023 1.44.674.437 1.335.196.69-.25.905-.894.209-.659-.09-1.48-.3-.823-.878-1.178-.583-.37-1.244-.13zm8.224-4.723q.219.602.067 1.19-.152.587-.585 1.044.713.04 1.273.434.554.38.794 1.041.374 1.028-.1 1.916-.466.868-1.612 1.285-1.16.422-2.089.062-.92-.38-1.294-1.408-.24-.66-.075-1.303.16-.657.695-1.15-.624-.073-1.104-.43-.48-.358-.698-.96-.369-1.013.063-1.836.427-.837 1.5-1.227 1.056-.385 1.921-.018.875.347 1.244 1.36zm.525 4.049q-.245-.676-.82-.932-.582-.27-1.272-.02-.69.252-.96.833-.262.56-.01 1.25.245.676.8.923.55.232 1.27-.03.705-.257.971-.803.267-.546.021-1.221zm-3.386-4.554q-.602.22-.845.74-.234.5.002 1.147.219.602.725.85t1.108.029q.616-.225.844-.74.229-.515.01-1.117-.225-.617-.746-.86-.526-.257-1.098-.049zm6.663 5.24q-.097-.264-.014-.494.097-.235.406-.347.323-.117.548 0 .226.117.322.382.091.25-.006.484-.103.22-.426.338-.308.112-.529.01-.21-.123-.301-.373zm6.67-5.703q.652 1.791.356 2.897-.287 1.085-1.594 1.56-1.277.466-2.204-.162-.926-.627-1.576-2.32l-.491-1.35q-.647-1.777-.355-2.847.302-1.091 1.608-1.567 1.292-.47 2.214.142.916.598 1.561 2.325l.48 1.322zm-1.536-1.02q-.47-1.293-1.05-1.747-.572-.473-1.365-.185-.778.283-.926 1.019-.139.716.305 1.934l.593 1.63q.47 1.292 1.067 1.79.606.478 1.37.2.749-.273.902-.994.153-.72-.286-1.974l-.61-1.674zm8.418-.903q.497 1.365.17 2.432-.317 1.047-1.374 1.432-1.13.411-2.041-.172l.192.711-.925.337-3.078-8.457 1.013-.369 1.15 3.157q.338-.988 1.424-1.384 1.087-.395 2.003.203.91.583 1.434 2.022zm-1.056.251q-.379-1.042-.993-1.45-.605-.429-1.354-.156-1.013.368-1.117 1.454l.94 2.584q.813.769 1.796.41.734-.267.937-.989.203-.722-.209-1.853zm6.886.92-1.013.368-2.469-6.783-1.783 1.497-.337-.925 2.522-2.165.146-.054 2.934 8.061zm3.073-6.224.763-.278q.73-.282 1.007-.798.277-.517.047-1.148-.513-1.41-1.922-.897-.661.24-.918.767-.243.52-.019 1.137l-1.028.374q-.347-.954.113-1.837.475-.888 1.547-1.278 1.13-.411 1.996-.044.865.366 1.255 1.438.192.529.031 1.136-.161.608-.658 1.071.736-.035 1.265.321.543.351.8 1.056.39 1.072-.08 1.975-.475.887-1.606 1.299-1.115.406-2.06.051-.928-.36-1.292-1.358l1.028-.374q.23.631.78.863.55.232 1.255-.024.734-.268.976-.788.253-.541-.01-1.26-.25-.69-.81-.903-.565-.226-1.392.058l-.764.278zm38.79 31.729q.313 1.316-.223 2.31-.542.978-1.849 1.454-1.424.518-2.644-.185-1.226-.718-1.851-2.436l-.278-.763q-.406-1.116-.32-2.112.087-.996.655-1.718.569-.723 1.523-1.07 1.278-.465 2.303-.024 1.04.437 1.626 1.637l-1.057.384q-.494-.9-1.104-1.16-.61-.26-1.447.044-1.013.369-1.313 1.326-.3.957.202 2.337l.283.778q.476 1.307 1.302 1.888.821.565 1.805.207.881-.32 1.207-.888.32-.582.123-1.624zm1.498-3.605q.377-1.068 1.463-1.463 1.894-.69 2.684 1.434l1.432 3.935-1.028.374-1.437-3.95q-.23-.631-.636-.833-.391-.206-1.008.018-.5.182-.785.585-.27.398-.321.898l1.544 4.244-1.013.368-3.078-8.457 1.013-.368zm11.144 1.88q-.152-.144-.377-.578-.432 1.006-1.416 1.364-.88.32-1.635.03-.74-.296-1.023-1.075-.337-.925.181-1.695t1.81-1.24l.984-.359-.171-.47q-.193-.528-.628-.719-.426-.21-1.057.019-.544.198-.809.61-.27.398-.127.795l-1.027.374q-.166-.455-.007-.979.173-.528.63-.961.453-.448 1.1-.683 1.042-.379 1.801-.074.775.3 1.13 1.186l1 2.745q.299.822.68 1.232l.033.088zm-1.972-.163q.485-.177.82-.581.334-.405.381-.87l-.444-1.22-.792.29q-1.88.683-1.479 1.784.171.47.596.632.419.146.918-.035zm5.533-4.259-.405.896.764 2.1-1.013.368-3.078-8.457 1.013-.369 1.86 5.11.308-.844 1.148-2.646 1.234-.45-1.412 3.341 3.86 2.52-1.204.438zm6.024-4.786q-.246.056-.51.152-1.013.369-1.056 1.349l1.54 4.228-1.014.37-2.17-5.962.984-.358.266.685q.21-.975 1.136-1.312.293-.106.482-.092zm6.39 3.394q-.153-.144-.377-.578-.432 1.005-1.416 1.363-.881.321-1.635.03-.74-.296-1.023-1.074-.337-.925.18-1.695.519-.77 1.81-1.241l.984-.358-.17-.47q-.193-.529-.628-.72-.426-.21-1.058.02-.543.197-.808.61-.271.398-.127.794l-1.028.374q-.165-.455-.007-.978.174-.529.632-.962.452-.447 1.098-.682 1.042-.38 1.802-.074.774.3 1.13 1.185l1 2.746q.298.822.68 1.232l.032.088zm-1.972-.164q.484-.176.82-.58.334-.405.38-.871l-.443-1.219-.793.289q-1.879.684-1.478 1.785.17.47.595.631.42.147.919-.035zm9.148-4.011-.184-5.12 1.042-.38.026 6.741-.778.283-4.328-5.175 1.043-.38 3.18 4.03zm7.418-1.137-1.013.369-2.469-6.784-1.783 1.497-.337-.925 2.521-2.164.147-.054zm3.17-1.752q-.096-.265-.013-.494.097-.235.405-.348.323-.117.549 0 .226.118.322.382.09.25-.007.485-.102.22-.425.338-.309.112-.53.009-.21-.123-.3-.372zm6.227-1.668-1.013.369-2.469-6.784-1.783 1.497-.337-.925 2.521-2.165.147-.053 2.934 8.06zm6.578-2.394-1.013.368-2.47-6.783-1.782 1.497-.337-.925 2.521-2.165.147-.053 2.934 8.06zm3.17-1.753q-.096-.264-.014-.494.098-.235.406-.347.323-.117.549 0 .225.117.322.382.09.25-.007.484-.103.22-.426.338-.308.112-.528.01-.211-.123-.302-.373zm6.227-1.668-1.013.37-2.47-6.784-1.782 1.497-.337-.925 2.521-2.165.147-.053zm7.021-6.43q.652 1.792.356 2.897-.287 1.086-1.593 1.561-1.278.465-2.204-.162-.927-.627-1.576-2.32l-.492-1.35q-.647-1.777-.355-2.848.302-1.09 1.608-1.566 1.293-.47 2.214.142.916.598 1.561 2.325l.481 1.322zm-1.535-1.02q-.47-1.292-1.052-1.746-.571-.474-1.364-.185-.778.283-.926 1.019-.139.715.305 1.934l.593 1.63q.47 1.292 1.067 1.79.606.477 1.37.2.749-.273.902-.994.153-.72-.286-1.974l-.61-1.674zm4.262 3.304q-.096-.264-.014-.494.097-.235.406-.347.323-.118.548 0 .226.117.322.381.091.25-.006.485-.103.22-.426.338-.308.112-.529.01-.21-.123-.301-.373zm6.67-5.704q.652 1.792.356 2.897-.287 1.086-1.594 1.561-1.277.465-2.204-.162-.926-.627-1.575-2.32l-.492-1.35q-.647-1.777-.355-2.848.302-1.09 1.608-1.566 1.293-.47 2.214.142.916.598 1.561 2.325zm-1.535-1.02q-.47-1.292-1.052-1.746-.571-.474-1.364-.185-.778.283-.926 1.019-.139.715.305 1.934l.593 1.63q.47 1.292 1.067 1.79.606.477 1.37.2.749-.273.902-.994.153-.721-.286-1.974l-.61-1.674z" fill="#757575"/><path d="m337.5 69.833a1 1 0 0 1 1-1h10a1 1 0 0 1 1 1v10a1 1 0 0 1 -1 1h-10a1 1 0 0 1 -1-1z" fill="#4285f4"/><path d="m362.063 70.802h1.14v6.047q0 1.219-.75 1.922-.734.687-1.953.687-1.266 0-1.984-.656-.704-.656-.704-1.828h1.125q0 .734.391 1.156.406.406 1.172.406.703 0 1.125-.437.438-.453.438-1.234zm5.937 4.734q-1.438-.421-2.11-1.03-.656-.61-.656-1.5 0-1 .797-1.657.813-.672 2.11-.672.875 0 1.562.344.688.344 1.063.937.39.594.39 1.313h-1.14q0-.781-.5-1.219-.485-.437-1.375-.437-.829 0-1.297.375-.469.359-.469 1 0 .53.438.89.453.36 1.515.656 1.063.297 1.656.657.61.36.891.843.297.485.297 1.125 0 1.047-.813 1.672-.812.625-2.156.625-.89 0-1.656-.343-.75-.344-1.172-.922-.406-.594-.406-1.328h1.125q0 .765.578 1.218.578.453 1.531.453.89 0 1.36-.359.468-.375.468-1t-.437-.969q-.438-.343-1.594-.672zm8.5 3.797h-1.078v-9h1.078zm3 0h-1.078v-6.343h1.078zm-1.172-8.015q0-.266.156-.453.172-.188.485-.188.312 0 .469.188.171.187.171.453 0 .25-.171.437-.157.172-.47.172-.312 0-.484-.172-.156-.187-.156-.437zm4.469.14v1.532h1.172v.843h-1.172v3.922q0 .39.156.578.156.188.531.188.188 0 .516-.063v.875q-.422.125-.828.125-.719 0-1.094-.437-.375-.453-.375-1.266v-3.922h-1.156v-.843h1.156v-1.532zm5.156 8q-1.297 0-2.11-.843-.796-.86-.796-2.282v-.187q0-.953.36-1.688.359-.75 1-1.156.656-.422 1.406-.422 1.234 0 1.921.813.688.812.688 2.328v.453h-4.297q.031.937.547 1.516.531.578 1.344.578.562 0 .953-.235.406-.234.719-.625l.656.516q-.797 1.234-2.39 1.234zm-.14-5.687q-.657 0-1.11.484-.437.469-.531 1.328h3.172v-.078q-.047-.828-.453-1.281-.391-.453-1.079-.453zm6.578.187q-.25-.03-.532-.03-1.078 0-1.453.905v4.5h-1.078v-6.343h1.047l.016.734q.53-.844 1.515-.844.313 0 .485.078zm4.843 5.375q-.093-.187-.156-.672-.75.797-1.797.797-.937 0-1.547-.53-.593-.532-.593-1.36 0-.985.75-1.532.75-.546 2.125-.546h1.046v-.5q0-.563-.343-.891-.328-.344-1-.344-.578 0-.969.297-.39.281-.39.703h-1.094q0-.484.328-.922.344-.437.922-.687.578-.266 1.265-.266 1.11 0 1.719.547.625.547.656 1.5v2.922q0 .875.219 1.39v.094h-1.14zm-1.796-.828q.515 0 .968-.265.453-.266.656-.688v-1.297h-.843q-2 0-2 1.172 0 .5.344.797.343.281.875.281zm6.062.828h-1.078v-9h1.078z" fill="#757575"/><path d="m420.5 69.833a1 1 0 0 1 1-1h10a1 1 0 0 1 1 1v10a1 1 0 0 1 -1 1h-10a1 1 0 0 1 -1-1z" fill="#6aa84f"/><path d="m445.063 70.802h1.14v6.047q0 1.219-.75 1.922-.734.687-1.953.687-1.266 0-1.984-.656-.704-.656-.704-1.828h1.125q0 .734.391 1.156.406.406 1.172.406.703 0 1.125-.437.438-.453.438-1.234zm5.937 4.734q-1.438-.421-2.11-1.03-.656-.61-.656-1.5 0-1 .797-1.657.813-.672 2.11-.672.875 0 1.562.344.688.344 1.063.937.39.594.39 1.313h-1.14q0-.781-.5-1.219-.485-.437-1.375-.437-.829 0-1.297.375-.469.359-.469 1 0 .53.438.89.453.36 1.515.656 1.063.297 1.656.657.61.36.891.843.297.485.297 1.125 0 1.047-.813 1.672-.812.625-2.156.625-.89 0-1.656-.343-.75-.344-1.172-.922-.406-.594-.406-1.328h1.125q0 .765.578 1.218.578.453 1.531.453.89 0 1.36-.359.468-.375.468-1t-.437-.969q-.438-.343-1.594-.672zm11.047-.187q0 1.25-.422 2.187-.422.922-1.203 1.422-.766.5-1.797.5-1 0-1.781-.5-.781-.5-1.219-1.406-.422-.922-.438-2.14v-.61q0-1.234.422-2.172.438-.937 1.22-1.437.78-.516 1.796-.516t1.797.5q.781.5 1.203 1.438.422.937.422 2.187zm-1.11-.563q0-1.515-.609-2.328-.61-.812-1.703-.812-1.078 0-1.688.812-.609.813-.625 2.25v.641q0 1.469.61 2.312.625.829 1.703.829 1.094 0 1.688-.782.609-.797.625-2.28v-.642zm9.11 4.547h-1.125l-4.297-6.578v6.578h-1.14v-8.53h1.14l4.297 6.608v-6.609h1.125zm2.297-.562q0-.281.156-.469.172-.187.5-.187.344 0 .516.187.171.188.171.469 0 .265-.171.453-.172.172-.516.172-.328 0-.5-.172-.156-.188-.156-.453zm8.328-2.531q0 1.437-.656 2.328-.657.89-1.797.89-1.156 0-1.813-.734v3.047h-1.078v-8.781h.985l.046.703q.672-.813 1.844-.813 1.14 0 1.797.86.672.859.672 2.39zm-1.078-.125q0-1.079-.469-1.688-.453-.625-1.25-.625-.984 0-1.469.86v3.03q.485.876 1.485.876.78 0 1.234-.61.469-.625.469-1.843zm6.64 3.218q-.093-.187-.156-.672-.75.797-1.797.797-.937 0-1.547-.53-.593-.532-.593-1.36 0-.985.75-1.532.75-.546 2.125-.546h1.046v-.5q0-.563-.343-.891-.328-.344-1-.344-.578 0-.969.297-.39.281-.39.703h-1.094q0-.484.328-.922.344-.437.922-.687.578-.266 1.265-.266 1.11 0 1.719.547.625.547.656 1.5v2.922q0 .875.219 1.39v.094h-1.14zm-1.796-.828q.515 0 .968-.265.453-.266.656-.688v-1.297h-.843q-2 0-2 1.172 0 .5.344.797.343.281.875.281zm7.953-4.547q-.25-.03-.532-.03-1.078 0-1.453.905v4.5h-1.078v-6.343h1.047l.016.734q.53-.844 1.515-.844.313 0 .485.078zm4.625 3.688q0-.438-.344-.672-.328-.25-1.156-.422-.813-.172-1.297-.422-.485-.25-.719-.578-.219-.344-.219-.812 0-.782.656-1.313.657-.547 1.688-.547 1.078 0 1.734.563.672.547.672 1.406h-1.078q0-.438-.39-.75-.375-.328-.938-.328-.594 0-.938.265-.328.25-.328.657 0 .39.313.593.312.204 1.125.391.812.172 1.312.422t.735.61q.25.359.25.859 0 .86-.688 1.375-.672.515-1.75.515-.765 0-1.36-.265-.577-.282-.905-.766-.329-.484-.329-1.047h1.079q.03.547.437.875.406.313 1.078.313.61 0 .985-.25t.375-.672zm4.937 1.812q-1.297 0-2.11-.843-.796-.86-.796-2.282v-.187q0-.953.36-1.688.359-.75 1-1.156.656-.422 1.406-.422 1.234 0 1.921.813.688.812.688 2.328v.453h-4.297q.031.937.547 1.516.531.578 1.344.578.562 0 .953-.235.406-.234.719-.625l.656.516q-.797 1.234-2.39 1.234zm-.14-5.687q-.657 0-1.11.484-.437.469-.531 1.328h3.172v-.078q-.047-.828-.453-1.281-.391-.453-1.079-.453zm-469.969-35.115q-2.422-.687-3.516-1.687-1.094-1.016-1.094-2.5 0-1.688 1.344-2.782 1.344-1.109 3.485-1.109 1.468 0 2.609.578 1.156.563 1.781 1.563.625.984.625 2.172h-1.875q0-1.282-.828-2.016-.813-.75-2.313-.75-1.39 0-2.171.61-.766.609-.766 1.703 0 .859.734 1.468.735.594 2.5 1.094 1.782.5 2.782 1.11 1 .593 1.484 1.39.484.797.484 1.89 0 1.72-1.343 2.766-1.344 1.047-3.61 1.047-1.453 0-2.734-.562-1.266-.563-1.953-1.532-.688-.984-.688-2.234h1.89q0 1.297.954 2.047.953.734 2.531.734 1.485 0 2.282-.593.796-.61.796-1.657 0-1.047-.734-1.61-.734-.577-2.656-1.14zm16.453 1.172q0 2.422-1.11 3.906-1.093 1.47-2.984 1.47-1.922 0-3.031-1.235v5.093h-1.797v-14.624h1.64l.094 1.171q1.094-1.375 3.063-1.375 1.906 0 3.016 1.438 1.109 1.437 1.109 4zm-1.813-.203q0-1.781-.765-2.813-.75-1.046-2.078-1.046-1.641 0-2.47 1.453v5.062q.813 1.438 2.485 1.438 1.297 0 2.063-1.032.765-1.03.765-3.062zm8.266 5.578q-2.14 0-3.5-1.406-1.344-1.422-1.344-3.781v-.344q0-1.563.594-2.797.61-1.234 1.688-1.938 1.078-.703 2.343-.703 2.063 0 3.203 1.36 1.141 1.36 1.141 3.89v.75h-7.156q.031 1.563.906 2.532.875.953 2.219.953.968 0 1.625-.39.672-.392 1.172-1.032l1.093.86q-1.328 2.046-3.984 2.046zm-.219-9.484q-1.093 0-1.843.797-.735.797-.907 2.234h5.282v-.14q-.079-1.376-.75-2.126-.657-.765-1.782-.765zm11.219 9.484q-2.14 0-3.5-1.406-1.344-1.422-1.344-3.781v-.344q0-1.563.594-2.797.61-1.234 1.688-1.938 1.078-.703 2.343-.703 2.063 0 3.203 1.36 1.141 1.36 1.141 3.89v.75h-7.156q.031 1.563.906 2.532.875.953 2.219.953.969 0 1.625-.39.672-.392 1.172-1.032l1.093.86q-1.328 2.046-3.984 2.046zm-.219-9.484q-1.094 0-1.844.797-.734.797-.906 2.234h5.282v-.14q-.079-1.376-.75-2.126-.657-.765-1.782-.765zm6.39 3.906q0-2.422 1.157-3.906 1.156-1.485 3.016-1.485t2.936 1.266v-5.5h1.813v15h-1.656l-.094-1.14q-1.078 1.343-3.016 1.343-1.828 0-3-1.5-1.156-1.516-1.156-3.937zm1.813.203q0 1.797.735 2.813.75 1.015 2.062 1.015 1.719 0 2.5-1.531v-4.86q-.797-1.5-2.484-1.5-1.328 0-2.078 1.032-.735 1.031-.735 3.031zm13.391-.125h-4.766v-1.483h4.766v1.484zm8.766 4.25q-1.047 1.25-3.094 1.25-1.688 0-2.578-.984-.875-.985-.89-2.907v-6.874h1.812v6.828q0 2.39 1.953 2.39 2.062 0 2.75-1.531v-7.688h1.812v10.563h-1.719zm13.406-4.125q0 2.422-1.11 3.906-1.093 1.47-2.984 1.47-1.922 0-3.031-1.235v5.093h-1.797v-14.624h1.64l.094 1.171q1.094-1.375 3.063-1.375 1.906 0 3.016 1.438 1.109 1.437 1.109 4zm-1.813-.203q0-1.781-.765-2.813-.75-1.046-2.078-1.046-1.641 0-2.47 1.453v5.062q.813 1.438 2.485 1.438 1.297 0 2.063-1.032.765-1.03.765-3.062zm17.829.203q0 2.422-1.11 3.906-1.11 1.47-2.984 1.47-2.016 0-3.11-1.423l-.078 1.219h-1.656v-15h1.797v5.594q1.094-1.36 3.016-1.36 1.921 0 3.015 1.453 1.11 1.454 1.11 3.985zm-1.813-.203q0-1.844-.719-2.844-.703-1.015-2.031-1.015-1.797 0-2.578 1.672v4.562q.828 1.656 2.594 1.656 1.296 0 2.015-1 .719-1 .719-3.031zm7.328 2.734 2.453-7.922h1.938l-4.25 12.188q-.985 2.64-3.125 2.64l-.344-.03-.672-.126v-1.468l.484.047q.922 0 1.422-.376.516-.374.844-1.359l.406-1.078-3.765-10.438h1.969zm17.063 1.594q-1.047 1.25-3.094 1.25-1.688 0-2.578-.984-.875-.985-.89-2.907v-6.874h1.812v6.828q0 2.39 1.953 2.39 2.062 0 2.75-1.531v-7.688h1.812v10.563h-1.719zm10.625-1.75q0-.734-.547-1.14-.547-.407-1.922-.704t-2.188-.703q-.797-.406-1.187-.968-.375-.579-.375-1.36 0-1.297 1.094-2.187 1.093-.907 2.812-.907 1.797 0 2.906.938 1.125.922 1.125 2.36h-1.828q0-.735-.625-1.266-.625-.547-1.578-.547-1 0-1.562.437-.547.422-.547 1.125 0 .64.515.985.516.328 1.875.64 1.36.297 2.188.719.844.406 1.25 1t.406 1.438q0 1.421-1.14 2.28-1.125.86-2.938.86-1.266 0-2.25-.453-.969-.453-1.531-1.25-.547-.813-.547-1.75h1.812q.047.906.72 1.438.687.53 1.796.53 1.031 0 1.64-.406.626-.421.626-1.109zm5.812 2.797h-1.797v-10.563h1.797zm-1.953-13.375q0-.438.266-.734.28-.313.797-.313.53 0 .796.313.282.297.282.734 0 .438-.282.734-.265.297-.797.297-.515 0-.796-.297-.266-.297-.266-.734zm6.703 2.813.063 1.328q1.203-1.532 3.156-1.532 3.36 0 3.375 3.782v6.984h-1.797v-7q-.016-1.14-.531-1.688-.5-.546-1.594-.546-.875 0-1.547.468-.656.47-1.031 1.235v7.531h-1.797v-10.563h1.703zm8.86 5.187q0-2.469 1.14-3.922 1.14-1.469 3.031-1.469 1.938 0 3.016 1.375l.094-1.172h1.64v10.313q0 2.047-1.218 3.219-1.203 1.187-3.266 1.187-1.14 0-2.234-.484t-1.672-1.344l.937-1.078q1.172 1.438 2.844 1.438 1.328 0 2.063-.75.734-.735.734-2.079v-.922q-1.078 1.266-2.953 1.266-1.86 0-3.016-1.5-1.14-1.5-1.14-4.078zm1.812.203q0 1.797.734 2.813.735 1.015 2.047 1.015 1.719 0 2.516-1.547v-4.828q-.828-1.515-2.484-1.515-1.329 0-2.079 1.03-.734 1.032-.734 3.032zm20.86-9.047h1.89v10.063q0 2.047-1.234 3.203-1.22 1.156-3.266 1.156-2.125 0-3.313-1.078-1.171-1.094-1.171-3.047h1.875q0 1.219.672 1.906.671.672 1.937.672 1.156 0 1.875-.718.719-.735.734-2.063v-10.094zm9.234 7.875q-2.422-.687-3.516-1.687-1.094-1.016-1.094-2.5 0-1.688 1.344-2.782 1.344-1.109 3.484-1.109 1.47 0 2.61.578 1.156.563 1.781 1.563.625.984.625 2.172h-1.875q0-1.282-.828-2.016-.813-.75-2.313-.75-1.39 0-2.171.61-.766.609-.766 1.703 0 .859.734 1.468.735.594 2.5 1.094 1.782.5 2.782 1.11 1 .593 1.484 1.39.484.797.484 1.89 0 1.72-1.343 2.766-1.344 1.047-3.61 1.047-1.453 0-2.734-.562-1.266-.563-1.953-1.532-.688-.984-.688-2.234h1.89q0 1.297.954 2.047.953.734 2.531.734 1.485 0 2.281-.593.797-.61.797-1.657 0-1.047-.734-1.61-.734-.577-2.656-1.14zm18.75-.312q0 2.093-.703 3.656-.703 1.547-2 2.375-1.282.828-3 .828-1.688 0-2.985-.828t-2.015-2.36q-.72-1.53-.735-3.546v-1.016q0-2.047.703-3.625.72-1.578 2.016-2.406 1.313-.844 2.984-.844 1.72 0 3.016.828 1.313.828 2.016 2.407.703 1.562.703 3.64v.89zm-1.875-.907q0-2.53-1.016-3.874-1.016-1.36-2.844-1.36-1.765 0-2.797 1.36-1.015 1.343-1.046 3.734v1.047q0 2.453 1.03 3.86 1.032 1.405 2.845 1.405 1.812 0 2.797-1.328 1-1.328 1.03-3.797v-1.047zm15.86 7.563h-1.892l-7.156-10.953v10.953h-1.875v-14.219h1.875l7.188 11v-11h1.86zm2.827-.953q0-.469.281-.781.282-.313.829-.313.562 0 .843.313.297.312.297.78 0 .454-.297.767-.28.296-.843.296-.547 0-.828-.297-.282-.312-.282-.765zm13.89-4.219q0 2.422-1.108 3.906-1.094 1.47-2.985 1.47-1.922 0-3.031-1.235v5.093h-1.797v-14.624h1.64l.094 1.171q1.094-1.375 3.063-1.375 1.906 0 3.016 1.438 1.109 1.437 1.109 4v.156zm-1.812-.203q0-1.781-.765-2.813-.75-1.046-2.078-1.046-1.641 0-2.47 1.453v5.062q.813 1.438 2.485 1.438 1.297 0 2.063-1.032.765-1.03.765-3.062zm10.407 5.375q-.157-.313-.25-1.11-1.266 1.313-3.016 1.313-1.563 0-2.563-.89-1-.891-1-2.25 0-1.641 1.25-2.547 1.266-.922 3.532-.922h1.765v-.828q0-.953-.578-1.516-.562-.563-1.656-.563-.969 0-1.625.5-.656.485-.656 1.172h-1.813q0-.78.563-1.515.562-.75 1.515-1.172.97-.438 2.125-.438 1.829 0 2.86.922 1.031.907 1.078 2.516v4.86q0 1.452.36 2.312v.156zm-3-1.375q.859 0 1.609-.438.766-.437 1.11-1.14v-2.172h-1.423q-3.312 0-3.312 1.938 0 .859.563 1.343.562.469 1.453.469zm12.578-7.578q-.406-.063-.875-.063-1.781 0-2.422 1.516v7.5h-1.797v-10.563h1.75l.031 1.22q.89-1.423 2.516-1.423.531 0 .797.141zm8.047 6.156q0-.734-.547-1.14-.547-.407-1.922-.704t-2.188-.703q-.796-.406-1.187-.968-.375-.579-.375-1.36 0-1.297 1.094-2.187 1.093-.907 2.812-.907 1.797 0 2.906.938 1.125.922 1.125 2.36h-1.828q0-.735-.625-1.266-.625-.547-1.578-.547-1 0-1.562.437-.547.422-.547 1.125 0 .64.515.985.516.328 1.875.64 1.36.297 2.188.719.844.406 1.25 1t.406 1.438q0 1.421-1.14 2.28-1.125.86-2.938.86-1.266 0-2.25-.453-.969-.453-1.531-1.25-.547-.813-.547-1.75h1.812q.047.906.72 1.438.687.53 1.796.53 1.031 0 1.64-.406.626-.421.626-1.109zm8.234 3q-2.14 0-3.5-1.406-1.344-1.422-1.344-3.781v-.344q0-1.563.594-2.797.61-1.234 1.688-1.938 1.078-.703 2.343-.703 2.063 0 3.203 1.36 1.141 1.36 1.141 3.89v.75h-7.156q.031 1.563.906 2.532.875.953 2.219.953.969 0 1.625-.39.672-.392 1.172-1.032l1.093.86q-1.328 2.046-3.984 2.046zm-.219-9.484q-1.094 0-1.844.797-.734.797-.906 2.234h5.281v-.14q-.078-1.376-.75-2.126-.656-.765-1.78-.765zm13.797 9.281h-1.797v-10.563h1.797zm-1.953-13.375q0-.438.266-.734.28-.313.796-.313.532 0 .797.313.282.297.282.734 0 .438-.282.734-.265.297-.796.297-.516 0-.797-.297-.266-.297-.266-.734zm6.703 2.813.063 1.328q1.203-1.532 3.156-1.532 3.36 0 3.375 3.782v6.984h-1.797v-7q-.016-1.14-.531-1.688-.5-.546-1.594-.546-.875 0-1.547.468-.656.47-1.031 1.235v7.531h-1.797v-10.563h1.703zm15.438 7.765q0-.734-.547-1.14-.547-.407-1.922-.704t-2.188-.703q-.796-.406-1.187-.968-.375-.579-.375-1.36 0-1.297 1.094-2.187 1.093-.907 2.812-.907 1.797 0 2.906.938 1.125.922 1.125 2.36h-1.828q0-.735-.625-1.266-.625-.547-1.578-.547-1 0-1.562.437-.547.422-.547 1.125 0 .64.515.985.516.328 1.875.64 1.36.297 2.188.719.844.406 1.25 1t.406 1.438q0 1.421-1.14 2.28-1.125.86-2.938.86-1.266 0-2.25-.453-.969-.453-1.531-1.25-.547-.813-.547-1.75h1.812q.047.906.72 1.438.687.53 1.796.53 1.031 0 1.64-.406.626-.421.626-1.109zm6.296-10.328v2.563h1.985v1.39h-1.985v6.547q0 .64.266.969.266.312.906.312.313 0 .86-.125v1.469q-.719.203-1.39.203-1.204 0-1.829-.734-.61-.735-.61-2.094v-6.547h-1.921v-1.39h1.922v-2.563zm8.938 13.328q-2.14 0-3.5-1.406-1.344-1.422-1.344-3.781v-.344q0-1.563.594-2.797.61-1.234 1.688-1.938 1.078-.703 2.343-.703 2.063 0 3.203 1.36 1.141 1.36 1.141 3.89v.75h-7.156q.031 1.563.906 2.532.875.953 2.219.953.969 0 1.625-.39.672-.392 1.172-1.032l1.093.86q-1.328 2.046-3.984 2.046zm-.219-9.484q-1.094 0-1.844.797-.734.797-.906 2.234h5.281v-.14q-.078-1.376-.75-2.126-.656-.765-1.78-.765zm13.36 9.281q-.157-.313-.25-1.11-1.266 1.313-3.016 1.313-1.563 0-2.563-.89-1-.891-1-2.25 0-1.641 1.25-2.547 1.266-.922 3.532-.922h1.765v-.828q0-.953-.578-1.516-.562-.563-1.656-.563-.969 0-1.625.5-.656.485-.656 1.172h-1.813q0-.78.563-1.515.562-.75 1.515-1.172.97-.438 2.125-.438 1.829 0 2.86.922 1.031.907 1.078 2.516v4.86q0 1.452.36 2.312v.156zm-3-1.375q.859 0 1.609-.438.766-.437 1.11-1.14v-2.172h-1.423q-3.312 0-3.312 1.938 0 .859.563 1.343.562.469 1.453.469zm7.03-4q0-2.422 1.157-3.906 1.156-1.485 3.016-1.485t2.937 1.266v-5.5h1.813v15h-1.656l-.094-1.14q-1.078 1.343-3.016 1.343-1.828 0-3-1.5-1.156-1.516-1.156-3.937v-.141zm1.813.203q0 1.797.735 2.813.75 1.015 2.062 1.015 1.719 0 2.5-1.531v-4.86q-.797-1.5-2.484-1.5-1.328 0-2.078 1.032-.735 1.031-.735 3.031zm14.157-.203q0-1.563.609-2.797.61-1.25 1.688-1.922 1.093-.672 2.5-.672 2.156 0 3.484 1.5 1.344 1.485 1.344 3.97v.124q0 1.547-.594 2.781-.594 1.22-1.703 1.907-1.094.687-2.516.687-2.14 0-3.484-1.5-1.328-1.5-1.328-3.953zm1.812.203q0 1.766.813 2.828.828 1.063 2.187 1.063 1.375 0 2.188-1.078.812-1.078.812-3.016 0-1.75-.828-2.828-.828-1.078-2.188-1.078-1.343 0-2.171 1.062-.813 1.063-.813 3.047zm10.547 5.172v-9.172h-1.656v-1.39h1.656v-1.094q0-1.688.906-2.61.922-.937 2.578-.937.625 0 1.235.156l-.094 1.469q-.453-.078-.969-.078-.89 0-1.375.515-.469.5-.469 1.453v1.126h2.25v1.39h-2.25v9.172zm17.64 0q-.156-.313-.25-1.11-1.265 1.313-3.015 1.313-1.563 0-2.563-.89-1-.891-1-2.25 0-1.641 1.25-2.547 1.266-.922 3.532-.922h1.765v-.828q0-.953-.578-1.516-.562-.563-1.656-.563-.969 0-1.625.5-.656.485-.656 1.172h-1.813q0-.78.563-1.515.562-.75 1.515-1.172.97-.438 2.125-.438 1.829 0 2.86.922 1.031.907 1.078 2.516v4.86q0 1.452.36 2.312v.156h-1.891zm-3-1.375q.86 0 1.61-.438.766-.437 1.11-1.14v-2.172h-1.423q-3.312 0-3.312 1.938 0 .859.563 1.343.562.469 1.453.469zm18.72-12.844h1.89v10.063q0 2.047-1.234 3.203-1.22 1.156-3.266 1.156-2.125 0-3.313-1.078-1.171-1.094-1.171-3.047h1.875q0 1.219.671 1.906.672.672 1.938.672 1.156 0 1.875-.718.719-.735.734-2.063v-10.094zm9.234 7.875q-2.422-.687-3.516-1.687-1.094-1.016-1.094-2.5 0-1.688 1.344-2.782 1.344-1.109 3.485-1.109 1.468 0 2.609.578 1.156.563 1.781 1.563.625.984.625 2.172h-1.875q0-1.282-.828-2.016-.813-.75-2.313-.75-1.39 0-2.171.61-.766.609-.766 1.703 0 .859.734 1.468.735.594 2.5 1.094 1.782.5 2.782 1.11 1 .593 1.484 1.39.484.797.484 1.89 0 1.72-1.343 2.766-1.344 1.047-3.61 1.047-1.453 0-2.734-.562-1.266-.563-1.953-1.532-.688-.984-.688-2.234h1.89q0 1.297.954 2.047.953.734 2.531.734 1.485 0 2.281-.593.797-.61.797-1.657 0-1.047-.734-1.61-.734-.577-2.656-1.14zm14.484 6.344h-1.797v-15h1.797zm5 0h-1.797v-10.563h1.797zm-1.953-13.375q0-.438.266-.734.28-.313.796-.313.532 0 .797.313.282.297.282.734 0 .438-.282.734-.265.297-.796.297-.516 0-.797-.297-.266-.297-.266-.734zm7.438.25v2.563h1.984v1.39h-1.985v6.547q0 .64.266.969.266.312.906.312.313 0 .86-.125v1.469q-.719.203-1.39.203-1.204 0-1.829-.734-.61-.735-.61-2.094v-6.547h-1.921v-1.39h1.922v-2.563h1.796zm8.937 13.328q-2.14 0-3.5-1.406-1.344-1.422-1.344-3.781v-.344q0-1.563.594-2.797.61-1.234 1.688-1.938 1.078-.703 2.343-.703 2.063 0 3.203 1.36 1.141 1.36 1.141 3.89v.75h-7.156q.031 1.563.906 2.532.875.953 2.219.953.969 0 1.625-.39.672-.392 1.172-1.032l1.093.86q-1.328 2.046-3.984 2.046zm-.219-9.484q-1.094 0-1.844.797-.734.797-.906 2.234h5.281v-.14q-.078-1.376-.75-2.126-.656-.765-1.78-.765zm11.938.328q-.406-.063-.875-.063-1.781 0-2.422 1.516v7.5h-1.797v-10.563h1.75l.031 1.22q.89-1.423 2.516-1.423.531 0 .797.141zm8.421 8.953q-.157-.313-.25-1.11-1.266 1.313-3.016 1.313-1.563 0-2.563-.89-1-.891-1-2.25 0-1.641 1.25-2.547 1.266-.922 3.532-.922h1.765v-.828q0-.953-.578-1.516-.562-.563-1.656-.563-.969 0-1.625.5-.656.485-.656 1.172h-1.813q0-.78.563-1.515.562-.75 1.515-1.172.97-.438 2.125-.438 1.829 0 2.86.922 1.031.907 1.078 2.516v4.86q0 1.452.36 2.312v.156zm-3-1.375q.859 0 1.609-.438.766-.437 1.11-1.14v-2.172h-1.423q-3.312 0-3.312 1.938 0 .859.563 1.343.562.469 1.453.469zm9.438 1.375h-1.797v-15h1.797zm8.922 0v-9.172h-1.656v-1.39h1.656v-1.094q0-1.688.906-2.61.922-.937 2.578-.937.625 0 1.235.156l-.094 1.469q-.453-.078-.969-.078-.89 0-1.375.515-.469.5-.469 1.453v1.126h2.25v1.39h-2.25v9.172zm5.64-5.375q0-1.563.61-2.797.61-1.25 1.688-1.922 1.093-.672 2.5-.672 2.156 0 3.484 1.5 1.344 1.485 1.344 3.97v.124q0 1.547-.594 2.781-.594 1.22-1.703 1.907-1.094.687-2.516.687-2.14 0-3.484-1.5-1.328-1.5-1.328-3.953v-.125zm1.813.203q0 1.766.813 2.828.828 1.063 2.187 1.063 1.375 0 2.188-1.078.812-1.078.812-3.016 0-1.75-.828-2.828-.828-1.078-2.188-1.078-1.343 0-2.171 1.062-.813 1.063-.813 3.047zm14.766-3.781q-.407-.063-.875-.063-1.782 0-2.422 1.516v7.5h-1.797v-10.563h1.75l.031 1.22q.89-1.423 2.516-1.423.531 0 .797.141zm13.421 8.953q-.157-.313-.25-1.11-1.266 1.313-3.016 1.313-1.563 0-2.563-.89-1-.891-1-2.25 0-1.641 1.25-2.547 1.266-.922 3.532-.922h1.765v-.828q0-.953-.578-1.516-.562-.563-1.656-.563-.969 0-1.625.5-.656.485-.656 1.172h-1.813q0-.78.563-1.515.562-.75 1.515-1.172.97-.438 2.125-.438 1.828 0 2.86.922 1.031.907 1.078 2.516v4.86q0 1.452.36 2.312v.156zm-3-1.375q.859 0 1.609-.438.766-.437 1.11-1.14v-2.172h-1.423q-3.312 0-3.312 1.938 0 .859.563 1.343.562.469 1.453.469zm9.187-9.188.063 1.329q1.203-1.532 3.156-1.532 3.36 0 3.375 3.782v6.984h-1.797v-7q-.016-1.14-.531-1.688-.5-.546-1.594-.546-.875 0-1.547.468-.656.47-1.031 1.235v7.531h-1.797v-10.563zm25.25 2.97q0 1.546-.906 2.609-.906 1.062-2.25 1.062-.703 0-1.328-.25-.625-.266-1.453-.984-.828-.735-1.188-.907-.36-.171-.765-.171-.766 0-1.172.515-.407.516-.407 1.438l-1.578.015q0-1.562.89-2.562.907-1 2.266-1 .735 0 1.422.312.688.313 1.547 1.094.86.781 1.485.89l.28.016q.735 0 1.204-.562.469-.578.469-1.5l1.484-.016zm11.485-2.923q0 1.078-.563 1.907-.563.828-1.531 1.297 1.125.468 1.765 1.39.657.922.657 2.078 0 1.844-1.25 2.953-1.25 1.094-3.282 1.094-2.047 0-3.28-1.094-1.235-1.109-1.235-2.953 0-1.14.625-2.062.64-.938 1.75-1.422-.953-.469-1.5-1.297t-.547-1.89q0-1.797 1.156-2.844 1.156-1.063 3.031-1.063 1.875 0 3.032 1.063 1.172 1.047 1.172 2.843zm-1.485 6.641q0-1.188-.765-1.938-.75-.765-1.97-.765-1.218 0-1.952.75-.735.734-.735 1.953 0 1.203.719 1.906.719.688 1.984.688 1.282 0 2-.688.72-.703.72-1.906zm-2.719-9.063q-1.062 0-1.718.672-.657.657-.657 1.782 0 1.093.641 1.765.656.657 1.734.657 1.094 0 1.735-.657.656-.672.656-1.75 0-1.093-.672-1.781t-1.719-.688zm14.47-1.28 4.64 11.593 4.656-11.594h2.422v14.219h-1.875v-5.531l.187-5.985-4.671 11.516h-1.437l-4.656-11.484.187 5.953v5.531h-1.875v-14.219h2.422zm14.577 14.218v-14.219h4.64q2.313 0 3.485.953 1.172.953 1.172 2.828 0 1-.578 1.766-.563.766-1.531 1.188 1.14.328 1.812 1.234.672.89.672 2.14 0 1.922-1.25 3.016-1.234 1.094-3.5 1.094zm1.875-6.656v5.125h3.094q1.313 0 2.063-.672.75-.688.75-1.875 0-2.578-2.782-2.578zm0-1.5h2.828q1.235 0 1.97-.61.734-.625.734-1.672 0-1.171-.688-1.703-.672-.53-2.078-.53h-2.766zm23.766 2.984q0 2.422-1.11 3.906-1.093 1.47-2.984 1.47-1.922 0-3.031-1.235v5.093h-1.797v-14.624h1.64l.094 1.171q1.094-1.375 3.063-1.375 1.906 0 3.015 1.438 1.11 1.437 1.11 4zm-1.813-.203q0-1.781-.765-2.813-.75-1.046-2.078-1.046-1.641 0-2.47 1.453v5.062q.813 1.438 2.485 1.438 1.297 0 2.063-1.032.765-1.03.765-3.062zm10.408 5.375q-.157-.313-.25-1.11-1.266 1.313-3.016 1.313-1.563 0-2.563-.89-1-.891-1-2.25 0-1.641 1.25-2.547 1.266-.922 3.532-.922h1.765v-.828q0-.953-.578-1.516-.562-.563-1.656-.563-.969 0-1.625.5-.656.485-.656 1.172h-1.813q0-.78.563-1.515.562-.75 1.515-1.172.97-.438 2.125-.438 1.828 0 2.86.922 1.031.907 1.078 2.516v4.86q0 1.452.36 2.312v.156zm-3-1.375q.859 0 1.609-.438.766-.437 1.11-1.14v-2.172h-1.423q-3.312 0-3.312 1.938 0 .859.563 1.343.562.469 1.453.469zm10.937-1.266 2.453-7.922h1.938l-4.25 12.188q-.985 2.64-3.125 2.64l-.344-.03-.672-.126v-1.468l.485.047q.921 0 1.421-.376.516-.374.844-1.359l.406-1.078-3.765-10.438h1.968zm7.5 2.641h-1.797v-15h1.797zm2.563-5.375q0-1.563.609-2.797.61-1.25 1.688-1.922 1.093-.672 2.5-.672 2.156 0 3.484 1.5 1.344 1.485 1.344 3.97v.124q0 1.547-.594 2.781-.594 1.22-1.703 1.907-1.094.687-2.516.687-2.14 0-3.484-1.5-1.328-1.5-1.328-3.953zm1.812.203q0 1.766.813 2.828.828 1.063 2.187 1.063 1.375 0 2.188-1.078.812-1.078.812-3.016 0-1.75-.828-2.828-.828-1.078-2.188-1.078-1.343 0-2.171 1.062-.813 1.063-.813 3.047zm16.188 5.172q-.157-.313-.25-1.11-1.266 1.313-3.016 1.313-1.563 0-2.563-.89-1-.891-1-2.25 0-1.641 1.25-2.547 1.266-.922 3.532-.922h1.765v-.828q0-.953-.578-1.516-.562-.563-1.656-.563-.969 0-1.625.5-.656.485-.656 1.172h-1.813q0-.78.563-1.515.562-.75 1.515-1.172.97-.438 2.125-.438 1.828 0 2.86.922 1.031.907 1.078 2.516v4.86q0 1.452.36 2.312v.156zm-3-1.375q.859 0 1.609-.438.766-.437 1.11-1.14v-2.172h-1.423q-3.312 0-3.312 1.938 0 .859.563 1.343.562.469 1.453.469zm7.03-4q0-2.422 1.157-3.906 1.156-1.485 3.016-1.485t2.937 1.266v-5.5h1.813v15h-1.657l-.093-1.14q-1.078 1.343-3.016 1.343-1.828 0-3-1.5-1.156-1.516-1.156-3.937v-.141zm1.813.203q0 1.797.735 2.813.75 1.015 2.062 1.015 1.719 0 2.5-1.531v-4.86q-.797-1.5-2.484-1.5-1.328 0-2.078 1.032-.735 1.031-.735 3.031zm14.157-.203q0-1.563.609-2.797.61-1.25 1.688-1.922 1.093-.672 2.5-.672 2.156 0 3.484 1.5 1.344 1.485 1.344 3.97v.124q0 1.547-.594 2.781-.594 1.22-1.703 1.907-1.094.687-2.516.687-2.14 0-3.484-1.5-1.328-1.5-1.328-3.953zm1.812.203q0 1.766.813 2.828.828 1.063 2.187 1.063 1.375 0 2.188-1.078.812-1.078.812-3.016 0-1.75-.828-2.828-.828-1.078-2.188-1.078-1.343 0-2.171 1.062-.813 1.063-.813 3.047zm11.375-5.39.063 1.328q1.203-1.532 3.156-1.532 3.36 0 3.375 3.782v6.984h-1.797v-7q-.016-1.14-.531-1.688-.5-.546-1.594-.546-.875 0-1.547.468-.656.47-1.031 1.235v7.531h-1.797v-10.563h1.703zm18.531 9.28q.97 0 1.688-.577.719-.594.797-1.47h1.718q-.062.907-.64 1.735-.563.813-1.531 1.313-.953.484-2.032.484-2.156 0-3.437-1.437-1.266-1.453-1.266-3.953v-.297q0-1.547.563-2.75.562-1.203 1.625-1.86 1.062-.672 2.5-.672 1.781 0 2.953 1.063 1.187 1.062 1.265 2.766h-1.718q-.078-1.016-.782-1.672-.687-.672-1.718-.672-1.375 0-2.14 1-.75.984-.75 2.86v.343q0 1.828.75 2.812.75.985 2.155.985zm5.282-4.093q0-1.563.609-2.797.61-1.25 1.688-1.922 1.093-.672 2.5-.672 2.156 0 3.484 1.5 1.344 1.485 1.344 3.97v.124q0 1.547-.594 2.781-.594 1.22-1.703 1.907-1.094.687-2.516.687-2.14 0-3.484-1.5-1.328-1.5-1.328-3.953zm1.812.203q0 1.766.813 2.828.828 1.063 2.187 1.063 1.375 0 2.188-1.078.812-1.078.812-3.016 0-1.75-.828-2.828-.828-1.078-2.188-1.078-1.343 0-2.171 1.062-.813 1.063-.813 3.047zm11.625 5.172h-1.797v-15h1.797zm2.594-5.375q0-2.422 1.156-3.906 1.156-1.485 3.016-1.485t2.937 1.266v-5.5h1.813v15h-1.657l-.093-1.14q-1.078 1.343-3.016 1.343-1.828 0-3-1.5-1.156-1.516-1.156-3.937zm1.812.203q0 1.797.735 2.813.75 1.015 2.062 1.015 1.719 0 2.5-1.531v-4.86q-.797-1.5-2.484-1.5-1.328 0-2.078 1.032-.735 1.031-.735 3.031zm16.594 5.172h-1.797v-15h1.797zm2.563-5.375q0-1.563.609-2.797.61-1.25 1.688-1.922 1.093-.672 2.5-.672 2.156 0 3.484 1.5 1.344 1.485 1.344 3.97v.124q0 1.547-.594 2.781-.594 1.22-1.703 1.907-1.094.687-2.516.687-2.14 0-3.484-1.5-1.328-1.5-1.328-3.953zm1.812.203q0 1.766.813 2.828.828 1.063 2.187 1.063 1.375 0 2.188-1.078.812-1.078.812-3.016 0-1.75-.828-2.828-.828-1.078-2.188-1.078-1.343 0-2.171 1.062-.813 1.063-.813 3.047zm16.188 5.172q-.157-.313-.25-1.11-1.266 1.313-3.016 1.313-1.563 0-2.563-.89-1-.891-1-2.25 0-1.641 1.25-2.547 1.266-.922 3.532-.922h1.765v-.828q0-.953-.578-1.516-.562-.563-1.656-.563-.969 0-1.625.5-.656.485-.656 1.172h-1.813q0-.78.563-1.515.562-.75 1.515-1.172.97-.438 2.125-.438 1.828 0 2.86.922 1.031.907 1.078 2.516v4.86q0 1.452.36 2.312v.156zm-3-1.375q.859 0 1.609-.438.766-.437 1.11-1.14v-2.172h-1.423q-3.312 0-3.312 1.938 0 .859.563 1.343.562.469 1.453.469zm7.03-4q0-2.422 1.157-3.906 1.156-1.485 3.016-1.485t2.937 1.266v-5.5h1.813v15h-1.657l-.093-1.14q-1.078 1.343-3.016 1.343-1.828 0-3-1.5-1.156-1.516-1.156-3.937v-.141zm1.813.203q0 1.797.735 2.813.75 1.015 2.062 1.015 1.719 0 2.5-1.531v-4.86q-.797-1.5-2.484-1.5-1.328 0-2.078 1.032-.735 1.031-.735 3.031z" fill="#757575"/></svg>