<svg height="774" width="1280" xmlns="http://www.w3.org/2000/svg"><g fill="none" fill-rule="evenodd"><path d="m0 0h1280v774h-1280z" fill="#fff"/><g fill-rule="nonzero"><path d="m106.14 118.99-1.9-47.4h-.2c-.467 2.8-.883 5.55-1.25 8.25s-.817 5.45-1.35 8.25l-5.8 30.9h-16.6l-7.1-47.4h-.2c-.067 2.8-.1 5.583-.1 8.35s-.067 5.55-.2 8.35l-1.7 30.7h-21.9l8.8-75.4h25.4l5.8 40.1h.2c.333-2.333.633-4.667.9-7a84.746 84.746 0 0 1 1.1-7l4.9-26.1h25.1l7.3 75.4zm49.98-25.7-2.2-17.5c-.333-2.333-.6-4.7-.8-7.1s-.433-4.767-.7-7.1h-.2c-.333 2.333-.633 4.7-.9 7.1s-.6 4.767-1 7.1l-2.8 17.5zm3.9 25.7-1.5-9.7h-13.7l-1.7 9.7h-21l18.1-75.4h24.9l16 75.4zm20.28 0v-75.4h20.4v75.4zm24.88-75.4h19.4l16.3 45.4.2-.2c-.4-4.4-.883-8.733-1.45-13s-.85-8.6-.85-13v-19.2h19.6v75.4h-19.6l-15.2-43.5-.2.2c.267 3.6.567 7.133.9 10.6s.5 7 .5 10.6v22.1h-19.6zm87.86 75.4v-57h-11.2v-18.4h43.3v18.4h-11.7v57zm62.88 0v-30.6h-9.7v30.6h-20.4v-75.4h20.4v27h9.7v-27h20.4v75.4zm46.68-40.5c1.333 0 2.517-.267 3.55-.8a7.758 7.758 0 0 0 2.6-2.15c.7-.9 1.233-1.933 1.6-3.1s.55-2.35.55-3.55c0-3.333-.9-5.717-2.7-7.15s-4.1-2.083-6.9-1.95v18.6zm9.9 40.5-11.3-31.4-.2.2.2 5.55c.067 1.833.1 3.683.1 5.55v20.1h-20.4v-75.4h19.7c4.4 0 8.467.367 12.2 1.1s6.95 2.05 9.65 3.95 4.817 4.467 6.35 7.7 2.3 7.35 2.3 12.35c0 4.2-.933 8-2.8 11.4s-4.833 5.9-8.9 7.5l15.2 31.4zm21.28-75.4h37.9v17.8h-17.5v10.5h15.7v17.8h-15.7v11.5h17.5v17.8h-37.9zm71.18 49.7-2.2-17.5c-.333-2.333-.6-4.7-.8-7.1s-.433-4.767-.7-7.1h-.2c-.333 2.333-.633 4.7-.9 7.1s-.6 4.767-1 7.1l-2.8 17.5zm3.9 25.7-1.5-9.7h-13.7l-1.7 9.7h-21l18.1-75.4h24.9l16 75.4zm40.68-18.2c2.333 0 4.217-.65 5.65-1.95s2.533-2.9 3.3-4.8 1.283-3.933 1.55-6.1.4-4.15.4-5.95c0-2.067-.133-4.25-.4-6.55s-.783-4.417-1.55-6.35-1.867-3.533-3.3-4.8-3.317-1.9-5.65-1.9zm-20.4-57.2h16.4c5.8 0 10.917.883 15.35 2.65s8.167 4.267 11.2 7.5 5.317 7.167 6.85 11.8 2.3 9.783 2.3 15.45c0 5.8-.567 10.767-1.7 14.9s-2.617 7.6-4.45 10.4-3.95 5.05-6.35 6.75-4.867 2.983-7.4 3.85-5.05 1.433-7.55 1.7-4.783.4-6.85.4h-17.8zm106.56 25.3c0-2.4-.633-4.517-1.9-6.35s-3.167-2.75-5.7-2.75l-1.5.1v17.4c2.8.133 5.017-.533 6.65-2s2.45-3.6 2.45-6.4zm-29.5 50.1v-75.4h18.6c4.467 0 8.617.4 12.45 1.2s7.167 2.183 10 4.15 5.05 4.6 6.65 7.9 2.4 7.417 2.4 12.35-.717 9.033-2.15 12.3-3.45 5.867-6.05 7.8-5.733 3.283-9.4 4.05-7.7 1.083-12.1.95v24.7zm79.68-25.7-2.2-17.5c-.333-2.333-.6-4.7-.8-7.1s-.433-4.767-.7-7.1h-.2c-.333 2.333-.633 4.7-.9 7.1s-.6 4.767-1 7.1l-2.8 17.5zm3.9 25.7-1.5-9.7h-13.7l-1.7 9.7h-21l18.1-75.4h24.9l16 75.4zm41.98-40.5c1.333 0 2.517-.267 3.55-.8a7.758 7.758 0 0 0 2.6-2.15c.7-.9 1.233-1.933 1.6-3.1s.55-2.35.55-3.55c0-3.333-.9-5.717-2.7-7.15s-4.1-2.083-6.9-1.95v18.6zm9.9 40.5-11.3-31.4-.2.2.2 5.55c.067 1.833.1 3.683.1 5.55v20.1h-20.4v-75.4h19.7c4.4 0 8.467.367 12.2 1.1s6.95 2.05 9.65 3.95 4.817 4.467 6.35 7.7 2.3 7.35 2.3 12.35c0 4.2-.933 8-2.8 11.4s-4.833 5.9-8.9 7.5l15.2 31.4zm19.38-25.4a18.847 18.847 0 0 0 2.45 3.1c.967 1 2 1.9 3.1 2.7s2.267 1.433 3.5 1.9 2.517.7 3.85.7c1.4 0 2.75-.417 4.05-1.25s1.95-2.083 1.95-3.75c0-.933-.133-1.733-.4-2.4a5.328 5.328 0 0 0 -1.2-1.8 13.225 13.225 0 0 0 -1.55-1.5 29.723 29.723 0 0 0 -1.85-1.4 90.46 90.46 0 0 1 -5.55-4.6 33.887 33.887 0 0 1 -4.55-5c-1.267-1.733-2.267-3.667-3-5.8s-1.1-4.6-1.1-7.4c0-2.2.383-4.733 1.15-7.6s2.05-5.567 3.85-8.1 4.167-4.683 7.1-6.45 6.567-2.65 10.9-2.65c2.467 0 4.967.35 7.5 1.05s4.867 1.617 7 2.75v22.9c-.6-.933-1.35-1.883-2.25-2.85a21.297 21.297 0 0 0 -2.9-2.6 16.295 16.295 0 0 0 -3.3-1.9 8.937 8.937 0 0 0 -3.55-.75c-1.2 0-2.383.4-3.55 1.2s-1.75 1.933-1.75 3.4c0 .8.2 1.55.6 2.25a11.07 11.07 0 0 0 3.25 3.6c.7.5 1.317.983 1.85 1.45a94.543 94.543 0 0 1 5.75 4.45c1.7 1.433 3.117 3.017 4.25 4.75a20.498 20.498 0 0 1 2.75 5.7c.633 2.067.95 4.533.95 7.4 0 3.533-.583 6.817-1.75 9.85s-2.8 5.7-4.9 8-4.633 4.1-7.6 5.4-6.217 1.95-9.75 1.95c-5.267 0-10.367-1.033-15.3-3.1zm41.58-50h37.9v17.8h-17.5v10.5h15.7v17.8h-15.7v11.5h17.5v17.8h-37.9zm44.18 87.4 37.9-91.7h12.6l-37.9 91.7zm98.08-65.3c-1.467-1.4-2.883-2.483-4.25-3.25s-3.117-1.15-5.25-1.15c-2.667 0-4.85.65-6.55 1.95s-3.05 2.95-4.05 4.95-1.683 4.167-2.05 6.5-.55 4.533-.55 6.6c0 2.2.183 4.483.55 6.85s1.033 4.517 2 6.45 2.283 3.533 3.95 4.8 3.767 1.9 6.3 1.9c2.333 0 4.3-.417 5.9-1.25s3.233-2.017 4.9-3.55l-1.2 21.1c-2.067.933-4.067 1.617-6 2.05s-4.033.65-6.3.65c-4.2 0-8.167-.8-11.9-2.4s-7-4-9.8-7.2-5.033-7.2-6.7-12-2.5-10.433-2.5-16.9c0-5.6.583-10.483 1.75-14.65s2.7-7.717 4.6-10.65 4.05-5.317 6.45-7.15 4.833-3.267 7.3-4.3 4.833-1.75 7.1-2.15 4.233-.6 5.9-.6c1.8 0 3.567.133 5.3.4s3.433.733 5.1 1.4zm23.08 15.6c0 .8.017 1.85.05 3.15s.133 2.683.3 4.15a42.77 42.77 0 0 0 .75 4.45c.333 1.5.8 2.867 1.4 4.1s1.35 2.233 2.25 3 1.983 1.15 3.25 1.15 2.35-.383 3.25-1.15 1.65-1.767 2.25-3 1.067-2.6 1.4-4.1.583-2.983.75-4.45.267-2.85.3-4.15.05-2.35.05-3.15-.017-1.85-.05-3.15a47.679 47.679 0 0 0 -.3-4.15 42.77 42.77 0 0 0 -.75-4.45c-.333-1.5-.8-2.867-1.4-4.1s-1.35-2.233-2.25-3-1.983-1.15-3.25-1.15-2.35.383-3.25 1.15-1.65 1.767-2.25 3-1.067 2.6-1.4 4.1a42.77 42.77 0 0 0 -.75 4.45 47.68 47.68 0 0 0 -.3 4.15c-.033 1.3-.05 2.35-.05 3.15zm-20.8 0c0-4.6.533-9.217 1.6-13.85s2.75-8.817 5.05-12.55 5.267-6.767 8.9-9.1 8.05-3.5 13.25-3.5 9.617 1.167 13.25 3.5 6.6 5.367 8.9 9.1 3.983 7.917 5.05 12.55 1.6 9.25 1.6 13.85-.533 9.217-1.6 13.85-2.75 8.817-5.05 12.55-5.267 6.767-8.9 9.1-8.05 3.5-13.25 3.5-9.617-1.167-13.25-3.5-6.6-5.367-8.9-9.1-3.983-7.917-5.05-12.55-1.6-9.25-1.6-13.85zm113.68 37.7-1.9-47.4h-.2c-.467 2.8-.883 5.55-1.25 8.25s-.817 5.45-1.35 8.25l-5.8 30.9h-16.6l-7.1-47.4h-.2c-.067 2.8-.1 5.583-.1 8.35s-.067 5.55-.2 8.35l-1.7 30.7h-21.9l8.8-75.4h25.4l5.8 40.1h.2a251.1 251.1 0 0 0 .9-7 84.746 84.746 0 0 1 1.1-7l4.9-26.1h25.1l7.3 75.4zm50.68-50.1c0-2.4-.633-4.517-1.9-6.35s-3.167-2.75-5.7-2.75l-1.5.1v17.4c2.8.133 5.017-.533 6.65-2s2.45-3.6 2.45-6.4zm-29.5 50.1v-75.4h18.6c4.467 0 8.617.4 12.45 1.2s7.167 2.183 10 4.15 5.05 4.6 6.65 7.9 2.4 7.417 2.4 12.35-.717 9.033-2.15 12.3-3.45 5.867-6.05 7.8-5.733 3.283-9.4 4.05-7.7 1.083-12.1.95v24.7zm50.88 0v-75.4h20.4v75.4zm24.88 0v-75.4h20.4v57.6h15.3v17.8zm36.48-75.4h37.9v17.8h-17.5v10.5h15.7v17.8h-15.7v11.5h17.5v17.8h-37.9z" fill="#000"/><path d="m1036.12 155.79c.533 0 1.007-.107 1.42-.32s.76-.5 1.04-.86.493-.773.64-1.24.22-.94.22-1.42c0-1.333-.36-2.287-1.08-2.86s-1.64-.833-2.76-.78v7.44zm3.96 16.2-4.52-12.56-.08.08.08 2.22c.027.733.04 1.473.04 2.22v8.04h-8.16v-30.16h7.88c1.76 0 3.387.147 4.88.44s2.78.82 3.86 1.58 1.927 1.787 2.54 3.08.92 2.94.92 4.94c0 1.68-.373 3.2-1.12 4.56s-1.933 2.36-3.56 3l6.08 12.56zm10.29-30.16h15.16v7.12h-7v4.2h6.28v7.12h-6.28v4.6h7v7.12h-15.16zm26.89 22.88c.933 0 1.687-.26 2.26-.78a5.153 5.153 0 0 0 1.32-1.92c.307-.76.513-1.573.62-2.44s.16-1.66.16-2.38c0-.827-.053-1.7-.16-2.62a9.983 9.983 0 0 0 -.62-2.54c-.307-.773-.747-1.413-1.32-1.92s-1.327-.76-2.26-.76zm-8.16-22.88h6.56c2.32 0 4.367.353 6.14 1.06s3.267 1.707 4.48 3 2.127 2.867 2.74 4.72.92 3.913.92 6.18c0 2.32-.227 4.307-.68 5.96s-1.047 3.04-1.78 4.16-1.58 2.02-2.54 2.7-1.947 1.193-2.96 1.54-2.02.573-3.02.68-1.913.16-2.74.16h-7.12zm31.69 22.88c.933 0 1.687-.26 2.26-.78a5.153 5.153 0 0 0 1.32-1.92c.307-.76.513-1.573.62-2.44s.16-1.66.16-2.38c0-.827-.053-1.7-.16-2.62a9.983 9.983 0 0 0 -.62-2.54c-.307-.773-.747-1.413-1.32-1.92s-1.327-.76-2.26-.76zm-8.16-22.88h6.56c2.32 0 4.367.353 6.14 1.06s3.267 1.707 4.48 3 2.127 2.867 2.74 4.72.92 3.913.92 6.18c0 2.32-.227 4.307-.68 5.96s-1.047 3.04-1.78 4.16-1.58 2.02-2.54 2.7-1.947 1.193-2.96 1.54-2.02.573-3.02.68-1.913.16-2.74.16h-7.12zm23.53 30.16v-30.16h8.16v30.16zm14.73 0v-22.8h-4.48v-7.36h17.32v7.36h-4.68v22.8zm18.53.44c-.64 0-1.24-.12-1.8-.36a4.234 4.234 0 0 1 -1.44-1c-.4-.427-.72-.92-.96-1.48a4.52 4.52 0 0 1 -.36-1.8c0-.613.12-1.193.36-1.74a4.86 4.86 0 0 1 .96-1.44c.4-.413.867-.74 1.4-.98a4.049 4.049 0 0 1 1.68-.36c.64 0 1.253.113 1.84.34a4.473 4.473 0 0 1 1.52.96c.427.413.767.907 1.02 1.48a4.55 4.55 0 0 1 .38 1.86c0 .64-.12 1.233-.36 1.78a4.286 4.286 0 0 1 -1 1.42c-.427.4-.913.72-1.46.96s-1.14.36-1.78.36zm23.73-21.76c-.587-.56-1.153-.993-1.7-1.3s-1.247-.46-2.1-.46c-1.067 0-1.94.26-2.62.78a5.61 5.61 0 0 0 -1.62 1.98c-.4.8-.673 1.667-.82 2.6s-.22 1.813-.22 2.64c0 .88.073 1.793.22 2.74s.413 1.807.8 2.58a5.416 5.416 0 0 0 1.58 1.92c.667.507 1.507.76 2.52.76.933 0 1.72-.167 2.36-.5s1.293-.807 1.96-1.42l-.48 8.44c-.827.373-1.627.647-2.4.82s-1.613.26-2.52.26c-1.68 0-3.267-.32-4.76-.96s-2.8-1.6-3.92-2.88-2.013-2.88-2.68-4.8-1-4.173-1-6.76c0-2.24.233-4.193.7-5.86s1.08-3.087 1.84-4.26 1.62-2.127 2.58-2.86 1.933-1.307 2.92-1.72 1.933-.7 2.84-.86 1.693-.24 2.36-.24c.72 0 1.427.053 2.12.16a9.275 9.275 0 0 1 2.04.56zm11.01 6.24c0 .32.007.74.02 1.26s.053 1.073.12 1.66.167 1.18.3 1.78.32 1.147.56 1.64.54.893.9 1.2.793.46 1.3.46.94-.153 1.3-.46.66-.707.9-1.2.427-1.04.56-1.64.233-1.193.3-1.78.107-1.14.12-1.66.02-.94.02-1.26-.007-.74-.02-1.26a19.07 19.07 0 0 0 -.12-1.66 17.11 17.11 0 0 0 -.3-1.78 7.412 7.412 0 0 0 -.56-1.64 3.64 3.64 0 0 0 -.9-1.2c-.36-.307-.793-.46-1.3-.46s-.94.153-1.3.46a3.64 3.64 0 0 0 -.9 1.2 7.412 7.412 0 0 0 -.56 1.64 17.11 17.11 0 0 0 -.3 1.78 19.07 19.07 0 0 0 -.12 1.66c-.013.52-.02.94-.02 1.26zm-8.32 0c0-1.84.213-3.687.64-5.54s1.1-3.527 2.02-5.02a11.325 11.325 0 0 1 3.56-3.64c1.453-.933 3.22-1.4 5.3-1.4s3.847.467 5.3 1.4a11.325 11.325 0 0 1 3.56 3.64c.92 1.493 1.593 3.167 2.02 5.02s.64 3.7.64 5.54-.213 3.687-.64 5.54-1.1 3.527-2.02 5.02a11.325 11.325 0 0 1 -3.56 3.64c-1.453.933-3.22 1.4-5.3 1.4s-3.847-.467-5.3-1.4a11.325 11.325 0 0 1 -3.56-3.64c-.92-1.493-1.593-3.167-2.02-5.02s-.64-3.7-.64-5.54zm47.25 15.08-.76-18.96h-.08c-.187 1.12-.353 2.22-.5 3.3a62.83 62.83 0 0 1 -.54 3.3l-2.32 12.36h-6.64l-2.84-18.96h-.08c-.027 1.12-.04 2.233-.04 3.34s-.027 2.22-.08 3.34l-.68 12.28h-8.76l3.52-30.16h10.16l2.32 16.04h.08c.133-.933.253-1.867.36-2.8s.253-1.867.44-2.8l1.96-10.44h10.04l2.92 30.16z" fill="#9b9b9b"/><path d="m47.84 172.51h1061.643v536h-1061.643z" fill="#fff"/><path d="m387.455 417.911c27.07-82.676 104.211-138.59 191.206-138.59v201.195l-191.206-62.606z" fill="#f4b400"/><path d="m578.661 279.322c87.205 0 164.482 56.178 191.382 139.13 26.901 82.951-2.699 173.79-73.307 224.967-70.608 51.178-166.147 51.043-236.61-.334-70.462-51.377-99.806-142.299-72.67-225.174l191.205 62.605z" fill="#4285f4"/><path d="m75.388 312.083 2.206-.304c.067 1.416.337 2.387.809 2.913.472.513 1.126.77 1.962.77.607 0 1.133-.136 1.578-.406.445-.283.748-.667.91-1.153.175-.485.263-1.26.263-2.326v-12.765h2.468v12.623c0 1.551-.189 2.752-.566 3.601a4.102 4.102 0 0 1 -1.8 1.963c-.81.445-1.76.667-2.853.667-1.618 0-2.866-.465-3.743-1.396-.863-.944-1.274-2.34-1.234-4.187zm13.372-.688 2.306-.202c.108.917.358 1.672.749 2.265.404.594 1.025 1.08 1.86 1.457.85.364 1.808.546 2.874.546.93 0 1.753-.135 2.468-.405.714-.283 1.247-.667 1.598-1.153a2.67 2.67 0 0 0 .526-1.598c0-.58-.169-1.085-.506-1.517-.337-.431-.89-.796-1.659-1.092-.499-.203-1.605-.506-3.318-.91-1.699-.405-2.886-.79-3.56-1.154-.89-.458-1.55-1.031-1.982-1.72a4.25 4.25 0 0 1 -.648-2.305c0-.944.263-1.821.79-2.63.525-.81 1.3-1.423 2.326-1.841 1.024-.432 2.157-.647 3.398-.647 1.376 0 2.59.222 3.641.667 1.052.445 1.855 1.1 2.408 1.962.566.85.87 1.821.91 2.913l-2.347.182c-.121-1.173-.546-2.056-1.274-2.65-.728-.606-1.807-.91-3.237-.91-1.483 0-2.569.277-3.257.83-.674.539-1.011 1.186-1.011 1.942 0 .674.243 1.227.728 1.658.472.432 1.706.87 3.702 1.315s3.365.836 4.107 1.174c1.079.499 1.874 1.132 2.387 1.901.512.755.768 1.632.768 2.63 0 .984-.283 1.915-.85 2.792-.566.876-1.382 1.557-2.447 2.043-1.052.485-2.239.728-3.56.728-1.673 0-3.075-.243-4.208-.728-1.133-.5-2.023-1.24-2.67-2.225-.648-.985-.985-2.09-1.012-3.318zm29.475 11.39c-1.255-1.579-2.313-3.426-3.177-5.544a17.462 17.462 0 0 1 -1.294-6.615c0-2.01.323-3.931.97-5.765.756-2.131 1.923-4.255 3.5-6.372h1.64c-1.026 1.753-1.7 3.007-2.024 3.762a20.606 20.606 0 0 0 -1.214 3.642 21.078 21.078 0 0 0 -.546 4.753c0 4.046 1.261 8.092 3.783 12.138h-1.638zm8.253-5.443-4.916-18.53h2.509l2.812 12.138c.31 1.281.573 2.549.789 3.803.472-1.982.748-3.129.83-3.439l3.54-12.502h2.953l2.65 9.366c.674 2.334 1.16 4.525 1.456 6.575a84.23 84.23 0 0 1 .91-4.046l2.914-11.895h2.468l-5.078 18.53h-2.367l-3.904-14.12c-.337-1.187-.533-1.915-.587-2.185-.202.85-.384 1.578-.546 2.185l-3.924 14.12zm20.23-6.716c0-2.481.687-4.322 2.063-5.522 1.16-.998 2.57-1.497 4.228-1.497 1.848 0 3.351.606 4.511 1.82 1.173 1.214 1.76 2.886 1.76 5.017 0 1.726-.256 3.089-.769 4.087a5.491 5.491 0 0 1 -2.265 2.306c-.985.54-2.064.809-3.237.809-1.888 0-3.412-.6-4.572-1.8-1.146-1.214-1.72-2.954-1.72-5.22zm2.326 0c0 1.726.37 3.014 1.113 3.864.755.85 1.706 1.275 2.852 1.275 1.133 0 2.07-.425 2.812-1.275.755-.863 1.133-2.178 1.133-3.945 0-1.658-.378-2.913-1.133-3.762-.755-.863-1.693-1.295-2.812-1.295-1.146 0-2.097.432-2.852 1.295-.742.85-1.113 2.13-1.113 3.843zm12.724 6.716v-13.432h2.043v2.043c.526-.957 1.012-1.584 1.457-1.881.445-.31.93-.465 1.457-.465.768 0 1.55.242 2.346.728l-.789 2.124c-.553-.337-1.106-.506-1.659-.506-.499 0-.95.155-1.355.466-.391.296-.674.708-.85 1.234a9.189 9.189 0 0 0 -.364 2.65v7.04h-2.286zm9.104 0v-18.53h2.286v10.56l5.38-5.462h2.934l-5.118 4.977 5.644 8.455h-2.812l-4.43-6.857-1.598 1.537v5.32zm22.13-4.329 2.347.304c-.364 1.362-1.052 2.427-2.063 3.196-.998.755-2.28 1.133-3.844 1.133-1.955 0-3.513-.6-4.673-1.8-1.146-1.214-1.72-2.914-1.72-5.098 0-2.266.58-4.02 1.74-5.26 1.16-1.254 2.67-1.881 4.532-1.881 1.794 0 3.257.613 4.39 1.84 1.146 1.214 1.72 2.934 1.72 5.159 0 .135-.008.337-.021.607h-10.014c.081 1.47.5 2.596 1.255 3.378s1.692 1.174 2.811 1.174c.837 0 1.545-.216 2.125-.648.593-.445 1.065-1.146 1.416-2.104zm-7.484-3.681h7.505c-.095-1.12-.378-1.963-.85-2.53-.728-.876-1.672-1.314-2.832-1.314-1.038 0-1.915.35-2.63 1.052-.715.688-1.112 1.618-1.193 2.792zm12.502 8.01v-13.432h2.043v2.043c.526-.957 1.011-1.584 1.456-1.881.445-.31.93-.465 1.457-.465.768 0 1.55.242 2.346.728l-.789 2.124c-.553-.337-1.105-.506-1.658-.506-.5 0-.951.155-1.356.466-.39.296-.674.708-.85 1.234a9.19 9.19 0 0 0 -.364 2.65v7.04h-2.285zm21.827-2.043.324 2.023a8.337 8.337 0 0 1 -1.72.202c-.822 0-1.463-.128-1.922-.384-.445-.27-.761-.613-.95-1.032-.19-.431-.284-1.328-.284-2.69v-7.728h-1.658v-1.78h1.658v-3.318l2.266-1.375v4.693h2.286v1.78h-2.286v7.85c0 .647.04 1.065.122 1.254a1.1 1.1 0 0 0 .384.445c.189.107.452.161.789.161.243 0 .573-.033.991-.1zm2.792 2.043v-18.53h2.286v6.636c1.065-1.228 2.407-1.841 4.025-1.841.985 0 1.841.195 2.57.586.741.391 1.267.938 1.577 1.639.324.688.486 1.686.486 2.994v8.516h-2.266v-8.516c0-1.133-.25-1.956-.748-2.468-.5-.526-1.194-.79-2.084-.79-.674 0-1.315.176-1.922.527a2.99 2.99 0 0 0 -1.274 1.436c-.243.594-.364 1.416-.364 2.468v7.343zm14.221 0v-13.432h2.043v2.043c.526-.957 1.012-1.584 1.457-1.881.445-.31.93-.465 1.456-.465.769 0 1.551.242 2.347.728l-.789 2.124c-.553-.337-1.106-.506-1.659-.506-.499 0-.95.155-1.355.466-.391.296-.675.708-.85 1.234a9.189 9.189 0 0 0 -.364 2.65v7.04h-2.286zm18.288-4.329 2.346.304c-.364 1.362-1.052 2.427-2.063 3.196-.998.755-2.28 1.133-3.844 1.133-1.955 0-3.513-.6-4.673-1.8-1.146-1.214-1.72-2.914-1.72-5.098 0-2.266.58-4.02 1.74-5.26 1.16-1.254 2.67-1.881 4.532-1.881 1.793 0 3.257.613 4.39 1.84 1.146 1.214 1.72 2.934 1.72 5.159 0 .135-.008.337-.021.607h-10.015c.081 1.47.5 2.596 1.254 3.378.756.782 1.693 1.174 2.812 1.174.837 0 1.545-.216 2.124-.648.594-.445 1.066-1.146 1.417-2.104zm-7.485-3.681h7.505c-.095-1.12-.378-1.963-.85-2.53-.728-.876-1.672-1.314-2.832-1.314-1.038 0-1.915.35-2.63 1.052-.715.688-1.112 1.618-1.193 2.792zm21.301 6.352c-.85.714-1.665 1.22-2.447 1.517a7.013 7.013 0 0 1 -2.509.445c-1.47 0-2.603-.358-3.399-1.072-.795-.729-1.193-1.652-1.193-2.772 0-.66.148-1.26.445-1.8.31-.54.708-.971 1.194-1.295a5.549 5.549 0 0 1 1.638-.769c.445-.107 1.12-.222 2.023-.343 1.834-.216 3.183-.472 4.046-.77.013-.31.02-.512.02-.606 0-.917-.216-1.571-.647-1.962-.58-.513-1.443-.769-2.59-.769-1.078 0-1.874.189-2.387.566-.499.378-.87 1.046-1.112 2.003l-2.225-.303c.202-.958.532-1.727.99-2.306.46-.594 1.127-1.046 2.004-1.356.876-.324 1.894-.485 3.054-.485 1.147 0 2.077.134 2.792.404s1.24.614 1.578 1.032c.337.405.573.917.708 1.537.08.391.121 1.093.121 2.104v3.035c0 2.117.047 3.459.142 4.025.094.553.29 1.086.586 1.598h-2.387c-.229-.472-.377-1.025-.445-1.658zm-.202-5.078c-.823.337-2.063.62-3.722.85-.93.135-1.592.29-1.983.465a1.978 1.978 0 0 0 -.89.728 1.925 1.925 0 0 0 -.323 1.093c0 .606.229 1.112.687 1.517.459.404 1.133.607 2.023.607.877 0 1.652-.19 2.327-.567.687-.39 1.193-.917 1.517-1.578.243-.526.364-1.288.364-2.286zm14.383 6.736v-1.699c-.85 1.335-2.104 2.003-3.763 2.003a5.274 5.274 0 0 1 -2.953-.89c-.89-.594-1.585-1.416-2.084-2.468-.485-1.052-.728-2.266-.728-3.642 0-1.348.223-2.569.668-3.661s1.112-1.929 2.002-2.509a5.43 5.43 0 0 1 2.994-.87c.81 0 1.531.176 2.165.527a4.635 4.635 0 0 1 1.558 1.315v-6.636h2.245v18.53zm-7.202-6.696c0 1.713.365 2.994 1.093 3.844s1.584 1.275 2.569 1.275c.998 0 1.84-.405 2.529-1.214.7-.81 1.052-2.05 1.052-3.722 0-1.835-.358-3.183-1.073-4.046-.7-.863-1.57-1.295-2.61-1.295-1.01 0-1.86.418-2.548 1.254-.674.823-1.012 2.124-1.012 3.904zm14.222 12.138h-1.619c2.509-4.046 3.763-8.092 3.763-12.138 0-1.59-.175-3.162-.526-4.713a20.606 20.606 0 0 0 -1.214-3.641c-.323-.769-.998-2.037-2.023-3.803h1.619c1.591 2.117 2.764 4.241 3.52 6.372.647 1.834.97 3.756.97 5.765 0 2.28-.438 4.484-1.314 6.615-.863 2.118-1.922 3.965-3.176 5.543z" fill="#1a1a1a"/><path d="m87.668 350.114v2.185h-12.239a4.131 4.131 0 0 1 .263-1.578c.31-.836.81-1.659 1.497-2.468.688-.81 1.679-1.746 2.974-2.812 2.023-1.645 3.385-2.947 4.086-3.904.715-.971 1.072-1.888 1.072-2.751 0-.904-.324-1.666-.97-2.286-.648-.62-1.491-.93-2.53-.93-1.092 0-1.969.33-2.63.99-.66.661-.99 1.572-.99 2.731l-2.347-.242c.162-1.74.762-3.068 1.8-3.986 1.052-.917 2.461-1.375 4.228-1.375s3.17.492 4.208 1.477c1.038.984 1.558 2.205 1.558 3.661 0 .742-.156 1.477-.466 2.205-.296.715-.795 1.47-1.497 2.266-.701.782-1.868 1.868-3.5 3.257-1.375 1.146-2.258 1.922-2.65 2.326a7.762 7.762 0 0 0 -.95 1.234zm2.286-6.959c0-2.185.222-3.945.667-5.28.459-1.348 1.133-2.38 2.023-3.095.89-.728 2.01-1.092 3.358-1.092.998 0 1.868.202 2.61.607a4.834 4.834 0 0 1 1.861 1.72c.486.754.87 1.678 1.153 2.77.283 1.08.425 2.536.425 4.37 0 2.172-.23 3.925-.688 5.26-.445 1.335-1.112 2.373-2.003 3.115-.876.728-1.996 1.093-3.358 1.093-1.793 0-3.196-.641-4.207-1.922-1.228-1.551-1.841-4.066-1.841-7.546zm2.346 0c0 3.048.351 5.078 1.052 6.09.715.997 1.598 1.496 2.65 1.496 1.039 0 1.915-.505 2.63-1.517.715-1.011 1.072-3.034 1.072-6.069 0-3.048-.357-5.07-1.072-6.069-.715-1.011-1.598-1.517-2.65-1.517s-1.888.445-2.508 1.335c-.783 1.12-1.174 3.203-1.174 6.251zm13.17 9.144v-2.59h2.59v2.59zm6.493-9.144c0-2.185.223-3.945.668-5.28.458-1.348 1.133-2.38 2.023-3.095.89-.728 2.01-1.092 3.358-1.092.998 0 1.868.202 2.61.607a4.834 4.834 0 0 1 1.86 1.72c.486.754.87 1.678 1.154 2.77.283 1.08.425 2.536.425 4.37 0 2.172-.23 3.925-.688 5.26-.445 1.335-1.113 2.373-2.003 3.115-.877.728-1.996 1.093-3.358 1.093-1.794 0-3.196-.641-4.208-1.922-1.227-1.551-1.84-4.066-1.84-7.546zm2.347 0c0 3.048.35 5.078 1.052 6.09.715.997 1.598 1.496 2.65 1.496 1.038 0 1.915-.505 2.63-1.517.715-1.011 1.072-3.034 1.072-6.069 0-3.048-.357-5.07-1.072-6.069-.715-1.011-1.598-1.517-2.65-1.517s-1.888.445-2.509 1.335c-.782 1.12-1.173 3.203-1.173 6.251zm12.32-4.936c0-1.321.33-2.448.991-3.378.674-.93 1.645-1.396 2.913-1.396 1.16 0 2.117.418 2.873 1.254.768.823 1.153 2.043 1.153 3.662 0 1.564-.385 2.771-1.153 3.62-.77.837-1.72 1.255-2.853 1.255-1.12 0-2.056-.411-2.812-1.234-.741-.836-1.112-2.097-1.112-3.783zm3.965-3.196c-.567 0-1.039.243-1.416.728-.364.486-.547 1.383-.547 2.69 0 1.188.19 2.024.567 2.51.377.485.843.727 1.396.727.58 0 1.052-.242 1.416-.728.377-.499.566-1.396.566-2.69 0-1.2-.189-2.037-.566-2.509-.378-.485-.85-.728-1.416-.728zm.02 17.964 10.135-19.542h1.84l-10.094 19.542zm8.01-5.037c0-1.336.331-2.462.992-3.379.674-.93 1.645-1.396 2.913-1.396 1.16 0 2.117.419 2.873 1.255.768.822 1.153 2.043 1.153 3.661 0 1.565-.385 2.772-1.153 3.621-.769.85-1.72 1.275-2.853 1.275-1.119 0-2.056-.418-2.812-1.254-.741-.85-1.112-2.111-1.112-3.783zm3.966-3.197c-.567 0-1.039.243-1.416.729-.378.485-.567 1.382-.567 2.69 0 1.187.19 2.023.567 2.509.377.485.85.728 1.416.728.58 0 1.052-.243 1.416-.728.377-.486.566-1.383.566-2.69 0-1.188-.189-2.024-.566-2.51-.378-.485-.85-.728-1.416-.728z" fill="#9e9e9e"/></g><path d="m74.64 325.758h391.85" stroke="#757575"/><path d="m469.08 325.758a2.59 2.59 0 1 0 -5.18 0 2.59 2.59 0 0 0 5.18 0" fill="#9e9e9e" fill-rule="nonzero"/><path d="m890.523 621.599 2.205-.304c.067 1.416.337 2.387.809 2.913.472.513 1.126.769 1.962.769.607 0 1.133-.135 1.578-.405.445-.283.749-.667.91-1.153.176-.485.263-1.26.263-2.326v-12.765h2.468v12.623c0 1.551-.188 2.751-.566 3.601a4.102 4.102 0 0 1 -1.8 1.962c-.81.445-1.76.668-2.853.668-1.618 0-2.866-.465-3.742-1.396-.863-.944-1.275-2.34-1.234-4.187zm13.371-.688 2.307-.202c.108.917.357 1.672.748 2.265.405.594 1.025 1.08 1.861 1.457.85.364 1.807.546 2.873.546.93 0 1.753-.135 2.468-.405.715-.283 1.247-.667 1.598-1.153a2.67 2.67 0 0 0 .526-1.598c0-.58-.169-1.086-.506-1.517-.337-.432-.89-.796-1.659-1.092-.499-.203-1.605-.506-3.317-.91-1.7-.405-2.886-.79-3.56-1.154-.89-.458-1.552-1.032-1.983-1.72a4.25 4.25 0 0 1 -.648-2.306c0-.944.263-1.82.79-2.63.525-.809 1.3-1.422 2.326-1.84 1.025-.432 2.158-.648 3.398-.648 1.376 0 2.59.223 3.642.668s1.854 1.1 2.407 1.962c.566.85.87 1.82.91 2.913l-2.346.182c-.122-1.173-.546-2.056-1.275-2.65-.728-.607-1.807-.91-3.236-.91-1.484 0-2.57.276-3.257.83-.675.539-1.012 1.186-1.012 1.941 0 .675.243 1.228.728 1.66.472.43 1.706.87 3.702 1.314 1.996.445 3.365.836 4.107 1.173 1.079.5 1.875 1.133 2.387 1.902.512.755.769 1.632.769 2.63 0 .984-.283 1.915-.85 2.791-.566.877-1.382 1.558-2.448 2.044-1.052.485-2.238.728-3.56.728-1.672 0-3.075-.243-4.208-.728-1.133-.5-2.023-1.241-2.67-2.226-.647-.984-.985-2.09-1.012-3.317zm29.476 11.389c-1.254-1.578-2.313-3.426-3.176-5.543a17.462 17.462 0 0 1 -1.295-6.615c0-2.01.324-3.931.971-5.765.755-2.131 1.922-4.255 3.5-6.373h1.638c-1.025 1.754-1.699 3.008-2.023 3.763a20.605 20.605 0 0 0 -1.213 3.641 21.076 21.076 0 0 0 -.547 4.754c0 4.046 1.261 8.092 3.783 12.138zm4.936-5.442v-18.53h3.702l4.37 13.109c.404 1.227.7 2.144.89 2.751.215-.674.546-1.666.99-2.974l4.43-12.886h3.298v18.53h-2.346v-15.516l-5.402 15.516h-2.205l-5.36-15.779v15.78h-2.367zm30.567-1.659c-.85.715-1.666 1.221-2.448 1.518a7.014 7.014 0 0 1 -2.509.445c-1.47 0-2.603-.358-3.398-1.072-.796-.729-1.194-1.653-1.194-2.772 0-.66.149-1.26.445-1.8.31-.54.708-.971 1.194-1.295a5.548 5.548 0 0 1 1.638-.769c.445-.108 1.12-.222 2.023-.344 1.834-.215 3.183-.472 4.046-.768.014-.31.02-.513.02-.607 0-.917-.215-1.571-.647-1.962-.58-.513-1.443-.77-2.59-.77-1.078 0-1.874.19-2.386.567-.5.378-.87 1.045-1.113 2.003l-2.225-.304c.202-.957.532-1.726.991-2.306.459-.593 1.126-1.045 2.003-1.355.876-.324 1.895-.486 3.054-.486 1.147 0 2.077.135 2.792.405s1.24.614 1.578 1.032c.337.404.573.917.708 1.537.08.391.121 1.093.121 2.104v3.034c0 2.118.048 3.46.142 4.026.094.553.29 1.086.587 1.598h-2.387c-.23-.472-.378-1.025-.445-1.659zm-.203-5.077c-.822.337-2.063.62-3.722.85-.93.134-1.591.29-1.982.465a1.978 1.978 0 0 0 -.89.728 1.925 1.925 0 0 0 -.324 1.092c0 .607.229 1.113.688 1.518.458.404 1.132.607 2.022.607.877 0 1.653-.19 2.327-.567.688-.391 1.193-.917 1.517-1.578.243-.526.364-1.288.364-2.286v-.83zm5.685-9.184v-2.61h2.286v2.61zm0 15.92v-13.432h2.286v13.432zm5.158 0v-13.432h2.064v1.922c.984-1.484 2.407-2.226 4.268-2.226.81 0 1.55.149 2.225.445.688.284 1.2.661 1.538 1.133.337.472.573 1.032.708 1.68.08.431.121 1.173.121 2.225v8.253h-2.286v-8.172c0-.931-.087-1.626-.263-2.084-.175-.459-.492-.823-.95-1.092-.446-.27-.972-.405-1.578-.405-.972 0-1.808.31-2.509.93-.701.607-1.052 1.767-1.052 3.48v7.343zm26.986-2.043.324 2.023a8.337 8.337 0 0 1 -1.72.202c-.822 0-1.463-.128-1.921-.384-.445-.27-.762-.614-.951-1.032-.189-.431-.283-1.328-.283-2.69v-7.728h-1.66v-1.78h1.66v-3.318l2.265-1.375v4.693h2.286v1.78h-2.286v7.85c0 .646.04 1.065.122 1.253a1.1 1.1 0 0 0 .384.445c.189.108.452.162.79.162.242 0 .572-.033.99-.1zm2.792 2.043v-18.53h2.286v6.635c1.065-1.227 2.407-1.84 4.026-1.84.984 0 1.84.195 2.569.586.741.391 1.267.937 1.578 1.639.323.687.485 1.685.485 2.994v8.516h-2.266v-8.516c0-1.133-.25-1.956-.748-2.468-.5-.526-1.194-.79-2.084-.79-.674 0-1.315.176-1.921.527a2.99 2.99 0 0 0 -1.275 1.436c-.243.593-.364 1.416-.364 2.468v7.343zm14.221 0v-13.432h2.043v2.043c.526-.957 1.012-1.585 1.457-1.881.445-.31.93-.466 1.457-.466.768 0 1.55.243 2.346.729l-.789 2.124c-.553-.337-1.106-.506-1.659-.506-.499 0-.95.155-1.355.465-.391.297-.674.708-.85 1.234a9.19 9.19 0 0 0 -.364 2.65v7.04zm18.288-4.329 2.346.304c-.364 1.362-1.052 2.427-2.063 3.196-.998.755-2.28 1.133-3.844 1.133-1.955 0-3.513-.6-4.673-1.8-1.146-1.214-1.72-2.914-1.72-5.099 0-2.265.58-4.018 1.74-5.26 1.16-1.253 2.67-1.88 4.532-1.88 1.794 0 3.257.613 4.39 1.84 1.146 1.214 1.72 2.934 1.72 5.159 0 .135-.007.337-.02.607h-10.015c.081 1.47.5 2.596 1.255 3.378s1.692 1.173 2.812 1.173c.836 0 1.544-.215 2.124-.647.593-.445 1.065-1.146 1.416-2.104zm-7.485-3.682h7.505c-.094-1.119-.378-1.962-.85-2.528-.728-.877-1.672-1.315-2.832-1.315-1.038 0-1.915.35-2.63 1.052-.714.688-1.112 1.618-1.193 2.791zm21.301 6.352c-.85.715-1.665 1.221-2.447 1.518a7.014 7.014 0 0 1 -2.509.445c-1.47 0-2.603-.358-3.398-1.072-.796-.729-1.194-1.653-1.194-2.772 0-.66.149-1.26.445-1.8.31-.54.708-.971 1.194-1.295a5.548 5.548 0 0 1 1.638-.769c.445-.108 1.12-.222 2.023-.344 1.834-.215 3.183-.472 4.046-.768.014-.31.02-.513.02-.607 0-.917-.215-1.571-.647-1.962-.58-.513-1.443-.77-2.59-.77-1.078 0-1.874.19-2.386.567-.5.378-.87 1.045-1.113 2.003l-2.225-.304c.202-.957.532-1.726.991-2.306.459-.593 1.126-1.045 2.003-1.355.876-.324 1.895-.486 3.054-.486 1.147 0 2.077.135 2.792.405s1.24.614 1.578 1.032c.337.404.573.917.708 1.537.08.391.121 1.093.121 2.104v3.034c0 2.118.048 3.46.142 4.026.094.553.29 1.086.587 1.598h-2.387c-.23-.472-.378-1.025-.446-1.659zm-.202-5.077c-.822.337-2.063.62-3.722.85-.93.134-1.591.29-1.983.465a1.978 1.978 0 0 0 -.89.728 1.925 1.925 0 0 0 -.323 1.092c0 .607.229 1.113.688 1.518.458.404 1.132.607 2.022.607.877 0 1.653-.19 2.327-.567.688-.391 1.193-.917 1.517-1.578.243-.526.364-1.288.364-2.286v-.83zm14.383 6.736v-1.699c-.85 1.335-2.104 2.003-3.762 2.003a5.274 5.274 0 0 1 -2.954-.89c-.89-.594-1.585-1.416-2.083-2.468-.486-1.052-.729-2.266-.729-3.642 0-1.348.223-2.569.668-3.661.445-1.093 1.112-1.929 2.003-2.509a5.43 5.43 0 0 1 2.994-.87c.809 0 1.53.176 2.164.526a4.635 4.635 0 0 1 1.558 1.315v-6.635h2.245v18.53zm-7.201-6.696c0 1.713.364 2.994 1.092 3.844s1.585 1.274 2.57 1.274c.997 0 1.84-.404 2.528-1.213.701-.81 1.052-2.05 1.052-3.723 0-1.834-.358-3.182-1.072-4.046-.702-.863-1.572-1.294-2.61-1.294-1.011 0-1.861.418-2.549 1.254-.674.823-1.011 2.124-1.011 3.904zm14.221 12.138h-1.618c2.508-4.046 3.762-8.092 3.762-12.138 0-1.591-.175-3.162-.526-4.713a20.605 20.605 0 0 0 -1.213-3.641c-.324-.77-.998-2.037-2.023-3.804h1.618c1.591 2.118 2.765 4.242 3.52 6.373.647 1.834.97 3.756.97 5.765 0 2.28-.437 4.484-1.314 6.615-.863 2.117-1.922 3.965-3.176 5.543z" fill="#1a1a1a" fill-rule="nonzero"/><path d="m1013.457 651.76c-.944-.35-1.645-.842-2.104-1.476-.445-.647-.667-1.416-.667-2.306 0-1.349.485-2.482 1.456-3.399s2.26-1.375 3.864-1.375c1.619 0 2.92.472 3.904 1.416.985.93 1.477 2.07 1.477 3.419 0 .863-.23 1.611-.688 2.245-.445.634-1.126 1.126-2.043 1.477 1.147.377 2.016.977 2.61 1.8.593.823.89 1.807.89 2.954 0 1.591-.566 2.926-1.7 4.005-1.119 1.079-2.589 1.618-4.41 1.618-1.834 0-3.31-.539-4.43-1.618-1.119-1.092-1.679-2.448-1.679-4.066 0-1.2.304-2.205.91-3.014.621-.823 1.49-1.383 2.61-1.68zm-.445-3.863c0 .877.283 1.598.85 2.164.566.553 1.295.83 2.185.83.876 0 1.598-.277 2.164-.83a2.72 2.72 0 0 0 .85-2.022c0-.837-.29-1.538-.87-2.104-.58-.58-1.301-.87-2.165-.87-.863 0-1.584.283-2.164.85-.567.552-.85 1.213-.85 1.982zm-.728 8.577c0 .648.148 1.275.445 1.882.31.606.769 1.078 1.376 1.416a4.106 4.106 0 0 0 1.962.485c1.092 0 1.99-.35 2.69-1.052.715-.701 1.073-1.591 1.073-2.67 0-1.093-.365-1.996-1.093-2.71-.728-.716-1.645-1.073-2.751-1.073-1.065 0-1.949.357-2.65 1.072-.701.701-1.052 1.585-1.052 2.65zm11.915-3.803c0-2.185.223-3.945.668-5.28.458-1.348 1.133-2.38 2.023-3.095.89-.728 2.01-1.092 3.358-1.092.998 0 1.868.202 2.61.607a4.834 4.834 0 0 1 1.86 1.72c.486.754.87 1.678 1.154 2.77.283 1.08.424 2.536.424 4.37 0 2.171-.229 3.925-.687 5.26-.446 1.335-1.113 2.373-2.003 3.115-.877.728-1.996 1.092-3.358 1.092-1.794 0-3.197-.64-4.208-1.921-1.227-1.551-1.84-4.066-1.84-7.546zm2.347 0c0 3.048.35 5.078 1.052 6.09.714.997 1.598 1.496 2.65 1.496 1.038 0 1.915-.506 2.63-1.517.714-1.012 1.072-3.035 1.072-6.069 0-3.048-.358-5.07-1.072-6.069-.715-1.011-1.599-1.517-2.65-1.517-1.052 0-1.889.445-2.509 1.335-.782 1.12-1.173 3.203-1.173 6.251zm13.17 9.144v-2.59h2.588v2.59h-2.589zm6.493-9.144c0-2.185.222-3.945.667-5.28.459-1.348 1.133-2.38 2.023-3.095.89-.728 2.01-1.092 3.358-1.092.998 0 1.868.202 2.61.607a4.834 4.834 0 0 1 1.861 1.72c.486.754.87 1.678 1.153 2.77.283 1.08.425 2.536.425 4.37 0 2.171-.23 3.925-.688 5.26-.445 1.335-1.112 2.373-2.003 3.115-.876.728-1.996 1.092-3.358 1.092-1.793 0-3.196-.64-4.207-1.921-1.228-1.551-1.841-4.066-1.841-7.546zm2.346 0c0 3.048.351 5.078 1.052 6.09.715.997 1.598 1.496 2.65 1.496 1.039 0 1.915-.506 2.63-1.517.715-1.012 1.072-3.035 1.072-6.069 0-3.048-.357-5.07-1.072-6.069-.715-1.011-1.598-1.517-2.65-1.517s-1.888.445-2.508 1.335c-.783 1.12-1.174 3.203-1.174 6.251zm12.32-4.936c0-1.322.33-2.448.991-3.378.675-.93 1.646-1.396 2.913-1.396 1.16 0 2.118.418 2.873 1.254.769.823 1.153 2.043 1.153 3.662 0 1.564-.384 2.771-1.153 3.62-.769.837-1.72 1.255-2.852 1.255-1.12 0-2.057-.411-2.812-1.234-.742-.836-1.113-2.097-1.113-3.783zm3.965-3.196c-.566 0-1.038.243-1.416.728-.364.486-.546 1.382-.546 2.69 0 1.187.189 2.024.566 2.509.378.486.843.728 1.396.728.58 0 1.052-.242 1.416-.728.378-.499.567-1.396.567-2.69 0-1.2-.19-2.037-.567-2.509-.377-.485-.85-.728-1.416-.728zm.02 17.964 10.135-19.542h1.841l-10.094 19.542zm8.011-5.038c0-1.335.33-2.46.991-3.378.675-.93 1.646-1.396 2.914-1.396 1.16 0 2.117.418 2.872 1.255.769.822 1.153 2.043 1.153 3.661 0 1.564-.384 2.771-1.153 3.621s-1.72 1.275-2.852 1.275c-1.12 0-2.057-.418-2.812-1.255-.742-.85-1.113-2.11-1.113-3.783zm3.965-3.196c-.566 0-1.038.243-1.416.728-.378.486-.566 1.383-.566 2.691 0 1.187.188 2.023.566 2.508.378.486.85.729 1.416.729.58 0 1.052-.243 1.416-.729.378-.485.567-1.382.567-2.69 0-1.187-.19-2.023-.567-2.509-.377-.485-.85-.728-1.416-.728z" fill="#9e9e9e" fill-rule="nonzero"/><path d="m1082.683 635.274h-391.85" stroke="#757575"/><path d="m693.422 635.274a2.59 2.59 0 1 0 -5.179 0 2.59 2.59 0 0 0 5.179 0" fill="#9e9e9e" fill-rule="nonzero"/><path d="m76.562 223.909v-18.53h3.702l4.37 13.109c.404 1.227.7 2.144.89 2.75.215-.674.546-1.665.99-2.973l4.431-12.886h3.297v18.53h-2.346v-15.516l-5.402 15.516h-2.204l-5.36-15.779v15.779h-2.367zm30.567-1.659c-.85.715-1.666 1.22-2.448 1.517a7.013 7.013 0 0 1 -2.509.445c-1.47 0-2.603-.357-3.398-1.072-.796-.728-1.194-1.652-1.194-2.771 0-.661.149-1.261.445-1.8.31-.54.708-.972 1.194-1.295a5.549 5.549 0 0 1 1.638-.769c.445-.108 1.12-.222 2.023-.344 1.834-.216 3.183-.472 4.046-.769.014-.31.02-.512.02-.606 0-.918-.215-1.572-.647-1.963-.58-.512-1.443-.768-2.59-.768-1.078 0-1.874.188-2.386.566-.5.378-.87 1.045-1.113 2.003l-2.225-.304c.202-.957.533-1.726.991-2.306.459-.593 1.126-1.045 2.003-1.355.876-.324 1.895-.486 3.054-.486 1.147 0 2.077.135 2.792.405s1.24.613 1.578 1.032c.337.404.573.917.708 1.537.08.391.121 1.092.121 2.104v3.034c0 2.118.048 3.46.142 4.026.094.553.29 1.086.587 1.598h-2.387c-.23-.472-.378-1.025-.445-1.659zm-.203-5.077c-.822.337-2.063.62-3.722.85-.93.134-1.591.29-1.982.465a1.978 1.978 0 0 0 -.89.728 1.925 1.925 0 0 0 -.324 1.092c0 .607.229 1.113.688 1.517.458.405 1.132.607 2.023.607.876 0 1.652-.189 2.326-.566.688-.391 1.193-.917 1.517-1.578.243-.526.364-1.288.364-2.286v-.83zm5.685-9.185v-2.61h2.286v2.61zm0 15.921v-13.432h2.286v13.432zm5.158 0v-13.432h2.064v1.921c.984-1.483 2.407-2.225 4.268-2.225.81 0 1.551.149 2.225.445.688.283 1.2.661 1.538 1.133.337.472.573 1.032.708 1.68.08.43.121 1.172.121 2.224v8.254h-2.286v-8.173c0-.93-.087-1.625-.263-2.083-.175-.459-.492-.823-.95-1.093-.446-.27-.972-.404-1.578-.404-.971 0-1.808.31-2.509.93-.701.607-1.052 1.767-1.052 3.48v7.343zm26.986-2.043.324 2.023a8.337 8.337 0 0 1 -1.72.202c-.822 0-1.463-.128-1.921-.384-.445-.27-.762-.614-.951-1.032-.189-.432-.283-1.328-.283-2.69v-7.728h-1.66v-1.78h1.66v-3.318l2.265-1.376v4.694h2.286v1.78h-2.286v7.849c0 .647.04 1.065.122 1.254a1.1 1.1 0 0 0 .384.445c.189.108.452.162.79.162a6.6 6.6 0 0 0 .99-.101zm2.792 2.043v-18.53h2.286v6.635c1.065-1.227 2.407-1.84 4.026-1.84.984 0 1.84.195 2.569.586.741.391 1.267.937 1.578 1.638.323.688.485 1.686.485 2.994v8.517h-2.266v-8.517c0-1.132-.25-1.955-.748-2.468-.499-.526-1.194-.789-2.084-.789-.674 0-1.315.176-1.921.526a2.99 2.99 0 0 0 -1.275 1.437c-.243.593-.364 1.416-.364 2.468v7.343zm14.221 0v-13.432h2.043v2.043c.526-.958 1.012-1.585 1.457-1.881.445-.31.93-.466 1.457-.466.768 0 1.55.243 2.346.728l-.789 2.125c-.553-.338-1.106-.506-1.659-.506-.499 0-.95.155-1.355.465-.391.297-.674.708-.85 1.234a9.189 9.189 0 0 0 -.364 2.65v7.04zm18.288-4.33 2.346.304c-.364 1.362-1.052 2.428-2.063 3.197-.998.755-2.28 1.132-3.844 1.132-1.955 0-3.513-.6-4.673-1.8-1.146-1.214-1.72-2.913-1.72-5.098 0-2.265.58-4.019 1.74-5.26 1.16-1.254 2.67-1.88 4.532-1.88 1.794 0 3.257.613 4.39 1.84 1.146 1.214 1.72 2.933 1.72 5.159 0 .134-.007.337-.02.607h-10.015c.081 1.47.5 2.596 1.255 3.378s1.692 1.173 2.812 1.173c.836 0 1.544-.216 2.124-.647.593-.445 1.065-1.147 1.416-2.104zm-7.485-3.68h7.505c-.094-1.12-.378-1.963-.85-2.53-.728-.876-1.672-1.314-2.832-1.314-1.038 0-1.915.35-2.63 1.051-.714.688-1.112 1.619-1.193 2.792zm21.301 6.351c-.85.715-1.665 1.22-2.447 1.517a7.013 7.013 0 0 1 -2.509.445c-1.47 0-2.603-.357-3.398-1.072-.796-.728-1.194-1.652-1.194-2.771 0-.661.149-1.261.445-1.8.31-.54.708-.972 1.194-1.295a5.549 5.549 0 0 1 1.638-.769c.445-.108 1.12-.222 2.023-.344 1.834-.216 3.183-.472 4.046-.769.014-.31.02-.512.02-.606 0-.918-.215-1.572-.647-1.963-.58-.512-1.443-.768-2.59-.768-1.078 0-1.874.188-2.386.566-.5.378-.87 1.045-1.113 2.003l-2.225-.304c.202-.957.532-1.726.991-2.306.459-.593 1.126-1.045 2.003-1.355.876-.324 1.895-.486 3.054-.486 1.147 0 2.077.135 2.792.405s1.24.613 1.578 1.032c.337.404.573.917.708 1.537.08.391.121 1.092.121 2.104v3.034c0 2.118.048 3.46.142 4.026.094.553.29 1.086.587 1.598h-2.387c-.23-.472-.378-1.025-.446-1.659zm-.202-5.077c-.822.337-2.063.62-3.722.85-.93.134-1.591.29-1.983.465a1.978 1.978 0 0 0 -.89.728 1.925 1.925 0 0 0 -.323 1.092c0 .607.229 1.113.688 1.517.458.405 1.132.607 2.022.607.877 0 1.653-.189 2.327-.566.688-.391 1.193-.917 1.517-1.578.243-.526.364-1.288.364-2.286v-.83zm14.383 6.736v-1.7c-.85 1.336-2.104 2.003-3.762 2.003a5.274 5.274 0 0 1 -2.954-.89c-.89-.593-1.584-1.416-2.083-2.468-.486-1.052-.729-2.265-.729-3.64 0-1.35.223-2.57.668-3.662.445-1.093 1.112-1.929 2.003-2.509a5.43 5.43 0 0 1 2.994-.87c.809 0 1.53.176 2.164.526a4.635 4.635 0 0 1 1.558 1.315v-6.635h2.245v18.53zm-7.201-6.696c0 1.713.364 2.994 1.092 3.844s1.585 1.274 2.57 1.274c.997 0 1.84-.404 2.528-1.214.701-.809 1.052-2.05 1.052-3.722 0-1.834-.358-3.183-1.072-4.046-.702-.863-1.572-1.294-2.61-1.294-1.011 0-1.861.418-2.549 1.254-.674.822-1.011 2.124-1.011 3.904zm24.235 6.696-5.118-13.432h2.407l2.893 8.051c.31.863.593 1.76.85 2.69.202-.7.485-1.55.849-2.548l2.974-8.193h2.346l-5.077 13.432zm8.294-4.005 2.265-.365c.122.904.472 1.599 1.052 2.084.58.472 1.39.708 2.428.708s1.807-.209 2.306-.627c.512-.432.769-.93.769-1.497 0-.512-.223-.917-.668-1.214-.31-.202-1.086-.458-2.326-.768-1.673-.432-2.832-.796-3.48-1.093-.634-.31-1.12-.735-1.456-1.274a3.43 3.43 0 0 1 -.506-1.82c0-.594.135-1.147.405-1.66a3.81 3.81 0 0 1 1.132-1.274c.351-.256.83-.472 1.437-.648a6.774 6.774 0 0 1 1.982-.283c1.052 0 1.976.155 2.772.466.795.296 1.382.708 1.76 1.234.377.512.64 1.2.789 2.063l-2.226.303c-.108-.687-.404-1.22-.89-1.598-.485-.39-1.166-.586-2.043-.586-1.052 0-1.8.175-2.245.526-.445.337-.668.735-.668 1.193 0 .297.094.566.283.81.176.242.466.444.87.606.23.081.897.27 2.003.567 1.618.431 2.744.789 3.378 1.072.634.27 1.133.667 1.497 1.193.364.513.546 1.16.546 1.942 0 .756-.222 1.47-.667 2.145-.445.674-1.086 1.193-1.922 1.557s-1.78.546-2.832.546c-1.74 0-3.068-.364-3.985-1.092s-1.504-1.8-1.76-3.216zm14.504 4.005v-2.59h2.59v2.59zm17.377 0-4.106-13.432h2.346l2.145 7.748.789 2.892c.04-.148.27-1.072.687-2.771l2.145-7.87h2.346l2.003 7.789.668 2.57.768-2.59 2.306-7.768h2.206l-4.188 13.432h-2.367l-2.144-8.051-.506-2.286-2.73 10.337zm14.808-6.716c0-2.482.688-4.323 2.064-5.523 1.16-.998 2.569-1.497 4.228-1.497 1.847 0 3.351.607 4.51 1.82 1.174 1.215 1.76 2.887 1.76 5.018 0 1.726-.255 3.088-.768 4.086a5.491 5.491 0 0 1 -2.266 2.306c-.984.54-2.063.81-3.236.81-1.888 0-3.412-.6-4.572-1.8-1.147-1.215-1.72-2.954-1.72-5.22zm2.327 0c0 1.726.37 3.014 1.112 3.864.755.85 1.706 1.274 2.853 1.274 1.132 0 2.07-.425 2.812-1.274.755-.863 1.132-2.178 1.132-3.945 0-1.659-.377-2.913-1.132-3.763-.756-.863-1.693-1.294-2.812-1.294-1.147 0-2.098.431-2.853 1.294-.741.85-1.112 2.131-1.112 3.844zm12.724 6.716v-13.432h2.043v2.043c.526-.958 1.012-1.585 1.457-1.881.445-.31.93-.466 1.456-.466.769 0 1.551.243 2.347.728l-.79 2.125c-.552-.338-1.105-.506-1.658-.506-.499 0-.95.155-1.355.465-.391.297-.675.708-.85 1.234a9.189 9.189 0 0 0 -.364 2.65v7.04zm9.103 0v-18.53h2.286v10.56l5.381-5.462h2.933l-5.118 4.976 5.644 8.456h-2.811l-4.43-6.858-1.599 1.538v5.32zm22.131-4.33 2.347.304c-.364 1.362-1.052 2.428-2.064 3.197-.998.755-2.279 1.132-3.843 1.132-1.956 0-3.513-.6-4.673-1.8-1.146-1.214-1.72-2.913-1.72-5.098 0-2.265.58-4.019 1.74-5.26 1.16-1.254 2.67-1.88 4.532-1.88 1.793 0 3.256.613 4.39 1.84 1.146 1.214 1.719 2.933 1.719 5.159 0 .134-.007.337-.02.607h-10.014c.08 1.47.499 2.596 1.254 3.378s1.693 1.173 2.812 1.173c.836 0 1.544-.216 2.124-.647.594-.445 1.066-1.147 1.416-2.104zm-7.485-3.68h7.506c-.095-1.12-.378-1.963-.85-2.53-.728-.876-1.672-1.314-2.832-1.314-1.039 0-1.915.35-2.63 1.051-.715.688-1.113 1.619-1.194 2.792zm12.502 8.01v-13.432h2.043v2.043c.526-.958 1.012-1.585 1.457-1.881.445-.31.93-.466 1.456-.466.77 0 1.551.243 2.347.728l-.789 2.125c-.553-.338-1.106-.506-1.659-.506-.499 0-.95.155-1.355.465-.391.297-.674.708-.85 1.234a9.189 9.189 0 0 0 -.364 2.65v7.04zm21.828-2.043.323 2.023a8.337 8.337 0 0 1 -1.72.202c-.822 0-1.462-.128-1.92-.384-.446-.27-.763-.614-.952-1.032-.188-.432-.283-1.328-.283-2.69v-7.728h-1.659v-1.78h1.66v-3.318l2.265-1.376v4.694h2.286v1.78h-2.286v7.849c0 .647.04 1.065.121 1.254a1.1 1.1 0 0 0 .385.445c.188.108.451.162.789.162a6.6 6.6 0 0 0 .99-.101zm2.791 2.043v-18.53h2.286v6.635c1.066-1.227 2.408-1.84 4.026-1.84.985 0 1.84.195 2.57.586.74.391 1.267.937 1.577 1.638.324.688.486 1.686.486 2.994v8.517h-2.266v-8.517c0-1.132-.25-1.955-.749-2.468-.499-.526-1.193-.789-2.083-.789-.675 0-1.315.176-1.922.526a2.99 2.99 0 0 0 -1.274 1.437c-.243.593-.365 1.416-.365 2.468v7.343zm14.222 0v-13.432h2.043v2.043c.526-.958 1.011-1.585 1.456-1.881.446-.31.931-.466 1.457-.466.769 0 1.55.243 2.347.728l-.79 2.125c-.552-.338-1.105-.506-1.658-.506-.5 0-.95.155-1.356.465-.39.297-.674.708-.85 1.234a9.189 9.189 0 0 0 -.363 2.65v7.04zm18.287-4.33 2.347.304c-.364 1.362-1.052 2.428-2.064 3.197-.998.755-2.279 1.132-3.843 1.132-1.956 0-3.513-.6-4.673-1.8-1.147-1.214-1.72-2.913-1.72-5.098 0-2.265.58-4.019 1.74-5.26 1.16-1.254 2.67-1.88 4.531-1.88 1.794 0 3.257.613 4.39 1.84 1.147 1.214 1.72 2.933 1.72 5.159 0 .134-.007.337-.02.607h-10.014c.08 1.47.499 2.596 1.254 3.378s1.693 1.173 2.812 1.173c.836 0 1.544-.216 2.124-.647.594-.445 1.066-1.147 1.416-2.104zm-7.485-3.68h7.505c-.094-1.12-.377-1.963-.85-2.53-.727-.876-1.672-1.314-2.831-1.314-1.039 0-1.915.35-2.63 1.051-.715.688-1.113 1.619-1.194 2.792zm21.302 6.351c-.85.715-1.666 1.22-2.448 1.517a7.013 7.013 0 0 1 -2.508.445c-1.47 0-2.603-.357-3.399-1.072-.796-.728-1.193-1.652-1.193-2.771 0-.661.148-1.261.445-1.8.31-.54.708-.972 1.193-1.295a5.549 5.549 0 0 1 1.639-.769c.445-.108 1.12-.222 2.023-.344 1.834-.216 3.183-.472 4.046-.769.013-.31.02-.512.02-.606 0-.918-.216-1.572-.647-1.963-.58-.512-1.443-.768-2.59-.768-1.079 0-1.874.188-2.387.566-.499.378-.87 1.045-1.113 2.003l-2.225-.304c.203-.957.533-1.726.991-2.306.459-.593 1.127-1.045 2.003-1.355.877-.324 1.895-.486 3.055-.486 1.146 0 2.077.135 2.792.405.714.27 1.24.613 1.577 1.032.338.404.574.917.708 1.537.081.391.122 1.092.122 2.104v3.034c0 2.118.047 3.46.141 4.026.095.553.29 1.086.587 1.598h-2.387c-.23-.472-.378-1.025-.445-1.659zm-.202-5.077c-.823.337-2.064.62-3.723.85-.93.134-1.59.29-1.982.465a1.978 1.978 0 0 0 -.89.728 1.925 1.925 0 0 0 -.324 1.092c0 .607.23 1.113.688 1.517.459.405 1.133.607 2.023.607.877 0 1.652-.189 2.326-.566.688-.391 1.194-.917 1.518-1.578.242-.526.364-1.288.364-2.286v-.83zm14.383 6.736v-1.7c-.85 1.336-2.104 2.003-3.763 2.003a5.274 5.274 0 0 1 -2.953-.89c-.89-.593-1.585-1.416-2.084-2.468-.486-1.052-.728-2.265-.728-3.64 0-1.35.222-2.57.667-3.662.445-1.093 1.113-1.929 2.003-2.509a5.43 5.43 0 0 1 2.994-.87c.81 0 1.53.176 2.165.526a4.635 4.635 0 0 1 1.557 1.315v-6.635h2.246v18.53zm-7.202-6.696c0 1.713.364 2.994 1.093 3.844.728.85 1.584 1.274 2.569 1.274.998 0 1.84-.404 2.528-1.214.702-.809 1.052-2.05 1.052-3.722 0-1.834-.357-3.183-1.072-4.046-.701-.863-1.571-1.294-2.61-1.294-1.011 0-1.86.418-2.548 1.254-.675.822-1.012 2.124-1.012 3.904zm25.469 4.653.324 2.023a8.337 8.337 0 0 1 -1.72.202c-.822 0-1.463-.128-1.922-.384-.445-.27-.762-.614-.95-1.032-.19-.432-.284-1.328-.284-2.69v-7.728h-1.658v-1.78h1.658v-3.318l2.266-1.376v4.694h2.286v1.78h-2.286v7.849c0 .647.04 1.065.121 1.254a1.1 1.1 0 0 0 .385.445c.189.108.452.162.789.162.243 0 .573-.034.991-.101zm2.812-13.878v-2.61h2.286v2.61zm0 15.921v-13.432h2.286v13.432zm5.158 0v-13.432h2.044v1.881a4.84 4.84 0 0 1 1.679-1.578c.7-.404 1.497-.607 2.387-.607.998 0 1.814.21 2.448.627.633.405 1.085.978 1.355 1.72 1.065-1.565 2.448-2.347 4.147-2.347 1.335 0 2.36.371 3.075 1.113s1.072 1.874 1.072 3.398v9.225h-2.266v-8.456c0-.917-.074-1.571-.222-1.962a1.89 1.89 0 0 0 -.81-.971c-.377-.243-.829-.364-1.355-.364-.944 0-1.733.317-2.367.95-.62.62-.93 1.619-.93 2.994v7.809h-2.266v-8.719c0-1.011-.189-1.767-.566-2.266-.364-.512-.971-.768-1.821-.768a3.36 3.36 0 0 0 -1.78.505c-.54.338-.93.83-1.173 1.477-.243.648-.365 1.585-.365 2.812v6.959zm31.215-4.33 2.346.304c-.364 1.362-1.052 2.428-2.063 3.197-.998.755-2.28 1.132-3.844 1.132-1.955 0-3.513-.6-4.673-1.8-1.146-1.214-1.72-2.913-1.72-5.098 0-2.265.58-4.019 1.74-5.26 1.16-1.254 2.67-1.88 4.532-1.88 1.793 0 3.257.613 4.39 1.84 1.146 1.214 1.719 2.933 1.719 5.159 0 .134-.007.337-.02.607h-10.014c.081 1.47.5 2.596 1.254 3.378.756.782 1.693 1.173 2.812 1.173.836 0 1.545-.216 2.124-.647.594-.445 1.066-1.147 1.417-2.104zm-7.485-3.68h7.505c-.095-1.12-.378-1.963-.85-2.53-.728-.876-1.672-1.314-2.832-1.314-1.038 0-1.915.35-2.63 1.051-.715.688-1.112 1.619-1.193 2.792zm19.38 4.005 2.265-.365c.121.904.472 1.599 1.052 2.084.58.472 1.39.708 2.428.708s1.807-.209 2.306-.627c.512-.432.768-.93.768-1.497 0-.512-.222-.917-.667-1.214-.31-.202-1.086-.458-2.326-.768-1.673-.432-2.833-.796-3.48-1.093-.634-.31-1.12-.735-1.456-1.274a3.43 3.43 0 0 1 -.506-1.82c0-.594.135-1.147.404-1.66.284-.512.661-.937 1.133-1.274.35-.256.83-.472 1.437-.648a6.774 6.774 0 0 1 1.982-.283c1.052 0 1.976.155 2.771.466.796.296 1.383.708 1.76 1.234.378.512.641 1.2.79 2.063l-2.226.303c-.108-.687-.404-1.22-.89-1.598-.486-.39-1.167-.586-2.043-.586-1.052 0-1.8.175-2.246.526-.445.337-.667.735-.667 1.193 0 .297.094.566.283.81.175.242.465.444.87.606.23.081.897.27 2.003.567 1.618.431 2.744.789 3.378 1.072.634.27 1.133.667 1.497 1.193.364.513.546 1.16.546 1.942 0 .756-.222 1.47-.667 2.145-.446.674-1.086 1.193-1.922 1.557s-1.78.546-2.832.546c-1.74 0-3.069-.364-3.986-1.092s-1.503-1.8-1.76-3.216zm13.857 9.143v-18.57h2.083v1.74c.486-.675 1.032-1.18 1.639-1.518.62-.35 1.369-.526 2.245-.526 1.147 0 2.158.297 3.035.89.876.594 1.537 1.43 1.982 2.509.459 1.065.688 2.239.688 3.52 0 1.375-.25 2.616-.748 3.722-.486 1.092-1.2 1.935-2.145 2.529-.944.58-1.935.87-2.974.87-.755 0-1.436-.162-2.043-.486a4.85 4.85 0 0 1 -1.476-1.214v6.534zm2.063-11.773c0 1.726.35 3 1.052 3.823.701.823 1.55 1.234 2.549 1.234 1.011 0 1.874-.425 2.59-1.274.727-.85 1.092-2.178 1.092-3.986 0-1.699-.358-2.973-1.073-3.823-.7-.863-1.537-1.295-2.508-1.295s-1.834.459-2.59 1.376c-.741.904-1.112 2.219-1.112 3.945zm21.383 2.306 2.346.303c-.364 1.362-1.052 2.428-2.063 3.197-.998.755-2.28 1.132-3.844 1.132-1.955 0-3.513-.6-4.673-1.8-1.146-1.214-1.72-2.913-1.72-5.098 0-2.265.58-4.019 1.74-5.26 1.16-1.254 2.67-1.88 4.532-1.88 1.793 0 3.257.613 4.39 1.84 1.146 1.214 1.72 2.933 1.72 5.159 0 .134-.008.337-.021.607h-10.015c.081 1.47.5 2.596 1.255 3.378s1.692 1.173 2.811 1.173c.837 0 1.545-.216 2.125-.647.593-.445 1.065-1.147 1.416-2.104zm-7.485-3.682h7.505c-.095-1.12-.378-1.962-.85-2.529-.728-.876-1.672-1.314-2.832-1.314-1.038 0-1.915.35-2.63 1.051-.715.688-1.112 1.619-1.193 2.792zm12.522 8.011v-13.432h2.063v1.921c.985-1.483 2.407-2.225 4.269-2.225.809 0 1.55.149 2.225.445.688.283 1.2.661 1.537 1.133s.573 1.032.708 1.68c.081.43.122 1.172.122 2.224v8.254h-2.286v-8.173c0-.93-.088-1.625-.263-2.083-.176-.459-.493-.823-.951-1.093-.445-.27-.971-.404-1.578-.404-.971 0-1.807.31-2.508.93-.702.607-1.052 1.767-1.052 3.48v7.343zm19.218-2.043.323 2.023a8.337 8.337 0 0 1 -1.72.202c-.822 0-1.462-.128-1.92-.384-.446-.27-.763-.614-.952-1.032-.189-.432-.283-1.328-.283-2.69v-7.728h-1.659v-1.78h1.66v-3.318l2.265-1.376v4.694h2.286v1.78h-2.286v7.849c0 .647.04 1.065.121 1.254a1.1 1.1 0 0 0 .385.445c.188.108.451.162.788.162.243 0 .574-.034.992-.101zm10.56 7.181v-18.57h2.083v1.74c.486-.675 1.032-1.18 1.639-1.518.62-.35 1.369-.526 2.245-.526 1.147 0 2.158.297 3.035.89.876.594 1.537 1.43 1.982 2.509.459 1.065.688 2.239.688 3.52 0 1.375-.25 2.616-.749 3.722-.485 1.092-1.2 1.935-2.144 2.529-.944.58-1.935.87-2.974.87-.755 0-1.436-.162-2.043-.486a4.85 4.85 0 0 1 -1.477-1.214v6.534h-2.286zm2.063-11.773c0 1.726.35 3 1.052 3.823.701.823 1.55 1.234 2.549 1.234 1.011 0 1.874-.425 2.59-1.274.727-.85 1.091-2.178 1.091-3.986 0-1.699-.357-2.973-1.072-3.823-.701-.863-1.537-1.295-2.508-1.295s-1.834.459-2.59 1.376c-.741.904-1.112 2.219-1.112 3.945zm20.958 4.976c-.85.715-1.666 1.22-2.448 1.517a7.013 7.013 0 0 1 -2.509.445c-1.47 0-2.602-.357-3.398-1.072-.796-.728-1.194-1.652-1.194-2.771 0-.661.149-1.261.445-1.8.31-.54.708-.972 1.194-1.295a5.549 5.549 0 0 1 1.638-.769c.446-.108 1.12-.222 2.023-.344 1.835-.216 3.183-.472 4.046-.769.014-.31.02-.512.02-.606 0-.918-.215-1.572-.647-1.963-.58-.512-1.443-.768-2.59-.768-1.078 0-1.874.188-2.386.566-.5.378-.87 1.045-1.113 2.003l-2.225-.304c.202-.957.533-1.726.991-2.306.459-.593 1.126-1.045 2.003-1.355.876-.324 1.895-.486 3.055-.486 1.146 0 2.076.135 2.791.405s1.24.613 1.578 1.032c.337.404.573.917.708 1.537.081.391.121 1.092.121 2.104v3.034c0 2.118.048 3.46.142 4.026.094.553.29 1.086.587 1.598h-2.387c-.23-.472-.378-1.025-.445-1.659zm-.203-5.077c-.822.337-2.063.62-3.722.85-.93.134-1.591.29-1.982.465a1.978 1.978 0 0 0 -.89.728 1.925 1.925 0 0 0 -.324 1.092c0 .607.23 1.113.688 1.517.458.405 1.132.607 2.023.607.876 0 1.652-.189 2.326-.566.688-.391 1.194-.917 1.517-1.578.243-.526.364-1.288.364-2.286v-.83zm5.644 6.736v-13.432h2.044v2.043c.525-.958 1.011-1.585 1.456-1.881.445-.31.93-.466 1.457-.466.768 0 1.55.243 2.346.728l-.789 2.125c-.553-.338-1.106-.506-1.659-.506-.499 0-.95.155-1.355.465-.391.297-.674.708-.85 1.234a9.189 9.189 0 0 0 -.364 2.65v7.04zm8.173-4.005 2.266-.365c.121.904.472 1.599 1.052 2.084.58.472 1.389.708 2.427.708 1.039 0 1.807-.209 2.306-.627.513-.432.77-.93.77-1.497 0-.512-.223-.917-.668-1.214-.31-.202-1.086-.458-2.327-.768-1.672-.432-2.832-.796-3.48-1.093-.633-.31-1.119-.735-1.456-1.274a3.43 3.43 0 0 1 -.506-1.82c0-.594.135-1.147.405-1.66.283-.512.66-.937 1.133-1.274.35-.256.83-.472 1.436-.648a6.774 6.774 0 0 1 1.983-.283c1.052 0 1.975.155 2.771.466.796.296 1.382.708 1.76 1.234.378.512.64 1.2.789 2.063l-2.225.303c-.108-.687-.405-1.22-.89-1.598-.486-.39-1.167-.586-2.044-.586-1.051 0-1.8.175-2.245.526-.445.337-.668.735-.668 1.193 0 .297.095.566.284.81.175.242.465.444.87.606.229.081.896.27 2.002.567 1.619.431 2.745.789 3.379 1.072.633.27 1.132.667 1.497 1.193.364.513.546 1.16.546 1.942 0 .756-.223 1.47-.668 2.145-.445.674-1.085 1.193-1.922 1.557-.836.364-1.78.546-2.832.546-1.74 0-3.068-.364-3.985-1.092s-1.504-1.8-1.76-3.216zm13.877-11.916v-2.61h2.286v2.61zm0 15.921v-13.432h2.286v13.432zm5.159 0v-13.432h2.063v1.921c.985-1.483 2.408-2.225 4.269-2.225.809 0 1.55.149 2.225.445.688.283 1.2.661 1.537 1.133.338.472.574 1.032.709 1.68.08.43.12 1.172.12 2.224v8.254h-2.285v-8.173c0-.93-.088-1.625-.263-2.083-.175-.459-.492-.823-.95-1.093-.446-.27-.972-.404-1.579-.404-.97 0-1.807.31-2.508.93-.701.607-1.052 1.767-1.052 3.48v7.343zm13.837 1.113 2.205.323c.094.688.35 1.187.769 1.497.566.418 1.342.627 2.326.627 1.052 0 1.861-.209 2.428-.627.58-.418.97-1.004 1.173-1.76.121-.472.175-1.45.162-2.933-.998 1.173-2.239 1.76-3.723 1.76-1.847 0-3.277-.668-4.288-2.003-1.012-1.335-1.517-2.933-1.517-4.794 0-1.281.229-2.461.687-3.54.472-1.08 1.147-1.915 2.023-2.509.89-.593 1.929-.89 3.116-.89 1.578 0 2.886.64 3.924 1.922v-1.618h2.084v11.611c0 2.09-.216 3.568-.647 4.43-.419.877-1.093 1.565-2.023 2.064-.917.513-2.05.769-3.399.769-1.591 0-2.886-.358-3.884-1.072-.985-.715-1.457-1.8-1.416-3.257zm1.881-8.072c0 1.767.35 3.055 1.052 3.864.701.81 1.578 1.214 2.63 1.214 1.038 0 1.908-.405 2.61-1.214.714-.81 1.072-2.07 1.072-3.783 0-1.645-.364-2.886-1.093-3.722-.728-.836-1.604-1.254-2.63-1.254-1.01 0-1.874.41-2.589 1.234-.701.822-1.052 2.043-1.052 3.661zm25.328 3.965v-5.078h-5.058v-2.124h5.058v-5.057h2.144v5.057h5.037v2.124h-5.037v5.078zm27.29-1.922 2.224.283c-.242 1.551-.87 2.765-1.881 3.642-.998.863-2.232 1.294-3.702 1.294-1.834 0-3.31-.6-4.43-1.8s-1.68-2.92-1.68-5.158c0-1.457.237-2.725.709-3.804.485-1.092 1.22-1.908 2.205-2.447a6.458 6.458 0 0 1 3.216-.83c1.457 0 2.644.371 3.56 1.113.931.742 1.531 1.787 1.801 3.135l-2.225.344c-.202-.903-.573-1.578-1.113-2.023-.54-.458-1.187-.687-1.942-.687-1.146 0-2.077.41-2.791 1.234-.715.822-1.073 2.117-1.073 3.884 0 1.807.344 3.122 1.032 3.944.688.81 1.591 1.214 2.71 1.214.89 0 1.633-.27 2.226-.809.607-.553.991-1.396 1.153-2.529zm3.337-1.8c0-2.482.688-4.323 2.063-5.523 1.16-.998 2.57-1.497 4.228-1.497 1.848 0 3.352.607 4.512 1.82 1.173 1.215 1.76 2.887 1.76 5.018 0 1.726-.257 3.088-.77 4.086a5.491 5.491 0 0 1 -2.265 2.306c-.984.54-2.063.81-3.237.81-1.888 0-3.412-.6-4.572-1.8-1.146-1.215-1.719-2.954-1.719-5.22zm2.326 0c0 1.726.371 3.014 1.113 3.864.755.85 1.706 1.274 2.852 1.274 1.133 0 2.07-.425 2.812-1.274.755-.863 1.133-2.178 1.133-3.945 0-1.659-.378-2.913-1.133-3.763-.755-.863-1.692-1.294-2.812-1.294-1.146 0-2.097.431-2.852 1.294-.742.85-1.113 2.131-1.113 3.844zm12.745 6.716v-13.432h2.043v1.881a4.84 4.84 0 0 1 1.68-1.578c.7-.404 1.496-.607 2.386-.607.998 0 1.814.21 2.448.627.634.405 1.086.978 1.355 1.72 1.066-1.565 2.448-2.347 4.147-2.347 1.336 0 2.36.371 3.075 1.113s1.072 1.874 1.072 3.398v9.225h-2.265v-8.456c0-.917-.074-1.571-.223-1.962a1.89 1.89 0 0 0 -.809-.971c-.378-.243-.83-.364-1.355-.364-.944 0-1.733.317-2.367.95-.62.62-.93 1.619-.93 2.994v7.809h-2.266v-8.719c0-1.011-.19-1.767-.567-2.266-.364-.512-.97-.768-1.82-.768a3.36 3.36 0 0 0 -1.78.505c-.54.338-.931.83-1.174 1.477-.243.648-.364 1.585-.364 2.812v6.959zm22.01 5.138v-18.57h2.083v1.74c.486-.675 1.032-1.18 1.639-1.518.62-.35 1.369-.526 2.245-.526 1.147 0 2.158.297 3.035.89.876.594 1.537 1.43 1.982 2.509.459 1.065.688 2.239.688 3.52 0 1.375-.25 2.616-.749 3.722-.485 1.092-1.2 1.935-2.144 2.529-.944.58-1.935.87-2.974.87-.755 0-1.436-.162-2.043-.486a4.85 4.85 0 0 1 -1.476-1.214v6.534zm2.063-11.773c0 1.726.35 3 1.052 3.823.701.823 1.55 1.234 2.549 1.234 1.011 0 1.874-.425 2.59-1.274.727-.85 1.092-2.178 1.092-3.986 0-1.699-.358-2.973-1.073-3.823-.7-.863-1.537-1.295-2.508-1.295s-1.834.459-2.59 1.376c-.741.904-1.112 2.219-1.112 3.945zm12.198-9.286v-2.61h2.286v2.61zm0 15.921v-13.432h2.286v13.432zm5.118 0v-18.53h2.266v18.53zm5.24-15.92v-2.61h2.286v2.61zm0 15.92v-13.432h2.286v13.432zm5.158 0v-13.432h2.064v1.921c.984-1.483 2.407-2.225 4.268-2.225.81 0 1.551.149 2.225.445.688.283 1.2.661 1.538 1.133.337.472.573 1.032.708 1.68.08.43.121 1.172.121 2.224v8.254h-2.286v-8.173c0-.93-.087-1.625-.263-2.083-.175-.459-.492-.823-.95-1.093-.445-.27-.971-.404-1.578-.404-.971 0-1.807.31-2.509.93-.701.607-1.052 1.767-1.052 3.48v7.343zm13.837 1.113 2.205.323c.095.688.351 1.187.77 1.497.566.418 1.341.627 2.325.627 1.052 0 1.862-.209 2.428-.627.58-.418.971-1.004 1.173-1.76.122-.472.176-1.45.162-2.933-.998 1.173-2.239 1.76-3.722 1.76-1.848 0-3.277-.668-4.289-2.003-1.011-1.335-1.517-2.933-1.517-4.794 0-1.281.23-2.461.688-3.54.472-1.08 1.146-1.915 2.023-2.509.89-.593 1.928-.89 3.115-.89 1.578 0 2.886.64 3.925 1.922v-1.618h2.083v11.611c0 2.09-.215 3.568-.647 4.43-.418.877-1.092 1.565-2.023 2.064-.917.513-2.05.769-3.399.769-1.59 0-2.886-.358-3.884-1.072-.984-.715-1.456-1.8-1.416-3.257zm1.882-8.072c0 1.767.35 3.055 1.052 3.864.7.81 1.578 1.214 2.63 1.214 1.038 0 1.908-.405 2.609-1.214.715-.81 1.072-2.07 1.072-3.783 0-1.645-.364-2.886-1.092-3.722s-1.605-1.254-2.63-1.254c-1.011 0-1.875.41-2.59 1.234-.7.822-1.051 2.043-1.051 3.661zm20.876 6.959v-18.53h8.214c1.645 0 2.9.168 3.762.506.863.323 1.551.91 2.064 1.76.512.836.768 1.766.768 2.791 0 1.308-.424 2.414-1.274 3.318-.85.903-2.165 1.477-3.945 1.72.648.31 1.14.62 1.477.93.715.647 1.396 1.47 2.043 2.468l3.217 5.037h-3.075l-2.468-3.864c-.715-1.106-1.302-1.955-1.76-2.549-.459-.593-.877-1.004-1.254-1.234a3.564 3.564 0 0 0 -1.113-.505c-.283-.054-.735-.081-1.355-.081h-2.853v8.233zm2.448-10.357h5.28c1.12 0 1.99-.115 2.61-.344.634-.23 1.112-.6 1.436-1.113a2.961 2.961 0 0 0 .506-1.659c0-.876-.317-1.598-.951-2.164-.634-.567-1.639-.85-3.014-.85h-5.867zm24.539 6.028 2.346.303c-.364 1.362-1.052 2.428-2.063 3.197-.998.755-2.28 1.132-3.844 1.132-1.955 0-3.513-.6-4.673-1.8-1.146-1.214-1.72-2.913-1.72-5.098 0-2.265.58-4.019 1.74-5.26 1.16-1.254 2.67-1.88 4.532-1.88 1.794 0 3.257.613 4.39 1.84 1.146 1.214 1.72 2.933 1.72 5.159 0 .134-.008.337-.021.607h-10.014c.081 1.47.5 2.596 1.255 3.378s1.692 1.173 2.811 1.173c.837 0 1.545-.216 2.125-.647.593-.445 1.065-1.147 1.416-2.104zm-7.485-3.682h7.505c-.095-1.12-.378-1.962-.85-2.529-.728-.876-1.672-1.314-2.832-1.314-1.038 0-1.915.35-2.63 1.051-.715.688-1.112 1.619-1.193 2.792zm21.24 8.011v-1.7c-.849 1.336-2.103 2.003-3.762 2.003a5.274 5.274 0 0 1 -2.954-.89c-.89-.593-1.584-1.416-2.083-2.468-.486-1.052-.728-2.265-.728-3.64 0-1.35.222-2.57.667-3.662.445-1.093 1.113-1.929 2.003-2.509a5.43 5.43 0 0 1 2.994-.87c.809 0 1.53.176 2.164.526a4.635 4.635 0 0 1 1.558 1.315v-6.635h2.246v18.53h-2.104zm-7.201-6.696c0 1.713.364 2.994 1.092 3.844.729.85 1.585 1.274 2.57 1.274.997 0 1.84-.404 2.528-1.214.701-.809 1.052-2.05 1.052-3.722 0-1.834-.357-3.183-1.072-4.046-.701-.863-1.571-1.294-2.61-1.294-1.011 0-1.86.418-2.549 1.254-.674.822-1.011 2.124-1.011 3.904zm21.443 6.696v-1.7c-.85 1.336-2.104 2.003-3.762 2.003a5.274 5.274 0 0 1 -2.954-.89c-.89-.593-1.585-1.416-2.084-2.468-.485-1.052-.728-2.265-.728-3.64 0-1.35.223-2.57.668-3.662.445-1.093 1.112-1.929 2.002-2.509a5.43 5.43 0 0 1 2.994-.87c.81 0 1.531.176 2.165.526a4.635 4.635 0 0 1 1.558 1.315v-6.635h2.245v18.53zm-7.201-6.696c0 1.713.364 2.994 1.092 3.844s1.585 1.274 2.569 1.274c.998 0 1.84-.404 2.529-1.214.701-.809 1.052-2.05 1.052-3.722 0-1.834-.358-3.183-1.073-4.046-.7-.863-1.57-1.294-2.61-1.294-1.01 0-1.86.418-2.548 1.254-.674.822-1.011 2.124-1.011 3.904zm12.744-9.225v-2.61h2.286v2.61zm0 15.921v-13.432h2.286v13.432zm10.135-2.043.324 2.023a8.337 8.337 0 0 1 -1.72.202c-.822 0-1.463-.128-1.922-.384-.445-.27-.762-.614-.95-1.032-.19-.432-.284-1.328-.284-2.69v-7.728h-1.658v-1.78h1.658v-3.318l2.266-1.376v4.694h2.286v1.78h-2.286v7.849c0 .647.04 1.065.121 1.254a1.1 1.1 0 0 0 .385.445c.189.108.452.162.789.162.243 0 .573-.034.991-.101zm9.609-3.217 2.205-.303c.067 1.416.337 2.387.81 2.913.471.512 1.125.769 1.961.769.607 0 1.133-.135 1.578-.405.445-.283.749-.667.91-1.153.176-.485.264-1.26.264-2.326v-12.765h2.468v12.623c0 1.551-.19 2.751-.567 3.6a4.102 4.102 0 0 1 -1.8 1.963c-.81.445-1.76.668-2.853.668-1.618 0-2.865-.466-3.742-1.396-.863-.944-1.274-2.34-1.234-4.188zm13.372-.687 2.306-.203c.108.917.357 1.673.748 2.266.405.593 1.025 1.079 1.861 1.456.85.365 1.808.547 2.873.547.93 0 1.753-.135 2.468-.405.715-.283 1.248-.667 1.598-1.153a2.67 2.67 0 0 0 .526-1.598c0-.58-.168-1.086-.506-1.517-.337-.432-.89-.796-1.658-1.093-.5-.202-1.605-.505-3.318-.91-1.7-.405-2.886-.789-3.56-1.153-.89-.459-1.551-1.032-1.983-1.72a4.25 4.25 0 0 1 -.647-2.306c0-.944.263-1.82.789-2.63.526-.809 1.301-1.422 2.326-1.84 1.025-.432 2.158-.648 3.399-.648 1.375 0 2.589.223 3.64.668 1.053.445 1.855 1.099 2.408 1.962.567.85.87 1.82.91 2.913l-2.346.182c-.121-1.173-.546-2.057-1.275-2.65-.728-.607-1.807-.91-3.236-.91-1.484 0-2.57.276-3.257.83-.674.539-1.012 1.186-1.012 1.941 0 .674.243 1.227.729 1.659.472.432 1.706.87 3.702 1.315s3.364.836 4.106 1.173c1.08.5 1.875 1.133 2.387 1.902.513.755.769 1.632.769 2.63 0 .984-.283 1.915-.85 2.791-.566.877-1.382 1.558-2.447 2.043-1.052.486-2.24.729-3.56.729-1.673 0-3.076-.243-4.209-.729-1.132-.499-2.023-1.24-2.67-2.225-.647-.984-.984-2.09-1.011-3.317zm24.295-.77c0-2.48.688-4.322 2.064-5.522 1.16-.998 2.569-1.497 4.228-1.497 1.847 0 3.351.607 4.51 1.82 1.174 1.215 1.76 2.887 1.76 5.018 0 1.726-.255 3.088-.768 4.086a5.491 5.491 0 0 1 -2.266 2.306c-.984.54-2.063.81-3.236.81-1.888 0-3.412-.6-4.572-1.8-1.147-1.215-1.72-2.954-1.72-5.22zm2.327 0c0 1.727.37 3.015 1.112 3.865.756.85 1.706 1.274 2.853 1.274 1.133 0 2.07-.425 2.812-1.274.755-.863 1.132-2.178 1.132-3.945 0-1.659-.377-2.913-1.132-3.763-.756-.863-1.693-1.294-2.812-1.294-1.147 0-2.097.431-2.853 1.294-.741.85-1.112 2.131-1.112 3.844zm12.744 6.717v-13.432h2.064v1.921c.984-1.483 2.407-2.225 4.268-2.225.81 0 1.551.149 2.225.445.688.283 1.2.661 1.538 1.133.337.472.573 1.032.708 1.68.08.43.121 1.172.121 2.224v8.254h-2.286v-8.173c0-.93-.087-1.625-.263-2.083-.175-.459-.492-.823-.95-1.093-.446-.27-.972-.404-1.578-.404-.971 0-1.808.31-2.509.93-.701.607-1.052 1.767-1.052 3.48v7.343zm22.232 0v-18.53h3.702l4.37 13.109c.405 1.227.701 2.144.89 2.75.216-.674.546-1.665.991-2.973l4.43-12.886h3.298v18.53h-2.347v-15.516l-5.4 15.516h-2.206l-5.36-15.779v15.779h-2.369zm30.567-1.659c-.85.715-1.665 1.22-2.448 1.517a7.013 7.013 0 0 1 -2.508.445c-1.47 0-2.603-.357-3.399-1.072-.795-.728-1.193-1.652-1.193-2.771 0-.661.148-1.261.445-1.8.31-.54.708-.972 1.193-1.295a5.549 5.549 0 0 1 1.639-.769c.445-.108 1.12-.222 2.023-.344 1.834-.216 3.183-.472 4.046-.769.013-.31.02-.512.02-.606 0-.918-.216-1.572-.647-1.963-.58-.512-1.443-.768-2.59-.768-1.079 0-1.874.188-2.387.566-.499.378-.87 1.045-1.112 2.003l-2.226-.304c.203-.957.533-1.726.992-2.306.458-.593 1.126-1.045 2.002-1.355.877-.324 1.895-.486 3.055-.486 1.146 0 2.077.135 2.792.405.714.27 1.24.613 1.578 1.032.337.404.573.917.708 1.537.08.391.121 1.092.121 2.104v3.034c0 2.118.047 3.46.142 4.026.094.553.29 1.086.586 1.598h-2.387c-.23-.472-.377-1.025-.445-1.659zm-.202-5.077c-.823.337-2.064.62-3.722.85-.93.134-1.592.29-1.983.465a1.978 1.978 0 0 0 -.89.728 1.925 1.925 0 0 0 -.324 1.092c0 .607.23 1.113.688 1.517.459.405 1.133.607 2.023.607.877 0 1.652-.189 2.327-.566.687-.391 1.193-.917 1.517-1.578.242-.526.364-1.288.364-2.286v-.83zm14.444 1.82 2.225.283c-.243 1.551-.87 2.765-1.881 3.642-.998.863-2.232 1.294-3.702 1.294-1.835 0-3.311-.6-4.43-1.8-1.12-1.2-1.68-2.92-1.68-5.158 0-1.457.236-2.725.708-3.804.486-1.092 1.22-1.908 2.205-2.447a6.458 6.458 0 0 1 3.217-.83c1.456 0 2.643.371 3.56 1.113.93.742 1.53 1.787 1.8 3.135l-2.225.344c-.202-.903-.573-1.578-1.112-2.023-.54-.458-1.187-.687-1.942-.687-1.147 0-2.077.41-2.792 1.234-.715.822-1.072 2.117-1.072 3.884 0 1.807.344 3.122 1.032 3.944.687.81 1.591 1.214 2.71 1.214.89 0 1.632-.27 2.226-.809.607-.553.99-1.396 1.153-2.529zm6.27 4.916h-2.103v-18.53h2.266v6.615c.97-1.214 2.198-1.82 3.681-1.82.823 0 1.605.168 2.347.505s1.349.81 1.82 1.416c.473.593.844 1.315 1.113 2.165.27.85.405 1.76.405 2.73 0 2.307-.566 4.087-1.7 5.341-1.132 1.254-2.494 1.881-4.086 1.881-1.591 0-2.839-.66-3.742-1.982v1.679zm-.02-6.817c0 1.605.216 2.771.648 3.5.728 1.16 1.7 1.74 2.913 1.74.998 0 1.854-.432 2.57-1.296.727-.863 1.092-2.15 1.092-3.863 0-1.754-.351-3.042-1.052-3.864-.688-.836-1.524-1.254-2.509-1.254-.998 0-1.861.431-2.59 1.294-.714.863-1.071 2.11-1.071 3.743zm11.33.1c0-2.48.687-4.322 2.063-5.522 1.16-.998 2.569-1.497 4.227-1.497 1.848 0 3.352.607 4.512 1.82 1.173 1.215 1.76 2.887 1.76 5.018 0 1.726-.257 3.088-.77 4.086a5.491 5.491 0 0 1 -2.265 2.306c-.984.54-2.063.81-3.237.81-1.888 0-3.412-.6-4.571-1.8-1.147-1.215-1.72-2.954-1.72-5.22zm2.325 0c0 1.727.371 3.015 1.113 3.865.755.85 1.706 1.274 2.852 1.274 1.133 0 2.07-.425 2.812-1.274.756-.863 1.133-2.178 1.133-3.945 0-1.659-.377-2.913-1.133-3.763-.755-.863-1.692-1.294-2.812-1.294-1.146 0-2.097.431-2.852 1.294-.742.85-1.113 2.131-1.113 3.844zm11.916 0c0-2.48.687-4.322 2.063-5.522 1.16-.998 2.57-1.497 4.228-1.497 1.848 0 3.351.607 4.511 1.82 1.173 1.215 1.76 2.887 1.76 5.018 0 1.726-.256 3.088-.769 4.086a5.491 5.491 0 0 1 -2.265 2.306c-.985.54-2.064.81-3.237.81-1.888 0-3.412-.6-4.572-1.8-1.146-1.215-1.72-2.954-1.72-5.22zm2.326 0c0 1.727.37 3.015 1.113 3.865.755.85 1.706 1.274 2.852 1.274 1.133 0 2.07-.425 2.812-1.274.755-.863 1.133-2.178 1.133-3.945 0-1.659-.378-2.913-1.133-3.763-.755-.863-1.693-1.294-2.812-1.294-1.146 0-2.097.431-2.852 1.294-.742.85-1.113 2.131-1.113 3.844zm12.765 6.717v-18.53h2.286v10.56l5.38-5.462h2.934l-5.118 4.976 5.644 8.456h-2.812l-4.43-6.858-1.598 1.538v5.32zm-959.079 31.072v-18.53h6.979c1.24 0 2.185.054 2.832.162.904.162 1.666.459 2.286.89.62.418 1.113 1.012 1.477 1.78.377.77.566 1.612.566 2.53 0 1.577-.506 2.912-1.517 4.005-.998 1.078-2.805 1.618-5.422 1.618h-4.754v7.545zm2.447-9.73h4.795c1.578 0 2.697-.29 3.358-.87.674-.593 1.011-1.43 1.011-2.508 0-.769-.195-1.43-.586-1.983a2.728 2.728 0 0 0 -1.538-1.092c-.418-.108-1.186-.162-2.306-.162h-4.734zm14.06 9.73v-13.431h2.043v2.043c.526-.957 1.012-1.584 1.457-1.881.445-.31.93-.465 1.456-.465.769 0 1.551.242 2.347.728l-.79 2.124c-.552-.337-1.105-.506-1.658-.506-.499 0-.95.155-1.355.466-.391.296-.675.708-.85 1.234a9.189 9.189 0 0 0 -.364 2.65v7.04h-2.286zm8.254-6.716c0-2.481.687-4.322 2.063-5.522 1.16-.998 2.57-1.497 4.228-1.497 1.848 0 3.351.607 4.511 1.82 1.173 1.214 1.76 2.886 1.76 5.017 0 1.726-.256 3.089-.769 4.087a5.491 5.491 0 0 1 -2.265 2.306c-.985.54-2.064.809-3.237.809-1.888 0-3.412-.6-4.572-1.8-1.146-1.214-1.72-2.954-1.72-5.22zm2.326 0c0 1.727.37 3.015 1.113 3.864.755.85 1.706 1.275 2.852 1.275 1.133 0 2.07-.425 2.812-1.275.755-.863 1.133-2.178 1.133-3.945 0-1.658-.378-2.913-1.133-3.762-.755-.863-1.693-1.295-2.812-1.295-1.146 0-2.097.432-2.852 1.295-.742.85-1.113 2.13-1.113 3.843z" fill="#757575" fill-rule="nonzero"/><g fill-rule="nonzero" transform="translate(994.167 324.837)"><circle cx="115.538" cy="115.538" fill="#ff4500" r="115"/><path d="m192.205 115.538c0-9.28-7.532-16.813-16.813-16.813-4.573 0-8.608 1.749-11.567 4.708-11.433-8.205-27.305-13.585-44.79-14.258l7.667-35.912 24.883 5.246c.269 6.321 5.514 11.433 11.97 11.433 6.591 0 11.971-5.38 11.971-11.971 0-6.59-5.38-11.971-11.97-11.971-4.708 0-8.743 2.69-10.626 6.725l-27.842-5.918c-.807-.134-1.614 0-2.287.404-.672.403-1.076 1.076-1.345 1.883l-8.474 40.081c-17.888.538-33.894 5.784-45.462 14.258-2.959-2.825-7.128-4.708-11.567-4.708-9.28 0-16.813 7.532-16.813 16.813 0 6.86 4.035 12.643 9.954 15.333a31.476 31.476 0 0 0 -.404 5.111c0 25.825 29.994 46.673 67.117 46.673s67.117-20.848 67.117-46.673c0-1.748-.135-3.362-.404-4.976 5.515-2.69 9.685-8.608 9.685-15.468zm-115 11.97c0-6.59 5.38-11.97 11.97-11.97 6.591 0 11.971 5.38 11.971 11.97 0 6.591-5.38 11.972-11.97 11.972-6.591 0-11.971-5.38-11.971-11.971zm66.848 31.609c-8.205 8.205-23.807 8.743-28.38 8.743-4.574 0-20.31-.673-28.38-8.743-1.211-1.21-1.211-3.228 0-4.439 1.21-1.21 3.227-1.21 4.438 0 5.111 5.111 16.14 6.995 24.076 6.995s18.83-1.884 24.076-6.995c1.21-1.21 3.228-1.21 4.439 0 .941 1.345.941 3.228-.27 4.439zm-2.153-19.637c-6.591 0-11.971-5.38-11.971-11.971 0-6.59 5.38-11.971 11.97-11.971 6.591 0 11.971 5.38 11.971 11.97 0 6.591-5.38 11.972-11.97 11.972z" fill="#fff"/></g><path d="m821.351 749.039-.935-5.202a20.2 20.2 0 0 1 -.204-1.47 46.81 46.81 0 0 0 -.153-1.352h-.034a33.44 33.44 0 0 0 -.11 1.351c-.029.46-.083.95-.162 1.471l-.73 5.202h-3.367l-2.856-12.818h3.417l.765 5.168c.068.476.13.95.187 1.42l.17 1.419h.034c.057-.476.096-.95.12-1.42.022-.47.078-.943.17-1.419l.9-5.168h2.975l.884 5.168c.08.476.147.94.204 1.394.057.453.12.918.187 1.394h.034c.057-.397.1-.833.128-1.309s.082-.969.161-1.479l.765-5.168h3.383l-2.584 12.818zm6.43 0v-12.818h3.468v12.818zm6.26 0v-9.69h-1.903v-3.128h7.36v3.128h-1.988v9.69h-3.468zm11.446 0v-5.202h-1.65v5.202h-3.467v-12.818h3.468v4.59h1.649v-4.59h3.468v12.818zm10.888 0v-9.69h-1.904v-3.128h7.361v3.128h-1.989v9.69zm11.446 0v-5.202h-1.65v5.202h-3.467v-12.818h3.468v4.59h1.649v-4.59h3.468v12.818zm9.898-4.369-.374-2.975a20.673 20.673 0 0 1 -.136-1.207c-.034-.408-.074-.81-.12-1.207h-.033a38.95 38.95 0 0 0 -.153 1.207c-.045.408-.102.81-.17 1.207l-.476 2.975zm.663 4.369-.255-1.649h-2.33l-.288 1.649h-3.57l3.077-12.818h4.233l2.72 12.818zm4.203-12.818h3.298l2.771 7.718.034-.034a53.743 53.743 0 0 0 -.246-2.21 16.768 16.768 0 0 1 -.145-2.21v-3.264h3.332v12.818h-3.332l-2.584-7.395-.034.034c.045.612.096 1.213.153 1.802.057.59.085 1.19.085 1.802v3.757h-3.332zm14.055 6.936h-.026v5.882h-3.468v-12.818h3.468v5.457h.017l1.904-5.457h3.655l-2.77 6.188 3.093 6.63h-3.723l-2.159-5.882zm6.439 1.564c.113.181.252.357.416.527s.34.323.527.459.385.244.595.323c.21.08.428.119.655.119.238 0 .467-.07.688-.212s.332-.355.332-.638c0-.159-.023-.295-.068-.408a.906.906 0 0 0 -.204-.306 2.248 2.248 0 0 0 -.264-.255 5.053 5.053 0 0 0 -.314-.238c-.34-.26-.655-.521-.944-.782a5.76 5.76 0 0 1 -.773-.85 3.695 3.695 0 0 1 -.51-.986 3.867 3.867 0 0 1 -.187-1.258c0-.374.065-.805.195-1.292s.349-.946.655-1.377c.306-.43.708-.796 1.207-1.096.498-.3 1.116-.451 1.853-.451.419 0 .844.06 1.275.178.43.12.827.275 1.19.468v3.893a3.478 3.478 0 0 0 -.383-.485 3.62 3.62 0 0 0 -.493-.442 2.77 2.77 0 0 0 -.56-.322 1.52 1.52 0 0 0 -.604-.128c-.204 0-.406.068-.604.204a.66.66 0 0 0 -.297.578c0 .136.034.263.102.383a1.882 1.882 0 0 0 .553.612c.118.085.223.167.314.246.362.26.688.513.977.757.29.243.53.512.723.807.204.295.36.618.467.969.108.351.162.77.162 1.258 0 .6-.1 1.159-.298 1.674a4.267 4.267 0 0 1 -.833 1.36 3.781 3.781 0 0 1 -1.292.918 4.085 4.085 0 0 1 -1.657.332 6.669 6.669 0 0 1 -2.601-.527zm13.71 4.318v-9.69h-1.904v-3.128h7.361v3.128h-1.989v9.69zm9.473-6.409c0 .136.003.314.009.535.006.222.023.457.05.706.03.25.072.501.128.757.057.255.136.487.238.696.102.21.23.38.383.51s.337.196.552.196c.216 0 .4-.065.553-.195s.28-.3.382-.51a3.15 3.15 0 0 0 .238-.697c.057-.256.1-.508.128-.757.028-.25.045-.484.05-.706.007-.22.01-.399.01-.535s-.003-.314-.01-.535a8.105 8.105 0 0 0 -.05-.706 7.27 7.27 0 0 0 -.128-.756 3.15 3.15 0 0 0 -.238-.697c-.102-.21-.23-.38-.382-.51a.824.824 0 0 0 -.553-.196c-.215 0-.4.065-.552.196-.153.13-.28.3-.383.51a3.15 3.15 0 0 0 -.238.697c-.056.255-.099.507-.127.756-.028.25-.045.484-.051.706-.006.22-.009.399-.009.535zm-3.536 0c0-.782.091-1.567.272-2.355a7.05 7.05 0 0 1 .859-2.133 4.813 4.813 0 0 1 1.513-1.547c.618-.397 1.368-.595 2.252-.595s1.635.198 2.253.595a4.813 4.813 0 0 1 1.513 1.547 7.05 7.05 0 0 1 .858 2.133c.182.788.272 1.573.272 2.355s-.09 1.567-.272 2.355a7.05 7.05 0 0 1 -.858 2.133 4.813 4.813 0 0 1 -1.513 1.547c-.618.397-1.369.595-2.253.595s-1.634-.198-2.252-.595a4.813 4.813 0 0 1 -1.513-1.547 7.05 7.05 0 0 1 -.859-2.134 10.466 10.466 0 0 1 -.272-2.354zm24.693 6.409-.323-8.058h-.034c-.08.476-.15.943-.213 1.403-.062.459-.138.926-.23 1.402l-.985 5.253h-2.822l-1.207-8.058h-.034c-.011.476-.017.95-.017 1.42s-.011.943-.034 1.419l-.29 5.219h-3.722l1.496-12.818h4.318l.986 6.817h.034c.057-.397.108-.793.153-1.19s.108-.793.187-1.19l.833-4.437h4.267l1.24 12.818zm9.252-4.369-.374-2.975a20.673 20.673 0 0 1 -.136-1.207c-.034-.408-.074-.81-.119-1.207h-.034a38.95 38.95 0 0 0 -.153 1.207c-.045.408-.102.81-.17 1.207l-.476 2.975zm.663 4.369-.255-1.649h-2.329l-.289 1.649h-3.57l3.077-12.818h4.233l2.72 12.818zm5.478 0v-9.69h-1.904v-3.128h7.361v3.128h-1.989v9.69zm11.446 0v-5.202h-1.65v5.202h-3.467v-12.818h3.468v4.59h1.649v-4.59h3.468v12.818zm5.002 0v-12.818h3.468v12.818zm9.881-4.369-.374-2.975a20.673 20.673 0 0 1 -.136-1.207c-.034-.408-.074-.81-.119-1.207h-.034c-.057.397-.108.799-.153 1.207s-.102.81-.17 1.207l-.476 2.975zm.663 4.369-.255-1.649h-2.329l-.289 1.649h-3.57l3.077-12.818h4.233l2.72 12.818zm3.88-4.318c.114.181.253.357.417.527s.34.323.527.459.385.244.595.323c.21.08.428.119.654.119.238 0 .468-.07.689-.212.22-.142.331-.355.331-.638 0-.159-.022-.295-.068-.408a.906.906 0 0 0 -.204-.306 2.248 2.248 0 0 0 -.263-.255 5.053 5.053 0 0 0 -.315-.238c-.34-.26-.654-.521-.943-.782a5.76 5.76 0 0 1 -.774-.85 3.695 3.695 0 0 1 -.51-.986 3.867 3.867 0 0 1 -.187-1.258c0-.374.066-.805.196-1.292s.348-.946.654-1.377c.306-.43.709-.796 1.207-1.096.499-.3 1.117-.451 1.853-.451.42 0 .845.06 1.275.178.431.12.828.275 1.19.468v3.893a3.479 3.479 0 0 0 -.382-.485 3.62 3.62 0 0 0 -.493-.442 2.77 2.77 0 0 0 -.561-.322 1.52 1.52 0 0 0 -.604-.128c-.204 0-.405.068-.603.204a.66.66 0 0 0 -.298.578c0 .136.034.263.102.383a1.882 1.882 0 0 0 .552.612c.12.085.225.167.315.246.363.26.689.513.978.757.289.243.53.512.722.807.204.295.36.618.468.969s.161.77.161 1.258c0 .6-.099 1.159-.297 1.674a4.267 4.267 0 0 1 -.833 1.36 3.781 3.781 0 0 1 -1.292.918 4.085 4.085 0 0 1 -1.658.332 6.669 6.669 0 0 1 -2.6-.527v-4.012zm9.406 7.038h-2.72l1.564-6.171h3.4zm8.916-2.72v-9.69h-1.904v-3.128h7.361v3.128h-1.989v9.69zm9.473-6.409c0 .136.003.314.009.535a8.1 8.1 0 0 0 .05.706c.03.25.072.501.128.757.057.255.136.487.238.696.102.21.23.38.383.51s.337.196.552.196c.216 0 .4-.065.553-.195s.28-.3.382-.51a3.15 3.15 0 0 0 .238-.697c.057-.256.1-.508.128-.757.028-.25.045-.484.05-.706.007-.22.01-.399.01-.535s-.003-.314-.01-.535a8.108 8.108 0 0 0 -.05-.706 7.275 7.275 0 0 0 -.128-.756 3.15 3.15 0 0 0 -.238-.697c-.102-.21-.23-.38-.382-.51a.824.824 0 0 0 -.553-.196c-.215 0-.4.065-.552.196-.153.13-.28.3-.383.51a3.15 3.15 0 0 0 -.238.697 7.27 7.27 0 0 0 -.127.756 8.1 8.1 0 0 0 -.051.706c-.006.22-.009.399-.009.535zm-3.536 0c0-.782.091-1.567.272-2.355a7.05 7.05 0 0 1 .859-2.133 4.813 4.813 0 0 1 1.513-1.547c.618-.397 1.368-.595 2.252-.595s1.635.198 2.253.595a4.814 4.814 0 0 1 1.513 1.547 7.05 7.05 0 0 1 .858 2.133c.182.788.272 1.573.272 2.355s-.09 1.567-.272 2.355a7.05 7.05 0 0 1 -.858 2.133 4.814 4.814 0 0 1 -1.513 1.547c-.618.397-1.369.595-2.253.595s-1.634-.198-2.252-.595a4.813 4.813 0 0 1 -1.513-1.547 7.05 7.05 0 0 1 -.859-2.134 10.465 10.465 0 0 1 -.272-2.354zm14.08 0c0 .136.003.314.01.535a8.1 8.1 0 0 0 .05.706c.028.25.071.501.128.757.056.255.136.487.238.696.102.21.23.38.382.51.153.13.337.196.553.196.215 0 .4-.065.552-.195.153-.13.28-.3.383-.51a3.15 3.15 0 0 0 .238-.697 8.108 8.108 0 0 0 .178-1.462c.006-.222.009-.4.009-.536s-.003-.314-.009-.535a8.108 8.108 0 0 0 -.05-.706 7.275 7.275 0 0 0 -.128-.756 3.15 3.15 0 0 0 -.238-.697c-.102-.21-.23-.38-.383-.51a.824.824 0 0 0 -.552-.196c-.216 0-.4.065-.553.196-.153.13-.28.3-.382.51a3.15 3.15 0 0 0 -.238.697 7.27 7.27 0 0 0 -.128.756 8.1 8.1 0 0 0 -.05.706c-.007.22-.01.399-.01.535zm-3.535 0c0-.782.09-1.567.272-2.355a7.05 7.05 0 0 1 .858-2.133 4.813 4.813 0 0 1 1.513-1.547c.618-.397 1.369-.595 2.253-.595s1.634.198 2.252.595a4.814 4.814 0 0 1 1.513 1.547 7.05 7.05 0 0 1 .859 2.133c.181.788.272 1.573.272 2.355s-.091 1.567-.272 2.355a7.05 7.05 0 0 1 -.859 2.133 4.814 4.814 0 0 1 -1.513 1.547c-.618.397-1.368.595-2.252.595s-1.635-.198-2.253-.595a4.813 4.813 0 0 1 -1.513-1.547 7.05 7.05 0 0 1 -.858-2.134 10.465 10.465 0 0 1 -.272-2.354zm10.935-6.409h3.298l2.77 7.718.035-.034a53.732 53.732 0 0 0 -.247-2.21 16.77 16.77 0 0 1 -.144-2.21v-3.264h3.332v12.818h-3.332l-2.584-7.395-.034.034c.045.612.096 1.213.153 1.802.057.59.085 1.19.085 1.802v3.757h-3.332zm20.068 8.449-.374-2.975a20.679 20.679 0 0 1 -.136-1.207c-.034-.408-.073-.81-.119-1.207h-.034a38.99 38.99 0 0 0 -.153 1.207c-.045.408-.102.81-.17 1.207l-.476 2.975zm.663 4.369-.255-1.649h-2.329l-.289 1.649h-3.57l3.077-12.818h4.233l2.72 12.818zm4.204-12.818h3.298l2.77 7.718.035-.034a53.732 53.732 0 0 0 -.247-2.21 16.77 16.77 0 0 1 -.144-2.21v-3.264h3.332v12.818h-3.332l-2.584-7.395-.034.034c.045.612.096 1.213.153 1.802.056.59.085 1.19.085 1.802v3.757h-3.332zm14.029 9.724c.397 0 .717-.11.96-.332a2.19 2.19 0 0 0 .561-.816c.13-.323.219-.668.264-1.037.045-.368.068-.705.068-1.011 0-.351-.023-.722-.068-1.114a4.242 4.242 0 0 0 -.264-1.079c-.13-.329-.317-.6-.56-.816-.244-.215-.564-.323-.961-.323zm-3.468-9.724h2.788c.986 0 1.856.15 2.61.45.753.3 1.388.726 1.903 1.275.516.55.904 1.219 1.165 2.006.26.788.39 1.664.39 2.627 0 .986-.095 1.83-.288 2.533s-.445 1.292-.757 1.768a4.205 4.205 0 0 1 -1.08 1.148 4.946 4.946 0 0 1 -1.257.654c-.43.147-.859.244-1.284.289s-.813.068-1.164.068h-3.026zm14.611 12.818v-12.818h3.468v9.792h2.601v3.026zm6.958-12.818h6.443v3.026h-2.975v1.785h2.669v3.026h-2.67v1.955h2.976v3.026h-6.443zm7.637 8.5c.113.181.252.357.416.527.165.17.34.323.527.459s.386.244.595.323c.21.08.428.119.655.119.238 0 .467-.07.688-.212s.332-.355.332-.638c0-.159-.023-.295-.068-.408a.906.906 0 0 0 -.204-.306 2.248 2.248 0 0 0 -.264-.255 5.05 5.05 0 0 0 -.314-.238c-.34-.26-.655-.521-.944-.782a5.761 5.761 0 0 1 -.773-.85 3.696 3.696 0 0 1 -.51-.986 3.867 3.867 0 0 1 -.187-1.258c0-.374.065-.805.195-1.292s.349-.946.655-1.377c.306-.43.708-.796 1.207-1.096s1.116-.451 1.853-.451c.42 0 .844.06 1.275.178.43.12.827.275 1.19.468v3.893a3.478 3.478 0 0 0 -.383-.485 3.62 3.62 0 0 0 -.493-.442 2.77 2.77 0 0 0 -.56-.322 1.52 1.52 0 0 0 -.604-.128c-.204 0-.405.068-.604.204a.66.66 0 0 0 -.297.578c0 .136.034.263.102.383a1.882 1.882 0 0 0 .553.612c.118.085.223.167.314.246.363.26.688.513.977.757.29.243.53.512.723.807.204.295.36.618.467.969.108.351.162.77.162 1.258 0 .6-.1 1.159-.298 1.674a4.267 4.267 0 0 1 -.833 1.36 3.781 3.781 0 0 1 -1.292.918 4.085 4.085 0 0 1 -1.657.332 6.669 6.669 0 0 1 -2.601-.527v-4.012zm7.195 4.318 3.502-8.143c.125-.283.275-.572.45-.867.176-.295.355-.59.536-.884-.34.023-.697.045-1.07.068-.375.023-.749.034-1.123.034h-1.53v-3.026h8.483l-3.79 8.772c-.092.204-.182.402-.273.595l-.272.578c.317-.023.638-.054.96-.094.324-.04.65-.059.978-.059h1.972v3.026zm10.136-12.818h6.443v3.026h-2.975v1.785h2.67v3.026h-2.67v1.955h2.975v3.026h-6.443zm11.454 6.936h-.025v5.882h-3.468v-12.818h3.468v5.457h.017l1.904-5.457h3.655l-2.771 6.188 3.094 6.63h-3.723l-2.16-5.882h.01zm11.373 5.882v-12.818h6.12v3.026h-2.652v1.853h2.482v3.026h-2.482v4.913zm10.8-6.409c0 .136.002.314.008.535.006.222.023.457.05.706.03.25.072.501.128.757.057.255.136.487.238.696.102.21.23.38.383.51s.337.196.552.196c.216 0 .4-.065.553-.195s.28-.3.382-.51a3.15 3.15 0 0 0 .238-.697c.057-.256.1-.508.128-.757a8.1 8.1 0 0 0 .05-.706c.007-.22.01-.399.01-.535s-.003-.314-.01-.535a8.1 8.1 0 0 0 -.05-.706 7.27 7.27 0 0 0 -.128-.756 3.15 3.15 0 0 0 -.238-.697c-.102-.21-.23-.38-.382-.51a.824.824 0 0 0 -.553-.196c-.215 0-.4.065-.552.196-.153.13-.28.3-.383.51a3.15 3.15 0 0 0 -.238.697c-.056.255-.099.507-.127.756-.028.25-.045.484-.051.706-.006.22-.009.399-.009.535zm-3.537 0c0-.782.091-1.567.272-2.355a7.05 7.05 0 0 1 .859-2.133 4.813 4.813 0 0 1 1.513-1.547c.618-.397 1.368-.595 2.252-.595s1.635.198 2.253.595a4.813 4.813 0 0 1 1.513 1.547 7.05 7.05 0 0 1 .858 2.133c.182.788.272 1.573.272 2.355s-.09 1.567-.272 2.355a7.05 7.05 0 0 1 -.858 2.133 4.813 4.813 0 0 1 -1.513 1.547c-.618.397-1.369.595-2.253.595s-1.634-.198-2.252-.595a4.813 4.813 0 0 1 -1.513-1.547 7.05 7.05 0 0 1 -.859-2.134 10.466 10.466 0 0 1 -.272-2.354zm14.625-.476c.226 0 .427-.045.603-.136.176-.09.323-.212.442-.365a1.66 1.66 0 0 0 .272-.528c.062-.198.094-.399.094-.603 0-.567-.153-.972-.46-1.216-.305-.243-.696-.354-1.172-.331v3.162l.22.017zm1.683 6.885-1.921-5.338-.034.034.034.943c.011.312.017.627.017.944v3.417h-3.468v-12.818h3.349c.748 0 1.439.062 2.074.187.634.125 1.181.348 1.64.672.46.323.819.759 1.08 1.308.26.55.39 1.25.39 2.1a3.96 3.96 0 0 1 -.475 1.938c-.318.578-.822 1.003-1.513 1.275l2.584 5.338zm13.88-4.369-.374-2.975a20.679 20.679 0 0 1 -.136-1.207c-.034-.408-.074-.81-.119-1.207h-.034a38.99 38.99 0 0 0 -.153 1.207c-.045.408-.102.81-.17 1.207l-.476 2.975zm.663 4.369-.255-1.649h-2.329l-.289 1.649h-3.57l3.077-12.818h4.233l2.72 12.818zm4.203-12.818h3.298l2.771 7.718.034-.034a53.732 53.732 0 0 0 -.246-2.21 16.77 16.77 0 0 1 -.145-2.21v-3.264h3.332v12.818h-3.332l-2.584-7.395-.034.034c.046.612.097 1.213.153 1.802.057.59.085 1.19.085 1.802v3.757h-3.332zm15.458 8.449-.374-2.975a20.679 20.679 0 0 1 -.136-1.207c-.034-.408-.074-.81-.12-1.207h-.033a38.99 38.99 0 0 0 -.153 1.207c-.046.408-.102.81-.17 1.207l-.476 2.975zm.663 4.369-.255-1.649h-2.33l-.288 1.649h-3.57l3.077-12.818h4.233l2.72 12.818zm4.203 0v-12.818h3.468v9.792h2.6v3.026zm9.235 0v-5.44l-3.162-7.378h3.604l1.19 3.961h.034l1.207-3.961h3.587l-2.992 7.378v5.44zm6.753-4.318c.114.181.253.357.417.527s.34.323.527.459.385.244.595.323c.21.08.428.119.654.119.238 0 .468-.07.689-.212.22-.142.331-.355.331-.638 0-.159-.022-.295-.068-.408a.906.906 0 0 0 -.204-.306 2.248 2.248 0 0 0 -.263-.255 5.05 5.05 0 0 0 -.315-.238c-.34-.26-.654-.521-.943-.782a5.761 5.761 0 0 1 -.774-.85 3.696 3.696 0 0 1 -.51-.986 3.867 3.867 0 0 1 -.187-1.258c0-.374.066-.805.196-1.292s.348-.946.654-1.377c.306-.43.709-.796 1.207-1.096.499-.3 1.117-.451 1.853-.451.42 0 .845.06 1.275.178.431.12.828.275 1.19.468v3.893a3.478 3.478 0 0 0 -.382-.485 3.62 3.62 0 0 0 -.493-.442 2.77 2.77 0 0 0 -.561-.322 1.52 1.52 0 0 0 -.604-.128c-.204 0-.405.068-.603.204a.66.66 0 0 0 -.298.578c0 .136.034.263.102.383a1.882 1.882 0 0 0 .553.612c.119.085.224.167.314.246.363.26.689.513.978.757.289.243.53.512.722.807.204.295.36.618.468.969s.161.77.161 1.258c0 .6-.099 1.159-.297 1.674a4.267 4.267 0 0 1 -.833 1.36 3.781 3.781 0 0 1 -1.292.918 4.085 4.085 0 0 1 -1.658.332 6.669 6.669 0 0 1 -2.6-.527v-4.012zm7.825 4.318v-12.818h3.468v12.818zm4.662-4.318c.113.181.252.357.416.527.165.17.34.323.527.459s.386.244.595.323c.21.08.428.119.655.119.238 0 .467-.07.688-.212s.332-.355.332-.638c0-.159-.023-.295-.068-.408a.906.906 0 0 0 -.204-.306 2.248 2.248 0 0 0 -.264-.255 5.05 5.05 0 0 0 -.314-.238c-.34-.26-.655-.521-.944-.782a5.761 5.761 0 0 1 -.773-.85 3.696 3.696 0 0 1 -.51-.986 3.867 3.867 0 0 1 -.187-1.258c0-.374.065-.805.195-1.292s.349-.946.655-1.377c.306-.43.708-.796 1.207-1.096s1.116-.451 1.853-.451c.42 0 .844.06 1.275.178.43.12.827.275 1.19.468v3.893a3.478 3.478 0 0 0 -.383-.485 3.62 3.62 0 0 0 -.493-.442 2.77 2.77 0 0 0 -.56-.322 1.52 1.52 0 0 0 -.604-.128c-.204 0-.405.068-.604.204a.66.66 0 0 0 -.297.578c0 .136.034.263.102.383a1.882 1.882 0 0 0 .553.612c.118.085.223.167.314.246.363.26.688.513.977.757.29.243.53.512.723.807.204.295.36.618.467.969.108.351.162.77.162 1.258 0 .6-.1 1.159-.298 1.674a4.267 4.267 0 0 1 -.833 1.36 3.781 3.781 0 0 1 -1.292.918 4.085 4.085 0 0 1 -1.657.332 6.669 6.669 0 0 1 -2.601-.527v-4.012z" fill="#9b9b9b" fill-rule="nonzero"/></g></svg>