<svg height="774" width="1280" xmlns="http://www.w3.org/2000/svg"><g fill="none" fill-rule="evenodd"><path d="m0 0h1280v774h-1280z" fill="#fff"/><g fill-rule="nonzero"><path d="m65.955 0h1147.505v608h-1147.505z" fill="#fff"/><path d="m556.46 97.155a234.26 234.26 0 0 1 83.248-15.29v234.259z" fill="#f4b400"/><path d="m412.673 373.852c-29.335-115.369 32.517-234.394 143.787-276.697l83.247 218.969z" fill="#4285f4"/><path d="m639.708 81.865c121.848 0 223.351 93.41 233.453 214.838 10.101 121.43-74.572 230.327-194.746 250.46-120.173 20.134-235.715-55.22-265.742-173.311l227.035-57.728z" fill="#674ea7"/><path d="m95.731 102.768 2.384-.328c.072 1.53.364 2.58.874 3.149.51.554 1.217.83 2.121.83.656 0 1.225-.145 1.706-.436.48-.307.809-.722.984-1.247.19-.525.284-1.363.284-2.514v-13.798h2.667v13.645c0 1.676-.204 2.973-.612 3.892a4.434 4.434 0 0 1 -1.946 2.12c-.874.482-1.902.722-3.083.722-1.75 0-3.097-.503-4.045-1.509-.933-1.02-1.378-2.529-1.334-4.526zm14.453-.743 2.493-.219c.117.991.386 1.808.81 2.45.436.64 1.107 1.165 2.01 1.573.919.394 1.954.59 3.106.59 1.005 0 1.895-.145 2.667-.436.773-.307 1.349-.722 1.728-1.247s.568-1.1.568-1.727-.182-1.174-.547-1.64c-.364-.467-.962-.86-1.793-1.18-.539-.22-1.734-.547-3.585-.985-1.837-.437-3.12-.853-3.849-1.246-.962-.496-1.676-1.115-2.143-1.859s-.7-1.574-.7-2.492c0-1.02.285-1.968.853-2.843.569-.875 1.407-1.538 2.515-1.99 1.108-.466 2.332-.7 3.673-.7 1.487 0 2.8.241 3.936.722 1.137.481 2.005 1.188 2.602 2.121.612.918.94 1.968.984 3.149l-2.536.197c-.131-1.269-.59-2.223-1.378-2.865-.787-.656-1.953-.984-3.498-.984-1.604 0-2.777.3-3.52.897-.73.583-1.094 1.283-1.094 2.099 0 .729.262 1.326.787 1.793.51.466 1.844.94 4.002 1.421s3.637.904 4.438 1.268c1.167.54 2.027 1.225 2.58 2.056.554.816.831 1.763.831 2.842 0 1.064-.306 2.07-.918 3.018s-1.494 1.683-2.646 2.208c-1.137.525-2.42.787-3.848.787-1.808 0-3.324-.262-4.548-.787-1.225-.54-2.187-1.341-2.886-2.405-.7-1.064-1.064-2.26-1.094-3.586zm31.859 12.31c-1.356-1.705-2.5-3.702-3.433-5.991a18.874 18.874 0 0 1 -1.4-7.15c0-2.172.35-4.25 1.05-6.232.816-2.303 2.077-4.599 3.783-6.887h1.77c-1.107 1.895-1.836 3.25-2.186 4.067a22.273 22.273 0 0 0 -1.312 3.935 22.782 22.782 0 0 0 -.59 5.139c0 4.373 1.363 8.746 4.089 13.12zm8.92-5.882-5.313-20.029h2.712l3.039 13.12c.335 1.385.62 2.755.853 4.11.51-2.142.809-3.381.896-3.717l3.827-13.513h3.192l2.864 10.124c.73 2.522 1.254 4.89 1.575 7.107.248-1.269.576-2.726.984-4.374l3.148-12.857h2.668l-5.488 20.03h-2.559l-4.22-15.263c-.364-1.283-.575-2.07-.634-2.361a92.506 92.506 0 0 1 -.59 2.361l-4.242 15.262zm21.866-7.259c0-2.682.744-4.672 2.23-5.97 1.254-1.078 2.777-1.617 4.57-1.617 1.998 0 3.623.656 4.876 1.968 1.269 1.311 1.903 3.119 1.903 5.422 0 1.866-.277 3.338-.831 4.417-.554 1.064-1.37 1.895-2.449 2.493-1.064.583-2.23.874-3.499.874-2.04 0-3.688-.648-4.941-1.946-1.24-1.312-1.859-3.192-1.859-5.641zm2.515 0c0 1.866.4 3.258 1.202 4.176.817.919 1.844 1.378 3.083 1.378 1.225 0 2.238-.46 3.04-1.378.816-.933 1.224-2.354 1.224-4.263 0-1.793-.408-3.15-1.224-4.067-.817-.933-1.83-1.4-3.04-1.4-1.239 0-2.266.467-3.083 1.4-.801.918-1.202 2.303-1.202 4.154zm13.753 7.26v-14.52h2.209v2.209c.568-1.035 1.093-1.713 1.574-2.033a2.696 2.696 0 0 1 1.574-.503c.831 0 1.677.262 2.537.787l-.853 2.296c-.598-.365-1.195-.547-1.793-.547-.54 0-1.028.168-1.465.503-.423.32-.729.765-.918 1.334-.263.874-.394 1.83-.394 2.864v7.61zm9.84 0v-20.03h2.47v11.414l5.817-5.903h3.17l-5.532 5.379 6.1 9.14h-3.038l-4.789-7.413-1.727 1.662v5.75zm23.92-4.68 2.537.328c-.393 1.472-1.137 2.624-2.23 3.455-1.079.816-2.464 1.224-4.155 1.224-2.113 0-3.797-.648-5.05-1.946-1.24-1.312-1.86-3.148-1.86-5.51 0-2.449.628-4.344 1.881-5.685 1.254-1.356 2.887-2.033 4.898-2.033 1.939 0 3.52.663 4.745 1.99 1.24 1.311 1.859 3.17 1.859 5.575 0 .146-.008.365-.022.656h-10.824c.088 1.589.54 2.806 1.356 3.652.816.845 1.83 1.268 3.04 1.268.903 0 1.668-.233 2.295-.7.642-.48 1.152-1.239 1.53-2.274zm-8.09-3.98h8.113c-.102-1.21-.409-2.12-.919-2.733-.787-.947-1.807-1.42-3.06-1.42-1.123 0-2.07.378-2.843 1.136-.773.744-1.203 1.75-1.29 3.018zm13.513 8.66v-14.52h2.209v2.209c.568-1.035 1.093-1.713 1.574-2.033a2.696 2.696 0 0 1 1.574-.503c.831 0 1.677.262 2.537.787l-.853 2.296c-.598-.365-1.195-.547-1.793-.547-.54 0-1.028.168-1.465.503-.423.32-.729.765-.918 1.334-.263.874-.394 1.83-.394 2.864v7.61zm23.593-2.21.35 2.187a9.011 9.011 0 0 1 -1.858.22c-.89 0-1.582-.14-2.078-.416-.48-.292-.823-.664-1.027-1.115-.204-.467-.306-1.436-.306-2.909v-8.351h-1.793v-1.924h1.793v-3.586l2.449-1.487v5.073h2.47v1.924h-2.47v8.484c0 .7.043 1.151.13 1.355.088.19.227.35.416.481.204.117.489.175.853.175.262 0 .62-.036 1.071-.11zm3.018 2.21v-20.03h2.47v7.172c1.152-1.326 2.603-1.99 4.352-1.99 1.064 0 1.99.212 2.777.635.802.422 1.37 1.013 1.705 1.77.35.744.525 1.823.525 3.237v9.205h-2.449v-9.205c0-1.225-.27-2.114-.809-2.668-.54-.568-1.29-.852-2.252-.852a4.09 4.09 0 0 0 -2.077.568c-.642.38-1.1.897-1.378 1.553-.262.64-.393 1.53-.393 2.667v7.937zm15.371 0v-14.52h2.209v2.209c.568-1.035 1.093-1.713 1.574-2.033a2.696 2.696 0 0 1 1.574-.503c.831 0 1.677.262 2.537.787l-.853 2.296c-.598-.365-1.195-.547-1.793-.547-.54 0-1.028.168-1.465.503-.423.32-.729.765-.918 1.334-.263.874-.394 1.83-.394 2.864v7.61zm19.767-4.68 2.536.328c-.393 1.472-1.137 2.624-2.23 3.455-1.079.816-2.464 1.224-4.154 1.224-2.114 0-3.798-.648-5.051-1.946-1.24-1.312-1.859-3.148-1.859-5.51 0-2.449.627-4.344 1.88-5.685 1.254-1.356 2.887-2.033 4.898-2.033 1.94 0 3.52.663 4.745 1.99 1.24 1.311 1.859 3.17 1.859 5.575 0 .146-.008.365-.022.656h-10.824c.088 1.589.54 2.806 1.356 3.652.816.845 1.83 1.268 3.04 1.268.903 0 1.668-.233 2.295-.7.642-.48 1.152-1.239 1.53-2.274zm-8.09-3.98h8.112c-.102-1.21-.408-2.12-.919-2.733-.787-.947-1.807-1.42-3.06-1.42-1.123 0-2.07.378-2.843 1.136-.773.744-1.203 1.75-1.29 3.018zm23.024 6.866c-.918.773-1.8 1.32-2.646 1.64a7.58 7.58 0 0 1 -2.711.481c-1.589 0-2.813-.386-3.673-1.159-.86-.787-1.29-1.785-1.29-2.995 0-.714.16-1.363.48-1.946a4.115 4.115 0 0 1 1.29-1.4 5.997 5.997 0 0 1 1.772-.83c.48-.117 1.21-.241 2.186-.372 1.983-.233 3.44-.51 4.373-.831.015-.335.022-.554.022-.656 0-.991-.233-1.698-.7-2.121-.626-.554-1.56-.83-2.798-.83-1.166 0-2.026.203-2.58.611-.54.409-.94 1.13-1.203 2.165l-2.405-.328c.218-1.035.576-1.866 1.071-2.493.496-.641 1.217-1.13 2.165-1.465.947-.35 2.048-.524 3.302-.524 1.239 0 2.244.145 3.017.437.773.291 1.341.663 1.706 1.115.364.437.62.991.765 1.662.087.423.131 1.18.131 2.274v3.28c0 2.288.051 3.739.153 4.351.102.598.314 1.173.634 1.727h-2.58c-.248-.51-.408-1.108-.48-1.793zm-.219-5.488c-.889.365-2.23.67-4.023.918-1.006.146-1.72.314-2.143.503a2.138 2.138 0 0 0 -.962.788 2.08 2.08 0 0 0 -.35 1.18c0 .656.248 1.203.744 1.64s1.224.656 2.186.656c.948 0 1.786-.204 2.515-.612.743-.423 1.29-.991 1.64-1.706.262-.568.393-1.392.393-2.47zm15.547 7.281v-1.836c-.919 1.443-2.274 2.164-4.067 2.164a5.7 5.7 0 0 1 -3.193-.962c-.962-.641-1.712-1.53-2.252-2.667-.524-1.137-.787-2.45-.787-3.936 0-1.458.24-2.777.722-3.958.48-1.18 1.202-2.084 2.164-2.711a5.869 5.869 0 0 1 3.237-.94c.874 0 1.654.19 2.34.568a5.01 5.01 0 0 1 1.683 1.421v-7.172h2.427v20.03zm-7.784-7.237c0 1.851.393 3.236 1.18 4.154.788.919 1.713 1.378 2.777 1.378 1.08 0 1.99-.437 2.734-1.312.758-.875 1.137-2.216 1.137-4.023 0-1.983-.387-3.44-1.16-4.373-.757-.933-1.698-1.4-2.82-1.4-1.093 0-2.012.452-2.755 1.356-.729.889-1.093 2.296-1.093 4.22zm15.371 13.12h-1.749c2.711-4.374 4.067-8.747 4.067-13.12 0-1.72-.19-3.418-.569-5.095a22.273 22.273 0 0 0 -1.311-3.936c-.35-.83-1.08-2.2-2.187-4.11h1.75c1.72 2.288 2.988 4.584 3.804 6.887.7 1.983 1.05 4.06 1.05 6.232 0 2.463-.474 4.847-1.422 7.15-.933 2.289-2.077 4.286-3.433 5.991z" fill="#1a1a1a"/><path d="m96.081 140.99 2.58-.22c.19 1.254.634 2.202 1.334 2.843.7.627 1.545.94 2.536.94 1.181 0 2.18-.444 2.996-1.333.816-.89 1.224-2.078 1.224-3.564 0-1.4-.393-2.5-1.18-3.302-.787-.816-1.815-1.225-3.083-1.225-.802 0-1.524.183-2.165.547a4.04 4.04 0 0 0 -1.487 1.4l-2.318-.307 1.946-10.298h9.971v2.361h-8.003l-1.071 5.379c1.195-.845 2.456-1.268 3.783-1.268 1.749 0 3.221.612 4.416 1.837 1.21 1.21 1.815 2.762 1.815 4.657 0 1.822-.532 3.39-1.596 4.701-1.283 1.633-3.032 2.449-5.248 2.449-1.822 0-3.316-.51-4.482-1.53-1.152-1.021-1.808-2.377-1.968-4.068zm16.771 5.247v-2.799h2.799v2.8zm10.802-10.867c-1.02-.38-1.779-.911-2.274-1.596-.482-.7-.722-1.53-.722-2.493 0-1.458.525-2.682 1.574-3.673s2.442-1.487 4.177-1.487c1.749 0 3.156.51 4.22 1.53 1.064 1.006 1.596 2.238 1.596 3.696 0 .933-.248 1.742-.744 2.427-.48.685-1.217 1.217-2.208 1.596 1.24.408 2.18 1.057 2.82 1.946s.963 1.953.963 3.192c0 1.72-.612 3.164-1.837 4.33-1.21 1.166-2.799 1.749-4.767 1.749-1.982 0-3.578-.583-4.788-1.75-1.21-1.18-1.815-2.645-1.815-4.394 0-1.298.328-2.384.984-3.258.67-.89 1.61-1.494 2.82-1.815zm-.481-4.176c0 .947.306 1.727.918 2.34.612.597 1.4.896 2.361.896.948 0 1.728-.3 2.34-.897a2.94 2.94 0 0 0 .918-2.186c0-.904-.313-1.662-.94-2.274-.627-.627-1.407-.94-2.34-.94s-1.712.306-2.34.918c-.611.597-.917 1.312-.917 2.143zm-.788 9.27c0 .7.16 1.378.481 2.034.336.656.831 1.166 1.487 1.53.656.35 1.363.525 2.121.525 1.181 0 2.15-.379 2.908-1.137.773-.758 1.16-1.72 1.16-2.886 0-1.18-.394-2.157-1.182-2.93-.787-.772-1.778-1.159-2.973-1.159-1.152 0-2.107.387-2.865 1.16-.758.757-1.137 1.712-1.137 2.864zm13.338-9.445c0-1.429.358-2.646 1.072-3.652.729-1.006 1.778-1.509 3.148-1.509 1.254 0 2.289.452 3.105 1.356.831.89 1.247 2.208 1.247 3.958 0 1.69-.416 2.995-1.247 3.914-.83.903-1.858 1.355-3.083 1.355-1.21 0-2.223-.444-3.039-1.333-.802-.904-1.203-2.267-1.203-4.09zm4.286-3.455c-.612 0-1.122.262-1.53.787-.394.525-.59 1.494-.59 2.908 0 1.283.203 2.187.611 2.711.408.525.911.788 1.509.788.627 0 1.137-.263 1.53-.788.409-.539.613-1.508.613-2.908 0-1.297-.204-2.2-.612-2.711-.409-.525-.919-.787-1.531-.787zm.022 19.417 10.955-21.123h1.99l-10.912 21.123zm8.659-5.445c0-1.443.357-2.66 1.071-3.652.729-1.005 1.778-1.508 3.149-1.508 1.253 0 2.288.452 3.105 1.355.83.89 1.246 2.209 1.246 3.958 0 1.691-.415 2.996-1.246 3.914s-1.859 1.378-3.083 1.378c-1.21 0-2.223-.452-3.04-1.356-.801-.918-1.202-2.281-1.202-4.089zm4.285-3.455c-.612 0-1.122.263-1.53.787-.408.525-.613 1.495-.613 2.909 0 1.282.205 2.186.613 2.71.408.526.918.788 1.53.788.627 0 1.137-.262 1.53-.787.41-.525.613-1.494.613-2.908 0-1.283-.204-2.187-.612-2.712s-.918-.787-1.53-.787z" fill="#9e9e9e"/></g><path d="m94.922 117.55h302.13l202.452-20.31" stroke="#757575"/><g fill-rule="nonzero"><path d="m602.303 97.24a2.799 2.799 0 1 0 -5.598 0 2.799 2.799 0 0 0 5.598 0" fill="#9e9e9e"/><path d="m95.731 198.724 2.384-.328c.072 1.53.364 2.58.874 3.148.51.554 1.217.831 2.121.831.656 0 1.225-.146 1.706-.437.48-.306.809-.722.984-1.246.19-.525.284-1.363.284-2.515v-13.797h2.667v13.644c0 1.676-.204 2.974-.612 3.892a4.434 4.434 0 0 1 -1.946 2.121c-.874.481-1.902.722-3.083.722-1.75 0-3.097-.503-4.045-1.51-.933-1.02-1.378-2.528-1.334-4.525zm14.453-.744 2.493-.218c.117.99.386 1.807.81 2.449.436.64 1.107 1.166 2.01 1.574.919.393 1.954.59 3.106.59 1.005 0 1.895-.146 2.667-.437.773-.306 1.349-.722 1.728-1.246s.568-1.101.568-1.728-.182-1.173-.547-1.64c-.364-.466-.962-.86-1.793-1.18-.539-.22-1.734-.547-3.585-.984-1.837-.438-3.12-.853-3.849-1.247-.962-.495-1.676-1.115-2.143-1.858a4.594 4.594 0 0 1 -.7-2.493c0-1.02.285-1.968.853-2.843.569-.874 1.407-1.537 2.515-1.99 1.108-.466 2.332-.699 3.673-.699 1.487 0 2.8.24 3.936.722 1.137.48 2.005 1.188 2.602 2.12.612.919.94 1.968.984 3.15l-2.536.196c-.131-1.268-.59-2.223-1.378-2.864-.787-.656-1.953-.984-3.498-.984-1.604 0-2.777.298-3.52.896-.73.583-1.094 1.283-1.094 2.1 0 .728.262 1.326.787 1.792.51.467 1.844.94 4.002 1.421 2.157.481 3.637.904 4.438 1.269 1.167.539 2.027 1.224 2.58 2.055.554.816.831 1.764.831 2.843 0 1.064-.306 2.07-.918 3.017s-1.494 1.684-2.646 2.208c-1.137.525-2.42.788-3.848.788-1.808 0-3.324-.263-4.548-.788-1.225-.539-2.187-1.34-2.886-2.405-.7-1.064-1.064-2.26-1.094-3.586zm31.859 12.31c-1.356-1.705-2.5-3.702-3.433-5.99a18.874 18.874 0 0 1 -1.4-7.15c0-2.173.35-4.25 1.05-6.232.816-2.304 2.077-4.6 3.783-6.888h1.77c-1.107 1.895-1.836 3.25-2.186 4.067a22.273 22.273 0 0 0 -1.312 3.936 22.782 22.782 0 0 0 -.59 5.138c0 4.373 1.363 8.746 4.089 13.12zm5.335-5.881v-20.03h4.001l4.723 14.17c.437 1.326.758 2.317.962 2.973.233-.728.59-1.8 1.072-3.214l4.788-13.928h3.564v20.029h-2.536v-16.771l-5.838 16.77h-2.384l-5.794-17.054v17.055zm33.039-1.793c-.919.772-1.8 1.319-2.646 1.64s-1.75.48-2.711.48c-1.59 0-2.814-.386-3.674-1.158-.86-.787-1.29-1.786-1.29-2.996 0-.714.16-1.363.481-1.946a4.115 4.115 0 0 1 1.29-1.4 5.997 5.997 0 0 1 1.771-.83c.481-.117 1.21-.24 2.187-.372 1.982-.233 3.44-.51 4.373-.83.015-.336.022-.555.022-.657 0-.99-.233-1.698-.7-2.12-.627-.555-1.56-.832-2.799-.832-1.166 0-2.026.205-2.58.613-.54.408-.94 1.13-1.202 2.164l-2.406-.328c.219-1.035.576-1.865 1.072-2.492.495-.642 1.217-1.13 2.164-1.465.948-.35 2.049-.525 3.302-.525 1.24 0 2.245.146 3.018.437.772.292 1.34.664 1.705 1.115.365.438.62.992.765 1.662.088.423.132 1.18.132 2.274v3.28c0 2.289.05 3.74.153 4.351.102.598.313 1.174.634 1.728h-2.58c-.248-.51-.408-1.108-.481-1.793zm-.219-5.489c-.89.365-2.23.671-4.023.919-1.006.146-1.72.313-2.143.503a2.138 2.138 0 0 0 -.962.787 2.08 2.08 0 0 0 -.35 1.18c0 .657.248 1.203.743 1.64s1.225.657 2.187.657c.947 0 1.786-.205 2.514-.613.744-.422 1.29-.991 1.64-1.705.263-.569.394-1.392.394-2.471zm6.144-9.927v-2.82h2.471v2.82zm0 17.209v-14.52h2.471v14.52zm5.576 0v-14.52h2.23v2.078c1.064-1.603 2.602-2.405 4.614-2.405.874 0 1.676.16 2.405.481.744.306 1.297.714 1.662 1.224.364.51.62 1.116.765 1.815.088.467.131 1.269.131 2.406v8.92h-2.47v-8.833c0-1.006-.095-1.757-.285-2.252-.19-.496-.532-.89-1.027-1.18-.481-.292-1.05-.438-1.706-.438-1.05 0-1.953.335-2.711 1.006-.758.656-1.137 1.91-1.137 3.76v7.938zm29.169-2.209.35 2.187a9.012 9.012 0 0 1 -1.86.218c-.888 0-1.58-.138-2.076-.415-.481-.291-.824-.663-1.028-1.115-.204-.467-.306-1.436-.306-2.908v-8.353h-1.793v-1.924h1.793v-3.586l2.449-1.487v5.073h2.47v1.924h-2.47v8.484c0 .7.044 1.152.131 1.356.087.19.226.35.415.48.205.117.489.176.853.176.263 0 .62-.037 1.072-.11zm3.017 2.209v-20.03h2.47v7.173c1.152-1.327 2.603-1.99 4.352-1.99 1.064 0 1.99.211 2.777.634.802.423 1.37 1.013 1.706 1.771.35.744.524 1.822.524 3.236v9.206h-2.449v-9.206c0-1.224-.27-2.113-.809-2.667-.539-.569-1.29-.853-2.252-.853a4.09 4.09 0 0 0 -2.077.568c-.641.38-1.1.897-1.378 1.553-.262.641-.393 1.53-.393 2.667v7.938zm15.372 0v-14.52h2.208v2.21c.569-1.036 1.093-1.713 1.574-2.034a2.696 2.696 0 0 1 1.575-.503c.83 0 1.676.262 2.536.787l-.853 2.296c-.597-.364-1.195-.547-1.793-.547-.539 0-1.027.168-1.465.503-.422.321-.729.766-.918 1.334-.262.875-.394 1.83-.394 2.864v7.61zm19.766-4.68 2.537.328c-.394 1.473-1.137 2.624-2.23 3.455-1.08.817-2.464 1.225-4.155 1.225-2.114 0-3.798-.649-5.051-1.946-1.24-1.312-1.859-3.149-1.859-5.51 0-2.45.627-4.344 1.88-5.686 1.254-1.355 2.887-2.033 4.899-2.033 1.938 0 3.52.663 4.744 1.99 1.24 1.312 1.859 3.17 1.859 5.575 0 .146-.007.365-.022.656h-10.823c.087 1.59.539 2.807 1.355 3.652.817.845 1.83 1.268 3.04 1.268.903 0 1.669-.233 2.296-.7.64-.48 1.151-1.239 1.53-2.274zm-8.09-3.98h8.112c-.102-1.209-.408-2.12-.918-2.732-.788-.948-1.808-1.422-3.062-1.422-1.122 0-2.07.38-2.842 1.137-.773.744-1.203 1.75-1.29 3.018zm23.024 6.867c-.918.772-1.8 1.319-2.645 1.64s-1.75.48-2.712.48c-1.589 0-2.813-.386-3.673-1.158-.86-.787-1.29-1.786-1.29-2.996 0-.714.16-1.363.48-1.946a4.115 4.115 0 0 1 1.29-1.4 5.997 5.997 0 0 1 1.772-.83c.481-.117 1.21-.24 2.187-.372 1.982-.233 3.44-.51 4.373-.83.014-.336.022-.555.022-.657 0-.99-.234-1.698-.7-2.12-.627-.555-1.56-.832-2.799-.832-1.166 0-2.026.205-2.58.613-.54.408-.94 1.13-1.203 2.164l-2.405-.328c.219-1.035.576-1.865 1.071-2.492.496-.642 1.218-1.13 2.165-1.465.948-.35 2.048-.525 3.302-.525 1.239 0 2.245.146 3.017.437.773.292 1.341.664 1.706 1.115.364.438.62.992.765 1.662.088.423.131 1.18.131 2.274v3.28c0 2.289.051 3.74.153 4.351.102.598.314 1.174.634 1.728h-2.58c-.247-.51-.408-1.108-.48-1.793zm-.218-5.489c-.89.365-2.23.671-4.024.919-1.005.146-1.72.313-2.142.503a2.138 2.138 0 0 0 -.963.787 2.08 2.08 0 0 0 -.35 1.18c0 .657.248 1.203.744 1.64s1.225.657 2.187.657c.947 0 1.785-.205 2.514-.613.744-.422 1.29-.991 1.64-1.705.262-.569.394-1.392.394-2.471zm15.546 7.282v-1.837c-.918 1.443-2.274 2.165-4.067 2.165a5.7 5.7 0 0 1 -3.192-.962c-.962-.642-1.713-1.531-2.252-2.668-.525-1.137-.788-2.449-.788-3.936 0-1.458.24-2.777.722-3.957.481-1.181 1.203-2.085 2.165-2.712a5.869 5.869 0 0 1 3.236-.94c.874 0 1.654.19 2.34.568a5.01 5.01 0 0 1 1.683 1.422v-7.172h2.427v20.029zm-7.784-7.238c0 1.851.394 3.236 1.18 4.155.788.918 1.713 1.377 2.778 1.377 1.078 0 1.99-.437 2.733-1.312.758-.874 1.137-2.215 1.137-4.023 0-1.983-.386-3.44-1.16-4.373-.757-.933-1.697-1.4-2.82-1.4-1.093 0-2.011.452-2.755 1.356-.729.89-1.093 2.296-1.093 4.22zm15.371 13.12h-1.749c2.712-4.374 4.067-8.747 4.067-13.12 0-1.72-.19-3.418-.568-5.094a22.273 22.273 0 0 0 -1.312-3.936c-.35-.831-1.079-2.201-2.187-4.111h1.75c1.72 2.289 2.988 4.584 3.804 6.888.7 1.982 1.05 4.06 1.05 6.231 0 2.464-.474 4.847-1.422 7.15-.933 2.289-2.077 4.286-3.433 5.992z" fill="#1a1a1a"/><path d="m109.004 239.831v2.361h-13.23a4.466 4.466 0 0 1 .285-1.705c.335-.904.875-1.793 1.618-2.668.744-.874 1.815-1.887 3.214-3.039 2.187-1.778 3.66-3.185 4.417-4.22.773-1.05 1.16-2.04 1.16-2.974 0-.976-.35-1.8-1.05-2.47s-1.611-1.006-2.734-1.006c-1.18 0-2.128.357-2.842 1.071s-1.071 1.698-1.071 2.952l-2.537-.263c.175-1.88.824-3.316 1.946-4.307 1.137-.991 2.66-1.487 4.57-1.487s3.426.532 4.548 1.596c1.123 1.064 1.684 2.384 1.684 3.958 0 .802-.168 1.596-.503 2.383-.32.773-.86 1.59-1.618 2.45-.758.845-2.02 2.018-3.783 3.52-1.487 1.239-2.442 2.077-2.864 2.514a8.39 8.39 0 0 0 -1.028 1.334zm2.492-2.93 2.45-.328c.29 1.4.772 2.405 1.442 3.017.685.613 1.516.919 2.493.919 1.152 0 2.121-.401 2.908-1.203.802-.802 1.203-1.793 1.203-2.974 0-1.137-.372-2.07-1.115-2.798-.73-.73-1.662-1.094-2.8-1.094-.466 0-1.041.088-1.727.263l.263-2.165c.16.03.291.044.393.044 1.05 0 1.99-.27 2.821-.81.846-.553 1.268-1.399 1.268-2.536 0-.903-.306-1.654-.918-2.252-.612-.597-1.4-.896-2.362-.896-.947 0-1.742.306-2.383.918-.641.598-1.05 1.494-1.224 2.69l-2.471-.438c.306-1.647.991-2.922 2.055-3.826s2.39-1.356 3.98-1.356c1.093 0 2.099.233 3.017.7.919.466 1.618 1.108 2.1 1.924.495.816.743 1.676.743 2.58a4.23 4.23 0 0 1 -.7 2.362c-.466.714-1.152 1.282-2.055 1.705 1.18.262 2.099.831 2.755 1.706.656.86.984 1.931.984 3.214 0 1.75-.642 3.236-1.925 4.46-1.268 1.21-2.878 1.815-4.832 1.815-1.764 0-3.229-.524-4.395-1.574-1.151-1.05-1.807-2.405-1.968-4.067zm16.75 5.291v-2.798h2.798v2.798zm19.94-2.361v2.361h-13.228a4.466 4.466 0 0 1 .284-1.705c.336-.904.875-1.793 1.618-2.668.744-.874 1.815-1.887 3.215-3.039 2.186-1.778 3.658-3.185 4.416-4.22.773-1.05 1.16-2.04 1.16-2.974 0-.976-.35-1.8-1.05-2.47s-1.611-1.006-2.733-1.006c-1.181 0-2.129.357-2.843 1.071s-1.071 1.698-1.071 2.952l-2.537-.263c.175-1.88.824-3.316 1.946-4.307 1.137-.991 2.66-1.487 4.57-1.487s3.426.532 4.548 1.596c1.123 1.064 1.684 2.384 1.684 3.958 0 .802-.168 1.596-.503 2.383-.32.773-.86 1.59-1.618 2.45-.758.845-2.019 2.018-3.783 3.52-1.487 1.239-2.441 2.077-2.864 2.514a8.39 8.39 0 0 0 -1.028 1.334zm2.93-12.857c0-1.429.358-2.646 1.072-3.652.729-1.005 1.779-1.508 3.149-1.508 1.253 0 2.288.452 3.105 1.355.83.89 1.246 2.209 1.246 3.958 0 1.691-.415 2.996-1.246 3.914-.831.904-1.859 1.356-3.083 1.356-1.21 0-2.223-.445-3.04-1.334-.801-.904-1.202-2.267-1.202-4.089zm4.286-3.455c-.612 0-1.122.263-1.53.787-.394.525-.59 1.495-.59 2.909 0 1.282.204 2.186.612 2.71.408.526.91.788 1.508.788.627 0 1.137-.262 1.531-.787.408-.54.612-1.509.612-2.908 0-1.298-.204-2.201-.612-2.712-.408-.524-.918-.787-1.53-.787zm.022 19.417 10.955-21.122h1.99l-10.911 21.122zm8.659-5.445c0-1.443.357-2.66 1.071-3.651.73-1.006 1.779-1.509 3.15-1.509 1.253 0 2.288.452 3.104 1.356.83.889 1.246 2.208 1.246 3.957 0 1.691-.415 2.996-1.246 3.914-.83.919-1.859 1.378-3.083 1.378-1.21 0-2.223-.452-3.04-1.356-.801-.918-1.202-2.281-1.202-4.089zm4.286-3.454c-.613 0-1.123.262-1.53.787s-.613 1.494-.613 2.908c0 1.283.204 2.186.612 2.711s.918.787 1.53.787c.628 0 1.138-.262 1.531-.787.408-.525.613-1.494.613-2.908 0-1.283-.205-2.186-.613-2.711s-.918-.787-1.53-.787z" fill="#9e9e9e"/></g><path d="m94.922 213.505h347.311" stroke="#757575"/><path d="m445.032 213.505a2.799 2.799 0 1 0 -5.597 0 2.799 2.799 0 0 0 5.597 0" fill="#9e9e9e" fill-rule="nonzero"/><path d="m966.996 443.633v-20.029h8.878c1.778 0 3.134.183 4.067.547.933.35 1.676.984 2.23 1.902.554.904.831 1.91.831 3.018 0 1.414-.46 2.61-1.378 3.586s-2.34 1.596-4.263 1.858c.7.336 1.231.67 1.596 1.006.772.7 1.509 1.59 2.208 2.668l3.477 5.444h-3.324l-2.667-4.176c-.773-1.195-1.407-2.114-1.903-2.755-.495-.641-.947-1.086-1.355-1.334a3.851 3.851 0 0 0 -1.203-.547c-.306-.058-.794-.087-1.465-.087h-3.083v8.9zm2.646-11.195h5.707c1.21 0 2.15-.124 2.82-.372.686-.247 1.203-.648 1.553-1.202a3.2 3.2 0 0 0 .547-1.793c0-.948-.343-1.728-1.028-2.34s-1.771-.918-3.258-.918h-6.34zm26.523 6.516 2.536.328c-.393 1.472-1.137 2.624-2.23 3.455-1.079.816-2.463 1.224-4.154 1.224-2.114 0-3.798-.648-5.051-1.946-1.24-1.312-1.859-3.148-1.859-5.51 0-2.449.627-4.344 1.88-5.685 1.254-1.356 2.887-2.033 4.899-2.033 1.938 0 3.52.663 4.744 1.99 1.24 1.311 1.859 3.17 1.859 5.575 0 .146-.007.364-.022.656h-10.823c.087 1.589.539 2.806 1.355 3.652.817.845 1.83 1.268 3.04 1.268.903 0 1.669-.233 2.295-.7.642-.48 1.152-1.239 1.531-2.274zm-8.09-3.98h8.112c-.102-1.21-.408-2.12-.918-2.733-.788-.947-1.808-1.42-3.062-1.42-1.122 0-2.07.378-2.842 1.136-.773.744-1.203 1.75-1.29 3.018zm12.55 4.33 2.45-.394c.13.977.51 1.728 1.137 2.252.626.51 1.501.766 2.623.766 1.123 0 1.954-.226 2.493-.678.554-.467.831-1.006.831-1.618 0-.554-.24-.991-.721-1.312-.336-.219-1.174-.496-2.515-.83-1.808-.467-3.061-.861-3.76-1.182-.686-.335-1.21-.794-1.575-1.377a3.708 3.708 0 0 1 -.547-1.968c0-.641.146-1.24.437-1.793a4.119 4.119 0 0 1 1.225-1.378c.379-.277.896-.51 1.552-.7a7.322 7.322 0 0 1 2.143-.305c1.137 0 2.136.167 2.996.502.86.321 1.494.766 1.902 1.334.408.554.692 1.298.853 2.23l-2.405.329c-.117-.744-.438-1.32-.962-1.728-.525-.423-1.261-.634-2.209-.634-1.137 0-1.946.19-2.427.569-.481.364-.722.794-.722 1.29 0 .32.102.612.307.874.19.263.503.481.94.656.248.088.97.292 2.164.612 1.75.467 2.967.853 3.652 1.16.685.29 1.225.72 1.618 1.29.394.553.59 1.253.59 2.099 0 .816-.24 1.588-.721 2.317-.481.73-1.174 1.29-2.077 1.684-.904.393-1.925.59-3.062.59-1.88 0-3.316-.393-4.307-1.18-.991-.788-1.625-1.946-1.902-3.477zm20.358 2.12.35 2.187a9.012 9.012 0 0 1 -1.86.22c-.888 0-1.58-.14-2.076-.416-.481-.292-.824-.664-1.028-1.115-.204-.467-.306-1.436-.306-2.909v-8.352h-1.793v-1.924h1.793v-3.586l2.449-1.487v5.073h2.47v1.924h-2.47v8.484c0 .7.043 1.151.13 1.355.088.19.227.35.416.481.204.117.489.175.853.175.263 0 .62-.036 1.072-.11zm10.517-5.05c0-2.682.743-4.672 2.23-5.97 1.254-1.078 2.777-1.617 4.57-1.617 1.997 0 3.622.656 4.876 1.967 1.268 1.312 1.902 3.12 1.902 5.423 0 1.866-.277 3.338-.83 4.417-.554 1.064-1.37 1.895-2.45 2.493-1.064.583-2.23.874-3.498.874-2.04 0-3.688-.648-4.942-1.946-1.239-1.312-1.858-3.192-1.858-5.641zm2.514 0c0 1.866.401 3.258 1.203 4.176.816.919 1.844 1.378 3.083 1.378 1.225 0 2.238-.46 3.04-1.378.816-.933 1.224-2.354 1.224-4.264 0-1.793-.408-3.148-1.225-4.067-.816-.932-1.829-1.399-3.039-1.399-1.239 0-2.267.467-3.083 1.4-.802.918-1.203 2.303-1.203 4.154zm14.366 7.26v-12.595h-2.165v-1.924h2.165v-1.531c0-.977.088-1.706.263-2.187a3.09 3.09 0 0 1 1.246-1.552c.598-.394 1.436-.59 2.514-.59.7 0 1.465.08 2.296.24l-.371 2.143a8.56 8.56 0 0 0 -1.444-.131c-.743 0-1.275.16-1.596.48-.306.321-.459.92-.459 1.794v1.334h2.843v1.924h-2.843v12.594zm16.203 5.553v-20.072h2.252v1.88c.524-.729 1.115-1.276 1.77-1.64.671-.379 1.48-.568 2.428-.568 1.239 0 2.332.32 3.28.962.947.641 1.662 1.545 2.143 2.711.495 1.152.743 2.42.743 3.805 0 1.486-.27 2.828-.809 4.023-.525 1.18-1.297 2.092-2.318 2.733-1.02.627-2.092.94-3.214.94-.816 0-1.552-.175-2.208-.524a5.243 5.243 0 0 1 -1.597-1.312v7.062zm2.23-12.726c0 1.866.379 3.244 1.137 4.133.758.89 1.676 1.334 2.755 1.334 1.093 0 2.026-.46 2.799-1.378.787-.918 1.18-2.354 1.18-4.307 0-1.837-.386-3.215-1.158-4.133-.758-.933-1.662-1.4-2.712-1.4s-1.982.496-2.799 1.488c-.801.976-1.202 2.398-1.202 4.263zm22.653 5.38c-.919.772-1.8 1.319-2.646 1.64a7.58 7.58 0 0 1 -2.712.48c-1.588 0-2.813-.386-3.673-1.159-.86-.787-1.29-1.785-1.29-2.995 0-.714.16-1.363.481-1.946a4.114 4.114 0 0 1 1.29-1.4 5.997 5.997 0 0 1 1.771-.83c.481-.117 1.21-.241 2.187-.372 1.982-.233 3.44-.51 4.373-.831.014-.335.022-.554.022-.656 0-.991-.233-1.698-.7-2.121-.627-.554-1.56-.83-2.799-.83-1.166 0-2.026.203-2.58.611-.54.408-.94 1.13-1.202 2.165l-2.406-.328c.219-1.035.576-1.866 1.072-2.493.495-.641 1.217-1.13 2.164-1.465.948-.35 2.049-.524 3.302-.524 1.24 0 2.245.145 3.018.437.772.291 1.34.663 1.705 1.115.365.437.62.991.765 1.662.088.423.132 1.18.132 2.274v3.28c0 2.288.05 3.739.153 4.35.102.599.313 1.174.634 1.728h-2.58c-.248-.51-.409-1.108-.481-1.793zm-.22-5.489c-.888.364-2.23.67-4.022.918-1.006.146-1.72.314-2.143.503a2.138 2.138 0 0 0 -.962.787 2.08 2.08 0 0 0 -.35 1.181c0 .656.248 1.203.743 1.64.496.437 1.225.656 2.187.656.947 0 1.786-.204 2.514-.612.744-.423 1.29-.991 1.64-1.706.263-.568.394-1.392.394-2.47zm5.686 8.484 2.383.35c.102.743.38 1.283.831 1.618.612.452 1.45.678 2.515.678 1.137 0 2.011-.226 2.624-.678.626-.452 1.05-1.086 1.268-1.902.131-.51.19-1.568.175-3.171-1.079 1.268-2.42 1.902-4.023 1.902-1.998 0-3.543-.721-4.636-2.164-1.093-1.444-1.64-3.17-1.64-5.183 0-1.384.248-2.66.743-3.826.51-1.166 1.24-2.07 2.187-2.711.962-.642 2.085-.962 3.367-.962 1.706 0 3.12.692 4.242 2.077v-1.75h2.252v12.551c0 2.26-.233 3.856-.7 4.789-.451.947-1.18 1.69-2.186 2.23-.991.554-2.216.831-3.673.831-1.72 0-3.12-.386-4.198-1.159-1.065-.772-1.575-1.946-1.531-3.52zm2.033-8.724c0 1.91.38 3.301 1.137 4.176s1.706 1.312 2.843 1.312c1.122 0 2.063-.438 2.82-1.312.773-.875 1.16-2.238 1.16-4.089 0-1.778-.394-3.12-1.181-4.023-.787-.904-1.735-1.356-2.843-1.356-1.093 0-2.026.445-2.799 1.334-.758.89-1.137 2.208-1.137 3.958zm23.747 2.842 2.536.328c-.394 1.472-1.137 2.624-2.23 3.455-1.08.816-2.464 1.224-4.155 1.224-2.114 0-3.797-.648-5.05-1.946-1.24-1.312-1.86-3.148-1.86-5.51 0-2.449.627-4.344 1.881-5.685 1.254-1.356 2.886-2.033 4.898-2.033 1.939 0 3.52.663 4.745 1.99 1.239 1.311 1.858 3.17 1.858 5.575 0 .146-.007.364-.021.656h-10.824c.088 1.589.54 2.806 1.356 3.652.816.845 1.83 1.268 3.04 1.268.903 0 1.668-.233 2.295-.7.641-.48 1.151-1.239 1.53-2.274zm-8.09-3.98h8.111c-.102-1.21-.408-2.12-.918-2.733-.787-.947-1.808-1.42-3.061-1.42-1.123 0-2.07.378-2.843 1.136-.772.744-1.202 1.75-1.29 3.018zm21.887 8.66v-20.03h2.449v20.03zm4.745-7.26c0-2.682.743-4.672 2.23-5.97 1.253-1.078 2.777-1.617 4.57-1.617 1.997 0 3.622.656 4.876 1.967 1.268 1.312 1.902 3.12 1.902 5.423 0 1.866-.277 3.338-.83 4.417-.555 1.064-1.371 1.895-2.45 2.493-1.064.583-2.23.874-3.498.874-2.041 0-3.688-.648-4.942-1.946-1.239-1.312-1.858-3.192-1.858-5.641zm2.514 0c0 1.866.4 3.258 1.203 4.176.816.919 1.844 1.378 3.083 1.378 1.224 0 2.237-.46 3.039-1.378.816-.933 1.225-2.354 1.225-4.264 0-1.793-.409-3.148-1.225-4.067-.816-.932-1.83-1.399-3.04-1.399-1.238 0-2.266.467-3.082 1.4-.802.918-1.203 2.303-1.203 4.154zm23.265 5.466c-.918.773-1.8 1.32-2.646 1.64a7.58 7.58 0 0 1 -2.711.481c-1.589 0-2.813-.386-3.673-1.159-.86-.787-1.29-1.785-1.29-2.995 0-.714.16-1.363.48-1.946a4.115 4.115 0 0 1 1.29-1.4 5.997 5.997 0 0 1 1.772-.83c.48-.117 1.21-.241 2.186-.372 1.983-.233 3.44-.51 4.373-.831.015-.335.022-.554.022-.656 0-.991-.233-1.698-.7-2.121-.626-.554-1.56-.83-2.798-.83-1.166 0-2.026.203-2.58.611-.54.408-.94 1.13-1.203 2.165l-2.405-.328c.218-1.035.576-1.866 1.071-2.493.496-.641 1.217-1.13 2.165-1.465.947-.35 2.048-.524 3.302-.524 1.239 0 2.245.145 3.017.437.773.291 1.341.663 1.706 1.115.364.437.62.991.765 1.662.087.423.131 1.18.131 2.274v3.28c0 2.288.051 3.739.153 4.35.102.599.314 1.174.634 1.728h-2.58c-.248-.51-.408-1.108-.48-1.793zm-.219-5.488c-.889.364-2.23.67-4.023.918-1.006.146-1.72.314-2.143.503a2.138 2.138 0 0 0 -.962.787 2.08 2.08 0 0 0 -.35 1.181c0 .656.248 1.203.744 1.64.495.437 1.224.656 2.186.656.948 0 1.786-.204 2.515-.612.743-.423 1.29-.991 1.64-1.706.262-.568.393-1.392.393-2.47zm15.547 7.281v-1.836c-.918 1.443-2.274 2.164-4.067 2.164a5.7 5.7 0 0 1 -3.193-.962c-.962-.641-1.712-1.53-2.252-2.667-.524-1.137-.787-2.45-.787-3.936 0-1.458.24-2.777.722-3.958.48-1.18 1.202-2.084 2.164-2.711a5.869 5.869 0 0 1 3.237-.94c.874 0 1.654.19 2.34.568a5.01 5.01 0 0 1 1.683 1.421v-7.172h2.427v20.03zm-7.784-7.237c0 1.851.393 3.236 1.18 4.154.788.919 1.713 1.378 2.777 1.378 1.08 0 1.99-.438 2.734-1.312.758-.875 1.137-2.216 1.137-4.023 0-1.983-.387-3.44-1.16-4.374-.757-.932-1.698-1.399-2.82-1.399-1.093 0-2.012.452-2.755 1.356-.729.889-1.093 2.296-1.093 4.22z" fill="#1a1a1a" fill-rule="nonzero"/><path d="m1106.062 464.012v-2.361h12.966v1.902c-1.283 1.356-2.551 3.163-3.805 5.423a32.026 32.026 0 0 0 -2.886 6.93c-.496 1.677-.816 3.514-.962 5.511h-2.515c.03-1.574.336-3.477.919-5.707.597-2.23 1.45-4.38 2.558-6.45 1.108-2.085 2.281-3.834 3.52-5.248zm24.489 17.405h-2.47v-15.678c-.584.569-1.356 1.137-2.319 1.706-.962.554-1.829.977-2.602 1.268v-2.383c1.385-.642 2.588-1.421 3.608-2.34 1.035-.933 1.764-1.83 2.187-2.69h1.596zm7.5 0v-2.799h2.799v2.799zm7.019-9.883c0-2.362.24-4.264.721-5.707.496-1.458 1.225-2.573 2.187-3.346.962-.787 2.172-1.18 3.63-1.18 1.078 0 2.019.218 2.82.656.817.422 1.487 1.042 2.012 1.858.525.817.94 1.815 1.246 2.996.306 1.166.46 2.74.46 4.723 0 2.347-.248 4.242-.744 5.685-.481 1.443-1.203 2.565-2.165 3.367-.947.787-2.157 1.18-3.63 1.18-1.938 0-3.454-.692-4.547-2.076-1.327-1.677-1.99-4.395-1.99-8.156zm2.536 0c0 3.294.38 5.488 1.137 6.581.773 1.08 1.728 1.618 2.865 1.618 1.122 0 2.07-.546 2.842-1.64.773-1.093 1.159-3.28 1.159-6.56 0-3.294-.386-5.48-1.159-6.559-.772-1.093-1.727-1.64-2.864-1.64s-2.041.481-2.712 1.443c-.845 1.21-1.268 3.462-1.268 6.757zm13.316-5.335c0-1.429.357-2.646 1.072-3.652.729-1.006 1.778-1.509 3.148-1.509 1.254 0 2.289.452 3.105 1.356.831.89 1.247 2.208 1.247 3.958 0 1.69-.416 2.995-1.247 3.914-.83.903-1.858 1.355-3.083 1.355-1.21 0-2.223-.444-3.04-1.334-.8-.903-1.202-2.266-1.202-4.088zm4.286-3.455c-.612 0-1.122.262-1.53.787-.394.525-.591 1.494-.591 2.908 0 1.283.204 2.187.612 2.711.408.525.911.788 1.509.788.627 0 1.137-.263 1.53-.788.409-.539.613-1.508.613-2.908 0-1.297-.204-2.2-.612-2.711-.409-.525-.919-.787-1.531-.787zm.022 19.416 10.955-21.122h1.99l-10.912 21.122zm8.659-5.444c0-1.443.357-2.66 1.071-3.652.729-1.005 1.778-1.508 3.149-1.508 1.253 0 2.288.452 3.105 1.355.83.89 1.246 2.209 1.246 3.958 0 1.69-.415 2.996-1.246 3.914s-1.859 1.377-3.083 1.377c-1.21 0-2.223-.451-3.04-1.355-.801-.919-1.202-2.281-1.202-4.089zm4.285-3.455c-.612 0-1.122.263-1.53.787-.408.525-.613 1.494-.613 2.908 0 1.283.205 2.187.613 2.712s.918.787 1.53.787c.627 0 1.137-.262 1.53-.787.409-.525.613-1.494.613-2.908 0-1.283-.204-2.187-.612-2.712-.408-.524-.918-.787-1.53-.787z" fill="#9e9e9e" fill-rule="nonzero"/><path d="m1184.493 452.73h-369.098" stroke="#757575"/><path d="m818.193 452.73a2.799 2.799 0 1 0 -5.597 0 2.799 2.799 0 0 0 5.597 0" fill="#9e9e9e" fill-rule="nonzero"/><path d="m97.13 55.556v-20.029h8.878c1.778 0 3.134.182 4.067.547.933.35 1.676.984 2.23 1.902.554.904.831 1.91.831 3.018 0 1.414-.459 2.609-1.377 3.586-.919.976-2.34 1.596-4.264 1.858.7.335 1.232.67 1.596 1.006.773.7 1.509 1.589 2.208 2.668l3.477 5.444h-3.323l-2.668-4.176c-.773-1.196-1.407-2.114-1.902-2.755-.496-.642-.948-1.086-1.356-1.334a3.852 3.852 0 0 0 -1.203-.547c-.306-.058-.794-.087-1.465-.087h-3.083v8.9zm2.646-11.195h5.707c1.21 0 2.15-.124 2.82-.372.686-.248 1.204-.648 1.553-1.202a3.2 3.2 0 0 0 .547-1.793c0-.948-.343-1.728-1.028-2.34s-1.77-.918-3.258-.918h-6.34zm26.523 6.516 2.537.328c-.394 1.472-1.137 2.624-2.23 3.455-1.08.816-2.464 1.224-4.155 1.224-2.114 0-3.797-.649-5.051-1.946-1.24-1.312-1.859-3.149-1.859-5.51 0-2.449.627-4.344 1.88-5.685 1.254-1.356 2.887-2.034 4.899-2.034 1.939 0 3.52.664 4.745 1.99 1.239 1.312 1.858 3.17 1.858 5.576 0 .146-.007.364-.022.656h-10.823c.087 1.589.54 2.806 1.355 3.651.817.846 1.83 1.269 3.04 1.269.904 0 1.669-.234 2.296-.7.641-.481 1.151-1.24 1.53-2.274zm-8.09-3.98h8.112c-.102-1.21-.408-2.12-.918-2.733-.787-.947-1.808-1.421-3.061-1.421-1.123 0-2.07.379-2.843 1.137-.772.743-1.203 1.75-1.29 3.017zm22.959 8.66v-1.838c-.918 1.444-2.274 2.165-4.067 2.165a5.7 5.7 0 0 1 -3.192-.962c-.963-.641-1.713-1.53-2.253-2.668-.524-1.137-.787-2.449-.787-3.935 0-1.458.24-2.777.722-3.958.48-1.18 1.202-2.085 2.164-2.711a5.869 5.869 0 0 1 3.237-.94c.874 0 1.654.189 2.34.568a5.01 5.01 0 0 1 1.683 1.421v-7.172h2.427v20.03zm-7.784-7.238c0 1.85.393 3.236 1.18 4.154.788.918 1.713 1.378 2.777 1.378 1.08 0 1.99-.438 2.734-1.312.758-.875 1.137-2.216 1.137-4.024 0-1.982-.387-3.44-1.16-4.373-.757-.933-1.697-1.4-2.82-1.4-1.093 0-2.012.453-2.755 1.357-.729.889-1.093 2.295-1.093 4.22zm23.177 7.237v-1.836c-.918 1.444-2.274 2.165-4.067 2.165a5.7 5.7 0 0 1 -3.192-.962c-.962-.641-1.713-1.53-2.252-2.668-.525-1.137-.787-2.449-.787-3.935 0-1.458.24-2.777.721-3.958.481-1.18 1.203-2.085 2.165-2.711a5.869 5.869 0 0 1 3.236-.94c.875 0 1.654.189 2.34.568a5.01 5.01 0 0 1 1.683 1.421v-7.172h2.427v20.03zm-7.784-7.237c0 1.85.394 3.236 1.18 4.154.788.918 1.714 1.378 2.778 1.378 1.078 0 1.99-.438 2.733-1.312.758-.875 1.137-2.216 1.137-4.024 0-1.982-.386-3.44-1.159-4.373-.758-.933-1.698-1.4-2.82-1.4-1.094 0-2.012.453-2.756 1.357-.728.889-1.093 2.295-1.093 4.22zm13.775-9.971v-2.82h2.471v2.82zm0 17.208v-14.519h2.471v14.52zm10.955-2.208.35 2.186a9.012 9.012 0 0 1 -1.859.219c-.889 0-1.581-.139-2.077-.416-.48-.291-.823-.663-1.028-1.115-.204-.466-.306-1.436-.306-2.908v-8.352h-1.793v-1.925h1.793v-3.586l2.45-1.486v5.072h2.47v1.925h-2.47v8.483c0 .7.043 1.152.13 1.356.088.19.226.35.416.481.204.117.488.175.853.175.262 0 .62-.036 1.071-.11zm3.717 2.208v-2.799h2.8v2.8zm17.187-5.313 2.405.306c-.263 1.676-.94 2.988-2.034 3.936-1.078.933-2.412 1.4-4.001 1.4-1.983 0-3.579-.65-4.789-1.947s-1.814-3.156-1.814-5.576c0-1.574.255-2.944.765-4.11.525-1.181 1.319-2.063 2.383-2.646a6.98 6.98 0 0 1 3.477-.897c1.574 0 2.857.401 3.848 1.203 1.006.802 1.655 1.931 1.946 3.39l-2.405.37c-.219-.976-.62-1.705-1.203-2.186-.583-.495-1.282-.743-2.099-.743-1.239 0-2.245.444-3.017 1.334-.773.889-1.16 2.288-1.16 4.198 0 1.953.373 3.374 1.116 4.264.744.874 1.72 1.312 2.93 1.312.962 0 1.764-.292 2.405-.875.656-.598 1.072-1.509 1.247-2.733zm3.607-1.946c0-2.682.744-4.672 2.23-5.97 1.254-1.078 2.778-1.618 4.57-1.618 1.998 0 3.623.656 4.877 1.968 1.268 1.312 1.902 3.12 1.902 5.423 0 1.866-.277 3.338-.83 4.417-.555 1.064-1.371 1.895-2.45 2.492-1.064.584-2.23.875-3.498.875-2.041 0-3.688-.649-4.942-1.946-1.239-1.312-1.859-3.192-1.859-5.641zm2.515 0c0 1.866.4 3.258 1.203 4.176.816.918 1.844 1.378 3.083 1.378 1.224 0 2.237-.46 3.039-1.378.816-.933 1.224-2.354 1.224-4.264 0-1.793-.408-3.148-1.224-4.067-.816-.933-1.83-1.4-3.04-1.4-1.238 0-2.266.467-3.082 1.4-.802.919-1.203 2.303-1.203 4.155zm13.775 7.26v-14.52h2.209v2.034a5.232 5.232 0 0 1 1.815-1.706c.758-.437 1.618-.656 2.58-.656 1.078 0 1.96.226 2.645.678.686.438 1.174 1.057 1.465 1.859 1.152-1.691 2.646-2.537 4.483-2.537 1.443 0 2.55.401 3.323 1.203s1.16 2.026 1.16 3.673v9.971h-2.45v-9.14c0-.991-.08-1.698-.24-2.12a2.042 2.042 0 0 0 -.875-1.05c-.408-.263-.896-.394-1.465-.394-1.02 0-1.873.343-2.558 1.028-.67.67-1.006 1.75-1.006 3.236v8.44h-2.449v-9.424c0-1.093-.204-1.91-.612-2.449-.394-.554-1.05-.83-1.968-.83-.685 0-1.326.181-1.924.546-.583.364-1.006.896-1.268 1.596-.263.7-.394 1.713-.394 3.04v7.521zm36.888 5.88c-1.356-1.705-2.5-3.702-3.433-5.99a18.874 18.874 0 0 1 -1.4-7.15c0-2.172.35-4.25 1.05-6.232.816-2.303 2.077-4.599 3.783-6.888h1.77c-1.107 1.895-1.836 3.251-2.186 4.067a22.273 22.273 0 0 0 -1.312 3.936 22.782 22.782 0 0 0 -.59 5.139c0 4.373 1.363 8.746 4.089 13.119zm13.687-5.88h-2.47v-15.68c-.583.569-1.356 1.137-2.318 1.706-.962.554-1.83.977-2.602 1.268v-2.381c1.385-.642 2.587-1.421 3.608-2.34 1.035-.933 1.764-1.83 2.186-2.69h1.596zm7.5 0v-2.8h2.8v2.8zm14.913 0v-4.79h-8.703v-2.273l9.14-12.967h2.012v12.967h2.71v2.274h-2.71v4.788zm0-7.063v-9.031l-6.276 9.03zm8.418 7.062v-20.029h4.001l4.723 14.17c.438 1.326.758 2.317.962 2.973.234-.729.59-1.8 1.072-3.214l4.788-13.929h3.564v20.03h-2.536v-16.773l-5.838 16.771h-2.383l-5.795-17.055v17.055zm23.768 0v-20.029h7.522c1.53 0 2.755.204 3.673.612a4.64 4.64 0 0 1 2.165 1.859c.524.846.787 1.727.787 2.646 0 .86-.233 1.669-.7 2.427-.452.758-1.151 1.363-2.099 1.815 1.21.364 2.143.976 2.799 1.836.656.846.984 1.852.984 3.018a5.7 5.7 0 0 1 -.612 2.624c-.394.801-.882 1.421-1.465 1.858-.584.438-1.312.773-2.187 1.006-.875.219-1.953.328-3.236.328zm2.646-11.61h4.329c1.18 0 2.026-.08 2.536-.241.67-.204 1.174-.532 1.51-.984.349-.466.524-1.057.524-1.771 0-.656-.16-1.24-.481-1.75-.32-.51-.78-.852-1.378-1.027-.583-.19-1.596-.284-3.039-.284h-4.001zm0 9.249h4.985c.86 0 1.465-.037 1.815-.11.612-.102 1.122-.277 1.53-.524.409-.263.744-.635 1.006-1.116.263-.495.394-1.064.394-1.705 0-.744-.19-1.392-.569-1.946s-.91-.94-1.596-1.16c-.685-.218-1.662-.327-2.93-.327h-4.635zm33.213-2.952 2.406.306c-.263 1.676-.94 2.988-2.034 3.936-1.079.933-2.412 1.4-4.001 1.4-1.983 0-3.579-.65-4.789-1.947s-1.815-3.156-1.815-5.576c0-1.574.255-2.944.766-4.11.524-1.181 1.319-2.063 2.383-2.646a6.98 6.98 0 0 1 3.477-.897c1.574 0 2.857.401 3.848 1.203 1.006.802 1.654 1.931 1.946 3.39l-2.405.37c-.219-.976-.62-1.705-1.203-2.186-.583-.495-1.283-.743-2.099-.743-1.239 0-2.245.444-3.017 1.334-.773.889-1.16 2.288-1.16 4.198 0 1.953.372 3.374 1.116 4.264.743.874 1.72 1.312 2.93 1.312.962 0 1.764-.292 2.405-.875.656-.598 1.071-1.509 1.246-2.733zm3.608-1.946c0-2.682.744-4.672 2.23-5.97 1.254-1.078 2.777-1.618 4.57-1.618 1.997 0 3.623.656 4.876 1.968 1.269 1.312 1.903 3.12 1.903 5.423 0 1.866-.277 3.338-.831 4.417-.554 1.064-1.37 1.895-2.45 2.492-1.063.584-2.23.875-3.498.875-2.04 0-3.688-.649-4.941-1.946-1.24-1.312-1.859-3.192-1.859-5.641zm2.515 0c0 1.866.4 3.258 1.202 4.176.817.918 1.844 1.378 3.083 1.378 1.225 0 2.238-.46 3.04-1.378.816-.933 1.224-2.354 1.224-4.264 0-1.793-.408-3.148-1.224-4.067-.817-.933-1.83-1.4-3.04-1.4-1.239 0-2.266.467-3.083 1.4-.801.919-1.202 2.303-1.202 4.155zm13.775 7.26v-14.52h2.209v2.034c.451-.7 1.056-1.268 1.814-1.706s1.618-.656 2.58-.656c1.08 0 1.961.226 2.646.678.685.438 1.174 1.057 1.465 1.859 1.152-1.691 2.646-2.537 4.483-2.537 1.443 0 2.55.401 3.323 1.203s1.16 2.026 1.16 3.673v9.971h-2.45v-9.14c0-.991-.08-1.698-.24-2.12a2.042 2.042 0 0 0 -.875-1.05c-.408-.263-.896-.394-1.465-.394-1.02 0-1.873.343-2.558 1.028-.67.67-1.006 1.75-1.006 3.236v8.44h-2.449v-9.424c0-1.093-.204-1.91-.612-2.449-.394-.554-1.05-.83-1.968-.83-.685 0-1.327.181-1.924.546-.583.364-1.006.896-1.269 1.596-.262.7-.393 1.713-.393 3.04v7.521zm23.79 5.553v-20.073h2.252v1.88c.525-.728 1.115-1.275 1.771-1.64.67-.378 1.48-.568 2.427-.568 1.24 0 2.333.321 3.28.962.948.642 1.662 1.546 2.143 2.712.495 1.151.743 2.42.743 3.804 0 1.487-.27 2.828-.809 4.024-.525 1.18-1.297 2.091-2.317 2.733-1.02.627-2.092.94-3.215.94-.816 0-1.552-.175-2.208-.525a5.243 5.243 0 0 1 -1.596-1.312v7.063zm2.23-12.726c0 1.866.38 3.244 1.137 4.133.758.889 1.677 1.334 2.755 1.334 1.093 0 2.026-.46 2.799-1.378.787-.918 1.18-2.354 1.18-4.307 0-1.837-.386-3.215-1.158-4.133-.758-.933-1.662-1.4-2.711-1.4-1.05 0-1.983.496-2.8 1.487-.801.977-1.202 2.398-1.202 4.264zm13.141 7.172v-14.519h2.209v2.209c.568-1.035 1.093-1.713 1.574-2.034a2.696 2.696 0 0 1 1.574-.503c.831 0 1.677.263 2.537.788l-.853 2.295c-.598-.364-1.195-.546-1.793-.546-.54 0-1.028.167-1.465.503-.423.32-.729.765-.918 1.333-.263.875-.394 1.83-.394 2.865v7.61zm19.767-4.68 2.536.329c-.393 1.472-1.137 2.624-2.23 3.455-1.079.816-2.464 1.224-4.154 1.224-2.114 0-3.798-.649-5.051-1.946-1.24-1.312-1.859-3.149-1.859-5.51 0-2.449.627-4.344 1.88-5.685 1.254-1.356 2.887-2.034 4.898-2.034 1.94 0 3.52.664 4.745 1.99 1.24 1.312 1.859 3.17 1.859 5.576 0 .146-.008.364-.022.656h-10.824c.088 1.589.54 2.806 1.356 3.651.816.846 1.83 1.269 3.04 1.269.903 0 1.668-.234 2.295-.7.642-.481 1.152-1.24 1.53-2.274zm-8.09-3.979h8.112c-.102-1.21-.408-2.12-.919-2.733-.787-.947-1.807-1.421-3.06-1.421-1.123 0-2.07.379-2.843 1.137-.773.743-1.203 1.75-1.29 3.017zm12.55 4.33 2.45-.394c.13.977.51 1.728 1.136 2.252.627.51 1.502.766 2.624.766 1.123 0 1.954-.226 2.493-.678.554-.467.83-1.006.83-1.618 0-.554-.24-.992-.72-1.312-.336-.219-1.174-.496-2.515-.831-1.808-.467-3.061-.86-3.761-1.18-.685-.336-1.21-.795-1.574-1.378a3.708 3.708 0 0 1 -.547-1.968c0-.642.146-1.24.437-1.793a4.12 4.12 0 0 1 1.225-1.378c.379-.277.896-.51 1.552-.7a7.322 7.322 0 0 1 2.143-.306c1.137 0 2.136.168 2.996.503.86.321 1.494.766 1.902 1.334.408.554.692 1.297.853 2.23l-2.406.328c-.116-.743-.437-1.319-.962-1.727-.524-.423-1.26-.634-2.208-.634-1.137 0-1.946.19-2.427.568-.481.365-.722.795-.722 1.29 0 .321.102.613.306.875.19.262.503.481.94.656.248.087.97.292 2.165.612 1.75.467 2.967.853 3.652 1.16.685.29 1.224.72 1.618 1.29.393.553.59 1.253.59 2.098 0 .817-.24 1.59-.721 2.318-.481.729-1.174 1.29-2.078 1.684-.903.393-1.924.59-3.06.59-1.881 0-3.317-.393-4.308-1.18s-1.626-1.947-1.903-3.477zm13.994 0 2.45-.394c.13.977.51 1.728 1.136 2.252.627.51 1.502.766 2.624.766 1.123 0 1.954-.226 2.493-.678.554-.467.83-1.006.83-1.618 0-.554-.24-.992-.72-1.312-.336-.219-1.174-.496-2.515-.831-1.808-.467-3.061-.86-3.761-1.18-.685-.336-1.21-.795-1.574-1.378a3.708 3.708 0 0 1 -.547-1.968c0-.642.146-1.24.437-1.793a4.12 4.12 0 0 1 1.225-1.378c.379-.277.896-.51 1.552-.7a7.322 7.322 0 0 1 2.143-.306c1.137 0 2.135.168 2.996.503.86.321 1.494.766 1.902 1.334.408.554.692 1.297.853 2.23l-2.406.328c-.116-.743-.437-1.319-.962-1.727-.524-.423-1.26-.634-2.208-.634-1.137 0-1.946.19-2.427.568-.481.365-.722.795-.722 1.29 0 .321.102.613.306.875.19.262.503.481.94.656.248.087.97.292 2.165.612 1.75.467 2.967.853 3.652 1.16.685.29 1.224.72 1.618 1.29.393.553.59 1.253.59 2.098 0 .817-.24 1.59-.721 2.318-.481.729-1.174 1.29-2.078 1.684-.903.393-1.924.59-3.06.59-1.881 0-3.317-.393-4.308-1.18-.991-.788-1.626-1.947-1.903-3.477zm24.927-.35 2.537.328c-.394 1.472-1.137 2.624-2.23 3.455-1.08.816-2.464 1.224-4.155 1.224-2.114 0-3.797-.649-5.051-1.946-1.24-1.312-1.859-3.149-1.859-5.51 0-2.449.627-4.344 1.88-5.685 1.254-1.356 2.887-2.034 4.899-2.034 1.938 0 3.52.664 4.745 1.99 1.239 1.312 1.858 3.17 1.858 5.576 0 .146-.007.364-.022.656h-10.823c.087 1.589.54 2.806 1.355 3.651.817.846 1.83 1.269 3.04 1.269.904 0 1.669-.234 2.296-.7.641-.481 1.151-1.24 1.53-2.274zm-8.09-3.98h8.112c-.102-1.21-.408-2.12-.918-2.733-.787-.947-1.808-1.421-3.061-1.421-1.123 0-2.07.379-2.843 1.137-.773.743-1.203 1.75-1.29 3.017zm22.959 8.66v-1.838c-.919 1.444-2.274 2.165-4.067 2.165a5.7 5.7 0 0 1 -3.193-.962c-.962-.641-1.712-1.53-2.252-2.668-.525-1.137-.787-2.449-.787-3.935 0-1.458.24-2.777.722-3.958.48-1.18 1.202-2.085 2.164-2.711a5.869 5.869 0 0 1 3.236-.94c.875 0 1.655.189 2.34.568a5.01 5.01 0 0 1 1.684 1.421v-7.172h2.427v20.03zm-7.784-7.238c0 1.85.393 3.236 1.18 4.154.788.918 1.713 1.378 2.777 1.378 1.079 0 1.99-.438 2.734-1.312.758-.875 1.137-2.216 1.137-4.024 0-1.982-.387-3.44-1.16-4.373-.757-.933-1.698-1.4-2.82-1.4-1.093 0-2.012.453-2.755 1.357-.729.889-1.093 2.295-1.093 4.22zm21.122 1.552 2.383-.328c.073 1.53.365 2.58.875 3.149.51.554 1.217.83 2.12.83.657 0 1.225-.145 1.706-.437.481-.306.81-.721.984-1.246.19-.525.285-1.363.285-2.515v-13.797h2.667v13.644c0 1.677-.204 2.974-.612 3.892a4.434 4.434 0 0 1 -1.946 2.121c-.875.481-1.902.722-3.083.722-1.75 0-3.098-.503-4.045-1.509-.933-1.02-1.378-2.529-1.334-4.526zm24.511 3.892c-.918.773-1.8 1.32-2.646 1.64a7.58 7.58 0 0 1 -2.71.481c-1.59 0-2.814-.386-3.674-1.159-.86-.787-1.29-1.785-1.29-2.995 0-.715.16-1.363.48-1.946a4.115 4.115 0 0 1 1.29-1.4 5.998 5.998 0 0 1 1.772-.83c.48-.117 1.21-.241 2.186-.372 1.983-.234 3.44-.51 4.373-.831.015-.336.022-.554.022-.656 0-.992-.233-1.699-.7-2.121-.626-.554-1.56-.831-2.798-.831-1.166 0-2.026.204-2.58.612-.54.408-.94 1.13-1.203 2.165l-2.405-.328c.219-1.035.576-1.866 1.071-2.493.496-.641 1.218-1.13 2.165-1.465.948-.35 2.048-.525 3.302-.525 1.239 0 2.245.146 3.017.438.773.291 1.341.663 1.706 1.115.364.437.62.991.765 1.662.087.422.131 1.18.131 2.274v3.28c0 2.288.051 3.738.153 4.35.102.598.314 1.174.634 1.728h-2.58c-.248-.51-.408-1.108-.48-1.793zm-.219-5.488c-.889.364-2.23.67-4.023.918-1.006.146-1.72.314-2.143.503-.408.175-.728.437-.962.787s-.35.744-.35 1.181c0 .656.248 1.203.744 1.64s1.224.656 2.186.656c.948 0 1.786-.204 2.515-.612.743-.423 1.29-.992 1.64-1.706.262-.568.393-1.392.393-2.47zm10.168 7.281-5.532-14.519h2.602l3.127 8.703c.335.933.641 1.902.918 2.908.219-.758.525-1.676.919-2.755l3.214-8.856h2.536l-5.488 14.52zm19.439-1.793c-.919.773-1.8 1.32-2.646 1.64a7.58 7.58 0 0 1 -2.712.481c-1.588 0-2.813-.386-3.673-1.159-.86-.787-1.29-1.785-1.29-2.995 0-.715.16-1.363.481-1.946a4.115 4.115 0 0 1 1.29-1.4 5.998 5.998 0 0 1 1.771-.83c.481-.117 1.21-.241 2.187-.372 1.982-.234 3.44-.51 4.373-.831.014-.336.022-.554.022-.656 0-.992-.233-1.699-.7-2.121-.627-.554-1.56-.831-2.799-.831-1.166 0-2.026.204-2.58.612-.54.408-.94 1.13-1.203 2.165l-2.405-.328c.219-1.035.576-1.866 1.072-2.493.495-.641 1.217-1.13 2.164-1.465.948-.35 2.048-.525 3.302-.525 1.24 0 2.245.146 3.018.438.772.291 1.34.663 1.705 1.115.364.437.62.991.765 1.662.088.422.132 1.18.132 2.274v3.28c0 2.288.05 3.738.153 4.35.102.598.313 1.174.634 1.728h-2.58c-.248-.51-.409-1.108-.481-1.793zm-.22-5.488c-.888.364-2.23.67-4.022.918-1.006.146-1.72.314-2.143.503-.408.175-.73.437-.962.787s-.35.744-.35 1.181c0 .656.248 1.203.743 1.64.496.437 1.225.656 2.187.656.947 0 1.786-.204 2.514-.612.744-.423 1.29-.992 1.64-1.706.263-.568.394-1.392.394-2.47zm5.555.853 2.492-.219c.117.991.387 1.808.81 2.449.437.641 1.107 1.166 2.011 1.574.918.394 1.953.59 3.105.59 1.006 0 1.895-.145 2.668-.437.772-.306 1.348-.721 1.727-1.246s.568-1.1.568-1.727-.182-1.174-.546-1.64c-.365-.467-.962-.86-1.793-1.181-.54-.219-1.735-.547-3.586-.984-1.837-.437-3.12-.853-3.848-1.246-.963-.496-1.677-1.116-2.143-1.859a4.594 4.594 0 0 1 -.7-2.493c0-1.02.284-1.968.853-2.842.568-.875 1.406-1.538 2.514-1.99 1.108-.466 2.333-.7 3.674-.7 1.487 0 2.799.24 3.936.722 1.137.481 2.004 1.188 2.602 2.12.612.92.94 1.969.984 3.15l-2.537.196c-.131-1.268-.59-2.223-1.377-2.864-.788-.656-1.954-.984-3.499-.984-1.603 0-2.777.299-3.52.896-.73.584-1.094 1.283-1.094 2.1 0 .728.263 1.326.788 1.793.51.466 1.844.94 4.001 1.42 2.157.482 3.637.905 4.439 1.269 1.166.54 2.026 1.224 2.58 2.055.554.817.83 1.764.83 2.843 0 1.064-.305 2.07-.918 3.017-.612.948-1.494 1.684-2.645 2.209-1.137.525-2.42.787-3.849.787-1.807 0-3.323-.262-4.548-.787-1.224-.54-2.186-1.341-2.886-2.405-.7-1.065-1.064-2.26-1.093-3.586zm28.25 1.115 2.405.306c-.262 1.676-.94 2.988-2.033 3.936-1.079.933-2.413 1.4-4.002 1.4-1.982 0-3.578-.65-4.788-1.947s-1.815-3.156-1.815-5.576c0-1.574.255-2.944.765-4.11.525-1.181 1.32-2.063 2.384-2.646a6.98 6.98 0 0 1 3.476-.897c1.575 0 2.857.401 3.849 1.203 1.005.802 1.654 1.931 1.946 3.39l-2.406.37c-.218-.976-.62-1.705-1.202-2.186-.583-.495-1.283-.743-2.1-.743-1.238 0-2.244.444-3.017 1.334-.772.889-1.159 2.288-1.159 4.198 0 1.953.372 3.374 1.116 4.264.743.874 1.72 1.312 2.93 1.312.962 0 1.763-.292 2.405-.875.656-.598 1.071-1.509 1.246-2.733zm4.483 5.313v-14.519h2.208v2.209c.568-1.035 1.093-1.713 1.574-2.034a2.696 2.696 0 0 1 1.575-.503c.83 0 1.676.263 2.536.788l-.853 2.295c-.597-.364-1.195-.546-1.793-.546-.54 0-1.027.167-1.465.503-.422.32-.729.765-.918 1.333-.262.875-.394 1.83-.394 2.865v7.61zm9.839-17.208v-2.82h2.47v2.82zm0 17.208v-14.519h2.47v14.52zm5.576 5.554v-20.073h2.252v1.88c.525-.728 1.115-1.275 1.771-1.64.67-.378 1.48-.568 2.427-.568 1.24 0 2.332.321 3.28.962.947.642 1.662 1.546 2.143 2.712.495 1.151.743 2.42.743 3.804 0 1.487-.27 2.828-.809 4.024-.525 1.18-1.297 2.091-2.318 2.733-1.02.627-2.091.94-3.214.94-.816 0-1.552-.175-2.208-.525a5.243 5.243 0 0 1 -1.596-1.312v7.063zm2.23-12.726c0 1.866.38 3.244 1.137 4.133.758.889 1.676 1.334 2.755 1.334 1.093 0 2.026-.46 2.799-1.378.787-.918 1.18-2.354 1.18-4.307 0-1.837-.386-3.215-1.158-4.133-.758-.933-1.662-1.4-2.712-1.4s-1.982.496-2.798 1.487c-.802.977-1.203 2.398-1.203 4.264zm18.542 4.964.35 2.186a9.011 9.011 0 0 1 -1.859.219c-.889 0-1.581-.139-2.077-.416-.48-.291-.823-.663-1.028-1.115-.204-.466-.306-1.436-.306-2.908v-8.352h-1.793v-1.925h1.793v-3.586l2.45-1.486v5.072h2.47v1.925h-2.47v8.483c0 .7.043 1.152.13 1.356.088.19.226.35.416.481.204.117.488.175.853.175.262 0 .62-.036 1.071-.11zm3.673 2.208v-2.799h2.8v2.8c0 1.034-.183 1.865-.547 2.492-.365.641-.94 1.13-1.728 1.465l-.7-1.05c.525-.218.912-.554 1.16-1.006.247-.437.386-1.071.415-1.902zm25.561 0v-1.836c-.918 1.444-2.274 2.165-4.067 2.165a5.7 5.7 0 0 1 -3.192-.962c-.962-.641-1.713-1.53-2.252-2.668-.525-1.137-.787-2.449-.787-3.935 0-1.458.24-2.777.721-3.958.481-1.18 1.203-2.085 2.165-2.711a5.869 5.869 0 0 1 3.236-.94c.875 0 1.655.189 2.34.568a5.01 5.01 0 0 1 1.683 1.421v-7.172h2.427v20.03zm-7.784-7.237c0 1.85.394 3.236 1.181 4.154s1.713 1.378 2.777 1.378c1.079 0 1.99-.438 2.733-1.312.758-.875 1.137-2.216 1.137-4.024 0-1.982-.386-3.44-1.159-4.373-.758-.933-1.698-1.4-2.82-1.4-1.094 0-2.012.453-2.755 1.357-.73.889-1.094 2.295-1.094 4.22zm23.703 2.558 2.536.328c-.394 1.472-1.137 2.624-2.23 3.455-1.079.816-2.464 1.224-4.155 1.224-2.113 0-3.797-.649-5.05-1.946-1.24-1.312-1.86-3.149-1.86-5.51 0-2.449.627-4.344 1.881-5.685 1.254-1.356 2.886-2.034 4.898-2.034 1.939 0 3.52.664 4.745 1.99 1.239 1.312 1.858 3.17 1.858 5.576 0 .146-.007.364-.021.656h-10.824c.088 1.589.54 2.806 1.356 3.651.816.846 1.83 1.269 3.039 1.269.904 0 1.67-.234 2.296-.7.641-.481 1.152-1.24 1.53-2.274zm-8.09-3.98h8.111c-.102-1.21-.408-2.12-.918-2.733-.787-.947-1.808-1.421-3.061-1.421-1.123 0-2.07.379-2.843 1.137-.772.743-1.202 1.75-1.29 3.017zm12.55 4.33 2.45-.394c.13.977.51 1.728 1.136 2.252.627.51 1.502.766 2.624.766s1.953-.226 2.493-.678c.554-.467.83-1.006.83-1.618 0-.554-.24-.992-.721-1.312-.335-.219-1.173-.496-2.515-.831-1.807-.467-3.06-.86-3.76-1.18-.686-.336-1.21-.795-1.575-1.378a3.708 3.708 0 0 1 -.546-1.968c0-.642.145-1.24.437-1.793a4.12 4.12 0 0 1 1.224-1.378c.38-.277.897-.51 1.553-.7a7.322 7.322 0 0 1 2.143-.306c1.137 0 2.135.168 2.995.503.86.321 1.494.766 1.903 1.334.408.554.692 1.297.852 2.23l-2.405.328c-.117-.743-.437-1.319-.962-1.727-.525-.423-1.26-.634-2.208-.634-1.137 0-1.946.19-2.428.568-.48.365-.721.795-.721 1.29 0 .321.102.613.306.875.19.262.503.481.94.656.248.087.97.292 2.165.612 1.75.467 2.966.853 3.651 1.16.686.29 1.225.72 1.619 1.29.393.553.59 1.253.59 2.098 0 .817-.24 1.59-.722 2.318-.48.729-1.173 1.29-2.077 1.684-.904.393-1.924.59-3.061.59-1.88 0-3.316-.393-4.308-1.18-.99-.788-1.625-1.947-1.902-3.477zm15 4.33v-20.03h2.47v11.414l5.817-5.904h3.17l-5.532 5.38 6.101 9.14h-3.04l-4.788-7.413-1.727 1.661v5.751zm19.351-2.21.35 2.187a9.011 9.011 0 0 1 -1.859.219c-.889 0-1.581-.139-2.077-.416-.481-.291-.824-.663-1.028-1.115-.204-.466-.306-1.436-.306-2.908v-8.352h-1.793v-1.925h1.793v-3.586l2.45-1.486v5.072h2.47v1.925h-2.47v8.483c0 .7.043 1.152.13 1.356.088.19.226.35.416.481.204.117.488.175.853.175.262 0 .62-.036 1.071-.11zm2.12-5.05c0-2.682.744-4.672 2.231-5.97 1.254-1.078 2.777-1.618 4.57-1.618 1.997 0 3.623.656 4.876 1.968 1.268 1.312 1.902 3.12 1.902 5.423 0 1.866-.277 3.338-.83 4.417-.554 1.064-1.37 1.895-2.45 2.492-1.064.584-2.23.875-3.498.875-2.04 0-3.688-.649-4.942-1.946-1.239-1.312-1.858-3.192-1.858-5.641zm2.515 0c0 1.866.401 3.258 1.203 4.176.816.918 1.844 1.378 3.083 1.378 1.225 0 2.238-.46 3.04-1.378.816-.933 1.224-2.354 1.224-4.264 0-1.793-.408-3.148-1.225-4.067-.816-.933-1.829-1.4-3.039-1.4-1.239 0-2.267.467-3.083 1.4-.802.919-1.203 2.303-1.203 4.155zm13.776 12.813v-20.073h2.252v1.88c.525-.728 1.115-1.275 1.771-1.64.67-.378 1.48-.568 2.427-.568 1.24 0 2.332.321 3.28.962.947.642 1.662 1.546 2.143 2.712.495 1.151.743 2.42.743 3.804 0 1.487-.27 2.828-.809 4.024-.525 1.18-1.297 2.091-2.318 2.733-1.02.627-2.091.94-3.214.94-.816 0-1.552-.175-2.208-.525a5.243 5.243 0 0 1 -1.596-1.312v7.063zm2.23-12.726c0 1.866.38 3.244 1.137 4.133.758.889 1.676 1.334 2.755 1.334 1.093 0 2.026-.46 2.799-1.378.787-.918 1.18-2.354 1.18-4.307 0-1.837-.386-3.215-1.158-4.133-.758-.933-1.662-1.4-2.712-1.4s-1.982.496-2.798 1.487c-.802.977-1.203 2.398-1.203 4.264zm14.781 13.054h-1.749c2.711-4.373 4.067-8.746 4.067-13.12 0-1.72-.19-3.418-.569-5.094a22.274 22.274 0 0 0 -1.311-3.936c-.35-.83-1.08-2.201-2.187-4.11h1.75c1.72 2.288 2.988 4.584 3.804 6.887.7 1.983 1.05 4.06 1.05 6.232 0 2.463-.474 4.847-1.422 7.15-.933 2.288-2.077 4.285-3.433 5.99z" fill="#757575" fill-rule="nonzero"/><path d="m0 597h1280v177h-1280z" fill="#000"/><g fill-rule="nonzero"><path d="m167.912 650.427c.56.8 1.27 1.44 2.13 1.92s1.81.72 2.85.72c.84 0 1.5-.2 1.98-.6s.84-.92 1.08-1.56.38-1.32.42-2.04.06-1.42.06-2.1v-28.26h12.24v30.66c0 1.52-.1 3.17-.3 4.95s-.72 3.44-1.56 4.98-2.11 2.83-3.81 3.87-4.03 1.56-6.99 1.56c-1.4 0-2.77-.13-4.11-.39s-2.67-.61-3.99-1.05zm25.19-1.92c.4.64.89 1.26 1.47 1.86s1.2 1.14 1.86 1.62 1.36.86 2.1 1.14 1.51.42 2.31.42c.84 0 1.65-.25 2.43-.75s1.17-1.25 1.17-2.25c0-.56-.08-1.04-.24-1.44s-.4-.76-.72-1.08c-.28-.32-.59-.62-.93-.9s-.71-.56-1.11-.84c-1.2-.92-2.31-1.84-3.33-2.76s-1.93-1.92-2.73-3c-.76-1.04-1.36-2.2-1.8-3.48s-.66-2.76-.66-4.44c0-1.32.23-2.84.69-4.56s1.23-3.34 2.31-4.86 2.5-2.81 4.26-3.87 3.94-1.59 6.54-1.59c1.48 0 2.98.21 4.5.63s2.92.97 4.2 1.65v13.74c-.36-.56-.81-1.13-1.35-1.71s-1.12-1.1-1.74-1.56-1.28-.84-1.98-1.14-1.41-.45-2.13-.45-1.43.24-2.13.72-1.05 1.16-1.05 2.04c0 .48.12.93.36 1.35s.52.81.84 1.17.69.69 1.11.99.79.59 1.11.87c1.28.92 2.43 1.81 3.45 2.67s1.87 1.81 2.55 2.85c.72 1.04 1.27 2.18 1.65 3.42s.57 2.72.57 4.44c0 2.12-.35 4.09-1.05 5.91s-1.68 3.42-2.94 4.8-2.78 2.46-4.56 3.24-3.73 1.17-5.85 1.17c-3.16 0-6.22-.62-9.18-1.86zm62.019-14.82c0-1.44-.38-2.71-1.14-3.81s-1.9-1.65-3.42-1.65l-.9.06v10.44c1.68.08 3.01-.32 3.99-1.2s1.47-2.16 1.47-3.84zm-17.7 30.06v-45.24h11.16c2.68 0 5.17.24 7.47.72s4.3 1.31 6 2.49 3.03 2.76 3.99 4.74 1.44 4.45 1.44 7.41-.43 5.42-1.29 7.38-2.07 3.52-3.63 4.68-3.44 1.97-5.64 2.43-4.62.65-7.26.57v14.82zm46.43-24.3c.8 0 1.51-.16 2.13-.48s1.14-.75 1.56-1.29.74-1.16.96-1.86.33-1.41.33-2.13c0-2-.54-3.43-1.62-4.29s-2.46-1.25-4.14-1.17v11.16zm5.94 24.3-6.78-18.84-.12.12.12 3.33c.04 1.1.06 2.21.06 3.33v12.06h-12.24v-45.24h11.82c2.64 0 5.08.22 7.32.66s4.17 1.23 5.79 2.37 2.89 2.68 3.81 4.62 1.38 4.41 1.38 7.41c0 2.52-.56 4.8-1.68 6.84s-2.9 3.54-5.34 4.5l9.12 18.84zm26.749-22.62c0 .48.01 1.11.03 1.89s.08 1.61.18 2.49.25 1.77.45 2.67.48 1.72.84 2.46.81 1.34 1.35 1.8 1.19.69 1.95.69 1.41-.23 1.95-.69.99-1.06 1.35-1.8.64-1.56.84-2.46.35-1.79.45-2.67.16-1.71.18-2.49.03-1.41.03-1.89-.01-1.11-.03-1.89-.08-1.61-.18-2.49-.25-1.77-.45-2.67-.48-1.72-.84-2.46-.81-1.34-1.35-1.8-1.19-.69-1.95-.69-1.41.23-1.95.69-.99 1.06-1.35 1.8-.64 1.56-.84 2.46-.35 1.79-.45 2.67-.16 1.71-.18 2.49-.03 1.41-.03 1.89zm-12.48 0c0-2.76.32-5.53.96-8.31s1.65-5.29 3.03-7.53 3.16-4.06 5.34-5.46 4.83-2.1 7.95-2.1 5.77.7 7.95 2.1 3.96 3.22 5.34 5.46 2.39 4.75 3.03 7.53.96 5.55.96 8.31-.32 5.53-.96 8.31-1.65 5.29-3.03 7.53-3.16 4.06-5.34 5.46-4.83 2.1-7.95 2.1-5.77-.7-7.95-2.1-3.96-3.22-5.34-5.46-2.39-4.75-3.03-7.53-.96-5.55-.96-8.31zm63.59-9.36c-.88-.84-1.73-1.49-2.55-1.95s-1.87-.69-3.15-.69c-1.6 0-2.91.39-3.93 1.17s-1.83 1.77-2.43 2.97-1.01 2.5-1.23 3.9-.33 2.72-.33 3.96c0 1.32.11 2.69.33 4.11s.62 2.71 1.2 3.87 1.37 2.12 2.37 2.88 2.26 1.14 3.78 1.14c1.4 0 2.58-.25 3.54-.75s1.94-1.21 2.94-2.13l-.72 12.66c-1.24.56-2.44.97-3.6 1.23s-2.42.39-3.78.39c-2.52 0-4.9-.48-7.14-1.44s-4.2-2.4-5.88-4.32-3.02-4.32-4.02-7.2-1.5-6.26-1.5-10.14c0-3.36.35-6.29 1.05-8.79s1.62-4.63 2.76-6.39 2.43-3.19 3.87-4.29 2.9-1.96 4.38-2.58 2.9-1.05 4.26-1.29 2.54-.36 3.54-.36c1.08 0 2.14.08 3.18.24s2.06.44 3.06.84zm5.63-13.26h22.74v10.68h-10.5v6.3h9.42v10.68h-9.42v6.9h10.5v10.68h-22.74zm27.169 30c.4.64.89 1.26 1.47 1.86s1.2 1.14 1.86 1.62 1.36.86 2.1 1.14 1.51.42 2.31.42c.84 0 1.65-.25 2.43-.75s1.17-1.25 1.17-2.25c0-.56-.08-1.04-.24-1.44s-.4-.76-.72-1.08c-.28-.32-.59-.62-.93-.9s-.71-.56-1.11-.84c-1.2-.92-2.31-1.84-3.33-2.76s-1.93-1.92-2.73-3c-.76-1.04-1.36-2.2-1.8-3.48s-.66-2.76-.66-4.44c0-1.32.23-2.84.69-4.56s1.23-3.34 2.31-4.86 2.5-2.81 4.26-3.87 3.94-1.59 6.54-1.59c1.48 0 2.98.21 4.5.63s2.92.97 4.2 1.65v13.74c-.36-.56-.81-1.13-1.35-1.71s-1.12-1.1-1.74-1.56-1.28-.84-1.98-1.14-1.41-.45-2.13-.45-1.43.24-2.13.72-1.05 1.16-1.05 2.04c0 .48.12.93.36 1.35s.52.81.84 1.17.69.69 1.11.99.79.59 1.11.87c1.28.92 2.43 1.81 3.45 2.67s1.87 1.81 2.55 2.85c.72 1.04 1.27 2.18 1.65 3.42s.57 2.72.57 4.44c0 2.12-.35 4.09-1.05 5.91s-1.68 3.42-2.94 4.8-2.78 2.46-4.56 3.24-3.73 1.17-5.85 1.17c-3.16 0-6.22-.62-9.18-1.86zm26.69 0c.4.64.89 1.26 1.47 1.86s1.2 1.14 1.86 1.62 1.36.86 2.1 1.14 1.51.42 2.31.42c.84 0 1.65-.25 2.43-.75s1.17-1.25 1.17-2.25c0-.56-.08-1.04-.24-1.44s-.4-.76-.72-1.08c-.28-.32-.59-.62-.93-.9s-.71-.56-1.11-.84c-1.2-.92-2.31-1.84-3.33-2.76s-1.93-1.92-2.73-3c-.76-1.04-1.36-2.2-1.8-3.48s-.66-2.76-.66-4.44c0-1.32.23-2.84.69-4.56s1.23-3.34 2.31-4.86 2.5-2.81 4.26-3.87 3.94-1.59 6.54-1.59c1.48 0 2.98.21 4.5.63s2.92.97 4.2 1.65v13.74c-.36-.56-.81-1.13-1.35-1.71s-1.12-1.1-1.74-1.56-1.28-.84-1.98-1.14-1.41-.45-2.13-.45-1.43.24-2.13.72-1.05 1.16-1.05 2.04c0 .48.12.93.36 1.35s.52.81.84 1.17.69.69 1.11.99.79.59 1.11.87c1.28.92 2.43 1.81 3.45 2.67s1.87 1.81 2.55 2.85c.72 1.04 1.27 2.18 1.65 3.42s.57 2.72.57 4.44c0 2.12-.35 4.09-1.05 5.91s-1.68 3.42-2.94 4.8-2.78 2.46-4.56 3.24-3.73 1.17-5.85 1.17c-3.16 0-6.22-.62-9.18-1.86zm27.829 15.24v-45.24h12.24v45.24zm17.81-45.24h11.64l9.78 27.24.12-.12c-.24-2.64-.53-5.24-.87-7.8s-.51-5.16-.51-7.8v-11.52h11.76v45.24h-11.76l-9.12-26.1-.12.12c.16 2.16.34 4.28.54 6.36s.3 4.2.3 6.36v13.26h-11.76zm70.069 19.08.06 1.92c0 1.88-.08 3.79-.24 5.73s-.45 3.84-.87 5.7-1 3.61-1.74 5.25-1.72 3.08-2.94 4.32-2.69 2.22-4.41 2.94-3.76 1.08-6.12 1.08c-3.32 0-6.11-.67-8.37-2.01s-4.08-3.1-5.46-5.28-2.36-4.65-2.94-7.41-.87-5.58-.87-8.46c0-2.8.29-5.61.87-8.43s1.55-5.35 2.91-7.59 3.16-4.07 5.4-5.49 5.02-2.13 8.34-2.13c1.84 0 3.55.27 5.13.81s3.02 1.31 4.32 2.31 2.45 2.18 3.45 3.54 1.84 2.86 2.52 4.5l-11.82 4.38c-.04-.44-.14-.93-.3-1.47s-.39-1.04-.69-1.5-.66-.85-1.08-1.17-.89-.48-1.41-.48c-.96 0-1.75.26-2.37.78s-1.12 1.2-1.5 2.04-.66 1.77-.84 2.79-.3 2.05-.36 3.09-.09 2.01-.09 2.91v2.19c.04.8.09 1.83.15 3.09s.22 2.49.48 3.69.7 2.23 1.32 3.09 1.53 1.29 2.73 1.29c.8 0 1.47-.21 2.01-.63s.98-.96 1.32-1.62.57-1.36.69-2.1.18-1.45.18-2.13h-4.5v-9.54z" fill="#ebc250"/><path d="m588.066 657.687h-26.94v-6.9h26.94zm0-11.7h-26.94v-6.9h26.94zm30.04 17.76v-34.8h-4.86v-10.44h17.1v45.24zm39.049-35.58c-.92 0-1.65.44-2.19 1.32s-.94 1.97-1.2 3.27-.42 2.7-.48 4.2-.09 2.89-.09 4.17.03 2.67.09 4.17.22 2.9.48 4.2.66 2.39 1.2 3.27 1.27 1.32 2.19 1.32 1.65-.44 2.19-1.32.94-1.97 1.2-3.27.42-2.7.48-4.2.09-2.89.09-4.17-.03-2.67-.09-4.17-.22-2.9-.48-4.2-.66-2.39-1.2-3.27-1.27-1.32-2.19-1.32zm0-10.44c3.16 0 5.77.75 7.83 2.25s3.7 3.4 4.92 5.7 2.07 4.82 2.55 7.56.72 5.37.72 7.89-.24 5.15-.72 7.89-1.33 5.26-2.55 7.56-2.86 4.2-4.92 5.7-4.67 2.25-7.83 2.25-5.77-.75-7.83-2.25-3.7-3.4-4.92-5.7-2.07-4.82-2.55-7.56-.72-5.37-.72-7.89.24-5.15.72-7.89 1.33-5.26 2.55-7.56 2.86-4.2 4.92-5.7 4.67-2.25 7.83-2.25zm18.77 31.68v-9.72h14.7v9.72zm30.289 1.8c.08 1.24.41 2.13.99 2.67s1.23.81 1.95.81c1.2 0 2.06-.41 2.58-1.23s.78-1.77.78-2.85c0-.92-.15-1.7-.45-2.34s-.71-1.15-1.23-1.53-1.1-.66-1.74-.84-1.3-.27-1.98-.27h-1.68v-9.54h1.5c1.64 0 2.88-.32 3.72-.96s1.26-1.86 1.26-3.66c0-.36-.04-.77-.12-1.23s-.21-.89-.39-1.29-.44-.73-.78-.99-.75-.39-1.23-.39c-.64 0-1.13.16-1.47.48s-.58.69-.72 1.11-.22.81-.24 1.17-.03.6-.03.72v.3l-11.82.06c.12-2.08.57-3.96 1.35-5.64s1.81-3.12 3.09-4.32 2.8-2.12 4.56-2.76 3.68-.96 5.76-.96c1.88 0 3.67.33 5.37.99s3.19 1.57 4.47 2.73 2.29 2.55 3.03 4.17 1.11 3.41 1.11 5.37-.47 3.78-1.41 5.46-2.29 2.98-4.05 3.9c2.08 1.08 3.62 2.55 4.62 4.41s1.5 3.95 1.5 6.27c0 2.16-.43 4.08-1.29 5.76s-2.01 3.09-3.45 4.23-3.1 2.01-4.98 2.61-3.82.9-5.82.9c-2.12 0-4.09-.33-5.91-.99s-3.4-1.6-4.74-2.82-2.38-2.7-3.12-4.44-1.07-3.69-.99-5.85h11.94zm37.79-23.04c-.92 0-1.65.44-2.19 1.32s-.94 1.97-1.2 3.27-.42 2.7-.48 4.2-.09 2.89-.09 4.17.03 2.67.09 4.17.22 2.9.48 4.2.66 2.39 1.2 3.27 1.27 1.32 2.19 1.32 1.65-.44 2.19-1.32.94-1.97 1.2-3.27.42-2.7.48-4.2.09-2.89.09-4.17-.03-2.67-.09-4.17-.22-2.9-.48-4.2-.66-2.39-1.2-3.27-1.27-1.32-2.19-1.32zm0-10.44c3.16 0 5.77.75 7.83 2.25s3.7 3.4 4.92 5.7 2.07 4.82 2.55 7.56.72 5.37.72 7.89-.24 5.15-.72 7.89-1.33 5.26-2.55 7.56-2.86 4.2-4.92 5.7-4.67 2.25-7.83 2.25-5.77-.75-7.83-2.25-3.7-3.4-4.92-5.7-2.07-4.82-2.55-7.56-.72-5.37-.72-7.89.24-5.15.72-7.89 1.33-5.26 2.55-7.56 2.86-4.2 4.92-5.7 4.67-2.25 7.83-2.25zm21.889 44.22 32.04-45.3 4.86 3.42-32.16 45.24zm30.42-12.96c-.44 0-.79.18-1.05.54s-.45.78-.57 1.26-.19.97-.21 1.47-.03.89-.03 1.17.01.67.03 1.17.09.99.21 1.47.31.9.57 1.26.61.54 1.05.54.79-.18 1.05-.54.45-.78.57-1.26.19-.97.21-1.47.03-.89.03-1.17-.01-.67-.03-1.17-.09-.99-.21-1.47-.31-.9-.57-1.26-.61-.54-1.05-.54zm0-6.66c1.6 0 3.02.3 4.26.9s2.27 1.41 3.09 2.43 1.44 2.2 1.86 3.54.63 2.75.63 4.23-.21 2.89-.63 4.23-1.04 2.52-1.86 3.54-1.85 1.83-3.09 2.43-2.66.9-4.26.9c-1.64 0-3.07-.3-4.29-.9s-2.24-1.41-3.06-2.43-1.44-2.2-1.86-3.54-.63-2.75-.63-4.23.21-2.89.63-4.23 1.04-2.52 1.86-3.54 1.84-1.83 3.06-2.43 2.65-.9 4.29-.9zm-23.94-17.94c-.44 0-.79.18-1.05.54s-.45.78-.57 1.26-.19.97-.21 1.47-.03.89-.03 1.17.01.67.03 1.17.09.99.21 1.47.31.9.57 1.26.61.54 1.05.54.79-.18 1.05-.54.45-.78.57-1.26.19-.97.21-1.47.03-.89.03-1.17-.01-.67-.03-1.17-.09-.99-.21-1.47-.31-.9-.57-1.26-.61-.54-1.05-.54zm0-6.66c1.6 0 3.02.3 4.26.9s2.27 1.41 3.09 2.43 1.44 2.2 1.86 3.54.63 2.75.63 4.23-.21 2.89-.63 4.23-1.04 2.52-1.86 3.54-1.85 1.83-3.09 2.43-2.66.9-4.26.9c-1.64 0-3.07-.3-4.29-.9s-2.24-1.41-3.06-2.43-1.44-2.2-1.86-3.54-.63-2.75-.63-4.23.21-2.89.63-4.23 1.04-2.52 1.86-3.54 1.84-1.83 3.06-2.43 2.65-.9 4.29-.9zm58.78 46.02v-34.2h-6.72v-11.04h25.98v11.04h-7.02v34.2zm22.549 0v-45.24h12.24v45.24zm50.09 0-1.14-28.44h-.12c-.28 1.68-.53 3.33-.75 4.95s-.49 3.27-.81 4.95l-3.48 18.54h-9.96l-4.26-28.44h-.12c-.04 1.68-.06 3.35-.06 5.01s-.04 3.33-.12 5.01l-1.02 18.42h-13.14l5.28-45.24h15.24l3.48 24.06h.12c.2-1.4.38-2.8.54-4.2s.38-2.8.66-4.2l2.94-15.66h15.06l4.38 45.24zm15.589-45.24h22.74v10.68h-10.5v6.3h9.42v10.68h-9.42v6.9h10.5v10.68h-22.74zm43.659 30c.4.64.89 1.26 1.47 1.86s1.2 1.14 1.86 1.62 1.36.86 2.1 1.14 1.51.42 2.31.42c.84 0 1.65-.25 2.43-.75s1.17-1.25 1.17-2.25c0-.56-.08-1.04-.24-1.44s-.4-.76-.72-1.08c-.28-.32-.59-.62-.93-.9s-.71-.56-1.11-.84c-1.2-.92-2.31-1.84-3.33-2.76s-1.93-1.92-2.73-3c-.76-1.04-1.36-2.2-1.8-3.48s-.66-2.76-.66-4.44c0-1.32.23-2.84.69-4.56s1.23-3.34 2.31-4.86 2.5-2.81 4.26-3.87 3.94-1.59 6.54-1.59c1.48 0 2.98.21 4.5.63s2.92.97 4.2 1.65v13.74c-.36-.56-.81-1.13-1.35-1.71s-1.12-1.1-1.74-1.56-1.28-.84-1.98-1.14-1.41-.45-2.13-.45-1.43.24-2.13.72-1.05 1.16-1.05 2.04c0 .48.12.93.36 1.35s.52.81.84 1.17.69.69 1.11.99.79.59 1.11.87c1.28.92 2.43 1.81 3.45 2.67s1.87 1.81 2.55 2.85c.72 1.04 1.27 2.18 1.65 3.42s.57 2.72.57 4.44c0 2.12-.35 4.09-1.05 5.91s-1.68 3.42-2.94 4.8-2.78 2.46-4.56 3.24-3.73 1.17-5.85 1.17c-3.16 0-6.22-.62-9.18-1.86zm45.53-14.82c0-1.44-.38-2.71-1.14-3.81s-1.9-1.65-3.42-1.65l-.9.06v10.44c1.68.08 3.01-.32 3.99-1.2s1.47-2.16 1.47-3.84zm-17.7 30.06v-45.24h11.16c2.68 0 5.17.24 7.47.72s4.3 1.31 6 2.49 3.03 2.76 3.99 4.74 1.44 4.45 1.44 7.41-.43 5.42-1.29 7.38-2.07 3.52-3.63 4.68-3.44 1.97-5.64 2.43-4.62.65-7.26.57v14.82zm33.41-45.24h22.74v10.68h-10.5v6.3h9.42v10.68h-9.42v6.9h10.5v10.68h-22.74zm28.309 0h11.64l9.78 27.24.12-.12c-.24-2.64-.53-5.24-.87-7.8s-.51-5.16-.51-7.8v-11.52h11.76v45.24h-11.76l-9.12-26.1-.12.12c.16 2.16.34 4.28.54 6.36s.3 4.2.3 6.36v13.26h-11.76zm41.99 45.24v-34.2h-6.72v-11.04h25.98v11.04h-7.02v34.2zm-777.024 66v-45.24h12.24v45.24zm17.81-45.24h11.64l9.78 27.24.12-.12c-.24-2.64-.53-5.24-.87-7.8s-.51-5.16-.51-7.8v-11.52h11.76v45.24h-11.76l-9.12-26.1-.12.12c.16 2.16.34 4.28.54 6.36s.3 4.2.3 6.36v13.26h-11.76zm60.758 45.24-10.38-45.24h12.84l2.88 18.6c.28 1.84.51 3.66.69 5.46s.39 3.62.63 5.46h.12c.28-1.84.5-3.66.66-5.46s.4-3.62.72-5.46l3.36-18.6h13.26l-12.3 45.24zm41.27.78c-2 0-3.92-.31-5.76-.93a15.49 15.49 0 0 1 -4.92-2.7c-1.44-1.18-2.59-2.6-3.45-4.26s-1.29-3.51-1.29-5.55c0-2.64.65-4.9 1.95-6.78s3.19-3.24 5.67-4.08v-.12c-2.28-.68-3.98-1.84-5.1-3.48s-1.68-3.66-1.68-6.06c0-1.96.39-3.74 1.17-5.34s1.84-2.95 3.18-4.05 2.89-1.95 4.65-2.55 3.62-.9 5.58-.9 3.82.3 5.58.9 3.31 1.45 4.65 2.55 2.4 2.45 3.18 4.05 1.17 3.38 1.17 5.34c0 2.4-.56 4.42-1.68 6.06s-2.82 2.8-5.1 3.48v.12c2.48.84 4.37 2.2 5.67 4.08s1.95 4.14 1.95 6.78c0 2.04-.43 3.89-1.29 5.55s-2.01 3.08-3.45 4.26-3.09 2.08-4.95 2.7-3.77.93-5.73.93zm0-37.14c-.52 0-.95.12-1.29.36s-.61.55-.81.93-.34.79-.42 1.23-.12.86-.12 1.26c0 .44.04.9.12 1.38s.21.92.39 1.32.44.74.78 1.02.79.42 1.35.42c.52 0 .96-.14 1.32-.42s.63-.62.81-1.02.31-.84.39-1.32.12-.94.12-1.38c0-.4-.04-.82-.12-1.26s-.22-.85-.42-1.23-.47-.69-.81-.93-.77-.36-1.29-.36zm0 27.48c.6 0 1.1-.16 1.5-.48s.71-.73.93-1.23.38-1.07.48-1.71.15-1.28.15-1.92c0-.44-.05-.93-.15-1.47s-.27-1.04-.51-1.5-.56-.84-.96-1.14-.88-.45-1.44-.45-1.04.15-1.44.45-.72.68-.96 1.14-.41.96-.51 1.5-.15 1.03-.15 1.47c0 .64.05 1.28.15 1.92s.26 1.21.48 1.71.53.91.93 1.23.9.48 1.5.48zm48.82-2.04c1.4 0 2.53-.39 3.39-1.17s1.52-1.74 1.98-2.88.77-2.36.93-3.66.24-2.49.24-3.57c0-1.24-.08-2.55-.24-3.93s-.47-2.65-.93-3.81-1.12-2.12-1.98-2.88-1.99-1.14-3.39-1.14zm-12.24-34.32h9.84c3.48 0 6.55.53 9.21 1.59s4.9 2.56 6.72 4.5 3.19 4.3 4.11 7.08 1.38 5.87 1.38 9.27c0 3.48-.34 6.46-1.02 8.94s-1.57 4.56-2.67 6.24-2.37 3.03-3.81 4.05-2.92 1.79-4.44 2.31-3.03.86-4.53 1.02-2.87.24-4.11.24h-10.68zm65.929 0v29.58c0 .92-.05 1.96-.15 3.12s-.33 2.35-.69 3.57a16.85 16.85 0 0 1 -1.53 3.57c-.66 1.16-1.56 2.2-2.7 3.12s-2.55 1.66-4.23 2.22-3.7.84-6.06.84-4.38-.28-6.06-.84-3.09-1.3-4.23-2.22-2.04-1.96-2.7-3.12a16.85 16.85 0 0 1 -1.53-3.57c-.36-1.22-.59-2.41-.69-3.57s-.15-2.2-.15-3.12v-29.58h12.24v30.42c0 .72.1 1.38.3 1.98.2.64.51 1.17.93 1.59s1.05.63 1.89.63c.88 0 1.53-.21 1.95-.63s.71-.93.87-1.53c.2-.64.3-1.32.3-2.04v-30.42zm18.29 20.94c.8 0 1.51-.16 2.13-.48s1.14-.75 1.56-1.29.74-1.16.96-1.86.33-1.41.33-2.13c0-2-.54-3.43-1.62-4.29s-2.46-1.25-4.14-1.17v11.16zm5.94 24.3-6.78-18.84-.12.12.12 3.33c.04 1.1.06 2.21.06 3.33v12.06h-12.24v-45.24h11.82c2.64 0 5.08.22 7.32.66s4.17 1.23 5.79 2.37 2.89 2.68 3.81 4.62 1.38 4.41 1.38 7.41c0 2.52-.56 4.8-1.68 6.84s-2.9 3.54-5.34 4.5l9.12 18.84zm15.649 0v-45.24h12.24v45.24zm17.81-45.24h11.64l9.78 27.24.12-.12c-.24-2.64-.53-5.24-.87-7.8s-.51-5.16-.51-7.8v-11.52h11.76v45.24h-11.76l-9.12-26.1-.12.12c.16 2.16.34 4.28.54 6.36s.3 4.2.3 6.36v13.26h-11.76zm70.069 19.08.06 1.92c0 1.88-.08 3.79-.24 5.73s-.45 3.84-.87 5.7-1 3.61-1.74 5.25-1.72 3.08-2.94 4.32-2.69 2.22-4.41 2.94-3.76 1.08-6.12 1.08c-3.32 0-6.11-.67-8.37-2.01s-4.08-3.1-5.46-5.28-2.36-4.65-2.94-7.41-.87-5.58-.87-8.46c0-2.8.29-5.61.87-8.43s1.55-5.35 2.91-7.59 3.16-4.07 5.4-5.49 5.02-2.13 8.34-2.13c1.84 0 3.55.27 5.13.81s3.02 1.31 4.32 2.31 2.45 2.18 3.45 3.54 1.84 2.86 2.52 4.5l-11.82 4.38c-.04-.44-.14-.93-.3-1.47s-.39-1.04-.69-1.5-.66-.85-1.08-1.17a2.27 2.27 0 0 0 -1.41-.48c-.96 0-1.75.26-2.37.78s-1.12 1.2-1.5 2.04-.66 1.77-.84 2.79-.3 2.05-.36 3.09-.09 2.01-.09 2.91v2.19c.04.8.09 1.83.15 3.09s.22 2.49.48 3.69.7 2.23 1.32 3.09 1.53 1.29 2.73 1.29c.8 0 1.47-.21 2.01-.63s.98-.96 1.32-1.62.57-1.36.69-2.1.18-1.45.18-2.13h-4.5v-9.54zm38.02-3.9c0-1.44-.38-2.71-1.14-3.81s-1.9-1.65-3.42-1.65l-.9.06v10.44c1.68.08 3.01-.32 3.99-1.2s1.47-2.16 1.47-3.84zm-17.7 30.06v-45.24h11.16c2.68 0 5.17.24 7.47.72s4.3 1.31 6 2.49 3.03 2.76 3.99 4.74 1.44 4.45 1.44 7.41-.43 5.42-1.29 7.38-2.07 3.52-3.63 4.68-3.44 1.97-5.64 2.43-4.62.65-7.26.57v14.82zm50.689-15.42-1.32-10.5c-.2-1.4-.36-2.82-.48-4.26s-.26-2.86-.42-4.26h-.12c-.2 1.4-.38 2.82-.54 4.26s-.36 2.86-.6 4.26l-1.68 10.5zm2.34 15.42-.9-5.82h-8.22l-1.02 5.82h-12.6l10.86-45.24h14.94l9.6 45.24zm47.63-26.16.06 1.92c0 1.88-.08 3.79-.24 5.73s-.45 3.84-.87 5.7-1 3.61-1.74 5.25-1.72 3.08-2.94 4.32-2.69 2.22-4.41 2.94-3.76 1.08-6.12 1.08c-3.32 0-6.11-.67-8.37-2.01s-4.08-3.1-5.46-5.28-2.36-4.65-2.94-7.41-.87-5.58-.87-8.46c0-2.8.29-5.61.87-8.43s1.55-5.35 2.91-7.59 3.16-4.07 5.4-5.49 5.02-2.13 8.34-2.13c1.84 0 3.55.27 5.13.81s3.02 1.31 4.32 2.31 2.45 2.18 3.45 3.54 1.84 2.86 2.52 4.5l-11.82 4.38c-.04-.44-.14-.93-.3-1.47s-.39-1.04-.69-1.5-.66-.85-1.08-1.17a2.27 2.27 0 0 0 -1.41-.48c-.96 0-1.75.26-2.37.78s-1.12 1.2-1.5 2.04-.66 1.77-.84 2.79-.3 2.05-.36 3.09-.09 2.01-.09 2.91v2.19c.04.8.09 1.83.15 3.09s.22 2.49.48 3.69.7 2.23 1.32 3.09 1.53 1.29 2.73 1.29c.8 0 1.47-.21 2.01-.63s.98-.96 1.32-1.62.57-1.36.69-2.1.18-1.45.18-2.13h-4.5v-9.54zm3.829-19.08h22.74v10.68h-10.5v6.3h9.42v10.68h-9.42v6.9h10.5v10.68h-22.74zm44.799 45.24v-45.24h12.24v34.56h9.18v10.68zm35.87-22.62c0 .48.01 1.11.03 1.89s.08 1.61.18 2.49.25 1.77.45 2.67.48 1.72.84 2.46.81 1.34 1.35 1.8 1.19.69 1.95.69 1.41-.23 1.95-.69.99-1.06 1.35-1.8.64-1.56.84-2.46.35-1.79.45-2.67.16-1.71.18-2.49.03-1.41.03-1.89-.01-1.11-.03-1.89-.08-1.61-.18-2.49-.25-1.77-.45-2.67-.48-1.72-.84-2.46-.81-1.34-1.35-1.8-1.19-.69-1.95-.69-1.41.23-1.95.69-.99 1.06-1.35 1.8-.64 1.56-.84 2.46-.35 1.79-.45 2.67-.16 1.71-.18 2.49-.03 1.41-.03 1.89zm-12.48 0c0-2.76.32-5.53.96-8.31s1.65-5.29 3.03-7.53 3.16-4.06 5.34-5.46 4.83-2.1 7.95-2.1 5.77.7 7.95 2.1 3.96 3.22 5.34 5.46 2.39 4.75 3.03 7.53.96 5.55.96 8.31-.32 5.53-.96 8.31-1.65 5.29-3.03 7.53a16.988 16.988 0 0 1 -5.34 5.46c-2.18 1.4-4.83 2.1-7.95 2.1s-5.77-.7-7.95-2.1-3.96-3.22-5.34-5.46-2.39-4.75-3.03-7.53-.96-5.55-.96-8.31zm56.09 7.2-1.32-10.5c-.2-1.4-.36-2.82-.48-4.26s-.26-2.86-.42-4.26h-.12c-.2 1.4-.38 2.82-.54 4.26s-.36 2.86-.6 4.26l-1.68 10.5zm2.34 15.42-.9-5.82h-8.22l-1.02 5.82h-12.6l10.86-45.24h14.94l9.6 45.24zm27.289-10.92c1.4 0 2.53-.39 3.39-1.17s1.52-1.74 1.98-2.88.77-2.36.93-3.66.24-2.49.24-3.57c0-1.24-.08-2.55-.24-3.93s-.47-2.65-.93-3.81-1.12-2.12-1.98-2.88-1.99-1.14-3.39-1.14zm-12.24-34.32h9.84c3.48 0 6.55.53 9.21 1.59s4.9 2.56 6.72 4.5 3.19 4.3 4.11 7.08 1.38 5.87 1.38 9.27c0 3.48-.34 6.46-1.02 8.94s-1.57 4.56-2.67 6.24-2.37 3.03-3.81 4.05-2.92 1.79-4.44 2.31-3.03.86-4.53 1.02-2.87.24-4.11.24h-10.68z" fill="#fff"/></g></g></svg>