<svg height="774" width="1280" xmlns="http://www.w3.org/2000/svg" xmlns:xlink="http://www.w3.org/1999/xlink"><radialGradient id="a" cx="1.278%" cy="11.378%" gradientTransform="matrix(.88636 0 0 1 .001 0)" r="118.872%"><stop offset="0" stop-color="#fff" stop-opacity=".1"/><stop offset="1" stop-color="#fff" stop-opacity="0"/></radialGradient><mask id="b" fill="#fff"><path d="m96.25 8.75-8.75 15.313-2.488 4.375h-5.907l-7.535 14.246c.404 1.75.618 3.57.618 5.441 0 10.194-6.344 18.9-15.286 22.41-.273.11-.547.209-.82.302l-7.957 14.475-7.957-14.475a17.646 17.646 0 0 1 -.81-.296c-8.952-3.549-15.295-12.244-15.295-22.416 0-1.876.218-3.702.617-5.452l-7.492-14.236h-5.906l-2.532-4.374-8.75-15.313h25.156l4.102 8.132.208.137c0-.044.076-.093.082-.137.858-9.46 8.842-16.882 18.539-16.882 9.696 0 17.68 7.421 18.539 16.898 0 .039-.12.088-.12.132l-.055-.132 4.643-8.148z" fill="#fff" fill-rule="evenodd"/></mask><mask id="c" fill="#fff"><path d="m96.25 8.75-8.75 15.313-2.488 4.375h-5.907l-7.535 14.246c.404 1.75.618 3.57.618 5.441 0 10.194-6.344 18.9-15.286 22.41-.273.11-.547.209-.82.302l-7.957 14.475-7.957-14.475a17.646 17.646 0 0 1 -.81-.296c-8.952-3.549-15.295-12.244-15.295-22.416 0-1.876.218-3.702.617-5.452l-7.492-14.236h-5.906l-2.532-4.374-8.75-15.313h25.156l4.102 8.132.208.137c0-.044.076-.093.082-.137.858-9.46 8.842-16.882 18.539-16.882 9.696 0 17.68 7.421 18.539 16.898 0 .039-.12.088-.12.132l-.055-.132 4.643-8.148z" fill="#fff" fill-rule="evenodd"/></mask><g fill="none" fill-rule="evenodd"><path d="m0 0h1280v774h-1280z" fill="#fff"/><path d="m118.53 106.44c.933 1.493 2.077 2.94 3.43 4.34s2.8 2.66 4.34 3.78a20.85 20.85 0 0 0 4.9 2.66c1.727.653 3.523.98 5.39.98 1.96 0 3.85-.583 5.67-1.75s2.73-2.917 2.73-5.25c0-1.307-.187-2.427-.56-3.36a7.459 7.459 0 0 0 -1.68-2.52 18.515 18.515 0 0 0 -2.17-2.1 41.613 41.613 0 0 0 -2.59-1.96c-2.8-2.147-5.39-4.293-7.77-6.44a47.442 47.442 0 0 1 -6.37-7c-1.773-2.427-3.173-5.133-4.2-8.12s-1.54-6.44-1.54-10.36c0-3.08.537-6.627 1.61-10.64s2.87-7.793 5.39-11.34 5.833-6.557 9.94-9.03 9.193-3.71 15.26-3.71c3.453 0 6.953.49 10.5 1.47s6.813 2.263 9.8 3.85v32.06c-.84-1.307-1.89-2.637-3.15-3.99a29.816 29.816 0 0 0 -4.06-3.64 22.813 22.813 0 0 0 -4.62-2.66c-1.633-.7-3.29-1.05-4.97-1.05s-3.337.56-4.97 1.68-2.45 2.707-2.45 4.76c0 1.12.28 2.17.84 3.15s1.213 1.89 1.96 2.73 1.61 1.61 2.59 2.31 1.843 1.377 2.59 2.03c2.987 2.147 5.67 4.223 8.05 6.23s4.363 4.223 5.95 6.65a28.697 28.697 0 0 1 3.85 7.98c.887 2.893 1.33 6.347 1.33 10.36 0 4.947-.817 9.543-2.45 13.79s-3.92 7.98-6.86 11.2-6.487 5.74-10.64 7.56-8.703 2.73-13.65 2.73c-7.373 0-14.513-1.447-21.42-4.34zm119.04-39.06c-2.053-1.96-4.037-3.477-5.95-4.55s-4.363-1.61-7.35-1.61c-3.733 0-6.79.91-9.17 2.73s-4.27 4.13-5.67 6.93-2.357 5.833-2.87 9.1-.77 6.347-.77 9.24c0 3.08.257 6.277.77 9.59s1.447 6.323 2.8 9.03 3.197 4.947 5.53 6.72 5.273 2.66 8.82 2.66c3.267 0 6.02-.583 8.26-1.75s4.527-2.823 6.86-4.97l-1.68 29.54c-2.893 1.307-5.693 2.263-8.4 2.87s-5.647.91-8.82.91c-5.88 0-11.433-1.12-16.66-3.36s-9.8-5.6-13.72-10.08-7.047-10.08-9.38-16.8-3.5-14.607-3.5-23.66c0-7.84.817-14.677 2.45-20.51s3.78-10.803 6.44-14.91 5.67-7.443 9.03-10.01 6.767-4.573 10.22-6.02 6.767-2.45 9.94-3.01 5.927-.84 8.26-.84c2.52 0 4.993.187 7.42.56a32.463 32.463 0 0 1 7.14 1.96zm39.8 17.92c1.867 0 3.523-.373 4.97-1.12a10.86 10.86 0 0 0 3.64-3.01c.98-1.26 1.727-2.707 2.24-4.34s.77-3.29.77-4.97c0-4.667-1.26-8.003-3.78-10.01s-5.74-2.917-9.66-2.73v26.04zm13.86 56.7-15.82-43.96-.28.28c.093 2.613.187 5.203.28 7.77s.14 5.157.14 7.77v28.14h-28.56v-105.56h27.58c6.16 0 11.853.513 17.08 1.54s9.73 2.87 13.51 5.53 6.743 6.253 8.89 10.78 3.22 10.29 3.22 17.29c0 5.88-1.307 11.2-3.92 15.96s-6.767 8.26-12.46 10.5l21.28 43.96zm32.8 0v-105.56h28.56v105.56zm79.14-70.14c0-3.36-.887-6.323-2.66-8.89s-4.433-3.85-7.98-3.85l-2.1.14v24.36c3.92.187 7.023-.747 9.31-2.8s3.43-5.04 3.43-8.96zm-41.3 70.14v-105.56h26.04c6.253 0 12.063.56 17.43 1.68s10.033 3.057 14 5.81 7.07 6.44 9.31 11.06 3.36 10.383 3.36 17.29-1.003 12.647-3.01 17.22-4.83 8.213-8.47 10.92-8.027 4.597-13.16 5.67-10.78 1.517-16.94 1.33v34.58zm84.74 0v-79.8h-15.68v-25.76h60.62v25.76h-16.38v79.8zm81-35.56c.933 1.493 2.077 2.94 3.43 4.34s2.8 2.66 4.34 3.78a20.85 20.85 0 0 0 4.9 2.66c1.727.653 3.523.98 5.39.98 1.96 0 3.85-.583 5.67-1.75s2.73-2.917 2.73-5.25c0-1.307-.187-2.427-.56-3.36a7.459 7.459 0 0 0 -1.68-2.52 18.515 18.515 0 0 0 -2.17-2.1 41.613 41.613 0 0 0 -2.59-1.96c-2.8-2.147-5.39-4.293-7.77-6.44a47.442 47.442 0 0 1 -6.37-7c-1.773-2.427-3.173-5.133-4.2-8.12s-1.54-6.44-1.54-10.36c0-3.08.537-6.627 1.61-10.64s2.87-7.793 5.39-11.34 5.833-6.557 9.94-9.03 9.193-3.71 15.26-3.71c3.453 0 6.953.49 10.5 1.47s6.813 2.263 9.8 3.85v32.06c-.84-1.307-1.89-2.637-3.15-3.99a29.816 29.816 0 0 0 -4.06-3.64 22.813 22.813 0 0 0 -4.62-2.66c-1.633-.7-3.29-1.05-4.97-1.05s-3.337.56-4.97 1.68-2.45 2.707-2.45 4.76c0 1.12.28 2.17.84 3.15s1.213 1.89 1.96 2.73 1.61 1.61 2.59 2.31 1.843 1.377 2.59 2.03c2.987 2.147 5.67 4.223 8.05 6.23s4.363 4.223 5.95 6.65a28.697 28.697 0 0 1 3.85 7.98c.887 2.893 1.33 6.347 1.33 10.36 0 4.947-.817 9.543-2.45 13.79s-3.92 7.98-6.86 11.2-6.487 5.74-10.64 7.56-8.703 2.73-13.65 2.73c-7.373 0-14.513-1.447-21.42-4.34zm71.72 35.56v-79.8h-15.68v-25.76h60.62v25.76h-16.38v79.8zm79.28-56.7c1.867 0 3.523-.373 4.97-1.12a10.86 10.86 0 0 0 3.64-3.01c.98-1.26 1.727-2.707 2.24-4.34s.77-3.29.77-4.97c0-4.667-1.26-8.003-3.78-10.01s-5.74-2.917-9.66-2.73v26.04zm13.86 56.7-15.82-43.96-.28.28c.093 2.613.187 5.203.28 7.77s.14 5.157.14 7.77v28.14h-28.56v-105.56h27.58c6.16 0 11.853.513 17.08 1.54s9.73 2.87 13.51 5.53 6.743 6.253 8.89 10.78 3.22 10.29 3.22 17.29c0 5.88-1.307 11.2-3.92 15.96s-6.767 8.26-12.46 10.5l21.28 43.96zm32.8-105.56h53.06v24.92h-24.5v14.7h21.98v24.92h-21.98v16.1h24.5v24.92h-53.06zm102.66 69.58-3.08-24.5c-.467-3.267-.84-6.58-1.12-9.94a325.9 325.9 0 0 0 -.98-9.94h-.28c-.467 3.267-.887 6.58-1.26 9.94s-.84 6.673-1.4 9.94l-3.92 24.5zm5.46 35.98-2.1-13.58h-19.18l-2.38 13.58h-29.4l25.34-105.56h34.86l22.4 105.56zm106.72 0-2.66-66.36h-.28c-.653 3.92-1.237 7.77-1.75 11.55s-1.143 7.63-1.89 11.55l-8.12 43.26h-23.24l-9.94-66.36h-.28c-.093 3.92-.14 7.817-.14 11.69s-.093 7.77-.28 11.69l-2.38 42.98h-30.66l12.32-105.56h35.56l8.12 56.14h.28c.467-3.267.887-6.533 1.26-9.8s.887-6.533 1.54-9.8l6.86-36.54h35.14l10.22 105.56zm32.66 0v-105.56h28.56v105.56zm37.84-105.56h27.16l22.82 63.56.28-.28a442.584 442.584 0 0 0 -2.03-18.2 138.093 138.093 0 0 1 -1.19-18.2v-26.88h27.44v105.56h-27.44l-21.28-60.9-.28.28c.373 5.04.793 9.987 1.26 14.84s.7 9.8.7 14.84v30.94h-27.44zm159.78 44.52.14 4.48c0 4.387-.187 8.843-.56 13.37a96.21 96.21 0 0 1 -2.03 13.3c-.98 4.34-2.333 8.423-4.06 12.25s-4.013 7.187-6.86 10.08-6.277 5.18-10.29 6.86-8.773 2.52-14.28 2.52c-7.747 0-14.257-1.563-19.53-4.69s-9.52-7.233-12.74-12.32-5.507-10.85-6.86-17.29a95.727 95.727 0 0 1 -2.03-19.74c0-6.533.677-13.09 2.03-19.67s3.617-12.483 6.79-17.71 7.373-9.497 12.6-12.81 11.713-4.97 19.46-4.97c4.293 0 8.283.63 11.97 1.89a34.95 34.95 0 0 1 10.08 5.39c3.033 2.333 5.717 5.087 8.05 8.26s4.293 6.673 5.88 10.5l-27.58 10.22c-.093-1.027-.327-2.17-.7-3.43a13.27 13.27 0 0 0 -1.61-3.5 10.846 10.846 0 0 0 -2.52-2.73 5.295 5.295 0 0 0 -3.29-1.12c-2.24 0-4.083.607-5.53 1.82s-2.613 2.8-3.5 4.76-1.54 4.13-1.96 6.51a62 62 0 0 0 -.84 7.21c-.14 2.427-.21 4.69-.21 6.79v5.11c.093 1.867.21 4.27.35 7.21s.513 5.81 1.12 8.61 1.633 5.203 3.08 7.21 3.57 3.01 6.37 3.01c1.867 0 3.43-.49 4.69-1.47s2.287-2.24 3.08-3.78a16.344 16.344 0 0 0 1.61-4.9c.28-1.727.42-3.383.42-4.97h-10.5v-22.26z" fill="#000" fill-rule="nonzero"/><path d="m64.722 581.332c.28.448.623.882 1.029 1.302s.84.798 1.302 1.134.952.602 1.47.798a4.531 4.531 0 0 0 1.617.294c.588 0 1.155-.175 1.701-.525s.819-.875.819-1.575c0-.392-.056-.728-.168-1.008a2.238 2.238 0 0 0 -.504-.756 5.555 5.555 0 0 0 -.651-.63 12.484 12.484 0 0 0 -.777-.588 37.993 37.993 0 0 1 -2.331-1.932 14.233 14.233 0 0 1 -1.911-2.1 9.13 9.13 0 0 1 -1.26-2.436c-.308-.896-.462-1.932-.462-3.108 0-.924.161-1.988.483-3.192a10.545 10.545 0 0 1 1.617-3.402c.756-1.064 1.75-1.967 2.982-2.709s2.758-1.113 4.578-1.113c1.036 0 2.086.147 3.15.441s2.044.679 2.94 1.155v9.618a8.594 8.594 0 0 0 -.945-1.197 8.945 8.945 0 0 0 -1.218-1.092 6.844 6.844 0 0 0 -1.386-.798 3.754 3.754 0 0 0 -1.491-.315c-.504 0-1.001.168-1.491.504s-.735.812-.735 1.428c0 .336.084.651.252.945a4.65 4.65 0 0 0 1.365 1.512c.294.21.553.413.777.609a39.708 39.708 0 0 1 2.415 1.869 9.185 9.185 0 0 1 1.785 1.995 8.61 8.61 0 0 1 1.155 2.394c.266.868.399 1.904.399 3.108 0 1.484-.245 2.863-.735 4.137a10.543 10.543 0 0 1 -2.058 3.36 9.341 9.341 0 0 1 -3.192 2.268c-1.246.546-2.611.819-4.095.819-2.212 0-4.354-.434-6.426-1.302zm35.712-11.718c-.616-.588-1.211-1.043-1.785-1.365s-1.309-.483-2.205-.483c-1.12 0-2.037.273-2.751.819a5.89 5.89 0 0 0 -1.701 2.079c-.42.84-.707 1.75-.861 2.73s-.231 1.904-.231 2.772c0 .924.077 1.883.231 2.877s.434 1.897.84 2.709a5.687 5.687 0 0 0 1.659 2.016c.7.532 1.582.798 2.646.798.98 0 1.806-.175 2.478-.525s1.358-.847 2.058-1.491l-.504 8.862c-.868.392-1.708.679-2.52.861s-1.694.273-2.646.273c-1.764 0-3.43-.336-4.998-1.008s-2.94-1.68-4.116-3.024-2.114-3.024-2.814-5.04-1.05-4.382-1.05-7.098c0-2.352.245-4.403.735-6.153s1.134-3.241 1.932-4.473 1.701-2.233 2.709-3.003 2.03-1.372 3.066-1.806 2.03-.735 2.982-.903 1.778-.252 2.478-.252c.756 0 1.498.056 2.226.168a9.739 9.739 0 0 1 2.142.588zm11.94 5.376c.56 0 1.057-.112 1.491-.336a3.258 3.258 0 0 0 1.092-.903c.294-.378.518-.812.672-1.302s.231-.987.231-1.491c0-1.4-.378-2.401-1.134-3.003s-1.722-.875-2.898-.819v7.812zm4.158 17.01-4.746-13.188-.084.084.084 2.331c.028.77.042 1.547.042 2.331v8.442h-8.568v-31.668h8.274c1.848 0 3.556.154 5.124.462s2.919.861 4.053 1.659 2.023 1.876 2.667 3.234.966 3.087.966 5.187c0 1.764-.392 3.36-1.176 4.788s-2.03 2.478-3.738 3.15l6.384 13.188zm9.84 0v-31.668h8.568v31.668zm23.742-21.042c0-1.008-.266-1.897-.798-2.667s-1.33-1.155-2.394-1.155l-.63.042v7.308c1.176.056 2.107-.224 2.793-.84s1.029-1.512 1.029-2.688zm-12.39 21.042v-31.668h7.812c1.876 0 3.619.168 5.229.504s3.01.917 4.2 1.743 2.121 1.932 2.793 3.318 1.008 3.115 1.008 5.187-.301 3.794-.903 5.166-1.449 2.464-2.541 3.276-2.408 1.379-3.948 1.701-3.234.455-5.082.399v10.374zm25.422 0v-23.94h-4.704v-7.728h18.186v7.728h-4.914v23.94zm13.872-10.668c.28.448.623.882 1.029 1.302s.84.798 1.302 1.134.952.602 1.47.798a4.531 4.531 0 0 0 1.617.294c.588 0 1.155-.175 1.701-.525s.819-.875.819-1.575c0-.392-.056-.728-.168-1.008a2.238 2.238 0 0 0 -.504-.756 5.555 5.555 0 0 0 -.651-.63 12.484 12.484 0 0 0 -.777-.588 37.993 37.993 0 0 1 -2.331-1.932 14.232 14.232 0 0 1 -1.911-2.1 9.13 9.13 0 0 1 -1.26-2.436c-.308-.896-.462-1.932-.462-3.108 0-.924.161-1.988.483-3.192a10.545 10.545 0 0 1 1.617-3.402c.756-1.064 1.75-1.967 2.982-2.709s2.758-1.113 4.578-1.113c1.036 0 2.086.147 3.15.441s2.044.679 2.94 1.155v9.618a8.594 8.594 0 0 0 -.945-1.197 8.945 8.945 0 0 0 -1.218-1.092 6.844 6.844 0 0 0 -1.386-.798 3.754 3.754 0 0 0 -1.491-.315c-.504 0-1.001.168-1.491.504s-.735.812-.735 1.428c0 .336.084.651.252.945a4.65 4.65 0 0 0 1.365 1.512c.294.21.553.413.777.609a39.708 39.708 0 0 1 2.415 1.869 9.185 9.185 0 0 1 1.785 1.995 8.61 8.61 0 0 1 1.155 2.394c.266.868.399 1.904.399 3.108 0 1.484-.245 2.863-.735 4.137a10.543 10.543 0 0 1 -2.058 3.36 9.341 9.341 0 0 1 -3.192 2.268c-1.246.546-2.611.819-4.095.819-2.212 0-4.354-.434-6.426-1.302zm40.89-.126-.924-7.35c-.14-.98-.252-1.974-.336-2.982a97.768 97.768 0 0 0 -.294-2.982h-.084c-.14.98-.266 1.974-.378 2.982a50.937 50.937 0 0 1 -.42 2.982l-1.176 7.35zm1.638 10.794-.63-4.074h-5.754l-.714 4.074h-8.82l7.602-31.668h10.458l6.72 31.668zm18.534-17.01c.56 0 1.057-.112 1.491-.336a3.258 3.258 0 0 0 1.092-.903c.294-.378.518-.812.672-1.302s.231-.987.231-1.491c0-1.4-.378-2.401-1.134-3.003s-1.722-.875-2.898-.819v7.812zm4.158 17.01-4.746-13.188-.084.084.084 2.331c.028.77.042 1.547.042 2.331v8.442h-8.568v-31.668h8.274c1.848 0 3.556.154 5.124.462s2.919.861 4.053 1.659 2.023 1.876 2.667 3.234.966 3.087.966 5.187c0 1.764-.392 3.36-1.176 4.788s-2.03 2.478-3.738 3.15l6.384 13.188zm18.954-17.01c.56 0 1.057-.112 1.491-.336a3.258 3.258 0 0 0 1.092-.903c.294-.378.518-.812.672-1.302s.231-.987.231-1.491c0-1.4-.378-2.401-1.134-3.003s-1.722-.875-2.898-.819v7.812zm4.158 17.01-4.746-13.188-.084.084.084 2.331c.028.77.042 1.547.042 2.331v8.442h-8.568v-31.668h8.274c1.848 0 3.556.154 5.124.462s2.919.861 4.053 1.659 2.023 1.876 2.667 3.234.966 3.087.966 5.187c0 1.764-.392 3.36-1.176 4.788s-2.03 2.478-3.738 3.15l6.384 13.188zm9.84 0v-31.668h8.568v31.668zm16.098 0-7.266-31.668h8.988l2.016 13.02c.196 1.288.357 2.562.483 3.822s.273 2.534.441 3.822h.084c.196-1.288.35-2.562.462-3.822s.28-2.534.504-3.822l2.352-13.02h9.282l-8.61 31.668zm17.61-31.668h15.918v7.476h-7.35v4.41h6.594v7.476h-6.594v4.83h7.35v7.476h-15.918zm29.13 31.668v-31.668h8.568v31.668zm11.352-31.668h8.148l6.846 19.068.084-.084a132.779 132.779 0 0 0 -.609-5.46 41.428 41.428 0 0 1 -.357-5.46v-8.064h8.232v31.668h-8.232l-6.384-18.27-.084.084c.112 1.512.238 2.996.378 4.452s.21 2.94.21 4.452v9.282h-8.232zm58.152 31.668-.798-19.908h-.084a116.187 116.187 0 0 0 -.525 3.465 65.964 65.964 0 0 1 -.567 3.465l-2.436 12.978h-6.972l-2.982-19.908h-.084a147.335 147.335 0 0 0 -.042 3.507c0 1.162-.028 2.331-.084 3.507l-.714 12.894h-9.198l3.696-31.668h10.668l2.436 16.842h.084c.14-.98.266-1.96.378-2.94s.266-1.96.462-2.94l2.058-10.962h10.542l3.066 31.668zm31.092-31.668v20.706c0 .644-.035 1.372-.105 2.184s-.231 1.645-.483 2.499a11.795 11.795 0 0 1 -1.071 2.499c-.462.812-1.092 1.54-1.89 2.184s-1.785 1.162-2.961 1.554-2.59.588-4.242.588-3.066-.196-4.242-.588-2.163-.91-2.961-1.554-1.428-1.372-1.89-2.184a11.795 11.795 0 0 1 -1.071-2.499 12.674 12.674 0 0 1 -.483-2.499c-.07-.812-.105-1.54-.105-2.184v-20.706h8.568v21.294c0 .504.07.966.21 1.386.14.448.357.819.651 1.113s.735.441 1.323.441c.616 0 1.071-.147 1.365-.441s.497-.651.609-1.071c.14-.448.21-.924.21-1.428v-21.294zm2.574 31.668v-31.668h8.568v24.192h6.426v7.476zm19.374 0v-23.94h-4.704v-7.728h18.186v7.728h-4.914v23.94zm14.67 0v-31.668h8.568v31.668zm23.742-21.042c0-1.008-.266-1.897-.798-2.667s-1.33-1.155-2.394-1.155l-.63.042v7.308c1.176.056 2.107-.224 2.793-.84s1.029-1.512 1.029-2.688zm-12.39 21.042v-31.668h7.812c1.876 0 3.619.168 5.229.504s3.01.917 4.2 1.743 2.121 1.932 2.793 3.318 1.008 3.115 1.008 5.187-.301 3.794-.903 5.166-1.449 2.464-2.541 3.276-2.408 1.379-3.948 1.701-3.234.455-5.082.399v10.374zm22.272 0v-31.668h8.568v24.192h6.426v7.476zm16.224-31.668h15.918v7.476h-7.35v4.41h6.594v7.476h-6.594v4.83h7.35v7.476h-15.918zm46.476 9.282c-.616-.588-1.211-1.043-1.785-1.365s-1.309-.483-2.205-.483c-1.12 0-2.037.273-2.751.819a5.89 5.89 0 0 0 -1.701 2.079c-.42.84-.707 1.75-.861 2.73s-.231 1.904-.231 2.772c0 .924.077 1.883.231 2.877s.434 1.897.84 2.709a5.687 5.687 0 0 0 1.659 2.016c.7.532 1.582.798 2.646.798.98 0 1.806-.175 2.478-.525s1.358-.847 2.058-1.491l-.504 8.862c-.868.392-1.708.679-2.52.861s-1.694.273-2.646.273c-1.764 0-3.43-.336-4.998-1.008s-2.94-1.68-4.116-3.024-2.114-3.024-2.814-5.04-1.05-4.382-1.05-7.098c0-2.352.245-4.403.735-6.153s1.134-3.241 1.932-4.473 1.701-2.233 2.709-3.003 2.03-1.372 3.066-1.806 2.03-.735 2.982-.903 1.778-.252 2.478-.252c.756 0 1.498.056 2.226.168a9.739 9.739 0 0 1 2.142.588zm15.468 22.386v-12.852h-4.074v12.852h-8.568v-31.668h8.568v11.34h4.074v-11.34h8.568v31.668zm32.688-31.668v20.706c0 .644-.035 1.372-.105 2.184s-.231 1.645-.483 2.499a11.795 11.795 0 0 1 -1.071 2.499c-.462.812-1.092 1.54-1.89 2.184s-1.785 1.162-2.961 1.554-2.59.588-4.242.588-3.066-.196-4.242-.588-2.163-.91-2.961-1.554-1.428-1.372-1.89-2.184a11.795 11.795 0 0 1 -1.071-2.499 12.674 12.674 0 0 1 -.483-2.499c-.07-.812-.105-1.54-.105-2.184v-20.706h8.568v21.294c0 .504.07.966.21 1.386.14.448.357.819.651 1.113s.735.441 1.323.441c.616 0 1.071-.147 1.365-.441s.497-.651.609-1.071c.14-.448.21-.924.21-1.428v-21.294zm2.574 0h8.148l6.846 19.068.084-.084a132.779 132.779 0 0 0 -.609-5.46 41.428 41.428 0 0 1 -.357-5.46v-8.064h8.232v31.668h-8.232l-6.384-18.27-.084.084c.112 1.512.238 2.996.378 4.452s.21 2.94.21 4.452v9.282h-8.232zm33.759 17.136h-.063v14.532h-8.568v-31.668h8.568v13.482h.042l4.704-13.482h9.03l-6.846 15.288 7.644 16.38h-9.198l-5.334-14.532zm14.943 3.864c.28.448.623.882 1.029 1.302s.84.798 1.302 1.134.952.602 1.47.798a4.531 4.531 0 0 0 1.617.294c.588 0 1.155-.175 1.701-.525s.819-.875.819-1.575c0-.392-.056-.728-.168-1.008a2.238 2.238 0 0 0 -.504-.756 5.555 5.555 0 0 0 -.651-.63 12.484 12.484 0 0 0 -.777-.588 37.993 37.993 0 0 1 -2.331-1.932 14.232 14.232 0 0 1 -1.911-2.1 9.13 9.13 0 0 1 -1.26-2.436c-.308-.896-.462-1.932-.462-3.108 0-.924.161-1.988.483-3.192a10.545 10.545 0 0 1 1.617-3.402c.756-1.064 1.75-1.967 2.982-2.709s2.758-1.113 4.578-1.113c1.036 0 2.086.147 3.15.441s2.044.679 2.94 1.155v9.618a8.594 8.594 0 0 0 -.945-1.197 8.945 8.945 0 0 0 -1.218-1.092 6.844 6.844 0 0 0 -1.386-.798 3.754 3.754 0 0 0 -1.491-.315c-.504 0-1.001.168-1.491.504s-.735.812-.735 1.428c0 .336.084.651.252.945a4.65 4.65 0 0 0 1.365 1.512c.294.21.553.413.777.609a39.708 39.708 0 0 1 2.415 1.869 9.185 9.185 0 0 1 1.785 1.995 8.61 8.61 0 0 1 1.155 2.394c.266.868.399 1.904.399 3.108 0 1.484-.245 2.863-.735 4.137a10.543 10.543 0 0 1 -2.058 3.36 9.341 9.341 0 0 1 -3.192 2.268c-1.246.546-2.611.819-4.095.819-2.212 0-4.354-.434-6.426-1.302zm22.188 11.13a4.747 4.747 0 0 1 -1.89-.378 4.446 4.446 0 0 1 -1.512-1.05 5.307 5.307 0 0 1 -1.008-1.554 4.747 4.747 0 0 1 -.378-1.89c0-.644.126-1.253.378-1.827a5.102 5.102 0 0 1 1.008-1.512c.42-.434.91-.777 1.47-1.029a4.251 4.251 0 0 1 1.764-.378c.672 0 1.316.119 1.932.357a4.697 4.697 0 0 1 1.596 1.008c.448.434.805.952 1.071 1.554s.399 1.253.399 1.953c0 .672-.126 1.295-.378 1.869a4.5 4.5 0 0 1 -1.05 1.491c-.448.42-.959.756-1.533 1.008a4.598 4.598 0 0 1 -1.869.378zm-622.92 46.538-7.266-31.668h8.988l2.016 13.02c.196 1.288.357 2.562.483 3.822s.273 2.534.441 3.822h.084a61.74 61.74 0 0 0 .462-3.822c.112-1.26.28-2.534.504-3.822l2.352-13.02h9.282l-8.61 31.668zm27.774.546c-1.4 0-2.744-.217-4.032-.651a10.843 10.843 0 0 1 -3.444-1.89 9.413 9.413 0 0 1 -2.415-2.982c-.602-1.162-.903-2.457-.903-3.885 0-1.848.455-3.43 1.365-4.746s2.233-2.268 3.969-2.856v-.084c-1.596-.476-2.786-1.288-3.57-2.436s-1.176-2.562-1.176-4.242c0-1.372.273-2.618.819-3.738a8.355 8.355 0 0 1 2.226-2.835c.938-.77 2.023-1.365 3.255-1.785s2.534-.63 3.906-.63 2.674.21 3.906.63 2.317 1.015 3.255 1.785a8.355 8.355 0 0 1 2.226 2.835c.546 1.12.819 2.366.819 3.738 0 1.68-.392 3.094-1.176 4.242s-1.974 1.96-3.57 2.436v.084c1.736.588 3.059 1.54 3.969 2.856s1.365 2.898 1.365 4.746c0 1.428-.301 2.723-.903 3.885a9.413 9.413 0 0 1 -2.415 2.982 10.798 10.798 0 0 1 -3.465 1.89 12.603 12.603 0 0 1 -4.011.651zm0-25.998c-.364 0-.665.084-.903.252a1.823 1.823 0 0 0 -.567.651c-.14.266-.238.553-.294.861a4.934 4.934 0 0 0 -.084.882c0 .308.028.63.084.966s.147.644.273.924.308.518.546.714.553.294.945.294c.364 0 .672-.098.924-.294s.441-.434.567-.714.217-.588.273-.924a5.88 5.88 0 0 0 .084-.966c0-.28-.028-.574-.084-.882a2.982 2.982 0 0 0 -.294-.861 1.823 1.823 0 0 0 -.567-.651c-.238-.168-.539-.252-.903-.252zm0 19.236c.42 0 .77-.112 1.05-.336s.497-.511.651-.861a4.81 4.81 0 0 0 .336-1.197c.07-.448.105-.896.105-1.344 0-.308-.035-.651-.105-1.029a3.72 3.72 0 0 0 -.357-1.05 2.328 2.328 0 0 0 -.672-.798 1.632 1.632 0 0 0 -1.008-.315c-.392 0-.728.105-1.008.315s-.504.476-.672.798a3.72 3.72 0 0 0 -.357 1.05c-.07.378-.105.721-.105 1.029 0 .448.035.896.105 1.344s.182.847.336 1.197.371.637.651.861.63.336 1.05.336zm22.578-4.452c.28.448.623.882 1.029 1.302s.84.798 1.302 1.134.952.602 1.47.798a4.531 4.531 0 0 0 1.617.294c.588 0 1.155-.175 1.701-.525s.819-.875.819-1.575c0-.392-.056-.728-.168-1.008a2.238 2.238 0 0 0 -.504-.756 5.555 5.555 0 0 0 -.651-.63 12.484 12.484 0 0 0 -.777-.588 37.993 37.993 0 0 1 -2.331-1.932 14.232 14.232 0 0 1 -1.911-2.1 9.13 9.13 0 0 1 -1.26-2.436c-.308-.896-.462-1.932-.462-3.108 0-.924.161-1.988.483-3.192a10.545 10.545 0 0 1 1.617-3.402c.756-1.064 1.75-1.967 2.982-2.709s2.758-1.113 4.578-1.113c1.036 0 2.086.147 3.15.441s2.044.679 2.94 1.155v9.618a8.594 8.594 0 0 0 -.945-1.197 8.945 8.945 0 0 0 -1.218-1.092 6.844 6.844 0 0 0 -1.386-.798 3.754 3.754 0 0 0 -1.491-.315c-.504 0-1.001.168-1.491.504s-.735.812-.735 1.428c0 .336.084.651.252.945a4.65 4.65 0 0 0 1.365 1.512c.294.21.553.413.777.609a39.708 39.708 0 0 1 2.415 1.869 9.185 9.185 0 0 1 1.785 1.995 8.61 8.61 0 0 1 1.155 2.394c.266.868.399 1.904.399 3.108 0 1.484-.245 2.863-.735 4.137a10.543 10.543 0 0 1 -2.058 3.36 9.341 9.341 0 0 1 -3.192 2.268c-1.246.546-2.611.819-4.095.819-2.212 0-4.354-.434-6.426-1.302zm21.516 10.668v-23.94h-4.704v-7.728h18.186v7.728h-4.914v23.94zm26.766-10.794-.924-7.35c-.14-.98-.252-1.974-.336-2.982a97.768 97.768 0 0 0 -.294-2.982h-.084c-.14.98-.266 1.974-.378 2.982a50.937 50.937 0 0 1 -.42 2.982l-1.176 7.35zm1.638 10.794-.63-4.074h-5.754l-.714 4.074h-8.82l7.602-31.668h10.458l6.72 31.668zm18.534-17.01c.56 0 1.057-.112 1.491-.336a3.258 3.258 0 0 0 1.092-.903c.294-.378.518-.812.672-1.302s.231-.987.231-1.491c0-1.4-.378-2.401-1.134-3.003s-1.722-.875-2.898-.819v7.812zm4.158 17.01-4.746-13.188-.084.084.084 2.331c.028.77.042 1.547.042 2.331v8.442h-8.568v-31.668h8.274c1.848 0 3.556.154 5.124.462s2.919.861 4.053 1.659 2.023 1.876 2.667 3.234.966 3.087.966 5.187c0 1.764-.392 3.36-1.176 4.788s-2.03 2.478-3.738 3.15l6.384 13.188zm12.99 0v-23.94h-4.704v-7.728h18.186v7.728h-4.914v23.94zm13.872-10.668c.28.448.623.882 1.029 1.302s.84.798 1.302 1.134.952.602 1.47.798a4.531 4.531 0 0 0 1.617.294c.588 0 1.155-.175 1.701-.525s.819-.875.819-1.575c0-.392-.056-.728-.168-1.008a2.238 2.238 0 0 0 -.504-.756 5.555 5.555 0 0 0 -.651-.63 12.484 12.484 0 0 0 -.777-.588 37.993 37.993 0 0 1 -2.331-1.932 14.232 14.232 0 0 1 -1.911-2.1 9.13 9.13 0 0 1 -1.26-2.436c-.308-.896-.462-1.932-.462-3.108 0-.924.161-1.988.483-3.192a10.545 10.545 0 0 1 1.617-3.402c.756-1.064 1.75-1.967 2.982-2.709s2.758-1.113 4.578-1.113c1.036 0 2.086.147 3.15.441s2.044.679 2.94 1.155v9.618a8.594 8.594 0 0 0 -.945-1.197 8.945 8.945 0 0 0 -1.218-1.092 6.844 6.844 0 0 0 -1.386-.798 3.754 3.754 0 0 0 -1.491-.315c-.504 0-1.001.168-1.491.504s-.735.812-.735 1.428c0 .336.084.651.252.945a4.65 4.65 0 0 0 1.365 1.512c.294.21.553.413.777.609a39.708 39.708 0 0 1 2.415 1.869 9.185 9.185 0 0 1 1.785 1.995 8.61 8.61 0 0 1 1.155 2.394c.266.868.399 1.904.399 3.108 0 1.484-.245 2.863-.735 4.137a10.543 10.543 0 0 1 -2.058 3.36 9.341 9.341 0 0 1 -3.192 2.268c-1.246.546-2.611.819-4.095.819-2.212 0-4.354-.434-6.426-1.302zm27.996 0c.28.448.623.882 1.029 1.302s.84.798 1.302 1.134.952.602 1.47.798a4.531 4.531 0 0 0 1.617.294c.588 0 1.155-.175 1.701-.525s.819-.875.819-1.575c0-.392-.056-.728-.168-1.008a2.238 2.238 0 0 0 -.504-.756 5.555 5.555 0 0 0 -.651-.63 12.484 12.484 0 0 0 -.777-.588 37.993 37.993 0 0 1 -2.331-1.932 14.232 14.232 0 0 1 -1.911-2.1 9.13 9.13 0 0 1 -1.26-2.436c-.308-.896-.462-1.932-.462-3.108 0-.924.161-1.988.483-3.192a10.545 10.545 0 0 1 1.617-3.402c.756-1.064 1.75-1.967 2.982-2.709s2.758-1.113 4.578-1.113c1.036 0 2.086.147 3.15.441s2.044.679 2.94 1.155v9.618a8.594 8.594 0 0 0 -.945-1.197 8.945 8.945 0 0 0 -1.218-1.092 6.844 6.844 0 0 0 -1.386-.798 3.754 3.754 0 0 0 -1.491-.315c-.504 0-1.001.168-1.491.504s-.735.812-.735 1.428c0 .336.084.651.252.945a4.65 4.65 0 0 0 1.365 1.512c.294.21.553.413.777.609a39.708 39.708 0 0 1 2.415 1.869 9.185 9.185 0 0 1 1.785 1.995 8.61 8.61 0 0 1 1.155 2.394c.266.868.399 1.904.399 3.108 0 1.484-.245 2.863-.735 4.137a10.543 10.543 0 0 1 -2.058 3.36 9.341 9.341 0 0 1 -3.192 2.268c-1.246.546-2.611.819-4.095.819-2.212 0-4.354-.434-6.426-1.302zm21.516 10.668v-23.94h-4.704v-7.728h18.186v7.728h-4.914v23.94zm23.784-17.01c.56 0 1.057-.112 1.491-.336a3.258 3.258 0 0 0 1.092-.903c.294-.378.518-.812.672-1.302s.231-.987.231-1.491c0-1.4-.378-2.401-1.134-3.003s-1.722-.875-2.898-.819v7.812zm4.158 17.01-4.746-13.188-.084.084.084 2.331c.028.77.042 1.547.042 2.331v8.442h-8.568v-31.668h8.274c1.848 0 3.556.154 5.124.462s2.919.861 4.053 1.659 2.023 1.876 2.667 3.234.966 3.087.966 5.187c0 1.764-.392 3.36-1.176 4.788s-2.03 2.478-3.738 3.15l6.384 13.188zm9.84-31.668h15.918v7.476h-7.35v4.41h6.594v7.476h-6.594v4.83h7.35v7.476h-15.918zm30.798 20.874-.924-7.35c-.14-.98-.252-1.974-.336-2.982a97.768 97.768 0 0 0 -.294-2.982h-.084c-.14.98-.266 1.974-.378 2.982a50.937 50.937 0 0 1 -.42 2.982l-1.176 7.35zm1.638 10.794-.63-4.074h-5.754l-.714 4.074h-8.82l7.602-31.668h10.458l6.72 31.668zm32.016 0-.798-19.908h-.084a116.187 116.187 0 0 0 -.525 3.465 65.964 65.964 0 0 1 -.567 3.465l-2.436 12.978h-6.972l-2.982-19.908h-.084a147.335 147.335 0 0 0 -.042 3.507c0 1.162-.028 2.331-.084 3.507l-.714 12.894h-9.198l3.696-31.668h10.668l2.436 16.842h.084c.14-.98.266-1.96.378-2.94s.266-1.96.462-2.94l2.058-10.962h10.542l3.066 31.668zm9.798 0v-31.668h8.568v31.668zm11.352-31.668h8.148l6.846 19.068.084-.084a132.779 132.779 0 0 0 -.609-5.46 41.428 41.428 0 0 1 -.357-5.46v-8.064h8.232v31.668h-8.232l-6.384-18.27-.084.084c.112 1.512.238 2.996.378 4.452s.21 2.94.21 4.452v9.282h-8.232zm47.934 13.356.042 1.344a48.79 48.79 0 0 1 -.168 4.011 28.863 28.863 0 0 1 -.609 3.99 19.182 19.182 0 0 1 -1.218 3.675 10.326 10.326 0 0 1 -2.058 3.024c-.854.868-1.883 1.554-3.087 2.058s-2.632.756-4.284.756c-2.324 0-4.277-.469-5.859-1.407a11.233 11.233 0 0 1 -3.822-3.696c-.966-1.526-1.652-3.255-2.058-5.187a28.718 28.718 0 0 1 -.609-5.922c0-1.96.203-3.927.609-5.901s1.085-3.745 2.037-5.313a11.665 11.665 0 0 1 3.78-3.843c1.568-.994 3.514-1.491 5.838-1.491 1.288 0 2.485.189 3.591.567s2.114.917 3.024 1.617 1.715 1.526 2.415 2.478 1.288 2.002 1.764 3.15l-8.274 3.066a5.375 5.375 0 0 0 -.21-1.029 3.981 3.981 0 0 0 -.483-1.05 3.254 3.254 0 0 0 -.756-.819 1.588 1.588 0 0 0 -.987-.336c-.672 0-1.225.182-1.659.546s-.784.84-1.05 1.428a8.163 8.163 0 0 0 -.588 1.953 18.6 18.6 0 0 0 -.252 2.163 35.504 35.504 0 0 0 -.063 2.037v1.533l.105 2.163c.042.882.154 1.743.336 2.583s.49 1.561.924 2.163 1.071.903 1.911.903c.56 0 1.029-.147 1.407-.441s.686-.672.924-1.134.399-.952.483-1.47a9.32 9.32 0 0 0 .126-1.491h-3.15v-6.678zm19.764 2.478c0 .336.007.777.021 1.323s.056 1.127.126 1.743.175 1.239.315 1.869.336 1.204.588 1.722.567.938.945 1.26.833.483 1.365.483.987-.161 1.365-.483.693-.742.945-1.26a7.783 7.783 0 0 0 .588-1.722c.14-.63.245-1.253.315-1.869s.112-1.197.126-1.743.021-.987.021-1.323-.007-.777-.021-1.323a20.025 20.025 0 0 0 -.126-1.743 17.963 17.963 0 0 0 -.315-1.869 7.783 7.783 0 0 0 -.588-1.722c-.252-.518-.567-.938-.945-1.26s-.833-.483-1.365-.483-.987.161-1.365.483-.693.742-.945 1.26a7.783 7.783 0 0 0 -.588 1.722c-.14.63-.245 1.253-.315 1.869s-.112 1.197-.126 1.743-.021.987-.021 1.323zm-8.736 0c0-1.932.224-3.871.672-5.817s1.155-3.703 2.121-5.271a11.892 11.892 0 0 1 3.738-3.822c1.526-.98 3.381-1.47 5.565-1.47s4.039.49 5.565 1.47a11.892 11.892 0 0 1 3.738 3.822c.966 1.568 1.673 3.325 2.121 5.271s.672 3.885.672 5.817-.224 3.871-.672 5.817-1.155 3.703-2.121 5.271a11.892 11.892 0 0 1 -3.738 3.822c-1.526.98-3.381 1.47-5.565 1.47s-4.039-.49-5.565-1.47a11.892 11.892 0 0 1 -3.738-3.822c-.966-1.568-1.673-3.325-2.121-5.271a25.857 25.857 0 0 1 -.672-5.817zm26.052-15.834h8.148l6.846 19.068.084-.084a132.779 132.779 0 0 0 -.609-5.46 41.428 41.428 0 0 1 -.357-5.46v-8.064h8.232v31.668h-8.232l-6.384-18.27-.084.084c.112 1.512.238 2.996.378 4.452s.21 2.94.21 4.452v9.282h-8.232zm42.474 9.282c-.616-.588-1.211-1.043-1.785-1.365s-1.309-.483-2.205-.483c-1.12 0-2.037.273-2.751.819a5.89 5.89 0 0 0 -1.701 2.079c-.42.84-.707 1.75-.861 2.73s-.231 1.904-.231 2.772c0 .924.077 1.883.231 2.877s.434 1.897.84 2.709a5.687 5.687 0 0 0 1.659 2.016c.7.532 1.582.798 2.646.798.98 0 1.806-.175 2.478-.525s1.358-.847 2.058-1.491l-.504 8.862c-.868.392-1.708.679-2.52.861s-1.694.273-2.646.273c-1.764 0-3.43-.336-4.998-1.008s-2.94-1.68-4.116-3.024-2.114-3.024-2.814-5.04-1.05-4.382-1.05-7.098c0-2.352.245-4.403.735-6.153s1.134-3.241 1.932-4.473 1.701-2.233 2.709-3.003 2.03-1.372 3.066-1.806 2.03-.735 2.982-.903 1.778-.252 2.478-.252c.756 0 1.498.056 2.226.168a9.739 9.739 0 0 1 2.142.588zm2.826-9.282h15.918v7.476h-7.35v4.41h6.594v7.476h-6.594v4.83h7.35v7.476h-15.918zm29.13 31.668v-31.668h8.568v31.668zm14.502 0v-23.94h-4.704v-7.728h18.186v7.728h-4.914v23.94zm20.466-16.464h-6.72l3.864-15.204h8.4zm6.606 5.796c.28.448.623.882 1.029 1.302s.84.798 1.302 1.134.952.602 1.47.798a4.531 4.531 0 0 0 1.617.294c.588 0 1.155-.175 1.701-.525s.819-.875.819-1.575c0-.392-.056-.728-.168-1.008a2.238 2.238 0 0 0 -.504-.756 5.555 5.555 0 0 0 -.651-.63 12.484 12.484 0 0 0 -.777-.588 37.993 37.993 0 0 1 -2.331-1.932 14.232 14.232 0 0 1 -1.911-2.1 9.13 9.13 0 0 1 -1.26-2.436c-.308-.896-.462-1.932-.462-3.108 0-.924.161-1.988.483-3.192a10.545 10.545 0 0 1 1.617-3.402c.756-1.064 1.75-1.967 2.982-2.709s2.758-1.113 4.578-1.113c1.036 0 2.086.147 3.15.441s2.044.679 2.94 1.155v9.618a8.594 8.594 0 0 0 -.945-1.197 8.945 8.945 0 0 0 -1.218-1.092 6.844 6.844 0 0 0 -1.386-.798 3.754 3.754 0 0 0 -1.491-.315c-.504 0-1.001.168-1.491.504s-.735.812-.735 1.428c0 .336.084.651.252.945a4.65 4.65 0 0 0 1.365 1.512c.294.21.553.413.777.609a39.708 39.708 0 0 1 2.415 1.869 9.185 9.185 0 0 1 1.785 1.995 8.61 8.61 0 0 1 1.155 2.394c.266.868.399 1.904.399 3.108 0 1.484-.245 2.863-.735 4.137a10.543 10.543 0 0 1 -2.058 3.36 9.341 9.341 0 0 1 -3.192 2.268c-1.246.546-2.611.819-4.095.819-2.212 0-4.354-.434-6.426-1.302zm27.996 0c.28.448.623.882 1.029 1.302s.84.798 1.302 1.134.952.602 1.47.798a4.531 4.531 0 0 0 1.617.294c.588 0 1.155-.175 1.701-.525s.819-.875.819-1.575c0-.392-.056-.728-.168-1.008a2.238 2.238 0 0 0 -.504-.756 5.555 5.555 0 0 0 -.651-.63 12.484 12.484 0 0 0 -.777-.588 37.993 37.993 0 0 1 -2.331-1.932 14.232 14.232 0 0 1 -1.911-2.1 9.13 9.13 0 0 1 -1.26-2.436c-.308-.896-.462-1.932-.462-3.108 0-.924.161-1.988.483-3.192a10.545 10.545 0 0 1 1.617-3.402c.756-1.064 1.75-1.967 2.982-2.709s2.758-1.113 4.578-1.113c1.036 0 2.086.147 3.15.441s2.044.679 2.94 1.155v9.618a8.594 8.594 0 0 0 -.945-1.197 8.945 8.945 0 0 0 -1.218-1.092 6.844 6.844 0 0 0 -1.386-.798 3.754 3.754 0 0 0 -1.491-.315c-.504 0-1.001.168-1.491.504s-.735.812-.735 1.428c0 .336.084.651.252.945a4.65 4.65 0 0 0 1.365 1.512c.294.21.553.413.777.609a39.708 39.708 0 0 1 2.415 1.869 9.185 9.185 0 0 1 1.785 1.995 8.61 8.61 0 0 1 1.155 2.394c.266.868.399 1.904.399 3.108 0 1.484-.245 2.863-.735 4.137a10.543 10.543 0 0 1 -2.058 3.36 9.341 9.341 0 0 1 -3.192 2.268c-1.246.546-2.611.819-4.095.819-2.212 0-4.354-.434-6.426-1.302zm18.366-21h15.918v7.476h-7.35v4.41h6.594v7.476h-6.594v4.83h7.35v7.476h-15.918zm18.702 0h15.918v7.476h-7.35v4.41h6.594v7.476h-6.594v4.83h7.35v7.476h-15.918zm18.702 0h8.148l6.846 19.068.084-.084a132.779 132.779 0 0 0 -.609-5.46 41.428 41.428 0 0 1 -.357-5.46v-8.064h8.232v31.668h-8.232l-6.384-18.27-.084.084c.112 1.512.238 2.996.378 4.452s.21 2.94.21 4.452v9.282h-8.232zm47.652 20.874-.924-7.35c-.14-.98-.252-1.974-.336-2.982a97.768 97.768 0 0 0 -.294-2.982h-.084c-.14.98-.266 1.974-.378 2.982a50.937 50.937 0 0 1 -.42 2.982l-1.176 7.35zm1.638 10.794-.63-4.074h-5.754l-.714 4.074h-8.82l7.602-31.668h10.458l6.72 31.668zm12.57 0v-23.94h-4.704v-7.728h18.186v7.728h-4.914v23.94zm25.098 0v-31.668h8.568v24.192h6.426v7.476zm16.224-31.668h15.918v7.476h-7.35v4.41h6.594v7.476h-6.594v4.83h7.35v7.476h-15.918zm30.798 20.874-.924-7.35c-.14-.98-.252-1.974-.336-2.982a97.768 97.768 0 0 0 -.294-2.982h-.084c-.14.98-.266 1.974-.378 2.982a50.937 50.937 0 0 1 -.42 2.982l-1.176 7.35zm1.638 10.794-.63-4.074h-5.754l-.714 4.074h-8.82l7.602-31.668h10.458l6.72 31.668zm8.622-10.668c.28.448.623.882 1.029 1.302s.84.798 1.302 1.134.952.602 1.47.798a4.531 4.531 0 0 0 1.617.294c.588 0 1.155-.175 1.701-.525s.819-.875.819-1.575c0-.392-.056-.728-.168-1.008a2.238 2.238 0 0 0 -.504-.756 5.555 5.555 0 0 0 -.651-.63 12.484 12.484 0 0 0 -.777-.588 37.993 37.993 0 0 1 -2.331-1.932 14.232 14.232 0 0 1 -1.911-2.1 9.13 9.13 0 0 1 -1.26-2.436c-.308-.896-.462-1.932-.462-3.108 0-.924.161-1.988.483-3.192a10.545 10.545 0 0 1 1.617-3.402c.756-1.064 1.75-1.967 2.982-2.709s2.758-1.113 4.578-1.113c1.036 0 2.086.147 3.15.441s2.044.679 2.94 1.155v9.618a8.594 8.594 0 0 0 -.945-1.197 8.945 8.945 0 0 0 -1.218-1.092 6.844 6.844 0 0 0 -1.386-.798 3.754 3.754 0 0 0 -1.491-.315c-.504 0-1.001.168-1.491.504s-.735.812-.735 1.428c0 .336.084.651.252.945a4.65 4.65 0 0 0 1.365 1.512c.294.21.553.413.777.609a39.708 39.708 0 0 1 2.415 1.869 9.185 9.185 0 0 1 1.785 1.995 8.61 8.61 0 0 1 1.155 2.394c.266.868.399 1.904.399 3.108 0 1.484-.245 2.863-.735 4.137a10.543 10.543 0 0 1 -2.058 3.36 9.341 9.341 0 0 1 -3.192 2.268c-1.246.546-2.611.819-4.095.819-2.212 0-4.354-.434-6.426-1.302zm21.516 10.668v-23.94h-4.704v-7.728h18.186v7.728h-4.914v23.94zm33.036-8.778c.056.868.287 1.491.693 1.869s.861.567 1.365.567c.84 0 1.442-.287 1.806-.861s.546-1.239.546-1.995c0-.644-.105-1.19-.315-1.638a2.732 2.732 0 0 0 -.861-1.071 3.78 3.78 0 0 0 -1.218-.588 5.095 5.095 0 0 0 -1.386-.189h-1.176v-6.678h1.05c1.148 0 2.016-.224 2.604-.672s.882-1.302.882-2.562c0-.252-.028-.539-.084-.861a3.761 3.761 0 0 0 -.273-.903 1.774 1.774 0 0 0 -.546-.693 1.376 1.376 0 0 0 -.861-.273c-.448 0-.791.112-1.029.336a1.867 1.867 0 0 0 -.504.777 3.16 3.16 0 0 0 -.168.819c-.014.252-.021.42-.021.504v.21l-8.274.042c.084-1.456.399-2.772.945-3.948a9.685 9.685 0 0 1 2.163-3.024c.896-.84 1.96-1.484 3.192-1.932s2.576-.672 4.032-.672c1.316 0 2.569.231 3.759.693a9.998 9.998 0 0 1 3.129 1.911 8.858 8.858 0 0 1 2.121 2.919c.518 1.134.777 2.387.777 3.759a7.699 7.699 0 0 1 -.987 3.822c-.658 1.176-1.603 2.086-2.835 2.73 1.456.756 2.534 1.785 3.234 3.087s1.05 2.765 1.05 4.389c0 1.512-.301 2.856-.903 4.032a8.895 8.895 0 0 1 -2.415 2.961c-1.008.798-2.17 1.407-3.486 1.827s-2.674.63-4.074.63c-1.484 0-2.863-.231-4.137-.693s-2.38-1.12-3.318-1.974a8.802 8.802 0 0 1 -2.184-3.108c-.518-1.218-.749-2.583-.693-4.095h8.358zm25.338-16.128c-.644 0-1.155.308-1.533.924s-.658 1.379-.84 2.289-.294 1.89-.336 2.94a73.377 73.377 0 0 0 -.063 2.919c0 .896.021 1.869.063 2.919s.154 2.03.336 2.94.462 1.673.84 2.289.889.924 1.533.924 1.155-.308 1.533-.924.658-1.379.84-2.289.294-1.89.336-2.94.063-2.023.063-2.919-.021-1.869-.063-2.919a18.843 18.843 0 0 0 -.336-2.94c-.182-.91-.462-1.673-.84-2.289s-.889-.924-1.533-.924zm0-7.308c2.212 0 4.039.525 5.481 1.575a11.57 11.57 0 0 1 3.444 3.99c.854 1.61 1.449 3.374 1.785 5.292s.504 3.759.504 5.523-.168 3.605-.504 5.523-.931 3.682-1.785 5.292a11.57 11.57 0 0 1 -3.444 3.99c-1.442 1.05-3.269 1.575-5.481 1.575s-4.039-.525-5.481-1.575a11.57 11.57 0 0 1 -3.444-3.99c-.854-1.61-1.449-3.374-1.785-5.292a32.018 32.018 0 0 1 -.504-5.523c0-1.764.168-3.605.504-5.523s.931-3.682 1.785-5.292a11.57 11.57 0 0 1 3.444-3.99c1.442-1.05 3.269-1.575 5.481-1.575zm21.579 17.682h-.063v14.532h-8.568v-31.668h8.568v13.482h.042l4.704-13.482h9.03l-6.846 15.288 7.644 16.38h-9.198l-5.334-14.532zm24.813-4.83c.896 0 1.687-.203 2.373-.609s1.029-1.127 1.029-2.163c0-.952-.287-1.638-.861-2.058s-1.309-.63-2.205-.63h-.84v5.46zm.21 12.516c.952 0 1.785-.245 2.499-.735s1.071-1.267 1.071-2.331-.357-1.834-1.071-2.31-1.561-.714-2.541-.714h-.672v6.09zm-9.282-24.822h10.08c1.26 0 2.534.147 3.822.441s2.457.791 3.507 1.491 1.911 1.631 2.583 2.793 1.008 2.597 1.008 4.305c0 .896-.14 1.729-.42 2.499a6.07 6.07 0 0 1 -1.197 2.016 5.46 5.46 0 0 1 -1.869 1.344c-.728.322-1.54.483-2.436.483v.084c2.1.168 3.696.875 4.788 2.121s1.638 2.933 1.638 5.061c0 .98-.161 2.002-.483 3.066a7.873 7.873 0 0 1 -1.638 2.919c-.77.882-1.799 1.61-3.087 2.184s-2.884.861-4.788.861h-11.508zm27.186 32.13a4.747 4.747 0 0 1 -1.89-.378 4.446 4.446 0 0 1 -1.512-1.05 5.307 5.307 0 0 1 -1.008-1.554 4.747 4.747 0 0 1 -.378-1.89c0-.644.126-1.253.378-1.827a5.102 5.102 0 0 1 1.008-1.512c.42-.434.91-.777 1.47-1.029a4.251 4.251 0 0 1 1.764-.378c.672 0 1.316.119 1.932.357a4.697 4.697 0 0 1 1.596 1.008c.448.434.805.952 1.071 1.554s.399 1.253.399 1.953c0 .672-.126 1.295-.378 1.869a4.5 4.5 0 0 1 -1.05 1.491c-.448.42-.959.756-1.533 1.008a4.598 4.598 0 0 1 -1.869.378z" fill="#4a4a4a" fill-rule="nonzero"/><path d="m1140.322 649h105v105h-105z"/><g fill-rule="nonzero"><g mask="url(#b)" transform="translate(1144.697 657.75)"><path d="m80.648 23.516-2.341 4.922h6.672l.328-.558 2.461-4.364h-7.164zm-65.171 0h-7.028l2.833 4.922h6.573l-2.367-4.922h-.011z" fill="#9e9e9e"/><path d="m96.25 8.75-8.75 15.313h-6.125l-9.805 18.62-23.445 42.63-23.445-42.64-9.805-18.61h-6.125l-8.75-15.313h25.156l4.102 8.132 13.344 24.336 5.452 9.997 5.272-9.997 13.125-24.32 4.643-8.148" fill="#424242"/><path d="m25.462 9.75h-25.156l-.306-1h25.156zm45.632-1-.301 1h25.145l.312-1z" fill="#fff"/><path d="m85.334 27.88-.317.558h-5.939l-7.508 14.246-23.445 42.629-23.445-42.641-7.492-14.236h-5.944l-.306-.546h6.25l.29.547 7.202 13.688 23.445 42.64 23.445-42.63 7.218-13.699.296-.557" fill="#263238"/></g><g mask="url(#c)" transform="translate(1144.697 657.75)"><path d="m57.422 48.125a9.29 9.29 0 0 1 -9.297 9.297c-5.124 0-9.297-4.156-9.297-9.297 0-5.14 4.173-9.297 9.297-9.297a9.29 9.29 0 0 1 9.297 9.297zm-1.094-28.438a8.206 8.206 0 0 1 -8.203 8.204c-4.523 0-8.203-3.675-8.203-8.203 0-4.529 3.68-8.204 8.203-8.204a8.206 8.206 0 0 1 8.203 8.204z" fill="#fff"/><path d="m71.57 42.684a24.06 24.06 0 0 0 -8.313-13.273 18.598 18.598 0 0 0 3.462-10.817c0-.574-.028-1.138-.082-1.696-.848-9.482-8.817-16.898-18.512-16.898s-17.653 7.416-18.512 16.882a18.525 18.525 0 0 0 3.385 12.529 24.02 24.02 0 0 0 -8.935 18.714c0 10.194 6.343 18.91 15.296 22.422a24.134 24.134 0 0 0 8.766 1.64c3.095 0 6.06-.585 8.777-1.651 8.942-3.511 15.285-12.217 15.285-22.411 0-1.87-.218-3.691-.617-5.441zm-23.445-30.654a7.658 7.658 0 0 1 7.656 7.656 7.658 7.658 0 0 1 -7.656 7.657 7.661 7.661 0 0 1 -7.656-7.657 7.661 7.661 0 0 1 7.656-7.656zm0 44.844c-4.823 0-8.75-3.916-8.75-8.75a8.74 8.74 0 0 1 3.38-6.907 8.737 8.737 0 0 1 5.37-1.843 8.73 8.73 0 0 1 5.376 1.843 8.718 8.718 0 0 1 3.374 6.907 8.748 8.748 0 0 1 -8.75 8.75z" fill="#4285f4"/><path d="m66.719 18.594v.273c-.153-10.144-8.422-18.32-18.594-18.32s-18.446 8.176-18.594 18.32v-.273c0-10.27 8.324-18.594 18.594-18.594s18.594 8.323 18.594 18.594zm-33.961 11.02c-5.305 4.402-8.696 11.063-8.696 18.511v.273c.083-7.448 3.555-14.082 8.936-18.44l.252-.203-.252-.328-.24.22v-.034zm30.734 0-.24-.203-.252.344.252.22c5.386 4.374 8.859 10.991 8.935 18.429v-.274c0-7.437-3.39-14.109-8.695-18.484v-.033z" fill="#fff"/><path d="m72.188 47.852v.273c0 13.29-10.774 24.063-24.063 24.063-13.29 0-24.063-10.774-24.063-24.063v-.273c.148 13.163 10.868 23.788 24.064 23.788s23.915-10.626 24.063-23.79zm-42.658-29.532v.274c0 4.189 1.384 8.055 3.719 11.156.088-.055.175-.131.273-.197-2.45-3.1-3.926-7-3.992-11.233zm37.188 0a18.516 18.516 0 0 1 -3.992 11.233c.098.066.186.137.273.202 2.335-3.062 3.719-6.945 3.719-11.156z" fill="#263238"/></g><path d="m100.625 17.5-8.75 15.313-2.488 4.374h-5.934l-7.508 14.247c.404 1.75.618 3.57.618 5.441 0 10.194-6.344 18.9-15.286 22.41-.273.11-.547.209-.82.302l-7.957 14.475-7.957-14.475a17.646 17.646 0 0 1 -.81-.296c-8.952-3.549-15.295-12.244-15.295-22.416 0-1.876.218-3.702.617-5.452l-7.492-14.236h-5.906l-2.532-4.374-8.75-15.313h25.156l4.102 8.132.208.137c0-.044.076-.093.082-.137.858-9.46 8.843-16.882 18.539-16.882s17.68 7.421 18.539 16.898c0 .039-.12.088-.12.132l-.055-.132 4.643-8.148z" fill="url(#a)" transform="translate(1140.322 649)"/></g><path d="m426.282 363.632-1.243-64.688" fill="none"/><path d="m426.282 363.632-1.026-53.416" stroke="#000" stroke-linejoin="round"/><path d="m428.36 310.157-3.268-8.466-2.94 8.585z" fill="#000" stroke="#000"/><path d="m695.707 290.393v33.134h335.337v34.464" fill="none"/><path d="m695.707 290.393v33.134h335.337v23.19" stroke="#000" stroke-linejoin="round"/><path d="m1027.94 346.717 3.104 8.527 3.104-8.527z" fill="#000" stroke="#000"/><path d="m392.056 360.981h34.209v43.441h-34.209z" fill="#cfe2f3"/><path d="m392.056 360.981h34.209v43.441h-34.209z" stroke="#000" stroke-linejoin="round"/><path d="m425.05 252.853h135.71v43.441h-135.71z" fill="#fce5cd"/><path d="m425.05 252.853h135.71v43.441h-135.71z" stroke="#000" stroke-linejoin="round"/><path d="m465.337 276.635v6.958h-2.35v-17.793h6.578c1.957 0 3.484.5 4.58 1.498 1.096.979 1.644 2.29 1.644 3.934 0 1.723-.538 3.054-1.615 3.993-1.076.94-2.623 1.41-4.639 1.41zm0-1.938h4.228c1.252 0 2.211-.294 2.877-.881.685-.587 1.028-1.439 1.028-2.554 0-1.057-.343-1.9-1.028-2.525-.666-.646-1.576-.989-2.73-1.028h-4.375zm21.155 8.896c-.137-.254-.244-.714-.323-1.38-1.057 1.077-2.32 1.615-3.787 1.615-1.292 0-2.359-.362-3.2-1.086-.842-.744-1.263-1.684-1.263-2.819 0-1.37.519-2.437 1.556-3.2 1.057-.764 2.535-1.145 4.434-1.145h2.202v-1.057c0-.783-.235-1.41-.705-1.88s-1.165-.704-2.085-.704c-.802 0-1.478.205-2.026.616s-.822.9-.822 1.468h-2.26c0-.645.225-1.272.675-1.879.47-.626 1.106-1.115 1.908-1.468a6.406 6.406 0 0 1 2.672-.558c1.527 0 2.72.382 3.582 1.146.861.763 1.312 1.81 1.35 3.141v6.107c0 1.214.148 2.173.441 2.878v.205zm-3.758-1.732a4.01 4.01 0 0 0 1.997-.529c.646-.372 1.106-.851 1.38-1.438v-2.73h-1.762c-2.78 0-4.17.811-4.17 2.436 0 .705.236 1.263.705 1.674.49.391 1.106.587 1.85.587zm15.59-9.484a9.613 9.613 0 0 0 -1.115-.058c-1.488 0-2.496.626-3.025 1.879v9.395h-2.26v-13.242h2.202l.058 1.527c.725-1.174 1.772-1.762 3.142-1.762.43 0 .763.06.998.177zm9.796 7.693c0-.607-.235-1.077-.705-1.41-.45-.332-1.252-.616-2.407-.851-1.135-.254-2.046-.548-2.73-.88-.666-.353-1.165-.764-1.498-1.234-.313-.49-.47-1.057-.47-1.703 0-1.076.46-1.987 1.38-2.73.92-.764 2.095-1.146 3.523-1.146 1.488 0 2.702.392 3.641 1.175.94.763 1.41 1.752 1.41 2.965h-2.29c0-.626-.265-1.164-.793-1.614-.529-.45-1.185-.676-1.968-.676-.822 0-1.468.186-1.937.558-.47.352-.705.822-.705 1.41 0 .528.215.939.646 1.233.43.274 1.213.538 2.349.792 1.135.255 2.045.558 2.73.91.705.333 1.224.754 1.556 1.263.353.49.529 1.086.529 1.791 0 1.174-.48 2.124-1.439 2.848-.94.705-2.163 1.057-3.67 1.057-1.057 0-1.996-.186-2.818-.558-.803-.372-1.44-.89-1.909-1.556a3.937 3.937 0 0 1 -.675-2.202h2.26c.04.763.343 1.37.91 1.82.568.431 1.312.646 2.232.646.861 0 1.546-.166 2.055-.499.529-.352.793-.822.793-1.41zm10.682 3.758c-1.78 0-3.239-.587-4.374-1.762-1.116-1.174-1.674-2.75-1.674-4.727v-.41c0-1.312.245-2.477.734-3.495.51-1.037 1.214-1.85 2.114-2.437a5.27 5.27 0 0 1 2.936-.88c1.723 0 3.054.567 3.993 1.702.96 1.136 1.439 2.76 1.439 4.874v.94h-8.955c.02 1.292.391 2.339 1.116 3.141.743.803 1.673 1.204 2.789 1.204.802 0 1.478-.156 2.026-.47a5.138 5.138 0 0 0 1.468-1.291l1.38 1.057c-1.096 1.703-2.76 2.554-4.992 2.554zm-.264-11.862c-.92 0-1.693.333-2.32.998-.606.666-.988 1.596-1.144 2.79h6.635v-.147c-.059-1.155-.372-2.046-.94-2.672-.547-.646-1.291-.969-2.23-.969z" fill="#000" fill-rule="nonzero"/><path d="m560.77 252.853h135.71v43.441h-135.71z" fill="#d9ead3"/><path d="m560.77 252.853h135.71v43.441h-135.71z" stroke="#000" stroke-linejoin="round"/><path d="m597.77 277.956c-.215 1.879-.91 3.327-2.084 4.345-1.155 1.018-2.701 1.527-4.64 1.527-2.113 0-3.806-.754-5.079-2.26-1.252-1.508-1.879-3.524-1.879-6.05v-1.702c0-1.664.294-3.122.881-4.375s1.42-2.212 2.496-2.877c1.096-.685 2.358-1.028 3.787-1.028 1.88 0 3.387.529 4.522 1.586 1.155 1.057 1.82 2.515 1.996 4.374h-2.348c-.196-1.409-.637-2.427-1.322-3.053-.685-.646-1.634-.969-2.848-.969-1.507 0-2.691.558-3.552 1.674-.842 1.096-1.263 2.671-1.263 4.727v1.732c0 1.918.401 3.455 1.204 4.61.802 1.135 1.938 1.703 3.406 1.703 1.292 0 2.28-.294 2.965-.881.705-.587 1.175-1.615 1.41-3.083zm2.267-1.087c0-1.311.255-2.485.763-3.523.51-1.037 1.214-1.83 2.114-2.378.92-.568 1.958-.852 3.113-.852 1.8 0 3.259.627 4.374 1.88 1.116 1.233 1.674 2.887 1.674 4.962v.176c0 1.272-.245 2.427-.734 3.464-.49 1.018-1.194 1.81-2.114 2.379-.92.567-1.977.851-3.17.851-1.782 0-3.23-.617-4.346-1.85-1.116-1.252-1.674-2.906-1.674-4.962zm2.26.265c0 1.468.343 2.642 1.029 3.523.685.88 1.595 1.321 2.73 1.321 1.155 0 2.065-.45 2.73-1.35.686-.9 1.028-2.153 1.028-3.759 0-1.468-.342-2.652-1.027-3.552s-1.605-1.35-2.76-1.35c-1.116 0-2.016.45-2.701 1.35-.686.88-1.028 2.153-1.028 3.817zm14.754-6.783.059 1.468c.959-1.135 2.27-1.703 3.934-1.703 1.84 0 3.093.705 3.758 2.114a5.223 5.223 0 0 1 1.733-1.526c.704-.392 1.536-.588 2.495-.588 2.897 0 4.375 1.537 4.434 4.61v8.867h-2.261v-8.72c0-.96-.215-1.674-.646-2.143-.43-.47-1.165-.705-2.202-.705-.822 0-1.517.254-2.085.763-.548.51-.87 1.185-.969 2.026v8.78h-2.26v-8.662c0-1.938-.94-2.907-2.819-2.907-1.488 0-2.505.636-3.054 1.908v9.66h-2.26v-13.242zm30.994 6.783c0 2.016-.46 3.64-1.38 4.874-.92 1.213-2.173 1.82-3.758 1.82-1.605 0-2.868-.509-3.788-1.527v6.372h-2.26v-18.323h2.084l.088 1.468c.94-1.135 2.222-1.703 3.847-1.703 1.585 0 2.838.597 3.758 1.792.94 1.194 1.41 2.867 1.41 5.02v.206zm-2.26-.265c0-1.487-.324-2.662-.97-3.523-.626-.88-1.497-1.321-2.613-1.321-1.37 0-2.398.607-3.083 1.82v6.342c.685 1.194 1.723 1.791 3.113 1.791 1.096 0 1.957-.42 2.583-1.262.646-.861.97-2.144.97-3.847zm7.591 6.724h-2.26v-13.242h2.26zm-2.437-16.736c0-.371.108-.685.323-.94.235-.254.568-.38.998-.38.45 0 .783.126.999.38.234.255.352.569.352.94 0 .372-.118.686-.352.94-.216.235-.549.352-.999.352-.43 0-.763-.117-.998-.352-.215-.254-.323-.568-.323-.94zm8.515 16.736h-2.261v-18.79h2.26v18.79zm9.102.235c-1.781 0-3.24-.587-4.375-1.762-1.116-1.174-1.674-2.75-1.674-4.727v-.41c0-1.312.245-2.477.734-3.495.51-1.037 1.214-1.85 2.114-2.437a5.27 5.27 0 0 1 2.936-.88c1.723 0 3.054.567 3.994 1.702.959 1.136 1.438 2.76 1.438 4.874v.94h-8.955c.02 1.292.392 2.339 1.116 3.141.744.803 1.673 1.204 2.79 1.204.802 0 1.477-.156 2.025-.47a5.138 5.138 0 0 0 1.468-1.291l1.38 1.057c-1.096 1.703-2.76 2.554-4.991 2.554zm-.265-11.862c-.92 0-1.693.333-2.319.998-.607.666-.989 1.596-1.145 2.79h6.635v-.147c-.058-1.155-.371-2.045-.94-2.672-.547-.646-1.291-.969-2.23-.969z" fill="#000" fill-rule="nonzero"/><path d="m335.837 398.077h145v73.389h-145z" fill="none"/><path d="m385.017 437.133h8.427v1.909h-10.805v-17.793h2.378zm10.159-4.815c0-1.311.254-2.486.763-3.523.51-1.038 1.214-1.83 2.114-2.378.92-.568 1.958-.852 3.112-.852 1.801 0 3.26.626 4.375 1.88 1.116 1.232 1.674 2.886 1.674 4.961v.176c0 1.273-.245 2.427-.734 3.465-.49 1.018-1.194 1.81-2.114 2.378s-1.977.852-3.171.852c-1.781 0-3.23-.617-4.346-1.85-1.115-1.253-1.673-2.907-1.673-4.962zm2.26.264c0 1.468.343 2.643 1.028 3.524.685.88 1.596 1.32 2.73 1.32 1.156 0 2.066-.45 2.731-1.35.685-.9 1.028-2.153 1.028-3.758 0-1.468-.343-2.652-1.028-3.553-.685-.9-1.605-1.35-2.76-1.35-1.115 0-2.016.45-2.7 1.35-.686.881-1.028 2.154-1.028 3.817zm20.802 6.46c-.137-.255-.245-.715-.323-1.38-1.057 1.076-2.32 1.615-3.787 1.615-1.292 0-2.36-.363-3.2-1.087-.842-.744-1.263-1.683-1.263-2.818 0-1.37.518-2.437 1.556-3.2 1.057-.764 2.535-1.146 4.433-1.146h2.202v-1.057c0-.783-.234-1.41-.704-1.879-.47-.47-1.165-.705-2.085-.705-.802 0-1.478.206-2.026.617s-.822.9-.822 1.468h-2.26c0-.646.224-1.272.675-1.88.47-.625 1.106-1.115 1.908-1.467a6.406 6.406 0 0 1 2.672-.558c1.527 0 2.72.382 3.582 1.145.861.764 1.311 1.81 1.35 3.142v6.107c0 1.213.147 2.173.441 2.877v.206zm-3.758-1.733a4.01 4.01 0 0 0 1.996-.528c.646-.372 1.106-.852 1.38-1.439v-2.73h-1.761c-2.78 0-4.17.812-4.17 2.437 0 .704.235 1.262.705 1.673.49.392 1.106.587 1.85.587zm8.661-4.991c0-2.036.48-3.67 1.439-4.903s2.211-1.85 3.758-1.85c1.566 0 2.799.529 3.7 1.586v-6.9h2.26v18.79h-2.085l-.117-1.409c-.9 1.097-2.153 1.645-3.758 1.645-1.547 0-2.8-.627-3.758-1.88-.96-1.252-1.439-2.887-1.439-4.903zm2.26.264c0 1.488.304 2.662.91 3.524.627.841 1.489 1.262 2.585 1.262 1.429 0 2.476-.646 3.141-1.938v-6.077c-.685-1.253-1.722-1.88-3.112-1.88-1.116 0-1.987.431-2.613 1.292-.607.862-.91 2.134-.91 3.817zm-59.971 28.598c-2.016-.587-3.484-1.302-4.404-2.144-.92-.841-1.38-1.879-1.38-3.112 0-1.41.558-2.574 1.674-3.494 1.135-.92 2.603-1.38 4.404-1.38 1.213 0 2.3.245 3.259.734.959.47 1.703 1.126 2.231 1.967.529.823.793 1.723.793 2.702h-2.378c0-1.077-.343-1.919-1.028-2.525-.685-.627-1.644-.94-2.877-.94-1.155 0-2.065.255-2.73.763-.647.51-.97 1.214-.97 2.114 0 .725.304 1.341.91 1.85.627.51 1.674.97 3.142 1.38 1.488.411 2.652.871 3.494 1.38.842.49 1.458 1.077 1.85 1.762.41.665.616 1.448.616 2.349 0 1.448-.567 2.603-1.703 3.464-1.115.861-2.613 1.292-4.492 1.292-1.233 0-2.378-.235-3.435-.705s-1.88-1.105-2.466-1.908c-.568-.822-.852-1.752-.852-2.79h2.378c0 1.077.392 1.929 1.175 2.555.802.626 1.87.94 3.2.94 1.233 0 2.183-.255 2.848-.764.666-.509.998-1.194.998-2.055 0-.88-.313-1.556-.94-2.026-.606-.49-1.712-.959-3.317-1.41zm14.565 6.312a3.27 3.27 0 0 0 2.114-.734c.606-.489.94-1.096.998-1.82h2.143c-.039.763-.303 1.488-.792 2.173-.47.685-1.106 1.233-1.909 1.644a5.751 5.751 0 0 1 -2.554.587c-1.801 0-3.24-.597-4.316-1.79-1.057-1.214-1.586-2.859-1.586-4.934v-.381c0-1.292.235-2.437.705-3.435.49-.999 1.174-1.772 2.055-2.32.88-.568 1.928-.851 3.142-.851 1.468 0 2.691.45 3.67 1.35.998.881 1.527 2.026 1.585 3.435h-2.143c-.059-.841-.382-1.536-.969-2.084-.587-.568-1.302-.852-2.143-.852-1.155 0-2.056.421-2.702 1.263-.626.822-.94 2.016-.94 3.582v.41c0 1.528.314 2.702.94 3.524.646.822 1.547 1.233 2.702 1.233zm14.195-9.6a9.613 9.613 0 0 0 -1.115-.06c-1.488 0-2.496.627-3.024 1.88v9.395h-2.261v-13.242h2.202l.059 1.527c.724-1.174 1.771-1.761 3.141-1.761.43 0 .764.058.998.176v2.084zm4.54 11.215h-2.26v-13.242h2.26zm-2.436-16.735c0-.372.107-.686.323-.94.235-.254.567-.382.998-.382.45 0 .783.128.998.382.235.254.353.568.353.94 0 .371-.118.685-.353.94-.215.234-.548.351-.998.351-.43 0-.763-.117-.998-.352-.216-.254-.323-.568-.323-.94zm17.235 10.276c0 2.016-.46 3.64-1.38 4.874-.92 1.213-2.173 1.82-3.758 1.82-1.606 0-2.868-.509-3.788-1.527v6.372h-2.26v-18.322h2.084l.088 1.469c.94-1.136 2.222-1.703 3.846-1.703 1.586 0 2.838.597 3.758 1.79.94 1.195 1.41 2.868 1.41 5.021zm-2.261-.264c0-1.488-.323-2.662-.969-3.524-.626-.88-1.497-1.321-2.613-1.321-1.37 0-2.398.607-3.083 1.82v6.342c.685 1.194 1.723 1.791 3.112 1.791 1.096 0 1.958-.42 2.584-1.262.646-.861.969-2.143.969-3.846zm8.208-9.719v3.2h2.466v1.762h-2.466v8.192c0 .528.108.93.323 1.204s.587.41 1.116.41c.274 0 .636-.048 1.086-.146v1.82a6.705 6.705 0 0 1 -1.732.235c-1.018 0-1.781-.303-2.29-.91-.51-.607-.764-1.478-.764-2.613v-8.192h-2.407v-1.762h2.407v-3.2zm18.962 11.422h-3.23l-.998 5.02h-1.733l.97-5.02h-2.907v-1.674h3.23l.85-4.316h-3.17v-1.703h3.494l.998-5.08h1.762l-1.028 5.08h3.23l1.027-5.08h1.762l-1.028 5.08h2.496v1.703h-2.819l-.851 4.316h2.76v1.674h-3.054l-.998 5.02h-1.762zm-2.936-1.674h3.23l.85-4.316h-3.229zm17.916 6.694h-2.29v-15.091l-4.551 1.703v-2.056l6.489-2.437h.352z" fill="#000" fill-rule="nonzero"/><path d="m866.874 360.984h166.485v43.44h-166.485z" fill="#ea9999"/><path d="m866.874 360.984h166.485v43.44h-166.485z" stroke="#000" stroke-linejoin="round"/><path d="m900.382 383.503h-7.722v6.313h8.985v1.908h-11.333v-17.793h11.186v1.909h-8.838v5.725h7.722zm8.275-.176 2.906-4.845h2.643l-4.316 6.548 4.463 6.694h-2.614l-3.053-4.962-3.054 4.962h-2.642l4.463-6.694-4.316-6.548h2.613zm13.195 8.632c-1.781 0-3.24-.587-4.375-1.762-1.116-1.174-1.673-2.75-1.673-4.727v-.41c0-1.312.244-2.477.734-3.495.508-1.037 1.213-1.85 2.114-2.437a5.27 5.27 0 0 1 2.936-.88c1.722 0 3.053.567 3.993 1.702.959 1.136 1.438 2.76 1.438 4.874v.94h-8.955c.02 1.292.392 2.339 1.116 3.141.744.803 1.674 1.204 2.79 1.204.802 0 1.477-.156 2.025-.47a5.138 5.138 0 0 0 1.468-1.292l1.38 1.057c-1.096 1.703-2.76 2.555-4.991 2.555zm-.264-11.862c-.92 0-1.694.333-2.32.998-.607.666-.988 1.596-1.145 2.79h6.636v-.147c-.06-1.155-.372-2.046-.94-2.672-.548-.646-1.292-.969-2.231-.969zm13.356 10.012a3.27 3.27 0 0 0 2.114-.734c.607-.49.94-1.096.998-1.82h2.144c-.04.763-.304 1.487-.793 2.172-.47.686-1.106 1.234-1.909 1.645a5.751 5.751 0 0 1 -2.554.587c-1.8 0-3.24-.597-4.316-1.791-1.057-1.214-1.585-2.858-1.585-4.933v-.381c0-1.292.234-2.437.704-3.436.49-.998 1.175-1.771 2.055-2.32.881-.567 1.929-.85 3.142-.85 1.468 0 2.692.45 3.67 1.35.998.88 1.527 2.026 1.586 3.435h-2.144c-.058-.842-.381-1.536-.969-2.084-.587-.568-1.301-.852-2.143-.852-1.155 0-2.055.42-2.701 1.263-.626.822-.94 2.016-.94 3.582v.41c0 1.527.314 2.702.94 3.524.646.822 1.546 1.233 2.701 1.233zm15.987.294c-.881 1.037-2.173 1.556-3.876 1.556-1.429 0-2.515-.401-3.259-1.204-.724-.822-1.086-2.036-1.086-3.64v-8.633h2.26v8.544c0 2.016.813 3.024 2.438 3.024 1.722 0 2.867-.646 3.435-1.937v-9.63h2.29v13.241h-2.173l-.03-1.321zm8.698-15.121v3.2h2.466v1.762h-2.466v8.192c0 .528.107.93.323 1.203.215.274.587.411 1.115.411.274 0 .636-.049 1.087-.146v1.82a6.705 6.705 0 0 1 -1.733.235c-1.018 0-1.78-.304-2.29-.91-.509-.607-.763-1.478-.763-2.613v-8.192h-2.408v-1.762h2.408v-3.2h2.26zm10.588 16.677c-1.78 0-3.24-.587-4.374-1.762-1.116-1.174-1.674-2.75-1.674-4.727v-.41c0-1.312.245-2.477.734-3.495.509-1.037 1.214-1.85 2.114-2.437a5.27 5.27 0 0 1 2.936-.88c1.723 0 3.054.567 3.993 1.702.96 1.136 1.439 2.76 1.439 4.874v.94h-8.955c.02 1.292.391 2.339 1.115 3.141.744.803 1.674 1.204 2.79 1.204.802 0 1.478-.156 2.026-.47a5.138 5.138 0 0 0 1.468-1.292l1.38 1.057c-1.097 1.703-2.76 2.555-4.992 2.555zm-.264-11.862c-.92 0-1.693.333-2.32.998-.606.666-.988 1.596-1.145 2.79h6.636v-.147c-.059-1.155-.372-2.046-.94-2.672-.548-.646-1.291-.969-2.231-.969zm21.905 6.606h-3.23l-.998 5.021h-1.732l.97-5.02h-2.908v-1.674h3.23l.852-4.316h-3.171v-1.703h3.493l.999-5.08h1.761l-1.027 5.08h3.23l1.027-5.08h1.762l-1.028 5.08h2.496v1.703h-2.819l-.851 4.316h2.76v1.673h-3.054l-.998 5.021h-1.762l.998-5.02zm-2.936-1.673h3.23l.851-4.316h-3.23l-.85 4.316zm22.145 6.694h-11.687v-1.615l6.166-6.87c.92-1.038 1.546-1.88 1.879-2.525a4.12 4.12 0 0 0 .528-1.997c0-.94-.283-1.703-.851-2.29-.548-.587-1.292-.88-2.232-.88-1.115 0-1.986.322-2.613.968-.626.626-.94 1.507-.94 2.643h-2.26c0-1.625.529-2.946 1.586-3.964s2.466-1.527 4.227-1.527c1.664 0 2.976.44 3.935 1.321.959.862 1.439 2.016 1.439 3.465 0 1.742-1.116 3.827-3.348 6.254l-4.785 5.167h8.955v1.85z" fill="#000" fill-rule="nonzero"/><path d="m440.396 360.981h110.556v43.441h-110.556z" fill="#fff2cc"/><path d="m440.396 360.981h110.556v43.441h-110.556v-43.44z" stroke="#000" stroke-dasharray="4 3" stroke-linejoin="round"/><path d="m480.972 383.383c0 1.742-.294 3.269-.88 4.58-.588 1.292-1.42 2.28-2.496 2.966-1.077.685-2.33 1.027-3.759 1.027-1.409 0-2.662-.342-3.758-1.027-1.076-.685-1.918-1.664-2.525-2.936-.587-1.273-.89-2.75-.91-4.434v-1.292c0-1.703.294-3.21.88-4.521.608-1.331 1.45-2.34 2.526-3.024 1.096-.705 2.349-1.057 3.758-1.057 1.429 0 2.682.352 3.758 1.057 1.096.685 1.938 1.683 2.525 2.994.587 1.292.881 2.81.881 4.551zm-2.349-1.145c0-2.114-.42-3.729-1.262-4.845-.842-1.135-2.026-1.702-3.553-1.702-1.488 0-2.662.567-3.523 1.702-.842 1.116-1.273 2.682-1.292 4.698v1.292c0 2.055.43 3.67 1.292 4.845.86 1.154 2.045 1.732 3.552 1.732s2.672-.548 3.494-1.644c.842-1.096 1.273-2.682 1.292-4.757zm8.586-6.959v3.2h2.467v1.762h-2.467v8.192c0 .529.108.93.323 1.204.216.274.588.411 1.116.411.274 0 .636-.049 1.086-.147v1.82a6.705 6.705 0 0 1 -1.732.235c-1.018 0-1.781-.303-2.29-.91s-.763-1.478-.763-2.613v-8.192h-2.408v-1.761h2.408v-3.2h2.26zm7.36 4.816c1.017-1.233 2.329-1.85 3.934-1.85 2.799 0 4.208 1.576 4.228 4.727v8.75h-2.261v-8.75c-.02-.96-.245-1.664-.675-2.114-.411-.47-1.077-.705-1.997-.705-.724 0-1.37.196-1.938.588-.548.391-.978.91-1.292 1.556v9.425h-2.26v-18.792h2.26v7.164zm17.023 11.861c-1.78 0-3.24-.587-4.374-1.761-1.116-1.175-1.674-2.75-1.674-4.727v-.411c0-1.312.245-2.476.734-3.494.509-1.038 1.214-1.85 2.114-2.437a5.27 5.27 0 0 1 2.936-.881c1.723 0 3.054.568 3.993 1.703.96 1.135 1.439 2.76 1.439 4.874v.94h-8.955c.02 1.291.391 2.338 1.116 3.14.743.803 1.673 1.205 2.789 1.205.802 0 1.478-.157 2.026-.47a5.138 5.138 0 0 0 1.468-1.292l1.38 1.057c-1.096 1.703-2.76 2.554-4.992 2.554zm-.264-11.861c-.92 0-1.693.332-2.32.998-.606.665-.988 1.595-1.144 2.79h6.635v-.148c-.059-1.154-.372-2.045-.94-2.671-.548-.646-1.291-.97-2.23-.97zm14.443.41a9.613 9.613 0 0 0 -1.116-.058c-1.487 0-2.495.626-3.024 1.88v9.395h-2.26v-13.242h2.201l.059 1.527c.724-1.175 1.771-1.762 3.142-1.762.43 0 .763.059.998.176v2.085z" fill="#000" fill-rule="nonzero"/><path d="m595.126 360.982h135.709v43.441h-135.71z" fill="#fce5cd"/><path d="m595.126 360.982h135.709v43.441h-135.71z" stroke="#000" stroke-linejoin="round"/><path d="m635.412 384.764v6.959h-2.349v-17.793h6.577c1.957 0 3.484.499 4.58 1.497 1.096.979 1.644 2.29 1.644 3.935 0 1.722-.538 3.053-1.614 3.993-1.077.94-2.623 1.409-4.64 1.409zm0-1.938h4.228c1.253 0 2.212-.293 2.877-.88.685-.588 1.028-1.44 1.028-2.555 0-1.057-.343-1.899-1.028-2.525-.665-.646-1.575-.989-2.73-1.028h-4.375zm21.156 8.897c-.137-.255-.245-.715-.323-1.38-1.057 1.076-2.32 1.614-3.788 1.614-1.292 0-2.359-.362-3.2-1.086-.842-.744-1.263-1.683-1.263-2.819 0-1.37.519-2.437 1.556-3.2 1.057-.763 2.535-1.145 4.434-1.145h2.202v-1.057c0-.783-.235-1.41-.705-1.88-.47-.469-1.164-.704-2.084-.704-.803 0-1.478.206-2.026.617-.548.41-.822.9-.822 1.468h-2.261c0-.646.225-1.272.675-1.88.47-.626 1.106-1.115 1.909-1.467a6.406 6.406 0 0 1 2.671-.558c1.527 0 2.721.382 3.583 1.145.86.763 1.311 1.81 1.35 3.142v6.107c0 1.213.147 2.172.44 2.877v.206zm-3.759-1.733a4.01 4.01 0 0 0 1.997-.528c.646-.372 1.106-.852 1.38-1.439v-2.73h-1.762c-2.78 0-4.169.812-4.169 2.436 0 .705.235 1.263.705 1.674.49.391 1.106.587 1.85.587zm15.59-9.483a9.613 9.613 0 0 0 -1.115-.059c-1.488 0-2.496.626-3.024 1.879v9.396h-2.261v-13.243h2.202l.059 1.527c.724-1.175 1.771-1.762 3.141-1.762.431 0 .764.059.999.176v2.085zm9.797 7.692c0-.607-.235-1.076-.705-1.41-.45-.332-1.253-.616-2.408-.85-1.135-.255-2.045-.549-2.73-.881-.666-.353-1.165-.764-1.498-1.234-.313-.489-.47-1.057-.47-1.702 0-1.077.46-1.987 1.38-2.731.92-.763 2.095-1.145 3.524-1.145 1.487 0 2.701.391 3.64 1.174.94.764 1.41 1.752 1.41 2.966h-2.29c0-.627-.265-1.165-.793-1.615-.529-.45-1.184-.675-1.967-.675-.822 0-1.468.186-1.938.557-.47.353-.705.823-.705 1.41 0 .528.216.94.646 1.233.43.274 1.214.538 2.35.793 1.134.254 2.045.558 2.73.91.704.333 1.223.753 1.556 1.262.352.49.528 1.087.528 1.791 0 1.175-.48 2.124-1.438 2.848-.94.705-2.163 1.057-3.67 1.057-1.057 0-1.997-.186-2.82-.557-.802-.372-1.438-.891-1.908-1.557a3.937 3.937 0 0 1 -.675-2.202h2.26c.04.764.343 1.37.911 1.82.568.431 1.312.647 2.232.647.86 0 1.546-.167 2.055-.5.528-.352.793-.822.793-1.409zm10.682 3.758c-1.781 0-3.24-.587-4.375-1.761-1.116-1.175-1.673-2.75-1.673-4.727v-.411c0-1.312.244-2.476.734-3.494.508-1.038 1.213-1.85 2.114-2.437a5.27 5.27 0 0 1 2.936-.881c1.722 0 3.053.568 3.993 1.703.959 1.135 1.438 2.76 1.438 4.874v.94h-8.955c.02 1.291.392 2.338 1.116 3.14.744.803 1.674 1.205 2.79 1.205.802 0 1.477-.157 2.025-.47a5.138 5.138 0 0 0 1.468-1.292l1.38 1.057c-1.096 1.703-2.76 2.554-4.991 2.554zm-.264-11.861c-.92 0-1.694.332-2.32.998-.607.665-.988 1.595-1.145 2.79h6.636v-.148c-.06-1.154-.372-2.045-.94-2.671-.548-.646-1.292-.97-2.231-.97z" fill="#000" fill-rule="nonzero"/><path d="m730.846 360.982h135.71v43.441h-135.71z" fill="#d9ead3"/><path d="m730.846 360.982h135.71v43.441h-135.71z" stroke="#000" stroke-linejoin="round"/><path d="m767.846 386.085c-.215 1.88-.91 3.328-2.085 4.346-1.155 1.017-2.7 1.526-4.639 1.526-2.114 0-3.807-.753-5.08-2.26-1.252-1.508-1.878-3.524-1.878-6.049v-1.703c0-1.663.293-3.122.88-4.374.588-1.253 1.42-2.212 2.496-2.878 1.096-.685 2.359-1.027 3.788-1.027 1.879 0 3.386.528 4.521 1.585 1.155 1.057 1.82 2.515 1.997 4.375h-2.349c-.196-1.41-.636-2.427-1.321-3.054-.685-.646-1.635-.969-2.848-.969-1.507 0-2.692.558-3.553 1.674-.842 1.096-1.262 2.672-1.262 4.727v1.732c0 1.919.4 3.455 1.203 4.61.803 1.135 1.938 1.703 3.406 1.703 1.292 0 2.28-.294 2.966-.88.704-.588 1.174-1.616 1.409-3.084zm2.267-1.086c0-1.312.254-2.486.763-3.523.509-1.038 1.213-1.83 2.114-2.379.92-.567 1.957-.851 3.112-.851 1.8 0 3.26.626 4.375 1.879 1.116 1.233 1.673 2.887 1.673 4.962v.176c0 1.272-.244 2.427-.734 3.465-.489 1.018-1.194 1.81-2.114 2.378s-1.976.851-3.17.851c-1.782 0-3.23-.616-4.346-1.85-1.116-1.252-1.673-2.906-1.673-4.961zm2.26.264c0 1.468.343 2.643 1.028 3.523.685.881 1.595 1.322 2.73 1.322 1.155 0 2.066-.45 2.731-1.35.685-.901 1.028-2.154 1.028-3.76 0-1.467-.343-2.651-1.028-3.552-.685-.9-1.605-1.35-2.76-1.35-1.116 0-2.016.45-2.701 1.35-.685.881-1.028 2.153-1.028 3.817zm14.753-6.782.06 1.468c.958-1.135 2.27-1.703 3.934-1.703 1.84 0 3.092.705 3.758 2.114a5.223 5.223 0 0 1 1.732-1.527c.705-.391 1.537-.587 2.496-.587 2.897 0 4.374 1.536 4.433 4.61v8.867h-2.26v-8.72c0-.96-.216-1.674-.647-2.144-.43-.47-1.164-.705-2.202-.705-.822 0-1.517.255-2.084.764-.548.509-.871 1.184-.97 2.026v8.779h-2.26v-8.662c0-1.938-.94-2.907-2.819-2.907-1.487 0-2.505.636-3.053 1.909v9.66h-2.26v-13.243h2.142zm30.995 6.782c0 2.016-.46 3.64-1.38 4.874-.92 1.214-2.173 1.82-3.759 1.82-1.605 0-2.867-.509-3.787-1.526v6.37h-2.261v-18.32h2.085l.088 1.468c.94-1.135 2.221-1.703 3.846-1.703 1.585 0 2.838.597 3.758 1.79.94 1.195 1.41 2.868 1.41 5.022zm-2.261-.263c0-1.488-.323-2.662-.97-3.523-.626-.881-1.497-1.322-2.612-1.322-1.37 0-2.398.607-3.083 1.82v6.343c.685 1.194 1.722 1.79 3.112 1.79 1.096 0 1.957-.42 2.584-1.262.646-.861.969-2.143.969-3.846zm7.591 6.724h-2.26v-13.244h2.26v13.242zm-2.437-16.736c0-.372.108-.685.323-.94.235-.254.568-.381.999-.381.45 0 .783.127.998.381.235.255.352.568.352.94s-.117.685-.352.94c-.215.234-.548.352-.998.352-.43 0-.764-.118-.999-.353-.215-.254-.323-.567-.323-.94zm8.515 16.736h-2.26v-18.791h2.26v18.79zm9.102.234c-1.781 0-3.24-.587-4.375-1.761-1.115-1.175-1.673-2.75-1.673-4.727v-.411c0-1.312.244-2.477.734-3.494.509-1.038 1.213-1.85 2.114-2.437a5.27 5.27 0 0 1 2.936-.881c1.722 0 3.053.568 3.993 1.703.96 1.135 1.439 2.76 1.439 4.874v.94h-8.955c.02 1.291.391 2.338 1.115 3.14.744.803 1.674 1.205 2.79 1.205.802 0 1.477-.157 2.025-.47a5.138 5.138 0 0 0 1.469-1.292l1.38 1.057c-1.097 1.703-2.76 2.554-4.992 2.554zm-.264-11.861c-.92 0-1.693.332-2.32.998-.606.665-.988 1.595-1.145 2.79h6.636v-.148c-.059-1.154-.372-2.045-.94-2.671-.548-.646-1.292-.97-2.231-.97z" fill="#000" fill-rule="nonzero"/><path d="m565.061 360.981h34.209v43.441h-34.21z" fill="#cfe2f3"/><path d="m565.061 360.981h34.209v43.441h-34.21z" stroke="#000" stroke-linejoin="round"/><path d="m1033.68 360.984h166.484v43.44h-166.484z" fill="#ea9999"/><path d="m1033.68 360.984h166.484v43.44h-166.484z" stroke="#000" stroke-linejoin="round"/><path d="m1067.188 383.503h-7.722v6.313h8.984v1.908h-11.333v-17.793h11.187v1.909h-8.838v5.725h7.722zm8.274-.176 2.907-4.845h2.642l-4.316 6.548 4.463 6.694h-2.613l-3.054-4.962-3.053 4.962h-2.643l4.463-6.694-4.316-6.548h2.613zm13.195 8.632c-1.78 0-3.24-.587-4.374-1.762-1.116-1.174-1.674-2.75-1.674-4.727v-.41c0-1.312.245-2.477.734-3.495.509-1.037 1.214-1.85 2.114-2.437a5.27 5.27 0 0 1 2.936-.88c1.723 0 3.054.567 3.993 1.702.96 1.136 1.439 2.76 1.439 4.874v.94h-8.955c.02 1.292.391 2.339 1.115 3.141.744.803 1.674 1.204 2.79 1.204.802 0 1.478-.156 2.026-.47a5.138 5.138 0 0 0 1.468-1.292l1.38 1.057c-1.096 1.703-2.76 2.555-4.992 2.555zm-.264-11.862c-.92 0-1.693.333-2.32.998-.606.666-.988 1.596-1.145 2.79h6.636v-.147c-.059-1.155-.372-2.046-.94-2.672-.548-.646-1.291-.969-2.23-.969zm13.357 10.012a3.27 3.27 0 0 0 2.114-.734c.606-.49.94-1.096.998-1.82h2.143c-.039.763-.303 1.487-.793 2.172-.47.686-1.105 1.234-1.908 1.645a5.751 5.751 0 0 1 -2.554.587c-1.801 0-3.24-.597-4.316-1.791-1.057-1.214-1.586-2.858-1.586-4.933v-.381c0-1.292.235-2.437.705-3.436.49-.998 1.174-1.771 2.055-2.32.88-.567 1.928-.85 3.142-.85 1.468 0 2.691.45 3.67 1.35.998.88 1.527 2.026 1.585 3.435h-2.143c-.059-.842-.382-1.536-.969-2.084-.587-.568-1.302-.852-2.143-.852-1.155 0-2.056.42-2.702 1.263-.626.822-.94 2.016-.94 3.582v.41c0 1.527.314 2.702.94 3.524.646.822 1.547 1.233 2.702 1.233zm15.986.294c-.88 1.037-2.172 1.556-3.875 1.556-1.43 0-2.515-.401-3.26-1.204-.724-.822-1.086-2.036-1.086-3.64v-8.633h2.261v8.544c0 2.016.812 3.024 2.437 3.024 1.723 0 2.868-.646 3.435-1.937v-9.63h2.29v13.241h-2.172zm8.698-15.121v3.2h2.466v1.762h-2.466v8.192c0 .528.108.93.323 1.203.215.274.587.411 1.116.411.274 0 .636-.049 1.086-.146v1.82a6.705 6.705 0 0 1 -1.732.235c-1.018 0-1.782-.304-2.29-.91-.51-.607-.764-1.478-.764-2.613v-8.192h-2.407v-1.762h2.407v-3.2zm10.589 16.677c-1.781 0-3.24-.587-4.375-1.762-1.116-1.174-1.674-2.75-1.674-4.727v-.41c0-1.312.245-2.477.734-3.495.51-1.037 1.214-1.85 2.114-2.437a5.27 5.27 0 0 1 2.937-.88c1.722 0 3.053.567 3.993 1.702.959 1.136 1.438 2.76 1.438 4.874v.94h-8.955c.02 1.292.392 2.339 1.116 3.141.744.803 1.674 1.204 2.79 1.204.802 0 1.477-.156 2.025-.47a5.138 5.138 0 0 0 1.468-1.292l1.38 1.057c-1.096 1.703-2.76 2.555-4.991 2.555zm-.264-11.862c-.92 0-1.694.333-2.32.998-.607.666-.988 1.596-1.145 2.79h6.636v-.147c-.06-1.155-.372-2.046-.94-2.672-.548-.646-1.292-.969-2.231-.969zm21.905 6.606h-3.23l-.998 5.021h-1.732l.969-5.02h-2.907v-1.674h3.23l.851-4.316h-3.17v-1.703h3.493l.998-5.08h1.762l-1.028 5.08h3.23l1.028-5.08h1.761l-1.027 5.08h2.495v1.703h-2.818l-.852 4.316h2.76v1.673h-3.053l-.999 5.021h-1.761l.998-5.02zm-2.936-1.673h3.23l.851-4.316h-3.23zm17.916 6.694h-2.29v-15.092l-4.55 1.703v-2.055l6.488-2.437h.352z" fill="#000" fill-rule="nonzero"/><path d="m506.055 398.077h145.001v73.389h-145z" fill="none"/><path d="m555.236 437.133h8.426v1.909h-10.804v-17.793h2.378zm10.158-4.815c0-1.311.255-2.486.764-3.523.509-1.038 1.213-1.83 2.114-2.378.92-.568 1.957-.852 3.112-.852 1.8 0 3.259.626 4.375 1.88 1.115 1.232 1.673 2.886 1.673 4.961v.176c0 1.273-.244 2.427-.734 3.465-.49 1.018-1.194 1.81-2.114 2.378s-1.977.852-3.17.852c-1.782 0-3.23-.617-4.346-1.85-1.116-1.253-1.674-2.907-1.674-4.962zm2.261.264c0 1.468.343 2.643 1.028 3.524.685.88 1.595 1.32 2.73 1.32 1.155 0 2.065-.45 2.73-1.35.686-.9 1.028-2.153 1.028-3.758 0-1.468-.342-2.652-1.027-3.553-.685-.9-1.605-1.35-2.76-1.35-1.116 0-2.016.45-2.701 1.35-.685.881-1.028 2.154-1.028 3.817zm20.802 6.46c-.137-.255-.245-.715-.323-1.38-1.057 1.076-2.32 1.615-3.788 1.615-1.292 0-2.359-.363-3.2-1.087-.842-.744-1.263-1.683-1.263-2.818 0-1.37.519-2.437 1.556-3.2 1.057-.764 2.535-1.146 4.434-1.146h2.202v-1.057c0-.783-.235-1.41-.705-1.879-.47-.47-1.164-.705-2.084-.705-.803 0-1.478.206-2.026.617s-.822.9-.822 1.468h-2.261c0-.646.225-1.272.675-1.88.47-.625 1.106-1.115 1.909-1.467a6.406 6.406 0 0 1 2.671-.558c1.527 0 2.721.382 3.582 1.145.862.764 1.312 1.81 1.351 3.142v6.107c0 1.213.147 2.173.44 2.877v.206zm-3.759-1.733a4.01 4.01 0 0 0 1.997-.528c.646-.372 1.106-.852 1.38-1.439v-2.73h-1.762c-2.78 0-4.17.812-4.17 2.437 0 .704.236 1.262.706 1.673.489.392 1.106.587 1.85.587zm8.661-4.991c0-2.036.48-3.67 1.44-4.903.958-1.233 2.21-1.85 3.757-1.85 1.566 0 2.8.529 3.7 1.586v-6.9h2.26v18.79h-2.084l-.118-1.409c-.9 1.097-2.153 1.645-3.758 1.645-1.546 0-2.799-.627-3.758-1.88-.959-1.252-1.439-2.887-1.439-4.903zm2.261.264c0 1.488.304 2.662.91 3.524.627.841 1.488 1.262 2.584 1.262 1.429 0 2.476-.646 3.142-1.938v-6.077c-.685-1.253-1.723-1.88-3.113-1.88-1.115 0-1.986.431-2.613 1.292-.606.862-.91 2.134-.91 3.817zm-59.971 28.598c-2.017-.587-3.485-1.302-4.405-2.144-.92-.841-1.38-1.879-1.38-3.112 0-1.41.558-2.574 1.674-3.494 1.135-.92 2.603-1.38 4.404-1.38 1.214 0 2.3.245 3.26.734.958.47 1.702 1.126 2.23 1.967.53.823.793 1.723.793 2.702h-2.378c0-1.077-.342-1.919-1.027-2.525-.686-.627-1.645-.94-2.878-.94-1.155 0-2.065.255-2.73.763-.646.51-.97 1.214-.97 2.114 0 .725.304 1.341.91 1.85.627.51 1.674.97 3.143 1.38 1.487.411 2.652.871 3.493 1.38.842.49 1.459 1.077 1.85 1.762.411.665.617 1.448.617 2.349 0 1.448-.568 2.603-1.703 3.464-1.116.861-2.613 1.292-4.492 1.292-1.234 0-2.379-.235-3.436-.705s-1.879-1.105-2.466-1.908c-.568-.822-.851-1.752-.851-2.79h2.378c0 1.077.391 1.929 1.174 2.555.803.626 1.87.94 3.2.94 1.234 0 2.183-.255 2.849-.764.665-.509.998-1.194.998-2.055 0-.88-.313-1.556-.94-2.026-.606-.49-1.712-.959-3.317-1.41zm14.564 6.312a3.27 3.27 0 0 0 2.114-.734c.607-.489.94-1.096.998-1.82h2.144c-.04.763-.304 1.488-.793 2.173-.47.685-1.106 1.233-1.908 1.644a5.751 5.751 0 0 1 -2.555.587c-1.8 0-3.24-.597-4.316-1.79-1.057-1.214-1.585-2.859-1.585-4.934v-.381c0-1.292.234-2.437.704-3.435.49-.999 1.175-1.772 2.056-2.32.88-.568 1.928-.851 3.141-.851 1.468 0 2.692.45 3.67 1.35.999.881 1.527 2.026 1.586 3.435h-2.144c-.058-.841-.381-1.536-.969-2.084-.587-.568-1.301-.852-2.143-.852-1.155 0-2.055.421-2.701 1.263-.626.822-.94 2.016-.94 3.582v.41c0 1.528.314 2.702.94 3.524.646.822 1.546 1.233 2.701 1.233zm14.196-9.6a9.613 9.613 0 0 0 -1.116-.06c-1.487 0-2.496.627-3.024 1.88v9.395h-2.26v-13.242h2.201l.059 1.527c.724-1.174 1.771-1.761 3.142-1.761.43 0 .763.058.998.176v2.084zm4.54 11.215h-2.26v-13.242h2.26zm-2.437-16.735c0-.372.108-.686.323-.94.235-.254.568-.382.998-.382.45 0 .783.128.999.382.235.254.352.568.352.94 0 .371-.117.685-.352.94-.216.234-.548.351-.999.351-.43 0-.763-.117-.998-.352-.215-.254-.323-.568-.323-.94zm17.235 10.276c0 2.016-.46 3.64-1.38 4.874-.92 1.213-2.173 1.82-3.758 1.82-1.605 0-2.868-.509-3.788-1.527v6.372h-2.26v-18.322h2.084l.088 1.469c.94-1.136 2.222-1.703 3.847-1.703 1.585 0 2.838.597 3.758 1.79.94 1.195 1.41 2.868 1.41 5.021v.206zm-2.26-.264c0-1.488-.324-2.662-.97-3.524-.626-.88-1.497-1.321-2.613-1.321-1.37 0-2.397.607-3.083 1.82v6.342c.686 1.194 1.723 1.791 3.113 1.791 1.096 0 1.957-.42 2.583-1.262.646-.861.97-2.143.97-3.846zm8.208-9.719v3.2h2.466v1.762h-2.466v8.192c0 .528.107.93.323 1.204.215.274.587.41 1.115.41.274 0 .636-.048 1.087-.146v1.82a6.705 6.705 0 0 1 -1.733.235c-1.018 0-1.78-.303-2.29-.91-.509-.607-.763-1.478-.763-2.613v-8.192h-2.408v-1.762h2.408v-3.2h2.26zm18.961 11.422h-3.23l-.998 5.02h-1.732l.969-5.02h-2.907v-1.674h3.23l.851-4.316h-3.17v-1.703h3.493l.998-5.08h1.762l-1.028 5.08h3.23l1.028-5.08h1.761l-1.027 5.08h2.495v1.703h-2.818l-.852 4.316h2.76v1.674h-3.053l-.999 5.02h-1.761zm-2.936-1.674h3.23l.851-4.316h-3.23zm22.144 6.694h-11.684v-1.615l6.165-6.87c.92-1.037 1.547-1.88 1.88-2.525a4.12 4.12 0 0 0 .528-1.997c0-.94-.284-1.703-.851-2.29-.548-.587-1.292-.88-2.232-.88-1.116 0-1.987.322-2.613.968-.626.627-.94 1.507-.94 2.643h-2.26c0-1.625.528-2.946 1.585-3.964s2.467-1.527 4.228-1.527c1.664 0 2.975.44 3.935 1.322.959.86 1.438 2.016 1.438 3.464 0 1.742-1.116 3.827-3.347 6.254l-4.786 5.167h8.955v1.85z" fill="#000" fill-rule="nonzero"/><path d="m49.34 234.655h358.3v79.84h-358.3z" fill="none"/><path d="m75.03 270.888c-2.407-.685-4.168-1.537-5.284-2.555-1.096-1.017-1.644-2.27-1.644-3.758 0-1.683.675-3.073 2.025-4.17 1.351-1.095 3.103-1.643 5.256-1.643 1.468 0 2.77.284 3.905.851 1.155.568 2.046 1.35 2.672 2.349.646.998.969 2.085.969 3.26h-2.849c0-1.293-.411-2.3-1.233-3.025-.822-.744-1.977-1.116-3.465-1.116-1.39 0-2.476.304-3.259.91-.783.607-1.174 1.459-1.174 2.555 0 .861.372 1.595 1.115 2.202.744.607 1.997 1.165 3.759 1.673 1.78.49 3.17 1.038 4.169 1.645 1.018.587 1.761 1.282 2.231 2.084.49.803.734 1.752.734 2.848 0 1.723-.675 3.113-2.026 4.17-1.35 1.037-3.151 1.556-5.402 1.556-1.468 0-2.838-.284-4.11-.852-1.273-.567-2.261-1.34-2.966-2.32-.685-.978-1.028-2.084-1.028-3.317h2.848c0 1.292.47 2.31 1.41 3.053.959.744 2.24 1.116 3.846 1.116 1.488 0 2.623-.303 3.406-.91.802-.607 1.204-1.429 1.204-2.466 0-1.057-.372-1.87-1.116-2.437-.724-.568-2.055-1.136-3.993-1.703zm17.485 7.604c.979 0 1.83-.293 2.555-.88.724-.588 1.125-1.322 1.203-2.203h2.555c-.04.92-.353 1.791-.94 2.613-.567.823-1.34 1.478-2.32 1.968-.958.489-1.976.734-3.053.734-2.153 0-3.875-.725-5.167-2.173-1.273-1.449-1.909-3.426-1.909-5.931v-.44c0-1.547.284-2.917.852-4.11.567-1.214 1.38-2.154 2.437-2.82 1.076-.665 2.339-.998 3.787-.998 1.781 0 3.26.538 4.434 1.615 1.174 1.057 1.8 2.437 1.879 4.14h-2.555c-.078-1.038-.47-1.88-1.174-2.525-.705-.666-1.566-.998-2.584-.998-1.39 0-2.466.499-3.23 1.497-.743.979-1.115 2.408-1.115 4.287v.528c0 1.82.372 3.23 1.115 4.228.764.979 1.84 1.468 3.23 1.468zm17.059-11.51a7.23 7.23 0 0 0 -1.35-.117c-1.782 0-2.986.764-3.612 2.29v11.275h-2.73v-15.884h2.642l.058 1.82c.881-1.41 2.144-2.114 3.788-2.114.529 0 .93.069 1.204.206v2.525zm5.446 13.448h-2.73v-15.884h2.73zm-2.936-20.112c0-.43.127-.793.382-1.087.274-.313.675-.47 1.204-.47.528 0 .93.157 1.203.47.274.294.412.666.412 1.116 0 .43-.138.793-.412 1.087-.274.293-.675.44-1.203.44-.529 0-.93-.147-1.204-.44-.255-.294-.382-.666-.382-1.116zm20.685 12.331c0 2.428-.558 4.385-1.674 5.873-1.096 1.468-2.583 2.202-4.463 2.202-1.937 0-3.454-.617-4.55-1.85v7.663h-2.731v-21.991h2.496l.117 1.761c1.116-1.37 2.652-2.055 4.61-2.055 1.918 0 3.425.724 4.521 2.173 1.116 1.429 1.674 3.425 1.674 5.99zm-2.701-.293c0-1.801-.382-3.22-1.145-4.258-.764-1.037-1.81-1.556-3.142-1.556-1.644 0-2.877.734-3.7 2.202v7.576c.803 1.448 2.046 2.172 3.73 2.172 1.291 0 2.319-.509 3.082-1.527.783-1.037 1.175-2.574 1.175-4.61zm9.85-11.656v3.846h2.966v2.084h-2.966v9.866c0 .626.128 1.106.382 1.438.274.314.724.47 1.35.47.314 0 .744-.059 1.292-.176v2.202c-.704.196-1.4.294-2.084.294-1.214 0-2.134-.362-2.76-1.087-.607-.744-.91-1.79-.91-3.141v-9.866h-2.878v-2.084h2.878v-3.846zm20.289 10.188c-2.408-.685-4.17-1.537-5.285-2.555-1.096-1.017-1.645-2.27-1.645-3.758 0-1.683.676-3.073 2.026-4.17 1.351-1.095 3.103-1.643 5.256-1.643 1.468 0 2.77.284 3.905.851 1.155.568 2.045 1.35 2.672 2.349.646.998.969 2.085.969 3.26h-2.848c0-1.293-.411-2.3-1.233-3.025-.823-.744-1.977-1.116-3.465-1.116-1.39 0-2.476.304-3.26.91-.782.607-1.174 1.459-1.174 2.555 0 .861.372 1.595 1.116 2.202s1.997 1.165 3.758 1.673c1.782.49 3.171 1.038 4.17 1.645 1.017.587 1.761 1.282 2.231 2.084.49.803.734 1.752.734 2.848 0 1.723-.675 3.113-2.026 4.17-1.35 1.037-3.151 1.556-5.402 1.556-1.468 0-2.838-.284-4.11-.852-1.273-.567-2.262-1.34-2.966-2.32-.685-.978-1.028-2.084-1.028-3.317h2.848c0 1.292.47 2.31 1.41 3.053.959.744 2.24 1.116 3.846 1.116 1.487 0 2.623-.303 3.406-.91.802-.607 1.203-1.429 1.203-2.466 0-1.057-.371-1.87-1.115-2.437-.725-.568-2.056-1.136-3.993-1.703zm14.812-10.188v3.846h2.966v2.084h-2.966v9.866c0 .626.127 1.106.382 1.438.274.314.724.47 1.35.47.314 0 .744-.059 1.292-.176v2.202c-.704.196-1.4.294-2.084.294-1.214 0-2.134-.362-2.76-1.087-.607-.744-.91-1.79-.91-3.141v-9.866h-2.878v-2.084h2.878v-3.846zm13.814 6.283a7.23 7.23 0 0 0 -1.35-.118c-1.781 0-2.985.764-3.611 2.29v11.275h-2.731v-15.884h2.642l.06 1.82c.88-1.41 2.142-2.114 3.787-2.114.528 0 .93.069 1.203.206zm8.809 13.74c-2.153 0-3.905-.704-5.256-2.113-1.35-1.43-2.026-3.328-2.026-5.696v-.5c0-1.565.294-2.965.881-4.198.607-1.253 1.449-2.222 2.525-2.907 1.096-.704 2.27-1.057 3.523-1.057 2.075 0 3.68.685 4.816 2.055 1.154 1.351 1.732 3.289 1.732 5.814v1.145h-10.777c.04 1.566.5 2.828 1.38 3.788.881.959 1.997 1.438 3.348 1.438.959 0 1.771-.196 2.437-.587a5.944 5.944 0 0 0 1.732-1.556l1.673 1.292c-1.33 2.055-3.327 3.083-5.99 3.083zm-.353-14.24c-1.096 0-2.016.402-2.76 1.204-.743.783-1.203 1.9-1.38 3.348h7.957v-.206c-.078-1.39-.45-2.457-1.115-3.2-.666-.764-1.566-1.145-2.702-1.145zm19.481 13.947c-.156-.313-.283-.871-.381-1.674-1.253 1.312-2.76 1.968-4.522 1.968-1.566 0-2.848-.44-3.846-1.322-.998-.9-1.498-2.026-1.498-3.376 0-1.664.627-2.946 1.88-3.846 1.252-.92 3.024-1.38 5.314-1.38h2.642v-1.263c0-.94-.284-1.693-.851-2.26-.568-.568-1.41-.852-2.525-.852-.96 0-1.772.245-2.437.734-.646.49-.969 1.086-.969 1.79h-2.73c0-.802.273-1.565.821-2.29.568-.743 1.332-1.33 2.29-1.76.98-.432 2.046-.647 3.201-.647 1.82 0 3.25.46 4.287 1.38 1.037.9 1.575 2.153 1.614 3.758v7.311c0 1.468.186 2.633.558 3.494v.235zm-4.492-2.085a4.83 4.83 0 0 0 2.408-.646c.763-.45 1.321-1.027 1.673-1.732v-3.259h-2.143c-3.328 0-4.991.979-4.991 2.936 0 .842.283 1.507.851 1.997.568.47 1.302.704 2.202.704zm13.594-13.8.088 1.762c1.155-1.37 2.721-2.055 4.698-2.055 2.231 0 3.748.852 4.551 2.555a6.038 6.038 0 0 1 2.055-1.85c.842-.47 1.84-.705 2.995-.705 3.484 0 5.256 1.84 5.314 5.52v10.658h-2.7v-10.482c0-1.135-.265-1.987-.794-2.554-.509-.568-1.38-.852-2.613-.852-.998 0-1.83.304-2.495.91-.666.607-1.057 1.42-1.175 2.437v10.541h-2.73v-10.423c0-2.31-1.126-3.465-3.377-3.465-1.781 0-3.004.764-3.67 2.29v11.598h-2.701v-15.884h2.554zm30.403 16.179c-2.153 0-3.905-.705-5.255-2.114-1.35-1.43-2.026-3.328-2.026-5.696v-.5c0-1.565.294-2.965.88-4.198.608-1.253 1.45-2.222 2.526-2.907 1.096-.704 2.27-1.057 3.523-1.057 2.075 0 3.68.685 4.815 2.055 1.155 1.351 1.733 3.289 1.733 5.814v1.145h-10.776c.04 1.566.5 2.828 1.38 3.788.88.959 1.997 1.438 3.347 1.438.96 0 1.772-.196 2.437-.587a5.944 5.944 0 0 0 1.732-1.556l1.674 1.292c-1.331 2.055-3.328 3.083-5.99 3.083zm-.352-14.24c-1.096 0-2.016.4-2.76 1.203-.744.783-1.204 1.9-1.38 3.348h7.957v-.206c-.078-1.39-.45-2.457-1.116-3.2-.665-.764-1.566-1.145-2.7-1.145zm17.367.499a7.23 7.23 0 0 0 -1.35-.118c-1.782 0-2.986.764-3.612 2.29v11.275h-2.73v-15.884h2.642l.059 1.82c.88-1.41 2.143-2.114 3.787-2.114.529 0 .93.069 1.204.206zm24.546-5.608h-6.87v19.055h-2.82v-19.055h-6.84v-2.32h16.53zm5.46 5.08c1.195-1.469 2.76-2.203 4.699-2.203 3.347 0 5.04 1.89 5.079 5.667v10.511h-2.73v-10.511c0-1.155-.265-2.006-.793-2.555-.51-.548-1.302-.822-2.379-.822-.88 0-1.654.235-2.319.705a4.785 4.785 0 0 0 -1.556 1.85v11.333h-2.73v-22.55h2.73v8.574zm21.522.528a7.23 7.23 0 0 0 -1.35-.118c-1.781 0-2.985.764-3.612 2.29v11.275h-2.73v-15.884h2.642l.059 1.82c.88-1.41 2.143-2.114 3.788-2.114.528 0 .93.069 1.203.206zm8.809 13.74c-2.154 0-3.905-.704-5.256-2.113-1.35-1.43-2.026-3.328-2.026-5.696v-.5c0-1.565.294-2.965.88-4.198.608-1.253 1.45-2.222 2.526-2.907 1.096-.704 2.27-1.057 3.523-1.057 2.075 0 3.68.685 4.815 2.055 1.155 1.351 1.733 3.289 1.733 5.814v1.145h-10.776c.04 1.566.5 2.828 1.38 3.788.881.959 1.997 1.438 3.347 1.438.96 0 1.772-.196 2.437-.587a5.944 5.944 0 0 0 1.733-1.556l1.673 1.292c-1.33 2.055-3.327 3.083-5.99 3.083zm-.353-14.24c-1.096 0-2.016.402-2.76 1.204-.743.783-1.203 1.9-1.38 3.348h7.957v-.206c-.078-1.39-.45-2.457-1.116-3.2-.665-.764-1.565-1.145-2.7-1.145zm19.481 13.947c-.156-.313-.284-.871-.381-1.674-1.253 1.312-2.76 1.968-4.522 1.968-1.566 0-2.848-.44-3.846-1.322-.999-.9-1.498-2.026-1.498-3.376 0-1.664.627-2.946 1.88-3.846 1.252-.92 3.024-1.38 5.314-1.38h2.642v-1.263c0-.94-.284-1.693-.851-2.26-.568-.568-1.41-.852-2.525-.852-.96 0-1.772.245-2.437.734-.646.49-.97 1.086-.97 1.79h-2.73c0-.802.274-1.565.822-2.29.568-.743 1.331-1.33 2.29-1.76.98-.432 2.046-.647 3.2-.647 1.821 0 3.25.46 4.288 1.38 1.037.9 1.575 2.153 1.614 3.758v7.311c0 1.468.186 2.633.558 3.494v.235zm-4.492-2.085a4.83 4.83 0 0 0 2.408-.646c.763-.45 1.32-1.027 1.673-1.732v-3.259h-2.143c-3.328 0-4.992.979-4.992 2.936 0 .842.284 1.507.852 1.997.568.47 1.302.704 2.202.704zm10.394-5.99c0-2.446.577-4.403 1.732-5.871 1.155-1.488 2.662-2.232 4.522-2.232s3.337.636 4.433 1.909v-8.28h2.701v22.549h-2.495l-.118-1.703c-1.096 1.331-2.613 1.997-4.55 1.997-1.84 0-3.338-.754-4.493-2.261s-1.732-3.475-1.732-5.902v-.205zm2.701.294c0 1.801.372 3.21 1.116 4.228.743 1.018 1.771 1.527 3.083 1.527 1.722 0 2.985-.773 3.787-2.32v-7.28c-.822-1.508-2.075-2.262-3.758-2.262-1.331 0-2.369.519-3.112 1.556-.744 1.018-1.116 2.535-1.116 4.551z" fill="#303030" fill-rule="nonzero"/><path d="m52.65 342.938h358.301v79.839h-358.3z" fill="none"/><path d="m75.699 367.338 6.988 17.44 6.988-17.44h3.64v21.374h-2.818v-8.338l.264-8.985-7.017 17.323h-2.144l-7.018-17.264.294 8.926v8.338h-2.819v-21.374h3.643zm31.974 21.374c-.157-.313-.284-.87-.382-1.673-1.252 1.311-2.76 1.967-4.521 1.967-1.566 0-2.848-.44-3.846-1.321-.999-.9-1.498-2.026-1.498-3.377 0-1.664.626-2.946 1.88-3.846 1.252-.92 3.023-1.38 5.314-1.38h2.642v-1.263c0-.94-.284-1.693-.851-2.26-.568-.568-1.41-.852-2.526-.852-.959 0-1.771.245-2.436.734-.646.49-.97 1.087-.97 1.791h-2.73c0-.802.274-1.566.822-2.29.568-.744 1.331-1.331 2.29-1.762.979-.43 2.046-.646 3.2-.646 1.821 0 3.25.46 4.287 1.38 1.038.9 1.576 2.154 1.615 3.759v7.31c0 1.468.186 2.633.558 3.494v.235zm-4.492-2.084a4.83 4.83 0 0 0 2.407-.646c.764-.45 1.322-1.028 1.674-1.733v-3.259h-2.143c-3.328 0-4.992.98-4.992 2.936 0 .842.284 1.508.852 1.997.567.47 1.301.705 2.202.705zm14.005 2.084h-2.73v-15.884h2.73zm-2.936-20.112c0-.43.127-.793.382-1.086.274-.313.675-.47 1.203-.47.529 0 .93.157 1.204.47.274.293.411.665.411 1.115 0 .431-.137.793-.41 1.087-.275.293-.676.44-1.205.44-.528 0-.93-.147-1.203-.44-.255-.294-.382-.666-.382-1.116zm9.85 4.228.089 1.997c1.213-1.527 2.799-2.29 4.756-2.29 3.347 0 5.04 1.888 5.08 5.666v10.511h-2.731v-10.51c0-1.156-.264-2.007-.793-2.555-.509-.548-1.302-.822-2.378-.822-.88 0-1.654.234-2.32.704a4.785 4.785 0 0 0 -1.556 1.85v11.333h-2.73v-15.884zm36.07-3.17h-6.87v19.054h-2.819v-19.055h-6.84v-2.32h16.53v2.32zm5.461 5.079c1.194-1.469 2.76-2.203 4.698-2.203 3.347 0 5.04 1.89 5.08 5.667v10.511h-2.731v-10.51c0-1.156-.264-2.007-.793-2.555-.509-.548-1.301-.822-2.378-.822-.88 0-1.654.234-2.32.704a4.785 4.785 0 0 0 -1.556 1.85v11.333h-2.73v-22.549h2.73zm21.522.528a7.23 7.23 0 0 0 -1.35-.117c-1.782 0-2.986.763-3.612 2.29v11.274h-2.73v-15.884h2.642l.059 1.82c.88-1.409 2.143-2.114 3.787-2.114.529 0 .93.069 1.204.206zm8.808 13.74c-2.153 0-3.905-.704-5.255-2.113-1.351-1.429-2.026-3.328-2.026-5.696v-.5c0-1.565.293-2.965.88-4.198.607-1.253 1.449-2.221 2.526-2.907 1.096-.704 2.27-1.057 3.523-1.057 2.075 0 3.68.686 4.815 2.056 1.155 1.35 1.732 3.288 1.732 5.813v1.145h-10.775c.039 1.566.499 2.829 1.38 3.788.88.959 1.996 1.438 3.347 1.438.96 0 1.771-.195 2.437-.587a5.944 5.944 0 0 0 1.732-1.556l1.674 1.292c-1.331 2.055-3.328 3.083-5.99 3.083zm-.352-14.24c-1.096 0-2.016.402-2.76 1.205-.744.783-1.204 1.898-1.38 3.347h7.957v-.206c-.079-1.39-.45-2.456-1.116-3.2-.665-.763-1.566-1.145-2.701-1.145zm19.48 13.947c-.156-.313-.283-.87-.38-1.673-1.254 1.311-2.76 1.967-4.522 1.967-1.566 0-2.848-.44-3.847-1.321-.998-.9-1.497-2.026-1.497-3.377 0-1.664.626-2.946 1.879-3.846 1.253-.92 3.024-1.38 5.314-1.38h2.643v-1.263c0-.94-.284-1.693-.852-2.26-.567-.568-1.41-.852-2.525-.852-.959 0-1.771.245-2.437.734-.646.49-.969 1.087-.969 1.791h-2.73c0-.802.274-1.566.822-2.29.568-.744 1.33-1.331 2.29-1.762.979-.43 2.046-.646 3.2-.646 1.82 0 3.25.46 4.287 1.38 1.037.9 1.576 2.154 1.615 3.759v7.31c0 1.468.186 2.633.558 3.494v.235h-2.848zm-4.491-2.084a4.83 4.83 0 0 0 2.407-.646c.764-.45 1.321-1.028 1.674-1.733v-3.259h-2.144c-3.327 0-4.991.98-4.991 2.936 0 .842.284 1.508.852 1.997.567.47 1.301.705 2.202.705zm10.393-5.99c0-2.447.578-4.404 1.733-5.872 1.154-1.488 2.662-2.232 4.521-2.232 1.86 0 3.338.637 4.434 1.909v-8.28h2.7v22.55h-2.495l-.117-1.704c-1.096 1.331-2.613 1.997-4.551 1.997-1.84 0-3.338-.754-4.492-2.26-1.155-1.508-1.733-3.475-1.733-5.902zm2.702.294c0 1.8.371 3.21 1.115 4.228.744 1.017 1.772 1.526 3.083 1.526 1.723 0 2.985-.773 3.788-2.32v-7.28c-.822-1.508-2.075-2.261-3.759-2.261-1.33 0-2.368.518-3.112 1.556-.744 1.018-1.115 2.535-1.115 4.55z" fill="#303030" fill-rule="nonzero"/></g></svg>