<svg fill="none" height="318" stroke-linecap="square" stroke-miterlimit="10" width="693" xmlns="http://www.w3.org/2000/svg" xmlns:xlink="http://www.w3.org/1999/xlink"><clipPath id="a"><path d="m75.9 23.4h601.2v257.7h-601.2z"/></clipPath><path d="m0 0h693v318h-693z" fill="#fff"/><path d="m75.5 281.5h602" stroke="#333" stroke-linecap="butt"/><path d="m75.5 195.5h602m-602-86h602m-602-86h602" stroke="#ccc" stroke-linecap="butt"/><path clip-path="url(#a)" d="m171 281h-62v-59a2 2 0 0 1 2-2h58a2 2 0 0 1 2 2z"/><path clip-path="url(#a)" d="m171 281h-62v-59a2 2 0 0 1 2-2h58a2 2 0 0 1 2 2z" fill="#4285f4"/><path clip-path="url(#a)" d="m265 281h-62v-64a2 2 0 0 1 2-2h58a2 2 0 0 1 2 2z"/><path clip-path="url(#a)" d="m265 281h-62v-64a2 2 0 0 1 2-2h58a2 2 0 0 1 2 2z" fill="#4285f4"/><path clip-path="url(#a)" d="m360 281h-62v-151a2 2 0 0 1 2-2h58a2 2 0 0 1 2 2z"/><path clip-path="url(#a)" d="m360 281h-62v-151a2 2 0 0 1 2-2h58a2 2 0 0 1 2 2z" fill="#4285f4"/><path clip-path="url(#a)" d="m455 281h-62v-177a2 2 0 0 1 2-2h58a2 2 0 0 1 2 2z"/><path clip-path="url(#a)" d="m455 281h-62v-177a2 2 0 0 1 2-2h58a2 2 0 0 1 2 2z" fill="#4285f4"/><path clip-path="url(#a)" d="m550 281h-62v-197a2 2 0 0 1 2-2h58a2 2 0 0 1 2 2z"/><path clip-path="url(#a)" d="m550 281h-62v-197a2 2 0 0 1 2-2h58a2 2 0 0 1 2 2z" fill="#4285f4"/><path clip-path="url(#a)" d="m644 281h-62v-232a2 2 0 0 1 2-2h58a2 2 0 0 1 2 2z"/><path clip-path="url(#a)" d="m644 281h-62v-232a2 2 0 0 1 2-2h58a2 2 0 0 1 2 2z" fill="#4285f4"/><path d="m24.447 240.984v1.97l3.453.593v1.11l-8.531-1.485v-2.563q.015-1.343.687-2.047.672-.703 1.828-.593.813.062 1.422.594.61.515.907 1.375l3.609-1.329.078.016v1.172zm-.922 1.813.016-1.625q0-.844-.453-1.422-.454-.578-1.204-.672-.734-.094-1.14.297-.422.375-.438 1.156l-.015 1.703zm3.75-9q.766.734.75 1.89-.031.907-.656 1.344-.625.438-1.719.328l-4.094-.687v-1.063l4.11.688q.265.031.515.016.422-.032.657-.25.234-.22.265-.625.031-1.141-.922-1.75l-4.625-.797v-1.063l6.344 1.094v1zm-5.719-4.078.797.14q-.937-.843-.906-1.937.016-.89.625-1.313.594-.437 1.672-.328l4.156.688v1.062l-4.172-.703q-.281-.031-.531 0-.828.094-.844.969-.015.953 1.016 1.672l4.531.781v1.063l-6.344-1.094zm4.625-7.828q-.656-.094-.922.718l-.328 1.11q-.484 1.39-1.593 1.344-.829-.047-1.36-.766-.547-.719-.531-1.703 0-.953.562-1.547.547-.61 1.422-.594l-.015 1.063q-.47-.016-.766.297-.297.312-.312.828-.016.547.265.937.266.375.703.438.547.078.797-.672l.14-.531q.282-1.094.735-1.547.453-.47 1.125-.422.594.031 1.031.39.438.344.672.938.235.578.219 1.234-.016 1.016-.594 1.672-.578.656-1.484.625v-1.062q.531 0 .86-.328.312-.344.312-.938.015-.578-.235-1-.25-.422-.703-.484zm-1.422-10.813q.97.11 1.75.516.766.406 1.157 1.015.375.594.359 1.313-.031 1.11-.75 1.687l3.063.563v1.062l-8.782-1.515v-.969l.703.125q-.843-.781-.812-1.89.016-.907.672-1.407.64-.516 1.797-.547.375-.015.718.031zm-.125 1.047-.484-.031q-.86 0-1.312.328-.454.312-.485.937-.015.922.875 1.578l3.047.532q.844-.344.86-1.281.015-.782-.61-1.329-.64-.562-1.89-.734zm3.391-5.047q-.031 1.188-.875 1.86-.86.656-2.187.546l-.25-.03q-.938-.095-1.72-.548-.78-.469-1.171-1.125-.39-.672-.375-1.437.016-.969.64-1.531.626-.563 1.704-.61.375-.016.765.031l.485.063v4.14q.859.11 1.468-.28.594-.391.625-1.173.016-.937-.843-1.734l.515-.61q.578.407.907 1.032.312.625.312 1.406zm-5.703-.672q-.016.656.453 1.14.453.485 1.375.782v-3.094l-.094-.015q-.734-.094-1.218.234-.5.328-.516.953zm.203-6.531-.047.5q0 1.016.922 1.61l4.5.765v1.063l-6.344-1.094v-1.031l.735.156q-.891-.672-.86-1.578 0-.203.094-.516zm-.969-5.156.703.14q-.843-.797-.812-1.922 0-.609.266-1.03.265-.423.75-.579-1.047-.89-1.016-2.094.016-.953.64-1.406.61-.453 1.641-.328l4.172.688v1.062l-4.172-.688q-.312-.046-.562 0-.797.11-.813 1.032-.015.578.36 1.062.375.469.968.594l4.219.734v1.063l-4.172-.703q-.656-.078-1 .203-.36.266-.36.844-.03.984.891 1.562l4.641.813v1.062l-6.344-1.11v-1zm6.344-9.047v1.047l-6.344-1.094v-1.063zm-8.656-.875q-.016-.266.156-.438.172-.187.453-.187t.469.172q.172.172.187.453 0 .281-.171.453-.172.172-.438.172-.281-.016-.453-.172-.188-.172-.203-.453zm2.312-3.078.797.14q-.937-.843-.906-1.937.016-.89.625-1.313.594-.437 1.672-.328l4.156.688v1.062l-4.172-.703q-.281-.031-.531 0-.828.094-.844.969-.015.953 1.016 1.672l4.531.781v1.063l-6.344-1.094zm5.719-7.922q.766.734.75 1.89-.031.907-.656 1.344-.625.438-1.719.328l-4.094-.687v-1.063l4.11.688q.265.031.515.016.422-.032.657-.25.234-.22.265-.625.031-1.141-.922-1.75l-4.625-.797v-1.063l6.344 1.094v1zm-7.25-4.781 1.531.265v-1.156l.844.156v1.14l3.938.673q.156.015.28 0 .454-.047.454-.5 0-.188-.047-.516l.875.078q.11.39.11.781-.016.625-.47.954-.452.312-1.218.234l-3.922-.64v1.124l-.844-.156v-1.11l-1.531-.265zm8-3.938q-.031 1.188-.875 1.86-.86.656-2.187.546l-.25-.03q-.938-.095-1.72-.548-.78-.469-1.171-1.125-.39-.672-.375-1.437.016-.969.64-1.531.626-.563 1.704-.61.375-.016.765.031l.485.063v4.14q.859.11 1.468-.28.594-.391.625-1.173.016-.937-.843-1.734l.515-.61q.578.407.907 1.032.312.625.312 1.406zm-5.703-.672q-.016.656.453 1.14.453.485 1.375.782v-3.094l-.094-.015q-.734-.094-1.218.234-.5.328-.516.953zm2.14-6.187q-1.359-.188-2.64-.703-1.281-.532-2.188-1.297-.906-.766-1.375-1.703l.735-.157q.687.922 1.797 1.578 1.093.657 2.625 1.016 1.515.36 2.984.344 1.219 0 2.14-.313.923-.312 1.454-.906l.656.266q-.672.984-2.016 1.5-1.328.515-3.03.469-.563-.016-1.079-.079l-.062-.015zm-2.124-5.375q-.907-.844-.891-1.922.016-.89.625-1.313.594-.437 1.672-.328l4.156.688v1.062l-4.172-.703q-.281-.031-.531 0-.828.094-.844.969-.015.969 1.016 1.672l4.531.781v1.063l-9-1.563v-1.063zm5.562-5.172v1.047l-6.344-1.094v-1.063zm-8.656-.875q-.016-.266.156-.438.172-.187.453-.187t.469.172q.172.172.187.453 0 .281-.171.453-.172.172-.438.172-.281-.016-.453-.172-.188-.172-.203-.453zm5.469-1.297q-1.032-.14-1.797-.547-.766-.422-1.125-1.016-.375-.609-.36-1.328.032-1.093.844-1.656l-.719-.219v-.968l6.203 1.047q1.22.171 1.938 1 .734.812.703 2-.016.64-.312 1.234-.282.594-.797.922l-.641-.594q.844-.578.875-1.516.016-.765-.437-1.28-.438-.532-1.266-.704l-.563-.11q.782.766.766 1.813-.031.594-.328 1.031-.297.422-.86.672-.578.235-1.28.266-.36 0-.844-.047zm.609-1.016q.844.016 1.297-.28.453-.313.484-.938.016-.953-.937-1.641l-2.907-.5q-.875.36-.906 1.281-.015.86.719 1.422.719.547 1.953.64zm-2.984-7.64q-.907-.844-.891-1.922.016-.89.625-1.313.594-.437 1.672-.328l4.156.688v1.062l-4.172-.703q-.281-.031-.531 0-.828.094-.844.969-.015.969 1.016 1.672l4.531.781v1.063l-9-1.563v-1.063zm5.687-6.766q-.031 1.188-.875 1.86-.86.656-2.187.546l-.25-.03q-.938-.095-1.72-.548-.78-.469-1.171-1.125-.39-.672-.375-1.437.016-.969.64-1.531.626-.563 1.704-.61.375-.016.765.031l.485.063v4.14q.859.11 1.468-.28.594-.391.625-1.173.016-.937-.843-1.734l.515-.61q.578.407.907 1.032.312.625.312 1.406zm-5.703-.672q-.016.656.453 1.14.453.485 1.375.782v-3.094l-.094-.015q-.734-.094-1.218.234-.5.328-.516.953zm.203-6.531-.047.5q0 1.016.922 1.61l4.5.765v1.063l-6.344-1.094v-1.031l.735.156q-.891-.672-.86-1.578 0-.204.094-.516zm5.375-4.203v1.047l-6.344-1.094v-1.063zm-8.656-.875q-.016-.266.156-.438.172-.187.453-.187t.469.172q.172.172.187.453 0 .281-.171.453-.172.172-.438.172-.281-.016-.453-.172-.188-.172-.203-.453zm6.937-4.906q-.656-.094-.922.718l-.328 1.11q-.484 1.39-1.593 1.344-.829-.047-1.36-.766-.547-.719-.531-1.703 0-.953.562-1.547.547-.61 1.422-.594l-.015 1.063q-.47-.016-.766.296-.297.313-.312.829-.016.546.265.937.266.375.703.438.547.078.797-.672l.14-.531q.282-1.094.735-1.547.453-.47 1.125-.422.594.031 1.031.39.438.344.672.938.235.578.219 1.234-.016 1.016-.594 1.672-.578.656-1.484.625v-1.062q.531 0 .86-.329.312-.343.312-.937.015-.578-.235-1-.25-.422-.703-.484zm-1.422-10.829q.97.126 1.75.547.782.407 1.157 1 .375.594.359 1.313-.031 1.14-.86 1.703l.735.219v.969l-9-1.563v-1.063l3.36.641q-.844-.766-.813-1.844.016-.921.672-1.421.64-.516 1.797-.547.375 0 .718.03zm-.609 1.016q-.86-.031-1.312.281-.454.297-.485.938-.015.984 1 1.672l2.766.469q.953-.344.984-1.313.016-.625-.375-1.094-.39-.469-1.094-.703-.703-.234-1.484-.25zm3.875-5q-.031 1.188-.875 1.86-.86.656-2.187.546l-.25-.03q-.938-.095-1.72-.548-.78-.469-1.171-1.125-.39-.672-.375-1.437.016-.969.64-1.531.626-.563 1.704-.61.375-.016.765.031l.485.063v4.14q.859.11 1.468-.28.594-.391.625-1.173.016-.937-.843-1.734l.515-.61q.578.407.907 1.032.312.625.312 1.406zm-5.703-.672q-.016.656.453 1.14.453.485 1.375.782v-3.094l-.094-.015q-.734-.094-1.218.234-.5.328-.516.953zm-2.297-5.39 1.531.265v-1.156l.844.156v1.14l3.938.673q.156.015.28 0 .454-.047.454-.5 0-.188-.047-.516l.875.078q.11.39.11.781-.016.626-.47.954-.452.312-1.218.234l-3.922-.64v1.124l-.844-.156v-1.11l-1.531-.265zm0-4 1.531.265v-1.156l.844.156v1.14l3.938.673q.156.015.28 0 .454-.047.454-.5 0-.188-.047-.516l.875.078q.11.39.11.781-.016.626-.47.954-.452.312-1.218.234l-3.922-.64v1.124l-.844-.156v-1.11l-1.531-.265zm8-3.938q-.031 1.188-.875 1.86-.86.656-2.187.546l-.25-.03q-.938-.095-1.72-.548-.78-.469-1.171-1.125-.39-.672-.375-1.437.016-.969.64-1.531.626-.563 1.704-.61.375-.016.765.031l.485.063v4.14q.859.11 1.468-.28.594-.391.625-1.173.016-.937-.843-1.734l.515-.61q.578.407.907 1.032.312.625.312 1.406zm-5.703-.672q-.016.656.453 1.14.453.485 1.375.782v-3.094l-.094-.015q-.734-.094-1.218.234-.5.328-.516.953zm.203-6.531-.047.5q0 1.016.922 1.61l4.5.765v1.063l-6.344-1.094v-1.031l.735.156q-.891-.672-.86-1.578 0-.204.094-.516zm1.953-3.078q1.422.203 2.703.75 1.266.531 2.14 1.281.876.75 1.345 1.672l-.672.156q-1.516-2-4.86-2.672-1.359-.28-2.609-.265-2.5.031-3.594 1.219l-.656-.282q.453-.656 1.219-1.11.75-.452 1.765-.655 1-.22 2.079-.204.562.032 1.062.094z" fill="#424242"/><path d="m68.963 281.96q0 1.906-.657 2.843-.64.922-2.031.922-1.36 0-2.016-.906-.656-.906-.687-2.719v-1.438q0-1.89.64-2.796.657-.922 2.047-.922 1.375 0 2.032.89.656.875.672 2.72v1.405zm-1.094-1.485q0-1.375-.39-2-.376-.64-1.22-.64-.828 0-1.218.64-.375.625-.375 1.922v1.734q0 1.375.39 2.047.407.656 1.219.656.797 0 1.188-.625.39-.625.406-1.953zm-10.766-85.056.438-4.25h4.375v1h-3.453l-.266 2.328q.64-.375 1.437-.375 1.157 0 1.844.781.688.766.688 2.078 0 1.313-.72 2.078-.702.766-1.983.766-1.126 0-1.844-.625-.719-.64-.813-1.75h1.016q.11.734.531 1.11.422.374 1.11.374.75 0 1.187-.515.438-.516.438-1.422 0-.86-.47-1.375-.468-.516-1.25-.516-.702 0-1.109.297l-.28.234zm11.86.64q0 1.907-.657 2.844-.64.922-2.031.922-1.36 0-2.016-.906-.656-.907-.687-2.719v-1.438q0-1.89.64-2.796.657-.922 2.047-.922 1.375 0 2.032.89.656.875.672 2.72zm-1.094-1.484q0-1.375-.39-2-.376-.64-1.22-.64-.828 0-1.218.64-.375.625-.375 1.922v1.734q0 1.375.39 2.047.407.656 1.219.656.797 0 1.188-.625.39-.625.406-1.953zm-14.703-80.775h-1.078v-7.219l-2.188.797v-.984l3.11-1.172h.156zm8.797-3.64q0 1.906-.657 2.843-.64.922-2.031.922-1.36 0-2.016-.906-.656-.907-.687-2.719v-1.438q0-1.89.64-2.796.657-.922 2.047-.922 1.375 0 2.032.89.656.875.672 2.72v1.405zm-1.094-1.485q0-1.375-.39-2-.376-.64-1.22-.64-.828 0-1.218.64-.375.625-.375 1.922v1.734q0 1.375.39 2.047.407.656 1.219.656.797 0 1.188-.625.39-.625.406-1.953zm8.094 1.484q0 1.907-.657 2.844-.64.922-2.031.922-1.36 0-2.016-.906-.656-.907-.687-2.719v-1.438q0-1.89.64-2.796.657-.922 2.047-.922 1.375 0 2.032.89.656.875.672 2.72zm-1.094-1.484q0-1.375-.39-2-.376-.64-1.22-.64-.828 0-1.218.64-.375.625-.375 1.922v1.734q0 1.375.39 2.047.407.656 1.219.656.797 0 1.188-.625.39-.625.406-1.953zm-14.703-80.775h-1.078v-7.219l-2.188.797v-.984l3.11-1.172h.156zm3.937-4.281.438-4.25h4.375v1h-3.453l-.266 2.328q.64-.375 1.437-.375 1.157 0 1.844.781.688.766.688 2.078 0 1.313-.72 2.078-.702.766-1.983.766-1.126 0-1.844-.625-.719-.64-.813-1.75h1.016q.11.734.531 1.11.422.374 1.11.374.75 0 1.187-.515.438-.516.438-1.422 0-.86-.47-1.375-.468-.516-1.25-.516-.702 0-1.109.297l-.28.234zm11.86.64q0 1.907-.657 2.844-.64.922-2.031.922-1.36 0-2.016-.906-.656-.907-.687-2.719v-1.438q0-1.89.64-2.796.657-.922 2.047-.922 1.375 0 2.032.89.656.875.672 2.72zm-1.094-1.484q0-1.375-.39-2-.376-.64-1.22-.64-.828 0-1.218.64-.375.625-.375 1.922v1.734q0 1.375.39 2.047.407.656 1.219.656.797 0 1.188-.625.39-.625.406-1.953zm64.235 276.325h-5.594v-.781l2.953-3.281q.657-.75.907-1.204.25-.468.25-.968 0-.672-.407-1.094-.39-.438-1.078-.438-.797 0-1.25.47-.453.452-.453 1.28h-1.078q0-1.187.75-1.906.766-.734 2.031-.734 1.203 0 1.89.625.688.625.688 1.672 0 1.25-1.609 3l-2.281 2.468h4.281zm6.766-3.64q0 1.906-.657 2.843-.64.922-2.03.922-1.36 0-2.017-.906-.656-.906-.687-2.719v-1.438q0-1.89.64-2.796.657-.922 2.047-.922 1.375 0 2.032.89.656.875.672 2.72v1.405zm-1.094-1.485q0-1.375-.39-2-.376-.64-1.22-.64-.828 0-1.218.64-.375.625-.375 1.922v1.734q0 1.375.39 2.047.407.656 1.22.656.796 0 1.187-.625.39-.625.406-1.953zm6.297 5.125h-1.078v-7.219l-2.188.797v-.984l3.11-1.172h.156zm5.015-4.797h.813q.781-.015 1.219-.406.437-.39.437-1.063 0-1.5-1.5-1.5-.703 0-1.125.407-.406.406-.406 1.062h-1.094q0-1.015.734-1.687.75-.672 1.891-.672 1.203 0 1.89.64.688.641.688 1.782 0 .562-.36 1.078-.359.515-.984.781.704.219 1.079.734.39.516.39 1.266 0 1.14-.75 1.828-.75.672-1.953.672-1.187 0-1.953-.656-.75-.656-.75-1.719h1.094q0 .672.437 1.078.438.406 1.188.406.781 0 1.187-.406.422-.422.422-1.187 0-.735-.453-1.125-.453-.407-1.328-.422h-.813v-.89zm77.693 4.797h-5.594v-.781l2.953-3.281q.657-.75.907-1.204.25-.468.25-.968 0-.672-.406-1.094-.391-.438-1.079-.438-.797 0-1.25.47-.453.452-.453 1.28h-1.078q0-1.187.75-1.906.766-.734 2.031-.734 1.203 0 1.891.625t.688 1.672q0 1.25-1.61 3l-2.281 2.468h4.281zm6.766-3.64q0 1.906-.656 2.843-.641.922-2.032.922-1.36 0-2.015-.906-.657-.906-.688-2.719v-1.438q0-1.89.64-2.796.657-.922 2.048-.922 1.375 0 2.03.89.657.875.673 2.72v1.405zm-1.094-1.485q0-1.375-.39-2-.376-.64-1.22-.64-.827 0-1.218.64-.375.625-.375 1.922v1.734q0 1.375.39 2.047.407.656 1.22.656.796 0 1.187-.625.39-.625.406-1.953zm6.297 5.125h-1.078v-7.219l-2.188.797v-.984l3.11-1.172h.156zm8.016-2.86h1.187v.876h-1.188v1.984h-1.078v-1.984h-3.89v-.641l3.812-5.906h1.156v5.672zm-3.735 0h2.656v-4.187l-.14.235-2.516 3.953zm78.427 2.86h-5.593v-.781l2.953-3.281q.656-.75.906-1.204.25-.468.25-.968 0-.672-.406-1.094-.391-.438-1.078-.438-.797 0-1.25.47-.454.452-.454 1.28h-1.078q0-1.187.75-1.906.766-.734 2.032-.734 1.203 0 1.89.625.688.625.688 1.672 0 1.25-1.61 3l-2.281 2.468h4.281zm6.766-3.64q0 1.906-.656 2.843-.641.922-2.032.922-1.359 0-2.015-.906-.656-.906-.688-2.719v-1.438q0-1.89.64-2.796.657-.922 2.048-.922 1.375 0 2.031.89.656.875.672 2.72v1.405zm-1.094-1.485q0-1.375-.39-2-.375-.64-1.22-.64-.827 0-1.218.64-.375.625-.375 1.922v1.734q0 1.375.39 2.047.407.656 1.22.656.796 0 1.187-.625.39-.625.406-1.953zm6.297 5.125h-1.078v-7.219l-2.188.797v-.984l3.11-1.172h.156zm3.938-4.281.437-4.25h4.375v1h-3.453l-.266 2.328q.64-.375 1.438-.375 1.156 0 1.844.781.687.766.687 2.078 0 1.313-.719 2.078-.703.766-1.984.766-1.125 0-1.844-.625-.719-.64-.812-1.75h1.015q.11.734.532 1.11.421.374 1.109.374.75 0 1.187-.515.438-.516.438-1.422 0-.86-.469-1.375-.469-.516-1.25-.516-.703 0-1.11.297l-.28.235-.875-.22zm78.77 4.281h-5.593v-.781l2.953-3.281q.656-.75.906-1.204.25-.468.25-.968 0-.672-.406-1.094-.39-.438-1.078-.438-.797 0-1.25.47-.453.452-.453 1.28h-1.079q0-1.187.75-1.906.766-.734 2.032-.734 1.203 0 1.89.625.688.625.688 1.672 0 1.25-1.61 3l-2.28 2.468h4.28zm6.766-3.64q0 1.906-.656 2.843-.64.922-2.031.922-1.36 0-2.016-.906-.656-.906-.688-2.719v-1.438q0-1.89.641-2.796.656-.922 2.047-.922 1.375 0 2.031.89.656.875.672 2.72v1.405zm-1.094-1.485q0-1.375-.39-2-.375-.64-1.219-.64-.828 0-1.219.64-.375.625-.375 1.922v1.734q0 1.375.39 2.047.407.656 1.22.656.796 0 1.187-.625.39-.625.406-1.953zm6.297 5.125h-1.078v-7.219l-2.187.797v-.984l3.109-1.172h.156zm7.703-8.531v.906h-.203q-1.265.031-2.015.766-.75.718-.875 2.03.687-.765 1.843-.765 1.11 0 1.782.782.671.78.671 2.03 0 1.313-.718 2.11-.719.797-1.938.797-1.219 0-1.984-.938-.75-.953-.75-2.437v-.406q0-2.36 1-3.61t2.984-1.265zm-1.422 3.844q-.562 0-1.03.328-.47.328-.657.843v.391q0 1.063.469 1.703.484.64 1.187.64.735 0 1.156-.53.422-.547.422-1.422 0-.875-.422-1.407-.421-.546-1.125-.546zm76.428 4.687h-5.594v-.781l2.953-3.281q.656-.75.906-1.204.25-.468.25-.968 0-.672-.406-1.094-.39-.438-1.078-.438-.797 0-1.25.47-.453.452-.453 1.28h-1.078q0-1.187.75-1.906.765-.734 2.03-.734 1.204 0 1.892.625.687.625.687 1.672 0 1.25-1.61 3l-2.28 2.468h4.28v.891zm6.765-3.64q0 1.906-.656 2.843-.64.922-2.031.922-1.36 0-2.016-.906-.656-.906-.687-2.719v-1.438q0-1.89.64-2.796.657-.922 2.047-.922 1.375 0 2.031.89.657.875.672 2.72v1.405zm-1.093-1.485q0-1.375-.391-2-.375-.64-1.219-.64-.828 0-1.219.64-.375.625-.375 1.922v1.734q0 1.375.391 2.047.406.656 1.219.656.797 0 1.187-.625t.407-1.953zm6.296 5.125h-1.078v-7.219l-2.187.797v-.984l3.11-1.172h.155zm8.954-7.922-3.532 7.922h-1.14l3.515-7.64h-4.61v-.891h5.767v.61zm73.755 7.922h-5.594v-.781l2.953-3.281q.656-.75.906-1.204.25-.468.25-.968 0-.672-.406-1.094-.39-.438-1.078-.438-.797 0-1.25.47-.453.452-.453 1.28h-1.078q0-1.187.75-1.906.765-.734 2.031-.734 1.203 0 1.89.625.688.625.688 1.672 0 1.25-1.61 3l-2.28 2.468h4.28v.891zm6.765-3.64q0 1.906-.656 2.843-.64.922-2.031.922-1.36 0-2.016-.906-.656-.906-.687-2.719v-1.438q0-1.89.64-2.796.657-.922 2.047-.922 1.375 0 2.032.89.656.875.671 2.72v1.405zm-1.093-1.485q0-1.375-.39-2-.376-.64-1.22-.64-.828 0-1.218.64-.375.625-.375 1.922v1.734q0 1.375.39 2.047.406.656 1.219.656.797 0 1.187-.625.391-.625.407-1.953zm6.297 5.125h-1.079v-7.219l-2.187.797v-.984l3.11-1.172h.156zm8.625-6.313q0 .641-.344 1.141t-.906.781q.656.282 1.046.844.391.547.391 1.25 0 1.094-.75 1.766-.734.656-1.953.656-1.234 0-1.984-.656-.735-.672-.735-1.766 0-.703.375-1.25.375-.562 1.047-.844-.562-.28-.89-.78-.329-.5-.329-1.141 0-1.079.688-1.704.687-.64 1.828-.64 1.125 0 1.812.64.704.625.704 1.704zm-.891 3.985q0-.719-.453-1.156-.453-.453-1.188-.453-.734 0-1.187.453-.438.437-.438 1.172 0 .718.438 1.14.437.406 1.203.406.75 0 1.187-.421.438-.422.438-1.141zm-1.625-5.438q-.64 0-1.047.407-.39.39-.39 1.078 0 .64.39 1.047.39.406 1.031.406.657 0 1.047-.406.39-.407.39-1.047 0-.656-.405-1.063-.407-.422-1.016-.422z" fill="#757575"/></svg>