<svg version="1.1" viewBox="0.0 0.0 600.0 371.0" fill="none" stroke="none" stroke-linecap="square" stroke-miterlimit="10" width="600" height="371" xmlns:xlink="http://www.w3.org/1999/xlink" xmlns="http://www.w3.org/2000/svg"><path fill="#ffffff" d="M0 0L600.0 0L600.0 371.0L0 371.0L0 0Z" fill-rule="nonzero"/><path stroke="#333333" stroke-width="1.0" stroke-linecap="butt" d="M45.5 312.5L581.5 312.5" fill-rule="nonzero"/><path stroke="#cccccc" stroke-width="1.0" stroke-linecap="butt" d="M45.5 240.5L581.5 240.5" fill-rule="nonzero"/><path stroke="#cccccc" stroke-width="1.0" stroke-linecap="butt" d="M45.5 169.5L581.5 169.5" fill-rule="nonzero"/><path stroke="#cccccc" stroke-width="1.0" stroke-linecap="butt" d="M45.5 97.5L581.5 97.5" fill-rule="nonzero"/><clipPath id="id_0"><path d="M45.55 97.916664L581.45 97.916664L581.45 312.45L45.55 312.45L45.55 97.916664Z" clip-rule="nonzero"/></clipPath><path stroke="#000000" stroke-width="0.0" stroke-linecap="butt" stroke-opacity="0.0" clip-path="url(#id_0)" d="M198.0 312.0L125.0 312.0L125.0 171.0C125.0 169.89543 125.89543 169.0 127.0 169.0L196.0 169.0C197.10457 169.0 198.0 169.89543 198.0 171.0Z" fill-rule="nonzero"/><path fill="#4285f4" clip-path="url(#id_0)" d="M198.0 312.0L125.0 312.0L125.0 171.0C125.0 169.89543 125.89543 169.0 127.0 169.0L196.0 169.0C197.10457 169.0 198.0 169.89543 198.0 171.0Z" fill-rule="nonzero"/><path stroke="#000000" stroke-width="0.0" stroke-linecap="butt" stroke-opacity="0.0" clip-path="url(#id_0)" d="M427.0 312.0L354.0 312.0L354.0 119.0C354.0 117.89543 354.89542 117.0 356.0 117.0L425.0 117.0C426.10458 117.0 427.0 117.89543 427.0 119.0Z" fill-rule="nonzero"/><path fill="#4285f4" clip-path="url(#id_0)" d="M427.0 312.0L354.0 312.0L354.0 119.0C354.0 117.89543 354.89542 117.0 356.0 117.0L425.0 117.0C426.10458 117.0 427.0 117.89543 427.0 119.0Z" fill-rule="nonzero"/><path stroke="#000000" stroke-width="0.0" stroke-linecap="butt" stroke-opacity="0.0" clip-path="url(#id_0)" d="M272.0 312.0L199.0 312.0L199.0 171.0C199.0 169.89543 199.89543 169.0 201.0 169.0L270.0 169.0C271.10458 169.0 272.0 169.89543 272.0 171.0Z" fill-rule="nonzero"/><path fill="#db4437" clip-path="url(#id_0)" d="M272.0 312.0L199.0 312.0L199.0 171.0C199.0 169.89543 199.89543 169.0 201.0 169.0L270.0 169.0C271.10458 169.0 272.0 169.89543 272.0 171.0Z" fill-rule="nonzero"/><path stroke="#000000" stroke-width="0.0" stroke-linecap="butt" stroke-opacity="0.0" clip-path="url(#id_0)" d="M501.0 312.0L428.0 312.0L428.0 295.0C428.0 293.89542 428.89542 293.0 430.0 293.0L499.0 293.0C500.10458 293.0 501.0 293.89542 501.0 295.0Z" fill-rule="nonzero"/><path fill="#db4437" clip-path="url(#id_0)" d="M501.0 312.0L428.0 312.0L428.0 295.0C428.0 293.89542 428.89542 293.0 430.0 293.0L499.0 293.0C500.10458 293.0 501.0 293.89542 501.0 295.0Z" fill-rule="nonzero"/><path fill="#000000" d="M33.05 312.21564Q33.05 310.6844 33.3625 309.7625Q33.675 308.825 34.284374 308.325Q34.909374 307.825 35.846874 307.825Q36.534374 307.825 37.05 308.10626Q37.58125 308.3875 37.925 308.91876Q38.26875 309.4344 38.45625 310.1844Q38.64375 310.9344 38.64375 312.21564Q38.64375 313.73126 38.33125 314.65314Q38.034374 315.575 37.409374 316.09064Q36.8 316.59064 35.846874 316.59064Q34.6125 316.59064 33.89375 315.7Q33.05 314.6375 33.05 312.21564ZM34.128124 312.21564Q34.128124 314.325 34.628124 315.02814Q35.128124 315.73126 35.846874 315.73126Q36.58125 315.73126 37.065624 315.02814Q37.565624 314.325 37.565624 312.21564Q37.565624 310.09064 37.065624 309.40314Q36.58125 308.7 35.83125 308.7Q35.1125 308.7 34.675 309.3094Q34.128124 310.09064 34.128124 312.21564Z" fill-rule="nonzero"/><path fill="#000000" d="M23.05 240.70451Q23.05 239.17326 23.3625 238.25139Q23.675 237.31389 24.284374 236.81389Q24.909374 236.31389 25.846874 236.31389Q26.534374 236.31389 27.05 236.59514Q27.58125 236.87639 27.925 237.40764Q28.26875 237.92326 28.45625 238.67326Q28.64375 239.42326 28.64375 240.70451Q28.64375 242.22014 28.33125 243.14201Q28.034374 244.06389 27.409374 244.57951Q26.8 245.07951 25.846874 245.07951Q24.6125 245.07951 23.89375 244.18889Q23.05 243.12639 23.05 240.70451ZM24.128124 240.70451Q24.128124 242.81389 24.628124 243.51701Q25.128124 244.22014 25.846874 244.22014Q26.58125 244.22014 27.065624 243.51701Q27.565624 242.81389 27.565624 240.70451Q27.565624 238.57951 27.065624 237.89201Q26.58125 237.18889 25.83125 237.18889Q25.1125 237.18889 24.675 237.79826Q24.128124 238.57951 24.128124 240.70451ZM30.64375 244.93889L30.64375 243.73576L31.846874 243.73576L31.846874 244.93889L30.64375 244.93889ZM33.05 242.68889L34.159374 242.59514Q34.284374 243.40764 34.721874 243.81389Q35.175 244.22014 35.815624 244.22014Q36.565624 244.22014 37.096874 243.64201Q37.628124 243.06389 37.628124 242.12639Q37.628124 241.22014 37.1125 240.70451Q36.6125 240.17326 35.784374 240.17326Q35.284374 240.17326 34.8625 240.40764Q34.45625 240.64201 34.221874 241.00139L33.2375 240.87639L34.065624 236.47014L38.346874 236.47014L38.346874 237.47014L34.909374 237.47014L34.45625 239.78264Q35.221874 239.23576 36.065624 239.23576Q37.190624 239.23576 37.95625 240.01701Q38.7375 240.79826 38.7375 242.03264Q38.7375 243.18889 38.065624 244.04826Q37.2375 245.07951 35.815624 245.07951Q34.64375 245.07951 33.89375 244.42326Q33.159374 243.76701 33.05 242.68889Z" fill-rule="nonzero"/><path fill="#000000" d="M37.01875 173.42778L35.971874 173.42778L35.971874 166.70903Q35.58125 167.0684 34.95625 167.4434Q34.346874 167.80278 33.8625 167.97466L33.8625 166.95903Q34.7375 166.53716 35.39375 165.95903Q36.065624 165.36528 36.346874 164.80278L37.01875 164.80278L37.01875 173.42778Z" fill-rule="nonzero"/><path fill="#000000" d="M27.01875 101.916664L25.971874 101.916664L25.971874 95.197914Q25.58125 95.55729 24.95625 95.93229Q24.346874 96.291664 23.8625 96.46354L23.8625 95.447914Q24.7375 95.02604 25.39375 94.447914Q26.065624 93.854164 26.346874 93.291664L27.01875 93.291664L27.01875 101.916664ZM30.64375 101.916664L30.64375 100.71354L31.846874 100.71354L31.846874 101.916664L30.64375 101.916664ZM33.05 99.666664L34.159374 99.572914Q34.284374 100.385414 34.721874 100.791664Q35.175 101.197914 35.815624 101.197914Q36.565624 101.197914 37.096874 100.61979Q37.628124 100.041664 37.628124 99.104164Q37.628124 98.197914 37.1125 97.68229Q36.6125 97.15104 35.784374 97.15104Q35.284374 97.15104 34.8625 97.385414Q34.45625 97.61979 34.221874 97.979164L33.2375 97.854164L34.065624 93.447914L38.346874 93.447914L38.346874 94.447914L34.909374 94.447914L34.45625 96.760414Q35.221874 96.21354 36.065624 96.21354Q37.190624 96.21354 37.95625 96.99479Q38.7375 97.77604 38.7375 99.010414Q38.7375 100.166664 38.065624 101.02604Q37.2375 102.05729 35.815624 102.05729Q34.64375 102.05729 33.89375 101.40104Q33.159374 100.74479 33.05 99.666664Z" fill-rule="nonzero"/><path fill="#000000" d="M153.07248 346.45L153.07248 335.6375L151.19748 335.6375L151.19748 333.9969L153.07248 333.9969L153.07248 332.6844Q153.07248 331.41876 153.29123 330.8094Q153.5881 329.9969 154.35373 329.4969Q155.13498 328.98126 156.50998 328.98126Q157.4006 328.98126 158.47873 329.1844L158.16623 331.02814Q157.50998 330.90314 156.91623 330.90314Q155.9631 330.90314 155.55685 331.325Q155.16623 331.73126 155.16623 332.85626L155.16623 333.9969L157.5881 333.9969L157.5881 335.6375L155.16623 335.6375L155.16623 346.45L153.07248 346.45ZM167.68185 344.91876Q166.50998 345.90314 165.41623 346.325Q164.3381 346.73126 163.10373 346.73126Q161.05685 346.73126 159.94748 345.73126Q158.85373 344.73126 158.85373 343.16876Q158.85373 342.2469 159.25998 341.4969Q159.68185 340.7469 160.35373 340.29376Q161.0256 339.825 161.86935 339.59064Q162.49435 339.4344 163.74435 339.27814Q166.30685 338.96564 167.50998 338.54376Q167.5256 338.1219 167.5256 337.9969Q167.5256 336.71564 166.91623 336.1844Q166.11935 335.46564 164.5256 335.46564Q163.0256 335.46564 162.32248 335.9969Q161.61935 336.5125 161.2756 337.84064L159.2131 337.5594Q159.49435 336.23126 160.13498 335.41876Q160.7756 334.60626 161.99435 334.16876Q163.2131 333.71564 164.82248 333.71564Q166.41623 333.71564 167.41623 334.09064Q168.41623 334.46564 168.88498 335.04376Q169.35373 335.60626 169.54123 336.48126Q169.63498 337.0125 169.63498 338.41876L169.63498 341.23126Q169.63498 344.16876 169.7756 344.95Q169.91623 345.73126 170.30685 346.45L168.10373 346.45Q167.7756 345.79376 167.68185 344.91876ZM167.50998 340.2Q166.35373 340.66876 164.05685 340.9969Q162.75998 341.1844 162.2131 341.41876Q161.68185 341.65314 161.38498 342.10626Q161.10373 342.5594 161.10373 343.10626Q161.10373 343.95 161.72873 344.5125Q162.36935 345.075 163.60373 345.075Q164.82248 345.075 165.7756 344.54376Q166.72873 344.0125 167.16623 343.09064Q167.50998 342.3719 167.50998 340.98126L167.50998 340.2ZM171.7131 342.73126L173.80685 342.40314Q173.97873 343.65314 174.7756 344.325Q175.5881 344.9969 177.0256 344.9969Q178.47873 344.9969 179.18185 344.40314Q179.88498 343.8094 179.88498 343.0125Q179.88498 342.29376 179.25998 341.8875Q178.8381 341.60626 177.10373 341.16876Q174.79123 340.59064 173.88498 340.16876Q172.99435 339.73126 172.5256 338.98126Q172.07248 338.21564 172.07248 337.3094Q172.07248 336.48126 172.44748 335.77814Q172.8381 335.0594 173.49435 334.59064Q173.97873 334.23126 174.82248 333.98126Q175.68185 333.71564 176.6506 333.71564Q178.11935 333.71564 179.22873 334.1375Q180.3381 334.5594 180.85373 335.29376Q181.38498 336.0125 181.5881 337.21564L179.5256 337.4969Q179.38498 336.52814 178.7131 335.9969Q178.04123 335.45 176.80685 335.45Q175.35373 335.45 174.72873 335.9344Q174.10373 336.41876 174.10373 337.0594Q174.10373 337.46564 174.36935 337.79376Q174.61935 338.1375 175.18185 338.35626Q175.49435 338.48126 177.04123 338.90314Q179.2756 339.4969 180.1506 339.8875Q181.04123 340.2625 181.54123 340.9969Q182.05685 341.71564 182.05685 342.79376Q182.05685 343.84064 181.43185 344.77814Q180.82248 345.71564 179.66623 346.23126Q178.50998 346.73126 177.04123 346.73126Q174.61935 346.73126 173.3381 345.73126Q172.07248 344.71564 171.7131 342.73126ZM189.16623 344.5594L189.47873 346.41876Q188.5881 346.6219 187.88498 346.6219Q186.72873 346.6219 186.0881 346.2625Q185.4631 345.8875 185.19748 345.29376Q184.94748 344.7 184.94748 342.8094L184.94748 335.6375L183.4006 335.6375L183.4006 333.9969L184.94748 333.9969L184.94748 330.91876L187.04123 329.65314L187.04123 333.9969L189.16623 333.9969L189.16623 335.6375L187.04123 335.6375L187.04123 342.91876Q187.04123 343.825 187.1506 344.09064Q187.2756 344.34064 187.5256 344.4969Q187.7756 344.6375 188.24435 344.6375Q188.5881 344.6375 189.16623 344.5594ZM199.68185 341.8875L201.75998 342.15314Q201.41623 344.3094 200.00998 345.52814Q198.61935 346.73126 196.57248 346.73126Q194.0256 346.73126 192.4631 345.0594Q190.91623 343.3875 190.91623 340.27814Q190.91623 338.2625 191.5881 336.7469Q192.25998 335.23126 193.61935 334.48126Q194.97873 333.71564 196.5881 333.71564Q198.61935 333.71564 199.9006 334.7469Q201.19748 335.77814 201.55685 337.65314L199.50998 337.98126Q199.2131 336.71564 198.4631 336.09064Q197.72873 335.45 196.66623 335.45Q195.07248 335.45 194.07248 336.60626Q193.0881 337.7469 193.0881 340.21564Q193.0881 342.71564 194.04123 343.85626Q195.00998 344.9969 196.55685 344.9969Q197.79123 344.9969 198.61935 344.23126Q199.4631 343.46564 199.68185 341.8875ZM202.7756 340.23126Q202.7756 336.7625 204.69748 335.10626Q206.30685 333.71564 208.61935 333.71564Q211.18185 333.71564 212.80685 335.40314Q214.43185 337.09064 214.43185 340.04376Q214.43185 342.45 213.7131 343.825Q212.99435 345.2 211.61935 345.96564Q210.24435 346.73126 208.61935 346.73126Q205.99435 346.73126 204.38498 345.0594Q202.7756 343.3719 202.7756 340.23126ZM204.94748 340.23126Q204.94748 342.6219 205.97873 343.8094Q207.0256 344.9969 208.61935 344.9969Q210.18185 344.9969 211.22873 343.8094Q212.2756 342.60626 212.2756 340.15314Q212.2756 337.84064 211.2131 336.65314Q210.16623 335.46564 208.61935 335.46564Q207.0256 335.46564 205.97873 336.65314Q204.94748 337.84064 204.94748 340.23126ZM216.55685 346.45L216.55685 333.9969L218.44748 333.9969L218.44748 335.7469Q219.04123 334.84064 220.00998 334.27814Q220.97873 333.71564 222.22873 333.71564Q223.60373 333.71564 224.47873 334.29376Q225.36935 334.8719 225.74435 335.90314Q227.2131 333.71564 229.5881 333.71564Q231.43185 333.71564 232.43185 334.7469Q233.43185 335.77814 233.43185 337.90314L233.43185 346.45L231.32248 346.45L231.32248 338.60626Q231.32248 337.34064 231.11935 336.79376Q230.91623 336.23126 230.36935 335.8875Q229.8381 335.54376 229.11935 335.54376Q227.80685 335.54376 226.93185 336.41876Q226.07248 337.29376 226.07248 339.21564L226.07248 346.45L223.9631 346.45L223.9631 338.35626Q223.9631 336.95 223.44748 336.2469Q222.93185 335.54376 221.75998 335.54376Q220.86935 335.54376 220.10373 336.0125Q219.35373 336.48126 219.00998 337.3875Q218.66623 338.29376 218.66623 339.9969L218.66623 346.45L216.55685 346.45ZM236.55685 351.21564L236.55685 333.9969L238.47873 333.9969L238.47873 335.6219Q239.16623 334.66876 240.00998 334.2Q240.86935 333.71564 242.0881 333.71564Q243.68185 333.71564 244.9006 334.54376Q246.11935 335.35626 246.74435 336.85626Q247.36935 338.35626 247.36935 340.1375Q247.36935 342.04376 246.68185 343.575Q245.99435 345.10626 244.68185 345.91876Q243.38498 346.73126 241.94748 346.73126Q240.88498 346.73126 240.04123 346.29376Q239.2131 345.84064 238.66623 345.15314L238.66623 351.21564L236.55685 351.21564ZM238.47873 340.29376Q238.47873 342.7 239.44748 343.85626Q240.41623 344.9969 241.80685 344.9969Q243.2131 344.9969 244.2131 343.8094Q245.2131 342.6219 245.2131 340.1219Q245.2131 337.7469 244.22873 336.5594Q243.25998 335.3719 241.9006 335.3719Q240.54123 335.3719 239.50998 336.6375Q238.47873 337.8875 238.47873 340.29376Z" fill-rule="nonzero"/><path fill="#000000" d="M387.75565 346.45L387.75565 344.6219Q386.30252 346.73126 383.81815 346.73126Q382.70877 346.73126 381.75565 346.3094Q380.80252 345.8875 380.33377 345.2469Q379.88065 344.60626 379.69315 343.6844Q379.55252 343.0594 379.55252 341.71564L379.55252 333.9969L381.6619 333.9969L381.6619 340.90314Q381.6619 342.5594 381.80252 343.1375Q381.99002 343.96564 382.63065 344.45Q383.2869 344.91876 384.24002 344.91876Q385.17752 344.91876 386.00565 344.4344Q386.8494 343.9344 387.19315 343.10626Q387.5369 342.2625 387.5369 340.66876L387.5369 333.9969L389.64627 333.9969L389.64627 346.45L387.75565 346.45ZM392.5994 351.21564L392.5994 333.9969L394.52127 333.9969L394.52127 335.6219Q395.20877 334.66876 396.05252 334.2Q396.9119 333.71564 398.13065 333.71564Q399.7244 333.71564 400.94315 334.54376Q402.1619 335.35626 402.7869 336.85626Q403.4119 338.35626 403.4119 340.1375Q403.4119 342.04376 402.7244 343.575Q402.0369 345.10626 400.7244 345.91876Q399.42752 346.73126 397.99002 346.73126Q396.92752 346.73126 396.08377 346.29376Q395.25565 345.84064 394.70877 345.15314L394.70877 351.21564L392.5994 351.21564ZM394.52127 340.29376Q394.52127 342.7 395.49002 343.85626Q396.45877 344.9969 397.8494 344.9969Q399.25565 344.9969 400.25565 343.8094Q401.25565 342.6219 401.25565 340.1219Q401.25565 337.7469 400.27127 336.5594Q399.30252 335.3719 397.94315 335.3719Q396.58377 335.3719 395.55252 336.6375Q394.52127 337.8875 394.52127 340.29376ZM404.75565 342.73126L406.8494 342.40314Q407.02127 343.65314 407.81815 344.325Q408.63065 344.9969 410.06815 344.9969Q411.52127 344.9969 412.2244 344.40314Q412.92752 343.8094 412.92752 343.0125Q412.92752 342.29376 412.30252 341.8875Q411.88065 341.60626 410.14627 341.16876Q407.83377 340.59064 406.92752 340.16876Q406.0369 339.73126 405.56815 338.98126Q405.11502 338.21564 405.11502 337.3094Q405.11502 336.48126 405.49002 335.77814Q405.88065 335.0594 406.5369 334.59064Q407.02127 334.23126 407.86502 333.98126Q408.7244 333.71564 409.69315 333.71564Q411.1619 333.71564 412.27127 334.1375Q413.38065 334.5594 413.89627 335.29376Q414.42752 336.0125 414.63065 337.21564L412.56815 337.4969Q412.42752 336.52814 411.75565 335.9969Q411.08377 335.45 409.8494 335.45Q408.39627 335.45 407.77127 335.9344Q407.14627 336.41876 407.14627 337.0594Q407.14627 337.46564 407.4119 337.79376Q407.6619 338.1375 408.2244 338.35626Q408.5369 338.48126 410.08377 338.90314Q412.31815 339.4969 413.19315 339.8875Q414.08377 340.2625 414.58377 340.9969Q415.0994 341.71564 415.0994 342.79376Q415.0994 343.84064 414.4744 344.77814Q413.86502 345.71564 412.70877 346.23126Q411.55252 346.73126 410.08377 346.73126Q407.6619 346.73126 406.38065 345.73126Q405.11502 344.71564 404.75565 342.73126ZM422.20877 344.5594L422.52127 346.41876Q421.63065 346.6219 420.92752 346.6219Q419.77127 346.6219 419.13065 346.2625Q418.50565 345.8875 418.24002 345.29376Q417.99002 344.7 417.99002 342.8094L417.99002 335.6375L416.44315 335.6375L416.44315 333.9969L417.99002 333.9969L417.99002 330.91876L420.08377 329.65314L420.08377 333.9969L422.20877 333.9969L422.20877 335.6375L420.08377 335.6375L420.08377 342.91876Q420.08377 343.825 420.19315 344.09064Q420.31815 344.34064 420.56815 344.4969Q420.81815 344.6375 421.2869 344.6375Q421.63065 344.6375 422.20877 344.5594ZM424.58377 346.45L424.58377 333.9969L426.4744 333.9969L426.4744 335.8875Q427.20877 334.5594 427.81815 334.1375Q428.44315 333.71564 429.17752 333.71564Q430.24002 333.71564 431.3494 334.40314L430.61502 336.35626Q429.8494 335.90314 429.06815 335.90314Q428.38065 335.90314 427.81815 336.325Q427.27127 336.73126 427.0369 337.46564Q426.69315 338.59064 426.69315 339.9344L426.69315 346.45L424.58377 346.45ZM441.13065 342.4344L443.30252 342.71564Q442.7869 344.6219 441.39627 345.6844Q440.00565 346.73126 437.83377 346.73126Q435.0994 346.73126 433.49002 345.0594Q431.89627 343.3719 431.89627 340.325Q431.89627 337.1844 433.50565 335.45Q435.13065 333.71564 437.70877 333.71564Q440.20877 333.71564 441.7869 335.41876Q443.38065 337.1219 443.38065 340.2Q443.38065 340.3875 443.36502 340.7625L434.08377 340.7625Q434.19315 342.8094 435.24002 343.90314Q436.2869 344.9969 437.8494 344.9969Q439.00565 344.9969 439.81815 344.3875Q440.64627 343.77814 441.13065 342.4344ZM434.19315 339.02814L441.14627 339.02814Q441.00565 337.46564 440.3494 336.66876Q439.3494 335.45 437.74002 335.45Q436.2869 335.45 435.2869 336.4344Q434.30252 337.40314 434.19315 339.02814ZM453.7244 344.91876Q452.55252 345.90314 451.45877 346.325Q450.38065 346.73126 449.14627 346.73126Q447.0994 346.73126 445.99002 345.73126Q444.89627 344.73126 444.89627 343.16876Q444.89627 342.2469 445.30252 341.4969Q445.7244 340.7469 446.39627 340.29376Q447.06815 339.825 447.9119 339.59064Q448.5369 339.4344 449.7869 339.27814Q452.3494 338.96564 453.55252 338.54376Q453.56815 338.1219 453.56815 337.9969Q453.56815 336.71564 452.95877 336.1844Q452.1619 335.46564 450.56815 335.46564Q449.06815 335.46564 448.36502 335.9969Q447.6619 336.5125 447.31815 337.84064L445.25565 337.5594Q445.5369 336.23126 446.17752 335.41876Q446.81815 334.60626 448.0369 334.16876Q449.25565 333.71564 450.86502 333.71564Q452.45877 333.71564 453.45877 334.09064Q454.45877 334.46564 454.92752 335.04376Q455.39627 335.60626 455.58377 336.48126Q455.67752 337.0125 455.67752 338.41876L455.67752 341.23126Q455.67752 344.16876 455.81815 344.95Q455.95877 345.73126 456.3494 346.45L454.14627 346.45Q453.81815 345.79376 453.7244 344.91876ZM453.55252 340.2Q452.39627 340.66876 450.0994 340.9969Q448.80252 341.1844 448.25565 341.41876Q447.7244 341.65314 447.42752 342.10626Q447.14627 342.5594 447.14627 343.10626Q447.14627 343.95 447.77127 344.5125Q448.4119 345.075 449.64627 345.075Q450.86502 345.075 451.81815 344.54376Q452.77127 344.0125 453.20877 343.09064Q453.55252 342.3719 453.55252 340.98126L453.55252 340.2ZM458.5994 346.45L458.5994 333.9969L460.49002 333.9969L460.49002 335.7469Q461.08377 334.84064 462.05252 334.27814Q463.02127 333.71564 464.27127 333.71564Q465.64627 333.71564 466.52127 334.29376Q467.4119 334.8719 467.7869 335.90314Q469.25565 333.71564 471.63065 333.71564Q473.4744 333.71564 474.4744 334.7469Q475.4744 335.77814 475.4744 337.90314L475.4744 346.45L473.36502 346.45L473.36502 338.60626Q473.36502 337.34064 473.1619 336.79376Q472.95877 336.23126 472.4119 335.8875Q471.88065 335.54376 471.1619 335.54376Q469.8494 335.54376 468.9744 336.41876Q468.11502 337.29376 468.11502 339.21564L468.11502 346.45L466.00565 346.45L466.00565 338.35626Q466.00565 336.95 465.49002 336.2469Q464.9744 335.54376 463.80252 335.54376Q462.9119 335.54376 462.14627 336.0125Q461.39627 336.48126 461.05252 337.3875Q460.70877 338.29376 460.70877 339.9969L460.70877 346.45L458.5994 346.45Z" fill-rule="nonzero"/><path fill="#4285f4" d="M18.55 27.55C18.55 26.997715 18.997715 26.55 19.55 26.55L29.55 26.55C30.102285 26.55 30.55 26.997715 30.55 27.55L30.55 37.55C30.55 38.102283 30.102285 38.55 29.55 38.55L19.55 38.55C18.997715 38.55 18.55 38.102283 18.55 37.55Z" fill-rule="nonzero"/><path fill="#1a1a1a" d="M48.253124 35.9875L50.33125 36.253124Q49.9875 38.409374 48.58125 39.628124Q47.190624 40.83125 45.14375 40.83125Q42.596874 40.83125 41.034374 39.159374Q39.4875 37.4875 39.4875 34.378124Q39.4875 32.3625 40.159374 30.846874Q40.83125 29.33125 42.190624 28.58125Q43.55 27.815624 45.159374 27.815624Q47.190624 27.815624 48.471874 28.846874Q49.76875 29.878124 50.128124 31.753124L48.08125 32.08125Q47.784374 30.815624 47.034374 30.190624Q46.3 29.55 45.2375 29.55Q43.64375 29.55 42.64375 30.70625Q41.659374 31.846874 41.659374 34.315624Q41.659374 36.815624 42.6125 37.95625Q43.58125 39.096874 45.128124 39.096874Q46.3625 39.096874 47.190624 38.33125Q48.034374 37.565624 48.253124 35.9875ZM51.346874 34.33125Q51.346874 30.8625 53.26875 29.20625Q54.878124 27.815624 57.190624 27.815624Q59.753124 27.815624 61.378124 29.503124Q63.003124 31.190624 63.003124 34.14375Q63.003124 36.55 62.284374 37.925Q61.565624 39.3 60.190624 40.065624Q58.815624 40.83125 57.190624 40.83125Q54.565624 40.83125 52.95625 39.159374Q51.346874 37.471874 51.346874 34.33125ZM53.51875 34.33125Q53.51875 36.721874 54.55 37.909374Q55.596874 39.096874 57.190624 39.096874Q58.753124 39.096874 59.8 37.909374Q60.846874 36.70625 60.846874 34.253124Q60.846874 31.940624 59.784374 30.753124Q58.7375 29.565624 57.190624 29.565624Q55.596874 29.565624 54.55 30.753124Q53.51875 31.940624 53.51875 34.33125ZM65.12813 40.55L65.12813 28.096874L67.01875 28.096874L67.01875 29.846874Q67.6125 28.940624 68.58125 28.378124Q69.55 27.815624 70.8 27.815624Q72.175 27.815624 73.05 28.39375Q73.94063 28.971874 74.31563 30.003124Q75.78438 27.815624 78.15938 27.815624Q80.00313 27.815624 81.00313 28.846874Q82.00313 29.878124 82.00313 32.003124L82.00313 40.55L79.89375 40.55L79.89375 32.70625Q79.89375 31.440624 79.69063 30.89375Q79.4875 30.33125 78.94063 29.9875Q78.40938 29.64375 77.69063 29.64375Q76.37813 29.64375 75.50313 30.51875Q74.64375 31.39375 74.64375 33.315624L74.64375 40.55L72.53438 40.55L72.53438 32.45625Q72.53438 31.05 72.01875 30.346874Q71.50313 29.64375 70.33125 29.64375Q69.44063 29.64375 68.675 30.1125Q67.925 30.58125 67.58125 31.4875Q67.2375 32.39375 67.2375 34.096874L67.2375 40.55L65.12813 40.55ZM85.12813 45.315624L85.12813 28.096874L87.05 28.096874L87.05 29.721874Q87.7375 28.76875 88.58125 28.3Q89.44063 27.815624 90.65938 27.815624Q92.25313 27.815624 93.47188 28.64375Q94.69063 29.45625 95.31563 30.95625Q95.94063 32.45625 95.94063 34.2375Q95.94063 36.14375 95.25313 37.675Q94.56563 39.20625 93.25313 40.01875Q91.95625 40.83125 90.51875 40.83125Q89.45625 40.83125 88.6125 40.39375Q87.78438 39.940624 87.2375 39.253124L87.2375 45.315624L85.12813 45.315624ZM87.05 34.39375Q87.05 36.8 88.01875 37.95625Q88.9875 39.096874 90.37813 39.096874Q91.78438 39.096874 92.78438 37.909374Q93.78438 36.721874 93.78438 34.221874Q93.78438 31.846874 92.8 30.659374Q91.83125 29.471874 90.47188 29.471874Q89.1125 29.471874 88.08125 30.7375Q87.05 31.9875 87.05 34.39375ZM98.14375 25.8L98.14375 23.3625L100.25313 23.3625L100.25313 25.8L98.14375 25.8ZM98.14375 40.55L98.14375 28.096874L100.25313 28.096874L100.25313 40.55L98.14375 40.55ZM103.08125 40.55L103.08125 23.3625L105.19063 23.3625L105.19063 40.55L103.08125 40.55ZM116.65938 36.534374L118.83125 36.815624Q118.31563 38.721874 116.925 39.784374Q115.53438 40.83125 113.3625 40.83125Q110.62813 40.83125 109.01875 39.159374Q107.425 37.471874 107.425 34.425Q107.425 31.284374 109.03438 29.55Q110.65938 27.815624 113.2375 27.815624Q115.7375 27.815624 117.31563 29.51875Q118.90938 31.221874 118.90938 34.3Q118.90938 34.4875 118.89375 34.8625L109.6125 34.8625Q109.72188 36.909374 110.76875 38.003124Q111.81563 39.096874 113.37813 39.096874Q114.53438 39.096874 115.34688 38.4875Q116.175 37.878124 116.65938 36.534374ZM109.72188 33.128124L116.675 33.128124Q116.53438 31.565624 115.87813 30.76875Q114.87813 29.55 113.26875 29.55Q111.81563 29.55 110.81563 30.534374Q109.83125 31.503124 109.72188 33.128124ZM132.15938 45.596874Q130.425 43.39375 129.20625 40.440624Q128.00313 37.4875 128.00313 34.33125Q128.00313 31.534374 128.90938 28.9875Q129.95625 26.01875 132.15938 23.08125L133.675 23.08125Q132.25313 25.51875 131.8 26.55Q131.08125 28.175 130.675 29.925Q130.175 32.128124 130.175 34.33125Q130.175 39.971874 133.675 45.596874L132.15938 45.596874ZM136.12813 40.55L136.12813 28.096874L138.03438 28.096874L138.03438 29.878124Q139.40938 27.815624 141.9875 27.815624Q143.1125 27.815624 144.05 28.221874Q145.00313 28.628124 145.47188 29.284374Q145.94063 29.940624 146.12813 30.846874Q146.25313 31.425 146.25313 32.89375L146.25313 40.55L144.14375 40.55L144.14375 32.971874Q144.14375 31.690624 143.89375 31.05Q143.64375 30.409374 143.01875 30.034374Q142.39375 29.64375 141.55 29.64375Q140.20625 29.64375 139.22188 30.503124Q138.2375 31.3625 138.2375 33.753124L138.2375 40.55L136.12813 40.55ZM148.34688 34.33125Q148.34688 30.8625 150.26875 29.20625Q151.87813 27.815624 154.19063 27.815624Q156.75313 27.815624 158.37813 29.503124Q160.00313 31.190624 160.00313 34.14375Q160.00313 36.55 159.28438 37.925Q158.56563 39.3 157.19063 40.065624Q155.81563 40.83125 154.19063 40.83125Q151.56563 40.83125 149.95625 39.159374Q148.34688 37.471874 148.34688 34.33125ZM150.51875 34.33125Q150.51875 36.721874 151.55 37.909374Q152.59688 39.096874 154.19063 39.096874Q155.75313 39.096874 156.8 37.909374Q157.84688 36.70625 157.84688 34.253124Q157.84688 31.940624 156.78438 30.753124Q155.7375 29.565624 154.19063 29.565624Q152.59688 29.565624 151.55 30.753124Q150.51875 31.940624 150.51875 34.33125ZM162.1125 40.55L162.1125 28.096874L164.00313 28.096874L164.00313 29.9875Q164.7375 28.659374 165.34688 28.2375Q165.97188 27.815624 166.70625 27.815624Q167.76875 27.815624 168.87813 28.503124L168.14375 30.45625Q167.37813 30.003124 166.59688 30.003124Q165.90938 30.003124 165.34688 30.425Q164.8 30.83125 164.56563 31.565624Q164.22188 32.690624 164.22188 34.034374L164.22188 40.55L162.1125 40.55ZM170.12813 40.55L170.12813 28.096874L172.01875 28.096874L172.01875 29.846874Q172.6125 28.940624 173.58125 28.378124Q174.55 27.815624 175.8 27.815624Q177.175 27.815624 178.05 28.39375Q178.94063 28.971874 179.31563 30.003124Q180.78438 27.815624 183.15938 27.815624Q185.00313 27.815624 186.00313 28.846874Q187.00313 29.878124 187.00313 32.003124L187.00313 40.55L184.89375 40.55L184.89375 32.70625Q184.89375 31.440624 184.69063 30.89375Q184.4875 30.33125 183.94063 29.9875Q183.40938 29.64375 182.69063 29.64375Q181.37813 29.64375 180.50313 30.51875Q179.64375 31.39375 179.64375 33.315624L179.64375 40.55L177.53438 40.55L177.53438 32.45625Q177.53438 31.05 177.01875 30.346874Q176.50313 29.64375 175.33125 29.64375Q174.44063 29.64375 173.675 30.1125Q172.925 30.58125 172.58125 31.4875Q172.2375 32.39375 172.2375 34.096874L172.2375 40.55L170.12813 40.55ZM198.25313 39.01875Q197.08125 40.003124 195.9875 40.425Q194.90938 40.83125 193.675 40.83125Q191.62813 40.83125 190.51875 39.83125Q189.425 38.83125 189.425 37.26875Q189.425 36.346874 189.83125 35.596874Q190.25313 34.846874 190.925 34.39375Q191.59688 33.925 192.44063 33.690624Q193.06563 33.534374 194.31563 33.378124Q196.87813 33.065624 198.08125 32.64375Q198.09688 32.221874 198.09688 32.096874Q198.09688 30.815624 197.4875 30.284374Q196.69063 29.565624 195.09688 29.565624Q193.59688 29.565624 192.89375 30.096874Q192.19063 30.6125 191.84688 31.940624L189.78438 31.659374Q190.06563 30.33125 190.70625 29.51875Q191.34688 28.70625 192.56563 28.26875Q193.78438 27.815624 195.39375 27.815624Q196.9875 27.815624 197.9875 28.190624Q198.9875 28.565624 199.45625 29.14375Q199.925 29.70625 200.1125 30.58125Q200.20625 31.1125 200.20625 32.51875L200.20625 35.33125Q200.20625 38.26875 200.34688 39.05Q200.4875 39.83125 200.87813 40.55L198.675 40.55Q198.34688 39.89375 198.25313 39.01875ZM198.08125 34.3Q196.925 34.76875 194.62813 35.096874Q193.33125 35.284374 192.78438 35.51875Q192.25313 35.753124 191.95625 36.20625Q191.675 36.659374 191.675 37.20625Q191.675 38.05 192.3 38.6125Q192.94063 39.175 194.175 39.175Q195.39375 39.175 196.34688 38.64375Q197.3 38.1125 197.7375 37.190624Q198.08125 36.471874 198.08125 35.08125L198.08125 34.3ZM203.08125 40.55L203.08125 23.3625L205.19063 23.3625L205.19063 40.55L203.08125 40.55ZM208.14375 25.8L208.14375 23.3625L210.25313 23.3625L210.25313 25.8L208.14375 25.8ZM208.14375 40.55L208.14375 28.096874L210.25313 28.096874L210.25313 40.55L208.14375 40.55ZM212.01875 40.55L212.01875 38.83125L219.94063 29.7375Q218.59688 29.815624 217.56563 29.815624L212.4875 29.815624L212.4875 28.096874L222.65938 28.096874L222.65938 29.503124L215.925 37.39375L214.62813 38.83125Q216.03438 38.7375 217.28438 38.7375L223.03438 38.7375L223.03438 40.55L212.01875 40.55ZM233.65938 36.534374L235.83125 36.815624Q235.31563 38.721874 233.925 39.784374Q232.53438 40.83125 230.3625 40.83125Q227.62813 40.83125 226.01875 39.159374Q224.425 37.471874 224.425 34.425Q224.425 31.284374 226.03438 29.55Q227.65938 27.815624 230.2375 27.815624Q232.7375 27.815624 234.31563 29.51875Q235.90938 31.221874 235.90938 34.3Q235.90938 34.4875 235.89375 34.8625L226.6125 34.8625Q226.72188 36.909374 227.76875 38.003124Q228.81563 39.096874 230.37813 39.096874Q231.53438 39.096874 232.34688 38.4875Q233.175 37.878124 233.65938 36.534374ZM226.72188 33.128124L233.675 33.128124Q233.53438 31.565624 232.87813 30.76875Q231.87813 29.55 230.26875 29.55Q228.81563 29.55 227.81563 30.534374Q226.83125 31.503124 226.72188 33.128124ZM246.20625 40.55L246.20625 38.971874Q245.01875 40.83125 242.72188 40.83125Q241.2375 40.83125 239.9875 40.01875Q238.7375 39.190624 238.05 37.721874Q237.37813 36.253124 237.37813 34.33125Q237.37813 32.471874 237.9875 30.95625Q238.6125 29.440624 239.84688 28.628124Q241.09688 27.815624 242.62813 27.815624Q243.75313 27.815624 244.62813 28.3Q245.51875 28.76875 246.06563 29.534374L246.06563 23.3625L248.15938 23.3625L248.15938 40.55L246.20625 40.55ZM239.53438 34.33125Q239.53438 36.721874 240.53438 37.909374Q241.55 39.096874 242.925 39.096874Q244.31563 39.096874 245.26875 37.971874Q246.2375 36.83125 246.2375 34.51875Q246.2375 31.95625 245.25313 30.76875Q244.26875 29.565624 242.83125 29.565624Q241.425 29.565624 240.47188 30.721874Q239.53438 31.8625 239.53438 34.33125ZM262.7375 38.659374L263.05 40.51875Q262.15936 40.721874 261.45624 40.721874Q260.3 40.721874 259.65936 40.3625Q259.03436 39.9875 258.76874 39.39375Q258.51874 38.8 258.51874 36.909374L258.51874 29.7375L256.97186 29.7375L256.97186 28.096874L258.51874 28.096874L258.51874 25.01875L260.6125 23.753124L260.6125 28.096874L262.7375 28.096874L262.7375 29.7375L260.6125 29.7375L260.6125 37.01875Q260.6125 37.925 260.72186 38.190624Q260.84686 38.440624 261.09686 38.596874Q261.34686 38.7375 261.8156 38.7375Q262.15936 38.7375 262.7375 38.659374ZM264.34686 34.33125Q264.34686 30.8625 266.26874 29.20625Q267.8781 27.815624 270.1906 27.815624Q272.7531 27.815624 274.3781 29.503124Q276.0031 31.190624 276.0031 34.14375Q276.0031 36.55 275.28436 37.925Q274.5656 39.3 273.1906 40.065624Q271.8156 40.83125 270.1906 40.83125Q267.5656 40.83125 265.95624 39.159374Q264.34686 37.471874 264.34686 34.33125ZM266.51874 34.33125Q266.51874 36.721874 267.55 37.909374Q268.59686 39.096874 270.1906 39.096874Q271.7531 39.096874 272.8 37.909374Q273.84686 36.70625 273.84686 34.253124Q273.84686 31.940624 272.78436 30.753124Q271.7375 29.565624 270.1906 29.565624Q268.59686 29.565624 267.55 30.753124Q266.51874 31.940624 266.51874 34.33125ZM285.64374 40.55L285.64374 29.7375L283.76874 29.7375L283.76874 28.096874L285.64374 28.096874L285.64374 26.784374Q285.64374 25.51875 285.8625 24.909374Q286.15936 24.096874 286.925 23.596874Q287.70624 23.08125 289.08124 23.08125Q289.97186 23.08125 291.05 23.284374L290.7375 25.128124Q290.08124 25.003124 289.4875 25.003124Q288.53436 25.003124 288.1281 25.425Q287.7375 25.83125 287.7375 26.95625L287.7375 28.096874L290.15936 28.096874L290.15936 29.7375L287.7375 29.7375L287.7375 40.55L285.64374 40.55ZM300.2531 39.01875Q299.08124 40.003124 297.9875 40.425Q296.90936 40.83125 295.675 40.83125Q293.6281 40.83125 292.51874 39.83125Q291.425 38.83125 291.425 37.26875Q291.425 36.346874 291.83124 35.596874Q292.2531 34.846874 292.925 34.39375Q293.59686 33.925 294.4406 33.690624Q295.0656 33.534374 296.3156 33.378124Q298.8781 33.065624 300.08124 32.64375Q300.09686 32.221874 300.09686 32.096874Q300.09686 30.815624 299.4875 30.284374Q298.6906 29.565624 297.09686 29.565624Q295.59686 29.565624 294.89374 30.096874Q294.1906 30.6125 293.84686 31.940624L291.78436 31.659374Q292.0656 30.33125 292.70624 29.51875Q293.34686 28.70625 294.5656 28.26875Q295.78436 27.815624 297.39374 27.815624Q298.9875 27.815624 299.9875 28.190624Q300.9875 28.565624 301.45624 29.14375Q301.925 29.70625 302.1125 30.58125Q302.20624 31.1125 302.20624 32.51875L302.20624 35.33125Q302.20624 38.26875 302.34686 39.05Q302.4875 39.83125 302.8781 40.55L300.675 40.55Q300.34686 39.89375 300.2531 39.01875ZM300.08124 34.3Q298.925 34.76875 296.6281 35.096874Q295.33124 35.284374 294.78436 35.51875Q294.2531 35.753124 293.95624 36.20625Q293.675 36.659374 293.675 37.20625Q293.675 38.05 294.3 38.6125Q294.9406 39.175 296.175 39.175Q297.39374 39.175 298.34686 38.64375Q299.3 38.1125 299.7375 37.190624Q300.08124 36.471874 300.08124 35.08125L300.08124 34.3ZM304.28436 36.83125L306.3781 36.503124Q306.55 37.753124 307.34686 38.425Q308.15936 39.096874 309.59686 39.096874Q311.05 39.096874 311.7531 38.503124Q312.45624 37.909374 312.45624 37.1125Q312.45624 36.39375 311.83124 35.9875Q311.40936 35.70625 309.675 35.26875Q307.3625 34.690624 306.45624 34.26875Q305.5656 33.83125 305.09686 33.08125Q304.64374 32.315624 304.64374 31.409374Q304.64374 30.58125 305.01874 29.878124Q305.40936 29.159374 306.0656 28.690624Q306.55 28.33125 307.39374 28.08125Q308.2531 27.815624 309.22186 27.815624Q310.6906 27.815624 311.8 28.2375Q312.90936 28.659374 313.425 29.39375Q313.95624 30.1125 314.15936 31.315624L312.09686 31.596874Q311.95624 30.628124 311.28436 30.096874Q310.6125 29.55 309.3781 29.55Q307.925 29.55 307.3 30.034374Q306.675 30.51875 306.675 31.159374Q306.675 31.565624 306.9406 31.89375Q307.1906 32.2375 307.7531 32.45625Q308.0656 32.58125 309.6125 33.003124Q311.84686 33.596874 312.72186 33.9875Q313.6125 34.3625 314.1125 35.096874Q314.6281 35.815624 314.6281 36.89375Q314.6281 37.940624 314.0031 38.878124Q313.39374 39.815624 312.2375 40.33125Q311.08124 40.83125 309.6125 40.83125Q307.1906 40.83125 305.90936 39.83125Q304.64374 38.815624 304.28436 36.83125ZM321.7375 38.659374L322.05 40.51875Q321.15936 40.721874 320.45624 40.721874Q319.3 40.721874 318.65936 40.3625Q318.03436 39.9875 317.76874 39.39375Q317.51874 38.8 317.51874 36.909374L317.51874 29.7375L315.97186 29.7375L315.97186 28.096874L317.51874 28.096874L317.51874 25.01875L319.6125 23.753124L319.6125 28.096874L321.7375 28.096874L321.7375 29.7375L319.6125 29.7375L319.6125 37.01875Q319.6125 37.925 319.72186 38.190624Q319.84686 38.440624 320.09686 38.596874Q320.34686 38.7375 320.8156 38.7375Q321.15936 38.7375 321.7375 38.659374ZM332.2531 35.9875L334.33124 36.253124Q333.9875 38.409374 332.58124 39.628124Q331.1906 40.83125 329.14374 40.83125Q326.59686 40.83125 325.03436 39.159374Q323.4875 37.4875 323.4875 34.378124Q323.4875 32.3625 324.15936 30.846874Q324.83124 29.33125 326.1906 28.58125Q327.55 27.815624 329.15936 27.815624Q331.1906 27.815624 332.47186 28.846874Q333.76874 29.878124 334.1281 31.753124L332.08124 32.08125Q331.78436 30.815624 331.03436 30.190624Q330.3 29.55 329.2375 29.55Q327.64374 29.55 326.64374 30.70625Q325.65936 31.846874 325.65936 34.315624Q325.65936 36.815624 326.6125 37.95625Q327.58124 39.096874 329.1281 39.096874Q330.3625 39.096874 331.1906 38.33125Q332.03436 37.565624 332.2531 35.9875ZM335.34686 34.33125Q335.34686 30.8625 337.26874 29.20625Q338.8781 27.815624 341.1906 27.815624Q343.7531 27.815624 345.3781 29.503124Q347.0031 31.190624 347.0031 34.14375Q347.0031 36.55 346.28436 37.925Q345.5656 39.3 344.1906 40.065624Q342.8156 40.83125 341.1906 40.83125Q338.5656 40.83125 336.95624 39.159374Q335.34686 37.471874 335.34686 34.33125ZM337.51874 34.33125Q337.51874 36.721874 338.55 37.909374Q339.59686 39.096874 341.1906 39.096874Q342.7531 39.096874 343.8 37.909374Q344.84686 36.70625 344.84686 34.253124Q344.84686 31.940624 343.78436 30.753124Q342.7375 29.565624 341.1906 29.565624Q339.59686 29.565624 338.55 30.753124Q337.51874 31.940624 337.51874 34.33125ZM349.1281 40.55L349.1281 28.096874L351.01874 28.096874L351.01874 29.846874Q351.6125 28.940624 352.58124 28.378124Q353.55 27.815624 354.8 27.815624Q356.175 27.815624 357.05 28.39375Q357.9406 28.971874 358.3156 30.003124Q359.78436 27.815624 362.15936 27.815624Q364.0031 27.815624 365.0031 28.846874Q366.0031 29.878124 366.0031 32.003124L366.0031 40.55L363.89374 40.55L363.89374 32.70625Q363.89374 31.440624 363.6906 30.89375Q363.4875 30.33125 362.9406 29.9875Q362.40936 29.64375 361.6906 29.64375Q360.3781 29.64375 359.5031 30.51875Q358.64374 31.39375 358.64374 33.315624L358.64374 40.55L356.53436 40.55L356.53436 32.45625Q356.53436 31.05 356.01874 30.346874Q355.5031 29.64375 354.33124 29.64375Q353.4406 29.64375 352.675 30.1125Q351.925 30.58125 351.58124 31.4875Q351.2375 32.39375 351.2375 34.096874L351.2375 40.55L349.1281 40.55ZM369.1281 45.315624L369.1281 28.096874L371.05 28.096874L371.05 29.721874Q371.7375 28.76875 372.58124 28.3Q373.4406 27.815624 374.65936 27.815624Q376.2531 27.815624 377.47186 28.64375Q378.6906 29.45625 379.3156 30.95625Q379.9406 32.45625 379.9406 34.2375Q379.9406 36.14375 379.2531 37.675Q378.5656 39.20625 377.2531 40.01875Q375.95624 40.83125 374.51874 40.83125Q373.45624 40.83125 372.6125 40.39375Q371.78436 39.940624 371.2375 39.253124L371.2375 45.315624L369.1281 45.315624ZM371.05 34.39375Q371.05 36.8 372.01874 37.95625Q372.9875 39.096874 374.3781 39.096874Q375.78436 39.096874 376.78436 37.909374Q377.78436 36.721874 377.78436 34.221874Q377.78436 31.846874 376.8 30.659374Q375.83124 29.471874 374.47186 29.471874Q373.1125 29.471874 372.08124 30.7375Q371.05 31.9875 371.05 34.39375ZM383.51874 45.596874L382.0031 45.596874Q385.5031 39.971874 385.5031 34.33125Q385.5031 32.128124 385.0031 29.971874Q384.6125 28.20625 383.89374 26.596874Q383.4406 25.534374 382.0031 23.08125L383.51874 23.08125Q385.72186 26.01875 386.76874 28.9875Q387.675 31.534374 387.675 34.33125Q387.675 37.4875 386.45624 40.440624Q385.2531 43.39375 383.51874 45.596874Z" fill-rule="nonzero"/><path fill="#db4437" d="M138.0 59.55C138.0 58.997715 138.44771 58.55 139.0 58.55L149.0 58.55C149.55229 58.55 150.0 58.997715 150.0 59.55L150.0 69.55C150.0 70.10229 149.55229 70.55 149.0 70.55L139.0 70.55C138.44771 70.55 138.0 70.10229 138.0 69.55Z" fill-rule="nonzero"/><path fill="#1a1a1a" d="M159.53125 72.55L159.53125 55.362503L161.64062 55.362503L161.64062 72.55L159.53125 72.55ZM164.59375 57.800003L164.59375 55.362503L166.70312 55.362503L166.70312 57.800003L164.59375 57.800003ZM164.59375 72.55L164.59375 60.096878L166.70312 60.096878L166.70312 72.55L164.59375 72.55ZM169.57812 72.55L169.57812 60.096878L171.48438 60.096878L171.48438 61.878128Q172.85938 59.815628 175.4375 59.815628Q176.5625 59.815628 177.5 60.221878Q178.45312 60.628128 178.92188 61.284378Q179.39062 61.940628 179.57812 62.846878Q179.70312 63.425003 179.70312 64.89375L179.70312 72.55L177.59375 72.55L177.59375 64.97188Q177.59375 63.690628 177.34375 63.050003Q177.09375 62.409378 176.46875 62.034378Q175.84375 61.643753 175.0 61.643753Q173.65625 61.643753 172.67188 62.503128Q171.6875 63.362503 171.6875 65.75313L171.6875 72.55L169.57812 72.55ZM182.59375 72.55L182.59375 55.362503L184.70312 55.362503L184.70312 65.15938L189.70312 60.096878L192.42188 60.096878L187.67188 64.72188L192.90625 72.55L190.3125 72.55L186.1875 66.19063L184.70312 67.6125L184.70312 72.55L182.59375 72.55ZM205.60938 77.59688Q203.875 75.39375 202.65625 72.44063Q201.45312 69.4875 201.45312 66.33125Q201.45312 63.534378 202.35938 60.987503Q203.40625 58.018753 205.60938 55.081253L207.125 55.081253Q205.70312 57.518753 205.25 58.550003Q204.53125 60.175003 204.125 61.925003Q203.625 64.12813 203.625 66.33125Q203.625 71.97188 207.125 77.59688L205.60938 77.59688ZM209.57812 72.55L209.57812 60.096878L211.48438 60.096878L211.48438 61.878128Q212.85938 59.815628 215.4375 59.815628Q216.5625 59.815628 217.5 60.221878Q218.45312 60.628128 218.92188 61.284378Q219.39062 61.940628 219.57812 62.846878Q219.70312 63.425003 219.70312 64.89375L219.70312 72.55L217.59375 72.55L217.59375 64.97188Q217.59375 63.690628 217.34375 63.050003Q217.09375 62.409378 216.46875 62.034378Q215.84375 61.643753 215.0 61.643753Q213.65625 61.643753 212.67188 62.503128Q211.6875 63.362503 211.6875 65.75313L211.6875 72.55L209.57812 72.55ZM221.79688 66.33125Q221.79688 62.862503 223.71875 61.206253Q225.32812 59.815628 227.64062 59.815628Q230.20312 59.815628 231.82812 61.503128Q233.45312 63.190628 233.45312 66.14375Q233.45312 68.55 232.73438 69.925Q232.01562 71.3 230.64062 72.06563Q229.26562 72.83125 227.64062 72.83125Q225.01562 72.83125 223.40625 71.15938Q221.79688 69.47188 221.79688 66.33125ZM223.96875 66.33125Q223.96875 68.72188 225.0 69.90938Q226.04688 71.09688 227.64062 71.09688Q229.20312 71.09688 230.25 69.90938Q231.29688 68.70625 231.29688 66.25313Q231.29688 63.940628 230.23438 62.753128Q229.1875 61.565628 227.64062 61.565628Q226.04688 61.565628 225.0 62.753128Q223.96875 63.940628 223.96875 66.33125ZM235.5625 72.55L235.5625 60.096878L237.45312 60.096878L237.45312 61.987503Q238.1875 60.659378 238.79688 60.237503Q239.42188 59.815628 240.15625 59.815628Q241.21875 59.815628 242.32812 60.503128L241.59375 62.456253Q240.82812 62.003128 240.04688 62.003128Q239.35938 62.003128 238.79688 62.425003Q238.25 62.831253 238.01562 63.565628Q237.67188 64.69063 237.67188 66.03438L237.67188 72.55L235.5625 72.55ZM243.57812 72.55L243.57812 60.096878L245.46875 60.096878L245.46875 61.846878Q246.0625 60.940628 247.03125 60.378128Q248.0 59.815628 249.25 59.815628Q250.625 59.815628 251.5 60.393753Q252.39062 60.971878 252.76562 62.003128Q254.23438 59.815628 256.60938 59.815628Q258.45312 59.815628 259.45312 60.846878Q260.45312 61.878128 260.45312 64.00313L260.45312 72.55L258.34375 72.55L258.34375 64.70625Q258.34375 63.440628 258.14062 62.893753Q257.9375 62.331253 257.39062 61.987503Q256.85938 61.643753 256.14062 61.643753Q254.82812 61.643753 253.95312 62.518753Q253.09375 63.393753 253.09375 65.31563L253.09375 72.55L250.98438 72.55L250.98438 64.45625Q250.98438 63.050003 250.46875 62.346878Q249.95312 61.643753 248.78125 61.643753Q247.89062 61.643753 247.125 62.112503Q246.375 62.581253 246.03125 63.487503Q245.6875 64.39375 245.6875 66.09688L245.6875 72.55L243.57812 72.55ZM271.70312 71.01875Q270.53125 72.00313 269.4375 72.425Q268.35938 72.83125 267.125 72.83125Q265.07812 72.83125 263.96875 71.83125Q262.875 70.83125 262.875 69.26875Q262.875 68.34688 263.28125 67.59688Q263.70312 66.84688 264.375 66.39375Q265.04688 65.925 265.89062 65.69063Q266.51562 65.53438 267.76562 65.37813Q270.32812 65.06563 271.53125 64.64375Q271.54688 64.22188 271.54688 64.09688Q271.54688 62.815628 270.9375 62.284378Q270.14062 61.565628 268.54688 61.565628Q267.04688 61.565628 266.34375 62.096878Q265.64062 62.612503 265.29688 63.940628L263.23438 63.659378Q263.51562 62.331253 264.15625 61.518753Q264.79688 60.706253 266.01562 60.268753Q267.23438 59.815628 268.84375 59.815628Q270.4375 59.815628 271.4375 60.190628Q272.4375 60.565628 272.90625 61.143753Q273.375 61.706253 273.5625 62.581253Q273.65625 63.112503 273.65625 64.51875L273.65625 67.33125Q273.65625 70.26875 273.79688 71.05Q273.9375 71.83125 274.32812 72.55L272.125 72.55Q271.79688 71.89375 271.70312 71.01875ZM271.53125 66.3Q270.375 66.76875 268.07812 67.09688Q266.78125 67.28438 266.23438 67.51875Q265.70312 67.75313 265.40625 68.20625Q265.125 68.65938 265.125 69.20625Q265.125 70.05 265.75 70.6125Q266.39062 71.175 267.625 71.175Q268.84375 71.175 269.79688 70.64375Q270.75 70.1125 271.1875 69.19063Q271.53125 68.47188 271.53125 67.08125L271.53125 66.3ZM276.53125 72.55L276.53125 55.362503L278.64062 55.362503L278.64062 72.55L276.53125 72.55ZM281.59375 57.800003L281.59375 55.362503L283.70312 55.362503L283.70312 57.800003L281.59375 57.800003ZM281.59375 72.55L281.59375 60.096878L283.70312 60.096878L283.70312 72.55L281.59375 72.55ZM285.46875 72.55L285.46875 70.83125L293.39062 61.737503Q292.04688 61.815628 291.01562 61.815628L285.9375 61.815628L285.9375 60.096878L296.10938 60.096878L296.10938 61.503128L289.375 69.39375L288.07812 70.83125Q289.48438 70.7375 290.73438 70.7375L296.48438 70.7375L296.48438 72.55L285.46875 72.55ZM307.10938 68.53438L309.28125 68.81563Q308.76562 70.72188 307.375 71.78438Q305.98438 72.83125 303.8125 72.83125Q301.07812 72.83125 299.46875 71.15938Q297.875 69.47188 297.875 66.425Q297.875 63.284378 299.48438 61.550003Q301.10938 59.815628 303.6875 59.815628Q306.1875 59.815628 307.76562 61.518753Q309.35938 63.221878 309.35938 66.3Q309.35938 66.4875 309.34375 66.8625L300.0625 66.8625Q300.17188 68.90938 301.21875 70.00313Q302.26562 71.09688 303.82812 71.09688Q304.98438 71.09688 305.79688 70.4875Q306.625 69.87813 307.10938 68.53438ZM300.17188 65.12813L307.125 65.12813Q306.98438 63.565628 306.32812 62.768753Q305.32812 61.550003 303.71875 61.550003Q302.26562 61.550003 301.26562 62.534378Q300.28125 63.503128 300.17188 65.12813ZM319.65625 72.55L319.65625 70.97188Q318.46875 72.83125 316.17188 72.83125Q314.6875 72.83125 313.4375 72.01875Q312.1875 71.19063 311.5 69.72188Q310.82812 68.25313 310.82812 66.33125Q310.82812 64.47188 311.4375 62.956253Q312.0625 61.440628 313.29688 60.628128Q314.54688 59.815628 316.07812 59.815628Q317.20312 59.815628 318.07812 60.300003Q318.96875 60.768753 319.51562 61.534378L319.51562 55.362503L321.60938 55.362503L321.60938 72.55L319.65625 72.55ZM312.98438 66.33125Q312.98438 68.72188 313.98438 69.90938Q315.0 71.09688 316.375 71.09688Q317.76562 71.09688 318.71875 69.97188Q319.6875 68.83125 319.6875 66.51875Q319.6875 63.956253 318.70312 62.768753Q317.71875 61.565628 316.28125 61.565628Q314.875 61.565628 313.92188 62.721878Q312.98438 63.862503 312.98438 66.33125ZM336.1875 70.65938L336.5 72.51875Q335.60938 72.72188 334.90625 72.72188Q333.75 72.72188 333.10938 72.3625Q332.48438 71.9875 332.21875 71.39375Q331.96875 70.8 331.96875 68.90938L331.96875 61.737503L330.42188 61.737503L330.42188 60.096878L331.96875 60.096878L331.96875 57.018753L334.0625 55.753128L334.0625 60.096878L336.1875 60.096878L336.1875 61.737503L334.0625 61.737503L334.0625 69.01875Q334.0625 69.925 334.17188 70.19063Q334.29688 70.44063 334.54688 70.59688Q334.79688 70.7375 335.26562 70.7375Q335.60938 70.7375 336.1875 70.65938ZM337.79688 66.33125Q337.79688 62.862503 339.71875 61.206253Q341.32812 59.815628 343.64062 59.815628Q346.20312 59.815628 347.82812 61.503128Q349.45312 63.190628 349.45312 66.14375Q349.45312 68.55 348.73438 69.925Q348.01562 71.3 346.64062 72.06563Q345.26562 72.83125 343.64062 72.83125Q341.01562 72.83125 339.40625 71.15938Q337.79688 69.47188 337.79688 66.33125ZM339.96875 66.33125Q339.96875 68.72188 341.0 69.90938Q342.04688 71.09688 343.64062 71.09688Q345.20312 71.09688 346.25 69.90938Q347.29688 68.70625 347.29688 66.25313Q347.29688 63.940628 346.23438 62.753128Q345.1875 61.565628 343.64062 61.565628Q342.04688 61.565628 341.0 62.753128Q339.96875 63.940628 339.96875 66.33125ZM359.09375 72.55L359.09375 61.737503L357.21875 61.737503L357.21875 60.096878L359.09375 60.096878L359.09375 58.784378Q359.09375 57.518753 359.3125 56.909378Q359.60938 56.096878 360.375 55.596878Q361.15625 55.081253 362.53125 55.081253Q363.42188 55.081253 364.5 55.284378L364.1875 57.128128Q363.53125 57.003128 362.9375 57.003128Q361.98438 57.003128 361.57812 57.425003Q361.1875 57.831253 361.1875 58.956253L361.1875 60.096878L363.60938 60.096878L363.60938 61.737503L361.1875 61.737503L361.1875 72.55L359.09375 72.55ZM373.70312 71.01875Q372.53125 72.00313 371.4375 72.425Q370.35938 72.83125 369.125 72.83125Q367.07812 72.83125 365.96875 71.83125Q364.875 70.83125 364.875 69.26875Q364.875 68.34688 365.28125 67.59688Q365.70312 66.84688 366.375 66.39375Q367.04688 65.925 367.89062 65.69063Q368.51562 65.53438 369.76562 65.37813Q372.32812 65.06563 373.53125 64.64375Q373.54688 64.22188 373.54688 64.09688Q373.54688 62.815628 372.9375 62.284378Q372.14062 61.565628 370.54688 61.565628Q369.04688 61.565628 368.34375 62.096878Q367.64062 62.612503 367.29688 63.940628L365.23438 63.659378Q365.51562 62.331253 366.15625 61.518753Q366.79688 60.706253 368.01562 60.268753Q369.23438 59.815628 370.84375 59.815628Q372.4375 59.815628 373.4375 60.190628Q374.4375 60.565628 374.90625 61.143753Q375.375 61.706253 375.5625 62.581253Q375.65625 63.112503 375.65625 64.51875L375.65625 67.33125Q375.65625 70.26875 375.79688 71.05Q375.9375 71.83125 376.32812 72.55L374.125 72.55Q373.79688 71.89375 373.70312 71.01875ZM373.53125 66.3Q372.375 66.76875 370.07812 67.09688Q368.78125 67.28438 368.23438 67.51875Q367.70312 67.75313 367.40625 68.20625Q367.125 68.65938 367.125 69.20625Q367.125 70.05 367.75 70.6125Q368.39062 71.175 369.625 71.175Q370.84375 71.175 371.79688 70.64375Q372.75 70.1125 373.1875 69.19063Q373.53125 68.47188 373.53125 67.08125L373.53125 66.3ZM377.73438 68.83125L379.82812 68.50313Q380.0 69.75313 380.79688 70.425Q381.60938 71.09688 383.04688 71.09688Q384.5 71.09688 385.20312 70.50313Q385.90625 69.90938 385.90625 69.1125Q385.90625 68.39375 385.28125 67.9875Q384.85938 67.70625 383.125 67.26875Q380.8125 66.69063 379.90625 66.26875Q379.01562 65.83125 378.54688 65.08125Q378.09375 64.31563 378.09375 63.409378Q378.09375 62.581253 378.46875 61.878128Q378.85938 61.159378 379.51562 60.690628Q380.0 60.331253 380.84375 60.081253Q381.70312 59.815628 382.67188 59.815628Q384.14062 59.815628 385.25 60.237503Q386.35938 60.659378 386.875 61.393753Q387.40625 62.112503 387.60938 63.315628L385.54688 63.596878Q385.40625 62.628128 384.73438 62.096878Q384.0625 61.550003 382.82812 61.550003Q381.375 61.550003 380.75 62.034378Q380.125 62.518753 380.125 63.159378Q380.125 63.565628 380.39062 63.893753Q380.64062 64.2375 381.20312 64.45625Q381.51562 64.58125 383.0625 65.00313Q385.29688 65.59688 386.17188 65.9875Q387.0625 66.3625 387.5625 67.09688Q388.07812 67.81563 388.07812 68.89375Q388.07812 69.94063 387.45312 70.87813Q386.84375 71.81563 385.6875 72.33125Q384.53125 72.83125 383.0625 72.83125Q380.64062 72.83125 379.35938 71.83125Q378.09375 70.81563 377.73438 68.83125ZM395.1875 70.65938L395.5 72.51875Q394.60938 72.72188 393.90625 72.72188Q392.75 72.72188 392.10938 72.3625Q391.48438 71.9875 391.21875 71.39375Q390.96875 70.8 390.96875 68.90938L390.96875 61.737503L389.42188 61.737503L389.42188 60.096878L390.96875 60.096878L390.96875 57.018753L393.0625 55.753128L393.0625 60.096878L395.1875 60.096878L395.1875 61.737503L393.0625 61.737503L393.0625 69.01875Q393.0625 69.925 393.17188 70.19063Q393.29688 70.44063 393.54688 70.59688Q393.79688 70.7375 394.26562 70.7375Q394.60938 70.7375 395.1875 70.65938ZM405.70312 67.9875L407.78125 68.25313Q407.4375 70.40938 406.03125 71.62813Q404.64062 72.83125 402.59375 72.83125Q400.04688 72.83125 398.48438 71.15938Q396.9375 69.4875 396.9375 66.37813Q396.9375 64.3625 397.60938 62.846878Q398.28125 61.331253 399.64062 60.581253Q401.0 59.815628 402.60938 59.815628Q404.64062 59.815628 405.92188 60.846878Q407.21875 61.878128 407.57812 63.753128L405.53125 64.08125Q405.23438 62.815628 404.48438 62.190628Q403.75 61.550003 402.6875 61.550003Q401.09375 61.550003 400.09375 62.706253Q399.10938 63.846878 399.10938 66.31563Q399.10938 68.81563 400.0625 69.95625Q401.03125 71.09688 402.57812 71.09688Q403.8125 71.09688 404.64062 70.33125Q405.48438 69.56563 405.70312 67.9875ZM408.79688 66.33125Q408.79688 62.862503 410.71875 61.206253Q412.32812 59.815628 414.64062 59.815628Q417.20312 59.815628 418.82812 61.503128Q420.45312 63.190628 420.45312 66.14375Q420.45312 68.55 419.73438 69.925Q419.01562 71.3 417.64062 72.06563Q416.26562 72.83125 414.64062 72.83125Q412.01562 72.83125 410.40625 71.15938Q408.79688 69.47188 408.79688 66.33125ZM410.96875 66.33125Q410.96875 68.72188 412.0 69.90938Q413.04688 71.09688 414.64062 71.09688Q416.20312 71.09688 417.25 69.90938Q418.29688 68.70625 418.29688 66.25313Q418.29688 63.940628 417.23438 62.753128Q416.1875 61.565628 414.64062 61.565628Q413.04688 61.565628 412.0 62.753128Q410.96875 63.940628 410.96875 66.33125ZM422.57812 72.55L422.57812 60.096878L424.46875 60.096878L424.46875 61.846878Q425.0625 60.940628 426.03125 60.378128Q427.0 59.815628 428.25 59.815628Q429.625 59.815628 430.5 60.393753Q431.39062 60.971878 431.76562 62.003128Q433.23438 59.815628 435.60938 59.815628Q437.45312 59.815628 438.45312 60.846878Q439.45312 61.878128 439.45312 64.00313L439.45312 72.55L437.34375 72.55L437.34375 64.70625Q437.34375 63.440628 437.14062 62.893753Q436.9375 62.331253 436.39062 61.987503Q435.85938 61.643753 435.14062 61.643753Q433.82812 61.643753 432.95312 62.518753Q432.09375 63.393753 432.09375 65.31563L432.09375 72.55L429.98438 72.55L429.98438 64.45625Q429.98438 63.050003 429.46875 62.346878Q428.95312 61.643753 427.78125 61.643753Q426.89062 61.643753 426.125 62.112503Q425.375 62.581253 425.03125 63.487503Q424.6875 64.39375 424.6875 66.09688L424.6875 72.55L422.57812 72.55ZM442.57812 77.31563L442.57812 60.096878L444.5 60.096878L444.5 61.721878Q445.1875 60.768753 446.03125 60.300003Q446.89062 59.815628 448.10938 59.815628Q449.70312 59.815628 450.92188 60.643753Q452.14062 61.456253 452.76562 62.956253Q453.39062 64.45625 453.39062 66.2375Q453.39062 68.14375 452.70312 69.675Q452.01562 71.20625 450.70312 72.01875Q449.40625 72.83125 447.96875 72.83125Q446.90625 72.83125 446.0625 72.39375Q445.23438 71.94063 444.6875 71.25313L444.6875 77.31563L442.57812 77.31563ZM444.5 66.39375Q444.5 68.8 445.46875 69.95625Q446.4375 71.09688 447.82812 71.09688Q449.23438 71.09688 450.23438 69.90938Q451.23438 68.72188 451.23438 66.22188Q451.23438 63.846878 450.25 62.659378Q449.28125 61.471878 447.92188 61.471878Q446.5625 61.471878 445.53125 62.737503Q444.5 63.987503 444.5 66.39375ZM456.96875 77.59688L455.45312 77.59688Q458.95312 71.97188 458.95312 66.33125Q458.95312 64.12813 458.45312 61.971878Q458.0625 60.206253 457.34375 58.596878Q456.89062 57.534378 455.45312 55.081253L456.96875 55.081253Q459.17188 58.018753 460.21875 60.987503Q461.125 63.534378 461.125 66.33125Q461.125 69.4875 459.90625 72.44063Q458.70312 75.39375 456.96875 77.59688Z" fill-rule="nonzero"/></svg>