<svg fill="none" height="371" stroke-linecap="square" stroke-miterlimit="10" width="600" xmlns="http://www.w3.org/2000/svg" xmlns:xlink="http://www.w3.org/1999/xlink"><clipPath id="a"><path d="m94.55 62.417h397.064v247.038h-397.064z"/></clipPath><path d="m0 0h600v371h-600z" fill="#fff"/><path d="m0 0h600v371h-600z" fill="#fff"/><g stroke-linecap="butt"><path d="m94.5 309.5h397m-397-62h397" stroke="#ccc"/><path d="m94.5 185.5h397" stroke="#333"/><path d="m94.5 124.5h397m-397-62h397" stroke="#ccc"/></g><path clip-path="url(#a)" d="m136 186h-19v-45a2 2 0 0 1 2-2h15a2 2 0 0 1 2 2zm62 0h-19v-36a2 2 0 0 1 2-2h15a2 2 0 0 1 2 2zm63 0h-19v-27a2 2 0 0 1 2-2h15a2 2 0 0 1 2 2zm62 0h-19v-20a2 2 0 0 1 2-2h15a2 2 0 0 1 2 2zm63 0h-19v67a2 2 0 0 0 2 2h15a2 2 0 0 0 2-2zm62 0h-19v14a2 2 0 0 0 2 2h15a2 2 0 0 0 2-2z" fill="#4285f4"/><path clip-path="url(#a)" d="m156 186h-19v-65a2 2 0 0 1 2-2h15a2 2 0 0 1 2 2zm62 0h-19v-45a2 2 0 0 1 2-2h15a2 2 0 0 1 2 2zm63 0h-19v-49a2 2 0 0 1 2-2h15a2 2 0 0 1 2 2zm62 0h-19v-35a2 2 0 0 1 2-2h15a2 2 0 0 1 2 2zm63 0h-19v94a2 2 0 0 0 2 2h15a2 2 0 0 0 2-2zm62 0h-19v49a2 2 0 0 0 2 2h15a2 2 0 0 0 2-2z" fill="#db4437"/><path d="m115.922 119.48h2.39v1.032h-2.39v2.687h-1.078v-2.687h-2.39v-1.031h2.39v-2.485h1.078v2.485zm5.36-.218h.812q.781-.016 1.219-.406.437-.391.437-1.063 0-1.5-1.5-1.5-.703 0-1.125.406-.406.407-.406 1.063h-1.094q0-1.016.734-1.688.75-.671 1.891-.671 1.203 0 1.89.64.688.64.688 1.781 0 .563-.36 1.079-.359.515-.984.78.704.22 1.079.735.39.516.39 1.266 0 1.14-.75 1.828-.75.672-1.953.672-1.188 0-1.953-.656-.75-.657-.75-1.72h1.094q0 .673.437 1.079.438.406 1.188.406.78 0 1.187-.406.422-.422.422-1.188 0-.734-.453-1.125-.453-.406-1.328-.421h-.813v-.891zm10.609-1.516q0 .64-.344 1.14-.344.5-.906.782.656.281 1.047.844.39.547.39 1.25 0 1.094-.75 1.766-.734.656-1.953.656-1.234 0-1.984-.656-.735-.672-.735-1.766 0-.703.375-1.25.375-.563 1.047-.844-.562-.281-.89-.781-.329-.5-.329-1.14 0-1.079.688-1.704.687-.64 1.828-.64 1.125 0 1.813.64.703.625.703 1.703zm-.891 3.985q0-.72-.453-1.157-.453-.453-1.188-.453-.734 0-1.187.453-.438.438-.438 1.172 0 .719.438 1.14.437.407 1.203.407.75 0 1.188-.422.437-.422.437-1.14zm-1.625-5.438q-.64 0-1.047.406-.39.391-.39 1.079 0 .64.39 1.046.39.407 1.031.407.657 0 1.047-.407.39-.406.39-1.046 0-.657-.405-1.063-.407-.422-1.016-.422zm4.234.875q0-.766.485-1.266.5-.5 1.265-.5.782 0 1.266.5t.484 1.297v.422q0 .766-.5 1.266-.484.484-1.234.484-.766 0-1.266-.484-.5-.5-.5-1.313zm.813.453q0 .453.25.75.266.297.703.297.422 0 .672-.281.25-.297.25-.797v-.422q0-.453-.25-.75-.25-.312-.688-.312-.437 0-.687.312-.25.297-.25.766zm3.344 4.344q0-.766.484-1.25.5-.5 1.266-.5.765 0 1.25.5.5.484.5 1.297v.406q0 .766-.485 1.266-.484.5-1.25.5-.765 0-1.265-.485-.5-.5-.5-1.312zm.812.453q0 .469.25.766.266.297.703.297.422 0 .672-.282.25-.296.25-.796v-.438q0-.469-.266-.75-.25-.297-.671-.297-.422 0-.688.297-.25.281-.25.781zm-2.953 1-.625-.39 4.172-6.672.61.39z" stroke="#fff" stroke-linecap="round" stroke-linejoin="round" stroke-width="3"/><path d="m115.922 119.48h2.39v1.032h-2.39v2.687h-1.078v-2.687h-2.39v-1.031h2.39v-2.485h1.078v2.485zm5.36-.218h.812q.781-.016 1.219-.406.437-.391.437-1.063 0-1.5-1.5-1.5-.703 0-1.125.406-.406.407-.406 1.063h-1.094q0-1.016.734-1.688.75-.671 1.891-.671 1.203 0 1.89.64.688.64.688 1.781 0 .563-.36 1.079-.359.515-.984.78.704.22 1.079.735.39.516.39 1.266 0 1.14-.75 1.828-.75.672-1.953.672-1.188 0-1.953-.656-.75-.657-.75-1.72h1.094q0 .673.437 1.079.438.406 1.188.406.78 0 1.187-.406.422-.422.422-1.188 0-.734-.453-1.125-.453-.406-1.328-.421h-.813v-.891zm10.609-1.516q0 .64-.344 1.14-.344.5-.906.782.656.281 1.047.844.39.547.39 1.25 0 1.094-.75 1.766-.734.656-1.953.656-1.234 0-1.984-.656-.735-.672-.735-1.766 0-.703.375-1.25.375-.563 1.047-.844-.562-.281-.89-.781-.329-.5-.329-1.14 0-1.079.688-1.704.687-.64 1.828-.64 1.125 0 1.813.64.703.625.703 1.703zm-.891 3.985q0-.72-.453-1.157-.453-.453-1.188-.453-.734 0-1.187.453-.438.438-.438 1.172 0 .719.438 1.14.437.407 1.203.407.75 0 1.188-.422.437-.422.437-1.14zm-1.625-5.438q-.64 0-1.047.406-.39.391-.39 1.079 0 .64.39 1.046.39.407 1.031.407.657 0 1.047-.407.39-.406.39-1.046 0-.657-.405-1.063-.407-.422-1.016-.422zm4.234.875q0-.766.485-1.266.5-.5 1.265-.5.782 0 1.266.5t.484 1.297v.422q0 .766-.5 1.266-.484.484-1.234.484-.766 0-1.266-.484-.5-.5-.5-1.313zm.813.453q0 .453.25.75.266.297.703.297.422 0 .672-.281.25-.297.25-.797v-.422q0-.453-.25-.75-.25-.312-.688-.312-.437 0-.687.312-.25.297-.25.766zm3.344 4.344q0-.766.484-1.25.5-.5 1.266-.5.765 0 1.25.5.5.484.5 1.297v.406q0 .766-.485 1.266-.484.5-1.25.5-.765 0-1.265-.485-.5-.5-.5-1.312zm.812.453q0 .469.25.766.266.297.703.297.422 0 .672-.282.25-.296.25-.796v-.438q0-.469-.266-.75-.25-.297-.671-.297-.422 0-.688.297-.25.281-.25.781zm-2.953 1-.625-.39 4.172-6.672.61.39z" fill="#4285f4"/><path d="m177.922 128.725h2.39v1.031h-2.39v2.688h-1.078v-2.688h-2.39v-1.031h2.39v-2.484h1.078zm5.36-.219h.812q.781-.015 1.219-.406.437-.39.437-1.063 0-1.5-1.5-1.5-.703 0-1.125.407-.406.406-.406 1.062h-1.094q0-1.015.734-1.687.75-.672 1.891-.672 1.203 0 1.89.64.688.641.688 1.782 0 .562-.36 1.078-.359.515-.984.781.703.219 1.078.734.391.516.391 1.266 0 1.14-.75 1.828-.75.672-1.953.672-1.188 0-1.953-.656-.75-.656-.75-1.719h1.094q0 .672.437 1.078.438.406 1.188.406.78 0 1.187-.406.422-.422.422-1.187 0-.735-.453-1.125-.453-.407-1.328-.422h-.813v-.89zm10.78 1.156q0 1.907-.656 2.844-.64.922-2.031.922-1.36 0-2.016-.906-.656-.906-.687-2.719v-1.437q0-1.891.64-2.797.657-.922 2.047-.922 1.375 0 2.032.89.656.875.672 2.72v1.405zm-1.093-1.484q0-1.375-.39-2-.376-.64-1.22-.64-.828 0-1.218.64-.375.625-.375 1.922v1.734q0 1.375.39 2.047.406.656 1.219.656.797 0 1.188-.625.39-.625.406-1.953v-1.78zm2.64-1.766q0-.765.485-1.265.5-.5 1.265-.5.782 0 1.266.5t.484 1.297v.422q0 .765-.5 1.265-.484.485-1.234.485-.766 0-1.266-.485-.5-.5-.5-1.312zm.813.454q0 .453.25.75.266.296.703.296.422 0 .672-.28.25-.298.25-.798v-.422q0-.453-.25-.75-.25-.312-.688-.312-.437 0-.687.312-.25.297-.25.766zm3.344 4.343q0-.765.484-1.25.5-.5 1.266-.5.765 0 1.25.5.5.485.5 1.297v.406q0 .766-.485 1.266-.484.5-1.25.5-.765 0-1.265-.484-.5-.5-.5-1.313zm.812.453q0 .47.25.766.266.297.703.297.422 0 .672-.281.25-.297.25-.797v-.438q0-.468-.266-.75-.25-.297-.671-.297-.422 0-.688.297-.25.282-.25.782zm-2.953 1-.625-.39 4.172-6.672.61.39z" stroke="#fff" stroke-linecap="round" stroke-linejoin="round" stroke-width="3"/><path d="m177.922 128.725h2.39v1.031h-2.39v2.688h-1.078v-2.688h-2.39v-1.031h2.39v-2.484h1.078zm5.36-.219h.812q.781-.015 1.219-.406.437-.39.437-1.063 0-1.5-1.5-1.5-.703 0-1.125.407-.406.406-.406 1.062h-1.094q0-1.015.734-1.687.75-.672 1.891-.672 1.203 0 1.89.64.688.641.688 1.782 0 .562-.36 1.078-.359.515-.984.781.703.219 1.078.734.391.516.391 1.266 0 1.14-.75 1.828-.75.672-1.953.672-1.188 0-1.953-.656-.75-.656-.75-1.719h1.094q0 .672.437 1.078.438.406 1.188.406.78 0 1.187-.406.422-.422.422-1.187 0-.735-.453-1.125-.453-.407-1.328-.422h-.813v-.89zm10.78 1.156q0 1.907-.656 2.844-.64.922-2.031.922-1.36 0-2.016-.906-.656-.906-.687-2.719v-1.437q0-1.891.64-2.797.657-.922 2.047-.922 1.375 0 2.032.89.656.875.672 2.72v1.405zm-1.093-1.484q0-1.375-.39-2-.376-.64-1.22-.64-.828 0-1.218.64-.375.625-.375 1.922v1.734q0 1.375.39 2.047.406.656 1.219.656.797 0 1.188-.625.39-.625.406-1.953v-1.78zm2.64-1.766q0-.765.485-1.265.5-.5 1.265-.5.782 0 1.266.5t.484 1.297v.422q0 .765-.5 1.265-.484.485-1.234.485-.766 0-1.266-.485-.5-.5-.5-1.312zm.813.454q0 .453.25.75.266.296.703.296.422 0 .672-.28.25-.298.25-.798v-.422q0-.453-.25-.75-.25-.312-.688-.312-.437 0-.687.312-.25.297-.25.766zm3.344 4.343q0-.765.484-1.25.5-.5 1.266-.5.765 0 1.25.5.5.485.5 1.297v.406q0 .766-.485 1.266-.484.5-1.25.5-.765 0-1.265-.484-.5-.5-.5-1.313zm.812.453q0 .47.25.766.266.297.703.297.422 0 .672-.281.25-.297.25-.797v-.438q0-.468-.266-.75-.25-.297-.671-.297-.422 0-.688.297-.25.282-.25.782zm-2.953 1-.625-.39 4.172-6.672.61.39z" fill="#4285f4"/><path d="m240.922 137.737h2.39v1.032h-2.39v2.687h-1.078v-2.687h-2.39v-1.032h2.39v-2.484h1.078zm9.375 4.578h-5.594v-.78l2.953-3.282q.656-.75.906-1.203.25-.469.25-.969 0-.672-.406-1.094-.39-.437-1.078-.437-.797 0-1.25.469-.453.453-.453 1.28h-1.078q0-1.187.75-1.905.766-.735 2.031-.735 1.203 0 1.89.625.688.625.688 1.672 0 1.25-1.61 3l-2.28 2.469h4.28v.89zm2.984-4.796h.813q.781-.016 1.219-.407.437-.39.437-1.062 0-1.5-1.5-1.5-.703 0-1.125.406-.406.406-.406 1.063h-1.094q0-1.016.734-1.688.75-.672 1.891-.672 1.203 0 1.89.64.688.641.688 1.782 0 .563-.36 1.078-.359.516-.984.781.703.22 1.078.735.391.515.391 1.265 0 1.141-.75 1.829-.75.671-1.953.671-1.188 0-1.953-.656-.75-.656-.75-1.719h1.094q0 .672.437 1.079.438.406 1.188.406.78 0 1.187-.406.422-.422.422-1.188 0-.734-.453-1.125-.453-.406-1.328-.422h-.813zm5.328-2.094q0-.766.485-1.266.5-.5 1.265-.5.782 0 1.266.5t.484 1.297v.422q0 .766-.5 1.266-.484.484-1.234.484-.766 0-1.266-.484-.5-.5-.5-1.313zm.813.453q0 .453.25.75.265.297.703.297.422 0 .672-.281.25-.297.25-.797v-.422q0-.453-.25-.75-.25-.313-.688-.313-.437 0-.687.313-.25.297-.25.765zm3.344 4.344q0-.766.484-1.25.5-.5 1.266-.5.765 0 1.25.5.5.484.5 1.297v.406q0 .765-.485 1.265-.484.5-1.25.5-.765 0-1.265-.484-.5-.5-.5-1.312zm.812.453q0 .469.25.765.266.297.703.297.422 0 .672-.28.25-.298.25-.798v-.437q0-.469-.265-.75-.25-.297-.672-.297-.422 0-.688.297-.25.281-.25.781zm-2.953 1-.625-.39 4.172-6.673.61.391z" stroke="#fff" stroke-linecap="round" stroke-linejoin="round" stroke-width="3"/><path d="m240.922 137.737h2.39v1.032h-2.39v2.687h-1.078v-2.687h-2.39v-1.032h2.39v-2.484h1.078zm9.375 4.578h-5.594v-.78l2.953-3.282q.656-.75.906-1.203.25-.469.25-.969 0-.672-.406-1.094-.39-.437-1.078-.437-.797 0-1.25.469-.453.453-.453 1.28h-1.078q0-1.187.75-1.905.766-.735 2.031-.735 1.203 0 1.89.625.688.625.688 1.672 0 1.25-1.61 3l-2.28 2.469h4.28v.89zm2.984-4.796h.813q.781-.016 1.219-.407.437-.39.437-1.062 0-1.5-1.5-1.5-.703 0-1.125.406-.406.406-.406 1.063h-1.094q0-1.016.734-1.688.75-.672 1.891-.672 1.203 0 1.89.64.688.641.688 1.782 0 .563-.36 1.078-.359.516-.984.781.703.22 1.078.735.391.515.391 1.265 0 1.141-.75 1.829-.75.671-1.953.671-1.188 0-1.953-.656-.75-.656-.75-1.719h1.094q0 .672.437 1.079.438.406 1.188.406.78 0 1.187-.406.422-.422.422-1.188 0-.734-.453-1.125-.453-.406-1.328-.422h-.813zm5.328-2.094q0-.766.485-1.266.5-.5 1.265-.5.782 0 1.266.5t.484 1.297v.422q0 .766-.5 1.266-.484.484-1.234.484-.766 0-1.266-.484-.5-.5-.5-1.313zm.813.453q0 .453.25.75.265.297.703.297.422 0 .672-.281.25-.297.25-.797v-.422q0-.453-.25-.75-.25-.313-.688-.313-.437 0-.687.313-.25.297-.25.765zm3.344 4.344q0-.766.484-1.25.5-.5 1.266-.5.765 0 1.25.5.5.484.5 1.297v.406q0 .765-.485 1.265-.484.5-1.25.5-.765 0-1.265-.484-.5-.5-.5-1.312zm.812.453q0 .469.25.765.266.297.703.297.422 0 .672-.28.25-.298.25-.798v-.437q0-.469-.265-.75-.25-.297-.672-.297-.422 0-.688.297-.25.281-.25.781zm-2.953 1-.625-.39 4.172-6.673.61.391z" fill="#4285f4"/><path d="m302.922 144.612h2.39v1.031h-2.39v2.688h-1.078v-2.688h-2.39v-1.031h2.39v-2.484h1.078zm7.344 4.578h-1.079v-7.219l-2.187.797v-.984l3.11-1.172h.156zm8.625-6.312q0 .64-.344 1.14-.344.5-.906.781.656.282 1.046.844.391.547.391 1.25 0 1.094-.75 1.766-.734.656-1.953.656-1.234 0-1.984-.656-.735-.672-.735-1.766 0-.703.375-1.25.375-.562 1.047-.844-.562-.28-.89-.78-.329-.5-.329-1.141 0-1.079.688-1.704.687-.64 1.828-.64 1.125 0 1.813.64.703.625.703 1.704zm-.891 3.984q0-.719-.453-1.156-.453-.453-1.188-.453-.734 0-1.187.453-.438.437-.438 1.172 0 .718.438 1.14.437.406 1.203.406.75 0 1.188-.421.437-.422.437-1.141zm-1.625-5.438q-.64 0-1.047.407-.39.39-.39 1.078 0 .64.39 1.047.39.406 1.031.406.657 0 1.047-.406.39-.407.39-1.047 0-.656-.405-1.063-.407-.422-1.016-.422zm4.234.875q0-.765.485-1.265.5-.5 1.265-.5.782 0 1.266.5t.484 1.297v.422q0 .765-.5 1.265-.484.485-1.234.485-.766 0-1.266-.485-.5-.5-.5-1.312zm.813.454q0 .453.25.75.265.296.703.296.422 0 .672-.28.25-.298.25-.798v-.422q0-.453-.25-.75-.25-.312-.688-.312-.437 0-.687.312-.25.297-.25.766zm3.344 4.343q0-.765.484-1.25.5-.5 1.266-.5.765 0 1.25.5.5.485.5 1.297v.406q0 .766-.485 1.266-.484.5-1.25.5-.765 0-1.265-.484-.5-.5-.5-1.313zm.812.453q0 .47.25.766.266.297.703.297.422 0 .672-.281.25-.297.25-.797v-.438q0-.468-.265-.75-.25-.297-.672-.297-.422 0-.688.297-.25.282-.25.782zm-2.953 1-.625-.39 4.172-6.672.61.39z" stroke="#fff" stroke-linecap="round" stroke-linejoin="round" stroke-width="3"/><path d="m302.922 144.612h2.39v1.031h-2.39v2.688h-1.078v-2.688h-2.39v-1.031h2.39v-2.484h1.078zm7.344 4.578h-1.079v-7.219l-2.187.797v-.984l3.11-1.172h.156zm8.625-6.312q0 .64-.344 1.14-.344.5-.906.781.656.282 1.046.844.391.547.391 1.25 0 1.094-.75 1.766-.734.656-1.953.656-1.234 0-1.984-.656-.735-.672-.735-1.766 0-.703.375-1.25.375-.562 1.047-.844-.562-.28-.89-.78-.329-.5-.329-1.141 0-1.079.688-1.704.687-.64 1.828-.64 1.125 0 1.813.64.703.625.703 1.704zm-.891 3.984q0-.719-.453-1.156-.453-.453-1.188-.453-.734 0-1.187.453-.438.437-.438 1.172 0 .718.438 1.14.437.406 1.203.406.75 0 1.188-.421.437-.422.437-1.141zm-1.625-5.438q-.64 0-1.047.407-.39.39-.39 1.078 0 .64.39 1.047.39.406 1.031.406.657 0 1.047-.406.39-.407.39-1.047 0-.656-.405-1.063-.407-.422-1.016-.422zm4.234.875q0-.765.485-1.265.5-.5 1.265-.5.782 0 1.266.5t.484 1.297v.422q0 .765-.5 1.265-.484.485-1.234.485-.766 0-1.266-.485-.5-.5-.5-1.312zm.813.454q0 .453.25.75.265.296.703.296.422 0 .672-.28.25-.298.25-.798v-.422q0-.453-.25-.75-.25-.312-.688-.312-.437 0-.687.312-.25.297-.25.766zm3.344 4.343q0-.765.484-1.25.5-.5 1.266-.5.765 0 1.25.5.5.485.5 1.297v.406q0 .766-.485 1.266-.484.5-1.25.5-.765 0-1.265-.484-.5-.5-.5-1.313zm.812.453q0 .47.25.766.266.297.703.297.422 0 .672-.281.25-.297.25-.797v-.438q0-.468-.265-.75-.25-.297-.672-.297-.422 0-.688.297-.25.282-.25.782zm-2.953 1-.625-.39 4.172-6.672.61.39z" fill="#4285f4"/><path d="m367.078 275.889h-2.86v-.875h2.86zm1.125-1.094.438-4.25h4.375v1h-3.454l-.265 2.328q.64-.375 1.437-.375 1.157 0 1.844.781.688.766.688 2.078 0 1.313-.72 2.079-.702.765-1.983.765-1.125 0-1.844-.625-.719-.64-.813-1.75h1.016q.11.735.531 1.11.422.375 1.11.375.75 0 1.187-.516.438-.516.438-1.422 0-.86-.47-1.375-.468-.516-1.25-.516-.702 0-1.109.297l-.28.235-.876-.22zm10.766-4.25v.906h-.203q-1.266.031-2.016.766-.75.719-.875 2.031.688-.766 1.844-.766 1.11 0 1.781.782.672.78.672 2.03 0 1.313-.719 2.11-.719.797-1.937.797-1.22 0-1.985-.937-.75-.953-.75-2.438v-.406q0-2.36 1-3.61t2.985-1.265zm-1.422 3.844q-.563 0-1.031.328-.47.328-.657.844v.39q0 1.063.47 1.703.483.64 1.187.64.734 0 1.156-.53.422-.547.422-1.422 0-.875-.422-1.406-.422-.547-1.125-.547zm4.062-2.203q0-.766.485-1.266.5-.5 1.265-.5.782 0 1.266.5t.484 1.297v.422q0 .765-.5 1.265-.484.485-1.234.485-.766 0-1.266-.485-.5-.5-.5-1.312zm.813.453q0 .453.25.75.265.297.703.297.422 0 .672-.282.25-.297.25-.797v-.421q0-.454-.25-.75-.25-.313-.688-.313-.437 0-.687.313-.25.296-.25.765zm3.344 4.343q0-.765.484-1.25.5-.5 1.266-.5.765 0 1.25.5.5.485.5 1.297v.407q0 .765-.485 1.265-.484.5-1.25.5-.765 0-1.265-.484-.5-.5-.5-1.313zm.812.454q0 .468.25.765.266.297.703.297.422 0 .672-.281.25-.297.25-.797v-.438q0-.468-.265-.75-.25-.296-.672-.296-.422 0-.688.296-.25.282-.25.782zm-2.953 1-.625-.391 4.172-6.672.61.39z" stroke="#fff" stroke-linecap="round" stroke-linejoin="round" stroke-width="3"/><path d="m367.078 275.889h-2.86v-.875h2.86zm1.125-1.094.438-4.25h4.375v1h-3.454l-.265 2.328q.64-.375 1.437-.375 1.157 0 1.844.781.688.766.688 2.078 0 1.313-.72 2.079-.702.765-1.983.765-1.125 0-1.844-.625-.719-.64-.813-1.75h1.016q.11.735.531 1.11.422.375 1.11.375.75 0 1.187-.516.438-.516.438-1.422 0-.86-.47-1.375-.468-.516-1.25-.516-.702 0-1.109.297l-.28.235-.876-.22zm10.766-4.25v.906h-.203q-1.266.031-2.016.766-.75.719-.875 2.031.688-.766 1.844-.766 1.11 0 1.781.782.672.78.672 2.03 0 1.313-.719 2.11-.719.797-1.937.797-1.22 0-1.985-.937-.75-.953-.75-2.438v-.406q0-2.36 1-3.61t2.985-1.265zm-1.422 3.844q-.563 0-1.031.328-.47.328-.657.844v.39q0 1.063.47 1.703.483.64 1.187.64.734 0 1.156-.53.422-.547.422-1.422 0-.875-.422-1.406-.422-.547-1.125-.547zm4.062-2.203q0-.766.485-1.266.5-.5 1.265-.5.782 0 1.266.5t.484 1.297v.422q0 .765-.5 1.265-.484.485-1.234.485-.766 0-1.266-.485-.5-.5-.5-1.312zm.813.453q0 .453.25.75.265.297.703.297.422 0 .672-.282.25-.297.25-.797v-.421q0-.454-.25-.75-.25-.313-.688-.313-.437 0-.687.313-.25.296-.25.765zm3.344 4.343q0-.765.484-1.25.5-.5 1.266-.5.765 0 1.25.5.5.485.5 1.297v.407q0 .765-.485 1.265-.484.5-1.25.5-.765 0-1.265-.484-.5-.5-.5-1.313zm.812.454q0 .468.25.765.266.297.703.297.422 0 .672-.281.25-.297.25-.797v-.438q0-.468-.265-.75-.25-.296-.672-.296-.422 0-.688.296-.25.282-.25.782zm-2.953 1-.625-.391 4.172-6.672.61.39z" fill="#4285f4"/><path d="m429.078 222.635h-2.86v-.875h2.86zm4.188 3.188h-1.079v-7.22l-2.187.798v-.985l3.11-1.172h.156zm5.015-4.797h.813q.781-.016 1.219-.407.437-.39.437-1.062 0-1.5-1.5-1.5-.703 0-1.125.406-.406.406-.406 1.063h-1.094q0-1.016.734-1.688.75-.672 1.891-.672 1.203 0 1.89.64.688.642.688 1.782 0 .563-.36 1.078-.359.516-.984.782.704.218 1.079.734.39.516.39 1.266 0 1.14-.75 1.828-.75.672-1.953.672-1.188 0-1.953-.657-.75-.656-.75-1.718h1.094q0 .671.437 1.078.438.406 1.188.406.78 0 1.187-.406.422-.422.422-1.188 0-.734-.453-1.125-.453-.406-1.328-.422h-.813zm5.328-2.094q0-.766.485-1.266.5-.5 1.265-.5.782 0 1.266.5t.484 1.297v.422q0 .766-.5 1.266-.484.484-1.234.484-.766 0-1.266-.484-.5-.5-.5-1.313zm.813.453q0 .453.25.75.265.297.703.297.422 0 .672-.281.25-.297.25-.797v-.422q0-.453-.25-.75-.25-.313-.688-.313-.437 0-.687.313-.25.297-.25.766zm3.344 4.344q0-.766.484-1.25.5-.5 1.266-.5.765 0 1.25.5.5.484.5 1.297v.406q0 .766-.485 1.266-.484.5-1.25.5-.765 0-1.265-.485-.5-.5-.5-1.312zm.812.453q0 .469.25.766.266.296.703.296.422 0 .672-.28.25-.298.25-.798v-.437q0-.469-.265-.75-.25-.297-.672-.297-.422 0-.688.297-.25.281-.25.781zm-2.953 1-.625-.39 4.172-6.673.61.391z" stroke="#fff" stroke-linecap="round" stroke-linejoin="round" stroke-width="3"/><path d="m429.078 222.635h-2.86v-.875h2.86zm4.188 3.188h-1.079v-7.22l-2.187.798v-.985l3.11-1.172h.156zm5.015-4.797h.813q.781-.016 1.219-.407.437-.39.437-1.062 0-1.5-1.5-1.5-.703 0-1.125.406-.406.406-.406 1.063h-1.094q0-1.016.734-1.688.75-.672 1.891-.672 1.203 0 1.89.64.688.642.688 1.782 0 .563-.36 1.078-.359.516-.984.782.704.218 1.079.734.39.516.39 1.266 0 1.14-.75 1.828-.75.672-1.953.672-1.188 0-1.953-.657-.75-.656-.75-1.718h1.094q0 .671.437 1.078.438.406 1.188.406.78 0 1.187-.406.422-.422.422-1.188 0-.734-.453-1.125-.453-.406-1.328-.422h-.813zm5.328-2.094q0-.766.485-1.266.5-.5 1.265-.5.782 0 1.266.5t.484 1.297v.422q0 .766-.5 1.266-.484.484-1.234.484-.766 0-1.266-.484-.5-.5-.5-1.313zm.813.453q0 .453.25.75.265.297.703.297.422 0 .672-.281.25-.297.25-.797v-.422q0-.453-.25-.75-.25-.313-.688-.313-.437 0-.687.313-.25.297-.25.766zm3.344 4.344q0-.766.484-1.25.5-.5 1.266-.5.765 0 1.25.5.5.484.5 1.297v.406q0 .766-.485 1.266-.484.5-1.25.5-.765 0-1.265-.485-.5-.5-.5-1.312zm.812.453q0 .469.25.766.266.296.703.296.422 0 .672-.28.25-.298.25-.798v-.437q0-.469-.265-.75-.25-.297-.672-.297-.422 0-.688.297-.25.281-.25.781zm-2.953 1-.625-.39 4.172-6.673.61.391z" fill="#4285f4"/><path d="m135.922 99.3h2.39v1.032h-2.39v2.687h-1.078v-2.687h-2.39v-1.032h2.39v-2.484h1.078zm4.281.297.438-4.25h4.375v1h-3.453l-.266 2.328q.64-.375 1.437-.375 1.157 0 1.844.782.688.765.688 2.078 0 1.312-.72 2.078-.702.766-1.983.766-1.125 0-1.844-.625-.719-.641-.813-1.75h1.016q.11.734.531 1.109.422.375 1.11.375.75 0 1.187-.516.438-.515.438-1.422 0-.859-.47-1.375-.468-.515-1.25-.515-.702 0-1.109.297l-.28.234zm11.078 1.422h1.188v.875h-1.188v1.985h-1.078v-1.985h-3.89v-.64l3.812-5.907h1.156zm-3.734 0h2.656v-4.187l-.14.234zm6.062-4.031q0-.766.485-1.266.5-.5 1.265-.5.782 0 1.266.5t.484 1.297v.422q0 .766-.5 1.266-.484.484-1.234.484-.766 0-1.266-.484-.5-.5-.5-1.313zm.813.453q0 .453.25.75.266.297.703.297.422 0 .672-.281.25-.297.25-.797v-.422q0-.453-.25-.75-.25-.313-.688-.313-.437 0-.687.313-.25.297-.25.766zm3.344 4.344q0-.766.484-1.25.5-.5 1.266-.5.765 0 1.25.5.5.484.5 1.297v.406q0 .766-.485 1.266-.484.5-1.25.5-.765 0-1.265-.485-.5-.5-.5-1.312zm.812.453q0 .469.25.766.266.296.703.296.422 0 .672-.28.25-.298.25-.798v-.437q0-.469-.266-.75-.25-.297-.671-.297-.422 0-.688.297-.25.281-.25.781zm-2.953 1-.625-.39 4.172-6.673.61.391z" stroke="#fff" stroke-linecap="round" stroke-linejoin="round" stroke-width="3"/><path d="m135.922 99.3h2.39v1.032h-2.39v2.687h-1.078v-2.687h-2.39v-1.032h2.39v-2.484h1.078zm4.281.297.438-4.25h4.375v1h-3.453l-.266 2.328q.64-.375 1.437-.375 1.157 0 1.844.782.688.765.688 2.078 0 1.312-.72 2.078-.702.766-1.983.766-1.125 0-1.844-.625-.719-.641-.813-1.75h1.016q.11.734.531 1.109.422.375 1.11.375.75 0 1.187-.516.438-.515.438-1.422 0-.859-.47-1.375-.468-.515-1.25-.515-.702 0-1.109.297l-.28.234zm11.078 1.422h1.188v.875h-1.188v1.985h-1.078v-1.985h-3.89v-.64l3.812-5.907h1.156zm-3.734 0h2.656v-4.187l-.14.234zm6.062-4.031q0-.766.485-1.266.5-.5 1.265-.5.782 0 1.266.5t.484 1.297v.422q0 .766-.5 1.266-.484.484-1.234.484-.766 0-1.266-.484-.5-.5-.5-1.313zm.813.453q0 .453.25.75.266.297.703.297.422 0 .672-.281.25-.297.25-.797v-.422q0-.453-.25-.75-.25-.313-.688-.313-.437 0-.687.313-.25.297-.25.766zm3.344 4.344q0-.766.484-1.25.5-.5 1.266-.5.765 0 1.25.5.5.484.5 1.297v.406q0 .766-.485 1.266-.484.5-1.25.5-.765 0-1.265-.485-.5-.5-.5-1.312zm.812.453q0 .469.25.766.266.296.703.296.422 0 .672-.28.25-.298.25-.798v-.437q0-.469-.266-.75-.25-.297-.671-.297-.422 0-.688.297-.25.281-.25.781zm-2.953 1-.625-.39 4.172-6.673.61.391z" fill="#db4437"/><path d="m197.922 119.316h2.39v1.031h-2.39v2.688h-1.078v-2.688h-2.39v-1.031h2.39v-2.485h1.078zm5.36-.219h.812q.781-.016 1.219-.406.437-.39.437-1.063 0-1.5-1.5-1.5-.703 0-1.125.407-.406.406-.406 1.062h-1.094q0-1.016.734-1.687.75-.672 1.891-.672 1.203 0 1.89.64.688.641.688 1.782 0 .562-.36 1.078-.359.515-.984.781.703.219 1.078.734.391.516.391 1.266 0 1.14-.75 1.828-.75.672-1.953.672-1.188 0-1.953-.656-.75-.657-.75-1.719h1.094q0 .672.437 1.078.438.406 1.188.406.78 0 1.187-.406.422-.422.422-1.187 0-.735-.453-1.125-.453-.407-1.328-.422h-.813v-.89zm10.609-1.516q0 .641-.344 1.141t-.906.781q.656.282 1.047.844.39.547.39 1.25 0 1.094-.75 1.766-.734.656-1.953.656-1.234 0-1.984-.656-.735-.672-.735-1.766 0-.703.375-1.25.375-.562 1.047-.844-.562-.28-.89-.78-.329-.5-.329-1.142 0-1.078.688-1.703.687-.64 1.828-.64 1.125 0 1.813.64.703.625.703 1.703zm-.891 3.985q0-.719-.453-1.156-.453-.454-1.188-.454-.734 0-1.187.454-.438.437-.438 1.171 0 .72.438 1.141.437.406 1.203.406.75 0 1.188-.422.437-.421.437-1.14zm-1.625-5.438q-.64 0-1.047.407-.39.39-.39 1.078 0 .64.39 1.047.39.406 1.031.406.657 0 1.047-.406.39-.407.39-1.047 0-.657-.405-1.063-.407-.422-1.016-.422zm4.234.875q0-.765.485-1.265.5-.5 1.265-.5.782 0 1.266.5t.484 1.297v.421q0 .766-.5 1.266-.484.484-1.234.484-.766 0-1.266-.484-.5-.5-.5-1.312zm.813.453q0 .454.25.75.266.297.703.297.422 0 .672-.28.25-.298.25-.798v-.422q0-.453-.25-.75-.25-.312-.688-.312-.437 0-.687.312-.25.297-.25.766zm3.344 4.344q0-.765.484-1.25.5-.5 1.266-.5.765 0 1.25.5.5.485.5 1.297v.406q0 .766-.485 1.266-.484.5-1.25.5-.765 0-1.265-.484-.5-.5-.5-1.313zm.812.453q0 .47.25.766.266.297.703.297.422 0 .672-.281.25-.297.25-.797v-.438q0-.469-.266-.75-.25-.297-.671-.297-.422 0-.688.297-.25.281-.25.781zm-2.953 1-.625-.39 4.172-6.672.61.39z" stroke="#fff" stroke-linecap="round" stroke-linejoin="round" stroke-width="3"/><path d="m197.922 119.316h2.39v1.031h-2.39v2.688h-1.078v-2.688h-2.39v-1.031h2.39v-2.485h1.078zm5.36-.219h.812q.781-.016 1.219-.406.437-.39.437-1.063 0-1.5-1.5-1.5-.703 0-1.125.407-.406.406-.406 1.062h-1.094q0-1.016.734-1.687.75-.672 1.891-.672 1.203 0 1.89.64.688.641.688 1.782 0 .562-.36 1.078-.359.515-.984.781.703.219 1.078.734.391.516.391 1.266 0 1.14-.75 1.828-.75.672-1.953.672-1.188 0-1.953-.656-.75-.657-.75-1.719h1.094q0 .672.437 1.078.438.406 1.188.406.78 0 1.187-.406.422-.422.422-1.187 0-.735-.453-1.125-.453-.407-1.328-.422h-.813v-.89zm10.609-1.516q0 .641-.344 1.141t-.906.781q.656.282 1.047.844.39.547.39 1.25 0 1.094-.75 1.766-.734.656-1.953.656-1.234 0-1.984-.656-.735-.672-.735-1.766 0-.703.375-1.25.375-.562 1.047-.844-.562-.28-.89-.78-.329-.5-.329-1.142 0-1.078.688-1.703.687-.64 1.828-.64 1.125 0 1.813.64.703.625.703 1.703zm-.891 3.985q0-.719-.453-1.156-.453-.454-1.188-.454-.734 0-1.187.454-.438.437-.438 1.171 0 .72.438 1.141.437.406 1.203.406.75 0 1.188-.422.437-.421.437-1.14zm-1.625-5.438q-.64 0-1.047.407-.39.39-.39 1.078 0 .64.39 1.047.39.406 1.031.406.657 0 1.047-.406.39-.407.39-1.047 0-.657-.405-1.063-.407-.422-1.016-.422zm4.234.875q0-.765.485-1.265.5-.5 1.265-.5.782 0 1.266.5t.484 1.297v.421q0 .766-.5 1.266-.484.484-1.234.484-.766 0-1.266-.484-.5-.5-.5-1.312zm.813.453q0 .454.25.75.266.297.703.297.422 0 .672-.28.25-.298.25-.798v-.422q0-.453-.25-.75-.25-.312-.688-.312-.437 0-.687.312-.25.297-.25.766zm3.344 4.344q0-.765.484-1.25.5-.5 1.266-.5.765 0 1.25.5.5.485.5 1.297v.406q0 .766-.485 1.266-.484.5-1.25.5-.765 0-1.265-.484-.5-.5-.5-1.313zm.812.453q0 .47.25.766.266.297.703.297.422 0 .672-.281.25-.297.25-.797v-.438q0-.469-.266-.75-.25-.297-.671-.297-.422 0-.688.297-.25.281-.25.781zm-2.953 1-.625-.39 4.172-6.672.61.39z" fill="#db4437"/><path d="m260.922 115.497h2.39v1.031h-2.39v2.688h-1.078v-2.688h-2.39v-1.031h2.39v-2.485h1.078zm8.36 1.719h1.187v.875h-1.188v1.984h-1.078v-1.984h-3.89v-.641l3.812-5.906h1.156v5.672zm-3.735 0h2.656v-4.188l-.14.234zm9.719 2.859h-1.079v-7.219l-2.187.797v-.984l3.11-1.172h.156zm3.343-6.89q0-.766.485-1.266.5-.5 1.265-.5.782 0 1.266.5t.484 1.297v.421q0 .766-.5 1.266-.484.484-1.234.484-.766 0-1.266-.484-.5-.5-.5-1.312v-.407zm.813.452q0 .454.25.75.265.297.703.297.422 0 .672-.28.25-.298.25-.798v-.422q0-.453-.25-.75-.25-.312-.688-.312-.437 0-.687.312-.25.297-.25.766zm3.344 4.344q0-.765.484-1.25.5-.5 1.266-.5.765 0 1.25.5.5.485.5 1.297v.406q0 .766-.485 1.266-.484.5-1.25.5-.765 0-1.265-.484-.5-.5-.5-1.313zm.812.453q0 .47.25.766.266.297.703.297.422 0 .672-.281.25-.297.25-.797v-.438q0-.469-.265-.75-.25-.297-.672-.297-.422 0-.688.297-.25.281-.25.781zm-2.953 1-.625-.39 4.172-6.672.61.39z" stroke="#fff" stroke-linecap="round" stroke-linejoin="round" stroke-width="3"/><path d="m260.922 115.497h2.39v1.031h-2.39v2.688h-1.078v-2.688h-2.39v-1.031h2.39v-2.485h1.078zm8.36 1.719h1.187v.875h-1.188v1.984h-1.078v-1.984h-3.89v-.641l3.812-5.906h1.156v5.672zm-3.735 0h2.656v-4.188l-.14.234zm9.719 2.859h-1.079v-7.219l-2.187.797v-.984l3.11-1.172h.156zm3.343-6.89q0-.766.485-1.266.5-.5 1.265-.5.782 0 1.266.5t.484 1.297v.421q0 .766-.5 1.266-.484.484-1.234.484-.766 0-1.266-.484-.5-.5-.5-1.312v-.407zm.813.452q0 .454.25.75.265.297.703.297.422 0 .672-.28.25-.298.25-.798v-.422q0-.453-.25-.75-.25-.312-.688-.312-.437 0-.687.312-.25.297-.25.766zm3.344 4.344q0-.765.484-1.25.5-.5 1.266-.5.765 0 1.25.5.5.485.5 1.297v.406q0 .766-.485 1.266-.484.5-1.25.5-.765 0-1.265-.484-.5-.5-.5-1.313zm.812.453q0 .47.25.766.266.297.703.297.422 0 .672-.281.25-.297.25-.797v-.438q0-.469-.265-.75-.25-.297-.672-.297-.422 0-.688.297-.25.281-.25.781zm-2.953 1-.625-.39 4.172-6.672.61.39z" fill="#db4437"/><path d="m322.922 129.44h2.39v1.032h-2.39v2.687h-1.078v-2.687h-2.39v-1.032h2.39v-2.484h1.078zm5.36-.218h.812q.781-.016 1.219-.407.437-.39.437-1.062 0-1.5-1.5-1.5-.703 0-1.125.406-.406.406-.406 1.063h-1.094q0-1.016.734-1.688.75-.672 1.891-.672 1.203 0 1.89.64.688.641.688 1.782 0 .563-.36 1.078-.359.516-.984.781.704.22 1.079.735.39.515.39 1.265 0 1.141-.75 1.829-.75.671-1.953.671-1.188 0-1.953-.656-.75-.656-.75-1.719h1.094q0 .672.437 1.079.438.406 1.188.406.78 0 1.187-.406.422-.422.422-1.188 0-.734-.453-1.125-.453-.406-1.328-.422h-.813v-.89zm10.78 1.156q0 1.906-.656 2.844-.64.921-2.031.921-1.36 0-2.016-.906-.656-.906-.687-2.719v-1.437q0-1.89.64-2.797.657-.922 2.047-.922 1.375 0 2.032.89.656.876.671 2.72zm-1.093-1.485q0-1.375-.39-2-.376-.64-1.22-.64-.828 0-1.218.64-.375.625-.375 1.922v1.735q0 1.375.39 2.047.406.656 1.219.656.797 0 1.188-.625.39-.625.406-1.953zm2.64-1.765q0-.766.485-1.266.5-.5 1.265-.5.782 0 1.266.5t.484 1.297v.422q0 .766-.5 1.266-.484.484-1.234.484-.766 0-1.266-.484-.5-.5-.5-1.313zm.813.453q0 .453.25.75.265.297.703.297.422 0 .672-.281.25-.297.25-.797v-.422q0-.453-.25-.75-.25-.313-.688-.313-.437 0-.687.313-.25.297-.25.765zm3.344 4.344q0-.766.484-1.25.5-.5 1.266-.5.765 0 1.25.5.5.484.5 1.297v.406q0 .765-.485 1.265-.484.5-1.25.5-.765 0-1.265-.484-.5-.5-.5-1.312zm.812.453q0 .469.25.765.266.297.703.297.422 0 .672-.28.25-.298.25-.798v-.437q0-.469-.265-.75-.25-.297-.672-.297-.422 0-.688.297-.25.281-.25.781zm-2.953 1-.625-.39 4.172-6.673.61.391z" stroke="#fff" stroke-linecap="round" stroke-linejoin="round" stroke-width="3"/><path d="m322.922 129.44h2.39v1.032h-2.39v2.687h-1.078v-2.687h-2.39v-1.032h2.39v-2.484h1.078zm5.36-.218h.812q.781-.016 1.219-.407.437-.39.437-1.062 0-1.5-1.5-1.5-.703 0-1.125.406-.406.406-.406 1.063h-1.094q0-1.016.734-1.688.75-.672 1.891-.672 1.203 0 1.89.64.688.641.688 1.782 0 .563-.36 1.078-.359.516-.984.781.704.22 1.079.735.39.515.39 1.265 0 1.141-.75 1.829-.75.671-1.953.671-1.188 0-1.953-.656-.75-.656-.75-1.719h1.094q0 .672.437 1.079.438.406 1.188.406.78 0 1.187-.406.422-.422.422-1.188 0-.734-.453-1.125-.453-.406-1.328-.422h-.813v-.89zm10.78 1.156q0 1.906-.656 2.844-.64.921-2.031.921-1.36 0-2.016-.906-.656-.906-.687-2.719v-1.437q0-1.89.64-2.797.657-.922 2.047-.922 1.375 0 2.032.89.656.876.671 2.72zm-1.093-1.485q0-1.375-.39-2-.376-.64-1.22-.64-.828 0-1.218.64-.375.625-.375 1.922v1.735q0 1.375.39 2.047.406.656 1.219.656.797 0 1.188-.625.39-.625.406-1.953zm2.64-1.765q0-.766.485-1.266.5-.5 1.265-.5.782 0 1.266.5t.484 1.297v.422q0 .766-.5 1.266-.484.484-1.234.484-.766 0-1.266-.484-.5-.5-.5-1.313zm.813.453q0 .453.25.75.265.297.703.297.422 0 .672-.281.25-.297.25-.797v-.422q0-.453-.25-.75-.25-.313-.688-.313-.437 0-.687.313-.25.297-.25.765zm3.344 4.344q0-.766.484-1.25.5-.5 1.266-.5.765 0 1.25.5.5.484.5 1.297v.406q0 .765-.485 1.265-.484.5-1.25.5-.765 0-1.265-.484-.5-.5-.5-1.312zm.812.453q0 .469.25.765.266.297.703.297.422 0 .672-.28.25-.298.25-.798v-.437q0-.469-.265-.75-.25-.297-.672-.297-.422 0-.688.297-.25.281-.25.781zm-2.953 1-.625-.39 4.172-6.673.61.391z" fill="#db4437"/><path d="m387.078 302.662h-2.86v-.875h2.86zm6.14-4.734-3.53 7.922h-1.141l3.515-7.64h-4.609v-.891h5.766v.609zm6.673 1.61q0 .64-.344 1.14-.344.5-.906.781.656.281 1.046.844.391.547.391 1.25 0 1.094-.75 1.766-.734.656-1.953.656-1.234 0-1.984-.656-.735-.672-.735-1.766 0-.703.375-1.25.375-.563 1.047-.844-.562-.281-.89-.781-.329-.5-.329-1.14 0-1.079.688-1.704.687-.64 1.828-.64 1.125 0 1.813.64.703.625.703 1.703zm-.891 3.984q0-.719-.453-1.157-.453-.453-1.188-.453-.734 0-1.187.453-.438.438-.438 1.172 0 .72.438 1.141.437.406 1.203.406.75 0 1.188-.422.437-.422.437-1.14zm-1.625-5.438q-.64 0-1.047.406-.39.391-.39 1.079 0 .64.39 1.046.39.407 1.031.407.657 0 1.047-.407.39-.406.39-1.046 0-.657-.405-1.063-.407-.422-1.016-.422zm4.234.875q0-.765.485-1.265.5-.5 1.265-.5.782 0 1.266.5t.484 1.296v.422q0 .766-.5 1.266-.484.484-1.234.484-.766 0-1.266-.484-.5-.5-.5-1.313zm.813.453q0 .453.25.75.265.297.703.297.422 0 .672-.281.25-.297.25-.797v-.422q0-.453-.25-.75-.25-.312-.688-.312-.437 0-.687.312-.25.297-.25.766zm3.344 4.344q0-.766.484-1.25.5-.5 1.266-.5.765 0 1.25.5.5.484.5 1.297v.406q0 .766-.485 1.266-.484.5-1.25.5-.765 0-1.265-.485-.5-.5-.5-1.312zm.812.453q0 .469.25.766.266.297.703.297.422 0 .672-.282.25-.296.25-.796v-.438q0-.469-.265-.75-.25-.297-.672-.297-.422 0-.688.297-.25.281-.25.781zm-2.953 1-.625-.39 4.172-6.672.61.39z" stroke="#fff" stroke-linecap="round" stroke-linejoin="round" stroke-width="3"/><path d="m387.078 302.662h-2.86v-.875h2.86zm6.14-4.734-3.53 7.922h-1.141l3.515-7.64h-4.609v-.891h5.766v.609zm6.673 1.61q0 .64-.344 1.14-.344.5-.906.781.656.281 1.046.844.391.547.391 1.25 0 1.094-.75 1.766-.734.656-1.953.656-1.234 0-1.984-.656-.735-.672-.735-1.766 0-.703.375-1.25.375-.563 1.047-.844-.562-.281-.89-.781-.329-.5-.329-1.14 0-1.079.688-1.704.687-.64 1.828-.64 1.125 0 1.813.64.703.625.703 1.703zm-.891 3.984q0-.719-.453-1.157-.453-.453-1.188-.453-.734 0-1.187.453-.438.438-.438 1.172 0 .72.438 1.141.437.406 1.203.406.75 0 1.188-.422.437-.422.437-1.14zm-1.625-5.438q-.64 0-1.047.406-.39.391-.39 1.079 0 .64.39 1.046.39.407 1.031.407.657 0 1.047-.407.39-.406.39-1.046 0-.657-.405-1.063-.407-.422-1.016-.422zm4.234.875q0-.765.485-1.265.5-.5 1.265-.5.782 0 1.266.5t.484 1.296v.422q0 .766-.5 1.266-.484.484-1.234.484-.766 0-1.266-.484-.5-.5-.5-1.313zm.813.453q0 .453.25.75.265.297.703.297.422 0 .672-.281.25-.297.25-.797v-.422q0-.453-.25-.75-.25-.312-.688-.312-.437 0-.687.312-.25.297-.25.766zm3.344 4.344q0-.766.484-1.25.5-.5 1.266-.5.765 0 1.25.5.5.484.5 1.297v.406q0 .766-.485 1.266-.484.5-1.25.5-.765 0-1.265-.485-.5-.5-.5-1.312zm.812.453q0 .469.25.766.266.297.703.297.422 0 .672-.282.25-.296.25-.796v-.438q0-.469-.265-.75-.25-.297-.672-.297-.422 0-.688.297-.25.281-.25.781zm-2.953 1-.625-.39 4.172-6.672.61.39z" fill="#db4437"/><path d="m449.078 257.447h-2.86v-.875h2.86zm5.203.328h1.188v.875h-1.188v1.985h-1.078v-1.985h-3.89v-.64l3.812-5.906h1.156zm-3.734 0h2.656v-4.187l-.14.234zm9.719 2.86h-1.079v-7.219l-2.187.797v-.984l3.11-1.172h.156zm3.343-6.89q0-.766.485-1.266.5-.5 1.265-.5.782 0 1.266.5t.484 1.296v.422q0 .766-.5 1.266-.484.484-1.234.484-.766 0-1.266-.484-.5-.5-.5-1.313v-.406zm.813.452q0 .453.25.75.265.297.703.297.422 0 .672-.281.25-.297.25-.797v-.422q0-.453-.25-.75-.25-.312-.688-.312-.437 0-.687.312-.25.297-.25.766zm3.344 4.344q0-.766.484-1.25.5-.5 1.266-.5.765 0 1.25.5.5.484.5 1.297v.406q0 .766-.485 1.266-.484.5-1.25.5-.765 0-1.265-.485-.5-.5-.5-1.312zm.812.453q0 .469.25.766.266.297.703.297.422 0 .672-.282.25-.296.25-.796v-.438q0-.469-.265-.75-.25-.297-.672-.297-.422 0-.688.297-.25.281-.25.781zm-2.953 1-.625-.39 4.172-6.672.61.39z" stroke="#fff" stroke-linecap="round" stroke-linejoin="round" stroke-width="3"/><path d="m449.078 257.447h-2.86v-.875h2.86zm5.203.328h1.188v.875h-1.188v1.985h-1.078v-1.985h-3.89v-.64l3.812-5.906h1.156zm-3.734 0h2.656v-4.187l-.14.234zm9.719 2.86h-1.079v-7.219l-2.187.797v-.984l3.11-1.172h.156zm3.343-6.89q0-.766.485-1.266.5-.5 1.265-.5.782 0 1.266.5t.484 1.296v.422q0 .766-.5 1.266-.484.484-1.234.484-.766 0-1.266-.484-.5-.5-.5-1.313v-.406zm.813.452q0 .453.25.75.265.297.703.297.422 0 .672-.281.25-.297.25-.797v-.422q0-.453-.25-.75-.25-.312-.688-.312-.437 0-.687.312-.25.297-.25.766zm3.344 4.344q0-.766.484-1.25.5-.5 1.266-.5.765 0 1.25.5.5.484.5 1.297v.406q0 .766-.485 1.266-.484.5-1.25.5-.765 0-1.265-.485-.5-.5-.5-1.312zm.812.453q0 .469.25.766.266.297.703.297.422 0 .672-.282.25-.296.25-.796v-.438q0-.469-.265-.75-.25-.297-.672-.297-.422 0-.688.297-.25.281-.25.781zm-2.953 1-.625-.39 4.172-6.672.61.39z" fill="#db4437"/><path d="m26.613 335.87v3.704h3.015v-4.297h.922v5.422h-8.531v-5.375h.922v4.25h2.75v-3.703h.922zm-.094-4.14-2.313-1.406v-1.266l3.14 2.078 3.204-2.14v1.25l-2.375 1.469 2.375 1.468v1.266l-3.203-2.14-3.14 2.062v-1.25l2.312-1.39zm4.156-6.5q0 1.297-.844 2.11-.86.796-2.281.796h-.187q-.954 0-1.688-.359-.75-.36-1.156-1-.422-.656-.422-1.406 0-1.235.812-1.922.813-.688 2.329-.688h.453v4.297q.937-.03 1.515-.547.578-.53.578-1.343 0-.563-.234-.953-.234-.407-.625-.72l.516-.655q1.234.796 1.234 2.39zm-5.687.14q0 .657.484 1.11.469.438 1.328.531v-3.171h-.078q-.828.046-1.281.453-.453.39-.453 1.078zm4.796-6.046q0-.578-.343-1.016-.36-.437-.891-.484v-1.031q.547.031 1.047.39.484.344.781.922.297.563.297 1.219 0 1.297-.86 2.062-.874.75-2.374.75h-.188q-.922 0-1.64-.328-.72-.343-1.11-.968-.406-.641-.406-1.516 0-1.063.64-1.766.626-.718 1.657-.765v1.031q-.625.047-1.016.469-.39.422-.39 1.031 0 .828.593 1.281.594.453 1.719.453h.203q1.094 0 1.688-.453.593-.453.593-1.281zm.141-7.375q.75.625.75 1.86 0 1.015-.594 1.546-.593.531-1.75.531h-4.125v-1.078h4.094q1.453 0 1.453-1.172 0-1.25-.937-1.656h-4.61v-1.094h6.344v1.032zm-7.25-4.563h1.531v-1.171h.844v1.171h3.922q.39 0 .578-.156.188-.156.188-.531 0-.188-.063-.516h.875q.125.422.125.828 0 .72-.437 1.094-.454.375-1.266.375h-3.922v1.156h-.844v-1.156h-1.531zm7.875-3.703v1.078h-6.344v-1.078zm-8.016 1.172q-.265 0-.453-.156-.187-.172-.187-.484 0-.313.187-.47.188-.171.453-.171.25 0 .438.172.172.156.172.469 0 .312-.172.484-.188.156-.438.156zm4.782-2.703q-.922 0-1.672-.36-.75-.374-1.14-1.03-.407-.657-.407-1.485 0-1.297.89-2.094.891-.812 2.391-.812h.078q.922 0 1.657.36.734.359 1.156 1.015.406.656.406 1.515 0 1.282-.89 2.094-.907.797-2.391.797zm.14-1.094q1.047 0 1.688-.484.64-.5.64-1.313 0-.828-.64-1.312-.656-.484-1.828-.484-1.032 0-1.672.5-.656.484-.656 1.312 0 .797.64 1.297.625.484 1.828.484zm-3.25-7.218.797-.032q-.906-.734-.906-1.906 0-2.016 2.266-2.031h4.187v1.094h-4.203q-.672 0-1 .312-.328.297-.328.953 0 .531.281.938.281.39.734.61h4.516v1.077h-6.344zm-1.531-10.454h1.531v-1.171h.844v1.171h3.922q.39 0 .578-.156.188-.156.188-.531 0-.188-.063-.516h.875q.125.422.125.828 0 .72-.437 1.094-.454.375-1.266.375h-3.922v1.156h-.844v-1.156h-1.531zm7.875-3.703v1.078h-6.344v-1.078zm-8.016 1.172q-.265 0-.453-.156-.187-.172-.187-.484 0-.313.187-.47.188-.171.453-.171.25 0 .438.172.172.156.172.469 0 .312-.172.484-.188.156-.438.156zm1.672-4.015.703-.032q-.812-.687-.812-1.875 0-1.328 1.016-1.812-.454-.313-.735-.813-.281-.515-.281-1.203 0-2.094 2.203-2.125h4.25v1.078h-4.187q-.672 0-1 .313-.344.312-.344 1.047 0 .61.36 1.015.359.391.968.453h4.203v1.079h-4.156q-1.375 0-1.375 1.359 0 1.062.906 1.453h4.625v1.094h-6.344zm6.469-12.61q0 1.297-.844 2.11-.86.796-2.281.796h-.187q-.954 0-1.688-.359-.75-.36-1.156-1-.422-.656-.422-1.406 0-1.235.812-1.922.813-.688 2.329-.688h.453v4.297q.937-.03 1.515-.547.578-.53.578-1.343 0-.563-.234-.953-.234-.407-.625-.72l.516-.655q1.234.796 1.234 2.39zm-5.687.14q0 .657.484 1.11.469.438 1.328.531v-3.171h-.078q-.828.046-1.281.453-.453.39-.453 1.078zm.187-9.577q-.031.25-.031.531 0 1.078.906 1.453h4.5v1.078h-6.344v-1.047l.735-.015q-.844-.532-.844-1.516 0-.312.078-.484zm5.5-3.563q0 1.297-.844 2.11-.86.796-2.281.796h-.187q-.954 0-1.688-.359-.75-.36-1.156-1-.422-.656-.422-1.406 0-1.235.812-1.922.813-.688 2.329-.688h.453v4.297q.937-.03 1.515-.547.578-.53.578-1.343 0-.563-.234-.953-.234-.407-.625-.72l.516-.655q1.234.796 1.234 2.39zm-5.687.14q0 .657.484 1.11.469.438 1.328.531v-3.171h-.078q-.828.046-1.281.453-.453.39-.453 1.078zm5.562-4.687v1.078h-9v-1.078zm0-5.734q-.187.094-.672.156.797.75.797 1.797 0 .938-.531 1.547-.531.594-1.36.594-.984 0-1.53-.75-.548-.75-.548-2.125v-1.047h-.5q-.562 0-.89.344-.344.328-.344 1 0 .578.297.968.281.391.703.391v1.094q-.484 0-.922-.328-.437-.344-.687-.922-.266-.578-.266-1.266 0-1.11.547-1.719.547-.625 1.5-.656h2.922q.875 0 1.39-.219h.094zm-.828 1.797q0-.516-.266-.969-.265-.453-.687-.656h-1.297v.844q0 2 1.172 2 .5 0 .797-.344.28-.344.28-.875zm-7.047-6.36h1.531v-1.171h.844v1.171h3.922q.39 0 .578-.156.188-.156.188-.531 0-.188-.063-.516h.875q.125.422.125.828 0 .72-.437 1.094-.454.375-1.266.375h-3.922v1.156h-.844v-1.156h-1.531zm7.875-3.703v1.078h-6.344v-1.078zm-8.016 1.172q-.265 0-.453-.156-.187-.172-.187-.484 0-.313.187-.47.188-.171.453-.171.25 0 .438.172.172.156.172.469 0 .312-.172.484-.188.156-.438.156zm6.547-5.078-4.875-1.578v-1.11l6.344 2.282v.828l-6.344 2.297v-1.11zm1.594-6.547q0 1.297-.844 2.11-.86.796-2.281.796h-.187q-.954 0-1.688-.359-.75-.36-1.156-1-.422-.656-.422-1.406 0-1.235.812-1.922.813-.688 2.329-.688h.453v4.297q.937-.03 1.515-.547.578-.53.578-1.343 0-.563-.234-.953-.234-.407-.625-.72l.516-.655q1.234.796 1.234 2.39zm-5.687.14q0 .657.484 1.11.469.438 1.328.531v-3.171h-.078q-.828.046-1.281.453-.453.39-.453 1.078zm-2.313-7.984h1.531v-1.171h.844v1.171h3.922q.39 0 .578-.156.188-.156.188-.531 0-.188-.063-.516h.875q.125.422.125.828 0 .72-.437 1.094-.454.375-1.266.375h-3.922v1.156h-.844v-1.156h-1.531zm4.64-2.234q-.921 0-1.671-.36-.75-.374-1.14-1.03-.407-.657-.407-1.485 0-1.297.89-2.094.891-.812 2.391-.812h.078q.922 0 1.657.36.734.359 1.156 1.015.406.656.406 1.515 0 1.282-.89 2.094-.907.797-2.391.797h-.078zm.141-1.094q1.047 0 1.688-.484.64-.5.64-1.313 0-.828-.64-1.312-.656-.484-1.828-.484-1.032 0-1.672.5-.656.484-.656 1.312 0 .797.64 1.297.625.484 1.828.484zm-4.515-15.265v2.75h7.609v1.11h-7.61v2.75h-.921v-6.61zm6.984-4.844q.75.625.75 1.86 0 1.015-.594 1.546-.593.531-1.75.531h-4.125v-1.078h4.094q1.453 0 1.453-1.172 0-1.25-.937-1.656h-4.61v-1.094h6.344v1.032zm-4.75-6.156q-.031.25-.031.531 0 1.078.906 1.453h4.5v1.078h-6.344v-1.047l.735-.015q-.844-.532-.844-1.516 0-.312.078-.484zm2.281-6.297q1.453 0 2.344.672.875.656.875 1.781 0 1.203-.86 1.86l.735.062v.984h-9v-1.078h3.36q-.813-.656-.813-1.812 0-1.157.875-1.813.86-.656 2.39-.656zm-.125 1.078q-1.11 0-1.703.437-.61.422-.61 1.22 0 1.077.985 1.546h2.75q1-.5 1-1.547 0-.781-.61-1.219-.609-.437-1.812-.437zm-.015-2.422q-.922 0-1.672-.36-.75-.374-1.14-1.03-.407-.657-.407-1.485 0-1.297.89-2.094.891-.812 2.391-.812h.078q.922 0 1.657.36.734.359 1.156 1.015.406.656.406 1.515 0 1.282-.89 2.094-.907.797-2.391.797zm.14-1.094q1.047 0 1.688-.484.64-.5.64-1.313 0-.828-.64-1.312-.656-.484-1.828-.484-1.032 0-1.672.5-.656.484-.656 1.312 0 .797.64 1.297.625.484 1.828.484zm-.672-11.078v3.594h3.766v1.125h-8.531v-5.297h.922v4.172h2.922v-3.594zm3.766-6.031q-.187.094-.672.156.797.75.797 1.797 0 .938-.531 1.547-.531.594-1.36.594-.984 0-1.53-.75-.548-.75-.548-2.125v-1.047h-.5q-.562 0-.89.344-.344.328-.344 1 0 .578.297.968.281.391.703.391v1.094q-.484 0-.922-.328-.437-.344-.687-.922-.266-.578-.266-1.266 0-1.11.547-1.719.547-.625 1.5-.656h2.922q.875 0 1.39-.219h.094zm-.828 1.797q0-.516-.266-.969-.265-.453-.687-.656h-1.297v.844q0 2 1.172 2 .5 0 .797-.344.28-.344.28-.875zm-5.516-5.906.797-.032q-.906-.734-.906-1.906 0-2.016 2.266-2.031h4.187v1.094h-4.203q-.672 0-1 .312-.328.297-.328.953 0 .531.281.938.281.39.734.61h4.516v1.077h-6.344zm-2.515-11.22v1.11h9.797v-1.11h.89v2.204h-11.578v-2.203h.89zm8.859-1.937v1.078h-9v-1.078zm-3.234-1.53q-.922 0-1.672-.36-.75-.375-1.14-1.032-.407-.656-.407-1.484 0-1.297.89-2.094.891-.812 2.391-.812h.078q.922 0 1.657.36.734.359 1.156 1.015.406.656.406 1.515 0 1.282-.89 2.094-.907.797-2.391.797h-.078zm.14-1.095q1.047 0 1.688-.484.64-.5.64-1.313 0-.828-.64-1.312-.656-.484-1.828-.484-1.032 0-1.672.5-.656.484-.656 1.312 0 .797.64 1.297.625.484 1.828.484zm1.594-11.812-4.844-1.219v-1.078l6.344 1.844v.875l-4.812 1.547 4.812 1.5v.875l-6.344 1.843v-1.078l4.75-1.25-4.75-1.484v-.86zm1.625-6.016q0 1.297-.844 2.11-.86.796-2.281.796h-.187q-.954 0-1.688-.359-.75-.36-1.156-1-.422-.656-.422-1.406 0-1.235.812-1.922.813-.688 2.329-.688h.453v4.297q.937-.03 1.515-.547.578-.53.578-1.343 0-.563-.234-.953-.234-.407-.625-.72l.516-.655q1.234.796 1.234 2.39zm-5.687.14q0 .657.484 1.11.469.438 1.328.531v-3.171h-.078q-.828.046-1.281.453-.453.39-.453 1.078zm.187-6.577q-.031.25-.031.531 0 1.078.906 1.453h4.5v1.078h-6.344v-1.047l.735-.015q-.844-.532-.844-1.516 0-.312.078-.484zm5.375-5.11v1.078h-6.344v-1.078zm-8.016 1.172q-.265 0-.453-.156-.187-.172-.187-.484 0-.313.187-.47.188-.171.453-.171.25 0 .438.172.172.156.172.469 0 .312-.172.484-.188.156-.438.156zm6.329-6.687q-.438 0-.672.343-.25.329-.422 1.157-.172.812-.422 1.297-.25.484-.578.718-.344.22-.813.22-.781 0-1.312-.657-.547-.656-.547-1.688 0-1.078.562-1.734.547-.672 1.407-.672v1.078q-.438 0-.75.39-.328.376-.328.938 0 .594.265.938.25.328.656.328.391 0 .594-.313.203-.312.39-1.125.173-.812.423-1.312t.609-.734q.36-.25.86-.25.859 0 1.374.687.516.672.516 1.75 0 .766-.266 1.36-.28.578-.765.906-.485.328-1.047.328v-1.078q.547-.032.875-.438.312-.406.312-1.078 0-.61-.25-.984-.25-.375-.671-.375zm-1.407-10.672q1.453 0 2.344.672.875.656.875 1.78 0 1.204-.86 1.86l.735.063v.984h-9v-1.078h3.36q-.813-.656-.813-1.812 0-1.157.875-1.813.86-.656 2.39-.656zm-.125 1.078q-1.11 0-1.703.437-.61.422-.61 1.22 0 1.077.985 1.546h2.75q1-.5 1-1.547 0-.781-.61-1.219-.609-.437-1.812-.437zm3.344-5.344q0 1.297-.844 2.11-.86.796-2.281.796h-.187q-.954 0-1.688-.359-.75-.36-1.156-1-.422-.656-.422-1.406 0-1.235.812-1.922.813-.688 2.329-.688h.453v4.297q.937-.03 1.515-.547.578-.53.578-1.343 0-.563-.234-.953-.234-.407-.625-.72l.516-.655q1.234.796 1.234 2.39zm-5.687.14q0 .657.484 1.11.469.438 1.328.531v-3.171h-.078q-.828.046-1.281.453-.453.39-.453 1.078zm-2.313-4.984h1.531v-1.171h.844v1.171h3.922q.39 0 .578-.156.188-.156.188-.531 0-.188-.063-.516h.875q.125.422.125.828 0 .72-.437 1.094-.454.375-1.266.375h-3.922v1.156h-.844v-1.156h-1.531zm0-4h1.531v-1.171h.844v1.171h3.922q.39 0 .578-.156.188-.156.188-.531 0-.188-.063-.516h.875q.125.422.125.828 0 .72-.437 1.094-.454.375-1.266.375h-3.922v1.156h-.844v-1.156h-1.531zm8-5.156q0 1.297-.844 2.11-.86.796-2.281.796h-.187q-.954 0-1.688-.359-.75-.36-1.156-1-.422-.656-.422-1.406 0-1.235.812-1.922.813-.688 2.329-.688h.453v4.297q.937-.03 1.515-.547.578-.53.578-1.343 0-.563-.234-.953-.234-.407-.625-.72l.516-.655q1.234.796 1.234 2.39zm-5.687.14q0 .657.484 1.11.469.438 1.328.531v-3.171h-.078q-.828.046-1.281.453-.453.39-.453 1.078zm.187-6.577q-.031.25-.031.53 0 1.08.906 1.454h4.5v1.078h-6.344v-1.047l.735-.015q-.844-.532-.844-1.516 0-.312.078-.484zm-4.375-.157v-2.218h11.578v2.218h-.89v-1.14h-9.798v1.14z" fill="#424242"/><path d="m58.628 310.767h-2.86v-.875h2.86zm4.188 3.188h-1.079v-7.219l-2.187.797v-.984l3.11-1.172h.156zm8.796-3.64q0 1.905-.656 2.843-.64.922-2.031.922-1.36 0-2.016-.906-.656-.907-.687-2.72v-1.437q0-1.89.64-2.797.657-.921 2.047-.921 1.375 0 2.032.89.656.875.671 2.719v1.406zm-1.093-1.485q0-1.375-.39-2-.376-.64-1.22-.64-.828 0-1.218.64-.375.625-.375 1.922v1.734q0 1.375.39 2.047.406.656 1.219.656.797 0 1.188-.625.39-.625.406-1.953zm8.093 1.484q0 1.906-.656 2.844-.64.922-2.031.922-1.36 0-2.016-.906-.656-.907-.687-2.72v-1.437q0-1.89.64-2.797.657-.921 2.047-.921 1.375 0 2.032.89.656.875.671 2.719zm-1.093-1.484q0-1.375-.39-2-.376-.64-1.22-.64-.828 0-1.218.64-.375.625-.375 1.922v1.734q0 1.375.39 2.047.406.656 1.219.656.797 0 1.188-.625.39-.625.406-1.953zm2.64-1.766q0-.765.485-1.265.5-.5 1.265-.5.782 0 1.266.5t.484 1.296v.422q0 .766-.5 1.266-.484.484-1.234.484-.766 0-1.266-.484-.5-.5-.5-1.313zm.813.453q0 .453.25.75.266.297.703.297.422 0 .672-.281.25-.297.25-.797v-.422q0-.453-.25-.75-.25-.312-.688-.312-.437 0-.687.312-.25.297-.25.766zm3.344 4.344q0-.766.484-1.25.5-.5 1.266-.5.765 0 1.25.5.5.484.5 1.297v.406q0 .766-.485 1.266-.484.5-1.25.5-.765 0-1.265-.485-.5-.5-.5-1.312zm.812.453q0 .469.25.766.266.297.703.297.422 0 .672-.282.25-.296.25-.796v-.438q0-.469-.266-.75-.25-.297-.671-.297-.422 0-.688.297-.25.281-.25.781zm-2.953 1-.625-.39 4.172-6.672.61.39zm-16.547-64.306h-2.86v-.875h2.86zm1.125-1.094.438-4.25h4.375v1h-3.454l-.265 2.328q.64-.375 1.437-.375 1.157 0 1.844.781.688.766.688 2.079 0 1.312-.72 2.078-.702.765-1.984.765-1.124 0-1.843-.625-.719-.64-.813-1.75h1.016q.11.735.531 1.11.422.375 1.11.375.75 0 1.187-.516.438-.516.438-1.422 0-.86-.47-1.375-.468-.515-1.25-.515-.702 0-1.109.296l-.28.235zm11.86.64q0 1.907-.657 2.844-.64.922-2.031.922-1.36 0-2.016-.906-.656-.906-.687-2.719v-1.437q0-1.89.64-2.797.657-.922 2.047-.922 1.375 0 2.032.89.656.876.671 2.72v1.406zm-1.094-1.484q0-1.375-.39-2-.376-.64-1.22-.64-.828 0-1.218.64-.375.625-.375 1.922v1.735q0 1.375.39 2.046.406.657 1.219.657.797 0 1.188-.625.39-.625.406-1.953zm2.64-1.765q0-.766.485-1.266.5-.5 1.265-.5.782 0 1.266.5t.484 1.297v.422q0 .765-.5 1.265-.484.485-1.234.485-.766 0-1.266-.485-.5-.5-.5-1.312zm.813.453q0 .453.25.75.266.297.703.297.422 0 .672-.282.25-.296.25-.796v-.422q0-.453-.25-.75-.25-.313-.688-.313-.437 0-.687.313-.25.297-.25.765zm3.344 4.344q0-.766.484-1.25.5-.5 1.266-.5.765 0 1.25.5.5.484.5 1.296v.407q0 .765-.485 1.265-.484.5-1.25.5-.765 0-1.265-.484-.5-.5-.5-1.313zm.812.453q0 .468.25.765.266.297.703.297.422 0 .672-.281.25-.297.25-.797v-.437q0-.47-.266-.75-.25-.297-.671-.297-.422 0-.688.297-.25.28-.25.78zm-2.953 1-.625-.391 4.172-6.672.61.39zm-12.703-65.697h2.39v1.03h-2.39v2.688h-1.078v-2.687h-2.39v-1.031h2.39v-2.485h1.078zm9.14.937q0 1.906-.656 2.844-.64.922-2.031.922-1.36 0-2.016-.906-.656-.907-.687-2.72v-1.437q0-1.89.64-2.797.657-.921 2.047-.921 1.375 0 2.032.89.656.875.671 2.719zm-1.093-1.484q0-1.375-.39-2-.376-.64-1.22-.64-.828 0-1.218.64-.375.625-.375 1.922v1.734q0 1.375.39 2.047.406.656 1.219.656.797 0 1.188-.625.39-.625.406-1.953zm2.64-1.766q0-.765.485-1.265.5-.5 1.265-.5.782 0 1.266.5t.484 1.296v.422q0 .766-.5 1.266-.484.484-1.234.484-.766 0-1.266-.484-.5-.5-.5-1.313zm.813.453q0 .453.25.75.266.297.703.297.422 0 .672-.281.25-.297.25-.797v-.422q0-.453-.25-.75-.25-.312-.688-.312-.437 0-.687.312-.25.297-.25.766zm3.344 4.344q0-.766.484-1.25.5-.5 1.266-.5.765 0 1.25.5.5.484.5 1.297v.406q0 .766-.485 1.266-.484.5-1.25.5-.765 0-1.265-.485-.5-.5-.5-1.312zm.812.453q0 .469.25.766.266.297.703.297.422 0 .672-.282.25-.296.25-.796v-.438q0-.469-.266-.75-.25-.297-.671-.297-.422 0-.688.297-.25.281-.25.781zm-2.953 1-.625-.39 4.172-6.672.61.39zm-19.703-65.697h2.39v1.031h-2.39v2.688h-1.078v-2.688h-2.39v-1.03h2.39v-2.485h1.078zm4.281.297.438-4.25h4.375v1h-3.454l-.265 2.328q.64-.375 1.437-.375 1.157 0 1.844.781.688.766.688 2.078 0 1.313-.72 2.079-.702.765-1.984.765-1.124 0-1.843-.625-.719-.64-.813-1.75h1.016q.11.735.531 1.11.422.375 1.11.375.75 0 1.187-.516.438-.516.438-1.422 0-.86-.47-1.375-.468-.516-1.25-.516-.702 0-1.109.297l-.28.235zm11.86.64q0 1.907-.657 2.844-.64.922-2.031.922-1.36 0-2.016-.906-.656-.906-.687-2.719v-1.437q0-1.89.64-2.797.657-.922 2.047-.922 1.375 0 2.032.89.656.876.671 2.72v1.406zm-1.094-1.484q0-1.375-.39-2-.376-.64-1.22-.64-.828 0-1.218.64-.375.625-.375 1.922v1.734q0 1.375.39 2.047.406.657 1.219.657.797 0 1.188-.625.39-.625.406-1.954v-1.78zm2.64-1.765q0-.766.485-1.266.5-.5 1.265-.5.782 0 1.266.5t.484 1.297v.422q0 .765-.5 1.265-.484.485-1.234.485-.766 0-1.266-.485-.5-.5-.5-1.312zm.813.453q0 .453.25.75.266.297.703.297.422 0 .672-.282.25-.297.25-.797v-.421q0-.454-.25-.75-.25-.313-.688-.313-.437 0-.687.313-.25.296-.25.765zm3.344 4.343q0-.765.484-1.25.5-.5 1.266-.5.765 0 1.25.5.5.485.5 1.297v.407q0 .765-.485 1.265-.484.5-1.25.5-.765 0-1.265-.484-.5-.5-.5-1.313zm.812.454q0 .468.25.765.266.297.703.297.422 0 .672-.281.25-.297.25-.797v-.438q0-.468-.266-.75-.25-.296-.671-.296-.422 0-.688.296-.25.282-.25.782zm-2.953 1-.625-.391 4.172-6.672.61.39zm-26.703-65.697h2.39v1.03h-2.39v2.688h-1.078v-2.687h-2.39v-1.031h2.39v-2.485h1.078zm7.344 4.578h-1.079v-7.22l-2.187.798v-.985l3.11-1.171h.156zm8.796-3.641q0 1.906-.656 2.844-.64.922-2.031.922-1.36 0-2.016-.907-.656-.906-.687-2.718v-1.438q0-1.89.64-2.797.657-.922 2.047-.922 1.375 0 2.032.891.656.875.671 2.719zm-1.093-1.484q0-1.375-.39-2-.376-.641-1.22-.641-.828 0-1.218.64-.375.626-.375 1.923v1.734q0 1.375.39 2.047.406.656 1.219.656.797 0 1.188-.625.39-.625.406-1.953zm8.093 1.484q0 1.906-.656 2.844-.64.922-2.031.922-1.36 0-2.016-.907-.656-.906-.687-2.718v-1.438q0-1.89.64-2.797.657-.922 2.047-.922 1.375 0 2.032.891.656.875.671 2.719zm-1.093-1.484q0-1.375-.39-2-.376-.641-1.22-.641-.828 0-1.218.64-.375.626-.375 1.923v1.734q0 1.375.39 2.047.406.656 1.219.656.797 0 1.188-.625.39-.625.406-1.953zm2.64-1.766q0-.766.485-1.266.5-.5 1.265-.5.782 0 1.266.5t.484 1.297v.422q0 .766-.5 1.266-.484.484-1.234.484-.766 0-1.266-.484-.5-.5-.5-1.313zm.813.453q0 .453.25.75.266.297.703.297.422 0 .672-.281.25-.297.25-.797v-.422q0-.453-.25-.75-.25-.312-.688-.312-.437 0-.687.312-.25.297-.25.766zm3.344 4.344q0-.766.484-1.25.5-.5 1.266-.5.765 0 1.25.5.5.484.5 1.297v.406q0 .766-.485 1.266-.484.5-1.25.5-.765 0-1.265-.485-.5-.5-.5-1.312zm.812.453q0 .469.25.766.266.297.703.297.422 0 .672-.282.25-.297.25-.797v-.437q0-.469-.266-.75-.25-.297-.671-.297-.422 0-.688.297-.25.281-.25.781zm-2.953 1-.625-.39 4.172-6.672.61.39zm33.131 273.018-1.746 1.008 1.727 2.99-.975.563-4.265-7.388 2.449-1.414q1.245-.72 2.236-.534 1.005.178 1.63 1.26.398.69.316 1.424-.068.725-.583 1.365l3.537 2.125.039.068-1.042.602zm-2.207.21 1.502-.868q.73-.422.94-1.029.214-.629-.153-1.265-.391-.676-1.008-.807t-1.396.3l-1.502.868 1.617 2.8zm9.476-.275q-1.123.648-2.249.324-1.12-.346-1.83-1.577l-.094-.163q-.477-.825-.533-1.64-.063-.83.288-1.502.358-.694 1.007-1.069 1.07-.617 2.07-.257 1.003.36 1.76 1.672l.227.393-3.721 2.148q.495.797 1.231 1.04.75.234 1.453-.172.487-.281.708-.68.235-.405.31-.9l.826.118q-.073 1.468-1.453 2.265zm-2.965-4.855q-.569.328-.719.974-.145.624.204 1.416l2.747-1.586-.04-.068q-.454-.694-1.032-.883-.565-.197-1.16.147zm3.533-2.943.426.675q.182-1.152 1.197-1.738 1.746-1.008 2.892.946l2.094 3.627-.947.547-2.102-3.64q-.336-.582-.77-.71-.422-.136-.99.192-.46.266-.671.713-.198.439-.16.94l2.257 3.911-.934.539-3.171-5.494.88-.508zm6.515-.153q-.734-1.272-.576-2.373.15-1.115 1.124-1.678.96-.554 1.904-.233l-1.648-2.855.933-.54 4.5 7.795-.866.5-.384-.572q-.162 1.032-1.163 1.61-.948.547-2.01.114-1.048-.442-1.775-1.7zm.996-.43q.54.933 1.223 1.242.697.301 1.374-.09.893-.515.844-1.569l-1.454-2.517q-.864-.529-1.744-.021-.69.398-.778 1.153-.074.746.535 1.802zm9.242-1.62q-1.124.65-2.25.325-1.119-.346-1.83-1.577l-.094-.163q-.476-.825-.532-1.64-.064-.83.288-1.502.357-.694 1.007-1.069 1.069-.617 2.07-.257 1.002.36 1.76 1.672l.226.393-3.72 2.148q.495.797 1.23 1.04.75.234 1.453-.172.488-.281.709-.68.234-.405.31-.9l.826.118q-.073 1.468-1.453 2.265zm-2.966-4.854q-.568.328-.719.974-.144.624.204 1.416l2.747-1.586-.039-.068q-.454-.694-1.033-.883-.565-.197-1.16.147zm5.79-3.127q-.232.098-.475.238-.934.54-.805 1.512l2.25 3.897-.934.539-3.172-5.494.907-.523.38.628q.039-.996.891-1.489.27-.156.459-.174l.5.866zm34.402 18.062q-1.455.353-2.342.162-.873-.2-1.318-.971-.5-.866-.138-1.833.367-.988 1.49-1.637.758-.437 1.526-.483.767-.046 1.388.28.636.32.995.942l-.988.57q-.39-.677-1.042-.805-.638-.137-1.41.308-.717.414-.935.973-.227.546.094 1.1.265.46.824.553.572.085 1.64-.19 1.07-.273 1.763-.259.707.007 1.193.285.5.271.82.826.523.907.132 1.854-.391.948-1.555 1.62-.771.445-1.606.53-.821.078-1.476-.212-.649-.311-1.016-.947l.975-.563q.382.663 1.11.767.727.103 1.552-.374.772-.445.998-.99.218-.56-.094-1.1-.313-.542-.863-.621-.551-.079-1.717.215zm7.983-.08q-1.123.648-2.249.324-1.12-.346-1.83-1.577l-.094-.163q-.477-.825-.533-1.64-.064-.83.288-1.502.358-.694 1.007-1.069 1.07-.617 2.07-.257 1.002.36 1.76 1.672l.227.393-3.721 2.148q.495.797 1.23 1.04.75.235 1.454-.172.487-.281.708-.68.235-.405.31-.9l.826.118q-.073 1.468-1.453 2.265zm-2.966-4.855q-.568.328-.718.974-.145.624.204 1.416l2.747-1.586-.04-.068q-.454-.694-1.032-.883-.565-.197-1.16.147zm9.21 1.106q-.176-.116-.472-.504-.251 1.065-1.158 1.589-.812.469-1.605.313-.78-.163-1.194-.88-.492-.853-.116-1.701.376-.849 1.567-1.536l.906-.524-.25-.433q-.28-.487-.743-.6-.456-.133-1.037.203-.501.289-.691.741-.198.44.013.805l-.947.547q-.242-.42-.177-.963.08-.55.455-1.056.368-.52.963-.863.96-.555 1.762-.386.815.161 1.318.971l1.461 2.53q.438.758.885 1.095l.047.082-.988.57zm-1.971.181q.447-.258.706-.714.26-.457.225-.924l-.649-1.123-.73.422q-1.733 1-1.147 2.015.25.433.697.518.438.072.898-.194zm4.614-7.914q-.232.098-.476.238-.933.54-.805 1.512l2.25 3.897-.934.539-3.171-5.494.906-.523.38.628q.04-.996.892-1.489.27-.156.458-.174zm5.309 2.257q.5-.289.708-.805.199-.53-.026-1.014l.893-.515q.246.489.185 1.102-.056.591-.408 1.137-.339.539-.907.867-1.123.648-2.216.287-1.087-.383-1.837-1.682l-.094-.162q-.46-.799-.536-1.585-.061-.795.285-1.446.351-.672 1.11-1.11.92-.53 1.848-.327.935.182 1.492 1.051l-.893.516q-.354-.518-.914-.645-.56-.128-1.089.177-.717.414-.812 1.155-.096.74.467 1.715l.101.176q.547.947 1.236 1.235.69.287 1.407-.127zm1.531-6.44q.185-1.118 1.187-1.696 1.745-1.008 2.892.946l2.093 3.627-.947.547-2.102-3.64q-.335-.582-.77-.71-.421-.136-.99.192-.46.266-.67.713-.199.439-.161.94l2.257 3.911-.933.539-4.5-7.794.933-.54 1.711 2.964zm42.485 13.466-3.207 1.852 1.507 2.612 3.722-2.148.46.798-4.695 2.71-4.266-7.387 4.655-2.688.461.798-3.68 2.125 1.375 2.382 3.207-1.851.46.798zm3.539-2.15.061-2.706 1.096-.633-.23 3.759 3.456 1.703-1.082.625-2.46-1.322-.084 2.791-1.096.633.252-3.844-3.356-1.689 1.082-.625 2.36 1.307zm8.452-3.798q.719 1.245.596 2.344-.123 1.1-1.111 1.67-1.001.578-1.937.27l1.524 2.639-.934.539-4.39-7.605.852-.492.392.586q.175-1.04 1.19-1.626.988-.57 1.986-.154 1.012.408 1.777 1.734zm-.996.43q-.54-.933-1.25-1.226-.705-.315-1.395.083-.852.493-.842 1.479l1.515 2.625q.857.516 1.723.016.677-.39.765-1.145.093-.776-.516-1.831zm2.103-1.232q-.46-.798-.525-1.627-.05-.837.323-1.504.365-.68 1.082-1.094 1.124-.648 2.259-.275 1.149.365 1.899 1.664l.039.068q.46.798.517 1.614.056.815-.302 1.509-.365.68-1.109 1.11-1.11.64-2.259.275-1.143-.386-1.885-1.672zm1.018-.425q.523.907 1.263 1.22.753.304 1.457-.102.717-.414.816-1.21.091-.811-.495-1.826-.515-.893-1.268-1.198-.748-.326-1.465.088-.69.398-.803 1.203-.107.783.495 1.825zm6.883-6.608q-.232.098-.476.238-.933.54-.805 1.512l2.25 3.897-.934.54-3.171-5.495.906-.523.38.628q.04-.996.892-1.489.27-.156.458-.174zm.834-3.368.766 1.326 1.015-.586.421.73-1.014.587 1.96 3.396q.196.338.425.423.229.084.554-.104.162-.093.415-.312l.437.758q-.302.32-.654.522-.623.36-1.166.168-.552-.204-.958-.908l-1.96-3.397-1.002.579-.422-.731 1.001-.578-.765-1.326zm28.463 26.181-3.099 1.79.427 2.333-1.001.578-1.451-9.013.852-.492 7.094 5.755-1.001.578-1.821-1.528zm-3.262.82 2.517-1.454-3.25-2.724.733 4.177zm4.793-6.449.426.675q.182-1.152 1.197-1.738 1.746-1.008 2.892.946l2.094 3.627-.947.547-2.102-3.64q-.336-.582-.77-.71-.422-.136-.99.192-.46.266-.671.713-.198.439-.16.94l2.257 3.911-.934.539-3.171-5.494.88-.508zm6.062-3.5.426.675q.183-1.152 1.198-1.738 1.745-1.008 2.891.946l2.094 3.627-.947.547-2.102-3.64q-.336-.582-.77-.71-.421-.136-.99.192-.46.266-.671.713-.198.439-.16.94l2.257 3.911-.933.539-3.172-5.494.88-.508zm6.48-.15q-.46-.799-.524-1.628-.05-.837.323-1.504.365-.68 1.082-1.094 1.123-.648 2.258-.275 1.15.365 1.9 1.664l.039.068q.46.798.516 1.614.056.815-.301 1.509-.365.68-1.11 1.11-1.11.64-2.258.275-1.143-.386-1.885-1.672l-.04-.068zm1.018-.426q.523.907 1.263 1.22.754.304 1.457-.102.717-.414.817-1.21.09-.811-.495-1.826-.516-.893-1.269-1.198-.748-.326-1.465.088-.69.398-.803 1.203-.107.783.495 1.825zm4.253-7.976.766 1.326 1.015-.586.422.73-1.015.587 1.96 3.396q.196.338.425.423.23.084.554-.104.162-.093.415-.312l.438.758q-.303.32-.655.522-.622.36-1.166.168-.551-.204-.957-.908l-1.961-3.397-1.002.579-.422-.731 1.002-.578-.766-1.326zm9.513 3.6q-.175-.115-.471-.503-.251 1.065-1.158 1.589-.812.469-1.605.313-.78-.163-1.194-.88-.492-.853-.116-1.701.376-.849 1.567-1.536l.906-.524-.25-.433q-.281-.487-.743-.6-.456-.133-1.038.203-.5.289-.69.741-.198.44.013.805l-.947.547q-.242-.42-.177-.963.08-.55.455-1.056.368-.52.963-.863.96-.555 1.762-.386.815.161 1.318.971l1.461 2.53q.438.758.885 1.095l.047.082-.988.57zm-1.97.182q.446-.258.706-.714.26-.457.224-.924l-.648-1.123-.73.422q-1.733 1-1.147 2.015.25.433.696.518.439.072.899-.194zm1.984-9.282.765 1.326 1.015-.586.422.73-1.015.587 1.961 3.396q.195.338.425.423.229.084.553-.104.163-.093.416-.312l.437.758q-.303.32-.655.522-.622.36-1.165.168-.552-.204-.958-.908l-1.961-3.397-1.001.579-.422-.731 1.001-.578-.766-1.326zm8.465 4.35q-1.123.648-2.248.324-1.12-.346-1.831-1.577l-.094-.163q-.477-.825-.533-1.64-.063-.83.288-1.502.358-.694 1.007-1.069 1.07-.617 2.071-.257 1.002.36 1.76 1.672l.226.393-3.721 2.148q.496.797 1.231 1.04.75.235 1.453-.172.487-.281.708-.68.235-.405.31-.9l.826.118q-.073 1.468-1.453 2.265zm-2.965-4.855q-.569.328-.719.974-.144.624.204 1.416l2.747-1.586-.04-.068q-.454-.694-1.032-.883-.565-.197-1.16.147zm30.575 24.872-.974.562-4.266-7.388.974-.563zm-.885-6.815.425.675q.183-1.152 1.198-1.738 1.746-1.008 2.892.946l2.094 3.627-.947.547-2.102-3.64q-.336-.582-.77-.71-.422-.136-.99.192-.46.266-.671.713-.198.439-.16.94l2.257 3.911-.934.539-3.172-5.494zm9.37 1.916-.934.54-3.172-5.495.933-.539 3.172 5.494zm-5.023-6.356q-.133-.23-.092-.47.056-.249.326-.405.27-.156.5-.072.242.077.375.307.125.216.07.465-.05.226-.32.383-.27.156-.505.093-.23-.084-.354-.3zm3.94-2.112.766 1.326 1.015-.586.421.73-1.014.587 1.96 3.396q.196.338.425.423.229.084.554-.104.162-.093.415-.312l.437.758q-.302.32-.654.522-.623.36-1.166.168-.552-.204-.958-.908l-1.96-3.397-1.002.579-.422-.731 1.001-.578-.765-1.326zm7.144 4.968-.933.54-3.172-5.495.934-.539zm-5.022-6.356q-.133-.23-.091-.47.055-.249.325-.405.27-.156.5-.072.243.077.375.307.125.216.07.465-.05.226-.32.383-.27.156-.505.093-.23-.084-.354-.3zm9.989 3.489q-.175-.116-.472-.504-.25 1.065-1.157 1.589-.812.468-1.606.313-.78-.163-1.193-.88-.493-.853-.117-1.701.377-.849 1.567-1.536l.907-.524-.25-.433q-.281-.487-.743-.6-.456-.133-1.038.203-.5.289-.69.741-.198.44.013.805l-.947.547q-.243-.42-.177-.963.079-.55.454-1.056.368-.52.964-.863.96-.555 1.762-.386.814.161 1.318.971l1.46 2.53q.438.758.886 1.095l.046.082zm-1.97.181q.446-.258.706-.714.26-.457.224-.924l-.648-1.123-.731.422q-1.732 1-1.146 2.015.25.433.696.518.438.072.898-.194zm5.664-2.314-.934.54-4.5-7.795.934-.54zm2.598-1.5-.934.54-3.172-5.495.934-.539zm-5.023-6.356q-.133-.23-.091-.47.055-.249.326-.405.27-.156.5-.072.242.077.375.307.125.216.07.465-.05.226-.32.383-.271.156-.506.093-.229-.084-.354-.3zm7.04 4.163 3.207-1.852.446.772-4.358 2.515-.398-.69.71-5.769-2.99 1.727-.453-.785 4.168-2.406.383.663zm7.098-2.925q-1.123.648-2.249.324-1.12-.346-1.83-1.577l-.094-.163q-.477-.825-.533-1.64-.063-.83.288-1.502.358-.694 1.007-1.069 1.07-.617 2.07-.257 1.002.36 1.76 1.672l.227.393-3.721 2.148q.495.797 1.231 1.04.75.234 1.453-.172.487-.281.708-.68.235-.405.31-.9l.826.118q-.073 1.468-1.453 2.265zm-2.965-4.855q-.569.328-.72.974-.144.624.205 1.416l2.747-1.586-.04-.068q-.454-.694-1.032-.883-.565-.197-1.16.147zm16.973 23.938-2.381 1.375 3.804 6.59-.96.555-3.805-6.59-2.382 1.375-.46-.799 5.723-3.304zm2.742 3.468q-.46-.798-.524-1.627-.05-.837.323-1.504.365-.68 1.082-1.094 1.123-.648 2.258-.275 1.15.365 1.9 1.664l.039.068q.46.798.516 1.614.056.815-.301 1.509-.365.68-1.11 1.11-1.109.64-2.258.275-1.143-.386-1.885-1.672zm1.018-.425q.523.907 1.263 1.22.754.304 1.457-.102.717-.414.817-1.21.09-.811-.495-1.826-.516-.893-1.269-1.198-.748-.326-1.465.088-.69.398-.803 1.203-.107.783.495 1.825zm4.253-7.976.766 1.326 1.015-.586.422.73-1.015.587 1.96 3.396q.196.338.425.423.23.084.554-.104.162-.093.415-.312l.438.758q-.303.32-.655.522-.622.36-1.166.168-.551-.204-.957-.908l-1.961-3.397-1.002.579-.421-.731 1-.578-.765-1.326zm9.513 3.6q-.175-.115-.471-.503-.251 1.065-1.158 1.589-.812.469-1.605.313-.78-.163-1.194-.88-.492-.853-.116-1.701.376-.849 1.567-1.536l.906-.524-.25-.433q-.281-.487-.743-.6-.456-.133-1.038.203-.5.289-.69.741-.198.44.013.805l-.947.547q-.242-.42-.177-.963.08-.55.455-1.056.368-.52.963-.863.96-.555 1.762-.386.815.161 1.318.971l1.461 2.53q.438.758.885 1.095l.047.082-.988.57zm-1.97.182q.446-.258.706-.714.26-.457.224-.924l-.648-1.123-.73.422q-1.733 1-1.147 2.015.25.433.696.518.439.072.899-.194zm5.664-2.314-.934.54-4.5-7.795.934-.54zm4.597-7.038q-1.456.353-2.342.162-.874-.2-1.319-.971-.5-.866-.138-1.833.368-.988 1.491-1.637.758-.437 1.525-.483.767-.046 1.389.28.635.32.994.942l-.987.57q-.391-.677-1.043-.805-.638-.137-1.41.308-.716.414-.935.973-.226.546.094 1.1.266.46.824.553.572.085 1.641-.19 1.069-.273 1.763-.259.707.007 1.193.285.499.272.82.826.523.907.132 1.854-.392.948-1.555 1.62-.772.445-1.606.53-.822.078-1.476-.212-.649-.311-1.016-.947l.974-.563q.383.663 1.11.767.727.103 1.553-.374.771-.445.997-.99.219-.56-.094-1.1-.312-.542-.863-.621-.55-.079-1.716.215zm7.456-.805q.5-.289.708-.805.199-.53-.026-1.014l.893-.515q.246.489.185 1.102-.056.591-.408 1.137-.338.539-.907.867-1.123.648-2.216.287-1.087-.383-1.837-1.682l-.093-.162q-.461-.799-.537-1.585-.061-.795.285-1.446.351-.672 1.11-1.11.92-.53 1.849-.327.934.182 1.49 1.051l-.892.516q-.353-.518-.914-.645-.56-.128-1.089.177-.717.414-.812 1.155-.096.74.467 1.715l.101.176q.547.947 1.236 1.235.69.287 1.407-.127zm1.512-3.724q-.46-.798-.524-1.627-.05-.837.323-1.504.365-.68 1.082-1.094 1.123-.648 2.258-.275 1.15.365 1.9 1.664l.038.068q.461.798.517 1.614.056.815-.301 1.509-.365.68-1.11 1.11-1.11.64-2.258.275-1.143-.386-1.885-1.672zm1.018-.425q.523.907 1.263 1.22.754.304 1.457-.102.717-.414.817-1.21.09-.811-.495-1.826-.516-.893-1.269-1.198-.748-.326-1.465.088-.69.398-.803 1.203-.107.783.495 1.825zm6.884-6.608q-.232.098-.476.238-.934.54-.805 1.512l2.25 3.897-.934.54-3.172-5.495.907-.523.38.628q.039-.996.891-1.489.27-.156.459-.174zm5.835 2.982q-1.123.648-2.249.324-1.12-.346-1.83-1.577l-.094-.163q-.477-.825-.533-1.64-.064-.83.288-1.502.357-.694 1.007-1.069 1.069-.617 2.07-.257 1.002.36 1.76 1.672l.227.393-3.722 2.148q.496.797 1.232 1.04.749.235 1.453-.172.487-.281.708-.68.235-.405.31-.9l.826.118q-.073 1.468-1.453 2.265zm-2.966-4.855q-.568.328-.718.974-.145.624.204 1.416l2.747-1.586-.04-.068q-.454-.694-1.032-.883-.565-.197-1.16.147z" fill="#757575"/><path d="m511.45 57.417a1 1 0 0 1 1-1h10a1 1 0 0 1 1 1v10a1 1 0 0 1 -1 1h-10a1 1 0 0 1 -1-1z" fill="#4285f4"/><path d="m533.278 65.995h4.89v.922h-6.218v-.844l4.688-6.766h-4.61v-.922h5.953v.829l-4.703 6.78zm11.063-5.39q0 .64-.344 1.14-.344.5-.906.781.656.281 1.047.844.39.547.39 1.25 0 1.094-.75 1.765-.734.657-1.953.657-1.234 0-1.984-.657-.735-.671-.735-1.765 0-.703.375-1.25.375-.563 1.047-.844-.562-.281-.89-.781-.329-.5-.329-1.14 0-1.079.688-1.704.687-.64 1.828-.64 1.125 0 1.813.64.703.625.703 1.703zm-.891 3.984q0-.72-.453-1.157-.453-.453-1.188-.453-.734 0-1.187.453-.438.438-.438 1.172 0 .719.438 1.14.437.407 1.203.407.75 0 1.188-.422.437-.422.437-1.14zm-1.625-5.438q-.64 0-1.047.406-.39.39-.39 1.078 0 .641.39 1.047.39.407 1.031.407.657 0 1.047-.407.39-.406.39-1.047 0-.656-.405-1.062-.407-.422-1.016-.422zm8.906 4.906h1.188v.875h-1.188v1.985h-1.078v-1.985h-3.89v-.64l3.812-5.907h1.156zm-3.734 0h2.656v-4.187l-.14.234zm11.516-.781q0 1.906-.657 2.844-.64.922-2.031.922-1.36 0-2.016-.907-.656-.906-.687-2.718v-1.438q0-1.89.64-2.797.657-.922 2.047-.922 1.375 0 2.032.891.656.875.672 2.719zm-1.094-1.484q0-1.375-.39-2-.376-.641-1.22-.641-.828 0-1.218.64-.375.626-.375 1.923v1.734q0 1.375.39 2.047.407.656 1.219.656.797 0 1.188-.625.39-.625.406-1.953z" fill="#757575"/><path d="m511.45 82.417a1 1 0 0 1 1-1h10a1 1 0 0 1 1 1v10a1 1 0 0 1 -1 1h-10a1 1 0 0 1 -1-1z" fill="#db4437"/><path d="m533.888 83.385 2.796 6.954 2.782-6.954h1.468v8.532h-1.125v-3.328l.11-3.579-2.813 6.907h-.86l-2.796-6.891.11 3.563v3.328h-1.126v-8.532zm12.296 8.532q-.093-.188-.156-.672-.75.797-1.797.797-.937 0-1.547-.532-.593-.53-.593-1.359 0-.984.75-1.531.75-.547 2.125-.547h1.047v-.5q0-.563-.344-.89-.328-.344-1-.344-.578 0-.969.296-.39.282-.39.704h-1.094q0-.485.328-.922.344-.438.922-.688.578-.265 1.265-.265 1.11 0 1.719.546.625.547.656 1.5v2.922q0 .875.219 1.39v.095h-1.14zm-1.796-.828q.515 0 .968-.266.453-.266.657-.688v-1.295h-.844q-2 0-2 1.171 0 .5.344.797.343.282.875.282zm7.421.062q.579 0 1.016-.344.438-.36.484-.89h1.032q-.032.547-.391 1.047-.344.484-.922.78-.562.298-1.219.298-1.296 0-2.062-.86-.75-.875-.75-2.375v-.187q0-.922.328-1.64.344-.72.969-1.11.64-.406 1.515-.406 1.063 0 1.766.64.719.625.766 1.656h-1.032q-.046-.625-.468-1.015-.422-.39-1.032-.39-.828 0-1.28.593-.454.594-.454 1.719v.203q0 1.094.453 1.687.453.594 1.281.594zm3.625.766v-8.532h2.797q1.39 0 2.078.579.704.562.704 1.687 0 .61-.344 1.078-.328.453-.922.703.703.188 1.094.735.406.53.406 1.28 0 1.157-.75 1.813-.734.657-2.094.657zm1.125-3.985v3.063h1.86q.797 0 1.25-.406.453-.407.453-1.125 0-1.532-1.688-1.532zm0-.906h1.704q.734 0 1.171-.36.454-.374.454-1.015 0-.703-.407-1.016-.406-.328-1.25-.328h-1.672zm5.422 1.656q0-.922.36-1.672.375-.75 1.03-1.14.657-.406 1.485-.406 1.297 0 2.094.89.813.89.813 2.39v.079q0 .922-.36 1.656-.36.735-1.015 1.156-.657.407-1.516.407-1.281 0-2.094-.891-.797-.906-.797-2.39zm1.094.14q0 1.048.484 1.688.5.641 1.313.641.828 0 1.312-.64.485-.657.485-1.829 0-1.031-.5-1.672-.485-.656-1.313-.656-.797 0-1.297.64-.484.626-.484 1.829zm5.906-.14q0-.922.36-1.672.375-.75 1.03-1.14.657-.406 1.485-.406 1.297 0 2.094.89.813.89.813 2.39v.079q0 .922-.36 1.656-.36.735-1.015 1.156-.657.407-1.516.407-1.281 0-2.094-.891-.797-.906-.797-2.39zm1.094.14q0 1.048.484 1.688.5.641 1.313.641.828 0 1.312-.64.485-.657.485-1.829 0-1.031-.5-1.672-.485-.656-1.313-.656-.797 0-1.297.64-.484.626-.484 1.829zm7.969.157-.688.703v2.235h-1.078v-9h1.078v5.437l.578-.687 1.985-2.094h1.312l-2.468 2.656 2.765 3.688h-1.281zm-433.013-52.96h6.75v1.531h-8.625v-14.219h1.875v12.689zm10.797 1.531h-1.797v-10.562h1.797zm-1.953-13.375q0-.438.266-.734.28-.313.797-.313.53 0 .796.313.282.297.282.734 0 .438-.282.734-.265.297-.797.297-.515 0-.796-.297-.266-.296-.266-.734zm5.875 13.375v-9.172h-1.656v-1.39h1.656v-1.094q0-1.688.906-2.61.922-.937 2.578-.937.625 0 1.235.156l-.094 1.469q-.453-.078-.969-.078-.89 0-1.375.515-.469.5-.469 1.454v1.125h2.25v1.39h-2.25v9.172zm8.563-13.125v2.563h1.984v1.39h-1.984v6.547q0 .64.265.969.266.312.906.312.313 0 .86-.125v1.469q-.719.203-1.39.203-1.204 0-1.829-.734-.61-.735-.61-2.094v-6.547h-1.921v-1.39h1.922v-2.563zm4.078 7.75q0-1.562.609-2.797.61-1.25 1.688-1.922 1.093-.672 2.5-.672 2.156 0 3.484 1.5 1.344 1.485 1.344 3.97v.124q0 1.547-.594 2.781-.594 1.22-1.703 1.907-1.094.687-2.516.687-2.14 0-3.484-1.5-1.328-1.5-1.328-3.953zm1.812.203q0 1.766.813 2.828.828 1.063 2.187 1.063 1.375 0 2.188-1.078.812-1.079.812-3.016 0-1.75-.828-2.828-.828-1.078-2.188-1.078-1.343 0-2.171 1.062-.813 1.063-.813 3.047zm10.547 5.172v-9.172h-1.656v-1.39h1.656v-1.094q0-1.688.906-2.61.922-.937 2.578-.937.625 0 1.235.156l-.094 1.469q-.453-.078-.969-.078-.89 0-1.375.515-.469.5-.469 1.454v1.125h2.25v1.39h-2.25v9.172zm7 0v-9.172h-1.656v-1.39h1.656v-1.094q0-1.688.906-2.61.922-.937 2.578-.937.625 0 1.235.156l-.094 1.469q-.453-.078-.969-.078-.89 0-1.375.515-.469.5-.469 1.454v1.125h2.25v1.39h-2.25v9.172zm19.438-6.578h-6.157v5.047h7.156v1.531h-9.03v-14.219h8.937v1.547h-7.063v4.563h6.156v1.53zm6.218-.125 2.344-3.86h2.11l-3.454 5.22 3.563 5.343h-2.078l-2.453-3.953-2.438 3.953h-2.094l3.563-5.344-3.453-5.219h2.078zm10.844 6.906q-2.14 0-3.5-1.406-1.344-1.422-1.344-3.781v-.344q0-1.563.594-2.797.61-1.234 1.688-1.938 1.078-.703 2.343-.703 2.063 0 3.203 1.36 1.141 1.36 1.141 3.89v.75h-7.156q.031 1.563.906 2.532.875.953 2.219.953.969 0 1.625-.39.672-.392 1.172-1.032l1.093.86q-1.328 2.046-3.984 2.046zm-.219-9.484q-1.094 0-1.844.797-.734.797-.906 2.234h5.281v-.14q-.078-1.376-.75-2.126-.656-.765-1.78-.765zm11.078 8q.97 0 1.688-.578.719-.594.797-1.47h1.719q-.063.907-.641 1.735-.563.813-1.531 1.313-.953.484-2.032.484-2.156 0-3.437-1.437-1.266-1.454-1.266-3.954v-.296q0-1.547.563-2.75.562-1.203 1.625-1.86 1.062-.672 2.5-.672 1.781 0 2.953 1.063 1.187 1.062 1.266 2.765h-1.72q-.077-1.015-.78-1.671-.688-.672-1.72-.672-1.374 0-2.14 1-.75.984-.75 2.86v.343q0 1.828.75 2.812.75.985 2.156.985zm12.282.234q-1.047 1.25-3.094 1.25-1.688 0-2.578-.984-.875-.985-.89-2.907v-6.875h1.812v6.829q0 2.39 1.953 2.39 2.062 0 2.75-1.531v-7.687h1.812v10.562h-1.719zm6.922-12.078v2.563h1.984v1.39h-1.985v6.547q0 .64.266.969.266.312.906.312.313 0 .86-.125v1.469q-.719.203-1.39.203-1.204 0-1.829-.734-.61-.735-.61-2.094v-6.547h-1.921v-1.39h1.922v-2.563h1.796zm6.515 13.125h-1.797v-10.562h1.797zm-1.953-13.375q0-.438.266-.734.28-.313.796-.313.532 0 .797.313.282.297.282.734 0 .438-.282.734-.265.297-.796.297-.516 0-.797-.297-.266-.296-.266-.734zm4.516 8q0-1.562.609-2.797.61-1.25 1.688-1.922 1.093-.672 2.5-.672 2.156 0 3.484 1.5 1.344 1.485 1.344 3.97v.124q0 1.547-.594 2.781-.594 1.22-1.703 1.907-1.094.687-2.516.687-2.14 0-3.484-1.5-1.328-1.5-1.328-3.953zm1.812.203q0 1.766.813 2.828.828 1.063 2.187 1.063 1.375 0 2.188-1.078.812-1.079.812-3.016 0-1.75-.828-2.828-.828-1.078-2.188-1.078-1.343 0-2.171 1.062-.813 1.063-.813 3.047zm11.375-5.39.063 1.328q1.203-1.532 3.156-1.532 3.36 0 3.375 3.782v6.984h-1.797v-7q-.016-1.14-.531-1.688-.5-.546-1.594-.546-.875 0-1.547.468-.656.47-1.031 1.235v7.531h-1.797v-10.562zm24.39-2.11h-4.562v12.672h-1.86v-12.672h-4.562v-1.547h10.985v1.547zm3.86 12.672h-1.797v-10.562h1.797zm-1.953-13.375q0-.438.266-.734.28-.313.796-.313.532 0 .797.313.282.297.282.734 0 .438-.282.734-.265.297-.796.297-.516 0-.797-.297-.266-.296-.266-.734zm6.688 2.813.046 1.171q1.172-1.375 3.141-1.375 2.219 0 3.016 1.704.53-.766 1.375-1.235.843-.469 2-.469 3.468 0 3.53 3.688v7.078h-1.812v-6.969q0-1.14-.515-1.703-.516-.562-1.735-.562-1 0-1.671.609-.657.594-.766 1.61v7.015h-1.813v-6.922q0-2.312-2.265-2.312-1.781 0-2.422 1.515v7.719h-1.813v-10.562zm20.687 10.765q-2.14 0-3.5-1.406-1.344-1.422-1.344-3.781v-.344q0-1.563.594-2.797.61-1.234 1.688-1.938 1.078-.703 2.343-.703 2.063 0 3.203 1.36 1.141 1.36 1.141 3.89v.75h-7.156q.031 1.563.906 2.532.875.953 2.219.953.969 0 1.625-.39.672-.392 1.172-1.032l1.093.86q-1.328 2.046-3.984 2.046zm-.219-9.484q-1.094 0-1.844.797-.734.797-.906 2.234h5.281v-.14q-.078-1.376-.75-2.126-.656-.765-1.78-.765zm11.36 3.906q0-1.562.609-2.797.61-1.25 1.688-1.922 1.093-.672 2.5-.672 2.156 0 3.484 1.5 1.344 1.485 1.344 3.97v.124q0 1.547-.594 2.781-.594 1.22-1.703 1.907-1.094.687-2.516.687-2.14 0-3.484-1.5-1.328-1.5-1.328-3.953zm1.812.203q0 1.766.813 2.828.828 1.063 2.187 1.063 1.375 0 2.188-1.078.812-1.079.812-3.016 0-1.75-.828-2.828-.828-1.078-2.188-1.078-1.343 0-2.171 1.062-.813 1.063-.813 3.047zm11.375-5.39.063 1.328q1.203-1.532 3.156-1.532 3.36 0 3.375 3.782v6.984h-1.797v-7q-.016-1.14-.531-1.688-.5-.546-1.594-.546-.875 0-1.547.468-.656.47-1.031 1.235v7.531h-1.797v-10.562zm16.453 5v5.562h-1.875v-14.219h5.235q2.343 0 3.656 1.188 1.328 1.187 1.328 3.156 0 2.078-1.297 3.203-1.297 1.11-3.703 1.11zm0-1.532h3.36q1.515 0 2.312-.703.797-.719.797-2.062 0-1.266-.797-2.016-.797-.766-2.203-.797h-3.469zm15.313.75q-2.422-.687-3.516-1.687-1.094-1.016-1.094-2.5 0-1.688 1.344-2.781 1.344-1.11 3.485-1.11 1.468 0 2.609.578 1.156.563 1.781 1.563.625.984.625 2.172h-1.875q0-1.282-.828-2.016-.813-.75-2.313-.75-1.39 0-2.171.61-.766.609-.766 1.703 0 .859.734 1.468.735.594 2.5 1.094 1.782.5 2.782 1.11 1 .593 1.484 1.39.484.797.484 1.89 0 1.72-1.343 2.766-1.344 1.047-3.61 1.047-1.453 0-2.734-.562-1.266-.563-1.953-1.532-.688-.984-.688-2.234h1.89q0 1.297.954 2.047.953.734 2.531.734 1.485 0 2.281-.594.797-.609.797-1.656t-.734-1.61q-.734-.577-2.656-1.14zm9.687.782v5.562h-1.875v-14.219h5.235q2.343 0 3.656 1.188 1.328 1.187 1.328 3.156 0 2.078-1.297 3.203-1.297 1.11-3.703 1.11zm0-1.532h3.36q1.515 0 2.312-.703.797-.719.797-2.062 0-1.266-.797-2.016-.797-.766-2.203-.797h-3.469zm11.125 7.094v-14.219h4.016q1.844 0 3.265.828 1.438.813 2.204 2.329.78 1.515.796 3.468v.907q0 2.015-.78 3.53-.782 1.516-2.22 2.329-1.437.812-3.343.828zm1.875-12.672v11.14h1.969q2.172 0 3.375-1.343 1.203-1.36 1.203-3.844v-.828q0-2.422-1.14-3.765-1.141-1.344-3.22-1.36zm18.969 6.39h-5.969v6.282h-1.875v-14.219h8.797v1.547h-6.922v4.86h5.969zm6.766-.327-1.735 1.796v4.813h-1.875v-14.219h1.875v7.032l6.313-7.032h2.265l-5.593 6.282 6.03 7.937h-2.25l-5.03-6.61zm11.062 6.609h-1.797v-10.562h1.797zm-1.953-13.375q0-.438.266-.734.28-.313.796-.313.532 0 .797.313.282.297.282.734 0 .438-.282.734-.265.297-.796.297-.516 0-.797-.297-.266-.296-.266-.734zm7.438.25v2.563h1.984v1.39h-1.985v6.547q0 .64.266.969.266.312.906.312.313 0 .86-.125v1.469q-.719.203-1.39.203-1.204 0-1.829-.734-.61-.735-.61-2.094v-6.547h-1.921v-1.39h1.922v-2.563h1.796z" fill="#757575"/></svg>