<svg xmlns="http://www.w3.org/2000/svg" xmlns:xlink="http://www.w3.org/1999/xlink" width="600" height="371" fill="none" viewBox="0 0 6000 3710"><mask id="a" fill="#fff"><path d="M776 520h5038v2524H776z"/></mask><path fill="#fff" d="M0 0h6000v3710H0z"/><g stroke-width="10"><path stroke="#333" d="M775 3045h5040"/><path stroke="#ccc" d="M775 2685h5040M775 2325h5040M775 1965h5040M775 1605h5040M775 1245h5040M775 875h5040M775 515h5040"/><path stroke="#e6e6e6" d="M775 2865h5040M775 2505h5040M775 2145h5040M775 1785h5040M775 1425h5040M775 1065h5040M775 695h5040"/></g><path fill="#4285f4" d="M1220 3040h-160V1430a20 20 0 0120-20h120a20 20 0 0120 20zm790 0h-160V1810a20 20 0 0120-20h120a20 20 0 0120 20zm800 0h-160V780a20 20 0 0120-20h120a20 20 0 0120 20zm790 0h-160V1020a20 20 0 0120-20h120a20 20 0 0120 20zm800 0h-160v-390a20 20 0 0120-20h120a20 20 0 0120 20zm790 0h-160v-350a20 20 0 0120-20h120a20 20 0 0120 20z" mask="url(#a)"/><path fill="#ea4335" d="M1390 3040h-160V1780a20 20 0 0120-20h120a20 20 0 0120 20zm790 0h-160v-740a20 20 0 0120-20h120a20 20 0 0120 20zm800 0h-160V1300a20 20 0 0120-20h120a20 20 0 0120 20zm790 0h-160v-980a20 20 0 0120-20h120a20 20 0 0120 20zm800 0h-160v-290a20 20 0 0120-20h120a20 20 0 0120 20zm790 0h-160v-290a20 20 0 0120-20h120a20 20 0 0120 20z" mask="url(#a)"/><path fill="#000" d="M296 2342h-86v-38c0-7 0-13 2-17 1-4 4-7 8-10 4-2 8-3 13-3a20 20 0 0115 6c5 4 7 10 8 18l5-7a55 55 0 0111-10l24-14v14l-18 11c-6 4-10 6-12 9l-6 5a18 18 0 00-2 6 43 43 0 000 6v13h38zm-48-10v-25l-2-13a10 10 0 00-5-6c-3-2-5-3-8-3-4 0-7 2-10 5s-4 8-4 14v27zm47-119h-9c7 5 10 12 10 20l-1 10c-2 3-3 6-5 7a20 20 0 01-8 4h-49v-10h35l10-1c4 0 6-2 7-4 2-2 3-5 3-8s0-6-3-9a14 14 0 00-6-6l-12-2h-34v-10h62zm0-30h-62v-9h10c-8-4-11-10-11-20 0-3 0-7 2-10l5-7c2-1 5-3 8-3h48v10h-37l-10 1a10 10 0 00-5 4 13 13 0 00-2 8c0 4 1 8 4 12 3 3 9 4 16 4h34zm-9-92l10-2v8l-1 10-5 4a40 40 0 01-13 1h-36v8h-8v-8h-15l-6-10h21v-12h8v10h43a5 5 0 002-2 7 7 0 000-3v-5zm-64-7h-12v-10h12zm74 0h-63v-10h62zm0-30h-63v-10h10a21 21 0 01-8-7 22 22 0 01-3-11c0-5 0-9 3-12 2-3 4-5 8-6-7-5-11-11-11-20 0-5 2-10 5-13 3-4 9-5 16-5h43v10h-40l-9 1a8 8 0 00-4 4l-2 6c0 5 1 8 4 11s8 4 14 4h37v11h-41c-5 0-8 0-10 3-3 1-4 4-4 8 0 3 0 6 2 8 2 3 4 5 7 6l13 1h33zm-20-143v-10c7 1 12 4 16 9 3 5 5 10 5 18 0 9-3 16-9 21-5 6-13 8-23 8s-19-2-24-8c-6-5-10-12-10-20 0-9 4-16 10-20 5-6 13-9 23-9h3v47c7 0 12-3 16-6 3-4 5-8 5-13 0-4 0-7-3-10a20 20 0 00-10-7zm-18 35v-36a20 20 0 00-11 4c-4 4-6 8-6 13s1 10 4 13c4 3 8 5 13 5zm63-112a108 108 0 01-26 15c-10 4-20 5-30 5a82 82 0 01-27-4c-10-3-20-9-30-16v-8l18 10a94 94 0 0038 8c20 0 38-6 57-18zm-25-20h-63v-10h10a21 21 0 01-8-7 22 22 0 01-3-11c0-5 0-9 3-12 2-3 4-5 8-6-7-5-11-11-11-20 0-5 2-10 5-13 3-4 9-5 16-5h43v10h-40l-9 1a8 8 0 00-4 4l-2 6c0 5 1 8 4 11s8 4 14 4h37v11h-41c-5 0-8 0-10 3-3 1-4 4-4 8 0 3 0 6 2 8 2 3 4 5 7 6l13 1h33zm-20-96v-10c4 0 7-2 9-5s3-7 3-11c0-5 0-9-3-11a9 9 0 00-7-4 6 6 0 00-5 3l-4 11-5 16a16 16 0 01-6 7 16 16 0 01-8 2 17 17 0 01-14-7 24 24 0 01-3-6 32 32 0 01-1-10c0-4 0-9 2-12 1-4 3-7 6-9l10-3v10a10 10 0 00-7 4c-2 2-2 6-2 10 0 5 0 8 2 10s3 3 6 3a6 6 0 003-1l3-4 3-10 5-15 5-7c2-2 6-2 10-2 3 0 6 0 10 3l6 8c2 4 3 9 3 14a30 30 0 01-5 18c-4 4-9 7-15 8zm45-71v7a98 98 0 00-78-15 94 94 0 00-17 6l-18 10v-8c10-7 20-13 30-16a80 80 0 0126-5c10 0 21 2 31 6s18 10 26 15zm330 1395c0-10 0-18 3-24a30 30 0 019-15 27 27 0 0128-2l8 8c3 4 4 8 6 13s1 12 1 20c0 10 0 18-3 25a30 30 0 01-9 14c-4 3-10 5-16 5-8 0-14-3-20-9-5-7-7-19-7-35zm10 0c0 14 2 24 5 28s8 7 12 7c5 0 10-2 13-7 3-4 5-14 5-28s-2-23-5-28c-4-5-8-7-13-7-4 0-8 2-11 6-4 5-6 15-6 30zm-40-318h-11v-67a63 63 0 01-21 12v-10a67 67 0 0015-10 40 40 0 0010-12h6zm30-43c0-10 0-18 3-24a30 30 0 019-15 27 27 0 0128-2l8 8c3 4 4 8 6 13s1 12 1 20c0 10 0 19-3 25a30 30 0 01-9 14c-4 3-10 5-16 5-8 0-14-3-20-9-5-7-7-18-7-35zm10 0c0 14 2 24 5 29s8 7 12 7c5 0 10-3 13-7 3-5 5-15 5-29s-2-23-5-28c-4-4-8-7-13-7-4 0-8 2-11 6-4 6-6 15-6 30zm-25-328v10h-57l1-7 7-12 14-13c10-7 16-14 19-18 3-5 5-9 5-13s-1-7-4-10c-4-3-7-5-12-5s-10 2-12 5c-3 3-5 7-5 13l-10-1c0-9 3-15 7-19 5-4 12-6 20-6s15 2 20 7c4 4 7 10 7 17 0 3 0 6-2 10a40 40 0 01-7 10l-16 15-13 11a34 34 0 00-4 6zm15-32c0-10 0-19 3-25a30 30 0 019-14c4-4 10-5 15-5s10 0 13 3c3 1 6 4 8 8 3 3 4 7 6 12s1 12 1 20c0 10 0 19-3 25a30 30 0 01-9 14c-4 4-10 5-16 5-8 0-14-3-20-9-5-7-7-18-7-34zm10 0c0 14 2 23 5 28 4 4 8 7 12 7 5 0 10-3 13-7 3-5 5-14 5-28 0-15-2-24-5-28-4-5-8-8-13-8-4 0-8 3-11 7-4 5-6 14-6 29zm-80-341l10-2c1 6 3 10 6 13s7 4 10 4c6 0 10-2 14-5s5-8 5-13-2-9-5-12-7-5-12-5a30 30 0 00-8 2l2-10h1c5 0 9 0 12-3 4-2 6-6 6-11 0-4-2-7-4-10-3-2-6-3-10-3s-8 0-10 3a20 20 0 00-6 12l-10-2c0-7 4-12 8-16 5-4 10-6 17-6 5 0 10 1 13 3l10 8c1 4 3 7 3 11a19 19 0 01-12 18c5 0 9 3 12 7 2 4 4 8 4 14 0 7-3 14-9 19-5 5-12 8-20 8s-14-2-19-7-8-10-9-17zm70-20c0-10 0-19 3-25a30 30 0 019-14c4-3 10-5 15-5s10 0 13 3c3 2 6 4 8 8 3 3 4 8 6 13s1 11 1 20c0 10 0 18-3 24a30 30 0 01-9 15c-4 3-10 5-16 5-8 0-14-3-20-10-5-6-7-18-7-34zm10 0c0 14 2 23 5 28 4 5 8 7 12 7 5 0 10-2 13-7s5-14 5-28-2-24-5-28c-4-5-8-7-13-7-4 0-8 2-11 6-4 5-6 15-6 29zm-47-320v-20h-37v-10l40-55h8v55h11v10h-11v20zm0-30v-38l-27 38zm37-12c0-10 0-18 3-24a30 30 0 019-15 27 27 0 0128-2l8 8c3 4 4 8 6 13s1 12 1 20c0 10 0 18-3 24a30 30 0 01-9 15c-4 3-10 5-16 5-8 0-14-3-20-9-5-7-7-19-7-35zm10 0c0 14 2 24 5 28 4 5 8 7 12 7 5 0 10-2 13-7 3-4 5-14 5-28s-2-23-5-28c-4-5-8-7-13-7-4 0-8 2-11 6-4 5-6 15-6 30zm-80-340l10-2c1 6 3 10 6 12 3 3 7 5 11 5 5 0 10-2 13-6 4-4 5-10 5-15 0-6-1-11-5-15-3-3-8-5-13-5a19 19 0 00-16 8h-10l9-45h42v10h-33l-4 23c5-4 10-5 16-5 7 0 13 2 19 7 5 6 7 12 7 20s-2 15-6 20c-6 8-13 11-23 11-8 0-14-2-19-6-5-5-8-10-8-18zm70-20c0-10 0-19 3-25a30 30 0 019-15 27 27 0 0128-2l8 8c3 4 4 8 6 13s1 12 1 20c0 10 0 19-3 25a30 30 0 01-9 14c-4 3-10 5-16 5-8 0-14-3-20-9-5-7-7-19-7-35zm10 0c0 13 2 23 5 27s8 8 12 8c5 0 10-3 13-8 3-4 5-14 5-28s-2-23-5-28c-4-4-8-7-13-7-4 0-8 2-11 6-4 5-6 15-6 30zm-26-384h-10a20 20 0 00-4-8 14 14 0 00-10-5c-4 0-7 1-10 3l-8 10-2 20c2-3 5-6 9-8a26 26 0 0111-3c7 0 13 3 18 8s8 12 8 20c0 5-1 10-4 15-2 5-5 8-10 10-3 3-8 4-13 4-9 0-16-3-22-10-5-6-8-16-8-31 0-17 3-29 10-36 5-7 12-10 20-10s13 2 17 5c5 4 7 10 8 16zm-43 37l2 10c2 4 4 6 7 8l9 3c4 0 8-2 11-6 3-3 5-8 5-14s-2-10-5-14a15 15 0 00-12-5c-5 0-9 1-12 5-3 3-5 8-5 13zm59-14c0-10 0-19 3-25a30 30 0 019-14c4-4 10-5 15-5s10 0 13 2 6 5 8 9c3 3 4 7 6 12s1 12 1 20c0 10 0 19-3 25a30 30 0 01-9 14c-4 4-10 5-16 5-8 0-14-3-20-9-5-7-7-18-7-34zm10 0c0 14 2 23 5 28s8 7 12 7c5 0 10-3 13-7 3-5 5-14 5-28a60 60 0 00-5-29c-4-4-8-7-13-7-4 0-8 2-11 7-4 5-6 14-6 29zm-80-394v-10h56v9c-6 5-11 13-16 23a141 141 0 00-13 30 102 102 0 00-4 23h-10c0-7 0-15 3-24a134 134 0 0126-50zm70 33c0-10 0-19 3-25a30 30 0 019-14c4-3 10-5 15-5s10 0 13 3c3 2 6 4 8 8 3 3 4 8 6 13s1 11 1 20c0 10 0 18-3 24a30 30 0 01-9 15c-4 3-10 5-16 5-8 0-14-3-20-10-5-6-7-18-7-34zm10 0c0 14 2 23 5 28s8 7 12 7c5 0 10-2 13-7s5-14 5-28-2-24-5-28c-4-5-8-7-13-7-4 0-8 2-11 6-4 5-6 15-6 29zm335 2698v-86h38a50 50 0 0117 2c4 1 7 4 10 8 2 4 3 8 3 13 0 6-2 11-6 15s-10 7-18 8l7 5 10 11 14 24h-14l-11-18a140 140 0 00-9-12l-5-6a18 18 0 00-6-2 43 43 0 00-6 0h-13v38zm10-48h25l12-2c4-1 6-3 7-5 2-3 3-5 3-8 0-4-2-7-5-10s-8-4-14-4h-27zm120 27l12 2a30 30 0 01-10 15c-5 3-10 5-18 5a30 30 0 01-22-9c-5-5-7-13-7-23s2-19 8-24c5-6 12-10 20-10 9 0 16 4 20 10 6 5 9 13 9 23v3h-48c0 7 3 12 6 16 4 3 8 5 13 5 4 0 7 0 10-3 3-2 5-5 7-10zm-34-17h35c0-5-2-9-4-11a16 16 0 00-13-6c-5 0-10 1-13 4a20 20 0 00-5 13zm60 43l10 1c0 3 2 6 4 7 3 2 6 3 10 3 6 0 10 0 12-3 3-2 4-5 5-8l1-14c-4 6-10 8-17 8-9 0-15-3-20-9s-7-13-7-22c0-6 1-11 3-16s5-10 10-12c4-3 8-4 14-4 7 0 13 3 18 9v-8h10v54c0 10-1 17-3 20s-5 8-10 10c-4 3-9 4-15 4a30 30 0 01-18-5c-5-4-7-9-7-15zm9-38c0 8 1 14 5 18s7 6 12 6 9-2 12-6 5-10 5-17a30 30 0 00-5-18 16 16 0 00-24 0c-4 4-5 10-5 17zm106 13h10c-1 7-4 12-9 16-5 3-10 5-18 5a30 30 0 01-22-9c-5-5-7-13-7-23s2-19 8-24c5-6 12-10 20-10 9 0 16 4 20 10 6 5 9 13 9 23v3h-48c0 7 3 12 6 16 4 3 8 5 13 5 4 0 7 0 10-3 3-2 5-5 7-10zm-35-18h35c0-5-2-9-4-11a16 16 0 00-13-6c-5 0-10 1-13 4a20 20 0 00-5 13zm55 38l23-33-21-30h13l10 15 4 7 5-7 10-15h13l-22 30 23 32h-13l-12-19-4-5-16 25zm98 0v-86h45a34 34 0 0123 20c2 8 3 14 3 22 0 7 0 12-2 17-1 5-3 10-6 13a30 30 0 01-8 8 34 34 0 01-10 4 60 60 0 01-14 1zm12-10h18l13-2c4-1 6-3 8-5 3-2 5-6 6-10 2-5 3-10 3-17 0-10-2-16-5-20-3-6-6-9-10-10-4-2-8-2-15-2h-18v65zm78 10v-86h12l45 67v-65h11v86h-12l-45-68v68zm81 0l33-86h12l35 86h-13l-10-27h-35l-10 26zm25-36h29l-9-24a174 174 0 01-6-17 117 117 0 01-5 16zm334-6c0-15 4-26 12-34a40 40 0 0130-12 40 40 0 0121 6c6 4 11 9 15 16 3 6 5 14 5 23a50 50 0 01-6 23 36 36 0 01-15 16 42 42 0 01-20 5c-9 0-16-2-22-6a39 39 0 01-15-16 50 50 0 01-5-21zm12 0c0 10 3 18 8 24a30 30 0 0022 10c8 0 15-4 20-10 6-6 9-14 9-25 0-7-1-14-4-19a26 26 0 00-10-12 28 28 0 00-15-4 30 30 0 00-21 8c-6 6-9 15-9 28zm121 19l10 1c0 7-3 13-8 17s-10 6-17 6c-9 0-16-3-21-8-5-6-8-14-8-24 0-7 1-13 4-18 2-5 5-9 10-11a30 30 0 0115-4c6 0 12 2 16 5 5 3 7 8 9 15l-10 1c-2-4-3-7-6-10a13 13 0 00-9-2c-5 0-10 1-13 5a30 30 0 00-5 18c0 9 2 15 5 19s7 5 13 5c4 0 7-1 10-4 3-2 4-6 5-11zm43 13l1 10a40 40 0 01-8 0l-9-1a11 11 0 01-4-5 40 40 0 01-1-13v-35h-8v-8h8v-15l10-6v21h10v8h-10v43a5 5 0 002 2 7 7 0 004 0h5zm47 2a40 40 0 01-11 7l-12 2c-7 0-12-2-15-5-4-3-6-8-6-13a17 17 0 018-14l7-4 10-1 18-4v-3c0-4 0-7-3-9-2-2-6-3-12-3-5 0-8 0-10 2-3 2-5 5-6 10l-10-2c0-4 2-8 4-10a20 20 0 0110-7l14-2c5 0 10 0 13 2l7 4 4 8v43l3 7h-10a24 24 0 01-3-7zm0-24a80 80 0 01-18 4c-4 0-7 2-10 3a10 10 0 00-3 3 9 9 0 00-2 5c0 3 1 5 3 7 3 2 6 3 10 3s7-1 10-3c4-2 6-4 8-7l1-10zm30 32v-63h9v10c5-8 11-11 20-11 4 0 7 0 10 2 3 1 6 3 7 5l4 8v49h-10v-38c0-5 0-8-2-10a10 10 0 00-4-5 13 13 0 00-7-2c-5 0-9 1-12 4s-5 9-5 16v35zm112-20h11a30 30 0 01-10 16c-4 3-10 5-17 5-10 0-17-3-22-9-5-5-8-13-8-23s3-19 8-24c6-6 13-10 21-10s15 4 20 10c6 5 8 13 8 23v3h-46c0 7 2 12 6 16 3 3 8 5 13 5 4 0 7 0 10-3 2-2 5-5 6-10zm-34-18h34c0-5-1-9-4-11a16 16 0 00-13-6c-5 0-9 1-12 4a20 20 0 00-5 13zm-352 178v-86h38a50 50 0 0118 2c4 1 7 4 10 8 2 4 3 8 3 13 0 6-2 11-6 15s-10 7-18 8l6 5c4 3 7 6 10 11l15 24h-15l-10-18a140 140 0 00-10-12 10 10 0 00-5-6 18 18 0 00-5-2 43 43 0 00-6 0h-14v38zm11-48h25l12-2 7-5 2-8c0-4-1-7-4-10s-8-4-14-4h-28zm120 28h11a30 30 0 01-10 16c-4 3-10 5-17 5-10 0-17-3-22-9-5-5-8-13-8-23s3-19 8-24c6-6 13-10 21-10s15 4 20 10c6 5 8 13 8 23v3h-46c0 7 2 12 6 16 3 3 8 5 13 5 4 0 7 0 10-3 2-2 5-5 6-10zm-34-18h34c0-5-1-9-4-11a16 16 0 00-13-6c-5 0-9 1-12 4a20 20 0 00-5 13zm60 43l10 1c0 3 2 6 4 7 2 2 6 3 10 3 5 0 9 0 11-3 3-2 5-5 6-8v-14a20 20 0 01-17 9c-8 0-15-4-20-10-4-6-6-13-6-22 0-6 0-11 3-16 2-5 5-10 10-12 3-3 8-4 13-4 8 0 14 3 19 9v-8h10v54a40 40 0 01-4 20c-2 5-5 8-9 10-4 3-10 4-16 4a30 30 0 01-18-5 20 20 0 01-6-15zm8-38c0 8 2 14 5 18s8 6 12 6c5 0 10-2 13-6s5-10 5-17c0-8-2-14-6-18a16 16 0 00-24 0c-3 4-5 10-5 17zm65 33v-86h62v10h-50v26h47v10h-47v30h52v10zm72 0l22-33-20-30h12l10 15 4 7 5-7 10-15h13l-21 30 23 33h-14l-13-20-3-5-17 25zm67 23v-86h10v8a24 24 0 017-7l10-2c6 0 10 1 14 4s7 7 10 12c2 5 3 10 3 16s-2 12-4 17-5 10-10 12c-4 3-9 4-13 4a20 20 0 01-10-2 23 23 0 01-7-6v30zm10-54c0 8 0 14 4 18 3 3 7 5 12 5 4 0 8-2 12-6s5-10 5-18-2-14-5-18-7-6-12-6c-4 0-8 2-12 6-3 5-5 10-5 19zm456-151a50 50 0 0111-34 40 40 0 0130-12 40 40 0 0122 6 45 45 0 0120 39 50 50 0 01-6 23 36 36 0 01-15 16 42 42 0 01-20 5c-9 0-16-2-23-6a39 39 0 01-14-16 50 50 0 01-5-21zm12 0c0 10 2 18 8 24a30 30 0 0021 10c9 0 16-4 21-10 6-6 8-14 8-25 0-7 0-14-3-19a26 26 0 00-10-12 28 28 0 00-16-4 30 30 0 00-20 8c-6 6-10 15-10 28zm83 42v-54h-10v-8h10v-16l6-6a20 20 0 0110-3l10 1v10a44 44 0 00-7-1c-3 0-6 0-7 2l-2 8v5h12v8h-12v54zm30 0v-54h-10v-8h10v-16l6-6a20 20 0 0110-3l10 1v10a44 44 0 00-7-1c-3 0-6 0-7 2l-2 8v5h12v8h-12v54zm27 0v-86h10v86zm30-74v-12h10v12zm0 74v-63h10v63zm30 0v-63h10v10c4-8 10-11 20-11 3 0 7 0 10 2l7 5c1 2 3 5 3 8v49h-10v-38l-1-10a10 10 0 00-4-5 13 13 0 00-8-2c-4 0-8 1-11 4-4 3-5 9-5 16v35zm113-20h10c-1 7-4 12-9 16-5 3-10 5-18 5-9 0-16-3-21-9-6-5-8-13-8-23s2-19 8-24c5-6 12-10 20-10 9 0 16 4 21 10 5 5 8 13 8 23v3h-46c0 7 2 12 5 16 4 3 8 5 13 5 4 0 7 0 10-3 3-2 5-5 7-10zm-35-18h35c0-5-2-9-4-11a16 16 0 00-13-6c-5 0-10 1-13 4a20 20 0 00-5 13zm-410 178l32-86h12l35 86h-12l-10-27h-36l-10 27zm24-36h29l-9-24a174 174 0 01-6-17 117 117 0 01-5 16zm59 17l10-2c0 5 3 8 5 10 3 2 7 3 12 3 4 0 8 0 10-3 3-2 4-4 4-7a6 6 0 00-3-5l-11-4-16-5a16 16 0 01-7-6 16 16 0 01-2-8 17 17 0 017-14l6-3 10-1c4 0 9 0 12 2 4 1 7 3 9 6l3 10h-10a10 10 0 00-4-7c-2-2-6-2-10-2-5 0-8 0-10 2s-3 3-3 6a6 6 0 001 3l4 3 10 3 15 5c3 0 5 3 7 5s3 6 3 10c0 3-1 6-4 10a20 20 0 01-8 6 30 30 0 01-13 3 30 30 0 01-20-5c-3-4-6-9-7-15zm60 0l10-2c0 5 3 8 5 10 3 2 7 3 12 3 4 0 8 0 10-3 3-2 4-4 4-7a6 6 0 00-3-5l-11-4-16-5a16 16 0 01-7-6 16 16 0 01-2-8 17 17 0 017-14l6-3 10-1c4 0 9 0 12 2 4 1 7 3 9 6l3 10h-10a10 10 0 00-4-7c-2-2-6-2-10-2-5 0-8 0-10 2s-3 3-3 6a6 6 0 001 3l4 3 10 3 15 5c3 0 5 3 7 5s3 6 3 10c0 3-1 6-4 10a20 20 0 01-8 6 30 30 0 01-13 3 30 30 0 01-20-5c-3-4-6-9-7-15zm107-1h10c-1 7-4 12-9 16-5 3-10 5-18 5-9 0-16-3-21-9-6-5-8-13-8-23s2-19 8-24c5-6 12-10 20-10 9 0 16 4 21 10 5 5 8 13 8 23v3h-46c0 7 2 12 5 16 4 3 8 5 13 5 4 0 7 0 10-3 3-2 5-5 7-10zm-35-18h35c0-5-2-9-4-11a16 16 0 00-13-6c-5 0-10 1-13 4a20 20 0 00-5 13zm62 38v-63h10v10c2-4 4-7 7-8a22 22 0 0111-3c5 0 9 0 12 3 3 2 5 4 6 8 5-7 11-11 20-11 5 0 10 2 13 5 4 3 5 9 5 16v43h-10v-40l-1-9a8 8 0 00-4-4 12 12 0 00-6-2c-5 0-8 1-11 4s-4 8-4 14v36h-10v-40c0-5-2-8-4-10-1-3-4-4-8-4-3 0-6 0-8 2l-6 7-1 13v32zm110 0h-10v-86h10v30c5-5 10-8 18-8a25 25 0 0124 19l2 12c0 11-3 20-8 25-5 6-11 9-19 9a20 20 0 01-17-10zm0-32c0 7 0 13 3 16 3 5 8 8 13 8s9-2 12-6c4-4 5-10 5-18s-1-14-5-18c-3-4-7-5-11-5s-9 2-12 6c-4 4-5 10-5 17zm60 32v-86h10v86zm73-20h10c-1 7-4 12-9 16-5 3-10 5-18 5-9 0-16-3-21-9-6-5-8-13-8-23s2-19 8-24c5-6 12-10 20-10 9 0 16 4 21 10 5 5 8 13 8 23v3h-46c0 7 2 12 5 16 4 3 8 5 13 5 4 0 7 0 10-3 3-2 5-5 7-10zm-35-18h35c0-5-2-9-4-11a16 16 0 00-13-6c-5 0-10 1-13 4a20 20 0 00-5 13zm62 38v-63h10v10c2-5 4-8 6-9l7-2c4 0 7 1 10 3l-3 10a15 15 0 00-7-2 10 10 0 00-7 2 10 10 0 00-4 6 38 38 0 00-1 12v32zm346-226h12v50c0 8-1 15-3 20a30 30 0 01-10 12c-6 3-13 5-20 5-9 0-15-1-20-4a24 24 0 01-12-12c-2-5-3-13-3-22v-50h12v50c0 8 0 13 2 17 1 3 3 6 7 8 3 2 7 3 12 3 9 0 15-2 18-6 4-4 5-11 5-22zm33 86v-63h10v10c4-8 10-11 19-11 4 0 7 0 10 2 4 1 6 3 7 5l4 8v49h-10v-38c0-5 0-8-2-10a10 10 0 00-4-5 13 13 0 00-7-2c-5 0-9 1-12 4s-5 9-5 16v35zm70-74v-12h10v12zm0 74v-63h10v63zm31 0v-86h45l11 4c3 2 5 5 7 9 2 3 3 7 3 11a30 30 0 01-7 19c-5 5-13 8-26 8h-22v34zm11-45h23c7 0 12-2 15-5 3-2 5-6 5-11 0-4-1-7-3-10a12 12 0 00-7-4l-10-1h-23v30zm64 13c0-11 3-20 10-25 5-5 11-7 19-7s15 3 20 8c6 6 10 14 10 23 0 8-2 15-4 20-3 4-6 8-11 10a30 30 0 01-15 4c-9 0-16-3-21-8-6-6-8-14-8-25zm10 0c0 8 2 14 6 18 3 4 8 6 13 6s10-2 13-6 5-10 5-18-2-13-5-17a16 16 0 00-13-6c-5 0-10 2-13 6-4 3-5 10-5 17zm64 32v-86h10v49l25-26h14l-24 23 26 40h-13l-20-32-8 7v25zm102-20h11c-1 7-5 12-10 16-4 3-10 5-17 5-10 0-16-3-22-9-5-5-8-13-8-23s3-19 8-24a30 30 0 0121-10c9 0 15 4 20 10 6 5 8 13 8 23v3h-46c0 7 2 12 6 16 3 3 8 5 13 5 4 0 7 0 10-3 2-2 5-5 6-10zm-34-18h34c0-5-1-9-4-11a16 16 0 00-13-6c-5 0-9 1-12 4a20 20 0 00-5 13zm62 38v-63h10v10c2-5 4-8 6-9l7-2c3 0 7 1 10 3l-3 10a15 15 0 00-8-2 10 10 0 00-6 2 10 10 0 00-4 6 38 38 0 00-2 12v32zm430 0v-86h58v10h-46v26h40v10h-40v40zm68 0v-86h10v86zm30-74v-12h10v12zm0 74v-63h10v63zm28 5l10 1c1 3 2 6 4 7 3 2 6 3 10 3 6 0 10 0 12-3 3-2 5-5 6-8v-14a20 20 0 01-17 9c-8 0-15-4-20-10-4-6-7-13-7-22 0-6 1-11 3-16 3-5 6-10 10-12 4-3 9-4 14-4a20 20 0 0118 9v-8h10v54c0 10 0 17-3 20-2 5-5 8-10 10-4 3-9 4-15 4a30 30 0 01-18-5c-5-4-7-9-7-15zm9-38c0 8 2 14 5 18s7 6 12 6 9-2 12-6c4-4 5-10 5-17 0-8-1-14-5-18a16 16 0 00-24 0c-3 4-5 10-5 17zm63 33v-86h10v30a24 24 0 0120-8c4 0 8 0 11 3 4 1 6 4 8 7l2 14v40h-10v-40c0-5-2-9-4-11s-6-4-10-4c-3 0-6 0-9 2l-6 7a30 30 0 00-1 11v34zm93-10l2 10a40 40 0 01-8 0l-10-1a11 11 0 01-4-5 40 40 0 010-13v-35h-8v-8h7v-15l10-6v21h11v8h-10v43a5 5 0 002 2 7 7 0 004 0h4zm-356 150v-86h45c4 1 8 2 10 4 4 2 6 5 8 9l2 11c0 8-2 14-7 19-4 5-13 8-25 8h-22v34h-11zm10-45h23c8 0 13-2 16-5 3-2 4-6 4-11 0-4 0-7-2-10a12 12 0 00-7-4l-11-1h-22zm68 45v-86h10v86zm70-8a40 40 0 01-10 7 32 32 0 01-12 2c-7 0-12-2-16-5-3-3-5-8-5-13a17 17 0 017-14l8-4 10-1 18-4v-3c0-4-1-7-3-9-3-2-7-3-12-3s-9 0-11 2-4 5-5 10l-10-2c0-4 2-8 4-10a20 20 0 0110-7l14-2c5 0 10 0 13 2l7 4c1 2 3 5 3 8v23l1 19c0 3 2 5 3 7h-11a24 24 0 01-2-7zm0-24a80 80 0 01-17 4c-5 0-8 2-10 3a10 10 0 00-4 3 9 9 0 00-1 5c0 3 1 5 3 7s5 3 10 3c4 0 7-1 10-3s6-4 7-7l2-10zm30 32v-63h10v10c4-8 10-11 20-11 3 0 7 0 10 2l7 5c2 2 3 5 3 8v49h-10v-38l-1-10a10 10 0 00-4-5 13 13 0 00-8-2c-4 0-8 1-11 4-4 3-5 9-5 16v35zm70 0v-63h10v10c4-8 10-11 20-11 3 0 7 0 10 2l7 5c2 2 3 5 3 8v49h-10v-38l-1-10a10 10 0 00-4-5 13 13 0 00-8-2c-4 0-8 1-11 4-4 3-5 9-5 16v35zm113-20h10c0 7-4 12-9 16a30 30 0 01-18 5c-9 0-16-3-21-9-6-5-8-13-8-23s2-19 8-24a26 26 0 0141 0c5 5 8 13 8 23v3h-46c0 7 2 12 5 16 4 3 8 5 13 5 4 0 8 0 10-3 3-2 5-5 7-10zm-35-18h35c0-5-2-9-4-11a16 16 0 00-13-6c-5 0-10 1-12 4a20 20 0 00-6 13zm62 38v-63h10v10c2-5 4-8 6-9l7-2c4 0 7 1 10 3l-3 10a15 15 0 00-7-2 10 10 0 00-7 2 10 10 0 00-4 6 38 38 0 00-1 12v32zm470-140v-86h59v10h-47v26h40v10h-40v40h-10zm69 0v-86h10v86zm30-74v-12h10v12zm0 74v-63h10v63zm28 5l10 1c0 3 2 6 4 7 2 2 6 3 10 3 5 0 9 0 12-3l5-8v-14a20 20 0 01-16 9c-9 0-16-4-20-10-5-6-7-13-7-22 0-6 0-11 3-16 2-5 5-10 10-12 3-3 8-4 14-4 7 0 13 3 18 9v-8h10v54c0 10-1 17-3 20-2 5-5 8-10 10-4 3-10 4-16 4a30 30 0 01-17-5c-5-4-7-9-7-15zm9-38c0 8 1 14 4 18s8 6 13 6c4 0 9-2 12-6s5-10 5-17a30 30 0 00-5-18 16 16 0 00-25 0c-3 4-4 10-4 17zm63 33v-86h10v30a24 24 0 0119-8c5 0 9 0 12 3 3 1 6 4 7 7 2 3 2 8 2 14v40h-10v-40c0-5-1-9-3-11-3-3-6-4-10-4-3 0-6 0-9 2s-5 4-6 7a30 30 0 00-2 11v34zm93-10l1 10a40 40 0 01-8 0l-9-1a11 11 0 01-4-5 40 40 0 01-1-13v-35h-8v-8h8v-15l10-6v21h10v8h-10v43a5 5 0 003 2 7 7 0 003 0h5zm-357 150v-86h46l10 4c3 2 5 5 7 9 2 3 3 7 3 11a30 30 0 01-7 19c-5 5-13 8-25 8h-23v34zm11-45h23c7 0 12-2 15-5 3-2 5-6 5-11 0-4 0-7-3-10a12 12 0 00-7-4l-10-1h-23zm68 45v-86h10v86zm70-8a40 40 0 01-10 7 32 32 0 01-13 2c-6 0-12-2-15-5-4-3-6-8-6-13a17 17 0 018-14l7-4 10-1 19-4v-3c0-4-1-7-3-9-3-2-7-3-12-3s-9 0-11 2c-3 2-5 5-6 10l-10-2c0-4 2-8 5-10a20 20 0 019-7l14-2c5 0 10 0 13 2l7 4 4 8v43l4 7h-12a24 24 0 01-2-7zm0-24a80 80 0 01-18 4c-4 0-7 2-9 3a10 10 0 00-4 3 9 9 0 00-2 5c0 3 2 5 4 7s5 3 9 3 8-1 10-3c4-2 6-4 8-7l2-10zm30 32v-63h10v10c4-8 10-11 20-11 3 0 6 0 10 2l7 5 3 8v49h-10v-38l-1-10a10 10 0 00-5-5 13 13 0 00-7-2c-5 0-9 1-12 4s-5 9-5 16v35zm70 0v-63h10v10c4-8 10-11 20-11 3 0 6 0 10 2l7 5 3 8v49h-10v-38l-1-10a10 10 0 00-5-5 13 13 0 00-7-2c-5 0-9 1-12 4s-5 9-5 16v35zm112-20h11c-1 7-5 12-10 16-4 3-10 5-17 5-10 0-16-3-22-9-5-5-8-13-8-23s3-19 8-24a30 30 0 0121-10c9 0 15 4 20 10 6 5 9 13 9 23v3h-47c0 7 3 12 6 16 3 3 8 5 13 5 4 0 7 0 10-3 3-2 5-5 6-10zm-34-18h34c0-5-1-9-3-11a16 16 0 00-14-6c-4 0-9 1-12 4a20 20 0 00-5 13zm62 38v-63h10v10c2-5 4-8 6-9l7-2c3 0 7 1 10 3l-3 10a15 15 0 00-8-2 10 10 0 00-6 2 10 10 0 00-4 6 38 38 0 00-2 12v32zm-425 166a108 108 0 01-15-26 82 82 0 01-6-30c0-10 2-19 5-27 3-10 9-20 16-30h7l-9 18a94 94 0 00-6 16 99 99 0 00-2 22c0 20 6 38 17 57zm77-111h12v50c0 8-1 15-3 20a30 30 0 01-10 12c-6 3-12 5-20 5-9 0-15-1-20-4a24 24 0 01-11-12c-3-5-4-13-4-22v-50h12v50c0 8 0 13 2 17 1 3 4 6 7 8s7 3 12 3c9 0 15-2 18-6 4-4 5-11 5-22zm33 86v-63h10v10c4-8 10-11 20-11 3 0 6 0 10 2l7 5 3 8v49h-10v-38l-1-10a10 10 0 00-5-5 13 13 0 00-7-2c-5 0-9 1-12 4s-5 9-5 16v35zm70-74v-12h10v12zm0 74v-63h10v63zm70-23l10 1c0 7-3 13-8 17s-10 6-17 6c-9 0-16-3-20-8-6-6-8-14-8-24 0-7 0-13 3-18 2-5 6-9 10-11a30 30 0 0115-4c7 0 12 2 16 5 5 3 8 8 9 15l-10 1a20 20 0 00-6-10 13 13 0 00-9-2c-5 0-10 1-13 5a30 30 0 00-5 18c0 9 2 15 5 19s8 5 13 5c4 0 7-1 10-4 3-2 5-6 5-11zm16-9c0-11 3-20 10-25 5-5 11-7 19-7 9 0 16 3 20 8 6 6 10 14 10 23 0 8-2 15-4 20-3 4-6 8-11 10a30 30 0 01-15 4c-9 0-16-3-21-8-5-6-8-14-8-25zm10 0c0 8 2 14 6 18 3 4 8 6 13 6s10-2 13-6c4-4 5-10 5-18s-2-13-5-17a16 16 0 00-13-6c-5 0-10 2-13 6-4 3-5 10-5 17zm104 32v-8a20 20 0 01-17 9c-5 0-10-1-14-4a28 28 0 01-10-12 44 44 0 010-34c2-5 5-8 10-11a20 20 0 0113-4 20 20 0 0118 8v-30h10v86zm-33-32c0 8 2 14 5 18s7 6 12 6c4 0 8-2 11-5 4-4 5-10 5-18s-1-14-5-18a15 15 0 00-23 0c-4 3-5 10-5 17zm105 12h11c-1 7-5 12-10 16-4 3-10 5-17 5-10 0-16-3-22-9-5-5-8-13-8-23s3-19 8-24a30 30 0 0121-10c9 0 15 4 20 10 6 5 9 13 9 23v3h-47c0 7 3 12 6 16 3 3 8 5 13 5 4 0 7 0 10-3 3-2 5-5 6-10zm-34-18h34c0-5-1-9-3-11a16 16 0 00-14-6c-4 0-9 1-12 4a20 20 0 00-5 13zm69 63h-8c12-19 18-38 18-57a98 98 0 00-3-21 94 94 0 00-5-17l-10-18h8c7 10 12 20 16 30 3 8 4 17 4 26a80 80 0 01-6 31 112 112 0 01-14 26z"/><use fill="#4285f4" xlink:href="#C"/><use x="1200" fill="#ea4335" xlink:href="#C"/><g fill="#fbbc04"><use x="2460" xlink:href="#C"/><path d="M1560 3040h-160v-150a20 20 0 0120-20h120a20 20 0 0120 20zm790 0h-160v-440a20 20 0 0120-20h120a20 20 0 0120 20zm800 0h-160V1750a20 20 0 0120-20h120a20 20 0 0120 20zm790 0h-160v-510a20 20 0 0120-20h120a20 20 0 0120 20zm800 0h-160v-230a20 20 0 0120-20h120a20 20 0 0120 20zm790 0h-160v-240a20 20 0 0120-20h120a20 20 0 0120 20z" mask="url(#a)"/></g><path fill="#1a1a1a" d="M1706 296v-86h12v86zm27 0v-63h10v10c4-8 10-11 20-11 3 0 6 0 10 2l7 5 3 8v48h-10v-37l-1-10a10 10 0 00-5-5 13 13 0 00-7-2 20 20 0 00-12 4c-3 3-5 9-5 16v34zm93-10l1 10a40 40 0 01-7 0l-10-1a11 11 0 01-4-5 40 40 0 01-1-13v-36h-8v-8h8v-15l10-6v21h10v8h-10v43a5 5 0 003 2 7 7 0 003 0zm50-10h10c-1 7-4 12-10 16-4 3-10 5-17 5a30 30 0 01-22-9c-5-5-8-13-8-23s3-19 8-24a30 30 0 0121-10c9 0 16 4 20 10 6 5 9 13 9 23v3h-47c0 7 3 12 6 16 4 3 8 5 13 5 4 0 7 0 10-3 3-2 5-5 6-10zm-35-18h35c0-5-2-9-4-11a16 16 0 00-13-6c-5 0-10 1-13 4a20 20 0 00-5 13zm62 38v-63h10v10c2-5 4-8 6-9l7-2c3 0 7 1 10 3l-3 10a15 15 0 00-8-2 10 10 0 00-6 2 10 10 0 00-4 6 38 38 0 00-2 12v32zm40 23v-86h10v8l7-7 10-2c6 0 10 1 15 4 4 3 7 7 9 12a41 41 0 01-1 33c-2 5-5 10-10 12a20 20 0 01-13 4 20 20 0 01-10-2 23 23 0 01-7-6v30zm10-54c0 8 1 14 4 18 4 3 7 5 12 5s9-2 12-6 5-10 5-18-2-14-5-18-7-6-11-6c-5 0-9 2-12 6-4 5-6 10-6 19zm60 30v-62h10v10c2-5 4-8 6-9l7-2c3 0 7 1 10 3l-3 10a15 15 0 00-8-2 10 10 0 00-6 2 10 10 0 00-4 6 38 38 0 00-2 12v32zm82-20l11 2c-1 6-4 11-10 15-4 3-10 5-17 5a30 30 0 01-22-9c-5-5-8-13-8-23s3-19 8-24a30 30 0 0121-10c9 0 16 4 20 10 6 5 9 13 9 23v3h-47c0 7 3 12 6 16 4 3 8 5 13 5 4 0 7 0 10-3 3-2 5-5 6-10zm-34-17h35c0-5-2-9-4-11a16 16 0 00-13-6c-5 0-10 1-13 4a20 20 0 00-5 13zm85 28l1 10a40 40 0 01-7 0l-10-1a11 11 0 01-4-5 40 40 0 01-1-13v-36h-8v-8h8v-15l10-6v21h10v8h-10v43a5 5 0 003 2 7 7 0 003 0zm50-10h10c-1 7-4 12-10 16-4 3-10 5-17 5a30 30 0 01-22-9c-5-5-8-13-8-23s3-19 8-24a30 30 0 0121-10c9 0 16 4 20 10 6 5 9 13 9 23v3h-47c0 7 3 12 6 16 4 3 8 5 13 5 4 0 7 0 10-3 3-2 5-5 6-10zm-35-18h35c0-5-2-9-4-11a16 16 0 00-13-6c-5 0-10 1-13 4a20 20 0 00-5 13zm62 38v-63h10v10c2-5 4-8 6-9l7-2c3 0 7 1 10 3l-3 10a15 15 0 00-8-2 10 10 0 00-6 2 10 10 0 00-4 6 38 38 0 00-2 12v32zm90 25a108 108 0 01-15-26 82 82 0 01-6-30c0-10 2-19 5-27 3-10 9-20 16-30h8l-10 18a94 94 0 00-5 16 99 99 0 00-3 22c0 20 6 38 18 57zm16-57c0-11 3-20 10-25 5-5 11-7 20-7 8 0 15 3 20 8 6 6 8 14 8 23 0 8 0 15-3 20-3 4-6 8-10 10a30 30 0 01-16 4c-9 0-16-3-21-8-5-6-8-14-8-25zm10 0c0 8 3 14 6 18 4 4 8 6 13 6s10-2 13-6 5-10 5-18-1-13-5-17a16 16 0 00-13-6c-5 0-10 2-13 6-3 3-5 10-5 17zm64 32v-86h10v86zm70 0v-8a20 20 0 01-17 9c-5 0-10-1-14-4a28 28 0 01-10-12 44 44 0 010-34c2-5 5-8 10-11a20 20 0 0113-4 20 20 0 0118 8v-30h10v86zm-33-32c0 8 2 14 5 18s7 6 12 6 8-2 12-5 4-10 4-18-1-14-5-18a15 15 0 00-23 0c-3 3-5 10-5 17zm70 57h-8a98 98 0 0015-78 94 94 0 00-5-17l-10-18h8c7 10 13 20 16 30 3 8 5 17 5 26a80 80 0 01-6 31 112 112 0 01-15 26zm396-25v-86h11v86zm27 0v-63h10v10c4-8 10-11 20-11 3 0 6 0 10 2l7 5 3 8v48h-10v-37l-1-10a10 10 0 00-5-5 13 13 0 00-7-2 20 20 0 00-12 4c-3 3-5 9-5 16v34zm93-10l2 10a40 40 0 01-8 0l-10-1a11 11 0 01-4-5 40 40 0 01-1-13v-36h-8v-8h8v-15l10-6v21h10v8h-10v43a5 5 0 003 2 7 7 0 003 0zm50-10h10c-1 7-4 12-10 16-4 3-10 5-17 5a30 30 0 01-22-9c-5-5-8-13-8-23s3-19 9-24c5-6 12-10 20-10 9 0 16 4 20 10 6 5 9 13 9 23v3h-47c0 7 3 12 6 16 4 3 8 5 13 5 4 0 7 0 10-3 3-2 5-5 6-10zm-35-18h35c0-5-2-9-4-11a16 16 0 00-13-6c-5 0-10 1-13 4a20 20 0 00-5 13zm62 38v-63h10v10c2-5 4-8 6-9l7-2c3 0 7 1 10 3l-3 10a15 15 0 00-8-2 10 10 0 00-6 2 10 10 0 00-4 6 38 38 0 00-2 12v32zm40 23v-86h10v8l7-7 10-2c6 0 10 1 15 4 4 3 7 7 9 12a41 41 0 01-1 33c-2 5-5 10-10 12a20 20 0 01-13 4 20 20 0 01-10-2 23 23 0 01-7-6v30zm10-54c0 8 1 14 4 18 4 3 7 5 12 5s9-2 12-6 5-10 5-18-2-14-5-18-7-6-11-6c-5 0-9 2-12 6-4 5-5 10-5 19zm60 30v-62h10v10c2-5 4-8 6-9l7-2c3 0 7 1 10 3l-3 10a15 15 0 00-8-2 10 10 0 00-6 2 10 10 0 00-4 6 38 38 0 00-2 12v32zm82-20l11 2c-1 6-4 11-10 15-4 3-10 5-17 5a30 30 0 01-22-9c-5-5-8-13-8-23s3-19 9-24c5-6 12-10 20-10 9 0 16 4 20 10 6 5 9 13 9 23v3h-47c0 7 3 12 6 16 4 3 8 5 13 5 4 0 7 0 10-3 3-2 5-5 6-10zm-34-17h35c0-5-2-9-4-11a16 16 0 00-13-6c-5 0-10 1-13 4a20 20 0 00-5 13zm85 28l2 10a40 40 0 01-8 0l-10-1a11 11 0 01-4-5 40 40 0 01-1-13v-36h-8v-8h8v-15l10-6v21h10v8h-10v43a5 5 0 003 2 7 7 0 003 0zm50-10h10c-1 7-4 12-10 16-4 3-10 5-17 5a30 30 0 01-22-9c-5-5-8-13-8-23s3-19 9-24c5-6 12-10 20-10 9 0 16 4 20 10 6 5 9 13 9 23v3h-47c0 7 3 12 6 16 4 3 8 5 13 5 4 0 7 0 10-3 3-2 5-5 6-10zm-35-18h35c0-5-2-9-4-11a16 16 0 00-13-6c-5 0-10 1-13 4a20 20 0 00-5 13zm62 38v-63h10v10c2-5 4-8 6-9l7-2c3 0 7 1 10 3l-3 10a15 15 0 00-8-2 10 10 0 00-6 2 10 10 0 00-4 6 38 38 0 00-2 12v32zm90 25a108 108 0 01-15-26 82 82 0 01-6-30c0-10 2-19 5-27 3-10 9-20 16-30h8l-10 18a94 94 0 00-5 16 99 99 0 00-3 22c0 20 6 38 18 57zm20-25v-63h10v10c4-8 10-11 20-11 3 0 6 0 10 2l7 5 3 8v49h-10v-38l-1-10a10 10 0 00-5-5 13 13 0 00-7-2 20 20 0 00-12 4c-3 3-5 9-5 16v35zm112-20h11c-1 7-4 12-10 16-4 3-10 5-17 5a30 30 0 01-22-9c-5-5-8-13-8-23s3-19 9-24c5-6 12-10 20-10 9 0 16 4 20 10 6 5 9 13 9 23v3h-47c0 7 3 12 6 16 4 3 8 5 13 5 4 0 7 0 10-3 3-2 5-5 6-10zm-34-18h35c0-5-2-9-4-11a16 16 0 00-13-6c-5 0-10 1-13 4a20 20 0 00-5 13zm73 38l-19-63h11l10 36 4 14 3-13 10-37h10l10 36 3 12 4-12 10-36h10l-19 63h-10l-10-38-3-10-13 48h-10zm86 24h-8a98 98 0 0015-78 94 94 0 00-5-17l-10-18h8c7 10 13 20 16 30 3 8 5 17 5 26a80 80 0 01-6 31 112 112 0 01-15 26zm394-24v-86h12l45 67v-67h10v86h-10l-46-68v68zm130-8a40 40 0 01-12 7l-11 2c-7 0-13-2-16-5-4-3-6-8-6-13a17 17 0 018-14l8-4 9-1 19-4v-3c0-4-1-7-3-9-3-2-7-3-12-3s-9 0-11 2c-3 2-4 5-6 10l-10-2 5-10a20 20 0 0110-7l13-2c5 0 10 0 13 2l8 4 3 8v42l4 8h-11a24 24 0 01-2-8zm-1-24a80 80 0 01-18 4l-9 2a10 10 0 00-4 4 9 9 0 00-1 5c0 3 0 5 3 7 2 2 5 3 10 3a20 20 0 0010-3l7-7 2-10zm53 22l1 10a40 40 0 01-7 0l-10-1a11 11 0 01-4-5 40 40 0 01-1-13v-36h-8v-8h8v-15l10-6v21h10v8h-10v43a5 5 0 003 2 7 7 0 003 0zm7-64v-12h10v12zm0 73v-62h10v62zm47 0l-23-62h10l14 37 4 13 4-12 14-38h10l-23 62zm85-20l11 2c-1 6-4 11-10 15-4 3-10 5-17 5a30 30 0 01-22-9c-5-5-8-13-8-23s3-19 9-24c5-6 12-10 20-10 9 0 16 4 20 10 6 5 9 13 9 23v3h-47c0 7 3 12 6 16 4 3 8 5 13 5 4 0 7 0 10-3 3-2 5-5 6-10zm-34-17h35c0-5-2-9-4-11a16 16 0 00-13-7c-5 0-10 2-13 5a20 20 0 00-5 13z"/><defs><path id="C" d="M1495 206a10 10 0 0110-10h100a10 10 0 0110 10v100a10 10 0 01-10 10h-100a10 10 0 01-10-10z"/></defs></svg>