<svg version="1.1" viewBox="0.0 0.0 600.0 371.0" fill="none" stroke="none" stroke-linecap="square" stroke-miterlimit="10" width="600" height="371" xmlns:xlink="http://www.w3.org/1999/xlink" xmlns="http://www.w3.org/2000/svg"><path fill="#ffffff" fill-opacity="0.0" d="M0 0L600.0 0L600.0 371.0L0 371.0L0 0Z" fill-rule="nonzero"/><path stroke="#333333" stroke-width="1.0" stroke-linecap="butt" d="M77.5 304.5L581.5 304.5" fill-rule="nonzero"/><path stroke="#cccccc" stroke-width="1.0" stroke-linecap="butt" d="M77.5 268.5L581.5 268.5" fill-rule="nonzero"/><path stroke="#cccccc" stroke-width="1.0" stroke-linecap="butt" d="M77.5 232.5L581.5 232.5" fill-rule="nonzero"/><path stroke="#cccccc" stroke-width="1.0" stroke-linecap="butt" d="M77.5 196.5L581.5 196.5" fill-rule="nonzero"/><path stroke="#cccccc" stroke-width="1.0" stroke-linecap="butt" d="M77.5 160.5L581.5 160.5" fill-rule="nonzero"/><path stroke="#cccccc" stroke-width="1.0" stroke-linecap="butt" d="M77.5 124.5L581.5 124.5" fill-rule="nonzero"/><path stroke="#cccccc" stroke-width="1.0" stroke-linecap="butt" d="M77.5 87.5L581.5 87.5" fill-rule="nonzero"/><path stroke="#cccccc" stroke-width="1.0" stroke-linecap="butt" d="M77.5 51.5L581.5 51.5" fill-rule="nonzero"/><path stroke="#e6e6e6" stroke-width="1.0" stroke-linecap="butt" d="M77.5 286.5L581.5 286.5" fill-rule="nonzero"/><path stroke="#e6e6e6" stroke-width="1.0" stroke-linecap="butt" d="M77.5 250.5L581.5 250.5" fill-rule="nonzero"/><path stroke="#e6e6e6" stroke-width="1.0" stroke-linecap="butt" d="M77.5 214.5L581.5 214.5" fill-rule="nonzero"/><path stroke="#e6e6e6" stroke-width="1.0" stroke-linecap="butt" d="M77.5 178.5L581.5 178.5" fill-rule="nonzero"/><path stroke="#e6e6e6" stroke-width="1.0" stroke-linecap="butt" d="M77.5 142.5L581.5 142.5" fill-rule="nonzero"/><path stroke="#e6e6e6" stroke-width="1.0" stroke-linecap="butt" d="M77.5 106.5L581.5 106.5" fill-rule="nonzero"/><path stroke="#e6e6e6" stroke-width="1.0" stroke-linecap="butt" d="M77.5 69.5L581.5 69.5" fill-rule="nonzero"/><clipPath id="id_0"><path d="M77.55 51.916668L581.45 51.916668L581.45 304.45L77.55 304.45L77.55 51.916668Z" clip-rule="nonzero"/></clipPath><path stroke="#000000" stroke-width="0.0" stroke-linecap="butt" stroke-opacity="0.0" clip-path="url(#id_0)" d="M122.0 304.0L106.0 304.0L106.0 143.0C106.0 141.89543 106.89543 141.0 108.0 141.0L120.0 141.0C121.10457 141.0 122.0 141.89543 122.0 143.0Z" fill-rule="nonzero"/><path fill="#4285f4" clip-path="url(#id_0)" d="M122.0 304.0L106.0 304.0L106.0 143.0C106.0 141.89543 106.89543 141.0 108.0 141.0L120.0 141.0C121.10457 141.0 122.0 141.89543 122.0 143.0Z" fill-rule="nonzero"/><path stroke="#000000" stroke-width="0.0" stroke-linecap="butt" stroke-opacity="0.0" clip-path="url(#id_0)" d="M201.0 304.0L185.0 304.0L185.0 181.0C185.0 179.89543 185.89543 179.0 187.0 179.0L199.0 179.0C200.10457 179.0 201.0 179.89543 201.0 181.0Z" fill-rule="nonzero"/><path fill="#4285f4" clip-path="url(#id_0)" d="M201.0 304.0L185.0 304.0L185.0 181.0C185.0 179.89543 185.89543 179.0 187.0 179.0L199.0 179.0C200.10457 179.0 201.0 179.89543 201.0 181.0Z" fill-rule="nonzero"/><path stroke="#000000" stroke-width="0.0" stroke-linecap="butt" stroke-opacity="0.0" clip-path="url(#id_0)" d="M281.0 304.0L265.0 304.0L265.0 78.0C265.0 76.89543 265.89542 76.0 267.0 76.0L279.0 76.0C280.10458 76.0 281.0 76.89543 281.0 78.0Z" fill-rule="nonzero"/><path fill="#4285f4" clip-path="url(#id_0)" d="M281.0 304.0L265.0 304.0L265.0 78.0C265.0 76.89543 265.89542 76.0 267.0 76.0L279.0 76.0C280.10458 76.0 281.0 76.89543 281.0 78.0Z" fill-rule="nonzero"/><path stroke="#000000" stroke-width="0.0" stroke-linecap="butt" stroke-opacity="0.0" clip-path="url(#id_0)" d="M360.0 304.0L344.0 304.0L344.0 102.0C344.0 100.89543 344.89542 100.0 346.0 100.0L358.0 100.0C359.10458 100.0 360.0 100.89543 360.0 102.0Z" fill-rule="nonzero"/><path fill="#4285f4" clip-path="url(#id_0)" d="M360.0 304.0L344.0 304.0L344.0 102.0C344.0 100.89543 344.89542 100.0 346.0 100.0L358.0 100.0C359.10458 100.0 360.0 100.89543 360.0 102.0Z" fill-rule="nonzero"/><path stroke="#000000" stroke-width="0.0" stroke-linecap="butt" stroke-opacity="0.0" clip-path="url(#id_0)" d="M440.0 304.0L424.0 304.0L424.0 265.0C424.0 263.89542 424.89542 263.0 426.0 263.0L438.0 263.0C439.10458 263.0 440.0 263.89542 440.0 265.0Z" fill-rule="nonzero"/><path fill="#4285f4" clip-path="url(#id_0)" d="M440.0 304.0L424.0 304.0L424.0 265.0C424.0 263.89542 424.89542 263.0 426.0 263.0L438.0 263.0C439.10458 263.0 440.0 263.89542 440.0 265.0Z" fill-rule="nonzero"/><path stroke="#000000" stroke-width="0.0" stroke-linecap="butt" stroke-opacity="0.0" clip-path="url(#id_0)" d="M519.0 304.0L503.0 304.0L503.0 269.0C503.0 267.89542 503.89542 267.0 505.0 267.0L517.0 267.0C518.10455 267.0 519.0 267.89542 519.0 269.0Z" fill-rule="nonzero"/><path fill="#4285f4" clip-path="url(#id_0)" d="M519.0 304.0L503.0 304.0L503.0 269.0C503.0 267.89542 503.89542 267.0 505.0 267.0L517.0 267.0C518.10455 267.0 519.0 267.89542 519.0 269.0Z" fill-rule="nonzero"/><path stroke="#000000" stroke-width="0.0" stroke-linecap="butt" stroke-opacity="0.0" clip-path="url(#id_0)" d="M139.0 304.0L123.0 304.0L123.0 178.0C123.0 176.89543 123.89543 176.0 125.0 176.0L137.0 176.0C138.10457 176.0 139.0 176.89543 139.0 178.0Z" fill-rule="nonzero"/><path fill="#ea4335" clip-path="url(#id_0)" d="M139.0 304.0L123.0 304.0L123.0 178.0C123.0 176.89543 123.89543 176.0 125.0 176.0L137.0 176.0C138.10457 176.0 139.0 176.89543 139.0 178.0Z" fill-rule="nonzero"/><path stroke="#000000" stroke-width="0.0" stroke-linecap="butt" stroke-opacity="0.0" clip-path="url(#id_0)" d="M218.0 304.0L202.0 304.0L202.0 230.0C202.0 228.89543 202.89543 228.0 204.0 228.0L216.0 228.0C217.10457 228.0 218.0 228.89543 218.0 230.0Z" fill-rule="nonzero"/><path fill="#ea4335" clip-path="url(#id_0)" d="M218.0 304.0L202.0 304.0L202.0 230.0C202.0 228.89543 202.89543 228.0 204.0 228.0L216.0 228.0C217.10457 228.0 218.0 228.89543 218.0 230.0Z" fill-rule="nonzero"/><path stroke="#000000" stroke-width="0.0" stroke-linecap="butt" stroke-opacity="0.0" clip-path="url(#id_0)" d="M298.0 304.0L282.0 304.0L282.0 130.0C282.0 128.89543 282.89542 128.0 284.0 128.0L296.0 128.0C297.10458 128.0 298.0 128.89543 298.0 130.0Z" fill-rule="nonzero"/><path fill="#ea4335" clip-path="url(#id_0)" d="M298.0 304.0L282.0 304.0L282.0 130.0C282.0 128.89543 282.89542 128.0 284.0 128.0L296.0 128.0C297.10458 128.0 298.0 128.89543 298.0 130.0Z" fill-rule="nonzero"/><path stroke="#000000" stroke-width="0.0" stroke-linecap="butt" stroke-opacity="0.0" clip-path="url(#id_0)" d="M377.0 304.0L361.0 304.0L361.0 206.0C361.0 204.89543 361.89542 204.0 363.0 204.0L375.0 204.0C376.10458 204.0 377.0 204.89543 377.0 206.0Z" fill-rule="nonzero"/><path fill="#ea4335" clip-path="url(#id_0)" d="M377.0 304.0L361.0 304.0L361.0 206.0C361.0 204.89543 361.89542 204.0 363.0 204.0L375.0 204.0C376.10458 204.0 377.0 204.89543 377.0 206.0Z" fill-rule="nonzero"/><path stroke="#000000" stroke-width="0.0" stroke-linecap="butt" stroke-opacity="0.0" clip-path="url(#id_0)" d="M457.0 304.0L441.0 304.0L441.0 275.0C441.0 273.89542 441.89542 273.0 443.0 273.0L455.0 273.0C456.10458 273.0 457.0 273.89542 457.0 275.0Z" fill-rule="nonzero"/><path fill="#ea4335" clip-path="url(#id_0)" d="M457.0 304.0L441.0 304.0L441.0 275.0C441.0 273.89542 441.89542 273.0 443.0 273.0L455.0 273.0C456.10458 273.0 457.0 273.89542 457.0 275.0Z" fill-rule="nonzero"/><path stroke="#000000" stroke-width="0.0" stroke-linecap="butt" stroke-opacity="0.0" clip-path="url(#id_0)" d="M536.0 304.0L520.0 304.0L520.0 275.0C520.0 273.89542 520.89545 273.0 522.0 273.0L534.0 273.0C535.10455 273.0 536.0 273.89542 536.0 275.0Z" fill-rule="nonzero"/><path fill="#ea4335" clip-path="url(#id_0)" d="M536.0 304.0L520.0 304.0L520.0 275.0C520.0 273.89542 520.89545 273.0 522.0 273.0L534.0 273.0C535.10455 273.0 536.0 273.89542 536.0 275.0Z" fill-rule="nonzero"/><path stroke="#000000" stroke-width="0.0" stroke-linecap="butt" stroke-opacity="0.0" clip-path="url(#id_0)" d="M156.0 304.0L140.0 304.0L140.0 289.0C140.0 287.89542 140.89543 287.0 142.0 287.0L154.0 287.0C155.10457 287.0 156.0 287.89542 156.0 289.0Z" fill-rule="nonzero"/><path fill="#fbbc04" clip-path="url(#id_0)" d="M156.0 304.0L140.0 304.0L140.0 289.0C140.0 287.89542 140.89543 287.0 142.0 287.0L154.0 287.0C155.10457 287.0 156.0 287.89542 156.0 289.0Z" fill-rule="nonzero"/><path stroke="#000000" stroke-width="0.0" stroke-linecap="butt" stroke-opacity="0.0" clip-path="url(#id_0)" d="M235.0 304.0L219.0 304.0L219.0 260.0C219.0 258.89542 219.89543 258.0 221.0 258.0L233.0 258.0C234.10457 258.0 235.0 258.89542 235.0 260.0Z" fill-rule="nonzero"/><path fill="#fbbc04" clip-path="url(#id_0)" d="M235.0 304.0L219.0 304.0L219.0 260.0C219.0 258.89542 219.89543 258.0 221.0 258.0L233.0 258.0C234.10457 258.0 235.0 258.89542 235.0 260.0Z" fill-rule="nonzero"/><path stroke="#000000" stroke-width="0.0" stroke-linecap="butt" stroke-opacity="0.0" clip-path="url(#id_0)" d="M315.0 304.0L299.0 304.0L299.0 175.0C299.0 173.89543 299.89542 173.0 301.0 173.0L313.0 173.0C314.10458 173.0 315.0 173.89543 315.0 175.0Z" fill-rule="nonzero"/><path fill="#fbbc04" clip-path="url(#id_0)" d="M315.0 304.0L299.0 304.0L299.0 175.0C299.0 173.89543 299.89542 173.0 301.0 173.0L313.0 173.0C314.10458 173.0 315.0 173.89543 315.0 175.0Z" fill-rule="nonzero"/><path stroke="#000000" stroke-width="0.0" stroke-linecap="butt" stroke-opacity="0.0" clip-path="url(#id_0)" d="M394.0 304.0L378.0 304.0L378.0 253.0C378.0 251.89543 378.89542 251.0 380.0 251.0L392.0 251.0C393.10458 251.0 394.0 251.89543 394.0 253.0Z" fill-rule="nonzero"/><path fill="#fbbc04" clip-path="url(#id_0)" d="M394.0 304.0L378.0 304.0L378.0 253.0C378.0 251.89543 378.89542 251.0 380.0 251.0L392.0 251.0C393.10458 251.0 394.0 251.89543 394.0 253.0Z" fill-rule="nonzero"/><path stroke="#000000" stroke-width="0.0" stroke-linecap="butt" stroke-opacity="0.0" clip-path="url(#id_0)" d="M474.0 304.0L458.0 304.0L458.0 281.0C458.0 279.89542 458.89542 279.0 460.0 279.0L472.0 279.0C473.10458 279.0 474.0 279.89542 474.0 281.0Z" fill-rule="nonzero"/><path fill="#fbbc04" clip-path="url(#id_0)" d="M474.0 304.0L458.0 304.0L458.0 281.0C458.0 279.89542 458.89542 279.0 460.0 279.0L472.0 279.0C473.10458 279.0 474.0 279.89542 474.0 281.0Z" fill-rule="nonzero"/><path stroke="#000000" stroke-width="0.0" stroke-linecap="butt" stroke-opacity="0.0" clip-path="url(#id_0)" d="M553.0 304.0L537.0 304.0L537.0 280.0C537.0 278.89542 537.89545 278.0 539.0 278.0L551.0 278.0C552.10455 278.0 553.0 278.89542 553.0 280.0Z" fill-rule="nonzero"/><path fill="#fbbc04" clip-path="url(#id_0)" d="M553.0 304.0L537.0 304.0L537.0 280.0C537.0 278.89542 537.89545 278.0 539.0 278.0L551.0 278.0C552.10455 278.0 553.0 278.89542 553.0 280.0Z" fill-rule="nonzero"/><path fill="#000000" d="M29.550013 234.24583L20.956263 234.24583L20.956263 230.43333Q20.956263 229.27708 21.190638 228.68333Q21.425013 228.08958 22.018763 227.73021Q22.596888 227.37083 23.300013 227.37083Q24.221888 227.37083 24.846888 227.96458Q25.471888 228.55833 25.643763 229.79271Q25.862513 229.33958 26.065638 229.10521Q26.518763 228.60521 27.206263 228.16771L29.550013 226.66771L29.550013 228.10521L27.768763 229.23021Q26.987513 229.73021 26.581263 230.05833Q26.175013 230.37083 26.018763 230.63646Q25.846888 230.88646 25.768763 231.15208Q25.737513 231.33958 25.737513 231.77708L25.737513 233.10521L29.550013 233.10521L29.550013 234.24583ZM24.753138 233.10521L24.753138 230.65208Q24.753138 229.88646 24.596888 229.44896Q24.425013 228.99583 24.081263 228.77708Q23.721888 228.54271 23.300013 228.54271Q22.690638 228.54271 22.300013 228.99583Q21.909388 229.43333 21.909388 230.38646L21.909388 233.10521L24.753138 233.10521ZM29.550013 221.30833L28.628138 221.30833Q29.690638 222.04271 29.690638 223.29271Q29.690638 223.83958 29.487513 224.32396Q29.268763 224.79271 28.956263 225.02708Q28.628138 225.26146 28.159388 225.35521Q27.862513 225.41771 27.175013 225.41771L23.331263 225.41771L23.331263 224.35521L26.784388 224.35521Q27.596888 224.35521 27.893763 224.29271Q28.300013 224.19896 28.550013 223.88646Q28.784388 223.55833 28.784388 223.07396Q28.784388 222.60521 28.550013 222.19896Q28.300013 221.77708 27.878138 221.60521Q27.456263 221.41771 26.659388 221.41771L23.331263 221.41771L23.331263 220.37083L29.550013 220.37083L29.550013 221.30833ZM29.550013 218.38646L23.331263 218.38646L23.331263 217.44896L24.206263 217.44896Q23.190638 216.76146 23.190638 215.46458Q23.190638 214.90208 23.393763 214.43333Q23.596888 213.94896 23.925013 213.71458Q24.253138 213.48021 24.690638 213.38646Q24.987513 213.33958 25.721888 213.33958L29.550013 213.33958L29.550013 214.38646L25.768763 214.38646Q25.112513 214.38646 24.800013 214.51146Q24.487513 214.63646 24.300013 214.94896Q24.096888 215.26146 24.096888 215.68333Q24.096888 216.35521 24.534388 216.85521Q24.956263 217.33958 26.143763 217.33958L29.550013 217.33958L29.550013 218.38646ZM28.612513 209.08958L29.534388 208.93333Q29.628138 209.38646 29.628138 209.73021Q29.628138 210.30833 29.456263 210.62083Q29.268763 210.93333 28.971888 211.07396Q28.675013 211.19896 27.721888 211.19896L24.143763 211.19896L24.143763 211.96458L23.331263 211.96458L23.331263 211.19896L21.784388 211.19896L21.159388 210.15208L23.331263 210.15208L23.331263 209.08958L24.143763 209.08958L24.143763 210.15208L27.784388 210.15208Q28.237513 210.15208 28.362513 210.10521Q28.487513 210.04271 28.565638 209.91771Q28.643763 209.79271 28.643763 209.55833Q28.643763 209.37083 28.612513 209.08958ZM22.175013 208.38646L20.956263 208.38646L20.956263 207.32396L22.175013 207.32396L22.175013 208.38646ZM29.550013 208.38646L23.331263 208.38646L23.331263 207.32396L29.550013 207.32396L29.550013 208.38646ZM29.550013 205.38646L23.331263 205.38646L23.331263 204.44896L24.206263 204.44896Q23.737513 204.15208 23.471888 203.66771Q23.190638 203.18333 23.190638 202.55833Q23.190638 201.87083 23.471888 201.43333Q23.753138 200.98021 24.268763 200.80833Q23.190638 200.05833 23.190638 198.88646Q23.190638 197.94896 23.706263 197.46458Q24.206263 196.96458 25.284388 196.96458L29.550013 196.96458L29.550013 198.01146L25.628138 198.01146Q25.003138 198.01146 24.721888 198.12083Q24.440638 198.21458 24.268763 198.48021Q24.096888 198.74583 24.096888 199.12083Q24.096888 199.77708 24.534388 200.21458Q24.971888 200.63646 25.940638 200.63646L29.550013 200.63646L29.550013 201.69896L25.503138 201.69896Q24.800013 201.69896 24.456263 201.96458Q24.096888 202.21458 24.096888 202.79271Q24.096888 203.24583 24.331263 203.62083Q24.565638 203.99583 25.018763 204.16771Q25.471888 204.33958 26.315638 204.33958L29.550013 204.33958L29.550013 205.38646ZM27.550013 191.13646L27.675013 190.04271Q28.628138 190.29271 29.159388 190.99583Q29.690638 191.69896 29.690638 192.77708Q29.690638 194.13646 28.846888 194.94896Q28.003138 195.74583 26.487513 195.74583Q24.925013 195.74583 24.065638 194.93333Q23.190638 194.12083 23.190638 192.83958Q23.190638 191.58958 24.034388 190.80833Q24.878138 190.01146 26.425013 190.01146Q26.518763 190.01146 26.706263 190.01146L26.706263 194.65208Q27.737513 194.58958 28.284388 194.07396Q28.815638 193.55833 28.815638 192.77708Q28.815638 192.19896 28.518763 191.79271Q28.206263 191.37083 27.550013 191.13646ZM25.846888 194.58958L25.846888 191.12083Q25.050013 191.18333 24.659388 191.51146Q24.050013 192.02708 24.050013 192.82396Q24.050013 193.55833 24.534388 194.05833Q25.018763 194.54271 25.846888 194.58958ZM32.08126 183.37083Q30.971888 184.24583 29.503138 184.85521Q28.018763 185.44896 26.440638 185.44896Q25.050013 185.44896 23.768763 185.01146Q22.284388 184.48021 20.815638 183.37083L20.815638 182.62083Q22.034388 183.32396 22.550013 183.55833Q23.362513 183.91771 24.237513 184.12083Q25.331263 184.37083 26.440638 184.37083Q29.268763 184.37083 32.08126 182.62083L32.08126 183.37083ZM29.550013 181.38646L23.331263 181.38646L23.331263 180.44896L24.206263 180.44896Q23.737513 180.15208 23.471888 179.66771Q23.190638 179.18333 23.190638 178.55833Q23.190638 177.87083 23.471888 177.43333Q23.753138 176.98021 24.268763 176.80833Q23.190638 176.05833 23.190638 174.88646Q23.190638 173.94896 23.706263 173.46458Q24.206263 172.96458 25.284388 172.96458L29.550013 172.96458L29.550013 174.01146L25.628138 174.01146Q25.003138 174.01146 24.721888 174.12083Q24.440638 174.21458 24.268763 174.48021Q24.096888 174.74583 24.096888 175.12083Q24.096888 175.77708 24.534388 176.21458Q24.971888 176.63646 25.940638 176.63646L29.550013 176.63646L29.550013 177.69896L25.503138 177.69896Q24.800013 177.69896 24.456263 177.96458Q24.096888 178.21458 24.096888 178.79271Q24.096888 179.24583 24.331263 179.62083Q24.565638 179.99583 25.018763 180.16771Q25.471888 180.33958 26.315638 180.33958L29.550013 180.33958L29.550013 181.38646ZM27.690638 171.80833L27.534388 170.77708Q28.159388 170.68333 28.487513 170.29271Q28.815638 169.88646 28.815638 169.15208Q28.815638 168.43333 28.534388 168.08958Q28.237513 167.73021 27.831263 167.73021Q27.471888 167.73021 27.268763 168.04271Q27.128138 168.26146 26.909388 169.12083Q26.612513 170.27708 26.409388 170.73021Q26.190638 171.16771 25.815638 171.40208Q25.440638 171.63646 24.971888 171.63646Q24.565638 171.63646 24.206263 171.44896Q23.846888 171.26146 23.612513 170.93333Q23.440638 170.68333 23.315638 170.26146Q23.190638 169.83958 23.190638 169.33958Q23.190638 168.62083 23.409388 168.07396Q23.612513 167.51146 23.971888 167.24583Q24.331263 166.98021 24.925013 166.88646L25.065638 167.91771Q24.596888 167.98021 24.331263 168.32396Q24.050013 168.65208 24.050013 169.27708Q24.050013 169.99583 24.300013 170.30833Q24.534388 170.62083 24.862513 170.62083Q25.065638 170.62083 25.221888 170.49583Q25.393763 170.35521 25.503138 170.08958Q25.565638 169.93333 25.768763 169.15208Q26.081263 168.02708 26.268763 167.58958Q26.456263 167.15208 26.815638 166.90208Q27.175013 166.65208 27.721888 166.65208Q28.253138 166.65208 28.721888 166.96458Q29.175013 167.26146 29.440638 167.83958Q29.690638 168.41771 29.690638 169.15208Q29.690638 170.37083 29.190638 171.01146Q28.675013 171.63646 27.690638 171.80833ZM32.08126 164.69896L32.08126 165.44896Q29.268763 163.69896 26.440638 163.69896Q25.346888 163.69896 24.253138 163.94896Q23.378138 164.15208 22.565638 164.51146Q22.050013 164.74583 20.815638 165.44896L20.815638 164.69896Q22.284388 163.60521 23.768763 163.07396Q25.050013 162.62083 26.440638 162.62083Q28.018763 162.62083 29.503138 163.23021Q30.971888 163.83958 32.08126 164.69896Z" fill-rule="nonzero"/><path fill="#000000" d="M65.05 304.21564Q65.05 302.6844 65.3625 301.7625Q65.675 300.825 66.28438 300.325Q66.90938 299.825 67.84688 299.825Q68.53438 299.825 69.05 300.10626Q69.58125 300.3875 69.925 300.91876Q70.26875 301.4344 70.45625 302.1844Q70.64375 302.9344 70.64375 304.21564Q70.64375 305.73126 70.33125 306.65314Q70.03438 307.575 69.40938 308.09064Q68.8 308.59064 67.84688 308.59064Q66.6125 308.59064 65.89375 307.7Q65.05 306.6375 65.05 304.21564ZM66.12813 304.21564Q66.12813 306.325 66.62813 307.02814Q67.12813 307.73126 67.84688 307.73126Q68.58125 307.73126 69.06563 307.02814Q69.56563 306.325 69.56563 304.21564Q69.56563 302.09064 69.06563 301.40314Q68.58125 300.7 67.83125 300.7Q67.1125 300.7 66.675 301.3094Q66.12813 302.09064 66.12813 304.21564Z" fill-rule="nonzero"/><path fill="#000000" d="M62.01875 272.3738L60.971874 272.3738L60.971874 265.65506Q60.58125 266.01443 59.95625 266.38943Q59.346874 266.7488 58.8625 266.9207L58.8625 265.90506Q59.7375 265.4832 60.39375 264.90506Q61.065624 264.3113 61.346874 263.7488L62.01875 263.7488L62.01875 272.3738ZM65.05 268.13943Q65.05 266.6082 65.3625 265.6863Q65.675 264.7488 66.28438 264.2488Q66.90938 263.7488 67.84688 263.7488Q68.53438 263.7488 69.05 264.03006Q69.58125 264.3113 69.925 264.84256Q70.26875 265.3582 70.45625 266.1082Q70.64375 266.8582 70.64375 268.13943Q70.64375 269.65506 70.33125 270.57693Q70.03438 271.4988 69.40938 272.01443Q68.8 272.51443 67.84688 272.51443Q66.6125 272.51443 65.89375 271.6238Q65.05 270.5613 65.05 268.13943ZM66.12813 268.13943Q66.12813 270.2488 66.62813 270.95193Q67.12813 271.65506 67.84688 271.65506Q68.58125 271.65506 69.06563 270.95193Q69.56563 270.2488 69.56563 268.13943Q69.56563 266.01443 69.06563 265.32693Q68.58125 264.6238 67.83125 264.6238Q67.1125 264.6238 66.675 265.2332Q66.12813 266.01443 66.12813 268.13943Z" fill-rule="nonzero"/><path fill="#000000" d="M63.596874 235.282L63.596874 236.29762L57.909374 236.29762Q57.909374 235.92262 58.034374 235.56325Q58.253124 234.98512 58.721874 234.42262Q59.20625 233.86012 60.1125 233.12575Q61.51875 231.9695 62.003124 231.29762Q62.503124 230.62575 62.503124 230.032Q62.503124 229.407 62.05 228.98512Q61.596874 228.54762 60.878124 228.54762Q60.1125 228.54762 59.659374 229.00075Q59.20625 229.45387 59.190624 230.26637L58.1125 230.157Q58.221874 228.93825 58.940624 228.31325Q59.675 227.67262 60.909374 227.67262Q62.14375 227.67262 62.8625 228.36012Q63.58125 229.04762 63.58125 230.06325Q63.58125 230.57887 63.3625 231.07887Q63.159374 231.56325 62.659374 232.12575Q62.175 232.67262 61.05 233.62575Q60.096874 234.42262 59.815624 234.7195Q59.55 235.00075 59.378124 235.282L63.596874 235.282ZM65.05 232.06325Q65.05 230.532 65.3625 229.61012Q65.675 228.67262 66.28438 228.17262Q66.90938 227.67262 67.84688 227.67262Q68.53438 227.67262 69.05 227.95387Q69.58125 228.23512 69.925 228.76637Q70.26875 229.282 70.45625 230.032Q70.64375 230.782 70.64375 232.06325Q70.64375 233.57887 70.33125 234.50075Q70.03438 235.42262 69.40938 235.93825Q68.8 236.43825 67.84688 236.43825Q66.6125 236.43825 65.89375 235.54762Q65.05 234.48512 65.05 232.06325ZM66.12813 232.06325Q66.12813 234.17262 66.62813 234.87575Q67.12813 235.57887 67.84688 235.57887Q68.58125 235.57887 69.06563 234.87575Q69.56563 234.17262 69.56563 232.06325Q69.56563 229.93825 69.06563 229.25075Q68.58125 228.54762 67.83125 228.54762Q67.1125 228.54762 66.675 229.157Q66.12813 229.93825 66.12813 232.06325Z" fill-rule="nonzero"/><path fill="#000000" d="M58.05 197.95581L59.1125 197.81519Q59.284374 198.70581 59.721874 199.11206Q60.159374 199.50269 60.784374 199.50269Q61.534374 199.50269 62.05 198.98706Q62.565624 198.47144 62.565624 197.70581Q62.565624 196.98706 62.08125 196.51831Q61.6125 196.03394 60.878124 196.03394Q60.58125 196.03394 60.128124 196.15894L60.253124 195.22144Q60.3625 195.23706 60.425 195.23706Q61.096874 195.23706 61.628124 194.89331Q62.175 194.53394 62.175 193.79956Q62.175 193.22144 61.784374 192.84644Q61.39375 192.45581 60.76875 192.45581Q60.159374 192.45581 59.7375 192.84644Q59.33125 193.23706 59.221874 194.00269L58.159374 193.81519Q58.346874 192.76831 59.034374 192.19019Q59.721874 191.59644 60.7375 191.59644Q61.440624 191.59644 62.034374 191.90894Q62.628124 192.20581 62.940624 192.72144Q63.253124 193.23706 63.253124 193.83081Q63.253124 194.37769 62.95625 194.84644Q62.659374 195.29956 62.08125 195.56519Q62.83125 195.73706 63.253124 196.29956Q63.675 196.84644 63.675 197.69019Q63.675 198.81519 62.846874 199.59644Q62.034374 200.37769 60.784374 200.37769Q59.659374 200.37769 58.909374 199.70581Q58.159374 199.01831 58.05 197.95581ZM65.05 195.98706Q65.05 194.45581 65.3625 193.53394Q65.675 192.59644 66.28438 192.09644Q66.90938 191.59644 67.84688 191.59644Q68.53438 191.59644 69.05 191.87769Q69.58125 192.15894 69.925 192.69019Q70.26875 193.20581 70.45625 193.95581Q70.64375 194.70581 70.64375 195.98706Q70.64375 197.50269 70.33125 198.42456Q70.03438 199.34644 69.40938 199.86206Q68.8 200.36206 67.84688 200.36206Q66.6125 200.36206 65.89375 199.47144Q65.05 198.40894 65.05 195.98706ZM66.12813 195.98706Q66.12813 198.09644 66.62813 198.79956Q67.12813 199.50269 67.84688 199.50269Q68.58125 199.50269 69.06563 198.79956Q69.56563 198.09644 69.56563 195.98706Q69.56563 193.86206 69.06563 193.17456Q68.58125 192.47144 67.83125 192.47144Q67.1125 192.47144 66.675 193.08081Q66.12813 193.86206 66.12813 195.98706Z" fill-rule="nonzero"/><path fill="#000000" d="M61.425 164.14523L61.425 162.08273L57.70625 162.08273L57.70625 161.11398L61.628124 155.55148L62.4875 155.55148L62.4875 161.11398L63.64375 161.11398L63.64375 162.08273L62.4875 162.08273L62.4875 164.14523L61.425 164.14523ZM61.425 161.11398L61.425 157.25461L58.7375 161.11398L61.425 161.11398ZM65.05 159.91086Q65.05 158.37961 65.3625 157.45773Q65.675 156.52023 66.28438 156.02023Q66.90938 155.52023 67.84688 155.52023Q68.53438 155.52023 69.05 155.80148Q69.58125 156.08273 69.925 156.61398Q70.26875 157.12961 70.45625 157.87961Q70.64375 158.62961 70.64375 159.91086Q70.64375 161.42648 70.33125 162.34836Q70.03438 163.27023 69.40938 163.78586Q68.8 164.28586 67.84688 164.28586Q66.6125 164.28586 65.89375 163.39523Q65.05 162.33273 65.05 159.91086ZM66.12813 159.91086Q66.12813 162.02023 66.62813 162.72336Q67.12813 163.42648 67.84688 163.42648Q68.58125 163.42648 69.06563 162.72336Q69.56563 162.02023 69.56563 159.91086Q69.56563 157.78586 69.06563 157.09836Q68.58125 156.39523 67.83125 156.39523Q67.1125 156.39523 66.675 157.00461Q66.12813 157.78586 66.12813 159.91086Z" fill-rule="nonzero"/><path fill="#000000" d="M58.05 125.819046L59.159374 125.725296Q59.284374 126.537796 59.721874 126.944046Q60.175 127.350296 60.815624 127.350296Q61.565624 127.350296 62.096874 126.77217Q62.628124 126.194046 62.628124 125.256546Q62.628124 124.350296 62.1125 123.83467Q61.6125 123.30342 60.784374 123.30342Q60.284374 123.30342 59.8625 123.537796Q59.45625 123.77217 59.221874 124.131546L58.2375 124.006546L59.065624 119.600296L63.346874 119.600296L63.346874 120.600296L59.909374 120.600296L59.45625 122.912796Q60.221874 122.36592 61.065624 122.36592Q62.190624 122.36592 62.95625 123.14717Q63.7375 123.92842 63.7375 125.162796Q63.7375 126.319046 63.065624 127.17842Q62.2375 128.20967 60.815624 128.20967Q59.64375 128.20967 58.89375 127.55342Q58.159374 126.89717 58.05 125.819046ZM65.05 123.83467Q65.05 122.30342 65.3625 121.381546Q65.675 120.444046 66.28438 119.944046Q66.90938 119.444046 67.84688 119.444046Q68.53438 119.444046 69.05 119.725296Q69.58125 120.006546 69.925 120.537796Q70.26875 121.05342 70.45625 121.80342Q70.64375 122.55342 70.64375 123.83467Q70.64375 125.350296 70.33125 126.27217Q70.03438 127.194046 69.40938 127.70967Q68.8 128.20967 67.84688 128.20967Q66.6125 128.20967 65.89375 127.319046Q65.05 126.256546 65.05 123.83467ZM66.12813 123.83467Q66.12813 125.944046 66.62813 126.64717Q67.12813 127.350296 67.84688 127.350296Q68.58125 127.350296 69.06563 126.64717Q69.56563 125.944046 69.56563 123.83467Q69.56563 121.70967 69.06563 121.02217Q68.58125 120.319046 67.83125 120.319046Q67.1125 120.319046 66.675 120.92842Q66.12813 121.70967 66.12813 123.83467Z" fill-rule="nonzero"/><path fill="#000000" d="M63.51875 85.508484L62.471874 85.58661Q62.33125 84.96161 62.08125 84.68036Q61.64375 84.227234 61.01875 84.227234Q60.51875 84.227234 60.128124 84.508484Q59.64375 84.883484 59.346874 85.58661Q59.065624 86.27411 59.05 87.55536Q59.425 86.977234 59.971874 86.695984Q60.534374 86.414734 61.14375 86.414734Q62.190624 86.414734 62.925 87.195984Q63.675 87.977234 63.675 89.195984Q63.675 90.008484 63.315624 90.71161Q62.971874 91.39911 62.3625 91.77411Q61.753124 92.133484 60.9875 92.133484Q59.659374 92.133484 58.83125 91.164734Q58.003124 90.195984 58.003124 87.977234Q58.003124 85.477234 58.925 84.352234Q59.721874 83.36786 61.08125 83.36786Q62.096874 83.36786 62.7375 83.945984Q63.39375 84.508484 63.51875 85.508484ZM59.221874 89.21161Q59.221874 89.758484 59.440624 90.258484Q59.675 90.74286 60.08125 91.008484Q60.503124 91.27411 60.971874 91.27411Q61.628124 91.27411 62.1125 90.74286Q62.596874 90.195984 62.596874 89.27411Q62.596874 88.383484 62.1125 87.86786Q61.64375 87.352234 60.925 87.352234Q60.20625 87.352234 59.70625 87.86786Q59.221874 88.383484 59.221874 89.21161ZM65.05 87.758484Q65.05 86.227234 65.3625 85.30536Q65.675 84.36786 66.28438 83.86786Q66.90938 83.36786 67.84688 83.36786Q68.53438 83.36786 69.05 83.64911Q69.58125 83.93036 69.925 84.46161Q70.26875 84.977234 70.45625 85.727234Q70.64375 86.477234 70.64375 87.758484Q70.64375 89.27411 70.33125 90.195984Q70.03438 91.11786 69.40938 91.633484Q68.8 92.133484 67.84688 92.133484Q66.6125 92.133484 65.89375 91.24286Q65.05 90.18036 65.05 87.758484ZM66.12813 87.758484Q66.12813 89.86786 66.62813 90.570984Q67.12813 91.27411 67.84688 91.27411Q68.58125 91.27411 69.06563 90.570984Q69.56563 89.86786 69.56563 87.758484Q69.56563 85.633484 69.06563 84.945984Q68.58125 84.24286 67.83125 84.24286Q67.1125 84.24286 66.675 84.852234Q66.12813 85.633484 66.12813 87.758484Z" fill-rule="nonzero"/><path fill="#000000" d="M58.1125 48.447918L58.1125 47.432293L63.675 47.432293L63.675 48.260418Q62.8625 49.135418 62.05 50.588543Q61.253124 52.026043 60.815624 53.557293Q60.4875 54.635418 60.409374 55.916668L59.315624 55.916668Q59.33125 54.901043 59.70625 53.463543Q60.096874 52.026043 60.8 50.697918Q61.51875 49.369793 62.33125 48.447918L58.1125 48.447918ZM65.05 51.682293Q65.05 50.151043 65.3625 49.229168Q65.675 48.291668 66.28438 47.791668Q66.90938 47.291668 67.84688 47.291668Q68.53438 47.291668 69.05 47.572918Q69.58125 47.854168 69.925 48.385418Q70.26875 48.901043 70.45625 49.651043Q70.64375 50.401043 70.64375 51.682293Q70.64375 53.197918 70.33125 54.119793Q70.03438 55.041668 69.40938 55.557293Q68.8 56.057293 67.84688 56.057293Q66.6125 56.057293 65.89375 55.166668Q65.05 54.104168 65.05 51.682293ZM66.12813 51.682293Q66.12813 53.791668 66.62813 54.494793Q67.12813 55.197918 67.84688 55.197918Q68.58125 55.197918 69.06563 54.494793Q69.56563 53.791668 69.56563 51.682293Q69.56563 49.557293 69.06563 48.869793Q68.58125 48.166668 67.83125 48.166668Q67.1125 48.166668 66.675 48.776043Q66.12813 49.557293 66.12813 51.682293Z" fill-rule="nonzero"/><path fill="#000000" d="M99.551674 321.45L99.551674 312.85626L103.364174 312.85626Q104.520424 312.85626 105.114174 313.09064Q105.707924 313.325 106.0673 313.91876Q106.426674 314.4969 106.426674 315.2Q106.426674 316.1219 105.832924 316.7469Q105.239174 317.3719 104.0048 317.54376Q104.457924 317.7625 104.6923 317.96564Q105.1923 318.41876 105.6298 319.10626L107.1298 321.45L105.6923 321.45L104.5673 319.66876Q104.0673 318.8875 103.739174 318.48126Q103.426674 318.075 103.16105 317.91876Q102.91105 317.7469 102.645424 317.66876Q102.457924 317.6375 102.020424 317.6375L100.6923 317.6375L100.6923 321.45L99.551674 321.45ZM100.6923 316.65314L103.145424 316.65314Q103.91105 316.65314 104.34855 316.4969Q104.801674 316.325 105.020424 315.98126Q105.2548 315.6219 105.2548 315.2Q105.2548 314.59064 104.801674 314.2Q104.364174 313.8094 103.41105 313.8094L100.6923 313.8094L100.6923 316.65314ZM112.66105 319.45L113.7548 319.575Q113.5048 320.52814 112.801674 321.0594Q112.09855 321.59064 111.020424 321.59064Q109.66105 321.59064 108.84855 320.7469Q108.051674 319.90314 108.051674 318.3875Q108.051674 316.825 108.864174 315.96564Q109.676674 315.09064 110.957924 315.09064Q112.207924 315.09064 112.989174 315.9344Q113.78605 316.77814 113.78605 318.325Q113.78605 318.41876 113.78605 318.60626L109.145424 318.60626Q109.207924 319.6375 109.72355 320.1844Q110.239174 320.71564 111.020424 320.71564Q111.59855 320.71564 112.0048 320.41876Q112.426674 320.10626 112.66105 319.45ZM109.207924 317.7469L112.676674 317.7469Q112.614174 316.95 112.28605 316.5594Q111.770424 315.95 110.97355 315.95Q110.239174 315.95 109.739174 316.4344Q109.2548 316.91876 109.207924 317.7469ZM115.207924 321.96564L116.239174 322.1219Q116.301674 322.59064 116.59855 322.8094Q116.989174 323.10626 117.66105 323.10626Q118.395424 323.10626 118.78605 322.8094Q119.1923 322.5125 119.332924 321.9969Q119.426674 321.66876 119.41105 320.6375Q118.72355 321.45 117.6923 321.45Q116.41105 321.45 115.707924 320.52814Q115.0048 319.59064 115.0048 318.3094Q115.0048 317.41876 115.3173 316.66876Q115.645424 315.90314 116.2548 315.4969Q116.864174 315.09064 117.6923 315.09064Q118.801674 315.09064 119.520424 315.98126L119.520424 315.23126L120.489174 315.23126L120.489174 320.60626Q120.489174 322.0594 120.1923 322.66876Q119.895424 323.27814 119.2548 323.6219Q118.614174 323.98126 117.676674 323.98126Q116.5673 323.98126 115.8798 323.48126Q115.1923 322.98126 115.207924 321.96564ZM116.082924 318.23126Q116.082924 319.45 116.5673 320.0125Q117.051674 320.575 117.78605 320.575Q118.520424 320.575 119.0048 320.0125Q119.5048 319.45 119.5048 318.2625Q119.5048 317.1219 118.989174 316.54376Q118.489174 315.96564 117.770424 315.96564Q117.0673 315.96564 116.5673 316.54376Q116.082924 317.10626 116.082924 318.23126ZM126.66105 319.45L127.7548 319.575Q127.5048 320.52814 126.801674 321.0594Q126.09855 321.59064 125.020424 321.59064Q123.66105 321.59064 122.84855 320.7469Q122.051674 319.90314 122.051674 318.3875Q122.051674 316.825 122.864174 315.96564Q123.676674 315.09064 124.957924 315.09064Q126.207924 315.09064 126.989174 315.9344Q127.78605 316.77814 127.78605 318.325Q127.78605 318.41876 127.78605 318.60626L123.145424 318.60626Q123.207924 319.6375 123.72355 320.1844Q124.239174 320.71564 125.020424 320.71564Q125.59855 320.71564 126.0048 320.41876Q126.426674 320.10626 126.66105 319.45ZM123.207924 317.7469L126.676674 317.7469Q126.614174 316.95 126.28605 316.5594Q125.770424 315.95 124.97355 315.95Q124.239174 315.95 123.739174 316.4344Q123.2548 316.91876 123.207924 317.7469ZM128.70792 321.45L130.97354 318.21564L128.87979 315.23126L130.19229 315.23126L131.14542 316.6844Q131.41104 317.10626 131.58292 317.3875Q131.83292 316.9969 132.05167 316.7L133.09854 315.23126L134.36417 315.23126L132.20792 318.15314L134.52042 321.45L133.23917 321.45L131.95792 319.5125L131.61417 318.9969L129.97354 321.45L128.70792 321.45ZM138.53604 321.45L138.53604 312.85626L141.50479 312.85626Q142.50479 312.85626 143.03604 312.98126Q143.77042 313.15314 144.28604 313.59064Q144.97354 314.16876 145.30167 315.075Q145.64542 315.96564 145.64542 317.10626Q145.64542 318.09064 145.41104 318.84064Q145.19229 319.59064 144.83292 320.09064Q144.47354 320.59064 144.03604 320.8719Q143.61417 321.15314 143.02042 321.3094Q142.42667 321.45 141.64542 321.45L138.53604 321.45ZM139.67667 320.4344L141.50479 320.4344Q142.36417 320.4344 142.84854 320.27814Q143.33292 320.1219 143.61417 319.825Q144.02042 319.4344 144.23917 318.7469Q144.47354 318.0594 144.47354 317.09064Q144.47354 315.7469 144.02042 315.02814Q143.58292 314.29376 142.95792 314.04376Q142.48917 313.8719 141.48917 313.8719L139.67667 313.8719L139.67667 320.4344ZM147.53604 321.45L147.53604 312.85626L148.69229 312.85626L153.20792 319.60626L153.20792 312.85626L154.30167 312.85626L154.30167 321.45L153.12979 321.45L148.61417 314.7L148.61417 321.45L147.53604 321.45ZM155.59854 321.45L158.89542 312.85626L160.11417 312.85626L163.62979 321.45L162.34854 321.45L161.33292 318.84064L157.75479 318.84064L156.80167 321.45L155.59854 321.45ZM158.08292 317.91876L160.98917 317.91876L160.09854 315.54376Q159.67667 314.46564 159.48917 313.7625Q159.31729 314.59064 159.02042 315.40314L158.08292 317.91876Z" fill-rule="nonzero"/><path fill="#000000" d="M191.54663 317.2625Q191.54663 315.1219 192.68726 313.91876Q193.8435 312.7 195.656 312.7Q196.85913 312.7 197.81226 313.27814Q198.76538 313.84064 199.26538 314.85626Q199.76538 315.8719 199.76538 317.16876Q199.76538 318.46564 199.23413 319.4969Q198.70288 320.52814 197.73413 321.0594Q196.781 321.59064 195.656 321.59064Q194.43726 321.59064 193.48413 321.0125Q192.531 320.41876 192.031 319.41876Q191.54663 318.40314 191.54663 317.2625ZM192.7185 317.27814Q192.7185 318.84064 193.54663 319.73126Q194.39038 320.6219 195.656 320.6219Q196.93726 320.6219 197.76538 319.73126Q198.5935 318.825 198.5935 317.15314Q198.5935 316.10626 198.23413 315.325Q197.89038 314.54376 197.20288 314.1219Q196.51538 313.6844 195.67163 313.6844Q194.4685 313.6844 193.5935 314.5125Q192.7185 315.34064 192.7185 317.27814ZM204.82788 319.16876L205.85913 319.3094Q205.68726 320.3719 204.98413 320.98126Q204.281 321.59064 203.26538 321.59064Q201.98413 321.59064 201.20288 320.7625Q200.43726 319.91876 200.43726 318.35626Q200.43726 317.35626 200.76538 316.60626Q201.10913 315.84064 201.781 315.46564Q202.4685 315.09064 203.281 315.09064Q204.281 315.09064 204.92163 315.60626Q205.57788 316.10626 205.76538 317.0594L204.73413 317.21564Q204.5935 316.59064 204.2185 316.27814Q203.8435 315.95 203.31226 315.95Q202.51538 315.95 202.01538 316.52814Q201.51538 317.09064 201.51538 318.325Q201.51538 319.59064 201.99976 320.15314Q202.48413 320.71564 203.24976 320.71564Q203.87476 320.71564 204.281 320.34064Q204.70288 319.96564 204.82788 319.16876ZM209.06226 320.5125L209.2185 321.4344Q208.76538 321.52814 208.42163 321.52814Q207.8435 321.52814 207.531 321.35626Q207.2185 321.16876 207.07788 320.8719Q206.95288 320.575 206.95288 319.6219L206.95288 316.04376L206.18726 316.04376L206.18726 315.23126L206.95288 315.23126L206.95288 313.6844L207.99976 313.0594L207.99976 315.23126L209.06226 315.23126L209.06226 316.04376L207.99976 316.04376L207.99976 319.6844Q207.99976 320.1375 208.04663 320.2625Q208.10913 320.3875 208.23413 320.46564Q208.35913 320.54376 208.5935 320.54376Q208.781 320.54376 209.06226 320.5125ZM213.82788 320.6844Q213.23413 321.1844 212.68726 321.3875Q212.156 321.59064 211.531 321.59064Q210.49976 321.59064 209.95288 321.09064Q209.406 320.59064 209.406 319.8094Q209.406 319.35626 209.60913 318.98126Q209.81226 318.59064 210.156 318.3719Q210.49976 318.1375 210.92163 318.02814Q211.2185 317.9344 211.85913 317.85626Q213.12476 317.71564 213.73413 317.4969Q213.73413 317.27814 213.73413 317.23126Q213.73413 316.575 213.43726 316.3094Q213.031 315.96564 212.23413 315.96564Q211.49976 315.96564 211.14038 316.23126Q210.781 316.48126 210.60913 317.1375L209.57788 316.9969Q209.7185 316.34064 210.04663 315.9344Q210.37476 315.52814 210.98413 315.3094Q211.5935 315.09064 212.39038 315.09064Q213.18726 315.09064 213.68726 315.27814Q214.18726 315.46564 214.42163 315.7469Q214.656 316.02814 214.74976 316.46564Q214.79663 316.73126 214.79663 317.4344L214.79663 318.84064Q214.79663 320.3094 214.85913 320.7Q214.93726 321.09064 215.14038 321.45L214.031 321.45Q213.87476 321.1219 213.82788 320.6844ZM213.73413 318.325Q213.156 318.5594 212.01538 318.73126Q211.35913 318.825 211.0935 318.95Q210.82788 319.0594 210.67163 319.27814Q210.531 319.4969 210.531 319.77814Q210.531 320.2 210.8435 320.48126Q211.17163 320.7625 211.781 320.7625Q212.39038 320.7625 212.85913 320.4969Q213.3435 320.23126 213.56226 319.7625Q213.73413 319.40314 213.73413 318.71564L213.73413 318.325ZM216.76538 321.45L216.76538 315.23126L217.70288 315.23126L217.70288 316.10626Q218.39038 315.09064 219.68726 315.09064Q220.24976 315.09064 220.7185 315.29376Q221.20288 315.4969 221.43726 315.825Q221.67163 316.15314 221.76538 316.59064Q221.81226 316.8875 221.81226 317.6219L221.81226 321.45L220.76538 321.45L220.76538 317.66876Q220.76538 317.0125 220.64038 316.7Q220.51538 316.3875 220.20288 316.2Q219.89038 315.9969 219.4685 315.9969Q218.79663 315.9969 218.29663 316.4344Q217.81226 316.85626 217.81226 318.04376L217.81226 321.45L216.76538 321.45ZM228.01538 319.45L229.10913 319.575Q228.85913 320.52814 228.156 321.0594Q227.45288 321.59064 226.37476 321.59064Q225.01538 321.59064 224.20288 320.7469Q223.406 319.90314 223.406 318.3875Q223.406 316.825 224.2185 315.96564Q225.031 315.09064 226.31226 315.09064Q227.56226 315.09064 228.3435 315.9344Q229.14038 316.77814 229.14038 318.325Q229.14038 318.41876 229.14038 318.60626L224.49976 318.60626Q224.56226 319.6375 225.07788 320.1844Q225.5935 320.71564 226.37476 320.71564Q226.95288 320.71564 227.35913 320.41876Q227.781 320.10626 228.01538 319.45ZM224.56226 317.7469L228.031 317.7469Q227.9685 316.95 227.64038 316.5594Q227.12476 315.95 226.32788 315.95Q225.5935 315.95 225.0935 316.4344Q224.60913 316.91876 224.56226 317.7469Z" fill-rule="nonzero"/><path fill="#000000" d="M189.406 335.45L189.406 326.85626L193.2185 326.85626Q194.37476 326.85626 194.9685 327.09064Q195.56226 327.325 195.92163 327.91876Q196.281 328.4969 196.281 329.2Q196.281 330.1219 195.68726 330.7469Q195.0935 331.3719 193.85913 331.54376Q194.31226 331.7625 194.54663 331.96564Q195.04663 332.41876 195.48413 333.10626L196.98413 335.45L195.54663 335.45L194.42163 333.66876Q193.92163 332.8875 193.5935 332.48126Q193.281 332.075 193.01538 331.91876Q192.76538 331.7469 192.49976 331.66876Q192.31226 331.6375 191.87476 331.6375L190.54663 331.6375L190.54663 335.45L189.406 335.45ZM190.54663 330.65314L192.99976 330.65314Q193.76538 330.65314 194.20288 330.4969Q194.656 330.325 194.87476 329.98126Q195.10913 329.6219 195.10913 329.2Q195.10913 328.59064 194.656 328.2Q194.2185 327.8094 193.26538 327.8094L190.54663 327.8094L190.54663 330.65314ZM202.51538 333.45L203.60913 333.575Q203.35913 334.52814 202.656 335.0594Q201.95288 335.59064 200.87476 335.59064Q199.51538 335.59064 198.70288 334.7469Q197.906 333.90314 197.906 332.3875Q197.906 330.825 198.7185 329.96564Q199.531 329.09064 200.81226 329.09064Q202.06226 329.09064 202.8435 329.9344Q203.64038 330.77814 203.64038 332.325Q203.64038 332.41876 203.64038 332.60626L198.99976 332.60626Q199.06226 333.6375 199.57788 334.1844Q200.0935 334.71564 200.87476 334.71564Q201.45288 334.71564 201.85913 334.41876Q202.281 334.10626 202.51538 333.45ZM199.06226 331.7469L202.531 331.7469Q202.4685 330.95 202.14038 330.5594Q201.62476 329.95 200.82788 329.95Q200.0935 329.95 199.5935 330.4344Q199.10913 330.91876 199.06226 331.7469ZM205.06226 335.96564L206.0935 336.1219Q206.156 336.59064 206.45288 336.8094Q206.8435 337.10626 207.51538 337.10626Q208.24976 337.10626 208.64038 336.8094Q209.04663 336.5125 209.18726 335.9969Q209.281 335.66876 209.26538 334.6375Q208.57788 335.45 207.54663 335.45Q206.26538 335.45 205.56226 334.52814Q204.85913 333.59064 204.85913 332.3094Q204.85913 331.41876 205.17163 330.66876Q205.49976 329.90314 206.10913 329.4969Q206.7185 329.09064 207.54663 329.09064Q208.656 329.09064 209.37476 329.98126L209.37476 329.23126L210.3435 329.23126L210.3435 334.60626Q210.3435 336.0594 210.04663 336.66876Q209.74976 337.27814 209.10913 337.6219Q208.4685 337.98126 207.531 337.98126Q206.42163 337.98126 205.73413 337.48126Q205.04663 336.98126 205.06226 335.96564ZM205.93726 332.23126Q205.93726 333.45 206.42163 334.0125Q206.906 334.575 207.64038 334.575Q208.37476 334.575 208.85913 334.0125Q209.35913 333.45 209.35913 332.2625Q209.35913 331.1219 208.8435 330.54376Q208.3435 329.96564 207.62476 329.96564Q206.92163 329.96564 206.42163 330.54376Q205.93726 331.10626 205.93726 332.23126ZM212.42163 335.45L212.42163 326.85626L218.62476 326.85626L218.62476 327.8719L213.56226 327.8719L213.56226 330.4969L218.31226 330.4969L218.31226 331.5125L213.56226 331.5125L213.56226 334.4344L218.82788 334.4344L218.82788 335.45L212.42163 335.45ZM219.56226 335.45L221.82788 332.21564L219.73413 329.23126L221.04663 329.23126L221.99976 330.6844Q222.26538 331.10626 222.43726 331.3875Q222.68726 330.9969 222.906 330.7L223.95288 329.23126L225.2185 329.23126L223.06226 332.15314L225.37476 335.45L224.0935 335.45L222.81226 333.5125L222.4685 332.9969L220.82788 335.45L219.56226 335.45ZM226.26538 337.84064L226.26538 329.23126L227.2185 329.23126L227.2185 330.02814Q227.56226 329.5594 227.98413 329.325Q228.42163 329.09064 229.031 329.09064Q229.82788 329.09064 230.43726 329.4969Q231.04663 329.90314 231.3435 330.65314Q231.656 331.40314 231.656 332.29376Q231.656 333.2469 231.31226 334.0125Q230.98413 334.77814 230.32788 335.1844Q229.67163 335.59064 228.95288 335.59064Q228.42163 335.59064 227.99976 335.3719Q227.57788 335.1375 227.31226 334.8094L227.31226 337.84064L226.26538 337.84064ZM227.2185 332.3719Q227.2185 333.575 227.70288 334.15314Q228.18726 334.71564 228.87476 334.71564Q229.57788 334.71564 230.07788 334.1219Q230.57788 333.52814 230.57788 332.27814Q230.57788 331.09064 230.0935 330.5125Q229.60913 329.91876 228.92163 329.91876Q228.24976 329.91876 227.73413 330.54376Q227.2185 331.16876 227.2185 332.3719Z" fill-rule="nonzero"/><path fill="#000000" d="M272.90097 317.2625Q272.90097 315.1219 274.0416 313.91876Q275.19785 312.7 277.01035 312.7Q278.21347 312.7 279.1666 313.27814Q280.11972 313.84064 280.61972 314.85626Q281.11972 315.8719 281.11972 317.16876Q281.11972 318.46564 280.58847 319.4969Q280.05722 320.52814 279.08847 321.0594Q278.13535 321.59064 277.01035 321.59064Q275.7916 321.59064 274.83847 321.0125Q273.88535 320.41876 273.38535 319.41876Q272.90097 318.40314 272.90097 317.2625ZM274.07285 317.27814Q274.07285 318.84064 274.90097 319.73126Q275.74472 320.6219 277.01035 320.6219Q278.2916 320.6219 279.11972 319.73126Q279.94785 318.825 279.94785 317.15314Q279.94785 316.10626 279.58847 315.325Q279.24472 314.54376 278.55722 314.1219Q277.86972 313.6844 277.02597 313.6844Q275.82285 313.6844 274.94785 314.5125Q274.07285 315.34064 274.07285 317.27814ZM282.36972 321.45L282.36972 316.04376L281.43222 316.04376L281.43222 315.23126L282.36972 315.23126L282.36972 314.5594Q282.36972 313.9344 282.4791 313.6375Q282.63535 313.21564 283.01035 312.96564Q283.40097 312.71564 284.08847 312.71564Q284.5416 312.71564 285.07285 312.825L284.9166 313.73126Q284.58847 313.6844 284.2916 313.6844Q283.80722 313.6844 283.6041 313.8875Q283.4166 314.09064 283.4166 314.65314L283.4166 315.23126L284.63535 315.23126L284.63535 316.04376L283.4166 316.04376L283.4166 321.45L282.36972 321.45ZM285.36972 321.45L285.36972 316.04376L284.43222 316.04376L284.43222 315.23126L285.36972 315.23126L285.36972 314.5594Q285.36972 313.9344 285.4791 313.6375Q285.63535 313.21564 286.01035 312.96564Q286.40097 312.71564 287.08847 312.71564Q287.5416 312.71564 288.07285 312.825L287.9166 313.73126Q287.58847 313.6844 287.2916 313.6844Q286.80722 313.6844 286.6041 313.8875Q286.4166 314.09064 286.4166 314.65314L286.4166 315.23126L287.63535 315.23126L287.63535 316.04376L286.4166 316.04376L286.4166 321.45L285.36972 321.45ZM288.08847 321.45L288.08847 312.85626L289.15097 312.85626L289.15097 321.45L288.08847 321.45ZM291.11972 314.075L291.11972 312.85626L292.18222 312.85626L292.18222 314.075L291.11972 314.075ZM291.11972 321.45L291.11972 315.23126L292.18222 315.23126L292.18222 321.45L291.11972 321.45ZM294.11972 321.45L294.11972 315.23126L295.05722 315.23126L295.05722 316.10626Q295.74472 315.09064 297.0416 315.09064Q297.6041 315.09064 298.07285 315.29376Q298.55722 315.4969 298.7916 315.825Q299.02597 316.15314 299.11972 316.59064Q299.1666 316.8875 299.1666 317.6219L299.1666 321.45L298.11972 321.45L298.11972 317.66876Q298.11972 317.0125 297.99472 316.7Q297.86972 316.3875 297.55722 316.2Q297.24472 315.9969 296.82285 315.9969Q296.15097 315.9969 295.65097 316.4344Q295.1666 316.85626 295.1666 318.04376L295.1666 321.45L294.11972 321.45ZM305.36972 319.45L306.46347 319.575Q306.21347 320.52814 305.51035 321.0594Q304.80722 321.59064 303.7291 321.59064Q302.36972 321.59064 301.55722 320.7469Q300.76035 319.90314 300.76035 318.3875Q300.76035 316.825 301.57285 315.96564Q302.38535 315.09064 303.6666 315.09064Q304.9166 315.09064 305.69785 315.9344Q306.49472 316.77814 306.49472 318.325Q306.49472 318.41876 306.49472 318.60626L301.8541 318.60626Q301.9166 319.6375 302.43222 320.1844Q302.94785 320.71564 303.7291 320.71564Q304.30722 320.71564 304.71347 320.41876Q305.13535 320.10626 305.36972 319.45ZM301.9166 317.7469L305.38535 317.7469Q305.32285 316.95 304.99472 316.5594Q304.4791 315.95 303.68222 315.95Q302.94785 315.95 302.44785 316.4344Q301.96347 316.91876 301.9166 317.7469Z" fill-rule="nonzero"/><path fill="#000000" d="M260.80722 335.45L264.1041 326.85626L265.32285 326.85626L268.83847 335.45L267.55722 335.45L266.5416 332.84064L262.96347 332.84064L262.01035 335.45L260.80722 335.45ZM263.2916 331.91876L266.19785 331.91876L265.30722 329.54376Q264.88535 328.46564 264.69785 327.7625Q264.52597 328.59064 264.2291 329.40314L263.2916 331.91876ZM269.19785 333.59064L270.2291 333.4344Q270.32285 334.0594 270.71347 334.3875Q271.11972 334.71564 271.8541 334.71564Q272.57285 334.71564 272.9166 334.4344Q273.27597 334.1375 273.27597 333.73126Q273.27597 333.3719 272.96347 333.16876Q272.74472 333.02814 271.88535 332.8094Q270.7291 332.5125 270.27597 332.3094Q269.83847 332.09064 269.6041 331.71564Q269.36972 331.34064 269.36972 330.8719Q269.36972 330.46564 269.55722 330.10626Q269.74472 329.7469 270.07285 329.5125Q270.32285 329.34064 270.74472 329.21564Q271.1666 329.09064 271.6666 329.09064Q272.38535 329.09064 272.93222 329.3094Q273.49472 329.5125 273.76035 329.8719Q274.02597 330.23126 274.11972 330.825L273.08847 330.96564Q273.02597 330.4969 272.68222 330.23126Q272.3541 329.95 271.7291 329.95Q271.01035 329.95 270.69785 330.2Q270.38535 330.4344 270.38535 330.7625Q270.38535 330.96564 270.51035 331.1219Q270.65097 331.29376 270.9166 331.40314Q271.07285 331.46564 271.8541 331.66876Q272.9791 331.98126 273.4166 332.16876Q273.8541 332.35626 274.1041 332.71564Q274.3541 333.075 274.3541 333.6219Q274.3541 334.15314 274.0416 334.6219Q273.74472 335.075 273.1666 335.34064Q272.58847 335.59064 271.8541 335.59064Q270.63535 335.59064 269.99472 335.09064Q269.36972 334.575 269.19785 333.59064ZM275.19785 333.59064L276.2291 333.4344Q276.32285 334.0594 276.71347 334.3875Q277.11972 334.71564 277.8541 334.71564Q278.57285 334.71564 278.9166 334.4344Q279.27597 334.1375 279.27597 333.73126Q279.27597 333.3719 278.96347 333.16876Q278.74472 333.02814 277.88535 332.8094Q276.7291 332.5125 276.27597 332.3094Q275.83847 332.09064 275.6041 331.71564Q275.36972 331.34064 275.36972 330.8719Q275.36972 330.46564 275.55722 330.10626Q275.74472 329.7469 276.07285 329.5125Q276.32285 329.34064 276.74472 329.21564Q277.1666 329.09064 277.6666 329.09064Q278.38535 329.09064 278.93222 329.3094Q279.49472 329.5125 279.76035 329.8719Q280.02597 330.23126 280.11972 330.825L279.08847 330.96564Q279.02597 330.4969 278.68222 330.23126Q278.3541 329.95 277.7291 329.95Q277.01035 329.95 276.69785 330.2Q276.38535 330.4344 276.38535 330.7625Q276.38535 330.96564 276.51035 331.1219Q276.65097 331.29376 276.9166 331.40314Q277.07285 331.46564 277.8541 331.66876Q278.9791 331.98126 279.4166 332.16876Q279.8541 332.35626 280.1041 332.71564Q280.3541 333.075 280.3541 333.6219Q280.3541 334.15314 280.0416 334.6219Q279.74472 335.075 279.1666 335.34064Q278.58847 335.59064 277.8541 335.59064Q276.63535 335.59064 275.99472 335.09064Q275.36972 334.575 275.19785 333.59064ZM285.86972 333.45L286.96347 333.575Q286.71347 334.52814 286.01035 335.0594Q285.30722 335.59064 284.2291 335.59064Q282.86972 335.59064 282.05722 334.7469Q281.26035 333.90314 281.26035 332.3875Q281.26035 330.825 282.07285 329.96564Q282.88535 329.09064 284.1666 329.09064Q285.4166 329.09064 286.19785 329.9344Q286.99472 330.77814 286.99472 332.325Q286.99472 332.41876 286.99472 332.60626L282.3541 332.60626Q282.4166 333.6375 282.93222 334.1844Q283.44785 334.71564 284.2291 334.71564Q284.80722 334.71564 285.21347 334.41876Q285.63535 334.10626 285.86972 333.45ZM282.4166 331.7469L285.88535 331.7469Q285.82285 330.95 285.49472 330.5594Q284.9791 329.95 284.18222 329.95Q283.44785 329.95 282.94785 330.4344Q282.46347 330.91876 282.4166 331.7469ZM288.61972 335.45L288.61972 329.23126L289.55722 329.23126L289.55722 330.10626Q289.8541 329.6375 290.33847 329.3719Q290.82285 329.09064 291.44785 329.09064Q292.13535 329.09064 292.57285 329.3719Q293.02597 329.65314 293.19785 330.16876Q293.94785 329.09064 295.11972 329.09064Q296.05722 329.09064 296.5416 329.60626Q297.0416 330.10626 297.0416 331.1844L297.0416 335.45L295.99472 335.45L295.99472 331.52814Q295.99472 330.90314 295.88535 330.6219Q295.7916 330.34064 295.52597 330.16876Q295.26035 329.9969 294.88535 329.9969Q294.2291 329.9969 293.7916 330.4344Q293.36972 330.8719 293.36972 331.84064L293.36972 335.45L292.30722 335.45L292.30722 331.40314Q292.30722 330.7 292.0416 330.35626Q291.7916 329.9969 291.21347 329.9969Q290.76035 329.9969 290.38535 330.23126Q290.01035 330.46564 289.83847 330.91876Q289.6666 331.3719 289.6666 332.21564L289.6666 335.45L288.61972 335.45ZM299.58847 335.45L298.6041 335.45L298.6041 326.85626L299.6666 326.85626L299.6666 329.91876Q300.33847 329.09064 301.36972 329.09064Q301.94785 329.09064 302.44785 329.325Q302.96347 329.54376 303.2916 329.96564Q303.63535 330.3875 303.82285 330.98126Q304.01035 331.575 304.01035 332.2469Q304.01035 333.84064 303.21347 334.71564Q302.4166 335.59064 301.32285 335.59064Q300.21347 335.59064 299.58847 334.66876L299.58847 335.45ZM299.57285 332.29376Q299.57285 333.40314 299.88535 333.90314Q300.38535 334.71564 301.2291 334.71564Q301.9166 334.71564 302.4166 334.1219Q302.93222 333.52814 302.93222 332.325Q302.93222 331.10626 302.44785 330.52814Q301.96347 329.95 301.27597 329.95Q300.58847 329.95 300.07285 330.5594Q299.57285 331.15314 299.57285 332.29376ZM305.58847 335.45L305.58847 326.85626L306.65097 326.85626L306.65097 335.45L305.58847 335.45ZM312.86972 333.45L313.96347 333.575Q313.71347 334.52814 313.01035 335.0594Q312.30722 335.59064 311.2291 335.59064Q309.86972 335.59064 309.05722 334.7469Q308.26035 333.90314 308.26035 332.3875Q308.26035 330.825 309.07285 329.96564Q309.88535 329.09064 311.1666 329.09064Q312.4166 329.09064 313.19785 329.9344Q313.99472 330.77814 313.99472 332.325Q313.99472 332.41876 313.99472 332.60626L309.3541 332.60626Q309.4166 333.6375 309.93222 334.1844Q310.44785 334.71564 311.2291 334.71564Q311.80722 334.71564 312.21347 334.41876Q312.63535 334.10626 312.86972 333.45ZM309.4166 331.7469L312.88535 331.7469Q312.82285 330.95 312.49472 330.5594Q311.9791 329.95 311.18222 329.95Q310.44785 329.95 309.94785 330.4344Q309.46347 330.91876 309.4166 331.7469ZM315.6041 335.45L315.6041 329.23126L316.55722 329.23126L316.55722 330.16876Q316.9166 329.5125 317.21347 329.3094Q317.52597 329.09064 317.90097 329.09064Q318.43222 329.09064 318.9791 329.41876L318.61972 330.40314Q318.2291 330.16876 317.8541 330.16876Q317.49472 330.16876 317.21347 330.3875Q316.94785 330.59064 316.83847 330.96564Q316.65097 331.52814 316.65097 332.1844L316.65097 335.45L315.6041 335.45Z" fill-rule="nonzero"/><path fill="#000000" d="M350.23965 312.85626L351.38028 312.85626L351.38028 317.825Q351.38028 319.1219 351.0834 319.8875Q350.78653 320.6375 350.0209 321.1219Q349.25528 321.59064 348.0209 321.59064Q346.81778 321.59064 346.03653 321.1844Q345.2709 320.7625 344.94278 319.98126Q344.61465 319.1844 344.61465 317.825L344.61465 312.85626L345.75528 312.85626L345.75528 317.8094Q345.75528 318.9344 345.9584 319.46564Q346.17715 319.9969 346.67715 320.29376Q347.19278 320.575 347.92715 320.575Q349.17715 320.575 349.7084 320.0125Q350.23965 319.4344 350.23965 317.8094L350.23965 312.85626ZM353.47403 321.45L353.47403 315.23126L354.41153 315.23126L354.41153 316.10626Q355.09903 315.09064 356.3959 315.09064Q356.9584 315.09064 357.42715 315.29376Q357.91153 315.4969 358.1459 315.825Q358.38028 316.15314 358.47403 316.59064Q358.5209 316.8875 358.5209 317.6219L358.5209 321.45L357.47403 321.45L357.47403 317.66876Q357.47403 317.0125 357.34903 316.7Q357.22403 316.3875 356.91153 316.2Q356.59903 315.9969 356.17715 315.9969Q355.50528 315.9969 355.00528 316.4344Q354.5209 316.85626 354.5209 318.04376L354.5209 321.45L353.47403 321.45ZM360.47403 314.075L360.47403 312.85626L361.53653 312.85626L361.53653 314.075L360.47403 314.075ZM360.47403 321.45L360.47403 315.23126L361.53653 315.23126L361.53653 321.45L360.47403 321.45ZM363.59903 321.45L363.59903 312.85626L366.84903 312.85626Q367.69278 312.85626 368.1459 312.9344Q368.78653 313.04376 369.2084 313.34064Q369.6459 313.6375 369.8959 314.16876Q370.16153 314.7 370.16153 315.34064Q370.16153 316.4344 369.4584 317.2Q368.7709 317.95 366.94278 317.95L364.73965 317.95L364.73965 321.45L363.59903 321.45ZM364.73965 316.95L366.9584 316.95Q368.06778 316.95 368.5209 316.54376Q368.98965 316.1219 368.98965 315.3719Q368.98965 314.84064 368.7084 314.46564Q368.44278 314.075 368.00528 313.95Q367.7084 313.8719 366.94278 313.8719L364.73965 313.8719L364.73965 316.95ZM371.0834 318.34064Q371.0834 316.60626 372.03653 315.77814Q372.8334 315.09064 373.98965 315.09064Q375.2709 315.09064 376.0834 315.9344Q376.91153 316.7625 376.91153 318.2469Q376.91153 319.45 376.55215 320.1375Q376.19278 320.825 375.48965 321.21564Q374.80215 321.59064 373.98965 321.59064Q372.69278 321.59064 371.88028 320.7625Q371.0834 319.91876 371.0834 318.34064ZM372.16153 318.34064Q372.16153 319.52814 372.67715 320.1219Q373.2084 320.71564 373.98965 320.71564Q374.78653 320.71564 375.30215 320.1219Q375.81778 319.52814 375.81778 318.3094Q375.81778 317.15314 375.28653 316.5594Q374.7709 315.96564 373.98965 315.96564Q373.2084 315.96564 372.67715 316.5594Q372.16153 317.1375 372.16153 318.34064ZM378.47403 321.45L378.47403 312.85626L379.53653 312.85626L379.53653 317.7625L382.0209 315.23126L383.3959 315.23126L381.00528 317.52814L383.63028 321.45L382.3334 321.45L380.2709 318.2625L379.53653 318.98126L379.53653 321.45L378.47403 321.45ZM388.72403 319.45L389.81778 319.575Q389.56778 320.52814 388.86465 321.0594Q388.16153 321.59064 387.0834 321.59064Q385.72403 321.59064 384.91153 320.7469Q384.11465 319.90314 384.11465 318.3875Q384.11465 316.825 384.92715 315.96564Q385.73965 315.09064 387.0209 315.09064Q388.2709 315.09064 389.05215 315.9344Q389.84903 316.77814 389.84903 318.325Q389.84903 318.41876 389.84903 318.60626L385.2084 318.60626Q385.2709 319.6375 385.78653 320.1844Q386.30215 320.71564 387.0834 320.71564Q387.66153 320.71564 388.06778 320.41876Q388.48965 320.10626 388.72403 319.45ZM385.2709 317.7469L388.73965 317.7469Q388.67715 316.95 388.34903 316.5594Q387.8334 315.95 387.03653 315.95Q386.30215 315.95 385.80215 316.4344Q385.31778 316.91876 385.2709 317.7469ZM391.4584 321.45L391.4584 315.23126L392.41153 315.23126L392.41153 316.16876Q392.7709 315.5125 393.06778 315.3094Q393.38028 315.09064 393.75528 315.09064Q394.28653 315.09064 394.8334 315.41876L394.47403 316.40314Q394.0834 316.16876 393.7084 316.16876Q393.34903 316.16876 393.06778 316.3875Q392.80215 316.59064 392.69278 316.96564Q392.50528 317.52814 392.50528 318.1844L392.50528 321.45L391.4584 321.45Z" fill-rule="nonzero"/><path fill="#000000" d="M434.51587 321.45L434.51587 312.85626L440.31274 312.85626L440.31274 313.8719L435.6565 313.8719L435.6565 316.52814L439.68774 316.52814L439.68774 317.54376L435.6565 317.54376L435.6565 321.45L434.51587 321.45ZM441.29712 321.45L441.29712 312.85626L442.35962 312.85626L442.35962 321.45L441.29712 321.45ZM444.32837 314.075L444.32837 312.85626L445.39087 312.85626L445.39087 314.075L444.32837 314.075ZM444.32837 321.45L444.32837 315.23126L445.39087 315.23126L445.39087 321.45L444.32837 321.45ZM447.12524 321.96564L448.1565 322.1219Q448.219 322.59064 448.51587 322.8094Q448.9065 323.10626 449.57837 323.10626Q450.31274 323.10626 450.70337 322.8094Q451.10962 322.5125 451.25024 321.9969Q451.344 321.66876 451.32837 320.6375Q450.64087 321.45 449.60962 321.45Q448.32837 321.45 447.62524 320.52814Q446.92212 319.59064 446.92212 318.3094Q446.92212 317.41876 447.23462 316.66876Q447.56274 315.90314 448.17212 315.4969Q448.7815 315.09064 449.60962 315.09064Q450.719 315.09064 451.43774 315.98126L451.43774 315.23126L452.4065 315.23126L452.4065 320.60626Q452.4065 322.0594 452.10962 322.66876Q451.81274 323.27814 451.17212 323.6219Q450.5315 323.98126 449.594 323.98126Q448.48462 323.98126 447.79712 323.48126Q447.10962 322.98126 447.12524 321.96564ZM448.00024 318.23126Q448.00024 319.45 448.48462 320.0125Q448.969 320.575 449.70337 320.575Q450.43774 320.575 450.92212 320.0125Q451.42212 319.45 451.42212 318.2625Q451.42212 317.1219 450.9065 316.54376Q450.4065 315.96564 449.68774 315.96564Q448.98462 315.96564 448.48462 316.54376Q448.00024 317.10626 448.00024 318.23126ZM454.32837 321.45L454.32837 312.85626L455.37524 312.85626L455.37524 315.9344Q456.10962 315.09064 457.23462 315.09064Q457.93774 315.09064 458.43774 315.3719Q458.95337 315.6375 459.17212 316.1219Q459.39087 316.59064 459.39087 317.5125L459.39087 321.45L458.344 321.45L458.344 317.5125Q458.344 316.71564 458.00024 316.35626Q457.6565 315.9969 457.0315 315.9969Q456.56274 315.9969 456.14087 316.2469Q455.73462 316.48126 455.54712 316.90314Q455.37524 317.3094 455.37524 318.04376L455.37524 321.45L454.32837 321.45ZM463.62524 320.5125L463.7815 321.4344Q463.32837 321.52814 462.98462 321.52814Q462.4065 321.52814 462.094 321.35626Q461.7815 321.16876 461.64087 320.8719Q461.51587 320.575 461.51587 319.6219L461.51587 316.04376L460.75024 316.04376L460.75024 315.23126L461.51587 315.23126L461.51587 313.6844L462.56274 313.0594L462.56274 315.23126L463.62524 315.23126L463.62524 316.04376L462.56274 316.04376L462.56274 319.6844Q462.56274 320.1375 462.60962 320.2625Q462.67212 320.3875 462.79712 320.46564Q462.92212 320.54376 463.1565 320.54376Q463.344 320.54376 463.62524 320.5125Z" fill-rule="nonzero"/><path fill="#000000" d="M427.95337 335.45L427.95337 326.85626L431.20337 326.85626Q432.04712 326.85626 432.50024 326.9344Q433.14087 327.04376 433.56274 327.34064Q434.00024 327.6375 434.25024 328.16876Q434.51587 328.7 434.51587 329.34064Q434.51587 330.4344 433.81274 331.2Q433.12524 331.95 431.29712 331.95L429.094 331.95L429.094 335.45L427.95337 335.45ZM429.094 330.95L431.31274 330.95Q432.42212 330.95 432.87524 330.54376Q433.344 330.1219 433.344 329.3719Q433.344 328.84064 433.06274 328.46564Q432.79712 328.075 432.35962 327.95Q432.06274 327.8719 431.29712 327.8719L429.094 327.8719L429.094 330.95ZM435.79712 335.45L435.79712 326.85626L436.85962 326.85626L436.85962 335.45L435.79712 335.45ZM442.89087 334.6844Q442.29712 335.1844 441.75024 335.3875Q441.219 335.59064 440.594 335.59064Q439.56274 335.59064 439.01587 335.09064Q438.469 334.59064 438.469 333.8094Q438.469 333.35626 438.67212 332.98126Q438.87524 332.59064 439.219 332.3719Q439.56274 332.1375 439.98462 332.02814Q440.2815 331.9344 440.92212 331.85626Q442.18774 331.71564 442.79712 331.4969Q442.79712 331.27814 442.79712 331.23126Q442.79712 330.575 442.50024 330.3094Q442.094 329.96564 441.29712 329.96564Q440.56274 329.96564 440.20337 330.23126Q439.844 330.48126 439.67212 331.1375L438.64087 330.9969Q438.7815 330.34064 439.10962 329.9344Q439.43774 329.52814 440.04712 329.3094Q440.6565 329.09064 441.45337 329.09064Q442.25024 329.09064 442.75024 329.27814Q443.25024 329.46564 443.48462 329.7469Q443.719 330.02814 443.81274 330.46564Q443.85962 330.73126 443.85962 331.4344L443.85962 332.84064Q443.85962 334.3094 443.92212 334.7Q444.00024 335.09064 444.20337 335.45L443.094 335.45Q442.93774 335.1219 442.89087 334.6844ZM442.79712 332.325Q442.219 332.5594 441.07837 332.73126Q440.42212 332.825 440.1565 332.95Q439.89087 333.0594 439.73462 333.27814Q439.594 333.4969 439.594 333.77814Q439.594 334.2 439.9065 334.48126Q440.23462 334.7625 440.844 334.7625Q441.45337 334.7625 441.92212 334.4969Q442.4065 334.23126 442.62524 333.7625Q442.79712 333.40314 442.79712 332.71564L442.79712 332.325ZM445.82837 335.45L445.82837 329.23126L446.76587 329.23126L446.76587 330.10626Q447.45337 329.09064 448.75024 329.09064Q449.31274 329.09064 449.7815 329.29376Q450.26587 329.4969 450.50024 329.825Q450.73462 330.15314 450.82837 330.59064Q450.87524 330.8875 450.87524 331.6219L450.87524 335.45L449.82837 335.45L449.82837 331.66876Q449.82837 331.0125 449.70337 330.7Q449.57837 330.3875 449.26587 330.2Q448.95337 329.9969 448.5315 329.9969Q447.85962 329.9969 447.35962 330.4344Q446.87524 330.85626 446.87524 332.04376L446.87524 335.45L445.82837 335.45ZM452.82837 335.45L452.82837 329.23126L453.76587 329.23126L453.76587 330.10626Q454.45337 329.09064 455.75024 329.09064Q456.31274 329.09064 456.7815 329.29376Q457.26587 329.4969 457.50024 329.825Q457.73462 330.15314 457.82837 330.59064Q457.87524 330.8875 457.87524 331.6219L457.87524 335.45L456.82837 335.45L456.82837 331.66876Q456.82837 331.0125 456.70337 330.7Q456.57837 330.3875 456.26587 330.2Q455.95337 329.9969 455.5315 329.9969Q454.85962 329.9969 454.35962 330.4344Q453.87524 330.85626 453.87524 332.04376L453.87524 335.45L452.82837 335.45ZM464.07837 333.45L465.17212 333.575Q464.92212 334.52814 464.219 335.0594Q463.51587 335.59064 462.43774 335.59064Q461.07837 335.59064 460.26587 334.7469Q459.469 333.90314 459.469 332.3875Q459.469 330.825 460.2815 329.96564Q461.094 329.09064 462.37524 329.09064Q463.62524 329.09064 464.4065 329.9344Q465.20337 330.77814 465.20337 332.325Q465.20337 332.41876 465.20337 332.60626L460.56274 332.60626Q460.62524 333.6375 461.14087 334.1844Q461.6565 334.71564 462.43774 334.71564Q463.01587 334.71564 463.42212 334.41876Q463.844 334.10626 464.07837 333.45ZM460.62524 331.7469L464.094 331.7469Q464.0315 330.95 463.70337 330.5594Q463.18774 329.95 462.39087 329.95Q461.6565 329.95 461.1565 330.4344Q460.67212 330.91876 460.62524 331.7469ZM466.81274 335.45L466.81274 329.23126L467.76587 329.23126L467.76587 330.16876Q468.12524 329.5125 468.42212 329.3094Q468.73462 329.09064 469.10962 329.09064Q469.64087 329.09064 470.18774 329.41876L469.82837 330.40314Q469.43774 330.16876 469.06274 330.16876Q468.70337 330.16876 468.42212 330.3875Q468.1565 330.59064 468.04712 330.96564Q467.85962 331.52814 467.85962 332.1844L467.85962 335.45L466.81274 335.45Z" fill-rule="nonzero"/><path fill="#000000" d="M513.8702 321.45L513.8702 312.85626L519.66705 312.85626L519.66705 313.8719L515.0108 313.8719L515.0108 316.52814L519.04205 316.52814L519.04205 317.54376L515.0108 317.54376L515.0108 321.45L513.8702 321.45ZM520.6514 321.45L520.6514 312.85626L521.7139 312.85626L521.7139 321.45L520.6514 321.45ZM523.6827 314.075L523.6827 312.85626L524.7452 312.85626L524.7452 314.075L523.6827 314.075ZM523.6827 321.45L523.6827 315.23126L524.7452 315.23126L524.7452 321.45L523.6827 321.45ZM526.47955 321.96564L527.5108 322.1219Q527.5733 322.59064 527.8702 322.8094Q528.2608 323.10626 528.9327 323.10626Q529.66705 323.10626 530.0577 322.8094Q530.4639 322.5125 530.60455 321.9969Q530.6983 321.66876 530.6827 320.6375Q529.9952 321.45 528.9639 321.45Q527.6827 321.45 526.97955 320.52814Q526.2764 319.59064 526.2764 318.3094Q526.2764 317.41876 526.5889 316.66876Q526.91705 315.90314 527.5264 315.4969Q528.1358 315.09064 528.9639 315.09064Q530.0733 315.09064 530.79205 315.98126L530.79205 315.23126L531.7608 315.23126L531.7608 320.60626Q531.7608 322.0594 531.4639 322.66876Q531.16705 323.27814 530.5264 323.6219Q529.8858 323.98126 528.9483 323.98126Q527.8389 323.98126 527.1514 323.48126Q526.4639 322.98126 526.47955 321.96564ZM527.35455 318.23126Q527.35455 319.45 527.8389 320.0125Q528.3233 320.575 529.0577 320.575Q529.79205 320.575 530.2764 320.0125Q530.7764 319.45 530.7764 318.2625Q530.7764 317.1219 530.2608 316.54376Q529.7608 315.96564 529.04205 315.96564Q528.3389 315.96564 527.8389 316.54376Q527.35455 317.10626 527.35455 318.23126ZM533.6827 321.45L533.6827 312.85626L534.72955 312.85626L534.72955 315.9344Q535.4639 315.09064 536.5889 315.09064Q537.29205 315.09064 537.79205 315.3719Q538.3077 315.6375 538.5264 316.1219Q538.7452 316.59064 538.7452 317.5125L538.7452 321.45L537.6983 321.45L537.6983 317.5125Q537.6983 316.71564 537.35455 316.35626Q537.0108 315.9969 536.3858 315.9969Q535.91705 315.9969 535.4952 316.2469Q535.0889 316.48126 534.9014 316.90314Q534.72955 317.3094 534.72955 318.04376L534.72955 321.45L533.6827 321.45ZM542.97955 320.5125L543.1358 321.4344Q542.6827 321.52814 542.3389 321.52814Q541.7608 321.52814 541.4483 321.35626Q541.1358 321.16876 540.9952 320.8719Q540.8702 320.575 540.8702 319.6219L540.8702 316.04376L540.10455 316.04376L540.10455 315.23126L540.8702 315.23126L540.8702 313.6844L541.91705 313.0594L541.91705 315.23126L542.97955 315.23126L542.97955 316.04376L541.91705 316.04376L541.91705 319.6844Q541.91705 320.1375 541.9639 320.2625Q542.0264 320.3875 542.1514 320.46564Q542.2764 320.54376 542.5108 320.54376Q542.6983 320.54376 542.97955 320.5125Z" fill-rule="nonzero"/><path fill="#000000" d="M507.3077 335.45L507.3077 326.85626L510.5577 326.85626Q511.40146 326.85626 511.85458 326.9344Q512.49524 327.04376 512.9171 327.34064Q513.3546 327.6375 513.6046 328.16876Q513.87024 328.7 513.87024 329.34064Q513.87024 330.4344 513.1671 331.2Q512.4796 331.95 510.65146 331.95L508.44833 331.95L508.44833 335.45L507.3077 335.45ZM508.44833 330.95L510.66708 330.95Q511.77646 330.95 512.2296 330.54376Q512.69836 330.1219 512.69836 329.3719Q512.69836 328.84064 512.4171 328.46564Q512.1515 328.075 511.71396 327.95Q511.41708 327.8719 510.65146 327.8719L508.44833 327.8719L508.44833 330.95ZM515.1515 335.45L515.1515 326.85626L516.214 326.85626L516.214 335.45L515.1515 335.45ZM522.24524 334.6844Q521.6515 335.1844 521.1046 335.3875Q520.57336 335.59064 519.94836 335.59064Q518.9171 335.59064 518.37024 335.09064Q517.82336 334.59064 517.82336 333.8094Q517.82336 333.35626 518.0265 332.98126Q518.2296 332.59064 518.57336 332.3719Q518.9171 332.1375 519.339 332.02814Q519.63586 331.9344 520.2765 331.85626Q521.5421 331.71564 522.1515 331.4969Q522.1515 331.27814 522.1515 331.23126Q522.1515 330.575 521.8546 330.3094Q521.44836 329.96564 520.6515 329.96564Q519.9171 329.96564 519.55774 330.23126Q519.19836 330.48126 519.0265 331.1375L517.99524 330.9969Q518.13586 330.34064 518.464 329.9344Q518.7921 329.52814 519.4015 329.3094Q520.01086 329.09064 520.80774 329.09064Q521.6046 329.09064 522.1046 329.27814Q522.6046 329.46564 522.839 329.7469Q523.07336 330.02814 523.1671 330.46564Q523.214 330.73126 523.214 331.4344L523.214 332.84064Q523.214 334.3094 523.2765 334.7Q523.3546 335.09064 523.55774 335.45L522.44836 335.45Q522.2921 335.1219 522.24524 334.6844ZM522.1515 332.325Q521.57336 332.5594 520.43274 332.73126Q519.7765 332.825 519.51086 332.95Q519.24524 333.0594 519.089 333.27814Q518.94836 333.4969 518.94836 333.77814Q518.94836 334.2 519.26086 334.48126Q519.589 334.7625 520.19836 334.7625Q520.80774 334.7625 521.2765 334.4969Q521.76086 334.23126 521.9796 333.7625Q522.1515 333.40314 522.1515 332.71564L522.1515 332.325ZM525.18274 335.45L525.18274 329.23126L526.12024 329.23126L526.12024 330.10626Q526.80774 329.09064 528.1046 329.09064Q528.6671 329.09064 529.13586 329.29376Q529.62024 329.4969 529.8546 329.825Q530.089 330.15314 530.18274 330.59064Q530.2296 330.8875 530.2296 331.6219L530.2296 335.45L529.18274 335.45L529.18274 331.66876Q529.18274 331.0125 529.05774 330.7Q528.93274 330.3875 528.62024 330.2Q528.30774 329.9969 527.88586 329.9969Q527.214 329.9969 526.714 330.4344Q526.2296 330.85626 526.2296 332.04376L526.2296 335.45L525.18274 335.45ZM532.18274 335.45L532.18274 329.23126L533.12024 329.23126L533.12024 330.10626Q533.80774 329.09064 535.1046 329.09064Q535.6671 329.09064 536.13586 329.29376Q536.62024 329.4969 536.8546 329.825Q537.089 330.15314 537.18274 330.59064Q537.2296 330.8875 537.2296 331.6219L537.2296 335.45L536.18274 335.45L536.18274 331.66876Q536.18274 331.0125 536.05774 330.7Q535.93274 330.3875 535.62024 330.2Q535.30774 329.9969 534.88586 329.9969Q534.214 329.9969 533.714 330.4344Q533.2296 330.85626 533.2296 332.04376L533.2296 335.45L532.18274 335.45ZM543.43274 333.45L544.5265 333.575Q544.2765 334.52814 543.57336 335.0594Q542.87024 335.59064 541.7921 335.59064Q540.43274 335.59064 539.62024 334.7469Q538.82336 333.90314 538.82336 332.3875Q538.82336 330.825 539.63586 329.96564Q540.44836 329.09064 541.7296 329.09064Q542.9796 329.09064 543.76086 329.9344Q544.55774 330.77814 544.55774 332.325Q544.55774 332.41876 544.55774 332.60626L539.9171 332.60626Q539.9796 333.6375 540.49524 334.1844Q541.01086 334.71564 541.7921 334.71564Q542.37024 334.71564 542.7765 334.41876Q543.19836 334.10626 543.43274 333.45ZM539.9796 331.7469L543.44836 331.7469Q543.38586 330.95 543.05774 330.5594Q542.5421 329.95 541.74524 329.95Q541.01086 329.95 540.51086 330.4344Q540.0265 330.91876 539.9796 331.7469ZM546.1671 335.45L546.1671 329.23126L547.12024 329.23126L547.12024 330.16876Q547.4796 329.5125 547.7765 329.3094Q548.089 329.09064 548.464 329.09064Q548.99524 329.09064 549.5421 329.41876L549.18274 330.40314Q548.7921 330.16876 548.4171 330.16876Q548.05774 330.16876 547.7765 330.3875Q547.51086 330.59064 547.4015 330.96564Q547.214 331.52814 547.214 332.1844L547.214 335.45L546.1671 335.45Z" fill-rule="nonzero"/><path fill="#000000" d="M503.69833 351.98126Q502.82333 350.8719 502.21396 349.40314Q501.6202 347.91876 501.6202 346.34064Q501.6202 344.95 502.0577 343.66876Q502.58896 342.1844 503.69833 340.71564L504.44833 340.71564Q503.7452 341.9344 503.51083 342.45Q503.15146 343.2625 502.94833 344.1375Q502.69833 345.23126 502.69833 346.34064Q502.69833 349.16876 504.44833 351.98126L503.69833 351.98126ZM511.44833 340.85626L512.589 340.85626L512.589 345.825Q512.589 347.1219 512.2921 347.8875Q511.9952 348.6375 511.22958 349.1219Q510.46396 349.59064 509.22958 349.59064Q508.02646 349.59064 507.2452 349.1844Q506.47958 348.7625 506.15146 347.98126Q505.82333 347.1844 505.82333 345.825L505.82333 340.85626L506.96396 340.85626L506.96396 345.8094Q506.96396 346.9344 507.16708 347.46564Q507.38583 347.9969 507.88583 348.29376Q508.40146 348.575 509.13583 348.575Q510.38583 348.575 510.91708 348.0125Q511.44833 347.4344 511.44833 345.8094L511.44833 340.85626ZM514.68274 349.45L514.68274 343.23126L515.62024 343.23126L515.62024 344.10626Q516.30774 343.09064 517.6046 343.09064Q518.1671 343.09064 518.63586 343.29376Q519.12024 343.4969 519.3546 343.825Q519.589 344.15314 519.68274 344.59064Q519.7296 344.8875 519.7296 345.6219L519.7296 349.45L518.68274 349.45L518.68274 345.66876Q518.68274 345.0125 518.55774 344.7Q518.43274 344.3875 518.12024 344.2Q517.80774 343.9969 517.38586 343.9969Q516.714 343.9969 516.214 344.4344Q515.7296 344.85626 515.7296 346.04376L515.7296 349.45L514.68274 349.45ZM521.68274 342.075L521.68274 340.85626L522.74524 340.85626L522.74524 342.075L521.68274 342.075ZM521.68274 349.45L521.68274 343.23126L522.74524 343.23126L522.74524 349.45L521.68274 349.45ZM528.74524 347.16876L529.7765 347.3094Q529.6046 348.3719 528.9015 348.98126Q528.19836 349.59064 527.18274 349.59064Q525.9015 349.59064 525.12024 348.7625Q524.3546 347.91876 524.3546 346.35626Q524.3546 345.35626 524.68274 344.60626Q525.0265 343.84064 525.69836 343.46564Q526.38586 343.09064 527.19836 343.09064Q528.19836 343.09064 528.839 343.60626Q529.49524 344.10626 529.68274 345.0594L528.6515 345.21564Q528.51086 344.59064 528.13586 344.27814Q527.76086 343.95 527.2296 343.95Q526.43274 343.95 525.93274 344.52814Q525.43274 345.09064 525.43274 346.325Q525.43274 347.59064 525.9171 348.15314Q526.4015 348.71564 527.1671 348.71564Q527.7921 348.71564 528.19836 348.34064Q528.62024 347.96564 528.74524 347.16876ZM530.2921 346.34064Q530.2921 344.60626 531.24524 343.77814Q532.0421 343.09064 533.19836 343.09064Q534.4796 343.09064 535.2921 343.9344Q536.12024 344.7625 536.12024 346.2469Q536.12024 347.45 535.76086 348.1375Q535.4015 348.825 534.69836 349.21564Q534.01086 349.59064 533.19836 349.59064Q531.9015 349.59064 531.089 348.7625Q530.2921 347.91876 530.2921 346.34064ZM531.37024 346.34064Q531.37024 347.52814 531.88586 348.1219Q532.4171 348.71564 533.19836 348.71564Q533.99524 348.71564 534.51086 348.1219Q535.0265 347.52814 535.0265 346.3094Q535.0265 345.15314 534.49524 344.5594Q533.9796 343.96564 533.19836 343.96564Q532.4171 343.96564 531.88586 344.5594Q531.37024 345.1375 531.37024 346.34064ZM541.714 349.45L541.714 348.66876Q541.12024 349.59064 539.9796 349.59064Q539.2296 349.59064 538.6046 349.1844Q537.9796 348.7625 537.63586 348.02814Q537.2921 347.29376 537.2921 346.34064Q537.2921 345.41876 537.6046 344.65314Q537.9171 343.8875 538.5421 343.4969Q539.1671 343.09064 539.93274 343.09064Q540.49524 343.09064 540.93274 343.325Q541.37024 343.5594 541.6515 343.9344L541.6515 340.85626L542.69836 340.85626L542.69836 349.45L541.714 349.45ZM538.38586 346.34064Q538.38586 347.54376 538.88586 348.1375Q539.38586 348.71564 540.07336 348.71564Q540.76086 348.71564 541.24524 348.15314Q541.7296 347.59064 541.7296 346.4344Q541.7296 345.15314 541.2296 344.5594Q540.74524 343.96564 540.0265 343.96564Q539.32336 343.96564 538.8546 344.54376Q538.38586 345.10626 538.38586 346.34064ZM548.93274 347.45L550.0265 347.575Q549.7765 348.52814 549.07336 349.0594Q548.37024 349.59064 547.2921 349.59064Q545.93274 349.59064 545.12024 348.7469Q544.32336 347.90314 544.32336 346.3875Q544.32336 344.825 545.13586 343.96564Q545.94836 343.09064 547.2296 343.09064Q548.4796 343.09064 549.26086 343.9344Q550.05774 344.77814 550.05774 346.325Q550.05774 346.41876 550.05774 346.60626L545.4171 346.60626Q545.4796 347.6375 545.99524 348.1844Q546.51086 348.71564 547.2921 348.71564Q547.87024 348.71564 548.2765 348.41876Q548.69836 348.10626 548.93274 347.45ZM545.4796 345.7469L548.94836 345.7469Q548.88586 344.95 548.55774 344.5594Q548.0421 343.95 547.24524 343.95Q546.51086 343.95 546.01086 344.4344Q545.5265 344.91876 545.4796 345.7469ZM552.37024 351.98126L551.62024 351.98126Q553.37024 349.16876 553.37024 346.34064Q553.37024 345.2469 553.12024 344.15314Q552.9171 343.27814 552.55774 342.46564Q552.32336 341.95 551.62024 340.71564L552.37024 340.71564Q553.464 342.1844 553.99524 343.66876Q554.44836 344.95 554.44836 346.34064Q554.44836 347.91876 553.839 349.40314Q553.2296 350.8719 552.37024 351.98126Z" fill-rule="nonzero"/><path fill="#4285f4" d="M149.5 20.55C149.5 19.997715 149.94771 19.55 150.5 19.55L160.5 19.55C161.05229 19.55 161.5 19.997715 161.5 20.55L161.5 30.55C161.5 31.102285 161.05229 31.55 160.5 31.55L150.5 31.55C149.94771 31.55 149.5 31.102285 149.5 30.55Z" fill-rule="nonzero"/><path fill="#1a1a1a" d="M170.625 29.55L170.625 20.95625L171.75 20.95625L171.75 29.55L170.625 29.55ZM173.29688 29.55L173.29688 23.33125L174.23438 23.33125L174.23438 24.20625Q174.92188 23.190624 176.21875 23.190624Q176.78125 23.190624 177.25 23.39375Q177.73438 23.596874 177.96875 23.925Q178.20312 24.253124 178.29688 24.690624Q178.34375 24.9875 178.34375 25.721874L178.34375 29.55L177.29688 29.55L177.29688 25.76875Q177.29688 25.1125 177.17188 24.8Q177.04688 24.4875 176.73438 24.3Q176.42188 24.096874 176.0 24.096874Q175.32812 24.096874 174.82812 24.534374Q174.34375 24.95625 174.34375 26.14375L174.34375 29.55L173.29688 29.55ZM182.59375 28.6125L182.75 29.534374Q182.29688 29.628124 181.95312 29.628124Q181.375 29.628124 181.0625 29.45625Q180.75 29.26875 180.60938 28.971874Q180.48438 28.675 180.48438 27.721874L180.48438 24.14375L179.71875 24.14375L179.71875 23.33125L180.48438 23.33125L180.48438 21.784374L181.53125 21.159374L181.53125 23.33125L182.59375 23.33125L182.59375 24.14375L181.53125 24.14375L181.53125 27.784374Q181.53125 28.2375 181.57812 28.3625Q181.64062 28.4875 181.76562 28.565624Q181.89062 28.64375 182.125 28.64375Q182.3125 28.64375 182.59375 28.6125ZM187.54688 27.55L188.64062 27.675Q188.39062 28.628124 187.6875 29.159374Q186.98438 29.690624 185.90625 29.690624Q184.54688 29.690624 183.73438 28.846874Q182.9375 28.003124 182.9375 26.4875Q182.9375 24.925 183.75 24.065624Q184.5625 23.190624 185.84375 23.190624Q187.09375 23.190624 187.875 24.034374Q188.67188 24.878124 188.67188 26.425Q188.67188 26.51875 188.67188 26.70625L184.03125 26.70625Q184.09375 27.7375 184.60938 28.284374Q185.125 28.815624 185.90625 28.815624Q186.48438 28.815624 186.89062 28.51875Q187.3125 28.20625 187.54688 27.55ZM184.09375 25.846874L187.5625 25.846874Q187.5 25.05 187.17188 24.659374Q186.65625 24.05 185.85938 24.05Q185.125 24.05 184.625 24.534374Q184.14062 25.01875 184.09375 25.846874ZM190.28125 29.55L190.28125 23.33125L191.23438 23.33125L191.23438 24.26875Q191.59375 23.6125 191.89062 23.409374Q192.20312 23.190624 192.57812 23.190624Q193.10938 23.190624 193.65625 23.51875L193.29688 24.503124Q192.90625 24.26875 192.53125 24.26875Q192.17188 24.26875 191.89062 24.4875Q191.625 24.690624 191.51562 25.065624Q191.32812 25.628124 191.32812 26.284374L191.32812 29.55L190.28125 29.55ZM194.29688 31.940624L194.29688 23.33125L195.25 23.33125L195.25 24.128124Q195.59375 23.659374 196.01562 23.425Q196.45312 23.190624 197.0625 23.190624Q197.85938 23.190624 198.46875 23.596874Q199.07812 24.003124 199.375 24.753124Q199.6875 25.503124 199.6875 26.39375Q199.6875 27.346874 199.34375 28.1125Q199.01562 28.878124 198.35938 29.284374Q197.70312 29.690624 196.98438 29.690624Q196.45312 29.690624 196.03125 29.471874Q195.60938 29.2375 195.34375 28.909374L195.34375 31.940624L194.29688 31.940624ZM195.25 26.471874Q195.25 27.675 195.73438 28.253124Q196.21875 28.815624 196.90625 28.815624Q197.60938 28.815624 198.10938 28.221874Q198.60938 27.628124 198.60938 26.378124Q198.60938 25.190624 198.125 24.6125Q197.64062 24.01875 196.95312 24.01875Q196.28125 24.01875 195.76562 24.64375Q195.25 25.26875 195.25 26.471874ZM201.28125 29.55L201.28125 23.33125L202.23438 23.33125L202.23438 24.26875Q202.59375 23.6125 202.89062 23.409374Q203.20312 23.190624 203.57812 23.190624Q204.10938 23.190624 204.65625 23.51875L204.29688 24.503124Q203.90625 24.26875 203.53125 24.26875Q203.17188 24.26875 202.89062 24.4875Q202.625 24.690624 202.51562 25.065624Q202.32812 25.628124 202.32812 26.284374L202.32812 29.55L201.28125 29.55ZM209.54688 27.55L210.64062 27.675Q210.39062 28.628124 209.6875 29.159374Q208.98438 29.690624 207.90625 29.690624Q206.54688 29.690624 205.73438 28.846874Q204.9375 28.003124 204.9375 26.4875Q204.9375 24.925 205.75 24.065624Q206.5625 23.190624 207.84375 23.190624Q209.09375 23.190624 209.875 24.034374Q210.67188 24.878124 210.67188 26.425Q210.67188 26.51875 210.67188 26.70625L206.03125 26.70625Q206.09375 27.7375 206.60938 28.284374Q207.125 28.815624 207.90625 28.815624Q208.48438 28.815624 208.89062 28.51875Q209.3125 28.20625 209.54688 27.55ZM206.09375 25.846874L209.5625 25.846874Q209.5 25.05 209.17188 24.659374Q208.65625 24.05 207.85938 24.05Q207.125 24.05 206.625 24.534374Q206.14062 25.01875 206.09375 25.846874ZM214.59375 28.6125L214.75 29.534374Q214.29688 29.628124 213.95312 29.628124Q213.375 29.628124 213.0625 29.45625Q212.75 29.26875 212.60938 28.971874Q212.48438 28.675 212.48438 27.721874L212.48438 24.14375L211.71875 24.14375L211.71875 23.33125L212.48438 23.33125L212.48438 21.784374L213.53125 21.159374L213.53125 23.33125L214.59375 23.33125L214.59375 24.14375L213.53125 24.14375L213.53125 27.784374Q213.53125 28.2375 213.57812 28.3625Q213.64062 28.4875 213.76562 28.565624Q213.89062 28.64375 214.125 28.64375Q214.3125 28.64375 214.59375 28.6125ZM219.54688 27.55L220.64062 27.675Q220.39062 28.628124 219.6875 29.159374Q218.98438 29.690624 217.90625 29.690624Q216.54688 29.690624 215.73438 28.846874Q214.9375 28.003124 214.9375 26.4875Q214.9375 24.925 215.75 24.065624Q216.5625 23.190624 217.84375 23.190624Q219.09375 23.190624 219.875 24.034374Q220.67188 24.878124 220.67188 26.425Q220.67188 26.51875 220.67188 26.70625L216.03125 26.70625Q216.09375 27.7375 216.60938 28.284374Q217.125 28.815624 217.90625 28.815624Q218.48438 28.815624 218.89062 28.51875Q219.3125 28.20625 219.54688 27.55ZM216.09375 25.846874L219.5625 25.846874Q219.5 25.05 219.17188 24.659374Q218.65625 24.05 217.85938 24.05Q217.125 24.05 216.625 24.534374Q216.14062 25.01875 216.09375 25.846874ZM222.28125 29.55L222.28125 23.33125L223.23438 23.33125L223.23438 24.26875Q223.59375 23.6125 223.89062 23.409374Q224.20312 23.190624 224.57812 23.190624Q225.10938 23.190624 225.65625 23.51875L225.29688 24.503124Q224.90625 24.26875 224.53125 24.26875Q224.17188 24.26875 223.89062 24.4875Q223.625 24.690624 223.51562 25.065624Q223.32812 25.628124 223.32812 26.284374L223.32812 29.55L222.28125 29.55ZM231.3125 32.08125Q230.4375 30.971874 229.82812 29.503124Q229.23438 28.01875 229.23438 26.440624Q229.23438 25.05 229.67188 23.76875Q230.20312 22.284374 231.3125 20.815624L232.0625 20.815624Q231.35938 22.034374 231.125 22.55Q230.76562 23.3625 230.5625 24.2375Q230.3125 25.33125 230.3125 26.440624Q230.3125 29.26875 232.0625 32.08125L231.3125 32.08125ZM232.90625 26.440624Q232.90625 24.70625 233.85938 23.878124Q234.65625 23.190624 235.8125 23.190624Q237.09375 23.190624 237.90625 24.034374Q238.73438 24.8625 238.73438 26.346874Q238.73438 27.55 238.375 28.2375Q238.01562 28.925 237.3125 29.315624Q236.625 29.690624 235.8125 29.690624Q234.51562 29.690624 233.70312 28.8625Q232.90625 28.01875 232.90625 26.440624ZM233.98438 26.440624Q233.98438 27.628124 234.5 28.221874Q235.03125 28.815624 235.8125 28.815624Q236.60938 28.815624 237.125 28.221874Q237.64062 27.628124 237.64062 26.409374Q237.64062 25.253124 237.10938 24.659374Q236.59375 24.065624 235.8125 24.065624Q235.03125 24.065624 234.5 24.659374Q233.98438 25.2375 233.98438 26.440624ZM240.26562 29.55L240.26562 20.95625L241.32812 20.95625L241.32812 29.55L240.26562 29.55ZM247.32812 29.55L247.32812 28.76875Q246.73438 29.690624 245.59375 29.690624Q244.84375 29.690624 244.21875 29.284374Q243.59375 28.8625 243.25 28.128124Q242.90625 27.39375 242.90625 26.440624Q242.90625 25.51875 243.21875 24.753124Q243.53125 23.9875 244.15625 23.596874Q244.78125 23.190624 245.54688 23.190624Q246.10938 23.190624 246.54688 23.425Q246.98438 23.659374 247.26562 24.034374L247.26562 20.95625L248.3125 20.95625L248.3125 29.55L247.32812 29.55ZM244.0 26.440624Q244.0 27.64375 244.5 28.2375Q245.0 28.815624 245.6875 28.815624Q246.375 28.815624 246.85938 28.253124Q247.34375 27.690624 247.34375 26.534374Q247.34375 25.253124 246.84375 24.659374Q246.35938 24.065624 245.64062 24.065624Q244.9375 24.065624 244.46875 24.64375Q244.0 25.20625 244.0 26.440624ZM250.98438 32.08125L250.23438 32.08125Q251.98438 29.26875 251.98438 26.440624Q251.98438 25.346874 251.73438 24.253124Q251.53125 23.378124 251.17188 22.565624Q250.9375 22.05 250.23438 20.815624L250.98438 20.815624Q252.07812 22.284374 252.60938 23.76875Q253.0625 25.05 253.0625 26.440624Q253.0625 28.01875 252.45312 29.503124Q251.84375 30.971874 250.98438 32.08125Z" fill-rule="nonzero"/><path fill="#ea4335" d="M269.5 20.55C269.5 19.997715 269.94772 19.55 270.5 19.55L280.5 19.55C281.05228 19.55 281.5 19.997715 281.5 20.55L281.5 30.55C281.5 31.102285 281.05228 31.55 280.5 31.55L270.5 31.55C269.94772 31.55 269.5 31.102285 269.5 30.55Z" fill-rule="nonzero"/><path fill="#1a1a1a" d="M290.625 29.55L290.625 20.95625L291.75 20.95625L291.75 29.55L290.625 29.55ZM293.29688 29.55L293.29688 23.33125L294.23438 23.33125L294.23438 24.20625Q294.92188 23.190624 296.21875 23.190624Q296.78125 23.190624 297.25 23.39375Q297.73438 23.596874 297.96875 23.925Q298.20312 24.253124 298.29688 24.690624Q298.34375 24.9875 298.34375 25.721874L298.34375 29.55L297.29688 29.55L297.29688 25.76875Q297.29688 25.1125 297.17188 24.8Q297.04688 24.4875 296.73438 24.3Q296.42188 24.096874 296.0 24.096874Q295.32812 24.096874 294.82812 24.534374Q294.34375 24.95625 294.34375 26.14375L294.34375 29.55L293.29688 29.55ZM302.59375 28.6125L302.75 29.534374Q302.29688 29.628124 301.95312 29.628124Q301.375 29.628124 301.0625 29.45625Q300.75 29.26875 300.60938 28.971874Q300.48438 28.675 300.48438 27.721874L300.48438 24.14375L299.71875 24.14375L299.71875 23.33125L300.48438 23.33125L300.48438 21.784374L301.53125 21.159374L301.53125 23.33125L302.59375 23.33125L302.59375 24.14375L301.53125 24.14375L301.53125 27.784374Q301.53125 28.2375 301.57812 28.3625Q301.64062 28.4875 301.76562 28.565624Q301.89062 28.64375 302.125 28.64375Q302.3125 28.64375 302.59375 28.6125ZM307.54688 27.55L308.64062 27.675Q308.39062 28.628124 307.6875 29.159374Q306.98438 29.690624 305.90625 29.690624Q304.54688 29.690624 303.73438 28.846874Q302.9375 28.003124 302.9375 26.4875Q302.9375 24.925 303.75 24.065624Q304.5625 23.190624 305.84375 23.190624Q307.09375 23.190624 307.875 24.034374Q308.67188 24.878124 308.67188 26.425Q308.67188 26.51875 308.67188 26.70625L304.03125 26.70625Q304.09375 27.7375 304.60938 28.284374Q305.125 28.815624 305.90625 28.815624Q306.48438 28.815624 306.89062 28.51875Q307.3125 28.20625 307.54688 27.55ZM304.09375 25.846874L307.5625 25.846874Q307.5 25.05 307.17188 24.659374Q306.65625 24.05 305.85938 24.05Q305.125 24.05 304.625 24.534374Q304.14062 25.01875 304.09375 25.846874ZM310.28125 29.55L310.28125 23.33125L311.23438 23.33125L311.23438 24.26875Q311.59375 23.6125 311.89062 23.409374Q312.20312 23.190624 312.57812 23.190624Q313.10938 23.190624 313.65625 23.51875L313.29688 24.503124Q312.90625 24.26875 312.53125 24.26875Q312.17188 24.26875 311.89062 24.4875Q311.625 24.690624 311.51562 25.065624Q311.32812 25.628124 311.32812 26.284374L311.32812 29.55L310.28125 29.55ZM314.29688 31.940624L314.29688 23.33125L315.25 23.33125L315.25 24.128124Q315.59375 23.659374 316.01562 23.425Q316.45312 23.190624 317.0625 23.190624Q317.85938 23.190624 318.46875 23.596874Q319.07812 24.003124 319.375 24.753124Q319.6875 25.503124 319.6875 26.39375Q319.6875 27.346874 319.34375 28.1125Q319.01562 28.878124 318.35938 29.284374Q317.70312 29.690624 316.98438 29.690624Q316.45312 29.690624 316.03125 29.471874Q315.60938 29.2375 315.34375 28.909374L315.34375 31.940624L314.29688 31.940624ZM315.25 26.471874Q315.25 27.675 315.73438 28.253124Q316.21875 28.815624 316.90625 28.815624Q317.60938 28.815624 318.10938 28.221874Q318.60938 27.628124 318.60938 26.378124Q318.60938 25.190624 318.125 24.6125Q317.64062 24.01875 316.95312 24.01875Q316.28125 24.01875 315.76562 24.64375Q315.25 25.26875 315.25 26.471874ZM321.28125 29.55L321.28125 23.33125L322.23438 23.33125L322.23438 24.26875Q322.59375 23.6125 322.89062 23.409374Q323.20312 23.190624 323.57812 23.190624Q324.10938 23.190624 324.65625 23.51875L324.29688 24.503124Q323.90625 24.26875 323.53125 24.26875Q323.17188 24.26875 322.89062 24.4875Q322.625 24.690624 322.51562 25.065624Q322.32812 25.628124 322.32812 26.284374L322.32812 29.55L321.28125 29.55ZM329.54688 27.55L330.64062 27.675Q330.39062 28.628124 329.6875 29.159374Q328.98438 29.690624 327.90625 29.690624Q326.54688 29.690624 325.73438 28.846874Q324.9375 28.003124 324.9375 26.4875Q324.9375 24.925 325.75 24.065624Q326.5625 23.190624 327.84375 23.190624Q329.09375 23.190624 329.875 24.034374Q330.67188 24.878124 330.67188 26.425Q330.67188 26.51875 330.67188 26.70625L326.03125 26.70625Q326.09375 27.7375 326.60938 28.284374Q327.125 28.815624 327.90625 28.815624Q328.48438 28.815624 328.89062 28.51875Q329.3125 28.20625 329.54688 27.55ZM326.09375 25.846874L329.5625 25.846874Q329.5 25.05 329.17188 24.659374Q328.65625 24.05 327.85938 24.05Q327.125 24.05 326.625 24.534374Q326.14062 25.01875 326.09375 25.846874ZM334.59375 28.6125L334.75 29.534374Q334.29688 29.628124 333.95312 29.628124Q333.375 29.628124 333.0625 29.45625Q332.75 29.26875 332.60938 28.971874Q332.48438 28.675 332.48438 27.721874L332.48438 24.14375L331.71875 24.14375L331.71875 23.33125L332.48438 23.33125L332.48438 21.784374L333.53125 21.159374L333.53125 23.33125L334.59375 23.33125L334.59375 24.14375L333.53125 24.14375L333.53125 27.784374Q333.53125 28.2375 333.57812 28.3625Q333.64062 28.4875 333.76562 28.565624Q333.89062 28.64375 334.125 28.64375Q334.3125 28.64375 334.59375 28.6125ZM339.54688 27.55L340.64062 27.675Q340.39062 28.628124 339.6875 29.159374Q338.98438 29.690624 337.90625 29.690624Q336.54688 29.690624 335.73438 28.846874Q334.9375 28.003124 334.9375 26.4875Q334.9375 24.925 335.75 24.065624Q336.5625 23.190624 337.84375 23.190624Q339.09375 23.190624 339.875 24.034374Q340.67188 24.878124 340.67188 26.425Q340.67188 26.51875 340.67188 26.70625L336.03125 26.70625Q336.09375 27.7375 336.60938 28.284374Q337.125 28.815624 337.90625 28.815624Q338.48438 28.815624 338.89062 28.51875Q339.3125 28.20625 339.54688 27.55ZM336.09375 25.846874L339.5625 25.846874Q339.5 25.05 339.17188 24.659374Q338.65625 24.05 337.85938 24.05Q337.125 24.05 336.625 24.534374Q336.14062 25.01875 336.09375 25.846874ZM342.28125 29.55L342.28125 23.33125L343.23438 23.33125L343.23438 24.26875Q343.59375 23.6125 343.89062 23.409374Q344.20312 23.190624 344.57812 23.190624Q345.10938 23.190624 345.65625 23.51875L345.29688 24.503124Q344.90625 24.26875 344.53125 24.26875Q344.17188 24.26875 343.89062 24.4875Q343.625 24.690624 343.51562 25.065624Q343.32812 25.628124 343.32812 26.284374L343.32812 29.55L342.28125 29.55ZM351.3125 32.08125Q350.4375 30.971874 349.82812 29.503124Q349.23438 28.01875 349.23438 26.440624Q349.23438 25.05 349.67188 23.76875Q350.20312 22.284374 351.3125 20.815624L352.0625 20.815624Q351.35938 22.034374 351.125 22.55Q350.76562 23.3625 350.5625 24.2375Q350.3125 25.33125 350.3125 26.440624Q350.3125 29.26875 352.0625 32.08125L351.3125 32.08125ZM353.29688 29.55L353.29688 23.33125L354.23438 23.33125L354.23438 24.20625Q354.92188 23.190624 356.21875 23.190624Q356.78125 23.190624 357.25 23.39375Q357.73438 23.596874 357.96875 23.925Q358.20312 24.253124 358.29688 24.690624Q358.34375 24.9875 358.34375 25.721874L358.34375 29.55L357.29688 29.55L357.29688 25.76875Q357.29688 25.1125 357.17188 24.8Q357.04688 24.4875 356.73438 24.3Q356.42188 24.096874 356.0 24.096874Q355.32812 24.096874 354.82812 24.534374Q354.34375 24.95625 354.34375 26.14375L354.34375 29.55L353.29688 29.55ZM364.54688 27.55L365.64062 27.675Q365.39062 28.628124 364.6875 29.159374Q363.98438 29.690624 362.90625 29.690624Q361.54688 29.690624 360.73438 28.846874Q359.9375 28.003124 359.9375 26.4875Q359.9375 24.925 360.75 24.065624Q361.5625 23.190624 362.84375 23.190624Q364.09375 23.190624 364.875 24.034374Q365.67188 24.878124 365.67188 26.425Q365.67188 26.51875 365.67188 26.70625L361.03125 26.70625Q361.09375 27.7375 361.60938 28.284374Q362.125 28.815624 362.90625 28.815624Q363.48438 28.815624 363.89062 28.51875Q364.3125 28.20625 364.54688 27.55ZM361.09375 25.846874L364.5625 25.846874Q364.5 25.05 364.17188 24.659374Q363.65625 24.05 362.85938 24.05Q362.125 24.05 361.625 24.534374Q361.14062 25.01875 361.09375 25.846874ZM368.4375 29.55L366.53125 23.33125L367.625 23.33125L368.60938 26.925L368.98438 28.253124Q369.01562 28.159374 369.3125 26.971874L370.29688 23.33125L371.375 23.33125L372.3125 26.940624L372.625 28.128124L372.98438 26.925L374.04688 23.33125L375.07812 23.33125L373.125 29.55L372.03125 29.55L371.04688 25.815624L370.79688 24.76875L369.54688 29.55L368.4375 29.55ZM376.98438 32.08125L376.23438 32.08125Q377.98438 29.26875 377.98438 26.440624Q377.98438 25.346874 377.73438 24.253124Q377.53125 23.378124 377.17188 22.565624Q376.9375 22.05 376.23438 20.815624L376.98438 20.815624Q378.07812 22.284374 378.60938 23.76875Q379.0625 25.05 379.0625 26.440624Q379.0625 28.01875 378.45312 29.503124Q377.84375 30.971874 376.98438 32.08125Z" fill-rule="nonzero"/><path fill="#fbbc04" d="M395.5 20.55C395.5 19.997715 395.94772 19.55 396.5 19.55L406.5 19.55C407.05228 19.55 407.5 19.997715 407.5 20.55L407.5 30.55C407.5 31.102285 407.05228 31.55 406.5 31.55L396.5 31.55C395.94772 31.55 395.5 31.102285 395.5 30.55Z" fill-rule="nonzero"/><path fill="#1a1a1a" d="M416.42188 29.55L416.42188 20.95625L417.57812 20.95625L422.09375 27.70625L422.09375 20.95625L423.1875 20.95625L423.1875 29.55L422.01562 29.55L417.5 22.8L417.5 29.55L416.42188 29.55ZM429.35938 28.784374Q428.76562 29.284374 428.21875 29.4875Q427.6875 29.690624 427.0625 29.690624Q426.03125 29.690624 425.48438 29.190624Q424.9375 28.690624 424.9375 27.909374Q424.9375 27.45625 425.14062 27.08125Q425.34375 26.690624 425.6875 26.471874Q426.03125 26.2375 426.45312 26.128124Q426.75 26.034374 427.39062 25.95625Q428.65625 25.815624 429.26562 25.596874Q429.26562 25.378124 429.26562 25.33125Q429.26562 24.675 428.96875 24.409374Q428.5625 24.065624 427.76562 24.065624Q427.03125 24.065624 426.67188 24.33125Q426.3125 24.58125 426.14062 25.2375L425.10938 25.096874Q425.25 24.440624 425.57812 24.034374Q425.90625 23.628124 426.51562 23.409374Q427.125 23.190624 427.92188 23.190624Q428.71875 23.190624 429.21875 23.378124Q429.71875 23.565624 429.95312 23.846874Q430.1875 24.128124 430.28125 24.565624Q430.32812 24.83125 430.32812 25.534374L430.32812 26.940624Q430.32812 28.409374 430.39062 28.8Q430.46875 29.190624 430.67188 29.55L429.5625 29.55Q429.40625 29.221874 429.35938 28.784374ZM429.26562 26.425Q428.6875 26.659374 427.54688 26.83125Q426.89062 26.925 426.625 27.05Q426.35938 27.159374 426.20312 27.378124Q426.0625 27.596874 426.0625 27.878124Q426.0625 28.3 426.375 28.58125Q426.70312 28.8625 427.3125 28.8625Q427.92188 28.8625 428.39062 28.596874Q428.875 28.33125 429.09375 27.8625Q429.26562 27.503124 429.26562 26.815624L429.26562 26.425ZM434.59375 28.6125L434.75 29.534374Q434.29688 29.628124 433.95312 29.628124Q433.375 29.628124 433.0625 29.45625Q432.75 29.26875 432.60938 28.971874Q432.48438 28.675 432.48438 27.721874L432.48438 24.14375L431.71875 24.14375L431.71875 23.33125L432.48438 23.33125L432.48438 21.784374L433.53125 21.159374L433.53125 23.33125L434.59375 23.33125L434.59375 24.14375L433.53125 24.14375L433.53125 27.784374Q433.53125 28.2375 433.57812 28.3625Q433.64062 28.4875 433.76562 28.565624Q433.89062 28.64375 434.125 28.64375Q434.3125 28.64375 434.59375 28.6125ZM435.29688 22.175L435.29688 20.95625L436.35938 20.95625L436.35938 22.175L435.29688 22.175ZM435.29688 29.55L435.29688 23.33125L436.35938 23.33125L436.35938 29.55L435.29688 29.55ZM440.01562 29.55L437.65625 23.33125L438.76562 23.33125L440.10938 27.05Q440.3125 27.659374 440.5 28.3Q440.64062 27.815624 440.89062 27.128124L442.28125 23.33125L443.35938 23.33125L441.0 29.55L440.01562 29.55ZM448.54688 27.55L449.64062 27.675Q449.39062 28.628124 448.6875 29.159374Q447.98438 29.690624 446.90625 29.690624Q445.54688 29.690624 444.73438 28.846874Q443.9375 28.003124 443.9375 26.4875Q443.9375 24.925 444.75 24.065624Q445.5625 23.190624 446.84375 23.190624Q448.09375 23.190624 448.875 24.034374Q449.67188 24.878124 449.67188 26.425Q449.67188 26.51875 449.67188 26.70625L445.03125 26.70625Q445.09375 27.7375 445.60938 28.284374Q446.125 28.815624 446.90625 28.815624Q447.48438 28.815624 447.89062 28.51875Q448.3125 28.20625 448.54688 27.55ZM445.09375 25.846874L448.5625 25.846874Q448.5 25.05 448.17188 24.659374Q447.65625 24.05 446.85938 24.05Q446.125 24.05 445.625 24.534374Q445.14062 25.01875 445.09375 25.846874Z" fill-rule="nonzero"/></svg>