<?xml version="1.0" encoding="UTF-8" standalone="no"?>
<!DOCTYPE svg PUBLIC "-//W3C//DTD SVG 1.1//EN"
 "http://www.w3.org/Graphics/SVG/1.1/DTD/svg11.dtd">
<!-- Generated by graphviz version 2.40.1 (20161225.0304)

https://dreampuf.github.io/GraphvizOnline/#digraph%20G%20%7B%0A%0A%20%20node%20%5Bfontname%3DHelvetica%2C%20shape%3D%22record%22%2C%20fontcolor%3D%22white%22%2C%20style%3Dfilled%2C%20color%3D%22%233F53FF%22%5D%0A%20%20edge%20%5Bfontname%3DHelvetica%5D%0A%20%20%0A%20%20Map0%3B%0A%20%20Map1%20%5Blabel%3D%22%7BMap1%20%7C%20name%20(i0)%7D%22%5D%3B%0A%20%20Map2%20%5Blabel%3D%22%7BMap2%20%7C%20name%20(i0)%20%7C%20height%20(i1)%7D%22%5D%3B%0A%20%20Map3%20%5Blabel%3D%22%7BMap3%20%7C%20name%20(i0)%20%7C%20height%20(i1)%20%7C%20prominence%20(i2)%7D%22%5D%0A%20%20Map4%20%5Blabel%3D%22%7BMap4%20%7C%20name%20(i0)%20%7C%20height%20(i1)%20%7C%20experience%20(i2)%7D%22%5D%0A%0A%20%20Map0%20-%3E%20Map1%20%5Blabel%3D%22name%22%5D%3B%0A%20%20Map1%20-%3E%20Map0%3B%0A%20%20Map1%20-%3E%20Map2%20%5Blabel%3D%22height%22%5D%3B%0A%20%20Map2%20-%3E%20Map1%3B%0A%20%20Map2%20-%3E%20Map3%20%5Blabel%3D%22prominence%22%5D%3B%0A%20%20Map3%20-%3E%20Map2%3B%0A%20%20Map2%20-%3E%20Map4%20%5Blabel%3D%22experience%22%5D%3B%0A%20%20Map4%20-%3E%20Map2%3B%0A%7D

 -->
<!-- Title: G Pages: 1 -->
<svg width="267pt" height="430pt"
 viewBox="0.00 0.00 266.89 429.60" xmlns="http://www.w3.org/2000/svg" xmlns:xlink="http://www.w3.org/1999/xlink">
<g id="graph0" class="graph" transform="scale(1 1) rotate(0) translate(4 425.6)">
<title>G</title>
<polygon fill="#ffffff" stroke="transparent" points="-4,4 -4,-425.6 262.8941,-425.6 262.8941,4 -4,4"/>
<!-- Map0 -->
<g id="node1" class="node">
<title>Map0</title>
<polygon fill="#3f53ff" stroke="#3f53ff" points="96.6122,-385.1 96.6122,-421.1 150.6122,-421.1 150.6122,-385.1 96.6122,-385.1"/>
<text text-anchor="middle" x="123.1164" y="-398.9" font-family="Helvetica,sans-Serif" font-size="14.00" fill="#ffffff">Map0</text>
</g>
<!-- Map1 -->
<g id="node2" class="node">
<title>Map1</title>
<polygon fill="#3f53ff" stroke="#3f53ff" points="86.0575,-281.7 86.0575,-331.3 161.1669,-331.3 161.1669,-281.7 86.0575,-281.7"/>
<text text-anchor="middle" x="123.6122" y="-314.7" font-family="Helvetica,sans-Serif" font-size="14.00" fill="#ffffff">Map1</text>
<polyline fill="none" stroke="#3f53ff" points="86.0575,-306.5 161.1669,-306.5 "/>
<text text-anchor="middle" x="123.6122" y="-289.9" font-family="Helvetica,sans-Serif" font-size="14.00" fill="#ffffff">name (i0)</text>
</g>
<!-- Map0&#45;&gt;Map1 -->
<g id="edge1" class="edge">
<title>Map0&#45;&gt;Map1</title>
<path fill="none" stroke="#000000" d="M108.6376,-384.835C104.9534,-379.3053 101.5182,-372.9941 99.6038,-366.6 97.0791,-358.1673 98.3481,-349.2673 101.3254,-340.9758"/>
<polygon fill="#000000" stroke="#000000" points="104.6343,-342.1472 105.4801,-331.5862 98.233,-339.3147 104.6343,-342.1472"/>
<text text-anchor="middle" x="117.1164" y="-354" font-family="Helvetica,sans-Serif" font-size="14.00" fill="#000000">name</text>
</g>
<!-- Map1&#45;&gt;Map0 -->
<g id="edge2" class="edge">
<title>Map1&#45;&gt;Map0</title>
<path fill="none" stroke="#000000" d="M131.9251,-331.5832C134.5222,-342.337 136.3138,-355.0567 134.6122,-366.6 134.2098,-369.3295 133.6468,-372.138 132.9862,-374.9272"/>
<polygon fill="#000000" stroke="#000000" points="129.5563,-374.2 130.2781,-384.7702 136.3055,-376.057 129.5563,-374.2"/>
</g>
<!-- Map2 -->
<g id="node3" class="node">
<title>Map2</title>
<polygon fill="#3f53ff" stroke="#3f53ff" points="84.4979,-153.5 84.4979,-227.9 162.7265,-227.9 162.7265,-153.5 84.4979,-153.5"/>
<text text-anchor="middle" x="123.6122" y="-211.3" font-family="Helvetica,sans-Serif" font-size="14.00" fill="#ffffff">Map2</text>
<polyline fill="none" stroke="#3f53ff" points="84.4979,-203.1 162.7265,-203.1 "/>
<text text-anchor="middle" x="123.6122" y="-186.5" font-family="Helvetica,sans-Serif" font-size="14.00" fill="#ffffff">name (i0)</text>
<polyline fill="none" stroke="#3f53ff" points="84.4979,-178.3 162.7265,-178.3 "/>
<text text-anchor="middle" x="123.6122" y="-161.7" font-family="Helvetica,sans-Serif" font-size="14.00" fill="#ffffff">height (i1)</text>
</g>
<!-- Map1&#45;&gt;Map2 -->
<g id="edge3" class="edge">
<title>Map1&#45;&gt;Map2</title>
<path fill="none" stroke="#000000" d="M106.1041,-281.3796C102.9609,-275.6488 100.1561,-269.4107 98.4846,-263.2 96.2451,-254.8789 96.7417,-246.1339 98.7348,-237.7105"/>
<polygon fill="#000000" stroke="#000000" points="102.1223,-238.6006 101.6875,-228.0146 95.426,-236.5612 102.1223,-238.6006"/>
<text text-anchor="middle" x="117.676" y="-250.6" font-family="Helvetica,sans-Serif" font-size="14.00" fill="#000000">height</text>
</g>
<!-- Map2&#45;&gt;Map1 -->
<g id="edge4" class="edge">
<title>Map2&#45;&gt;Map1</title>
<path fill="none" stroke="#000000" d="M135.0313,-228.2551C137.1744,-239.4722 138.2846,-251.8134 136.6122,-263.2 136.1952,-266.0393 135.6321,-268.9508 134.9732,-271.8559"/>
<polygon fill="#000000" stroke="#000000" points="131.5702,-271.0355 132.4367,-281.5948 138.3442,-272.7998 131.5702,-271.0355"/>
</g>
<!-- Map3 -->
<g id="node4" class="node">
<title>Map3</title>
<polygon fill="#3f53ff" stroke="#3f53ff" points="0,-.5 0,-99.7 113.2244,-99.7 113.2244,-.5 0,-.5"/>
<text text-anchor="middle" x="56.6122" y="-83.1" font-family="Helvetica,sans-Serif" font-size="14.00" fill="#ffffff">Map3</text>
<polyline fill="none" stroke="#3f53ff" points="0,-74.9 113.2244,-74.9 "/>
<text text-anchor="middle" x="56.6122" y="-58.3" font-family="Helvetica,sans-Serif" font-size="14.00" fill="#ffffff">name (i0)</text>
<polyline fill="none" stroke="#3f53ff" points="0,-50.1 113.2244,-50.1 "/>
<text text-anchor="middle" x="56.6122" y="-33.5" font-family="Helvetica,sans-Serif" font-size="14.00" fill="#ffffff">height (i1)</text>
<polyline fill="none" stroke="#3f53ff" points="0,-25.3 113.2244,-25.3 "/>
<text text-anchor="middle" x="56.6122" y="-8.7" font-family="Helvetica,sans-Serif" font-size="14.00" fill="#ffffff">prominence (i2)</text>
</g>
<!-- Map2&#45;&gt;Map3 -->
<g id="edge5" class="edge">
<title>Map2&#45;&gt;Map3</title>
<path fill="none" stroke="#000000" d="M84.4107,-180.485C61.4391,-172.2627 34.2992,-158.1555 20.4888,-135 15.7196,-127.0036 14.9783,-118.2616 16.6818,-109.5248"/>
<polygon fill="#000000" stroke="#000000" points="20.1065,-110.2836 19.5594,-99.7029 13.3889,-108.3154 20.1065,-110.2836"/>
<text text-anchor="middle" x="57.1739" y="-122.4" font-family="Helvetica,sans-Serif" font-size="14.00" fill="#000000">prominence</text>
</g>
<!-- Map4 -->
<g id="node5" class="node">
<title>Map4</title>
<polygon fill="#3f53ff" stroke="#3f53ff" points="150.3303,-.5 150.3303,-99.7 258.8941,-99.7 258.8941,-.5 150.3303,-.5"/>
<text text-anchor="middle" x="204.6122" y="-83.1" font-family="Helvetica,sans-Serif" font-size="14.00" fill="#ffffff">Map4</text>
<polyline fill="none" stroke="#3f53ff" points="150.3303,-74.9 258.8941,-74.9 "/>
<text text-anchor="middle" x="204.6122" y="-58.3" font-family="Helvetica,sans-Serif" font-size="14.00" fill="#ffffff">name (i0)</text>
<polyline fill="none" stroke="#3f53ff" points="150.3303,-50.1 258.8941,-50.1 "/>
<text text-anchor="middle" x="204.6122" y="-33.5" font-family="Helvetica,sans-Serif" font-size="14.00" fill="#ffffff">height (i1)</text>
<polyline fill="none" stroke="#3f53ff" points="150.3303,-25.3 258.8941,-25.3 "/>
<text text-anchor="middle" x="204.6122" y="-8.7" font-family="Helvetica,sans-Serif" font-size="14.00" fill="#ffffff">experience (i2)</text>
</g>
<!-- Map2&#45;&gt;Map4 -->
<g id="edge7" class="edge">
<title>Map2&#45;&gt;Map4</title>
<path fill="none" stroke="#000000" d="M128.8617,-153.2236C131.4834,-141.5411 135.3803,-128.9189 141.1494,-118.2 142.9397,-114.8736 144.9322,-111.5869 147.075,-108.3603"/>
<polygon fill="#000000" stroke="#000000" points="150.1003,-110.1464 153.0626,-99.9741 144.4034,-106.0788 150.1003,-110.1464"/>
<text text-anchor="middle" x="175.8436" y="-122.4" font-family="Helvetica,sans-Serif" font-size="14.00" fill="#000000">experience</text>
</g>
<!-- Map3&#45;&gt;Map2 -->
<g id="edge6" class="edge">
<title>Map3&#45;&gt;Map2</title>
<path fill="none" stroke="#000000" d="M84.4975,-99.9977C87.6668,-106.0813 90.774,-112.2491 93.6122,-118.2 97.574,-126.5069 101.5341,-135.4789 105.2176,-144.1863"/>
<polygon fill="#000000" stroke="#000000" points="102.0159,-145.6024 109.093,-153.487 108.4775,-142.91 102.0159,-145.6024"/>
</g>
<!-- Map4&#45;&gt;Map2 -->
<g id="edge8" class="edge">
<title>Map4&#45;&gt;Map2</title>
<path fill="none" stroke="#000000" d="M216.4175,-99.7065C216.9613,-111.83 215.3958,-124.3633 209.6122,-135 201.3085,-150.2712 186.8135,-161.9997 172.0635,-170.6651"/>
<polygon fill="#000000" stroke="#000000" points="169.9992,-167.8045 162.8998,-175.6689 173.354,-173.9482 169.9992,-167.8045"/>
</g>
</g>
</svg>
