<svg width="518pt" height="880pt" viewBox="0 0 518.22 879.6" xmlns="http://www.w3.org/2000/svg"><g class="graph" transform="translate(4 875.6)"><path fill="#fff" stroke="transparent" d="M-4 4v-879.6h518.22V4H-4z"/><g class="node"><path fill="#3f53ff" stroke="#3f53ff" d="M23.776-796.7v-74.4H129.22v74.4H23.776z"/><text text-anchor="middle" x="76.498" y="-854.5" font-family="Helvetica,sans-Serif" font-size="14" fill="#fff">Map0</text><path fill="none" stroke="#3f53ff" d="M23.776-846.3H129.22"/><text text-anchor="middle" x="76.498" y="-829.7" font-family="Helvetica,sans-Serif" font-size="14" fill="#fff">descriptors (0)</text><path fill="none" stroke="#3f53ff" d="M23.776-821.5H129.22"/><text text-anchor="middle" x="76.498" y="-804.9" font-family="Helvetica,sans-Serif" font-size="14" fill="#fff">transitions (1)</text></g><g class="node"><path fill="#3f53ff" stroke="#3f53ff" d="M138.776-668.5v-74.4H244.22v74.4H138.776z"/><text text-anchor="middle" x="191.498" y="-726.3" font-family="Helvetica,sans-Serif" font-size="14" fill="#fff">Map1</text><path fill="none" stroke="#3f53ff" d="M138.776-718.1H244.22"/><text text-anchor="middle" x="191.498" y="-701.5" font-family="Helvetica,sans-Serif" font-size="14" fill="#fff">descriptors (1)</text><path fill="none" stroke="#3f53ff" d="M138.776-693.3H244.22"/><text text-anchor="middle" x="191.498" y="-676.7" font-family="Helvetica,sans-Serif" font-size="14" fill="#fff">transitions (1)</text></g><g class="edge"><path fill="none" stroke="#000" d="M129.498-808.9c28.295 0 44.002 28.859 52.523 56.055"/><path stroke="#000" d="m185.464-753.534-.62 10.576-6.111-8.654 6.731-1.922z"/><text text-anchor="middle" x="226.332" y="-765.6" font-family="Helvetica,sans-Serif" font-size="14">name (inferred)</text></g><g class="node"><path fill="#ffb34d" stroke="#ffb34d" d="M0-680.9v-49.6h120.996v49.6H0z"/><text text-anchor="middle" x="60.498" y="-713.9" font-family="Helvetica,sans-Serif" font-size="14">DescriptorArray0</text><path fill="none" stroke="#ffb34d" d="M0-705.7h120.996"/><text text-anchor="middle" x="60.498" y="-689.1" font-family="Helvetica,sans-Serif" font-size="14">(empty)</text></g><g class="edge"><path fill="none" stroke="#000" d="M23.498-833.9c-39.354 0-10.184 56.454 13.895 94.437"/><path stroke="#000" d="m40.554-741.02 2.494 10.297-8.371-6.494 5.877-3.803z"/></g><g class="node"><path fill="#3f53ff" stroke="#3f53ff" d="M191.776-540.3v-74.4H297.22v74.4H191.776z"/><text text-anchor="middle" x="244.498" y="-598.1" font-family="Helvetica,sans-Serif" font-size="14" fill="#fff">Map2</text><path fill="none" stroke="#3f53ff" d="M191.776-589.9H297.22"/><text text-anchor="middle" x="244.498" y="-573.3" font-family="Helvetica,sans-Serif" font-size="14" fill="#fff">descriptors (2)</text><path fill="none" stroke="#3f53ff" d="M191.776-565.1H297.22"/><text text-anchor="middle" x="244.498" y="-548.5" font-family="Helvetica,sans-Serif" font-size="14" fill="#fff">transitions (2)</text></g><g class="edge"><path fill="none" stroke="#000" d="M191.498-668.7c0 15.924 6.115 31.552 14.19 45.248"/><path stroke="#000" d="m208.812-625.062 2.421 10.315-8.324-6.554 5.903-3.761z"/><text text-anchor="middle" x="249.892" y="-637.4" font-family="Helvetica,sans-Serif" font-size="14">height (inferred)</text></g><g class="node"><path fill="#ffb34d" stroke="#ffb34d" d="M126.213-162.5v-99.2h150.57v99.2h-150.57z"/><text text-anchor="middle" x="201.498" y="-245.1" font-family="Helvetica,sans-Serif" font-size="14">DescriptorArray1</text><path fill="none" stroke="#ffb34d" d="M126.213-236.9h150.57"/><text text-anchor="middle" x="201.498" y="-220.3" font-family="Helvetica,sans-Serif" font-size="14">name (const i0)</text><path fill="none" stroke="#ffb34d" d="M126.213-212.1h150.57"/><text text-anchor="middle" x="201.498" y="-195.5" font-family="Helvetica,sans-Serif" font-size="14">height (const i1)</text><path fill="none" stroke="#ffb34d" d="M126.213-187.3h150.57"/><text text-anchor="middle" x="201.498" y="-170.7" font-family="Helvetica,sans-Serif" font-size="14">prominence (const i2)</text></g><g class="edge"><path fill="none" stroke="#000" d="M138.498-705.7c-16.756 0-2.251 21.096 0 37.7 5.606 41.35 25 48.771 25 90.5v224.8c0 27.233 6.726 56.438 14.519 81.135"/><path stroke="#000" d="m181.368-272.576-.205 10.593-6.445-8.409 6.65-2.184z"/></g><g class="edge"><path fill="none" stroke="#000" d="M191.498-577.5c-15.105 0-2.208 202.146 5.392 305.731"/><path stroke="#000" d="m200.383-271.991-2.752 10.231-4.229-9.714 6.981-.517z"/></g><g class="node"><path fill="#b3813e" stroke="#b3813e" d="M229.163-427.9v-74.4h118.67v74.4h-118.67z"/><text text-anchor="middle" x="288.498" y="-485.7" font-family="Helvetica,sans-Serif" font-size="14" fill="#fff">TransitionArray0</text><path fill="none" stroke="#b3813e" d="M229.163-477.5h118.67"/><text text-anchor="middle" x="288.498" y="-460.9" font-family="Helvetica,sans-Serif" font-size="14" fill="#fff">experience</text><path fill="none" stroke="#b3813e" d="M229.163-452.7h118.67"/><text text-anchor="middle" x="288.498" y="-436.1" font-family="Helvetica,sans-Serif" font-size="14" fill="#fff">prominence</text></g><g class="edge"><path fill="none" stroke="#000" d="M244.498-540.5c0 10.003 2.925 19.86 7.266 28.981"/><path stroke="#000" d="m254.871-513.13 1.65 10.465-7.816-7.152 6.166-3.313z"/></g><g class="node"><path fill="#3f53ff" stroke="#3f53ff" d="M229.776-315.5v-74.4H335.22v74.4H229.776z"/><text text-anchor="middle" x="282.498" y="-373.3" font-family="Helvetica,sans-Serif" font-size="14" fill="#fff">Map3</text><path fill="none" stroke="#3f53ff" d="M229.776-365.1H335.22"/><text text-anchor="middle" x="282.498" y="-348.5" font-family="Helvetica,sans-Serif" font-size="14" fill="#fff">descriptors (3)</text><path fill="none" stroke="#3f53ff" d="M229.776-340.3H335.22"/><text text-anchor="middle" x="282.498" y="-323.7" font-family="Helvetica,sans-Serif" font-size="14" fill="#fff">transitions (0)</text></g><g class="edge"><path fill="none" stroke="#000" d="M229.498-352.7c-16.409 0-10.792 56.408-14 72.5-.535 2.682-1.084 5.423-1.642 8.19"/><path stroke="#000" d="m217.229-271.03-5.416 9.106-1.445-10.496 6.861 1.39z"/></g><g class="node"><path fill="#3f53ff" stroke="#3f53ff" d="M352.776-315.5v-74.4H458.22v74.4H352.776z"/><text text-anchor="middle" x="405.498" y="-373.3" font-family="Helvetica,sans-Serif" font-size="14" fill="#fff">Map4</text><path fill="none" stroke="#3f53ff" d="M352.776-365.1H458.22"/><text text-anchor="middle" x="405.498" y="-348.5" font-family="Helvetica,sans-Serif" font-size="14" fill="#fff">descriptors (3)</text><path fill="none" stroke="#3f53ff" d="M352.776-340.3H458.22"/><text text-anchor="middle" x="405.498" y="-323.7" font-family="Helvetica,sans-Serif" font-size="14" fill="#fff">transitions (1)</text></g><g class="node"><path fill="#3f53ff" stroke="#3f53ff" d="M404.776-174.9v-74.4H510.22v74.4H404.776z"/><text text-anchor="middle" x="457.498" y="-232.7" font-family="Helvetica,sans-Serif" font-size="14" fill="#fff">Map5</text><path fill="none" stroke="#3f53ff" d="M404.776-224.5H510.22"/><text text-anchor="middle" x="457.498" y="-207.9" font-family="Helvetica,sans-Serif" font-size="14" fill="#fff">descriptors (4)</text><path fill="none" stroke="#3f53ff" d="M404.776-199.7H510.22"/><text text-anchor="middle" x="457.498" y="-183.1" font-family="Helvetica,sans-Serif" font-size="14" fill="#fff">transitions (0)</text></g><g class="edge"><path fill="none" stroke="#000" d="M405.498-315.7c0 20.05 7.876 40.187 17.498 57.304"/><path stroke="#000" d="m426.044-260.118 2.111 10.382-8.125-6.8 6.014-3.582z"/><text text-anchor="middle" x="454.665" y="-284.4" font-family="Helvetica,sans-Serif" font-size="14">cost (inferred)</text></g><g class="node"><path fill="#ffb34d" stroke="#ffb34d" d="M315.543-.5v-124h145.91v124h-145.91z"/><text text-anchor="middle" x="388.498" y="-107.9" font-family="Helvetica,sans-Serif" font-size="14">DescriptorArray2</text><path fill="none" stroke="#ffb34d" d="M315.543-99.7h145.91"/><text text-anchor="middle" x="388.498" y="-83.1" font-family="Helvetica,sans-Serif" font-size="14">name (const i0)</text><path fill="none" stroke="#ffb34d" d="M315.543-74.9h145.91"/><text text-anchor="middle" x="388.498" y="-58.3" font-family="Helvetica,sans-Serif" font-size="14">height (const i1)</text><path fill="none" stroke="#ffb34d" d="M315.543-50.1h145.91"/><text text-anchor="middle" x="388.498" y="-33.5" font-family="Helvetica,sans-Serif" font-size="14">experience (const i2)</text><path fill="none" stroke="#ffb34d" d="M315.543-25.3h145.91"/><text text-anchor="middle" x="388.498" y="-8.7" font-family="Helvetica,sans-Serif" font-size="14">cost (const p0)</text></g><g class="edge"><path fill="none" stroke="#000" d="M352.498-352.7c-10.957 0 9.243 132.014 23.555 217.963"/><path stroke="#000" d="m379.525-135.196-1.802 10.441-5.102-9.285 6.904-1.156z"/></g><g class="edge"><path fill="none" stroke="#000" d="M404.498-212.1c-8.542 0-12.532 39.06-14.392 77.263"/><path stroke="#000" d="m393.594-134.48-3.937 9.836-3.056-10.145 6.993.309z"/></g><g class="edge"><path fill="none" stroke="#000" d="M288.498-428.1c0 13.36-3.59 18.692-5.216 28.414"/><path stroke="#000" d="m286.77-399.395-4.272 9.695-2.706-10.243 6.978.548z"/></g><g class="edge"><path fill="none" stroke="#000" d="M347.498-465.1c15.806 0-3.615 57.698-1.018 79.334"/><path stroke="#000" d="m349.323-387.808 3.175 10.108-8.786-5.922 5.611-4.186z"/></g></g></svg>