<svg fill="none" height="476" stroke-linecap="square" stroke-miterlimit="10" width="769" xmlns="http://www.w3.org/2000/svg" xmlns:xlink="http://www.w3.org/1999/xlink"><clipPath id="a"><path d="m87.8 74.667h657.4v356.033h-657.4z"/></clipPath><path d="m0 0h769v476h-769z" fill="#fff"/><path d="m87.5 430.5h658" stroke="#333" stroke-linecap="butt"/><path d="m87.5 341.5h658m-658-89h658m-658-89h658m-658-89h658" stroke="#ccc" stroke-linecap="butt"/><path clip-path="url(#a)" d="m239 431h-98v-325a2 2 0 0 1 2-2h94a2 2 0 0 1 2 2z"/><path clip-path="url(#a)" d="m239 431h-98v-325a2 2 0 0 1 2-2h94a2 2 0 0 1 2 2z" fill="#4285f4"/><path clip-path="url(#a)" d="m390 431h-98v-331a2 2 0 0 1 2-2h94a2 2 0 0 1 2 2z"/><path clip-path="url(#a)" d="m390 431h-98v-331a2 2 0 0 1 2-2h94a2 2 0 0 1 2 2z" fill="#4285f4"/><path clip-path="url(#a)" d="m541 431h-98v-135a2 2 0 0 1 2-2h94a2 2 0 0 1 2 2z"/><path clip-path="url(#a)" d="m541 431h-98v-135a2 2 0 0 1 2-2h94a2 2 0 0 1 2 2z" fill="#4285f4"/><path clip-path="url(#a)" d="m692 431h-98v-74a2 2 0 0 1 2-2h94a2 2 0 0 1 2 2z"/><path clip-path="url(#a)" d="m692 431h-98v-74a2 2 0 0 1 2-2h94a2 2 0 0 1 2 2z" fill="#4285f4"/><path d="m29.19 387.62q-1.077 0-1.827-.53-.75-.547-.75-1.579 0-.937.671-1.546.672-.625 1.97-.625 1.28 0 1.968.625.687.625.687 1.53 0 .907-.671 1.516-.688.61-2.047.61zm-1.734-2.14q0 .453.407.766.39.297 1.437.297.969 0 1.36-.297.39-.313.39-.766 0-.469-.39-.765-.391-.313-1.454-.313-.968 0-1.36.313-.39.312-.39.765zm9.719 0-10.562-5.484v-1l10.562 5.453zm-2.734-4.344q-1.078 0-1.813-.53-.75-.548-.75-1.579 0-.937.672-1.562t1.969-.625q1.281 0 1.969.625.687.625.687 1.562 0 .906-.672 1.516-.687.593-2.062.593zm-1.72-2.14q0 .469.407.765.39.297 1.438.297.968 0 1.359-.297.39-.312.39-.765 0-.469-.39-.766-.39-.312-1.453-.312-.969 0-1.36.312-.39.297-.39.766zm-4.53-7.5h-1.407v-1.219h1.407zm8.609 0h-7.266v-1.219h7.266zm0-2.985h-7.266v-1.109h1.032q-.547-.328-.86-.89-.328-.579-.328-1.297 0-.813.344-1.329.328-.515.922-.734-1.266-.86-1.266-2.234 0-1.078.594-1.657.594-.593 1.844-.593h4.984v1.234h-4.578q-.734 0-1.063.125-.328.11-.515.422-.203.312-.203.734 0 .766.515 1.282.5.5 1.625.5h4.219v1.234h-4.719q-.812 0-1.218.297-.422.297-.422.984 0 .516.28.969.267.437.798.64.515.188 1.515.188h3.766zm2.781-12h-10.047v-1.125h.954q-.563-.39-.829-.89-.28-.5-.28-1.219 0-.922.484-1.625.468-.719 1.343-1.078.875-.36 1.907-.36 1.109 0 2.015.407.89.39 1.375 1.156.469.75.469 1.594 0 .61-.266 1.11-.265.484-.656.796h3.531zm-6.375-1.109q1.407 0 2.078-.562.672-.579.672-1.391 0-.813-.687-1.39-.703-.594-2.156-.594-1.391 0-2.079.578-.687.562-.687 1.36 0 .78.734 1.39.735.61 2.125.61zm3.594-6.875h-7.266v-1.11h1.11q-.781-.421-1.016-.78-.25-.36-.25-.797 0-.625.39-1.266l1.141.422q-.265.453-.265.906 0 .406.25.734.234.313.672.454.656.203 1.437.203h3.797zm-3.625-4.562q-2.016 0-3-1.125-.797-.922-.797-2.282 0-1.484.985-2.437.968-.953 2.703-.953 1.406 0 2.218.422.797.421 1.25 1.234.438.797.438 1.734 0 1.532-.984 2.47-.985.937-2.813.937zm0-1.266q1.39 0 2.094-.61.687-.609.687-1.53 0-.907-.703-1.516-.703-.61-2.125-.61-1.344 0-2.031.61-.703.61-.703 1.515 0 .922.687 1.532.688.609 2.094.609zm3.625-9.203-7.266 2.765v-1.312l4.36-1.547q.703-.25 1.453-.469-.578-.172-1.375-.453l-4.438-1.625v-1.265l7.266 2.75zm-2.344-9.953.157-1.282q1.125.313 1.75 1.125.609.813.609 2.079 0 1.593-.984 2.53-.985.923-2.75.923-1.844 0-2.844-.938-1.016-.953-1.016-2.453 0-1.453 1-2.375.985-.922 2.781-.922h.329v5.422q1.187-.078 1.828-.672.64-.61.64-1.531 0-.672-.36-1.14-.358-.485-1.14-.766zm-1.984 4.03v-4.046q-.922.078-1.375.469-.703.578-.703 1.515 0 .86.562 1.438.563.562 1.516.625zm4.328-7.062h-7.266v-1.109h1.032q-.547-.328-.86-.89-.328-.579-.328-1.297 0-.813.344-1.329.328-.515.922-.734-1.266-.86-1.266-2.234 0-1.078.594-1.657.594-.593 1.844-.593h4.984v1.234h-4.578q-.734 0-1.063.125-.328.11-.515.422-.203.312-.203.734 0 .766.515 1.282.5.5 1.625.5h4.219v1.234h-4.719q-.812 0-1.218.297-.422.297-.422.984 0 .516.28.969.267.437.798.64.515.188 1.515.188h3.766zm-2.344-16.968.157-1.282q1.125.313 1.75 1.125.609.813.609 2.079 0 1.593-.984 2.53-.985.923-2.75.923-1.844 0-2.844-.938-1.016-.953-1.016-2.453 0-1.453 1-2.375.985-.922 2.781-.922h.329v5.422q1.187-.078 1.828-.672.64-.61.64-1.531 0-.672-.36-1.14-.358-.485-1.14-.766zm-1.984 4.03v-4.046q-.922.078-1.375.469-.703.578-.703 1.515 0 .86.562 1.438.563.562 1.516.625zm4.328-7.062h-7.266v-1.109h1.032q-1.188-.797-1.188-2.312 0-.657.235-1.204.234-.546.625-.812.375-.281.906-.39.344-.079 1.187-.079h4.469v1.235h-4.422q-.75 0-1.11.14-.374.14-.593.516-.234.36-.234.86 0 .78.5 1.359.5.562 1.89.562h3.969zm-1.094-10.687 1.078-.172q.11.516.11.922 0 .672-.203 1.047-.22.36-.563.515-.344.141-1.453.141h-4.172v.906h-.969v-.906h-1.796l-.735-1.219h2.531v-1.234h.97v1.234h4.234q.53 0 .687-.062.14-.063.234-.203.094-.157.094-.422 0-.219-.047-.547zm-7.515-5.328h-1.407v-1.219h1.407zm8.609 0h-7.266v-1.219h7.266zm0-2.985h-7.266v-1.109h1.032q-1.188-.797-1.188-2.312 0-.657.235-1.204.234-.546.625-.812.375-.281.906-.39.344-.079 1.187-.079h4.469v1.235h-4.422q-.75 0-1.11.14-.374.14-.593.516-.234.36-.234.86 0 .78.5 1.359.5.562 1.89.562h3.969zm-2.344-16.968.157-1.282q1.125.313 1.75 1.125.609.813.609 2.079 0 1.593-.984 2.53-.985.923-2.75.923-1.844 0-2.844-.938-1.016-.953-1.016-2.453 0-1.453 1-2.375.985-.922 2.781-.922h.329v5.422q1.187-.078 1.828-.672.64-.61.64-1.531 0-.672-.36-1.14-.358-.485-1.14-.766zm-1.984 4.03v-4.046q-.922.078-1.375.469-.703.578-.703 1.515 0 .86.562 1.438.563.562 1.516.625zm4.328-6.25-3.781-2.64-3.485 2.453v-1.546l1.704-1.11q.484-.312.812-.5-.453-.312-.797-.562l-1.719-1.22v-1.468l3.422 2.5 3.844-2.687v1.5l-2.25 1.5-.61.39 2.86 1.907v1.484zm-2.344-12.78.157-1.282q1.125.313 1.75 1.125.609.813.609 2.079 0 1.593-.984 2.53-.985.923-2.75.923-1.844 0-2.844-.938-1.016-.953-1.016-2.453 0-1.453 1-2.375.985-.922 2.781-.922h.329v5.422q1.187-.078 1.828-.672.64-.61.64-1.531 0-.672-.36-1.14-.358-.485-1.14-.766zm-1.984 4.031v-4.047q-.922.078-1.375.469-.703.578-.703 1.515 0 .86.562 1.438.563.562 1.516.625zm1.672-11.797.156-1.219q1.25.203 1.969 1.032.703.812.703 2 0 1.484-.969 2.39-.984.906-2.812.906-1.172 0-2.047-.39-.89-.39-1.328-1.188-.438-.797-.438-1.734 0-1.172.594-1.922.594-.766 1.703-.969l.188 1.188q-.735.172-1.094.61-.375.437-.375 1.046 0 .938.672 1.516.656.578 2.093.578 1.47 0 2.141-.563.656-.562.656-1.453 0-.734-.437-1.219-.453-.484-1.375-.609zm2.656-7.031h-1.062q1.234.86 1.234 2.312 0 .641-.25 1.203-.25.547-.625.829-.375.265-.906.375-.36.078-1.157.078h-4.5v-1.235h4.032q.968 0 1.297-.078.484-.11.765-.484.281-.375.281-.938 0-.547-.28-1.03-.298-.485-.782-.688-.484-.204-1.422-.204h-3.89v-1.234h7.265zm-1.094-5.922 1.078-.172q.11.516.11.922 0 .672-.203 1.047-.22.36-.563.515-.344.141-1.453.141h-4.172v.906h-.969v-.906h-1.796l-.735-1.219h2.531v-1.234h.97v1.234h4.234q.53 0 .687-.062.14-.063.234-.203.094-.157.094-.422 0-.219-.047-.547zm-7.515-1.328h-1.407v-1.219h1.407zm8.609 0h-7.266v-1.219h7.266zm-3.625-2.531q-2.016 0-3-1.125-.797-.922-.797-2.282 0-1.484.985-2.437.968-.953 2.703-.953 1.406 0 2.218.422.797.421 1.25 1.234.438.797.438 1.734 0 1.532-.984 2.47-.985.937-2.813.937zm0-1.266q1.39 0 2.094-.61.687-.609.687-1.53 0-.907-.703-1.516-.703-.61-2.125-.61-1.344 0-2.031.61-.703.61-.703 1.515 0 .922.687 1.532.688.609 2.094.609zm3.625-7.188h-7.266v-1.109h1.032q-1.188-.797-1.188-2.312 0-.657.235-1.204.234-.546.625-.812.375-.281.906-.39.344-.079 1.187-.079h4.469v1.235h-4.422q-.75 0-1.11.14-.374.14-.593.516-.234.36-.234.86 0 .78.5 1.359.5.562 1.89.562h3.969zm-1.094-14.687 1.078-.172q.11.516.11.922 0 .672-.203 1.047-.22.36-.563.515-.344.141-1.453.141h-4.172v.906h-.969v-.906h-1.796l-.735-1.219h2.531v-1.234h.97v1.234h4.234q.53 0 .687-.062.14-.063.234-.203.094-.157.094-.422 0-.219-.047-.547zm-7.515-1.328h-1.407v-1.219h1.407zm8.609 0h-7.266v-1.219h7.266zm0-2.985h-7.266v-1.109h1.032q-.547-.328-.86-.89-.328-.579-.328-1.297 0-.813.344-1.329.328-.515.922-.734-1.266-.86-1.266-2.234 0-1.078.594-1.657.594-.593 1.844-.593h4.984v1.234h-4.578q-.734 0-1.063.125-.328.11-.515.422-.203.312-.203.734 0 .766.515 1.282.5.5 1.625.5h4.219v1.234h-4.719q-.812 0-1.218.297-.422.297-.422.984 0 .516.28.969.267.437.798.64.515.188 1.515.188h3.766zm-2.344-16.968.157-1.282q1.125.313 1.75 1.125.609.813.609 2.079 0 1.593-.984 2.53-.985.923-2.75.923-1.844 0-2.844-.938-1.016-.953-1.016-2.453 0-1.453 1-2.375.985-.922 2.781-.922h.329v5.422q1.187-.078 1.828-.672.64-.61.64-1.531 0-.672-.36-1.14-.358-.485-1.14-.766zm-1.984 4.031v-4.047q-.922.078-1.375.469-.703.578-.703 1.515 0 .86.562 1.438.563.562 1.516.625zm4.5-10.14-10.36-2.907v-.984l10.36 2.906v.984zm-2.344-8.438-.187-1.203q.734-.11 1.125-.578.39-.47.39-1.313 0-.844-.343-1.25-.344-.422-.813-.422-.422 0-.656.375-.172.25-.422 1.25-.344 1.36-.594 1.89-.25.516-.687.782-.438.266-.97.266-.483 0-.89-.219-.422-.219-.703-.61-.203-.28-.344-.765-.156-.5-.156-1.078 0-.844.25-1.485.235-.656.656-.968.422-.313 1.125-.422l.172 1.203q-.562.078-.875.484-.312.391-.312 1.11 0 .843.281 1.203.266.36.656.36.235 0 .422-.141.203-.157.328-.485.063-.172.313-1.078.36-1.312.578-1.828.219-.516.64-.797.422-.297 1.047-.297t1.172.36q.532.343.844 1.03.297.673.297 1.532 0 1.406-.594 2.156-.594.735-1.75.938zm-.484-12.219.156-1.219q1.25.203 1.969 1.032.703.812.703 2 0 1.484-.969 2.39-.984.906-2.812.906-1.172 0-2.047-.39-.89-.39-1.328-1.188-.438-.797-.438-1.734 0-1.172.594-1.922.594-.766 1.703-.969l.188 1.188q-.735.172-1.094.61-.375.437-.375 1.046 0 .938.672 1.516.656.578 2.093.578 1.47 0 2.141-.563.656-.562.656-1.453 0-.734-.437-1.219-.453-.484-1.375-.609zm-.969-1.812q-2.016 0-3-1.125-.797-.922-.797-2.282 0-1.484.985-2.437.968-.953 2.703-.953 1.406 0 2.218.422.797.421 1.25 1.234.438.797.438 1.734 0 1.532-.984 2.47-.985.937-2.813.937zm0-1.266q1.39 0 2.094-.61.687-.609.687-1.53 0-.907-.703-1.516-.703-.61-2.125-.61-1.344 0-2.031.61-.703.61-.703 1.515 0 .922.687 1.532.688.609 2.094.609zm3.625-7.172h-7.266v-1.11h1.11q-.781-.421-1.016-.78-.25-.36-.25-.797 0-.625.39-1.266l1.141.422q-.265.453-.265.906 0 .406.25.734.234.313.672.454.656.203 1.437.203h3.797zm-2.344-9.984.157-1.282q1.125.313 1.75 1.125.609.813.609 2.079 0 1.593-.984 2.53-.985.923-2.75.923-1.844 0-2.844-.938-1.016-.953-1.016-2.453 0-1.453 1-2.375.985-.922 2.781-.922h.329v5.422q1.187-.078 1.828-.672.64-.61.64-1.531 0-.672-.36-1.14-.358-.485-1.14-.766zm-1.984 4.031v-4.047q-.922.078-1.375.469-.703.578-.703 1.515 0 .86.562 1.438.563.562 1.516.625zm42.828 292.892q0-1.532.313-2.454.312-.937.921-1.437.625-.5 1.563-.5.687 0 1.203.281.531.281.875.813.344.515.531 1.265.188.75.188 2.032 0 1.515-.313 2.437-.297.922-.922 1.438-.609.5-1.562.5-1.234 0-1.953-.891-.844-1.063-.844-3.484zm1.078 0q0 2.109.5 2.812.5.703 1.219.703.734 0 1.219-.703.5-.703.5-2.812 0-2.125-.5-2.813-.485-.703-1.235-.703-.719 0-1.156.61-.547.78-.547 2.906zm-1.078-87.024 1.11-.094q.124.812.562 1.219.453.406 1.094.406.75 0 1.28-.578.532-.578.532-1.516 0-.906-.516-1.422-.5-.53-1.328-.53-.5 0-.922.233-.406.235-.64.594l-.984-.125.828-4.406h4.28v1h-3.436l-.453 2.312q.766-.546 1.61-.546 1.125 0 1.89.78.781.782.781 2.016 0 1.157-.671 2.016-.829 1.031-2.25 1.031-1.172 0-1.922-.656-.735-.656-.844-1.734zm-3.031-86.759h-1.047v-6.718q-.39.359-1.016.734-.61.36-1.094.531v-1.015q.876-.422 1.532-1 .672-.594.953-1.157h.672zm3.031-4.234q0-1.531.313-2.453.312-.938.921-1.438.625-.5 1.563-.5.687 0 1.203.282.531.28.875.812.344.516.531 1.266.188.75.188 2.03 0 1.517-.313 2.438-.297.922-.922 1.438-.609.5-1.562.5-1.234 0-1.953-.89-.844-1.063-.844-3.485zm1.078 0q0 2.11.5 2.812.5.704 1.219.704.734 0 1.219-.704.5-.703.5-2.812 0-2.125-.5-2.813-.485-.703-1.235-.703-.719 0-1.156.61-.547.78-.547 2.906zm-4.109-84.774h-1.047v-6.719q-.39.36-1.016.735-.61.359-1.094.53v-1.015q.876-.422 1.532-1 .672-.593.953-1.156h.672zm3.031-2.25 1.11-.094q.124.813.562 1.219.453.406 1.094.406.75 0 1.28-.578.532-.578.532-1.515 0-.907-.516-1.422-.5-.532-1.328-.532-.5 0-.922.235-.406.234-.64.594l-.984-.125.828-4.407h4.28v1h-3.436l-.453 2.313q.766-.547 1.61-.547 1.125 0 1.89.781.781.781.781 2.016 0 1.156-.671 2.015-.829 1.032-2.25 1.032-1.172 0-1.922-.657-.735-.656-.844-1.734zm-1.453-87.774v1.016h-5.688q0-.375.125-.735.22-.578.688-1.14.484-.563 1.39-1.297 1.407-1.156 1.891-1.828.5-.672.5-1.266 0-.625-.453-1.047-.453-.437-1.172-.437-.766 0-1.219.453-.453.453-.468 1.265l-1.079-.109q.11-1.219.829-1.844.734-.64 1.968-.64 1.235 0 1.953.687.72.688.72 1.703 0 .516-.22 1.016-.203.484-.703 1.047-.484.547-1.609 1.5-.953.797-1.234 1.094-.266.28-.438.562zm1.453-3.219q0-1.531.313-2.453.312-.937.921-1.437.625-.5 1.563-.5.687 0 1.203.28.531.282.875.813.344.516.531 1.266.188.75.188 2.031 0 1.516-.313 2.438-.297.922-.922 1.437-.609.5-1.562.5-1.234 0-1.953-.89-.844-1.063-.844-3.485zm1.078 0q0 2.11.5 2.813.5.703 1.219.703.734 0 1.219-.703.5-.703.5-2.813 0-2.125-.5-2.812-.485-.703-1.235-.703-.719 0-1.156.609-.547.781-.547 2.906zm50.51 371.784 1.172-.11q.078.703.375 1.156.313.438.938.72.64.265 1.437.265.703 0 1.235-.203.547-.203.812-.563.266-.375.266-.812 0-.438-.266-.766-.25-.328-.828-.547-.375-.14-1.656-.453-1.281-.312-1.797-.578-.672-.344-1-.86-.328-.53-.328-1.171 0-.703.39-1.313.407-.61 1.172-.922.782-.328 1.72-.328 1.03 0 1.812.344.796.328 1.218.984.438.641.47 1.453l-1.188.094q-.094-.89-.641-1.328-.547-.453-1.625-.453-1.11 0-1.625.406-.516.406-.516.985 0 .5.36.828.36.328 1.86.672 1.5.328 2.062.578.812.375 1.187.953.39.578.39 1.328 0 .734-.421 1.39-.422.657-1.219 1.032-.797.36-1.797.36-1.265 0-2.125-.36-.844-.375-1.328-1.11-.484-.75-.516-1.671zm13.704 2.984v-.984q-.797 1.14-2.141 1.14-.594 0-1.125-.234-.516-.235-.766-.578-.25-.344-.343-.844-.079-.328-.079-1.063v-4.171h1.141v3.734q0 .89.078 1.203.11.453.453.719.344.25.86.25.515 0 .968-.266.454-.265.641-.719.188-.453.188-1.312v-3.61h1.14v6.735zm2.578 0v-6.734h1.031v.953q.734-1.11 2.14-1.11.61 0 1.11.22.516.218.766.577.265.344.359.844.062.313.062 1.11v4.14h-1.14v-4.094q0-.703-.14-1.047-.126-.343-.47-.547-.328-.218-.78-.218-.735 0-1.266.469-.532.453-.532 1.75v3.687zm6.547-2.016 1.125-.172q.093.672.53 1.047.438.36 1.22.36.78 0 1.156-.313.39-.328.39-.765 0-.391-.343-.61-.235-.156-1.172-.39-1.25-.313-1.735-.547-.484-.235-.734-.64-.25-.407-.25-.907 0-.453.203-.828.203-.39.563-.64.265-.204.718-.329.47-.14 1-.14.782 0 1.375.234.61.219.891.61.297.39.406 1.046l-1.125.156q-.078-.531-.437-.812-.36-.297-1.031-.297-.782 0-1.125.265-.344.25-.344.61 0 .219.14.39.141.188.438.313.172.063 1.016.281 1.218.328 1.687.531.484.204.75.61.281.39.281.969 0 .578-.343 1.078-.329.5-.954.781t-1.421.281q-1.313 0-2-.547-.688-.547-.875-1.625zm7.453 4.594v-9.312h1.031v.875q.375-.516.828-.766.469-.266 1.14-.266.86 0 1.516.453.657.438.985 1.25.343.797.343 1.766 0 1.031-.375 1.86-.359.828-1.078 1.28-.703.438-1.484.438-.563 0-1.016-.234-.453-.25-.75-.625v3.281zm1.031-5.906q0 1.297.531 1.922t1.266.625q.765 0 1.312-.64.547-.657.547-2 0-1.298-.531-1.938-.531-.641-1.266-.641-.734 0-1.297.688-.562.671-.562 1.984zm5.969-4.656v-1.329h1.14v1.329zm0 7.984v-6.734h1.14v6.734zm7.375 0v-.844q-.64 1-1.89 1-.798 0-1.485-.437-.672-.453-1.047-1.25-.375-.797-.375-1.828 0-1.016.344-1.829.343-.828 1.015-1.265.672-.438 1.5-.438.61 0 1.078.266.485.25.782.656v-3.344h1.14v9.313zm-3.61-3.36q0 1.298.532 1.938.546.64 1.296.64t1.266-.609q.531-.625.531-1.875 0-1.39-.53-2.03-.532-.657-1.313-.657-.766 0-1.282.625-.5.625-.5 1.969zm10.844 1.188 1.188.14q-.282 1.048-1.047 1.626-.75.562-1.922.562-1.485 0-2.36-.906-.859-.922-.859-2.563 0-1.703.875-2.64.89-.938 2.281-.938 1.36 0 2.203.922.86.922.86 2.578v.313h-5.031q.062 1.11.625 1.703.562.594 1.406.594.64 0 1.078-.328.453-.344.703-1.063zm-3.75-1.844h3.766q-.078-.859-.438-1.28-.547-.657-1.406-.657-.797 0-1.328.531-.531.516-.594 1.406zm6.125 4.016v-6.734h1.031v1.015q.391-.719.72-.937.343-.235.733-.235.579 0 1.172.36l-.39 1.062q-.422-.25-.828-.25-.375 0-.688.235-.297.218-.422.625-.187.609-.187 1.328v3.531h-1.14zm3.156.156 2.703-9.625h.907l-2.688 9.625zm4.407-2.172 1.125-.172q.093.672.53 1.047.438.36 1.22.36.78 0 1.156-.313.39-.328.39-.765 0-.391-.343-.61-.235-.156-1.172-.39-1.25-.313-1.735-.547-.484-.235-.734-.64-.25-.407-.25-.907 0-.453.203-.828.203-.39.563-.64.265-.204.718-.329.47-.14 1-.14.782 0 1.375.234.61.219.891.61.297.39.406 1.046l-1.125.156q-.078-.531-.437-.812-.36-.297-1.031-.297-.782 0-1.125.265-.344.25-.344.61 0 .219.14.39.141.188.438.313.172.063 1.016.281 1.218.328 1.687.531.484.204.75.61.281.39.281.969 0 .578-.343 1.078-.329.5-.954.781t-1.421.281q-1.313 0-2-.547-.688-.547-.875-1.625zm9.953 1 .156 1q-.484.11-.86.11-.624 0-.968-.203-.344-.204-.485-.516-.14-.328-.14-1.344v-3.89h-.828v-.875h.828v-1.672l1.14-.688v2.36h1.157v.875h-1.157v3.953q0 .484.063.625.062.14.187.219.141.078.391.078.203 0 .516-.032zm1.484 1.016v-6.734h1.031v1.015q.391-.719.72-.937.343-.235.733-.235.579 0 1.172.36l-.39 1.062q-.422-.25-.828-.25-.375 0-.688.235-.297.218-.422.625-.187.609-.187 1.328v3.531h-1.14zm4.016-7.984v-1.329h1.14v1.329zm0 7.984v-6.734h1.14v6.734zm3 0v-6.734h1.031v.953q.734-1.11 2.14-1.11.61 0 1.11.22.516.218.766.577.265.344.359.844.062.313.062 1.11v4.14h-1.14v-4.094q0-.703-.14-1.047-.126-.343-.47-.547-.328-.218-.78-.218-.735 0-1.266.469-.532.453-.532 1.75v3.687zm6.781.563 1.125.156q.062.515.375.75.437.328 1.172.328.781 0 1.219-.328.437-.313.578-.89.093-.345.093-1.454-.75.875-1.875.875-1.39 0-2.156-1-.75-1-.75-2.406 0-.969.344-1.781.36-.813 1.016-1.25.656-.454 1.562-.454 1.188 0 1.969.97v-.813h1.047v5.812q0 1.578-.328 2.234-.313.657-1.016 1.032-.688.39-1.703.39-1.203 0-1.953-.547-.735-.53-.719-1.625zm.953-4.047q0 1.312.516 1.921.531.61 1.328.61t1.328-.594q.531-.61.531-1.906 0-1.235-.547-1.86-.547-.64-1.328-.64-.765 0-1.297.625-.53.625-.53 1.844zm5.813.687v-1.14h3.515v1.14zm4.718 2.797v-5.86h-1v-.874h1v-.72q0-.687.125-1.015.172-.437.578-.719.422-.28 1.172-.28.485 0 1.063.124l-.172.985q-.36-.063-.672-.063-.516 0-.734.234-.219.22-.219.829v.625h1.312v.875h-1.312v5.859h-1.14zm8.125-.828q-.625.531-1.218.765-.579.22-1.25.22-1.125 0-1.72-.548-.593-.547-.593-1.39 0-.485.219-.89.234-.423.594-.673.375-.25.828-.375.328-.078 1.015-.172 1.375-.156 2.032-.39.015-.235.015-.297 0-.703-.328-.985-.437-.39-1.297-.39-.812 0-1.203.281-.375.281-.562 1l-1.11-.14q.14-.72.485-1.157.359-.453 1.015-.687.672-.235 1.531-.235.875 0 1.407.203.547.204.797.516.25.297.359.766.047.297.047 1.062v1.516q0 1.594.078 2.015.078.422.281.813h-1.187q-.172-.36-.235-.828zm-.093-2.563q-.625.266-1.86.438-.703.11-1 .234-.297.125-.453.375-.156.235-.156.531 0 .454.344.766.343.297 1.015.297.656 0 1.172-.281.516-.297.766-.797.172-.375.172-1.14zm2.25 1.375 1.125-.172q.093.672.53 1.047.438.36 1.22.36.78 0 1.156-.313.39-.328.39-.765 0-.391-.343-.61-.235-.156-1.172-.39-1.25-.313-1.735-.547-.484-.235-.734-.64-.25-.407-.25-.907 0-.453.203-.828.203-.39.563-.64.265-.204.718-.329.47-.14 1-.14.782 0 1.375.234.61.219.891.61.297.39.406 1.046l-1.125.156q-.078-.531-.437-.812-.36-.297-1.031-.297-.782 0-1.125.265-.344.25-.344.61 0 .219.14.39.141.188.438.313.172.063 1.016.281 1.218.328 1.687.531.484.204.75.61.281.39.281.969 0 .578-.343 1.078-.329.5-.954.781t-1.421.281q-1.313 0-2-.547-.688-.547-.875-1.625zm9.953 1 .156 1q-.484.11-.86.11-.624 0-.968-.203-.344-.204-.485-.516-.14-.328-.14-1.344v-3.89h-.828v-.875h.828v-1.672l1.14-.688v2.36h1.157v.875h-1.157v3.953q0 .484.063.625.062.14.187.219.141.078.391.078.203 0 .516-.032zm5.89.188q-.625.531-1.218.765-.579.22-1.25.22-1.125 0-1.72-.548-.593-.547-.593-1.39 0-.485.219-.89.234-.423.594-.673.375-.25.828-.375.328-.078 1.015-.172 1.375-.156 2.032-.39.015-.235.015-.297 0-.703-.328-.985-.437-.39-1.297-.39-.812 0-1.203.281-.375.281-.562 1l-1.11-.14q.14-.72.485-1.157.359-.453 1.015-.687.672-.235 1.531-.235.875 0 1.407.203.547.204.797.516.25.297.359.766.047.297.047 1.062v1.516q0 1.594.078 2.015.078.422.281.813h-1.187q-.172-.36-.235-.828zm-.093-2.563q-.625.266-1.86.438-.703.11-1 .234-.297.125-.453.375-.156.235-.156.531 0 .454.344.766.343.297 1.015.297.656 0 1.172-.281.516-.297.766-.797.172-.375.172-1.14zm37.845.751 1.11-.157q.046 1.063.39 1.469.36.39 1 .39.453 0 .781-.203.344-.218.469-.578.14-.375.14-1.172v-6.422h1.22v6.344q0 1.172-.282 1.813-.281.64-.89.984-.61.328-1.438.328-1.219 0-1.875-.703-.656-.703-.625-2.094zm12.094.468 1.187.14q-.281 1.048-1.047 1.626-.75.562-1.922.562-1.484 0-2.36-.906-.858-.922-.858-2.563 0-1.703.875-2.64.89-.938 2.28-.938 1.36 0 2.204.922.86.922.86 2.578v.313h-5.032q.063 1.11.625 1.703.563.594 1.406.594.64 0 1.078-.328.454-.344.704-1.063zm-3.75-1.844h3.765q-.078-.859-.437-1.28-.547-.657-1.407-.657-.796 0-1.328.531-.531.516-.593 1.406zm8.64 3 .156 1q-.484.11-.859.11-.625 0-.969-.203-.343-.204-.484-.516-.14-.328-.14-1.344v-3.89h-.829v-.875h.829v-1.672l1.14-.688v2.36h1.157v.875h-1.156v3.953q0 .484.062.625.063.14.188.219.14.078.39.078.204 0 .516-.032zm1.047-1 1.125-.172q.094.672.531 1.047.438.36 1.219.36.781 0 1.156-.313.39-.328.39-.765 0-.391-.343-.61-.234-.156-1.172-.39-1.25-.313-1.734-.547-.484-.235-.734-.64-.25-.407-.25-.907 0-.453.203-.828.203-.39.562-.64.266-.204.719-.329.469-.14 1-.14.781 0 1.375.234.61.219.89.61.297.39.407 1.046l-1.125.156q-.078-.531-.438-.812-.36-.297-1.031-.297-.781 0-1.125.265-.344.25-.344.61 0 .219.14.39.142.188.438.313.172.063 1.016.281 1.219.328 1.688.531.484.204.75.61.28.39.28.969 0 .578-.343 1.078-.328.5-.953.781t-1.422.281q-1.312 0-2-.547-.687-.547-.875-1.625zm9.953 1 .156 1q-.484.11-.859.11-.625 0-.969-.203-.343-.204-.484-.516-.14-.328-.14-1.344v-3.89h-.829v-.875h.829v-1.672l1.14-.688v2.36h1.157v.875h-1.156v3.953q0 .484.062.625.063.14.188.219.14.078.39.078.204 0 .516-.032zm1.485 1.016v-6.734h1.03v1.015q.391-.719.72-.937.343-.235.734-.235.578 0 1.172.36l-.39 1.062q-.423-.25-.829-.25-.375 0-.687.235-.297.218-.422.625-.188.609-.188 1.328v3.531zm8.625-2.172 1.187.14q-.281 1.048-1.047 1.626-.75.562-1.922.562-1.484 0-2.36-.906-.858-.922-.858-2.563 0-1.703.875-2.64.89-.938 2.28-.938 1.36 0 2.204.922.86.922.86 2.578v.313h-5.032q.063 1.11.625 1.703.563.594 1.406.594.64 0 1.078-.328.454-.344.704-1.063zm-3.75-1.844h3.765q-.078-.859-.437-1.28-.547-.657-1.407-.657-.796 0-1.328.531-.531.516-.593 1.406zm10.53 3.188q-.624.531-1.218.765-.578.22-1.25.22-1.125 0-1.719-.548-.593-.547-.593-1.39 0-.485.218-.89.235-.423.594-.673.375-.25.828-.375.328-.078 1.016-.172 1.375-.156 2.031-.39.016-.235.016-.297 0-.703-.328-.985-.438-.39-1.297-.39-.813 0-1.203.281-.375.281-.563 1l-1.11-.14q.141-.72.485-1.157.36-.453 1.016-.687.672-.235 1.53-.235.876 0 1.407.203.547.204.797.516.25.297.36.766.046.297.046 1.062v1.516q0 1.594.078 2.015.079.422.282.813h-1.188q-.172-.36-.234-.828zm-.093-2.563q-.625.266-1.86.438-.702.11-1 .234-.296.125-.452.375-.157.235-.157.531 0 .454.344.766.344.297 1.016.297.656 0 1.172-.281.515-.297.765-.797.172-.375.172-1.14zm2.703 3.391v-6.734h1.016v.937q.328-.5.844-.797.53-.297 1.203-.297.75 0 1.218.313.485.312.688.86.797-1.173 2.078-1.173 1 0 1.531.563.547.547.547 1.703v4.625h-1.125v-4.25q0-.688-.11-.984-.109-.297-.405-.485-.297-.187-.688-.187-.719 0-1.187.484-.47.469-.47 1.5v3.922h-1.14v-4.375q0-.766-.281-1.14-.281-.391-.906-.391-.485 0-.891.265-.406.25-.594.735-.187.484-.187 1.406v3.5h-1.14zm10.14.156 2.704-9.625h.906l-2.687 9.625h-.922zm5.907-.156h-1.062v-9.313h1.156v3.329q.719-.907 1.844-.907.625 0 1.171.25.563.25.922.703.36.454.563 1.094.203.64.203 1.375 0 1.735-.86 2.688-.859.937-2.062.937-1.187 0-1.875-1zm-.016-3.422q0 1.219.344 1.75.531.89 1.453.89.75 0 1.297-.656.547-.656.547-1.937 0-1.328-.531-1.953-.516-.625-1.266-.625t-1.297.656q-.547.64-.547 1.875zm10.36 2.594q-.625.531-1.219.765-.578.22-1.25.22-1.125 0-1.719-.548-.593-.547-.593-1.39 0-.485.218-.89.235-.423.594-.673.375-.25.828-.375.328-.078 1.016-.172 1.375-.156 2.031-.39.016-.235.016-.297 0-.703-.328-.985-.438-.39-1.297-.39-.813 0-1.203.281-.375.281-.563 1l-1.11-.14q.141-.72.485-1.157.36-.453 1.016-.687.672-.235 1.53-.235.876 0 1.407.203.547.204.797.516.25.297.36.766.046.297.046 1.062v1.516q0 1.594.078 2.015.079.422.282.813h-1.188q-.172-.36-.234-.828zm-.094-2.563q-.625.266-1.86.438-.702.11-1 .234-.296.125-.452.375-.157.235-.157.531 0 .454.344.766.344.297 1.016.297.656 0 1.172-.281.515-.297.765-.797.172-.375.172-1.14zm2.25 1.375 1.125-.172q.094.672.531 1.047.438.36 1.219.36.781 0 1.156-.313.39-.328.39-.765 0-.391-.343-.61-.234-.156-1.172-.39-1.25-.313-1.734-.547-.484-.235-.734-.64-.25-.407-.25-.907 0-.453.203-.828.203-.39.562-.64.266-.204.719-.329.469-.14 1-.14.781 0 1.375.234.61.219.89.61.297.39.407 1.046l-1.125.156q-.078-.531-.438-.812-.36-.297-1.031-.297-.781 0-1.125.265-.344.25-.344.61 0 .219.14.39.142.188.438.313.172.063 1.016.281 1.219.328 1.688.531.484.204.75.61.28.39.28.969 0 .578-.343 1.078-.328.5-.953.781t-1.422.281q-1.312 0-2-.547-.687-.547-.875-1.625zm12.063-.156 1.187.14q-.281 1.048-1.047 1.626-.75.562-1.922.562-1.484 0-2.36-.906-.858-.922-.858-2.563 0-1.703.875-2.64.89-.938 2.28-.938 1.36 0 2.204.922.86.922.86 2.578v.313h-5.032q.063 1.11.625 1.703.563.594 1.406.594.64 0 1.078-.328.454-.344.704-1.063zm-3.75-1.844h3.765q-.078-.859-.437-1.28-.547-.657-1.407-.657-.796 0-1.328.531-.531.516-.593 1.406zm11.75-3.015-1.141.094q-.14-.672-.422-.985-.469-.484-1.14-.484-.547 0-.97.312-.53.39-.843 1.14-.313.75-.328 2.157.406-.625 1-.922.61-.312 1.265-.312 1.141 0 1.938.844.812.828.812 2.171 0 .875-.39 1.625-.375.75-1.031 1.157-.657.39-1.5.39-1.422 0-2.329-1.047-.906-1.047-.906-3.468 0-2.688 1-3.922.875-1.063 2.344-1.063 1.094 0 1.797.625.703.61.844 1.688zm-4.672 4.015q0 .594.25 1.141.25.531.703.813.453.28.953.28.719 0 1.234-.577.532-.594.532-1.594 0-.969-.516-1.516-.516-.562-1.297-.562-.781 0-1.328.562-.531.547-.531 1.453zm9.406 3.016v-2.234h-4.031v-1.047l4.234-6.031h.938v6.03h1.265v1.048h-1.265v2.234zm0-3.281v-4.188l-2.922 4.188zm44.501.297 1.172-.11q.078.703.375 1.156.313.438.938.72.64.265 1.437.265.703 0 1.235-.203.546-.203.812-.563.266-.375.266-.812 0-.438-.266-.766-.25-.328-.828-.547-.375-.14-1.656-.453-1.282-.312-1.797-.578-.672-.344-1-.86-.328-.53-.328-1.171 0-.703.39-1.313.407-.61 1.172-.922.781-.328 1.719-.328 1.031 0 1.812.344.797.328 1.22.984.437.641.468 1.453l-1.188.094q-.093-.89-.64-1.328-.547-.453-1.625-.453-1.11 0-1.625.406-.516.406-.516.985 0 .5.36.828.359.328 1.859.672 1.5.328 2.062.578.813.375 1.188.953.39.578.39 1.328 0 .734-.421 1.39-.422.657-1.219 1.032-.797.36-1.797.36-1.266 0-2.125-.36-.844-.375-1.328-1.11-.484-.75-.516-1.671zm13.703 2.984v-.984q-.796 1.14-2.14 1.14-.594 0-1.125-.234-.516-.235-.766-.578-.25-.344-.344-.844-.078-.328-.078-1.063v-4.171h1.141v3.734q0 .89.078 1.203.11.453.453.719.344.25.86.25.515 0 .968-.266.453-.265.641-.719.187-.453.187-1.312v-3.61h1.141v6.735zm2.579 0v-6.734h1.03v.953q.735-1.11 2.141-1.11.61 0 1.11.22.515.218.765.577.266.344.36.844.062.313.062 1.11v4.14h-1.14v-4.094q0-.703-.14-1.047-.126-.343-.47-.547-.328-.218-.78-.218-.735 0-1.267.469-.53.453-.53 1.75v3.687zm6.546-2.016 1.125-.172q.094.672.532 1.047.437.36 1.218.36.782 0 1.157-.313.39-.328.39-.765 0-.391-.343-.61-.235-.156-1.172-.39-1.25-.313-1.735-.547-.484-.235-.734-.64-.25-.407-.25-.907 0-.453.203-.828.203-.39.563-.64.265-.204.718-.329.47-.14 1-.14.782 0 1.375.234.61.219.891.61.297.39.406 1.046l-1.125.156q-.078-.531-.437-.812-.36-.297-1.032-.297-.78 0-1.125.265-.343.25-.343.61 0 .219.14.39.141.188.438.313.172.063 1.015.281 1.22.328 1.688.531.484.204.75.61.281.39.281.969 0 .578-.344 1.078-.328.5-.953.781t-1.422.281q-1.312 0-2-.547-.687-.547-.875-1.625zm7.454 4.594v-9.312h1.03v.875q.376-.516.829-.766.469-.266 1.14-.266.86 0 1.516.453.656.438.985 1.25.343.797.343 1.766 0 1.031-.375 1.86-.359.828-1.078 1.28-.703.438-1.484.438-.563 0-1.016-.234-.453-.25-.75-.625v3.281zm1.03-5.906q0 1.297.532 1.922.531.625 1.266.625.765 0 1.312-.64.547-.657.547-2 0-1.298-.531-1.938-.531-.641-1.266-.641-.734 0-1.297.688-.562.671-.562 1.984zm5.97-4.656v-1.329h1.14v1.329zm0 7.984v-6.734h1.14v6.734zm7.375 0v-.844q-.641 1-1.891 1-.797 0-1.484-.437-.672-.453-1.047-1.25-.375-.797-.375-1.828 0-1.016.343-1.829.344-.828 1.016-1.265.672-.438 1.5-.438.61 0 1.078.266.485.25.781.656v-3.344h1.141v9.313zm-3.61-3.36q0 1.298.531 1.938.547.64 1.297.64.75 0 1.266-.609.531-.625.531-1.875 0-1.39-.531-2.03-.531-.657-1.313-.657-.765 0-1.28.625-.5.625-.5 1.969zm10.844 1.188 1.187.14q-.28 1.048-1.046 1.626-.75.562-1.922.562-1.485 0-2.36-.906-.859-.922-.859-2.563 0-1.703.875-2.64.89-.938 2.281-.938 1.36 0 2.203.922.86.922.86 2.578v.313h-5.032q.063 1.11.625 1.703.563.594 1.407.594.64 0 1.078-.328.453-.344.703-1.063zm-3.75-1.844h3.766q-.079-.859-.438-1.28-.547-.657-1.406-.657-.797 0-1.328.531-.532.516-.594 1.406zm6.125 4.016v-6.734h1.031v1.015q.39-.719.719-.937.344-.235.734-.235.578 0 1.172.36l-.39 1.062q-.422-.25-.829-.25-.375 0-.687.235-.297.218-.422.625-.187.609-.187 1.328v3.531zm3.156.156 2.703-9.625h.907l-2.688 9.625zm4.547-2.61 1.14-.155q.204.968.673 1.406.468.422 1.156.422.797 0 1.344-.547.562-.563.562-1.39 0-.798-.516-1.298-.5-.515-1.296-.515-.329 0-.813.125l.125-1q.125.015.188.015.734 0 1.312-.375.594-.39.594-1.187 0-.625-.438-1.031-.422-.422-1.093-.422-.672 0-1.11.422-.437.421-.578 1.25l-1.14-.204q.218-1.14.953-1.765.75-.64 1.843-.64.766 0 1.407.327.64.328.984.891t.344 1.203q0 .594-.328 1.094-.329.5-.954.781.813.203 1.266.797.469.594.469 1.5 0 1.219-.89 2.078-.891.844-2.25.844-1.22 0-2.032-.735-.813-.734-.922-1.89zm11.688 2.454v-.844q-.641 1-1.891 1-.797 0-1.484-.437-.672-.453-1.047-1.25-.375-.797-.375-1.828 0-1.016.343-1.829.344-.828 1.016-1.265.672-.438 1.5-.438.61 0 1.078.266.485.25.781.656v-3.344h1.141v9.313zm-3.61-3.36q0 1.298.531 1.938.547.64 1.297.64.75 0 1.266-.609.531-.625.531-1.875 0-1.39-.531-2.03-.531-.657-1.313-.657-.765 0-1.28.625-.5.625-.5 1.969zm5.781.563v-1.14h3.516v1.14zm4.454 2.797v-6.734h1.015v.937q.328-.5.844-.797.531-.297 1.203-.297.75 0 1.219.313.484.312.687.86.797-1.173 2.079-1.173 1 0 1.53.563.548.547.548 1.703v4.625h-1.125v-4.25q0-.688-.11-.984-.11-.297-.406-.485-.297-.187-.688-.187-.718 0-1.187.484-.469.469-.469 1.5v3.922h-1.14v-4.375q0-.766-.282-1.14-.28-.391-.906-.391-.484 0-.89.265-.407.25-.594.735-.188.484-.188 1.406v3.5zm10.578-3.375q0-1.875 1.031-2.766.875-.75 2.125-.75 1.39 0 2.266.907.89.906.89 2.515 0 1.297-.39 2.047-.391.75-1.141 1.172-.75.406-1.625.406-1.422 0-2.297-.906-.86-.906-.86-2.625zm1.172 0q0 1.297.562 1.953.563.64 1.422.64.844 0 1.406-.64.578-.656.578-1.984 0-1.25-.578-1.89-.562-.657-1.406-.657-.86 0-1.422.64-.562.641-.562 1.938zm6.234 3.375v-6.734h1.031v1.015q.39-.719.719-.937.344-.235.734-.235.579 0 1.172.36l-.39 1.062q-.422-.25-.828-.25-.375 0-.688.235-.297.218-.422.625-.187.609-.187 1.328v3.531zm4.016 2.578v-9.312h1.03v.875q.376-.516.829-.766.469-.266 1.14-.266.86 0 1.516.453.657.438.985 1.25.343.797.343 1.766 0 1.031-.375 1.86-.359.828-1.078 1.28-.703.438-1.484.438-.563 0-1.016-.234-.453-.25-.75-.625v3.281zm1.03-5.906q0 1.297.532 1.922.531.625 1.266.625.765 0 1.312-.64.547-.657.547-2 0-1.298-.531-1.938-.531-.641-1.266-.641-.734 0-1.297.688-.562.671-.562 1.984zm5.97 3.328v-9.313h1.14v3.344q.797-.922 2.016-.922.75 0 1.297.297.562.297.797.813.234.515.234 1.515v4.266h-1.14v-4.266q0-.859-.376-1.25-.359-.39-1.046-.39-.5 0-.954.265-.453.25-.64.703-.188.454-.188 1.25v3.688zm26.22 0v-9.313h1.234v4.625l4.625-4.625h1.656l-3.89 3.782 4.062 5.531h-1.625l-3.312-4.703-1.516 1.484v3.219zm8.89 0v-6.734h1.032v1.015q.39-.719.718-.937.344-.235.735-.235.578 0 1.172.36l-.391 1.062q-.422-.25-.828-.25-.375 0-.688.235-.297.218-.422.625-.187.609-.187 1.328v3.531h-1.14zm8.407-.828q-.625.531-1.22.765-.577.22-1.25.22-1.124 0-1.718-.548-.594-.547-.594-1.39 0-.485.22-.89.233-.423.593-.673.375-.25.828-.375.328-.078 1.016-.172 1.375-.156 2.03-.39.016-.235.016-.297 0-.703-.328-.985-.437-.39-1.297-.39-.812 0-1.203.281-.375.281-.562 1l-1.11-.14q.141-.72.485-1.157.36-.453 1.015-.687.672-.235 1.532-.235.875 0 1.406.203.547.204.797.516.25.297.36.766.046.297.046 1.062v1.516q0 1.594.078 2.015.078.422.281.813h-1.187q-.172-.36-.234-.828zm-.094-2.563q-.625.266-1.86.438-.703.11-1 .234-.296.125-.453.375-.156.235-.156.531 0 .454.344.766.344.297 1.015.297.657 0 1.172-.281.516-.297.766-.797.172-.375.172-1.14zm2.703 3.391v-9.313h1.14v5.313l2.704-2.734h1.484l-2.578 2.5 2.844 4.234h-1.407l-2.234-3.453-.812.781v2.672zm11.61-2.172 1.187.14q-.281 1.048-1.047 1.626-.75.562-1.922.562-1.484 0-2.36-.906-.859-.922-.859-2.563 0-1.703.875-2.64.891-.938 2.282-.938 1.359 0 2.203.922.86.922.86 2.578v.313h-5.032q.062 1.11.625 1.703.562.594 1.406.594.64 0 1.078-.328.453-.344.703-1.063zm-3.75-1.844h3.765q-.078-.859-.438-1.28-.546-.657-1.406-.657-.797 0-1.328.531-.531.516-.594 1.406zm6.14 4.016v-6.734h1.031v.953q.735-1.11 2.14-1.11.61 0 1.11.22.516.218.766.577.265.344.36.844.062.313.062 1.11v4.14h-1.14v-4.094q0-.703-.142-1.047-.125-.343-.468-.547-.328-.218-.782-.218-.734 0-1.265.469-.531.453-.531 1.75v3.687zm6.14.156 2.704-9.625h.906l-2.688 9.625h-.921zm4.86-8.14v-1.329h1.14v1.329zm0 7.984v-6.734h1.14v6.734zm3 0v-6.734h1.016v.937q.328-.5.843-.797.532-.297 1.203-.297.75 0 1.22.313.484.312.687.86.797-1.173 2.078-1.173 1 0 1.531.563.547.547.547 1.703v4.625h-1.125v-4.25q0-.688-.11-.984-.109-.297-.406-.485-.297-.187-.687-.187-.719 0-1.188.484-.468.469-.468 1.5v3.922h-1.141v-4.375q0-.766-.281-1.14-.282-.391-.907-.391-.484 0-.89.265-.406.25-.594.735-.187.484-.187 1.406v3.5zm15.39-.828q-.624.531-1.218.765-.578.22-1.25.22-1.125 0-1.719-.548-.594-.547-.594-1.39 0-.485.22-.89.233-.423.593-.673.375-.25.828-.375.328-.078 1.016-.172 1.375-.156 2.03-.39.016-.235.016-.297 0-.703-.328-.985-.437-.39-1.297-.39-.812 0-1.203.281-.375.281-.562 1l-1.11-.14q.141-.72.485-1.157.36-.453 1.015-.687.672-.235 1.532-.235.875 0 1.406.203.547.204.797.516.25.297.36.766.046.297.046 1.062v1.516q0 1.594.078 2.015.078.422.281.813h-1.187q-.172-.36-.234-.828zm-.093-2.563q-.625.266-1.86.438-.703.11-1 .234-.296.125-.453.375-.156.235-.156.531 0 .454.344.766.344.297 1.015.297.657 0 1.172-.281.516-.297.766-.797.172-.375.172-1.14zm2.484 3.953 1.125.157q.063.515.375.75.438.328 1.172.328.781 0 1.219-.328.437-.313.578-.89.094-.345.094-1.454-.75.875-1.875.875-1.39 0-2.157-1-.75-1-.75-2.406 0-.969.344-1.781.36-.813 1.016-1.25.656-.454 1.562-.454 1.188 0 1.97.97v-.813h1.046v5.812q0 1.578-.328 2.234-.313.657-1.016 1.032-.687.39-1.703.39-1.203 0-1.953-.547-.734-.53-.719-1.625zm.953-4.046q0 1.312.516 1.921.531.61 1.328.61t1.328-.594q.531-.61.531-1.906 0-1.235-.546-1.86-.547-.64-1.329-.64-.765 0-1.296.625-.532.625-.532 1.844zm6.266-4.5v-1.329h1.14v1.329zm0 7.984v-6.734h1.14v6.734zm3 0v-6.734h1.031v.953q.735-1.11 2.14-1.11.61 0 1.11.22.516.218.766.577.265.344.36.844.062.313.062 1.11v4.14h-1.14v-4.094q0-.703-.142-1.047-.125-.343-.468-.547-.328-.218-.782-.218-.734 0-1.265.469-.531.453-.531 1.75v3.687zm6.781.563 1.125.156q.063.515.375.75.438.328 1.172.328.781 0 1.219-.328.437-.313.578-.89.094-.345.094-1.454-.75.875-1.875.875-1.39 0-2.157-1-.75-1-.75-2.406 0-.969.344-1.781.36-.813 1.016-1.25.656-.454 1.562-.454 1.188 0 1.97.97v-.813h1.046v5.812q0 1.578-.328 2.234-.313.657-1.016 1.032-.687.39-1.703.39-1.203 0-1.953-.547-.734-.53-.719-1.625zm.953-4.047q0 1.312.516 1.921.531.61 1.328.61t1.328-.594q.531-.61.531-1.906 0-1.235-.546-1.86-.547-.64-1.329-.64-.765 0-1.296.625-.532.625-.532 1.844zm5.813.687v-1.14h3.515v1.14zm8.828 2.797v-.844q-.64 1-1.89 1-.798 0-1.485-.437-.672-.453-1.047-1.25-.375-.797-.375-1.828 0-1.016.344-1.829.344-.828 1.015-1.265.672-.438 1.5-.438.61 0 1.079.266.484.25.78.656v-3.344h1.141v9.313zm-3.61-3.36q0 1.298.532 1.938.547.64 1.297.64.75 0 1.265-.609.532-.625.532-1.875 0-1.39-.532-2.03-.53-.657-1.312-.657-.766 0-1.281.625-.5.625-.5 1.969zm10.626 2.532q-.625.531-1.22.765-.577.22-1.25.22-1.124 0-1.718-.548-.594-.547-.594-1.39 0-.485.22-.89.233-.423.593-.673.375-.25.828-.375.328-.078 1.016-.172 1.375-.156 2.03-.39.016-.235.016-.297 0-.703-.328-.985-.437-.39-1.297-.39-.812 0-1.203.281-.375.281-.562 1l-1.11-.14q.141-.72.485-1.157.36-.453 1.015-.687.672-.235 1.532-.235.875 0 1.406.203.547.204.797.516.25.297.36.766.046.297.046 1.062v1.516q0 1.594.078 2.015.078.422.281.813h-1.187q-.172-.36-.234-.828zm-.094-2.563q-.625.266-1.86.438-.703.11-1 .234-.296.125-.453.375-.156.235-.156.531 0 .454.344.766.344.297 1.015.297.657 0 1.172-.281.516-.297.766-.797.172-.375.172-1.14zm2.687 3.391v-6.734h1.032v1.015q.39-.719.718-.937.344-.235.735-.235.578 0 1.172.36l-.391 1.062q-.422-.25-.828-.25-.375 0-.688.235-.297.218-.422.625-.187.609-.187 1.328v3.531h-1.14zm4.016 0v-9.313h1.14v5.313l2.704-2.734h1.484l-2.578 2.5 2.844 4.234h-1.407l-2.234-3.453-.812.781v2.672zm6.984 0v-6.734h1.032v1.015q.39-.719.718-.937.344-.235.735-.235.578 0 1.172.36l-.391 1.062q-.422-.25-.828-.25-.375 0-.688.235-.297.218-.422.625-.187.609-.187 1.328v3.531h-1.14zm3.594-3.375q0-1.875 1.031-2.766.875-.75 2.125-.75 1.391 0 2.266.907.89.906.89 2.515 0 1.297-.39 2.047-.39.75-1.14 1.172-.75.406-1.626.406-1.422 0-2.297-.906-.859-.906-.859-2.625zm1.172 0q0 1.297.563 1.953.562.64 1.421.64.844 0 1.407-.64.578-.656.578-1.984 0-1.25-.578-1.89-.563-.657-1.407-.657-.859 0-1.422.64-.562.641-.562 1.938zm5.828 0q0-1.875 1.031-2.766.875-.75 2.125-.75 1.391 0 2.266.907.89.906.89 2.515 0 1.297-.39 2.047-.39.75-1.14 1.172-.75.406-1.626.406-1.422 0-2.297-.906-.859-.906-.859-2.625zm1.172 0q0 1.297.563 1.953.562.64 1.421.64.844 0 1.407-.64.578-.656.578-1.984 0-1.25-.578-1.89-.563-.657-1.407-.657-.859 0-1.422.64-.562.641-.562 1.938zm6.25 3.375v-6.734h1.016v.937q.328-.5.843-.797.532-.297 1.203-.297.75 0 1.22.313.484.312.687.86.797-1.173 2.078-1.173 1 0 1.531.563.547.547.547 1.703v4.625h-1.125v-4.25q0-.688-.11-.984-.109-.297-.406-.485-.297-.187-.687-.187-.719 0-1.188.484-.468.469-.468 1.5v3.922h-1.141v-4.375q0-.766-.281-1.14-.282-.391-.907-.391-.484 0-.89.265-.406.25-.594.735-.187.484-.187 1.406v3.5z" fill="#000"/><path d="m26.034 45.8v-17.187h2.282v17.187zm6.344 0v-12.453h1.89v1.75q.594-.906 1.563-1.469.969-.562 2.219-.562 1.375 0 2.25.578.89.578 1.266 1.61 1.468-2.188 3.843-2.188 1.844 0 2.844 1.03 1 1.032 1 3.157v8.547h-2.11v-7.844q0-1.265-.202-1.812-.204-.563-.75-.907-.532-.343-1.25-.343-1.313 0-2.188.875-.86.875-.86 2.797v7.234h-2.109v-8.094q0-1.406-.515-2.11-.516-.702-1.688-.702-.89 0-1.656.468-.75.47-1.094 1.375-.344.907-.344 2.61v6.453zm20 4.766v-17.22h1.922v1.626q.688-.953 1.531-1.422.86-.484 2.078-.484 1.594 0 2.813.828 1.219.812 1.844 2.312.625 1.5.625 3.281 0 1.907-.688 3.438-.687 1.531-2 2.344-1.297.812-2.734.812-1.063 0-1.907-.437-.828-.453-1.375-1.14v6.062zm1.922-10.922q0 2.406.969 3.562.968 1.14 2.36 1.14 1.405 0 2.405-1.187 1-1.187 1-3.687 0-2.375-.984-3.563-.969-1.187-2.328-1.187-1.36 0-2.39 1.265-1.032 1.25-1.032 3.657zm11.063 6.156v-12.453h1.89v1.89q.734-1.328 1.344-1.75.625-.421 1.36-.421 1.062 0 2.171.687l-.734 1.953q-.766-.453-1.547-.453-.688 0-1.25.422-.547.406-.781 1.14-.344 1.126-.344 2.47v6.515h-2.11zm7.234-6.219q0-3.469 1.922-5.125 1.61-1.39 3.922-1.39 2.562 0 4.187 1.687 1.625 1.688 1.625 4.64 0 2.407-.719 3.782-.718 1.375-2.093 2.14-1.375.766-3 .766-2.625 0-4.235-1.672-1.61-1.687-1.61-4.828zm2.172 0q0 2.39 1.031 3.578 1.047 1.188 2.64 1.188 1.563 0 2.61-1.188 1.047-1.203 1.047-3.656 0-2.312-1.063-3.5-1.047-1.187-2.593-1.187-1.594 0-2.641 1.187-1.031 1.188-1.031 3.578zm15.078 6.219-4.734-12.453h2.218l2.672 7.453q.438 1.219.797 2.516.281-.985.781-2.375l2.766-7.594h2.172l-4.703 12.453h-1.97zm17.062-4.016 2.172.282q-.515 1.906-1.906 2.968-1.39 1.047-3.563 1.047-2.734 0-4.343-1.672-1.594-1.687-1.594-4.734 0-3.14 1.61-4.875 1.624-1.734 4.203-1.734 2.5 0 4.078 1.703 1.593 1.703 1.593 4.781 0 .188-.015.563h-9.282q.11 2.046 1.157 3.14 1.047 1.094 2.61 1.094 1.155 0 1.968-.61.828-.609 1.312-1.953zm-6.937-3.406h6.953q-.14-1.562-.797-2.36-1-1.218-2.61-1.218-1.452 0-2.452.984-.985.97-1.094 2.594zm11.406 7.422v-12.453h1.89v1.75q.594-.906 1.563-1.469.969-.562 2.219-.562 1.375 0 2.25.578.89.578 1.266 1.61 1.468-2.188 3.843-2.188 1.844 0 2.844 1.03 1 1.032 1 3.157v8.547h-2.11v-7.844q0-1.265-.202-1.812-.204-.563-.75-.907-.532-.343-1.25-.343-1.313 0-2.188.875-.86.875-.86 2.797v7.234h-2.109v-8.094q0-1.406-.515-2.11-.516-.702-1.688-.702-.89 0-1.656.468-.75.47-1.094 1.375-.344.907-.344 2.61v6.453zm28.531-4.016 2.172.282q-.515 1.906-1.906 2.968-1.39 1.047-3.563 1.047-2.734 0-4.343-1.672-1.594-1.687-1.594-4.734 0-3.14 1.61-4.875 1.624-1.734 4.203-1.734 2.5 0 4.078 1.703 1.593 1.703 1.593 4.781 0 .188-.015.563h-9.281q.109 2.046 1.156 3.14 1.047 1.094 2.61 1.094 1.155 0 1.968-.61.828-.609 1.312-1.953zm-6.937-3.406h6.953q-.14-1.562-.797-2.36-1-1.218-2.61-1.218-1.452 0-2.452.984-.985.97-1.094 2.594zm11.406 7.422v-12.453h1.906v1.781q1.375-2.062 3.954-2.062 1.125 0 2.062.406.953.406 1.422 1.062.469.657.656 1.563.125.578.125 2.047v7.656h-2.11v-7.578q0-1.281-.25-1.922-.25-.64-.874-1.016-.625-.39-1.469-.39-1.344 0-2.328.86-.984.858-.984 3.25v6.796zm17.61-1.89.312 1.859q-.89.203-1.594.203-1.156 0-1.797-.36-.625-.375-.89-.968-.25-.594-.25-2.485v-7.172h-1.547v-1.64h1.547v-3.078l2.094-1.266v4.344h2.125v1.64h-2.125v7.282q0 .906.109 1.172.125.25.375.406.25.14.719.14.343 0 .922-.078zm1.546-1.829 2.094-.328q.172 1.25.969 1.922.812.672 2.25.672 1.453 0 2.156-.594.703-.594.703-1.39 0-.72-.625-1.126-.422-.28-2.156-.718-2.313-.578-3.219-1-.89-.438-1.36-1.188-.452-.765-.452-1.672 0-.828.375-1.53.39-.72 1.047-1.188.484-.36 1.328-.61.86-.265 1.828-.265 1.469 0 2.578.421 1.11.422 1.625 1.157.531.718.734 1.922l-2.062.28q-.14-.968-.813-1.5-.671-.546-1.906-.546-1.453 0-2.078.484-.625.485-.625 1.125 0 .407.266.735.25.343.812.562.313.125 1.86.547 2.234.594 3.109.984.89.375 1.39 1.11.516.719.516 1.797 0 1.047-.625 1.984-.61.938-1.765 1.453-1.157.5-2.625.5-2.422 0-3.704-1-1.265-1.015-1.625-3zm22.141 3.719-3.797-12.453h2.172l1.984 7.187.735 2.672q.047-.203.64-2.562l1.985-7.297h2.172l1.859 7.219.625 2.39.719-2.406 2.125-7.203h2.047l-3.891 12.453h-2.188l-1.984-7.453-.469-2.125-2.53 9.578zm14.703 0v-17.187h2.11v6.171q1.484-1.718 3.734-1.718 1.375 0 2.39.546 1.032.547 1.47 1.516.437.953.437 2.781v7.891h-2.11v-7.89q0-1.579-.687-2.297-.688-.72-1.938-.72-.937 0-1.765.485-.828.484-1.188 1.313-.343.828-.343 2.296v6.813zm21.531-4.016 2.172.282q-.515 1.906-1.906 2.968-1.39 1.047-3.563 1.047-2.734 0-4.343-1.672-1.594-1.687-1.594-4.734 0-3.14 1.61-4.875 1.624-1.734 4.203-1.734 2.5 0 4.078 1.703 1.593 1.703 1.593 4.781 0 .188-.015.563h-9.281q.109 2.046 1.156 3.14 1.047 1.094 2.61 1.094 1.155 0 1.968-.61.828-.609 1.312-1.953zm-6.937-3.406h6.953q-.14-1.562-.797-2.36-1-1.218-2.61-1.218-1.452 0-2.452.984-.985.97-1.094 2.594zm11.406 7.422v-12.453h1.906v1.781q1.375-2.062 3.954-2.062 1.125 0 2.062.406.953.406 1.422 1.062.469.657.656 1.563.125.578.125 2.047v7.656h-2.11v-7.578q0-1.281-.25-1.922-.25-.64-.874-1.016-.625-.39-1.469-.39-1.344 0-2.328.86-.984.858-.984 3.25v6.796zm28.125-4.563 2.078.266q-.344 2.156-1.75 3.375-1.39 1.203-3.437 1.203-2.547 0-4.11-1.672-1.546-1.672-1.546-4.78 0-2.017.671-3.532.672-1.516 2.032-2.266 1.359-.765 2.968-.765 2.032 0 3.313 1.03 1.297 1.032 1.656 2.907l-2.047.328q-.297-1.265-1.047-1.89-.734-.641-1.796-.641-1.594 0-2.594 1.156-.985 1.14-.985 3.61 0 2.5.954 3.64.968 1.14 2.515 1.14 1.235 0 2.063-.765.843-.765 1.062-2.344zm12 3.032q-1.172.984-2.265 1.406-1.079.406-2.313.406-2.047 0-3.156-1-1.094-1-1.094-2.562 0-.922.406-1.672.422-.75 1.094-1.203.672-.469 1.516-.703.625-.157 1.875-.313 2.562-.312 3.765-.734.016-.422.016-.547 0-1.281-.61-1.813-.796-.718-2.39-.718-1.5 0-2.203.53-.703.517-1.047 1.845l-2.063-.282q.282-1.328.922-2.14.64-.813 1.86-1.25 1.218-.453 2.828-.453 1.594 0 2.594.375 1 .375 1.468.953.469.562.656 1.437.094.531.094 1.938v2.812q0 2.938.14 3.719.142.781.532 1.5h-2.203q-.328-.656-.422-1.531zm-.172-4.719q-1.156.469-3.453.797-1.297.187-1.844.422-.53.234-.828.687-.281.453-.281 1 0 .844.625 1.406.64.563 1.875.563 1.219 0 2.172-.531.953-.532 1.39-1.453.344-.72.344-2.11zm13.172 1.688 2.078.265q-.344 2.156-1.75 3.375-1.39 1.203-3.437 1.203-2.547 0-4.11-1.672-1.546-1.672-1.546-4.78 0-2.017.671-3.532.672-1.516 2.032-2.266 1.359-.765 2.968-.765 2.032 0 3.313 1.03 1.297 1.032 1.656 2.907l-2.047.328q-.297-1.265-1.047-1.89-.734-.641-1.796-.641-1.594 0-2.594 1.156-.985 1.14-.985 3.61 0 2.5.954 3.64.968 1.14 2.515 1.14 1.235 0 2.063-.765.843-.765 1.062-2.344zm3.875 4.562v-17.187h2.11v6.171q1.484-1.718 3.734-1.718 1.375 0 2.39.546 1.032.547 1.47 1.516.437.953.437 2.781v7.891h-2.11v-7.89q0-1.579-.687-2.297-.688-.72-1.938-.72-.937 0-1.765.485-.828.484-1.188 1.313-.344.828-.344 2.296v6.813zm13.016-14.75v-2.438h2.11v2.438zm0 14.75v-12.453h2.11v12.453zm4.984 0v-12.453h1.906v1.781q1.375-2.062 3.954-2.062 1.125 0 2.062.406.953.406 1.422 1.062.469.657.656 1.563.125.578.125 2.047v7.656h-2.11v-7.578q0-1.281-.25-1.922-.25-.64-.874-1.016-.625-.39-1.469-.39-1.344 0-2.328.86-.984.858-.984 3.25v6.796zm12.625 1.031 2.047.313q.125.937.719 1.375.781.593 2.14.593 1.47 0 2.266-.593.797-.578 1.078-1.64.156-.642.14-2.704-1.374 1.625-3.437 1.625-2.562 0-3.969-1.844-1.406-1.86-1.406-4.453 0-1.781.64-3.281.642-1.516 1.86-2.328 1.235-.828 2.89-.828 2.204 0 3.626 1.78v-1.5h1.953v10.767q0 2.906-.594 4.109-.594 1.219-1.875 1.922-1.281.703-3.156.703-2.234 0-3.61-1-1.359-1-1.312-3.016zm1.735-7.484q0 2.453.968 3.578.985 1.125 2.453 1.125 1.454 0 2.438-1.11.984-1.124.984-3.515 0-2.281-1.015-3.438-1.016-1.171-2.453-1.171-1.407 0-2.391 1.14t-.984 3.39zm18.218-1.922q0-4.266 2.297-6.687 2.297-2.422 5.938-2.422 2.375 0 4.28 1.14 1.923 1.125 2.923 3.172 1 2.031 1 4.61 0 2.609-1.063 4.671-1.047 2.063-2.984 3.125-1.938 1.063-4.172 1.063-2.422 0-4.344-1.172-1.906-1.172-2.89-3.203-.985-2.031-.985-4.297zm2.344.047q0 3.094 1.672 4.89 1.672 1.782 4.187 1.782 2.579 0 4.235-1.797 1.656-1.813 1.656-5.125 0-2.094-.719-3.656-.703-1.579-2.078-2.438-1.36-.86-3.047-.86-2.422 0-4.172 1.657-1.734 1.656-1.734 5.547zm16.578 2.812 2.14-.187q.157 1.281.704 2.11.562.827 1.734 1.343 1.172.5 2.64.5 1.298 0 2.298-.375 1-.39 1.484-1.063.485-.687.485-1.484 0-.797-.47-1.406-.468-.61-1.546-1.016-.688-.265-3.063-.828-2.359-.578-3.312-1.078-1.234-.64-1.844-1.594-.594-.969-.594-2.14 0-1.313.735-2.438.75-1.125 2.156-1.703 1.422-.594 3.156-.594 1.906 0 3.36.61 1.468.609 2.25 1.812.797 1.188.843 2.703l-2.171.172q-.172-1.64-1.188-2.469-1.016-.828-3-.828-2.063 0-3.016.766-.937.75-.937 1.812 0 .922.672 1.516.656.61 3.422 1.234 2.78.625 3.812 1.094 1.5.688 2.203 1.75.719 1.063.719 2.438 0 1.375-.781 2.593-.781 1.203-2.25 1.891-1.469.672-3.313.672-2.328 0-3.906-.672-1.578-.688-2.484-2.047-.891-1.375-.938-3.094zm16.813 5.516v-17.187h7.609q2.297 0 3.484.468 1.204.469 1.922 1.64.719 1.173.719 2.579 0 1.828-1.188 3.094-1.187 1.25-3.656 1.593.906.422 1.375.844 1 .922 1.89 2.297l2.985 4.672h-2.86l-2.28-3.578q-.985-1.547-1.641-2.36-.64-.828-1.156-1.156-.5-.328-1.031-.453-.391-.078-1.266-.078h-2.64v7.625zm2.265-9.594h4.89q1.563 0 2.438-.328.875-.328 1.329-1.031.468-.703.468-1.547 0-1.219-.89-2-.875-.781-2.797-.781h-5.438zm29.547 5.031 2.078.266q-.344 2.156-1.75 3.375-1.39 1.203-3.437 1.203-2.547 0-4.11-1.672-1.546-1.672-1.546-4.78 0-2.017.671-3.532.672-1.516 2.032-2.266 1.359-.765 2.968-.765 2.032 0 3.313 1.03 1.297 1.032 1.656 2.907l-2.047.328q-.297-1.265-1.047-1.89-.734-.641-1.796-.641-1.594 0-2.594 1.156-.985 1.14-.985 3.61 0 2.5.954 3.64.968 1.14 2.515 1.14 1.235 0 2.063-.765.843-.765 1.062-2.344zm3.094-1.656q0-3.469 1.922-5.125 1.61-1.39 3.922-1.39 2.562 0 4.187 1.687 1.625 1.688 1.625 4.64 0 2.407-.719 3.782-.718 1.375-2.093 2.14-1.375.766-3 .766-2.625 0-4.235-1.672-1.61-1.687-1.61-4.828zm2.172 0q0 2.39 1.031 3.578 1.047 1.188 2.64 1.188 1.563 0 2.61-1.188 1.047-1.203 1.047-3.656 0-2.312-1.063-3.5-1.046-1.187-2.593-1.187-1.594 0-2.641 1.187-1.031 1.188-1.031 3.578zm19.687 6.219v-1.578q-1.187 1.86-3.484 1.86-1.484 0-2.734-.813-1.25-.828-1.938-2.297-.672-1.469-.672-3.39 0-1.86.61-3.376.625-1.515 1.859-2.328 1.25-.812 2.781-.812 1.125 0 2 .484.89.469 1.438 1.234v-6.171h2.093v17.187zm-6.672-6.219q0 2.39 1 3.578 1.016 1.188 2.391 1.188 1.39 0 2.344-1.125.969-1.14.969-3.453 0-2.563-.985-3.75-.984-1.203-2.422-1.203-1.406 0-2.36 1.156-.937 1.14-.937 3.61zm20.125 2.203 2.172.282q-.515 1.906-1.906 2.968-1.39 1.047-3.563 1.047-2.734 0-4.343-1.672-1.594-1.687-1.594-4.734 0-3.14 1.61-4.875 1.624-1.734 4.202-1.734 2.5 0 4.079 1.703 1.593 1.703 1.593 4.781 0 .188-.015.563h-9.281q.109 2.046 1.156 3.14 1.047 1.094 2.61 1.094 1.155 0 1.968-.61.828-.609 1.312-1.953zm-6.937-3.406h6.953q-.14-1.562-.797-2.36-1-1.218-2.61-1.218-1.452 0-2.452.984-.985.97-1.094 2.594z" fill="#757575"/></svg>