<svg version="1.1" viewBox="0.0 0.0 600.0 371.0" fill="none" stroke="none" stroke-linecap="square" stroke-miterlimit="10" width="600" height="371" xmlns:xlink="http://www.w3.org/1999/xlink" xmlns="http://www.w3.org/2000/svg"><path fill="#ffffff" d="M0 0L600.0 0L600.0 371.0L0 371.0L0 0Z" fill-rule="nonzero"/><path stroke="#333333" stroke-width="1.0" stroke-linecap="butt" d="M79.5 81.5L79.5 300.5" fill-rule="nonzero"/><path stroke="#cccccc" stroke-width="1.0" stroke-linecap="butt" d="M179.5 81.5L179.5 300.5" fill-rule="nonzero"/><path stroke="#cccccc" stroke-width="1.0" stroke-linecap="butt" d="M280.5 81.5L280.5 300.5" fill-rule="nonzero"/><path stroke="#cccccc" stroke-width="1.0" stroke-linecap="butt" d="M380.5 81.5L380.5 300.5" fill-rule="nonzero"/><path stroke="#cccccc" stroke-width="1.0" stroke-linecap="butt" d="M481.5 81.5L481.5 300.5" fill-rule="nonzero"/><path stroke="#cccccc" stroke-width="1.0" stroke-linecap="butt" d="M581.5 81.5L581.5 300.5" fill-rule="nonzero"/><clipPath id="id_0"><path d="M79.55 81.28333L581.45 81.28333L581.45 300.45L79.55 300.45L79.55 81.28333Z" clip-rule="nonzero"/></clipPath><path stroke="#000000" stroke-width="0.0" stroke-linecap="butt" stroke-opacity="0.0" clip-path="url(#id_0)" d="M80.0 143.0L80.0 114.0L515.0 114.0C516.10455 114.0 517.0 114.89543 517.0 116.0L517.0 141.0C517.0 142.10457 516.10455 143.0 515.0 143.0Z" fill-rule="nonzero"/><path fill="#4285f4" clip-path="url(#id_0)" d="M80.0 143.0L80.0 114.0L515.0 114.0C516.10455 114.0 517.0 114.89543 517.0 116.0L517.0 141.0C517.0 142.10457 516.10455 143.0 515.0 143.0Z" fill-rule="nonzero"/><path stroke="#000000" stroke-width="0.0" stroke-linecap="butt" stroke-opacity="0.0" clip-path="url(#id_0)" d="M80.0 236.0L80.0 207.0L484.0 207.0C485.10458 207.0 486.0 207.89543 486.0 209.0L486.0 234.0C486.0 235.10457 485.10458 236.0 484.0 236.0Z" fill-rule="nonzero"/><path fill="#4285f4" clip-path="url(#id_0)" d="M80.0 236.0L80.0 207.0L484.0 207.0C485.10458 207.0 486.0 207.89543 486.0 209.0L486.0 234.0C486.0 235.10457 485.10458 236.0 484.0 236.0Z" fill-rule="nonzero"/><path stroke="#000000" stroke-width="0.0" stroke-linecap="butt" stroke-opacity="0.0" clip-path="url(#id_0)" d="M80.0 173.0L80.0 144.0L468.0 144.0C469.10458 144.0 470.0 144.89543 470.0 146.0L470.0 171.0C470.0 172.10457 469.10458 173.0 468.0 173.0Z" fill-rule="nonzero"/><path fill="#34a853" clip-path="url(#id_0)" d="M80.0 173.0L80.0 144.0L468.0 144.0C469.10458 144.0 470.0 144.89543 470.0 146.0L470.0 171.0C470.0 172.10457 469.10458 173.0 468.0 173.0Z" fill-rule="nonzero"/><path stroke="#000000" stroke-width="0.0" stroke-linecap="butt" stroke-opacity="0.0" clip-path="url(#id_0)" d="M80.0 266.0L80.0 237.0L443.0 237.0C444.10458 237.0 445.0 237.89543 445.0 239.0L445.0 264.0C445.0 265.10458 444.10458 266.0 443.0 266.0Z" fill-rule="nonzero"/><path fill="#34a853" clip-path="url(#id_0)" d="M80.0 266.0L80.0 237.0L443.0 237.0C444.10458 237.0 445.0 237.89543 445.0 239.0L445.0 264.0C445.0 265.10458 444.10458 266.0 443.0 266.0Z" fill-rule="nonzero"/><path fill="#000000" d="M248.42188 349.45L248.42188 340.85626L251.39062 340.85626Q252.39062 340.85626 252.92188 340.98126Q253.65625 341.15314 254.17188 341.59064Q254.85938 342.16876 255.1875 343.075Q255.53125 343.96564 255.53125 345.10626Q255.53125 346.09064 255.29688 346.84064Q255.07812 347.59064 254.71875 348.09064Q254.35938 348.59064 253.92188 348.8719Q253.5 349.15314 252.90625 349.3094Q252.3125 349.45 251.53125 349.45L248.42188 349.45ZM249.5625 348.4344L251.39062 348.4344Q252.25 348.4344 252.73438 348.27814Q253.21875 348.1219 253.5 347.825Q253.90625 347.4344 254.125 346.7469Q254.35938 346.0594 254.35938 345.09064Q254.35938 343.7469 253.90625 343.02814Q253.46875 342.29376 252.84375 342.04376Q252.375 341.8719 251.375 341.8719L249.5625 341.8719L249.5625 348.4344ZM261.375 349.45L261.375 348.52814Q260.64062 349.59064 259.39062 349.59064Q258.84375 349.59064 258.35938 349.3875Q257.89062 349.16876 257.65625 348.85626Q257.42188 348.52814 257.32812 348.0594Q257.26562 347.7625 257.26562 347.075L257.26562 343.23126L258.32812 343.23126L258.32812 346.6844Q258.32812 347.4969 258.39062 347.79376Q258.48438 348.2 258.79688 348.45Q259.125 348.6844 259.60938 348.6844Q260.07812 348.6844 260.48438 348.45Q260.90625 348.2 261.07812 347.77814Q261.26562 347.35626 261.26562 346.5594L261.26562 343.23126L262.3125 343.23126L262.3125 349.45L261.375 349.45ZM264.28125 349.45L264.28125 343.23126L265.23438 343.23126L265.23438 344.16876Q265.59375 343.5125 265.89062 343.3094Q266.20312 343.09064 266.57812 343.09064Q267.10938 343.09064 267.65625 343.41876L267.29688 344.40314Q266.90625 344.16876 266.53125 344.16876Q266.17188 344.16876 265.89062 344.3875Q265.625 344.59064 265.51562 344.96564Q265.32812 345.52814 265.32812 346.1844L265.32812 349.45L264.28125 349.45ZM272.35938 348.6844Q271.76562 349.1844 271.21875 349.3875Q270.6875 349.59064 270.0625 349.59064Q269.03125 349.59064 268.48438 349.09064Q267.9375 348.59064 267.9375 347.8094Q267.9375 347.35626 268.14062 346.98126Q268.34375 346.59064 268.6875 346.3719Q269.03125 346.1375 269.45312 346.02814Q269.75 345.9344 270.39062 345.85626Q271.65625 345.71564 272.26562 345.4969Q272.26562 345.27814 272.26562 345.23126Q272.26562 344.575 271.96875 344.3094Q271.5625 343.96564 270.76562 343.96564Q270.03125 343.96564 269.67188 344.23126Q269.3125 344.48126 269.14062 345.1375L268.10938 344.9969Q268.25 344.34064 268.57812 343.9344Q268.90625 343.52814 269.51562 343.3094Q270.125 343.09064 270.92188 343.09064Q271.71875 343.09064 272.21875 343.27814Q272.71875 343.46564 272.95312 343.7469Q273.1875 344.02814 273.28125 344.46564Q273.32812 344.73126 273.32812 345.4344L273.32812 346.84064Q273.32812 348.3094 273.39062 348.7Q273.46875 349.09064 273.67188 349.45L272.5625 349.45Q272.40625 349.1219 272.35938 348.6844ZM272.26562 346.325Q271.6875 346.5594 270.54688 346.73126Q269.89062 346.825 269.625 346.95Q269.35938 347.0594 269.20312 347.27814Q269.0625 347.4969 269.0625 347.77814Q269.0625 348.2 269.375 348.48126Q269.70312 348.7625 270.3125 348.7625Q270.92188 348.7625 271.39062 348.4969Q271.875 348.23126 272.09375 347.7625Q272.26562 347.40314 272.26562 346.71564L272.26562 346.325ZM277.59375 348.5125L277.75 349.4344Q277.29688 349.52814 276.95312 349.52814Q276.375 349.52814 276.0625 349.35626Q275.75 349.16876 275.60938 348.8719Q275.48438 348.575 275.48438 347.6219L275.48438 344.04376L274.71875 344.04376L274.71875 343.23126L275.48438 343.23126L275.48438 341.6844L276.53125 341.0594L276.53125 343.23126L277.59375 343.23126L277.59375 344.04376L276.53125 344.04376L276.53125 347.6844Q276.53125 348.1375 276.57812 348.2625Q276.64062 348.3875 276.76562 348.46564Q276.89062 348.54376 277.125 348.54376Q277.3125 348.54376 277.59375 348.5125ZM278.29688 342.075L278.29688 340.85626L279.35938 340.85626L279.35938 342.075L278.29688 342.075ZM278.29688 349.45L278.29688 343.23126L279.35938 343.23126L279.35938 349.45L278.29688 349.45ZM280.90625 346.34064Q280.90625 344.60626 281.85938 343.77814Q282.65625 343.09064 283.8125 343.09064Q285.09375 343.09064 285.90625 343.9344Q286.73438 344.7625 286.73438 346.2469Q286.73438 347.45 286.375 348.1375Q286.01562 348.825 285.3125 349.21564Q284.625 349.59064 283.8125 349.59064Q282.51562 349.59064 281.70312 348.7625Q280.90625 347.91876 280.90625 346.34064ZM281.98438 346.34064Q281.98438 347.52814 282.5 348.1219Q283.03125 348.71564 283.8125 348.71564Q284.60938 348.71564 285.125 348.1219Q285.64062 347.52814 285.64062 346.3094Q285.64062 345.15314 285.10938 344.5594Q284.59375 343.96564 283.8125 343.96564Q283.03125 343.96564 282.5 344.5594Q281.98438 345.1375 281.98438 346.34064ZM288.29688 349.45L288.29688 343.23126L289.23438 343.23126L289.23438 344.10626Q289.92188 343.09064 291.21875 343.09064Q291.78125 343.09064 292.25 343.29376Q292.73438 343.4969 292.96875 343.825Q293.20312 344.15314 293.29688 344.59064Q293.34375 344.8875 293.34375 345.6219L293.34375 349.45L292.29688 349.45L292.29688 345.66876Q292.29688 345.0125 292.17188 344.7Q292.04688 344.3875 291.73438 344.2Q291.42188 343.9969 291.0 343.9969Q290.32812 343.9969 289.82812 344.4344Q289.34375 344.85626 289.34375 346.04376L289.34375 349.45L288.29688 349.45ZM298.29688 342.075L298.29688 340.85626L299.35938 340.85626L299.35938 342.075L298.29688 342.075ZM298.29688 349.45L298.29688 343.23126L299.35938 343.23126L299.35938 349.45L298.29688 349.45ZM301.29688 349.45L301.29688 343.23126L302.23438 343.23126L302.23438 344.10626Q302.92188 343.09064 304.21875 343.09064Q304.78125 343.09064 305.25 343.29376Q305.73438 343.4969 305.96875 343.825Q306.20312 344.15314 306.29688 344.59064Q306.34375 344.8875 306.34375 345.6219L306.34375 349.45L305.29688 349.45L305.29688 345.66876Q305.29688 345.0125 305.17188 344.7Q305.04688 344.3875 304.73438 344.2Q304.42188 343.9969 304.0 343.9969Q303.32812 343.9969 302.82812 344.4344Q302.34375 344.85626 302.34375 346.04376L302.34375 349.45L301.29688 349.45ZM311.29688 349.45L311.29688 343.23126L312.23438 343.23126L312.23438 344.10626Q312.53125 343.6375 313.01562 343.3719Q313.5 343.09064 314.125 343.09064Q314.8125 343.09064 315.25 343.3719Q315.70312 343.65314 315.875 344.16876Q316.625 343.09064 317.79688 343.09064Q318.73438 343.09064 319.21875 343.60626Q319.71875 344.10626 319.71875 345.1844L319.71875 349.45L318.67188 349.45L318.67188 345.52814Q318.67188 344.90314 318.5625 344.6219Q318.46875 344.34064 318.20312 344.16876Q317.9375 343.9969 317.5625 343.9969Q316.90625 343.9969 316.46875 344.4344Q316.04688 344.8719 316.04688 345.84064L316.04688 349.45L314.98438 349.45L314.98438 345.40314Q314.98438 344.7 314.71875 344.35626Q314.46875 343.9969 313.89062 343.9969Q313.4375 343.9969 313.0625 344.23126Q312.6875 344.46564 312.51562 344.91876Q312.34375 345.3719 312.34375 346.21564L312.34375 349.45L311.29688 349.45ZM320.875 347.59064L321.90625 347.4344Q322.0 348.0594 322.39062 348.3875Q322.79688 348.71564 323.53125 348.71564Q324.25 348.71564 324.59375 348.4344Q324.95312 348.1375 324.95312 347.73126Q324.95312 347.3719 324.64062 347.16876Q324.42188 347.02814 323.5625 346.8094Q322.40625 346.5125 321.95312 346.3094Q321.51562 346.09064 321.28125 345.71564Q321.04688 345.34064 321.04688 344.8719Q321.04688 344.46564 321.23438 344.10626Q321.42188 343.7469 321.75 343.5125Q322.0 343.34064 322.42188 343.21564Q322.84375 343.09064 323.34375 343.09064Q324.0625 343.09064 324.60938 343.3094Q325.17188 343.5125 325.4375 343.8719Q325.70312 344.23126 325.79688 344.825L324.76562 344.96564Q324.70312 344.4969 324.35938 344.23126Q324.03125 343.95 323.40625 343.95Q322.6875 343.95 322.375 344.2Q322.0625 344.4344 322.0625 344.7625Q322.0625 344.96564 322.1875 345.1219Q322.32812 345.29376 322.59375 345.40314Q322.75 345.46564 323.53125 345.66876Q324.65625 345.98126 325.09375 346.16876Q325.53125 346.35626 325.78125 346.71564Q326.03125 347.075 326.03125 347.6219Q326.03125 348.15314 325.71875 348.6219Q325.42188 349.075 324.84375 349.34064Q324.26562 349.59064 323.53125 349.59064Q322.3125 349.59064 321.67188 349.09064Q321.04688 348.575 320.875 347.59064ZM332.3125 351.98126Q331.4375 350.8719 330.82812 349.40314Q330.23438 347.91876 330.23438 346.34064Q330.23438 344.95 330.67188 343.66876Q331.20312 342.1844 332.3125 340.71564L333.0625 340.71564Q332.35938 341.9344 332.125 342.45Q331.76562 343.2625 331.5625 344.1375Q331.3125 345.23126 331.3125 346.34064Q331.3125 349.16876 333.0625 351.98126L332.3125 351.98126ZM334.26562 349.45L334.26562 340.85626L335.32812 340.85626L335.32812 349.45L334.26562 349.45ZM336.90625 346.34064Q336.90625 344.60626 337.85938 343.77814Q338.65625 343.09064 339.8125 343.09064Q341.09375 343.09064 341.90625 343.9344Q342.73438 344.7625 342.73438 346.2469Q342.73438 347.45 342.375 348.1375Q342.01562 348.825 341.3125 349.21564Q340.625 349.59064 339.8125 349.59064Q338.51562 349.59064 337.70312 348.7625Q336.90625 347.91876 336.90625 346.34064ZM337.98438 346.34064Q337.98438 347.52814 338.5 348.1219Q339.03125 348.71564 339.8125 348.71564Q340.60938 348.71564 341.125 348.1219Q341.64062 347.52814 341.64062 346.3094Q341.64062 345.15314 341.10938 344.5594Q340.59375 343.96564 339.8125 343.96564Q339.03125 343.96564 338.5 344.5594Q337.98438 345.1375 337.98438 346.34064ZM345.4375 349.45L343.53125 343.23126L344.625 343.23126L345.60938 346.825L345.98438 348.15314Q346.01562 348.0594 346.3125 346.8719L347.29688 343.23126L348.375 343.23126L349.3125 346.84064L349.625 348.02814L349.98438 346.825L351.04688 343.23126L352.07812 343.23126L350.125 349.45L349.03125 349.45L348.04688 345.71564L347.79688 344.66876L346.54688 349.45L345.4375 349.45ZM357.54688 347.45L358.64062 347.575Q358.39062 348.52814 357.6875 349.0594Q356.98438 349.59064 355.90625 349.59064Q354.54688 349.59064 353.73438 348.7469Q352.9375 347.90314 352.9375 346.3875Q352.9375 344.825 353.75 343.96564Q354.5625 343.09064 355.84375 343.09064Q357.09375 343.09064 357.875 343.9344Q358.67188 344.77814 358.67188 346.325Q358.67188 346.41876 358.67188 346.60626L354.03125 346.60626Q354.09375 347.6375 354.60938 348.1844Q355.125 348.71564 355.90625 348.71564Q356.48438 348.71564 356.89062 348.41876Q357.3125 348.10626 357.54688 347.45ZM354.09375 345.7469L357.5625 345.7469Q357.5 344.95 357.17188 344.5594Q356.65625 343.95 355.85938 343.95Q355.125 343.95 354.625 344.4344Q354.14062 344.91876 354.09375 345.7469ZM360.28125 349.45L360.28125 343.23126L361.23438 343.23126L361.23438 344.16876Q361.59375 343.5125 361.89062 343.3094Q362.20312 343.09064 362.57812 343.09064Q363.10938 343.09064 363.65625 343.41876L363.29688 344.40314Q362.90625 344.16876 362.53125 344.16876Q362.17188 344.16876 361.89062 344.3875Q361.625 344.59064 361.51562 344.96564Q361.32812 345.52814 361.32812 346.1844L361.32812 349.45L360.28125 349.45ZM367.29688 342.075L367.29688 340.85626L368.35938 340.85626L368.35938 342.075L367.29688 342.075ZM367.29688 349.45L367.29688 343.23126L368.35938 343.23126L368.35938 349.45L367.29688 349.45ZM369.875 347.59064L370.90625 347.4344Q371.0 348.0594 371.39062 348.3875Q371.79688 348.71564 372.53125 348.71564Q373.25 348.71564 373.59375 348.4344Q373.95312 348.1375 373.95312 347.73126Q373.95312 347.3719 373.64062 347.16876Q373.42188 347.02814 372.5625 346.8094Q371.40625 346.5125 370.95312 346.3094Q370.51562 346.09064 370.28125 345.71564Q370.04688 345.34064 370.04688 344.8719Q370.04688 344.46564 370.23438 344.10626Q370.42188 343.7469 370.75 343.5125Q371.0 343.34064 371.42188 343.21564Q371.84375 343.09064 372.34375 343.09064Q373.0625 343.09064 373.60938 343.3094Q374.17188 343.5125 374.4375 343.8719Q374.70312 344.23126 374.79688 344.825L373.76562 344.96564Q373.70312 344.4969 373.35938 344.23126Q373.03125 343.95 372.40625 343.95Q371.6875 343.95 371.375 344.2Q371.0625 344.4344 371.0625 344.7625Q371.0625 344.96564 371.1875 345.1219Q371.32812 345.29376 371.59375 345.40314Q371.75 345.46564 372.53125 345.66876Q373.65625 345.98126 374.09375 346.16876Q374.53125 346.35626 374.78125 346.71564Q375.03125 347.075 375.03125 347.6219Q375.03125 348.15314 374.71875 348.6219Q374.42188 349.075 373.84375 349.34064Q373.26562 349.59064 372.53125 349.59064Q371.3125 349.59064 370.67188 349.09064Q370.04688 348.575 369.875 347.59064ZM380.26562 349.45L379.28125 349.45L379.28125 340.85626L380.34375 340.85626L380.34375 343.91876Q381.01562 343.09064 382.04688 343.09064Q382.625 343.09064 383.125 343.325Q383.64062 343.54376 383.96875 343.96564Q384.3125 344.3875 384.5 344.98126Q384.6875 345.575 384.6875 346.2469Q384.6875 347.84064 383.89062 348.71564Q383.09375 349.59064 382.0 349.59064Q380.89062 349.59064 380.26562 348.66876L380.26562 349.45ZM380.25 346.29376Q380.25 347.40314 380.5625 347.90314Q381.0625 348.71564 381.90625 348.71564Q382.59375 348.71564 383.09375 348.1219Q383.60938 347.52814 383.60938 346.325Q383.60938 345.10626 383.125 344.52814Q382.64062 343.95 381.95312 343.95Q381.26562 343.95 380.75 344.5594Q380.25 345.15314 380.25 346.29376ZM390.54688 347.45L391.64062 347.575Q391.39062 348.52814 390.6875 349.0594Q389.98438 349.59064 388.90625 349.59064Q387.54688 349.59064 386.73438 348.7469Q385.9375 347.90314 385.9375 346.3875Q385.9375 344.825 386.75 343.96564Q387.5625 343.09064 388.84375 343.09064Q390.09375 343.09064 390.875 343.9344Q391.67188 344.77814 391.67188 346.325Q391.67188 346.41876 391.67188 346.60626L387.03125 346.60626Q387.09375 347.6375 387.60938 348.1844Q388.125 348.71564 388.90625 348.71564Q389.48438 348.71564 389.89062 348.41876Q390.3125 348.10626 390.54688 347.45ZM387.09375 345.7469L390.5625 345.7469Q390.5 344.95 390.17188 344.5594Q389.65625 343.95 388.85938 343.95Q388.125 343.95 387.625 344.4344Q387.14062 344.91876 387.09375 345.7469ZM395.59375 348.5125L395.75 349.4344Q395.29688 349.52814 394.95312 349.52814Q394.375 349.52814 394.0625 349.35626Q393.75 349.16876 393.60938 348.8719Q393.48438 348.575 393.48438 347.6219L393.48438 344.04376L392.71875 344.04376L392.71875 343.23126L393.48438 343.23126L393.48438 341.6844L394.53125 341.0594L394.53125 343.23126L395.59375 343.23126L395.59375 344.04376L394.53125 344.04376L394.53125 347.6844Q394.53125 348.1375 394.57812 348.2625Q394.64062 348.3875 394.76562 348.46564Q394.89062 348.54376 395.125 348.54376Q395.3125 348.54376 395.59375 348.5125ZM398.59375 348.5125L398.75 349.4344Q398.29688 349.52814 397.95312 349.52814Q397.375 349.52814 397.0625 349.35626Q396.75 349.16876 396.60938 348.8719Q396.48438 348.575 396.48438 347.6219L396.48438 344.04376L395.71875 344.04376L395.71875 343.23126L396.48438 343.23126L396.48438 341.6844L397.53125 341.0594L397.53125 343.23126L398.59375 343.23126L398.59375 344.04376L397.53125 344.04376L397.53125 347.6844Q397.53125 348.1375 397.57812 348.2625Q397.64062 348.3875 397.76562 348.46564Q397.89062 348.54376 398.125 348.54376Q398.3125 348.54376 398.59375 348.5125ZM403.54688 347.45L404.64062 347.575Q404.39062 348.52814 403.6875 349.0594Q402.98438 349.59064 401.90625 349.59064Q400.54688 349.59064 399.73438 348.7469Q398.9375 347.90314 398.9375 346.3875Q398.9375 344.825 399.75 343.96564Q400.5625 343.09064 401.84375 343.09064Q403.09375 343.09064 403.875 343.9344Q404.67188 344.77814 404.67188 346.325Q404.67188 346.41876 404.67188 346.60626L400.03125 346.60626Q400.09375 347.6375 400.60938 348.1844Q401.125 348.71564 401.90625 348.71564Q402.48438 348.71564 402.89062 348.41876Q403.3125 348.10626 403.54688 347.45ZM400.09375 345.7469L403.5625 345.7469Q403.5 344.95 403.17188 344.5594Q402.65625 343.95 401.85938 343.95Q401.125 343.95 400.625 344.4344Q400.14062 344.91876 400.09375 345.7469ZM406.28125 349.45L406.28125 343.23126L407.23438 343.23126L407.23438 344.16876Q407.59375 343.5125 407.89062 343.3094Q408.20312 343.09064 408.57812 343.09064Q409.10938 343.09064 409.65625 343.41876L409.29688 344.40314Q408.90625 344.16876 408.53125 344.16876Q408.17188 344.16876 407.89062 344.3875Q407.625 344.59064 407.51562 344.96564Q407.32812 345.52814 407.32812 346.1844L407.32812 349.45L406.28125 349.45ZM410.98438 351.98126L410.23438 351.98126Q411.98438 349.16876 411.98438 346.34064Q411.98438 345.2469 411.73438 344.15314Q411.53125 343.27814 411.17188 342.46564Q410.9375 341.95 410.23438 340.71564L410.98438 340.71564Q412.07812 342.1844 412.60938 343.66876Q413.0625 344.95 413.0625 346.34064Q413.0625 347.91876 412.45312 349.40314Q411.84375 350.8719 410.98438 351.98126Z" fill-rule="nonzero"/><path fill="#000000" d="M38.33125 140.87608L38.33125 139.64171L39.39375 139.64171L39.39375 140.87608L38.33125 140.87608ZM37.003124 150.65733L37.190624 149.75108Q37.51875 149.82921 37.690624 149.82921Q38.01875 149.82921 38.175 149.61046Q38.33125 149.40733 38.33125 148.54796L38.33125 142.01671L39.39375 142.01671L39.39375 148.57921Q39.39375 149.71983 39.096874 150.17296Q38.70625 150.76671 37.83125 150.76671Q37.39375 150.76671 37.003124 150.65733ZM47.9875 147.31358Q48.784374 147.86046 49.440624 148.11046L49.1125 148.90733Q48.190624 148.56358 47.26875 147.84483Q46.315624 148.37608 45.159374 148.37608Q43.9875 148.37608 43.034374 147.81358Q42.096874 147.25108 41.58125 146.23546Q41.065624 145.21983 41.065624 143.93858Q41.065624 142.67296 41.58125 141.62608Q42.096874 140.57921 43.05 140.03233Q44.003124 139.48546 45.175 139.48546Q46.3625 139.48546 47.315624 140.06358Q48.284374 140.62608 48.784374 141.64171Q49.284374 142.65733 49.284374 143.93858Q49.284374 145.00108 48.95625 145.84483Q48.64375 146.68858 47.9875 147.31358ZM45.4875 145.86046Q46.471874 146.14171 47.1125 146.68858Q48.1125 145.76671 48.1125 143.93858Q48.1125 142.89171 47.753124 142.11046Q47.39375 141.32921 46.70625 140.90733Q46.034374 140.46983 45.190624 140.46983Q43.909374 140.46983 43.065624 141.34483Q42.2375 142.20421 42.2375 143.93858Q42.2375 145.61046 43.065624 146.51671Q43.89375 147.40733 45.190624 147.40733Q45.8 147.40733 46.33125 147.17296Q45.8 146.82921 45.20625 146.68858L45.4875 145.86046ZM54.425 148.23546L54.425 147.31358Q53.690624 148.37608 52.440624 148.37608Q51.89375 148.37608 51.409374 148.17296Q50.940624 147.95421 50.70625 147.64171Q50.471874 147.31358 50.378124 146.84483Q50.315624 146.54796 50.315624 145.86046L50.315624 142.01671L51.378124 142.01671L51.378124 145.46983Q51.378124 146.28233 51.440624 146.57921Q51.534374 146.98546 51.846874 147.23546Q52.175 147.46983 52.659374 147.46983Q53.128124 147.46983 53.534374 147.23546Q53.95625 146.98546 54.128124 146.56358Q54.315624 146.14171 54.315624 145.34483L54.315624 142.01671L55.3625 142.01671L55.3625 148.23546L54.425 148.23546ZM61.596874 146.23546L62.690624 146.36046Q62.440624 147.31358 61.7375 147.84483Q61.034374 148.37608 59.95625 148.37608Q58.596874 148.37608 57.784374 147.53233Q56.9875 146.68858 56.9875 145.17296Q56.9875 143.61046 57.8 142.75108Q58.6125 141.87608 59.89375 141.87608Q61.14375 141.87608 61.925 142.71983Q62.721874 143.56358 62.721874 145.11046Q62.721874 145.20421 62.721874 145.39171L58.08125 145.39171Q58.14375 146.42296 58.659374 146.96983Q59.175 147.50108 59.95625 147.50108Q60.534374 147.50108 60.940624 147.20421Q61.3625 146.89171 61.596874 146.23546ZM58.14375 144.53233L61.6125 144.53233Q61.55 143.73546 61.221874 143.34483Q60.70625 142.73546 59.909374 142.73546Q59.175 142.73546 58.675 143.21983Q58.190624 143.70421 58.14375 144.53233ZM64.33125 148.23546L64.33125 142.01671L65.28438 142.01671L65.28438 142.95421Q65.64375 142.29796 65.94063 142.09483Q66.25313 141.87608 66.62813 141.87608Q67.15938 141.87608 67.70625 142.20421L67.34688 143.18858Q66.95625 142.95421 66.58125 142.95421Q66.22188 142.95421 65.94063 143.17296Q65.675 143.37608 65.56563 143.75108Q65.37813 144.31358 65.37813 144.96983L65.37813 148.23546L64.33125 148.23546ZM68.3 150.62608L68.175 149.64171Q68.51875 149.73546 68.78438 149.73546Q69.12813 149.73546 69.33125 149.61046Q69.55 149.50108 69.69063 149.29796Q69.78438 149.12608 70.01875 148.50108Q70.03438 148.42296 70.1125 148.25108L67.7375 142.01671L68.87813 142.01671L70.175 145.61046Q70.425 146.29796 70.62813 147.06358Q70.81563 146.32921 71.06563 145.64171L72.39375 142.01671L73.44063 142.01671L71.08125 148.34483Q70.69063 149.36046 70.4875 149.75108Q70.20625 150.28233 69.83125 150.51671Q69.47188 150.76671 68.97188 150.76671Q68.675 150.76671 68.3 150.62608Z" fill-rule="nonzero"/><path fill="#000000" d="M19.425 241.49788L19.425 232.90413L22.659374 232.90413Q23.64375 232.90413 24.2375 233.16975Q24.83125 233.43538 25.159374 233.98225Q25.503124 234.5135 25.503124 235.10725Q25.503124 235.65413 25.20625 236.1385Q24.909374 236.62288 24.3 236.91975Q25.08125 237.15413 25.4875 237.71663Q25.909374 238.2635 25.909374 239.0135Q25.909374 239.60725 25.659374 240.1385Q25.409374 240.65413 25.034374 240.93538Q24.659374 241.21663 24.08125 241.35725Q23.51875 241.49788 22.70625 241.49788L19.425 241.49788ZM20.565624 236.5135L22.425 236.5135Q23.175 236.5135 23.503124 236.41975Q23.940624 236.29475 24.159374 235.99788Q24.378124 235.68538 24.378124 235.23225Q24.378124 234.81038 24.175 234.48225Q23.971874 234.15413 23.58125 234.04475Q23.20625 233.91975 22.284374 233.91975L20.565624 233.91975L20.565624 236.5135ZM20.565624 240.48225L22.70625 240.48225Q23.253124 240.48225 23.471874 240.43538Q23.878124 240.37288 24.128124 240.21663Q24.39375 240.04475 24.565624 239.73225Q24.7375 239.41975 24.7375 239.0135Q24.7375 238.52913 24.4875 238.16975Q24.253124 237.81038 23.815624 237.66975Q23.378124 237.52913 22.55 237.52913L20.565624 237.52913L20.565624 240.48225ZM31.409374 240.73225Q30.815624 241.23225 30.26875 241.43538Q29.7375 241.6385 29.1125 241.6385Q28.08125 241.6385 27.534374 241.1385Q26.9875 240.6385 26.9875 239.85725Q26.9875 239.40413 27.190624 239.02913Q27.39375 238.6385 27.7375 238.41975Q28.08125 238.18538 28.503124 238.076Q28.8 237.98225 29.440624 237.90413Q30.70625 237.7635 31.315624 237.54475Q31.315624 237.326 31.315624 237.27913Q31.315624 236.62288 31.01875 236.35725Q30.6125 236.0135 29.815624 236.0135Q29.08125 236.0135 28.721874 236.27913Q28.3625 236.52913 28.190624 237.18538L27.159374 237.04475Q27.3 236.3885 27.628124 235.98225Q27.95625 235.576 28.565624 235.35725Q29.175 235.1385 29.971874 235.1385Q30.76875 235.1385 31.26875 235.326Q31.76875 235.5135 32.003124 235.79475Q32.2375 236.076 32.33125 236.5135Q32.378124 236.77913 32.378124 237.48225L32.378124 238.8885Q32.378124 240.35725 32.440624 240.74788Q32.51875 241.1385 32.721874 241.49788L31.6125 241.49788Q31.45625 241.16975 31.409374 240.73225ZM31.315624 238.37288Q30.7375 238.60725 29.596874 238.77913Q28.940624 238.87288 28.675 238.99788Q28.409374 239.10725 28.253124 239.326Q28.1125 239.54475 28.1125 239.826Q28.1125 240.24788 28.425 240.52913Q28.753124 240.81038 29.3625 240.81038Q29.971874 240.81038 30.440624 240.54475Q30.925 240.27913 31.14375 239.81038Q31.315624 239.451 31.315624 238.7635L31.315624 238.37288ZM38.409374 239.21663L39.440624 239.35725Q39.26875 240.41975 38.565624 241.02913Q37.8625 241.6385 36.846874 241.6385Q35.565624 241.6385 34.784374 240.81038Q34.01875 239.96663 34.01875 238.40413Q34.01875 237.40413 34.346874 236.65413Q34.690624 235.8885 35.3625 235.5135Q36.05 235.1385 36.8625 235.1385Q37.8625 235.1385 38.503124 235.65413Q39.159374 236.15413 39.346874 237.10725L38.315624 237.2635Q38.175 236.6385 37.8 236.326Q37.425 235.99788 36.89375 235.99788Q36.096874 235.99788 35.596874 236.576Q35.096874 237.1385 35.096874 238.37288Q35.096874 239.6385 35.58125 240.201Q36.065624 240.7635 36.83125 240.7635Q37.45625 240.7635 37.8625 240.3885Q38.284374 240.0135 38.409374 239.21663ZM40.346874 241.49788L40.346874 232.90413L41.409374 232.90413L41.409374 237.81038L43.89375 235.27913L45.26875 235.27913L42.878124 237.576L45.503124 241.49788L44.20625 241.49788L42.14375 238.31038L41.409374 239.02913L41.409374 241.49788L40.346874 241.49788ZM47.315624 241.49788L46.33125 241.49788L46.33125 232.90413L47.39375 232.90413L47.39375 235.96663Q48.065624 235.1385 49.096874 235.1385Q49.675 235.1385 50.175 235.37288Q50.690624 235.59163 51.01875 236.0135Q51.3625 236.43538 51.55 237.02913Q51.7375 237.62288 51.7375 238.29475Q51.7375 239.8885 50.940624 240.7635Q50.14375 241.6385 49.05 241.6385Q47.940624 241.6385 47.315624 240.71663L47.315624 241.49788ZM47.3 238.34163Q47.3 239.451 47.6125 239.951Q48.1125 240.7635 48.95625 240.7635Q49.64375 240.7635 50.14375 240.16975Q50.659374 239.576 50.659374 238.37288Q50.659374 237.15413 50.175 236.576Q49.690624 235.99788 49.003124 235.99788Q48.315624 235.99788 47.8 236.60725Q47.3 237.201 47.3 238.34163ZM52.95625 238.3885Q52.95625 236.65413 53.909374 235.826Q54.70625 235.1385 55.8625 235.1385Q57.14375 235.1385 57.95625 235.98225Q58.784374 236.81038 58.784374 238.29475Q58.784374 239.49788 58.425 240.18538Q58.065624 240.87288 57.3625 241.2635Q56.675 241.6385 55.8625 241.6385Q54.565624 241.6385 53.753124 240.81038Q52.95625 239.96663 52.95625 238.3885ZM54.034374 238.3885Q54.034374 239.576 54.55 240.16975Q55.08125 240.7635 55.8625 240.7635Q56.659374 240.7635 57.175 240.16975Q57.690624 239.576 57.690624 238.35725Q57.690624 237.201 57.159374 236.60725Q56.64375 236.0135 55.8625 236.0135Q55.08125 236.0135 54.55 236.60725Q54.034374 237.18538 54.034374 238.3885ZM60.346874 241.49788L60.346874 235.27913L61.284374 235.27913L61.284374 236.15413Q61.971874 235.1385 63.26875 235.1385Q63.83125 235.1385 64.3 235.34163Q64.78438 235.54475 65.01875 235.87288Q65.25313 236.201 65.34688 236.6385Q65.39375 236.93538 65.39375 237.66975L65.39375 241.49788L64.34688 241.49788L64.34688 237.71663Q64.34688 237.06038 64.22188 236.74788Q64.09688 236.43538 63.784374 236.24788Q63.471874 236.04475 63.05 236.04475Q62.378124 236.04475 61.878124 236.48225Q61.39375 236.90413 61.39375 238.09163L61.39375 241.49788L60.346874 241.49788ZM71.59688 239.49788L72.69063 239.62288Q72.44063 240.576 71.7375 241.10725Q71.03438 241.6385 69.95625 241.6385Q68.59688 241.6385 67.78438 240.79475Q66.9875 239.951 66.9875 238.43538Q66.9875 236.87288 67.8 236.0135Q68.6125 235.1385 69.89375 235.1385Q71.14375 235.1385 71.925 235.98225Q72.72188 236.826 72.72188 238.37288Q72.72188 238.46663 72.72188 238.65413L68.08125 238.65413Q68.14375 239.68538 68.65938 240.23225Q69.175 240.7635 69.95625 240.7635Q70.53438 240.7635 70.94063 240.46663Q71.3625 240.15413 71.59688 239.49788ZM68.14375 237.79475L71.6125 237.79475Q71.55 236.99788 71.22188 236.60725Q70.70625 235.99788 69.90938 235.99788Q69.175 235.99788 68.675 236.48225Q68.19063 236.96663 68.14375 237.79475Z" fill-rule="nonzero"/><path fill="#000000" d="M76.55 313.21564Q76.55 311.6844 76.8625 310.7625Q77.175 309.825 77.78438 309.325Q78.40938 308.825 79.34688 308.825Q80.03438 308.825 80.55 309.10626Q81.08125 309.3875 81.425 309.91876Q81.76875 310.4344 81.95625 311.1844Q82.14375 311.9344 82.14375 313.21564Q82.14375 314.73126 81.83125 315.65314Q81.53438 316.575 80.90938 317.09064Q80.3 317.59064 79.34688 317.59064Q78.1125 317.59064 77.39375 316.7Q76.55 315.6375 76.55 313.21564ZM77.62813 313.21564Q77.62813 315.325 78.12813 316.02814Q78.62813 316.73126 79.34688 316.73126Q80.08125 316.73126 80.56563 316.02814Q81.06563 315.325 81.06563 313.21564Q81.06563 311.09064 80.56563 310.40314Q80.08125 309.7 79.33125 309.7Q78.6125 309.7 78.175 310.3094Q77.62813 311.09064 77.62813 313.21564Z" fill-rule="nonzero"/><path fill="#000000" d="M180.89874 317.45L179.85187 317.45L179.85187 310.73126Q179.46124 311.09064 178.83624 311.46564Q178.22687 311.825 177.7425 311.9969L177.7425 310.98126Q178.6175 310.5594 179.27374 309.98126Q179.94562 309.3875 180.22687 308.825L180.89874 308.825L180.89874 317.45Z" fill-rule="nonzero"/><path fill="#000000" d="M282.85687 316.4344L282.85687 317.45L277.16937 317.45Q277.16937 317.075 277.29437 316.71564Q277.51312 316.1375 277.98187 315.575Q278.46625 315.0125 279.3725 314.27814Q280.77875 313.1219 281.26312 312.45Q281.76312 311.77814 281.76312 311.1844Q281.76312 310.5594 281.31 310.1375Q280.85687 309.7 280.13812 309.7Q279.3725 309.7 278.91937 310.15314Q278.46625 310.60626 278.45062 311.41876L277.3725 311.3094Q277.48187 310.09064 278.20062 309.46564Q278.935 308.825 280.16937 308.825Q281.40375 308.825 282.1225 309.5125Q282.84125 310.2 282.84125 311.21564Q282.84125 311.73126 282.6225 312.23126Q282.41937 312.71564 281.91937 313.27814Q281.435 313.825 280.31 314.77814Q279.35687 315.575 279.07562 315.8719Q278.81 316.15314 278.63812 316.4344L282.85687 316.4344Z" fill-rule="nonzero"/><path fill="#000000" d="M377.69 315.1844L378.7525 315.04376Q378.92438 315.9344 379.36188 316.34064Q379.79938 316.73126 380.42438 316.73126Q381.17438 316.73126 381.69 316.21564Q382.20563 315.7 382.20563 314.9344Q382.20563 314.21564 381.72125 313.7469Q381.2525 313.2625 380.51813 313.2625Q380.22125 313.2625 379.76813 313.3875L379.89313 312.45Q380.0025 312.46564 380.065 312.46564Q380.73688 312.46564 381.26813 312.1219Q381.815 311.7625 381.815 311.02814Q381.815 310.45 381.42438 310.075Q381.03375 309.6844 380.40875 309.6844Q379.79938 309.6844 379.3775 310.075Q378.97125 310.46564 378.86188 311.23126L377.79938 311.04376Q377.98688 309.9969 378.67438 309.41876Q379.36188 308.825 380.3775 308.825Q381.08063 308.825 381.67438 309.1375Q382.26813 309.4344 382.58063 309.95Q382.89313 310.46564 382.89313 311.0594Q382.89313 311.60626 382.59625 312.075Q382.29938 312.52814 381.72125 312.79376Q382.47125 312.96564 382.89313 313.52814Q383.315 314.075 383.315 314.91876Q383.315 316.04376 382.48688 316.825Q381.67438 317.60626 380.42438 317.60626Q379.29938 317.60626 378.54938 316.9344Q377.79938 316.2469 377.69 315.1844Z" fill-rule="nonzero"/><path fill="#000000" d="M481.445 317.45L481.445 315.3875L477.72626 315.3875L477.72626 314.41876L481.64813 308.85626L482.5075 308.85626L482.5075 314.41876L483.66376 314.41876L483.66376 315.3875L482.5075 315.3875L482.5075 317.45L481.445 317.45ZM481.445 314.41876L481.445 310.5594L478.7575 314.41876L481.445 314.41876Z" fill-rule="nonzero"/><path fill="#000000" d="M578.45 315.2L579.5594 315.10626Q579.6844 315.91876 580.1219 316.325Q580.575 316.73126 581.21564 316.73126Q581.96564 316.73126 582.4969 316.15314Q583.02814 315.575 583.02814 314.6375Q583.02814 313.73126 582.5125 313.21564Q582.0125 312.6844 581.1844 312.6844Q580.6844 312.6844 580.2625 312.91876Q579.85626 313.15314 579.6219 313.5125L578.6375 313.3875L579.46564 308.98126L583.7469 308.98126L583.7469 309.98126L580.3094 309.98126L579.85626 312.29376Q580.6219 311.7469 581.46564 311.7469Q582.59064 311.7469 583.35626 312.52814Q584.1375 313.3094 584.1375 314.54376Q584.1375 315.7 583.46564 316.5594Q582.6375 317.59064 581.21564 317.59064Q580.04376 317.59064 579.29376 316.9344Q578.5594 316.27814 578.45 315.2Z" fill-rule="nonzero"/><path fill="#4285f4" d="M231.0 56.916668C231.0 56.364384 231.44771 55.916668 232.0 55.916668L242.0 55.916668C242.55229 55.916668 243.0 56.364384 243.0 56.916668L243.0 66.916664C243.0 67.46895 242.55229 67.916664 242.0 67.916664L232.0 67.916664C231.44771 67.916664 231.0 67.46895 231.0 66.916664Z" fill-rule="nonzero"/><path fill="#1a1a1a" d="M254.375 65.916664L251.04688 57.322914L252.28125 57.322914L254.51562 63.572914Q254.78125 64.322914 254.96875 64.979164Q255.17188 64.27604 255.4375 63.572914L257.75 57.322914L258.90625 57.322914L255.54688 65.916664L254.375 65.916664ZM261.125 61.260414Q260.46875 61.010414 260.14062 60.572914Q259.82812 60.11979 259.82812 59.510414Q259.82812 58.572914 260.5 57.93229Q261.1875 57.291664 262.29688 57.291664Q263.42188 57.291664 264.10938 57.947914Q264.79688 58.604164 264.79688 59.541664Q264.79688 60.135414 264.48438 60.572914Q264.17188 61.010414 263.53125 61.260414Q264.32812 61.510414 264.73438 62.08854Q265.14062 62.666664 265.14062 63.46354Q265.14062 64.55729 264.35938 65.30729Q263.59375 66.05729 262.3125 66.05729Q261.04688 66.05729 260.26562 65.30729Q259.48438 64.55729 259.48438 63.43229Q259.48438 62.58854 259.90625 62.02604Q260.34375 61.46354 261.125 61.260414ZM260.90625 59.46354Q260.90625 60.072914 261.29688 60.46354Q261.70312 60.854164 262.32812 60.854164Q262.9375 60.854164 263.32812 60.479164Q263.71875 60.08854 263.71875 59.52604Q263.71875 58.947914 263.3125 58.55729Q262.90625 58.15104 262.3125 58.15104Q261.70312 58.15104 261.29688 58.541664Q260.90625 58.93229 260.90625 59.46354ZM260.57812 63.43229Q260.57812 63.885414 260.78125 64.30729Q261.0 64.729164 261.42188 64.96354Q261.84375 65.197914 262.32812 65.197914Q263.07812 65.197914 263.5625 64.71354Q264.0625 64.229164 264.0625 63.479164Q264.0625 62.71354 263.5625 62.21354Q263.0625 61.71354 262.29688 61.71354Q261.54688 61.71354 261.0625 62.21354Q260.57812 62.697914 260.57812 63.43229ZM271.51562 65.916664L269.15625 59.697914L270.26562 59.697914L271.60938 63.416664Q271.8125 64.02604 272.0 64.666664Q272.14062 64.18229 272.39062 63.49479L273.78125 59.697914L274.85938 59.697914L272.5 65.916664L271.51562 65.916664ZM275.5625 58.447914L275.5625 57.43229L281.125 57.43229L281.125 58.260414Q280.3125 59.135414 279.5 60.58854Q278.70312 62.02604 278.26562 63.55729Q277.9375 64.635414 277.85938 65.916664L276.76562 65.916664Q276.78125 64.90104 277.15625 63.46354Q277.54688 62.02604 278.25 60.697914Q278.96875 59.36979 279.78125 58.447914L275.5625 58.447914ZM283.09375 65.916664L283.09375 64.71354L284.29688 64.71354L284.29688 65.916664L283.09375 65.916664ZM287.125 61.260414Q286.46875 61.010414 286.14062 60.572914Q285.82812 60.11979 285.82812 59.510414Q285.82812 58.572914 286.5 57.93229Q287.1875 57.291664 288.29688 57.291664Q289.42188 57.291664 290.10938 57.947914Q290.79688 58.604164 290.79688 59.541664Q290.79688 60.135414 290.48438 60.572914Q290.17188 61.010414 289.53125 61.260414Q290.32812 61.510414 290.73438 62.08854Q291.14062 62.666664 291.14062 63.46354Q291.14062 64.55729 290.35938 65.30729Q289.59375 66.05729 288.3125 66.05729Q287.04688 66.05729 286.26562 65.30729Q285.48438 64.55729 285.48438 63.43229Q285.48438 62.58854 285.90625 62.02604Q286.34375 61.46354 287.125 61.260414ZM286.90625 59.46354Q286.90625 60.072914 287.29688 60.46354Q287.70312 60.854164 288.32812 60.854164Q288.9375 60.854164 289.32812 60.479164Q289.71875 60.08854 289.71875 59.52604Q289.71875 58.947914 289.3125 58.55729Q288.90625 58.15104 288.3125 58.15104Q287.70312 58.15104 287.29688 58.541664Q286.90625 58.93229 286.90625 59.46354ZM286.57812 63.43229Q286.57812 63.885414 286.78125 64.30729Q287.0 64.729164 287.42188 64.96354Q287.84375 65.197914 288.32812 65.197914Q289.07812 65.197914 289.5625 64.71354Q290.0625 64.229164 290.0625 63.479164Q290.0625 62.71354 289.5625 62.21354Q289.0625 61.71354 288.29688 61.71354Q287.54688 61.71354 287.0625 62.21354Q286.57812 62.697914 286.57812 63.43229Z" fill-rule="nonzero"/><path fill="#34a853" d="M308.0 56.916668C308.0 56.364384 308.44772 55.916668 309.0 55.916668L319.0 55.916668C319.55228 55.916668 320.0 56.364384 320.0 56.916668L320.0 66.916664C320.0 67.46895 319.55228 67.916664 319.0 67.916664L309.0 67.916664C308.44772 67.916664 308.0 67.46895 308.0 66.916664Z" fill-rule="nonzero"/><path fill="#1a1a1a" d="M331.375 65.916664L328.04688 57.322914L329.28125 57.322914L331.51562 63.572914Q331.78125 64.322914 331.96875 64.979164Q332.17188 64.27604 332.4375 63.572914L334.75 57.322914L335.90625 57.322914L332.54688 65.916664L331.375 65.916664ZM338.125 61.260414Q337.46875 61.010414 337.14062 60.572914Q336.82812 60.11979 336.82812 59.510414Q336.82812 58.572914 337.5 57.93229Q338.1875 57.291664 339.29688 57.291664Q340.42188 57.291664 341.10938 57.947914Q341.79688 58.604164 341.79688 59.541664Q341.79688 60.135414 341.48438 60.572914Q341.17188 61.010414 340.53125 61.260414Q341.32812 61.510414 341.73438 62.08854Q342.14062 62.666664 342.14062 63.46354Q342.14062 64.55729 341.35938 65.30729Q340.59375 66.05729 339.3125 66.05729Q338.04688 66.05729 337.26562 65.30729Q336.48438 64.55729 336.48438 63.43229Q336.48438 62.58854 336.90625 62.02604Q337.34375 61.46354 338.125 61.260414ZM337.90625 59.46354Q337.90625 60.072914 338.29688 60.46354Q338.70312 60.854164 339.32812 60.854164Q339.9375 60.854164 340.32812 60.479164Q340.71875 60.08854 340.71875 59.52604Q340.71875 58.947914 340.3125 58.55729Q339.90625 58.15104 339.3125 58.15104Q338.70312 58.15104 338.29688 58.541664Q337.90625 58.93229 337.90625 59.46354ZM337.57812 63.43229Q337.57812 63.885414 337.78125 64.30729Q338.0 64.729164 338.42188 64.96354Q338.84375 65.197914 339.32812 65.197914Q340.07812 65.197914 340.5625 64.71354Q341.0625 64.229164 341.0625 63.479164Q341.0625 62.71354 340.5625 62.21354Q340.0625 61.71354 339.29688 61.71354Q338.54688 61.71354 338.0625 62.21354Q337.57812 62.697914 337.57812 63.43229ZM348.51562 65.916664L346.15625 59.697914L347.26562 59.697914L348.60938 63.416664Q348.8125 64.02604 349.0 64.666664Q349.14062 64.18229 349.39062 63.49479L350.78125 59.697914L351.85938 59.697914L349.5 65.916664L348.51562 65.916664ZM352.5625 58.447914L352.5625 57.43229L358.125 57.43229L358.125 58.260414Q357.3125 59.135414 356.5 60.58854Q355.70312 62.02604 355.26562 63.55729Q354.9375 64.635414 354.85938 65.916664L353.76562 65.916664Q353.78125 64.90104 354.15625 63.46354Q354.54688 62.02604 355.25 60.697914Q355.96875 59.36979 356.78125 58.447914L352.5625 58.447914ZM360.09375 65.916664L360.09375 64.71354L361.29688 64.71354L361.29688 65.916664L360.09375 65.916664ZM362.65625 63.93229L363.67188 63.83854Q363.79688 64.55729 364.15625 64.885414Q364.53125 65.197914 365.09375 65.197914Q365.57812 65.197914 365.9375 64.979164Q366.3125 64.74479 366.54688 64.385414Q366.78125 64.010414 366.9375 63.385414Q367.09375 62.74479 367.09375 62.08854Q367.09375 62.010414 367.09375 61.86979Q366.78125 62.36979 366.23438 62.697914Q365.6875 63.010414 365.04688 63.010414Q363.96875 63.010414 363.23438 62.24479Q362.5 61.46354 362.5 60.197914Q362.5 58.885414 363.26562 58.08854Q364.04688 57.291664 365.20312 57.291664Q366.03125 57.291664 366.71875 57.74479Q367.42188 58.197914 367.78125 59.041664Q368.14062 59.86979 368.14062 61.447914Q368.14062 63.08854 367.78125 64.072914Q367.4375 65.041664 366.71875 65.55729Q366.01562 66.05729 365.07812 66.05729Q364.0625 66.05729 363.42188 65.510414Q362.78125 64.947914 362.65625 63.93229ZM366.96875 60.135414Q366.96875 59.229164 366.48438 58.697914Q366.01562 58.166664 365.32812 58.166664Q364.625 58.166664 364.09375 58.74479Q363.57812 59.30729 363.57812 60.229164Q363.57812 61.041664 364.07812 61.55729Q364.57812 62.072914 365.29688 62.072914Q366.03125 62.072914 366.5 61.55729Q366.96875 61.041664 366.96875 60.135414Z" fill-rule="nonzero"/><path fill="#757575" d="M19.45625 32.95625L21.2375 32.8Q21.3625 33.8625 21.815624 34.55Q22.284374 35.2375 23.253124 35.675Q24.2375 36.096874 25.471874 36.096874Q26.55 36.096874 27.378124 35.784374Q28.20625 35.45625 28.6125 34.89375Q29.01875 34.33125 29.01875 33.659374Q29.01875 32.9875 28.628124 32.4875Q28.2375 31.9875 27.346874 31.64375Q26.76875 31.409374 24.784374 30.940624Q22.815624 30.471874 22.034374 30.05Q21.003124 29.51875 20.503124 28.721874Q20.003124 27.925 20.003124 26.940624Q20.003124 25.846874 20.6125 24.909374Q21.221874 23.971874 22.409374 23.4875Q23.596874 22.9875 25.034374 22.9875Q26.628124 22.9875 27.846874 23.503124Q29.065624 24.01875 29.70625 25.01875Q30.3625 26.003124 30.409374 27.26875L28.596874 27.409374Q28.45625 26.05 27.6125 25.3625Q26.76875 24.659374 25.1125 24.659374Q23.39375 24.659374 22.596874 25.3Q21.815624 25.925 21.815624 26.8Q21.815624 27.58125 22.378124 28.08125Q22.925 28.58125 25.2375 29.096874Q27.55 29.6125 28.409374 30.003124Q29.659374 30.58125 30.253124 31.471874Q30.846874 32.346874 30.846874 33.503124Q30.846874 34.64375 30.190624 35.659374Q29.534374 36.675 28.3 37.2375Q27.08125 37.8 25.55 37.8Q23.6125 37.8 22.3 37.2375Q20.9875 36.659374 20.2375 35.51875Q19.4875 34.378124 19.45625 32.95625ZM32.8625 41.51875L32.8625 27.175L34.471874 27.175L34.471874 28.51875Q35.034374 27.7375 35.7375 27.346874Q36.45625 26.940624 37.471874 26.940624Q38.8 26.940624 39.815624 27.628124Q40.83125 28.315624 41.346874 29.565624Q41.878124 30.8 41.878124 32.284374Q41.878124 33.878124 41.3 35.159374Q40.7375 36.425 39.64375 37.1125Q38.55 37.784374 37.346874 37.784374Q36.471874 37.784374 35.76875 37.409374Q35.08125 37.034374 34.628124 36.471874L34.628124 41.51875L32.8625 41.51875ZM34.45625 32.425Q34.45625 34.425 35.26875 35.378124Q36.08125 36.33125 37.2375 36.33125Q38.409374 36.33125 39.2375 35.346874Q40.08125 34.3625 40.08125 32.26875Q40.08125 30.3 39.253124 29.315624Q38.440624 28.315624 37.315624 28.315624Q36.190624 28.315624 35.315624 29.378124Q34.45625 30.425 34.45625 32.425ZM50.971874 34.20625L52.784374 34.440624Q52.3625 36.01875 51.190624 36.909374Q50.034374 37.784374 48.221874 37.784374Q45.95625 37.784374 44.6125 36.39375Q43.284374 34.9875 43.284374 32.45625Q43.284374 29.83125 44.628124 28.39375Q45.971874 26.940624 48.128124 26.940624Q50.20625 26.940624 51.51875 28.3625Q52.846874 29.76875 52.846874 32.346874Q52.846874 32.503124 52.83125 32.815624L45.096874 32.815624Q45.190624 34.51875 46.065624 35.425Q46.940624 36.33125 48.2375 36.33125Q49.20625 36.33125 49.878124 35.83125Q50.565624 35.315624 50.971874 34.20625ZM45.190624 31.3625L50.9875 31.3625Q50.878124 30.065624 50.33125 29.409374Q49.4875 28.39375 48.14375 28.39375Q46.940624 28.39375 46.1125 29.20625Q45.284374 30.003124 45.190624 31.3625ZM61.971874 34.20625L63.784374 34.440624Q63.3625 36.01875 62.190624 36.909374Q61.034374 37.784374 59.221874 37.784374Q56.95625 37.784374 55.6125 36.39375Q54.284374 34.9875 54.284374 32.45625Q54.284374 29.83125 55.628124 28.39375Q56.971874 26.940624 59.128124 26.940624Q61.20625 26.940624 62.51875 28.3625Q63.846874 29.76875 63.846874 32.346874Q63.846874 32.503124 63.83125 32.815624L56.096874 32.815624Q56.190624 34.51875 57.065624 35.425Q57.940624 36.33125 59.2375 36.33125Q60.20625 36.33125 60.878124 35.83125Q61.565624 35.315624 61.971874 34.20625ZM56.190624 31.3625L61.9875 31.3625Q61.878124 30.065624 61.33125 29.409374Q60.4875 28.39375 59.14375 28.39375Q57.940624 28.39375 57.1125 29.20625Q56.284374 30.003124 56.190624 31.3625ZM72.59688 37.55L72.59688 36.2375Q71.6125 37.784374 69.69063 37.784374Q68.45625 37.784374 67.40938 37.096874Q66.37813 36.409374 65.8 35.190624Q65.2375 33.971874 65.2375 32.378124Q65.2375 30.815624 65.75313 29.55Q66.26875 28.284374 67.3 27.6125Q68.34688 26.940624 69.6125 26.940624Q70.55 26.940624 71.28438 27.346874Q72.01875 27.7375 72.4875 28.3625L72.4875 23.2375L74.22188 23.2375L74.22188 37.55L72.59688 37.55ZM67.03438 32.378124Q67.03438 34.3625 67.87813 35.346874Q68.72188 36.33125 69.8625 36.33125Q71.01875 36.33125 71.81563 35.39375Q72.62813 34.45625 72.62813 32.51875Q72.62813 30.39375 71.8 29.39375Q70.9875 28.39375 69.78438 28.39375Q68.6125 28.39375 67.81563 29.3625Q67.03438 30.315624 67.03438 32.378124ZM76.22188 32.3625Q76.22188 29.4875 77.81563 28.096874Q79.15938 26.940624 81.08125 26.940624Q83.22188 26.940624 84.56563 28.346874Q85.925 29.753124 85.925 32.221874Q85.925 34.221874 85.33125 35.378124Q84.7375 36.51875 83.58125 37.159374Q82.44063 37.784374 81.08125 37.784374Q78.89375 37.784374 77.55 36.39375Q76.22188 34.9875 76.22188 32.3625ZM78.01875 32.3625Q78.01875 34.3625 78.87813 35.346874Q79.75313 36.33125 81.08125 36.33125Q82.39375 36.33125 83.25313 35.346874Q84.12813 34.346874 84.12813 32.3Q84.12813 30.378124 83.25313 29.39375Q82.37813 28.39375 81.08125 28.39375Q79.75313 28.39375 78.87813 29.39375Q78.01875 30.378124 78.01875 32.3625ZM87.8625 37.55L87.8625 27.175L89.44063 27.175L89.44063 28.628124Q89.925 27.878124 90.7375 27.409374Q91.55 26.940624 92.58125 26.940624Q93.7375 26.940624 94.47188 27.425Q95.20625 27.89375 95.51875 28.753124Q96.75313 26.940624 98.72188 26.940624Q100.26875 26.940624 101.09688 27.8Q101.925 28.659374 101.925 30.425L101.925 37.55L100.175 37.55L100.175 31.01875Q100.175 29.95625 100.00313 29.503124Q99.83125 29.034374 99.37813 28.753124Q98.94063 28.471874 98.33125 28.471874Q97.2375 28.471874 96.50313 29.20625Q95.78438 29.925 95.78438 31.51875L95.78438 37.55L94.03438 37.55L94.03438 30.815624Q94.03438 29.64375 93.59688 29.065624Q93.175 28.471874 92.19063 28.471874Q91.45625 28.471874 90.81563 28.8625Q90.19063 29.253124 89.90938 30.003124Q89.62813 30.753124 89.62813 32.175L89.62813 37.55L87.8625 37.55ZM111.97188 34.20625L113.78438 34.440624Q113.3625 36.01875 112.19063 36.909374Q111.03438 37.784374 109.22188 37.784374Q106.95625 37.784374 105.6125 36.39375Q104.28438 34.9875 104.28438 32.45625Q104.28438 29.83125 105.62813 28.39375Q106.97188 26.940624 109.12813 26.940624Q111.20625 26.940624 112.51875 28.3625Q113.84688 29.76875 113.84688 32.346874Q113.84688 32.503124 113.83125 32.815624L106.09688 32.815624Q106.19063 34.51875 107.06563 35.425Q107.94063 36.33125 109.2375 36.33125Q110.20625 36.33125 110.87813 35.83125Q111.56563 35.315624 111.97188 34.20625ZM106.19063 31.3625L111.9875 31.3625Q111.87813 30.065624 111.33125 29.409374Q110.4875 28.39375 109.14375 28.39375Q107.94063 28.39375 107.1125 29.20625Q106.28438 30.003124 106.19063 31.3625ZM119.70625 35.971874L119.95625 37.534374Q119.22188 37.690624 118.62813 37.690624Q117.675 37.690624 117.14375 37.39375Q116.62813 37.08125 116.40938 36.596874Q116.19063 36.096874 116.19063 34.51875L116.19063 28.55L114.90938 28.55L114.90938 27.175L116.19063 27.175L116.19063 24.6125L117.94063 23.55L117.94063 27.175L119.70625 27.175L119.70625 28.55L117.94063 28.55L117.94063 34.6125Q117.94063 35.3625 118.03438 35.58125Q118.12813 35.784374 118.33125 35.925Q118.55 36.05 118.94063 36.05Q119.22188 36.05 119.70625 35.971874ZM128.97188 34.20625L130.78438 34.440624Q130.3625 36.01875 129.19063 36.909374Q128.03438 37.784374 126.22188 37.784374Q123.95625 37.784374 122.6125 36.39375Q121.28438 34.9875 121.28438 32.45625Q121.28438 29.83125 122.62813 28.39375Q123.97188 26.940624 126.12813 26.940624Q128.20625 26.940624 129.51875 28.3625Q130.84688 29.76875 130.84688 32.346874Q130.84688 32.503124 130.83125 32.815624L123.09688 32.815624Q123.19063 34.51875 124.06563 35.425Q124.94063 36.33125 126.2375 36.33125Q127.20625 36.33125 127.87813 35.83125Q128.56563 35.315624 128.97188 34.20625ZM123.19063 31.3625L128.9875 31.3625Q128.87813 30.065624 128.33125 29.409374Q127.4875 28.39375 126.14375 28.39375Q124.94063 28.39375 124.1125 29.20625Q123.28438 30.003124 123.19063 31.3625ZM132.84688 37.55L132.84688 27.175L134.425 27.175L134.425 28.753124Q135.03438 27.64375 135.55 27.3Q136.06563 26.940624 136.675 26.940624Q137.56563 26.940624 138.4875 27.503124L137.87813 29.14375Q137.2375 28.753124 136.59688 28.753124Q136.01875 28.753124 135.55 29.1125Q135.09688 29.45625 134.89375 30.065624Q134.6125 31.003124 134.6125 32.1125L134.6125 37.55L132.84688 37.55Z" fill-rule="nonzero"/></svg>