<svg fill="none" height="371" stroke-linecap="square" stroke-miterlimit="10" width="600" xmlns="http://www.w3.org/2000/svg" xmlns:xlink="http://www.w3.org/1999/xlink"><clipPath id="a"><path d="m79.55 81.283h501.9v219.167h-501.9z"/></clipPath><path d="m0 0h600v371h-600z" fill="#fff"/><path d="m79.5 81.5v219" stroke="#333" stroke-linecap="butt"/><path d="m179.5 81.5v219m101-219v219m100-219v219m101-219v219m100-219v219" stroke="#ccc" stroke-linecap="butt"/><path clip-path="url(#a)" d="m80 143v-29h435a2 2 0 0 1 2 2v25a2 2 0 0 1 -2 2z"/><path clip-path="url(#a)" d="m80 143v-29h435a2 2 0 0 1 2 2v25a2 2 0 0 1 -2 2z" fill="#4285f4"/><path clip-path="url(#a)" d="m80 236v-29h404a2 2 0 0 1 2 2v25a2 2 0 0 1 -2 2z"/><path clip-path="url(#a)" d="m80 236v-29h404a2 2 0 0 1 2 2v25a2 2 0 0 1 -2 2z" fill="#4285f4"/><path clip-path="url(#a)" d="m80 173v-29h388a2 2 0 0 1 2 2v25a2 2 0 0 1 -2 2z"/><path clip-path="url(#a)" d="m80 173v-29h388a2 2 0 0 1 2 2v25a2 2 0 0 1 -2 2z" fill="#34a853"/><path clip-path="url(#a)" d="m80 266v-29h363a2 2 0 0 1 2 2v25a2 2 0 0 1 -2 2z"/><path clip-path="url(#a)" d="m80 266v-29h363a2 2 0 0 1 2 2v25a2 2 0 0 1 -2 2z" fill="#34a853"/><path d="m248.422 349.45v-8.594h2.969q1 0 1.53.125.735.172 1.25.61.688.578 1.017 1.484.343.89.343 2.031 0 .985-.234 1.735-.219.75-.578 1.25-.36.5-.797.78-.422.282-1.016.438-.594.141-1.375.141h-3.11zm1.14-1.016h1.829q.859 0 1.343-.156.485-.156.766-.453.406-.39.625-1.078.234-.688.234-1.656 0-1.344-.453-2.063-.437-.734-1.062-.984-.469-.172-1.469-.172h-1.813zm11.813 1.016v-.922q-.734 1.063-1.984 1.063-.547 0-1.032-.204-.468-.218-.703-.53-.234-.329-.328-.798-.062-.297-.062-.984v-3.844h1.062v3.453q0 .813.063 1.11.093.406.406.656.328.234.812.234.47 0 .875-.234.422-.25.594-.672.188-.422.188-1.219v-3.328h1.046v6.219zm2.906 0v-6.219h.953v.938q.36-.656.657-.86.312-.218.687-.218.531 0 1.078.328l-.36.984q-.39-.234-.765-.234-.36 0-.64.219-.266.203-.375.578-.188.562-.188 1.218v3.266zm8.078-.766q-.593.5-1.14.703-.531.204-1.156.204-1.032 0-1.579-.5-.546-.5-.546-1.282 0-.453.203-.828.203-.39.546-.61.344-.233.766-.343.297-.094.938-.172 1.265-.14 1.875-.36v-.265q0-.656-.297-.922-.406-.343-1.203-.343-.735 0-1.094.265-.36.25-.531.906l-1.032-.14q.141-.656.47-1.063.327-.406.937-.625.609-.218 1.406-.218.797 0 1.297.187.5.188.734.469.235.281.328.719.047.265.047.968v1.407q0 1.468.063 1.859.078.39.28.75h-1.108q-.157-.328-.204-.766zm-.093-2.359q-.579.234-1.72.406-.655.094-.921.219-.266.11-.422.328-.14.219-.14.5 0 .422.312.703.328.281.938.281.609 0 1.078-.265.484-.266.703-.735.172-.359.172-1.046zm5.328 2.188.156.921q-.453.094-.797.094-.578 0-.89-.172-.313-.187-.454-.484-.125-.297-.125-1.25v-3.578h-.765v-.813h.765v-1.547l1.047-.625v2.172h1.063v.813h-1.063v3.64q0 .453.047.578.063.125.188.204.125.078.359.078.188 0 .469-.031zm.703-6.438v-1.219h1.062v1.219zm0 7.375v-6.219h1.062v6.219zm2.61-3.11q0-1.734.952-2.562.797-.687 1.954-.687 1.28 0 2.093.843.828.828.828 2.313 0 1.203-.359 1.89-.36.688-1.063 1.079-.687.375-1.5.375-1.296 0-2.109-.829-.797-.843-.797-2.421zm1.077 0q0 1.188.516 1.782.531.594 1.313.594.796 0 1.312-.594t.516-1.813q0-1.156-.532-1.75-.515-.593-1.296-.593-.782 0-1.313.593-.516.578-.516 1.782zm6.313 3.11v-6.219h.937v.875q.688-1.015 1.985-1.015.562 0 1.031.203.484.203.719.531.234.328.328.766.047.296.047 1.03v3.829h-1.047v-3.781q0-.656-.125-.969-.125-.313-.438-.5-.312-.203-.734-.203-.672 0-1.172.437-.484.422-.484 1.61v3.406zm10-7.375v-1.219h1.062v1.219zm0 7.375v-6.219h1.062v6.219zm3 0v-6.219h.937v.875q.688-1.015 1.985-1.015.562 0 1.031.203.484.203.719.531.234.328.328.766.047.296.047 1.03v3.829h-1.047v-3.781q0-.656-.125-.969-.125-.313-.438-.5-.312-.203-.734-.203-.672 0-1.172.437-.484.422-.484 1.61v3.406zm10 0v-6.219h.937v.875q.297-.469.782-.734.484-.281 1.109-.281.688 0 1.125.28.453.282.625.798.75-1.078 1.922-1.078.937 0 1.422.515.5.5.5 1.578v4.266h-1.047v-3.922q0-.625-.11-.906-.093-.281-.359-.453-.265-.172-.64-.172-.657 0-1.094.437-.422.438-.422 1.407v3.609h-1.063v-4.047q0-.703-.265-1.047-.25-.36-.828-.36-.454 0-.829.235-.375.235-.546.688-.172.453-.172 1.297v3.234zm9.578-1.86 1.031-.156q.094.625.485.953.406.329 1.14.329.719 0 1.063-.282.36-.297.36-.703 0-.36-.313-.562-.22-.14-1.079-.36-1.156-.297-1.609-.5-.437-.218-.672-.593-.234-.375-.234-.844 0-.406.187-.766.188-.36.516-.594.25-.171.672-.296.422-.125.922-.125.719 0 1.265.218.563.203.829.563.265.36.359.953l-1.031.14q-.063-.468-.407-.734-.328-.281-.953-.281-.719 0-1.031.25-.313.234-.313.563 0 .203.125.359.141.172.407.281.156.063.937.266 1.125.312 1.563.5.437.187.687.547.25.359.25.906 0 .531-.312 1-.297.453-.875.719-.578.25-1.313.25-1.219 0-1.86-.5-.624-.516-.796-1.5zm11.438 4.391q-.875-1.11-1.485-2.578-.594-1.484-.594-3.062 0-1.391.438-2.672.531-1.485 1.64-2.953h.75q-.703 1.218-.937 1.734-.36.813-.563 1.688-.25 1.093-.25 2.203 0 2.828 1.75 5.64h-.75zm1.953-2.531v-8.594h1.062v8.594zm2.64-3.11q0-1.734.953-2.562.797-.687 1.954-.687 1.28 0 2.093.843.828.828.828 2.313 0 1.203-.359 1.89-.36.688-1.063 1.079-.687.375-1.5.375-1.296 0-2.109-.829-.797-.843-.797-2.421zm1.078 0q0 1.188.516 1.782.531.594 1.313.594.796 0 1.312-.594t.516-1.813q0-1.156-.532-1.75-.515-.593-1.296-.593-.782 0-1.313.593-.516.578-.516 1.782zm7.454 3.11-1.907-6.219h1.094l.984 3.594.375 1.328q.032-.094.329-1.281l.984-3.64h1.078l.938 3.609.312 1.187.36-1.203 1.062-3.594h1.031l-1.953 6.219h-1.094l-.984-3.734-.25-1.047-1.25 4.781h-1.11zm12.109-2 1.094.125q-.25.953-.954 1.484-.703.532-1.78.532-1.36 0-2.173-.844-.796-.844-.796-2.36 0-1.562.812-2.421.813-.875 2.094-.875 1.25 0 2.031.843.797.844.797 2.391v.281h-4.64q.062 1.031.577 1.578.516.532 1.297.532.578 0 .985-.297.421-.313.656-.969zm-3.453-1.703h3.469q-.063-.797-.391-1.188-.516-.609-1.313-.609-.734 0-1.234.484-.484.485-.531 1.313zm6.187 3.703v-6.219h.953v.938q.36-.656.657-.86.312-.218.687-.218.531 0 1.078.328l-.36.984q-.39-.234-.765-.234-.36 0-.64.219-.266.203-.375.578-.188.562-.188 1.218v3.266zm7.016-7.375v-1.219h1.062v1.219zm0 7.375v-6.219h1.062v6.219zm2.578-1.86 1.031-.156q.094.625.485.953.406.329 1.14.329.719 0 1.063-.282.36-.297.36-.703 0-.36-.313-.562-.22-.14-1.079-.36-1.156-.297-1.609-.5-.437-.218-.672-.593-.234-.375-.234-.844 0-.406.187-.766.188-.36.516-.594.25-.171.672-.296.422-.125.922-.125.719 0 1.265.218.563.203.829.563.265.36.359.953l-1.031.14q-.063-.468-.407-.734-.328-.281-.953-.281-.719 0-1.031.25-.313.234-.313.563 0 .203.125.359.141.172.407.281.156.063.937.266 1.125.312 1.563.5.437.187.687.547.25.359.25.906 0 .531-.312 1-.297.453-.875.719-.578.25-1.313.25-1.219 0-1.86-.5-.624-.516-.796-1.5zm10.39 1.86h-.984v-8.594h1.063v3.063q.672-.828 1.703-.828.578 0 1.078.234.516.219.844.64.344.423.531 1.016.188.594.188 1.266 0 1.594-.797 2.469-.797.875-1.891.875-1.11 0-1.734-.922v.781zm-.015-3.156q0 1.11.313 1.61.5.812 1.343.812.688 0 1.188-.594.515-.594.515-1.797 0-1.219-.484-1.797-.484-.578-1.172-.578-.687 0-1.203.61-.5.593-.5 1.734zm10.297 1.156 1.094.125q-.25.953-.954 1.484-.703.532-1.78.532-1.36 0-2.173-.844-.796-.844-.796-2.36 0-1.562.812-2.421.813-.875 2.094-.875 1.25 0 2.031.843.797.844.797 2.391v.281h-4.64q.062 1.031.577 1.578.516.532 1.297.532.578 0 .985-.297.421-.313.656-.969zm-3.453-1.703h3.469q-.063-.797-.391-1.188-.516-.609-1.313-.609-.734 0-1.234.484-.484.485-.531 1.313zm8.5 2.765.156.922q-.453.094-.797.094-.578 0-.89-.172-.313-.187-.454-.484-.125-.297-.125-1.25v-3.578h-.765v-.813h.765v-1.547l1.047-.625v2.172h1.063v.813h-1.063v3.64q0 .453.047.578.063.125.188.204.125.078.359.078.188 0 .469-.031zm3 0 .156.922q-.453.094-.797.094-.578 0-.89-.172-.313-.187-.454-.484-.125-.297-.125-1.25v-3.578h-.765v-.813h.765v-1.547l1.047-.625v2.172h1.063v.813h-1.063v3.64q0 .453.047.578.063.125.188.204.125.078.359.078.188 0 .469-.031zm4.953-1.062 1.094.125q-.25.953-.954 1.484-.703.532-1.78.532-1.36 0-2.173-.844-.796-.844-.796-2.36 0-1.562.812-2.421.813-.875 2.094-.875 1.25 0 2.031.843.797.844.797 2.391v.281h-4.64q.062 1.031.577 1.578.516.532 1.297.532.578 0 .985-.297.421-.313.656-.969zm-3.453-1.703h3.469q-.063-.797-.391-1.188-.516-.609-1.313-.609-.734 0-1.234.484-.484.485-.531 1.313zm6.187 3.703v-6.219h.953v.938q.36-.656.657-.86.312-.218.687-.218.531 0 1.078.328l-.36.984q-.39-.234-.765-.234-.36 0-.64.219-.266.203-.375.578-.188.562-.188 1.218v3.266zm4.703 2.531h-.75q1.75-2.812 1.75-5.64 0-1.094-.25-2.188-.203-.875-.562-1.687-.235-.516-.938-1.75h.75q1.094 1.468 1.625 2.953.454 1.281.454 2.672 0 1.578-.61 3.062-.61 1.469-1.469 2.578zm-372.653-211.105v-1.234h1.063v1.234h-1.064zm-1.328 9.781.188-.906q.328.078.5.078.328 0 .484-.219.156-.203.156-1.062v-6.531h1.063v6.562q0 1.14-.297 1.594-.39.594-1.266.594-.437 0-.828-.11zm10.984-3.343q.797.546 1.454.796l-.329.797q-.921-.343-1.843-1.062-.953.531-2.11.531-1.172 0-2.125-.562-.937-.563-1.453-1.579-.515-1.015-.515-2.296 0-1.266.515-2.313.516-1.047 1.469-1.594.953-.547 2.125-.547 1.188 0 2.14.579.97.562 1.47 1.578.5 1.015.5 2.297 0 1.062-.329 1.906-.312.844-.969 1.469zm-2.5-1.454q.985.282 1.625.829 1-.922 1-2.75 0-1.047-.359-1.829-.36-.78-1.047-1.203-.672-.437-1.515-.437-1.282 0-2.125.875-.829.86-.829 2.594 0 1.671.829 2.578.828.89 2.125.89.609 0 1.14-.234-.531-.344-1.125-.484zm8.938 2.375v-.921q-.734 1.062-1.984 1.062-.547 0-1.032-.203-.468-.219-.703-.531-.234-.328-.328-.797-.062-.297-.062-.985v-3.843h1.062v3.453q0 .812.063 1.11.093.405.406.655.328.235.812.235.47 0 .875-.235.422-.25.594-.671.188-.422.188-1.22v-3.327h1.046v6.218zm7.172-2 1.094.125q-.25.954-.954 1.485-.703.531-1.78.531-1.36 0-2.173-.844-.797-.843-.797-2.359 0-1.563.813-2.422.813-.875 2.094-.875 1.25 0 2.031.844.797.844.797 2.39v.282h-4.64q.062 1.031.577 1.578.516.531 1.297.531.578 0 .985-.297.421-.312.656-.969zm-3.453-1.703h3.468q-.062-.797-.39-1.187-.516-.61-1.313-.61-.734 0-1.234.485-.484.484-.531 1.312zm6.187 3.703v-6.218h.953v.937q.36-.656.657-.86.312-.218.687-.218.531 0 1.078.328l-.36.985q-.39-.235-.765-.235-.36 0-.64.219-.266.203-.375.578-.188.563-.188 1.219v3.265zm3.969 2.391-.125-.984q.344.093.61.093.343 0 .546-.125.219-.109.36-.312.093-.172.328-.797.015-.078.093-.25l-2.374-6.234h1.14l1.297 3.593q.25.688.453 1.454.188-.735.438-1.422l1.328-3.625h1.047l-2.36 6.328q-.39 1.015-.594 1.406-.28.531-.656.766-.36.25-.86.25-.296 0-.671-.14zm-48.875 90.872v-8.594h3.234q.985 0 1.579.266.593.265.921.812.344.531.344 1.125 0 .547-.297 1.031-.297.485-.906.782.781.234 1.188.797.421.546.421 1.296 0 .594-.25 1.125-.25.516-.625.797-.375.282-.953.422-.562.14-1.375.14h-3.281zm1.14-4.984h1.86q.75 0 1.078-.094.438-.125.656-.422.22-.313.22-.766 0-.422-.204-.75-.203-.328-.594-.437-.375-.125-1.297-.125h-1.718v2.594zm0 3.968h2.141q.547 0 .766-.047.406-.062.656-.218.266-.172.438-.485.172-.312.172-.719 0-.484-.25-.843-.235-.36-.672-.5-.438-.14-1.266-.14h-1.984v2.952zm10.844.25q-.593.5-1.14.703-.531.203-1.156.203-1.032 0-1.579-.5-.546-.5-.546-1.28 0-.454.203-.829.203-.39.547-.61.343-.234.765-.343.297-.094.938-.172 1.265-.14 1.875-.36v-.265q0-.656-.297-.922-.406-.344-1.203-.344-.735 0-1.094.266-.36.25-.531.906l-1.032-.14q.141-.656.47-1.063.327-.406.937-.625.609-.219 1.406-.219.797 0 1.297.188.5.188.734.469.234.281.328.719.047.265.047.968v1.406q0 1.47.063 1.86.078.39.28.75h-1.108q-.157-.328-.204-.766zm-.093-2.36q-.578.235-1.72.407-.655.094-.921.219-.266.11-.422.328-.14.219-.14.5 0 .422.312.703.328.281.938.281.609 0 1.078-.265.484-.266.703-.735.172-.359.172-1.047v-.39zm7.093.845 1.032.14q-.172 1.063-.875 1.672-.704.61-1.72.61-1.28 0-2.062-.829-.765-.843-.765-2.406 0-1 .328-1.75.344-.766 1.015-1.14.688-.376 1.5-.376 1 0 1.641.516.656.5.844 1.453l-1.031.156q-.141-.625-.516-.937-.375-.328-.906-.328-.797 0-1.297.578-.5.563-.5 1.797 0 1.266.484 1.828.485.563 1.25.563.625 0 1.031-.376.422-.375.547-1.171zm1.938 2.28v-8.593h1.062v4.906l2.485-2.53h1.375l-2.39 2.296 2.624 3.922h-1.297l-2.062-3.188-.735.72v2.468h-1.062zm6.969 0h-.985v-8.593h1.063v3.063q.672-.829 1.703-.829.578 0 1.078.235.516.219.844.64.343.422.531 1.016.188.594.188 1.266 0 1.594-.797 2.469-.797.874-1.891.874-1.11 0-1.734-.921zm-.016-3.155q0 1.109.313 1.609.5.813 1.343.813.688 0 1.188-.594.515-.594.515-1.797 0-1.219-.484-1.797-.484-.578-1.172-.578-.687 0-1.203.61-.5.593-.5 1.734zm5.656.046q0-1.734.953-2.562.797-.688 1.953-.688 1.282 0 2.094.844.828.828.828 2.313 0 1.203-.359 1.89-.36.688-1.063 1.078-.687.375-1.5.375-1.296 0-2.109-.828-.797-.843-.797-2.422zm1.078 0q0 1.188.516 1.782.531.594 1.313.594.796 0 1.312-.594t.516-1.813q0-1.156-.532-1.75-.515-.594-1.297-.594-.78 0-1.312.594-.516.578-.516 1.781zm6.313 3.11v-6.219h.937v.875q.688-1.016 1.985-1.016.562 0 1.031.204.484.203.719.53.234.329.328.766.047.297.047 1.032v3.828h-1.047v-3.781q0-.657-.125-.97-.125-.312-.438-.5-.312-.202-.734-.202-.672 0-1.172.437-.484.422-.484 1.61v3.406zm11.25-2 1.094.125q-.25.953-.954 1.484-.703.531-1.78.531-1.36 0-2.173-.843-.797-.844-.797-2.36 0-1.562.813-2.422.813-.875 2.094-.875 1.25 0 2.031.844.797.844.797 2.39v.282h-4.64q.062 1.031.577 1.578.516.531 1.297.531.578 0 .985-.296.421-.313.656-.97zm-3.453-1.703h3.468q-.062-.797-.39-1.188-.516-.61-1.313-.61-.734 0-1.234.485-.484.485-.531 1.313zm8.406 75.421q0-1.532.313-2.454.312-.937.921-1.437.625-.5 1.563-.5.687 0 1.203.281.531.281.875.813.344.515.531 1.265.188.75.188 2.032 0 1.515-.313 2.437-.297.922-.922 1.438-.609.5-1.562.5-1.234 0-1.953-.891-.844-1.063-.844-3.484zm1.078 0q0 2.109.5 2.812.5.703 1.219.703.734 0 1.219-.703.5-.703.5-2.812 0-2.125-.5-2.813-.485-.703-1.235-.703-.719 0-1.156.61-.547.78-.547 2.906zm103.271 4.234h-1.047v-6.719q-.39.36-1.016.735-.61.359-1.094.53v-1.015q.876-.422 1.532-1 .672-.594.953-1.156h.672zm101.958-1.016v1.016h-5.688q0-.375.125-.734.22-.579.688-1.141.484-.563 1.39-1.297 1.407-1.156 1.891-1.828.5-.672.5-1.266 0-.625-.453-1.047-.453-.437-1.172-.437-.765 0-1.219.453-.453.453-.468 1.266l-1.079-.11q.11-1.218.829-1.843.734-.641 1.968-.641 1.235 0 1.954.688.718.687.718 1.703 0 .515-.219 1.015-.203.485-.703 1.047-.484.547-1.609 1.5-.953.797-1.234 1.094-.266.281-.438.562zm94.833-1.25 1.063-.14q.171.89.609 1.297.437.39 1.062.39.75 0 1.266-.515.516-.516.516-1.282 0-.718-.485-1.187-.469-.485-1.203-.485-.297 0-.75.125l.125-.937q.11.016.172.016.672 0 1.203-.344.547-.36.547-1.094 0-.578-.39-.953-.391-.39-1.016-.39-.61 0-1.031.39-.407.39-.516 1.156l-1.063-.187q.188-1.047.875-1.625.688-.594 1.704-.594.703 0 1.296.313.594.296.907.812.312.516.312 1.11 0 .546-.297 1.015-.297.453-.875.719.75.172 1.172.734.422.547.422 1.39 0 1.126-.828 1.907-.813.781-2.063.781-1.125 0-1.875-.672-.75-.687-.859-1.75zm103.755 2.266v-2.063h-3.719v-.968l3.922-5.563h.86v5.563h1.156v.969h-1.156v2.062zm0-3.031v-3.86l-2.688 3.86zm97.005.781 1.11-.094q.124.813.562 1.219.453.406 1.094.406.75 0 1.28-.578.532-.578.532-1.516 0-.906-.515-1.421-.5-.532-1.329-.532-.5 0-.921.235-.407.234-.641.594l-.984-.125.828-4.407h4.28v1h-3.437l-.453 2.313q.766-.547 1.61-.547 1.125 0 1.89.781.782.781.782 2.016 0 1.156-.672 2.015-.828 1.032-2.25 1.032-1.172 0-1.922-.657-.735-.656-.844-1.734z" fill="#000"/><path d="m231 56.917a1 1 0 0 1 1-1h10a1 1 0 0 1 1 1v10a1 1 0 0 1 -1 1h-10a1 1 0 0 1 -1-1z" fill="#4285f4"/><path d="m254.375 65.917-3.328-8.594h1.234l2.235 6.25q.265.75.453 1.406.203-.703.469-1.406l2.312-6.25h1.156l-3.36 8.594zm6.75-4.657q-.656-.25-.984-.687-.313-.453-.313-1.063 0-.937.672-1.578.688-.64 1.797-.64 1.125 0 1.812.656.688.656.688 1.594 0 .593-.313 1.03-.312.438-.953.688.797.25 1.203.829.407.578.407 1.375 0 1.093-.782 1.843-.765.75-2.046.75-1.266 0-2.047-.75-.782-.75-.782-1.875 0-.843.422-1.406.438-.562 1.219-.766zm-.219-1.796q0 .609.39 1 .407.39 1.032.39.61 0 1-.375.39-.39.39-.953 0-.578-.406-.969-.406-.406-1-.406-.609 0-1.015.39-.39.391-.39.923zm-.328 3.968q0 .453.203.875.219.422.64.657.423.234.907.234.75 0 1.235-.484.5-.485.5-1.235 0-.765-.5-1.265-.5-.5-1.266-.5-.75 0-1.235.5-.484.484-.484 1.218zm10.938 2.485-2.36-6.22h1.11l1.343 3.72q.204.609.391 1.25.14-.485.39-1.172l1.391-3.797h1.078l-2.359 6.219zm4.046-7.47v-1.015h5.563v.828q-.813.875-1.625 2.329-.797 1.437-1.234 2.968-.329 1.078-.407 2.36h-1.093q.015-1.016.39-2.453.39-1.438 1.094-2.766.719-1.328 1.531-2.25h-4.219zm7.532 7.47v-1.203h1.203v1.203zm4.031-4.657q-.656-.25-.984-.687-.313-.453-.313-1.063 0-.937.672-1.578.688-.64 1.797-.64 1.125 0 1.812.656.688.656.688 1.594 0 .593-.313 1.03-.312.438-.953.688.797.25 1.203.829.407.578.407 1.375 0 1.093-.782 1.843-.765.75-2.046.75-1.266 0-2.047-.75-.782-.75-.782-1.875 0-.843.422-1.406.438-.562 1.219-.766zm-.219-1.796q0 .609.39 1 .407.39 1.032.39.61 0 1-.375.39-.39.39-.953 0-.578-.406-.969-.406-.406-1-.406-.609 0-1.015.39-.39.391-.39.923zm-.328 3.968q0 .453.203.875.219.422.64.657.423.234.907.234.75 0 1.235-.484.5-.485.5-1.235 0-.765-.5-1.265-.5-.5-1.266-.5-.75 0-1.235.5-.484.484-.484 1.218z" fill="#1a1a1a"/><path d="m308 56.917a1 1 0 0 1 1-1h10a1 1 0 0 1 1 1v10a1 1 0 0 1 -1 1h-10a1 1 0 0 1 -1-1z" fill="#34a853"/><path d="m331.375 65.917-3.328-8.594h1.234l2.235 6.25q.265.75.453 1.406.203-.703.469-1.406l2.312-6.25h1.156l-3.36 8.594zm6.75-4.657q-.656-.25-.984-.687-.313-.453-.313-1.063 0-.937.672-1.578.688-.64 1.797-.64 1.125 0 1.812.656.688.656.688 1.594 0 .593-.313 1.03-.312.438-.953.688.797.25 1.203.829.407.578.407 1.375 0 1.093-.782 1.843-.765.75-2.046.75-1.266 0-2.047-.75-.782-.75-.782-1.875 0-.843.422-1.406.438-.562 1.219-.766zm-.219-1.796q0 .609.39 1 .407.39 1.032.39.61 0 1-.375.39-.39.39-.953 0-.578-.406-.969-.406-.406-1-.406-.609 0-1.015.39-.39.391-.39.923zm-.328 3.968q0 .453.203.875.219.422.64.657.423.234.907.234.75 0 1.235-.484.5-.485.5-1.235 0-.765-.5-1.265-.5-.5-1.266-.5-.75 0-1.235.5-.484.484-.484 1.218zm10.938 2.485-2.36-6.22h1.11l1.343 3.72q.204.609.391 1.25.14-.485.39-1.172l1.391-3.797h1.078l-2.359 6.219zm4.046-7.47v-1.015h5.563v.828q-.813.875-1.625 2.329-.797 1.437-1.234 2.968-.329 1.078-.407 2.36h-1.093q.015-1.016.39-2.453.39-1.438 1.094-2.766.719-1.328 1.531-2.25h-4.219zm7.532 7.47v-1.203h1.203v1.203zm2.562-1.985 1.016-.093q.125.718.484 1.046.375.313.938.313.484 0 .844-.219.375-.234.609-.594.234-.375.39-1 .157-.64.157-1.296v-.22q-.313.5-.86.829-.546.312-1.187.312-1.078 0-1.813-.765-.734-.781-.734-2.047 0-1.313.766-2.11.78-.796 1.937-.796.828 0 1.516.453.703.453 1.062 1.297.36.828.36 2.406 0 1.64-.36 2.625-.344.969-1.062 1.484-.703.5-1.64.5-1.017 0-1.657-.547-.64-.562-.766-1.578zm4.313-3.797q0-.906-.485-1.437-.468-.531-1.156-.531-.703 0-1.234.578-.516.562-.516 1.484 0 .813.5 1.328.5.516 1.219.516.734 0 1.203-.516.469-.515.469-1.422z" fill="#1a1a1a"/><path d="m19.456 32.956 1.782-.156q.125 1.063.578 1.75.468.688 1.437 1.125.985.422 2.219.422 1.078 0 1.906-.313.828-.328 1.235-.89.406-.563.406-1.235 0-.672-.39-1.172-.392-.5-1.282-.843-.578-.235-2.563-.703-1.968-.47-2.75-.891-1.03-.531-1.53-1.328t-.5-1.781q0-1.094.608-2.032.61-.937 1.797-1.421 1.188-.5 2.625-.5 1.594 0 2.813.515 1.219.516 1.86 1.516.655.984.702 2.25l-1.812.14q-.14-1.359-.985-2.046-.843-.704-2.5-.704-1.718 0-2.515.641-.781.625-.781 1.5 0 .781.562 1.281.547.5 2.86 1.016 2.312.515 3.171.906 1.25.578 1.844 1.469.594.875.594 2.031 0 1.14-.656 2.156-.657 1.016-1.891 1.578-1.219.563-2.75.563-1.938 0-3.25-.563-1.313-.578-2.063-1.718-.75-1.14-.78-2.563zm13.406 8.563v-14.344h1.61v1.344q.562-.781 1.265-1.172.72-.406 1.735-.406 1.328 0 2.344.687 1.015.688 1.53 1.938.532 1.234.532 2.718 0 1.594-.578 2.875-.563 1.266-1.656 1.953-1.094.672-2.297.672-.875 0-1.578-.375-.688-.375-1.14-.937v5.047zm1.594-9.094q0 2 .813 2.953.812.953 1.968.953 1.172 0 2-.984.844-.985.844-3.078 0-1.969-.828-2.953-.812-1-1.937-1t-2 1.062q-.86 1.047-.86 3.047zm16.516 1.781 1.812.235q-.422 1.578-1.593 2.468-1.157.875-2.97.875-2.265 0-3.608-1.39-1.329-1.407-1.329-3.938 0-2.625 1.344-4.062 1.344-1.453 3.5-1.453 2.078 0 3.39 1.422 1.329 1.406 1.329 3.984 0 .156-.016.469h-7.734q.094 1.703.969 2.609.875.906 2.171.906.97 0 1.641-.5.688-.515 1.094-1.625zm-5.781-2.844h5.796q-.109-1.296-.656-1.953-.844-1.015-2.187-1.015-1.203 0-2.032.812-.828.797-.921 2.157zm16.78 2.844 1.813.235q-.422 1.578-1.593 2.468-1.157.875-2.97.875-2.265 0-3.608-1.39-1.329-1.407-1.329-3.938 0-2.625 1.344-4.062 1.344-1.453 3.5-1.453 2.078 0 3.39 1.422 1.329 1.406 1.329 3.984 0 .156-.016.469h-7.734q.094 1.703.969 2.609.875.906 2.171.906.97 0 1.641-.5.688-.515 1.094-1.625zm-5.78-2.844h5.796q-.109-1.296-.656-1.953-.844-1.015-2.187-1.015-1.203 0-2.032.812-.828.797-.921 2.157zm16.406 6.188v-1.313q-.984 1.547-2.906 1.547-1.235 0-2.282-.687-1.03-.688-1.609-1.906-.563-1.22-.563-2.813 0-1.562.516-2.828.516-1.266 1.547-1.938 1.047-.671 2.313-.671.937 0 1.671.406.735.39 1.203 1.015v-5.124h1.735v14.312zm-5.563-5.172q0 1.984.844 2.969.844.984 1.984.984 1.157 0 1.954-.937.812-.938.812-2.875 0-2.125-.828-3.125-.813-1-2.016-1-1.172 0-1.968.969-.782.953-.782 3.015zm9.188-.016q0-2.875 1.594-4.265 1.343-1.156 3.265-1.156 2.14 0 3.485 1.406 1.359 1.406 1.359 3.875 0 2-.594 3.156-.594 1.14-1.75 1.781-1.14.625-2.5.625-2.187 0-3.531-1.39-1.328-1.407-1.328-4.032zm1.797 0q0 2 .86 2.985.874.984 2.202.984 1.313 0 2.172-.984.875-1 .875-3.047 0-1.922-.875-2.906-.875-1-2.172-1-1.328 0-2.203 1-.86.984-.86 2.968zm9.843 5.188v-10.375h1.579v1.453q.484-.75 1.296-1.219.813-.468 1.844-.468 1.156 0 1.89.484.735.469 1.048 1.328 1.234-1.812 3.203-1.812 1.547 0 2.375.859.828.86.828 2.625v7.125h-1.75v-6.531q0-1.063-.172-1.516-.172-.469-.625-.75-.437-.281-1.047-.281-1.094 0-1.828.734-.719.719-.719 2.313v6.031h-1.75v-6.734q0-1.172-.437-1.75-.422-.594-1.406-.594-.735 0-1.375.39-.625.391-.907 1.141-.28.75-.28 2.172v5.375zm24.11-3.344 1.812.235q-.422 1.578-1.593 2.468-1.157.875-2.97.875-2.265 0-3.609-1.39-1.328-1.407-1.328-3.938 0-2.625 1.344-4.062 1.344-1.453 3.5-1.453 2.078 0 3.39 1.422 1.329 1.406 1.329 3.984 0 .156-.016.469h-7.734q.094 1.703.969 2.609.875.906 2.171.906.97 0 1.641-.5.688-.515 1.094-1.625zm-5.781-2.844h5.796q-.109-1.296-.656-1.953-.844-1.015-2.187-1.015-1.203 0-2.032.812-.828.797-.921 2.157zm13.515 4.61.25 1.562q-.734.157-1.328.157-.953 0-1.484-.297-.516-.313-.735-.797-.218-.5-.218-2.078v-5.969h-1.282v-1.375h1.282v-2.563l1.75-1.062v3.625h1.765v1.375h-1.765v6.062q0 .75.093.97.094.202.297.343.219.125.61.125.28 0 .765-.078zm9.266-1.766 1.812.235q-.421 1.578-1.593 2.468-1.157.875-2.97.875-2.265 0-3.609-1.39-1.328-1.407-1.328-3.938 0-2.625 1.344-4.062 1.344-1.453 3.5-1.453 2.078 0 3.39 1.422 1.329 1.406 1.329 3.984 0 .156-.016.469h-7.734q.094 1.703.969 2.609.875.906 2.171.906.97 0 1.641-.5.688-.515 1.094-1.625zm-5.781-2.844h5.797q-.11-1.296-.657-1.953-.843-1.015-2.187-1.015-1.203 0-2.032.812-.828.797-.921 2.157zm9.656 6.188v-10.375h1.578v1.578q.61-1.11 1.125-1.453.516-.36 1.125-.36.89 0 1.813.563l-.61 1.64q-.64-.39-1.281-.39-.578 0-1.047.36-.453.343-.656.953-.281.937-.281 2.046v5.438z" fill="#757575"/></svg>