<svg fill="none" stroke-linecap="square" stroke-miterlimit="10" width="700" height="433" xmlns="http://www.w3.org/2000/svg"><path fill="#fff" d="M0 0h700v433H0V0z"/><path stroke="#ccc" stroke-linecap="butt" d="M131.5 358.5h547M131.5 300.5h547M131.5 241.5h547M131.5 183.5h547M131.5 124.5h547M131.5 66.5h547"/><clipPath id="a"><path d="M131.25 66.428h547.108v292.46H131.25V66.428z"/></clipPath><path stroke="#3c78d8" stroke-width="2" stroke-linecap="butt" clip-path="url(#a)" d="M165.444 85.965s45.593 11.27 68.389 24.215c22.796 12.947 45.592 37.143 68.388 53.462 22.797 16.32 45.593 37.064 68.389 44.454 22.796 7.39 45.592-1.852 68.388-.117 22.797 1.735 45.593 3.626 68.389 10.528 22.796 6.902 45.592 24.1 68.388 30.884 22.797 6.785 68.39 9.827 68.39 9.827"/><path stroke="#6aa84f" stroke-width="2" stroke-linecap="butt" clip-path="url(#a)" d="M165.444 85.965s45.593 45.818 68.389 83.994c22.796 38.176 45.592 121.137 68.388 145.06 22.797 23.923 45.593-.877 68.389-1.52 22.796-.644 45.592-1.346 68.388-2.34 22.797-.995 45.593-1.677 68.389-3.627 22.796-1.95 45.592-5.888 68.388-8.072 22.797-2.183 68.39-5.03 68.39-5.03"/><path fill="none" clip-path="url(#a)" d="M168.444 85.965a3 3 0 1 1-6 0 3 3 0 0 1 6 0zM236.833 110.18a3 3 0 1 1-6 0 3 3 0 0 1 6 0zM305.221 163.642a3 3 0 1 1-6 0 3 3 0 0 1 6 0zM373.61 208.096a3 3 0 1 1-6 0 3 3 0 0 1 6 0zM441.998 207.979a3 3 0 1 1-6 0 3 3 0 0 1 6 0zM510.387 218.507a3 3 0 1 1-6 0 3 3 0 0 1 6 0zM578.775 249.391a3 3 0 1 1-6 0 3 3 0 0 1 6 0zM647.164 259.218a3 3 0 1 1-6 0 3 3 0 0 1 6 0z"/><path fill="none" clip-path="url(#a)" d="M168.444 85.965a3 3 0 1 1-6 0 3 3 0 0 1 6 0zM236.833 169.96a3 3 0 1 1-6 0 3 3 0 0 1 6 0zM305.221 315.02a3 3 0 1 1-6 0 3 3 0 0 1 6 0zM373.61 313.498a3 3 0 1 1-6 0 3 3 0 0 1 6 0zM441.998 311.159a3 3 0 1 1-6 0 3 3 0 0 1 6 0zM510.387 307.532a3 3 0 1 1-6 0 3 3 0 0 1 6 0zM578.775 299.46a3 3 0 1 1-6 0 3 3 0 0 1 6 0zM647.164 294.43a3 3 0 1 1-6 0 3 3 0 0 1 6 0z"/><path fill="#434343" d="M346.07 414.962l1.89.468q-.593 2.344-2.14 3.578-1.547 1.22-3.797 1.22-2.313 0-3.766-.938-1.437-.953-2.203-2.735-.75-1.797-.75-3.843 0-2.235.844-3.891.86-1.672 2.437-2.531 1.579-.875 3.47-.875 2.155 0 3.609 1.093 1.468 1.094 2.046 3.079l-1.859.437q-.5-1.562-1.453-2.266-.938-.718-2.375-.718-1.656 0-2.766.797-1.11.78-1.562 2.125-.438 1.328-.438 2.734 0 1.828.532 3.203.53 1.36 1.656 2.031 1.125.672 2.422.672 1.593 0 2.703-.922 1.11-.922 1.5-2.718zm3.547 5.015v-14.312h1.765v5.125q1.235-1.422 3.11-1.422 1.14 0 1.984.453.86.453 1.219 1.266.375.796.375 2.312v6.578h-1.75V413.4q0-1.312-.578-1.906-.578-.61-1.61-.61-.781 0-1.484.407-.688.406-.984 1.11-.282.687-.282 1.905v5.672h-1.765zm10.984 0v-10.375h1.578v1.578q.61-1.109 1.125-1.453.516-.36 1.125-.36.89 0 1.813.563l-.61 1.641q-.64-.39-1.281-.39-.578 0-1.047.359-.453.343-.656.953-.281.937-.281 2.047v5.437H360.6zm6.375-5.187q0-2.875 1.594-4.266 1.344-1.156 3.265-1.156 2.141 0 3.485 1.406 1.36 1.406 1.36 3.875 0 2-.595 3.156-.593 1.141-1.75 1.782-1.14.625-2.5.625-2.187 0-3.53-1.391-1.329-1.406-1.329-4.031zm1.797 0q0 2 .86 2.984.874.984 2.202.984 1.313 0 2.172-.984.875-1 .875-3.047 0-1.922-.875-2.906-.875-1-2.172-1-1.328 0-2.203 1-.86.984-.86 2.969zm9.844 5.187v-10.375h1.578v1.453q.484-.75 1.297-1.218.812-.47 1.843-.47 1.157 0 1.891.485.734.469 1.047 1.328 1.234-1.812 3.203-1.812 1.547 0 2.375.86.828.859.828 2.624v7.125h-1.75v-6.531q0-1.063-.172-1.516-.172-.468-.625-.75-.437-.28-1.047-.28-1.093 0-1.828.733-.718.72-.718 2.313v6.031h-1.75v-6.734q0-1.172-.438-1.75-.422-.594-1.406-.594-.735 0-1.375.39-.625.391-.906 1.141-.282.75-.282 2.172v5.375h-1.765zm24.109-3.344l1.813.235q-.422 1.578-1.594 2.469-1.156.875-2.969.875-2.266 0-3.61-1.391-1.327-1.406-1.327-3.938 0-2.625 1.343-4.062 1.344-1.453 3.5-1.453 2.078 0 3.39 1.422 1.329 1.406 1.329 3.984 0 .156-.016.469h-7.734q.094 1.703.969 2.61.875.905 2.172.905.968 0 1.64-.5.688-.515 1.094-1.625zm-5.781-2.843h5.797q-.11-1.297-.657-1.953-.843-1.016-2.187-1.016-1.203 0-2.031.812-.828.797-.922 2.157zm18.562 6.187l-3.953-10.375h1.86l2.234 6.219q.36 1 .656 2.078.235-.812.656-1.969l2.297-6.328h1.813l-3.922 10.375h-1.64zm14.219-3.344l1.813.235q-.422 1.578-1.594 2.469-1.156.875-2.969.875-2.266 0-3.61-1.391-1.327-1.406-1.327-3.938 0-2.625 1.343-4.062 1.344-1.453 3.5-1.453 2.078 0 3.39 1.422 1.329 1.406 1.329 3.984 0 .156-.016.469h-7.734q.094 1.703.969 2.61.875.905 2.172.905.968 0 1.64-.5.688-.515 1.094-1.625zm-5.781-2.843h5.797q-.11-1.297-.657-1.953-.843-1.016-2.187-1.016-1.203 0-2.031.812-.828.797-.922 2.157zm9.656 6.187v-10.375h1.578v1.578q.61-1.109 1.125-1.453.516-.36 1.125-.36.89 0 1.813.563l-.61 1.641q-.64-.39-1.281-.39-.578 0-1.047.359-.453.343-.656.953-.281.937-.281 2.047v5.437H433.6zm6.313-3.094l1.75-.28q.14 1.046.812 1.609.672.546 1.875.546 1.203 0 1.781-.484.594-.5.594-1.156 0-.594-.516-.938-.359-.234-1.796-.593-1.938-.5-2.688-.844-.734-.36-1.125-.985-.39-.64-.39-1.406 0-.687.312-1.281.328-.594.875-.984.406-.297 1.11-.5.718-.22 1.53-.22 1.22 0 2.141.36.922.344 1.36.953.437.594.609 1.594l-1.719.234q-.125-.796-.687-1.234-.563-.453-1.578-.453-1.22 0-1.735.406-.515.39-.515.922 0 .344.218.625.203.281.672.469.266.094 1.547.437 1.875.5 2.61.828.734.313 1.156.922.422.594.422 1.5 0 .875-.516 1.657-.516.78-1.484 1.203-.97.422-2.188.422-2.016 0-3.078-.844-1.063-.844-1.36-2.485zm10.718-9.203v-2.015h1.766v2.015h-1.766zm0 12.297v-10.375h1.766v10.375h-1.766zm3.344-5.187q0-2.875 1.594-4.266 1.344-1.156 3.265-1.156 2.141 0 3.485 1.406 1.36 1.406 1.36 3.875 0 2-.595 3.156-.593 1.141-1.75 1.782-1.14.625-2.5.625-2.187 0-3.53-1.391-1.329-1.406-1.329-4.031zm1.797 0q0 2 .86 2.984.874.984 2.202.984 1.313 0 2.172-.984.875-1 .875-3.047 0-1.922-.875-2.906-.875-1-2.172-1-1.328 0-2.203 1-.86.984-.86 2.969zm9.844 5.187v-10.375h1.593v1.485q1.141-1.72 3.297-1.72.938 0 1.719.345.797.328 1.188.875.39.546.546 1.296.094.5.094 1.72v6.374h-1.765v-6.312q0-1.078-.204-1.61-.203-.53-.734-.843-.516-.313-1.219-.313-1.125 0-1.937.719-.813.703-.813 2.687v5.672h-1.765zM40.261 260.124H25.95v-1.89h5.875v-7.438h-5.875v-1.89H40.26v1.89h-6.75v7.438h6.75v1.89zm-3.344-20.812l.235-1.813q1.578.422 2.469 1.594.875 1.156.875 2.969 0 2.265-1.391 3.61-1.406 1.327-3.938 1.327-2.625 0-4.062-1.344-1.453-1.343-1.453-3.5 0-2.078 1.422-3.39 1.406-1.328 3.984-1.328.156 0 .469.015v7.735q1.703-.094 2.61-.969.905-.875.905-2.172 0-.969-.5-1.64-.515-.688-1.625-1.094zm-2.843 5.781v-5.797q-1.297.11-1.953.656-1.016.844-1.016 2.188 0 1.203.812 2.031.797.828 2.157.922zm4.906-16.453q.828.984 1.172 1.89.344.907.344 1.938 0 1.703-.829 2.625-.843.922-2.14.922-.766 0-1.39-.344-.626-.36-1-.922-.391-.562-.595-1.265-.125-.516-.265-1.563-.25-2.125-.594-3.125-.36-.016-.469-.016-1.062 0-1.515.5-.594.672-.594 2 0 1.25.437 1.844.438.578 1.547.86l-.234 1.718q-1.11-.234-1.781-.765-.688-.532-1.047-1.547-.375-1.016-.375-2.36 0-1.328.312-2.156.313-.828.797-1.219.469-.39 1.188-.546.453-.094 1.625-.094h2.343q2.454 0 3.11-.11.64-.109 1.234-.453v1.844q-.547.266-1.281.344zm-3.922.156q.39.953.656 2.875.157 1.078.36 1.531.187.438.562.688.375.25.844.25.703 0 1.172-.531.469-.532.469-1.563 0-1.016-.438-1.797-.453-.797-1.219-1.172-.609-.28-1.765-.28h-.64zm9.172-4.375H29.886v-1.61h1.344q-.781-.562-1.172-1.265-.406-.719-.406-1.734 0-1.328.687-2.344.688-1.016 1.938-1.531 1.234-.532 2.719-.532 1.593 0 2.875.579 1.265.562 1.953 1.656.672 1.094.672 2.297 0 .875-.375 1.578-.375.687-.938 1.14h5.047v1.766zm-9.094-1.594q2 0 2.953-.812.953-.813.953-1.969 0-1.172-.984-2-.984-.844-3.078-.844-1.969 0-2.953.828-1 .813-1 1.938t1.062 2q1.047.86 3.047.86zm2.031-14.703l-.28-1.75q1.046-.14 1.609-.812.546-.672.546-1.875 0-1.203-.484-1.782-.5-.593-1.156-.593-.594 0-.938.515-.234.36-.593 1.797-.5 1.938-.844 2.688-.36.734-.985 1.125-.64.39-1.406.39-.687 0-1.281-.312-.594-.328-.984-.875-.297-.406-.5-1.11-.22-.718-.22-1.53 0-1.22.36-2.141.344-.922.953-1.36.594-.437 1.594-.61l.234 1.72q-.796.125-1.234.687-.453.563-.453 1.578 0 1.219.406 1.735.39.515.922.515.344 0 .625-.219.281-.203.469-.671.094-.266.437-1.547.5-1.875.828-2.61.313-.734.922-1.156.594-.422 1.5-.422.875 0 1.657.516.78.516 1.203 1.484.422.969.422 2.188 0 2.015-.844 3.078-.844 1.062-2.485 1.36zm-9.203-10.719H25.95v-1.765h2.015v1.766zm12.297 0H29.886v-1.765h10.375v1.766zm0-3.062H38.84l-7.578-6.61q.047 1.126.047 1.985v4.234h-1.422v-8.484h1.172l6.578 5.625 1.203 1.078q-.093-1.172-.093-2.219v-4.797h1.515v9.188zm-3.344-18.031l.235-1.813q1.578.422 2.469 1.594.875 1.156.875 2.969 0 2.265-1.391 3.61-1.406 1.327-3.938 1.327-2.625 0-4.062-1.344-1.453-1.343-1.453-3.5 0-2.078 1.422-3.39 1.406-1.328 3.984-1.328.156 0 .469.015v7.735q1.703-.094 2.61-.969.905-.875.905-2.172 0-.969-.5-1.64-.515-.688-1.625-1.094zm-2.843 5.781v-5.797q-1.297.11-1.953.656-1.016.844-1.016 2.188 0 1.203.812 2.031.797.828 2.157.922zM73.922 361.388l1.469-.125q.171 1.078.765 1.625.594.531 1.438.531 1.015 0 1.719-.765.703-.766.703-2.031 0-1.204-.672-1.891-.672-.703-1.766-.703-.687 0-1.234.312-.547.313-.86.797l-1.312-.172 1.11-5.875h5.687v1.344h-4.563l-.625 3.078q1.031-.719 2.172-.719 1.5 0 2.531 1.047 1.032 1.032 1.032 2.657 0 1.562-.907 2.687-1.109 1.406-3.015 1.406-1.563 0-2.547-.875-.984-.89-1.125-2.328zm9.781 3v-1.61h1.61v1.61h-1.61zm3.219-3l1.469-.125q.171 1.078.765 1.625.594.531 1.438.531 1.015 0 1.719-.765.703-.766.703-2.031 0-1.204-.672-1.891-.672-.703-1.766-.703-.687 0-1.234.312-.547.313-.86.797l-1.312-.172 1.11-5.875h5.687v1.344h-4.563l-.625 3.078q1.031-.719 2.172-.719 1.5 0 2.531 1.047 1.032 1.032 1.032 2.657 0 1.562-.907 2.687-1.109 1.406-3.015 1.406-1.563 0-2.547-.875-.984-.89-1.125-2.328zm13.516 3v-11.453h2.28l2.72 8.11q.374 1.124.546 1.687.188-.625.61-1.828l2.734-7.969h2.047v11.453h-1.469v-9.594l-3.328 9.594h-1.36l-3.312-9.75v9.75h-1.469zm12.984 0v-11.453h4.297q1.312 0 2.11.344.796.344 1.234 1.078.453.719.453 1.5 0 .734-.407 1.39-.39.641-1.187 1.047 1.031.297 1.594 1.032.562.734.562 1.734 0 .813-.344 1.5-.343.688-.843 1.063-.5.375-1.25.578-.75.187-1.844.187h-4.375zm1.516-6.64h2.484q1 0 1.437-.141.579-.172.875-.563.297-.406.297-1 0-.578-.281-1-.266-.437-.781-.593-.5-.172-1.735-.172h-2.296v3.469zm0 5.28h2.859q.734 0 1.031-.046.516-.094.86-.313.359-.218.578-.64.234-.422.234-.969 0-.64-.328-1.11-.328-.468-.906-.656-.579-.203-1.672-.203h-2.656v3.938zM81.219 297.24l-1.406.11q-.188-.829-.532-1.204-.562-.594-1.406-.594-.672 0-1.172.375-.672.485-1.062 1.422-.375.922-.391 2.64.516-.78 1.25-1.155t1.531-.375q1.406 0 2.39 1.047 1 1.03 1 2.671 0 1.079-.468 2-.469.922-1.281 1.422-.813.5-1.844.5-1.75 0-2.86-1.297-1.109-1.296-1.109-4.265 0-3.328 1.22-4.828 1.077-1.313 2.89-1.313 1.344 0 2.203.766.875.75 1.047 2.078zm-5.75 4.937q0 .735.312 1.407.313.656.86 1 .562.343 1.171.343.891 0 1.532-.718.64-.72.64-1.953 0-1.188-.64-1.86-.625-.687-1.594-.687-.953 0-1.625.687-.656.672-.656 1.781zm8.234 3.72v-1.61h1.61v1.61h-1.61zm3.219-5.657q0-2.031.406-3.266.422-1.234 1.25-1.906.828-.672 2.078-.672.922 0 1.61.375.703.36 1.156 1.063.453.703.703 1.703.266 1 .266 2.703 0 2.016-.422 3.266-.406 1.234-1.235 1.921-.828.672-2.078.672-1.656 0-2.61-1.203-1.124-1.422-1.124-4.656zm1.437 0q0 2.828.657 3.766.671.921 1.64.921.969 0 1.625-.937.656-.938.656-3.75 0-2.828-.656-3.75-.656-.938-1.64-.938-.97 0-1.547.829-.735 1.046-.735 3.859zm12.079 5.656v-11.453h2.28l2.72 8.11q.374 1.124.546 1.687.188-.625.61-1.828l2.734-7.969h2.047v11.453h-1.469v-9.594l-3.328 9.594h-1.36l-3.312-9.75v9.75h-1.469zm12.984 0v-11.453h4.297q1.312 0 2.11.344.796.344 1.234 1.078.453.719.453 1.5 0 .734-.407 1.39-.39.641-1.187 1.047 1.031.297 1.594 1.032.562.734.562 1.734 0 .813-.344 1.5-.343.688-.843 1.063-.5.375-1.25.578-.75.187-1.844.187h-4.375zm1.516-6.64h2.484q1 0 1.437-.141.579-.172.875-.563.297-.406.297-1 0-.578-.281-1-.266-.437-.781-.593-.5-.172-1.735-.172h-2.296v3.469zm0 5.28h2.859q.734 0 1.031-.046.516-.094.86-.313.359-.218.578-.64.234-.422.234-.969 0-.64-.328-1.11-.328-.468-.906-.656-.579-.203-1.672-.203h-2.656v3.938zM81.219 238.748l-1.406.11q-.188-.829-.532-1.204-.562-.594-1.406-.594-.672 0-1.172.375-.672.485-1.062 1.422-.375.922-.391 2.641.516-.781 1.25-1.156.734-.375 1.531-.375 1.406 0 2.39 1.047 1 1.03 1 2.671 0 1.079-.468 2-.469.922-1.281 1.422-.813.5-1.844.5-1.75 0-2.86-1.297-1.109-1.296-1.109-4.265 0-3.328 1.22-4.828 1.077-1.313 2.89-1.313 1.344 0 2.203.766.875.75 1.047 2.078zm-5.75 4.937q0 .735.312 1.407.313.656.86 1 .562.343 1.171.343.891 0 1.532-.718.64-.719.64-1.953 0-1.188-.64-1.86-.625-.687-1.594-.687-.953 0-1.625.687-.656.672-.656 1.781zm8.234 3.72v-1.61h1.61v1.61h-1.61zm3.219-3l1.469-.126q.171 1.078.765 1.625.594.531 1.438.531 1.015 0 1.719-.765.703-.766.703-2.031 0-1.204-.672-1.891-.672-.703-1.766-.703-.687 0-1.234.312-.547.313-.86.797l-1.312-.172 1.11-5.875h5.687v1.344h-4.563l-.625 3.078q1.031-.719 2.172-.719 1.5 0 2.531 1.047 1.032 1.032 1.032 2.657 0 1.562-.907 2.687-1.109 1.406-3.015 1.406-1.563 0-2.547-.875-.984-.89-1.125-2.328zm13.516 3V235.95h2.28l2.72 8.11q.374 1.124.546 1.687.188-.625.61-1.828l2.734-7.969h2.047v11.453h-1.469v-9.594l-3.328 9.594h-1.36l-3.312-9.75v9.75h-1.469zm12.984 0V235.95h4.297q1.312 0 2.11.344.796.344 1.234 1.078.453.719.453 1.5 0 .734-.407 1.39-.39.641-1.187 1.047 1.031.297 1.594 1.032.562.734.562 1.734 0 .813-.344 1.5-.343.688-.843 1.063-.5.375-1.25.578-.75.187-1.844.187h-4.375zm1.516-6.641h2.484q1 0 1.437-.141.579-.172.875-.563.297-.406.297-1 0-.578-.281-1-.266-.437-.781-.593-.5-.172-1.735-.172h-2.296v3.469zm0 5.28h2.859q.734 0 1.031-.046.516-.094.86-.313.359-.218.578-.64.234-.422.234-.969 0-.64-.328-1.11-.328-.468-.906-.656-.579-.203-1.672-.203h-2.656v3.938zM74.016 178.96v-1.36h7.406v1.094q-1.094 1.171-2.172 3.109-1.063 1.922-1.656 3.953-.422 1.438-.531 3.156h-1.454q.032-1.36.532-3.265.515-1.922 1.453-3.688.953-1.781 2.031-3h-5.61zm9.687 9.952v-1.61h1.61v1.61h-1.61zm3.219-5.656q0-2.031.406-3.266.422-1.234 1.25-1.906.828-.672 2.078-.672.922 0 1.61.375.703.36 1.156 1.063.453.703.703 1.703.266 1 .266 2.703 0 2.016-.422 3.266-.406 1.234-1.235 1.922-.828.671-2.078.671-1.656 0-2.61-1.203-1.124-1.422-1.124-4.656zm1.437 0q0 2.828.657 3.766.671.922 1.64.922.969 0 1.625-.938.656-.937.656-3.75 0-2.828-.656-3.75-.656-.937-1.64-.937-.97 0-1.547.828-.735 1.047-.735 3.859zm12.079 5.656V177.46h2.28l2.72 8.11q.374 1.125.546 1.687.188-.625.61-1.828l2.734-7.969h2.047v11.453h-1.469v-9.593l-3.328 9.593h-1.36l-3.312-9.75v9.75h-1.469zm12.984 0V177.46h4.297q1.312 0 2.11.344.796.344 1.234 1.078.453.719.453 1.5 0 .734-.407 1.39-.39.641-1.187 1.048 1.031.296 1.594 1.03.562.735.562 1.735 0 .813-.344 1.5-.343.688-.843 1.063-.5.375-1.25.578-.75.187-1.844.187h-4.375zm1.516-6.64h2.484q1 0 1.437-.141.579-.172.875-.562.297-.407.297-1 0-.579-.281-1-.266-.438-.781-.594-.5-.172-1.735-.172h-2.296v3.469zm0 5.28h2.859q.734 0 1.031-.046.516-.094.86-.312.359-.22.578-.641.234-.422.234-.969 0-.64-.328-1.11-.328-.468-.906-.655-.579-.204-1.672-.204h-2.656v3.938zM74.016 120.467v-1.36h7.406v1.095q-1.094 1.171-2.172 3.109-1.063 1.922-1.656 3.953-.422 1.438-.531 3.156h-1.454q.032-1.36.532-3.265.515-1.922 1.453-3.688.953-1.781 2.031-3h-5.61zm9.687 9.953v-1.61h1.61v1.61h-1.61zm3.219-3l1.469-.125q.171 1.078.765 1.625.594.532 1.438.532 1.015 0 1.719-.766.703-.766.703-2.031 0-1.203-.672-1.891-.672-.703-1.766-.703-.687 0-1.234.312-.547.313-.86.797l-1.312-.172 1.11-5.875h5.687v1.344h-4.563l-.625 3.078q1.031-.718 2.172-.718 1.5 0 2.531 1.046 1.032 1.032 1.032 2.657 0 1.562-.907 2.687-1.109 1.406-3.015 1.406-1.563 0-2.547-.875-.984-.89-1.125-2.328zm13.516 3v-11.453h2.28l2.72 8.11q.374 1.125.546 1.687.188-.625.61-1.828l2.734-7.969h2.047v11.453h-1.469v-9.593l-3.328 9.593h-1.36l-3.312-9.75v9.75h-1.469zm12.984 0v-11.453h4.297q1.312 0 2.11.344.796.344 1.234 1.078.453.719.453 1.5 0 .734-.407 1.39-.39.641-1.187 1.048 1.031.296 1.594 1.03.562.735.562 1.735 0 .813-.344 1.5-.343.688-.843 1.063-.5.375-1.25.578-.75.187-1.844.187h-4.375zm1.516-6.64h2.484q1 0 1.437-.141.579-.172.875-.562.297-.407.297-1 0-.579-.281-1-.266-.438-.781-.594-.5-.172-1.735-.172h-2.296v3.469zm0 5.28h2.859q.734 0 1.031-.046.516-.094.86-.312.359-.22.578-.641.234-.422.234-.969 0-.64-.328-1.11-.328-.468-.906-.655-.579-.204-1.672-.204h-2.656v3.938zM76.078 65.71q-.875-.313-1.297-.907-.422-.593-.422-1.422 0-1.25.891-2.093.906-.86 2.406-.86t2.406.875q.922.86.922 2.11 0 .797-.421 1.39-.422.594-1.266.907 1.047.343 1.594 1.109.562.766.562 1.828 0 1.469-1.047 2.484-1.031 1-2.734 1-1.688 0-2.734-1-1.032-1.015-1.032-2.515 0-1.125.563-1.875.562-.75 1.61-1.031zm-.281-2.375q0 .812.516 1.328.53.515 1.374.515.813 0 1.329-.515.515-.516.515-1.25 0-.782-.531-1.297-.531-.531-1.328-.531-.813 0-1.344.515-.531.516-.531 1.235zm-.453 5.28q0 .61.281 1.173.297.562.86.875.562.297 1.203.297 1.015 0 1.671-.641.657-.656.657-1.656 0-1.016-.688-1.672-.672-.672-1.687-.672-.985 0-1.641.656t-.656 1.64zm8.36 3.313V70.32h1.609v1.61h-1.61zm3.218-5.656q0-2.031.406-3.266.422-1.234 1.25-1.906.828-.672 2.078-.672.922 0 1.61.375.703.36 1.156 1.063.453.703.703 1.703.266 1 .266 2.703 0 2.016-.422 3.266-.406 1.234-1.235 1.922-.828.671-2.078.671-1.656 0-2.61-1.203-1.124-1.422-1.124-4.656zm1.437 0q0 2.828.657 3.766.671.922 1.64.922.969 0 1.625-.938.656-.937.656-3.75 0-2.828-.656-3.75-.656-.937-1.64-.937-.97 0-1.547.828-.735 1.047-.735 3.86zm12.079 5.656V60.475h2.28l2.72 8.11q.374 1.125.546 1.687.188-.625.61-1.828l2.734-7.969h2.047v11.453h-1.469v-9.593l-3.328 9.593h-1.36l-3.312-9.75v9.75h-1.469zm12.984 0V60.475h4.297q1.312 0 2.11.344.796.344 1.234 1.078.453.719.453 1.5 0 .734-.407 1.39-.39.641-1.187 1.048 1.031.296 1.594 1.03.562.735.562 1.735 0 .813-.344 1.5-.343.688-.843 1.063-.5.375-1.25.578-.75.187-1.844.187h-4.375zm1.516-6.64h2.484q1 0 1.437-.14.579-.173.875-.563.297-.407.297-1 0-.579-.281-1-.266-.438-.781-.594-.5-.172-1.735-.172h-2.296v3.469zm0 5.281h2.859q.734 0 1.031-.047.516-.094.86-.312.359-.22.578-.641.234-.422.234-.969 0-.64-.328-1.11-.328-.468-.906-.655-.579-.204-1.672-.204h-2.656v3.938zM156.304 373.685v-1.516h8.328v1.235q-1.219 1.312-2.438 3.484-1.203 2.156-1.86 4.453-.483 1.625-.608 3.547H158.1q.03-1.515.593-3.672.578-2.156 1.64-4.156 1.063-2 2.267-3.375h-6.297zm15.843 11.203h-1.578V374.81q-.578.547-1.5 1.094-.922.531-1.672.812v-1.531q1.329-.625 2.329-1.516 1-.89 1.406-1.718h1.015v12.937zM224.692 373.685v-1.516h8.328v1.235q-1.218 1.312-2.437 3.484-1.203 2.156-1.86 4.453-.484 1.625-.609 3.547h-1.625q.031-1.515.594-3.672.578-2.156 1.64-4.156 1.063-2 2.266-3.375h-6.297zm18.203 9.688v1.515h-8.515q-.016-.578.187-1.094.328-.875 1.031-1.718.72-.844 2.079-1.953 2.093-1.72 2.828-2.72.75-1.015.75-1.905 0-.954-.672-1.594-.672-.64-1.75-.64-1.156 0-1.844.687-.672.687-.687 1.89l-1.625-.172q.171-1.812 1.25-2.765 1.093-.953 2.937-.953 1.844 0 2.922 1.03 1.094 1.032 1.094 2.548 0 .765-.328 1.515-.313.75-1.047 1.579-.735.828-2.438 2.265-1.422 1.203-1.828 1.625-.406.422-.656.86h6.312zM293.08 373.685v-1.516h8.329v1.235q-1.219 1.312-2.438 3.484-1.203 2.156-1.859 4.453-.484 1.625-.61 3.547h-1.624q.03-1.515.593-3.672.578-2.156 1.641-4.156 1.062-2 2.266-3.375h-6.297zm9.891 7.797l1.594-.203q.266 1.344.922 1.937.656.594 1.594.594 1.125 0 1.89-.766.766-.78.766-1.921 0-1.094-.719-1.797-.703-.72-1.797-.72-.453 0-1.125.188l.172-1.39q.156.015.266.015 1 0 1.812-.53.813-.532.813-1.626 0-.875-.594-1.437-.594-.578-1.516-.578-.921 0-1.546.578-.61.578-.782 1.75l-1.578-.282q.281-1.593 1.313-2.468 1.031-.875 2.562-.875 1.047 0 1.938.453.89.453 1.36 1.234.468.781.468 1.656 0 .844-.453 1.532-.438.672-1.328 1.078 1.14.265 1.765 1.11.64.827.64 2.062 0 1.687-1.234 2.875-1.218 1.172-3.093 1.172-1.703 0-2.828-1.016-1.11-1.016-1.282-2.625zM361.47 373.685v-1.516h8.327v1.235q-1.218 1.312-2.437 3.484-1.203 2.156-1.86 4.453-.484 1.625-.609 3.547h-1.625q.031-1.515.594-3.672.578-2.156 1.64-4.156 1.063-2 2.266-3.375h-6.297zm14.952 11.203v-3.078h-5.578v-1.453l5.875-8.36h1.297v8.36h1.735v1.453h-1.735v3.078h-1.594zm0-4.531v-5.813l-4.03 5.813h4.03zM429.858 373.685v-1.516h8.328v1.235q-1.219 1.312-2.438 3.484-1.203 2.156-1.859 4.453-.484 1.625-.61 3.547h-1.624q.03-1.515.593-3.672.579-2.156 1.641-4.156 1.063-2 2.266-3.375h-6.297zm9.89 7.828l1.657-.14q.187 1.218.86 1.828.67.609 1.624.609 1.14 0 1.922-.86.797-.859.797-2.296 0-1.344-.766-2.125-.75-.781-1.984-.781-.766 0-1.39.343-.61.344-.954.907l-1.484-.204 1.25-6.609h6.406v1.5h-5.14l-.704 3.469q1.172-.813 2.438-.813 1.687 0 2.843 1.172 1.172 1.172 1.172 3 0 1.75-1.03 3.031-1.235 1.563-3.376 1.563-1.766 0-2.875-.984-1.11-.985-1.266-2.61zM498.246 373.685v-1.516h8.329v1.235q-1.22 1.312-2.438 3.484-1.203 2.156-1.86 4.453-.484 1.625-.609 3.547h-1.625q.031-1.515.594-3.672.578-2.156 1.64-4.156 1.063-2 2.266-3.375h-6.297zm18.094 1.469l-1.562.125q-.22-.922-.61-1.344-.64-.687-1.578-.687-.75 0-1.328.421-.75.547-1.188 1.594-.421 1.047-.437 2.985.578-.875 1.39-1.297.829-.422 1.735-.422 1.594 0 2.703 1.172 1.11 1.156 1.11 3 0 1.218-.532 2.265-.515 1.032-1.437 1.594-.907.547-2.063.547-1.984 0-3.234-1.453t-1.25-4.797q0-3.734 1.39-5.438 1.204-1.468 3.235-1.468 1.531 0 2.5.859.969.844 1.156 2.344zm-6.453 5.562q0 .813.344 1.563t.969 1.14q.625.391 1.312.391 1 0 1.719-.812.718-.813.718-2.204 0-1.328-.718-2.093-.703-.782-1.782-.782-1.078 0-1.828.782-.734.765-.734 2.015zM566.635 373.685v-1.516h8.328v1.235q-1.219 1.312-2.438 3.484-1.203 2.156-1.859 4.453-.484 1.625-.61 3.547h-1.624q.031-1.515.593-3.672.579-2.156 1.641-4.156 1.063-2 2.266-3.375h-6.297zm10 0v-1.516h8.328v1.235q-1.219 1.312-2.438 3.484-1.203 2.156-1.859 4.453-.484 1.625-.61 3.547h-1.624q.031-1.515.593-3.672.579-2.156 1.641-4.156 1.063-2 2.266-3.375h-6.297zM635.023 373.685v-1.516h8.329v1.235q-1.22 1.312-2.438 3.484-1.203 2.156-1.86 4.453-.484 1.625-.609 3.547h-1.625q.032-1.515.594-3.672.578-2.156 1.64-4.156 1.063-2 2.266-3.375h-6.297zm12.329 4.219q-.985-.36-1.47-1.031-.468-.672-.468-1.594 0-1.406 1-2.36 1.016-.968 2.703-.968 1.688 0 2.703.984 1.032.969 1.032 2.375 0 .906-.47 1.578-.468.656-1.421 1.016 1.187.39 1.797 1.25.625.86.625 2.047 0 1.656-1.172 2.78-1.172 1.126-3.078 1.126t-3.078-1.125q-1.157-1.14-1.157-2.828 0-1.25.625-2.094.641-.86 1.829-1.156zm-.329-2.688q0 .922.594 1.5t1.531.578q.907 0 1.485-.578.594-.578.594-1.406 0-.875-.61-1.469-.594-.593-1.484-.593-.906 0-1.516.578-.594.578-.594 1.39zm-.5 5.953q0 .672.313 1.313.328.625.953.984.64.344 1.375.344 1.125 0 1.86-.734.75-.735.75-1.86 0-1.14-.766-1.875-.766-.75-1.906-.75-1.11 0-1.844.735-.735.734-.735 1.843z"/><path stroke="#3c78d8" stroke-width="4" stroke-linecap="butt" d="M281.82 32.157h12"/><path fill="#1a1a1a" d="M303.21 38.657v-12.89h4.438q1.5 0 2.297.187 1.109.25 1.89.922 1.016.86 1.516 2.203.515 1.344.515 3.063 0 1.468-.343 2.609-.344 1.125-.89 1.875-.532.734-1.173 1.172-.625.422-1.531.64-.906.22-2.078.22h-4.64zm1.703-1.515h2.75q1.282 0 2-.235.72-.25 1.157-.672.609-.61.937-1.625.344-1.031.344-2.5 0-2.015-.672-3.094-.656-1.093-1.61-1.453-.671-.265-2.203-.265h-2.703v9.844zm17.485-1.485l1.64.203q-.39 1.422-1.437 2.219-1.047.797-2.672.797-2.047 0-3.25-1.266-1.203-1.265-1.203-3.547 0-2.343 1.203-3.64 1.219-1.313 3.156-1.313 1.875 0 3.063 1.281 1.187 1.266 1.187 3.579 0 .14-.015.422h-6.954q.079 1.546.86 2.359.797.812 1.953.812.875 0 1.484-.453.625-.453.985-1.453zm-5.203-2.562h5.218q-.109-1.172-.593-1.766-.766-.922-1.97-.922-1.077 0-1.827.734-.735.735-.828 1.954zm9.187 5.562v-8.11h-1.39V29.33h1.39v-1q0-.938.172-1.39.219-.626.797-1 .578-.391 1.625-.391.656 0 1.469.156l-.235 1.39q-.5-.093-.937-.093-.719 0-1.016.312-.297.297-.297 1.141v.875h1.813v1.219h-1.813v8.11h-1.578zm10.719-1.156q-.875.75-1.703 1.062-.813.313-1.735.313-1.547 0-2.375-.75-.812-.766-.812-1.938 0-.672.312-1.234.313-.578.813-.922.5-.344 1.14-.515.47-.126 1.407-.235 1.906-.234 2.812-.547.016-.328.016-.422 0-.953-.453-1.359-.61-.531-1.797-.531-1.125 0-1.656.39-.532.391-.782 1.391l-1.547-.219q.22-1 .688-1.61.484-.609 1.39-.937.922-.328 2.141-.328 1.188 0 1.938.281.75.282 1.093.72.36.421.5 1.062.079.406.079 1.469v2.109q0 2.203.093 2.797.11.578.407 1.11h-1.657q-.25-.5-.312-1.157zm-.14-3.531q-.86.359-2.579.593-.969.141-1.375.328-.406.172-.625.516-.219.328-.219.75 0 .625.47 1.047.483.422 1.405.422t1.625-.39q.72-.407 1.047-1.094.25-.547.25-1.594v-.578zm10.155 4.687v-1.375q-1.078 1.594-2.953 1.594-.828 0-1.547-.313-.718-.328-1.062-.797-.344-.484-.484-1.187-.094-.469-.094-1.469V29.33h1.578v5.172q0 1.234.094 1.672.156.625.64.984.485.344 1.188.344.719 0 1.344-.36.625-.359.875-.984.265-.64.265-1.828v-5h1.578v9.328h-1.422zm3.86 0v-12.89h1.578v12.89h-1.578zm7.484-1.422l.235 1.407q-.672.14-1.204.14-.859 0-1.343-.265-.469-.282-.657-.72-.187-.452-.187-1.874v-5.375h-1.172v-1.219h1.172v-2.313l1.562-.953v3.266h1.594v1.219h-1.594v5.469q0 .671.079.874.093.188.28.297.188.11.548.11.25 0 .687-.063z"/><path stroke="#6aa84f" stroke-width="4" stroke-linecap="butt" d="M374.82 32.157h12"/><path fill="#1a1a1a" d="M396.132 38.657v-12.89h1.719v11.375h6.344v1.515h-8.063zm9.89-11.062v-1.829h1.579v1.829h-1.578zm0 11.062V29.33h1.579v9.328h-1.578zm7.438-1.422l.235 1.407q-.672.14-1.204.14-.859 0-1.343-.265-.469-.282-.657-.72-.187-.452-.187-1.874v-5.375h-1.172v-1.219h1.172v-2.313l1.562-.953v3.266h1.594v1.219h-1.594v5.469q0 .671.079.874.093.188.28.297.188.11.548.11.25 0 .687-.063zm7.938-1.578l1.64.203q-.39 1.422-1.437 2.219-1.047.797-2.672.797-2.047 0-3.25-1.266-1.203-1.265-1.203-3.547 0-2.343 1.203-3.64 1.219-1.313 3.156-1.313 1.875 0 3.063 1.281 1.187 1.266 1.187 3.579 0 .14-.015.422h-6.954q.079 1.546.86 2.359.797.812 1.953.812.875 0 1.484-.453.625-.453.985-1.453zm-5.203-2.562h5.218q-.109-1.172-.593-1.766-.766-.922-1.97-.922-1.077 0-1.827.734-.735.735-.828 1.954zm13.968 5.562v-12.89h2.563l3.047 9.125q.422 1.28.61 1.906.218-.703.687-2.063l3.093-8.969h2.282v12.891h-1.641V27.876l-3.734 10.781h-1.547l-3.719-10.969v10.97h-1.64zm14.25-4.672q0-2.594 1.453-3.844 1.204-1.03 2.922-1.03 1.938 0 3.157 1.265 1.218 1.265 1.218 3.484 0 1.797-.547 2.828-.53 1.032-1.562 1.61-1.031.578-2.266.578-1.953 0-3.172-1.25-1.203-1.266-1.203-3.64zm1.625 0q0 1.797.782 2.688.78.89 1.968.89t1.97-.89q.78-.907.78-2.735 0-1.734-.797-2.625-.78-.89-1.953-.89-1.187 0-1.968.89-.782.891-.782 2.672zm15.032 4.672v-1.172q-.891 1.39-2.625 1.39-1.11 0-2.047-.608-.938-.626-1.453-1.72-.516-1.109-.516-2.546 0-1.406.469-2.531.468-1.141 1.39-1.75.938-.61 2.094-.61.844 0 1.5.36.656.359 1.078.921v-4.625h1.563v12.891h-1.453zm-5.016-4.656q0 1.797.75 2.687.766.875 1.797.875t1.75-.843q.734-.844.734-2.594 0-1.906-.734-2.797-.735-.906-1.813-.906-1.062 0-1.78.86-.704.858-.704 2.718zm15.344 1.656l1.64.203q-.39 1.422-1.437 2.219-1.047.797-2.672.797-2.047 0-3.25-1.266-1.203-1.265-1.203-3.547 0-2.343 1.203-3.64 1.219-1.313 3.156-1.313 1.875 0 3.063 1.281 1.187 1.266 1.187 3.579 0 .14-.015.422h-6.954q.079 1.546.86 2.359.797.812 1.953.812.875 0 1.484-.453.625-.453.985-1.453zm-5.203-2.562h5.218q-.109-1.172-.593-1.766-.766-.922-1.97-.922-1.077 0-1.827.734-.735.735-.828 1.954z"/></svg>