<svg id="Layer_1" xmlns="http://www.w3.org/2000/svg" xmlns:xlink="http://www.w3.org/1999/xlink" viewBox="0 0 960 333.4"><style>.st1{fill-rule:evenodd;clip-rule:evenodd;fill-opacity:0}.st3{fill:none;stroke:#595959;stroke-linejoin:round;stroke-miterlimit:10}.st4{fill:#595959}.st5,.st6{fill-rule:evenodd;clip-rule:evenodd;fill:#4285f4}.st6{fill:#fbbc04}.st7,.st8{stroke:#595959;stroke-miterlimit:10}.st7{stroke-linejoin:round;stroke-dasharray:4,3;fill:none}.st8{fill-rule:evenodd;clip-rule:evenodd;fill:#595959}</style><defs><path id="SVGID_1_" d="M0-206.6h960v720H0z"/></defs><clipPath id="SVGID_2_"><use xlink:href="#SVGID_1_" overflow="visible"/></clipPath><g clip-path="url(#SVGID_2_)"><path class="st1" d="M0-206.6h960v720H0v-720z"/><path d="M0 0h960v333.4H0V0z" fill-rule="evenodd" clip-rule="evenodd" fill="#f3f3f3"/><path class="st1" d="M610.5 49.5v256.7"/><path class="st3" d="M610.5 49.5v256.7"/><path class="st1" d="M213.4 25.7h182.5v49.5H213.4V25.7z"/><path class="st4" d="M232 51.2l-4.5-7.2h1.8l3.4 5.6h.1l3.4-5.6h1.9l-4.5 7.2v6.2H232v-6.2zm11.9 6.4c-.9 0-1.8-.2-2.5-.7-.7-.4-1.3-1.1-1.7-1.8-.4-.8-.6-1.6-.6-2.5 0-.9.2-1.8.6-2.6.4-.8 1-1.4 1.7-1.8.8-.4 1.6-.7 2.5-.7.9 0 1.8.2 2.5.7.8.4 1.3 1.1 1.8 1.8.4.8.6 1.6.6 2.6 0 .9-.2 1.8-.6 2.5-.4.8-1 1.4-1.8 1.8-.7.5-1.6.7-2.5.7zm0-1.4c.6 0 1.1-.1 1.6-.4.5-.3.9-.7 1.2-1.2.3-.6.5-1.2.5-1.9s-.2-1.4-.5-1.9c-.3-.6-.7-1-1.2-1.3-.5-.3-1-.4-1.6-.4-.6 0-1.1.1-1.6.4-.5.3-.9.7-1.2 1.3-.3.5-.5 1.2-.5 1.9s.2 1.4.5 1.9.7 1 1.2 1.2c.5.2 1 .4 1.6.4zm10.2 1.4c-1.1 0-2-.3-2.6-1-.6-.7-.9-1.6-.9-2.8v-6h1.6v5.8c0 .9.2 1.6.6 2 .4.4 1 .6 1.7.6.5 0 1-.1 1.4-.4.4-.3.7-.7 1-1.1.2-.5.3-.9.3-1.5v-5.4h1.6v9.5h-1.5V56h-.1c-.3.5-.7.9-1.2 1.2-.6.3-1.3.4-1.9.4zm7-9.8h1.5v1.4h.1c.3-.5.7-.9 1.2-1.2.6-.3 1.2-.5 1.8-.5 1.1 0 2 .3 2.6 1 .6.7.9 1.6.9 2.7v6.1h-1.6v-5.9c0-.9-.2-1.5-.6-1.9-.4-.4-1-.6-1.7-.6-.5 0-1 .1-1.4.4-.4.3-.7.7-.9 1.1-.2.5-.3.9-.3 1.5v5.4h-1.6v-9.5zm14.7 13.9c-1.1 0-2.1-.3-2.8-.8-.7-.5-1.2-1.2-1.5-1.9l1.5-.6c.2.5.5 1 1 1.3.5.3 1.1.5 1.8.5 1 0 1.7-.3 2.3-.9.5-.6.8-1.4.8-2.4v-1.1h-.1c-.3.5-.8.9-1.3 1.2-.6.3-1.2.5-1.9.5-.8 0-1.6-.2-2.2-.6-.7-.4-1.2-1-1.6-1.8-.4-.8-.6-1.6-.6-2.6s.2-1.8.6-2.6c.4-.8.9-1.4 1.6-1.8.7-.4 1.4-.6 2.2-.6.7 0 1.4.2 1.9.5.6.3 1 .7 1.3 1.2h.1v-1.4h1.5V57c0 1.5-.4 2.7-1.3 3.5-.9.8-2 1.2-3.3 1.2zm0-5.6c.6 0 1.1-.1 1.5-.4.5-.3.8-.7 1.1-1.2.3-.5.4-1.2.4-1.9 0-.8-.1-1.4-.4-1.9s-.7-.9-1.1-1.2c-.5-.3-1-.4-1.5-.4-.6 0-1.1.1-1.6.4-.5.3-.8.7-1.1 1.2-.3.5-.4 1.2-.4 1.9s.1 1.4.4 1.9c.3.5.7 1 1.1 1.2.5.2 1 .4 1.6.4zm5.7 1.2zm12.1.3c-1.3 0-2.4-.3-3.5-.9-1.1-.6-1.9-1.5-2.5-2.5-.6-1.1-.9-2.3-.9-3.5 0-1.3.3-2.5.9-3.5.6-1.1 1.5-1.9 2.5-2.5 1.1-.6 2.2-.9 3.5-.9 1 0 1.9.2 2.8.5.9.3 1.6.8 2.1 1.5l-1.1 1.1c-.4-.5-1-.9-1.6-1.2-.7-.3-1.4-.4-2.1-.4-.9 0-1.8.2-2.6.7-.8.4-1.5 1.1-2 1.9-.5.8-.7 1.8-.7 2.9 0 1.1.2 2 .7 2.9.5.8 1.2 1.5 2 1.9.8.4 1.7.7 2.6.7.9 0 1.6-.1 2.2-.4.6-.3 1.1-.7 1.5-1.1.3-.3.6-.8.8-1.2.2-.5.3-1 .4-1.6h-5v-1.5h6.4c.1.4.1.7.1 1 0 .8-.1 1.6-.4 2.4-.3.8-.7 1.4-1.2 2-1.2 1.1-2.8 1.7-4.9 1.7zm12.8 0c-.9 0-1.7-.2-2.4-.6-.7-.4-1.3-1-1.7-1.8-.4-.8-.6-1.6-.6-2.6 0-.9.2-1.8.6-2.5.4-.8.9-1.4 1.6-1.9.7-.5 1.5-.7 2.4-.7.9 0 1.7.2 2.4.6.7.4 1.2 1 1.6 1.7.4.7.5 1.6.5 2.5v.5h-7.5c0 .7.2 1.3.5 1.8s.7.9 1.2 1.1 1 .4 1.5.4c1.2 0 2.2-.6 2.8-1.7l1.3.7c-.4.8-.9 1.4-1.7 1.8-.6.5-1.5.7-2.5.7zm2.8-6c0-.4-.1-.8-.3-1.2-.2-.4-.5-.7-.9-1-.4-.3-.9-.4-1.6-.4-.8 0-1.4.2-1.9.7-.5.5-.9 1.1-1 1.9h5.7zm3.5-3.8h1.5v1.4h.1c.3-.5.7-.9 1.2-1.2.6-.3 1.2-.5 1.8-.5 1.1 0 2 .3 2.6 1 .6.7.9 1.6.9 2.7v6.1h-1.6v-5.9c0-.9-.2-1.5-.6-1.9-.4-.4-1-.6-1.7-.6-.5 0-1 .1-1.4.4-.4.3-.7.7-.9 1.1-.2.5-.3.9-.3 1.5v5.4h-1.6v-9.5zm14.7 9.8c-.9 0-1.7-.2-2.4-.6-.7-.4-1.3-1-1.7-1.8-.4-.8-.6-1.6-.6-2.6 0-.9.2-1.8.6-2.5.4-.8.9-1.4 1.6-1.9.7-.5 1.5-.7 2.4-.7.9 0 1.7.2 2.4.6.7.4 1.2 1 1.6 1.7.4.7.5 1.6.5 2.5v.5h-7.5c0 .7.2 1.3.5 1.8s.7.9 1.2 1.1 1 .4 1.5.4c1.2 0 2.2-.6 2.8-1.7l1.3.7c-.4.8-.9 1.4-1.7 1.8-.6.5-1.5.7-2.5.7zm2.8-6c0-.4-.1-.8-.3-1.2-.2-.4-.5-.7-.9-1-.4-.3-.9-.4-1.6-.4-.8 0-1.4.2-1.9.7-.5.5-.9 1.1-1 1.9h5.7zm3.5-3.8h1.5v1.5h.1c.2-.5.5-1 1.1-1.3s1.1-.5 1.7-.5c.4 0 .8.1 1.1.2v1.7c-.4-.2-.8-.3-1.3-.3s-.9.1-1.3.4c-.4.3-.7.6-.9 1.1-.2.4-.3.9-.3 1.4v5.3h-1.6v-9.5zm10 9.8c-.7 0-1.3-.1-1.9-.4-.5-.3-1-.6-1.3-1.1-.3-.5-.4-1-.4-1.6 0-1 .4-1.8 1.1-2.4.8-.6 1.7-.8 2.9-.8.6 0 1.1.1 1.6.2s.9.3 1.1.4v-.6c0-.7-.3-1.3-.8-1.7-.5-.4-1.1-.6-1.9-.6-.5 0-1 .1-1.5.3-.4.2-.8.5-1.1 1l-1.2-.9c.4-.6.9-1 1.5-1.3.7-.3 1.4-.5 2.2-.5 1.3 0 2.3.3 3 1 .7.7 1.1 1.6 1.1 2.8v6h-1.5V56h-.1c-.3.5-.7.8-1.2 1.2-.3.3-.9.4-1.6.4zm.2-1.4c.5 0 1-.1 1.5-.4.5-.3.8-.7 1.1-1.1.3-.5.4-1 .4-1.5-.3-.2-.7-.4-1.1-.5-.4-.1-.9-.2-1.4-.2-.9 0-1.5.2-2 .5-.4.4-.7.8-.7 1.4 0 .5.2.9.6 1.3.5.4 1 .5 1.6.5zm10.3 1.3c-.4 0-.7-.1-1.1-.2-.3-.1-.6-.3-.8-.5-.5-.5-.7-1.1-.7-2v-5.6h-1.7v-1.4h1.7v-2.7h1.6v2.7h2.3v1.4h-2.3v5.2c0 .5.1.9.3 1.2.2.3.6.4 1 .4s.7-.1 1-.3v1.5c-.2.1-.4.1-.6.2-.1.1-.4.1-.7.1zm4.2-11.4c-.3 0-.6-.1-.8-.3-.2-.2-.3-.5-.3-.8 0-.3.1-.6.3-.8.2-.2.5-.3.8-.3.3 0 .6.1.8.3s.3.5.3.8c0 .3-.1.6-.3.8-.3.2-.5.3-.8.3zm-.8 1.7h1.6v9.5h-1.6v-9.5zm8.4 9.8c-.9 0-1.8-.2-2.5-.7-.7-.4-1.3-1.1-1.7-1.8-.4-.8-.6-1.6-.6-2.5 0-.9.2-1.8.6-2.6.4-.8 1-1.4 1.7-1.8.8-.4 1.6-.7 2.5-.7.9 0 1.8.2 2.5.7.8.4 1.3 1.1 1.8 1.8.4.8.6 1.6.6 2.6 0 .9-.2 1.8-.6 2.5-.4.8-1 1.4-1.8 1.8-.7.5-1.6.7-2.5.7zm0-1.4c.6 0 1.1-.1 1.6-.4.5-.3.9-.7 1.2-1.2.3-.6.5-1.2.5-1.9s-.2-1.4-.5-1.9c-.3-.6-.7-1-1.2-1.3-.5-.3-1-.4-1.6-.4-.6 0-1.1.1-1.6.4-.5.3-.9.7-1.2 1.3-.3.5-.5 1.2-.5 1.9s.2 1.4.5 1.9.7 1 1.2 1.2c.5.2 1 .4 1.6.4zm6.7-8.4h1.5v1.4h.1c.3-.5.7-.9 1.2-1.2.6-.3 1.2-.5 1.8-.5 1.1 0 2 .3 2.6 1 .6.7.9 1.6.9 2.7v6.1h-1.6v-5.9c0-.9-.2-1.5-.6-1.9-.4-.4-1-.6-1.7-.6-.5 0-1 .1-1.4.4-.4.3-.7.7-.9 1.1-.2.5-.3.9-.3 1.5v5.4h-1.6v-9.5z"/><path class="st1" d="M705.1 25.7h182.5v49.5H705.1V25.7z"/><path class="st4" d="M738.5 57.6c-1.3 0-2.4-.3-3.5-.9-1-.6-1.9-1.5-2.5-2.5-.6-1.1-.9-2.2-.9-3.5 0-1.3.3-2.4.9-3.5.6-1.1 1.4-1.9 2.5-2.5 1.1-.6 2.2-.9 3.5-.9s2.4.3 3.5.9c1.1.6 1.9 1.5 2.5 2.5.6 1.1.9 2.2.9 3.5 0 1.3-.3 2.4-.9 3.5-.6 1.1-1.4 1.9-2.5 2.5-1.1.6-2.2.9-3.5.9zm0-1.5c1 0 1.8-.2 2.6-.7.8-.5 1.4-1.1 1.9-1.9.5-.8.7-1.8.7-2.8 0-1.1-.2-2-.7-2.8-.5-.8-1.1-1.5-1.9-1.9-.8-.5-1.7-.7-2.6-.7-1 0-1.8.2-2.6.7-.8.5-1.4 1.1-1.9 1.9-.5.8-.7 1.8-.7 2.8 0 1.1.2 2 .7 2.8.5.8 1.1 1.5 1.9 1.9.7.5 1.6.7 2.6.7zm8.8-12.1h1.6v13.4h-1.6V44zm8 13.6c-.9 0-1.6-.2-2.3-.6-.7-.4-1.2-1-1.6-1.8-.4-.8-.6-1.6-.6-2.6s.2-1.8.6-2.6c.4-.8.9-1.4 1.6-1.8.7-.4 1.5-.7 2.3-.7.7 0 1.4.2 1.9.5.6.3 1 .7 1.3 1.2h.1l-.1-1.3V44h1.6v13.4h-1.5V56h-.1c-.3.5-.7.9-1.3 1.2-.5.3-1.1.4-1.9.4zm.2-1.4c.6 0 1.1-.1 1.6-.4.5-.3.9-.7 1.2-1.3.3-.6.4-1.2.4-1.9s-.1-1.4-.4-1.9c-.3-.6-.7-1-1.2-1.3-.5-.3-1-.5-1.6-.5-.5 0-1.1.2-1.5.5-.5.3-.9.7-1.2 1.3-.3.6-.4 1.2-.4 1.9s.1 1.3.4 1.9c.3.6.7 1 1.2 1.3.4.2 1 .4 1.5.4zm5.8 1.1zm12.1.3c-1.3 0-2.4-.3-3.5-.9-1.1-.6-1.9-1.5-2.5-2.5-.6-1.1-.9-2.3-.9-3.5 0-1.3.3-2.5.9-3.5.6-1.1 1.5-1.9 2.5-2.5 1.1-.6 2.2-.9 3.5-.9 1 0 1.9.2 2.8.5.9.3 1.6.8 2.1 1.5l-1.1 1.1c-.4-.5-1-.9-1.6-1.2-.7-.3-1.4-.4-2.1-.4-.9 0-1.8.2-2.6.7-.8.4-1.5 1.1-2 1.9-.5.8-.7 1.8-.7 2.9 0 1.1.2 2 .7 2.9.5.8 1.2 1.5 2 1.9.8.4 1.7.7 2.6.7.9 0 1.6-.1 2.2-.4.6-.3 1.1-.7 1.5-1.1.3-.3.6-.8.8-1.2.2-.5.3-1 .4-1.6h-5v-1.5h6.4c.1.4.1.7.1 1 0 .8-.1 1.6-.4 2.4-.3.8-.7 1.4-1.2 2-1.2 1.1-2.8 1.7-4.9 1.7zm12.8 0c-.9 0-1.7-.2-2.4-.6-.7-.4-1.3-1-1.7-1.8-.4-.8-.6-1.6-.6-2.6 0-.9.2-1.8.6-2.5.4-.8.9-1.4 1.6-1.9.7-.5 1.5-.7 2.4-.7.9 0 1.7.2 2.4.6.7.4 1.2 1 1.6 1.7.4.7.5 1.6.5 2.5v.5h-7.5c0 .7.2 1.3.5 1.8s.7.9 1.2 1.1c.5.2 1 .4 1.5.4 1.2 0 2.2-.6 2.8-1.7l1.3.7c-.4.8-.9 1.4-1.7 1.8-.6.5-1.5.7-2.5.7zm2.8-6c0-.4-.1-.8-.3-1.2-.2-.4-.5-.7-.9-1-.4-.3-.9-.4-1.6-.4-.8 0-1.4.2-1.9.7-.5.5-.9 1.1-1 1.9h5.7zm3.5-3.8h1.5v1.4h.1c.3-.5.7-.9 1.2-1.2.6-.3 1.2-.5 1.8-.5 1.1 0 2 .3 2.6 1 .6.7.9 1.6.9 2.7v6.1H799v-5.9c0-.9-.2-1.5-.6-1.9-.4-.4-1-.6-1.7-.6-.5 0-1 .1-1.4.4-.4.3-.7.7-.9 1.1-.2.5-.3.9-.3 1.5v5.4h-1.6v-9.5zm14.7 9.8c-.9 0-1.7-.2-2.4-.6-.7-.4-1.3-1-1.7-1.8-.4-.8-.6-1.6-.6-2.6 0-.9.2-1.8.6-2.5.4-.8.9-1.4 1.6-1.9.7-.5 1.5-.7 2.4-.7.9 0 1.7.2 2.4.6.7.4 1.2 1 1.6 1.7.4.7.5 1.6.5 2.5v.5h-7.5c0 .7.2 1.3.5 1.8s.7.9 1.2 1.1c.5.2 1 .4 1.5.4 1.2 0 2.2-.6 2.8-1.7l1.3.7c-.4.8-.9 1.4-1.7 1.8-.6.5-1.5.7-2.5.7zm2.8-6c0-.4-.1-.8-.3-1.2-.2-.4-.5-.7-.9-1-.4-.3-.9-.4-1.6-.4-.8 0-1.4.2-1.9.7-.5.5-.9 1.1-1 1.9h5.7zm3.5-3.8h1.5v1.5h.1c.2-.5.5-1 1.1-1.3s1.1-.5 1.7-.5c.4 0 .8.1 1.1.2v1.7c-.4-.2-.8-.3-1.3-.3s-.9.1-1.3.4c-.4.3-.7.6-.9 1.1-.2.4-.3.9-.3 1.4v5.3h-1.6v-9.5zm10 9.8c-.7 0-1.3-.1-1.9-.4-.5-.3-1-.6-1.3-1.1-.3-.5-.4-1-.4-1.6 0-1 .4-1.8 1.1-2.4.8-.6 1.7-.8 2.9-.8.6 0 1.1.1 1.6.2s.9.3 1.1.4v-.6c0-.7-.2-1.3-.8-1.7-.5-.4-1.1-.6-1.9-.6-.5 0-1 .1-1.5.3-.4.2-.8.5-1.1 1l-1.2-.9c.4-.6.9-1 1.5-1.3.7-.3 1.4-.5 2.2-.5 1.3 0 2.3.3 3 1 .7.7 1.1 1.6 1.1 2.8v6h-1.5V56h-.1c-.3.5-.7.8-1.2 1.2-.3.3-.9.4-1.6.4zm.2-1.4c.5 0 1-.1 1.5-.4.5-.3.8-.7 1.1-1.1.3-.5.4-1 .4-1.5-.3-.2-.7-.4-1.1-.5s-.9-.2-1.4-.2c-.9 0-1.5.2-2 .5-.4.4-.7.8-.7 1.4 0 .5.2.9.6 1.3.5.4 1 .5 1.6.5zm10.3 1.3c-.4 0-.7-.1-1.1-.2-.3-.1-.6-.3-.8-.5-.5-.5-.7-1.1-.7-2v-5.6h-1.7v-1.4h1.7v-2.7h1.6v2.7h2.3v1.4H833v5.2c0 .5.1.9.3 1.2.2.3.6.4 1 .4s.7-.1 1-.3v1.5c-.2.1-.4.1-.6.2-.1.1-.4.1-.7.1zm4.1-11.4c-.3 0-.6-.1-.8-.3-.2-.2-.3-.5-.3-.8 0-.3.1-.6.3-.8.2-.2.5-.3.8-.3.3 0 .6.1.8.3.2.2.3.5.3.8 0 .3-.1.6-.3.8-.2.2-.4.3-.8.3zm-.7 1.7h1.6v9.5h-1.6v-9.5zm8.4 9.8c-.9 0-1.8-.2-2.5-.7-.7-.4-1.3-1.1-1.7-1.8-.4-.8-.6-1.6-.6-2.5 0-.9.2-1.8.6-2.6.4-.8 1-1.4 1.7-1.8.8-.4 1.6-.7 2.5-.7.9 0 1.8.2 2.5.7.8.4 1.3 1.1 1.8 1.8.4.8.6 1.6.6 2.6 0 .9-.2 1.8-.6 2.5-.4.8-1 1.4-1.8 1.8-.7.5-1.6.7-2.5.7zm0-1.4c.6 0 1.1-.1 1.6-.4.5-.3.9-.7 1.2-1.2.3-.6.5-1.2.5-1.9s-.2-1.4-.5-1.9c-.3-.6-.7-1-1.2-1.3-.5-.3-1-.4-1.6-.4-.6 0-1.1.1-1.6.4-.5.3-.9.7-1.2 1.3-.3.5-.5 1.2-.5 1.9s.2 1.4.5 1.9.7 1 1.2 1.2c.5.2 1 .4 1.6.4zm6.7-8.4h1.5v1.4h.1c.3-.5.7-.9 1.2-1.2.6-.3 1.2-.5 1.8-.5 1.1 0 2 .3 2.6 1 .6.7.9 1.6.9 2.7v6.1H859v-5.9c0-.9-.2-1.5-.6-1.9-.4-.4-1-.6-1.7-.6-.5 0-1 .1-1.4.4-.4.3-.7.7-.9 1.1-.2.5-.3.9-.3 1.5v5.4h-1.6v-9.5z"/><path class="st5" d="M119.7 126.8c0-2 1.7-3.7 3.7-3.7h119.4c1 0 1.9.4 2.6 1.1.7.7 1.1 1.6 1.1 2.6v163.9c0 2-1.7 3.7-3.7 3.7H123.4c-2 0-3.7-1.7-3.7-3.7V126.8z"/><path class="st3" d="M119.7 126.8c0-2 1.7-3.7 3.7-3.7h119.4c1 0 1.9.4 2.6 1.1.7.7 1.1 1.6 1.1 2.6v163.9c0 2-1.7 3.7-3.7 3.7H123.4c-2 0-3.7-1.7-3.7-3.7V126.8z"/><path class="st5" d="M370.2 126.8c0-2 1.7-3.7 3.7-3.7h119.4c1 0 1.9.4 2.6 1.1.7.7 1.1 1.6 1.1 2.6v163.9c0 2-1.7 3.7-3.7 3.7H373.9c-2 0-3.7-1.7-3.7-3.7V126.8z"/><path class="st3" d="M370.2 126.8c0-2 1.7-3.7 3.7-3.7h119.4c1 0 1.9.4 2.6 1.1.7.7 1.1 1.6 1.1 2.6v163.9c0 2-1.7 3.7-3.7 3.7H373.9c-2 0-3.7-1.7-3.7-3.7V126.8z"/><path class="st5" d="M732.9 126.8c0-2 1.7-3.7 3.7-3.7H856c1 0 1.9.4 2.6 1.1.7.7 1.1 1.6 1.1 2.6v163.9c0 2-1.7 3.7-3.7 3.7H736.6c-2 0-3.7-1.7-3.7-3.7V126.8z"/><path class="st3" d="M732.9 126.8c0-2 1.7-3.7 3.7-3.7H856c1 0 1.9.4 2.6 1.1.7.7 1.1 1.6 1.1 2.6v163.9c0 2-1.7 3.7-3.7 3.7H736.6c-2 0-3.7-1.7-3.7-3.7V126.8z"/><path class="st1" d="M121.7 123.1h122.9c.5 0 1 .2 1.4.6.4.4.6.9.6 1.4v9.8H119.8v-9.8c-.1-1.1.8-2 1.9-2z"/><path class="st3" d="M121.7 123.1h122.9c.5 0 1 .2 1.4.6.4.4.6.9.6 1.4v9.8H119.8v-9.8c-.1-1.1.8-2 1.9-2z"/><path class="st6" d="M119.7 134.8h126.8v11.7H119.7v-11.7z"/><path class="st3" d="M119.7 134.8h126.8v11.7H119.7v-11.7z"/><path class="st1" d="M119.7 146.6h126.8v11.7H119.7v-11.7z"/><path class="st3" d="M119.7 146.6h126.8v11.7H119.7v-11.7z"/><path class="st1" d="M119.7 158.3h126.8V170H119.7v-11.7z"/><path class="st3" d="M119.7 158.3h126.8V170H119.7v-11.7z"/><path class="st1" d="M119.7 170.1h126.8v11.7H119.7v-11.7z"/><path class="st3" d="M119.7 170.1h126.8v11.7H119.7v-11.7z"/><path class="st6" d="M119.7 181.8h126.8v11.7H119.7v-11.7z"/><path class="st3" d="M119.7 181.8h126.8v11.7H119.7v-11.7z"/><path class="st6" d="M119.7 193.6h126.8v11.7H119.7v-11.7z"/><path class="st3" d="M119.7 193.6h126.8v11.7H119.7v-11.7z"/><path class="st1" d="M119.7 205.3h126.8V217H119.7v-11.7z"/><path class="st3" d="M119.7 205.3h126.8V217H119.7v-11.7z"/><path class="st1" d="M119.7 217.1h126.8v11.7H119.7v-11.7z"/><path class="st3" d="M119.7 217.1h126.8v11.7H119.7v-11.7z"/><path class="st1" d="M119.7 228.8h126.8v11.7H119.7v-11.7z"/><path class="st3" d="M119.7 228.8h126.8v11.7H119.7v-11.7z"/><path class="st1" d="M119.7 240.6h126.8v11.7H119.7v-11.7z"/><path class="st3" d="M119.7 240.6h126.8v11.7H119.7v-11.7z"/><path class="st1" d="M119.7 252.3h126.8V264H119.7v-11.7z"/><path class="st3" d="M119.7 252.3h126.8V264H119.7v-11.7z"/><path class="st6" d="M119.7 264.1h126.8v11.7H119.7v-11.7z"/><path class="st3" d="M119.7 264.1h126.8v11.7H119.7v-11.7z"/><path class="st1" d="M119.7 275.8h126.8v11.7H119.7v-11.7z"/><path class="st3" d="M119.7 275.8h126.8v11.7H119.7v-11.7z"/><path class="st1" d="M124 85.7h118.2v26.9H124V85.7z"/><path class="st7" d="M124 85.7h118.2v26.9H124V85.7z"/><path class="st4" d="M139.5 93.5h6.6v1.3h-5.3v3.9h4.8v1.3h-4.8v5h-1.4V93.5zm8.2 3.3h1.3v1.3h.1c.2-.4.5-.8.9-1.1.5-.3.9-.5 1.4-.5.4 0 .7.1 1 .2v1.5c-.3-.2-.7-.3-1.2-.3-.4 0-.8.1-1.1.3-.3.2-.6.5-.8.9-.2.4-.3.8-.3 1.2v4.6h-1.4v-8.1zm9.8 8.4c-.8 0-1.5-.2-2.2-.6-.6-.4-1.1-.9-1.5-1.6-.4-.7-.5-1.4-.5-2.2s.2-1.5.5-2.2c.4-.7.8-1.2 1.5-1.6.6-.4 1.4-.6 2.2-.6s1.5.2 2.2.6c.6.4 1.1.9 1.5 1.6.4.7.5 1.4.5 2.2s-.2 1.5-.5 2.2c-.4.7-.9 1.2-1.5 1.6-.7.4-1.4.6-2.2.6zm0-1.2c.5 0 1-.1 1.4-.4.4-.3.8-.6 1-1.1s.4-1 .4-1.6c0-.6-.1-1.2-.4-1.7s-.6-.8-1-1.1c-.4-.2-.9-.4-1.4-.4s-1 .1-1.4.4-.8.6-1 1.1-.4 1-.4 1.7c0 .6.1 1.2.4 1.6s.6.8 1 1.1c.4.3.9.4 1.4.4zm5.7-7.2h1.3V98h.1c.2-.4.6-.8 1-1s1-.4 1.5-.4c.6 0 1.1.1 1.6.4.4.3.8.7 1 1.2.3-.5.7-.9 1.1-1.2.5-.3 1-.4 1.7-.4.9 0 1.6.3 2.1.9.5.6.7 1.3.7 2.3v5.2H174v-5c0-.8-.2-1.3-.5-1.6s-.8-.5-1.4-.5c-.4 0-.8.1-1.1.4-.3.2-.6.5-.8.9-.2.4-.3.8-.3 1.3v4.6h-1.4v-5c0-.8-.2-1.3-.5-1.7s-.8-.5-1.4-.5c-.4 0-.8.1-1.1.4-.3.2-.6.6-.8 1-.2.4-.3.8-.3 1.3v4.6H163v-8.4zm14 2.7h5.1v1.1h-5.1v-1.1zm10.6 5.7c-.6 0-1.1-.1-1.7-.4-.5-.2-1-.6-1.4-1-.4-.5-.7-1-.9-1.7l1.3-.5c.2.7.5 1.2 1 1.7.5.4 1.1.7 1.7.7.7 0 1.2-.2 1.7-.5.5-.4.7-.8.7-1.5 0-.5-.2-1-.6-1.3-.4-.3-1-.7-1.9-1l-.7-.2c-.8-.3-1.5-.7-2-1.1-.5-.5-.8-1.1-.8-2 0-.5.2-1 .5-1.5s.7-.8 1.2-1.1c.5-.3 1.1-.4 1.8-.4s1.2.1 1.7.4c.5.2.9.6 1.2.9.3.3.5.7.6 1l-1.3.5c-.1-.4-.4-.8-.8-1.1-.4-.3-.9-.5-1.5-.5s-1.1.2-1.5.5c-.4.3-.6.8-.6 1.2 0 .4.2.8.5 1.1.4.3.9.5 1.6.8l.8.2c1 .4 1.7.8 2.3 1.3.5.5.8 1.2.8 2.1 0 .7-.2 1.4-.6 1.9-.4.5-.9.9-1.4 1.1-.5.3-1.1.4-1.7.4zm5.4-8.4h1.3V98h.1c.2-.4.6-.8 1.1-1 .5-.3 1.1-.4 1.7-.4.7 0 1.4.2 2 .6s1.1.9 1.4 1.6c.3.7.5 1.4.5 2.2 0 .8-.2 1.6-.5 2.2-.3.7-.8 1.2-1.4 1.5-.6.4-1.3.5-2 .5-.6 0-1.2-.1-1.7-.4-.5-.3-.9-.6-1.1-1h-.1l.1 1.1v3.5h-1.4V96.8zm4 7.2c.5 0 .9-.1 1.3-.4.4-.3.7-.6 1-1.1.2-.5.4-1 .4-1.6 0-.6-.1-1.2-.4-1.6-.2-.5-.6-.8-1-1.1-.4-.3-.9-.4-1.3-.4-.5 0-.9.1-1.3.4-.4.2-.7.6-1 1.1s-.4 1-.4 1.6c0 .6.1 1.2.4 1.6s.6.8 1 1.1c.4.3.8.4 1.3.4zm8.3 1.2c-.6 0-1.1-.1-1.6-.3-.5-.2-.8-.6-1.1-1-.2-.4-.4-.9-.4-1.4 0-.9.3-1.5 1-2s1.5-.7 2.5-.7c.5 0 .9.1 1.4.2.4.1.8.2 1 .4v-.5c0-.6-.2-1.1-.6-1.5-.4-.4-1-.6-1.6-.6-.4 0-.9.1-1.3.3-.4.2-.7.5-.9.8l-1-.8c.3-.5.8-.9 1.3-1.2.6-.3 1.2-.4 1.9-.4 1.1 0 2 .3 2.6.9s.9 1.4.9 2.4v5.2h-1.3v-1.2h-.1c-.2.4-.6.7-1 1-.6.3-1.1.4-1.7.4zm.1-1.2c.5 0 .9-.1 1.3-.3.4-.2.7-.6.9-1 .2-.4.4-.8.4-1.3-.2-.2-.6-.3-.9-.4s-.8-.2-1.2-.2c-.7 0-1.3.2-1.7.5-.4.3-.6.7-.6 1.2 0 .4.2.8.5 1.1.3.3.8.4 1.3.4zm9.5 1.2c-.8 0-1.5-.2-2.1-.6-.6-.4-1.1-.9-1.5-1.5-.3-.7-.5-1.4-.5-2.2s.2-1.6.5-2.2c.4-.7.8-1.2 1.5-1.6.6-.4 1.3-.6 2.1-.6.9 0 1.6.2 2.2.6.6.4 1 1 1.3 1.6l-1.2.5c-.2-.5-.5-.9-.9-1.2-.4-.3-.9-.4-1.4-.4-.5 0-.9.1-1.3.4s-.8.6-1 1.1c-.2.5-.4 1-.4 1.6s.1 1.1.4 1.6.6.8 1 1.1c.4.3.9.4 1.3.4.6 0 1.1-.1 1.5-.4s.7-.7.9-1.1l1.2.5c-.3.7-.7 1.2-1.3 1.6-.7.6-1.5.8-2.3.8zm8.6 0c-.8 0-1.5-.2-2.1-.5-.6-.4-1.1-.9-1.4-1.5s-.5-1.4-.5-2.2c0-.8.2-1.5.5-2.2s.8-1.2 1.4-1.6 1.3-.6 2.1-.6 1.5.2 2.1.5c.6.4 1 .8 1.3 1.5.3.6.5 1.3.5 2.2v.4H221c0 .6.2 1.2.4 1.6.3.4.6.8 1 1 .4.2.8.3 1.3.3 1.1 0 1.9-.5 2.4-1.5l1.1.6c-.3.7-.8 1.2-1.4 1.6-.5.2-1.2.4-2.1.4zm2.4-5.2c0-.3-.1-.7-.3-1s-.4-.6-.8-.9c-.4-.2-.8-.4-1.4-.4-.6 0-1.2.2-1.6.6-.4.4-.7.9-.9 1.6h5z"/><path class="st1" d="M374.5 85.7h118.2v26.9H374.5V85.7z"/><path class="st7" d="M374.5 85.7h118.2v26.9H374.5V85.7z"/><path class="st4" d="M402.2 94.8H399v-1.3h7.8v1.3h-3.2V105h-1.4V94.8zm9.7 10.4c-.8 0-1.5-.2-2.2-.6-.6-.4-1.1-.9-1.5-1.6-.4-.7-.5-1.4-.5-2.2 0-.8.2-1.5.5-2.2.4-.7.8-1.2 1.5-1.6.6-.4 1.4-.6 2.2-.6.8 0 1.5.2 2.2.6.6.4 1.1.9 1.5 1.6.4.7.5 1.4.5 2.2 0 .8-.2 1.5-.5 2.2-.4.7-.9 1.2-1.5 1.6-.6.4-1.4.6-2.2.6zm0-1.2c.5 0 1-.1 1.4-.4.4-.3.8-.6 1-1.1.3-.5.4-1 .4-1.6 0-.6-.1-1.2-.4-1.7-.3-.5-.6-.8-1-1.1-.4-.2-.9-.4-1.4-.4-.5 0-1 .1-1.4.4-.4.2-.8.6-1 1.1-.3.5-.4 1-.4 1.7 0 .6.1 1.2.4 1.6.3.5.6.8 1 1.1.5.3.9.4 1.4.4zm5.8-4.5h5.1v1.1h-5.1v-1.1zm10.6 5.7c-.6 0-1.1-.1-1.7-.4-.5-.2-1-.6-1.4-1-.4-.5-.7-1-.9-1.7l1.3-.5c.2.7.5 1.2 1 1.7.5.4 1.1.7 1.7.7.7 0 1.2-.2 1.7-.5.5-.4.7-.8.7-1.5 0-.5-.2-1-.6-1.3-.4-.3-1-.7-1.9-1l-.7-.2c-.8-.3-1.5-.7-2-1.1-.5-.5-.8-1.1-.8-2 0-.5.2-1 .5-1.5s.7-.8 1.2-1.1c.5-.3 1.1-.4 1.8-.4s1.2.1 1.7.4c.5.2.9.6 1.2.9.3.3.5.7.6 1l-1.3.5c-.1-.4-.4-.8-.8-1.1-.4-.3-.9-.5-1.5-.5s-1.1.2-1.5.5c-.4.3-.6.8-.6 1.2 0 .4.2.8.5 1.1.4.3.9.5 1.6.8l.8.2c1 .4 1.7.8 2.3 1.3.5.5.8 1.2.8 2.1 0 .7-.2 1.4-.6 1.9-.4.5-.9.9-1.4 1.1-.6.3-1.1.4-1.7.4zm5.4-8.4h1.3V98h.1c.2-.4.6-.8 1.1-1 .5-.3 1.1-.4 1.7-.4.7 0 1.4.2 2 .6s1.1.9 1.4 1.6c.3.7.5 1.4.5 2.2 0 .8-.2 1.6-.5 2.2-.3.7-.8 1.2-1.4 1.5-.6.4-1.3.5-2 .5-.6 0-1.2-.1-1.7-.4-.5-.3-.9-.6-1.1-1h-.1l.1 1.1v3.5h-1.4V96.8zm4 7.2c.5 0 .9-.1 1.3-.4.4-.3.7-.6 1-1.1.2-.5.4-1 .4-1.6 0-.6-.1-1.2-.4-1.6-.2-.5-.6-.8-1-1.1-.4-.3-.9-.4-1.3-.4-.5 0-.9.1-1.3.4-.4.2-.7.6-1 1.1s-.4 1-.4 1.6c0 .6.1 1.2.4 1.6s.6.8 1 1.1c.4.3.8.4 1.3.4zm8.2 1.2c-.6 0-1.1-.1-1.6-.3-.5-.2-.8-.6-1.1-1-.3-.4-.4-.9-.4-1.4 0-.9.3-1.5 1-2s1.5-.7 2.5-.7c.5 0 .9.1 1.4.2.4.1.7.2 1 .4v-.5c0-.6-.2-1.1-.6-1.5-.4-.4-1-.6-1.6-.6-.4 0-.9.1-1.3.3-.4.2-.7.5-.9.8l-1-.8c.3-.5.8-.9 1.3-1.2.6-.3 1.2-.4 1.9-.4 1.1 0 2 .3 2.6.9.6.6.9 1.4.9 2.4v5.2h-1.3v-1.2h-.1c-.2.4-.6.7-1 1-.5.3-1.1.4-1.7.4zm.2-1.2c.5 0 .9-.1 1.3-.3.4-.2.7-.6.9-1 .2-.4.4-.8.4-1.3-.3-.2-.6-.3-.9-.4-.4-.1-.8-.2-1.2-.2-.7 0-1.3.2-1.7.5-.4.3-.6.7-.6 1.2 0 .4.2.8.5 1.1.3.3.8.4 1.3.4zm9.4 1.2c-.8 0-1.5-.2-2.1-.6-.6-.4-1.1-.9-1.5-1.5-.3-.7-.5-1.4-.5-2.2s.2-1.6.5-2.2c.4-.7.8-1.2 1.5-1.6.6-.4 1.3-.6 2.1-.6.9 0 1.6.2 2.2.6.6.4 1 1 1.3 1.6l-1.2.5c-.2-.5-.5-.9-.9-1.2-.4-.3-.9-.4-1.4-.4-.5 0-.9.1-1.3.4-.4.3-.8.6-1 1.1-.2.5-.4 1-.4 1.6s.1 1.1.4 1.6.6.8 1 1.1c.4.3.9.4 1.3.4.6 0 1.1-.1 1.5-.4.4-.3.7-.7.9-1.1l1.2.5c-.3.7-.7 1.2-1.3 1.6-.6.6-1.4.8-2.3.8zm8.7 0c-.8 0-1.5-.2-2.1-.5-.6-.4-1.1-.9-1.4-1.5s-.5-1.4-.5-2.2c0-.8.2-1.5.5-2.2.3-.7.8-1.2 1.4-1.6.6-.4 1.3-.6 2.1-.6s1.5.2 2.1.5c.6.4 1 .8 1.3 1.5.3.6.5 1.3.5 2.2v.4h-6.5c0 .6.2 1.2.4 1.6.3.4.6.8 1 1 .4.2.8.3 1.3.3 1.1 0 1.9-.5 2.4-1.5l1.1.6c-.3.7-.8 1.2-1.4 1.6-.6.2-1.3.4-2.2.4zm2.3-5.2c0-.3-.1-.7-.3-1-.2-.3-.4-.6-.8-.9-.4-.2-.8-.4-1.4-.4-.6 0-1.2.2-1.6.6-.4.4-.7.9-.9 1.6h5z"/><path class="st6" d="M372.1 123.1H495c.5 0 1 .2 1.4.6.4.4.6.9.6 1.4v9.8H370.2v-9.8c0-1.1.8-2 1.9-2z"/><path class="st3" d="M372.1 123.1H495c.5 0 1 .2 1.4.6.4.4.6.9.6 1.4v9.8H370.2v-9.8c0-1.1.8-2 1.9-2z"/><path class="st6" d="M370.2 134.8H497v11.7H370.2v-11.7z"/><path class="st3" d="M370.2 134.8H497v11.7H370.2v-11.7z"/><path class="st6" d="M370.2 145.4H497v11.7H370.2v-11.7z"/><path class="st3" d="M370.2 145.4H497v11.7H370.2v-11.7z"/><path class="st6" d="M370.2 157.1H497v11.7H370.2v-11.7z"/><path class="st3" d="M370.2 157.1H497v11.7H370.2v-11.7z"/><path class="st1" d="M246.5 140.7L370.2 129"/><path class="st7" d="M246.5 140.7l117.6-11.2"/><path class="st8" d="M364.4 131.2l4.4-2.1-4.7-1.2.3 3.3z"/><path class="st1" d="M247.4 186.8l122.7-46.1"/><path class="st7" d="M247.4 186.8l117.1-44"/><path class="st8" d="M365.1 144.4l3.7-3.1H364l1.1 3.1z"/><path class="st1" d="M246.5 199.5l123.6-48.2"/><path class="st7" d="M246.5 199.5l118-46"/><path class="st8" d="M365.2 155l3.6-3.2-4.8.1 1.2 3.1z"/><path class="st1" d="M246.5 269.9l123.6-107"/><path class="st7" d="M246.5 269.9l119.1-103"/><path class="st8" d="M366.7 168.2l2.4-4.2-4.5 1.7 2.1 2.5z"/><path class="st1" d="M0 103.9l119.7 36.8"/><path class="st3" d="M0 103.9l114 35"/><path class="st8" d="M113.5 140.5l4.8-.2-3.9-2.9-.9 3.1z"/><path class="st1" d="M-.6 128l120.3 59.7"/><path class="st3" d="M-.6 128l115 57"/><path class="st8" d="M113.6 186.5l4.8.5-3.3-3.5-1.5 3z"/><path class="st1" d="M0 224.2l119.7-24.8"/><path class="st3" d="M0 224.2l113.9-23.5"/><path class="st8" d="M114.2 202.3l4.1-2.5-4.8-.7.7 3.2z"/><path class="st1" d="M-.6 178.6l120.3 20.9"/><path class="st3" d="M-.6 178.6l114.4 19.8"/><path class="st8" d="M113.5 200.1l4.8-.9-4.2-2.4-.6 3.3z"/><path class="st1" d="M-.3 281.8L119.8 270"/><path class="st3" d="M-.3 281.8l114.1-11.2"/><path class="st8" d="M113.9 272.2l4.4-2.1-4.7-1.2.3 3.3z"/><path class="st1" d="M258.2 102.7h104.5v21H258.2v-21z"/><path class="st4" d="M271.9 107.6h6.6v1.3h-5.3v3.8h4.8v1.3h-4.8v3.8h5.3v1.3h-6.6v-11.5zm7.7 3.3h1.5l2.5 6.6 2.6-6.6h1.4l-3.3 8.2h-1.4l-3.3-8.2zm11.7 8.4c-.6 0-1.1-.1-1.6-.3-.5-.2-.8-.6-1.1-1-.2-.4-.4-.9-.4-1.4 0-.9.3-1.5 1-2s1.5-.7 2.5-.7c.5 0 .9.1 1.4.2.4.1.8.2 1 .4v-.5c0-.6-.2-1.1-.6-1.5-.4-.4-1-.6-1.6-.6-.4 0-.9.1-1.3.3-.4.2-.7.5-.9.8l-1-.8c.3-.5.8-.9 1.3-1.2.6-.3 1.2-.4 1.9-.4 1.1 0 2 .3 2.6.9s.9 1.4.9 2.4v5.2H294v-1.2h-.1c-.2.4-.6.7-1 1-.5.3-1 .4-1.6.4zm.1-1.2c.5 0 .9-.1 1.3-.3.4-.2.7-.6.9-1 .2-.4.4-.8.4-1.3-.2-.2-.6-.3-.9-.4s-.8-.2-1.2-.2c-.7 0-1.3.2-1.7.5-.4.3-.6.7-.6 1.2 0 .4.2.8.5 1.1.4.3.8.4 1.3.4zm9.5 1.2c-.8 0-1.5-.2-2.1-.6-.6-.4-1.1-.9-1.5-1.5-.3-.7-.5-1.4-.5-2.2s.2-1.6.5-2.2c.4-.7.8-1.2 1.5-1.6.6-.4 1.3-.6 2.1-.6.9 0 1.6.2 2.2.6.6.4 1 1 1.3 1.6l-1.2.5c-.2-.5-.5-.9-.9-1.2-.4-.3-.9-.4-1.4-.4-.5 0-.9.1-1.3.4s-.8.6-1 1.1c-.2.5-.4 1-.4 1.6s.1 1.1.4 1.6.6.8 1 1.1c.4.3.9.4 1.3.4.6 0 1.1-.1 1.5-.4s.7-.7.9-1.1l1.2.5c-.3.7-.7 1.2-1.3 1.6-.7.6-1.5.8-2.3.8zm8 0c-1 0-1.7-.3-2.2-.9s-.8-1.4-.8-2.4v-5.1h1.4v4.9c0 .8.2 1.4.5 1.7s.8.5 1.4.5c.5 0 .9-.1 1.2-.4.4-.2.6-.6.8-1 .2-.4.3-.8.3-1.2v-4.6h1.4v8.2h-1.3v-1.2h-.1c-.2.4-.6.8-1.1 1-.5.4-1 .5-1.5.5zm8.6 0c-.6 0-1.1-.1-1.6-.3-.5-.2-.8-.6-1.1-1-.2-.4-.4-.9-.4-1.4 0-.9.3-1.5 1-2s1.5-.7 2.5-.7c.5 0 .9.1 1.4.2.4.1.8.2 1 .4v-.5c0-.6-.2-1.1-.6-1.5-.4-.4-1-.6-1.6-.6-.4 0-.9.1-1.3.3-.4.2-.7.5-.9.8l-1-.8c.3-.5.8-.9 1.3-1.2.6-.3 1.2-.4 1.9-.4 1.1 0 2 .3 2.6.9s.9 1.4.9 2.4v5.2h-1.3v-1.2h-.1c-.2.4-.6.7-1 1-.6.3-1.1.4-1.7.4zm.1-1.2c.5 0 .9-.1 1.3-.3.4-.2.7-.6.9-1 .2-.4.4-.8.4-1.3-.2-.2-.6-.3-.9-.4s-.8-.2-1.2-.2c-.7 0-1.3.2-1.7.5-.4.3-.6.7-.6 1.2 0 .4.2.8.5 1.1.4.3.8.4 1.3.4zm8.9 1.1c-.3 0-.6-.1-.9-.2s-.5-.2-.7-.4c-.4-.4-.6-1-.6-1.7v-4.8h-1.4v-1.2h1.4v-2.3h1.4v2.3h2v1.2h-2v4.4c0 .4.1.8.2 1 .2.2.5.3.9.3.3 0 .6-.1.9-.3v1.3c-.2.1-.3.1-.5.2-.2.2-.4.2-.7.2zm3.5-9.8c-.3 0-.5-.1-.7-.3-.2-.2-.3-.4-.3-.7 0-.3.1-.5.3-.7.2-.2.4-.3.7-.3.3 0 .5.1.7.3.2.2.3.4.3.7 0 .3-.1.5-.3.7-.2.2-.4.3-.7.3zm-.6 1.5h1.4v8.2h-1.4v-8.2zm7.2 8.4c-.8 0-1.5-.2-2.2-.6-.6-.4-1.1-.9-1.5-1.6-.4-.7-.5-1.4-.5-2.2s.2-1.5.5-2.2c.4-.7.8-1.2 1.5-1.6.6-.4 1.4-.6 2.2-.6.8 0 1.5.2 2.2.6.6.4 1.1.9 1.5 1.6.4.7.5 1.4.5 2.2s-.2 1.5-.5 2.2c-.4.7-.9 1.2-1.5 1.6-.7.4-1.4.6-2.2.6zm0-1.2c.5 0 1-.1 1.4-.4.4-.3.8-.6 1-1.1.3-.5.4-1 .4-1.6 0-.6-.1-1.2-.4-1.7-.3-.5-.6-.8-1-1.1-.4-.2-.9-.4-1.4-.4s-1 .1-1.4.4-.8.6-1 1.1c-.3.5-.4 1-.4 1.7 0 .6.1 1.2.4 1.6.3.5.6.8 1 1.1.4.3.9.4 1.4.4zm5.8-7.2h1.3v1.2h.1c.2-.4.6-.8 1.1-1 .5-.3 1-.4 1.6-.4 1 0 1.7.3 2.2.9.5.6.8 1.3.8 2.3v5.2h-1.4v-5c0-.8-.2-1.3-.5-1.6-.4-.3-.9-.5-1.5-.5-.4 0-.8.1-1.2.4-.3.2-.6.6-.8 1-.2.4-.3.8-.3 1.2v4.6h-1.4v-8.3z"/><path class="st1" d="M482.7 129c0-1.7 1.4-3.1 3.1-3.1.8 0 1.6.3 2.2.9s.9 1.4.9 2.2c0 1.7-1.4 3.1-3.1 3.1-1.7 0-3.1-1.4-3.1-3.1z"/><path class="st3" d="M482.7 129c0-1.7 1.4-3.1 3.1-3.1.8 0 1.6.3 2.2.9s.9 1.4.9 2.2c0 1.7-1.4 3.1-3.1 3.1-1.7 0-3.1-1.4-3.1-3.1z"/><path class="st1" d="M482.7 140.1c0-1.7 1.4-3.1 3.1-3.1.8 0 1.6.3 2.2.9.6.6.9 1.4.9 2.2 0 1.7-1.4 3.1-3.1 3.1-1.7 0-3.1-1.4-3.1-3.1z"/><path class="st3" d="M482.7 140.1c0-1.7 1.4-3.1 3.1-3.1.8 0 1.6.3 2.2.9.6.6.9 1.4.9 2.2 0 1.7-1.4 3.1-3.1 3.1-1.7 0-3.1-1.4-3.1-3.1z"/><path class="st1" d="M482.7 151.2c0-1.7 1.4-3.1 3.1-3.1.8 0 1.6.3 2.2.9s.9 1.4.9 2.2c0 1.7-1.4 3.1-3.1 3.1-1.7.1-3.1-1.3-3.1-3.1z"/><path class="st3" d="M482.7 151.2c0-1.7 1.4-3.1 3.1-3.1.8 0 1.6.3 2.2.9s.9 1.4.9 2.2c0 1.7-1.4 3.1-3.1 3.1-1.7.1-3.1-1.3-3.1-3.1z"/><path class="st1" d="M482.7 163c0-1.7 1.4-3.1 3.1-3.1.8 0 1.6.3 2.2.9s.9 1.4.9 2.2c0 1.7-1.4 3.1-3.1 3.1-1.7 0-3.1-1.4-3.1-3.1z"/><path class="st3" d="M482.7 163c0-1.7 1.4-3.1 3.1-3.1.8 0 1.6.3 2.2.9s.9 1.4.9 2.2c0 1.7-1.4 3.1-3.1 3.1-1.7 0-3.1-1.4-3.1-3.1z"/></g></svg>