<svg enable-background="new 0 0 641.3 182" viewBox="0 0 641.3 182" xmlns="http://www.w3.org/2000/svg" xmlns:xlink="http://www.w3.org/1999/xlink"><clipPath id="a"><path d="m0 0h1280v960h-1280z"/></clipPath><g clip-path="url(#a)"><path d="m0 0h1280v960h-1280z" fill="#fff"/><path d="m10.1 17h186.2v34.5h-186.2z" fill="none"/><path d="m24.9 42.8c.3 0 .6 0 .9-.1s.5-.2.8-.4c.2-.2.4-.4.5-.6s.2-.5.2-.8h1.6c0 .4-.1.9-.3 1.3s-.5.7-.9 1-.8.5-1.3.7-1 .3-1.5.3c-.7 0-1.4-.1-2-.4s-1-.6-1.4-1.1-.6-1-.8-1.6-.3-1.2-.3-1.9v-.4c0-.6.1-1.3.3-1.9s.5-1.1.8-1.6c.4-.5.8-.8 1.4-1.1s1.2-.4 2-.4c.6 0 1.1.1 1.6.3s.9.4 1.3.8c.4.3.6.7.8 1.1s.3.9.3 1.4h-1.6c0-.3-.1-.6-.2-.8-.1-.3-.3-.5-.5-.7s-.5-.4-.8-.5-.6-.2-1-.2c-.5 0-1 .1-1.3.3-.4.2-.6.5-.9.8-.2.3-.4.7-.5 1.1s-.1.8-.1 1.2v.4c0 .4 0 .9.1 1.3s.2.8.5 1.1c.2.3.5.6.9.8.4.5.9.6 1.4.6zm6.5-3.9c0-.7.1-1.4.3-2s.5-1.1.9-1.6c.4-.4.9-.8 1.4-1 .6-.3 1.2-.4 1.9-.4s1.3.1 1.9.4c.6.2 1 .6 1.4 1s.7 1 .9 1.6.3 1.3.3 2v.2c0 .7-.1 1.4-.3 2s-.5 1.1-.9 1.6c-.4.4-.9.8-1.4 1.1-.6.2-1.2.4-1.9.4s-1.3-.1-1.9-.4-1-.6-1.4-1.1-.7-1-.9-1.6-.3-1.3-.3-2zm1.7.2c0 .5.1.9.2 1.4.1.4.3.8.5 1.2.2.3.5.6.9.8s.8.3 1.2.3c.5 0 .9-.1 1.2-.3.4-.2.6-.5.9-.8.2-.3.4-.7.5-1.2.1-.4.2-.9.2-1.4v-.2c0-.5-.1-.9-.2-1.4-.1-.4-.3-.8-.5-1.2-.2-.3-.5-.6-.9-.8-.3-.2-.8-.3-1.2-.3s-.9.1-1.2.3-.6.5-.9.8c-.2.3-.4.7-.5 1.2-.1.4-.2.9-.2 1.4zm11.5-5 .1 1.5c.4-.5.8-.9 1.3-1.2s1.1-.4 1.8-.4c.5 0 1 .1 1.4.2s.8.4 1.1.7.5.7.7 1.2.3 1 .2 1.7v6.2h-1.7v-6.2c0-.4-.1-.8-.2-1.1s-.2-.5-.4-.7-.4-.3-.7-.4-.6-.1-1-.1c-.6 0-1.1.1-1.5.4s-.8.7-1 1.1v7h-1.7v-9.9zm16.3 7.2c0-.2 0-.4-.1-.5-.1-.2-.2-.3-.4-.4s-.4-.3-.8-.4c-.3-.1-.7-.2-1.1-.3-.6-.1-1.1-.3-1.6-.4-.5-.2-.9-.4-1.2-.6s-.6-.5-.8-.8-.3-.7-.3-1.1.1-.8.3-1.1c.2-.4.4-.7.8-.9.3-.3.7-.5 1.2-.6.5-.2 1-.2 1.6-.2s1.1.1 1.6.2c.5.2.9.4 1.2.7s.6.6.8 1 .3.8.3 1.2h-1.7c0-.2-.1-.4-.2-.6s-.3-.4-.5-.5c-.2-.2-.4-.3-.7-.4s-.6-.2-.9-.2c-.4 0-.7 0-1 .1s-.5.2-.7.3-.3.3-.4.5-.1.4-.1.5c0 .2 0 .4.1.5.1.2.2.3.4.4s.4.2.7.3.7.2 1.1.3c.6.1 1.1.3 1.6.5s.9.4 1.2.6.6.5.8.8.3.7.3 1.1-.1.8-.3 1.2-.5.7-.8.9c-.4.2-.8.4-1.3.6-.5.1-1 .2-1.6.2-.7 0-1.3-.1-1.8-.3s-1-.4-1.3-.7c-.4-.3-.6-.6-.8-1s-.3-.8-.3-1.2h1.8c0 .3.1.6.3.9l.6.6c.2.1.5.2.8.3s.6.1.9.1c.7 0 1.3-.1 1.7-.4.3-.4.6-.7.6-1.2zm8.6-9.6v2.4h3.8v1.3h-3.8v5.3c0 .4 0 .7.1 1s.2.4.4.6l.6.3c.2.1.5.1.7.1h.5c.2 0 .4 0 .6-.1s.4-.1.5-.1c.2 0 .3-.1.4-.1l.2 1.2c-.1.1-.3.2-.5.2-.2.1-.4.1-.7.2-.2.1-.5.1-.8.1s-.5 0-.8 0c-.4 0-.8-.1-1.2-.2s-.7-.3-1-.6-.5-.6-.7-1-.2-.9-.2-1.6v-5.3h-2.6v-1.3h2.6v-2.4zm20.9 12.3v-8.5h-2.7v-1.3h2.7v-.7c0-.6.1-1.2.3-1.7s.4-.9.8-1.2c.3-.3.8-.6 1.2-.7.5-.2 1-.2 1.6-.2.4 0 .8 0 1.2.1s.8.1 1.2.2l-.2 1.4c-.2-.1-.5-.2-.9-.2-.4-.2-.7-.2-1.1-.2-.8 0-1.4.2-1.8.6s-.6 1-.6 1.8v.7h3.8v1.3h-3.8v8.6zm8.2-5.1c0-.7.1-1.4.3-2s.5-1.1.9-1.6c.4-.4.9-.8 1.4-1 .6-.3 1.2-.4 1.9-.4s1.3.1 1.9.4c.6.2 1 .6 1.4 1s.7 1 .9 1.6.3 1.3.3 2v.2c0 .7-.1 1.4-.3 2s-.5 1.1-.9 1.6c-.4.4-.9.8-1.4 1.1-.6.2-1.2.4-1.9.4s-1.3-.1-1.9-.4-1-.6-1.4-1.1-.7-1-.9-1.6-.3-1.3-.3-2zm1.7.2c0 .5.1.9.2 1.4.1.4.3.8.5 1.2.2.3.5.6.9.8s.8.3 1.2.3c.5 0 .9-.1 1.2-.3.4-.2.6-.5.9-.8.2-.3.4-.7.5-1.2.1-.4.2-.9.2-1.4v-.2c0-.5-.1-.9-.2-1.4-.1-.4-.3-.8-.5-1.2-.2-.3-.5-.6-.9-.8-.3-.2-.8-.3-1.2-.3s-.9.1-1.2.3-.6.5-.9.8c-.2.3-.4.7-.5 1.2-.1.4-.2.9-.2 1.4zm9.5-.2c0-.7.1-1.4.3-2s.5-1.1.9-1.6c.4-.4.9-.8 1.4-1 .6-.3 1.2-.4 1.9-.4s1.3.1 1.9.4c.6.2 1 .6 1.4 1s.7 1 .9 1.6.3 1.3.3 2v.2c0 .7-.1 1.4-.3 2s-.5 1.1-.9 1.6c-.4.4-.9.8-1.4 1.1-.6.2-1.2.4-1.9.4s-1.3-.1-1.9-.4-1-.6-1.4-1.1-.7-1-.9-1.6-.3-1.3-.3-2zm1.7.2c0 .5.1.9.2 1.4.1.4.3.8.5 1.2.2.3.5.6.9.8s.8.3 1.2.3c.5 0 .9-.1 1.2-.3.4-.2.6-.5.9-.8.2-.3.4-.7.5-1.2.1-.4.2-.9.2-1.4v-.2c0-.5-.1-.9-.2-1.4-.1-.4-.3-.8-.5-1.2-.2-.3-.5-.6-.9-.8-.3-.2-.8-.3-1.2-.3s-.9.1-1.2.3-.6.5-.9.8c-.2.3-.4.7-.5 1.2-.1.4-.2.9-.2 1.4zm29.3-2.3h-8.1v-1.5h8.1zm0 3.8h-8.1v-1.5h8.1z"/><path d="m166.5 13.7h114.4v41.2h-114.4z" fill="#fff" shape-rendering="crispEdges"/><path d="m280.9 13.7h122.2v41.2h-122.2z" fill="#fff" shape-rendering="crispEdges"/><path d="m403.1 13.7h83.1v41.2h-83.1z" fill="#fff" shape-rendering="crispEdges"/><path d="m486.2 13.7h127.7v41.2h-127.7z" fill="#fff" shape-rendering="crispEdges"/><g fill="none"><path d="m166.5 12.7v43.2" stroke="#000" stroke-miterlimit="10" stroke-width="2"/><path d="m280.9 12.7v43.2" stroke="#000" stroke-miterlimit="10" stroke-width="2"/><path d="m403.1 12.7v43.2" stroke="#000" stroke-miterlimit="10" stroke-width="2"/><path d="m486.2 12.7v43.2" stroke="#000" stroke-miterlimit="10" stroke-width="2"/><path d="m613.9 12.7v43.2" stroke="#000" stroke-miterlimit="10" stroke-width="2"/><path d="m165.5 13.7h449.4" stroke="#000" stroke-miterlimit="10" stroke-width="2"/><path d="m165.5 54.9h449.4" stroke="#000" stroke-miterlimit="10" stroke-width="2"/></g><path d="m185.4 35.5c0 .8-.1 1.6-.3 2.2-.2.7-.5 1.2-.8 1.7-.4.4-.8.8-1.3 1s-1.1.3-1.8.3-1.3-.1-1.8-.3-1-.6-1.4-1-.7-1-.9-1.7-.3-1.4-.3-2.2v-3.1c0-.8.1-1.6.3-2.2.2-.7.5-1.2.8-1.7.4-.4.8-.8 1.3-1s1.1-.4 1.8-.4 1.3.1 1.8.4c.5.2 1 .6 1.3 1 .4.4.7 1 .8 1.7.2.6.3 1.4.3 2.2v3.1zm-6.9-.3 5.2-4c-.1-.9-.4-1.5-.8-2s-1-.7-1.8-.7c-.9 0-1.5.3-2 .9-.4.6-.6 1.5-.6 2.6zm5.2-2.4-5.2 4c.1.9.4 1.5.8 2 .4.4 1 .7 1.8.7.9 0 1.6-.3 2-.9s.6-1.5.6-2.6zm7.5 6.7c0-.2 0-.3.1-.5s.1-.3.2-.4.3-.2.4-.3c.2-.1.4-.1.6-.1s.4 0 .6.1.3.2.4.3.2.3.2.4c.1.2.1.3.1.5s0 .3-.1.5-.1.3-.2.4-.2.2-.4.3-.4.1-.6.1-.4 0-.6-.1-.3-.2-.4-.3-.2-.2-.2-.4c-.1-.2-.1-.3-.1-.5zm0-8c0-.2 0-.3.1-.5s.1-.3.2-.4.3-.2.4-.3c.2-.1.4-.1.6-.1s.4 0 .6.1.3.2.4.3.2.3.2.4c.1.2.1.3.1.5s0 .3-.1.5-.1.3-.2.4-.2.2-.4.3-.4.1-.6.1-.4 0-.6-.1-.3-.2-.4-.3-.2-.2-.2-.4c-.1-.2-.1-.3-.1-.5zm26.3 4.6h1.8v1.4h-1.8v3.1h-1.7v-3.1h-6v-1l5.9-9.2h1.8zm-5.9 0h4.2v-6.6l-.3.5zm18.4 4.5h-8.7v-1.2l4.3-4.8c.4-.4.7-.8 1-1.1s.5-.6.6-.9c.2-.3.3-.5.3-.8.1-.3.1-.5.1-.8s-.1-.6-.2-.9-.3-.5-.5-.8c-.2-.2-.4-.4-.7-.5s-.6-.2-1-.2-.8.1-1.2.2c-.3.1-.6.3-.8.5s-.4.5-.5.9c-.1.3-.2.7-.2 1.1h-1.5c0-.6.1-1.1.3-1.6s.5-.9.8-1.3.8-.7 1.3-.9 1.1-.3 1.8-.3c.6 0 1.2.1 1.7.3s.9.4 1.3.8c.3.3.6.7.8 1.2.2.4.3.9.3 1.5 0 .4-.1.8-.2 1.2s-.3.8-.5 1.1c-.2.4-.5.8-.8 1.1-.3.4-.6.7-1 1.1l-3.6 3.9h6.7v1.2z"/><path d="m296.9 40.6h-1.7v-11.1l-3.5 1.3v-1.5l5-1.9h.1v13.2zm8.7-1.1c0-.2 0-.3.1-.5s.1-.3.2-.4.3-.2.4-.3c.2-.1.4-.1.6-.1s.4 0 .6.1.3.2.4.3.2.3.2.4c.1.2.1.3.1.5s0 .3-.1.5-.1.3-.2.4-.2.2-.4.3-.4.1-.6.1-.4 0-.6-.1-.3-.2-.4-.3-.2-.2-.2-.4c-.1-.2-.1-.3-.1-.5zm0-8c0-.2 0-.3.1-.5s.1-.3.2-.4.3-.2.4-.3c.2-.1.4-.1.6-.1s.4 0 .6.1.3.2.4.3.2.3.2.4c.1.2.1.3.1.5s0 .3-.1.5-.1.3-.2.4-.2.2-.4.3-.4.1-.6.1-.4 0-.6-.1-.3-.2-.4-.3-.2-.2-.2-.4c-.1-.2-.1-.3-.1-.5zm21.6 3-.5.2.5.2 5.6 2.1v1.8l-7.7-3.5v-1.3l7.7-3.5v1.8zm10.7-2.3c.4-.5.8-.9 1.3-1.2s1.1-.4 1.8-.4c.5 0 1 .1 1.4.2s.8.4 1.1.7.5.7.7 1.2.2 1.1.2 1.7v6.2h-1.7v-6.2c0-.8-.2-1.4-.6-1.8s-.9-.6-1.7-.6c-.5 0-1 .1-1.5.4-.4.3-.8.6-1.1 1v7.2h-1.7v-14h1.7v5.6zm9.1 3.4c0-.7.1-1.4.3-2s.5-1.1.9-1.6c.4-.4.9-.8 1.4-1 .6-.3 1.2-.4 1.9-.4s1.3.1 1.9.4c.6.2 1 .6 1.4 1s.7 1 .9 1.6.3 1.3.3 2v.2c0 .7-.1 1.4-.3 2s-.5 1.1-.9 1.6c-.4.4-.9.8-1.4 1.1-.6.2-1.2.4-1.9.4s-1.3-.1-1.9-.4-1-.6-1.4-1.1-.7-1-.9-1.6-.3-1.3-.3-2zm1.6.2c0 .5.1.9.2 1.4.1.4.3.8.5 1.2.2.3.5.6.9.8s.8.3 1.2.3c.5 0 .9-.1 1.2-.3.4-.2.6-.5.9-.8.2-.3.4-.7.5-1.2.1-.4.2-.9.2-1.4v-.2c0-.5-.1-.9-.2-1.4-.1-.4-.3-.8-.5-1.2-.2-.3-.5-.6-.9-.8-.3-.2-.8-.3-1.2-.3s-.9.1-1.2.3-.6.5-.9.8c-.2.3-.4.7-.5 1.2-.1.4-.2.9-.2 1.4zm10.3-9.2h5v12.5h3.2v1.5h-8.3v-1.5h3.4v-11h-3.4v-1.5zm15.3 14.2c-.7 0-1.3-.1-1.9-.4-.6-.2-1.1-.6-1.5-1s-.7-.9-1-1.5c-.2-.6-.3-1.2-.3-1.9v-.4c0-.8.1-1.5.4-2.1s.6-1.2 1-1.6.9-.8 1.4-1 1.1-.3 1.7-.3c.7 0 1.3.1 1.9.4.5.2 1 .6 1.3 1 .4.4.6.9.8 1.5s.3 1.2.3 1.9v.8h-7c0 .5.1.9.2 1.3.2.4.4.7.6 1 .3.3.6.5 1 .7s.8.2 1.2.2c.6 0 1.1-.1 1.6-.4.5-.2.9-.6 1.2-1l1 .8c-.2.2-.4.5-.6.7s-.5.4-.8.6-.7.3-1.1.4c-.5.2-.9.3-1.4.3zm-.2-8.9c-.3 0-.7.1-1 .2s-.6.3-.8.5-.4.5-.6.9c-.2.3-.3.7-.3 1.2h5.3v-.1c0-.3-.1-.7-.2-1s-.3-.6-.5-.9-.5-.5-.8-.6-.7-.2-1.1-.2zm7.1.4v-1.7l8 3.4v1.3l-8 3.5v-1.8l5.9-2.2.5-.2-.5-.2z"/><path d="m421.8 40.6h-8.7v-1.2l4.3-4.8c.4-.4.7-.8 1-1.1s.5-.6.6-.9c.2-.3.3-.5.3-.8.1-.3.1-.5.1-.8s-.1-.6-.2-.9-.3-.5-.5-.8c-.2-.2-.4-.4-.7-.5s-.6-.2-1-.2-.8.1-1.2.2c-.3.1-.6.3-.8.5s-.4.5-.5.9c-.1.3-.2.7-.2 1.1h-1.7c0-.6.1-1.1.3-1.6s.5-.9.8-1.3c.4-.4.8-.7 1.3-.9s1.1-.3 1.8-.3c.6 0 1.2.1 1.7.3s.9.4 1.3.8c.3.3.6.7.8 1.2.2.4.3.9.3 1.5 0 .4-.1.8-.2 1.2s-.3.8-.5 1.1c-.2.4-.5.8-.8 1.1-.3.4-.6.7-1 1.1l-3.6 3.9h6.7v1.2zm6-1.1c0-.2 0-.3.1-.5s.1-.3.2-.4.3-.2.4-.3.4-.1.6-.1.4 0 .6.1.3.2.4.3.2.3.2.4c.1.2.1.3.1.5s0 .3-.1.5-.1.3-.2.4-.2.2-.4.3-.4.1-.6.1-.4 0-.6-.1-.3-.2-.4-.3-.2-.2-.2-.4c-.1-.2-.1-.3-.1-.5zm0-8c0-.2 0-.3.1-.5s.1-.3.2-.4.3-.2.4-.3.4-.1.6-.1.4 0 .6.1.3.2.4.3.2.3.2.4c.1.2.1.3.1.5s0 .3-.1.5-.1.3-.2.4-.2.2-.4.3-.4.1-.6.1-.4 0-.6-.1-.3-.2-.4-.3-.2-.2-.2-.4c-.1-.2-.1-.3-.1-.5zm27.6 9.1h-8.7v-1.2l4.3-4.8c.4-.4.7-.8 1-1.1s.5-.6.6-.9c.2-.3.3-.5.3-.8.1-.3.1-.5.1-.8s-.1-.6-.2-.9-.3-.5-.5-.8c-.2-.2-.4-.4-.7-.5s-.6-.2-1-.2-.8.1-1.2.2c-.3.1-.6.3-.8.5s-.4.5-.5.9c-.1.3-.2.7-.2 1.1h-1.7c0-.6.1-1.1.3-1.6s.5-.9.8-1.3c.4-.4.8-.7 1.3-.9s1.1-.3 1.8-.3c.6 0 1.2.1 1.7.3s.9.4 1.3.8c.3.3.6.7.8 1.2.2.4.3.9.3 1.5 0 .4-.1.8-.2 1.2s-.3.8-.5 1.1c-.2.4-.5.8-.8 1.1-.3.4-.6.7-1 1.1l-3.6 3.9h6.7v1.2zm11.4-5.1c0 .8-.1 1.6-.3 2.2-.2.7-.5 1.2-.8 1.7-.4.4-.8.8-1.3 1s-1.1.3-1.8.3-1.3-.1-1.8-.3-1-.6-1.4-1-.7-1-.9-1.7-.3-1.4-.3-2.2v-3.1c0-.8.1-1.6.3-2.2.2-.7.5-1.2.8-1.7.4-.4.8-.8 1.3-1s1.1-.4 1.8-.4 1.3.1 1.8.4c.5.2 1 .6 1.3 1 .4.4.7 1 .8 1.7.2.6.3 1.4.3 2.2v3.1zm-6.9-.3 5.2-4c-.1-.9-.4-1.5-.8-2s-1-.7-1.8-.7c-.9 0-1.5.3-2 .9-.4.6-.6 1.5-.6 2.6zm5.2-2.4-5.2 4c.1.9.4 1.5.8 2 .4.4 1 .7 1.8.7.9 0 1.6-.3 2-.9s.6-1.5.6-2.6z"/><path d="m497 26.6h5v12.5h3.2v1.5h-8.2v-1.5h3.4v-11h-3.4zm15.3 14.2c-.7 0-1.3-.1-1.9-.4-.6-.2-1.1-.6-1.5-1s-.7-.9-1-1.5c-.2-.6-.3-1.2-.3-1.9v-.4c0-.8.1-1.5.4-2.1s.6-1.2 1-1.6.9-.8 1.4-1 1.1-.3 1.7-.3c.7 0 1.3.1 1.9.4.5.2 1 .6 1.3 1 .4.4.6.9.8 1.5s.3 1.2.3 1.9v.8h-7c0 .5.1.9.2 1.3.2.4.4.7.6 1 .3.3.6.5 1 .7s.8.2 1.2.2c.6 0 1.1-.1 1.6-.4.5-.2.9-.6 1.2-1l1 .8c-.2.2-.4.5-.6.7s-.5.4-.8.6-.7.3-1.1.4c-.5.2-.9.3-1.4.3zm-.2-8.9c-.3 0-.7.1-1 .2s-.6.3-.8.5-.4.5-.6.9c-.2.3-.3.7-.3 1.2h5.3v-.1c0-.3-.1-.7-.2-1s-.3-.6-.5-.9-.5-.5-.8-.6-.7-.2-1.1-.2zm8.6-1.2.1 1.5c.4-.5.8-.9 1.3-1.2s1.1-.4 1.8-.4c.5 0 1 .1 1.4.2s.8.4 1.1.7.5.7.7 1.2.2 1 .2 1.7v6.3h-1.7v-6.2c0-.4-.1-.8-.2-1.1s-.2-.5-.4-.7-.4-.3-.7-.4-.6-.1-1-.1c-.6 0-1.1.1-1.5.4s-.8.7-1 1.1v7.1h-1.7v-9.9h1.6zm9.3 4.9c0-.7.1-1.4.3-2s.4-1.2.8-1.6c.3-.4.8-.8 1.2-1 .5-.2 1-.4 1.6-.4s1.2.1 1.6.3c.5.2.8.5 1.2.9l.1-1.1h1.5v9.7c0 .6-.1 1.2-.3 1.7s-.5.9-.9 1.3-.8.6-1.3.8-1.1.3-1.7.3c-.3 0-.6 0-.9-.1s-.7-.1-1-.3c-.3-.1-.7-.3-1-.5s-.6-.5-.8-.8l.9-1c.2.2.4.5.6.6.2.2.4.3.7.4.2.1.5.2.7.2s.5.1.7.1c.4 0 .8-.1 1.1-.2s.6-.3.8-.5.4-.5.5-.8.2-.7.2-1.1v-.8c-.3.4-.7.7-1.2.9-.4.2-1 .3-1.6.3s-1.1-.1-1.6-.4-.9-.6-1.2-1.1-.6-1-.8-1.6-.3-1.3-.3-2v-.2zm1.7.2c0 .5.1.9.2 1.4.1.4.3.8.5 1.1s.5.6.8.8.7.3 1.2.3c.3 0 .6 0 .8-.1s.5-.2.6-.3c.2-.1.4-.3.5-.5s.3-.4.4-.6v-4.5c-.1-.2-.2-.4-.4-.6-.1-.2-.3-.3-.5-.5-.2-.1-.4-.2-.6-.3s-.5-.1-.8-.1c-.5 0-.9.1-1.2.3s-.6.4-.8.8c-.2.3-.4.7-.5 1.2-.1.4-.2.9-.2 1.4zm13.8-7.5v2.4h3.8v1.3h-3.8v5.3c0 .4 0 .7.1 1s.2.4.4.6c.2.1.4.2.6.3s.5.1.7.1h.5c.2 0 .4 0 .6-.1s.4-.1.5-.1c.2 0 .3-.1.4-.1l.2 1.2c-.1.1-.3.2-.5.2-.2.1-.4.1-.7.2-.2.1-.5.1-.8.1s-.5 0-.8 0c-.4 0-.8-.1-1.2-.2s-.7-.3-1-.6-.5-.6-.7-1-.2-.9-.2-1.6v-5.3h-2.6v-1.3h2.6v-2.4zm8.9 3.9c.4-.5.8-.9 1.3-1.2s1.1-.4 1.8-.4c.5 0 1 .1 1.4.2s.8.4 1.1.7.5.7.7 1.2.2 1.1.2 1.7v6.2h-1.7v-6.2c0-.8-.2-1.4-.6-1.8s-.9-.6-1.7-.6c-.5 0-1 .1-1.5.4-.4.3-.8.6-1.1 1v7.2h-1.7v-14h1.7v5.6zm12.5 7.3c0-.2 0-.3.1-.5s.1-.3.2-.4.3-.2.4-.3c.2-.1.4-.1.6-.1s.4 0 .6.1.3.2.4.3.2.3.2.4c.1.2.1.3.1.5s0 .3-.1.5-.1.3-.2.4-.2.2-.4.3-.4.1-.6.1-.4 0-.6-.1-.3-.2-.4-.3-.2-.2-.2-.4c-.1-.2-.1-.3-.1-.5zm0-8c0-.2 0-.3.1-.5s.1-.3.2-.4.3-.2.4-.3c.2-.1.4-.1.6-.1s.4 0 .6.1.3.2.4.3.2.3.2.4c.1.2.1.3.1.5s0 .3-.1.5-.1.3-.2.4-.2.2-.4.3-.4.1-.6.1-.4 0-.6-.1-.3-.2-.4-.3-.2-.2-.2-.4c-.1-.2-.1-.3-.1-.5zm21.4 1.6h1.2c.4 0 .8-.1 1.1-.2s.6-.3.8-.5.4-.5.5-.7c.1-.3.2-.6.2-.9 0-.8-.2-1.3-.6-1.7s-1-.6-1.7-.6c-.4 0-.7.1-1 .2s-.5.3-.8.5c-.2.2-.4.4-.5.7s-.2.6-.2.9h-1.7c0-.5.1-1 .3-1.4s.5-.8.8-1.2c.4-.3.8-.6 1.3-.8s1.1-.3 1.7-.3 1.1.1 1.6.2c.5.2.9.4 1.3.7s.6.7.8 1.2.3 1 .3 1.6c0 .2 0 .5-.1.8s-.2.5-.4.8c-.2.2-.4.5-.6.7s-.6.4-.9.6c.4.1.8.3 1.1.6.3.2.5.5.7.8s.3.6.4.9.1.6.1.9c0 .6-.1 1.2-.3 1.7s-.5.9-.9 1.2-.8.6-1.3.8-1.1.3-1.7.3-1.1-.1-1.6-.2c-.5-.2-1-.4-1.3-.7-.4-.3-.7-.7-.9-1.2s-.3-1-.3-1.6h1.7c0 .3.1.7.2 1s.3.5.5.7.5.4.8.5.7.2 1 .2.7-.1 1-.2.6-.3.8-.5.4-.5.5-.8.2-.7.2-1.1-.1-.8-.2-1.1-.3-.6-.6-.8c-.2-.2-.5-.3-.9-.4-.3-.1-.7-.2-1.2-.2h-1.2z"/><path d="m10.1 130.6h208.9v34.5h-208.9z" fill="none"/><path d="m23.2 157.5v-8.5h-2.7v-1.3h2.7v-.7c0-.6.1-1.2.3-1.7s.4-.9.8-1.2c.3-.3.8-.6 1.2-.7.5-.2 1-.2 1.6-.2.4 0 .8 0 1.2.1s.8.1 1.2.2l-.2 1.4c-.2-.1-.5-.2-.9-.2s-.7-.1-1.1-.1c-.8 0-1.4.2-1.8.6s-.6 1-.6 1.8v.7h3.8v1.3h-3.8v8.5zm8.2-5c0-.7.1-1.4.3-2s.5-1.1.9-1.6.9-.8 1.4-1c.6-.3 1.2-.4 1.9-.4s1.3.1 1.9.4c.6.2 1 .6 1.4 1s.7 1 .9 1.6.3 1.3.3 2v.2c0 .7-.1 1.4-.3 2s-.5 1.1-.9 1.6c-.4.4-.9.8-1.4 1.1-.6.2-1.2.4-1.9.4s-1.3-.1-1.9-.4-1-.6-1.4-1.1-.7-1-.9-1.6-.3-1.3-.3-2zm1.7.2c0 .5.1.9.2 1.4.1.4.3.8.5 1.2.2.3.5.6.9.8s.8.3 1.2.3c.5 0 .9-.1 1.2-.3.4-.2.6-.5.9-.8.2-.3.4-.7.5-1.2.1-.4.2-.9.2-1.4v-.2c0-.5-.1-.9-.2-1.4-.1-.4-.3-.8-.5-1.2-.2-.3-.5-.6-.9-.8-.3-.2-.8-.3-1.2-.3s-.9.1-1.2.3-.6.5-.9.8c-.2.3-.4.7-.5 1.2-.1.4-.2.9-.2 1.4zm9.5-.2c0-.7.1-1.4.3-2s.5-1.1.9-1.6c.4-.4.9-.8 1.4-1 .6-.3 1.2-.4 1.9-.4s1.3.1 1.9.4c.6.2 1 .6 1.4 1s.7 1 .9 1.6.3 1.3.3 2v.2c0 .7-.1 1.4-.3 2s-.5 1.1-.9 1.6c-.4.4-.9.8-1.4 1.1-.6.2-1.2.4-1.9.4s-1.3-.1-1.9-.4-1-.6-1.4-1.1-.7-1-.9-1.6-.3-1.3-.3-2zm1.7.2c0 .5.1.9.2 1.4.1.4.3.8.5 1.2.2.3.5.6.9.8s.8.3 1.2.3c.5 0 .9-.1 1.2-.3.4-.2.6-.5.9-.8.2-.3.4-.7.5-1.2.1-.4.2-.9.2-1.4v-.2c0-.5-.1-.9-.2-1.4-.1-.4-.3-.8-.5-1.2-.2-.3-.5-.6-.9-.8-.3-.2-.8-.3-1.2-.3-.5 0-.9.1-1.2.3s-.6.5-.9.8c-.2.3-.4.7-.5 1.2-.1.4-.2.9-.2 1.4zm12.9 3.8c0-.2 0-.3.1-.5s.1-.3.2-.4.3-.2.4-.3c.2-.1.4-.1.6-.1s.4 0 .6.1.3.2.4.3.2.3.2.4c.1.2.1.3.1.5s0 .3-.1.5-.1.3-.2.4-.2.2-.4.3-.4.1-.6.1-.4 0-.6-.1-.3-.2-.4-.3-.2-.2-.2-.4-.1-.4-.1-.5zm16.5 2.4h-8.4v-1.4h8.4zm11.2 0h-8.4v-1.4h8.4zm11.3-6.2c0 .7-.1 1.4-.3 2s-.4 1.1-.8 1.6c-.3.4-.7.8-1.2 1.1-.5.2-1 .4-1.6.4s-1.1-.1-1.6-.3-.8-.5-1.2-.8v4.8h-1.7v-13.7h1.5l.1 1.1c.3-.4.7-.7 1.2-.9s1-.3 1.6-.3 1.2.1 1.7.4c.5.2.9.6 1.2 1s.6 1 .8 1.6.3 1.3.3 2zm-1.7-.2c0-.5-.1-.9-.2-1.4-.1-.4-.3-.8-.5-1.2s-.5-.6-.8-.8-.7-.3-1.2-.3-1 .1-1.4.4c-.4.2-.7.6-.9 1v4.8c.2.4.5.7.9 1 .4.2.8.4 1.4.4.5 0 .9-.1 1.2-.3s.6-.5.8-.8.4-.7.5-1.2c.1-.4.2-.9.2-1.4zm11.1-5h.5.5c.2 0 .3 0 .4.1.1 0 .2.1.3.1l-.2 1.6c-.3-.1-.6-.1-.9-.2-.3 0-.6 0-.9 0-.8 0-1.4.2-1.9.5-.5.4-.8.8-1.1 1.5v6.3h-1.7v-9.9h1.6l.1 1.6c.4-.5.9-1 1.4-1.3s1.1-.3 1.9-.3zm4.2 5c0-.7.1-1.4.3-2s.5-1.1.9-1.6c.4-.4.9-.8 1.4-1 .6-.3 1.2-.4 1.9-.4s1.3.1 1.9.4c.6.2 1 .6 1.4 1s.7 1 .9 1.6.3 1.3.3 2v.2c0 .7-.1 1.4-.3 2s-.5 1.1-.9 1.6c-.4.4-.9.8-1.4 1.1-.6.2-1.2.4-1.9.4s-1.3-.1-1.9-.4-1-.6-1.4-1.1-.7-1-.9-1.6-.3-1.3-.3-2zm1.7.2c0 .5.1.9.2 1.4.1.4.3.8.5 1.2.2.3.5.6.9.8s.8.3 1.2.3c.5 0 .9-.1 1.2-.3.4-.2.6-.5.9-.8.2-.3.4-.7.5-1.2.1-.4.2-.9.2-1.4v-.2c0-.5-.1-.9-.2-1.4-.1-.4-.3-.8-.5-1.2-.2-.3-.5-.6-.9-.8-.3-.2-.8-.3-1.2-.3s-.9.1-1.2.3-.6.5-.9.8c-.2.3-.4.7-.5 1.2-.1.4-.2.9-.2 1.4zm14-7.4v2.4h3.8v1.3h-3.8v5.3c0 .4 0 .7.1 1s.2.4.4.6c.2.1.4.2.6.3s.5.1.7.1h.5c.2 0 .4 0 .6-.1s.4-.1.5-.1c.2 0 .3-.1.4-.1l.2 1.2c-.1.1-.3.2-.5.2-.2.1-.4.1-.7.2-.2.1-.5.1-.8.1s-.5 0-.8 0c-.4 0-.8-.1-1.2-.2s-.7-.3-1-.6-.5-.6-.7-1-.2-.9-.2-1.6v-5.3h-2.6v-1.3h2.6v-2.4zm6.7 7.2c0-.7.1-1.4.3-2s.5-1.1.9-1.6.9-.8 1.4-1c.6-.3 1.2-.4 1.9-.4s1.3.1 1.9.4c.6.2 1 .6 1.4 1s.7 1 .9 1.6.3 1.3.3 2v.2c0 .7-.1 1.4-.3 2s-.5 1.1-.9 1.6c-.4.4-.9.8-1.4 1.1-.6.2-1.2.4-1.9.4s-1.3-.1-1.9-.4-1-.6-1.4-1.1-.7-1-.9-1.6-.3-1.3-.3-2zm1.7.2c0 .5.1.9.2 1.4.1.4.3.8.5 1.2.2.3.5.6.9.8s.8.3 1.2.3c.5 0 .9-.1 1.2-.3.4-.2.6-.5.9-.8.2-.3.4-.7.5-1.2.1-.4.2-.9.2-1.4v-.2c0-.5-.1-.9-.2-1.4-.1-.4-.3-.8-.5-1.2-.2-.3-.5-.6-.9-.8-.3-.2-.8-.3-1.2-.3s-.9.1-1.2.3-.6.5-.9.8c-.2.3-.4.7-.5 1.2-.1.4-.2.9-.2 1.4zm18.2 6.2h-8.4v-1.4h8.4zm11.2 0h-8.4v-1.4h8.4zm22.3-8.5h-8.1v-1.4h8.1zm0 3.8h-8.1v-1.5h8.1z"/><path d="m280.9 127.3h119.1v41.2h-119.1z" fill="#fff" shape-rendering="crispEdges"/><path d="m400 127.3h53.4v41.2h-53.4z" fill="#fff" shape-rendering="crispEdges"/><path d="m280.9 126.3v43.2" fill="none" stroke="#000" stroke-miterlimit="10" stroke-width="2"/><path d="m400 126.3v43.2" fill="none" stroke="#000" stroke-miterlimit="10" stroke-width="2"/><path d="m453.5 126.3v43.2" fill="none" stroke="#000" stroke-miterlimit="10" stroke-width="2"/><path d="m279.9 127.3h174.6" fill="none" stroke="#000" stroke-miterlimit="10" stroke-width="2"/><path d="m279.9 168.5h174.6" fill="none" stroke="#000" stroke-miterlimit="10" stroke-width="2"/><path d="m296.9 154.2h-1.7v-11.1l-3.5 1.3v-1.5l5-1.9h.1v13.2zm8.7-1.1c0-.2 0-.3.1-.5s.1-.3.2-.4.3-.2.4-.3c.2-.1.4-.1.6-.1s.4 0 .6.1.3.2.4.3.2.3.2.4c.1.2.1.3.1.5s0 .3-.1.5-.1.3-.2.4-.2.2-.4.3-.4.1-.6.1-.4 0-.6-.1-.3-.2-.4-.3-.2-.2-.2-.4c-.1-.2-.1-.3-.1-.5zm0-8c0-.2 0-.3.1-.5s.1-.3.2-.4.3-.2.4-.3c.2-.1.4-.1.6-.1s.4 0 .6.1.3.2.4.3.2.3.2.4c.1.2.1.3.1.5s0 .3-.1.5-.1.3-.2.4-.2.2-.4.3-.4.1-.6.1-.4 0-.6-.1-.3-.2-.4-.3-.2-.2-.2-.4c-.1-.2-.1-.3-.1-.5zm22.5-3.9-.2 3.4h-1.2v-3.2-1.1h1.4zm3.2 0-.2 3.4h-1.2v-3.2-1.1h1.4zm13.3 8.2c0 .7-.1 1.4-.3 2s-.4 1.1-.8 1.6c-.3.4-.7.8-1.2 1.1-.5.2-1 .4-1.7.4-.6 0-1.2-.1-1.7-.3s-.9-.6-1.2-1l-.1 1.1h-1.5v-14h1.7v5.2c.3-.4.7-.7 1.2-.9s1-.3 1.6-.3 1.2.1 1.7.4c.5.2.9.6 1.2 1s.6 1 .8 1.6.3 1.3.3 2zm-1.7-.2c0-.5 0-.9-.1-1.4-.1-.4-.2-.8-.5-1.2-.2-.3-.5-.6-.8-.8s-.7-.3-1.2-.3c-.3 0-.6 0-.8.1s-.5.2-.7.3-.4.3-.5.5-.3.4-.4.6v4.3c.1.2.2.4.4.6s.3.4.5.5.4.2.7.3c.2.1.5.1.8.1.5 0 .9-.1 1.2-.3s.6-.5.8-.8.4-.7.5-1.1.2-.9.2-1.4zm11 5c-.1-.1-.1-.3-.2-.5 0-.2-.1-.4-.1-.6-.2.2-.4.3-.6.5-.2.1-.4.3-.7.4-.2.1-.5.2-.8.3s-.6.1-.9.1c-.5 0-1-.1-1.4-.2-.4-.2-.8-.4-1.1-.6-.3-.3-.5-.6-.7-.9-.2-.4-.2-.7-.2-1.2s.1-1 .3-1.4.5-.7.9-1 .9-.5 1.4-.6c.6-.1 1.2-.2 1.9-.2h1.8v-.8c0-.3-.1-.6-.2-.8s-.3-.4-.5-.6-.4-.3-.7-.4-.6-.1-1-.1c-.3 0-.6 0-.9.1s-.5.2-.7.3-.3.3-.4.5-.1.4-.1.6h-1.7c0-.4.1-.7.3-1 .2-.4.4-.7.8-.9.3-.3.7-.5 1.2-.7s1-.2 1.7-.2c.6 0 1.1.1 1.6.2s.9.3 1.2.6c.4.3.6.6.8 1s.3.9.3 1.4v4.6c0 .3 0 .7.1 1s.1.7.2 1v.1zm-3-1.3c.3 0 .6 0 .9-.1s.6-.2.8-.3.4-.3.6-.5.3-.4.4-.6v-2h-1.6c-1 0-1.7.1-2.3.4-.5.3-.8.8-.8 1.4 0 .2 0 .5.1.7s.2.4.4.5.4.3.6.4c.3.1.6.1.9.1zm14.2-8.8h.5.5c.2 0 .3 0 .4.1.1 0 .2.1.3.1l-.2 1.6c-.3-.1-.6-.1-.9-.2-.3 0-.6 0-.9 0-.8 0-1.4.2-1.9.5-.5.4-.8.8-1.1 1.5v6.3h-1.8v-9.9h1.6l.1 1.6c.4-.5.9-1 1.4-1.3s1.3-.3 2-.3zm7.7-2.9-.2 3.4h-1.2v-3.2-1.1h1.4zm3.3 0-.2 3.4h-1.2v-3.2-1.1h1.4z"/><path d="m413.6 153.1c0-.2 0-.3.1-.5s.1-.3.2-.4.3-.2.4-.3c.2-.1.4-.1.6-.1s.4 0 .6.1.3.2.4.3.2.3.2.4c.1.2.1.3.1.5s0 .3-.1.5-.1.3-.2.4-.2.2-.4.3-.4.1-.6.1-.4 0-.6-.1-.3-.2-.4-.3-.2-.2-.2-.4c-.1-.2-.1-.3-.1-.5zm11.2 0c0-.2 0-.3.1-.5s.1-.3.2-.4.3-.2.4-.3.4-.1.6-.1.4 0 .6.1.3.2.4.3.2.3.2.4c.1.2.1.3.1.5s0 .3-.1.5-.1.3-.2.4-.2.2-.4.3-.4.1-.6.1-.4 0-.6-.1-.3-.2-.4-.3-.2-.2-.2-.4c-.1-.2-.1-.3-.1-.5zm11.2 0c0-.2 0-.3.1-.5s.1-.3.2-.4.3-.2.4-.3.4-.1.6-.1.4 0 .6.1.3.2.4.3.2.3.2.4c.1.2.1.3.1.5s0 .3-.1.5-.1.3-.2.4-.2.2-.4.3-.4.1-.6.1-.4 0-.6-.1-.3-.2-.4-.3-.2-.2-.2-.4c-.1-.2-.1-.3-.1-.5z"/><path d="m346 125.2v-67.9" fill="none"/><path d="m346 125.2v-61.9" fill="none" stroke="#000" stroke-linejoin="round" stroke-miterlimit="10"/><path d="m347.7 63.3-1.7-4.5-1.7 4.5z" stroke="#000" stroke-miterlimit="10"/></g></svg>