<svg fill="none" height="371" stroke-linecap="square" stroke-miterlimit="10" viewBox="0 0 616 371" width="616" xmlns="http://www.w3.org/2000/svg" xmlns:xlink="http://www.w3.org/1999/xlink"><clipPath id="a"><path d="m108.55 52.916668h333.9311v248.533332h-333.9311z"/></clipPath><path d="m0 0h616v371h-616z" fill="#fff"/><path d="m0 0h616v371h-616z" fill="#fff"/><path d="m108.5 52.5v249" stroke="#333" stroke-linecap="butt"/><path d="m192.5 52.5v249" stroke="#ccc" stroke-linecap="butt"/><path d="m275.5 52.5v249" stroke="#ccc" stroke-linecap="butt"/><path d="m358.5 52.5v249" stroke="#ccc" stroke-linecap="butt"/><path d="m442.5 52.5v249" stroke="#ccc" stroke-linecap="butt"/><g fill="#4285f4"><path clip-path="url(#a)" d="m109 75v-10h260c1.10458 0 2 .89543 2 2v6c0 1.10457-.89542 2-2 2z"/><path clip-path="url(#a)" d="m109 109v-10h212c1.10458 0 2 .89543 2 2v6c0 1.10457-.89542 2-2 2z"/><path clip-path="url(#a)" d="m109 142v-10h185c1.10458 0 2 .89543 2 2v6c0 1.10457-.89542 2-2 2z"/><path clip-path="url(#a)" d="m109 176v-10h240c1.10458 0 2 .89543 2 2v6c0 1.10457-.89542 2-2 2z"/><path clip-path="url(#a)" d="m109 210v-10h235c1.10458 0 2 .89543 2 2v6c0 1.10457-.89542 2-2 2z"/><path clip-path="url(#a)" d="m109 244v-10h210c1.10458 0 2 .89543 2 2v6c0 1.10457-.89542 2-2 2z"/><path clip-path="url(#a)" d="m109 278v-10h78c1.10457 0 2 .89542 2 2v6c0 1.10458-.89543 2-2 2z"/></g><path clip-path="url(#a)" d="m109 86v-10h315c1.10458 0 2 .89543 2 2v6c0 1.10457-.89542 2-2 2z" fill="#1c4587"/><path clip-path="url(#a)" d="m109 120v-10h220c1.10458 0 2 .89543 2 2v6c0 1.10457-.89542 2-2 2z" fill="#1c4587"/><path clip-path="url(#a)" d="m109 153v-10h163c1.10458 0 2 .89543 2 2v6c0 1.10457-.89542 2-2 2z" fill="#1c4587"/><path clip-path="url(#a)" d="m109 187v-10h201c1.10458 0 2 .89543 2 2v6c0 1.10457-.89542 2-2 2z" fill="#1c4587"/><path clip-path="url(#a)" d="m109 221v-10h197c1.10458 0 2 .89543 2 2v6c0 1.10457-.89542 2-2 2z" fill="#1c4587"/><path clip-path="url(#a)" d="m109 255v-10h158c1.10458 0 2 .89543 2 2v6c0 1.10457-.89542 2-2 2z" fill="#1c4587"/><path clip-path="url(#a)" d="m109 289v-10h51c1.10457 0 2 .89542 2 2v6c0 1.10458-.89543 2-2 2z" fill="#1c4587"/><path d="m184.49992 349.45v-8.53124h2.79688q1.39062 0 2.07812.57814.70313.5625.70313 1.6875 0 .60936-.34375 1.0781-.32813.45314-.92188.70314.70313.1875 1.09375.73436.40625.53126.40625 1.28126 0 1.15624-.75 1.8125-.73437.65624-2.09375.65624zm1.125-3.98436v3.0625h1.85938q.79687 0 1.25-.40624.45312-.40626.45312-1.125 0-1.53126-1.6875-1.53126zm0-.90624h1.70313q.73437 0 1.17187-.3594.45313-.375.45313-1.0156 0-.70314-.40625-1.01564-.40625-.32812-1.25-.32812h-1.67188zm8.34375 5.0156q-1.29687 0-2.10937-.84374-.79688-.85936-.79688-2.28126v-.1875q0-.9531.35938-1.6875.35937-.75 1-1.15624.65625-.42186 1.40625-.42186 1.23437 0 1.92187.8125.6875.8125.6875 2.3281v.45314h-4.29687q.03125.9375.54687 1.51562.53125.57814 1.34375.57814.5625 0 .95313-.2344.40625-.23436.71875-.625l.65625.51564q-.79688 1.23436-2.39063 1.23436zm-.14062-5.6875q-.65625 0-1.10938.4844-.4375.46874-.53125 1.3281h3.17188v-.0781q-.04688-.82814-.45313-1.28126-.39062-.45314-1.07812-.45314zm4.53125-.78124.03125.79688q.73437-.90624 1.90625-.90624 2.01562 0 2.03125 2.2656v4.1875h-1.09375v-4.2031q0-.6719-.3125-1-.29688-.32814-.95313-.32814-.53125 0-.9375.28124-.39062.28126-.60937.7344v4.5156h-1.07813v-6.34374zm8.51562 5.57814q.57813 0 1.01563-.34376.4375-.35938.48437-.89064h1.03125q-.03125.5469-.39062 1.0469-.34375.48436-.92188.78124-.5625.29686-1.21875.29686-1.29687 0-2.0625-.85936-.75-.875-.75-2.375v-.1875q0-.92188.32813-1.64064.34375-.71874.96875-1.10936.64062-.40624 1.51562-.40624 1.0625 0 1.76563.6406.71875.625.76562 1.65626h-1.03125q-.04687-.625-.46875-1.01562-.42187-.39064-1.03125-.39064-.82812 0-1.28125.59376-.45312.59374-.45312 1.71874v.20314q0 1.09376.45312 1.6875.45313.59376 1.28125.59376zm4.54688-4.8125q.71875-.875 1.875-.875 2.01562 0 2.03125 2.2656v4.1875h-1.09375v-4.2031q0-.6719-.3125-1-.29688-.32814-.95313-.32814-.53125 0-.9375.28124-.39062.28126-.60937.7344v4.5156h-1.07813v-9h1.07813zm6.9375-.76564.03125.70314q.6875-.8125 1.875-.8125 1.32812 0 1.8125 1.0156.3125-.4531.8125-.73436.51562-.28124 1.20312-.28124 2.09375 0 2.125 2.2031v4.25h-1.07812v-4.1875q0-.67186-.3125-1-.3125-.34374-1.04688-.34374-.60937 0-1.01562.35938-.39063.35936-.45313.96876v4.2031h-1.07812v-4.15624q0-1.375-1.35938-1.375-1.0625 0-1.45312.90624v4.625h-1.09375v-6.34374zm13.89062 6.34374q-.09375-.1875-.15625-.67186-.75.79686-1.79687.79686-.9375 0-1.54688-.53124-.59375-.53126-.59375-1.35936 0-.9844.75-1.53126.75-.54688 2.125-.54688h1.04688v-.5q0-.5625-.34375-.89062-.32813-.34374-1-.34374-.57813 0-.96875.29686-.39063.28124-.39063.70314h-1.09375q0-.4844.32813-.9219.34375-.4375.92187-.6875.57813-.2656 1.26563-.2656 1.10937 0 1.71875.54686.625.54688.65625 1.5v2.92188q0 .875.21875 1.39062v.09374zm-1.79687-.8281q.51562 0 .96875-.26564.45312-.26562.65625-.6875v-1.29686h-.84375q-2 0-2 1.17186 0 .5.34375.79688.34375.28126.875.28126zm7.95312-4.5469q-.25-.03124-.53125-.03124-1.07812 0-1.45312.90624v4.5h-1.07813v-6.34374h1.04688l.01562.73438q.53125-.84374 1.51563-.84374.3125 0 .48437.0781zm2.70313 2.4375-.6875.70314v2.23436h-1.07813v-9h1.07813v5.4375l.57812-.6875 1.98438-2.09374h1.3125l-2.46875 2.65624 2.76562 3.6875h-1.28125zm10.92187 1.25q0-.4375-.34375-.67186-.32812-.25-1.15625-.42188-.8125-.17186-1.29687-.42186-.48438-.25-.71875-.57814-.21875-.34376-.21875-.8125 0-.78126.65625-1.3125.65625-.54686 1.6875-.54686 1.07812 0 1.73437.5625.67188.54686.67188 1.40624h-1.07813q0-.4375-.39062-.75-.375-.32814-.9375-.32814-.59375 0-.9375.26564-.32813.25-.32813.65626 0 .3906.3125.59374.3125.20312 1.125.39062.8125.17188 1.3125.42188.5.25.73438.60936.25.3594.25.8594 0 .85936-.6875 1.375-.67188.5156-1.75.5156-.76563 0-1.35938-.2656-.57812-.28126-.90625-.76564-.32812-.48436-.32812-1.04686h1.07812q.03125.54686.4375.875.40625.3125 1.07813.3125.60937 0 .98437-.25.375-.25.375-.6719zm4.84377.9219q.57812 0 1.01562-.34376.4375-.35938.48438-.89064h1.03126q-.03126.5469-.39064 1.0469-.34376.48436-.92186.78124-.5625.29686-1.21876.29686-1.29689 0-2.06252-.85936-.75-.875-.75-2.375v-.1875q0-.92188.32813-1.64064.34375-.71874.96875-1.10936.64062-.40624 1.51564-.40624 1.0625 0 1.76562.6406.71874.625.76564 1.65626h-1.03126q-.04688-.625-.46874-1.01562-.4219-.39064-1.03126-.39064-.82814 0-1.28127.59376-.45312.59374-.45312 1.71874v.20314q0 1.09376.45312 1.6875.45313.59376 1.28127.59376zm3.17186-2.46876q0-.92188.3594-1.67188.375-.75 1.03124-1.14062.65626-.40624 1.48436-.40624 1.2969 0 2.09376.8906.8125.89064.8125 2.39064v.07812q0 .92188-.35936 1.65624-.3594.7344-1.01564 1.15626-.65626.40624-1.51562.40624-1.28124 0-2.09374-.8906-.7969-.90626-.7969-2.39064zm1.09376.14062q0 1.04688.48438 1.6875.5.64064 1.3125.64064.82812 0 1.3125-.64064.48436-.65626.48436-1.82812 0-1.03124-.5-1.67188-.48436-.65626-1.3125-.65626-.79686 0-1.29686.64064-.48438.625-.48438 1.82812zm9.26564-2.28126q-.25-.03124-.53126-.03124-1.07814 0-1.45314.90624v4.5h-1.0781v-6.34374h1.04686l.01564.73438q.53124-.84374 1.5156-.84374.3125 0 .4844.0781zm3.5625 5.5q-1.2969 0-2.1094-.84374-.79686-.85936-.79686-2.28126v-.1875q0-.9531.35936-1.6875.3594-.75 1-1.15624.65626-.42186 1.40626-.42186 1.23438 0 1.92188.8125.6875.8125.6875 2.3281v.45314h-4.29688q.03124.9375.54688 1.51562.53126.57814 1.34376.57814.5625 0 .9531-.2344.40626-.23436.71876-.625l.65624.51564q-.79686 1.23436-2.3906 1.23436zm-.14064-5.6875q-.65626 0-1.10936.4844-.4375.46874-.53126 1.3281h3.17186v-.0781q-.04686-.82814-.4531-1.28126-.39064-.45314-1.07814-.45314zm6.46874 2.09376q0-1.3125.34376-2.53126.35938-1.21874 1.0625-2.21874.70314-1 1.46874-1.40626l.21876.71876q-.85936.65624-1.40626 2-.54686 1.34374-.59374 3.01564l-.01562.5q0 2.2656.82812 3.92186.5 1 1.1875 1.5625l-.21876.65624q-.78124-.42186-1.5-1.4531-1.375-1.9844-1.375-4.76564zm5.125-2.10936q.71876-.875 1.875-.875 2.01564 0 2.03126 2.2656v4.1875h-1.09376v-4.2031q0-.6719-.3125-1-.29686-.32814-.9531-.32814-.53126 0-.9375.28124-.39064.28126-.6094.7344v4.5156h-1.0781v-9h1.0781zm7.09376 5.5781h-1.07812v-6.34374h1.07812zm-1.17186-8.0156q0-.26564.15624-.45314.17186-.1875.48436-.1875.3125 0 .46876.1875.17188.1875.17188.45314 0 .25-.17188.4375-.15626.17186-.46876.17186-.3125 0-.48436-.17186-.15624-.1875-.15624-.4375zm2.73436 4.79686q0-1.48436.6875-2.35936.6875-.875 1.8125-.875 1.15624 0 1.8125.8125l.04688-.70314h1v6.1875q0 1.23438-.73438 1.9375-.73436.71874-1.95312.71874-.6875 0-1.34374-.29686-.65626-.29688-1-.79688l.5625-.65626q.6875.8594 1.7031.8594.78126 0 1.21876-.45314.45314-.4375.45314-1.25v-.54686q-.65626.7656-1.78126.7656-1.10938 0-1.79688-.8906-.6875-.90626-.6875-2.45314zm1.09374.125q0 1.0625.4375 1.6875.4375.60938 1.2344.60938 1.0156 0 1.5-.9375v-2.89064q-.5-.90624-1.5-.90624-.78126 0-1.2344.60938-.4375.60936-.4375 1.82812zm7.25-2.48436q.71876-.875 1.875-.875 2.01564 0 2.03126 2.2656v4.1875h-1.09376v-4.2031q0-.6719-.3125-1-.29686-.32814-.9531-.32814-.53126 0-.9375.28124-.39064.28126-.6094.7344v4.5156h-1.0781v-9h1.0781zm8.5469 5.7031q-1.2969 0-2.1094-.84374-.79686-.85936-.79686-2.28126v-.1875q0-.9531.35936-1.6875.3594-.75 1-1.15624.65626-.42186 1.40626-.42186 1.23438 0 1.92188.8125.6875.8125.6875 2.3281v.45314h-4.29688q.03124.9375.54688 1.51562.53126.57814 1.34376.57814.5625 0 .9531-.2344.40626-.23436.71876-.625l.65624.51564q-.79686 1.23436-2.3906 1.23436zm-.14064-5.6875q-.65626 0-1.10936.4844-.4375.46874-.53126 1.3281h3.17186v-.0781q-.04686-.82814-.4531-1.28126-.39064-.45314-1.07814-.45314zm6.57814.1875q-.25-.03124-.53126-.03124-1.07814 0-1.45314.90624v4.5h-1.0781v-6.34374h1.04686l.01564.73438q.53124-.84374 1.5156-.84374.3125 0 .4844.0781zm5.10936 5.375h-1.07812v-6.34374h1.07812zm-1.17186-8.0156q0-.26564.15624-.45314.17186-.1875.48436-.1875.3125 0 .46876.1875.17188.1875.17188.45314 0 .25-.17188.4375-.15626.17186-.46876.17186-.3125 0-.48436-.17186-.15624-.1875-.15624-.4375zm6.6875 6.3281q0-.4375-.34376-.67186-.32814-.25-1.15624-.42188-.8125-.17186-1.2969-.42186-.48436-.25-.71874-.57814-.21876-.34376-.21876-.8125 0-.78126.65626-1.3125.65624-.54686 1.6875-.54686 1.07814 0 1.73438.5625.67186.54686.67186 1.40624h-1.0781q0-.4375-.39064-.75-.375-.32814-.9375-.32814-.59376 0-.9375.26564-.32812.25-.32812.65626 0 .3906.3125.59374.3125.20312 1.125.39062.8125.17188 1.3125.42188.5.25.73436.60936.25.3594.25.8594 0 .85936-.6875 1.375-.67186.5156-1.75.5156-.7656 0-1.35936-.2656-.57814-.28126-.90624-.76564-.32814-.48436-.32814-1.04686h1.07814q.03124.54686.4375.875.40624.3125 1.0781.3125.6094 0 .9844-.25.375-.25.375-.6719zm10.67186-1.40624q0 1.45314-.67186 2.34374-.65626.875-1.78126.875-1.20314 0-1.85938-.85936l-.0625.73436h-.98436v-9h1.0781v3.3594q.65626-.8125 1.8125-.8125 1.15626 0 1.8125.875.65626.85936.65626 2.3906zm-1.07812-.125q0-1.10936-.4375-1.70312-.42188-.60938-1.21874-.60938-1.07814 0-1.5469.98438v2.75q.5 1 1.5469 1 .78124 0 1.21874-.60938.4375-.60936.4375-1.8125zm5.34376 3.34374q-1.2969 0-2.1094-.84374-.79686-.85936-.79686-2.28126v-.1875q0-.9531.35936-1.6875.3594-.75 1-1.15624.65626-.42186 1.40626-.42186 1.23438 0 1.92188.8125.6875.8125.6875 2.3281v.45314h-4.29688q.03124.9375.54688 1.51562.53126.57814 1.34376.57814.5625 0 .9531-.2344.40626-.23436.71876-.625l.65624.51564q-.79686 1.23436-2.3906 1.23436zm-.14064-5.6875q-.65626 0-1.10936.4844-.4375.46874-.53126 1.3281h3.17186v-.0781q-.04686-.82814-.4531-1.28126-.39064-.45314-1.07814-.45314zm4.98438-2.3125v1.53126h1.17186v.84374h-1.17186v3.9219q0 .3906.15626.5781.15624.1875.53124.1875.1875 0 .51562-.0625v.875q-.42186.125-.82812.125-.71874 0-1.09374-.4375-.375-.4531-.375-1.2656v-3.9219h-1.15626v-.84374h1.15626v-1.53126zm4 0v1.53126h1.17186v.84374h-1.17186v3.9219q0 .3906.15626.5781.15624.1875.53124.1875.1875 0 .51562-.0625v.875q-.42186.125-.82812.125-.71874 0-1.09374-.4375-.375-.4531-.375-1.2656v-3.9219h-1.15626v-.84374h1.15626v-1.53126zm5.15626 8q-1.2969 0-2.1094-.84374-.79686-.85936-.79686-2.28126v-.1875q0-.9531.35936-1.6875.3594-.75 1-1.15624.65626-.42186 1.40626-.42186 1.23438 0 1.92188.8125.6875.8125.6875 2.3281v.45314h-4.29688q.03124.9375.54688 1.51562.53126.57814 1.34376.57814.5625 0 .9531-.2344.40626-.23436.71876-.625l.65624.51564q-.79686 1.23436-2.3906 1.23436zm-.14064-5.6875q-.65626 0-1.10936.4844-.4375.46874-.53126 1.3281h3.17186v-.0781q-.04686-.82814-.4531-1.28126-.39064-.45314-1.07814-.45314zm6.57814.1875q-.25-.03124-.53126-.03124-1.07814 0-1.45314.90624v4.5h-1.0781v-6.34374h1.04686l.01564.73438q.53124-.84374 1.5156-.84374.3125 0 .4844.0781zm3.4375 1.96876q0 1.3125-.34376 2.51564-.34374 1.1875-1.0625 2.2031-.70314 1.01564-1.46874 1.4375l-.2344-.65624q.90626-.6875 1.45314-2.14062.54686-1.46874.5625-3.23438v-.1875q0-1.23436-.26564-2.29686-.25-1.0625-.71874-1.89064-.45312-.84376-1.03126-1.3125l.2344-.65626q.7656.4219 1.46874 1.4219.70312 1 1.04686 2.21874.3594 1.20312.3594 2.57812z" fill="#757575"/><path d="m43.659374 76.89741v3.34375h-1.125v-8.53125h3.15625q1.390626 0 2.1875.71875.796876.70312.796876 1.89062 0 1.23438-.78125 1.90625-.765626.67188-2.21875.67188zm0-.92188h2.03125q.90625 0 1.375-.42187.484376-.42188.484376-1.21875 0-.76563-.484376-1.21875-.46875-.46875-1.3125-.48438h-2.09375zm10.625 4.26563q-.09375-.1875-.15625-.67188-.75.79688-1.796874.79688-.9375 0-1.546876-.53125-.59375-.53125-.59375-1.35938 0-.98437.75-1.53125.75-.54687 2.125-.54687h1.046876v-.5q0-.5625-.34375-.89063-.328126-.34375-1-.34375-.578126 0-.96875.29688-.390626.28125-.390626.70312h-1.09375q0-.48437.328126-.92187.34375-.4375.921874-.6875.578126-.26563 1.265626-.26563 1.109374 0 1.71875.54688.625.54687.65625 1.5v2.92187q0 .875.21875 1.39063v.09375zm-1.796874-.82813q.515624 0 .96875-.26562.453124-.26563.65625-.6875v-1.29688h-.84375q-2 0-2 1.17188 0 .5.34375.79687.34375.28125.875.28125zm7.421874.0625q.578126 0 1.015626-.34375.4375-.35937.484374-.89062h1.03125q-.03125.54687-.390624 1.04687-.34375.48438-.921876.78125-.5625.29688-1.21875.29688-1.296874 0-2.0625-.85938-.75-.875-.75-2.375v-.1875q0-.92187.328126-1.64062.34375-.71875.96875-1.10938.640624-.40625 1.515624-.40625 1.0625 0 1.765626.64063.71875.625.765624 1.65625h-1.03125q-.046874-.625-.46875-1.01563-.421874-.39062-1.03125-.39062-.828124 0-1.28125.59375-.453124.59375-.453124 1.71875v.20312q0 1.09375.453124 1.6875.453126.59375 1.28125.59375zm5.234376-2.17187-.6875.70312v2.23438h-1.078126v-9h1.078126v5.4375l.57813-.6875 1.98437-2.09375h1.3125l-2.46875 2.65625 2.76563 3.6875h-1.28125zm6.85938 3.0625q-1.29688 0-2.10938-.84375-.79687-.85938-.79687-2.28125v-.1875q0-.95313.35937-1.6875.35938-.75 1-1.15625.65625-.42188 1.40625-.42188 1.23438 0 1.92188.8125.6875.8125.6875 2.32813v.45312h-4.29688q.03125.9375.54688 1.51563.53125.57812 1.34375.57812.5625 0 .95312-.23437.40625-.23438.71875-.625l.65625.51562q-.79687 1.23438-2.39062 1.23438zm-.14063-5.6875q-.65625 0-1.10937.48437-.4375.46875-.53125 1.32813h3.17187v-.07813q-.04687-.82812-.45312-1.28125-.39063-.45312-1.07813-.45312zm3.25 2.34375q0-1.46875.6875-2.34375.6875-.89063 1.8125-.89063 1.10938 0 1.76563.75v-3.29687h1.07812v9h-1l-.04687-.6875q-.65625.8125-1.8125.8125-1.09375 0-1.79688-.90625-.6875-.90625-.6875-2.35938zm1.07813.125q0 1.07812.4375 1.6875.45312.60937 1.23437.60937 1.03125 0 1.51563-.9375v-2.90625q-.48438-.89062-1.5-.89062-.79688 0-1.25.60937-.4375.60938-.4375 1.82813zm8.85937-.70313q-1.4375-.42187-2.10937-1.03125-.65625-.60937-.65625-1.5 0-1 .79687-1.65625.8125-.67187 2.10938-.67187.875 0 1.5625.34375.6875.34375 1.0625.9375.39062.59375.39062 1.3125h-1.14062q0-.78125-.5-1.21875-.48438-.4375-1.375-.4375-.82813 0-1.29688.375-.46875.35937-.46875 1 0 .53125.4375.89062.45313.35938 1.51563.65625 1.0625.29688 1.65625.65625.60937.35938.89062.84375.29688.48438.29688 1.125 0 1.04688-.8125 1.67188-.8125.625-2.15625.625-.89063 0-1.65625-.34375-.75-.34375-1.17188-.92188-.40625-.59375-.40625-1.32812h1.125q0 .76562.57813 1.21875.57812.45312 1.53125.45312.89062 0 1.35937-.35937.46875-.375.46875-1 0-.625-.4375-.96875-.4375-.34375-1.59375-.67188zm5.34375-2.54687.03125.70312q.6875-.8125 1.875-.8125 1.32813 0 1.8125 1.01563.3125-.45313.8125-.73438.51563-.28125 1.20313-.28125 2.09375 0 2.125 2.20313v4.25h-1.07813v-4.1875q0-.67188-.3125-1-.3125-.34375-1.04687-.34375-.60938 0-1.01563.35937-.39062.35938-.45312.96875v4.20313h-1.07813v-4.15625q0-1.375-1.35937-1.375-1.0625 0-1.45313.90625v4.625h-1.09375v-6.34375zm11.15625 6.34375h-1.07812v-6.34375h1.07812zm-1.17187-8.01563q0-.26562.15625-.45312.17187-.1875.48437-.1875.3125 0 .46875.1875.17188.1875.17188.45312 0 .25-.17188.4375-.15625.17188-.46875.17188-.3125 0-.48437-.17188-.15625-.1875-.15625-.4375z" fill="#000"/><path d="m26.659374 110.711464v3.34375h-1.125v-8.53125h3.15625q1.390626 0 2.1875.71875.796876.703126.796876 1.890626 0 1.234374-.78125 1.90625-.765626.671874-2.21875.671874zm0-.921874h2.03125q.90625 0 1.375-.421876.484376-.421874.484376-1.21875 0-.765624-.484376-1.21875-.46875-.46875-1.3125-.484374h-2.09375zm10.625 4.265624q-.09375-.1875-.15625-.671874-.75.796874-1.796874.796874-.9375 0-1.546876-.53125-.59375-.53125-.59375-1.359374 0-.984376.75-1.53125.75-.546876 2.125-.546876h1.046876v-.5q0-.5625-.34375-.890624-.328126-.34375-1-.34375-.578126 0-.96875.296874-.390626.28125-.390626.703126h-1.09375q0-.484376.328126-.921876.34375-.4375.921874-.6875.578126-.265624 1.265626-.265624 1.109374 0 1.71875.546874.625.546876.65625 1.5v2.921876q0 .875.21875 1.390624v.09375zm-1.796874-.828124q.515624 0 .96875-.265626.453124-.265624.65625-.6875v-1.296874h-.84375q-2 0-2 1.171874 0 .5.34375.796876.34375.28125.875.28125zm7.421874.0625q.578126 0 1.015626-.34375.4375-.359376.484374-.890626h1.03125q-.03125.546876-.390624 1.046876-.34375.484374-.921876.78125-.5625.296874-1.21875.296874-1.296874 0-2.0625-.859374-.75-.875-.75-2.375v-.1875q0-.921876.328126-1.640626.34375-.71875.96875-1.109374.640624-.40625 1.515624-.40625 1.0625 0 1.765626.640624.71875.625.765624 1.65625h-1.03125q-.046874-.625-.46875-1.015624-.421874-.390626-1.03125-.390626-.828124 0-1.28125.59375-.453124.59375-.453124 1.71875v.203126q0 1.09375.453124 1.6875.453126.59375 1.28125.59375zm5.234376-2.171876-.6875.703126v2.234374h-1.078126v-9h1.078126v5.4375l.578124-.6875 1.984376-2.09375h1.3125l-2.46875 2.65625 2.765624 3.6875h-1.28125zm6.859374 3.0625q-1.296874 0-2.109374-.84375-.796876-.859374-.796876-2.28125v-.1875q0-.953124.359376-1.6875.359374-.75 1-1.15625.65625-.421874 1.40625-.421874 1.234374 0 1.921874.8125.6875.8125.6875 2.328124v.453126h-4.296874q.03125.9375.546874 1.515624.53125.578126 1.34375.578126.5625 0 .953126-.234376.40625-.234374.71875-.625l.65625.515626q-.796876 1.234374-2.390626 1.234374zm-.140624-5.6875q-.65625 0-1.109376.484376-.4375.46875-.53125 1.328124h3.171876v-.078124q-.046876-.828126-.453126-1.28125-.390624-.453126-1.078124-.453126zm3.25 2.34375q0-1.46875.6875-2.34375.6875-.890624 1.8125-.890624 1.109374 0 1.765624.75v-3.296876h1.078126v9h-1l-.046876-.6875q-.65625.8125-1.8125.8125-1.09375 0-1.796874-.90625-.6875-.90625-.6875-2.359374zm1.078124.125q0 1.078126.4375 1.6875.453126.609376 1.234376.609376 1.03125 0 1.515624-.9375v-2.90625q-.484374-.890626-1.5-.890626-.796874 0-1.25.609376-.4375.609374-.4375 1.828124zm6.343756 3.09375v-8.53125h2.42187q1.10938 0 1.95313.5.85937.484376 1.32812 1.390626.46875.90625.46875 2.09375v.53125q0 1.21875-.46875 2.125-.45312.90625-1.32812 1.390624-.85938.484376-2 .5zm1.125-7.609374v6.6875h1.1875q1.29687 0 2.01562-.796876.73438-.8125.73438-2.3125v-.5q0-1.453124-.6875-2.25-.67188-.8125-1.9375-.828124zm6.42187 4.375q0-.921876.35938-1.671876.375-.75 1.03125-1.140624.65625-.40625 1.48437-.40625 1.29688 0 2.09375.890624.8125.890626.8125 2.390626v.078124q0 .921876-.35937 1.65625-.35938.734376-1.01563 1.15625-.65625.40625-1.51562.40625-1.28125 0-2.09375-.890624-.79688-.90625-.79688-2.390626zm1.09375.140624q0 1.046876.48438 1.6875.5.640626 1.3125.640626.82812 0 1.3125-.640626.48437-.65625.48437-1.828124 0-1.03125-.5-1.671876-.48437-.65625-1.3125-.65625-.79687 0-1.29687.640626-.48438.625-.48438 1.828124zm10.10938 2.46875q-.625.75-1.85938.75-1.01562 0-1.54687-.59375-.53125-.59375-.53125-1.75v-4.125h1.07812v4.09375q0 1.453126 1.17188 1.453126 1.25 0 1.65625-.9375v-4.609376h1.09375v6.34375h-1.03125zm8.45312-2.46875q0 1.453126-.67187 2.34375-.65625.875-1.78125.875-1.20313 0-1.85938-.859374l-.0625.734374h-.98437v-9h1.07812v3.359376q.65625-.8125 1.8125-.8125 1.15625 0 1.8125.875.65625.859374.65625 2.390624zm-1.07812-.125q0-1.109374-.4375-1.703124-.42188-.609376-1.21875-.609376-1.07813 0-1.54688.984376v2.75q.5 1 1.54688 1 .78125 0 1.21875-.609376.4375-.609374.4375-1.8125zm3.89062 3.21875h-1.07812v-9h1.07812zm4.45313.125q-1.29688 0-2.10938-.84375-.79687-.859374-.79687-2.28125v-.1875q0-.953124.35937-1.6875.35938-.75 1-1.15625.65625-.421874 1.40625-.421874 1.23438 0 1.92188.8125.6875.8125.6875 2.328124v.453126h-4.29688q.03125.9375.54688 1.515624.53125.578126 1.34375.578126.5625 0 .95312-.234376.40625-.234374.71875-.625l.65625.515626q-.79687 1.234374-2.39062 1.234374zm-.14063-5.6875q-.65625 0-1.10937.484376-.4375.46875-.53125 1.328124h3.17187v-.078124q-.04687-.828126-.45312-1.28125-.39063-.453126-1.07813-.453126z" fill="#000"/><path d="m20.659374 144.52553v3.34375h-1.125v-8.53125h3.15625q1.390626 0 2.1875.71875.796876.70312.796876 1.89062 0 1.23438-.78125 1.90625-.765626.67188-2.21875.67188zm0-.92188h2.03125q.90625 0 1.375-.42187.484376-.42188.484376-1.21875 0-.76563-.484376-1.21875-.46875-.46875-1.3125-.48438h-2.09375zm10.625 4.26563q-.09375-.1875-.15625-.67188-.75.79688-1.796874.79688-.9375 0-1.546876-.53125-.59375-.53125-.59375-1.35938 0-.98437.75-1.53125.75-.54687 2.125-.54687h1.046876v-.5q0-.5625-.34375-.89063-.328126-.34375-1-.34375-.578126 0-.96875.29688-.390626.28125-.390626.70312h-1.09375q0-.48437.328126-.92187.34375-.4375.921874-.6875.578126-.26563 1.265626-.26563 1.109374 0 1.71875.54688.625.54687.65625 1.5v2.92187q0 .875.21875 1.39063v.09375zm-1.796874-.82813q.515624 0 .96875-.26562.453124-.26563.65625-.6875v-1.29688h-.84375q-2 0-2 1.17188 0 .5.34375.79687.34375.28125.875.28125zm7.421874.0625q.578126 0 1.015626-.34375.4375-.35937.484374-.89062h1.03125q-.03125.54687-.390624 1.04687-.34375.48438-.921876.78125-.5625.29688-1.21875.29688-1.296874 0-2.0625-.85938-.75-.875-.75-2.375v-.1875q0-.92187.328126-1.64062.34375-.71875.96875-1.10938.640624-.40625 1.515624-.40625 1.0625 0 1.765626.64063.71875.625.765624 1.65625h-1.03125q-.046874-.625-.46875-1.01563-.421874-.39062-1.03125-.39062-.828124 0-1.28125.59375-.453124.59375-.453124 1.71875v.20312q0 1.09375.453124 1.6875.453126.59375 1.28125.59375zm5.234376-2.17187-.6875.70312v2.23438h-1.078126v-9h1.078126v5.4375l.578124-.6875 1.984376-2.09375h1.3125l-2.46875 2.65625 2.765624 3.6875h-1.28125zm6.859374 3.0625q-1.296874 0-2.109374-.84375-.796876-.85938-.796876-2.28125v-.1875q0-.95313.359376-1.6875.359374-.75 1-1.15625.65625-.42188 1.40625-.42188 1.234374 0 1.921874.8125.6875.8125.6875 2.32813v.45312h-4.296874q.03125.9375.546874 1.51563.53125.57812 1.34375.57812.5625 0 .953126-.23437.40625-.23438.71875-.625l.65625.51562q-.796876 1.23438-2.390626 1.23438zm-.140624-5.6875q-.65625 0-1.109376.48437-.4375.46875-.53125 1.32813h3.171876v-.07813q-.046876-.82812-.453126-1.28125-.390624-.45312-1.078124-.45312zm3.25 2.34375q0-1.46875.6875-2.34375.6875-.89063 1.8125-.89063 1.109374 0 1.765624.75v-3.29687h1.078126v9h-1l-.046876-.6875q-.65625.8125-1.8125.8125-1.09375 0-1.796874-.90625-.6875-.90625-.6875-2.35938zm1.078124.125q0 1.07812.4375 1.6875.453126.60937 1.234376.60937 1.03125 0 1.515624-.9375v-2.90625q-.484374-.89062-1.5-.89062-.796874 0-1.25.60937-.4375.60938-.4375 1.82813zm11.171876-.84375h-3.703126v3.01562h4.296876v.92188h-5.421876v-8.53125h5.375006v.92187h-4.250006v2.75h3.703126zm3.1875 3.9375h-1.07812v-9h1.07812zm4.45313.125q-1.29688 0-2.10938-.84375-.79687-.85938-.79687-2.28125v-.1875q0-.95313.35937-1.6875.35938-.75 1-1.15625.65625-.42188 1.40625-.42188 1.23438 0 1.92188.8125.6875.8125.6875 2.32813v.45312h-4.29688q.03125.9375.54688 1.51563.53125.57812 1.34375.57812.5625 0 .95312-.23437.40625-.23438.71875-.625l.65625.51562q-.79687 1.23438-2.39062 1.23438zm-.14063-5.6875q-.65625 0-1.10937.48437-.4375.46875-.53125 1.32813h3.17187v-.07813q-.04687-.82812-.45312-1.28125-.39063-.45312-1.07813-.45312zm4.53125-.78125.03125.70312q.6875-.8125 1.875-.8125 1.32813 0 1.8125 1.01563.3125-.45313.8125-.73438.51563-.28125 1.20313-.28125 2.09375 0 2.125 2.20313v4.25h-1.07813v-4.1875q0-.67188-.3125-1-.3125-.34375-1.04687-.34375-.60938 0-1.01563.35937-.39062.35938-.45312.96875v4.20313h-1.07813v-4.15625q0-1.375-1.35937-1.375-1.0625 0-1.45313.90625v4.625h-1.09375v-6.34375zm12.60938 6.46875q-1.29688 0-2.10938-.84375-.79687-.85938-.79687-2.28125v-.1875q0-.95313.35937-1.6875.35938-.75 1-1.15625.65625-.42188 1.40625-.42188 1.23438 0 1.92188.8125.6875.8125.6875 2.32813v.45312h-4.29688q.03125.9375.54688 1.51563.53125.57812 1.34375.57812.5625 0 .95312-.23437.40625-.23438.71875-.625l.65625.51562q-.79687 1.23438-2.39062 1.23438zm-.14063-5.6875q-.65625 0-1.10937.48437-.4375.46875-.53125 1.32813h3.17187v-.07813q-.04687-.82812-.45312-1.28125-.39063-.45312-1.07813-.45312zm4.53125-.78125.03125.79687q.73438-.90625 1.90625-.90625 2.01563 0 2.03125 2.26563v4.1875h-1.09375v-4.20313q0-.67187-.3125-1-.29687-.32812-.95312-.32812-.53125 0-.9375.28125-.39063.28125-.60938.73437v4.51563h-1.07812v-6.34375zm7.45313-1.53125v1.53125h1.17187v.84375h-1.17187v3.92187q0 .39063.15625.57813.15625.1875.53125.1875.1875 0 .51562-.0625v.875q-.42187.125-.82812.125-.71875 0-1.09375-.4375-.375-.45313-.375-1.26563v-3.92187h-1.15625v-.84375h1.15625v-1.53125z" fill="#000"/><path d="m58.096874 181.68333h-1.125v-3.9375h-4.3125v3.9375h-1.125v-8.53125h1.125v3.67188h4.3125v-3.67188h1.125zm1.984376-3.23437q0-.92188.359374-1.67188.375-.75 1.03125-1.14062.65625-.40625 1.484376-.40625 1.29688 0 2.09375.89062.8125.89063.8125 2.39063v.07812q0 .92188-.35937 1.65625-.35938.73438-1.01563 1.15625-.65625.40625-1.515626.40625-1.28125 0-2.09375-.89062-.796874-.90625-.796874-2.39063zm1.09375.14062q0 1.04688.484374 1.6875.5.64063 1.3125.64063.828126 0 1.312506-.64063.48437-.65625.48437-1.82812 0-1.03125-.5-1.67188-.484376-.65625-1.3125-.65625-.796876 0-1.296876.64063-.484374.625-.484374 1.82812zm7.375 3.09375h-1.07812v-9h1.07812zm4.45313.125q-1.29688 0-2.10938-.84375-.79687-.85937-.79687-2.28125v-.1875q0-.95312.35937-1.6875.35938-.75 1-1.15625.65625-.42187 1.40625-.42187 1.23438 0 1.92188.8125.6875.8125.6875 2.32812v.45313h-4.29688q.03125.9375.54688 1.51562.53125.57813 1.34375.57813.5625 0 .95312-.23438.40625-.23437.71875-.625l.65625.51563q-.79687 1.23437-2.39062 1.23437zm-.14063-5.6875q-.65625 0-1.10937.48438-.4375.46875-.53125 1.32812h3.17187v-.07812q-.04687-.82813-.45312-1.28125-.39063-.45313-1.07813-.45313zm5.57813 3.96875 1.48437-4.75h1.15625l-2.54687 7.32813q-.59375 1.57812-1.875 1.57812l-.21875-.01562-.39063-.07813v-.875l.28125.01563q.5625 0 .85938-.21875.3125-.21875.51562-.8125l.23438-.65625-2.26563-6.26563h1.1875zm6.60937-2.20312q-1.4375-.42188-2.10937-1.03125-.65625-.60938-.65625-1.5 0-1 .79687-1.65625.8125-.67188 2.10938-.67188.875 0 1.5625.34375.6875.34375 1.0625.9375.39062.59375.39062 1.3125h-1.14062q0-.78125-.5-1.21875-.48438-.4375-1.375-.4375-.82813 0-1.29688.375-.46875.35938-.46875 1 0 .53125.4375.89063.45313.35937 1.51563.65625 1.0625.29687 1.65625.65625.60937.35937.89062.84375.29688.48437.29688 1.125 0 1.04687-.8125 1.67187-.8125.625-2.15625.625-.89063 0-1.65625-.34375-.75-.34375-1.17188-.92187-.40625-.59375-.40625-1.32813h1.125q0 .76563.57813 1.21875.57812.45313 1.53125.45313.89062 0 1.35937-.35938.46875-.375.46875-1 0-.625-.4375-.96875-.4375-.34375-1.59375-.67187zm5.34375-2.54688.03125.70313q.6875-.8125 1.875-.8125 1.32813 0 1.8125 1.01562.3125-.45312.8125-.73437.51563-.28125 1.20313-.28125 2.09375 0 2.125 2.20312v4.25h-1.07813v-4.1875q0-.67187-.3125-1-.3125-.34375-1.04687-.34375-.60938 0-1.01563.35938-.39062.35937-.45312.96875v4.20312h-1.07813v-4.15625q0-1.375-1.35937-1.375-1.0625 0-1.45313.90625v4.625h-1.09375v-6.34375zm11.15625 6.34375h-1.07812v-6.34375h1.07812zm-1.17187-8.01562q0-.26563.15625-.45313.17187-.1875.48437-.1875.3125 0 .46875.1875.17188.1875.17188.45313 0 .25-.17188.4375-.15625.17187-.46875.17187-.3125 0-.48437-.17187-.15625-.1875-.15625-.4375z" fill="#000"/><path d="m41.096874 215.49739h-1.125v-3.9375h-4.3125v3.9375h-1.125v-8.53125h1.125v3.67188h4.3125v-3.67188h1.125zm1.984376-3.23437q0-.92188.359374-1.67188.375-.75 1.03125-1.14062.65625-.40625 1.484376-.40625 1.296874 0 2.09375.89062.8125.89063.8125 2.39063v.07812q0 .92188-.359376 1.65625-.359374.73438-1.015624 1.15625-.65625.40625-1.515626.40625-1.28125 0-2.09375-.89062-.796874-.90625-.796874-2.39063zm1.09375.14062q0 1.04688.484374 1.6875.5.64063 1.3125.64063.828126 0 1.3125-.64063.484376-.65625.484376-1.82812 0-1.03125-.5-1.67188-.484376-.65625-1.3125-.65625-.796876 0-1.296876.64063-.484374.625-.484374 1.82812zm7.375 3.09375h-1.078126v-9h1.078126zm4.453124.125q-1.296874 0-2.109374-.84375-.796876-.85937-.796876-2.28125v-.1875q0-.95312.359376-1.6875.359374-.75 1-1.15625.65625-.42187 1.40625-.42187 1.234374 0 1.921874.8125.6875.8125.6875 2.32812v.45313h-4.296874q.03125.9375.546874 1.51562.53125.57813 1.34375.57813.5625 0 .953126-.23438.40625-.23437.71875-.625l.65625.51563q-.796876 1.23437-2.390626 1.23437zm-.140624-5.6875q-.65625 0-1.109376.48438-.4375.46875-.53125 1.32812h3.171876v-.07812q-.046876-.82813-.453126-1.28125-.390624-.45313-1.078124-.45313zm5.578124 3.96875 1.484376-4.75h1.15625l-2.546876 7.32813q-.59375 1.57812-1.875 1.57812l-.21875-.01562-.390624-.07813v-.875l.28125.01563q.5625 0 .859374-.21875.3125-.21875.515626-.8125l.234374-.65625-2.265624-6.26563h1.1875zm4.093756 1.59375v-8.53125h2.42187q1.10938 0 1.95313.5.85937.48438 1.32812 1.39063.46875.90625.46875 2.09375v.53125q0 1.21875-.46875 2.125-.45312.90625-1.32812 1.39062-.85938.48438-2 .5zm1.125-7.60937v6.6875h1.1875q1.29687 0 2.01562-.79688.73438-.8125.73438-2.3125v-.5q0-1.45312-.6875-2.25-.67188-.8125-1.9375-.82812zm6.42187 4.375q0-.92188.35938-1.67188.375-.75 1.03125-1.14062.65625-.40625 1.48437-.40625 1.29688 0 2.09375.89062.8125.89063.8125 2.39063v.07812q0 .92188-.35937 1.65625-.35938.73438-1.01563 1.15625-.65625.40625-1.51562.40625-1.28125 0-2.09375-.89062-.79688-.90625-.79688-2.39063zm1.09375.14062q0 1.04688.48438 1.6875.5.64063 1.3125.64063.82812 0 1.3125-.64063.48437-.65625.48437-1.82812 0-1.03125-.5-1.67188-.48437-.65625-1.3125-.65625-.79687 0-1.29687.64063-.48438.625-.48438 1.82812zm10.10938 2.46875q-.625.75-1.85938.75-1.01562 0-1.54687-.59375-.53125-.59375-.53125-1.75v-4.125h1.07812v4.09375q0 1.45313 1.17188 1.45313 1.25 0 1.65625-.9375v-4.60938h1.09375v6.34375h-1.03125zm8.45312-2.46875q0 1.45313-.67187 2.34375-.65625.875-1.78125.875-1.20313 0-1.85938-.85937l-.0625.73437h-.98437v-9h1.07812v3.35938q.65625-.8125 1.8125-.8125 1.15625 0 1.8125.875.65625.85937.65625 2.39062zm-1.07812-.125q0-1.10937-.4375-1.70312-.42188-.60938-1.21875-.60938-1.07813 0-1.54688.98438v2.75q.5 1 1.54688 1 .78125 0 1.21875-.60938.4375-.60937.4375-1.8125zm3.89062 3.21875h-1.07812v-9h1.07812zm4.45313.125q-1.29688 0-2.10938-.84375-.79687-.85937-.79687-2.28125v-.1875q0-.95312.35937-1.6875.35938-.75 1-1.15625.65625-.42187 1.40625-.42187 1.23438 0 1.92188.8125.6875.8125.6875 2.32812v.45313h-4.29688q.03125.9375.54688 1.51562.53125.57813 1.34375.57813.5625 0 .95312-.23438.40625-.23437.71875-.625l.65625.51563q-.79687 1.23437-2.39062 1.23437zm-.14063-5.6875q-.65625 0-1.10937.48438-.4375.46875-.53125 1.32812h3.17187v-.07812q-.04687-.82813-.45312-1.28125-.39063-.45313-1.07813-.45313z" fill="#000"/><path d="m35.096874 249.31145h-1.125v-3.9375h-4.3125v3.9375h-1.125v-8.53125h1.125v3.67187h4.3125v-3.67187h1.125zm1.984376-3.23438q0-.92187.359374-1.67187.375-.75 1.03125-1.14063.65625-.40625 1.484376-.40625 1.296874 0 2.09375.89063.8125.89062.8125 2.39062v.07813q0 .92187-.359376 1.65625-.359374.73437-1.015624 1.15625-.65625.40625-1.515626.40625-1.28125 0-2.09375-.89063-.796874-.90625-.796874-2.39062zm1.09375.14063q0 1.04687.484374 1.6875.5.64062 1.3125.64062.828126 0 1.3125-.64062.484376-.65625.484376-1.82813 0-1.03125-.5-1.67187-.484376-.65625-1.3125-.65625-.796876 0-1.296876.64062-.484374.625-.484374 1.82813zm7.375 3.09375h-1.078126v-9h1.078126zm4.453124.125q-1.296874 0-2.109374-.84375-.796876-.85938-.796876-2.28125v-.1875q0-.95313.359376-1.6875.359374-.75 1-1.15625.65625-.42188 1.40625-.42188 1.234374 0 1.921874.8125.6875.8125.6875 2.32813v.45312h-4.296874q.03125.9375.546874 1.51563.53125.57812 1.34375.57812.5625 0 .953126-.23437.40625-.23438.71875-.625l.65625.51562q-.796876 1.23438-2.390626 1.23438zm-.140624-5.6875q-.65625 0-1.109376.48437-.4375.46875-.53125 1.32813h3.171876v-.07813q-.046876-.82812-.453126-1.28125-.390624-.45312-1.078124-.45312zm5.578124 3.96875 1.484376-4.75h1.15625l-2.546876 7.32812q-.59375 1.57813-1.875 1.57813l-.21875-.01563-.390624-.07812v-.875l.28125.01562q.5625 0 .859374-.21875.3125-.21875.515626-.8125l.234374-.65625-2.265624-6.26562h1.1875zm8.921876-2.34375h-3.703126v3.01562h4.296876v.92188h-5.421876v-8.53125h5.375006v.92187h-4.250006v2.75h3.703126zm3.1875 3.9375h-1.07812v-9h1.07812zm4.45313.125q-1.29688 0-2.10938-.84375-.79687-.85938-.79687-2.28125v-.1875q0-.95313.35937-1.6875.35938-.75 1-1.15625.65625-.42188 1.40625-.42188 1.23438 0 1.92188.8125.6875.8125.6875 2.32813v.45312h-4.29688q.03125.9375.54688 1.51563.53125.57812 1.34375.57812.5625 0 .95312-.23437.40625-.23438.71875-.625l.65625.51562q-.79687 1.23438-2.39062 1.23438zm-.14063-5.6875q-.65625 0-1.10937.48437-.4375.46875-.53125 1.32813h3.17187v-.07813q-.04687-.82812-.45312-1.28125-.39063-.45312-1.07813-.45312zm4.53125-.78125.03125.70312q.6875-.8125 1.875-.8125 1.32813 0 1.8125 1.01563.3125-.45313.8125-.73438.51563-.28125 1.20313-.28125 2.09375 0 2.125 2.20313v4.25h-1.07813v-4.1875q0-.67188-.3125-1-.3125-.34375-1.04687-.34375-.60938 0-1.01563.35937-.39062.35938-.45312.96875v4.20313h-1.07813v-4.15625q0-1.375-1.35937-1.375-1.0625 0-1.45313.90625v4.625h-1.09375v-6.34375zm12.60938 6.46875q-1.29688 0-2.10938-.84375-.79687-.85938-.79687-2.28125v-.1875q0-.95313.35937-1.6875.35938-.75 1-1.15625.65625-.42188 1.40625-.42188 1.23438 0 1.92188.8125.6875.8125.6875 2.32813v.45312h-4.29688q.03125.9375.54688 1.51563.53125.57812 1.34375.57812.5625 0 .95312-.23437.40625-.23438.71875-.625l.65625.51562q-.79687 1.23438-2.39062 1.23438zm-.14063-5.6875q-.65625 0-1.10937.48437-.4375.46875-.53125 1.32813h3.17187v-.07813q-.04687-.82812-.45312-1.28125-.39063-.45312-1.07813-.45312zm4.53125-.78125.03125.79687q.73438-.90625 1.90625-.90625 2.01563 0 2.03125 2.26563v4.1875h-1.09375v-4.20313q0-.67187-.3125-1-.29687-.32812-.95312-.32812-.53125 0-.9375.28125-.39063.28125-.60938.73437v4.51563h-1.07812v-6.34375zm7.45313-1.53125v1.53125h1.17187v.84375h-1.17187v3.92187q0 .39063.15625.57813.15625.1875.53125.1875.1875 0 .51562-.0625v.875q-.42187.125-.82812.125-.71875 0-1.09375-.4375-.375-.45313-.375-1.26563v-3.92187h-1.15625v-.84375h1.15625v-1.53125z" fill="#000"/><path d="m48.534374 283.12552v-8.53125h2.421876q1.109374 0 1.953124.5.859376.48437 1.328126 1.39063.46875.90624.46875 2.09374v.53126q0 1.21874-.46875 2.125-.453126.90624-1.328126 1.39062-.859374.48438-2 .5zm1.125-7.60938v6.6875h1.1875q1.296876 0 2.015626-.79687.734374-.8125.734374-2.3125v-.5q0-1.45313-.6875-2.25-.671874-.8125-1.9375-.82813zm7.890626 7.60938h-1.078126v-6.34375h1.078126zm-1.171876-8.01562q0-.26563.15625-.45313.171876-.1875.484376-.1875.3125 0 .46875.1875.171874.1875.171874.45313 0 .25-.171874.4375-.15625.17187-.46875.17187-.3125 0-.484376-.17187-.15625-.1875-.15625-.4375zm5.53125 7.25q.578126 0 1.015626-.34376.4375-.35937.484374-.89062h1.031256q-.03125.54688-.39063 1.04688-.34375.48437-.921876.78124-.5625.29688-1.21875.29688-1.296874 0-2.0625-.85938-.75-.875-.75-2.375v-.1875q0-.92187.328126-1.64062.34375-.71875.96875-1.10938.640624-.40624 1.515624-.40624 1.0625 0 1.765626.64062.71875.625.76563 1.65625h-1.031256q-.046874-.625-.46875-1.01563-.421874-.39062-1.03125-.39062-.828124 0-1.28125.59375-.453124.59375-.453124 1.71875v.20312q0 1.09376.453124 1.6875.453126.59376 1.28125.59376zm4.937506-7.10938v1.53125h1.17187v.84375h-1.17187v3.92188q0 .39062.15625.57812.15625.1875.53125.1875.1875 0 .51562-.0625v.875q-.42187.125-.82812.125-.71875 0-1.09375-.4375-.375-.45312-.375-1.26562v-3.92188h-1.15625v-.84375h1.15625v-1.53125zm3.70312 7.875h-1.07812v-6.34375h1.07812zm-1.17187-8.01562q0-.26563.15625-.45313.17187-.1875.48437-.1875.3125 0 .46875.1875.17188.1875.17188.45313 0 .25-.17188.4375-.15625.17187-.46875.17187-.3125 0-.48437-.17187-.15625-.1875-.15625-.4375zm2.70312 4.78124q0-.92187.35938-1.67187.375-.75 1.03125-1.14063.65625-.40624 1.48437-.40624 1.29688 0 2.09375.89062.8125.89062.8125 2.39062v.07813q0 .92187-.35937 1.65625-.35938.73438-1.01563 1.15625-.65625.40625-1.51562.40625-1.28125 0-2.09375-.89062-.79688-.90626-.79688-2.39063zm1.09375.14063q0 1.04687.48438 1.6875.5.64063 1.3125.64063.82812 0 1.3125-.64063.48437-.65625.48437-1.82813 0-1.03124-.5-1.67187-.48437-.65625-1.3125-.65625-.79687 0-1.29687.64062-.48438.625-.48438 1.82813zm7.21875-3.25.03125.79687q.73438-.90624 1.90625-.90624 2.01563 0 2.03125 2.26562v4.1875h-1.09375v-4.20312q0-.67188-.3125-1-.29687-.32813-.95312-.32813-.53125 0-.9375.28125-.39063.28125-.60938.73438v4.51562h-1.07812v-6.34375zm9.89063 6.34375q-.09375-.1875-.15625-.67188-.75.79688-1.79688.79688-.9375 0-1.54687-.53125-.59375-.53125-.59375-1.35937 0-.98438.75-1.53126.75-.54687 2.125-.54687h1.04687v-.5q0-.5625-.34375-.89063-.32812-.34374-1-.34374-.57812 0-.96875.29687-.39062.28125-.39062.70313h-1.09375q0-.48438.32812-.92188.34375-.4375.92188-.6875.57812-.26562 1.26562-.26562 1.10938 0 1.71875.54687.625.54687.65625 1.5v2.92187q0 .875.21875 1.39063v.09375zm-1.79688-.82812q.51563 0 .96875-.26563.45313-.26563.65625-.6875v-1.29687h-.84375q-2 0-2 1.17187 0 .5.34375.79687.34375.28126.875.28126zm7.95313-4.54688q-.25-.03125-.53125-.03125-1.07813 0-1.45313.90625v4.5h-1.07812v-6.34375h1.04687l.01563.73437q.53125-.84374 1.51562-.84374.3125 0 .48438.07812zm3 3.78125 1.48437-4.75h1.15625l-2.54687 7.32813q-.59375 1.57812-1.875 1.57812l-.21875-.01562-.39063-.07813v-.875l.28125.01563q.5625 0 .85938-.21876.3125-.21874.51562-.8125l.23438-.65624-2.26563-6.26563h1.1875z" fill="#000"/><path d="m110.59688 313.41876q0 1.57814-.54688 2.35938-.53125.76562-1.6875.76562-1.14062 0-1.6875-.75-.54687-.75-.5625-2.25v-1.20312q0-1.57814.53125-2.32814.54688-.7656 1.70313-.7656 1.15625 0 1.6875.73436.54687.73438.5625 2.26564zm-.90625-1.23436q0-1.15626-.32813-1.6719-.3125-.53124-1.01562-.53124-.6875 0-1.01563.53124-.3125.51564-.3125 1.59376v1.45314q0 1.15624.32813 1.7031.34375.5469 1.01562.5469.67188 0 .98438-.51564.32812-.51562.34375-1.625z" fill="#b7b7b7"/><path d="m189.59528 316.45h-.90625v-6.0156l-1.82813.65624v-.8125l2.59375-.96874h.14063zm7.48437-3.03124q0 1.57814-.54687 2.35938-.53125.76562-1.6875.76562-1.14063 0-1.6875-.75-.54688-.75-.5625-2.25v-1.20312q0-1.57814.53125-2.32814.54687-.7656 1.70312-.7656 1.15625 0 1.6875.73436.54688.73438.5625 2.26564zm-.90625-1.23436q0-1.15626-.32812-1.6719-.3125-.53124-1.01563-.53124-.6875 0-1.01562.53124-.3125.51564-.3125 1.59376v1.45314q0 1.15624.32812 1.7031.34375.5469 1.01563.5469.67187 0 .98437-.51564.32813-.51562.34375-1.625z" fill="#b7b7b7"/><path d="m274.76556 316.45h-4.65626v-.65624l2.45314-2.73436q.54686-.6094.75-1 .21876-.39064.21876-.8125 0-.5469-.34376-.90626-.32814-.35938-.89064-.35938-.67186 0-1.04686.39064-.375.375-.375 1.0625h-.90624q0-.9844.625-1.57814.6406-.60936 1.7031-.60936.9844 0 1.5625.5156.57814.51564.57814 1.39064 0 1.04686-1.34374 2.5l-1.89064 2.0625h3.5625zm5.79688-3.03124q0 1.57814-.54688 2.35938-.53126.76562-1.6875.76562-1.14062 0-1.6875-.75-.54686-.75-.5625-2.25v-1.20312q0-1.57814.53124-2.32814.5469-.7656 1.70314-.7656 1.15626 0 1.6875.73436.54686.73438.5625 2.26564zm-.90624-1.23436q0-1.15626-.32814-1.6719-.3125-.53124-1.01562-.53124-.6875 0-1.01564.53124-.3125.51564-.3125 1.59376v1.45314q0 1.15624.32814 1.7031.34376.5469 1.01562.5469.67188 0 .98438-.51564.32812-.51562.34376-1.625z" fill="#b7b7b7"/><path d="m354.90457 312.45h.67188q.64062 0 1-.3281.375-.32814.375-.89064 0-1.25-1.25-1.25-.57813 0-.9375.34374-.34375.32814-.34375.875h-.90625q0-.84374.625-1.3906.625-.5625 1.5625-.5625 1.01562 0 1.57812.53124.57813.53126.57813 1.46876 0 .46874-.29688.90624-.29687.4375-.82812.65626.59375.17186.90625.60936.32812.42188.32812 1.04688 0 .95312-.625 1.51562-.625.5625-1.625.5625-1 0-1.64062-.53126-.625-.54686-.625-1.4375h.92187q0 .5625.35938.90626.35937.32814.98437.32814.65625 0 1-.34376.34375-.34374.34375-.98438 0-.60936-.39062-.9375-.375-.34376-1.09375-.34376h-.67188zm9.14063.96876q0 1.57814-.54688 2.35938-.53125.76562-1.6875.76562-1.14062 0-1.6875-.75-.54687-.75-.5625-2.25v-1.20312q0-1.57814.53125-2.32814.54688-.7656 1.70313-.7656 1.15625 0 1.6875.73436.54687.73438.5625 2.26564zm-.90625-1.23436q0-1.15626-.32813-1.6719-.3125-.53124-1.01562-.53124-.6875 0-1.01563.53124-.3125.51564-.3125 1.59376v1.45314q0 1.15624.32813 1.7031.34375.5469 1.01562.5469.67188 0 .98438-.51564.32812-.51562.34375-1.625z" fill="#b7b7b7"/><path d="m440.88736 314.0594h.98437v.73436h-.98437v1.65624h-.90626v-1.65624h-3.23437v-.53126l3.17187-4.92186h.96876zm-3.125 0h2.21874v-3.4844l-.10937.20314zm9.76562-.64064q0 1.57814-.54688 2.35938-.53124.76562-1.6875.76562-1.14062 0-1.6875-.75-.54687-.75-.5625-2.25v-1.20312q0-1.57814.53126-2.32814.54687-.7656 1.70312-.7656 1.15625 0 1.6875.73436.54688.73438.5625 2.26564zm-.90625-1.23436q0-1.15626-.32813-1.6719-.3125-.53124-1.01562-.53124-.6875 0-1.01562.53124-.3125.51564-.3125 1.59376v1.45314q0 1.15624.32812 1.7031.34375.5469 1.01562.5469.67188 0 .98438-.51564.32812-.51562.34375-1.625z" fill="#b7b7b7"/><path d="m462.45 54.916668c0-.552284.4477-1 1-1h10c.5523 0 1 .447716 1 1v9.999996c0 .552286-.4477 1-1 1h-10c-.5523 0-1-.447714-1-1z" fill="#4285f4"/><path d="m485.95 62.541668 2.2344-6.453125h1.125l-2.90626 7.828125h-.90624l-2.89064-7.828125h1.10938zm8.89064-4.40625q0 .59375-.3125 1.046875-.29688.453125-.82814.71875.6094.25.96876.765625.35938.5.35938 1.140625 0 1.015625-.6875 1.625-.6875.593757-1.79688.593757-1.14062 0-1.8125-.593757-.67186-.609375-.67186-1.625 0-.640625.34374-1.140625.34376-.515625.95312-.78125-.51562-.25-.82812-.703125-.29688-.46875-.29688-1.046875 0-.984375.625-1.5625.64064-.578125 1.6875-.578125 1.03124 0 1.65624.578125.64064.578125.64064 1.5625zm-.8125 3.65625q0-.65625-.42188-1.0625-.40626-.421875-1.07812-.421875-.67188 0-1.07814.40625-.40624.40625-.40624 1.078125 0 .65625.39064 1.046875.40624.375 1.10936.375.6875 0 1.07814-.375.40624-.390625.40624-1.046875zm-1.48438-4.984375q-.59376 0-.95312.359375-.35938.359375-.35938.984375 0 .59375.35938.96875.35936.359375.95312.359375.59374 0 .95314-.359375.35936-.375.35936-.96875 0-.59375-.375-.96875-.375-.375-.9375-.375zm12.21874.140625h-2.5156v6.96875h-1.03126v-6.96875h-2.5v-.859375h6.04686zm1.1719 4.015625q0-.859375.3281-1.53125.34376-.6875.9375-1.0625.6094-.375 1.375-.375 1.1875 0 1.9219.828125.73436.8125.73436 2.1875v.0625q0 .84375-.32812 1.53125-.32814.671875-.9375 1.046875-.59374.375007-1.375.375007-1.1875 0-1.92188-.812507-.73436-.828125-.73436-2.1875zm1 .109375q0 .96875.4531 1.5625.45314.578125 1.20314.578125.75 0 1.1875-.59375.45312-.59375.45312-1.65625 0-.96875-.45312-1.5625-.45314-.59375-1.20314-.59375-.73436 0-1.1875.59375-.4531.578125-.4531 1.671875zm8.0781-2.078125q-.23436-.03125-.48436-.03125-.98438 0-1.32814.828125v4.125h-1v-5.8125h.96876l.01564.671875q.48436-.78125 1.3906-.78125.28126 0 .4375.078125zm.95314 1.96875q0-1.375.625-2.171875.625-.796875 1.6875-.796875 1.03126 0 1.625.703125l.04686-.59375h.90626v8.046882h-.98436v-2.765632q-.6094.640632-1.6094.640632-1.04686 0-1.67186-.812507-.625-.828125-.625-2.1875zm.98436.109375q0 1 .4219 1.578125.42186.5625 1.1406.5625.89064 0 1.3594-.78125v-2.84375q-.4844-.78125-1.34376-.78125-.71874 0-1.15624.578125-.4219.578125-.4219 1.6875zm8.84376 2.265625q-.57812.687507-1.70312.687507-.9375 0-1.42188-.531257-.48436-.546875-.48436-1.609375v-3.78125h.98436v3.75q0 1.328125 1.07814 1.328125 1.1406 0 1.5156-.84375v-4.234375h1v5.8125h-.9531zm4.8125.687507q-1.17186 0-1.92186-.765632-.7344-.78125-.7344-2.09375v-.171875q0-.875.32814-1.546875.32812-.6875.92186-1.0625.59376-.390625 1.2969-.390625 1.125 0 1.75.75.6406.75.6406 2.140625v.40625h-3.9375q.01564.859375.4844 1.390625.48436.53125 1.23436.53125.53124 0 .89064-.21875.35936-.21875.6406-.5625l.6094.46875q-.7344 1.125007-2.20314 1.125007zm-.10936-5.218757q-.6094 0-1.01564.4375-.40626.4375-.5 1.234375h2.90624v-.078125q-.04686-.75-.42186-1.171875-.35938-.421875-.96874-.421875zm12.42186 1.609375h-5.375v-.8125h5.375zm9.84374-3.46875h-2.5156v6.96875h-1.03126v-6.96875h-2.5v-.859375h6.04686zm2.51564 6.96875h-.98438v-5.8125h.98438zm-1.07814-7.359375q0-.234375.14064-.390625.15626-.171875.45312-.171875.29688 0 .4375.171875.15624.15625.15624.40625 0 .234375-.15624.390625-.14062.15625-.4375.15625-.29686 0-.45312-.15625-.14064-.15625-.14064-.40625zm3.9375 1.546875.03126.640625q.64064-.75 1.71874-.75 1.21876 0 1.65626.9375.29688-.421875.75-.671875.46874-.265625 1.10938-.265625 1.90626 0 1.9375 2.03125v3.890625h-.98438v-3.828125q0-.625-.29686-.9375-.28126-.3125-.95314-.3125-.54686 0-.92186.328125-.3594.328125-.4219.890625v3.859375h-1v-3.8125q0-1.265625-1.23436-1.265625-.98438 0-1.34374.828125v4.25h-.9844v-5.8125zm12.45314 4.265625q0-.390625-.3125-.609375-.29688-.234375-1.0625-.390625-.75-.171875-1.1875-.390625-.4375-.21875-.65624-.53125-.21876-.3125-.21876-.75 0-.71875.60936-1.203125.6094-.5 1.5469-.5.98436 0 1.59374.515625.625.5.625 1.296875h-1q0-.40625-.34374-.703125-.34376-.296875-.875-.296875-.5469 0-.8594.25-.29686.234375-.29686.609375 0 .359375.28126.546875.28124.171875 1.03124.34375.75.171875 1.20312.40625.46874.21875.6875.546875.21874.328125.21874.796875 0 .78125-.625 1.25-.60936.468757-1.60936.468757-.70314 0-1.23438-.250007-.53126-.25-.84376-.6875-.29686-.4375-.29686-.953125h.98436q.03126.484375.40626.78125.375.296875.98438.296875.5625 0 .90626-.21875.34374-.234375.34374-.625zm2.34376-1.40625q0-.859375.3281-1.53125.34376-.6875.9375-1.0625.6094-.375 1.375-.375 1.1875 0 1.9219.828125.73436.8125.73436 2.1875v.0625q0 .84375-.32812 1.53125-.32814.671875-.9375 1.046875-.59374.375007-1.375.375007-1.1875 0-1.92188-.812507-.73436-.828125-.73436-2.1875zm1 .109375q0 .96875.4531 1.5625.45314.578125 1.20314.578125.75 0 1.1875-.59375.45312-.59375.45312-1.65625 0-.96875-.45312-1.5625-.45314-.59375-1.20314-.59375-.73436 0-1.1875.59375-.4531.578125-.4531 1.671875zm8.0781-2.078125q-.23436-.03125-.48436-.03125-.98438 0-1.32814.828125v4.125h-1v-5.8125h.96876l.01564.671875q.48436-.78125 1.3906-.78125.28126 0 .4375.078125zm2.53126-2.296875v1.40625h1.09374v.765625h-1.09374v3.609375q0 .34375.14064.53125.15624.171875.5.171875.17186 0 .48436-.078125v.8125q-.40626.109382-.76562.109382-.67188 0-1.01564-.406257-.3281-.40625-.3281-1.140625v-3.609375h-1.0625v-.765625h1.0625v-1.40625z" fill="#666"/><path d="m462.45 78.916664c0-.552284.4477-1 1-1h10c.5523 0 1 .447716 1 1v10c0 .552286-.4477 1-1 1h-10c-.5523 0-1-.447714-1-1z" fill="#1c4587"/><path d="m486.6375 80.08854h1.03126v5.546874q0 1.125-.67186 1.765626-.6719.625-1.7969.625-1.17186 0-1.8281-.59375-.64064-.59375-.64064-1.671876h1.03124q0 .671876.3594 1.046876.375.375 1.0781.375.64064 0 1.03126-.40625.39064-.40625.40624-1.125zm6.15626 7.828124q-.09376-.171874-.14062-.609374-.70314.71875-1.65624.71875-.8594 0-1.4219-.484376-.54686-.484374-.54686-1.234374 0-.90625.6875-1.40625.70312-.515626 1.95312-.515626h.96874v-.453124q0-.515626-.3125-.828126-.3125-.3125-.92186-.3125-.53124 0-.89064.28125-.35936.265626-.35936.640626h-1q0-.4375.3125-.84375.3125-.40625.82812-.640626.53124-.234374 1.17188-.234374 1 0 1.5625.5.57812.5.59376 1.390624v2.671876q0 .796874.2031 1.265624v.09375zm-1.65626-.75q.46876 0 .89064-.234374.42186-.25.60936-.640626v-1.1875h-.78124q-1.82812 0-1.82812 1.0625 0 .46875.3125.734376.3125.265624.79686.265624zm5.9844-.59375 1.4375-4.46875h1.0156l-2.0781 5.8125h-.76564l-2.10936-5.8125h1.0156zm6.67186 1.34375q-.09376-.171874-.14062-.609374-.70314.71875-1.65624.71875-.8594 0-1.4219-.484376-.54686-.484374-.54686-1.234374 0-.90625.6875-1.40625.70312-.515626 1.95312-.515626h.96874v-.453124q0-.515626-.3125-.828126-.3125-.3125-.92186-.3125-.53124 0-.89064.28125-.35936.265626-.35936.640626h-1q0-.4375.3125-.84375.3125-.40625.82812-.640626.53124-.234374 1.17188-.234374 1 0 1.5625.5.57812.5.59376 1.390624v2.671876q0 .796874.2031 1.265624v.09375zm-1.65626-.75q.46876 0 .89064-.234374.42186-.25.60936-.640626v-1.1875h-.78124q-1.82812 0-1.82812 1.0625 0 .46875.3125.734376.3125.265624.79686.265624zm6.53126-2.734374q-1.32812-.390626-1.9375-.9375-.60936-.5625-.60936-1.375 0-.921876.73436-1.515626.75-.609374 1.92188-.609374.8125 0 1.4375.3125.64062.296874.98436.859374.34376.546876.34376 1.1875h-1.03126q0-.703124-.4531-1.109374-.45314-.40625-1.28126-.40625-.75 0-1.1875.34375-.42188.328124-.42188.921874 0 .484376.40624.8125.40626.328126 1.375.609376.9844.265624 1.53126.59375.54688.328124.8125.78125.26564.4375.26564 1.03125 0 .953124-.75 1.53125-.7344.5625-1.96876.5625-.8125 0-1.51564-.3125-.6875-.3125-1.0625-.84375-.375-.53125-.375-1.21875h1.03126q0 .703124.51564 1.125.53124.40625 1.40624.40625.8125 0 1.25-.328126.4375-.34375.4375-.90625 0-.578124-.40624-.890624-.40626-.328126-1.45314-.625zm6.85938 2.78125q.53126 0 .92186-.3125.40626-.328126.45314-.8125h.9375q-.03124.5-.34374.953124-.3125.4375-.84376.71875-.53124.265626-1.125.265626-1.1875 0-1.89064-.796876-.6875-.796874-.6875-2.171874v-.15625q0-.859376.3125-1.515626.3125-.65625.89064-1.015624.57812-.375 1.375-.375.98436 0 1.625.59375.64062.578124.6875 1.515624h-.9375q-.04688-.5625-.4375-.921874-.375-.375-.9375-.375-.75 0-1.17188.546874-.42186.546876-.42186 1.578126v.1875q0 1.015624.40624 1.5625.42186.53125 1.1875.53125zm6.48436-4.21875q-.23436-.03125-.48436-.03125-.98438 0-1.32814.828124v4.125h-1v-5.8125h.96876l.01564.671876q.48436-.78125 1.3906-.78125.28126 0 .4375.078124zm2.26564 4.921874h-.98438v-5.8125h.98438zm-1.07814-7.359374q0-.234376.14064-.390626.15626-.171874.45312-.171874.29688 0 .4375.171874.15624.15625.15624.40625 0 .234376-.15624.390626-.14062.15625-.4375.15625-.29686 0-.45312-.15625-.14064-.15625-.14064-.40625zm7.90626 4.515624q0 1.328126-.60936 2.140626-.59376.8125-1.64064.8125-1.04686 0-1.65626-.671876v2.796876h-1v-8.046876h.90626l.04688.640626q.60936-.75 1.6875-.75 1.04686 0 1.65626.796874.60936.78125.60936 2.1875zm-.98436-.109374q0-.984376-.4219-1.546876-.42186-.578124-1.15624-.578124-.89062 0-1.34376.796874v2.78125q.4375.796876 1.3594.796876.71874 0 1.1406-.5625.4219-.578126.4219-1.6875zm3.42186-4.265626v1.40625h1.09374v.765626h-1.09374v3.609374q0 .34375.14064.53125.15624.171876.5.171876.17186 0 .48436-.078126v.8125q-.40626.109376-.76562.109376-.67188 0-1.01564-.40625-.3281-.40625-.3281-1.140626v-3.609374h-1.0625v-.765626h1.0625v-1.40625zm11.375 3.71875h-5.375v-.8125h5.375zm10.40624-.15625q0 1.125-.35936 1.953126-.35938.8125-1 1.28125l1.39062 1.09375-.70312.65625-1.64064-1.3125q-.3906.09375-.8281.09375-.9219 0-1.64064-.453126-.70312-.453124-1.10936-1.296874-.39064-.84375-.40626-1.953126v-.5625q0-1.125.39062-1.984374.40624-.875 1.10938-1.328126.71876-.453124 1.65626-.453124.9375 0 1.65624.453124.71876.453126 1.09376 1.3125.3906.859376.3906 2zm-1.03124-.5q0-1.390624-.54686-2.140624-.5469-.75-1.5625-.75-.9844 0-1.5469.75-.54686.75-.5781 2.0625v.578124q0 1.34375.5625 2.125.5625.765626 1.5625.765626 1 0 1.54686-.71875.54688-.734376.5625-2.09375zm6.5 3.578126q-.57812.6875-1.70312.6875-.9375 0-1.42188-.53125-.48436-.546876-.48436-1.609376v-3.78125h.98436v3.75q0 1.328126 1.07814 1.328126 1.1406 0 1.5156-.84375v-4.234376h1v5.8125h-.9531zm3.48438.578124h-.98438v-5.8125h.98438zm-1.07814-7.359374q0-.234376.14064-.390626.15626-.171874.45312-.171874.29688 0 .4375.171874.15624.15625.15624.40625 0 .234376-.15624.390626-.14062.15625-.4375.15625-.29686 0-.45312-.15625-.14064-.15625-.14064-.40625zm5.32814 6.65625q.53126 0 .92186-.3125.40626-.328126.45314-.8125h.9375q-.03124.5-.34374.953124-.3125.4375-.84376.71875-.53124.265626-1.125.265626-1.1875 0-1.89064-.796876-.6875-.796874-.6875-2.171874v-.15625q0-.859376.3125-1.515626.3125-.65625.89064-1.015624.57812-.375 1.375-.375.98436 0 1.625.59375.64062.578124.6875 1.515624h-.9375q-.04688-.5625-.4375-.921874-.375-.375-.9375-.375-.75 0-1.17188.546874-.42186.546876-.42186 1.578126v.1875q0 1.015624.40624 1.5625.42186.53125 1.1875.53125zm5.29686-1.984376-.625.640626v2.046874h-1v-8.25h1v4.984376l.53126-.640626 1.8125-1.90625h1.20314l-2.25 2.421876 2.5156 3.390624h-1.15624zm7.76564 1.140626q0-.390626-.3125-.609376-.29688-.234374-1.0625-.390624-.75-.171876-1.1875-.390626-.4375-.21875-.65624-.53125-.21876-.3125-.21876-.75 0-.71875.60936-1.203124.6094-.5 1.5469-.5.98436 0 1.59374.515624.625.5.625 1.296876h-1q0-.40625-.34374-.703126-.34376-.296874-.875-.296874-.5469 0-.8594.25-.29686.234374-.29686.609374 0 .359376.28126.546876.28124.171874 1.03124.34375.75.171874 1.20312.40625.46874.21875.6875.546874.21874.328126.21874.796876 0 .78125-.625 1.25-.60936.46875-1.60936.46875-.70314 0-1.23438-.25-.53126-.25-.84376-.6875-.29686-.4375-.29686-.953126h.98436q.03126.484376.40626.78125.375.296876.98438.296876.5625 0 .90626-.21875.34374-.234376.34374-.625zm2.34376-1.40625q0-.859376.3281-1.53125.34376-.6875.9375-1.0625.6094-.375 1.375-.375 1.1875 0 1.9219.828124.73436.8125.73436 2.1875v.0625q0 .84375-.32812 1.53125-.32814.671876-.9375 1.046876-.59374.375-1.375.375-1.1875 0-1.92188-.8125-.73436-.828126-.73436-2.1875zm1 .109374q0 .96875.4531 1.5625.45314.578126 1.20314.578126.75 0 1.1875-.59375.45312-.59375.45312-1.65625 0-.96875-.45312-1.5625-.45314-.59375-1.20314-.59375-.73436 0-1.1875.59375-.4531.578124-.4531 1.671874zm8.0781-2.078124q-.23436-.03125-.48436-.03125-.98438 0-1.32814.828124v4.125h-1v-5.8125h.96876l.01564.671876q.48436-.78125 1.3906-.78125.28126 0 .4375.078124zm2.53126-2.296876v1.40625h1.09374v.765626h-1.09374v3.609374q0 .34375.14064.53125.15624.171876.5.171876.17186 0 .48436-.078126v.8125q-.40626.109376-.76562.109376-.67188 0-1.01564-.40625-.3281-.40625-.3281-1.140626v-3.609374h-1.0625v-.765626h1.0625v-1.40625z" fill="#666"/><path d="m22.221874 22.753124 4.171876 10.4375 4.1875-10.4375h2.1875v12.796876h-1.6875v-4.984376l.15625-5.375-4.203126 10.359376h-1.28125l-4.203124-10.34375.171874 5.359374v4.984376h-1.6875v-12.796876zm15.328126 12.796876h-1.625v-9.515626h1.625zm-1.765626-12.03125q0-.390626.234376-.65625.25-.28125.71875-.28125.484374 0 .734374.28125.25.265624.25.65625 0 .390624-.25.65625-.25.265624-.734374.265624-.46875 0-.71875-.265624-.234376-.265626-.234376-.65625zm7.8125 10.875q.875 0 1.515626-.515626.65625-.53125.71875-1.328124h1.546874q-.046874.8125-.5625 1.5625-.515624.734374-1.390624 1.171874-.859376.4375-1.828126.4375-1.9375 0-3.09375-1.296874-1.140624-1.296876-1.140624-3.546876v-.265624q0-1.390626.5-2.46875.515624-1.078126 1.46875-1.671876.953124-.609374 2.25-.609374 1.609374 0 2.65625.96875 1.0625.953124 1.140624 2.484374h-1.546874q-.0625-.921874-.703126-1.515624-.625-.59375-1.546874-.59375-1.234376 0-1.921876.890624-.671874.890626-.671874 2.578126v.296874q0 1.65625.671874 2.546876.671876.875 1.9375.875zm9.78125-6.890626q-.375-.0625-.796874-.0625-1.609376 0-2.171876 1.359376v6.75h-1.625v-9.515626h1.578126l.03125 1.109376q.796874-1.28125 2.265624-1.28125.46875 0 .71875.125zm.96875 3.203126q0-1.390626.546876-2.5.5625-1.125 1.53125-1.734376.984374-.609374 2.234374-.609374 1.953126 0 3.140626 1.34375 1.203124 1.34375 1.203124 3.578124v.109376q0 1.390624-.53125 2.5-.53125 1.09375-1.515624 1.71875-.984376.609374-2.265626.609374-1.9375 0-3.140624-1.34375-1.203126-1.34375-1.203126-3.5625zm1.640626.1875q0 1.59375.734374 2.546874.734376.953126 1.96875.953126 1.234376 0 1.953126-.96875.734374-.96875.734374-2.71875 0-1.5625-.75-2.53125-.734374-.96875-1.96875-.96875-1.203124 0-1.9375.953124-.734374.953126-.734374 2.734376zm16.84375 0q0 2.1875-1 3.515624-1 1.3125-2.6875 1.3125-1.8125 0-2.79687-1.265624l-.07813 1.09375h-1.48437v-13.5h1.625v5.03125q.98437-1.21875 2.70312-1.21875 1.73438 0 2.71875 1.3125 1 1.3125 1 3.578124zm-1.625-.171876q0-1.671874-.64062-2.578124-.64063-.90625-1.84375-.90625-1.60938 0-2.3125 1.5v4.109374q.75 1.5 2.32812 1.5 1.17188 0 1.8125-.90625.65625-.90625.65625-2.71875zm7.51563 5q-1.92188 0-3.14063-1.265624-1.21875-1.265626-1.21875-3.390626v-.3125q0-1.40625.54688-2.515624.54687-1.109376 1.51562-1.734376.96875-.640624 2.09375-.640624 1.85938 0 2.89063 1.21875 1.03125 1.21875 1.03125 3.5v.671874h-6.45313q.04688 1.40625.82813 2.28125.78125.859376 2 .859376.85937 0 1.45312-.34375.60938-.359376 1.04688-.9375l1 .78125q-1.20313 1.828124-3.59375 1.828124zm-.20313-8.515624q-.98437 0-1.65625.71875-.65625.703124-.8125 2h4.76563v-.125q-.07813-1.234376-.67188-1.90625-.59375-.6875-1.625-.6875zm7.79688-1.171876.0625 1.203126q1.07812-1.375 2.84375-1.375 3.01562 0 3.03125 3.40625v6.28125h-1.625v-6.296876q0-1.03125-.46875-1.515624-.45313-.5-1.4375-.5-.78125 0-1.39063.421874-.59375.421876-.92187 1.109376v6.78125h-1.625v-9.515626zm12.28125 8.359376q.875 0 1.51562-.515626.65625-.53125.71875-1.328124h1.54688q-.04688.8125-.5625 1.5625-.51563.734374-1.39063 1.171874-.85937.4375-1.82812.4375-1.9375 0-3.09375-1.296874-1.14063-1.296876-1.14063-3.546876v-.265624q0-1.390626.5-2.46875.51563-1.078126 1.46875-1.671876.95313-.609374 2.25-.609374 1.60938 0 2.65625.96875 1.0625.953124 1.14063 2.484374h-1.54688q-.0625-.921874-.70312-1.515624-.625-.59375-1.54688-.59375-1.23437 0-1.92187.890624-.67188.890626-.67188 2.578126v.296874q0 1.65625.67188 2.546876.67187.875 1.9375.875zm6.8125-7.203126q1.07812-1.328124 2.8125-1.328124 3.01562 0 3.03125 3.40625v6.28125h-1.625v-6.296876q0-1.03125-.46875-1.515624-.45313-.5-1.4375-.5-.78125 0-1.39063.421874-.59375.421876-.92187 1.109376v6.78125h-1.625v-13.5h1.625zm9.90625-1.15625.03125 1.0625q1.04687-1.234374 2.82812-1.234374 2 0 2.71875 1.53125.46875-.6875 1.23438-1.109376.76562-.421874 1.79687-.421874 3.125 0 3.1875 3.3125v6.375h-1.64062v-6.28125q0-1.015626-.46875-1.515626-.45313-.515624-1.54688-.515624-.90625 0-1.51562.546874-.59375.546876-.6875 1.453126v6.3125h-1.64063v-6.234376q0-2.078124-2.03125-2.078124-1.59375 0-2.1875 1.375v6.9375h-1.625v-9.515626zm20.34375 9.515626q-.14063-.28125-.23438-1-1.14062 1.171874-2.70312 1.171874-1.40625 0-2.3125-.796874-.90625-.796876-.90625-2.015626 0-1.484374 1.125-2.296874 1.14062-.828126 3.1875-.828126h1.57812v-.75q0-.84375-.51562-1.34375-.5-.515624-1.5-.515624-.85938 0-1.45313.4375-.59375.4375-.59375 1.0625h-1.625q0-.703126.5-1.359376.5-.671874 1.35938-1.0625.875-.390624 1.92187-.390624 1.64063 0 2.5625.828124.9375.8125.96875 2.265626v4.375q0 1.296874.34375 2.078124v.140626zm-2.70313-1.234376q.76563 0 1.45313-.390624.6875-.40625.98437-1.03125v-1.953126h-1.26562q-3 0-3 1.75 0 .765626.51562 1.203126.51563.421874 1.3125.421874zm11.42188-6.8125q-.375-.0625-.79688-.0625-1.60937 0-2.17187 1.359376v6.75h-1.625v-9.515626h1.57812l.03125 1.109376q.79688-1.28125 2.26563-1.28125.46875 0 .71875.125zm4.0625 3.640626-1.03125 1.0625v3.34375h-1.625v-13.5h1.625v8.171874l.875-1.046874 2.96875-3.140626h1.96875l-3.70313 3.984376 4.14063 5.53125h-1.90625zm6.375 3.546874q0-.421874.25-.703124.25-.28125.75-.28125.5 0 .75.28125.26562.28125.26562.703124 0 .40625-.26562.6875-.25.265626-.75.265626-.5 0-.75-.265626-.25-.28125-.25-.6875zm0-8q0-.421874.25-.703124.25-.28125.75-.28125.5 0 .75.28125.26562.28125.26562.703124 0 .40625-.26562.6875-.25.265626-.75.265626-.5 0-.75-.265626-.25-.28125-.25-.6875zm12.90625 3.6875h-3v5.171876h-1.6875v-12.796876h4.23437q2.15625 0 3.3125.984376 1.17188.984374 1.17188 2.859374 0 1.203126-.65625 2.09375-.64063.875-1.78125 1.328126l3 5.421874v.109376h-1.8125zm-3-1.390624h2.59375q1.25 0 2-.640626.75-.65625.75-1.75 0-1.1875-.71875-1.8125-.70313-.640624-2.04688-.640624h-2.57812zm14.9375 6.5625q-.14063-.28125-.23438-1-1.14062 1.171874-2.70312 1.171874-1.40625 0-2.3125-.796874-.90625-.796876-.90625-2.015626 0-1.484374 1.125-2.296874 1.14062-.828126 3.1875-.828126h1.57812v-.75q0-.84375-.51562-1.34375-.5-.515624-1.5-.515624-.85938 0-1.45313.4375-.59375.4375-.59375 1.0625h-1.625q0-.703126.5-1.359376.5-.671874 1.35938-1.0625.875-.390624 1.92187-.390624 1.64063 0 2.5625.828124.9375.8125.96875 2.265626v4.375q0 1.296874.34375 2.078124v.140626zm-2.70313-1.234376q.76563 0 1.45313-.390624.6875-.40625.98437-1.03125v-1.953126h-1.26562q-3 0-3 1.75 0 .765626.51562 1.203126.51563.421874 1.3125.421874zm8.35938-8.28125.0625 1.203126q1.07812-1.375 2.84375-1.375 3.01562 0 3.03125 3.40625v6.28125h-1.625v-6.296876q0-1.03125-.46875-1.515624-.45313-.5-1.4375-.5-.78125 0-1.39063.421874-.59375.421876-.92187 1.109376v6.78125h-1.625v-9.515626zm8.0625 4.6875q0-2.1875 1.03125-3.515624 1.04687-1.34375 2.73437-1.34375 1.67188 0 2.64063 1.140624v-4.953124h1.625v13.5h-1.5l-.07813-1.015626q-.96875 1.1875-2.70312 1.1875-1.65625 0-2.70313-1.34375-1.04687-1.359374-1.04687-3.546874zm1.64062.171876q0 1.625.65625 2.546874.67188.90625 1.84375.90625 1.54688 0 2.26563-1.390624v-4.375q-.73438-1.34375-2.23438-1.34375-1.20312 0-1.875.9375-.65625.921874-.65625 2.71875zm8.32813-.1875q0-1.390626.54687-2.5.5625-1.125 1.53125-1.734376.98438-.609374 2.23438-.609374 1.95312 0 3.14062 1.34375 1.20313 1.34375 1.20313 3.578124v.109376q0 1.390624-.53125 2.5-.53125 1.09375-1.51563 1.71875-.98437.609374-2.26562.609374-1.9375 0-3.14063-1.34375-1.20312-1.34375-1.20312-3.5625zm1.64062.1875q0 1.59375.73438 2.546874.73437.953126 1.96875.953126 1.23437 0 1.95312-.96875.73438-.96875.73438-2.71875 0-1.5625-.75-2.53125-.73438-.96875-1.96875-.96875-1.20313 0-1.9375.953124-.73438.953126-.73438 2.734376zm10.32813-4.859376.03125 1.0625q1.04687-1.234374 2.82812-1.234374 2 0 2.71875 1.53125.46875-.6875 1.23438-1.109376.76562-.421874 1.79687-.421874 3.125 0 3.1875 3.3125v6.375h-1.64062v-6.28125q0-1.015626-.46875-1.515626-.45313-.515624-1.54688-.515624-.90625 0-1.51562.546874-.59375.546876-.6875 1.453126v6.3125h-1.64063v-6.234376q0-2.078124-2.03125-2.078124-1.59375 0-2.1875 1.375v6.9375h-1.625v-9.515626zm18.0625 4.6875q0-2.1875 1.03125-3.515624 1.04687-1.34375 2.73437-1.34375 1.67188 0 2.64063 1.140624v-4.953124h1.625v13.5h-1.5l-.07813-1.015626q-.96875 1.1875-2.70312 1.1875-1.65625 0-2.70313-1.34375-1.04687-1.359374-1.04687-3.546874zm1.64062.171876q0 1.625.65625 2.546874.67188.90625 1.84375.90625 1.54688 0 2.26563-1.390624v-4.375q-.73438-1.34375-2.23438-1.34375-1.20312 0-1.875.9375-.65625.921874-.65625 2.71875zm14.64063 4.65625q-.14063-.28125-.23438-1-1.14062 1.171874-2.70312 1.171874-1.40625 0-2.3125-.796874-.90625-.796876-.90625-2.015626 0-1.484374 1.125-2.296874 1.14062-.828126 3.1875-.828126h1.57812v-.75q0-.84375-.51562-1.34375-.5-.515624-1.5-.515624-.85938 0-1.45313.4375-.59375.4375-.59375 1.0625h-1.625q0-.703126.5-1.359376.5-.671874 1.35938-1.0625.875-.390624 1.92187-.390624 1.64063 0 2.5625.828124.9375.8125.96875 2.265626v4.375q0 1.296874.34375 2.078124v.140626zm-2.70313-1.234376q.76563 0 1.45313-.390624.6875-.40625.98437-1.03125v-1.953126h-1.26562q-3 0-3 1.75 0 .765626.51562 1.203126.51563.421874 1.3125.421874zm9.03125-10.578124v2.296874h1.78124v1.265626h-1.78124v5.890624q0 .578126.23436.859376.23438.28125.8125.28125.28124 0 .76564-.09375v1.3125q-.64064.171874-1.2344.171874-1.09372 0-1.65622-.65625-.54688-.65625-.54688-1.875v-5.890624h-1.73437v-1.265626h1.73437v-2.296874zm9.67186 11.8125q-.14062-.28125-.23436-1-1.14064 1.171874-2.70314 1.171874-1.40626 0-2.3125-.796874-.90626-.796876-.90626-2.015626 0-1.484374 1.125-2.296874 1.14064-.828126 3.1875-.828126h1.57814v-.75q0-.84375-.51564-1.34375-.5-.515624-1.5-.515624-.85936 0-1.4531.4375-.59376.4375-.59376 1.0625h-1.625q0-.703126.5-1.359376.5-.671874 1.35936-1.0625.875-.390624 1.9219-.390624 1.6406 0 2.5625.828124.9375.8125.96874 2.265626v4.375q0 1.296874.34376 2.078124v.140626zm-2.70312-1.234376q.76562 0 1.45312-.390624.6875-.40625.98438-1.03125v-1.953126h-1.26564q-3 0-3 1.75 0 .765626.51564 1.203126.51562.421874 1.3125.421874zm7.15626 2.328126h-1.40626l5.34376-13.890626h1.3906zm15.9375-13.890626v8.703126q-.01564 1.8125-1.14064 2.96875-1.125 1.140624-3.0625 1.28125l-.45312.015624q-2.09374 0-3.34374-1.125-1.25-1.140624-1.26564-3.125v-8.71875h1.67188v8.671876q0 1.375.76562 2.15625.76564.765624 2.17188.765624 1.4375 0 2.1875-.765624.76562-.765626.76562-2.15625v-8.671876zm8.2656 10.28125q0-.671874-.5-1.03125-.48436-.359374-1.71874-.625-1.23436-.265624-1.96876-.625-.71874-.375-1.0781-.890624-.34376-.515626-.34376-1.21875 0-1.15625.98436-1.96875 1-.8125 2.53126-.8125 1.625 0 2.625.84375 1.01564.828124 1.01564 2.125h-1.64064q0-.671876-.57812-1.140626-.5625-.484374-1.42188-.484374-.89062 0-1.39062.390624-.5.375-.5 1 0 .59375.46876.890626.46874.296874 1.6875.578124 1.21874.265626 1.96874.640626.76562.375 1.125.90625.35936.53125.35936 1.296874 0 1.28125-1.0156 2.046876-1.01564.765624-2.64064.765624-1.14062 0-2.03126-.40625-.875-.40625-1.375-1.125-.5-.71875-.5-1.5625h1.64064q.03126.8125.64062 1.296876.625.46875 1.625.46875.92188 0 1.46874-.375.5625-.375.5625-.984376zm7.40626 2.6875q-1.92186 0-3.14062-1.265624-1.21874-1.265626-1.21874-3.390626v-.3125q0-1.40625.54686-2.515624.54688-1.109376 1.51564-1.734376.96874-.640624 2.09374-.640624 1.85936 0 2.89062 1.21875 1.03124 1.21875 1.03124 3.5v.671874h-6.4531q.04686 1.40625.8281 2.28125.78126.859376 2 .859376.8594 0 1.45314-.34375.60936-.359376 1.04686-.9375l1 .78125q-1.2031 1.828124-3.59374 1.828124zm-.20312-8.515624q-.98438 0-1.65624.71875-.65626.703124-.8125 2h4.7656v-.125q-.0781-1.234376-.67186-1.90625-.59374-.6875-1.625-.6875zm10.85936.296874q-.375-.0625-.79686-.0625-1.60938 0-2.17188 1.359376v6.75h-1.625v-9.515626h1.57814l.03124 1.109376q.79686-1.28125 2.26562-1.28125.46874 0 .71874.125zm9.21876 6.890626q.875 0 1.51564-.515626.65624-.53125.71874-1.328124h1.54686q-.04686.8125-.5625 1.5625-.5156.734374-1.3906 1.171874-.8594.4375-1.82814.4375-1.9375 0-3.09376-1.296874-1.1406-1.296876-1.1406-3.546876v-.265624q0-1.390626.5-2.46875.5156-1.078126 1.46874-1.671876.95312-.609374 2.25-.609374 1.60936 0 2.65626.96875 1.0625.953124 1.1406 2.484374h-1.54686q-.0625-.921874-.70314-1.515624-.625-.59375-1.54686-.59375-1.23438 0-1.92188.890624-.67186.890626-.67186 2.578126v.296874q0 1.65625.67186 2.546876.67188.875 1.9375.875zm6.71874-8.359376.03126 1.0625q1.04688-1.234374 2.82814-1.234374 2 0 2.71874 1.53125.46876-.6875 1.23436-1.109376.76564-.421874 1.7969-.421874 3.125 0 3.1875 3.3125v6.375h-1.64064v-6.28125q0-1.015626-.46876-1.515626-.4531-.515624-1.54686-.515624-.90624 0-1.51564.546874-.59374.546876-.6875 1.453126v6.3125h-1.6406v-6.234376q0-2.078124-2.03126-2.078124-1.59374 0-2.1875 1.375v6.9375h-1.625v-9.515626zm22.5 4.859376q0 2.171874-1 3.5-.98436 1.328124-2.6875 1.328124-1.73436 0-2.71874-1.09375v4.578126h-1.625v-13.171876h1.48438l.07812 1.0625q.98438-1.234374 2.76564-1.234374 1.7031 0 2.7031 1.296874 1 1.28125 1 3.59375zm-1.625-.171876q0-1.609374-.6875-2.546874-.6875-.9375-1.875-.9375-1.48436 0-2.21874 1.3125v4.546874q.73438 1.296876 2.23438 1.296876 1.17186 0 1.85936-.921876.6875-.921874.6875-2.75zm8.39064 4.828126v-8.25h-1.5v-1.265626h1.5v-.96875q0-1.53125.8125-2.359374.82812-.84375 2.3125-.84375.5625 0 1.125.15625l-.09374 1.3125q-.40626-.078126-.875-.078126-.7969 0-1.2344.46875-.42186.453126-.42186 1.3125v1h2.03126v1.265626h-2.03126v8.25zm11.07812-.9375q-.95312 1.109374-2.79686 1.109374-1.51564 0-2.3125-.875-.7969-.890624-.7969-2.625v-6.1875h1.625v6.15625q0 2.15625 1.75 2.15625 1.8594 0 2.4844-1.390624v-6.921876h1.625v9.515626h-1.5469zm5.65624-8.578126.0625 1.203126q1.07814-1.375 2.84376-1.375 3.01564 0 3.03124 3.40625v6.28125h-1.625v-6.296876q0-1.03125-.46874-1.515624-.45312-.5-1.4375-.5-.78126 0-1.39062.421874-.59374.421876-.92188 1.109376v6.78125h-1.625v-9.515626zm12.28126 8.359376q.875 0 1.51564-.515626.65624-.53125.71874-1.328124h1.54686q-.04686.8125-.5625 1.5625-.5156.734374-1.3906 1.171874-.8594.4375-1.82814.4375-1.9375 0-3.09376-1.296874-1.1406-1.296876-1.1406-3.546876v-.265624q0-1.390626.5-2.46875.5156-1.078126 1.46874-1.671876.95312-.609374 2.25-.609374 1.60936 0 2.65626.96875 1.0625.953124 1.1406 2.484374h-1.54686q-.0625-.921874-.70314-1.515624-.625-.59375-1.54686-.59375-1.23438 0-1.92188.890624-.67186.890626-.67186 2.578126v.296874q0 1.65625.67186 2.546876.67188.875 1.9375.875zm7.39064-10.65625v2.296874h1.78124v1.265626h-1.78124v5.890624q0 .578126.23436.859376.23438.28125.8125.28125.28124 0 .76564-.09375v1.3125q-.64064.171874-1.2344.171874-1.09374 0-1.65624-.65625-.54686-.65625-.54686-1.875v-5.890624h-1.7344v-1.265626h1.7344v-2.296874zm5.5625 11.8125h-1.625v-9.515626h1.625zm-1.76564-12.03125q0-.390626.23438-.65625.25-.28125.71876-.28125.48436 0 .73436.28125.25.265624.25.65625 0 .390624-.25.65625-.25.265624-.73436.265624-.46876 0-.71876-.265624-.23438-.265626-.23438-.65625zm3.5625 7.1875q0-1.390626.54688-2.5.5625-1.125 1.53126-1.734376.98436-.609374 2.23436-.609374 1.95314 0 3.14064 1.34375 1.2031 1.34375 1.2031 3.578124v.109376q0 1.390624-.53124 2.5-.53126 1.09375-1.51562 1.71875-.98438.609374-2.26564.609374-1.9375 0-3.1406-1.34375-1.20314-1.34375-1.20314-3.5625zm1.64064.1875q0 1.59375.73436 2.546874.73438.953126 1.96874.953126 1.2344 0 1.95314-.96875.73436-.96875.73436-2.71875 0-1.5625-.75-2.53125-.73436-.96875-1.96874-.96875-1.20312 0-1.9375.953124-.73436.953126-.73436 2.734376zm10.3281-4.859376.0625 1.203126q1.07814-1.375 2.84376-1.375 3.01564 0 3.03124 3.40625v6.28125h-1.625v-6.296876q0-1.03125-.46874-1.515624-.45312-.5-1.4375-.5-.78126 0-1.39062.421874-.59374.421876-.92188 1.109376v6.78125h-1.625v-9.515626z" fill="#000"/></svg>