<svg fill="none" height="371" stroke-linecap="square" stroke-miterlimit="10" viewBox="0 0 600 371" width="600" xmlns="http://www.w3.org/2000/svg" xmlns:xlink="http://www.w3.org/1999/xlink"><clipPath id="a"><path d="m106.13622 52.916668h320.34488v248.533332h-320.34488z"/></clipPath><path d="m0 0h600v371h-600z" fill="#fff"/><path d="m0 0h600v371h-600z" fill="#fff"/><path d="m106.5 52.5v249" stroke="#333" stroke-linecap="butt"/><path d="m186.5 52.5v249" stroke="#ccc" stroke-linecap="butt"/><path d="m266.5 52.5v249" stroke="#ccc" stroke-linecap="butt"/><path d="m346.5 52.5v249" stroke="#ccc" stroke-linecap="butt"/><path d="m426.5 52.5v249" stroke="#ccc" stroke-linecap="butt"/><g fill="#4285f4"><path clip-path="url(#a)" d="m106 66v-6h12c1.10457 0 2 .89543 2 2v2c0 1.10457-.89543 2-2 2z"/><path clip-path="url(#a)" d="m106 86v-6h222c1.10458 0 2 .89543 2 2v2c0 1.10457-.89542 2-2 2z"/><path clip-path="url(#a)" d="m106 106v-6h189c1.10458 0 2 .89543 2 2v2c0 1.10457-.89542 2-2 2z"/><path clip-path="url(#a)" d="m106 126v-6h28c1.10457 0 2 .89543 2 2v2c0 1.10457-.89543 2-2 2z"/><path clip-path="url(#a)" d="m106 146v-6h22c1.10457 0 2 .89543 2 2v2c0 1.10457-.89543 2-2 2z"/><path clip-path="url(#a)" d="m106 166v-6h20c1.10457 0 2 .89543 2 2v2c0 1.10457-.89543 2-2 2z"/><path clip-path="url(#a)" d="m106 186v-6h17c1.10457 0 2 .89543 2 2v2c0 1.10457-.89543 2-2 2z"/><path clip-path="url(#a)" d="m106 206v-6h17c1.10457 0 2 .89543 2 2v2c0 1.10457-.89543 2-2 2z"/><path clip-path="url(#a)" d="m106 226v-6h144c1.10457 0 2 .89543 2 2v2c0 1.10457-.89543 2-2 2z"/><path clip-path="url(#a)" d="m106 247v-6h172c1.10458 0 2 .89543 2 2v2c0 1.10457-.89542 2-2 2z"/><path clip-path="url(#a)" d="m106 267v-6h278c1.10458 0 2 .89542 2 2v2c0 1.10458-.89542 2-2 2z"/><path clip-path="url(#a)" d="m106 287v-6h159c1.10458 0 2 .89542 2 2v2c0 1.10458-.89542 2-2 2z"/></g><path clip-path="url(#a)" d="m106 73v-6h14c1.10457 0 2 .89543 2 2v2c0 1.10457-.89543 2-2 2z" fill="#1c4587"/><path clip-path="url(#a)" d="m106 93v-6h14c1.10457 0 2 .89543 2 2v2c0 1.10457-.89543 2-2 2z" fill="#1c4587"/><path clip-path="url(#a)" d="m106 113v-6h14c1.10457 0 2 .89543 2 2v2c0 1.10457-.89543 2-2 2z" fill="#1c4587"/><path clip-path="url(#a)" d="m106 133v-6h14c1.10457 0 2 .89543 2 2v2c0 1.10457-.89543 2-2 2z" fill="#1c4587"/><path clip-path="url(#a)" d="m106 153v-6h14c1.10457 0 2 .89543 2 2v2c0 1.10457-.89543 2-2 2z" fill="#1c4587"/><path clip-path="url(#a)" d="m106 173v-6h14c1.10457 0 2 .89543 2 2v2c0 1.10457-.89543 2-2 2z" fill="#1c4587"/><path clip-path="url(#a)" d="m106 193v-6h14c1.10457 0 2 .89543 2 2v2c0 1.10457-.89543 2-2 2z" fill="#1c4587"/><path clip-path="url(#a)" d="m106 213v-6h14c1.10457 0 2 .89543 2 2v2c0 1.10457-.89543 2-2 2z" fill="#1c4587"/><path clip-path="url(#a)" d="m106 233v-6h14c1.10457 0 2 .89543 2 2v2c0 1.10457-.89543 2-2 2z" fill="#1c4587"/><path clip-path="url(#a)" d="m106 254v-6h14c1.10457 0 2 .89543 2 2v2c0 1.10457-.89543 2-2 2z" fill="#1c4587"/><path clip-path="url(#a)" d="m106 274v-6h14c1.10457 0 2 .89542 2 2v2c0 1.10458-.89543 2-2 2z" fill="#1c4587"/><path clip-path="url(#a)" d="m106 294v-6h14c1.10457 0 2 .89542 2 2v2c0 1.10458-.89543 2-2 2z" fill="#1c4587"/><path d="m171.30867 345.65314q-1.4375-.42188-2.10937-1.03124-.65625-.6094-.65625-1.5 0-1 .79687-1.65626.8125-.67188 2.10938-.67188.875 0 1.5625.34374.6875.34376 1.0625.9375.39062.59376.39062 1.3125h-1.14062q0-.78124-.5-1.21874-.48438-.4375-1.375-.4375-.82813 0-1.29688.375-.46875.35938-.46875 1 0 .53124.4375.89064.45313.35936 1.51563.65624 1.0625.29686 1.65625.65626.60937.35936.89062.84374.29688.48436.29688 1.125 0 1.04686-.8125 1.67186-.8125.625-2.15625.625-.89063 0-1.65625-.34374-.75-.34376-1.17188-.92186-.40625-.59376-.40625-1.32814h1.125q0 .76564.57813 1.21874.57812.45314 1.53125.45314.89062 0 1.35937-.35938.46875-.375.46875-1 0-.625-.4375-.96876-.4375-.34374-1.59375-.67186zm9.67188.70312q0 1.4375-.65625 2.32814-.65625.8906-1.79688.8906-1.15625 0-1.8125-.73436v3.04686h-1.07812v-8.78124h.98437l.04688.70314q.67187-.8125 1.84375-.8125 1.14062 0 1.79687.85936.67188.85938.67188 2.39064zm-1.07813-.125q0-1.07812-.46875-1.6875-.45312-.625-1.25-.625-.98437 0-1.46875.85938v3.03126q.48438.875 1.48438.875.78125 0 1.23437-.6094.46875-.625.46875-1.84374zm5.35938 3.34374q-1.29688 0-2.10938-.84374-.79687-.85936-.79687-2.28126v-.1875q0-.9531.35937-1.6875.35938-.75 1-1.15624.65625-.42186 1.40625-.42186 1.23438 0 1.92188.8125.6875.8125.6875 2.3281v.45314h-4.29688q.03125.9375.54688 1.51562.53125.57814 1.34375.57814.5625 0 .95312-.2344.40625-.23436.71875-.625l.65625.51564q-.79687 1.23436-2.39062 1.23436zm-.14063-5.6875q-.65625 0-1.10937.4844-.4375.46874-.53125 1.3281h3.17187v-.0781q-.04687-.82814-.45312-1.28126-.39063-.45314-1.07813-.45314zm6.14063 5.6875q-1.29688 0-2.10938-.84374-.79687-.85936-.79687-2.28126v-.1875q0-.9531.35937-1.6875.35938-.75 1-1.15624.65625-.42186 1.40625-.42186 1.23438 0 1.92188.8125.6875.8125.6875 2.3281v.45314h-4.29688q.03125.9375.54688 1.51562.53125.57814 1.34375.57814.5625 0 .95312-.2344.40625-.23436.71875-.625l.65625.51564q-.79687 1.23436-2.39062 1.23436zm-.14063-5.6875q-.65625 0-1.10937.4844-.4375.46874-.53125 1.3281h3.17187v-.0781q-.04687-.82814-.45312-1.28126-.39063-.45314-1.07813-.45314zm3.25 2.34376q0-1.46876.6875-2.34376.6875-.8906 1.8125-.8906 1.10938 0 1.76563.75v-3.2969h1.07812v9h-1l-.04687-.6875q-.65625.8125-1.8125.8125-1.09375 0-1.79688-.90624-.6875-.90626-.6875-2.35936zm1.07813.125q0 1.07814.4375 1.6875.45312.60938 1.23437.60938 1.03125 0 1.51563-.9375v-2.90624q-.48438-.89064-1.5-.89064-.79688 0-1.25.60938-.4375.60936-.4375 1.82812zm10.09375 2.46874q-.625.75-1.85938.75-1.01562 0-1.54687-.59374-.53125-.59376-.53125-1.75v-4.125h1.07812v4.09374q0 1.45314 1.17188 1.45314 1.25 0 1.65625-.9375v-4.60938h1.09375v6.34374h-1.03125zm8.4375-2.46874q0 1.4375-.65625 2.32814-.65625.8906-1.79688.8906-1.15625 0-1.8125-.73436v3.04686h-1.07812v-8.78124h.98437l.04688.70314q.67187-.8125 1.84375-.8125 1.14062 0 1.79687.85936.67188.85938.67188 2.39064zm-1.07813-.125q0-1.07812-.46875-1.6875-.45312-.625-1.25-.625-.98437 0-1.46875.85938v3.03126q.48438.875 1.48438.875.78125 0 1.23437-.6094.46875-.625.46875-1.84374zm5.4375-.01562q0-.92188.35938-1.67188.375-.75 1.03125-1.14062.65625-.40624 1.48437-.40624 1.29688 0 2.09375.8906.8125.89064.8125 2.39064v.07812q0 .92188-.35937 1.65624-.35938.7344-1.01563 1.15626-.65625.40624-1.51562.40624-1.28125 0-2.09375-.8906-.79688-.90626-.79688-2.39064zm1.09375.14062q0 1.04688.48438 1.6875.5.64064 1.3125.64064.82812 0 1.3125-.64064.48437-.65626.48437-1.82812 0-1.03124-.5-1.67188-.48437-.65626-1.3125-.65626-.79687 0-1.29687.64064-.48438.625-.48438 1.82812zm6.73438 3.09374v-5.5h-1v-.84374h1v-.64062q0-1.03124.53125-1.57814.54687-.5625 1.54687-.5625.375 0 .75.09376l-.0625.89064q-.28125-.0625-.57812-.0625-.53125 0-.82813.3125-.28125.3125-.28125.875v.67186h1.35938v.84374h-1.35938v5.5zm12.53125-7.60936h-2.75v7.60936h-1.10938v-7.60936h-2.75v-.92188h6.60938zm2.10937 7.60936h-1.07812v-6.34374h1.07812zm-1.17187-8.0156q0-.26564.15625-.45314.17187-.1875.48437-.1875.3125 0 .46875.1875.17188.1875.17188.45314 0 .25-.17188.4375-.15625.17186-.46875.17186-.3125 0-.48437-.17186-.15625-.1875-.15625-.4375zm4.01562 1.67186.03125.70314q.6875-.8125 1.875-.8125 1.32813 0 1.8125 1.0156.3125-.4531.8125-.73436.51563-.28124 1.20313-.28124 2.09375 0 2.125 2.2031v4.25h-1.07813v-4.1875q0-.67186-.3125-1-.3125-.34374-1.04687-.34374-.60938 0-1.01563.35938-.39062.35936-.45312.96876v4.2031h-1.07813v-4.15624q0-1.375-1.35937-1.375-1.0625 0-1.45313.90624v4.625h-1.09375v-6.34374zm13.67186 4.65624q0-.4375-.34375-.67186-.32813-.25-1.15623-.42188-.8125-.17186-1.29688-.42186-.48437-.25-.71875-.57814-.21875-.34376-.21875-.8125 0-.78126.65625-1.3125.65625-.54686 1.6875-.54686 1.07811 0 1.73436.5625.67187.54686.67187 1.40624h-1.07812q0-.4375-.39063-.75-.375-.32814-.93748-.32814-.59375 0-.9375.26564-.32812.25-.32812.65626 0 .3906.3125.59374.3125.20312 1.12498.39062.8125.17188 1.3125.42188.5.25.73437.60936.25.3594.25.8594 0 .85936-.6875 1.375-.67187.5156-1.74998.5156-.76562 0-1.35937-.2656-.57813-.28126-.90625-.76564-.32813-.48436-.32813-1.04686h1.07813q.03125.54686.4375.875.40625.3125 1.07812.3125.60936 0 .98436-.25.375-.25.375-.6719zm2.01562-1.54686q0-.92188.35938-1.67188.375-.75 1.03125-1.14062.65625-.40624 1.48437-.40624 1.29688 0 2.09375.8906.8125.89064.8125 2.39064v.07812q0 .92188-.35937 1.65624-.35938.7344-1.01563 1.15626-.65625.40624-1.51562.40624-1.28125 0-2.09375-.8906-.79688-.90626-.79688-2.39064zm1.09375.14062q0 1.04688.48438 1.6875.5.64064 1.3125.64064.82812 0 1.3125-.64064.48437-.65626.48437-1.82812 0-1.03124-.5-1.67188-.48437-.65626-1.3125-.65626-.79687 0-1.29687.64064-.48438.625-.48438 1.82812zm9.26563-2.28126q-.25-.03124-.53125-.03124-1.07813 0-1.45313.90624v4.5h-1.07812v-6.34374h1.04687l.01563.73438q.53125-.84374 1.51562-.84374.3125 0 .48438.0781zm2.40625-2.5v1.53126h1.17187v.84374h-1.17187v3.9219q0 .3906.15625.5781.15625.1875.53125.1875.1875 0 .51562-.0625v.875q-.42187.125-.82812.125-.71875 0-1.09375-.4375-.375-.4531-.375-1.2656v-3.9219h-1.15625v-.84374h1.15625v-1.53126zm5.48437 4.40626q0-1.3125.34375-2.53126.35938-1.21874 1.0625-2.21874.70313-1 1.46875-1.40626l.21875.71876q-.85937.65624-1.40625 2-.54687 1.34374-.59375 3.01564l-.01562.5q0 2.2656.82812 3.92186.5 1 1.1875 1.5625l-.21875.65624q-.78125-.42186-1.5-1.4531-1.375-1.9844-1.375-4.76564zm5.125-2.10936q.71875-.875 1.875-.875 2.01563 0 2.03125 2.2656v4.1875h-1.09375v-4.2031q0-.6719-.3125-1-.29687-.32814-.95312-.32814-.53125 0-.9375.28124-.39063.28126-.60938.7344v4.5156h-1.07812v-9h1.07812zm7.09375 5.5781h-1.07812v-6.34374h1.07812zm-1.17187-8.0156q0-.26564.15625-.45314.17187-.1875.48437-.1875.3125 0 .46875.1875.17188.1875.17188.45314 0 .25-.17188.4375-.15625.17186-.46875.17186-.3125 0-.48437-.17186-.15625-.1875-.15625-.4375zm2.73437 4.79686q0-1.48436.6875-2.35936.6875-.875 1.8125-.875 1.15625 0 1.8125.8125l.04688-.70314h1v6.1875q0 1.23438-.73438 1.9375-.73437.71874-1.95312.71874-.6875 0-1.34375-.29686-.65625-.29688-1-.79688l.5625-.65626q.6875.8594 1.70312.8594.78125 0 1.21875-.45314.45313-.4375.45313-1.25v-.54686q-.65625.7656-1.78125.7656-1.10938 0-1.79688-.8906-.6875-.90626-.6875-2.45314zm1.09375.125q0 1.0625.4375 1.6875.4375.60938 1.23438.60938 1.01562 0 1.5-.9375v-2.89064q-.5-.90624-1.5-.90624-.78125 0-1.23438.60938-.4375.60936-.4375 1.82812zm7.25-2.48436q.71875-.875 1.875-.875 2.01563 0 2.03125 2.2656v4.1875h-1.09375v-4.2031q0-.6719-.3125-1-.29687-.32814-.95312-.32814-.53125 0-.9375.28124-.39063.28126-.60938.7344v4.5156h-1.07812v-9h1.07812zm8.54688 5.7031q-1.29688 0-2.10938-.84374-.79687-.85936-.79687-2.28126v-.1875q0-.9531.35937-1.6875.35938-.75 1-1.15624.65625-.42186 1.40625-.42186 1.23438 0 1.92188.8125.6875.8125.6875 2.3281v.45314h-4.29688q.03125.9375.54688 1.51562.53125.57814 1.34375.57814.5625 0 .95312-.2344.40625-.23436.71875-.625l.65625.51564q-.79687 1.23436-2.39062 1.23436zm-.14063-5.6875q-.65625 0-1.10937.4844-.4375.46874-.53125 1.3281h3.17187v-.0781q-.04687-.82814-.45312-1.28126-.39063-.45314-1.07813-.45314zm6.57813.1875q-.25-.03124-.53125-.03124-1.07813 0-1.45313.90624v4.5h-1.07812v-6.34374h1.04687l.01563.73438q.53125-.84374 1.51562-.84374.3125 0 .48438.0781zm5.10937 5.375h-1.07812v-6.34374h1.07812zm-1.17187-8.0156q0-.26564.15625-.45314.17187-.1875.48437-.1875.3125 0 .46875.1875.17188.1875.17188.45314 0 .25-.17188.4375-.15625.17186-.46875.17186-.3125 0-.48437-.17186-.15625-.1875-.15625-.4375zm6.6875 6.3281q0-.4375-.34375-.67186-.32813-.25-1.15625-.42188-.8125-.17186-1.29688-.42186-.48437-.25-.71875-.57814-.21875-.34376-.21875-.8125 0-.78126.65625-1.3125.65625-.54686 1.6875-.54686 1.07813 0 1.73438.5625.67187.54686.67187 1.40624h-1.07812q0-.4375-.39063-.75-.375-.32814-.9375-.32814-.59375 0-.9375.26564-.32812.25-.32812.65626 0 .3906.3125.59374.3125.20312 1.125.39062.8125.17188 1.3125.42188.5.25.73437.60936.25.3594.25.8594 0 .85936-.6875 1.375-.67187.5156-1.75.5156-.76562 0-1.35937-.2656-.57813-.28126-.90625-.76564-.32813-.48436-.32813-1.04686h1.07813q.03125.54686.4375.875.40625.3125 1.07812.3125.60938 0 .98438-.25.375-.25.375-.6719zm10.67187-1.40624q0 1.45314-.67187 2.34374-.65625.875-1.78125.875-1.20313 0-1.85938-.85936l-.0625.73436h-.98437v-9h1.07812v3.3594q.65625-.8125 1.8125-.8125 1.15625 0 1.8125.875.65625.85936.65625 2.3906zm-1.07812-.125q0-1.10936-.4375-1.70312-.42188-.60938-1.21875-.60938-1.07813 0-1.54688.98438v2.75q.5 1 1.54688 1 .78125 0 1.21875-.60938.4375-.60936.4375-1.8125zm5.34375 3.34374q-1.29688 0-2.10938-.84374-.79687-.85936-.79687-2.28126v-.1875q0-.9531.35937-1.6875.35938-.75 1-1.15624.65625-.42186 1.40625-.42186 1.23438 0 1.92188.8125.6875.8125.6875 2.3281v.45314h-4.29688q.03125.9375.54688 1.51562.53125.57814 1.34375.57814.5625 0 .95312-.2344.40625-.23436.71875-.625l.65625.51564q-.79687 1.23436-2.39062 1.23436zm-.14063-5.6875q-.65625 0-1.10937.4844-.4375.46874-.53125 1.3281h3.17187v-.0781q-.04687-.82814-.45312-1.28126-.39063-.45314-1.07813-.45314zm4.98438-2.3125v1.53126h1.17187v.84374h-1.17187v3.9219q0 .3906.15625.5781.15625.1875.53125.1875.1875 0 .51562-.0625v.875q-.42187.125-.82812.125-.71875 0-1.09375-.4375-.375-.4531-.375-1.2656v-3.9219h-1.15625v-.84374h1.15625v-1.53126zm4 0v1.53126h1.17187v.84374h-1.17187v3.9219q0 .3906.15625.5781.15625.1875.53125.1875.1875 0 .51562-.0625v.875q-.42187.125-.82812.125-.71875 0-1.09375-.4375-.375-.4531-.375-1.2656v-3.9219h-1.15625v-.84374h1.15625v-1.53126zm5.15625 8q-1.29688 0-2.10938-.84374-.79687-.85936-.79687-2.28126v-.1875q0-.9531.35937-1.6875.35938-.75 1-1.15624.65625-.42186 1.40625-.42186 1.23438 0 1.92188.8125.6875.8125.6875 2.3281v.45314h-4.29688q.03125.9375.54688 1.51562.53125.57814 1.34375.57814.5625 0 .95312-.2344.40625-.23436.71875-.625l.65625.51564q-.79687 1.23436-2.39062 1.23436zm-.14063-5.6875q-.65625 0-1.10937.4844-.4375.46874-.53125 1.3281h3.17187v-.0781q-.04687-.82814-.45312-1.28126-.39063-.45314-1.07813-.45314zm6.57813.1875q-.25-.03124-.53125-.03124-1.07813 0-1.45313.90624v4.5h-1.07812v-6.34374h1.04687l.01563.73438q.53125-.84374 1.51562-.84374.3125 0 .48438.0781zm3.4375 1.96876q0 1.3125-.34375 2.51564-.34375 1.1875-1.0625 2.2031-.70313 1.01564-1.46875 1.4375l-.23438-.65624q.90625-.6875 1.45313-2.14062.54687-1.46874.5625-3.23438v-.1875q0-1.23436-.26563-2.29686-.25-1.0625-.71875-1.89064-.45312-.84376-1.03125-1.3125l.23438-.65626q.76562.4219 1.46875 1.4219.70312 1 1.04687 2.21874.35938 1.20312.35938 2.57812z" fill="#757575"/><path d="m58.261223 67.54735h-2.015625v3.45312h-1.125v-8.531247h2.828125q1.4375 0 2.203125.65625.78125.65625.78125 1.906247 0 .79688-.4375 1.39063-.421875.59375-1.1875.89062l2 3.60938v.07812h-1.203125zm-2.015625-.92188h1.734375q.84375 0 1.328125-.42187.5-.4375.5-1.17188 0-.78125-.46875-1.203122-.46875-.421875-1.359375-.4375h-1.734375zm9.625002 4.375q-.09375-.1875-.15625-.67187-.75.79687-1.796877.79687-.9375 0-1.546875-.53125-.59375-.53125-.59375-1.35937 0-.98438.75-1.53125.75-.54688 2.125002-.54688h1.04687v-.5q0-.5625-.34375-.89062-.32812-.34375-1-.34375-.578122 0-.968747.29687-.390625.28125-.390625.70313h-1.09375q0-.48438.328125-.92188.34375-.4375.921875-.6875.578125-.26562 1.265622-.26562 1.10938 0 1.71875.54687.625.54688.65625 1.5v2.92188q0 .875.21875 1.39062v.09375zm-1.79688-.82812q.51563 0 .96875-.26563.45313-.26562.65625-.6875v-1.29687h-.84375q-1.999997 0-1.999997 1.17187 0 .5.34375.79688.34375.28125.874997.28125zm5.90625-5.51563.03125.79688q.73438-.90625 1.90625-.90625 2.01563 0 2.03125 2.26562v4.1875h-1.09375v-4.20312q0-.67188-.3125-1-.29687-.32813-.95312-.32813-.53125 0-.9375.28125-.39063.28125-.60938.73438v4.51562h-1.07812v-6.34375zm5.71875 3.125q0-1.46875.6875-2.34375.6875-.89062 1.8125-.89062 1.10938 0 1.76563.75v-3.296877h1.07812v8.999997h-1l-.04687-.6875q-.65625.8125-1.8125.8125-1.09375 0-1.79688-.90625-.6875-.90625-.6875-2.35937zm1.07813.125q0 1.07813.4375 1.6875.45312.60938 1.23437.60938 1.03125 0 1.51563-.9375v-2.90625q-.48438-.89063-1.5-.89063-.79688 0-1.25.60938-.4375.60937-.4375 1.82812zm5.89062-.14062q0-.92188.35938-1.67188.375-.75 1.03125-1.14062.65625-.40625 1.48437-.40625 1.29688 0 2.09375.89062.8125.89063.8125 2.39063v.07812q0 .92188-.35937 1.65625-.35938.73438-1.01563 1.15625-.65625.40625-1.51562.40625-1.28125 0-2.09375-.89062-.79688-.90625-.79688-2.39063zm1.09375.14062q0 1.04688.48438 1.6875.5.64063 1.3125.64063.82812 0 1.3125-.64063.48437-.65625.48437-1.82812 0-1.03125-.5-1.67188-.48437-.65625-1.3125-.65625-.79687 0-1.29687.64063-.48438.625-.48438 1.82812zm7.21875-3.25.03125.70313q.6875-.8125 1.875-.8125 1.32813 0 1.8125 1.01562.3125-.45312.8125-.73437.51563-.28125 1.20313-.28125 2.09375 0 2.125 2.20312v4.25h-1.07813v-4.1875q0-.67187-.3125-1-.3125-.34375-1.04687-.34375-.60938 0-1.01563.35938-.39062.35937-.45312.96875v4.20312h-1.07813v-4.15625q0-1.375-1.35937-1.375-1.0625 0-1.45313.90625v4.625h-1.09375v-6.34375z" fill="#000"/><path d="m92.13622 82.593376v5.796874q-.01562 1.203126-.76562 1.984376-.75.765624-2.03125.859374l-.3125.015626q-1.39063 0-2.23438-.75-.82812-.765626-.82812-2.09375v-5.8125h1.10937v5.78125q0 .921874.5 1.4375.51563.515624 1.45313.515624.96875 0 1.46875-.515624.5-.515626.5-1.4375v-5.78125zm7.17188 5.4375q0 1.4375-.65625 2.328124-.65625.890626-1.79688.890626-1.15625 0-1.8125-.734376v3.046876h-1.07812v-8.78125h.98437l.04688.703124q.67187-.8125 1.84375-.8125 1.14062 0 1.79687.859376.67188.859374.67188 2.390624zm-1.07813-.125q0-1.078126-.46875-1.6875-.45312-.625-1.25-.625-.98437 0-1.46875.859374v3.03125q.48438.875 1.48438.875.78125 0 1.23437-.609374.46875-.625.46875-1.84375z" fill="#000"/><path d="m70.1206 111.24879v-8.53125h2.42187q1.10938 0 1.95313.5.85937.48437 1.32812 1.39062.46875.90625.46875 2.09375v.53125q0 1.21875-.46875 2.125-.45312.90625-1.32812 1.39063-.85938.48437-2 .5zm1.125-7.60938v6.6875h1.1875q1.29687 0 2.01562-.79687.73438-.8125.73438-2.3125v-.5q0-1.45313-.6875-2.25-.67188-.8125-1.9375-.82813zm6.42187 4.375q0-.92187.35938-1.67187.375-.75 1.03125-1.14063.65625-.40625 1.48437-.40625 1.29688 0 2.09375.89063.8125.89062.8125 2.39062v.07813q0 .92187-.35937 1.65625-.35938.73437-1.01563 1.15625-.65625.40625-1.51562.40625-1.28125 0-2.09375-.89063-.79688-.90625-.79688-2.39062zm1.09375.14063q0 1.04687.48438 1.6875.5.64062 1.3125.64062.82812 0 1.3125-.64062.48437-.65625.48437-1.82813 0-1.03125-.5-1.67187-.48437-.65625-1.3125-.65625-.79687 0-1.29687.64062-.48438.625-.48438 1.82813zm11.8125 1.59375 1.21875-4.84375h1.07813l-1.84375 6.34375h-.875l-1.54688-4.8125-1.5 4.8125h-.875l-1.84375-6.34375h1.07813l1.25 4.75 1.48437-4.75h.85938zm4.40625-4.84375.03125.79687q.73438-.90625 1.90625-.90625 2.01563 0 2.03125 2.26563v4.1875h-1.09375v-4.20313q0-.67187-.3125-1-.29687-.32812-.95312-.32812-.53125 0-.9375.28125-.39063.28125-.60938.73437v4.51563h-1.07812v-6.34375z" fill="#000"/><path d="m52.636223 127.576065q-1.4375-.421875-2.109375-1.03125-.65625-.609375-.65625-1.5 0-1 .796875-1.65625.8125-.671875 2.109375-.671875.875 0 1.5625.34375.6875.34375 1.0625.9375.390625.59375.390625 1.3125h-1.140625q0-.78125-.5-1.21875-.484375-.4375-1.375-.4375-.828125 0-1.296875.375-.46875.359375-.46875 1 0 .53125.4375.890625.453125.359375 1.515625.65625 1.0625.296875 1.65625.65625.609375.359375.890625.843755.296875.48437.296875 1.125 0 1.04687-.8125 1.67187-.8125.625-2.15625.625-.890625 0-1.65625-.34375-.75-.34375-1.171875-.92187-.40625-.59375-.40625-1.32813h1.125q0 .76563.578125 1.21875.578125.45313 1.53125.45313.890625 0 1.359375-.35938.46875-.375.46875-1 0-.625-.4375-.96875-.4375-.34375-1.59375-.671875zm8.234375 3.796875q-.09375-.1875-.15625-.67187-.75.79687-1.796875.79687-.9375 0-1.546875-.53125-.59375-.53125-.59375-1.35937 0-.98438.75-1.53125.75-.54688 2.125-.54688h1.046875v-.5q0-.5625-.34375-.890625-.328125-.34375-1-.34375-.578125 0-.96875.296875-.390625.28125-.390625.703125h-1.09375q0-.484375.328125-.921875.34375-.4375.921875-.6875.578125-.265625 1.265625-.265625 1.109375 0 1.71875.546875.625.546875.65625 1.5v2.92188q0 .875.21875 1.39062v.09375zm-1.796875-.82812q.515625 0 .96875-.26563.453125-.26562.65625-.6875v-1.29687h-.84375q-2 0-2 1.17187 0 .5.34375.79688.34375.28125.875.28125zm10.499997-.67188 1.21875-4.84375h1.07813l-1.84375 6.34375h-.875l-1.54688-4.8125-1.5 4.8125h-.875l-1.843747-6.34375h1.078127l1.25 4.75 1.48437-4.75h.85938zm6.82813 1.5h-1.07813v-7.21875l-2.1875.796875v-.984375l3.10938-1.171875h.15625zm8.79687-3.640625q0 1.906255-.65625 2.843755-.64062.92187-2.03125.92187-1.35937 0-2.01562-.90625-.65625-.90625-.6875-2.71875v-1.4375q0-1.890625.64062-2.796875.65625-.921875 2.04688-.921875 1.375 0 2.03125.890625.65625.875.67187 2.71875zm-1.09375-1.484375q0-1.375-.39062-2-.375-.640625-1.21875-.640625-.82813 0-1.21875.640625-.375.625-.375 1.921875v1.734375q0 1.375.39062 2.04688.40625.65625 1.21875.65625.79688 0 1.1875-.625.39063-.625.40625-1.95313zm8.09375 1.484375q0 1.906255-.65625 2.843755-.64062.92187-2.03125.92187-1.35937 0-2.01562-.90625-.65625-.90625-.6875-2.71875v-1.4375q0-1.890625.64062-2.796875.65625-.921875 2.04688-.921875 1.375 0 2.03125.890625.65625.875.67187 2.71875zm-1.09375-1.484375q0-1.375-.39062-2-.375-.640625-1.21875-.640625-.82813 0-1.21875.640625-.375.625-.375 1.921875v1.734375q0 1.375.39062 2.04688.40625.65625 1.21875.65625.79688 0 1.1875-.625.39063-.625.40625-1.95313zm8.09375 1.484375q0 1.906255-.65625 2.843755-.64062.92187-2.03125.92187-1.35937 0-2.01562-.90625-.65625-.90625-.6875-2.71875v-1.4375q0-1.890625.64062-2.796875.65625-.921875 2.04688-.921875 1.375 0 2.03125.890625.65625.875.67187 2.71875zm-1.09375-1.484375q0-1.375-.39062-2-.375-.640625-1.21875-.640625-.82813 0-1.21875.640625-.375.625-.375 1.921875v1.734375q0 1.375.39062 2.04688.40625.65625 1.21875.65625.79688 0 1.1875-.625.39063-.625.40625-1.95313z" fill="#000"/><path d="m59.636223 147.70023q-1.4375-.42188-2.109375-1.03125-.65625-.60938-.65625-1.5 0-1 .796875-1.65625.8125-.67188 2.109375-.67188.875 0 1.5625.34375.6875.34375 1.0625.9375.390625.59375.390625 1.3125h-1.140625q0-.78125-.5-1.21875-.484375-.4375-1.375-.4375-.828125 0-1.296875.375-.46875.35938-.46875 1 0 .53125.4375.89063.453125.35937 1.515625.65625 1.0625.29687 1.65625.65625.609375.35937.890625.84375.296875.48437.296875 1.125 0 1.04687-.8125 1.67187-.8125.625-2.15625.625-.890625 0-1.65625-.34375-.75-.34375-1.171875-.92187-.40625-.59375-.40625-1.32813h1.125q0 .76563.578125 1.21875.578125.45313 1.53125.45313.890625 0 1.359375-.35938.46875-.375.46875-1 0-.625-.4375-.96875-.4375-.34375-1.59375-.67187zm8.234377 3.79687q-.09375-.1875-.15625-.67187-.75.79687-1.79688.79687-.9375 0-1.54687-.53125-.593752-.53125-.593752-1.35937 0-.98438.750002-1.53125.75-.54688 2.125-.54688h1.04687v-.5q0-.5625-.34375-.89062-.32812-.34375-1-.34375-.57812 0-.96875.29687-.39062.28125-.39062.70313h-1.093752q0-.48438.328122-.92188.34375-.4375.92188-.6875.57812-.26562 1.26562-.26562 1.10938 0 1.71875.54687.625.54688.65625 1.5v2.92188q0 .875.21875 1.39062v.09375zm-1.79688-.82812q.51563 0 .96875-.26563.45313-.26562.65625-.6875v-1.29687h-.84375q-2 0-2 1.17187 0 .5.34375.79688.34375.28125.875.28125zm10.5-.67188 1.21875-4.84375h1.07813l-1.84375 6.34375h-.875l-1.54688-4.8125-1.5 4.8125h-.875l-1.84375-6.34375h1.07813l1.25 4.75 1.48437-4.75h.85938zm3.76563-2.78125.4375-4.25h4.375v1h-3.45313l-.26562 2.32813q.64062-.375 1.4375-.375 1.15625 0 1.84375.78125.6875.76562.6875 2.07812 0 1.3125-.71875 2.07813-.70313.76562-1.98438.76562-1.125 0-1.84375-.625-.71875-.64062-.8125-1.75h1.01563q.10937.73438.53125 1.10938.42187.375 1.10937.375.75 0 1.1875-.51563.4375-.51562.4375-1.42187 0-.85938-.46875-1.375-.46875-.51563-1.25-.51563-.70312 0-1.10937.29688l-.28125.23437zm11.85937.64063q0 1.90625-.65625 2.84375-.64062.92187-2.03125.92187-1.35937 0-2.01562-.90625-.65625-.90625-.6875-2.71875v-1.4375q0-1.89062.64062-2.79687.65625-.92188 2.04688-.92188 1.375 0 2.03125.89063.65625.875.67187 2.71875zm-1.09375-1.48438q0-1.375-.39062-2-.375-.64062-1.21875-.64062-.82813 0-1.21875.64062-.375.625-.375 1.92188v1.73437q0 1.375.39062 2.04688.40625.65625 1.21875.65625.79688 0 1.1875-.625.39063-.625.40625-1.95313zm8.09375 1.48438q0 1.90625-.65625 2.84375-.64062.92187-2.03125.92187-1.35937 0-2.01562-.90625-.65625-.90625-.6875-2.71875v-1.4375q0-1.89062.64062-2.79687.65625-.92188 2.04688-.92188 1.375 0 2.03125.89063.65625.875.67187 2.71875zm-1.09375-1.48438q0-1.375-.39062-2-.375-.64062-1.21875-.64062-.82813 0-1.21875.64062-.375.625-.375 1.92188v1.73437q0 1.375.39062 2.04688.40625.65625 1.21875.65625.79688 0 1.1875-.625.39063-.625.40625-1.95313z" fill="#000"/><path d="m59.636223 167.82439q-1.4375-.42188-2.109375-1.03125-.65625-.60938-.65625-1.5 0-1 .796875-1.65625.8125-.67188 2.109375-.67188.875 0 1.5625.34375.6875.34375 1.0625.9375.390625.59375.390625 1.3125h-1.140625q0-.78125-.5-1.21875-.484375-.4375-1.375-.4375-.828125 0-1.296875.375-.46875.35938-.46875 1 0 .53125.4375.89063.453125.35937 1.515625.65625 1.0625.29687 1.65625.65625.609375.35937.890625.84375.296875.48437.296875 1.125 0 1.04687-.8125 1.67187-.8125.625-2.15625.625-.890625 0-1.65625-.34375-.75-.34375-1.171875-.92187-.40625-.59375-.40625-1.32813h1.125q0 .76563.578125 1.21875.578125.45313 1.53125.45313.890625 0 1.359375-.35938.46875-.375.46875-1 0-.625-.4375-.96875-.4375-.34375-1.59375-.67187zm8.234377 3.79687q-.09375-.1875-.15625-.67187-.75.79687-1.79688.79687-.9375 0-1.54687-.53125-.593752-.53125-.593752-1.35937 0-.98438.750002-1.53125.75-.54688 2.125-.54688h1.04687v-.5q0-.5625-.34375-.89062-.32812-.34375-1-.34375-.57812 0-.96875.29687-.39062.28125-.39062.70313h-1.093752q0-.48438.328122-.92188.34375-.4375.92188-.6875.57812-.26562 1.26562-.26562 1.10938 0 1.71875.54687.625.54688.65625 1.5v2.92188q0 .875.21875 1.39062v.09375zm-1.79688-.82812q.51563 0 .96875-.26563.45313-.26562.65625-.6875v-1.29687h-.84375q-2 0-2 1.17187 0 .5.34375.79688.34375.28125.875.28125zm10.5-.67188 1.21875-4.84375h1.07813l-1.84375 6.34375h-.875l-1.54688-4.8125-1.5 4.8125h-.875l-1.84375-6.34375h1.07813l1.25 4.75 1.48437-4.75h.85938zm8.85938 1.5h-5.59375v-.78125l2.95312-3.28125q.65625-.75.90625-1.20312.25-.46875.25-.96875 0-.67188-.40625-1.09375-.39062-.4375-1.07812-.4375-.79688 0-1.25.46875-.45313.45312-.45313 1.28125h-1.07812q0-1.1875.75-1.90625.76562-.73438 2.03125-.73438 1.20312 0 1.89062.625.6875.625.6875 1.67188 0 1.25-1.60937 3l-2.28125 2.46875h4.28125zm6.76562-3.64062q0 1.90625-.65625 2.84375-.64062.92187-2.03125.92187-1.35937 0-2.01562-.90625-.65625-.90625-.6875-2.71875v-1.4375q0-1.89062.64062-2.79687.65625-.92188 2.04688-.92188 1.375 0 2.03125.89063.65625.875.67187 2.71875zm-1.09375-1.48438q0-1.375-.39062-2-.375-.64062-1.21875-.64062-.82813 0-1.21875.64062-.375.625-.375 1.92188v1.73437q0 1.375.39062 2.04688.40625.65625 1.21875.65625.79688 0 1.1875-.625.39063-.625.40625-1.95313zm8.09375 1.48438q0 1.90625-.65625 2.84375-.64062.92187-2.03125.92187-1.35937 0-2.01562-.90625-.65625-.90625-.6875-2.71875v-1.4375q0-1.89062.64062-2.79687.65625-.92188 2.04688-.92188 1.375 0 2.03125.89063.65625.875.67187 2.71875zm-1.09375-1.48438q0-1.375-.39062-2-.375-.64062-1.21875-.64062-.82813 0-1.21875.64062-.375.625-.375 1.92188v1.73437q0 1.375.39062 2.04688.40625.65625 1.21875.65625.79688 0 1.1875-.625.39063-.625.40625-1.95313z" fill="#000"/><path d="m24.636223 187.94853q-1.4375-.42187-2.109375-1.03125-.65625-.60938-.65625-1.5 0-1 .796875-1.65625.8125-.67187 2.109375-.67187.875 0 1.5625.34374.6875.34376 1.0625.9375.390625.59376.390625 1.3125h-1.140625q0-.78124-.5-1.21874-.484375-.4375-1.375-.4375-.828125 0-1.296875.375-.46875.35937-.46875 1 0 .53124.4375.89062.453125.35938 1.515625.65625 1.0625.29687 1.65625.65625.609375.35938.890625.84375.296875.48437.296875 1.125 0 1.04687-.8125 1.67187-.8125.625-2.15625.625-.890625 0-1.65625-.34374-.75-.34376-1.171875-.92188-.40625-.59375-.40625-1.32812h1.125q0 .76562.578125 1.21874.578125.45313 1.53125.45313.890625 0 1.359375-.35937.46875-.375.46875-1 0-.625-.4375-.96876-.4375-.34374-1.59375-.67187zm8.234375 3.79687q-.09375-.1875-.15625-.67187-.75.79687-1.796875.79687-.9375 0-1.546875-.53124-.59375-.53126-.59375-1.35938 0-.98438.75-1.53125.75-.54687 2.125-.54687h1.046875v-.5q0-.5625-.34375-.89063-.328125-.34375-1-.34375-.578125 0-.96875.29688-.390625.28124-.390625.70312h-1.09375q0-.48438.328125-.92188.34375-.4375.921875-.6875.578125-.26562 1.265625-.26562 1.109375 0 1.71875.54688.625.54687.65625 1.5v2.92187q0 .875.21875 1.39063v.09374zm-1.796875-.82812q.515625 0 .96875-.26562.453125-.26563.65625-.6875v-1.29688h-.84375q-2 0-2 1.17188 0 .5.34375.79687.34375.28125.875.28125zm10.5-.67188 1.21875-4.84374h1.078125l-1.84375 6.34374h-.875l-1.546875-4.8125-1.5 4.8125h-.875l-1.84375-6.34374h1.078125l1.25 4.75 1.484375-4.75h.859375zm8.859375 1.5h-5.59375v-.78124l2.953125-3.28126q.65625-.75.90625-1.20312.25-.46875.25-.96875 0-.67187-.40625-1.09375-.390625-.4375-1.078125-.4375-.796875 0-1.25.46875-.453125.45313-.453125 1.28125h-1.078125q0-1.1875.75-1.90625.765625-.73437 2.03125-.73437 1.203125 0 1.890625.625.6875.625.6875 1.67187 0 1.25-1.609375 3l-2.28125 2.46875h4.28125zm6.765625-3.64062q0 1.90625-.65625 2.84375-.640625.92187-2.03125.92187-1.359375 0-2.015625-.90624-.65625-.90626-.6875-2.71876v-1.4375q0-1.89062.640625-2.79687.65625-.92187 2.046875-.92187 1.375 0 2.03125.89062.65625.875.671875 2.71875zm-1.09375-1.48438q0-1.375-.390625-2-.375-.64062-1.21875-.64062-.828125 0-1.21875.64062-.375.625-.375 1.92188v1.73438q0 1.375.390625 2.04687.40625.65625 1.21875.65625.796875 0 1.1875-.625.390625-.625.40625-1.95312zm8.093747 1.48438q0 1.90625-.656247 2.84375-.640625.92187-2.03125.92187-1.359375 0-2.015625-.90624-.65625-.90626-.6875-2.71876v-1.4375q0-1.89062.640625-2.79687.65625-.92187 2.046875-.92187 1.375 0 2.03125.89062.656252.875.671872 2.71875zm-1.093747-1.48438q0-1.375-.390625-2-.375-.64062-1.21875-.64062-.828125 0-1.21875.64062-.375.625-.375 1.92188v1.73438q0 1.375.390625 2.04687.40625.65625 1.21875.65625.796875 0 1.1875-.625.390625-.625.40625-1.95312zm5.531247 1.32813q-1.4375-.42187-2.10937-1.03125-.65625-.60938-.65625-1.5 0-1 .79687-1.65625.8125-.67187 2.10938-.67187.875 0 1.5625.34374.6875.34376 1.0625.9375.39062.59376.39062 1.3125h-1.14062q0-.78124-.5-1.21874-.48438-.4375-1.375-.4375-.82813 0-1.29688.375-.46875.35937-.46875 1 0 .53124.4375.89062.45313.35938 1.51563.65625 1.0625.29687 1.65625.65625.60937.35938.89062.84375.29688.48437.29688 1.125 0 1.04687-.8125 1.67187-.8125.625-2.15625.625-.89063 0-1.65625-.34374-.75-.34376-1.17188-.92188-.40625-.59375-.40625-1.32812h1.125q0 .76562.57813 1.21874.57812.45313 1.53125.45313.89062 0 1.35937-.35937.46875-.375.46875-1 0-.625-.4375-.96876-.4375-.34374-1.59375-.67187zm6.39063 2.20313 1.48437-4.75h1.15625l-2.54687 7.32812q-.59375 1.57812-1.875 1.57812l-.21875-.01562-.39063-.07812v-.875l.28125.01562q.5625 0 .85938-.21875.3125-.21875.51562-.8125l.23438-.65625-2.26563-6.26562h1.1875zm4.95312-4.75.03125.70312q.6875-.8125 1.875-.8125 1.32813 0 1.8125 1.01562.3125-.45312.8125-.73437.51563-.28125 1.20313-.28125 2.09375 0 2.125 2.20312v4.25h-1.07813v-4.1875q0-.67187-.3125-1-.3125-.34374-1.04687-.34374-.60938 0-1.01563.35937-.39062.35937-.45312.96875v4.20312h-1.07813v-4.15624q0-1.375-1.35937-1.375-1.0625 0-1.45313.90624v4.625h-1.09375v-6.34374zm11 0 .03125.70312q.6875-.8125 1.875-.8125 1.32813 0 1.8125 1.01562.3125-.45312.8125-.73437.51563-.28125 1.20313-.28125 2.09375 0 2.125 2.20312v4.25h-1.07813v-4.1875q0-.67187-.3125-1-.3125-.34374-1.04687-.34374-.60938 0-1.01563.35937-.39062.35937-.45312.96875v4.20312h-1.07813v-4.15624q0-1.375-1.35937-1.375-1.0625 0-1.45313.90624v4.625h-1.09375v-6.34374z" fill="#000"/><path d="m28.636223 208.0727q-1.4375-.42188-2.109375-1.03126-.65625-.60937-.65625-1.5 0-1 .796875-1.65624.8125-.67188 2.109375-.67188.875 0 1.5625.34375.6875.34375 1.0625.9375.390625.59375.390625 1.3125h-1.140625q0-.78125-.5-1.21875-.484375-.4375-1.375-.4375-.828125 0-1.296875.375-.46875.35938-.46875 1 0 .53125.4375.89062.453125.35938 1.515625.65626 1.0625.29687 1.65625.65624.609375.35938.890625.84376.296875.48437.296875 1.125 0 1.04687-.8125 1.67187-.8125.625-2.15625.625-.890625 0-1.65625-.34375-.75-.34375-1.171875-.92188-.40625-.59374-.40625-1.32812h1.125q0 .76562.578125 1.21875.578125.45313 1.53125.45313.890625 0 1.359375-.35938.46875-.375.46875-1 0-.625-.4375-.96875-.4375-.34375-1.59375-.67187zm8.234375 3.79687q-.09375-.1875-.15625-.67187-.75.79687-1.796875.79687-.9375 0-1.546875-.53125-.59375-.53125-.59375-1.35938 0-.98437.75-1.53124.75-.54688 2.125-.54688h1.046875v-.5q0-.5625-.34375-.89062-.328125-.34376-1-.34376-.578125 0-.96875.29688-.390625.28125-.390625.70312h-1.09375q0-.48437.328125-.92187.34375-.4375.921875-.6875.578125-.26563 1.265625-.26563 1.109375 0 1.71875.54688.625.54688.65625 1.5v2.92188q0 .875.21875 1.39062v.09375zm-1.796875-.82813q.515625 0 .96875-.26562.453125-.26562.65625-.6875v-1.29688h-.84375q-2 0-2 1.17188 0 .5.34375.79688.34375.28124.875.28124zm10.5-.67187 1.21875-4.84375h1.078125l-1.84375 6.34375h-.875l-1.546875-4.8125-1.5 4.8125h-.875l-1.84375-6.34375h1.078125l1.25 4.75 1.484375-4.75h.859375zm8.859375 1.5h-5.59375v-.78125l2.953125-3.28125q.65625-.75.90625-1.20313.25-.46874.25-.96874 0-.67188-.40625-1.09376-.390625-.4375-1.078125-.4375-.796875 0-1.25.46876-.453125.45312-.453125 1.28124h-1.078125q0-1.1875.75-1.90624.765625-.73438 2.03125-.73438 1.203125 0 1.890625.625.6875.625.6875 1.67188 0 1.25-1.609375 3l-2.28125 2.46874h4.28125zm6.765625-3.64063q0 1.90626-.65625 2.84376-.640625.92187-2.03125.92187-1.359375 0-2.015625-.90625-.65625-.90625-.6875-2.71875v-1.4375q0-1.89063.640625-2.79687.65625-.92188 2.046875-.92188 1.375 0 2.03125.89062.65625.875.671875 2.71876zm-1.09375-1.48437q0-1.375-.390625-2-.375-.64063-1.21875-.64063-.828125 0-1.21875.64063-.375.625-.375 1.92187v1.73438q0 1.375.390625 2.04688.40625.65624 1.21875.65624.796875 0 1.1875-.625.390625-.625.40625-1.95312zm8.093747 1.48437q0 1.90626-.65625 2.84376-.64062.92187-2.03125.92187-1.35937 0-2.015622-.90625-.65625-.90625-.6875-2.71875v-1.4375q0-1.89063.640625-2.79687.656247-.92188 2.046877-.92188 1.375 0 2.03125.89062.65625.875.67187 2.71876zm-1.09375-1.48437q0-1.375-.39062-2-.375-.64063-1.21875-.64063-.82813 0-1.21875.64063-.375002.625-.375002 1.92187v1.73438q0 1.375.390622 2.04688.40625.65624 1.21875.65624.79688 0 1.1875-.625.39063-.625.40625-1.95312zm3.01563 5.125v-8.53125h2.42187q1.10938 0 1.95313.5.85937.48438 1.32812 1.39062.46875.90626.46875 2.09376v.53124q0 1.21876-.46875 2.125-.45312.90626-1.32812 1.39063-.85938.48437-2 .5zm1.125-7.60937v6.6875h1.1875q1.29687 0 2.01562-.79688.73438-.8125.73438-2.3125v-.5q0-1.45312-.6875-2.25-.67188-.8125-1.9375-.82812zm6.42187 4.375q0-.92188.35938-1.67188.375-.75 1.03125-1.14062.65625-.40626 1.48437-.40626 1.29688 0 2.09375.89063.8125.89063.8125 2.39063v.07812q0 .92188-.35937 1.65625-.35938.73437-1.01563 1.15625-.65625.40625-1.51562.40625-1.28125 0-2.09375-.89063-.79688-.90624-.79688-2.39062zm1.09375.14062q0 1.04688.48438 1.6875.5.64062 1.3125.64062.82812 0 1.3125-.64062.48437-.65625.48437-1.82812 0-1.03126-.5-1.67188-.48437-.65625-1.3125-.65625-.79687 0-1.29687.64063-.48438.625-.48438 1.82812zm11.8125 1.59375 1.21875-4.84375h1.07813l-1.84375 6.34375h-.875l-1.54688-4.8125-1.5 4.8125h-.875l-1.84375-6.34375h1.07813l1.25 4.75 1.48437-4.75h.85938zm4.40625-4.84375.03125.79688q.73438-.90626 1.90625-.90626 2.01563 0 2.03125 2.26563v4.1875h-1.09375v-4.20313q0-.67187-.3125-1-.29687-.32812-.95312-.32812-.53125 0-.9375.28125-.39063.28125-.60938.73437v4.51563h-1.07812v-6.34375z" fill="#000"/><path d="m61.136223 223.46248v5.79687q-.015625 1.20313-.765625 1.98438-.75.76562-2.03125.85937l-.3125.01563q-1.390625 0-2.234375-.75-.828125-.76563-.828125-2.09375v-5.8125h1.109375v5.78125q0 .92187.5 1.4375.515625.51562 1.453125.51562.96875 0 1.46875-.51562.5-.51563.5-1.4375v-5.78125zm7.171877 5.4375q0 1.4375-.65625 2.32812-.65625.89063-1.79688.89063-1.15625 0-1.8125-.73438v3.04688h-1.078122v-8.78125h.984375l.046875.70312q.671872-.8125 1.843752-.8125 1.14062 0 1.79687.85938.67188.85937.67188 2.39062zm-1.07813-.125q0-1.07813-.46875-1.6875-.45312-.625-1.25-.625-.98437 0-1.46875.85937v3.03125q.48438.875 1.48438.875.78125 0 1.23437-.60937.46875-.625.46875-1.84375zm2.89063 3.21875v-8.53125h2.42187q1.10938 0 1.95313.5.85937.48437 1.32812 1.39062.46875.90625.46875 2.09375v.53125q0 1.21875-.46875 2.125-.45312.90625-1.32812 1.39063-.85938.48437-2 .5zm1.125-7.60938v6.6875h1.1875q1.29687 0 2.01562-.79687.73438-.8125.73438-2.3125v-.5q0-1.45313-.6875-2.25-.67188-.8125-1.9375-.82813zm6.42187 4.375q0-.92187.35938-1.67187.375-.75 1.03125-1.14063.65625-.40625 1.48437-.40625 1.29688 0 2.09375.89063.8125.89062.8125 2.39062v.07813q0 .92187-.35937 1.65625-.35938.73437-1.01563 1.15625-.65625.40625-1.51562.40625-1.28125 0-2.09375-.89063-.79688-.90625-.79688-2.39062zm1.09375.14063q0 1.04687.48438 1.6875.5.64062 1.3125.64062.82812 0 1.3125-.64062.48437-.65625.48437-1.82813 0-1.03125-.5-1.67187-.48437-.65625-1.3125-.65625-.79687 0-1.29687.64062-.48438.625-.48438 1.82813zm11.8125 1.59375 1.21875-4.84375h1.07813l-1.84375 6.34375h-.875l-1.54688-4.8125-1.5 4.8125h-.875l-1.84375-6.34375h1.07813l1.25 4.75 1.48437-4.75h.85938zm4.40625-4.84375.03125.79687q.73438-.90625 1.90625-.90625 2.01563 0 2.03125 2.26563v4.1875h-1.09375v-4.20313q0-.67187-.3125-1-.29687-.32812-.95312-.32812-.53125 0-.9375.28125-.39063.28125-.60938.73437v4.51563h-1.07812v-6.34375z" fill="#000"/><path d="m77.13622 243.58662v5.79688q-.01562 1.20312-.76562 1.98437-.75.76563-2.03125.85938l-.3125.01562q-1.39063 0-2.23438-.75-.82812-.76562-.82812-2.09375v-5.8125h1.10937v5.78125q0 .92188.5 1.4375.51563.51563 1.45313.51563.96875 0 1.46875-.51563.5-.51562.5-1.4375v-5.78125zm7.17188 5.4375q0 1.4375-.65625 2.32813-.65625.89062-1.79688.89062-1.15625 0-1.8125-.73437v3.04687h-1.07812v-8.78125h.98437l.04688.70313q.67187-.8125 1.84375-.8125 1.14062 0 1.79687.85937.67188.85938.67188 2.39063zm-1.07813-.125q0-1.07812-.46875-1.6875-.45312-.625-1.25-.625-.98437 0-1.46875.85938v3.03125q.48438.875 1.48438.875.78125 0 1.23437-.60938.46875-.625.46875-1.84375zm8.90625-5.3125v5.79688q-.01562 1.20312-.76562 1.98437-.75.76563-2.03125.85938l-.3125.01562q-1.39063 0-2.23438-.75-.82812-.76562-.82812-2.09375v-5.8125h1.10937v5.78125q0 .92188.5 1.4375.51563.51563 1.45313.51563.96875 0 1.46875-.51563.5-.51562.5-1.4375v-5.78125zm7.17188 5.4375q0 1.4375-.65625 2.32813-.65625.89062-1.79688.89062-1.15625 0-1.8125-.73437v3.04687h-1.07812v-8.78125h.98437l.04688.70313q.67187-.8125 1.84375-.8125 1.14062 0 1.79687.85937.67188.85938.67188 2.39063zm-1.07813-.125q0-1.07812-.46875-1.6875-.45312-.625-1.25-.625-.98437 0-1.46875.85938v3.03125q.48438.875 1.48438.875.78125 0 1.23437-.60938.46875-.625.46875-1.84375z" fill="#000"/><path d="m39.120598 272.24203v-8.53123h2.421875q1.109375 0 1.953125.5.859375.48436 1.328125 1.3906.46875.90626.46875 2.09376v.53124q0 1.21876-.46875 2.125-.453125.90626-1.328125 1.39063-.859375.48437-2 .5zm1.125-7.60937v6.6875h1.1875q1.296875 0 2.015625-.79686.734375-.8125.734375-2.3125v-.5q0-1.45314-.6875-2.25-.671875-.8125-1.9375-.82814zm6.421875 4.375q0-.92186.359375-1.67186.375-.75 1.03125-1.14064.65625-.40626 1.484375-.40626 1.296875 0 2.09375.89063.8125.89063.8125 2.39063v.07814q0 .92186-.359375 1.65623-.359375.73437-1.015625 1.15627-.65625.40623-1.515625.40623-1.28125 0-2.09375-.89063-.796875-.90624-.796875-2.3906zm1.09375.14064q0 1.04686.484375 1.6875.5.6406 1.3125.6406.828125 0 1.3125-.6406.484375-.65627.484375-1.82814 0-1.03126-.5-1.67186-.484375-.65627-1.3125-.65627-.796875 0-1.296875.64063-.484375.625-.484375 1.82814zm11.8125 1.59373 1.21875-4.84373h1.078125l-1.84375 6.34373h-.875l-1.546875-4.8125-1.5 4.8125h-.875l-1.84375-6.34373h1.078125l1.25 4.75 1.484375-4.75h.859375zm4.40625-4.84373.031247.79686q.73438-.90626 1.90625-.90626 2.01563 0 2.03125 2.26563v4.1875h-1.09375v-4.20313q0-.67187-.3125-1-.29687-.3281-.95312-.3281-.53125 0-.9375.28123-.39063.28127-.60938.73437v4.51563h-1.078122v-6.34373zm6.140627 6.34373v-8.53123h2.42187q1.10938 0 1.95313.5.85937.48436 1.32812 1.3906.46875.90626.46875 2.09376v.53124q0 1.21876-.46875 2.125-.45312.90626-1.32812 1.39063-.85938.48437-2 .5zm1.125-7.60937v6.6875h1.1875q1.29687 0 2.01562-.79686.73438-.8125.73438-2.3125v-.5q0-1.45314-.6875-2.25-.67188-.8125-1.9375-.82814zm6.42187 4.375q0-.92186.35938-1.67186.375-.75 1.03125-1.14064.65625-.40626 1.48437-.40626 1.29688 0 2.09375.89063.8125.89063.8125 2.39063v.07814q0 .92186-.35937 1.65623-.35938.73437-1.01563 1.15627-.65625.40623-1.51562.40623-1.28125 0-2.09375-.89063-.79688-.90624-.79688-2.3906zm1.09375.14064q0 1.04686.48438 1.6875.5.6406 1.3125.6406.82812 0 1.3125-.6406.48437-.65627.48437-1.82814 0-1.03126-.5-1.67186-.48437-.65627-1.3125-.65627-.79687 0-1.29687.64063-.48438.625-.48438 1.82814zm11.8125 1.59373 1.21875-4.84373h1.07813l-1.84375 6.34373h-.875l-1.54688-4.8125-1.5 4.8125h-.875l-1.84375-6.34373h1.07813l1.25 4.75 1.48437-4.75h.85938zm4.40625-4.84373.03125.79686q.73438-.90626 1.90625-.90626 2.01563 0 2.03125 2.26563v4.1875h-1.09375v-4.20313q0-.67187-.3125-1-.29687-.3281-.95312-.3281-.53125 0-.9375.28123-.39063.28127-.60938.73437v4.51563h-1.07812v-6.34373z" fill="#000"/><path d="m55.120598 292.36618v-8.53125h2.421875q1.109375 0 1.953125.5.859375.48437 1.328125 1.39063.46875.90624.46875 2.09374v.53126q0 1.21874-.46875 2.125-.453125.90624-1.328125 1.39062-.859375.48438-2 .5zm1.125-7.60938v6.6875h1.1875q1.296875 0 2.015625-.79687.734375-.8125.734375-2.3125v-.5q0-1.45313-.6875-2.25-.671875-.8125-1.9375-.82813zm6.421875 4.375q0-.92187.359375-1.67187.375-.75 1.031252-1.14063.65625-.40624 1.48437-.40624 1.29688 0 2.09375.89062.8125.89062.8125 2.39062v.07813q0 .92187-.35937 1.65625-.35938.73438-1.01563 1.15625-.65625.40625-1.51562.40625-1.28125 0-2.093752-.89062-.796875-.90626-.796875-2.39063zm1.09375.14063q0 1.04687.484377 1.6875.5.64063 1.3125.64063.82812 0 1.3125-.64063.48437-.65625.48437-1.82813 0-1.03124-.5-1.67187-.48437-.65625-1.3125-.65625-.79687 0-1.29687.64062-.484377.625-.484377 1.82813zm11.812497 1.59375 1.21875-4.84375h1.07813l-1.84375 6.34375h-.875l-1.54688-4.8125-1.5 4.8125h-.875l-1.84375-6.34375h1.07813l1.25 4.75 1.48437-4.75h.85938zm4.40625-4.84375.03125.79687q.73438-.90624 1.90625-.90624 2.01563 0 2.03125 2.26562v4.1875h-1.09375v-4.20312q0-.67188-.3125-1-.29687-.32813-.95312-.32813-.53125 0-.9375.28125-.39063.28125-.60938.73438v4.51562h-1.07812v-6.34375zm12.15625-2.1875v5.79687q-.01562 1.20313-.76562 1.98438-.75.76562-2.03125.85938l-.3125.01562q-1.39063 0-2.23438-.75-.82812-.76562-.82812-2.09375v-5.8125h1.10937v5.78125q0 .92188.5 1.4375.51563.51562 1.45313.51562.96875 0 1.46875-.51562.5-.51562.5-1.4375v-5.78125zm7.17188 5.4375q0 1.4375-.65625 2.32813-.65625.89062-1.79688.89062-1.15625 0-1.8125-.73438v3.04688h-1.07812v-8.78125h.98437l.04688.70313q.67187-.8125 1.84375-.8125 1.14062 0 1.79687.85937.67188.85937.67188 2.39063zm-1.07813-.125q0-1.07813-.46875-1.6875-.45312-.625-1.25-.625-.98437 0-1.46875.85937v3.03126q.48438.875 1.48438.875.78125 0 1.23437-.60938.46875-.625.46875-1.84375z" fill="#000"/><path d="m105.6831 313.41876q0 1.57814-.54688 2.35938-.53125.76562-1.6875.76562-1.14062 0-1.6875-.75-.54687-.75-.5625-2.25v-1.20312q0-1.57814.53125-2.32814.54688-.7656 1.70313-.7656 1.15625 0 1.6875.73436.54687.73438.5625 2.26564zm-.90625-1.23436q0-1.15626-.32813-1.6719-.3125-.53124-1.01562-.53124-.6875 0-1.01563.53124-.3125.51564-.3125 1.59376v1.45314q0 1.15624.32813 1.7031.34375.5469 1.01562.5469.67188 0 .98438-.51564.32812-.51562.34375-1.625zm4.3125.90624 1.17187-1.92188h1.0625l-1.73437 2.60938 1.78125 2.67186h-1.04688l-1.21875-1.98436-1.21875 1.98436h-1.04687l1.78125-2.67186-1.73438-2.60938h1.04688z" fill="#b7b7b7"/><path d="m181.72244 312.8875.375-3.54686h3.64063v.82812h-2.875l-.21875 1.9375q.51562-.29686 1.1875-.29686.96875 0 1.53125.6406.57813.64064.57813 1.7344 0 1.09374-.59376 1.73436-.59374.625-1.65624.625-.9375 0-1.54688-.51562-.59375-.53124-.67188-1.45314h.85938q.07812.6094.42188.9219.35937.3125.9375.3125.625 0 .98437-.4219.35937-.4375.35937-1.1875 0-.71874-.39062-1.1406-.375-.4375-1.03125-.4375-.57813 0-.92187.25l-.23438.2031zm7.45313.20314 1.17187-1.92188h1.0625l-1.73437 2.60938 1.78125 2.67186h-1.04688l-1.21874-1.98436-1.21876 1.98436h-1.04687l1.78125-2.67186-1.73438-2.60938h1.04688z" fill="#b7b7b7"/><path d="m261.37115 316.45h-.90625v-6.0156l-1.82812.65624v-.8125l2.59375-.96874h.14062zm7.48438-3.03124q0 1.57814-.54688 2.35938-.53125.76562-1.6875.76562-1.14062 0-1.6875-.75-.54687-.75-.5625-2.25v-1.20312q0-1.57814.53125-2.32814.54688-.7656 1.70313-.7656 1.15625 0 1.6875.73436.54687.73438.5625 2.26564zm-.90625-1.23436q0-1.15626-.32813-1.6719-.3125-.53124-1.01562-.53124-.6875 0-1.01563.53124-.3125.51564-.3125 1.59376v1.45314q0 1.15624.32813 1.7031.34375.5469 1.01562.5469.67188 0 .98438-.51564.32812-.51562.34375-1.625zm4.3125.90624 1.17187-1.92188h1.0625l-1.73437 2.60938 1.78125 2.67186h-1.04688l-1.21875-1.98436-1.21875 1.98436h-1.04687l1.78125-2.67186-1.73438-2.60938h1.04688z" fill="#b7b7b7"/><path d="m341.4574 316.45h-.90625v-6.0156l-1.82813.65624v-.8125l2.59375-.96874h.14063zm3.4375-3.5625.375-3.54686h3.64062v.82812h-2.875l-.21875 1.9375q.51563-.29686 1.1875-.29686.96875 0 1.53125.6406.57813.64064.57813 1.7344 0 1.09374-.59375 1.73436-.59375.625-1.65625.625-.9375 0-1.54688-.51562-.59375-.53124-.67187-1.45314h.85937q.07813.6094.42188.9219.35937.3125.9375.3125.625 0 .98437-.4219.35938-.4375.35938-1.1875 0-.71874-.39063-1.1406-.375-.4375-1.03125-.4375-.57812 0-.92187.25l-.23438.2031zm7.45312.20314 1.17188-1.92188h1.0625l-1.73438 2.60938 1.78125 2.67186h-1.04687l-1.21875-1.98436-1.21875 1.98436h-1.04688l1.78125-2.67186-1.73437-2.60938h1.04687z" fill="#b7b7b7"/><path d="m423.2311 316.45h-4.65624v-.65624l2.45312-2.73436q.54688-.6094.75-1 .21875-.39064.21875-.8125 0-.5469-.34375-.90626-.32812-.35938-.89062-.35938-.67188 0-1.04688.39064-.375.375-.375 1.0625h-.90625q0-.9844.625-1.57814.64063-.60936 1.70313-.60936.98437 0 1.5625.5156.57812.51564.57812 1.39064 0 1.04686-1.34375 2.5l-1.89063 2.0625h3.5625zm5.79688-3.03124q0 1.57814-.54688 2.35938-.53124.76562-1.6875.76562-1.14062 0-1.6875-.75-.54687-.75-.5625-2.25v-1.20312q0-1.57814.53126-2.32814.54687-.7656 1.70312-.7656 1.15625 0 1.6875.73436.54688.73438.5625 2.26564zm-.90625-1.23436q0-1.15626-.32813-1.6719-.3125-.53124-1.01562-.53124-.6875 0-1.01562.53124-.3125.51564-.3125 1.59376v1.45314q0 1.15624.32812 1.7031.34375.5469 1.01562.5469.67188 0 .98438-.51564.32812-.51562.34375-1.625zm4.3125.90624 1.17187-1.92188h1.0625l-1.73437 2.60938 1.78125 2.67186h-1.04688l-1.21874-1.98436-1.21876 1.98436h-1.04687l1.78125-2.67186-1.73438-2.60938h1.04688z" fill="#b7b7b7"/><path d="m446.45 54.916668c0-.552284.4477-1 1-1h10c.5523 0 1 .447716 1 1v9.999996c0 .552286-.4477 1-1 1h-10c-.5523 0-1-.447714-1-1z" fill="#4285f4"/><path d="m469.95 62.541668 2.2344-6.453125h1.125l-2.90626 7.828125h-.90624l-2.89064-7.828125h1.10938zm8.89064-4.40625q0 .59375-.3125 1.046875-.29688.453125-.82814.71875.6094.25.96876.765625.35938.5.35938 1.140625 0 1.015625-.6875 1.625-.6875.593757-1.79688.593757-1.14062 0-1.8125-.593757-.67186-.609375-.67186-1.625 0-.640625.34374-1.140625.34376-.515625.95312-.78125-.51562-.25-.82812-.703125-.29688-.46875-.29688-1.046875 0-.984375.625-1.5625.64064-.578125 1.6875-.578125 1.03124 0 1.65624.578125.64064.578125.64064 1.5625zm-.8125 3.65625q0-.65625-.42188-1.0625-.40626-.421875-1.07812-.421875-.67188 0-1.07814.40625-.40624.40625-.40624 1.078125 0 .65625.39064 1.046875.40624.375 1.10936.375.6875 0 1.07814-.375.40624-.390625.40624-1.046875zm-1.48438-4.984375q-.59376 0-.95312.359375-.35938.359375-.35938.984375 0 .59375.35938.96875.35936.359375.95312.359375.59374 0 .95314-.359375.35936-.375.35936-.96875 0-.59375-.375-.96875-.375-.375-.9375-.375zm12.21874.140625h-2.5156v6.96875h-1.03126v-6.96875h-2.5v-.859375h6.04686zm1.1719 4.015625q0-.859375.3281-1.53125.34376-.6875.9375-1.0625.6094-.375 1.375-.375 1.1875 0 1.9219.828125.73436.8125.73436 2.1875v.0625q0 .84375-.32812 1.53125-.32814.671875-.9375 1.046875-.59374.375007-1.375.375007-1.1875 0-1.92188-.812507-.73436-.828125-.73436-2.1875zm1 .109375q0 .96875.4531 1.5625.45314.578125 1.20314.578125.75 0 1.1875-.59375.45312-.59375.45312-1.65625 0-.96875-.45312-1.5625-.45314-.59375-1.20314-.59375-.73436 0-1.1875.59375-.4531.578125-.4531 1.671875zm8.0781-2.078125q-.23436-.03125-.48436-.03125-.98438 0-1.32814.828125v4.125h-1v-5.8125h.96876l.01564.671875q.48436-.78125 1.3906-.78125.28126 0 .4375.078125zm.95314 1.96875q0-1.375.625-2.171875.625-.796875 1.6875-.796875 1.03126 0 1.625.703125l.04686-.59375h.90626v8.046882h-.98436v-2.765632q-.6094.640632-1.6094.640632-1.04686 0-1.67186-.812507-.625-.828125-.625-2.1875zm.98436.109375q0 1 .4219 1.578125.42186.5625 1.1406.5625.89064 0 1.3594-.78125v-2.84375q-.4844-.78125-1.34376-.78125-.71874 0-1.15624.578125-.4219.578125-.4219 1.6875zm8.84376 2.265625q-.57812.687507-1.70312.687507-.9375 0-1.42188-.531257-.48436-.546875-.48436-1.609375v-3.78125h.98436v3.75q0 1.328125 1.07814 1.328125 1.1406 0 1.5156-.84375v-4.234375h1v5.8125h-.9531zm4.8125.687507q-1.17186 0-1.92186-.765632-.7344-.78125-.7344-2.09375v-.171875q0-.875.32814-1.546875.32812-.6875.92186-1.0625.59376-.390625 1.2969-.390625 1.125 0 1.75.75.6406.75.6406 2.140625v.40625h-3.9375q.01564.859375.4844 1.390625.48436.53125 1.23436.53125.53124 0 .89064-.21875.35936-.21875.6406-.5625l.6094.46875q-.7344 1.125007-2.20314 1.125007zm-.10936-5.218757q-.6094 0-1.01564.4375-.40626.4375-.5 1.234375h2.90624v-.078125q-.04686-.75-.42186-1.171875-.35938-.421875-.96874-.421875zm12.42186 1.609375h-5.375v-.8125h5.375zm9.84374-3.46875h-2.5156v6.96875h-1.03126v-6.96875h-2.5v-.859375h6.04686zm2.51564 6.96875h-.98438v-5.8125h.98438zm-1.07814-7.359375q0-.234375.14064-.390625.15626-.171875.45312-.171875.29688 0 .4375.171875.15624.15625.15624.40625 0 .234375-.15624.390625-.14062.15625-.4375.15625-.29686 0-.45312-.15625-.14064-.15625-.14064-.40625zm3.9375 1.546875.03126.640625q.64064-.75 1.71874-.75 1.21876 0 1.65626.9375.29688-.421875.75-.671875.46874-.265625 1.10938-.265625 1.90626 0 1.9375 2.03125v3.890625h-.98438v-3.828125q0-.625-.29686-.9375-.28126-.3125-.95314-.3125-.54686 0-.92186.328125-.3594.328125-.4219.890625v3.859375h-1v-3.8125q0-1.265625-1.23436-1.265625-.98438 0-1.34374.828125v4.25h-.9844v-5.8125zm12.45314 4.265625q0-.390625-.3125-.609375-.29688-.234375-1.0625-.390625-.75-.171875-1.1875-.390625-.4375-.21875-.65624-.53125-.21876-.3125-.21876-.75 0-.71875.60936-1.203125.6094-.5 1.5469-.5.98436 0 1.59374.515625.625.5.625 1.296875h-1q0-.40625-.34374-.703125-.34376-.296875-.875-.296875-.5469 0-.8594.25-.29686.234375-.29686.609375 0 .359375.28126.546875.28124.171875 1.03124.34375.75.171875 1.20312.40625.46874.21875.6875.546875.21874.328125.21874.796875 0 .78125-.625 1.25-.60936.468757-1.60936.468757-.70314 0-1.23438-.250007-.53126-.25-.84376-.6875-.29686-.4375-.29686-.953125h.98436q.03126.484375.40626.78125.375.296875.98438.296875.5625 0 .90626-.21875.34374-.234375.34374-.625zm2.34376-1.40625q0-.859375.3281-1.53125.34376-.6875.9375-1.0625.6094-.375 1.375-.375 1.1875 0 1.9219.828125.73436.8125.73436 2.1875v.0625q0 .84375-.32812 1.53125-.32814.671875-.9375 1.046875-.59374.375007-1.375.375007-1.1875 0-1.92188-.812507-.73436-.828125-.73436-2.1875zm1 .109375q0 .96875.4531 1.5625.45314.578125 1.20314.578125.75 0 1.1875-.59375.45312-.59375.45312-1.65625 0-.96875-.45312-1.5625-.45314-.59375-1.20314-.59375-.73436 0-1.1875.59375-.4531.578125-.4531 1.671875zm8.0781-2.078125q-.23436-.03125-.48436-.03125-.98438 0-1.32814.828125v4.125h-1v-5.8125h.96876l.01564.671875q.48436-.78125 1.3906-.78125.28126 0 .4375.078125zm2.53126-2.296875v1.40625h1.09374v.765625h-1.09374v3.609375q0 .34375.14064.53125.15624.171875.5.171875.17186 0 .48436-.078125v.8125q-.40626.109382-.76562.109382-.67188 0-1.01564-.406257-.3281-.40625-.3281-1.140625v-3.609375h-1.0625v-.765625h1.0625v-1.40625z" fill="#666"/><path d="m446.45 78.916664c0-.552284.4477-1 1-1h10c.5523 0 1 .447716 1 1v10c0 .552286-.4477 1-1 1h-10c-.5523 0-1-.447714-1-1z" fill="#1c4587"/><path d="m470.6375 80.08854h1.03126v5.546874q0 1.125-.67186 1.765626-.6719.625-1.7969.625-1.17186 0-1.8281-.59375-.64064-.59375-.64064-1.671876h1.03124q0 .671876.3594 1.046876.375.375 1.0781.375.64064 0 1.03126-.40625.39064-.40625.40624-1.125zm6.15626 7.828124q-.09376-.171874-.14062-.609374-.70314.71875-1.65624.71875-.8594 0-1.4219-.484376-.54686-.484374-.54686-1.234374 0-.90625.6875-1.40625.70312-.515626 1.95312-.515626h.96874v-.453124q0-.515626-.3125-.828126-.3125-.3125-.92186-.3125-.53124 0-.89064.28125-.35936.265626-.35936.640626h-1q0-.4375.3125-.84375.3125-.40625.82812-.640626.53124-.234374 1.17188-.234374 1 0 1.5625.5.57812.5.59376 1.390624v2.671876q0 .796874.2031 1.265624v.09375zm-1.65626-.75q.46876 0 .89064-.234374.42186-.25.60936-.640626v-1.1875h-.78124q-1.82812 0-1.82812 1.0625 0 .46875.3125.734376.3125.265624.79686.265624zm5.9844-.59375 1.4375-4.46875h1.0156l-2.0781 5.8125h-.76564l-2.10936-5.8125h1.0156zm6.67186 1.34375q-.09376-.171874-.14062-.609374-.70314.71875-1.65624.71875-.8594 0-1.4219-.484376-.54686-.484374-.54686-1.234374 0-.90625.6875-1.40625.70312-.515626 1.95312-.515626h.96874v-.453124q0-.515626-.3125-.828126-.3125-.3125-.92186-.3125-.53124 0-.89064.28125-.35936.265626-.35936.640626h-1q0-.4375.3125-.84375.3125-.40625.82812-.640626.53124-.234374 1.17188-.234374 1 0 1.5625.5.57812.5.59376 1.390624v2.671876q0 .796874.2031 1.265624v.09375zm-1.65626-.75q.46876 0 .89064-.234374.42186-.25.60936-.640626v-1.1875h-.78124q-1.82812 0-1.82812 1.0625 0 .46875.3125.734376.3125.265624.79686.265624zm6.53126-2.734374q-1.32812-.390626-1.9375-.9375-.60936-.5625-.60936-1.375 0-.921876.73436-1.515626.75-.609374 1.92188-.609374.8125 0 1.4375.3125.64062.296874.98436.859374.34376.546876.34376 1.1875h-1.03126q0-.703124-.4531-1.109374-.45314-.40625-1.28126-.40625-.75 0-1.1875.34375-.42188.328124-.42188.921874 0 .484376.40624.8125.40626.328126 1.375.609376.9844.265624 1.53126.59375.54688.328124.8125.78125.26564.4375.26564 1.03125 0 .953124-.75 1.53125-.7344.5625-1.96876.5625-.8125 0-1.51564-.3125-.6875-.3125-1.0625-.84375-.375-.53125-.375-1.21875h1.03126q0 .703124.51564 1.125.53124.40625 1.40624.40625.8125 0 1.25-.328126.4375-.34375.4375-.90625 0-.578124-.40624-.890624-.40626-.328126-1.45314-.625zm6.85938 2.78125q.53126 0 .92186-.3125.40626-.328126.45314-.8125h.9375q-.03124.5-.34374.953124-.3125.4375-.84376.71875-.53124.265626-1.125.265626-1.1875 0-1.89064-.796876-.6875-.796874-.6875-2.171874v-.15625q0-.859376.3125-1.515626.3125-.65625.89064-1.015624.57812-.375 1.375-.375.98436 0 1.625.59375.64062.578124.6875 1.515624h-.9375q-.04688-.5625-.4375-.921874-.375-.375-.9375-.375-.75 0-1.17188.546874-.42186.546876-.42186 1.578126v.1875q0 1.015624.40624 1.5625.42186.53125 1.1875.53125zm6.48436-4.21875q-.23436-.03125-.48436-.03125-.98438 0-1.32814.828124v4.125h-1v-5.8125h.96876l.01564.671876q.48436-.78125 1.3906-.78125.28126 0 .4375.078124zm2.26564 4.921874h-.98438v-5.8125h.98438zm-1.07814-7.359374q0-.234376.14064-.390626.15626-.171874.45312-.171874.29688 0 .4375.171874.15624.15625.15624.40625 0 .234376-.15624.390626-.14062.15625-.4375.15625-.29686 0-.45312-.15625-.14064-.15625-.14064-.40625zm7.90626 4.515624q0 1.328126-.60936 2.140626-.59376.8125-1.64064.8125-1.04686 0-1.65626-.671876v2.796876h-1v-8.046876h.90626l.04688.640626q.60936-.75 1.6875-.75 1.04686 0 1.65626.796874.60936.78125.60936 2.1875zm-.98436-.109374q0-.984376-.4219-1.546876-.42186-.578124-1.15624-.578124-.89062 0-1.34376.796874v2.78125q.4375.796876 1.3594.796876.71874 0 1.1406-.5625.4219-.578126.4219-1.6875zm3.42186-4.265626v1.40625h1.09374v.765626h-1.09374v3.609374q0 .34375.14064.53125.15624.171876.5.171876.17186 0 .48436-.078126v.8125q-.40626.109376-.76562.109376-.67188 0-1.01564-.40625-.3281-.40625-.3281-1.140626v-3.609374h-1.0625v-.765626h1.0625v-1.40625zm11.375 3.71875h-5.375v-.8125h5.375zm10.40624-.15625q0 1.125-.35936 1.953126-.35938.8125-1 1.28125l1.39062 1.09375-.70312.65625-1.64064-1.3125q-.3906.09375-.8281.09375-.9219 0-1.64064-.453126-.70312-.453124-1.10936-1.296874-.39064-.84375-.40626-1.953126v-.5625q0-1.125.39062-1.984374.40624-.875 1.10938-1.328126.71876-.453124 1.65626-.453124.9375 0 1.65624.453124.71876.453126 1.09376 1.3125.3906.859376.3906 2zm-1.03124-.5q0-1.390624-.54686-2.140624-.5469-.75-1.5625-.75-.9844 0-1.5469.75-.54686.75-.5781 2.0625v.578124q0 1.34375.5625 2.125.5625.765626 1.5625.765626 1 0 1.54686-.71875.54688-.734376.5625-2.09375zm6.5 3.578126q-.57812.6875-1.70312.6875-.9375 0-1.42188-.53125-.48436-.546876-.48436-1.609376v-3.78125h.98436v3.75q0 1.328126 1.07814 1.328126 1.1406 0 1.5156-.84375v-4.234376h1v5.8125h-.9531zm3.48438.578124h-.98438v-5.8125h.98438zm-1.07814-7.359374q0-.234376.14064-.390626.15626-.171874.45312-.171874.29688 0 .4375.171874.15624.15625.15624.40625 0 .234376-.15624.390626-.14062.15625-.4375.15625-.29686 0-.45312-.15625-.14064-.15625-.14064-.40625zm5.32814 6.65625q.53126 0 .92186-.3125.40626-.328126.45314-.8125h.9375q-.03124.5-.34374.953124-.3125.4375-.84376.71875-.53124.265626-1.125.265626-1.1875 0-1.89064-.796876-.6875-.796874-.6875-2.171874v-.15625q0-.859376.3125-1.515626.3125-.65625.89064-1.015624.57812-.375 1.375-.375.98436 0 1.625.59375.64062.578124.6875 1.515624h-.9375q-.04688-.5625-.4375-.921874-.375-.375-.9375-.375-.75 0-1.17188.546874-.42186.546876-.42186 1.578126v.1875q0 1.015624.40624 1.5625.42186.53125 1.1875.53125zm5.29686-1.984376-.625.640626v2.046874h-1v-8.25h1v4.984376l.53126-.640626 1.8125-1.90625h1.20314l-2.25 2.421876 2.5156 3.390624h-1.15624zm7.76564 1.140626q0-.390626-.3125-.609376-.29688-.234374-1.0625-.390624-.75-.171876-1.1875-.390626-.4375-.21875-.65624-.53125-.21876-.3125-.21876-.75 0-.71875.60936-1.203124.6094-.5 1.5469-.5.98436 0 1.59374.515624.625.5.625 1.296876h-1q0-.40625-.34374-.703126-.34376-.296874-.875-.296874-.5469 0-.8594.25-.29686.234374-.29686.609374 0 .359376.28126.546876.28124.171874 1.03124.34375.75.171874 1.20312.40625.46874.21875.6875.546874.21874.328126.21874.796876 0 .78125-.625 1.25-.60936.46875-1.60936.46875-.70314 0-1.23438-.25-.53126-.25-.84376-.6875-.29686-.4375-.29686-.953126h.98436q.03126.484376.40626.78125.375.296876.98438.296876.5625 0 .90626-.21875.34374-.234376.34374-.625zm2.34376-1.40625q0-.859376.3281-1.53125.34376-.6875.9375-1.0625.6094-.375 1.375-.375 1.1875 0 1.9219.828124.73436.8125.73436 2.1875v.0625q0 .84375-.32812 1.53125-.32814.671876-.9375 1.046876-.59374.375-1.375.375-1.1875 0-1.92188-.8125-.73436-.828126-.73436-2.1875zm1 .109374q0 .96875.4531 1.5625.45314.578126 1.20314.578126.75 0 1.1875-.59375.45312-.59375.45312-1.65625 0-.96875-.45312-1.5625-.45314-.59375-1.20314-.59375-.73436 0-1.1875.59375-.4531.578124-.4531 1.671874zm8.0781-2.078124q-.23436-.03125-.48436-.03125-.98438 0-1.32814.828124v4.125h-1v-5.8125h.96876l.01564.671876q.48436-.78125 1.3906-.78125.28126 0 .4375.078124zm2.53126-2.296876v1.40625h1.09374v.765626h-1.09374v3.609374q0 .34375.14064.53125.15624.171876.5.171876.17186 0 .48436-.078126v.8125q-.40626.109376-.76562.109376-.67188 0-1.01564-.40625-.3281-.40625-.3281-1.140626v-3.609374h-1.0625v-.765626h1.0625v-1.40625z" fill="#666"/><path d="m22.221874 22.753124 4.171876 10.4375 4.1875-10.4375h2.1875v12.796876h-1.6875v-4.984376l.15625-5.375-4.203126 10.359376h-1.28125l-4.203124-10.34375.171874 5.359374v4.984376h-1.6875v-12.796876zm15.328126 12.796876h-1.625v-9.515626h1.625zm-1.765626-12.03125q0-.390626.234376-.65625.25-.28125.71875-.28125.484374 0 .734374.28125.25.265624.25.65625 0 .390624-.25.65625-.25.265624-.734374.265624-.46875 0-.71875-.265624-.234376-.265626-.234376-.65625zm7.8125 10.875q.875 0 1.515626-.515626.65625-.53125.71875-1.328124h1.546874q-.046874.8125-.5625 1.5625-.515624.734374-1.390624 1.171874-.859376.4375-1.828126.4375-1.9375 0-3.09375-1.296874-1.140624-1.296876-1.140624-3.546876v-.265624q0-1.390626.5-2.46875.515624-1.078126 1.46875-1.671876.953124-.609374 2.25-.609374 1.609374 0 2.65625.96875 1.0625.953124 1.140624 2.484374h-1.546874q-.0625-.921874-.703126-1.515624-.625-.59375-1.546874-.59375-1.234376 0-1.921876.890624-.671874.890626-.671874 2.578126v.296874q0 1.65625.671874 2.546876.671876.875 1.9375.875zm9.78125-6.890626q-.375-.0625-.796874-.0625-1.609376 0-2.171876 1.359376v6.75h-1.625v-9.515626h1.578126l.03125 1.109376q.796874-1.28125 2.265624-1.28125.46875 0 .71875.125zm.96875 3.203126q0-1.390626.546876-2.5.5625-1.125 1.53125-1.734376.984374-.609374 2.234374-.609374 1.953126 0 3.140626 1.34375 1.203124 1.34375 1.203124 3.578124v.109376q0 1.390624-.53125 2.5-.53125 1.09375-1.515624 1.71875-.984376.609374-2.265626.609374-1.9375 0-3.140624-1.34375-1.203126-1.34375-1.203126-3.5625zm1.640626.1875q0 1.59375.734374 2.546874.734376.953126 1.96875.953126 1.234376 0 1.953126-.96875.734374-.96875.734374-2.71875 0-1.5625-.75-2.53125-.734374-.96875-1.96875-.96875-1.203124 0-1.9375.953124-.734374.953126-.734374 2.734376zm16.84375 0q0 2.1875-1 3.515624-1 1.3125-2.6875 1.3125-1.8125 0-2.79687-1.265624l-.07813 1.09375h-1.48437v-13.5h1.625v5.03125q.98437-1.21875 2.70312-1.21875 1.73438 0 2.71875 1.3125 1 1.3125 1 3.578124zm-1.625-.171876q0-1.671874-.64062-2.578124-.64063-.90625-1.84375-.90625-1.60938 0-2.3125 1.5v4.109374q.75 1.5 2.32812 1.5 1.17188 0 1.8125-.90625.65625-.90625.65625-2.71875zm7.51563 5q-1.92188 0-3.14063-1.265624-1.21875-1.265626-1.21875-3.390626v-.3125q0-1.40625.54688-2.515624.54687-1.109376 1.51562-1.734376.96875-.640624 2.09375-.640624 1.85938 0 2.89063 1.21875 1.03125 1.21875 1.03125 3.5v.671874h-6.45313q.04688 1.40625.82813 2.28125.78125.859376 2 .859376.85937 0 1.45312-.34375.60938-.359376 1.04688-.9375l1 .78125q-1.20313 1.828124-3.59375 1.828124zm-.20313-8.515624q-.98437 0-1.65625.71875-.65625.703124-.8125 2h4.76563v-.125q-.07813-1.234376-.67188-1.90625-.59375-.6875-1.625-.6875zm7.79688-1.171876.0625 1.203126q1.07812-1.375 2.84375-1.375 3.01562 0 3.03125 3.40625v6.28125h-1.625v-6.296876q0-1.03125-.46875-1.515624-.45313-.5-1.4375-.5-.78125 0-1.39063.421874-.59375.421876-.92187 1.109376v6.78125h-1.625v-9.515626zm12.28125 8.359376q.875 0 1.51562-.515626.65625-.53125.71875-1.328124h1.54688q-.04688.8125-.5625 1.5625-.51563.734374-1.39063 1.171874-.85937.4375-1.82812.4375-1.9375 0-3.09375-1.296874-1.14063-1.296876-1.14063-3.546876v-.265624q0-1.390626.5-2.46875.51563-1.078126 1.46875-1.671876.95313-.609374 2.25-.609374 1.60938 0 2.65625.96875 1.0625.953124 1.14063 2.484374h-1.54688q-.0625-.921874-.70312-1.515624-.625-.59375-1.54688-.59375-1.23437 0-1.92187.890624-.67188.890626-.67188 2.578126v.296874q0 1.65625.67188 2.546876.67187.875 1.9375.875zm6.8125-7.203126q1.07812-1.328124 2.8125-1.328124 3.01562 0 3.03125 3.40625v6.28125h-1.625v-6.296876q0-1.03125-.46875-1.515624-.45313-.5-1.4375-.5-.78125 0-1.39063.421874-.59375.421876-.92187 1.109376v6.78125h-1.625v-13.5h1.625zm9.90625-1.15625.03125 1.0625q1.04687-1.234374 2.82812-1.234374 2 0 2.71875 1.53125.46875-.6875 1.23438-1.109376.76562-.421874 1.79687-.421874 3.125 0 3.1875 3.3125v6.375h-1.64062v-6.28125q0-1.015626-.46875-1.515626-.45313-.515624-1.54688-.515624-.90625 0-1.51562.546874-.59375.546876-.6875 1.453126v6.3125h-1.64063v-6.234376q0-2.078124-2.03125-2.078124-1.59375 0-2.1875 1.375v6.9375h-1.625v-9.515626zm20.34375 9.515626q-.14063-.28125-.23438-1-1.14062 1.171874-2.70312 1.171874-1.40625 0-2.3125-.796874-.90625-.796876-.90625-2.015626 0-1.484374 1.125-2.296874 1.14062-.828126 3.1875-.828126h1.57812v-.75q0-.84375-.51562-1.34375-.5-.515624-1.5-.515624-.85938 0-1.45313.4375-.59375.4375-.59375 1.0625h-1.625q0-.703126.5-1.359376.5-.671874 1.35938-1.0625.875-.390624 1.92187-.390624 1.64063 0 2.5625.828124.9375.8125.96875 2.265626v4.375q0 1.296874.34375 2.078124v.140626zm-2.70313-1.234376q.76563 0 1.45313-.390624.6875-.40625.98437-1.03125v-1.953126h-1.26562q-3 0-3 1.75 0 .765626.51562 1.203126.51563.421874 1.3125.421874zm11.42188-6.8125q-.375-.0625-.79688-.0625-1.60937 0-2.17187 1.359376v6.75h-1.625v-9.515626h1.57812l.03125 1.109376q.79688-1.28125 2.26563-1.28125.46875 0 .71875.125zm4.0625 3.640626-1.03125 1.0625v3.34375h-1.625v-13.5h1.625v8.171874l.875-1.046874 2.96875-3.140626h1.96875l-3.70313 3.984376 4.14063 5.53125h-1.90625zm6.375 3.546874q0-.421874.25-.703124.25-.28125.75-.28125.5 0 .75.28125.26562.28125.26562.703124 0 .40625-.26562.6875-.25.265626-.75.265626-.5 0-.75-.265626-.25-.28125-.25-.6875zm0-8q0-.421874.25-.703124.25-.28125.75-.28125.5 0 .75.28125.26562.28125.26562.703124 0 .40625-.26562.6875-.25.265626-.75.265626-.5 0-.75-.265626-.25-.28125-.25-.6875zm9.90625 3.84375v5.015626h-1.6875v-12.796876h4.71875q2.10937 0 3.29687 1.078126 1.1875 1.0625 1.1875 2.828124 0 1.875-1.17187 2.875-1.15625 1-3.32813 1zm0-1.375h3.03125q1.35937 0 2.07812-.640624.71875-.640626.71875-1.84375 0-1.140626-.71875-1.8125-.71875-.6875-1.98437-.71875h-3.125zm13.65625-1.65625q-.375-.0625-.79688-.0625-1.60937 0-2.17187 1.359376v6.75h-1.625v-9.515626h1.57812l.03125 1.109376q.79688-1.28125 2.26563-1.28125.46875 0 .71875.125zm5.34375 8.21875q-1.92188 0-3.14063-1.265624-1.21875-1.265626-1.21875-3.390626v-.3125q0-1.40625.54688-2.515624.54687-1.109376 1.51562-1.734376.96875-.640624 2.09375-.640624 1.85938 0 2.89063 1.21875 1.03125 1.21875 1.03125 3.5v.671874h-6.45313q.04688 1.40625.82813 2.28125.78125.859376 2 .859376.85937 0 1.45312-.34375.60938-.359376 1.04688-.9375l1 .78125q-1.20313 1.828124-3.59375 1.828124zm-.20313-8.515624q-.98437 0-1.65625.71875-.65625.703124-.8125 2h4.76563v-.125q-.07813-1.234376-.67188-1.90625-.59375-.6875-1.625-.6875zm11.79688 5.828124q0-.671874-.5-1.03125-.48438-.359374-1.71875-.625-1.23438-.265624-1.96875-.625-.71875-.375-1.07813-.890624-.34375-.515626-.34375-1.21875 0-1.15625.98438-1.96875 1-.8125 2.53125-.8125 1.625 0 2.625.84375 1.01562.828124 1.01562 2.125h-1.64062q0-.671876-.57813-1.140626-.5625-.484374-1.42187-.484374-.89063 0-1.39063.390624-.5.375-.5 1 0 .59375.46875.890626.46875.296874 1.6875.578124 1.21875.265626 1.96875.640626.76563.375 1.125.90625.35938.53125.35938 1.296874 0 1.28125-1.01563 2.046876-1.01562.765624-2.64062.765624-1.14063 0-2.03125-.40625-.875-.40625-1.375-1.125-.5-.71875-.5-1.5625h1.64062q.03125.8125.64063 1.296876.625.46875 1.625.46875.92187 0 1.46875-.375.5625-.375.5625-.984376zm3.03125-2.328124q0-1.390626.54687-2.5.5625-1.125 1.53125-1.734376.98438-.609374 2.23438-.609374 1.95312 0 3.14062 1.34375 1.20313 1.34375 1.20313 3.578124v.109376q0 1.390624-.53125 2.5-.53125 1.09375-1.51563 1.71875-.98437.609374-2.26562.609374-1.9375 0-3.14063-1.34375-1.20312-1.34375-1.20312-3.5625zm1.64062.1875q0 1.59375.73438 2.546874.73437.953126 1.96875.953126 1.23437 0 1.95312-.96875.73438-.96875.73438-2.71875 0-1.5625-.75-2.53125-.73438-.96875-1.96875-.96875-1.20313 0-1.9375.953124-.73438.953126-.73438 2.734376zm13.39063-3.390626q-.375-.0625-.79688-.0625-1.60937 0-2.17187 1.359376v6.75h-1.625v-9.515626h1.57812l.03125 1.109376q.79688-1.28125 2.26563-1.28125.46875 0 .71875.125zm3.60937-3.765624v2.296874h1.78125v1.265626h-1.78125v5.890624q0 .578126.23438.859376.23437.28125.8125.28125.28125 0 .76562-.09375v1.3125q-.64062.171874-1.23437.171874-1.09375 0-1.65625-.65625-.54688-.65625-.54688-1.875v-5.890624h-1.73437v-1.265626h1.73437v-2.296874zm7.73438 11.984374q-1.92188 0-3.14063-1.265624-1.21875-1.265626-1.21875-3.390626v-.3125q0-1.40625.54688-2.515624.54687-1.109376 1.51562-1.734376.96875-.640624 2.09375-.640624 1.85938 0 2.89063 1.21875 1.03125 1.21875 1.03125 3.5v.671874h-6.45313q.04688 1.40625.82813 2.28125.78125.859376 2 .859376.85937 0 1.45312-.34375.60938-.359376 1.04688-.9375l1 .78125q-1.20313 1.828124-3.59375 1.828124zm-.20313-8.515624q-.98437 0-1.65625.71875-.65625.703124-.8125 2h4.76563v-.125q-.07813-1.234376-.67188-1.90625-.59375-.6875-1.625-.6875zm5.85938 3.515624q0-2.1875 1.03125-3.515624 1.04687-1.34375 2.73437-1.34375 1.67188 0 2.64063 1.140624v-4.953124h1.625v13.5h-1.5l-.07813-1.015626q-.96875 1.1875-2.70312 1.1875-1.65625 0-2.70313-1.34375-1.04687-1.359374-1.04687-3.546874zm1.64062.171876q0 1.625.65625 2.546874.67188.90625 1.84375.90625 1.54688 0 2.26563-1.390624v-4.375q-.73438-1.34375-2.23438-1.34375-1.20312 0-1.875.9375-.65625.921874-.65625 2.71875zm9.09375 5.75h-1.40625l5.34375-13.890626h1.39063zm8.60938-6.109376v5.015626h-1.6875v-12.796876h4.71875q2.10937 0 3.29687 1.078126 1.1875 1.0625 1.1875 2.828124 0 1.875-1.1719 2.875-1.15622 1-3.3281 1zm0-1.375h3.03125q1.35937 0 2.07812-.640624.71875-.640626.71875-1.84375 0-1.140626-.71875-1.8125-.71875-.6875-1.98437-.71875h-3.125zm14.93748 6.390626q-.14062-.28125-.23436-1-1.14064 1.171874-2.70314 1.171874-1.40626 0-2.3125-.796874-.90626-.796876-.90626-2.015626 0-1.484374 1.125-2.296874 1.14064-.828126 3.1875-.828126h1.57814v-.75q0-.84375-.51564-1.34375-.5-.515624-1.5-.515624-.85936 0-1.4531.4375-.59376.4375-.59376 1.0625h-1.625q0-.703126.5-1.359376.5-.671874 1.35936-1.0625.875-.390624 1.9219-.390624 1.6406 0 2.5625.828124.9375.8125.96874 2.265626v4.375q0 1.296874.34376 2.078124v.140626zm-2.70312-1.234376q.76562 0 1.45312-.390624.6875-.40625.98438-1.03125v-1.953126h-1.26564q-3 0-3 1.75 0 .765626.51564 1.203126.51562.421874 1.3125.421874zm10.64062.078126q.875 0 1.51564-.515626.65624-.53125.71874-1.328124h1.54686q-.04686.8125-.5625 1.5625-.5156.734374-1.3906 1.171874-.8594.4375-1.82814.4375-1.9375 0-3.09376-1.296874-1.1406-1.296876-1.1406-3.546876v-.265624q0-1.390626.5-2.46875.5156-1.078126 1.46874-1.671876.95312-.609374 2.25-.609374 1.60936 0 2.65626.96875 1.0625.953124 1.1406 2.484374h-1.54686q-.0625-.921874-.70314-1.515624-.625-.59375-1.54686-.59375-1.23438 0-1.92188.890624-.67186.890626-.67186 2.578126v.296874q0 1.65625.67186 2.546876.67188.875 1.9375.875zm7.84374-3.25-1.03124 1.0625v3.34375h-1.625v-13.5h1.625v8.171874l.875-1.046874 2.96874-3.140626h1.96876l-3.70312 3.984376 4.14062 5.53125h-1.90626zm10.28126 4.578124q-1.92186 0-3.14062-1.265624-1.21874-1.265626-1.21874-3.390626v-.3125q0-1.40625.54686-2.515624.54688-1.109376 1.51564-1.734376.96874-.640624 2.09374-.640624 1.85936 0 2.89062 1.21875 1.03124 1.21875 1.03124 3.5v.671874h-6.4531q.04686 1.40625.8281 2.28125.78126.859376 2 .859376.8594 0 1.45314-.34375.60936-.359376 1.04686-.9375l1 .78125q-1.2031 1.828124-3.59374 1.828124zm-.20312-8.515624q-.98438 0-1.65624.71875-.65626.703124-.8125 2h4.7656v-.125q-.0781-1.234376-.67186-1.90625-.59374-.6875-1.625-.6875zm5.85936 3.515624q0-2.1875 1.03126-3.515624 1.04688-1.34375 2.73438-1.34375 1.67186 0 2.64062 1.140624v-4.953124h1.625v13.5h-1.5l-.07812-1.015626q-.96874 1.1875-2.70314 1.1875-1.65624 0-2.7031-1.34375-1.0469-1.359374-1.0469-3.546874zm1.64064.171876q0 1.625.65626 2.546874.67186.90625 1.84374.90625 1.54686 0 2.26562-1.390624v-4.375q-.73436-1.34375-2.23436-1.34375-1.20314 0-1.875.9375-.65626.921874-.65626 2.71875zm12.78126-1.046876q-2.1719-.625-3.15626-1.53125-.98438-.90625-.98438-2.25 0-1.515624 1.20314-2.5 1.21874-.984374 3.1406-.984374 1.32814 0 2.3594.515624 1.03124.5 1.59374 1.40625.5625.890626.5625 1.953126h-1.6875q0-1.15625-.75-1.8125-.73438-.671876-2.07814-.671876-1.25 0-1.9531.546876-.6875.546874-.6875 1.515624 0 .78125.65624 1.328126.67186.546874 2.26562 1 1.59374.4375 2.48438.984374.90626.53125 1.34376 1.25.4375.71875.4375 1.703126 0 1.546874-1.21876 2.484374-1.20314.9375-3.23438.9375-1.3125 0-2.46876-.5-1.1406-.5-1.7656-1.375-.6094-.890624-.6094-2h1.70314q0 1.15625.84376 1.828126.85936.671874 2.29686.671874 1.32814 0 2.04688-.546874.71876-.546876.71876-1.484376 0-.9375-.6719-1.453124-.65624-.515626-2.3906-1.015626zm8.5156-3.8125.03126 1.0625q1.04688-1.234374 2.82814-1.234374 2 0 2.71874 1.53125.46876-.6875 1.23436-1.109376.76564-.421874 1.7969-.421874 3.125 0 3.1875 3.3125v6.375h-1.64064v-6.28125q0-1.015626-.46876-1.515626-.4531-.515624-1.54686-.515624-.90624 0-1.51564.546874-.59374.546876-.6875 1.453126v6.3125h-1.6406v-6.234376q0-2.078124-2.03126-2.078124-1.59374 0-2.1875 1.375v6.9375h-1.625v-9.515626zm16.2344 9.515626h-1.625v-9.515626h1.625zm-1.76564-12.03125q0-.390626.23438-.65625.25-.28125.71876-.28125.48436 0 .73436.28125.25.265624.25.65625 0 .390624-.25.65625-.25.265624-.73436.265624-.46876 0-.71876-.265624-.23438-.265626-.23438-.65625zm4.32814 13.125h-1.40626l5.34376-13.890626h1.3906zm15.9375-13.890626v8.703126q-.01564 1.8125-1.14064 2.96875-1.125 1.140624-3.0625 1.28125l-.45312.015624q-2.09374 0-3.34374-1.125-1.25-1.140624-1.26564-3.125v-8.71875h1.67188v8.671876q0 1.375.76562 2.15625.76564.765624 2.17188.765624 1.4375 0 2.1875-.765624.76562-.765626.76562-2.15625v-8.671876zm8.2656 10.28125q0-.671874-.5-1.03125-.48436-.359374-1.71874-.625-1.23436-.265624-1.96876-.625-.71874-.375-1.0781-.890624-.34376-.515626-.34376-1.21875 0-1.15625.98436-1.96875 1-.8125 2.53126-.8125 1.625 0 2.625.84375 1.01564.828124 1.01564 2.125h-1.64064q0-.671876-.57812-1.140626-.5625-.484374-1.42188-.484374-.89062 0-1.39062.390624-.5.375-.5 1 0 .59375.46876.890626.46874.296874 1.6875.578124 1.21874.265626 1.96874.640626.76562.375 1.125.90625.35936.53125.35936 1.296874 0 1.28125-1.0156 2.046876-1.01564.765624-2.64064.765624-1.14062 0-2.03126-.40625-.875-.40625-1.375-1.125-.5-.71875-.5-1.5625h1.64064q.03126.8125.64062 1.296876.625.46875 1.625.46875.92188 0 1.46874-.375.5625-.375.5625-.984376zm7.40626 2.6875q-1.92186 0-3.14062-1.265624-1.21874-1.265626-1.21874-3.390626v-.3125q0-1.40625.54686-2.515624.54688-1.109376 1.51564-1.734376.96874-.640624 2.09374-.640624 1.85936 0 2.89062 1.21875 1.03124 1.21875 1.03124 3.5v.671874h-6.4531q.04686 1.40625.8281 2.28125.78126.859376 2 .859376.8594 0 1.45314-.34375.60936-.359376 1.04686-.9375l1 .78125q-1.2031 1.828124-3.59374 1.828124zm-.20312-8.515624q-.98438 0-1.65624.71875-.65626.703124-.8125 2h4.7656v-.125q-.0781-1.234376-.67186-1.90625-.59374-.6875-1.625-.6875zm10.85936.296874q-.375-.0625-.79686-.0625-1.60938 0-2.17188 1.359376v6.75h-1.625v-9.515626h1.57814l.03124 1.109376q.79686-1.28125 2.26562-1.28125.46874 0 .71874.125zm9.21876 6.890626q.875 0 1.51564-.515626.65624-.53125.71874-1.328124h1.54686q-.04686.8125-.5625 1.5625-.5156.734374-1.3906 1.171874-.8594.4375-1.82814.4375-1.9375 0-3.09376-1.296874-1.1406-1.296876-1.1406-3.546876v-.265624q0-1.390626.5-2.46875.5156-1.078126 1.46874-1.671876.95312-.609374 2.25-.609374 1.60936 0 2.65626.96875 1.0625.953124 1.1406 2.484374h-1.54686q-.0625-.921874-.70314-1.515624-.625-.59375-1.54686-.59375-1.23438 0-1.92188.890624-.67186.890626-.67186 2.578126v.296874q0 1.65625.67186 2.546876.67188.875 1.9375.875zm6.71874-8.359376.03126 1.0625q1.04688-1.234374 2.82814-1.234374 2 0 2.71874 1.53125.46876-.6875 1.23436-1.109376.76564-.421874 1.7969-.421874 3.125 0 3.1875 3.3125v6.375h-1.64064v-6.28125q0-1.015626-.46876-1.515626-.4531-.515624-1.54686-.515624-.90624 0-1.51564.546874-.59374.546876-.6875 1.453126v6.3125h-1.6406v-6.234376q0-2.078124-2.03126-2.078124-1.59374 0-2.1875 1.375v6.9375h-1.625v-9.515626zm22.5 4.859376q0 2.171874-1 3.5-.98436 1.328124-2.6875 1.328124-1.73436 0-2.71874-1.09375v4.578126h-1.625v-13.171876h1.48438l.07812 1.0625q.98438-1.234374 2.76564-1.234374 1.7031 0 2.7031 1.296874 1 1.28125 1 3.59375zm-1.625-.171876q0-1.609374-.6875-2.546874-.6875-.9375-1.875-.9375-1.48436 0-2.21874 1.3125v4.546874q.73438 1.296876 2.23438 1.296876 1.17186 0 1.85936-.921876.6875-.921874.6875-2.75zm8.39064 4.828126v-8.25h-1.5v-1.265626h1.5v-.96875q0-1.53125.8125-2.359374.82812-.84375 2.3125-.84375.5625 0 1.125.15625l-.09374 1.3125q-.40626-.078126-.875-.078126-.7969 0-1.2344.46875-.42186.453126-.42186 1.3125v1h2.03126v1.265626h-2.03126v8.25zm11.07812-.9375q-.95312 1.109374-2.79686 1.109374-1.51564 0-2.3125-.875-.7969-.890624-.7969-2.625v-6.1875h1.625v6.15625q0 2.15625 1.75 2.15625 1.8594 0 2.4844-1.390624v-6.921876h1.625v9.515626h-1.5469zm5.65624-8.578126.0625 1.203126q1.07814-1.375 2.84376-1.375 3.01564 0 3.03124 3.40625v6.28125h-1.625v-6.296876q0-1.03125-.46874-1.515624-.45312-.5-1.4375-.5-.78126 0-1.39062.421874-.59374.421876-.92188 1.109376v6.78125h-1.625v-9.515626zm12.28126 8.359376q.875 0 1.51564-.515626.65624-.53125.71874-1.328124h1.54686q-.04686.8125-.5625 1.5625-.5156.734374-1.3906 1.171874-.8594.4375-1.82814.4375-1.9375 0-3.09376-1.296874-1.1406-1.296876-1.1406-3.546876v-.265624q0-1.390626.5-2.46875.5156-1.078126 1.46874-1.671876.95312-.609374 2.25-.609374 1.60936 0 2.65626.96875 1.0625.953124 1.1406 2.484374h-1.54686q-.0625-.921874-.70314-1.515624-.625-.59375-1.54686-.59375-1.23438 0-1.92188.890624-.67186.890626-.67186 2.578126v.296874q0 1.65625.67186 2.546876.67188.875 1.9375.875zm7.39064-10.65625v2.296874h1.78124v1.265626h-1.78124v5.890624q0 .578126.23436.859376.23438.28125.8125.28125.28124 0 .76564-.09375v1.3125q-.64064.171874-1.2344.171874-1.09374 0-1.65624-.65625-.54686-.65625-.54686-1.875v-5.890624h-1.7344v-1.265626h1.7344v-2.296874zm5.5625 11.8125h-1.625v-9.515626h1.625zm-1.76564-12.03125q0-.390626.23438-.65625.25-.28125.71876-.28125.48436 0 .73436.28125.25.265624.25.65625 0 .390624-.25.65625-.25.265624-.73436.265624-.46876 0-.71876-.265624-.23438-.265626-.23438-.65625zm3.5625 7.1875q0-1.390626.54688-2.5.5625-1.125 1.53126-1.734376.98436-.609374 2.23436-.609374 1.95314 0 3.14064 1.34375 1.2031 1.34375 1.2031 3.578124v.109376q0 1.390624-.53124 2.5-.53126 1.09375-1.51562 1.71875-.98438.609374-2.26564.609374-1.9375 0-3.1406-1.34375-1.20314-1.34375-1.20314-3.5625zm1.64064.1875q0 1.59375.73436 2.546874.73438.953126 1.96874.953126 1.2344 0 1.95314-.96875.73436-.96875.73436-2.71875 0-1.5625-.75-2.53125-.73436-.96875-1.96874-.96875-1.20312 0-1.9375.953124-.73436.953126-.73436 2.734376zm10.3281-4.859376.0625 1.203126q1.07814-1.375 2.84376-1.375 3.01564 0 3.03124 3.40625v6.28125h-1.625v-6.296876q0-1.03125-.46874-1.515624-.45312-.5-1.4375-.5-.78126 0-1.39062.421874-.59374.421876-.92188 1.109376v6.78125h-1.625v-9.515626z" fill="#000"/></svg>