<svg fill="none" stroke-linecap="square" stroke-miterlimit="10" viewBox="0 0 815.26771654 297.60892388" xmlns="http://www.w3.org/2000/svg" xmlns:xlink="http://www.w3.org/1999/xlink"><clipPath id="a"><path d="m0 0h815.2677v297.60892h-815.2677z"/></clipPath><g clip-path="url(#a)"><path d="m0 0h815.2677v297.60892h-815.2677z" fill="none"/><g stroke="#000" stroke-linecap="butt" stroke-width="2"><path d="m144.58488 23.733595v43.196846"/><path d="m224.85522 23.733595v43.196846"/><path d="m353.1859 23.733595v43.196846"/><path d="m508.81586 23.733595v43.196846"/><path d="m589.10455 23.733595v43.196846"/><path d="m674.84735 23.733595v43.196846"/><path d="m803.4589 23.733595v43.196846"/><path d="m143.58488 24.733595h660.874"/><path d="m143.58488 65.93044h660.874"/></g><path d="m163.49113 46.57547q0 1.265625-.296875 2.25-.28125.984375-.828125 1.65625-.546875.65625-1.34375 1.015625-.78125.34375-1.8125.34375-1 0-1.796875-.34375-.796875-.359375-1.359375-1.015625-.5625-.671875-.859375-1.65625-.28125-.984375-.28125-2.25v-3.109375q0-1.265625.28125-2.234375.296875-.984375.84375-1.65625.546875-.671875 1.34375-1.015625.796875-.359375 1.8125-.359375 1.015625 0 1.8125.359375.796875.34375 1.34375 1.015625.5625.671875.84375 1.65625.296875.96875.296875 2.234375zm-6.890625-.328125 5.171875-3.96875q-.15625-1.3125-.78125-2-.625-.6875-1.796875-.6875-1.328125 0-1.96875.890625-.625.890625-.625 2.625zm5.203125-2.359375-5.15625 3.953125q.15625 1.28125.78125 1.953125.640625.671875 1.78125.671875 1.34375 0 1.96875-.90625.625-.90625.625-2.625zm7.492447 6.671875q0-.265625.078125-.5.09375-.25.25-.421875.171875-.1875.421875-.28125.25-.09375.578125-.09375.328125 0 .578125.09375.25.09375.40625.28125.171875.171875.25.421875.09375.234375.09375.5 0 .265625-.09375.5-.078125.234375-.25.40625-.15625.171875-.40625.265625-.25.09375-.578125.09375-.328125 0-.578125-.09375-.25-.09375-.421875-.265625-.15625-.171875-.25-.40625-.078125-.234375-.078125-.5zm0-8q0-.265625.078125-.5.09375-.25.25-.421875.171875-.1875.421875-.28125.25-.09375.578125-.09375.328125 0 .578125.09375.25.09375.40625.28125.171875.171875.25.421875.09375.234375.09375.5 0 .265625-.09375.5-.078125.234375-.25.40625-.15625.171875-.40625.265625-.25.09375-.578125.09375-.328125 0-.578125-.09375-.25-.09375-.421875-.265625-.15625-.171875-.25-.40625-.078125-.234375-.078125-.5zm26.297394 4.640625h1.84375v1.375h-1.84375v3.078125h-1.6875v-3.078125h-6.046875v-1l5.9375-9.1875h1.796875zm-5.875 0h4.1875v-6.5625l-.28125.5zm18.367447 4.453125h-8.6875v-1.21875l4.34375-4.828125q.578125-.640625.96875-1.140625.390625-.5.625-.921875.25-.421875.34375-.796875.109375-.390625.109375-.78125 0-.5-.171875-.921875-.15625-.4375-.46875-.75-.296875-.328125-.734375-.515625-.421875-.1875-.96875-.1875-.671875 0-1.15625.203125-.484375.1875-.8125.53125-.328125.34375-.484375.859375-.15625.5-.15625 1.109375h-1.6875q0-.828125.28125-1.5625.296875-.75.84375-1.3125.546875-.5625 1.34375-.890625.796875-.328125 1.828125-.328125.9375 0 1.6875.28125.75.28125 1.265625.78125.515625.484375.796875 1.15625.28125.671875.28125 1.46875 0 .59375-.203125 1.171875-.203125.578125-.546875 1.140625-.328125.5625-.78125 1.125-.453125.546875-.953125 1.09375l-3.5625 3.859375h6.65625z" fill="#000"/><path d="m240.9021 51.653595h-1.6875v-11.109375l-3.46875 1.3125v-1.53125l5.03125-1.9375h.125zm8.664322-1.09375q0-.265625.078125-.5.09375-.25.25-.421875.171875-.1875.421875-.28125.25-.09375.578125-.09375.328125 0 .578125.09375.25.09375.40625.28125.171875.171875.25.421875.09375.234375.09375.5 0 .265625-.09375.5-.078125.234375-.25.40625-.15625.171875-.40625.265625-.25.09375-.578125.09375-.328125 0-.578125-.09375-.25-.09375-.421875-.265625-.15625-.171875-.25-.40625-.078125-.234375-.078125-.5zm0-8q0-.265625.078125-.5.09375-.25.25-.421875.171875-.1875.421875-.28125.25-.09375.578125-.09375.328125 0 .578125.09375.25.09375.40625.28125.171875.171875.25.421875.09375.234375.09375.5 0 .265625-.09375.5-.078125.234375-.25.40625-.15625.171875-.40625.265625-.25.09375-.578125.09375-.328125 0-.578125-.09375-.25-.09375-.421875-.265625-.15625-.171875-.25-.40625-.078125-.234375-.078125-.5zm21.578629 3.046875-.484375.15625.484375.171875 5.578125 2.140625v1.796875l-7.734375-3.453125v-1.328125l7.734375-3.453125v1.796875zm10.758087-2.34375q.53125-.78125 1.296875-1.203125.78125-.4375 1.75-.4375.78125 0 1.40625.21875.640625.21875 1.078125.703125.453125.46875.6875 1.1875.25.71875.25 1.71875v6.203125h-1.6875v-6.21875q0-1.21875-.578125-1.8125-.578125-.59375-1.65625-.578125-.8125 0-1.46875.40625-.65625.390625-1.078125 1.046875v7.15625h-1.6875v-14h1.6875zm9.039307 3.375q0-1.0625.3125-1.984375.3125-.921875.890625-1.59375.578125-.671875 1.40625-1.046875.828125-.390625 1.859375-.390625 1.046875 0 1.875.390625.84375.375 1.421875 1.046875.578125.671875.890625 1.59375.3125.921875.3125 1.984375v.203125q0 1.0625-.3125 1.96875-.3125.90625-.890625 1.59375-.578125.671875-1.40625 1.0625-.828125.375-1.859375.375-1.046875 0-1.890625-.375-.828125-.390625-1.40625-1.0625-.578125-.6875-.890625-1.59375-.3125-.90625-.3125-1.96875zm1.6875.203125q0 .71875.171875 1.390625.171875.65625.515625 1.15625.359375.5.890625.796875.53125.28125 1.234375.28125.6875 0 1.203125-.28125.53125-.296875.875-.796875.359375-.5.53125-1.15625.171875-.671875.171875-1.390625v-.203125q0-.71875-.1875-1.375-.171875-.671875-.53125-1.171875-.34375-.5-.875-.796875-.515625-.296875-1.21875-.296875-.703125 0-1.21875.296875-.515625.296875-.875.796875-.34375.5-.515625 1.171875-.171875.65625-.171875 1.375zm10.242462-9.1875h5.046875v12.546875h3.21875v1.453125h-8.265625v-1.453125h3.359375v-11.078125h-3.359375zm15.289307 14.1875q-1.03125 0-1.90625-.359375-.875-.359375-1.5-.984375-.609375-.640625-.953125-1.515625-.34375-.875-.34375-1.90625v-.390625q0-1.1875.375-2.125.390625-.953125 1.015625-1.59375.640625-.65625 1.4375-1 .8125-.34375 1.65625-.34375 1.0625 0 1.859375.375.796875.359375 1.328125 1.015625.53125.640625.78125 1.53125.265625.875.265625 1.90625v.75h-7.03125q.015625.6875.25 1.28125.234375.578125.640625 1.03125.40625.4375.96875.703125.5625.25 1.25.25.90625 0 1.59375-.359375.703125-.375 1.171875-.96875l1.03125.796875q-.25.375-.625.71875-.359375.328125-.84375.59375-.484375.265625-1.09375.421875-.609375.171875-1.328125.171875zm-.21875-8.84375q-.515625 0-.96875.1875-.453125.1875-.8125.546875-.359375.359375-.625.890625-.25.515625-.34375 1.203125h5.296875v-.125q-.015625-.5-.1875-.984375-.15625-.484375-.46875-.859375-.296875-.390625-.765625-.625-.46875-.234375-1.125-.234375zm7.101837.375v-1.734375l8.046875 3.4375v1.328125l-8.046875 3.453125v-1.75l5.890625-2.21875.546875-.15625-.546875-.171875z" fill="#000"/><path d="m371.90466 51.653595h-8.6875v-1.21875l4.34375-4.828125q.578125-.640625.96875-1.140625.390625-.5.625-.921875.25-.421875.34375-.796875.109375-.390625.109375-.78125 0-.5-.171875-.921875-.15625-.4375-.46875-.75-.296875-.328125-.734375-.515625-.421875-.1875-.96875-.1875-.671875 0-1.15625.203125-.484375.1875-.8125.53125-.328125.34375-.484375.859375-.15625.5-.15625 1.109375h-1.6875q0-.828125.28125-1.5625.296875-.75.84375-1.3125.546875-.5625 1.34375-.890625.796875-.328125 1.828125-.328125.9375 0 1.6875.28125.75.28125 1.265625.78125.515625.484375.796875 1.15625.28125.671875.28125 1.46875 0 .59375-.203125 1.171875-.203125.578125-.546875 1.140625-.328125.5625-.78125 1.125-.453125.546875-.953125 1.09375l-3.5625 3.859375h6.65625zm5.992462-1.09375q0-.265625.078125-.5.09375-.25.25-.421875.171875-.1875.421875-.28125.25-.09375.578125-.09375.328125 0 .578125.09375.25.09375.40625.28125.171875.171875.25.421875.09375.234375.09375.5 0 .265625-.09375.5-.078125.234375-.25.40625-.15625.171875-.40625.265625-.25.09375-.578125.09375-.328125 0-.578125-.09375-.25-.09375-.421875-.265625-.15625-.171875-.25-.40625-.078125-.234375-.078125-.5zm0-8q0-.265625.078125-.5.09375-.25.25-.421875.171875-.1875.421875-.28125.25-.09375.578125-.09375.328125 0 .578125.09375.25.09375.40625.28125.171875.171875.25.421875.09375.234375.09375.5 0 .265625-.09375.5-.078125.234375-.25.40625-.15625.171875-.40625.265625-.25.09375-.578125.09375-.328125 0-.578125-.09375-.25-.09375-.421875-.265625-.15625-.171875-.25-.40625-.078125-.234375-.078125-.5zm25.859894 7.734375q-.5.734375-1.234375 1.140625-.734375.40625-1.703125.40625-.78125 0-1.40625-.234375-.625-.25-1.078125-.765625-.4375-.515625-.6875-1.296875-.234375-.78125-.234375-1.890625v-5.859375h1.6875v5.875q0 .8125.125 1.34375.125.515625.375.828125.265625.3125.625.453125.375.125.859375.125 1.03125 0 1.65625-.421875.640625-.421875.953125-1.125v-7.078125h1.6875v9.859375h-1.53125zm6.3049316-8.5.125 1.453125q.53125-.765625 1.3125-1.1875.78125-.4375 1.75-.4375.78125 0 1.40625.21875.640625.21875 1.078125.6875.453125.453125.6875 1.171875.25.71875.25 1.6875v6.265625h-1.6875v-6.21875q0-.65625-.15625-1.109375-.140625-.453125-.421875-.734375-.28125-.296875-.703125-.421875-.40625-.125-.953125-.125-.84375 0-1.484375.421875-.640625.421875-1.03125 1.125v7.0625h-1.6875v-9.859375zm9.367462 4.84375q0-1.09375.28125-2.015625.28125-.9375.78125-1.59375.515625-.671875 1.25-1.03125.734375-.375 1.625-.375.890625 0 1.546875.296875.671875.28125 1.140625.859375v-5.125h1.6875v14h-1.546875l-.0625-1.03125q-.5.59375-1.1875.90625-.671875.3125-1.59375.3125-.890625 0-1.625-.375-.71875-.390625-1.234375-1.0625-.5-.6875-.78125-1.59375-.28125-.921875-.28125-1.96875zm1.6875.203125q0 .71875.15625 1.359375.15625.640625.46875 1.140625.328125.484375.828125.78125.5.28125 1.203125.28125.4375 0 .78125-.09375.34375-.109375.625-.296875.28125-.1875.5-.4375.21875-.265625.375-.578125v-4.578125q-.328125-.59375-.890625-.984375-.546875-.390625-1.375-.390625-.703125 0-1.21875.296875-.5.28125-.828125.78125-.3125.5-.46875 1.15625-.15625.640625-.15625 1.359375zm14.179932 5q-1.03125 0-1.90625-.359375-.875-.359375-1.5-.984375-.609375-.640625-.953125-1.515625-.34375-.875-.34375-1.90625v-.390625q0-1.1875.375-2.125.390625-.953125 1.015625-1.59375.640625-.65625 1.4375-1 .8125-.34375 1.65625-.34375 1.0625 0 1.859375.375.796875.359375 1.328125 1.015625.53125.640625.78125 1.53125.265625.875.265625 1.90625v.75h-7.03125q.015625.6875.25 1.28125.234375.578125.640625 1.03125.40625.4375.96875.703125.5625.25 1.25.25.90625 0 1.59375-.359375.703125-.375 1.171875-.96875l1.03125.796875q-.25.375-.625.71875-.359375.328125-.84375.59375-.484375.265625-1.09375.421875-.609375.171875-1.328125.171875zm-.21875-8.84375q-.515625 0-.96875.1875-.453125.1875-.8125.546875-.359375.359375-.625.890625-.25.515625-.34375 1.203125h5.296875v-.125q-.015625-.5-.1875-.984375-.15625-.484375-.46875-.859375-.296875-.390625-.765625-.625-.46875-.234375-1.125-.234375zm9.570587 8.65625v-8.546875h-2.703125v-1.3125h2.703125v-.6875q0-.953125.28125-1.65625.28125-.71875.78125-1.203125.515625-.484375 1.21875-.734375.71875-.25 1.59375-.25.59375 0 1.15625.109375.578125.09375 1.171875.25l-.1875 1.390625q-.375-.125-.875-.21875-.5-.09375-1.0625-.09375-1.1875.015625-1.78125.609375-.59375.578125-.59375 1.796875v.6875h3.796875v1.3125h-3.796875v8.546875zm8.954681-9.859375h5.046875v8.40625h3.21875v1.453125h-8.265625v-1.453125h3.359375v-6.9375h-3.359375zm3.140625-2.578125q0-.421875.25-.703125.25-.296875.765625-.296875.5 0 .75.296875.25.28125.25.703125 0 .40625-.25.6875-.25.265625-.75.265625-.515625 0-.765625-.265625-.25-.28125-.25-.6875zm9.304932 2.578125.125 1.453125q.53125-.765625 1.3125-1.1875.78125-.4375 1.75-.4375.78125 0 1.40625.21875.640625.21875 1.078125.6875.453125.453125.6875 1.171875.25.71875.25 1.6875v6.265625h-1.6875v-6.21875q0-.65625-.15625-1.109375-.140625-.453125-.421875-.734375-.28125-.296875-.703125-.421875-.40625-.125-.953125-.125-.84375 0-1.484375.421875-.640625.421875-1.03125 1.125v7.0625h-1.6875v-9.859375zm14.039337 10.046875q-1.03125 0-1.90625-.359375-.875-.359375-1.5-.984375-.609375-.640625-.953125-1.515625-.34375-.875-.34375-1.90625v-.390625q0-1.1875.375-2.125.390625-.953125 1.015625-1.59375.640625-.65625 1.4375-1 .8125-.34375 1.65625-.34375 1.0625 0 1.859375.375.796875.359375 1.328125 1.015625.53125.640625.78125 1.53125.265625.875.265625 1.90625v.75h-7.03125q.015625.6875.25 1.28125.234375.578125.640625 1.03125.40625.4375.96875.703125.5625.25 1.25.25.90625 0 1.59375-.359375.703125-.375 1.171875-.96875l1.03125.796875q-.25.375-.625.71875-.359375.328125-.84375.59375-.484375.265625-1.09375.421875-.609375.171875-1.328125.171875zm-.21875-8.84375q-.515625 0-.96875.1875-.453125.1875-.8125.546875-.359375.359375-.625.890625-.25.515625-.34375 1.203125h5.296875v-.125q-.015625-.5-.1875-.984375-.15625-.484375-.46875-.859375-.296875-.390625-.765625-.625-.46875-.234375-1.125-.234375zm6.7424316 3.640625q0-1.09375.28125-2.015625.28125-.9375.78125-1.59375.515625-.671875 1.25-1.03125.734375-.375 1.625-.375.890625 0 1.546875.296875.671875.28125 1.140625.859375v-5.125h1.6875v14h-1.546875l-.0625-1.03125q-.5.59375-1.1875.90625-.671875.3125-1.59375.3125-.890625 0-1.625-.375-.71875-.390625-1.234375-1.0625-.5-.6875-.78125-1.59375-.28125-.921875-.28125-1.96875zm1.6875.203125q0 .71875.15625 1.359375.15625.640625.46875 1.140625.328125.484375.828125.78125.5.28125 1.203125.28125.4375 0 .78125-.09375.34375-.109375.625-.296875.28125-.1875.5-.4375.21875-.265625.375-.578125v-4.578125q-.328125-.59375-.890625-.984375-.546875-.390625-1.375-.390625-.703125 0-1.21875.296875-.5.28125-.828125.78125-.3125.5-.46875 1.15625-.15625.640625-.15625 1.359375z" fill="#000"/><path d="m521.36273 44.216095h1.203125q.640625 0 1.125-.171875.5-.171875.828125-.46875.328125-.3125.5-.734375.171875-.421875.171875-.921875 0-1.15625-.59375-1.734375-.59375-.59375-1.71875-.59375-.546875 0-.984375.171875-.4375.15625-.765625.453125-.3125.296875-.484375.71875-.171875.421875-.171875.9375h-1.6875q0-.765625.296875-1.421875.296875-.671875.828125-1.171875.53125-.5 1.28125-.78125.765625-.296875 1.6875-.296875.890625 0 1.625.25.734375.234375 1.265625.71875.53125.46875.8125 1.171875.296875.703125.296875 1.625 0 .375-.125.796875-.109375.40625-.359375.796875-.25.375-.640625.71875-.375.34375-.921875.5625.65625.21875 1.078125.5625.4375.328125.703125.75.265625.421875.359375.890625.109375.453125.109375.90625 0 .9375-.328125 1.65625-.3125.71875-.875 1.21875-.5625.484375-1.34375.75-.765625.265625-1.65625.265625-.875 0-1.640625-.25-.765625-.25-1.34375-.71875-.5625-.46875-.890625-1.15625-.328125-.6875-.328125-1.5625h1.6875q0 .515625.171875.953125.171875.421875.5.734375.328125.296875.796875.46875.46875.15625 1.046875.15625.578125 0 1.03125-.15625.46875-.15625.796875-.453125.328125-.3125.5-.765625.1875-.46875.1875-1.09375 0-.625-.203125-1.078125-.203125-.453125-.578125-.75-.359375-.296875-.890625-.4375-.515625-.15625-1.15625-.15625h-1.203125zm12.164307 6.34375q0-.265625.078125-.5.09375-.25.25-.421875.171875-.1875.421875-.28125.25-.09375.578125-.09375.328125 0 .578125.09375.25.09375.40625.28125.171875.171875.25.421875.09375.234375.09375.5 0 .265625-.09375.5-.078125.234375-.25.40625-.15625.171875-.40625.265625-.25.09375-.578125.09375-.328125 0-.578125-.09375-.25-.09375-.421875-.265625-.15625-.171875-.25-.40625-.078125-.234375-.078125-.5zm0-8q0-.265625.078125-.5.09375-.25.25-.421875.171875-.1875.421875-.28125.25-.09375.578125-.09375.328125 0 .578125.09375.25.09375.40625.28125.171875.171875.25.421875.09375.234375.09375.5 0 .265625-.09375.5-.078125.234375-.25.40625-.15625.171875-.40625.265625-.25.09375-.578125.09375-.328125 0-.578125-.09375-.25-.09375-.421875-.265625-.15625-.171875-.25-.40625-.078125-.234375-.078125-.5zm27.5943 9.09375h-8.6875v-1.21875l4.34375-4.828125q.578125-.640625.96875-1.140625.390625-.5.625-.921875.25-.421875.34375-.796875.109375-.390625.109375-.78125 0-.5-.171875-.921875-.15625-.4375-.46875-.75-.296875-.328125-.734375-.515625-.421875-.1875-.96875-.1875-.671875 0-1.15625.203125-.484375.1875-.8125.53125-.328125.34375-.484375.859375-.15625.5-.15625 1.109375h-1.6875q0-.828125.28125-1.5625.296875-.75.84375-1.3125.546875-.5625 1.34375-.890625.796875-.328125 1.828125-.328125.9375 0 1.6875.28125.75.28125 1.265625.78125.515625.484375.796875 1.15625.28125.671875.28125 1.46875 0 .59375-.203125 1.171875-.203125.578125-.546875 1.140625-.328125.5625-.78125 1.125-.453125.546875-.953125 1.09375l-3.5625 3.859375h6.65625zm3.6643066-6.65625.65625-6.609375h6.8125v1.640625h-5.390625l-.359375 3.53125q.390625-.21875.9375-.390625.546875-.171875 1.265625-.171875.90625 0 1.640625.3125.734375.3125 1.234375.890625.515625.578125.78125 1.40625.28125.8125.28125 1.8125 0 .953125-.265625 1.765625-.25.8125-.765625 1.40625-.5.578125-1.296875.921875-.78125.328125-1.828125.328125-.8125 0-1.53125-.21875-.71875-.234375-1.28125-.6875-.5625-.46875-.921875-1.15625-.359375-.6875-.453125-1.609375h1.609375q.15625 1.125.828125 1.71875.671875.578125 1.75.578125.59375 0 1.0625-.21875.46875-.21875.78125-.609375.3125-.390625.46875-.953125.15625-.5625.15625-1.234375 0-.625-.1875-1.15625-.171875-.546875-.515625-.9375-.328125-.40625-.828125-.625-.484375-.234375-1.109375-.234375-.421875 0-.734375.0625-.296875.0625-.546875.171875-.25.109375-.46875.265625-.203125.15625-.4375.359375z" fill="#000"/><path d="m606.5264 47.20047h1.84375v1.375h-1.84375v3.078125h-1.6875v-3.078125h-6.046875v-1l5.9375-9.1875h1.796875zm-5.875 0h4.1875v-6.5625l-.28125.5zm13.164307 3.359375q0-.265625.078125-.5.09375-.25.25-.421875.171875-.1875.421875-.28125.25-.09375.578125-.09375.328125 0 .578125.09375.25.09375.40625.28125.171875.171875.25.421875.09375.234375.09375.5 0 .265625-.09375.5-.078125.234375-.25.40625-.15625.171875-.40625.265625-.25.09375-.578125.09375-.328125 0-.578125-.09375-.25-.09375-.421875-.265625-.15625-.171875-.25-.40625-.078125-.234375-.078125-.5zm0-8q0-.265625.078125-.5.09375-.25.25-.421875.171875-.1875.421875-.28125.25-.09375.578125-.09375.328125 0 .578125.09375.25.09375.40625.28125.171875.171875.25.421875.09375.234375.09375.5 0 .265625-.09375.5-.078125.234375-.25.40625-.15625.171875-.40625.265625-.25.09375-.578125.09375-.328125 0-.578125-.09375-.25-.09375-.421875-.265625-.15625-.171875-.25-.40625-.078125-.234375-.078125-.5zm27.5943 9.09375h-8.6875v-1.21875l4.34375-4.828125q.578125-.640625.96875-1.140625.390625-.5.625-.921875.25-.421875.34375-.796875.109375-.390625.109375-.78125 0-.5-.171875-.921875-.15625-.4375-.46875-.75-.296875-.328125-.734375-.515625-.421875-.1875-.96875-.1875-.671875 0-1.15625.203125-.484375.1875-.8125.53125-.328125.34375-.484375.859375-.15625.5-.15625 1.109375h-1.6875q0-.828125.28125-1.5625.296875-.75.84375-1.3125.546875-.5625 1.34375-.890625.796875-.328125 1.828125-.328125.9375 0 1.6875.28125.75.28125 1.265625.78125.515625.484375.796875 1.15625.28125.671875.28125 1.46875 0 .59375-.203125 1.171875-.203125.578125-.546875 1.140625-.328125.5625-.78125 1.125-.453125.546875-.953125 1.09375l-3.5625 3.859375h6.65625zm11.383057-5.078125q0 1.265625-.296875 2.25-.28125.984375-.828125 1.65625-.546875.65625-1.34375 1.015625-.78125.34375-1.8125.34375-1 0-1.796875-.34375-.796875-.359375-1.359375-1.015625-.5625-.671875-.859375-1.65625-.28125-.984375-.28125-2.25v-3.109375q0-1.265625.28125-2.234375.296875-.984375.84375-1.65625.546875-.671875 1.34375-1.015625.796875-.359375 1.8125-.359375 1.015625 0 1.8125.359375.796875.34375 1.34375 1.015625.5625.671875.84375 1.65625.296875.96875.296875 2.234375zm-6.890625-.328125 5.171875-3.96875q-.15625-1.3125-.78125-2-.625-.6875-1.796875-.6875-1.328125 0-1.96875.890625-.625.890625-.625 2.625zm5.203125-2.359375-5.15625 3.953125q.15625 1.28125.78125 1.953125.640625.671875 1.78125.671875 1.34375 0 1.96875-.90625.625-.90625.625-2.625z" fill="#000"/><path d="m685.6911 37.653595h5.046875v12.546875h3.21875v1.453125h-8.265625v-1.453125h3.359375v-11.078125h-3.359375zm15.289307 14.1875q-1.03125 0-1.90625-.359375-.875-.359375-1.5-.984375-.609375-.640625-.953125-1.515625-.34375-.875-.34375-1.90625v-.390625q0-1.1875.375-2.125.390625-.953125 1.015625-1.59375.640625-.65625 1.4375-1 .8125-.34375 1.65625-.34375 1.0625 0 1.859375.375.796875.359375 1.328125 1.015625.53125.640625.78125 1.53125.265625.875.265625 1.90625v.75h-7.03125q.015625.6875.25 1.28125.234375.578125.640625 1.03125.40625.4375.96875.703125.5625.25 1.25.25.90625 0 1.59375-.359375.703125-.375 1.171875-.96875l1.03125.796875q-.25.375-.625.71875-.359375.328125-.84375.59375-.484375.265625-1.09375.421875-.609375.171875-1.328125.171875zm-.21875-8.84375q-.515625 0-.96875.1875-.453125.1875-.8125.546875-.359375.359375-.625.890625-.25.515625-.34375 1.203125h5.296875v-.125q-.015625-.5-.1875-.984375-.15625-.484375-.46875-.859375-.296875-.390625-.765625-.625-.46875-.234375-1.125-.234375zm8.570557-1.203125.125 1.453125q.53125-.765625 1.3125-1.1875.78125-.4375 1.75-.4375.78125 0 1.40625.21875.640625.21875 1.078125.6875.453125.453125.6875 1.171875.25.71875.25 1.6875v6.265625h-1.6875v-6.21875q0-.65625-.15625-1.109375-.140625-.453125-.421875-.734375-.28125-.296875-.703125-.421875-.40625-.125-.953125-.125-.84375 0-1.484375.421875-.640625.421875-1.03125 1.125v7.0625h-1.6875v-9.859375zm9.383118 4.84375q0-1.09375.265625-2.015625.265625-.9375.765625-1.59375.515625-.671875 1.25-1.03125.734375-.375 1.640625-.375.921875 0 1.609375.328125.6875.3125 1.171875.921875l.078125-1.078125h1.53125v9.65625q0 .96875-.3125 1.71875-.296875.765625-.859375 1.28125-.546875.53125-1.3125.796875-.765625.28125-1.6875.28125-.390625 0-.890625-.09375-.484375-.078125-.984375-.28125-.5-.1875-.96875-.515625-.46875-.328125-.8125-.8125l.875-1q.3125.375.640625.625.328125.265625.65625.421875.34375.15625.671875.21875.34375.0625.6875.0625.59375 0 1.078125-.171875.484375-.171875.828125-.5.34375-.328125.515625-.828125.1875-.484375.1875-1.125v-.84375q-.484375.5625-1.15625.859375-.671875.296875-1.5625.296875-.890625 0-1.625-.375-.734375-.390625-1.234375-1.0625-.5-.6875-.78125-1.59375-.265625-.921875-.265625-1.96875zm1.671875.203125q0 .71875.15625 1.359375.15625.640625.46875 1.140625.328125.484375.828125.78125.5.28125 1.203125.28125.4375 0 .78125-.09375.359375-.109375.640625-.296875.28125-.203125.5-.46875.21875-.265625.375-.578125v-4.515625q-.15625-.3125-.375-.5625-.21875-.265625-.515625-.453125-.28125-.1875-.625-.28125-.34375-.109375-.765625-.109375-.703125 0-1.21875.296875-.5.28125-.828125.78125-.3125.5-.46875 1.15625-.15625.640625-.15625 1.359375zm13.820557-7.4375v2.390625h3.75v1.3125h-3.75v5.34375q0 .578125.140625.953125.140625.375.390625.59375.265625.21875.59375.3125.34375.09375.71875.09375.265625 0 .546875-.03125.296875-.03125.578125-.078125.28125-.046875.515625-.09375.25-.046875.40625-.09375l.234375 1.203125q-.21875.125-.515625.21875-.296875.09375-.65625.15625-.34375.078125-.75.109375-.390625.046875-.78125.046875-.65625 0-1.234375-.1875-.5625-.1875-.984375-.59375-.421875-.40625-.671875-1.046875-.234375-.640625-.234375-1.5625v-5.34375h-2.578125v-1.3125h2.578125v-2.390625zm8.883057 3.859375q.53125-.78125 1.296875-1.203125.78125-.4375 1.75-.4375.78125 0 1.40625.21875.640625.21875 1.078125.703125.453125.46875.6875 1.1875.25.71875.25 1.71875v6.203125h-1.6875v-6.21875q0-1.21875-.578125-1.8125-.578125-.59375-1.65625-.578125-.8125 0-1.46875.40625-.65625.390625-1.078125 1.046875v7.15625h-1.6875v-14h1.6875zm12.445557 7.296875q0-.265625.078125-.5.09375-.25.25-.421875.171875-.1875.421875-.28125.25-.09375.578125-.09375.328125 0 .578125.09375.25.09375.40625.28125.171875.171875.25.421875.09375.234375.09375.5 0 .265625-.09375.5-.078125.234375-.25.40625-.15625.171875-.40625.265625-.25.09375-.578125.09375-.328125 0-.578125-.09375-.25-.09375-.421875-.265625-.15625-.171875-.25-.40625-.078125-.234375-.078125-.5zm0-8q0-.265625.078125-.5.09375-.25.25-.421875.171875-.1875.421875-.28125.25-.09375.578125-.09375.328125 0 .578125.09375.25.09375.40625.28125.171875.171875.25.421875.09375.234375.09375.5 0 .265625-.09375.5-.078125.234375-.25.40625-.15625.171875-.40625.265625-.25.09375-.578125.09375-.328125 0-.578125-.09375-.25-.09375-.421875-.265625-.15625-.171875-.25-.40625-.078125-.234375-.078125-.5zm20.06305 2.4375.65625-6.609375h6.8125v1.640625h-5.390625l-.359375 3.53125q.390625-.21875.9375-.390625.546875-.171875 1.265625-.171875.90625 0 1.640625.3125.734375.3125 1.234375.890625.515625.578125.78125 1.40625.28125.8125.28125 1.8125 0 .953125-.265625 1.765625-.25.8125-.765625 1.40625-.5.578125-1.296875.921875-.78125.328125-1.828125.328125-.8125 0-1.53125-.21875-.71875-.234375-1.28125-.6875-.5625-.46875-.921875-1.15625-.359375-.6875-.453125-1.609375h1.609375q.15625 1.125.828125 1.71875.671875.578125 1.75.578125.59375 0 1.0625-.21875.46875-.21875.78125-.609375.3125-.390625.46875-.953125.15625-.5625.15625-1.234375 0-.625-.1875-1.15625-.171875-.546875-.515625-.9375-.328125-.40625-.828125-.625-.484375-.234375-1.109375-.234375-.421875 0-.734375.0625-.296875.0625-.546875.171875-.25.109375-.46875.265625-.203125.15625-.4375.359375z" fill="#000"/><path d="m11.808823 24.261154h105.10236v42.14173h-105.10236z" fill="none"/><path d="m22.371323 51.181152v-13.265625h3.953125q.8125.015625 1.59375.21875.78125.203125 1.390625.640625.625.421875.984375 1.09375.359375.65625.359375 1.578125-.015625.53125-.171875.953125-.15625.421875-.4375.765625-.28125.34375-.65625.609375-.375.25-.796875.421875.53125.15625.96875.453125.453125.28125.765625.6875.328125.40625.5.921875.171875.5.171875 1.09375.015625.9375-.359375 1.65625-.359375.703125-.96875 1.1875-.609375.46875-1.40625.71875-.796875.25-1.640625.265625zm1.703125-6.203125v4.765625h2.59375q.53125 0 1-.171875.46875-.171875.828125-.46875.375-.296875.578125-.734375.21875-.4375.21875-1 .015625-.5625-.1875-1-.1875-.4375-.53125-.734375-.34375-.3125-.8125-.46875-.46875-.171875-1-.1875zm0-1.40625h2.34375q.46875 0 .921875-.140625.46875-.140625.8125-.40625.359375-.28125.578125-.671875.21875-.390625.21875-.90625 0-.5625-.21875-.953125-.203125-.390625-.5625-.640625-.359375-.25-.828125-.359375-.46875-.125-.96875-.140625h-2.296875zm13.867447 7.796875q-1.03125 0-1.90625-.359375-.875-.359375-1.5-.984375-.609375-.640625-.953125-1.515625-.34375-.875-.34375-1.90625v-.390625q0-1.1875.375-2.125.390625-.953125 1.015625-1.59375.640625-.65625 1.4375-1 .8125-.34375 1.65625-.34375 1.0625 0 1.859375.375.796875.359375 1.328125 1.015625.53125.640625.78125 1.53125.265625.875.265625 1.90625v.75h-7.03125q.015625.6875.25 1.28125.234375.578125.640625 1.03125.40625.4375.96875.703125.5625.25 1.25.25.90625 0 1.59375-.359375.703125-.375 1.171875-.96875l1.03125.796875q-.25.375-.625.71875-.359375.328125-.84375.59375-.484375.265625-1.09375.421875-.609375.171875-1.328125.171875zm-.21875-8.84375q-.515625 0-.96875.1875-.453125.1875-.8125.546875-.359375.359375-.625.890625-.25.515625-.34375 1.203125h5.296875v-.125q-.015625-.5-.1875-.984375-.15625-.484375-.46875-.859375-.296875-.390625-.765625-.625-.46875-.234375-1.125-.234375zm9.570572 8.65625v-8.546875h-2.703125v-1.3125h2.703125v-.6875q0-.953125.28125-1.65625.28125-.71875.78125-1.203125.515625-.484375 1.21875-.734375.71875-.25 1.59375-.25.59375 0 1.15625.109375.578125.09375 1.171875.25l-.1875 1.390625q-.375-.125-.875-.21875-.5-.09375-1.0625-.09375-1.1875.015625-1.78125.609375-.59375.578125-.59375 1.796875v.6875h3.796875v1.3125h-3.796875v8.546875zm8.220306-5.015625q0-1.0625.3125-1.984375.3125-.921875.890625-1.59375.578125-.671875 1.40625-1.046875.828125-.390625 1.859375-.390625 1.046875 0 1.875.390625.84375.375 1.421875 1.046875.578125.671875.890625 1.59375.3125.921875.3125 1.984375v.203125q0 1.0625-.3125 1.96875-.3125.90625-.890625 1.59375-.578125.671875-1.40625 1.0625-.828125.375-1.859375.375-1.046875 0-1.890625-.375-.828125-.390625-1.40625-1.0625-.578125-.6875-.890625-1.59375-.3125-.90625-.3125-1.96875zm1.6875.203125q0 .71875.171875 1.390625.171875.65625.515625 1.15625.359375.5.890625.796875.53125.28125 1.234375.28125.6875 0 1.203125-.28125.53125-.296875.875-.796875.359375-.5.53125-1.15625.171875-.671875.171875-1.390625v-.203125q0-.71875-.1875-1.375-.171875-.671875-.53125-1.171875-.34375-.5-.875-.796875-.515625-.296875-1.21875-.296875-.703125 0-1.21875.296875-.515625.296875-.875.796875-.34375.5-.515625 1.171875-.171875.65625-.171875 1.375zm16.445572-5.21875q.234375 0 .484375.015625.265625 0 .484375.03125.234375.03125.421875.078125.203125.046875.34375.109375l-.234375 1.640625q-.484375-.109375-.9375-.15625-.4375-.046875-.921875-.046875-1.1875 0-1.921875.546875-.734375.53125-1.078125 1.484375v6.328125h-1.6875v-9.859375h1.59375l.09375 1.5625q.59375-.796875 1.4375-1.265625.84375-.46875 1.921875-.46875zm9.086197 10.21875q-1.03125 0-1.90625-.359375-.875-.359375-1.5-.984375-.609375-.640625-.953125-1.515625-.34375-.875-.34375-1.90625v-.390625q0-1.1875.375-2.125.390625-.953125 1.015625-1.59375.640625-.65625 1.4375-1 .8125-.34375 1.65625-.34375 1.0625 0 1.859375.375.796875.359375 1.328125 1.015625.53125.640625.78125 1.53125.265625.875.265625 1.90625v.75h-7.03125q.015625.6875.25 1.28125.234375.578125.640625 1.03125.40625.4375.96875.703125.5625.25 1.25.25.90625 0 1.59375-.359375.703125-.375 1.171875-.96875l1.03125.796875q-.25.375-.625.71875-.359375.328125-.84375.59375-.484375.265625-1.09375.421875-.609375.171875-1.328125.171875zm-.21875-8.84375q-.515625 0-.96875.1875-.453125.1875-.8125.546875-.359375.359375-.625.890625-.25.515625-.34375 1.203125h5.296875v-.125q-.015625-.5-.1875-.984375-.15625-.484375-.46875-.859375-.296875-.390625-.765625-.625-.46875-.234375-1.125-.234375zm9.992447 7.5625q0-.265625.078125-.5.09375-.25.25-.421875.171875-.1875.421875-.28125.25-.09375.578125-.09375.328125 0 .578125.09375.25.09375.40625.28125.171875.171875.25.421875.09375.234375.09375.5 0 .265625-.09375.5-.078125.234375-.25.40625-.15625.171875-.40625.265625-.25.09375-.578125.09375-.328125 0-.578125-.09375-.25-.09375-.421875-.265625-.15625-.171875-.25-.40625-.078125-.234375-.078125-.5zm0-8q0-.265625.078125-.5.09375-.25.25-.421875.171875-.1875.421875-.28125.25-.09375.578125-.09375.328125 0 .578125.09375.25.09375.40625.28125.171875.171875.25.421875.09375.234375.09375.5 0 .265625-.09375.5-.078125.234375-.25.40625-.15625.171875-.40625.265625-.25.09375-.578125.09375-.328125 0-.578125-.09375-.25-.09375-.421875-.265625-.15625-.171875-.25-.40625-.078125-.234375-.078125-.5z" fill="#000"/><path d="m144.58488 127.20604v43.196854" stroke="#000" stroke-linecap="butt" stroke-width="2"/><path d="m224.85522 127.20604v43.196854" stroke="#000" stroke-linecap="butt" stroke-width="2"/><path d="m303.0232 127.20604v43.196854" stroke="#000" stroke-linecap="butt" stroke-width="2"/><path d="m390.93134 127.20604v43.196854" stroke="#000" stroke-linecap="butt" stroke-width="2"/><path d="m552.7345 127.20604v43.196854" stroke="#000" stroke-linecap="butt" stroke-width="2"/><path d="m674.84735 127.20604v43.196854" stroke="#000" stroke-linecap="butt" stroke-width="2"/><path d="m803.4589 127.20604v43.196854" stroke="#000" stroke-linecap="butt" stroke-width="2"/><path d="m143.58488 128.20604h660.874" stroke="#000" stroke-linecap="butt" stroke-width="2"/><path d="m143.58488 169.4029h660.874" stroke="#000" stroke-linecap="butt" stroke-width="2"/><path d="m163.49113 150.04791q0 1.265625-.296875 2.25-.28125.984375-.828125 1.65625-.546875.65625-1.34375 1.015625-.78125.34375-1.8125.34375-1 0-1.796875-.34375-.796875-.359375-1.359375-1.015625-.5625-.671875-.859375-1.65625-.28125-.984375-.28125-2.25v-3.109375q0-1.265625.28125-2.234375.296875-.984375.84375-1.65625.546875-.671875 1.34375-1.015625.796875-.359375 1.8125-.359375 1.015625 0 1.8125.359375.796875.34375 1.34375 1.015625.5625.671875.84375 1.65625.296875.96875.296875 2.234375zm-6.890625-.328125 5.171875-3.96875q-.15625-1.3125-.78125-2-.625-.6875-1.796875-.6875-1.328125 0-1.96875.890625-.625.890625-.625 2.625zm5.203125-2.359375-5.15625 3.953125q.15625 1.28125.78125 1.953125.640625.671875 1.78125.671875 1.34375 0 1.96875-.90625.625-.90625.625-2.625zm7.492447 6.671875q0-.265625.078125-.5.09375-.25.25-.421875.171875-.1875.421875-.28125.25-.09375.578125-.09375.328125 0 .578125.09375.25.09375.40625.28125.171875.171875.25.421875.09375.234375.09375.5 0 .265625-.09375.5-.078125.234375-.25.40625-.15625.171875-.40625.265625-.25.09375-.578125.09375-.328125 0-.578125-.09375-.25-.09375-.421875-.265625-.15625-.171875-.25-.40625-.078125-.234375-.078125-.5zm0-8q0-.265625.078125-.5.09375-.25.25-.421875.171875-.1875.421875-.28125.25-.09375.578125-.09375.328125 0 .578125.09375.25.09375.40625.28125.171875.171875.25.421875.09375.234375.09375.5 0 .265625-.09375.5-.078125.234375-.25.40625-.15625.171875-.40625.265625-.25.09375-.578125.09375-.328125 0-.578125-.09375-.25-.09375-.421875-.265625-.15625-.171875-.25-.40625-.078125-.234375-.078125-.5zm26.297394 4.640625h1.84375v1.375h-1.84375v3.078125h-1.6875v-3.078125h-6.046875v-1l5.9375-9.1875h1.796875zm-5.875 0h4.1875v-6.5625l-.28125.5zm18.367447 4.453125h-8.6875v-1.21875l4.34375-4.828125q.578125-.640625.96875-1.140625.390625-.5.625-.921875.25-.421875.34375-.796875.109375-.390625.109375-.78125 0-.5-.171875-.921875-.15625-.4375-.46875-.75-.296875-.328125-.734375-.515625-.421875-.1875-.96875-.1875-.671875 0-1.15625.203125-.484375.1875-.8125.53125-.328125.34375-.484375.859375-.15625.5-.15625 1.109375h-1.6875q0-.828125.28125-1.5625.296875-.75.84375-1.3125.546875-.5625 1.34375-.890625.796875-.328125 1.828125-.328125.9375 0 1.6875.28125.75.28125 1.265625.78125.515625.484375.796875 1.15625.28125.671875.28125 1.46875 0 .59375-.203125 1.171875-.203125.578125-.546875 1.140625-.328125.5625-.78125 1.125-.453125.546875-.953125 1.09375l-3.5625 3.859375h6.65625z" fill="#000"/><path d="m240.9021 155.12604h-1.6875v-11.109375l-3.46875 1.3125v-1.53125l5.03125-1.9375h.125zm8.664322-1.09375q0-.265625.078125-.5.09375-.25.25-.421875.171875-.1875.421875-.28125.25-.09375.578125-.09375.328125 0 .578125.09375.25.09375.40625.28125.171875.171875.25.421875.09375.234375.09375.5 0 .265625-.09375.5-.078125.234375-.25.40625-.15625.171875-.40625.265625-.25.09375-.578125.09375-.328125 0-.578125-.09375-.25-.09375-.421875-.265625-.15625-.171875-.25-.40625-.078125-.234375-.078125-.5zm0-8q0-.265625.078125-.5.09375-.25.25-.421875.171875-.1875.421875-.28125.25-.09375.578125-.09375.328125 0 .578125.09375.25.09375.40625.28125.171875.171875.25.421875.09375.234375.09375.5 0 .265625-.09375.5-.078125.234375-.25.40625-.15625.171875-.40625.265625-.25.09375-.578125.09375-.328125 0-.578125-.09375-.25-.09375-.421875-.265625-.15625-.171875-.25-.40625-.078125-.234375-.078125-.5zm27.594254 9.09375h-8.6875v-1.21875l4.34375-4.828125q.578125-.640625.96875-1.140625.390625-.5.625-.921875.25-.421875.34375-.796875.109375-.390625.109375-.78125 0-.5-.171875-.921875-.15625-.4375-.46875-.75-.296875-.328125-.734375-.515625-.421875-.1875-.96875-.1875-.671875 0-1.15625.203125-.484375.1875-.8125.53125-.328125.34375-.484375.859375-.15625.5-.15625 1.109375h-1.6875q0-.828125.28125-1.5625.296875-.75.84375-1.3125.546875-.5625 1.34375-.890625.796875-.328125 1.828125-.328125.9375 0 1.6875.28125.75.28125 1.265625.78125.515625.484375.796875 1.15625.28125.671875.28125 1.46875 0 .59375-.203125 1.171875-.203125.578125-.546875 1.140625-.328125.5625-.78125 1.125-.453125.546875-.953125 1.09375l-3.5625 3.859375h6.65625zm3.6643372-6.65625.65625-6.609375h6.8125v1.640625h-5.390625l-.359375 3.53125q.390625-.21875.9375-.390625.546875-.171875 1.265625-.171875.90625 0 1.640625.3125.734375.3125 1.234375.890625.515625.578125.78125 1.40625.28125.8125.28125 1.8125 0 .953125-.265625 1.765625-.25.8125-.765625 1.40625-.5.578125-1.296875.921875-.78125.328125-1.828125.328125-.8125 0-1.53125-.21875-.71875-.234375-1.28125-.6875-.5625-.46875-.921875-1.15625-.359375-.6875-.453125-1.609375h1.609375q.15625 1.125.828125 1.71875.671875.578125 1.75.578125.59375 0 1.0625-.21875.46875-.21875.78125-.609375.3125-.390625.46875-.953125.15625-.5625.15625-1.234375 0-.625-.1875-1.15625-.171875-.546875-.515625-.9375-.328125-.40625-.828125-.625-.484375-.234375-1.109375-.234375-.421875 0-.734375.0625-.296875.0625-.546875.171875-.25.109375-.46875.265625-.203125.15625-.4375.359375z" fill="#000"/><path d="m321.74194 155.12604h-8.6875v-1.21875l4.34375-4.828125q.578125-.640625.96875-1.140625.390625-.5.625-.921875.25-.421875.34375-.796875.109375-.390625.109375-.78125 0-.5-.171875-.921875-.15625-.4375-.46875-.75-.296875-.328125-.734375-.515625-.421875-.1875-.96875-.1875-.671875 0-1.15625.203125-.484375.1875-.8125.53125-.328125.34375-.484375.859375-.15625.5-.15625 1.109375h-1.6875q0-.828125.28125-1.5625.296875-.75.84375-1.3125.546875-.5625 1.34375-.890625.796875-.328125 1.828125-.328125.9375 0 1.6875.28125.75.28125 1.265625.78125.515625.484375.796875 1.15625.28125.671875.28125 1.46875 0 .59375-.203125 1.171875-.203125.578125-.546875 1.140625-.328125.5625-.78125 1.125-.453125.546875-.953125 1.09375l-3.5625 3.859375h6.65625zm5.992462-1.09375q0-.265625.078125-.5.09375-.25.25-.421875.171875-.1875.421875-.28125.25-.09375.578125-.09375.328125 0 .578125.09375.25.09375.40625.28125.171875.171875.25.421875.09375.234375.09375.5 0 .265625-.09375.5-.078125.234375-.25.40625-.15625.171875-.40625.265625-.25.09375-.578125.09375-.328125 0-.578125-.09375-.25-.09375-.421875-.265625-.15625-.171875-.25-.40625-.078125-.234375-.078125-.5zm0-8q0-.265625.078125-.5.09375-.25.25-.421875.171875-.1875.421875-.28125.25-.09375.578125-.09375.328125 0 .578125.09375.25.09375.40625.28125.171875.171875.25.421875.09375.234375.09375.5 0 .265625-.09375.5-.078125.234375-.25.40625-.15625.171875-.40625.265625-.25.09375-.578125.09375-.328125 0-.578125-.09375-.25-.09375-.421875-.265625-.15625-.171875-.25-.40625-.078125-.234375-.078125-.5zm27.594269 9.09375h-8.6875v-1.21875l4.34375-4.828125q.578125-.640625.96875-1.140625.390625-.5.625-.921875.25-.421875.34375-.796875.109375-.390625.109375-.78125 0-.5-.171875-.921875-.15625-.4375-.46875-.75-.296875-.328125-.734375-.515625-.421875-.1875-.96875-.1875-.671875 0-1.15625.203125-.484375.1875-.8125.53125-.328125.34375-.484375.859375-.15625.5-.15625 1.109375h-1.6875q0-.828125.28125-1.5625.296875-.75.84375-1.3125.546875-.5625 1.34375-.890625.796875-.328125 1.828125-.328125.9375 0 1.6875.28125.75.28125 1.265625.78125.515625.484375.796875 1.15625.28125.671875.28125 1.46875 0 .59375-.203125 1.171875-.203125.578125-.546875 1.140625-.328125.5625-.78125 1.125-.453125.546875-.953125 1.09375l-3.5625 3.859375h6.65625zm11.383057-5.078125q0 1.265625-.296875 2.25-.28125.984375-.828125 1.65625-.546875.65625-1.34375 1.015625-.78125.34375-1.8125.34375-1 0-1.796875-.34375-.796875-.359375-1.359375-1.015625-.5625-.671875-.859375-1.65625-.28125-.984375-.28125-2.25v-3.109375q0-1.265625.28125-2.234375.296875-.984375.84375-1.65625.546875-.671875 1.34375-1.015625.796875-.359375 1.8125-.359375 1.015625 0 1.8125.359375.796875.34375 1.34375 1.015625.5625.671875.84375 1.65625.296875.96875.296875 2.234375zm-6.890625-.328125 5.171875-3.96875q-.15625-1.3125-.78125-2-.625-.6875-1.796875-.6875-1.328125 0-1.96875.890625-.625.890625-.625 2.625zm5.203125-2.359375-5.15625 3.953125q.15625 1.28125.78125 1.953125.640625.671875 1.78125.671875 1.34375 0 1.96875-.90625.625-.90625.625-2.625z" fill="#000"/><path d="m403.4782 147.68854h1.203125q.640625 0 1.125-.171875.5-.171875.828125-.46875.328125-.3125.5-.734375.171875-.421875.171875-.921875 0-1.15625-.59375-1.734375-.59375-.59375-1.71875-.59375-.546875 0-.984375.171875-.4375.15625-.765625.453125-.3125.296875-.484375.71875-.171875.421875-.171875.9375h-1.6875q0-.765625.296875-1.421875.296875-.671875.828125-1.171875.53125-.5 1.28125-.78125.765625-.296875 1.6875-.296875.890625 0 1.625.25.734375.234375 1.265625.71875.53125.46875.8125 1.171875.296875.703125.296875 1.625 0 .375-.125.796875-.109375.40625-.359375.796875-.25.375-.640625.71875-.375.34375-.921875.5625.65625.21875 1.078125.5625.4375.328125.703125.75.265625.421875.359375.890625.109375.453125.109375.90625 0 .9375-.328125 1.65625-.3125.71875-.875 1.21875-.5625.484375-1.34375.75-.765625.265625-1.65625.265625-.875 0-1.640625-.25-.765625-.25-1.34375-.71875-.5625-.46875-.890625-1.15625-.328125-.6875-.328125-1.5625h1.6875q0 .515625.171875.953125.171875.421875.5.734375.328125.296875.796875.46875.46875.15625 1.046875.15625.578125 0 1.03125-.15625.46875-.15625.796875-.453125.328125-.3125.5-.765625.1875-.46875.1875-1.09375 0-.625-.203125-1.078125-.203125-.453125-.578125-.75-.359375-.296875-.890625-.4375-.515625-.15625-1.15625-.15625h-1.203125zm12.164307 6.34375q0-.265625.078125-.5.09375-.25.25-.421875.171875-.1875.421875-.28125.25-.09375.578125-.09375.328125 0 .578125.09375.25.09375.40625.28125.171875.171875.25.421875.09375.234375.09375.5 0 .265625-.09375.5-.078125.234375-.25.40625-.15625.171875-.40625.265625-.25.09375-.578125.09375-.328125 0-.578125-.09375-.25-.09375-.421875-.265625-.15625-.171875-.25-.40625-.078125-.234375-.078125-.5zm0-8q0-.265625.078125-.5.09375-.25.25-.421875.171875-.1875.421875-.28125.25-.09375.578125-.09375.328125 0 .578125.09375.25.09375.40625.28125.171875.171875.25.421875.09375.234375.09375.5 0 .265625-.09375.5-.078125.234375-.25.40625-.15625.171875-.40625.265625-.25.09375-.578125.09375-.328125 0-.578125-.09375-.25-.09375-.421875-.265625-.15625-.171875-.25-.40625-.078125-.234375-.078125-.5zm25.859894 7.734375q-.5.734375-1.234375 1.140625-.734375.40625-1.703125.40625-.78125 0-1.40625-.234375-.625-.25-1.078125-.765625-.4375-.515625-.6875-1.296875-.234375-.78125-.234375-1.890625v-5.859375h1.6875v5.875q0 .8125.125 1.34375.125.515625.375.828125.265625.3125.625.453125.375.125.859375.125 1.03125 0 1.65625-.421875.640625-.421875.953125-1.125v-7.078125h1.6875v9.859375h-1.53125zm6.304962-8.5.125 1.453125q.53125-.765625 1.3125-1.1875.78125-.4375 1.75-.4375.78125 0 1.40625.21875.640625.21875 1.078125.6875.453125.453125.6875 1.171875.25.71875.25 1.6875v6.265625h-1.6875v-6.21875q0-.65625-.15625-1.109375-.140625-.453125-.421875-.734375-.28125-.296875-.703125-.421875-.40625-.125-.953125-.125-.84375 0-1.484375.421875-.640625.421875-1.03125 1.125v7.0625h-1.6875v-9.859375zm9.367432 4.84375q0-1.09375.28125-2.015625.28125-.9375.78125-1.59375.515625-.671875 1.25-1.03125.734375-.375 1.625-.375.890625 0 1.546875.296875.671875.28125 1.140625.859375v-5.125h1.6875v14h-1.546875l-.0625-1.03125q-.5.59375-1.1875.90625-.671875.3125-1.59375.3125-.890625 0-1.625-.375-.71875-.390625-1.234375-1.0625-.5-.6875-.78125-1.59375-.28125-.921875-.28125-1.96875zm1.6875.203125q0 .71875.15625 1.359375.15625.640625.46875 1.140625.328125.484375.828125.78125.5.28125 1.203125.28125.4375 0 .78125-.09375.34375-.109375.625-.296875.28125-.1875.5-.4375.21875-.265625.375-.578125v-4.578125q-.328125-.59375-.890625-.984375-.546875-.390625-1.375-.390625-.703125 0-1.21875.296875-.5.28125-.828125.78125-.3125.5-.46875 1.15625-.15625.640625-.15625 1.359375zm14.179962 5q-1.03125 0-1.90625-.359375-.875-.359375-1.5-.984375-.609375-.640625-.953125-1.515625-.34375-.875-.34375-1.90625v-.390625q0-1.1875.375-2.125.390625-.953125 1.015625-1.59375.640625-.65625 1.4375-1 .8125-.34375 1.65625-.34375 1.0625 0 1.859375.375.796875.359375 1.328125 1.015625.53125.640625.78125 1.53125.265625.875.265625 1.90625v.75h-7.03125q.015625.6875.25 1.28125.234375.578125.640625 1.03125.40625.4375.96875.703125.5625.25 1.25.25.90625 0 1.59375-.359375.703125-.375 1.171875-.96875l1.03125.796875q-.25.375-.625.71875-.359375.328125-.84375.59375-.484375.265625-1.09375.421875-.609375.171875-1.328125.171875zm-.21875-8.84375q-.515625 0-.96875.1875-.453125.1875-.8125.546875-.359375.359375-.625.890625-.25.515625-.34375 1.203125h5.296875v-.125q-.015625-.5-.1875-.984375-.15625-.484375-.46875-.859375-.296875-.390625-.765625-.625-.46875-.234375-1.125-.234375zm9.570557 8.65625v-8.546875h-2.703125v-1.3125h2.703125v-.6875q0-.953125.28125-1.65625.28125-.71875.78125-1.203125.515625-.484375 1.21875-.734375.71875-.25 1.59375-.25.59375 0 1.15625.109375.578125.09375 1.171875.25l-.1875 1.390625q-.375-.125-.875-.21875-.5-.09375-1.0625-.09375-1.1875.015625-1.78125.609375-.59375.578125-.59375 1.796875v.6875h3.796875v1.3125h-3.796875v8.546875zm8.954681-9.859375h5.046875v8.40625h3.21875v1.453125h-8.265625v-1.453125h3.359375v-6.9375h-3.359375zm3.140625-2.578125q0-.421875.25-.703125.25-.296875.765625-.296875.5 0 .75.296875.25.28125.25.703125 0 .40625-.25.6875-.25.265625-.75.265625-.515625 0-.765625-.265625-.25-.28125-.25-.6875zm9.304962 2.578125.125 1.453125q.53125-.765625 1.3125-1.1875.78125-.4375 1.75-.4375.78125 0 1.40625.21875.640625.21875 1.078125.6875.453125.453125.6875 1.171875.25.71875.25 1.6875v6.265625h-1.6875v-6.21875q0-.65625-.15625-1.109375-.140625-.453125-.421875-.734375-.28125-.296875-.703125-.421875-.40625-.125-.953125-.125-.84375 0-1.484375.421875-.640625.421875-1.03125 1.125v7.0625h-1.6875v-9.859375zm14.039337 10.046875q-1.03125 0-1.90625-.359375-.875-.359375-1.5-.984375-.609375-.640625-.953125-1.515625-.34375-.875-.34375-1.90625v-.390625q0-1.1875.375-2.125.390625-.953125 1.015625-1.59375.640625-.65625 1.4375-1 .8125-.34375 1.65625-.34375 1.0625 0 1.859375.375.796875.359375 1.328125 1.015625.53125.640625.78125 1.53125.265625.875.265625 1.90625v.75h-7.03125q.015625.6875.25 1.28125.234375.578125.640625 1.03125.40625.4375.96875.703125.5625.25 1.25.25.90625 0 1.59375-.359375.703125-.375 1.171875-.96875l1.03125.796875q-.25.375-.625.71875-.359375.328125-.84375.59375-.484375.265625-1.09375.421875-.609375.171875-1.328125.171875zm-.21875-8.84375q-.515625 0-.96875.1875-.453125.1875-.8125.546875-.359375.359375-.625.890625-.25.515625-.34375 1.203125h5.296875v-.125q-.015625-.5-.1875-.984375-.15625-.484375-.46875-.859375-.296875-.390625-.765625-.625-.46875-.234375-1.125-.234375zm6.7424316 3.640625q0-1.09375.28125-2.015625.28125-.9375.78125-1.59375.515625-.671875 1.25-1.03125.734375-.375 1.625-.375.890625 0 1.546875.296875.671875.28125 1.140625.859375v-5.125h1.6875v14h-1.546875l-.0625-1.03125q-.5.59375-1.1875.90625-.671875.3125-1.59375.3125-.890625 0-1.625-.375-.71875-.390625-1.234375-1.0625-.5-.6875-.78125-1.59375-.28125-.921875-.28125-1.96875zm1.6875.203125q0 .71875.15625 1.359375.15625.640625.46875 1.140625.328125.484375.828125.78125.5.28125 1.203125.28125.4375 0 .78125-.09375.34375-.109375.625-.296875.28125-.1875.5-.4375.21875-.265625.375-.578125v-4.578125q-.328125-.59375-.890625-.984375-.546875-.390625-1.375-.390625-.703125 0-1.21875.296875-.5.28125-.828125.78125-.3125.5-.46875 1.15625-.15625.640625-.15625 1.359375z" fill="#000"/><path d="m570.1564 150.67291h1.84375v1.375h-1.84375v3.078125h-1.6875v-3.078125h-6.046875v-1l5.9375-9.1875h1.796875zm-5.875 0h4.1875v-6.5625l-.28125.5zm13.164307 3.359375q0-.265625.078125-.5.09375-.25.25-.421875.171875-.1875.421875-.28125.25-.09375.578125-.09375.328125 0 .578125.09375.25.09375.40625.28125.171875.171875.25.421875.09375.234375.09375.5 0 .265625-.09375.5-.078125.234375-.25.40625-.15625.171875-.40625.265625-.25.09375-.578125.09375-.328125 0-.578125-.09375-.25-.09375-.421875-.265625-.15625-.171875-.25-.40625-.078125-.234375-.078125-.5zm0-8q0-.265625.078125-.5.09375-.25.25-.421875.171875-.1875.421875-.28125.25-.09375.578125-.09375.328125 0 .578125.09375.25.09375.40625.28125.171875.171875.25.421875.09375.234375.09375.5 0 .265625-.09375.5-.078125.234375-.25.40625-.15625.171875-.40625.265625-.25.09375-.578125.09375-.328125 0-.578125-.09375-.25-.09375-.421875-.265625-.15625-.171875-.25-.40625-.078125-.234375-.078125-.5zm21.578674 3.046875-.484375.15625.484375.171875 5.578125 2.140625v1.796875l-7.734375-3.453125v-1.328125l7.734375-3.453125v1.796875zm10.758057-2.34375q.53125-.78125 1.296875-1.203125.78125-.4375 1.75-.4375.78125 0 1.40625.21875.640625.21875 1.078125.703125.453125.46875.6875 1.1875.25.71875.25 1.71875v6.203125h-1.6875v-6.21875q0-1.21875-.578125-1.8125-.578125-.59375-1.65625-.578125-.8125 0-1.46875.40625-.65625.390625-1.078125 1.046875v7.15625h-1.6875v-14h1.6875zm9.039307 3.375q0-1.0625.3125-1.984375.3125-.921875.890625-1.59375.578125-.671875 1.40625-1.046875.828125-.390625 1.859375-.390625 1.046875 0 1.875.390625.84375.375 1.421875 1.046875.578125.671875.890625 1.59375.3125.921875.3125 1.984375v.203125q0 1.0625-.3125 1.96875-.3125.90625-.890625 1.59375-.578125.671875-1.40625 1.0625-.828125.375-1.859375.375-1.046875 0-1.890625-.375-.828125-.390625-1.40625-1.0625-.578125-.6875-.890625-1.59375-.3125-.90625-.3125-1.96875zm1.6875.203125q0 .71875.171875 1.390625.171875.65625.515625 1.15625.359375.5.890625.796875.53125.28125 1.234375.28125.6875 0 1.203125-.28125.53125-.296875.875-.796875.359375-.5.53125-1.15625.171875-.671875.171875-1.390625v-.203125q0-.71875-.1875-1.375-.171875-.671875-.53125-1.171875-.34375-.5-.875-.796875-.515625-.296875-1.21875-.296875-.703125 0-1.21875.296875-.515625.296875-.875.796875-.34375.5-.515625 1.171875-.171875.65625-.171875 1.375zm10.242432-9.1875h5.046875v12.546875h3.21875v1.453125h-8.265625v-1.453125h3.359375v-11.078125h-3.359375zm15.289368 14.1875q-1.03125 0-1.90625-.359375-.875-.359375-1.5-.984375-.609375-.640625-.953125-1.515625-.34375-.875-.34375-1.90625v-.390625q0-1.1875.375-2.125.390625-.953125 1.015625-1.59375.640625-.65625 1.4375-1 .8125-.34375 1.65625-.34375 1.0625 0 1.859375.375.796875.359375 1.328125 1.015625.53125.640625.78125 1.53125.265625.875.265625 1.90625v.75h-7.03125q.015625.6875.25 1.28125.234375.578125.640625 1.03125.40625.4375.96875.703125.5625.25 1.25.25.90625 0 1.59375-.359375.703125-.375 1.171875-.96875l1.03125.796875q-.25.375-.625.71875-.359375.328125-.84375.59375-.484375.265625-1.09375.421875-.609375.171875-1.328125.171875zm-.21875-8.84375q-.515625 0-.96875.1875-.453125.1875-.8125.546875-.359375.359375-.625.890625-.25.515625-.34375 1.203125h5.296875v-.125q-.015625-.5-.1875-.984375-.15625-.484375-.46875-.859375-.296875-.390625-.765625-.625-.46875-.234375-1.125-.234375zm7.1018066.375v-1.734375l8.046875 3.4375v1.328125l-8.046875 3.453125v-1.75l5.890625-2.21875.546875-.15625-.546875-.171875z" fill="#000"/><path d="m685.6911 141.12604h5.046875v12.546875h3.21875v1.453125h-8.265625v-1.453125h3.359375v-11.078125h-3.359375zm15.289307 14.1875q-1.03125 0-1.90625-.359375-.875-.359375-1.5-.984375-.609375-.640625-.953125-1.515625-.34375-.875-.34375-1.90625v-.390625q0-1.1875.375-2.125.390625-.953125 1.015625-1.59375.640625-.65625 1.4375-1 .8125-.34375 1.65625-.34375 1.0625 0 1.859375.375.796875.359375 1.328125 1.015625.53125.640625.78125 1.53125.265625.875.265625 1.90625v.75h-7.03125q.015625.6875.25 1.28125.234375.578125.640625 1.03125.40625.4375.96875.703125.5625.25 1.25.25.90625 0 1.59375-.359375.703125-.375 1.171875-.96875l1.03125.796875q-.25.375-.625.71875-.359375.328125-.84375.59375-.484375.265625-1.09375.421875-.609375.171875-1.328125.171875zm-.21875-8.84375q-.515625 0-.96875.1875-.453125.1875-.8125.546875-.359375.359375-.625.890625-.25.515625-.34375 1.203125h5.296875v-.125q-.015625-.5-.1875-.984375-.15625-.484375-.46875-.859375-.296875-.390625-.765625-.625-.46875-.234375-1.125-.234375zm8.570557-1.203125.125 1.453125q.53125-.765625 1.3125-1.1875.78125-.4375 1.75-.4375.78125 0 1.40625.21875.640625.21875 1.078125.6875.453125.453125.6875 1.171875.25.71875.25 1.6875v6.265625h-1.6875v-6.21875q0-.65625-.15625-1.109375-.140625-.453125-.421875-.734375-.28125-.296875-.703125-.421875-.40625-.125-.953125-.125-.84375 0-1.484375.421875-.640625.421875-1.03125 1.125v7.0625h-1.6875v-9.859375zm9.383118 4.84375q0-1.09375.265625-2.015625.265625-.9375.765625-1.59375.515625-.671875 1.25-1.03125.734375-.375 1.640625-.375.921875 0 1.609375.328125.6875.3125 1.171875.921875l.078125-1.078125h1.53125v9.65625q0 .96875-.3125 1.71875-.296875.765625-.859375 1.28125-.546875.53125-1.3125.796875-.765625.28125-1.6875.28125-.390625 0-.890625-.09375-.484375-.078125-.984375-.28125-.5-.1875-.96875-.515625-.46875-.328125-.8125-.8125l.875-1q.3125.375.640625.625.328125.265625.65625.421875.34375.15625.671875.21875.34375.0625.6875.0625.59375 0 1.078125-.171875.484375-.171875.828125-.5.34375-.328125.515625-.828125.1875-.484375.1875-1.125v-.84375q-.484375.5625-1.15625.859375-.671875.296875-1.5625.296875-.890625 0-1.625-.375-.734375-.390625-1.234375-1.0625-.5-.6875-.78125-1.59375-.265625-.921875-.265625-1.96875zm1.671875.203125q0 .71875.15625 1.359375.15625.640625.46875 1.140625.328125.484375.828125.78125.5.28125 1.203125.28125.4375 0 .78125-.09375.359375-.109375.640625-.296875.28125-.203125.5-.46875.21875-.265625.375-.578125v-4.515625q-.15625-.3125-.375-.5625-.21875-.265625-.515625-.453125-.28125-.1875-.625-.28125-.34375-.109375-.765625-.109375-.703125 0-1.21875.296875-.5.28125-.828125.78125-.3125.5-.46875 1.15625-.15625.640625-.15625 1.359375zm13.820557-7.4375v2.390625h3.75v1.3125h-3.75v5.34375q0 .578125.140625.953125.140625.375.390625.59375.265625.21875.59375.3125.34375.09375.71875.09375.265625 0 .546875-.03125.296875-.03125.578125-.078125.28125-.046875.515625-.09375.25-.046875.40625-.09375l.234375 1.203125q-.21875.125-.515625.21875-.296875.09375-.65625.15625-.34375.078125-.75.109375-.390625.046875-.78125.046875-.65625 0-1.234375-.1875-.5625-.1875-.984375-.59375-.421875-.40625-.671875-1.046875-.234375-.640625-.234375-1.5625v-5.34375h-2.578125v-1.3125h2.578125v-2.390625zm8.883057 3.859375q.53125-.78125 1.296875-1.203125.78125-.4375 1.75-.4375.78125 0 1.40625.21875.640625.21875 1.078125.703125.453125.46875.6875 1.1875.25.71875.25 1.71875v6.203125h-1.6875v-6.21875q0-1.21875-.578125-1.8125-.578125-.59375-1.65625-.578125-.8125 0-1.46875.40625-.65625.390625-1.078125 1.046875v7.15625h-1.6875v-14h1.6875zm12.445557 7.296875q0-.265625.078125-.5.09375-.25.25-.421875.171875-.1875.421875-.28125.25-.09375.578125-.09375.328125 0 .578125.09375.25.09375.40625.28125.171875.171875.25.421875.09375.234375.09375.5 0 .265625-.09375.5-.078125.234375-.25.40625-.15625.171875-.40625.265625-.25.09375-.578125.09375-.328125 0-.578125-.09375-.25-.09375-.421875-.265625-.15625-.171875-.25-.40625-.078125-.234375-.078125-.5zm0-8q0-.265625.078125-.5.09375-.25.25-.421875.171875-.1875.421875-.28125.25-.09375.578125-.09375.328125 0 .578125.09375.25.09375.40625.28125.171875.171875.25.421875.09375.234375.09375.5 0 .265625-.09375.5-.078125.234375-.25.40625-.15625.171875-.40625.265625-.25.09375-.578125.09375-.328125 0-.578125-.09375-.25-.09375-.421875-.265625-.15625-.171875-.25-.40625-.078125-.234375-.078125-.5zm20.06305 2.4375.65625-6.609375h6.8125v1.640625h-5.390625l-.359375 3.53125q.390625-.21875.9375-.390625.546875-.171875 1.265625-.171875.90625 0 1.640625.3125.734375.3125 1.234375.890625.515625.578125.78125 1.40625.28125.8125.28125 1.8125 0 .953125-.265625 1.765625-.25.8125-.765625 1.40625-.5.578125-1.296875.921875-.78125.328125-1.828125.328125-.8125 0-1.53125-.21875-.71875-.234375-1.28125-.6875-.5625-.46875-.921875-1.15625-.359375-.6875-.453125-1.609375h1.609375q.15625 1.125.828125 1.71875.671875.578125 1.75.578125.59375 0 1.0625-.21875.46875-.21875.78125-.609375.3125-.390625.46875-.953125.15625-.5625.15625-1.234375 0-.625-.1875-1.15625-.171875-.546875-.515625-.9375-.328125-.40625-.828125-.625-.484375-.234375-1.109375-.234375-.421875 0-.734375.0625-.296875.0625-.546875.171875-.25.109375-.46875.265625-.203125.15625-.4375.359375z" fill="#000"/><path d="m11.808823 127.7336h124.566925v42.14174h-124.566925z" fill="none"/><path d="m28.730698 151.2161h-4.4375l-1.0625 3.4375h-1.6875l4.28125-13.265625h1.421875l4.203125 13.265625h-1.671875zm-3.984375-1.46875h3.53125l-1.75-5.75zm11.351822 4.90625v-8.546875h-2.703125v-1.3125h2.703125v-.6875q0-.953125.28125-1.65625.28125-.71875.78125-1.203125.515625-.484375 1.21875-.734375.71875-.25 1.59375-.25.59375 0 1.15625.109375.578125.09375 1.171875.25l-.1875 1.390625q-.375-.125-.875-.21875-.5-.09375-1.0625-.09375-1.1875.015625-1.78125.609375-.59375.578125-.59375 1.796875v.6875h3.796875v1.3125h-3.796875v8.546875zm12.689056-12.25v2.390625h3.75v1.3125h-3.75v5.34375q0 .578125.140625.953125.140625.375.390625.59375.265625.21875.59375.3125.34375.09375.71875.09375.265625 0 .546875-.03125.296875-.03125.578125-.078125.28125-.046875.515625-.09375.25-.046875.40625-.09375l.234375 1.203125q-.21875.125-.515625.21875-.296875.09375-.65625.15625-.34375.078125-.75.109375-.390625.046875-.78125.046875-.65625 0-1.234375-.1875-.5625-.1875-.984375-.59375-.421875-.40625-.671875-1.046875-.234375-.640625-.234375-1.5625v-5.34375h-2.578125v-1.3125h2.578125v-2.390625zm11.554947 12.4375q-1.03125 0-1.90625-.359375-.875-.359375-1.5-.984375-.609375-.640625-.953125-1.515625-.34375-.875-.34375-1.90625v-.390625q0-1.1875.375-2.125.390625-.953125 1.015625-1.59375.640625-.65625 1.4375-1 .8125-.34375 1.65625-.34375 1.0625 0 1.859375.375.796875.359375 1.328125 1.015625.53125.640625.78125 1.53125.265625.875.265625 1.90625v.75h-7.03125q.015625.6875.25 1.28125.234375.578125.640625 1.03125.40625.4375.96875.703125.5625.25 1.25.25.90625 0 1.59375-.359375.703125-.375 1.171875-.96875l1.03125.796875q-.25.375-.625.71875-.359375.328125-.84375.59375-.484375.265625-1.09375.421875-.609375.171875-1.328125.171875zm-.21875-8.84375q-.515625 0-.96875.1875-.453125.1875-.8125.546875-.359375.359375-.625.890625-.25.515625-.34375 1.203125h5.296875v-.125q-.015625-.5-.1875-.984375-.15625-.484375-.46875-.859375-.296875-.390625-.765625-.625-.46875-.234375-1.125-.234375zm13.523697-1.375q.234375 0 .484375.015625.265625 0 .484375.03125.234375.03125.421875.078125.203125.046875.34375.109375l-.234375 1.640625q-.484375-.109375-.9375-.15625-.4375-.046875-.921875-.046875-1.1875 0-1.921875.546875-.734375.53125-1.078125 1.484375v6.328125h-1.6875v-9.859375h1.59375l.09375 1.5625q.59375-.796875 1.4375-1.265625.84375-.46875 1.921875-.46875zm7.664322 8.9375q0-.265625.078125-.5.09375-.25.25-.421875.171875-.1875.421875-.28125.25-.09375.578125-.09375.328125 0 .578125.09375.25.09375.40625.28125.171875.171875.25.421875.09375.234375.09375.5 0 .265625-.09375.5-.078125.234375-.25.40625-.15625.171875-.40625.265625-.25.09375-.578125.09375-.328125 0-.578125-.09375-.25-.09375-.421875-.265625-.15625-.171875-.25-.40625-.078125-.234375-.078125-.5zm0-8q0-.265625.078125-.5.09375-.25.25-.421875.171875-.1875.421875-.28125.25-.09375.578125-.09375.328125 0 .578125.09375.25.09375.40625.28125.171875.171875.25.421875.09375.234375.09375.5 0 .265625-.09375.5-.078125.234375-.25.40625-.15625.171875-.40625.265625-.25.09375-.578125.09375-.328125 0-.578125-.09375-.25-.09375-.421875-.265625-.15625-.171875-.25-.40625-.078125-.234375-.078125-.5z" fill="#000"/><path d="m11.810929 231.20604h564.0945v42.14174h-564.0945z" fill="none"/><path d="m30.701553 258.12604h-1.703125l-5.15625-9.90625-.03125 9.90625h-1.703125v-13.265625h1.71875l5.140625 9.890625.03125-9.890625h1.703125zm9.289322-1.359375q-.5.734375-1.234375 1.140625-.734375.40625-1.703125.40625-.78125 0-1.40625-.234375-.625-.25-1.078125-.765625-.4375-.515625-.6875-1.296875-.234375-.78125-.234375-1.890625v-5.859375h1.6875v5.875q0 .8125.125 1.34375.125.515625.375.828125.265625.3125.625.453125.375.125.859375.125 1.03125 0 1.65625-.421875.640625-.421875.953125-1.125v-7.078125h1.6875v9.859375h-1.53125zm5.570572-8.5.046875.9375q.296875-.53125.78125-.8125.5-.296875 1.1875-.296875 1.359375 0 1.8125 1.046875.296875-.46875.765625-.75.484375-.296875 1.15625-.296875 1.09375 0 1.671875.671875.578125.65625.578125 2v7.359375h-1.59375v-7.375q0-1.25-1.140625-1.234375-.296875 0-.515625.09375-.21875.078125-.375.21875-.140625.140625-.21875.328125-.078125.1875-.109375.375v7.59375h-1.609375v-7.390625q0-.59375-.265625-.90625-.265625-.328125-.828125-.3125-.53125 0-.828125.21875-.28125.203125-.421875.546875v7.84375h-1.609375v-9.859375zm18.773697 5.046875q0 1.046875-.265625 1.96875-.25.90625-.75 1.59375-.484375.671875-1.203125 1.0625-.71875.375-1.65625.375-.953125 0-1.65625-.328125-.6875-.34375-1.1875-.984375l-.078125 1.125h-1.546875v-14h1.6875v5.203125q.484375-.609375 1.15625-.921875.6875-.3125 1.609375-.3125.9375 0 1.65625.375.734375.359375 1.21875 1.03125.5.65625.75 1.59375.265625.921875.265625 2.015625zm-1.6875-.203125q0-.71875-.140625-1.359375-.140625-.65625-.453125-1.15625-.3125-.5-.8125-.78125-.5-.296875-1.21875-.296875-.4375 0-.8125.125-.359375.109375-.65625.3125-.28125.203125-.5.484375-.21875.265625-.375.59375v4.3125q.15625.328125.375.609375.234375.28125.515625.5.296875.203125.65625.3125.375.109375.8125.109375.6875 0 1.1875-.28125.5-.296875.8125-.78125.3125-.5.453125-1.140625.15625-.640625.15625-1.359375zm8.883072 5.203125q-1.03125 0-1.90625-.359375-.875-.359375-1.5-.984375-.609375-.640625-.953125-1.515625-.34375-.875-.34375-1.90625v-.390625q0-1.1875.375-2.125.390625-.953125 1.015625-1.59375.640625-.65625 1.4375-1 .8125-.34375 1.65625-.34375 1.0625 0 1.859375.375.796875.359375 1.328125 1.015625.53125.640625.78125 1.53125.265625.875.265625 1.90625v.75h-7.03125q.015625.6875.25 1.28125.234375.578125.640625 1.03125.40625.4375.96875.703125.5625.25 1.25.25.90625 0 1.59375-.359375.703125-.375 1.171875-.96875l1.03125.796875q-.25.375-.625.71875-.359375.328125-.84375.59375-.484375.265625-1.09375.421875-.609375.171875-1.328125.171875zm-.21875-8.84375q-.515625 0-.96875.1875-.453125.1875-.8125.546875-.359375.359375-.625.890625-.25.515625-.34375 1.203125h5.296875v-.125q-.015625-.5-.1875-.984375-.15625-.484375-.46875-.859375-.296875-.390625-.765625-.625-.46875-.234375-1.125-.234375zm13.523697-1.375q.234375 0 .484375.015625.265625 0 .484375.03125.234375.03125.421875.078125.203125.046875.34375.109375l-.234375 1.640625q-.484375-.109375-.9375-.15625-.4375-.046875-.921875-.046875-1.1875 0-1.921875.546875-.734375.53125-1.078125 1.484375v6.328125h-1.6875v-9.859375h1.59375l.09375 1.5625q.59375-.796875 1.4375-1.265625.84375-.46875 1.921875-.46875zm15.453644 5.015625q0-1.0625.3125-1.984375.3125-.921875.890625-1.59375.578125-.671875 1.40625-1.046875.828125-.390625 1.859375-.390625 1.046875 0 1.875.390625.84375.375 1.421875 1.046875.578125.671875.890625 1.59375.3125.921875.3125 1.984375v.203125q0 1.0625-.3125 1.96875-.3125.90625-.890625 1.59375-.578125.671875-1.40625 1.0625-.828125.375-1.859375.375-1.046875 0-1.890625-.375-.828125-.390625-1.40625-1.0625-.578125-.6875-.890625-1.59375-.3125-.90625-.3125-1.96875zm1.6875.203125q0 .71875.171875 1.390625.171875.65625.515625 1.15625.359375.5.890625.796875.53125.28125 1.234375.28125.6875 0 1.203125-.28125.53125-.296875.875-.796875.359375-.5.53125-1.15625.171875-.671875.171875-1.390625v-.203125q0-.71875-.1875-1.375-.171875-.671875-.53125-1.171875-.34375-.5-.875-.796875-.515625-.296875-1.21875-.296875-.703125 0-1.21875.296875-.515625.296875-.875.796875-.34375.5-.515625 1.171875-.171875.65625-.171875 1.375zm12.492447 4.8125v-8.546875h-2.703125v-1.3125h2.703125v-.6875q0-.953125.28125-1.65625.28125-.71875.78125-1.203125.515625-.484375 1.21875-.734375.71875-.25 1.59375-.25.59375 0 1.15625.109375.578125.09375 1.171875.25l-.1875 1.390625q-.375-.125-.875-.21875-.5-.09375-1.0625-.09375-1.1875.015625-1.78125.609375-.59375.578125-.59375 1.796875v.6875h3.796875v1.3125h-3.796875v8.546875zm21.400253-9.859375.125 1.453125q.53125-.765625 1.3125-1.1875.78125-.4375 1.75-.4375.78125 0 1.40625.21875.640625.21875 1.078125.6875.453125.453125.6875 1.171875.25.71875.25 1.6875v6.265625h-1.6875v-6.21875q0-.65625-.15625-1.109375-.140625-.453125-.421875-.734375-.28125-.296875-.703125-.421875-.40625-.125-.953125-.125-.84375 0-1.484375.421875-.640625.421875-1.03125 1.125v7.0625h-1.6875v-9.859375zm9.211197 4.84375q0-1.0625.3125-1.984375.3125-.921875.890625-1.59375.578125-.671875 1.40625-1.046875.828125-.390625 1.859375-.390625 1.046875 0 1.875.390625.84375.375 1.421875 1.046875.578125.671875.890625 1.59375.3125.921875.3125 1.984375v.203125q0 1.0625-.3125 1.96875-.3125.90625-.890625 1.59375-.578125.671875-1.40625 1.0625-.828125.375-1.859375.375-1.046875 0-1.890625-.375-.828125-.390625-1.40625-1.0625-.578125-.6875-.890625-1.59375-.3125-.90625-.3125-1.96875zm1.6875.203125q0 .71875.171875 1.390625.171875.65625.515625 1.15625.359375.5.890625.796875.53125.28125 1.234375.28125.6875 0 1.203125-.28125.53125-.296875.875-.796875.359375-.5.53125-1.15625.171875-.671875.171875-1.390625v-.203125q0-.71875-.1875-1.375-.171875-.671875-.53125-1.171875-.34375-.5-.875-.796875-.515625-.296875-1.21875-.296875-.703125 0-1.21875.296875-.515625.296875-.875.796875-.34375.5-.515625 1.171875-.171875.65625-.171875 1.375zm11.492447-5.046875.125 1.453125q.53125-.765625 1.3125-1.1875.78125-.4375 1.75-.4375.78125 0 1.40625.21875.640625.21875 1.078125.6875.453125.453125.6875 1.171875.25.71875.25 1.6875v6.265625h-1.6875v-6.21875q0-.65625-.15625-1.109375-.140625-.453125-.421875-.734375-.28125-.296875-.703125-.421875-.40625-.125-.953125-.125-.84375 0-1.484375.421875-.640625.421875-1.03125 1.125v7.0625h-1.6875v-9.859375zm17.054947 4.75h-6.96875v-1.390625h6.96875zm10.235931 3.75q-.5.734375-1.234375 1.140625-.734375.40625-1.703125.40625-.78125 0-1.40625-.234375-.625-.25-1.078125-.765625-.4375-.515625-.6875-1.296875-.234375-.78125-.234375-1.890625v-5.859375h1.6875v5.875q0 .8125.125 1.34375.125.515625.375.828125.265625.3125.625.453125.375.125.859375.125 1.03125 0 1.65625-.421875.640625-.421875.953125-1.125v-7.078125h1.6875v9.859375h-1.53125zm6.304947-8.5.125 1.453125q.53125-.765625 1.3125-1.1875.78125-.4375 1.75-.4375.78125 0 1.40625.21875.640625.21875 1.078125.6875.453125.453125.6875 1.171875.25.71875.25 1.6875v6.265625h-1.6875v-6.21875q0-.65625-.15625-1.109375-.140625-.453125-.421875-.734375-.28125-.296875-.703125-.421875-.40625-.125-.953125-.125-.84375 0-1.484375.421875-.640625.421875-1.03125 1.125v7.0625h-1.6875v-9.859375zm9.367447 4.84375q0-1.09375.28125-2.015625.28125-.9375.78125-1.59375.515625-.671875 1.25-1.03125.734375-.375 1.625-.375.890625 0 1.546875.296875.671875.28125 1.140625.859375v-5.125h1.6875v14h-1.546875l-.0625-1.03125q-.5.59375-1.1875.90625-.671875.3125-1.59375.3125-.890625 0-1.625-.375-.71875-.390625-1.234375-1.0625-.5-.6875-.78125-1.59375-.28125-.921875-.28125-1.96875zm1.6875.203125q0 .71875.15625 1.359375.15625.640625.46875 1.140625.328125.484375.828125.78125.5.28125 1.203125.28125.4375 0 .78125-.09375.34375-.109375.625-.296875.28125-.1875.5-.4375.21875-.265625.375-.578125v-4.578125q-.328125-.59375-.890625-.984375-.546875-.390625-1.375-.390625-.703125 0-1.21875.296875-.5.28125-.828125.78125-.3125.5-.46875 1.15625-.15625.640625-.15625 1.359375zm14.179947 5q-1.03125 0-1.90625-.359375-.875-.359375-1.5-.984375-.609375-.640625-.953125-1.515625-.34375-.875-.34375-1.90625v-.390625q0-1.1875.375-2.125.390625-.953125 1.015625-1.59375.640625-.65625 1.4375-1 .8125-.34375 1.65625-.34375 1.0625 0 1.859375.375.796875.359375 1.328125 1.015625.53125.640625.78125 1.53125.265625.875.265625 1.90625v.75h-7.03125q.015625.6875.25 1.28125.234375.578125.640625 1.03125.40625.4375.96875.703125.5625.25 1.25.25.90625 0 1.59375-.359375.703125-.375 1.171875-.96875l1.03125.796875q-.25.375-.625.71875-.359375.328125-.84375.59375-.484375.265625-1.09375.421875-.609375.171875-1.328125.171875zm-.21875-8.84375q-.515625 0-.96875.1875-.453125.1875-.8125.546875-.359375.359375-.625.890625-.25.515625-.34375 1.203125h5.296875v-.125q-.015625-.5-.1875-.984375-.15625-.484375-.46875-.859375-.296875-.390625-.765625-.625-.46875-.234375-1.125-.234375zm9.570572 8.65625v-8.546875h-2.703125v-1.3125h2.703125v-.6875q0-.953125.28125-1.65625.28125-.71875.78125-1.203125.515625-.484375 1.21875-.734375.71875-.25 1.59375-.25.59375 0 1.15625.109375.578125.09375 1.171875.25l-.1875 1.390625q-.375-.125-.875-.21875-.5-.09375-1.0625-.09375-1.1875.015625-1.78125.609375-.59375.578125-.59375 1.796875v.6875h3.796875v1.3125h-3.796875v8.546875zm8.954681-9.859375h5.046875v8.40625h3.21875v1.453125h-8.265625v-1.453125h3.359375v-6.9375h-3.359375zm3.140625-2.578125q0-.421875.25-.703125.25-.296875.765625-.296875.5 0 .75.296875.25.28125.25.703125 0 .40625-.25.6875-.25.265625-.75.265625-.515625 0-.765625-.265625-.25-.28125-.25-.6875zm9.304947 2.578125.125 1.453125q.53125-.765625 1.3125-1.1875.78125-.4375 1.75-.4375.78125 0 1.40625.21875.640625.21875 1.078125.6875.453125.453125.6875 1.171875.25.71875.25 1.6875v6.265625h-1.6875v-6.21875q0-.65625-.15625-1.109375-.140625-.453125-.421875-.734375-.28125-.296875-.703125-.421875-.40625-.125-.953125-.125-.84375 0-1.484375.421875-.640625.421875-1.03125 1.125v7.0625h-1.6875v-9.859375zm14.039337 10.046875q-1.03125 0-1.90625-.359375-.875-.359375-1.5-.984375-.609375-.640625-.953125-1.515625-.34375-.875-.34375-1.90625v-.390625q0-1.1875.375-2.125.390625-.953125 1.015625-1.59375.640625-.65625 1.4375-1 .8125-.34375 1.65625-.34375 1.0625 0 1.859375.375.796875.359375 1.328125 1.015625.53125.640625.78125 1.53125.265625.875.265625 1.90625v.75h-7.03125q.015625.6875.25 1.28125.234375.578125.640625 1.03125.40625.4375.96875.703125.5625.25 1.25.25.90625 0 1.59375-.359375.703125-.375 1.171875-.96875l1.03125.796875q-.25.375-.625.71875-.359375.328125-.84375.59375-.484375.265625-1.09375.421875-.609375.171875-1.328125.171875zm-.21875-8.84375q-.515625 0-.96875.1875-.453125.1875-.8125.546875-.359375.359375-.625.890625-.25.515625-.34375 1.203125h5.296875v-.125q-.015625-.5-.1875-.984375-.15625-.484375-.46875-.859375-.296875-.390625-.765625-.625-.46875-.234375-1.125-.234375zm6.7424316 3.640625q0-1.09375.28125-2.015625.28125-.9375.78125-1.59375.515625-.671875 1.25-1.03125.734375-.375 1.625-.375.890625 0 1.546875.296875.671875.28125 1.140625.859375v-5.125h1.6875v14h-1.546875l-.0625-1.03125q-.5.59375-1.1875.90625-.671875.3125-1.59375.3125-.890625 0-1.625-.375-.71875-.390625-1.234375-1.0625-.5-.6875-.78125-1.59375-.28125-.921875-.28125-1.96875zm1.6875.203125q0 .71875.15625 1.359375.15625.640625.46875 1.140625.328125.484375.828125.78125.5.28125 1.203125.28125.4375 0 .78125-.09375.34375-.109375.625-.296875.28125-.1875.5-.4375.21875-.265625.375-.578125v-4.578125q-.328125-.59375-.890625-.984375-.546875-.390625-1.375-.390625-.703125 0-1.21875.296875-.5.28125-.828125.78125-.3125.5-.46875 1.15625-.15625.640625-.15625 1.359375zm25.37555 5q-1.03125 0-1.90625-.359375-.875-.359375-1.5-.984375-.609375-.640625-.953125-1.515625-.34375-.875-.34375-1.90625v-.390625q0-1.1875.375-2.125.390625-.953125 1.015625-1.59375.640625-.65625 1.4375-1 .8125-.34375 1.65625-.34375 1.0625 0 1.859375.375.796875.359375 1.328125 1.015625.53125.640625.78125 1.53125.265625.875.265625 1.90625v.75h-7.03125q.015625.6875.25 1.28125.234375.578125.640625 1.03125.40625.4375.96875.703125.5625.25 1.25.25.90625 0 1.59375-.359375.703125-.375 1.171875-.96875l1.03125.796875q-.25.375-.625.71875-.359375.328125-.84375.59375-.484375.265625-1.09375.421875-.609375.171875-1.328125.171875zm-.21875-8.84375q-.515625 0-.96875.1875-.453125.1875-.8125.546875-.359375.359375-.625.890625-.25.515625-.34375 1.203125h5.296875v-.125q-.015625-.5-.1875-.984375-.15625-.484375-.46875-.859375-.296875-.390625-.765625-.625-.46875-.234375-1.125-.234375zm7.3205566-5.34375h5.046875v12.546875h3.21875v1.453125h-8.265625v-1.453125h3.359375v-11.078125h-3.359375zm15.289307 14.1875q-1.03125 0-1.90625-.359375-.875-.359375-1.5-.984375-.609375-.640625-.953125-1.515625-.34375-.875-.34375-1.90625v-.390625q0-1.1875.375-2.125.390625-.953125 1.015625-1.59375.640625-.65625 1.4375-1 .8125-.34375 1.65625-.34375 1.0625 0 1.859375.375.796875.359375 1.328125 1.015625.53125.640625.78125 1.53125.265625.875.265625 1.90625v.75h-7.03125q.015625.6875.25 1.28125.234375.578125.640625 1.03125.40625.4375.96875.703125.5625.25 1.25.25.90625 0 1.59375-.359375.703125-.375 1.171875-.96875l1.03125.796875q-.25.375-.625.71875-.359375.328125-.84375.59375-.484375.265625-1.09375.421875-.609375.171875-1.328125.171875zm-.21875-8.84375q-.515625 0-.96875.1875-.453125.1875-.8125.546875-.359375.359375-.625.890625-.25.515625-.34375 1.203125h5.296875v-.125q-.015625-.5-.1875-.984375-.15625-.484375-.46875-.859375-.296875-.390625-.765625-.625-.46875-.234375-1.125-.234375zm7.8361816-1.203125.046875.9375q.296875-.53125.78125-.8125.5-.296875 1.1875-.296875 1.359375 0 1.8125 1.046875.296875-.46875.765625-.75.484375-.296875 1.15625-.296875 1.09375 0 1.671875.671875.578125.65625.578125 2v7.359375h-1.59375v-7.375q0-1.25-1.140625-1.234375-.296875 0-.515625.09375-.21875.078125-.375.21875-.140625.140625-.21875.328125-.078125.1875-.109375.375v7.59375h-1.609375v-7.390625q0-.59375-.265625-.90625-.265625-.328125-.828125-.3125-.53125 0-.828125.21875-.28125.203125-.421875.546875v7.84375h-1.609375v-9.859375zm14.773682 10.046875q-1.03125 0-1.90625-.359375-.875-.359375-1.5-.984375-.609375-.640625-.953125-1.515625-.34375-.875-.34375-1.90625v-.390625q0-1.1875.375-2.125.390625-.953125 1.015625-1.59375.640625-.65625 1.4375-1 .8125-.34375 1.65625-.34375 1.0625 0 1.859375.375.796875.359375 1.328125 1.015625.53125.640625.78125 1.53125.265625.875.265625 1.90625v.75h-7.03125q.015625.6875.25 1.28125.234375.578125.640625 1.03125.40625.4375.96875.703125.5625.25 1.25.25.90625 0 1.59375-.359375.703125-.375 1.171875-.96875l1.03125.796875q-.25.375-.625.71875-.359375.328125-.84375.59375-.484375.265625-1.09375.421875-.609375.171875-1.328125.171875zm-.21875-8.84375q-.515625 0-.96875.1875-.453125.1875-.8125.546875-.359375.359375-.625.890625-.25.515625-.34375 1.203125h5.296875v-.125q-.015625-.5-.1875-.984375-.15625-.484375-.46875-.859375-.296875-.390625-.765625-.625-.46875-.234375-1.125-.234375zm8.570557-1.203125.125 1.453125q.53125-.765625 1.3125-1.1875.78125-.4375 1.75-.4375.78125 0 1.40625.21875.640625.21875 1.078125.6875.453125.453125.6875 1.171875.25.71875.25 1.6875v6.265625h-1.6875v-6.21875q0-.65625-.15625-1.109375-.140625-.453125-.421875-.734375-.28125-.296875-.703125-.421875-.40625-.125-.953125-.125-.84375 0-1.484375.421875-.640625.421875-1.03125 1.125v7.0625h-1.6875v-9.859375zm13.679932-2.390625v2.390625h3.75v1.3125h-3.75v5.34375q0 .578125.140625.953125.140625.375.390625.59375.265625.21875.59375.3125.34375.09375.71875.09375.265625 0 .546875-.03125.296875-.03125.578125-.078125.28125-.046875.515625-.09375.25-.046875.40625-.09375l.234375 1.203125q-.21875.125-.515625.21875-.296875.09375-.65625.15625-.34375.078125-.75.109375-.390625.046875-.78125.046875-.65625 0-1.234375-.1875-.5625-.1875-.984375-.59375-.421875-.40625-.671875-1.046875-.234375-.640625-.234375-1.5625v-5.34375h-2.578125v-1.3125h2.578125v-2.390625zm13.758057 9.640625q0-.3125-.125-.546875-.125-.234375-.40625-.4375-.28125-.203125-.75-.375-.453125-.171875-1.140625-.296875-.859375-.1875-1.5625-.421875-.6875-.25-1.1875-.59375-.484375-.34375-.765625-.796875-.265625-.46875-.265625-1.078125 0-.59375.28125-1.109375.28125-.53125.78125-.921875.515625-.390625 1.21875-.609375.703125-.234375 1.5625-.234375.90625 0 1.625.234375.734375.234375 1.25.65625.515625.40625.78125.96875.28125.5625.28125 1.21875h-1.6875q0-.328125-.171875-.625-.15625-.3125-.453125-.546875-.28125-.234375-.703125-.375-.40625-.15625-.921875-.15625-.546875 0-.953125.125-.40625.109375-.671875.3125-.265625.203125-.40625.46875-.140625.265625-.140625.546875 0 .28125.109375.515625.109375.234375.375.421875.28125.171875.734375.328125.453125.140625 1.140625.265625.90625.203125 1.625.453125.71875.25 1.203125.609375.5.34375.75.8125.265625.453125.265625 1.0625 0 .65625-.296875 1.203125-.28125.53125-.8125.921875-.53125.375-1.265625.59375-.734375.203125-1.609375.203125-1.015625 0-1.796875-.265625-.78125-.28125-1.328125-.71875-.53125-.4375-.828125-1.015625-.28125-.59375-.28125-1.21875h1.6875q.03125.515625.265625.875.25.359375.609375.578125.359375.21875.796875.3125.4375.078125.875.078125 1.0625 0 1.671875-.390625.625-.390625.640625-1.03125zm7.5705566 1.515625q0-.265625.078125-.5.09375-.25.25-.421875.171875-.1875.421875-.28125.25-.09375.578125-.09375.328125 0 .578125.09375.25.09375.40625.28125.171875.171875.25.421875.09375.234375.09375.5 0 .265625-.09375.5-.078125.234375-.25.40625-.15625.171875-.40625.265625-.25.09375-.578125.09375-.328125 0-.578125-.09375-.25-.09375-.421875-.265625-.15625-.171875-.25-.40625-.078125-.234375-.078125-.5zm0-8q0-.265625.078125-.5.09375-.25.25-.421875.171875-.1875.421875-.28125.25-.09375.578125-.09375.328125 0 .578125.09375.25.09375.40625.28125.171875.171875.25.421875.09375.234375.09375.5 0 .265625-.09375.5-.078125.234375-.25.40625-.15625.171875-.40625.265625-.25.09375-.578125.09375-.328125 0-.578125-.09375-.25-.09375-.421875-.265625-.15625-.171875-.25-.40625-.078125-.234375-.078125-.5zm21.422363 1.65625h1.203125q.640625 0 1.125-.171875.5-.171875.828125-.46875.328125-.3125.5-.734375.171875-.421875.171875-.921875 0-1.15625-.59375-1.734375-.59375-.59375-1.71875-.59375-.546875 0-.984375.171875-.4375.15625-.765625.453125-.3125.296875-.484375.71875-.171875.421875-.171875.9375h-1.6875q0-.765625.296875-1.421875.296875-.671875.828125-1.171875.53125-.5 1.28125-.78125.765625-.296875 1.6875-.296875.890625 0 1.625.25.734375.234375 1.265625.71875.53125.46875.8125 1.171875.296875.703125.296875 1.625 0 .375-.125.796875-.109375.40625-.359375.796875-.25.375-.640625.71875-.375.34375-.921875.5625.65625.21875 1.078125.5625.4375.328125.703125.75.265625.421875.359375.890625.109375.453125.109375.90625 0 .9375-.328125 1.65625-.3125.71875-.875 1.21875-.5625.484375-1.34375.75-.765625.265625-1.65625.265625-.875 0-1.640625-.25-.765625-.25-1.34375-.71875-.5625-.46875-.890625-1.15625-.328125-.6875-.328125-1.5625h1.6875q0 .515625.171875.953125.171875.421875.5.734375.328125.296875.796875.46875.46875.15625 1.046875.15625.578125 0 1.03125-.15625.46875-.15625.796875-.453125.328125-.3125.5-.765625.1875-.46875.1875-1.09375 0-.625-.203125-1.078125-.203125-.453125-.578125-.75-.359375-.296875-.890625-.4375-.515625-.15625-1.15625-.15625h-1.203125z" fill="#000"/></g></svg>