<svg fill="none" stroke-linecap="square" stroke-miterlimit="10" viewBox="0 0 912.56430446 427.22309711" xmlns="http://www.w3.org/2000/svg" xmlns:xlink="http://www.w3.org/1999/xlink"><clipPath id="a"><path d="m0 0h912.56433v427.22308h-912.56433z"/></clipPath><g clip-path="url(#a)"><path d="m0 0h912.56433v427.22308h-912.56433z" fill="none"/><path d="m100.70998 80.91428c0-24.811272 20.11351-44.92478 44.924774-44.92478h179.69374c11.914795 0 23.341583 4.7331314 31.766632 13.158165 8.425018 8.42503 13.158173 19.851822 13.158173 31.766617v265.39453c0 24.81128-20.113525 44.924774-44.924805 44.924774h-179.69374c-24.811264 0-44.924774-20.113495-44.924774-44.924774z" fill="#fff" fill-rule="evenodd"/><path d="m100.70998 80.91428c0-24.811272 20.11351-44.92478 44.924774-44.92478h179.69374c11.914795 0 23.341583 4.7331314 31.766632 13.158165 8.425018 8.42503 13.158173 19.851822 13.158173 31.766617v265.39453c0 24.81128-20.113525 44.924774-44.924805 44.924774h-179.69374c-24.811264 0-44.924774-20.113495-44.924774-44.924774z" fill-rule="evenodd" stroke="#000" stroke-linecap="butt" stroke-linejoin="round"/><path d="m123.623886 52.272964h115.779526v40.53543h-115.779526z" fill="none"/><path d="m134.09264 79.19296v-13.359375h5.921875q1.78125 0 2.703125.359375.9375.359375 1.484375 1.28125.5625.90625.5625 2.015625 0 1.40625-.921875 2.390625-.921875.96875-2.84375 1.234375.703125.34375 1.078125.671875.765625.703125 1.453125 1.765625l2.328125 3.640625h-2.21875l-1.765625-2.78125q-.78125-1.203125-1.28125-1.828125-.5-.640625-.90625-.890625-.390625-.265625-.796875-.359375-.296875-.078125-.984375-.078125h-2.046875v5.9375zm1.765625-7.453125h3.796875q1.21875 0 1.890625-.25.6875-.265625 1.046875-.8125.359375-.546875.359375-1.1875 0-.953125-.6875-1.5625-.6875-.609375-2.1875-.609375h-4.21875zm17.801071 7.453125v-1.421875q-1.125 1.640625-3.0625 1.640625-.859375 0-1.609375-.328125-.734375-.328125-1.09375-.828125-.359375-.5-.5-1.21875-.109375-.46875-.109375-1.53125v-5.984375h1.640625v5.359375q0 1.28125.109375 1.734375.15625.640625.65625 1.015625.5.375 1.234375.375.734375 0 1.375-.375.65625-.390625.921875-1.03125.265625-.65625.265625-1.890625v-5.1875h1.640625v9.671875zm4.047592 0v-9.671875h1.46875v1.375q1.0625-1.59375 3.078125-1.59375.875 0 1.609375.3125.734375.3125 1.09375.828125.375.5.515625 1.203125.09375.453125.09375 1.59375v5.953125h-1.640625v-5.890625q0-1-.203125-1.484375-.1875-.5-.671875-.796875-.484375-.296875-1.140625-.296875-1.046875 0-1.8125.671875-.75.65625-.75 2.515625v5.28125zm9.719467-2.890625 1.625-.25q.125.96875.75 1.5.625.515625 1.75.515625 1.125 0 1.671875-.453125.546875-.46875.546875-1.09375 0-.546875-.484375-.875-.328125-.21875-1.671875-.546875-1.8125-.46875-2.515625-.796875-.6875-.328125-1.046875-.90625-.359375-.59375-.359375-1.3125 0-.640625.296875-1.1875.296875-.5625.8125-.921875.375-.28125 1.03125-.46875.671875-.203125 1.421875-.203125 1.140625 0 2 .328125.859375.328125 1.265625.890625.421875.5625.578125 1.5l-1.609375.21875q-.109375-.75-.640625-1.171875-.515625-.421875-1.46875-.421875-1.140625 0-1.625.375-.46875.375-.46875.875 0 .3125.1875.578125.203125.265625.640625.4375.234375.09375 1.4375.421875 1.75.453125 2.4375.75.6875.296875 1.078125.859375.390625.5625.390625 1.40625 0 .828125-.484375 1.546875-.46875.71875-1.375 1.125-.90625.390625-2.046875.390625-1.875 0-2.875-.78125-.984375-.78125-1.25-2.328125zm14.511429 0 1.625-.25q.125.96875.75 1.5.625.515625 1.75.515625 1.125 0 1.671875-.453125.546875-.46875.546875-1.09375 0-.546875-.484375-.875-.328125-.21875-1.671875-.546875-1.8125-.46875-2.515625-.796875-.6875-.328125-1.046875-.90625-.359375-.59375-.359375-1.3125 0-.640625.296875-1.1875.296875-.5625.8125-.921875.375-.28125 1.03125-.46875.671875-.203125 1.421875-.203125 1.140625 0 2 .328125.859375.328125 1.265625.890625.421875.5625.578125 1.5l-1.609375.21875q-.109375-.75-.640625-1.171875-.515625-.421875-1.46875-.421875-1.140625 0-1.625.375-.46875.375-.46875.875 0 .3125.1875.578125.203125.265625.640625.4375.234375.09375 1.4375.421875 1.75.453125 2.4375.75.6875.296875 1.078125.859375.390625.5625.390625 1.40625 0 .828125-.484375 1.546875-.46875.71875-1.375 1.125-.90625.390625-2.046875.390625-1.875 0-2.875-.78125-.984375-.78125-1.25-2.328125zm13.5625 1.421875.234375 1.453125q-.6875.140625-1.234375.140625-.890625 0-1.390625-.28125-.484375-.28125-.6875-.734375-.203125-.46875-.203125-1.9375v-5.578125h-1.203125v-1.265625h1.203125v-2.390625l1.625-.984375v3.375h1.65625v1.265625h-1.65625v5.671875q0 .6875.078125.890625.09375.203125.28125.328125.203125.109375.578125.109375.265625 0 .71875-.0625zm7.917679.28125q-.921875.765625-1.765625 1.09375-.828125.3125-1.796875.3125-1.59375 0-2.453125-.78125-.859375-.78125-.859375-1.984375 0-.71875.328125-1.296875.328125-.59375.84375-.9375.53125-.359375 1.1875-.546875.46875-.125 1.453125-.25 1.984375-.234375 2.921875-.5625.015625-.34375.015625-.421875 0-1-.46875-1.421875-.625-.546875-1.875-.546875-1.15625 0-1.703125.40625-.546875.40625-.8125 1.421875l-1.609375-.21875q.21875-1.015625.71875-1.640625.5-.640625 1.453125-.984375.953125-.34375 2.1875-.34375 1.25 0 2.015625.296875.78125.28125 1.140625.734375.375.4375.515625 1.109375.078125.421875.078125 1.515625v2.1875q0 2.28125.109375 2.890625.109375.59375.40625 1.15625h-1.703125q-.265625-.515625-.328125-1.1875zm-.140625-3.671875q-.890625.375-2.671875.625-1.015625.140625-1.4375.328125-.421875.1875-.65625.53125-.21875.34375-.21875.78125 0 .65625.5 1.09375.5.4375 1.453125.4375.9375 0 1.671875-.40625.75-.421875 1.09375-1.140625.265625-.5625.265625-1.640625zm10.516342 1.3125 1.609375.21875q-.265625 1.65625-1.359375 2.609375-1.078125.9375-2.671875.9375-1.984375 0-3.1875-1.296875-1.203125-1.296875-1.203125-3.71875 0-1.578125.515625-2.75.515625-1.171875 1.578125-1.75 1.0625-.59375 2.3125-.59375 1.578125 0 2.578125.796875 1 .796875 1.28125 2.265625l-1.59375.234375q-.234375-.96875-.8125-1.453125-.578125-.5-1.390625-.5-1.234375 0-2.015625.890625-.78125.890625-.78125 2.8125 0 1.953125.75 2.84375.75.875 1.953125.875.96875 0 1.609375-.59375.65625-.59375.828125-1.828125zm3.015625 3.546875v-13.359375h1.640625v7.625l3.890625-3.9375h2.109375l-3.6875 3.59375 4.0625 6.078125h-2.015625l-3.203125-4.953125-1.15625 1.125v3.828125z" fill="#000"/><path d="m170.75706 105.93964h129.4488v40.53543h-129.4488z" fill="#d9d9d9" fill-rule="evenodd"/><path d="m170.75706 105.93964h129.4488v40.53543h-129.4488z" fill-rule="evenodd" stroke="#000" stroke-linecap="butt" stroke-linejoin="round"/><path d="m229.22844 132.85963 5.125-13.359375h1.90625l5.46875 13.359375h-2.015625l-1.546875-4.046875h-5.59375l-1.46875 4.046875zm3.859375-5.484375h4.53125l-1.40625-3.703125q-.625-1.6875-.9375-2.765625-.265625 1.28125-.71875 2.546875z" fill="#000"/><path d="m185.41916 170.78477h100.09448v40.53543h-100.09448z" fill="#d9d9d9" fill-rule="evenodd"/><path d="m185.41916 170.78477h100.09448v40.53543h-100.09448z" fill-rule="evenodd" stroke="#000" stroke-linecap="butt" stroke-linejoin="round"/><path d="m230.60399 197.70477v-13.359375h5.015625q1.53125 0 2.453125.40625.921875.40625 1.4375 1.25.53125.84375.53125 1.765625 0 .859375-.46875 1.625-.453125.75-1.390625 1.203125 1.203125.359375 1.859375 1.21875.65625.859375.65625 2.015625 0 .9375-.40625 1.75-.390625.796875-.984375 1.234375-.578125.4375-1.453125.671875-.875.21875-2.15625.21875zm1.78125-7.75h2.875q1.1875 0 1.6875-.140625.671875-.203125 1.015625-.671875.34375-.46875.34375-1.171875 0-.65625-.328125-1.15625-.3125-.515625-.90625-.703125-.59375-.1875-2.03125-.1875h-2.65625zm0 6.171875h3.3125q.859375 0 1.203125-.0625.609375-.109375 1.015625-.359375.421875-.265625.6875-.75.265625-.484375.265625-1.125 0-.75-.390625-1.296875-.375-.546875-1.0625-.765625-.671875-.234375-1.953125-.234375h-3.078125z" fill="#000"/><path d="m116.39554 235.62993h238.17322v40.535416h-238.17322z" fill="#d9d9d9" fill-rule="evenodd"/><path d="m116.39554 235.62993h238.17322v40.535416h-238.17322z" fill-rule="evenodd" stroke="#000" stroke-linecap="butt" stroke-linejoin="round"/><path d="m239.71443 257.86243 1.765625.453125q-.5625 2.171875-2 3.328125-1.4375 1.140625-3.53125 1.140625-2.15625 0-3.515625-.875-1.34375-.890625-2.0625-2.546875-.703125-1.671875-.703125-3.59375 0-2.078125.796875-3.625.796875-1.5625 2.265625-2.359375 1.484375-.8125 3.25-.8125 2 0 3.359375 1.015625 1.375 1.015625 1.90625 2.875l-1.734375.40625q-.46875-1.453125-1.359375-2.109375-.875-.671875-2.203125-.671875-1.546875 0-2.578125.734375-1.03125.734375-1.453125 1.984375-.421875 1.234375-.421875 2.5625 0 1.703125.5 2.96875.5 1.265625 1.546875 1.90625 1.046875.625 2.265625.625 1.484375 0 2.515625-.859375 1.03125-.859375 1.390625-2.546875z" fill="#000"/><path d="m221.60814 279.4908h27.748032v40.53543h-27.748032z" fill="none"/><path d="m234.578 306.4108v-1.875h1.875v1.875z" fill="#000"/><path d="m234.578 328.4108v-1.875h1.875v1.875z" fill="#000"/><path d="m234.578 350.4108v-1.875h1.875v1.875z" fill="#000"/><path d="m542.31104 80.91612c0-24.811272 20.113525-44.92478 44.924744-44.92478h179.69379c11.914795 0 23.341553 4.733135 31.766602 13.158165 8.425049 8.425034 13.158142 19.85183 13.158142 31.766617v265.3399c0 24.81128-20.113464 44.924774-44.924744 44.924774h-179.69379c-24.811218 0-44.924744-20.113495-44.924744-44.924774z" fill="#fff" fill-rule="evenodd"/><path d="m542.31104 80.91612c0-24.811272 20.113525-44.92478 44.924744-44.92478h179.69379c11.914795 0 23.341553 4.733135 31.766602 13.158165 8.425049 8.425034 13.158142 19.85183 13.158142 31.766617v265.3399c0 24.81128-20.113464 44.924774-44.924744 44.924774h-179.69379c-24.811218 0-44.924744-20.113495-44.924744-44.924774z" fill-rule="evenodd" stroke="#000" stroke-linecap="butt" stroke-linejoin="round"/><path d="m565.2239 52.416473h115.77954v40.888092h-115.77954z" fill="none"/><path d="m575.6926 79.33647v-13.359375h5.921875q1.78125 0 2.703125.359375.9375.359375 1.484375 1.28125.5625.90625.5625 2.015625 0 1.40625-.921875 2.390625-.921875.96875-2.84375 1.234375.703125.34375 1.078125.671875.765625.703125 1.453125 1.765625l2.328125 3.640625h-2.21875l-1.765625-2.78125q-.78125-1.203125-1.28125-1.828125-.5-.640625-.90625-.890625-.390625-.265625-.796875-.359375-.296875-.078125-.984375-.078125h-2.046875v5.9375zm1.765625-7.453125h3.796875q1.21875 0 1.890625-.25.6875-.265625 1.046875-.8125.359375-.546875.359375-1.1875 0-.953125-.6875-1.5625-.6875-.609375-2.1875-.609375h-4.21875zm17.801086 7.453125v-1.421875q-1.125 1.640625-3.0625 1.640625-.859375 0-1.609375-.328125-.734375-.328125-1.09375-.828125-.359375-.5-.5-1.21875-.109375-.46875-.109375-1.53125v-5.984375h1.640625v5.359375q0 1.28125.109375 1.734375.15625.640625.65625 1.015625.5.375 1.234375.375.734375 0 1.375-.375.65625-.390625.921875-1.03125.265625-.65625.265625-1.890625v-5.1875h1.640625v9.671875zm4.0476074 0v-9.671875h1.46875v1.375q1.0625-1.59375 3.078125-1.59375.875 0 1.609375.3125.734375.3125 1.09375.828125.375.5.515625 1.203125.09375.453125.09375 1.59375v5.953125h-1.640625v-5.890625q0-1-.203125-1.484375-.1875-.5-.671875-.796875-.484375-.296875-1.140625-.296875-1.046875 0-1.8125.671875-.75.65625-.75 2.515625v5.28125zm9.719421-2.890625 1.625-.25q.125.96875.75 1.5.625.515625 1.75.515625 1.125 0 1.671875-.453125.546875-.46875.546875-1.09375 0-.546875-.484375-.875-.328125-.21875-1.671875-.546875-1.8125-.46875-2.515625-.796875-.6875-.328125-1.046875-.90625-.359375-.59375-.359375-1.3125 0-.640625.296875-1.1875.296875-.5625.8125-.921875.375-.28125 1.03125-.46875.671875-.203125 1.421875-.203125 1.140625 0 2 .328125.859375.328125 1.265625.890625.421875.5625.578125 1.5l-1.609375.21875q-.109375-.75-.640625-1.171875-.515625-.421875-1.46875-.421875-1.140625 0-1.625.375-.46875.375-.46875.875 0 .3125.1875.578125.203125.265625.640625.4375.234375.09375 1.4375.421875 1.75.453125 2.4375.75.6875.296875 1.078125.859375.390625.5625.390625 1.40625 0 .828125-.484375 1.546875-.46875.71875-1.375 1.125-.90625.390625-2.046875.390625-1.875 0-2.875-.78125-.984375-.78125-1.25-2.328125zm14.511475 0 1.625-.25q.125.96875.75 1.5.625.515625 1.75.515625 1.125 0 1.671875-.453125.546875-.46875.546875-1.09375 0-.546875-.484375-.875-.328125-.21875-1.671875-.546875-1.8125-.46875-2.515625-.796875-.6875-.328125-1.046875-.90625-.359375-.59375-.359375-1.3125 0-.640625.296875-1.1875.296875-.5625.8125-.921875.375-.28125 1.03125-.46875.671875-.203125 1.421875-.203125 1.140625 0 2 .328125.859375.328125 1.265625.890625.421875.5625.578125 1.5l-1.609375.21875q-.109375-.75-.640625-1.171875-.515625-.421875-1.46875-.421875-1.140625 0-1.625.375-.46875.375-.46875.875 0 .3125.1875.578125.203125.265625.640625.4375.234375.09375 1.4375.421875 1.75.453125 2.4375.75.6875.296875 1.078125.859375.390625.5625.390625 1.40625 0 .828125-.484375 1.546875-.46875.71875-1.375 1.125-.90625.390625-2.046875.390625-1.875 0-2.875-.78125-.984375-.78125-1.25-2.328125zm13.5625 1.421875.234375 1.453125q-.6875.140625-1.234375.140625-.890625 0-1.390625-.28125-.484375-.28125-.6875-.734375-.203125-.46875-.203125-1.9375v-5.578125h-1.203125v-1.265625h1.203125v-2.390625l1.625-.984375v3.375h1.65625v1.265625h-1.65625v5.671875q0 .6875.078125.890625.09375.203125.28125.328125.203125.109375.578125.109375.265625 0 .71875-.0625zm7.9176636.28125q-.921875.765625-1.765625 1.09375-.828125.3125-1.796875.3125-1.59375 0-2.453125-.78125-.859375-.78125-.859375-1.984375 0-.71875.328125-1.296875.328125-.59375.84375-.9375.53125-.359375 1.1875-.546875.46875-.125 1.453125-.25 1.984375-.234375 2.921875-.5625.015625-.34375.015625-.421875 0-1-.46875-1.421875-.625-.546875-1.875-.546875-1.15625 0-1.703125.40625-.546875.40625-.8125 1.421875l-1.609375-.21875q.21875-1.015625.71875-1.640625.5-.640625 1.453125-.984375.953125-.34375 2.1875-.34375 1.25 0 2.015625.296875.78125.28125 1.140625.734375.375.4375.515625 1.109375.078125.421875.078125 1.515625v2.1875q0 2.28125.109375 2.890625.109375.59375.40625 1.15625h-1.703125q-.265625-.515625-.328125-1.1875zm-.140625-3.671875q-.890625.375-2.671875.625-1.015625.140625-1.4375.328125-.421875.1875-.65625.53125-.21875.34375-.21875.78125 0 .65625.5 1.09375.5.4375 1.453125.4375.9375 0 1.671875-.40625.75-.421875 1.09375-1.140625.265625-.5625.265625-1.640625zm10.516357 1.3125 1.609375.21875q-.265625 1.65625-1.359375 2.609375-1.078125.9375-2.671875.9375-1.984375 0-3.1875-1.296875-1.203125-1.296875-1.203125-3.71875 0-1.578125.515625-2.75.515625-1.171875 1.578125-1.75 1.0625-.59375 2.3125-.59375 1.578125 0 2.578125.796875 1 .796875 1.28125 2.265625l-1.59375.234375q-.234375-.96875-.8125-1.453125-.578125-.5-1.390625-.5-1.234375 0-2.015625.890625-.78125.890625-.78125 2.8125 0 1.953125.75 2.84375.75.875 1.953125.875.96875 0 1.609375-.59375.65625-.59375.828125-1.828125zm3.015625 3.546875v-13.359375h1.640625v7.625l3.890625-3.9375h2.109375l-3.6875 3.59375 4.0625 6.078125h-2.015625l-3.203125-4.953125-1.15625 1.125v3.828125z" fill="#000"/><path d="m597.4758 106.55004h159.21265v40.888084h-159.21265z" fill="#d9d9d9" fill-rule="evenodd"/><path d="m597.4758 106.55004h159.21265v40.888084h-159.21265z" fill-rule="evenodd" stroke="#000" stroke-linecap="butt" stroke-linejoin="round"/><path d="m653.97656 133.47003 5.125-13.359367h1.90625l5.46875 13.359367h-2.015625l-1.546875-4.046875h-5.59375l-1.46875 4.046875zm3.859375-5.4843674h4.53125l-1.40625-3.703125q-.625-1.6875-.9375-2.765625-.265625 1.28125-.71875 2.546875zm18.470642 3.3281174v-3.6718674h-3.640625v-1.515625h3.640625v-3.640625h1.546875v3.640625h3.640625v1.515625h-3.640625v3.6718674zm12.765747 2.15625v-13.359367h5.015625q1.53125 0 2.453125.40625.921875.40625 1.4375 1.25.53125.84375.53125 1.765625 0 .859375-.46875 1.625-.453125.75-1.390625 1.203125 1.203125.359375 1.859375 1.21875.65625.8593674.65625 2.0156174 0 .9375-.40625 1.75-.390625.796875-.984375 1.234375-.578125.4375-1.453125.671875-.875.21875-2.15625.21875h-5.09375zm1.78125-7.7499924h2.875q1.1875 0 1.6875-.140625.671875-.203125 1.015625-.671875.34375-.46875.34375-1.171875 0-.65625-.328125-1.15625-.3125-.515625-.90625-.703125-.59375-.1875-2.03125-.1875h-2.65625zm0 6.1718674h3.3125q.859375 0 1.203125-.0625.609375-.109375 1.015625-.359375.421875-.265625.6875-.75.265625-.484375.265625-1.125 0-.75-.390625-1.296875-.375-.5468674-1.0625-.7656174-.671875-.234375-1.953125-.234375h-3.078125z" fill="#000"/><path d="m663.2081 281.81992h27.748047v40.888092h-27.748047z" fill="none"/><path d="m676.178 308.73993v-1.875h1.875v1.875z" fill="#000"/><path d="m676.178 330.73993v-1.875h1.875v1.875z" fill="#000"/><path d="m676.178 352.73993v-1.875h1.875v1.875z" fill="#000"/><g fill-rule="evenodd"><path d="m406.2349 139.5538h85.322845v-7.3858185l14.7716675 14.771652-14.7716675 14.771652v-7.3858337h-85.322845z" fill="#fff"/><path d="m406.2349 139.5538h85.322845v-7.3858185l14.7716675 14.771652-14.7716675 14.771652v-7.3858337h-85.322845z" stroke="#000" stroke-linecap="butt" stroke-linejoin="round"/><path d="m560.33203 176.25197h238.17322v40.53543h-238.17322z" fill="#d9d9d9"/><path d="m560.33203 176.25197h238.17322v40.53543h-238.17322z" stroke="#000" stroke-linecap="butt" stroke-linejoin="round"/></g><path d="m683.65094 198.48447 1.765625.453125q-.5625 2.171875-2 3.328125-1.4375 1.140625-3.53125 1.140625-2.15625 0-3.515625-.875-1.34375-.890625-2.0625-2.546875-.703125-1.671875-.703125-3.59375 0-2.078125.796875-3.625.796875-1.5625 2.265625-2.359375 1.484375-.8125 3.25-.8125 2 0 3.359375 1.015625 1.375 1.015625 1.90625 2.875l-1.734375.40625q-.46875-1.453125-1.359375-2.109375-.875-.671875-2.203125-.671875-1.546875 0-2.578125.734375-1.03125.734375-1.453125 1.984375-.421875 1.234375-.421875 2.5625 0 1.703125.5 2.96875.5 1.265625 1.546875 1.90625 1.046875.625 2.265625.625 1.484375 0 2.515625-.859375 1.03125-.859375 1.390625-2.546875z" fill="#000"/></g></svg>