<svg viewBox="0 0 100 146.562" fill="none" stroke-linecap="square" stroke-miterlimit="10" xmlns="http://www.w3.org/2000/svg"><clipPath id="a"><path d="M0 0h100v146.562H0V0z"/></clipPath><g clip-path="url(#a)"><path fill="none" d="M0 0h100v146.562H0z"/><path fill="none" d="M22.724 12.793h54.552v28.819H22.724z"/><path stroke="#000" stroke-width="2" stroke-linejoin="round" stroke-linecap="butt" d="M22.724 12.793h54.552v28.819H22.724z"/><path fill="#000" d="M52.565 30.497H47.44l-1.047 2.844h1.5q.281 0 .39.11.125.109.125.28 0 .172-.125.282-.109.11-.39.11H44.97q-.266 0-.39-.11-.126-.11-.126-.282 0-.171.125-.28.125-.11.39-.11h.61l3.438-9.297H46.72q-.281 0-.406-.094-.11-.11-.11-.297 0-.172.11-.28.125-.11.406-.11h3.922l3.812 10.078h.594q.281 0 .39.11.126.109.126.28 0 .172-.125.282-.11.11-.39.11h-2.907q-.281 0-.406-.11t-.125-.282q0-.171.125-.28.125-.11.406-.11h1.484l-1.062-2.844zm-.297-.781l-2.156-5.672h-.282l-2.093 5.672h4.53z"/><path fill="none" d="M22.724 104.95h54.552v28.819H22.724z"/><path stroke="#000" stroke-width="2" stroke-linejoin="round" stroke-linecap="butt" d="M22.724 104.95h54.552v28.819H22.724z"/><path fill="#000" d="M46.674 125.498v-9.297h-1.047q-.281 0-.406-.093-.11-.11-.11-.297 0-.172.11-.281.125-.11.406-.11h4.89q1.47 0 2.376.844.922.844.922 1.969 0 1.437-1.532 2.312 1.204.438 1.766 1.172.578.719.578 1.578 0 .781-.375 1.438-.375.64-1.14 1.093-.766.454-1.657.454h-5.828q-.281 0-.406-.11-.11-.11-.11-.281 0-.172.11-.281.125-.11.406-.11h1.047zm.781-5.25h2.75q.89 0 1.625-.328.563-.25.875-.734.313-.5.313-1.016 0-.734-.688-1.344-.687-.625-1.78-.625h-3.095v4.047zm0 5.25h3.938q.75 0 1.312-.328.563-.344.844-.828.281-.5.281-1.016 0-.593-.406-1.156-.406-.562-1.14-.844-.735-.28-2.032-.28h-2.797v4.452z"/><path fill="none" d="M50 104.95V41.612"/><path stroke="#000" stroke-width="2" stroke-linejoin="round" stroke-linecap="butt" d="M50 104.95V53.612"/><path stroke="#000" stroke-width="2" stroke-linecap="butt" d="M53.303 53.612L50 44.535l-3.303 9.077z"/></g></svg>