<svg fill="none" height="354" stroke-linecap="square" stroke-miterlimit="10" width="861" xmlns="http://www.w3.org/2000/svg" xmlns:xlink="http://www.w3.org/1999/xlink"><clipPath id="a"><path d="m148.7 44.5h694.6v270.8h-694.6z"/></clipPath><path d="m0 0h861v354h-861z" fill="#fff"/><path d="m0 0h861v354h-861z" fill="#fff"/><g stroke-linecap="butt"><path d="m148.5 44.5v271" stroke="#333"/><path d="m287.5 44.5v271m139-271v271m139-271v271m139-271v271m139-271v271" stroke="#ccc"/><path d="m252.5 44.5v271m-34-271v271m-35-271v271m208-271v271m-34-271v271m-35-271v271m208-271v271m-35-271v271m-34-271v271m208-271v271m-35-271v271m-34-271v271m208-271v271m-35-271v271m-34-271v271" stroke="#e6e6e6"/></g><path clip-path="url(#a)" d="m149 68v-8h342a2 2 0 0 1 2 2v4a2 2 0 0 1 -2 2z"/><path clip-path="url(#a)" d="m149 68v-8h342a2 2 0 0 1 2 2v4a2 2 0 0 1 -2 2z" fill="#9fc5e8"/><path clip-path="url(#a)" d="m149 111v-8h564a2 2 0 0 1 2 2v4a2 2 0 0 1 -2 2z"/><path clip-path="url(#a)" d="m149 111v-8h564a2 2 0 0 1 2 2v4a2 2 0 0 1 -2 2z" fill="#9fc5e8"/><path clip-path="url(#a)" d="m149 154v-8h412a2 2 0 0 1 2 2v4a2 2 0 0 1 -2 2z"/><path clip-path="url(#a)" d="m149 154v-8h412a2 2 0 0 1 2 2v4a2 2 0 0 1 -2 2z" fill="#9fc5e8"/><path clip-path="url(#a)" d="m149 196v-8h501a2 2 0 0 1 2 2v4a2 2 0 0 1 -2 2z"/><path clip-path="url(#a)" d="m149 196v-8h501a2 2 0 0 1 2 2v4a2 2 0 0 1 -2 2z" fill="#9fc5e8"/><path clip-path="url(#a)" d="m149 239v-8h452a2 2 0 0 1 2 2v4a2 2 0 0 1 -2 2z"/><path clip-path="url(#a)" d="m149 239v-8h452a2 2 0 0 1 2 2v4a2 2 0 0 1 -2 2z" fill="#9fc5e8"/><path clip-path="url(#a)" d="m149 282v-8h465a2 2 0 0 1 2 2v4a2 2 0 0 1 -2 2z"/><path clip-path="url(#a)" d="m149 282v-8h465a2 2 0 0 1 2 2v4a2 2 0 0 1 -2 2z" fill="#9fc5e8"/><path clip-path="url(#a)" d="m149 77v-8h399a2 2 0 0 1 2 2v4a2 2 0 0 1 -2 2z"/><path clip-path="url(#a)" d="m149 77v-8h399a2 2 0 0 1 2 2v4a2 2 0 0 1 -2 2z" fill="#3d85c6"/><path clip-path="url(#a)" d="m149 120v-8h411a2 2 0 0 1 2 2v4a2 2 0 0 1 -2 2z"/><path clip-path="url(#a)" d="m149 120v-8h411a2 2 0 0 1 2 2v4a2 2 0 0 1 -2 2z" fill="#3d85c6"/><path clip-path="url(#a)" d="m149 163v-8h357a2 2 0 0 1 2 2v4a2 2 0 0 1 -2 2z"/><path clip-path="url(#a)" d="m149 163v-8h357a2 2 0 0 1 2 2v4a2 2 0 0 1 -2 2z" fill="#3d85c6"/><path clip-path="url(#a)" d="m149 205v-8h389a2 2 0 0 1 2 2v4a2 2 0 0 1 -2 2z"/><path clip-path="url(#a)" d="m149 205v-8h389a2 2 0 0 1 2 2v4a2 2 0 0 1 -2 2z" fill="#3d85c6"/><path clip-path="url(#a)" d="m149 248v-8h343a2 2 0 0 1 2 2v4a2 2 0 0 1 -2 2z"/><path clip-path="url(#a)" d="m149 248v-8h343a2 2 0 0 1 2 2v4a2 2 0 0 1 -2 2z" fill="#3d85c6"/><path clip-path="url(#a)" d="m149 291v-8h390a2 2 0 0 1 2 2v4a2 2 0 0 1 -2 2z"/><path clip-path="url(#a)" d="m149 291v-8h390a2 2 0 0 1 2 2v4a2 2 0 0 1 -2 2z" fill="#3d85c6"/><path clip-path="url(#a)" d="m149 86v-8h276a2 2 0 0 1 2 2v4a2 2 0 0 1 -2 2z"/><path clip-path="url(#a)" d="m149 86v-8h276a2 2 0 0 1 2 2v4a2 2 0 0 1 -2 2z" fill="#073763"/><path clip-path="url(#a)" d="m149 129v-8h276a2 2 0 0 1 2 2v4a2 2 0 0 1 -2 2z"/><path clip-path="url(#a)" d="m149 129v-8h276a2 2 0 0 1 2 2v4a2 2 0 0 1 -2 2z" fill="#073763"/><path clip-path="url(#a)" d="m149 172v-8h276a2 2 0 0 1 2 2v4a2 2 0 0 1 -2 2z"/><path clip-path="url(#a)" d="m149 172v-8h276a2 2 0 0 1 2 2v4a2 2 0 0 1 -2 2z" fill="#073763"/><path clip-path="url(#a)" d="m149 214v-8h276a2 2 0 0 1 2 2v4a2 2 0 0 1 -2 2z"/><path clip-path="url(#a)" d="m149 214v-8h276a2 2 0 0 1 2 2v4a2 2 0 0 1 -2 2z" fill="#073763"/><path clip-path="url(#a)" d="m149 257v-8h276a2 2 0 0 1 2 2v4a2 2 0 0 1 -2 2z"/><path clip-path="url(#a)" d="m149 257v-8h276a2 2 0 0 1 2 2v4a2 2 0 0 1 -2 2z" fill="#073763"/><path clip-path="url(#a)" d="m149 300v-8h276a2 2 0 0 1 2 2v4a2 2 0 0 1 -2 2z"/><path clip-path="url(#a)" d="m149 300v-8h276a2 2 0 0 1 2 2v4a2 2 0 0 1 -2 2z" fill="#073763"/><path d="m47.153 77.91q-1.297 0-2.11-.843-.796-.86-.796-2.281v-.188q0-.953.36-1.687.359-.75 1-1.156.656-.422 1.406-.422 1.234 0 1.921.812.688.813.688 2.328v.453h-4.297q.031.938.547 1.516.531.578 1.344.578.562 0 .953-.234.406-.235.719-.625l.656.515q-.797 1.235-2.39 1.235zm-.14-5.687q-.657 0-1.11.485-.437.468-.531 1.328h3.172v-.078q-.047-.828-.453-1.282-.391-.453-1.078-.453zm3.25 2.344q0-1.469.687-2.344.688-.89 1.813-.89 1.109 0 1.765.75v-3.297h1.078v9h-1l-.047-.688q-.656.813-1.812.813-1.094 0-1.797-.906-.688-.907-.688-2.36v-.078zm1.078.125q0 1.078.437 1.688.453.609 1.235.609 1.03 0 1.515-.938v-2.906q-.484-.89-1.5-.89-.797 0-1.25.609-.437.61-.437 1.828zm7.359 3.094h-1.078v-6.344h1.078zm-1.172-8.016q0-.265.156-.453.172-.187.485-.187.312 0 .469.187.171.188.171.453 0 .25-.171.438-.157.172-.47.172-.312 0-.484-.172-.156-.188-.156-.438zm4.469.14v1.532h1.172v.844h-1.172v3.922q0 .39.156.578.156.187.531.187.188 0 .516-.062v.875q-.422.125-.828.125-.719 0-1.094-.438-.375-.453-.375-1.265v-3.922h-1.156v-.844h1.156v-1.531h1.094zm3.703 7.876h-1.078v-6.344h1.078zm-1.172-8.016q0-.265.156-.453.172-.187.485-.187.312 0 .469.187.171.188.171.453 0 .25-.171.438-.157.172-.47.172-.312 0-.484-.172-.156-.188-.156-.438zm2.703 4.781q0-.921.36-1.671.375-.75 1.03-1.141.657-.406 1.485-.406 1.297 0 2.094.89.813.891.813 2.391v.078q0 .922-.36 1.656-.36.735-1.016 1.157-.656.406-1.515.406-1.281 0-2.094-.89-.797-.907-.797-2.391zm1.094.141q0 1.047.484 1.688.5.64 1.313.64.828 0 1.312-.64.485-.657.485-1.829 0-1.03-.5-1.671-.485-.657-1.313-.657-.797 0-1.297.641-.484.625-.484 1.828zm7.219-3.25.031.797q.734-.906 1.906-.906 2.016 0 2.032 2.265v4.188h-1.094v-4.203q0-.672-.313-1-.297-.328-.953-.328-.531 0-.937.28-.391.282-.61.735v4.516h-1.078v-6.344zm6 5.781q0-.28.156-.468.172-.188.5-.188.344 0 .516.188.172.187.172.468 0 .266-.172.453-.172.172-.516.172-.328 0-.5-.172-.156-.187-.156-.453zm5.515-.203q.579 0 1.016-.344.438-.359.484-.89h1.032q-.032.547-.391 1.047-.344.484-.922.781-.562.297-1.219.297-1.296 0-2.062-.86-.75-.875-.75-2.375v-.187q0-.922.328-1.64.344-.72.969-1.11.64-.406 1.515-.406 1.063 0 1.766.64.719.625.766 1.657h-1.032q-.046-.625-.468-1.016-.422-.39-1.032-.39-.828 0-1.28.593-.454.594-.454 1.719v.203q0 1.094.453 1.687.453.594 1.281.594zm4.485-5.578.031.797q.734-.906 1.906-.906 2.016 0 2.032 2.265v4.188h-1.094v-4.203q0-.672-.313-1-.297-.328-.953-.328-.531 0-.937.28-.391.282-.61.735v4.516h-1.078v-6.344zm7 0 .031.797q.734-.906 1.906-.906 2.016 0 2.032 2.265v4.188h-1.094v-4.203q0-.672-.313-1-.297-.328-.953-.328-.531 0-.937.28-.391.282-.61.735v4.516h-1.078v-6.344zm6 5.781q0-.28.156-.468.172-.188.5-.188.344 0 .516.188.172.187.172.468 0 .266-.172.453-.172.172-.516.172-.328 0-.5-.172-.156-.187-.156-.453zm5.515-.203q.579 0 1.016-.344.438-.359.484-.89h1.032q-.032.547-.391 1.047-.344.484-.922.781-.562.297-1.219.297-1.296 0-2.062-.86-.75-.875-.75-2.375v-.187q0-.922.328-1.64.344-.72.969-1.11.64-.406 1.515-.406 1.063 0 1.766.64.719.625.766 1.657h-1.032q-.046-.625-.468-1.016-.422-.39-1.032-.39-.828 0-1.28.593-.454.594-.454 1.719v.203q0 1.094.453 1.687.453.594 1.281.594zm3.172-2.469q0-.921.36-1.671.375-.75 1.03-1.141.657-.406 1.485-.406 1.297 0 2.094.89.813.891.813 2.391v.078q0 .922-.36 1.656-.36.735-1.016 1.157-.656.406-1.515.406-1.281 0-2.094-.89-.797-.907-.797-2.391zm1.094.141q0 1.047.484 1.688.5.64 1.313.64.828 0 1.312-.64.485-.657.485-1.829 0-1.03-.5-1.671-.485-.657-1.313-.657-.797 0-1.297.641-.484.625-.484 1.828zm7.219-3.25.031.703q.688-.812 1.875-.812 1.328 0 1.813 1.015.312-.453.812-.734.516-.281 1.203-.281 2.094 0 2.125 2.203v4.25h-1.078v-4.188q0-.672-.313-1-.312-.343-1.046-.343-.61 0-1.016.359-.39.36-.453.969v4.203h-1.078v-4.156q0-1.375-1.36-1.375-1.062 0-1.453.906v4.625h-1.093v-6.344h1.03zm10 5.781q0-.28.156-.468.172-.188.5-.188.344 0 .516.188.171.187.171.468 0 .266-.171.453-.172.172-.516.172-.328 0-.5-.172-.156-.187-.156-.453zm4.093-5.78v7.077q0 1.828-1.656 1.828-.36 0-.656-.109v-.86q.188.047.484.047.36 0 .547-.203.203-.187.203-.687v-7.094h1.078zm-1.187-1.673q0-.265.156-.453.156-.187.469-.187.313 0 .469.187.172.188.172.453 0 .25-.172.438-.157.172-.469.172-.313 0-.469-.172-.156-.188-.156-.438zm6.766 6.328q0-.437-.344-.672-.328-.25-1.156-.421-.813-.172-1.297-.422-.485-.25-.719-.578-.219-.344-.219-.813 0-.781.656-1.312.657-.547 1.688-.547 1.078 0 1.734.562.672.547.672 1.406h-1.078q0-.437-.39-.75-.376-.328-.938-.328-.594 0-.938.266-.328.25-.328.656 0 .39.313.594.312.203 1.125.39.812.172 1.312.422t.735.61q.25.36.25.86 0 .859-.688 1.374-.672.516-1.75.516-.765 0-1.36-.266-.577-.281-.905-.765-.329-.485-.329-1.047h1.079q.03.547.437.875.406.312 1.078.312.61 0 .985-.25t.375-.672zm-86.156 44.333v-5.5h-1v-.843h1v-.64q0-1.032.53-1.579.547-.563 1.547-.563.376 0 .75.094l-.062.89q-.281-.062-.578-.062-.531 0-.828.313-.281.312-.281.875v.672h1.359v.843h-1.36v5.5zm7.374 0q-.093-.187-.156-.671-.75.796-1.797.796-.937 0-1.547-.53-.593-.532-.593-1.36 0-.985.75-1.531.75-.547 2.125-.547h1.047v-.5q0-.563-.344-.89-.328-.345-1-.345-.578 0-.969.297-.39.281-.39.703h-1.094q0-.484.328-.922.344-.437.922-.687.578-.266 1.265-.266 1.11 0 1.719.547.625.547.656 1.5v2.922q0 .875.219 1.39v.094h-1.14zm-1.796-.828q.515 0 .968-.265.453-.266.657-.688v-1.297h-.844q-2 0-2 1.172 0 .5.344.797.343.281.875.281zm7.421.063q.579 0 1.016-.344.438-.36.484-.89h1.032q-.032.546-.391 1.046-.344.485-.922.782-.562.296-1.219.296-1.296 0-2.062-.859-.75-.875-.75-2.375v-.187q0-.922.328-1.641.344-.719.969-1.11.64-.406 1.515-.406 1.063 0 1.766.641.719.625.766 1.656h-1.032q-.046-.625-.468-1.015-.422-.391-1.032-.391-.828 0-1.28.594-.454.593-.454 1.718v.204q0 1.093.453 1.687.453.594 1.281.594zm6.094.89q-1.297 0-2.11-.843-.796-.86-.796-2.282v-.187q0-.953.36-1.688.359-.75 1-1.156.656-.422 1.406-.422 1.234 0 1.921.813.688.812.688 2.328v.453h-4.297q.031.938.547 1.516.531.578 1.344.578.562 0 .953-.235.406-.234.719-.625l.656.516q-.797 1.234-2.39 1.234zm-.14-5.687q-.657 0-1.11.484-.437.47-.531 1.328h3.172v-.078q-.047-.828-.453-1.28-.391-.454-1.078-.454zm8.874 2.469q0 1.453-.671 2.343-.657.875-1.782.875-1.203 0-1.859-.859l-.063.734h-.984v-9h1.078v3.36q.657-.813 1.813-.813t1.812.875q.657.86.657 2.391v.094zm-1.078-.125q0-1.11-.437-1.703-.422-.61-1.219-.61-1.078 0-1.547.985v2.75q.5 1 1.547 1 .781 0 1.219-.61.437-.61.437-1.812zm2.422-.016q0-.922.36-1.672.375-.75 1.03-1.14.657-.407 1.485-.407 1.297 0 2.094.891.813.89.813 2.39v.079q0 .922-.36 1.656-.36.734-1.016 1.156-.656.406-1.515.406-1.281 0-2.094-.89-.797-.906-.797-2.39zm1.094.14q0 1.048.484 1.688.5.64 1.313.64.828 0 1.312-.64.485-.656.485-1.828 0-1.031-.5-1.672-.485-.656-1.313-.656-.797 0-1.297.64-.484.626-.484 1.829zm5.906-.14q0-.922.36-1.672.375-.75 1.03-1.14.657-.407 1.485-.407 1.297 0 2.094.891.813.89.813 2.39v.079q0 .922-.36 1.656-.36.734-1.016 1.156-.656.406-1.515.406-1.281 0-2.094-.89-.797-.906-.797-2.39zm1.094.14q0 1.048.484 1.688.5.64 1.313.64.828 0 1.312-.64.485-.656.485-1.828 0-1.031-.5-1.672-.485-.656-1.313-.656-.797 0-1.297.64-.484.626-.484 1.829zm7.969.157-.688.703v2.234h-1.078v-9h1.078v5.438l.578-.688 1.985-2.093h1.312l-2.468 2.656 2.765 3.687h-1.281zm4.25 2.375q0-.281.156-.469.172-.187.5-.187.344 0 .516.187.172.188.172.469 0 .266-.172.453-.172.172-.516.172-.328 0-.5-.172-.156-.187-.156-.453zm5.515-.203q.579 0 1.016-.344.438-.36.484-.89h1.032q-.032.546-.391 1.046-.344.485-.922.782-.562.296-1.219.296-1.296 0-2.062-.859-.75-.875-.75-2.375v-.187q0-.922.328-1.641.344-.719.969-1.11.64-.406 1.515-.406 1.063 0 1.766.641.719.625.766 1.656h-1.032q-.046-.625-.468-1.015-.422-.391-1.032-.391-.828 0-1.28.594-.454.593-.454 1.718v.204q0 1.093.453 1.687.453.594 1.281.594zm3.172-2.469q0-.922.36-1.672.375-.75 1.03-1.14.657-.407 1.485-.407 1.297 0 2.094.891.813.89.813 2.39v.079q0 .922-.36 1.656-.36.734-1.016 1.156-.656.406-1.515.406-1.281 0-2.094-.89-.797-.906-.797-2.39zm1.094.14q0 1.048.484 1.688.5.64 1.313.64.828 0 1.312-.64.485-.656.485-1.828 0-1.031-.5-1.672-.485-.656-1.313-.656-.797 0-1.297.64-.484.626-.484 1.829zm7.219-3.25.031.704q.688-.813 1.875-.813 1.328 0 1.813 1.016.312-.453.812-.734.516-.282 1.203-.282 2.094 0 2.125 2.203v4.25h-1.078v-4.187q0-.672-.313-1-.312-.344-1.046-.344-.61 0-1.016.36-.39.359-.453.968v4.203h-1.078v-4.156q0-1.375-1.36-1.375-1.062 0-1.453.906v4.625h-1.093v-6.343h1.03zm10 5.782q0-.281.156-.469.172-.187.5-.187.344 0 .516.187.171.188.171.469 0 .266-.171.453-.172.172-.516.172-.328 0-.5-.172-.156-.187-.156-.453zm4.093-5.781v7.078q0 1.828-1.656 1.828-.36 0-.656-.11v-.859q.188.047.484.047.36 0 .547-.203.203-.188.203-.688v-7.093zm-1.187-1.672q0-.266.156-.453.156-.188.469-.188.313 0 .469.188.172.187.172.453 0 .25-.172.437-.157.172-.469.172-.313 0-.469-.172-.156-.187-.156-.437zm6.766 6.328q0-.438-.344-.672-.328-.25-1.156-.422-.813-.172-1.297-.422-.485-.25-.719-.578-.219-.344-.219-.812 0-.782.656-1.313.657-.547 1.688-.547 1.078 0 1.734.563.672.547.672 1.406h-1.078q0-.437-.39-.75-.376-.328-.938-.328-.594 0-.938.266-.328.25-.328.656 0 .39.313.594.312.203 1.125.39.812.172 1.312.422t.735.61q.25.359.25.859 0 .86-.688 1.375-.672.515-1.75.515-.765 0-1.36-.265-.577-.281-.905-.766-.329-.484-.329-1.047h1.079q.03.547.437.875.406.313 1.078.313.61 0 .985-.25t.375-.672zm-66.078 42.833 1.218-4.844h1.078l-1.843 6.344h-.875l-1.547-4.812-1.5 4.812h-.875l-1.844-6.344h1.078l1.25 4.75 1.484-4.75h.86zm9 0 1.218-4.844h1.078l-1.843 6.344h-.875l-1.547-4.812-1.5 4.812h-.875l-1.844-6.344h1.078l1.25 4.75 1.484-4.75h.86zm3.406.938q0-.282.156-.47.172-.187.5-.187.344 0 .516.188.172.187.172.469 0 .265-.172.453-.172.172-.516.172-.328 0-.5-.172-.156-.188-.156-.453zm2.719-2.657q0-1.5.671-2.359.688-.875 1.844-.875 1.125 0 1.781.75l.047-.64h1v8.78h-1.093v-3.03q-.657.718-1.735.718-1.156 0-1.844-.89-.671-.907-.671-2.375zm1.078.125q0 1.079.453 1.704.469.625 1.25.625.969 0 1.469-.86v-3.11q-.516-.827-1.454-.827-.796 0-1.265.625-.453.625-.453 1.843zm5.922-.125q0-1.5.671-2.359.688-.875 1.844-.875 1.125 0 1.781.75l.047-.64h1v8.78h-1.093v-3.03q-.657.718-1.735.718-1.156 0-1.844-.89-.671-.907-.671-2.375zm1.078.125q0 1.079.453 1.704.469.625 1.25.625.969 0 1.469-.86v-3.11q-.516-.827-1.454-.827-.796 0-1.265.625-.453.625-.453 1.843zm6.203 2.532q0-.282.156-.47.172-.187.5-.187.344 0 .516.188.172.187.172.469 0 .265-.172.453-.172.172-.516.172-.328 0-.5-.172-.156-.188-.156-.453zm5.515-.203q.579 0 1.016-.344.438-.36.484-.89h1.032q-.032.546-.391 1.046-.344.484-.922.781-.562.297-1.219.297-1.296 0-2.062-.86-.75-.874-.75-2.374v-.188q0-.922.328-1.64.344-.72.969-1.11.64-.406 1.515-.406 1.063 0 1.766.64.719.626.766 1.657h-1.032q-.046-.625-.468-1.016-.422-.39-1.032-.39-.828 0-1.28.593-.454.594-.454 1.72v.202q0 1.094.453 1.688.453.594 1.281.594zm3.172-2.47q0-.921.36-1.671.375-.75 1.03-1.14.657-.407 1.485-.407 1.297 0 2.094.89.813.891.813 2.391v.078q0 .922-.36 1.657-.36.734-1.016 1.156-.656.406-1.515.406-1.281 0-2.094-.89-.797-.907-.797-2.391v-.078zm1.094.141q0 1.047.484 1.688.5.64 1.313.64.828 0 1.312-.64.485-.656.485-1.828 0-1.031-.5-1.672-.485-.656-1.313-.656-.797 0-1.297.64-.484.625-.484 1.828zm7.219-3.25.031.704q.688-.813 1.875-.813 1.328 0 1.813 1.016.312-.453.812-.735.516-.281 1.203-.281 2.094 0 2.125 2.203v4.25h-1.078v-4.187q0-.672-.313-1-.312-.344-1.046-.344-.61 0-1.016.36-.39.359-.453.968v4.203h-1.078v-4.156q0-1.375-1.36-1.375-1.062 0-1.453.906v4.625h-1.093v-6.344h1.03zm10 5.782q0-.282.156-.47.172-.187.5-.187.344 0 .516.188.171.187.171.469 0 .265-.171.453-.172.172-.516.172-.328 0-.5-.172-.156-.188-.156-.453zm4.093-5.782v7.079q0 1.828-1.656 1.828-.36 0-.656-.11v-.86q.188.048.484.048.36 0 .547-.203.203-.188.203-.688v-7.094zm-1.187-1.671q0-.266.156-.454.156-.187.469-.187.313 0 .469.187.172.188.172.454 0 .25-.172.437-.157.172-.469.172-.313 0-.469-.172-.156-.187-.156-.437zm6.766 6.328q0-.438-.344-.672-.328-.25-1.156-.422-.813-.172-1.297-.422-.485-.25-.719-.578-.219-.344-.219-.813 0-.78.656-1.312.657-.547 1.688-.547 1.078 0 1.734.563.672.546.672 1.406h-1.078q0-.438-.39-.75-.376-.328-.938-.328-.594 0-.938.265-.328.25-.328.657 0 .39.313.593.312.203 1.125.39.812.173 1.312.423t.735.61q.25.359.25.859 0 .859-.688 1.375-.672.515-1.75.515-.765 0-1.36-.265-.577-.282-.905-.766-.329-.484-.329-1.047h1.079q.03.547.437.875.406.313 1.078.313.61 0 .985-.25t.375-.672zm-117.079 42.833 1.22-4.844h1.077l-1.843 6.344h-.875l-1.547-4.813-1.5 4.813h-.875l-1.844-6.344h1.078l1.25 4.75 1.485-4.75h.859zm9 0 1.22-4.844h1.077l-1.843 6.344h-.875l-1.547-4.813-1.5 4.813h-.875l-1.844-6.344h1.078l1.25 4.75 1.485-4.75h.859l1.516 4.844zm9 0 1.22-4.844h1.077l-1.843 6.344h-.875l-1.547-4.813-1.5 4.813h-.875l-1.844-6.344h1.078l1.25 4.75 1.485-4.75h.859l1.516 4.844zm3.407.937q0-.28.156-.468.172-.188.5-.188.344 0 .516.188.172.187.172.468 0 .266-.172.453-.172.172-.516.172-.328 0-.5-.172-.156-.187-.156-.453zm4.156.563h-1.078v-6.344h1.078zm-1.172-8.016q0-.265.156-.453.172-.187.485-.187.312 0 .469.187.171.188.171.453 0 .25-.171.438-.157.172-.47.172-.312 0-.484-.172-.156-.188-.156-.438zm4.016 1.672.031.797q.734-.906 1.906-.906 2.016 0 2.032 2.265v4.188h-1.094v-4.203q0-.672-.313-1-.297-.328-.953-.328-.531 0-.937.28-.391.282-.61.735v4.516h-1.078v-6.344zm9.672 4.656q0-.437-.344-.672-.328-.25-1.156-.421-.813-.172-1.297-.422-.485-.25-.719-.578-.219-.344-.219-.813 0-.781.657-1.312.656-.547 1.687-.547 1.078 0 1.734.562.672.547.672 1.406h-1.078q0-.437-.39-.75-.375-.328-.938-.328-.594 0-.938.266-.328.25-.328.656 0 .39.313.594.312.203 1.125.39.812.172 1.312.422t.735.61q.25.36.25.86 0 .859-.688 1.374-.672.516-1.75.516-.765 0-1.36-.266-.577-.281-.905-.765-.328-.485-.328-1.047h1.078q.03.547.437.875.406.312 1.078.312.61 0 .985-.25t.375-.672zm3.78-6.187v1.531h1.173v.844h-1.172v3.922q0 .39.156.578.156.187.531.187.188 0 .516-.062v.875q-.422.125-.828.125-.719 0-1.094-.438-.375-.453-.375-1.265v-3.922h-1.156v-.844h1.156v-1.531h1.094zm6.438 7.875q-.093-.188-.156-.672-.75.797-1.797.797-.937 0-1.547-.531-.593-.532-.593-1.36 0-.984.75-1.531.75-.547 2.125-.547h1.047v-.5q0-.562-.344-.89-.328-.344-1-.344-.578 0-.969.297-.39.28-.39.703h-1.094q0-.485.328-.922.344-.438.922-.688.578-.265 1.265-.265 1.11 0 1.719.547.625.546.656 1.5v2.921q0 .875.219 1.391v.094h-1.14zm-1.796-.828q.515 0 .968-.266.453-.266.657-.687v-1.297h-.844q-2 0-2 1.172 0 .5.344.796.343.282.874.282zm4.624-2.39q0-1.485.688-2.36.688-.875 1.813-.875 1.156 0 1.812.812l.047-.703h1v6.188q0 1.234-.734 1.937-.735.719-1.954.719-.687 0-1.343-.297-.657-.297-1-.797l.562-.656q.688.86 1.703.86.782 0 1.219-.454.453-.437.453-1.25v-.547q-.656.766-1.781.766-1.11 0-1.797-.89-.688-.907-.688-2.454zm1.094.124q0 1.063.438 1.688.437.609 1.234.609 1.016 0 1.5-.938v-2.89q-.5-.906-1.5-.906-.781 0-1.234.609-.438.61-.438 1.828zm9.235-2.281q-.25-.031-.532-.031-1.078 0-1.453.906v4.5h-1.078v-6.344h1.047l.016.734q.53-.843 1.515-.843.313 0 .485.078zm4.843 5.375q-.093-.188-.156-.672-.75.797-1.797.797-.937 0-1.547-.531-.593-.532-.593-1.36 0-.984.75-1.531.75-.547 2.125-.547h1.047v-.5q0-.562-.344-.89-.328-.344-1-.344-.578 0-.969.297-.39.28-.39.703h-1.094q0-.485.328-.922.344-.438.922-.688.578-.265 1.265-.265 1.11 0 1.719.547.625.546.656 1.5v2.921q0 .875.219 1.391v.094h-1.14zm-1.796-.828q.515 0 .968-.266.453-.266.657-.687v-1.297h-.844q-2 0-2 1.172 0 .5.344.796.343.282.874.282zm5.906-5.516.031.703q.688-.812 1.875-.812 1.328 0 1.813 1.015.312-.453.812-.734.516-.281 1.203-.281 2.094 0 2.125 2.203v4.25h-1.078v-4.188q0-.672-.313-1-.312-.343-1.046-.343-.61 0-1.016.359-.39.36-.453.969v4.203h-1.078v-4.156q0-1.375-1.36-1.375-1.062 0-1.453.906v4.625h-1.093v-6.344h1.03zm10 5.781q0-.28.156-.468.172-.188.5-.188.344 0 .516.188.172.187.172.468 0 .266-.172.453-.172.172-.516.172-.328 0-.5-.172-.156-.187-.156-.453zm5.515-.203q.579 0 1.016-.344.438-.359.484-.89h1.032q-.032.547-.391 1.047-.344.484-.922.781-.562.297-1.219.297-1.296 0-2.062-.86-.75-.875-.75-2.375v-.187q0-.922.328-1.64.344-.72.969-1.11.64-.406 1.515-.406 1.063 0 1.766.64.719.625.766 1.657h-1.032q-.046-.625-.468-1.016-.422-.39-1.032-.39-.828 0-1.28.593-.454.594-.454 1.719v.203q0 1.094.453 1.687.453.594 1.281.594zm3.172-2.469q0-.921.36-1.671.375-.75 1.03-1.141.657-.406 1.485-.406 1.297 0 2.094.89.813.891.813 2.391v.078q0 .922-.36 1.656-.36.735-1.016 1.157-.656.406-1.515.406-1.281 0-2.094-.89-.797-.907-.797-2.391zm1.094.141q0 1.047.484 1.688.5.64 1.313.64.828 0 1.312-.64.485-.657.485-1.829 0-1.03-.5-1.671-.485-.657-1.313-.657-.797 0-1.297.641-.484.625-.484 1.828zm7.219-3.25.031.703q.688-.812 1.875-.812 1.328 0 1.813 1.015.312-.453.812-.734.516-.281 1.203-.281 2.094 0 2.125 2.203v4.25h-1.078v-4.188q0-.672-.313-1-.312-.343-1.046-.343-.61 0-1.016.359-.39.36-.453.969v4.203h-1.078v-4.156q0-1.375-1.36-1.375-1.062 0-1.453.906v4.625h-1.093v-6.344h1.03zm10 5.781q0-.28.156-.468.172-.188.5-.188.344 0 .516.188.171.187.171.468 0 .266-.171.453-.172.172-.516.172-.328 0-.5-.172-.156-.187-.156-.453zm4.093-5.78v7.077q0 1.828-1.656 1.828-.36 0-.656-.109v-.86q.188.047.484.047.36 0 .547-.203.203-.187.203-.687v-7.094h1.078zm-1.187-1.673q0-.265.156-.453.156-.187.469-.187.313 0 .469.187.172.188.172.453 0 .25-.172.438-.157.172-.469.172-.313 0-.469-.172-.156-.188-.156-.438zm6.766 6.328q0-.437-.344-.672-.328-.25-1.156-.421-.813-.172-1.297-.422-.485-.25-.719-.578-.219-.344-.219-.813 0-.781.656-1.312.657-.547 1.688-.547 1.078 0 1.734.562.672.547.672 1.406h-1.078q0-.437-.39-.75-.376-.328-.938-.328-.594 0-.938.266-.328.25-.328.656 0 .39.313.594.312.203 1.125.39.812.172 1.312.422t.735.61q.25.36.25.86 0 .859-.688 1.374-.672.516-1.75.516-.765 0-1.36-.266-.577-.281-.905-.765-.329-.485-.329-1.047h1.079q.03.547.437.875.406.312 1.078.312.61 0 .985-.25t.375-.672zm-100.078 42.834 1.218-4.844h1.078l-1.843 6.344h-.875l-1.547-4.813-1.5 4.813h-.875l-1.844-6.344h1.078l1.25 4.75 1.485-4.75h.859zm9 0 1.218-4.844h1.078l-1.843 6.344h-.875l-1.547-4.813-1.5 4.813h-.875l-1.844-6.344h1.078l1.25 4.75 1.485-4.75h.859zm9 0 1.218-4.844h1.078l-1.843 6.344h-.875l-1.547-4.813-1.5 4.813h-.875l-1.844-6.344h1.078l1.25 4.75 1.485-4.75h.859zm3.406.937q0-.281.156-.469.172-.187.5-.187.344 0 .516.187.172.188.172.469 0 .266-.172.453-.172.172-.516.172-.328 0-.5-.172-.156-.187-.156-.453zm6.672-1.125q0-.438-.344-.672-.328-.25-1.156-.422-.813-.172-1.297-.422-.485-.25-.719-.578-.219-.343-.219-.812 0-.781.657-1.313.656-.547 1.687-.547 1.078 0 1.734.563.672.547.672 1.406h-1.078q0-.437-.39-.75-.376-.328-.938-.328-.594 0-.938.266-.328.25-.328.656 0 .39.313.594.312.203 1.125.39.812.172 1.312.422t.735.61q.25.359.25.859 0 .86-.688 1.375-.672.516-1.75.516-.765 0-1.36-.266-.577-.281-.905-.766-.328-.484-.328-1.047h1.078q.03.547.437.875.406.313 1.078.313.61 0 .985-.25t.375-.672zm3.484 1.688h-1.078v-6.344h1.078zm-1.172-8.016q0-.266.156-.453.172-.188.485-.188.312 0 .469.188.171.187.171.453 0 .25-.171.437-.157.172-.47.172-.312 0-.484-.172-.156-.187-.156-.437zm4.016 1.672.031.797q.734-.907 1.906-.907 2.016 0 2.032 2.266v4.188h-1.094v-4.204q0-.671-.313-1-.297-.328-.953-.328-.531 0-.937.282-.391.28-.61.734v4.516h-1.078v-6.344zm9.89 6.344q-.093-.188-.156-.672-.75.797-1.797.797-.937 0-1.547-.532-.593-.531-.593-1.36 0-.983.75-1.53t2.125-.547h1.047v-.5q0-.563-.344-.89-.328-.345-1-.345-.578 0-.969.297-.39.282-.39.703h-1.094q0-.484.328-.921.344-.438.922-.688.578-.266 1.265-.266 1.11 0 1.719.547.625.547.656 1.5v2.922q0 .875.219 1.39v.095h-1.14zm-1.796-.829q.515 0 .968-.265.453-.266.657-.688v-1.297h-.844q-2 0-2 1.172 0 .5.344.797.343.281.874.281zm4.906.266q0-.281.156-.469.172-.187.5-.187.344 0 .516.187.172.188.172.469 0 .266-.172.453-.172.172-.516.172-.328 0-.5-.172-.156-.187-.156-.453zm5.515-.203q.579 0 1.016-.344.438-.36.484-.89h1.032q-.032.546-.391 1.046-.344.485-.922.782-.562.297-1.219.297-1.296 0-2.062-.86-.75-.875-.75-2.375v-.187q0-.922.328-1.641.344-.719.969-1.11.64-.406 1.515-.406 1.063 0 1.766.641.719.625.766 1.656h-1.032q-.046-.625-.468-1.015-.422-.391-1.032-.391-.828 0-1.28.594-.454.594-.454 1.719v.203q0 1.093.453 1.687.453.594 1.281.594zm3.172-2.469q0-.922.36-1.672.375-.75 1.03-1.14.657-.407 1.485-.407 1.297 0 2.094.891.813.89.813 2.39v.079q0 .922-.36 1.656-.36.734-1.016 1.156-.656.407-1.515.407-1.281 0-2.094-.891-.797-.906-.797-2.39zm1.094.14q0 1.048.484 1.688.5.64 1.313.64.828 0 1.312-.64.485-.656.485-1.828 0-1.031-.5-1.672-.485-.656-1.313-.656-.797 0-1.297.64-.484.626-.484 1.829zm7.219-3.25.031.704q.688-.813 1.875-.813 1.328 0 1.813 1.016.312-.453.812-.734.516-.282 1.203-.282 2.094 0 2.125 2.204v4.25h-1.078v-4.188q0-.672-.313-1-.312-.344-1.046-.344-.61 0-1.016.36-.39.359-.453.968v4.204h-1.078v-4.157q0-1.375-1.36-1.375-1.062 0-1.453.907v4.625h-1.093v-6.344h1.03zm10 5.782q0-.281.156-.469.172-.187.5-.187.344 0 .516.187.172.188.172.469 0 .266-.172.453-.172.172-.516.172-.328 0-.5-.172-.156-.187-.156-.453zm5.515-.203q.579 0 1.016-.344.438-.36.484-.89h1.032q-.032.546-.391 1.046-.344.485-.922.782-.562.297-1.219.297-1.296 0-2.062-.86-.75-.875-.75-2.375v-.187q0-.922.328-1.641.344-.719.969-1.11.64-.406 1.515-.406 1.063 0 1.766.641.719.625.766 1.656h-1.032q-.046-.625-.468-1.015-.422-.391-1.032-.391-.828 0-1.28.594-.454.594-.454 1.719v.203q0 1.093.453 1.687.453.594 1.281.594zm4.485-5.578.031.797q.734-.907 1.906-.907 2.016 0 2.031 2.266v4.188h-1.093v-4.204q0-.671-.313-1-.297-.328-.953-.328-.531 0-.937.282-.391.28-.61.734v4.516h-1.078v-6.344zm6 5.781q0-.281.156-.469.172-.187.5-.187.344 0 .516.187.171.188.171.469 0 .266-.171.453-.172.172-.516.172-.328 0-.5-.172-.156-.187-.156-.453zm4.093-5.781v7.078q0 1.828-1.656 1.828-.36 0-.656-.11v-.859q.188.047.484.047.36 0 .547-.203.203-.188.203-.688v-7.093zm-1.187-1.672q0-.266.156-.453.156-.188.469-.188.313 0 .469.188.172.187.172.453 0 .25-.172.437-.157.172-.469.172-.313 0-.469-.172-.156-.187-.156-.437zm6.766 6.328q0-.438-.344-.672-.328-.25-1.156-.422-.813-.172-1.297-.422-.485-.25-.719-.578-.219-.343-.219-.812 0-.781.656-1.313.657-.547 1.688-.547 1.078 0 1.734.563.672.547.672 1.406h-1.078q0-.437-.39-.75-.376-.328-.938-.328-.594 0-.938.266-.328.25-.328.656 0 .39.313.594.312.203 1.125.39.812.172 1.312.422t.735.61q.25.359.25.859 0 .86-.688 1.375-.672.516-1.75.516-.765 0-1.36-.266-.577-.281-.905-.766-.329-.484-.329-1.047h1.079q.03.547.437.875.406.313 1.078.313.61 0 .985-.25t.375-.672zm-95.078 42.833 1.218-4.844h1.078l-1.843 6.344h-.875l-1.547-4.812-1.5 4.812h-.875l-1.844-6.344h1.078l1.25 4.75 1.485-4.75h.859zm9 0 1.218-4.844h1.078l-1.843 6.344h-.875l-1.547-4.812-1.5 4.812h-.875l-1.844-6.344h1.078l1.25 4.75 1.485-4.75h.859zm9 0 1.218-4.844h1.078l-1.843 6.344h-.875l-1.547-4.812-1.5 4.812h-.875l-1.844-6.344h1.078l1.25 4.75 1.485-4.75h.859zm3.406.938q0-.282.156-.47.172-.187.5-.187.344 0 .516.188.172.187.172.469 0 .265-.172.453-.172.172-.516.172-.328 0-.5-.172-.156-.188-.156-.453zm4.453-7.313v1.531h1.172v.844h-1.172v3.922q0 .39.156.578.156.188.531.188.188 0 .516-.063v.875q-.422.125-.828.125-.719 0-1.094-.437-.375-.453-.375-1.266v-3.922h-1.156v-.844h1.156v-1.53h1.094zm8.14 6.375 1.22-4.844h1.077l-1.843 6.344h-.875l-1.547-4.812-1.5 4.812h-.875l-1.844-6.344h1.078l1.25 4.75 1.484-4.75h.86l1.516 4.844zm4.563 1.5h-1.078v-6.344h1.078zm-1.172-8.014q0-.266.156-.454.172-.187.485-.187.312 0 .469.187.171.188.171.454 0 .25-.171.437-.157.172-.47.172-.312 0-.484-.172-.156-.187-.156-.437zm4.469.14v1.531h1.172v.844h-1.172v3.922q0 .39.156.578.156.188.531.188.188 0 .516-.063v.875q-.422.125-.828.125-.719 0-1.094-.437-.375-.453-.375-1.266v-3.922h-1.156v-.844h1.156v-1.53h1.094zm4 0v1.531h1.172v.844h-1.172v3.922q0 .39.156.578.156.188.531.188.188 0 .516-.063v.875q-.422.125-.828.125-.719 0-1.094-.437-.375-.453-.375-1.266v-3.922h-1.156v-.844h1.156v-1.53h1.094zm5.156 8q-1.297 0-2.11-.844-.796-.859-.796-2.28v-.188q0-.953.36-1.688.359-.75 1-1.156.656-.422 1.406-.422 1.234 0 1.921.813.688.812.688 2.328v.453h-4.297q.031.937.547 1.515.531.579 1.344.579.562 0 .953-.235.406-.234.719-.625l.656.516q-.797 1.234-2.39 1.234zm-.14-5.687q-.657 0-1.11.484-.437.469-.531 1.328h3.172v-.078q-.047-.828-.453-1.281-.391-.453-1.078-.453zm6.578.187q-.25-.031-.532-.031-1.078 0-1.453.906v4.5h-1.078v-6.344h1.047l.016.735q.53-.844 1.515-.844.313 0 .485.078zm.953 4.813q0-.282.156-.47.172-.187.5-.187.344 0 .516.188.172.187.172.469 0 .265-.172.453-.172.172-.516.172-.328 0-.5-.172-.156-.188-.156-.453zm5.515-.203q.579 0 1.016-.344.438-.36.484-.89h1.032q-.032.546-.391 1.046-.344.484-.922.781-.562.297-1.219.297-1.296 0-2.062-.86-.75-.874-.75-2.374v-.188q0-.922.328-1.64.344-.72.969-1.11.64-.406 1.515-.406 1.063 0 1.766.64.719.626.766 1.657h-1.032q-.046-.625-.468-1.016-.422-.39-1.032-.39-.828 0-1.28.593-.454.594-.454 1.72v.202q0 1.094.453 1.688.453.594 1.281.594zm3.172-2.47q0-.921.36-1.671.375-.75 1.03-1.14.657-.407 1.485-.407 1.297 0 2.094.89.813.891.813 2.391v.078q0 .922-.36 1.657-.36.734-1.016 1.156-.656.406-1.515.406-1.281 0-2.094-.89-.797-.907-.797-2.391v-.078zm1.094.141q0 1.047.484 1.688.5.64 1.313.64.828 0 1.312-.64.485-.656.485-1.828 0-1.031-.5-1.672-.485-.656-1.313-.656-.797 0-1.297.64-.484.625-.484 1.828zm7.219-3.25.031.704q.688-.813 1.875-.813 1.328 0 1.813 1.016.312-.453.812-.735.516-.281 1.203-.281 2.094 0 2.125 2.203v4.25h-1.078v-4.187q0-.672-.313-1-.312-.344-1.046-.344-.61 0-1.016.36-.39.359-.453.968v4.203h-1.078v-4.156q0-1.375-1.36-1.375-1.062 0-1.453.906v4.625h-1.093v-6.344h1.03zm10 5.782q0-.282.156-.47.172-.187.5-.187.344 0 .516.188.171.187.171.469 0 .265-.171.453-.172.172-.516.172-.328 0-.5-.172-.156-.188-.156-.453zm4.093-5.782v7.079q0 1.828-1.656 1.828-.36 0-.656-.11v-.86q.188.048.484.048.36 0 .547-.203.203-.188.203-.688v-7.094zm-1.187-1.671q0-.266.156-.454.156-.187.469-.187.313 0 .469.187.172.188.172.454 0 .25-.172.437-.157.172-.469.172-.313 0-.469-.172-.156-.187-.156-.437zm6.766 6.328q0-.438-.344-.672-.328-.25-1.156-.422-.813-.172-1.297-.422-.485-.25-.719-.578-.219-.344-.219-.813 0-.78.656-1.312.657-.547 1.688-.547 1.078 0 1.734.563.672.546.672 1.406h-1.078q0-.438-.39-.75-.376-.328-.938-.328-.594 0-.938.265-.328.25-.328.657 0 .39.313.593.312.203 1.125.39.812.173 1.312.423t.735.61q.25.359.25.859 0 .859-.688 1.375-.672.515-1.75.515-.765 0-1.36-.265-.577-.282-.905-.766-.329-.484-.329-1.047h1.079q.03.547.437.875.406.313 1.078.313.61 0 .985-.25t.375-.672zm2.046 40.332q0 1.906-.656 2.843-.64.922-2.031.922-1.36 0-2.016-.906-.656-.906-.687-2.719v-1.438q0-1.89.64-2.796.657-.922 2.047-.922 1.375 0 2.032.89.656.875.671 2.72v1.405zm-1.093-1.485q0-1.375-.39-2-.376-.64-1.22-.64-.828 0-1.218.64-.375.625-.375 1.922v1.734q0 1.375.39 2.047.406.656 1.219.656.797 0 1.188-.625.39-.625.406-1.953zm2.875 4.563q0-.282.156-.47.172-.187.5-.187.344 0 .516.188.171.187.171.469 0 .265-.171.453-.172.172-.516.172-.328 0-.5-.172-.156-.188-.156-.453zm8.218-3.079q0 1.907-.656 2.844-.64.922-2.031.922-1.36 0-2.016-.906-.656-.906-.687-2.719v-1.438q0-1.89.64-2.796.657-.922 2.047-.922 1.375 0 2.032.89.656.875.671 2.72zm-1.093-1.484q0-1.375-.39-2-.376-.64-1.22-.64-.828 0-1.218.64-.375.625-.375 1.922v1.734q0 1.375.39 2.047.406.656 1.219.656.797 0 1.188-.625.39-.625.406-1.953zm2.547 3.203 1.937-1.969-1.922-1.968.703-.72 1.922 1.954 1.938-1.953.687.719-1.922 1.968 1.938 1.97-.703.718-1.938-1.984-1.937 1.984zm127.467-1.718q0 1.906-.657 2.843-.64.922-2.031.922-1.36 0-2.016-.906-.656-.906-.687-2.719v-1.438q0-1.89.64-2.796.657-.922 2.047-.922 1.375 0 2.032.89.656.875.671 2.72v1.405zm-1.094-1.485q0-1.375-.39-2-.376-.64-1.22-.64-.828 0-1.218.64-.375.625-.375 1.922v1.734q0 1.375.39 2.047.406.656 1.219.656.797 0 1.188-.625.39-.625.406-1.953zm2.875 4.563q0-.282.156-.47.172-.187.5-.187.344 0 .516.188.171.187.171.469 0 .265-.171.453-.172.172-.516.172-.328 0-.5-.172-.156-.188-.156-.453zm3.36-3.72.437-4.25h4.375v1h-3.454l-.265 2.329q.64-.375 1.437-.375 1.157 0 1.844.781.688.766.688 2.078 0 1.313-.72 2.078-.702.766-1.983.766-1.125 0-1.844-.625-.719-.64-.813-1.75h1.016q.11.734.531 1.11.422.374 1.11.374.75 0 1.187-.515.438-.516.438-1.422 0-.86-.47-1.375-.468-.516-1.25-.516-.702 0-1.109.297l-.28.235-.876-.22zm6.312 2.36 1.937-1.969-1.922-1.968.703-.72 1.922 1.954 1.938-1.953.687.719-1.922 1.968 1.938 1.97-.703.718-1.938-1.984-1.937 1.984zm125.67 1.922h-1.078v-7.219l-2.188.797v-.984l3.11-1.172h.156zm3.578-.563q0-.28.156-.468.172-.188.5-.188.344 0 .516.188.172.187.172.469 0 .265-.172.453-.172.172-.516.172-.328 0-.5-.172-.156-.188-.156-.453zm8.219-3.078q0 1.907-.657 2.844-.64.922-2.031.922-1.36 0-2.016-.906-.656-.906-.687-2.719v-1.438q0-1.89.64-2.796.657-.922 2.047-.922 1.375 0 2.032.89.656.875.672 2.72zm-1.094-1.484q0-1.375-.39-2-.376-.64-1.22-.64-.828 0-1.218.64-.375.625-.375 1.922v1.734q0 1.375.39 2.047.406.656 1.219.656.797 0 1.188-.625.39-.625.406-1.953zm2.547 3.203 1.937-1.969-1.922-1.968.703-.72 1.922 1.954 1.938-1.953.687.719-1.922 1.968 1.938 1.97-.703.718-1.938-1.984-1.937 1.984zm125.67 1.922h-1.078v-7.219l-2.188.797v-.984l3.11-1.172h.156zm3.578-.563q0-.28.156-.468.172-.188.5-.188.344 0 .516.188.172.187.172.469 0 .265-.172.453-.172.172-.516.172-.328 0-.5-.172-.156-.188-.156-.453zm3.36-3.718.437-4.25h4.375v1h-3.453l-.266 2.328q.64-.375 1.437-.375 1.157 0 1.844.781.688.766.688 2.078 0 1.313-.72 2.078-.702.766-1.983.766-1.125 0-1.844-.625-.719-.64-.813-1.75h1.016q.11.734.531 1.11.422.374 1.11.374.75 0 1.187-.515.438-.516.438-1.422 0-.86-.47-1.375-.468-.516-1.25-.516-.702 0-1.109.297l-.28.235-.876-.22zm6.312 2.36 1.937-1.97-1.922-1.968.703-.72 1.922 1.954 1.938-1.953.687.719-1.922 1.968 1.938 1.97-.703.718-1.938-1.984-1.937 1.984-.703-.719zm127.701 1.921h-5.594v-.781l2.953-3.281q.657-.75.907-1.204.25-.468.25-.968 0-.672-.407-1.094-.39-.438-1.078-.438-.797 0-1.25.47-.453.452-.453 1.28h-1.078q0-1.187.75-1.906.765-.734 2.031-.734 1.203 0 1.89.625.688.625.688 1.672 0 1.25-1.61 3l-2.28 2.468h4.28v.891zm1.547-.563q0-.28.156-.468.172-.188.5-.188.344 0 .516.188.172.187.172.469 0 .265-.172.453-.172.172-.516.172-.328 0-.5-.172-.156-.188-.156-.453zm8.218-3.078q0 1.907-.656 2.844-.64.922-2.031.922-1.36 0-2.016-.906-.656-.906-.687-2.719v-1.438q0-1.89.64-2.796.657-.922 2.047-.922 1.375 0 2.032.89.656.875.672 2.72v1.405zm-1.093-1.484q0-1.375-.39-2-.376-.64-1.22-.64-.828 0-1.218.64-.375.625-.375 1.922v1.734q0 1.375.39 2.047.407.656 1.219.656.797 0 1.188-.625.39-.625.406-1.953zm2.547 3.203 1.937-1.969-1.922-1.968.703-.72 1.922 1.954 1.938-1.953.687.719-1.922 1.968 1.938 1.97-.703.718-1.938-1.984-1.937 1.984zm127.701 1.922h-5.594v-.781l2.953-3.281q.656-.75.906-1.204.25-.468.25-.968 0-.672-.406-1.094-.39-.438-1.078-.438-.797 0-1.25.47-.453.452-.453 1.28h-1.078q0-1.187.75-1.906.765-.734 2.031-.734 1.203 0 1.89.625.688.625.688 1.672 0 1.25-1.61 3l-2.28 2.468h4.28v.891zm1.547-.563q0-.28.156-.468.172-.188.5-.188.344 0 .516.188.171.187.171.469 0 .265-.171.453-.172.172-.516.172-.328 0-.5-.172-.156-.188-.156-.453zm3.36-3.718.437-4.25h4.375v1h-3.454l-.265 2.328q.64-.375 1.437-.375 1.157 0 1.844.781.688.766.688 2.078 0 1.313-.72 2.078-.702.766-1.984.766-1.125 0-1.843-.625-.719-.64-.813-1.75h1.016q.11.734.531 1.11.422.374 1.11.374.75 0 1.187-.515.438-.516.438-1.422 0-.86-.47-1.375-.468-.516-1.25-.516-.702 0-1.109.297l-.28.235-.876-.22zm6.312 2.36 1.937-1.97-1.922-1.968.703-.72 1.922 1.954 1.938-1.953.687.719-1.922 1.968 1.938 1.97-.703.718-1.938-1.984-1.937 1.984-.703-.719z" fill="#757575"/><path d="m278.5 20.2a1 1 0 0 1 1-1h10a1 1 0 0 1 1 1v10a1 1 0 0 1 -1 1h-10a1 1 0 0 1 -1-1z" fill="#9fc5e8"/><path d="m302.313 28.2 2.437-7.031h1.234l-3.171 8.531h-.985l-3.156-8.531h1.219l2.421 7.031zm10.078-4.813q0 .641-.344 1.141t-.906.781q.656.282 1.046.844.391.547.391 1.25 0 1.094-.75 1.766-.734.656-1.953.656-1.234 0-1.984-.656-.735-.672-.735-1.766 0-.703.375-1.25.375-.562 1.047-.844-.562-.28-.89-.78-.329-.5-.329-1.142 0-1.078.688-1.703.687-.64 1.828-.64 1.125 0 1.813.64.703.625.703 1.703zm-.891 3.985q0-.719-.453-1.156-.453-.454-1.188-.454-.734 0-1.187.454-.438.437-.438 1.171 0 .72.438 1.141.437.406 1.203.406.75 0 1.188-.422.437-.421.437-1.14zm-1.625-5.438q-.64 0-1.047.407-.39.39-.39 1.078 0 .64.39 1.047.39.406 1.031.406.657 0 1.047-.406.39-.407.39-1.047 0-.657-.405-1.063-.407-.422-1.016-.422zm9.531 6.297 1.578-4.875h1.11l-2.281 6.344h-.829l-2.296-6.344h1.109l1.61 4.875zm8.063-7.062v.906h-.203q-1.266.031-2.016.766-.75.718-.875 2.03.688-.765 1.844-.765 1.11 0 1.781.781.672.782.672 2.032 0 1.312-.719 2.11-.719.796-1.937.796-1.22 0-1.985-.938-.75-.953-.75-2.437v-.406q0-2.36 1-3.61t2.985-1.265zm-1.422 3.843q-.563 0-1.031.329-.47.328-.657.843v.391q0 1.063.47 1.703.483.64 1.187.64.734 0 1.156-.53.422-.547.422-1.422 0-.875-.422-1.407-.422-.547-1.125-.547zm4.297 4.125q0-.28.156-.468.172-.188.5-.188.344 0 .516.188.171.187.171.468 0 .266-.171.454-.172.171-.516.171-.328 0-.5-.171-.156-.188-.156-.454zm8.219-3.078q0 1.907-.657 2.844-.64.922-2.031.922-1.36 0-2.016-.906-.656-.907-.687-2.719v-1.438q0-1.89.64-2.796.657-.922 2.047-.922 1.375 0 2.032.89.656.875.671 2.72v1.405zm-1.094-1.484q0-1.375-.39-2-.376-.64-1.22-.64-.828 0-1.218.64-.375.625-.375 1.922v1.734q0 1.375.39 2.047.406.656 1.219.656.797 0 1.188-.625.39-.625.406-1.953zm2.875 4.563q0-.282.156-.47.172-.187.5-.187.344 0 .516.188.171.187.171.468 0 .266-.171.454-.172.171-.516.171-.328 0-.5-.171-.156-.188-.156-.454zm8.453.562h-5.594v-.781l2.953-3.282q.656-.75.906-1.203.25-.468.25-.968 0-.672-.406-1.094-.39-.438-1.078-.438-.797 0-1.25.47-.453.452-.453 1.28h-1.078q0-1.187.75-1.906.765-.734 2.031-.734 1.203 0 1.89.625.688.625.688 1.672 0 1.25-1.61 3l-2.28 2.468h4.28v.891zm6.594-6.313q0 .641-.344 1.141t-.906.781q.656.282 1.046.844.391.547.391 1.25 0 1.094-.75 1.766-.734.656-1.953.656-1.234 0-1.984-.656-.735-.672-.735-1.766 0-.703.375-1.25.375-.562 1.047-.844-.562-.28-.89-.78-.329-.5-.329-1.142 0-1.078.688-1.703.687-.64 1.828-.64 1.125 0 1.813.64.703.625.703 1.703zm-.891 3.985q0-.719-.453-1.156-.453-.454-1.188-.454-.734 0-1.187.454-.438.437-.438 1.171 0 .72.438 1.141.437.406 1.203.406.75 0 1.188-.422.437-.421.437-1.14zm-1.625-5.438q-.64 0-1.047.407-.39.39-.39 1.078 0 .64.39 1.047.39.406 1.031.406.657 0 1.047-.406.39-.407.39-1.047 0-.657-.405-1.063-.407-.422-1.016-.422zm8.594-.765v.906h-.203q-1.266.031-2.016.766-.75.718-.875 2.03.688-.765 1.844-.765 1.11 0 1.781.781.672.782.672 2.032 0 1.312-.719 2.11-.719.796-1.937.796-1.22 0-1.985-.938-.75-.953-.75-2.437v-.406q0-2.36 1-3.61t2.985-1.265zm-1.422 3.843q-.563 0-1.031.329-.47.328-.657.843v.391q0 1.063.47 1.703.483.64 1.187.64.734 0 1.156-.53.422-.547.422-1.422 0-.875-.422-1.407-.422-.547-1.125-.547zm4.297 4.125q0-.28.156-.468.172-.188.5-.188.344 0 .516.188.171.187.171.468 0 .266-.171.454-.172.171-.516.171-.328 0-.5-.171-.156-.188-.156-.454zm3.36-3.718.437-4.25h4.375v1h-3.454l-.265 2.328q.64-.375 1.437-.375 1.157 0 1.844.781.688.766.688 2.078 0 1.313-.72 2.078-.702.766-1.983.766-1.125 0-1.844-.625-.719-.64-.813-1.75h1.016q.11.734.531 1.11.422.374 1.11.374.75 0 1.187-.515.438-.516.438-1.422 0-.86-.47-1.375-.468-.516-1.25-.516-.702 0-1.109.297l-.28.235-.876-.22zm12.015-3.64-3.531 7.921h-1.141l3.515-7.64h-4.609v-.891h5.766z" fill="#757575"/><path d="m396.5 20.2a1 1 0 0 1 1-1h10a1 1 0 0 1 1 1v10a1 1 0 0 1 -1 1h-10a1 1 0 0 1 -1-1z" fill="#3d85c6"/><path d="m420.313 28.2 2.437-7.031h1.234l-3.171 8.531h-.985l-3.156-8.531h1.219l2.421 7.031zm10.078-4.813q0 .641-.344 1.141t-.906.781q.656.282 1.046.844.391.547.391 1.25 0 1.094-.75 1.766-.734.656-1.953.656-1.234 0-1.984-.656-.735-.672-.735-1.766 0-.703.375-1.25.375-.562 1.047-.844-.562-.28-.89-.78-.329-.5-.329-1.142 0-1.078.688-1.703.687-.64 1.828-.64 1.125 0 1.813.64.703.625.703 1.703zm-.891 3.985q0-.719-.453-1.156-.453-.454-1.188-.454-.734 0-1.187.454-.438.437-.438 1.171 0 .72.438 1.141.437.406 1.203.406.75 0 1.188-.422.437-.421.437-1.14zm-1.625-5.438q-.64 0-1.047.407-.39.39-.39 1.078 0 .64.39 1.047.39.406 1.031.406.657 0 1.047-.406.39-.407.39-1.047 0-.657-.405-1.063-.407-.422-1.016-.422zm9.531 6.297 1.578-4.875h1.11l-2.281 6.344h-.829l-2.296-6.344h1.109l1.61 4.875zm9.313-6.453-3.531 7.922h-1.141l3.515-7.64h-4.609v-.891h5.766v.61zm1.625 7.36q0-.282.156-.47.172-.187.5-.187.344 0 .516.188.171.187.171.468 0 .266-.171.454-.172.171-.516.171-.328 0-.5-.171-.156-.188-.156-.454zm8.219-3.079q0 1.907-.657 2.844-.64.922-2.031.922-1.36 0-2.016-.906-.656-.907-.687-2.719v-1.438q0-1.89.64-2.796.657-.922 2.047-.922 1.375 0 2.032.89.656.875.671 2.72v1.405zm-1.094-1.484q0-1.375-.39-2-.376-.64-1.22-.64-.828 0-1.218.64-.375.625-.375 1.922v1.734q0 1.375.39 2.047.406.656 1.219.656.797 0 1.188-.625.39-.625.406-1.953zm2.875 4.563q0-.282.156-.47.172-.187.5-.187.344 0 .516.188.171.187.171.468 0 .266-.171.454-.172.171-.516.171-.328 0-.5-.171-.156-.188-.156-.454zm4.437-4.235h.813q.781-.015 1.219-.406.437-.39.437-1.063 0-1.5-1.5-1.5-.703 0-1.125.407-.406.406-.406 1.062h-1.094q0-1.015.734-1.687.75-.672 1.891-.672 1.203 0 1.89.64.688.641.688 1.782 0 .562-.36 1.078-.359.515-.984.781.704.219 1.079.734.39.516.39 1.266 0 1.14-.75 1.828-.75.672-1.953.672-1.188 0-1.953-.656-.75-.657-.75-1.719h1.094q0 .672.437 1.078.438.406 1.188.406.78 0 1.187-.406.422-.422.422-1.187 0-.735-.453-1.125-.453-.407-1.328-.422h-.813v-.89zm10.781 1.156q0 1.907-.656 2.844-.64.922-2.031.922-1.36 0-2.016-.906-.656-.907-.687-2.719v-1.438q0-1.89.64-2.796.657-.922 2.047-.922 1.375 0 2.032.89.656.875.671 2.72zm-1.093-1.484q0-1.375-.39-2-.376-.64-1.22-.64-.828 0-1.218.64-.375.625-.375 1.922v1.734q0 1.375.39 2.047.406.656 1.219.656.797 0 1.188-.625.39-.625.406-1.953zm8.328 5.125h-5.594v-.781l2.953-3.282q.656-.75.906-1.203.25-.468.25-.968 0-.672-.406-1.094-.39-.438-1.078-.438-.797 0-1.25.47-.453.452-.453 1.28h-1.078q0-1.187.75-1.906.765-.734 2.031-.734 1.203 0 1.89.625.688.625.688 1.672 0 1.25-1.61 3l-2.28 2.468h4.28v.891z" fill="#757575"/><path d="m497.5 20.2a1 1 0 0 1 1-1h10a1 1 0 0 1 1 1v10a1 1 0 0 1 -1 1h-10a1 1 0 0 1 -1-1z" fill="#073763"/><path d="m521.313 28.2 2.437-7.031h1.234l-3.172 8.531h-.984l-3.156-8.531h1.219zm10.078-4.813q0 .641-.344 1.141t-.906.781q.656.282 1.047.844.39.547.39 1.25 0 1.094-.75 1.766-.734.656-1.953.656-1.234 0-1.984-.656-.735-.672-.735-1.766 0-.703.375-1.25.375-.562 1.047-.844-.562-.28-.89-.78-.329-.5-.329-1.142 0-1.078.688-1.703.687-.64 1.828-.64 1.125 0 1.813.64.703.625.703 1.703zm-.891 3.985q0-.719-.453-1.156-.453-.454-1.188-.454-.734 0-1.187.454-.438.437-.438 1.171 0 .72.438 1.141.437.406 1.203.406.75 0 1.188-.422.437-.421.437-1.14zm-1.625-5.438q-.64 0-1.047.407-.39.39-.39 1.078 0 .64.39 1.047.39.406 1.031.406.657 0 1.047-.406.39-.407.39-1.047 0-.657-.405-1.063-.407-.422-1.016-.422zm9.531 6.297 1.578-4.875h1.11l-2.282 6.344h-.828l-2.297-6.344h1.11l1.61 4.875zm9.313-6.453-3.532 7.922h-1.14l3.515-7.64h-4.609v-.891h5.766v.61zm1.625 7.36q0-.282.156-.47.172-.187.5-.187.344 0 .516.188.172.187.172.468 0 .266-.172.454-.172.171-.516.171-.328 0-.5-.171-.156-.188-.156-.454zm8.453.562h-5.594v-.781l2.953-3.282q.657-.75.907-1.203.25-.468.25-.968 0-.672-.407-1.094-.39-.438-1.078-.438-.797 0-1.25.47-.453.452-.453 1.28h-1.078q0-1.187.75-1.906.765-.734 2.031-.734 1.203 0 1.89.625.688.625.688 1.672 0 1.25-1.61 3l-2.28 2.468h4.28v.891zm1.547-.563q0-.28.156-.468.172-.188.5-.188.344 0 .516.188.172.187.172.468 0 .266-.172.454-.172.171-.516.171-.328 0-.5-.171-.156-.188-.156-.454zm3.36-3.718.437-4.25h4.375v1h-3.453l-.266 2.328q.64-.375 1.437-.375 1.157 0 1.844.781.688.766.688 2.078 0 1.313-.72 2.078-.702.766-1.984.766-1.125 0-1.843-.625-.719-.64-.813-1.75h1.016q.11.734.531 1.11.422.374 1.11.374.75 0 1.187-.515.438-.516.438-1.422 0-.86-.47-1.375-.468-.516-1.25-.516-.702 0-1.109.297l-.28.235-.876-.22zm11.859.64q0 1.907-.657 2.844-.64.922-2.031.922-1.36 0-2.016-.906-.656-.907-.687-2.719v-1.438q0-1.89.64-2.796.657-.922 2.047-.922 1.375 0 2.032.89.656.875.672 2.72zm-1.094-1.484q0-1.375-.39-2-.376-.64-1.22-.64-.828 0-1.218.64-.375.625-.375 1.922v1.734q0 1.375.39 2.047.407.656 1.219.656.797 0 1.188-.625.39-.625.406-1.953zm3.234.844.438-4.25h4.375v1h-3.453l-.266 2.328q.64-.375 1.437-.375 1.157 0 1.844.781.688.766.688 2.078 0 1.313-.72 2.078-.702.766-1.984.766-1.125 0-1.843-.625-.719-.64-.813-1.75h1.016q.11.734.531 1.11.422.374 1.11.374.75 0 1.187-.515.438-.516.438-1.422 0-.86-.47-1.375-.468-.516-1.25-.516-.702 0-1.109.297l-.28.235-.876-.22z" fill="#757575"/></svg>