<svg xmlns="http://www.w3.org/2000/svg" xmlns:xlink="http://www.w3.org/1999/xlink" stroke-miterlimit="10" width="827.181" height="363.37" fill="none" stroke="none" stroke-linecap="square"><style><![CDATA[.B{fill-rule:evenodd}.C{fill:#000}.D{fill-opacity:0}.E{stroke:#000}.F{stroke-linejoin:round}.G{stroke-linecap:butt}.H{fill:#595959}.I{stroke-width:2}.J{fill:#b4a7d6}]]></style><path d="M0 0h827.18v363.37H0z" class="B C D"/><path d="M9.797 72.04l3.594-17.187h2.1l-1.266 6.14q1-.922 1.812-1.297.828-.4 1.72-.4 1.75 0 2.906 1.313 1.172 1.297 1.172 3.78 0 1.656-.47 3.03-.47 1.36-1.156 2.297-.687.922-1.437 1.484-.734.563-1.516.828-.766.28-1.484.28-1.22 0-2.156-.64-.937-.656-1.47-2l-.5 2.36zm3.14-5.1l-.016.4q0 1.594.766 2.438.766.828 1.906.828 1.1 0 2.03-.78.938-.78 1.53-2.422.6-1.656.6-3.062 0-1.562-.766-2.422-.75-.875-1.86-.875-1.156 0-2.125.9-.953.875-1.594 2.72-.484 1.375-.484 2.297zm18.598 3.563q-1.094.953-2.125 1.4-1.016.438-2.172.438-1.72 0-2.78-1.016Q23.4 70.3 23.4 68.712q0-1.047.47-1.844.47-.812 1.25-1.297.797-.484 1.938-.687.703-.14 2.703-.22 2-.094 2.875-.437.234-.86.234-1.437 0-.734-.53-1.156-.734-.594-2.156-.594-1.344 0-2.187.594-.844.594-1.234 1.688l-2.14-.187q.656-1.86 2.078-2.844 1.422-.984 3.594-.984 2.297 0 3.656 1.1 1.03.813 1.03 2.125 0 1-.297 2.312l-.687 3.094q-.328 1.484-.328 2.406 0 .578.25 1.688h-2.14q-.172-.6-.25-1.547zm.78-4.766q-.437.188-.953.28-.5.094-1.703.188-1.844.172-2.6.422-.766.25-1.156.813-.375.547-.375 1.203 0 .9.6 1.47.6.578 1.75.578 1.063 0 2.03-.547.97-.562 1.53-1.562.562-1 .875-2.844zm4.38 2.063l2.125-.14q0 .922.28 1.563.28.64 1.03 1.063.75.406 1.766.406 1.406 0 2.1-.562.703-.562.703-1.328 0-.547-.422-1.047-.437-.484-2.125-1.203-1.672-.72-2.14-1.016-.78-.484-1.187-1.125-.4-.656-.4-1.5 0-1.484 1.172-2.53 1.172-1.062 3.28-1.062 2.344 0 3.563 1.094 1.22 1.078 1.266 2.844l-2.062.14q-.047-1.125-.797-1.78-.75-.656-2.125-.656-1.1 0-1.72.516-.6.5-.6 1.078 0 .594.53 1.03.36.313 1.813.937 2.438 1.063 3.078 1.672 1 .97 1 2.36 0 .938-.562 1.828-.562.9-1.734 1.422-1.172.53-2.75.53-2.156 0-3.672-1.062-1.5-1.078-1.422-3.47zm20.938.016l2.063.22q-.437 1.53-2.047 2.922-1.594 1.375-3.812 1.375-1.375 0-2.53-.64-1.156-.64-1.766-1.86-.594-1.22-.594-2.78 0-2.03.938-3.937.938-1.922 2.438-2.86 1.5-.937 3.25-.937 2.234 0 3.563 1.4 1.328 1.375 1.328 3.766 0 .922-.172 1.875h-9.156q-.047.375-.047.656 0 1.75.797 2.672.813.922 1.97.922 1.094 0 2.14-.72 1.063-.72 1.64-2.062zm-6.156-3.078h6.984q0-.328 0-.47 0-1.594-.797-2.437-.797-.86-2.047-.86-1.36 0-2.484.938-1.1.938-1.656 2.828zM69.3 76.806v-17.22h1.922v1.625q.688-.953 1.53-1.422.86-.484 2.078-.484 1.594 0 2.813.828 1.22.813 1.844 2.313.625 1.5.625 3.28 0 1.906-.687 3.438-.687 1.53-2 2.344-1.297.813-2.734.813-1.062 0-1.906-.437-.828-.453-1.375-1.14v6.063zm1.922-10.922q0 2.406.97 3.563.97 1.14 2.36 1.14 1.406 0 2.406-1.187 1-1.187 1-3.687 0-2.375-.984-3.562-.97-1.187-2.328-1.187-1.36 0-2.4 1.266-1.03 1.25-1.03 3.656zm10.645-.062q0-3.47 1.922-5.125 1.6-1.4 3.922-1.4 2.563 0 4.188 1.688 1.625 1.688 1.625 4.64 0 2.406-.72 3.78-.72 1.375-2.094 2.14-1.375.766-3 .766-2.625 0-4.234-1.672-1.6-1.687-1.6-4.828zm2.172 0q0 2.4 1.03 3.578 1.047 1.188 2.64 1.188 1.563 0 2.6-1.187 1.047-1.203 1.047-3.656 0-2.312-1.062-3.5-1.047-1.187-2.594-1.187-1.594 0-2.64 1.188-1.03 1.188-1.03 3.578zM96 57.3v-2.437h2.1V57.3zm0 14.75V59.587h2.1V72.04zm5.316 0V59.587h1.906v1.78q1.375-2.062 3.953-2.062 1.125 0 2.063.406.953.406 1.422 1.063.47.656.656 1.563.125.578.125 2.047v7.656h-2.1v-7.578q0-1.28-.25-1.922-.25-.64-.875-1.016-.625-.4-1.47-.4-1.344 0-2.328.86-.984.86-.984 3.25v6.797zm17.957-1.9l.313 1.86q-.9.203-1.594.203-1.156 0-1.797-.36-.625-.375-.9-.97-.25-.594-.25-2.484v-7.172h-1.547v-1.64h1.547V56.5l2.094-1.266v4.344h2.125v1.64h-2.125v7.28q0 .906.1 1.172.125.25.375.406.25.14.72.14.344 0 .922-.078zm1.215-1.828l2.094-.328q.172 1.25.97 1.922.813.672 2.25.672 1.453 0 2.156-.594.703-.594.703-1.4 0-.72-.625-1.125-.422-.28-2.156-.72-2.312-.578-3.22-1-.9-.437-1.36-1.187-.453-.766-.453-1.672 0-.828.375-1.53.4-.72 1.047-1.187.484-.36 1.328-.6.86-.266 1.828-.266 1.47 0 2.578.422 1.1.422 1.625 1.156.53.72.734 1.922l-2.062.28q-.14-.97-.812-1.5-.672-.547-1.906-.547-1.453 0-2.078.484-.625.484-.625 1.125 0 .406.266.734.25.344.813.563.313.125 1.86.547 2.234.594 3.1.984.9.375 1.4 1.1.516.72.516 1.797 0 1.047-.625 1.984-.6.938-1.766 1.453-1.156.5-2.625.5-2.422 0-3.703-1-1.266-1.016-1.625-3zm24.12 1.828l.313 1.86q-.9.203-1.594.203-1.156 0-1.797-.36-.625-.375-.9-.97-.25-.594-.25-2.484v-7.172h-1.547v-1.64h1.547V56.5l2.094-1.266v4.344h2.125v1.64h-2.125v7.28q0 .906.1 1.172.125.25.375.406.25.14.72.14.344 0 .922-.078zm1.277-4.328q0-3.47 1.922-5.125 1.6-1.4 3.922-1.4 2.563 0 4.188 1.688 1.625 1.688 1.625 4.64 0 2.406-.72 3.78-.72 1.375-2.094 2.14-1.375.766-3 .766-2.625 0-4.234-1.672-1.6-1.687-1.6-4.828zm2.172 0q0 2.4 1.03 3.578 1.047 1.188 2.64 1.188 1.563 0 2.6-1.187 1.047-1.203 1.047-3.656 0-2.312-1.062-3.5-1.047-1.187-2.594-1.187-1.594 0-2.64 1.188-1.03 1.188-1.03 3.578zm23.234 4.328l.313 1.86q-.9.203-1.594.203-1.156 0-1.797-.36-.625-.375-.9-.97-.25-.594-.25-2.484v-7.172h-1.547v-1.64h1.547V56.5l2.094-1.266v4.344h2.125v1.64h-2.125v7.28q0 .906.1 1.172.125.25.375.406.25.14.72.14.344 0 .922-.078zm2.06 1.9V54.853h2.1v6.172q1.484-1.72 3.734-1.72 1.375 0 2.4.547 1.03.547 1.47 1.516.438.953.438 2.78v7.9h-2.1v-7.9q0-1.578-.687-2.297-.687-.72-1.937-.72-.937 0-1.766.484-.828.484-1.187 1.313-.344.828-.344 2.297v6.813zm21.88-4.016l2.172.28q-.516 1.906-1.906 2.97-1.4 1.047-3.562 1.047-2.734 0-4.344-1.672-1.594-1.687-1.594-4.734 0-3.14 1.6-4.875 1.625-1.734 4.203-1.734 2.5 0 4.078 1.703 1.594 1.703 1.594 4.78 0 .188-.016.563h-9.28q.1 2.047 1.156 3.14 1.047 1.094 2.6 1.094 1.156 0 1.97-.6.828-.6 1.313-1.953zm-6.937-3.406h6.953q-.14-1.562-.797-2.36-1-1.22-2.6-1.22-1.453 0-2.453.984-.984.97-1.094 2.594zm20.375 7.422h-1.953V54.853h2.1v6.14q1.328-1.687 3.406-1.687 1.14 0 2.172.47 1.03.47 1.688 1.313.656.828 1.03 2.016.375 1.172.375 2.53 0 3.188-1.578 4.938-1.578 1.75-3.797 1.75-2.203 0-3.453-1.844zm-.03-6.312q0 2.234.6 3.234 1 1.625 2.703 1.625 1.375 0 2.375-1.203 1.016-1.203 1.016-3.578 0-2.437-.97-3.594-.953-1.172-2.328-1.172-1.4 0-2.406 1.203-1 1.203-1 3.484zm19.957 2.297l2.172.28q-.516 1.906-1.906 2.97-1.4 1.047-3.562 1.047-2.734 0-4.344-1.672-1.594-1.687-1.594-4.734 0-3.14 1.6-4.875 1.625-1.734 4.203-1.734 2.5 0 4.078 1.703 1.594 1.703 1.594 4.78 0 .188-.016.563h-9.28q.1 2.047 1.156 3.14 1.047 1.094 2.6 1.094 1.156 0 1.97-.6.828-.6 1.313-1.953zm-6.937-3.406h6.953q-.14-1.562-.797-2.36-1-1.22-2.6-1.22-1.453 0-2.453.984-.984.97-1.094 2.594zm11.38 8.453l2.047.313q.125.938.72 1.375.78.594 2.14.594 1.47 0 2.266-.594.797-.578 1.078-1.64.156-.64.14-2.703-1.375 1.625-3.437 1.625-2.562 0-3.97-1.844-1.406-1.86-1.406-4.453 0-1.78.64-3.28.64-1.516 1.86-2.328 1.234-.828 2.9-.828 2.203 0 3.625 1.78v-1.5h1.953v10.766q0 2.906-.594 4.1-.594 1.22-1.875 1.922-1.28.703-3.156.703-2.234 0-3.6-1-1.36-1-1.312-3.016zm1.734-7.484q0 2.453.97 3.578.984 1.125 2.453 1.125 1.453 0 2.438-1.1.984-1.125.984-3.516 0-2.28-1.016-3.438-1.016-1.172-2.453-1.172-1.406 0-2.4 1.14-.984 1.14-.984 3.4zm12.004-8.297v-2.437h2.1V57.3zm0 14.75V59.587h2.1V72.04zm5.316 0V59.587H254v1.78q1.375-2.062 3.953-2.062 1.125 0 2.063.406.953.406 1.422 1.063.47.656.656 1.563.125.578.125 2.047v7.656h-2.1v-7.578q0-1.28-.25-1.922-.25-.64-.875-1.016-.625-.4-1.47-.4-1.344 0-2.328.86-.984.86-.984 3.25v6.797zm13.348 0V59.587h1.906v1.78q1.375-2.062 3.953-2.062 1.125 0 2.063.406.953.406 1.422 1.063.47.656.656 1.563.125.578.125 2.047v7.656h-2.1v-7.578q0-1.28-.25-1.922-.25-.64-.875-1.016-.625-.4-1.47-.4-1.344 0-2.328.86-.984.86-.984 3.25v6.797zM278.8 57.3v-2.437h2.1V57.3zm0 14.75V59.587h2.1V72.04zm5.316 0V59.587h1.906v1.78q1.375-2.062 3.953-2.062 1.125 0 2.063.406.953.406 1.422 1.063.47.656.656 1.563.125.578.125 2.047v7.656h-2.1v-7.578q0-1.28-.25-1.922-.25-.64-.875-1.016-.625-.4-1.47-.4-1.344 0-2.328.86-.984.86-.984 3.25v6.797zm12.973 1.03l2.047.313q.125.938.72 1.375.78.594 2.14.594 1.47 0 2.266-.594.797-.578 1.078-1.64.156-.64.14-2.703-1.375 1.625-3.437 1.625-2.562 0-3.97-1.844-1.406-1.86-1.406-4.453 0-1.78.64-3.28.64-1.516 1.86-2.328 1.234-.828 2.9-.828 2.203 0 3.625 1.78v-1.5h1.953v10.766q0 2.906-.594 4.1-.594 1.22-1.875 1.922-1.28.703-3.156.703-2.234 0-3.6-1-1.36-1-1.312-3.016zm1.734-7.484q0 2.453.97 3.578.984 1.125 2.453 1.125 1.453 0 2.438-1.1.984-1.125.984-3.516 0-2.28-1.016-3.438-1.016-1.172-2.453-1.172-1.406 0-2.4 1.14-.984 1.14-.984 3.4zm12.55 6.453v-2.406h2.4v2.406q0 1.328-.47 2.14-.47.813-1.484 1.266l-.578-.906q.656-.297.97-.875.328-.562.36-1.625zm18.96 0v-4.1h-7.453v-1.937l7.828-11.14h1.734v11.14h2.313v1.938h-2.312v4.1zm0-6.047v-7.75l-5.4 7.75zm22.14-.687V63.3l7.28-.016v6.375q-1.672 1.328-3.453 2.016-1.78.672-3.656.672-2.53 0-4.6-1.078-2.062-1.094-3.125-3.14-1.047-2.062-1.047-4.594 0-2.5 1.047-4.672 1.047-2.172 3.016-3.22 1.97-1.062 4.53-1.062 1.875 0 3.375.6 1.5.594 2.36 1.672.86 1.078 1.297 2.813l-2.047.563q-.4-1.312-.97-2.062-.562-.75-1.64-1.203-1.062-.453-2.36-.453-1.562 0-2.703.484-1.125.47-1.828 1.25-.687.766-1.078 1.688-.656 1.594-.656 3.453 0 2.297.78 3.844.797 1.547 2.313 2.297 1.516.75 3.203.75 1.484 0 2.9-.562 1.406-.562 2.125-1.22v-3.187zm10.543 6.734V54.853h6.438q1.97 0 3.156.53 1.188.516 1.86 1.6.688 1.078.688 2.266 0 1.094-.6 2.078-.594.97-1.797 1.563 1.563.453 2.4 1.562.844 1.094.844 2.594 0 1.203-.516 2.25-.5 1.03-1.25 1.594-.75.563-1.9.86-1.125.28-2.766.28zm2.266-9.97h3.72q1.516 0 2.172-.187.86-.266 1.297-.86.438-.594.438-1.5 0-.86-.406-1.5-.406-.656-1.172-.9-.766-.25-2.6-.25h-3.437zm0 7.938h4.28q1.094 0 1.547-.078.78-.14 1.313-.47.53-.328.86-.953.344-.625.344-1.453 0-.953-.5-1.656-.484-.72-1.36-1-.875-.297-2.516-.297h-3.97zm28.348.5q-1.172.984-2.266 1.406-1.078.406-2.312.406-2.047 0-3.156-1-1.094-1-1.094-2.562 0-.922.406-1.672.422-.75 1.094-1.203.672-.47 1.516-.703.625-.156 1.875-.312 2.563-.312 3.766-.734.016-.422.016-.547 0-1.28-.6-1.812-.797-.72-2.4-.72-1.5 0-2.203.53-.703.516-1.047 1.844l-2.062-.28q.28-1.328.922-2.14.64-.812 1.86-1.25 1.22-.453 2.828-.453 1.594 0 2.594.375 1 .375 1.47.953.47.563.656 1.438.094.53.094 1.938v2.813q0 2.938.14 3.72.14.78.53 1.5h-2.203q-.328-.656-.422-1.53zm-.172-4.72q-1.156.47-3.453.797-1.297.188-1.844.422-.53.234-.828.688-.28.453-.28 1 0 .844.625 1.406.64.563 1.875.563 1.22 0 2.172-.53.953-.53 1.4-1.453.344-.72.344-2.1zm5.348 6.25V54.853h2.1V72.04zm5.395-14.75V54.86h2.1v2.44zm0 14.75v-12.46h2.1V72.04zm4.94 1.03l2.047.313q.125.938.72 1.375.78.594 2.14.594 1.47 0 2.266-.594.797-.578 1.078-1.64.156-.64.14-2.703-1.375 1.625-3.437 1.625-2.562 0-3.97-1.844-1.406-1.86-1.406-4.453 0-1.78.64-3.28.64-1.516 1.86-2.328 1.234-.828 2.9-.828 2.203 0 3.625 1.78v-1.5h1.953V70.36q0 2.906-.594 4.1-.594 1.22-1.875 1.922-1.28.703-3.156.703-2.234 0-3.6-1-1.36-1-1.312-3.016zm1.734-7.484q0 2.453.97 3.578.984 1.125 2.453 1.125 1.453 0 2.438-1.1.984-1.125.984-3.516 0-2.28-1.016-3.438-1.016-1.172-2.453-1.172-1.406 0-2.4 1.14-.984 1.14-.984 3.4zm11.988 6.453v-12.46h1.906v1.78q1.375-2.062 3.953-2.062 1.125 0 2.063.406.953.406 1.422 1.063.47.656.656 1.563.125.578.125 2.047v7.656h-2.1v-7.578q0-1.28-.25-1.922-.25-.64-.875-1.016-.625-.4-1.47-.4-1.344 0-2.328.86-.984.86-.984 3.25v6.797zm21.88-4.016l2.172.28q-.516 1.906-1.906 2.97-1.4 1.047-3.562 1.047-2.734 0-4.344-1.672-1.594-1.687-1.594-4.734 0-3.14 1.6-4.875 1.625-1.734 4.203-1.734 2.5 0 4.078 1.703 1.594 1.703 1.594 4.78 0 .188-.016.563h-9.28q.1 2.047 1.156 3.14 1.047 1.094 2.6 1.094 1.156 0 1.97-.6.828-.6 1.313-1.953zm-6.937-3.406h6.953q-.14-1.562-.797-2.36-1-1.22-2.6-1.22-1.453 0-2.453.984-.984.97-1.094 2.594zm19.832 7.422v-1.578q-1.187 1.86-3.484 1.86-1.484 0-2.734-.812-1.25-.828-1.937-2.297-.672-1.47-.672-3.4 0-1.86.6-3.375.625-1.516 1.86-2.328 1.25-.812 2.78-.812 1.125 0 2 .484.9.47 1.438 1.234V54.86h2.094v17.18zm-6.672-6.22q0 2.4 1 3.578 1.016 1.188 2.4 1.188 1.4 0 2.344-1.125.97-1.14.97-3.453 0-2.563-.984-3.75-.984-1.203-2.422-1.203-1.406 0-2.36 1.156-.937 1.14-.937 3.6z" class="H"/><path d="M127.966 198.66h328v40h-328z" fill="#cfe2f3" class="B"/><path d="M127.966 198.66h328v40h-328z" class="E F"/><path d="M95.966 294.66h232v40h-232z" class="B C D"/><path d="M120.785 324.14l3.188-15.266h1.9l-1.14 5.453q.906-.828 1.625-1.156.734-.344 1.53-.344 1.547 0 2.578 1.156 1.03 1.156 1.03 3.36 0 1.47-.422 2.688-.406 1.22-1.016 2.047-.6.828-1.266 1.328-.656.5-1.344.734-.687.25-1.328.25-1.094 0-1.937-.578-.828-.578-1.297-1.766l-.437 2.094zm2.797-4.547l-.016.36q0 1.422.672 2.156.688.734 1.703.734.984 0 1.813-.687.828-.687 1.36-2.156.53-1.47.53-2.72 0-1.4-.672-2.156-.672-.78-1.656-.78-1.03 0-1.9.797-.844.78-1.422 2.422-.422 1.22-.422 2.03zm16.534 3.172q-.984.844-1.9 1.234-.906.4-1.937.4-1.53 0-2.47-.9-.937-.906-.937-2.312 0-.937.422-1.64.422-.72 1.1-1.14.703-.437 1.72-.625.64-.125 2.406-.203 1.78-.078 2.547-.375.22-.766.22-1.28 0-.656-.47-1.03-.656-.516-1.922-.516-1.187 0-1.953.53-.75.516-1.094 1.484l-1.906-.172q.594-1.64 1.86-2.516 1.266-.875 3.188-.875 2.047 0 3.25.984.906.72.906 1.9 0 .9-.25 2.047l-.6 2.75q-.297 1.313-.297 2.14 0 .516.234 1.5h-1.906q-.156-.547-.22-1.375zm.688-4.234q-.4.156-.844.25-.453.078-1.516.172-1.64.14-2.328.375-.672.22-1.016.72-.344.484-.344 1.078 0 .78.547 1.297.547.516 1.563.516.938 0 1.797-.5.86-.5 1.36-1.375.5-.9.78-2.53zm3.893 1.828l1.875-.1q0 .813.25 1.4.25.563.922.938.672.36 1.578.36 1.25 0 1.875-.5.625-.5.625-1.187 0-.484-.375-.922-.4-.437-1.9-1.078-1.484-.64-1.906-.906-.703-.422-1.062-1-.344-.578-.344-1.328 0-1.312 1.03-2.25 1.047-.937 2.922-.937 2.094 0 3.172.97 1.094.953 1.125 2.53l-1.828.125q-.047-1-.72-1.578-.656-.594-1.875-.594-.984 0-1.53.453-.53.453-.53.97 0 .516.47.922.313.266 1.6.828 2.172.938 2.734 1.484.9.86.9 2.094 0 .828-.516 1.625-.5.78-1.53 1.266-1.03.47-2.437.47-1.922 0-3.266-.953-1.344-.937-1.266-3.078zm18.602.016l1.844.188q-.406 1.375-1.828 2.6-1.422 1.22-3.4 1.22-1.22 0-2.25-.562-1.03-.578-1.562-1.656-.53-1.078-.53-2.47 0-1.812.828-3.516.844-1.703 2.172-2.53 1.344-.828 2.9-.828 1.984 0 3.156 1.234 1.188 1.22 1.188 3.344 0 .813-.156 1.672h-8.14q-.03.328-.03.578 0 1.563.703 2.375.72.813 1.75.813.97 0 1.906-.625.938-.64 1.453-1.844zm-5.47-2.734h6.203q.016-.297.016-.422 0-1.406-.72-2.156-.703-.766-1.812-.766-1.22 0-2.22.844-.984.828-1.47 2.5zm19.41 10.985q-1.547-1.953-2.625-4.578-1.062-2.625-1.062-5.437 0-2.484.797-4.75.938-2.625 2.9-5.25h1.344q-1.25 2.172-1.656 3.094-.64 1.438-1 3-.453 1.953-.453 3.922 0 5 3.1 10zm9-4.484v-3.656h-6.625v-1.72l6.97-9.9h1.53v9.9h2.063v1.72h-2.062v3.656zm0-5.375v-6.875l-4.78 6.875zm13.768-.6v-1.797l6.453-.016v5.672q-1.484 1.188-3.062 1.797-1.578.594-3.25.594-2.25 0-4.094-.97-1.828-.97-2.766-2.78-.937-1.828-.937-4.078 0-2.234.922-4.156.938-1.937 2.688-2.875 1.75-.937 4.03-.937 1.656 0 2.984.547 1.344.53 2.094 1.5.766.953 1.172 2.484l-1.828.5q-.344-1.156-.86-1.828-.5-.672-1.453-1.062-.937-.406-2.094-.406-1.4 0-2.406.422-1 .422-1.625 1.1-.625.688-.97 1.516-.578 1.406-.578 3.063 0 2.047.703 3.422.703 1.375 2.047 2.047 1.344.656 2.86.656 1.313 0 2.547-.5 1.25-.516 1.906-1.078v-2.844zm9.355 5.984v-15.266h5.734q1.75 0 2.797.47 1.063.453 1.656 1.422.594.97.594 2.016 0 .97-.53 1.844-.53.86-1.594 1.4 1.375.406 2.125 1.4.75.97.75 2.313 0 1.063-.453 1.984-.453.922-1.125 1.422-.672.5-1.672.766-1 .25-2.453.25zm2.016-8.86h3.313q1.344 0 1.922-.172.766-.234 1.156-.766.4-.53.4-1.328 0-.75-.36-1.328-.36-.578-1.047-.797-.672-.22-2.312-.22h-3.062zm0 7.063h3.813q.97 0 1.375-.078.688-.125 1.156-.406.47-.297.766-.86.313-.562.313-1.28 0-.86-.437-1.484-.437-.64-1.22-.9-.766-.25-2.234-.25h-3.53zm25.198.438q-1.047.875-2.016 1.25-.953.36-2.062.36-1.812 0-2.797-.9-.984-.9-.984-2.28 0-.812.375-1.484.375-.672.97-1.078.594-.406 1.344-.6.563-.14 1.672-.28 2.266-.266 3.344-.64.016-.4.016-.5 0-1.14-.53-1.6-.72-.64-2.14-.64-1.328 0-1.953.47-.625.47-.937 1.64l-1.828-.25q.25-1.172.813-1.9.578-.734 1.656-1.125 1.094-.4 2.516-.4 1.422 0 2.297.344.9.328 1.313.828.422.5.578 1.28.094.47.094 1.72v2.5q0 2.625.125 3.313.125.688.47 1.328h-1.953q-.297-.578-.375-1.36zm-.156-4.187q-1.016.406-3.062.703-1.156.172-1.64.375-.47.203-.734.6-.266.406-.266.9 0 .75.563 1.25.578.5 1.672.5 1.078 0 1.922-.47.844-.484 1.25-1.297.297-.64.297-1.875zm4.752 5.547v-15.266h1.875v15.266zm4.8-13.1v-2.156h1.875v2.156zm0 13.1V313.08h1.875v11.063zm4.38.922l1.828.266q.1.844.625 1.234.703.516 1.906.516 1.313 0 2.016-.53.703-.516.953-1.453.156-.562.14-2.406-1.234 1.453-3.062 1.453-2.28 0-3.53-1.64-1.25-1.656-1.25-3.953 0-1.578.563-2.922.578-1.344 1.672-2.062 1.094-.734 2.563-.734 1.953 0 3.22 1.578v-1.328h1.734v9.563q0 2.578-.53 3.656-.516 1.078-1.656 1.703-1.14.625-2.812.625-1.984 0-3.203-.9-1.22-.9-1.172-2.672zm1.547-6.656q0 2.188.86 3.188.875 1 2.172 1 1.297 0 2.172-1 .875-1 .875-3.125 0-2.03-.906-3.062-.9-1.03-2.172-1.03-1.25 0-2.125 1.016-.875 1.016-.875 3.016zm10.66 5.734V313.08h1.688v1.578q1.22-1.828 3.516-1.828 1 0 1.844.36.844.36 1.25.953.422.578.594 1.375.094.516.094 1.828v6.797h-1.875v-6.734q0-1.14-.22-1.703-.22-.578-.78-.906-.547-.344-1.297-.344-1.203 0-2.078.766-.86.75-.86 2.875v6.047zM282 320.58l1.922.234q-.453 1.703-1.687 2.64-1.234.938-3.172.938-2.422 0-3.844-1.484-1.422-1.5-1.422-4.203 0-2.797 1.438-4.328 1.438-1.547 3.734-1.547 2.22 0 3.6 1.516 1.406 1.5 1.406 4.25 0 .156 0 .5h-8.25q.1 1.813 1.03 2.78.922.97 2.313.97 1.03 0 1.75-.53.734-.547 1.172-1.734zm-6.156-3.03h6.172q-.125-1.4-.703-2.094-.906-1.078-2.328-1.078-1.297 0-2.172.86-.875.86-.97 2.313zm17.612 6.594v-1.4q-1.047 1.64-3.094 1.64-1.312 0-2.422-.72-1.1-.734-1.72-2.047-.6-1.312-.6-3 0-1.656.547-3 .547-1.36 1.656-2.078 1.1-.72 2.47-.72 1 0 1.78.422.78.422 1.266 1.094v-5.47h1.875v15.266zm-5.922-5.516q0 2.125.9 3.172.906 1.047 2.125 1.047 1.22 0 2.078-1 .86-1 .86-3.062 0-2.28-.875-3.344-.875-1.062-2.156-1.062-1.25 0-2.094 1.03-.828 1.016-.828 3.22zm11.846 10h-1.344q3.1-5 3.1-10 0-1.97-.453-3.9-.344-1.562-.984-3-.406-.937-1.672-3.125h1.344q1.953 2.625 2.9 5.25.797 2.266.797 4.75 0 2.813-1.078 5.438-1.078 2.625-2.6 4.578z" class="H"/><path d="M127.966 198.66h16v40h-16z" fill="#3d85c6" class="B"/><path d="M127.966 198.66h16v40h-16z" class="E F"/><path d="M127.966 302.66v-32" class="B C D"/><g class="E I"><path d="M127.966 302.66v-20" class="F G"/><path d="M131.27 282.66l-3.303-9.076-3.303 9.076z" class="B C"/></g><path d="M75.9 117.937h209.764v40.724H75.9z" class="B C D"/><path d="M107.354 147.417l-5.922-15.266h2.188l3.97 11.094q.484 1.328.797 2.5.36-1.25.828-2.5l4.125-11.094h2.063l-5.984 15.266zm11.976-8.28q-1.156-.422-1.72-1.22-.562-.797-.562-1.89 0-1.672 1.188-2.797 1.203-1.14 3.188-1.14 2 0 3.22 1.172 1.22 1.156 1.22 2.813 0 1.063-.562 1.86-.547.78-1.687 1.203 1.406.453 2.14 1.484.734 1.016.734 2.438 0 1.953-1.39 3.297-1.375 1.328-3.64 1.328-2.25 0-3.64-1.344-1.39-1.344-1.39-3.344 0-1.484.75-2.484.766-1.016 2.156-1.375zm-.375-3.172q0 1.078.703 1.766.703.688 1.813.688 1.078 0 1.766-.672.703-.687.703-1.672 0-1.03-.72-1.734-.703-.703-1.766-.703-1.078 0-1.797.688-.703.688-.703 1.64zm-.594 7.047q0 .797.375 1.547.375.75 1.125 1.172.75.406 1.625.406 1.344 0 2.22-.86.875-.875.875-2.203 0-1.36-.906-2.234-.906-.89-2.25-.89-1.328 0-2.203.875-.86.875-.86 2.188zm16.412-8.703v-2.156h1.875v2.156zm0 13.11v-11.062h1.875v11.063zm4.723 0v-11.062h1.688v1.578q1.22-1.828 3.516-1.828 1 0 1.844.36.844.36 1.25.953.422.578.594 1.375.094.516.094 1.828v6.797h-1.875v-6.734q0-1.14-.22-1.703-.22-.578-.78-.906-.547-.344-1.297-.344-1.203 0-2.078.766-.86.75-.86 2.875v6.047zm11.112-3.297l1.86-.297q.156 1.11.86 1.703.72.594 2 .594 1.297 0 1.922-.516.625-.53.625-1.234 0-.64-.562-1-.375-.25-1.906-.64-2.062-.516-2.86-.89-.797-.39-1.22-1.062-.406-.672-.406-1.484 0-.734.328-1.36.344-.64.938-1.062.438-.312 1.188-.53.75-.234 1.625-.234 1.297 0 2.28.375.984.375 1.453 1.016.47.64.64 1.72l-1.828.25q-.125-.86-.734-1.328-.594-.484-1.687-.484-1.28 0-1.844.422-.547.422-.547 1 0 .36.234.656.22.297.72.5.28.11 1.656.484 1.984.53 2.766.875.797.328 1.234.984.453.64.453 1.594 0 .938-.547 1.766-.547.828-1.578 1.28-1.03.453-2.328.453-2.156 0-3.297-.89-1.125-.906-1.437-2.656zm15.508 1.625l.266 1.656q-.78.156-1.406.156-1.03 0-1.594-.312-.562-.328-.797-.844-.22-.53-.22-2.22v-6.375H161v-1.453h1.375v-2.734l1.86-1.125v3.86h1.89v1.453h-1.89v6.47q0 .813.094 1.047.11.22.328.36.234.125.64.125.313 0 .828-.062zm9.05.313q-1.047.875-2.016 1.25-.953.36-2.062.36-1.812 0-2.797-.89-.984-.89-.984-2.28 0-.812.375-1.484.375-.672.97-1.078.594-.406 1.344-.61.563-.14 1.672-.28 2.266-.266 3.344-.64.016-.39.016-.5 0-1.14-.53-1.61-.72-.64-2.14-.64-1.328 0-1.953.47-.625.47-.937 1.64l-1.828-.25q.25-1.172.813-1.89.578-.734 1.656-1.125 1.094-.39 2.516-.39 1.422 0 2.297.344.89.328 1.313.828.422.5.578 1.28.094.47.094 1.72v2.5q0 2.625.125 3.313.125.688.47 1.328h-1.953q-.297-.578-.375-1.36zM175 141.87q-1.016.406-3.062.703-1.156.172-1.64.375-.47.203-.734.61-.266.406-.266.89 0 .75.563 1.25.578.5 1.672.5 1.078 0 1.922-.47.844-.484 1.25-1.297.297-.64.297-1.875zm4.8 5.547v-11.062h1.688v1.578q1.22-1.828 3.516-1.828 1 0 1.844.36.844.36 1.25.953.422.578.594 1.375.094.516.094 1.828v6.797h-1.875v-6.734q0-1.14-.22-1.703-.22-.578-.78-.906-.547-.344-1.297-.344-1.203 0-2.078.766-.86.75-.86 2.875v6.047zm19.08-4.047l1.844.234q-.297 1.906-1.547 2.984-1.25 1.078-3.062 1.078-2.266 0-3.656-1.484-1.375-1.484-1.375-4.25 0-1.797.594-3.14.594-1.344 1.813-2.016 1.22-.672 2.64-.672 1.797 0 2.938.922 1.156.906 1.484 2.578l-1.828.28q-.266-1.11-.922-1.672-.656-.562-1.594-.562-1.422 0-2.312 1.016-.875 1.016-.875 3.203 0 2.234.844 3.25.86 1 2.234 1 1.11 0 1.844-.672.734-.672.938-2.078zm11.023.484l1.922.234q-.453 1.703-1.687 2.64-1.234.938-3.172.938-2.422 0-3.844-1.484-1.422-1.5-1.422-4.203 0-2.797 1.438-4.328 1.438-1.547 3.734-1.547 2.22 0 3.61 1.516 1.406 1.5 1.406 4.25 0 .156 0 .5h-8.25q.11 1.813 1.03 2.78.922.97 2.313.97 1.03 0 1.75-.53.734-.547 1.172-1.734zm-6.156-3.03h6.172q-.125-1.39-.703-2.094-.906-1.078-2.328-1.078-1.297 0-2.172.86-.875.86-.97 2.313zm23.537 6.594v-1.39q-1.047 1.64-3.094 1.64-1.312 0-2.422-.72-1.11-.734-1.72-2.047-.61-1.312-.61-3 0-1.656.547-3 .547-1.36 1.656-2.078 1.11-.72 2.47-.72 1 0 1.78.422.78.422 1.266 1.094v-5.47h1.875v15.266zm-5.922-5.516q0 2.125.89 3.172.906 1.047 2.125 1.047 1.22 0 2.078-1 .86-1 .86-3.062 0-2.28-.875-3.344-.875-1.062-2.156-1.062-1.25 0-2.094 1.03-.828 1.016-.828 3.22zm17.83 4.156q-1.047.875-2.016 1.25-.953.36-2.062.36-1.812 0-2.797-.89-.984-.89-.984-2.28 0-.812.375-1.484.375-.672.97-1.078.594-.406 1.344-.61.563-.14 1.672-.28 2.266-.266 3.344-.64.016-.39.016-.5 0-1.14-.53-1.61-.72-.64-2.14-.64-1.328 0-1.953.47-.625.47-.937 1.64l-1.828-.25q.25-1.172.813-1.89.578-.734 1.656-1.125 1.094-.39 2.516-.39 1.422 0 2.297.344.89.328 1.313.828.422.5.578 1.28.094.47.094 1.72v2.5q0 2.625.125 3.313.125.688.47 1.328h-1.953q-.297-.578-.375-1.36zm-.156-4.187q-1.016.406-3.062.703-1.156.172-1.64.375-.47.203-.734.61-.266.406-.266.89 0 .75.563 1.25.578.5 1.672.5 1.078 0 1.922-.47.844-.484 1.25-1.297.297-.64.297-1.875zm8.893 3.875l.266 1.656q-.78.156-1.406.156-1.03 0-1.594-.312-.562-.328-.797-.844-.22-.53-.22-2.22v-6.375h-1.375v-1.453h1.375v-2.734l1.86-1.125v3.86h1.89v1.453h-1.89v6.47q0 .813.094 1.047.11.22.328.36.234.125.64.125.313 0 .828-.062zm9.05.313q-1.047.875-2.016 1.25-.953.36-2.062.36-1.812 0-2.797-.89-.984-.89-.984-2.28 0-.812.375-1.484.375-.672.97-1.078.594-.406 1.344-.61.563-.14 1.672-.28 2.266-.266 3.344-.64.016-.39.016-.5 0-1.14-.53-1.61-.72-.64-2.14-.64-1.328 0-1.953.47-.625.47-.937 1.64l-1.828-.25q.25-1.172.813-1.89.578-.734 1.656-1.125 1.094-.39 2.516-.39 1.422 0 2.297.344.89.328 1.313.828.422.5.578 1.28.094.47.094 1.72v2.5q0 2.625.125 3.313.125.688.47 1.328h-1.953q-.297-.578-.375-1.36zm-.156-4.187q-1.016.406-3.062.703-1.156.172-1.64.375-.47.203-.734.61-.266.406-.266.89 0 .75.563 1.25.578.5 1.672.5 1.078 0 1.922-.47.844-.484 1.25-1.297.297-.64.297-1.875z" class="H"/><path d="M180.782 158.66l-44.82 40" class="B C D"/><g class="E I"><path d="M180.782 158.66l-35.866 32" class="F G"/><path d="M142.717 188.206l-4.572 8.508 8.97-3.58z" class="B C"/></g><path d="M143.966 198.66h72v40h-72z" class="B J"/><path d="M143.966 198.66h72v40h-72z" class="E F"/><path d="M271.966 198.66h96v40h-96z" class="B J"/><path d="M271.966 198.66h96v40h-96z" class="E F"/><path d="M373.635 157.937l-193.67 40.724" class="B C D"/><g class="E I"><path d="M373.635 157.937L191.71 196.192" class="F G"/><path d="M191.03 192.96l-8.202 5.1 9.562 1.365z" class="B C"/></g><path d="M467.966 158.653l-148 40" class="B C D"/><g class="E I"><path d="M467.966 158.653l-136.416 36.87" class="F G"/><path d="M330.688 192.333l-7.9 5.557 9.624.82z" class="B C"/></g><path d="M491.966 158.66l8 40" class="B C D"/><g class="E I"><path d="M491.966 158.66l5.647 28.233" class="F G"/><path d="M494.373 187.542l5.02 8.252 1.46-9.548z" class="B C"/></g><path d="M783.966 246.66c0 2.21-.298 4-.667 4H456.633c-.368 0-.667 1.79-.667 4h0c0-2.21-.298-4-.667-4H128.633c-.368 0-.667-1.79-.667-4z" class="B C D"/><use xlink:href="#B" class="B C D"/><use xlink:href="#B" class="E F G"/><path d="M455.966 198.66h328v40h-328z" fill="#cfe2f3" class="B"/><path d="M455.966 198.66h328v40h-328z" class="E F"/><path d="M335.966 118.653h264v40h-264z" class="B C D"/><path d="M345.84 148.133l5.86-15.266h2.188l6.234 15.266h-2.297l-1.78-4.625h-6.375l-1.687 4.625zm4.406-6.266h5.172l-1.594-4.234q-.72-1.922-1.078-3.156-.297 1.47-.828 2.906zm11.2 6.266v-15.266h1.875v15.266zm4.738 0v-15.266h1.875v15.266zm4.082-5.53q0-3.078 1.72-4.547 1.422-1.234 3.47-1.234 2.28 0 3.72 1.5 1.453 1.484 1.453 4.125 0 2.14-.64 3.36-.625 1.22-1.86 1.906-1.22.672-2.672.672-2.312 0-3.75-1.484-1.437-1.5-1.437-4.297zm1.938 0q0 2.125.922 3.188.922 1.047 2.328 1.047 1.406 0 2.328-1.062.922-1.062.922-3.234 0-2.047-.937-3.11-.922-1.062-2.312-1.062-1.406 0-2.328 1.063-.922 1.047-.922 3.172zm17.846 1.484l1.844.234q-.297 1.906-1.547 2.984-1.25 1.078-3.062 1.078-2.266 0-3.656-1.484-1.375-1.484-1.375-4.25 0-1.797.594-3.14.594-1.344 1.813-2.016 1.22-.672 2.64-.672 1.797 0 2.938.922 1.156.906 1.484 2.578l-1.828.28q-.266-1.11-.922-1.672-.656-.562-1.594-.562-1.422 0-2.312 1.016-.875 1.016-.875 3.203 0 2.234.844 3.25.86 1 2.234 1 1.11 0 1.844-.672.734-.672.938-2.078zm10.664 2.688q-1.047.875-2.016 1.25-.953.36-2.062.36-1.812 0-2.797-.89-.984-.89-.984-2.28 0-.812.375-1.484.375-.672.97-1.078.594-.406 1.344-.61.563-.14 1.672-.28 2.266-.266 3.344-.64.016-.39.016-.5 0-1.14-.53-1.61-.72-.64-2.14-.64-1.328 0-1.953.47-.625.47-.937 1.64l-1.828-.25q.25-1.172.813-1.89.578-.734 1.656-1.125 1.094-.39 2.516-.39 1.422 0 2.297.344.89.328 1.313.828.422.5.578 1.28.094.47.094 1.72v2.5q0 2.625.125 3.313.125.688.47 1.328H401.1q-.297-.578-.375-1.36zm-.156-4.187q-1.016.406-3.062.703-1.156.172-1.64.375-.47.203-.734.61-.266.406-.266.89 0 .75.563 1.25.578.5 1.672.5 1.078 0 1.922-.47.844-.484 1.25-1.297.297-.64.297-1.875zm8.893 3.875l.266 1.656q-.78.156-1.406.156-1.03 0-1.594-.312-.562-.328-.797-.844-.22-.53-.22-2.22v-6.375h-1.375v-1.453h1.375v-2.734l1.86-1.125v3.86h1.89v1.453h-1.89v6.47q0 .813.094 1.047.11.22.328.36.234.125.64.125.313 0 .828-.062zm9.4-1.89l1.922.234q-.453 1.703-1.687 2.64-1.234.938-3.172.938-2.422 0-3.844-1.484-1.422-1.5-1.422-4.203 0-2.797 1.438-4.328 1.438-1.547 3.734-1.547 2.22 0 3.61 1.516 1.406 1.5 1.406 4.25 0 .156 0 .5h-8.25q.11 1.813 1.03 2.78.922.97 2.313.97 1.03 0 1.75-.53.734-.547 1.172-1.734zm-6.156-3.03h6.172q-.125-1.39-.703-2.094-.906-1.078-2.328-1.078-1.297 0-2.172.86-.875.86-.97 2.313zm17.612 6.594v-1.39q-1.047 1.64-3.094 1.64-1.312 0-2.422-.72-1.11-.734-1.72-2.047-.61-1.312-.61-3 0-1.656.547-3 .547-1.36 1.656-2.078 1.11-.72 2.47-.72 1 0 1.78.422.78.422 1.266 1.094v-5.47h1.875v15.266zm-5.922-5.516q0 2.125.89 3.172.906 1.047 2.125 1.047 1.22 0 2.078-1 .86-1 .86-3.062 0-2.28-.875-3.344-.875-1.062-2.156-1.062-1.25 0-2.094 1.03-.828 1.016-.828 3.22zm16.537 5.516V137.07h1.672v1.547q.53-.812 1.39-1.297.86-.5 1.97-.5 1.234 0 2.016.516.78.5 1.11 1.422 1.313-1.937 3.406-1.937 1.656 0 2.53.922.89.906.89 2.797v7.594h-1.86v-6.97q0-1.125-.187-1.61-.187-.5-.672-.797-.47-.312-1.11-.312-1.172 0-1.937.78-.766.766-.766 2.484v6.422h-1.875v-7.187q0-1.25-.47-1.875-.453-.625-1.5-.625-.78 0-1.453.422-.672.406-.984 1.22-.297.797-.297 2.313v5.734zm25.345-3.562l1.922.234q-.453 1.703-1.687 2.64-1.234.938-3.172.938-2.422 0-3.844-1.484-1.422-1.5-1.422-4.203 0-2.797 1.438-4.328 1.438-1.547 3.734-1.547 2.22 0 3.61 1.516 1.406 1.5 1.406 4.25 0 .156 0 .5h-8.25q.11 1.813 1.03 2.78.922.97 2.313.97 1.03 0 1.75-.53.734-.547 1.172-1.734zm-6.156-3.03h6.172q-.125-1.39-.703-2.094-.906-1.078-2.328-1.078-1.297 0-2.172.86-.875.86-.97 2.313zm10.44 6.594V137.07h1.672v1.547q.53-.812 1.39-1.297.86-.5 1.97-.5 1.234 0 2.016.516.78.5 1.11 1.422 1.313-1.937 3.406-1.937 1.656 0 2.53.922.89.906.89 2.797v7.594h-1.86v-6.97q0-1.125-.187-1.61-.187-.5-.672-.797-.47-.312-1.11-.312-1.172 0-1.937.78-.766.766-.766 2.484v6.422h-1.875v-7.187q0-1.25-.47-1.875-.453-.625-1.5-.625-.78 0-1.453.422-.672.406-.984 1.22-.297.797-.297 2.313v5.734zm17.063-5.53q0-3.078 1.72-4.547 1.422-1.234 3.47-1.234 2.28 0 3.72 1.5 1.453 1.484 1.453 4.125 0 2.14-.64 3.36-.625 1.22-1.86 1.906-1.22.672-2.672.672-2.312 0-3.75-1.484-1.437-1.5-1.437-4.297zm1.938 0q0 2.125.922 3.188.922 1.047 2.328 1.047 1.406 0 2.328-1.062.922-1.062.922-3.234 0-2.047-.937-3.11-.922-1.062-2.312-1.062-1.406 0-2.328 1.063-.922 1.047-.922 3.172zm10.612 5.53V137.07h1.688v1.672q.64-1.172 1.188-1.547.547-.375 1.203-.375.953 0 1.922.61l-.64 1.734q-.687-.406-1.375-.406-.61 0-1.11.375-.484.36-.687 1.016-.312 1-.312 2.188v5.797zm7.04 4.266l-.22-1.766q.625.172 1.078.172.625 0 1-.22.375-.203.61-.578.188-.28.578-1.39.047-.156.172-.47l-4.203-11.078h2.016l2.313 6.406q.438 1.22.797 2.563.328-1.297.766-2.516l2.375-6.453h1.875l-4.22 11.25q-.672 1.828-1.047 2.516-.5.922-1.156 1.344-.64.438-1.53.438-.547 0-1.203-.22zm23.887-8.312l1.844.234q-.297 1.906-1.547 2.984-1.25 1.078-3.062 1.078-2.266 0-3.656-1.484-1.375-1.484-1.375-4.25 0-1.797.594-3.14.594-1.344 1.813-2.016 1.22-.672 2.64-.672 1.797 0 2.938.922 1.156.906 1.484 2.578l-1.828.28q-.266-1.11-.922-1.672-.656-.562-1.594-.562-1.422 0-2.312 1.016-.875 1.016-.875 3.203 0 2.234.844 3.25.86 1 2.234 1 1.11 0 1.844-.672.734-.672.938-2.078zm3.445 4.047v-15.266h1.875v5.47q1.313-1.516 3.313-1.516 1.234 0 2.14.484.906.484 1.297 1.344.39.844.39 2.47v7.016h-1.875v-7.016q0-1.406-.61-2.047-.61-.64-1.734-.64-.828 0-1.562.438-.734.438-1.047 1.172-.312.734-.312 2.047v6.047zm19.112 0v-1.625q-1.297 1.875-3.516 1.875-.97 0-1.828-.375-.844-.375-1.266-.937-.406-.578-.562-1.39-.125-.562-.125-1.75v-6.86h1.875v6.14q0 1.47.125 1.97.172.75.734 1.172.578.422 1.422.422.844 0 1.578-.437.75-.437 1.047-1.172.313-.75.313-2.172v-5.922h1.875v11.063zm4.612 0V137.07h1.688v1.578q1.22-1.828 3.516-1.828 1 0 1.844.36.844.36 1.25.953.422.578.594 1.375.094.516.094 1.828v6.797h-1.875V141.4q0-1.14-.22-1.703-.22-.578-.78-.906-.547-.344-1.297-.344-1.203 0-2.078.766-.86.75-.86 2.875v6.047zm11.877 0v-15.266h1.875v8.703l4.438-4.5h2.422l-4.234 4.11 4.656 6.953H577l-3.656-5.656-1.312 1.266v4.39zm9.898-3.297l1.86-.297q.156 1.11.86 1.703.72.594 2 .594 1.297 0 1.922-.516.625-.53.625-1.234 0-.64-.562-1-.375-.25-1.906-.64-2.062-.516-2.86-.89-.797-.39-1.22-1.062-.406-.672-.406-1.484 0-.734.328-1.36.344-.64.938-1.062.438-.312 1.188-.53.75-.234 1.625-.234 1.297 0 2.28.375.984.375 1.453 1.016.47.64.64 1.72l-1.828.25q-.125-.86-.734-1.328-.594-.484-1.687-.484-1.28 0-1.844.422-.547.422-.547 1 0 .36.234.656.22.297.72.5.28.11 1.656.484 1.984.53 2.766.875.797.328 1.234.984.453.64.453 1.594 0 .938-.547 1.766-.547.828-1.578 1.28-1.03.453-2.328.453-2.156 0-3.297-.89-1.125-.906-1.437-2.656z" class="H"/><path d="M423.966 254.66h72v40.724h-72z" class="B C D"/><path d="M439.857 284.14v-3.656h-6.625v-1.72l6.97-9.89h1.53v9.89h2.063v1.72h-2.062v3.656zm0-5.375v-6.875l-4.78 6.875zm13.768-.61v-1.797l6.453-.016v5.672q-1.484 1.188-3.062 1.797-1.578.594-3.25.594-2.25 0-4.094-.97-1.828-.97-2.766-2.78-.937-1.828-.937-4.078 0-2.234.922-4.156.938-1.937 2.688-2.875 1.75-.937 4.03-.937 1.656 0 2.984.547 1.344.53 2.094 1.5.766.953 1.172 2.484l-1.828.5q-.344-1.156-.86-1.828-.5-.672-1.453-1.062-.937-.406-2.094-.406-1.39 0-2.406.422-1 .422-1.625 1.11-.625.688-.97 1.516-.578 1.406-.578 3.063 0 2.047.703 3.422.703 1.375 2.047 2.047 1.344.656 2.86.656 1.313 0 2.547-.5 1.25-.516 1.906-1.078v-2.844zm9.355 5.984v-15.266h5.734q1.75 0 2.797.47 1.063.453 1.656 1.422.594.97.594 2.016 0 .97-.53 1.844-.53.86-1.594 1.39 1.375.406 2.125 1.39.75.97.75 2.313 0 1.063-.453 1.984-.453.922-1.125 1.422-.672.5-1.672.766-1 .25-2.453.25zm2.016-8.86h3.313q1.344 0 1.922-.172.766-.234 1.156-.766.39-.53.39-1.328 0-.75-.36-1.328-.36-.578-1.047-.797-.672-.22-2.312-.22h-3.062zm0 7.063h3.813q.97 0 1.375-.078.688-.125 1.156-.406.47-.297.766-.86.313-.562.313-1.28 0-.86-.437-1.484-.437-.64-1.22-.89-.766-.25-2.234-.25h-3.53z" class="H"/><path d="M487.966 198.66h24v40h-24z" class="B J"/><path d="M487.966 198.66h24v40h-24z" class="E F"/><defs ><path id="B" d="M783.966 246.66c0 2.21-.298 4-.667 4H456.633c-.368 0-.667 1.79-.667 4h0c0-2.21-.298-4-.667-4H128.633c-.368 0-.667-1.79-.667-4"/></defs></svg>