<svg version="1.1" xmlns="http://www.w3.org/2000/svg" xmlns:xlink="http://www.w3.org/1999/xlink" width="832" height="232"><defs xmlns="http://www.w3.org/2000/svg"><style type="text/css">@import url('http://fonts.googleapis.com/css?family=Lobster|Fontdiner+Swanky|Crafty+Girls|Pacifico|Satisfy|Gloria+Hallelujah|Bangers|Audiowide|Sacramento');</style></defs><g><path fill="none" stroke="black" paint-order="fill stroke markers" d=" M 37.5 7.5 C 98.61663791257376 7.033665867775908 124.81013762932385 12.16388207863579 202.5 7.5" stroke-miterlimit="10" stroke-width="3" stroke-dasharray=""></path><path fill="none" stroke="black" paint-order="fill stroke markers" d=" M 37.5 7.5 C 40.591586218824446 81.58085698865688 33.11142325224862 66.9700985815372 37.5 97.5" stroke-miterlimit="10" stroke-width="3" stroke-dasharray=""></path><path fill="none" stroke="black" paint-order="fill stroke markers" d=" M 202.5 7.5 C 208.09715857109455 59.26283999173383 200.1717652715212 15.402079653330741 202.5 97.5" stroke-miterlimit="10" stroke-width="3" stroke-dasharray=""></path><path fill="none" stroke="black" paint-order="fill stroke markers" d=" M 577.5 7.5 C 578.5600301889087 3.5876209187282466 642.9284793330025 11.752591061305282 817.5 7.5" stroke-miterlimit="10" stroke-width="3" stroke-dasharray=""></path><path fill="none" stroke="black" paint-order="fill stroke markers" d=" M 577.5 7.5 C 579.4909335415913 8.447864077000986 577.101909927514 32.20133078816018 577.5 37.5" stroke-miterlimit="10" stroke-width="3" stroke-dasharray=""></path><path fill="none" stroke="black" paint-order="fill stroke markers" d=" M 817.5 7.5 C 818.0708072288378 25.666068952569113 815.3225858670492 15.784459501011401 817.5 37.5" stroke-miterlimit="10" stroke-width="3" stroke-dasharray=""></path><path fill="none" stroke="black" paint-order="fill stroke markers" d=" M 172.5 22.5 C 220.00263587221895 21.567931530004092 455.22523550901207 33.899292035287026 577.5 22.5" stroke-miterlimit="10" stroke-width="3" stroke-dasharray=""></path><path fill="black" stroke="none" paint-order="stroke fill markers" d=" M 177.39753144481836 22.741643240263958 A 5 5 0 1 0 177.39752894481856 22.746643239430625 Z"></path><path fill="black" stroke="none" paint-order="stroke fill markers" d=" M 177.48049701894703 22.33919537814097 A 5 5 0 1 0 177.48049451894724 22.34419537730764 Z"></path><path fill="black" stroke="none" paint-order="stroke fill markers" d=" M 178.03857059965148 22.266156626472775 A 5 5 0 1 0 178.03856809965168 22.271156625639442 Z"></path><path fill="none" stroke="black" paint-order="fill stroke markers" d=" M 559.9483487621925 12.911489227915938 C 572.9544391493607 19.167986915639577 560.2683711727428 15.56686723679752 577.5 22.5" stroke-miterlimit="10" stroke-width="3" stroke-dasharray=""></path><path fill="none" stroke="black" paint-order="fill stroke markers" d=" M 559.9483487621925 32.08851077208406 C 569.9441378081008 24.931445762316173 565.3467754440398 29.801203837121125 577.5 22.5" stroke-miterlimit="10" stroke-width="3" stroke-dasharray=""></path><path fill="none" stroke="black" paint-order="fill stroke markers" d=" M 37.5 37.5 C 198.87033596331443 32.3107281779781 47.04821612573806 44.82595423029747 202.5 37.5" stroke-miterlimit="10" stroke-width="3" stroke-dasharray=""></path><path fill="none" stroke="black" paint-order="fill stroke markers" d=" M 577.5 37.5 C 747.4806507761313 36.652913117529124 693.572871702027 40.80007482150298 817.5 37.5" stroke-miterlimit="10" stroke-width="3" stroke-dasharray=""></path><path fill="none" stroke="black" paint-order="fill stroke markers" d=" M 172.5 52.5 C 235.98632037110005 47.37675745297927 188.69929569592605 56.73408262813532 262.5 52.5" stroke-miterlimit="10" stroke-width="3" stroke-dasharray=""></path><path fill="black" stroke="none" paint-order="stroke fill markers" d=" M 176.54881391116348 52.02733920340761 A 5 5 0 1 0 176.54881141116368 52.03233920257428 Z"></path><path fill="black" stroke="none" paint-order="stroke fill markers" d=" M 178.36205474575303 51.74651329465995 A 5 5 0 1 0 178.36205224575323 51.75151329382662 Z"></path><path fill="black" stroke="none" paint-order="stroke fill markers" d=" M 177.5327619220316 52.5089006671908 A 5 5 0 1 0 177.5327594220318 52.51390066635747 Z"></path><path fill="none" stroke="black" paint-order="fill stroke markers" d=" M 262.5 52.5 C 265.0716821713235 65.73697135645828 260.84035387591507 53.78413074372215 262.5 82.5" stroke-miterlimit="10" stroke-width="3" stroke-dasharray=""></path><path fill="none" stroke="black" paint-order="fill stroke markers" d=" M 37.5 67.5 C 191.67379443407165 65.87586658014689 63.059293829451455 75.46462662631629 202.5 67.5" stroke-miterlimit="10" stroke-width="3" stroke-dasharray=""></path><path fill="none" stroke="black" paint-order="fill stroke markers" d=" M 307.5 67.5 C 436.2598712820102 60.958870205361706 349.0620849246743 73.78403750413959 472.5 67.5" stroke-miterlimit="10" stroke-width="3" stroke-dasharray=""></path><path fill="none" stroke="black" paint-order="fill stroke markers" d=" M 307.5 67.5 C 308.46351442041754 97.71815994986967 302.9964578610281 112.48479737488503 307.5 127.5" stroke-miterlimit="10" stroke-width="3" stroke-dasharray=""></path><path fill="none" stroke="black" paint-order="fill stroke markers" d=" M 472.5 67.5 C 473.1194747498383 89.20639995799813 469.7349284579685 104.28321448657556 472.5 127.5" stroke-miterlimit="10" stroke-width="3" stroke-dasharray=""></path><path fill="none" stroke="black" paint-order="fill stroke markers" d=" M 577.5 67.5 C 767.4906739282964 62.64496929553645 661.4004737257314 70.60479874124894 817.5 67.5" stroke-miterlimit="10" stroke-width="3" stroke-dasharray=""></path><path fill="none" stroke="black" paint-order="fill stroke markers" d=" M 577.5 67.5 C 580.4317302459822 68.769240059825 575.1215062364871 77.96562596366688 577.5 97.5" stroke-miterlimit="10" stroke-width="3" stroke-dasharray=""></path><path fill="none" stroke="black" paint-order="fill stroke markers" d=" M 817.5 67.5 C 820.7574909228052 96.1713467522591 813.883998379293 79.95179135572573 817.5 97.5" stroke-miterlimit="10" stroke-width="3" stroke-dasharray=""></path><path fill="none" stroke="black" paint-order="fill stroke markers" d=" M 172.5 82.5 C 227.31365875072237 80.2720015230451 221.56891657974282 85.78139500145494 232.5 82.5" stroke-miterlimit="10" stroke-width="3" stroke-dasharray=""></path><path fill="black" stroke="none" paint-order="stroke fill markers" d=" M 176.52851767789156 82.7840671589015 A 5 5 0 1 0 176.52851517789176 82.78906715806816 Z"></path><path fill="black" stroke="none" paint-order="stroke fill markers" d=" M 177.9668362403581 82.81336706085672 A 5 5 0 1 0 177.9668337403583 82.81836706002339 Z"></path><path fill="black" stroke="none" paint-order="stroke fill markers" d=" M 178.14720171787002 83.28089489904063 A 5 5 0 1 0 178.14719921787022 83.2858948982073 Z"></path><path fill="none" stroke="black" paint-order="fill stroke markers" d=" M 232.5 82.5 C 233.18931617737834 88.11286831966537 227.71925643507447 98.33928917311532 232.5 172.5" stroke-miterlimit="10" stroke-width="3" stroke-dasharray=""></path><path fill="none" stroke="black" paint-order="fill stroke markers" d=" M 262.5 82.5 C 266.57077683060203 79.79551581183804 266.06404295728976 86.50463458979176 307.5 82.5" stroke-miterlimit="10" stroke-width="3" stroke-dasharray=""></path><path fill="none" stroke="black" paint-order="fill stroke markers" d=" M 289.94834876219255 72.91148922791594 C 291.1554825484097 71.9881723840957 299.1784103552769 78.12035038739224 307.5 82.5" stroke-miterlimit="10" stroke-width="3" stroke-dasharray=""></path><path fill="none" stroke="black" paint-order="fill stroke markers" d=" M 289.94834876219255 92.08851077208406 C 305.2135942270944 82.55412698159621 297.4565078190329 88.21003273816312 307.5 82.5" stroke-miterlimit="10" stroke-width="3" stroke-dasharray=""></path><path fill="none" stroke="black" paint-order="fill stroke markers" d=" M 442.5 82.5 C 474.0320992027408 76.73833327718877 549.868363546954 86.18791917499553 577.5 82.5" stroke-miterlimit="10" stroke-width="3" stroke-dasharray=""></path><path fill="black" stroke="none" paint-order="stroke fill markers" d=" M 447.3319515417852 82.44967828138158 A 5 5 0 1 0 447.33194904178544 82.45467828054825 Z"></path><path fill="black" stroke="none" paint-order="stroke fill markers" d=" M 448.4531547817846 82.11682362620066 A 5 5 0 1 0 448.4531522817848 82.12182362536733 Z"></path><path fill="black" stroke="none" paint-order="stroke fill markers" d=" M 448.3459018102811 82.34368390711856 A 5 5 0 1 0 448.3458993102813 82.34868390628523 Z"></path><path fill="none" stroke="black" paint-order="fill stroke markers" d=" M 559.9483487621925 72.91148922791594 C 570.6726407474671 78.09821053139498 564.8711530874475 77.59135676950913 577.5 82.5" stroke-miterlimit="10" stroke-width="3" stroke-dasharray=""></path><path fill="none" stroke="black" paint-order="fill stroke markers" d=" M 559.9483487621925 92.08851077208406 C 559.251307210072 89.69326255015224 562.7447134150345 93.54536671199776 577.5 82.5" stroke-miterlimit="10" stroke-width="3" stroke-dasharray=""></path><path fill="none" stroke="black" paint-order="fill stroke markers" d=" M 517.5 82.5 C 520.1063805935763 109.37375476393237 516.2442403564577 154.13405017009958 517.5 172.5" stroke-miterlimit="10" stroke-width="3" stroke-dasharray=""></path><path fill="none" stroke="black" paint-order="fill stroke markers" d=" M 37.5 97.5 C 38.80439195643716 90.10104497855788 132.09649973766642 98.62940369392551 202.5 97.5" stroke-miterlimit="10" stroke-width="3" stroke-dasharray=""></path><path fill="none" stroke="black" paint-order="fill stroke markers" d=" M 307.5 97.5 C 355.94560127852685 89.83274641283674 374.95306330774906 102.01525899011169 472.5 97.5" stroke-miterlimit="10" stroke-width="3" stroke-dasharray=""></path><path fill="none" stroke="black" paint-order="fill stroke markers" d=" M 577.5 97.5 C 702.4272222698203 87.85950215974488 763.6699610779846 100.40023559050958 817.5 97.5" stroke-miterlimit="10" stroke-width="3" stroke-dasharray=""></path><path fill="none" stroke="black" paint-order="fill stroke markers" d=" M 307.5 127.5 C 362.7843294081083 126.55747084286521 372.5873585481204 134.44133406771718 472.5 127.5" stroke-miterlimit="10" stroke-width="3" stroke-dasharray=""></path><path fill="none" stroke="black" paint-order="fill stroke markers" d=" M 307.5 157.5 C 339.2990233058526 149.59654562119977 335.486889810349 164.37473227613597 472.5 157.5" stroke-miterlimit="10" stroke-width="3" stroke-dasharray=""></path><path fill="none" stroke="black" paint-order="fill stroke markers" d=" M 307.5 157.5 C 308.85392584623116 169.82146084278256 303.93390128079636 202.50675360860816 307.5 217.5" stroke-miterlimit="10" stroke-width="3" stroke-dasharray=""></path><path fill="none" stroke="black" paint-order="fill stroke markers" d=" M 472.5 157.5 C 473.68213217204095 213.53656849140617 470.4400869168239 207.21163663377692 472.5 217.5" stroke-miterlimit="10" stroke-width="3" stroke-dasharray=""></path><path fill="none" stroke="black" paint-order="fill stroke markers" d=" M 232.5 172.5 C 256.04515537799955 171.95721455673166 275.2894828482327 175.0633457435531 307.5 172.5" stroke-miterlimit="10" stroke-width="3" stroke-dasharray=""></path><path fill="none" stroke="black" paint-order="fill stroke markers" d=" M 289.94834876219255 162.91148922791595 C 304.2812334917724 170.18304040015047 291.584114953481 165.83360191324292 307.5 172.5" stroke-miterlimit="10" stroke-width="3" stroke-dasharray=""></path><path fill="none" stroke="black" paint-order="fill stroke markers" d=" M 289.94834876219255 182.08851077208405 C 291.49444627589304 178.18710048485065 293.30463590076 182.3443356566534 307.5 172.5" stroke-miterlimit="10" stroke-width="3" stroke-dasharray=""></path><path fill="none" stroke="black" paint-order="fill stroke markers" d=" M 442.5 172.5 C 470.17474781669034 170.1169738608444 481.409109953688 177.76212292941096 517.5 172.5" stroke-miterlimit="10" stroke-width="3" stroke-dasharray=""></path><path fill="black" stroke="none" paint-order="stroke fill markers" d=" M 446.82619563604237 172.6631692242268 A 5 5 0 1 0 446.8261931360426 172.66816922339348 Z"></path><path fill="black" stroke="none" paint-order="stroke fill markers" d=" M 447.51753574527083 172.1695714624681 A 5 5 0 1 0 447.51753324527107 172.17457146163477 Z"></path><path fill="black" stroke="none" paint-order="stroke fill markers" d=" M 446.5870132117172 172.57700487161082 A 5 5 0 1 0 446.5870107117174 172.5820048707775 Z"></path><path fill="none" stroke="black" paint-order="fill stroke markers" d=" M 307.5 187.5 C 315.7665254631906 180.0093283987032 340.30316931566165 192.63832237032145 472.5 187.5" stroke-miterlimit="10" stroke-width="3" stroke-dasharray=""></path><path fill="none" stroke="black" paint-order="fill stroke markers" d=" M 307.5 217.5 C 337.609715761961 208.9392480440042 412.25550758449435 225.29035954436398 472.5 217.5" stroke-miterlimit="10" stroke-width="3" stroke-dasharray=""></path><text fill="black" stroke="none" font-family="'Gloria Hallelujah'" font-size="18pt" font-style="normal" font-weight="normal" text-decoration="normal" x="7.5" y="22.5" text-anchor="start" dominant-baseline="central">p:</text><text fill="black" stroke="none" font-family="'Gloria Hallelujah'" font-size="18pt" font-style="normal" font-weight="normal" text-decoration="normal" x="607.5" y="22.5" text-anchor="start" dominant-baseline="central">shape&lt;point&gt;</text><text fill="black" stroke="none" font-family="'Gloria Hallelujah'" font-size="18pt" font-style="normal" font-weight="normal" text-decoration="normal" x="67.5" y="52.5" text-anchor="start" dominant-baseline="central">x:</text><text fill="black" stroke="none" font-family="'Gloria Hallelujah'" font-size="18pt" font-style="normal" font-weight="normal" text-decoration="normal" x="67.5" y="82.5" text-anchor="start" dominant-baseline="central">y:</text><text fill="black" stroke="none" font-family="'Gloria Hallelujah'" font-size="18pt" font-style="normal" font-weight="normal" text-decoration="normal" x="607.5" y="82.5" text-anchor="start" dominant-baseline="central">shape&lt;number&gt;</text><text fill="black" stroke="none" font-family="'Gloria Hallelujah'" font-size="18pt" font-style="normal" font-weight="normal" text-decoration="normal" x="367.5" y="112.5" text-anchor="start" dominant-baseline="central">3.1</text><text fill="black" stroke="none" font-family="'Gloria Hallelujah'" font-size="18pt" font-style="normal" font-weight="normal" text-decoration="normal" x="367.5" y="202.5" text-anchor="start" dominant-baseline="central">5.2</text></g></svg>