<svg version="1.1" xmlns="http://www.w3.org/2000/svg" xmlns:xlink="http://www.w3.org/1999/xlink" width="832" height="262"><defs xmlns="http://www.w3.org/2000/svg"><style type="text/css">@import url('http://fonts.googleapis.com/css?family=Lobster|Fontdiner+Swanky|Crafty+Girls|Pacifico|Satisfy|Gloria+Hallelujah|Bangers|Audiowide|Sacramento');</style></defs><g><path fill="none" stroke="black" paint-order="fill stroke markers" d=" M 37.5 7.5 C 40.392945804738474 1.8237056125778288 136.01740609932523 9.906638951925132 202.5 7.5" stroke-miterlimit="10" stroke-width="3" stroke-dasharray=""></path><path fill="none" stroke="black" paint-order="fill stroke markers" d=" M 37.5 7.5 C 43.050306015559926 16.808970673423367 33.46718039922748 74.63187098150698 37.5 97.5" stroke-miterlimit="10" stroke-width="3" stroke-dasharray=""></path><path fill="none" stroke="black" paint-order="fill stroke markers" d=" M 202.5 7.5 C 207.62115144689182 36.78253482960231 197.95536191947863 38.12794790919344 202.5 97.5" stroke-miterlimit="10" stroke-width="3" stroke-dasharray=""></path><path fill="none" stroke="black" paint-order="fill stroke markers" d=" M 577.5 7.5 C 666.4832253377868 3.182967824990939 779.827887878818 15.048277295199032 817.5 7.5" stroke-miterlimit="10" stroke-width="3" stroke-dasharray=""></path><path fill="none" stroke="black" paint-order="fill stroke markers" d=" M 577.5 7.5 C 577.7588991554647 15.995444996306853 574.8327953205719 29.79591358191115 577.5 37.5" stroke-miterlimit="10" stroke-width="3" stroke-dasharray=""></path><path fill="none" stroke="black" paint-order="fill stroke markers" d=" M 817.5 7.5 C 819.4733687104759 27.50627521023481 814.5801237652867 22.336476205789985 817.5 37.5" stroke-miterlimit="10" stroke-width="3" stroke-dasharray=""></path><path fill="none" stroke="black" paint-order="fill stroke markers" d=" M 172.5 22.5 C 501.8408612613069 21.97145582023634 551.2697960062926 30.235617834697305 577.5 22.5" stroke-miterlimit="10" stroke-width="3" stroke-dasharray=""></path><path fill="black" stroke="none" paint-order="stroke fill markers" d=" M 177.67082096293697 21.87612872420558 A 5 5 0 1 0 177.67081846293718 21.881128723372246 Z"></path><path fill="black" stroke="none" paint-order="stroke fill markers" d=" M 177.00204536852422 21.616667865343423 A 5 5 0 1 0 177.00204286852443 21.62166786451009 Z"></path><path fill="black" stroke="none" paint-order="stroke fill markers" d=" M 177.60636824666523 21.71424260001933 A 5 5 0 1 0 177.60636574666543 21.719242599185996 Z"></path><path fill="none" stroke="black" paint-order="fill stroke markers" d=" M 559.9483487621925 12.911489227915938 C 573.2336148618107 19.3859274215823 571.9666761568461 20.554960614061734 577.5 22.5" stroke-miterlimit="10" stroke-width="3" stroke-dasharray=""></path><path fill="none" stroke="black" paint-order="fill stroke markers" d=" M 559.9483487621925 32.08851077208406 C 571.5602427432212 25.65049760306679 564.2971236504131 30.05059397057727 577.5 22.5" stroke-miterlimit="10" stroke-width="3" stroke-dasharray=""></path><path fill="none" stroke="black" paint-order="fill stroke markers" d=" M 247.5 22.5 C 252.2112111018048 131.26255016524016 242.69432714455377 88.3395555367153 247.5 172.5" stroke-miterlimit="10" stroke-width="3" stroke-dasharray=""></path><path fill="none" stroke="black" paint-order="fill stroke markers" d=" M 37.5 37.5 C 58.573310884543005 34.3864588953341 197.3936576016773 44.53945459923433 202.5 37.5" stroke-miterlimit="10" stroke-width="3" stroke-dasharray=""></path><path fill="none" stroke="black" paint-order="fill stroke markers" d=" M 577.5 37.5 C 661.4364621960563 33.225062797211024 678.3728284799704 46.11745202076955 817.5 37.5" stroke-miterlimit="10" stroke-width="3" stroke-dasharray=""></path><path fill="none" stroke="black" paint-order="fill stroke markers" d=" M 37.5 67.5 C 115.5541303482 64.84999863563856 70.31274641744898 74.15209025220902 202.5 67.5" stroke-miterlimit="10" stroke-width="3" stroke-dasharray=""></path><path fill="none" stroke="black" paint-order="fill stroke markers" d=" M 322.5 67.5 C 382.4906161146436 66.52544981599011 327.7927679270656 72.47611386003548 487.5 67.5" stroke-miterlimit="10" stroke-width="3" stroke-dasharray=""></path><path fill="none" stroke="black" paint-order="fill stroke markers" d=" M 322.5 67.5 C 325.3096859947134 77.80626749911704 321.54561249639124 96.46706176972614 322.5 127.5" stroke-miterlimit="10" stroke-width="3" stroke-dasharray=""></path><path fill="none" stroke="black" paint-order="fill stroke markers" d=" M 487.5 67.5 C 488.4990087897919 118.19870342371314 486.4295272844954 75.22374518090459 487.5 127.5" stroke-miterlimit="10" stroke-width="3" stroke-dasharray=""></path><path fill="none" stroke="black" paint-order="fill stroke markers" d=" M 577.5 67.5 C 736.9302086451252 57.21894817992762 814.6058575772788 74.50763502483578 817.5 67.5" stroke-miterlimit="10" stroke-width="3" stroke-dasharray=""></path><path fill="none" stroke="black" paint-order="fill stroke markers" d=" M 577.5 67.5 C 580.0021891928702 92.05454174789335 574.36212870389 95.87829192276475 577.5 97.5" stroke-miterlimit="10" stroke-width="3" stroke-dasharray=""></path><path fill="none" stroke="black" paint-order="fill stroke markers" d=" M 817.5 67.5 C 819.6449941135187 80.82568652675855 815.5357089776168 69.40686724227417 817.5 97.5" stroke-miterlimit="10" stroke-width="3" stroke-dasharray=""></path><path fill="none" stroke="black" paint-order="fill stroke markers" d=" M 172.5 82.5 C 215.52893870281738 78.3574421592602 175.69801712925997 86.12739788764975 232.5 82.5" stroke-miterlimit="10" stroke-width="3" stroke-dasharray=""></path><path fill="black" stroke="none" paint-order="stroke fill markers" d=" M 177.95320266908982 81.79643825825943 A 5 5 0 1 0 177.95320016909002 81.8014382574261 Z"></path><path fill="black" stroke="none" paint-order="stroke fill markers" d=" M 176.91249601100526 82.69851005853646 A 5 5 0 1 0 176.91249351100547 82.70351005770313 Z"></path><path fill="black" stroke="none" paint-order="stroke fill markers" d=" M 176.83543456280222 82.38396328933115 A 5 5 0 1 0 176.83543206280243 82.38896328849782 Z"></path><path fill="none" stroke="black" paint-order="fill stroke markers" d=" M 262.5 82.5 C 269.83854723691195 79.36294490413373 269.22206960899706 83.43992645253017 322.5 82.5" stroke-miterlimit="10" stroke-width="3" stroke-dasharray=""></path><path fill="none" stroke="black" paint-order="fill stroke markers" d=" M 304.94834876219255 72.91148922791594 C 311.62839657703535 74.43343667003803 315.53570154323313 79.76369971341225 322.5 82.5" stroke-miterlimit="10" stroke-width="3" stroke-dasharray=""></path><path fill="none" stroke="black" paint-order="fill stroke markers" d=" M 304.94834876219255 92.08851077208406 C 310.72600868752943 85.73899357678212 314.7237974283647 89.4079058549751 322.5 82.5" stroke-miterlimit="10" stroke-width="3" stroke-dasharray=""></path><path fill="none" stroke="black" paint-order="fill stroke markers" d=" M 457.5 82.5 C 519.6947441443385 81.66105599112454 556.598505359796 86.96966438258426 577.5 82.5" stroke-miterlimit="10" stroke-width="3" stroke-dasharray=""></path><path fill="black" stroke="none" paint-order="stroke fill markers" d=" M 463.21184357521685 82.36946681977636 A 5 5 0 1 0 463.2118410752171 82.37446681894303 Z"></path><path fill="black" stroke="none" paint-order="stroke fill markers" d=" M 462.84219315611574 82.01801193392056 A 5 5 0 1 0 462.842190656116 82.02301193308723 Z"></path><path fill="black" stroke="none" paint-order="stroke fill markers" d=" M 463.416526582856 82.98892165118808 A 5 5 0 1 0 463.41652408285626 82.99392165035475 Z"></path><path fill="none" stroke="black" paint-order="fill stroke markers" d=" M 559.9483487621925 72.91148922791594 C 569.4111296975913 76.91648007424833 567.2713369063014 79.79013205108524 577.5 82.5" stroke-miterlimit="10" stroke-width="3" stroke-dasharray=""></path><path fill="none" stroke="black" paint-order="fill stroke markers" d=" M 559.9483487621925 92.08851077208406 C 574.7832209395818 83.55799980636199 564.80377928778 92.47075082051045 577.5 82.5" stroke-miterlimit="10" stroke-width="3" stroke-dasharray=""></path><path fill="none" stroke="black" paint-order="fill stroke markers" d=" M 37.5 97.5 C 46.70728454894063 94.78613833503888 109.33454049794915 105.47143347277212 202.5 97.5" stroke-miterlimit="10" stroke-width="3" stroke-dasharray=""></path><path fill="none" stroke="black" paint-order="fill stroke markers" d=" M 322.5 97.5 C 417.5452904017436 89.19883771468815 393.39336404933874 98.89897100176367 487.5 97.5" stroke-miterlimit="10" stroke-width="3" stroke-dasharray=""></path><path fill="none" stroke="black" paint-order="fill stroke markers" d=" M 577.5 97.5 C 623.9787734015549 91.83758257779984 787.6906291163584 98.99055563875518 817.5 97.5" stroke-miterlimit="10" stroke-width="3" stroke-dasharray=""></path><path fill="none" stroke="black" paint-order="fill stroke markers" d=" M 322.5 127.5 C 445.91963235833305 119.40917420366134 444.81930013621246 132.78648138395883 487.5 127.5" stroke-miterlimit="10" stroke-width="3" stroke-dasharray=""></path><path fill="none" stroke="black" paint-order="fill stroke markers" d=" M 37.5 157.5 C 79.22055787662748 153.73228076490201 112.86237237558417 157.84901143741808 202.5 157.5" stroke-miterlimit="10" stroke-width="3" stroke-dasharray=""></path><path fill="none" stroke="black" paint-order="fill stroke markers" d=" M 37.5 157.5 C 38.830609546800346 162.22936178427162 36.24866032570027 166.74484614307013 37.5 247.5" stroke-miterlimit="10" stroke-width="3" stroke-dasharray=""></path><path fill="none" stroke="black" paint-order="fill stroke markers" d=" M 202.5 157.5 C 208.80101334378688 174.95875826790302 198.13365252898046 176.6092930734339 202.5 247.5" stroke-miterlimit="10" stroke-width="3" stroke-dasharray=""></path><path fill="none" stroke="black" paint-order="fill stroke markers" d=" M 322.5 157.5 C 329.49917253759753 151.8110363794491 336.69044031011845 160.12615940149732 487.5 157.5" stroke-miterlimit="10" stroke-width="3" stroke-dasharray=""></path><path fill="none" stroke="black" paint-order="fill stroke markers" d=" M 322.5 157.5 C 323.26757427992754 182.85251522617972 319.6591560348222 215.94681400694014 322.5 217.5" stroke-miterlimit="10" stroke-width="3" stroke-dasharray=""></path><path fill="none" stroke="black" paint-order="fill stroke markers" d=" M 487.5 157.5 C 491.75883930745164 184.81821204553478 484.6132788096548 168.23955655671932 487.5 217.5" stroke-miterlimit="10" stroke-width="3" stroke-dasharray=""></path><path fill="none" stroke="black" paint-order="fill stroke markers" d=" M 577.5 157.5 C 676.7459738891926 156.4971599113211 624.852585673878 163.5787663465105 817.5 157.5" stroke-miterlimit="10" stroke-width="3" stroke-dasharray=""></path><path fill="none" stroke="black" paint-order="fill stroke markers" d=" M 577.5 157.5 C 578.7413081186249 179.7422189787083 574.721670043311 166.59444237566922 577.5 187.5" stroke-miterlimit="10" stroke-width="3" stroke-dasharray=""></path><path fill="none" stroke="black" paint-order="fill stroke markers" d=" M 817.5 157.5 C 820.6384015869847 178.82184192868033 816.9423370803975 177.72041866154848 817.5 187.5" stroke-miterlimit="10" stroke-width="3" stroke-dasharray=""></path><path fill="none" stroke="black" paint-order="fill stroke markers" d=" M 172.5 172.5 C 189.10043982714814 169.88667734032134 219.43581236701485 177.28817185651195 247.5 172.5" stroke-miterlimit="10" stroke-width="3" stroke-dasharray=""></path><path fill="black" stroke="none" paint-order="stroke fill markers" d=" M 177.161733332916 172.2797633741726 A 5 5 0 1 0 177.1617308329162 172.28476337333927 Z"></path><path fill="black" stroke="none" paint-order="stroke fill markers" d=" M 177.11579691775322 171.83296204313118 A 5 5 0 1 0 177.11579441775342 171.83796204229785 Z"></path><path fill="black" stroke="none" paint-order="stroke fill markers" d=" M 177.05630019630195 173.17792933752955 A 5 5 0 1 0 177.05629769630215 173.18292933669622 Z"></path><path fill="none" stroke="black" paint-order="fill stroke markers" d=" M 277.5 172.5 C 297.5792574930192 170.23734948170372 311.66673696531586 176.52278265347766 322.5 172.5" stroke-miterlimit="10" stroke-width="3" stroke-dasharray=""></path><path fill="none" stroke="black" paint-order="fill stroke markers" d=" M 304.94834876219255 162.91148922791595 C 306.0087717758922 163.01804989762812 305.53478256602205 165.7063959275229 322.5 172.5" stroke-miterlimit="10" stroke-width="3" stroke-dasharray=""></path><path fill="none" stroke="black" paint-order="fill stroke markers" d=" M 304.94834876219255 182.08851077208405 C 312.08938852599766 176.01770102945252 312.5353525757967 179.35572073341507 322.5 172.5" stroke-miterlimit="10" stroke-width="3" stroke-dasharray=""></path><path fill="none" stroke="black" paint-order="fill stroke markers" d=" M 277.5 172.5 C 279.15324642238556 179.4879758207243 274.7327588008891 191.56821836514982 277.5 232.5" stroke-miterlimit="10" stroke-width="3" stroke-dasharray=""></path><path fill="none" stroke="black" paint-order="fill stroke markers" d=" M 457.5 172.5 C 515.2631326695895 166.35912348372074 482.93165827146095 175.02728061569127 577.5 172.5" stroke-miterlimit="10" stroke-width="3" stroke-dasharray=""></path><path fill="black" stroke="none" paint-order="stroke fill markers" d=" M 462.17854591557557 172.40741097407266 A 5 5 0 1 0 462.1785434155758 172.41241097323933 Z"></path><path fill="black" stroke="none" paint-order="stroke fill markers" d=" M 462.8143550257674 172.41227308742214 A 5 5 0 1 0 462.8143525257676 172.4172730865888 Z"></path><path fill="black" stroke="none" paint-order="stroke fill markers" d=" M 462.4268929160811 172.92884271267894 A 5 5 0 1 0 462.42689041608133 172.9338427118456 Z"></path><path fill="none" stroke="black" paint-order="fill stroke markers" d=" M 559.9483487621925 162.91148922791595 C 566.6584253252805 164.01415047625323 571.2314394072766 169.84121352689405 577.5 172.5" stroke-miterlimit="10" stroke-width="3" stroke-dasharray=""></path><path fill="none" stroke="black" paint-order="fill stroke markers" d=" M 559.9483487621925 182.08851077208405 C 562.6820097904288 179.82186095264612 572.9347025969116 177.88542494791068 577.5 172.5" stroke-miterlimit="10" stroke-width="3" stroke-dasharray=""></path><path fill="none" stroke="black" paint-order="fill stroke markers" d=" M 37.5 187.5 C 141.84683712754918 179.53351502633168 48.48109515992412 194.00937733230052 202.5 187.5" stroke-miterlimit="10" stroke-width="3" stroke-dasharray=""></path><path fill="none" stroke="black" paint-order="fill stroke markers" d=" M 322.5 187.5 C 410.6667263520172 181.0967106524133 411.01273545107153 194.51883801434155 487.5 187.5" stroke-miterlimit="10" stroke-width="3" stroke-dasharray=""></path><path fill="none" stroke="black" paint-order="fill stroke markers" d=" M 577.5 187.5 C 747.248264068515 178.3167343258827 741.8370092883758 189.64848686918293 817.5 187.5" stroke-miterlimit="10" stroke-width="3" stroke-dasharray=""></path><path fill="none" stroke="black" paint-order="fill stroke markers" d=" M 37.5 217.5 C 67.4756002530866 216.8035147174653 172.37201518069003 220.07051361255319 202.5 217.5" stroke-miterlimit="10" stroke-width="3" stroke-dasharray=""></path><path fill="none" stroke="black" paint-order="fill stroke markers" d=" M 322.5 217.5 C 475.7344665665081 208.93722816324836 327.50008671447773 224.72660619906404 487.5 217.5" stroke-miterlimit="10" stroke-width="3" stroke-dasharray=""></path><path fill="none" stroke="black" paint-order="fill stroke markers" d=" M 172.5 232.5 C 172.748263616986 228.82463931272005 197.59335508676472 232.5062930917715 277.5 232.5" stroke-miterlimit="10" stroke-width="3" stroke-dasharray=""></path><path fill="black" stroke="none" paint-order="stroke fill markers" d=" M 178.00056148294615 232.07302653556897 A 5 5 0 1 0 178.00055898294636 232.07802653473564 Z"></path><path fill="black" stroke="none" paint-order="stroke fill markers" d=" M 176.60249579356005 233.43741505195587 A 5 5 0 1 0 176.60249329356026 233.44241505112254 Z"></path><path fill="black" stroke="none" paint-order="stroke fill markers" d=" M 177.71125111161965 232.36659312444593 A 5 5 0 1 0 177.71124861161985 232.3715931236126 Z"></path><path fill="none" stroke="black" paint-order="fill stroke markers" d=" M 37.5 247.5 C 107.43975625859001 240.07891320105628 148.49813727993973 254.63178838297543 202.5 247.5" stroke-miterlimit="10" stroke-width="3" stroke-dasharray=""></path><text fill="black" stroke="none" font-family="'Gloria Hallelujah'" font-size="18pt" font-style="normal" font-weight="normal" text-decoration="normal" x="7.5" y="22.5" text-anchor="start" dominant-baseline="central">p:</text><text fill="black" stroke="none" font-family="'Gloria Hallelujah'" font-size="18pt" font-style="normal" font-weight="normal" text-decoration="normal" x="607.5" y="22.5" text-anchor="start" dominant-baseline="central">shape&lt;point&gt;</text><text fill="black" stroke="none" font-family="'Gloria Hallelujah'" font-size="18pt" font-style="normal" font-weight="normal" text-decoration="normal" x="67.5" y="52.5" text-anchor="start" dominant-baseline="central">x: 3.1</text><text fill="black" stroke="none" font-family="'Gloria Hallelujah'" font-size="18pt" font-style="normal" font-weight="normal" text-decoration="normal" x="67.5" y="82.5" text-anchor="start" dominant-baseline="central">y:</text><text fill="black" stroke="none" font-family="'Gloria Hallelujah'" font-size="18pt" font-style="normal" font-weight="normal" text-decoration="normal" x="607.5" y="82.5" text-anchor="start" dominant-baseline="central">shape&lt;number&gt;</text><text fill="black" stroke="none" font-family="'Gloria Hallelujah'" font-size="18pt" font-style="normal" font-weight="normal" text-decoration="normal" x="352.5" y="112.5" text-anchor="start" dominant-baseline="central">y: 5.2</text><text fill="black" stroke="none" font-family="'Gloria Hallelujah'" font-size="18pt" font-style="normal" font-weight="normal" text-decoration="normal" x="7.5" y="172.5" text-anchor="start" dominant-baseline="central">q:</text><text fill="black" stroke="none" font-family="'Gloria Hallelujah'" font-size="18pt" font-style="normal" font-weight="normal" text-decoration="normal" x="607.5" y="172.5" text-anchor="start" dominant-baseline="central">shape&lt;number&gt;</text><text fill="black" stroke="none" font-family="'Gloria Hallelujah'" font-size="18pt" font-style="normal" font-weight="normal" text-decoration="normal" x="67.5" y="202.5" text-anchor="start" dominant-baseline="central">x: 2.0</text><text fill="black" stroke="none" font-family="'Gloria Hallelujah'" font-size="18pt" font-style="normal" font-weight="normal" text-decoration="normal" x="352.5" y="202.5" text-anchor="start" dominant-baseline="central">['a','b']</text><text fill="black" stroke="none" font-family="'Gloria Hallelujah'" font-size="18pt" font-style="normal" font-weight="normal" text-decoration="normal" x="67.5" y="232.5" text-anchor="start" dominant-baseline="central">y:</text></g></svg>