<svg xmlns="http://www.w3.org/2000/svg" fill="none" stroke="none" stroke-linecap="square" stroke-miterlimit="10" width="845" height="522"><style><![CDATA[.B{clip-path:url(#A)}.C{fill:#6d9eeb}.D{fill:#1c4587}]]></style><path fill="#fff" d="M0 0h845v522H0V0z"/><g stroke-linecap="butt"><path stroke="#333" d="M147.5 415.5h671"/><path d="M147.5 290.5h671m-671-125h671m-671-125h671" stroke="#ccc"/></g><clipPath id="A"><path d="M147.1 40.6h671.8v374.9H147.1V40.6z"/></clipPath><path d="M250 416h-49V211a2 2 0 0 1 2-2h45a2 2 0 0 1 2 2z" class="B"/><path d="M250 416h-49V211a2 2 0 0 1 2-2h45a2 2 0 0 1 2 2z" class="B C"/><path d="M405 416h-49V243a2 2 0 0 1 2-2h45a2 2 0 0 1 2 2z" class="B"/><path d="M405 416h-49V243a2 2 0 0 1 2-2h45a2 2 0 0 1 2 2z" class="B C"/><path d="M559 416h-49V280a2 2 0 0 1 2-2h45a2 2 0 0 1 2 2z" class="B"/><path d="M559 416h-49V280a2 2 0 0 1 2-2h45a2 2 0 0 1 2 2z" class="B C"/><path d="M714 416h-49V293a2 2 0 0 1 2-2h45a2 2 0 0 1 2 2z" class="B"/><path d="M714 416h-49V293a2 2 0 0 1 2-2h45a2 2 0 0 1 2 2z" class="B C"/><path d="M300 416h-49V105a2 2 0 0 1 2-2h45a2 2 0 0 1 2 2z" class="B"/><path d="M300 416h-49V105a2 2 0 0 1 2-2h45a2 2 0 0 1 2 2z" class="B D"/><path d="M455 416h-49V61a2 2 0 0 1 2-2h45a2 2 0 0 1 2 2z" class="B"/><path d="M455 416h-49V61a2 2 0 0 1 2-2h45a2 2 0 0 1 2 2z" class="B D"/><path d="M609 416h-49V74a2 2 0 0 1 2-2h45a2 2 0 0 1 2 2z" class="B"/><path d="M609 416h-49V74a2 2 0 0 1 2-2h45a2 2 0 0 1 2 2z" class="B D"/><path d="M764 416h-49V168a2 2 0 0 1 2-2h45a2 2 0 0 1 2 2z" class="B"/><path d="M764 416h-49V168a2 2 0 0 1 2-2h45a2 2 0 0 1 2 2z" class="B D"/><g fill="#999"><path d="M31.772 405.644q.047-1.422 1.047-2.25.984-.844 2.5-.75l.906.078q1.563.172 2.563 1.234 1 1.063.953 2.516-.03 1.422-1.03 2.28-1.016.86-2.484.766l-.75-.078q-1.687-.156-2.703-1.22-1.016-1.078-1-2.578zm4.47 2.28q.953.063 1.516-.344.547-.406.578-1.156.016-.797-.578-1.375-.594-.594-1.53-.734l-.922-.094q-.9-.094-1.484.297-.594.4-.625 1.172-.016.813.578 1.406.594.594 1.547.734l.922.094zm5.14-8.672q.047-1.453 1.063-2.28 1-.828 2.47-.734l.78.063q1.656.156 2.688 1.22 1.03 1.063.984 2.563-.03 1.406-1.03 2.266-1 .86-2.5.766l-.797-.062q-1.64-.156-2.656-1.203-1.016-1.047-1-2.594zm4.47 2.28q.938.063 1.516-.328.563-.406.578-1.172.03-.828-.562-1.406-.6-.578-1.547-.703l-.937-.1q-.875-.078-1.47.313-.594.375-.625 1.172-.016.828.578 1.422.594.578 1.53.703l.938.1zm1.938 6.047l-.844 1.156-13.22-10.328.828-1.156 13.234 10.328zm-11.6-26.187q.03-1.594.875-2.734.844-1.14 2.328-1.672 1.484-.547 3.234-.375l.266.016q1.844.234 3.344 1.1 1.484.875 2.328 2.28.828 1.4.78 3.047-.016 1.578-.86 2.734-.86 1.14-2.312 1.672-1.453.516-3.187.36-1.97-.172-3.53-1.062-1.578-.9-2.437-2.28-.875-1.406-.828-3.094zm6.797 4.313q.75.078 1.547 0 1.375-.125 2.203-.828.813-.703.844-1.9.047-1.062-.516-1.953-.562-.9-1.687-1.5-1.125-.6-2.484-.78-1.078-.094-1.828-.03-1.406.14-2.22.86-.828.703-.875 1.9-.047 1.64 1.28 2.797 1.328 1.14 3.47 1.406l.266.03zM49.1 374.4l-11-1.922v1.953l-1.687-.297v-1.937l-1.5-.22q-1.906-.297-2.984-1.47-1.125-1.234-1.094-3.14 0-.6.188-1.516l1.78.25q-.125.563-.14 1.14 0 1.1.688 1.797.672.672 1.813.844l1.25.188v-2.625l1.688.297v2.625l11 1.906v2.125zm-10.75-20.86l-.1 1q0 2.03 1.844 3.203l9.016 1.563v2.125l-12.687-2.203v-2.062l1.47.328q-1.766-1.36-1.72-3.187 0-.375.172-1l2.016.234zm10.984-5.594q-.047 2.36-1.75 3.703-1.703 1.328-4.344 1.125l-.5-.062q-1.9-.203-3.453-1.125-1.562-.922-2.344-2.234-.797-1.328-.766-2.86.047-1.97 1.313-3.078 1.25-1.1 3.4-1.22.766-.03 1.53.047l.97.125v8.297q1.72.203 2.938-.578 1.203-.78 1.25-2.328.047-1.875-1.687-3.47l1.03-1.22q1.14.797 1.797 2.063.656 1.266.625 2.813zm-11.375-1.36q-.047 1.313.9 2.297.922.984 2.75 1.547l.016-6.156-.187-.047q-1.484-.187-2.453.484-.984.656-1.016 1.875zm-1.547-9.375l1.594.313q-1.875-1.72-1.828-3.9.047-1.797 1.25-2.64 1.188-.86 3.36-.64l8.313 1.375v2.125l-8.344-1.4q-.578-.078-1.062-.016-1.64.203-1.687 1.938-.03 1.906 2.047 3.344l9.047 1.578v2.125l-12.687-2.203v-2.016zm6.328-9.4q-1.937-.234-3.5-1.062-1.562-.844-2.328-2.062-.78-1.22-.734-2.687.047-2.1 1.547-3.25l-6.625-1.22v-2.125l18 3.125v1.922l-1.36-.22q1.64 1.5 1.594 3.703-.047 1.766-1.375 2.813-1.328 1.03-3.578 1.1-.687.047-1.64-.047zm1.22-2.047q1.672.03 2.594-.594.922-.64.953-1.86.078-1.828-1.86-3.266l-5.86-1q-1.734.703-1.78 2.547-.03 1.25.766 2.22.78.953 2.22 1.453 1.422.484 2.97.5zm5.375-15.828q-.047 2.36-1.75 3.703-1.703 1.328-4.344 1.125l-.5-.062q-1.9-.203-3.453-1.125-1.562-.922-2.344-2.234-.797-1.328-.766-2.86.047-1.97 1.313-3.078 1.25-1.1 3.4-1.22.766-.03 1.53.047l.97.125v8.297q1.72.203 2.938-.578 1.203-.78 1.25-2.328.047-1.875-1.687-3.47l1.03-1.22q1.14.797 1.797 2.063.656 1.266.625 2.813zm-11.375-1.36q-.047 1.313.9 2.297.922.984 2.75 1.547l.016-6.156-.187-.047q-1.484-.187-2.453.484-.984.656-1.016 1.875zm.4-13.047l-.1 1q0 2.03 1.844 3.203l9.016 1.563v2.125l-12.687-2.203v-2.062l1.47.328q-1.766-1.36-1.72-3.187 0-.375.172-1l2.016.234zm10.984-5.594q-.047 2.36-1.75 3.703-1.703 1.328-4.344 1.125l-.5-.062q-1.9-.203-3.453-1.125-1.562-.922-2.344-2.234-.797-1.328-.766-2.86.047-1.97 1.313-3.078 1.25-1.1 3.4-1.22.766-.03 1.53.047l.97.125v8.297q1.72.203 2.938-.578 1.203-.78 1.25-2.328.047-1.875-1.687-3.47l1.03-1.22q1.14.797 1.797 2.063.656 1.266.625 2.813zm-11.375-1.36q-.047 1.313.9 2.297.922.984 2.75 1.547l.016-6.156-.187-.047q-1.484-.187-2.453.484-.984.656-1.016 1.875zm.4-13.047l-.1 1q0 2.03 1.844 3.203l9.016 1.563v2.125l-12.687-2.203v-2.062l1.47.328q-1.766-1.36-1.72-3.187 0-.375.172-1l2.016.234zm-1.937-10.297l1.406.266q-1.687-1.594-1.64-3.86.03-1.203.563-2.03.516-.844 1.484-1.156-2.094-1.78-2.047-4.22.047-1.9 1.28-2.797 1.234-.906 3.313-.672l8.328 1.406v2.1l-8.36-1.4q-.6-.062-1.1 0-1.594.22-1.625 2.094-.03 1.156.72 2.1.734.938 1.953 1.203l8.422 1.438v2.14l-8.344-1.406q-1.297-.156-2 .4-.703.547-.734 1.688-.047 1.984 1.813 3.156l9.266 1.6v2.1l-12.687-2.203v-1.984zm12.922-22.297q-.047 2.36-1.75 3.703-1.703 1.328-4.344 1.125l-.5-.062q-1.9-.203-3.453-1.125-1.562-.922-2.344-2.234-.797-1.328-.766-2.86.047-1.97 1.313-3.078 1.25-1.1 3.4-1.22.766-.03 1.53.047l.97.125v8.297q1.72.203 2.938-.578 1.203-.78 1.25-2.328.047-1.875-1.687-3.47l1.03-1.22q1.14.797 1.797 2.063.656 1.266.625 2.813zm-11.375-1.36q-.047 1.313.9 2.297.922.984 2.75 1.547l.016-6.156-.187-.047q-1.484-.187-2.453.484-.984.656-1.016 1.875zm-1.547-9.344l1.406.266q-1.687-1.594-1.64-3.86.03-1.203.563-2.03.516-.844 1.484-1.156-2.094-1.78-2.047-4.22.047-1.9 1.28-2.797 1.234-.906 3.313-.672l8.328 1.406v2.1l-8.36-1.4q-.6-.062-1.1 0-1.594.22-1.625 2.094-.03 1.156.72 2.1.734.938 1.953 1.203l8.422 1.438v2.14l-8.344-1.406q-1.297-.156-2 .4-.703.547-.734 1.688-.047 1.984 1.813 3.156l9.266 1.6v2.1l-12.687-2.203v-1.984zm-.234-23.86q.03-1.594.875-2.734.844-1.14 2.328-1.672 1.484-.547 3.234-.375l.266.016q1.844.234 3.344 1.1 1.484.875 2.328 2.28.828 1.4.78 3.047-.016 1.578-.86 2.734-.86 1.14-2.312 1.672-1.453.516-3.187.36-1.97-.172-3.53-1.062-1.578-.9-2.437-2.28-.875-1.406-.828-3.094zm6.797 4.313q.75.078 1.547 0 1.375-.125 2.203-.828.813-.703.844-1.9.047-1.062-.516-1.953-.562-.9-1.687-1.5-1.125-.6-2.484-.78-1.078-.094-1.828-.03-1.406.14-2.22.86-.828.703-.875 1.9-.047 1.64 1.28 2.797 1.328 1.14 3.47 1.406l.266.03zM38.35 194.55l-.1 1q0 2.03 1.844 3.203l9.016 1.563v2.125l-12.687-2.203v-2.062l1.47.328q-1.766-1.36-1.72-3.187 0-.375.172-1l2.016.234zm7.547-4.656l-9.484-4.516v-2.344L51.2 190.55q3.078 1.578 3.047 4.03-.016.438-.203 1.28l-1.766-.187.063-.547q.047-1.016-.453-1.734-.5-.734-1.6-1.297l-1.453-.766-12.422 2.188v-2.22l9.484-1.406zm1.953-20.516q1.53 1.5 1.484 3.797-.047 1.813-1.297 2.688-1.266.875-3.422.64l-8.203-1.36v-2.1l8.234 1.36q.516.063 1 .03.844-.062 1.328-.5.484-.453.516-1.25.078-2.266-1.844-3.516l-9.234-1.594v-2.125L49.1 167.64v2.016l-1.25-.28zm-2.187-12.797q-1.312-.172-1.844 1.438l-.656 2.203q-.953 2.797-3.187 2.703-1.672-.078-2.734-1.53-1.078-1.453-1.062-3.406.03-1.922 1.125-3.125 1.094-1.203 2.86-1.156l-.016 2.1q-.953-.016-1.547.6-.594.6-.625 1.64-.016 1.1.547 1.906.516.734 1.375.86 1.1.14 1.6-1.36l.297-1.062q.563-2.172 1.47-3.078.9-.922 2.234-.86 1.172.078 2.063.78.875.703 1.344 1.875.453 1.172.422 2.484-.016 2.016-1.172 3.328-1.156 1.313-2.984 1.266l.016-2.1q1.063 0 1.72-.672.64-.687.64-1.875.016-1.156-.484-2-.516-.844-1.406-.97zm3.672-9.625q-.047 2.36-1.75 3.703-1.703 1.328-4.344 1.125l-.5-.062q-1.9-.203-3.453-1.125-1.562-.922-2.344-2.234-.797-1.328-.766-2.86.047-1.97 1.313-3.078 1.25-1.1 3.4-1.22.766-.03 1.53.047l.97.125v8.297q1.72.203 2.938-.578 1.203-.78 1.25-2.328.047-1.875-1.687-3.47l1.03-1.22q1.14.797 1.797 2.063.656 1.266.625 2.813zm-11.375-1.36q-.047 1.313.9 2.297.922.984 2.75 1.547l.016-6.156-.187-.047q-1.484-.187-2.453.484-.984.656-1.016 1.875zm4.78-5.766q-1.937-.234-3.5-1.062-1.562-.844-2.328-2.062-.78-1.22-.734-2.687.047-2.1 1.547-3.25l-6.625-1.22v-2.125l18 3.125v1.922l-1.36-.22q1.64 1.5 1.594 3.703-.047 1.766-1.375 2.813-1.328 1.03-3.578 1.1-.687.047-1.64-.047zm1.22-2.047q1.672.03 2.594-.594.922-.64.953-1.86.078-1.828-1.86-3.266l-5.86-1q-1.734.703-1.78 2.547-.03 1.25.766 2.22.78.953 2.22 1.453 1.422.484 2.97.5zm-1.14-27.86q1.938.234 3.5 1.078 1.563.828 2.313 2.016.75 1.172.72 2.6-.047 2.297-1.734 3.422l1.484.422v1.97l-18-3.14v-2.1l6.72 1.266q-1.687-1.516-1.64-3.703.047-1.828 1.36-2.844 1.297-1.016 3.578-1.078.75-.016 1.453.078l.25.016zm-1.234 2.016q-1.703-.03-2.6.578-.922.6-.97 1.86-.047 1.984 2 3.36l5.516.938q1.938-.703 1.984-2.625.047-1.25-.734-2.172-.797-.937-2.203-1.422-1.406-.484-2.984-.516zm4.313-8.047l-9.484-4.516v-2.344l14.797 7.516q3.078 1.578 3.047 4.03-.016.438-.203 1.28l-1.766-.187.063-.547q.047-1.016-.453-1.734-.5-.734-1.6-1.297l-1.453-.766-12.422 2.188v-2.22l9.484-1.406zm.188-18.828L32.04 78.142V75.66l17.06 8.812v1.953l-17.062 3.453v-2.312l14.047-2.5zM36.38 64.33q1.28.1 2.313.906 1.016.797 1.688 2.188.625-1.1 1.688-1.64 1.063-.53 2.313-.437 2.266.172 3.64 1.86 1.36 1.672 1.313 4.03-.047 2.22-1.375 3.516-1.328 1.28-3.375 1.1-1.47-.125-2.562-1.03-1.094-.906-1.766-2.47-.64.922-1.594 1.36-.97.438-2.062.344-2.172-.156-3.5-1.687-1.344-1.547-1.297-3.78.047-2.047 1.328-3.234 1.266-1.203 3.25-1.03zm7.953 3.1q-1.312-.14-2.203.563-.9.703-.937 2.047-.016 1.453.938 2.484.938 1.03 2.422 1.188 1.36.14 2.188-.562.813-.703.828-2.016.047-1.47-.86-2.5-.906-1.03-2.375-1.203zm-7.922-.984q-1.172-.125-1.984.5-.812.6-.86 1.75-.016 1.313.844 2.22.86.9 2.22 1.047 1.22.125 2-.5.78-.625.813-1.766.016-1.28-.828-2.187-.844-.906-2.203-1.062zm79.814 350.264q0 3.813-1.312 5.672-1.297 1.844-4.062 1.844-2.734 0-4.047-1.812-1.312-1.812-1.36-5.406v-2.9q0-3.766 1.297-5.594 1.313-1.828 4.094-1.828 2.75 0 4.047 1.766 1.297 1.766 1.344 5.438v2.813zm-2.172-2.97q0-2.75-.78-4-.766-1.266-2.437-1.266-1.672 0-2.437 1.25-.75 1.25-.78 3.86v3.47q0 2.766.797 4.094.813 1.313 2.438 1.313 1.6 0 2.4-1.234.78-1.25.813-3.922v-3.562zm4.28-3.53q0-1.53.97-2.53.984-1 2.516-1 1.563 0 2.53 1 .97 1 .97 2.594v.844q0 1.547-.984 2.53-.97.97-2.484.97-1.53 0-2.53-.97-.984-.984-.984-2.625v-.812zm1.6.906q0 .906.516 1.5.516.594 1.4.594.828 0 1.328-.578.516-.578.516-1.562v-.86q0-.922-.5-1.516-.5-.594-1.375-.594-.86 0-1.375.594-.5.594-.5 1.563v.86zm6.703 8.688q0-1.53.97-2.516.984-1 2.516-1 1.53 0 2.516.984.984.984.984 2.6v.844q0 1.53-.984 2.53-.97.984-2.5.984-1.516 0-2.516-.984-.984-.984-.984-2.6v-.844zm1.6.922q0 .922.516 1.516.516.594 1.4.594.844 0 1.344-.578.5-.594.5-1.578v-.875q0-.922-.516-1.5-.5-.594-1.36-.594-.828 0-1.36.578-.516.578-.516 1.563v.875zm-5.922 1.97l-1.22-.766 8.328-13.344 1.234.78-8.344 13.328z"/><path d="M103.694 299.033H92.522v-1.562l5.906-6.562q1.313-1.484 1.813-2.406.5-.937.5-1.937 0-1.344-.812-2.187-.812-.86-2.156-.86-1.625 0-2.516.922-.9.922-.9 2.563h-2.172q0-2.36 1.516-3.812 1.516-1.453 4.063-1.453 2.375 0 3.75 1.25 1.4 1.25 1.4 3.313 0 2.53-3.203 6l-4.578 4.97h8.563v1.766zm12.53-7.28q0 3.813-1.312 5.672-1.297 1.844-4.062 1.844-2.734 0-4.047-1.812-1.312-1.812-1.36-5.406v-2.9q0-3.766 1.297-5.594 1.313-1.828 4.094-1.828 2.75 0 4.047 1.766 1.297 1.766 1.344 5.438v2.813zm-2.172-2.97q0-2.75-.78-4-.766-1.266-2.437-1.266-1.672 0-2.437 1.25-.75 1.25-.78 3.86v3.47q0 2.766.797 4.094.813 1.313 2.438 1.313 1.6 0 2.4-1.234.78-1.25.813-3.922v-3.562zm4.28-3.53q0-1.53.97-2.53.984-1 2.516-1 1.563 0 2.53 1 .97 1 .97 2.594v.844q0 1.547-.984 2.53-.97.97-2.484.97-1.53 0-2.53-.97-.984-.984-.984-2.625v-.812zm1.6.906q0 .906.516 1.5.516.594 1.4.594.828 0 1.328-.578.516-.578.516-1.562v-.86q0-.922-.5-1.516-.5-.594-1.375-.594-.86 0-1.375.594-.5.594-.5 1.563v.86zm6.703 8.688q0-1.53.97-2.516.984-1 2.516-1 1.53 0 2.516.984.984.984.984 2.6v.844q0 1.53-.984 2.53-.97.984-2.5.984-1.516 0-2.516-.984-.984-.984-.984-2.6v-.844zm1.6.922q0 .922.516 1.516.516.594 1.4.594.844 0 1.344-.578.5-.594.5-1.578v-.875q0-.922-.516-1.5-.5-.594-1.36-.594-.828 0-1.36.578-.516.578-.516 1.563v.875zm-5.922 1.97l-1.22-.766 8.328-13.344 1.234.78-8.344 13.328zm-20.655-129.407h2.36v1.766h-2.36v3.97H99.5v-3.97h-7.766v-1.266l7.64-11.828h2.313v11.328zm-7.5 0h5.313v-8.36l-.25.47-5.062 7.9zm22.047-1.547q0 3.813-1.312 5.672-1.297 1.844-4.062 1.844-2.734 0-4.047-1.812-1.312-1.812-1.36-5.406v-2.9q0-3.766 1.297-5.594 1.313-1.828 4.094-1.828 2.75 0 4.047 1.766 1.297 1.766 1.344 5.438v2.813zm-2.172-2.97q0-2.75-.78-4-.766-1.266-2.437-1.266-1.672 0-2.437 1.25-.75 1.25-.78 3.86v3.47q0 2.766.797 4.094.813 1.313 2.438 1.313 1.6 0 2.4-1.234.78-1.25.813-3.922v-3.562zm4.28-3.53q0-1.53.97-2.53.984-1 2.516-1 1.563 0 2.53 1 .97 1 .97 2.594v.844q0 1.547-.984 2.53-.97.97-2.484.97-1.53 0-2.53-.97-.984-.984-.984-2.625v-.812zm1.6.906q0 .906.516 1.5.516.594 1.4.594.828 0 1.328-.578.516-.578.516-1.562v-.86q0-.922-.5-1.516-.5-.594-1.375-.594-.86 0-1.375.594-.5.594-.5 1.563v.86zm6.703 8.688q0-1.53.97-2.516.984-1 2.516-1 1.53 0 2.516.984.984.984.984 2.6v.844q0 1.53-.984 2.53-.97.984-2.5.984-1.516 0-2.516-.984-.984-.984-.984-2.6v-.844zm1.6.922q0 .922.516 1.516.516.594 1.4.594.844 0 1.344-.578.5-.594.5-1.578v-.875q0-.922-.516-1.5-.5-.594-1.36-.594-.828 0-1.36.578-.516.578-.516 1.563v.875zm-5.922 1.97l-1.22-.766 8.328-13.344 1.234.78-8.344 13.328zm-21.312-140.75v1.844h-.4q-2.53.047-4.03 1.5-1.5 1.453-1.734 4.094 1.344-1.547 3.672-1.547 2.234 0 3.563 1.578 1.328 1.563 1.328 4.047 0 2.625-1.437 4.22-1.437 1.578-3.844 1.578-2.453 0-3.984-1.875-1.516-1.9-1.516-4.86v-.828q0-4.703 2-7.187 2.016-2.5 6-2.562h.375zM98.178 39.7q-1.1 0-2.047.672-.937.672-1.297 1.672v.797q0 2.1.938 3.406.953 1.28 2.375 1.28 1.47 0 2.297-1.078.844-1.078.844-2.828 0-1.75-.86-2.828-.844-1.094-2.25-1.094zm18.047 2.1q0 3.813-1.312 5.672-1.297 1.844-4.062 1.844-2.734 0-4.047-1.812-1.312-1.812-1.36-5.406v-2.9q0-3.766 1.297-5.594 1.313-1.828 4.094-1.828 2.75 0 4.047 1.766 1.297 1.766 1.344 5.438v2.813zm-2.172-2.97q0-2.75-.78-4-.766-1.266-2.437-1.266-1.672 0-2.437 1.25-.75 1.25-.78 3.86v3.47q0 2.766.797 4.094.813 1.313 2.438 1.313 1.6 0 2.4-1.234.78-1.25.813-3.922V38.85zm4.28-3.53q0-1.53.97-2.53.984-1 2.516-1 1.563 0 2.53 1 .97 1 .97 2.594v.844q0 1.547-.984 2.53-.97.97-2.484.97-1.53 0-2.53-.97-.984-.984-.984-2.625v-.812zm1.6.906q0 .906.516 1.5.516.594 1.4.594.828 0 1.328-.578.516-.578.516-1.562v-.86q0-.922-.5-1.516-.5-.594-1.375-.594-.86 0-1.375.594-.5.594-.5 1.563v.86zm6.703 8.688q0-1.53.97-2.516.984-1 2.516-1 1.53 0 2.516.984.984.984.984 2.6v.844q0 1.53-.984 2.53-.97.984-2.5.984-1.516 0-2.516-.984-.984-.984-.984-2.6v-.844zm1.6.922q0 .922.516 1.516.516.594 1.4.594.844 0 1.344-.578.5-.594.5-1.578v-.875q0-.922-.516-1.5-.5-.594-1.36-.594-.828 0-1.36.578-.516.578-.516 1.563v.875zm-5.922 1.97l-1.22-.766 8.328-13.344 1.234.78-8.344 13.328z"/></g><path d="M242.954 439.984q-.266 2.266-1.672 3.5-1.4 1.22-3.72 1.22-2.516 0-4.047-1.812Q232 441.08 232 438.048v-1.36q0-1.984.703-3.484.72-1.5 2.016-2.312 1.297-.812 3.016-.812 2.266 0 3.625 1.266 1.375 1.266 1.594 3.5h-1.9q-.234-1.687-1.062-2.453-.812-.766-2.266-.766-1.797 0-2.828 1.328-1.016 1.328-1.016 3.78v1.375q0 2.313.97 3.688.97 1.36 2.703 1.36 1.563 0 2.4-.703.844-.703 1.1-2.47h1.9zm13.47 4.516h-1.9l-7.156-10.953V444.5H245.5v-14.22h1.875l7.188 11v-11h1.86v14.22zm14 0h-1.9l-7.156-10.953V444.5H259.5v-14.22h1.875l7.188 11v-11h1.86v14.22zm107.858-3.72h-5.953l-1.344 3.72h-1.922l5.422-14.22h1.64l5.438 14.22h-1.922l-1.36-3.72zm-5.4-1.53h4.844l-2.422-6.656-2.422 6.656zm11.953-5.312l.047 1.172q1.172-1.375 3.14-1.375 2.22 0 3.016 1.703.53-.766 1.375-1.234.844-.47 2-.47 3.47 0 3.53 3.688v7.078h-1.812v-6.97q0-1.14-.516-1.703-.516-.562-1.734-.562-1 0-1.672.6-.656.594-.766 1.6v7.016h-1.812v-6.922q0-2.312-2.266-2.312-1.78 0-2.422 1.516v7.72h-1.812V433.94h1.703zm22.828 10.563q-.156-.312-.25-1.1-1.266 1.313-3.016 1.313-1.562 0-2.562-.9-1-.9-1-2.25 0-1.64 1.25-2.547 1.266-.922 3.53-.922h1.766v-.828q0-.953-.578-1.516-.562-.562-1.656-.562-.97 0-1.625.5-.656.484-.656 1.172h-1.812q0-.78.563-1.516.563-.75 1.516-1.172.97-.437 2.125-.437 1.828 0 2.86.922 1.03.906 1.078 2.516v4.86q0 1.453.36 2.313v.156h-1.9zm-3-1.375q.86 0 1.6-.437.766-.437 1.1-1.14v-2.172h-1.422q-3.312 0-3.312 1.938 0 .86.563 1.344.563.47 1.453.47zm9.172-.094h6.188v1.47h-8.4v-1.328l5.828-7.75h-5.734v-1.484h8v1.28l-5.9 7.813zm7.828-3.906q0-1.562.6-2.797.6-1.25 1.688-1.922 1.094-.672 2.5-.672 2.156 0 3.484 1.5 1.344 1.484 1.344 3.97v.125q0 1.547-.594 2.78-.594 1.22-1.703 1.906-1.094.688-2.516.688-2.14 0-3.484-1.5-1.328-1.5-1.328-3.953v-.125zm1.813.203q0 1.766.813 2.828.828 1.063 2.188 1.063 1.375 0 2.188-1.078.813-1.078.813-3.016 0-1.75-.828-2.828-.828-1.078-2.187-1.078-1.344 0-2.172 1.063-.812 1.063-.812 3.047zm11.375-5.4l.063 1.328q1.203-1.53 3.156-1.53 3.36 0 3.375 3.78v6.984h-1.797v-7q-.016-1.14-.53-1.687-.5-.547-1.594-.547-.875 0-1.547.47-.656.47-1.03 1.234v7.53h-1.797V433.94h1.703zm91.857 4.28h-5.97v6.28h-1.875v-14.22h8.797v1.547h-6.922v4.86h5.97v1.53zm9.4 6.28q-.156-.312-.25-1.1-1.266 1.313-3.016 1.313-1.562 0-2.562-.9-1-.9-1-2.25 0-1.64 1.25-2.547 1.266-.922 3.53-.922h1.766v-.828q0-.953-.578-1.516-.562-.562-1.656-.562-.97 0-1.625.5-.656.484-.656 1.172h-1.81q0-.78.563-1.516.563-.75 1.516-1.172.97-.437 2.125-.437 1.828 0 2.86.922 1.03.906 1.078 2.516v4.86q0 1.453.36 2.313v.156h-1.9zm-3-1.375q.86 0 1.6-.437.766-.437 1.1-1.14v-2.172h-1.422q-3.312 0-3.312 1.938 0 .86.563 1.344.563.47 1.453.47zm11.72.094q.97 0 1.688-.578.72-.594.797-1.47h1.72q-.062.906-.64 1.734-.562.813-1.53 1.313-.953.484-2.03.484-2.156 0-3.437-1.437-1.266-1.453-1.266-3.953v-.297q0-1.547.563-2.75.563-1.203 1.625-1.86 1.063-.672 2.5-.672 1.78 0 2.953 1.063 1.188 1.063 1.266 2.766h-1.72q-.078-1.016-.78-1.672-.687-.672-1.72-.672-1.375 0-2.14 1-.75.984-.75 2.86v.344q0 1.828.75 2.813.75.984 2.156.984zm10.14 1.484q-2.14 0-3.5-1.406-1.344-1.422-1.344-3.78v-.344q0-1.562.594-2.797.6-1.234 1.688-1.937 1.078-.703 2.344-.703 2.063 0 3.203 1.36 1.14 1.36 1.14 3.9v.75h-7.156q.03 1.563.906 2.53.875.953 2.22.953.97 0 1.625-.4.672-.4 1.172-1.03l1.094.86q-1.328 2.047-3.984 2.047zm-.22-9.484q-1.094 0-1.844.797-.734.797-.906 2.234h5.28v-.14q-.078-1.375-.75-2.125-.656-.766-1.78-.766zm15.78 4.1q0 2.422-1.1 3.906-1.1 1.47-2.984 1.47-2.016 0-3.1-1.422l-.078 1.22H561.6v-15h1.797v5.594q1.094-1.36 3.016-1.36 1.922 0 3.016 1.453 1.1 1.453 1.1 3.984v.156zm-1.812-.203q0-1.844-.72-2.844-.703-1.016-2.03-1.016-1.797 0-2.578 1.672v4.563q.828 1.656 2.594 1.656 1.297 0 2.016-1 .72-1 .72-3.03zm3.4 0q0-1.562.6-2.797.6-1.25 1.688-1.922 1.094-.672 2.5-.672 2.156 0 3.484 1.5 1.344 1.484 1.344 3.97v.125q0 1.547-.594 2.78-.594 1.22-1.703 1.906-1.094.688-2.516.688-2.14 0-3.484-1.5-1.328-1.5-1.328-3.953v-.125zm1.813.203q0 1.766.813 2.828.828 1.063 2.188 1.063 1.375 0 2.188-1.078.813-1.078.813-3.016 0-1.75-.828-2.828-.828-1.078-2.187-1.078-1.344 0-2.172 1.063-.812 1.063-.812 3.047zm9.188-.203q0-1.562.6-2.797.6-1.25 1.688-1.922 1.094-.672 2.5-.672 2.156 0 3.484 1.5 1.344 1.484 1.344 3.97v.125q0 1.547-.594 2.78-.594 1.22-1.703 1.906-1.094.688-2.516.688-2.14 0-3.484-1.5-1.328-1.5-1.328-3.953v-.125zm1.813.203q0 1.766.813 2.828.828 1.063 2.188 1.063 1.375 0 2.188-1.078.813-1.078.813-3.016 0-1.75-.828-2.828-.828-1.078-2.187-1.078-1.344 0-2.172 1.063-.812 1.063-.812 3.047zm12.6.28l-1.125 1.172v3.72h-1.812v-15h1.813v9.078l.97-1.172 3.28-3.47h2.203l-4.1 4.406 4.594 6.156h-2.125l-3.687-4.9zm89.625 1.17h-5.953l-1.344 3.72h-1.922l5.422-14.22H685l5.438 14.22h-1.922l-1.36-3.72zm-5.4-1.53h4.844l-2.422-6.656-2.422 6.656zm13.75 2.797l2.6-8.1h1.844l-3.78 10.563h-1.375l-3.828-10.562h1.844l2.688 8.1zm10.9 2.656q-2.14 0-3.5-1.406-1.344-1.422-1.344-3.78v-.344q0-1.562.594-2.797.6-1.234 1.688-1.937 1.078-.703 2.344-.703 2.063 0 3.203 1.36 1.14 1.36 1.14 3.9v.75h-7.156q.03 1.563.906 2.53.875.953 2.22.953.97 0 1.625-.4.672-.4 1.172-1.03l1.094.86q-1.328 2.047-3.984 2.047zm-.22-9.484q-1.094 0-1.844.797-.734.797-.906 2.234h5.28v-.14q-.078-1.375-.75-2.125-.656-.766-1.78-.766zm11.938.328q-.406-.062-.875-.062-1.78 0-2.422 1.516v7.5h-1.797V433.94h1.75l.03 1.22q.9-1.422 2.516-1.422.53 0 .797.14v1.672zm8.422 8.953q-.156-.312-.25-1.1-1.266 1.313-3.016 1.313-1.562 0-2.562-.9-1-.9-1-2.25 0-1.64 1.25-2.547 1.266-.922 3.53-.922h1.766v-.828q0-.953-.578-1.516-.562-.562-1.656-.562-.97 0-1.625.5-.656.484-.656 1.172h-1.812q0-.78.563-1.516.563-.75 1.516-1.172.97-.437 2.125-.437 1.828 0 2.86.922 1.03.906 1.078 2.516v4.86q0 1.453.36 2.313v.156h-1.9zm-3-1.375q.86 0 1.6-.437.766-.437 1.1-1.14v-2.172h-1.422q-3.312 0-3.312 1.938 0 .86.563 1.344.563.47 1.453.47zm7.047-4q0-2.47 1.14-3.922 1.14-1.47 3.03-1.47 1.938 0 3.016 1.375l.094-1.172h1.64v10.313q0 2.047-1.22 3.22-1.203 1.188-3.266 1.188-1.14 0-2.234-.484-1.094-.484-1.672-1.344l.938-1.078q1.172 1.438 2.844 1.438 1.328 0 2.063-.75.734-.734.734-2.078v-.922q-1.078 1.266-2.953 1.266-1.86 0-3.016-1.5-1.14-1.5-1.14-4.078zm1.813.203q0 1.797.734 2.813.734 1.016 2.047 1.016 1.72 0 2.516-1.547v-4.828q-.828-1.516-2.484-1.516-1.328 0-2.078 1.03-.734 1.03-.734 3.03zm14 5.375q-2.14 0-3.5-1.406-1.344-1.422-1.344-3.78v-.344q0-1.562.594-2.797.6-1.234 1.688-1.937 1.078-.703 2.344-.703 2.063 0 3.203 1.36 1.14 1.36 1.14 3.9v.75h-7.156q.03 1.563.906 2.53.875.953 2.22.953.97 0 1.625-.4.672-.4 1.172-1.03l1.094.86q-1.328 2.047-3.984 2.047zm-.22-9.484q-1.094 0-1.844.797-.734.797-.906 2.234h5.28v-.14q-.078-1.375-.75-2.125-.656-.766-1.78-.766z" fill="#666"/><path d="M314 476.4a1 1 0 0 1 1-1h10a1 1 0 0 1 1 1v10a1 1 0 0 1-1 1h-10a1 1 0 0 1-1-1z" class="C"/><path fill="#666" d="M338.89 472.838l5.578 13.922 5.578-13.922h2.922V489.9h-2.25v-6.64l.203-7.172-5.594 13.813h-1.734l-5.578-13.78.22 7.14v6.64h-2.25v-17.062h2.906zm17.172 10.61q0-1.875.734-3.36.734-1.484 2.03-2.297 1.313-.812 3-.812 2.578 0 4.172 1.797 1.61 1.797 1.61 4.766v.156q0 1.86-.72 3.328-.703 1.47-2.016 2.297-1.312.813-3.03.813-2.578 0-4.187-1.797-1.594-1.797-1.594-4.75v-.14zm2.188.25q0 2.11.97 3.39.984 1.28 2.625 1.28 1.656 0 2.625-1.297.97-1.297.97-3.625 0-2.094-.984-3.39-.984-1.297-2.625-1.297-1.61 0-2.594 1.28-.984 1.28-.984 3.656zm23.125 0q0 2.906-1.344 4.672-1.328 1.766-3.578 1.766-2.406 0-3.72-1.703l-.094 1.47h-2v-18h2.172v6.72q1.313-1.64 3.61-1.64 2.313 0 3.625 1.75 1.328 1.75 1.328 4.78v.188zm-2.172-.25q0-2.203-.86-3.406-.844-1.22-2.453-1.22-2.14 0-3.078 2v5.484q1 1.984 3.11 1.984 1.547 0 2.406-1.203.875-1.203.875-3.64zM386 489.9h-2.172v-12.687H386V489.9zm-2.344-16.047q0-.53.313-.89.328-.36.953-.36.64 0 .97.36.328.36.328.89 0 .53-.328.89-.328.344-.97.344-.625 0-.953-.344-.312-.36-.312-.89zM392 489.9h-2.172v-18H392v18zm8.906.234q-2.578 0-4.203-1.687-1.61-1.703-1.61-4.53v-.406q0-1.89.72-3.36.72-1.484 2.016-2.328 1.297-.844 2.813-.844 2.47 0 3.828 1.64 1.375 1.625 1.375 4.656v.906h-8.578q.047 1.875 1.094 3.03 1.047 1.156 2.656 1.156 1.156 0 1.953-.47.797-.47 1.39-1.25l1.328 1.03q-1.594 2.453-4.78 2.453zm-.266-11.375q-1.312 0-2.203.97-.89.953-1.11 2.672h6.36v-.172q-.094-1.64-.89-2.547-.797-.922-2.156-.922z"/><path d="M423 476.4a1 1 0 0 1 1-1h10a1 1 0 0 1 1 1v10a1 1 0 0 1-1 1h-10a1 1 0 0 1-1-1z" class="D"/><path fill="#666" d="M444.984 489.9v-17.062h4.813q2.234 0 3.938.984 1.72.984 2.64 2.797.938 1.813.953 4.172v1.094q0 2.406-.937 4.234-.937 1.813-2.672 2.78-1.72.97-4.016 1h-4.72zm2.25-15.22v13.375h2.36q2.61 0 4.047-1.61 1.453-1.625 1.453-4.61v-1q0-2.906-1.375-4.516-1.36-1.61-3.86-1.64h-2.625zm18.672 15.453q-2.578 0-4.203-1.687-1.61-1.703-1.61-4.53v-.406q0-1.89.72-3.36.72-1.484 2.016-2.328 1.297-.844 2.813-.844 2.47 0 3.828 1.64 1.375 1.625 1.375 4.656v.906h-8.578q.047 1.875 1.094 3.03 1.047 1.156 2.656 1.156 1.156 0 1.953-.47.797-.47 1.39-1.25l1.328 1.03q-1.594 2.453-4.78 2.453zm-.266-11.375q-1.312 0-2.203.97-.89.953-1.11 2.672h6.36v-.172q-.094-1.64-.89-2.547-.797-.922-2.156-.922zm15.39 7.78q0-.89-.672-1.375-.656-.484-2.312-.828-1.64-.36-2.61-.844-.97-.5-1.437-1.172-.453-.687-.453-1.625 0-1.562 1.313-2.64 1.328-1.078 3.375-1.078 2.156 0 3.5 1.125 1.344 1.11 1.344 2.844h-2.187q0-.89-.75-1.53-.75-.656-1.906-.656-1.187 0-1.86.516-.656.516-.656 1.36 0 .78.61 1.188.625.39 2.25.75 1.625.36 2.625.875 1.016.5 1.5 1.22.484.703.484 1.72 0 1.703-1.36 2.734-1.36 1.016-3.516 1.016-1.53 0-2.703-.53-1.172-.547-1.844-1.516-.656-.97-.656-2.094h2.172q.063 1.094.875 1.734.813.64 2.156.64 1.22 0 1.97-.5.75-.5.75-1.328zm8.156-2.516l-1.36 1.422v4.453h-2.172v-18h2.172v10.89l1.156-1.406 3.953-4.172h2.625l-4.922 5.297 5.5 7.39h-2.547l-4.406-5.875zm11.39-9.875v3.063h2.375v1.688h-2.375v7.86q0 .766.313 1.14.328.375 1.094.375.375 0 1.03-.14v1.766q-.86.234-1.672.234-1.453 0-2.187-.875-.734-.89-.734-2.5v-7.86h-2.312v-1.687h2.313v-3.062h2.156zm4.484 9.297q0-1.875.734-3.36.734-1.484 2.03-2.297 1.313-.812 3-.812 2.578 0 4.172 1.797 1.61 1.797 1.61 4.766v.156q0 1.86-.72 3.328-.703 1.47-2.016 2.297-1.312.813-3.03.813-2.578 0-4.187-1.797-1.594-1.797-1.594-4.75v-.14zm2.188.25q0 2.11.97 3.39.984 1.28 2.625 1.28 1.656 0 2.625-1.297.97-1.297.97-3.625 0-2.094-.984-3.39-.984-1.297-2.625-1.297-1.61 0-2.594 1.28-.984 1.28-.984 3.656zm23.11 0q0 2.89-1.328 4.672-1.328 1.766-3.594 1.766-2.297 0-3.625-1.47v6.11h-2.172v-17.562h1.984l.11 1.406q1.313-1.64 3.672-1.64 2.28 0 3.61 1.734 1.344 1.72 1.344 4.78v.203zm-2.172-.25q0-2.14-.922-3.375-.906-1.25-2.5-1.25-1.97 0-2.953 1.75v6.063q.97 1.734 2.97 1.734 1.563 0 2.484-1.234.922-1.25.922-3.687z"/></svg>