<svg version="1.1" viewBox="0.0 0.0 600.0 371.0" fill="none" stroke="none" stroke-linecap="square" stroke-miterlimit="10" width="600" height="371" xmlns:xlink="http://www.w3.org/1999/xlink" xmlns="http://www.w3.org/2000/svg"><path fill="#ffffff" d="M0 0L600.0 0L600.0 371.0L0 371.0L0 0Z" fill-rule="nonzero"/><path stroke="#333333" stroke-width="1.0" stroke-linecap="butt" d="M98.5 278.5L581.5 278.5" fill-rule="nonzero"/><path stroke="#cccccc" stroke-width="1.0" stroke-linecap="butt" d="M98.5 227.5L581.5 227.5" fill-rule="nonzero"/><path stroke="#cccccc" stroke-width="1.0" stroke-linecap="butt" d="M98.5 177.5L581.5 177.5" fill-rule="nonzero"/><path stroke="#cccccc" stroke-width="1.0" stroke-linecap="butt" d="M98.5 126.5L581.5 126.5" fill-rule="nonzero"/><path stroke="#cccccc" stroke-width="1.0" stroke-linecap="butt" d="M98.5 76.5L581.5 76.5" fill-rule="nonzero"/><path stroke="#cccccc" stroke-width="1.0" stroke-linecap="butt" d="M98.5 25.5L581.5 25.5" fill-rule="nonzero"/><clipPath id="id_0"><path d="M98.55 25.55L581.45 25.55L581.45 278.56775L98.55 278.56775L98.55 25.55Z" clip-rule="nonzero"/></clipPath><path stroke="#000000" stroke-width="0.0" stroke-linecap="butt" stroke-opacity="0.0" clip-path="url(#id_0)" d="M157.0 279.0L119.0 279.0L119.0 52.0C119.0 50.89543 119.89543 50.0 121.0 50.0L155.0 50.0C156.10457 50.0 157.0 50.89543 157.0 52.0Z" fill-rule="nonzero"/><path fill="#4285f4" clip-path="url(#id_0)" d="M157.0 279.0L119.0 279.0L119.0 52.0C119.0 50.89543 119.89543 50.0 121.0 50.0L155.0 50.0C156.10457 50.0 157.0 50.89543 157.0 52.0Z" fill-rule="nonzero"/><path stroke="#000000" stroke-width="0.0" stroke-linecap="butt" stroke-opacity="0.0" clip-path="url(#id_0)" d="M214.0 279.0L176.0 279.0L176.0 48.0C176.0 46.89543 176.89543 46.0 178.0 46.0L212.0 46.0C213.10457 46.0 214.0 46.89543 214.0 48.0Z" fill-rule="nonzero"/><path fill="#4285f4" clip-path="url(#id_0)" d="M214.0 279.0L176.0 279.0L176.0 48.0C176.0 46.89543 176.89543 46.0 178.0 46.0L212.0 46.0C213.10457 46.0 214.0 46.89543 214.0 48.0Z" fill-rule="nonzero"/><path stroke="#000000" stroke-width="0.0" stroke-linecap="butt" stroke-opacity="0.0" clip-path="url(#id_0)" d="M272.0 279.0L234.0 279.0L234.0 75.0C234.0 73.89543 234.89543 73.0 236.0 73.0L270.0 73.0C271.10458 73.0 272.0 73.89543 272.0 75.0Z" fill-rule="nonzero"/><path fill="#4285f4" clip-path="url(#id_0)" d="M272.0 279.0L234.0 279.0L234.0 75.0C234.0 73.89543 234.89543 73.0 236.0 73.0L270.0 73.0C271.10458 73.0 272.0 73.89543 272.0 75.0Z" fill-rule="nonzero"/><path stroke="#000000" stroke-width="0.0" stroke-linecap="butt" stroke-opacity="0.0" clip-path="url(#id_0)" d="M330.0 279.0L292.0 279.0L292.0 87.0C292.0 85.89543 292.89542 85.0 294.0 85.0L328.0 85.0C329.10458 85.0 330.0 85.89543 330.0 87.0Z" fill-rule="nonzero"/><path fill="#4285f4" clip-path="url(#id_0)" d="M330.0 279.0L292.0 279.0L292.0 87.0C292.0 85.89543 292.89542 85.0 294.0 85.0L328.0 85.0C329.10458 85.0 330.0 85.89543 330.0 87.0Z" fill-rule="nonzero"/><path stroke="#000000" stroke-width="0.0" stroke-linecap="butt" stroke-opacity="0.0" clip-path="url(#id_0)" d="M388.0 279.0L350.0 279.0L350.0 94.0C350.0 92.89543 350.89542 92.0 352.0 92.0L386.0 92.0C387.10458 92.0 388.0 92.89543 388.0 94.0Z" fill-rule="nonzero"/><path fill="#4285f4" clip-path="url(#id_0)" d="M388.0 279.0L350.0 279.0L350.0 94.0C350.0 92.89543 350.89542 92.0 352.0 92.0L386.0 92.0C387.10458 92.0 388.0 92.89543 388.0 94.0Z" fill-rule="nonzero"/><path stroke="#000000" stroke-width="0.0" stroke-linecap="butt" stroke-opacity="0.0" clip-path="url(#id_0)" d="M446.0 279.0L408.0 279.0L408.0 163.0C408.0 161.89543 408.89542 161.0 410.0 161.0L444.0 161.0C445.10458 161.0 446.0 161.89543 446.0 163.0Z" fill-rule="nonzero"/><path fill="#4285f4" clip-path="url(#id_0)" d="M446.0 279.0L408.0 279.0L408.0 163.0C408.0 161.89543 408.89542 161.0 410.0 161.0L444.0 161.0C445.10458 161.0 446.0 161.89543 446.0 163.0Z" fill-rule="nonzero"/><path stroke="#000000" stroke-width="0.0" stroke-linecap="butt" stroke-opacity="0.0" clip-path="url(#id_0)" d="M504.0 279.0L466.0 279.0L466.0 147.0C466.0 145.89543 466.89542 145.0 468.0 145.0L502.0 145.0C503.10458 145.0 504.0 145.89543 504.0 147.0Z" fill-rule="nonzero"/><path fill="#4285f4" clip-path="url(#id_0)" d="M504.0 279.0L466.0 279.0L466.0 147.0C466.0 145.89543 466.89542 145.0 468.0 145.0L502.0 145.0C503.10458 145.0 504.0 145.89543 504.0 147.0Z" fill-rule="nonzero"/><path stroke="#000000" stroke-width="0.0" stroke-linecap="butt" stroke-opacity="0.0" clip-path="url(#id_0)" d="M561.0 279.0L523.0 279.0L523.0 95.0C523.0 93.89543 523.89545 93.0 525.0 93.0L559.0 93.0C560.10455 93.0 561.0 93.89543 561.0 95.0Z" fill-rule="nonzero"/><path fill="#4285f4" clip-path="url(#id_0)" d="M561.0 279.0L523.0 279.0L523.0 95.0C523.0 93.89543 523.89545 93.0 525.0 93.0L559.0 93.0C560.10455 93.0 561.0 93.89543 561.0 95.0Z" fill-rule="nonzero"/><path fill="#000000" d="M23.018763 277.29688Q22.096888 277.29688 21.456263 276.84375Q20.815638 276.375 20.815638 275.5Q20.815638 274.6875 21.393763 274.15625Q21.971888 273.625 23.081263 273.625Q24.175013 273.625 24.768763 274.17188Q25.346888 274.70312 25.346888 275.48438Q25.346888 276.26562 24.768763 276.78125Q24.190638 277.29688 23.018763 277.29688ZM21.534388 275.46875Q21.534388 275.85938 21.878138 276.125Q22.221888 276.375 23.128138 276.375Q23.956263 276.375 24.300013 276.125Q24.628138 275.85938 24.628138 275.46875Q24.628138 275.0625 24.284388 274.8125Q23.940638 274.54688 23.050013 274.54688Q22.206263 274.54688 21.878138 274.8125Q21.534388 275.07812 21.534388 275.46875ZM29.862513 275.46875L20.815638 270.76562L20.815638 269.90625L29.862513 274.59375L29.862513 275.46875ZM27.534388 271.75Q26.612513 271.75 25.971888 271.29688Q25.331263 270.82812 25.331263 269.9375Q25.331263 269.125 25.909388 268.59375Q26.471888 268.0625 27.596888 268.0625Q28.690638 268.0625 29.284388 268.60938Q29.862513 269.14062 29.862513 269.9375Q29.862513 270.70312 29.284388 271.23438Q28.706263 271.75 27.534388 271.75ZM26.050013 269.90625Q26.050013 270.3125 26.393763 270.57812Q26.737513 270.82812 27.643763 270.82812Q28.456263 270.82812 28.800013 270.5625Q29.143763 270.29688 29.143763 269.90625Q29.143763 269.51562 28.800013 269.25Q28.456263 268.98438 27.550013 268.98438Q26.721888 268.98438 26.393763 269.25Q26.050013 269.51562 26.050013 269.90625ZM26.440638 263.59375Q24.706263 263.59375 23.878138 262.64062Q23.190638 261.84375 23.190638 260.6875Q23.190638 259.40625 24.034388 258.59375Q24.862513 257.76562 26.346888 257.76562Q27.550013 257.76562 28.237513 258.125Q28.925013 258.48438 29.315638 259.1875Q29.690638 259.875 29.690638 260.6875Q29.690638 261.98438 28.862513 262.79688Q28.018763 263.59375 26.440638 263.59375ZM26.440638 262.51562Q27.628138 262.51562 28.221888 262.0Q28.815638 261.46875 28.815638 260.6875Q28.815638 259.89062 28.221888 259.375Q27.628138 258.85938 26.409388 258.85938Q25.253138 258.85938 24.659388 259.39062Q24.065638 259.90625 24.065638 260.6875Q24.065638 261.46875 24.659388 262.0Q25.237513 262.51562 26.440638 262.51562ZM29.550013 255.95312L24.143763 255.95312L24.143763 256.89062L23.331263 256.89062L23.331263 255.95312L22.659388 255.95312Q22.034388 255.95312 21.737513 255.84375Q21.315638 255.6875 21.065638 255.3125Q20.815638 254.92188 20.815638 254.23438Q20.815638 253.78125 20.925013 253.25L21.831263 253.40625Q21.784388 253.73438 21.784388 254.03125Q21.784388 254.51562 21.987513 254.71875Q22.190638 254.90625 22.753138 254.90625L23.331263 254.90625L23.331263 253.6875L24.143763 253.6875L24.143763 254.90625L29.550013 254.90625L29.550013 255.95312ZM29.550013 250.21875L23.331263 250.21875L23.331263 249.26562L24.268763 249.26562Q23.612513 248.90625 23.409388 248.60938Q23.190638 248.29688 23.190638 247.92188Q23.190638 247.39062 23.518763 246.84375L24.503138 247.20312Q24.268763 247.59375 24.268763 247.96875Q24.268763 248.32812 24.487513 248.60938Q24.690638 248.875 25.065638 248.98438Q25.628138 249.17188 26.284388 249.17188L29.550013 249.17188L29.550013 250.21875ZM27.550013 241.95312L27.675013 240.85938Q28.628138 241.10938 29.159388 241.8125Q29.690638 242.51562 29.690638 243.59375Q29.690638 244.95312 28.846888 245.76562Q28.003138 246.5625 26.487513 246.5625Q24.925013 246.5625 24.065638 245.75Q23.190638 244.9375 23.190638 243.65625Q23.190638 242.40625 24.034388 241.625Q24.878138 240.82812 26.425013 240.82812Q26.518763 240.82812 26.706263 240.82812L26.706263 245.46875Q27.737513 245.40625 28.284388 244.89062Q28.815638 244.375 28.815638 243.59375Q28.815638 243.01562 28.518763 242.60938Q28.206263 242.1875 27.550013 241.95312ZM25.846888 245.40625L25.846888 241.9375Q25.050013 242.0 24.659388 242.32812Q24.050013 242.84375 24.050013 243.64062Q24.050013 244.375 24.534388 244.875Q25.018763 245.35938 25.846888 245.40625ZM29.550013 239.20312L23.331263 239.20312L23.331263 238.26562L24.206263 238.26562Q23.190638 237.57812 23.190638 236.28125Q23.190638 235.71875 23.393763 235.25Q23.596888 234.76562 23.925013 234.53125Q24.253138 234.29688 24.690638 234.20312Q24.987513 234.15625 25.721888 234.15625L29.550013 234.15625L29.550013 235.20312L25.768763 235.20312Q25.112513 235.20312 24.800013 235.32812Q24.487513 235.45312 24.300013 235.76562Q24.096888 236.07812 24.096888 236.5Q24.096888 237.17188 24.534388 237.67188Q24.956263 238.15625 26.143763 238.15625L29.550013 238.15625L29.550013 239.20312ZM29.550013 228.17188L28.768763 228.17188Q29.690638 228.76562 29.690638 229.90625Q29.690638 230.65625 29.284388 231.28125Q28.862513 231.90625 28.128138 232.25Q27.393763 232.59375 26.440638 232.59375Q25.518763 232.59375 24.753138 232.28125Q23.987513 231.96875 23.596888 231.34375Q23.190638 230.71875 23.190638 229.95312Q23.190638 229.39062 23.425013 228.95312Q23.659388 228.51562 24.034388 228.23438L20.956263 228.23438L20.956263 227.1875L29.550013 227.1875L29.550013 228.17188ZM26.440638 231.5Q27.643763 231.5 28.237513 231.0Q28.815638 230.5 28.815638 229.8125Q28.815638 229.125 28.253138 228.64062Q27.690638 228.15625 26.534388 228.15625Q25.253138 228.15625 24.659388 228.65625Q24.065638 229.14062 24.065638 229.85938Q24.065638 230.5625 24.643763 231.03125Q25.206263 231.5 26.440638 231.5ZM27.550013 220.95312L27.675013 219.85938Q28.628138 220.10938 29.159388 220.8125Q29.690638 221.51562 29.690638 222.59375Q29.690638 223.95312 28.846888 224.76562Q28.003138 225.5625 26.487513 225.5625Q24.925013 225.5625 24.065638 224.75Q23.190638 223.9375 23.190638 222.65625Q23.190638 221.40625 24.034388 220.625Q24.878138 219.82812 26.425013 219.82812Q26.518763 219.82812 26.706263 219.82812L26.706263 224.46875Q27.737513 224.40625 28.284388 223.89062Q28.815638 223.375 28.815638 222.59375Q28.815638 222.01562 28.518763 221.60938Q28.206263 221.1875 27.550013 220.95312ZM25.846888 224.40625L25.846888 220.9375Q25.050013 221.0 24.659388 221.32812Q24.050013 221.84375 24.050013 222.64062Q24.050013 223.375 24.534388 223.875Q25.018763 224.35938 25.846888 224.40625ZM29.550013 218.21875L23.331263 218.21875L23.331263 217.26562L24.268763 217.26562Q23.612513 216.90625 23.409388 216.60938Q23.190638 216.29688 23.190638 215.92188Q23.190638 215.39062 23.518763 214.84375L24.503138 215.20312Q24.268763 215.59375 24.268763 215.96875Q24.268763 216.32812 24.487513 216.60938Q24.690638 216.875 25.065638 216.98438Q25.628138 217.17188 26.284388 217.17188L29.550013 217.17188L29.550013 218.21875ZM27.550013 209.95312L27.675013 208.85938Q28.628138 209.10938 29.159388 209.8125Q29.690638 210.51562 29.690638 211.59375Q29.690638 212.95312 28.846888 213.76562Q28.003138 214.5625 26.487513 214.5625Q24.925013 214.5625 24.065638 213.75Q23.190638 212.9375 23.190638 211.65625Q23.190638 210.40625 24.034388 209.625Q24.878138 208.82812 26.425013 208.82812Q26.518763 208.82812 26.706263 208.82812L26.706263 213.46875Q27.737513 213.40625 28.284388 212.89062Q28.815638 212.375 28.815638 211.59375Q28.815638 211.01562 28.518763 210.60938Q28.206263 210.1875 27.550013 209.95312ZM25.846888 213.40625L25.846888 209.9375Q25.050013 210.0 24.659388 210.32812Q24.050013 210.84375 24.050013 211.64062Q24.050013 212.375 24.534388 212.875Q25.018763 213.35938 25.846888 213.40625ZM29.550013 207.21875L23.331263 207.21875L23.331263 206.26562L24.268763 206.26562Q23.612513 205.90625 23.409388 205.60938Q23.190638 205.29688 23.190638 204.92188Q23.190638 204.39062 23.518763 203.84375L24.503138 204.20312Q24.268763 204.59375 24.268763 204.96875Q24.268763 205.32812 24.487513 205.60938Q24.690638 205.875 25.065638 205.98438Q25.628138 206.17188 26.284388 206.17188L29.550013 206.17188L29.550013 207.21875ZM29.550013 200.20312L23.331263 200.20312L23.331263 199.26562L24.206263 199.26562Q23.737513 198.96875 23.471888 198.48438Q23.190638 198.0 23.190638 197.375Q23.190638 196.6875 23.471888 196.25Q23.753138 195.79688 24.268763 195.625Q23.190638 194.875 23.190638 193.70312Q23.190638 192.76562 23.706263 192.28125Q24.206263 191.78125 25.284388 191.78125L29.550013 191.78125L29.550013 192.82812L25.628138 192.82812Q25.003138 192.82812 24.721888 192.9375Q24.440638 193.03125 24.268763 193.29688Q24.096888 193.5625 24.096888 193.9375Q24.096888 194.59375 24.534388 195.03125Q24.971888 195.45312 25.940638 195.45312L29.550013 195.45312L29.550013 196.51562L25.503138 196.51562Q24.800013 196.51562 24.456263 196.78125Q24.096888 197.03125 24.096888 197.60938Q24.096888 198.0625 24.331263 198.4375Q24.565638 198.8125 25.018763 198.98438Q25.471888 199.15625 26.315638 199.15625L29.550013 199.15625L29.550013 200.20312ZM27.550013 185.95312L27.675013 184.85938Q28.628138 185.10938 29.159388 185.8125Q29.690638 186.51562 29.690638 187.59375Q29.690638 188.95312 28.846888 189.76562Q28.003138 190.5625 26.487513 190.5625Q24.925013 190.5625 24.065638 189.75Q23.190638 188.9375 23.190638 187.65625Q23.190638 186.40625 24.034388 185.625Q24.878138 184.82812 26.425013 184.82812Q26.518763 184.82812 26.706263 184.82812L26.706263 189.46875Q27.737513 189.40625 28.284388 188.89062Q28.815638 188.375 28.815638 187.59375Q28.815638 187.01562 28.518763 186.60938Q28.206263 186.1875 27.550013 185.95312ZM25.846888 189.40625L25.846888 185.9375Q25.050013 186.0 24.659388 186.32812Q24.050013 186.84375 24.050013 187.64062Q24.050013 188.375 24.534388 188.875Q25.018763 189.35938 25.846888 189.40625ZM29.550013 183.20312L23.331263 183.20312L23.331263 182.26562L24.206263 182.26562Q23.737513 181.96875 23.471888 181.48438Q23.190638 181.0 23.190638 180.375Q23.190638 179.6875 23.471888 179.25Q23.753138 178.79688 24.268763 178.625Q23.190638 177.875 23.190638 176.70312Q23.190638 175.76562 23.706263 175.28125Q24.206263 174.78125 25.284388 174.78125L29.550013 174.78125L29.550013 175.82812L25.628138 175.82812Q25.003138 175.82812 24.721888 175.9375Q24.440638 176.03125 24.268763 176.29688Q24.096888 176.5625 24.096888 176.9375Q24.096888 177.59375 24.534388 178.03125Q24.971888 178.45312 25.940638 178.45312L29.550013 178.45312L29.550013 179.51562L25.503138 179.51562Q24.800013 179.51562 24.456263 179.78125Q24.096888 180.03125 24.096888 180.60938Q24.096888 181.0625 24.331263 181.4375Q24.565638 181.8125 25.018763 181.98438Q25.471888 182.15625 26.315638 182.15625L29.550013 182.15625L29.550013 183.20312ZM26.440638 173.59375Q24.706263 173.59375 23.878138 172.64062Q23.190638 171.84375 23.190638 170.6875Q23.190638 169.40625 24.034388 168.59375Q24.862513 167.76562 26.346888 167.76562Q27.550013 167.76562 28.237513 168.125Q28.925013 168.48438 29.315638 169.1875Q29.690638 169.875 29.690638 170.6875Q29.690638 171.98438 28.862513 172.79688Q28.018763 173.59375 26.440638 173.59375ZM26.440638 172.51562Q27.628138 172.51562 28.221888 172.0Q28.815638 171.46875 28.815638 170.6875Q28.815638 169.89062 28.221888 169.375Q27.628138 168.85938 26.409388 168.85938Q25.253138 168.85938 24.659388 169.39062Q24.065638 169.90625 24.065638 170.6875Q24.065638 171.46875 24.659388 172.0Q25.237513 172.51562 26.440638 172.51562ZM29.550013 166.21875L23.331263 166.21875L23.331263 165.26562L24.268763 165.26562Q23.612513 164.90625 23.409388 164.60938Q23.190638 164.29688 23.190638 163.92188Q23.190638 163.39062 23.518763 162.84375L24.503138 163.20312Q24.268763 163.59375 24.268763 163.96875Q24.268763 164.32812 24.487513 164.60938Q24.690638 164.875 25.065638 164.98438Q25.628138 165.17188 26.284388 165.17188L29.550013 165.17188L29.550013 166.21875ZM31.940638 162.25L30.956263 162.375Q31.050013 162.03125 31.050013 161.76562Q31.050013 161.42188 30.925013 161.21875Q30.815638 161.0 30.612513 160.85938Q30.440638 160.76562 29.815638 160.53125Q29.737513 160.51562 29.565638 160.4375L23.331263 162.8125L23.331263 161.67188L26.925013 160.375Q27.612513 160.125 28.378138 159.92188Q27.643763 159.73438 26.956263 159.48438L23.331263 158.15625L23.331263 157.10938L29.659388 159.46875Q30.675013 159.85938 31.065638 160.0625Q31.596888 160.34375 31.831263 160.71875Q32.08126 161.07812 32.08126 161.57812Q32.08126 161.875 31.940638 162.25ZM29.550013 149.125L28.628138 149.125Q29.690638 149.85938 29.690638 151.10938Q29.690638 151.65625 29.487513 152.14062Q29.268763 152.60938 28.956263 152.84375Q28.628138 153.07812 28.159388 153.17188Q27.862513 153.23438 27.175013 153.23438L23.331263 153.23438L23.331263 152.17188L26.784388 152.17188Q27.596888 152.17188 27.893763 152.10938Q28.300013 152.01562 28.550013 151.70312Q28.784388 151.375 28.784388 150.89062Q28.784388 150.42188 28.550013 150.01562Q28.300013 149.59375 27.878138 149.42188Q27.456263 149.23438 26.659388 149.23438L23.331263 149.23438L23.331263 148.1875L29.550013 148.1875L29.550013 149.125ZM27.690638 146.625L27.534388 145.59375Q28.159388 145.5 28.487513 145.10938Q28.815638 144.70312 28.815638 143.96875Q28.815638 143.25 28.534388 142.90625Q28.237513 142.54688 27.831263 142.54688Q27.471888 142.54688 27.268763 142.85938Q27.128138 143.07812 26.909388 143.9375Q26.612513 145.09375 26.409388 145.54688Q26.190638 145.98438 25.815638 146.21875Q25.440638 146.45312 24.971888 146.45312Q24.565638 146.45312 24.206263 146.26562Q23.846888 146.07812 23.612513 145.75Q23.440638 145.5 23.315638 145.07812Q23.190638 144.65625 23.190638 144.15625Q23.190638 143.4375 23.409388 142.89062Q23.612513 142.32812 23.971888 142.0625Q24.331263 141.79688 24.925013 141.70312L25.065638 142.73438Q24.596888 142.79688 24.331263 143.14062Q24.050013 143.46875 24.050013 144.09375Q24.050013 144.8125 24.300013 145.125Q24.534388 145.4375 24.862513 145.4375Q25.065638 145.4375 25.221888 145.3125Q25.393763 145.17188 25.503138 144.90625Q25.565638 144.75 25.768763 143.96875Q26.081263 142.84375 26.268763 142.40625Q26.456263 141.96875 26.815638 141.71875Q27.175013 141.46875 27.721888 141.46875Q28.253138 141.46875 28.721888 141.78125Q29.175013 142.07812 29.440638 142.65625Q29.690638 143.23438 29.690638 143.96875Q29.690638 145.1875 29.190638 145.82812Q28.675013 146.45312 27.690638 146.625ZM27.550013 135.95312L27.675013 134.85938Q28.628138 135.10938 29.159388 135.8125Q29.690638 136.51562 29.690638 137.59375Q29.690638 138.95312 28.846888 139.76562Q28.003138 140.5625 26.487513 140.5625Q24.925013 140.5625 24.065638 139.75Q23.190638 138.9375 23.190638 137.65625Q23.190638 136.40625 24.034388 135.625Q24.878138 134.82812 26.425013 134.82812Q26.518763 134.82812 26.706263 134.82812L26.706263 139.46875Q27.737513 139.40625 28.284388 138.89062Q28.815638 138.375 28.815638 137.59375Q28.815638 137.01562 28.518763 136.60938Q28.206263 136.1875 27.550013 135.95312ZM25.846888 139.40625L25.846888 135.9375Q25.050013 136.0 24.659388 136.32812Q24.050013 136.84375 24.050013 137.64062Q24.050013 138.375 24.534388 138.875Q25.018763 139.35938 25.846888 139.40625ZM29.550013 129.17188L28.768763 129.17188Q29.690638 129.76562 29.690638 130.90625Q29.690638 131.65625 29.284388 132.28125Q28.862513 132.90625 28.128138 133.25Q27.393763 133.59375 26.440638 133.59375Q25.518763 133.59375 24.753138 133.28125Q23.987513 132.96875 23.596888 132.34375Q23.190638 131.71875 23.190638 130.95312Q23.190638 130.39062 23.425013 129.95312Q23.659388 129.51562 24.034388 129.23438L20.956263 129.23438L20.956263 128.1875L29.550013 128.1875L29.550013 129.17188ZM26.440638 132.5Q27.643763 132.5 28.237513 132.0Q28.815638 131.5 28.815638 130.8125Q28.815638 130.125 28.253138 129.64062Q27.690638 129.15625 26.534388 129.15625Q25.253138 129.15625 24.659388 129.65625Q24.065638 130.14062 24.065638 130.85938Q24.065638 131.5625 24.643763 132.03125Q25.206263 132.5 26.440638 132.5ZM29.550013 122.234375L29.550013 123.21875L20.956263 123.21875L20.956263 122.15625L24.018763 122.15625Q23.190638 121.484375 23.190638 120.453125Q23.190638 119.875 23.425013 119.375Q23.643763 118.859375 24.065638 118.53125Q24.487513 118.1875 25.081263 118.0Q25.675013 117.8125 26.346888 117.8125Q27.940638 117.8125 28.815638 118.609375Q29.690638 119.40625 29.690638 120.5Q29.690638 121.609375 28.768763 122.234375L29.550013 122.234375ZM26.393763 122.25Q27.503138 122.25 28.003138 121.9375Q28.815638 121.4375 28.815638 120.59375Q28.815638 119.90625 28.221888 119.40625Q27.628138 118.890625 26.425013 118.890625Q25.206263 118.890625 24.628138 119.375Q24.050013 119.859375 24.050013 120.546875Q24.050013 121.234375 24.659388 121.75Q25.253138 122.25 26.393763 122.25ZM31.940638 116.25L30.956263 116.375Q31.050013 116.03125 31.050013 115.765625Q31.050013 115.421875 30.925013 115.21875Q30.815638 115.0 30.612513 114.859375Q30.440638 114.765625 29.815638 114.53125Q29.737513 114.515625 29.565638 114.4375L23.331263 116.8125L23.331263 115.671875L26.925013 114.375Q27.612513 114.125 28.378138 113.921875Q27.643763 113.734375 26.956263 113.484375L23.331263 112.15625L23.331263 111.109375L29.659388 113.46875Q30.675013 113.859375 31.065638 114.0625Q31.596888 114.34375 31.831263 114.71875Q32.08126 115.078125 32.08126 115.578125Q32.08126 115.875 31.940638 116.25ZM29.550013 104.625L20.956263 107.953125L20.956263 106.71875L27.206263 104.484375Q27.956263 104.21875 28.612513 104.03125Q27.909388 103.828125 27.206263 103.5625L20.956263 101.25L20.956263 100.09375L29.550013 103.453125L29.550013 104.625ZM24.893763 97.875Q24.643763 98.53125 24.206263 98.859375Q23.753138 99.171875 23.143763 99.171875Q22.206263 99.171875 21.565638 98.5Q20.925013 97.8125 20.925013 96.703125Q20.925013 95.578125 21.581263 94.890625Q22.237513 94.203125 23.175013 94.203125Q23.768763 94.203125 24.206263 94.515625Q24.643763 94.828125 24.893763 95.46875Q25.143763 94.671875 25.721888 94.265625Q26.300013 93.859375 27.096888 93.859375Q28.190638 93.859375 28.940638 94.640625Q29.690638 95.40625 29.690638 96.6875Q29.690638 97.953125 28.940638 98.734375Q28.190638 99.515625 27.065638 99.515625Q26.221888 99.515625 25.659388 99.09375Q25.096888 98.65625 24.893763 97.875ZM23.096888 98.09375Q23.706263 98.09375 24.096888 97.703125Q24.487513 97.296875 24.487513 96.671875Q24.487513 96.0625 24.112513 95.671875Q23.721888 95.28125 23.159388 95.28125Q22.581263 95.28125 22.190638 95.6875Q21.784388 96.09375 21.784388 96.6875Q21.784388 97.296875 22.175013 97.703125Q22.565638 98.09375 23.096888 98.09375ZM27.065638 98.421875Q27.518763 98.421875 27.940638 98.21875Q28.362513 98.0 28.596888 97.578125Q28.831263 97.15625 28.831263 96.671875Q28.831263 95.921875 28.346888 95.4375Q27.862513 94.9375 27.112513 94.9375Q26.346888 94.9375 25.846888 95.4375Q25.346888 95.9375 25.346888 96.703125Q25.346888 97.453125 25.846888 97.9375Q26.331263 98.421875 27.065638 98.421875Z" fill-rule="nonzero"/><path fill="#000000" d="M58.05 278.33337Q58.05 276.80212 58.3625 275.88025Q58.675 274.94275 59.284374 274.44275Q59.909374 273.94275 60.846874 273.94275Q61.534374 273.94275 62.05 274.224Q62.58125 274.50525 62.925 275.0365Q63.26875 275.55212 63.45625 276.30212Q63.64375 277.05212 63.64375 278.33337Q63.64375 279.849 63.33125 280.77087Q63.034374 281.69275 62.409374 282.20837Q61.8 282.70837 60.846874 282.70837Q59.6125 282.70837 58.89375 281.81775Q58.05 280.75525 58.05 278.33337ZM59.128124 278.33337Q59.128124 280.44275 59.628124 281.14587Q60.128124 281.849 60.846874 281.849Q61.58125 281.849 62.065624 281.14587Q62.565624 280.44275 62.565624 278.33337Q62.565624 276.20837 62.065624 275.52087Q61.58125 274.81775 60.83125 274.81775Q60.1125 274.81775 59.675 275.42712Q59.128124 276.20837 59.128124 278.33337ZM65.64375 282.56775L65.64375 281.36462L66.84688 281.36462L66.84688 282.56775L65.64375 282.56775ZM68.05 278.33337Q68.05 276.80212 68.3625 275.88025Q68.675 274.94275 69.28438 274.44275Q69.90938 273.94275 70.84688 273.94275Q71.53438 273.94275 72.05 274.224Q72.58125 274.50525 72.925 275.0365Q73.26875 275.55212 73.45625 276.30212Q73.64375 277.05212 73.64375 278.33337Q73.64375 279.849 73.33125 280.77087Q73.03438 281.69275 72.40938 282.20837Q71.8 282.70837 70.84688 282.70837Q69.6125 282.70837 68.89375 281.81775Q68.05 280.75525 68.05 278.33337ZM69.12813 278.33337Q69.12813 280.44275 69.62813 281.14587Q70.12813 281.849 70.84688 281.849Q71.58125 281.849 72.06563 281.14587Q72.56563 280.44275 72.56563 278.33337Q72.56563 276.20837 72.06563 275.52087Q71.58125 274.81775 70.83125 274.81775Q70.1125 274.81775 69.675 275.42712Q69.12813 276.20837 69.12813 278.33337ZM75.05 278.33337Q75.05 276.80212 75.3625 275.88025Q75.675 274.94275 76.28438 274.44275Q76.90938 273.94275 77.84688 273.94275Q78.53438 273.94275 79.05 274.224Q79.58125 274.50525 79.925 275.0365Q80.26875 275.55212 80.45625 276.30212Q80.64375 277.05212 80.64375 278.33337Q80.64375 279.849 80.33125 280.77087Q80.03438 281.69275 79.40938 282.20837Q78.8 282.70837 77.84688 282.70837Q76.6125 282.70837 75.89375 281.81775Q75.05 280.75525 75.05 278.33337ZM76.12813 278.33337Q76.12813 280.44275 76.62813 281.14587Q77.12813 281.849 77.84688 281.849Q78.58125 281.849 79.06563 281.14587Q79.56563 280.44275 79.56563 278.33337Q79.56563 276.20837 79.06563 275.52087Q78.58125 274.81775 77.83125 274.81775Q77.1125 274.81775 76.675 275.42712Q76.12813 276.20837 76.12813 278.33337ZM82.25313 276.0365Q82.25313 275.11462 82.70625 274.474Q83.175 273.83337 84.05 273.83337Q84.8625 273.83337 85.39375 274.4115Q85.925 274.98962 85.925 276.099Q85.925 277.19275 85.37813 277.7865Q84.84688 278.36462 84.06563 278.36462Q83.28438 278.36462 82.76875 277.7865Q82.25313 277.20837 82.25313 276.0365ZM84.08125 274.55212Q83.69063 274.55212 83.425 274.89587Q83.175 275.23962 83.175 276.14587Q83.175 276.974 83.425 277.31775Q83.69063 277.64587 84.08125 277.64587Q84.4875 277.64587 84.7375 277.30212Q85.00313 276.95837 85.00313 276.06775Q85.00313 275.224 84.7375 274.89587Q84.47188 274.55212 84.08125 274.55212ZM84.08125 282.88025L88.78438 273.83337L89.64375 273.83337L84.95625 282.88025L84.08125 282.88025ZM87.8 280.55212Q87.8 279.63025 88.25313 278.98962Q88.72188 278.349 89.6125 278.349Q90.425 278.349 90.95625 278.92712Q91.4875 279.48962 91.4875 280.61462Q91.4875 281.70837 90.94063 282.30212Q90.40938 282.88025 89.6125 282.88025Q88.84688 282.88025 88.31563 282.30212Q87.8 281.724 87.8 280.55212ZM89.64375 279.06775Q89.2375 279.06775 88.97188 279.4115Q88.72188 279.75525 88.72188 280.6615Q88.72188 281.474 88.9875 281.81775Q89.25313 282.1615 89.64375 282.1615Q90.03438 282.1615 90.3 281.81775Q90.56563 281.474 90.56563 280.56775Q90.56563 279.73962 90.3 279.4115Q90.03438 279.06775 89.64375 279.06775Z" fill-rule="nonzero"/><path fill="#000000" d="M55.01875 231.9642L53.971874 231.9642L53.971874 225.24545Q53.58125 225.60483 52.95625 225.97983Q52.346874 226.3392 51.8625 226.51108L51.8625 225.49545Q52.7375 225.07358 53.39375 224.49545Q54.065624 223.9017 54.346874 223.3392L55.01875 223.3392L55.01875 231.9642ZM58.05 227.72983Q58.05 226.19858 58.3625 225.2767Q58.675 224.3392 59.284374 223.8392Q59.909374 223.3392 60.846874 223.3392Q61.534374 223.3392 62.05 223.62045Q62.58125 223.9017 62.925 224.43295Q63.26875 224.94858 63.45625 225.69858Q63.64375 226.44858 63.64375 227.72983Q63.64375 229.24545 63.33125 230.16733Q63.034374 231.0892 62.409374 231.60483Q61.8 232.10483 60.846874 232.10483Q59.6125 232.10483 58.89375 231.2142Q58.05 230.1517 58.05 227.72983ZM59.128124 227.72983Q59.128124 229.8392 59.628124 230.54233Q60.128124 231.24545 60.846874 231.24545Q61.58125 231.24545 62.065624 230.54233Q62.565624 229.8392 62.565624 227.72983Q62.565624 225.60483 62.065624 224.91733Q61.58125 224.2142 60.83125 224.2142Q60.1125 224.2142 59.675 224.82358Q59.128124 225.60483 59.128124 227.72983ZM65.64375 231.9642L65.64375 230.76108L66.84688 230.76108L66.84688 231.9642L65.64375 231.9642ZM68.05 227.72983Q68.05 226.19858 68.3625 225.2767Q68.675 224.3392 69.28438 223.8392Q69.90938 223.3392 70.84688 223.3392Q71.53438 223.3392 72.05 223.62045Q72.58125 223.9017 72.925 224.43295Q73.26875 224.94858 73.45625 225.69858Q73.64375 226.44858 73.64375 227.72983Q73.64375 229.24545 73.33125 230.16733Q73.03438 231.0892 72.40938 231.60483Q71.8 232.10483 70.84688 232.10483Q69.6125 232.10483 68.89375 231.2142Q68.05 230.1517 68.05 227.72983ZM69.12813 227.72983Q69.12813 229.8392 69.62813 230.54233Q70.12813 231.24545 70.84688 231.24545Q71.58125 231.24545 72.06563 230.54233Q72.56563 229.8392 72.56563 227.72983Q72.56563 225.60483 72.06563 224.91733Q71.58125 224.2142 70.83125 224.2142Q70.1125 224.2142 69.675 224.82358Q69.12813 225.60483 69.12813 227.72983ZM75.05 227.72983Q75.05 226.19858 75.3625 225.2767Q75.675 224.3392 76.28438 223.8392Q76.90938 223.3392 77.84688 223.3392Q78.53438 223.3392 79.05 223.62045Q79.58125 223.9017 79.925 224.43295Q80.26875 224.94858 80.45625 225.69858Q80.64375 226.44858 80.64375 227.72983Q80.64375 229.24545 80.33125 230.16733Q80.03438 231.0892 79.40938 231.60483Q78.8 232.10483 77.84688 232.10483Q76.6125 232.10483 75.89375 231.2142Q75.05 230.1517 75.05 227.72983ZM76.12813 227.72983Q76.12813 229.8392 76.62813 230.54233Q77.12813 231.24545 77.84688 231.24545Q78.58125 231.24545 79.06563 230.54233Q79.56563 229.8392 79.56563 227.72983Q79.56563 225.60483 79.06563 224.91733Q78.58125 224.2142 77.83125 224.2142Q77.1125 224.2142 76.675 224.82358Q76.12813 225.60483 76.12813 227.72983ZM82.25313 225.43295Q82.25313 224.51108 82.70625 223.87045Q83.175 223.22983 84.05 223.22983Q84.8625 223.22983 85.39375 223.80795Q85.925 224.38608 85.925 225.49545Q85.925 226.5892 85.37813 227.18295Q84.84688 227.76108 84.06563 227.76108Q83.28438 227.76108 82.76875 227.18295Q82.25313 226.60483 82.25313 225.43295ZM84.08125 223.94858Q83.69063 223.94858 83.425 224.29233Q83.175 224.63608 83.175 225.54233Q83.175 226.37045 83.425 226.7142Q83.69063 227.04233 84.08125 227.04233Q84.4875 227.04233 84.7375 226.69858Q85.00313 226.35483 85.00313 225.4642Q85.00313 224.62045 84.7375 224.29233Q84.47188 223.94858 84.08125 223.94858ZM84.08125 232.2767L88.78438 223.22983L89.64375 223.22983L84.95625 232.2767L84.08125 232.2767ZM87.8 229.94858Q87.8 229.0267 88.25313 228.38608Q88.72188 227.74545 89.6125 227.74545Q90.425 227.74545 90.95625 228.32358Q91.4875 228.88608 91.4875 230.01108Q91.4875 231.10483 90.94063 231.69858Q90.40938 232.2767 89.6125 232.2767Q88.84688 232.2767 88.31563 231.69858Q87.8 231.12045 87.8 229.94858ZM89.64375 228.4642Q89.2375 228.4642 88.97188 228.80795Q88.72188 229.1517 88.72188 230.05795Q88.72188 230.87045 88.9875 231.2142Q89.25313 231.55795 89.64375 231.55795Q90.03438 231.55795 90.3 231.2142Q90.56563 230.87045 90.56563 229.9642Q90.56563 229.13608 90.3 228.80795Q90.03438 228.4642 89.64375 228.4642Z" fill-rule="nonzero"/><path fill="#000000" d="M56.596874 180.34503L56.596874 181.36066L50.909374 181.36066Q50.909374 180.98566 51.034374 180.62628Q51.253124 180.04816 51.721874 179.48566Q52.20625 178.92316 53.1125 178.18878Q54.51875 177.03253 55.003124 176.36066Q55.503124 175.68878 55.503124 175.09503Q55.503124 174.47003 55.05 174.04816Q54.596874 173.61066 53.878124 173.61066Q53.1125 173.61066 52.659374 174.06378Q52.20625 174.5169 52.190624 175.3294L51.1125 175.22003Q51.221874 174.00128 51.940624 173.37628Q52.675 172.73566 53.909374 172.73566Q55.14375 172.73566 55.8625 173.42316Q56.58125 174.11066 56.58125 175.12628Q56.58125 175.6419 56.3625 176.1419Q56.159374 176.62628 55.659374 177.18878Q55.175 177.73566 54.05 178.68878Q53.096874 179.48566 52.815624 179.78253Q52.55 180.06378 52.378124 180.34503L56.596874 180.34503ZM58.05 177.12628Q58.05 175.59503 58.3625 174.67316Q58.675 173.73566 59.284374 173.23566Q59.909374 172.73566 60.846874 172.73566Q61.534374 172.73566 62.05 173.0169Q62.58125 173.29816 62.925 173.8294Q63.26875 174.34503 63.45625 175.09503Q63.64375 175.84503 63.64375 177.12628Q63.64375 178.6419 63.33125 179.56378Q63.034374 180.48566 62.409374 181.00128Q61.8 181.50128 60.846874 181.50128Q59.6125 181.50128 58.89375 180.61066Q58.05 179.54816 58.05 177.12628ZM59.128124 177.12628Q59.128124 179.23566 59.628124 179.93878Q60.128124 180.6419 60.846874 180.6419Q61.58125 180.6419 62.065624 179.93878Q62.565624 179.23566 62.565624 177.12628Q62.565624 175.00128 62.065624 174.31378Q61.58125 173.61066 60.83125 173.61066Q60.1125 173.61066 59.675 174.22003Q59.128124 175.00128 59.128124 177.12628ZM65.64375 181.36066L65.64375 180.15753L66.84688 180.15753L66.84688 181.36066L65.64375 181.36066ZM68.05 177.12628Q68.05 175.59503 68.3625 174.67316Q68.675 173.73566 69.28438 173.23566Q69.90938 172.73566 70.84688 172.73566Q71.53438 172.73566 72.05 173.0169Q72.58125 173.29816 72.925 173.8294Q73.26875 174.34503 73.45625 175.09503Q73.64375 175.84503 73.64375 177.12628Q73.64375 178.6419 73.33125 179.56378Q73.03438 180.48566 72.40938 181.00128Q71.8 181.50128 70.84688 181.50128Q69.6125 181.50128 68.89375 180.61066Q68.05 179.54816 68.05 177.12628ZM69.12813 177.12628Q69.12813 179.23566 69.62813 179.93878Q70.12813 180.6419 70.84688 180.6419Q71.58125 180.6419 72.06563 179.93878Q72.56563 179.23566 72.56563 177.12628Q72.56563 175.00128 72.06563 174.31378Q71.58125 173.61066 70.83125 173.61066Q70.1125 173.61066 69.675 174.22003Q69.12813 175.00128 69.12813 177.12628ZM75.05 177.12628Q75.05 175.59503 75.3625 174.67316Q75.675 173.73566 76.28438 173.23566Q76.90938 172.73566 77.84688 172.73566Q78.53438 172.73566 79.05 173.0169Q79.58125 173.29816 79.925 173.8294Q80.26875 174.34503 80.45625 175.09503Q80.64375 175.84503 80.64375 177.12628Q80.64375 178.6419 80.33125 179.56378Q80.03438 180.48566 79.40938 181.00128Q78.8 181.50128 77.84688 181.50128Q76.6125 181.50128 75.89375 180.61066Q75.05 179.54816 75.05 177.12628ZM76.12813 177.12628Q76.12813 179.23566 76.62813 179.93878Q77.12813 180.6419 77.84688 180.6419Q78.58125 180.6419 79.06563 179.93878Q79.56563 179.23566 79.56563 177.12628Q79.56563 175.00128 79.06563 174.31378Q78.58125 173.61066 77.83125 173.61066Q77.1125 173.61066 76.675 174.22003Q76.12813 175.00128 76.12813 177.12628ZM82.25313 174.8294Q82.25313 173.90753 82.70625 173.2669Q83.175 172.62628 84.05 172.62628Q84.8625 172.62628 85.39375 173.2044Q85.925 173.78253 85.925 174.8919Q85.925 175.98566 85.37813 176.5794Q84.84688 177.15753 84.06563 177.15753Q83.28438 177.15753 82.76875 176.5794Q82.25313 176.00128 82.25313 174.8294ZM84.08125 173.34503Q83.69063 173.34503 83.425 173.68878Q83.175 174.03253 83.175 174.93878Q83.175 175.7669 83.425 176.11066Q83.69063 176.43878 84.08125 176.43878Q84.4875 176.43878 84.7375 176.09503Q85.00313 175.75128 85.00313 174.86066Q85.00313 174.0169 84.7375 173.68878Q84.47188 173.34503 84.08125 173.34503ZM84.08125 181.67316L88.78438 172.62628L89.64375 172.62628L84.95625 181.67316L84.08125 181.67316ZM87.8 179.34503Q87.8 178.42316 88.25313 177.78253Q88.72188 177.1419 89.6125 177.1419Q90.425 177.1419 90.95625 177.72003Q91.4875 178.28253 91.4875 179.40753Q91.4875 180.50128 90.94063 181.09503Q90.40938 181.67316 89.6125 181.67316Q88.84688 181.67316 88.31563 181.09503Q87.8 180.5169 87.8 179.34503ZM89.64375 177.86066Q89.2375 177.86066 88.97188 178.2044Q88.72188 178.54816 88.72188 179.4544Q88.72188 180.2669 88.9875 180.61066Q89.25313 180.9544 89.64375 180.9544Q90.03438 180.9544 90.3 180.61066Q90.56563 180.2669 90.56563 179.36066Q90.56563 178.53253 90.3 178.2044Q90.03438 177.86066 89.64375 177.86066Z" fill-rule="nonzero"/><path fill="#000000" d="M51.05 128.49147L52.1125 128.35085Q52.284374 129.24147 52.721874 129.64772Q53.159374 130.03835 53.784374 130.03835Q54.534374 130.03835 55.05 129.52272Q55.565624 129.0071 55.565624 128.24147Q55.565624 127.52272 55.08125 127.05397Q54.6125 126.569595 53.878124 126.569595Q53.58125 126.569595 53.128124 126.694595L53.253124 125.757095Q53.3625 125.77272 53.425 125.77272Q54.096874 125.77272 54.628124 125.42897Q55.175 125.069595 55.175 124.33522Q55.175 123.757095 54.784374 123.382095Q54.39375 122.99147 53.76875 122.99147Q53.159374 122.99147 52.7375 123.382095Q52.33125 123.77272 52.221874 124.538345L51.159374 124.350845Q51.346874 123.30397 52.034374 122.725845Q52.721874 122.132095 53.7375 122.132095Q54.440624 122.132095 55.034374 122.444595Q55.628124 122.74147 55.940624 123.257095Q56.253124 123.77272 56.253124 124.36647Q56.253124 124.913345 55.95625 125.382095Q55.659374 125.83522 55.08125 126.100845Q55.83125 126.27272 56.253124 126.83522Q56.675 127.382095 56.675 128.22585Q56.675 129.35085 55.846874 130.1321Q55.034374 130.91335 53.784374 130.91335Q52.659374 130.91335 51.909374 130.24147Q51.159374 129.55397 51.05 128.49147ZM58.05 126.52272Q58.05 124.99147 58.3625 124.069595Q58.675 123.132095 59.284374 122.632095Q59.909374 122.132095 60.846874 122.132095Q61.534374 122.132095 62.05 122.413345Q62.58125 122.694595 62.925 123.225845Q63.26875 123.74147 63.45625 124.49147Q63.64375 125.24147 63.64375 126.52272Q63.64375 128.03835 63.33125 128.96022Q63.034374 129.8821 62.409374 130.39772Q61.8 130.89772 60.846874 130.89772Q59.6125 130.89772 58.89375 130.0071Q58.05 128.9446 58.05 126.52272ZM59.128124 126.52272Q59.128124 128.6321 59.628124 129.33522Q60.128124 130.03835 60.846874 130.03835Q61.58125 130.03835 62.065624 129.33522Q62.565624 128.6321 62.565624 126.52272Q62.565624 124.39772 62.065624 123.71022Q61.58125 123.007095 60.83125 123.007095Q60.1125 123.007095 59.675 123.61647Q59.128124 124.39772 59.128124 126.52272ZM65.64375 130.7571L65.64375 129.55397L66.84688 129.55397L66.84688 130.7571L65.64375 130.7571ZM68.05 126.52272Q68.05 124.99147 68.3625 124.069595Q68.675 123.132095 69.28438 122.632095Q69.90938 122.132095 70.84688 122.132095Q71.53438 122.132095 72.05 122.413345Q72.58125 122.694595 72.925 123.225845Q73.26875 123.74147 73.45625 124.49147Q73.64375 125.24147 73.64375 126.52272Q73.64375 128.03835 73.33125 128.96022Q73.03438 129.8821 72.40938 130.39772Q71.8 130.89772 70.84688 130.89772Q69.6125 130.89772 68.89375 130.0071Q68.05 128.9446 68.05 126.52272ZM69.12813 126.52272Q69.12813 128.6321 69.62813 129.33522Q70.12813 130.03835 70.84688 130.03835Q71.58125 130.03835 72.06563 129.33522Q72.56563 128.6321 72.56563 126.52272Q72.56563 124.39772 72.06563 123.71022Q71.58125 123.007095 70.83125 123.007095Q70.1125 123.007095 69.675 123.61647Q69.12813 124.39772 69.12813 126.52272ZM75.05 126.52272Q75.05 124.99147 75.3625 124.069595Q75.675 123.132095 76.28438 122.632095Q76.90938 122.132095 77.84688 122.132095Q78.53438 122.132095 79.05 122.413345Q79.58125 122.694595 79.925 123.225845Q80.26875 123.74147 80.45625 124.49147Q80.64375 125.24147 80.64375 126.52272Q80.64375 128.03835 80.33125 128.96022Q80.03438 129.8821 79.40938 130.39772Q78.8 130.89772 77.84688 130.89772Q76.6125 130.89772 75.89375 130.0071Q75.05 128.9446 75.05 126.52272ZM76.12813 126.52272Q76.12813 128.6321 76.62813 129.33522Q77.12813 130.03835 77.84688 130.03835Q78.58125 130.03835 79.06563 129.33522Q79.56563 128.6321 79.56563 126.52272Q79.56563 124.39772 79.06563 123.71022Q78.58125 123.007095 77.83125 123.007095Q77.1125 123.007095 76.675 123.61647Q76.12813 124.39772 76.12813 126.52272ZM82.25313 124.225845Q82.25313 123.30397 82.70625 122.663345Q83.175 122.02272 84.05 122.02272Q84.8625 122.02272 85.39375 122.600845Q85.925 123.17897 85.925 124.288345Q85.925 125.382095 85.37813 125.975845Q84.84688 126.55397 84.06563 126.55397Q83.28438 126.55397 82.76875 125.975845Q82.25313 125.39772 82.25313 124.225845ZM84.08125 122.74147Q83.69063 122.74147 83.425 123.08522Q83.175 123.42897 83.175 124.33522Q83.175 125.163345 83.425 125.507095Q83.69063 125.83522 84.08125 125.83522Q84.4875 125.83522 84.7375 125.49147Q85.00313 125.14772 85.00313 124.257095Q85.00313 123.413345 84.7375 123.08522Q84.47188 122.74147 84.08125 122.74147ZM84.08125 131.0696L88.78438 122.02272L89.64375 122.02272L84.95625 131.0696L84.08125 131.0696ZM87.8 128.74147Q87.8 127.819595 88.25313 127.17897Q88.72188 126.538345 89.6125 126.538345Q90.425 126.538345 90.95625 127.11647Q91.4875 127.67897 91.4875 128.80397Q91.4875 129.89772 90.94063 130.49147Q90.40938 131.0696 89.6125 131.0696Q88.84688 131.0696 88.31563 130.49147Q87.8 129.91335 87.8 128.74147ZM89.64375 127.257095Q89.2375 127.257095 88.97188 127.600845Q88.72188 127.944595 88.72188 128.85085Q88.72188 129.66335 88.9875 130.0071Q89.25313 130.35085 89.64375 130.35085Q90.03438 130.35085 90.3 130.0071Q90.56563 129.66335 90.56563 128.7571Q90.56563 127.92897 90.3 127.600845Q90.03438 127.257095 89.64375 127.257095Z" fill-rule="nonzero"/><path fill="#000000" d="M54.425 80.15355L54.425 78.09105L50.70625 78.09105L50.70625 77.1223L54.628124 71.5598L55.4875 71.5598L55.4875 77.1223L56.64375 77.1223L56.64375 78.09105L55.4875 78.09105L55.4875 80.15355L54.425 80.15355ZM54.425 77.1223L54.425 73.262924L51.7375 77.1223L54.425 77.1223ZM58.05 75.919174Q58.05 74.387924 58.3625 73.46605Q58.675 72.52855 59.284374 72.02855Q59.909374 71.52855 60.846874 71.52855Q61.534374 71.52855 62.05 71.8098Q62.58125 72.09105 62.925 72.6223Q63.26875 73.137924 63.45625 73.887924Q63.64375 74.637924 63.64375 75.919174Q63.64375 77.4348 63.33125 78.356674Q63.034374 79.27855 62.409374 79.794174Q61.8 80.294174 60.846874 80.294174Q59.6125 80.294174 58.89375 79.40355Q58.05 78.34105 58.05 75.919174ZM59.128124 75.919174Q59.128124 78.02855 59.628124 78.731674Q60.128124 79.4348 60.846874 79.4348Q61.58125 79.4348 62.065624 78.731674Q62.565624 78.02855 62.565624 75.919174Q62.565624 73.794174 62.065624 73.106674Q61.58125 72.40355 60.83125 72.40355Q60.1125 72.40355 59.675 73.012924Q59.128124 73.794174 59.128124 75.919174ZM65.64375 80.15355L65.64375 78.950424L66.84688 78.950424L66.84688 80.15355L65.64375 80.15355ZM68.05 75.919174Q68.05 74.387924 68.3625 73.46605Q68.675 72.52855 69.28438 72.02855Q69.90938 71.52855 70.84688 71.52855Q71.53438 71.52855 72.05 71.8098Q72.58125 72.09105 72.925 72.6223Q73.26875 73.137924 73.45625 73.887924Q73.64375 74.637924 73.64375 75.919174Q73.64375 77.4348 73.33125 78.356674Q73.03438 79.27855 72.40938 79.794174Q71.8 80.294174 70.84688 80.294174Q69.6125 80.294174 68.89375 79.40355Q68.05 78.34105 68.05 75.919174ZM69.12813 75.919174Q69.12813 78.02855 69.62813 78.731674Q70.12813 79.4348 70.84688 79.4348Q71.58125 79.4348 72.06563 78.731674Q72.56563 78.02855 72.56563 75.919174Q72.56563 73.794174 72.06563 73.106674Q71.58125 72.40355 70.83125 72.40355Q70.1125 72.40355 69.675 73.012924Q69.12813 73.794174 69.12813 75.919174ZM75.05 75.919174Q75.05 74.387924 75.3625 73.46605Q75.675 72.52855 76.28438 72.02855Q76.90938 71.52855 77.84688 71.52855Q78.53438 71.52855 79.05 71.8098Q79.58125 72.09105 79.925 72.6223Q80.26875 73.137924 80.45625 73.887924Q80.64375 74.637924 80.64375 75.919174Q80.64375 77.4348 80.33125 78.356674Q80.03438 79.27855 79.40938 79.794174Q78.8 80.294174 77.84688 80.294174Q76.6125 80.294174 75.89375 79.40355Q75.05 78.34105 75.05 75.919174ZM76.12813 75.919174Q76.12813 78.02855 76.62813 78.731674Q77.12813 79.4348 77.84688 79.4348Q78.58125 79.4348 79.06563 78.731674Q79.56563 78.02855 79.56563 75.919174Q79.56563 73.794174 79.06563 73.106674Q78.58125 72.40355 77.83125 72.40355Q77.1125 72.40355 76.675 73.012924Q76.12813 73.794174 76.12813 75.919174ZM82.25313 73.6223Q82.25313 72.700424 82.70625 72.0598Q83.175 71.419174 84.05 71.419174Q84.8625 71.419174 85.39375 71.9973Q85.925 72.575424 85.925 73.6848Q85.925 74.77855 85.37813 75.3723Q84.84688 75.950424 84.06563 75.950424Q83.28438 75.950424 82.76875 75.3723Q82.25313 74.794174 82.25313 73.6223ZM84.08125 72.137924Q83.69063 72.137924 83.425 72.481674Q83.175 72.825424 83.175 73.731674Q83.175 74.5598 83.425 74.90355Q83.69063 75.231674 84.08125 75.231674Q84.4875 75.231674 84.7375 74.887924Q85.00313 74.544174 85.00313 73.65355Q85.00313 72.8098 84.7375 72.481674Q84.47188 72.137924 84.08125 72.137924ZM84.08125 80.46605L88.78438 71.419174L89.64375 71.419174L84.95625 80.46605L84.08125 80.46605ZM87.8 78.137924Q87.8 77.21605 88.25313 76.575424Q88.72188 75.9348 89.6125 75.9348Q90.425 75.9348 90.95625 76.512924Q91.4875 77.075424 91.4875 78.200424Q91.4875 79.294174 90.94063 79.887924Q90.40938 80.46605 89.6125 80.46605Q88.84688 80.46605 88.31563 79.887924Q87.8 79.3098 87.8 78.137924ZM89.64375 76.65355Q89.2375 76.65355 88.97188 76.9973Q88.72188 77.34105 88.72188 78.2473Q88.72188 79.0598 88.9875 79.40355Q89.25313 79.7473 89.64375 79.7473Q90.03438 79.7473 90.3 79.40355Q90.56563 79.0598 90.56563 78.15355Q90.56563 77.325424 90.3 76.9973Q90.03438 76.65355 89.64375 76.65355Z" fill-rule="nonzero"/><path fill="#000000" d="M51.05 27.3L52.159374 27.20625Q52.284374 28.01875 52.721874 28.425Q53.175 28.83125 53.815624 28.83125Q54.565624 28.83125 55.096874 28.253124Q55.628124 27.675 55.628124 26.7375Q55.628124 25.83125 55.1125 25.315624Q54.6125 24.784374 53.784374 24.784374Q53.284374 24.784374 52.8625 25.01875Q52.45625 25.253124 52.221874 25.6125L51.2375 25.4875L52.065624 21.08125L56.346874 21.08125L56.346874 22.08125L52.909374 22.08125L52.45625 24.39375Q53.221874 23.846874 54.065624 23.846874Q55.190624 23.846874 55.95625 24.628124Q56.7375 25.409374 56.7375 26.64375Q56.7375 27.8 56.065624 28.659374Q55.2375 29.690624 53.815624 29.690624Q52.64375 29.690624 51.89375 29.034374Q51.159374 28.378124 51.05 27.3ZM58.05 25.315624Q58.05 23.784374 58.3625 22.8625Q58.675 21.925 59.284374 21.425Q59.909374 20.925 60.846874 20.925Q61.534374 20.925 62.05 21.20625Q62.58125 21.4875 62.925 22.01875Q63.26875 22.534374 63.45625 23.284374Q63.64375 24.034374 63.64375 25.315624Q63.64375 26.83125 63.33125 27.753124Q63.034374 28.675 62.409374 29.190624Q61.8 29.690624 60.846874 29.690624Q59.6125 29.690624 58.89375 28.8Q58.05 27.7375 58.05 25.315624ZM59.128124 25.315624Q59.128124 27.425 59.628124 28.128124Q60.128124 28.83125 60.846874 28.83125Q61.58125 28.83125 62.065624 28.128124Q62.565624 27.425 62.565624 25.315624Q62.565624 23.190624 62.065624 22.503124Q61.58125 21.8 60.83125 21.8Q60.1125 21.8 59.675 22.409374Q59.128124 23.190624 59.128124 25.315624ZM65.64375 29.55L65.64375 28.346874L66.84688 28.346874L66.84688 29.55L65.64375 29.55ZM68.05 25.315624Q68.05 23.784374 68.3625 22.8625Q68.675 21.925 69.28438 21.425Q69.90938 20.925 70.84688 20.925Q71.53438 20.925 72.05 21.20625Q72.58125 21.4875 72.925 22.01875Q73.26875 22.534374 73.45625 23.284374Q73.64375 24.034374 73.64375 25.315624Q73.64375 26.83125 73.33125 27.753124Q73.03438 28.675 72.40938 29.190624Q71.8 29.690624 70.84688 29.690624Q69.6125 29.690624 68.89375 28.8Q68.05 27.7375 68.05 25.315624ZM69.12813 25.315624Q69.12813 27.425 69.62813 28.128124Q70.12813 28.83125 70.84688 28.83125Q71.58125 28.83125 72.06563 28.128124Q72.56563 27.425 72.56563 25.315624Q72.56563 23.190624 72.06563 22.503124Q71.58125 21.8 70.83125 21.8Q70.1125 21.8 69.675 22.409374Q69.12813 23.190624 69.12813 25.315624ZM75.05 25.315624Q75.05 23.784374 75.3625 22.8625Q75.675 21.925 76.28438 21.425Q76.90938 20.925 77.84688 20.925Q78.53438 20.925 79.05 21.20625Q79.58125 21.4875 79.925 22.01875Q80.26875 22.534374 80.45625 23.284374Q80.64375 24.034374 80.64375 25.315624Q80.64375 26.83125 80.33125 27.753124Q80.03438 28.675 79.40938 29.190624Q78.8 29.690624 77.84688 29.690624Q76.6125 29.690624 75.89375 28.8Q75.05 27.7375 75.05 25.315624ZM76.12813 25.315624Q76.12813 27.425 76.62813 28.128124Q77.12813 28.83125 77.84688 28.83125Q78.58125 28.83125 79.06563 28.128124Q79.56563 27.425 79.56563 25.315624Q79.56563 23.190624 79.06563 22.503124Q78.58125 21.8 77.83125 21.8Q77.1125 21.8 76.675 22.409374Q76.12813 23.190624 76.12813 25.315624ZM82.25313 23.01875Q82.25313 22.096874 82.70625 21.45625Q83.175 20.815624 84.05 20.815624Q84.8625 20.815624 85.39375 21.39375Q85.925 21.971874 85.925 23.08125Q85.925 24.175 85.37813 24.76875Q84.84688 25.346874 84.06563 25.346874Q83.28438 25.346874 82.76875 24.76875Q82.25313 24.190624 82.25313 23.01875ZM84.08125 21.534374Q83.69063 21.534374 83.425 21.878124Q83.175 22.221874 83.175 23.128124Q83.175 23.95625 83.425 24.3Q83.69063 24.628124 84.08125 24.628124Q84.4875 24.628124 84.7375 24.284374Q85.00313 23.940624 85.00313 23.05Q85.00313 22.20625 84.7375 21.878124Q84.47188 21.534374 84.08125 21.534374ZM84.08125 29.8625L88.78438 20.815624L89.64375 20.815624L84.95625 29.8625L84.08125 29.8625ZM87.8 27.534374Q87.8 26.6125 88.25313 25.971874Q88.72188 25.33125 89.6125 25.33125Q90.425 25.33125 90.95625 25.909374Q91.4875 26.471874 91.4875 27.596874Q91.4875 28.690624 90.94063 29.284374Q90.40938 29.8625 89.6125 29.8625Q88.84688 29.8625 88.31563 29.284374Q87.8 28.70625 87.8 27.534374ZM89.64375 26.05Q89.2375 26.05 88.97188 26.39375Q88.72188 26.7375 88.72188 27.64375Q88.72188 28.45625 88.9875 28.8Q89.25313 29.14375 89.64375 29.14375Q90.03438 29.14375 90.3 28.8Q90.56563 28.45625 90.56563 27.55Q90.56563 26.721874 90.3 26.39375Q90.03438 26.05 89.64375 26.05Z" fill-rule="nonzero"/><path fill="#000000" d="M120.57206 317.13885L114.49536 311.06213L117.19121 308.3663Q118.0088 307.5487 118.59437 307.2946Q119.17995 307.04047 119.853905 307.2062Q120.516815 307.36087 121.014 307.85806Q121.66586 308.50992 121.687965 309.3717Q121.71006 310.2335 120.958755 311.22787Q121.433846 311.06213 121.7432 311.04004Q122.41717 311.0069 123.21266 311.1837L125.9306 311.7803L124.91414 312.79675L122.85911 312.33273Q121.953125 312.13385 121.433846 312.0786Q120.92561 312.01233 120.627304 312.08966Q120.328995 312.1449 120.08592 312.2775Q119.931244 312.38797 119.62189 312.69733L118.68276 313.63644L121.3786 316.3323L120.57206 317.13885ZM117.9867 312.9404L119.72132 311.20578Q120.2627 310.6644 120.46158 310.24457Q120.660446 309.8026 120.57206 309.40488Q120.48367 308.98502 120.18536 308.6867Q119.75447 308.25583 119.157845 308.30002Q118.57227 308.33316 117.898315 309.0071L115.97587 310.92957L117.9867 312.9404ZM128.42758 306.4549L129.28937 305.7699Q129.78654 306.62064 129.66501 307.49347Q129.54347 308.3663 128.78113 309.12866Q127.81991 310.08987 126.64876 310.06778Q125.48866 310.03464 124.416954 308.96292Q123.312096 307.85806 123.27895 306.67587Q123.23476 305.48264 124.14074 304.57666Q125.02462 303.69278 126.173676 303.73697Q127.33377 303.7701 128.42758 304.86392Q128.49387 304.9302 128.62645 305.06277L125.34503 308.3442Q126.11843 309.0292 126.86973 309.0513Q127.609985 309.06235 128.16241 308.50992Q128.57121 308.10114 128.64854 307.60394Q128.72589 307.08466 128.42758 306.4549ZM124.781555 307.69235L127.23433 305.23956Q126.62666 304.72028 126.11843 304.6761Q125.32294 304.6098 124.75946 305.17328Q124.24017 305.69257 124.229126 306.3886Q124.229126 307.0736 124.781555 307.69235ZM134.63686 303.07404L134.08443 302.5216Q134.31645 303.59332 133.5099 304.39987Q132.97957 304.9302 132.25037 305.08487Q131.51012 305.22852 130.74777 304.9523Q129.98541 304.6761 129.31146 304.00214Q128.65959 303.35025 128.33919 302.58792Q128.01878 301.82556 128.18451 301.10742Q128.33919 300.3782 128.88057 299.83682Q129.2783 299.4391 129.7534 299.29544Q130.22849 299.15182 130.69252 299.2181L128.51596 297.04153L129.25621 296.3013L135.33292 302.378L134.63686 303.07404ZM130.08485 303.22873Q130.9356 304.07947 131.709 304.14575Q132.47134 304.201 132.95747 303.71487Q133.44362 303.22873 133.38837 302.48846Q133.33313 301.74823 132.51553 300.93063Q131.60956 300.02466 130.83615 299.95837Q130.0738 299.881 129.56557 300.38925Q129.06839 300.88644 129.14574 301.62668Q129.21202 302.3559 130.08485 303.22873ZM139.58661 298.1243L139.03418 297.57187Q139.26619 298.6436 138.45966 299.45013Q137.92932 299.98047 137.20012 300.13513Q136.45987 300.27878 135.69751 300.00256Q134.93517 299.72635 134.2612 299.05237Q133.60934 298.4005 133.28894 297.63815Q132.96852 296.87582 133.13425 296.15765Q133.28894 295.42847 133.8303 294.8871Q134.22806 294.48932 134.70314 294.3457Q135.17824 294.20206 135.64227 294.26837L133.46571 292.0918L134.20596 291.35153L140.28267 297.42825L139.58661 298.1243ZM135.0346 298.279Q135.88535 299.12973 136.65874 299.196Q137.42108 299.25125 137.90723 298.7651Q138.39336 298.279 138.33812 297.53873Q138.28288 296.79846 137.46529 295.9809Q136.5593 295.0749 135.7859 295.0086Q135.02356 294.93127 134.51532 295.4395Q134.01814 295.93668 134.09547 296.67694Q134.16177 297.40616 135.0346 298.279ZM136.47092 290.81015L135.60913 289.94836L136.36043 289.19708L137.22221 290.05887L136.47092 290.81015ZM141.68582 296.0251L137.28851 291.62775L138.03981 290.87646L142.43713 295.27377L141.68582 296.0251ZM144.76837 291.6167L145.53072 292.15808Q145.2766 292.5448 145.03354 292.78784Q144.62474 293.19666 144.28224 293.29608Q143.92868 293.38446 143.61932 293.274Q143.32101 293.15247 142.64705 292.4785L140.11693 289.94836L139.57556 290.48975L139.00104 289.91522L139.5424 289.37384L138.44861 288.28006L138.74692 287.09784L140.28267 288.6336L141.03397 287.8823L141.60849 288.45682L140.8572 289.20813L143.4315 291.78244Q143.7519 292.10284 143.87344 292.15808Q144.00603 292.20227 144.14966 292.16913Q144.29329 292.136 144.45901 291.97028Q144.5916 291.83768 144.76837 291.6167Z" fill-rule="nonzero"/><path fill="#000000" d="M165.70963 329.83362L159.63292 323.75693L163.73193 319.6579L164.45009 320.37607L161.15762 323.66852L163.03587 325.54678L165.8864 322.69626L166.60455 323.41443L163.75403 326.26495L166.51616 329.02707L165.70963 329.83362ZM172.85803 321.60245Q172.79173 322.37585 172.54868 322.9062Q172.31665 323.42548 171.87471 323.8674Q171.14551 324.59662 170.40526 324.62976Q169.665 324.6629 169.11256 324.11047Q168.79216 323.79007 168.67062 323.38126Q168.53804 322.96143 168.62643 322.5637Q168.70378 322.15488 168.92474 321.77924Q169.06837 321.50302 169.46613 320.99478Q170.26163 320.00043 170.53783 319.41486Q170.38315 319.26016 170.35 319.22702Q169.88597 318.76297 169.48822 318.78506Q168.95789 318.82928 168.39441 319.39273Q167.87514 319.91202 167.80884 320.35397Q167.7315 320.78485 168.074 321.37042L167.24536 322.0002Q166.88077 321.43674 166.82552 320.91745Q166.77028 320.39816 167.0465 319.8126Q167.32271 319.22702 167.88618 318.66354Q168.44966 318.10007 168.93579 317.8791Q169.42194 317.6581 169.78653 317.69128Q170.15114 317.72443 170.52678 317.9675Q170.74776 318.12216 171.24493 318.61935L172.2393 319.6137Q173.27788 320.65228 173.59828 320.8843Q173.92973 321.10526 174.32748 321.21576L173.54303 322.0002Q173.20053 321.87866 172.85803 321.60245ZM171.12341 320.00043Q170.88034 320.57495 170.19533 321.50302Q169.79758 322.03336 169.69815 322.30957Q169.58766 322.57474 169.63185 322.8399Q169.68709 323.094 169.88597 323.29288Q170.18428 323.5912 170.60413 323.5691Q171.03502 323.53595 171.46591 323.10504Q171.8968 322.67416 172.04044 322.15488Q172.19511 321.62454 172.01834 321.13843Q171.88576 320.76276 171.39961 320.27664L171.12341 320.00043ZM176.73607 315.581L177.56471 314.95123Q178.19447 315.82407 178.12819 316.75214Q178.06189 317.68024 177.34373 318.39838Q176.43776 319.30435 175.29976 319.2712Q174.16176 319.21597 173.0569 318.1111Q172.3498 317.40402 172.05148 316.64166Q171.75317 315.8572 171.96309 315.11697Q172.18407 314.36566 172.75859 313.79114Q173.4657 313.084 174.2833 312.99564Q175.10088 312.88516 175.90742 313.42654L175.28871 314.26624Q174.74733 313.9237 174.2612 313.96793Q173.764 314.00107 173.38835 314.3767Q172.82487 314.9402 172.88013 315.70255Q172.92432 316.45383 173.79715 317.32666Q174.6921 318.2216 175.43234 318.27686Q176.17259 318.3321 176.71397 317.7907Q177.15591 317.34875 177.17801 316.79633Q177.21115 316.23285 176.73607 315.581ZM181.31017 311.40466L182.17195 310.71964Q182.66913 311.57037 182.5476 312.4432Q182.42607 313.31604 181.66371 314.0784Q180.7025 315.0396 179.53134 315.01752Q178.37125 314.98438 177.29955 313.91266Q176.19469 312.8078 176.16154 311.6256Q176.11736 310.43237 177.02333 309.5264Q177.90721 308.64252 179.05626 308.6867Q180.21635 308.71985 181.31017 309.81366Q181.37645 309.87994 181.50903 310.01254L178.22762 313.29395Q179.00102 313.97897 179.75232 314.00107Q180.49257 314.01212 181.045 313.4597Q181.4538 313.05087 181.53113 312.5537Q181.60847 312.03442 181.31017 311.40466ZM177.66414 312.6421L180.11693 310.1893Q179.50925 309.67 179.00102 309.62582Q178.20552 309.55954 177.64204 310.12302Q177.12277 310.6423 177.11171 311.33835Q177.11171 312.02338 177.66414 312.6421ZM185.35393 310.1893L184.65787 310.88538L178.58118 304.80865L179.33247 304.05737L181.49799 306.22287Q181.3875 305.16223 182.11671 304.433Q182.5255 304.02423 183.04478 303.8364Q183.56407 303.62646 184.09439 303.69278Q184.63577 303.74802 185.1882 304.03528Q185.74063 304.32254 186.21571 304.7976Q187.34267 305.92456 187.3979 307.10675Q187.45316 308.28897 186.67975 309.06235Q185.89531 309.8468 184.8015 309.63687L185.35393 310.1893ZM183.11107 307.96857Q183.89552 308.753 184.47005 308.8856Q185.39812 309.10654 185.99475 308.50992Q186.48088 308.0238 186.4146 307.2504Q186.35934 306.46594 185.5086 305.6152Q184.64682 304.75342 183.89552 304.68713Q183.14423 304.62085 182.65808 305.10696Q182.17195 305.5931 182.23824 306.3886Q182.30453 307.16202 183.11107 307.96857ZM187.1438 304.00214Q185.9174 302.77573 186.0058 301.5162Q186.08313 300.46658 186.90073 299.649Q187.8067 298.743 188.97786 298.7651Q190.149 298.7651 191.19861 299.81473Q192.04935 300.66547 192.28137 301.40573Q192.51338 302.14597 192.29242 302.91937Q192.07144 303.67065 191.49692 304.24518Q190.5799 305.16223 189.4198 305.15118Q188.2597 305.11804 187.1438 304.00214ZM187.90614 303.23978Q188.74583 304.07947 189.53027 304.1347Q190.32578 304.1789 190.8782 303.62646Q191.44168 303.063 191.38643 302.27856Q191.33119 301.4941 190.4694 300.63232Q189.65181 299.81473 188.85632 299.77054Q188.07187 299.7153 187.51944 300.26773Q186.96701 300.82013 187.01122 301.61563Q187.0554 302.38904 187.90614 303.23978ZM192.09354 299.05237Q190.86716 297.826 190.95554 296.56647Q191.03288 295.51685 191.85048 294.69925Q192.75645 293.79327 193.9276 293.81537Q195.09874 293.81537 196.14836 294.865Q196.9991 295.71573 197.23111 296.45596Q197.46313 297.19623 197.24216 297.96964Q197.0212 298.72092 196.44667 299.29544Q195.52963 300.21246 194.36954 300.20142Q193.20944 300.16827 192.09354 299.05237ZM192.8559 298.29004Q193.69559 299.12973 194.48003 299.18497Q195.27553 299.22916 195.82794 298.67673Q196.39142 298.11325 196.33618 297.3288Q196.28094 296.54437 195.41916 295.6826Q194.60156 294.865 193.80606 294.82077Q193.02162 294.76553 192.4692 295.31796Q191.91676 295.8704 191.96095 296.6659Q192.00516 297.4393 192.8559 298.29004ZM199.51816 296.0251L193.44147 289.94836L194.19276 289.19708L197.662 292.66632L197.62886 289.11975L198.60114 288.14746L198.53484 291.46204L203.16418 292.37906L202.24715 293.29608L198.53484 292.50058L198.52379 293.5281L200.26947 295.27377L199.51816 296.0251Z" fill-rule="nonzero"/><path fill="#000000" d="M198.74902 354.62656L192.67233 348.54987L193.48991 347.73227L201.45592 349.3122L196.68295 344.5392L197.45634 343.76584L203.53305 349.84253L202.7044 350.67117L194.7384 349.09122L199.51137 353.8642L198.74902 354.62656ZM206.61559 343.93155L207.47737 343.24655Q207.97456 344.0973 207.85303 344.97012Q207.73149 345.84296 206.96915 346.60532Q206.00792 347.56653 204.83678 347.54443Q203.67668 347.5113 202.60497 346.43958Q201.5001 345.33472 201.46696 344.15253Q201.42278 342.9593 202.32875 342.0533Q203.21263 341.16943 204.36168 341.21362Q205.52177 341.24677 206.61559 342.34058Q206.68188 342.40686 206.81447 342.53943L203.53305 345.82086Q204.30644 346.50586 205.05774 346.52795Q205.79799 346.539 206.35042 345.9866Q206.75922 345.5778 206.83656 345.0806Q206.9139 344.56134 206.61559 343.93155ZM202.96957 345.169L205.42235 342.71622Q204.81468 342.19693 204.30644 342.15274Q203.51094 342.08646 202.94746 342.64993Q202.42819 343.16922 202.41714 343.86526Q202.41714 344.5503 202.96957 345.169ZM210.78088 342.5947L205.03564 339.5453L205.80904 338.77188L209.04626 340.617L210.25056 341.29095Q210.20636 341.20258 209.5766 340.15295L207.69835 336.8826L208.4607 336.12024L211.67583 338.00955L212.73648 338.62827L212.13986 337.5234L210.34999 334.23093L211.0792 333.50174L214.09544 339.28012L213.32205 340.05353L209.9854 338.10898L209.06836 337.5455L211.56534 341.81024L210.78088 342.5947ZM220.26054 333.11505L217.68623 330.5407L211.84155 329.3806L212.82487 328.3973L215.85217 329.03812Q216.69186 329.2149 217.4984 329.44693Q217.29953 328.69562 217.0896 327.7123L216.48193 324.74023L217.41002 323.81216L218.49277 329.7342L221.06708 332.3085L220.26054 333.11505ZM221.6416 327.33664Q220.41522 326.11026 220.5036 324.85074Q220.58095 323.80112 221.39854 322.98352Q222.30452 322.07755 223.47566 322.09964Q224.6468 322.09964 225.69643 323.14926Q226.54716 324.0 226.77917 324.74023Q227.0112 325.4805 226.79022 326.25388Q226.56926 327.0052 225.99474 327.5797Q225.0777 328.49673 223.9176 328.4857Q222.7575 328.45255 221.6416 327.33664ZM222.40396 326.5743Q223.24365 327.414 224.02809 327.46924Q224.8236 327.51343 225.376 326.961Q225.93948 326.39752 225.88425 325.61307Q225.82901 324.82864 224.96722 323.96683Q224.14963 323.14926 223.35413 323.10504Q222.56969 323.0498 222.01726 323.60223Q221.46483 324.15466 221.50902 324.95016Q221.55322 325.72357 222.40396 326.5743ZM229.05518 324.3204L224.65785 319.92307L225.33182 319.2491L225.99474 319.91202Q225.7848 319.19388 225.8511 318.84033Q225.91739 318.46466 226.18256 318.1995Q226.55821 317.82385 227.17693 317.66916L227.61887 318.61935Q227.17693 318.72983 226.91176 318.995Q226.65764 319.2491 226.61345 319.60266Q226.56926 319.9341 226.75708 320.27664Q227.02225 320.80695 227.48628 321.271L229.79543 323.58014L229.05518 324.3204ZM231.89465 321.48093L225.81796 315.40424L226.56926 314.65292L230.0385 318.12216L230.00536 314.5756L230.97763 313.6033L230.91133 316.91788L235.54068 317.8349L234.62364 318.75192L230.91133 317.95642L230.90028 318.98395L232.64595 320.7296L231.89465 321.48093ZM239.8938 313.48178L234.53526 308.12323L232.53548 310.12302L231.81732 309.40488L236.63448 304.5877L237.35263 305.30588L235.3418 307.3167L240.70033 312.67523L239.8938 313.48178ZM237.99344 304.9523L237.13165 304.0905L237.88295 303.33923L238.74474 304.20102L237.99344 304.9523ZM243.20836 310.16724L238.81104 305.7699L239.56233 305.01862L243.95966 309.41592L243.20836 310.16724ZM245.32967 308.0459L240.93236 303.6486L241.59526 302.98566L242.21399 303.6044Q242.09245 303.06302 242.24713 302.53268Q242.39076 301.9913 242.8327 301.54935Q243.31883 301.06323 243.82707 300.95273Q244.34636 300.8312 244.83249 301.07428Q244.60046 299.7816 245.42911 298.95294Q246.09203 298.29004 246.79913 298.31213Q247.50624 298.31213 248.26859 299.0745L251.28484 302.09073L250.54459 302.831L247.77141 300.0578Q247.32945 299.61588 247.05325 299.49432Q246.78809 299.36176 246.47871 299.42804Q246.16936 299.49432 245.90419 299.7595Q245.44016 300.22354 245.44016 300.84225Q245.4512 301.44992 246.13622 302.13492L248.68843 304.68713L247.93713 305.43845L245.07556 302.57687Q244.57837 302.07968 244.14748 302.02444Q243.71658 301.9471 243.30779 302.3559Q242.98738 302.6763 242.88794 303.1072Q242.78851 303.5381 242.98738 303.98004Q243.18625 304.42197 243.78288 305.01862L246.06993 307.30566L245.32967 308.0459ZM253.99173 296.55542L254.85352 295.8704Q255.35071 296.72113 255.22917 297.594Q255.10764 298.46683 254.34529 299.22916Q253.38406 300.1904 252.21292 300.1683Q251.05283 300.13513 249.98111 299.06345Q248.87625 297.9586 248.84311 296.7764Q248.79892 295.58313 249.7049 294.67715Q250.58878 293.79327 251.73782 293.83746Q252.89792 293.8706 253.99173 294.96442Q254.05803 295.03073 254.1906 295.1633L250.9092 298.44473Q251.68259 299.12973 252.43388 299.15182Q253.17413 299.16287 253.72656 298.61044Q254.13536 298.20166 254.2127 297.70447Q254.29004 297.18518 253.99173 296.55542ZM250.34572 297.79285L252.7985 295.3401Q252.19081 294.8208 251.68259 294.7766Q250.88708 294.7103 250.32361 295.27377Q249.80434 295.79306 249.79329 296.48914Q249.79329 297.17413 250.34572 297.79285ZM255.7374 295.0086L256.3561 294.16895Q256.86435 294.5446 257.3726 294.5004Q257.89188 294.44516 258.41116 293.92587Q258.91937 293.41763 258.96356 292.97568Q259.00778 292.51166 258.72052 292.2244Q258.4664 291.97028 258.10178 292.0476Q257.8477 292.10284 257.08533 292.55585Q256.0578 293.1635 255.59377 293.3403Q255.12973 293.49496 254.69884 293.39554Q254.26794 293.29608 253.9365 292.96463Q253.64923 292.67737 253.5277 292.29068Q253.40616 291.904 253.47244 291.50623Q253.5277 291.20792 253.73761 290.82123Q253.94754 290.4345 254.30109 290.08096Q254.80933 289.57272 255.35071 289.34073Q255.89207 289.0866 256.334 289.1529Q256.77597 289.21918 257.2621 289.57272L256.63232 290.40137Q256.25668 290.1141 255.82579 290.16937Q255.3949 290.2025 254.95296 290.64444Q254.44472 291.15268 254.40053 291.5504Q254.34529 291.93713 254.5773 292.16916Q254.72093 292.31277 254.91982 292.33487Q255.14078 292.35696 255.40594 292.2465Q255.56062 292.1802 256.25668 291.7714Q257.27316 291.19687 257.7151 291.0201Q258.15704 290.84332 258.58792 290.92065Q259.01883 290.998 259.40552 291.3847Q259.78116 291.76035 259.89166 292.31277Q260.00214 292.8431 259.78116 293.43973Q259.54913 294.0253 259.02988 294.5446Q258.1681 295.40637 257.36154 295.5058Q256.555 295.58313 255.7374 295.0086Z" fill-rule="nonzero"/><path fill="#000000" d="M302.63168 304.3115L303.6371 303.72592Q304.3663 304.96335 304.2337 306.1345Q304.10114 307.30563 303.15097 308.25583Q302.16763 309.23914 301.15118 309.4601Q300.1347 309.6811 299.063 309.25018Q297.98026 308.80826 297.10742 307.93542Q296.15723 306.98523 295.81473 305.91354Q295.47223 304.84183 295.77054 303.8143Q296.0799 302.77576 296.88644 301.9692Q297.79242 301.06323 298.87518 300.90854Q299.969 300.74283 301.05173 301.33945L300.44406 302.32275Q299.57123 301.86975 298.86414 301.98026Q298.157 302.06863 297.54935 302.6763Q296.8533 303.37238 296.7207 304.18997Q296.58813 304.98544 296.95273 305.7478Q297.32837 306.4991 297.93604 307.10678Q298.70944 307.8802 299.50494 308.23373Q300.3115 308.57623 301.07382 308.3884Q301.83618 308.2006 302.39966 307.63712Q303.0736 306.96313 303.15097 306.1124Q303.23935 305.2506 302.63168 304.3115ZM306.78592 304.42197L300.70923 298.34528L301.52682 297.52768L309.49283 299.10764L304.71985 294.33466L305.49326 293.56125L311.56995 299.63797L310.7413 300.4666L302.7753 298.88666L307.54828 303.65964L306.78592 304.42197ZM313.1499 298.058L307.07318 291.98132L307.89078 291.16373L315.85678 292.74368L311.0838 287.9707L311.8572 287.1973L317.9339 293.274L317.1053 294.10263L309.13928 292.5227L313.91223 297.29565L313.1499 298.058Z" fill-rule="nonzero"/><path fill="#000000" d="M343.40506 325.6352L337.32837 319.55847L339.62646 317.26038Q340.22308 316.66376 340.59872 316.3986Q341.12906 316.02295 341.6373 315.93457Q342.1566 315.8351 342.709 316.034Q343.2725 316.22183 343.72546 316.6748Q344.49887 317.4482 344.54306 318.4868Q344.58725 319.50323 343.2946 320.79593L341.73672 322.35376L344.2116 324.82864L343.40506 325.6352ZM341.02963 321.64667L342.5985 320.07776Q343.38297 319.2933 343.4161 318.68564Q343.44925 318.05588 342.9189 317.52554Q342.54327 317.1499 342.07922 317.08362Q341.6152 316.9952 341.21744 317.2162Q340.9523 317.37088 340.41092 317.91226L338.85306 319.4701L341.02963 321.64667ZM343.7586 314.8518L342.89682 313.99002L343.64813 313.2387L344.50992 314.1005L343.7586 314.8518ZM348.97354 320.0667L344.5762 315.6694L345.3275 314.9181L349.72482 319.31543L348.97354 320.0667ZM351.09485 317.9454L346.69754 313.54807L347.36044 312.88516L347.97916 313.50388Q347.74713 312.2996 348.66418 311.38257Q349.06192 310.9848 349.53702 310.797Q350.02313 310.5981 350.4209 310.6644Q350.81863 310.73068 351.19427 310.97375Q351.43735 311.15054 351.95663 311.66983L354.66354 314.3767L353.92328 315.11697L351.24954 312.4432Q350.7855 311.9792 350.47614 311.8466Q350.16678 311.71402 349.81323 311.8024Q349.4486 311.87973 349.1503 312.17807Q348.67523 312.65314 348.631 313.31607Q348.58682 313.95688 349.4265 314.79657L351.8351 317.20514L351.09485 317.9454ZM357.00583 310.7086L357.76816 311.24997Q357.51407 311.6367 357.271 311.87973Q356.86218 312.28854 356.51968 312.38797Q356.16614 312.47638 355.85678 312.36588Q355.55847 312.24435 354.8845 311.57037L352.35437 309.04028L351.81302 309.58163L351.2385 309.0071L351.77985 308.46576L350.68607 307.37195L350.98438 306.18976L352.5201 307.7255L353.27142 306.97418L353.84595 307.5487L353.09464 308.30002L355.66895 310.87433Q355.98935 311.19473 356.1109 311.24997Q356.24347 311.29416 356.38712 311.26102Q356.53073 311.22787 356.69647 311.06216Q356.82904 310.92957 357.00583 310.7086ZM359.7569 306.4549L360.61868 305.7699Q361.11588 306.62064 360.99435 307.49347Q360.8728 308.3663 360.11047 309.12866Q359.14923 310.08987 357.9781 310.06778Q356.818 310.03464 355.74628 308.96292Q354.64142 307.85806 354.60828 306.67587Q354.5641 305.48264 355.47006 304.57666Q356.35394 303.69278 357.503 303.73697Q358.66312 303.7701 359.7569 304.86392Q359.8232 304.9302 359.95578 305.0628L356.67438 308.3442Q357.44775 309.02924 358.19907 309.05133Q358.93933 309.06238 359.49173 308.50995Q359.90054 308.10114 359.97787 307.60397Q360.0552 307.0847 359.7569 306.4549ZM356.1109 307.69235L358.56366 305.23956Q357.956 304.72028 357.44775 304.6761Q356.65228 304.6098 356.0888 305.17328Q355.56952 305.69257 355.55847 306.3886Q355.55847 307.07364 356.1109 307.69235ZM363.1046 305.93564L358.7073 301.5383L359.38126 300.86435L360.04416 301.52725Q359.83426 300.8091 359.90054 300.45554Q359.96683 300.0799 360.232 299.81473Q360.60764 299.4391 361.22638 299.2844L361.6683 300.2346Q361.22638 300.34506 360.9612 300.61023Q360.7071 300.86435 360.6629 301.2179Q360.61868 301.54935 360.80652 301.89188Q361.0717 302.42218 361.53574 302.88623L363.84488 305.19537L363.1046 305.93564ZM367.5351 298.67673L368.39688 297.99173Q368.89404 298.84247 368.77252 299.7153Q368.65097 300.58813 367.88864 301.3505Q366.9274 302.3117 365.75626 302.2896Q364.59616 302.25647 363.52448 301.18475Q362.41962 300.0799 362.38647 298.8977Q362.34225 297.70447 363.24826 296.7985Q364.13214 295.9146 365.2812 295.9588Q366.44128 295.99194 367.5351 297.08575Q367.60138 297.15204 367.73395 297.2846L364.45255 300.56604Q365.22595 301.25104 365.97723 301.27313Q366.7175 301.28418 367.26993 300.73175Q367.6787 300.32297 367.75604 299.82578Q367.8334 299.3065 367.5351 298.67673ZM363.88907 299.91418L366.34183 297.4614Q365.73416 296.9421 365.22595 296.89792Q364.43045 296.83163 363.86697 297.3951Q363.3477 297.9144 363.33664 298.61044Q363.33664 299.29544 363.88907 299.91418ZM369.28076 297.12994L369.89948 296.29025Q370.4077 296.6659 370.91592 296.6217Q371.4352 296.56647 371.9545 296.04718Q372.46274 295.53894 372.50693 295.09702Q372.55112 294.63297 372.26385 294.3457Q372.00974 294.09158 371.64514 294.1689Q371.39102 294.22418 370.62866 294.67715Q369.60117 295.28482 369.13712 295.4616Q368.6731 295.6163 368.2422 295.51685Q367.8113 295.41742 367.47983 295.08597Q367.19257 294.7987 367.07104 294.412Q366.94952 294.0253 367.0158 293.62756Q367.07104 293.32925 367.28098 292.94254Q367.49088 292.55585 367.84445 292.2023Q368.35266 291.69406 368.89404 291.46204Q369.43542 291.20792 369.87738 291.2742Q370.3193 291.3405 370.80545 291.69406L370.1757 292.5227Q369.80005 292.23544 369.36914 292.29068Q368.93826 292.32382 368.4963 292.76578Q367.98807 293.274 367.94388 293.67175Q367.88864 294.05844 368.12067 294.29047Q368.26428 294.43408 368.46317 294.45618Q368.68414 294.4783 368.9493 294.3678Q369.10397 294.3015 369.80005 293.89273Q370.8165 293.3182 371.25845 293.14142Q371.70038 292.96463 372.1313 293.042Q372.56216 293.11932 372.94888 293.506Q373.32452 293.88165 373.435 294.43408Q373.5455 294.96442 373.32452 295.56104Q373.0925 296.1466 372.5732 296.6659Q371.71143 297.52768 370.90488 297.62714Q370.09836 297.70447 369.28076 297.12994ZM376.09772 291.61673L376.86005 292.15808Q376.60593 292.5448 376.36285 292.78787Q375.95407 293.19666 375.61157 293.29608Q375.25803 293.3845 374.94867 293.274Q374.65033 293.15247 373.97638 292.47852L371.44626 289.9484L370.90488 290.48978L370.33035 289.91525L370.87173 289.37387L369.77792 288.28006L370.07623 287.09787L371.612 288.6336L372.36328 287.8823L372.93784 288.45682L372.18652 289.20813L374.76083 291.78244Q375.08124 292.10284 375.20276 292.15808Q375.33536 292.2023 375.47897 292.16913Q375.62262 292.136 375.78833 291.97028Q375.92093 291.83768 376.09772 291.61673Z" fill-rule="nonzero"/><path fill="#000000" d="M411.26947 315.6031L405.91092 310.24457L403.91113 312.24435L403.193 311.52618L408.01016 306.709L408.7283 307.4272L406.71747 309.43802L412.07602 314.79657L411.26947 315.6031ZM415.3906 311.482L409.64536 308.4326L410.41873 307.6592L413.65598 309.5043L414.86026 310.17825Q414.81607 310.08987 414.18628 309.04028L412.30804 305.7699L413.0704 305.00754L416.28552 306.89685L417.3462 307.51556L416.74954 306.4107L414.9597 303.11826L415.6889 302.38904L418.70514 308.16742L417.93176 308.94083L414.5951 306.99628L413.67807 306.4328L416.17502 310.69754L415.3906 311.482ZM415.7331 300.70966L414.8713 299.84787L415.6226 299.0966L416.48438 299.95837L415.7331 300.70966ZM420.948 305.9246L416.5507 301.52725L417.30197 300.77597L421.6993 305.17328L420.948 305.9246ZM424.03055 301.5162L424.7929 302.0576Q424.5388 302.44427 424.29572 302.68735Q423.8869 303.09616 423.5444 303.1956Q423.19086 303.28397 422.8815 303.1735Q422.5832 303.05197 421.9092 302.378L419.37912 299.84787L418.83774 300.38925L418.2632 299.81473L418.8046 299.27335L417.7108 298.17957L418.0091 296.99734L419.54483 298.5331L420.29614 297.7818L420.87067 298.35632L420.11935 299.10764L422.69366 301.68195Q423.01407 302.00235 423.13562 302.0576Q423.2682 302.10178 423.41183 302.06863Q423.55545 302.0355 423.7212 301.86975Q423.85376 301.73718 424.03055 301.5162ZM426.15186 299.3949L426.9142 299.93628Q426.6601 300.32297 426.41702 300.56604Q426.00824 300.97482 425.66574 301.07428Q425.31216 301.16266 425.0028 301.0522Q424.7045 300.93063 424.03055 300.25668L421.50043 297.72656L420.95905 298.26794L420.38452 297.69342L420.9259 297.15204L419.8321 296.05823L420.1304 294.87604L421.66617 296.41177L422.41745 295.6605L422.99197 296.23502L422.2407 296.9863L424.815 299.5606Q425.1354 299.881 425.25693 299.93628Q425.38953 299.98047 425.53314 299.94733Q425.6768 299.91418 425.8425 299.74844Q425.9751 299.61588 426.15186 299.3949ZM428.90295 295.1412L429.76474 294.45618Q430.26193 295.30692 430.14038 296.17978Q430.01886 297.0526 429.2565 297.81494Q428.2953 298.77618 427.12415 298.7541Q425.96405 298.72092 424.89233 297.64923Q423.78748 296.54437 423.75433 295.36218Q423.71014 294.1689 424.61612 293.26294Q425.5 292.37906 426.64905 292.42325Q427.80914 292.4564 428.90295 293.5502Q428.96924 293.61652 429.10184 293.74908L425.8204 297.0305Q426.5938 297.7155 427.34512 297.7376Q428.08536 297.74866 428.6378 297.19623Q429.04657 296.78745 429.12393 296.29025Q429.20126 295.77097 428.90295 295.1412ZM425.25693 296.37863L427.70972 293.92587Q427.10205 293.4066 426.5938 293.3624Q425.7983 293.29608 425.23483 293.85956Q424.71555 294.37885 424.7045 295.07492Q424.7045 295.75992 425.25693 296.37863ZM432.25067 294.62192L427.85333 290.2246L428.5273 289.55063L429.19022 290.21356Q428.9803 289.4954 429.04657 289.14185Q429.11288 288.7662 429.37805 288.50104Q429.7537 288.12537 430.3724 287.9707L430.81436 288.92087Q430.3724 289.03134 430.10724 289.2965Q429.85312 289.55063 429.80893 289.9042Q429.76474 290.23566 429.95258 290.57816Q430.21774 291.1085 430.68176 291.5725L432.9909 293.88165L432.25067 294.62192Z" fill-rule="nonzero"/><path fill="#000000" d="M435.49216 344.4398L434.78503 343.7327L437.33725 341.1584L439.59116 343.4123Q439.48068 344.47296 439.09396 345.3458Q438.69623 346.20758 438.0333 346.87048Q437.13837 347.7654 436.02246 348.13Q434.9066 348.47253 433.81277 348.13Q432.71896 347.7654 431.82404 346.87048Q430.9291 345.97556 430.53134 344.8486Q430.1336 343.69955 430.46506 342.6389Q430.78546 341.56717 431.69144 340.6612Q432.35437 339.9983 433.0946 339.6779Q433.83487 339.35748 434.51987 339.44586Q435.2049 339.51215 435.97827 339.9762L435.45898 340.89322Q434.85132 340.5728 434.37625 340.51758Q433.9122 340.45126 433.38187 340.67224Q432.84048 340.88217 432.3875 341.33517Q431.83508 341.88757 431.592 342.4621Q431.36 343.02557 431.38208 343.5559Q431.41522 344.0752 431.6141 344.53925Q431.94556 345.33475 432.5974 345.9866Q433.415 346.8042 434.24365 347.0804Q435.0723 347.33453 435.8678 347.06937Q436.6633 346.8042 437.27097 346.19653Q437.79025 345.67725 438.08856 344.98117Q438.37582 344.27408 438.40897 343.79898L437.27097 342.66098L435.49216 344.4398ZM438.8288 341.4788Q437.60242 340.2524 437.6908 338.99286Q437.76816 337.94327 438.58572 337.12567Q439.49173 336.2197 440.66287 336.2418Q441.834 336.2418 442.8836 337.29138Q443.73434 338.14212 443.96637 338.8824Q444.1984 339.62265 443.97742 340.39603Q443.75647 341.14734 443.18195 341.72186Q442.2649 342.6389 441.1048 342.62784Q439.9447 342.5947 438.8288 341.4788ZM439.59116 340.71643Q440.43085 341.55612 441.2153 341.61136Q442.01077 341.65558 442.5632 341.10315Q443.12668 340.53967 443.07144 339.75522Q443.0162 338.97076 442.15442 338.10898Q441.33682 337.29138 440.54132 337.2472Q439.7569 337.19196 439.20447 337.7444Q438.65204 338.2968 438.69623 339.09232Q438.74042 339.8657 439.59116 340.71643ZM443.77856 336.52905Q442.55215 335.30264 442.64056 334.04312Q442.7179 332.9935 443.5355 332.1759Q444.44147 331.26993 445.6126 331.29202Q446.78375 331.29202 447.83337 332.34164Q448.6841 333.19238 448.91614 333.93265Q449.14813 334.67288 448.9272 335.4463Q448.7062 336.1976 448.13168 336.77213Q447.21466 337.68915 446.05457 337.6781Q444.89444 337.64496 443.77856 336.52905ZM444.5409 335.7667Q445.38058 336.60638 446.16504 336.66162Q446.96054 336.7058 447.51297 336.15338Q448.07645 335.5899 448.02118 334.80548Q447.96594 334.02103 447.10416 333.15924Q446.28656 332.34164 445.4911 332.29745Q444.70663 332.24222 444.1542 332.79465Q443.60178 333.34708 443.64597 334.14255Q443.69016 334.91595 444.5409 335.7667ZM451.42413 334.00998L452.26382 333.39127Q452.6395 333.67853 453.0041 333.6233Q453.49023 333.55698 453.9653 333.0819Q454.4846 332.56262 454.55087 332.07648Q454.62823 331.57928 454.36307 331.11526Q454.19733 330.81696 453.45706 330.0988Q453.54547 331.15945 452.81625 331.88864Q451.91028 332.79465 450.76123 332.63995Q449.60114 332.47424 448.69516 331.56824Q448.0654 330.93848 447.75604 330.1872Q447.44666 329.4138 447.5903 328.69562Q447.73392 327.97748 448.3195 327.3919Q449.10394 326.60745 450.24194 326.72897L449.7116 326.19867L450.39664 325.51364L454.19733 329.31433Q455.22485 330.34186 455.4458 330.98267Q455.66678 331.6235 455.45685 332.31955Q455.258 333.02664 454.59506 333.68958Q453.81064 334.47403 452.97095 334.6066Q452.13126 334.73917 451.42413 334.00998ZM449.40225 330.75064Q450.26404 331.61243 451.0043 331.6677Q451.74454 331.72293 452.26382 331.20364Q452.7831 330.68436 452.72787 329.94412Q452.6837 329.1928 451.844 328.35312Q451.03745 327.54657 450.26404 327.50238Q449.5017 327.44714 448.99347 327.95538Q448.49628 328.45255 448.5515 329.2149Q448.60675 329.95517 449.40225 330.75064ZM456.13083 328.5741L450.05414 322.4974L450.80542 321.7461L456.8821 327.82278L456.13083 328.5741ZM459.86523 322.01126L460.72702 321.32623Q461.2242 322.17697 461.10266 323.04984Q460.98114 323.92267 460.21878 324.685Q459.25757 325.64624 458.08643 325.62415Q456.92633 325.59097 455.8546 324.5193Q454.74976 323.41443 454.7166 322.23224Q454.67242 321.03897 455.5784 320.133Q456.46228 319.2491 457.61133 319.2933Q458.77142 319.32645 459.86523 320.42026Q459.93152 320.48657 460.06412 320.61914L456.78268 323.90057Q457.5561 324.58557 458.30737 324.60767Q459.04764 324.6187 459.60007 324.06628Q460.00885 323.6575 460.0862 323.1603Q460.16354 322.64102 459.86523 322.01126ZM456.2192 323.2487L458.672 320.79593Q458.06433 320.27664 457.5561 320.23245Q456.7606 320.16614 456.1971 320.7296Q455.67783 321.2489 455.66678 321.94498Q455.66678 322.62997 456.2192 323.2487ZM463.21295 317.58078L463.89795 316.7632Q464.41724 317.172 464.90338 317.26038Q465.3895 317.3488 465.9861 317.1278Q466.58273 316.88474 467.10202 316.36545Q467.55502 315.91248 467.776 315.42633Q467.9859 314.92914 467.91962 314.5314Q467.85333 314.11154 467.57712 313.83533Q467.28986 313.54807 466.9142 313.50388Q466.5275 313.44864 466.0082 313.68066Q465.65466 313.83533 464.61612 314.47617Q463.5886 315.10593 463.08035 315.2606Q462.4064 315.47052 461.86502 315.349Q461.3126 315.2164 460.89273 314.79657Q460.43976 314.34357 460.2961 313.6917Q460.1525 313.01773 460.4508 312.3217Q460.7491 311.60352 461.35678 310.99585Q462.03073 310.3219 462.771 310.0236Q463.5002 309.71423 464.2073 309.8689Q464.90338 310.01254 465.45578 310.52078L464.73764 311.34943Q464.09683 310.8412 463.44495 310.91852Q462.7931 310.97375 462.09705 311.66983Q461.36783 312.39902 461.30154 312.99564Q461.23526 313.59225 461.6109 313.96793Q461.94235 314.29938 462.3843 314.27728Q462.82623 314.2552 464.01947 313.50388Q465.2238 312.74152 465.75412 312.54266Q466.53854 312.26645 467.1683 312.38797Q467.78705 312.49847 468.2842 312.99564Q468.77036 313.48178 468.92505 314.1889Q469.06866 314.88495 468.79245 315.6473Q468.5052 316.3986 467.85333 317.05048Q467.0247 317.8791 466.2292 318.21057Q465.4337 318.51993 464.62717 318.3542Q463.83167 318.1774 463.21295 317.58078ZM472.59314 309.28333L473.45493 308.59833Q473.95212 309.44907 473.8306 310.3219Q473.70905 311.19473 472.94672 311.9571Q471.98547 312.9183 470.81433 312.8962Q469.65424 312.86307 468.58252 311.79135Q467.4777 310.6865 467.44452 309.5043Q467.40033 308.31107 468.3063 307.4051Q469.19022 306.5212 470.33926 306.5654Q471.49936 306.59854 472.59314 307.69235Q472.65945 307.75864 472.79202 307.8912L469.51062 311.17264Q470.284 311.85764 471.0353 311.87973Q471.77557 311.89078 472.328 311.33838Q472.7368 310.92957 472.81412 310.43237Q472.89145 309.91312 472.59314 309.28333ZM468.94714 310.52078L471.3999 308.068Q470.79224 307.5487 470.284 307.50452Q469.48853 307.43823 468.92505 308.0017Q468.40576 308.521 468.3947 309.21704Q468.3947 309.90207 468.94714 310.52078ZM478.28314 305.33902Q478.21686 306.1124 477.9738 306.64273Q477.74176 307.16202 477.29984 307.60394Q476.57062 308.33316 475.83038 308.3663Q475.09012 308.39944 474.5377 307.84702Q474.2173 307.5266 474.09576 307.11783Q473.96317 306.69797 474.05157 306.30023Q474.1289 305.89142 474.34988 305.51578Q474.4935 305.23956 474.89124 304.73132Q475.68674 303.73697 475.96295 303.1514Q475.8083 302.9967 475.77515 302.96356Q475.3111 302.49954 474.91336 302.52164Q474.38303 302.56583 473.81955 303.1293Q473.30026 303.6486 473.23398 304.0905Q473.15662 304.52142 473.49915 305.107L472.6705 305.73676Q472.30588 305.17328 472.25064 304.654Q472.1954 304.1347 472.47162 303.54913Q472.74783 302.96356 473.3113 302.4001Q473.8748 301.8366 474.36093 301.61566Q474.84705 301.39468 475.21167 301.42783Q475.57626 301.46097 475.9519 301.70404Q476.17288 301.8587 476.67007 302.3559L477.66443 303.35028Q478.703 304.38882 479.0234 304.62085Q479.35486 304.84183 479.75262 304.9523L478.96817 305.73676Q478.62567 305.61523 478.28314 305.33902ZM476.54852 303.73697Q476.30545 304.3115 475.62045 305.23956Q475.22272 305.7699 475.12326 306.0461Q475.0128 306.31128 475.05698 306.57645Q475.1122 306.83057 475.3111 307.02942Q475.6094 307.32773 476.02924 307.30563Q476.46014 307.2725 476.89102 306.8416Q477.32193 306.4107 477.46558 305.89142Q477.62024 305.3611 477.44345 304.87497Q477.31088 304.49933 476.82474 304.01318L476.54852 303.73697ZM480.8906 303.8143L476.4933 299.417L477.16724 298.743L477.83017 299.40594Q477.62024 298.68777 477.68652 298.33423Q477.75284 297.9586 478.01797 297.69342Q478.39365 297.31775 479.01236 297.1631L479.45428 298.11325Q479.01236 298.22375 478.7472 298.48892Q478.49307 298.743 478.44888 299.0966Q478.4047 299.42804 478.5925 299.77054Q478.85767 300.30087 479.32172 300.76492L481.63086 303.07407L480.8906 303.8143ZM484.98962 296.48914L485.81827 295.85934Q486.44803 296.73218 486.38174 297.66028Q486.31543 298.58835 485.5973 299.3065Q484.6913 300.2125 483.5533 300.17932Q482.4153 300.12408 481.31046 299.01923Q480.60333 298.31213 480.30502 297.54977Q480.0067 296.76535 480.21664 296.0251Q480.43762 295.27377 481.01215 294.69925Q481.71924 293.99216 482.53683 293.90378Q483.35443 293.79327 484.16098 294.33466L483.54227 295.17435Q483.0009 294.83185 482.51474 294.87604Q482.01755 294.90918 481.6419 295.28482Q481.07843 295.8483 481.13367 296.61066Q481.17786 297.36197 482.05072 298.2348Q482.94565 299.12973 483.68588 299.18497Q484.42615 299.2402 484.96753 298.69882Q485.40945 298.2569 485.43155 297.70447Q485.46472 297.141 484.98962 296.48914ZM487.97272 296.73218L481.89603 290.6555L482.6363 289.91525L484.81284 292.0918Q484.7355 290.9759 485.531 290.1804Q486.02817 289.68323 486.5806 289.52853Q487.13303 289.35178 487.63022 289.53958Q488.11636 289.71637 488.76822 290.36823L491.55246 293.15247L490.8122 293.8927L488.02795 291.1085Q487.4645 290.545 486.96732 290.53397Q486.47012 290.52292 486.02817 290.96484Q485.69672 291.2963 485.5752 291.7714Q485.45364 292.2244 485.6194 292.65527Q485.78513 293.0641 486.30438 293.58334L488.71298 295.99194L487.97272 296.73218Z" fill-rule="nonzero"/><path fill="#000000" d="M517.6534 324.88388L513.9079 316.47592L514.7697 315.61414L523.33234 319.20493L522.42633 320.1109L519.8631 318.98395L517.33295 321.51407L518.5041 324.03314L517.6534 324.88388ZM516.91315 320.6302L518.96814 318.57516L516.659 317.52554Q515.5983 317.06152 514.96857 316.6969Q515.4326 317.40402 515.79724 318.18845L516.91315 320.6302ZM525.1001 317.43716L519.0344 314.70816L519.8189 313.92374L523.3986 315.6031Q523.97314 315.89035 524.5587 316.2108Q524.3157 315.76883 524.0063 315.10593L522.3048 311.4378L523.06714 310.67545L525.79614 316.7411L525.1001 317.43716ZM529.7184 309.99045L530.58014 309.30542Q531.07733 310.15616 530.9558 311.029Q530.8343 311.90182 530.07196 312.66418Q529.1107 313.62543 527.9396 313.6033Q526.7795 313.57016 525.70776 312.49847Q524.6029 311.39362 524.56976 310.21143Q524.5256 309.01816 525.4315 308.11218Q526.3154 307.2283 527.4645 307.2725Q528.6246 307.30563 529.7184 308.39944Q529.78467 308.46573 529.91724 308.59833L526.63586 311.87973Q527.40924 312.56476 528.1605 312.58685Q528.9008 312.5979 529.45325 312.04547Q529.862 311.6367 529.93933 311.1395Q530.0167 310.6202 529.7184 309.99045ZM526.0724 311.22787L528.52515 308.77512Q527.9175 308.25583 527.40924 308.21164Q526.6138 308.14532 526.0503 308.7088Q525.531 309.2281 525.51996 309.92416Q525.51996 310.60916 526.0724 311.22787ZM533.0661 309.47116L528.66876 305.07385L529.3427 304.39987L530.0056 305.0628Q529.7957 304.34464 529.862 303.9911Q529.9283 303.61542 530.1935 303.35028Q530.5691 302.9746 531.18787 302.81995L531.62976 303.7701Q531.18787 303.88058 530.92267 304.14575Q530.6686 304.39987 530.6244 304.75342Q530.58014 305.0849 530.768 305.4274Q531.03314 305.95773 531.4972 306.42175L533.80634 308.7309L533.0661 309.47116ZM538.2368 303.21768Q538.17053 303.9911 537.9274 304.52142Q537.69543 305.04068 537.2535 305.48264Q536.5243 306.21185 535.78406 306.245Q535.04376 306.27814 534.49133 305.7257Q534.17096 305.4053 534.04944 304.9965Q533.9168 304.57666 534.0052 304.1789Q534.0826 303.7701 534.3035 303.39447Q534.44714 303.11826 534.8449 302.61002Q535.6404 301.61563 535.9166 301.03006Q535.76196 300.8754 535.72876 300.84225Q535.2648 300.3782 534.867 300.4003Q534.3367 300.4445 533.7732 301.00797Q533.2539 301.52725 533.1876 301.9692Q533.1103 302.4001 533.4528 302.98566L532.62415 303.61542Q532.2595 303.05197 532.2043 302.53268Q532.14905 302.0134 532.4253 301.42783Q532.7015 300.84225 533.26495 300.27878Q533.8284 299.7153 534.3146 299.49432Q534.8007 299.27335 535.16534 299.3065Q535.5299 299.33966 535.9056 299.5827Q536.1265 299.7374 536.6237 300.2346L537.6181 301.22894Q538.6567 302.26752 538.97705 302.49954Q539.30853 302.7205 539.70624 302.831L538.9218 303.61542Q538.5793 303.4939 538.2368 303.21768ZM536.5022 301.61563Q536.2591 302.19016 535.5741 303.11826Q535.1764 303.6486 535.0769 303.9248Q534.96643 304.18994 535.0106 304.4551Q535.06586 304.70923 535.2648 304.9081Q535.56305 305.20642 535.9829 305.18433Q536.4138 305.15118 536.84467 304.72028Q537.2756 304.2894 537.4192 303.7701Q537.5739 303.23978 537.3971 302.75363Q537.2645 302.378 536.7784 301.89185L536.5022 301.61563ZM541.0763 302.19016L541.91595 301.57144Q542.2916 301.8587 542.65625 301.80347Q543.14233 301.73718 543.61743 301.2621Q544.1367 300.7428 544.203 300.25668Q544.28033 299.7595 544.0152 299.29544Q543.8495 298.99713 543.1092 298.279Q543.19763 299.33966 542.4684 300.06885Q541.56244 300.97482 540.4134 300.82016Q539.2533 300.65442 538.3473 299.74844Q537.7175 299.11868 537.40814 298.36737Q537.0988 297.59396 537.24243 296.87582Q537.38605 296.15765 537.9716 295.57208Q538.7561 294.78766 539.8941 294.90918L539.3638 294.37885L540.04877 293.69385L543.8495 297.49454Q544.877 298.52206 545.09796 299.16287Q545.3189 299.80368 545.109 300.49976Q544.91016 301.20685 544.2472 301.86975Q543.46277 302.6542 542.6231 302.7868Q541.7834 302.91937 541.0763 302.19016ZM539.0544 298.93085Q539.9162 299.79263 540.65643 299.84787Q541.39667 299.9031 541.91595 299.38385Q542.43524 298.86456 542.38 298.1243Q542.3358 297.37302 541.49615 296.53333Q540.6896 295.72678 539.9162 295.6826Q539.1538 295.62735 538.6456 296.13556Q538.14844 296.63275 538.2037 297.3951Q538.2589 298.13535 539.0544 298.93085ZM547.39606 292.31277L548.2578 291.62778Q548.755 292.4785 548.6335 293.35135Q548.51196 294.22418 547.74963 294.9865Q546.7884 295.94775 545.61725 295.92566Q544.45715 295.8925 543.38544 294.8208Q542.2806 293.71594 542.24744 292.53375Q542.20325 291.3405 543.1092 290.4345Q543.9931 289.55063 545.14215 289.59482Q546.30225 289.628 547.39606 290.72177Q547.46234 290.7881 547.5949 290.92065L544.31354 294.2021Q545.0869 294.8871 545.8382 294.90918Q546.5784 294.92023 547.13086 294.3678Q547.5397 293.959 547.617 293.46182Q547.69434 292.94254 547.39606 292.31277ZM543.75006 293.5502L546.2028 291.09744Q545.59515 290.57816 545.0869 290.53397Q544.2914 290.46765 543.7279 291.03113Q543.2087 291.5504 543.19763 292.2465Q543.19763 292.9315 543.75006 293.5502Z" fill-rule="nonzero"/></svg>