<svg version="1.1" viewBox="0.0 0.0 600.0 371.0" fill="none" stroke="none" stroke-linecap="square" stroke-miterlimit="10" width="600" height="371" xmlns:xlink="http://www.w3.org/1999/xlink" xmlns="http://www.w3.org/2000/svg"><path fill="#ffffff" d="M0 0L600.0 0L600.0 371.0L0 371.0L0 0Z" fill-rule="nonzero"/><path stroke="#333333" stroke-width="1.0" stroke-linecap="butt" d="M49.5 318.5L581.5 318.5" fill-rule="nonzero"/><path stroke="#cccccc" stroke-width="1.0" stroke-linecap="butt" d="M49.5 243.5L581.5 243.5" fill-rule="nonzero"/><path stroke="#cccccc" stroke-width="1.0" stroke-linecap="butt" d="M49.5 168.5L581.5 168.5" fill-rule="nonzero"/><path stroke="#cccccc" stroke-width="1.0" stroke-linecap="butt" d="M49.5 93.5L581.5 93.5" fill-rule="nonzero"/><clipPath id="id_0"><path d="M49.55 93.28333L581.45 93.28333L581.45 318.45L49.55 318.45L49.55 93.28333Z" clip-rule="nonzero"/></clipPath><path stroke="#000000" stroke-width="0.0" stroke-linecap="butt" stroke-opacity="0.0" clip-path="url(#id_0)" d="M97.0 318.0L74.0 318.0L74.0 290.0C74.0 288.89542 74.89543 288.0 76.0 288.0L95.0 288.0C96.10457 288.0 97.0 288.89542 97.0 290.0Z" fill-rule="nonzero"/><path fill="#4285f4" clip-path="url(#id_0)" d="M97.0 318.0L74.0 318.0L74.0 290.0C74.0 288.89542 74.89543 288.0 76.0 288.0L95.0 288.0C96.10457 288.0 97.0 288.89542 97.0 290.0Z" fill-rule="nonzero"/><path stroke="#000000" stroke-width="0.0" stroke-linecap="butt" stroke-opacity="0.0" clip-path="url(#id_0)" d="M170.0 318.0L147.0 318.0L147.0 200.0C147.0 198.89543 147.89543 198.0 149.0 198.0L168.0 198.0C169.10457 198.0 170.0 198.89543 170.0 200.0Z" fill-rule="nonzero"/><path fill="#4285f4" clip-path="url(#id_0)" d="M170.0 318.0L147.0 318.0L147.0 200.0C147.0 198.89543 147.89543 198.0 149.0 198.0L168.0 198.0C169.10457 198.0 170.0 198.89543 170.0 200.0Z" fill-rule="nonzero"/><path stroke="#000000" stroke-width="0.0" stroke-linecap="butt" stroke-opacity="0.0" clip-path="url(#id_0)" d="M242.0 318.0L219.0 318.0L219.0 245.0C219.0 243.89543 219.89543 243.0 221.0 243.0L240.0 243.0C241.10457 243.0 242.0 243.89543 242.0 245.0Z" fill-rule="nonzero"/><path fill="#4285f4" clip-path="url(#id_0)" d="M242.0 318.0L219.0 318.0L219.0 245.0C219.0 243.89543 219.89543 243.0 221.0 243.0L240.0 243.0C241.10457 243.0 242.0 243.89543 242.0 245.0Z" fill-rule="nonzero"/><path stroke="#000000" stroke-width="0.0" stroke-linecap="butt" stroke-opacity="0.0" clip-path="url(#id_0)" d="M315.0 318.0L292.0 318.0L292.0 275.0C292.0 273.89542 292.89542 273.0 294.0 273.0L313.0 273.0C314.10458 273.0 315.0 273.89542 315.0 275.0Z" fill-rule="nonzero"/><path fill="#4285f4" clip-path="url(#id_0)" d="M315.0 318.0L292.0 318.0L292.0 275.0C292.0 273.89542 292.89542 273.0 294.0 273.0L313.0 273.0C314.10458 273.0 315.0 273.89542 315.0 275.0Z" fill-rule="nonzero"/><path stroke="#000000" stroke-width="0.0" stroke-linecap="butt" stroke-opacity="0.0" clip-path="url(#id_0)" d="M387.0 318.0L364.0 318.0L364.0 260.0C364.0 258.89542 364.89542 258.0 366.0 258.0L385.0 258.0C386.10458 258.0 387.0 258.89542 387.0 260.0Z" fill-rule="nonzero"/><path fill="#4285f4" clip-path="url(#id_0)" d="M387.0 318.0L364.0 318.0L364.0 260.0C364.0 258.89542 364.89542 258.0 366.0 258.0L385.0 258.0C386.10458 258.0 387.0 258.89542 387.0 260.0Z" fill-rule="nonzero"/><path stroke="#000000" stroke-width="0.0" stroke-linecap="butt" stroke-opacity="0.0" clip-path="url(#id_0)" d="M459.0 318.0L436.0 318.0L436.0 290.0C436.0 288.89542 436.89542 288.0 438.0 288.0L457.0 288.0C458.10458 288.0 459.0 288.89542 459.0 290.0Z" fill-rule="nonzero"/><path fill="#4285f4" clip-path="url(#id_0)" d="M459.0 318.0L436.0 318.0L436.0 290.0C436.0 288.89542 436.89542 288.0 438.0 288.0L457.0 288.0C458.10458 288.0 459.0 288.89542 459.0 290.0Z" fill-rule="nonzero"/><path stroke="#000000" stroke-width="0.0" stroke-linecap="butt" stroke-opacity="0.0" clip-path="url(#id_0)" d="M532.0 318.0L509.0 318.0L509.0 318.0L532.0 318.0Z" fill-rule="nonzero"/><path fill="#4285f4" clip-path="url(#id_0)" d="M532.0 318.0L509.0 318.0L509.0 318.0L532.0 318.0Z" fill-rule="nonzero"/><path stroke="#000000" stroke-width="0.0" stroke-linecap="butt" stroke-opacity="0.0" clip-path="url(#id_0)" d="M121.0 318.0L98.0 318.0L98.0 290.0C98.0 288.89542 98.89543 288.0 100.0 288.0L119.0 288.0C120.10457 288.0 121.0 288.89542 121.0 290.0Z" fill-rule="nonzero"/><path fill="#ea4335" clip-path="url(#id_0)" d="M121.0 318.0L98.0 318.0L98.0 290.0C98.0 288.89542 98.89543 288.0 100.0 288.0L119.0 288.0C120.10457 288.0 121.0 288.89542 121.0 290.0Z" fill-rule="nonzero"/><path stroke="#000000" stroke-width="0.0" stroke-linecap="butt" stroke-opacity="0.0" clip-path="url(#id_0)" d="M194.0 318.0L171.0 318.0L171.0 170.0C171.0 168.89543 171.89543 168.0 173.0 168.0L192.0 168.0C193.10457 168.0 194.0 168.89543 194.0 170.0Z" fill-rule="nonzero"/><path fill="#ea4335" clip-path="url(#id_0)" d="M194.0 318.0L171.0 318.0L171.0 170.0C171.0 168.89543 171.89543 168.0 173.0 168.0L192.0 168.0C193.10457 168.0 194.0 168.89543 194.0 170.0Z" fill-rule="nonzero"/><path stroke="#000000" stroke-width="0.0" stroke-linecap="butt" stroke-opacity="0.0" clip-path="url(#id_0)" d="M266.0 318.0L243.0 318.0L243.0 215.0C243.0 213.89543 243.89543 213.0 245.0 213.0L264.0 213.0C265.10458 213.0 266.0 213.89543 266.0 215.0Z" fill-rule="nonzero"/><path fill="#ea4335" clip-path="url(#id_0)" d="M266.0 318.0L243.0 318.0L243.0 215.0C243.0 213.89543 243.89543 213.0 245.0 213.0L264.0 213.0C265.10458 213.0 266.0 213.89543 266.0 215.0Z" fill-rule="nonzero"/><path stroke="#000000" stroke-width="0.0" stroke-linecap="butt" stroke-opacity="0.0" clip-path="url(#id_0)" d="M339.0 318.0L316.0 318.0L316.0 110.0C316.0 108.89543 316.89542 108.0 318.0 108.0L337.0 108.0C338.10458 108.0 339.0 108.89543 339.0 110.0Z" fill-rule="nonzero"/><path fill="#ea4335" clip-path="url(#id_0)" d="M339.0 318.0L316.0 318.0L316.0 110.0C316.0 108.89543 316.89542 108.0 318.0 108.0L337.0 108.0C338.10458 108.0 339.0 108.89543 339.0 110.0Z" fill-rule="nonzero"/><path stroke="#000000" stroke-width="0.0" stroke-linecap="butt" stroke-opacity="0.0" clip-path="url(#id_0)" d="M411.0 318.0L388.0 318.0L388.0 245.0C388.0 243.89543 388.89542 243.0 390.0 243.0L409.0 243.0C410.10458 243.0 411.0 243.89543 411.0 245.0Z" fill-rule="nonzero"/><path fill="#ea4335" clip-path="url(#id_0)" d="M411.0 318.0L388.0 318.0L388.0 245.0C388.0 243.89543 388.89542 243.0 390.0 243.0L409.0 243.0C410.10458 243.0 411.0 243.89543 411.0 245.0Z" fill-rule="nonzero"/><path stroke="#000000" stroke-width="0.0" stroke-linecap="butt" stroke-opacity="0.0" clip-path="url(#id_0)" d="M483.0 318.0L460.0 318.0L460.0 170.0C460.0 168.89543 460.89542 168.0 462.0 168.0L481.0 168.0C482.10458 168.0 483.0 168.89543 483.0 170.0Z" fill-rule="nonzero"/><path fill="#ea4335" clip-path="url(#id_0)" d="M483.0 318.0L460.0 318.0L460.0 170.0C460.0 168.89543 460.89542 168.0 462.0 168.0L481.0 168.0C482.10458 168.0 483.0 168.89543 483.0 170.0Z" fill-rule="nonzero"/><path stroke="#000000" stroke-width="0.0" stroke-linecap="butt" stroke-opacity="0.0" clip-path="url(#id_0)" d="M556.0 318.0L533.0 318.0L533.0 200.0C533.0 198.89543 533.89545 198.0 535.0 198.0L554.0 198.0C555.10455 198.0 556.0 198.89543 556.0 200.0Z" fill-rule="nonzero"/><path fill="#ea4335" clip-path="url(#id_0)" d="M556.0 318.0L533.0 318.0L533.0 200.0C533.0 198.89543 533.89545 198.0 535.0 198.0L554.0 198.0C555.10455 198.0 556.0 198.89543 556.0 200.0Z" fill-rule="nonzero"/><path fill="#000000" d="M26.05 318.21564Q26.05 316.6844 26.3625 315.7625Q26.675 314.825 27.284374 314.325Q27.909374 313.825 28.846874 313.825Q29.534374 313.825 30.05 314.10626Q30.58125 314.3875 30.925 314.91876Q31.26875 315.4344 31.45625 316.1844Q31.64375 316.9344 31.64375 318.21564Q31.64375 319.73126 31.33125 320.65314Q31.034374 321.575 30.409374 322.09064Q29.8 322.59064 28.846874 322.59064Q27.6125 322.59064 26.89375 321.7Q26.05 320.6375 26.05 318.21564ZM27.128124 318.21564Q27.128124 320.325 27.628124 321.02814Q28.128124 321.73126 28.846874 321.73126Q29.58125 321.73126 30.065624 321.02814Q30.565624 320.325 30.565624 318.21564Q30.565624 316.09064 30.065624 315.40314Q29.58125 314.7 28.83125 314.7Q28.1125 314.7 27.675 315.3094Q27.128124 316.09064 27.128124 318.21564ZM33.253124 315.91876Q33.253124 314.9969 33.70625 314.35626Q34.175 313.71564 35.05 313.71564Q35.8625 313.71564 36.39375 314.29376Q36.925 314.8719 36.925 315.98126Q36.925 317.075 36.378124 317.66876Q35.846874 318.2469 35.065624 318.2469Q34.284374 318.2469 33.76875 317.66876Q33.253124 317.09064 33.253124 315.91876ZM35.08125 314.4344Q34.690624 314.4344 34.425 314.77814Q34.175 315.1219 34.175 316.02814Q34.175 316.85626 34.425 317.2Q34.690624 317.52814 35.08125 317.52814Q35.4875 317.52814 35.7375 317.1844Q36.003124 316.84064 36.003124 315.95Q36.003124 315.10626 35.7375 314.77814Q35.471874 314.4344 35.08125 314.4344ZM35.08125 322.7625L39.784374 313.71564L40.64375 313.71564L35.95625 322.7625L35.08125 322.7625ZM38.8 320.4344Q38.8 319.5125 39.253124 318.8719Q39.721874 318.23126 40.6125 318.23126Q41.425 318.23126 41.95625 318.8094Q42.4875 319.3719 42.4875 320.4969Q42.4875 321.59064 41.940624 322.1844Q41.409374 322.7625 40.6125 322.7625Q39.846874 322.7625 39.315624 322.1844Q38.8 321.60626 38.8 320.4344ZM40.64375 318.95Q40.2375 318.95 39.971874 319.29376Q39.721874 319.6375 39.721874 320.54376Q39.721874 321.35626 39.9875 321.7Q40.253124 322.04376 40.64375 322.04376Q41.034374 322.04376 41.3 321.7Q41.565624 321.35626 41.565624 320.45Q41.565624 319.6219 41.3 319.29376Q41.034374 318.95 40.64375 318.95Z" fill-rule="nonzero"/><path fill="#000000" d="M26.05 245.14444L27.159374 245.05069Q27.284374 245.86319 27.721874 246.26944Q28.175 246.67569 28.815624 246.67569Q29.565624 246.67569 30.096874 246.09756Q30.628124 245.51944 30.628124 244.58194Q30.628124 243.67569 30.1125 243.16006Q29.6125 242.62881 28.784374 242.62881Q28.284374 242.62881 27.8625 242.86319Q27.45625 243.09756 27.221874 243.45694L26.2375 243.33194L27.065624 238.92569L31.346874 238.92569L31.346874 239.92569L27.909374 239.92569L27.45625 242.23819Q28.221874 241.69131 29.065624 241.69131Q30.190624 241.69131 30.95625 242.47256Q31.7375 243.25381 31.7375 244.48819Q31.7375 245.64444 31.065624 246.50381Q30.2375 247.53506 28.815624 247.53506Q27.64375 247.53506 26.89375 246.87881Q26.159374 246.22256 26.05 245.14444ZM33.253124 240.86319Q33.253124 239.94131 33.70625 239.30069Q34.175 238.66006 35.05 238.66006Q35.8625 238.66006 36.39375 239.23819Q36.925 239.81631 36.925 240.92569Q36.925 242.01944 36.378124 242.61319Q35.846874 243.19131 35.065624 243.19131Q34.284374 243.19131 33.76875 242.61319Q33.253124 242.03506 33.253124 240.86319ZM35.08125 239.37881Q34.690624 239.37881 34.425 239.72256Q34.175 240.06631 34.175 240.97256Q34.175 241.80069 34.425 242.14444Q34.690624 242.47256 35.08125 242.47256Q35.4875 242.47256 35.7375 242.12881Q36.003124 241.78506 36.003124 240.89444Q36.003124 240.05069 35.7375 239.72256Q35.471874 239.37881 35.08125 239.37881ZM35.08125 247.70694L39.784374 238.66006L40.64375 238.66006L35.95625 247.70694L35.08125 247.70694ZM38.8 245.37881Q38.8 244.45694 39.253124 243.81631Q39.721874 243.17569 40.6125 243.17569Q41.425 243.17569 41.95625 243.75381Q42.4875 244.31631 42.4875 245.44131Q42.4875 246.53506 41.940624 247.12881Q41.409374 247.70694 40.6125 247.70694Q39.846874 247.70694 39.315624 247.12881Q38.8 246.55069 38.8 245.37881ZM40.64375 243.89444Q40.2375 243.89444 39.971874 244.23819Q39.721874 244.58194 39.721874 245.48819Q39.721874 246.30069 39.9875 246.64444Q40.253124 246.98819 40.64375 246.98819Q41.034374 246.98819 41.3 246.64444Q41.565624 246.30069 41.565624 245.39444Q41.565624 244.56631 41.3 244.23819Q41.034374 243.89444 40.64375 243.89444Z" fill-rule="nonzero"/><path fill="#000000" d="M23.01875 172.33888L21.971874 172.33888L21.971874 165.62013Q21.58125 165.9795 20.95625 166.3545Q20.346874 166.71388 19.8625 166.88576L19.8625 165.87013Q20.7375 165.44826 21.39375 164.87013Q22.065624 164.27638 22.346874 163.71388L23.01875 163.71388L23.01875 172.33888ZM26.05 168.1045Q26.05 166.57326 26.3625 165.65138Q26.675 164.71388 27.284374 164.21388Q27.909374 163.71388 28.846874 163.71388Q29.534374 163.71388 30.05 163.99513Q30.58125 164.27638 30.925 164.80763Q31.26875 165.32326 31.45625 166.07326Q31.64375 166.82326 31.64375 168.1045Q31.64375 169.62013 31.33125 170.542Q31.034374 171.46388 30.409374 171.9795Q29.8 172.4795 28.846874 172.4795Q27.6125 172.4795 26.89375 171.58888Q26.05 170.52638 26.05 168.1045ZM27.128124 168.1045Q27.128124 170.21388 27.628124 170.917Q28.128124 171.62013 28.846874 171.62013Q29.58125 171.62013 30.065624 170.917Q30.565624 170.21388 30.565624 168.1045Q30.565624 165.9795 30.065624 165.292Q29.58125 164.58888 28.83125 164.58888Q28.1125 164.58888 27.675 165.19826Q27.128124 165.9795 27.128124 168.1045ZM33.253124 165.80763Q33.253124 164.88576 33.70625 164.24513Q34.175 163.6045 35.05 163.6045Q35.8625 163.6045 36.39375 164.18263Q36.925 164.76076 36.925 165.87013Q36.925 166.96388 36.378124 167.55763Q35.846874 168.13576 35.065624 168.13576Q34.284374 168.13576 33.76875 167.55763Q33.253124 166.9795 33.253124 165.80763ZM35.08125 164.32326Q34.690624 164.32326 34.425 164.667Q34.175 165.01076 34.175 165.917Q34.175 166.74513 34.425 167.08888Q34.690624 167.417 35.08125 167.417Q35.4875 167.417 35.7375 167.07326Q36.003124 166.7295 36.003124 165.83888Q36.003124 164.99513 35.7375 164.667Q35.471874 164.32326 35.08125 164.32326ZM35.08125 172.65138L39.784374 163.6045L40.64375 163.6045L35.95625 172.65138L35.08125 172.65138ZM38.8 170.32326Q38.8 169.40138 39.253124 168.76076Q39.721874 168.12013 40.6125 168.12013Q41.425 168.12013 41.95625 168.69826Q42.4875 169.26076 42.4875 170.38576Q42.4875 171.4795 41.940624 172.07326Q41.409374 172.65138 40.6125 172.65138Q39.846874 172.65138 39.315624 172.07326Q38.8 171.49513 38.8 170.32326ZM40.64375 168.83888Q40.2375 168.83888 39.971874 169.18263Q39.721874 169.52638 39.721874 170.43263Q39.721874 171.24513 39.9875 171.58888Q40.253124 171.93263 40.64375 171.93263Q41.034374 171.93263 41.3 171.58888Q41.565624 171.24513 41.565624 170.33888Q41.565624 169.51076 41.3 169.18263Q41.034374 168.83888 40.64375 168.83888Z" fill-rule="nonzero"/><path fill="#000000" d="M23.01875 97.28333L21.971874 97.28333L21.971874 90.56458Q21.58125 90.92396 20.95625 91.29896Q20.346874 91.65833 19.8625 91.83021L19.8625 90.81458Q20.7375 90.39271 21.39375 89.81458Q22.065624 89.22083 22.346874 88.65833L23.01875 88.65833L23.01875 97.28333ZM26.05 95.03333L27.159374 94.93958Q27.284374 95.75208 27.721874 96.15833Q28.175 96.56458 28.815624 96.56458Q29.565624 96.56458 30.096874 95.98646Q30.628124 95.40833 30.628124 94.47083Q30.628124 93.56458 30.1125 93.04896Q29.6125 92.51771 28.784374 92.51771Q28.284374 92.51771 27.8625 92.75208Q27.45625 92.98646 27.221874 93.34583L26.2375 93.22083L27.065624 88.81458L31.346874 88.81458L31.346874 89.81458L27.909374 89.81458L27.45625 92.12708Q28.221874 91.58021 29.065624 91.58021Q30.190624 91.58021 30.95625 92.36146Q31.7375 93.14271 31.7375 94.37708Q31.7375 95.53333 31.065624 96.39271Q30.2375 97.42396 28.815624 97.42396Q27.64375 97.42396 26.89375 96.76771Q26.159374 96.11146 26.05 95.03333ZM33.253124 90.75208Q33.253124 89.83021 33.70625 89.18958Q34.175 88.54896 35.05 88.54896Q35.8625 88.54896 36.39375 89.12708Q36.925 89.70521 36.925 90.81458Q36.925 91.90833 36.378124 92.50208Q35.846874 93.08021 35.065624 93.08021Q34.284374 93.08021 33.76875 92.50208Q33.253124 91.92396 33.253124 90.75208ZM35.08125 89.26771Q34.690624 89.26771 34.425 89.61146Q34.175 89.95521 34.175 90.86146Q34.175 91.68958 34.425 92.03333Q34.690624 92.36146 35.08125 92.36146Q35.4875 92.36146 35.7375 92.01771Q36.003124 91.67396 36.003124 90.78333Q36.003124 89.93958 35.7375 89.61146Q35.471874 89.26771 35.08125 89.26771ZM35.08125 97.59583L39.784374 88.54896L40.64375 88.54896L35.95625 97.59583L35.08125 97.59583ZM38.8 95.26771Q38.8 94.34583 39.253124 93.70521Q39.721874 93.06458 40.6125 93.06458Q41.425 93.06458 41.95625 93.64271Q42.4875 94.20521 42.4875 95.33021Q42.4875 96.42396 41.940624 97.01771Q41.409374 97.59583 40.6125 97.59583Q39.846874 97.59583 39.315624 97.01771Q38.8 96.43958 38.8 95.26771ZM40.64375 93.78333Q40.2375 93.78333 39.971874 94.12708Q39.721874 94.47083 39.721874 95.37708Q39.721874 96.18958 39.9875 96.53333Q40.253124 96.87708 40.64375 96.87708Q41.034374 96.87708 41.3 96.53333Q41.565624 96.18958 41.565624 95.28333Q41.565624 94.45521 41.3 94.12708Q41.034374 93.78333 40.64375 93.78333Z" fill-rule="nonzero"/><path fill="#000000" d="M81.33546 335.45L81.33546 326.85626L85.14796 326.85626Q86.30421 326.85626 86.89796 327.09064Q87.49171 327.325 87.85108 327.91876Q88.21046 328.4969 88.21046 329.2Q88.21046 330.1219 87.61671 330.7469Q87.02296 331.3719 85.78858 331.54376Q86.24171 331.7625 86.47608 331.96564Q86.97608 332.41876 87.41358 333.10626L88.91358 335.45L87.47608 335.45L86.35108 333.66876Q85.85108 332.8875 85.52296 332.48126Q85.21046 332.075 84.94483 331.91876Q84.69483 331.7469 84.42921 331.66876Q84.24171 331.6375 83.80421 331.6375L82.47608 331.6375L82.47608 335.45L81.33546 335.45ZM82.47608 330.65314L84.92921 330.65314Q85.69483 330.65314 86.13233 330.4969Q86.58546 330.325 86.80421 329.98126Q87.03858 329.6219 87.03858 329.2Q87.03858 328.59064 86.58546 328.2Q86.14796 327.8094 85.19483 327.8094L82.47608 327.8094L82.47608 330.65314ZM94.44483 333.45L95.53858 333.575Q95.28858 334.52814 94.58546 335.0594Q93.88233 335.59064 92.80421 335.59064Q91.44483 335.59064 90.63233 334.7469Q89.83546 333.90314 89.83546 332.3875Q89.83546 330.825 90.64796 329.96564Q91.46046 329.09064 92.74171 329.09064Q93.99171 329.09064 94.77296 329.9344Q95.56983 330.77814 95.56983 332.325Q95.56983 332.41876 95.56983 332.60626L90.92921 332.60626Q90.99171 333.6375 91.50733 334.1844Q92.02296 334.71564 92.80421 334.71564Q93.38233 334.71564 93.78858 334.41876Q94.21046 334.10626 94.44483 333.45ZM90.99171 331.7469L94.46046 331.7469Q94.39796 330.95 94.06983 330.5594Q93.55421 329.95 92.75733 329.95Q92.02296 329.95 91.52296 330.4344Q91.03858 330.91876 90.99171 331.7469ZM101.22608 335.45L101.22608 334.66876Q100.63233 335.59064 99.49171 335.59064Q98.74171 335.59064 98.11671 335.1844Q97.49171 334.7625 97.14796 334.02814Q96.80421 333.29376 96.80421 332.34064Q96.80421 331.41876 97.11671 330.65314Q97.42921 329.8875 98.05421 329.4969Q98.67921 329.09064 99.44483 329.09064Q100.00733 329.09064 100.44483 329.325Q100.88233 329.5594 101.16358 329.9344L101.16358 326.85626L102.21046 326.85626L102.21046 335.45L101.22608 335.45ZM97.89796 332.34064Q97.89796 333.54376 98.39796 334.1375Q98.89796 334.71564 99.58546 334.71564Q100.27296 334.71564 100.75733 334.15314Q101.24171 333.59064 101.24171 332.4344Q101.24171 331.15314 100.74171 330.5594Q100.25733 329.96564 99.53858 329.96564Q98.83546 329.96564 98.36671 330.54376Q97.89796 331.10626 97.89796 332.34064ZM108.22608 335.45L108.22608 334.66876Q107.63233 335.59064 106.49171 335.59064Q105.74171 335.59064 105.11671 335.1844Q104.49171 334.7625 104.14796 334.02814Q103.80421 333.29376 103.80421 332.34064Q103.80421 331.41876 104.11671 330.65314Q104.42921 329.8875 105.05421 329.4969Q105.67921 329.09064 106.44483 329.09064Q107.00733 329.09064 107.44483 329.325Q107.88233 329.5594 108.16358 329.9344L108.16358 326.85626L109.21046 326.85626L109.21046 335.45L108.22608 335.45ZM104.89796 332.34064Q104.89796 333.54376 105.39796 334.1375Q105.89796 334.71564 106.58546 334.71564Q107.27296 334.71564 107.75733 334.15314Q108.24171 333.59064 108.24171 332.4344Q108.24171 331.15314 107.74171 330.5594Q107.25733 329.96564 106.53858 329.96564Q105.83546 329.96564 105.36671 330.54376Q104.89796 331.10626 104.89796 332.34064ZM111.19483 328.075L111.19483 326.85626L112.25733 326.85626L112.25733 328.075L111.19483 328.075ZM111.19483 335.45L111.19483 329.23126L112.25733 329.23126L112.25733 335.45L111.19483 335.45ZM116.49171 334.5125L116.64796 335.4344Q116.19483 335.52814 115.85108 335.52814Q115.27296 335.52814 114.96046 335.35626Q114.64796 335.16876 114.50733 334.8719Q114.38233 334.575 114.38233 333.6219L114.38233 330.04376L113.61671 330.04376L113.61671 329.23126L114.38233 329.23126L114.38233 327.6844L115.42921 327.0594L115.42921 329.23126L116.49171 329.23126L116.49171 330.04376L115.42921 330.04376L115.42921 333.6844Q115.42921 334.1375 115.47608 334.2625Q115.53858 334.3875 115.66358 334.46564Q115.78858 334.54376 116.02296 334.54376Q116.21046 334.54376 116.49171 334.5125Z" fill-rule="nonzero"/><path fill="#000000" d="M144.74968 335.45L144.74968 326.85626L150.54655 326.85626L150.54655 327.8719L145.8903 327.8719L145.8903 330.52814L149.92155 330.52814L149.92155 331.54376L145.8903 331.54376L145.8903 335.45L144.74968 335.45ZM155.62468 334.6844Q155.03093 335.1844 154.48405 335.3875Q153.9528 335.59064 153.3278 335.59064Q152.29655 335.59064 151.74968 335.09064Q151.2028 334.59064 151.2028 333.8094Q151.2028 333.35626 151.40593 332.98126Q151.60905 332.59064 151.9528 332.3719Q152.29655 332.1375 152.71843 332.02814Q153.0153 331.9344 153.65593 331.85626Q154.92155 331.71564 155.53093 331.4969Q155.53093 331.27814 155.53093 331.23126Q155.53093 330.575 155.23405 330.3094Q154.8278 329.96564 154.03093 329.96564Q153.29655 329.96564 152.93718 330.23126Q152.5778 330.48126 152.40593 331.1375L151.37468 330.9969Q151.5153 330.34064 151.84343 329.9344Q152.17155 329.52814 152.78093 329.3094Q153.3903 329.09064 154.18718 329.09064Q154.98405 329.09064 155.48405 329.27814Q155.98405 329.46564 156.21843 329.7469Q156.4528 330.02814 156.54655 330.46564Q156.59343 330.73126 156.59343 331.4344L156.59343 332.84064Q156.59343 334.3094 156.65593 334.7Q156.73405 335.09064 156.93718 335.45L155.8278 335.45Q155.67155 335.1219 155.62468 334.6844ZM155.53093 332.325Q154.9528 332.5594 153.81218 332.73126Q153.15593 332.825 152.8903 332.95Q152.62468 333.0594 152.46843 333.27814Q152.3278 333.4969 152.3278 333.77814Q152.3278 334.2 152.6403 334.48126Q152.96843 334.7625 153.5778 334.7625Q154.18718 334.7625 154.65593 334.4969Q155.1403 334.23126 155.35905 333.7625Q155.53093 333.40314 155.53093 332.71564L155.53093 332.325ZM162.62468 333.16876L163.65593 333.3094Q163.48405 334.3719 162.78093 334.98126Q162.0778 335.59064 161.06218 335.59064Q159.78093 335.59064 158.99968 334.7625Q158.23405 333.91876 158.23405 332.35626Q158.23405 331.35626 158.56218 330.60626Q158.90593 329.84064 159.5778 329.46564Q160.2653 329.09064 161.0778 329.09064Q162.0778 329.09064 162.71843 329.60626Q163.37468 330.10626 163.56218 331.0594L162.53093 331.21564Q162.3903 330.59064 162.0153 330.27814Q161.6403 329.95 161.10905 329.95Q160.31218 329.95 159.81218 330.52814Q159.31218 331.09064 159.31218 332.325Q159.31218 333.59064 159.79655 334.15314Q160.28093 334.71564 161.04655 334.71564Q161.67155 334.71564 162.0778 334.34064Q162.49968 333.96564 162.62468 333.16876ZM168.81218 333.45L169.90593 333.575Q169.65593 334.52814 168.9528 335.0594Q168.24968 335.59064 167.17155 335.59064Q165.81218 335.59064 164.99968 334.7469Q164.2028 333.90314 164.2028 332.3875Q164.2028 330.825 165.0153 329.96564Q165.8278 329.09064 167.10905 329.09064Q168.35905 329.09064 169.1403 329.9344Q169.93718 330.77814 169.93718 332.325Q169.93718 332.41876 169.93718 332.60626L165.29655 332.60626Q165.35905 333.6375 165.87468 334.1844Q166.3903 334.71564 167.17155 334.71564Q167.74968 334.71564 168.15593 334.41876Q168.5778 334.10626 168.81218 333.45ZM165.35905 331.7469L168.8278 331.7469Q168.7653 330.95 168.43718 330.5594Q167.92155 329.95 167.12468 329.95Q166.3903 329.95 165.8903 330.4344Q165.40593 330.91876 165.35905 331.7469ZM172.53093 335.45L171.54655 335.45L171.54655 326.85626L172.60905 326.85626L172.60905 329.91876Q173.28093 329.09064 174.31218 329.09064Q174.8903 329.09064 175.3903 329.325Q175.90593 329.54376 176.23405 329.96564Q176.5778 330.3875 176.7653 330.98126Q176.9528 331.575 176.9528 332.2469Q176.9528 333.84064 176.15593 334.71564Q175.35905 335.59064 174.2653 335.59064Q173.15593 335.59064 172.53093 334.66876L172.53093 335.45ZM172.5153 332.29376Q172.5153 333.40314 172.8278 333.90314Q173.3278 334.71564 174.17155 334.71564Q174.85905 334.71564 175.35905 334.1219Q175.87468 333.52814 175.87468 332.325Q175.87468 331.10626 175.3903 330.52814Q174.90593 329.95 174.21843 329.95Q173.53093 329.95 173.0153 330.5594Q172.5153 331.15314 172.5153 332.29376ZM178.17155 332.34064Q178.17155 330.60626 179.12468 329.77814Q179.92155 329.09064 181.0778 329.09064Q182.35905 329.09064 183.17155 329.9344Q183.99968 330.7625 183.99968 332.2469Q183.99968 333.45 183.6403 334.1375Q183.28093 334.825 182.5778 335.21564Q181.8903 335.59064 181.0778 335.59064Q179.78093 335.59064 178.96843 334.7625Q178.17155 333.91876 178.17155 332.34064ZM179.24968 332.34064Q179.24968 333.52814 179.7653 334.1219Q180.29655 334.71564 181.0778 334.71564Q181.87468 334.71564 182.3903 334.1219Q182.90593 333.52814 182.90593 332.3094Q182.90593 331.15314 182.37468 330.5594Q181.85905 329.96564 181.0778 329.96564Q180.29655 329.96564 179.7653 330.5594Q179.24968 331.1375 179.24968 332.34064ZM185.17155 332.34064Q185.17155 330.60626 186.12468 329.77814Q186.92155 329.09064 188.0778 329.09064Q189.35905 329.09064 190.17155 329.9344Q190.99968 330.7625 190.99968 332.2469Q190.99968 333.45 190.6403 334.1375Q190.28093 334.825 189.5778 335.21564Q188.8903 335.59064 188.0778 335.59064Q186.78093 335.59064 185.96843 334.7625Q185.17155 333.91876 185.17155 332.34064ZM186.24968 332.34064Q186.24968 333.52814 186.7653 334.1219Q187.29655 334.71564 188.0778 334.71564Q188.87468 334.71564 189.3903 334.1219Q189.90593 333.52814 189.90593 332.3094Q189.90593 331.15314 189.37468 330.5594Q188.85905 329.96564 188.0778 329.96564Q187.29655 329.96564 186.7653 330.5594Q186.24968 331.1375 186.24968 332.34064ZM192.56218 335.45L192.56218 326.85626L193.62468 326.85626L193.62468 331.7625L196.10905 329.23126L197.48405 329.23126L195.09343 331.52814L197.71843 335.45L196.42155 335.45L194.35905 332.2625L193.62468 332.98126L193.62468 335.45L192.56218 335.45Z" fill-rule="nonzero"/><path fill="#000000" d="M217.55453 335.45L217.55453 326.85626L218.71078 326.85626L223.22641 333.60626L223.22641 326.85626L224.32016 326.85626L224.32016 335.45L223.14828 335.45L218.63266 328.7L218.63266 335.45L217.55453 335.45ZM230.67953 333.45L231.77328 333.575Q231.52328 334.52814 230.82016 335.0594Q230.11703 335.59064 229.03891 335.59064Q227.67953 335.59064 226.86703 334.7469Q226.07016 333.90314 226.07016 332.3875Q226.07016 330.825 226.88266 329.96564Q227.69516 329.09064 228.97641 329.09064Q230.22641 329.09064 231.00766 329.9344Q231.80453 330.77814 231.80453 332.325Q231.80453 332.41876 231.80453 332.60626L227.16391 332.60626Q227.22641 333.6375 227.74203 334.1844Q228.25766 334.71564 229.03891 334.71564Q229.61703 334.71564 230.02328 334.41876Q230.44516 334.10626 230.67953 333.45ZM227.22641 331.7469L230.69516 331.7469Q230.63266 330.95 230.30453 330.5594Q229.78891 329.95 228.99203 329.95Q228.25766 329.95 227.75766 330.4344Q227.27328 330.91876 227.22641 331.7469ZM234.57016 335.45L232.66391 329.23126L233.75766 329.23126L234.74203 332.825L235.11703 334.15314Q235.14828 334.0594 235.44516 332.8719L236.42953 329.23126L237.50766 329.23126L238.44516 332.84064L238.75766 334.02814L239.11703 332.825L240.17953 329.23126L241.21078 329.23126L239.25766 335.45L238.16391 335.45L237.17953 331.71564L236.92953 330.66876L235.67953 335.45L234.57016 335.45ZM247.97641 335.45L247.97641 331.8094L244.66391 326.85626L246.05453 326.85626L247.74203 329.45Q248.21078 330.16876 248.61703 330.90314Q249.00766 330.23126 249.55453 329.3875L251.22641 326.85626L252.53891 326.85626L249.11703 331.8094L249.11703 335.45L247.97641 335.45ZM253.03891 332.34064Q253.03891 330.60626 253.99203 329.77814Q254.78891 329.09064 255.94516 329.09064Q257.2264 329.09064 258.0389 329.9344Q258.86703 330.7625 258.86703 332.2469Q258.86703 333.45 258.50766 334.1375Q258.1483 334.825 257.44516 335.21564Q256.75766 335.59064 255.94516 335.59064Q254.64828 335.59064 253.83578 334.7625Q253.03891 333.91876 253.03891 332.34064ZM254.11703 332.34064Q254.11703 333.52814 254.63266 334.1219Q255.16391 334.71564 255.94516 334.71564Q256.74203 334.71564 257.25766 334.1219Q257.7733 333.52814 257.7733 332.3094Q257.7733 331.15314 257.24203 330.5594Q256.7264 329.96564 255.94516 329.96564Q255.16391 329.96564 254.63266 330.5594Q254.11703 331.1375 254.11703 332.34064ZM260.4139 335.45L260.4139 329.23126L261.36703 329.23126L261.36703 330.16876Q261.7264 329.5125 262.0233 329.3094Q262.3358 329.09064 262.7108 329.09064Q263.24203 329.09064 263.7889 329.41876L263.42953 330.40314Q263.0389 330.16876 262.6639 330.16876Q262.30453 330.16876 262.0233 330.3875Q261.75766 330.59064 261.6483 330.96564Q261.4608 331.52814 261.4608 332.1844L261.4608 335.45L260.4139 335.45ZM264.42953 335.45L264.42953 326.85626L265.49203 326.85626L265.49203 331.7625L267.9764 329.23126L269.3514 329.23126L266.9608 331.52814L269.5858 335.45L268.2889 335.45L266.2264 332.2625L265.49203 332.98126L265.49203 335.45L264.42953 335.45Z" fill-rule="nonzero"/><path fill="#000000" d="M229.74203 349.45L229.74203 341.8719L226.91391 341.8719L226.91391 340.85626L233.72641 340.85626L233.72641 341.8719L230.88266 341.8719L230.88266 349.45L229.74203 349.45ZM234.42953 342.075L234.42953 340.85626L235.49203 340.85626L235.49203 342.075L234.42953 342.075ZM234.42953 349.45L234.42953 343.23126L235.49203 343.23126L235.49203 349.45L234.42953 349.45ZM237.42953 349.45L237.42953 343.23126L238.36703 343.23126L238.36703 344.10626Q238.66391 343.6375 239.14828 343.3719Q239.63266 343.09064 240.25766 343.09064Q240.94516 343.09064 241.38266 343.3719Q241.83578 343.65314 242.00766 344.16876Q242.75766 343.09064 243.92953 343.09064Q244.86703 343.09064 245.35141 343.60626Q245.85141 344.10626 245.85141 345.1844L245.85141 349.45L244.80453 349.45L244.80453 345.52814Q244.80453 344.90314 244.69516 344.6219Q244.60141 344.34064 244.33578 344.16876Q244.07016 343.9969 243.69516 343.9969Q243.03891 343.9969 242.60141 344.4344Q242.17953 344.8719 242.17953 345.84064L242.17953 349.45L241.11703 349.45L241.11703 345.40314Q241.11703 344.7 240.85141 344.35626Q240.60141 343.9969 240.02328 343.9969Q239.57016 343.9969 239.19516 344.23126Q238.82016 344.46564 238.64828 344.91876Q238.47641 345.3719 238.47641 346.21564L238.47641 349.45L237.42953 349.45ZM251.67953 347.45L252.77328 347.575Q252.52328 348.52814 251.82016 349.0594Q251.11703 349.59064 250.03891 349.59064Q248.67953 349.59064 247.86703 348.7469Q247.07016 347.90314 247.07016 346.3875Q247.07016 344.825 247.88266 343.96564Q248.69516 343.09064 249.97641 343.09064Q251.22641 343.09064 252.00766 343.9344Q252.80453 344.77814 252.80453 346.325Q252.80453 346.41876 252.80453 346.60626L248.16391 346.60626Q248.22641 347.6375 248.74203 348.1844Q249.25766 348.71564 250.03891 348.71564Q250.61703 348.71564 251.02328 348.41876Q251.44516 348.10626 251.67953 347.45ZM248.22641 345.7469L251.69516 345.7469Q251.63266 344.95 251.30453 344.5594Q250.78891 343.95 249.99203 343.95Q249.25766 343.95 248.75766 344.4344Q248.27328 344.91876 248.22641 345.7469ZM254.00766 347.59064L255.03891 347.4344Q255.13266 348.0594 255.52328 348.3875Q255.92953 348.71564 256.6639 348.71564Q257.38266 348.71564 257.7264 348.4344Q258.0858 348.1375 258.0858 347.73126Q258.0858 347.3719 257.7733 347.16876Q257.55453 347.02814 256.69516 346.8094Q255.53891 346.5125 255.08578 346.3094Q254.64828 346.09064 254.41391 345.71564Q254.17953 345.34064 254.17953 344.8719Q254.17953 344.46564 254.36703 344.10626Q254.55453 343.7469 254.88266 343.5125Q255.13266 343.34064 255.55453 343.21564Q255.97641 343.09064 256.4764 343.09064Q257.19516 343.09064 257.74203 343.3094Q258.30453 343.5125 258.57016 343.8719Q258.8358 344.23126 258.92953 344.825L257.8983 344.96564Q257.8358 344.4969 257.49203 344.23126Q257.1639 343.95 256.5389 343.95Q255.82016 343.95 255.50766 344.2Q255.19516 344.4344 255.19516 344.7625Q255.19516 344.96564 255.32016 345.1219Q255.46078 345.29376 255.72641 345.40314Q255.88266 345.46564 256.6639 345.66876Q257.7889 345.98126 258.2264 346.16876Q258.6639 346.35626 258.9139 346.71564Q259.1639 347.075 259.1639 347.6219Q259.1639 348.15314 258.8514 348.6219Q258.55453 349.075 257.9764 349.34064Q257.3983 349.59064 256.6639 349.59064Q255.44516 349.59064 254.80453 349.09064Q254.17953 348.575 254.00766 347.59064Z" fill-rule="nonzero"/><path fill="#000000" d="M309.0625 332.4344L310.1875 332.73126Q309.82812 334.1219 308.90625 334.85626Q307.98438 335.59064 306.64062 335.59064Q305.25 335.59064 304.375 335.02814Q303.5 334.46564 303.04688 333.40314Q302.59375 332.325 302.59375 331.09064Q302.59375 329.7469 303.10938 328.7469Q303.625 327.7469 304.5625 327.23126Q305.51562 326.71564 306.65625 326.71564Q307.9375 326.71564 308.8125 327.3719Q309.70312 328.02814 310.04688 329.21564L308.92188 329.48126Q308.625 328.54376 308.04688 328.1219Q307.48438 327.6844 306.625 327.6844Q305.64062 327.6844 304.96875 328.16876Q304.3125 328.6375 304.03125 329.4344Q303.76562 330.23126 303.76562 331.09064Q303.76562 332.1844 304.07812 332.9969Q304.40625 333.8094 305.07812 334.21564Q305.75 334.6219 306.54688 334.6219Q307.5 334.6219 308.15625 334.075Q308.82812 333.52814 309.0625 332.4344ZM311.92188 335.45L311.92188 326.85626L313.07812 326.85626L317.59375 333.60626L317.59375 326.85626L318.6875 326.85626L318.6875 335.45L317.51562 335.45L313.0 328.7L313.0 335.45L311.92188 335.45ZM320.92188 335.45L320.92188 326.85626L322.07812 326.85626L326.59375 333.60626L326.59375 326.85626L327.6875 326.85626L327.6875 335.45L326.51562 335.45L322.0 328.7L322.0 335.45L320.92188 335.45Z" fill-rule="nonzero"/><path fill="#000000" d="M364.7892 335.45L364.7892 326.85626L368.0392 326.85626Q368.88297 326.85626 369.3361 326.9344Q369.9767 327.04376 370.3986 327.34064Q370.8361 327.6375 371.0861 328.16876Q371.3517 328.7 371.3517 329.34064Q371.3517 330.4344 370.6486 331.2Q369.9611 331.95 368.13297 331.95L365.92984 331.95L365.92984 335.45L364.7892 335.45ZM365.92984 330.95L368.1486 330.95Q369.25797 330.95 369.7111 330.54376Q370.17984 330.1219 370.17984 329.3719Q370.17984 328.84064 369.8986 328.46564Q369.63297 328.075 369.19547 327.95Q368.8986 327.8719 368.13297 327.8719L365.92984 327.8719L365.92984 330.95ZM372.6642 328.075L372.6642 326.85626L373.7267 326.85626L373.7267 328.075L372.6642 328.075ZM372.6642 335.45L372.6642 329.23126L373.7267 329.23126L373.7267 335.45L372.6642 335.45ZM375.6642 335.45L375.6642 329.23126L376.6017 329.23126L376.6017 330.10626Q377.2892 329.09064 378.5861 329.09064Q379.1486 329.09064 379.61734 329.29376Q380.1017 329.4969 380.3361 329.825Q380.57047 330.15314 380.6642 330.59064Q380.7111 330.8875 380.7111 331.6219L380.7111 335.45L379.6642 335.45L379.6642 331.66876Q379.6642 331.0125 379.5392 330.7Q379.4142 330.3875 379.1017 330.2Q378.7892 329.9969 378.36734 329.9969Q377.69547 329.9969 377.19547 330.4344Q376.7111 330.85626 376.7111 332.04376L376.7111 335.45L375.6642 335.45ZM384.9611 334.5125L385.11734 335.4344Q384.6642 335.52814 384.32047 335.52814Q383.74234 335.52814 383.42984 335.35626Q383.11734 335.16876 382.9767 334.8719Q382.8517 334.575 382.8517 333.6219L382.8517 330.04376L382.0861 330.04376L382.0861 329.23126L382.8517 329.23126L382.8517 327.6844L383.8986 327.0594L383.8986 329.23126L384.9611 329.23126L384.9611 330.04376L383.8986 330.04376L383.8986 333.6844Q383.8986 334.1375 383.94547 334.2625Q384.00797 334.3875 384.13297 334.46564Q384.25797 334.54376 384.49234 334.54376Q384.67984 334.54376 384.9611 334.5125ZM389.9142 333.45L391.00797 333.575Q390.75797 334.52814 390.05484 335.0594Q389.3517 335.59064 388.2736 335.59064Q386.9142 335.59064 386.1017 334.7469Q385.30484 333.90314 385.30484 332.3875Q385.30484 330.825 386.11734 329.96564Q386.92984 329.09064 388.2111 329.09064Q389.4611 329.09064 390.24234 329.9344Q391.0392 330.77814 391.0392 332.325Q391.0392 332.41876 391.0392 332.60626L386.3986 332.60626Q386.4611 333.6375 386.9767 334.1844Q387.49234 334.71564 388.2736 334.71564Q388.8517 334.71564 389.25797 334.41876Q389.67984 334.10626 389.9142 333.45ZM386.4611 331.7469L389.92984 331.7469Q389.86734 330.95 389.5392 330.5594Q389.0236 329.95 388.2267 329.95Q387.49234 329.95 386.99234 330.4344Q386.50797 330.91876 386.4611 331.7469ZM392.6486 335.45L392.6486 329.23126L393.6017 329.23126L393.6017 330.16876Q393.9611 329.5125 394.25797 329.3094Q394.57047 329.09064 394.94547 329.09064Q395.4767 329.09064 396.0236 329.41876L395.6642 330.40314Q395.2736 330.16876 394.8986 330.16876Q394.5392 330.16876 394.25797 330.3875Q393.99234 330.59064 393.88297 330.96564Q393.69547 331.52814 393.69547 332.1844L393.69547 335.45L392.6486 335.45ZM400.9142 333.45L402.00797 333.575Q401.75797 334.52814 401.05484 335.0594Q400.3517 335.59064 399.2736 335.59064Q397.9142 335.59064 397.1017 334.7469Q396.30484 333.90314 396.30484 332.3875Q396.30484 330.825 397.11734 329.96564Q397.92984 329.09064 399.2111 329.09064Q400.4611 329.09064 401.24234 329.9344Q402.0392 330.77814 402.0392 332.325Q402.0392 332.41876 402.0392 332.60626L397.3986 332.60626Q397.4611 333.6375 397.9767 334.1844Q398.49234 334.71564 399.2736 334.71564Q399.8517 334.71564 400.25797 334.41876Q400.67984 334.10626 400.9142 333.45ZM397.4611 331.7469L400.92984 331.7469Q400.86734 330.95 400.5392 330.5594Q400.0236 329.95 399.2267 329.95Q398.49234 329.95 397.99234 330.4344Q397.50797 330.91876 397.4611 331.7469ZM403.24234 333.59064L404.2736 333.4344Q404.36734 334.0594 404.75797 334.3875Q405.1642 334.71564 405.8986 334.71564Q406.61734 334.71564 406.9611 334.4344Q407.32047 334.1375 407.32047 333.73126Q407.32047 333.3719 407.00797 333.16876Q406.7892 333.02814 405.92984 332.8094Q404.7736 332.5125 404.32047 332.3094Q403.88297 332.09064 403.6486 331.71564Q403.4142 331.34064 403.4142 330.8719Q403.4142 330.46564 403.6017 330.10626Q403.7892 329.7469 404.11734 329.5125Q404.36734 329.34064 404.7892 329.21564Q405.2111 329.09064 405.7111 329.09064Q406.42984 329.09064 406.9767 329.3094Q407.5392 329.5125 407.80484 329.8719Q408.07047 330.23126 408.1642 330.825L407.13297 330.96564Q407.07047 330.4969 406.7267 330.23126Q406.3986 329.95 405.7736 329.95Q405.05484 329.95 404.74234 330.2Q404.42984 330.4344 404.42984 330.7625Q404.42984 330.96564 404.55484 331.1219Q404.69547 331.29376 404.9611 331.40314Q405.11734 331.46564 405.8986 331.66876Q407.0236 331.98126 407.4611 332.16876Q407.8986 332.35626 408.1486 332.71564Q408.3986 333.075 408.3986 333.6219Q408.3986 334.15314 408.0861 334.6219Q407.7892 335.075 407.2111 335.34064Q406.63297 335.59064 405.8986 335.59064Q404.67984 335.59064 404.0392 335.09064Q403.4142 334.575 403.24234 333.59064ZM411.9611 334.5125L412.11734 335.4344Q411.6642 335.52814 411.32047 335.52814Q410.74234 335.52814 410.42984 335.35626Q410.11734 335.16876 409.9767 334.8719Q409.8517 334.575 409.8517 333.6219L409.8517 330.04376L409.0861 330.04376L409.0861 329.23126L409.8517 329.23126L409.8517 327.6844L410.8986 327.0594L410.8986 329.23126L411.9611 329.23126L411.9611 330.04376L410.8986 330.04376L410.8986 333.6844Q410.8986 334.1375 410.94547 334.2625Q411.00797 334.3875 411.13297 334.46564Q411.25797 334.54376 411.49234 334.54376Q411.67984 334.54376 411.9611 334.5125Z" fill-rule="nonzero"/><path fill="#000000" d="M445.34406 335.45L445.34406 327.8719L442.51593 327.8719L442.51593 326.85626L449.32843 326.85626L449.32843 327.8719L446.48468 327.8719L446.48468 335.45L445.34406 335.45ZM451.17218 335.45L449.26593 329.23126L450.35968 329.23126L451.34406 332.825L451.71906 334.15314Q451.7503 334.0594 452.04718 332.8719L453.03156 329.23126L454.10968 329.23126L455.04718 332.84064L455.35968 334.02814L455.71906 332.825L456.78156 329.23126L457.8128 329.23126L455.85968 335.45L454.76593 335.45L453.78156 331.71564L453.53156 330.66876L452.28156 335.45L451.17218 335.45ZM459.03156 328.075L459.03156 326.85626L460.09406 326.85626L460.09406 328.075L459.03156 328.075ZM459.03156 335.45L459.03156 329.23126L460.09406 329.23126L460.09406 335.45L459.03156 335.45ZM464.32843 334.5125L464.48468 335.4344Q464.03156 335.52814 463.6878 335.52814Q463.10968 335.52814 462.79718 335.35626Q462.48468 335.16876 462.34406 334.8719Q462.21906 334.575 462.21906 333.6219L462.21906 330.04376L461.45343 330.04376L461.45343 329.23126L462.21906 329.23126L462.21906 327.6844L463.26593 327.0594L463.26593 329.23126L464.32843 329.23126L464.32843 330.04376L463.26593 330.04376L463.26593 333.6844Q463.26593 334.1375 463.3128 334.2625Q463.3753 334.3875 463.5003 334.46564Q463.6253 334.54376 463.85968 334.54376Q464.04718 334.54376 464.32843 334.5125ZM467.32843 334.5125L467.48468 335.4344Q467.03156 335.52814 466.6878 335.52814Q466.10968 335.52814 465.79718 335.35626Q465.48468 335.16876 465.34406 334.8719Q465.21906 334.575 465.21906 333.6219L465.21906 330.04376L464.45343 330.04376L464.45343 329.23126L465.21906 329.23126L465.21906 327.6844L466.26593 327.0594L466.26593 329.23126L467.32843 329.23126L467.32843 330.04376L466.26593 330.04376L466.26593 333.6844Q466.26593 334.1375 466.3128 334.2625Q466.3753 334.3875 466.5003 334.46564Q466.6253 334.54376 466.85968 334.54376Q467.04718 334.54376 467.32843 334.5125ZM472.28156 333.45L473.3753 333.575Q473.1253 334.52814 472.42218 335.0594Q471.71906 335.59064 470.64093 335.59064Q469.28156 335.59064 468.46906 334.7469Q467.67218 333.90314 467.67218 332.3875Q467.67218 330.825 468.48468 329.96564Q469.29718 329.09064 470.57843 329.09064Q471.82843 329.09064 472.60968 329.9344Q473.40656 330.77814 473.40656 332.325Q473.40656 332.41876 473.40656 332.60626L468.76593 332.60626Q468.82843 333.6375 469.34406 334.1844Q469.85968 334.71564 470.64093 334.71564Q471.21906 334.71564 471.6253 334.41876Q472.04718 334.10626 472.28156 333.45ZM468.82843 331.7469L472.29718 331.7469Q472.23468 330.95 471.90656 330.5594Q471.39093 329.95 470.59406 329.95Q469.85968 329.95 469.35968 330.4344Q468.8753 330.91876 468.82843 331.7469ZM475.01593 335.45L475.01593 329.23126L475.96906 329.23126L475.96906 330.16876Q476.32843 329.5125 476.6253 329.3094Q476.9378 329.09064 477.3128 329.09064Q477.84406 329.09064 478.39093 329.41876L478.03156 330.40314Q477.64093 330.16876 477.26593 330.16876Q476.90656 330.16876 476.6253 330.3875Q476.35968 330.59064 476.2503 330.96564Q476.0628 331.52814 476.0628 332.1844L476.0628 335.45L475.01593 335.45Z" fill-rule="nonzero"/><path fill="#000000" d="M517.5552 332.075L517.5552 331.075L521.1802 331.0594L521.1802 334.2469Q520.35205 334.91876 519.4614 335.2625Q518.5708 335.59064 517.6333 335.59064Q516.3677 335.59064 515.3208 335.0594Q514.28955 334.5125 513.7583 333.4969Q513.2427 332.46564 513.2427 331.2Q513.2427 329.9344 513.7583 328.85626Q514.28955 327.7625 515.2739 327.2469Q516.2583 326.71564 517.53955 326.71564Q518.47705 326.71564 519.22705 327.0125Q519.97705 327.3094 520.3989 327.85626Q520.8364 328.3875 521.0552 329.2625L520.03955 329.54376Q519.8364 328.8875 519.53955 328.5125Q519.2583 328.1375 518.72705 327.91876Q518.1958 327.6844 517.5552 327.6844Q516.7739 327.6844 516.1958 327.91876Q515.6333 328.15314 515.2739 328.54376Q514.9302 328.9344 514.7427 329.40314Q514.41455 330.2 514.41455 331.1219Q514.41455 332.27814 514.8052 333.0594Q515.2114 333.825 515.9614 334.2Q516.7114 334.575 517.5708 334.575Q518.3052 334.575 519.0083 334.29376Q519.7114 333.9969 520.0708 333.6844L520.0708 332.075L517.5552 332.075ZM522.0083 332.34064Q522.0083 330.60626 522.9614 329.77814Q523.7583 329.09064 524.91455 329.09064Q526.1958 329.09064 527.0083 329.9344Q527.8364 330.7625 527.8364 332.2469Q527.8364 333.45 527.47705 334.1375Q527.1177 334.825 526.41455 335.21564Q525.72705 335.59064 524.91455 335.59064Q523.6177 335.59064 522.8052 334.7625Q522.0083 333.91876 522.0083 332.34064ZM523.0864 332.34064Q523.0864 333.52814 523.60205 334.1219Q524.1333 334.71564 524.91455 334.71564Q525.7114 334.71564 526.22705 334.1219Q526.7427 333.52814 526.7427 332.3094Q526.7427 331.15314 526.2114 330.5594Q525.6958 329.96564 524.91455 329.96564Q524.1333 329.96564 523.60205 330.5594Q523.0864 331.1375 523.0864 332.34064ZM529.0083 332.34064Q529.0083 330.60626 529.9614 329.77814Q530.7583 329.09064 531.91455 329.09064Q533.1958 329.09064 534.0083 329.9344Q534.8364 330.7625 534.8364 332.2469Q534.8364 333.45 534.47705 334.1375Q534.1177 334.825 533.41455 335.21564Q532.72705 335.59064 531.91455 335.59064Q530.6177 335.59064 529.8052 334.7625Q529.0083 333.91876 529.0083 332.34064ZM530.0864 332.34064Q530.0864 333.52814 530.60205 334.1219Q531.1333 334.71564 531.91455 334.71564Q532.7114 334.71564 533.22705 334.1219Q533.7427 333.52814 533.7427 332.3094Q533.7427 331.15314 533.2114 330.5594Q532.6958 329.96564 531.91455 329.96564Q531.1333 329.96564 530.60205 330.5594Q530.0864 331.1375 530.0864 332.34064ZM536.1958 335.96564L537.22705 336.1219Q537.28955 336.59064 537.5864 336.8094Q537.97705 337.10626 538.6489 337.10626Q539.3833 337.10626 539.7739 336.8094Q540.1802 336.5125 540.3208 335.9969Q540.41455 335.66876 540.3989 334.6375Q539.7114 335.45 538.6802 335.45Q537.3989 335.45 536.6958 334.52814Q535.9927 333.59064 535.9927 332.3094Q535.9927 331.41876 536.3052 330.66876Q536.6333 329.90314 537.2427 329.4969Q537.85205 329.09064 538.6802 329.09064Q539.78955 329.09064 540.5083 329.98126L540.5083 329.23126L541.47705 329.23126L541.47705 334.60626Q541.47705 336.0594 541.1802 336.66876Q540.8833 337.27814 540.2427 337.6219Q539.60205 337.98126 538.66455 337.98126Q537.5552 337.98126 536.8677 337.48126Q536.1802 336.98126 536.1958 335.96564ZM537.0708 332.23126Q537.0708 333.45 537.5552 334.0125Q538.03955 334.575 538.7739 334.575Q539.5083 334.575 539.9927 334.0125Q540.4927 333.45 540.4927 332.2625Q540.4927 331.1219 539.97705 330.54376Q539.47705 329.96564 538.7583 329.96564Q538.0552 329.96564 537.5552 330.54376Q537.0708 331.10626 537.0708 332.23126ZM543.3677 335.45L543.3677 326.85626L544.4302 326.85626L544.4302 335.45L543.3677 335.45ZM550.6489 333.45L551.7427 333.575Q551.4927 334.52814 550.78955 335.0594Q550.0864 335.59064 549.0083 335.59064Q547.6489 335.59064 546.8364 334.7469Q546.03955 333.90314 546.03955 332.3875Q546.03955 330.825 546.85205 329.96564Q547.66455 329.09064 548.9458 329.09064Q550.1958 329.09064 550.97705 329.9344Q551.7739 330.77814 551.7739 332.325Q551.7739 332.41876 551.7739 332.60626L547.1333 332.60626Q547.1958 333.6375 547.7114 334.1844Q548.22705 334.71564 549.0083 334.71564Q549.5864 334.71564 549.9927 334.41876Q550.41455 334.10626 550.6489 333.45ZM547.1958 331.7469L550.66455 331.7469Q550.60205 330.95 550.2739 330.5594Q549.7583 329.95 548.9614 329.95Q548.22705 329.95 547.72705 330.4344Q547.2427 330.91876 547.1958 331.7469Z" fill-rule="nonzero"/><path fill="#000000" d="M513.6489 346.6844L514.7114 346.59064Q514.78955 347.2469 515.0708 347.65314Q515.35205 348.0594 515.9302 348.325Q516.5239 348.575 517.2583 348.575Q517.8989 348.575 518.3989 348.3875Q518.8989 348.1844 519.1333 347.85626Q519.3833 347.5125 519.3833 347.1219Q519.3833 346.71564 519.1489 346.41876Q518.91455 346.10626 518.3833 345.90314Q518.0239 345.7625 516.8364 345.48126Q515.66455 345.2 515.1958 344.95Q514.5708 344.6219 514.2739 344.15314Q513.97705 343.66876 513.97705 343.075Q513.97705 342.4344 514.3364 341.8719Q514.7114 341.29376 515.41455 341.0125Q516.1333 340.71564 516.9927 340.71564Q517.9458 340.71564 518.6802 341.02814Q519.41455 341.325 519.8052 341.9344Q520.1958 342.52814 520.22705 343.27814L519.1333 343.35626Q519.03955 342.54376 518.5239 342.1375Q518.0239 341.71564 517.03955 341.71564Q516.0083 341.71564 515.53955 342.09064Q515.0708 342.46564 515.0708 342.9969Q515.0708 343.46564 515.3989 343.7625Q515.72705 344.0594 517.10205 344.3719Q518.4927 344.6844 519.0083 344.91876Q519.7583 345.27814 520.1177 345.8094Q520.47705 346.325 520.47705 347.02814Q520.47705 347.71564 520.0864 348.325Q519.6958 348.91876 518.9614 349.2625Q518.22705 349.59064 517.3052 349.59064Q516.1333 349.59064 515.3364 349.2625Q514.5552 348.91876 514.10205 348.23126Q513.66455 347.54376 513.6489 346.6844ZM526.1489 347.45L527.2427 347.575Q526.9927 348.52814 526.28955 349.0594Q525.5864 349.59064 524.5083 349.59064Q523.1489 349.59064 522.3364 348.7469Q521.53955 347.90314 521.53955 346.3875Q521.53955 344.825 522.35205 343.96564Q523.16455 343.09064 524.4458 343.09064Q525.6958 343.09064 526.47705 343.9344Q527.2739 344.77814 527.2739 346.325Q527.2739 346.41876 527.2739 346.60626L522.6333 346.60626Q522.6958 347.6375 523.2114 348.1844Q523.72705 348.71564 524.5083 348.71564Q525.0864 348.71564 525.4927 348.41876Q525.91455 348.10626 526.1489 347.45ZM522.6958 345.7469L526.16455 345.7469Q526.10205 344.95 525.7739 344.5594Q525.2583 343.95 524.4614 343.95Q523.72705 343.95 523.22705 344.4344Q522.7427 344.91876 522.6958 345.7469ZM532.9614 348.6844Q532.3677 349.1844 531.8208 349.3875Q531.28955 349.59064 530.66455 349.59064Q529.6333 349.59064 529.0864 349.09064Q528.53955 348.59064 528.53955 347.8094Q528.53955 347.35626 528.7427 346.98126Q528.9458 346.59064 529.28955 346.3719Q529.6333 346.1375 530.0552 346.02814Q530.35205 345.9344 530.9927 345.85626Q532.2583 345.71564 532.8677 345.4969Q532.8677 345.27814 532.8677 345.23126Q532.8677 344.575 532.5708 344.3094Q532.16455 343.96564 531.3677 343.96564Q530.6333 343.96564 530.2739 344.23126Q529.91455 344.48126 529.7427 345.1375L528.7114 344.9969Q528.85205 344.34064 529.1802 343.9344Q529.5083 343.52814 530.1177 343.3094Q530.72705 343.09064 531.5239 343.09064Q532.3208 343.09064 532.8208 343.27814Q533.3208 343.46564 533.5552 343.7469Q533.78955 344.02814 533.8833 344.46564Q533.9302 344.73126 533.9302 345.4344L533.9302 346.84064Q533.9302 348.3094 533.9927 348.7Q534.0708 349.09064 534.2739 349.45L533.16455 349.45Q533.0083 349.1219 532.9614 348.6844ZM532.8677 346.325Q532.28955 346.5594 531.1489 346.73126Q530.4927 346.825 530.22705 346.95Q529.9614 347.0594 529.8052 347.27814Q529.66455 347.4969 529.66455 347.77814Q529.66455 348.2 529.97705 348.48126Q530.3052 348.7625 530.91455 348.7625Q531.5239 348.7625 531.9927 348.4969Q532.47705 348.23126 532.6958 347.7625Q532.8677 347.40314 532.8677 346.71564L532.8677 346.325ZM535.8833 349.45L535.8833 343.23126L536.8364 343.23126L536.8364 344.16876Q537.1958 343.5125 537.4927 343.3094Q537.8052 343.09064 538.1802 343.09064Q538.7114 343.09064 539.2583 343.41876L538.8989 344.40314Q538.5083 344.16876 538.1333 344.16876Q537.7739 344.16876 537.4927 344.3875Q537.22705 344.59064 537.1177 344.96564Q536.9302 345.52814 536.9302 346.1844L536.9302 349.45L535.8833 349.45ZM543.9614 347.16876L544.9927 347.3094Q544.8208 348.3719 544.1177 348.98126Q543.41455 349.59064 542.3989 349.59064Q541.1177 349.59064 540.3364 348.7625Q539.5708 347.91876 539.5708 346.35626Q539.5708 345.35626 539.8989 344.60626Q540.2427 343.84064 540.91455 343.46564Q541.60205 343.09064 542.41455 343.09064Q543.41455 343.09064 544.0552 343.60626Q544.7114 344.10626 544.8989 345.0594L543.8677 345.21564Q543.72705 344.59064 543.35205 344.27814Q542.97705 343.95 542.4458 343.95Q541.6489 343.95 541.1489 344.52814Q540.6489 345.09064 540.6489 346.325Q540.6489 347.59064 541.1333 348.15314Q541.6177 348.71564 542.3833 348.71564Q543.0083 348.71564 543.41455 348.34064Q543.8364 347.96564 543.9614 347.16876ZM545.8989 349.45L545.8989 340.85626L546.9458 340.85626L546.9458 343.9344Q547.6802 343.09064 548.8052 343.09064Q549.5083 343.09064 550.0083 343.3719Q550.5239 343.6375 550.7427 344.1219Q550.9614 344.59064 550.9614 345.5125L550.9614 349.45L549.91455 349.45L549.91455 345.5125Q549.91455 344.71564 549.5708 344.35626Q549.22705 343.9969 548.60205 343.9969Q548.1333 343.9969 547.7114 344.2469Q547.3052 344.48126 547.1177 344.90314Q546.9458 345.3094 546.9458 346.04376L546.9458 349.45L545.8989 349.45Z" fill-rule="nonzero"/><path fill="#4285f4" d="M242.5 59.416668C242.5 58.864384 242.94771 58.416668 243.5 58.416668L253.5 58.416668C254.05229 58.416668 254.5 58.864384 254.5 59.416668L254.5 69.416664C254.5 69.96895 254.05229 70.416664 253.5 70.416664L243.5 70.416664C242.94771 70.416664 242.5 69.96895 242.5 69.416664Z" fill-rule="nonzero"/><path fill="#1a1a1a" d="M271.90625 65.90104L273.42188 66.27604Q272.95312 68.15104 271.70312 69.135414Q270.46875 70.11979 268.6875 70.11979Q266.82812 70.11979 265.67188 69.36979Q264.51562 68.604164 263.90625 67.18229Q263.29688 65.74479 263.29688 64.104164Q263.29688 62.30729 263.98438 60.979164Q264.67188 59.65104 265.92188 58.96354Q267.1875 58.260414 268.70312 58.260414Q270.42188 58.260414 271.59375 59.135414Q272.76562 60.010414 273.23438 61.604164L271.73438 61.947914Q271.34375 60.697914 270.57812 60.135414Q269.82812 59.55729 268.67188 59.55729Q267.35938 59.55729 266.46875 60.197914Q265.57812 60.822914 265.21875 61.90104Q264.85938 62.96354 264.85938 64.08854Q264.85938 65.55729 265.28125 66.65104Q265.71875 67.729164 266.60938 68.27604Q267.51562 68.80729 268.5625 68.80729Q269.82812 68.80729 270.70312 68.072914Q271.59375 67.33854 271.90625 65.90104ZM275.73438 69.916664L275.73438 58.46354L280.0625 58.46354Q281.20312 58.46354 281.79688 58.572914Q282.64062 58.71354 283.20312 59.104164Q283.78125 59.49479 284.125 60.21354Q284.48438 60.916664 284.48438 61.77604Q284.48438 63.229164 283.54688 64.24479Q282.625 65.260414 280.1875 65.260414L277.25 65.260414L277.25 69.916664L275.73438 69.916664ZM277.25 63.90104L280.21875 63.90104Q281.6875 63.90104 282.29688 63.354164Q282.92188 62.80729 282.92188 61.822914Q282.92188 61.104164 282.54688 60.58854Q282.1875 60.072914 281.59375 59.916664Q281.21875 59.80729 280.1875 59.80729L277.25 59.80729L277.25 63.90104ZM294.25 58.46354L295.76562 58.46354L295.76562 65.072914Q295.76562 66.80729 295.375 67.822914Q294.98438 68.83854 293.96875 69.479164Q292.95312 70.11979 291.29688 70.11979Q289.6875 70.11979 288.65625 69.55729Q287.64062 68.99479 287.20312 67.947914Q286.76562 66.90104 286.76562 65.072914L286.76562 58.46354L288.28125 58.46354L288.28125 65.072914Q288.28125 66.55729 288.54688 67.27604Q288.82812 67.979164 289.5 68.36979Q290.1875 68.74479 291.15625 68.74479Q292.82812 68.74479 293.53125 67.99479Q294.25 67.229164 294.25 65.072914L294.25 58.46354Z" fill-rule="nonzero"/><path fill="#ea4335" d="M313.5 59.416668C313.5 58.864384 313.94772 58.416668 314.5 58.416668L324.5 58.416668C325.05228 58.416668 325.5 58.864384 325.5 59.416668L325.5 69.416664C325.5 69.96895 325.05228 70.416664 324.5 70.416664L314.5 70.416664C313.94772 70.416664 313.5 69.96895 313.5 69.416664Z" fill-rule="nonzero"/><path fill="#1a1a1a" d="M340.09375 65.416664L340.09375 64.072914L344.95312 64.072914L344.95312 68.322914Q343.82812 69.21354 342.64062 69.666664Q341.45312 70.11979 340.20312 70.11979Q338.51562 70.11979 337.14062 69.40104Q335.76562 68.666664 335.0625 67.30729Q334.35938 65.93229 334.35938 64.24479Q334.35938 62.572914 335.04688 61.11979Q335.75 59.666664 337.0625 58.96354Q338.375 58.260414 340.09375 58.260414Q341.32812 58.260414 342.32812 58.666664Q343.34375 59.072914 343.90625 59.791664Q344.48438 60.510414 344.78125 61.666664L343.40625 62.041664Q343.15625 61.166664 342.76562 60.666664Q342.39062 60.166664 341.67188 59.86979Q340.96875 59.55729 340.09375 59.55729Q339.0625 59.55729 338.29688 59.885414Q337.54688 60.197914 337.07812 60.71354Q336.60938 61.229164 336.35938 61.83854Q335.92188 62.90104 335.92188 64.15104Q335.92188 65.68229 336.4375 66.71354Q336.96875 67.74479 337.96875 68.24479Q338.98438 68.74479 340.125 68.74479Q341.10938 68.74479 342.04688 68.36979Q342.98438 67.979164 343.46875 67.55729L343.46875 65.416664L340.09375 65.416664ZM354.90625 65.90104L356.42188 66.27604Q355.95312 68.15104 354.70312 69.135414Q353.46875 70.11979 351.6875 70.11979Q349.82812 70.11979 348.67188 69.36979Q347.51562 68.604164 346.90625 67.18229Q346.29688 65.74479 346.29688 64.104164Q346.29688 62.30729 346.98438 60.979164Q347.67188 59.65104 348.92188 58.96354Q350.1875 58.260414 351.70312 58.260414Q353.42188 58.260414 354.59375 59.135414Q355.76562 60.010414 356.23438 61.604164L354.73438 61.947914Q354.34375 60.697914 353.57812 60.135414Q352.82812 59.55729 351.67188 59.55729Q350.35938 59.55729 349.46875 60.197914Q348.57812 60.822914 348.21875 61.90104Q347.85938 62.96354 347.85938 64.08854Q347.85938 65.55729 348.28125 66.65104Q348.71875 67.729164 349.60938 68.27604Q350.51562 68.80729 351.5625 68.80729Q352.82812 68.80729 353.70312 68.072914Q354.59375 67.33854 354.90625 65.90104Z" fill-rule="nonzero"/><path fill="#757575" d="M20.096874 37.55L20.096874 23.2375L25.4875 23.2375Q26.925 23.2375 27.675 23.3625Q28.721874 23.55 29.440624 24.05Q30.159374 24.534374 30.58125 25.425Q31.01875 26.315624 31.01875 27.378124Q31.01875 29.20625 29.846874 30.471874Q28.690624 31.721874 25.659374 31.721874L21.9875 31.721874L21.9875 37.55L20.096874 37.55ZM21.9875 30.034374L25.690624 30.034374Q27.51875 30.034374 28.284374 29.3625Q29.065624 28.675 29.065624 27.425Q29.065624 26.534374 28.6125 25.89375Q28.159374 25.253124 27.425 25.05Q26.940624 24.925 25.64375 24.925L21.9875 24.925L21.9875 30.034374ZM39.971874 34.20625L41.784374 34.440624Q41.3625 36.01875 40.190624 36.909374Q39.034374 37.784374 37.221874 37.784374Q34.95625 37.784374 33.6125 36.39375Q32.284374 34.9875 32.284374 32.45625Q32.284374 29.83125 33.628124 28.39375Q34.971874 26.940624 37.128124 26.940624Q39.20625 26.940624 40.51875 28.3625Q41.846874 29.76875 41.846874 32.346874Q41.846874 32.503124 41.83125 32.815624L34.096874 32.815624Q34.190624 34.51875 35.065624 35.425Q35.940624 36.33125 37.2375 36.33125Q38.20625 36.33125 38.878124 35.83125Q39.565624 35.315624 39.971874 34.20625ZM34.190624 31.3625L39.9875 31.3625Q39.878124 30.065624 39.33125 29.409374Q38.4875 28.39375 37.14375 28.39375Q35.940624 28.39375 35.1125 29.20625Q34.284374 30.003124 34.190624 31.3625ZM43.846874 37.55L43.846874 27.175L45.425 27.175L45.425 28.753124Q46.034374 27.64375 46.55 27.3Q47.065624 26.940624 47.675 26.940624Q48.565624 26.940624 49.4875 27.503124L48.878124 29.14375Q48.2375 28.753124 47.596874 28.753124Q47.01875 28.753124 46.55 29.1125Q46.096874 29.45625 45.89375 30.065624Q45.6125 31.003124 45.6125 32.1125L45.6125 37.55L43.846874 37.55ZM51.284374 37.55L51.284374 28.55L49.7375 28.55L49.7375 27.175L51.284374 27.175L51.284374 26.08125Q51.284374 25.034374 51.471874 24.51875Q51.721874 23.83125 52.3625 23.409374Q53.003124 22.9875 54.159374 22.9875Q54.909374 22.9875 55.8 23.159374L55.534374 24.690624Q54.9875 24.596874 54.503124 24.596874Q53.70625 24.596874 53.3625 24.940624Q53.034374 25.284374 53.034374 26.221874L53.034374 27.175L55.065624 27.175L55.065624 28.55L53.034374 28.55L53.034374 37.55L51.284374 37.55ZM56.221874 32.3625Q56.221874 29.4875 57.815624 28.096874Q59.159374 26.940624 61.08125 26.940624Q63.221874 26.940624 64.56563 28.346874Q65.925 29.753124 65.925 32.221874Q65.925 34.221874 65.33125 35.378124Q64.7375 36.51875 63.58125 37.159374Q62.440624 37.784374 61.08125 37.784374Q58.89375 37.784374 57.55 36.39375Q56.221874 34.9875 56.221874 32.3625ZM58.01875 32.3625Q58.01875 34.3625 58.878124 35.346874Q59.753124 36.33125 61.08125 36.33125Q62.39375 36.33125 63.253124 35.346874Q64.12813 34.346874 64.12813 32.3Q64.12813 30.378124 63.253124 29.39375Q62.378124 28.39375 61.08125 28.39375Q59.753124 28.39375 58.878124 29.39375Q58.01875 30.378124 58.01875 32.3625ZM67.84688 37.55L67.84688 27.175L69.425 27.175L69.425 28.753124Q70.03438 27.64375 70.55 27.3Q71.06563 26.940624 71.675 26.940624Q72.56563 26.940624 73.4875 27.503124L72.87813 29.14375Q72.2375 28.753124 71.59688 28.753124Q71.01875 28.753124 70.55 29.1125Q70.09688 29.45625 69.89375 30.065624Q69.6125 31.003124 69.6125 32.1125L69.6125 37.55L67.84688 37.55ZM74.8625 37.55L74.8625 27.175L76.44063 27.175L76.44063 28.628124Q76.925 27.878124 77.7375 27.409374Q78.55 26.940624 79.58125 26.940624Q80.7375 26.940624 81.47188 27.425Q82.20625 27.89375 82.51875 28.753124Q83.75313 26.940624 85.72188 26.940624Q87.26875 26.940624 88.09688 27.8Q88.925 28.659374 88.925 30.425L88.925 37.55L87.175 37.55L87.175 31.01875Q87.175 29.95625 87.00313 29.503124Q86.83125 29.034374 86.37813 28.753124Q85.94063 28.471874 85.33125 28.471874Q84.2375 28.471874 83.50313 29.20625Q82.78438 29.925 82.78438 31.51875L82.78438 37.55L81.03438 37.55L81.03438 30.815624Q81.03438 29.64375 80.59688 29.065624Q80.175 28.471874 79.19063 28.471874Q78.45625 28.471874 77.81563 28.8625Q77.19063 29.253124 76.90938 30.003124Q76.62813 30.753124 76.62813 32.175L76.62813 37.55L74.8625 37.55ZM98.64375 36.26875Q97.65938 37.096874 96.75313 37.440624Q95.84688 37.784374 94.81563 37.784374Q93.1125 37.784374 92.19063 36.95625Q91.26875 36.1125 91.26875 34.815624Q91.26875 34.05 91.6125 33.425Q91.97188 32.8 92.53438 32.425Q93.09688 32.034374 93.8 31.83125Q94.31563 31.70625 95.3625 31.565624Q97.4875 31.315624 98.4875 30.971874Q98.50313 30.6125 98.50313 30.503124Q98.50313 29.440624 98.00313 28.9875Q97.33125 28.39375 96.00313 28.39375Q94.75313 28.39375 94.15938 28.83125Q93.58125 29.26875 93.3 30.378124L91.58125 30.14375Q91.81563 29.034374 92.34688 28.3625Q92.87813 27.675 93.89375 27.315624Q94.90938 26.940624 96.25313 26.940624Q97.58125 26.940624 98.40938 27.253124Q99.2375 27.565624 99.62813 28.05Q100.01875 28.51875 100.175 29.2375Q100.26875 29.690624 100.26875 30.8625L100.26875 33.20625Q100.26875 35.659374 100.37813 36.315624Q100.4875 36.95625 100.83125 37.55L98.9875 37.55Q98.72188 37.003124 98.64375 36.26875ZM98.4875 32.346874Q97.53438 32.7375 95.6125 33.003124Q94.53438 33.159374 94.08125 33.3625Q93.64375 33.55 93.39375 33.925Q93.14375 34.3 93.14375 34.76875Q93.14375 35.471874 93.675 35.940624Q94.20625 36.409374 95.2375 36.409374Q96.25313 36.409374 97.03438 35.971874Q97.83125 35.51875 98.20625 34.753124Q98.4875 34.14375 98.4875 32.9875L98.4875 32.346874ZM102.8625 37.55L102.8625 27.175L104.45625 27.175L104.45625 28.659374Q105.59688 26.940624 107.75313 26.940624Q108.69063 26.940624 109.47188 27.284374Q110.26875 27.6125 110.65938 28.159374Q111.05 28.70625 111.20625 29.45625Q111.3 29.95625 111.3 31.175L111.3 37.55L109.53438 37.55L109.53438 31.2375Q109.53438 30.159374 109.33125 29.628124Q109.12813 29.096874 108.59688 28.784374Q108.08125 28.471874 107.37813 28.471874Q106.25313 28.471874 105.44063 29.190624Q104.62813 29.89375 104.62813 31.878124L104.62813 37.55L102.8625 37.55ZM120.64375 33.753124L122.3625 33.971874Q122.08125 35.76875 120.90938 36.784374Q119.75313 37.784374 118.05 37.784374Q115.925 37.784374 114.62813 36.39375Q113.33125 35.003124 113.33125 32.409374Q113.33125 30.721874 113.87813 29.471874Q114.44063 28.20625 115.58125 27.58125Q116.72188 26.940624 118.06563 26.940624Q119.75313 26.940624 120.81563 27.8Q121.89375 28.659374 122.20625 30.221874L120.4875 30.4875Q120.25313 29.440624 119.62813 28.925Q119.00313 28.39375 118.12813 28.39375Q116.8 28.39375 115.97188 29.346874Q115.14375 30.3 115.14375 32.346874Q115.14375 34.440624 115.94063 35.39375Q116.7375 36.33125 118.03438 36.33125Q119.06563 36.33125 119.75313 35.70625Q120.45625 35.065624 120.64375 33.753124ZM130.97188 34.20625L132.78438 34.440624Q132.3625 36.01875 131.19063 36.909374Q130.03438 37.784374 128.22188 37.784374Q125.95625 37.784374 124.6125 36.39375Q123.28438 34.9875 123.28438 32.45625Q123.28438 29.83125 124.62813 28.39375Q125.97188 26.940624 128.12813 26.940624Q130.20625 26.940624 131.51875 28.3625Q132.84688 29.76875 132.84688 32.346874Q132.84688 32.503124 132.83125 32.815624L125.09688 32.815624Q125.19063 34.51875 126.06563 35.425Q126.94063 36.33125 128.2375 36.33125Q129.20625 36.33125 129.87813 35.83125Q130.56563 35.315624 130.97188 34.20625ZM125.19063 31.3625L130.9875 31.3625Q130.87813 30.065624 130.33125 29.409374Q129.4875 28.39375 128.14375 28.39375Q126.94063 28.39375 126.1125 29.20625Q125.28438 30.003124 125.19063 31.3625ZM140.87813 25.253124L140.87813 23.2375L142.64375 23.2375L142.64375 25.253124L140.87813 25.253124ZM140.87813 37.55L140.87813 27.175L142.64375 27.175L142.64375 37.55L140.87813 37.55ZM144.8625 37.55L144.8625 27.175L146.44063 27.175L146.44063 28.628124Q146.925 27.878124 147.7375 27.409374Q148.55 26.940624 149.58125 26.940624Q150.7375 26.940624 151.47188 27.425Q152.20625 27.89375 152.51875 28.753124Q153.75313 26.940624 155.72188 26.940624Q157.26875 26.940624 158.09688 27.8Q158.925 28.659374 158.925 30.425L158.925 37.55L157.175 37.55L157.175 31.01875Q157.175 29.95625 157.00313 29.503124Q156.83125 29.034374 156.37813 28.753124Q155.94063 28.471874 155.33125 28.471874Q154.2375 28.471874 153.50313 29.20625Q152.78438 29.925 152.78438 31.51875L152.78438 37.55L151.03438 37.55L151.03438 30.815624Q151.03438 29.64375 150.59688 29.065624Q150.175 28.471874 149.19063 28.471874Q148.45625 28.471874 147.81563 28.8625Q147.19063 29.253124 146.90938 30.003124Q146.62813 30.753124 146.62813 32.175L146.62813 37.55L144.8625 37.55ZM161.8625 41.51875L161.8625 27.175L163.47188 27.175L163.47188 28.51875Q164.03438 27.7375 164.7375 27.346874Q165.45625 26.940624 166.47188 26.940624Q167.8 26.940624 168.81563 27.628124Q169.83125 28.315624 170.34688 29.565624Q170.87813 30.8 170.87813 32.284374Q170.87813 33.878124 170.3 35.159374Q169.7375 36.425 168.64375 37.1125Q167.55 37.784374 166.34688 37.784374Q165.47188 37.784374 164.76875 37.409374Q164.08125 37.034374 163.62813 36.471874L163.62813 41.51875L161.8625 41.51875ZM163.45625 32.425Q163.45625 34.425 164.26875 35.378124Q165.08125 36.33125 166.2375 36.33125Q167.40938 36.33125 168.2375 35.346874Q169.08125 34.3625 169.08125 32.26875Q169.08125 30.3 168.25313 29.315624Q167.44063 28.315624 166.31563 28.315624Q165.19063 28.315624 164.31563 29.378124Q163.45625 30.425 163.45625 32.425ZM172.84688 37.55L172.84688 27.175L174.425 27.175L174.425 28.753124Q175.03438 27.64375 175.55 27.3Q176.06563 26.940624 176.675 26.940624Q177.56563 26.940624 178.4875 27.503124L177.87813 29.14375Q177.2375 28.753124 176.59688 28.753124Q176.01875 28.753124 175.55 29.1125Q175.09688 29.45625 174.89375 30.065624Q174.6125 31.003124 174.6125 32.1125L174.6125 37.55L172.84688 37.55ZM179.22188 32.3625Q179.22188 29.4875 180.81563 28.096874Q182.15938 26.940624 184.08125 26.940624Q186.22188 26.940624 187.56563 28.346874Q188.925 29.753124 188.925 32.221874Q188.925 34.221874 188.33125 35.378124Q187.7375 36.51875 186.58125 37.159374Q185.44063 37.784374 184.08125 37.784374Q181.89375 37.784374 180.55 36.39375Q179.22188 34.9875 179.22188 32.3625ZM181.01875 32.3625Q181.01875 34.3625 181.87813 35.346874Q182.75313 36.33125 184.08125 36.33125Q185.39375 36.33125 186.25313 35.346874Q187.12813 34.346874 187.12813 32.3Q187.12813 30.378124 186.25313 29.39375Q185.37813 28.39375 184.08125 28.39375Q182.75313 28.39375 181.87813 29.39375Q181.01875 30.378124 181.01875 32.3625ZM193.75313 37.55L189.8 27.175L191.65938 27.175L193.89375 33.39375Q194.25313 34.39375 194.55 35.471874Q194.78438 34.659374 195.20625 33.503124L197.50313 27.175L199.31563 27.175L195.39375 37.55L193.75313 37.55ZM207.97188 34.20625L209.78438 34.440624Q209.3625 36.01875 208.19063 36.909374Q207.03438 37.784374 205.22188 37.784374Q202.95625 37.784374 201.6125 36.39375Q200.28438 34.9875 200.28438 32.45625Q200.28438 29.83125 201.62813 28.39375Q202.97188 26.940624 205.12813 26.940624Q207.20625 26.940624 208.51875 28.3625Q209.84688 29.76875 209.84688 32.346874Q209.84688 32.503124 209.83125 32.815624L202.09688 32.815624Q202.19063 34.51875 203.06563 35.425Q203.94063 36.33125 205.2375 36.33125Q206.20625 36.33125 206.87813 35.83125Q207.56563 35.315624 207.97188 34.20625ZM202.19063 31.3625L207.9875 31.3625Q207.87813 30.065624 207.33125 29.409374Q206.4875 28.39375 205.14375 28.39375Q203.94063 28.39375 203.1125 29.20625Q202.28438 30.003124 202.19063 31.3625ZM211.8625 37.55L211.8625 27.175L213.44063 27.175L213.44063 28.628124Q213.925 27.878124 214.7375 27.409374Q215.55 26.940624 216.58125 26.940624Q217.7375 26.940624 218.47188 27.425Q219.20625 27.89375 219.51875 28.753124Q220.75313 26.940624 222.72188 26.940624Q224.26875 26.940624 225.09688 27.8Q225.925 28.659374 225.925 30.425L225.925 37.55L224.175 37.55L224.175 31.01875Q224.175 29.95625 224.00313 29.503124Q223.83125 29.034374 223.37813 28.753124Q222.94063 28.471874 222.33125 28.471874Q221.2375 28.471874 220.50313 29.20625Q219.78438 29.925 219.78438 31.51875L219.78438 37.55L218.03438 37.55L218.03438 30.815624Q218.03438 29.64375 217.59688 29.065624Q217.175 28.471874 216.19063 28.471874Q215.45625 28.471874 214.81563 28.8625Q214.19063 29.253124 213.90938 30.003124Q213.62813 30.753124 213.62813 32.175L213.62813 37.55L211.8625 37.55ZM235.97188 34.20625L237.78438 34.440624Q237.3625 36.01875 236.19063 36.909374Q235.03438 37.784374 233.22188 37.784374Q230.95625 37.784374 229.6125 36.39375Q228.28438 34.9875 228.28438 32.45625Q228.28438 29.83125 229.62813 28.39375Q230.97188 26.940624 233.12813 26.940624Q235.20625 26.940624 236.51875 28.3625Q237.84688 29.76875 237.84688 32.346874Q237.84688 32.503124 237.83125 32.815624L230.09688 32.815624Q230.19063 34.51875 231.06563 35.425Q231.94063 36.33125 233.2375 36.33125Q234.20625 36.33125 234.87813 35.83125Q235.56563 35.315624 235.97188 34.20625ZM230.19063 31.3625L235.9875 31.3625Q235.87813 30.065624 235.33125 29.409374Q234.4875 28.39375 233.14375 28.39375Q231.94063 28.39375 231.1125 29.20625Q230.28438 30.003124 230.19063 31.3625ZM239.8625 37.55L239.8625 27.175L241.45625 27.175L241.45625 28.659374Q242.59688 26.940624 244.75313 26.940624Q245.69063 26.940624 246.47188 27.284374Q247.26875 27.6125 247.65938 28.159374Q248.05 28.70625 248.20625 29.45625Q248.3 29.95625 248.3 31.175L248.3 37.55L246.53438 37.55L246.53438 31.2375Q246.53438 30.159374 246.33125 29.628124Q246.12813 29.096874 245.59688 28.784374Q245.08125 28.471874 244.37813 28.471874Q243.25313 28.471874 242.44063 29.190624Q241.62813 29.89375 241.62813 31.878124L241.62813 37.55L239.8625 37.55ZM254.70625 35.971874L254.95625 37.534374Q254.22188 37.690624 253.62813 37.690624Q252.675 37.690624 252.14375 37.39375Q251.62813 37.08125 251.40938 36.596874Q251.19063 36.096874 251.19063 34.51875L251.19063 28.55L249.90938 28.55L249.90938 27.175L251.19063 27.175L251.19063 24.6125L252.94063 23.55L252.94063 27.175L254.70625 27.175L254.70625 28.55L252.94063 28.55L252.94063 34.6125Q252.94063 35.3625 253.03438 35.58125Q253.12813 35.784374 253.33125 35.925Q253.55 36.05 253.94063 36.05Q254.22188 36.05 254.70625 35.971874ZM256.15936 34.45625L257.90936 34.175Q258.05 35.221874 258.72186 35.784374Q259.39374 36.33125 260.59686 36.33125Q261.8 36.33125 262.3781 35.846874Q262.97186 35.346874 262.97186 34.690624Q262.97186 34.096874 262.45624 33.753124Q262.09686 33.51875 260.65936 33.159374Q258.72186 32.659374 257.97186 32.315624Q257.2375 31.95625 256.84686 31.33125Q256.45624 30.690624 256.45624 29.925Q256.45624 29.2375 256.76874 28.64375Q257.09686 28.05 257.64374 27.659374Q258.05 27.3625 258.7531 27.159374Q259.47186 26.940624 260.28436 26.940624Q261.5031 26.940624 262.425 27.3Q263.34686 27.64375 263.78436 28.253124Q264.22186 28.846874 264.39374 29.846874L262.675 30.08125Q262.55 29.284374 261.9875 28.846874Q261.425 28.39375 260.40936 28.39375Q259.1906 28.39375 258.675 28.8Q258.15936 29.190624 258.15936 29.721874Q258.15936 30.065624 258.3781 30.346874Q258.58124 30.628124 259.05 30.815624Q259.3156 30.909374 260.59686 31.253124Q262.47186 31.753124 263.20624 32.08125Q263.9406 32.39375 264.3625 33.003124Q264.78436 33.596874 264.78436 34.503124Q264.78436 35.378124 264.26874 36.159374Q263.7531 36.940624 262.78436 37.3625Q261.8156 37.784374 260.59686 37.784374Q258.58124 37.784374 257.51874 36.940624Q256.45624 36.096874 256.15936 34.45625Z" fill-rule="nonzero"/></svg>