<svg version="1.1" viewBox="0.0 0.0 600.0 371.0" fill="none" stroke="none" stroke-linecap="square" stroke-miterlimit="10" width="600" height="371" xmlns:xlink="http://www.w3.org/1999/xlink" xmlns="http://www.w3.org/2000/svg"><path fill="#ffffff" d="M0 0L600.0 0L600.0 371.0L0 371.0L0 0Z" fill-rule="nonzero"/><path stroke="#333333" stroke-width="1.0" stroke-linecap="butt" d="M96.5 332.5L581.5 332.5" fill-rule="nonzero"/><path stroke="#cccccc" stroke-width="1.0" stroke-linecap="butt" d="M96.5 285.5L581.5 285.5" fill-rule="nonzero"/><path stroke="#cccccc" stroke-width="1.0" stroke-linecap="butt" d="M96.5 237.5L581.5 237.5" fill-rule="nonzero"/><path stroke="#cccccc" stroke-width="1.0" stroke-linecap="butt" d="M96.5 190.5L581.5 190.5" fill-rule="nonzero"/><path stroke="#cccccc" stroke-width="1.0" stroke-linecap="butt" d="M96.5 143.5L581.5 143.5" fill-rule="nonzero"/><path stroke="#cccccc" stroke-width="1.0" stroke-linecap="butt" d="M96.5 95.5L581.5 95.5" fill-rule="nonzero"/><clipPath id="id_0"><path d="M96.55 95.78333L581.45 95.78333L581.45 332.45L96.55 332.45L96.55 95.78333Z" clip-rule="nonzero"/></clipPath><path stroke="#000000" stroke-width="0.0" stroke-linecap="butt" stroke-opacity="0.0" clip-path="url(#id_0)" d="M235.0 332.0L169.0 332.0L169.0 126.0C169.0 124.89543 169.89543 124.0 171.0 124.0L233.0 124.0C234.10457 124.0 235.0 124.89543 235.0 126.0Z" fill-rule="nonzero"/><path fill="#4285f4" clip-path="url(#id_0)" d="M235.0 332.0L169.0 332.0L169.0 126.0C169.0 124.89543 169.89543 124.0 171.0 124.0L233.0 124.0C234.10457 124.0 235.0 124.89543 235.0 126.0Z" fill-rule="nonzero"/><path stroke="#000000" stroke-width="0.0" stroke-linecap="butt" stroke-opacity="0.0" clip-path="url(#id_0)" d="M441.0 332.0L375.0 332.0L375.0 98.0C375.0 96.89543 375.89542 96.0 377.0 96.0L439.0 96.0C440.10458 96.0 441.0 96.89543 441.0 98.0Z" fill-rule="nonzero"/><path fill="#4285f4" clip-path="url(#id_0)" d="M441.0 332.0L375.0 332.0L375.0 98.0C375.0 96.89543 375.89542 96.0 377.0 96.0L439.0 96.0C440.10458 96.0 441.0 96.89543 441.0 98.0Z" fill-rule="nonzero"/><path stroke="#000000" stroke-width="0.0" stroke-linecap="butt" stroke-opacity="0.0" clip-path="url(#id_0)" d="M302.0 332.0L236.0 332.0L236.0 202.0C236.0 200.89543 236.89543 200.0 238.0 200.0L300.0 200.0C301.10458 200.0 302.0 200.89543 302.0 202.0Z" fill-rule="nonzero"/><path fill="#34a853" clip-path="url(#id_0)" d="M302.0 332.0L236.0 332.0L236.0 202.0C236.0 200.89543 236.89543 200.0 238.0 200.0L300.0 200.0C301.10458 200.0 302.0 200.89543 302.0 202.0Z" fill-rule="nonzero"/><path stroke="#000000" stroke-width="0.0" stroke-linecap="butt" stroke-opacity="0.0" clip-path="url(#id_0)" d="M508.0 332.0L442.0 332.0L442.0 202.0C442.0 200.89543 442.89542 200.0 444.0 200.0L506.0 200.0C507.10458 200.0 508.0 200.89543 508.0 202.0Z" fill-rule="nonzero"/><path fill="#34a853" clip-path="url(#id_0)" d="M508.0 332.0L442.0 332.0L442.0 202.0C442.0 200.89543 442.89542 200.0 444.0 200.0L506.0 200.0C507.10458 200.0 508.0 200.89543 508.0 202.0Z" fill-rule="nonzero"/><path stroke="#ffffff" stroke-width="3.0" stroke-linejoin="round" stroke-linecap="round" d="M235.375 167.1198L235.375 166.1823Q237.4375 167.16667 239.14062 168.5573L239.14062 149.0573L240.375 149.0573L240.375 168.5573Q241.625 167.32292 244.14062 166.16667L244.14062 167.10417Q241.0625 169.82292 240.0 172.15105L239.4375 172.15105Q238.5625 170.01042 235.375 167.1198ZM252.34375 154.19792L247.64062 153.35417Q248.23438 151.10417 249.89062 149.91667Q251.5625 148.71355 254.625 148.71355Q258.125 148.71355 259.6875 150.02605Q261.25 151.32292 261.25 153.3073Q261.25 154.46355 260.60938 155.40105Q259.98438 156.33855 258.6875 157.0573Q259.73438 157.3073 260.28125 157.65105Q261.17188 158.19792 261.65625 159.10417Q262.15625 159.9948 262.15625 161.2448Q262.15625 162.8073 261.34375 164.2448Q260.53125 165.66667 258.98438 166.44792Q257.45312 167.22917 254.95312 167.22917Q252.5 167.22917 251.09375 166.65105Q249.6875 166.07292 248.78125 164.97917Q247.875 163.8698 247.375 162.19792L252.34375 161.52605Q252.64062 163.04167 253.25 163.6198Q253.875 164.19792 254.82812 164.19792Q255.82812 164.19792 256.48438 163.46355Q257.15625 162.72917 257.15625 161.51042Q257.15625 160.26042 256.51562 159.58855Q255.875 158.90105 254.78125 158.90105Q254.1875 158.90105 253.17188 159.1823L253.42188 155.63542Q253.84375 155.69792 254.0625 155.69792Q255.04688 155.69792 255.6875 155.07292Q256.34375 154.44792 256.34375 153.60417Q256.34375 152.77605 255.85938 152.29167Q255.375 151.8073 254.51562 151.8073Q253.64062 151.8073 253.09375 152.33855Q252.54688 152.8698 252.34375 154.19792ZM278.92188 153.04167L273.96875 153.66667Q273.78125 152.6198 273.3125 152.19792Q272.85938 151.76042 272.1875 151.76042Q270.98438 151.76042 270.3125 152.9948Q269.82812 153.8698 269.59375 156.7448Q270.48438 155.83855 271.42188 155.41667Q272.35938 154.97917 273.59375 154.97917Q275.98438 154.97917 277.64062 156.69792Q279.29688 158.40105 279.29688 161.02605Q279.29688 162.79167 278.45312 164.26042Q277.625 165.71355 276.14062 166.47917Q274.65625 167.22917 272.42188 167.22917Q269.73438 167.22917 268.10938 166.3073Q266.48438 165.38542 265.51562 163.38542Q264.54688 161.3698 264.54688 158.07292Q264.54688 153.21355 266.57812 150.96355Q268.625 148.71355 272.23438 148.71355Q274.375 148.71355 275.60938 149.21355Q276.85938 149.69792 277.67188 150.65105Q278.48438 151.60417 278.92188 153.04167ZM269.76562 161.02605Q269.76562 162.47917 270.5 163.3073Q271.23438 164.1198 272.29688 164.1198Q273.26562 164.1198 273.92188 163.38542Q274.57812 162.63542 274.57812 161.15105Q274.57812 159.63542 273.89062 158.85417Q273.21875 158.0573 272.20312 158.0573Q271.17188 158.0573 270.46875 158.82292Q269.76562 159.58855 269.76562 161.02605ZM296.90625 148.71355L299.48438 148.71355L289.14062 167.83855L286.59375 167.83855L296.90625 148.71355ZM281.70312 153.41667Q281.70312 152.16667 282.25 151.04167Q282.79688 149.91667 283.90625 149.32292Q285.03125 148.71355 286.5625 148.71355Q288.79688 148.71355 290.09375 149.9948Q291.39062 151.27605 291.39062 153.41667Q291.39062 155.5573 290.09375 156.83855Q288.79688 158.1198 286.5625 158.1198Q285.03125 158.1198 283.90625 157.52605Q282.79688 156.91667 282.25 155.79167Q281.70312 154.66667 281.70312 153.41667ZM285.14062 153.4323Q285.14062 154.94792 285.625 155.63542Q285.9375 156.08855 286.5625 156.08855Q287.17188 156.08855 287.46875 155.63542Q287.95312 154.94792 287.95312 153.4323Q287.95312 151.9323 287.46875 151.2448Q287.17188 150.8073 286.5625 150.8073Q285.9375 150.8073 285.625 151.2448Q285.14062 151.9323 285.14062 153.4323ZM294.60938 163.08855Q294.60938 161.83855 295.14062 160.72917Q295.6875 159.60417 296.8125 158.9948Q297.9375 158.38542 299.45312 158.38542Q301.70312 158.38542 303.0 159.6823Q304.29688 160.96355 304.29688 163.08855Q304.29688 165.22917 303.0 166.52605Q301.70312 167.8073 299.45312 167.8073Q297.9375 167.8073 296.8125 167.19792Q295.6875 166.58855 295.14062 165.47917Q294.60938 164.35417 294.60938 163.08855ZM298.04688 163.1198Q298.04688 164.63542 298.53125 165.32292Q298.82812 165.76042 299.45312 165.76042Q300.0625 165.76042 300.375 165.32292Q300.85938 164.63542 300.85938 163.1198Q300.85938 161.60417 300.375 160.91667Q300.0625 160.46355 299.45312 160.46355Q298.82812 160.46355 298.53125 160.91667Q298.04688 161.60417 298.04688 163.1198Z" fill-rule="nonzero"/><path fill="#34a853" d="M235.375 167.1198L235.375 166.1823Q237.4375 167.16667 239.14062 168.5573L239.14062 149.0573L240.375 149.0573L240.375 168.5573Q241.625 167.32292 244.14062 166.16667L244.14062 167.10417Q241.0625 169.82292 240.0 172.15105L239.4375 172.15105Q238.5625 170.01042 235.375 167.1198ZM252.34375 154.19792L247.64062 153.35417Q248.23438 151.10417 249.89062 149.91667Q251.5625 148.71355 254.625 148.71355Q258.125 148.71355 259.6875 150.02605Q261.25 151.32292 261.25 153.3073Q261.25 154.46355 260.60938 155.40105Q259.98438 156.33855 258.6875 157.0573Q259.73438 157.3073 260.28125 157.65105Q261.17188 158.19792 261.65625 159.10417Q262.15625 159.9948 262.15625 161.2448Q262.15625 162.8073 261.34375 164.2448Q260.53125 165.66667 258.98438 166.44792Q257.45312 167.22917 254.95312 167.22917Q252.5 167.22917 251.09375 166.65105Q249.6875 166.07292 248.78125 164.97917Q247.875 163.8698 247.375 162.19792L252.34375 161.52605Q252.64062 163.04167 253.25 163.6198Q253.875 164.19792 254.82812 164.19792Q255.82812 164.19792 256.48438 163.46355Q257.15625 162.72917 257.15625 161.51042Q257.15625 160.26042 256.51562 159.58855Q255.875 158.90105 254.78125 158.90105Q254.1875 158.90105 253.17188 159.1823L253.42188 155.63542Q253.84375 155.69792 254.0625 155.69792Q255.04688 155.69792 255.6875 155.07292Q256.34375 154.44792 256.34375 153.60417Q256.34375 152.77605 255.85938 152.29167Q255.375 151.8073 254.51562 151.8073Q253.64062 151.8073 253.09375 152.33855Q252.54688 152.8698 252.34375 154.19792ZM278.92188 153.04167L273.96875 153.66667Q273.78125 152.6198 273.3125 152.19792Q272.85938 151.76042 272.1875 151.76042Q270.98438 151.76042 270.3125 152.9948Q269.82812 153.8698 269.59375 156.7448Q270.48438 155.83855 271.42188 155.41667Q272.35938 154.97917 273.59375 154.97917Q275.98438 154.97917 277.64062 156.69792Q279.29688 158.40105 279.29688 161.02605Q279.29688 162.79167 278.45312 164.26042Q277.625 165.71355 276.14062 166.47917Q274.65625 167.22917 272.42188 167.22917Q269.73438 167.22917 268.10938 166.3073Q266.48438 165.38542 265.51562 163.38542Q264.54688 161.3698 264.54688 158.07292Q264.54688 153.21355 266.57812 150.96355Q268.625 148.71355 272.23438 148.71355Q274.375 148.71355 275.60938 149.21355Q276.85938 149.69792 277.67188 150.65105Q278.48438 151.60417 278.92188 153.04167ZM269.76562 161.02605Q269.76562 162.47917 270.5 163.3073Q271.23438 164.1198 272.29688 164.1198Q273.26562 164.1198 273.92188 163.38542Q274.57812 162.63542 274.57812 161.15105Q274.57812 159.63542 273.89062 158.85417Q273.21875 158.0573 272.20312 158.0573Q271.17188 158.0573 270.46875 158.82292Q269.76562 159.58855 269.76562 161.02605ZM296.90625 148.71355L299.48438 148.71355L289.14062 167.83855L286.59375 167.83855L296.90625 148.71355ZM281.70312 153.41667Q281.70312 152.16667 282.25 151.04167Q282.79688 149.91667 283.90625 149.32292Q285.03125 148.71355 286.5625 148.71355Q288.79688 148.71355 290.09375 149.9948Q291.39062 151.27605 291.39062 153.41667Q291.39062 155.5573 290.09375 156.83855Q288.79688 158.1198 286.5625 158.1198Q285.03125 158.1198 283.90625 157.52605Q282.79688 156.91667 282.25 155.79167Q281.70312 154.66667 281.70312 153.41667ZM285.14062 153.4323Q285.14062 154.94792 285.625 155.63542Q285.9375 156.08855 286.5625 156.08855Q287.17188 156.08855 287.46875 155.63542Q287.95312 154.94792 287.95312 153.4323Q287.95312 151.9323 287.46875 151.2448Q287.17188 150.8073 286.5625 150.8073Q285.9375 150.8073 285.625 151.2448Q285.14062 151.9323 285.14062 153.4323ZM294.60938 163.08855Q294.60938 161.83855 295.14062 160.72917Q295.6875 159.60417 296.8125 158.9948Q297.9375 158.38542 299.45312 158.38542Q301.70312 158.38542 303.0 159.6823Q304.29688 160.96355 304.29688 163.08855Q304.29688 165.22917 303.0 166.52605Q301.70312 167.8073 299.45312 167.8073Q297.9375 167.8073 296.8125 167.19792Q295.6875 166.58855 295.14062 165.47917Q294.60938 164.35417 294.60938 163.08855ZM298.04688 163.1198Q298.04688 164.63542 298.53125 165.32292Q298.82812 165.76042 299.45312 165.76042Q300.0625 165.76042 300.375 165.32292Q300.85938 164.63542 300.85938 163.1198Q300.85938 161.60417 300.375 160.91667Q300.0625 160.46355 299.45312 160.46355Q298.82812 160.46355 298.53125 160.91667Q298.04688 161.60417 298.04688 163.1198Z" fill-rule="nonzero"/><path stroke="#ffffff" stroke-width="3.0" stroke-linejoin="round" stroke-linecap="round" d="M441.375 167.1198L441.375 166.1823Q443.4375 167.16667 445.14062 168.5573L445.14062 149.0573L446.375 149.0573L446.375 168.5573Q447.625 167.32292 450.14062 166.16667L450.14062 167.10417Q447.0625 169.82292 446.0 172.15105L445.4375 172.15105Q444.5625 170.01042 441.375 167.1198ZM462.07812 163.57292L453.01562 163.57292L453.01562 159.47917L462.07812 148.71355L466.40625 148.71355L466.40625 159.71355L468.65625 159.71355L468.65625 163.57292L466.40625 163.57292L466.40625 166.91667L462.07812 166.91667L462.07812 163.57292ZM462.07812 159.71355L462.07812 154.08855L457.28125 159.71355L462.07812 159.71355ZM475.34375 154.19792L470.64062 153.35417Q471.23438 151.10417 472.89062 149.91667Q474.5625 148.71355 477.625 148.71355Q481.125 148.71355 482.6875 150.02605Q484.25 151.32292 484.25 153.3073Q484.25 154.46355 483.60938 155.40105Q482.98438 156.33855 481.6875 157.0573Q482.73438 157.3073 483.28125 157.65105Q484.17188 158.19792 484.65625 159.10417Q485.15625 159.9948 485.15625 161.2448Q485.15625 162.8073 484.34375 164.2448Q483.53125 165.66667 481.98438 166.44792Q480.45312 167.22917 477.95312 167.22917Q475.5 167.22917 474.09375 166.65105Q472.6875 166.07292 471.78125 164.97917Q470.875 163.8698 470.375 162.19792L475.34375 161.52605Q475.64062 163.04167 476.25 163.6198Q476.875 164.19792 477.82812 164.19792Q478.82812 164.19792 479.48438 163.46355Q480.15625 162.72917 480.15625 161.51042Q480.15625 160.26042 479.51562 159.58855Q478.875 158.90105 477.78125 158.90105Q477.1875 158.90105 476.17188 159.1823L476.42188 155.63542Q476.84375 155.69792 477.0625 155.69792Q478.04688 155.69792 478.6875 155.07292Q479.34375 154.44792 479.34375 153.60417Q479.34375 152.77605 478.85938 152.29167Q478.375 151.8073 477.51562 151.8073Q476.64062 151.8073 476.09375 152.33855Q475.54688 152.8698 475.34375 154.19792ZM502.90625 148.71355L505.48438 148.71355L495.14062 167.83855L492.59375 167.83855L502.90625 148.71355ZM487.70312 153.41667Q487.70312 152.16667 488.25 151.04167Q488.79688 149.91667 489.90625 149.32292Q491.03125 148.71355 492.5625 148.71355Q494.79688 148.71355 496.09375 149.9948Q497.39062 151.27605 497.39062 153.41667Q497.39062 155.5573 496.09375 156.83855Q494.79688 158.1198 492.5625 158.1198Q491.03125 158.1198 489.90625 157.52605Q488.79688 156.91667 488.25 155.79167Q487.70312 154.66667 487.70312 153.41667ZM491.14062 153.4323Q491.14062 154.94792 491.625 155.63542Q491.9375 156.08855 492.5625 156.08855Q493.17188 156.08855 493.46875 155.63542Q493.95312 154.94792 493.95312 153.4323Q493.95312 151.9323 493.46875 151.2448Q493.17188 150.8073 492.5625 150.8073Q491.9375 150.8073 491.625 151.2448Q491.14062 151.9323 491.14062 153.4323ZM500.60938 163.08855Q500.60938 161.83855 501.14062 160.72917Q501.6875 159.60417 502.8125 158.9948Q503.9375 158.38542 505.45312 158.38542Q507.70312 158.38542 509.0 159.6823Q510.29688 160.96355 510.29688 163.08855Q510.29688 165.22917 509.0 166.52605Q507.70312 167.8073 505.45312 167.8073Q503.9375 167.8073 502.8125 167.19792Q501.6875 166.58855 501.14062 165.47917Q500.60938 164.35417 500.60938 163.08855ZM504.04688 163.1198Q504.04688 164.63542 504.53125 165.32292Q504.82812 165.76042 505.45312 165.76042Q506.0625 165.76042 506.375 165.32292Q506.85938 164.63542 506.85938 163.1198Q506.85938 161.60417 506.375 160.91667Q506.0625 160.46355 505.45312 160.46355Q504.82812 160.46355 504.53125 160.91667Q504.04688 161.60417 504.04688 163.1198Z" fill-rule="nonzero"/><path fill="#34a853" d="M441.375 167.1198L441.375 166.1823Q443.4375 167.16667 445.14062 168.5573L445.14062 149.0573L446.375 149.0573L446.375 168.5573Q447.625 167.32292 450.14062 166.16667L450.14062 167.10417Q447.0625 169.82292 446.0 172.15105L445.4375 172.15105Q444.5625 170.01042 441.375 167.1198ZM462.07812 163.57292L453.01562 163.57292L453.01562 159.47917L462.07812 148.71355L466.40625 148.71355L466.40625 159.71355L468.65625 159.71355L468.65625 163.57292L466.40625 163.57292L466.40625 166.91667L462.07812 166.91667L462.07812 163.57292ZM462.07812 159.71355L462.07812 154.08855L457.28125 159.71355L462.07812 159.71355ZM475.34375 154.19792L470.64062 153.35417Q471.23438 151.10417 472.89062 149.91667Q474.5625 148.71355 477.625 148.71355Q481.125 148.71355 482.6875 150.02605Q484.25 151.32292 484.25 153.3073Q484.25 154.46355 483.60938 155.40105Q482.98438 156.33855 481.6875 157.0573Q482.73438 157.3073 483.28125 157.65105Q484.17188 158.19792 484.65625 159.10417Q485.15625 159.9948 485.15625 161.2448Q485.15625 162.8073 484.34375 164.2448Q483.53125 165.66667 481.98438 166.44792Q480.45312 167.22917 477.95312 167.22917Q475.5 167.22917 474.09375 166.65105Q472.6875 166.07292 471.78125 164.97917Q470.875 163.8698 470.375 162.19792L475.34375 161.52605Q475.64062 163.04167 476.25 163.6198Q476.875 164.19792 477.82812 164.19792Q478.82812 164.19792 479.48438 163.46355Q480.15625 162.72917 480.15625 161.51042Q480.15625 160.26042 479.51562 159.58855Q478.875 158.90105 477.78125 158.90105Q477.1875 158.90105 476.17188 159.1823L476.42188 155.63542Q476.84375 155.69792 477.0625 155.69792Q478.04688 155.69792 478.6875 155.07292Q479.34375 154.44792 479.34375 153.60417Q479.34375 152.77605 478.85938 152.29167Q478.375 151.8073 477.51562 151.8073Q476.64062 151.8073 476.09375 152.33855Q475.54688 152.8698 475.34375 154.19792ZM502.90625 148.71355L505.48438 148.71355L495.14062 167.83855L492.59375 167.83855L502.90625 148.71355ZM487.70312 153.41667Q487.70312 152.16667 488.25 151.04167Q488.79688 149.91667 489.90625 149.32292Q491.03125 148.71355 492.5625 148.71355Q494.79688 148.71355 496.09375 149.9948Q497.39062 151.27605 497.39062 153.41667Q497.39062 155.5573 496.09375 156.83855Q494.79688 158.1198 492.5625 158.1198Q491.03125 158.1198 489.90625 157.52605Q488.79688 156.91667 488.25 155.79167Q487.70312 154.66667 487.70312 153.41667ZM491.14062 153.4323Q491.14062 154.94792 491.625 155.63542Q491.9375 156.08855 492.5625 156.08855Q493.17188 156.08855 493.46875 155.63542Q493.95312 154.94792 493.95312 153.4323Q493.95312 151.9323 493.46875 151.2448Q493.17188 150.8073 492.5625 150.8073Q491.9375 150.8073 491.625 151.2448Q491.14062 151.9323 491.14062 153.4323ZM500.60938 163.08855Q500.60938 161.83855 501.14062 160.72917Q501.6875 159.60417 502.8125 158.9948Q503.9375 158.38542 505.45312 158.38542Q507.70312 158.38542 509.0 159.6823Q510.29688 160.96355 510.29688 163.08855Q510.29688 165.22917 509.0 166.52605Q507.70312 167.8073 505.45312 167.8073Q503.9375 167.8073 502.8125 167.19792Q501.6875 166.58855 501.14062 165.47917Q500.60938 164.35417 500.60938 163.08855ZM504.04688 163.1198Q504.04688 164.63542 504.53125 165.32292Q504.82812 165.76042 505.45312 165.76042Q506.0625 165.76042 506.375 165.32292Q506.85938 164.63542 506.85938 163.1198Q506.85938 161.60417 506.375 160.91667Q506.0625 160.46355 505.45312 160.46355Q504.82812 160.46355 504.53125 160.91667Q504.04688 161.60417 504.04688 163.1198Z" fill-rule="nonzero"/><path fill="#000000" d="M33.55001 230.17917L22.096888 230.17917L22.096888 227.89792L30.206263 225.17917Q31.331263 224.80417 31.893763 224.6323Q31.268763 224.4448 30.065638 224.02292L22.096888 221.28854L22.096888 219.24167L33.55001 219.24167L33.55001 220.71042L23.956263 220.71042L33.55001 224.03854L33.55001 225.39792L23.800013 228.71042L33.55001 228.71042L33.55001 230.17917ZM33.55001 217.1948L22.096888 217.1948L22.096888 212.89792Q22.096888 211.58542 22.440638 210.78854Q22.784388 209.99167 23.518763 209.55417Q24.237513 209.10104 25.018763 209.10104Q25.753138 209.10104 26.409388 209.5073Q27.050013 209.89792 27.456263 210.6948Q27.753138 209.66354 28.487513 209.10104Q29.221888 208.53854 30.221888 208.53854Q31.034388 208.53854 31.721888 208.8823Q32.409386 209.22604 32.784386 209.72604Q33.159386 210.22604 33.36251 210.97604Q33.55001 211.72604 33.55001 212.8198L33.55001 217.1948ZM26.909388 215.67917L26.909388 213.1948Q26.909388 212.1948 26.768763 211.7573Q26.596888 211.17917 26.206263 210.8823Q25.800013 210.58542 25.206263 210.58542Q24.628138 210.58542 24.206263 210.86667Q23.768763 211.1323 23.612513 211.64792Q23.440638 212.14792 23.440638 213.3823L23.440638 215.67917L26.909388 215.67917ZM32.190636 215.67917L32.190636 212.8198Q32.190636 212.08542 32.14376 211.78854Q32.05001 211.27292 31.831263 210.92917Q31.612513 210.5698 31.190638 210.35104Q30.768763 210.11667 30.221888 210.11667Q29.581263 210.11667 29.112513 210.4448Q28.643763 210.77292 28.456263 211.35104Q28.253138 211.92917 28.253138 213.02292L28.253138 215.67917L32.190636 215.67917Z" fill-rule="nonzero"/><path fill="#000000" d="M80.22188 332.29376Q80.22188 330.2625 80.62813 329.02814Q81.05 327.79376 81.87813 327.1219Q82.70625 326.45 83.95625 326.45Q84.87813 326.45 85.56563 326.825Q86.26875 327.1844 86.72188 327.8875Q87.175 328.59064 87.425 329.59064Q87.69063 330.59064 87.69063 332.29376Q87.69063 334.3094 87.26875 335.5594Q86.8625 336.79376 86.03438 337.48126Q85.20625 338.15314 83.95625 338.15314Q82.3 338.15314 81.34688 336.95Q80.22188 335.52814 80.22188 332.29376ZM81.65938 332.29376Q81.65938 335.1219 82.31563 336.0594Q82.9875 336.98126 83.95625 336.98126Q84.925 336.98126 85.58125 336.04376Q86.2375 335.10626 86.2375 332.29376Q86.2375 329.46564 85.58125 328.54376Q84.925 327.60626 83.94063 327.60626Q82.97188 327.60626 82.39375 328.4344Q81.65938 329.48126 81.65938 332.29376Z" fill-rule="nonzero"/><path fill="#000000" d="M78.6125 289.2573L78.6125 290.61667L71.03438 290.61667Q71.01875 290.10104 71.20625 289.6323Q71.4875 288.86667 72.12813 288.11667Q72.76875 287.36667 73.97188 286.3823Q75.83125 284.85104 76.4875 283.96042Q77.14375 283.05417 77.14375 282.2573Q77.14375 281.42917 76.55 280.85104Q75.95625 280.27292 74.9875 280.27292Q73.97188 280.27292 73.3625 280.8823Q72.75313 281.49167 72.75313 282.5698L71.3 282.42917Q71.45625 280.80417 72.425 279.96042Q73.39375 279.11667 75.01875 279.11667Q76.675 279.11667 77.62813 280.03854Q78.59688 280.9448 78.59688 282.28854Q78.59688 282.97604 78.31563 283.64792Q78.03438 284.30417 77.37813 285.03854Q76.72188 285.77292 75.20625 287.05417Q73.94063 288.11667 73.58125 288.5073Q73.22188 288.8823 72.9875 289.2573L78.6125 289.2573ZM80.22188 287.61667L81.69063 287.49167Q81.8625 288.5698 82.45625 289.11667Q83.05 289.64792 83.89375 289.64792Q84.90938 289.64792 85.6125 288.8823Q86.31563 288.11667 86.31563 286.85104Q86.31563 285.64792 85.64375 284.96042Q84.97188 284.2573 83.87813 284.2573Q83.19063 284.2573 82.64375 284.5698Q82.09688 284.8823 81.78438 285.36667L80.47188 285.1948L81.58125 279.3198L87.26875 279.3198L87.26875 280.66354L82.70625 280.66354L82.08125 283.74167Q83.1125 283.02292 84.25313 283.02292Q85.75313 283.02292 86.78438 284.0698Q87.81563 285.10104 87.81563 286.72604Q87.81563 288.28854 86.90938 289.41354Q85.8 290.8198 83.89375 290.8198Q82.33125 290.8198 81.34688 289.9448Q80.3625 289.05417 80.22188 287.61667Z" fill-rule="nonzero"/><path fill="#000000" d="M71.22188 240.28334L72.69063 240.15834Q72.8625 241.23647 73.45625 241.78334Q74.05 242.31459 74.89375 242.31459Q75.90938 242.31459 76.6125 241.54897Q77.31563 240.78334 77.31563 239.51772Q77.31563 238.31459 76.64375 237.62709Q75.97188 236.92397 74.87813 236.92397Q74.19063 236.92397 73.64375 237.23647Q73.09688 237.54897 72.78438 238.03334L71.47188 237.86147L72.58125 231.98647L78.26875 231.98647L78.26875 233.33022L73.70625 233.33022L73.08125 236.40834Q74.1125 235.68959 75.25313 235.68959Q76.75313 235.68959 77.78438 236.73647Q78.81563 237.76772 78.81563 239.39272Q78.81563 240.95522 77.90938 242.08022Q76.8 243.48647 74.89375 243.48647Q73.33125 243.48647 72.34688 242.61147Q71.3625 241.72084 71.22188 240.28334ZM80.22188 237.62709Q80.22188 235.59584 80.62813 234.36147Q81.05 233.12709 81.87813 232.45522Q82.70625 231.78334 83.95625 231.78334Q84.87813 231.78334 85.56563 232.15834Q86.26875 232.51772 86.72188 233.22084Q87.175 233.92397 87.425 234.92397Q87.69063 235.92397 87.69063 237.62709Q87.69063 239.64272 87.26875 240.89272Q86.8625 242.12709 86.03438 242.81459Q85.20625 243.48647 83.95625 243.48647Q82.3 243.48647 81.34688 242.28334Q80.22188 240.86147 80.22188 237.62709ZM81.65938 237.62709Q81.65938 240.45522 82.31563 241.39272Q82.9875 242.31459 83.95625 242.31459Q84.925 242.31459 85.58125 241.37709Q86.2375 240.43959 86.2375 237.62709Q86.2375 234.79897 85.58125 233.87709Q84.925 232.93959 83.94063 232.93959Q82.97188 232.93959 82.39375 233.76772Q81.65938 234.81459 81.65938 237.62709Z" fill-rule="nonzero"/><path fill="#000000" d="M71.31563 185.99687L71.31563 184.6375L78.72188 184.6375L78.72188 185.73125Q77.62813 186.90312 76.55 188.84062Q75.4875 190.7625 74.89375 192.79375Q74.47188 194.23125 74.3625 195.95L72.90938 195.95Q72.94063 194.59062 73.44063 192.68437Q73.95625 190.7625 74.89375 188.99687Q75.84688 187.21562 76.925 185.99687L71.31563 185.99687ZM80.22188 192.95L81.69063 192.825Q81.8625 193.90312 82.45625 194.45Q83.05 194.98125 83.89375 194.98125Q84.90938 194.98125 85.6125 194.21562Q86.31563 193.45 86.31563 192.18437Q86.31563 190.98125 85.64375 190.29375Q84.97188 189.59062 83.87813 189.59062Q83.19063 189.59062 82.64375 189.90312Q82.09688 190.21562 81.78438 190.7L80.47188 190.52812L81.58125 184.65312L87.26875 184.65312L87.26875 185.99687L82.70625 185.99687L82.08125 189.075Q83.1125 188.35625 84.25313 188.35625Q85.75313 188.35625 86.78438 189.40312Q87.81563 190.43437 87.81563 192.05937Q87.81563 193.62187 86.90938 194.74687Q85.8 196.15312 83.89375 196.15312Q82.33125 196.15312 81.34688 195.27812Q80.3625 194.3875 80.22188 192.95Z" fill-rule="nonzero"/><path fill="#000000" d="M67.51875 148.61667L66.1125 148.61667L66.1125 139.64792Q65.59688 140.1323 64.76875 140.61667Q63.95625 141.10104 63.3 141.35104L63.3 139.99167Q64.47188 139.42917 65.34688 138.64792Q66.2375 137.85104 66.6125 137.11667L67.51875 137.11667L67.51875 148.61667ZM71.22188 142.96042Q71.22188 140.92917 71.62813 139.6948Q72.05 138.46042 72.87813 137.78854Q73.70625 137.11667 74.95625 137.11667Q75.87813 137.11667 76.56563 137.49167Q77.26875 137.85104 77.72188 138.55417Q78.175 139.2573 78.425 140.2573Q78.69063 141.2573 78.69063 142.96042Q78.69063 144.97604 78.26875 146.22604Q77.8625 147.46042 77.03438 148.14792Q76.20625 148.8198 74.95625 148.8198Q73.3 148.8198 72.34688 147.61667Q71.22188 146.1948 71.22188 142.96042ZM72.65938 142.96042Q72.65938 145.78854 73.31563 146.72604Q73.9875 147.64792 74.95625 147.64792Q75.925 147.64792 76.58125 146.71042Q77.2375 145.77292 77.2375 142.96042Q77.2375 140.1323 76.58125 139.21042Q75.925 138.27292 74.94063 138.27292Q73.97188 138.27292 73.39375 139.10104Q72.65938 140.14792 72.65938 142.96042ZM80.22188 142.96042Q80.22188 140.92917 80.62813 139.6948Q81.05 138.46042 81.87813 137.78854Q82.70625 137.11667 83.95625 137.11667Q84.87813 137.11667 85.56563 137.49167Q86.26875 137.85104 86.72188 138.55417Q87.175 139.2573 87.425 140.2573Q87.69063 141.2573 87.69063 142.96042Q87.69063 144.97604 87.26875 146.22604Q86.8625 147.46042 86.03438 148.14792Q85.20625 148.8198 83.95625 148.8198Q82.3 148.8198 81.34688 147.61667Q80.22188 146.1948 80.22188 142.96042ZM81.65938 142.96042Q81.65938 145.78854 82.31563 146.72604Q82.9875 147.64792 83.95625 147.64792Q84.925 147.64792 85.58125 146.71042Q86.2375 145.77292 86.2375 142.96042Q86.2375 140.1323 85.58125 139.21042Q84.925 138.27292 83.94063 138.27292Q82.97188 138.27292 82.39375 139.10104Q81.65938 140.14792 81.65938 142.96042Z" fill-rule="nonzero"/><path fill="#000000" d="M67.51875 101.28333L66.1125 101.28333L66.1125 92.31458Q65.59688 92.79896 64.76875 93.28333Q63.95625 93.76771 63.3 94.01771L63.3 92.65833Q64.47188 92.09583 65.34688 91.31458Q66.2375 90.51771 66.6125 89.78333L67.51875 89.78333L67.51875 101.28333ZM78.6125 99.92396L78.6125 101.28333L71.03438 101.28333Q71.01875 100.76771 71.20625 100.29896Q71.4875 99.53333 72.12813 98.78333Q72.76875 98.03333 73.97188 97.04896Q75.83125 95.51771 76.4875 94.62708Q77.14375 93.72083 77.14375 92.92396Q77.14375 92.09583 76.55 91.51771Q75.95625 90.93958 74.9875 90.93958Q73.97188 90.93958 73.3625 91.54896Q72.75313 92.15833 72.75313 93.23646L71.3 93.09583Q71.45625 91.47083 72.425 90.62708Q73.39375 89.78333 75.01875 89.78333Q76.675 89.78333 77.62813 90.70521Q78.59688 91.61146 78.59688 92.95521Q78.59688 93.64271 78.31563 94.31458Q78.03438 94.97083 77.37813 95.70521Q76.72188 96.43958 75.20625 97.72083Q73.94063 98.78333 73.58125 99.17396Q73.22188 99.54896 72.9875 99.92396L78.6125 99.92396ZM80.22188 98.28333L81.69063 98.15833Q81.8625 99.23646 82.45625 99.78333Q83.05 100.31458 83.89375 100.31458Q84.90938 100.31458 85.6125 99.54896Q86.31563 98.78333 86.31563 97.51771Q86.31563 96.31458 85.64375 95.62708Q84.97188 94.92396 83.87813 94.92396Q83.19063 94.92396 82.64375 95.23646Q82.09688 95.54896 81.78438 96.03333L80.47188 95.86146L81.58125 89.98646L87.26875 89.98646L87.26875 91.33021L82.70625 91.33021L82.08125 94.40833Q83.1125 93.68958 84.25313 93.68958Q85.75313 93.68958 86.78438 94.73646Q87.81563 95.76771 87.81563 97.39271Q87.81563 98.95521 86.90938 100.08021Q85.8 101.48646 83.89375 101.48646Q82.33125 101.48646 81.34688 100.61146Q80.3625 99.72083 80.22188 98.28333Z" fill-rule="nonzero"/><path fill="#000000" d="M204.28291 346.075L204.28291 345.075L207.90791 345.0594L207.90791 348.2469Q207.07979 348.91876 206.18916 349.2625Q205.29854 349.59064 204.36104 349.59064Q203.09541 349.59064 202.04854 349.0594Q201.01729 348.5125 200.48604 347.4969Q199.97041 346.46564 199.97041 345.2Q199.97041 343.9344 200.48604 342.85626Q201.01729 341.7625 202.00166 341.2469Q202.98604 340.71564 204.26729 340.71564Q205.20479 340.71564 205.95479 341.0125Q206.70479 341.3094 207.12666 341.85626Q207.56416 342.3875 207.78291 343.2625L206.76729 343.54376Q206.56416 342.8875 206.26729 342.5125Q205.98604 342.1375 205.45479 341.91876Q204.92354 341.6844 204.28291 341.6844Q203.50166 341.6844 202.92354 341.91876Q202.36104 342.15314 202.00166 342.54376Q201.65791 342.9344 201.47041 343.40314Q201.14229 344.2 201.14229 345.1219Q201.14229 346.27814 201.53291 347.0594Q201.93916 347.825 202.68916 348.2Q203.43916 348.575 204.29854 348.575Q205.03291 348.575 205.73604 348.29376Q206.43916 347.9969 206.79854 347.6844L206.79854 346.075L204.28291 346.075ZM208.73604 346.34064Q208.73604 344.60626 209.68916 343.77814Q210.48604 343.09064 211.64229 343.09064Q212.92354 343.09064 213.73604 343.9344Q214.56416 344.7625 214.56416 346.2469Q214.56416 347.45 214.20479 348.1375Q213.84541 348.825 213.14229 349.21564Q212.45479 349.59064 211.64229 349.59064Q210.34541 349.59064 209.53291 348.7625Q208.73604 347.91876 208.73604 346.34064ZM209.81416 346.34064Q209.81416 347.52814 210.32979 348.1219Q210.86104 348.71564 211.64229 348.71564Q212.43916 348.71564 212.95479 348.1219Q213.47041 347.52814 213.47041 346.3094Q213.47041 345.15314 212.93916 344.5594Q212.42354 343.96564 211.64229 343.96564Q210.86104 343.96564 210.32979 344.5594Q209.81416 345.1375 209.81416 346.34064ZM215.73604 346.34064Q215.73604 344.60626 216.68916 343.77814Q217.48604 343.09064 218.64229 343.09064Q219.92354 343.09064 220.73604 343.9344Q221.56416 344.7625 221.56416 346.2469Q221.56416 347.45 221.20479 348.1375Q220.84541 348.825 220.14229 349.21564Q219.45479 349.59064 218.64229 349.59064Q217.34541 349.59064 216.53291 348.7625Q215.73604 347.91876 215.73604 346.34064ZM216.81416 346.34064Q216.81416 347.52814 217.32979 348.1219Q217.86104 348.71564 218.64229 348.71564Q219.43916 348.71564 219.95479 348.1219Q220.47041 347.52814 220.47041 346.3094Q220.47041 345.15314 219.93916 344.5594Q219.42354 343.96564 218.64229 343.96564Q217.86104 343.96564 217.32979 344.5594Q216.81416 345.1375 216.81416 346.34064ZM222.92354 349.96564L223.95479 350.1219Q224.01729 350.59064 224.31416 350.8094Q224.70479 351.10626 225.37666 351.10626Q226.11104 351.10626 226.50166 350.8094Q226.90791 350.5125 227.04854 349.9969Q227.14229 349.66876 227.12666 348.6375Q226.43916 349.45 225.40791 349.45Q224.12666 349.45 223.42354 348.52814Q222.72041 347.59064 222.72041 346.3094Q222.72041 345.41876 223.03291 344.66876Q223.36104 343.90314 223.97041 343.4969Q224.57979 343.09064 225.40791 343.09064Q226.51729 343.09064 227.23604 343.98126L227.23604 343.23126L228.20479 343.23126L228.20479 348.60626Q228.20479 350.0594 227.90791 350.66876Q227.61104 351.27814 226.97041 351.6219Q226.32979 351.98126 225.39229 351.98126Q224.28291 351.98126 223.59541 351.48126Q222.90791 350.98126 222.92354 349.96564ZM223.79854 346.23126Q223.79854 347.45 224.28291 348.0125Q224.76729 348.575 225.50166 348.575Q226.23604 348.575 226.72041 348.0125Q227.22041 347.45 227.22041 346.2625Q227.22041 345.1219 226.70479 344.54376Q226.20479 343.96564 225.48604 343.96564Q224.78291 343.96564 224.28291 344.54376Q223.79854 345.10626 223.79854 346.23126ZM230.09541 349.45L230.09541 340.85626L231.15791 340.85626L231.15791 349.45L230.09541 349.45ZM237.37666 347.45L238.47041 347.575Q238.22041 348.52814 237.51729 349.0594Q236.81416 349.59064 235.73604 349.59064Q234.37666 349.59064 233.56416 348.7469Q232.76729 347.90314 232.76729 346.3875Q232.76729 344.825 233.57979 343.96564Q234.39229 343.09064 235.67354 343.09064Q236.92354 343.09064 237.70479 343.9344Q238.50166 344.77814 238.50166 346.325Q238.50166 346.41876 238.50166 346.60626L233.86104 346.60626Q233.92354 347.6375 234.43916 348.1844Q234.95479 348.71564 235.73604 348.71564Q236.31416 348.71564 236.72041 348.41876Q237.14229 348.10626 237.37666 347.45ZM233.92354 345.7469L237.39229 345.7469Q237.32979 344.95 237.00166 344.5594Q236.48604 343.95 235.68916 343.95Q234.95479 343.95 234.45479 344.4344Q233.97041 344.91876 233.92354 345.7469ZM243.22041 349.45L243.22041 340.85626L244.93916 340.85626L246.97041 346.9344Q247.25166 347.79376 247.37666 348.21564Q247.51729 347.7469 247.82979 346.84064L249.89229 340.85626L251.42354 340.85626L251.42354 349.45L250.32979 349.45L250.32979 342.2625L247.82979 349.45L246.79854 349.45L244.31416 342.1375L244.31416 349.45L243.22041 349.45ZM257.18915 348.6844Q256.5954 349.1844 256.04852 349.3875Q255.51729 349.59064 254.89229 349.59064Q253.86104 349.59064 253.31416 349.09064Q252.76729 348.59064 252.76729 347.8094Q252.76729 347.35626 252.97041 346.98126Q253.17354 346.59064 253.51729 346.3719Q253.86104 346.1375 254.28291 346.02814Q254.57979 345.9344 255.22041 345.85626Q256.48602 345.71564 257.0954 345.4969Q257.0954 345.27814 257.0954 345.23126Q257.0954 344.575 256.79852 344.3094Q256.39227 343.96564 255.59541 343.96564Q254.86104 343.96564 254.50166 344.23126Q254.14229 344.48126 253.97041 345.1375L252.93916 344.9969Q253.07979 344.34064 253.40791 343.9344Q253.73604 343.52814 254.34541 343.3094Q254.95479 343.09064 255.75166 343.09064Q256.54852 343.09064 257.04852 343.27814Q257.54852 343.46564 257.7829 343.7469Q258.01727 344.02814 258.11102 344.46564Q258.1579 344.73126 258.1579 345.4344L258.1579 346.84064Q258.1579 348.3094 258.2204 348.7Q258.29852 349.09064 258.50165 349.45L257.39227 349.45Q257.23602 349.1219 257.18915 348.6844ZM257.0954 346.325Q256.51727 346.5594 255.37666 346.73126Q254.72041 346.825 254.45479 346.95Q254.18916 347.0594 254.03291 347.27814Q253.89229 347.4969 253.89229 347.77814Q253.89229 348.2 254.20479 348.48126Q254.53291 348.7625 255.14229 348.7625Q255.75166 348.7625 256.2204 348.4969Q256.70477 348.23126 256.92352 347.7625Q257.0954 347.40314 257.0954 346.71564L257.0954 346.325ZM260.12665 351.84064L260.12665 343.23126L261.07977 343.23126L261.07977 344.02814Q261.42352 343.5594 261.8454 343.325Q262.2829 343.09064 262.89227 343.09064Q263.68915 343.09064 264.29852 343.4969Q264.9079 343.90314 265.20477 344.65314Q265.51727 345.40314 265.51727 346.29376Q265.51727 347.2469 265.17352 348.0125Q264.8454 348.77814 264.18915 349.1844Q263.5329 349.59064 262.81415 349.59064Q262.2829 349.59064 261.86102 349.3719Q261.43915 349.1375 261.17352 348.8094L261.17352 351.84064L260.12665 351.84064ZM261.07977 346.3719Q261.07977 347.575 261.56415 348.15314Q262.04852 348.71564 262.73602 348.71564Q263.43915 348.71564 263.93915 348.1219Q264.43915 347.52814 264.43915 346.27814Q264.43915 345.09064 263.95477 344.5125Q263.4704 343.91876 262.7829 343.91876Q262.11102 343.91876 261.5954 344.54376Q261.07977 345.16876 261.07977 346.3719ZM266.70477 347.59064L267.73602 347.4344Q267.82977 348.0594 268.2204 348.3875Q268.62665 348.71564 269.36102 348.71564Q270.07977 348.71564 270.42352 348.4344Q270.7829 348.1375 270.7829 347.73126Q270.7829 347.3719 270.4704 347.16876Q270.25165 347.02814 269.39227 346.8094Q268.23602 346.5125 267.7829 346.3094Q267.3454 346.09064 267.11102 345.71564Q266.87665 345.34064 266.87665 344.8719Q266.87665 344.46564 267.06415 344.10626Q267.25165 343.7469 267.57977 343.5125Q267.82977 343.34064 268.25165 343.21564Q268.67352 343.09064 269.17352 343.09064Q269.89227 343.09064 270.43915 343.3094Q271.00165 343.5125 271.26727 343.8719Q271.5329 344.23126 271.62665 344.825L270.5954 344.96564Q270.5329 344.4969 270.18915 344.23126Q269.86102 343.95 269.23602 343.95Q268.51727 343.95 268.20477 344.2Q267.89227 344.4344 267.89227 344.7625Q267.89227 344.96564 268.01727 345.1219Q268.1579 345.29376 268.42352 345.40314Q268.57977 345.46564 269.36102 345.66876Q270.48602 345.98126 270.92352 346.16876Q271.36102 346.35626 271.61102 346.71564Q271.86102 347.075 271.86102 347.6219Q271.86102 348.15314 271.54852 348.6219Q271.25165 349.075 270.67352 349.34064Q270.0954 349.59064 269.36102 349.59064Q268.14227 349.59064 267.50165 349.09064Q266.87665 348.575 266.70477 347.59064Z" fill-rule="nonzero"/><path fill="#000000" d="M416.1546 349.45L416.1546 340.85626L421.95148 340.85626L421.95148 341.8719L417.29523 341.8719L417.29523 344.52814L421.32648 344.52814L421.32648 345.54376L417.29523 345.54376L417.29523 349.45L416.1546 349.45ZM427.0296 348.6844Q426.43585 349.1844 425.88898 349.3875Q425.35773 349.59064 424.73273 349.59064Q423.70148 349.59064 423.1546 349.09064Q422.60773 348.59064 422.60773 347.8094Q422.60773 347.35626 422.81085 346.98126Q423.01398 346.59064 423.35773 346.3719Q423.70148 346.1375 424.12335 346.02814Q424.42023 345.9344 425.06085 345.85626Q426.32648 345.71564 426.93585 345.4969Q426.93585 345.27814 426.93585 345.23126Q426.93585 344.575 426.63898 344.3094Q426.23273 343.96564 425.43585 343.96564Q424.70148 343.96564 424.3421 344.23126Q423.98273 344.48126 423.81085 345.1375L422.7796 344.9969Q422.92023 344.34064 423.24835 343.9344Q423.57648 343.52814 424.18585 343.3094Q424.79523 343.09064 425.5921 343.09064Q426.38898 343.09064 426.88898 343.27814Q427.38898 343.46564 427.62335 343.7469Q427.85773 344.02814 427.95148 344.46564Q427.99835 344.73126 427.99835 345.4344L427.99835 346.84064Q427.99835 348.3094 428.06085 348.7Q428.13898 349.09064 428.3421 349.45L427.23273 349.45Q427.07648 349.1219 427.0296 348.6844ZM426.93585 346.325Q426.35773 346.5594 425.2171 346.73126Q424.56085 346.825 424.29523 346.95Q424.0296 347.0594 423.87335 347.27814Q423.73273 347.4969 423.73273 347.77814Q423.73273 348.2 424.04523 348.48126Q424.37335 348.7625 424.98273 348.7625Q425.5921 348.7625 426.06085 348.4969Q426.54523 348.23126 426.76398 347.7625Q426.93585 347.40314 426.93585 346.71564L426.93585 346.325ZM434.0296 347.16876L435.06085 347.3094Q434.88898 348.3719 434.18585 348.98126Q433.48273 349.59064 432.4671 349.59064Q431.18585 349.59064 430.4046 348.7625Q429.63898 347.91876 429.63898 346.35626Q429.63898 345.35626 429.9671 344.60626Q430.31085 343.84064 430.98273 343.46564Q431.67023 343.09064 432.48273 343.09064Q433.48273 343.09064 434.12335 343.60626Q434.7796 344.10626 434.9671 345.0594L433.93585 345.21564Q433.79523 344.59064 433.42023 344.27814Q433.04523 343.95 432.51398 343.95Q431.7171 343.95 431.2171 344.52814Q430.7171 345.09064 430.7171 346.325Q430.7171 347.59064 431.20148 348.15314Q431.68585 348.71564 432.45148 348.71564Q433.07648 348.71564 433.48273 348.34064Q433.9046 347.96564 434.0296 347.16876ZM440.2171 347.45L441.31085 347.575Q441.06085 348.52814 440.35773 349.0594Q439.6546 349.59064 438.57648 349.59064Q437.2171 349.59064 436.4046 348.7469Q435.60773 347.90314 435.60773 346.3875Q435.60773 344.825 436.42023 343.96564Q437.23273 343.09064 438.51398 343.09064Q439.76398 343.09064 440.54523 343.9344Q441.3421 344.77814 441.3421 346.325Q441.3421 346.41876 441.3421 346.60626L436.70148 346.60626Q436.76398 347.6375 437.2796 348.1844Q437.79523 348.71564 438.57648 348.71564Q439.1546 348.71564 439.56085 348.41876Q439.98273 348.10626 440.2171 347.45ZM436.76398 345.7469L440.23273 345.7469Q440.17023 344.95 439.8421 344.5594Q439.32648 343.95 438.5296 343.95Q437.79523 343.95 437.29523 344.4344Q436.81085 344.91876 436.76398 345.7469ZM443.93585 349.45L442.95148 349.45L442.95148 340.85626L444.01398 340.85626L444.01398 343.91876Q444.68585 343.09064 445.7171 343.09064Q446.29523 343.09064 446.79523 343.325Q447.31085 343.54376 447.63898 343.96564Q447.98273 344.3875 448.17023 344.98126Q448.35773 345.575 448.35773 346.2469Q448.35773 347.84064 447.56085 348.71564Q446.76398 349.59064 445.67023 349.59064Q444.56085 349.59064 443.93585 348.66876L443.93585 349.45ZM443.92023 346.29376Q443.92023 347.40314 444.23273 347.90314Q444.73273 348.71564 445.57648 348.71564Q446.26398 348.71564 446.76398 348.1219Q447.2796 347.52814 447.2796 346.325Q447.2796 345.10626 446.79523 344.52814Q446.31085 343.95 445.62335 343.95Q444.93585 343.95 444.42023 344.5594Q443.92023 345.15314 443.92023 346.29376ZM449.57648 346.34064Q449.57648 344.60626 450.5296 343.77814Q451.32648 343.09064 452.48273 343.09064Q453.76398 343.09064 454.57648 343.9344Q455.4046 344.7625 455.4046 346.2469Q455.4046 347.45 455.04523 348.1375Q454.68585 348.825 453.98273 349.21564Q453.29523 349.59064 452.48273 349.59064Q451.18585 349.59064 450.37335 348.7625Q449.57648 347.91876 449.57648 346.34064ZM450.6546 346.34064Q450.6546 347.52814 451.17023 348.1219Q451.70148 348.71564 452.48273 348.71564Q453.2796 348.71564 453.79523 348.1219Q454.31085 347.52814 454.31085 346.3094Q454.31085 345.15314 453.7796 344.5594Q453.26398 343.96564 452.48273 343.96564Q451.70148 343.96564 451.17023 344.5594Q450.6546 345.1375 450.6546 346.34064ZM456.57648 346.34064Q456.57648 344.60626 457.5296 343.77814Q458.32648 343.09064 459.48273 343.09064Q460.76398 343.09064 461.57648 343.9344Q462.4046 344.7625 462.4046 346.2469Q462.4046 347.45 462.04523 348.1375Q461.68585 348.825 460.98273 349.21564Q460.29523 349.59064 459.48273 349.59064Q458.18585 349.59064 457.37335 348.7625Q456.57648 347.91876 456.57648 346.34064ZM457.6546 346.34064Q457.6546 347.52814 458.17023 348.1219Q458.70148 348.71564 459.48273 348.71564Q460.2796 348.71564 460.79523 348.1219Q461.31085 347.52814 461.31085 346.3094Q461.31085 345.15314 460.7796 344.5594Q460.26398 343.96564 459.48273 343.96564Q458.70148 343.96564 458.17023 344.5594Q457.6546 345.1375 457.6546 346.34064ZM463.9671 349.45L463.9671 340.85626L465.0296 340.85626L465.0296 345.7625L467.51398 343.23126L468.88898 343.23126L466.49835 345.52814L469.12335 349.45L467.82648 349.45L465.76398 346.2625L465.0296 346.98126L465.0296 349.45L463.9671 349.45Z" fill-rule="nonzero"/><path fill="#4285f4" d="M177.5 59.416668C177.5 58.864384 177.94771 58.416668 178.5 58.416668L188.5 58.416668C189.05229 58.416668 189.5 58.864384 189.5 59.416668L189.5 69.416664C189.5 69.96895 189.05229 70.416664 188.5 70.416664L178.5 70.416664C177.94771 70.416664 177.5 69.96895 177.5 69.416664Z" fill-rule="nonzero"/><path fill="#1a1a1a" d="M205.46875 61.260414L204.0625 61.36979Q203.875 60.541664 203.53125 60.166664Q202.96875 59.572914 202.125 59.572914Q201.45312 59.572914 200.95312 59.947914Q200.28125 60.43229 199.89062 61.36979Q199.51562 62.291664 199.5 64.010414Q200.01562 63.229164 200.75 62.854164Q201.48438 62.479164 202.28125 62.479164Q203.6875 62.479164 204.67188 63.52604Q205.67188 64.55729 205.67188 66.197914Q205.67188 67.27604 205.20312 68.197914Q204.73438 69.11979 203.92188 69.61979Q203.10938 70.11979 202.07812 70.11979Q200.32812 70.11979 199.21875 68.822914Q198.10938 67.52604 198.10938 64.55729Q198.10938 61.229164 199.32812 59.729164Q200.40625 58.416664 202.21875 58.416664Q203.5625 58.416664 204.42188 59.18229Q205.29688 59.93229 205.46875 61.260414ZM199.71875 66.197914Q199.71875 66.93229 200.03125 67.604164Q200.34375 68.260414 200.89062 68.604164Q201.45312 68.947914 202.0625 68.947914Q202.95312 68.947914 203.59375 68.229164Q204.23438 67.510414 204.23438 66.27604Q204.23438 65.08854 203.59375 64.416664Q202.96875 63.729164 202.0 63.729164Q201.04688 63.729164 200.375 64.416664Q199.71875 65.08854 199.71875 66.197914ZM211.67188 69.916664L211.67188 67.166664L206.70312 67.166664L206.70312 65.885414L211.9375 58.46354L213.07812 58.46354L213.07812 65.885414L214.625 65.885414L214.625 67.166664L213.07812 67.166664L213.07812 69.916664L211.67188 69.916664ZM211.67188 65.885414L211.67188 60.71354L208.09375 65.885414L211.67188 65.885414ZM221.85938 69.916664L220.54688 69.916664L220.54688 58.46354L221.95312 58.46354L221.95312 62.541664Q222.84375 61.43229 224.23438 61.43229Q225.0 61.43229 225.67188 61.74479Q226.35938 62.041664 226.79688 62.604164Q227.25 63.166664 227.5 63.96354Q227.75 64.74479 227.75 65.635414Q227.75 67.77604 226.6875 68.947914Q225.64062 70.104164 224.15625 70.104164Q222.6875 70.104164 221.85938 68.86979L221.85938 69.916664ZM221.84375 65.697914Q221.84375 67.197914 222.25 67.854164Q222.90625 68.947914 224.04688 68.947914Q224.96875 68.947914 225.64062 68.15104Q226.3125 67.33854 226.3125 65.760414Q226.3125 64.135414 225.65625 63.36979Q225.01562 62.58854 224.10938 62.58854Q223.1875 62.58854 222.51562 63.385414Q221.84375 64.18229 221.84375 65.697914ZM229.5625 60.072914L229.5625 58.46354L230.96875 58.46354L230.96875 60.072914L229.5625 60.072914ZM229.5625 69.916664L229.5625 61.61979L230.96875 61.61979L230.96875 69.916664L229.5625 69.916664ZM236.625 68.65104L236.82812 69.90104Q236.23438 70.02604 235.76562 70.02604Q235.0 70.02604 234.57812 69.791664Q234.15625 69.541664 233.98438 69.15104Q233.8125 68.74479 233.8125 67.479164L233.8125 62.71354L232.78125 62.71354L232.78125 61.61979L233.8125 61.61979L233.8125 59.55729L235.21875 58.71354L235.21875 61.61979L236.625 61.61979L236.625 62.71354L235.21875 62.71354L235.21875 67.55729Q235.21875 68.166664 235.28125 68.33854Q235.35938 68.510414 235.53125 68.61979Q235.70312 68.71354 236.01562 68.71354Q236.25 68.71354 236.625 68.65104Z" fill-rule="nonzero"/><path fill="#34a853" d="M252.5 59.416668C252.5 58.864384 252.94771 58.416668 253.5 58.416668L263.5 58.416668C264.05228 58.416668 264.5 58.864384 264.5 59.416668L264.5 69.416664C264.5 69.96895 264.05228 70.416664 263.5 70.416664L253.5 70.416664C252.94771 70.416664 252.5 69.96895 252.5 69.416664Z" fill-rule="nonzero"/><path fill="#1a1a1a" d="M273.73438 69.916664L273.73438 58.46354L278.0625 58.46354Q279.20312 58.46354 279.79688 58.572914Q280.64062 58.71354 281.20312 59.104164Q281.78125 59.49479 282.125 60.21354Q282.48438 60.916664 282.48438 61.77604Q282.48438 63.229164 281.54688 64.24479Q280.625 65.260414 278.1875 65.260414L275.25 65.260414L275.25 69.916664L273.73438 69.916664ZM275.25 63.90104L278.21875 63.90104Q279.6875 63.90104 280.29688 63.354164Q280.92188 62.80729 280.92188 61.822914Q280.92188 61.104164 280.54688 60.58854Q280.1875 60.072914 279.59375 59.916664Q279.21875 59.80729 278.1875 59.80729L275.25 59.80729L275.25 63.90104ZM284.03125 65.760414Q284.03125 63.46354 285.3125 62.354164Q286.39062 61.43229 287.92188 61.43229Q289.64062 61.43229 290.71875 62.55729Q291.8125 63.666664 291.8125 65.65104Q291.8125 67.24479 291.32812 68.166664Q290.84375 69.08854 289.92188 69.604164Q289.01562 70.104164 287.92188 70.104164Q286.1875 70.104164 285.10938 68.99479Q284.03125 67.86979 284.03125 65.760414ZM285.48438 65.760414Q285.48438 67.354164 286.17188 68.15104Q286.875 68.947914 287.92188 68.947914Q288.96875 68.947914 289.65625 68.15104Q290.35938 67.354164 290.35938 65.71354Q290.35938 64.18229 289.65625 63.385414Q288.96875 62.58854 287.92188 62.58854Q286.875 62.58854 286.17188 63.385414Q285.48438 64.166664 285.48438 65.760414ZM293.5625 60.072914L293.5625 58.46354L294.96875 58.46354L294.96875 60.072914L293.5625 60.072914ZM293.5625 69.916664L293.5625 61.61979L294.96875 61.61979L294.96875 69.916664L293.5625 69.916664ZM297.5625 69.916664L297.5625 61.61979L298.82812 61.61979L298.82812 62.791664Q299.73438 61.43229 301.46875 61.43229Q302.21875 61.43229 302.84375 61.697914Q303.46875 61.96354 303.78125 62.40104Q304.09375 62.83854 304.21875 63.447914Q304.29688 63.83854 304.29688 64.80729L304.29688 69.916664L302.89062 69.916664L302.89062 64.86979Q302.89062 64.010414 302.71875 63.58854Q302.5625 63.15104 302.14062 62.90104Q301.73438 62.65104 301.17188 62.65104Q300.26562 62.65104 299.60938 63.229164Q298.96875 63.791664 298.96875 65.385414L298.96875 69.916664L297.5625 69.916664ZM309.625 68.65104L309.82812 69.90104Q309.23438 70.02604 308.76562 70.02604Q308.0 70.02604 307.57812 69.791664Q307.15625 69.541664 306.98438 69.15104Q306.8125 68.74479 306.8125 67.479164L306.8125 62.71354L305.78125 62.71354L305.78125 61.61979L306.8125 61.61979L306.8125 59.55729L308.21875 58.71354L308.21875 61.61979L309.625 61.61979L309.625 62.71354L308.21875 62.71354L308.21875 67.55729Q308.21875 68.166664 308.28125 68.33854Q308.35938 68.510414 308.53125 68.61979Q308.70312 68.71354 309.01562 68.71354Q309.25 68.71354 309.625 68.65104ZM316.23438 67.24479L317.6875 67.416664Q317.34375 68.697914 316.40625 69.40104Q315.48438 70.104164 314.04688 70.104164Q312.21875 70.104164 311.15625 68.979164Q310.09375 67.854164 310.09375 65.83854Q310.09375 63.74479 311.17188 62.58854Q312.25 61.43229 313.96875 61.43229Q315.625 61.43229 316.67188 62.572914Q317.73438 63.697914 317.73438 65.74479Q317.73438 65.86979 317.73438 66.11979L311.54688 66.11979Q311.625 67.49479 312.3125 68.229164Q313.01562 68.947914 314.04688 68.947914Q314.82812 68.947914 315.375 68.541664Q315.92188 68.135414 316.23438 67.24479ZM311.625 64.96354L316.25 64.96354Q316.15625 63.916664 315.71875 63.40104Q315.04688 62.58854 313.98438 62.58854Q313.01562 62.58854 312.34375 63.24479Q311.6875 63.885414 311.625 64.96354ZM319.54688 69.916664L319.54688 61.61979L320.8125 61.61979L320.8125 62.86979Q321.29688 61.99479 321.70312 61.71354Q322.10938 61.43229 322.60938 61.43229Q323.3125 61.43229 324.04688 61.885414L323.5625 63.18229Q323.04688 62.885414 322.53125 62.885414Q322.07812 62.885414 321.70312 63.166664Q321.34375 63.43229 321.1875 63.93229Q320.95312 64.68229 320.95312 65.572914L320.95312 69.916664L319.54688 69.916664ZM336.90625 65.90104L338.42188 66.27604Q337.95312 68.15104 336.70312 69.135414Q335.46875 70.11979 333.6875 70.11979Q331.82812 70.11979 330.67188 69.36979Q329.51562 68.604164 328.90625 67.18229Q328.29688 65.74479 328.29688 64.104164Q328.29688 62.30729 328.98438 60.979164Q329.67188 59.65104 330.92188 58.96354Q332.1875 58.260414 333.70312 58.260414Q335.42188 58.260414 336.59375 59.135414Q337.76562 60.010414 338.23438 61.604164L336.73438 61.947914Q336.34375 60.697914 335.57812 60.135414Q334.82812 59.55729 333.67188 59.55729Q332.35938 59.55729 331.46875 60.197914Q330.57812 60.822914 330.21875 61.90104Q329.85938 62.96354 329.85938 64.08854Q329.85938 65.55729 330.28125 66.65104Q330.71875 67.729164 331.60938 68.27604Q332.51562 68.80729 333.5625 68.80729Q334.82812 68.80729 335.70312 68.072914Q336.59375 67.33854 336.90625 65.90104ZM340.03125 65.760414Q340.03125 63.46354 341.3125 62.354164Q342.39062 61.43229 343.92188 61.43229Q345.64062 61.43229 346.71875 62.55729Q347.8125 63.666664 347.8125 65.65104Q347.8125 67.24479 347.32812 68.166664Q346.84375 69.08854 345.92188 69.604164Q345.01562 70.104164 343.92188 70.104164Q342.1875 70.104164 341.10938 68.99479Q340.03125 67.86979 340.03125 65.760414ZM341.48438 65.760414Q341.48438 67.354164 342.17188 68.15104Q342.875 68.947914 343.92188 68.947914Q344.96875 68.947914 345.65625 68.15104Q346.35938 67.354164 346.35938 65.71354Q346.35938 64.18229 345.65625 63.385414Q344.96875 62.58854 343.92188 62.58854Q342.875 62.58854 342.17188 63.385414Q341.48438 64.166664 341.48438 65.760414ZM349.5625 69.916664L349.5625 61.61979L350.8125 61.61979L350.8125 62.77604Q351.20312 62.166664 351.84375 61.80729Q352.5 61.43229 353.32812 61.43229Q354.25 61.43229 354.84375 61.822914Q355.4375 62.197914 355.67188 62.885414Q356.65625 61.43229 358.23438 61.43229Q359.46875 61.43229 360.125 62.11979Q360.79688 62.791664 360.79688 64.21354L360.79688 69.916664L359.40625 69.916664L359.40625 64.68229Q359.40625 63.83854 359.26562 63.479164Q359.125 63.104164 358.76562 62.885414Q358.40625 62.65104 357.92188 62.65104Q357.04688 62.65104 356.46875 63.229164Q355.89062 63.80729 355.89062 65.08854L355.89062 69.916664L354.48438 69.916664L354.48438 64.52604Q354.48438 63.58854 354.14062 63.11979Q353.79688 62.65104 353.01562 62.65104Q352.42188 62.65104 351.92188 62.96354Q351.42188 63.27604 351.1875 63.885414Q350.96875 64.479164 350.96875 65.604164L350.96875 69.916664L349.5625 69.916664ZM362.5625 73.104164L362.5625 61.61979L363.84375 61.61979L363.84375 62.697914Q364.29688 62.05729 364.85938 61.74479Q365.4375 61.43229 366.25 61.43229Q367.3125 61.43229 368.125 61.979164Q368.9375 62.52604 369.34375 63.52604Q369.76562 64.510414 369.76562 65.697914Q369.76562 66.979164 369.29688 67.99479Q368.84375 69.010414 367.96875 69.55729Q367.10938 70.104164 366.14062 70.104164Q365.4375 70.104164 364.875 69.80729Q364.32812 69.510414 363.96875 69.05729L363.96875 73.104164L362.5625 73.104164ZM363.82812 65.80729Q363.82812 67.416664 364.46875 68.18229Q365.125 68.947914 366.04688 68.947914Q366.98438 68.947914 367.65625 68.15104Q368.32812 67.354164 368.32812 65.697914Q368.32812 64.104164 367.67188 63.322914Q367.01562 62.52604 366.10938 62.52604Q365.21875 62.52604 364.51562 63.36979Q363.82812 64.21354 363.82812 65.80729ZM371.54688 69.916664L371.54688 61.61979L372.8125 61.61979L372.8125 62.86979Q373.29688 61.99479 373.70312 61.71354Q374.10938 61.43229 374.60938 61.43229Q375.3125 61.43229 376.04688 61.885414L375.5625 63.18229Q375.04688 62.885414 374.53125 62.885414Q374.07812 62.885414 373.70312 63.166664Q373.34375 63.43229 373.1875 63.93229Q372.95312 64.68229 372.95312 65.572914L372.95312 69.916664L371.54688 69.916664ZM382.23438 67.24479L383.6875 67.416664Q383.34375 68.697914 382.40625 69.40104Q381.48438 70.104164 380.04688 70.104164Q378.21875 70.104164 377.15625 68.979164Q376.09375 67.854164 376.09375 65.83854Q376.09375 63.74479 377.17188 62.58854Q378.25 61.43229 379.96875 61.43229Q381.625 61.43229 382.67188 62.572914Q383.73438 63.697914 383.73438 65.74479Q383.73438 65.86979 383.73438 66.11979L377.54688 66.11979Q377.625 67.49479 378.3125 68.229164Q379.01562 68.947914 380.04688 68.947914Q380.82812 68.947914 381.375 68.541664Q381.92188 68.135414 382.23438 67.24479ZM377.625 64.96354L382.25 64.96354Q382.15625 63.916664 381.71875 63.40104Q381.04688 62.58854 379.98438 62.58854Q379.01562 62.58854 378.34375 63.24479Q377.6875 63.885414 377.625 64.96354ZM385.0 67.43229L386.39062 67.21354Q386.5 68.05729 387.03125 68.510414Q387.57812 68.947914 388.53125 68.947914Q389.5 68.947914 389.96875 68.55729Q390.4375 68.15104 390.4375 67.61979Q390.4375 67.15104 390.03125 66.86979Q389.73438 66.68229 388.59375 66.40104Q387.04688 66.010414 386.4375 65.729164Q385.84375 65.43229 385.53125 64.93229Q385.23438 64.43229 385.23438 63.822914Q385.23438 63.260414 385.48438 62.791664Q385.73438 62.322914 386.17188 62.010414Q386.5 61.760414 387.0625 61.604164Q387.64062 61.43229 388.28125 61.43229Q389.26562 61.43229 390.0 61.71354Q390.73438 61.99479 391.07812 62.479164Q391.4375 62.947914 391.57812 63.760414L390.20312 63.947914Q390.10938 63.30729 389.65625 62.947914Q389.20312 62.58854 388.39062 62.58854Q387.42188 62.58854 387.0 62.916664Q386.59375 63.229164 386.59375 63.65104Q386.59375 63.93229 386.76562 64.15104Q386.9375 64.36979 387.29688 64.52604Q387.51562 64.604164 388.54688 64.885414Q390.03125 65.27604 390.625 65.541664Q391.21875 65.791664 391.54688 66.27604Q391.89062 66.760414 391.89062 67.479164Q391.89062 68.18229 391.46875 68.80729Q391.0625 69.416664 390.28125 69.760414Q389.51562 70.104164 388.54688 70.104164Q386.92188 70.104164 386.07812 69.43229Q385.23438 68.760414 385.0 67.43229ZM393.0 67.43229L394.39062 67.21354Q394.5 68.05729 395.03125 68.510414Q395.57812 68.947914 396.53125 68.947914Q397.5 68.947914 397.96875 68.55729Q398.4375 68.15104 398.4375 67.61979Q398.4375 67.15104 398.03125 66.86979Q397.73438 66.68229 396.59375 66.40104Q395.04688 66.010414 394.4375 65.729164Q393.84375 65.43229 393.53125 64.93229Q393.23438 64.43229 393.23438 63.822914Q393.23438 63.260414 393.48438 62.791664Q393.73438 62.322914 394.17188 62.010414Q394.5 61.760414 395.0625 61.604164Q395.64062 61.43229 396.28125 61.43229Q397.26562 61.43229 398.0 61.71354Q398.73438 61.99479 399.07812 62.479164Q399.4375 62.947914 399.57812 63.760414L398.20312 63.947914Q398.10938 63.30729 397.65625 62.947914Q397.20312 62.58854 396.39062 62.58854Q395.42188 62.58854 395.0 62.916664Q394.59375 63.229164 394.59375 63.65104Q394.59375 63.93229 394.76562 64.15104Q394.9375 64.36979 395.29688 64.52604Q395.51562 64.604164 396.54688 64.885414Q398.03125 65.27604 398.625 65.541664Q399.21875 65.791664 399.54688 66.27604Q399.89062 66.760414 399.89062 67.479164Q399.89062 68.18229 399.46875 68.80729Q399.0625 69.416664 398.28125 69.760414Q397.51562 70.104164 396.54688 70.104164Q394.92188 70.104164 394.07812 69.43229Q393.23438 68.760414 393.0 67.43229ZM401.5625 60.072914L401.5625 58.46354L402.96875 58.46354L402.96875 60.072914L401.5625 60.072914ZM401.5625 69.916664L401.5625 61.61979L402.96875 61.61979L402.96875 69.916664L401.5625 69.916664ZM405.03125 65.760414Q405.03125 63.46354 406.3125 62.354164Q407.39062 61.43229 408.92188 61.43229Q410.64062 61.43229 411.71875 62.55729Q412.8125 63.666664 412.8125 65.65104Q412.8125 67.24479 412.32812 68.166664Q411.84375 69.08854 410.92188 69.604164Q410.01562 70.104164 408.92188 70.104164Q407.1875 70.104164 406.10938 68.99479Q405.03125 67.86979 405.03125 65.760414ZM406.48438 65.760414Q406.48438 67.354164 407.17188 68.15104Q407.875 68.947914 408.92188 68.947914Q409.96875 68.947914 410.65625 68.15104Q411.35938 67.354164 411.35938 65.71354Q411.35938 64.18229 410.65625 63.385414Q409.96875 62.58854 408.92188 62.58854Q407.875 62.58854 407.17188 63.385414Q406.48438 64.166664 406.48438 65.760414ZM414.5625 69.916664L414.5625 61.61979L415.82812 61.61979L415.82812 62.791664Q416.73438 61.43229 418.46875 61.43229Q419.21875 61.43229 419.84375 61.697914Q420.46875 61.96354 420.78125 62.40104Q421.09375 62.83854 421.21875 63.447914Q421.29688 63.83854 421.29688 64.80729L421.29688 69.916664L419.89062 69.916664L419.89062 64.86979Q419.89062 64.010414 419.71875 63.58854Q419.5625 63.15104 419.14062 62.90104Q418.73438 62.65104 418.17188 62.65104Q417.26562 62.65104 416.60938 63.229164Q415.96875 63.791664 415.96875 65.385414L415.96875 69.916664L414.5625 69.916664Z" fill-rule="nonzero"/><path fill="#757575" d="M24.190624 37.55L18.64375 23.2375L20.690624 23.2375L24.409374 33.628124Q24.8625 34.878124 25.159374 35.971874Q25.4875 34.8 25.940624 33.628124L29.8 23.2375L31.7375 23.2375L26.128124 37.55L24.190624 37.55ZM35.08125 29.784374Q33.9875 29.378124 33.45625 28.64375Q32.940624 27.89375 32.940624 26.8625Q32.940624 25.3 34.065624 24.2375Q35.190624 23.175 37.05 23.175Q38.925 23.175 40.065624 24.26875Q41.20625 25.346874 41.20625 26.909374Q41.20625 27.909374 40.675 28.64375Q40.159374 29.378124 39.096874 29.784374Q40.425 30.221874 41.1125 31.175Q41.8 32.128124 41.8 33.45625Q41.8 35.3 40.4875 36.55Q39.190624 37.8 37.08125 37.8Q34.95625 37.8 33.659374 36.55Q32.3625 35.284374 32.3625 33.409374Q32.3625 32.01875 33.065624 31.08125Q33.784374 30.128124 35.08125 29.784374ZM34.7375 26.8Q34.7375 27.815624 35.39375 28.471874Q36.05 29.1125 37.08125 29.1125Q38.096874 29.1125 38.753124 28.471874Q39.409374 27.83125 39.409374 26.909374Q39.409374 25.940624 38.7375 25.284374Q38.065624 24.6125 37.065624 24.6125Q36.065624 24.6125 35.39375 25.26875Q34.7375 25.909374 34.7375 26.8ZM34.175 33.425Q34.175 34.175 34.51875 34.878124Q34.878124 35.58125 35.58125 35.971874Q36.284374 36.346874 37.096874 36.346874Q38.3625 36.346874 39.175 35.534374Q40.003124 34.721874 40.003124 33.471874Q40.003124 32.20625 39.159374 31.378124Q38.315624 30.55 37.034374 30.55Q35.8 30.55 34.9875 31.378124Q34.175 32.190624 34.175 33.425ZM49.8625 37.55L49.8625 23.2375L51.628124 23.2375L51.628124 28.3625Q52.8625 26.940624 54.7375 26.940624Q55.878124 26.940624 56.721874 27.39375Q57.58125 27.846874 57.940624 28.659374Q58.315624 29.45625 58.315624 30.971874L58.315624 37.55L56.565624 37.55L56.565624 30.971874Q56.565624 29.659374 55.9875 29.065624Q55.409374 28.45625 54.378124 28.45625Q53.596874 28.45625 52.89375 28.8625Q52.20625 29.26875 51.909374 29.971874Q51.628124 30.659374 51.628124 31.878124L51.628124 37.55L49.8625 37.55ZM67.97188 34.20625L69.78438 34.440624Q69.3625 36.01875 68.19063 36.909374Q67.03438 37.784374 65.22188 37.784374Q62.95625 37.784374 61.6125 36.39375Q60.284374 34.9875 60.284374 32.45625Q60.284374 29.83125 61.628124 28.39375Q62.971874 26.940624 65.12813 26.940624Q67.20625 26.940624 68.51875 28.3625Q69.84688 29.76875 69.84688 32.346874Q69.84688 32.503124 69.83125 32.815624L62.096874 32.815624Q62.190624 34.51875 63.065624 35.425Q63.940624 36.33125 65.2375 36.33125Q66.20625 36.33125 66.87813 35.83125Q67.56563 35.315624 67.97188 34.20625ZM62.190624 31.3625L67.9875 31.3625Q67.87813 30.065624 67.33125 29.409374Q66.4875 28.39375 65.14375 28.39375Q63.940624 28.39375 63.1125 29.20625Q62.284374 30.003124 62.190624 31.3625ZM78.64375 36.26875Q77.65938 37.096874 76.75313 37.440624Q75.84688 37.784374 74.81563 37.784374Q73.1125 37.784374 72.19063 36.95625Q71.26875 36.1125 71.26875 34.815624Q71.26875 34.05 71.6125 33.425Q71.97188 32.8 72.53438 32.425Q73.09688 32.034374 73.8 31.83125Q74.31563 31.70625 75.3625 31.565624Q77.4875 31.315624 78.4875 30.971874Q78.50313 30.6125 78.50313 30.503124Q78.50313 29.440624 78.00313 28.9875Q77.33125 28.39375 76.00313 28.39375Q74.75313 28.39375 74.15938 28.83125Q73.58125 29.26875 73.3 30.378124L71.58125 30.14375Q71.81563 29.034374 72.34688 28.3625Q72.87813 27.675 73.89375 27.315624Q74.90938 26.940624 76.25313 26.940624Q77.58125 26.940624 78.40938 27.253124Q79.2375 27.565624 79.62813 28.05Q80.01875 28.51875 80.175 29.2375Q80.26875 29.690624 80.26875 30.8625L80.26875 33.20625Q80.26875 35.659374 80.37813 36.315624Q80.4875 36.95625 80.83125 37.55L78.9875 37.55Q78.72188 37.003124 78.64375 36.26875ZM78.4875 32.346874Q77.53438 32.7375 75.6125 33.003124Q74.53438 33.159374 74.08125 33.3625Q73.64375 33.55 73.39375 33.925Q73.14375 34.3 73.14375 34.76875Q73.14375 35.471874 73.675 35.940624Q74.20625 36.409374 75.2375 36.409374Q76.25313 36.409374 77.03438 35.971874Q77.83125 35.51875 78.20625 34.753124Q78.4875 34.14375 78.4875 32.9875L78.4875 32.346874ZM82.8625 41.51875L82.8625 27.175L84.47188 27.175L84.47188 28.51875Q85.03438 27.7375 85.7375 27.346874Q86.45625 26.940624 87.47188 26.940624Q88.8 26.940624 89.81563 27.628124Q90.83125 28.315624 91.34688 29.565624Q91.87813 30.8 91.87813 32.284374Q91.87813 33.878124 91.3 35.159374Q90.7375 36.425 89.64375 37.1125Q88.55 37.784374 87.34688 37.784374Q86.47188 37.784374 85.76875 37.409374Q85.08125 37.034374 84.62813 36.471874L84.62813 41.51875L82.8625 41.51875ZM84.45625 32.425Q84.45625 34.425 85.26875 35.378124Q86.08125 36.33125 87.2375 36.33125Q88.40938 36.33125 89.2375 35.346874Q90.08125 34.3625 90.08125 32.26875Q90.08125 30.3 89.25313 29.315624Q88.44063 28.315624 87.31563 28.315624Q86.19063 28.315624 85.31563 29.378124Q84.45625 30.425 84.45625 32.425ZM99.8625 37.55L99.8625 27.175L101.44063 27.175L101.44063 28.628124Q101.925 27.878124 102.7375 27.409374Q103.55 26.940624 104.58125 26.940624Q105.7375 26.940624 106.47188 27.425Q107.20625 27.89375 107.51875 28.753124Q108.75313 26.940624 110.72188 26.940624Q112.26875 26.940624 113.09688 27.8Q113.925 28.659374 113.925 30.425L113.925 37.55L112.175 37.55L112.175 31.01875Q112.175 29.95625 112.00313 29.503124Q111.83125 29.034374 111.37813 28.753124Q110.94063 28.471874 110.33125 28.471874Q109.2375 28.471874 108.50313 29.20625Q107.78438 29.925 107.78438 31.51875L107.78438 37.55L106.03438 37.55L106.03438 30.815624Q106.03438 29.64375 105.59688 29.065624Q105.175 28.471874 104.19063 28.471874Q103.45625 28.471874 102.81563 28.8625Q102.19063 29.253124 101.90938 30.003124Q101.62813 30.753124 101.62813 32.175L101.62813 37.55L99.8625 37.55ZM123.97188 34.20625L125.78438 34.440624Q125.3625 36.01875 124.19063 36.909374Q123.03438 37.784374 121.22188 37.784374Q118.95625 37.784374 117.6125 36.39375Q116.28438 34.9875 116.28438 32.45625Q116.28438 29.83125 117.62813 28.39375Q118.97188 26.940624 121.12813 26.940624Q123.20625 26.940624 124.51875 28.3625Q125.84688 29.76875 125.84688 32.346874Q125.84688 32.503124 125.83125 32.815624L118.09688 32.815624Q118.19063 34.51875 119.06563 35.425Q119.94063 36.33125 121.2375 36.33125Q122.20625 36.33125 122.87813 35.83125Q123.56563 35.315624 123.97188 34.20625ZM118.19063 31.3625L123.9875 31.3625Q123.87813 30.065624 123.33125 29.409374Q122.4875 28.39375 121.14375 28.39375Q119.94063 28.39375 119.1125 29.20625Q118.28438 30.003124 118.19063 31.3625ZM127.8625 37.55L127.8625 27.175L129.44063 27.175L129.44063 28.628124Q129.925 27.878124 130.7375 27.409374Q131.55 26.940624 132.58125 26.940624Q133.7375 26.940624 134.47188 27.425Q135.20625 27.89375 135.51875 28.753124Q136.75313 26.940624 138.72188 26.940624Q140.26875 26.940624 141.09688 27.8Q141.925 28.659374 141.925 30.425L141.925 37.55L140.175 37.55L140.175 31.01875Q140.175 29.95625 140.00313 29.503124Q139.83125 29.034374 139.37813 28.753124Q138.94063 28.471874 138.33125 28.471874Q137.2375 28.471874 136.50313 29.20625Q135.78438 29.925 135.78438 31.51875L135.78438 37.55L134.03438 37.55L134.03438 30.815624Q134.03438 29.64375 133.59688 29.065624Q133.175 28.471874 132.19063 28.471874Q131.45625 28.471874 130.81563 28.8625Q130.19063 29.253124 129.90938 30.003124Q129.62813 30.753124 129.62813 32.175L129.62813 37.55L127.8625 37.55ZM144.22188 32.3625Q144.22188 29.4875 145.81563 28.096874Q147.15938 26.940624 149.08125 26.940624Q151.22188 26.940624 152.56563 28.346874Q153.925 29.753124 153.925 32.221874Q153.925 34.221874 153.33125 35.378124Q152.7375 36.51875 151.58125 37.159374Q150.44063 37.784374 149.08125 37.784374Q146.89375 37.784374 145.55 36.39375Q144.22188 34.9875 144.22188 32.3625ZM146.01875 32.3625Q146.01875 34.3625 146.87813 35.346874Q147.75313 36.33125 149.08125 36.33125Q150.39375 36.33125 151.25313 35.346874Q152.12813 34.346874 152.12813 32.3Q152.12813 30.378124 151.25313 29.39375Q150.37813 28.39375 149.08125 28.39375Q147.75313 28.39375 146.87813 29.39375Q146.01875 30.378124 146.01875 32.3625ZM155.84688 37.55L155.84688 27.175L157.425 27.175L157.425 28.753124Q158.03438 27.64375 158.55 27.3Q159.06563 26.940624 159.675 26.940624Q160.56563 26.940624 161.4875 27.503124L160.87813 29.14375Q160.2375 28.753124 159.59688 28.753124Q159.01875 28.753124 158.55 29.1125Q158.09688 29.45625 157.89375 30.065624Q157.6125 31.003124 157.6125 32.1125L157.6125 37.55L155.84688 37.55ZM162.78438 41.55L162.59688 39.89375Q163.175 40.05 163.59688 40.05Q164.19063 40.05 164.53438 39.846874Q164.89375 39.659374 165.1125 39.315624Q165.28438 39.05 165.65938 38.003124Q165.70625 37.846874 165.81563 37.565624L161.87813 27.175L163.76875 27.175L165.925 33.190624Q166.34688 34.33125 166.675 35.58125Q166.9875 34.378124 167.39375 33.221874L169.6125 27.175L171.37813 27.175L167.425 37.721874Q166.8 39.440624 166.44063 40.08125Q165.97188 40.95625 165.3625 41.346874Q164.76875 41.753124 163.925 41.753124Q163.40938 41.753124 162.78438 41.55Z" fill-rule="nonzero"/></svg>