<svg viewBox="0 0 16380 7440" xmlns="http://www.w3.org/2000/svg"><path d="m10633 1518-3-29-47 4 3 29zm316 760 1 16 33-3c-1-10 3-26 10-46l-3-29c-14 1-28 22-41 62zm-1233 957c-2-27-86-132-252-317-3-34 54-85 171-152l334-291c75-95 119-249 132-463l-4-49c-13-148-120-267-323-358-120-81-336-126-648-134-258 22-595 114-1010 277-114 82-244 164-390 246l2 25c9-1 23-6 39-17 17-2 27 6 28 22l25-13 12-1 1 11c1 13-89 84-271 211l14 26-12 1-30-11c1 9-12 15-37 17l1 11 29 36c-9 1-23-3-42-10-42 4-83 26-124 68l17-74c61-263 103-496 125-698l-3-13c-42-27-83-65-121-113v-53l-3-11-12 3c-132 198-386 536-763 1014-287 340-435 529-444 567-117 121-173 194-167 219-31 20-44 40-39 62-9 2-15-1-17-10a341 341 0 0 1 -223 156l-104 24c-14 3-21 13-20 30l3 13 39-9 3 11-88 34-156 36-82 5c-12 12 65-1 35 6l-102 24c-62 14-96 9-102-16l-12 3c2 11 3 19 1 26l-6-25-82 19c-6-38-117-176-332-414-4-46 72-113 227-200l438-385c98-126 156-328 175-606l-6-65c-17-196-159-354-426-476-158-107-442-164-852-173-340 29-784 150-1330 361a5083 5083 0 0 1 -513 324l3 34c13-1 30-8 51-20 22-2 34 8 36 28l34-19 17-1 1 16c1 16-118 109-359 279l19 30-17 1-37-13c1 10-16 17-51 20l2 18 40 44c-13 1-31-3-54-11-78 7-154 63-229 169l19 30c65-60 103-90 114-91l4 49c-11 1-28 8-51 20l41 62c79-85 166-158 261-219 47 12 72 27 73 43l36-3c258-191 513-329 766-414l3 34c-47 70-79 106-96 108 2 24 10 45 25 63 4 43-111 333-344 869-529 1246-973 2168-1334 2764 1 12 8 28 21 48 89-21 145-43 169-64l19-2 3 34 33-3 34-19c1 10 12 15 35 13l3 34c3 33-16 83-56 152-36 41-75 127-116 258l1 16 33-3c144-161 253-319 328-473 420-123 740-244 962-363 223-19 393-78 509-175l-2-18-84 25-19 2-2-18c164-25 277-61 340-111 319-246 560-420 723-523 335-246 553-486 652-719l56-13c47-2 73-3 80-5-2-9 2-14 11-16 75-8 39 5 87-6l126-29c-8 2-11 6-9 14l19-12-10-2 21-5-10 6c14 2 29 1 46-3l9 37-573 911-127 159-62 208 12-3 62-26-20 81 6 24 17 21c-8 2-11 7-9 16l3 13 26-6c38-33 54-63 48-90 41 7 68 10 82 6l3 13c-25 6-38 26-40 60l3 13 14-3c208-227 718-1004 1127-1531-13-57 200-136 640-238l14-3c16 69-18 236-102 501-54 160-80 248-76 262-70 213-103 328-99 346l-156 511a4665 4665 0 0 0 -232 827c9-2 23-1 43 4l22-19c2 9 8 12 17 10l-9-37 68-2c20-5 37-30 51-76-3-69 11-106 42-114 42-164 68-246 77-249 39-163 68-256 87-279 59-212 102-321 130-328l6 26-43 111c-75 333-151 596-228 789l22 96 14-3c186-400 454-1192 803-2376 10-104 60-185 149-242l-20-21-3-11c40-9 68-25 84-47-2-9-37-22-105-40l174-746c38-34 60-52 67-52l3 38c-9 1-23 6-39 17l33 47c60-65 125-121 196-168 36 10 54 22 56 34l26-2c198-145 392-249 583-312l2 25c-35 53-59 80-72 81 2 18 7 34 16 48 3 33-83 253-259 661-402 945-739 1644-1013 2098 1 9 7 21 18 37 67-16 110-33 127-49l12-1 2 25 28-2 25-13c1 7 10 10 27 9l2 27c2 24-12 62-43 114-29 31-59 96-91 195l1 13 26-2c109-122 192-242 249-360 319-94 562-185 730-275 171-15 300-59 388-133l-1-13-65 19-14 1-1-13c124-18 211-46 258-83 242-186 425-319 549-397 386-281 566-551 544-810zm-66 17 9 101c-12 25-25 38-37 39l-15-172c28 10 42 20 43 32zm-7572-814-17 1-3-31 69-6 1 16c-11 1-28 7-50 20zm-337 3371c-40-18-76-25-107-22l-4-49c-2-19 9-32 33-37 22-2 35 14 37 46 58-71 90-107 96-108l37 15c-12 100-43 151-92 155zm3601-3767c-17 2-51-51-100-156l-3-31c32-3 65 49 100 156zm-48-373-14 33-489-204c326 11 494 68 503 171zm-2065 1773-69 6-3-31 69-6zm-56-1065 17-1 4 49c-16 1-37 25-63 71l-3-34c31-37 47-65 45-85zm-145 342 6 65-17 1-6-65zm-76 122 33-3c-3 54-18 83-45 85l-17 1c21-36 31-64 29-83zm-57 170 19-2 1 16-31 52-33 3-1-16c33-3 48-20 45-53zm-56 153-10 82-17 1-7-81zm-561 1595c-22 112-46 169-71 171l-1-16c-6-55 18-107 72-155zm-103 223 1 16c2 22-8 35-30 36l-1-16c-2-19 8-31 30-36zm-30 463 52-5 2 18c-13 1-30 8-51 20l-33 3c-2-17 9-30 30-36zm1480-457c-292 144-464 242-515 293-316 110-473 178-470 205a5152 5152 0 0 0 -555 244c-21 2-51-6-91-24-5-57 21-103 76-140 49-4 96 3 141 22 52-27 143-57 272-89l-3-34-104 9c13-18 113-65 301-141l52-5 1 16c-89 8-138 34-149 81 2 21 14 30 36 28 67-42 100-67 99-74 127-24 478-208 1053-551l3 31c1 15-48 57-147 129zm-882 290c84-7 156-41 216-100 24-2 37 7 38 28-41 4-120 38-235 104l-17 1zm1423-1093-441 349c-328 215-504 323-529 325-522 287-847 436-973 447l-19 2c16-59 248-534 698-1428 198-17 510-109 935-277l104-9c215-19 376 23 482 123l6 65c-80 230-168 364-263 403zm-862-485 71-6 1 16-71 6zm997-169 52-5c48 23 73 43 75 61l1 16c-46 4-89-20-128-72zm141-803c-46 55-172 149-378 281-68 6-321 104-759 296-22-10-45-14-70-12l-3-31c-5-63 23-142 85-238 34-180 71-283 112-308l365-821c-4-51 74-90 234-117l52-5 4 47 293-41c290-25 441 34 453 175l33-3-7-83 36-3c85 47 131 104 137 171 4 46-21 103-74 171-22 2-35-14-37-46l-36 3-8 100c-147 220-254 333-320 339-60 83-97 124-112 125zm224 575c-30-20-54-29-72-28l-4-49 33-3 73 43c3 23-7 35-30 37zm232 275c32 13 51 27 55 40l-16 4 1 1-10 2-24 19zm22 138-3-13 42-10 3 13zm101 113c43-7 64-10 144-28l3 13-152 35zm148 63c-64 6-50-2-152 21l-3-13 127-41 61-14 6 24c-27 6-7 6-39 23zm135-32c-15 4-27-3-34-20l39-9c17-4 28 3 32 20zm366-394-3-13 63-15 6 24zm391 2398c4-18 5-31 3-40l14-3c17-4 27 2 31 18l3 13zm274-2295-28-5c-45 18-83 31-114 38l-26 6c-15 4-27-2-33-18l183-42 60-28 20 23c-29 6-50 15-62 26zm141-45-3-13c9-2 21-9 34-22l130-30 3 13c-69 17-124 34-164 52zm20-263c-9 2-21 10-36 22-2-9-20-9-54-1-6-25 90-60 289-106l28-6 6 24zm350-378c-14 159-70 249-169 272l-3-13-88 34-39 9c-20 5-38 4-54-1l-8-35c-3-13 124-189 382-527l30 5c11 46-6 131-51 256zm619-530-12 1-2-25 52-5 1 13c-9 2-22 7-39 16zm-255 2561c-30-14-57-20-80-18l-3-38c-1-13 7-22 24-27 17-2 27 10 29 36 43-55 67-83 72-83l27 11c-10 76-33 116-69 119zm2734-2860c-13 1-38-39-77-120l-2-25c25-2 51 37 77 117zm-36-286-12 26-370-155c247 8 375 51 382 129zm-1569 1347-52 5-2-25 52-4zm-43-809 14-1 3 38c-13 1-29 19-48 54l-2-25c23-29 34-51 33-66zm-109 260 4 49-14 1-4-49zm-59 93 26-2c-3 42-14 64-33 66l-14 1c15-28 22-50 21-65zm-42 128 12-1 1 13-23 40-26 2-1-13c27-2 39-16 37-41zm-42 116-9 64-12 1-5-63zm-427 1213c-17 84-35 127-54 129l-1-11c-3-42 15-82 55-118zm-79 169 1 11c2 18-6 28-24 29l-1-13c-1-13 7-22 24-27zm-22 352 40-3 1 13c-9 1-23 6-39 15l-26 2c-1-14 7-23 24-27zm1123-347c-220 109-351 183-392 221-240 84-359 136-357 157-213 85-353 146-419 185-16 1-39-5-69-19-4-43 16-78 58-104 38-3 74 2 107 16 40-20 109-42 207-67l-2-25-82 6c10-14 87-50 230-108l40-3 1 11c-68 6-106 26-114 62 1 16 11 24 28 22 50-33 74-52 74-58 96-17 362-157 799-419l2 25c1 11-36 43-111 98zm-670 220c65-6 120-31 166-75 17-2 27 6 28 22-30 3-89 28-178 76l-14 1zm1082-831-333 268c-249 163-384 245-405 247-396 218-642 331-739 339l-14 1c12-45 189-406 531-1084 149-13 385-84 709-212l81-7c163-14 285 18 365 95l4 49c-61 172-127 273-199 304zm-654-368 52-5 1 13-52 5zm757-129 40-3c37 18 56 34 57 47l1 11c-35 3-68-15-98-55zm105-609c-35 42-130 114-285 214-52 5-244 79-576 223-16-6-34-8-53-7l-2-25c-4-48 17-108 63-181 26-138 55-215 85-233l279-624c-3-37 56-67 176-90l40-3 3 38 222-33c220-19 335 25 344 133l26-2-5-60 26-2c64 35 98 77 102 127 3 36-15 80-53 131-17 2-27-10-29-36l-26 2-8 75c-111 169-192 256-243 260-45 61-73 92-86 93zm117 416-3-38 26-2 56 34c1 16-7 25-24 27-24-15-42-22-55-21zm-4655 2429-26 6-22 19c4 16 14 22 31 18s24-14 20-30zm-99-197 3 13c17-4 24-14 20-30l-3-13c-16 4-23 14-20 30zm704-1675 30-7-6-26-30 7zm9074 762c-304 68-342 56-406 61l2 25 28-2 15-1-4-3 33-13c301-33 336-21 333-55zm-1637 217 2 25h4l-2-25zm-188-659-27-9c-22 59-33 94-32 104l1 11c21-1 40-37 58-106zm1887 437 2 25 44 8-2-25zm-2069 253-68-8-12 26 1 13 405-34-2-25zm-184-887-1-13-14 1-25 16 14 24c19-2 28-11 26-28zm2445 450 19-2c11-1 16-10 15-26l-11-24c-69 6-101 9-157 40l-1-13-83 8c-2-25-9-38-20-37l-43 4c-50 4-74 2-99 21-1-9-4-13-9-13l-48 4-28 16c-1-9-4-13-9-13l-17 15-1-13-67-5-16 1 2 25 34 9 32-2c11 7 23 9 37 8l28-14 1 11c-157 39-156 32-264 50-12-8-21-12-27-11l-2 2c-12-1-19-9-20-22l56-7c4 0 7 4 38 10 45-22 47-31 71-33l-2-25c-154 30-92 10-285 27l-9 1-2-25c248-30 165-13 250-37 1 9 4 13 9 13 10-10 21-15 34-17l17-1c87-7 116 10 288-38l1 11 28-14 26-2c-2-25 36-29 49-30l-2-27c-302 61-381 44-465 68l-1-11c-79 14-82 8-102 9-6 1-15 6-25 16-1-9-4-13-10-13l-5 1-256 42c-1-7-4-11-10-10-133 28-97 33-275 49-8 1-19 5-33 14-1-7-5-11-14-10l-109 9-73 18c-1-7-5-11-14-10-41 11-77 18-106 20h-2c-18 2 9-5-5-11l-22 13c-32 3-15-2-125-1-193 24-172 27-193 28l-72-5c1 7-3 12-11 12-82-11-124-24-125-39 11-78 30-118 57-120l14-1-12 26 14-1c26-14 38-27 37-39l-2-27-26 2-2-25c-2-19 1-36 8-50l59-95 2 25 28-2-2-25-16-23c21-18 37-28 50-29l-1-13-38 3-3-38c76-158 112-250 110-276l27 11c17-1 25-11 24-29l-26 2-1-11c-2-19 2-37 10-53 41-43 60-86 56-131 8-1 12 3 13 12 35-20 62-73 82-161 62-112 150-336 265-671 220-592 211-655 242-795l-26 2c2 18-2 35-10 51-18-7-32-11-42-10l-1-11c-4-51 17-112 65-184l12-1 22 86 26-2c-1-6 6-40 20-103-1-13-11-21-31-22l-25 16c-2-18-1-65 2-140l-13 1c-22-22-33-40-34-55l-143 14c-1-10-6-25-16-44-1-13 31-26 97-39l29 11 27-16c1 9 6 13 16 12l27-16c1 9 6 13 16 12l13-1-2-29c-20 2-73 2-157-1l-27 18-1-16-1143 95c-12 1-59 0-142-2 1 11-9 17-29 19l-29-13-98 25c-23 2-62 1-116-5-15 12-33 19-55 21l287-18c-15 12-38 19-70 22-22 2-41-1-57-10-22 10-93 26-212 50l-29-11-468 72c-18-9-39-12-63-10-25 2-67 11-125 27l-226 94 17 28c11-1 27-7 46-18l80 7-10 75c-74 33-117 82-129 144-111 49-166 84-166 105l1 13 17-1 30-16 35 42 5 58c2 18-185 411-559 1179-324 740-494 1145-510 1218-111 31-175 76-194 136 2 19 35 32 99 37l3 29-29 48 5 58c3 30 84 53 243 69-1-10 4-16 15-17 3 36-7 106-30 210l17-1c66-90 97-152 94-186l14-1c16-1 33 17 53 56-20 8-90 167-210 478l17 28 17-1c147-372 239-578 277-617l1001-102 30-18c1 10 7 15 18 14l31-3 30-18c1 10 7 15 18 14l359-31c95-8 140-37 136-86-1-13 55-28 168-44 11-1 27 2 49 9-1-9 56-18 170-28 3-60 22-92 56-95l-3-29c-32 3-68 11-110 25-75-4-123-10-143-17-20 11-35 17-46 18l-250 8-30 16c-1-9-7-13-18-12l-14 1-32 16c-1-9-27-16-79-23l-32 19-62 5-1-16c322-35 481-79 477-131 21-2 32 8 34 29l94-24-3-29-771 21c1 10-4 16-15 17l-94-8c-24 2-44 9-60 21l-35-13c-97 8-169 20-217 35-66-5-139-4-220 3l-173 15-80-9c-4-51 95-302 299-752 59-152 113-247 165-283 11-1 27 3 49 12l123-42 63 10c106-9 229-39 370-91 35-3 61-1 80 7l94-22 280-24c119-10 248-36 388-79l-3-29c-52 5-79-4-81-25-3-39-41-55-114-49l-3-29 77-22 202-17-3-29c-8 1-49 0-125-3l-3-31 78-7c21-2 30-12 28-32-105 3-158-2-159-16-732 36-1099 43-1101 20-11 1-26 8-46 20l-19-30c194-412 308-620 341-623 1 16-7 42-25 77l1 13 31-3c77-184 142-279 196-283 230-20-32-35 460-112 20 9 34 13 44 12 193-39 462-80 807-122l-2-29-184 17-2-29c22-2 40-9 55-21l1 16c10-1 24-8 42-20 32-3 56 0 73 9 64-17 116-27 154-31l115-11c28-18 41-34 40-49l-1-13c-29 3-62 1-101-6-1-16 7-27 26-32l214-20 98-25c1 11 6 15 14 15 10-1 24-8 42-20l16 2c-13 27-28 66-43 117l-28 2c-2-19-7-36-16-51l-14 1c-260 724-376 1061-616 1617-44 142-81 221-113 238 1 16 11 24 28 22 6 70-10 139-49 207-111 320-185 495-223 527l25 151c1 16-7 25-24 27l-26 2c-4-42-19-62-46-59l-14 1c-34 53-60 114-77 185l26-2c35-23 51-50 48-81l52-5 30 11c-24 38-35 68-33 91l14 24-34 80 1 13c30-3 63 7 98 28 24-2 50-13 79-32 30-3 142-4 335-4l97-33c118-1 137 2 239-7l42-4 22-15 1 13c107-9 114-2 198 8l1 13-59 5 2 25c18-2 34-7 47-18 15-1 24 7 25 25-24 2-51 8-81 18l-26-9c-41 11-32 14-60 16l-41-8c1 7-3 12-10 12 1 16 10 24 25 23l42-4 219-19 83-18c1 7 4 11 11 10l40-15 75-6c58-5 57-9 183-29-1-8 2-11 8-12l1 11c205-35 218-37 251-48l3 6c51-12 22-9 36-19 1 9 4 13 9 13l36-3-2-27-73-1-1-2-8 2h-10v2c-49 10-50 3-82 6l-183 10-1-13 102-14 37-3 21-15 1 13c144-12 195 24 861-118 36-3 33-33 56-95-12 1-24-2-35-8-55 21-84 11-190 28-9 1-16-7-19-23l-1-11 102 3c19-2 56-5 111-36 0 9-20 14-8 13zm-4924 79-47 4c-2-19 23-91 75-214l31-3c1 29-18 100-59 213zm57-228-1-13c-1-16 9-27 31-32l1 13c1 19-9 30-31 32zm625 483 1 13-78 7-1-13zm-94-8c1 16-23 34-75 52l-96-7-31 3-3-29zm632-2909-47 4-1-16c-1-16 8-27 28-32l17-1 32 13c1 19-8 30-29 32zm715-140 15-1 2 29-43 4c-1-16 7-27 26-32zm-180 63-71-8-1-13c93-8 124-18 181-34 1 11 11 15 29 13l2 29-28 3c-22 2-41-1-57-10-17 11-35 18-55 20zm89 259-1-13 115-11 1 13zm123-100-1-16 56-5 1 16zm13-196-15 1 13-31 128-12 1 16c-33 3-76 12-127 26zm65 276-2-29 56-5c19-2 29 7 30 27zm339-462-72 20-13 1c-34 3-78 2-130-3 93-6 182-13 215-18zm-77 320 1 13-99 9-1-13zm162 77c-1-12-20-20-59-24l-99 28-76 3c-17-12-26-20-27-26l88 5 198-32 101 4 1 16c-50 5-92 14-127 26zm1019-263 23 1c35-34 74-61 119-80a703 703 0 0 1 -169 351l-56-34c47-119 75-198 83-238zm-172 295 14-1c-19 36-36 55-50 56l-3-38c9 0 22-6 39-17zm-111 265c27-108 53-169 77-185l1 13c-14 100-36 153-65 157l5 63c-24 34-35 60-34 80l-14 1-8-87c16-2 29-16 38-42zm-43 144c1 15-9 50-29 104l-14 1-3-38c19-44 35-66 46-67zm-807 2342-1-11 26-2 3 38c-14 1-24-7-28-25zm1153 30c-1-9-5-13-14-12l-65 6-1-13h6l154-13 1 13c-45 2-72 9-81 19zm-77-32c6 3 3 6 0 8-3-1-7-4 0-8zm8-180-86 7-1-13 78-7 68-17c1 8 5 11 14 10 81-14 73-18 112-21 13-1 21 7 22 23zm301-26c-48-5-51-9-85-6l-1-11 77-7 1 11c-8 1 21 3 8 13zm6-14-1-11 42-4 1 11zm93-8-1-11c7-1 17-6 30-16 21-2 32 12 34 28zm119-15-1-13 51-4 1 13zm71-6c-1-15 5-24 18-26l17 22c-1-7 2-11 8-12l13 24zm-755 326-2-25-8 1 2 25zm1757-455c8-5 12-10-7-13-9 10 10 13-10 14l1 9 11-8-11 9v1l-21 27 42-15h5l-2-25zm73 57-8 1 2 25 59-5c-1-16-40-21-53-21zm-91-44 1-1v-1z"/><path d="m10904 2198 1 16 33-3c-1-10 3-26 10-46l-3-29c-14 1-28 22-41 62zm-316-760-3-29-47 4 3 29zm-917 1717c-2-27-86-132-252-317-3-34 54-85 171-152l334-291c75-95 119-249 132-463l-4-49c-13-148-120-267-323-358-120-81-336-126-648-134-258 22-595 114-1010 277-114 82-244 164-390 246l2 25c9-1 23-6 39-17 17-2 27 6 28 22l25-13 12-1 1 11c1 13-89 84-271 211l14 26-12 1-30-11c1 9-12 15-37 17l1 11 29 36c-9 1-23-3-42-10-42 4-83 26-124 68l17-74c61-263 103-496 125-698l-3-13c-42-27-83-65-121-113v-53l-3-11-12 3c-132 198-386 536-763 1014-287 340-435 529-444 567-117 121-173 194-167 219-31 20-44 40-39 62-9 2-15-1-17-10a341 341 0 0 1 -223 156l-104 24c-14 3-21 13-20 30l3 13 39-9 3 11-88 34-156 36-82 5c-12 12 65-1 35 6l-102 24c-62 14-96 9-102-16l-12 3c2 11 3 19 1 26l-6-25-82 19c-6-38-117-176-332-414-4-46 72-113 227-200l438-385c98-126 156-328 175-606l-6-65c-17-196-159-354-426-476-158-107-442-164-852-173-340 29-784 150-1330 361a5083 5083 0 0 1 -513 324l3 34c13-1 30-8 51-20 22-2 34 8 36 28l34-19 17-1 1 16c1 16-118 109-359 279l19 30-17 1-37-13c1 10-16 17-51 20l2 18 40 44c-13 1-31-3-54-11-78 7-154 63-229 169l19 30c65-60 103-90 114-91l4 49c-11 1-28 8-51 20l41 62c79-85 166-158 261-219 47 12 72 27 73 43l36-3c258-191 513-329 766-414l3 34c-47 70-79 106-96 108 2 24 10 45 25 63 4 43-111 333-344 869-529 1246-973 2168-1334 2764 1 12 8 28 21 48 89-21 145-43 169-64l19-2 3 34 33-3 34-19c1 10 12 15 35 13l3 34c3 33-16 83-56 152-36 41-75 127-116 258l1 16 33-3c144-161 253-319 328-473 420-123 740-244 962-363 223-19 393-78 509-175l-2-18-84 25-19 2-2-18c164-25 277-61 340-111 319-246 560-420 723-523 335-246 553-486 652-719l56-13c47-2 73-3 80-5-2-9 2-14 11-16 75-8 39 5 87-6l126-29 21-5-10 6c14 2 29 1 46-3l9 37-573 911-127 159-62 208 12-3 62-26-20 81 6 24 17 21c-8 2-11 7-9 16l3 13 26-6c38-33 54-63 48-90 41 7 68 10 82 6l3 13c-25 6-38 26-40 60l3 13 14-3c208-227 718-1004 1127-1531-13-57 200-136 640-238l14-3c16 69-18 236-102 501-54 160-80 248-76 262-70 213-103 328-99 346l-156 511a4665 4665 0 0 0 -232 827c9-2 23-1 43 4l22-19c2 9 8 12 17 10l-9-37 68-2c20-5 37-30 51-76-3-69 11-106 42-114 42-164 68-246 77-249 39-163 68-256 87-279 59-212 102-321 130-328l6 26-43 111c-75 333-151 596-228 789l22 96 14-3c186-400 454-1192 803-2376 10-104 60-185 149-242l-20-21-3-11c40-9 68-25 84-47-2-9-37-22-105-40l174-746c38-34 60-52 67-52l3 38c-9 1-23 6-39 17l33 47c60-65 125-121 196-168 36 10 54 22 56 34l26-2c198-145 392-249 583-312l2 25c-35 53-59 80-72 81 2 18 7 34 16 48 3 33-83 253-259 661-402 945-739 1644-1013 2098 1 9 7 21 18 37 67-16 110-33 127-49l12-1 2 25 28-2 25-13c1 7 10 10 27 9l2 27c2 24-12 62-43 114-29 31-59 96-91 195l1 13 26-2c109-122 192-242 249-360 319-94 562-185 730-275 171-15 300-59 388-133l-1-13-65 19-14 1-1-13c124-18 211-46 258-83 242-186 425-319 549-397 386-281 566-551 544-810zm-66 17 9 101c-12 25-25 38-37 39l-15-172c28 10 42 20 43 32zm-7572-814-17 1-3-31 69-6 1 16c-11 1-28 7-50 20zm-337 3371c-40-18-76-25-107-22l-4-49c-2-19 9-32 33-37 22-2 35 14 37 46 58-71 90-107 96-108l37 15c-12 100-43 151-92 155zm3601-3767c-17 2-51-51-100-156l-3-31c32-3 65 49 100 156zm-48-373-14 33-489-204c326 11 494 68 503 171zm-2065 1773-69 6-3-31 69-6zm-56-1065 17-1 4 49c-16 1-37 25-63 71l-3-34c31-37 47-65 45-85zm-145 342 6 65-17 1-6-65zm-76 122 33-3c-3 54-18 83-45 85l-17 1c21-36 31-64 29-83zm-57 170 19-2 1 16-31 52-33 3-1-16c33-3 48-20 45-53zm-56 153-10 82-17 1-7-81zm-561 1595c-22 112-46 169-71 171l-1-16c-6-55 18-107 72-155zm-103 223 1 16c2 22-8 35-30 36l-1-16c-2-19 8-31 30-36zm-30 463 52-5 2 18c-13 1-30 8-51 20l-33 3c-2-17 9-30 30-36zm1480-457c-292 144-464 242-515 293-316 110-473 178-470 205a5152 5152 0 0 0 -555 244c-21 2-51-6-91-24-5-57 21-103 76-140 49-4 96 3 141 22 52-27 143-57 272-89l-3-34-104 9c13-18 113-65 301-141l52-5 1 16c-89 8-138 34-149 81 2 21 14 30 36 28 67-42 100-67 99-74 127-24 478-208 1053-551l3 31c1 15-48 57-147 129zm-882 290c84-7 156-41 216-100 24-2 37 7 38 28-41 4-120 38-235 104l-17 1zm1423-1093-441 350c-328 215-504 323-530 325-522 287-847 436-973 447l-19 2c16-59 248-534 698-1428 198-17 510-109 935-277l104-9c215-19 376 23 482 123l6 65c-79 229-167 363-262 402zm-862-485 71-6 1 16-71 6zm997-169 52-5c48 23 73 43 75 61l1 16c-46 4-89-20-128-72zm141-803c-46 55-172 149-378 281-68 6-321 104-759 296-22-10-45-14-70-12l-3-31c-5-63 23-142 85-238 34-180 71-283 112-308l365-821c-4-51 74-90 234-117l52-5 4 47 293-41c290-25 441 34 453 175l33-3-7-83 36-3c85 47 131 104 137 171 4 46-21 103-74 171-22 2-35-14-37-46l-36 3-8 100c-147 220-254 333-320 339-60 83-97 124-112 125zm224 575c-30-20-54-29-72-28l-4-49 33-3 73 43c3 23-7 35-30 37zm232 275c32 13 51 27 55 40l-16 4 1 1-10 2-24 19zm22 138-3-13 42-10 3 13zm101 113c43-7 64-10 144-28l3 13-152 35zm148 63c-64 6-50-2-152 21l-3-13 128-41 61-14 6 24c-28 6-8 6-40 23zm135-32c-15 4-27-3-34-20l39-9c17-4 28 3 32 20zm366-394-3-13 63-15 6 24zm391 2398c4-18 5-31 3-40l14-3c17-4 27 2 31 18l3 13zm274-2295-28-5c-45 18-83 31-114 38l-26 6c-15 4-27-2-33-18l183-42 60-28 20 23c-29 6-50 15-62 26zm141-45-3-13c9-2 21-9 34-22l130-30 3 13c-69 17-124 34-164 52zm20-263c-9 2-21 10-36 22-2-9-20-9-54-1-6-25 90-60 289-106l28-6 6 24zm350-378c-14 159-70 249-169 272l-3-13-88 34-39 9c-20 5-38 4-54-1l-8-35c-3-13 124-189 382-527l30 5c11 46-6 131-51 256zm619-530-12 1-2-25 52-5 1 13c-9 2-22 7-39 16zm-255 2561c-30-14-57-20-80-18l-3-38c-1-13 7-22 24-27 17-2 27 10 29 36 43-55 67-83 72-83l27 11c-10 76-33 116-69 119zm2734-2860c-13 1-38-39-77-120l-2-25c25-2 51 37 77 117zm-36-286-12 26-370-155c247 8 375 51 382 129zm-1569 1347-52 5-2-25 52-5zm-43-809 14-1 3 38c-13 1-29 19-48 54l-2-25c23-29 34-51 33-66zm-109 260 4 49-14 1-4-49zm-59 93 26-2c-3 42-14 64-33 66l-14 1c15-28 22-50 21-65zm-42 128 12-1 1 13-23 40-26 2-1-13c27-2 39-16 37-41zm-42 116-9 64-12 1-5-63zm-427 1213c-17 84-35 127-54 129l-1-11c-3-42 15-82 55-118zm-79 169 1 11c2 18-6 28-24 29l-1-13c-1-13 7-22 24-27zm-22 352 40-3 1 13c-9 1-23 6-39 15l-26 2c-1-14 7-23 24-27zm1123-347c-220 109-351 183-392 221-240 84-359 136-357 157-213 85-353 146-419 185-16 1-39-5-69-19-4-43 16-78 58-104 38-3 74 2 107 16 40-20 109-42 207-67l-2-25-81 7c10-14 87-50 230-108l40-3 1 11c-68 6-106 26-114 62 1 16 11 24 28 22 50-33 74-52 74-58 96-17 362-157 799-419l2 25c0 10-37 42-112 97zm-670 220c65-6 120-31 166-75 17-1 27 6 28 22-30 3-89 28-178 76l-14 1zm1082-831-333 268c-249 163-384 245-405 247-396 218-642 331-739 339l-14 1c12-45 189-406 531-1084 149-13 385-84 709-212l81-7c163-14 285 18 365 95l4 49c-61 172-127 273-199 304zm-654-368 52-5 1 13-52 5zm757-129 40-3c37 18 56 34 57 47l1 11c-35 3-68-15-98-55zm105-609c-35 42-130 114-285 214-52 5-244 79-576 223-16-6-34-8-53-7l-2-25c-4-48 17-108 63-181 26-138 55-215 85-233l279-624c-3-37 56-67 176-90l40-3 3 38 222-33c220-19 335 25 344 133l26-2-5-60 26-2c64 35 98 77 102 127 3 36-15 80-53 131-17 2-27-10-29-36l-26 2-8 75c-111 169-192 256-243 260-45 61-73 92-86 93zm117 416-3-38 26-2 56 34c1 16-7 25-24 27-24-15-42-22-55-21zm-4655 2429-26 6-22 19c4 16 14 22 31 18s24-14 20-30zm-99-197 3 13c17-4 24-14 20-30l-3-13c-16 4-23 14-20 30zm708-1330 19-12-10-2c-7 2-10 7-9 14zm-4-345 30-7-6-26-30 7zm7067 1010-68-8-12 26 1 13 405-34-2-25zm370-31 2 25h4l-2-25zm1699-222 2 25 44 8-2-25zm-62 5c-304 68-342 56-406 61l2 25 28-2 15-1-4-3 33-13c301-33 336-21 333-55zm-1825-442-27-9c-22 59-33 94-32 104l1 11c21-1 40-37 58-106zm-366-197-1-13-14 1-25 16 14 24c19-2 28-11 26-28zm795 822-2-25-8 1 2 25zm1650-372 19-2c11-1 16-10 15-26l-11-24c-69 6-101 9-157 40l-1-13-83 8c-2-25-9-38-20-37l-43 4c-50 4-74 2-99 21-1-9-4-13-9-13l-48 4-28 16c-1-9-4-13-9-13l-17 15-1-13-67-5-16 1 2 25 34 9 32-2c11 7 23 9 37 8l28-14 1 11c-157 39-156 32-264 50-12-8-21-12-27-11l-2 2c-12-1-19-9-20-22l56-7c4 0 7 4 38 10 45-22 47-31 71-33l-2-25c-154 30-92 10-285 27l-9 1-2-25c248-30 165-13 250-37 1 9 4 13 9 13 10-10 21-15 34-17l17-1c87-7 116 10 288-38l1 11 28-14 26-2c-2-25 36-29 49-30l-2-27c-302 61-381 44-465 68l-1-11c-79 14-82 8-102 9-6 1-15 6-25 16-1-9-4-13-10-13l-5 1-256 42c-1-7-4-11-10-10-133 28-97 33-275 49-8 1-19 5-33 14-1-7-5-11-14-10l-109 9-73 18c-1-7-5-11-14-10-41 11-77 18-106 20h-2c-18 2 9-5-5-11l-22 13c-32 3-15-2-125-1-193 24-172 27-193 28l-72-5c1 7-3 12-11 12-82-11-124-24-125-39 11-78 30-118 57-120l14-1-12 26 14-1c26-14 38-27 37-39l-2-27-26 2-2-25c-2-19 1-36 8-50l59-95 2 25 28-2-2-25-16-23c21-18 37-28 50-29l-1-13-38 3-3-38c76-158 112-250 110-276l27 11c17-1 25-11 24-29l-26 2-1-11c-2-19 2-37 10-53 41-43 60-86 56-131 8-1 12 3 13 12 35-20 62-73 82-161 62-112 150-336 265-671 220-592 211-655 242-795l-26 2c2 18-2 35-10 51-18-7-32-11-42-10l-1-11c-4-51 17-112 65-184l12-1 22 86 26-2c-1-6 6-40 20-103-1-13-11-21-31-22l-25 16c-2-18-1-65 2-140l-13 1c-22-22-33-40-34-55l-143 14c-1-10-6-25-16-44-1-13 31-26 97-39l29 11 27-16c1 9 6 13 16 12l27-16c1 9 6 13 16 12l13-1-2-29c-20 2-73 2-157-1l-27 18-1-16-1143 95c-12 1-59 0-142-2 1 11-9 17-29 19l-29-13-98 25c-23 2-62 1-116-5-15 12-33 19-55 21l287-18c-15 12-38 19-70 22-22 2-41-1-57-10-22 10-93 26-212 50l-29-11-468 72c-18-9-39-12-63-10-25 2-67 11-125 27l-226 94 17 28c11-1 27-7 46-18l80 7-10 75c-74 33-117 82-129 144-111 49-166 84-166 105l1 13 17-1 30-16 35 42 5 58c2 18-185 411-559 1179-324 740-494 1145-510 1218-111 31-175 76-194 136 2 19 35 32 99 37l3 29-29 48 5 58c3 30 84 53 243 69-1-10 4-16 15-17 3 36-7 106-30 210l17-1c66-90 97-152 94-186l14-1c16-1 33 17 53 56-20 8-90 167-210 478l17 28 17-1c147-372 239-578 277-617l1001-102 30-18c1 10 7 15 18 14l31-3 30-18c1 10 7 15 18 14l359-31c95-8 140-37 136-86-1-13 55-28 168-44 11-1 27 2 49 9-1-9 56-18 170-28 3-60 22-92 56-95l-3-29c-32 3-68 11-110 25-75-4-123-10-143-17-20 11-35 17-46 18l-250 8-30 16c-1-9-7-13-18-12l-14 1-32 16c-1-9-27-16-79-23l-32 19-62 5-1-16c322-35 481-79 477-131 21-2 32 8 34 29l94-24-3-29-771 21c1 10-4 16-15 17l-94-8c-24 2-44 9-60 21l-35-13c-97 8-169 20-217 35-66-5-139-4-220 3l-173 15-80-9c-4-51 95-302 299-752 59-152 113-247 165-283 11-1 27 3 49 12l123-42 63 10c106-9 229-39 370-91 35-3 61-1 80 7l94-22 280-24c119-10 248-36 388-79l-3-29c-52 5-79-4-81-25-3-39-41-55-114-49l-3-29 77-22 202-17-3-29c-8 1-49 0-125-3l-3-31 78-7c21-2 30-12 28-32-105 3-158-2-159-16-732 36-1099 43-1101 20-11 1-26 8-46 20l-19-30c194-412 308-620 341-623 1 16-7 42-24 77l1 13 31-3c77-184 142-279 196-283 230-20-32-35 460-112 20 9 34 13 44 12 193-39 462-80 807-122l-2-29-184 17-2-29c22-2 40-9 55-21l1 16c10-1 24-8 42-20 32-3 56 0 73 9 64-17 116-27 154-31l115-11c28-18 41-34 40-49l-1-13c-29 3-62 1-101-6-1-16 7-27 26-32l214-20 98-25c1 11 6 15 14 15 10-1 24-8 42-20l16 2c-13 27-28 66-43 117l-28 2c-2-19-7-36-16-51l-14 1c-260 724-376 1061-616 1617-44 142-81 221-113 238 1 16 11 24 28 22 6 70-10 139-49 207-111 320-185 495-223 527l25 151c1 16-7 25-24 27l-26 2c-4-42-19-62-46-59l-14 1c-34 53-60 114-77 185l26-2c35-23 51-50 48-81l52-5 30 11c-24 38-35 68-33 91l14 24-34 80 1 13c30-3 63 7 98 28 24-2 50-13 79-32 30-3 142-4 335-4l97-33c118-1 137 2 239-7l42-4 22-15 1 13c107-9 114-2 198 8l1 13-59 5 2 25c18-2 34-7 47-18 15-1 24 7 25 25-24 2-51 8-81 18l-26-9c-41 11-32 14-60 16l-41-8c1 7-3 12-10 12 1 16 10 24 25 23l42-4 219-19 83-18c1 7 4 11 11 10l40-15 75-6c58-5 57-9 183-29-1-8 2-11 8-12l1 11c205-35 218-37 251-48l3 6c51-12 22-9 36-19 1 9 4 13 9 13l36-3-2-27-73-1-1-2-8 2h-10v2c-49 10-50 3-82 6l-183 10-1-13 102-14 37-3 21-15 1 13c144-12 195 24 861-118 36-3 33-33 56-95-12 1-24-2-35-8-55 21-84 11-190 28-9 1-16-7-19-23l-1-11 102 3c19-2 56-5 111-36 0 9-21 14-9 13zm-4924 79-47 4c-2-19 23-91 75-214l31-3c1 29-18 100-59 213zm57-228-1-13c-1-16 9-27 31-32l1 13c1 19-9 30-31 32zm625 483 1 13-78 7-1-13zm-94-8c1 16-23 34-75 52l-96-7-31 3-3-29zm632-2909-47 4-1-16c-1-16 8-27 28-32l17-1 32 13c1 19-8 30-29 32zm715-140 15-1 2 29-43 4c-1-16 7-27 26-32zm-180 63-71-8-1-13c93-8 124-18 181-34 1 11 11 15 29 13l2 29-28 3c-22 2-41-1-57-10-17 11-35 18-55 20zm89 259-1-13 115-11 1 13zm123-100-1-16 56-5 1 16zm13-196-15 1 13-31 128-12 1 16c-33 3-76 12-127 26zm65 276-2-29 56-5c19-2 29 7 30 27zm339-462-72 20-13 1c-34 3-78 2-130-3 93-6 182-13 215-18zm-77 320 1 13-99 9-1-13zm162 77c-1-12-20-20-59-24l-99 28-76 3c-17-12-26-20-27-26l88 5 198-32 101 4 1 16c-50 5-92 14-127 26zm1019-263 23 1c35-34 74-61 119-80a703 703 0 0 1 -169 351l-56-34c47-119 75-198 83-238zm-172 295 14-1c-19 36-36 55-50 56l-3-38c9 0 22-6 39-17zm-111 265c27-108 53-169 77-185l1 13c-14 100-36 153-65 157l5 63c-24 34-35 60-34 80l-14 1-8-87c16-2 29-16 38-42zm-43 144c1 15-9 50-29 104l-14 1-3-38c19-44 35-66 46-67zm-807 2342-1-11 26-2 3 38c-14 1-24-7-28-25zm1153 30c-1-9-5-13-14-12l-65 6-1-13h6l154-13 1 13c-45 2-72 9-81 19zm-77-32c6 3 3 6 0 8-3-1-7-4 0-8zm8-180-86 7-1-13 78-7 68-17c1 8 5 11 14 10 81-14 73-18 112-21 13-1 21 7 22 23zm301-26c-48-5-51-9-85-6l-1-11 77-7 1 11c-8 1 21 3 8 13zm6-14-1-11 42-4 1 11zm93-8-1-11c7-1 17-6 30-16 21-2 32 12 34 28zm119-15-1-13 51-4 1 13zm71-6c-1-15 5-24 18-26l17 22c-1-7 2-11 8-12l13 24zm984-116 1-1v-1zm18-13c8-5 12-10-7-13-9 10 10 13-10 14l1 9 11-8-11 9v1l-21 27 42-15h5l-2-25zm73 57-8 1 2 25 59-5c-1-16-40-21-53-21z" fill="#f9dc3e"/></svg>