<svg xmlns="http://www.w3.org/2000/svg" xmlns:xlink="http://www.w3.org/1999/xlink" viewBox="0 0 1040 1170"><defs><linearGradient id="a" gradientUnits="userSpaceOnUse"><stop offset="0" stop-color="#3f873f"/><stop offset=".33" stop-color="#3f8b3d"/><stop offset=".64" stop-color="#3e9638"/><stop offset=".93" stop-color="#3da92e"/><stop offset="1" stop-color="#3dae2b"/></linearGradient><linearGradient id="d" x1="687.02" x2="306.37" y1="237.15" y2="1013.67" xlink:href="#a"/><linearGradient id="f" x1="451.58" x2="1519.65" y1="643.53" y2="-145.62" gradientUnits="userSpaceOnUse"><stop offset=".14" stop-color="#3f873f"/><stop offset=".4" stop-color="#52a044"/><stop offset=".71" stop-color="#64b749"/><stop offset=".91" stop-color="#6abf4b"/></linearGradient><linearGradient id="b" x1="28.62" x2="1002.79" gradientUnits="userSpaceOnUse"><stop offset=".09" stop-color="#6abf4b"/><stop offset=".29" stop-color="#64b749"/><stop offset=".6" stop-color="#52a044"/><stop offset=".86" stop-color="#3f873f"/></linearGradient><linearGradient id="g" y1="-31.66" y2="-31.66" xlink:href="#b"/><linearGradient id="h" y1="586.51" y2="586.51" xlink:href="#b"/><linearGradient id="i" y1="864.62" y2="864.62" xlink:href="#b"/><linearGradient id="j" y1="990.32" y2="990.32" xlink:href="#b"/><linearGradient id="l" x1="1144.72" x2="543.91" y1="214.12" y2="1439.77" xlink:href="#a"/><path id="c" d="M541 56c-16-9-35-9-51 0L69 299c-16 9-25 26-25 44v487c0 18 10 35 25 44l421 243c16 9 35 9 51 0l421-243c16-9 25-26 25-44V343c0-18-10-35-25-44z"/><path id="k" d="M964 874l-422 243c-6 3-12 5-19 6l8 15 469-270v-6l-12-20c-3 13-12 25-24 32z"/><clipPath id="e"><use xlink:href="#c"/></clipPath></defs><use fill="url(#d)" xlink:href="#c"/><g clip-path="url(#e)"><path fill="url(#f)" d="M963 299L541 56c-4-2-9-4-13-5L53 862c4 5 9 9 14 12l423 243c12 7 26 9 39 5l445-814c-3-3-7-6-11-9z"/><path fill="url(#g)" d="M476-33l-6 3h8z"/><path fill="url(#h)" d="M964 874c12-7 21-19 25-32L525 50c-12-2-25 0-36 6L70 298l453 826c6-1 13-3 19-6z"/><path fill="url(#i)" d="M1003 866l-3-5v7z"/><use fill="url(#j)" xlink:href="#k"/><use fill="url(#l)" xlink:href="#k"/></g></svg>