<svg fill="none" height="371" stroke-linecap="square" stroke-miterlimit="10" width="600" xmlns="http://www.w3.org/2000/svg" xmlns:xlink="http://www.w3.org/1999/xlink"><clipPath id="a"><path d="m85.55 26.05h393.64v242.4h-393.64z"/></clipPath><path d="m0 0h600v371h-600z" fill="#fff"/><path d="m85.5 268.5h394" stroke="#333" stroke-linecap="butt"/><path d="m85.5 187.5h394m-394-81h394m-394-80h394" stroke="#ccc" stroke-linecap="butt"/><path clip-path="url(#a)" d="m146 268h-28v-7a2 2 0 0 1 2-2h24a2 2 0 0 1 2 2z"/><path clip-path="url(#a)" d="m146 268h-28v-7a2 2 0 0 1 2-2h24a2 2 0 0 1 2 2z" fill="#4285f4"/><path clip-path="url(#a)" d="m236 268h-28v-16a2 2 0 0 1 2-2h24a2 2 0 0 1 2 2z"/><path clip-path="url(#a)" d="m236 268h-28v-16a2 2 0 0 1 2-2h24a2 2 0 0 1 2 2z" fill="#4285f4"/><path clip-path="url(#a)" d="m327 268h-28v-38a2 2 0 0 1 2-2h24a2 2 0 0 1 2 2z"/><path clip-path="url(#a)" d="m327 268h-28v-38a2 2 0 0 1 2-2h24a2 2 0 0 1 2 2z" fill="#4285f4"/><path clip-path="url(#a)" d="m417 268h-28v-35a2 2 0 0 1 2-2h24a2 2 0 0 1 2 2z"/><path clip-path="url(#a)" d="m417 268h-28v-35a2 2 0 0 1 2-2h24a2 2 0 0 1 2 2z" fill="#4285f4"/><path clip-path="url(#a)" d="m175 268h-28v-9a2 2 0 0 1 2-2h24a2 2 0 0 1 2 2z"/><path clip-path="url(#a)" d="m175 268h-28v-9a2 2 0 0 1 2-2h24a2 2 0 0 1 2 2z" fill="#0f9d58"/><path clip-path="url(#a)" d="m265 268h-28v-41a2 2 0 0 1 2-2h24a2 2 0 0 1 2 2z"/><path clip-path="url(#a)" d="m265 268h-28v-41a2 2 0 0 1 2-2h24a2 2 0 0 1 2 2z" fill="#0f9d58"/><path clip-path="url(#a)" d="m356 268h-28v-199a2 2 0 0 1 2-2h24a2 2 0 0 1 2 2z"/><path clip-path="url(#a)" d="m356 268h-28v-199a2 2 0 0 1 2-2h24a2 2 0 0 1 2 2z" fill="#0f9d58"/><path clip-path="url(#a)" d="m446 268h-28v-216a2 2 0 0 1 2-2h24a2 2 0 0 1 2 2z"/><path clip-path="url(#a)" d="m446 268h-28v-216a2 2 0 0 1 2-2h24a2 2 0 0 1 2 2z" fill="#0f9d58"/><path d="m128.297 244.077h-5.594v-.781l2.953-3.281q.656-.75.906-1.203.25-.47.25-.97 0-.671-.406-1.093-.39-.437-1.078-.437-.797 0-1.25.468-.453.453-.453 1.282h-1.078q0-1.188.75-1.907.766-.734 2.031-.734 1.203 0 1.89.625.688.625.688 1.672 0 1.25-1.61 3l-2.28 2.469h4.28v.89zm2.984-4.797h.813q.781-.015 1.219-.406.437-.39.437-1.062 0-1.5-1.5-1.5-.703 0-1.125.406-.406.406-.406 1.062h-1.094q0-1.015.734-1.687.75-.672 1.891-.672 1.203 0 1.89.64.688.641.688 1.782 0 .562-.36 1.078-.359.516-.984.781.703.219 1.078.735.391.515.391 1.265 0 1.14-.75 1.828-.75.672-1.953.672-1.188 0-1.953-.656-.75-.656-.75-1.719h1.094q0 .672.437 1.078.438.407 1.188.407.78 0 1.187-.407.422-.422.422-1.187 0-.735-.453-1.125-.453-.406-1.328-.422h-.813v-.89zm11.016 4.797h-5.594v-.781l2.953-3.281q.656-.75.906-1.203.25-.47.25-.97 0-.671-.406-1.093-.39-.437-1.078-.437-.797 0-1.25.468-.453.453-.453 1.282h-1.078q0-1.188.75-1.907.766-.734 2.031-.734 1.203 0 1.89.625.688.625.688 1.672 0 1.25-1.61 3l-2.28 2.469h4.28v.89z" stroke="#fff" stroke-linecap="round" stroke-linejoin="round" stroke-width="3"/><path d="m128.297 244.077h-5.594v-.781l2.953-3.281q.656-.75.906-1.203.25-.47.25-.97 0-.671-.406-1.093-.39-.437-1.078-.437-.797 0-1.25.468-.453.453-.453 1.282h-1.078q0-1.188.75-1.907.766-.734 2.031-.734 1.203 0 1.89.625.688.625.688 1.672 0 1.25-1.61 3l-2.28 2.469h4.28v.89zm2.984-4.797h.813q.781-.015 1.219-.406.437-.39.437-1.062 0-1.5-1.5-1.5-.703 0-1.125.406-.406.406-.406 1.062h-1.094q0-1.015.734-1.687.75-.672 1.891-.672 1.203 0 1.89.64.688.641.688 1.782 0 .562-.36 1.078-.359.516-.984.781.703.219 1.078.735.391.515.391 1.265 0 1.14-.75 1.828-.75.672-1.953.672-1.188 0-1.953-.656-.75-.656-.75-1.719h1.094q0 .672.437 1.078.438.407 1.188.407.78 0 1.187-.407.422-.422.422-1.187 0-.735-.453-1.125-.453-.406-1.328-.422h-.813v-.89zm11.016 4.797h-5.594v-.781l2.953-3.281q.656-.75.906-1.203.25-.47.25-.97 0-.671-.406-1.093-.39-.437-1.078-.437-.797 0-1.25.468-.453.453-.453 1.282h-1.078q0-1.188.75-1.907.766-.734 2.031-.734 1.203 0 1.89.625.688.625.688 1.672 0 1.25-1.61 3l-2.28 2.469h4.28v.89z" fill="#4285f4"/><path d="m217.281 260.698h1.188v.875h-1.188v1.984h-1.078v-1.984h-3.89v-.641l3.812-5.906h1.156zm-3.734 0h2.656v-4.188l-.14.235zm10.422-5.672v.906h-.203q-1.266.031-2.016.766-.75.718-.875 2.03.688-.765 1.844-.765 1.11 0 1.781.781.672.782.672 2.032 0 1.312-.719 2.11-.719.796-1.937.796-1.22 0-1.985-.938-.75-.953-.75-2.437v-.406q0-2.36 1-3.61t2.985-1.265zm-1.422 3.844q-.563 0-1.031.328-.47.328-.657.843v.391q0 1.063.47 1.703.483.64 1.187.64.734 0 1.156-.53.422-.547.422-1.422 0-.875-.422-1.407-.422-.546-1.125-.546zm4.656.406.438-4.25h4.375v1h-3.453l-.266 2.328q.64-.375 1.437-.375 1.157 0 1.844.781.688.766.688 2.078 0 1.313-.72 2.078-.702.766-1.983.766-1.125 0-1.844-.625-.719-.64-.813-1.75h1.016q.11.734.531 1.11.422.374 1.11.374.75 0 1.187-.515.438-.516.438-1.422 0-.86-.47-1.375-.468-.516-1.25-.516-.702 0-1.109.297l-.28.235-.876-.22z" stroke="#4285f4" stroke-linecap="round" stroke-linejoin="round" stroke-width="3"/><path d="m217.281 260.698h1.188v.875h-1.188v1.984h-1.078v-1.984h-3.89v-.641l3.812-5.906h1.156zm-3.734 0h2.656v-4.188l-.14.235zm10.422-5.672v.906h-.203q-1.266.031-2.016.766-.75.718-.875 2.03.688-.765 1.844-.765 1.11 0 1.781.781.672.782.672 2.032 0 1.312-.719 2.11-.719.796-1.937.796-1.22 0-1.985-.938-.75-.953-.75-2.437v-.406q0-2.36 1-3.61t2.985-1.265zm-1.422 3.844q-.563 0-1.031.328-.47.328-.657.843v.391q0 1.063.47 1.703.483.64 1.187.64.734 0 1.156-.53.422-.547.422-1.422 0-.875-.422-1.407-.422-.546-1.125-.546zm4.656.406.438-4.25h4.375v1h-3.453l-.266 2.328q.64-.375 1.437-.375 1.157 0 1.844.781.688.766.688 2.078 0 1.313-.72 2.078-.702.766-1.983.766-1.125 0-1.844-.625-.719-.64-.813-1.75h1.016q.11.734.531 1.11.422.374 1.11.374.75 0 1.187-.515.438-.516.438-1.422 0-.86-.47-1.375-.468-.516-1.25-.516-.702 0-1.109.297l-.28.235-.876-.22z" fill="#fff"/><path d="m303.766 212.606h-1.079v-7.22l-2.187.798v-.985l3.11-1.172h.156zm8.796-3.641q0 1.906-.656 2.844-.64.922-2.031.922-1.36 0-2.016-.907-.656-.906-.687-2.718v-1.438q0-1.89.64-2.797.657-.922 2.047-.922 1.375 0 2.032.891.656.875.671 2.719zm-1.093-1.484q0-1.375-.39-2-.376-.641-1.22-.641-.828 0-1.218.64-.375.626-.375 1.922v1.735q0 1.375.39 2.047.406.656 1.219.656.797 0 1.188-.625.39-.625.406-1.953zm6.297 5.125h-1.079v-7.22l-2.187.798v-.985l3.11-1.172h.156zm7 0h-1.079v-7.22l-2.187.798v-.985l3.11-1.172h.156z" stroke="#fff" stroke-linecap="round" stroke-linejoin="round" stroke-width="3"/><path d="m303.766 212.606h-1.079v-7.22l-2.187.798v-.985l3.11-1.172h.156zm8.796-3.641q0 1.906-.656 2.844-.64.922-2.031.922-1.36 0-2.016-.907-.656-.906-.687-2.718v-1.438q0-1.89.64-2.797.657-.922 2.047-.922 1.375 0 2.032.891.656.875.671 2.719zm-1.093-1.484q0-1.375-.39-2-.376-.641-1.22-.641-.828 0-1.218.64-.375.626-.375 1.922v1.735q0 1.375.39 2.047.406.656 1.219.656.797 0 1.188-.625.39-.625.406-1.953zm6.297 5.125h-1.079v-7.22l-2.187.798v-.985l3.11-1.172h.156zm7 0h-1.079v-7.22l-2.187.798v-.985l3.11-1.172h.156z" fill="#4285f4"/><path d="m397.86 243.686q-.329.406-.813.656-.469.234-1.031.234-.735 0-1.282-.36-.546-.359-.843-1.015-.297-.672-.297-1.469 0-.843.312-1.53.328-.688.922-1.048.61-.375 1.406-.375 1.266 0 1.985.953.734.954.734 2.579v.312q0 2.5-.984 3.64-.985 1.141-2.969 1.173h-.219v-.907h.235q1.343-.03 2.062-.703.719-.672.781-2.14zm-1.673 0q.547 0 1-.329.47-.343.688-.828v-.437q0-1.063-.469-1.735-.469-.671-1.172-.671-.718 0-1.156.546-.422.547-.422 1.454 0 .875.406 1.437.422.563 1.125.563zm6.094-1.047h.813q.781-.016 1.219-.407.437-.39.437-1.062 0-1.5-1.5-1.5-.703 0-1.125.406-.406.406-.406 1.063h-1.094q0-1.016.734-1.688.75-.672 1.891-.672 1.203 0 1.89.641.688.64.688 1.781 0 .563-.36 1.078-.359.516-.984.782.704.218 1.079.734.39.516.39 1.266 0 1.14-.75 1.828-.75.672-1.953.672-1.188 0-1.953-.657-.75-.656-.75-1.718h1.094q0 .671.437 1.078.438.406 1.188.406.78 0 1.187-.406.422-.422.422-1.188 0-.734-.453-1.125-.453-.406-1.328-.422h-.813zm9.688-3.735v.907h-.203q-1.266.03-2.016.765-.75.719-.875 2.031.688-.765 1.844-.765 1.11 0 1.781.781.672.781.672 2.031 0 1.313-.719 2.11-.719.797-1.937.797-1.22 0-1.985-.938-.75-.953-.75-2.437v-.407q0-2.359 1-3.609t2.985-1.266zm-1.422 3.844q-.563 0-1.031.328-.47.328-.657.844v.39q0 1.063.47 1.704.483.64 1.187.64.734 0 1.156-.53.422-.548.422-1.423t-.422-1.406q-.422-.547-1.125-.547z" stroke="#4285f4" stroke-linecap="round" stroke-linejoin="round" stroke-width="3"/><path d="m397.86 243.686q-.329.406-.813.656-.469.234-1.031.234-.735 0-1.282-.36-.546-.359-.843-1.015-.297-.672-.297-1.469 0-.843.312-1.53.328-.688.922-1.048.61-.375 1.406-.375 1.266 0 1.985.953.734.954.734 2.579v.312q0 2.5-.984 3.64-.985 1.141-2.969 1.173h-.219v-.907h.235q1.343-.03 2.062-.703.719-.672.781-2.14zm-1.673 0q.547 0 1-.329.47-.343.688-.828v-.437q0-1.063-.469-1.735-.469-.671-1.172-.671-.718 0-1.156.546-.422.547-.422 1.454 0 .875.406 1.437.422.563 1.125.563zm6.094-1.047h.813q.781-.016 1.219-.407.437-.39.437-1.062 0-1.5-1.5-1.5-.703 0-1.125.406-.406.406-.406 1.063h-1.094q0-1.016.734-1.688.75-.672 1.891-.672 1.203 0 1.89.641.688.64.688 1.781 0 .563-.36 1.078-.359.516-.984.782.704.218 1.079.734.39.516.39 1.266 0 1.14-.75 1.828-.75.672-1.953.672-1.188 0-1.953-.657-.75-.656-.75-1.718h1.094q0 .671.437 1.078.438.406 1.188.406.78 0 1.187-.406.422-.422.422-1.188 0-.734-.453-1.125-.453-.406-1.328-.422h-.813zm9.688-3.735v.907h-.203q-1.266.03-2.016.765-.75.719-.875 2.031.688-.765 1.844-.765 1.11 0 1.781.781.672.781.672 2.031 0 1.313-.719 2.11-.719.797-1.937.797-1.22 0-1.985-.938-.75-.953-.75-2.437v-.407q0-2.359 1-3.609t2.985-1.266zm-1.422 3.844q-.563 0-1.031.328-.47.328-.657.844v.39q0 1.063.47 1.704.483.64 1.187.64.734 0 1.156-.53.422-.548.422-1.423t-.422-1.406q-.422-.547-1.125-.547z" fill="#fff"/><path d="m157.297 241.774h-5.594v-.78l2.953-3.282q.656-.75.906-1.203.25-.469.25-.969 0-.672-.406-1.094-.39-.437-1.078-.437-.797 0-1.25.469-.453.453-.453 1.28h-1.078q0-1.187.75-1.905.766-.735 2.031-.735 1.203 0 1.89.625.688.625.688 1.672 0 1.25-1.61 3l-2.28 2.469h4.28v.89zm6.594-6.312q0 .64-.344 1.14-.344.5-.906.782.656.281 1.047.844.39.546.39 1.25 0 1.093-.75 1.765-.734.656-1.953.656-1.234 0-1.984-.656-.735-.672-.735-1.765 0-.704.375-1.25.375-.563 1.047-.844-.562-.281-.89-.781-.329-.5-.329-1.141 0-1.078.688-1.703.687-.64 1.828-.64 1.125 0 1.813.64.703.625.703 1.703zm-.891 3.984q0-.718-.453-1.156-.453-.453-1.188-.453-.734 0-1.187.453-.438.438-.438 1.172 0 .719.438 1.14.437.407 1.203.407.75 0 1.188-.422.437-.422.437-1.14zm-1.625-5.437q-.64 0-1.047.406-.39.39-.39 1.078 0 .64.39 1.047.39.406 1.031.406.657 0 1.047-.406.39-.406.39-1.047 0-.656-.405-1.062-.407-.422-1.016-.422zm8.484 4.015q-.328.407-.812.657-.469.234-1.031.234-.735 0-1.282-.36-.547-.359-.843-1.015-.297-.672-.297-1.469 0-.843.312-1.531.328-.687.922-1.047.61-.375 1.406-.375 1.266 0 1.985.953.734.953.734 2.578v.313q0 2.5-.984 3.64-.985 1.141-2.969 1.172h-.219v-.906h.235q1.343-.031 2.062-.703.719-.672.781-2.14zm-1.672 0q.547 0 1-.328.47-.343.688-.828v-.437q0-1.063-.469-1.735-.469-.672-1.172-.672-.718 0-1.156.547-.422.547-.422 1.453 0 .875.406 1.438.422.562 1.125.562z" stroke="#fff" stroke-linecap="round" stroke-linejoin="round" stroke-width="3"/><path d="m157.297 241.774h-5.594v-.78l2.953-3.282q.656-.75.906-1.203.25-.469.25-.969 0-.672-.406-1.094-.39-.437-1.078-.437-.797 0-1.25.469-.453.453-.453 1.28h-1.078q0-1.187.75-1.905.766-.735 2.031-.735 1.203 0 1.89.625.688.625.688 1.672 0 1.25-1.61 3l-2.28 2.469h4.28v.89zm6.594-6.312q0 .64-.344 1.14-.344.5-.906.782.656.281 1.047.844.39.546.39 1.25 0 1.093-.75 1.765-.734.656-1.953.656-1.234 0-1.984-.656-.735-.672-.735-1.765 0-.704.375-1.25.375-.563 1.047-.844-.562-.281-.89-.781-.329-.5-.329-1.141 0-1.078.688-1.703.687-.64 1.828-.64 1.125 0 1.813.64.703.625.703 1.703zm-.891 3.984q0-.718-.453-1.156-.453-.453-1.188-.453-.734 0-1.187.453-.438.438-.438 1.172 0 .719.438 1.14.437.407 1.203.407.75 0 1.188-.422.437-.422.437-1.14zm-1.625-5.437q-.64 0-1.047.406-.39.39-.39 1.078 0 .64.39 1.047.39.406 1.031.406.657 0 1.047-.406.39-.406.39-1.047 0-.656-.405-1.062-.407-.422-1.016-.422zm8.484 4.015q-.328.407-.812.657-.469.234-1.031.234-.735 0-1.282-.36-.547-.359-.843-1.015-.297-.672-.297-1.469 0-.843.312-1.531.328-.687.922-1.047.61-.375 1.406-.375 1.266 0 1.985.953.734.953.734 2.578v.313q0 2.5-.984 3.64-.985 1.141-2.969 1.172h-.219v-.906h.235q1.343-.031 2.062-.703.719-.672.781-2.14zm-1.672 0q.547 0 1-.328.47-.343.688-.828v-.437q0-1.063-.469-1.735-.469-.672-1.172-.672-.718 0-1.156.547-.422.547-.422 1.453 0 .875.406 1.438.422.562 1.125.562z" fill="#0f9d58"/><path d="m241.766 210.303h-1.078v-7.219l-2.188.797v-.984l3.11-1.172h.156zm8.797-3.64q0 1.905-.657 2.843-.64.922-2.031.922-1.36 0-2.016-.906-.656-.907-.687-2.72v-1.437q0-1.89.64-2.797.657-.921 2.047-.921 1.375 0 2.032.89.656.875.672 2.719v1.406zm-1.094-1.485q0-1.375-.39-2-.376-.64-1.22-.64-.828 0-1.218.64-.375.625-.375 1.922v1.734q0 1.375.39 2.047.406.656 1.219.656.797 0 1.188-.625.39-.625.406-1.953zm7-3.406v.906h-.203q-1.266.031-2.016.765-.75.72-.875 2.032.688-.766 1.844-.766 1.11 0 1.781.781.672.782.672 2.032 0 1.312-.719 2.109-.719.797-1.937.797-1.22 0-1.985-.938-.75-.953-.75-2.437v-.406q0-2.36 1-3.61t2.985-1.265zm-1.422 3.843q-.563 0-1.031.328-.47.329-.657.844v.39q0 1.063.47 1.704.483.64 1.187.64.734 0 1.156-.53.422-.548.422-1.423t-.422-1.406q-.422-.547-1.125-.547zm9.344-1.625q0 .64-.344 1.14-.344.5-.906.782.656.281 1.046.844.391.547.391 1.25 0 1.094-.75 1.766-.734.656-1.953.656-1.234 0-1.984-.656-.735-.672-.735-1.766 0-.703.375-1.25.375-.563 1.047-.844-.562-.281-.89-.781-.329-.5-.329-1.14 0-1.079.688-1.704.687-.64 1.828-.64 1.125 0 1.813.64.703.625.703 1.703zm-.891 3.985q0-.72-.453-1.157-.453-.453-1.188-.453-.734 0-1.187.453-.438.438-.438 1.172 0 .719.438 1.14.437.407 1.203.407.75 0 1.188-.422.437-.422.437-1.14zm-1.625-5.438q-.64 0-1.047.406-.39.391-.39 1.079 0 .64.39 1.046.39.407 1.031.407.657 0 1.047-.407.39-.406.39-1.046 0-.657-.405-1.063-.407-.422-1.016-.422z" stroke="#fff" stroke-linecap="round" stroke-linejoin="round" stroke-width="3"/><path d="m241.766 210.303h-1.078v-7.219l-2.188.797v-.984l3.11-1.172h.156zm8.797-3.64q0 1.905-.657 2.843-.64.922-2.031.922-1.36 0-2.016-.906-.656-.907-.687-2.72v-1.437q0-1.89.64-2.797.657-.921 2.047-.921 1.375 0 2.032.89.656.875.672 2.719v1.406zm-1.094-1.485q0-1.375-.39-2-.376-.64-1.22-.64-.828 0-1.218.64-.375.625-.375 1.922v1.734q0 1.375.39 2.047.406.656 1.219.656.797 0 1.188-.625.39-.625.406-1.953zm7-3.406v.906h-.203q-1.266.031-2.016.765-.75.72-.875 2.032.688-.766 1.844-.766 1.11 0 1.781.781.672.782.672 2.032 0 1.312-.719 2.109-.719.797-1.937.797-1.22 0-1.985-.938-.75-.953-.75-2.437v-.406q0-2.36 1-3.61t2.985-1.265zm-1.422 3.843q-.563 0-1.031.328-.47.329-.657.844v.39q0 1.063.47 1.704.483.64 1.187.64.734 0 1.156-.53.422-.548.422-1.423t-.422-1.406q-.422-.547-1.125-.547zm9.344-1.625q0 .64-.344 1.14-.344.5-.906.782.656.281 1.046.844.391.547.391 1.25 0 1.094-.75 1.766-.734.656-1.953.656-1.234 0-1.984-.656-.735-.672-.735-1.766 0-.703.375-1.25.375-.563 1.047-.844-.562-.281-.89-.781-.329-.5-.329-1.14 0-1.079.688-1.704.687-.64 1.828-.64 1.125 0 1.813.64.703.625.703 1.703zm-.891 3.985q0-.72-.453-1.157-.453-.453-1.188-.453-.734 0-1.187.453-.438.438-.438 1.172 0 .719.438 1.14.437.407 1.203.407.75 0 1.188-.422.437-.422.437-1.14zm-1.625-5.438q-.64 0-1.047.406-.39.391-.39 1.079 0 .64.39 1.046.39.407 1.031.407.657 0 1.047-.407.39-.406.39-1.046 0-.657-.405-1.063-.407-.422-1.016-.422z" fill="#0f9d58"/><path d="m333.781 49.075h1.188v.875h-1.188v1.985h-1.078v-1.985h-3.89v-.64l3.812-5.906h1.156zm-3.734 0h2.656v-4.187l-.14.234zm10.312-.89q-.328.406-.812.656-.469.234-1.031.234-.735 0-1.282-.359-.546-.36-.843-1.016-.297-.671-.297-1.468 0-.844.312-1.532.328-.687.922-1.046.61-.375 1.406-.375 1.266 0 1.985.953.734.953.734 2.578v.312q0 2.5-.984 3.64-.985 1.142-2.969 1.173h-.219v-.906h.235q1.343-.032 2.062-.704.719-.671.781-2.14zm-1.671 0q.546 0 1-.328.468-.344.687-.828v-.438q0-1.062-.469-1.734-.469-.672-1.172-.672-.718 0-1.156.547-.422.547-.422 1.453 0 .875.406 1.437.422.563 1.125.563zm9.703-2.563q0 .64-.344 1.14-.344.5-.906.782.656.281 1.046.844.391.547.391 1.25 0 1.094-.75 1.766-.734.656-1.953.656-1.234 0-1.984-.656-.735-.672-.735-1.766 0-.703.375-1.25.375-.563 1.047-.844-.562-.281-.89-.781-.329-.5-.329-1.14 0-1.079.688-1.704.687-.64 1.828-.64 1.125 0 1.813.64.703.625.703 1.703zm-.891 3.985q0-.72-.453-1.157-.453-.453-1.188-.453-.734 0-1.187.453-.438.438-.438 1.172 0 .72.438 1.14.437.407 1.203.407.75 0 1.188-.422.437-.422.437-1.14zm-1.625-5.438q-.64 0-1.047.406-.39.391-.39 1.079 0 .64.39 1.046.39.407 1.031.407.657 0 1.047-.407.39-.406.39-1.046 0-.657-.405-1.063-.407-.422-1.016-.422zm9.516 1.453q0 .64-.344 1.14-.344.5-.906.782.656.281 1.046.844.391.547.391 1.25 0 1.094-.75 1.766-.734.656-1.953.656-1.234 0-1.984-.656-.735-.672-.735-1.766 0-.703.375-1.25.375-.563 1.047-.844-.562-.281-.89-.781-.329-.5-.329-1.14 0-1.079.688-1.704.687-.64 1.828-.64 1.125 0 1.813.64.703.625.703 1.703zm-.891 3.985q0-.72-.453-1.157-.453-.453-1.188-.453-.734 0-1.187.453-.438.438-.438 1.172 0 .72.438 1.14.437.407 1.203.407.75 0 1.188-.422.437-.422.437-1.14zm-1.625-5.438q-.64 0-1.047.406-.39.391-.39 1.079 0 .64.39 1.046.39.407 1.031.407.657 0 1.047-.407.39-.406.39-1.046 0-.657-.405-1.063-.407-.422-1.016-.422z" stroke="#fff" stroke-linecap="round" stroke-linejoin="round" stroke-width="3"/><path d="m333.781 49.075h1.188v.875h-1.188v1.985h-1.078v-1.985h-3.89v-.64l3.812-5.906h1.156zm-3.734 0h2.656v-4.187l-.14.234zm10.312-.89q-.328.406-.812.656-.469.234-1.031.234-.735 0-1.282-.359-.546-.36-.843-1.016-.297-.671-.297-1.468 0-.844.312-1.532.328-.687.922-1.046.61-.375 1.406-.375 1.266 0 1.985.953.734.953.734 2.578v.312q0 2.5-.984 3.64-.985 1.142-2.969 1.173h-.219v-.906h.235q1.343-.032 2.062-.704.719-.671.781-2.14zm-1.671 0q.546 0 1-.328.468-.344.687-.828v-.438q0-1.062-.469-1.734-.469-.672-1.172-.672-.718 0-1.156.547-.422.547-.422 1.453 0 .875.406 1.437.422.563 1.125.563zm9.703-2.563q0 .64-.344 1.14-.344.5-.906.782.656.281 1.046.844.391.547.391 1.25 0 1.094-.75 1.766-.734.656-1.953.656-1.234 0-1.984-.656-.735-.672-.735-1.766 0-.703.375-1.25.375-.563 1.047-.844-.562-.281-.89-.781-.329-.5-.329-1.14 0-1.079.688-1.704.687-.64 1.828-.64 1.125 0 1.813.64.703.625.703 1.703zm-.891 3.985q0-.72-.453-1.157-.453-.453-1.188-.453-.734 0-1.187.453-.438.438-.438 1.172 0 .72.438 1.14.437.407 1.203.407.75 0 1.188-.422.437-.422.437-1.14zm-1.625-5.438q-.64 0-1.047.406-.39.391-.39 1.079 0 .64.39 1.046.39.407 1.031.407.657 0 1.047-.407.39-.406.39-1.046 0-.657-.405-1.063-.407-.422-1.016-.422zm9.516 1.453q0 .64-.344 1.14-.344.5-.906.782.656.281 1.046.844.391.547.391 1.25 0 1.094-.75 1.766-.734.656-1.953.656-1.234 0-1.984-.656-.735-.672-.735-1.766 0-.703.375-1.25.375-.563 1.047-.844-.562-.281-.89-.781-.329-.5-.329-1.14 0-1.079.688-1.704.687-.64 1.828-.64 1.125 0 1.813.64.703.625.703 1.703zm-.891 3.985q0-.72-.453-1.157-.453-.453-1.188-.453-.734 0-1.187.453-.438.438-.438 1.172 0 .72.438 1.14.437.407 1.203.407.75 0 1.188-.422.437-.422.437-1.14zm-1.625-5.438q-.64 0-1.047.406-.39.391-.39 1.079 0 .64.39 1.046.39.407 1.031.407.657 0 1.047-.407.39-.406.39-1.046 0-.657-.405-1.063-.407-.422-1.016-.422z" fill="#0f9d58"/><path d="m419.703 31.21.438-4.25h4.375v1h-3.454l-.265 2.329q.64-.375 1.437-.375 1.157 0 1.844.781.688.766.688 2.078 0 1.313-.72 2.078-.702.766-1.983.766-1.125 0-1.844-.625-.719-.64-.813-1.75h1.016q.11.734.531 1.11.422.374 1.11.374.75 0 1.187-.515.438-.516.438-1.422 0-.86-.47-1.375-.468-.516-1.25-.516-.702 0-1.109.297l-.28.235zm8.078-.515h.813q.781-.015 1.219-.406.437-.39.437-1.063 0-1.5-1.5-1.5-.703 0-1.125.407-.406.406-.406 1.062h-1.094q0-1.015.734-1.687.75-.672 1.891-.672 1.203 0 1.89.64.688.641.688 1.782 0 .562-.36 1.078-.359.515-.984.781.704.219 1.079.734.39.516.39 1.266 0 1.14-.75 1.828-.75.672-1.953.672-1.188 0-1.953-.656-.75-.657-.75-1.719h1.094q0 .672.437 1.078.438.406 1.188.406.78 0 1.187-.406.422-.422.422-1.187 0-.735-.453-1.125-.453-.407-1.328-.422h-.813v-.89zm9.578 1.047q-.328.406-.812.656-.469.235-1.031.235-.735 0-1.282-.36-.546-.36-.843-1.015-.297-.672-.297-1.47 0-.843.312-1.53.328-.688.922-1.047.61-.375 1.406-.375 1.266 0 1.985.953.734.953.734 2.578v.313q0 2.5-.984 3.64-.985 1.14-2.969 1.172h-.219v-.906h.235q1.343-.032 2.062-.703.719-.672.781-2.141zm-1.671 0q.546 0 1-.328.468-.344.687-.828v-.438q0-1.062-.469-1.734-.469-.672-1.172-.672-.718 0-1.156.547-.422.547-.422 1.453 0 .875.406 1.438.422.562 1.125.562zm5.015-.531.438-4.25h4.375v1h-3.454l-.265 2.328q.64-.375 1.437-.375 1.157 0 1.844.781.688.766.688 2.078 0 1.313-.72 2.078-.702.766-1.983.766-1.125 0-1.844-.625-.719-.64-.813-1.75h1.016q.11.734.531 1.11.422.374 1.11.374.75 0 1.187-.515.438-.516.438-1.422 0-.86-.47-1.375-.468-.516-1.25-.516-.702 0-1.109.297l-.28.235-.876-.22z" stroke="#fff" stroke-linecap="round" stroke-linejoin="round" stroke-width="3"/><path d="m419.703 31.21.438-4.25h4.375v1h-3.454l-.265 2.329q.64-.375 1.437-.375 1.157 0 1.844.781.688.766.688 2.078 0 1.313-.72 2.078-.702.766-1.983.766-1.125 0-1.844-.625-.719-.64-.813-1.75h1.016q.11.734.531 1.11.422.374 1.11.374.75 0 1.187-.515.438-.516.438-1.422 0-.86-.47-1.375-.468-.516-1.25-.516-.702 0-1.109.297l-.28.235zm8.078-.515h.813q.781-.015 1.219-.406.437-.39.437-1.063 0-1.5-1.5-1.5-.703 0-1.125.407-.406.406-.406 1.062h-1.094q0-1.015.734-1.687.75-.672 1.891-.672 1.203 0 1.89.64.688.641.688 1.782 0 .562-.36 1.078-.359.515-.984.781.704.219 1.079.734.39.516.39 1.266 0 1.14-.75 1.828-.75.672-1.953.672-1.188 0-1.953-.656-.75-.657-.75-1.719h1.094q0 .672.437 1.078.438.406 1.188.406.78 0 1.187-.406.422-.422.422-1.187 0-.735-.453-1.125-.453-.407-1.328-.422h-.813v-.89zm9.578 1.047q-.328.406-.812.656-.469.235-1.031.235-.735 0-1.282-.36-.546-.36-.843-1.015-.297-.672-.297-1.47 0-.843.312-1.53.328-.688.922-1.047.61-.375 1.406-.375 1.266 0 1.985.953.734.953.734 2.578v.313q0 2.5-.984 3.64-.985 1.14-2.969 1.172h-.219v-.906h.235q1.343-.032 2.062-.703.719-.672.781-2.141zm-1.671 0q.546 0 1-.328.468-.344.687-.828v-.438q0-1.062-.469-1.734-.469-.672-1.172-.672-.718 0-1.156.547-.422.547-.422 1.453 0 .875.406 1.438.422.562 1.125.562zm5.015-.531.438-4.25h4.375v1h-3.454l-.265 2.328q.64-.375 1.437-.375 1.157 0 1.844.781.688.766.688 2.078 0 1.313-.72 2.078-.702.766-1.983.766-1.125 0-1.844-.625-.719-.64-.813-1.75h1.016q.11.734.531 1.11.422.374 1.11.374.75 0 1.187-.515.438-.516.438-1.422 0-.86-.47-1.375-.468-.516-1.25-.516-.702 0-1.109.297l-.28.235-.876-.22z" fill="#0f9d58"/><path d="m225.48 346.106v3.344h-1.126v-8.531h3.157q1.39 0 2.187.719.797.703.797 1.89 0 1.234-.781 1.906-.766.672-2.219.672h-2.016zm0-.922h2.03q.907 0 1.376-.422.484-.421.484-1.218 0-.766-.484-1.219-.47-.469-1.313-.484h-2.094v3.343zm9.78-1.109q-.25-.031-.53-.031-1.079 0-1.454.906v4.5h-1.078v-6.344h1.047l.016.735q.53-.844 1.515-.844.313 0 .485.078v1zm.641 2.14q0-.921.36-1.671.375-.75 1.03-1.14.657-.407 1.485-.407 1.297 0 2.094.89.813.891.813 2.391v.078q0 .922-.36 1.656-.36.735-1.016 1.157-.656.406-1.515.406-1.281 0-2.094-.89-.797-.907-.797-2.391v-.078zm1.094.141q0 1.047.484 1.688.5.64 1.313.64.828 0 1.312-.64.485-.656.485-1.828 0-1.032-.5-1.672-.485-.656-1.313-.656-.797 0-1.297.64-.484.625-.484 1.828zm8.328-.937 1.406-2.313h1.266l-2.078 3.14 2.14 3.204h-1.25l-1.468-2.375-1.469 2.375h-1.266l2.141-3.203-2.063-3.14h1.25zm5.047 4.031h-1.078v-6.344h1.078zm-1.172-8.016q0-.265.156-.453.172-.187.485-.187.312 0 .469.187.171.188.171.453 0 .25-.172.438-.156.172-.468.172-.313 0-.485-.172-.156-.188-.156-.438zm5.625 8.141q-1.297 0-2.11-.844-.796-.86-.796-2.281v-.188q0-.953.36-1.687.359-.75 1-1.156.656-.422 1.406-.422 1.234 0 1.921.812.688.813.688 2.328v.454h-4.297q.031.937.547 1.515.531.578 1.344.578.562 0 .953-.234.406-.234.719-.625l.656.516q-.797 1.234-2.39 1.234zm-.14-5.688q-.657 0-1.11.485-.437.469-.531 1.328h3.172v-.078q-.047-.828-.453-1.281-.391-.454-1.078-.454zm7.203 3.875q0-.437-.344-.671-.328-.25-1.156-.422-.813-.172-1.297-.422-.485-.25-.719-.578-.219-.344-.219-.813 0-.781.656-1.312.657-.547 1.688-.547 1.078 0 1.734.562.672.547.672 1.407h-1.078q0-.438-.39-.75-.375-.329-.938-.329-.594 0-.938.266-.328.25-.328.656 0 .391.313.594.312.203 1.125.39.812.173 1.312.423t.735.609q.25.36.25.86 0 .859-.688 1.374-.672.516-1.75.516-.765 0-1.36-.266-.577-.28-.905-.765-.329-.485-.329-1.047h1.079q.03.547.437.875.406.312 1.078.312.61 0 .985-.25t.375-.672zm7.843.922q.579 0 1.016-.343.438-.36.484-.891h1.032q-.032.547-.391 1.047-.344.484-.922.781-.562.297-1.219.297-1.296 0-2.062-.86-.75-.874-.75-2.374v-.188q0-.922.328-1.64.344-.72.969-1.11.64-.406 1.515-.406 1.063 0 1.766.64.719.625.766 1.657h-1.032q-.046-.625-.468-1.016-.422-.39-1.032-.39-.828 0-1.28.593-.454.594-.454 1.719v.203q0 1.094.453 1.688.453.593 1.281.593zm7.375.766q-.093-.188-.156-.672-.75.797-1.797.797-.937 0-1.547-.531-.593-.531-.593-1.36 0-.984.75-1.53.75-.548 2.125-.548h1.046v-.5q0-.562-.343-.89-.328-.344-1-.344-.578 0-.969.297-.39.281-.39.703h-1.094q0-.485.328-.922.344-.438.922-.688.578-.265 1.265-.265 1.11 0 1.719.547.625.547.656 1.5v2.922q0 .875.219 1.39v.094h-1.14zm-1.796-.828q.515 0 .968-.266.453-.265.656-.687v-1.297h-.843q-2 0-2 1.172 0 .5.344.797.343.28.875.28zm6.062.828h-1.078v-9h1.078zm3 0h-1.078v-9h1.078zm2.031.734h-.922l3.563-9.265h.922zm7.328-1.5q.579 0 1.016-.343.438-.36.484-.891h1.032q-.032.547-.391 1.047-.344.484-.922.781-.562.297-1.219.297-1.296 0-2.062-.86-.75-.874-.75-2.374v-.188q0-.922.328-1.64.344-.72.969-1.11.64-.406 1.515-.406 1.063 0 1.766.64.719.625.766 1.657h-1.032q-.046-.625-.468-1.016-.422-.39-1.032-.39-.828 0-1.28.593-.454.594-.454 1.719v.203q0 1.094.453 1.688.453.593 1.281.593zm3.172-2.468q0-.922.36-1.672.375-.75 1.03-1.14.657-.407 1.485-.407 1.297 0 2.094.89.813.891.813 2.391v.078q0 .922-.36 1.656-.36.735-1.015 1.157-.657.406-1.516.406-1.281 0-2.094-.89-.797-.907-.797-2.391zm1.094.14q0 1.047.484 1.688.5.64 1.313.64.828 0 1.312-.64.485-.656.485-1.828 0-1.032-.5-1.672-.485-.656-1.313-.656-.797 0-1.297.64-.484.625-.484 1.828zm7.219-3.25.031.797q.734-.906 1.906-.906 2.016 0 2.031 2.265v4.188h-1.093v-4.203q0-.672-.313-1-.297-.328-.953-.328-.531 0-.937.281-.391.281-.61.734v4.516h-1.078v-6.344zm9.672 4.656q0-.437-.344-.671-.328-.25-1.156-.422-.813-.172-1.297-.422-.485-.25-.719-.578-.219-.344-.219-.813 0-.781.656-1.312.657-.547 1.688-.547 1.078 0 1.734.562.672.547.672 1.407h-1.078q0-.438-.39-.75-.375-.329-.938-.329-.594 0-.938.266-.328.25-.328.656 0 .391.313.594.312.203 1.125.39.812.173 1.312.423t.735.609q.25.36.25.86 0 .859-.688 1.374-.672.516-1.75.516-.765 0-1.36-.266-.577-.28-.905-.765-.329-.485-.329-1.047h1.079q.03.547.437.875.406.312 1.078.312.61 0 .985-.25t.375-.672zm3.78-6.187v1.531h1.173v.844h-1.172v3.922q0 .39.156.578.156.188.531.188.188 0 .516-.063v.875q-.422.125-.828.125-.719 0-1.094-.438-.375-.453-.375-1.265v-3.922h-1.156v-.844h1.156v-1.531h1.094zm5.595 2.5q-.25-.031-.532-.031-1.078 0-1.453.906v4.5h-1.078v-6.344h1.047l.016.735q.53-.844 1.515-.844.313 0 .485.078zm4.843 4.75q-.625.75-1.859.75-1.016 0-1.547-.594-.531-.594-.531-1.75v-4.125h1.078v4.094q0 1.453 1.172 1.453 1.25 0 1.656-.937v-4.61h1.094v6.344h-1.031zm5.625-.14q.579 0 1.016-.344.438-.36.484-.891h1.032q-.032.547-.391 1.047-.344.484-.922.781-.562.297-1.219.297-1.296 0-2.062-.86-.75-.874-.75-2.374v-.188q0-.922.328-1.64.344-.72.969-1.11.64-.406 1.515-.406 1.063 0 1.766.64.719.625.766 1.657h-1.032q-.046-.625-.468-1.016-.422-.39-1.032-.39-.828 0-1.28.593-.454.594-.454 1.719v.203q0 1.094.453 1.688.453.593 1.281.593zm4.938-7.11v1.531h1.172v.844h-1.172v3.922q0 .39.156.578.156.188.531.188.188 0 .516-.063v.875q-.422.125-.828.125-.719 0-1.094-.438-.375-.453-.375-1.265v-3.922h-1.156v-.844h1.156v-1.531zm-312.461-111.685h3.344v1.126h-8.531v-3.157q0-1.39.719-2.187.703-.797 1.89-.797 1.235 0 1.906.781.672.766.672 2.219v2.016zm-.922 0v-2.03q0-.907-.421-1.376-.422-.484-1.22-.484-.765 0-1.218.484-.469.47-.484 1.313v2.094h3.343zm1.032-6.421q-.922 0-1.672-.36-.75-.375-1.14-1.03-.407-.657-.407-1.485 0-1.297.89-2.094.891-.813 2.391-.813h.078q.922 0 1.657.36.734.36 1.156 1.016.406.656.406 1.515 0 1.281-.89 2.094-.907.797-2.391.797zm.14-1.094q1.047 0 1.688-.484.64-.5.64-1.313 0-.828-.64-1.312-.656-.485-1.828-.485-1.032 0-1.672.5-.656.485-.656 1.313 0 .797.64 1.297.625.484 1.828.484zm3.094-7.375v1.078h-6.344v-1.078zm-8.016 1.172q-.265 0-.453-.156-.187-.172-.187-.485 0-.312.187-.469.188-.171.453-.171.25 0 .438.172.172.156.172.468 0 .313-.172.485-.188.156-.438.156zm1.672-4.016.797-.031q-.906-.734-.906-1.906 0-2.016 2.266-2.031h4.187v1.093h-4.203q-.672 0-1 .313-.328.297-.328.953 0 .531.281.937.281.391.734.61h4.516v1.078h-6.344zm-1.531-7.453h1.531v-1.172h.844v1.172h3.922q.39 0 .578-.156.188-.156.188-.531 0-.188-.063-.516h.875q.125.422.125.828 0 .719-.437 1.094-.454.375-1.266.375h-3.922v1.156h-.844v-1.156h-1.531zm6.188-6.219q-.438 0-.672.344-.25.328-.422 1.156-.172.813-.422 1.297-.25.485-.578.719-.344.219-.813.219-.781 0-1.312-.656-.547-.657-.547-1.688 0-1.078.562-1.734.547-.672 1.407-.672v1.078q-.438 0-.75.39-.328.375-.328.938 0 .594.265.938.25.328.656.328.391 0 .594-.313.203-.312.39-1.125.173-.812.423-1.312t.609-.735q.36-.25.86-.25.859 0 1.374.688.516.672.516 1.75 0 .765-.266 1.36-.28.577-.765.905-.485.328-1.047.328v-1.078q.547-.03.875-.437.312-.406.312-1.078 0-.61-.25-.985t-.671-.375zm-1.782-5.265q-1.312 0-2.531-.344-1.219-.36-2.219-1.063-1-.703-1.406-1.468l.719-.219q.656.86 2 1.406 1.344.547 3.015.594l.5.016q2.266 0 3.922-.828 1-.5 1.563-1.188l.656.219q-.422.781-1.453 1.5-1.984 1.375-4.766 1.375zm-2.11-5.125q-.874-.719-.874-1.875 0-2.016 2.266-2.031h4.187v1.093h-4.203q-.672 0-1 .313-.328.297-.328.953 0 .531.281.937.281.391.734.61h4.516v1.078h-9v-1.078h3.422zm5.579-7.094v1.078h-6.344v-1.078zm-8.016 1.172q-.265 0-.453-.156-.187-.172-.187-.485 0-.312.187-.469.188-.171.453-.171.25 0 .438.172.172.156.172.468 0 .313-.172.485-.188.156-.438.156zm4.797-2.734q-1.484 0-2.36-.688-.874-.688-.874-1.813 0-1.156.812-1.812l-.703-.047v-1h6.188q1.234 0 1.937.734.719.735.719 1.954 0 .687-.297 1.343-.297.657-.797 1l-.656-.562q.86-.688.86-1.703 0-.781-.454-1.219-.437-.453-1.25-.453h-.547q.766.656.766 1.781 0 1.11-.89 1.797-.907.688-2.454.688zm.125-1.094q1.063 0 1.688-.438.61-.437.61-1.234 0-1.016-.938-1.5h-2.891q-.906.5-.906 1.5 0 .781.61 1.234.609.438 1.827.438zm-2.484-7.25q-.875-.719-.875-1.875 0-2.016 2.266-2.031h4.187v1.093h-4.203q-.672 0-1 .313-.328.297-.328.953 0 .531.281.937.281.391.734.61h4.516v1.078h-9v-1.078zm5.703-8.547q0 1.297-.844 2.11-.86.796-2.281.796h-.187q-.954 0-1.688-.36-.75-.359-1.156-1-.422-.655-.422-1.405 0-1.235.812-1.922.813-.688 2.329-.688h.453v4.297q.937-.031 1.515-.547.578-.531.578-1.344 0-.562-.234-.953-.234-.406-.625-.719l.516-.656q1.234.797 1.234 2.39zm-5.687.14q0 .657.484 1.11.469.437 1.328.531v-3.172h-.078q-.828.047-1.281.453-.453.391-.453 1.078zm.187-6.578q-.031.25-.031.532 0 1.078.906 1.453h4.5v1.078h-6.344v-1.047l.735-.016q-.844-.53-.844-1.515 0-.313.078-.485zm5.375-5.109v1.078h-6.344v-1.078zm-8.016 1.172q-.265 0-.453-.156-.187-.172-.187-.485 0-.312.187-.469.188-.171.453-.171.25 0 .438.172.172.156.172.468 0 .313-.172.485-.188.156-.438.156zm6.329-6.688q-.438 0-.672.344-.25.328-.422 1.156-.172.813-.422 1.297-.25.485-.578.719-.344.219-.813.219-.781 0-1.312-.656-.547-.657-.547-1.688 0-1.078.562-1.734.547-.672 1.407-.672v1.078q-.438 0-.75.39-.328.375-.328.938 0 .594.265.938.25.328.656.328.391 0 .594-.313.203-.312.39-1.125.173-.812.423-1.312t.609-.735q.36-.25.86-.25.859 0 1.374.688.516.672.516 1.75 0 .765-.266 1.36-.28.577-.765.905-.485.328-1.047.328v-1.078q.547-.03.875-.437.312-.406.312-1.078 0-.61-.25-.985t-.671-.375zm-1.407-10.672q1.453 0 2.344.672.875.657.875 1.782 0 1.203-.86 1.859l.735.063v.984h-9v-1.078h3.36q-.813-.656-.813-1.813 0-1.156.875-1.812.86-.656 2.39-.656h.094zm-.125 1.079q-1.11 0-1.703.437-.61.422-.61 1.219 0 1.078.985 1.547h2.75q1-.5 1-1.547 0-.781-.61-1.219-.609-.437-1.812-.437zm3.344-5.344q0 1.297-.844 2.11-.86.796-2.281.796h-.187q-.954 0-1.688-.36-.75-.359-1.156-1-.422-.655-.422-1.405 0-1.235.812-1.922.813-.688 2.329-.688h.453v4.297q.937-.031 1.515-.547.578-.531.578-1.344 0-.562-.234-.953-.234-.406-.625-.719l.516-.656q1.234.797 1.234 2.39zm-5.687.14q0 .657.484 1.11.469.437 1.328.531v-3.172h-.078q-.828.047-1.281.453-.453.391-.453 1.078zm-2.313-4.984h1.531v-1.172h.844v1.172h3.922q.39 0 .578-.156.188-.156.188-.531 0-.188-.063-.516h.875q.125.422.125.828 0 .719-.437 1.094-.454.375-1.266.375h-3.922v1.156h-.844v-1.156h-1.531zm0-4h1.531v-1.172h.844v1.172h3.922q.39 0 .578-.156.188-.156.188-.531 0-.188-.063-.516h.875q.125.422.125.828 0 .719-.437 1.094-.454.375-1.266.375h-3.922v1.156h-.844v-1.156h-1.531zm8-5.156q0 1.297-.844 2.11-.86.796-2.281.796h-.187q-.954 0-1.688-.36-.75-.359-1.156-1-.422-.656-.422-1.406 0-1.234.812-1.921.813-.688 2.329-.688h.453v4.297q.937-.031 1.515-.547.578-.531.578-1.344 0-.562-.234-.953-.234-.406-.625-.719l.516-.656q1.234.797 1.234 2.39zm-5.687.14q0 .657.484 1.11.469.437 1.328.531v-3.172h-.078q-.828.047-1.281.453-.453.391-.453 1.079zm.187-6.578q-.031.25-.031.532 0 1.078.906 1.453h4.5v1.078h-6.344v-1.047l.735-.016q-.844-.53-.844-1.515 0-.313.078-.485zm1.969-3.437q1.312 0 2.515.344 1.188.343 2.204 1.062 1.015.703 1.437 1.469l-.656.234q-.688-.906-2.14-1.453-1.47-.547-3.235-.562h-.188q-1.234 0-2.297.265-1.062.25-1.89.719-.844.453-1.313 1.031l-.656-.234q.422-.766 1.422-1.469 1-.703 2.219-1.047 1.203-.36 2.578-.36z" fill="#424242"/><path d="m78.612 269.31q0 1.906-.656 2.843-.64.922-2.031.922-1.36 0-2.016-.906-.656-.906-.687-2.719v-1.438q0-1.89.64-2.796.657-.922 2.047-.922 1.375 0 2.032.89.656.875.671 2.72v1.405zm-1.093-1.485q0-1.375-.39-2-.376-.64-1.22-.64-.828 0-1.218.64-.375.625-.375 1.922v1.734q0 1.375.39 2.047.406.656 1.219.656.797 0 1.188-.625.39-.625.406-1.953zm-19.672-75.675h-5.594v-.781l2.953-3.281q.656-.75.906-1.204.25-.468.25-.968 0-.672-.406-1.094-.39-.438-1.078-.438-.797 0-1.25.47-.453.452-.453 1.28h-1.078q0-1.187.75-1.906.765-.734 2.031-.734 1.203 0 1.89.625.688.625.688 1.672 0 1.25-1.61 3l-2.28 2.468h4.28v.891zm6.765-3.64q0 1.906-.656 2.843-.64.922-2.031.922-1.36 0-2.016-.906-.656-.906-.687-2.719v-1.438q0-1.89.64-2.796.657-.922 2.047-.922 1.375 0 2.032.89.656.875.671 2.72v1.405zm-1.093-1.485q0-1.375-.39-2-.376-.64-1.22-.64-.828 0-1.218.64-.375.625-.375 1.922v1.734q0 1.375.39 2.047.406.656 1.219.656.797 0 1.188-.625.39-.625.406-1.953zm8.093 1.484q0 1.907-.656 2.844-.64.922-2.031.922-1.36 0-2.016-.906-.656-.906-.687-2.719v-1.438q0-1.89.64-2.796.657-.922 2.047-.922 1.375 0 2.032.89.656.875.671 2.72zm-1.093-1.484q0-1.375-.39-2-.376-.64-1.22-.64-.828 0-1.218.64-.375.625-.375 1.922v1.734q0 1.375.39 2.047.406.656 1.219.656.797 0 1.188-.625.39-.625.406-1.953zm8.093 1.484q0 1.907-.656 2.844-.64.922-2.031.922-1.36 0-2.016-.906-.656-.906-.687-2.719v-1.438q0-1.89.64-2.796.657-.922 2.047-.922 1.375 0 2.032.89.656.875.671 2.72zm-1.093-1.484q0-1.375-.39-2-.376-.64-1.22-.64-.828 0-1.218.64-.375.625-.375 1.922v1.734q0 1.375.39 2.047.406.656 1.219.656.797 0 1.188-.625.39-.625.406-1.953zm-20.688-78.535h1.188v.876h-1.189v1.984h-1.078v-1.984h-3.89v-.641l3.812-5.906h1.156v5.672zm-3.734 0h2.656v-4.187l-.14.234-2.516 3.954zm11.515-.78q0 1.906-.656 2.843-.64.922-2.031.922-1.36 0-2.016-.906-.656-.907-.687-2.719v-1.438q0-1.89.64-2.796.657-.922 2.047-.922 1.375 0 2.032.89.656.875.671 2.72v1.405zm-1.093-1.485q0-1.375-.39-2-.376-.64-1.22-.64-.828 0-1.218.64-.375.625-.375 1.922v1.734q0 1.375.39 2.047.406.656 1.219.656.797 0 1.188-.625.39-.625.406-1.953zm8.093 1.484q0 1.907-.656 2.844-.64.922-2.031.922-1.36 0-2.016-.906-.656-.907-.687-2.719v-1.438q0-1.89.64-2.796.657-.922 2.047-.922 1.375 0 2.032.89.656.875.671 2.72zm-1.093-1.484q0-1.375-.39-2-.376-.64-1.22-.64-.828 0-1.218.64-.375.625-.375 1.922v1.734q0 1.375.39 2.047.406.656 1.219.656.797 0 1.188-.625.39-.625.406-1.953zm8.093 1.484q0 1.907-.656 2.844-.64.922-2.031.922-1.36 0-2.016-.906-.656-.907-.687-2.719v-1.438q0-1.89.64-2.796.657-.922 2.047-.922 1.375 0 2.032.89.656.875.671 2.72zm-1.093-1.484q0-1.375-.39-2-.376-.64-1.22-.64-.828 0-1.218.64-.375.625-.375 1.922v1.734q0 1.375.39 2.047.406.656 1.219.656.797 0 1.188-.625.39-.625.406-1.953zm-21-84.206v.906h-.203q-1.266.031-2.016.766-.75.718-.875 2.03.688-.765 1.844-.765 1.11 0 1.781.782.672.78.672 2.03 0 1.313-.719 2.11-.719.797-1.937.797-1.22 0-1.985-.938-.75-.953-.75-2.437v-.406q0-2.36 1-3.61t2.985-1.265zm-1.422 3.844q-.563 0-1.031.328-.47.328-.657.843v.391q0 1.063.47 1.703.483.64 1.187.64.734 0 1.156-.53.422-.547.422-1.422 0-.875-.422-1.407-.422-.546-1.125-.546zm9.515 1.046q0 1.907-.656 2.844-.64.922-2.031.922-1.36 0-2.016-.906-.656-.906-.687-2.719v-1.438q0-1.89.64-2.796.657-.922 2.047-.922 1.375 0 2.032.89.656.875.671 2.72zm-1.093-1.484q0-1.375-.39-2-.376-.64-1.22-.64-.828 0-1.218.64-.375.625-.375 1.922v1.734q0 1.375.39 2.047.406.656 1.219.656.797 0 1.188-.625.39-.625.406-1.953zm8.093 1.484q0 1.907-.656 2.844-.64.922-2.031.922-1.36 0-2.016-.906-.656-.906-.687-2.719v-1.438q0-1.89.64-2.796.657-.922 2.047-.922 1.375 0 2.032.89.656.875.671 2.72zm-1.093-1.484q0-1.375-.39-2-.376-.64-1.22-.64-.828 0-1.218.64-.375.625-.375 1.922v1.734q0 1.375.39 2.047.406.656 1.219.656.797 0 1.188-.625.39-.625.406-1.953zm8.093 1.484q0 1.907-.656 2.844-.64.922-2.031.922-1.36 0-2.016-.906-.656-.906-.687-2.719v-1.438q0-1.89.64-2.796.657-.922 2.047-.922 1.375 0 2.032.89.656.875.671 2.72zm-1.093-1.484q0-1.375-.39-2-.376-.64-1.22-.64-.828 0-1.218.64-.375.625-.375 1.922v1.734q0 1.375.39 2.047.406.656 1.219.656.797 0 1.188-.625.39-.625.406-1.953zm49.879 258.322q-.157 1.344-1 2.094-.844.734-2.235.734-1.515 0-2.422-1.078-.906-1.094-.906-2.922v-.813q0-1.187.422-2.093.422-.906 1.203-1.39.781-.485 1.797-.485 1.36 0 2.172.765.828.766.969 2.094h-1.125q-.157-1.016-.64-1.469-.485-.453-1.376-.453-1.078 0-1.687.797-.61.797-.61 2.266v.828q0 1.39.578 2.219.578.812 1.625.812.938 0 1.438-.422.5-.437.672-1.484zm1.265-.531q0-.922.36-1.672.375-.75 1.031-1.14.656-.407 1.484-.407 1.297 0 2.094.89.813.891.813 2.391v.078q0 .922-.36 1.656-.36.735-1.015 1.157-.657.406-1.516.406-1.281 0-2.094-.89-.797-.907-.797-2.391zm1.094.14q0 1.047.484 1.688.5.64 1.313.64.828 0 1.312-.64.485-.656.485-1.828 0-1.032-.5-1.672-.485-.656-1.313-.656-.797 0-1.297.64-.484.625-.484 1.828zm7.219-3.25.031.797q.734-.906 1.906-.906 2.016 0 2.032 2.265v4.188h-1.094v-4.203q0-.672-.313-1-.297-.328-.953-.328-.531 0-.937.281-.39.281-.61.734v4.516h-1.078v-6.344zm9.672 4.656q0-.437-.344-.671-.328-.25-1.156-.422-.813-.172-1.297-.422-.485-.25-.719-.578-.219-.344-.219-.813 0-.781.657-1.312.656-.547 1.687-.547 1.078 0 1.734.562.672.547.672 1.407h-1.078q0-.438-.39-.75-.375-.329-.938-.329-.594 0-.937.266-.329.25-.329.656 0 .391.313.594.312.203 1.125.39.812.173 1.312.423t.735.609q.25.36.25.86 0 .859-.688 1.374-.672.516-1.75.516-.765 0-1.359-.266-.578-.28-.906-.765-.328-.485-.328-1.047h1.078q.031.547.437.875.406.312 1.078.312.61 0 .985-.25t.375-.672zm3.781-6.187v1.531h1.172v.844h-1.172v3.922q0 .39.156.578.156.188.531.188.188 0 .516-.063v.875q-.422.125-.828.125-.719 0-1.094-.438-.375-.453-.375-1.265v-3.922h-1.156v-.844h1.156v-1.531zm5.594 2.5q-.25-.031-.532-.031-1.078 0-1.453.906v4.5h-1.078v-6.344h1.047l.016.735q.531-.844 1.515-.844.313 0 .485.078zm4.843 4.75q-.625.75-1.859.75-1.016 0-1.547-.594-.531-.594-.531-1.75v-4.125h1.078v4.094q0 1.453 1.172 1.453 1.25 0 1.656-.937v-4.61h1.094v6.344h-1.031zm5.625-.14q.579 0 1.016-.344.438-.36.484-.891h1.032q-.032.547-.39 1.047-.345.484-.923.781-.562.297-1.219.297-1.296 0-2.062-.86-.75-.874-.75-2.374v-.188q0-.922.328-1.64.344-.72.969-1.11.64-.406 1.515-.406 1.063 0 1.766.64.719.625.766 1.657h-1.032q-.046-.625-.468-1.016-.422-.39-1.032-.39-.828 0-1.28.593-.454.594-.454 1.719v.203q0 1.094.453 1.688.453.593 1.281.593zm4.938-7.11v1.531h1.172v.844h-1.172v3.922q0 .39.156.578.156.188.531.188.188 0 .516-.063v.875q-.422.125-.828.125-.719 0-1.094-.438-.375-.453-.375-1.265v-3.922h-1.156v-.844h1.156v-1.531zm-55.625 19.781q0 1.438-.656 2.328-.657.891-1.797.891-1.156 0-1.813-.734v3.046h-1.078v-8.78h.985l.046.702q.672-.812 1.844-.812 1.14 0 1.797.86.672.859.672 2.39v.11zm-1.078-.125q0-1.078-.469-1.687-.453-.625-1.25-.625-.984 0-1.469.86v3.03q.485.875 1.485.875.781 0 1.234-.609.469-.625.469-1.844zm5.797-2.156q-.25-.031-.532-.031-1.078 0-1.453.906v4.5h-1.078v-6.344h1.047l.016.735q.531-.844 1.515-.844.313 0 .485.078zm.64 2.14q0-.921.36-1.671.375-.75 1.031-1.14.656-.407 1.484-.407 1.297 0 2.094.89.813.891.813 2.391v.078q0 .922-.36 1.656-.36.735-1.015 1.157-.657.406-1.516.406-1.281 0-2.094-.89-.797-.907-.797-2.391v-.078zm1.094.141q0 1.047.484 1.688.5.64 1.313.64.828 0 1.312-.64.485-.656.485-1.828 0-1.032-.5-1.672-.485-.656-1.313-.656-.797 0-1.297.64-.484.625-.484 1.828zm8.328-.937 1.406-2.313h1.266l-2.078 3.14 2.14 3.204h-1.25l-1.468-2.375-1.469 2.375h-1.266l2.141-3.203-2.062-3.14h1.25zm5.938 2.437 1.484-4.75h1.156l-2.547 7.328q-.593 1.578-1.875 1.578l-.218-.015-.39-.078v-.875l.28.015q.563 0 .86-.218.312-.22.515-.813l.235-.656-2.266-6.266h1.188zm12.547.094 1.218-4.844h1.078l-1.843 6.344h-.875l-1.547-4.813-1.5 4.813h-.875l-1.844-6.344h1.078l1.25 4.75 1.485-4.75h.859zm4.562 1.5h-1.078v-6.344h1.078zm-1.172-8.016q0-.265.156-.453.172-.187.485-.187.312 0 .469.187.171.188.171.453 0 .25-.171.438-.157.172-.47.172-.312 0-.484-.172-.156-.188-.156-.438zm4.469.141v1.531h1.172v.844h-1.172v3.922q0 .39.156.578.156.188.531.188.188 0 .516-.063v.875q-.422.125-.828.125-.719 0-1.094-.438-.375-.453-.375-1.265v-3.922h-1.156v-.844h1.156v-1.531zm3.61 2.297q.718-.875 1.874-.875 2.016 0 2.032 2.265v4.188h-1.094v-4.203q0-.672-.313-1-.297-.328-.953-.328-.531 0-.937.281-.39.281-.61.734v4.516h-1.078v-9h1.078v3.422zm5.624 2.344q0-.922.36-1.672.375-.75 1.031-1.14.656-.407 1.484-.407 1.297 0 2.094.89.813.891.813 2.391v.078q0 .922-.36 1.656-.36.735-1.015 1.157-.657.406-1.516.406-1.281 0-2.094-.89-.797-.907-.797-2.391zm1.094.14q0 1.047.484 1.688.5.64 1.313.64.828 0 1.312-.64.485-.656.485-1.828 0-1.032-.5-1.672-.485-.656-1.313-.656-.797 0-1.297.64-.484.625-.484 1.828zm10.11 2.469q-.626.75-1.86.75-1.016 0-1.547-.594-.531-.594-.531-1.75v-4.125h1.078v4.094q0 1.453 1.172 1.453 1.25 0 1.656-.937v-4.61h1.094v6.344h-1.031l-.032-.625zm4.562-7.25v1.531h1.172v.844h-1.172v3.922q0 .39.156.578.156.188.531.188.188 0 .516-.063v.875q-.422.125-.828.125-.719 0-1.094-.438-.375-.453-.375-1.265v-3.922h-1.156v-.844h1.156v-1.531zm-44 15v1.531h1.172v.844h-1.172v3.922q0 .39.156.578.156.188.531.188.188 0 .516-.063v.875q-.422.125-.828.125-.719 0-1.094-.438-.375-.453-.375-1.265v-3.922h-1.156v-.844h1.156v-1.531zm5.594 2.5q-.25-.031-.532-.031-1.078 0-1.453.906v4.5h-1.078v-6.344h1.047l.016.735q.53-.844 1.515-.844.313 0 .485.078zm4.843 5.375q-.093-.188-.156-.672-.75.797-1.797.797-.937 0-1.547-.531-.593-.531-.593-1.36 0-.984.75-1.53.75-.548 2.125-.548h1.047v-.5q0-.562-.344-.89-.328-.344-1-.344-.578 0-.969.297-.39.281-.39.703h-1.094q0-.485.328-.922.344-.438.922-.688.578-.265 1.265-.265 1.11 0 1.72.547.624.547.655 1.5v2.922q0 .875.22 1.39v.094zm-1.796-.828q.515 0 .968-.266.453-.265.657-.687v-1.297h-.844q-2 0-2 1.172 0 .5.344.797.343.28.875.28zm10.234-2.266q0 1.438-.656 2.328-.657.891-1.797.891-1.156 0-1.813-.734v3.046h-1.078v-8.78h.985l.046.702q.672-.812 1.844-.812 1.14 0 1.797.86.672.859.672 2.39v.11zm-1.078-.125q0-1.078-.469-1.687-.453-.625-1.25-.625-.984 0-1.469.86v3.03q.485.875 1.485.875.78 0 1.234-.609.469-.625.469-1.844zm62.164-29.484q-.157 1.344-1 2.094-.844.734-2.235.734-1.515 0-2.422-1.078-.906-1.094-.906-2.922v-.813q0-1.187.422-2.093.422-.906 1.203-1.39.781-.485 1.797-.485 1.36 0 2.172.765.828.766.969 2.094h-1.125q-.157-1.016-.641-1.469-.484-.453-1.375-.453-1.078 0-1.687.797-.61.797-.61 2.266v.828q0 1.39.578 2.219.578.812 1.625.812.938 0 1.438-.422.5-.437.672-1.484zm1.265-.531q0-.922.36-1.672.375-.75 1.03-1.14.657-.407 1.485-.407 1.297 0 2.094.89.813.891.813 2.391v.078q0 .922-.36 1.656-.36.735-1.015 1.157-.657.406-1.516.406-1.281 0-2.094-.89-.797-.907-.797-2.391zm1.094.14q0 1.047.484 1.688.5.64 1.313.64.828 0 1.312-.64.485-.656.485-1.828 0-1.032-.5-1.672-.485-.656-1.313-.656-.797 0-1.297.64-.484.625-.484 1.828zm7.219-3.25.031.797q.734-.906 1.906-.906 2.016 0 2.032 2.265v4.188h-1.094v-4.203q0-.672-.313-1-.297-.328-.953-.328-.531 0-.937.281-.391.281-.61.734v4.516h-1.078v-6.344zm9.672 4.656q0-.437-.344-.671-.328-.25-1.156-.422-.813-.172-1.297-.422-.485-.25-.719-.578-.219-.344-.219-.813 0-.781.657-1.312.656-.547 1.687-.547 1.078 0 1.734.562.672.547.672 1.407h-1.078q0-.438-.39-.75-.375-.329-.938-.329-.594 0-.937.266-.329.25-.329.656 0 .391.313.594.312.203 1.125.39.812.173 1.312.423t.735.609q.25.36.25.86 0 .859-.688 1.374-.672.516-1.75.516-.765 0-1.36-.266-.577-.28-.905-.765-.328-.485-.328-1.047h1.078q.03.547.437.875.406.312 1.078.312.61 0 .985-.25t.375-.672zm3.78-6.187v1.531h1.173v.844h-1.172v3.922q0 .39.156.578.156.188.531.188.188 0 .516-.063v.875q-.422.125-.828.125-.719 0-1.094-.438-.375-.453-.375-1.265v-3.922h-1.156v-.844h1.156v-1.531h1.094zm5.595 2.5q-.25-.031-.532-.031-1.078 0-1.453.906v4.5h-1.078v-6.344h1.047l.016.735q.53-.844 1.515-.844.313 0 .485.078zm4.843 4.75q-.625.75-1.859.75-1.016 0-1.547-.594-.531-.594-.531-1.75v-4.125h1.078v4.094q0 1.453 1.172 1.453 1.25 0 1.656-.937v-4.61h1.094v6.344h-1.031zm5.625-.14q.579 0 1.016-.344.438-.36.484-.891h1.032q-.032.547-.391 1.047-.344.484-.922.781-.562.297-1.219.297-1.296 0-2.062-.86-.75-.874-.75-2.374v-.188q0-.922.328-1.64.344-.72.969-1.11.64-.406 1.515-.406 1.063 0 1.766.64.719.625.766 1.657h-1.032q-.046-.625-.468-1.016-.422-.39-1.032-.39-.828 0-1.28.593-.454.594-.454 1.719v.203q0 1.094.453 1.688.453.593 1.281.593zm4.938-7.11v1.531h1.172v.844h-1.172v3.922q0 .39.156.578.156.188.531.188.188 0 .516-.063v.875q-.422.125-.828.125-.719 0-1.094-.438-.375-.453-.375-1.265v-3.922h-1.156v-.844h1.156v-1.531zm-59.125 19.781q0 1.438-.656 2.328-.657.891-1.797.891-1.156 0-1.813-.734v3.046h-1.078v-8.78h.985l.046.702q.672-.812 1.844-.812 1.14 0 1.797.86.672.859.672 2.39v.11zm-1.078-.125q0-1.078-.469-1.687-.453-.625-1.25-.625-.984 0-1.469.86v3.03q.485.875 1.485.875.78 0 1.234-.609.469-.625.469-1.844zm5.797-2.156q-.25-.031-.532-.031-1.078 0-1.453.906v4.5h-1.078v-6.344h1.047l.016.735q.53-.844 1.515-.844.313 0 .485.078zm.64 2.14q0-.921.36-1.671.375-.75 1.03-1.14.657-.407 1.485-.407 1.297 0 2.094.89.813.891.813 2.391v.078q0 .922-.36 1.656-.36.735-1.015 1.157-.657.406-1.516.406-1.281 0-2.094-.89-.797-.907-.797-2.391v-.078zm1.094.141q0 1.047.484 1.688.5.64 1.313.64.828 0 1.312-.64.485-.656.485-1.828 0-1.032-.5-1.672-.485-.656-1.313-.656-.797 0-1.297.64-.484.625-.484 1.828zm8.328-.937 1.406-2.313h1.266l-2.078 3.14 2.14 3.204h-1.25l-1.468-2.375-1.469 2.375h-1.266l2.141-3.203-2.062-3.14h1.25zm5.938 2.437 1.484-4.75h1.156l-2.547 7.328q-.593 1.578-1.875 1.578l-.218-.015-.391-.078v-.875l.281.015q.563 0 .86-.218.312-.22.515-.813l.235-.656-2.266-6.266h1.188zm12.547.094 1.218-4.844h1.078l-1.843 6.344h-.875l-1.547-4.813-1.5 4.813h-.875l-1.844-6.344h1.078l1.25 4.75 1.485-4.75h.859zm4.562 1.5h-1.078v-6.344h1.078zm-1.172-8.016q0-.265.156-.453.172-.187.485-.187.312 0 .469.187.171.188.171.453 0 .25-.171.438-.157.172-.47.172-.312 0-.484-.172-.156-.188-.156-.438zm4.469.141v1.531h1.172v.844h-1.172v3.922q0 .39.156.578.156.188.531.188.188 0 .516-.063v.875q-.422.125-.828.125-.719 0-1.094-.438-.375-.453-.375-1.265v-3.922h-1.156v-.844h1.156v-1.531zm3.61 2.297q.718-.875 1.874-.875 2.016 0 2.032 2.265v4.188h-1.094v-4.203q0-.672-.313-1-.297-.328-.953-.328-.531 0-.937.281-.391.281-.61.734v4.516h-1.078v-9h1.078v3.422zm10.39-2.297v1.531h1.172v.844h-1.172v3.922q0 .39.156.578.156.188.531.188.188 0 .516-.063v.875q-.422.125-.828.125-.719 0-1.094-.438-.375-.453-.375-1.265v-3.922h-1.156v-.844h1.156v-1.531zm5.594 2.5q-.25-.031-.532-.031-1.078 0-1.453.906v4.5h-1.078v-6.344h1.047l.016.735q.53-.844 1.515-.844.313 0 .485.078zm4.843 5.375q-.093-.188-.156-.672-.75.797-1.797.797-.937 0-1.547-.531-.593-.531-.593-1.36 0-.984.75-1.53.75-.548 2.125-.548h1.047v-.5q0-.562-.344-.89-.328-.344-1-.344-.578 0-.969.297-.39.281-.39.703h-1.094q0-.485.328-.922.344-.438.922-.688.578-.265 1.265-.265 1.11 0 1.719.547.625.547.656 1.5v2.922q0 .875.219 1.39v.094h-1.14zm-1.796-.828q.515 0 .968-.266.453-.265.657-.687v-1.297h-.844q-2 0-2 1.172 0 .5.344.797.343.28.875.28zm10.234-2.266q0 1.438-.656 2.328-.657.891-1.797.891-1.156 0-1.813-.734v3.046h-1.078v-8.78h.985l.046.702q.672-.812 1.844-.812 1.14 0 1.797.86.672.859.672 2.39v.11zm-1.078-.125q0-1.078-.469-1.687-.453-.625-1.25-.625-.984 0-1.469.86v3.03q.485.875 1.485.875.78 0 1.234-.609.469-.625.469-1.844zm32.164-14.484q-.157 1.344-1 2.094-.844.734-2.235.734-1.515 0-2.422-1.078-.906-1.094-.906-2.922v-.813q0-1.187.422-2.093.422-.906 1.203-1.39.781-.485 1.797-.485 1.36 0 2.172.765.828.766.969 2.094h-1.125q-.157-1.016-.641-1.469-.484-.453-1.375-.453-1.078 0-1.688.797-.609.797-.609 2.266v.828q0 1.39.578 2.219.578.812 1.625.812.938 0 1.438-.422.5-.437.672-1.484zm5.468 2.703q-.093-.188-.156-.672-.75.797-1.797.797-.937 0-1.547-.531-.593-.531-.593-1.36 0-.984.75-1.53.75-.548 2.125-.548h1.046v-.5q0-.562-.343-.89-.328-.344-1-.344-.578 0-.969.297-.39.281-.39.703h-1.094q0-.485.328-.922.343-.438.922-.688.578-.265 1.265-.265 1.11 0 1.719.547.625.547.656 1.5v2.922q0 .875.219 1.39v.094h-1.14zm-1.797-.828q.516 0 .97-.266.452-.265.655-.687v-1.297h-.843q-2 0-2 1.172 0 .5.343.797.344.28.875.28zm6.063.828h-1.078v-9h1.078zm3 0h-1.078v-9h1.078zm10.172-3.094q0 1.438-.656 2.328-.657.891-1.797.891-1.157 0-1.813-.734v3.046h-1.078v-8.78h.984l.047.702q.672-.812 1.844-.812 1.14 0 1.797.86.672.859.672 2.39v.11zm-1.078-.125q0-1.078-.469-1.687-.453-.625-1.25-.625-.984 0-1.469.86v3.03q.485.875 1.485.875.78 0 1.234-.609.469-.625.469-1.844zm5.797-2.156q-.25-.031-.532-.031-1.078 0-1.453.906v4.5h-1.078v-6.344h1.047l.016.735q.53-.844 1.515-.844.313 0 .485.078zm.64 2.14q0-.921.36-1.671.375-.75 1.03-1.14.657-.407 1.485-.407 1.297 0 2.094.89.812.891.812 2.391v.078q0 .922-.359 1.656-.36.735-1.016 1.157-.656.406-1.515.406-1.281 0-2.094-.89-.797-.907-.797-2.391v-.078zm1.094.141q0 1.047.484 1.688.5.64 1.313.64.828 0 1.312-.64.485-.656.485-1.828 0-1.032-.5-1.672-.485-.656-1.313-.656-.797 0-1.297.64-.484.625-.484 1.828zm8.328-.937 1.406-2.313h1.266l-2.078 3.14 2.14 3.204h-1.25l-1.468-2.375-1.469 2.375h-1.266l2.141-3.203-2.063-3.14h1.25zm5.938 2.437 1.484-4.75h1.156l-2.547 7.328q-.593 1.578-1.875 1.578l-.218-.015-.391-.078v-.875l.281.015q.563 0 .86-.218.312-.22.515-.813l.235-.656-2.266-6.266h1.187zm-50.454 15.094 1.22-4.844h1.077l-1.843 6.344h-.875l-1.547-4.813-1.5 4.813h-.875l-1.844-6.344h1.078l1.25 4.75 1.484-4.75h.86zm4.563 1.5h-1.078v-6.344h1.078zm-1.172-8.016q0-.265.156-.453.172-.187.485-.187.312 0 .468.187.172.188.172.453 0 .25-.172.438-.156.172-.468.172-.313 0-.485-.172-.156-.188-.156-.438zm4.469.141v1.531h1.172v.844h-1.172v3.922q0 .39.156.578.156.188.531.188.188 0 .516-.063v.875q-.422.125-.828.125-.719 0-1.094-.438-.375-.453-.375-1.265v-3.922h-1.156v-.844h1.156v-1.531zm3.61 2.297q.718-.875 1.874-.875 2.016 0 2.031 2.265v4.188h-1.093v-4.203q0-.672-.313-1-.297-.328-.953-.328-.531 0-.937.281-.391.281-.61.734v4.516h-1.078v-9h1.078v3.422zm5.624 2.344q0-.922.36-1.672.375-.75 1.03-1.14.657-.407 1.485-.407 1.297 0 2.094.89.812.891.812 2.391v.078q0 .922-.359 1.656-.36.735-1.016 1.157-.656.406-1.515.406-1.281 0-2.094-.89-.797-.907-.797-2.391zm1.094.14q0 1.047.484 1.688.5.64 1.313.64.828 0 1.312-.64.485-.656.485-1.828 0-1.032-.5-1.672-.485-.656-1.313-.656-.797 0-1.297.64-.484.625-.484 1.828zm10.11 2.469q-.626.75-1.86.75-1.016 0-1.547-.594-.531-.594-.531-1.75v-4.125h1.078v4.094q0 1.453 1.172 1.453 1.25 0 1.656-.937v-4.61h1.094v6.344h-1.031l-.032-.625zm4.562-7.25v1.531h1.172v.844h-1.172v3.922q0 .39.156.578.156.188.531.188.188 0 .516-.063v.875q-.422.125-.828.125-.719 0-1.094-.438-.375-.453-.375-1.265v-3.922h-1.156v-.844h1.156v-1.531zm7 0v1.531h1.172v.844h-1.172v3.922q0 .39.156.578.156.188.531.188.188 0 .516-.063v.875q-.422.125-.828.125-.719 0-1.094-.438-.375-.453-.375-1.265v-3.922h-1.156v-.844h1.156v-1.531zm5.594 2.5q-.25-.031-.532-.031-1.078 0-1.453.906v4.5h-1.078v-6.344h1.047l.016.735q.53-.844 1.515-.844.313 0 .485.078zm4.843 5.375q-.093-.188-.156-.672-.75.797-1.797.797-.937 0-1.547-.531-.593-.531-.593-1.36 0-.984.75-1.53.75-.548 2.125-.548h1.046v-.5q0-.562-.343-.89-.328-.344-1-.344-.578 0-.969.297-.39.281-.39.703h-1.094q0-.485.328-.922.343-.438.922-.688.578-.265 1.265-.265 1.11 0 1.719.547.625.547.656 1.5v2.922q0 .875.219 1.39v.094h-1.14zm-1.797-.828q.516 0 .97-.266.452-.265.655-.687v-1.297h-.843q-2 0-2 1.172 0 .5.343.797.344.28.875.28zm10.235-2.266q0 1.438-.656 2.328-.657.891-1.797.891-1.157 0-1.813-.734v3.046h-1.078v-8.78h.984l.047.702q.672-.812 1.844-.812 1.14 0 1.797.86.672.859.672 2.39v.11zm-1.078-.125q0-1.078-.469-1.687-.453-.625-1.25-.625-.984 0-1.469.86v3.03q.485.875 1.485.875.78 0 1.234-.609.469-.625.469-1.844zm26.664-14.484q-.157 1.344-1 2.094-.844.734-2.235.734-1.515 0-2.422-1.078-.906-1.094-.906-2.922v-.813q0-1.187.422-2.093.422-.906 1.203-1.39.781-.485 1.797-.485 1.36 0 2.172.765.828.766.969 2.094h-1.125q-.157-1.016-.641-1.469-.484-.453-1.375-.453-1.078 0-1.688.797-.609.797-.609 2.266v.828q0 1.39.578 2.219.578.812 1.625.812.938 0 1.438-.422.5-.437.672-1.484zm5.468 2.703q-.093-.188-.156-.672-.75.797-1.797.797-.937 0-1.547-.531-.593-.531-.593-1.36 0-.984.75-1.53.75-.548 2.125-.548h1.046v-.5q0-.562-.343-.89-.328-.344-1-.344-.578 0-.97.297-.39.281-.39.703h-1.093q0-.485.328-.922.343-.438.922-.688.578-.265 1.265-.265 1.11 0 1.719.547.625.547.656 1.5v2.922q0 .875.219 1.39v.094h-1.14zm-1.797-.828q.516 0 .97-.266.452-.265.655-.687v-1.297h-.843q-2 0-2 1.172 0 .5.343.797.344.28.875.28zm6.063.828h-1.078v-9h1.078zm3 0h-1.078v-9h1.078zm10.172-3.094q0 1.438-.656 2.328-.657.891-1.797.891-1.157 0-1.813-.734v3.046h-1.078v-8.78h.984l.047.702q.672-.812 1.844-.812 1.14 0 1.797.86.672.859.672 2.39v.11zm-1.078-.125q0-1.078-.47-1.687-.452-.625-1.25-.625-.983 0-1.468.86v3.03q.485.875 1.485.875.78 0 1.234-.609.469-.625.469-1.844zm5.797-2.156q-.25-.031-.532-.031-1.078 0-1.453.906v4.5h-1.078v-6.344h1.047l.016.735q.53-.844 1.515-.844.313 0 .485.078zm.64 2.14q0-.921.36-1.671.375-.75 1.03-1.14.657-.407 1.485-.407 1.297 0 2.094.89.812.891.812 2.391v.078q0 .922-.359 1.656-.36.735-1.016 1.157-.656.406-1.515.406-1.281 0-2.094-.89-.797-.907-.797-2.391v-.078zm1.094.141q0 1.047.484 1.688.5.64 1.313.64.828 0 1.312-.64.485-.656.485-1.828 0-1.032-.5-1.672-.485-.656-1.313-.656-.797 0-1.297.64-.484.625-.484 1.828zm8.328-.937 1.406-2.313h1.266l-2.078 3.14 2.14 3.204h-1.25l-1.468-2.375-1.47 2.375h-1.265l2.14-3.203-2.062-3.14h1.25zm5.938 2.437 1.484-4.75h1.156l-2.547 7.328q-.593 1.578-1.875 1.578l-.218-.015-.391-.078v-.875l.281.015q.563 0 .86-.218.312-.22.515-.813l.235-.656-2.266-6.266h1.187zm12.546.094 1.22-4.844h1.077l-1.842 6.344h-.875l-1.547-4.813-1.5 4.813h-.875l-1.844-6.344h1.078l1.25 4.75 1.484-4.75h.86l1.515 4.844zm4.563 1.5h-1.078v-6.344h1.078zm-1.172-8.016q0-.265.156-.453.172-.187.485-.187.312 0 .468.187.172.188.172.453 0 .25-.172.438-.156.172-.468.172-.313 0-.485-.172-.156-.188-.156-.438zm4.469.141v1.531h1.172v.844h-1.172v3.922q0 .39.156.578.156.188.531.188.188 0 .516-.063v.875q-.422.125-.828.125-.719 0-1.094-.438-.375-.453-.375-1.265v-3.922h-1.156v-.844h1.156v-1.531zm3.61 2.297q.718-.875 1.874-.875 2.016 0 2.031 2.265v4.188h-1.093v-4.203q0-.672-.313-1-.297-.328-.953-.328-.531 0-.937.281-.391.281-.61.734v4.516h-1.078v-9h1.078v3.422zm-43.61 12.703v1.531h1.172v.844h-1.172v3.922q0 .39.156.578.156.188.531.188.188 0 .516-.063v.875q-.422.125-.828.125-.719 0-1.094-.438-.375-.453-.375-1.265v-3.922h-1.156v-.844h1.156v-1.531zm5.594 2.5q-.25-.031-.532-.031-1.078 0-1.453.906v4.5h-1.078v-6.344h1.047l.016.735q.53-.844 1.515-.844.313 0 .485.078zm4.843 5.375q-.093-.188-.156-.672-.75.797-1.797.797-.937 0-1.547-.531-.593-.531-.593-1.36 0-.984.75-1.53.75-.548 2.125-.548h1.046v-.5q0-.562-.343-.89-.328-.344-1-.344-.578 0-.97.297-.39.281-.39.703h-1.093q0-.485.328-.922.343-.438.922-.688.578-.265 1.265-.265 1.11 0 1.719.547.625.547.656 1.5v2.922q0 .875.219 1.39v.094h-1.14zm-1.797-.828q.516 0 .97-.266.452-.265.655-.687v-1.297h-.843q-2 0-2 1.172 0 .5.343.797.344.28.875.28zm10.235-2.266q0 1.438-.656 2.328-.657.891-1.797.891-1.157 0-1.813-.734v3.046h-1.078v-8.78h.984l.047.702q.672-.812 1.844-.812 1.14 0 1.797.86.672.859.672 2.39v.11zm-1.078-.125q0-1.078-.47-1.687-.452-.625-1.25-.625-.983 0-1.468.86v3.03q.485.875 1.485.875.78 0 1.234-.609.469-.625.469-1.844z" fill="#757575"/><path d="m501.45 21.05a1 1 0 0 1 1-1h10a1 1 0 0 1 1 1v10a1 1 0 0 1 -1 1h-10a1 1 0 0 1 -1-1z" fill="#4285f4"/><path d="m528.716 27.847q-.157 1.344-1 2.094-.844.734-2.235.734-1.515 0-2.422-1.078-.906-1.094-.906-2.922v-.813q0-1.187.422-2.093.422-.906 1.203-1.39.781-.485 1.797-.485 1.36 0 2.172.765.828.766.969 2.094h-1.125q-.157-1.015-.641-1.469-.484-.453-1.375-.453-1.078 0-1.688.797-.609.797-.609 2.266v.828q0 1.39.578 2.219.578.812 1.625.812.938 0 1.438-.422.5-.437.672-1.484zm2.64-2.875q.719-.875 1.875-.875 2.016 0 2.032 2.265v4.188h-1.094v-4.203q0-.672-.313-1-.297-.328-.953-.328-.531 0-.937.281-.391.281-.61.734v4.516h-1.078v-9h1.078zm8.985.203q-.25-.031-.532-.031-1.078 0-1.453.906v4.5h-1.078v-6.344h1.047l.016.735q.53-.844 1.515-.844.313 0 .485.078zm.64 2.14q0-.921.36-1.671.375-.75 1.03-1.14.657-.407 1.485-.407 1.297 0 2.094.89.813.891.813 2.391v.078q0 .922-.36 1.657-.36.734-1.015 1.156-.657.406-1.516.406-1.281 0-2.094-.89-.797-.907-.797-2.391v-.078zm1.094.141q0 1.047.484 1.688.5.64 1.313.64.828 0 1.312-.64.485-.656.485-1.828 0-1.032-.5-1.672-.485-.656-1.313-.656-.797 0-1.297.64-.484.625-.484 1.828zm7.219-3.25.031.703q.688-.812 1.875-.812 1.328 0 1.813 1.015.312-.453.812-.734.516-.281 1.203-.281 2.094 0 2.125 2.203v4.25h-1.078v-4.188q0-.671-.313-1-.312-.343-1.046-.343-.61 0-1.016.36-.39.358-.453.968v4.203h-1.078v-4.156q0-1.375-1.36-1.375-1.062 0-1.453.906v4.625h-1.093v-6.344h1.03zm12.61 6.469q-1.298 0-2.11-.844-.797-.86-.797-2.281v-.188q0-.953.36-1.687.359-.75 1-1.156.656-.422 1.406-.422 1.234 0 1.921.812.688.813.688 2.329v.453h-4.297q.031.937.547 1.515.531.578 1.344.578.562 0 .953-.234.406-.234.719-.625l.656.516q-.797 1.234-2.39 1.234zm-.141-5.688q-.657 0-1.11.485-.437.469-.531 1.328h3.172v-.078q-.047-.828-.453-1.281-.391-.453-1.078-.453zm10.656-2.968v.906h-.203q-1.266.031-2.016.766-.75.718-.875 2.03.688-.765 1.844-.765 1.11 0 1.781.782.672.78.672 2.03 0 1.313-.719 2.11-.719.797-1.937.797-1.22 0-1.985-.938-.75-.953-.75-2.437v-.406q0-2.36 1-3.61t2.985-1.265zm-1.422 3.844q-.563 0-1.031.328-.47.328-.657.843v.391q0 1.063.47 1.703.484.64 1.187.64.734 0 1.156-.53.422-.547.422-1.422 0-.875-.422-1.407-.422-.546-1.125-.546zm7.719 4.687h-1.078v-7.219l-2.188.797v-.984l3.11-1.172h.156z" fill="#757575"/><path d="m501.45 46.05a1 1 0 0 1 1-1h10a1 1 0 0 1 1 1v10a1 1 0 0 1 -1 1h-10a1 1 0 0 1 -1-1z" fill="#0f9d58"/><path d="m528.716 52.847q-.157 1.344-1 2.094-.844.734-2.235.734-1.515 0-2.422-1.078-.906-1.094-.906-2.922v-.813q0-1.187.422-2.093.422-.907 1.203-1.39.781-.485 1.797-.485 1.36 0 2.172.765.828.766.969 2.094h-1.125q-.157-1.016-.641-1.469-.484-.453-1.375-.453-1.078 0-1.688.797-.609.797-.609 2.266v.828q0 1.39.578 2.219.578.812 1.625.812.938 0 1.438-.422.5-.437.672-1.484zm2.64-2.875q.719-.875 1.875-.875 2.016 0 2.032 2.265v4.188h-1.094v-4.203q0-.672-.313-1-.297-.328-.953-.328-.531 0-.937.281-.391.281-.61.734v4.516h-1.078v-9h1.078zm8.985.203q-.25-.031-.532-.031-1.078 0-1.453.906v4.5h-1.078v-6.344h1.047l.016.735q.53-.844 1.515-.844.313 0 .485.078zm.64 2.14q0-.921.36-1.671.375-.75 1.03-1.14.657-.407 1.485-.407 1.297 0 2.094.89.813.891.813 2.391v.078q0 .922-.36 1.656-.36.735-1.015 1.157-.657.406-1.516.406-1.281 0-2.094-.89-.797-.907-.797-2.391v-.078zm1.094.141q0 1.047.484 1.688.5.64 1.313.64.828 0 1.312-.64.485-.657.485-1.828 0-1.032-.5-1.672-.485-.657-1.313-.657-.797 0-1.297.641-.484.625-.484 1.828zm7.219-3.25.031.703q.688-.812 1.875-.812 1.328 0 1.813 1.015.312-.453.812-.734.516-.281 1.203-.281 2.094 0 2.125 2.203v4.25h-1.078v-4.188q0-.671-.313-1-.312-.343-1.046-.343-.61 0-1.016.36-.39.358-.453.968v4.203h-1.078v-4.156q0-1.375-1.36-1.375-1.062 0-1.453.906v4.625h-1.093v-6.344h1.03zm12.61 6.469q-1.298 0-2.11-.844-.797-.86-.797-2.281v-.188q0-.953.36-1.687.359-.75 1-1.156.656-.422 1.406-.422 1.234 0 1.921.812.688.813.688 2.328v.454h-4.297q.031.937.547 1.515.531.578 1.344.578.562 0 .953-.234.406-.234.719-.625l.656.516q-.797 1.234-2.39 1.234zm-.141-5.688q-.657 0-1.11.485-.437.469-.531 1.328h3.172v-.078q-.047-.828-.453-1.281-.391-.454-1.078-.454zm10.656-2.968v.906h-.203q-1.266.031-2.016.766-.75.718-.875 2.03.688-.765 1.844-.765 1.11 0 1.781.781.672.782.672 2.032 0 1.312-.719 2.11-.719.796-1.937.796-1.22 0-1.985-.938-.75-.953-.75-2.437v-.406q0-2.36 1-3.61t2.985-1.265zm-1.422 3.843q-.563 0-1.031.329-.47.328-.657.843v.391q0 1.063.47 1.703.484.64 1.187.64.734 0 1.156-.53.422-.547.422-1.422 0-.875-.422-1.407-.422-.547-1.125-.547zm9.75 4.688h-5.594v-.781l2.953-3.282q.657-.75.907-1.203.25-.468.25-.968 0-.672-.407-1.094-.39-.438-1.078-.438-.797 0-1.25.47-.453.452-.453 1.28h-1.078q0-1.187.75-1.906.766-.734 2.031-.734 1.203 0 1.89.625.688.625.688 1.672 0 1.25-1.61 3l-2.28 2.468h4.28v.891z" fill="#757575"/></svg>