<svg fill="none" height="271" stroke-linecap="square" stroke-miterlimit="10" width="600" xmlns="http://www.w3.org/2000/svg" xmlns:xlink="http://www.w3.org/1999/xlink"><clipPath id="a"><path d="m63.55 13.55h450.64v192.9h-450.64z"/></clipPath><path d="m0 0h600v271h-600z" fill="#fff"/><path d="m63.5 13.5v193" stroke="#333" stroke-linecap="butt"/><path d="m213.5 13.5v193m150-193v193m151-193v193" stroke="#ccc" stroke-linecap="butt"/><path clip-path="url(#a)" d="m64 68v-26h171a2 2 0 0 1 2 2v22a2 2 0 0 1 -2 2z"/><path clip-path="url(#a)" d="m64 68v-26h171a2 2 0 0 1 2 2v22a2 2 0 0 1 -2 2z" fill="#6d9eeb"/><path clip-path="url(#a)" d="m64 150v-26h416a2 2 0 0 1 2 2v22a2 2 0 0 1 -2 2z"/><path clip-path="url(#a)" d="m64 150v-26h416a2 2 0 0 1 2 2v22a2 2 0 0 1 -2 2z" fill="#6d9eeb"/><path clip-path="url(#a)" d="m64 95v-26h162a2 2 0 0 1 2 2v22a2 2 0 0 1 -2 2z"/><path clip-path="url(#a)" d="m64 95v-26h162a2 2 0 0 1 2 2v22a2 2 0 0 1 -2 2z" fill="#1c4587"/><path clip-path="url(#a)" d="m64 177v-26h345a2 2 0 0 1 2 2v22a2 2 0 0 1 -2 2z"/><path clip-path="url(#a)" d="m64 177v-26h345a2 2 0 0 1 2 2v22a2 2 0 0 1 -2 2z" fill="#1c4587"/><path d="m135.698 252.216h-3.453l-1.172 2.234h-1.172l4.625-8.531h.969l1.688 8.531h-1.079zm-2.969-.922h2.797l-.703-3.969zm8.125 1.672 2.282-4.86h1.125l-3.188 6.344h-.812l-1.25-6.344h1.047zm6.438 1.609q-1.188-.031-1.86-.875-.656-.86-.546-2.188l.03-.25q.095-.937.548-1.718.469-.782 1.125-1.172.672-.39 1.437-.375.969.015 1.531.64.563.625.61 1.704.016.375-.031.765l-.063.485h-4.14q-.11.859.28 1.468.391.594 1.173.625.937.016 1.734-.843l.61.515q-.407.578-1.032.906-.625.313-1.406.313zm.672-5.703q-.656-.016-1.14.453-.485.453-.782 1.375h3.094l.015-.094q.094-.734-.234-1.219-.328-.5-.953-.515zm6.531.203-.5-.047q-1.016 0-1.61.922l-.765 4.5h-1.063l1.094-6.344h1.031l-.156.735q.672-.891 1.578-.86.203 0 .516.094zm3.938 5.375q-.047-.172-.047-.328l.015-.344q-.86.813-1.844.797-.843-.016-1.374-.531-.516-.532-.47-1.313.063-1 .876-1.562.828-.563 2.172-.563h1.109l.078-.5q.047-.578-.234-.906-.266-.328-.828-.344-.547-.015-.97.266-.405.281-.5.734l-1.077.016q.062-.563.437-.985.375-.437.969-.671.61-.235 1.25-.235.984.031 1.531.61.563.578.469 1.53l-.516 3.141-.03.454q-.017.312.077.64l-.015.094zm-1.672-.828q.515.015.968-.235.453-.25.782-.703l.234-1.312h-.813q-1 0-1.53.312-.532.313-.594.891-.063.453.203.75.265.297.75.297zm4.109-2.36q.14-1.03.547-1.796.422-.766 1.016-1.125.609-.375 1.328-.36 1.093.031 1.656.844l.219-.719h.968l-1.047 6.203q-.171 1.22-1 1.938-.812.734-2 .703-.64-.016-1.234-.313-.594-.28-.922-.796l.594-.641q.578.844 1.516.875.765.016 1.28-.438.532-.437.704-1.265l.11-.563q-.766.782-1.813.766-.594-.031-1.031-.328-.422-.297-.672-.86-.235-.578-.266-1.28 0-.36.047-.845zm1.016.61q-.016.844.28 1.297.313.453.938.484.953.016 1.641-.937l.5-2.907q-.36-.875-1.281-.906-.86-.016-1.422.719-.547.719-.64 1.953zm8.406 2.703q-1.188-.031-1.86-.875-.656-.86-.546-2.188l.03-.25q.095-.937.548-1.718.469-.782 1.125-1.172.672-.39 1.437-.375.969.015 1.531.64.563.625.61 1.704.016.375-.031.765l-.063.485h-4.14q-.11.859.28 1.468.391.594 1.173.625.937.016 1.734-.843l.61.515q-.407.578-1.032.906-.625.313-1.406.313zm.672-5.703q-.656-.016-1.14.453-.485.453-.782 1.375h3.094l.015-.094q.094-.734-.234-1.219-.328-.5-.953-.515zm9.515 3.86q.094-.657-.718-.923l-1.11-.328q-1.39-.484-1.344-1.594.047-.828.766-1.359.719-.547 1.703-.531.953 0 1.547.562.61.547.594 1.422l-1.063-.015q.016-.47-.297-.766-.312-.297-.828-.313-.547-.015-.937.266-.375.266-.438.703-.078.547.672.797l.531.14q1.094.282 1.547.735.47.453.422 1.125-.031.594-.39 1.031-.344.438-.938.672-.578.235-1.234.219-1.016-.016-1.672-.594-.656-.578-.625-1.484h1.062q0 .531.328.86.344.312.938.312.578.015 1-.235.422-.25.484-.703zm3.22 1.718h-1.048l1.094-6.344h1.063l-1.11 6.344zm.874-8.656q.266-.016.438.156.187.172.187.453t-.172.469q-.172.172-.453.187-.281 0-.453-.172-.172-.171-.172-.437.016-.281.172-.453.172-.188.453-.203zm2.172 7.765h3.563l-.157.891h-4.89l.14-.844 4.156-4.594h-3.312l.172-.906h4.656l-.14.828zm7.547 1.016q-1.188-.031-1.86-.875-.656-.86-.546-2.188l.03-.25q.095-.937.548-1.718.469-.782 1.125-1.172.672-.39 1.437-.375.969.015 1.531.64.563.625.61 1.704.016.375-.031.765l-.063.485h-4.14q-.11.859.28 1.468.391.594 1.173.625.937.016 1.734-.843l.61.515q-.407.578-1.032.906-.625.313-1.406.313zm.672-5.703q-.656-.016-1.14.453-.485.453-.782 1.375h3.094l.015-.094q.094-.734-.234-1.219-.328-.5-.953-.515zm9.11-.875q.796 0 1.358.422.579.422.844 1.172.281.734.188 1.625l-.016.125q-.11.921-.547 1.671-.437.75-1.14 1.172-.688.407-1.532.391-.78-.016-1.359-.438-.563-.421-.828-1.14-.266-.735-.188-1.61.078-.984.516-1.765.453-.797 1.156-1.219.703-.437 1.547-.406zm-2.157 3.39q-.047.375 0 .766.062.703.406 1.11.36.406.953.421.531.016.969-.25.453-.28.75-.843.313-.563.39-1.25.048-.547.032-.907-.078-.718-.438-1.125-.359-.406-.953-.437-.812-.016-1.39.656-.578.656-.703 1.734zm6.156 3.063.953-5.5h-.969l.141-.844h.969l.11-.75q.156-.953.734-1.484.625-.563 1.578-.563.297 0 .75.11l-.125.875q-.281-.047-.578-.063-.547 0-.891.344t-.422.906l-.094.625h1.313l-.14.844h-1.313l-.953 5.5zm7.625 0h-1.047l1.547-9h1.063zm3 0h-1.047l1.094-6.344h1.063zm.875-8.656q.266-.016.438.156.187.172.187.453t-.172.469q-.172.172-.453.187-.281 0-.453-.172-.172-.171-.172-.437.016-.281.172-.453.172-.188.453-.203zm3.281 7.172 2.282-4.86h1.125l-3.188 6.344h-.812l-1.25-6.344h1.047zm6.438 1.609q-1.188-.031-1.86-.875-.656-.86-.546-2.188l.03-.25q.095-.937.548-1.718.469-.782 1.125-1.172.672-.39 1.437-.375.969.015 1.531.64.563.625.61 1.704.016.375-.031.765l-.063.485h-4.14q-.11.859.28 1.468.391.594 1.173.625.937.016 1.734-.843l.61.515q-.407.578-1.032.906-.625.313-1.406.313zm.672-5.703q-.656-.016-1.14.453-.485.453-.782 1.375h3.094l.015-.094q.094-.734-.234-1.219-.328-.5-.953-.515zm9.11-.875q.796 0 1.358.422.579.422.844 1.172.281.734.188 1.625l-.016.125q-.11.921-.547 1.671-.437.75-1.14 1.172-.688.407-1.532.391-.78-.016-1.359-.438-.563-.421-.828-1.14-.266-.735-.188-1.61.078-.984.516-1.765.453-.797 1.156-1.219.703-.437 1.547-.406zm-2.157 3.39q-.047.375 0 .766.062.703.406 1.11.36.406.953.421.531.016.969-.25.453-.28.75-.843.313-.563.39-1.25.048-.547.032-.907-.078-.718-.438-1.125-.359-.406-.953-.437-.812-.016-1.39.656-.578.656-.703 1.734zm11.39-.078q-.124.97-.546 1.75-.407.782-1 1.157-.594.375-1.313.359-1.14-.031-1.703-.86l-.219.735h-.969l1.563-9h1.063l-.641 3.36q.766-.844 1.844-.813.922.015 1.422.672.515.64.546 1.797 0 .375-.03.718zm-1.015-.609q.031-.86-.281-1.313-.297-.453-.938-.484-.984-.016-1.672 1l-.469 2.766q.344.953 1.313.984.625.016 1.094-.375.469-.39.703-1.094.234-.703.25-1.484zm4.453-2.594-1.203 7.094q-.11.906-.594 1.375t-1.266.453q-.312-.016-.703-.11l.094-.874q.219.047.5.062.75 0 .906-.906l1.203-7.094zm-.875-1.656q0-.281.172-.453.172-.188.453-.203.266-.016.438.172.187.171.187.437 0 .281-.188.469-.171.172-.453.172-.25.015-.437-.157-.172-.171-.172-.437zm4.422 8.125q-1.188-.031-1.86-.875-.656-.86-.546-2.188l.03-.25q.095-.937.548-1.718.469-.782 1.125-1.172.672-.39 1.437-.375.969.015 1.531.64.563.625.61 1.704.016.375-.031.765l-.063.485h-4.14q-.11.859.28 1.468.391.594 1.173.625.937.016 1.734-.843l.61.515q-.407.578-1.032.906-.625.313-1.406.313zm.672-5.703q-.656-.016-1.14.453-.485.453-.782 1.375h3.094l.015-.094q.094-.734-.234-1.219-.328-.5-.953-.515zm5.265 4.812q.563.016 1.016-.328.469-.344.61-.906h1q-.094.594-.485 1.094-.375.484-.969.765-.594.282-1.219.266-.796-.016-1.343-.422-.547-.406-.813-1.125-.25-.719-.156-1.61l.016-.296q.125-.906.546-1.625.422-.719 1.094-1.125.688-.406 1.5-.375 1 .015 1.594.672.594.64.594 1.625h-.985q-.015-.625-.359-1-.328-.39-.89-.422-.829-.016-1.376.625-.546.625-.687 1.765l-.016.157q-.031.375 0 .765.031.688.375 1.094.344.39.953.406zm6.125-7.109-.265 1.531h1.156l-.156.844h-1.14l-.673 3.938q-.015.156 0 .28.047.454.5.454.188 0 .516-.047l-.078.875q-.39.11-.781.11-.625-.016-.954-.47-.312-.453-.234-1.218l.64-3.922h-1.124l.156-.844h1.11l.265-1.531zm5.125 6.156q.094-.656-.718-.922l-1.11-.328q-1.39-.484-1.344-1.594.047-.828.766-1.359.719-.547 1.703-.531.953 0 1.547.562.61.547.594 1.422l-1.063-.015q.016-.47-.296-.766-.313-.297-.829-.313-.546-.015-.937.266-.375.266-.438.703-.078.547.672.797l.531.14q1.094.282 1.547.735.47.453.422 1.125-.031.594-.39 1.031-.344.438-.938.672-.578.235-1.234.219-1.016-.016-1.672-.594-.656-.578-.625-1.484h1.062q0 .531.329.86.343.312.937.312.578.015 1-.235.422-.25.484-.703zm8.954 1.719q-.047-.172-.047-.328l.015-.344q-.86.813-1.844.797-.843-.016-1.375-.531-.515-.532-.468-1.313.062-1 .875-1.562.828-.563 2.172-.563h1.109l.078-.5q.047-.578-.234-.906-.266-.328-.828-.344-.547-.015-.97.266-.405.281-.5.734l-1.077.016q.062-.563.437-.985.375-.437.969-.671.61-.235 1.25-.235.984.031 1.531.61.563.578.469 1.53l-.516 3.141-.03.454q-.017.312.077.64l-.015.094h-1.079zm-1.672-.828q.515.015.968-.235.454-.25.782-.703l.234-1.312h-.813q-1 0-1.53.312-.532.313-.594.891-.063.453.203.75.265.297.75.297zm4.312.828.953-5.5h-.969l.141-.844h.969l.11-.75q.156-.953.734-1.484.625-.563 1.578-.563.297 0 .75.11l-.125.875q-.281-.047-.578-.063-.547 0-.891.344t-.422.906l-.094.625h1.313l-.14.844h-1.313l-.953 5.5zm6.281-7.875-.265 1.531h1.156l-.156.844h-1.14l-.673 3.938q-.015.156 0 .28.047.454.5.454.188 0 .516-.047l-.078.875q-.39.11-.781.11-.625-.016-.954-.47-.312-.453-.234-1.218l.64-3.922h-1.124l.156-.844h1.11l.265-1.531zm3.938 8q-1.188-.031-1.86-.875-.656-.86-.546-2.188l.03-.25q.095-.937.548-1.718.469-.782 1.125-1.172.672-.39 1.437-.375.969.015 1.531.64.563.625.61 1.704.016.375-.031.765l-.063.485h-4.14q-.11.859.28 1.468.391.594 1.173.625.937.016 1.734-.843l.61.515q-.407.578-1.032.906-.625.313-1.406.313zm.672-5.703q-.656-.016-1.14.453-.485.453-.782 1.375h3.094l.015-.094q.094-.734-.234-1.219-.328-.5-.953-.515zm6.531.203-.5-.047q-1.016 0-1.61.922l-.765 4.5h-1.063l1.094-6.344h1.031l-.156.735q.672-.891 1.578-.86.204 0 .516.094zm9.594 4.25q-.422.61-1.25.938-.813.312-1.86.312-.843-.031-1.468-.406t-.985-1.063q-.36-.703-.406-1.594-.047-.703.172-1.89.219-1.188.75-2.047.531-.875 1.328-1.328.797-.469 1.828-.453 1.203.031 1.906.718.704.672.797 1.907h-1.078q-.078-.797-.5-1.235-.422-.437-1.156-.453-1.11-.047-1.86.797-.734.828-.968 2.422l-.11.813-.015.453q0 1.156.469 1.78.484.626 1.343.641 1.235.032 1.953-.609l.36-1.906h-1.922l.156-.922h3zm8.125-1.594q-.235 1.328-1.188 2.11-.953.765-2.281.734-.797-.031-1.39-.39-.594-.376-.923-1.079-.328-.703-.359-1.547-.015-.484.047-.937l.094-.703q.281-1.922 1.344-3.032 1.078-1.109 2.625-1.093 1.203.031 1.906.781.703.75.734 2.094h-1.094q-.078-1.797-1.406-1.938l-.187-.015q-1.11-.032-1.86.828-.734.86-.953 2.328l-.125.89-.031.516q-.031 1.078.375 1.719.422.625 1.25.656.89.016 1.469-.437.593-.454.89-1.47zm5.265 1q.094-.656-.718-.922l-1.11-.328q-1.39-.484-1.344-1.594.047-.828.766-1.359.719-.547 1.703-.531.953 0 1.547.562.61.547.594 1.422l-1.063-.015q.016-.47-.296-.766-.313-.297-.829-.313-.546-.015-.937.266-.375.266-.438.703-.078.547.672.797l.531.14q1.094.282 1.547.735.47.453.422 1.125-.031.594-.39 1.031-.344.438-.938.672-.578.235-1.234.219-1.016-.016-1.672-.594-.656-.578-.625-1.484h1.062q0 .531.329.86.343.312.937.312.578.015 1-.235.422-.25.484-.703zm6.22 1.719h-1.048l1.094-6.344h1.063l-1.11 6.344zm.874-8.656q.266-.016.438.156.187.172.187.453t-.172.469q-.172.172-.453.187-.281 0-.453-.172-.172-.171-.172-.437.016-.281.172-.453.172-.188.453-.203zm3.078 2.312-.14.797q.843-.937 1.937-.906.89.015 1.313.625.437.594.328 1.672l-.688 4.156h-1.062l.703-4.172q.031-.281 0-.531-.094-.828-.969-.844-.953-.016-1.672 1.016l-.781 4.531h-1.063l1.094-6.344zm9.938-2.187 1.5 6.953 3.906-6.953h1.453l-1.484 8.531h-1.094l.578-3.375.703-3.438-3.875 6.813h-.844l-1.515-6.938-.531 3.672-.563 3.266h-1.11l1.485-8.531h1.39zm8.11 8.531h-1.048l1.094-6.344h1.063l-1.11 6.344zm.874-8.656q.266-.016.438.156.187.172.187.453t-.172.469q-.172.172-.453.187-.281 0-.453-.172-.172-.171-.172-.437.016-.281.172-.453.172-.188.453-.203zm1.14 8.656 1.485-8.531h2.5q1.313 0 1.953.593.656.579.578 1.625-.109 1.235-1.546 1.86.578.219.859.765.281.532.234 1.172-.094 1.157-.937 1.844-.828.672-2.156.672zm1.798-3.984-.532 3.062h1.735q.797 0 1.328-.422.547-.422.64-1.156.079-.688-.25-1.078-.312-.39-1-.406zm.156-.907h1.594q.734 0 1.25-.375.515-.39.609-1.047.063-.625-.25-.937-.313-.328-1.063-.344l-1.671-.015-.47 2.718zm8.484 1.453q.188-1.359.703-2.64.532-1.281 1.297-2.188.766-.906 1.703-1.375l.157.735q-.922.687-1.579 1.797-.656 1.093-1.015 2.625-.36 1.515-.344 2.984 0 1.219.313 2.14.312.922.906 1.454l-.266.656q-.984-.672-1.5-2.016-.515-1.328-.469-3.03.016-.563.079-1.079zm4.547 3.438h-1.047l1.547-9h1.063zm5.375-6.453q.797 0 1.36.422.578.422.843 1.172.281.734.188 1.625l-.016.125q-.11.921-.547 1.671-.437.75-1.14 1.172-.688.407-1.532.391-.78-.016-1.359-.438-.563-.421-.828-1.14-.266-.735-.188-1.61.079-.984.516-1.765.453-.797 1.156-1.219.703-.437 1.547-.406zm-2.156 3.39q-.047.375 0 .766.062.703.406 1.11.36.406.953.421.531.016.969-.25.453-.28.75-.843.313-.563.39-1.25.048-.547.032-.907-.078-.718-.438-1.125-.359-.406-.953-.437-.812-.016-1.39.656-.579.656-.704 1.734zm11.328 1.563 2.016-4.844h1.093l-2.89 6.344h-.86l-.656-4.797-2.281 4.797h-.86l-.687-6.344h1.016l.39 4.719 2.25-4.719h.844zm6.047 1.625q-1.188-.031-1.86-.875-.656-.86-.546-2.188l.03-.25q.095-.937.548-1.718.469-.782 1.125-1.172.672-.39 1.437-.375.969.015 1.531.64.563.625.61 1.704.016.375-.031.765l-.063.485h-4.14q-.11.859.28 1.468.391.594 1.173.625.937.016 1.734-.843l.61.515q-.407.578-1.032.906-.625.313-1.406.313zm.672-5.703q-.656-.016-1.14.453-.485.453-.782 1.375h3.094l.015-.094q.094-.734-.234-1.219-.328-.5-.953-.515zm6.531.203-.5-.047q-1.016 0-1.61.922l-.765 4.5h-1.063l1.094-6.344h1.031l-.156.735q.672-.891 1.578-.86.204 0 .516.094zm4.203 5.375h-1.047l1.094-6.344h1.063zm.875-8.656q.266-.016.438.156.187.172.187.453t-.172.469q-.172.172-.453.187-.281 0-.453-.172-.172-.171-.172-.437.016-.281.172-.453.172-.188.453-.203zm4.906 6.937q.094-.656-.718-.922l-1.11-.328q-1.39-.484-1.344-1.594.047-.828.766-1.359.719-.547 1.703-.531.953 0 1.547.562.61.547.594 1.422l-1.063-.015q.016-.47-.296-.766-.313-.297-.829-.313-.546-.015-.937.266-.375.266-.438.703-.078.547.672.797l.531.14q1.094.282 1.547.735.47.453.422 1.125-.031.594-.39 1.031-.344.438-.938.672-.578.235-1.234.219-1.016-.016-1.672-.594-.656-.578-.625-1.484h1.062q0 .531.329.86.343.312.937.312.578.015 1-.235.422-.25.484-.703zm10.829-1.422q-.125.97-.547 1.75-.407.782-1 1.157-.594.375-1.313.359-1.14-.031-1.703-.86l-.219.735h-.969l1.563-9h1.063l-.641 3.36q.766-.844 1.844-.813.921.015 1.421.672.516.64.547 1.797 0 .375-.03.718l-.017.125zm-1.016-.609q.031-.86-.281-1.313-.297-.453-.938-.484-.984-.016-1.672 1l-.469 2.766q.344.953 1.313.984.625.016 1.094-.375.469-.39.703-1.094.234-.703.25-1.484zm5 3.875q-1.188-.031-1.86-.875-.656-.86-.546-2.188l.03-.25q.095-.937.548-1.718.469-.782 1.125-1.172.672-.39 1.437-.375.969.015 1.531.64.563.625.61 1.704.016.375-.031.765l-.063.485h-4.14q-.11.859.28 1.468.391.594 1.173.625.937.016 1.734-.843l.61.515q-.407.578-1.032.906-.625.313-1.406.313zm.672-5.703q-.656-.016-1.14.453-.485.453-.782 1.375h3.094l.015-.094q.094-.734-.234-1.219-.328-.5-.953-.515zm5.39-2.297-.265 1.531h1.156l-.156.844h-1.14l-.673 3.938q-.015.156 0 .28.047.454.5.454.188 0 .516-.047l-.078.875q-.39.11-.781.11-.625-.016-.954-.47-.312-.453-.234-1.218l.64-3.922h-1.124l.156-.844h1.11l.265-1.531zm4 0-.265 1.531h1.156l-.156.844h-1.14l-.673 3.938q-.015.156 0 .28.047.454.5.454.188 0 .516-.047l-.078.875q-.39.11-.781.11-.625-.016-.954-.47-.312-.453-.234-1.218l.64-3.922h-1.124l.156-.844h1.11l.265-1.531zm3.938 8q-1.188-.031-1.86-.875-.656-.86-.546-2.188l.03-.25q.095-.937.548-1.718.469-.782 1.125-1.172.672-.39 1.437-.375.969.015 1.531.64.563.625.61 1.704.016.375-.031.765l-.063.485h-4.14q-.11.859.28 1.468.391.594 1.173.625.937.016 1.734-.843l.61.515q-.407.578-1.032.906-.625.313-1.406.313zm.672-5.703q-.656-.016-1.14.453-.485.453-.782 1.375h3.094l.015-.094q.094-.734-.234-1.219-.328-.5-.953-.515zm6.531.203-.5-.047q-1.016 0-1.61.922l-.765 4.5h-1.063l1.094-6.344h1.031l-.156.735q.672-.891 1.578-.86.204 0 .516.094zm3.078 1.953q-.203 1.422-.75 2.703-.531 1.266-1.281 2.14-.75.876-1.672 1.345l-.156-.672q2-1.516 2.672-4.86.28-1.359.265-2.609-.031-2.5-1.219-3.594l.282-.656q.656.453 1.11 1.219.452.75.655 1.765.22 1 .204 2.078-.032.563-.094 1.063z" fill="#999"/><path d="m20.253 71.223h-3.578l-.797 2.234h-1.156l3.25-8.53h.984l3.266 8.53h-1.156zm-3.234-.922h2.906l-1.453-3.984zm7.375-3.187.031.797q.734-.907 1.906-.907 2.016 0 2.032 2.266v4.187h-1.094v-4.203q0-.672-.313-1-.297-.328-.953-.328-.531 0-.937.281-.391.282-.61.735v4.515h-1.078v-6.343zm5.719 3.125q0-1.47.687-2.344.688-.89 1.812-.89 1.11 0 1.766.75v-3.298h1.078v9h-1l-.047-.687q-.656.812-1.812.812-1.094 0-1.797-.906-.688-.906-.688-2.36v-.077zm1.078.125q0 1.078.437 1.687.453.61 1.234.61 1.032 0 1.516-.938v-2.906q-.484-.89-1.5-.89-.797 0-1.25.609-.437.609-.437 1.828zm9.25-2.282q-.25-.03-.532-.03-1.078 0-1.453.905v4.5h-1.078v-6.343h1.047l.016.734q.53-.844 1.515-.844.313 0 .485.078zm.64 2.141q0-.922.36-1.672.375-.75 1.03-1.14.657-.407 1.485-.407 1.297 0 2.094.89.813.892.813 2.392v.078q0 .922-.36 1.656-.36.734-1.016 1.156-.656.406-1.515.406-1.281 0-2.094-.89-.797-.906-.797-2.39zm1.094.14q0 1.048.484 1.688.5.64 1.313.64.828 0 1.312-.64.485-.656.485-1.828 0-1.031-.5-1.672-.485-.656-1.313-.656-.797 0-1.297.64-.484.626-.484 1.829zm7.375 3.094h-1.078v-6.343h1.078zm-1.172-8.015q0-.266.156-.453.172-.188.485-.188.312 0 .468.188.172.187.172.453 0 .25-.172.437-.156.172-.468.172-.313 0-.485-.172-.156-.187-.156-.437zm2.734 4.797q0-1.47.688-2.344.688-.89 1.813-.89 1.109 0 1.765.75v-3.298h1.078v9h-1l-.047-.687q-.656.812-1.812.812-1.094 0-1.797-.906-.688-.906-.688-2.36zm1.079.125q0 1.078.437 1.687.453.61 1.234.61 1.032 0 1.516-.938v-2.906q-.484-.89-1.5-.89-.797 0-1.25.609-.437.609-.437 1.828zm-37.657 85.179v-8.532h2.422q1.11 0 1.953.5.86.485 1.329 1.39.468.907.468 2.095v.53q0 1.22-.468 2.126-.454.906-1.329 1.39-.859.485-2 .5h-2.375zm1.125-7.61v6.688h1.188q1.297 0 2.015-.797.735-.813.735-2.313v-.5q0-1.453-.688-2.25-.671-.812-1.937-.828zm9.344 7.735q-1.297 0-2.11-.844-.796-.86-.796-2.281v-.188q0-.953.36-1.687.359-.75 1-1.157.655-.422 1.405-.422 1.235 0 1.922.813.688.812.688 2.328v.453h-4.297q.031.938.547 1.516.531.578 1.344.578.562 0 .953-.234.406-.235.719-.625l.656.515q-.797 1.235-2.39 1.235zm-.14-5.688q-.657 0-1.11.484-.437.47-.531 1.329h3.172v-.079q-.047-.828-.453-1.28-.391-.454-1.078-.454zm7.203 3.875q0-.437-.344-.672-.328-.25-1.156-.422-.813-.172-1.297-.422-.485-.25-.719-.578-.219-.343-.219-.812 0-.781.657-1.313.656-.547 1.687-.547 1.078 0 1.734.563.672.547.672 1.406h-1.078q0-.437-.39-.75-.375-.328-.938-.328-.594 0-.938.266-.328.25-.328.656 0 .39.313.594.312.203 1.125.39.812.172 1.312.422t.735.61q.25.359.25.859 0 .86-.688 1.375-.672.516-1.75.516-.765 0-1.36-.266-.577-.281-.905-.766-.328-.484-.328-1.047h1.078q.03.547.437.875.406.313 1.078.313.61 0 .985-.25t.375-.672zm4.078-1.25-.688.703v2.235h-1.078v-9h1.078v5.437l.578-.687 1.985-2.094h1.312l-2.469 2.656 2.766 3.688h-1.281zm5.703-4.937v1.53h1.172v.845h-1.172v3.921q0 .391.156.579.156.187.531.187.188 0 .516-.062v.875q-.422.125-.828.125-.719 0-1.094-.438-.375-.453-.375-1.266v-3.921h-1.156v-.844h1.156v-1.531zm2.234 4.64q0-.922.36-1.672.375-.75 1.03-1.14.657-.407 1.485-.407 1.297 0 2.094.891.813.89.813 2.39v.079q0 .922-.36 1.656-.36.734-1.016 1.156-.656.407-1.515.407-1.281 0-2.094-.891-.797-.906-.797-2.39zm1.094.14q0 1.048.484 1.688.5.64 1.313.64.828 0 1.312-.64.485-.656.485-1.828 0-1.031-.5-1.672-.485-.656-1.313-.656-.797 0-1.297.64-.484.626-.484 1.829zm11.547 0q0 1.438-.656 2.329-.657.89-1.797.89-1.157 0-1.813-.734v3.047h-1.078v-8.78h.984l.047.703q.672-.813 1.844-.813 1.14 0 1.797.86.672.86.672 2.39v.11zm-1.078-.124q0-1.078-.469-1.688-.453-.625-1.25-.625-.984 0-1.469.86v3.03q.485.876 1.485.876.78 0 1.234-.61.469-.624.469-1.843z" fill="#000"/><path d="m65.597 218.419q0 1.578-.547 2.36-.531.765-1.688.765-1.14 0-1.687-.75-.547-.75-.563-2.25v-1.203q0-1.579.532-2.329.547-.765 1.703-.765 1.156 0 1.687.734.547.735.563 2.266zm-.906-1.235q0-1.156-.329-1.672-.312-.53-1.015-.53-.688 0-1.016.53-.312.516-.312 1.594v1.453q0 1.157.328 1.703.344.547 1.015.547.672 0 .985-.515.328-.516.344-1.625zm146.635 4.266h-.906v-6.016l-1.829.657v-.813l2.594-.969h.14v7.141zm7.484-3.031q0 1.578-.547 2.36-.53.765-1.687.765-1.14 0-1.688-.75-.547-.75-.562-2.25v-1.203q0-1.579.531-2.329.547-.765 1.703-.765 1.156 0 1.688.734.547.735.562 2.266zm-.906-1.235q0-1.156-.328-1.672-.313-.53-1.016-.53-.687 0-1.015.53-.313.516-.313 1.594v1.453q0 1.157.328 1.703.344.547 1.016.547t.984-.515q.328-.516.344-1.625zm145.323 4.266h-4.657v-.656l2.454-2.735q.546-.609.75-1 .218-.39.218-.812 0-.547-.343-.906-.329-.36-.891-.36-.672 0-1.047.39-.375.376-.375 1.063h-.906q0-.984.625-1.578.64-.61 1.703-.61.984 0 1.562.516.579.516.579 1.391 0 1.047-1.344 2.5l-1.89 2.063h3.562zm5.797-3.031q0 1.578-.547 2.36-.532.765-1.688.765-1.14 0-1.687-.75-.547-.75-.563-2.25v-1.203q0-1.579.531-2.329.547-.765 1.704-.765 1.156 0 1.687.734.547.735.563 2.266zm-.907-1.235q0-1.156-.328-1.672-.312-.53-1.015-.53-.688 0-1.016.53-.313.516-.313 1.594v1.453q0 1.157.329 1.703.343.547 1.015.547.672 0 .985-.515.328-.516.343-1.625zm141.979.266h.672q.64 0 1-.328.375-.328.375-.89 0-1.25-1.25-1.25-.578 0-.937.343-.344.328-.344.875h-.906q0-.844.625-1.39.625-.563 1.562-.563 1.016 0 1.578.531.578.531.578 1.469 0 .469-.296.906-.297.438-.829.656.594.172.907.61.328.422.328 1.047 0 .953-.625 1.515-.625.563-1.625.563t-1.64-.532q-.626-.546-.626-1.437h.922q0 .563.36.906.359.328.984.328.656 0 1-.343.344-.344.344-.985 0-.61-.391-.937-.375-.344-1.094-.344h-.672zm9.14.969q0 1.578-.546 2.36-.531.765-1.688.765-1.14 0-1.687-.75-.547-.75-.563-2.25v-1.203q0-1.579.532-2.329.547-.765 1.703-.765 1.156 0 1.687.734.547.735.563 2.266v1.172zm-.905-1.235q0-1.156-.328-1.672-.313-.53-1.016-.53-.688 0-1.016.53-.312.516-.312 1.594v1.453q0 1.157.328 1.703.344.547 1.016.547.671 0 .984-.515.328-.516.344-1.625z" fill="#999"/><path d="m530.45 15.55a1 1 0 0 1 1-1h10a1 1 0 0 1 1 1v10a1 1 0 0 1 -1 1h-10a1 1 0 0 1 -1-1z" fill="#6d9eeb"/><path d="m553.95 23.175 2.234-6.453h1.125l-2.906 7.828h-.906l-2.89-7.828h1.109zm8.89-4.406q0 .594-.312 1.047-.297.453-.828.718.61.25.969.766.36.5.36 1.14 0 1.016-.688 1.626-.688.593-1.797.593-1.14 0-1.813-.593-.672-.61-.672-1.625 0-.641.344-1.141.344-.516.953-.781-.515-.25-.828-.703-.297-.47-.297-1.047 0-.985.625-1.563.64-.578 1.688-.578 1.031 0 1.656.578.64.578.64 1.563zm-.812 3.656q0-.656-.422-1.063-.406-.421-1.078-.421t-1.078.406q-.406.406-.406 1.078 0 .656.39 1.047.407.375 1.11.375.687 0 1.078-.375.406-.39.406-1.047zm-1.484-4.984q-.594 0-.953.359-.36.36-.36.984 0 .594.36.97.359.358.953.358t.953-.359q.36-.375.36-.969 0-.593-.376-.968-.375-.375-.937-.375zm8.578 5.765 1.437-4.468h1.016l-2.078 5.812h-.766l-2.11-5.813h1.017l1.484 4.47zm8.031-5.922-3.25 7.266h-1.031l3.219-7h-4.235v-.828h5.297zm1.078 6.75q0-.265.14-.437.157-.172.454-.172.313 0 .469.172.172.172.172.437 0 .235-.172.407-.156.172-.469.172-.297 0-.453-.172-.14-.172-.14-.407zm4.313-3.875h.75q.703-.015 1.094-.375.406-.359.406-.968 0-1.375-1.36-1.375-.64 0-1.03.375-.391.359-.391.968h-.985q0-.937.672-1.546.688-.61 1.734-.61 1.11 0 1.735.594.625.578.625 1.61 0 .515-.328 1-.328.468-.907.702.657.204 1 .688.36.469.36 1.14 0 1.063-.688 1.688-.687.61-1.797.61-1.093 0-1.796-.594-.688-.594-.688-1.578h1q0 .625.406 1 .407.359 1.078.359.72 0 1.094-.375.39-.375.39-1.078 0-.688-.421-1.047-.422-.375-1.203-.375h-.75z" fill="#666"/><path d="m530.45 39.55a1 1 0 0 1 1-1h10a1 1 0 0 1 1 1v10a1 1 0 0 1 -1 1h-10a1 1 0 0 1 -1-1z" fill="#1c4587"/><path d="m553.95 47.175 2.234-6.453h1.125l-2.906 7.828h-.906l-2.89-7.828h1.109zm8.89-4.406q0 .593-.312 1.047-.297.453-.828.718.61.25.969.766.36.5.36 1.14 0 1.016-.688 1.626-.688.593-1.797.593-1.14 0-1.813-.593-.672-.61-.672-1.625 0-.641.344-1.141.344-.516.953-.781-.515-.25-.828-.703-.297-.47-.297-1.047 0-.985.625-1.563.64-.578 1.688-.578 1.031 0 1.656.578.64.578.64 1.563zm-.812 3.656q0-.656-.422-1.063-.406-.421-1.078-.421t-1.078.406q-.406.406-.406 1.078 0 .656.39 1.047.407.375 1.11.375.687 0 1.078-.375.406-.39.406-1.047zm-1.484-4.984q-.594 0-.953.359-.36.36-.36.984 0 .594.36.97.359.358.953.358t.953-.359q.36-.375.36-.969 0-.593-.376-.968-.375-.375-.937-.375zm8.578 5.765 1.437-4.469h1.016l-2.078 5.813h-.766l-2.11-5.813h1.017l1.484 4.47zm8.031-5.922-3.25 7.266h-1.031l3.219-7h-4.235v-.828h5.297zm1.078 6.75q0-.265.14-.437.157-.172.454-.172.313 0 .469.172.172.172.172.437 0 .235-.172.407-.156.171-.469.171-.297 0-.453-.171-.14-.172-.14-.407zm7.063-2.109h1.094v.813h-1.094v1.812h-1v-1.813h-3.563v-.593l3.5-5.422h1.063zm-3.438 0h2.438v-3.844l-.11.219z" fill="#666"/></svg>