<svg version="1.1" viewBox="0.0 0.0 600.0 371.0" fill="none" stroke="none" stroke-linecap="square" stroke-miterlimit="10" width="600" height="371" xmlns:xlink="http://www.w3.org/1999/xlink" xmlns="http://www.w3.org/2000/svg"><path fill="#ffffff" d="M0 0L600.0 0L600.0 371.0L0 371.0L0 0Z" fill-rule="nonzero"/><path stroke="#000000" stroke-width="1.0" stroke-linecap="butt" stroke-opacity="0.0" d="M158.5 18.5L158.5 371.5" fill-rule="nonzero"/><path stroke="#000000" stroke-width="1.0" stroke-linecap="butt" stroke-opacity="0.0" d="M197.5 18.5L197.5 371.5" fill-rule="nonzero"/><path stroke="#000000" stroke-width="1.0" stroke-linecap="butt" stroke-opacity="0.0" d="M274.5 18.5L274.5 371.5" fill-rule="nonzero"/><path stroke="#000000" stroke-width="1.0" stroke-linecap="butt" stroke-opacity="0.0" d="M312.5 18.5L312.5 371.5" fill-rule="nonzero"/><path stroke="#000000" stroke-width="1.0" stroke-linecap="butt" stroke-opacity="0.0" d="M389.5 18.5L389.5 371.5" fill-rule="nonzero"/><path stroke="#000000" stroke-width="1.0" stroke-linecap="butt" stroke-opacity="0.0" d="M427.5 18.5L427.5 371.5" fill-rule="nonzero"/><path stroke="#000000" stroke-width="1.0" stroke-linecap="butt" stroke-opacity="0.0" d="M504.5 18.5L504.5 371.5" fill-rule="nonzero"/><path stroke="#000000" stroke-width="1.0" stroke-linecap="butt" stroke-opacity="0.0" d="M543.5 18.5L543.5 371.5" fill-rule="nonzero"/><clipPath id="id_0"><path d="M120.59102 18.55L581.45 18.55L581.45 371.0L120.59102 371.0L120.59102 18.55Z" clip-rule="nonzero"/></clipPath><path stroke="#000000" stroke-width="2.0" stroke-linecap="butt" stroke-opacity="0.0" clip-path="url(#id_0)" d="M121.0 119.0L121.0 72.0L318.0 72.0C319.10458 72.0 320.0 72.89543 320.0 74.0L320.0 117.0C320.0 118.10457 319.10458 119.0 318.0 119.0Z" fill-rule="nonzero"/><path fill="#4285f4" clip-path="url(#id_0)" d="M121.0 119.0L121.0 72.0L318.0 72.0C319.10458 72.0 320.0 72.89543 320.0 74.0L320.0 117.0C320.0 118.10457 319.10458 119.0 318.0 119.0Z" fill-rule="nonzero"/><path stroke="#000000" stroke-width="2.0" stroke-linecap="butt" stroke-opacity="0.0" clip-path="url(#id_0)" d="M121.0 269.0L121.0 222.0L403.0 222.0C404.10458 222.0 405.0 222.89543 405.0 224.0L405.0 267.0C405.0 268.10458 404.10458 269.0 403.0 269.0Z" fill-rule="nonzero"/><path fill="#4285f4" clip-path="url(#id_0)" d="M121.0 269.0L121.0 222.0L403.0 222.0C404.10458 222.0 405.0 222.89543 405.0 224.0L405.0 267.0C405.0 268.10458 404.10458 269.0 403.0 269.0Z" fill-rule="nonzero"/><path stroke="#000000" stroke-width="2.0" stroke-linecap="butt" stroke-opacity="0.0" clip-path="url(#id_0)" d="M121.0 168.0L121.0 121.0L363.0 121.0C364.10458 121.0 365.0 121.89543 365.0 123.0L365.0 166.0C365.0 167.10457 364.10458 168.0 363.0 168.0Z" fill-rule="nonzero"/><path fill="#ea4335" clip-path="url(#id_0)" d="M121.0 168.0L121.0 121.0L363.0 121.0C364.10458 121.0 365.0 121.89543 365.0 123.0L365.0 166.0C365.0 167.10457 364.10458 168.0 363.0 168.0Z" fill-rule="nonzero"/><path stroke="#000000" stroke-width="2.0" stroke-linecap="butt" stroke-opacity="0.0" clip-path="url(#id_0)" d="M121.0 318.0L121.0 271.0L540.0 271.0C541.10455 271.0 542.0 271.89542 542.0 273.0L542.0 316.0C542.0 317.10458 541.10455 318.0 540.0 318.0Z" fill-rule="nonzero"/><path fill="#ea4335" clip-path="url(#id_0)" d="M121.0 318.0L121.0 271.0L540.0 271.0C541.10455 271.0 542.0 271.89542 542.0 273.0L542.0 316.0C542.0 317.10458 541.10455 318.0 540.0 318.0Z" fill-rule="nonzero"/><path stroke="#4285f4" stroke-width="3.0" stroke-linejoin="round" stroke-linecap="round" d="M300.4094 100.0L294.81564 100.0L294.81564 99.21875L297.76877 95.9375Q298.42502 95.1875 298.67502 94.734375Q298.92502 94.265625 298.92502 93.765625Q298.92502 93.09375 298.51877 92.671875Q298.12814 92.234375 297.44064 92.234375Q296.64377 92.234375 296.19064 92.703125Q295.73752 93.15625 295.73752 93.984375L294.6594 93.984375Q294.6594 92.796875 295.4094 92.078125Q296.17502 91.34375 297.44064 91.34375Q298.64377 91.34375 299.33127 91.96875Q300.01877 92.59375 300.01877 93.640625Q300.01877 94.890625 298.4094 96.640625L296.12814 99.109375L300.4094 99.109375L300.4094 100.0ZM307.33127 92.078125L303.80002 100.0L302.6594 100.0L306.17502 92.359375L301.56564 92.359375L301.56564 91.46875L307.33127 91.46875L307.33127 92.078125ZM310.39377 95.203125L311.20627 95.203125Q311.98752 95.1875 312.42502 94.796875Q312.86252 94.40625 312.86252 93.734375Q312.86252 92.234375 311.36252 92.234375Q310.6594 92.234375 310.23752 92.640625Q309.83127 93.046875 309.83127 93.703125L308.73752 93.703125Q308.73752 92.6875 309.4719 92.015625Q310.2219 91.34375 311.36252 91.34375Q312.56564 91.34375 313.25314 91.984375Q313.94064 92.625 313.94064 93.765625Q313.94064 94.328125 313.58127 94.84375Q313.2219 95.359375 312.5969 95.625Q313.30002 95.84375 313.67502 96.359375Q314.06564 96.875 314.06564 97.625Q314.06564 98.765625 313.31564 99.453125Q312.56564 100.125 311.36252 100.125Q310.17502 100.125 309.4094 99.46875Q308.6594 98.8125 308.6594 97.75L309.75314 97.75Q309.75314 98.421875 310.19064 98.828125Q310.62814 99.234375 311.37814 99.234375Q312.1594 99.234375 312.56564 98.828125Q312.98752 98.40625 312.98752 97.640625Q312.98752 96.90625 312.5344 96.515625Q312.08127 96.109375 311.20627 96.09375L310.39377 96.09375L310.39377 95.203125Z" fill-rule="nonzero"/><path fill="#ffffff" d="M300.4094 100.0L294.81564 100.0L294.81564 99.21875L297.76877 95.9375Q298.42502 95.1875 298.67502 94.734375Q298.92502 94.265625 298.92502 93.765625Q298.92502 93.09375 298.51877 92.671875Q298.12814 92.234375 297.44064 92.234375Q296.64377 92.234375 296.19064 92.703125Q295.73752 93.15625 295.73752 93.984375L294.6594 93.984375Q294.6594 92.796875 295.4094 92.078125Q296.17502 91.34375 297.44064 91.34375Q298.64377 91.34375 299.33127 91.96875Q300.01877 92.59375 300.01877 93.640625Q300.01877 94.890625 298.4094 96.640625L296.12814 99.109375L300.4094 99.109375L300.4094 100.0ZM307.33127 92.078125L303.80002 100.0L302.6594 100.0L306.17502 92.359375L301.56564 92.359375L301.56564 91.46875L307.33127 91.46875L307.33127 92.078125ZM310.39377 95.203125L311.20627 95.203125Q311.98752 95.1875 312.42502 94.796875Q312.86252 94.40625 312.86252 93.734375Q312.86252 92.234375 311.36252 92.234375Q310.6594 92.234375 310.23752 92.640625Q309.83127 93.046875 309.83127 93.703125L308.73752 93.703125Q308.73752 92.6875 309.4719 92.015625Q310.2219 91.34375 311.36252 91.34375Q312.56564 91.34375 313.25314 91.984375Q313.94064 92.625 313.94064 93.765625Q313.94064 94.328125 313.58127 94.84375Q313.2219 95.359375 312.5969 95.625Q313.30002 95.84375 313.67502 96.359375Q314.06564 96.875 314.06564 97.625Q314.06564 98.765625 313.31564 99.453125Q312.56564 100.125 311.36252 100.125Q310.17502 100.125 309.4094 99.46875Q308.6594 98.8125 308.6594 97.75L309.75314 97.75Q309.75314 98.421875 310.19064 98.828125Q310.62814 99.234375 311.37814 99.234375Q312.1594 99.234375 312.56564 98.828125Q312.98752 98.40625 312.98752 97.640625Q312.98752 96.90625 312.5344 96.515625Q312.08127 96.109375 311.20627 96.09375L310.39377 96.09375L310.39377 95.203125Z" fill-rule="nonzero"/><path stroke="#4285f4" stroke-width="3.0" stroke-linejoin="round" stroke-linecap="round" d="M381.65268 245.20312L382.46518 245.20312Q383.24643 245.1875 383.68393 244.79688Q384.12143 244.40625 384.12143 243.73438Q384.12143 242.23438 382.62143 242.23438Q381.9183 242.23438 381.49643 242.64062Q381.09018 243.04688 381.09018 243.70312L379.99643 243.70312Q379.99643 242.6875 380.7308 242.01562Q381.4808 241.34375 382.62143 241.34375Q383.82455 241.34375 384.51205 241.98438Q385.19955 242.625 385.19955 243.76562Q385.19955 244.32812 384.84018 244.84375Q384.4808 245.35938 383.8558 245.625Q384.55893 245.84375 384.93393 246.35938Q385.32455 246.875 385.32455 247.625Q385.32455 248.76562 384.57455 249.45312Q383.82455 250.125 382.62143 250.125Q381.43393 250.125 380.6683 249.46875Q379.9183 248.8125 379.9183 247.75L381.01205 247.75Q381.01205 248.42188 381.44955 248.82812Q381.88705 249.23438 382.63705 249.23438Q383.4183 249.23438 383.82455 248.82812Q384.24643 248.40625 384.24643 247.64062Q384.24643 246.90625 383.7933 246.51562Q383.34018 246.10938 382.46518 246.09375L381.65268 246.09375L381.65268 245.20312ZM391.65268 247.14062L392.84018 247.14062L392.84018 248.01562L391.65268 248.01562L391.65268 250.0L390.57455 250.0L390.57455 248.01562L386.68393 248.01562L386.68393 247.375L390.49643 241.46875L391.65268 241.46875L391.65268 247.14062ZM387.9183 247.14062L390.57455 247.14062L390.57455 242.95312L390.43393 243.1875L387.9183 247.14062ZM399.59018 242.07812L396.05893 250.0L394.9183 250.0L398.43393 242.35938L393.82455 242.35938L393.82455 241.46875L399.59018 241.46875L399.59018 242.07812Z" fill-rule="nonzero"/><path fill="#ffffff" d="M381.65268 245.20312L382.46518 245.20312Q383.24643 245.1875 383.68393 244.79688Q384.12143 244.40625 384.12143 243.73438Q384.12143 242.23438 382.62143 242.23438Q381.9183 242.23438 381.49643 242.64062Q381.09018 243.04688 381.09018 243.70312L379.99643 243.70312Q379.99643 242.6875 380.7308 242.01562Q381.4808 241.34375 382.62143 241.34375Q383.82455 241.34375 384.51205 241.98438Q385.19955 242.625 385.19955 243.76562Q385.19955 244.32812 384.84018 244.84375Q384.4808 245.35938 383.8558 245.625Q384.55893 245.84375 384.93393 246.35938Q385.32455 246.875 385.32455 247.625Q385.32455 248.76562 384.57455 249.45312Q383.82455 250.125 382.62143 250.125Q381.43393 250.125 380.6683 249.46875Q379.9183 248.8125 379.9183 247.75L381.01205 247.75Q381.01205 248.42188 381.44955 248.82812Q381.88705 249.23438 382.63705 249.23438Q383.4183 249.23438 383.82455 248.82812Q384.24643 248.40625 384.24643 247.64062Q384.24643 246.90625 383.7933 246.51562Q383.34018 246.10938 382.46518 246.09375L381.65268 246.09375L381.65268 245.20312ZM391.65268 247.14062L392.84018 247.14062L392.84018 248.01562L391.65268 248.01562L391.65268 250.0L390.57455 250.0L390.57455 248.01562L386.68393 248.01562L386.68393 247.375L390.49643 241.46875L391.65268 241.46875L391.65268 247.14062ZM387.9183 247.14062L390.57455 247.14062L390.57455 242.95312L390.43393 243.1875L387.9183 247.14062ZM399.59018 242.07812L396.05893 250.0L394.9183 250.0L398.43393 242.35938L393.82455 242.35938L393.82455 241.46875L399.59018 241.46875L399.59018 242.07812Z" fill-rule="nonzero"/><path stroke="#ea4335" stroke-width="3.0" stroke-linejoin="round" stroke-linecap="round" d="M341.3275 144.20312L342.14 144.20312Q342.92126 144.1875 343.35876 143.79688Q343.79626 143.40625 343.79626 142.73438Q343.79626 141.23438 342.29626 141.23438Q341.59314 141.23438 341.17126 141.64062Q340.765 142.04688 340.765 142.70312L339.67126 142.70312Q339.67126 141.6875 340.40564 141.01562Q341.15564 140.34375 342.29626 140.34375Q343.4994 140.34375 344.1869 140.98438Q344.8744 141.625 344.8744 142.76562Q344.8744 143.32812 344.515 143.84375Q344.15564 144.35938 343.53064 144.625Q344.23376 144.84375 344.60876 145.35938Q344.9994 145.875 344.9994 146.625Q344.9994 147.76562 344.2494 148.45312Q343.4994 149.125 342.29626 149.125Q341.10876 149.125 340.34314 148.46875Q339.59314 147.8125 339.59314 146.75L340.6869 146.75Q340.6869 147.42188 341.1244 147.82812Q341.5619 148.23438 342.3119 148.23438Q343.09314 148.23438 343.4994 147.82812Q343.92126 147.40625 343.92126 146.64062Q343.92126 145.90625 343.46814 145.51562Q343.015 145.10938 342.14 145.09375L341.3275 145.09375L341.3275 144.20312ZM350.3119 149.0L349.23376 149.0L349.23376 141.78125L347.04626 142.57812L347.04626 141.59375L350.15564 140.42188L350.3119 140.42188L350.3119 149.0ZM359.34314 149.0L353.7494 149.0L353.7494 148.21875L356.7025 144.9375Q357.35876 144.1875 357.60876 143.73438Q357.85876 143.26562 357.85876 142.76562Q357.85876 142.09375 357.4525 141.67188Q357.0619 141.23438 356.3744 141.23438Q355.5775 141.23438 355.1244 141.70312Q354.67126 142.15625 354.67126 142.98438L353.59314 142.98438Q353.59314 141.79688 354.34314 141.07812Q355.10876 140.34375 356.3744 140.34375Q357.5775 140.34375 358.265 140.96875Q358.9525 141.59375 358.9525 142.64062Q358.9525 143.89062 357.34314 145.64062L355.0619 148.10938L359.34314 148.10938L359.34314 149.0Z" fill-rule="nonzero"/><path fill="#ffffff" d="M341.3275 144.20312L342.14 144.20312Q342.92126 144.1875 343.35876 143.79688Q343.79626 143.40625 343.79626 142.73438Q343.79626 141.23438 342.29626 141.23438Q341.59314 141.23438 341.17126 141.64062Q340.765 142.04688 340.765 142.70312L339.67126 142.70312Q339.67126 141.6875 340.40564 141.01562Q341.15564 140.34375 342.29626 140.34375Q343.4994 140.34375 344.1869 140.98438Q344.8744 141.625 344.8744 142.76562Q344.8744 143.32812 344.515 143.84375Q344.15564 144.35938 343.53064 144.625Q344.23376 144.84375 344.60876 145.35938Q344.9994 145.875 344.9994 146.625Q344.9994 147.76562 344.2494 148.45312Q343.4994 149.125 342.29626 149.125Q341.10876 149.125 340.34314 148.46875Q339.59314 147.8125 339.59314 146.75L340.6869 146.75Q340.6869 147.42188 341.1244 147.82812Q341.5619 148.23438 342.3119 148.23438Q343.09314 148.23438 343.4994 147.82812Q343.92126 147.40625 343.92126 146.64062Q343.92126 145.90625 343.46814 145.51562Q343.015 145.10938 342.14 145.09375L341.3275 145.09375L341.3275 144.20312ZM350.3119 149.0L349.23376 149.0L349.23376 141.78125L347.04626 142.57812L347.04626 141.59375L350.15564 140.42188L350.3119 140.42188L350.3119 149.0ZM359.34314 149.0L353.7494 149.0L353.7494 148.21875L356.7025 144.9375Q357.35876 144.1875 357.60876 143.73438Q357.85876 143.26562 357.85876 142.76562Q357.85876 142.09375 357.4525 141.67188Q357.0619 141.23438 356.3744 141.23438Q355.5775 141.23438 355.1244 141.70312Q354.67126 142.15625 354.67126 142.98438L353.59314 142.98438Q353.59314 141.79688 354.34314 141.07812Q355.10876 140.34375 356.3744 140.34375Q357.5775 140.34375 358.265 140.96875Q358.9525 141.59375 358.9525 142.64062Q358.9525 143.89062 357.34314 145.64062L355.0619 148.10938L359.34314 148.10938L359.34314 149.0Z" fill-rule="nonzero"/><path stroke="#ea4335" stroke-width="3.0" stroke-linejoin="round" stroke-linecap="round" d="M521.75824 296.14062L522.94574 296.14062L522.94574 297.01562L521.75824 297.01562L521.75824 299.0L520.6801 299.0L520.6801 297.01562L516.7895 297.01562L516.7895 296.375L520.602 290.46875L521.75824 290.46875L521.75824 296.14062ZM518.02386 296.14062L520.6801 296.14062L520.6801 291.95312L520.5395 292.1875L518.02386 296.14062ZM528.44574 290.46875L528.44574 291.375L528.2426 291.375Q526.977 291.40625 526.227 292.14062Q525.477 292.85938 525.352 294.17188Q526.0395 293.40625 527.19574 293.40625Q528.3051 293.40625 528.977 294.1875Q529.64886 294.96875 529.64886 296.21875Q529.64886 297.53125 528.9301 298.32812Q528.21136 299.125 526.9926 299.125Q525.77386 299.125 525.00824 298.1875Q524.25824 297.23438 524.25824 295.75L524.25824 295.34375Q524.25824 292.98438 525.25824 291.73438Q526.25824 290.48438 528.2426 290.46875L528.44574 290.46875ZM527.02386 294.3125Q526.46136 294.3125 525.9926 294.64062Q525.52386 294.96875 525.33636 295.48438L525.33636 295.875Q525.33636 296.9375 525.8051 297.57812Q526.2895 298.21875 526.9926 298.21875Q527.727 298.21875 528.14886 297.6875Q528.57074 297.14062 528.57074 296.26562Q528.57074 295.39062 528.14886 294.85938Q527.727 294.3125 527.02386 294.3125ZM535.44574 290.46875L535.44574 291.375L535.2426 291.375Q533.977 291.40625 533.227 292.14062Q532.477 292.85938 532.352 294.17188Q533.0395 293.40625 534.19574 293.40625Q535.3051 293.40625 535.977 294.1875Q536.64886 294.96875 536.64886 296.21875Q536.64886 297.53125 535.9301 298.32812Q535.21136 299.125 533.9926 299.125Q532.77386 299.125 532.00824 298.1875Q531.25824 297.23438 531.25824 295.75L531.25824 295.34375Q531.25824 292.98438 532.25824 291.73438Q533.25824 290.48438 535.2426 290.46875L535.44574 290.46875ZM534.02386 294.3125Q533.46136 294.3125 532.9926 294.64062Q532.52386 294.96875 532.33636 295.48438L532.33636 295.875Q532.33636 296.9375 532.8051 297.57812Q533.2895 298.21875 533.9926 298.21875Q534.727 298.21875 535.14886 297.6875Q535.57074 297.14062 535.57074 296.26562Q535.57074 295.39062 535.14886 294.85938Q534.727 294.3125 534.02386 294.3125Z" fill-rule="nonzero"/><path fill="#ffffff" d="M521.75824 296.14062L522.94574 296.14062L522.94574 297.01562L521.75824 297.01562L521.75824 299.0L520.6801 299.0L520.6801 297.01562L516.7895 297.01562L516.7895 296.375L520.602 290.46875L521.75824 290.46875L521.75824 296.14062ZM518.02386 296.14062L520.6801 296.14062L520.6801 291.95312L520.5395 292.1875L518.02386 296.14062ZM528.44574 290.46875L528.44574 291.375L528.2426 291.375Q526.977 291.40625 526.227 292.14062Q525.477 292.85938 525.352 294.17188Q526.0395 293.40625 527.19574 293.40625Q528.3051 293.40625 528.977 294.1875Q529.64886 294.96875 529.64886 296.21875Q529.64886 297.53125 528.9301 298.32812Q528.21136 299.125 526.9926 299.125Q525.77386 299.125 525.00824 298.1875Q524.25824 297.23438 524.25824 295.75L524.25824 295.34375Q524.25824 292.98438 525.25824 291.73438Q526.25824 290.48438 528.2426 290.46875L528.44574 290.46875ZM527.02386 294.3125Q526.46136 294.3125 525.9926 294.64062Q525.52386 294.96875 525.33636 295.48438L525.33636 295.875Q525.33636 296.9375 525.8051 297.57812Q526.2895 298.21875 526.9926 298.21875Q527.727 298.21875 528.14886 297.6875Q528.57074 297.14062 528.57074 296.26562Q528.57074 295.39062 528.14886 294.85938Q527.727 294.3125 527.02386 294.3125ZM535.44574 290.46875L535.44574 291.375L535.2426 291.375Q533.977 291.40625 533.227 292.14062Q532.477 292.85938 532.352 294.17188Q533.0395 293.40625 534.19574 293.40625Q535.3051 293.40625 535.977 294.1875Q536.64886 294.96875 536.64886 296.21875Q536.64886 297.53125 535.9301 298.32812Q535.21136 299.125 533.9926 299.125Q532.77386 299.125 532.00824 298.1875Q531.25824 297.23438 531.25824 295.75L531.25824 295.34375Q531.25824 292.98438 532.25824 291.73438Q533.25824 290.48438 535.2426 290.46875L535.44574 290.46875ZM534.02386 294.3125Q533.46136 294.3125 532.9926 294.64062Q532.52386 294.96875 532.33636 295.48438L532.33636 295.875Q532.33636 296.9375 532.8051 297.57812Q533.2895 298.21875 533.9926 298.21875Q534.727 298.21875 535.14886 297.6875Q535.57074 297.14062 535.57074 296.26562Q535.57074 295.39062 535.14886 294.85938Q534.727 294.3125 534.02386 294.3125Z" fill-rule="nonzero"/><path fill="#000000" d="M38.559765 115.19189L40.29414 115.19189L40.29414 120.62939Q40.29414 121.69189 40.10664 122.27001Q39.85664 123.02001 39.184765 123.47314Q38.528515 123.92626 37.45039 123.92626Q36.16914 123.92626 35.48164 123.22314Q34.809765 122.50439 34.79414 121.12939L36.434765 120.94189Q36.466015 121.67626 36.653515 121.98876Q36.934765 122.44189 37.497265 122.44189Q38.091015 122.44189 38.32539 122.11376Q38.559765 121.78564 38.559765 120.73876L38.559765 115.19189ZM46.059765 121.80126L47.70039 122.08251Q47.38789 122.98876 46.70039 123.45751Q46.01289 123.92626 44.997265 123.92626Q43.372265 123.92626 42.591015 122.86376Q41.966015 122.02001 41.966015 120.72314Q41.966015 119.17626 42.778515 118.30126Q43.591015 117.42626 44.82539 117.42626Q46.216015 117.42626 47.01289 118.34814Q47.82539 119.25439 47.778515 121.14501L43.653515 121.14501Q43.684765 121.87939 44.059765 122.28564Q44.434765 122.69189 45.01289 122.69189Q45.38789 122.69189 45.653515 122.48876Q45.91914 122.27001 46.059765 121.80126ZM46.153515 120.14501Q46.13789 119.42626 45.778515 119.05126Q45.434765 118.67626 44.91914 118.67626Q44.38789 118.67626 44.028515 119.06689Q43.684765 119.47314 43.684765 120.14501L46.153515 120.14501ZM52.309765 117.56689L52.309765 118.87939L51.184765 118.87939L51.184765 121.37939Q51.184765 122.14501 51.216015 122.27001Q51.247265 122.39501 51.35664 122.48876Q51.48164 122.56689 51.63789 122.56689Q51.872265 122.56689 52.29414 122.39501L52.434765 123.67626Q51.872265 123.92626 51.13789 123.92626Q50.70039 123.92626 50.341015 123.78564Q49.98164 123.62939 49.809765 123.39501Q49.653515 123.14501 49.57539 122.75439Q49.528515 122.45751 49.528515 121.58251L49.528515 118.87939L48.778515 118.87939L48.778515 117.56689L49.528515 117.56689L49.528515 116.33251L51.184765 115.36376L51.184765 117.56689L52.309765 117.56689ZM53.028515 120.98876L54.716015 120.83251Q54.872265 121.67626 55.32539 122.08251Q55.79414 122.47314 56.591015 122.47314Q57.41914 122.47314 57.841015 122.12939Q58.278515 121.77001 58.278515 121.28564Q58.278515 120.98876 58.091015 120.77001Q57.91914 120.55126 57.466015 120.39501Q57.16914 120.28564 56.091015 120.02001Q54.684765 119.67626 54.122265 119.17626Q53.341015 118.45751 53.341015 117.44189Q53.341015 116.78564 53.70039 116.22314Q54.07539 115.64501 54.778515 115.34814Q55.48164 115.05126 56.466015 115.05126Q58.091015 115.05126 58.903515 115.77001Q59.716015 116.47314 59.76289 117.64501L58.028515 117.72314Q57.91914 117.06689 57.54414 116.78564Q57.184765 116.48876 56.45039 116.48876Q55.70039 116.48876 55.26289 116.80126Q54.997265 116.98876 54.997265 117.33251Q54.997265 117.62939 55.247265 117.84814Q55.57539 118.12939 56.841015 118.42626Q58.10664 118.72314 58.716015 119.05126Q59.32539 119.36376 59.66914 119.92626Q60.01289 120.47314 60.01289 121.28564Q60.01289 122.02001 59.591015 122.67626Q59.184765 123.31689 58.434765 123.62939Q57.684765 123.94189 56.57539 123.94189Q54.934765 123.94189 54.059765 123.19189Q53.20039 122.42626 53.028515 120.98876ZM64.30977 117.56689L64.30977 118.87939L63.184765 118.87939L63.184765 121.37939Q63.184765 122.14501 63.216015 122.27001Q63.247265 122.39501 63.35664 122.48876Q63.48164 122.56689 63.63789 122.56689Q63.872265 122.56689 64.29414 122.39501L64.43477 123.67626Q63.872265 123.92626 63.13789 123.92626Q62.70039 123.92626 62.341015 123.78564Q61.98164 123.62939 61.809765 123.39501Q61.653515 123.14501 61.57539 122.75439Q61.528515 122.45751 61.528515 121.58251L61.528515 118.87939L60.778515 118.87939L60.778515 117.56689L61.528515 117.56689L61.528515 116.33251L63.184765 115.36376L63.184765 117.56689L64.30977 117.56689ZM67.02852 123.78564L65.38789 123.78564L65.38789 117.56689L66.91914 117.56689L66.91914 118.44189Q67.30977 117.81689 67.62227 117.62939Q67.93477 117.42626 68.32539 117.42626Q68.88789 117.42626 69.41914 117.73876L68.90352 119.16064Q68.48164 118.89501 68.13789 118.89501Q67.77852 118.89501 67.54414 119.09814Q67.30977 119.28564 67.16914 119.78564Q67.02852 120.27001 67.02852 121.86376L67.02852 123.78564ZM74.05977 121.80126L75.70039 122.08251Q75.38789 122.98876 74.70039 123.45751Q74.01289 123.92626 72.99727 123.92626Q71.37227 123.92626 70.59102 122.86376Q69.96602 122.02001 69.96602 120.72314Q69.96602 119.17626 70.77852 118.30126Q71.59102 117.42626 72.82539 117.42626Q74.21602 117.42626 75.01289 118.34814Q75.82539 119.25439 75.77852 121.14501L71.65352 121.14501Q71.68477 121.87939 72.05977 122.28564Q72.43477 122.69189 73.01289 122.69189Q73.38789 122.69189 73.65352 122.48876Q73.91914 122.27001 74.05977 121.80126ZM74.15352 120.14501Q74.13789 119.42626 73.77852 119.05126Q73.43477 118.67626 72.91914 118.67626Q72.38789 118.67626 72.02852 119.06689Q71.68477 119.47314 71.68477 120.14501L74.15352 120.14501ZM78.68477 119.45751L77.18477 119.19189Q77.43477 118.28564 78.04414 117.86376Q78.66914 117.42626 79.88789 117.42626Q80.98164 117.42626 81.51289 117.69189Q82.05977 117.94189 82.27852 118.34814Q82.49727 118.73876 82.49727 119.81689L82.48164 121.73876Q82.48164 122.56689 82.55977 122.95751Q82.63789 123.33251 82.85664 123.78564L81.23164 123.78564Q81.16914 123.61376 81.07539 123.30126Q81.02852 123.14501 81.01289 123.09814Q80.59102 123.52001 80.10664 123.72314Q79.63789 123.92626 79.09102 123.92626Q78.12227 123.92626 77.55977 123.41064Q77.01289 122.87939 77.01289 122.08251Q77.01289 121.55126 77.26289 121.14501Q77.52852 120.73876 77.98164 120.52001Q78.43477 120.28564 79.29414 120.12939Q80.43477 119.91064 80.88789 119.72314L80.88789 119.56689Q80.88789 119.08251 80.65352 118.87939Q80.41914 118.67626 79.76289 118.67626Q79.32539 118.67626 79.07539 118.84814Q78.84102 119.02001 78.68477 119.45751ZM80.88789 120.80126Q80.57539 120.89501 79.88789 121.05126Q79.20039 121.19189 78.98164 121.33251Q78.66914 121.56689 78.66914 121.91064Q78.66914 122.25439 78.91914 122.52001Q79.18477 122.77001 79.57539 122.77001Q80.02852 122.77001 80.43477 122.47314Q80.73164 122.25439 80.82539 121.92626Q80.88789 121.72314 80.88789 121.12939L80.88789 120.80126ZM84.32539 117.56689L85.84102 117.56689L85.84102 118.41064Q86.66914 117.42626 87.79414 117.42626Q88.38789 117.42626 88.82539 117.67626Q89.26289 117.91064 89.54414 118.41064Q89.95039 117.91064 90.41914 117.67626Q90.90352 117.42626 91.45039 117.42626Q92.12227 117.42626 92.59102 117.70751Q93.07539 117.97314 93.30977 118.52001Q93.48164 118.91064 93.48164 119.80126L93.48164 123.78564L91.84102 123.78564L91.84102 120.22314Q91.84102 119.30126 91.66914 119.03564Q91.43477 118.67626 90.96602 118.67626Q90.62227 118.67626 90.30977 118.89501Q90.01289 119.09814 89.87227 119.50439Q89.73164 119.91064 89.73164 120.80126L89.73164 123.78564L88.09102 123.78564L88.09102 120.37939Q88.09102 119.47314 87.99727 119.20751Q87.91914 118.94189 87.73164 118.81689Q87.54414 118.67626 87.23164 118.67626Q86.85664 118.67626 86.54414 118.89501Q86.24727 119.09814 86.10664 119.48876Q85.98164 119.86376 85.98164 120.75439L85.98164 123.78564L84.32539 123.78564L84.32539 117.56689ZM103.66914 122.25439L103.66914 123.78564L97.88789 123.78564Q97.98164 122.91064 98.45039 122.14501Q98.91914 121.36376 100.30977 120.08251Q101.41914 119.05126 101.66914 118.67626Q102.01289 118.16064 102.01289 117.66064Q102.01289 117.11376 101.71602 116.81689Q101.41914 116.52001 100.90352 116.52001Q100.38789 116.52001 100.07539 116.83251Q99.77852 117.14501 99.73164 117.86376L98.09102 117.70751Q98.23164 116.34814 98.99727 115.75439Q99.77852 115.16064 100.93477 115.16064Q102.21602 115.16064 102.93477 115.84814Q103.66914 116.53564 103.66914 117.55126Q103.66914 118.12939 103.45039 118.66064Q103.24727 119.17626 102.79414 119.75439Q102.49727 120.12939 101.71602 120.84814Q100.93477 121.56689 100.73164 121.80126Q100.52852 122.03564 100.38789 122.25439L103.66914 122.25439ZM105.45039 123.78564L105.45039 122.14501L107.10664 122.14501L107.10664 123.78564L105.45039 123.78564ZM112.30977 123.78564L110.66914 123.78564L110.66914 117.58251Q109.76289 118.42626 108.54414 118.83251L108.54414 117.33251Q109.18477 117.12939 109.93477 116.53564Q110.70039 115.94189 110.98164 115.16064L112.30977 115.16064L112.30977 123.78564Z" fill-rule="nonzero"/><path fill="#000000" d="M18.028515 270.9675L19.716015 270.81125Q19.872265 271.655 20.32539 272.06125Q20.79414 272.45187 21.591015 272.45187Q22.41914 272.45187 22.841015 272.10812Q23.278515 271.74875 23.278515 271.26437Q23.278515 270.9675 23.091015 270.74875Q22.91914 270.53 22.466015 270.37375Q22.16914 270.26437 21.091015 269.99875Q19.684765 269.655 19.122265 269.155Q18.341015 268.43625 18.341015 267.42062Q18.341015 266.76437 18.70039 266.20187Q19.07539 265.62375 19.778515 265.32687Q20.48164 265.03 21.466015 265.03Q23.091015 265.03 23.903515 265.74875Q24.716015 266.45187 24.76289 267.62375L23.028515 267.70187Q22.91914 267.04562 22.54414 266.76437Q22.184765 266.4675 21.45039 266.4675Q20.70039 266.4675 20.26289 266.78Q19.997265 266.9675 19.997265 267.31125Q19.997265 267.60812 20.247265 267.82687Q20.57539 268.10812 21.841015 268.405Q23.10664 268.70187 23.716015 269.03Q24.32539 269.3425 24.66914 269.905Q25.01289 270.45187 25.01289 271.26437Q25.01289 271.99875 24.591015 272.655Q24.184765 273.29562 23.434765 273.60812Q22.684765 273.92062 21.57539 273.92062Q19.934765 273.92062 19.059765 273.17062Q18.20039 272.405 18.028515 270.9675ZM26.403515 267.54562L27.934765 267.54562L27.934765 268.45187Q28.247265 267.98312 28.747265 267.70187Q29.26289 267.405 29.88789 267.405Q30.966015 267.405 31.716015 268.24875Q32.48164 269.0925 32.48164 270.62375Q32.48164 272.17062 31.716015 273.04562Q30.95039 273.905 29.872265 273.905Q29.35664 273.905 28.934765 273.70187Q28.51289 273.49875 28.059765 272.99875L28.059765 276.13937L26.403515 276.13937L26.403515 267.54562ZM28.028515 270.54562Q28.028515 271.5925 28.45039 272.0925Q28.872265 272.5925 29.466015 272.5925Q30.04414 272.5925 30.41914 272.13937Q30.79414 271.67062 30.79414 270.62375Q30.79414 269.655 30.403515 269.18625Q30.01289 268.70187 29.434765 268.70187Q28.82539 268.70187 28.41914 269.17062Q28.028515 269.63937 28.028515 270.54562ZM37.059765 271.78L38.70039 272.06125Q38.38789 272.9675 37.70039 273.43625Q37.01289 273.905 35.997265 273.905Q34.372265 273.905 33.591015 272.8425Q32.966015 271.99875 32.966015 270.70187Q32.966015 269.155 33.778515 268.28Q34.591015 267.405 35.82539 267.405Q37.216015 267.405 38.01289 268.32687Q38.82539 269.23312 38.778515 271.12375L34.653515 271.12375Q34.684765 271.85812 35.059765 272.26437Q35.434765 272.67062 36.01289 272.67062Q36.38789 272.67062 36.653515 272.4675Q36.91914 272.24875 37.059765 271.78ZM37.153515 270.12375Q37.13789 269.405 36.778515 269.03Q36.434765 268.655 35.91914 268.655Q35.38789 268.655 35.028515 269.04562Q34.684765 269.45187 34.684765 270.12375L37.153515 270.12375ZM44.059765 271.78L45.70039 272.06125Q45.38789 272.9675 44.70039 273.43625Q44.01289 273.905 42.997265 273.905Q41.372265 273.905 40.591015 272.8425Q39.966015 271.99875 39.966015 270.70187Q39.966015 269.155 40.778515 268.28Q41.591015 267.405 42.82539 267.405Q44.216015 267.405 45.01289 268.32687Q45.82539 269.23312 45.778515 271.12375L41.653515 271.12375Q41.684765 271.85812 42.059765 272.26437Q42.434765 272.67062 43.01289 272.67062Q43.38789 272.67062 43.653515 272.4675Q43.91914 272.24875 44.059765 271.78ZM44.153515 270.12375Q44.13789 269.405 43.778515 269.03Q43.434765 268.655 42.91914 268.655Q42.38789 268.655 42.028515 269.04562Q41.684765 269.45187 41.684765 270.12375L44.153515 270.12375ZM53.153515 273.76437L51.63789 273.76437L51.63789 272.8425Q51.247265 273.38937 50.73164 273.655Q50.216015 273.905 49.684765 273.905Q48.60664 273.905 47.841015 273.04562Q47.091015 272.17062 47.091015 270.62375Q47.091015 269.04562 47.82539 268.23312Q48.57539 267.405 49.716015 267.405Q50.747265 267.405 51.51289 268.26437L51.51289 265.17062L53.153515 265.17062L53.153515 273.76437ZM48.76289 270.51437Q48.76289 271.51437 49.04414 271.95187Q49.434765 272.60812 50.153515 272.60812Q50.716015 272.60812 51.10664 272.12375Q51.51289 271.63937 51.51289 270.67062Q51.51289 269.60812 51.122265 269.13937Q50.747265 268.655 50.13789 268.655Q49.559765 268.655 49.153515 269.12375Q48.76289 269.5925 48.76289 270.51437ZM54.07539 270.56125Q54.07539 269.74875 54.48164 268.98312Q54.88789 268.20187 55.622265 267.81125Q56.35664 267.405 57.278515 267.405Q58.684765 267.405 59.591015 268.32687Q60.497265 269.23312 60.497265 270.63937Q60.497265 272.04562 59.57539 272.98312Q58.66914 273.905 57.29414 273.905Q56.434765 273.905 55.653515 273.51437Q54.88789 273.12375 54.48164 272.38937Q54.07539 271.63937 54.07539 270.56125ZM55.76289 270.655Q55.76289 271.57687 56.20039 272.07687Q56.63789 272.56125 57.278515 272.56125Q57.934765 272.56125 58.35664 272.07687Q58.79414 271.57687 58.79414 270.63937Q58.79414 269.73312 58.35664 269.24875Q57.934765 268.74875 57.278515 268.74875Q56.63789 268.74875 56.20039 269.24875Q55.76289 269.73312 55.76289 270.655ZM61.32539 267.54562L62.841015 267.54562L62.841015 268.38937Q63.66914 267.405 64.79414 267.405Q65.38789 267.405 65.82539 267.655Q66.26289 267.88937 66.54414 268.38937Q66.95039 267.88937 67.41914 267.655Q67.90352 267.405 68.45039 267.405Q69.12227 267.405 69.59102 267.68625Q70.07539 267.95187 70.30977 268.49875Q70.48164 268.88937 70.48164 269.78L70.48164 273.76437L68.84102 273.76437L68.84102 270.20187Q68.84102 269.28 68.66914 269.01437Q68.43477 268.655 67.96602 268.655Q67.62227 268.655 67.30977 268.87375Q67.01289 269.07687 66.87227 269.48312Q66.73164 269.88937 66.73164 270.78L66.73164 273.76437L65.09102 273.76437L65.09102 270.35812Q65.09102 269.45187 64.99727 269.18625Q64.91914 268.92062 64.73164 268.79562Q64.54414 268.655 64.23164 268.655Q63.85664 268.655 63.54414 268.87375Q63.247265 269.07687 63.10664 269.4675Q62.98164 269.8425 62.98164 270.73312L62.98164 273.76437L61.32539 273.76437L61.32539 267.54562ZM76.05977 271.78L77.70039 272.06125Q77.38789 272.9675 76.70039 273.43625Q76.01289 273.905 74.99727 273.905Q73.37227 273.905 72.59102 272.8425Q71.96602 271.99875 71.96602 270.70187Q71.96602 269.155 72.77852 268.28Q73.59102 267.405 74.82539 267.405Q76.21602 267.405 77.01289 268.32687Q77.82539 269.23312 77.77852 271.12375L73.65352 271.12375Q73.68477 271.85812 74.05977 272.26437Q74.43477 272.67062 75.01289 272.67062Q75.38789 272.67062 75.65352 272.4675Q75.91914 272.24875 76.05977 271.78ZM76.15352 270.12375Q76.13789 269.405 75.77852 269.03Q75.43477 268.655 74.91914 268.655Q74.38789 268.655 74.02852 269.04562Q73.68477 269.45187 73.68477 270.12375L76.15352 270.12375ZM82.30977 267.54562L82.30977 268.85812L81.18477 268.85812L81.18477 271.35812Q81.18477 272.12375 81.21602 272.24875Q81.24727 272.37375 81.35664 272.4675Q81.48164 272.54562 81.63789 272.54562Q81.87227 272.54562 82.29414 272.37375L82.43477 273.655Q81.87227 273.905 81.13789 273.905Q80.70039 273.905 80.34102 273.76437Q79.98164 273.60812 79.80977 273.37375Q79.65352 273.12375 79.57539 272.73312Q79.52852 272.43625 79.52852 271.56125L79.52852 268.85812L78.77852 268.85812L78.77852 267.54562L79.52852 267.54562L79.52852 266.31125L81.18477 265.3425L81.18477 267.54562L82.30977 267.54562ZM87.05977 271.78L88.70039 272.06125Q88.38789 272.9675 87.70039 273.43625Q87.01289 273.905 85.99727 273.905Q84.37227 273.905 83.59102 272.8425Q82.96602 271.99875 82.96602 270.70187Q82.96602 269.155 83.77852 268.28Q84.59102 267.405 85.82539 267.405Q87.21602 267.405 88.01289 268.32687Q88.82539 269.23312 88.77852 271.12375L84.65352 271.12375Q84.68477 271.85812 85.05977 272.26437Q85.43477 272.67062 86.01289 272.67062Q86.38789 272.67062 86.65352 272.4675Q86.91914 272.24875 87.05977 271.78ZM87.15352 270.12375Q87.13789 269.405 86.77852 269.03Q86.43477 268.655 85.91914 268.655Q85.38789 268.655 85.02852 269.04562Q84.68477 269.45187 84.68477 270.12375L87.15352 270.12375ZM92.02852 273.76437L90.38789 273.76437L90.38789 267.54562L91.91914 267.54562L91.91914 268.42062Q92.30977 267.79562 92.62227 267.60812Q92.93477 267.405 93.32539 267.405Q93.88789 267.405 94.41914 267.7175L93.90352 269.13937Q93.48164 268.87375 93.13789 268.87375Q92.77852 268.87375 92.54414 269.07687Q92.30977 269.26437 92.16914 269.76437Q92.02852 270.24875 92.02852 271.8425L92.02852 273.76437ZM103.66914 272.23312L103.66914 273.76437L97.88789 273.76437Q97.98164 272.88937 98.45039 272.12375Q98.91914 271.3425 100.30977 270.06125Q101.41914 269.03 101.66914 268.655Q102.01289 268.13937 102.01289 267.63937Q102.01289 267.0925 101.71602 266.79562Q101.41914 266.49875 100.90352 266.49875Q100.38789 266.49875 100.07539 266.81125Q99.77852 267.12375 99.73164 267.8425L98.09102 267.68625Q98.23164 266.32687 98.99727 265.73312Q99.77852 265.13937 100.93477 265.13937Q102.21602 265.13937 102.93477 265.82687Q103.66914 266.51437 103.66914 267.53Q103.66914 268.10812 103.45039 268.63937Q103.24727 269.155 102.79414 269.73312Q102.49727 270.10812 101.71602 270.82687Q100.93477 271.54562 100.73164 271.78Q100.52852 272.01437 100.38789 272.23312L103.66914 272.23312ZM105.45039 273.76437L105.45039 272.12375L107.10664 272.12375L107.10664 273.76437L105.45039 273.76437ZM112.30977 273.76437L110.66914 273.76437L110.66914 267.56125Q109.76289 268.405 108.54414 268.81125L108.54414 267.31125Q109.18477 267.10812 109.93477 266.51437Q110.70039 265.92062 110.98164 265.13937L112.30977 265.13937L112.30977 273.76437Z" fill-rule="nonzero"/><path fill="#4285f4" d="M154.92682 34.55C154.92682 33.997715 155.37454 33.55 155.92682 33.55L165.92682 33.55C166.47911 33.55 166.92682 33.997715 166.92682 34.55L166.92682 44.55C166.92682 45.102283 166.47911 45.55 165.92682 45.55L155.92682 45.55C155.37454 45.55 154.92682 45.102283 154.92682 44.55Z" fill-rule="nonzero"/><path stroke="#ffffff" stroke-width="3.0" stroke-linejoin="round" stroke-linecap="round" d="M181.98932 40.534374L183.11432 40.83125Q182.75494 42.221874 181.83307 42.95625Q180.9112 43.690624 179.56744 43.690624Q178.17682 43.690624 177.30182 43.128124Q176.42682 42.565624 175.9737 41.503124Q175.52057 40.425 175.52057 39.190624Q175.52057 37.846874 176.0362 36.846874Q176.55182 35.846874 177.48932 35.33125Q178.44244 34.815624 179.58307 34.815624Q180.86432 34.815624 181.73932 35.471874Q182.62994 36.128124 182.9737 37.315624L181.8487 37.58125Q181.55182 36.64375 180.9737 36.221874Q180.4112 35.784374 179.55182 35.784374Q178.56744 35.784374 177.89557 36.26875Q177.23932 36.7375 176.95807 37.534374Q176.69244 38.33125 176.69244 39.190624Q176.69244 40.284374 177.00494 41.096874Q177.33307 41.909374 178.00494 42.315624Q178.67682 42.721874 179.4737 42.721874Q180.42682 42.721874 181.08307 42.175Q181.75494 41.628124 181.98932 40.534374ZM184.7237 43.55L184.7237 34.95625L185.77057 34.95625L185.77057 38.034374Q186.50494 37.190624 187.62994 37.190624Q188.33307 37.190624 188.83307 37.471874Q189.3487 37.7375 189.56744 38.221874Q189.7862 38.690624 189.7862 39.6125L189.7862 43.55L188.73932 43.55L188.73932 39.6125Q188.73932 38.815624 188.39557 38.45625Q188.05182 38.096874 187.42682 38.096874Q186.95807 38.096874 186.5362 38.346874Q186.12994 38.58125 185.94244 39.003124Q185.77057 39.409374 185.77057 40.14375L185.77057 43.55L184.7237 43.55ZM191.70807 43.55L191.70807 37.33125L192.6612 37.33125L192.6612 38.26875Q193.02057 37.6125 193.31744 37.409374Q193.62994 37.190624 194.00494 37.190624Q194.5362 37.190624 195.08307 37.51875L194.7237 38.503124Q194.33307 38.26875 193.95807 38.26875Q193.5987 38.26875 193.31744 38.4875Q193.05182 38.690624 192.94244 39.065624Q192.75494 39.628124 192.75494 40.284374L192.75494 43.55L191.70807 43.55ZM195.33307 40.440624Q195.33307 38.70625 196.2862 37.878124Q197.08307 37.190624 198.23932 37.190624Q199.52057 37.190624 200.33307 38.034374Q201.1612 38.8625 201.1612 40.346874Q201.1612 41.55 200.80182 42.2375Q200.44244 42.925 199.73932 43.315624Q199.05182 43.690624 198.23932 43.690624Q196.94244 43.690624 196.12994 42.8625Q195.33307 42.01875 195.33307 40.440624ZM196.4112 40.440624Q196.4112 41.628124 196.92682 42.221874Q197.45807 42.815624 198.23932 42.815624Q199.0362 42.815624 199.55182 42.221874Q200.06744 41.628124 200.06744 40.409374Q200.06744 39.253124 199.5362 38.659374Q199.02057 38.065624 198.23932 38.065624Q197.45807 38.065624 196.92682 38.659374Q196.4112 39.2375 196.4112 40.440624ZM202.7237 43.55L202.7237 37.33125L203.6612 37.33125L203.6612 38.20625Q203.95807 37.7375 204.44244 37.471874Q204.92682 37.190624 205.55182 37.190624Q206.23932 37.190624 206.67682 37.471874Q207.12994 37.753124 207.30182 38.26875Q208.05182 37.190624 209.2237 37.190624Q210.1612 37.190624 210.64557 37.70625Q211.14557 38.20625 211.14557 39.284374L211.14557 43.55L210.0987 43.55L210.0987 39.628124Q210.0987 39.003124 209.98932 38.721874Q209.89557 38.440624 209.62994 38.26875Q209.36432 38.096874 208.98932 38.096874Q208.33307 38.096874 207.89557 38.534374Q207.4737 38.971874 207.4737 39.940624L207.4737 43.55L206.4112 43.55L206.4112 39.503124Q206.4112 38.8 206.14557 38.45625Q205.89557 38.096874 205.31744 38.096874Q204.86432 38.096874 204.48932 38.33125Q204.11432 38.565624 203.94244 39.01875Q203.77057 39.471874 203.77057 40.315624L203.77057 43.55L202.7237 43.55ZM217.9737 41.55L219.06744 41.675Q218.81744 42.628124 218.11432 43.159374Q217.4112 43.690624 216.33307 43.690624Q214.9737 43.690624 214.1612 42.846874Q213.36432 42.003124 213.36432 40.4875Q213.36432 38.925 214.17682 38.065624Q214.98932 37.190624 216.27057 37.190624Q217.52057 37.190624 218.30182 38.034374Q219.0987 38.878124 219.0987 40.425Q219.0987 40.51875 219.0987 40.70625L214.45807 40.70625Q214.52057 41.7375 215.0362 42.284374Q215.55182 42.815624 216.33307 42.815624Q216.9112 42.815624 217.31744 42.51875Q217.73932 42.20625 217.9737 41.55ZM214.52057 39.846874L217.98932 39.846874Q217.92682 39.05 217.5987 38.659374Q217.08307 38.05 216.2862 38.05Q215.55182 38.05 215.05182 38.534374Q214.56744 39.01875 214.52057 39.846874ZM223.81744 43.55L223.81744 34.95625L225.5362 34.95625L227.56744 41.034374Q227.8487 41.89375 227.9737 42.315624Q228.11432 41.846874 228.42682 40.940624L230.48932 34.95625L232.02057 34.95625L232.02057 43.55L230.92682 43.55L230.92682 36.3625L228.42682 43.55L227.39557 43.55L224.9112 36.2375L224.9112 43.55L223.81744 43.55ZM236.39557 43.55L235.3487 43.55L235.3487 36.83125Q234.95807 37.190624 234.33307 37.565624Q233.7237 37.925 233.23932 38.096874L233.23932 37.08125Q234.11432 36.659374 234.77057 36.08125Q235.44244 35.4875 235.7237 34.925L236.39557 34.925L236.39557 43.55ZM243.39557 43.55L242.3487 43.55L242.3487 36.83125Q241.95807 37.190624 241.33307 37.565624Q240.7237 37.925 240.23932 38.096874L240.23932 37.08125Q241.11432 36.659374 241.77057 36.08125Q242.44244 35.4875 242.7237 34.925L243.39557 34.925L243.39557 43.55ZM246.42682 39.315624Q246.42682 37.784374 246.73932 36.8625Q247.05182 35.925 247.6612 35.425Q248.2862 34.925 249.2237 34.925Q249.9112 34.925 250.42682 35.20625Q250.95807 35.4875 251.30182 36.01875Q251.64557 36.534374 251.83307 37.284374Q252.02057 38.034374 252.02057 39.315624Q252.02057 40.83125 251.70807 41.753124Q251.4112 42.675 250.7862 43.190624Q250.17682 43.690624 249.2237 43.690624Q247.98932 43.690624 247.27057 42.8Q246.42682 41.7375 246.42682 39.315624ZM247.50494 39.315624Q247.50494 41.425 248.00494 42.128124Q248.50494 42.83125 249.2237 42.83125Q249.95807 42.83125 250.44244 42.128124Q250.94244 41.425 250.94244 39.315624Q250.94244 37.190624 250.44244 36.503124Q249.95807 35.8 249.20807 35.8Q248.48932 35.8 248.05182 36.409374Q247.50494 37.190624 247.50494 39.315624ZM258.73932 46.08125Q257.86432 44.971874 257.25494 43.503124Q256.6612 42.01875 256.6612 40.440624Q256.6612 39.05 257.0987 37.76875Q257.62994 36.284374 258.73932 34.815624L259.48932 34.815624Q258.7862 36.034374 258.55182 36.55Q258.19244 37.3625 257.98932 38.2375Q257.73932 39.33125 257.73932 40.440624Q257.73932 43.26875 259.48932 46.08125L258.73932 46.08125ZM265.9737 42.534374L265.9737 43.55L260.2862 43.55Q260.2862 43.175 260.4112 42.815624Q260.62994 42.2375 261.0987 41.675Q261.58307 41.1125 262.48932 40.378124Q263.89557 39.221874 264.37994 38.55Q264.87994 37.878124 264.87994 37.284374Q264.87994 36.659374 264.42682 36.2375Q263.9737 35.8 263.25494 35.8Q262.48932 35.8 262.0362 36.253124Q261.58307 36.70625 261.56744 37.51875L260.48932 37.409374Q260.5987 36.190624 261.31744 35.565624Q262.05182 34.925 263.2862 34.925Q264.52057 34.925 265.23932 35.6125Q265.95807 36.3 265.95807 37.315624Q265.95807 37.83125 265.73932 38.33125Q265.5362 38.815624 265.0362 39.378124Q264.55182 39.925 263.42682 40.878124Q262.4737 41.675 262.19244 41.971874Q261.92682 42.253124 261.75494 42.534374L265.9737 42.534374ZM267.42682 39.315624Q267.42682 37.784374 267.73932 36.8625Q268.05182 35.925 268.6612 35.425Q269.2862 34.925 270.2237 34.925Q270.9112 34.925 271.42682 35.20625Q271.95807 35.4875 272.30182 36.01875Q272.64557 36.534374 272.83307 37.284374Q273.02057 38.034374 273.02057 39.315624Q273.02057 40.83125 272.70807 41.753124Q272.4112 42.675 271.7862 43.190624Q271.17682 43.690624 270.2237 43.690624Q268.98932 43.690624 268.27057 42.8Q267.42682 41.7375 267.42682 39.315624ZM268.50494 39.315624Q268.50494 41.425 269.00494 42.128124Q269.50494 42.83125 270.2237 42.83125Q270.95807 42.83125 271.44244 42.128124Q271.94244 41.425 271.94244 39.315624Q271.94244 37.190624 271.44244 36.503124Q270.95807 35.8 270.20807 35.8Q269.48932 35.8 269.05182 36.409374Q268.50494 37.190624 268.50494 39.315624ZM279.9737 42.534374L279.9737 43.55L274.2862 43.55Q274.2862 43.175 274.4112 42.815624Q274.62994 42.2375 275.0987 41.675Q275.58307 41.1125 276.48932 40.378124Q277.89557 39.221874 278.37994 38.55Q278.87994 37.878124 278.87994 37.284374Q278.87994 36.659374 278.42682 36.2375Q277.9737 35.8 277.25494 35.8Q276.48932 35.8 276.0362 36.253124Q275.58307 36.70625 275.56744 37.51875L274.48932 37.409374Q274.5987 36.190624 275.31744 35.565624Q276.05182 34.925 277.2862 34.925Q278.52057 34.925 279.23932 35.6125Q279.95807 36.3 279.95807 37.315624Q279.95807 37.83125 279.73932 38.33125Q279.5362 38.815624 279.0362 39.378124Q278.55182 39.925 277.42682 40.878124Q276.4737 41.675 276.19244 41.971874Q275.92682 42.253124 275.75494 42.534374L279.9737 42.534374ZM286.9737 42.534374L286.9737 43.55L281.2862 43.55Q281.2862 43.175 281.4112 42.815624Q281.62994 42.2375 282.0987 41.675Q282.58307 41.1125 283.48932 40.378124Q284.89557 39.221874 285.37994 38.55Q285.87994 37.878124 285.87994 37.284374Q285.87994 36.659374 285.42682 36.2375Q284.9737 35.8 284.25494 35.8Q283.48932 35.8 283.0362 36.253124Q282.58307 36.70625 282.56744 37.51875L281.48932 37.409374Q281.5987 36.190624 282.31744 35.565624Q283.05182 34.925 284.2862 34.925Q285.52057 34.925 286.23932 35.6125Q286.95807 36.3 286.95807 37.315624Q286.95807 37.83125 286.73932 38.33125Q286.5362 38.815624 286.0362 39.378124Q285.55182 39.925 284.42682 40.878124Q283.4737 41.675 283.19244 41.971874Q282.92682 42.253124 282.75494 42.534374L286.9737 42.534374ZM289.4112 46.08125L288.6612 46.08125Q290.4112 43.26875 290.4112 40.440624Q290.4112 39.346874 290.1612 38.253124Q289.95807 37.378124 289.5987 36.565624Q289.36432 36.05 288.6612 34.815624L289.4112 34.815624Q290.50494 36.284374 291.0362 37.76875Q291.48932 39.05 291.48932 40.440624Q291.48932 42.01875 290.87994 43.503124Q290.27057 44.971874 289.4112 46.08125Z" fill-rule="nonzero"/><path fill="#1a1a1a" d="M181.98932 40.534374L183.11432 40.83125Q182.75494 42.221874 181.83307 42.95625Q180.9112 43.690624 179.56744 43.690624Q178.17682 43.690624 177.30182 43.128124Q176.42682 42.565624 175.9737 41.503124Q175.52057 40.425 175.52057 39.190624Q175.52057 37.846874 176.0362 36.846874Q176.55182 35.846874 177.48932 35.33125Q178.44244 34.815624 179.58307 34.815624Q180.86432 34.815624 181.73932 35.471874Q182.62994 36.128124 182.9737 37.315624L181.8487 37.58125Q181.55182 36.64375 180.9737 36.221874Q180.4112 35.784374 179.55182 35.784374Q178.56744 35.784374 177.89557 36.26875Q177.23932 36.7375 176.95807 37.534374Q176.69244 38.33125 176.69244 39.190624Q176.69244 40.284374 177.00494 41.096874Q177.33307 41.909374 178.00494 42.315624Q178.67682 42.721874 179.4737 42.721874Q180.42682 42.721874 181.08307 42.175Q181.75494 41.628124 181.98932 40.534374ZM184.7237 43.55L184.7237 34.95625L185.77057 34.95625L185.77057 38.034374Q186.50494 37.190624 187.62994 37.190624Q188.33307 37.190624 188.83307 37.471874Q189.3487 37.7375 189.56744 38.221874Q189.7862 38.690624 189.7862 39.6125L189.7862 43.55L188.73932 43.55L188.73932 39.6125Q188.73932 38.815624 188.39557 38.45625Q188.05182 38.096874 187.42682 38.096874Q186.95807 38.096874 186.5362 38.346874Q186.12994 38.58125 185.94244 39.003124Q185.77057 39.409374 185.77057 40.14375L185.77057 43.55L184.7237 43.55ZM191.70807 43.55L191.70807 37.33125L192.6612 37.33125L192.6612 38.26875Q193.02057 37.6125 193.31744 37.409374Q193.62994 37.190624 194.00494 37.190624Q194.5362 37.190624 195.08307 37.51875L194.7237 38.503124Q194.33307 38.26875 193.95807 38.26875Q193.5987 38.26875 193.31744 38.4875Q193.05182 38.690624 192.94244 39.065624Q192.75494 39.628124 192.75494 40.284374L192.75494 43.55L191.70807 43.55ZM195.33307 40.440624Q195.33307 38.70625 196.2862 37.878124Q197.08307 37.190624 198.23932 37.190624Q199.52057 37.190624 200.33307 38.034374Q201.1612 38.8625 201.1612 40.346874Q201.1612 41.55 200.80182 42.2375Q200.44244 42.925 199.73932 43.315624Q199.05182 43.690624 198.23932 43.690624Q196.94244 43.690624 196.12994 42.8625Q195.33307 42.01875 195.33307 40.440624ZM196.4112 40.440624Q196.4112 41.628124 196.92682 42.221874Q197.45807 42.815624 198.23932 42.815624Q199.0362 42.815624 199.55182 42.221874Q200.06744 41.628124 200.06744 40.409374Q200.06744 39.253124 199.5362 38.659374Q199.02057 38.065624 198.23932 38.065624Q197.45807 38.065624 196.92682 38.659374Q196.4112 39.2375 196.4112 40.440624ZM202.7237 43.55L202.7237 37.33125L203.6612 37.33125L203.6612 38.20625Q203.95807 37.7375 204.44244 37.471874Q204.92682 37.190624 205.55182 37.190624Q206.23932 37.190624 206.67682 37.471874Q207.12994 37.753124 207.30182 38.26875Q208.05182 37.190624 209.2237 37.190624Q210.1612 37.190624 210.64557 37.70625Q211.14557 38.20625 211.14557 39.284374L211.14557 43.55L210.0987 43.55L210.0987 39.628124Q210.0987 39.003124 209.98932 38.721874Q209.89557 38.440624 209.62994 38.26875Q209.36432 38.096874 208.98932 38.096874Q208.33307 38.096874 207.89557 38.534374Q207.4737 38.971874 207.4737 39.940624L207.4737 43.55L206.4112 43.55L206.4112 39.503124Q206.4112 38.8 206.14557 38.45625Q205.89557 38.096874 205.31744 38.096874Q204.86432 38.096874 204.48932 38.33125Q204.11432 38.565624 203.94244 39.01875Q203.77057 39.471874 203.77057 40.315624L203.77057 43.55L202.7237 43.55ZM217.9737 41.55L219.06744 41.675Q218.81744 42.628124 218.11432 43.159374Q217.4112 43.690624 216.33307 43.690624Q214.9737 43.690624 214.1612 42.846874Q213.36432 42.003124 213.36432 40.4875Q213.36432 38.925 214.17682 38.065624Q214.98932 37.190624 216.27057 37.190624Q217.52057 37.190624 218.30182 38.034374Q219.0987 38.878124 219.0987 40.425Q219.0987 40.51875 219.0987 40.70625L214.45807 40.70625Q214.52057 41.7375 215.0362 42.284374Q215.55182 42.815624 216.33307 42.815624Q216.9112 42.815624 217.31744 42.51875Q217.73932 42.20625 217.9737 41.55ZM214.52057 39.846874L217.98932 39.846874Q217.92682 39.05 217.5987 38.659374Q217.08307 38.05 216.2862 38.05Q215.55182 38.05 215.05182 38.534374Q214.56744 39.01875 214.52057 39.846874ZM223.81744 43.55L223.81744 34.95625L225.5362 34.95625L227.56744 41.034374Q227.8487 41.89375 227.9737 42.315624Q228.11432 41.846874 228.42682 40.940624L230.48932 34.95625L232.02057 34.95625L232.02057 43.55L230.92682 43.55L230.92682 36.3625L228.42682 43.55L227.39557 43.55L224.9112 36.2375L224.9112 43.55L223.81744 43.55ZM236.39557 43.55L235.3487 43.55L235.3487 36.83125Q234.95807 37.190624 234.33307 37.565624Q233.7237 37.925 233.23932 38.096874L233.23932 37.08125Q234.11432 36.659374 234.77057 36.08125Q235.44244 35.4875 235.7237 34.925L236.39557 34.925L236.39557 43.55ZM243.39557 43.55L242.3487 43.55L242.3487 36.83125Q241.95807 37.190624 241.33307 37.565624Q240.7237 37.925 240.23932 38.096874L240.23932 37.08125Q241.11432 36.659374 241.77057 36.08125Q242.44244 35.4875 242.7237 34.925L243.39557 34.925L243.39557 43.55ZM246.42682 39.315624Q246.42682 37.784374 246.73932 36.8625Q247.05182 35.925 247.6612 35.425Q248.2862 34.925 249.2237 34.925Q249.9112 34.925 250.42682 35.20625Q250.95807 35.4875 251.30182 36.01875Q251.64557 36.534374 251.83307 37.284374Q252.02057 38.034374 252.02057 39.315624Q252.02057 40.83125 251.70807 41.753124Q251.4112 42.675 250.7862 43.190624Q250.17682 43.690624 249.2237 43.690624Q247.98932 43.690624 247.27057 42.8Q246.42682 41.7375 246.42682 39.315624ZM247.50494 39.315624Q247.50494 41.425 248.00494 42.128124Q248.50494 42.83125 249.2237 42.83125Q249.95807 42.83125 250.44244 42.128124Q250.94244 41.425 250.94244 39.315624Q250.94244 37.190624 250.44244 36.503124Q249.95807 35.8 249.20807 35.8Q248.48932 35.8 248.05182 36.409374Q247.50494 37.190624 247.50494 39.315624ZM258.73932 46.08125Q257.86432 44.971874 257.25494 43.503124Q256.6612 42.01875 256.6612 40.440624Q256.6612 39.05 257.0987 37.76875Q257.62994 36.284374 258.73932 34.815624L259.48932 34.815624Q258.7862 36.034374 258.55182 36.55Q258.19244 37.3625 257.98932 38.2375Q257.73932 39.33125 257.73932 40.440624Q257.73932 43.26875 259.48932 46.08125L258.73932 46.08125ZM265.9737 42.534374L265.9737 43.55L260.2862 43.55Q260.2862 43.175 260.4112 42.815624Q260.62994 42.2375 261.0987 41.675Q261.58307 41.1125 262.48932 40.378124Q263.89557 39.221874 264.37994 38.55Q264.87994 37.878124 264.87994 37.284374Q264.87994 36.659374 264.42682 36.2375Q263.9737 35.8 263.25494 35.8Q262.48932 35.8 262.0362 36.253124Q261.58307 36.70625 261.56744 37.51875L260.48932 37.409374Q260.5987 36.190624 261.31744 35.565624Q262.05182 34.925 263.2862 34.925Q264.52057 34.925 265.23932 35.6125Q265.95807 36.3 265.95807 37.315624Q265.95807 37.83125 265.73932 38.33125Q265.5362 38.815624 265.0362 39.378124Q264.55182 39.925 263.42682 40.878124Q262.4737 41.675 262.19244 41.971874Q261.92682 42.253124 261.75494 42.534374L265.9737 42.534374ZM267.42682 39.315624Q267.42682 37.784374 267.73932 36.8625Q268.05182 35.925 268.6612 35.425Q269.2862 34.925 270.2237 34.925Q270.9112 34.925 271.42682 35.20625Q271.95807 35.4875 272.30182 36.01875Q272.64557 36.534374 272.83307 37.284374Q273.02057 38.034374 273.02057 39.315624Q273.02057 40.83125 272.70807 41.753124Q272.4112 42.675 271.7862 43.190624Q271.17682 43.690624 270.2237 43.690624Q268.98932 43.690624 268.27057 42.8Q267.42682 41.7375 267.42682 39.315624ZM268.50494 39.315624Q268.50494 41.425 269.00494 42.128124Q269.50494 42.83125 270.2237 42.83125Q270.95807 42.83125 271.44244 42.128124Q271.94244 41.425 271.94244 39.315624Q271.94244 37.190624 271.44244 36.503124Q270.95807 35.8 270.20807 35.8Q269.48932 35.8 269.05182 36.409374Q268.50494 37.190624 268.50494 39.315624ZM279.9737 42.534374L279.9737 43.55L274.2862 43.55Q274.2862 43.175 274.4112 42.815624Q274.62994 42.2375 275.0987 41.675Q275.58307 41.1125 276.48932 40.378124Q277.89557 39.221874 278.37994 38.55Q278.87994 37.878124 278.87994 37.284374Q278.87994 36.659374 278.42682 36.2375Q277.9737 35.8 277.25494 35.8Q276.48932 35.8 276.0362 36.253124Q275.58307 36.70625 275.56744 37.51875L274.48932 37.409374Q274.5987 36.190624 275.31744 35.565624Q276.05182 34.925 277.2862 34.925Q278.52057 34.925 279.23932 35.6125Q279.95807 36.3 279.95807 37.315624Q279.95807 37.83125 279.73932 38.33125Q279.5362 38.815624 279.0362 39.378124Q278.55182 39.925 277.42682 40.878124Q276.4737 41.675 276.19244 41.971874Q275.92682 42.253124 275.75494 42.534374L279.9737 42.534374ZM286.9737 42.534374L286.9737 43.55L281.2862 43.55Q281.2862 43.175 281.4112 42.815624Q281.62994 42.2375 282.0987 41.675Q282.58307 41.1125 283.48932 40.378124Q284.89557 39.221874 285.37994 38.55Q285.87994 37.878124 285.87994 37.284374Q285.87994 36.659374 285.42682 36.2375Q284.9737 35.8 284.25494 35.8Q283.48932 35.8 283.0362 36.253124Q282.58307 36.70625 282.56744 37.51875L281.48932 37.409374Q281.5987 36.190624 282.31744 35.565624Q283.05182 34.925 284.2862 34.925Q285.52057 34.925 286.23932 35.6125Q286.95807 36.3 286.95807 37.315624Q286.95807 37.83125 286.73932 38.33125Q286.5362 38.815624 286.0362 39.378124Q285.55182 39.925 284.42682 40.878124Q283.4737 41.675 283.19244 41.971874Q282.92682 42.253124 282.75494 42.534374L286.9737 42.534374ZM289.4112 46.08125L288.6612 46.08125Q290.4112 43.26875 290.4112 40.440624Q290.4112 39.346874 290.1612 38.253124Q289.95807 37.378124 289.5987 36.565624Q289.36432 36.05 288.6612 34.815624L289.4112 34.815624Q290.50494 36.284374 291.0362 37.76875Q291.48932 39.05 291.48932 40.440624Q291.48932 42.01875 290.87994 43.503124Q290.27057 44.971874 289.4112 46.08125Z" fill-rule="nonzero"/><path fill="#ea4335" d="M307.92682 34.55C307.92682 33.997715 308.37454 33.55 308.92682 33.55L318.92682 33.55C319.4791 33.55 319.92682 33.997715 319.92682 34.55L319.92682 44.55C319.92682 45.102283 319.4791 45.55 318.92682 45.55L308.92682 45.55C308.37454 45.55 307.92682 45.102283 307.92682 44.55Z" fill-rule="nonzero"/><path stroke="#ffffff" stroke-width="3.0" stroke-linejoin="round" stroke-linecap="round" d="M334.98932 40.534374L336.11432 40.83125Q335.75494 42.221874 334.83307 42.95625Q333.9112 43.690624 332.56744 43.690624Q331.17682 43.690624 330.30182 43.128124Q329.42682 42.565624 328.9737 41.503124Q328.52057 40.425 328.52057 39.190624Q328.52057 37.846874 329.0362 36.846874Q329.55182 35.846874 330.48932 35.33125Q331.44244 34.815624 332.58307 34.815624Q333.86432 34.815624 334.73932 35.471874Q335.62994 36.128124 335.9737 37.315624L334.8487 37.58125Q334.55182 36.64375 333.9737 36.221874Q333.4112 35.784374 332.55182 35.784374Q331.56744 35.784374 330.89557 36.26875Q330.23932 36.7375 329.95807 37.534374Q329.69244 38.33125 329.69244 39.190624Q329.69244 40.284374 330.00494 41.096874Q330.33307 41.909374 331.00494 42.315624Q331.67682 42.721874 332.4737 42.721874Q333.42682 42.721874 334.08307 42.175Q334.75494 41.628124 334.98932 40.534374ZM337.7237 43.55L337.7237 34.95625L338.77057 34.95625L338.77057 38.034374Q339.50494 37.190624 340.62994 37.190624Q341.33307 37.190624 341.83307 37.471874Q342.3487 37.7375 342.56744 38.221874Q342.7862 38.690624 342.7862 39.6125L342.7862 43.55L341.73932 43.55L341.73932 39.6125Q341.73932 38.815624 341.39557 38.45625Q341.05182 38.096874 340.42682 38.096874Q339.95807 38.096874 339.5362 38.346874Q339.12994 38.58125 338.94244 39.003124Q338.77057 39.409374 338.77057 40.14375L338.77057 43.55L337.7237 43.55ZM344.70807 43.55L344.70807 37.33125L345.6612 37.33125L345.6612 38.26875Q346.02057 37.6125 346.31744 37.409374Q346.62994 37.190624 347.00494 37.190624Q347.5362 37.190624 348.08307 37.51875L347.7237 38.503124Q347.33307 38.26875 346.95807 38.26875Q346.5987 38.26875 346.31744 38.4875Q346.05182 38.690624 345.94244 39.065624Q345.75494 39.628124 345.75494 40.284374L345.75494 43.55L344.70807 43.55ZM348.33307 40.440624Q348.33307 38.70625 349.2862 37.878124Q350.08307 37.190624 351.23932 37.190624Q352.52057 37.190624 353.33307 38.034374Q354.1612 38.8625 354.1612 40.346874Q354.1612 41.55 353.80182 42.2375Q353.44244 42.925 352.73932 43.315624Q352.05182 43.690624 351.23932 43.690624Q349.94244 43.690624 349.12994 42.8625Q348.33307 42.01875 348.33307 40.440624ZM349.4112 40.440624Q349.4112 41.628124 349.92682 42.221874Q350.45807 42.815624 351.23932 42.815624Q352.0362 42.815624 352.55182 42.221874Q353.06744 41.628124 353.06744 40.409374Q353.06744 39.253124 352.5362 38.659374Q352.02057 38.065624 351.23932 38.065624Q350.45807 38.065624 349.92682 38.659374Q349.4112 39.2375 349.4112 40.440624ZM355.7237 43.55L355.7237 37.33125L356.6612 37.33125L356.6612 38.20625Q356.95807 37.7375 357.44244 37.471874Q357.92682 37.190624 358.55182 37.190624Q359.23932 37.190624 359.67682 37.471874Q360.12994 37.753124 360.30182 38.26875Q361.05182 37.190624 362.2237 37.190624Q363.1612 37.190624 363.64557 37.70625Q364.14557 38.20625 364.14557 39.284374L364.14557 43.55L363.0987 43.55L363.0987 39.628124Q363.0987 39.003124 362.98932 38.721874Q362.89557 38.440624 362.62994 38.26875Q362.36432 38.096874 361.98932 38.096874Q361.33307 38.096874 360.89557 38.534374Q360.4737 38.971874 360.4737 39.940624L360.4737 43.55L359.4112 43.55L359.4112 39.503124Q359.4112 38.8 359.14557 38.45625Q358.89557 38.096874 358.31744 38.096874Q357.86432 38.096874 357.48932 38.33125Q357.11432 38.565624 356.94244 39.01875Q356.77057 39.471874 356.77057 40.315624L356.77057 43.55L355.7237 43.55ZM370.9737 41.55L372.06744 41.675Q371.81744 42.628124 371.11432 43.159374Q370.4112 43.690624 369.33307 43.690624Q367.9737 43.690624 367.1612 42.846874Q366.36432 42.003124 366.36432 40.4875Q366.36432 38.925 367.17682 38.065624Q367.98932 37.190624 369.27057 37.190624Q370.52057 37.190624 371.30182 38.034374Q372.0987 38.878124 372.0987 40.425Q372.0987 40.51875 372.0987 40.70625L367.45807 40.70625Q367.52057 41.7375 368.0362 42.284374Q368.55182 42.815624 369.33307 42.815624Q369.9112 42.815624 370.31744 42.51875Q370.73932 42.20625 370.9737 41.55ZM367.52057 39.846874L370.98932 39.846874Q370.92682 39.05 370.5987 38.659374Q370.08307 38.05 369.2862 38.05Q368.55182 38.05 368.05182 38.534374Q367.56744 39.01875 367.52057 39.846874ZM376.81744 43.55L376.81744 34.95625L378.5362 34.95625L380.56744 41.034374Q380.8487 41.89375 380.9737 42.315624Q381.11432 41.846874 381.42682 40.940624L383.48932 34.95625L385.02057 34.95625L385.02057 43.55L383.92682 43.55L383.92682 36.3625L381.42682 43.55L380.39557 43.55L377.9112 36.2375L377.9112 43.55L376.81744 43.55ZM389.39557 43.55L388.3487 43.55L388.3487 36.83125Q387.95807 37.190624 387.33307 37.565624Q386.7237 37.925 386.23932 38.096874L386.23932 37.08125Q387.11432 36.659374 387.77057 36.08125Q388.44244 35.4875 388.7237 34.925L389.39557 34.925L389.39557 43.55ZM397.9737 42.534374L397.9737 43.55L392.2862 43.55Q392.2862 43.175 392.4112 42.815624Q392.62994 42.2375 393.0987 41.675Q393.58307 41.1125 394.48932 40.378124Q395.89557 39.221874 396.37994 38.55Q396.87994 37.878124 396.87994 37.284374Q396.87994 36.659374 396.42682 36.2375Q395.9737 35.8 395.25494 35.8Q394.48932 35.8 394.0362 36.253124Q393.58307 36.70625 393.56744 37.51875L392.48932 37.409374Q392.5987 36.190624 393.31744 35.565624Q394.05182 34.925 395.2862 34.925Q396.52057 34.925 397.23932 35.6125Q397.95807 36.3 397.95807 37.315624Q397.95807 37.83125 397.73932 38.33125Q397.5362 38.815624 397.0362 39.378124Q396.55182 39.925 395.42682 40.878124Q394.4737 41.675 394.19244 41.971874Q393.92682 42.253124 393.75494 42.534374L397.9737 42.534374ZM403.39557 43.55L402.3487 43.55L402.3487 36.83125Q401.95807 37.190624 401.33307 37.565624Q400.7237 37.925 400.23932 38.096874L400.23932 37.08125Q401.11432 36.659374 401.77057 36.08125Q402.44244 35.4875 402.7237 34.925L403.39557 34.925L403.39557 43.55ZM411.73932 46.08125Q410.86432 44.971874 410.25494 43.503124Q409.6612 42.01875 409.6612 40.440624Q409.6612 39.05 410.0987 37.76875Q410.62994 36.284374 411.73932 34.815624L412.48932 34.815624Q411.7862 36.034374 411.55182 36.55Q411.19244 37.3625 410.98932 38.2375Q410.73932 39.33125 410.73932 40.440624Q410.73932 43.26875 412.48932 46.08125L411.73932 46.08125ZM418.9737 42.534374L418.9737 43.55L413.2862 43.55Q413.2862 43.175 413.4112 42.815624Q413.62994 42.2375 414.0987 41.675Q414.58307 41.1125 415.48932 40.378124Q416.89557 39.221874 417.37994 38.55Q417.87994 37.878124 417.87994 37.284374Q417.87994 36.659374 417.42682 36.2375Q416.9737 35.8 416.25494 35.8Q415.48932 35.8 415.0362 36.253124Q414.58307 36.70625 414.56744 37.51875L413.48932 37.409374Q413.5987 36.190624 414.31744 35.565624Q415.05182 34.925 416.2862 34.925Q417.52057 34.925 418.23932 35.6125Q418.95807 36.3 418.95807 37.315624Q418.95807 37.83125 418.73932 38.33125Q418.5362 38.815624 418.0362 39.378124Q417.55182 39.925 416.42682 40.878124Q415.4737 41.675 415.19244 41.971874Q414.92682 42.253124 414.75494 42.534374L418.9737 42.534374ZM420.42682 39.315624Q420.42682 37.784374 420.73932 36.8625Q421.05182 35.925 421.6612 35.425Q422.2862 34.925 423.2237 34.925Q423.9112 34.925 424.42682 35.20625Q424.95807 35.4875 425.30182 36.01875Q425.64557 36.534374 425.83307 37.284374Q426.02057 38.034374 426.02057 39.315624Q426.02057 40.83125 425.70807 41.753124Q425.4112 42.675 424.7862 43.190624Q424.17682 43.690624 423.2237 43.690624Q421.98932 43.690624 421.27057 42.8Q420.42682 41.7375 420.42682 39.315624ZM421.50494 39.315624Q421.50494 41.425 422.00494 42.128124Q422.50494 42.83125 423.2237 42.83125Q423.95807 42.83125 424.44244 42.128124Q424.94244 41.425 424.94244 39.315624Q424.94244 37.190624 424.44244 36.503124Q423.95807 35.8 423.20807 35.8Q422.48932 35.8 422.05182 36.409374Q421.50494 37.190624 421.50494 39.315624ZM432.9737 42.534374L432.9737 43.55L427.2862 43.55Q427.2862 43.175 427.4112 42.815624Q427.62994 42.2375 428.0987 41.675Q428.58307 41.1125 429.48932 40.378124Q430.89557 39.221874 431.37994 38.55Q431.87994 37.878124 431.87994 37.284374Q431.87994 36.659374 431.42682 36.2375Q430.9737 35.8 430.25494 35.8Q429.48932 35.8 429.0362 36.253124Q428.58307 36.70625 428.56744 37.51875L427.48932 37.409374Q427.5987 36.190624 428.31744 35.565624Q429.05182 34.925 430.2862 34.925Q431.52057 34.925 432.23932 35.6125Q432.95807 36.3 432.95807 37.315624Q432.95807 37.83125 432.73932 38.33125Q432.5362 38.815624 432.0362 39.378124Q431.55182 39.925 430.42682 40.878124Q429.4737 41.675 429.19244 41.971874Q428.92682 42.253124 428.75494 42.534374L432.9737 42.534374ZM434.42682 41.284374L435.48932 41.14375Q435.6612 42.034374 436.0987 42.440624Q436.5362 42.83125 437.1612 42.83125Q437.9112 42.83125 438.42682 42.315624Q438.94244 41.8 438.94244 41.034374Q438.94244 40.315624 438.45807 39.846874Q437.98932 39.3625 437.25494 39.3625Q436.95807 39.3625 436.50494 39.4875L436.62994 38.55Q436.73932 38.565624 436.80182 38.565624Q437.4737 38.565624 438.00494 38.221874Q438.55182 37.8625 438.55182 37.128124Q438.55182 36.55 438.1612 36.175Q437.77057 35.784374 437.14557 35.784374Q436.5362 35.784374 436.11432 36.175Q435.70807 36.565624 435.5987 37.33125L434.5362 37.14375Q434.7237 36.096874 435.4112 35.51875Q436.0987 34.925 437.11432 34.925Q437.81744 34.925 438.4112 35.2375Q439.00494 35.534374 439.31744 36.05Q439.62994 36.565624 439.62994 37.159374Q439.62994 37.70625 439.33307 38.175Q439.0362 38.628124 438.45807 38.89375Q439.20807 39.065624 439.62994 39.628124Q440.05182 40.175 440.05182 41.01875Q440.05182 42.14375 439.2237 42.925Q438.4112 43.70625 437.1612 43.70625Q436.0362 43.70625 435.2862 43.034374Q434.5362 42.346874 434.42682 41.284374ZM442.4112 46.08125L441.6612 46.08125Q443.4112 43.26875 443.4112 40.440624Q443.4112 39.346874 443.1612 38.253124Q442.95807 37.378124 442.5987 36.565624Q442.36432 36.05 441.6612 34.815624L442.4112 34.815624Q443.50494 36.284374 444.0362 37.76875Q444.48932 39.05 444.48932 40.440624Q444.48932 42.01875 443.87994 43.503124Q443.27057 44.971874 442.4112 46.08125Z" fill-rule="nonzero"/><path fill="#1a1a1a" d="M334.98932 40.534374L336.11432 40.83125Q335.75494 42.221874 334.83307 42.95625Q333.9112 43.690624 332.56744 43.690624Q331.17682 43.690624 330.30182 43.128124Q329.42682 42.565624 328.9737 41.503124Q328.52057 40.425 328.52057 39.190624Q328.52057 37.846874 329.0362 36.846874Q329.55182 35.846874 330.48932 35.33125Q331.44244 34.815624 332.58307 34.815624Q333.86432 34.815624 334.73932 35.471874Q335.62994 36.128124 335.9737 37.315624L334.8487 37.58125Q334.55182 36.64375 333.9737 36.221874Q333.4112 35.784374 332.55182 35.784374Q331.56744 35.784374 330.89557 36.26875Q330.23932 36.7375 329.95807 37.534374Q329.69244 38.33125 329.69244 39.190624Q329.69244 40.284374 330.00494 41.096874Q330.33307 41.909374 331.00494 42.315624Q331.67682 42.721874 332.4737 42.721874Q333.42682 42.721874 334.08307 42.175Q334.75494 41.628124 334.98932 40.534374ZM337.7237 43.55L337.7237 34.95625L338.77057 34.95625L338.77057 38.034374Q339.50494 37.190624 340.62994 37.190624Q341.33307 37.190624 341.83307 37.471874Q342.3487 37.7375 342.56744 38.221874Q342.7862 38.690624 342.7862 39.6125L342.7862 43.55L341.73932 43.55L341.73932 39.6125Q341.73932 38.815624 341.39557 38.45625Q341.05182 38.096874 340.42682 38.096874Q339.95807 38.096874 339.5362 38.346874Q339.12994 38.58125 338.94244 39.003124Q338.77057 39.409374 338.77057 40.14375L338.77057 43.55L337.7237 43.55ZM344.70807 43.55L344.70807 37.33125L345.6612 37.33125L345.6612 38.26875Q346.02057 37.6125 346.31744 37.409374Q346.62994 37.190624 347.00494 37.190624Q347.5362 37.190624 348.08307 37.51875L347.7237 38.503124Q347.33307 38.26875 346.95807 38.26875Q346.5987 38.26875 346.31744 38.4875Q346.05182 38.690624 345.94244 39.065624Q345.75494 39.628124 345.75494 40.284374L345.75494 43.55L344.70807 43.55ZM348.33307 40.440624Q348.33307 38.70625 349.2862 37.878124Q350.08307 37.190624 351.23932 37.190624Q352.52057 37.190624 353.33307 38.034374Q354.1612 38.8625 354.1612 40.346874Q354.1612 41.55 353.80182 42.2375Q353.44244 42.925 352.73932 43.315624Q352.05182 43.690624 351.23932 43.690624Q349.94244 43.690624 349.12994 42.8625Q348.33307 42.01875 348.33307 40.440624ZM349.4112 40.440624Q349.4112 41.628124 349.92682 42.221874Q350.45807 42.815624 351.23932 42.815624Q352.0362 42.815624 352.55182 42.221874Q353.06744 41.628124 353.06744 40.409374Q353.06744 39.253124 352.5362 38.659374Q352.02057 38.065624 351.23932 38.065624Q350.45807 38.065624 349.92682 38.659374Q349.4112 39.2375 349.4112 40.440624ZM355.7237 43.55L355.7237 37.33125L356.6612 37.33125L356.6612 38.20625Q356.95807 37.7375 357.44244 37.471874Q357.92682 37.190624 358.55182 37.190624Q359.23932 37.190624 359.67682 37.471874Q360.12994 37.753124 360.30182 38.26875Q361.05182 37.190624 362.2237 37.190624Q363.1612 37.190624 363.64557 37.70625Q364.14557 38.20625 364.14557 39.284374L364.14557 43.55L363.0987 43.55L363.0987 39.628124Q363.0987 39.003124 362.98932 38.721874Q362.89557 38.440624 362.62994 38.26875Q362.36432 38.096874 361.98932 38.096874Q361.33307 38.096874 360.89557 38.534374Q360.4737 38.971874 360.4737 39.940624L360.4737 43.55L359.4112 43.55L359.4112 39.503124Q359.4112 38.8 359.14557 38.45625Q358.89557 38.096874 358.31744 38.096874Q357.86432 38.096874 357.48932 38.33125Q357.11432 38.565624 356.94244 39.01875Q356.77057 39.471874 356.77057 40.315624L356.77057 43.55L355.7237 43.55ZM370.9737 41.55L372.06744 41.675Q371.81744 42.628124 371.11432 43.159374Q370.4112 43.690624 369.33307 43.690624Q367.9737 43.690624 367.1612 42.846874Q366.36432 42.003124 366.36432 40.4875Q366.36432 38.925 367.17682 38.065624Q367.98932 37.190624 369.27057 37.190624Q370.52057 37.190624 371.30182 38.034374Q372.0987 38.878124 372.0987 40.425Q372.0987 40.51875 372.0987 40.70625L367.45807 40.70625Q367.52057 41.7375 368.0362 42.284374Q368.55182 42.815624 369.33307 42.815624Q369.9112 42.815624 370.31744 42.51875Q370.73932 42.20625 370.9737 41.55ZM367.52057 39.846874L370.98932 39.846874Q370.92682 39.05 370.5987 38.659374Q370.08307 38.05 369.2862 38.05Q368.55182 38.05 368.05182 38.534374Q367.56744 39.01875 367.52057 39.846874ZM376.81744 43.55L376.81744 34.95625L378.5362 34.95625L380.56744 41.034374Q380.8487 41.89375 380.9737 42.315624Q381.11432 41.846874 381.42682 40.940624L383.48932 34.95625L385.02057 34.95625L385.02057 43.55L383.92682 43.55L383.92682 36.3625L381.42682 43.55L380.39557 43.55L377.9112 36.2375L377.9112 43.55L376.81744 43.55ZM389.39557 43.55L388.3487 43.55L388.3487 36.83125Q387.95807 37.190624 387.33307 37.565624Q386.7237 37.925 386.23932 38.096874L386.23932 37.08125Q387.11432 36.659374 387.77057 36.08125Q388.44244 35.4875 388.7237 34.925L389.39557 34.925L389.39557 43.55ZM397.9737 42.534374L397.9737 43.55L392.2862 43.55Q392.2862 43.175 392.4112 42.815624Q392.62994 42.2375 393.0987 41.675Q393.58307 41.1125 394.48932 40.378124Q395.89557 39.221874 396.37994 38.55Q396.87994 37.878124 396.87994 37.284374Q396.87994 36.659374 396.42682 36.2375Q395.9737 35.8 395.25494 35.8Q394.48932 35.8 394.0362 36.253124Q393.58307 36.70625 393.56744 37.51875L392.48932 37.409374Q392.5987 36.190624 393.31744 35.565624Q394.05182 34.925 395.2862 34.925Q396.52057 34.925 397.23932 35.6125Q397.95807 36.3 397.95807 37.315624Q397.95807 37.83125 397.73932 38.33125Q397.5362 38.815624 397.0362 39.378124Q396.55182 39.925 395.42682 40.878124Q394.4737 41.675 394.19244 41.971874Q393.92682 42.253124 393.75494 42.534374L397.9737 42.534374ZM403.39557 43.55L402.3487 43.55L402.3487 36.83125Q401.95807 37.190624 401.33307 37.565624Q400.7237 37.925 400.23932 38.096874L400.23932 37.08125Q401.11432 36.659374 401.77057 36.08125Q402.44244 35.4875 402.7237 34.925L403.39557 34.925L403.39557 43.55ZM411.73932 46.08125Q410.86432 44.971874 410.25494 43.503124Q409.6612 42.01875 409.6612 40.440624Q409.6612 39.05 410.0987 37.76875Q410.62994 36.284374 411.73932 34.815624L412.48932 34.815624Q411.7862 36.034374 411.55182 36.55Q411.19244 37.3625 410.98932 38.2375Q410.73932 39.33125 410.73932 40.440624Q410.73932 43.26875 412.48932 46.08125L411.73932 46.08125ZM418.9737 42.534374L418.9737 43.55L413.2862 43.55Q413.2862 43.175 413.4112 42.815624Q413.62994 42.2375 414.0987 41.675Q414.58307 41.1125 415.48932 40.378124Q416.89557 39.221874 417.37994 38.55Q417.87994 37.878124 417.87994 37.284374Q417.87994 36.659374 417.42682 36.2375Q416.9737 35.8 416.25494 35.8Q415.48932 35.8 415.0362 36.253124Q414.58307 36.70625 414.56744 37.51875L413.48932 37.409374Q413.5987 36.190624 414.31744 35.565624Q415.05182 34.925 416.2862 34.925Q417.52057 34.925 418.23932 35.6125Q418.95807 36.3 418.95807 37.315624Q418.95807 37.83125 418.73932 38.33125Q418.5362 38.815624 418.0362 39.378124Q417.55182 39.925 416.42682 40.878124Q415.4737 41.675 415.19244 41.971874Q414.92682 42.253124 414.75494 42.534374L418.9737 42.534374ZM420.42682 39.315624Q420.42682 37.784374 420.73932 36.8625Q421.05182 35.925 421.6612 35.425Q422.2862 34.925 423.2237 34.925Q423.9112 34.925 424.42682 35.20625Q424.95807 35.4875 425.30182 36.01875Q425.64557 36.534374 425.83307 37.284374Q426.02057 38.034374 426.02057 39.315624Q426.02057 40.83125 425.70807 41.753124Q425.4112 42.675 424.7862 43.190624Q424.17682 43.690624 423.2237 43.690624Q421.98932 43.690624 421.27057 42.8Q420.42682 41.7375 420.42682 39.315624ZM421.50494 39.315624Q421.50494 41.425 422.00494 42.128124Q422.50494 42.83125 423.2237 42.83125Q423.95807 42.83125 424.44244 42.128124Q424.94244 41.425 424.94244 39.315624Q424.94244 37.190624 424.44244 36.503124Q423.95807 35.8 423.20807 35.8Q422.48932 35.8 422.05182 36.409374Q421.50494 37.190624 421.50494 39.315624ZM432.9737 42.534374L432.9737 43.55L427.2862 43.55Q427.2862 43.175 427.4112 42.815624Q427.62994 42.2375 428.0987 41.675Q428.58307 41.1125 429.48932 40.378124Q430.89557 39.221874 431.37994 38.55Q431.87994 37.878124 431.87994 37.284374Q431.87994 36.659374 431.42682 36.2375Q430.9737 35.8 430.25494 35.8Q429.48932 35.8 429.0362 36.253124Q428.58307 36.70625 428.56744 37.51875L427.48932 37.409374Q427.5987 36.190624 428.31744 35.565624Q429.05182 34.925 430.2862 34.925Q431.52057 34.925 432.23932 35.6125Q432.95807 36.3 432.95807 37.315624Q432.95807 37.83125 432.73932 38.33125Q432.5362 38.815624 432.0362 39.378124Q431.55182 39.925 430.42682 40.878124Q429.4737 41.675 429.19244 41.971874Q428.92682 42.253124 428.75494 42.534374L432.9737 42.534374ZM434.42682 41.284374L435.48932 41.14375Q435.6612 42.034374 436.0987 42.440624Q436.5362 42.83125 437.1612 42.83125Q437.9112 42.83125 438.42682 42.315624Q438.94244 41.8 438.94244 41.034374Q438.94244 40.315624 438.45807 39.846874Q437.98932 39.3625 437.25494 39.3625Q436.95807 39.3625 436.50494 39.4875L436.62994 38.55Q436.73932 38.565624 436.80182 38.565624Q437.4737 38.565624 438.00494 38.221874Q438.55182 37.8625 438.55182 37.128124Q438.55182 36.55 438.1612 36.175Q437.77057 35.784374 437.14557 35.784374Q436.5362 35.784374 436.11432 36.175Q435.70807 36.565624 435.5987 37.33125L434.5362 37.14375Q434.7237 36.096874 435.4112 35.51875Q436.0987 34.925 437.11432 34.925Q437.81744 34.925 438.4112 35.2375Q439.00494 35.534374 439.31744 36.05Q439.62994 36.565624 439.62994 37.159374Q439.62994 37.70625 439.33307 38.175Q439.0362 38.628124 438.45807 38.89375Q439.20807 39.065624 439.62994 39.628124Q440.05182 40.175 440.05182 41.01875Q440.05182 42.14375 439.2237 42.925Q438.4112 43.70625 437.1612 43.70625Q436.0362 43.70625 435.2862 43.034374Q434.5362 42.346874 434.42682 41.284374ZM442.4112 46.08125L441.6612 46.08125Q443.4112 43.26875 443.4112 40.440624Q443.4112 39.346874 443.1612 38.253124Q442.95807 37.378124 442.5987 36.565624Q442.36432 36.05 441.6612 34.815624L442.4112 34.815624Q443.50494 36.284374 444.0362 37.76875Q444.48932 39.05 444.48932 40.440624Q444.48932 42.01875 443.87994 43.503124Q443.27057 44.971874 442.4112 46.08125Z" fill-rule="nonzero"/></svg>