<svg xmlns="http://www.w3.org/2000/svg" width="352" height="242"><path fill="#fff" d="M0 0h352v242H0z"/><g fill="none" stroke-miterlimit="10"><path d="M96.5 5.5h250v200h-250z" stroke="#ddd"/><path d="M96.5 205.5z" pointer-events="none"/><path d="M96.5 205.5V5.5m42 200V5.5m41 200V5.5m42 200V5.5m42 200V5.5m41 200V5.5m42 200V5.5" pointer-events="none" stroke="#ddd"/><path d="M96.5 205.5z" pointer-events="none"/><path d="M96.5 205.5v5m42-5v5m41-5v5m42-5v5m42-5v5m41-5v5m42-5v5" pointer-events="none" stroke="#888"/><g pointer-events="none" font-family="sans-serif" font-size="10" fill="#000"><text transform="translate(96.5 220.5)">−10%</text><text text-anchor="middle" transform="translate(179.833 220.5)">0%</text><text text-anchor="middle" transform="translate(263.167 220.5)">10%</text><text text-anchor="end" transform="translate(346.5 220.5)">20%</text></g><path stroke="#888" d="M96.5 205.5h250" pointer-events="none"/><text text-anchor="middle" transform="translate(221.5 235.5)" font-family="sans-serif" font-size="11" font-weight="bold" fill="#000" pointer-events="none">mac-10_12_laptop_low_end-perf</text><path d="M96.5 5.5z" pointer-events="none"/><path d="M96.5 15.5h-5m5 20h-5m5 20h-5m5 20h-5m5 20h-5m5 20h-5m5 20h-5m5 20h-5m5 20h-5m5 20h-5" pointer-events="none" stroke="#888"/><g pointer-events="none" text-anchor="end" font-family="sans-serif" font-size="10" fill="#000"><text transform="translate(89.5 18)">autocad</text><text transform="translate(89.5 38)">cnn</text><text transform="translate(89.5 58)">docs_scrolling</text><text transform="translate(89.5 78)">flipboard</text><text transform="translate(89.5 98)">google</text><text transform="translate(89.5 118)">google_india</text><text transform="translate(89.5 138)">reddit</text><text transform="translate(89.5 158)">sheets</text><text transform="translate(89.5 178)">youtubetv</text><text transform="translate(89.5 198)">youtubetv_watch</text></g><path stroke="#888" d="M96.5 5.5v200" pointer-events="none"/><g><path d="M179.3 166h10.3v18h-10.3z" fill="#9d755d"/><path d="M179.3 186h15.3v18h-15.3z" fill="#bab0ac"/><path d="M179.3 26h57v18h-57z" fill="#f58518"/><path d="M179.3 66h19v18h-19z" fill="#72b7b2"/><path d="M179.3 126h1.5v18h-1.5z" fill="#b279a2"/><path d="M179.3 86h1.6v18h-1.6z" fill="#54a24b"/><path d="M158.9 106h20.4v18H159z" fill="#eeca3b"/><path d="M179.3 6h59.3v18h-59.3z" fill="#4c78a8"/><path d="M179.3 46h77.3v18h-77.3z" fill="#e45756"/><path d="M179.3 146h54.4v18h-54.4z" fill="#ff9da6"/></g><g stroke="#000"><path d="M169.8 175h41.9"/><path d="M170.4 195h50.2"/><path d="M219.6 35h31"/><path d="M154.7 75H224"/><path d="M168.4 135h28.9"/><path d="M142.7 95h62.6"/><path d="M139.8 115H174"/><path d="M208.8 15h56.4"/><path d="M241.7 55h30.7"/><path d="M224.7 155H245"/></g></g></svg>