<svg xmlns="http://www.w3.org/2000/svg" width="352" height="242"><path fill="#fff" d="M0 0h352v242H0z"/><g fill="none" stroke-miterlimit="10"><path d="M96.5 5.5h250v200h-250z" stroke="#ddd"/><path d="M96.5 205.5z" pointer-events="none"/><path d="M96.5 205.5V5.5m42 200V5.5m41 200V5.5m42 200V5.5m42 200V5.5m41 200V5.5m42 200V5.5" pointer-events="none" stroke="#ddd"/><path d="M96.5 205.5z" pointer-events="none"/><path d="M96.5 205.5v5m42-5v5m41-5v5m42-5v5m42-5v5m41-5v5m42-5v5" pointer-events="none" stroke="#888"/><g pointer-events="none" font-family="sans-serif" font-size="10" fill="#000"><text transform="translate(96.5 220.5)">−10%</text><text text-anchor="middle" transform="translate(179.833 220.5)">0%</text><text text-anchor="middle" transform="translate(263.167 220.5)">10%</text><text text-anchor="end" transform="translate(346.5 220.5)">20%</text></g><path stroke="#888" d="M96.5 205.5h250" pointer-events="none"/><text text-anchor="middle" transform="translate(221.5 235.5)" font-family="sans-serif" font-size="11" font-weight="bold" fill="#000" pointer-events="none">mac-m1_mini_2020-perf</text><path d="M96.5 5.5z" pointer-events="none"/><path d="M96.5 15.5h-5m5 20h-5m5 20h-5m5 20h-5m5 20h-5m5 20h-5m5 20h-5m5 20h-5m5 20h-5m5 20h-5" pointer-events="none" stroke="#888"/><g pointer-events="none" text-anchor="end" font-family="sans-serif" font-size="10" fill="#000"><text transform="translate(89.5 18)">autocad</text><text transform="translate(89.5 38)">cnn</text><text transform="translate(89.5 58)">docs_scrolling</text><text transform="translate(89.5 78)">flipboard</text><text transform="translate(89.5 98)">google</text><text transform="translate(89.5 118)">google_india</text><text transform="translate(89.5 138)">reddit</text><text transform="translate(89.5 158)">sheets</text><text transform="translate(89.5 178)">youtubetv</text><text transform="translate(89.5 198)">youtubetv_watch</text></g><path stroke="#888" d="M96.5 5.5v200" pointer-events="none"/><g><path d="M179.3 166h3.4v18h-3.4z" fill="#9d755d"/><path d="M179.3 186h27.2v18h-27.2z" fill="#bab0ac"/><path d="M179.3 26h40v18h-40z" fill="#f58518"/><path d="M179.3 66H211v18h-31.6z" fill="#72b7b2"/><path d="M179.3 126H202v18h-22.7z" fill="#b279a2"/><path d="M151.8 86h27.5v18h-27.5z" fill="#54a24b"/><path d="M114 106h65.3v18h-65.2z" fill="#eeca3b"/><path d="M171 6h8.3v18h-8.2z" fill="#4c78a8"/><path d="M179.3 46h87v18h-87z" fill="#e45756"/><path d="M179.3 146h87v18h-87z" fill="#ff9da6"/></g><g stroke="#000"><path d="M170.2 175h22.4"/><path d="M171.5 195h125.8"/><path d="M213.2 35H224"/><path d="M180.3 75h47.3"/><path d="M185.6 135h40.2"/><path d="M127.1 95h69.6"/><path d="M101 115h29.4"/><path d="M96 15h209.3"/><path d="M247.2 55h32.3"/><path d="M260.4 155h12.3"/></g></g></svg>