<svg xmlns="http://www.w3.org/2000/svg" width="569" height="127"><path fill="#fff" d="M0 0h569v127H0z"/><g fill="none" stroke-miterlimit="10"><path d="M163.5 5.5h400v100h-400z" stroke="#ddd"/><path d="M163.5 105.5z" pointer-events="none"/><path d="M163.5 105.5V5.5m44 100V5.5m45 100V5.5m44 100V5.5m45 100V5.5m44 100V5.5m45 100V5.5m44 100V5.5m45 100V5.5m44 100V5.5" pointer-events="none" stroke="#ddd"/><path d="M163.5 105.5z" pointer-events="none"/><path d="M163.5 105.5v5m44-5v5m45-5v5m44-5v5m45-5v5m44-5v5m45-5v5m44-5v5m45-5v5m44-5v5" pointer-events="none" stroke="#888"/><g pointer-events="none" font-family="sans-serif" font-size="10" fill="#000"><text transform="translate(163.5 120.5)">0%</text><text text-anchor="middle" transform="translate(207.944 120.5)">2%</text><text text-anchor="middle" transform="translate(252.389 120.5)">4%</text><text text-anchor="middle" transform="translate(296.833 120.5)">6%</text><text text-anchor="middle" transform="translate(341.278 120.5)">8%</text><text text-anchor="middle" transform="translate(385.722 120.5)">10%</text><text text-anchor="middle" transform="translate(430.167 120.5)">12%</text><text text-anchor="middle" transform="translate(474.611 120.5)">14%</text><text text-anchor="middle" transform="translate(519.056 120.5)">16%</text><text text-anchor="end" transform="translate(563.5 120.5)">18%</text></g><path stroke="#888" d="M163.5 105.5h400" pointer-events="none"/><path d="M163.5 5.5z" pointer-events="none"/><path d="M163.5 15.5h-5m5 20h-5m5 20h-5m5 20h-5m5 20h-5" pointer-events="none" stroke="#888"/><g pointer-events="none" text-anchor="end" font-family="sans-serif" font-size="10" fill="#000"><text transform="translate(156.5 18)">linux-perf</text><text transform="translate(156.5 38)">mac-10_12_laptop_low_end-perf</text><text transform="translate(156.5 58)">mac-10_13_laptop_high_end-perf</text><text transform="translate(156.5 78)">mac-m1_mini_2020-perf</text><text transform="translate(156.5 98)">win-10-perf</text></g><path stroke="#888" d="M163.5 5.5v100" pointer-events="none"/><g fill="#4c78a8"><path d="M163 6h330.3v18H163zm0 20h125.5v18H163zm0 20h125.7v18H163zm0 20h216.1v18H163zm0 20h180.8v18H163z"/></g><g stroke="#000"><path d="M450.5 15h87.7M239.1 35h101.5m-85.8 20h77.8m-21.2 20h144M303 95h84.2"/></g></g></svg>