<svg xmlns="http://www.w3.org/2000/svg" width="352" height="242"><path fill="#fff" d="M0 0h352v242H0z"/><g fill="none" stroke-miterlimit="10"><path d="M96.5 5.5h250v200h-250z" stroke="#ddd"/><path d="M96.5 205.5z" pointer-events="none"/><path d="M96.5 205.5V5.5m42 200V5.5m41 200V5.5m42 200V5.5m42 200V5.5m41 200V5.5m42 200V5.5" pointer-events="none" stroke="#ddd"/><path d="M96.5 205.5z" pointer-events="none"/><path d="M96.5 205.5v5m42-5v5m41-5v5m42-5v5m42-5v5m41-5v5m42-5v5" pointer-events="none" stroke="#888"/><g pointer-events="none" font-family="sans-serif" font-size="10" fill="#000"><text transform="translate(96.5 220.5)">−10%</text><text text-anchor="middle" transform="translate(179.833 220.5)">0%</text><text text-anchor="middle" transform="translate(263.167 220.5)">10%</text><text text-anchor="end" transform="translate(346.5 220.5)">20%</text></g><path stroke="#888" d="M96.5 205.5h250" pointer-events="none"/><text text-anchor="middle" transform="translate(221.5 235.5)" font-family="sans-serif" font-size="11" font-weight="bold" fill="#000" pointer-events="none">mac-10_13_laptop_high_end-perf</text><path d="M96.5 5.5z" pointer-events="none"/><path d="M96.5 15.5h-5m5 20h-5m5 20h-5m5 20h-5m5 20h-5m5 20h-5m5 20h-5m5 20h-5m5 20h-5m5 20h-5" pointer-events="none" stroke="#888"/><g pointer-events="none" text-anchor="end" font-family="sans-serif" font-size="10" fill="#000"><text transform="translate(89.5 18)">autocad</text><text transform="translate(89.5 38)">cnn</text><text transform="translate(89.5 58)">docs_scrolling</text><text transform="translate(89.5 78)">flipboard</text><text transform="translate(89.5 98)">google</text><text transform="translate(89.5 118)">google_india</text><text transform="translate(89.5 138)">reddit</text><text transform="translate(89.5 158)">sheets</text><text transform="translate(89.5 178)">youtubetv</text><text transform="translate(89.5 198)">youtubetv_watch</text></g><path stroke="#888" d="M96.5 5.5v200" pointer-events="none"/><g><path d="M179.3 166h10.4v18h-10.4z" fill="#9d755d"/><path d="M179.3 186h15.3v18h-15.3z" fill="#bab0ac"/><path d="M179.3 26h53.3v18h-53.3z" fill="#f58518"/><path d="M179.3 66h50.8v18h-50.8z" fill="#72b7b2"/><path d="M179.3 126h21.5v18h-21.5z" fill="#b279a2"/><path d="M179.3 86h5.4v18h-5.4z" fill="#54a24b"/><path d="M179.3 106h34.1v18h-34z" fill="#eeca3b"/><path d="M179.3 6H222v18h-42.6z" fill="#4c78a8"/><path d="M179.3 46h58.4v18h-58.4z" fill="#e45756"/><path d="M179.3 146h70.1v18h-70z" fill="#ff9da6"/></g><g stroke="#000"><path d="M183.5 175H202"/><path d="M164.4 195H244"/><path d="M226 35h15.4"/><path d="M222 75h15.5"/><path d="M194 135h13.6"/><path d="M172.7 95H200"/><path d="M199.8 115h29.4"/><path d="M184.3 15h73"/><path d="M232.2 55H244"/><path d="M241.9 155h13"/></g></g></svg>