<svg xmlns="http://www.w3.org/2000/svg" width="352" height="242"><path fill="#fff" d="M0 0h352v242H0z"/><g fill="none" stroke-miterlimit="10"><path d="M96.5 5.5h250v200h-250z" stroke="#ddd"/><path d="M96.5 205.5z" pointer-events="none"/><path d="M96.5 205.5V5.5m42 200V5.5m41 200V5.5m42 200V5.5m42 200V5.5m41 200V5.5m42 200V5.5" pointer-events="none" stroke="#ddd"/><path d="M96.5 205.5z" pointer-events="none"/><path d="M96.5 205.5v5m42-5v5m41-5v5m42-5v5m42-5v5m41-5v5m42-5v5" pointer-events="none" stroke="#888"/><g pointer-events="none" font-family="sans-serif" font-size="10" fill="#000"><text transform="translate(96.5 220.5)">−10%</text><text text-anchor="middle" transform="translate(179.833 220.5)">0%</text><text text-anchor="middle" transform="translate(263.167 220.5)">10%</text><text text-anchor="end" transform="translate(346.5 220.5)">20%</text></g><path stroke="#888" d="M96.5 205.5h250" pointer-events="none"/><text text-anchor="middle" transform="translate(221.5 235.5)" font-family="sans-serif" font-size="11" font-weight="bold" fill="#000" pointer-events="none">win-10-perf</text><path d="M96.5 5.5z" pointer-events="none"/><path d="M96.5 15.5h-5m5 20h-5m5 20h-5m5 20h-5m5 20h-5m5 20h-5m5 20h-5m5 20h-5m5 20h-5m5 20h-5" pointer-events="none" stroke="#888"/><g pointer-events="none" text-anchor="end" font-family="sans-serif" font-size="10" fill="#000"><text transform="translate(89.5 18)">autocad</text><text transform="translate(89.5 38)">cnn</text><text transform="translate(89.5 58)">docs_scrolling</text><text transform="translate(89.5 78)">flipboard</text><text transform="translate(89.5 98)">google</text><text transform="translate(89.5 118)">google_india</text><text transform="translate(89.5 138)">maps</text><text transform="translate(89.5 158)">reddit</text><text transform="translate(89.5 178)">youtubetv</text><text transform="translate(89.5 198)">youtubetv_watch</text></g><path stroke="#888" d="M96.5 5.5v200" pointer-events="none"/><g><path d="M179.3 166h12.2v18h-12.2z" fill="#9d755d"/><path d="M179.3 186H211v18h-31.7z" fill="#bab0ac"/><path d="M179.3 26H229v18h-49.7z" fill="#f58518"/><path d="M179.3 66h72.5v18h-72.5z" fill="#72b7b2"/><path d="M159.9 146h19.4v18H160z" fill="#ff9da6"/><path d="M179.3 86h8.2v18h-8.2z" fill="#54a24b"/><path d="M179.3 106h4.2v18h-4.2z" fill="#eeca3b"/><path d="M179.3 6h105.8v18H179.3z" fill="#4c78a8"/><path d="M179.3 46H265v18h-85.7z" fill="#e45756"/><path d="M179.3 126h58.9v18h-58.9z" fill="#b279a2"/></g><g stroke="#000"><path d="M138.5 175h98.3"/><path d="M96 195h224"/><path d="M206.9 35H252"/><path d="M217 75h64.7"/><path d="M96 155h105.9"/><path d="M172.3 95H208"/><path d="M126.7 115h88"/><path d="M186.5 15h152.3"/><path d="M247.8 55h31.5"/><path d="M181.4 135H280"/></g></g></svg>