<svg version="1.1" viewBox="0.0 0.0 567.0367454068241 458.1102362204724" fill="none" stroke="none" stroke-linecap="square" stroke-miterlimit="10" xmlns:xlink="http://www.w3.org/1999/xlink" xmlns="http://www.w3.org/2000/svg"><clipPath id="p.0"><path d="m0 0l567.03674 0l0 458.11023l-567.03674 0l0 -458.11023z" clip-rule="nonzero"/></clipPath><g clip-path="url(#p.0)"><path fill="#000000" fill-opacity="0.0" d="m0 0l567.03674 0l0 458.11023l-567.03674 0z" fill-rule="evenodd"/><path fill="#ea9999" d="m5.3530183 5.296588l555.40155 0l0 223.3386l-555.40155 0z" fill-rule="evenodd"/><path stroke="#000000" stroke-width="1.0" stroke-linejoin="round" stroke-linecap="butt" d="m5.3530183 5.296588l555.40155 0l0 223.3386l-555.40155 0z" fill-rule="evenodd"/><path fill="#000000" d="m226.01149 37.33659l-6.09375 -17.187502l2.25 0l4.25 12.453127l0.578125 1.703125l0.09375 0l0.59375 -1.703125l4.4375 -12.453127l2.265625 0l-6.296875 17.187502l-2.078125 0zm14.851456 0.390625q-1.578125 0 -2.84375 -0.640625q-1.265625 -0.65625 -1.984375 -1.765625q-0.71875 -1.125 -0.71875 -2.5q0 -0.9843769 0.359375 -1.7656269q0.359375 -0.78125 0.984375 -1.359375q0.625 -0.59375 1.390625 -0.953125l0 -0.09375q-0.90625 -0.546875 -1.546875 -1.484375q-0.640625 -0.9375 -0.640625 -2.015625q0 -1.328125 0.640625 -2.359375q0.640625 -1.03125 1.765625 -1.640625q1.125 -0.609375 2.59375 -0.609375q1.46875 0 2.578125 0.609375q1.109375 0.609375 1.75 1.640625q0.640625 1.03125 0.640625 2.359375q0 0.71875 -0.296875 1.375q-0.28125 0.65625 -0.78125 1.203125q-0.484375 0.53125 -1.078125 0.921875l0 0.09375q1.125 0.546875 1.921875 1.59375q0.8125 1.03125 0.8125 2.484377q0 1.375 -0.734375 2.5q-0.734375 1.109375 -1.984375 1.765625q-1.25 0.640625 -2.828125 0.640625zm0 -1.953125q0.953125 0 1.734375 -0.375q0.78125 -0.390625 1.25 -1.078125q0.46875 -0.703125 0.46875 -1.609375q0 -0.9218769 -0.46875 -1.5937519q-0.46875 -0.671875 -1.25 -1.046875q-0.78125 -0.390625 -1.734375 -0.390625q-0.96875 0 -1.765625 0.390625q-0.78125 0.375 -1.25 1.046875q-0.46875 0.671875 -0.46875 1.5937519q0 0.90625 0.46875 1.609375q0.46875 0.6875 1.25 1.078125q0.796875 0.375 1.765625 0.375zm0 -7.984377q0.84375 0 1.484375 -0.328125q0.65625 -0.34375 1.03125 -0.9375q0.390625 -0.609375 0.390625 -1.421875q0 -1.25 -0.859375 -1.9375q-0.84375 -0.6875 -2.046875 -0.6875q-1.21875 0 -2.078125 0.6875q-0.84375 0.6875 -0.84375 1.9375q0 0.8125 0.375 1.421875q0.390625 0.59375 1.0625 0.9375q0.671875 0.328125 1.484375 0.328125zm18.16571 9.937502q-1.25 0 -2.46875 -0.53125q-1.2187653 -0.53125 -2.1562653 -1.5625q-0.9375 -1.03125 -1.375 -2.5625l1.9375 -0.796875q0.421875 1.484375 1.5000153 2.5q1.078125 1.0 2.609375 1.0q0.96875 0 1.765625 -0.34375q0.8125 -0.34375 1.296875 -1.015625q0.484375 -0.671875 0.484375 -1.640625q0 -0.8593769 -0.421875 -1.4531269q-0.40625 -0.609375 -1.25 -1.078125q-0.84375 -0.46875 -2.0625 -0.890625l-1.078125 -0.390625q-0.71875 -0.265625 -1.453125 -0.640625q-0.73439026 -0.375 -1.3437653 -0.90625q-0.609375 -0.546875 -0.96875 -1.296875q-0.359375 -0.75 -0.359375 -1.796875q0 -1.234375 0.671875 -2.265625q0.671875 -1.03125 1.8437653 -1.65625q1.171875 -0.625 2.703125 -0.625q1.609375 0 2.703125 0.59375q1.09375 0.578125 1.71875 1.390625q0.640625 0.796875 0.859375 1.46875l-1.890625 0.8125q-0.140625 -0.5 -0.546875 -1.03125q-0.40625 -0.546875 -1.09375 -0.921875q-0.6875 -0.375 -1.71875 -0.375q-0.84375 0 -1.578125 0.34375q-0.734375 0.328125 -1.171875 0.921875q-0.43751526 0.578125 -0.43751526 1.34375q0 1.09375 0.85939026 1.71875q0.859375 0.609375 2.328125 1.125l1.125 0.375q0.765625 0.265625 1.5625 0.65625q0.8125 0.375 1.5 0.984375q0.703125 0.59375 1.140625 1.46875q0.4375 0.875 0.4375 2.109377q0 1.3125 -0.515625 2.265625q-0.515625 0.9375 -1.359375 1.546875q-0.84375 0.59375 -1.84375 0.875q-0.984375 0.28125 -1.953125 0.28125zm12.191071 0q-1.359375 0 -2.40625 -0.53125q-1.03125 -0.53125 -1.625 -1.453125q-0.578125 -0.921875 -0.578125 -2.109375q0 -1.34375 0.6875 -2.265627q0.703125 -0.921875 1.875 -1.390625q1.1875 -0.46875 2.59375 -0.46875q0.828125 0 1.515625 0.140625q0.703125 0.125 1.21875 0.3125q0.515625 0.171875 0.78125 0.34375l0 -0.75q0 -1.390625 -0.984375 -2.203125q-0.984375 -0.8125 -2.40625 -0.8125q-1.0 0 -1.875 0.453125q-0.875 0.4375 -1.390625 1.21875l-1.53125 -1.140625q0.484375 -0.71875 1.203125 -1.25q0.71875 -0.53125 1.640625 -0.8125q0.921875 -0.296875 1.953125 -0.296875q2.5 0 3.90625 1.328125q1.421875 1.3125 1.421875 3.546875l0 7.750002l-1.9375 0l0 -1.75l-0.09375 0q-0.3125 0.53125 -0.890625 1.03125q-0.578125 0.484375 -1.359375 0.796875q-0.78125 0.3125 -1.71875 0.3125zm0.1875 -1.8125q1.0625 0 1.9375 -0.515625q0.875 -0.53125 1.40625 -1.421875q0.53125 -0.890625 0.53125 -1.9375q-0.5625 -0.3906269 -1.390625 -0.6250019q-0.828125 -0.25 -1.8125 -0.25q-1.75 0 -2.5625 0.71875q-0.8125 0.7187519 -0.8125 1.7812519q0 1.015625 0.765625 1.640625q0.765625 0.609375 1.9375 0.609375zm8.6502075 1.421875l0 -12.234377l1.9375 0l0 1.796875l0.09375 0q0.484375 -0.890625 1.578125 -1.53125q1.09375 -0.65625 2.390625 -0.65625q2.25 0 3.390625 1.3125q1.140625 1.296875 1.140625 3.46875l0 7.843752l-2.03125 0l0 -7.531252q0 -1.78125 -0.859375 -2.515625q-0.859375 -0.734375 -2.203125 -0.734375q-1.0 0 -1.765625 0.578125q-0.765625 0.5625 -1.203125 1.453125q-0.4375 0.875 -0.4375 1.859375l0 6.890627l-2.03125 0zm18.667114 0.390625q-1.65625 0 -2.984375 -0.84375q-1.328125 -0.84375 -2.109375 -2.296875q-0.765625 -1.46875 -0.765625 -3.375002q0 -1.890625 0.765625 -3.34375q0.78125 -1.46875 2.109375 -2.3125q1.328125 -0.84375 2.984375 -0.84375q0.984375 0 1.796875 0.3125q0.828125 0.3125 1.4375 0.828125q0.609375 0.5 0.9375 1.0625l0.09375 0l-0.09375 -1.703125l0 -5.0625l2.046875 0l0 17.187502l-1.953125 0l0 -1.796875l-0.09375 0q-0.328125 0.546875 -0.9375 1.0625q-0.609375 0.5 -1.4375 0.8125q-0.8125 0.3125 -1.796875 0.3125zm0.21875 -1.859375q1.046875 0 1.96875 -0.5625q0.9375 -0.5625 1.5 -1.609375q0.578125 -1.046875 0.578125 -2.484377q0 -1.4375 -0.578125 -2.46875q-0.5625 -1.046875 -1.5 -1.609375q-0.921875 -0.578125 -1.96875 -0.578125q-1.0625 0 -1.984375 0.578125q-0.921875 0.5625 -1.5 1.609375q-0.578125 1.03125 -0.578125 2.46875q0 1.4218769 0.578125 2.484377q0.578125 1.046875 1.5 1.609375q0.921875 0.5625 1.984375 0.5625zm15.244812 1.859375q-0.984375 0 -1.8125 -0.3125q-0.8125 -0.3125 -1.421875 -0.8125q-0.609375 -0.515625 -0.953125 -1.0625l-0.09375 0l0 1.796875l-1.9375 0l0 -17.187502l2.03125 0l0 5.0625l-0.09375 1.703125l0.09375 0q0.34375 -0.5625 0.953125 -1.0625q0.609375 -0.515625 1.421875 -0.828125q0.828125 -0.3125 1.8125 -0.3125q1.671875 0 2.984375 0.84375q1.328125 0.84375 2.09375 2.3125q0.765625 1.453125 0.765625 3.34375q0 1.9062519 -0.765625 3.375002q-0.765625 1.453125 -2.09375 2.296875q-1.3125 0.84375 -2.984375 0.84375zm-0.21875 -1.859375q1.046875 0 1.96875 -0.5625q0.9375 -0.5625 1.5 -1.609375q0.5625 -1.0625 0.5625 -2.484377q0 -1.4375 -0.5625 -2.46875q-0.5625 -1.046875 -1.5 -1.609375q-0.921875 -0.578125 -1.96875 -0.578125q-1.0625 0 -1.984375 0.578125q-0.921875 0.5625 -1.5 1.609375q-0.578125 1.03125 -0.578125 2.46875q0 1.4375019 0.578125 2.484377q0.578125 1.046875 1.5 1.609375q0.921875 0.5625 1.984375 0.5625zm14.088562 1.859375q-1.859375 0 -3.28125 -0.859375q-1.40625 -0.875 -2.21875 -2.34375q-0.796875 -1.484375 -0.796875 -3.312502q0 -1.8125 0.796875 -3.28125q0.8125 -1.484375 2.21875 -2.34375q1.421875 -0.875 3.28125 -0.875q1.84375 0 3.25 0.875q1.421875 0.875 2.21875 2.359375q0.8125 1.46875 0.8125 3.265625q0 1.8281269 -0.8125 3.312502q-0.796875 1.46875 -2.21875 2.34375q-1.40625 0.859375 -3.25 0.859375zm0 -1.859375q1.09375 0 2.0625 -0.546875q0.984375 -0.546875 1.578125 -1.59375q0.609375 -1.046875 0.609375 -2.515627q0 -1.453125 -0.609375 -2.5q-0.59375 -1.046875 -1.578125 -1.59375q-0.96875 -0.5625 -2.0625 -0.5625q-1.109375 0 -2.09375 0.5625q-0.984375 0.546875 -1.59375 1.59375q-0.59375 1.046875 -0.59375 2.5q0 1.4687519 0.59375 2.515627q0.609375 1.046875 1.59375 1.59375q0.984375 0.546875 2.09375 0.546875zm7.1002197 1.46875l4.890625 -7.031252l0.21875 0l3.484375 -5.203125l2.390625 0l-4.796875 6.734375l-0.140625 0l-3.671875 5.500002l-2.375 0zm0.09375 -12.234377l2.3125 0l3.78125 5.4375l0.09375 0l4.78125 6.796877l-2.375 0l-3.640625 -5.421877l-0.171875 0l-4.78125 -6.8125z" fill-rule="nonzero"/><path fill="#b6d7a8" d="m373.53937 337.7194l0 0c0 -6.4158936 5.201111 -11.617035 11.617035 -11.617035l163.97855 0c3.0809937 0 6.0358276 1.223938 8.214478 3.4025574c2.1785889 2.1786194 3.4025269 5.1334534 3.4025269 8.214478l0 46.466736c0 6.4158936 -5.201111 11.617035 -11.617004 11.617035l-163.97855 0l0 0c-6.415924 0 -11.617035 -5.2011414 -11.617035 -11.617035z" fill-rule="evenodd"/><path stroke="#000000" stroke-width="1.0" stroke-linejoin="round" stroke-linecap="butt" d="m373.53937 337.7194l0 0c0 -6.4158936 5.201111 -11.617035 11.617035 -11.617035l163.97855 0c3.0809937 0 6.0358276 1.223938 8.214478 3.4025574c2.1785889 2.1786194 3.4025269 5.1334534 3.4025269 8.214478l0 46.466736c0 6.4158936 -5.201111 11.617035 -11.617004 11.617035l-163.97855 0l0 0c-6.415924 0 -11.617035 -5.2011414 -11.617035 -11.617035z" fill-rule="evenodd"/><path fill="#000000" d="m403.95547 367.87274l0 -13.359375l7.71875 0l0 1.515625l-6.140625 0l0 10.328125l6.140625 0l0 1.515625l-7.71875 0zm0.828125 -5.9375l0 -1.484375l6.296875 0l0 1.484375l-6.296875 0zm8.014801 5.9375l3.796875 -5.46875l0.171875 0l2.703125 -4.046875l1.859375 0l-3.71875 5.25l-0.125 0l-2.84375 4.265625l-1.84375 0zm0.0625 -9.515625l1.796875 0l2.953125 4.234375l0.0625 0l3.71875 5.28125l-1.84375 0l-2.84375 -4.21875l-0.125 0l-3.71875 -5.296875zm9.288727 0l5.578125 0l0 1.4375l-5.578125 0l0 -1.4375zm1.671875 7.015625l0 -9.703125l1.578125 0l0 9.3125q0 0.75 0.3125 1.15625q0.3125 0.40625 1.015625 0.40625q0.3125 0 0.578125 -0.09375q0.265625 -0.09375 0.46875 -0.21875l0 1.546875q-0.25 0.109375 -0.546875 0.171875q-0.28125 0.078125 -0.765625 0.078125q-1.1875 0 -1.921875 -0.703125q-0.71875 -0.703125 -0.71875 -1.953125zm9.617645 2.796875q-1.375 0 -2.453125 -0.640625q-1.0625 -0.65625 -1.671875 -1.796875q-0.609375 -1.140625 -0.609375 -2.59375q0 -1.359375 0.5625 -2.515625q0.578125 -1.15625 1.609375 -1.859375q1.03125 -0.703125 2.4375 -0.703125q1.421875 0 2.4375 0.625q1.015625 0.625 1.5625 1.734375q0.546875 1.09375 0.546875 2.515625q0 0.125 -0.015625 0.265625q0 0.125 -0.015625 0.21875l-8.1875 0l0 -1.3125l6.546875 0q-0.015625 -0.390625 -0.1875 -0.84375q-0.15625 -0.46875 -0.5 -0.859375q-0.34375 -0.40625 -0.875 -0.65625q-0.53125 -0.25 -1.3125 -0.25q-0.9375 0 -1.625 0.484375q-0.671875 0.46875 -1.046875 1.296875q-0.359375 0.8125 -0.359375 1.859375q0 1.203125 0.46875 2.015625q0.46875 0.796875 1.203125 1.1875q0.75 0.390625 1.546875 0.390625q1.046875 0 1.71875 -0.484375q0.6875 -0.5 1.09375 -1.234375l1.34375 0.65625q-0.5625 1.078125 -1.609375 1.796875q-1.03125 0.703125 -2.609375 0.703125zm6.2690735 -0.296875l0 -9.515625l1.515625 0l0 1.53125l0.078125 0q0.1875 -0.546875 0.625 -0.9375q0.4375 -0.40625 1.0 -0.640625q0.578125 -0.234375 1.125 -0.234375q0.4375 0 0.671875 0.046875q0.25 0.046875 0.453125 0.140625l0 1.71875q-0.296875 -0.15625 -0.640625 -0.21875q-0.34375 -0.078125 -0.703125 -0.078125q-0.6875 0 -1.265625 0.390625q-0.578125 0.390625 -0.921875 1.046875q-0.34375 0.65625 -0.34375 1.4375l0 5.3125l-1.59375 0zm6.9960938 0l0 -9.515625l1.515625 0l0 1.40625l0.078125 0q0.375 -0.703125 1.21875 -1.203125q0.84375 -0.5 1.859375 -0.5q1.75 0 2.625 1.015625q0.890625 1.015625 0.890625 2.703125l0 6.09375l-1.578125 0l0 -5.859375q0 -1.375 -0.671875 -1.9375q-0.65625 -0.578125 -1.703125 -0.578125q-0.78125 0 -1.375 0.4375q-0.59375 0.4375 -0.9375 1.125q-0.328125 0.6875 -0.328125 1.453125l0 5.359375l-1.59375 0zm13.419708 0.296875q-1.0625 0 -1.875 -0.40625q-0.796875 -0.40625 -1.25 -1.125q-0.453125 -0.71875 -0.453125 -1.640625q0 -1.046875 0.53125 -1.765625q0.546875 -0.71875 1.453125 -1.078125q0.921875 -0.359375 2.015625 -0.359375q0.640625 0 1.171875 0.109375q0.546875 0.09375 0.9375 0.234375q0.40625 0.140625 0.625 0.265625l0 -0.578125q0 -1.078125 -0.765625 -1.703125q-0.765625 -0.640625 -1.875 -0.640625q-0.78125 0 -1.46875 0.34375q-0.671875 0.34375 -1.0625 0.953125l-1.203125 -0.890625q0.375 -0.5625 0.9375 -0.96875q0.5625 -0.40625 1.28125 -0.625q0.71875 -0.234375 1.515625 -0.234375q1.9375 0 3.03125 1.03125q1.109375 1.015625 1.109375 2.75l0 6.03125l-1.5 0l0 -1.359375l-0.078125 0q-0.25 0.40625 -0.703125 0.796875q-0.4375 0.375 -1.046875 0.609375q-0.609375 0.25 -1.328125 0.25zm0.140625 -1.390625q0.828125 0 1.5 -0.40625q0.6875 -0.421875 1.09375 -1.109375q0.421875 -0.6875 0.421875 -1.515625q-0.4375 -0.296875 -1.078125 -0.484375q-0.640625 -0.1875 -1.40625 -0.1875q-1.359375 0 -2.0 0.5625q-0.640625 0.5625 -0.640625 1.375q0 0.78125 0.59375 1.28125q0.609375 0.484375 1.515625 0.484375zm6.7189636 1.09375l0 -13.359375l1.59375 0l0 13.359375l-1.59375 0zm14.406982 0.296875q-1.46875 0 -2.71875 -0.53125q-1.25 -0.546875 -2.1875 -1.5q-0.921875 -0.96875 -1.4375 -2.21875q-0.5 -1.265625 -0.5 -2.71875q0 -1.46875 0.5 -2.71875q0.515625 -1.265625 1.4375 -2.21875q0.9375 -0.96875 2.1875 -1.5q1.25 -0.546875 2.71875 -0.546875q1.46875 0 2.71875 0.546875q1.25 0.53125 2.171875 1.5q0.921875 0.953125 1.4375 2.21875q0.515625 1.25 0.515625 2.71875q0 1.453125 -0.515625 2.71875q-0.515625 1.25 -1.4375 2.21875q-0.921875 0.953125 -2.171875 1.5q-1.25 0.53125 -2.71875 0.53125zm0 -1.515625q1.453125 0 2.640625 -0.6875q1.1875 -0.6875 1.890625 -1.921875q0.703125 -1.25 0.703125 -2.84375q0 -1.625 -0.703125 -2.859375q-0.703125 -1.234375 -1.890625 -1.921875q-1.1875 -0.6875 -2.640625 -0.6875q-1.4375 0 -2.640625 0.6875q-1.1875 0.6875 -1.90625 1.921875q-0.703125 1.234375 -0.703125 2.859375q0 1.59375 0.703125 2.84375q0.71875 1.234375 1.90625 1.921875q1.203125 0.6875 2.640625 0.6875zm13.685272 1.515625q-0.75 0 -1.390625 -0.25q-0.640625 -0.234375 -1.125 -0.625q-0.46875 -0.390625 -0.71875 -0.828125l-0.078125 0l0 1.40625l-1.515625 0l0 -13.359375l1.59375 0l0 3.9375l-0.078125 1.328125l0.078125 0q0.25 -0.453125 0.71875 -0.84375q0.484375 -0.390625 1.125 -0.625q0.640625 -0.25 1.390625 -0.25q1.3125 0 2.328125 0.65625q1.03125 0.65625 1.625 1.796875q0.609375 1.125 0.609375 2.609375q0 1.46875 -0.609375 2.609375q-0.59375 1.140625 -1.625 1.796875q-1.015625 0.640625 -2.328125 0.640625zm-0.15625 -1.4375q0.8125 0 1.53125 -0.4375q0.71875 -0.4375 1.15625 -1.25q0.4375 -0.828125 0.4375 -1.921875q0 -1.125 -0.4375 -1.9375q-0.4375 -0.8125 -1.15625 -1.25q-0.71875 -0.4375 -1.53125 -0.4375q-0.828125 0 -1.546875 0.4375q-0.71875 0.4375 -1.171875 1.25q-0.4375 0.8125 -0.4375 1.9375q0 1.109375 0.4375 1.921875q0.453125 0.8125 1.171875 1.25q0.71875 0.4375 1.546875 0.4375zm5.575226 5.359375q-0.265625 0 -0.46875 -0.046875q-0.203125 -0.03125 -0.375 -0.09375l0 -1.5q0.15625 0.078125 0.375 0.140625q0.21875 0.0625 0.40625 0.0625q0.609375 0 0.859375 -0.375q0.25 -0.375 0.25 -1.0625l0 -10.859375l1.578125 0l0 10.859375q0 0.984375 -0.328125 1.609375q-0.328125 0.640625 -0.921875 0.953125q-0.578125 0.3125 -1.375 0.3125zm1.828125 -15.484375q-0.46875 0 -0.8125 -0.328125q-0.328125 -0.34375 -0.328125 -0.8125q0 -0.484375 0.328125 -0.8125q0.34375 -0.328125 0.8125 -0.328125q0.484375 0 0.8125 0.328125q0.328125 0.328125 0.328125 0.8125q0 0.46875 -0.328125 0.8125q-0.328125 0.328125 -0.8125 0.328125zm7.419861 11.5625q-1.375 0 -2.453125 -0.640625q-1.0625 -0.65625 -1.671875 -1.796875q-0.609375 -1.140625 -0.609375 -2.59375q0 -1.359375 0.5625 -2.515625q0.578125 -1.15625 1.609375 -1.859375q1.03125 -0.703125 2.4375 -0.703125q1.421875 0 2.4374695 0.625q1.015625 0.625 1.5625 1.734375q0.546875 1.09375 0.546875 2.515625q0 0.125 -0.015625 0.265625q0 0.125 -0.015625 0.21875l-8.1874695 0l0 -1.3125l6.5468445 0q-0.015625 -0.390625 -0.1875 -0.84375q-0.15625 -0.46875 -0.49996948 -0.859375q-0.34375 -0.40625 -0.875 -0.65625q-0.53125 -0.25 -1.3125 -0.25q-0.9375 0 -1.625 0.484375q-0.671875 0.46875 -1.046875 1.296875q-0.359375 0.8125 -0.359375 1.859375q0 1.203125 0.46875 2.015625q0.46875 0.796875 1.203125 1.1875q0.75 0.390625 1.546875 0.390625q1.046875 0 1.71875 -0.484375q0.6874695 -0.5 1.0937195 -1.234375l1.34375 0.65625q-0.5625 1.078125 -1.609375 1.796875q-1.0312195 0.703125 -2.6093445 0.703125zm10.674896 0q-1.40625 0 -2.5 -0.65625q-1.078125 -0.671875 -1.703125 -1.8125q-0.609375 -1.15625 -0.609375 -2.578125q0 -1.46875 0.609375 -2.59375q0.625 -1.140625 1.703125 -1.796875q1.09375 -0.671875 2.5 -0.671875q1.609375 0 2.640625 0.734375q1.03125 0.734375 1.46875 1.890625l-1.4375 0.609375q-0.359375 -0.890625 -1.0625 -1.34375q-0.6875 -0.453125 -1.6875 -0.453125q-0.828125 0 -1.546875 0.453125q-0.71875 0.4375 -1.171875 1.25q-0.453125 0.8125 -0.453125 1.921875q0 1.078125 0.453125 1.90625q0.453125 0.8125 1.171875 1.265625q0.71875 0.4375 1.546875 0.4375q1.015625 0 1.734375 -0.46875q0.734375 -0.46875 1.09375 -1.3125l1.40625 0.59375q-0.46875 1.09375 -1.515625 1.859375q-1.03125 0.765625 -2.640625 0.765625zm5.1242065 -9.8125l5.578125 0l0 1.4375l-5.578125 0l0 -1.4375zm1.671875 7.015625l0 -9.703125l1.578125 0l0 9.3125q0 0.75 0.3125 1.15625q0.3125 0.40625 1.015625 0.40625q0.3125 0 0.578125 -0.09375q0.265625 -0.09375 0.46875 -0.21875l0 1.546875q-0.25 0.109375 -0.546875 0.171875q-0.28125 0.078125 -0.765625 0.078125q-1.1875 0 -1.921875 -0.703125q-0.71875 -0.703125 -0.71875 -1.953125z" fill-rule="nonzero"/><path fill="#ffe599" d="m64.45932 146.85063l0 0c0 -6.415909 5.2011185 -11.617035 11.617027 -11.617035l135.91556 0c3.0810242 0 6.035858 1.223938 8.214478 3.402542c2.1786194 2.1786194 3.402542 5.1334534 3.402542 8.214493l0 46.46672c0 6.415909 -5.201111 11.617035 -11.61702 11.617035l-135.91556 0c-6.415909 0 -11.617027 -5.201126 -11.617027 -11.617035z" fill-rule="evenodd"/><path stroke="#000000" stroke-width="1.0" stroke-linejoin="round" stroke-linecap="butt" d="m64.45932 146.85063l0 0c0 -6.415909 5.2011185 -11.617035 11.617027 -11.617035l135.91556 0c3.0810242 0 6.035858 1.223938 8.214478 3.402542c2.1786194 2.1786194 3.402542 5.1334534 3.402542 8.214493l0 46.46672c0 6.415909 -5.201111 11.617035 -11.61702 11.617035l-135.91556 0c-6.415909 0 -11.617027 -5.201126 -11.617027 -11.617035z" fill-rule="evenodd"/><path fill="#000000" d="m108.32327 177.00398l-5.171875 -13.359375l1.921875 0l3.46875 9.703125q0.421875 1.171875 0.703125 2.1875q0.3125 -1.09375 0.71875 -2.1875l3.609375 -9.703125l1.796875 0l-5.234375 13.359375l-1.8125 0zm10.490448 -7.234375q-1.015625 -0.375 -1.515625 -1.0625q-0.484375 -0.703125 -0.484375 -1.671875q0 -1.453125 1.046875 -2.4375q1.046875 -1.0 2.78125 -1.0q1.75 0 2.8125 1.015625q1.078125 1.015625 1.078125 2.46875q0 0.9375 -0.5 1.625q-0.484375 0.6875 -1.46875 1.0625q1.21875 0.390625 1.859375 1.28125q0.65625 0.890625 0.65625 2.140625q0 1.703125 -1.21875 2.875q-1.21875 1.171875 -3.1875 1.171875q-1.984375 0 -3.203125 -1.171875q-1.203125 -1.171875 -1.203125 -2.921875q0 -1.3125 0.65625 -2.1875q0.671875 -0.875 1.890625 -1.1875zm-0.328125 -2.78125q0 0.9375 0.609375 1.546875q0.609375 0.59375 1.59375 0.59375q0.9375 0 1.546875 -0.59375q0.609375 -0.59375 0.609375 -1.453125q0 -0.90625 -0.625 -1.515625q-0.625 -0.625 -1.5625 -0.625q-0.9375 0 -1.5625 0.609375q-0.609375 0.59375 -0.609375 1.4375zm-0.53125 6.15625q0 0.703125 0.328125 1.359375q0.34375 0.65625 1.0 1.015625q0.65625 0.359375 1.40625 0.359375q1.171875 0 1.9375 -0.75q0.765625 -0.75 0.765625 -1.921875q0 -1.1875 -0.796875 -1.953125q-0.78125 -0.78125 -1.953125 -0.78125q-1.15625 0 -1.921875 0.765625q-0.765625 0.765625 -0.765625 1.90625zm14.027771 -2.640625q0 -3.328125 1.78125 -5.203125q1.78125 -1.890625 4.609375 -1.890625q1.84375 0 3.328125 0.890625q1.484375 0.875 2.265625 2.46875q0.78125 1.578125 0.78125 3.578125q0 2.03125 -0.828125 3.640625q-0.8125 1.59375 -2.3125 2.421875q-1.5 0.828125 -3.25 0.828125q-1.875 0 -3.359375 -0.90625q-1.484375 -0.921875 -2.25 -2.5q-0.765625 -1.578125 -0.765625 -3.328125zm1.8125 0.015625q0 2.421875 1.296875 3.8125q1.296875 1.390625 3.265625 1.390625q2.0 0 3.28125 -1.40625q1.28125 -1.40625 1.28125 -3.984375q0 -1.625 -0.546875 -2.84375q-0.546875 -1.21875 -1.609375 -1.875q-1.0625 -0.671875 -2.375 -0.671875q-1.890625 0 -3.25 1.296875q-1.34375 1.28125 -1.34375 4.28125zm14.527054 6.484375l-1.515625 0l0 -13.359375l1.640625 0l0 4.765625q1.046875 -1.296875 2.65625 -1.296875q0.890625 0 1.6875 0.359375q0.796875 0.359375 1.3125 1.015625q0.515625 0.640625 0.796875 1.5625q0.296875 0.921875 0.296875 1.96875q0 2.484375 -1.234375 3.84375q-1.21875 1.359375 -2.953125 1.359375q-1.703125 0 -2.6875 -1.4375l0 1.21875zm-0.015625 -4.90625q0 1.734375 0.484375 2.515625q0.765625 1.265625 2.09375 1.265625q1.078125 0 1.859375 -0.9375q0.78125 -0.9375 0.78125 -2.78125q0 -1.890625 -0.75 -2.796875q-0.75 -0.90625 -1.828125 -0.90625q-1.0625 0 -1.859375 0.9375q-0.78125 0.9375 -0.78125 2.703125zm8.875717 -6.546875l0 -1.90625l1.640625 0l0 1.90625l-1.640625 0zm-2.078125 15.203125l0.3125 -1.390625q0.5 0.125 0.78125 0.125q0.5 0 0.734375 -0.328125q0.25 -0.328125 0.25 -1.671875l0 -10.15625l1.640625 0l0 10.203125q0 1.78125 -0.46875 2.484375q-0.59375 0.90625 -1.96875 0.90625q-0.65625 0 -1.28125 -0.171875zm12.863571 -6.859375l1.6875 0.203125q-0.40625 1.484375 -1.484375 2.3125q-1.078125 0.8125 -2.765625 0.8125q-2.125 0 -3.375 -1.296875q-1.234375 -1.3125 -1.234375 -3.671875q0 -2.453125 1.25 -3.796875q1.265625 -1.34375 3.265625 -1.34375q1.9375 0 3.15625 1.328125q1.234375 1.3125 1.234375 3.703125q0 0.15625 0 0.4375l-7.21875 0q0.09375 1.59375 0.90625 2.453125q0.8125 0.84375 2.015625 0.84375q0.90625 0 1.546875 -0.46875q0.640625 -0.484375 1.015625 -1.515625zm-5.390625 -2.65625l5.40625 0q-0.109375 -1.21875 -0.625 -1.828125q-0.78125 -0.953125 -2.03125 -0.953125q-1.125 0 -1.90625 0.765625q-0.765625 0.75 -0.84375 2.015625zm15.453842 2.21875l1.609375 0.21875q-0.265625 1.65625 -1.359375 2.609375q-1.078125 0.9375 -2.671875 0.9375q-1.984375 0 -3.1875 -1.296875q-1.203125 -1.296875 -1.203125 -3.71875q0 -1.578125 0.515625 -2.75q0.515625 -1.171875 1.578125 -1.75q1.0625 -0.59375 2.3125 -0.59375q1.578125 0 2.578125 0.796875q1.0 0.796875 1.28125 2.265625l-1.59375 0.234375q-0.234375 -0.96875 -0.8125 -1.453125q-0.578125 -0.5 -1.390625 -0.5q-1.234375 0 -2.015625 0.890625q-0.78125 0.890625 -0.78125 2.8125q0 1.953125 0.75 2.84375q0.75 0.875 1.953125 0.875q0.96875 0 1.609375 -0.59375q0.65625 -0.59375 0.828125 -1.828125zm6.59375 2.078125l0.234375 1.453125q-0.6875 0.140625 -1.234375 0.140625q-0.890625 0 -1.390625 -0.28125q-0.484375 -0.28125 -0.6875 -0.734375q-0.203125 -0.46875 -0.203125 -1.9375l0 -5.578125l-1.203125 0l0 -1.265625l1.203125 0l0 -2.390625l1.625 -0.984375l0 3.375l1.65625 0l0 1.265625l-1.65625 0l0 5.671875q0 0.6875 0.078125 0.890625q0.09375 0.203125 0.28125 0.328125q0.203125 0.109375 0.578125 0.109375q0.265625 0 0.71875 -0.0625z" fill-rule="nonzero"/><path fill="#ffe599" d="m351.36353 69.868996l0 0c0 -6.415905 5.201111 -11.617027 11.617035 -11.617027l135.91553 0c3.0810242 0 6.035858 1.2239342 8.214478 3.4025497c2.1786194 2.1786156 3.4025574 5.1334534 3.4025574 8.214478l0 46.46673c0 6.415909 -5.201111 11.617035 -11.617035 11.617035l-135.91553 0c-6.415924 0 -11.617035 -5.201126 -11.617035 -11.617035z" fill-rule="evenodd"/><path stroke="#000000" stroke-width="1.0" stroke-linejoin="round" stroke-linecap="butt" d="m351.36353 69.868996l0 0c0 -6.415905 5.201111 -11.617027 11.617035 -11.617027l135.91553 0c3.0810242 0 6.035858 1.2239342 8.214478 3.4025497c2.1786194 2.1786156 3.4025574 5.1334534 3.4025574 8.214478l0 46.46673c0 6.415909 -5.201111 11.617035 -11.617035 11.617035l-135.91553 0c-6.415924 0 -11.617035 -5.201126 -11.617035 -11.617035z" fill-rule="evenodd"/><path fill="#000000" d="m395.22748 100.02236l-5.171875 -13.359375l1.921875 0l3.46875 9.703125q0.421875 1.171875 0.703125 2.1875q0.3125 -1.09375 0.71875 -2.1875l3.609375 -9.703125l1.796875 0l-5.234375 13.359375l-1.8125 0zm10.490448 -7.234375q-1.015625 -0.375 -1.515625 -1.0625q-0.484375 -0.703125 -0.484375 -1.671875q0 -1.453125 1.046875 -2.4375q1.046875 -1.0 2.78125 -1.0q1.75 0 2.8125 1.015625q1.078125 1.015625 1.078125 2.46875q0 0.9375 -0.5 1.625q-0.484375 0.6875 -1.46875 1.0625q1.21875 0.390625 1.859375 1.28125q0.65625 0.890625 0.65625 2.140625q0 1.703125 -1.21875 2.875q-1.21875 1.171875 -3.1875 1.171875q-1.984375 0 -3.203125 -1.171875q-1.203125 -1.171875 -1.203125 -2.921875q0 -1.3125 0.65625 -2.1875q0.671875 -0.875 1.890625 -1.1875zm-0.328125 -2.78125q0 0.9375 0.609375 1.546875q0.609375 0.59375 1.59375 0.59375q0.9375 0 1.546875 -0.59375q0.609375 -0.59375 0.609375 -1.453125q0 -0.90625 -0.625 -1.515625q-0.625 -0.625 -1.5625 -0.625q-0.9375 0 -1.5625 0.609375q-0.609375 0.59375 -0.609375 1.4375zm-0.53125 6.15625q0 0.703125 0.328125 1.359375q0.34375 0.65625 1.0 1.015625q0.65625 0.359375 1.40625 0.359375q1.171875 0 1.9375 -0.75q0.765625 -0.75 0.765625 -1.921875q0 -1.1875 -0.796875 -1.953125q-0.78125 -0.78125 -1.953125 -0.78125q-1.15625 0 -1.921875 0.765625q-0.765625 0.765625 -0.765625 1.90625zm14.027771 -2.640625q0 -3.328125 1.78125 -5.203125q1.78125 -1.890625 4.609375 -1.890625q1.84375 0 3.328125 0.890625q1.484375 0.875 2.265625 2.46875q0.78125 1.578125 0.78125 3.578125q0 2.03125 -0.828125 3.640625q-0.8125 1.59375 -2.3125 2.421875q-1.5 0.828125 -3.25 0.828125q-1.875 0 -3.359375 -0.90625q-1.484375 -0.921875 -2.25 -2.5q-0.765625 -1.578125 -0.765625 -3.328125zm1.8125 0.015625q0 2.421875 1.296875 3.8125q1.296875 1.390625 3.265625 1.390625q2.0 0 3.28125 -1.40625q1.28125 -1.40625 1.28125 -3.984375q0 -1.625 -0.546875 -2.84375q-0.546875 -1.21875 -1.609375 -1.875q-1.0625 -0.671875 -2.375 -0.671875q-1.890625 0 -3.25 1.296875q-1.34375 1.28125 -1.34375 4.28125zm14.527039 6.484375l-1.515625 0l0 -13.359375l1.640625 0l0 4.765625q1.046875 -1.296875 2.65625 -1.296875q0.890625 0 1.6875 0.359375q0.796875 0.359375 1.3125 1.015625q0.515625 0.640625 0.796875 1.5625q0.296875 0.921875 0.296875 1.96875q0 2.484375 -1.234375 3.84375q-1.21875 1.359375 -2.953125 1.359375q-1.703125 0 -2.6875 -1.4375l0 1.21875zm-0.015625 -4.90625q0 1.734375 0.484375 2.515625q0.765625 1.265625 2.09375 1.265625q1.078125 0 1.859375 -0.9375q0.78125 -0.9375 0.78125 -2.78125q0 -1.890625 -0.75 -2.796875q-0.75 -0.90625 -1.828125 -0.90625q-1.0625 0 -1.859375 0.9375q-0.78125 0.9375 -0.78125 2.703125zm8.875732 -6.546875l0 -1.90625l1.640625 0l0 1.90625l-1.640625 0zm-2.078125 15.203125l0.3125 -1.390625q0.5 0.125 0.78125 0.125q0.5 0 0.734375 -0.328125q0.25 -0.328125 0.25 -1.671875l0 -10.15625l1.640625 0l0 10.203125q0 1.78125 -0.46875 2.484375q-0.59375 0.90625 -1.96875 0.90625q-0.65625 0 -1.28125 -0.171875zm12.863556 -6.859375l1.6875 0.203125q-0.40625 1.484375 -1.484375 2.3125q-1.078125 0.8125 -2.765625 0.8125q-2.125 0 -3.375 -1.296875q-1.234375 -1.3125 -1.234375 -3.671875q0 -2.453125 1.25 -3.796875q1.265625 -1.34375 3.265625 -1.34375q1.9375 0 3.15625 1.328125q1.234375 1.3125 1.234375 3.703125q0 0.15625 0 0.4375l-7.21875 0q0.09375 1.59375 0.90625 2.453125q0.8125 0.84375 2.015625 0.84375q0.90625 0 1.546875 -0.46875q0.640625 -0.484375 1.015625 -1.515625zm-5.390625 -2.65625l5.40625 0q-0.109375 -1.21875 -0.625 -1.828125q-0.78125 -0.953125 -2.03125 -0.953125q-1.125 0 -1.90625 0.765625q-0.765625 0.75 -0.84375 2.015625zm15.453857 2.21875l1.609375 0.21875q-0.265625 1.65625 -1.359375 2.609375q-1.078125 0.9375 -2.671875 0.9375q-1.984375 0 -3.1875 -1.296875q-1.203125 -1.296875 -1.203125 -3.71875q0 -1.578125 0.515625 -2.75q0.515625 -1.171875 1.578125 -1.75q1.0625 -0.59375 2.3125 -0.59375q1.578125 0 2.578125 0.796875q1.0 0.796875 1.28125 2.265625l-1.59375 0.234375q-0.234375 -0.96875 -0.8125 -1.453125q-0.578125 -0.5 -1.390625 -0.5q-1.234375 0 -2.015625 0.890625q-0.78125 0.890625 -0.78125 2.8125q0 1.953125 0.75 2.84375q0.75 0.875 1.953125 0.875q0.96875 0 1.609375 -0.59375q0.65625 -0.59375 0.828125 -1.828125zm6.59375 2.078125l0.234375 1.453125q-0.6875 0.140625 -1.234375 0.140625q-0.890625 0 -1.390625 -0.28125q-0.484375 -0.28125 -0.6875 -0.734375q-0.203125 -0.46875 -0.203125 -1.9375l0 -5.578125l-1.203125 0l0 -1.265625l1.203125 0l0 -2.390625l1.625 -0.984375l0 3.375l1.65625 0l0 1.265625l-1.65625 0l0 5.671875q0 0.6875 0.078125 0.890625q0.09375 0.203125 0.28125 0.328125q0.203125 0.109375 0.578125 0.109375q0.265625 0 0.71875 -0.0625z" fill-rule="nonzero"/><path fill="#000000" fill-opacity="0.0" d="m223.60892 170.08398c103.66931 0 207.3386 -21.070862 207.3386 -42.141724" fill-rule="evenodd"/><path stroke="#000000" stroke-width="3.0" stroke-linejoin="round" stroke-linecap="butt" d="m223.60892 170.08398c51.834656 0 103.66931 -5.2677155 142.54529 -13.169281c19.437988 -3.9507904 35.636322 -8.560043 46.97513 -13.498535c1.4173889 -0.6173096 2.758789 -1.2397614 4.0211487 -1.8667145c0.31555176 -0.15673828 0.62615967 -0.31375122 0.93182373 -0.47105408l0.36044312 -0.18888855" fill-rule="evenodd"/><path fill="#000000" stroke="#000000" stroke-width="3.0" stroke-linecap="butt" d="m422.007 144.33192l5.893738 -13.235062l-13.022186 6.3502197z" fill-rule="evenodd"/><path fill="#000000" fill-opacity="0.0" d="m286.7126 168.12073l83.71655 0l0 42.015762l-83.71655 0z" fill-rule="evenodd"/><path fill="#000000" d="m296.61884 188.54073q0 -3.328125 1.78125 -5.203125q1.78125 -1.890625 4.609375 -1.890625q1.84375 0 3.328125 0.890625q1.484375 0.875 2.265625 2.46875q0.78125 1.578125 0.78125 3.578125q0 2.03125 -0.828125 3.640625q-0.8125 1.59375 -2.3125 2.421875q-1.5 0.828125 -3.25 0.828125q-1.875 0 -3.359375 -0.90625q-1.484375 -0.921875 -2.25 -2.5q-0.765625 -1.578125 -0.765625 -3.328125zm1.8125 0.015625q0 2.421875 1.296875 3.8125q1.296875 1.390625 3.265625 1.390625q2.0 0 3.28125 -1.40625q1.28125 -1.40625 1.28125 -3.984375q0 -1.625 -0.546875 -2.84375q-0.546875 -1.21875 -1.609375 -1.875q-1.0625 -0.671875 -2.375 -0.671875q-1.890625 0 -3.25 1.296875q-1.34375 1.28125 -1.34375 4.28125zm13.417694 6.484375l0 -8.40625l-1.453125 0l0 -1.265625l1.453125 0l0 -1.03125q0 -0.96875 0.171875 -1.453125q0.234375 -0.640625 0.828125 -1.03125q0.59375 -0.390625 1.671875 -0.390625q0.6875 0 1.53125 0.15625l-0.25 1.4375q-0.5 -0.09375 -0.953125 -0.09375q-0.75 0 -1.0625 0.328125q-0.3125 0.3125 -0.3125 1.1875l0 0.890625l1.890625 0l0 1.265625l-1.890625 0l0 8.40625l-1.625 0zm4.8460693 0l0 -8.40625l-1.453125 0l0 -1.265625l1.453125 0l0 -1.03125q0 -0.96875 0.171875 -1.453125q0.234375 -0.640625 0.828125 -1.03125q0.59375 -0.390625 1.671875 -0.390625q0.6875 0 1.53125 0.15625l-0.25 1.4375q-0.5 -0.09375 -0.953125 -0.09375q-0.75 0 -1.0625 0.328125q-0.3125 0.3125 -0.3125 1.1875l0 0.890625l1.890625 0l0 1.265625l-1.890625 0l0 8.40625l-1.625 0zm4.1364136 -2.890625l1.625 -0.25q0.125 0.96875 0.75 1.5q0.625 0.515625 1.75 0.515625q1.125 0 1.671875 -0.453125q0.546875 -0.46875 0.546875 -1.09375q0 -0.546875 -0.484375 -0.875q-0.328125 -0.21875 -1.671875 -0.546875q-1.8125 -0.46875 -2.515625 -0.796875q-0.6875 -0.328125 -1.046875 -0.90625q-0.359375 -0.59375 -0.359375 -1.3125q0 -0.640625 0.296875 -1.1875q0.296875 -0.5625 0.8125 -0.921875q0.375 -0.28125 1.03125 -0.46875q0.671875 -0.203125 1.421875 -0.203125q1.140625 0 2.0 0.328125q0.859375 0.328125 1.265625 0.890625q0.421875 0.5625 0.578125 1.5l-1.609375 0.21875q-0.109375 -0.75 -0.640625 -1.171875q-0.515625 -0.421875 -1.46875 -0.421875q-1.140625 0 -1.625 0.375q-0.46875 0.375 -0.46875 0.875q0 0.3125 0.1875 0.578125q0.203125 0.265625 0.640625 0.4375q0.234375 0.09375 1.4375 0.421875q1.75 0.453125 2.4375 0.75q0.6875 0.296875 1.078125 0.859375q0.390625 0.5625 0.390625 1.40625q0 0.828125 -0.484375 1.546875q-0.46875 0.71875 -1.375 1.125q-0.90625 0.390625 -2.046875 0.390625q-1.875 0 -2.875 -0.78125q-0.984375 -0.78125 -1.25 -2.328125zm16.609375 -0.21875l1.6875 0.203125q-0.40625 1.484375 -1.484375 2.3125q-1.078125 0.8125 -2.765625 0.8125q-2.125 0 -3.375 -1.296875q-1.234375 -1.3125 -1.234375 -3.671875q0 -2.453125 1.25 -3.796875q1.265625 -1.34375 3.265625 -1.34375q1.9375 0 3.15625 1.328125q1.234375 1.3125 1.234375 3.703125q0 0.15625 0 0.4375l-7.21875 0q0.09375 1.59375 0.90625 2.453125q0.8125 0.84375 2.015625 0.84375q0.90625 0 1.546875 -0.46875q0.640625 -0.484375 1.015625 -1.515625zm-5.390625 -2.65625l5.40625 0q-0.109375 -1.21875 -0.625 -1.828125q-0.78125 -0.953125 -2.03125 -0.953125q-1.125 0 -1.90625 0.765625q-0.765625 0.75 -0.84375 2.015625zm12.719482 4.296875l0.234375 1.453125q-0.6875 0.140625 -1.234375 0.140625q-0.890625 0 -1.390625 -0.28125q-0.484375 -0.28125 -0.6875 -0.734375q-0.203125 -0.46875 -0.203125 -1.9375l0 -5.578125l-1.203125 0l0 -1.265625l1.203125 0l0 -2.390625l1.625 -0.984375l0 3.375l1.65625 0l0 1.265625l-1.65625 0l0 5.671875q0 0.6875 0.078125 0.890625q0.09375 0.203125 0.28125 0.328125q0.203125 0.109375 0.578125 0.109375q0.265625 0 0.71875 -0.0625z" fill-rule="nonzero"/><path fill="#000000" fill-opacity="0.0" d="m144.03412 204.93439c0 30.528519 -15.314209 47.445374 -30.276222 61.057037c-14.962021 13.611694 -29.571846 23.918182 -30.276222 41.03055c-0.7043762 17.112335 12.496696 41.030518 24.993393 41.030518" fill-rule="evenodd"/><path stroke="#000000" stroke-width="3.0" stroke-linejoin="round" stroke-linecap="butt" stroke-dasharray="12.0,9.0" d="m144.03412 204.93439c0 30.528519 -15.314194 47.445374 -30.276222 61.057037c-14.962013 13.611664 -29.571846 23.918182 -30.276222 41.03055c-0.3521881 8.556152 2.771988 18.813812 7.546295 26.932373c0.5967865 1.0148315 1.2193527 1.9962463 1.8641434 2.9367065c0.16120148 0.23513794 0.32378387 0.46768188 0.48770905 0.6975708l0.22802734 0.3166504" fill-rule="evenodd"/><path fill="#000000" stroke="#000000" stroke-width="3.0" stroke-linecap="butt" d="m90.81444 341.99805l14.038223 3.5820618l-8.451401 -11.767609z" fill-rule="evenodd"/><path fill="#000000" fill-opacity="0.0" d="m295.6942 348.05774c19.461456 0 29.190643 3.2204895 38.922913 6.4409485c9.7323 3.220459 19.467682 6.4409485 38.935364 6.4409485" fill-rule="evenodd"/><path stroke="#000000" stroke-width="3.0" stroke-linejoin="round" stroke-linecap="butt" d="m295.6942 348.05774c19.461456 0 29.190643 3.2204895 38.922913 6.4409485c4.86615 1.6102295 9.733063 3.220459 15.816925 4.4281616c1.5209656 0.3019104 3.1179504 0.5786438 4.810028 0.8239746l0.34454346 0.048797607" fill-rule="evenodd"/><path fill="#000000" stroke="#000000" stroke-width="3.0" stroke-linecap="butt" d="m355.2748 364.74487l13.900787 -4.083008l-13.273132 -5.807495z" fill-rule="evenodd"/><path fill="#cfe2f3" d="m108.48163 278.98688l187.21259 0l0 132.09448l-187.21259 0z" fill-rule="evenodd"/><path stroke="#000000" stroke-width="1.0" stroke-linejoin="round" stroke-linecap="butt" d="m108.48163 278.98688l187.21259 0l0 132.09448l-187.21259 0z" fill-rule="evenodd"/><path fill="#000000" d="m142.7716 308.4669l0 -15.265625l5.140625 0q1.28125 0 2.359375 0.578125q1.09375 0.5625 1.75 1.578125q0.65625 1.015625 0.65625 2.359375q0 1.328125 -0.65625 2.359375q-0.65625 1.015625 -1.75 1.59375q-1.078125 0.5625 -2.359375 0.5625l-4.171875 0l0 -1.71875l4.21875 0q0.890625 0 1.53125 -0.40625q0.640625 -0.421875 0.984375 -1.0625q0.359375 -0.640625 0.359375 -1.328125q0 -0.6875 -0.359375 -1.328125q-0.34375 -0.640625 -0.984375 -1.046875q-0.640625 -0.421875 -1.53125 -0.421875l-3.375 0l0 13.546875l-1.8125 0zm16.194626 0.34375q-1.640625 0 -2.90625 -0.765625q-1.25 -0.765625 -1.96875 -2.078125q-0.71875 -1.3125 -0.71875 -2.9375q0 -1.625 0.71875 -2.9375q0.71875 -1.3125 1.96875 -2.078125q1.265625 -0.765625 2.90625 -0.765625q1.640625 0 2.890625 0.78125q1.265625 0.78125 1.96875 2.09375q0.71875 1.3125 0.71875 2.90625q0 1.625 -0.71875 2.9375q-0.703125 1.3125 -1.96875 2.078125q-1.25 0.765625 -2.890625 0.765625zm0 -1.640625q0.984375 0 1.84375 -0.484375q0.859375 -0.5 1.390625 -1.421875q0.53125 -0.9375 0.53125 -2.234375q0 -1.296875 -0.53125 -2.21875q-0.53125 -0.9375 -1.390625 -1.421875q-0.859375 -0.5 -1.84375 -0.5q-0.984375 0 -1.859375 0.5q-0.875 0.484375 -1.40625 1.421875q-0.53125 0.921875 -0.53125 2.21875q0 1.296875 0.53125 2.234375q0.53125 0.921875 1.40625 1.421875q0.875 0.484375 1.859375 0.484375zm7.6545258 1.296875l0 -10.875l1.8125 0l0 10.875l-1.8125 0zm0.890625 -12.875q-0.53125 0 -0.921875 -0.390625q-0.375 -0.390625 -0.375 -0.921875q0 -0.546875 0.375 -0.921875q0.390625 -0.375 0.921875 -0.375q0.5625 0 0.9375 0.375q0.375 0.375 0.375 0.921875q0 0.53125 -0.375 0.921875q-0.375 0.390625 -0.9375 0.390625zm3.7576752 12.875l0 -10.875l1.734375 0l0 1.59375l0.078125 0q0.421875 -0.78125 1.390625 -1.359375q0.984375 -0.578125 2.125 -0.578125q2.015625 0 3.015625 1.171875q1.015625 1.15625 1.015625 3.078125l0 6.96875l-1.8125 0l0 -6.703125q0 -1.578125 -0.765625 -2.21875q-0.75 -0.65625 -1.9375 -0.65625q-0.890625 0 -1.578125 0.5q-0.6875 0.5 -1.078125 1.296875q-0.375 0.78125 -0.375 1.65625l0 6.125l-1.8125 0zm10.681793 -10.875l6.375 0l0 1.640625l-6.375 0l0 -1.640625zm1.90625 8.015625l0 -11.09375l1.8125 0l0 10.640625q0 0.859375 0.34375 1.328125q0.359375 0.46875 1.171875 0.46875q0.359375 0 0.65625 -0.109375q0.296875 -0.109375 0.53125 -0.25l0 1.765625q-0.28125 0.125 -0.609375 0.203125q-0.328125 0.078125 -0.875 0.078125q-1.375 0 -2.203125 -0.796875q-0.828125 -0.796875 -0.828125 -2.234375zm11.00296 3.203125q-1.578125 0 -2.8125 -0.75q-1.21875 -0.75 -1.921875 -2.046875q-0.6875 -1.296875 -0.6875 -2.96875q0 -1.546875 0.640625 -2.875q0.65625 -1.328125 1.84375 -2.125q1.1875 -0.796875 2.78125 -0.796875q1.625 0 2.78125 0.71875q1.171875 0.703125 1.796875 1.96875q0.625 1.265625 0.625 2.875q0 0.15625 -0.015625 0.3125q0 0.140625 -0.015625 0.25l-9.375 0l0 -1.5l7.5 0q-0.03125 -0.4375 -0.21875 -0.953125q-0.171875 -0.53125 -0.578125 -0.984375q-0.390625 -0.46875 -1.0 -0.75q-0.59375 -0.296875 -1.5 -0.296875q-1.0625 0 -1.84375 0.546875q-0.78125 0.546875 -1.203125 1.484375q-0.40625 0.9375 -0.40625 2.125q0 1.390625 0.53125 2.3125q0.53125 0.90625 1.375 1.359375q0.84375 0.453125 1.765625 0.453125q1.1875 0 1.96875 -0.5625q0.78125 -0.578125 1.25 -1.40625l1.53125 0.75q-0.640625 1.234375 -1.828125 2.046875q-1.1875 0.8125 -2.984375 0.8125zm7.164032 -0.34375l0 -10.875l1.734375 0l0 1.75l0.078125 0q0.21875 -0.625 0.71875 -1.078125q0.5 -0.46875 1.140625 -0.734375q0.65625 -0.265625 1.296875 -0.265625q0.484375 0 0.765625 0.0625q0.28125 0.046875 0.515625 0.15625l0 1.96875q-0.34375 -0.171875 -0.734375 -0.25q-0.390625 -0.09375 -0.796875 -0.09375q-0.796875 0 -1.453125 0.453125q-0.65625 0.4375 -1.0625 1.1875q-0.390625 0.75 -0.390625 1.640625l0 6.078125l-1.8125 0zm15.5928955 0l0 -14.1875l1.8125 0l0 14.1875l-1.8125 0zm-4.296875 -13.546875l0 -1.71875l10.375 0l0 1.71875l-10.375 0zm14.140198 13.890625q-1.203125 0 -2.125 -0.46875q-0.921875 -0.46875 -1.453125 -1.28125q-0.515625 -0.828125 -0.515625 -1.875q0 -1.203125 0.625 -2.015625q0.625 -0.828125 1.65625 -1.234375q1.046875 -0.421875 2.3125 -0.421875q0.71875 0 1.328125 0.125q0.625 0.109375 1.078125 0.265625q0.46875 0.15625 0.703125 0.3125l0 -0.65625q0 -1.234375 -0.875 -1.953125q-0.875 -0.734375 -2.125 -0.734375q-0.90625 0 -1.6875 0.390625q-0.765625 0.390625 -1.21875 1.09375l-1.359375 -1.015625q0.421875 -0.640625 1.0625 -1.109375q0.640625 -0.46875 1.453125 -0.71875q0.828125 -0.265625 1.75 -0.265625q2.21875 0 3.46875 1.171875q1.265625 1.171875 1.265625 3.15625l0 6.890625l-1.734375 0l0 -1.5625l-0.078125 0q-0.28125 0.46875 -0.796875 0.90625q-0.515625 0.4375 -1.203125 0.71875q-0.6875 0.28125 -1.53125 0.28125zm0.171875 -1.609375q0.9375 0 1.71875 -0.46875q0.78125 -0.46875 1.25 -1.25q0.46875 -0.796875 0.46875 -1.734375q-0.484375 -0.34375 -1.21875 -0.546875q-0.734375 -0.21875 -1.609375 -0.21875q-1.5625 0 -2.296875 0.640625q-0.71875 0.640625 -0.71875 1.578125q0 0.890625 0.6875 1.453125q0.6875 0.546875 1.71875 0.546875zm13.215912 1.609375q-0.875 0 -1.609375 -0.28125q-0.71875 -0.28125 -1.265625 -0.71875q-0.546875 -0.453125 -0.84375 -0.9375l-0.078125 0l0 1.59375l-1.734375 0l0 -15.265625l1.8125 0l0 4.5l-0.078125 1.515625l0.078125 0q0.296875 -0.515625 0.84375 -0.96875q0.546875 -0.453125 1.265625 -0.71875q0.734375 -0.28125 1.609375 -0.28125q1.484375 0 2.65625 0.75q1.171875 0.75 1.859375 2.046875q0.6875 1.296875 0.6875 2.984375q0 1.6875 -0.6875 2.984375q-0.6875 1.296875 -1.859375 2.046875q-1.171875 0.75 -2.65625 0.75zm-0.203125 -1.640625q0.9375 0 1.75 -0.5q0.828125 -0.5 1.328125 -1.4375q0.515625 -0.953125 0.515625 -2.203125q0 -1.28125 -0.515625 -2.203125q-0.5 -0.9375 -1.328125 -1.4375q-0.8125 -0.5 -1.75 -0.5q-0.9375 0 -1.765625 0.5q-0.8125 0.5 -1.328125 1.4375q-0.5 0.921875 -0.5 2.203125q0 1.28125 0.5 2.21875q0.515625 0.921875 1.328125 1.421875q0.828125 0.5 1.765625 0.5zm7.404785 1.296875l0 -15.265625l1.8125 0l0 15.265625l-1.8125 0zm9.23732 0.34375q-1.5781097 0 -2.8124847 -0.75q-1.21875 -0.75 -1.921875 -2.046875q-0.6875 -1.296875 -0.6875 -2.96875q0 -1.546875 0.640625 -2.875q0.65625 -1.328125 1.84375 -2.125q1.1875 -0.796875 2.7812347 -0.796875q1.625 0 2.78125 0.71875q1.171875 0.703125 1.796875 1.96875q0.625 1.265625 0.625 2.875q0 0.15625 -0.015625 0.3125q0 0.140625 -0.015625 0.25l-9.374985 0l0 -1.5l7.4999847 0q-0.03125 -0.4375 -0.21875 -0.953125q-0.171875 -0.53125 -0.578125 -0.984375q-0.390625 -0.46875 -1.0 -0.75q-0.59375 -0.296875 -1.5 -0.296875q-1.0625 0 -1.8437347 0.546875q-0.78125 0.546875 -1.203125 1.484375q-0.40625 0.9375 -0.40625 2.125q0 1.390625 0.53125 2.3125q0.53125 0.90625 1.375 1.359375q0.84373474 0.453125 1.7656097 0.453125q1.1875 0 1.96875 -0.5625q0.78125 -0.578125 1.25 -1.40625l1.53125 0.75q-0.640625 1.234375 -1.828125 2.046875q-1.1875 0.8125 -2.984375 0.8125z" fill-rule="nonzero"/><path fill="#cfe2f3" d="m108.48163 327.04987l187.21259 0l0 42.015747l-187.21259 0z" fill-rule="evenodd"/><path stroke="#000000" stroke-width="1.0" stroke-linejoin="round" stroke-linecap="butt" d="m108.48163 327.04987l187.21259 0l0 42.015747l-187.21259 0z" fill-rule="evenodd"/><path fill="#000000" d="m165.03477 353.96988l0 -12.234375l7.578125 0l0 1.296875l-6.015625 0l0 3.84375l5.078125 0l0 1.328125l-5.078125 0l0 4.4375l6.203125 0l0 1.328125l-7.765625 0zm10.803131 0l0 -9.0625l1.265625 0l0.140625 1.546875l0.0625 0q0.71875 -0.765625 1.53125 -1.265625q0.828125 -0.515625 1.890625 -0.515625q1.609375 0 2.359375 0.9375q0.765625 0.9375 0.765625 2.71875l0 5.640625l-1.515625 0l0 -5.421875q0 -1.296875 -0.5 -1.921875q-0.484375 -0.625 -1.59375 -0.625q-0.8125 0 -1.453125 0.421875q-0.625 0.40625 -1.421875 1.21875l0 6.328125l-1.53125 0zm16.803131 0.21875q-1.3125 0 -2.078125 -0.46875q-0.765625 -0.484375 -1.09375 -1.3125q-0.328125 -0.84375 -0.328125 -1.96875l0 -4.28125l-2.5625 0l0 -1.15625l2.625 -0.09375l0.203125 -2.921875l1.265625 0l0 2.921875l4.453125 0l0 1.25l-4.453125 0l0 4.3125q0 0.796875 0.203125 1.359375q0.203125 0.5625 0.703125 0.84375q0.515625 0.265625 1.390625 0.265625q0.65625 0 1.171875 -0.109375q0.515625 -0.109375 1.0 -0.296875l0.34375 1.125q-0.609375 0.21875 -1.296875 0.375q-0.6875 0.15625 -1.546875 0.15625zm6.568756 -0.21875l0 -9.0625l1.28125 0l0.125 2.140625l0.046875 0q0.71875 -1.09375 1.765625 -1.734375q1.046875 -0.640625 2.296875 -0.640625q0.5 0 0.9375 0.09375q0.4375 0.078125 0.84375 0.28125l-0.359375 1.328125q-0.453125 -0.171875 -0.796875 -0.234375q-0.328125 -0.078125 -0.875 -0.078125q-1.03125 0 -1.96875 0.59375q-0.9375 0.578125 -1.765625 2.0l0 5.3125l-1.53125 0zm10.912506 3.90625q-0.296875 0 -0.625 -0.0625q-0.3125 -0.0625 -0.5625 -0.125l0.3125 -1.21875q0.1875 0.0625 0.40625 0.09375q0.21875 0.03125 0.421875 0.03125q0.953125 0 1.546875 -0.546875q0.59375 -0.546875 0.9375 -1.390625l0.28125 -0.671875l-4.234375 -9.078125l1.546875 0l2.21875 5.015625q0.25 0.59375 0.53125 1.28125q0.296875 0.671875 0.578125 1.34375l0.078125 0q0.25 -0.65625 0.5 -1.328125q0.25 -0.6875 0.46875 -1.296875l1.984375 -5.015625l1.453125 0l-4.0 9.8125q-0.328125 0.890625 -0.84375 1.609375q-0.5 0.71875 -1.234375 1.125q-0.734375 0.421875 -1.765625 0.421875zm25.543762 -3.6875q-1.328125 0 -2.28125 -0.734375q-0.9375 -0.734375 -1.46875 -2.109375q-0.515625 -1.390625 -0.515625 -3.359375q0 -3.015625 1.140625 -4.578125q1.15625 -1.5625 3.125 -1.5625q2.0000153 0 3.1406403 1.5625q1.140625 1.5625 1.140625 4.578125q0 1.96875 -0.515625 3.359375q-0.515625 1.375 -1.484375 2.109375q-0.953125 0.734375 -2.2812653 0.734375zm0 -1.21875q0.84376526 0 1.4687653 -0.53125q0.640625 -0.546875 1.0 -1.65625q0.375 -1.109375 0.375 -2.796875q0 -1.71875 -0.375 -2.796875q-0.359375 -1.09375 -1.0 -1.59375q-0.625 -0.515625 -1.4687653 -0.515625q-0.8125 0 -1.46875 0.515625q-0.640625 0.5 -1.0 1.59375q-0.359375 1.078125 -0.359375 2.796875q0 1.6875 0.359375 2.796875q0.359375 1.109375 1.0 1.65625q0.65625 0.53125 1.46875 0.53125zm0 -3.875q-0.46875 0 -0.8125 -0.328125q-0.34375 -0.34375 -0.34375 -0.921875q0 -0.578125 0.34375 -0.890625q0.34375 -0.328125 0.8125 -0.328125q0.484375 0 0.8125 0.328125q0.34376526 0.3125 0.34376526 0.890625q0 0.578125 -0.34376526 0.921875q-0.328125 0.328125 -0.8125 0.328125z" fill-rule="nonzero"/><path fill="#cfe2f3" d="m108.48163 369.0656l187.21259 0l0 42.015747l-187.21259 0z" fill-rule="evenodd"/><path stroke="#000000" stroke-width="1.0" stroke-linejoin="round" stroke-linecap="butt" d="m108.48163 369.0656l187.21259 0l0 42.015747l-187.21259 0z" fill-rule="evenodd"/><path fill="#000000" d="m165.03477 395.98563l0 -12.234375l7.578125 0l0 1.296875l-6.015625 0l0 3.84375l5.078125 0l0 1.328125l-5.078125 0l0 4.4375l6.203125 0l0 1.328125l-7.765625 0zm10.803131 0l0 -9.0625l1.265625 0l0.140625 1.546875l0.0625 0q0.71875 -0.765625 1.53125 -1.265625q0.828125 -0.515625 1.890625 -0.515625q1.609375 0 2.359375 0.9375q0.765625 0.9375 0.765625 2.71875l0 5.640625l-1.515625 0l0 -5.421875q0 -1.296875 -0.5 -1.921875q-0.484375 -0.625 -1.59375 -0.625q-0.8125 0 -1.453125 0.421875q-0.625 0.40625 -1.421875 1.21875l0 6.328125l-1.53125 0zm16.803131 0.21875q-1.3125 0 -2.078125 -0.46875q-0.765625 -0.484375 -1.09375 -1.3125q-0.328125 -0.84375 -0.328125 -1.96875l0 -4.28125l-2.5625 0l0 -1.15625l2.625 -0.09375l0.203125 -2.921875l1.265625 0l0 2.921875l4.453125 0l0 1.25l-4.453125 0l0 4.3125q0 0.796875 0.203125 1.359375q0.203125 0.5625 0.703125 0.84375q0.515625 0.265625 1.390625 0.265625q0.65625 0 1.171875 -0.109375q0.515625 -0.109375 1.0 -0.296875l0.34375 1.125q-0.609375 0.21875 -1.296875 0.375q-0.6875 0.15625 -1.546875 0.15625zm6.568756 -0.21875l0 -9.0625l1.28125 0l0.125 2.140625l0.046875 0q0.71875 -1.09375 1.765625 -1.734375q1.046875 -0.640625 2.296875 -0.640625q0.5 0 0.9375 0.09375q0.4375 0.078125 0.84375 0.28125l-0.359375 1.328125q-0.453125 -0.171875 -0.796875 -0.234375q-0.328125 -0.078125 -0.875 -0.078125q-1.03125 0 -1.96875 0.59375q-0.9375 0.578125 -1.765625 2.0l0 5.3125l-1.53125 0zm10.912506 3.90625q-0.296875 0 -0.625 -0.0625q-0.3125 -0.0625 -0.5625 -0.125l0.3125 -1.21875q0.1875 0.0625 0.40625 0.09375q0.21875 0.03125 0.421875 0.03125q0.953125 0 1.546875 -0.546875q0.59375 -0.546875 0.9375 -1.390625l0.28125 -0.671875l-4.234375 -9.078125l1.546875 0l2.21875 5.015625q0.25 0.59375 0.53125 1.28125q0.296875 0.671875 0.578125 1.34375l0.078125 0q0.25 -0.65625 0.5 -1.328125q0.25 -0.6875 0.46875 -1.296875l1.984375 -5.015625l1.453125 0l-4.0 9.8125q-0.328125 0.890625 -0.84375 1.609375q-0.5 0.71875 -1.234375 1.125q-0.734375 0.421875 -1.765625 0.421875zm21.762512 -3.90625l0 -1.265625l3.4375 0l0 -8.765625l-2.671875 0l0 -1.0q0.703125 -0.09375 1.234375 -0.21875q0.546875 -0.125 1.0 -0.28125q0.453125 -0.171875 0.828125 -0.375l1.1250153 0l0 10.640625l3.125 0l0 1.265625l-8.07814 0z" fill-rule="nonzero"/><path fill="#000000" fill-opacity="0.0" d="m141.12204 232.80183l90.48819 0l0 42.015762l-90.48819 0z" fill-rule="evenodd"/><path fill="#000000" d="m151.85641 259.72183l0 -13.359375l1.765625 0l0 13.359375l-1.765625 0zm4.683304 0l0 -9.671875l1.46875 0l0 1.375q1.0625 -1.59375 3.078125 -1.59375q0.875 0 1.609375 0.3125q0.734375 0.3125 1.09375 0.828125q0.375 0.5 0.515625 1.203125q0.09375 0.453125 0.09375 1.59375l0 5.953125l-1.640625 0l0 -5.890625q0 -1.0 -0.203125 -1.484375q-0.1875 -0.5 -0.671875 -0.796875q-0.484375 -0.296875 -1.140625 -0.296875q-1.046875 0 -1.8125 0.671875q-0.75 0.65625 -0.75 2.515625l0 5.28125l-1.640625 0zm16.641342 0l0 -1.21875q-0.90625 1.4375 -2.703125 1.4375q-1.15625 0 -2.125 -0.640625q-0.96875 -0.640625 -1.5 -1.78125q-0.53125 -1.140625 -0.53125 -2.625q0 -1.453125 0.484375 -2.625q0.484375 -1.1875 1.4375 -1.8125q0.96875 -0.625 2.171875 -0.625q0.875 0 1.546875 0.375q0.6875 0.359375 1.109375 0.953125l0 -4.796875l1.640625 0l0 13.359375l-1.53125 0zm-5.171875 -4.828125q0 1.859375 0.78125 2.78125q0.78125 0.921875 1.84375 0.921875q1.078125 0 1.828125 -0.875q0.75 -0.890625 0.75 -2.6875q0 -1.984375 -0.765625 -2.90625q-0.765625 -0.9375 -1.890625 -0.9375q-1.078125 0 -1.8125 0.890625q-0.734375 0.890625 -0.734375 2.8125zm15.906967 1.71875l1.6875 0.203125q-0.40625 1.484375 -1.484375 2.3125q-1.078125 0.8125 -2.765625 0.8125q-2.125 0 -3.375 -1.296875q-1.234375 -1.3125 -1.234375 -3.671875q0 -2.453125 1.25 -3.796875q1.265625 -1.34375 3.265625 -1.34375q1.9375 0 3.15625 1.328125q1.234375 1.3125 1.234375 3.703125q0 0.15625 0 0.4375l-7.21875 0q0.09375 1.59375 0.90625 2.453125q0.8125 0.84375 2.015625 0.84375q0.90625 0 1.546875 -0.46875q0.640625 -0.484375 1.015625 -1.515625zm-5.390625 -2.65625l5.40625 0q-0.109375 -1.21875 -0.625 -1.828125q-0.78125 -0.953125 -2.03125 -0.953125q-1.125 0 -1.90625 0.765625q-0.765625 0.75 -0.84375 2.015625zm8.047592 5.765625l3.53125 -5.03125l-3.265625 -4.640625l2.046875 0l1.484375 2.265625q0.421875 0.640625 0.671875 1.078125q0.40625 -0.59375 0.734375 -1.0625l1.640625 -2.28125l1.953125 0l-3.34375 4.546875l3.59375 5.125l-2.015625 0l-1.984375 -3.0l-0.515625 -0.8125l-2.546875 3.8125l-1.984375 0z" fill-rule="nonzero"/><path fill="#cfe2f3" d="m108.48163 411.08136l187.21259 0l0 42.015747l-187.21259 0z" fill-rule="evenodd"/><path stroke="#000000" stroke-width="1.0" stroke-linejoin="round" stroke-linecap="butt" d="m108.48163 411.08136l187.21259 0l0 42.015747l-187.21259 0z" fill-rule="evenodd"/><path fill="#000000" d="m190.89104 438.22012q-0.609375 0 -1.0625 -0.4375q-0.453125 -0.4375 -0.453125 -1.125q0 -0.703125 0.453125 -1.140625q0.453125 -0.4375 1.0625 -0.4375q0.640625 0 1.078125 0.4375q0.4375 0.4375 0.4375 1.140625q0 0.6875 -0.4375 1.125q-0.4375 0.4375 -1.078125 0.4375zm11.193756 0q-0.609375 0 -1.0625 -0.4375q-0.453125 -0.4375 -0.453125 -1.125q0 -0.703125 0.453125 -1.140625q0.453125 -0.4375 1.0625 -0.4375q0.640625 0 1.078125 0.4375q0.4375 0.4375 0.4375 1.140625q0 0.6875 -0.4375 1.125q-0.4375 0.4375 -1.078125 0.4375zm11.193756 0q-0.609375 0 -1.0625 -0.4375q-0.453125 -0.4375 -0.453125 -1.125q0 -0.703125 0.453125 -1.140625q0.453125 -0.4375 1.0625 -0.4375q0.640625 0 1.078125 0.4375q0.4375 0.4375 0.4375 1.140625q0 0.6875 -0.4375 1.125q-0.4375 0.4375 -1.078125 0.4375z" fill-rule="nonzero"/></g></svg>