<svg fill="none" height="553" stroke-linecap="square" stroke-miterlimit="10" width="969" xmlns="http://www.w3.org/2000/svg" xmlns:xlink="http://www.w3.org/1999/xlink"><clipPath id="a"><path d="m107.65 77.583h682.349v426.767h-682.349z"/></clipPath><path d="m0 0h969v553h-969z" fill="#fff"/><path d="m107.5 504.5h682" stroke="#333" stroke-linecap="butt"/><path d="m107.5 418.5h682m-682-85h682m-682-85h682m-682-86h682m-682-85h682" stroke="#ccc" stroke-linecap="butt"/><path clip-path="url(#a)" d="m165 504h-13v-129a2 2 0 0 1 2-2h9a2 2 0 0 1 2 2z"/><path clip-path="url(#a)" d="m165 504h-13v-129a2 2 0 0 1 2-2h9a2 2 0 0 1 2 2z" fill="#e69138"/><path clip-path="url(#a)" d="m292 504h-13v-51a2 2 0 0 1 2-2h9a2 2 0 0 1 2 2z"/><path clip-path="url(#a)" d="m292 504h-13v-51a2 2 0 0 1 2-2h9a2 2 0 0 1 2 2z" fill="#e69138"/><path clip-path="url(#a)" d="m420 504h-13v-57a2 2 0 0 1 2-2h9a2 2 0 0 1 2 2z"/><path clip-path="url(#a)" d="m420 504h-13v-57a2 2 0 0 1 2-2h9a2 2 0 0 1 2 2z" fill="#e69138"/><path clip-path="url(#a)" d="m547 504h-13v-32a2 2 0 0 1 2-2h9a2 2 0 0 1 2 2z"/><path clip-path="url(#a)" d="m547 504h-13v-32a2 2 0 0 1 2-2h9a2 2 0 0 1 2 2z" fill="#e69138"/><path clip-path="url(#a)" d="m675 504h-13v-306a2 2 0 0 1 2-2h9a2 2 0 0 1 2 2z"/><path clip-path="url(#a)" d="m675 504h-13v-306a2 2 0 0 1 2-2h9a2 2 0 0 1 2 2z" fill="#e69138"/><path clip-path="url(#a)" d="m179 504h-13v-157a2 2 0 0 1 2-2h9a2 2 0 0 1 2 2z"/><path clip-path="url(#a)" d="m179 504h-13v-157a2 2 0 0 1 2-2h9a2 2 0 0 1 2 2z" fill="#9fc5e8"/><path clip-path="url(#a)" d="m306 504h-13v-48a2 2 0 0 1 2-2h9a2 2 0 0 1 2 2z"/><path clip-path="url(#a)" d="m306 504h-13v-48a2 2 0 0 1 2-2h9a2 2 0 0 1 2 2z" fill="#9fc5e8"/><path clip-path="url(#a)" d="m434 504h-13v-54a2 2 0 0 1 2-2h9a2 2 0 0 1 2 2z"/><path clip-path="url(#a)" d="m434 504h-13v-54a2 2 0 0 1 2-2h9a2 2 0 0 1 2 2z" fill="#9fc5e8"/><path clip-path="url(#a)" d="m561 504h-13v-18a2 2 0 0 1 2-2h9a2 2 0 0 1 2 2z"/><path clip-path="url(#a)" d="m561 504h-13v-18a2 2 0 0 1 2-2h9a2 2 0 0 1 2 2z" fill="#9fc5e8"/><path clip-path="url(#a)" d="m689 504h-13v-369a2 2 0 0 1 2-2h9a2 2 0 0 1 2 2z"/><path clip-path="url(#a)" d="m689 504h-13v-369a2 2 0 0 1 2-2h9a2 2 0 0 1 2 2z" fill="#9fc5e8"/><path clip-path="url(#a)" d="m193 504h-13v-108a2 2 0 0 1 2-2h9a2 2 0 0 1 2 2z"/><path clip-path="url(#a)" d="m193 504h-13v-108a2 2 0 0 1 2-2h9a2 2 0 0 1 2 2z" fill="#6fa8dc"/><path clip-path="url(#a)" d="m320 504h-13v-34a2 2 0 0 1 2-2h9a2 2 0 0 1 2 2z"/><path clip-path="url(#a)" d="m320 504h-13v-34a2 2 0 0 1 2-2h9a2 2 0 0 1 2 2z" fill="#6fa8dc"/><path clip-path="url(#a)" d="m448 504h-13v-39a2 2 0 0 1 2-2h9a2 2 0 0 1 2 2z"/><path clip-path="url(#a)" d="m448 504h-13v-39a2 2 0 0 1 2-2h9a2 2 0 0 1 2 2z" fill="#6fa8dc"/><path clip-path="url(#a)" d="m575 504h-13v-17a2 2 0 0 1 2-2h9a2 2 0 0 1 2 2z"/><path clip-path="url(#a)" d="m575 504h-13v-17a2 2 0 0 1 2-2h9a2 2 0 0 1 2 2z" fill="#6fa8dc"/><path clip-path="url(#a)" d="m703 504h-13v-250a2 2 0 0 1 2-2h9a2 2 0 0 1 2 2z"/><path clip-path="url(#a)" d="m703 504h-13v-250a2 2 0 0 1 2-2h9a2 2 0 0 1 2 2z" fill="#6fa8dc"/><path clip-path="url(#a)" d="m207 504h-13v-86a2 2 0 0 1 2-2h9a2 2 0 0 1 2 2z"/><path clip-path="url(#a)" d="m207 504h-13v-86a2 2 0 0 1 2-2h9a2 2 0 0 1 2 2z" fill="#3d85c6"/><path clip-path="url(#a)" d="m334 504h-13v-30a2 2 0 0 1 2-2h9a2 2 0 0 1 2 2z"/><path clip-path="url(#a)" d="m334 504h-13v-30a2 2 0 0 1 2-2h9a2 2 0 0 1 2 2z" fill="#3d85c6"/><path clip-path="url(#a)" d="m462 504h-13v-25a2 2 0 0 1 2-2h9a2 2 0 0 1 2 2z"/><path clip-path="url(#a)" d="m462 504h-13v-25a2 2 0 0 1 2-2h9a2 2 0 0 1 2 2z" fill="#3d85c6"/><path clip-path="url(#a)" d="m589 504h-13v-15a2 2 0 0 1 2-2h9a2 2 0 0 1 2 2z"/><path clip-path="url(#a)" d="m589 504h-13v-15a2 2 0 0 1 2-2h9a2 2 0 0 1 2 2z" fill="#3d85c6"/><path clip-path="url(#a)" d="m717 504h-13v-249a2 2 0 0 1 2-2h9a2 2 0 0 1 2 2z"/><path clip-path="url(#a)" d="m717 504h-13v-249a2 2 0 0 1 2-2h9a2 2 0 0 1 2 2z" fill="#3d85c6"/><path clip-path="url(#a)" d="m221 504h-13v-85a2 2 0 0 1 2-2h9a2 2 0 0 1 2 2z"/><path clip-path="url(#a)" d="m221 504h-13v-85a2 2 0 0 1 2-2h9a2 2 0 0 1 2 2z" fill="#0b5394"/><path clip-path="url(#a)" d="m348 504h-13v-26a2 2 0 0 1 2-2h9a2 2 0 0 1 2 2z"/><path clip-path="url(#a)" d="m348 504h-13v-26a2 2 0 0 1 2-2h9a2 2 0 0 1 2 2z" fill="#0b5394"/><path clip-path="url(#a)" d="m476 504h-13v-24a2 2 0 0 1 2-2h9a2 2 0 0 1 2 2z"/><path clip-path="url(#a)" d="m476 504h-13v-24a2 2 0 0 1 2-2h9a2 2 0 0 1 2 2z" fill="#0b5394"/><path clip-path="url(#a)" d="m603 504h-13v-16a2 2 0 0 1 2-2h9a2 2 0 0 1 2 2z"/><path clip-path="url(#a)" d="m603 504h-13v-16a2 2 0 0 1 2-2h9a2 2 0 0 1 2 2z" fill="#0b5394"/><path clip-path="url(#a)" d="m731 504h-13v-262a2 2 0 0 1 2-2h9a2 2 0 0 1 2 2z"/><path clip-path="url(#a)" d="m731 504h-13v-262a2 2 0 0 1 2-2h9a2 2 0 0 1 2 2z" fill="#0b5394"/><path clip-path="url(#a)" d="m235 504h-13v-75a2 2 0 0 1 2-2h9a2 2 0 0 1 2 2z"/><path clip-path="url(#a)" d="m235 504h-13v-75a2 2 0 0 1 2-2h9a2 2 0 0 1 2 2z" fill="#073763"/><path clip-path="url(#a)" d="m362 504h-13v-23a2 2 0 0 1 2-2h9a2 2 0 0 1 2 2z"/><path clip-path="url(#a)" d="m362 504h-13v-23a2 2 0 0 1 2-2h9a2 2 0 0 1 2 2z" fill="#073763"/><path clip-path="url(#a)" d="m490 504h-13v-21a2 2 0 0 1 2-2h9a2 2 0 0 1 2 2z"/><path clip-path="url(#a)" d="m490 504h-13v-21a2 2 0 0 1 2-2h9a2 2 0 0 1 2 2z" fill="#073763"/><path clip-path="url(#a)" d="m617 504h-13v-16a2 2 0 0 1 2-2h9a2 2 0 0 1 2 2z"/><path clip-path="url(#a)" d="m617 504h-13v-16a2 2 0 0 1 2-2h9a2 2 0 0 1 2 2z" fill="#073763"/><path clip-path="url(#a)" d="m745 504h-13v-190a2 2 0 0 1 2-2h9a2 2 0 0 1 2 2z"/><path clip-path="url(#a)" d="m745 504h-13v-190a2 2 0 0 1 2-2h9a2 2 0 0 1 2 2z" fill="#073763"/><path d="m35.712 374.904v3.703h3.016v-4.297h.922v5.422h-8.531v-5.375h.922v4.25h2.75v-3.703zm-.093-4.14-2.313-1.407v-1.265l3.14 2.078 3.204-2.14v1.25l-2.375 1.468 2.375 1.469v1.265l-3.203-2.14-3.14 2.062v-1.25zm4.156-6.5q0 1.296-.844 2.109-.86.797-2.281.797h-.188q-.953 0-1.687-.36-.75-.359-1.156-1-.422-.656-.422-1.406 0-1.234.812-1.922.813-.687 2.328-.687h.454v4.297q.937-.032 1.515-.547.578-.531.578-1.344 0-.562-.234-.953-.234-.406-.625-.719l.516-.656q1.234.797 1.234 2.39zm-5.688.14q0 .656.485 1.11.469.437 1.328.53v-3.171h-.078q-.828.047-1.281.453-.454.39-.454 1.078zm4.797-6.047q0-.578-.343-1.015-.36-.438-.891-.485v-1.031q.547.031 1.047.39.484.344.781.923.297.562.297 1.218 0 1.297-.86 2.063-.874.75-2.374.75h-.188q-.922 0-1.64-.328-.72-.344-1.11-.97-.406-.64-.406-1.515 0-1.062.64-1.765.625-.72 1.657-.766v1.031q-.625.047-1.016.469-.39.422-.39 1.031 0 .828.593 1.282.594.453 1.719.453h.203q1.094 0 1.688-.453.593-.454.593-1.282zm.141-7.375q.75.625.75 1.86 0 1.015-.594 1.547-.594.53-1.75.53h-4.125v-1.077h4.094q1.453 0 1.453-1.172 0-1.25-.937-1.656h-4.61v-1.094h6.344v1.031zm-7.25-4.562h1.531v-1.172h.844v1.172h3.922q.39 0 .578-.156.187-.157.187-.532 0-.187-.062-.515h.875q.125.422.125.828 0 .719-.438 1.094-.453.375-1.265.375h-3.922v1.156h-.844v-1.156h-1.531zm7.875-3.703v1.078h-6.344v-1.078zm-8.016 1.172q-.265 0-.453-.157-.187-.172-.187-.484 0-.313.187-.469.188-.172.453-.172.25 0 .438.172.172.156.172.469 0 .312-.172.484-.188.157-.438.157zm4.782-2.704q-.922 0-1.672-.359-.75-.375-1.14-1.031-.407-.656-.407-1.485 0-1.296.89-2.093.891-.813 2.391-.813h.078q.922 0 1.656.36.735.359 1.157 1.015.406.656.406 1.516 0 1.281-.89 2.094-.907.796-2.391.796zm.14-1.093q1.047 0 1.688-.485.64-.5.64-1.312 0-.828-.64-1.313-.657-.484-1.828-.484-1.032 0-1.672.5-.657.484-.657 1.312 0 .797.641 1.297.625.485 1.828.485zm-3.25-7.22.797-.03q-.906-.735-.906-1.907 0-2.015 2.265-2.03h4.188v1.093h-4.203q-.672 0-1 .312-.328.297-.328.954 0 .53.281.937.281.39.734.61h4.516v1.078h-6.344v-1.016zm-1.531-10.452h1.531v-1.172h.844v1.172h3.922q.39 0 .578-.156.187-.157.187-.532 0-.187-.062-.515h.875q.125.422.125.828 0 .719-.438 1.094-.453.375-1.265.375h-3.922v1.156h-.844v-1.156h-1.531zm7.875-3.703v1.078h-6.344v-1.078zm-8.016 1.172q-.265 0-.453-.157-.187-.172-.187-.484 0-.313.187-.469.188-.172.453-.172.25 0 .438.172.172.156.172.469 0 .312-.172.484-.188.157-.438.157zm1.672-4.016.703-.031q-.812-.688-.812-1.875 0-1.328 1.015-1.813-.453-.312-.734-.812-.281-.516-.281-1.203 0-2.094 2.203-2.125h4.25v1.078h-4.188q-.671 0-1 .312-.343.313-.343 1.047 0 .61.36 1.016.358.39.968.453h4.203v1.078h-4.156q-1.375 0-1.375 1.36 0 1.062.906 1.452h4.625v1.094h-6.344zm6.469-12.61q0 1.297-.844 2.11-.86.797-2.281.797h-.188q-.953 0-1.687-.36-.75-.359-1.156-1-.422-.656-.422-1.406 0-1.234.812-1.922.813-.687 2.328-.687h.454v4.297q.937-.032 1.515-.547.578-.531.578-1.344 0-.562-.234-.953-.234-.406-.625-.719l.516-.656q1.234.797 1.234 2.39zm-5.688.141q0 .656.485 1.11.469.437 1.328.53v-3.171h-.078q-.828.047-1.281.453-.454.39-.454 1.078zm2.094-6.469q-1.312 0-2.531-.343-1.219-.36-2.219-1.063-1-.703-1.406-1.469l.719-.218q.656.86 2 1.406 1.343.547 3.015.594l.5.015q2.266 0 3.922-.828 1-.5 1.563-1.187l.656.218q-.422.782-1.453 1.5-1.985 1.375-4.766 1.375zm3.469-5.218v1.078h-9v-1.078zm-3.234-1.532q-.922 0-1.672-.359-.75-.375-1.14-1.031-.407-.656-.407-1.485 0-1.296.89-2.093.891-.813 2.391-.813h.078q.922 0 1.656.36.735.359 1.157 1.015.406.656.406 1.516 0 1.281-.89 2.094-.907.796-2.391.796zm.14-1.093q1.047 0 1.688-.485.64-.5.64-1.312 0-.828-.64-1.313-.657-.484-1.828-.484-1.032 0-1.672.5-.657.484-.657 1.312 0 .797.641 1.297.625.485 1.828.485zm1.594-11.813-4.844-1.219v-1.078l6.344 1.844v.875l-4.813 1.547 4.813 1.5v.875l-6.344 1.844v-1.078l4.75-1.25-4.75-1.485v-.86zm1.625-6.015q0 1.296-.844 2.109-.86.797-2.281.797h-.188q-.953 0-1.687-.36-.75-.359-1.156-1-.422-.656-.422-1.406 0-1.234.812-1.922.813-.687 2.328-.687h.454v4.297q.937-.032 1.515-.547.578-.531.578-1.344 0-.562-.234-.953-.234-.406-.625-.719l.516-.656q1.234.797 1.234 2.39zm-5.688.14q0 .656.485 1.11.469.437 1.328.53v-3.171h-.078q-.828.047-1.281.453-.454.39-.454 1.078zm.188-6.578q-.031.25-.031.531 0 1.078.906 1.453h4.5v1.079h-6.344v-1.047l.735-.016q-.844-.531-.844-1.516 0-.312.078-.484zm5.375-5.11v1.079h-6.344v-1.078h6.344zm-8.016 1.173q-.265 0-.453-.157-.187-.172-.187-.484 0-.313.187-.469.188-.172.453-.172.25 0 .438.172.172.156.172.469 0 .312-.172.484-.188.157-.438.157zm6.328-6.688q-.437 0-.671.344-.25.328-.422 1.156-.172.813-.422 1.297t-.578.719q-.344.218-.813.218-.781 0-1.312-.656-.547-.656-.547-1.687 0-1.078.562-1.735.547-.672 1.407-.672v1.079q-.438 0-.75.39-.329.375-.329.938 0 .593.266.937.25.328.656.328.391 0 .594-.312.203-.313.39-1.125.173-.813.423-1.313t.609-.734q.36-.25.86-.25.859 0 1.374.687.516.672.516 1.75 0 .766-.266 1.36-.28.578-.765.906-.485.328-1.047.328v-1.078q.547-.031.875-.437.312-.407.312-1.079 0-.609-.25-.984t-.672-.375zm-1.406-10.672q1.453 0 2.344.672.875.656.875 1.781 0 1.203-.86 1.86l.735.062v.985h-9v-1.079h3.36q-.813-.656-.813-1.812 0-1.156.875-1.813.86-.656 2.39-.656zm-.125 1.078q-1.11 0-1.703.438-.61.422-.61 1.219 0 1.078.985 1.546h2.75q1-.5 1-1.546 0-.782-.61-1.22-.609-.437-1.812-.437zm3.344-5.343q0 1.296-.844 2.109-.86.797-2.281.797h-.188q-.953 0-1.687-.36-.75-.359-1.156-1-.422-.656-.422-1.406 0-1.234.812-1.922.813-.687 2.328-.687h.454v4.297q.937-.032 1.515-.547.578-.531.578-1.344 0-.562-.234-.953-.234-.406-.625-.719l.516-.656q1.234.797 1.234 2.39zm-5.688.14q0 .656.485 1.11.469.437 1.328.53v-3.171h-.078q-.828.047-1.281.453-.454.39-.454 1.078zm-2.312-4.984h1.531v-1.172h.844v1.172h3.922q.39 0 .578-.156.187-.157.187-.532 0-.187-.062-.515h.875q.125.422.125.828 0 .719-.438 1.094-.453.375-1.265.375h-3.922v1.156h-.844v-1.156h-1.531zm0-4h1.531v-1.172h.844v1.172h3.922q.39 0 .578-.156.187-.157.187-.532 0-.187-.062-.515h.875q.125.422.125.828 0 .719-.438 1.094-.453.375-1.265.375h-3.922v1.156h-.844v-1.156h-1.531zm8-5.156q0 1.296-.844 2.109-.86.797-2.281.797h-.188q-.953 0-1.687-.36-.75-.359-1.156-1-.422-.656-.422-1.406 0-1.234.812-1.922.813-.687 2.328-.687h.454v4.297q.937-.032 1.515-.547.578-.531.578-1.344 0-.562-.234-.953-.234-.406-.625-.719l.516-.656q1.234.797 1.234 2.39zm-5.688.14q0 .656.485 1.11.469.437 1.328.53v-3.171h-.078q-.828.047-1.281.453-.454.39-.454 1.078zm.188-6.578q-.031.25-.031.531 0 1.078.906 1.453h4.5v1.079h-6.344v-1.047l.735-.016q-.844-.531-.844-1.516 0-.312.078-.484zm1.969-3.437q1.312 0 2.515.343 1.188.344 2.203 1.063 1.016.703 1.438 1.469l-.656.234q-.688-.906-2.14-1.453-1.47-.547-3.235-.563h-.188q-1.234 0-2.297.266-1.062.25-1.89.719-.844.453-1.313 1.03l-.656-.233q.422-.766 1.422-1.47 1-.702 2.219-1.046 1.203-.36 2.578-.36z" fill="#b7b7b7"/><path d="m80.713 505.21q0 1.906-.657 2.843-.64.922-2.031.922-1.36 0-2.016-.906-.656-.906-.687-2.719v-1.438q0-1.89.64-2.796.657-.922 2.047-.922 1.375 0 2.032.89.656.875.672 2.72v1.405zm-1.094-1.485q0-1.375-.39-2-.376-.64-1.22-.64-.828 0-1.218.64-.375.625-.375 1.922v1.734q0 1.375.39 2.047.407.656 1.219.656.797 0 1.188-.625.39-.625.406-1.953zm6.875-1.219.031.703q.688-.812 1.875-.812 1.328 0 1.813 1.016.312-.454.812-.735.516-.281 1.203-.281 2.094 0 2.125 2.203v4.25h-1.078v-4.188q0-.671-.313-1-.312-.343-1.046-.343-.61 0-1.016.36-.39.359-.453.968v4.203h-1.078v-4.156q0-1.375-1.36-1.375-1.062 0-1.453.906v4.625h-1.093v-6.344h1.03zm13.672 4.657q0-.438-.344-.672-.328-.25-1.156-.422-.813-.172-1.297-.422-.485-.25-.719-.578-.219-.344-.219-.813 0-.781.657-1.312.656-.547 1.687-.547 1.078 0 1.734.562.672.547.672 1.407h-1.078q0-.438-.39-.75-.375-.328-.938-.328-.594 0-.938.265-.328.25-.328.656 0 .391.313.594.312.203 1.125.39.812.173 1.312.423t.735.609q.25.36.25.86 0 .859-.688 1.374-.672.516-1.75.516-.765 0-1.36-.266-.577-.28-.905-.765-.328-.485-.328-1.047h1.078q.03.547.437.875.406.312 1.078.312.61 0 .985-.25t.375-.671zm-26.219-83.666h-5.594v-.782l2.953-3.28q.657-.75.907-1.204.25-.469.25-.969 0-.672-.407-1.093-.39-.438-1.078-.438-.797 0-1.25.469-.453.453-.453 1.281h-1.078q0-1.187.75-1.906.766-.735 2.031-.735 1.203 0 1.89.625.688.625.688 1.672 0 1.25-1.61 3l-2.28 2.469h4.28v.89zm1.906-4.282.438-4.25h4.375v1h-3.453l-.266 2.329q.64-.375 1.437-.375 1.157 0 1.844.78.688.766.688 2.079 0 1.312-.72 2.078-.702.766-1.983.766-1.125 0-1.844-.625-.719-.641-.813-1.75h1.016q.11.734.531 1.109.422.375 1.11.375.75 0 1.187-.516.438-.515.438-1.421 0-.86-.47-1.375-.468-.516-1.25-.516-.702 0-1.109.297l-.28.234zm10.64-2.062.032.703q.688-.812 1.875-.812 1.328 0 1.813 1.015.312-.453.812-.734.516-.281 1.203-.281 2.094 0 2.125 2.203v4.25h-1.078v-4.188q0-.672-.313-1-.312-.344-1.046-.344-.61 0-1.016.36-.39.36-.453.969v4.203h-1.078v-4.157q0-1.375-1.36-1.375-1.062 0-1.453.907v4.625h-1.093v-6.344zm13.673 4.656q0-.437-.344-.672-.328-.25-1.156-.422-.813-.171-1.297-.421-.485-.25-.719-.579-.219-.343-.219-.812 0-.781.657-1.313.656-.546 1.687-.546 1.078 0 1.734.562.672.547.672 1.406h-1.078q0-.437-.39-.75-.375-.328-.938-.328-.594 0-.938.266-.328.25-.328.656 0 .39.313.594.312.203 1.125.39.812.172 1.312.422t.735.61q.25.359.25.859 0 .86-.688 1.375-.672.516-1.75.516-.765 0-1.36-.266-.577-.281-.905-.766-.328-.484-.328-1.046h1.078q.03.546.437.875.406.312 1.078.312.61 0 .985-.25t.375-.672zm-31.313-87.947.438-4.25h4.375v1h-3.453l-.266 2.328q.64-.375 1.437-.375 1.157 0 1.844.781.688.766.688 2.079 0 1.312-.72 2.078-.702.765-1.983.765-1.125 0-1.844-.625-.719-.64-.813-1.75h1.016q.11.735.531 1.11.422.375 1.11.375.75 0 1.187-.516.438-.516.438-1.422 0-.86-.47-1.375-.468-.515-1.25-.515-.702 0-1.109.296l-.28.235zm11.86.64q0 1.907-.657 2.844-.64.922-2.031.922-1.36 0-2.016-.906-.656-.906-.687-2.719v-1.437q0-1.89.64-2.797.657-.922 2.047-.922 1.375 0 2.032.89.656.876.672 2.72v1.406zm-1.094-1.484q0-1.375-.39-2-.376-.64-1.22-.64-.828 0-1.218.64-.375.625-.375 1.922v1.735q0 1.375.39 2.046.407.657 1.219.657.797 0 1.188-.625.39-.625.406-1.953zm6.875-1.218.031.703q.688-.813 1.875-.813 1.328 0 1.813 1.016.312-.453.812-.735.516-.28 1.203-.28 2.094 0 2.125 2.202v4.25h-1.078v-4.187q0-.672-.313-1-.312-.344-1.046-.344-.61 0-1.016.36-.39.359-.453.968v4.203h-1.078v-4.156q0-1.375-1.36-1.375-1.062 0-1.453.906v4.625h-1.093v-6.343h1.03zm13.672 4.656q0-.438-.344-.672-.328-.25-1.156-.422-.813-.172-1.297-.422-.485-.25-.719-.578-.219-.344-.219-.812 0-.782.657-1.313.656-.547 1.687-.547 1.078 0 1.734.563.672.547.672 1.406h-1.078q0-.438-.39-.75-.375-.328-.938-.328-.594 0-.938.265-.328.25-.328.657 0 .39.313.593.312.204 1.125.391.812.172 1.312.422t.735.61q.25.359.25.859 0 .86-.688 1.375-.672.515-1.75.515-.765 0-1.36-.265-.577-.282-.905-.766-.328-.484-.328-1.047h1.078q.03.547.437.875.406.313 1.078.313.61 0 .985-.25t.375-.672zm-26.297-91.588-3.531 7.922h-1.141l3.516-7.64h-4.61v-.891h5.766v.61zm1.984 3.64.438-4.25h4.375v1h-3.453l-.266 2.329q.64-.375 1.437-.375 1.157 0 1.844.781.688.766.688 2.078 0 1.313-.72 2.078-.702.766-1.983.766-1.125 0-1.844-.625-.719-.64-.813-1.75h1.016q.11.734.531 1.11.422.374 1.11.374.75 0 1.187-.515.438-.516.438-1.422 0-.86-.47-1.375-.468-.516-1.25-.516-.702 0-1.109.297l-.28.234-.876-.218zm10.64-2.062.032.703q.688-.812 1.875-.812 1.328 0 1.813 1.016.312-.454.812-.735.516-.281 1.203-.281 2.094 0 2.125 2.203v4.25h-1.078v-4.188q0-.671-.313-1-.312-.343-1.046-.343-.61 0-1.016.36-.39.358-.453.968v4.203h-1.078v-4.156q0-1.375-1.36-1.375-1.062 0-1.453.906v4.625h-1.093v-6.344zm13.673 4.656q0-.437-.344-.671-.328-.25-1.156-.422-.813-.172-1.297-.422-.485-.25-.719-.578-.219-.344-.219-.813 0-.781.657-1.312.656-.547 1.687-.547 1.078 0 1.734.562.672.547.672 1.407h-1.078q0-.438-.39-.75-.375-.329-.938-.329-.594 0-.938.266-.328.25-.328.656 0 .391.313.594.312.203 1.125.39.812.173 1.312.423t.735.609q.25.36.25.86 0 .859-.688 1.374-.672.516-1.75.516-.765 0-1.36-.266-.577-.28-.905-.765-.328-.485-.328-1.047h1.078q.03.547.437.875.406.312 1.078.312.61 0 .985-.25t.375-.672zm-35.25-83.665h-1.078v-7.22l-2.188.798v-.985l3.11-1.171h.156zm8.797-3.641q0 1.906-.657 2.844-.64.922-2.031.922-1.36 0-2.016-.907-.656-.906-.687-2.718v-1.438q0-1.89.64-2.797.657-.922 2.047-.922 1.375 0 2.032.891.656.875.672 2.719zm-1.094-1.484q0-1.375-.39-2-.376-.641-1.22-.641-.828 0-1.218.64-.375.626-.375 1.923v1.734q0 1.375.39 2.047.407.656 1.219.656.797 0 1.188-.625.39-.625.406-1.953zm8.094 1.484q0 1.906-.657 2.844-.64.922-2.031.922-1.36 0-2.016-.907-.656-.906-.687-2.718v-1.438q0-1.89.64-2.797.657-.922 2.047-.922 1.375 0 2.032.891.656.875.672 2.719zm-1.094-1.484q0-1.375-.39-2-.376-.641-1.22-.641-.828 0-1.218.64-.375.626-.375 1.923v1.734q0 1.375.39 2.047.407.656 1.219.656.797 0 1.188-.625.39-.625.406-1.953zm6.875-1.22.031.704q.688-.812 1.875-.812 1.328 0 1.813 1.015.312-.453.812-.734.516-.281 1.203-.281 2.094 0 2.125 2.203v4.25h-1.078v-4.188q0-.672-.313-1-.312-.344-1.046-.344-.61 0-1.016.36-.39.36-.453.969v4.203h-1.078v-4.157q0-1.375-1.36-1.375-1.062 0-1.453.907v4.625h-1.093v-6.344h1.03zm13.672 4.657q0-.437-.344-.672-.328-.25-1.156-.422-.813-.171-1.297-.421-.485-.25-.719-.579-.219-.343-.219-.812 0-.781.657-1.313.656-.546 1.687-.546 1.078 0 1.734.562.672.547.672 1.406h-1.078q0-.437-.39-.75-.375-.328-.938-.328-.594 0-.938.266-.328.25-.328.656 0 .39.313.594.312.203 1.125.39.812.172 1.312.422t.735.61q.25.359.25.859 0 .86-.688 1.375-.672.516-1.75.516-.765 0-1.36-.266-.577-.281-.905-.766-.328-.484-.328-1.046h1.078q.03.546.437.875.406.312 1.078.312.61 0 .985-.25t.375-.672zm-35.25-83.666h-1.078v-7.218l-2.188.796v-.984l3.11-1.172h.156zm9.03 0h-5.593v-.78l2.953-3.282q.657-.75.907-1.203.25-.469.25-.969 0-.672-.407-1.094-.39-.437-1.078-.437-.797 0-1.25.468-.453.454-.453 1.282h-1.078q0-1.188.75-1.907.766-.734 2.031-.734 1.203 0 1.89.625.688.625.688 1.672 0 1.25-1.61 3l-2.28 2.469h4.28zm1.907-4.28.438-4.25h4.375v1h-3.453l-.266 2.327q.64-.375 1.437-.375 1.157 0 1.844.781.688.766.688 2.079 0 1.312-.72 2.078-.702.765-1.983.765-1.125 0-1.844-.625-.719-.64-.813-1.75h1.016q.11.735.531 1.11.422.375 1.11.375.75 0 1.187-.516.438-.516.438-1.422 0-.86-.47-1.375-.468-.515-1.25-.515-.702 0-1.109.296l-.28.235-.876-.219zm10.64-2.063.032.703q.688-.813 1.875-.813 1.328 0 1.813 1.016.312-.453.812-.735.516-.28 1.203-.28 2.094 0 2.125 2.202v4.25h-1.078v-4.187q0-.672-.313-1-.312-.344-1.046-.344-.61 0-1.016.36-.39.359-.453.968v4.203h-1.078v-4.156q0-1.375-1.36-1.375-1.062 0-1.453.906v4.625h-1.093v-6.343zm13.673 4.656q0-.438-.344-.672-.328-.25-1.156-.422-.813-.172-1.297-.422-.485-.25-.719-.578-.219-.344-.219-.812 0-.782.657-1.313.656-.547 1.687-.547 1.078 0 1.734.563.672.547.672 1.406h-1.078q0-.438-.39-.75-.375-.328-.938-.328-.594 0-.938.265-.328.25-.328.657 0 .39.313.593.312.204 1.125.391.812.172 1.312.422t.735.61q.25.359.25.859 0 .86-.688 1.375-.672.515-1.75.515-.765 0-1.36-.265-.577-.282-.905-.766-.328-.484-.328-1.047h1.078q.03.547.437.875.406.313 1.078.313.61 0 .985-.25t.375-.672zm82.622 437.97q0 1.25-.422 2.187-.422.922-1.203 1.422-.766.5-1.797.5-1 0-1.782-.5-.78-.5-1.218-1.406-.422-.922-.438-2.14v-.61q0-1.235.422-2.172.438-.938 1.219-1.438.781-.515 1.797-.515 1.015 0 1.797.5.78.5 1.203 1.437.422.938.422 2.188zm-1.11-.563q0-1.515-.61-2.328-.609-.813-1.702-.813-1.078 0-1.688.813-.61.813-.625 2.25v.64q0 1.47.61 2.313.625.828 1.703.828 1.093 0 1.687-.781.61-.797.625-2.281v-.64zm4.469 3.078 1.578-4.875h1.11l-2.282 6.344h-.828l-2.297-6.344h1.11zm6.547 1.594q-1.297 0-2.11-.844-.796-.86-.796-2.281v-.188q0-.953.359-1.687.36-.75 1-1.156.656-.422 1.406-.422 1.235 0 1.922.812.688.813.688 2.329v.453h-4.297q.031.937.547 1.515.53.578 1.343.578.563 0 .953-.234.407-.234.72-.625l.655.516q-.796 1.234-2.39 1.234zm-.14-5.688q-.657 0-1.11.485-.438.469-.531 1.328h3.171v-.078q-.046-.828-.453-1.281-.39-.453-1.078-.453zm6.577.188q-.25-.031-.53-.031-1.079 0-1.454.906v4.5h-1.078v-6.344h1.047l.015.735q.532-.844 1.516-.844.313 0 .484.078zm4.844 5.375q-.094-.188-.156-.672-.75.797-1.797.797-.938 0-1.547-.531-.594-.531-.594-1.36 0-.984.75-1.53.75-.548 2.125-.548h1.047v-.5q0-.562-.344-.89-.328-.344-1-.344-.578 0-.968.297-.39.281-.39.703h-1.095q0-.485.328-.922.344-.438.922-.688.578-.265 1.266-.265 1.11 0 1.719.547.625.547.656 1.5v2.922q0 .875.219 1.39v.094h-1.14zm-1.797-.828q.516 0 .969-.266.453-.265.656-.687v-1.297h-.844q-2 0-2 1.172 0 .5.344.797.344.28.875.28zm6.063.828h-1.078v-9h1.078zm3 0h-1.078v-9h1.078zm108.245-2.234h-3.578l-.797 2.234h-1.157l3.25-8.531h.985l3.265 8.531h-1.156zm-3.235-.922h2.907l-1.454-3.985zm7.532 3.156h-1.079v-6.344h1.079zm-1.172-8.016q0-.265.156-.453.172-.187.484-.187.313 0 .47.187.171.188.171.453 0 .25-.172.438-.156.172-.469.172-.312 0-.484-.172-.156-.188-.156-.438zm6.062 2.641q-.25-.031-.531-.031-1.078 0-1.453.906v4.5h-1.078v-6.344h1.047l.015.735q.531-.844 1.516-.844.312 0 .484.078zm106.636 5.375v-8.531h2.797q1.39 0 2.078.578.703.562.703 1.687 0 .61-.344 1.079-.328.453-.922.703.703.187 1.094.734.406.531.406 1.281 0 1.157-.75 1.813-.734.656-2.093.656h-2.97zm1.125-3.984v3.062h1.86q.796 0 1.25-.406.452-.406.452-1.125 0-1.531-1.687-1.531zm0-.907h1.703q.734 0 1.172-.359.453-.375.453-1.016 0-.703-.406-1.015-.407-.328-1.25-.328h-1.672zm9.625 4.891q-.094-.188-.156-.672-.75.797-1.797.797-.938 0-1.547-.531-.594-.531-.594-1.36 0-.984.75-1.53.75-.548 2.125-.548h1.047v-.5q0-.562-.344-.89-.328-.344-1-.344-.578 0-.969.297-.39.281-.39.703h-1.094q0-.485.328-.922.344-.438.922-.688.578-.265 1.266-.265 1.11 0 1.718.547.625.547.657 1.5v2.922q0 .875.218 1.39v.094zm-1.797-.828q.516 0 .969-.266.453-.265.656-.687v-1.297h-.844q-2 0-2 1.172 0 .5.344.797.344.28.875.28zm8.578-.86q0-.437-.344-.671-.328-.25-1.156-.422-.812-.172-1.297-.422-.484-.25-.719-.578-.218-.344-.218-.813 0-.781.656-1.312.656-.547 1.687-.547 1.079 0 1.735.562.672.547.672 1.407h-1.078q0-.438-.391-.75-.375-.328-.938-.328-.593 0-.937.265-.328.25-.328.656 0 .391.312.594.313.203 1.125.39.813.173 1.313.423t.734.609q.25.36.25.86 0 .859-.687 1.374-.672.516-1.75.516-.766 0-1.36-.266-.578-.28-.906-.765-.328-.485-.328-1.047h1.078q.031.547.438.875.406.312 1.078.312.61 0 .984-.25.375-.25.375-.671zm3.484 1.688h-1.078v-6.344h1.078zm-1.171-8.016q0-.265.156-.453.172-.187.484-.187.313 0 .469.187.172.188.172.453 0 .25-.172.438-.156.172-.469.172-.312 0-.484-.172-.156-.188-.156-.438zm5.53 7.25q.579 0 1.016-.343.438-.36.485-.891h1.031q-.031.547-.39 1.047-.344.484-.922.781-.563.297-1.22.297-1.296 0-2.062-.86-.75-.874-.75-2.374v-.188q0-.922.328-1.64.344-.72.97-1.11.64-.406 1.515-.406 1.062 0 1.765.64.72.625.766 1.657h-1.031q-.047-.625-.469-1.016-.422-.39-1.031-.39-.828 0-1.281.593-.454.594-.454 1.719v.203q0 1.094.454 1.688.453.593 1.28.593zm94.667.766v-8.531h2.798q1.39 0 2.078.578.703.562.703 1.687 0 .61-.344 1.079-.328.453-.922.703.703.187 1.094.734.406.531.406 1.281 0 1.157-.75 1.813-.734.656-2.094.656h-2.968zm1.126-3.984v3.062h1.859q.797 0 1.25-.406.453-.406.453-1.125 0-1.531-1.687-1.531zm0-.907h1.703q.734 0 1.172-.359.453-.375.453-1.016 0-.703-.406-1.015-.407-.328-1.25-.328h-1.672zm9.625 4.891q-.094-.188-.157-.672-.75.797-1.796.797-.938 0-1.547-.531-.594-.531-.594-1.36 0-.984.75-1.53.75-.548 2.125-.548h1.047v-.5q0-.562-.344-.89-.328-.344-1-.344-.578 0-.969.297-.39.281-.39.703h-1.094q0-.485.328-.922.344-.438.922-.688.578-.265 1.266-.265 1.109 0 1.718.547.625.547.657 1.5v2.922q0 .875.218 1.39v.094zm-1.797-.828q.515 0 .969-.266.453-.265.656-.687v-1.297h-.844q-2 0-2 1.172 0 .5.344.797.344.28.875.28zm10.25-2.266q0 1.453-.672 2.344-.656.875-1.781.875-1.203 0-1.86-.86l-.062.735h-.985v-9h1.079v3.36q.656-.813 1.812-.813 1.156 0 1.813.875.656.86.656 2.39zm-1.078-.125q0-1.11-.438-1.703-.422-.61-1.219-.61-1.078 0-1.546.985v2.75q.5 1 1.546 1 .782 0 1.22-.61.437-.609.437-1.812zm4.78 1.625 1.485-4.75h1.157l-2.547 7.328q-.594 1.579-1.875 1.579l-.22-.016-.39-.078v-.875l.282.015q.562 0 .859-.218.312-.22.516-.813l.234-.656-2.266-6.266h1.188l1.578 4.75zm5.11 1.594h-1.078v-9h1.078zm1.532-3.234q0-.922.359-1.672.375-.75 1.031-1.14.656-.407 1.485-.407 1.296 0 2.093.89.813.891.813 2.391v.078q0 .922-.36 1.657-.359.734-1.015 1.156-.656.406-1.516.406-1.281 0-2.094-.89-.796-.907-.796-2.391zm1.093.14q0 1.047.485 1.688.5.64 1.312.64.828 0 1.313-.64.484-.656.484-1.828 0-1.032-.5-1.672-.484-.656-1.313-.656-.796 0-1.296.64-.485.625-.485 1.828zm7.219-3.25.031.797q.735-.906 1.907-.906 2.015 0 2.03 2.265v4.188h-1.093v-4.203q0-.672-.313-1-.296-.328-.953-.328-.53 0-.937.281-.39.281-.61.734v4.516h-1.078v-6.344zm105.136-2.187 2.797 6.953 2.78-6.953h1.47v8.531h-1.125v-3.328l.109-3.578-2.813 6.906h-.859l-2.797-6.89.11 3.562v3.328h-1.125v-8.531zm9.687 7.61h4.047v.921h-5.188v-8.531h1.141z" fill="#757575"/><path d="m820.35 72.583a1 1 0 0 1 1-1h10a1 1 0 0 1 1 1v10a1 1 0 0 1 -1 1h-10a1 1 0 0 1 -1-1z" fill="#e69138"/><path d="m847.616 79.38q-.157 1.344-1 2.094-.844.734-2.235.734-1.515 0-2.422-1.078-.906-1.094-.906-2.922v-.812q0-1.188.422-2.094.422-.906 1.203-1.39.781-.485 1.797-.485 1.36 0 2.172.766.828.765.969 2.093h-1.125q-.157-1.015-.641-1.468-.484-.453-1.375-.453-1.078 0-1.688.796-.609.797-.609 2.266v.828q0 1.39.578 2.219.578.812 1.625.812.938 0 1.438-.421.5-.438.672-1.485zm2.64-2.875q.719-.875 1.875-.875 2.016 0 2.032 2.266v4.187h-1.094v-4.203q0-.672-.313-1-.297-.328-.953-.328-.531 0-.937.281-.391.282-.61.735v4.515h-1.078v-9h1.078zm8.985.203q-.25-.03-.532-.03-1.078 0-1.453.905v4.5h-1.078v-6.343h1.047l.016.734q.53-.844 1.515-.844.313 0 .485.078zm.64 2.141q0-.922.36-1.672.375-.75 1.03-1.14.657-.407 1.485-.407 1.297 0 2.094.89.813.891.813 2.391v.079q0 .921-.36 1.656-.36.734-1.015 1.156-.657.406-1.516.406-1.281 0-2.094-.89-.797-.907-.797-2.39zm1.094.14q0 1.047.484 1.688.5.64 1.313.64.828 0 1.312-.64.485-.656.485-1.828 0-1.031-.5-1.672-.485-.656-1.313-.656-.797 0-1.297.64-.484.625-.484 1.829zm7.219-3.25.031.704q.688-.813 1.875-.813 1.328 0 1.813 1.016.312-.453.812-.735.516-.28 1.203-.28 2.094 0 2.125 2.202v4.25h-1.078v-4.187q0-.672-.313-1-.312-.344-1.046-.344-.61 0-1.016.36-.39.359-.453.968v4.203h-1.078v-4.156q0-1.375-1.36-1.375-1.062 0-1.453.906v4.625h-1.093v-6.343h1.03zm12.61 6.47q-1.298 0-2.11-.844-.797-.86-.797-2.282v-.187q0-.953.36-1.688.359-.75 1-1.156.656-.422 1.406-.422 1.234 0 1.921.813.688.812.688 2.328v.453h-4.297q.031.937.547 1.516.531.578 1.344.578.562 0 .953-.235.406-.234.719-.625l.656.516q-.797 1.234-2.39 1.234zm-.141-5.688q-.657 0-1.11.484-.437.469-.531 1.328h3.172v-.078q-.047-.828-.453-1.281-.391-.453-1.078-.453zm6.89 1.281.438-4.25h4.375v1h-3.453l-.266 2.328q.64-.375 1.437-.375 1.157 0 1.844.781.688.766.688 2.079 0 1.312-.72 2.078-.702.765-1.983.765-1.125 0-1.844-.625-.719-.64-.813-1.75h1.016q.11.735.531 1.11.422.375 1.11.375.75 0 1.187-.516.438-.516.438-1.422 0-.86-.47-1.375-.468-.515-1.25-.515-.702 0-1.109.296l-.28.235zm11.688-2.031q0 .64-.344 1.14-.344.5-.906.782.656.281 1.047.843.39.547.39 1.25 0 1.094-.75 1.766-.734.656-1.953.656-1.234 0-1.984-.656-.735-.672-.735-1.766 0-.703.375-1.25.375-.562 1.047-.843-.562-.282-.89-.782-.329-.5-.329-1.14 0-1.078.688-1.703.687-.64 1.828-.64 1.125 0 1.813.64.703.625.703 1.703zm-.891 3.984q0-.719-.453-1.156-.453-.453-1.188-.453-.734 0-1.187.453-.438.437-.438 1.172 0 .719.438 1.14.437.407 1.203.407.75 0 1.188-.422.437-.422.437-1.14zm-1.625-5.437q-.64 0-1.047.406-.39.39-.39 1.078 0 .64.39 1.047.39.406 1.031.406.657 0 1.047-.406.39-.406.39-1.047 0-.656-.405-1.062-.407-.422-1.016-.422zm4.469 7.203q0-.281.156-.469.172-.187.5-.187.344 0 .516.187.172.188.172.469 0 .265-.172.453-.172.172-.516.172-.328 0-.5-.172-.156-.188-.156-.453zm8.219-3.078q0 1.906-.657 2.843-.64.922-2.031.922-1.36 0-2.016-.906-.656-.906-.687-2.719v-1.437q0-1.89.64-2.797.657-.922 2.047-.922 1.375 0 2.032.89.656.876.672 2.72zm-1.094-1.485q0-1.375-.39-2-.376-.64-1.22-.64-.828 0-1.218.64-.375.625-.375 1.922v1.735q0 1.375.39 2.046.407.657 1.219.657.797 0 1.188-.625.39-.625.406-1.953zm2.875 4.563q0-.281.156-.469.172-.187.5-.187.344 0 .516.187.172.188.172.469 0 .265-.172.453-.172.172-.516.172-.328 0-.5-.172-.156-.188-.156-.453zm4.437-4.235h.813q.781-.015 1.219-.406.437-.39.437-1.062 0-1.5-1.5-1.5-.703 0-1.125.406-.406.406-.406 1.062h-1.094q0-1.015.734-1.687.75-.672 1.891-.672 1.203 0 1.89.64.688.641.688 1.782 0 .562-.36 1.078-.359.516-.984.781.704.22 1.079.735.39.515.39 1.265 0 1.141-.75 1.828-.75.672-1.953.672-1.188 0-1.953-.656-.75-.656-.75-1.719h1.094q0 .672.437 1.078.438.407 1.188.407.78 0 1.187-.407.422-.421.422-1.187 0-.734-.453-1.125-.453-.406-1.328-.422h-.813v-.89zm10.782 1.157q0 1.906-.657 2.843-.64.922-2.031.922-1.36 0-2.016-.906-.656-.906-.687-2.719v-1.437q0-1.89.64-2.797.657-.922 2.047-.922 1.375 0 2.032.89.656.876.672 2.72zm-1.094-1.485q0-1.375-.39-2-.376-.64-1.22-.64-.828 0-1.218.64-.375.625-.375 1.922v1.735q0 1.375.39 2.046.407.657 1.219.657.797 0 1.188-.625.39-.625.406-1.953zm8.328 5.125h-5.594v-.78l2.953-3.282q.657-.75.907-1.203.25-.469.25-.969 0-.672-.407-1.094-.39-.437-1.078-.437-.797 0-1.25.468-.453.454-.453 1.282h-1.078q0-1.188.75-1.907.765-.734 2.031-.734 1.203 0 1.89.625.688.625.688 1.672 0 1.25-1.61 3l-2.28 2.469h4.28v.89zm5.562-3.75q-.328.407-.812.657-.469.234-1.031.234-.735 0-1.282-.36-.546-.359-.843-1.015-.297-.672-.297-1.469 0-.844.312-1.531.328-.688.922-1.047.61-.375 1.406-.375 1.266 0 1.985.953.734.953.734 2.578v.313q0 2.5-.984 3.64-.985 1.141-2.969 1.172h-.219v-.906h.235q1.343-.031 2.062-.703.719-.672.781-2.14zm-1.671 0q.546 0 1-.328.468-.344.687-.828v-.437q0-1.063-.469-1.735-.468-.672-1.172-.672-.718 0-1.156.547-.422.547-.422 1.453 0 .875.407 1.438.421.562 1.125.562z" fill="#757575"/><path d="m820.35 97.583a1 1 0 0 1 1-1h10a1 1 0 0 1 1 1v10a1 1 0 0 1 -1 1h-10a1 1 0 0 1 -1-1z" fill="#9fc5e8"/><path d="m847.616 104.38q-.157 1.344-1 2.094-.844.734-2.235.734-1.515 0-2.422-1.078-.906-1.094-.906-2.922v-.812q0-1.188.422-2.094.422-.906 1.203-1.39.781-.485 1.797-.485 1.36 0 2.172.766.828.765.969 2.093h-1.125q-.157-1.015-.641-1.468-.484-.453-1.375-.453-1.078 0-1.688.796-.609.797-.609 2.266v.828q0 1.39.578 2.219.578.812 1.625.812.938 0 1.438-.421.5-.438.672-1.485zm2.64-2.875q.719-.875 1.875-.875 2.016 0 2.032 2.266v4.187h-1.094v-4.203q0-.672-.313-1-.297-.328-.953-.328-.531 0-.937.281-.391.282-.61.735v4.515h-1.078v-9h1.078zm8.985.203q-.25-.03-.532-.03-1.078 0-1.453.905v4.5h-1.078v-6.343h1.047l.016.734q.53-.844 1.515-.844.313 0 .485.078zm.64 2.141q0-.922.36-1.672.375-.75 1.03-1.14.657-.407 1.485-.407 1.297 0 2.094.89.813.891.813 2.391v.079q0 .921-.36 1.656-.36.734-1.015 1.156-.657.406-1.516.406-1.281 0-2.094-.89-.797-.907-.797-2.39zm1.094.14q0 1.047.484 1.688.5.64 1.313.64.828 0 1.312-.64.485-.656.485-1.828 0-1.031-.5-1.672-.485-.656-1.313-.656-.797 0-1.297.64-.484.625-.484 1.829zm7.219-3.25.031.704q.688-.813 1.875-.813 1.328 0 1.813 1.016.312-.453.812-.735.516-.28 1.203-.28 2.094 0 2.125 2.202v4.25h-1.078v-4.187q0-.672-.313-1-.312-.344-1.046-.344-.61 0-1.016.36-.39.359-.453.968v4.203h-1.078v-4.156q0-1.375-1.36-1.375-1.062 0-1.453.906v4.625h-1.093v-6.343h1.03zm12.61 6.47q-1.298 0-2.11-.844-.797-.86-.797-2.282v-.187q0-.953.36-1.688.359-.75 1-1.156.656-.422 1.406-.422 1.234 0 1.921.813.688.812.688 2.328v.453h-4.297q.031.937.547 1.516.531.578 1.344.578.562 0 .953-.235.406-.234.719-.625l.656.516q-.797 1.234-2.39 1.234zm-.141-5.688q-.657 0-1.11.484-.437.469-.531 1.328h3.172v-.078q-.047-.828-.453-1.281-.391-.453-1.078-.453zm6.89 1.281.438-4.25h4.375v1h-3.453l-.266 2.328q.64-.375 1.437-.375 1.157 0 1.844.781.688.766.688 2.079 0 1.312-.72 2.078-.702.765-1.983.765-1.125 0-1.844-.625-.719-.64-.813-1.75h1.016q.11.735.531 1.11.422.375 1.11.375.75 0 1.187-.516.438-.516.438-1.422 0-.86-.47-1.375-.468-.515-1.25-.515-.702 0-1.109.296l-.28.235zm10.656.531q-.328.407-.812.657-.469.234-1.031.234-.735 0-1.282-.36-.546-.359-.843-1.015-.297-.672-.297-1.469 0-.844.312-1.531.328-.688.922-1.047.61-.375 1.406-.375 1.266 0 1.985.953.734.953.734 2.578v.313q0 2.5-.984 3.64-.985 1.141-2.969 1.172h-.219v-.906h.235q1.343-.031 2.062-.703.719-.672.781-2.14zm-1.671 0q.546 0 1-.328.468-.344.687-.828v-.437q0-1.063-.469-1.735-.468-.672-1.172-.672-.718 0-1.156.547-.422.547-.422 1.453 0 .875.407 1.438.421.562 1.125.562zm4.656 3.188q0-.281.156-.469.172-.187.5-.187.344 0 .516.187.172.188.172.469 0 .265-.172.453-.172.172-.516.172-.328 0-.5-.172-.156-.188-.156-.453zm8.219-3.078q0 1.906-.657 2.843-.64.922-2.031.922-1.36 0-2.016-.906-.656-.906-.687-2.719v-1.437q0-1.89.64-2.797.657-.922 2.047-.922 1.375 0 2.032.89.656.876.672 2.72zm-1.094-1.485q0-1.375-.39-2-.376-.64-1.22-.64-.828 0-1.218.64-.375.625-.375 1.922v1.735q0 1.375.39 2.046.407.657 1.219.657.797 0 1.188-.625.39-.625.406-1.953zm2.875 4.563q0-.281.156-.469.172-.187.5-.187.344 0 .516.187.172.188.172.469 0 .265-.172.453-.172.172-.516.172-.328 0-.5-.172-.156-.188-.156-.453zm4.437-4.235h.813q.781-.015 1.219-.406.437-.39.437-1.062 0-1.5-1.5-1.5-.703 0-1.125.406-.406.406-.406 1.062h-1.094q0-1.015.734-1.687.75-.672 1.891-.672 1.203 0 1.89.64.688.641.688 1.782 0 .562-.36 1.078-.359.516-.984.781.704.22 1.079.735.39.515.39 1.265 0 1.141-.75 1.828-.75.672-1.953.672-1.188 0-1.953-.656-.75-.656-.75-1.719h1.094q0 .672.437 1.078.438.407 1.188.407.78 0 1.187-.407.422-.421.422-1.187 0-.734-.453-1.125-.453-.406-1.328-.422h-.813v-.89zm10.782 1.157q0 1.906-.657 2.843-.64.922-2.031.922-1.36 0-2.016-.906-.656-.906-.687-2.719v-1.437q0-1.89.64-2.797.657-.922 2.047-.922 1.375 0 2.032.89.656.876.672 2.72zm-1.094-1.485q0-1.375-.39-2-.376-.64-1.22-.64-.828 0-1.218.64-.375.625-.375 1.922v1.735q0 1.375.39 2.046.407.657 1.219.657.797 0 1.188-.625.39-.625.406-1.953zm8.25-2.797-3.531 7.922h-1.141l3.515-7.64h-4.609v-.89h5.766zm5.047 7.922h-1.078v-7.218l-2.188.796v-.984l3.11-1.172h.156z" fill="#757575"/><path d="m820.35 122.583a1 1 0 0 1 1-1h10a1 1 0 0 1 1 1v10a1 1 0 0 1 -1 1h-10a1 1 0 0 1 -1-1z" fill="#6fa8dc"/><path d="m847.616 129.38q-.157 1.344-1 2.094-.844.734-2.235.734-1.515 0-2.422-1.078-.906-1.094-.906-2.922v-.812q0-1.188.422-2.094.422-.906 1.203-1.39.781-.485 1.797-.485 1.36 0 2.172.766.828.765.969 2.093h-1.125q-.157-1.015-.641-1.468-.484-.453-1.375-.453-1.078 0-1.688.796-.609.797-.609 2.266v.828q0 1.39.578 2.219.578.812 1.625.812.938 0 1.438-.421.5-.438.672-1.485zm2.64-2.875q.719-.875 1.875-.875 2.016 0 2.032 2.266v4.187h-1.094v-4.203q0-.672-.313-1-.297-.328-.953-.328-.531 0-.937.281-.391.282-.61.735v4.515h-1.078v-9h1.078zm8.985.203q-.25-.03-.532-.03-1.078 0-1.453.905v4.5h-1.078v-6.343h1.047l.016.734q.53-.844 1.515-.844.313 0 .485.078zm.64 2.141q0-.922.36-1.672.375-.75 1.03-1.14.657-.407 1.485-.407 1.297 0 2.094.89.813.891.813 2.391v.079q0 .921-.36 1.656-.36.734-1.015 1.156-.657.406-1.516.406-1.281 0-2.094-.89-.797-.907-.797-2.39zm1.094.14q0 1.047.484 1.688.5.64 1.313.64.828 0 1.312-.64.485-.656.485-1.828 0-1.031-.5-1.672-.485-.656-1.313-.656-.797 0-1.297.64-.484.625-.484 1.829zm7.219-3.25.031.704q.688-.813 1.875-.813 1.328 0 1.813 1.016.312-.453.812-.735.516-.28 1.203-.28 2.094 0 2.125 2.202v4.25h-1.078v-4.187q0-.672-.313-1-.312-.344-1.046-.344-.61 0-1.016.36-.39.359-.453.968v4.203h-1.078v-4.156q0-1.375-1.36-1.375-1.062 0-1.453.906v4.625h-1.093v-6.343h1.03zm12.61 6.47q-1.298 0-2.11-.844-.797-.86-.797-2.282v-.187q0-.953.36-1.688.359-.75 1-1.156.656-.422 1.406-.422 1.234 0 1.921.813.688.812.688 2.328v.453h-4.297q.031.937.547 1.516.531.578 1.344.578.562 0 .953-.235.406-.234.719-.625l.656.516q-.797 1.234-2.39 1.234zm-.141-5.688q-.657 0-1.11.484-.437.469-.531 1.328h3.172v-.078q-.047-.828-.453-1.281-.391-.453-1.078-.453zm10.656-2.969v.906h-.203q-1.266.032-2.016.766-.75.719-.875 2.031.688-.765 1.844-.765 1.11 0 1.781.78.672.782.672 2.032 0 1.313-.719 2.11-.719.796-1.937.796-1.22 0-1.985-.937-.75-.953-.75-2.438v-.406q0-2.36 1-3.61t2.985-1.265zm-1.422 3.844q-.563 0-1.031.328-.47.328-.657.844v.39q0 1.063.47 1.703.484.641 1.187.641.734 0 1.156-.531.422-.547.422-1.422 0-.875-.422-1.406-.422-.547-1.125-.547zm9.515 1.047q0 1.906-.656 2.843-.64.922-2.031.922-1.36 0-2.016-.906-.656-.906-.687-2.719v-1.437q0-1.89.64-2.797.657-.922 2.047-.922 1.375 0 2.032.89.656.876.672 2.72v1.406zm-1.093-1.485q0-1.375-.39-2-.376-.64-1.22-.64-.828 0-1.218.64-.375.625-.375 1.922v1.735q0 1.375.39 2.046.407.657 1.219.657.797 0 1.188-.625.39-.625.406-1.953zm2.875 4.563q0-.281.156-.469.172-.187.5-.187.344 0 .516.187.172.188.172.469 0 .265-.172.453-.172.172-.516.172-.328 0-.5-.172-.156-.188-.156-.453zm8.219-3.078q0 1.906-.657 2.843-.64.922-2.031.922-1.36 0-2.016-.906-.656-.906-.687-2.719v-1.437q0-1.89.64-2.797.657-.922 2.047-.922 1.375 0 2.032.89.656.876.672 2.72zm-1.094-1.485q0-1.375-.39-2-.376-.64-1.22-.64-.828 0-1.218.64-.375.625-.375 1.922v1.735q0 1.375.39 2.046.407.657 1.219.657.797 0 1.188-.625.39-.625.406-1.953zm2.875 4.563q0-.281.156-.469.172-.187.5-.187.344 0 .516.187.172.188.172.469 0 .265-.172.453-.172.172-.516.172-.328 0-.5-.172-.156-.188-.156-.453zm4.437-4.235h.813q.781-.015 1.219-.406.437-.39.437-1.062 0-1.5-1.5-1.5-.703 0-1.125.406-.406.406-.406 1.062h-1.094q0-1.015.734-1.687.75-.672 1.891-.672 1.203 0 1.89.64.688.641.688 1.782 0 .562-.36 1.078-.359.516-.984.781.704.22 1.079.735.39.515.39 1.265 0 1.141-.75 1.828-.75.672-1.953.672-1.188 0-1.953-.656-.75-.656-.75-1.719h1.094q0 .672.437 1.078.438.407 1.188.407.78 0 1.187-.407.422-.421.422-1.187 0-.734-.453-1.125-.453-.406-1.328-.422h-.813v-.89zm8.985 4.797h-1.078v-7.218l-2.188.796v-.984l3.11-1.172h.156zm7 0h-1.078v-7.218l-2.188.796v-.984l3.11-1.172h.156zm9.03 0h-5.593v-.78l2.953-3.282q.657-.75.907-1.203.25-.469.25-.969 0-.672-.407-1.094-.39-.437-1.078-.437-.797 0-1.25.468-.453.454-.453 1.282h-1.078q0-1.188.75-1.907.765-.734 2.031-.734 1.203 0 1.89.625.688.625.688 1.672 0 1.25-1.61 3l-2.28 2.469h4.28z" fill="#757575"/><path d="m820.35 147.583a1 1 0 0 1 1-1h10a1 1 0 0 1 1 1v10a1 1 0 0 1 -1 1h-10a1 1 0 0 1 -1-1z" fill="#3d85c6"/><path d="m847.616 154.38q-.157 1.344-1 2.094-.844.734-2.235.734-1.515 0-2.422-1.078-.906-1.094-.906-2.922v-.812q0-1.188.422-2.094.422-.906 1.203-1.39.781-.485 1.797-.485 1.36 0 2.172.766.828.765.969 2.093h-1.125q-.157-1.015-.641-1.468-.484-.453-1.375-.453-1.078 0-1.688.796-.609.797-.609 2.266v.828q0 1.39.578 2.219.578.812 1.625.812.938 0 1.438-.421.5-.438.672-1.485zm2.64-2.875q.719-.875 1.875-.875 2.016 0 2.032 2.266v4.187h-1.094v-4.203q0-.672-.313-1-.297-.328-.953-.328-.531 0-.937.281-.391.282-.61.735v4.515h-1.078v-9h1.078zm8.985.203q-.25-.03-.532-.03-1.078 0-1.453.905v4.5h-1.078v-6.343h1.047l.016.734q.53-.844 1.515-.844.313 0 .485.078zm.64 2.141q0-.922.36-1.672.375-.75 1.03-1.14.657-.407 1.485-.407 1.297 0 2.094.89.813.891.813 2.391v.079q0 .921-.36 1.656-.36.734-1.015 1.156-.657.406-1.516.406-1.281 0-2.094-.89-.797-.907-.797-2.39zm1.094.14q0 1.047.484 1.688.5.64 1.313.64.828 0 1.312-.64.485-.656.485-1.828 0-1.031-.5-1.672-.485-.656-1.313-.656-.797 0-1.297.64-.484.625-.484 1.829zm7.219-3.25.031.704q.688-.813 1.875-.813 1.328 0 1.813 1.016.312-.453.812-.735.516-.28 1.203-.28 2.094 0 2.125 2.202v4.25h-1.078v-4.187q0-.672-.313-1-.312-.344-1.046-.344-.61 0-1.016.36-.39.359-.453.968v4.203h-1.078v-4.156q0-1.375-1.36-1.375-1.062 0-1.453.906v4.625h-1.093v-6.343h1.03zm12.61 6.47q-1.298 0-2.11-.844-.797-.86-.797-2.282v-.187q0-.953.36-1.688.359-.75 1-1.156.656-.422 1.406-.422 1.234 0 1.921.813.688.812.688 2.328v.453h-4.297q.031.937.547 1.516.531.578 1.344.578.562 0 .953-.235.406-.234.719-.625l.656.516q-.797 1.234-2.39 1.234zm-.141-5.688q-.657 0-1.11.484-.437.469-.531 1.328h3.172v-.078q-.047-.828-.453-1.281-.391-.453-1.078-.453zm10.656-2.969v.906h-.203q-1.266.032-2.016.766-.75.719-.875 2.031.688-.765 1.844-.765 1.11 0 1.781.78.672.782.672 2.032 0 1.313-.719 2.11-.719.796-1.937.796-1.22 0-1.985-.937-.75-.953-.75-2.438v-.406q0-2.36 1-3.61t2.985-1.265zm-1.422 3.844q-.563 0-1.031.328-.47.328-.657.844v.39q0 1.063.47 1.703.484.641 1.187.641.734 0 1.156-.531.422-.547.422-1.422 0-.875-.422-1.406-.422-.547-1.125-.547zm7.719 4.687h-1.078v-7.218l-2.188.796v-.984l3.11-1.172h.156zm3.578-.562q0-.281.156-.469.172-.187.5-.187.344 0 .516.187.172.188.172.469 0 .265-.172.453-.172.172-.516.172-.328 0-.5-.172-.156-.188-.156-.453zm8.219-3.078q0 1.906-.657 2.843-.64.922-2.031.922-1.36 0-2.016-.906-.656-.906-.687-2.719v-1.437q0-1.89.64-2.797.657-.922 2.047-.922 1.375 0 2.032.89.656.876.672 2.72zm-1.094-1.485q0-1.375-.39-2-.376-.64-1.22-.64-.828 0-1.218.64-.375.625-.375 1.922v1.735q0 1.375.39 2.046.407.657 1.219.657.797 0 1.188-.625.39-.625.406-1.953zm2.875 4.563q0-.281.156-.469.172-.187.5-.187.344 0 .516.187.172.188.172.469 0 .265-.172.453-.172.172-.516.172-.328 0-.5-.172-.156-.188-.156-.453zm4.437-4.235h.813q.781-.015 1.219-.406.437-.39.437-1.062 0-1.5-1.5-1.5-.703 0-1.125.406-.406.406-.406 1.062h-1.094q0-1.015.734-1.687.75-.672 1.891-.672 1.203 0 1.89.64.688.641.688 1.782 0 .562-.36 1.078-.359.516-.984.781.704.22 1.079.735.39.515.39 1.265 0 1.141-.75 1.828-.75.672-1.953.672-1.188 0-1.953-.656-.75-.656-.75-1.719h1.094q0 .672.437 1.078.438.407 1.188.407.78 0 1.187-.407.422-.421.422-1.187 0-.734-.453-1.125-.453-.406-1.328-.422h-.813v-.89zm8.985 4.797h-1.078v-7.218l-2.188.796v-.984l3.11-1.172h.156zm7.703-8.53v.905h-.203q-1.266.032-2.016.766-.75.719-.875 2.031.688-.765 1.844-.765 1.11 0 1.781.78.672.782.672 2.032 0 1.313-.719 2.11-.719.796-1.937.796-1.22 0-1.985-.937-.75-.953-.75-2.438v-.406q0-2.36 1-3.61t2.985-1.265h.203zm-1.422 3.843q-.563 0-1.031.328-.47.328-.657.844v.39q0 1.063.47 1.703.484.641 1.187.641.734 0 1.156-.531.422-.547.422-1.422 0-.875-.422-1.406-.422-.547-1.125-.547zm5.734-.11h.813q.781-.015 1.219-.406.437-.39.437-1.062 0-1.5-1.5-1.5-.703 0-1.125.406-.406.406-.406 1.062h-1.094q0-1.015.734-1.687.75-.672 1.891-.672 1.203 0 1.89.64.688.641.688 1.782 0 .562-.36 1.078-.359.516-.984.781.704.22 1.079.735.39.515.39 1.265 0 1.141-.75 1.828-.75.672-1.953.672-1.188 0-1.953-.656-.75-.656-.75-1.719h1.094q0 .672.437 1.078.438.407 1.188.407.78 0 1.187-.407.422-.421.422-1.187 0-.734-.453-1.125-.453-.406-1.328-.422h-.813v-.89z" fill="#757575"/><path d="m820.35 172.583a1 1 0 0 1 1-1h10a1 1 0 0 1 1 1v10a1 1 0 0 1 -1 1h-10a1 1 0 0 1 -1-1z" fill="#0b5394"/><path d="m847.616 179.38q-.157 1.344-1 2.094-.844.734-2.235.734-1.515 0-2.422-1.078-.906-1.094-.906-2.922v-.812q0-1.188.422-2.094.422-.906 1.203-1.39.781-.485 1.797-.485 1.36 0 2.172.766.828.765.969 2.093h-1.125q-.157-1.015-.641-1.468-.484-.453-1.375-.453-1.078 0-1.688.796-.609.797-.609 2.266v.828q0 1.39.578 2.219.578.812 1.625.812.938 0 1.438-.421.5-.438.672-1.485zm2.64-2.875q.719-.875 1.875-.875 2.016 0 2.032 2.266v4.187h-1.094v-4.203q0-.672-.313-1-.297-.328-.953-.328-.531 0-.937.281-.391.282-.61.735v4.515h-1.078v-9h1.078zm8.985.203q-.25-.03-.532-.03-1.078 0-1.453.905v4.5h-1.078v-6.343h1.047l.016.734q.53-.844 1.515-.844.313 0 .485.078zm.64 2.141q0-.922.36-1.672.375-.75 1.03-1.14.657-.407 1.485-.407 1.297 0 2.094.89.813.891.813 2.391v.079q0 .921-.36 1.656-.36.734-1.015 1.156-.657.406-1.516.406-1.281 0-2.094-.89-.797-.907-.797-2.39zm1.094.14q0 1.047.484 1.688.5.64 1.313.64.828 0 1.312-.64.485-.656.485-1.828 0-1.031-.5-1.672-.485-.656-1.313-.656-.797 0-1.297.64-.484.625-.484 1.829zm7.219-3.25.031.704q.688-.813 1.875-.813 1.328 0 1.813 1.016.312-.453.812-.735.516-.28 1.203-.28 2.094 0 2.125 2.202v4.25h-1.078v-4.187q0-.672-.313-1-.312-.344-1.046-.344-.61 0-1.016.36-.39.359-.453.968v4.203h-1.078v-4.156q0-1.375-1.36-1.375-1.062 0-1.453.906v4.625h-1.093v-6.343h1.03zm12.61 6.47q-1.298 0-2.11-.844-.797-.86-.797-2.282v-.187q0-.953.36-1.688.359-.75 1-1.156.656-.422 1.406-.422 1.234 0 1.921.813.688.812.688 2.328v.453h-4.297q.031.937.547 1.516.531.578 1.344.578.562 0 .953-.235.406-.234.719-.625l.656.516q-.797 1.234-2.39 1.234zm-.141-5.688q-.657 0-1.11.484-.437.469-.531 1.328h3.172v-.078q-.047-.828-.453-1.281-.391-.453-1.078-.453zm10.656-2.969v.906h-.203q-1.266.032-2.016.766-.75.719-.875 2.031.688-.765 1.844-.765 1.11 0 1.781.78.672.782.672 2.032 0 1.313-.719 2.11-.719.796-1.937.796-1.22 0-1.985-.937-.75-.953-.75-2.438v-.406q0-2.36 1-3.61t2.985-1.265zm-1.422 3.844q-.563 0-1.031.328-.47.328-.657.844v.39q0 1.063.47 1.703.484.641 1.187.641.734 0 1.156-.531.422-.547.422-1.422 0-.875-.422-1.406-.422-.547-1.125-.547zm9.75 4.687h-5.594v-.78l2.953-3.282q.657-.75.907-1.203.25-.47.25-.97 0-.67-.407-1.093-.39-.437-1.078-.437-.797 0-1.25.468-.453.454-.453 1.282h-1.078q0-1.188.75-1.907.765-.734 2.031-.734 1.203 0 1.89.625.688.625.688 1.672 0 1.25-1.61 3l-2.28 2.469h4.28v.89zm1.547-.562q0-.281.156-.469.172-.187.5-.187.344 0 .516.187.172.188.172.469 0 .265-.172.453-.172.172-.516.172-.328 0-.5-.172-.156-.188-.156-.453zm8.219-3.078q0 1.906-.657 2.843-.64.922-2.031.922-1.36 0-2.016-.906-.656-.906-.687-2.719v-1.437q0-1.89.64-2.797.657-.922 2.047-.922 1.375 0 2.032.89.656.876.672 2.72zm-1.094-1.485q0-1.375-.39-2-.376-.64-1.22-.64-.828 0-1.218.64-.375.625-.375 1.922v1.735q0 1.375.39 2.046.407.657 1.219.657.797 0 1.188-.625.39-.625.406-1.953zm2.875 4.563q0-.281.156-.469.172-.187.5-.187.344 0 .516.187.172.188.172.469 0 .265-.172.453-.172.172-.516.172-.328 0-.5-.172-.156-.188-.156-.453zm4.437-4.235h.813q.781-.015 1.219-.406.437-.39.437-1.062 0-1.5-1.5-1.5-.703 0-1.125.406-.406.406-.406 1.062h-1.094q0-1.015.734-1.687.75-.672 1.891-.672 1.203 0 1.89.64.688.641.688 1.782 0 .562-.36 1.078-.359.516-.984.781.704.22 1.079.735.39.515.39 1.265 0 1.141-.75 1.828-.75.672-1.953.672-1.188 0-1.953-.656-.75-.656-.75-1.719h1.094q0 .672.437 1.078.438.407 1.188.407.78 0 1.187-.407.422-.421.422-1.187 0-.734-.453-1.125-.453-.406-1.328-.422h-.813v-.89zm11.016 4.797h-5.594v-.78l2.953-3.282q.657-.75.907-1.203.25-.47.25-.97 0-.67-.407-1.093-.39-.437-1.078-.437-.797 0-1.25.468-.453.454-.453 1.282h-1.078q0-1.188.75-1.907.765-.734 2.031-.734 1.203 0 1.89.625.688.625.688 1.672 0 1.25-1.61 3l-2.28 2.469h4.28v.89zm6.765-3.64q0 1.906-.656 2.843-.64.922-2.031.922-1.36 0-2.016-.906-.656-.906-.687-2.719v-1.437q0-1.89.64-2.797.657-.922 2.047-.922 1.375 0 2.032.89.656.876.672 2.72v1.406zm-1.093-1.485q0-1.375-.39-2-.376-.64-1.22-.64-.828 0-1.218.64-.375.625-.375 1.922v1.735q0 1.375.39 2.046.407.657 1.219.657.797 0 1.188-.625.39-.625.406-1.953zm8.328 5.125h-5.594v-.78l2.953-3.282q.657-.75.907-1.203.25-.47.25-.97 0-.67-.407-1.093-.39-.437-1.078-.437-.797 0-1.25.468-.453.454-.453 1.282h-1.078q0-1.188.75-1.907.765-.734 2.031-.734 1.203 0 1.89.625.688.625.688 1.672 0 1.25-1.61 3l-2.28 2.469h4.28v.89z" fill="#757575"/><path d="m820.35 197.583a1 1 0 0 1 1-1h10a1 1 0 0 1 1 1v10a1 1 0 0 1 -1 1h-10a1 1 0 0 1 -1-1z" fill="#073763"/><path d="m847.616 204.38q-.157 1.344-1 2.094-.844.734-2.235.734-1.515 0-2.422-1.078-.906-1.094-.906-2.922v-.812q0-1.188.422-2.094.422-.906 1.203-1.39.781-.485 1.797-.485 1.36 0 2.172.766.828.765.969 2.093h-1.125q-.157-1.015-.641-1.468-.484-.453-1.375-.453-1.078 0-1.688.796-.609.797-.609 2.266v.828q0 1.39.578 2.219.578.812 1.625.812.938 0 1.438-.421.5-.438.672-1.485zm2.64-2.875q.719-.875 1.875-.875 2.016 0 2.032 2.266v4.187h-1.094v-4.203q0-.672-.313-1-.297-.328-.953-.328-.531 0-.937.281-.391.282-.61.735v4.515h-1.078v-9h1.078zm8.985.203q-.25-.03-.532-.03-1.078 0-1.453.905v4.5h-1.078v-6.343h1.047l.016.734q.53-.844 1.515-.844.313 0 .485.078zm.64 2.141q0-.922.36-1.672.375-.75 1.03-1.14.657-.407 1.485-.407 1.297 0 2.094.89.813.891.813 2.391v.079q0 .921-.36 1.656-.36.734-1.015 1.156-.657.406-1.516.406-1.281 0-2.094-.89-.797-.907-.797-2.39zm1.094.14q0 1.047.484 1.688.5.64 1.313.64.828 0 1.312-.64.485-.656.485-1.828 0-1.031-.5-1.672-.485-.656-1.313-.656-.797 0-1.297.64-.484.625-.484 1.829zm7.219-3.25.031.704q.688-.813 1.875-.813 1.328 0 1.813 1.016.312-.453.812-.735.516-.28 1.203-.28 2.094 0 2.125 2.202v4.25h-1.078v-4.187q0-.672-.313-1-.312-.344-1.046-.344-.61 0-1.016.36-.39.359-.453.968v4.203h-1.078v-4.156q0-1.375-1.36-1.375-1.062 0-1.453.906v4.625h-1.093v-6.343h1.03zm12.61 6.47q-1.298 0-2.11-.844-.797-.86-.797-2.282v-.187q0-.953.36-1.688.359-.75 1-1.156.656-.422 1.406-.422 1.234 0 1.921.813.688.812.688 2.328v.453h-4.297q.031.937.547 1.516.531.578 1.344.578.562 0 .953-.235.406-.234.719-.625l.656.516q-.797 1.234-2.39 1.234zm-.141-5.688q-.657 0-1.11.484-.437.469-.531 1.328h3.172v-.078q-.047-.828-.453-1.281-.391-.453-1.078-.453zm10.656-2.969v.906h-.203q-1.266.032-2.016.766-.75.719-.875 2.031.688-.765 1.844-.765 1.11 0 1.781.78.672.782.672 2.032 0 1.313-.719 2.11-.719.796-1.937.796-1.22 0-1.985-.937-.75-.953-.75-2.438v-.406q0-2.36 1-3.61t2.985-1.265zm-1.422 3.844q-.563 0-1.031.328-.47.328-.657.844v.39q0 1.063.47 1.703.484.641 1.187.641.734 0 1.156-.531.422-.547.422-1.422 0-.875-.422-1.406-.422-.547-1.125-.547zm5.734-.11h.813q.781-.015 1.219-.406.437-.39.437-1.062 0-1.5-1.5-1.5-.703 0-1.125.406-.406.406-.406 1.062h-1.094q0-1.015.734-1.687.75-.672 1.891-.672 1.203 0 1.89.64.688.641.688 1.782 0 .562-.36 1.078-.359.516-.984.781.704.22 1.079.735.39.515.39 1.265 0 1.141-.75 1.828-.75.672-1.953.672-1.188 0-1.953-.656-.75-.656-.75-1.719h1.094q0 .672.437 1.078.438.407 1.188.407.78 0 1.187-.407.422-.421.422-1.187 0-.734-.453-1.125-.453-.406-1.328-.422h-.813v-.89zm5.563 4.235q0-.281.156-.469.172-.187.5-.187.344 0 .516.187.172.188.172.469 0 .265-.172.453-.172.172-.516.172-.328 0-.5-.172-.156-.188-.156-.453zm8.219-3.078q0 1.906-.657 2.843-.64.922-2.031.922-1.36 0-2.016-.906-.656-.906-.687-2.719v-1.437q0-1.89.64-2.797.657-.922 2.047-.922 1.375 0 2.032.89.656.876.672 2.72zm-1.094-1.485q0-1.375-.39-2-.376-.64-1.22-.64-.828 0-1.218.64-.375.625-.375 1.922v1.735q0 1.375.39 2.046.407.657 1.219.657.797 0 1.188-.625.39-.625.406-1.953zm2.875 4.563q0-.281.156-.469.172-.187.5-.187.344 0 .516.187.172.188.172.469 0 .265-.172.453-.172.172-.516.172-.328 0-.5-.172-.156-.188-.156-.453zm4.437-4.235h.813q.781-.015 1.219-.406.437-.39.437-1.062 0-1.5-1.5-1.5-.703 0-1.125.406-.406.406-.406 1.062h-1.094q0-1.015.734-1.687.75-.672 1.891-.672 1.203 0 1.89.64.688.641.688 1.782 0 .562-.36 1.078-.359.516-.984.781.704.22 1.079.735.39.515.39 1.265 0 1.141-.75 1.828-.75.672-1.953.672-1.188 0-1.953-.656-.75-.656-.75-1.719h1.094q0 .672.437 1.078.438.407 1.188.407.78 0 1.187-.407.422-.421.422-1.187 0-.734-.453-1.125-.453-.406-1.328-.422h-.813v-.89zm11.016 4.797h-5.594v-.78l2.953-3.282q.657-.75.907-1.203.25-.47.25-.97 0-.67-.407-1.093-.39-.437-1.078-.437-.797 0-1.25.468-.453.454-.453 1.282h-1.078q0-1.188.75-1.907.765-.734 2.031-.734 1.203 0 1.89.625.688.625.688 1.672 0 1.25-1.61 3l-2.28 2.469h4.28v.89zm2.984-4.797h.813q.781-.015 1.219-.406.437-.39.437-1.062 0-1.5-1.5-1.5-.703 0-1.125.406-.406.406-.406 1.062h-1.094q0-1.015.734-1.687.75-.672 1.891-.672 1.203 0 1.89.64.688.641.688 1.782 0 .562-.36 1.078-.359.516-.984.781.704.22 1.079.735.39.515.39 1.265 0 1.141-.75 1.828-.75.672-1.953.672-1.188 0-1.953-.656-.75-.656-.75-1.719h1.094q0 .672.437 1.078.438.407 1.188.407.78 0 1.187-.407.422-.421.422-1.187 0-.734-.453-1.125-.453-.406-1.328-.422h-.813v-.89zm10.938-3.125-3.531 7.922h-1.141l3.515-7.64h-4.609v-.89h5.766zm-903.419-156.23h-5.953l-1.344 3.719h-1.922l5.422-14.219h1.64l5.438 14.219h-1.921l-1.359-3.719zm-5.39-1.531h4.843l-2.422-6.656zm15.75-.5h-3.33v5.75h-1.89v-14.219h4.703q2.406 0 3.703 1.094 1.297 1.094 1.297 3.188 0 1.328-.719 2.312-.719.984-2 1.469l3.344 6.031v.125h-2.016zm-3.329-1.531h2.875q1.39 0 2.219-.719.828-.734.828-1.938 0-1.328-.797-2.03-.781-.704-2.265-.704h-2.86v5.39zm18.157.703h-6.158v5.047h7.157v1.531h-9.032v-14.219h8.938v1.547h-7.063v4.563h6.157v1.53zm7.156.234q-2.422-.687-3.516-1.687-1.094-1.016-1.094-2.5 0-1.688 1.344-2.782 1.344-1.109 3.485-1.109 1.468 0 2.609.578 1.156.563 1.781 1.563.625.984.625 2.172h-1.875q0-1.282-.828-2.016-.813-.75-2.313-.75-1.39 0-2.171.61-.766.609-.766 1.703 0 .859.734 1.468.735.594 2.5 1.094 1.782.5 2.782 1.11 1 .593 1.484 1.39.484.797.484 1.89 0 1.72-1.343 2.766-1.344 1.047-3.61 1.047-1.453 0-2.734-.562-1.266-.563-1.953-1.532-.688-.984-.688-2.234h1.89q0 1.297.954 2.047.953.734 2.531.734 1.485 0 2.282-.593.796-.61.796-1.657 0-1.047-.734-1.61-.734-.577-2.656-1.14zm11.281 1.047h-4.766v-1.483h4.766v1.484zm9.14-8.937v1.53h-.328q-2.109.048-3.359 1.267-1.25 1.203-1.437 3.406 1.125-1.297 3.062-1.297 1.86 0 2.969 1.312 1.11 1.313 1.11 3.375 0 2.203-1.204 3.532-1.203 1.312-3.203 1.312-2.047 0-3.313-1.562-1.265-1.578-1.265-4.047v-.703q0-3.922 1.672-6t4.984-2.125h.313zm-2.359 6.406q-.937 0-1.718.562-.782.563-1.079 1.391v.672q0 1.75.782 2.828.797 1.078 1.984 1.078 1.219 0 1.906-.89.703-.907.703-2.36 0-1.469-.703-2.375-.703-.906-1.875-.906zm20.39 2.656q0 2.422-1.108 3.906-1.094 1.47-2.985 1.47-1.922 0-3.031-1.235v5.093h-1.797v-14.625h1.64l.094 1.172q1.094-1.375 3.063-1.375 1.906 0 3.016 1.438 1.109 1.437 1.109 4v.156zm-1.812-.203q0-1.781-.765-2.813-.75-1.046-2.078-1.046-1.641 0-2.47 1.453v5.062q.813 1.438 2.485 1.438 1.297 0 2.063-1.032.765-1.03.765-3.062zm8.266 5.578q-2.14 0-3.5-1.406-1.344-1.422-1.344-3.781v-.344q0-1.563.594-2.797.61-1.234 1.688-1.938 1.078-.703 2.343-.703 2.063 0 3.203 1.36 1.141 1.36 1.141 3.89v.75h-7.156q.031 1.563.906 2.532.875.953 2.219.953.969 0 1.625-.39.672-.392 1.172-1.032l1.093.86q-1.328 2.046-3.984 2.046zm-.219-9.484q-1.093 0-1.843.797-.735.797-.907 2.234h5.282v-.14q-.079-1.376-.75-2.126-.657-.765-1.782-.765zm11.938.328q-.406-.063-.875-.063-1.781 0-2.422 1.516v7.5h-1.797v-10.563h1.75l.031 1.22q.89-1.423 2.516-1.423.531 0 .797.141zm2.781 8.953v-9.172h-1.656v-1.39h1.656v-1.094q0-1.688.906-2.61.922-.937 2.578-.937.625 0 1.235.156l-.094 1.469q-.453-.078-.969-.078-.89 0-1.375.515-.469.5-.469 1.453v1.125h2.25v1.391h-2.25v9.172zm5.64-5.375q0-1.563.61-2.797.61-1.25 1.688-1.922 1.093-.672 2.5-.672 2.156 0 3.484 1.5 1.344 1.485 1.344 3.97v.124q0 1.547-.594 2.781-.594 1.22-1.703 1.907-1.094.687-2.516.687-2.14 0-3.484-1.5-1.328-1.5-1.328-3.953v-.125zm1.813.203q0 1.766.813 2.828.828 1.063 2.187 1.063 1.375 0 2.188-1.078.812-1.078.812-3.016 0-1.75-.828-2.828-.828-1.078-2.188-1.078-1.343 0-2.171 1.062-.813 1.063-.813 3.047zm14.766-3.781q-.406-.063-.875-.063-1.781 0-2.422 1.516v7.5h-1.797v-10.563h1.75l.031 1.22q.89-1.423 2.516-1.423.531 0 .797.141zm3.594-1.61.046 1.172q1.172-1.375 3.141-1.375 2.219 0 3.016 1.703.53-.765 1.375-1.234.843-.469 2-.469 3.468 0 3.53 3.688v7.078h-1.812v-6.969q0-1.14-.515-1.703-.516-.562-1.735-.562-1 0-1.671.609-.657.594-.766 1.61v7.015h-1.813v-6.922q0-2.312-2.265-2.312-1.781 0-2.422 1.515v7.719h-1.813v-10.563zm22.827 10.563q-.157-.313-.25-1.11-1.266 1.313-3.016 1.313-1.563 0-2.563-.89-1-.891-1-2.25 0-1.641 1.25-2.547 1.266-.922 3.532-.922h1.765v-.828q0-.953-.578-1.516-.562-.563-1.656-.563-.969 0-1.625.5-.656.485-.656 1.172h-1.813q0-.78.563-1.515.562-.75 1.515-1.172.97-.438 2.125-.438 1.829 0 2.86.922 1.031.907 1.078 2.516v4.86q0 1.452.36 2.312v.156zm-3-1.375q.859 0 1.609-.438.766-.437 1.11-1.14v-2.172h-1.422q-3.313 0-3.313 1.938 0 .859.563 1.343.562.469 1.453.469zm9.187-9.188.063 1.329q1.203-1.532 3.156-1.532 3.36 0 3.375 3.782v6.984h-1.797v-7q-.016-1.14-.531-1.688-.5-.546-1.594-.546-.875 0-1.547.468-.656.47-1.031 1.235v7.531h-1.797v-10.563zm13.531 9.282q.97 0 1.688-.578.719-.594.797-1.47h1.719q-.063.907-.641 1.735-.563.813-1.531 1.313-.953.484-2.032.484-2.156 0-3.437-1.437-1.266-1.453-1.266-3.953v-.297q0-1.547.563-2.75.562-1.203 1.625-1.86 1.062-.672 2.5-.672 1.781 0 2.953 1.063 1.187 1.062 1.266 2.765h-1.72q-.077-1.015-.78-1.671-.688-.672-1.72-.672-1.374 0-2.14 1-.75.984-.75 2.86v.343q0 1.828.75 2.812.75.985 2.156.985zm10.141 1.484q-2.14 0-3.5-1.406-1.344-1.422-1.344-3.781v-.344q0-1.563.594-2.797.61-1.234 1.688-1.938 1.078-.703 2.343-.703 2.063 0 3.203 1.36 1.141 1.36 1.141 3.89v.75h-7.156q.031 1.563.906 2.532.875.953 2.219.953.969 0 1.625-.39.672-.392 1.172-1.032l1.093.86q-1.328 2.046-3.984 2.046zm-.219-9.484q-1.094 0-1.844.797-.734.797-.906 2.234h5.281v-.14q-.078-1.376-.75-2.126-.656-.765-1.78-.765z" fill="#757575"/></svg>