<svg version="1.1" viewBox="0.0 0.0 931.0 404.0" fill="none" stroke="none" stroke-linecap="square" stroke-miterlimit="10" xmlns:xlink="http://www.w3.org/1999/xlink" xmlns="http://www.w3.org/2000/svg"><clipPath id="p.0"><path d="m0 0l931.0 0l0 404.0l-931.0 0l0 -404.0z" clip-rule="nonzero"/></clipPath><g clip-path="url(#p.0)"><path fill="#000000" fill-opacity="0.0" d="m0 0l931.0 0l0 404.0l-931.0 0z" fill-rule="evenodd"/><path fill="#000000" fill-opacity="0.0" d="m541.14044 45.979004l385.57477 0l0 354.61417l-385.57477 0z" fill-rule="evenodd"/><path stroke="#000000" stroke-width="1.0" stroke-linejoin="round" stroke-linecap="butt" d="m541.14044 45.979004l385.57477 0l0 354.61417l-385.57477 0z" fill-rule="evenodd"/><path fill="#cfe2f3" d="m667.2192 65.38389l133.4173 0l0 139.62204l-133.4173 0z" fill-rule="evenodd"/><path stroke="#000000" stroke-width="1.0" stroke-linejoin="round" stroke-linecap="butt" d="m667.2192 65.38389l133.4173 0l0 139.62204l-133.4173 0z" fill-rule="evenodd"/><path fill="#000000" d="m678.64105 88.25553l2.15625 3.59375l2.1875 -3.59375l1.984375 0l-3.234375 4.875l3.328125 4.984375l-1.953125 0l-2.265625 -3.703125l-2.28125 3.703125l-1.96875 0l3.328125 -4.984375l-3.21875 -4.875l1.9375 0zm20.445374 0.984375l0 1.453125l-7.59375 0l0 -1.453125l7.59375 0zm0 3.78125l0 1.453125l-7.59375 0l0 -1.453125l7.59375 0zm12.976074 3.40625l0 -5.078125q0 -0.578125 -0.234375 -1.0q-0.234375 -0.4375 -0.703125 -0.671875q-0.453125 -0.25 -1.140625 -0.25q-0.640625 0 -1.125 0.21875q-0.46875 0.21875 -0.734375 0.578125q-0.265625 0.359375 -0.265625 0.765625l-1.6875 0q0 -0.53125 0.265625 -1.046875q0.28125 -0.515625 0.796875 -0.9375q0.515625 -0.421875 1.234375 -0.671875q0.734375 -0.25 1.625 -0.25q1.0625 0 1.890625 0.359375q0.828125 0.359375 1.296875 1.09375q0.46875 0.734375 0.46875 1.84375l0 4.578125q0 0.5 0.078125 1.0625q0.09375 0.546875 0.265625 0.953125l0 0.140625l-1.75 0q-0.140625 -0.296875 -0.21875 -0.78125q-0.0625 -0.484375 -0.0625 -0.90625zm0.296875 -4.28125l0.015625 1.171875l-1.703125 0q-0.71875 0 -1.28125 0.125q-0.5625 0.109375 -0.953125 0.34375q-0.375 0.21875 -0.578125 0.5625q-0.203125 0.34375 -0.203125 0.796875q0 0.46875 0.203125 0.859375q0.21875 0.375 0.640625 0.59375q0.421875 0.21875 1.046875 0.21875q0.765625 0 1.359375 -0.328125q0.59375 -0.328125 0.9375 -0.796875q0.359375 -0.46875 0.390625 -0.921875l0.71875 0.8125q-0.0625 0.375 -0.359375 0.84375q-0.28125 0.46875 -0.75 0.890625q-0.46875 0.421875 -1.109375 0.703125q-0.640625 0.28125 -1.4375 0.28125q-1.0 0 -1.75 -0.390625q-0.75 -0.390625 -1.171875 -1.046875q-0.40625 -0.671875 -0.40625 -1.484375q0 -0.796875 0.296875 -1.40625q0.3125 -0.609375 0.890625 -1.015625q0.59375 -0.40625 1.40625 -0.609375q0.828125 -0.203125 1.828125 -0.203125l1.96875 0zm17.181824 -1.140625l0 1.578125l-9.09375 0l0 -1.578125l9.09375 0zm-3.6875 -3.875l0 9.65625l-1.6875 0l0 -9.65625l1.6875 0zm10.384766 -3.015625l1.6875 0l0 12.09375l-0.140625 1.90625l-1.546875 0l0 -14.0zm8.34375 8.984375l0 0.203125q0 1.0625 -0.25 1.984375q-0.25 0.921875 -0.75 1.59375q-0.484375 0.671875 -1.203125 1.046875q-0.703125 0.375 -1.625 0.375q-0.9375 0 -1.65625 -0.328125q-0.703125 -0.328125 -1.1875 -0.9375q-0.46875 -0.609375 -0.765625 -1.46875q-0.28125 -0.875 -0.390625 -1.953125l0 -0.84375q0.109375 -1.09375 0.390625 -1.953125q0.296875 -0.859375 0.765625 -1.46875q0.484375 -0.625 1.1875 -0.9375q0.703125 -0.328125 1.640625 -0.328125q0.921875 0 1.640625 0.359375q0.71875 0.359375 1.203125 1.03125q0.5 0.65625 0.75 1.578125q0.25 0.921875 0.25 2.046875zm-1.6875 0.203125l0 -0.203125q0 -0.734375 -0.140625 -1.375q-0.140625 -0.65625 -0.4375 -1.15625q-0.296875 -0.5 -0.796875 -0.78125q-0.484375 -0.296875 -1.203125 -0.296875q-0.640625 0 -1.109375 0.21875q-0.46875 0.21875 -0.796875 0.59375q-0.328125 0.375 -0.53125 0.84375q-0.203125 0.46875 -0.3125 0.96875l0 2.1875q0.15625 0.640625 0.484375 1.234375q0.328125 0.578125 0.890625 0.953125q0.5625 0.375 1.390625 0.375q0.6875 0 1.171875 -0.265625q0.484375 -0.28125 0.78125 -0.765625q0.3125 -0.5 0.453125 -1.140625q0.15625 -0.65625 0.15625 -1.390625z" fill-rule="nonzero"/><path fill="#000000" d="m683.3129 118.42741l0 -5.078125q0 -0.578125 -0.234375 -1.0q-0.234375 -0.4375 -0.703125 -0.671875q-0.453125 -0.25 -1.140625 -0.25q-0.640625 0 -1.125 0.21875q-0.46875 0.21875 -0.734375 0.578125q-0.265625 0.359375 -0.265625 0.765625l-1.6875 0q0 -0.53125 0.265625 -1.046875q0.28125 -0.515625 0.796875 -0.9375q0.515625 -0.421875 1.234375 -0.671875q0.734375 -0.25 1.625 -0.25q1.0625 0 1.890625 0.359375q0.828125 0.359375 1.296875 1.09375q0.46875 0.734375 0.46875 1.84375l0 4.578125q0 0.5 0.078125 1.0625q0.09375 0.546875 0.265625 0.953125l0 0.140625l-1.75 0q-0.140625 -0.296875 -0.21875 -0.78125q-0.0625 -0.484375 -0.0625 -0.90625zm0.296875 -4.28125l0.015625 1.171875l-1.703125 0q-0.71875 0 -1.28125 0.125q-0.5625 0.109375 -0.953125 0.34375q-0.375 0.21875 -0.578125 0.5625q-0.203125 0.34375 -0.203125 0.796875q0 0.46875 0.203125 0.859375q0.21875 0.375 0.640625 0.59375q0.421875 0.21875 1.046875 0.21875q0.765625 0 1.359375 -0.328125q0.59375 -0.328125 0.9375 -0.796875q0.359375 -0.46875 0.390625 -0.921875l0.71875 0.8125q-0.0625 0.375 -0.359375 0.84375q-0.28125 0.46875 -0.75 0.890625q-0.46875 0.421875 -1.109375 0.703125q-0.640625 0.28125 -1.4375 0.28125q-1.0 0 -1.75 -0.390625q-0.75 -0.390625 -1.171875 -1.046875q-0.40625 -0.671875 -0.40625 -1.484375q0 -0.796875 0.296875 -1.40625q0.3125 -0.609375 0.890625 -1.015625q0.59375 -0.40625 1.40625 -0.609375q0.828125 -0.203125 1.828125 -0.203125l1.96875 0zm5.726074 -2.34375l0 8.3125l-1.6875 0l0 -9.859375l1.640625 0l0.046875 1.546875zm3.078125 -1.59375l0 1.5625q-0.21875 -0.046875 -0.40625 -0.0625q-0.1875 -0.015625 -0.421875 -0.015625q-0.578125 0 -1.03125 0.1875q-0.4375 0.1875 -0.75 0.515625q-0.3125 0.328125 -0.5 0.78125q-0.171875 0.4375 -0.21875 0.984375l-0.484375 0.265625q0 -0.890625 0.171875 -1.671875q0.1875 -0.78125 0.5625 -1.390625q0.375 -0.609375 0.953125 -0.9375q0.578125 -0.34375 1.375 -0.34375q0.1875 0 0.421875 0.046875q0.234375 0.03125 0.328125 0.078125zm3.2438965 1.59375l0 8.3125l-1.6875 0l0 -9.859375l1.640625 0l0.046875 1.546875zm3.078125 -1.59375l0 1.5625q-0.21875 -0.046875 -0.40625 -0.0625q-0.1875 -0.015625 -0.421875 -0.015625q-0.578125 0 -1.03125 0.1875q-0.4375 0.1875 -0.75 0.515625q-0.3125 0.328125 -0.5 0.78125q-0.171875 0.4375 -0.21875 0.984375l-0.484375 0.265625q0 -0.890625 0.171875 -1.671875q0.1875 -0.78125 0.5625 -1.390625q0.375 -0.609375 0.953125 -0.9375q0.578125 -0.34375 1.375 -0.34375q0.1875 0 0.421875 0.046875q0.234375 0.03125 0.328125 0.078125zm5.0407104 -5.25l0 1.375l-1.734375 0l0 15.234375l1.734375 0l0 1.390625l-3.421875 0l0 -18.0l3.421875 0zm2.6027222 5.296875l2.15625 3.59375l2.1875 -3.59375l1.984375 0l-3.234375 4.875l3.328125 4.984375l-1.953125 0l-2.265625 -3.703125l-2.28125 3.703125l-1.96875 0l3.328125 -4.984375l-3.21875 -4.875l1.9375 0zm6.927124 -3.921875l0 -1.375l3.4375 0l0 18.0l-3.4375 0l0 -1.390625l1.75 0l0 -15.234375l-1.75 0zm18.464722 4.90625l0 1.453125l-7.59375 0l0 -1.453125l7.59375 0zm0 3.78125l0 1.453125l-7.59375 0l0 -1.453125l7.59375 0zm15.944824 0.625l0 1.390625l-9.578125 0l0 -1.0l5.9375 -9.1875l1.375 0l-1.46875 2.65625l-3.9375 6.140625l7.671875 0zm-1.84375 -8.796875l0 13.265625l-1.6875 0l0 -13.265625l1.6875 0zm12.06311 11.875l0 1.390625l-8.6875 0l0 -1.21875l4.34375 -4.828125q0.8125 -0.890625 1.25 -1.515625q0.4375 -0.625 0.609375 -1.125q0.1875 -0.5 0.1875 -1.015625q0 -0.65625 -0.28125 -1.1875q-0.265625 -0.53125 -0.78125 -0.84375q-0.515625 -0.328125 -1.25 -0.328125q-0.890625 0 -1.484375 0.34375q-0.578125 0.34375 -0.875 0.953125q-0.28125 0.609375 -0.28125 1.40625l-1.6875 0q0 -1.125 0.484375 -2.046875q0.5 -0.9375 1.453125 -1.484375q0.96875 -0.5625 2.390625 -0.5625q1.25 0 2.140625 0.453125q0.890625 0.4375 1.375 1.234375q0.484375 0.796875 0.484375 1.859375q0 0.59375 -0.203125 1.1875q-0.1875 0.59375 -0.53125 1.1875q-0.34375 0.59375 -0.796875 1.171875q-0.453125 0.5625 -0.953125 1.125l-3.5625 3.84375l6.65625 0z" fill-rule="nonzero"/><path fill="#000000" d="m680.26605 141.09927l2.75 -8.84375l1.796875 0l-3.953125 11.375q-0.125 0.375 -0.359375 0.796875q-0.21875 0.421875 -0.5625 0.796875q-0.34375 0.390625 -0.84375 0.625q-0.484375 0.25 -1.15625 0.25q-0.203125 0 -0.515625 -0.0625q-0.296875 -0.046875 -0.421875 -0.09375l-0.015625 -1.359375q0.078125 0.015625 0.234375 0.015625q0.15625 0.015625 0.21875 0.015625q0.578125 0 0.96875 -0.15625q0.40625 -0.140625 0.6875 -0.5q0.28125 -0.34375 0.484375 -0.953125l0.6875 -1.90625zm-2.0 -8.84375l2.546875 7.65625l0.4375 1.78125l-1.203125 0.609375l-3.625 -10.046875l1.84375 0zm20.392212 0.984375l0 1.453125l-7.59375 0l0 -1.453125l7.59375 0zm0 3.78125l0 1.453125l-7.59375 0l0 -1.453125l7.59375 0zm8.304199 -4.765625l2.15625 3.59375l2.1875 -3.59375l1.984375 0l-3.234375 4.875l3.328125 4.984375l-1.953125 0l-2.265625 -3.703125l-2.28125 3.703125l-1.96875 0l3.328125 -4.984375l-3.21875 -4.875l1.9375 0zm12.632874 3.40625l1.828125 -2.515625l-2.75 -0.8125l0.4375 -1.375l2.75 1.015625l-0.078125 -3.125l1.375 0l-0.09375 3.1875l2.71875 -1.015625l0.421875 1.390625l-2.796875 0.828125l1.796875 2.46875l-1.140625 0.84375l-1.671875 -2.625l-1.65625 2.5625l-1.140625 -0.828125zm16.72467 5.25q0.59375 0 1.09375 -0.234375q0.515625 -0.25 0.84375 -0.6875q0.328125 -0.4375 0.375 -0.984375l1.609375 0q-0.046875 0.875 -0.59375 1.625q-0.53125 0.75 -1.40625 1.21875q-0.875 0.453125 -1.921875 0.453125q-1.109375 0 -1.9375 -0.390625q-0.828125 -0.390625 -1.375 -1.078125q-0.53125 -0.6875 -0.8125 -1.578125q-0.265625 -0.890625 -0.265625 -1.875l0 -0.390625q0 -0.984375 0.265625 -1.875q0.28125 -0.890625 0.8125 -1.5625q0.546875 -0.6875 1.375 -1.078125q0.828125 -0.390625 1.9375 -0.390625q1.15625 0 2.015625 0.46875q0.859375 0.46875 1.359375 1.28125q0.5 0.796875 0.546875 1.8125l-1.609375 0q-0.046875 -0.609375 -0.34375 -1.09375q-0.28125 -0.5 -0.796875 -0.796875q-0.5 -0.296875 -1.171875 -0.296875q-0.78125 0 -1.3125 0.3125q-0.515625 0.296875 -0.828125 0.8125q-0.296875 0.515625 -0.4375 1.140625q-0.125 0.625 -0.125 1.265625l0 0.390625q0 0.640625 0.125 1.28125q0.125 0.625 0.421875 1.140625q0.3125 0.5 0.84375 0.8125q0.53125 0.296875 1.3125 0.296875z" fill-rule="nonzero"/><path fill="#000000" d="m684.8442 162.72427l0 1.390625l-7.171875 0l0 -1.390625l7.171875 0zm-0.265625 -7.265625l-6.515625 8.65625l-1.03125 0l0 -1.234375l6.46875 -8.625l1.078125 0l0 1.203125zm-0.75 -1.203125l0 1.390625l-6.71875 0l0 -1.390625l6.71875 0zm15.257874 0.984375l0 1.453125l-7.59375 0l0 -1.453125l7.59375 0zm0 3.78125l0 1.453125l-7.59375 0l0 -1.453125l7.59375 0zm12.976074 3.40625l0 -5.078125q0 -0.578125 -0.234375 -1.0q-0.234375 -0.4375 -0.703125 -0.671875q-0.453125 -0.25 -1.140625 -0.25q-0.640625 0 -1.125 0.21875q-0.46875 0.21875 -0.734375 0.578125q-0.265625 0.359375 -0.265625 0.765625l-1.6875 0q0 -0.53125 0.265625 -1.046875q0.28125 -0.515625 0.796875 -0.9375q0.515625 -0.421875 1.234375 -0.671875q0.734375 -0.25 1.625 -0.25q1.0625 0 1.890625 0.359375q0.828125 0.359375 1.296875 1.09375q0.46875 0.734375 0.46875 1.84375l0 4.578125q0 0.5 0.078125 1.0625q0.09375 0.546875 0.265625 0.953125l0 0.140625l-1.75 0q-0.140625 -0.296875 -0.21875 -0.78125q-0.0625 -0.484375 -0.0625 -0.90625zm0.296875 -4.28125l0.015625 1.171875l-1.703125 0q-0.71875 0 -1.28125 0.125q-0.5625 0.109375 -0.953125 0.34375q-0.375 0.21875 -0.578125 0.5625q-0.203125 0.34375 -0.203125 0.796875q0 0.46875 0.203125 0.859375q0.21875 0.375 0.640625 0.59375q0.421875 0.21875 1.046875 0.21875q0.765625 0 1.359375 -0.328125q0.59375 -0.328125 0.9375 -0.796875q0.359375 -0.46875 0.390625 -0.921875l0.71875 0.8125q-0.0625 0.375 -0.359375 0.84375q-0.28125 0.46875 -0.75 0.890625q-0.46875 0.421875 -1.109375 0.703125q-0.640625 0.28125 -1.4375 0.28125q-1.0 0 -1.75 -0.390625q-0.75 -0.390625 -1.171875 -1.046875q-0.40625 -0.671875 -0.40625 -1.484375q0 -0.796875 0.296875 -1.40625q0.3125 -0.609375 0.890625 -1.015625q0.59375 -0.40625 1.40625 -0.609375q0.828125 -0.203125 1.828125 -0.203125l1.96875 0zm5.726074 -2.34375l0 8.3125l-1.6875 0l0 -9.859375l1.640625 0l0.046875 1.546875zm3.078125 -1.59375l0 1.5625q-0.21875 -0.046875 -0.40625 -0.0625q-0.1875 -0.015625 -0.421875 -0.015625q-0.578125 0 -1.03125 0.1875q-0.4375 0.1875 -0.75 0.515625q-0.3125 0.328125 -0.5 0.78125q-0.171875 0.4375 -0.21875 0.984375l-0.484375 0.265625q0 -0.890625 0.171875 -1.671875q0.1875 -0.78125 0.5625 -1.390625q0.375 -0.609375 0.953125 -0.9375q0.578125 -0.34375 1.375 -0.34375q0.1875 0 0.421875 0.046875q0.234375 0.03125 0.328125 0.078125zm3.2438965 1.59375l0 8.3125l-1.6875 0l0 -9.859375l1.640625 0l0.046875 1.546875zm3.078125 -1.59375l0 1.5625q-0.21875 -0.046875 -0.40625 -0.0625q-0.1875 -0.015625 -0.421875 -0.015625q-0.578125 0 -1.03125 0.1875q-0.4375 0.1875 -0.75 0.515625q-0.3125 0.328125 -0.5 0.78125q-0.171875 0.4375 -0.21875 0.984375l-0.484375 0.265625q0 -0.890625 0.171875 -1.671875q0.1875 -0.78125 0.5625 -1.390625q0.375 -0.609375 0.953125 -0.9375q0.578125 -0.34375 1.375 -0.34375q0.1875 0 0.421875 0.046875q0.234375 0.03125 0.328125 0.078125zm5.0407104 -5.25l0 1.375l-1.734375 0l0 15.234375l1.734375 0l0 1.390625l-3.421875 0l0 -18.0l3.421875 0zm9.602722 7.46875l0 2.015625q0 1.640625 -0.296875 2.765625q-0.28125 1.109375 -0.828125 1.796875q-0.546875 0.6875 -1.3125 1.0q-0.765625 0.296875 -1.734375 0.296875q-0.765625 0 -1.421875 -0.1875q-0.640625 -0.203125 -1.15625 -0.625q-0.515625 -0.421875 -0.875 -1.09375q-0.359375 -0.6875 -0.5625 -1.65625q-0.1875 -0.984375 -0.1875 -2.296875l0 -2.015625q0 -1.625 0.296875 -2.734375q0.296875 -1.109375 0.84375 -1.765625q0.546875 -0.671875 1.3125 -0.96875q0.765625 -0.296875 1.734375 -0.296875q0.765625 0 1.421875 0.1875q0.65625 0.1875 1.15625 0.59375q0.515625 0.40625 0.875 1.078125q0.359375 0.671875 0.546875 1.640625q0.1875 0.96875 0.1875 2.265625zm-1.6875 2.296875l0 -2.578125q0 -0.890625 -0.109375 -1.5625q-0.09375 -0.6875 -0.296875 -1.171875q-0.203125 -0.484375 -0.515625 -0.78125q-0.296875 -0.296875 -0.703125 -0.4375q-0.390625 -0.140625 -0.875 -0.140625q-0.609375 0 -1.078125 0.21875q-0.453125 0.21875 -0.78125 0.703125q-0.3125 0.484375 -0.484375 1.265625q-0.15625 0.78125 -0.15625 1.90625l0 2.578125q0 0.890625 0.109375 1.578125q0.109375 0.671875 0.3125 1.171875q0.21875 0.5 0.515625 0.828125q0.296875 0.3125 0.6875 0.46875q0.40625 0.140625 0.890625 0.140625q0.609375 0 1.078125 -0.234375q0.46875 -0.234375 0.78125 -0.734375q0.3125 -0.515625 0.46875 -1.3125q0.15625 -0.796875 0.15625 -1.90625zm2.8444214 -8.390625l0 -1.375l3.4375 0l0 18.0l-3.4375 0l0 -1.390625l1.75 0l0 -15.234375l-1.75 0z" fill-rule="nonzero"/><path fill="#000000" d="m682.4848 179.91177l-3.359375 0l-0.015625 -1.40625l3.046875 0q0.765625 0 1.328125 -0.25q0.5625 -0.265625 0.875 -0.734375q0.3125 -0.484375 0.3125 -1.15625q0 -0.71875 -0.28125 -1.171875q-0.28125 -0.46875 -0.84375 -0.6875q-0.5625 -0.21875 -1.4375 -0.21875l-2.59375 0l0 11.828125l-1.75 0l0 -13.265625l4.34375 0q1.015625 0 1.8125 0.203125q0.8125 0.203125 1.359375 0.640625q0.5625 0.4375 0.859375 1.109375q0.296875 0.65625 0.296875 1.578125q0 0.828125 -0.421875 1.484375q-0.421875 0.65625 -1.171875 1.078125q-0.734375 0.421875 -1.734375 0.546875l-0.625 0.421875zm-0.078125 6.203125l-3.96875 0l0.984375 -1.4375l2.984375 0q0.828125 0 1.421875 -0.28125q0.59375 -0.296875 0.890625 -0.828125q0.3125 -0.53125 0.3125 -1.265625q0 -0.734375 -0.265625 -1.265625q-0.25 -0.546875 -0.828125 -0.828125q-0.5625 -0.296875 -1.453125 -0.296875l-2.5 0l0.015625 -1.40625l3.421875 0l0.375 0.5q0.953125 0.09375 1.609375 0.546875q0.671875 0.453125 1.015625 1.171875q0.359375 0.703125 0.359375 1.5625q0 1.234375 -0.546875 2.09375q-0.53125 0.84375 -1.515625 1.296875q-0.984375 0.4375 -2.3125 0.4375zm8.404968 -8.3125l0 8.3125l-1.6875 0l0 -9.859375l1.640625 0l0.046875 1.546875zm3.078125 -1.59375l0 1.5625q-0.21875 -0.046875 -0.40625 -0.0625q-0.1875 -0.015625 -0.421875 -0.015625q-0.578125 0 -1.03125 0.1875q-0.4375 0.1875 -0.75 0.515625q-0.3125 0.328125 -0.5 0.78125q-0.171875 0.4375 -0.21875 0.984375l-0.484375 0.265625q0 -0.890625 0.171875 -1.671875q0.1875 -0.78125 0.5625 -1.390625q0.375 -0.609375 0.953125 -0.9375q0.578125 -0.34375 1.375 -0.34375q0.1875 0 0.421875 0.046875q0.234375 0.03125 0.328125 0.078125zm7.0042725 8.21875l0 -5.078125q0 -0.578125 -0.234375 -1.0q-0.234375 -0.4375 -0.703125 -0.671875q-0.453125 -0.25 -1.140625 -0.25q-0.640625 0 -1.125 0.21875q-0.46875 0.21875 -0.734375 0.578125q-0.265625 0.359375 -0.265625 0.765625l-1.6875 0q0 -0.53125 0.265625 -1.046875q0.28125 -0.515625 0.796875 -0.9375q0.515625 -0.421875 1.234375 -0.671875q0.734375 -0.25 1.625 -0.25q1.0625 0 1.890625 0.359375q0.828125 0.359375 1.296875 1.09375q0.46875 0.734375 0.46875 1.84375l0 4.578125q0 0.5 0.078125 1.0625q0.09375 0.546875 0.265625 0.953125l0 0.140625l-1.75 0q-0.140625 -0.296875 -0.21875 -0.78125q-0.0625 -0.484375 -0.0625 -0.90625zm0.296875 -4.28125l0.015625 1.171875l-1.703125 0q-0.71875 0 -1.28125 0.125q-0.5625 0.109375 -0.953125 0.34375q-0.375 0.21875 -0.578125 0.5625q-0.203125 0.34375 -0.203125 0.796875q0 0.46875 0.203125 0.859375q0.21875 0.375 0.640625 0.59375q0.421875 0.21875 1.046875 0.21875q0.765625 0 1.359375 -0.328125q0.59375 -0.328125 0.9375 -0.796875q0.359375 -0.46875 0.390625 -0.921875l0.71875 0.8125q-0.0625 0.375 -0.359375 0.84375q-0.28125 0.46875 -0.75 0.890625q-0.46875 0.421875 -1.109375 0.703125q-0.640625 0.28125 -1.4375 0.28125q-1.0 0 -1.75 -0.390625q-0.75 -0.390625 -1.171875 -1.046875q-0.40625 -0.671875 -0.40625 -1.484375q0 -0.796875 0.296875 -1.40625q0.3125 -0.609375 0.890625 -1.015625q0.59375 -0.40625 1.40625 -0.609375q0.828125 -0.203125 1.828125 -0.203125l1.96875 0zm5.726074 -1.78125l0 7.75l-1.6875 0l0 -9.859375l1.59375 0l0.09375 2.109375zm-0.40625 2.453125l-0.6875 -0.03125q0 -1.015625 0.28125 -1.875q0.296875 -0.859375 0.828125 -1.5q0.53125 -0.640625 1.265625 -0.984375q0.734375 -0.34375 1.625 -0.34375q0.734375 0 1.3125 0.203125q0.578125 0.1875 0.984375 0.609375q0.421875 0.421875 0.640625 1.109375q0.21875 0.671875 0.21875 1.65625l0 6.453125l-1.6875 0l0 -6.484375q0 -0.765625 -0.234375 -1.234375q-0.21875 -0.46875 -0.65625 -0.6875q-0.4375 -0.21875 -1.078125 -0.21875q-0.625 0 -1.140625 0.265625q-0.515625 0.265625 -0.890625 0.734375q-0.359375 0.46875 -0.578125 1.0625q-0.203125 0.59375 -0.203125 1.265625zm12.974731 4.09375q0.59375 0 1.09375 -0.234375q0.515625 -0.25 0.84375 -0.6875q0.328125 -0.4375 0.375 -0.984375l1.609375 0q-0.046875 0.875 -0.59375 1.625q-0.53125 0.75 -1.40625 1.21875q-0.875 0.453125 -1.921875 0.453125q-1.109375 0 -1.9375 -0.390625q-0.828125 -0.390625 -1.375 -1.078125q-0.53125 -0.6875 -0.8125 -1.578125q-0.265625 -0.890625 -0.265625 -1.875l0 -0.390625q0 -0.984375 0.265625 -1.875q0.28125 -0.890625 0.8125 -1.5625q0.546875 -0.6875 1.375 -1.078125q0.828125 -0.390625 1.9375 -0.390625q1.15625 0 2.015625 0.46875q0.859375 0.46875 1.359375 1.28125q0.5 0.796875 0.546875 1.8125l-1.609375 0q-0.046875 -0.609375 -0.34375 -1.09375q-0.28125 -0.5 -0.796875 -0.796875q-0.5 -0.296875 -1.171875 -0.296875q-0.78125 0 -1.3125 0.3125q-0.515625 0.296875 -0.828125 0.8125q-0.296875 0.515625 -0.4375 1.140625q-0.125 0.625 -0.125 1.265625l0 0.390625q0 0.640625 0.125 1.28125q0.125 0.625 0.421875 1.140625q0.3125 0.5 0.84375 0.8125q0.53125 0.296875 1.3125 0.296875zm7.499756 -12.796875l0 14.0l-1.6875 0l0 -14.0l1.6875 0zm-0.40625 8.703125l-0.6875 -0.03125q0 -1.015625 0.28125 -1.875q0.296875 -0.859375 0.828125 -1.5q0.53125 -0.640625 1.265625 -0.984375q0.734375 -0.34375 1.625 -0.34375q0.734375 0 1.3125 0.203125q0.578125 0.1875 0.984375 0.609375q0.421875 0.421875 0.640625 1.109375q0.21875 0.671875 0.21875 1.65625l0 6.453125l-1.6875 0l0 -6.484375q0 -0.765625 -0.234375 -1.234375q-0.21875 -0.46875 -0.65625 -0.6875q-0.4375 -0.21875 -1.078125 -0.21875q-0.625 0 -1.140625 0.265625q-0.515625 0.265625 -0.890625 0.734375q-0.359375 0.46875 -0.578125 1.0625q-0.203125 0.59375 -0.203125 1.265625zm8.931763 0l0 -0.09375q0 -1.984375 0.4375 -3.59375q0.453125 -1.609375 1.140625 -2.8125q0.703125 -1.21875 1.46875 -2.015625q0.765625 -0.796875 1.40625 -1.15625l0.359375 1.109375q-0.53125 0.40625 -1.09375 1.140625q-0.546875 0.71875 -1.015625 1.765625q-0.453125 1.046875 -0.734375 2.4375q-0.28125 1.375 -0.28125 3.109375l0 0.125q0 1.734375 0.28125 3.125q0.28125 1.375 0.734375 2.4375q0.46875 1.0625 1.015625 1.796875q0.5625 0.75 1.09375 1.1875l-0.359375 1.015625q-0.640625 -0.359375 -1.40625 -1.15625q-0.765625 -0.796875 -1.46875 -2.0q-0.6875 -1.203125 -1.140625 -2.8125q-0.4375 -1.625 -0.4375 -3.609375zm10.401367 4.09375q0.59375 0 1.09375 -0.234375q0.515625 -0.25 0.84375 -0.6875q0.328125 -0.4375 0.375 -0.984375l1.609375 0q-0.046875 0.875 -0.59375 1.625q-0.53125 0.75 -1.40625 1.21875q-0.875 0.453125 -1.921875 0.453125q-1.109375 0 -1.9375 -0.390625q-0.828125 -0.390625 -1.375 -1.078125q-0.53125 -0.6875 -0.8125 -1.578125q-0.265625 -0.890625 -0.265625 -1.875l0 -0.390625q0 -0.984375 0.265625 -1.875q0.28125 -0.890625 0.8125 -1.5625q0.546875 -0.6875 1.375 -1.078125q0.828125 -0.390625 1.9375 -0.390625q1.15625 0 2.015625 0.46875q0.859375 0.46875 1.359375 1.28125q0.5 0.796875 0.546875 1.8125l-1.609375 0q-0.046875 -0.609375 -0.34375 -1.09375q-0.28125 -0.5 -0.796875 -0.796875q-0.5 -0.296875 -1.171875 -0.296875q-0.78125 0 -1.3125 0.3125q-0.515625 0.296875 -0.828125 0.8125q-0.296875 0.515625 -0.4375 1.140625q-0.125 0.625 -0.125 1.265625l0 0.390625q0 0.640625 0.125 1.28125q0.125 0.625 0.421875 1.140625q0.3125 0.5 0.84375 0.8125q0.53125 0.296875 1.3125 0.296875zm9.702881 -4.1875l0 0.09375q0 1.984375 -0.453125 3.609375q-0.453125 1.609375 -1.140625 2.8125q-0.6875 1.203125 -1.453125 2.0q-0.765625 0.796875 -1.421875 1.15625l-0.34375 -1.015625q0.53125 -0.421875 1.078125 -1.15625q0.546875 -0.71875 1.015625 -1.796875q0.46875 -1.0625 0.75 -2.453125q0.28125 -1.40625 0.28125 -3.140625l0 -0.125q0 -1.734375 -0.3125 -3.125q-0.296875 -1.40625 -0.78125 -2.46875q-0.46875 -1.0625 -1.015625 -1.796875q-0.53125 -0.734375 -1.015625 -1.140625l0.34375 -1.03125q0.65625 0.359375 1.421875 1.15625q0.765625 0.796875 1.453125 2.015625q0.6875 1.203125 1.140625 2.8125q0.453125 1.609375 0.453125 3.59375z" fill-rule="nonzero"/><path fill="#cfe2f3" d="m559.8018 291.20602l133.41736 0l0 75.653564l-133.41736 0z" fill-rule="evenodd"/><path stroke="#000000" stroke-width="1.0" stroke-linejoin="round" stroke-linecap="butt" d="m559.8018 291.20602l133.41736 0l0 75.653564l-133.41736 0z" fill-rule="evenodd"/><path fill="#000000" d="m590.00244 322.6872l4.390625 0q1.484375 0 2.515625 0.453125q1.03125 0.453125 1.578125 1.34375q0.546875 0.890625 0.546875 2.1875q0 0.90625 -0.375 1.65625q-0.359375 0.75 -1.046875 1.28125q-0.6875 0.515625 -1.65625 0.78125l-0.484375 0.1875l-4.125 0l-0.015625 -1.4375l3.109375 0q0.953125 0 1.578125 -0.328125q0.625 -0.328125 0.9375 -0.890625q0.328125 -0.5625 0.328125 -1.25q0 -0.765625 -0.3125 -1.34375q-0.296875 -0.578125 -0.9375 -0.890625q-0.640625 -0.3125 -1.640625 -0.3125l-2.640625 0l0 11.828125l-1.75 0l0 -13.265625zm7.75 13.265625l-3.234375 -6.015625l1.828125 0l3.28125 5.90625l0 0.109375l-1.875 0zm7.574341 0.1875q-1.03125 0 -1.875 -0.34375q-0.828125 -0.359375 -1.421875 -1.0q-0.59375 -0.640625 -0.921875 -1.515625q-0.3125 -0.875 -0.3125 -1.90625l0 -0.390625q0 -1.203125 0.359375 -2.140625q0.359375 -0.9375 0.96875 -1.59375q0.609375 -0.65625 1.375 -0.984375q0.78125 -0.34375 1.609375 -0.34375q1.0625 0 1.828125 0.359375q0.765625 0.359375 1.25 1.015625q0.5 0.65625 0.734375 1.53125q0.234375 0.875 0.234375 1.921875l0 0.75l-7.359375 0l0 -1.375l5.6875 0l0 -0.125q-0.046875 -0.65625 -0.28125 -1.28125q-0.234375 -0.625 -0.734375 -1.015625q-0.5 -0.40625 -1.359375 -0.40625q-0.578125 0 -1.0625 0.25q-0.484375 0.234375 -0.828125 0.71875q-0.34375 0.46875 -0.53125 1.15625q-0.1875 0.671875 -0.1875 1.5625l0 0.390625q0 0.703125 0.1875 1.3125q0.203125 0.609375 0.578125 1.078125q0.375 0.46875 0.90625 0.734375q0.546875 0.265625 1.25 0.265625q0.890625 0 1.5 -0.359375q0.625 -0.375 1.09375 -0.984375l1.015625 0.8125q-0.3125 0.484375 -0.8125 0.921875q-0.484375 0.4375 -1.203125 0.71875q-0.71875 0.265625 -1.6875 0.265625zm9.924133 -10.046875l0 1.296875l-5.328125 0l0 -1.296875l5.328125 0zm-3.515625 -2.390625l1.6875 0l0 9.8125q0 0.5 0.140625 0.75q0.15625 0.25 0.40625 0.34375q0.25 0.078125 0.53125 0.078125q0.203125 0 0.4375 -0.03125q0.234375 -0.046875 0.359375 -0.078125l0 1.375q-0.203125 0.0625 -0.53125 0.125q-0.3125 0.0625 -0.765625 0.0625q-0.625 0 -1.140625 -0.25q-0.515625 -0.25 -0.828125 -0.828125q-0.296875 -0.578125 -0.296875 -1.5625l0 -9.796875zm11.525269 9.96875l0 -7.578125l1.703125 0l0 9.859375l-1.625 0l-0.078125 -2.28125zm0.328125 -2.078125l0.6875 -0.015625q0 0.984375 -0.203125 1.828125q-0.203125 0.828125 -0.65625 1.4375q-0.453125 0.609375 -1.203125 0.953125q-0.734375 0.34375 -1.78125 0.34375q-0.71875 0 -1.328125 -0.203125q-0.59375 -0.21875 -1.015625 -0.65625q-0.421875 -0.4375 -0.65625 -1.140625q-0.234375 -0.703125 -0.234375 -1.6875l0 -6.359375l1.6875 0l0 6.375q0 0.671875 0.140625 1.109375q0.15625 0.421875 0.40625 0.671875q0.265625 0.25 0.59375 0.359375q0.328125 0.09375 0.671875 0.09375q1.078125 0 1.703125 -0.40625q0.625 -0.421875 0.90625 -1.125q0.28125 -0.703125 0.28125 -1.578125zm5.612732 -3.953125l0 8.3125l-1.6875 0l0 -9.859375l1.640625 0l0.046875 1.546875zm3.078125 -1.59375l0 1.5625q-0.21875 -0.046875 -0.40625 -0.0625q-0.1875 -0.015625 -0.421875 -0.015625q-0.578125 0 -1.03125 0.1875q-0.4375 0.1875 -0.75 0.515625q-0.3125 0.328125 -0.5 0.78125q-0.171875 0.4375 -0.21875 0.984375l-0.484375 0.265625q0 -0.890625 0.171875 -1.671875q0.1875 -0.78125 0.5625 -1.390625q0.375 -0.609375 0.953125 -0.9375q0.578125 -0.34375 1.375 -0.34375q0.1875 0 0.421875 0.046875q0.234375 0.03125 0.328125 0.078125zm3.2438354 2.15625l0 7.75l-1.6875 0l0 -9.859375l1.59375 0l0.09375 2.109375zm-0.40625 2.453125l-0.6875 -0.03125q0 -1.015625 0.28125 -1.875q0.296875 -0.859375 0.828125 -1.5q0.53125 -0.640625 1.265625 -0.984375q0.734375 -0.34375 1.625 -0.34375q0.734375 0 1.3125 0.203125q0.578125 0.1875 0.984375 0.609375q0.421875 0.421875 0.640625 1.109375q0.21875 0.671875 0.21875 1.65625l0 6.453125l-1.6875 0l0 -6.484375q0 -0.765625 -0.234375 -1.234375q-0.21875 -0.46875 -0.65625 -0.6875q-0.4375 -0.21875 -1.078125 -0.21875q-0.625 0 -1.140625 0.265625q-0.515625 0.265625 -0.890625 0.734375q-0.359375 0.46875 -0.578125 1.0625q-0.203125 0.59375 -0.203125 1.265625zm8.959106 0l0 -0.09375q0 -1.984375 0.4375 -3.59375q0.453125 -1.609375 1.140625 -2.8125q0.703125 -1.21875 1.46875 -2.015625q0.765625 -0.796875 1.40625 -1.15625l0.359375 1.109375q-0.53125 0.40625 -1.09375 1.140625q-0.546875 0.71875 -1.015625 1.765625q-0.453125 1.046875 -0.734375 2.4375q-0.28125 1.375 -0.28125 3.109375l0 0.125q0 1.734375 0.28125 3.125q0.28125 1.375 0.734375 2.4375q0.46875 1.0625 1.015625 1.796875q0.5625 0.75 1.09375 1.1875l-0.359375 1.015625q-0.640625 -0.359375 -1.40625 -1.15625q-0.765625 -0.796875 -1.46875 -2.0q-0.6875 -1.203125 -1.140625 -2.8125q-0.4375 -1.625 -0.4375 -3.609375zm9.213867 4.28125l2.75 -8.84375l1.796875 0l-3.953125 11.375q-0.125 0.375 -0.359375 0.796875q-0.21875 0.421875 -0.5625 0.796875q-0.34375 0.390625 -0.84375 0.625q-0.484375 0.25 -1.15625 0.25q-0.203125 0 -0.515625 -0.0625q-0.296875 -0.046875 -0.421875 -0.09375l-0.015625 -1.359375q0.078125 0.015625 0.234375 0.015625q0.15625 0.015625 0.21875 0.015625q0.578125 0 0.96875 -0.15625q0.40625 -0.140625 0.6875 -0.5q0.28125 -0.34375 0.484375 -0.953125l0.6875 -1.90625zm-2.0 -8.84375l2.546875 7.65625l0.4375 1.78125l-1.203125 0.609375l-3.625 -10.046875l1.84375 0zm11.952148 4.46875l0 0.09375q0 1.984375 -0.453125 3.609375q-0.453125 1.609375 -1.140625 2.8125q-0.6875 1.203125 -1.453125 2.0q-0.765625 0.796875 -1.421875 1.15625l-0.34375 -1.015625q0.53125 -0.421875 1.078125 -1.15625q0.546875 -0.71875 1.015625 -1.796875q0.46875 -1.0625 0.75 -2.453125q0.28125 -1.40625 0.28125 -3.140625l0 -0.125q0 -1.734375 -0.3125 -3.125q-0.296875 -1.40625 -0.78125 -2.46875q-0.46875 -1.0625 -1.015625 -1.796875q-0.53125 -0.734375 -1.015625 -1.140625l0.34375 -1.03125q0.65625 0.359375 1.421875 1.15625q0.765625 0.796875 1.453125 2.015625q0.6875 1.203125 1.140625 2.8125q0.453125 1.609375 0.453125 3.59375z" fill-rule="nonzero"/><path fill="#cfe2f3" d="m768.33203 291.20602l133.4173 0l0 75.653564l-133.4173 0z" fill-rule="evenodd"/><path stroke="#000000" stroke-width="1.0" stroke-linejoin="round" stroke-linecap="butt" d="m768.33203 291.20602l133.4173 0l0 75.653564l-133.4173 0z" fill-rule="evenodd"/><path fill="#000000" d="m798.31854 322.6872l4.390625 0q1.484375 0 2.515625 0.453125q1.03125 0.453125 1.578125 1.34375q0.546875 0.890625 0.546875 2.1875q0 0.90625 -0.375 1.65625q-0.359375 0.75 -1.046875 1.28125q-0.6875 0.515625 -1.65625 0.78125l-0.484375 0.1875l-4.125 0l-0.015625 -1.4375l3.109375 0q0.953125 0 1.578125 -0.328125q0.625 -0.328125 0.9375 -0.890625q0.328125 -0.5625 0.328125 -1.25q0 -0.765625 -0.3125 -1.34375q-0.296875 -0.578125 -0.9375 -0.890625q-0.640625 -0.3125 -1.640625 -0.3125l-2.640625 0l0 11.828125l-1.75 0l0 -13.265625zm7.75 13.265625l-3.234375 -6.015625l1.828125 0l3.28125 5.90625l0 0.109375l-1.875 0zm7.574341 0.1875q-1.03125 0 -1.875 -0.34375q-0.828125 -0.359375 -1.421875 -1.0q-0.59375 -0.640625 -0.921875 -1.515625q-0.3125 -0.875 -0.3125 -1.90625l0 -0.390625q0 -1.203125 0.359375 -2.140625q0.359375 -0.9375 0.96875 -1.59375q0.609375 -0.65625 1.375 -0.984375q0.78125 -0.34375 1.609375 -0.34375q1.0625 0 1.828125 0.359375q0.765625 0.359375 1.25 1.015625q0.5 0.65625 0.734375 1.53125q0.234375 0.875 0.234375 1.921875l0 0.75l-7.359375 0l0 -1.375l5.6875 0l0 -0.125q-0.046875 -0.65625 -0.28125 -1.28125q-0.234375 -0.625 -0.734375 -1.015625q-0.5 -0.40625 -1.359375 -0.40625q-0.578125 0 -1.0625 0.25q-0.484375 0.234375 -0.828125 0.71875q-0.34375 0.46875 -0.53125 1.15625q-0.1875 0.671875 -0.1875 1.5625l0 0.390625q0 0.703125 0.1875 1.3125q0.203125 0.609375 0.578125 1.078125q0.375 0.46875 0.90625 0.734375q0.546875 0.265625 1.25 0.265625q0.890625 0 1.5 -0.359375q0.625 -0.375 1.09375 -0.984375l1.015625 0.8125q-0.3125 0.484375 -0.8125 0.921875q-0.484375 0.4375 -1.203125 0.71875q-0.71875 0.265625 -1.6875 0.265625zm9.924133 -10.046875l0 1.296875l-5.328125 0l0 -1.296875l5.328125 0zm-3.515625 -2.390625l1.6875 0l0 9.8125q0 0.5 0.140625 0.75q0.15625 0.25 0.40625 0.34375q0.25 0.078125 0.53125 0.078125q0.203125 0 0.4375 -0.03125q0.234375 -0.046875 0.359375 -0.078125l0 1.375q-0.203125 0.0625 -0.53125 0.125q-0.3125 0.0625 -0.765625 0.0625q-0.625 0 -1.140625 -0.25q-0.515625 -0.25 -0.828125 -0.828125q-0.296875 -0.578125 -0.296875 -1.5625l0 -9.796875zm11.525269 9.96875l0 -7.578125l1.703125 0l0 9.859375l-1.625 0l-0.078125 -2.28125zm0.328125 -2.078125l0.6875 -0.015625q0 0.984375 -0.203125 1.828125q-0.203125 0.828125 -0.65625 1.4375q-0.453125 0.609375 -1.203125 0.953125q-0.734375 0.34375 -1.78125 0.34375q-0.71875 0 -1.328125 -0.203125q-0.59375 -0.21875 -1.015625 -0.65625q-0.421875 -0.4375 -0.65625 -1.140625q-0.234375 -0.703125 -0.234375 -1.6875l0 -6.359375l1.6875 0l0 6.375q0 0.671875 0.140625 1.109375q0.15625 0.421875 0.40625 0.671875q0.265625 0.25 0.59375 0.359375q0.328125 0.09375 0.671875 0.09375q1.078125 0 1.703125 -0.40625q0.625 -0.421875 0.90625 -1.125q0.28125 -0.703125 0.28125 -1.578125zm5.612732 -3.953125l0 8.3125l-1.6875 0l0 -9.859375l1.640625 0l0.046875 1.546875zm3.078125 -1.59375l0 1.5625q-0.21875 -0.046875 -0.40625 -0.0625q-0.1875 -0.015625 -0.421875 -0.015625q-0.578125 0 -1.03125 0.1875q-0.4375 0.1875 -0.75 0.515625q-0.3125 0.328125 -0.5 0.78125q-0.171875 0.4375 -0.21875 0.984375l-0.484375 0.265625q0 -0.890625 0.171875 -1.671875q0.1875 -0.78125 0.5625 -1.390625q0.375 -0.609375 0.953125 -0.9375q0.578125 -0.34375 1.375 -0.34375q0.1875 0 0.421875 0.046875q0.234375 0.03125 0.328125 0.078125zm3.2438965 2.15625l0 7.75l-1.6875 0l0 -9.859375l1.59375 0l0.09375 2.109375zm-0.40625 2.453125l-0.6875 -0.03125q0 -1.015625 0.28125 -1.875q0.296875 -0.859375 0.828125 -1.5q0.53125 -0.640625 1.265625 -0.984375q0.734375 -0.34375 1.625 -0.34375q0.734375 0 1.3125 0.203125q0.578125 0.1875 0.984375 0.609375q0.421875 0.421875 0.640625 1.109375q0.21875 0.671875 0.21875 1.65625l0 6.453125l-1.6875 0l0 -6.484375q0 -0.765625 -0.234375 -1.234375q-0.21875 -0.46875 -0.65625 -0.6875q-0.4375 -0.21875 -1.078125 -0.21875q-0.625 0 -1.140625 0.265625q-0.515625 0.265625 -0.890625 0.734375q-0.359375 0.46875 -0.578125 1.0625q-0.203125 0.59375 -0.203125 1.265625zm8.959045 0l0 -0.09375q0 -1.984375 0.4375 -3.59375q0.453125 -1.609375 1.140625 -2.8125q0.703125 -1.21875 1.46875 -2.015625q0.765625 -0.796875 1.40625 -1.15625l0.359375 1.109375q-0.53125 0.40625 -1.09375 1.140625q-0.546875 0.71875 -1.015625 1.765625q-0.453125 1.046875 -0.734375 2.4375q-0.28125 1.375 -0.28125 3.109375l0 0.125q0 1.734375 0.28125 3.125q0.28125 1.375 0.734375 2.4375q0.46875 1.0625 1.015625 1.796875q0.5625 0.75 1.09375 1.1875l-0.359375 1.015625q-0.640625 -0.359375 -1.40625 -1.15625q-0.765625 -0.796875 -1.46875 -2.0q-0.6875 -1.203125 -1.140625 -2.8125q-0.4375 -1.625 -0.4375 -3.609375zm13.792053 3.90625l0 1.390625l-7.171875 0l0 -1.390625l7.171875 0zm-0.265625 -7.265625l-6.515625 8.65625l-1.03125 0l0 -1.234375l6.46875 -8.625l1.078125 0l0 1.203125zm-0.75 -1.203125l0 1.390625l-6.71875 0l0 -1.390625l6.71875 0zm6.817749 4.46875l0 0.09375q0 1.984375 -0.453125 3.609375q-0.453125 1.609375 -1.140625 2.8125q-0.6875 1.203125 -1.453125 2.0q-0.765625 0.796875 -1.421875 1.15625l-0.34375 -1.015625q0.53125 -0.421875 1.078125 -1.15625q0.546875 -0.71875 1.015625 -1.796875q0.46875 -1.0625 0.75 -2.453125q0.28125 -1.40625 0.28125 -3.140625l0 -0.125q0 -1.734375 -0.3125 -3.125q-0.296875 -1.40625 -0.78125 -2.46875q-0.46875 -1.0625 -1.015625 -1.796875q-0.53125 -0.734375 -1.015625 -1.140625l0.34375 -1.03125q0.65625 0.359375 1.421875 1.15625q0.765625 0.796875 1.453125 2.015625q0.6875 1.203125 1.140625 2.8125q0.453125 1.609375 0.453125 3.59375z" fill-rule="nonzero"/><path fill="#000000" fill-opacity="0.0" d="m733.9278 205.00594l-107.40155 86.20473" fill-rule="evenodd"/><path stroke="#000000" stroke-width="1.0" stroke-linejoin="round" stroke-linecap="butt" d="m733.9278 205.00592l-102.72235 82.449036" fill-rule="evenodd"/><path fill="#000000" stroke="#000000" stroke-width="1.0" stroke-linecap="butt" d="m630.1715 286.16684l-2.505188 4.128723l4.572998 -1.5524902z" fill-rule="evenodd"/><path fill="#000000" fill-opacity="0.0" d="m733.9278 205.00594l101.10242 86.20473" fill-rule="evenodd"/><path stroke="#000000" stroke-width="1.0" stroke-linejoin="round" stroke-linecap="butt" d="m733.9278 205.00592l96.53668 82.31183" fill-rule="evenodd"/><path fill="#000000" stroke="#000000" stroke-width="1.0" stroke-linecap="butt" d="m829.3928 288.57462l4.5249634 1.6875305l-2.3815918 -4.2012634z" fill-rule="evenodd"/><path fill="#000000" fill-opacity="0.0" d="m619.59186 218.30577l57.07086 0l0 42.015762l-57.07086 0z" fill-rule="evenodd"/><path fill="#000000" d="m633.9981 235.3664l0 1.296875l-5.328125 0l0 -1.296875l5.328125 0zm-3.515625 -2.390625l1.6875 0l0 9.8125q0 0.5 0.140625 0.75q0.15625 0.25 0.40625 0.34375q0.25 0.078125 0.53125 0.078125q0.203125 0 0.4375 -0.03125q0.234375 -0.046875 0.359375 -0.078125l0 1.375q-0.203125 0.0625 -0.53125 0.125q-0.3125 0.0625 -0.765625 0.0625q-0.625 0 -1.140625 -0.25q-0.515625 -0.25 -0.828125 -0.828125q-0.296875 -0.578125 -0.296875 -1.5625l0 -9.796875zm7.1815186 3.9375l0 8.3125l-1.6875 0l0 -9.859375l1.640625 0l0.046875 1.546875zm3.078125 -1.59375l0 1.5625q-0.21875 -0.046875 -0.40625 -0.0625q-0.1875 -0.015625 -0.421875 -0.015625q-0.578125 0 -1.03125 0.1875q-0.4375 0.1875 -0.75 0.515625q-0.3125 0.328125 -0.5 0.78125q-0.171875 0.4375 -0.21875 0.984375l-0.484375 0.265625q0 -0.890625 0.171875 -1.671875q0.1875 -0.78125 0.5625 -1.390625q0.375 -0.609375 0.953125 -0.9375q0.578125 -0.34375 1.375 -0.34375q0.1875 0 0.421875 0.046875q0.234375 0.03125 0.328125 0.078125zm7.5875854 7.625l0 -7.578125l1.703125 0l0 9.859375l-1.625 0l-0.078125 -2.28125zm0.328125 -2.078125l0.6875 -0.015625q0 0.984375 -0.203125 1.828125q-0.203125 0.828125 -0.65625 1.4375q-0.453125 0.609375 -1.203125 0.953125q-0.734375 0.34375 -1.78125 0.34375q-0.71875 0 -1.328125 -0.203125q-0.59375 -0.21875 -1.015625 -0.65625q-0.421875 -0.4375 -0.65625 -1.140625q-0.234375 -0.703125 -0.234375 -1.6875l0 -6.359375l1.6875 0l0 6.375q0 0.671875 0.140625 1.109375q0.15625 0.421875 0.40625 0.671875q0.265625 0.25 0.59375 0.359375q0.328125 0.09375 0.671875 0.09375q1.078125 0 1.703125 -0.40625q0.625 -0.421875 0.90625 -1.125q0.28125 -0.703125 0.28125 -1.578125zm8.018982 4.546875q-1.03125 0 -1.875 -0.34375q-0.828125 -0.359375 -1.421875 -1.0q-0.59375 -0.640625 -0.921875 -1.515625q-0.3125 -0.875 -0.3125 -1.90625l0 -0.390625q0 -1.203125 0.359375 -2.140625q0.359375 -0.9375 0.96875 -1.59375q0.609375 -0.65625 1.375 -0.984375q0.78125 -0.34375 1.609375 -0.34375q1.0625 0 1.828125 0.359375q0.765625 0.359375 1.25 1.015625q0.5 0.65625 0.734375 1.53125q0.234375 0.875 0.234375 1.921875l0 0.75l-7.359375 0l0 -1.375l5.6875 0l0 -0.125q-0.046875 -0.65625 -0.28125 -1.28125q-0.234375 -0.625 -0.734375 -1.015625q-0.5 -0.40625 -1.359375 -0.40625q-0.578125 0 -1.0625 0.25q-0.484375 0.234375 -0.828125 0.71875q-0.34375 0.46875 -0.53125 1.15625q-0.1875 0.671875 -0.1875 1.5625l0 0.390625q0 0.703125 0.1875 1.3125q0.203125 0.609375 0.578125 1.078125q0.375 0.46875 0.90625 0.734375q0.546875 0.265625 1.25 0.265625q0.890625 0 1.5 -0.359375q0.625 -0.375 1.09375 -0.984375l1.015625 0.8125q-0.3125 0.484375 -0.8125 0.921875q-0.484375 0.4375 -1.203125 0.71875q-0.71875 0.265625 -1.6875 0.265625z" fill-rule="nonzero"/><path fill="#000000" fill-opacity="0.0" d="m788.0302 218.30577l70.39368 0l0 42.015762l-70.39368 0z" fill-rule="evenodd"/><path fill="#000000" d="m800.8271 245.22577l-1.6875 0l0 -10.890625q0 -1.0625 0.390625 -1.796875q0.390625 -0.734375 1.109375 -1.109375q0.734375 -0.390625 1.734375 -0.390625q0.296875 0 0.59375 0.046875q0.296875 0.03125 0.578125 0.109375l-0.09375 1.375q-0.1875 -0.046875 -0.4375 -0.0625q-0.234375 -0.03125 -0.46875 -0.03125q-0.546875 0 -0.9375 0.21875q-0.375 0.21875 -0.578125 0.625q-0.203125 0.40625 -0.203125 1.015625l0 10.890625zm2.09375 -9.859375l0 1.296875l-5.328125 0l0 -1.296875l5.328125 0zm7.689087 8.171875l0 -5.078125q0 -0.578125 -0.234375 -1.0q-0.234375 -0.4375 -0.703125 -0.671875q-0.453125 -0.25 -1.140625 -0.25q-0.640625 0 -1.125 0.21875q-0.46875 0.21875 -0.734375 0.578125q-0.265625 0.359375 -0.265625 0.765625l-1.6875 0q0 -0.53125 0.265625 -1.046875q0.28125 -0.515625 0.796875 -0.9375q0.515625 -0.421875 1.234375 -0.671875q0.734375 -0.25 1.625 -0.25q1.0625 0 1.890625 0.359375q0.828125 0.359375 1.296875 1.09375q0.46875 0.734375 0.46875 1.84375l0 4.578125q0 0.5 0.078125 1.0625q0.09375 0.546875 0.265625 0.953125l0 0.140625l-1.75 0q-0.140625 -0.296875 -0.21875 -0.78125q-0.0625 -0.484375 -0.0625 -0.90625zm0.296875 -4.28125l0.015625 1.171875l-1.703125 0q-0.71875 0 -1.28125 0.125q-0.5625 0.109375 -0.953125 0.34375q-0.375 0.21875 -0.578125 0.5625q-0.203125 0.34375 -0.203125 0.796875q0 0.46875 0.203125 0.859375q0.21875 0.375 0.640625 0.59375q0.421875 0.21875 1.046875 0.21875q0.765625 0 1.359375 -0.328125q0.59375 -0.328125 0.9375 -0.796875q0.359375 -0.46875 0.390625 -0.921875l0.71875 0.8125q-0.0625 0.375 -0.359375 0.84375q-0.28125 0.46875 -0.75 0.890625q-0.46875 0.421875 -1.109375 0.703125q-0.640625 0.28125 -1.4375 0.28125q-1.0 0 -1.75 -0.390625q-0.75 -0.390625 -1.171875 -1.046875q-0.40625 -0.671875 -0.40625 -1.484375q0 -0.796875 0.296875 -1.40625q0.3125 -0.609375 0.890625 -1.015625q0.59375 -0.40625 1.40625 -0.609375q0.828125 -0.203125 1.828125 -0.203125l1.96875 0zm5.866699 -8.03125l0 14.0l-1.6875 0l0 -14.0l1.6875 0zm8.44281 11.390625q0 -0.375 -0.15625 -0.6875q-0.15625 -0.3125 -0.640625 -0.5625q-0.484375 -0.265625 -1.46875 -0.453125q-0.8125 -0.171875 -1.484375 -0.40625q-0.65625 -0.25 -1.125 -0.578125q-0.453125 -0.34375 -0.703125 -0.796875q-0.234375 -0.453125 -0.234375 -1.0625q0 -0.59375 0.25 -1.109375q0.265625 -0.515625 0.734375 -0.90625q0.484375 -0.40625 1.15625 -0.625q0.6875 -0.234375 1.515625 -0.234375q1.1875 0 2.015625 0.421875q0.84375 0.40625 1.28125 1.109375q0.453125 0.6875 0.453125 1.546875l-1.6875 0q0 -0.421875 -0.25 -0.796875q-0.234375 -0.390625 -0.703125 -0.640625q-0.453125 -0.265625 -1.109375 -0.265625q-0.703125 0 -1.140625 0.21875q-0.4375 0.21875 -0.640625 0.546875q-0.1875 0.328125 -0.1875 0.6875q0 0.265625 0.09375 0.484375q0.109375 0.21875 0.34375 0.390625q0.25 0.171875 0.6875 0.328125q0.453125 0.15625 1.15625 0.3125q1.203125 0.28125 1.984375 0.671875q0.78125 0.375 1.15625 0.9375q0.390625 0.546875 0.390625 1.34375q0 0.640625 -0.265625 1.1875q-0.265625 0.53125 -0.78125 0.921875q-0.5 0.375 -1.203125 0.59375q-0.6875 0.21875 -1.546875 0.21875q-1.3125 0 -2.21875 -0.46875q-0.890625 -0.46875 -1.359375 -1.203125q-0.46875 -0.734375 -0.46875 -1.5625l1.703125 0q0.03125 0.703125 0.390625 1.109375q0.375 0.390625 0.890625 0.5625q0.53125 0.171875 1.0625 0.171875q0.6875 0 1.15625 -0.171875q0.46875 -0.1875 0.703125 -0.5q0.25 -0.328125 0.25 -0.734375zm7.988098 2.796875q-1.03125 0 -1.875 -0.34375q-0.828125 -0.359375 -1.421875 -1.0q-0.59375 -0.640625 -0.921875 -1.515625q-0.3125 -0.875 -0.3125 -1.90625l0 -0.390625q0 -1.203125 0.359375 -2.140625q0.359375 -0.9375 0.96875 -1.59375q0.609375 -0.65625 1.375 -0.984375q0.78125 -0.34375 1.609375 -0.34375q1.0625 0 1.828125 0.359375q0.765625 0.359375 1.25 1.015625q0.5 0.65625 0.734375 1.53125q0.234375 0.875 0.234375 1.921875l0 0.75l-7.359375 0l0 -1.375l5.6875 0l0 -0.125q-0.046875 -0.65625 -0.28125 -1.28125q-0.234375 -0.625 -0.734375 -1.015625q-0.5 -0.40625 -1.359375 -0.40625q-0.578125 0 -1.0625 0.25q-0.484375 0.234375 -0.828125 0.71875q-0.34375 0.46875 -0.53125 1.15625q-0.1875 0.671875 -0.1875 1.5625l0 0.390625q0 0.703125 0.1875 1.3125q0.203125 0.609375 0.578125 1.078125q0.375 0.46875 0.90625 0.734375q0.546875 0.265625 1.25 0.265625q0.890625 0 1.5 -0.359375q0.625 -0.375 1.09375 -0.984375l1.015625 0.8125q-0.3125 0.484375 -0.8125 0.921875q-0.484375 0.4375 -1.203125 0.71875q-0.71875 0.265625 -1.6875 0.265625z" fill-rule="nonzero"/><path fill="#000000" fill-opacity="0.0" d="m4.2847767 45.422573l236.37796 0l0 42.01575l-236.37796 0z" fill-rule="evenodd"/><path fill="#000000" d="m13.816027 68.54569l1.59375 -0.21875q0.078125 1.53125 0.578125 2.109375q0.515625 0.5625 1.421875 0.5625q0.65625 0 1.140625 -0.296875q0.484375 -0.3125 0.65625 -0.828125q0.1875 -0.53125 0.1875 -1.6875l0 -9.203121l1.765625 0l0 9.109371q0 1.671875 -0.40625 2.59375q-0.40625 0.921875 -1.28125 1.40625q-0.875 0.484375 -2.0625 0.484375q-1.75 0 -2.6875 -1.015625q-0.9375 -1.015625 -0.90625 -3.015625zm16.34375 2.609375q-0.921875 0.765625 -1.765625 1.09375q-0.828125 0.3125 -1.796875 0.3125q-1.59375 0 -2.453125 -0.78125q-0.859375 -0.78125 -0.859375 -1.984375q0 -0.71875 0.328125 -1.296875q0.328125 -0.59375 0.84375 -0.9375q0.53125 -0.359375 1.1875 -0.546875q0.46875 -0.125 1.453125 -0.25q1.984375 -0.234375 2.921875 -0.5625q0.015625 -0.34375 0.015625 -0.421875q0 -1.0 -0.46875 -1.421875q-0.625 -0.5468712 -1.875 -0.5468712q-1.15625 0 -1.703125 0.4062462q-0.546875 0.40625 -0.8125 1.421875l-1.609375 -0.21875q0.21875 -1.015625 0.71875 -1.6406212q0.5 -0.640625 1.453125 -0.984375q0.953125 -0.34375 2.1875 -0.34375q1.25 0 2.015625 0.296875q0.78125 0.28125 1.140625 0.734375q0.375 0.4375 0.515625 1.1093712q0.078125 0.421875 0.078125 1.515625l0 2.1875q0 2.28125 0.109375 2.890625q0.109375 0.59375 0.4062519 1.15625l-1.7031269 0q-0.265625 -0.515625 -0.328125 -1.1875zm-0.140625 -3.671875q-0.890625 0.375 -2.671875 0.625q-1.015625 0.140625 -1.4375 0.328125q-0.421875 0.1875 -0.65625 0.53125q-0.21875 0.34375 -0.21875 0.78125q0 0.65625 0.5 1.09375q0.5 0.4375 1.453125 0.4375q0.9375 0 1.671875 -0.40625q0.75 -0.421875 1.09375 -1.140625q0.265625 -0.5625 0.265625 -1.640625l0 -0.609375zm6.891344 4.859375l-3.6875 -9.671871l1.734375 0l2.078125 5.796871q0.328125 0.9375 0.625 1.9375q0.203125 -0.765625 0.609375 -1.828125l2.140625 -5.906246l1.6875 0l-3.65625 9.671871l-1.53125 0zm12.953125 -1.1875q-0.921875 0.765625 -1.765625 1.09375q-0.828125 0.3125 -1.796875 0.3125q-1.59375 0 -2.453125 -0.78125q-0.859375 -0.78125 -0.859375 -1.984375q0 -0.71875 0.328125 -1.296875q0.328125 -0.59375 0.84375 -0.9375q0.53125 -0.359375 1.1875 -0.546875q0.46875 -0.125 1.453125 -0.25q1.984375 -0.234375 2.921875 -0.5625q0.015625 -0.34375 0.015625 -0.421875q0 -1.0 -0.46875 -1.421875q-0.625 -0.5468712 -1.875 -0.5468712q-1.15625 0 -1.703125 0.4062462q-0.546875 0.40625 -0.8125 1.421875l-1.609375 -0.21875q0.21875 -1.015625 0.71875 -1.6406212q0.5 -0.640625 1.453125 -0.984375q0.953125 -0.34375 2.1875 -0.34375q1.25 0 2.015625 0.296875q0.78125 0.28125 1.140625 0.734375q0.375 0.4375 0.515625 1.1093712q0.078125 0.421875 0.078125 1.515625l0 2.1875q0 2.28125 0.109375 2.890625q0.109375 0.59375 0.40625 1.15625l-1.703125 0q-0.265625 -0.515625 -0.328125 -1.1875zm-0.140625 -3.671875q-0.890625 0.375 -2.671875 0.625q-1.015625 0.140625 -1.4375 0.328125q-0.421875 0.1875 -0.65625 0.53125q-0.21875 0.34375 -0.21875 0.78125q0 0.65625 0.5 1.09375q0.5 0.4375 1.453125 0.4375q0.9375 0 1.671875 -0.40625q0.75 -0.421875 1.09375 -1.140625q0.265625 -0.5625 0.265625 -1.640625l0 -0.609375zm3.8132172 0.5625l1.65625 -0.140625q0.125 1.0 0.546875 1.640625q0.4375 0.640625 1.34375 1.046875q0.921875 0.390625 2.0625 0.390625q1.0 0 1.78125 -0.296875q0.78125 -0.296875 1.15625 -0.8125q0.375 -0.53125 0.375 -1.15625q0 -0.625 -0.375 -1.09375q-0.359375 -0.46875 -1.1875 -0.796875q-0.546875 -0.203125 -2.390625 -0.640625q-1.828125 -0.453125 -2.5625 -0.84375q-0.96875 -0.5 -1.4375 -1.234375q-0.46875 -0.7499962 -0.46875 -1.6718712q0 -1.0 0.578125 -1.875q0.578125 -0.890625 1.671875 -1.34375q1.109375 -0.453125 2.453125 -0.453125q1.484375 0 2.609375 0.484375q1.140625 0.46875 1.75 1.40625q0.609375 0.921875 0.65625 2.09375l-1.6875 0.125q-0.140625 -1.265625 -0.9375 -1.90625q-0.78125 -0.65625 -2.3125 -0.65625q-1.609375 0 -2.34375 0.59375q-0.734375 0.59375 -0.734375 1.421875q0 0.71875 0.53125 1.171875q0.5 0.46875 2.65625 0.9687462q2.15625 0.484375 2.953125 0.84375q1.171875 0.53125 1.71875 1.359375q0.5624962 0.828125 0.5624962 1.90625q0 1.0625 -0.6093712 2.015625q-0.609375 0.9375 -1.75 1.46875q-1.140625 0.515625 -2.578125 0.515625q-1.8125 0 -3.046875 -0.53125q-1.21875 -0.53125 -1.921875 -1.59375q-0.6875 -1.0625 -0.71875 -2.40625zm19.146694 0.75l1.609375 0.21875q-0.265625 1.65625 -1.359375 2.609375q-1.078125 0.9375 -2.671875 0.9375q-1.984375 0 -3.1875 -1.296875q-1.203125 -1.296875 -1.203125 -3.71875q0 -1.578125 0.515625 -2.75q0.515625 -1.1718712 1.578125 -1.7499962q1.0625 -0.59375 2.3125 -0.59375q1.578125 0 2.578125 0.796875q1.0 0.7968712 1.28125 2.2656212l-1.59375 0.234375q-0.234375 -0.96875 -0.8125 -1.453125q-0.578125 -0.4999962 -1.390625 -0.4999962q-1.234375 0 -2.015625 0.8906212q-0.78125 0.890625 -0.78125 2.8125q0 1.953125 0.75 2.84375q0.75 0.875 1.953125 0.875q0.96875 0 1.609375 -0.59375q0.65625 -0.59375 0.828125 -1.828125zm3.0 3.546875l0 -9.671871l1.46875 0l0 1.4687462q0.5625 -1.0312462 1.03125 -1.3593712q0.484375 -0.328125 1.0625 -0.328125q0.828125 0 1.6875 0.53125l-0.5625 1.5156212q-0.609375 -0.359375 -1.203125 -0.359375q-0.546875 0 -0.96875 0.328125q-0.421875 0.328125 -0.609375 0.890625q-0.28125 0.875 -0.28125 1.921875l0 5.0625l-1.625 0zm6.228302 -11.468746l0 -1.890625l1.640625 0l0 1.890625l-1.640625 0zm0 11.468746l0 -9.671871l1.640625 0l0 9.671871l-1.640625 0zm4.144821 3.703125l0 -13.374996l1.484375 0l0 1.25q0.53125 -0.734375 1.1875 -1.09375q0.671875 -0.375 1.625 -0.375q1.234375 0 2.171875 0.640625q0.953125 0.625 1.4375 1.7968712q0.484375 1.15625 0.484375 2.546875q0 1.484375 -0.53125 2.671875q-0.53125 1.1875 -1.546875 1.828125q-1.015625 0.625 -2.140625 0.625q-0.8125 0 -1.46875 -0.34375q-0.65625 -0.34375 -1.0625 -0.875l0 4.703125l-1.640625 0zm1.484375 -8.484375q0 1.859375 0.75 2.765625q0.765625 0.890625 1.828125 0.890625q1.09375 0 1.875 -0.921875q0.78125 -0.9375 0.78125 -2.875q0 -1.84375 -0.765625 -2.765625q-0.75 -0.9218712 -1.8125 -0.9218712q-1.046875 0 -1.859375 0.9843712q-0.796875 0.96875 -0.796875 2.84375zm12.469467 3.3125l0.234375 1.453125q-0.6875 0.140625 -1.234375 0.140625q-0.890625 0 -1.390625 -0.28125q-0.484375 -0.28125 -0.6875 -0.734375q-0.203125 -0.46875 -0.203125 -1.9375l0 -5.578121l-1.203125 0l0 -1.265625l1.203125 0l0 -2.390625l1.625 -0.984375l0 3.375l1.65625 0l0 1.265625l-1.65625 0l0 5.671871q0 0.6875 0.078125 0.890625q0.09375 0.203125 0.28125 0.328125q0.203125 0.109375 0.578125 0.109375q0.265625 0 0.71875 -0.0625z" fill-rule="nonzero"/><path fill="#000000" fill-opacity="0.0" d="m551.6522 3.406824l236.37799 0l0 42.015747l-236.37799 0z" fill-rule="evenodd"/><path fill="#000000" d="m571.621 25.639322l1.765625 0.453125q-0.5625 2.171875 -2.0 3.328125q-1.4375 1.140625 -3.53125 1.140625q-2.15625 0 -3.515625 -0.875q-1.34375 -0.890625 -2.0625 -2.546875q-0.703125 -1.671875 -0.703125 -3.59375q0 -2.078125 0.796875 -3.625q0.796875 -1.5625 2.265625 -2.359375q1.484375 -0.8125 3.25 -0.8125q2.0 0 3.359375 1.015625q1.375 1.015625 1.90625 2.875l-1.734375 0.40625q-0.46875 -1.453125 -1.359375 -2.109375q-0.875 -0.671875 -2.203125 -0.671875q-1.546875 0 -2.578125 0.734375q-1.03125 0.734375 -1.453125 1.984375q-0.421875 1.234375 -0.421875 2.5625q0 1.703125 0.5 2.96875q0.5 1.265625 1.546875 1.90625q1.046875 0.625 2.265625 0.625q1.484375 0 2.515625 -0.859375q1.03125 -0.859375 1.390625 -2.546875zm4.0354614 4.6875l0 -13.359375l9.015625 0l0 1.578125l-7.25 0l0 4.140625l6.265625 0l0 1.578125l-6.265625 0l0 6.0625l-1.765625 0zm17.552246 -5.234375l0 -1.578125l5.65625 0l0 4.953125q-1.296875 1.046875 -2.6875 1.578125q-1.375 0.515625 -2.84375 0.515625q-1.96875 0 -3.578125 -0.84375q-1.609375 -0.84375 -2.421875 -2.4375q-0.8125 -1.59375 -0.8125 -3.5625q0 -1.953125 0.8125 -3.640625q0.8125 -1.6875 2.34375 -2.5q1.53125 -0.828125 3.515625 -0.828125q1.453125 0 2.625 0.46875q1.171875 0.46875 1.828125 1.3125q0.671875 0.828125 1.015625 2.171875l-1.59375 0.4375q-0.296875 -1.015625 -0.75 -1.59375q-0.4375 -0.59375 -1.265625 -0.9375q-0.828125 -0.34375 -1.84375 -0.34375q-1.203125 0 -2.09375 0.375q-0.890625 0.359375 -1.4375 0.96875q-0.53125 0.59375 -0.828125 1.3125q-0.515625 1.234375 -0.515625 2.6875q0 1.78125 0.609375 2.984375q0.625 1.203125 1.796875 1.796875q1.171875 0.578125 2.5 0.578125q1.140625 0 2.234375 -0.4375q1.09375 -0.453125 1.65625 -0.953125l0 -2.484375l-3.921875 0z" fill-rule="nonzero"/><path fill="#efefef" d="m312.5866 212.78215l150.23624 0l0 -10.503937l21.007874 21.007874l-21.007874 21.007874l0 -10.503937l-150.23624 0z" fill-rule="evenodd"/><path stroke="#000000" stroke-width="1.0" stroke-linejoin="round" stroke-linecap="butt" d="m312.5866 212.78215l150.23624 0l0 -10.503937l21.007874 21.007874l-21.007874 21.007874l0 -10.503937l-150.23624 0z" fill-rule="evenodd"/><path fill="#000000" fill-opacity="0.0" d="m4.2847767 86.608925l250.99213 0l0 273.35434l-250.99213 0z" fill-rule="evenodd"/><path stroke="#000000" stroke-width="1.0" stroke-linejoin="round" stroke-linecap="butt" d="m4.2847767 86.608925l250.99213 0l0 273.35434l-250.99213 0z" fill-rule="evenodd"/><path fill="#1967d2" d="m37.519672 110.206085l0 1.46875l3.359375 0l0 11.078125l-3.359375 0l0 1.453125l8.265625 0l0 -1.453125l-3.21875 0l0 -12.546875l-5.046875 0zm15.289322 14.1875q1.4375 0 2.421875 -0.578125q0.984375 -0.578125 1.46875 -1.328125l-1.03125 -0.796875q-0.46875 0.59375 -1.171875 0.96875q-0.6875 0.359375 -1.59375 0.359375q-0.6875 0 -1.25 -0.25q-0.5625 -0.265625 -0.96875 -0.71875q-0.390625 -0.40625 -0.609375 -0.953125q-0.21875 -0.546875 -0.28125 -1.265625l0 -0.078125l7.03125 0l0 -0.75q0 -1.03125 -0.265625 -1.90625q-0.25 -0.890625 -0.78125 -1.546875q-0.53125 -0.640625 -1.328125 -1.0q-0.796875 -0.375 -1.859375 -0.375q-0.84375 0 -1.65625 0.34375q-0.796875 0.34375 -1.4375 0.984375q-0.625 0.65625 -1.015625 1.609375q-0.375 0.9375 -0.375 2.125l0 0.390625q0 1.03125 0.34375 1.90625q0.34375 0.875 0.96875 1.5q0.609375 0.640625 1.484375 1.0q0.875 0.359375 1.90625 0.359375zm-0.21875 -8.84375q0.65625 0 1.125 0.234375q0.46875 0.234375 0.765625 0.625q0.3125 0.375 0.484375 0.90625q0.171875 0.515625 0.171875 0.984375l0 0.078125l-5.296875 0q0.09375 -0.6875 0.34375 -1.203125q0.265625 -0.53125 0.625 -0.890625q0.359375 -0.359375 0.8125 -0.546875q0.453125 -0.1875 0.96875 -0.1875zm11.054947 -3.59375l-1.703125 0l0 2.390625l-2.578125 0l0 1.3125l2.578125 0l0 5.34375q0 0.921875 0.234375 1.5625q0.25 0.640625 0.671875 1.046875q0.421875 0.40625 0.984375 0.59375q0.5781212 0.1875 1.2343712 0.1875q0.390625 0 0.78125 -0.046875q0.40625 -0.03125 0.75 -0.109375q0.359375 -0.0625 0.65625 -0.15625q0.296875 -0.09375 0.515625 -0.21875l-0.234375 -1.203125q-0.15625 0.046875 -0.40625 0.09375q-0.234375 0.046875 -0.515625 0.09375q-0.28125 0.046875 -0.578125 0.078125q-0.28125 0.03125 -0.546875 0.03125q-0.375 0 -0.71875 -0.09375q-0.328125 -0.09375 -0.578125 -0.3125q-0.2656212 -0.21875 -0.4062462 -0.59375q-0.140625 -0.375 -0.140625 -0.953125l0 -5.34375l3.7499962 0l0 -1.3125l-3.7499962 0l0 -2.390625z" fill-rule="nonzero"/><path fill="#37474f" d="m86.114456 118.00296l-2.609375 -3.65625l-1.9375 0l3.65625 4.875l-3.765625 4.984375l1.96875 0l2.71875 -3.75l2.734375 3.75l1.9375 0l-3.765625 -4.984375l3.671875 -4.875l-1.96875 0l-2.640625 3.65625z" fill-rule="nonzero"/><path fill="#37474f" d="m112.552475 117.09671l0 -1.46875l-8.125 0l0 1.46875l8.125 0zm0 3.78125l0 -1.453125l-8.125 0l0 1.453125l8.125 0z" fill-rule="nonzero"/><path fill="#37474f" d="m133.303 124.206085l1.75 0l0 -0.140625q-0.15625 -0.421875 -0.25 -0.96875q-0.09375 -0.546875 -0.09375 -1.046875l0 -4.578125q0 -0.828125 -0.296875 -1.4375q-0.296875 -0.625 -0.8125 -1.046875q-0.53125 -0.40625 -1.25 -0.609375q-0.71875 -0.203125 -1.5625 -0.203125q-0.921875 0 -1.65625 0.25q-0.71875 0.25 -1.21875 0.65625q-0.5 0.421875 -0.78125 0.953125q-0.265625 0.515625 -0.265625 1.046875l1.6875 0q0 -0.3125 0.140625 -0.59375q0.15625 -0.28125 0.4375 -0.5q0.265625 -0.203125 0.65625 -0.328125q0.40625 -0.140625 0.90625 -0.140625q0.546875 0 0.96875 0.140625q0.4375 0.140625 0.734375 0.390625q0.296875 0.25 0.453125 0.609375q0.171875 0.34375 0.171875 0.796875l0 0.78125l-1.828125 0q-1.03125 0 -1.875 0.203125q-0.828125 0.1875 -1.421875 0.59375q-0.59375 0.40625 -0.921875 1.015625q-0.3125 0.609375 -0.3125 1.421875q0 0.625 0.234375 1.15625q0.25 0.53125 0.6875 0.90625q0.4375 0.40625 1.0625 0.640625q0.640625 0.21875 1.4375 0.21875q0.46875 0 0.890625 -0.109375q0.4375 -0.09375 0.828125 -0.265625q0.375 -0.171875 0.6875 -0.390625q0.3125 -0.234375 0.5625 -0.5q0.03125 0.3125 0.09375 0.609375q0.0625 0.28125 0.15625 0.46875zm-2.984375 -1.28125q-0.484375 0 -0.859375 -0.125q-0.375 -0.140625 -0.625 -0.359375q-0.234375 -0.21875 -0.359375 -0.53125q-0.125 -0.3125 -0.125 -0.671875q0 -0.390625 0.140625 -0.6875q0.140625 -0.296875 0.40625 -0.515625q0.390625 -0.3125 1.03125 -0.453125q0.65625 -0.15625 1.53125 -0.15625l1.5625 0l0 2.0q-0.140625 0.28125 -0.40625 0.5625q-0.25 0.265625 -0.59375 0.46875q-0.34375 0.203125 -0.78125 0.34375q-0.421875 0.125 -0.921875 0.125z" fill-rule="nonzero"/><path fill="#37474f" d="m154.10039 117.09671l0 -3.875l-1.6875 0l0 3.875l-3.703125 0l0 1.671875l3.703125 0l0 4.109375l1.6875 0l0 -4.109375l3.703125 0l0 -1.671875l-3.703125 0z" fill-rule="nonzero"/><path fill="#37474f" d="m179.96028 119.393585l0 -0.203125q0 -0.765625 -0.125 -1.453125q-0.125 -0.703125 -0.375 -1.28125q-0.234375 -0.515625 -0.546875 -0.921875q-0.3125 -0.421875 -0.703125 -0.703125q-0.4375 -0.3125 -0.984375 -0.484375q-0.53125 -0.171875 -1.15625 -0.171875q-0.515625 0 -0.953125 0.09375q-0.4375 0.09375 -0.796875 0.296875q-0.296875 0.15625 -0.5625 0.375q-0.25 0.203125 -0.453125 0.46875l0 -5.203125l-1.6875 0l0 14.0l1.546875 0l0.078125 -1.125q0.171875 0.21875 0.34375 0.390625q0.1875 0.171875 0.390625 0.3125q0.421875 0.296875 0.9375 0.453125q0.53125 0.15625 1.171875 0.15625q0.546875 0 1.015625 -0.140625q0.484375 -0.140625 0.890625 -0.390625q0.5625 -0.34375 0.953125 -0.890625q0.390625 -0.546875 0.640625 -1.21875q0.1875 -0.53125 0.28125 -1.125q0.09375 -0.59375 0.09375 -1.234375zm-1.6875 -0.203125l0 0.203125q0 0.4375 -0.0625 0.859375q-0.046875 0.40625 -0.15625 0.78125q-0.15625 0.46875 -0.40625 0.875q-0.234375 0.390625 -0.609375 0.640625q-0.265625 0.203125 -0.609375 0.3125q-0.34375 0.09375 -0.765625 0.09375q-0.4375 0 -0.8125 -0.109375q-0.359375 -0.109375 -0.640625 -0.328125q-0.296875 -0.203125 -0.53125 -0.484375q-0.21875 -0.28125 -0.375 -0.609375l0 -4.3125q0.15625 -0.328125 0.375 -0.59375q0.21875 -0.28125 0.515625 -0.5q0.28125 -0.1875 0.640625 -0.296875q0.375 -0.125 0.8125 -0.125q0.390625 0 0.71875 0.09375q0.328125 0.09375 0.59375 0.25q0.390625 0.234375 0.65625 0.640625q0.265625 0.390625 0.421875 0.875q0.125 0.390625 0.171875 0.84375q0.0625 0.4375 0.0625 0.890625zm7.836197 -4.0625q0 0.53125 0.328125 0.90625q0.34375 0.359375 1.0 0.359375q0.640625 0 0.984375 -0.359375q0.34375 -0.375 0.34375 -0.90625q0 -0.546875 -0.34375 -0.921875q-0.328125 -0.375 -0.984375 -0.375q-0.671875 0 -1.0 0.390625q-0.328125 0.375 -0.328125 0.90625zm2.171875 8.6875l0 -1.609375l-1.828125 0l0 1.640625q0 0.765625 -0.1875 1.484375q-0.1875 0.71875 -0.625 1.359375l1.046875 0.578125q0.734375 -0.65625 1.15625 -1.609375q0.4375 -0.9375 0.4375 -1.84375z" fill-rule="nonzero"/><path fill="#37474f" d="m43.738422 150.20609l1.75 0l0 -0.140625q-0.15625 -0.421875 -0.25 -0.96875q-0.09375 -0.546875 -0.09375 -1.046875l0 -4.578125q0 -0.828125 -0.296875 -1.4375q-0.296875 -0.625 -0.8125 -1.046875q-0.53125 -0.40625 -1.25 -0.609375q-0.71875 -0.203125 -1.5625 -0.203125q-0.921875 0 -1.65625 0.25q-0.71875 0.25 -1.21875 0.65625q-0.5 0.421875 -0.78125 0.953125q-0.265625 0.515625 -0.265625 1.046875l1.6875 0q0 -0.3125 0.140625 -0.59375q0.15625 -0.28125 0.4375 -0.5q0.265625 -0.203125 0.65625 -0.328125q0.40625 -0.140625 0.90625 -0.140625q0.546875 0 0.96875 0.140625q0.4375 0.140625 0.734375 0.390625q0.296875 0.25 0.453125 0.609375q0.171875 0.34375 0.171875 0.796875l0 0.78125l-1.828125 0q-1.03125 0 -1.875 0.203125q-0.828125 0.1875 -1.421875 0.59375q-0.59375 0.40625 -0.921875 1.015625q-0.3125 0.609375 -0.3125 1.421875q0 0.625 0.234375 1.15625q0.25 0.53125 0.6875 0.90625q0.4375 0.40625 1.0625 0.640625q0.640625 0.21875 1.4375 0.21875q0.46875 0 0.890625 -0.109375q0.4375 -0.09375 0.828125 -0.265625q0.375 -0.171875 0.6875 -0.390625q0.3125 -0.234375 0.5625 -0.5q0.03125 0.3125 0.09375 0.609375q0.0625 0.28125 0.15625 0.46875zm-2.984375 -1.28125q-0.484375 0 -0.859375 -0.125q-0.375 -0.140625 -0.625 -0.359375q-0.234375 -0.21875 -0.359375 -0.53125q-0.125 -0.3125 -0.125 -0.671875q0 -0.390625 0.140625 -0.6875q0.140625 -0.296875 0.40625 -0.515625q0.390625 -0.3125 1.03125 -0.453125q0.65625 -0.15625 1.53125 -0.15625l1.5625 0l0 2.0q-0.140625 0.28125 -0.40625 0.5625q-0.25 0.265625 -0.59375 0.46875q-0.34375 0.203125 -0.78125 0.34375q-0.421875 0.125 -0.921875 0.125zm14.164322 -8.75q-1.078125 0 -1.921875 0.46875q-0.84375 0.46875 -1.4375 1.265625l-0.015625 -0.234375l-0.078125 -1.328125l-1.59375 0l0 9.859375l1.6875 0l0 -6.328125q0.171875 -0.453125 0.421875 -0.8125q0.25 -0.375 0.578125 -0.625q0.375 -0.296875 0.875 -0.4375q0.5 -0.15625 1.125 -0.15625q0.484375 0 0.921875 0.046875q0.453125 0.046875 0.9375 0.15625l0.234375 -1.640625q-0.265625 -0.109375 -0.765625 -0.171875q-0.5 -0.0625 -0.96875 -0.0625zm11.195568 0q-1.078125 0 -1.921875 0.46875q-0.8437462 0.46875 -1.4374962 1.265625l-0.015625 -0.234375l-0.078125 -1.328125l-1.59375 0l0 9.859375l1.6875 0l0 -6.328125q0.171875 -0.453125 0.421875 -0.8125q0.25 -0.375 0.578125 -0.625q0.3749962 -0.296875 0.8749962 -0.4375q0.5 -0.15625 1.125 -0.15625q0.484375 0 0.921875 0.046875q0.453125 0.046875 0.9375 0.15625l0.234375 -1.640625q-0.265625 -0.109375 -0.765625 -0.171875q-0.5 -0.0625 -0.96875 -0.0625zm10.633072 -3.75l0 -1.375l-3.609375 0l0 18.0l3.609375 0l0 -1.390625l-2.015625 0l0 -15.234375l2.015625 0zm9.367447 7.578125l-2.609375 -3.65625l-1.9375 0l3.65625 4.875l-3.765625 4.984375l1.96875 0l2.71875 -3.75l2.734375 3.75l1.9375 0l-3.765625 -4.984375l3.671875 -4.875l-1.96875 0l-2.640625 3.65625zm9.226822 -8.953125l0 1.375l2.03125 0l0 15.234375l-2.03125 0l0 1.390625l3.625 0l0 -18.0l-3.625 0zm28.406769 8.046875l0 -1.46875l-8.125 0l0 1.46875l8.125 0zm0 3.78125l0 -1.453125l-8.125 0l0 1.453125l8.125 0z" fill-rule="nonzero"/><path fill="#c5221f" d="m144.85794 145.75296l0 -8.8125l-1.796875 0l-5.9375 9.1875l0 1.0l6.046875 0l0 3.078125l1.6875 0l0 -3.078125l1.84375 0l0 -1.375l-1.84375 0zm-5.875 0l3.90625 -6.0625l0.28125 -0.5l0 6.5625l-4.1875 0zm18.367447 4.453125l0 -1.375l-6.65625 0l3.5625 -3.859375q0.5 -0.546875 0.953125 -1.09375q0.453125 -0.5625 0.796875 -1.125q0.328125 -0.5625 0.53125 -1.140625q0.203125 -0.578125 0.203125 -1.171875q0 -0.796875 -0.28125 -1.46875q-0.28125 -0.671875 -0.796875 -1.15625q-0.515625 -0.5 -1.265625 -0.78125q-0.75 -0.28125 -1.6875 -0.28125q-1.03125 0 -1.828125 0.328125q-0.796875 0.328125 -1.34375 0.890625q-0.546875 0.5625 -0.84375 1.3125q-0.28125 0.734375 -0.28125 1.5625l1.6875 0q0 -0.609375 0.15625 -1.109375q0.15625 -0.515625 0.484375 -0.859375q0.328125 -0.34375 0.8125 -0.53125q0.484375 -0.203125 1.15625 -0.203125q0.546875 0 0.96875 0.1875q0.4375 0.1875 0.75 0.5q0.296875 0.328125 0.453125 0.765625q0.171875 0.421875 0.171875 0.921875q0 0.390625 -0.109375 0.78125q-0.09375 0.375 -0.328125 0.796875q-0.25 0.421875 -0.640625 0.921875q-0.390625 0.5 -0.96875 1.140625l-4.34375 4.828125l0 1.21875l8.6875 0z" fill-rule="nonzero"/><path fill="#37474f" d="m163.71783 141.12796q0 0.53125 0.328125 0.90625q0.34375 0.359375 1.0 0.359375q0.640625 0 0.984375 -0.359375q0.34375 -0.375 0.34375 -0.90625q0 -0.546875 -0.34375 -0.921875q-0.328125 -0.375 -0.984375 -0.375q-0.671875 0 -1.0 0.390625q-0.328125 0.375 -0.328125 0.90625zm2.171875 8.6875l0 -1.609375l-1.828125 0l0 1.640625q0 0.765625 -0.1875 1.484375q-0.1875 0.71875 -0.625 1.359375l1.046875 0.578125q0.734375 -0.65625 1.15625 -1.609375q0.4375 -0.9375 0.4375 -1.84375z" fill-rule="nonzero"/><path fill="#1967d2" d="m37.519672 162.20609l0 1.46875l3.359375 0l0 11.078125l-3.359375 0l0 1.453125l8.265625 0l0 -1.453125l-3.21875 0l0 -12.546875l-5.046875 0zm15.289322 14.1875q1.4375 0 2.421875 -0.578125q0.984375 -0.578125 1.46875 -1.328125l-1.03125 -0.796875q-0.46875 0.59375 -1.171875 0.96875q-0.6875 0.359375 -1.59375 0.359375q-0.6875 0 -1.25 -0.25q-0.5625 -0.265625 -0.96875 -0.71875q-0.390625 -0.40625 -0.609375 -0.953125q-0.21875 -0.546875 -0.28125 -1.265625l0 -0.078125l7.03125 0l0 -0.75q0 -1.03125 -0.265625 -1.90625q-0.25 -0.890625 -0.78125 -1.546875q-0.53125 -0.640625 -1.328125 -1.0q-0.796875 -0.375 -1.859375 -0.375q-0.84375 0 -1.65625 0.34375q-0.796875 0.34375 -1.4375 0.984375q-0.625 0.65625 -1.015625 1.609375q-0.375 0.9375 -0.375 2.125l0 0.390625q0 1.03125 0.34375 1.90625q0.34375 0.875 0.96875 1.5q0.609375 0.640625 1.484375 1.0q0.875 0.359375 1.90625 0.359375zm-0.21875 -8.84375q0.65625 0 1.125 0.234375q0.46875 0.234375 0.765625 0.625q0.3125 0.375 0.484375 0.90625q0.171875 0.515625 0.171875 0.984375l0 0.078125l-5.296875 0q0.09375 -0.6875 0.34375 -1.203125q0.265625 -0.53125 0.625 -0.890625q0.359375 -0.359375 0.8125 -0.546875q0.453125 -0.1875 0.96875 -0.1875zm11.054947 -3.59375l-1.703125 0l0 2.390625l-2.578125 0l0 1.3125l2.578125 0l0 5.34375q0 0.921875 0.234375 1.5625q0.25 0.640625 0.671875 1.046875q0.421875 0.40625 0.984375 0.59375q0.5781212 0.1875 1.2343712 0.1875q0.390625 0 0.78125 -0.046875q0.40625 -0.03125 0.75 -0.109375q0.359375 -0.0625 0.65625 -0.15625q0.296875 -0.09375 0.515625 -0.21875l-0.234375 -1.203125q-0.15625 0.046875 -0.40625 0.09375q-0.234375 0.046875 -0.515625 0.09375q-0.28125 0.046875 -0.578125 0.078125q-0.28125 0.03125 -0.546875 0.03125q-0.375 0 -0.71875 -0.09375q-0.328125 -0.09375 -0.578125 -0.3125q-0.2656212 -0.21875 -0.4062462 -0.59375q-0.140625 -0.375 -0.140625 -0.953125l0 -5.34375l3.7499962 0l0 -1.3125l-3.7499962 0l0 -2.390625z" fill-rule="nonzero"/><path fill="#37474f" d="m82.833206 180.19046q0.671875 0 1.171875 -0.25q0.515625 -0.25 0.90625 -0.609375q0.375 -0.359375 0.640625 -0.796875q0.265625 -0.421875 0.4375 -0.8125l5.015625 -11.375l-1.890625 0l-2.546875 6.390625l-0.46875 1.15625l-0.4375 -1.1875l-2.703125 -6.359375l-1.875 0l4.234375 9.390625l-0.671875 1.3125q-0.09375 0.1875 -0.25 0.46875q-0.15625 0.28125 -0.375 0.546875q-0.234375 0.265625 -0.515625 0.453125q-0.28125 0.1875 -0.640625 0.1875q-0.125 0 -0.34375 -0.015625q-0.21875 0 -0.453125 -0.03125l-0.265625 1.375q0.15625 0.046875 0.46875 0.09375q0.328125 0.0625 0.5625 0.0625z" fill-rule="nonzero"/><path fill="#37474f" d="m112.552475 169.09671l0 -1.46875l-8.125 0l0 1.46875l8.125 0zm0 3.78125l0 -1.453125l-8.125 0l0 1.453125l8.125 0z" fill-rule="nonzero"/><path fill="#37474f" d="m130.89674 170.00296l-2.609375 -3.65625l-1.9375 0l3.65625 4.875l-3.765625 4.984375l1.96875 0l2.71875 -3.75l2.734375 3.75l1.9375 0l-3.765625 -4.984375l3.671875 -4.875l-1.96875 0l-2.640625 3.65625z" fill-rule="nonzero"/><path fill="#37474f" d="m152.52226 167.87796l-2.375 2.96875l1.328125 0.96875l1.9375 -3.21875l1.9375 3.296875l1.34375 -1.0l-2.34375 -2.953125l3.484375 -0.859375l-0.5 -1.609375l-3.296875 1.359375l0.265625 -3.890625l-1.625 0l0.234375 3.84375l-3.328125 -1.375l-0.5 1.59375l3.4375 0.875z" fill-rule="nonzero"/><path fill="#37474f" d="m175.80403 175.01859q-0.796875 0 -1.328125 -0.3125q-0.53125 -0.3125 -0.84375 -0.828125q-0.328125 -0.5 -0.46875 -1.125q-0.140625 -0.640625 -0.140625 -1.28125l0 -0.390625q0 -0.625 0.140625 -1.25q0.140625 -0.640625 0.46875 -1.15625q0.328125 -0.5 0.859375 -0.8125q0.53125 -0.3125 1.3125 -0.3125q0.515625 0 0.953125 0.171875q0.4375 0.171875 0.765625 0.484375q0.3125 0.296875 0.5 0.6875q0.1875 0.390625 0.203125 0.84375l1.59375 0q0 -0.75 -0.3125 -1.40625q-0.296875 -0.65625 -0.828125 -1.140625q-0.53125 -0.46875 -1.265625 -0.734375q-0.734375 -0.28125 -1.609375 -0.28125q-1.109375 0 -1.953125 0.40625q-0.84375 0.390625 -1.390625 1.0625q-0.5625 0.6875 -0.859375 1.578125q-0.28125 0.890625 -0.28125 1.859375l0 0.390625q0 0.984375 0.28125 1.875q0.296875 0.875 0.859375 1.5625q0.546875 0.671875 1.390625 1.078125q0.84375 0.40625 1.953125 0.40625q0.78125 0 1.5 -0.265625q0.71875 -0.28125 1.28125 -0.734375q0.5625 -0.4375 0.890625 -1.03125q0.328125 -0.609375 0.34375 -1.265625l-1.59375 0q-0.015625 0.40625 -0.21875 0.765625q-0.203125 0.34375 -0.546875 0.609375q-0.328125 0.265625 -0.765625 0.40625q-0.4375 0.140625 -0.890625 0.140625zm10.304947 -7.890625q0 0.53125 0.328125 0.90625q0.34375 0.359375 1.0 0.359375q0.640625 0 0.984375 -0.359375q0.34375 -0.375 0.34375 -0.90625q0 -0.546875 -0.34375 -0.921875q-0.328125 -0.375 -0.984375 -0.375q-0.671875 0 -1.0 0.390625q-0.328125 0.375 -0.328125 0.90625zm2.171875 8.6875l0 -1.609375l-1.828125 0l0 1.640625q0 0.765625 -0.1875 1.484375q-0.1875 0.71875 -0.625 1.359375l1.046875 0.578125q0.734375 -0.65625 1.15625 -1.609375q0.4375 -0.9375 0.4375 -1.84375z" fill-rule="nonzero"/><path fill="#1967d2" d="m37.519672 188.20609l0 1.46875l3.359375 0l0 11.078125l-3.359375 0l0 1.453125l8.265625 0l0 -1.453125l-3.21875 0l0 -12.546875l-5.046875 0zm15.289322 14.1875q1.4375 0 2.421875 -0.578125q0.984375 -0.578125 1.46875 -1.328125l-1.03125 -0.796875q-0.46875 0.59375 -1.171875 0.96875q-0.6875 0.359375 -1.59375 0.359375q-0.6875 0 -1.25 -0.25q-0.5625 -0.265625 -0.96875 -0.71875q-0.390625 -0.40625 -0.609375 -0.953125q-0.21875 -0.546875 -0.28125 -1.265625l0 -0.078125l7.03125 0l0 -0.75q0 -1.03125 -0.265625 -1.90625q-0.25 -0.890625 -0.78125 -1.546875q-0.53125 -0.640625 -1.328125 -1.0q-0.796875 -0.375 -1.859375 -0.375q-0.84375 0 -1.65625 0.34375q-0.796875 0.34375 -1.4375 0.984375q-0.625 0.65625 -1.015625 1.609375q-0.375 0.9375 -0.375 2.125l0 0.390625q0 1.03125 0.34375 1.90625q0.34375 0.875 0.96875 1.5q0.609375 0.640625 1.484375 1.0q0.875 0.359375 1.90625 0.359375zm-0.21875 -8.84375q0.65625 0 1.125 0.234375q0.46875 0.234375 0.765625 0.625q0.3125 0.375 0.484375 0.90625q0.171875 0.515625 0.171875 0.984375l0 0.078125l-5.296875 0q0.09375 -0.6875 0.34375 -1.203125q0.265625 -0.53125 0.625 -0.890625q0.359375 -0.359375 0.8125 -0.546875q0.453125 -0.1875 0.96875 -0.1875zm11.054947 -3.59375l-1.703125 0l0 2.390625l-2.578125 0l0 1.3125l2.578125 0l0 5.34375q0 0.921875 0.234375 1.5625q0.25 0.640625 0.671875 1.046875q0.421875 0.40625 0.984375 0.59375q0.5781212 0.1875 1.2343712 0.1875q0.390625 0 0.78125 -0.046875q0.40625 -0.03125 0.75 -0.109375q0.359375 -0.0625 0.65625 -0.15625q0.296875 -0.09375 0.515625 -0.21875l-0.234375 -1.203125q-0.15625 0.046875 -0.40625 0.09375q-0.234375 0.046875 -0.515625 0.09375q-0.28125 0.046875 -0.578125 0.078125q-0.28125 0.03125 -0.546875 0.03125q-0.375 0 -0.71875 -0.09375q-0.328125 -0.09375 -0.578125 -0.3125q-0.2656212 -0.21875 -0.4062462 -0.59375q-0.140625 -0.375 -0.140625 -0.953125l0 -5.34375l3.7499962 0l0 -1.3125l-3.7499962 0l0 -2.390625z" fill-rule="nonzero"/><path fill="#37474f" d="m84.06758 200.83109l5.953125 -7.28125l0 -1.203125l-8.015625 0l0 1.390625l5.796875 0l-5.890625 7.234375l0 1.234375l8.4375 0l0 -1.375l-6.28125 0z" fill-rule="nonzero"/><path fill="#37474f" d="m112.552475 195.09671l0 -1.46875l-8.125 0l0 1.46875l8.125 0zm0 3.78125l0 -1.453125l-8.125 0l0 1.453125l8.125 0z" fill-rule="nonzero"/><path fill="#37474f" d="m133.303 202.20609l1.75 0l0 -0.140625q-0.15625 -0.421875 -0.25 -0.96875q-0.09375 -0.546875 -0.09375 -1.046875l0 -4.578125q0 -0.828125 -0.296875 -1.4375q-0.296875 -0.625 -0.8125 -1.046875q-0.53125 -0.40625 -1.25 -0.609375q-0.71875 -0.203125 -1.5625 -0.203125q-0.921875 0 -1.65625 0.25q-0.71875 0.25 -1.21875 0.65625q-0.5 0.421875 -0.78125 0.953125q-0.265625 0.515625 -0.265625 1.046875l1.6875 0q0 -0.3125 0.140625 -0.59375q0.15625 -0.28125 0.4375 -0.5q0.265625 -0.203125 0.65625 -0.328125q0.40625 -0.140625 0.90625 -0.140625q0.546875 0 0.96875 0.140625q0.4375 0.140625 0.734375 0.390625q0.296875 0.25 0.453125 0.609375q0.171875 0.34375 0.171875 0.796875l0 0.78125l-1.828125 0q-1.03125 0 -1.875 0.203125q-0.828125 0.1875 -1.421875 0.59375q-0.59375 0.40625 -0.921875 1.015625q-0.3125 0.609375 -0.3125 1.421875q0 0.625 0.234375 1.15625q0.25 0.53125 0.6875 0.90625q0.4375 0.40625 1.0625 0.640625q0.640625 0.21875 1.4375 0.21875q0.46875 0 0.890625 -0.109375q0.4375 -0.09375 0.828125 -0.265625q0.375 -0.171875 0.6875 -0.390625q0.3125 -0.234375 0.5625 -0.5q0.03125 0.3125 0.09375 0.609375q0.0625 0.28125 0.15625 0.46875zm-2.984375 -1.28125q-0.484375 0 -0.859375 -0.125q-0.375 -0.140625 -0.625 -0.359375q-0.234375 -0.21875 -0.359375 -0.53125q-0.125 -0.3125 -0.125 -0.671875q0 -0.390625 0.140625 -0.6875q0.140625 -0.296875 0.40625 -0.515625q0.390625 -0.3125 1.03125 -0.453125q0.65625 -0.15625 1.53125 -0.15625l1.5625 0l0 2.0q-0.140625 0.28125 -0.40625 0.5625q-0.25 0.265625 -0.59375 0.46875q-0.34375 0.203125 -0.78125 0.34375q-0.421875 0.125 -0.921875 0.125zm14.164322 -8.75q-1.078125 0 -1.921875 0.46875q-0.84375 0.46875 -1.4375 1.265625l-0.015625 -0.234375l-0.078125 -1.328125l-1.59375 0l0 9.859375l1.6875 0l0 -6.328125q0.171875 -0.453125 0.421875 -0.8125q0.25 -0.375 0.578125 -0.625q0.375 -0.296875 0.875 -0.4375q0.5 -0.15625 1.125 -0.15625q0.484375 0 0.921875 0.046875q0.453125 0.046875 0.9375 0.15625l0.234375 -1.640625q-0.265625 -0.109375 -0.765625 -0.171875q-0.5 -0.0625 -0.96875 -0.0625zm11.195572 0q-1.078125 0 -1.921875 0.46875q-0.84375 0.46875 -1.4375 1.265625l-0.015625 -0.234375l-0.078125 -1.328125l-1.59375 0l0 9.859375l1.6875 0l0 -6.328125q0.171875 -0.453125 0.421875 -0.8125q0.25 -0.375 0.578125 -0.625q0.375 -0.296875 0.875 -0.4375q0.5 -0.15625 1.125 -0.15625q0.484375 0 0.921875 0.046875q0.453125 0.046875 0.9375 0.15625l0.234375 -1.640625q-0.265625 -0.109375 -0.765625 -0.171875q-0.5 -0.0625 -0.96875 -0.0625zm10.633072 -3.75l0 -1.375l-3.609375 0l0 18.0l3.609375 0l0 -1.390625l-2.015625 0l0 -15.234375l2.015625 0z" fill-rule="nonzero"/><path fill="#c5221f" d="m179.92903 197.12796l0 -3.109375q0 -1.265625 -0.296875 -2.234375q-0.28125 -0.984375 -0.828125 -1.65625q-0.5625 -0.671875 -1.359375 -1.015625q-0.796875 -0.359375 -1.8125 -0.359375q-1.015625 0 -1.8125 0.359375q-0.796875 0.34375 -1.34375 1.015625q-0.546875 0.671875 -0.84375 1.65625q-0.28125 0.96875 -0.28125 2.234375l0 3.109375q0 1.265625 0.28125 2.25q0.296875 0.984375 0.84375 1.640625q0.5625 0.6875 1.359375 1.03125q0.8125 0.34375 1.8125 0.34375q1.03125 0 1.8125 -0.34375q0.796875 -0.359375 1.34375 -1.03125q0.546875 -0.65625 0.828125 -1.640625q0.296875 -0.984375 0.296875 -2.25zm-6.890625 -0.328125q0 -0.234375 0 -0.46875q0 -0.234375 0 -0.453125l0 -2.21875q0 -0.9375 0.1875 -1.640625q0.1875 -0.703125 0.5625 -1.15625q0.328125 -0.359375 0.78125 -0.53125q0.46875 -0.1875 1.0625 -0.1875q0.59375 0 1.046875 0.171875q0.453125 0.171875 0.765625 0.515625q0.3125 0.328125 0.5 0.84375q0.1875 0.5 0.265625 1.15625l-5.171875 3.96875zm5.203125 0.6875q0 0.96875 -0.203125 1.6875q-0.1875 0.71875 -0.609375 1.171875q-0.3125 0.328125 -0.765625 0.5q-0.4375 0.171875 -1.015625 0.171875q-0.546875 0 -0.984375 -0.15625q-0.4375 -0.15625 -0.734375 -0.46875q-0.34375 -0.328125 -0.5625 -0.828125q-0.203125 -0.515625 -0.28125 -1.171875l5.15625 -3.953125q0 0.265625 0 0.65625q0 0.375 0 0.515625l0 1.875z" fill-rule="nonzero"/><path fill="#37474f" d="m184.90585 187.04984l0 1.375l2.03125 0l0 15.234375l-2.03125 0l0 1.390625l3.625 0l0 -18.0l-3.625 0zm12.398697 6.078125q0 0.53125 0.328125 0.90625q0.34375 0.359375 1.0 0.359375q0.640625 0 0.984375 -0.359375q0.34375 -0.375 0.34375 -0.90625q0 -0.546875 -0.34375 -0.921875q-0.328125 -0.375 -0.984375 -0.375q-0.671875 0 -1.0 0.390625q-0.328125 0.375 -0.328125 0.90625zm2.171875 8.6875l0 -1.609375l-1.828125 0l0 1.640625q0 0.765625 -0.1875 1.484375q-0.1875 0.71875 -0.625 1.359375l1.046875 0.578125q0.734375 -0.65625 1.15625 -1.609375q0.4375 -0.9375 0.4375 -1.84375z" fill-rule="nonzero"/><path fill="#1967d2" d="m37.519672 218.34671l0 1.46875l3.359375 0l0 6.9375l-3.359375 0l0 1.453125l8.265625 0l0 -1.453125l-3.21875 0l0 -8.40625l-5.046875 0zm3.140625 -2.578125q0 0.40625 0.25 0.6875q0.25 0.265625 0.765625 0.265625q0.5 0 0.75 -0.265625q0.25 -0.28125 0.25 -0.6875q0 -0.234375 -0.078125 -0.421875q-0.0625 -0.1875 -0.203125 -0.328125q-0.125 -0.109375 -0.3125 -0.171875q-0.171875 -0.078125 -0.40625 -0.078125q-0.25 0 -0.4375 0.078125q-0.171875 0.0625 -0.296875 0.171875q-0.140625 0.140625 -0.21875 0.34375q-0.0625 0.1875 -0.0625 0.40625zm10.304947 12.4375l1.703125 0l0 -8.546875l3.796875 0l0 -1.3125l-3.796875 0l0 -0.6875q0 -0.625 0.15625 -1.078125q0.15625 -0.46875 0.46875 -0.765625q0.296875 -0.28125 0.734375 -0.421875q0.4375 -0.140625 1.015625 -0.140625q0.5625 0 1.0625 0.09375q0.5 0.09375 0.875 0.21875l0.1875 -1.390625q-0.234375 -0.0625 -0.46875 -0.109375q-0.21875 -0.046875 -0.453125 -0.09375q-0.34375 -0.0625 -0.703125 -0.109375q-0.34375 -0.046875 -0.703125 -0.046875q-0.875 0 -1.59375 0.25q-0.703125 0.25 -1.203125 0.734375q-0.515625 0.484375 -0.796875 1.203125q-0.28125 0.703125 -0.28125 1.65625l0 0.6875l-2.703125 0l0 1.3125l2.703125 0l0 8.546875z" fill-rule="nonzero"/><path fill="#37474f" d="m72.512634 222.81546l0 0.09375q0 1.3125 0.203125 2.46875q0.203125 1.140625 0.5625 2.109375q0.328125 0.984375 0.78125 1.78125q0.453125 0.8125 0.953125 1.4375q0.484375 0.640625 0.984375 1.078125q0.515625 0.453125 0.96875 0.703125l0.359375 -1.03125q-0.375 -0.296875 -0.75 -0.71875q-0.359375 -0.421875 -0.703125 -0.96875q-0.34375 -0.578125 -0.65625 -1.3125q-0.3125 -0.71875 -0.546875 -1.5625q-0.21875 -0.84375 -0.34375 -1.828125q-0.125 -1.0 -0.125 -2.140625l0 -0.125q0 -1.1875 0.125 -2.203125q0.140625 -1.03125 0.390625 -1.890625q0.265625 -0.953125 0.640625 -1.75q0.390625 -0.796875 0.796875 -1.390625q0.28125 -0.375 0.578125 -0.6875q0.296875 -0.3125 0.59375 -0.53125l-0.359375 -1.109375q-0.453125 0.25 -0.953125 0.703125q-0.5 0.453125 -1.0 1.078125q-0.5 0.625 -0.953125 1.4375q-0.4375 0.8125 -0.78125 1.78125q-0.359375 0.984375 -0.5625 2.140625q-0.203125 1.140625 -0.203125 2.4375zm13.726822 4.203125q-0.796875 0 -1.328125 -0.3125q-0.53125 -0.3125 -0.84375 -0.828125q-0.328125 -0.5 -0.46875 -1.125q-0.140625 -0.640625 -0.140625 -1.28125l0 -0.390625q0 -0.625 0.140625 -1.25q0.140625 -0.640625 0.46875 -1.15625q0.328125 -0.5 0.859375 -0.8125q0.53125 -0.3125 1.3125 -0.3125q0.515625 0 0.953125 0.171875q0.4375 0.171875 0.765625 0.484375q0.3125 0.296875 0.5 0.6875q0.1875 0.390625 0.203125 0.84375l1.59375 0q0 -0.75 -0.3125 -1.40625q-0.296875 -0.65625 -0.828125 -1.140625q-0.53125 -0.46875 -1.265625 -0.734375q-0.734375 -0.28125 -1.609375 -0.28125q-1.109375 0 -1.953125 0.40625q-0.84375 0.390625 -1.390625 1.0625q-0.5625 0.6875 -0.859375 1.578125q-0.28125 0.890625 -0.28125 1.859375l0 0.390625q0 0.984375 0.28125 1.875q0.296875 0.875 0.859375 1.5625q0.546875 0.671875 1.390625 1.078125q0.84375 0.40625 1.953125 0.40625q0.78125 0 1.5 -0.265625q0.71875 -0.28125 1.28125 -0.734375q0.5625 -0.4375 0.890625 -1.03125q0.328125 -0.609375 0.34375 -1.265625l-1.59375 0q-0.015625 0.40625 -0.21875 0.765625q-0.203125 0.34375 -0.546875 0.609375q-0.328125 0.265625 -0.765625 0.40625q-0.4375 0.140625 -0.890625 0.140625zm13.148697 -4.109375l0 -0.09375q0 -1.390625 -0.21875 -2.5q-0.203125 -1.125 -0.53125 -2.078125q-0.34375 -0.984375 -0.796875 -1.78125q-0.4375 -0.796875 -0.953125 -1.4375q-0.484375 -0.625 -1.0 -1.078125q-0.515625 -0.453125 -0.96875 -0.703125l-0.34375 1.03125q0.296875 0.25 0.609375 0.609375q0.328125 0.34375 0.625 0.796875q0.390625 0.59375 0.765625 1.390625q0.375 0.796875 0.640625 1.796875q0.171875 0.703125 0.328125 1.71875q0.15625 1.0 0.15625 2.21875l0 0.125q0 1.09375 -0.125 2.046875q-0.109375 0.953125 -0.3125 1.765625q-0.203125 0.890625 -0.53125 1.625q-0.3125 0.75 -0.640625 1.34375q-0.359375 0.578125 -0.75 1.015625q-0.390625 0.453125 -0.765625 0.734375l0.34375 1.03125q0.453125 -0.25 0.953125 -0.703125q0.515625 -0.4375 1.015625 -1.078125q0.5 -0.625 0.9375 -1.4375q0.453125 -0.796875 0.8125 -1.78125q0.34375 -0.96875 0.546875 -2.109375q0.203125 -1.15625 0.203125 -2.46875zm23.563019 8.625l0.1875 -1.046875q-0.5625 -0.015625 -0.9375 -0.3125q-0.359375 -0.28125 -0.578125 -0.734375q-0.234375 -0.453125 -0.328125 -1.015625q-0.078125 -0.5625 -0.078125 -1.125l0 -1.53125q-0.015625 -1.09375 -0.515625 -1.90625q-0.5 -0.828125 -1.5625 -1.25q1.0625 -0.421875 1.5625 -1.25q0.515625 -0.828125 0.515625 -1.921875l0 -1.546875q0 -0.5625 0.046875 -1.125q0.0625 -0.5625 0.265625 -1.015625q0.1875 -0.453125 0.5625 -0.734375q0.390625 -0.296875 1.046875 -0.3125l-0.1875 -1.046875q-0.921875 0.03125 -1.5625 0.40625q-0.640625 0.359375 -1.046875 0.9375q-0.4375 0.609375 -0.640625 1.390625q-0.1875 0.765625 -0.1875 1.5l0 1.546875q0 1.328125 -0.625 1.921875q-0.609375 0.578125 -1.90625 0.578125l0 1.3125q1.296875 0.015625 1.90625 0.609375q0.625 0.59375 0.625 1.90625l0 1.53125q0 0.734375 0.203125 1.46875q0.21875 0.75 0.625 1.34375q0.4375 0.640625 1.078125 1.015625q0.65625 0.390625 1.53125 0.40625z" fill-rule="nonzero"/><path fill="#1967d2" d="m66.11394 244.17484q-1.078125 0 -1.921875 0.46875q-0.8437462 0.46875 -1.4374962 1.265625l-0.015625 -0.234375l-0.078125 -1.328125l-1.59375 0l0 9.859375l1.6875 0l0 -6.328125q0.171875 -0.453125 0.421875 -0.8125q0.25 -0.375 0.578125 -0.625q0.3749962 -0.296875 0.8749962 -0.4375q0.5 -0.15625 1.125 -0.15625q0.484375 0 0.921875 0.046875q0.453125 0.046875 0.9375 0.15625l0.234375 -1.640625q-0.265625 -0.109375 -0.765625 -0.171875q-0.5 -0.0625 -0.96875 -0.0625zm9.086197 10.21875q1.4375 0 2.421875 -0.578125q0.984375 -0.578125 1.46875 -1.328125l-1.03125 -0.796875q-0.46875 0.59375 -1.171875 0.96875q-0.6875 0.359375 -1.59375 0.359375q-0.6875 0 -1.25 -0.25q-0.5625 -0.265625 -0.96875 -0.71875q-0.390625 -0.40625 -0.609375 -0.953125q-0.21875 -0.546875 -0.28125 -1.265625l0 -0.078125l7.03125 0l0 -0.75q0 -1.03125 -0.265625 -1.90625q-0.25 -0.890625 -0.78125 -1.546875q-0.53125 -0.640625 -1.328125 -1.0q-0.796875 -0.375 -1.859375 -0.375q-0.84375 0 -1.65625 0.34375q-0.796875 0.34375 -1.4375 0.984375q-0.625 0.65625 -1.015625 1.609375q-0.375 0.9375 -0.375 2.125l0 0.390625q0 1.03125 0.34375 1.90625q0.34375 0.875 0.96875 1.5q0.609375 0.640625 1.484375 1.0q0.875 0.359375 1.90625 0.359375zm-0.21875 -8.84375q0.65625 0 1.125 0.234375q0.46875 0.234375 0.765625 0.625q0.3125 0.375 0.484375 0.90625q0.171875 0.515625 0.171875 0.984375l0 0.078125l-5.296875 0q0.09375 -0.6875 0.34375 -1.203125q0.265625 -0.53125 0.625 -0.890625q0.359375 -0.359375 0.8125 -0.546875q0.453125 -0.1875 0.96875 -0.1875zm11.054947 -3.59375l-1.703125 0l0 2.390625l-2.578125 0l0 1.3125l2.578125 0l0 5.34375q0 0.921875 0.234375 1.5625q0.25 0.640625 0.671875 1.046875q0.421875 0.40625 0.984375 0.59375q0.578125 0.1875 1.234375 0.1875q0.390625 0 0.78125 -0.046875q0.40625 -0.03125 0.75 -0.109375q0.359375 -0.0625 0.65625 -0.15625q0.296875 -0.09375 0.515625 -0.21875l-0.234375 -1.203125q-0.15625 0.046875 -0.40625 0.09375q-0.234375 0.046875 -0.515625 0.09375q-0.28125 0.046875 -0.578125 0.078125q-0.28125 0.03125 -0.546875 0.03125q-0.375 0 -0.71875 -0.09375q-0.328125 -0.09375 -0.578125 -0.3125q-0.265625 -0.21875 -0.40625 -0.59375q-0.140625 -0.375 -0.140625 -0.953125l0 -5.34375l3.75 0l0 -1.3125l-3.75 0l0 -2.390625zm13.695572 12.25l1.53125 0l0 -9.859375l-1.6875 0l0 7.078125q-0.140625 0.3125 -0.34375 0.578125q-0.203125 0.265625 -0.484375 0.46875q-0.328125 0.234375 -0.78125 0.375q-0.4375 0.125 -1.0 0.125q-0.484375 0 -0.859375 -0.125q-0.359375 -0.140625 -0.625 -0.453125q-0.25 -0.3125 -0.375 -0.828125q-0.125 -0.53125 -0.125 -1.34375l0 -5.875l-1.6875 0l0 5.859375q0 1.109375 0.234375 1.890625q0.25 0.78125 0.6875 1.296875q0.453125 0.515625 1.078125 0.765625q0.625 0.234375 1.40625 0.234375q0.96875 0 1.703125 -0.40625q0.734375 -0.40625 1.234375 -1.140625l0.09375 1.359375zm11.164322 -10.03125q-1.078125 0 -1.921875 0.46875q-0.84375 0.46875 -1.4375 1.265625l-0.015625 -0.234375l-0.078125 -1.328125l-1.59375 0l0 9.859375l1.6875 0l0 -6.328125q0.171875 -0.453125 0.421875 -0.8125q0.25 -0.375 0.578125 -0.625q0.375 -0.296875 0.875 -0.4375q0.5 -0.15625 1.125 -0.15625q0.484375 0 0.921875 0.046875q0.453125 0.046875 0.9375 0.15625l0.234375 -1.640625q-0.265625 -0.109375 -0.765625 -0.171875q-0.5 -0.0625 -0.96875 -0.0625zm4.726822 10.03125l1.6875 0l0 -7.0625q0.171875 -0.328125 0.40625 -0.59375q0.234375 -0.265625 0.515625 -0.453125q0.328125 -0.234375 0.71875 -0.359375q0.40625 -0.140625 0.875 -0.140625q0.546875 0 0.953125 0.125q0.421875 0.125 0.703125 0.40625q0.28125 0.296875 0.421875 0.75q0.15625 0.453125 0.15625 1.109375l0 6.21875l1.6875 0l0 -6.265625q0 -0.96875 -0.25 -1.6875q-0.234375 -0.71875 -0.6875 -1.1875q-0.4375 -0.453125 -1.078125 -0.671875q-0.625 -0.21875 -1.40625 -0.21875q-0.5625 0 -1.078125 0.171875q-0.515625 0.15625 -0.953125 0.4375q-0.296875 0.1875 -0.5625 0.453125q-0.25 0.265625 -0.46875 0.5625l-0.125 -1.453125l-1.515625 0l0 9.859375z" fill-rule="nonzero"/><path fill="#37474f" d="m138.81107 258.19046q0.671875 0 1.171875 -0.25q0.515625 -0.25 0.90625 -0.609375q0.375 -0.359375 0.640625 -0.796875q0.265625 -0.421875 0.4375 -0.8125l5.015625 -11.375l-1.890625 0l-2.546875 6.390625l-0.46875 1.15625l-0.4375 -1.1875l-2.703125 -6.359375l-1.875 0l4.234375 9.390625l-0.671875 1.3125q-0.09375 0.1875 -0.25 0.46875q-0.15625 0.28125 -0.375 0.546875q-0.234375 0.265625 -0.515625 0.453125q-0.28125 0.1875 -0.640625 0.1875q-0.125 0 -0.34375 -0.015625q-0.21875 0 -0.453125 -0.03125l-0.265625 1.375q0.15625 0.046875 0.46875 0.09375q0.328125 0.0625 0.5625 0.0625zm13.711197 -13.0625q0 0.53125 0.328125 0.90625q0.34375 0.359375 1.0 0.359375q0.640625 0 0.984375 -0.359375q0.34375 -0.375 0.34375 -0.90625q0 -0.546875 -0.34375 -0.921875q-0.328125 -0.375 -0.984375 -0.375q-0.671875 0 -1.0 0.390625q-0.328125 0.375 -0.328125 0.90625zm2.171875 8.6875l0 -1.609375l-1.828125 0l0 1.640625q0 0.765625 -0.1875 1.484375q-0.1875 0.71875 -0.625 1.359375l1.046875 0.578125q0.734375 -0.65625 1.15625 -1.609375q0.4375 -0.9375 0.4375 -1.84375z" fill-rule="nonzero"/><path fill="#37474f" d="m38.613422 282.48734l0.203125 1.046875q0.890625 -0.015625 1.53125 -0.40625q0.640625 -0.390625 1.078125 -1.0q0.421875 -0.609375 0.609375 -1.359375q0.203125 -0.734375 0.203125 -1.46875l0 -1.53125q0 -0.640625 0.140625 -1.109375q0.15625 -0.46875 0.453125 -0.765625q0.3125 -0.328125 0.796875 -0.46875q0.484375 -0.15625 1.140625 -0.171875l0 -1.3125q-0.734375 0 -1.28125 -0.1875q-0.53125 -0.203125 -0.828125 -0.640625q-0.203125 -0.296875 -0.3125 -0.703125q-0.109375 -0.421875 -0.109375 -0.96875l0 -1.546875q0 -0.765625 -0.203125 -1.546875q-0.203125 -0.78125 -0.671875 -1.40625q-0.40625 -0.5625 -1.046875 -0.90625q-0.625 -0.34375 -1.5 -0.375l-0.1875 1.046875q0.65625 0.015625 1.03125 0.3125q0.390625 0.28125 0.59375 0.734375q0.1875 0.453125 0.234375 1.015625q0.0625 0.5625 0.0625 1.125l0 1.546875q0 0.71875 0.203125 1.328125q0.21875 0.59375 0.65625 1.046875q0.234375 0.25 0.53125 0.453125q0.3125 0.203125 0.671875 0.34375q-0.34375 0.140625 -0.640625 0.34375q-0.296875 0.1875 -0.546875 0.421875q-0.4375 0.453125 -0.65625 1.0625q-0.21875 0.609375 -0.21875 1.328125l0 1.53125q0 0.5625 -0.09375 1.125q-0.09375 0.5625 -0.3125 1.015625q-0.21875 0.453125 -0.59375 0.734375q-0.375 0.296875 -0.9375 0.3125z" fill-rule="nonzero"/><path fill="#1967d2" d="m64.00456 280.3936q1.4375 0 2.421875 -0.578125q0.984375 -0.578125 1.46875 -1.328125l-1.03125 -0.796875q-0.46875 0.59375 -1.171875 0.96875q-0.6875 0.359375 -1.59375 0.359375q-0.6874962 0 -1.2499962 -0.25q-0.5625 -0.265625 -0.96875 -0.71875q-0.390625 -0.40625 -0.609375 -0.953125q-0.21875 -0.546875 -0.28125 -1.265625l0 -0.078125l7.031246 0l0 -0.75q0 -1.03125 -0.265625 -1.90625q-0.25 -0.890625 -0.78125 -1.546875q-0.53125 -0.640625 -1.328125 -1.0q-0.796875 -0.375 -1.8593712 -0.375q-0.84375 0 -1.65625 0.34375q-0.796875 0.34375 -1.4375 0.984375q-0.625 0.65625 -1.015625 1.609375q-0.375 0.9375 -0.375 2.125l0 0.390625q0 1.03125 0.34375 1.90625q0.34375 0.875 0.96875 1.5q0.609375 0.640625 1.484375 1.0q0.875 0.359375 1.9062462 0.359375zm-0.21874619 -8.84375q0.6562462 0 1.1249962 0.234375q0.46875 0.234375 0.765625 0.625q0.3125 0.375 0.484375 0.90625q0.171875 0.515625 0.171875 0.984375l0 0.078125l-5.296871 0q0.09375 -0.6875 0.34375 -1.203125q0.265625 -0.53125 0.625 -0.890625q0.359375 -0.359375 0.8125 -0.546875q0.453125 -0.1875 0.96875 -0.1875zm7.320568 -5.34375l0 1.46875l3.359375 0l0 11.078125l-3.359375 0l0 1.453125l8.265625 0l0 -1.453125l-3.21875 0l0 -12.546875l-5.046875 0zm17.492447 11.390625q0 0.234375 -0.09375 0.453125q-0.09375 0.203125 -0.265625 0.375q-0.28125 0.28125 -0.78125 0.4375q-0.5 0.15625 -1.171875 0.15625q-0.4375 0 -0.875 -0.078125q-0.4375 -0.09375 -0.796875 -0.3125q-0.359375 -0.21875 -0.609375 -0.578125q-0.234375 -0.359375 -0.265625 -0.875l-1.6875 0q0 0.625 0.28125 1.21875q0.296875 0.578125 0.84375 1.015625q0.53125 0.4375 1.3125 0.71875q0.78125 0.265625 1.796875 0.265625q0.875 0 1.609375 -0.203125q0.734375 -0.21875 1.265625 -0.609375q0.53125 -0.375 0.8125 -0.90625q0.296875 -0.546875 0.296875 -1.203125q0 -0.609375 -0.265625 -1.0625q-0.25 -0.46875 -0.734375 -0.828125q-0.5 -0.34375 -1.21875 -0.59375q-0.71875 -0.25 -1.625 -0.453125q-0.6875 -0.125 -1.140625 -0.265625q-0.453125 -0.15625 -0.71875 -0.34375q-0.28125 -0.171875 -0.390625 -0.40625q-0.109375 -0.234375 -0.109375 -0.515625q0 -0.28125 0.140625 -0.546875q0.140625 -0.265625 0.40625 -0.46875q0.265625 -0.203125 0.671875 -0.3125q0.40625 -0.125 0.953125 -0.125q0.515625 0 0.921875 0.15625q0.421875 0.140625 0.71875 0.375q0.28125 0.234375 0.4375 0.546875q0.171875 0.296875 0.171875 0.625l1.6875 0q0 -0.65625 -0.28125 -1.21875q-0.265625 -0.5625 -0.78125 -0.96875q-0.515625 -0.421875 -1.25 -0.65625q-0.71875 -0.234375 -1.625 -0.234375q-0.859375 0 -1.5625 0.234375q-0.703125 0.21875 -1.21875 0.609375q-0.5 0.390625 -0.78125 0.921875q-0.28125 0.515625 -0.28125 1.109375q0 0.609375 0.265625 1.078125q0.28125 0.453125 0.78125 0.796875q0.484375 0.34375 1.171875 0.59375q0.703125 0.234375 1.5625 0.421875q0.6875 0.125 1.140625 0.296875q0.46875 0.171875 0.75 0.375q0.28125 0.203125 0.40625 0.4375q0.125 0.234375 0.125 0.546875zm8.992447 2.796875q1.4375 0 2.421875 -0.578125q0.984375 -0.578125 1.46875 -1.328125l-1.03125 -0.796875q-0.46875 0.59375 -1.171875 0.96875q-0.6875 0.359375 -1.59375 0.359375q-0.6875 0 -1.25 -0.25q-0.5625 -0.265625 -0.96875 -0.71875q-0.390625 -0.40625 -0.609375 -0.953125q-0.21875 -0.546875 -0.28125 -1.265625l0 -0.078125l7.03125 0l0 -0.75q0 -1.03125 -0.265625 -1.90625q-0.25 -0.890625 -0.78125 -1.546875q-0.53125 -0.640625 -1.328125 -1.0q-0.796875 -0.375 -1.859375 -0.375q-0.84375 0 -1.65625 0.34375q-0.796875 0.34375 -1.4375 0.984375q-0.625 0.65625 -1.015625 1.609375q-0.375 0.9375 -0.375 2.125l0 0.390625q0 1.03125 0.34375 1.90625q0.34375 0.875 0.96875 1.5q0.609375 0.640625 1.484375 1.0q0.875 0.359375 1.90625 0.359375zm-0.21875 -8.84375q0.65625 0 1.125 0.234375q0.46875 0.234375 0.765625 0.625q0.3125 0.375 0.484375 0.90625q0.171875 0.515625 0.171875 0.984375l0 0.078125l-5.296875 0q0.09375 -0.6875 0.34375 -1.203125q0.265625 -0.53125 0.625 -0.890625q0.359375 -0.359375 0.8125 -0.546875q0.453125 -0.1875 0.96875 -0.1875z" fill-rule="nonzero"/><path fill="#37474f" d="m122.95117 283.5342l0.1875 -1.046875q-0.5625 -0.015625 -0.9375 -0.3125q-0.359375 -0.28125 -0.578125 -0.734375q-0.234375 -0.453125 -0.328125 -1.015625q-0.078125 -0.5625 -0.078125 -1.125l0 -1.53125q-0.015625 -1.09375 -0.515625 -1.90625q-0.5 -0.828125 -1.5625 -1.25q1.0625 -0.421875 1.5625 -1.25q0.515625 -0.828125 0.515625 -1.921875l0 -1.546875q0 -0.5625 0.046875 -1.125q0.0625 -0.5625 0.265625 -1.015625q0.1875 -0.453125 0.5625 -0.734375q0.390625 -0.296875 1.046875 -0.3125l-0.1875 -1.046875q-0.921875 0.03125 -1.5625 0.40625q-0.640625 0.359375 -1.046875 0.9375q-0.4375 0.609375 -0.640625 1.390625q-0.1875 0.765625 -0.1875 1.5l0 1.546875q0 1.328125 -0.625 1.921875q-0.609375 0.578125 -1.90625 0.578125l0 1.3125q1.296875 0.015625 1.90625 0.609375q0.625 0.59375 0.625 1.90625l0 1.53125q0 0.734375 0.203125 1.46875q0.21875 0.75 0.625 1.34375q0.4375 0.640625 1.078125 1.015625q0.65625 0.390625 1.53125 0.40625z" fill-rule="nonzero"/><path fill="#1967d2" d="m66.11394 296.17484q-1.078125 0 -1.921875 0.46875q-0.8437462 0.46875 -1.4374962 1.265625l-0.015625 -0.234375l-0.078125 -1.328125l-1.59375 0l0 9.859375l1.6875 0l0 -6.328125q0.171875 -0.453125 0.421875 -0.8125q0.25 -0.375 0.578125 -0.625q0.3749962 -0.296875 0.8749962 -0.4375q0.5 -0.15625 1.125 -0.15625q0.484375 0 0.921875 0.046875q0.453125 0.046875 0.9375 0.15625l0.234375 -1.640625q-0.265625 -0.109375 -0.765625 -0.171875q-0.5 -0.0625 -0.96875 -0.0625zm9.086197 10.21875q1.4375 0 2.421875 -0.578125q0.984375 -0.578125 1.46875 -1.328125l-1.03125 -0.796875q-0.46875 0.59375 -1.171875 0.96875q-0.6875 0.359375 -1.59375 0.359375q-0.6875 0 -1.25 -0.25q-0.5625 -0.265625 -0.96875 -0.71875q-0.390625 -0.40625 -0.609375 -0.953125q-0.21875 -0.546875 -0.28125 -1.265625l0 -0.078125l7.03125 0l0 -0.75q0 -1.03125 -0.265625 -1.90625q-0.25 -0.890625 -0.78125 -1.546875q-0.53125 -0.640625 -1.328125 -1.0q-0.796875 -0.375 -1.859375 -0.375q-0.84375 0 -1.65625 0.34375q-0.796875 0.34375 -1.4375 0.984375q-0.625 0.65625 -1.015625 1.609375q-0.375 0.9375 -0.375 2.125l0 0.390625q0 1.03125 0.34375 1.90625q0.34375 0.875 0.96875 1.5q0.609375 0.640625 1.484375 1.0q0.875 0.359375 1.90625 0.359375zm-0.21875 -8.84375q0.65625 0 1.125 0.234375q0.46875 0.234375 0.765625 0.625q0.3125 0.375 0.484375 0.90625q0.171875 0.515625 0.171875 0.984375l0 0.078125l-5.296875 0q0.09375 -0.6875 0.34375 -1.203125q0.265625 -0.53125 0.625 -0.890625q0.359375 -0.359375 0.8125 -0.546875q0.453125 -0.1875 0.96875 -0.1875zm11.054947 -3.59375l-1.703125 0l0 2.390625l-2.578125 0l0 1.3125l2.578125 0l0 5.34375q0 0.921875 0.234375 1.5625q0.25 0.640625 0.671875 1.046875q0.421875 0.40625 0.984375 0.59375q0.578125 0.1875 1.234375 0.1875q0.390625 0 0.78125 -0.046875q0.40625 -0.03125 0.75 -0.109375q0.359375 -0.0625 0.65625 -0.15625q0.296875 -0.09375 0.515625 -0.21875l-0.234375 -1.203125q-0.15625 0.046875 -0.40625 0.09375q-0.234375 0.046875 -0.515625 0.09375q-0.28125 0.046875 -0.578125 0.078125q-0.28125 0.03125 -0.546875 0.03125q-0.375 0 -0.71875 -0.09375q-0.328125 -0.09375 -0.578125 -0.3125q-0.265625 -0.21875 -0.40625 -0.59375q-0.140625 -0.375 -0.140625 -0.953125l0 -5.34375l3.75 0l0 -1.3125l-3.75 0l0 -2.390625zm13.695572 12.25l1.53125 0l0 -9.859375l-1.6875 0l0 7.078125q-0.140625 0.3125 -0.34375 0.578125q-0.203125 0.265625 -0.484375 0.46875q-0.328125 0.234375 -0.78125 0.375q-0.4375 0.125 -1.0 0.125q-0.484375 0 -0.859375 -0.125q-0.359375 -0.140625 -0.625 -0.453125q-0.25 -0.3125 -0.375 -0.828125q-0.125 -0.53125 -0.125 -1.34375l0 -5.875l-1.6875 0l0 5.859375q0 1.109375 0.234375 1.890625q0.25 0.78125 0.6875 1.296875q0.453125 0.515625 1.078125 0.765625q0.625 0.234375 1.40625 0.234375q0.96875 0 1.703125 -0.40625q0.734375 -0.40625 1.234375 -1.140625l0.09375 1.359375zm11.164322 -10.03125q-1.078125 0 -1.921875 0.46875q-0.84375 0.46875 -1.4375 1.265625l-0.015625 -0.234375l-0.078125 -1.328125l-1.59375 0l0 9.859375l1.6875 0l0 -6.328125q0.171875 -0.453125 0.421875 -0.8125q0.25 -0.375 0.578125 -0.625q0.375 -0.296875 0.875 -0.4375q0.5 -0.15625 1.125 -0.15625q0.484375 0 0.921875 0.046875q0.453125 0.046875 0.9375 0.15625l0.234375 -1.640625q-0.265625 -0.109375 -0.765625 -0.171875q-0.5 -0.0625 -0.96875 -0.0625zm4.726822 10.03125l1.6875 0l0 -7.0625q0.171875 -0.328125 0.40625 -0.59375q0.234375 -0.265625 0.515625 -0.453125q0.328125 -0.234375 0.71875 -0.359375q0.40625 -0.140625 0.875 -0.140625q0.546875 0 0.953125 0.125q0.421875 0.125 0.703125 0.40625q0.28125 0.296875 0.421875 0.75q0.15625 0.453125 0.15625 1.109375l0 6.21875l1.6875 0l0 -6.265625q0 -0.96875 -0.25 -1.6875q-0.234375 -0.71875 -0.6875 -1.1875q-0.4375 -0.453125 -1.078125 -0.671875q-0.625 -0.21875 -1.40625 -0.21875q-0.5625 0 -1.078125 0.171875q-0.515625 0.15625 -0.953125 0.4375q-0.296875 0.1875 -0.5625 0.453125q-0.25 0.265625 -0.46875 0.5625l-0.125 -1.453125l-1.515625 0l0 9.859375z" fill-rule="nonzero"/><path fill="#37474f" d="m140.04544 304.8311l5.953125 -7.28125l0 -1.203125l-8.015625 0l0 1.390625l5.796875 0l-5.890625 7.234375l0 1.234375l8.4375 0l0 -1.375l-6.28125 0zm12.476822 -7.703125q0 0.53125 0.328125 0.90625q0.34375 0.359375 1.0 0.359375q0.640625 0 0.984375 -0.359375q0.34375 -0.375 0.34375 -0.90625q0 -0.546875 -0.34375 -0.921875q-0.328125 -0.375 -0.984375 -0.375q-0.671875 0 -1.0 0.390625q-0.328125 0.375 -0.328125 0.90625zm2.171875 8.6875l0 -1.609375l-1.828125 0l0 1.640625q0 0.765625 -0.1875 1.484375q-0.1875 0.71875 -0.625 1.359375l1.046875 0.578125q0.734375 -0.65625 1.15625 -1.609375q0.4375 -0.9375 0.4375 -1.84375z" fill-rule="nonzero"/><path fill="#37474f" d="m38.613422 334.48734l0.203125 1.046875q0.890625 -0.015625 1.53125 -0.40625q0.640625 -0.390625 1.078125 -1.0q0.421875 -0.609375 0.609375 -1.359375q0.203125 -0.734375 0.203125 -1.46875l0 -1.53125q0 -0.640625 0.140625 -1.109375q0.15625 -0.46875 0.453125 -0.765625q0.3125 -0.328125 0.796875 -0.46875q0.484375 -0.15625 1.140625 -0.171875l0 -1.3125q-0.734375 0 -1.28125 -0.1875q-0.53125 -0.203125 -0.828125 -0.640625q-0.203125 -0.296875 -0.3125 -0.703125q-0.109375 -0.421875 -0.109375 -0.96875l0 -1.546875q0 -0.765625 -0.203125 -1.546875q-0.203125 -0.78125 -0.671875 -1.40625q-0.40625 -0.5625 -1.046875 -0.90625q-0.625 -0.34375 -1.5 -0.375l-0.1875 1.046875q0.65625 0.015625 1.03125 0.3125q0.390625 0.28125 0.59375 0.734375q0.1875 0.453125 0.234375 1.015625q0.0625 0.5625 0.0625 1.125l0 1.546875q0 0.71875 0.203125 1.328125q0.21875 0.59375 0.65625 1.046875q0.234375 0.25 0.53125 0.453125q0.3125 0.203125 0.671875 0.34375q-0.34375 0.140625 -0.640625 0.34375q-0.296875 0.1875 -0.546875 0.421875q-0.4375 0.453125 -0.65625 1.0625q-0.21875 0.609375 -0.21875 1.328125l0 1.53125q0 0.5625 -0.09375 1.125q-0.09375 0.5625 -0.3125 1.015625q-0.21875 0.453125 -0.59375 0.734375q-0.375 0.296875 -0.9375 0.3125z" fill-rule="nonzero"/></g></svg>