<svg version="1.1" viewBox="0.0 0.0 925.3805774278215 355.07086614173227" fill="none" stroke="none" stroke-linecap="square" stroke-miterlimit="10" xmlns:xlink="http://www.w3.org/1999/xlink" xmlns="http://www.w3.org/2000/svg"><clipPath id="p.0"><path d="m0 0l925.38055 0l0 355.07086l-925.38055 0l0 -355.07086z" clip-rule="nonzero"/></clipPath><g clip-path="url(#p.0)"><path fill="#000000" fill-opacity="0.0" d="m0 0l925.38055 0l0 355.07086l-925.38055 0z" fill-rule="evenodd"/><path fill="#000000" fill-opacity="0.0" d="m538.3307 44.648293l385.57483 0l0 308.34647l-385.57483 0z" fill-rule="evenodd"/><path stroke="#000000" stroke-width="1.0" stroke-linejoin="round" stroke-linecap="butt" d="m538.3307 44.648293l385.57483 0l0 308.34647l-385.57483 0z" fill-rule="evenodd"/><path fill="#000000" fill-opacity="0.0" d="m1.4750656 92.17585l296.28348 0l0 213.29135l-296.28348 0z" fill-rule="evenodd"/><path stroke="#000000" stroke-width="1.0" stroke-linejoin="round" stroke-linecap="butt" d="m1.4750656 92.17585l296.28348 0l0 213.29135l-296.28348 0z" fill-rule="evenodd"/><path fill="#1967d2" d="m14.568815 139.74152l1.703125 0l0 -8.546875l3.796875 0l0 -1.3125l-3.796875 0l0 -0.6875q0 -0.625 0.15625 -1.078125q0.15625 -0.46875 0.46875 -0.765625q0.296875 -0.28125 0.734375 -0.421875q0.4375 -0.140625 1.015625 -0.140625q0.5625 0 1.0625 0.09375q0.5 0.09375 0.875 0.21875l0.1875 -1.390625q-0.234375 -0.0625 -0.46875 -0.109375q-0.21875 -0.046875 -0.453125 -0.09375q-0.34375 -0.0625 -0.703125 -0.109375q-0.34375 -0.046875 -0.703125 -0.046875q-0.875 0 -1.59375 0.25q-0.703125 0.25 -1.203125 0.734375q-0.515625 0.484375 -0.796875 1.203125q-0.28125 0.703125 -0.28125 1.65625l0 0.6875l-2.703125 0l0 1.3125l2.703125 0l0 8.546875zm15.179947 0l1.53125 0l0 -9.859375l-1.6875 0l0 7.078125q-0.140625 0.3125 -0.34375 0.578125q-0.203125 0.265625 -0.484375 0.46875q-0.328125 0.234375 -0.78125 0.375q-0.4375 0.125 -1.0 0.125q-0.484375 0 -0.859375 -0.125q-0.359375 -0.140625 -0.625 -0.453125q-0.25 -0.3125 -0.375 -0.828125q-0.125 -0.53125 -0.125 -1.34375l0 -5.875l-1.6875 0l0 5.859375q0 1.109375 0.234375 1.890625q0.25 0.78125 0.6875 1.296875q0.453125 0.515625 1.078125 0.765625q0.625 0.234375 1.40625 0.234375q0.96875 0 1.703125 -0.40625q0.734375 -0.40625 1.234375 -1.140625l0.09375 1.359375zm4.695574 0l1.6875 0l0 -7.0625q0.171875 -0.328125 0.40625 -0.59375q0.234375 -0.265625 0.515625 -0.453125q0.328125 -0.234375 0.71875 -0.359375q0.40625 -0.140625 0.875 -0.140625q0.546875 0 0.953125 0.125q0.421875 0.125 0.703125 0.40625q0.28125 0.296875 0.421875 0.75q0.15625 0.453125 0.15625 1.109375l0 6.21875l1.6875 0l0 -6.265625q0 -0.96875 -0.25 -1.6875q-0.234375 -0.71875 -0.6875 -1.1875q-0.4375 -0.453125 -1.078125 -0.671875q-0.625 -0.21875 -1.40625 -0.21875q-0.5625 0 -1.078125 0.171875q-0.515625 0.15625 -0.953125 0.4375q-0.296875 0.1875 -0.5625 0.453125q-0.25 0.265625 -0.46875 0.5625l-0.125 -1.453125l-1.515625 0l0 9.859375zm15.398697 -1.1875q-0.796875 0 -1.328125 -0.3125q-0.53125 -0.3125 -0.84375 -0.828125q-0.328125 -0.5 -0.46875 -1.125q-0.140625 -0.640625 -0.140625 -1.28125l0 -0.390625q0 -0.625 0.140625 -1.25q0.140625 -0.640625 0.46875 -1.15625q0.328125 -0.5 0.859375 -0.8125q0.53125 -0.3125 1.3125 -0.3125q0.515625 0 0.953125 0.171875q0.4375 0.171875 0.765625 0.484375q0.3125 0.296875 0.5 0.6875q0.1875 0.390625 0.203125 0.84375l1.59375 0q0 -0.75 -0.3125 -1.40625q-0.296875 -0.65625 -0.828125 -1.140625q-0.53125 -0.46875 -1.265625 -0.734375q-0.734375 -0.28125 -1.609375 -0.28125q-1.109375 0 -1.953125 0.40625q-0.84375 0.390625 -1.390625 1.0625q-0.5625 0.6875 -0.859375 1.578125q-0.28125 0.890625 -0.28125 1.859375l0 0.390625q0 0.984375 0.28125 1.875q0.296875 0.875 0.859375 1.5625q0.546875 0.671875 1.390625 1.078125q0.84375 0.40625 1.953125 0.40625q0.78125 0 1.5 -0.265625q0.71875 -0.28125 1.28125 -0.734375q0.5625 -0.4375 0.890625 -1.03125q0.328125 -0.609375 0.34375 -1.265625l-1.59375 0q-0.015625 0.40625 -0.21875 0.765625q-0.203125 0.34375 -0.546875 0.609375q-0.328125 0.265625 -0.765625 0.40625q-0.4375 0.140625 -0.890625 0.140625zm10.992447 -11.0625l-1.703125 0l0 2.390625l-2.578125 0l0 1.3125l2.578125 0l0 5.34375q0 0.921875 0.234375 1.5625q0.25 0.640625 0.671875 1.046875q0.421875 0.40625 0.984375 0.59375q0.578125 0.1875 1.234375 0.1875q0.390625 0 0.78125 -0.046875q0.40625 -0.03125 0.75 -0.109375q0.359375 -0.0625 0.65625 -0.15625q0.296875 -0.09375 0.515625 -0.21875l-0.234375 -1.203125q-0.15625 0.046875 -0.40625 0.09375q-0.234375 0.046875 -0.515625 0.09375q-0.28125 0.046875 -0.578125 0.078125q-0.28125 0.03125 -0.546875 0.03125q-0.375 0 -0.71875 -0.09375q-0.328125 -0.09375 -0.578125 -0.3125q-0.265625 -0.21875 -0.40625 -0.59375q-0.140625 -0.375 -0.140625 -0.953125l0 -5.34375l3.75 0l0 -1.3125l-3.75 0l0 -2.390625zm7.461197 2.390625l0 1.46875l3.359375 0l0 6.9375l-3.359375 0l0 1.453125l8.265625 0l0 -1.453125l-3.21875 0l0 -8.40625l-5.046875 0zm3.140625 -2.578125q0 0.40625 0.25 0.6875q0.25 0.265625 0.765625 0.265625q0.5 0 0.75 -0.265625q0.25 -0.28125 0.25 -0.6875q0 -0.234375 -0.078125 -0.421875q-0.0625 -0.1875 -0.203125 -0.328125q-0.125 -0.109375 -0.3125 -0.171875q-0.171875 -0.078125 -0.40625 -0.078125q-0.25 0 -0.4375 0.078125q-0.171875 0.0625 -0.296875 0.171875q-0.140625 0.140625 -0.21875 0.34375q-0.0625 0.1875 -0.0625 0.40625zm7.320572 7.421875l0 0.203125q0 1.0625 0.3125 1.96875q0.3125 0.90625 0.890625 1.59375q0.578125 0.671875 1.40625 1.0625q0.84375 0.375 1.890625 0.375q1.03125 0 1.859375 -0.375q0.828125 -0.390625 1.40625 -1.0625q0.578125 -0.6875 0.890625 -1.59375q0.3125 -0.90625 0.3125 -1.96875l0 -0.203125q0 -1.0625 -0.3125 -1.984375q-0.3125 -0.921875 -0.890625 -1.59375q-0.578125 -0.671875 -1.421875 -1.046875q-0.828125 -0.390625 -1.875 -0.390625q-1.03125 0 -1.859375 0.390625q-0.828125 0.375 -1.40625 1.046875q-0.578125 0.671875 -0.890625 1.59375q-0.3125 0.921875 -0.3125 1.984375zm1.6875 0.203125l0 -0.203125q0 -0.71875 0.171875 -1.375q0.171875 -0.671875 0.53125 -1.171875q0.34375 -0.5 0.859375 -0.796875q0.515625 -0.296875 1.21875 -0.296875q0.703125 0 1.21875 0.296875q0.53125 0.296875 0.890625 0.796875q0.34375 0.5 0.515625 1.171875q0.1875 0.65625 0.1875 1.375l0 0.203125q0 0.71875 -0.171875 1.390625q-0.171875 0.65625 -0.515625 1.15625q-0.359375 0.5 -0.890625 0.796875q-0.515625 0.28125 -1.203125 0.28125q-0.703125 0 -1.234375 -0.28125q-0.53125 -0.296875 -0.875 -0.796875q-0.359375 -0.5 -0.53125 -1.15625q-0.171875 -0.671875 -0.171875 -1.390625zm9.976822 4.8125l1.6875 0l0 -7.0625q0.171875 -0.328125 0.40625 -0.59375q0.234375 -0.265625 0.515625 -0.453125q0.328125 -0.234375 0.71875 -0.359375q0.40625 -0.140625 0.875 -0.140625q0.546875 0 0.953125 0.125q0.421875 0.125 0.703125 0.40625q0.28125 0.296875 0.421875 0.75q0.15625 0.453125 0.15625 1.109375l0 6.21875l1.6875 0l0 -6.265625q0 -0.96875 -0.25 -1.6875q-0.234375 -0.71875 -0.6875 -1.1875q-0.4375 -0.453125 -1.078125 -0.671875q-0.625 -0.21875 -1.40625 -0.21875q-0.5625 0 -1.078125 0.171875q-0.515625 0.15625 -0.953125 0.4375q-0.296875 0.1875 -0.5625 0.453125q-0.25 0.265625 -0.46875 0.5625l-0.125 -1.453125l-1.515625 0l0 9.859375z" fill-rule="nonzero"/><path fill="#37474f" d="m113.078964 129.88214l0 1.46875l3.359375 0l0 6.9375l-3.359375 0l0 1.453125l8.265625 0l0 -1.453125l-3.21875 0l0 -8.40625l-5.046875 0zm3.140625 -2.578125q0 0.40625 0.25 0.6875q0.25 0.265625 0.765625 0.265625q0.5 0 0.75 -0.265625q0.25 -0.28125 0.25 -0.6875q0 -0.234375 -0.078125 -0.421875q-0.0625 -0.1875 -0.203125 -0.328125q-0.125 -0.109375 -0.3125 -0.171875q-0.171875 -0.078125 -0.40625 -0.078125q-0.25 0 -0.4375 0.078125q-0.171875 0.0625 -0.296875 0.171875q-0.140625 0.140625 -0.21875 0.34375q-0.0625 0.1875 -0.0625 0.40625zm14.351822 9.828125q0 0.234375 -0.09375 0.453125q-0.09375 0.203125 -0.265625 0.375q-0.28125 0.28125 -0.78125 0.4375q-0.5 0.15625 -1.171875 0.15625q-0.4375 0 -0.875 -0.078125q-0.4375 -0.09375 -0.796875 -0.3125q-0.359375 -0.21875 -0.609375 -0.578125q-0.234375 -0.359375 -0.265625 -0.875l-1.6875 0q0 0.625 0.28125 1.21875q0.296875 0.578125 0.84375 1.015625q0.53125 0.4375 1.3125 0.71875q0.78125 0.265625 1.796875 0.265625q0.875 0 1.609375 -0.203125q0.734375 -0.21875 1.265625 -0.609375q0.53125 -0.375 0.8125 -0.90625q0.296875 -0.546875 0.296875 -1.203125q0 -0.609375 -0.265625 -1.0625q-0.25 -0.46875 -0.734375 -0.828125q-0.5 -0.34375 -1.21875 -0.59375q-0.71875 -0.25 -1.625 -0.453125q-0.6875 -0.125 -1.140625 -0.265625q-0.453125 -0.15625 -0.71875 -0.34375q-0.28125 -0.171875 -0.390625 -0.40625q-0.109375 -0.234375 -0.109375 -0.515625q0 -0.28125 0.140625 -0.546875q0.140625 -0.265625 0.40625 -0.46875q0.265625 -0.203125 0.671875 -0.3125q0.40625 -0.125 0.953125 -0.125q0.515625 0 0.921875 0.15625q0.421875 0.140625 0.71875 0.375q0.28125 0.234375 0.4375 0.546875q0.171875 0.296875 0.171875 0.625l1.6875 0q0 -0.65625 -0.28125 -1.21875q-0.265625 -0.5625 -0.78125 -0.96875q-0.515625 -0.421875 -1.25 -0.65625q-0.71875 -0.234375 -1.625 -0.234375q-0.859375 0 -1.5625 0.234375q-0.703125 0.21875 -1.21875 0.609375q-0.5 0.390625 -0.78125 0.921875q-0.28125 0.515625 -0.28125 1.109375q0 0.609375 0.265625 1.078125q0.28125 0.453125 0.78125 0.796875q0.484375 0.34375 1.171875 0.59375q0.703125 0.234375 1.5625 0.421875q0.6875 0.125 1.140625 0.296875q0.46875 0.171875 0.75 0.375q0.28125 0.203125 0.40625 0.4375q0.125 0.234375 0.125 0.546875zm12.820572 3.984375l0 -1.375l-8.359375 0l0 1.375l8.359375 0zm7.367447 -1.1875q1.4375 0 2.421875 -0.578125q0.984375 -0.578125 1.46875 -1.328125l-1.03125 -0.796875q-0.46875 0.59375 -1.171875 0.96875q-0.6875 0.359375 -1.59375 0.359375q-0.6875 0 -1.25 -0.25q-0.5625 -0.265625 -0.96875 -0.71875q-0.390625 -0.40625 -0.609375 -0.953125q-0.21875 -0.546875 -0.28125 -1.265625l0 -0.078125l7.03125 0l0 -0.75q0 -1.03125 -0.265625 -1.90625q-0.25 -0.890625 -0.78125 -1.546875q-0.53125 -0.640625 -1.328125 -1.0q-0.796875 -0.375 -1.859375 -0.375q-0.84375 0 -1.65625 0.34375q-0.796875 0.34375 -1.4375 0.984375q-0.625 0.65625 -1.015625 1.609375q-0.375 0.9375 -0.375 2.125l0 0.390625q0 1.03125 0.34375 1.90625q0.34375 0.875 0.96875 1.5q0.609375 0.640625 1.484375 1.0q0.875 0.359375 1.90625 0.359375zm-0.21875 -8.84375q0.65625 0 1.125 0.234375q0.46875 0.234375 0.765625 0.625q0.3125 0.375 0.484375 0.90625q0.171875 0.515625 0.171875 0.984375l0 0.078125l-5.296875 0q0.09375 -0.6875 0.34375 -1.203125q0.265625 -0.53125 0.625 -0.890625q0.359375 -0.359375 0.8125 -0.546875q0.453125 -0.1875 0.96875 -0.1875zm10.429947 8.65625l1.28125 0l4.015625 -9.859375l-1.71875 0l-2.765625 7.4375l-0.15625 0.609375l-0.15625 -0.609375l-2.828125 -7.4375l-1.734375 0l4.0625 9.859375zm12.179947 0.1875q1.4375 0 2.421875 -0.578125q0.984375 -0.578125 1.46875 -1.328125l-1.03125 -0.796875q-0.46875 0.59375 -1.171875 0.96875q-0.6875 0.359375 -1.59375 0.359375q-0.6875 0 -1.25 -0.25q-0.5625 -0.265625 -0.96875 -0.71875q-0.390625 -0.40625 -0.609375 -0.953125q-0.21875 -0.546875 -0.28125 -1.265625l0 -0.078125l7.03125 0l0 -0.75q0 -1.03125 -0.265625 -1.90625q-0.25 -0.890625 -0.78125 -1.546875q-0.53125 -0.640625 -1.328125 -1.0q-0.796875 -0.375 -1.859375 -0.375q-0.84375 0 -1.65625 0.34375q-0.796875 0.34375 -1.4375 0.984375q-0.625 0.65625 -1.015625 1.609375q-0.375 0.9375 -0.375 2.125l0 0.390625q0 1.03125 0.34375 1.90625q0.34375 0.875 0.96875 1.5q0.609375 0.640625 1.484375 1.0q0.875 0.359375 1.90625 0.359375zm-0.21875 -8.84375q0.65625 0 1.125 0.234375q0.46875 0.234375 0.765625 0.625q0.3125 0.375 0.484375 0.90625q0.171875 0.515625 0.171875 0.984375l0 0.078125l-5.296875 0q0.09375 -0.6875 0.34375 -1.203125q0.265625 -0.53125 0.625 -0.890625q0.359375 -0.359375 0.8125 -0.546875q0.453125 -0.1875 0.96875 -0.1875zm7.054947 8.65625l1.6875 0l0 -7.0625q0.171875 -0.328125 0.40625 -0.59375q0.234375 -0.265625 0.515625 -0.453125q0.328125 -0.234375 0.71875 -0.359375q0.40625 -0.140625 0.875 -0.140625q0.546875 0 0.953125 0.125q0.421875 0.125 0.703125 0.40625q0.28125 0.296875 0.421875 0.75q0.15625 0.453125 0.15625 1.109375l0 6.21875l1.6875 0l0 -6.265625q0 -0.96875 -0.25 -1.6875q-0.234375 -0.71875 -0.6875 -1.1875q-0.4375 -0.453125 -1.078125 -0.671875q-0.625 -0.21875 -1.40625 -0.21875q-0.5625 0 -1.078125 0.171875q-0.515625 0.15625 -0.953125 0.4375q-0.296875 0.1875 -0.5625 0.453125q-0.25 0.265625 -0.46875 0.5625l-0.125 -1.453125l-1.515625 0l0 9.859375zm12.867447 -5.390625l0 0.09375q0 1.3125 0.203125 2.46875q0.203125 1.140625 0.5625 2.109375q0.328125 0.984375 0.78125 1.78125q0.453125 0.8125 0.953125 1.4375q0.484375 0.640625 0.984375 1.078125q0.515625 0.453125 0.96875 0.703125l0.359375 -1.03125q-0.375 -0.296875 -0.75 -0.71875q-0.359375 -0.421875 -0.703125 -0.96875q-0.34375 -0.578125 -0.65625 -1.3125q-0.3125 -0.71875 -0.546875 -1.5625q-0.21875 -0.84375 -0.34375 -1.828125q-0.125 -1.0 -0.125 -2.140625l0 -0.125q0 -1.1875 0.125 -2.203125q0.140625 -1.03125 0.390625 -1.890625q0.265625 -0.953125 0.640625 -1.75q0.390625 -0.796875 0.796875 -1.390625q0.28125 -0.375 0.578125 -0.6875q0.296875 -0.3125 0.59375 -0.53125l-0.359375 -1.109375q-0.453125 0.25 -0.953125 0.703125q-0.5 0.453125 -1.0 1.078125q-0.5 0.625 -0.953125 1.4375q-0.4375 0.8125 -0.78125 1.78125q-0.359375 0.984375 -0.5625 2.140625q-0.203125 1.140625 -0.203125 2.4375zm13.601822 -0.8125l-2.609375 -3.65625l-1.9375 0l3.65625 4.875l-3.765625 4.984375l1.96875 0l2.71875 -3.75l2.734375 3.75l1.9375 0l-3.765625 -4.984375l3.671875 -4.875l-1.96875 0l-2.640625 3.65625zm13.273697 0.90625l0 -0.09375q0 -1.390625 -0.21875 -2.5q-0.203125 -1.125 -0.53125 -2.078125q-0.34375 -0.984375 -0.796875 -1.78125q-0.4375 -0.796875 -0.953125 -1.4375q-0.484375 -0.625 -1.0 -1.078125q-0.515625 -0.453125 -0.96875 -0.703125l-0.34375 1.03125q0.296875 0.25 0.609375 0.609375q0.328125 0.34375 0.625 0.796875q0.390625 0.59375 0.765625 1.390625q0.375 0.796875 0.640625 1.796875q0.171875 0.703125 0.328125 1.71875q0.15625 1.0 0.15625 2.21875l0 0.125q0 1.09375 -0.125 2.046875q-0.109375 0.953125 -0.3125 1.765625q-0.203125 0.890625 -0.53125 1.625q-0.3125 0.75 -0.640625 1.34375q-0.359375 0.578125 -0.75 1.015625q-0.390625 0.453125 -0.765625 0.734375l0.34375 1.03125q0.453125 -0.25 0.953125 -0.703125q0.515625 -0.4375 1.015625 -1.078125q0.5 -0.625 0.9375 -1.4375q0.453125 -0.796875 0.8125 -1.78125q0.34375 -0.96875 0.546875 -2.109375q0.203125 -1.15625 0.203125 -2.46875z" fill-rule="nonzero"/><path fill="#37474f" d="m243.29276 143.06964l0.1875 -1.046875q-0.5625 -0.015625 -0.9375 -0.3125q-0.359375 -0.28125 -0.578125 -0.734375q-0.234375 -0.453125 -0.328125 -1.015625q-0.078125 -0.5625 -0.078125 -1.125l0 -1.53125q-0.015625 -1.09375 -0.515625 -1.90625q-0.5 -0.828125 -1.5625 -1.25q1.0625 -0.421875 1.5625 -1.25q0.515625 -0.828125 0.515625 -1.921875l0 -1.546875q0 -0.5625 0.046875 -1.125q0.0625 -0.5625 0.265625 -1.015625q0.1875 -0.453125 0.5625 -0.734375q0.390625 -0.296875 1.046875 -0.3125l-0.1875 -1.046875q-0.921875 0.03125 -1.5625 0.40625q-0.640625 0.359375 -1.046875 0.9375q-0.4375 0.609375 -0.640625 1.390625q-0.1875 0.765625 -0.1875 1.5l0 1.546875q0 1.328125 -0.625 1.921875q-0.609375 0.578125 -1.90625 0.578125l0 1.3125q1.296875 0.015625 1.90625 0.609375q0.625 0.59375 0.625 1.90625l0 1.53125q0 0.734375 0.203125 1.46875q0.21875 0.75 0.625 1.34375q0.4375 0.640625 1.078125 1.015625q0.65625 0.390625 1.53125 0.40625z" fill-rule="nonzero"/><path fill="#1967d2" d="m34.70996 151.88214l0 1.46875l3.359375 0l0 6.9375l-3.359375 0l0 1.453125l8.265625 0l0 -1.453125l-3.21875 0l0 -8.40625l-5.046875 0zm3.140625 -2.578125q0 0.40625 0.25 0.6875q0.25 0.265625 0.765625 0.265625q0.5 0 0.75 -0.265625q0.25 -0.28125 0.25 -0.6875q0 -0.234375 -0.078125 -0.421875q-0.0625 -0.1875 -0.203125 -0.328125q-0.125 -0.109375 -0.3125 -0.171875q-0.171875 -0.078125 -0.40625 -0.078125q-0.25 0 -0.4375 0.078125q-0.171875 0.0625 -0.296875 0.171875q-0.140625 0.140625 -0.21875 0.34375q-0.0625 0.1875 -0.0625 0.40625zm10.304947 12.4375l1.703125 0l0 -8.546875l3.796875 0l0 -1.3125l-3.796875 0l0 -0.6875q0 -0.625 0.15625 -1.078125q0.15625 -0.46875 0.46875 -0.765625q0.296875 -0.28125 0.734375 -0.421875q0.4375 -0.140625 1.015625 -0.140625q0.5625 0 1.0625 0.09375q0.5 0.09375 0.875 0.21875l0.1875 -1.390625q-0.234375 -0.0625 -0.46875 -0.109375q-0.21875 -0.046875 -0.453125 -0.09375q-0.34375 -0.0625 -0.703125 -0.109375q-0.34375 -0.046875 -0.703125 -0.046875q-0.875 0 -1.59375 0.25q-0.703125 0.25 -1.203125 0.734375q-0.515625 0.484375 -0.796875 1.203125q-0.28125 0.703125 -0.28125 1.65625l0 0.6875l-2.703125 0l0 1.3125l2.703125 0l0 8.546875z" fill-rule="nonzero"/><path fill="#37474f" d="m69.70293 156.35089l0 0.09375q0 1.3125 0.203125 2.46875q0.203125 1.140625 0.5625 2.109375q0.328125 0.984375 0.78125 1.78125q0.453125 0.8125 0.953125 1.4375q0.484375 0.640625 0.984375 1.078125q0.515625 0.453125 0.96875 0.703125l0.359375 -1.03125q-0.375 -0.296875 -0.75 -0.71875q-0.359375 -0.421875 -0.703125 -0.96875q-0.34375 -0.578125 -0.65625 -1.3125q-0.3125 -0.71875 -0.546875 -1.5625q-0.21875 -0.84375 -0.34375 -1.828125q-0.125 -1.0 -0.125 -2.140625l0 -0.125q0 -1.1875 0.125 -2.203125q0.140625 -1.03125 0.390625 -1.890625q0.265625 -0.953125 0.640625 -1.75q0.390625 -0.796875 0.796875 -1.390625q0.28125 -0.375 0.578125 -0.6875q0.296875 -0.3125 0.59375 -0.53125l-0.359375 -1.109375q-0.453125 0.25 -0.953125 0.703125q-0.5 0.453125 -1.0 1.078125q-0.5 0.625 -0.953125 1.4375q-0.4375 0.8125 -0.78125 1.78125q-0.359375 0.984375 -0.5625 2.140625q-0.203125 1.140625 -0.203125 2.4375zm13.601822 -0.8125l-2.609375 -3.65625l-1.9375 0l3.65625 4.875l-3.765625 4.984375l1.96875 0l2.71875 -3.75l2.734375 3.75l1.9375 0l-3.765625 -4.984375l3.671875 -4.875l-1.96875 0l-2.640625 3.65625z" fill-rule="nonzero"/><path fill="#37474f" d="m100.44589 150.86652l0 0.703125q0 0.515625 0.15625 0.984375q0.15625 0.453125 0.46875 0.8125q0.3125 0.34375 0.765625 0.5625q0.46875 0.203125 1.046875 0.203125q0.59375 0 1.046875 -0.203125q0.46875 -0.21875 0.78125 -0.5625q0.296875 -0.359375 0.453125 -0.8125q0.15625 -0.46875 0.15625 -0.984375l0 -0.703125q0 -0.515625 -0.15625 -0.984375q-0.15625 -0.46875 -0.453125 -0.828125q-0.3125 -0.359375 -0.78125 -0.5625q-0.453125 -0.203125 -1.0625 -0.203125q-0.59375 0 -1.046875 0.203125q-0.453125 0.203125 -0.75 0.5625q-0.3125 0.359375 -0.46875 0.828125q-0.15625 0.46875 -0.15625 0.984375zm1.25 0.703125l0 -0.703125q0 -0.28125 0.0625 -0.546875q0.0625 -0.28125 0.21875 -0.484375q0.125 -0.203125 0.34375 -0.328125q0.234375 -0.125 0.546875 -0.125q0.328125 0 0.546875 0.125q0.234375 0.125 0.375 0.328125q0.140625 0.203125 0.203125 0.484375q0.078125 0.265625 0.078125 0.546875l0 0.703125q0 0.28125 -0.078125 0.546875q-0.0625 0.25 -0.203125 0.453125q-0.140625 0.203125 -0.359375 0.328125q-0.21875 0.125 -0.546875 0.125q-0.328125 0 -0.546875 -0.125q-0.21875 -0.125 -0.359375 -0.328125q-0.15625 -0.203125 -0.21875 -0.453125q-0.0625 -0.265625 -0.0625 -0.546875zm4.21875 7.09375l0 0.703125q0 0.53125 0.15625 1.0q0.15625 0.453125 0.46875 0.796875q0.3125 0.359375 0.765625 0.5625q0.46875 0.203125 1.0625 0.203125q0.59375 0 1.046875 -0.203125q0.453125 -0.203125 0.765625 -0.5625q0.3125 -0.34375 0.46875 -0.796875q0.15625 -0.46875 0.15625 -1.0l0 -0.703125q0 -0.515625 -0.15625 -0.984375q-0.15625 -0.46875 -0.46875 -0.8125q-0.3125 -0.359375 -0.765625 -0.5625q-0.453125 -0.203125 -1.0625 -0.203125q-0.59375 0 -1.046875 0.203125q-0.453125 0.203125 -0.765625 0.5625q-0.3125 0.34375 -0.46875 0.8125q-0.15625 0.46875 -0.15625 0.984375zm1.25 0.703125l0 -0.703125q0 -0.28125 0.0625 -0.546875q0.078125 -0.265625 0.21875 -0.46875q0.140625 -0.203125 0.359375 -0.328125q0.21875 -0.125 0.546875 -0.125q0.328125 0 0.546875 0.125q0.234375 0.125 0.375 0.328125q0.140625 0.203125 0.203125 0.46875q0.0625 0.265625 0.0625 0.546875l0 0.703125q0 0.28125 -0.0625 0.546875q-0.0625 0.265625 -0.203125 0.46875q-0.140625 0.21875 -0.359375 0.34375q-0.21875 0.109375 -0.546875 0.109375q-0.328125 0 -0.5625 -0.109375q-0.21875 -0.125 -0.34375 -0.34375q-0.15625 -0.203125 -0.234375 -0.46875q-0.0625 -0.265625 -0.0625 -0.546875zm-3.5 0.65625l5.171875 -9.4375l-1.015625 -0.5625l-5.171875 9.4375l1.015625 0.5625z" fill-rule="nonzero"/><path fill="#c5221f" d="m132.14954 161.74152l0 -1.375l-6.65625 0l3.5625 -3.859375q0.5 -0.546875 0.953125 -1.09375q0.453125 -0.5625 0.796875 -1.125q0.328125 -0.5625 0.53125 -1.140625q0.203125 -0.578125 0.203125 -1.171875q0 -0.796875 -0.28125 -1.46875q-0.28125 -0.671875 -0.796875 -1.15625q-0.515625 -0.5 -1.265625 -0.78125q-0.75 -0.28125 -1.6875 -0.28125q-1.03125 0 -1.828125 0.328125q-0.796875 0.328125 -1.34375 0.890625q-0.546875 0.5625 -0.84375 1.3125q-0.28125 0.734375 -0.28125 1.5625l1.6875 0q0 -0.609375 0.15625 -1.109375q0.15625 -0.515625 0.484375 -0.859375q0.328125 -0.34375 0.8125 -0.53125q0.484375 -0.203125 1.15625 -0.203125q0.546875 0 0.96875 0.1875q0.4375 0.1875 0.75 0.5q0.296875 0.328125 0.453125 0.765625q0.171875 0.421875 0.171875 0.921875q0 0.390625 -0.109375 0.78125q-0.09375 0.375 -0.328125 0.796875q-0.25 0.421875 -0.640625 0.921875q-0.390625 0.5 -0.96875 1.140625l-4.34375 4.828125l0 1.21875l8.6875 0z" fill-rule="nonzero"/><path fill="#37474f" d="m154.52505 154.63214l0 -1.46875l-8.125 0l0 1.46875l8.125 0zm0 3.78125l0 -1.453125l-8.125 0l0 1.453125l8.125 0zm11.195572 -3.78125l0 -1.46875l-8.125 0l0 1.46875l8.125 0zm0 3.78125l0 -1.453125l-8.125 0l0 1.453125l8.125 0z" fill-rule="nonzero"/><path fill="#c5221f" d="m188.3149 156.66339l0 -3.109375q0 -1.265625 -0.296875 -2.234375q-0.28125 -0.984375 -0.828125 -1.65625q-0.5625 -0.671875 -1.359375 -1.015625q-0.796875 -0.359375 -1.8125 -0.359375q-1.015625 0 -1.8125 0.359375q-0.796875 0.34375 -1.34375 1.015625q-0.546875 0.671875 -0.84375 1.65625q-0.28125 0.96875 -0.28125 2.234375l0 3.109375q0 1.265625 0.28125 2.25q0.296875 0.984375 0.84375 1.640625q0.5625 0.6875 1.359375 1.03125q0.8125 0.34375 1.8125 0.34375q1.03125 0 1.8125 -0.34375q0.796875 -0.359375 1.34375 -1.03125q0.546875 -0.65625 0.828125 -1.640625q0.296875 -0.984375 0.296875 -2.25zm-6.890625 -0.328125q0 -0.234375 0 -0.46875q0 -0.234375 0 -0.453125l0 -2.21875q0 -0.9375 0.1875 -1.640625q0.1875 -0.703125 0.5625 -1.15625q0.328125 -0.359375 0.78125 -0.53125q0.46875 -0.1875 1.0625 -0.1875q0.59375 0 1.046875 0.171875q0.453125 0.171875 0.765625 0.515625q0.3125 0.328125 0.5 0.84375q0.1875 0.5 0.265625 1.15625l-5.171875 3.96875zm5.203125 0.6875q0 0.96875 -0.203125 1.6875q-0.1875 0.71875 -0.609375 1.171875q-0.3125 0.328125 -0.765625 0.5q-0.4375 0.171875 -1.015625 0.171875q-0.546875 0 -0.984375 -0.15625q-0.4375 -0.15625 -0.734375 -0.46875q-0.34375 -0.328125 -0.5625 -0.828125q-0.203125 -0.515625 -0.28125 -1.171875l5.15625 -3.953125q0 0.265625 0 0.65625q0 0.375 0 0.515625l0 1.875z" fill-rule="nonzero"/><path fill="#37474f" d="m197.3386 156.44464l0 -0.09375q0 -1.390625 -0.21875 -2.5q-0.203125 -1.125 -0.53125 -2.078125q-0.34375 -0.984375 -0.796875 -1.78125q-0.4375 -0.796875 -0.953125 -1.4375q-0.484375 -0.625 -1.0 -1.078125q-0.515625 -0.453125 -0.96875 -0.703125l-0.34375 1.03125q0.296875 0.25 0.609375 0.609375q0.328125 0.34375 0.625 0.796875q0.390625 0.59375 0.765625 1.390625q0.375 0.796875 0.640625 1.796875q0.171875 0.703125 0.328125 1.71875q0.15625 1.0 0.15625 2.21875l0 0.125q0 1.09375 -0.125 2.046875q-0.109375 0.953125 -0.3125 1.765625q-0.203125 0.890625 -0.53125 1.625q-0.3125 0.75 -0.640625 1.34375q-0.359375 0.578125 -0.75 1.015625q-0.390625 0.453125 -0.765625 0.734375l0.34375 1.03125q0.453125 -0.25 0.953125 -0.703125q0.515625 -0.4375 1.015625 -1.078125q0.5 -0.625 0.9375 -1.4375q0.453125 -0.796875 0.8125 -1.78125q0.34375 -0.96875 0.546875 -2.109375q0.203125 -1.15625 0.203125 -2.46875z" fill-rule="nonzero"/><path fill="#37474f" d="m220.90161 165.06964l0.1875 -1.046875q-0.5625 -0.015625 -0.9375 -0.3125q-0.359375 -0.28125 -0.578125 -0.734375q-0.234375 -0.453125 -0.328125 -1.015625q-0.078125 -0.5625 -0.078125 -1.125l0 -1.53125q-0.015625 -1.09375 -0.515625 -1.90625q-0.5 -0.828125 -1.5625 -1.25q1.0625 -0.421875 1.5625 -1.25q0.515625 -0.828125 0.515625 -1.921875l0 -1.546875q0 -0.5625 0.046875 -1.125q0.0625 -0.5625 0.265625 -1.015625q0.1875 -0.453125 0.5625 -0.734375q0.390625 -0.296875 1.046875 -0.3125l-0.1875 -1.046875q-0.921875 0.03125 -1.5625 0.40625q-0.640625 0.359375 -1.046875 0.9375q-0.4375 0.609375 -0.640625 1.390625q-0.1875 0.765625 -0.1875 1.5l0 1.546875q0 1.328125 -0.625 1.921875q-0.609375 0.578125 -1.90625 0.578125l0 1.3125q1.296875 0.015625 1.90625 0.609375q0.625 0.59375 0.625 1.90625l0 1.53125q0 0.734375 0.203125 1.46875q0.21875 0.75 0.625 1.34375q0.4375 0.640625 1.078125 1.015625q0.65625 0.390625 1.53125 0.40625z" fill-rule="nonzero"/><path fill="#1967d2" d="m63.30423 173.71027q-1.078125 0 -1.921875 0.46875q-0.84375 0.46875 -1.4375 1.265625l-0.015625 -0.234375l-0.078125 -1.328125l-1.59375 0l0 9.859375l1.6875 0l0 -6.328125q0.171875 -0.453125 0.421875 -0.8125q0.25 -0.375 0.578125 -0.625q0.375 -0.296875 0.875 -0.4375q0.5 -0.15625 1.125 -0.15625q0.484375 0 0.921875 0.046875q0.453125 0.046875 0.9375 0.15625l0.234375 -1.640625q-0.265625 -0.109375 -0.765625 -0.171875q-0.5 -0.0625 -0.96875 -0.0625zm9.086197 10.21875q1.4375 0 2.421875 -0.578125q0.984375 -0.578125 1.46875 -1.328125l-1.03125 -0.796875q-0.46875 0.59375 -1.171875 0.96875q-0.6875 0.359375 -1.59375 0.359375q-0.6875 0 -1.25 -0.25q-0.5625 -0.265625 -0.96875 -0.71875q-0.390625 -0.40625 -0.609375 -0.953125q-0.21875 -0.546875 -0.28125 -1.265625l0 -0.078125l7.03125 0l0 -0.75q0 -1.03125 -0.265625 -1.90625q-0.25 -0.890625 -0.78125 -1.546875q-0.53125 -0.640625 -1.328125 -1.0q-0.796875 -0.375 -1.859375 -0.375q-0.84375 0 -1.65625 0.34375q-0.796875 0.34375 -1.4375 0.984375q-0.625 0.65625 -1.015625 1.609375q-0.375 0.9375 -0.375 2.125l0 0.390625q0 1.03125 0.34375 1.90625q0.34375 0.875 0.96875 1.5q0.609375 0.640625 1.484375 1.0q0.875 0.359375 1.90625 0.359375zm-0.21875 -8.84375q0.65625 0 1.125 0.234375q0.46875 0.234375 0.765625 0.625q0.3125 0.375 0.484375 0.90625q0.171875 0.515625 0.171875 0.984375l0 0.078125l-5.296875 0q0.09375 -0.6875 0.34375 -1.203125q0.265625 -0.53125 0.625 -0.890625q0.359375 -0.359375 0.8125 -0.546875q0.453125 -0.1875 0.96875 -0.1875zm11.054947 -3.59375l-1.703125 0l0 2.390625l-2.578125 0l0 1.3125l2.578125 0l0 5.34375q0 0.921875 0.234375 1.5625q0.25 0.640625 0.671875 1.046875q0.421875 0.40625 0.984375 0.59375q0.578125 0.1875 1.234375 0.1875q0.390625 0 0.78125 -0.046875q0.40625 -0.03125 0.75 -0.109375q0.359375 -0.0625 0.65625 -0.15625q0.296875 -0.09375 0.515625 -0.21875l-0.234375 -1.203125q-0.15625 0.046875 -0.40625 0.09375q-0.234375 0.046875 -0.515625 0.09375q-0.28125 0.046875 -0.578125 0.078125q-0.28125 0.03125 -0.546875 0.03125q-0.375 0 -0.71875 -0.09375q-0.328125 -0.09375 -0.578125 -0.3125q-0.265625 -0.21875 -0.40625 -0.59375q-0.140625 -0.375 -0.140625 -0.953125l0 -5.34375l3.75 0l0 -1.3125l-3.75 0l0 -2.390625zm13.695572 12.25l1.53125 0l0 -9.859375l-1.6875 0l0 7.078125q-0.140625 0.3125 -0.34375 0.578125q-0.203125 0.265625 -0.484375 0.46875q-0.328125 0.234375 -0.78125 0.375q-0.4375 0.125 -1.0 0.125q-0.484375 0 -0.859375 -0.125q-0.359375 -0.140625 -0.625 -0.453125q-0.25 -0.3125 -0.375 -0.828125q-0.125 -0.53125 -0.125 -1.34375l0 -5.875l-1.6875 0l0 5.859375q0 1.109375 0.234375 1.890625q0.25 0.78125 0.6875 1.296875q0.453125 0.515625 1.078125 0.765625q0.625 0.234375 1.40625 0.234375q0.96875 0 1.703125 -0.40625q0.734375 -0.40625 1.234375 -1.140625l0.09375 1.359375zm11.164322 -10.03125q-1.078125 0 -1.921875 0.46875q-0.84375 0.46875 -1.4375 1.265625l-0.015625 -0.234375l-0.078125 -1.328125l-1.59375 0l0 9.859375l1.6875 0l0 -6.328125q0.171875 -0.453125 0.421875 -0.8125q0.25 -0.375 0.578125 -0.625q0.375 -0.296875 0.875 -0.4375q0.5 -0.15625 1.125 -0.15625q0.484375 0 0.921875 0.046875q0.453125 0.046875 0.9375 0.15625l0.234375 -1.640625q-0.265625 -0.109375 -0.765625 -0.171875q-0.5 -0.0625 -0.96875 -0.0625zm4.726822 10.03125l1.6875 0l0 -7.0625q0.171875 -0.328125 0.40625 -0.59375q0.234375 -0.265625 0.515625 -0.453125q0.328125 -0.234375 0.71875 -0.359375q0.40625 -0.140625 0.875 -0.140625q0.546875 0 0.953125 0.125q0.421875 0.125 0.703125 0.40625q0.28125 0.296875 0.421875 0.75q0.15625 0.453125 0.15625 1.109375l0 6.21875l1.6875 0l0 -6.265625q0 -0.96875 -0.25 -1.6875q-0.234375 -0.71875 -0.6875 -1.1875q-0.4375 -0.453125 -1.078125 -0.671875q-0.625 -0.21875 -1.40625 -0.21875q-0.5625 0 -1.078125 0.171875q-0.515625 0.15625 -0.953125 0.4375q-0.296875 0.1875 -0.5625 0.453125q-0.25 0.265625 -0.46875 0.5625l-0.125 -1.453125l-1.515625 0l0 9.859375z" fill-rule="nonzero"/><path fill="#37474f" d="m139.20448 171.49152l-1.703125 0l0 2.390625l-2.578125 0l0 1.3125l2.578125 0l0 5.34375q0 0.921875 0.234375 1.5625q0.25 0.640625 0.671875 1.046875q0.421875 0.40625 0.984375 0.59375q0.578125 0.1875 1.234375 0.1875q0.390625 0 0.78125 -0.046875q0.40625 -0.03125 0.75 -0.109375q0.359375 -0.0625 0.65625 -0.15625q0.296875 -0.09375 0.515625 -0.21875l-0.234375 -1.203125q-0.15625 0.046875 -0.40625 0.09375q-0.234375 0.046875 -0.515625 0.09375q-0.28125 0.046875 -0.578125 0.078125q-0.28125 0.03125 -0.546875 0.03125q-0.375 0 -0.71875 -0.09375q-0.328125 -0.09375 -0.578125 -0.3125q-0.265625 -0.21875 -0.40625 -0.59375q-0.140625 -0.375 -0.140625 -0.953125l0 -5.34375l3.75 0l0 -1.3125l-3.75 0l0 -2.390625zm13.664322 2.21875q-1.078125 0 -1.921875 0.46875q-0.84375 0.46875 -1.4375 1.265625l-0.015625 -0.234375l-0.078125 -1.328125l-1.59375 0l0 9.859375l1.6875 0l0 -6.328125q0.171875 -0.453125 0.421875 -0.8125q0.25 -0.375 0.578125 -0.625q0.375 -0.296875 0.875 -0.4375q0.5 -0.15625 1.125 -0.15625q0.484375 0 0.921875 0.046875q0.453125 0.046875 0.9375 0.15625l0.234375 -1.640625q-0.265625 -0.109375 -0.765625 -0.171875q-0.5 -0.0625 -0.96875 -0.0625zm11.226822 10.03125l1.53125 0l0 -9.859375l-1.6875 0l0 7.078125q-0.140625 0.3125 -0.34375 0.578125q-0.203125 0.265625 -0.484375 0.46875q-0.328125 0.234375 -0.78125 0.375q-0.4375 0.125 -1.0 0.125q-0.484375 0 -0.859375 -0.125q-0.359375 -0.140625 -0.625 -0.453125q-0.25 -0.3125 -0.375 -0.828125q-0.125 -0.53125 -0.125 -1.34375l0 -5.875l-1.6875 0l0 5.859375q0 1.109375 0.234375 1.890625q0.25 0.78125 0.6875 1.296875q0.453125 0.515625 1.078125 0.765625q0.625 0.234375 1.40625 0.234375q0.96875 0 1.703125 -0.40625q0.734375 -0.40625 1.234375 -1.140625l0.09375 1.359375zm9.054947 0.1875q1.4375 0 2.421875 -0.578125q0.984375 -0.578125 1.46875 -1.328125l-1.03125 -0.796875q-0.46875 0.59375 -1.171875 0.96875q-0.6875 0.359375 -1.59375 0.359375q-0.6875 0 -1.25 -0.25q-0.5625 -0.265625 -0.96875 -0.71875q-0.390625 -0.40625 -0.609375 -0.953125q-0.21875 -0.546875 -0.28125 -1.265625l0 -0.078125l7.03125 0l0 -0.75q0 -1.03125 -0.265625 -1.90625q-0.25 -0.890625 -0.78125 -1.546875q-0.53125 -0.640625 -1.328125 -1.0q-0.796875 -0.375 -1.859375 -0.375q-0.84375 0 -1.65625 0.34375q-0.796875 0.34375 -1.4375 0.984375q-0.625 0.65625 -1.015625 1.609375q-0.375 0.9375 -0.375 2.125l0 0.390625q0 1.03125 0.34375 1.90625q0.34375 0.875 0.96875 1.5q0.609375 0.640625 1.484375 1.0q0.875 0.359375 1.90625 0.359375zm-0.21875 -8.84375q0.65625 0 1.125 0.234375q0.46875 0.234375 0.765625 0.625q0.3125 0.375 0.484375 0.90625q0.171875 0.515625 0.171875 0.984375l0 0.078125l-5.296875 0q0.09375 -0.6875 0.34375 -1.203125q0.265625 -0.53125 0.625 -0.890625q0.359375 -0.359375 0.8125 -0.546875q0.453125 -0.1875 0.96875 -0.1875zm10.367447 -0.421875q0 0.53125 0.328125 0.90625q0.34375 0.359375 1.0 0.359375q0.640625 0 0.984375 -0.359375q0.34375 -0.375 0.34375 -0.90625q0 -0.546875 -0.34375 -0.921875q-0.328125 -0.375 -0.984375 -0.375q-0.671875 0 -1.0 0.390625q-0.328125 0.375 -0.328125 0.90625zm2.171875 8.6875l0 -1.609375l-1.828125 0l0 1.640625q0 0.765625 -0.1875 1.484375q-0.1875 0.71875 -0.625 1.359375l1.046875 0.578125q0.734375 -0.65625 1.15625 -1.609375q0.4375 -0.9375 0.4375 -1.84375z" fill-rule="nonzero"/><path fill="#37474f" d="m35.80371 208.02277l0.203125 1.046875q0.890625 -0.015625 1.53125 -0.40625q0.640625 -0.390625 1.078125 -1.0q0.421875 -0.609375 0.609375 -1.359375q0.203125 -0.734375 0.203125 -1.46875l0 -1.53125q0 -0.640625 0.140625 -1.109375q0.15625 -0.46875 0.453125 -0.765625q0.3125 -0.328125 0.796875 -0.46875q0.484375 -0.15625 1.140625 -0.171875l0 -1.3125q-0.734375 0 -1.28125 -0.1875q-0.53125 -0.203125 -0.828125 -0.640625q-0.203125 -0.296875 -0.3125 -0.703125q-0.109375 -0.421875 -0.109375 -0.96875l0 -1.546875q0 -0.765625 -0.203125 -1.546875q-0.203125 -0.78125 -0.671875 -1.40625q-0.40625 -0.5625 -1.046875 -0.90625q-0.625 -0.34375 -1.5 -0.375l-0.1875 1.046875q0.65625 0.015625 1.03125 0.3125q0.390625 0.28125 0.59375 0.734375q0.1875 0.453125 0.234375 1.015625q0.0625 0.5625 0.0625 1.125l0 1.546875q0 0.71875 0.203125 1.328125q0.21875 0.59375 0.65625 1.046875q0.234375 0.25 0.53125 0.453125q0.3125 0.203125 0.671875 0.34375q-0.34375 0.140625 -0.640625 0.34375q-0.296875 0.1875 -0.546875 0.421875q-0.4375 0.453125 -0.65625 1.0625q-0.21875 0.609375 -0.21875 1.328125l0 1.53125q0 0.5625 -0.09375 1.125q-0.09375 0.5625 -0.3125 1.015625q-0.21875 0.453125 -0.59375 0.734375q-0.375 0.296875 -0.9375 0.3125z" fill-rule="nonzero"/><path fill="#1967d2" d="m61.194855 205.92902q1.4375 0 2.421875 -0.578125q0.984375 -0.578125 1.46875 -1.328125l-1.03125 -0.796875q-0.46875 0.59375 -1.171875 0.96875q-0.6875 0.359375 -1.59375 0.359375q-0.6875 0 -1.25 -0.25q-0.5625 -0.265625 -0.96875 -0.71875q-0.390625 -0.40625 -0.609375 -0.953125q-0.21875 -0.546875 -0.28125 -1.265625l0 -0.078125l7.03125 0l0 -0.75q0 -1.03125 -0.265625 -1.90625q-0.25 -0.890625 -0.78125 -1.546875q-0.53125 -0.640625 -1.328125 -1.0q-0.796875 -0.375 -1.859375 -0.375q-0.84375 0 -1.65625 0.34375q-0.796875 0.34375 -1.4375 0.984375q-0.625 0.65625 -1.015625 1.609375q-0.375 0.9375 -0.375 2.125l0 0.390625q0 1.03125 0.34375 1.90625q0.34375 0.875 0.96875 1.5q0.609375 0.640625 1.484375 1.0q0.875 0.359375 1.90625 0.359375zm-0.21875 -8.84375q0.65625 0 1.125 0.234375q0.46875 0.234375 0.765625 0.625q0.3125 0.375 0.484375 0.90625q0.171875 0.515625 0.171875 0.984375l0 0.078125l-5.296875 0q0.09375 -0.6875 0.34375 -1.203125q0.265625 -0.53125 0.625 -0.890625q0.359375 -0.359375 0.8125 -0.546875q0.453125 -0.1875 0.96875 -0.1875zm7.320572 -5.34375l0 1.46875l3.359375 0l0 11.078125l-3.359375 0l0 1.453125l8.265625 0l0 -1.453125l-3.21875 0l0 -12.546875l-5.046875 0zm17.492447 11.390625q0 0.234375 -0.09375 0.453125q-0.09375 0.203125 -0.265625 0.375q-0.28125 0.28125 -0.78125 0.4375q-0.5 0.15625 -1.171875 0.15625q-0.4375 0 -0.875 -0.078125q-0.4375 -0.09375 -0.796875 -0.3125q-0.359375 -0.21875 -0.609375 -0.578125q-0.234375 -0.359375 -0.265625 -0.875l-1.6875 0q0 0.625 0.28125 1.21875q0.296875 0.578125 0.84375 1.015625q0.53125 0.4375 1.3125 0.71875q0.78125 0.265625 1.796875 0.265625q0.875 0 1.609375 -0.203125q0.734375 -0.21875 1.265625 -0.609375q0.53125 -0.375 0.8125 -0.90625q0.296875 -0.546875 0.296875 -1.203125q0 -0.609375 -0.265625 -1.0625q-0.25 -0.46875 -0.734375 -0.828125q-0.5 -0.34375 -1.21875 -0.59375q-0.71875 -0.25 -1.625 -0.453125q-0.6875 -0.125 -1.140625 -0.265625q-0.453125 -0.15625 -0.71875 -0.34375q-0.28125 -0.171875 -0.390625 -0.40625q-0.109375 -0.234375 -0.109375 -0.515625q0 -0.28125 0.140625 -0.546875q0.140625 -0.265625 0.40625 -0.46875q0.265625 -0.203125 0.671875 -0.3125q0.40625 -0.125 0.953125 -0.125q0.515625 0 0.921875 0.15625q0.421875 0.140625 0.71875 0.375q0.28125 0.234375 0.4375 0.546875q0.171875 0.296875 0.171875 0.625l1.6875 0q0 -0.65625 -0.28125 -1.21875q-0.265625 -0.5625 -0.78125 -0.96875q-0.515625 -0.421875 -1.25 -0.65625q-0.71875 -0.234375 -1.625 -0.234375q-0.859375 0 -1.5625 0.234375q-0.703125 0.21875 -1.21875 0.609375q-0.5 0.390625 -0.78125 0.921875q-0.28125 0.515625 -0.28125 1.109375q0 0.609375 0.265625 1.078125q0.28125 0.453125 0.78125 0.796875q0.484375 0.34375 1.171875 0.59375q0.703125 0.234375 1.5625 0.421875q0.6875 0.125 1.140625 0.296875q0.46875 0.171875 0.75 0.375q0.28125 0.203125 0.40625 0.4375q0.125 0.234375 0.125 0.546875zm8.992447 2.796875q1.4375 0 2.421875 -0.578125q0.984375 -0.578125 1.46875 -1.328125l-1.03125 -0.796875q-0.46875 0.59375 -1.171875 0.96875q-0.6875 0.359375 -1.59375 0.359375q-0.6875 0 -1.25 -0.25q-0.5625 -0.265625 -0.96875 -0.71875q-0.390625 -0.40625 -0.609375 -0.953125q-0.21875 -0.546875 -0.28125 -1.265625l0 -0.078125l7.03125 0l0 -0.75q0 -1.03125 -0.265625 -1.90625q-0.25 -0.890625 -0.78125 -1.546875q-0.53125 -0.640625 -1.328125 -1.0q-0.796875 -0.375 -1.859375 -0.375q-0.84375 0 -1.65625 0.34375q-0.796875 0.34375 -1.4375 0.984375q-0.625 0.65625 -1.015625 1.609375q-0.375 0.9375 -0.375 2.125l0 0.390625q0 1.03125 0.34375 1.90625q0.34375 0.875 0.96875 1.5q0.609375 0.640625 1.484375 1.0q0.875 0.359375 1.90625 0.359375zm-0.21875 -8.84375q0.65625 0 1.125 0.234375q0.46875 0.234375 0.765625 0.625q0.3125 0.375 0.484375 0.90625q0.171875 0.515625 0.171875 0.984375l0 0.078125l-5.296875 0q0.09375 -0.6875 0.34375 -1.203125q0.265625 -0.53125 0.625 -0.890625q0.359375 -0.359375 0.8125 -0.546875q0.453125 -0.1875 0.96875 -0.1875z" fill-rule="nonzero"/><path fill="#37474f" d="m120.141464 209.06964l0.1875 -1.046875q-0.5625 -0.015625 -0.9375 -0.3125q-0.359375 -0.28125 -0.578125 -0.734375q-0.234375 -0.453125 -0.328125 -1.015625q-0.078125 -0.5625 -0.078125 -1.125l0 -1.53125q-0.015625 -1.09375 -0.515625 -1.90625q-0.5 -0.828125 -1.5625 -1.25q1.0625 -0.421875 1.5625 -1.25q0.515625 -0.828125 0.515625 -1.921875l0 -1.546875q0 -0.5625 0.046875 -1.125q0.0625 -0.5625 0.265625 -1.015625q0.1875 -0.453125 0.5625 -0.734375q0.390625 -0.296875 1.046875 -0.3125l-0.1875 -1.046875q-0.921875 0.03125 -1.5625 0.40625q-0.640625 0.359375 -1.046875 0.9375q-0.4375 0.609375 -0.640625 1.390625q-0.1875 0.765625 -0.1875 1.5l0 1.546875q0 1.328125 -0.625 1.921875q-0.609375 0.578125 -1.90625 0.578125l0 1.3125q1.296875 0.015625 1.90625 0.609375q0.625 0.59375 0.625 1.90625l0 1.53125q0 0.734375 0.203125 1.46875q0.21875 0.75 0.625 1.34375q0.4375 0.640625 1.078125 1.015625q0.65625 0.390625 1.53125 0.40625z" fill-rule="nonzero"/><path fill="#1967d2" d="m63.30423 217.71028q-1.078125 0 -1.921875 0.46875q-0.84375 0.46875 -1.4375 1.265625l-0.015625 -0.234375l-0.078125 -1.328125l-1.59375 0l0 9.859375l1.6875 0l0 -6.328125q0.171875 -0.453125 0.421875 -0.8125q0.25 -0.375 0.578125 -0.625q0.375 -0.296875 0.875 -0.4375q0.5 -0.15625 1.125 -0.15625q0.484375 0 0.921875 0.046875q0.453125 0.046875 0.9375 0.15625l0.234375 -1.640625q-0.265625 -0.109375 -0.765625 -0.171875q-0.5 -0.0625 -0.96875 -0.0625zm9.086197 10.21875q1.4375 0 2.421875 -0.578125q0.984375 -0.578125 1.46875 -1.328125l-1.03125 -0.796875q-0.46875 0.59375 -1.171875 0.96875q-0.6875 0.359375 -1.59375 0.359375q-0.6875 0 -1.25 -0.25q-0.5625 -0.265625 -0.96875 -0.71875q-0.390625 -0.40625 -0.609375 -0.953125q-0.21875 -0.546875 -0.28125 -1.265625l0 -0.078125l7.03125 0l0 -0.75q0 -1.03125 -0.265625 -1.90625q-0.25 -0.890625 -0.78125 -1.546875q-0.53125 -0.640625 -1.328125 -1.0q-0.796875 -0.375 -1.859375 -0.375q-0.84375 0 -1.65625 0.34375q-0.796875 0.34375 -1.4375 0.984375q-0.625 0.65625 -1.015625 1.609375q-0.375 0.9375 -0.375 2.125l0 0.390625q0 1.03125 0.34375 1.90625q0.34375 0.875 0.96875 1.5q0.609375 0.640625 1.484375 1.0q0.875 0.359375 1.90625 0.359375zm-0.21875 -8.84375q0.65625 0 1.125 0.234375q0.46875 0.234375 0.765625 0.625q0.3125 0.375 0.484375 0.90625q0.171875 0.515625 0.171875 0.984375l0 0.078125l-5.296875 0q0.09375 -0.6875 0.34375 -1.203125q0.265625 -0.53125 0.625 -0.890625q0.359375 -0.359375 0.8125 -0.546875q0.453125 -0.1875 0.96875 -0.1875zm11.054947 -3.59375l-1.703125 0l0 2.390625l-2.578125 0l0 1.3125l2.578125 0l0 5.34375q0 0.921875 0.234375 1.5625q0.25 0.640625 0.671875 1.046875q0.421875 0.40625 0.984375 0.59375q0.578125 0.1875 1.234375 0.1875q0.390625 0 0.78125 -0.046875q0.40625 -0.03125 0.75 -0.109375q0.359375 -0.0625 0.65625 -0.15625q0.296875 -0.09375 0.515625 -0.21875l-0.234375 -1.203125q-0.15625 0.046875 -0.40625 0.09375q-0.234375 0.046875 -0.515625 0.09375q-0.28125 0.046875 -0.578125 0.078125q-0.28125 0.03125 -0.546875 0.03125q-0.375 0 -0.71875 -0.09375q-0.328125 -0.09375 -0.578125 -0.3125q-0.265625 -0.21875 -0.40625 -0.59375q-0.140625 -0.375 -0.140625 -0.953125l0 -5.34375l3.75 0l0 -1.3125l-3.75 0l0 -2.390625zm13.695572 12.25l1.53125 0l0 -9.859375l-1.6875 0l0 7.078125q-0.140625 0.3125 -0.34375 0.578125q-0.203125 0.265625 -0.484375 0.46875q-0.328125 0.234375 -0.78125 0.375q-0.4375 0.125 -1.0 0.125q-0.484375 0 -0.859375 -0.125q-0.359375 -0.140625 -0.625 -0.453125q-0.25 -0.3125 -0.375 -0.828125q-0.125 -0.53125 -0.125 -1.34375l0 -5.875l-1.6875 0l0 5.859375q0 1.109375 0.234375 1.890625q0.25 0.78125 0.6875 1.296875q0.453125 0.515625 1.078125 0.765625q0.625 0.234375 1.40625 0.234375q0.96875 0 1.703125 -0.40625q0.734375 -0.40625 1.234375 -1.140625l0.09375 1.359375zm11.164322 -10.03125q-1.078125 0 -1.921875 0.46875q-0.84375 0.46875 -1.4375 1.265625l-0.015625 -0.234375l-0.078125 -1.328125l-1.59375 0l0 9.859375l1.6875 0l0 -6.328125q0.171875 -0.453125 0.421875 -0.8125q0.25 -0.375 0.578125 -0.625q0.375 -0.296875 0.875 -0.4375q0.5 -0.15625 1.125 -0.15625q0.484375 0 0.921875 0.046875q0.453125 0.046875 0.9375 0.15625l0.234375 -1.640625q-0.265625 -0.109375 -0.765625 -0.171875q-0.5 -0.0625 -0.96875 -0.0625zm4.726822 10.03125l1.6875 0l0 -7.0625q0.171875 -0.328125 0.40625 -0.59375q0.234375 -0.265625 0.515625 -0.453125q0.328125 -0.234375 0.71875 -0.359375q0.40625 -0.140625 0.875 -0.140625q0.546875 0 0.953125 0.125q0.421875 0.125 0.703125 0.40625q0.28125 0.296875 0.421875 0.75q0.15625 0.453125 0.15625 1.109375l0 6.21875l1.6875 0l0 -6.265625q0 -0.96875 -0.25 -1.6875q-0.234375 -0.71875 -0.6875 -1.1875q-0.4375 -0.453125 -1.078125 -0.671875q-0.625 -0.21875 -1.40625 -0.21875q-0.5625 0 -1.078125 0.171875q-0.515625 0.15625 -0.953125 0.4375q-0.296875 0.1875 -0.5625 0.453125q-0.25 0.265625 -0.46875 0.5625l-0.125 -1.453125l-1.515625 0l0 9.859375z" fill-rule="nonzero"/><path fill="#37474f" d="m137.72011 227.74153l1.703125 0l0 -8.546875l3.796875 0l0 -1.3125l-3.796875 0l0 -0.6875q0 -0.625 0.15625 -1.078125q0.15625 -0.46875 0.46875 -0.765625q0.296875 -0.28125 0.734375 -0.421875q0.4375 -0.140625 1.015625 -0.140625q0.5625 0 1.0625 0.09375q0.5 0.09375 0.875 0.21875l0.1875 -1.390625q-0.234375 -0.0625 -0.46875 -0.109375q-0.21875 -0.046875 -0.453125 -0.09375q-0.34375 -0.0625 -0.703125 -0.109375q-0.34375 -0.046875 -0.703125 -0.046875q-0.875 0 -1.59375 0.25q-0.703125 0.25 -1.203125 0.734375q-0.515625 0.484375 -0.796875 1.203125q-0.28125 0.703125 -0.28125 1.65625l0 0.6875l-2.703125 0l0 1.3125l2.703125 0l0 8.546875zm15.164322 0l1.75 0l0 -0.140625q-0.15625 -0.421875 -0.25 -0.96875q-0.09375 -0.546875 -0.09375 -1.046875l0 -4.578125q0 -0.828125 -0.296875 -1.4375q-0.296875 -0.625 -0.8125 -1.046875q-0.53125 -0.40625 -1.25 -0.609375q-0.71875 -0.203125 -1.5625 -0.203125q-0.921875 0 -1.65625 0.25q-0.71875 0.25 -1.21875 0.65625q-0.5 0.421875 -0.78125 0.953125q-0.265625 0.515625 -0.265625 1.046875l1.6875 0q0 -0.3125 0.140625 -0.59375q0.15625 -0.28125 0.4375 -0.5q0.265625 -0.203125 0.65625 -0.328125q0.40625 -0.140625 0.90625 -0.140625q0.546875 0 0.96875 0.140625q0.4375 0.140625 0.734375 0.390625q0.296875 0.25 0.453125 0.609375q0.171875 0.34375 0.171875 0.796875l0 0.78125l-1.828125 0q-1.03125 0 -1.875 0.203125q-0.828125 0.1875 -1.421875 0.59375q-0.59375 0.40625 -0.921875 1.015625q-0.3125 0.609375 -0.3125 1.421875q0 0.625 0.234375 1.15625q0.25 0.53125 0.6875 0.90625q0.4375 0.40625 1.0625 0.640625q0.640625 0.21875 1.4375 0.21875q0.46875 0 0.890625 -0.109375q0.4375 -0.09375 0.828125 -0.265625q0.375 -0.171875 0.6875 -0.390625q0.3125 -0.234375 0.5625 -0.5q0.03125 0.3125 0.09375 0.609375q0.0625 0.28125 0.15625 0.46875zm-2.984375 -1.28125q-0.484375 0 -0.859375 -0.125q-0.375 -0.140625 -0.625 -0.359375q-0.234375 -0.21875 -0.359375 -0.53125q-0.125 -0.3125 -0.125 -0.671875q0 -0.390625 0.140625 -0.6875q0.140625 -0.296875 0.40625 -0.515625q0.390625 -0.3125 1.03125 -0.453125q0.65625 -0.15625 1.53125 -0.15625l1.5625 0l0 2.0q-0.140625 0.28125 -0.40625 0.5625q-0.25 0.265625 -0.59375 0.46875q-0.34375 0.203125 -0.78125 0.34375q-0.421875 0.125 -0.921875 0.125zm7.961197 -12.71875l0 1.46875l3.359375 0l0 11.078125l-3.359375 0l0 1.453125l8.265625 0l0 -1.453125l-3.21875 0l0 -12.546875l-5.046875 0zm17.492447 11.390625q0 0.234375 -0.09375 0.453125q-0.09375 0.203125 -0.265625 0.375q-0.28125 0.28125 -0.78125 0.4375q-0.5 0.15625 -1.171875 0.15625q-0.4375 0 -0.875 -0.078125q-0.4375 -0.09375 -0.796875 -0.3125q-0.359375 -0.21875 -0.609375 -0.578125q-0.234375 -0.359375 -0.265625 -0.875l-1.6875 0q0 0.625 0.28125 1.21875q0.296875 0.578125 0.84375 1.015625q0.53125 0.4375 1.3125 0.71875q0.78125 0.265625 1.796875 0.265625q0.875 0 1.609375 -0.203125q0.734375 -0.21875 1.265625 -0.609375q0.53125 -0.375 0.8125 -0.90625q0.296875 -0.546875 0.296875 -1.203125q0 -0.609375 -0.265625 -1.0625q-0.25 -0.46875 -0.734375 -0.828125q-0.5 -0.34375 -1.21875 -0.59375q-0.71875 -0.25 -1.625 -0.453125q-0.6875 -0.125 -1.140625 -0.265625q-0.453125 -0.15625 -0.71875 -0.34375q-0.28125 -0.171875 -0.390625 -0.40625q-0.109375 -0.234375 -0.109375 -0.515625q0 -0.28125 0.140625 -0.546875q0.140625 -0.265625 0.40625 -0.46875q0.265625 -0.203125 0.671875 -0.3125q0.40625 -0.125 0.953125 -0.125q0.515625 0 0.921875 0.15625q0.421875 0.140625 0.71875 0.375q0.28125 0.234375 0.4375 0.546875q0.171875 0.296875 0.171875 0.625l1.6875 0q0 -0.65625 -0.28125 -1.21875q-0.265625 -0.5625 -0.78125 -0.96875q-0.515625 -0.421875 -1.25 -0.65625q-0.71875 -0.234375 -1.625 -0.234375q-0.859375 0 -1.5625 0.234375q-0.703125 0.21875 -1.21875 0.609375q-0.5 0.390625 -0.78125 0.921875q-0.28125 0.515625 -0.28125 1.109375q0 0.609375 0.265625 1.078125q0.28125 0.453125 0.78125 0.796875q0.484375 0.34375 1.171875 0.59375q0.703125 0.234375 1.5625 0.421875q0.6875 0.125 1.140625 0.296875q0.46875 0.171875 0.75 0.375q0.28125 0.203125 0.40625 0.4375q0.125 0.234375 0.125 0.546875zm8.992447 2.796875q1.4375 0 2.421875 -0.578125q0.984375 -0.578125 1.46875 -1.328125l-1.03125 -0.796875q-0.46875 0.59375 -1.171875 0.96875q-0.6875 0.359375 -1.59375 0.359375q-0.6875 0 -1.25 -0.25q-0.5625 -0.265625 -0.96875 -0.71875q-0.390625 -0.40625 -0.609375 -0.953125q-0.21875 -0.546875 -0.28125 -1.265625l0 -0.078125l7.03125 0l0 -0.75q0 -1.03125 -0.265625 -1.90625q-0.25 -0.890625 -0.78125 -1.546875q-0.53125 -0.640625 -1.328125 -1.0q-0.796875 -0.375 -1.859375 -0.375q-0.84375 0 -1.65625 0.34375q-0.796875 0.34375 -1.4375 0.984375q-0.625 0.65625 -1.015625 1.609375q-0.375 0.9375 -0.375 2.125l0 0.390625q0 1.03125 0.34375 1.90625q0.34375 0.875 0.96875 1.5q0.609375 0.640625 1.484375 1.0q0.875 0.359375 1.90625 0.359375zm-0.21875 -8.84375q0.65625 0 1.125 0.234375q0.46875 0.234375 0.765625 0.625q0.3125 0.375 0.484375 0.90625q0.171875 0.515625 0.171875 0.984375l0 0.078125l-5.296875 0q0.09375 -0.6875 0.34375 -1.203125q0.265625 -0.53125 0.625 -0.890625q0.359375 -0.359375 0.8125 -0.546875q0.453125 -0.1875 0.96875 -0.1875zm10.367447 -0.421875q0 0.53125 0.328125 0.90625q0.34375 0.359375 1.0 0.359375q0.640625 0 0.984375 -0.359375q0.34375 -0.375 0.34375 -0.90625q0 -0.546875 -0.34375 -0.921875q-0.328125 -0.375 -0.984375 -0.375q-0.671875 0 -1.0 0.390625q-0.328125 0.375 -0.328125 0.90625zm2.171875 8.6875l0 -1.609375l-1.828125 0l0 1.640625q0 0.765625 -0.1875 1.484375q-0.1875 0.71875 -0.625 1.359375l1.046875 0.578125q0.734375 -0.65625 1.15625 -1.609375q0.4375 -0.9375 0.4375 -1.84375z" fill-rule="nonzero"/><path fill="#37474f" d="m35.80371 252.02278l0.203125 1.046875q0.890625 -0.015625 1.53125 -0.40625q0.640625 -0.390625 1.078125 -1.0q0.421875 -0.609375 0.609375 -1.359375q0.203125 -0.734375 0.203125 -1.46875l0 -1.53125q0 -0.640625 0.140625 -1.109375q0.15625 -0.46875 0.453125 -0.765625q0.3125 -0.328125 0.796875 -0.46875q0.484375 -0.15625 1.140625 -0.171875l0 -1.3125q-0.734375 0 -1.28125 -0.1875q-0.53125 -0.203125 -0.828125 -0.640625q-0.203125 -0.296875 -0.3125 -0.703125q-0.109375 -0.421875 -0.109375 -0.96875l0 -1.546875q0 -0.765625 -0.203125 -1.546875q-0.203125 -0.78125 -0.671875 -1.40625q-0.40625 -0.5625 -1.046875 -0.90625q-0.625 -0.34375 -1.5 -0.375l-0.1875 1.046875q0.65625 0.015625 1.03125 0.3125q0.390625 0.28125 0.59375 0.734375q0.1875 0.453125 0.234375 1.015625q0.0625 0.5625 0.0625 1.125l0 1.546875q0 0.71875 0.203125 1.328125q0.21875 0.59375 0.65625 1.046875q0.234375 0.25 0.53125 0.453125q0.3125 0.203125 0.671875 0.34375q-0.34375 0.140625 -0.640625 0.34375q-0.296875 0.1875 -0.546875 0.421875q-0.4375 0.453125 -0.65625 1.0625q-0.21875 0.609375 -0.21875 1.328125l0 1.53125q0 0.5625 -0.09375 1.125q-0.09375 0.5625 -0.3125 1.015625q-0.21875 0.453125 -0.59375 0.734375q-0.375 0.296875 -0.9375 0.3125z" fill-rule="nonzero"/><path fill="#37474f" d="m13.412565 274.02277l0.203125 1.046875q0.890625 -0.015625 1.53125 -0.40625q0.640625 -0.390625 1.078125 -1.0q0.421875 -0.609375 0.609375 -1.359375q0.203125 -0.734375 0.203125 -1.46875l0 -1.53125q0 -0.640625 0.140625 -1.109375q0.15625 -0.46875 0.453125 -0.765625q0.3125 -0.328125 0.796875 -0.46875q0.484375 -0.15625 1.140625 -0.171875l0 -1.3125q-0.734375 0 -1.28125 -0.1875q-0.53125 -0.203125 -0.828125 -0.640625q-0.203125 -0.296875 -0.3125 -0.703125q-0.109375 -0.421875 -0.109375 -0.96875l0 -1.546875q0 -0.765625 -0.203125 -1.546875q-0.203125 -0.78125 -0.671875 -1.40625q-0.40625 -0.5625 -1.046875 -0.90625q-0.625 -0.34375 -1.5 -0.375l-0.1875 1.046875q0.65625 0.015625 1.03125 0.3125q0.390625 0.28125 0.59375 0.734375q0.1875 0.453125 0.234375 1.015625q0.0625 0.5625 0.0625 1.125l0 1.546875q0 0.71875 0.203125 1.328125q0.21875 0.59375 0.65625 1.046875q0.234375 0.25 0.53125 0.453125q0.3125 0.203125 0.671875 0.34375q-0.34375 0.140625 -0.640625 0.34375q-0.296875 0.1875 -0.546875 0.421875q-0.4375 0.453125 -0.65625 1.0625q-0.21875 0.609375 -0.21875 1.328125l0 1.53125q0 0.5625 -0.09375 1.125q-0.09375 0.5625 -0.3125 1.015625q-0.21875 0.453125 -0.59375 0.734375q-0.375 0.296875 -0.9375 0.3125z" fill-rule="nonzero"/><path fill="#cfe2f3" d="m664.4094 72.5105l133.41736 0l0 75.65355l-133.41736 0z" fill-rule="evenodd"/><path stroke="#000000" stroke-width="1.0" stroke-linejoin="round" stroke-linecap="butt" d="m664.4094 72.5105l133.41736 0l0 75.65355l-133.41736 0z" fill-rule="evenodd"/><path fill="#000000" d="m677.6907 93.741646l2.703125 -8.34375l1.71875 0l-3.546875 9.859375l-1.125 0l0.25 -1.515625zm-2.25 -8.34375l2.78125 8.390625l0.1875 1.46875l-1.125 0l-3.578125 -9.859375l1.734375 0zm13.645996 -3.484375l0 13.34375l-1.6875 0l0 -11.234375l-3.390625 1.234375l0 -1.515625l4.8125 -1.828125l0.265625 0zm5.0631714 12.453125q0 -0.4375 0.265625 -0.71875q0.265625 -0.296875 0.78125 -0.296875q0.515625 0 0.78125 0.296875q0.265625 0.28125 0.265625 0.71875q0 0.421875 -0.265625 0.71875q-0.265625 0.28125 -0.78125 0.28125q-0.515625 0 -0.78125 -0.28125q-0.265625 -0.296875 -0.265625 -0.71875zm0 -8.046875q0 -0.4375 0.265625 -0.71875q0.265625 -0.296875 0.78125 -0.296875q0.515625 0 0.78125 0.296875q0.265625 0.28125 0.265625 0.71875q0 0.421875 -0.265625 0.71875q-0.265625 0.28125 -0.78125 0.28125q-0.515625 0 -0.78125 -0.28125q-0.265625 -0.296875 -0.265625 -0.71875zm10.34906 -0.921875l2.15625 3.59375l2.1875 -3.59375l1.984375 0l-3.234375 4.875l3.328125 4.984375l-1.953125 0l-2.265625 -3.703125l-2.28125 3.703125l-1.96875 0l3.328125 -4.984375l-3.21875 -4.875l1.9375 0zm12.414124 -0.15625l0 -0.703125q0 -0.75 0.328125 -1.359375q0.328125 -0.625 0.9375 -1.0q0.609375 -0.375 1.453125 -0.375q0.859375 0 1.453125 0.375q0.609375 0.375 0.9375 1.0q0.328125 0.609375 0.328125 1.359375l0 0.703125q0 0.734375 -0.328125 1.359375q-0.3125 0.625 -0.921875 1.0q-0.609375 0.375 -1.453125 0.375q-0.84375 0 -1.46875 -0.375q-0.609375 -0.375 -0.9375 -1.0q-0.328125 -0.625 -0.328125 -1.359375zm1.265625 -0.703125l0 0.703125q0 0.421875 0.15625 0.796875q0.171875 0.375 0.5 0.609375q0.328125 0.234375 0.8125 0.234375q0.5 0 0.8125 -0.234375q0.3125 -0.234375 0.46875 -0.609375q0.15625 -0.375 0.15625 -0.796875l0 -0.703125q0 -0.421875 -0.15625 -0.796875q-0.15625 -0.375 -0.484375 -0.609375q-0.328125 -0.234375 -0.8125 -0.234375q-0.484375 0 -0.8125 0.234375q-0.3125 0.234375 -0.484375 0.609375q-0.15625 0.375 -0.15625 0.796875zm5.203125 8.171875l0 -0.703125q0 -0.75 0.328125 -1.359375q0.328125 -0.625 0.9375 -1.0q0.609375 -0.375 1.4375 -0.375q0.859375 0 1.46875 0.375q0.609375 0.375 0.9375 1.0q0.328125 0.609375 0.328125 1.359375l0 0.703125q0 0.75 -0.328125 1.375q-0.328125 0.609375 -0.9375 0.984375q-0.59375 0.375 -1.453125 0.375q-0.84375 0 -1.453125 -0.375q-0.609375 -0.375 -0.9375 -0.984375q-0.328125 -0.625 -0.328125 -1.375zm1.265625 -0.703125l0 0.703125q0 0.421875 0.15625 0.8125q0.15625 0.375 0.484375 0.609375q0.328125 0.21875 0.8125 0.21875q0.5 0 0.8125 -0.21875q0.328125 -0.234375 0.484375 -0.609375q0.15625 -0.375 0.15625 -0.8125l0 -0.703125q0 -0.4375 -0.15625 -0.796875q-0.15625 -0.375 -0.484375 -0.609375q-0.328125 -0.234375 -0.828125 -0.234375q-0.484375 0 -0.8125 0.234375q-0.3125 0.234375 -0.46875 0.609375q-0.15625 0.359375 -0.15625 0.796875zm1.859375 -8.125l-6.46875 10.359375l-0.953125 -0.59375l6.46875 -10.375l0.953125 0.609375zm17.54187 9.984375l0 1.390625l-8.6875 0l0 -1.21875l4.34375 -4.828125q0.8125 -0.890625 1.25 -1.515625q0.4375 -0.625 0.609375 -1.125q0.1875 -0.5 0.1875 -1.015625q0 -0.65625 -0.28125 -1.1875q-0.265625 -0.53125 -0.78125 -0.84375q-0.515625 -0.328125 -1.25 -0.328125q-0.890625 0 -1.484375 0.34375q-0.578125 0.34375 -0.875 0.953125q-0.28125 0.609375 -0.28125 1.40625l-1.6875 0q0 -1.125 0.484375 -2.046875q0.5 -0.9375 1.453125 -1.484375q0.96875 -0.5625 2.390625 -0.5625q1.25 0 2.140625 0.453125q0.890625 0.4375 1.375 1.234375q0.484375 0.796875 0.484375 1.859375q0 0.59375 -0.203125 1.1875q-0.1875 0.59375 -0.53125 1.1875q-0.34375 0.59375 -0.796875 1.171875q-0.453125 0.5625 -0.953125 1.125l-3.5625 3.84375l6.65625 0z" fill-rule="nonzero"/><path fill="#000000" d="m677.6907 115.741646l2.703125 -8.34375l1.71875 0l-3.546875 9.859375l-1.125 0l0.25 -1.515625zm-2.25 -8.34375l2.78125 8.390625l0.1875 1.46875l-1.125 0l-3.578125 -9.859375l1.734375 0zm16.802246 8.46875l0 1.390625l-8.6875 0l0 -1.21875l4.34375 -4.828125q0.8125 -0.890625 1.25 -1.515625q0.4375 -0.625 0.609375 -1.125q0.1875 -0.5 0.1875 -1.015625q0 -0.65625 -0.28125 -1.1875q-0.265625 -0.53125 -0.78125 -0.84375q-0.515625 -0.328125 -1.25 -0.328125q-0.890625 0 -1.484375 0.34375q-0.578125 0.34375 -0.875 0.953125q-0.28125 0.609375 -0.28125 1.40625l-1.6875 0q0 -1.125 0.484375 -2.046875q0.5 -0.9375 1.453125 -1.484375q0.96875 -0.5625 2.390625 -0.5625q1.25 0 2.140625 0.453125q0.890625 0.4375 1.375 1.234375q0.484375 0.796875 0.484375 1.859375q0 0.59375 -0.203125 1.1875q-0.1875 0.59375 -0.53125 1.1875q-0.34375 0.59375 -0.796875 1.171875q-0.453125 0.5625 -0.953125 1.125l-3.5625 3.84375l6.65625 0zm1.9069214 0.5q0 -0.4375 0.265625 -0.71875q0.265625 -0.296875 0.78125 -0.296875q0.515625 0 0.78125 0.296875q0.265625 0.28125 0.265625 0.71875q0 0.421875 -0.265625 0.71875q-0.265625 0.28125 -0.78125 0.28125q-0.515625 0 -0.78125 -0.28125q-0.265625 -0.296875 -0.265625 -0.71875zm0 -8.046875q0 -0.4375 0.265625 -0.71875q0.265625 -0.296875 0.78125 -0.296875q0.515625 0 0.78125 0.296875q0.265625 0.28125 0.265625 0.71875q0 0.421875 -0.265625 0.71875q-0.265625 0.28125 -0.78125 0.28125q-0.515625 0 -0.78125 -0.28125q-0.265625 -0.296875 -0.265625 -0.71875zm12.208435 7.421875l2.703125 -8.34375l1.71875 0l-3.546875 9.859375l-1.125 0l0.25 -1.515625zm-2.25 -8.34375l2.78125 8.390625l0.1875 1.46875l-1.125 0l-3.578125 -9.859375l1.734375 0zm13.645996 -3.484375l0 13.34375l-1.6875 0l0 -11.234375l-3.390625 1.234375l0 -1.515625l4.8125 -1.828125l0.265625 0zm17.45642 4.46875l0 1.453125l-7.59375 0l0 -1.453125l7.59375 0zm0 3.78125l0 1.453125l-7.59375 0l0 -1.453125l7.59375 0zm10.239075 -3.78125l0 1.453125l-7.59375 0l0 -1.453125l7.59375 0zm0 3.78125l0 1.453125l-7.59375 0l0 -1.453125l7.59375 0zm15.304199 -2.59375l0 2.015625q0 1.640625 -0.296875 2.765625q-0.28125 1.109375 -0.828125 1.796875q-0.546875 0.6875 -1.3125 1.0q-0.765625 0.296875 -1.734375 0.296875q-0.765625 0 -1.421875 -0.1875q-0.640625 -0.203125 -1.15625 -0.625q-0.515625 -0.421875 -0.875 -1.09375q-0.359375 -0.6875 -0.5625 -1.65625q-0.1875 -0.984375 -0.1875 -2.296875l0 -2.015625q0 -1.625 0.296875 -2.734375q0.296875 -1.109375 0.84375 -1.765625q0.546875 -0.671875 1.3125 -0.96875q0.765625 -0.296875 1.734375 -0.296875q0.765625 0 1.421875 0.1875q0.65625 0.1875 1.15625 0.59375q0.515625 0.40625 0.875 1.078125q0.359375 0.671875 0.546875 1.640625q0.1875 0.96875 0.1875 2.265625zm-1.6875 2.296875l0 -2.578125q0 -0.890625 -0.109375 -1.5625q-0.09375 -0.6875 -0.296875 -1.171875q-0.203125 -0.484375 -0.515625 -0.78125q-0.296875 -0.296875 -0.703125 -0.4375q-0.390625 -0.140625 -0.875 -0.140625q-0.609375 0 -1.078125 0.21875q-0.453125 0.21875 -0.78125 0.703125q-0.3125 0.484375 -0.484375 1.265625q-0.15625 0.78125 -0.15625 1.90625l0 2.578125q0 0.890625 0.109375 1.578125q0.109375 0.671875 0.3125 1.171875q0.21875 0.5 0.515625 0.828125q0.296875 0.3125 0.6875 0.46875q0.40625 0.140625 0.890625 0.140625q0.609375 0 1.078125 -0.234375q0.46875 -0.234375 0.78125 -0.734375q0.3125 -0.515625 0.46875 -1.3125q0.15625 -0.796875 0.15625 -1.90625z" fill-rule="nonzero"/><path fill="#000000" d="m679.67505 133.05414l-3.359375 0l-0.015625 -1.40625l3.046875 0q0.765625 0 1.328125 -0.25q0.5625 -0.265625 0.875 -0.734375q0.3125 -0.484375 0.3125 -1.15625q0 -0.71875 -0.28125 -1.171875q-0.28125 -0.46875 -0.84375 -0.6875q-0.5625 -0.21875 -1.4375 -0.21875l-2.59375 0l0 11.828125l-1.75 0l0 -13.265625l4.34375 0q1.015625 0 1.8125 0.203125q0.8125 0.203125 1.359375 0.640625q0.5625 0.4375 0.859375 1.109375q0.296875 0.65625 0.296875 1.578125q0 0.828125 -0.421875 1.484375q-0.421875 0.65625 -1.171875 1.078125q-0.734375 0.421875 -1.734375 0.546875l-0.625 0.421875zm-0.078125 6.203125l-3.96875 0l0.984375 -1.4375l2.984375 0q0.828125 0 1.421875 -0.28125q0.59375 -0.296875 0.890625 -0.828125q0.3125 -0.53125 0.3125 -1.265625q0 -0.734375 -0.265625 -1.265625q-0.25 -0.546875 -0.828125 -0.828125q-0.5625 -0.296875 -1.453125 -0.296875l-2.5 0l0.015625 -1.40625l3.421875 0l0.375 0.5q0.953125 0.09375 1.609375 0.546875q0.671875 0.453125 1.015625 1.171875q0.359375 0.703125 0.359375 1.5625q0 1.234375 -0.546875 2.09375q-0.53125 0.84375 -1.515625 1.296875q-0.984375 0.4375 -2.3125 0.4375zm8.404968 -8.3125l0 8.3125l-1.6875 0l0 -9.859375l1.640625 0l0.046875 1.546875zm3.078125 -1.59375l0 1.5625q-0.21875 -0.046875 -0.40625 -0.0625q-0.1875 -0.015625 -0.421875 -0.015625q-0.578125 0 -1.03125 0.1875q-0.4375 0.1875 -0.75 0.515625q-0.3125 0.328125 -0.5 0.78125q-0.171875 0.4375 -0.21875 0.984375l-0.484375 0.265625q0 -0.890625 0.171875 -1.671875q0.1875 -0.78125 0.5625 -1.390625q0.375 -0.609375 0.953125 -0.9375q0.578125 -0.34375 1.375 -0.34375q0.1875 0 0.421875 0.046875q0.234375 0.03125 0.328125 0.078125zm7.0043335 8.21875l0 -5.078125q0 -0.578125 -0.234375 -1.0q-0.234375 -0.4375 -0.703125 -0.671875q-0.453125 -0.25 -1.140625 -0.25q-0.640625 0 -1.125 0.21875q-0.46875 0.21875 -0.734375 0.578125q-0.265625 0.359375 -0.265625 0.765625l-1.6875 0q0 -0.53125 0.265625 -1.046875q0.28125 -0.515625 0.796875 -0.9375q0.515625 -0.421875 1.234375 -0.671875q0.734375 -0.25 1.625 -0.25q1.0625 0 1.890625 0.359375q0.828125 0.359375 1.296875 1.09375q0.46875 0.734375 0.46875 1.84375l0 4.578125q0 0.5 0.078125 1.0625q0.09375 0.546875 0.265625 0.953125l0 0.140625l-1.75 0q-0.140625 -0.296875 -0.21875 -0.78125q-0.0625 -0.484375 -0.0625 -0.90625zm0.296875 -4.28125l0.015625 1.171875l-1.703125 0q-0.71875 0 -1.28125 0.125q-0.5625 0.109375 -0.953125 0.34375q-0.375 0.21875 -0.578125 0.5625q-0.203125 0.34375 -0.203125 0.796875q0 0.46875 0.203125 0.859375q0.21875 0.375 0.640625 0.59375q0.421875 0.21875 1.046875 0.21875q0.765625 0 1.359375 -0.328125q0.59375 -0.328125 0.9375 -0.796875q0.359375 -0.46875 0.390625 -0.921875l0.71875 0.8125q-0.0625 0.375 -0.359375 0.84375q-0.28125 0.46875 -0.75 0.890625q-0.46875 0.421875 -1.109375 0.703125q-0.640625 0.28125 -1.4375 0.28125q-1.0 0 -1.75 -0.390625q-0.75 -0.390625 -1.171875 -1.046875q-0.40625 -0.671875 -0.40625 -1.484375q0 -0.796875 0.296875 -1.40625q0.3125 -0.609375 0.890625 -1.015625q0.59375 -0.40625 1.40625 -0.609375q0.828125 -0.203125 1.828125 -0.203125l1.96875 0zm5.726074 -1.78125l0 7.75l-1.6875 0l0 -9.859375l1.59375 0l0.09375 2.109375zm-0.40625 2.453125l-0.6875 -0.03125q0 -1.015625 0.28125 -1.875q0.296875 -0.859375 0.828125 -1.5q0.53125 -0.640625 1.265625 -0.984375q0.734375 -0.34375 1.625 -0.34375q0.734375 0 1.3125 0.203125q0.578125 0.1875 0.984375 0.609375q0.421875 0.421875 0.640625 1.109375q0.21875 0.671875 0.21875 1.65625l0 6.453125l-1.6875 0l0 -6.484375q0 -0.765625 -0.234375 -1.234375q-0.21875 -0.46875 -0.65625 -0.6875q-0.4375 -0.21875 -1.078125 -0.21875q-0.625 0 -1.140625 0.265625q-0.515625 0.265625 -0.890625 0.734375q-0.359375 0.46875 -0.578125 1.0625q-0.203125 0.59375 -0.203125 1.265625zm12.974731 4.09375q0.59375 0 1.09375 -0.234375q0.515625 -0.25 0.84375 -0.6875q0.328125 -0.4375 0.375 -0.984375l1.609375 0q-0.046875 0.875 -0.59375 1.625q-0.53125 0.75 -1.40625 1.21875q-0.875 0.453125 -1.921875 0.453125q-1.109375 0 -1.9375 -0.390625q-0.828125 -0.390625 -1.375 -1.078125q-0.53125 -0.6875 -0.8125 -1.578125q-0.265625 -0.890625 -0.265625 -1.875l0 -0.390625q0 -0.984375 0.265625 -1.875q0.28125 -0.890625 0.8125 -1.5625q0.546875 -0.6875 1.375 -1.078125q0.828125 -0.390625 1.9375 -0.390625q1.15625 0 2.015625 0.46875q0.859375 0.46875 1.359375 1.28125q0.5 0.796875 0.546875 1.8125l-1.609375 0q-0.046875 -0.609375 -0.34375 -1.09375q-0.28125 -0.5 -0.796875 -0.796875q-0.5 -0.296875 -1.171875 -0.296875q-0.78125 0 -1.3125 0.3125q-0.515625 0.296875 -0.828125 0.8125q-0.296875 0.515625 -0.4375 1.140625q-0.125 0.625 -0.125 1.265625l0 0.390625q0 0.640625 0.125 1.28125q0.125 0.625 0.421875 1.140625q0.3125 0.5 0.84375 0.8125q0.53125 0.296875 1.3125 0.296875zm7.499756 -12.796875l0 14.0l-1.6875 0l0 -14.0l1.6875 0zm-0.40625 8.703125l-0.6875 -0.03125q0 -1.015625 0.28125 -1.875q0.296875 -0.859375 0.828125 -1.5q0.53125 -0.640625 1.265625 -0.984375q0.734375 -0.34375 1.625 -0.34375q0.734375 0 1.3125 0.203125q0.578125 0.1875 0.984375 0.609375q0.421875 0.421875 0.640625 1.109375q0.21875 0.671875 0.21875 1.65625l0 6.453125l-1.6875 0l0 -6.484375q0 -0.765625 -0.234375 -1.234375q-0.21875 -0.46875 -0.65625 -0.6875q-0.4375 -0.21875 -1.078125 -0.21875q-0.625 0 -1.140625 0.265625q-0.515625 0.265625 -0.890625 0.734375q-0.359375 0.46875 -0.578125 1.0625q-0.203125 0.59375 -0.203125 1.265625zm8.931763 0l0 -0.09375q0 -1.984375 0.4375 -3.59375q0.453125 -1.609375 1.140625 -2.8125q0.703125 -1.21875 1.46875 -2.015625q0.765625 -0.796875 1.40625 -1.15625l0.359375 1.109375q-0.53125 0.40625 -1.09375 1.140625q-0.546875 0.71875 -1.015625 1.765625q-0.453125 1.046875 -0.734375 2.4375q-0.28125 1.375 -0.28125 3.109375l0 0.125q0 1.734375 0.28125 3.125q0.28125 1.375 0.734375 2.4375q0.46875 1.0625 1.015625 1.796875q0.5625 0.75 1.09375 1.1875l-0.359375 1.015625q-0.640625 -0.359375 -1.40625 -1.15625q-0.765625 -0.796875 -1.46875 -2.0q-0.6875 -1.203125 -1.140625 -2.8125q-0.4375 -1.625 -0.4375 -3.609375zm9.448242 3.78125l2.703125 -8.34375l1.71875 0l-3.546875 9.859375l-1.125 0l0.25 -1.515625zm-2.25 -8.34375l2.78125 8.390625l0.1875 1.46875l-1.125 0l-3.578125 -9.859375l1.734375 0zm16.802246 8.46875l0 1.390625l-8.6875 0l0 -1.21875l4.34375 -4.828125q0.8125 -0.890625 1.25 -1.515625q0.4375 -0.625 0.609375 -1.125q0.1875 -0.5 0.1875 -1.015625q0 -0.65625 -0.28125 -1.1875q-0.265625 -0.53125 -0.78125 -0.84375q-0.515625 -0.328125 -1.25 -0.328125q-0.890625 0 -1.484375 0.34375q-0.578125 0.34375 -0.875 0.953125q-0.28125 0.609375 -0.28125 1.40625l-1.6875 0q0 -1.125 0.484375 -2.046875q0.5 -0.9375 1.453125 -1.484375q0.96875 -0.5625 2.390625 -0.5625q1.25 0 2.140625 0.453125q0.890625 0.4375 1.375 1.234375q0.484375 0.796875 0.484375 1.859375q0 0.59375 -0.203125 1.1875q-0.1875 0.59375 -0.53125 1.1875q-0.34375 0.59375 -0.796875 1.171875q-0.453125 0.5625 -0.953125 1.125l-3.5625 3.84375l6.65625 0zm5.8600464 -4.0l0 0.09375q0 1.984375 -0.453125 3.609375q-0.453125 1.609375 -1.140625 2.8125q-0.6875 1.203125 -1.453125 2.0q-0.765625 0.796875 -1.421875 1.15625l-0.34375 -1.015625q0.53125 -0.421875 1.078125 -1.15625q0.546875 -0.71875 1.015625 -1.796875q0.46875 -1.0625 0.75 -2.453125q0.28125 -1.40625 0.28125 -3.140625l0 -0.125q0 -1.734375 -0.3125 -3.125q-0.296875 -1.40625 -0.78125 -2.46875q-0.46875 -1.0625 -1.015625 -1.796875q-0.53125 -0.734375 -1.015625 -1.140625l0.34375 -1.03125q0.65625 0.359375 1.421875 1.15625q0.765625 0.796875 1.453125 2.015625q0.6875 1.203125 1.140625 2.8125q0.453125 1.609375 0.453125 3.59375z" fill-rule="nonzero"/><path fill="#cfe2f3" d="m564.34644 249.479l133.41736 0l0 75.653534l-133.41736 0z" fill-rule="evenodd"/><path stroke="#000000" stroke-width="1.0" stroke-linejoin="round" stroke-linecap="butt" d="m564.34644 249.479l133.41736 0l0 75.653534l-133.41736 0z" fill-rule="evenodd"/><path fill="#000000" d="m582.6592 280.96014l4.390625 0q1.484375 0 2.515625 0.453125q1.03125 0.453125 1.578125 1.34375q0.546875 0.890625 0.546875 2.1875q0 0.90625 -0.375 1.65625q-0.359375 0.75 -1.046875 1.28125q-0.6875 0.515625 -1.65625 0.78125l-0.484375 0.1875l-4.125 0l-0.015625 -1.4375l3.109375 0q0.953125 0 1.578125 -0.328125q0.625 -0.328125 0.9375 -0.890625q0.328125 -0.5625 0.328125 -1.25q0 -0.765625 -0.3125 -1.34375q-0.296875 -0.578125 -0.9375 -0.890625q-0.640625 -0.3125 -1.640625 -0.3125l-2.640625 0l0 11.828125l-1.75 0l0 -13.265625zm7.75 13.265625l-3.234375 -6.015625l1.828125 0l3.28125 5.90625l0 0.109375l-1.875 0zm7.57428 0.1875q-1.03125 0 -1.875 -0.34375q-0.828125 -0.359375 -1.421875 -1.0q-0.59375 -0.640625 -0.921875 -1.515625q-0.3125 -0.875 -0.3125 -1.90625l0 -0.390625q0 -1.203125 0.359375 -2.140625q0.359375 -0.9375 0.96875 -1.59375q0.609375 -0.65625 1.375 -0.984375q0.78125 -0.34375 1.609375 -0.34375q1.0625 0 1.828125 0.359375q0.765625 0.359375 1.25 1.015625q0.5 0.65625 0.734375 1.53125q0.234375 0.875 0.234375 1.921875l0 0.75l-7.359375 0l0 -1.375l5.6875 0l0 -0.125q-0.046875 -0.65625 -0.28125 -1.28125q-0.234375 -0.625 -0.734375 -1.015625q-0.5 -0.40625 -1.359375 -0.40625q-0.578125 0 -1.0625 0.25q-0.484375 0.234375 -0.828125 0.71875q-0.34375 0.46875 -0.53125 1.15625q-0.1875 0.671875 -0.1875 1.5625l0 0.390625q0 0.703125 0.1875 1.3125q0.203125 0.609375 0.578125 1.078125q0.375 0.46875 0.90625 0.734375q0.546875 0.265625 1.25 0.265625q0.890625 0 1.5 -0.359375q0.625 -0.375 1.09375 -0.984375l1.015625 0.8125q-0.3125 0.484375 -0.8125 0.921875q-0.484375 0.4375 -1.203125 0.71875q-0.71875 0.265625 -1.6875 0.265625zm9.924194 -10.046875l0 1.296875l-5.328125 0l0 -1.296875l5.328125 0zm-3.515625 -2.390625l1.6875 0l0 9.8125q0 0.5 0.140625 0.75q0.15625 0.25 0.40625 0.34375q0.25 0.078125 0.53125 0.078125q0.203125 0 0.4375 -0.03125q0.234375 -0.046875 0.359375 -0.078125l0 1.375q-0.203125 0.0625 -0.53125 0.125q-0.3125 0.0625 -0.765625 0.0625q-0.625 0 -1.140625 -0.25q-0.515625 -0.25 -0.828125 -0.828125q-0.296875 -0.578125 -0.296875 -1.5625l0 -9.796875zm11.5252075 9.96875l0 -7.578125l1.703125 0l0 9.859375l-1.625 0l-0.078125 -2.28125zm0.328125 -2.078125l0.6875 -0.015625q0 0.984375 -0.203125 1.828125q-0.203125 0.828125 -0.65625 1.4375q-0.453125 0.609375 -1.203125 0.953125q-0.734375 0.34375 -1.78125 0.34375q-0.71875 0 -1.328125 -0.203125q-0.59375 -0.21875 -1.015625 -0.65625q-0.421875 -0.4375 -0.65625 -1.140625q-0.234375 -0.703125 -0.234375 -1.6875l0 -6.359375l1.6875 0l0 6.375q0 0.671875 0.140625 1.109375q0.15625 0.421875 0.40625 0.671875q0.265625 0.25 0.59375 0.359375q0.328125 0.09375 0.671875 0.09375q1.078125 0 1.703125 -0.40625q0.625 -0.421875 0.90625 -1.125q0.28125 -0.703125 0.28125 -1.578125zm5.612793 -3.953125l0 8.3125l-1.6875 0l0 -9.859375l1.640625 0l0.046875 1.546875zm3.078125 -1.59375l0 1.5625q-0.21875 -0.046875 -0.40625 -0.0625q-0.1875 -0.015625 -0.421875 -0.015625q-0.578125 0 -1.03125 0.1875q-0.4375 0.1875 -0.75 0.515625q-0.3125 0.328125 -0.5 0.78125q-0.171875 0.4375 -0.21875 0.984375l-0.484375 0.265625q0 -0.890625 0.171875 -1.671875q0.1875 -0.78125 0.5625 -1.390625q0.375 -0.609375 0.953125 -0.9375q0.578125 -0.34375 1.375 -0.34375q0.1875 0 0.421875 0.046875q0.234375 0.03125 0.328125 0.078125zm3.2438354 2.15625l0 7.75l-1.6875 0l0 -9.859375l1.59375 0l0.09375 2.109375zm-0.40625 2.453125l-0.6875 -0.03125q0 -1.015625 0.28125 -1.875q0.296875 -0.859375 0.828125 -1.5q0.53125 -0.640625 1.265625 -0.984375q0.734375 -0.34375 1.625 -0.34375q0.734375 0 1.3125 0.203125q0.578125 0.1875 0.984375 0.609375q0.421875 0.421875 0.640625 1.109375q0.21875 0.671875 0.21875 1.65625l0 6.453125l-1.6875 0l0 -6.484375q0 -0.765625 -0.234375 -1.234375q-0.21875 -0.46875 -0.65625 -0.6875q-0.4375 -0.21875 -1.078125 -0.21875q-0.625 0 -1.140625 0.265625q-0.515625 0.265625 -0.890625 0.734375q-0.359375 0.46875 -0.578125 1.0625q-0.203125 0.59375 -0.203125 1.265625zm8.959106 0l0 -0.09375q0 -1.984375 0.4375 -3.59375q0.453125 -1.609375 1.140625 -2.8125q0.703125 -1.21875 1.46875 -2.015625q0.765625 -0.796875 1.40625 -1.15625l0.359375 1.109375q-0.53125 0.40625 -1.09375 1.140625q-0.546875 0.71875 -1.015625 1.765625q-0.453125 1.046875 -0.734375 2.4375q-0.28125 1.375 -0.28125 3.109375l0 0.125q0 1.734375 0.28125 3.125q0.28125 1.375 0.734375 2.4375q0.46875 1.0625 1.015625 1.796875q0.5625 0.75 1.09375 1.1875l-0.359375 1.015625q-0.640625 -0.359375 -1.40625 -1.15625q-0.765625 -0.796875 -1.46875 -2.0q-0.6875 -1.203125 -1.140625 -2.8125q-0.4375 -1.625 -0.4375 -3.609375zm10.573242 -4.5625l0 1.296875l-5.328125 0l0 -1.296875l5.328125 0zm-3.515625 -2.390625l1.6875 0l0 9.8125q0 0.5 0.140625 0.75q0.15625 0.25 0.40625 0.34375q0.25 0.078125 0.53125 0.078125q0.203125 0 0.4375 -0.03125q0.234375 -0.046875 0.359375 -0.078125l0 1.375q-0.203125 0.0625 -0.53125 0.125q-0.3125 0.0625 -0.765625 0.0625q-0.625 0 -1.140625 -0.25q-0.515625 -0.25 -0.828125 -0.828125q-0.296875 -0.578125 -0.296875 -1.5625l0 -9.796875zm7.1815186 3.9375l0 8.3125l-1.6875 0l0 -9.859375l1.640625 0l0.046875 1.546875zm3.078125 -1.59375l0 1.5625q-0.21875 -0.046875 -0.40625 -0.0625q-0.1875 -0.015625 -0.421875 -0.015625q-0.578125 0 -1.03125 0.1875q-0.4375 0.1875 -0.75 0.515625q-0.3125 0.328125 -0.5 0.78125q-0.171875 0.4375 -0.21875 0.984375l-0.484375 0.265625q0 -0.890625 0.171875 -1.671875q0.1875 -0.78125 0.5625 -1.390625q0.375 -0.609375 0.953125 -0.9375q0.578125 -0.34375 1.375 -0.34375q0.1875 0 0.421875 0.046875q0.234375 0.03125 0.328125 0.078125zm7.5875854 7.625l0 -7.578125l1.703125 0l0 9.859375l-1.625 0l-0.078125 -2.28125zm0.328125 -2.078125l0.6875 -0.015625q0 0.984375 -0.203125 1.828125q-0.203125 0.828125 -0.65625 1.4375q-0.453125 0.609375 -1.203125 0.953125q-0.734375 0.34375 -1.78125 0.34375q-0.71875 0 -1.328125 -0.203125q-0.59375 -0.21875 -1.015625 -0.65625q-0.421875 -0.4375 -0.65625 -1.140625q-0.234375 -0.703125 -0.234375 -1.6875l0 -6.359375l1.6875 0l0 6.375q0 0.671875 0.140625 1.109375q0.15625 0.421875 0.40625 0.671875q0.265625 0.25 0.59375 0.359375q0.328125 0.09375 0.671875 0.09375q1.078125 0 1.703125 -0.40625q0.625 -0.421875 0.90625 -1.125q0.28125 -0.703125 0.28125 -1.578125zm8.018982 4.546875q-1.03125 0 -1.875 -0.34375q-0.828125 -0.359375 -1.421875 -1.0q-0.59375 -0.640625 -0.921875 -1.515625q-0.3125 -0.875 -0.3125 -1.90625l0 -0.390625q0 -1.203125 0.359375 -2.140625q0.359375 -0.9375 0.96875 -1.59375q0.609375 -0.65625 1.375 -0.984375q0.78125 -0.34375 1.609375 -0.34375q1.0625 0 1.828125 0.359375q0.765625 0.359375 1.25 1.015625q0.5 0.65625 0.734375 1.53125q0.234375 0.875 0.234375 1.921875l0 0.75l-7.359375 0l0 -1.375l5.6875 0l0 -0.125q-0.046875 -0.65625 -0.28125 -1.28125q-0.234375 -0.625 -0.734375 -1.015625q-0.5 -0.40625 -1.359375 -0.40625q-0.578125 0 -1.0625 0.25q-0.484375 0.234375 -0.828125 0.71875q-0.34375 0.46875 -0.53125 1.15625q-0.1875 0.671875 -0.1875 1.5625l0 0.390625q0 0.703125 0.1875 1.3125q0.203125 0.609375 0.578125 1.078125q0.375 0.46875 0.90625 0.734375q0.546875 0.265625 1.25 0.265625q0.890625 0 1.5 -0.359375q0.625 -0.375 1.09375 -0.984375l1.015625 0.8125q-0.3125 0.484375 -0.8125 0.921875q-0.484375 0.4375 -1.203125 0.71875q-0.71875 0.265625 -1.6875 0.265625zm9.689819 -5.578125l0 0.09375q0 1.984375 -0.453125 3.609375q-0.453125 1.609375 -1.140625 2.8125q-0.6875 1.203125 -1.453125 2.0q-0.765625 0.796875 -1.421875 1.15625l-0.34375 -1.015625q0.53125 -0.421875 1.078125 -1.15625q0.546875 -0.71875 1.015625 -1.796875q0.46875 -1.0625 0.75 -2.453125q0.28125 -1.40625 0.28125 -3.140625l0 -0.125q0 -1.734375 -0.3125 -3.125q-0.296875 -1.40625 -0.78125 -2.46875q-0.46875 -1.0625 -1.015625 -1.796875q-0.53125 -0.734375 -1.015625 -1.140625l0.34375 -1.03125q0.65625 0.359375 1.421875 1.15625q0.765625 0.796875 1.453125 2.015625q0.6875 1.203125 1.140625 2.8125q0.453125 1.609375 0.453125 3.59375z" fill-rule="nonzero"/><path fill="#cfe2f3" d="m764.4724 249.479l133.41736 0l0 75.653534l-133.41736 0z" fill-rule="evenodd"/><path stroke="#000000" stroke-width="1.0" stroke-linejoin="round" stroke-linecap="butt" d="m764.4724 249.479l133.41736 0l0 75.653534l-133.41736 0z" fill-rule="evenodd"/><path fill="#000000" d="m778.74054 280.96014l4.390625 0q1.484375 0 2.515625 0.453125q1.03125 0.453125 1.578125 1.34375q0.546875 0.890625 0.546875 2.1875q0 0.90625 -0.375 1.65625q-0.359375 0.75 -1.046875 1.28125q-0.6875 0.515625 -1.65625 0.78125l-0.484375 0.1875l-4.125 0l-0.015625 -1.4375l3.109375 0q0.953125 0 1.578125 -0.328125q0.625 -0.328125 0.9375 -0.890625q0.328125 -0.5625 0.328125 -1.25q0 -0.765625 -0.3125 -1.34375q-0.296875 -0.578125 -0.9375 -0.890625q-0.640625 -0.3125 -1.640625 -0.3125l-2.640625 0l0 11.828125l-1.75 0l0 -13.265625zm7.75 13.265625l-3.234375 -6.015625l1.828125 0l3.28125 5.90625l0 0.109375l-1.875 0zm7.574341 0.1875q-1.03125 0 -1.875 -0.34375q-0.828125 -0.359375 -1.421875 -1.0q-0.59375 -0.640625 -0.921875 -1.515625q-0.3125 -0.875 -0.3125 -1.90625l0 -0.390625q0 -1.203125 0.359375 -2.140625q0.359375 -0.9375 0.96875 -1.59375q0.609375 -0.65625 1.375 -0.984375q0.78125 -0.34375 1.609375 -0.34375q1.0625 0 1.828125 0.359375q0.765625 0.359375 1.25 1.015625q0.5 0.65625 0.734375 1.53125q0.234375 0.875 0.234375 1.921875l0 0.75l-7.359375 0l0 -1.375l5.6875 0l0 -0.125q-0.046875 -0.65625 -0.28125 -1.28125q-0.234375 -0.625 -0.734375 -1.015625q-0.5 -0.40625 -1.359375 -0.40625q-0.578125 0 -1.0625 0.25q-0.484375 0.234375 -0.828125 0.71875q-0.34375 0.46875 -0.53125 1.15625q-0.1875 0.671875 -0.1875 1.5625l0 0.390625q0 0.703125 0.1875 1.3125q0.203125 0.609375 0.578125 1.078125q0.375 0.46875 0.90625 0.734375q0.546875 0.265625 1.25 0.265625q0.890625 0 1.5 -0.359375q0.625 -0.375 1.09375 -0.984375l1.015625 0.8125q-0.3125 0.484375 -0.8125 0.921875q-0.484375 0.4375 -1.203125 0.71875q-0.71875 0.265625 -1.6875 0.265625zm9.924133 -10.046875l0 1.296875l-5.328125 0l0 -1.296875l5.328125 0zm-3.515625 -2.390625l1.6875 0l0 9.8125q0 0.5 0.140625 0.75q0.15625 0.25 0.40625 0.34375q0.25 0.078125 0.53125 0.078125q0.203125 0 0.4375 -0.03125q0.234375 -0.046875 0.359375 -0.078125l0 1.375q-0.203125 0.0625 -0.53125 0.125q-0.3125 0.0625 -0.765625 0.0625q-0.625 0 -1.140625 -0.25q-0.515625 -0.25 -0.828125 -0.828125q-0.296875 -0.578125 -0.296875 -1.5625l0 -9.796875zm11.525269 9.96875l0 -7.578125l1.703125 0l0 9.859375l-1.625 0l-0.078125 -2.28125zm0.328125 -2.078125l0.6875 -0.015625q0 0.984375 -0.203125 1.828125q-0.203125 0.828125 -0.65625 1.4375q-0.453125 0.609375 -1.203125 0.953125q-0.734375 0.34375 -1.78125 0.34375q-0.71875 0 -1.328125 -0.203125q-0.59375 -0.21875 -1.015625 -0.65625q-0.421875 -0.4375 -0.65625 -1.140625q-0.234375 -0.703125 -0.234375 -1.6875l0 -6.359375l1.6875 0l0 6.375q0 0.671875 0.140625 1.109375q0.15625 0.421875 0.40625 0.671875q0.265625 0.25 0.59375 0.359375q0.328125 0.09375 0.671875 0.09375q1.078125 0 1.703125 -0.40625q0.625 -0.421875 0.90625 -1.125q0.28125 -0.703125 0.28125 -1.578125zm5.612732 -3.953125l0 8.3125l-1.6875 0l0 -9.859375l1.640625 0l0.046875 1.546875zm3.078125 -1.59375l0 1.5625q-0.21875 -0.046875 -0.40625 -0.0625q-0.1875 -0.015625 -0.421875 -0.015625q-0.578125 0 -1.03125 0.1875q-0.4375 0.1875 -0.75 0.515625q-0.3125 0.328125 -0.5 0.78125q-0.171875 0.4375 -0.21875 0.984375l-0.484375 0.265625q0 -0.890625 0.171875 -1.671875q0.1875 -0.78125 0.5625 -1.390625q0.375 -0.609375 0.953125 -0.9375q0.578125 -0.34375 1.375 -0.34375q0.1875 0 0.421875 0.046875q0.234375 0.03125 0.328125 0.078125zm3.2438354 2.15625l0 7.75l-1.6875 0l0 -9.859375l1.59375 0l0.09375 2.109375zm-0.40625 2.453125l-0.6875 -0.03125q0 -1.015625 0.28125 -1.875q0.296875 -0.859375 0.828125 -1.5q0.53125 -0.640625 1.265625 -0.984375q0.734375 -0.34375 1.625 -0.34375q0.734375 0 1.3125 0.203125q0.578125 0.1875 0.984375 0.609375q0.421875 0.421875 0.640625 1.109375q0.21875 0.671875 0.21875 1.65625l0 6.453125l-1.6875 0l0 -6.484375q0 -0.765625 -0.234375 -1.234375q-0.21875 -0.46875 -0.65625 -0.6875q-0.4375 -0.21875 -1.078125 -0.21875q-0.625 0 -1.140625 0.265625q-0.515625 0.265625 -0.890625 0.734375q-0.359375 0.46875 -0.578125 1.0625q-0.203125 0.59375 -0.203125 1.265625zm8.959106 0l0 -0.09375q0 -1.984375 0.4375 -3.59375q0.453125 -1.609375 1.140625 -2.8125q0.703125 -1.21875 1.46875 -2.015625q0.765625 -0.796875 1.40625 -1.15625l0.359375 1.109375q-0.53125 0.40625 -1.09375 1.140625q-0.546875 0.71875 -1.015625 1.765625q-0.453125 1.046875 -0.734375 2.4375q-0.28125 1.375 -0.28125 3.109375l0 0.125q0 1.734375 0.28125 3.125q0.28125 1.375 0.734375 2.4375q0.46875 1.0625 1.015625 1.796875q0.5625 0.75 1.09375 1.1875l-0.359375 1.015625q-0.640625 -0.359375 -1.40625 -1.15625q-0.765625 -0.796875 -1.46875 -2.0q-0.6875 -1.203125 -1.140625 -2.8125q-0.4375 -1.625 -0.4375 -3.609375zm8.963867 5.296875l-1.6875 0l0 -10.890625q0 -1.0625 0.390625 -1.796875q0.390625 -0.734375 1.109375 -1.109375q0.734375 -0.390625 1.734375 -0.390625q0.296875 0 0.59375 0.046875q0.296875 0.03125 0.578125 0.109375l-0.09375 1.375q-0.1875 -0.046875 -0.4375 -0.0625q-0.234375 -0.03125 -0.46875 -0.03125q-0.546875 0 -0.9375 0.21875q-0.375 0.21875 -0.578125 0.625q-0.203125 0.40625 -0.203125 1.015625l0 10.890625zm2.09375 -9.859375l0 1.296875l-5.328125 0l0 -1.296875l5.328125 0zm7.689087 8.171875l0 -5.078125q0 -0.578125 -0.234375 -1.0q-0.234375 -0.4375 -0.703125 -0.671875q-0.453125 -0.25 -1.140625 -0.25q-0.640625 0 -1.125 0.21875q-0.46875 0.21875 -0.734375 0.578125q-0.265625 0.359375 -0.265625 0.765625l-1.6875 0q0 -0.53125 0.265625 -1.046875q0.28125 -0.515625 0.796875 -0.9375q0.515625 -0.421875 1.234375 -0.671875q0.734375 -0.25 1.625 -0.25q1.0625 0 1.890625 0.359375q0.828125 0.359375 1.296875 1.09375q0.46875 0.734375 0.46875 1.84375l0 4.578125q0 0.5 0.078125 1.0625q0.09375 0.546875 0.265625 0.953125l0 0.140625l-1.75 0q-0.140625 -0.296875 -0.21875 -0.78125q-0.0625 -0.484375 -0.0625 -0.90625zm0.296875 -4.28125l0.015625 1.171875l-1.703125 0q-0.71875 0 -1.28125 0.125q-0.5625 0.109375 -0.953125 0.34375q-0.375 0.21875 -0.578125 0.5625q-0.203125 0.34375 -0.203125 0.796875q0 0.46875 0.203125 0.859375q0.21875 0.375 0.640625 0.59375q0.421875 0.21875 1.046875 0.21875q0.765625 0 1.359375 -0.328125q0.59375 -0.328125 0.9375 -0.796875q0.359375 -0.46875 0.390625 -0.921875l0.71875 0.8125q-0.0625 0.375 -0.359375 0.84375q-0.28125 0.46875 -0.75 0.890625q-0.46875 0.421875 -1.109375 0.703125q-0.640625 0.28125 -1.4375 0.28125q-1.0 0 -1.75 -0.390625q-0.75 -0.390625 -1.171875 -1.046875q-0.40625 -0.671875 -0.40625 -1.484375q0 -0.796875 0.296875 -1.40625q0.3125 -0.609375 0.890625 -1.015625q0.59375 -0.40625 1.40625 -0.609375q0.828125 -0.203125 1.828125 -0.203125l1.96875 0zm5.8667603 -8.03125l0 14.0l-1.6875 0l0 -14.0l1.6875 0zm8.442749 11.390625q0 -0.375 -0.15625 -0.6875q-0.15625 -0.3125 -0.640625 -0.5625q-0.484375 -0.265625 -1.46875 -0.453125q-0.8125 -0.171875 -1.484375 -0.40625q-0.65625 -0.25 -1.125 -0.578125q-0.453125 -0.34375 -0.703125 -0.796875q-0.234375 -0.453125 -0.234375 -1.0625q0 -0.59375 0.25 -1.109375q0.265625 -0.515625 0.734375 -0.90625q0.484375 -0.40625 1.15625 -0.625q0.6875 -0.234375 1.515625 -0.234375q1.1875 0 2.015625 0.421875q0.84375 0.40625 1.28125 1.109375q0.453125 0.6875 0.453125 1.546875l-1.6875 0q0 -0.421875 -0.25 -0.796875q-0.234375 -0.390625 -0.703125 -0.640625q-0.453125 -0.265625 -1.109375 -0.265625q-0.703125 0 -1.140625 0.21875q-0.4375 0.21875 -0.640625 0.546875q-0.1875 0.328125 -0.1875 0.6875q0 0.265625 0.09375 0.484375q0.109375 0.21875 0.34375 0.390625q0.25 0.171875 0.6875 0.328125q0.453125 0.15625 1.15625 0.3125q1.203125 0.28125 1.984375 0.671875q0.78125 0.375 1.15625 0.9375q0.390625 0.546875 0.390625 1.34375q0 0.640625 -0.265625 1.1875q-0.265625 0.53125 -0.78125 0.921875q-0.5 0.375 -1.203125 0.59375q-0.6875 0.21875 -1.546875 0.21875q-1.3125 0 -2.21875 -0.46875q-0.890625 -0.46875 -1.359375 -1.203125q-0.46875 -0.734375 -0.46875 -1.5625l1.703125 0q0.03125 0.703125 0.390625 1.109375q0.375 0.390625 0.890625 0.5625q0.53125 0.171875 1.0625 0.171875q0.6875 0 1.15625 -0.171875q0.46875 -0.1875 0.703125 -0.5q0.25 -0.328125 0.25 -0.734375zm7.988098 2.796875q-1.03125 0 -1.875 -0.34375q-0.828125 -0.359375 -1.421875 -1.0q-0.59375 -0.640625 -0.921875 -1.515625q-0.3125 -0.875 -0.3125 -1.90625l0 -0.390625q0 -1.203125 0.359375 -2.140625q0.359375 -0.9375 0.96875 -1.59375q0.609375 -0.65625 1.375 -0.984375q0.78125 -0.34375 1.609375 -0.34375q1.0625 0 1.828125 0.359375q0.765625 0.359375 1.25 1.015625q0.5 0.65625 0.734375 1.53125q0.234375 0.875 0.234375 1.921875l0 0.75l-7.359375 0l0 -1.375l5.6875 0l0 -0.125q-0.046875 -0.65625 -0.28125 -1.28125q-0.234375 -0.625 -0.734375 -1.015625q-0.5 -0.40625 -1.359375 -0.40625q-0.578125 0 -1.0625 0.25q-0.484375 0.234375 -0.828125 0.71875q-0.34375 0.46875 -0.53125 1.15625q-0.1875 0.671875 -0.1875 1.5625l0 0.390625q0 0.703125 0.1875 1.3125q0.203125 0.609375 0.578125 1.078125q0.375 0.46875 0.90625 0.734375q0.546875 0.265625 1.25 0.265625q0.890625 0 1.5 -0.359375q0.625 -0.375 1.09375 -0.984375l1.015625 0.8125q-0.3125 0.484375 -0.8125 0.921875q-0.484375 0.4375 -1.203125 0.71875q-0.71875 0.265625 -1.6875 0.265625zm9.689819 -5.578125l0 0.09375q0 1.984375 -0.453125 3.609375q-0.453125 1.609375 -1.140625 2.8125q-0.6875 1.203125 -1.453125 2.0q-0.765625 0.796875 -1.421875 1.15625l-0.34375 -1.015625q0.53125 -0.421875 1.078125 -1.15625q0.546875 -0.71875 1.015625 -1.796875q0.46875 -1.0625 0.75 -2.453125q0.28125 -1.40625 0.28125 -3.140625l0 -0.125q0 -1.734375 -0.3125 -3.125q-0.296875 -1.40625 -0.78125 -2.46875q-0.46875 -1.0625 -1.015625 -1.796875q-0.53125 -0.734375 -1.015625 -1.140625l0.34375 -1.03125q0.65625 0.359375 1.421875 1.15625q0.765625 0.796875 1.453125 2.015625q0.6875 1.203125 1.140625 2.8125q0.453125 1.609375 0.453125 3.59375z" fill-rule="nonzero"/><path fill="#000000" fill-opacity="0.0" d="m731.1181 148.16405l-100.06299 101.32283" fill-rule="evenodd"/><path stroke="#000000" stroke-width="1.0" stroke-linejoin="round" stroke-linecap="butt" d="m731.1181 148.16405l-95.846985 97.05374" fill-rule="evenodd"/><path fill="#000000" stroke="#000000" stroke-width="1.0" stroke-linecap="butt" d="m634.0959 244.05716l-2.0135498 4.389557l4.3640137 -2.0683136z" fill-rule="evenodd"/><path fill="#000000" fill-opacity="0.0" d="m731.1181 148.16405l100.06299 101.32283" fill-rule="evenodd"/><path stroke="#000000" stroke-width="1.0" stroke-linejoin="round" stroke-linecap="butt" d="m731.1181 148.16405l95.846985 97.05374" fill-rule="evenodd"/><path fill="#000000" stroke="#000000" stroke-width="1.0" stroke-linecap="butt" d="m825.78986 246.3784l4.3640137 2.0683136l-2.0135498 -4.389557z" fill-rule="evenodd"/><path fill="#000000" fill-opacity="0.0" d="m626.23883 170.21391l57.07086 0l0 42.015747l-57.07086 0z" fill-rule="evenodd"/><path fill="#000000" d="m640.6451 187.27454l0 1.296875l-5.328125 0l0 -1.296875l5.328125 0zm-3.515625 -2.390625l1.6875 0l0 9.8125q0 0.5 0.140625 0.75q0.15625 0.25 0.40625 0.34375q0.25 0.078125 0.53125 0.078125q0.203125 0 0.4375 -0.03125q0.234375 -0.046875 0.359375 -0.078125l0 1.375q-0.203125 0.0625 -0.53125 0.125q-0.3125 0.0625 -0.765625 0.0625q-0.625 0 -1.140625 -0.25q-0.515625 -0.25 -0.828125 -0.828125q-0.296875 -0.578125 -0.296875 -1.5625l0 -9.796875zm7.1815186 3.9375l0 8.3125l-1.6875 0l0 -9.859375l1.640625 0l0.046875 1.546875zm3.078125 -1.59375l0 1.5625q-0.21875 -0.046875 -0.40625 -0.0625q-0.1875 -0.015625 -0.421875 -0.015625q-0.578125 0 -1.03125 0.1875q-0.4375 0.1875 -0.75 0.515625q-0.3125 0.328125 -0.5 0.78125q-0.171875 0.4375 -0.21875 0.984375l-0.484375 0.265625q0 -0.890625 0.171875 -1.671875q0.1875 -0.78125 0.5625 -1.390625q0.375 -0.609375 0.953125 -0.9375q0.578125 -0.34375 1.375 -0.34375q0.1875 0 0.421875 0.046875q0.234375 0.03125 0.328125 0.078125zm7.5875854 7.625l0 -7.578125l1.703125 0l0 9.859375l-1.625 0l-0.078125 -2.28125zm0.328125 -2.078125l0.6875 -0.015625q0 0.984375 -0.203125 1.828125q-0.203125 0.828125 -0.65625 1.4375q-0.453125 0.609375 -1.203125 0.953125q-0.734375 0.34375 -1.78125 0.34375q-0.71875 0 -1.328125 -0.203125q-0.59375 -0.21875 -1.015625 -0.65625q-0.421875 -0.4375 -0.65625 -1.140625q-0.234375 -0.703125 -0.234375 -1.6875l0 -6.359375l1.6875 0l0 6.375q0 0.671875 0.140625 1.109375q0.15625 0.421875 0.40625 0.671875q0.265625 0.25 0.59375 0.359375q0.328125 0.09375 0.671875 0.09375q1.078125 0 1.703125 -0.40625q0.625 -0.421875 0.90625 -1.125q0.28125 -0.703125 0.28125 -1.578125zm8.018982 4.546875q-1.03125 0 -1.875 -0.34375q-0.828125 -0.359375 -1.421875 -1.0q-0.59375 -0.640625 -0.921875 -1.515625q-0.3125 -0.875 -0.3125 -1.90625l0 -0.390625q0 -1.203125 0.359375 -2.140625q0.359375 -0.9375 0.96875 -1.59375q0.609375 -0.65625 1.375 -0.984375q0.78125 -0.34375 1.609375 -0.34375q1.0625 0 1.828125 0.359375q0.765625 0.359375 1.25 1.015625q0.5 0.65625 0.734375 1.53125q0.234375 0.875 0.234375 1.921875l0 0.75l-7.359375 0l0 -1.375l5.6875 0l0 -0.125q-0.046875 -0.65625 -0.28125 -1.28125q-0.234375 -0.625 -0.734375 -1.015625q-0.5 -0.40625 -1.359375 -0.40625q-0.578125 0 -1.0625 0.25q-0.484375 0.234375 -0.828125 0.71875q-0.34375 0.46875 -0.53125 1.15625q-0.1875 0.671875 -0.1875 1.5625l0 0.390625q0 0.703125 0.1875 1.3125q0.203125 0.609375 0.578125 1.078125q0.375 0.46875 0.90625 0.734375q0.546875 0.265625 1.25 0.265625q0.890625 0 1.5 -0.359375q0.625 -0.375 1.09375 -0.984375l1.015625 0.8125q-0.3125 0.484375 -0.8125 0.921875q-0.484375 0.4375 -1.203125 0.71875q-0.71875 0.265625 -1.6875 0.265625z" fill-rule="nonzero"/><path fill="#000000" fill-opacity="0.0" d="m773.67194 170.21391l70.39368 0l0 42.015747l-70.39368 0z" fill-rule="evenodd"/><path fill="#000000" d="m786.4688 197.13391l-1.6875 0l0 -10.890625q0 -1.0625 0.390625 -1.796875q0.390625 -0.734375 1.109375 -1.109375q0.734375 -0.390625 1.734375 -0.390625q0.296875 0 0.59375 0.046875q0.296875 0.03125 0.578125 0.109375l-0.09375 1.375q-0.1875 -0.046875 -0.4375 -0.0625q-0.234375 -0.03125 -0.46875 -0.03125q-0.546875 0 -0.9375 0.21875q-0.375 0.21875 -0.578125 0.625q-0.203125 0.40625 -0.203125 1.015625l0 10.890625zm2.09375 -9.859375l0 1.296875l-5.328125 0l0 -1.296875l5.328125 0zm7.689087 8.171875l0 -5.078125q0 -0.578125 -0.234375 -1.0q-0.234375 -0.4375 -0.703125 -0.671875q-0.453125 -0.25 -1.140625 -0.25q-0.640625 0 -1.125 0.21875q-0.46875 0.21875 -0.734375 0.578125q-0.265625 0.359375 -0.265625 0.765625l-1.6875 0q0 -0.53125 0.265625 -1.046875q0.28125 -0.515625 0.796875 -0.9375q0.515625 -0.421875 1.234375 -0.671875q0.734375 -0.25 1.625 -0.25q1.0625 0 1.890625 0.359375q0.828125 0.359375 1.296875 1.09375q0.46875 0.734375 0.46875 1.84375l0 4.578125q0 0.5 0.078125 1.0625q0.09375 0.546875 0.265625 0.953125l0 0.140625l-1.75 0q-0.140625 -0.296875 -0.21875 -0.78125q-0.0625 -0.484375 -0.0625 -0.90625zm0.296875 -4.28125l0.015625 1.171875l-1.703125 0q-0.71875 0 -1.28125 0.125q-0.5625 0.109375 -0.953125 0.34375q-0.375 0.21875 -0.578125 0.5625q-0.203125 0.34375 -0.203125 0.796875q0 0.46875 0.203125 0.859375q0.21875 0.375 0.640625 0.59375q0.421875 0.21875 1.046875 0.21875q0.765625 0 1.359375 -0.328125q0.59375 -0.328125 0.9375 -0.796875q0.359375 -0.46875 0.390625 -0.921875l0.71875 0.8125q-0.0625 0.375 -0.359375 0.84375q-0.28125 0.46875 -0.75 0.890625q-0.46875 0.421875 -1.109375 0.703125q-0.640625 0.28125 -1.4375 0.28125q-1.0 0 -1.75 -0.390625q-0.75 -0.390625 -1.171875 -1.046875q-0.40625 -0.671875 -0.40625 -1.484375q0 -0.796875 0.296875 -1.40625q0.3125 -0.609375 0.890625 -1.015625q0.59375 -0.40625 1.40625 -0.609375q0.828125 -0.203125 1.828125 -0.203125l1.96875 0zm5.866699 -8.03125l0 14.0l-1.6875 0l0 -14.0l1.6875 0zm8.44281 11.390625q0 -0.375 -0.15625 -0.6875q-0.15625 -0.3125 -0.640625 -0.5625q-0.484375 -0.265625 -1.46875 -0.453125q-0.8125 -0.171875 -1.484375 -0.40625q-0.65625 -0.25 -1.125 -0.578125q-0.453125 -0.34375 -0.703125 -0.796875q-0.234375 -0.453125 -0.234375 -1.0625q0 -0.59375 0.25 -1.109375q0.265625 -0.515625 0.734375 -0.90625q0.484375 -0.40625 1.15625 -0.625q0.6875 -0.234375 1.515625 -0.234375q1.1875 0 2.015625 0.421875q0.84375 0.40625 1.28125 1.109375q0.453125 0.6875 0.453125 1.546875l-1.6875 0q0 -0.421875 -0.25 -0.796875q-0.234375 -0.390625 -0.703125 -0.640625q-0.453125 -0.265625 -1.109375 -0.265625q-0.703125 0 -1.140625 0.21875q-0.4375 0.21875 -0.640625 0.546875q-0.1875 0.328125 -0.1875 0.6875q0 0.265625 0.09375 0.484375q0.109375 0.21875 0.34375 0.390625q0.25 0.171875 0.6875 0.328125q0.453125 0.15625 1.15625 0.3125q1.203125 0.28125 1.984375 0.671875q0.78125 0.375 1.15625 0.9375q0.390625 0.546875 0.390625 1.34375q0 0.640625 -0.265625 1.1875q-0.265625 0.53125 -0.78125 0.921875q-0.5 0.375 -1.203125 0.59375q-0.6875 0.21875 -1.546875 0.21875q-1.3125 0 -2.21875 -0.46875q-0.890625 -0.46875 -1.359375 -1.203125q-0.46875 -0.734375 -0.46875 -1.5625l1.703125 0q0.03125 0.703125 0.390625 1.109375q0.375 0.390625 0.890625 0.5625q0.53125 0.171875 1.0625 0.171875q0.6875 0 1.15625 -0.171875q0.46875 -0.1875 0.703125 -0.5q0.25 -0.328125 0.25 -0.734375zm7.988098 2.796875q-1.03125 0 -1.875 -0.34375q-0.828125 -0.359375 -1.421875 -1.0q-0.59375 -0.640625 -0.921875 -1.515625q-0.3125 -0.875 -0.3125 -1.90625l0 -0.390625q0 -1.203125 0.359375 -2.140625q0.359375 -0.9375 0.96875 -1.59375q0.609375 -0.65625 1.375 -0.984375q0.78125 -0.34375 1.609375 -0.34375q1.0625 0 1.828125 0.359375q0.765625 0.359375 1.25 1.015625q0.5 0.65625 0.734375 1.53125q0.234375 0.875 0.234375 1.921875l0 0.75l-7.359375 0l0 -1.375l5.6875 0l0 -0.125q-0.046875 -0.65625 -0.28125 -1.28125q-0.234375 -0.625 -0.734375 -1.015625q-0.5 -0.40625 -1.359375 -0.40625q-0.578125 0 -1.0625 0.25q-0.484375 0.234375 -0.828125 0.71875q-0.34375 0.46875 -0.53125 1.15625q-0.1875 0.671875 -0.1875 1.5625l0 0.390625q0 0.703125 0.1875 1.3125q0.203125 0.609375 0.578125 1.078125q0.375 0.46875 0.90625 0.734375q0.546875 0.265625 1.25 0.265625q0.890625 0 1.5 -0.359375q0.625 -0.375 1.09375 -0.984375l1.015625 0.8125q-0.3125 0.484375 -0.8125 0.921875q-0.484375 0.4375 -1.203125 0.71875q-0.71875 0.265625 -1.6875 0.265625z" fill-rule="nonzero"/><path fill="#000000" fill-opacity="0.0" d="m1.4750656 50.160107l236.37794 0l0 42.015743l-236.37794 0z" fill-rule="evenodd"/><path fill="#000000" d="m11.006315 73.283226l1.59375 -0.21875q0.078125 1.53125 0.578125 2.109375q0.515625 0.5625 1.421875 0.5625q0.65625 0 1.140625 -0.296875q0.484375 -0.3125 0.65625 -0.828125q0.1875 -0.53125 0.1875 -1.6875l0 -9.203121l1.765625 0l0 9.109371q0 1.671875 -0.40625 2.59375q-0.40625 0.921875 -1.28125 1.40625q-0.875 0.484375 -2.0625 0.484375q-1.75 0 -2.6875 -1.015625q-0.9375 -1.015625 -0.90625 -3.015625zm16.34375 2.609375q-0.921875 0.765625 -1.765625 1.09375q-0.828125 0.3125 -1.796875 0.3125q-1.59375 0 -2.453125 -0.78125q-0.859375 -0.78125 -0.859375 -1.984375q0 -0.71875 0.328125 -1.296875q0.328125 -0.59375 0.84375 -0.9375q0.53125 -0.359375 1.1875 -0.546875q0.46875 -0.125 1.453125 -0.25q1.984375 -0.234375 2.921875 -0.5625q0.015625 -0.34375 0.015625 -0.421875q0 -1.0 -0.46875 -1.421875q-0.625 -0.546875 -1.875 -0.546875q-1.15625 0 -1.703125 0.40625q-0.546875 0.40625 -0.8125 1.421875l-1.609375 -0.21875q0.21875 -1.015625 0.71875 -1.640625q0.5 -0.640625 1.453125 -0.984375q0.953125 -0.34375 2.1875 -0.34375q1.25 0 2.015625 0.296875q0.78125 0.28125 1.140625 0.734375q0.375 0.4375 0.515625 1.109375q0.078125 0.421875 0.078125 1.515625l0 2.1875q0 2.28125 0.109375 2.890625q0.109375 0.59375 0.40625 1.15625l-1.703125 0q-0.265625 -0.515625 -0.328125 -1.1875zm-0.140625 -3.671875q-0.890625 0.375 -2.671875 0.625q-1.015625 0.140625 -1.4375 0.328125q-0.421875 0.1875 -0.65625 0.53125q-0.21875 0.34375 -0.21875 0.78125q0 0.65625 0.5 1.09375q0.5 0.4375 1.453125 0.4375q0.9375 0 1.671875 -0.40625q0.75 -0.421875 1.09375 -1.140625q0.265625 -0.5625 0.265625 -1.640625l0 -0.609375zm6.891344 4.859375l-3.687502 -9.671875l1.7343769 0l2.078125 5.796875q0.328125 0.9375 0.625 1.9375q0.203125 -0.765625 0.609375 -1.828125l2.140625 -5.90625l1.6875 0l-3.65625 9.671875l-1.53125 0zm12.953125 -1.1875q-0.921875 0.765625 -1.765625 1.09375q-0.828125 0.3125 -1.796875 0.3125q-1.59375 0 -2.453125 -0.78125q-0.859375 -0.78125 -0.859375 -1.984375q0 -0.71875 0.328125 -1.296875q0.328125 -0.59375 0.84375 -0.9375q0.53125 -0.359375 1.1875 -0.546875q0.46875 -0.125 1.453125 -0.25q1.984375 -0.234375 2.921875 -0.5625q0.015625 -0.34375 0.015625 -0.421875q0 -1.0 -0.46875 -1.421875q-0.625 -0.546875 -1.875 -0.546875q-1.15625 0 -1.703125 0.40625q-0.546875 0.40625 -0.8125 1.421875l-1.609375 -0.21875q0.21875 -1.015625 0.71875 -1.640625q0.5 -0.640625 1.453125 -0.984375q0.953125 -0.34375 2.1875 -0.34375q1.25 0 2.015625 0.296875q0.78125 0.28125 1.140625 0.734375q0.375 0.4375 0.515625 1.109375q0.078125 0.421875 0.078125 1.515625l0 2.1875q0 2.28125 0.109375 2.890625q0.109375 0.59375 0.40625 1.15625l-1.703125 0q-0.265625 -0.515625 -0.328125 -1.1875zm-0.140625 -3.671875q-0.890625 0.375 -2.671875 0.625q-1.015625 0.140625 -1.4375 0.328125q-0.421875 0.1875 -0.65625 0.53125q-0.21875 0.34375 -0.21875 0.78125q0 0.65625 0.5 1.09375q0.5 0.4375 1.453125 0.4375q0.9375 0 1.671875 -0.40625q0.75 -0.421875 1.09375 -1.140625q0.265625 -0.5625 0.265625 -1.640625l0 -0.609375zm3.8132172 0.5625l1.65625 -0.140625q0.125 1.0 0.546875 1.640625q0.4375 0.640625 1.34375 1.046875q0.921875 0.390625 2.0625 0.390625q1.0 0 1.78125 -0.296875q0.78125 -0.296875 1.15625 -0.8125q0.375 -0.53125 0.375 -1.15625q0 -0.625 -0.375 -1.09375q-0.359375 -0.46875 -1.1875 -0.796875q-0.546875 -0.203125 -2.390625 -0.640625q-1.828125 -0.453125 -2.5625 -0.84375q-0.96875 -0.5 -1.4375 -1.234375q-0.46875 -0.75 -0.46875 -1.671875q0 -1.0 0.578125 -1.875q0.578125 -0.890625 1.671875 -1.3437462q1.109375 -0.453125 2.453125 -0.453125q1.484375 0 2.609375 0.484375q1.140625 0.4687462 1.75 1.4062462q0.609375 0.921875 0.65625 2.09375l-1.6875 0.125q-0.140625 -1.265625 -0.9375 -1.90625q-0.78125 -0.65625 -2.3125 -0.65625q-1.609375 0 -2.34375 0.59375q-0.734375 0.59375 -0.734375 1.421875q0 0.71875 0.53125 1.171875q0.5 0.46875 2.65625 0.96875q2.15625 0.484375 2.953125 0.84375q1.171875 0.53125 1.71875 1.359375q0.5625 0.828125 0.5625 1.90625q0 1.0625 -0.609375 2.015625q-0.609375 0.9375 -1.75 1.46875q-1.140625 0.515625 -2.578125 0.515625q-1.8125 0 -3.046875 -0.53125q-1.21875 -0.53125 -1.921875 -1.59375q-0.6875 -1.0625 -0.71875 -2.40625zm19.146698 0.75l1.609375 0.21875q-0.265625 1.65625 -1.359375 2.609375q-1.078125 0.9375 -2.671875 0.9375q-1.984375 0 -3.1875 -1.296875q-1.203125 -1.296875 -1.203125 -3.71875q0 -1.578125 0.515625 -2.75q0.515625 -1.171875 1.578125 -1.75q1.0625 -0.59375 2.3125 -0.59375q1.578125 0 2.578125 0.796875q1.0 0.796875 1.28125 2.265625l-1.59375 0.234375q-0.234375 -0.96875 -0.8125 -1.453125q-0.578125 -0.5 -1.390625 -0.5q-1.234375 0 -2.015625 0.890625q-0.78125 0.890625 -0.78125 2.8125q0 1.953125 0.75 2.84375q0.75 0.875 1.953125 0.875q0.96875 0 1.609375 -0.59375q0.65625 -0.59375 0.828125 -1.828125zm3.0 3.546875l0 -9.671875l1.46875 0l0 1.46875q0.5625 -1.03125 1.03125 -1.359375q0.484375 -0.328125 1.0625 -0.328125q0.828125 0 1.6875 0.53125l-0.5625 1.515625q-0.609375 -0.359375 -1.203125 -0.359375q-0.546875 0 -0.96875 0.328125q-0.421875 0.328125 -0.609375 0.890625q-0.28125 0.875 -0.28125 1.921875l0 5.0625l-1.625 0zm6.228302 -11.46875l0 -1.8906212l1.640625 0l0 1.8906212l-1.640625 0zm0 11.46875l0 -9.671875l1.640625 0l0 9.671875l-1.640625 0zm4.144821 3.703125l0 -13.375l1.484375 0l0 1.25q0.53125 -0.734375 1.1875 -1.09375q0.671875 -0.375 1.625 -0.375q1.234375 0 2.171875 0.640625q0.953125 0.625 1.4375 1.796875q0.484375 1.15625 0.484375 2.546875q0 1.484375 -0.53125 2.671875q-0.53125 1.1875 -1.546875 1.828125q-1.015625 0.625 -2.140625 0.625q-0.8125 0 -1.46875 -0.34375q-0.65625 -0.34375 -1.0625 -0.875l0 4.703125l-1.640625 0zm1.484375 -8.484375q0 1.859375 0.75 2.765625q0.765625 0.890625 1.828125 0.890625q1.09375 0 1.875 -0.921875q0.78125 -0.9375 0.78125 -2.875q0 -1.84375 -0.765625 -2.765625q-0.75 -0.921875 -1.8125 -0.921875q-1.046875 0 -1.859375 0.984375q-0.796875 0.96875 -0.796875 2.84375zm12.469467 3.3125l0.234375 1.453125q-0.6875 0.140625 -1.234375 0.140625q-0.890625 0 -1.390625 -0.28125q-0.484375 -0.28125 -0.6875 -0.734375q-0.203125 -0.46875 -0.203125 -1.9375l0 -5.578125l-1.203125 0l0 -1.265625l1.203125 0l0 -2.390625l1.625 -0.984375l0 3.375l1.65625 0l0 1.265625l-1.65625 0l0 5.671875q0 0.6875 0.078125 0.890625q0.09375 0.203125 0.28125 0.328125q0.203125 0.109375 0.578125 0.109375q0.265625 0 0.71875 -0.0625z" fill-rule="nonzero"/><path fill="#000000" fill-opacity="0.0" d="m548.8425 2.0761154l236.37793 0l0 42.015747l-236.37793 0z" fill-rule="evenodd"/><path fill="#000000" d="m568.8113 24.308613l1.765625 0.453125q-0.5625 2.171875 -2.0 3.328125q-1.4375 1.140625 -3.53125 1.140625q-2.15625 0 -3.515625 -0.875q-1.34375 -0.890625 -2.0625 -2.546875q-0.703125 -1.671875 -0.703125 -3.59375q0 -2.078125 0.796875 -3.625q0.796875 -1.5625 2.265625 -2.359375q1.484375 -0.81249905 3.25 -0.81249905q2.0 0 3.359375 1.015624q1.375 1.015625 1.90625 2.875l-1.734375 0.40625q-0.46875 -1.453125 -1.359375 -2.109375q-0.875 -0.671875 -2.203125 -0.671875q-1.546875 0 -2.578125 0.734375q-1.03125 0.734375 -1.453125 1.984375q-0.421875 1.234375 -0.421875 2.5625q0 1.703125 0.5 2.96875q0.5 1.265625 1.546875 1.90625q1.046875 0.625 2.265625 0.625q1.484375 0 2.515625 -0.859375q1.03125 -0.859375 1.390625 -2.546875zm4.0354614 4.6875l0 -13.359374l9.015625 0l0 1.578124l-7.25 0l0 4.140625l6.265625 0l0 1.578125l-6.265625 0l0 6.0625l-1.765625 0zm17.552185 -5.234375l0 -1.578125l5.65625 0l0 4.953125q-1.296875 1.046875 -2.6875 1.578125q-1.375 0.515625 -2.84375 0.515625q-1.96875 0 -3.578125 -0.84375q-1.609375 -0.84375 -2.421875 -2.4375q-0.8125 -1.59375 -0.8125 -3.5625q0 -1.953125 0.8125 -3.640625q0.8125 -1.6875 2.34375 -2.5q1.53125 -0.82812405 3.515625 -0.82812405q1.453125 0 2.625 0.46875q1.171875 0.46874905 1.828125 1.312499q0.671875 0.828125 1.015625 2.171875l-1.59375 0.4375q-0.296875 -1.015625 -0.75 -1.59375q-0.4375 -0.59375 -1.265625 -0.9375q-0.828125 -0.34375 -1.84375 -0.34375q-1.203125 0 -2.09375 0.375q-0.890625 0.359375 -1.4375 0.96875q-0.53125 0.59375 -0.828125 1.3125q-0.515625 1.234375 -0.515625 2.6875q0 1.78125 0.609375 2.984375q0.625 1.203125 1.796875 1.796875q1.171875 0.578125 2.5 0.578125q1.140625 0 2.234375 -0.4375q1.09375 -0.453125 1.65625 -0.953125l0 -2.484375l-3.921875 0z" fill-rule="nonzero"/><path fill="#efefef" d="m332.42258 180.71916l150.2362 0l0 -10.503937l21.007874 21.007874l-21.007874 21.007874l0 -10.503937l-150.2362 0z" fill-rule="evenodd"/><path stroke="#000000" stroke-width="1.0" stroke-linejoin="round" stroke-linecap="butt" d="m332.42258 180.71916l150.2362 0l0 -10.503937l21.007874 21.007874l-21.007874 21.007874l0 -10.503937l-150.2362 0z" fill-rule="evenodd"/></g></svg>