<svg version="1.1" viewBox="0.0 0.0 928.0 400.0" fill="none" stroke="none" stroke-linecap="square" stroke-miterlimit="10" xmlns:xlink="http://www.w3.org/1999/xlink" xmlns="http://www.w3.org/2000/svg"><clipPath id="p.0"><path d="m0 0l928.0 0l0 400.0l-928.0 0l0 -400.0z" clip-rule="nonzero"/></clipPath><g clip-path="url(#p.0)"><path fill="#000000" fill-opacity="0.0" d="m0 0l928.0 0l0 400.0l-928.0 0z" fill-rule="evenodd"/><path fill="#000000" fill-opacity="0.0" d="m543.82416 45.732285l380.8504 0l0 350.6772l-380.8504 0z" fill-rule="evenodd"/><path stroke="#000000" stroke-width="1.0" stroke-linejoin="round" stroke-linecap="butt" d="m543.82416 45.732285l380.8504 0l0 350.6772l-380.8504 0z" fill-rule="evenodd"/><path fill="#000000" fill-opacity="0.0" d="m3.3254592 114.42519l296.28345 0l0 213.29132l-296.28345 0z" fill-rule="evenodd"/><path stroke="#000000" stroke-width="1.0" stroke-linejoin="round" stroke-linecap="butt" d="m3.3254592 114.42519l296.28345 0l0 213.29132l-296.28345 0z" fill-rule="evenodd"/><path fill="#1967d2" d="m16.419209 173.99086l1.703125 0l0 -8.546875l3.796875 0l0 -1.3125l-3.796875 0l0 -0.6875q0 -0.625 0.15625 -1.078125q0.15625 -0.46875 0.46875 -0.765625q0.296875 -0.28125 0.734375 -0.421875q0.4375 -0.140625 1.015625 -0.140625q0.5625 0 1.0625 0.09375q0.5 0.09375 0.875 0.21875l0.1875 -1.390625q-0.234375 -0.0625 -0.46875 -0.109375q-0.21875 -0.046875 -0.453125 -0.09375q-0.34375 -0.0625 -0.703125 -0.109375q-0.34375 -0.046875 -0.703125 -0.046875q-0.875 0 -1.59375 0.25q-0.703125 0.25 -1.203125 0.734375q-0.515625 0.484375 -0.796875 1.203125q-0.28125 0.703125 -0.28125 1.65625l0 0.6875l-2.703124 0l0 1.3125l2.703124 0l0 8.546875zm15.179947 0l1.53125 0l0 -9.859375l-1.6875 0l0 7.078125q-0.140625 0.3125 -0.34375 0.578125q-0.203125 0.265625 -0.484375 0.46875q-0.328125 0.234375 -0.78125 0.375q-0.4375 0.125 -1.0 0.125q-0.484375 0 -0.859375 -0.125q-0.359375 -0.140625 -0.625 -0.453125q-0.25 -0.3125 -0.375 -0.828125q-0.125 -0.53125 -0.125 -1.34375l0 -5.875l-1.6875 0l0 5.859375q0 1.109375 0.234375 1.890625q0.25 0.78125 0.6875 1.296875q0.453125 0.515625 1.078125 0.765625q0.625 0.234375 1.40625 0.234375q0.96875 0 1.703125 -0.40625q0.734375 -0.40625 1.234375 -1.140625l0.09375 1.359375zm4.695572 0l1.6875 0l0 -7.0625q0.171875 -0.328125 0.40625 -0.59375q0.234375 -0.265625 0.515625 -0.453125q0.328125 -0.234375 0.71875 -0.359375q0.40625 -0.140625 0.875 -0.140625q0.546875 0 0.953125 0.125q0.421875 0.125 0.703125 0.40625q0.28125 0.296875 0.421875 0.75q0.15625 0.453125 0.15625 1.109375l0 6.21875l1.6875 0l0 -6.265625q0 -0.96875 -0.25 -1.6875q-0.234375 -0.71875 -0.6875 -1.1875q-0.4375 -0.453125 -1.078125 -0.671875q-0.625 -0.21875 -1.40625 -0.21875q-0.5625 0 -1.078125 0.171875q-0.515625 0.15625 -0.953125 0.4375q-0.296875 0.1875 -0.5625 0.453125q-0.25 0.265625 -0.46875 0.5625l-0.125 -1.453125l-1.515625 0l0 9.859375zm15.398697 -1.1875q-0.796875 0 -1.328125 -0.3125q-0.53125 -0.3125 -0.84375 -0.828125q-0.328125 -0.5 -0.46875 -1.125q-0.140625 -0.640625 -0.140625 -1.28125l0 -0.390625q0 -0.625 0.140625 -1.25q0.140625 -0.640625 0.46875 -1.15625q0.328125 -0.5 0.859375 -0.8125q0.53125 -0.3125 1.3125 -0.3125q0.515625 0 0.953125 0.171875q0.4375 0.171875 0.765625 0.484375q0.3125 0.296875 0.5 0.6875q0.1875 0.390625 0.203125 0.84375l1.59375 0q0 -0.75 -0.3125 -1.40625q-0.296875 -0.65625 -0.828125 -1.140625q-0.53125 -0.46875 -1.265625 -0.734375q-0.734375 -0.28125 -1.609375 -0.28125q-1.109375 0 -1.953125 0.40625q-0.84375 0.390625 -1.390625 1.0625q-0.5625 0.6875 -0.859375 1.578125q-0.28125 0.890625 -0.28125 1.859375l0 0.390625q0 0.984375 0.28125 1.875q0.296875 0.875 0.859375 1.5625q0.546875 0.671875 1.390625 1.078125q0.84375 0.40625 1.953125 0.40625q0.78125 0 1.5 -0.265625q0.71875 -0.28125 1.28125 -0.734375q0.5625 -0.4375 0.890625 -1.03125q0.328125 -0.609375 0.34375 -1.265625l-1.59375 0q-0.015625 0.40625 -0.21875 0.765625q-0.203125 0.34375 -0.546875 0.609375q-0.328125 0.265625 -0.765625 0.40625q-0.4375 0.140625 -0.890625 0.140625zm10.992447 -11.0625l-1.703125 0l0 2.390625l-2.578125 0l0 1.3125l2.578125 0l0 5.34375q0 0.921875 0.234375 1.5625q0.25 0.640625 0.671875 1.046875q0.421875 0.40625 0.984375 0.59375q0.578125 0.1875 1.2343788 0.1875q0.390625 0 0.78125 -0.046875q0.40625 -0.03125 0.75 -0.109375q0.359375 -0.0625 0.65625 -0.15625q0.296875 -0.09375 0.515625 -0.21875l-0.234375 -1.203125q-0.15625 0.046875 -0.40625 0.09375q-0.234375 0.046875 -0.515625 0.09375q-0.28125 0.046875 -0.578125 0.078125q-0.28125 0.03125 -0.546875 0.03125q-0.375 0 -0.7187538 -0.09375q-0.328125 -0.09375 -0.578125 -0.3125q-0.265625 -0.21875 -0.40625 -0.59375q-0.140625 -0.375 -0.140625 -0.953125l0 -5.34375l3.7500038 0l0 -1.3125l-3.7500038 0l0 -2.390625zm7.4612007 2.390625l0 1.46875l3.359375 0l0 6.9375l-3.359375 0l0 1.453125l8.265625 0l0 -1.453125l-3.21875 0l0 -8.40625l-5.046875 0zm3.140625 -2.578125q0 0.40625 0.25 0.6875q0.25 0.265625 0.765625 0.265625q0.5 0 0.75 -0.265625q0.25 -0.28125 0.25 -0.6875q0 -0.234375 -0.078125 -0.421875q-0.0625 -0.1875 -0.203125 -0.328125q-0.125 -0.109375 -0.3125 -0.171875q-0.171875 -0.078125 -0.40625 -0.078125q-0.25 0 -0.4375 0.078125q-0.171875 0.0625 -0.296875 0.171875q-0.140625 0.140625 -0.21875 0.34375q-0.0625 0.1875 -0.0625 0.40625zm7.320572 7.421875l0 0.203125q0 1.0625 0.3125 1.96875q0.3125 0.90625 0.890625 1.59375q0.578125 0.671875 1.40625 1.0625q0.84375 0.375 1.890625 0.375q1.03125 0 1.859375 -0.375q0.828125 -0.390625 1.40625 -1.0625q0.578125 -0.6875 0.890625 -1.59375q0.3125 -0.90625 0.3125 -1.96875l0 -0.203125q0 -1.0625 -0.3125 -1.984375q-0.3125 -0.921875 -0.890625 -1.59375q-0.578125 -0.671875 -1.421875 -1.046875q-0.828125 -0.390625 -1.875 -0.390625q-1.03125 0 -1.859375 0.390625q-0.828125 0.375 -1.40625 1.046875q-0.578125 0.671875 -0.890625 1.59375q-0.3125 0.921875 -0.3125 1.984375zm1.6875 0.203125l0 -0.203125q0 -0.71875 0.171875 -1.375q0.171875 -0.671875 0.53125 -1.171875q0.34375 -0.5 0.859375 -0.796875q0.515625 -0.296875 1.21875 -0.296875q0.703125 0 1.21875 0.296875q0.53125 0.296875 0.890625 0.796875q0.34375 0.5 0.515625 1.171875q0.1875 0.65625 0.1875 1.375l0 0.203125q0 0.71875 -0.171875 1.390625q-0.171875 0.65625 -0.515625 1.15625q-0.359375 0.5 -0.890625 0.796875q-0.515625 0.28125 -1.203125 0.28125q-0.703125 0 -1.234375 -0.28125q-0.53125 -0.296875 -0.875 -0.796875q-0.359375 -0.5 -0.53125 -1.15625q-0.171875 -0.671875 -0.171875 -1.390625zm9.976822 4.8125l1.6875 0l0 -7.0625q0.171875 -0.328125 0.40625 -0.59375q0.234375 -0.265625 0.515625 -0.453125q0.328125 -0.234375 0.71875 -0.359375q0.40625 -0.140625 0.875 -0.140625q0.546875 0 0.953125 0.125q0.421875 0.125 0.703125 0.40625q0.28125 0.296875 0.421875 0.75q0.15625 0.453125 0.15625 1.109375l0 6.21875l1.6875 0l0 -6.265625q0 -0.96875 -0.25 -1.6875q-0.234375 -0.71875 -0.6875 -1.1875q-0.4375 -0.453125 -1.078125 -0.671875q-0.625 -0.21875 -1.40625 -0.21875q-0.5625 0 -1.078125 0.171875q-0.515625 0.15625 -0.953125 0.4375q-0.296875 0.1875 -0.5625 0.453125q-0.25 0.265625 -0.46875 0.5625l-0.125 -1.453125l-1.515625 0l0 9.859375z" fill-rule="nonzero"/><path fill="#37474f" d="m117.17936 173.99086l1.703125 0l0 -8.546875l3.796875 0l0 -1.3125l-3.796875 0l0 -0.6875q0 -0.625 0.15625 -1.078125q0.15625 -0.46875 0.46875 -0.765625q0.296875 -0.28125 0.734375 -0.421875q0.4375 -0.140625 1.015625 -0.140625q0.5625 0 1.0625 0.09375q0.5 0.09375 0.875 0.21875l0.1875 -1.390625q-0.234375 -0.0625 -0.46875 -0.109375q-0.21875 -0.046875 -0.453125 -0.09375q-0.34375 -0.0625 -0.703125 -0.109375q-0.34375 -0.046875 -0.703125 -0.046875q-0.875 0 -1.59375 0.25q-0.703125 0.25 -1.203125 0.734375q-0.515625 0.484375 -0.796875 1.203125q-0.28125 0.703125 -0.28125 1.65625l0 0.6875l-2.703125 0l0 1.3125l2.703125 0l0 8.546875zm8.211197 -5.015625l0 0.203125q0 1.0625 0.3125 1.96875q0.3125 0.90625 0.890625 1.59375q0.578125 0.671875 1.40625 1.0625q0.8437424 0.375 1.8906174 0.375q1.03125 0 1.859375 -0.375q0.828125 -0.390625 1.40625 -1.0625q0.578125 -0.6875 0.890625 -1.59375q0.3125 -0.90625 0.3125 -1.96875l0 -0.203125q0 -1.0625 -0.3125 -1.984375q-0.3125 -0.921875 -0.890625 -1.59375q-0.578125 -0.671875 -1.421875 -1.046875q-0.828125 -0.390625 -1.875 -0.390625q-1.03125 0 -1.8593674 0.390625q-0.828125 0.375 -1.40625 1.046875q-0.578125 0.671875 -0.890625 1.59375q-0.3125 0.921875 -0.3125 1.984375zm1.6875 0.203125l0 -0.203125q0 -0.71875 0.171875 -1.375q0.171875 -0.671875 0.53125 -1.171875q0.34374237 -0.5 0.8593674 -0.796875q0.515625 -0.296875 1.21875 -0.296875q0.703125 0 1.21875 0.296875q0.53125 0.296875 0.890625 0.796875q0.34375 0.5 0.515625 1.171875q0.1875 0.65625 0.1875 1.375l0 0.203125q0 0.71875 -0.171875 1.390625q-0.171875 0.65625 -0.515625 1.15625q-0.359375 0.5 -0.890625 0.796875q-0.515625 0.28125 -1.203125 0.28125q-0.703125 0 -1.234375 -0.28125q-0.53125 -0.296875 -0.8749924 -0.796875q-0.359375 -0.5 -0.53125 -1.15625q-0.171875 -0.671875 -0.171875 -1.390625zm9.508064 -0.203125l0 0.203125q0 1.0625 0.3125 1.96875q0.3125 0.90625 0.890625 1.59375q0.578125 0.671875 1.40625 1.0625q0.84375 0.375 1.890625 0.375q1.03125 0 1.859375 -0.375q0.828125 -0.390625 1.40625 -1.0625q0.578125 -0.6875 0.890625 -1.59375q0.3125 -0.90625 0.3125 -1.96875l0 -0.203125q0 -1.0625 -0.3125 -1.984375q-0.3125 -0.921875 -0.890625 -1.59375q-0.578125 -0.671875 -1.421875 -1.046875q-0.828125 -0.390625 -1.875 -0.390625q-1.03125 0 -1.859375 0.390625q-0.828125 0.375 -1.40625 1.046875q-0.578125 0.671875 -0.890625 1.59375q-0.3125 0.921875 -0.3125 1.984375zm1.6875 0.203125l0 -0.203125q0 -0.71875 0.171875 -1.375q0.171875 -0.671875 0.53125 -1.171875q0.34375 -0.5 0.859375 -0.796875q0.515625 -0.296875 1.21875 -0.296875q0.703125 0 1.21875 0.296875q0.53125 0.296875 0.890625 0.796875q0.34375 0.5 0.515625 1.171875q0.1875 0.65625 0.1875 1.375l0 0.203125q0 0.71875 -0.171875 1.390625q-0.171875 0.65625 -0.515625 1.15625q-0.359375 0.5 -0.890625 0.796875q-0.515625 0.28125 -1.203125 0.28125q-0.703125 0 -1.234375 -0.28125q-0.53125 -0.296875 -0.875 -0.796875q-0.359375 -0.5 -0.53125 -1.15625q-0.171875 -0.671875 -0.171875 -1.390625zm11.648697 -0.578125l0 0.09375q0 1.3125 0.203125 2.46875q0.203125 1.140625 0.5625 2.109375q0.328125 0.984375 0.78125 1.78125q0.453125 0.8125 0.953125 1.4375q0.484375 0.640625 0.984375 1.078125q0.515625 0.453125 0.96875 0.703125l0.359375 -1.03125q-0.375 -0.296875 -0.75 -0.71875q-0.359375 -0.421875 -0.703125 -0.96875q-0.34375 -0.578125 -0.65625 -1.3125q-0.3125 -0.71875 -0.546875 -1.5625q-0.21875 -0.84375 -0.34375 -1.828125q-0.125 -1.0 -0.125 -2.140625l0 -0.125q0 -1.1875 0.125 -2.203125q0.140625 -1.03125 0.390625 -1.890625q0.265625 -0.953125 0.640625 -1.75q0.390625 -0.796875 0.796875 -1.390625q0.28125 -0.375 0.578125 -0.6875q0.296875 -0.3125 0.59375 -0.53125l-0.359375 -1.109375q-0.453125 0.25 -0.953125 0.703125q-0.5 0.453125 -1.0 1.078125q-0.5 0.625 -0.953125 1.4375q-0.4375 0.8125 -0.78125 1.78125q-0.359375 0.984375 -0.5625 2.140625q-0.203125 1.140625 -0.203125 2.4375zm16.008072 5.390625l1.75 0l0 -0.140625q-0.15625 -0.421875 -0.25 -0.96875q-0.09375 -0.546875 -0.09375 -1.046875l0 -4.578125q0 -0.828125 -0.296875 -1.4375q-0.296875 -0.625 -0.8125 -1.046875q-0.53125 -0.40625 -1.25 -0.609375q-0.71875 -0.203125 -1.5625 -0.203125q-0.921875 0 -1.65625 0.25q-0.71875 0.25 -1.21875 0.65625q-0.5 0.421875 -0.78125 0.953125q-0.265625 0.515625 -0.265625 1.046875l1.6875 0q0 -0.3125 0.140625 -0.59375q0.15625 -0.28125 0.4375 -0.5q0.265625 -0.203125 0.65625 -0.328125q0.40625 -0.140625 0.90625 -0.140625q0.546875 0 0.96875 0.140625q0.4375 0.140625 0.734375 0.390625q0.296875 0.25 0.453125 0.609375q0.171875 0.34375 0.171875 0.796875l0 0.78125l-1.828125 0q-1.03125 0 -1.875 0.203125q-0.828125 0.1875 -1.421875 0.59375q-0.59375 0.40625 -0.921875 1.015625q-0.3125 0.609375 -0.3125 1.421875q0 0.625 0.234375 1.15625q0.25 0.53125 0.6875 0.90625q0.4375 0.40625 1.0625 0.640625q0.640625 0.21875 1.4375 0.21875q0.46875 0 0.890625 -0.109375q0.4375 -0.09375 0.828125 -0.265625q0.375 -0.171875 0.6875 -0.390625q0.3125 -0.234375 0.5625 -0.5q0.03125 0.3125 0.09375 0.609375q0.0625 0.28125 0.15625 0.46875zm-2.984375 -1.28125q-0.484375 0 -0.859375 -0.125q-0.375 -0.140625 -0.625 -0.359375q-0.234375 -0.21875 -0.359375 -0.53125q-0.125 -0.3125 -0.125 -0.671875q0 -0.390625 0.140625 -0.6875q0.140625 -0.296875 0.40625 -0.515625q0.390625 -0.3125 1.03125 -0.453125q0.65625 -0.15625 1.53125 -0.15625l1.5625 0l0 2.0q-0.140625 0.28125 -0.40625 0.5625q-0.25 0.265625 -0.59375 0.46875q-0.34375 0.203125 -0.78125 0.34375q-0.421875 0.125 -0.921875 0.125zm11.976822 0.890625l0 -1.609375l-1.828125 0l0 1.640625q0 0.765625 -0.1875 1.484375q-0.1875 0.71875 -0.625 1.359375l1.046875 0.578125q0.734375 -0.65625 1.15625 -1.609375q0.4375 -0.9375 0.4375 -1.84375zm26.469269 -4.421875l0 -0.203125q0 -0.765625 -0.125 -1.453125q-0.125 -0.703125 -0.375 -1.28125q-0.234375 -0.515625 -0.546875 -0.921875q-0.3125 -0.421875 -0.703125 -0.703125q-0.4375 -0.3125 -0.984375 -0.484375q-0.53125 -0.171875 -1.15625 -0.171875q-0.515625 0 -0.953125 0.09375q-0.4375 0.09375 -0.796875 0.296875q-0.296875 0.15625 -0.5625 0.375q-0.25 0.203125 -0.453125 0.46875l0 -5.203125l-1.6875 0l0 14.0l1.546875 0l0.078125 -1.125q0.171875 0.21875 0.34375 0.390625q0.1875 0.171875 0.390625 0.3125q0.421875 0.296875 0.9375 0.453125q0.53125 0.15625 1.171875 0.15625q0.546875 0 1.015625 -0.140625q0.484375 -0.140625 0.890625 -0.390625q0.5625 -0.34375 0.953125 -0.890625q0.390625 -0.546875 0.640625 -1.21875q0.1875 -0.53125 0.28125 -1.125q0.09375 -0.59375 0.09375 -1.234375zm-1.6875 -0.203125l0 0.203125q0 0.4375 -0.0625 0.859375q-0.046875 0.40625 -0.15625 0.78125q-0.15625 0.46875 -0.40625 0.875q-0.234375 0.390625 -0.609375 0.640625q-0.265625 0.203125 -0.609375 0.3125q-0.34375 0.09375 -0.765625 0.09375q-0.4375 0 -0.8125 -0.109375q-0.359375 -0.109375 -0.640625 -0.328125q-0.296875 -0.203125 -0.53125 -0.484375q-0.21875 -0.28125 -0.375 -0.609375l0 -4.3125q0.15625 -0.328125 0.375 -0.59375q0.21875 -0.28125 0.515625 -0.5q0.28125 -0.1875 0.640625 -0.296875q0.375 -0.125 0.8125 -0.125q0.390625 0 0.71875 0.09375q0.328125 0.09375 0.59375 0.25q0.390625 0.234375 0.65625 0.640625q0.265625 0.390625 0.421875 0.875q0.125 0.390625 0.171875 0.84375q0.0625 0.4375 0.0625 0.890625zm10.679947 -0.28125l0 -0.09375q0 -1.390625 -0.21875 -2.5q-0.203125 -1.125 -0.53125 -2.078125q-0.34375 -0.984375 -0.796875 -1.78125q-0.4375 -0.796875 -0.953125 -1.4375q-0.484375 -0.625 -1.0 -1.078125q-0.515625 -0.453125 -0.96875 -0.703125l-0.34375 1.03125q0.296875 0.25 0.609375 0.609375q0.328125 0.34375 0.625 0.796875q0.390625 0.59375 0.765625 1.390625q0.375 0.796875 0.640625 1.796875q0.171875 0.703125 0.328125 1.71875q0.15625 1.0 0.15625 2.21875l0 0.125q0 1.09375 -0.125 2.046875q-0.109375 0.953125 -0.3125 1.765625q-0.203125 0.890625 -0.53125 1.625q-0.3125 0.75 -0.640625 1.34375q-0.359375 0.578125 -0.75 1.015625q-0.390625 0.453125 -0.765625 0.734375l0.34375 1.03125q0.453125 -0.25 0.953125 -0.703125q0.515625 -0.4375 1.015625 -1.078125q0.5 -0.625 0.9375 -1.4375q0.453125 -0.796875 0.8125 -1.78125q0.34375 -0.96875 0.546875 -2.109375q0.203125 -1.15625 0.203125 -2.46875z" fill-rule="nonzero"/><path fill="#37474f" d="m233.94757 177.31898l0.1875 -1.046875q-0.5625 -0.015625 -0.9375 -0.3125q-0.359375 -0.28125 -0.578125 -0.734375q-0.234375 -0.453125 -0.328125 -1.015625q-0.078125 -0.5625 -0.078125 -1.125l0 -1.53125q-0.015625 -1.09375 -0.515625 -1.90625q-0.5 -0.828125 -1.5625 -1.25q1.0625 -0.421875 1.5625 -1.25q0.515625 -0.828125 0.515625 -1.921875l0 -1.546875q0 -0.5625 0.046875 -1.125q0.0625 -0.5625 0.265625 -1.015625q0.1875 -0.453125 0.5625 -0.734375q0.390625 -0.296875 1.046875 -0.3125l-0.1875 -1.046875q-0.921875 0.03125 -1.5625 0.40625q-0.640625 0.359375 -1.046875 0.9375q-0.4375 0.609375 -0.640625 1.390625q-0.1875 0.765625 -0.1875 1.5l0 1.546875q0 1.328125 -0.625 1.921875q-0.609375 0.578125 -1.90625 0.578125l0 1.3125q1.296875 0.015625 1.90625 0.609375q0.625 0.59375 0.625 1.90625l0 1.53125q0 0.734375 0.203125 1.46875q0.21875 0.75 0.625 1.34375q0.4375 0.640625 1.078125 1.015625q0.65625 0.390625 1.53125 0.40625z" fill-rule="nonzero"/><path fill="#1967d2" d="m47.755924 185.99086l0 1.46875l3.359375 0l0 11.078125l-3.359375 0l0 1.453125l8.265625 0l0 -1.453125l-3.21875 0l0 -12.546875l-5.046875 0zm15.289322 14.1875q1.4375038 0 2.4218788 -0.578125q0.984375 -0.578125 1.46875 -1.328125l-1.03125 -0.796875q-0.46875 0.59375 -1.171875 0.96875q-0.6875 0.359375 -1.5937538 0.359375q-0.6875 0 -1.25 -0.25q-0.5625 -0.265625 -0.96875 -0.71875q-0.390625 -0.40625 -0.609375 -0.953125q-0.21875 -0.546875 -0.28125 -1.265625l0 -0.078125l7.031254 0l0 -0.75q0 -1.03125 -0.265625 -1.90625q-0.25 -0.890625 -0.78125 -1.546875q-0.53125 -0.640625 -1.328125 -1.0q-0.7968788 -0.375 -1.8593788 -0.375q-0.84375 0 -1.65625 0.34375q-0.796875 0.34375 -1.4375 0.984375q-0.625 0.65625 -1.015625 1.609375q-0.375 0.9375 -0.375 2.125l0 0.390625q0 1.03125 0.34375 1.90625q0.34375 0.875 0.96875 1.5q0.609375 0.640625 1.484375 1.0q0.875 0.359375 1.90625 0.359375zm-0.21875 -8.84375q0.65625 0 1.125 0.234375q0.4687538 0.234375 0.7656288 0.625q0.3125 0.375 0.484375 0.90625q0.171875 0.515625 0.171875 0.984375l0 0.078125l-5.296879 0q0.09375 -0.6875 0.34375 -1.203125q0.265625 -0.53125 0.625 -0.890625q0.359375 -0.359375 0.8125 -0.546875q0.453125 -0.1875 0.96875 -0.1875zm11.054951 -3.59375l-1.703125 0l0 2.390625l-2.578125 0l0 1.3125l2.578125 0l0 5.34375q0 0.921875 0.234375 1.5625q0.25 0.640625 0.671875 1.046875q0.421875 0.40625 0.984375 0.59375q0.578125 0.1875 1.234375 0.1875q0.390625 0 0.78125 -0.046875q0.40625 -0.03125 0.75 -0.109375q0.359375 -0.0625 0.65625 -0.15625q0.296875 -0.09375 0.515625 -0.21875l-0.234375 -1.203125q-0.15625 0.046875 -0.40625 0.09375q-0.234375 0.046875 -0.515625 0.09375q-0.28125 0.046875 -0.578125 0.078125q-0.28125 0.03125 -0.546875 0.03125q-0.375 0 -0.71875 -0.09375q-0.328125 -0.09375 -0.578125 -0.3125q-0.265625 -0.21875 -0.40625 -0.59375q-0.140625 -0.375 -0.140625 -0.953125l0 -5.34375l3.75 0l0 -1.3125l-3.75 0l0 -2.390625z" fill-rule="nonzero"/><path fill="#37474f" d="m96.27259 187.74086l-1.703125 0l0 2.390625l-2.578125 0l0 1.3125l2.578125 0l0 5.34375q0 0.921875 0.234375 1.5625q0.25 0.640625 0.671875 1.046875q0.421875 0.40625 0.984375 0.59375q0.578125 0.1875 1.234375 0.1875q0.390625 0 0.78125 -0.046875q0.40625 -0.03125 0.75 -0.109375q0.359375 -0.0625 0.65625 -0.15625q0.296875 -0.09375 0.515625 -0.21875l-0.234375 -1.203125q-0.15625 0.046875 -0.40625 0.09375q-0.234375 0.046875 -0.515625 0.09375q-0.28125 0.046875 -0.578125 0.078125q-0.28125 0.03125 -0.546875 0.03125q-0.375 0 -0.71875 -0.09375q-0.328125 -0.09375 -0.578125 -0.3125q-0.265625 -0.21875 -0.40625 -0.59375q-0.140625 -0.375 -0.140625 -0.953125l0 -5.34375l3.75 0l0 -1.3125l-3.75 0l0 -2.390625zm12.664322 12.25l0 -13.265625l-0.125 0l-5.03125 1.9375l0 1.53125l3.46875 -1.3125l0 11.109375l1.6875 0zm25.047386 -7.109375l0 -1.46875l-8.124992 0l0 1.46875l8.124992 0zm0 3.78125l0 -1.453125l-8.124992 0l0 1.453125l8.124992 0zm20.750519 3.328125l1.75 0l0 -0.140625q-0.15625 -0.421875 -0.25 -0.96875q-0.09375 -0.546875 -0.09375 -1.046875l0 -4.578125q0 -0.828125 -0.296875 -1.4375q-0.296875 -0.625 -0.8125 -1.046875q-0.53125 -0.40625 -1.25 -0.609375q-0.71875 -0.203125 -1.5625 -0.203125q-0.921875 0 -1.65625 0.25q-0.71875 0.25 -1.21875 0.65625q-0.5 0.421875 -0.78125 0.953125q-0.265625 0.515625 -0.265625 1.046875l1.6875 0q0 -0.3125 0.140625 -0.59375q0.15625 -0.28125 0.4375 -0.5q0.265625 -0.203125 0.65625 -0.328125q0.40625 -0.140625 0.90625 -0.140625q0.546875 0 0.96875 0.140625q0.4375 0.140625 0.734375 0.390625q0.296875 0.25 0.453125 0.609375q0.171875 0.34375 0.171875 0.796875l0 0.78125l-1.828125 0q-1.03125 0 -1.875 0.203125q-0.828125 0.1875 -1.421875 0.59375q-0.59375 0.40625 -0.921875 1.015625q-0.3125 0.609375 -0.3125 1.421875q0 0.625 0.234375 1.15625q0.25 0.53125 0.6875 0.90625q0.4375 0.40625 1.0625 0.640625q0.640625 0.21875 1.4375 0.21875q0.46875 0 0.890625 -0.109375q0.4375 -0.09375 0.828125 -0.265625q0.375 -0.171875 0.6875 -0.390625q0.3125 -0.234375 0.5625 -0.5q0.03125 0.3125 0.09375 0.609375q0.0625 0.28125 0.15625 0.46875zm-2.984375 -1.28125q-0.484375 0 -0.859375 -0.125q-0.375 -0.140625 -0.625 -0.359375q-0.234375 -0.21875 -0.359375 -0.53125q-0.125 -0.3125 -0.125 -0.671875q0 -0.390625 0.140625 -0.6875q0.140625 -0.296875 0.40625 -0.515625q0.390625 -0.3125 1.03125 -0.453125q0.65625 -0.15625 1.53125 -0.15625l1.5625 0l0 2.0q-0.140625 0.28125 -0.40625 0.5625q-0.25 0.265625 -0.59375 0.46875q-0.34375 0.203125 -0.78125 0.34375q-0.421875 0.125 -0.921875 0.125zm22.203644 -7.046875l-2.375 2.96875l1.328125 0.96875l1.9375 -3.21875l1.9375 3.296875l1.34375 -1.0l-2.34375 -2.953125l3.484375 -0.859375l-0.5 -1.609375l-3.296875 1.359375l0.265625 -3.890625l-1.625 0l0.234375 3.84375l-3.328125 -1.375l-0.5 1.59375l3.4375 0.875z" fill-rule="nonzero"/><path fill="#c5221f" d="m201.17336 199.99086l0 -1.375l-6.65625 0l3.5625 -3.859375q0.5 -0.546875 0.953125 -1.09375q0.453125 -0.5625 0.796875 -1.125q0.328125 -0.5625 0.53125 -1.140625q0.203125 -0.578125 0.203125 -1.171875q0 -0.796875 -0.28125 -1.46875q-0.28125 -0.671875 -0.796875 -1.15625q-0.515625 -0.5 -1.265625 -0.78125q-0.75 -0.28125 -1.6875 -0.28125q-1.03125 0 -1.828125 0.328125q-0.796875 0.328125 -1.34375 0.890625q-0.546875 0.5625 -0.84375 1.3125q-0.28125 0.734375 -0.28125 1.5625l1.6875 0q0 -0.609375 0.15625 -1.109375q0.15625 -0.515625 0.484375 -0.859375q0.328125 -0.34375 0.8125 -0.53125q0.484375 -0.203125 1.15625 -0.203125q0.546875 0 0.96875 0.1875q0.4375 0.1875 0.75 0.5q0.296875 0.328125 0.453125 0.765625q0.171875 0.421875 0.171875 0.921875q0 0.390625 -0.109375 0.78125q-0.09375 0.375 -0.328125 0.796875q-0.25 0.421875 -0.640625 0.921875q-0.390625 0.5 -0.96875 1.140625l-4.34375 4.828125l0 1.21875l8.6875 0z" fill-rule="nonzero"/><path fill="#37474f" d="m207.5408 190.91273q0 0.53125 0.328125 0.90625q0.34375 0.359375 1.0 0.359375q0.640625 0 0.984375 -0.359375q0.34375 -0.375 0.34375 -0.90625q0 -0.546875 -0.34375 -0.921875q-0.328125 -0.375 -0.984375 -0.375q-0.671875 0 -1.0 0.390625q-0.328125 0.375 -0.328125 0.90625zm2.171875 8.6875l0 -1.609375l-1.828125 0l0 1.640625q0 0.765625 -0.1875 1.484375q-0.1875 0.71875 -0.625 1.359375l1.046875 0.578125q0.734375 -0.65625 1.15625 -1.609375q0.4375 -0.9375 0.4375 -1.84375z" fill-rule="nonzero"/><path fill="#1967d2" d="m47.755924 211.99086l0 1.46875l3.359375 0l0 11.078125l-3.359375 0l0 1.453125l8.265625 0l0 -1.453125l-3.21875 0l0 -12.546875l-5.046875 0zm15.289322 14.1875q1.4375038 0 2.4218788 -0.578125q0.984375 -0.578125 1.46875 -1.328125l-1.03125 -0.796875q-0.46875 0.59375 -1.171875 0.96875q-0.6875 0.359375 -1.5937538 0.359375q-0.6875 0 -1.25 -0.25q-0.5625 -0.265625 -0.96875 -0.71875q-0.390625 -0.40625 -0.609375 -0.953125q-0.21875 -0.546875 -0.28125 -1.265625l0 -0.078125l7.031254 0l0 -0.75q0 -1.03125 -0.265625 -1.90625q-0.25 -0.890625 -0.78125 -1.546875q-0.53125 -0.640625 -1.328125 -1.0q-0.7968788 -0.375 -1.8593788 -0.375q-0.84375 0 -1.65625 0.34375q-0.796875 0.34375 -1.4375 0.984375q-0.625 0.65625 -1.015625 1.609375q-0.375 0.9375 -0.375 2.125l0 0.390625q0 1.03125 0.34375 1.90625q0.34375 0.875 0.96875 1.5q0.609375 0.640625 1.484375 1.0q0.875 0.359375 1.90625 0.359375zm-0.21875 -8.84375q0.65625 0 1.125 0.234375q0.4687538 0.234375 0.7656288 0.625q0.3125 0.375 0.484375 0.90625q0.171875 0.515625 0.171875 0.984375l0 0.078125l-5.296879 0q0.09375 -0.6875 0.34375 -1.203125q0.265625 -0.53125 0.625 -0.890625q0.359375 -0.359375 0.8125 -0.546875q0.453125 -0.1875 0.96875 -0.1875zm11.054951 -3.59375l-1.703125 0l0 2.390625l-2.578125 0l0 1.3125l2.578125 0l0 5.34375q0 0.921875 0.234375 1.5625q0.25 0.640625 0.671875 1.046875q0.421875 0.40625 0.984375 0.59375q0.578125 0.1875 1.234375 0.1875q0.390625 0 0.78125 -0.046875q0.40625 -0.03125 0.75 -0.109375q0.359375 -0.0625 0.65625 -0.15625q0.296875 -0.09375 0.515625 -0.21875l-0.234375 -1.203125q-0.15625 0.046875 -0.40625 0.09375q-0.234375 0.046875 -0.515625 0.09375q-0.28125 0.046875 -0.578125 0.078125q-0.28125 0.03125 -0.546875 0.03125q-0.375 0 -0.71875 -0.09375q-0.328125 -0.09375 -0.578125 -0.3125q-0.265625 -0.21875 -0.40625 -0.59375q-0.140625 -0.375 -0.140625 -0.953125l0 -5.34375l3.75 0l0 -1.3125l-3.75 0l0 -2.390625z" fill-rule="nonzero"/><path fill="#37474f" d="m96.27259 213.74086l-1.703125 0l0 2.390625l-2.578125 0l0 1.3125l2.578125 0l0 5.34375q0 0.921875 0.234375 1.5625q0.25 0.640625 0.671875 1.046875q0.421875 0.40625 0.984375 0.59375q0.578125 0.1875 1.234375 0.1875q0.390625 0 0.78125 -0.046875q0.40625 -0.03125 0.75 -0.109375q0.359375 -0.0625 0.65625 -0.15625q0.296875 -0.09375 0.515625 -0.21875l-0.234375 -1.203125q-0.15625 0.046875 -0.40625 0.09375q-0.234375 0.046875 -0.515625 0.09375q-0.28125 0.046875 -0.578125 0.078125q-0.28125 0.03125 -0.546875 0.03125q-0.375 0 -0.71875 -0.09375q-0.328125 -0.09375 -0.578125 -0.3125q-0.265625 -0.21875 -0.40625 -0.59375q-0.140625 -0.375 -0.140625 -0.953125l0 -5.34375l3.75 0l0 -1.3125l-3.75 0l0 -2.390625zm15.336197 12.25l0 -1.375l-6.65625 0l3.5625 -3.859375q0.5 -0.546875 0.953125 -1.09375q0.453125 -0.5625 0.796875 -1.125q0.328125 -0.5625 0.53125 -1.140625q0.203125 -0.578125 0.203125 -1.171875q0 -0.796875 -0.28125 -1.46875q-0.28125 -0.671875 -0.796875 -1.15625q-0.515625 -0.5 -1.265625 -0.78125q-0.75 -0.28125 -1.6875 -0.28125q-1.03125 0 -1.828125 0.328125q-0.796875 0.328125 -1.34375 0.890625q-0.546875 0.5625 -0.84375 1.3125q-0.28125 0.734375 -0.28125 1.5625l1.6875 0q0 -0.609375 0.15625 -1.109375q0.15625 -0.515625 0.484375 -0.859375q0.328125 -0.34375 0.8125 -0.53125q0.484375 -0.203125 1.15625 -0.203125q0.546875 0 0.96875 0.1875q0.4375 0.1875 0.75 0.5q0.296875 0.328125 0.453125 0.765625q0.171875 0.421875 0.171875 0.921875q0 0.390625 -0.109375 0.78125q-0.09375 0.375 -0.328125 0.796875q-0.25 0.421875 -0.640625 0.921875q-0.390625 0.5 -0.96875 1.140625l-4.34375 4.828125l0 1.21875l8.6875 0zm22.375511 -7.109375l0 -1.46875l-8.124992 0l0 1.46875l8.124992 0zm0 3.78125l0 -1.453125l-8.124992 0l0 1.453125l8.124992 0zm22.625519 -1.484375l0 -0.203125q0 -0.765625 -0.125 -1.453125q-0.125 -0.703125 -0.375 -1.28125q-0.234375 -0.515625 -0.546875 -0.921875q-0.3125 -0.421875 -0.703125 -0.703125q-0.4375 -0.3125 -0.984375 -0.484375q-0.53125 -0.171875 -1.15625 -0.171875q-0.515625 0 -0.953125 0.09375q-0.4375 0.09375 -0.796875 0.296875q-0.296875 0.15625 -0.5625 0.375q-0.25 0.203125 -0.453125 0.46875l0 -5.203125l-1.6875 0l0 14.0l1.546875 0l0.078125 -1.125q0.171875 0.21875 0.34375 0.390625q0.1875 0.171875 0.390625 0.3125q0.421875 0.296875 0.9375 0.453125q0.53125 0.15625 1.171875 0.15625q0.546875 0 1.015625 -0.140625q0.484375 -0.140625 0.890625 -0.390625q0.5625 -0.34375 0.953125 -0.890625q0.390625 -0.546875 0.640625 -1.21875q0.1875 -0.53125 0.28125 -1.125q0.09375 -0.59375 0.09375 -1.234375zm-1.6875 -0.203125l0 0.203125q0 0.4375 -0.0625 0.859375q-0.046875 0.40625 -0.15625 0.78125q-0.15625 0.46875 -0.40625 0.875q-0.234375 0.390625 -0.609375 0.640625q-0.265625 0.203125 -0.609375 0.3125q-0.34375 0.09375 -0.765625 0.09375q-0.4375 0 -0.8125 -0.109375q-0.359375 -0.109375 -0.640625 -0.328125q-0.296875 -0.203125 -0.53125 -0.484375q-0.21875 -0.28125 -0.375 -0.609375l0 -4.3125q0.15625 -0.328125 0.375 -0.59375q0.21875 -0.28125 0.515625 -0.5q0.28125 -0.1875 0.640625 -0.296875q0.375 -0.125 0.8125 -0.125q0.390625 0 0.71875 0.09375q0.328125 0.09375 0.59375 0.25q0.390625 0.234375 0.65625 0.640625q0.265625 0.390625 0.421875 0.875q0.125 0.390625 0.171875 0.84375q0.0625 0.4375 0.0625 0.890625zm19.031769 -3.3125l-2.375 2.96875l1.328125 0.96875l1.9375 -3.21875l1.9375 3.296875l1.34375 -1.0l-2.34375 -2.953125l3.484375 -0.859375l-0.5 -1.609375l-3.296875 1.359375l0.265625 -3.890625l-1.625 0l0.234375 3.84375l-3.328125 -1.375l-0.5 1.59375l3.4375 0.875z" fill-rule="nonzero"/><path fill="#c5221f" d="m201.17336 225.99086l0 -1.375l-6.65625 0l3.5625 -3.859375q0.5 -0.546875 0.953125 -1.09375q0.453125 -0.5625 0.796875 -1.125q0.328125 -0.5625 0.53125 -1.140625q0.203125 -0.578125 0.203125 -1.171875q0 -0.796875 -0.28125 -1.46875q-0.28125 -0.671875 -0.796875 -1.15625q-0.515625 -0.5 -1.265625 -0.78125q-0.75 -0.28125 -1.6875 -0.28125q-1.03125 0 -1.828125 0.328125q-0.796875 0.328125 -1.34375 0.890625q-0.546875 0.5625 -0.84375 1.3125q-0.28125 0.734375 -0.28125 1.5625l1.6875 0q0 -0.609375 0.15625 -1.109375q0.15625 -0.515625 0.484375 -0.859375q0.328125 -0.34375 0.8125 -0.53125q0.484375 -0.203125 1.15625 -0.203125q0.546875 0 0.96875 0.1875q0.4375 0.1875 0.75 0.5q0.296875 0.328125 0.453125 0.765625q0.171875 0.421875 0.171875 0.921875q0 0.390625 -0.109375 0.78125q-0.09375 0.375 -0.328125 0.796875q-0.25 0.421875 -0.640625 0.921875q-0.390625 0.5 -0.96875 1.140625l-4.34375 4.828125l0 1.21875l8.6875 0z" fill-rule="nonzero"/><path fill="#37474f" d="m207.5408 216.91273q0 0.53125 0.328125 0.90625q0.34375 0.359375 1.0 0.359375q0.640625 0 0.984375 -0.359375q0.34375 -0.375 0.34375 -0.90625q0 -0.546875 -0.34375 -0.921875q-0.328125 -0.375 -0.984375 -0.375q-0.671875 0 -1.0 0.390625q-0.328125 0.375 -0.328125 0.90625zm2.171875 8.6875l0 -1.609375l-1.828125 0l0 1.640625q0 0.765625 -0.1875 1.484375q-0.1875 0.71875 -0.625 1.359375l1.046875 0.578125q0.734375 -0.65625 1.15625 -1.609375q0.4375 -0.9375 0.4375 -1.84375z" fill-rule="nonzero"/><path fill="#1967d2" d="m53.95905 241.95963q-1.078125 0 -1.921875 0.46875q-0.84375 0.46875 -1.4375 1.265625l-0.015625 -0.234375l-0.078125 -1.328125l-1.59375 0l0 9.859375l1.6875 0l0 -6.328125q0.171875 -0.453125 0.421875 -0.8125q0.25 -0.375 0.578125 -0.625q0.375 -0.296875 0.875 -0.4375q0.5 -0.15625 1.125 -0.15625q0.484375 0 0.921875 0.046875q0.453125 0.046875 0.9375 0.15625l0.234375 -1.640625q-0.265625 -0.109375 -0.765625 -0.171875q-0.5 -0.0625 -0.96875 -0.0625zm9.086197 10.21875q1.4375038 0 2.4218788 -0.578125q0.984375 -0.578125 1.46875 -1.328125l-1.03125 -0.796875q-0.46875 0.59375 -1.171875 0.96875q-0.6875 0.359375 -1.5937538 0.359375q-0.6875 0 -1.25 -0.25q-0.5625 -0.265625 -0.96875 -0.71875q-0.390625 -0.40625 -0.609375 -0.953125q-0.21875 -0.546875 -0.28125 -1.265625l0 -0.078125l7.031254 0l0 -0.75q0 -1.03125 -0.265625 -1.90625q-0.25 -0.890625 -0.78125 -1.546875q-0.53125 -0.640625 -1.328125 -1.0q-0.7968788 -0.375 -1.8593788 -0.375q-0.84375 0 -1.65625 0.34375q-0.796875 0.34375 -1.4375 0.984375q-0.625 0.65625 -1.015625 1.609375q-0.375 0.9375 -0.375 2.125l0 0.390625q0 1.03125 0.34375 1.90625q0.34375 0.875 0.96875 1.5q0.609375 0.640625 1.484375 1.0q0.875 0.359375 1.90625 0.359375zm-0.21875 -8.84375q0.65625 0 1.125 0.234375q0.4687538 0.234375 0.7656288 0.625q0.3125 0.375 0.484375 0.90625q0.171875 0.515625 0.171875 0.984375l0 0.078125l-5.296879 0q0.09375 -0.6875 0.34375 -1.203125q0.265625 -0.53125 0.625 -0.890625q0.359375 -0.359375 0.8125 -0.546875q0.453125 -0.1875 0.96875 -0.1875zm11.054951 -3.59375l-1.703125 0l0 2.390625l-2.578125 0l0 1.3125l2.578125 0l0 5.34375q0 0.921875 0.234375 1.5625q0.25 0.640625 0.671875 1.046875q0.421875 0.40625 0.984375 0.59375q0.578125 0.1875 1.234375 0.1875q0.390625 0 0.78125 -0.046875q0.40625 -0.03125 0.75 -0.109375q0.359375 -0.0625 0.65625 -0.15625q0.296875 -0.09375 0.515625 -0.21875l-0.234375 -1.203125q-0.15625 0.046875 -0.40625 0.09375q-0.234375 0.046875 -0.515625 0.09375q-0.28125 0.046875 -0.578125 0.078125q-0.28125 0.03125 -0.546875 0.03125q-0.375 0 -0.71875 -0.09375q-0.328125 -0.09375 -0.578125 -0.3125q-0.265625 -0.21875 -0.40625 -0.59375q-0.140625 -0.375 -0.140625 -0.953125l0 -5.34375l3.75 0l0 -1.3125l-3.75 0l0 -2.390625zm13.695572 12.25l1.53125 0l0 -9.859375l-1.6875 0l0 7.078125q-0.140625 0.3125 -0.34375 0.578125q-0.203125 0.265625 -0.484375 0.46875q-0.328125 0.234375 -0.78125 0.375q-0.4375 0.125 -1.0 0.125q-0.484375 0 -0.859375 -0.125q-0.359375 -0.140625 -0.625 -0.453125q-0.25 -0.3125 -0.375 -0.828125q-0.125 -0.53125 -0.125 -1.34375l0 -5.875l-1.6875 0l0 5.859375q0 1.109375 0.234375 1.890625q0.25 0.78125 0.6875 1.296875q0.453125 0.515625 1.078125 0.765625q0.625 0.234375 1.40625 0.234375q0.96875 0 1.703125 -0.40625q0.734375 -0.40625 1.234375 -1.140625l0.09375 1.359375zm11.164322 -10.03125q-1.078125 0 -1.921875 0.46875q-0.84375 0.46875 -1.4375 1.265625l-0.015625 -0.234375l-0.078125 -1.328125l-1.59375 0l0 9.859375l1.6875 0l0 -6.328125q0.171875 -0.453125 0.421875 -0.8125q0.25 -0.375 0.578125 -0.625q0.375 -0.296875 0.875 -0.4375q0.5 -0.15625 1.125 -0.15625q0.484375 0 0.921875 0.046875q0.453125 0.046875 0.9375 0.15625l0.234375 -1.640625q-0.265625 -0.109375 -0.765625 -0.171875q-0.5 -0.0625 -0.96875 -0.0625zm4.726822 10.03125l1.6875 0l0 -7.0625q0.171875 -0.328125 0.40625 -0.59375q0.234375 -0.265625 0.515625 -0.453125q0.328125 -0.234375 0.71875 -0.359375q0.40625 -0.140625 0.875 -0.140625q0.546875 0 0.953125 0.125q0.421875 0.125 0.703125 0.40625q0.28125 0.296875 0.421875 0.75q0.15625 0.453125 0.15625 1.109375l0 6.21875l1.6875 0l0 -6.265625q0 -0.96875 -0.25 -1.6875q-0.234375 -0.71875 -0.6875 -1.1875q-0.4375 -0.453125 -1.078125 -0.671875q-0.625 -0.21875 -1.40625 -0.21875q-0.5625 0 -1.078125 0.171875q-0.515625 0.15625 -0.953125 0.4375q-0.296875 0.1875 -0.5625 0.453125q-0.25 0.265625 -0.46875 0.5625l-0.125 -1.453125l-1.515625 0l0 9.859375z" fill-rule="nonzero"/><path fill="#37474f" d="m129.8593 239.74088l-1.703125 0l0 2.390625l-2.5781174 0l0 1.3125l2.5781174 0l0 5.34375q0 0.921875 0.234375 1.5625q0.25 0.640625 0.671875 1.046875q0.421875 0.40625 0.984375 0.59375q0.578125 0.1875 1.234375 0.1875q0.390625 0 0.78125 -0.046875q0.40625 -0.03125 0.75 -0.109375q0.359375 -0.0625 0.65625 -0.15625q0.296875 -0.09375 0.515625 -0.21875l-0.234375 -1.203125q-0.15625 0.046875 -0.40625 0.09375q-0.234375 0.046875 -0.515625 0.09375q-0.28125 0.046875 -0.578125 0.078125q-0.28125 0.03125 -0.546875 0.03125q-0.375 0 -0.71875 -0.09375q-0.328125 -0.09375 -0.578125 -0.3125q-0.265625 -0.21875 -0.40625 -0.59375q-0.140625 -0.375 -0.140625 -0.953125l0 -5.34375l3.75 0l0 -1.3125l-3.75 0l0 -2.390625zm12.664322 12.25l0 -13.265625l-0.125 0l-5.03125 1.9375l0 1.53125l3.46875 -1.3125l0 11.109375l1.6875 0zm21.813019 -7.109375l0 -3.875l-1.6875 0l0 3.875l-3.703125 0l0 1.671875l3.703125 0l0 4.109375l1.6875 0l0 -4.109375l3.703125 0l0 -1.671875l-3.703125 0zm21.500519 -5.140625l-1.703125 0l0 2.390625l-2.578125 0l0 1.3125l2.578125 0l0 5.34375q0 0.921875 0.234375 1.5625q0.25 0.640625 0.671875 1.046875q0.421875 0.40625 0.984375 0.59375q0.578125 0.1875 1.234375 0.1875q0.390625 0 0.78125 -0.046875q0.40625 -0.03125 0.75 -0.109375q0.359375 -0.0625 0.65625 -0.15625q0.296875 -0.09375 0.515625 -0.21875l-0.234375 -1.203125q-0.15625 0.046875 -0.40625 0.09375q-0.234375 0.046875 -0.515625 0.09375q-0.28125 0.046875 -0.578125 0.078125q-0.28125 0.03125 -0.546875 0.03125q-0.375 0 -0.71875 -0.09375q-0.328125 -0.09375 -0.578125 -0.3125q-0.265625 -0.21875 -0.40625 -0.59375q-0.140625 -0.375 -0.140625 -0.953125l0 -5.34375l3.75 0l0 -1.3125l-3.75 0l0 -2.390625zm15.336197 12.25l0 -1.375l-6.65625 0l3.5625 -3.859375q0.5 -0.546875 0.953125 -1.09375q0.453125 -0.5625 0.796875 -1.125q0.328125 -0.5625 0.53125 -1.140625q0.203125 -0.578125 0.203125 -1.171875q0 -0.796875 -0.28125 -1.46875q-0.28125 -0.671875 -0.796875 -1.15625q-0.515625 -0.5 -1.265625 -0.78125q-0.75 -0.28125 -1.6875 -0.28125q-1.03125 0 -1.828125 0.328125q-0.796875 0.328125 -1.34375 0.890625q-0.546875 0.5625 -0.84375 1.3125q-0.28125 0.734375 -0.28125 1.5625l1.6875 0q0 -0.609375 0.15625 -1.109375q0.15625 -0.515625 0.484375 -0.859375q0.328125 -0.34375 0.8125 -0.53125q0.484375 -0.203125 1.15625 -0.203125q0.546875 0 0.96875 0.1875q0.4375 0.1875 0.75 0.5q0.296875 0.328125 0.453125 0.765625q0.171875 0.421875 0.171875 0.921875q0 0.390625 -0.109375 0.78125q-0.09375 0.375 -0.328125 0.796875q-0.25 0.421875 -0.640625 0.921875q-0.390625 0.5 -0.96875 1.140625l-4.34375 4.828125l0 1.21875l8.6875 0zm6.367447 -9.078125q0 0.53125 0.328125 0.90625q0.34375 0.359375 1.0 0.359375q0.640625 0 0.984375 -0.359375q0.34375 -0.375 0.34375 -0.90625q0 -0.546875 -0.34375 -0.921875q-0.328125 -0.375 -0.984375 -0.375q-0.671875 0 -1.0 0.390625q-0.328125 0.375 -0.328125 0.90625zm2.171875 8.6875l0 -1.609375l-1.828125 0l0 1.640625q0 0.765625 -0.1875 1.484375q-0.1875 0.71875 -0.625 1.359375l1.046875 0.578125q0.734375 -0.65625 1.15625 -1.609375q0.4375 -0.9375 0.4375 -1.84375z" fill-rule="nonzero"/><path fill="#37474f" d="m15.2629595 280.27213l0.203125 1.046875q0.89062405 -0.015625 1.531249 -0.40625q0.640625 -0.390625 1.078125 -1.0q0.421875 -0.609375 0.609375 -1.359375q0.203125 -0.734375 0.203125 -1.46875l0 -1.53125q0 -0.640625 0.140625 -1.109375q0.15625 -0.46875 0.453125 -0.765625q0.3125 -0.328125 0.796875 -0.46875q0.484375 -0.15625 1.140625 -0.171875l0 -1.3125q-0.734375 0 -1.28125 -0.1875q-0.53125 -0.203125 -0.828125 -0.640625q-0.203125 -0.296875 -0.3125 -0.703125q-0.109375 -0.421875 -0.109375 -0.96875l0 -1.546875q0 -0.765625 -0.203125 -1.546875q-0.203125 -0.78125 -0.671875 -1.40625q-0.40625 -0.5625 -1.046875 -0.90625q-0.625 -0.34375 -1.499999 -0.375l-0.1875 1.046875q0.65625 0.015625 1.031249 0.3125q0.390625 0.28125 0.59375 0.734375q0.1875 0.453125 0.234375 1.015625q0.0625 0.5625 0.0625 1.125l0 1.546875q0 0.71875 0.203125 1.328125q0.21875 0.59375 0.65625 1.046875q0.234375 0.25 0.53125 0.453125q0.3125 0.203125 0.671875 0.34375q-0.34375 0.140625 -0.640625 0.34375q-0.296875 0.1875 -0.546875 0.421875q-0.4375 0.453125 -0.65625 1.0625q-0.21875 0.609375 -0.21875 1.328125l0 1.53125q0 0.5625 -0.09375 1.125q-0.09375 0.5625 -0.3125 1.015625q-0.21875 0.453125 -0.59375 0.734375q-0.37499905 0.296875 -0.93749905 0.3125z" fill-rule="nonzero"/><path fill="#000000" fill-opacity="0.0" d="m3.3254592 72.40945l236.37796 0l0 42.015747l-236.37796 0z" fill-rule="evenodd"/><path fill="#000000" d="m12.8567095 95.53257l1.59375 -0.21875q0.078125 1.53125 0.578125 2.109375q0.515625 0.5625 1.421874 0.5625q0.65625 0 1.140625 -0.296875q0.484375 -0.3125 0.65625 -0.828125q0.1875 -0.53125 0.1875 -1.6875l0 -9.203125l1.765625 0l0 9.109375q0 1.671875 -0.40625 2.59375q-0.40625 0.921875 -1.28125 1.40625q-0.875 0.484375 -2.0625 0.484375q-1.749999 0 -2.687499 -1.015625q-0.9375 -1.015625 -0.90625 -3.015625zm16.34375 2.609375q-0.921875 0.765625 -1.765625 1.09375q-0.828125 0.3125 -1.796875 0.3125q-1.59375 0 -2.453125 -0.78125q-0.859375 -0.78125 -0.859375 -1.984375q0 -0.71875 0.328125 -1.296875q0.328125 -0.59375 0.84375 -0.9375q0.53125 -0.359375 1.1875 -0.546875q0.46875 -0.125 1.453125 -0.25q1.984375 -0.234375 2.921875 -0.5625q0.015625 -0.34375 0.015625 -0.421875q0 -1.0 -0.46875 -1.421875q-0.625 -0.546875 -1.875 -0.546875q-1.15625 0 -1.703125 0.40625q-0.546875 0.40625 -0.8125 1.421875l-1.609375 -0.21875q0.21875 -1.015625 0.71875 -1.640625q0.5 -0.640625 1.453125 -0.984375q0.953125 -0.34375 2.1875 -0.34375q1.25 0 2.015625 0.296875q0.78125 0.28125 1.140625 0.734375q0.375 0.4375 0.515625 1.109375q0.078125 0.421875 0.078125 1.515625l0 2.1875q0 2.28125 0.109375 2.890625q0.109375 0.59375 0.40625 1.15625l-1.703125 0q-0.265625 -0.515625 -0.328125 -1.1875zm-0.140625 -3.671875q-0.890625 0.375 -2.671875 0.625q-1.015625 0.140625 -1.4375 0.328125q-0.421875 0.1875 -0.65625 0.53125q-0.21875 0.34375 -0.21875 0.78125q0 0.65625 0.5 1.09375q0.5 0.4375 1.453125 0.4375q0.9375 0 1.671875 -0.40625q0.75 -0.421875 1.09375 -1.140625q0.265625 -0.5625 0.265625 -1.640625l0 -0.609375zm6.891342 4.859375l-3.6875 -9.671875l1.734375 0l2.078125 5.796875q0.328125 0.9375 0.625 1.9375q0.203125 -0.765625 0.609375 -1.828125l2.140625 -5.90625l1.6875 0l-3.65625 9.671875l-1.53125 0zm12.953125 -1.1875q-0.921875 0.765625 -1.765625 1.09375q-0.828125 0.3125 -1.796875 0.3125q-1.59375 0 -2.453125 -0.78125q-0.859375 -0.78125 -0.859375 -1.984375q0 -0.71875 0.328125 -1.296875q0.328125 -0.59375 0.84375 -0.9375q0.53125 -0.359375 1.1875 -0.546875q0.46875 -0.125 1.453125 -0.25q1.984375 -0.234375 2.921875 -0.5625q0.015625 -0.34375 0.015625 -0.421875q0 -1.0 -0.46875 -1.421875q-0.625 -0.546875 -1.875 -0.546875q-1.15625 0 -1.703125 0.40625q-0.546875 0.40625 -0.8125 1.421875l-1.609375 -0.21875q0.21875 -1.015625 0.71875 -1.640625q0.5 -0.640625 1.453125 -0.984375q0.953125 -0.34375 2.1875 -0.34375q1.25 0 2.015625 0.296875q0.78125 0.28125 1.140625 0.734375q0.375 0.4375 0.515625 1.109375q0.078125 0.421875 0.078125 1.515625l0 2.1875q0 2.28125 0.109375 2.890625q0.109375 0.59375 0.40625 1.15625l-1.703125 0q-0.265625 -0.515625 -0.328125 -1.1875zm-0.140625 -3.671875q-0.890625 0.375 -2.671875 0.625q-1.015625 0.140625 -1.4375 0.328125q-0.421875 0.1875 -0.65625 0.53125q-0.21875 0.34375 -0.21875 0.78125q0 0.65625 0.5 1.09375q0.5 0.4375 1.453125 0.4375q0.9375 0 1.671875 -0.40625q0.75 -0.421875 1.09375 -1.140625q0.265625 -0.5625 0.265625 -1.640625l0 -0.609375zm3.8132172 0.5625l1.65625 -0.140625q0.125 1.0 0.546875 1.640625q0.4375 0.640625 1.34375 1.046875q0.921875 0.390625 2.0625 0.390625q1.0 0 1.78125 -0.296875q0.78125 -0.296875 1.15625 -0.8125q0.375 -0.53125 0.375 -1.15625q0 -0.625 -0.375 -1.09375q-0.359375 -0.46875 -1.1875 -0.796875q-0.546875 -0.203125 -2.390625 -0.640625q-1.828125 -0.453125 -2.5625 -0.84375q-0.96875 -0.5 -1.4375 -1.234375q-0.46875 -0.75 -0.46875 -1.671875q0 -1.0 0.578125 -1.875q0.578125 -0.890625 1.671875 -1.34375q1.109375 -0.453125 2.453125 -0.453125q1.484375 0 2.609375 0.484375q1.140625 0.46875 1.75 1.40625q0.609375 0.921875 0.65625 2.09375l-1.6875 0.125q-0.140625 -1.265625 -0.9375 -1.90625q-0.78125 -0.65625 -2.3125 -0.65625q-1.609375 0 -2.34375 0.59375q-0.734375 0.59375 -0.734375 1.421875q0 0.71875 0.53125 1.171875q0.5 0.46875 2.65625 0.96875q2.15625 0.484375 2.953125 0.84375q1.171875 0.53125 1.71875 1.359375q0.5625 0.828125 0.5625 1.90625q0 1.0625 -0.609375 2.015625q-0.609375 0.9375 -1.75 1.46875q-1.140625 0.515625 -2.578125 0.515625q-1.8125 0 -3.046875 -0.53125q-1.21875 -0.53125 -1.921875 -1.59375q-0.6875 -1.0625 -0.71875 -2.40625zm19.146702 0.75l1.609375 0.21875q-0.265625 1.65625 -1.359375 2.609375q-1.078125 0.9375 -2.671875 0.9375q-1.984375 0 -3.1875 -1.296875q-1.203125 -1.296875 -1.203125 -3.71875q0 -1.578125 0.515625 -2.75q0.515625 -1.171875 1.578125 -1.75q1.0625 -0.59375 2.3125 -0.59375q1.578125 0 2.578125 0.796875q1.0 0.796875 1.28125 2.265625l-1.59375 0.234375q-0.234375 -0.96875 -0.8125 -1.453125q-0.578125 -0.5 -1.390625 -0.5q-1.234375 0 -2.015625 0.890625q-0.78125 0.890625 -0.78125 2.8125q0 1.953125 0.75 2.84375q0.75 0.875 1.953125 0.875q0.96875 0 1.609375 -0.59375q0.65625 -0.59375 0.828125 -1.828125zm3.0 3.546875l0 -9.671875l1.46875 0l0 1.46875q0.5625 -1.03125 1.03125 -1.359375q0.484375 -0.328125 1.0625 -0.328125q0.828125 0 1.6875 0.53125l-0.5625 1.515625q-0.609375 -0.359375 -1.203125 -0.359375q-0.546875 0 -0.96875 0.328125q-0.421875 0.328125 -0.609375 0.890625q-0.28125 0.875 -0.28125 1.921875l0 5.0625l-1.625 0zm6.228302 -11.46875l0 -1.890625l1.640625 0l0 1.890625l-1.640625 0zm0 11.46875l0 -9.671875l1.640625 0l0 9.671875l-1.640625 0zm4.144821 3.703125l0 -13.375l1.484375 0l0 1.25q0.53125 -0.734375 1.1875 -1.09375q0.671875 -0.375 1.625 -0.375q1.234375 0 2.171875 0.640625q0.953125 0.625 1.4375 1.796875q0.484375 1.15625 0.484375 2.546875q0 1.484375 -0.53125 2.671875q-0.53125 1.1875 -1.546875 1.828125q-1.015625 0.625 -2.140625 0.625q-0.8125 0 -1.46875 -0.34375q-0.65625 -0.34375 -1.0625 -0.875l0 4.703125l-1.640625 0zm1.484375 -8.484375q0 1.859375 0.75 2.765625q0.765625 0.890625 1.828125 0.890625q1.09375 0 1.875 -0.921875q0.78125 -0.9375 0.78125 -2.875q0 -1.84375 -0.765625 -2.765625q-0.75 -0.921875 -1.8125 -0.921875q-1.046875 0 -1.859375 0.984375q-0.796875 0.96875 -0.796875 2.84375zm12.469467 3.3125l0.234375 1.453125q-0.6875 0.140625 -1.234375 0.140625q-0.890625 0 -1.390625 -0.28125q-0.484375 -0.28125 -0.6875 -0.734375q-0.203125 -0.46875 -0.203125 -1.9375l0 -5.578125l-1.203125 0l0 -1.265625l1.203125 0l0 -2.390625l1.625 -0.984375l0 3.375l1.65625 0l0 1.265625l-1.65625 0l0 5.671875q0 0.6875 0.078125 0.890625q0.09375 0.203125 0.28125 0.328125q0.203125 0.109375 0.578125 0.109375q0.265625 0 0.71875 -0.0625z" fill-rule="nonzero"/><path fill="#000000" fill-opacity="0.0" d="m534.3989 3.5905511l236.37799 0l0 42.01575l-236.37799 0z" fill-rule="evenodd"/><path fill="#000000" d="m544.2427 26.213675l1.65625 -0.140625q0.125 1.0 0.546875 1.640625q0.4375 0.640625 1.34375 1.046875q0.921875 0.390625 2.0625 0.390625q1.0 0 1.78125 -0.296875q0.78125 -0.296875 1.15625 -0.8125q0.375 -0.53125 0.375 -1.15625q0 -0.625 -0.375 -1.09375q-0.359375 -0.46875 -1.1875 -0.796875q-0.546875 -0.203125 -2.390625 -0.640625q-1.828125 -0.453125 -2.5625 -0.84375q-0.96875 -0.5 -1.4375 -1.234375q-0.46875 -0.75 -0.46875 -1.671875q0 -1.0 0.578125 -1.875q0.578125 -0.890625 1.671875 -1.34375q1.109375 -0.453125 2.453125 -0.453125q1.484375 0 2.609375 0.484375q1.140625 0.46875 1.75 1.40625q0.609375 0.921875 0.65625 2.09375l-1.6875 0.125q-0.140625 -1.265625 -0.9375 -1.90625q-0.78125 -0.65625 -2.3125 -0.65625q-1.609375 0 -2.34375 0.59375q-0.734375 0.59375 -0.734375 1.421875q0 0.71875 0.53125 1.171875q0.5 0.46875 2.65625 0.96875q2.15625 0.484375 2.953125 0.84375q1.171875 0.53125 1.71875 1.359375q0.5625 0.828125 0.5625 1.90625q0 1.0625 -0.609375 2.015625q-0.609375 0.9375 -1.75 1.46875q-1.140625 0.515625 -2.578125 0.515625q-1.8125 0 -3.046875 -0.53125q-1.21875 -0.53125 -1.921875 -1.59375q-0.6875 -1.0625 -0.71875 -2.40625zm19.459229 1.1875l1.6875 0.203125q-0.40625 1.484375 -1.484375 2.3125q-1.078125 0.8125 -2.765625 0.8125q-2.125 0 -3.375 -1.296875q-1.234375 -1.3125 -1.234375 -3.671875q0 -2.453125 1.25 -3.796875q1.265625 -1.34375 3.265625 -1.34375q1.9375 0 3.15625 1.328125q1.234375 1.3125 1.234375 3.703125q0 0.15625 0 0.4375l-7.21875 0q0.09375 1.59375 0.90625 2.453125q0.8125 0.84375 2.015625 0.84375q0.90625 0 1.546875 -0.46875q0.640625 -0.484375 1.015625 -1.515625zm-5.390625 -2.65625l5.40625 0q-0.109375 -1.21875 -0.625 -1.828125q-0.78125 -0.953125 -2.03125 -0.953125q-1.125 0 -1.90625 0.765625q-0.765625 0.75 -0.84375 2.015625zm15.453857 4.578125q-0.921875 0.765625 -1.765625 1.09375q-0.828125 0.3125 -1.796875 0.3125q-1.59375 0 -2.453125 -0.78125q-0.859375 -0.78125 -0.859375 -1.984375q0 -0.71875 0.328125 -1.296875q0.328125 -0.59375 0.84375 -0.9375q0.53125 -0.359375 1.1875 -0.546875q0.46875 -0.125 1.453125 -0.25q1.984375 -0.234375 2.921875 -0.5625q0.015625 -0.34375 0.015625 -0.421875q0 -1.0 -0.46875 -1.421875q-0.625 -0.546875 -1.875 -0.546875q-1.15625 0 -1.703125 0.40625q-0.546875 0.40625 -0.8125 1.421875l-1.609375 -0.21875q0.21875 -1.015625 0.71875 -1.640625q0.5 -0.640625 1.453125 -0.984375q0.953125 -0.34375 2.1875 -0.34375q1.25 0 2.015625 0.296875q0.78125 0.28125 1.140625 0.734375q0.375 0.4375 0.515625 1.109375q0.078125 0.421875 0.078125 1.515625l0 2.1875q0 2.28125 0.109375 2.890625q0.109375 0.59375 0.40625 1.15625l-1.703125 0q-0.265625 -0.515625 -0.328125 -1.1875zm-0.140625 -3.671875q-0.890625 0.375 -2.671875 0.625q-1.015625 0.140625 -1.4375 0.328125q-0.421875 0.1875 -0.65625 0.53125q-0.21875 0.34375 -0.21875 0.78125q0 0.65625 0.5 1.09375q0.5 0.4375 1.453125 0.4375q0.9375 0 1.671875 -0.40625q0.75 -0.421875 1.09375 -1.140625q0.265625 -0.5625 0.265625 -1.640625l0 -0.609375zm8.777771 0.015625q0 -2.6875 1.484375 -3.96875q1.25 -1.078125 3.046875 -1.078125q2.0 0 3.265625 1.3125q1.265625 1.296875 1.265625 3.609375q0 1.859375 -0.5625 2.9375q-0.5625 1.0625 -1.640625 1.65625q-1.0625 0.59375 -2.328125 0.59375q-2.03125 0 -3.28125 -1.296875q-1.25 -1.3125 -1.25 -3.765625zm1.6875 0q0 1.859375 0.796875 2.796875q0.8125 0.921875 2.046875 0.921875q1.21875 0 2.03125 -0.921875q0.8125 -0.9375 0.8125 -2.84375q0 -1.796875 -0.8125 -2.71875q-0.8125 -0.921875 -2.03125 -0.921875q-1.234375 0 -2.046875 0.921875q-0.796875 0.90625 -0.796875 2.765625zm9.688171 4.84375l0 -8.40625l-1.453125 0l0 -1.265625l1.453125 0l0 -1.03125q0 -0.96875 0.171875 -1.453125q0.234375 -0.640625 0.828125 -1.03125q0.59375 -0.390625 1.671875 -0.390625q0.6875 0 1.53125 0.15625l-0.25 1.4375q-0.5 -0.09375 -0.953125 -0.09375q-0.75 0 -1.0625 0.328125q-0.3125 0.3125 -0.3125 1.1875l0 0.890625l1.890625 0l0 1.265625l-1.890625 0l0 8.40625l-1.625 0zm10.163513 0l0 -13.359375l1.8125 0l7.015625 10.484375l0 -10.484375l1.6875 0l0 13.359375l-1.8125 0l-7.015625 -10.5l0 10.5l-1.6875 0zm12.676086 -4.84375q0 -2.6875 1.484375 -3.96875q1.25 -1.078125 3.046875 -1.078125q2.0 0 3.265625 1.3125q1.265625 1.296875 1.265625 3.609375q0 1.859375 -0.5625 2.9375q-0.5625 1.0625 -1.640625 1.65625q-1.0625 0.59375 -2.328125 0.59375q-2.03125 0 -3.28125 -1.296875q-1.25 -1.3125 -1.25 -3.765625zm1.6875 0q0 1.859375 0.796875 2.796875q0.8125 0.921875 2.046875 0.921875q1.21875 0 2.03125 -0.921875q0.8125 -0.9375 0.8125 -2.84375q0 -1.796875 -0.8125 -2.71875q-0.8125 -0.921875 -2.03125 -0.921875q-1.234375 0 -2.046875 0.921875q-0.796875 0.90625 -0.796875 2.765625zm15.563171 4.84375l0 -1.21875q-0.90625 1.4375 -2.703125 1.4375q-1.15625 0 -2.125 -0.640625q-0.96875 -0.640625 -1.5 -1.78125q-0.53125 -1.140625 -0.53125 -2.625q0 -1.453125 0.484375 -2.625q0.484375 -1.1875 1.4375 -1.8125q0.96875 -0.625 2.171875 -0.625q0.875 0 1.546875 0.375q0.6875 0.359375 1.109375 0.953125l0 -4.796875l1.640625 0l0 13.359375l-1.53125 0zm-5.171875 -4.828125q0 1.859375 0.78125 2.78125q0.78125 0.921875 1.84375 0.921875q1.078125 0 1.828125 -0.875q0.75 -0.890625 0.75 -2.6875q0 -1.984375 -0.765625 -2.90625q-0.765625 -0.9375 -1.890625 -0.9375q-1.078125 0 -1.8125 0.890625q-0.734375 0.890625 -0.734375 2.8125zm15.906982 1.71875l1.6875 0.203125q-0.40625 1.484375 -1.484375 2.3125q-1.078125 0.8125 -2.765625 0.8125q-2.125 0 -3.375 -1.296875q-1.234375 -1.3125 -1.234375 -3.671875q0 -2.453125 1.25 -3.796875q1.265625 -1.34375 3.265625 -1.34375q1.9375 0 3.15625 1.328125q1.234375 1.3125 1.234375 3.703125q0 0.15625 0 0.4375l-7.21875 0q0.09375 1.59375 0.90625 2.453125q0.8125 0.84375 2.015625 0.84375q0.90625 0 1.546875 -0.46875q0.640625 -0.484375 1.015625 -1.515625zm-5.390625 -2.65625l5.40625 0q-0.109375 -1.21875 -0.625 -1.828125q-0.78125 -0.953125 -2.03125 -0.953125q-1.125 0 -1.90625 0.765625q-0.765625 0.75 -0.84375 2.015625zm8.485107 2.875l1.625 -0.25q0.125 0.96875 0.75 1.5q0.625 0.515625 1.75 0.515625q1.125 0 1.671875 -0.453125q0.546875 -0.46875 0.546875 -1.09375q0 -0.546875 -0.484375 -0.875q-0.328125 -0.21875 -1.671875 -0.546875q-1.8125 -0.46875 -2.515625 -0.796875q-0.6875 -0.328125 -1.046875 -0.90625q-0.359375 -0.59375 -0.359375 -1.3125q0 -0.640625 0.296875 -1.1875q0.296875 -0.5625 0.8125 -0.921875q0.375 -0.28125 1.03125 -0.46875q0.671875 -0.203125 1.421875 -0.203125q1.140625 0 2.0 0.328125q0.859375 0.328125 1.265625 0.890625q0.421875 0.5625 0.578125 1.5l-1.609375 0.21875q-0.109375 -0.75 -0.640625 -1.171875q-0.515625 -0.421875 -1.46875 -0.421875q-1.140625 0 -1.625 0.375q-0.46875 0.375 -0.46875 0.875q0 0.3125 0.1875 0.578125q0.203125 0.265625 0.640625 0.4375q0.234375 0.09375 1.4375 0.421875q1.75 0.453125 2.4375 0.75q0.6875 0.296875 1.078125 0.859375q0.390625 0.5625 0.390625 1.40625q0 0.828125 -0.484375 1.546875q-0.46875 0.71875 -1.375 1.125q-0.90625 0.390625 -2.046875 0.390625q-1.875 0 -2.875 -0.78125q-0.984375 -0.78125 -1.25 -2.328125z" fill-rule="nonzero"/><path fill="#efefef" d="m334.27298 202.9685l150.2362 0l0 -10.503937l21.007874 21.007874l-21.007874 21.007874l0 -10.503937l-150.2362 0z" fill-rule="evenodd"/><path stroke="#000000" stroke-width="1.0" stroke-linejoin="round" stroke-linecap="butt" d="m334.27298 202.9685l150.2362 0l0 -10.503937l21.007874 21.007874l-21.007874 21.007874l0 -10.503937l-150.2362 0z" fill-rule="evenodd"/><path fill="#cfe2f3" d="m590.5932 93.41732l0 0c0 -11.602325 10.815674 -21.007874 24.15747 -21.007874l0 0c13.341797 0 24.15747 9.405548 24.15747 21.007874l0 0c0 11.602333 -10.815674 21.007874 -24.15747 21.007874l0 0c-13.341797 0 -24.15747 -9.40554 -24.15747 -21.007874z" fill-rule="evenodd"/><path stroke="#000000" stroke-width="1.0" stroke-linejoin="round" stroke-linecap="butt" d="m590.5932 93.41732l0 0c0 -11.602325 10.815674 -21.007874 24.15747 -21.007874l0 0c13.341797 0 24.15747 9.405548 24.15747 21.007874l0 0c0 11.602333 -10.815674 21.007874 -24.15747 21.007874l0 0c-13.341797 0 -24.15747 -9.40554 -24.15747 -21.007874z" fill-rule="evenodd"/><path fill="#000000" d="m617.1097 99.14982q-0.921875 0.765625 -1.765625 1.09375q-0.828125 0.3125 -1.796875 0.3125q-1.59375 0 -2.453125 -0.78125q-0.859375 -0.78125 -0.859375 -1.984375q0 -0.71875 0.328125 -1.296875q0.328125 -0.59375 0.84375 -0.9375q0.53125 -0.359375 1.1875 -0.546875q0.46875 -0.125 1.453125 -0.25q1.984375 -0.234375 2.921875 -0.5625q0.015625 -0.34375 0.015625 -0.421875q0 -1.0 -0.46875 -1.421875q-0.625 -0.546875 -1.875 -0.546875q-1.15625 0 -1.703125 0.40625q-0.546875 0.40625 -0.8125 1.421875l-1.609375 -0.21875q0.21875 -1.015625 0.71875 -1.640625q0.5 -0.640625 1.453125 -0.984375q0.953125 -0.34375 2.1875 -0.34375q1.25 0 2.015625 0.296875q0.78125 0.28125 1.140625 0.734375q0.375 0.4375 0.515625 1.109375q0.078125 0.421875 0.078125 1.515625l0 2.1875q0 2.28125 0.109375 2.890625q0.109375 0.59375 0.40625 1.15625l-1.703125 0q-0.265625 -0.515625 -0.328125 -1.1875zm-0.140625 -3.671875q-0.890625 0.375 -2.671875 0.625q-1.015625 0.140625 -1.4375 0.328125q-0.421875 0.1875 -0.65625 0.53125q-0.21875 0.34375 -0.21875 0.78125q0 0.65625 0.5 1.09375q0.5 0.4375 1.453125 0.4375q0.9375 0 1.671875 -0.40625q0.75 -0.421875 1.09375 -1.140625q0.265625 -0.5625 0.265625 -1.640625l0 -0.609375z" fill-rule="nonzero"/><path fill="#cfe2f3" d="m710.09186 93.41732l0 0c0 -11.602325 10.815674 -21.007874 24.15747 -21.007874l0 0c13.341797 0 24.15747 9.405548 24.15747 21.007874l0 0c0 11.602333 -10.815674 21.007874 -24.15747 21.007874l0 0c-13.341797 0 -24.15747 -9.40554 -24.15747 -21.007874z" fill-rule="evenodd"/><path stroke="#000000" stroke-width="1.0" stroke-linejoin="round" stroke-linecap="butt" d="m710.09186 93.41732l0 0c0 -11.602325 10.815674 -21.007874 24.15747 -21.007874l0 0c13.341797 0 24.15747 9.405548 24.15747 21.007874l0 0c0 11.602333 -10.815674 21.007874 -24.15747 21.007874l0 0c-13.341797 0 -24.15747 -9.40554 -24.15747 -21.007874z" fill-rule="evenodd"/><path fill="#000000" d="m738.4521 98.75919l0 1.578125l-8.828125 0q-0.015625 -0.59375 0.1875 -1.140625q0.34375 -0.90625 1.078125 -1.78125q0.75 -0.875 2.15625 -2.015625q2.171875 -1.78125 2.9375 -2.828125q0.765625 -1.046875 0.765625 -1.96875q0 -0.984375 -0.703125 -1.640625q-0.6875 -0.671875 -1.8125 -0.671875q-1.1875 0 -1.90625 0.71875q-0.703125 0.703125 -0.703125 1.953125l-1.6875 -0.171875q0.171875 -1.890625 1.296875 -2.875q1.140625 -0.984375 3.03125 -0.984375q1.921875 0 3.046875 1.0625q1.125 1.0625 1.125 2.640625q0 0.796875 -0.328125 1.578125q-0.328125 0.78125 -1.09375 1.640625q-0.75 0.84375 -2.53125 2.34375q-1.46875 1.234375 -1.890625 1.6875q-0.421875 0.4375 -0.6875 0.875l6.546875 0z" fill-rule="nonzero"/><path fill="#cfe2f3" d="m829.5906 93.41732l0 0c0 -11.602325 10.815674 -21.007874 24.15747 -21.007874l0 0c13.341797 0 24.15747 9.405548 24.15747 21.007874l0 0c0 11.602333 -10.815674 21.007874 -24.15747 21.007874l0 0c-13.341797 0 -24.15747 -9.40554 -24.15747 -21.007874z" fill-rule="evenodd"/><path stroke="#000000" stroke-width="1.0" stroke-linejoin="round" stroke-linecap="butt" d="m829.5906 93.41732l0 0c0 -11.602325 10.815674 -21.007874 24.15747 -21.007874l0 0c13.341797 0 24.15747 9.405548 24.15747 21.007874l0 0c0 11.602333 -10.815674 21.007874 -24.15747 21.007874l0 0c-13.341797 0 -24.15747 -9.40554 -24.15747 -21.007874z" fill-rule="evenodd"/><path fill="#000000" d="m851.29456 100.33732l-1.515625 0l0 -13.359375l1.640625 0l0 4.765625q1.046875 -1.296875 2.65625 -1.296875q0.890625 0 1.6875 0.359375q0.796875 0.359375 1.3125 1.015625q0.515625 0.640625 0.796875 1.5625q0.296875 0.921875 0.296875 1.96875q0 2.484375 -1.234375 3.84375q-1.21875 1.359375 -2.953125 1.359375q-1.703125 0 -2.6875 -1.4375l0 1.21875zm-0.015625 -4.90625q0 1.734375 0.484375 2.515625q0.765625 1.265625 2.09375 1.265625q1.078125 0 1.859375 -0.9375q0.78125 -0.9375 0.78125 -2.78125q0 -1.890625 -0.75 -2.796875q-0.75 -0.90625 -1.828125 -0.90625q-1.0625 0 -1.859375 0.9375q-0.78125 0.9375 -0.78125 2.703125z" fill-rule="nonzero"/><path fill="#cfe2f3" d="m644.72705 183.47507l0 0c0 -11.602325 10.815674 -21.007874 24.15747 -21.007874l0 0c13.341797 0 24.15747 9.405548 24.15747 21.007874l0 0c0 11.602325 -10.815674 21.007874 -24.15747 21.007874l0 0c-13.341797 0 -24.15747 -9.405548 -24.15747 -21.007874z" fill-rule="evenodd"/><path stroke="#000000" stroke-width="1.0" stroke-linejoin="round" stroke-linecap="butt" d="m644.72705 183.47507l0 0c0 -11.602325 10.815674 -21.007874 24.15747 -21.007874l0 0c13.341797 0 24.15747 9.405548 24.15747 21.007874l0 0c0 11.602325 -10.815674 21.007874 -24.15747 21.007874l0 0c-13.341797 0 -24.15747 -9.405548 -24.15747 -21.007874z" fill-rule="evenodd"/><path fill="#000000" d="m665.8325 179.48882l0.421875 -1.296875q1.453125 0.515625 2.109375 0.890625q-0.171875 -1.65625 -0.1875 -2.265625l1.328125 0q-0.03125 0.890625 -0.21875 2.25q0.9375 -0.46875 2.15625 -0.875l0.421875 1.296875q-1.15625 0.390625 -2.265625 0.515625q0.546875 0.484375 1.5625 1.71875l-1.09375 0.78125q-0.53125 -0.734375 -1.25 -1.96875q-0.671875 1.28125 -1.1875 1.96875l-1.078125 -0.78125q1.0625 -1.296875 1.515625 -1.71875q-1.171875 -0.234375 -2.234375 -0.515625z" fill-rule="nonzero"/><path fill="#cfe2f3" d="m770.7769 183.47507l0 0c0 -11.602325 10.815674 -21.007874 24.15747 -21.007874l0 0c13.341797 0 24.15747 9.405548 24.15747 21.007874l0 0c0 11.602325 -10.815674 21.007874 -24.15747 21.007874l0 0c-13.341797 0 -24.15747 -9.405548 -24.15747 -21.007874z" fill-rule="evenodd"/><path stroke="#000000" stroke-width="1.0" stroke-linejoin="round" stroke-linecap="butt" d="m770.7769 183.47507l0 0c0 -11.602325 10.815674 -21.007874 24.15747 -21.007874l0 0c13.341797 0 24.15747 9.405548 24.15747 21.007874l0 0c0 11.602325 -10.815674 21.007874 -24.15747 21.007874l0 0c-13.341797 0 -24.15747 -9.405548 -24.15747 -21.007874z" fill-rule="evenodd"/><path fill="#000000" d="m791.8824 179.48882l0.421875 -1.296875q1.453125 0.515625 2.109375 0.890625q-0.171875 -1.65625 -0.1875 -2.265625l1.328125 0q-0.03125 0.890625 -0.21875 2.25q0.9375 -0.46875 2.15625 -0.875l0.421875 1.296875q-1.15625 0.390625 -2.265625 0.515625q0.546875 0.484375 1.5625 1.71875l-1.09375 0.78125q-0.53125 -0.734375 -1.25 -1.96875q-0.671875 1.28125 -1.1875 1.96875l-1.078125 -0.78125q1.0625 -1.296875 1.515625 -1.71875q-1.171875 -0.234375 -2.234375 -0.515625z" fill-rule="nonzero"/><path fill="#cfe2f3" d="m710.09186 270.15747l0 0c0 -11.602325 10.815674 -21.007858 24.15747 -21.007858l0 0c13.341797 0 24.15747 9.405533 24.15747 21.007858l0 0c0 11.602325 -10.815674 21.007874 -24.15747 21.007874l0 0c-13.341797 0 -24.15747 -9.405548 -24.15747 -21.007874z" fill-rule="evenodd"/><path stroke="#000000" stroke-width="1.0" stroke-linejoin="round" stroke-linecap="butt" d="m710.09186 270.15747l0 0c0 -11.602325 10.815674 -21.007858 24.15747 -21.007858l0 0c13.341797 0 24.15747 9.405533 24.15747 21.007858l0 0c0 11.602325 -10.815674 21.007874 -24.15747 21.007874l0 0c-13.341797 0 -24.15747 -9.405548 -24.15747 -21.007874z" fill-rule="evenodd"/><path fill="#000000" d="m733.47375 274.92123l0 -3.671875l-3.640625 0l0 -1.515625l3.640625 0l0 -3.640625l1.546875 0l0 3.640625l3.640625 0l0 1.515625l-3.640625 0l0 3.671875l-1.546875 0z" fill-rule="nonzero"/><path fill="#cfe2f3" d="m675.52496 355.00787l0 0c0 -11.602325 26.29181 -21.007874 58.724365 -21.007874l0 0c32.432617 0 58.724426 9.405548 58.724426 21.007874l0 0c0 11.602325 -26.29181 21.007874 -58.724426 21.007874l0 0c-32.432556 0 -58.724365 -9.405548 -58.724365 -21.007874z" fill-rule="evenodd"/><path stroke="#000000" stroke-width="1.0" stroke-linejoin="round" stroke-linecap="butt" d="m675.52496 355.00787l0 0c0 -11.602325 26.29181 -21.007874 58.724365 -21.007874l0 0c32.432617 0 58.724426 9.405548 58.724426 21.007874l0 0c0 11.602325 -26.29181 21.007874 -58.724426 21.007874l0 0c-32.432556 0 -58.724365 -9.405548 -58.724365 -21.007874z" fill-rule="evenodd"/><path fill="#000000" d="m707.72003 361.9279l0 -13.359375l5.921875 0q1.78125 0 2.703125 0.359375q0.9375 0.359375 1.484375 1.28125q0.5625 0.90625 0.5625 2.015625q0 1.40625 -0.921875 2.390625q-0.921875 0.96875 -2.84375 1.234375q0.703125 0.34375 1.078125 0.671875q0.765625 0.703125 1.453125 1.765625l2.328125 3.640625l-2.21875 0l-1.765625 -2.78125q-0.78125 -1.203125 -1.28125 -1.828125q-0.5 -0.640625 -0.90625 -0.890625q-0.390625 -0.265625 -0.796875 -0.359375q-0.296875 -0.078125 -0.984375 -0.078125l-2.046875 0l0 5.9375l-1.765625 0zm1.765625 -7.453125l3.796875 0q1.21875 0 1.890625 -0.25q0.6875 -0.265625 1.046875 -0.8125q0.359375 -0.546875 0.359375 -1.1875q0 -0.953125 -0.6875 -1.5625q-0.6875 -0.609375 -2.1875 -0.609375l-4.21875 0l0 4.421875zm18.097961 4.34375l1.6875 0.203125q-0.40625 1.484375 -1.484375 2.3125q-1.078125 0.8125 -2.765625 0.8125q-2.125 0 -3.375 -1.296875q-1.234375 -1.3125 -1.234375 -3.671875q0 -2.453125 1.25 -3.796875q1.265625 -1.34375 3.265625 -1.34375q1.9375 0 3.15625 1.328125q1.234375 1.3125 1.234375 3.703125q0 0.15625 0 0.4375l-7.21875 0q0.09375 1.59375 0.90625 2.453125q0.8125 0.84375 2.015625 0.84375q0.90625 0 1.546875 -0.46875q0.640625 -0.484375 1.015625 -1.515625zm-5.390625 -2.65625l5.40625 0q-0.109375 -1.21875 -0.625 -1.828125q-0.78125 -0.953125 -2.03125 -0.953125q-1.125 0 -1.90625 0.765625q-0.765625 0.75 -0.84375 2.015625zm12.719482 4.296875l0.234375 1.453125q-0.6875 0.140625 -1.234375 0.140625q-0.890625 0 -1.390625 -0.28125q-0.484375 -0.28125 -0.6875 -0.734375q-0.203125 -0.46875 -0.203125 -1.9375l0 -5.578125l-1.203125 0l0 -1.265625l1.203125 0l0 -2.390625l1.625 -0.984375l0 3.375l1.65625 0l0 1.265625l-1.65625 0l0 5.671875q0 0.6875 0.078125 0.890625q0.09375 0.203125 0.28125 0.328125q0.203125 0.109375 0.578125 0.109375q0.265625 0 0.71875 -0.0625zm7.9332886 1.46875l0 -1.421875q-1.125 1.640625 -3.0625 1.640625q-0.859375 0 -1.609375 -0.328125q-0.734375 -0.328125 -1.09375 -0.828125q-0.359375 -0.5 -0.5 -1.21875q-0.109375 -0.46875 -0.109375 -1.53125l0 -5.984375l1.640625 0l0 5.359375q0 1.28125 0.109375 1.734375q0.15625 0.640625 0.65625 1.015625q0.5 0.375 1.234375 0.375q0.734375 0 1.375 -0.375q0.65625 -0.390625 0.921875 -1.03125q0.265625 -0.65625 0.265625 -1.890625l0 -5.1875l1.640625 0l0 9.671875l-1.46875 0zm4.0319824 0l0 -9.671875l1.46875 0l0 1.46875q0.5625 -1.03125 1.03125 -1.359375q0.484375 -0.328125 1.0625 -0.328125q0.828125 0 1.6875 0.53125l-0.5625 1.515625q-0.609375 -0.359375 -1.203125 -0.359375q-0.546875 0 -0.96875 0.328125q-0.421875 0.328125 -0.609375 0.890625q-0.28125 0.875 -0.28125 1.921875l0 5.0625l-1.625 0zm6.2282715 0l0 -9.671875l1.46875 0l0 1.375q1.0625 -1.59375 3.078125 -1.59375q0.875 0 1.609375 0.3125q0.734375 0.3125 1.09375 0.828125q0.375 0.5 0.515625 1.203125q0.09375 0.453125 0.09375 1.59375l0 5.953125l-1.640625 0l0 -5.890625q0 -1.0 -0.203125 -1.484375q-0.1875 -0.5 -0.671875 -0.796875q-0.484375 -0.296875 -1.140625 -0.296875q-1.046875 0 -1.8125 0.671875q-0.75 0.65625 -0.75 2.515625l0 5.28125l-1.640625 0z" fill-rule="nonzero"/><path fill="#000000" fill-opacity="0.0" d="m614.7507 114.42519c0 12.010414 9.259827 17.245232 18.519653 24.02082c9.259888 6.7756042 18.519714 15.091949 18.519714 30.183914" fill-rule="evenodd"/><path stroke="#000000" stroke-width="1.0" stroke-linejoin="round" stroke-linecap="butt" d="m614.7507 114.42519c0 12.010422 9.259827 17.245232 18.519653 24.02082c4.629944 3.3878021 9.259888 7.160782 12.7323 11.973312c1.736206 2.4062805 3.1830444 5.0724335 4.195862 8.080261c0.25317383 0.7519531 0.47924805 1.5252686 0.67596436 2.3212128c0.09832764 0.39797974 0.18933105 0.8016205 0.27270508 1.2110596c0.04168701 0.20472717 0.0814209 0.41090393 0.119262695 0.6185608l3.6621094E-4 0.0023498535" fill-rule="evenodd"/><path fill="#000000" stroke="#000000" stroke-width="1.0" stroke-linecap="butt" d="m649.6214 162.7968l2.0411377 4.3767853l1.2497559 -4.6648407z" fill-rule="evenodd"/><path fill="#000000" fill-opacity="0.0" d="m717.1674 108.27213c0 15.086914 -7.8031616 22.630531 -15.606323 30.173836c-7.8031006 7.5433044 -15.606262 15.086304 -15.606262 30.172623" fill-rule="evenodd"/><path stroke="#000000" stroke-width="1.0" stroke-linejoin="round" stroke-linecap="butt" d="m717.1674 108.27213c0 15.086914 -7.8031616 22.630531 -15.606323 30.173836c-3.9015503 3.7716522 -7.8031616 7.543228 -10.729309 12.257675c-1.4630737 2.3572388 -2.682373 4.95018 -3.5357666 7.8967133c-0.2133789 0.7366333 -0.40386963 1.4953613 -0.5696411 2.2780304c-0.08282471 0.39134216 -0.1595459 0.7886658 -0.22979736 1.1921997l-0.09301758 0.5648041" fill-rule="evenodd"/><path fill="#000000" stroke="#000000" stroke-width="1.0" stroke-linecap="butt" d="m684.7564 162.51187l1.3077393 4.6489105l1.9865112 -4.4018707z" fill-rule="evenodd"/><path fill="#000000" fill-opacity="0.0" d="m751.33124 108.27213c0 15.086914 6.629944 22.630531 13.259888 30.173836c6.629883 7.5433044 13.259827 15.086304 13.259827 30.172623" fill-rule="evenodd"/><path stroke="#000000" stroke-width="1.0" stroke-linejoin="round" stroke-linecap="butt" d="m751.3313 108.27213c0 15.086914 6.629883 22.630531 13.259827 30.173836c3.3149414 3.7716522 6.629944 7.543228 9.11615 12.257675c1.243103 2.3572388 2.2790527 4.95018 3.0041504 7.8967133c0.18127441 0.7366333 0.34320068 1.4953613 0.4840088 2.2780304c0.070373535 0.39134216 0.13549805 0.7886658 0.19525146 1.1921997l0.07836914 0.5601654" fill-rule="evenodd"/><path fill="#000000" stroke="#000000" stroke-width="1.0" stroke-linecap="butt" d="m775.82074 162.73589l1.9371948 4.423767l1.3595581 -4.634018z" fill-rule="evenodd"/><path fill="#000000" fill-opacity="0.0" d="m853.74805 114.42519c0 12.010414 -10.433105 17.245232 -20.86615 24.02082c-10.433105 6.7756042 -20.86615 15.091949 -20.86615 30.183914" fill-rule="evenodd"/><path stroke="#000000" stroke-width="1.0" stroke-linejoin="round" stroke-linecap="butt" d="m853.74805 114.42519c0 12.010422 -10.433105 17.245232 -20.86615 24.02082c-5.2165527 3.3878021 -10.433105 7.160782 -14.345459 11.973312c-1.9562378 2.4062805 -3.5863647 5.0724335 -4.727539 8.080261c-0.28527832 0.7519531 -0.539978 1.5252686 -0.7615967 2.3212128c-0.11077881 0.39797974 -0.21331787 0.8016205 -0.30725098 1.2110596c-0.046875 0.20472717 -0.09173584 0.41090393 -0.13433838 0.6185608l-0.0016479492 0.008407593" fill-rule="evenodd"/><path fill="#000000" stroke="#000000" stroke-width="1.0" stroke-linecap="butt" d="m810.96027 162.49687l1.1988525 4.678192l2.088745 -4.3542786z" fill-rule="evenodd"/><path fill="#000000" fill-opacity="0.0" d="m794.9344 204.48294c0 11.166595 -10.897644 15.978851 -21.795288 22.33319c-10.897644 6.3543243 -21.795288 14.250717 -21.795288 28.50145" fill-rule="evenodd"/><path stroke="#000000" stroke-width="1.0" stroke-linejoin="round" stroke-linecap="butt" d="m794.9344 204.48294c0 11.16658 -10.897644 15.978851 -21.795288 22.33319c-5.4487915 3.1771698 -10.897644 6.739853 -14.984253 11.289566c-2.043274 2.274887 -3.7460327 4.7964935 -4.9379883 7.6400757c-0.29797363 0.7108917 -0.5640259 1.4419098 -0.7955322 2.1942291c-0.115722656 0.37617493 -0.22277832 0.75764465 -0.32092285 1.1446075l-0.06555176 0.27290344" fill-rule="evenodd"/><path fill="#000000" stroke="#000000" stroke-width="1.0" stroke-linecap="butt" d="m750.39417 249.16728l1.118042 4.6981354l2.163391 -4.3176575z" fill-rule="evenodd"/><path fill="#000000" fill-opacity="0.0" d="m668.8845 204.48294c0 11.166595 12.070862 15.978851 24.141724 22.33319c12.070862 6.3543243 24.141724 14.250717 24.141724 28.50145" fill-rule="evenodd"/><path stroke="#000000" stroke-width="1.0" stroke-linejoin="round" stroke-linecap="butt" d="m668.8845 204.48294c0 11.16658 12.070862 15.978851 24.141724 22.33319c6.0354614 3.1771698 12.070862 6.739853 16.597412 11.289566c2.2633057 2.274887 4.149414 4.7964935 5.4696655 7.6400757c0.33007812 0.7108917 0.62475586 1.4419098 0.8811035 2.1942291c0.12817383 0.37617493 0.2468872 0.75764465 0.35546875 1.1446075l0.07702637 0.28144836" fill-rule="evenodd"/><path fill="#000000" stroke="#000000" stroke-width="1.0" stroke-linecap="butt" d="m714.7685 249.57558l2.2140503 4.291916l1.0627441 -4.7109528z" fill-rule="evenodd"/><path fill="#000000" fill-opacity="0.0" d="m734.2493 291.16534c0 10.708679 0.01574707 16.062988 0.03149414 21.417328c0.01574707 5.3543396 0.03149414 10.708679 0.03149414 21.417328" fill-rule="evenodd"/><path stroke="#000000" stroke-width="1.0" stroke-linejoin="round" stroke-linecap="butt" d="m734.2493 291.16534c0 10.708679 0.01574707 16.062988 0.03149414 21.417328c0.007873535 2.677185 0.01574707 5.3543396 0.02166748 8.700806c0.0029296875 1.6732178 0.005432129 3.5137634 0.0071411133 5.605316l4.272461E-4 1.111206" fill-rule="evenodd"/><path fill="#000000" stroke="#000000" stroke-width="1.0" stroke-linecap="butt" d="m732.6583 328.00064l1.6534424 4.537445l1.6500244 -4.538727z" fill-rule="evenodd"/></g></svg>