<svg fill="none" height="290" stroke-linecap="square" stroke-miterlimit="10" width="380" xmlns="http://www.w3.org/2000/svg" xmlns:xlink="http://www.w3.org/1999/xlink"><clipPath id="a"><path d="m0 0h1024v768h-1024z"/></clipPath><g clip-path="url(#a)" transform="translate(-240 -183)"><path d="m0 0h1024v768h-1024z"/><path d="m284.969 318.307c0-69.3 16.942-125.48 37.842-125.48 10.036 0 19.662 13.22 26.759 36.752s11.084 55.449 11.084 88.728c0 69.301-16.943 125.48-37.843 125.48-10.036 0-19.662-13.22-26.759-36.752s-11.084-55.448-11.084-88.728z"/><g fill-rule="evenodd"><path d="m284.969 318.307c0-69.3 16.942-125.48 37.842-125.48 10.036 0 19.662 13.22 26.759 36.752s11.084 55.449 11.084 88.728c0 69.301-16.943 125.48-37.843 125.48-10.036 0-19.662-13.22-26.759-36.752s-11.084-55.448-11.084-88.728z" stroke="#434343" stroke-dasharray="2 6" stroke-linecap="butt" stroke-linejoin="round" stroke-width="2"/><path d="m397.122 214.18c0-7.975 6.465-14.44 14.441-14.44a14.441 14.441 0 0 1 14.44 14.44c0 7.976-6.464 14.441-14.44 14.441s-14.441-6.465-14.441-14.441z" fill="#434343"/><path d="m397.122 214.18c0-7.975 6.465-14.44 14.441-14.44a14.441 14.441 0 0 1 14.44 14.44c0 7.976-6.464 14.441-14.44 14.441s-14.441-6.465-14.441-14.441z" stroke="#666" stroke-linecap="butt" stroke-linejoin="round" stroke-width="2"/><path d="m429.296 319.882c0-7.975 6.465-14.44 14.44-14.44a14.44 14.44 0 0 1 14.441 14.44c0 7.976-6.465 14.441-14.44 14.441-7.976 0-14.442-6.465-14.442-14.44z" fill="#434343"/><path d="m429.296 319.882c0-7.975 6.465-14.44 14.44-14.44a14.44 14.44 0 0 1 14.441 14.44c0 7.976-6.465 14.441-14.44 14.441-7.976 0-14.442-6.465-14.442-14.44z" stroke="#666" stroke-linecap="butt" stroke-linejoin="round" stroke-width="2"/><path d="m430.177 402.584c0-7.976 6.466-14.441 14.441-14.441a14.441 14.441 0 0 1 14.441 14.44c0 7.976-6.465 14.442-14.44 14.442-7.976 0-14.442-6.466-14.442-14.441z" fill="#fff"/><path d="m430.177 402.584c0-7.976 6.466-14.441 14.441-14.441a14.441 14.441 0 0 1 14.441 14.44c0 7.976-6.465 14.442-14.44 14.442-7.976 0-14.442-6.466-14.442-14.441z" stroke="#737373" stroke-linecap="butt" stroke-linejoin="round" stroke-width="2"/><path d="m508.594 402.584c0-7.976 6.465-14.441 14.44-14.441a14.441 14.441 0 0 1 14.442 14.44c0 7.976-6.466 14.442-14.441 14.442-7.976 0-14.441-6.466-14.441-14.441z" fill="#fff"/><path d="m508.594 402.584c0-7.976 6.465-14.441 14.44-14.441a14.441 14.441 0 0 1 14.442 14.44c0 7.976-6.466 14.442-14.441 14.442-7.976 0-14.441-6.466-14.441-14.441z" stroke="#737373" stroke-linecap="butt" stroke-linejoin="round" stroke-width="2"/><path d="m526.82 309.037c0-7.975 6.466-14.44 14.442-14.44a14.44 14.44 0 0 1 14.44 14.44c0 7.976-6.465 14.441-14.44 14.441-7.976 0-14.441-6.465-14.441-14.44z" fill="#434343"/><path d="m526.82 309.037c0-7.975 6.466-14.44 14.442-14.44a14.44 14.44 0 0 1 14.44 14.44c0 7.976-6.465 14.441-14.44 14.441-7.976 0-14.441-6.465-14.441-14.44z" stroke="#666" stroke-linecap="butt" stroke-linejoin="round" stroke-width="2"/><path d="m562.848 453.862c0-7.975 6.466-14.44 14.441-14.44a14.441 14.441 0 0 1 14.441 14.44c0 7.976-6.465 14.441-14.44 14.441-7.976 0-14.442-6.465-14.442-14.44z" fill="#fff"/><path d="m562.848 453.862c0-7.975 6.466-14.44 14.441-14.44a14.441 14.441 0 0 1 14.441 14.44c0 7.976-6.465 14.441-14.44 14.441-7.976 0-14.442-6.465-14.442-14.44z" stroke="#737373" stroke-linecap="butt" stroke-linejoin="round" stroke-width="2"/><path d="m304.016 243.055c0-7.975 6.465-14.44 14.44-14.44a14.44 14.44 0 0 1 14.442 14.44c0 7.976-6.466 14.441-14.441 14.441-7.976 0-14.441-6.465-14.441-14.44z" fill="#434343"/><path d="m304.016 243.055c0-7.975 6.465-14.44 14.44-14.44a14.44 14.44 0 0 1 14.442 14.44c0 7.976-6.466 14.441-14.441 14.441-7.976 0-14.441-6.465-14.441-14.44z" stroke="#666" stroke-linecap="butt" stroke-linejoin="round" stroke-width="2"/><path d="m304.016 318.307c0-7.975 6.465-14.44 14.44-14.44a14.44 14.44 0 0 1 14.442 14.44c0 7.976-6.466 14.441-14.441 14.441-7.976 0-14.441-6.465-14.441-14.44z" fill="#434343"/><path d="m304.016 318.307c0-7.975 6.465-14.44 14.44-14.44a14.44 14.44 0 0 1 14.442 14.44c0 7.976-6.466 14.441-14.441 14.441-7.976 0-14.441-6.465-14.441-14.44z" stroke="#666" stroke-linecap="butt" stroke-linejoin="round" stroke-width="2"/><path d="m308 393.56c0-7.976 6.465-14.442 14.441-14.442a14.44 14.44 0 0 1 14.44 14.441c0 7.976-6.465 14.441-14.44 14.441-7.976 0-14.441-6.465-14.441-14.44z" fill="#434343"/><path d="m308 393.56c0-7.976 6.465-14.442 14.441-14.442a14.44 14.44 0 0 1 14.44 14.441c0 7.976-6.465 14.441-14.44 14.441-7.976 0-14.441-6.465-14.441-14.44z" stroke="#666" stroke-linecap="butt" stroke-linejoin="round" stroke-width="2"/></g><path d="m318.457 228.614c0-18.807 20.724-34.531 41.449-37.614 20.724-3.083 41.448 6.477 41.448 12.953"/><path d="m318.457 228.614c0-18.807 20.724-34.531 41.449-37.614 10.362-1.541 20.724.078 28.496 2.892.971.352 1.902.722 2.787 1.107.443.193.875.39 1.294.589l.182.089" stroke="#737373" stroke-linecap="butt" stroke-linejoin="round" stroke-width="2"/><path d="m390.387 198.069 8.85 3.867-4.293-8.651z" fill="#737373" fill-rule="evenodd" stroke="#737373" stroke-linecap="butt" stroke-width="2"/><path d="m318.457 332.748c0 13.288 28.763 26.906 57.527 26.575 28.764-.33 57.528-14.61 57.528-29.22"/><path d="m318.457 332.748c0 13.288 28.763 26.906 57.527 26.575 14.382-.165 28.764-3.818 39.55-9.255 2.697-1.36 5.169-2.83 7.36-4.386a41.543 41.543 0 0 0 3.069-2.395 34.402 34.402 0 0 0 2-1.867c.103-.105.205-.21.306-.316l.134-.143" stroke="#737373" stroke-linecap="butt" stroke-linejoin="round" stroke-width="2"/><path d="m431.392 342.367.875-9.619-6.853 6.807z" fill="#737373" fill-rule="evenodd" stroke="#737373" stroke-linecap="butt" stroke-width="2"/><path d="m443.736 305.442c0-17.923 24.378-34.491 48.756-35.845 24.378-1.355 48.756 12.505 48.756 25.01"/><path d="m443.736 305.442c0-17.923 24.378-34.491 48.756-35.845 12.19-.678 24.378 2.449 33.52 7.307 2.285 1.215 4.38 2.538 6.237 3.937a35.92 35.92 0 0 1 2.601 2.151 31.194 31.194 0 0 1 .876.831l.086.086" stroke="#737373" stroke-linecap="butt" stroke-linejoin="round" stroke-width="2"/><path d="m532.867 285.406 7.057 6.594-1.167-9.588z" fill="#737373" fill-rule="evenodd" stroke="#737373" stroke-linecap="butt" stroke-width="2"/><path d="m444.618 388.143c0-12.5 19.607-25.008 39.213-25s39.212 12.531 39.212 25.063"/><path d="m444.618 388.143c0-12.5 19.607-25.008 39.213-25 9.803.004 19.606 3.136 26.958 7.835a38.322 38.322 0 0 1 5.017 3.793 30.519 30.519 0 0 1 2.332 2.336l.093.106" stroke="#737373" stroke-linecap="butt" stroke-linejoin="round" stroke-width="2"/><path d="m515.205 378.538 6.666 6.99-.614-9.64z" fill="#737373" fill-rule="evenodd" stroke="#737373" stroke-linecap="butt" stroke-width="2"/><path d="m523.035 417.025c0 12.5-19.607 24.992-39.213 25s-39.213-12.469-39.213-24.937"/><path d="m523.035 417.025c0 12.5-19.607 24.992-39.213 25-9.803.004-19.606-3.113-26.959-7.79a38.303 38.303 0 0 1 -5.016-3.776 30.464 30.464 0 0 1 -2.332-2.325l-.06-.068" stroke="#737373" stroke-linecap="butt" stroke-linejoin="round" stroke-width="2"/><path d="m452.477 426.732-6.687-6.97.643 9.638z" fill="#737373" fill-rule="evenodd" stroke="#737373" stroke-linecap="butt" stroke-width="2"/><path d="m537.476 402.584c19.905 0 39.81 18.425 39.81 36.85"/><path d="m537.476 402.584c9.952 0 19.905 4.606 27.37 11.515 3.732 3.455 6.842 7.486 9.02 11.804.271.54.529 1.084.771 1.632l.078.178" stroke="#737373" stroke-linecap="butt" stroke-linejoin="round" stroke-width="2"/><path d="m571.488 428.421 5.172 8.157 1.281-9.573z" fill="#737373" fill-rule="evenodd" stroke="#737373" stroke-linecap="butt" stroke-width="2"/><path d="m591.73 453.862c12.5 0 29.504-36.205 25-72.41-4.503-36.204-30.515-72.409-61.031-72.409"/><path d="m591.73 453.862c12.5 0 29.504-36.205 25-72.41-2.251-18.102-9.88-36.204-20.76-49.78-5.441-6.79-11.694-12.446-18.494-16.406a50.199 50.199 0 0 0 -5.2-2.643 46.073 46.073 0 0 0 -4.018-1.532 43.2 43.2 0 0 0 -.679-.217l-.02-.006" stroke="#737373" stroke-linecap="butt" stroke-linejoin="round" stroke-width="2"/><path d="m568.062 307.603-9.473 1.885 8.468 4.645z" fill="#737373" fill-rule="evenodd" stroke="#737373" stroke-linecap="butt" stroke-width="2"/><path d="m523.035 201.05c0-7.976 6.465-14.441 14.441-14.441a14.441 14.441 0 0 1 14.441 14.44c0 7.976-6.465 14.442-14.441 14.442s-14.44-6.466-14.44-14.441z" fill="#fff" fill-rule="evenodd"/><path d="m523.035 201.05c0-7.976 6.465-14.441 14.441-14.441a14.441 14.441 0 0 1 14.441 14.44c0 7.976-6.465 14.442-14.441 14.442s-14.44-6.466-14.44-14.441z" stroke="#737373" stroke-linecap="butt" stroke-linejoin="round" stroke-width="2"/><path d="m585.602 257.496c0-7.975 6.465-14.44 14.441-14.44a14.44 14.44 0 0 1 14.44 14.44c0 7.976-6.465 14.441-14.44 14.441-7.976 0-14.441-6.465-14.441-14.44z" fill="#fff" fill-rule="evenodd"/><path d="m585.602 257.496c0-7.975 6.465-14.44 14.441-14.44a14.44 14.44 0 0 1 14.44 14.44c0 7.976-6.465 14.441-14.44 14.441-7.976 0-14.441-6.465-14.441-14.44z" stroke="#737373" stroke-linecap="butt" stroke-linejoin="round" stroke-width="2"/><path d="m600.043 243.055c0-21.008-24.063-42.016-48.126-42.016"/><path d="m600.043 243.055c0-10.504-6.016-21.008-15.04-28.886a55.368 55.368 0 0 0 -15.415-9.519 51.526 51.526 0 0 0 -5.386-1.856l-.398-.11" stroke="#737373" stroke-linecap="butt" stroke-linejoin="round" stroke-width="2"/><path d="m564.257 199.412-9.444 2.028 8.538 4.517z" fill="#737373" fill-rule="evenodd" stroke="#737373" stroke-linecap="butt" stroke-width="2"/><path d="m227.084 419.856v-221.638h44.126v221.638z"/><path d="m252.218 331.986v4h6.906v2.266h-17.063v-5.657q0-2.875 1.313-4.421 1.312-1.563 3.812-1.563 1.594 0 2.782.86 1.187.859 1.765 2.406l7.25-4.016h.141v2.422zm-1.844 4v-3.453q0-1.672-.86-2.656-.874-1-2.328-1-1.578 0-2.421.953-.844.937-.86 2.719v3.437zm2.297-11.605q-1.875 0-3.36-.735-1.484-.734-2.296-2.031-.813-1.313-.813-3 0-2.578 1.797-4.172 1.797-1.61 4.766-1.61h.156q1.86 0 3.328.72 1.469.703 2.297 2.015.812 1.313.812 3.031 0 2.578-1.797 4.188-1.796 1.594-4.75 1.594zm.25-2.188q2.11 0 3.39-.969 1.282-.984 1.282-2.625 0-1.656-1.297-2.625-1.297-.968-3.625-.968-2.094 0-3.39.984-1.298.984-1.298 2.625 0 1.61 1.282 2.594 1.28.984 3.656.984zm-.25-11.5q-1.875 0-3.36-.734-1.484-.735-2.296-2.032-.813-1.312-.813-3 0-2.578 1.797-4.171 1.797-1.61 4.766-1.61h.156q1.86 0 3.328.719 1.469.703 2.297 2.016.812 1.312.812 3.03 0 2.579-1.797 4.188-1.796 1.594-4.75 1.594zm.25-2.187q2.11 0 3.39-.97 1.282-.984 1.282-2.624 0-1.656-1.297-2.625-1.297-.969-3.625-.969-2.094 0-3.39.984-1.298.985-1.298 2.625 0 1.61 1.282 2.594 1.28.985 3.656.985zm-9.547-15.016h3.062v-2.375h1.688v2.375h7.86q.765 0 1.14-.313.375-.328.375-1.093 0-.375-.14-1.032h1.765q.234.86.234 1.672 0 1.453-.875 2.188-.89.734-2.5.734h-7.859v2.313h-1.688v-2.313h-3.062zm12.39-12.293q-.89 0-1.374.672-.485.656-.829 2.312-.359 1.64-.843 2.61-.5.968-1.172 1.437-.688.453-1.625.453-1.563 0-2.64-1.312-1.079-1.328-1.079-3.375 0-2.156 1.125-3.5 1.11-1.344 2.844-1.344v2.188q-.89 0-1.531.75-.657.75-.657 1.906 0 1.187.516 1.86.516.655 1.36.655.78 0 1.187-.609.39-.625.75-2.25t.875-2.625q.5-1.016 1.219-1.5.703-.484 1.718-.484 1.703 0 2.735 1.359 1.015 1.36 1.015 3.516 0 1.53-.53 2.703-.548 1.172-1.517 1.844-.968.656-2.093.656v-2.172q1.093-.063 1.734-.875.64-.813.64-2.156 0-1.22-.5-1.97t-1.327-.75z" fill="#434343"/><path d="m387.755 271.936c0-7.976 6.465-14.441 14.44-14.441a14.441 14.441 0 0 1 14.441 14.44c0 7.976-6.465 14.442-14.44 14.442-7.976 0-14.441-6.466-14.441-14.441z" fill="#434343" fill-rule="evenodd"/><path d="m387.755 271.936c0-7.976 6.465-14.441 14.44-14.441a14.441 14.441 0 0 1 14.441 14.44c0 7.976-6.465 14.442-14.44 14.442-7.976 0-14.441-6.466-14.441-14.441z" stroke="#666" stroke-linecap="butt" stroke-linejoin="round" stroke-width="2"/><path d="m332.898 243.055c29.543 0 59.086 9.339 59.086 18.678"/><path d="m332.898 243.055c14.771 0 29.543 2.335 40.622 5.837 2.77.875 5.308 1.824 7.559 2.827a50.143 50.143 0 0 1 2.407 1.15l.261.137" stroke="#737373" stroke-linecap="butt" stroke-linejoin="round" stroke-width="2"/><path d="m381.345 255.274 8.632 4.332-3.827-8.868z" fill="#737373" fill-rule="evenodd" stroke="#737373" stroke-linecap="butt" stroke-width="2"/><path d="m332.898 318.307c29.543 0 59.086-18.078 59.086-36.157"/><path d="m332.898 318.307c14.771 0 29.543-4.52 40.622-11.299 5.54-3.39 10.155-7.344 13.386-11.582.404-.53.787-1.063 1.146-1.601l.182-.276" stroke="#737373" stroke-linecap="butt" stroke-linejoin="round" stroke-width="2"/><path d="m391.372 294.581-.302-9.654-5.974 7.59z" fill="#737373" fill-rule="evenodd" stroke="#737373" stroke-linecap="butt" stroke-width="2"/><path d="m474.518 234.93c0-7.975 6.466-14.44 14.441-14.44a14.44 14.44 0 0 1 14.441 14.44c0 7.976-6.465 14.442-14.44 14.442-7.976 0-14.442-6.466-14.442-14.441z" fill="#434343" fill-rule="evenodd"/><path d="m474.518 234.93c0-7.975 6.466-14.44 14.441-14.44a14.44 14.44 0 0 1 14.441 14.44c0 7.976-6.465 14.442-14.44 14.442-7.976 0-14.442-6.466-14.442-14.441z" stroke="#666" stroke-linecap="butt" stroke-linejoin="round" stroke-width="2"/><path d="m421.774 203.969c0-5.985 16.796-14.036 33.59-11.969 16.796 2.067 33.591 14.252 33.591 28.504"/><g stroke="#737373" stroke-linecap="butt" stroke-width="2"><path d="m421.774 203.969c0-5.985 16.796-14.036 33.59-11.969 8.398 1.034 16.796 4.597 23.094 9.683a35.563 35.563 0 0 1 4.298 4.084 30.03 30.03 0 0 1 2.395 3.09l.144.219" stroke-linejoin="round"/><path d="m482.15 210.083 5.914 7.637.377-9.652z" fill="#737373" fill-rule="evenodd"/></g></g><path d="m0 0h380v290h-380z"/></svg>