<svg fill="none" height="50" stroke-linecap="square" stroke-miterlimit="10" width="595" xmlns="http://www.w3.org/2000/svg"><clipPath id="a"><path d="M0 0h1280v960H0z"/></clipPath><g clip-path="url(#a)" transform="translate(-220 -275)"><path d="M0 0h1280v960H0zm350.667 303.213h460"/><path d="M350.667 303.213h454" stroke="#000" stroke-dasharray="1 3" stroke-linecap="butt" stroke-linejoin="round"/><path d="M804.667 304.864l4.538-1.651-4.538-1.652z" fill="#000" fill-rule="evenodd" stroke="#000" stroke-linecap="butt"/><path d="M402.808 273.48h62.804v29.733h-62.804z"/><path d="M433.113 293.532q-.672.953-1.875 1.438-1.203.484-2.813.484-1.625 0-2.89-.766-1.25-.765-1.938-2.156-.687-1.406-.703-3.266v-1.156q0-2.984 1.39-4.64 1.407-1.657 3.938-1.657 2.078 0 3.344 1.063 1.265 1.062 1.547 3.015h-1.75q-.485-2.625-3.125-2.625-1.766 0-2.672 1.235-.906 1.234-.906 3.562v1.094q0 2.234 1.015 3.547 1.016 1.312 2.766 1.312.984 0 1.719-.218.734-.22 1.218-.735v-2.984H428.3v-1.422h4.813zm12.676-2.469q-.25 2.094-1.562 3.25-1.297 1.14-3.469 1.14-2.344 0-3.766-1.687-1.422-1.687-1.422-4.515v-1.266q0-1.86.657-3.25.672-1.406 1.875-2.156 1.218-.766 2.812-.766 2.11 0 3.39 1.188 1.282 1.172 1.485 3.265h-1.765q-.22-1.578-.985-2.28-.765-.72-2.125-.72-1.672 0-2.625 1.235-.953 1.234-.953 3.531v1.281q0 2.157.89 3.438.907 1.265 2.532 1.265 1.453 0 2.234-.656.782-.656 1.032-2.297z" fill="#434343"/><path d="M549.265 273.48h62.803v29.733h-62.803z"/><path d="M579.57 293.532q-.672.953-1.876 1.438-1.203.484-2.812.484-1.625 0-2.89-.766-1.25-.765-1.938-2.156-.688-1.406-.703-3.266v-1.156q0-2.984 1.39-4.64 1.407-1.657 3.938-1.657 2.078 0 3.344 1.063 1.265 1.062 1.546 3.015h-1.75q-.484-2.625-3.125-2.625-1.765 0-2.671 1.235-.907 1.234-.907 3.562v1.094q0 2.234 1.016 3.547 1.016 1.312 2.766 1.312.984 0 1.718-.218.735-.22 1.22-.735v-2.984h-3.079v-1.422h4.812zm12.676-2.469q-.25 2.094-1.563 3.25-1.296 1.14-3.468 1.14-2.344 0-3.766-1.687-1.422-1.687-1.422-4.515v-1.266q0-1.86.656-3.25.672-1.406 1.875-2.156 1.22-.766 2.813-.766 2.11 0 3.39 1.188 1.282 1.172 1.485 3.265h-1.766q-.218-1.578-.984-2.28-.766-.72-2.125-.72-1.672 0-2.625 1.235-.953 1.234-.953 3.531v1.281q0 2.157.89 3.438.907 1.265 2.532 1.265 1.453 0 2.234-.656.781-.656 1.031-2.297z" fill="#434343"/><path d="M688.667 273.48h62.803v29.733h-62.803z"/><path d="M718.971 293.532q-.672.953-1.875 1.438-1.203.484-2.813.484-1.625 0-2.89-.766-1.25-.765-1.938-2.156-.687-1.406-.703-3.266v-1.156q0-2.984 1.39-4.64 1.407-1.657 3.938-1.657 2.078 0 3.344 1.063 1.266 1.062 1.547 3.015h-1.75q-.484-2.625-3.125-2.625-1.766 0-2.672 1.235-.906 1.234-.906 3.562v1.094q0 2.234 1.015 3.547 1.016 1.312 2.766 1.312.985 0 1.719-.218.734-.22 1.219-.735v-2.984h-3.078v-1.422h4.812zm12.677-2.469q-.25 2.094-1.563 3.25-1.297 1.14-3.469 1.14-2.343 0-3.765-1.687-1.422-1.687-1.422-4.515v-1.266q0-1.86.656-3.25.672-1.406 1.875-2.156 1.219-.766 2.813-.766 2.109 0 3.39 1.188 1.281 1.172 1.485 3.265h-1.766q-.219-1.578-.984-2.28-.766-.72-2.125-.72-1.672 0-2.625 1.235-.954 1.234-.954 3.531v1.281q0 2.157.891 3.438.906 1.265 2.531 1.265 1.453 0 2.235-.656.78-.656 1.03-2.297z" fill="#434343"/><path d="M472.667 273.48h62.803v29.733h-62.803z"/><path d="M500.481 282h1.766v9.391q0 1.907-1.157 2.985-1.14 1.078-3.03 1.078-1.985 0-3.095-1.016-1.093-1.015-1.093-2.828h1.75q0 1.14.625 1.781.625.625 1.812.625 1.078 0 1.75-.671.672-.688.672-1.922zm8.653 7.36q-2.25-.656-3.281-1.594-1.031-.937-1.031-2.328 0-1.562 1.25-2.593 1.265-1.032 3.265-1.032 1.36 0 2.438.532 1.078.53 1.656 1.468.594.922.594 2.032h-1.766q0-1.204-.765-1.891-.766-.688-2.157-.688-1.297 0-2.015.563-.719.562-.719 1.578 0 .813.687 1.375.688.563 2.329 1.031 1.656.453 2.593 1.016.938.562 1.375 1.312.453.75.453 1.75 0 1.61-1.25 2.594-1.25.969-3.359.969-1.375 0-2.562-.516-1.172-.53-1.813-1.437-.64-.922-.64-2.078h1.75q0 1.203.89 1.906.89.687 2.375.687 1.375 0 2.11-.562.75-.563.75-1.531 0-.985-.688-1.516t-2.469-1.047z" fill="#434343"/><path d="M618.966 273.48h62.803v29.733h-62.803z"/><path d="M646.78 282h1.766v9.391q0 1.907-1.156 2.985-1.14 1.078-3.032 1.078-1.984 0-3.093-1.016-1.094-1.015-1.094-2.828h1.75q0 1.14.625 1.781.625.625 1.812.625 1.079 0 1.75-.671.672-.688.672-1.922zm8.653 7.36q-2.25-.656-3.28-1.594-1.032-.937-1.032-2.328 0-1.562 1.25-2.593 1.266-1.032 3.266-1.032 1.359 0 2.437.532 1.078.53 1.656 1.468.594.922.594 2.032h-1.766q0-1.204-.765-1.891-.766-.688-2.156-.688-1.297 0-2.016.563-.719.562-.719 1.578 0 .813.688 1.375.687.563 2.328 1.031 1.656.453 2.594 1.016.937.562 1.375 1.312.453.75.453 1.75 0 1.61-1.25 2.594-1.25.969-3.36.969-1.375 0-2.562-.516-1.172-.53-1.813-1.437-.64-.922-.64-2.078h1.75q0 1.203.89 1.906.89.687 2.375.687 1.375 0 2.11-.562.75-.563.75-1.531 0-.985-.688-1.516-.687-.531-2.469-1.047z" fill="#434343"/><path d="M616.667 303.213h72"/><path d="M616.667 303.213h54" stroke="#93c47d" stroke-linecap="butt" stroke-linejoin="round" stroke-width="3"/><path d="M670.667 308.168l13.614-4.955-13.614-4.956z" fill="#93c47d" fill-rule="evenodd" stroke="#93c47d" stroke-linecap="butt" stroke-width="3"/><path d="M688.667 303.213h72"/><path d="M688.667 303.213h54" stroke="#e06666" stroke-linecap="butt" stroke-linejoin="round" stroke-width="3"/><path d="M742.667 308.168l13.614-4.955-13.614-4.956z" fill="#e06666" fill-rule="evenodd" stroke="#e06666" stroke-linecap="butt" stroke-width="3"/><path d="M544.667 303.213h72"/><path d="M544.667 303.213h54" stroke="#e06666" stroke-linecap="butt" stroke-linejoin="round" stroke-width="3"/><path d="M598.667 308.168l13.614-4.955-13.614-4.956z" fill="#e06666" fill-rule="evenodd" stroke="#e06666" stroke-linecap="butt" stroke-width="3"/><path d="M472.665 303.213h72"/><path d="M472.665 303.213h54" stroke="#93c47d" stroke-linecap="butt" stroke-linejoin="round" stroke-width="3"/><path d="M526.665 308.168l13.615-4.955-13.615-4.956z" fill="#93c47d" fill-rule="evenodd" stroke="#93c47d" stroke-linecap="butt" stroke-width="3"/><path d="M400.667 303.213h72"/><path d="M400.667 303.213h54" stroke="#e06666" stroke-linecap="butt" stroke-linejoin="round" stroke-width="3"/><path d="M454.667 308.168l13.614-4.955-13.614-4.956z" fill="#e06666" fill-rule="evenodd" stroke="#e06666" stroke-linecap="butt" stroke-width="3"/><path d="M216.667 282.22h129.008v41.985H216.667z"/><path d="M240.359 299.281l.047 1.094q1.078-1.266 2.922-1.266 2.062 0 2.812 1.578.5-.718 1.281-1.14.797-.438 1.86-.438 3.25 0 3.297 3.422v6.61h-1.672v-6.5q0-1.063-.485-1.579-.484-.53-1.625-.53-.937 0-1.562.562-.61.562-.719 1.5v6.546h-1.687v-6.453q0-2.156-2.11-2.156-1.656 0-2.265 1.406v7.203h-1.688v-9.859zm20.851 9.86q-.14-.297-.234-1.032-1.172 1.219-2.813 1.219-1.453 0-2.39-.828-.922-.828-.922-2.094 0-1.531 1.156-2.375 1.172-.86 3.297-.86h1.64v-.78q0-.891-.53-1.407-.516-.531-1.547-.531-.907 0-1.516.469-.61.453-.61 1.093h-1.702q0-.734.515-1.421.531-.688 1.422-1.079.906-.406 1.984-.406 1.703 0 2.672.86.969.843 1 2.328v4.531q0 1.36.344 2.172v.14zm-2.797-1.282q.797 0 1.5-.406.72-.422 1.032-1.078v-2.016h-1.313q-3.11 0-3.11 1.813 0 .797.532 1.25.531.437 1.36.437zm8.695 1.281h-1.687v-9.859h1.687zm-1.828-12.468q0-.407.25-.688.25-.297.735-.297.5 0 .75.297.265.281.265.688 0 .406-.265.687-.25.266-.75.266-.485 0-.735-.266-.25-.281-.25-.687zm6.121 2.61l.047 1.233q1.125-1.406 2.953-1.406 3.125 0 3.157 3.516v6.515h-1.688v-6.515q-.015-1.078-.5-1.578-.469-.516-1.484-.516-.813 0-1.438.438-.61.437-.968 1.156v7.015h-1.672v-9.859zm15.6-2.392v2.391h1.844v1.313H287v6.109q0 .594.235.89.25.297.843.297.297 0 .813-.109v1.36q-.672.187-1.297.187-1.125 0-1.703-.688-.578-.687-.578-1.937v-6.11h-1.797v-1.312h1.797v-2.39zm5.485 3.594q1.125-1.375 2.922-1.375 3.125 0 3.156 3.516v6.515h-1.687v-6.515q-.016-1.078-.5-1.578-.47-.516-1.485-.516-.812 0-1.437.438-.61.437-.969 1.156v7.015h-1.672v-14h1.672zm13.37.313q-.391-.063-.844-.063-1.657 0-2.25 1.406v7h-1.672v-9.859h1.64l.016 1.14q.828-1.312 2.36-1.312.484 0 .75.125zm5.625 8.531q-2 0-3.266-1.313-1.25-1.328-1.25-3.53v-.313q0-1.469.563-2.61.562-1.156 1.562-1.797 1.016-.656 2.188-.656 1.921 0 2.984 1.266 1.062 1.265 1.062 3.625v.687h-6.671q.03 1.47.843 2.375.828.891 2.078.891.891 0 1.516-.36.625-.374 1.078-.968l1.031.797q-1.234 1.906-3.718 1.906zm-.203-8.844q-1.016 0-1.72.75-.687.735-.843 2.078h4.938v-.125q-.079-1.28-.704-1.984-.609-.719-1.671-.719zm12.086 8.656q-.14-.296-.234-1.03-1.172 1.218-2.812 1.218-1.454 0-2.391-.828-.922-.828-.922-2.094 0-1.531 1.156-2.375 1.172-.86 3.297-.86h1.64v-.78q0-.891-.53-1.407-.516-.531-1.547-.531-.907 0-1.516.469-.61.453-.61 1.093h-1.702q0-.734.515-1.421.531-.688 1.422-1.079.906-.406 1.984-.406 1.704 0 2.672.86.97.843 1 2.328v4.531q0 1.36.344 2.172v.14zm-2.796-1.28q.796 0 1.5-.407.718-.422 1.03-1.078v-2.016h-1.312q-3.109 0-3.109 1.813 0 .797.531 1.25.531.437 1.36.437zm6.444-3.735q0-2.266 1.079-3.64 1.078-1.376 2.812-1.376 1.734 0 2.75 1.172v-5.14h1.688v14h-1.547l-.094-1.063q-1 1.25-2.812 1.25-1.704 0-2.797-1.406-1.078-1.407-1.078-3.657zm1.688.203q0 1.672.687 2.625.704.937 1.922.937 1.61 0 2.344-1.437v-4.531q-.766-1.39-2.328-1.39-1.234 0-1.938.952-.687.953-.687 2.844z" fill="#434343"/></g><path d="M0 0h595v50H0z"/></svg>