<svg fill="none" height="213.57022" stroke-linecap="square" stroke-miterlimit="10" viewBox="0 0 593.25061 213.57022" width="593.25061" xmlns="http://www.w3.org/2000/svg" xmlns:xlink="http://www.w3.org/1999/xlink"><clipPath id="a"><path d="m0 0h1280v960h-1280z"/></clipPath><g clip-path="url(#a)" transform="translate(-236.58115 -329.35663)"><path d="m0 0h1280v960h-1280z" fill="none"/><path d="m462.4908 366.24933h359.99997v166.26776h-359.99997z" fill="none"/><path d="m462.4908 366.24933h359.99997v166.26776h-359.99997z" fill-rule="evenodd" stroke="#000" stroke-dasharray="4 3" stroke-linecap="butt" stroke-linejoin="round"/><path d="m239.85301 380.81104h129.00789v41.98425h-129.00789z" fill="none"/><path d="m264.54645 394.4654 4.34375 10.82812 4.32812-10.82812h2.26563v13.26562h-1.75v-5.17187l.17187-5.5625-4.35937 10.73437h-1.34375l-4.34375-10.71875.17187 5.54688v5.17187h-1.73437v-13.26562zm19.85028 13.26562q-.14063-.29687-.23438-1.03125-1.17187 1.21875-2.8125 1.21875-1.45312 0-2.39062-.82812-.92188-.82813-.92188-2.09375 0-1.53125 1.15625-2.375 1.17188-.85938 3.29688-.85938h1.64062v-.78125q0-.89062-.53125-1.40625-.51562-.53125-1.54687-.53125-.90625 0-1.51563.46875-.60937.45313-.60937 1.09375h-1.70313q0-.73437.51563-1.42187.53125-.6875 1.42187-1.07813.90625-.40625 1.98438-.40625 1.70312 0 2.67187.85938.96875.84375 1 2.32812v4.53125q0 1.35938.34375 2.17188v.14062zm-2.79688-1.28125q.79688 0 1.5-.40625.71875-.42187 1.03125-1.07812v-2.01563h-1.3125q-3.10937 0-3.10937 1.8125 0 .79688.53125 1.25.53125.4375 1.35937.4375zm8.69486 1.28125h-1.6875v-9.85937h1.6875zm-1.82813-12.46875q0-.40625.25-.6875.25-.29687.73438-.29687.5 0 .75.29687.26562.28125.26562.6875 0 .40625-.26562.6875-.25.26563-.75.26563-.48438 0-.73438-.26563-.25-.28125-.25-.6875zm6.12116 2.60938.0469 1.23437q1.125-1.40625 2.95313-1.40625 3.125 0 3.15625 3.51563v6.51562h-1.6875v-6.51562q-.0156-1.07813-.5-1.57813-.46875-.51562-1.48438-.51562-.8125 0-1.4375.4375-.60937.4375-.96875 1.15625v7.01562h-1.67187v-9.85937zm15.59976-2.39063v2.39063h1.84375v1.3125h-1.84375v6.10937q0 .59375.23438.89063.25.29687.84375.29687.29687 0 .8125-.10937v1.35937q-.67188.1875-1.29688.1875-1.125 0-1.70312-.6875-.57813-.6875-.57813-1.9375v-6.10937h-1.79687v-1.3125h1.79687v-2.39063zm5.48487 3.59375q1.125-1.375 2.92187-1.375 3.125 0 3.15625 3.51563v6.51562h-1.6875v-6.51562q-.0156-1.07813-.5-1.57813-.46875-.51562-1.48437-.51562-.8125 0-1.4375.4375-.60938.4375-.96875 1.15625v7.01562h-1.67188v-14h1.67188zm13.36926.3125q-.39063-.0625-.84375-.0625-1.65625 0-2.25 1.40625v7h-1.67188v-9.85937h1.64063l.0156 1.14062q.82813-1.3125 2.35938-1.3125.48437 0 .75.125zm5.62539 8.53125q-2 0-3.26562-1.3125-1.25-1.32812-1.25-3.53125v-.3125q0-1.46875.5625-2.60937.5625-1.15625 1.5625-1.79688 1.01562-.65625 2.1875-.65625 1.92187 0 2.98437 1.26563 1.0625 1.26562 1.0625 3.625v.6875h-6.67187q.0312 1.46875.84375 2.375.82812.89062 2.07812.89062.89063 0 1.51563-.35937.625-.375 1.07812-.96875l1.03125.79687q-1.23437 1.90625-3.71875 1.90625zm-.20312-8.84375q-1.01563 0-1.71875.75-.6875.73438-.84375 2.07813h4.9375v-.125q-.0781-1.28125-.70313-1.98438-.60937-.71875-1.67187-.71875zm12.08691 8.65625q-.14062-.29687-.23437-1.03125-1.17188 1.21875-2.8125 1.21875-1.45313 0-2.39063-.82812-.92187-.82813-.92187-2.09375 0-1.53125 1.15625-2.375 1.17187-.85938 3.29687-.85938h1.64063v-.78125q0-.89062-.53125-1.40625-.51563-.53125-1.54688-.53125-.90625 0-1.51562.46875-.60938.45313-.60938 1.09375h-1.70312q0-.73437.51562-1.42187.53125-.6875 1.42188-1.07813.90625-.40625 1.98437-.40625 1.70313 0 2.67188.85938.96875.84375 1 2.32812v4.53125q0 1.35938.34375 2.17188v.14062zm-2.79687-1.28125q.79687 0 1.5-.40625.71875-.42187 1.03125-1.07812v-2.01563h-1.3125q-3.10938 0-3.10938 1.8125 0 .79688.53125 1.25.53125.4375 1.35938.4375zm6.44485-3.73437q0-2.26563 1.07813-3.64063 1.07812-1.375 2.8125-1.375 1.73437 0 2.75 1.17188v-5.14063h1.6875v14h-1.54688l-.0937-1.0625q-1 1.25-2.8125 1.25-1.70312 0-2.79687-1.40625-1.07813-1.40625-1.07813-3.65625zm1.6875.20312q0 1.67188.6875 2.625.70313.9375 1.92188.9375 1.60937 0 2.34375-1.4375v-4.53125q-.76563-1.39062-2.32813-1.39062-1.23437 0-1.9375.95312-.6875.95313-.6875 2.84375z" fill="#434343"/><path d="m232.7874 419.20996h136.0945v41.98425h-136.0945z" fill="none"/><path d="m247.27666 441.94247.25 1.75.375-1.57812 2.625-9.25h1.46875l2.5625 9.25.35937 1.60937.28125-1.78125 2.06249-9.07812h1.76562l-3.21873 13.26562h-1.59375l-2.73437-9.67187-.20313-1-.21875 1-2.82812 9.67187h-1.59375l-3.20313-13.26562h1.75zm12.97383-.82812q0-1.45313.5625-2.60938.57813-1.15625 1.59375-1.78125 1.01563-.625 2.3125-.625 2.01563 0 3.25 1.39063 1.25 1.39062 1.25 3.70312v.125q0 1.4375-.54687 2.57813-.54688 1.14062-1.57813 1.78125-1.01562.64062-2.35937.64062-2 0-3.25-1.39062-1.23438-1.40625-1.23438-3.70313zm1.6875.20312q0 1.64063.76563 2.64063.76562.98437 2.03125.98437 1.29687 0 2.04687-1 .75-1.01562.75-2.82812 0-1.625-.76562-2.625-.76563-1.01563-2.04688-1.01563-1.25 0-2.01562 1-.76563.98438-.76563 2.84375zm14.17114-3.53125q-.39062-.0625-.84375-.0625-1.65625 0-2.25 1.40625v7h-1.67187v-9.85937h1.64062l.0156 1.14062q.82812-1.3125 2.35937-1.3125.48438 0 .75.125zm4.29725 3.78125-1.0625 1.09375v3.46875h-1.6875v-14h1.6875v8.46875l.90625-1.07812 3.0625-3.25h2.04687l-3.82812 4.125 4.28125 5.73437h-1.98438zm10.78378 4.75q-2 0-3.26563-1.3125-1.25-1.32812-1.25-3.53125v-.3125q0-1.46875.5625-2.60937.5625-1.15625 1.5625-1.79688 1.01563-.65625 2.1875-.65625 1.92188 0 2.98438 1.26563 1.0625 1.26562 1.0625 3.625v.6875h-6.67188q.0312 1.46875.84375 2.375.82813.89062 2.07813.89062.89062 0 1.51562-.35937.625-.375 1.07813-.96875l1.03125.79687q-1.23438 1.90625-3.71875 1.90625zm-.20313-8.84375q-1.01562 0-1.71875.75-.6875.73438-.84375 2.07813h4.9375v-.125q-.0781-1.28125-.70312-1.98438-.60938-.71875-1.67188-.71875zm10.77445.3125q-.39063-.0625-.84375-.0625-1.65625 0-2.25 1.40625v7h-1.67188v-9.85937h1.64063l.0156 1.14062q.82813-1.3125 2.35938-1.3125.48437 0 .75.125zm8.44702-3.90625v2.39063h1.84375v1.3125h-1.84375v6.10937q0 .59375.23437.89063.25.29687.84375.29687.29688 0 .8125-.10937v1.35937q-.67187.1875-1.29687.1875-1.125 0-1.70313-.6875-.57812-.6875-.57812-1.9375v-6.10937h-1.79688v-1.3125h1.79688v-2.39063zm5.48486 3.59375q1.125-1.375 2.92188-1.375 3.125 0 3.15625 3.51563v6.51562h-1.6875v-6.51562q-.0156-1.07813-.5-1.57813-.46875-.51562-1.48438-.51562-.8125 0-1.4375.4375-.60937.4375-.96875 1.15625v7.01562h-1.67187v-14h1.67187zm13.36927.3125q-.39063-.0625-.84375-.0625-1.65625 0-2.25 1.40625v7h-1.67188v-9.85937h1.64063l.0156 1.14062q.82813-1.3125 2.35938-1.3125.48437 0 .75.125zm5.62539 8.53125q-2 0-3.26562-1.3125-1.25-1.32812-1.25-3.53125v-.3125q0-1.46875.5625-2.60937.5625-1.15625 1.5625-1.79688 1.01562-.65625 2.1875-.65625 1.92187 0 2.98437 1.26563 1.0625 1.26562 1.0625 3.625v.6875h-6.67187q.0312 1.46875.84375 2.375.82812.89062 2.07812.89062.89063 0 1.51563-.35937.625-.375 1.07812-.96875l1.03125.79687q-1.23437 1.90625-3.71875 1.90625zm-.20312-8.84375q-1.01563 0-1.71875.75-.6875.73438-.84375 2.07813h4.9375v-.125q-.0781-1.28125-.70313-1.98438-.60937-.71875-1.67187-.71875zm12.08691 8.65625q-.14062-.29687-.23437-1.03125-1.17188 1.21875-2.8125 1.21875-1.45313 0-2.39063-.82812-.92187-.82813-.92187-2.09375 0-1.53125 1.15625-2.375 1.17187-.85938 3.29687-.85938h1.64063v-.78125q0-.89062-.53125-1.40625-.51563-.53125-1.54688-.53125-.90625 0-1.51562.46875-.60938.45313-.60938 1.09375h-1.70312q0-.73437.51562-1.42187.53125-.6875 1.42188-1.07813.90625-.40625 1.98437-.40625 1.70313 0 2.67188.85938.96875.84375 1 2.32812v4.53125q0 1.35938.34375 2.17188v.14062zm-2.79687-1.28125q.79687 0 1.5-.40625.71875-.42187 1.03125-1.07812v-2.01563h-1.3125q-3.10938 0-3.10938 1.8125 0 .79688.53125 1.25.53125.4375 1.35938.4375zm6.44485-3.73437q0-2.26563 1.07813-3.64063 1.07812-1.375 2.8125-1.375 1.73437 0 2.75 1.17188v-5.14063h1.6875v14h-1.54688l-.0937-1.0625q-1 1.25-2.8125 1.25-1.70312 0-2.79687-1.40625-1.07813-1.40625-1.07813-3.65625zm1.6875.20312q0 1.67188.6875 2.625.70313.9375 1.92188.9375 1.60937 0 2.34375-1.4375v-4.53125q-.76563-1.39062-2.32813-1.39062-1.23437 0-1.9375.95312-.6875.95313-.6875 2.84375z" fill="#434343"/><path d="m232.77165 457.61154h136.0945v41.98425h-136.0945z" fill="none"/><path d="m247.26091 480.34406.25 1.75.375-1.57812 2.625-9.25h1.46875l2.5625 9.25.35937 1.60937.28125-1.78125 2.06249-9.07812h1.76562l-3.21873 13.26562h-1.59375l-2.73438-9.67187-.20312-1-.21875 1-2.82813 9.67187h-1.59375l-3.20312-13.26562h1.75zm12.97383-.82812q0-1.45313.5625-2.60938.57813-1.15625 1.59375-1.78125 1.01563-.625 2.3125-.625 2.01563 0 3.25 1.39063 1.25 1.39062 1.25 3.70312v.125q0 1.4375-.54687 2.57813-.54688 1.14062-1.57813 1.78125-1.01562.64062-2.35937.64062-2 0-3.25-1.39062-1.23438-1.40625-1.23438-3.70313zm1.6875.20312q0 1.64063.76563 2.64063.76562.98437 2.03125.98437 1.29687 0 2.04687-1 .75-1.01562.75-2.82812 0-1.625-.76562-2.625-.76563-1.01563-2.04688-1.01563-1.25 0-2.01562 1-.76563.98438-.76563 2.84375zm14.17114-3.53125q-.39062-.0625-.84375-.0625-1.65625 0-2.25 1.40625v7h-1.67187v-9.85937h1.64062l.0156 1.14062q.82812-1.3125 2.35937-1.3125.48438 0 .75.125zm4.29724 3.78125-1.0625 1.09375v3.46875h-1.6875v-14h1.6875v8.46875l.90625-1.07812 3.0625-3.25h2.04688l-3.82813 4.125 4.28125 5.73437h-1.98437zm10.78379 4.75q-2 0-3.26563-1.3125-1.25-1.32812-1.25-3.53125v-.3125q0-1.46875.5625-2.60937.5625-1.15625 1.5625-1.79688 1.01563-.65625 2.1875-.65625 1.92188 0 2.98438 1.26563 1.0625 1.26562 1.0625 3.625v.6875h-6.67188q.0312 1.46875.84375 2.375.82813.89062 2.07813.89062.89062 0 1.51562-.35937.625-.375 1.07813-.96875l1.03125.79687q-1.23438 1.90625-3.71875 1.90625zm-.20313-8.84375q-1.01562 0-1.71875.75-.6875.73438-.84375 2.07813h4.9375v-.125q-.0781-1.28125-.70312-1.98438-.60938-.71875-1.67188-.71875zm10.77445.3125q-.39063-.0625-.84375-.0625-1.65625 0-2.25 1.40625v7h-1.67188v-9.85937h1.64063l.0156 1.14062q.82813-1.3125 2.35938-1.3125.48437 0 .75.125zm8.44702-3.90625v2.39063h1.84375v1.3125h-1.84375v6.10937q0 .59375.23437.89063.25.29687.84375.29687.29688 0 .8125-.10937v1.35937q-.67187.1875-1.29687.1875-1.125 0-1.70313-.6875-.57812-.6875-.57812-1.9375v-6.10937h-1.79688v-1.3125h1.79688v-2.39063zm5.48486 3.59375q1.125-1.375 2.92188-1.375 3.125 0 3.15625 3.51563v6.51562h-1.6875v-6.51562q-.0156-1.07813-.5-1.57813-.46875-.51562-1.48438-.51562-.8125 0-1.4375.4375-.60937.4375-.96875 1.15625v7.01562h-1.67187v-14h1.67187zm13.36927.3125q-.39063-.0625-.84375-.0625-1.65625 0-2.25 1.40625v7h-1.67188v-9.85937h1.64063l.0156 1.14062q.82813-1.3125 2.35938-1.3125.48437 0 .75.125zm5.62539 8.53125q-2 0-3.26562-1.3125-1.25-1.32812-1.25-3.53125v-.3125q0-1.46875.5625-2.60937.5625-1.15625 1.5625-1.79688 1.01562-.65625 2.1875-.65625 1.92187 0 2.98437 1.26563 1.0625 1.26562 1.0625 3.625v.6875h-6.67187q.0312 1.46875.84375 2.375.82812.89062 2.07812.89062.89063 0 1.51563-.35937.625-.375 1.07812-.96875l1.03125.79687q-1.23437 1.90625-3.71875 1.90625zm-.20312-8.84375q-1.01563 0-1.71875.75-.6875.73438-.84375 2.07813h4.9375v-.125q-.0781-1.28125-.70313-1.98438-.60937-.71875-1.67187-.71875zm12.08691 8.65625q-.14062-.29687-.23437-1.03125-1.17188 1.21875-2.8125 1.21875-1.45313 0-2.39063-.82812-.92187-.82813-.92187-2.09375 0-1.53125 1.15625-2.375 1.17187-.85938 3.29687-.85938h1.64063v-.78125q0-.89062-.53125-1.40625-.51563-.53125-1.54688-.53125-.90625 0-1.51562.46875-.60938.45313-.60938 1.09375h-1.70312q0-.73437.51562-1.42187.53125-.6875 1.42188-1.07813.90625-.40625 1.98437-.40625 1.70313 0 2.67188.85938.96875.84375 1 2.32812v4.53125q0 1.35938.34375 2.17188v.14062zm-2.79687-1.28125q.79687 0 1.5-.40625.71875-.42187 1.03125-1.07812v-2.01563h-1.3125q-3.10938 0-3.10938 1.8125 0 .79688.53125 1.25.53125.4375 1.35938.4375zm6.44485-3.73437q0-2.26563 1.07813-3.64063 1.07812-1.375 2.8125-1.375 1.73437 0 2.75 1.17188v-5.14063h1.6875v14h-1.54688l-.0937-1.0625q-1 1.25-2.8125 1.25-1.70312 0-2.79687-1.40625-1.07813-1.40625-1.07813-3.65625zm1.6875.20312q0 1.67188.6875 2.625.70313.9375 1.92188.9375 1.60937 0 2.34375-1.4375v-4.53125q-.76563-1.39062-2.32813-1.39062-1.23437 0-1.9375.95312-.6875.95313-.6875 2.84375z" fill="#434343"/><path d="m483.89883 385.6255h90.54538v29.08823h-90.54538z" fill="#f3f3f3" fill-rule="evenodd"/><path d="m483.89883 385.6255h90.54538v29.08823h-90.54538z" fill-rule="evenodd" stroke="#000" stroke-linecap="butt" stroke-linejoin="round"/><path d="m480.67386 388.89456h90.54538v29.08823h-90.54538z" fill="#d9d9d9" fill-rule="evenodd"/><path d="m480.67386 388.89456h90.54538v29.08823h-90.54538z" fill-rule="evenodd" stroke="#000" stroke-linecap="butt" stroke-linejoin="round"/><path d="m480.67386 388.89456h5.91684v29.08823h-5.91684z" fill="none"/><path d="m480.67386 388.89456h5.91684v29.08823h-5.91684z" fill-rule="evenodd" stroke="#000" stroke-linecap="butt" stroke-linejoin="round"/><path d="m486.5907 388.89456h5.91684v29.08823h-5.91684z" fill="none"/><path d="m486.5907 388.89456h5.91684v29.08823h-5.91684z" fill-rule="evenodd" stroke="#000" stroke-linecap="butt" stroke-linejoin="round"/><path d="m492.50754 388.89456h5.91687v29.08823h-5.91687z" fill="none"/><path d="m492.50754 388.89456h5.91687v29.08823h-5.91687z" fill-rule="evenodd" stroke="#000" stroke-linecap="butt" stroke-linejoin="round"/><path d="m498.4244 388.89456h5.91684v29.08823h-5.91684z" fill="none"/><g fill-rule="evenodd"><path d="m498.4244 388.89456h5.91684v29.08823h-5.91684z" stroke="#000" stroke-linecap="butt" stroke-linejoin="round"/><path d="m483.89883 424.02444h90.54538v29.08823h-90.54538z" fill="#f3f3f3"/><path d="m483.89883 424.02444h90.54538v29.08823h-90.54538z" stroke="#000" stroke-linecap="butt" stroke-linejoin="round"/><path d="m480.67386 427.29352h90.54538v29.08823h-90.54538z" fill="#d9d9d9"/><path d="m480.67386 427.29352h90.54538v29.08823h-90.54538z" stroke="#000" stroke-linecap="butt" stroke-linejoin="round"/></g><path d="m480.67386 427.29352h5.91684v29.08823h-5.91684z" fill="none"/><path d="m480.67386 427.29352h5.91684v29.08823h-5.91684z" fill-rule="evenodd" stroke="#000" stroke-linecap="butt" stroke-linejoin="round"/><path d="m486.5907 427.29352h5.91684v29.08823h-5.91684z" fill="none"/><path d="m486.5907 427.29352h5.91684v29.08823h-5.91684z" fill-rule="evenodd" stroke="#000" stroke-linecap="butt" stroke-linejoin="round"/><path d="m492.50754 427.29352h5.91687v29.08823h-5.91687z" fill="none"/><path d="m492.50754 427.29352h5.91687v29.08823h-5.91687z" fill-rule="evenodd" stroke="#000" stroke-linecap="butt" stroke-linejoin="round"/><path d="m498.4244 427.29352h5.91684v29.08823h-5.91684z" fill="none"/><path d="m498.4244 427.29352h5.91684v29.08823h-5.91684z" fill-rule="evenodd" stroke="#000" stroke-linecap="butt" stroke-linejoin="round"/><path d="m483.89883 463.82233h90.54538v29.08823h-90.54538z" fill="#f3f3f3" fill-rule="evenodd"/><path d="m483.89883 463.82233h90.54538v29.08823h-90.54538z" fill-rule="evenodd" stroke="#000" stroke-linecap="butt" stroke-linejoin="round"/><path d="m480.67386 467.0914h90.54538v29.08823h-90.54538z" fill="#d9d9d9" fill-rule="evenodd"/><path d="m480.67386 467.0914h90.54538v29.08823h-90.54538z" fill-rule="evenodd" stroke="#000" stroke-linecap="butt" stroke-linejoin="round"/><path d="m480.67386 467.0914h5.91684v29.08823h-5.91684z" fill="none"/><path d="m480.67386 467.0914h5.91684v29.08823h-5.91684z" fill-rule="evenodd" stroke="#000" stroke-linecap="butt" stroke-linejoin="round"/><path d="m486.5907 467.0914h5.91684v29.08823h-5.91684z" fill="none"/><path d="m486.5907 467.0914h5.91684v29.08823h-5.91684z" fill-rule="evenodd" stroke="#000" stroke-linecap="butt" stroke-linejoin="round"/><path d="m492.50754 467.0914h5.91687v29.08823h-5.91687z" fill="none"/><path d="m492.50754 467.0914h5.91687v29.08823h-5.91687z" fill-rule="evenodd" stroke="#000" stroke-linecap="butt" stroke-linejoin="round"/><path d="m498.4244 467.0914h5.91684v29.08823h-5.91684z" fill="none"/><g fill-rule="evenodd"><path d="m498.4244 467.0914h5.91684v29.08823h-5.91684z" stroke="#000" stroke-linecap="butt" stroke-linejoin="round"/><path d="m708.4375 413.37527h92.0163v29.5585h-92.0163z" fill="#f3f3f3"/><path d="m708.4375 413.37527h92.0163v29.5585h-92.0163z" stroke="#000" stroke-linecap="butt" stroke-linejoin="round"/><path d="m705.4532 416.62372h92.0163v29.5585h-92.0163z" fill="#f3f3f3"/><path d="m705.4532 416.62372h92.0163v29.5585h-92.0163z" stroke="#000" stroke-linecap="butt" stroke-linejoin="round"/><path d="m702.2801 420.06137h92.0163v29.55847h-92.0163z" fill="#f3f3f3"/><path d="m702.2801 420.06137h92.0163v29.55847h-92.0163z" stroke="#000" stroke-linecap="butt" stroke-linejoin="round"/><path d="m699.2957 423.499h92.01636v29.55847h-92.01636z" fill="#f3f3f3"/><path d="m699.2957 423.499h92.01636v29.55847h-92.01636z" stroke="#000" stroke-linecap="butt" stroke-linejoin="round"/><path d="m696.0183 426.82117h92.0163v29.5585h-92.0163z" fill="#d9d9d9"/><path d="m696.0183 426.82117h92.0163v29.5585h-92.0163z" stroke="#000" stroke-linecap="butt" stroke-linejoin="round"/></g><path d="m372.54462 401.80316h81.25986" fill="none"/><path d="m384.54462 401.80316h57.25986" fill-rule="evenodd" stroke="#666" stroke-linecap="butt" stroke-linejoin="round" stroke-width="2"/><path d="m384.54462 398.4997-9.0762 3.30347 9.0762 3.30346z" fill="#666" fill-rule="evenodd" stroke="#666" stroke-linecap="butt" stroke-width="2"/><path d="m441.80447 405.10663 9.07617-3.30347-9.07617-3.30346z" fill="#666" fill-rule="evenodd" stroke="#666" stroke-linecap="butt" stroke-width="2"/><path d="m372.5551 440.2021h81.25986" fill="none"/><path d="m384.5551 440.2021h57.25986" fill-rule="evenodd" stroke="#666" stroke-linecap="butt" stroke-linejoin="round" stroke-width="2"/><path d="m384.5551 436.89862-9.0762 3.30347 9.0762 3.30346z" fill="#666" fill-rule="evenodd" stroke="#666" stroke-linecap="butt" stroke-width="2"/><path d="m441.81497 443.50555 9.07617-3.30347-9.07617-3.30346z" fill="#666" fill-rule="evenodd" stroke="#666" stroke-linecap="butt" stroke-width="2"/><path d="m372.54855 478.60367h81.25986" fill="none"/><path d="m384.54855 478.60367h57.25986" fill-rule="evenodd" stroke="#666" stroke-linecap="butt" stroke-linejoin="round" stroke-width="2"/><path d="m384.54855 475.3002-9.0762 3.30347 9.0762 3.30346z" fill="#666" fill-rule="evenodd" stroke="#666" stroke-linecap="butt" stroke-width="2"/><path d="m441.8084 481.90714 9.07617-3.30347-9.07617-3.30346z" fill="#666" fill-rule="evenodd" stroke="#666" stroke-linecap="butt" stroke-width="2"/><path d="m363 486.60104h99.49606v41.98428h-99.49606z" fill="none"/><path d="m382.75586 506.82043q0 1.9375-.89063 3.125-.875 1.17187-2.375 1.17187-1.54687 0-2.42187-.98437v4.07812h-1.45313v-11.70312h1.32813l.0625.9375q.89062-1.09375 2.45312-1.09375 1.53125 0 2.40625 1.15625.89063 1.14062.89063 3.1875zm-1.4375-.15625q0-1.4375-.60938-2.26563-.60937-.82812-1.67187-.82812-1.3125 0-1.96875 1.17187v4.03125q.64062 1.15625 1.98437 1.15625 1.03125 0 1.64063-.8125.625-.82812.625-2.45312zm8.49219 3.45312q-.84375 1-2.46875 1-1.35938 0-2.0625-.78125-.70313-.79687-.71875-2.32812v-5.5h1.45312v5.45312q0 1.92188 1.5625 1.92188 1.65625 0 2.20313-1.23438v-6.14062h1.4375v8.45312h-1.375zm8.52343-1.40625q0-.57812-.4375-.90625-.4375-.32812-1.54687-.5625-1.09375-.23437-1.73438-.5625-.64062-.32812-.95312-.78125-.3125-.45312-.3125-1.07812 0-1.03125.875-1.75.89062-.71875 2.25-.71875 1.4375 0 2.32812.75.90625.73437.90625 1.89062h-1.45312q0-.59375-.51563-1.01562-.5-.4375-1.26562-.4375-.78125 0-1.23438.34375-.4375.34375-.4375.89062 0 .53125.40625.79688.42188.26562 1.5.51562 1.07813.23438 1.75.57813.67188.32812 1 .79687.32813.46875.32813 1.15625 0 1.125-.90625 1.8125-.90625.6875-2.35938.6875-1.01562 0-1.79687-.35937-.78125-.35938-1.21875-1-.4375-.65625-.4375-1.40625h1.4375q.0469.73437.57812 1.15625.54688.42187 1.4375.42187.82813 0 1.3125-.32812.5-.32813.5-.89063zm4.78125-5.1875q.95313-1.17187 2.5-1.17187 2.67188 0 2.70313 3.01562v5.59375h-1.45313v-5.59375q0-.92187-.42187-1.35937-.40625-.4375-1.26563-.4375-.70312 0-1.23437.375-.53125.375-.82813.98437v6.03125h-1.45312v-12h1.45312zm11.61719 8.42188h-1.25l4.75-12.35938h1.23438zm17.39844-5.125q0 1.9375-.89062 3.125-.875 1.17187-2.375 1.17187-1.54688 0-2.42188-.98437v4.07812h-1.45312v-11.70312h1.32812l.0625.9375q.89063-1.09375 2.45313-1.09375 1.53125 0 2.40625 1.15625.89062 1.14062.89062 3.1875zm-1.4375-.15625q0-1.4375-.60937-2.26563-.60938-.82812-1.67188-.82812-1.3125 0-1.96875 1.17187v4.03125q.64063 1.15625 1.98438 1.15625 1.03125 0 1.64062-.8125.625-.82812.625-2.45312zm2.89844-.0156q0-1.23437.48437-2.21875.48438-1 1.35938-1.53125.875-.54687 1.98437-.54687 1.73438 0 2.79688 1.20312 1.0625 1.1875 1.0625 3.17188v.0937q0 1.23437-.46875 2.21875-.46875.98437-1.35938 1.53125-.875.54687-2.01562.54687-1.71875 0-2.78125-1.1875-1.0625-1.20312-1.0625-3.17187zm1.45312.17188q0 1.40625.64063 2.26562.65625.84375 1.75.84375 1.10937 0 1.75-.85937.65625-.85938.65625-2.42188 0-1.39062-.67188-2.25-.65625-.85937-1.75-.85937-1.0625 0-1.71875.85937-.65625.84375-.65625 2.42188zm15.1875 0q0 1.9375-.89062 3.125-.875 1.17187-2.375 1.17187-1.54688 0-2.42188-.98437v4.07812h-1.45312v-11.70312h1.32812l.0625.9375q.89063-1.09375 2.45313-1.09375 1.53125 0 2.40625 1.15625.89062 1.14062.89062 3.1875zm-1.4375-.15625q0-1.4375-.60937-2.26563-.60938-.82812-1.67188-.82812-1.3125 0-1.96875 1.17187v4.03125q.64063 1.15625 1.98438 1.15625 1.03125 0 1.64062-.8125.625-.82812.625-2.45312z" fill="#434343"/><path d="m586.88446 401.80383 94.36218 26.96063" fill="none"/><path d="m598.4227 405.10046 71.28558 20.36731" fill-rule="evenodd" stroke="#666" stroke-linecap="butt" stroke-linejoin="round" stroke-width="2"/><path d="m599.33026 401.9241-9.63452.68292 7.81946 5.6698z" fill="#666" fill-rule="evenodd" stroke="#666" stroke-linecap="butt" stroke-width="2"/><path d="m668.80084 428.64413 9.63446-.68292-7.8194-5.6698z" fill="#666" fill-rule="evenodd" stroke="#666" stroke-linecap="butt" stroke-width="2"/><path d="m587.9698 440.2021h94.51971" fill="none"/><path d="m599.9698 440.2021h70.51971" fill-rule="evenodd" stroke="#666" stroke-linecap="butt" stroke-linejoin="round" stroke-width="2"/><path d="m599.9698 436.89862-9.07617 3.30347 9.07617 3.30346z" fill="#666" fill-rule="evenodd" stroke="#666" stroke-linecap="butt" stroke-width="2"/><path d="m670.4895 443.50555 9.07617-3.30347-9.07617-3.30346z" fill="#666" fill-rule="evenodd" stroke="#666" stroke-linecap="butt" stroke-width="2"/><path d="m681.24664 451.64108-94.36218 26.96063" fill="none"/><path d="m669.7083 454.93774-71.28558 20.36728" fill-rule="evenodd" stroke="#666" stroke-linecap="butt" stroke-linejoin="round" stroke-width="2"/><path d="m670.6159 458.1141 7.8194-5.6698-9.63446-.68292z" fill="#666" fill-rule="evenodd" stroke="#666" stroke-linecap="butt" stroke-width="2"/><path d="m597.5152 472.1287-7.81946 5.66977 9.63452.68295z" fill="#666" fill-rule="evenodd" stroke="#666" stroke-linecap="butt" stroke-width="2"/><path d="m574.44354 478.60104h113.54333v41.98428h-113.54333z" fill="none"/><path d="m608.37146 498.82043q0 1.9375-.89063 3.125-.875 1.17187-2.375 1.17187-1.54687 0-2.42187-.98437v4.07812h-1.45313v-11.70312h1.32813l.0625.9375q.89062-1.09375 2.45312-1.09375 1.53125 0 2.40625 1.15625.89063 1.14062.89063 3.1875zm-1.4375-.15625q0-1.4375-.60938-2.26563-.60937-.82812-1.67187-.82812-1.3125 0-1.96875 1.17187v4.03125q.64062 1.15625 1.98437 1.15625 1.03125 0 1.64063-.8125.625-.82812.625-2.45312zm8.49219 3.45312q-.84375 1-2.46875 1-1.35938 0-2.0625-.78125-.70313-.79687-.71875-2.32812v-5.5h1.45312v5.45312q0 1.92188 1.5625 1.92188 1.65625 0 2.20313-1.23438v-6.14062h1.4375v8.45312h-1.375zm10.75781-3.29687q0 1.9375-.89063 3.125-.89062 1.17187-2.39062 1.17187-1.59375 0-2.46875-1.14062l-.0781.98437h-1.32812v-12h1.45312v4.46875q.875-1.07812 2.40625-1.07812 1.54688 0 2.42188 1.17187.875 1.15625.875 3.17188zm-1.4375-.15625q0-1.48438-.57813-2.28125-.5625-.8125-1.64062-.8125-1.42188 0-2.04688 1.32812v3.65625q.65625 1.32813 2.0625 1.32813 1.04688 0 1.625-.79688.57813-.8125.57813-2.42187zm4.83594 4.29687h-1.45313v-12h1.45313zm3.88281 0h-1.45313v-8.45312h1.45313zm-1.5625-10.70312q0-.34375.20312-.57813.21875-.25.64063-.25.42187 0 .64062.25.21875.23438.21875.59375 0 .34375-.21875.57813-.21875.23437-.64062.23437-.42188 0-.64063-.23437-.20312-.23438-.20312-.59375zm8.78906 8.45312q0-.57812-.4375-.90625-.4375-.32812-1.54687-.5625-1.09375-.23437-1.73438-.5625-.64062-.32812-.95312-.78125-.3125-.45312-.3125-1.07812 0-1.03125.875-1.75.89062-.71875 2.25-.71875 1.4375 0 2.32812.75.90625.73437.90625 1.89062h-1.45312q0-.59375-.51563-1.01562-.5-.4375-1.26562-.4375-.78125 0-1.23438.34375-.4375.34375-.4375.89062 0 .53125.40625.79688.42188.26562 1.5.51562 1.07813.23438 1.75.57813.67188.32812 1 .79687.32813.46875.32813 1.15625 0 1.125-.90625 1.8125-.90625.6875-2.35938.6875-1.01562 0-1.79687-.35937-.78125-.35938-1.21875-1-.4375-.65625-.4375-1.40625h1.4375q.0469.73437.57812 1.15625.54688.42187 1.4375.42187.82813 0 1.3125-.32812.5-.32813.5-.89063zm4.78125-5.1875q.95313-1.17187 2.5-1.17187 2.67188 0 2.70313 3.01562v5.59375h-1.45313v-5.59375q0-.92187-.42187-1.35937-.40625-.4375-1.26563-.4375-.70312 0-1.23437.375-.53125.375-.82813.98437v6.03125h-1.45312v-12h1.45312zm11.61719 8.42188h-1.25l4.75-12.35938h1.23437z" fill="#434343"/><path d="m619.9613 519.71106q0-.57813-.4375-.90625-.4375-.32813-1.54687-.5625-1.09375-.23438-1.73438-.5625-.64062-.32813-.95312-.78125-.3125-.45313-.3125-1.07813 0-1.03125.875-1.75.89062-.71875 2.25-.71875 1.4375 0 2.32812.75.90625.73438.90625 1.89063h-1.45312q0-.59375-.51563-1.01563-.5-.4375-1.26562-.4375-.78125 0-1.23438.34375-.4375.34375-.4375.89063 0 .53125.40625.79687.42188.26563 1.5.51563 1.07813.23437 1.75.57812.67188.32813 1 .79688.32813.46875.32813 1.15625 0 1.125-.90625 1.8125-.90625.6875-2.35938.6875-1.01562 0-1.79687-.35938-.78125-.35937-1.21875-1-.4375-.65625-.4375-1.40625h1.4375q.0469.73438.57812 1.15625.54688.42188 1.4375.42188.82813 0 1.3125-.32813.5-.32812.5-.89062zm5.29688-8.25v2.04687h1.57812v1.10938h-1.57812v5.25q0 .5.20312.76562.21875.25.71875.25.25 0 .6875-.0937v1.17188q-.5625.15625-1.10937.15625-.96875 0-1.46875-.57813-.48438-.59375-.48438-1.67187v-5.25h-1.53125v-1.10938h1.53125v-2.04687zm6.77343 10.65625q-1.71875 0-2.79687-1.125-1.07813-1.14063-1.07813-3.03125v-.26563q0-1.25.46875-2.23437.48438-1 1.34375-1.54688.875-.5625 1.875-.5625 1.65625 0 2.5625 1.09375.92188 1.07813.92188 3.09375v.60938h-5.73438q.0312 1.25.73438 2.01562.70312.76563 1.78125.76563.76562 0 1.29687-.3125.53125-.3125.92188-.82813l.89062.6875q-1.0625 1.64063-3.1875 1.64063zm-.1875-7.57813q-.875 0-1.46875.64063-.59375.625-.73437 1.78125h4.23437v-.10938q-.0625-1.10937-.59375-1.70312-.53125-.60938-1.4375-.60938zm10.36719 7.42188q-.125-.25-.20312-.89063-1 1.04688-2.40625 1.04688-1.25 0-2.04688-.70313-.79687-.71875-.79687-1.79687 0-1.32813 1-2.04688 1-.73437 2.82812-.73437h1.40625v-.67188q0-.75-.45312-1.20312-.45313-.45313-1.34375-.45313-.76563 0-1.29688.39063-.51562.39062-.51562.95312h-1.45313q0-.64062.4375-1.21875.45313-.59375 1.21875-.9375.78125-.34375 1.70313-.34375 1.45312 0 2.28125.73438.82812.71875.85937 2v3.89062q0 1.17188.29688 1.85938v.125zm-2.39062-1.10938q.67187 0 1.28125-.34375.60937-.35937.89062-.92187v-1.73438h-1.14062q-2.65625 0-2.65625 1.5625 0 .67188.45312 1.0625.45313.375 1.17188.375zm7.45312 1.10938h-1.45312v-12h1.45312z" fill="#434343"/><path d="m622.4908 324.2651h200v41.98422h-200z" fill="none"/><path d="m679.9802 337.91946 4.34375 10.82813 4.32812-10.82813h2.26563v13.26563h-1.75v-5.17188l.17187-5.5625-4.35937 10.73438h-1.34375l-4.34375-10.71875.17187 5.54687v5.17188h-1.73437v-13.26563zm19.85028 13.26563q-.14063-.29688-.23438-1.03125-1.17187 1.21875-2.8125 1.21875-1.45312 0-2.39062-.82813-.92188-.82812-.92188-2.09375 0-1.53125 1.15625-2.375 1.17188-.85937 3.29688-.85937h1.64062v-.78125q0-.89063-.53125-1.40625-.51562-.53125-1.54687-.53125-.90625 0-1.51563.46875-.60937.45312-.60937 1.09375h-1.70313q0-.73438.51563-1.42188.53125-.6875 1.42187-1.07812.90625-.40625 1.98438-.40625 1.70312 0 2.67187.85937.96875.84375 1 2.32813v4.53125q0 1.35937.34375 2.17187v.14063zm-2.79688-1.28125q.79688 0 1.5-.40625.71875-.42188 1.03125-1.07813v-2.01562h-1.3125q-3.10937 0-3.10937 1.8125 0 .79687.53125 1.25.53125.4375 1.35937.4375zm11.63239-7.0625q-.39063-.0625-.84375-.0625-1.65625 0-2.25 1.40625v7h-1.67188v-9.85938h1.64063l.0156 1.14063q.82813-1.3125 2.35938-1.3125.48437 0 .75.125zm4.29724 3.78125-1.0625 1.09375v3.46875h-1.6875v-14h1.6875v8.46875l.90625-1.07813 3.0625-3.25h2.04688l-3.82813 4.125 4.28125 5.73438h-1.98437zm8.53375 4.5625h-1.6875v-9.85938h1.6875zm-1.82812-12.46875q0-.40625.25-.6875.25-.29688.73437-.29688.5 0 .75.29688.26563.28125.26563.6875 0 .40625-.26563.6875-.25.26562-.75.26562-.48437 0-.73437-.26562-.25-.28125-.25-.6875zm6.12121 2.60937.0469 1.23438q1.125-1.40625 2.95312-1.40625 3.125 0 3.15625 3.51562v6.51563h-1.6875v-6.51563q-.0156-1.07812-.5-1.57812-.46875-.51563-1.48437-.51563-.8125 0-1.4375.4375-.60938.4375-.96875 1.15625v7.01563h-1.67188v-9.85938zm8.29371 4.84375q0-2.29687 1.0625-3.65625 1.0625-1.35937 2.82812-1.35937 1.79688 0 2.8125 1.26562l.0781-1.09375h1.54687v9.625q0 1.90625-1.14062 3-1.125 1.10938-3.04688 1.10938-1.0625 0-2.09375-.45313-1.01562-.45312-1.54687-1.25l.875-1q1.07812 1.32813 2.65625 1.32813 1.21875 0 1.90625-.6875.6875-.6875.6875-1.95313v-.84375q-1 1.17188-2.75 1.17188-1.73438 0-2.8125-1.39063-1.0625-1.40625-1.0625-3.8125zm1.6875.20313q0 1.65625.6875 2.60937.6875.95313 1.92187.95313 1.59375 0 2.32813-1.45313v-4.5q-.76563-1.40625-2.3125-1.40625-1.23438 0-1.9375.95313-.6875.95312-.6875 2.84375zm22.52282 2.48437 1.89063-7.53125h1.6875l-2.85938 9.85938h-1.375l-2.39062-7.46875-2.32813 7.46875h-1.375l-2.85937-9.85938h1.67187l1.95313 7.375 2.28125-7.375h1.35937zm4.84766-2.6875q0-1.45312.5625-2.60937.57812-1.15625 1.59375-1.78125 1.01562-.625 2.3125-.625 2.01562 0 3.25 1.39062 1.25 1.39063 1.25 3.70313v.125q0 1.4375-.54688 2.57812-.54687 1.14063-1.57812 1.78125-1.01563.64063-2.35938.64063-2 0-3.25-1.39063-1.23437-1.40625-1.23437-3.70312zm1.6875.20313q0 1.64062.76562 2.64062.76563.98438 2.03125.98438 1.29688 0 2.04688-1 .75-1.01563.75-2.82813 0-1.625-.76563-2.625-.76562-1.01562-2.04687-1.01562-1.25 0-2.01563 1-.76562.98437-.76562 2.84375zm14.17114-3.53125q-.39062-.0625-.84375-.0625-1.65625 0-2.25 1.40625v7h-1.67187v-9.85938h1.64062l.0156 1.14063q.82812-1.3125 2.35937-1.3125.48438 0 .75.125zm4.29724 3.78125-1.0625 1.09375v3.46875h-1.6875v-14h1.6875v8.46875l.90625-1.07813 3.0625-3.25h2.04688l-3.82813 4.125 4.28125 5.73438h-1.98437zm8.53382 4.5625h-1.6875v-14h1.6875zm4.5274 0h-1.6875v-9.85938h1.6875zm-1.82812-12.46875q0-.40625.25-.6875.25-.29688.73437-.29688.5 0 .75.29688.26563.28125.26563.6875 0 .40625-.26563.6875-.25.26562-.75.26562-.48437 0-.73437-.26562-.25-.28125-.25-.6875zm10.26178 9.85937q0-.6875-.51563-1.0625-.51562-.375-1.79687-.64062-1.28125-.28125-2.03125-.65625-.75-.39063-1.10938-.92188-.35937-.53125-.35937-1.26562 0-1.20313 1.01562-2.03125 1.03125-.84375 2.625-.84375 1.67188 0 2.71875.85937 1.04688.85938 1.04688 2.21875h-1.6875q0-.70312-.59375-1.20312-.59375-.5-1.48438-.5-.92187 0-1.4375.40625-.51562.39062-.51562 1.04687 0 .60938.48437.92188.48438.3125 1.73438.59375 1.26562.28125 2.04687.67187.78125.39063 1.15625.9375.39063.54688.39063 1.34375 0 1.32813-1.0625 2.125-1.04688.79688-2.73438.79688-1.1875 0-2.10937-.42188-.90625-.42187-1.42188-1.17187-.51562-.75-.51562-1.625h1.6875q.0469.84375.67187 1.34375.64063.5 1.6875.5.95313 0 1.53125-.39063.57813-.39062.57813-1.03125zm6.1665-9.64062v2.39062h1.84375v1.3125h-1.84375v6.10938q0 .59375.23437.89062.25.29688.84375.29688.29688 0 .8125-.10938v1.35938q-.67187.1875-1.29687.1875-1.125 0-1.70313-.6875-.57812-.6875-.57812-1.9375v-6.10938h-1.79688v-1.3125h1.79688v-2.39062z" fill="#434343"/></g><path d="m0 0h593.25061v213.57022h-593.25061z" stroke-width=".929316"/></svg>