<svg fill="none" height="212.03391" stroke-linecap="square" stroke-miterlimit="10" viewBox="0 0 594.4068 212.03391" width="594.4068" xmlns="http://www.w3.org/2000/svg" xmlns:xlink="http://www.w3.org/1999/xlink"><clipPath id="a"><path d="m0 0h1280v960h-1280z"/></clipPath><g clip-path="url(#a)" transform="translate(-215 -241.01694)"><path d="m0 0h1280v960h-1280z" fill="none"/><path d="m346.2021 305.1181 458.92914-.81888" fill="none"/><path d="m346.2021 305.1181 452.92914-.8082" fill-rule="evenodd" stroke="#000" stroke-dasharray="1 3" stroke-linecap="butt" stroke-linejoin="round"/><path d="m799.1342 305.96164 4.53509-1.65982-4.54101-1.64362z" fill="#000" fill-rule="evenodd" stroke="#000" stroke-linecap="butt"/><path d="m355.29922 242.80315h96.59842v52.40944h-96.59842z" fill="none"/><path d="m389.19284 259.0216q-2.25-.65625-3.28125-1.59375-1.03125-.9375-1.03125-2.32811 0-1.5625 1.25-2.59375 1.26562-1.03125 3.26562-1.03125 1.35938 0 2.4375.53125 1.07813.53125 1.65625 1.46875.59375.92188.59375 2.03125h-1.76562q0-1.20312-.76563-1.89062-.76562-.6875-2.15625-.6875-1.29687 0-2.01562.5625-.71875.5625-.71875 1.57812 0 .8125.6875 1.37498.6875.5625 2.32812 1.03125 1.65625.45313 2.59375 1.01563.9375.5625 1.375 1.3125.45313.75.45313 1.75 0 1.60937-1.25 2.59375-1.25.96875-3.35938.96875-1.375 0-2.5625-.51563-1.17187-.53125-1.8125-1.4375-.64062-.92187-.64062-2.07812h1.75q0 1.20312.89062 1.90625.89063.6875 2.375.6875 1.375 0 2.10938-.5625.75-.5625.75-1.53125 0-.98438-.6875-1.51563-.6875-.53125-2.46875-1.04687zm9.17743-6.34373v2.39062h1.84375v1.31248h-1.84375v6.10938q0 .59375.23437.89062.25.29688.84375.29688.29688 0 .8125-.10938v1.35938q-.67187.1875-1.29687.1875-1.125 0-1.70313-.6875-.57812-.6875-.57812-1.9375v-6.10938h-1.79688v-1.31248h1.79688v-2.39062zm9.89111 12.24998q-.14062-.29687-.23437-1.03125-1.17188 1.21875-2.8125 1.21875-1.45313 0-2.39063-.82812-.92187-.82813-.92187-2.09375 0-1.53125 1.15625-2.375 1.17187-.85938 3.29687-.85938h1.64063v-.78125q0-.89062-.53125-1.40625-.51563-.53125-1.54688-.53125-.90625 0-1.51562.46875-.60938.45313-.60938 1.09375h-1.70312q0-.73437.51562-1.42187.53125-.68749 1.42188-1.07811.90625-.40625 1.98437-.40625 1.70313 0 2.67188.85937.96875.84374 1 2.32811v4.53125q0 1.35938.34375 2.17188v.14062zm-2.79687-1.28125q.79687 0 1.5-.40625.71875-.42187 1.03125-1.07812v-2.01563h-1.3125q-3.10938 0-3.10938 1.8125 0 .79688.53125 1.25.53125.4375 1.35938.4375zm11.63235-7.0625q-.39062-.0625-.84375-.0625-1.65625 0-2.25 1.40625v7h-1.67187v-9.85936h1.64062l.0156 1.14061q.82812-1.31248 2.35937-1.31248.48438 0 .75.125zm3.82852-3.90623v2.39062h1.84375v1.31249h-1.84375v6.10937q0 .59375.23438.89063.25.29687.84375.29687.29687 0 .8125-.10937v1.35937q-.67188.1875-1.29688.1875-1.125 0-1.70312-.6875-.57813-.6875-.57813-1.9375v-6.10937h-1.79687v-1.31249h1.79687v-2.39062z" fill="#434343"/><path d="m372.67978 277.06848.0469 1.09375q1.07813-1.26562 2.92188-1.26562 2.0625 0 2.8125 1.57812.5-.71875 1.28125-1.14062.79687-.4375 1.85937-.4375 3.25 0 3.29688 3.42187v6.60938h-1.67188v-6.5q0-1.0625-.48437-1.57813-.48438-.53125-1.625-.53125-.9375 0-1.5625.5625-.60938.5625-.71875 1.5v6.54688h-1.6875v-6.45313q0-2.15625-2.10938-2.15625-1.65625 0-2.26562 1.40625v7.20313h-1.6875v-9.85938zm20.85156 9.85938q-.14062-.29688-.23437-1.03125-1.17188 1.21875-2.8125 1.21875-1.45313 0-2.39063-.82813-.92187-.82812-.92187-2.09375 0-1.53125 1.15625-2.375 1.17187-.85937 3.29687-.85937h1.64063v-.78125q0-.89063-.53125-1.40625-.51563-.53125-1.54688-.53125-.90625 0-1.51562.46875-.60938.45312-.60938 1.09375h-1.70312q0-.73438.51562-1.42188.53125-.6875 1.42188-1.07812.90625-.40625 1.98437-.40625 1.70313 0 2.67188.85937.96875.84375 1 2.32813v4.53125q0 1.35937.34375 2.17187v.14063zm-2.79687-1.28125q.79687 0 1.5-.40625.71875-.42188 1.03125-1.07813v-2.01562h-1.3125q-3.10938 0-3.10938 1.8125 0 .79687.53125 1.25.53125.4375 1.35938.4375zm11.63235-7.0625q-.39062-.0625-.84375-.0625-1.65625 0-2.25 1.40625v7h-1.67187v-9.85938h1.64062l.0156 1.14063q.82812-1.3125 2.35937-1.3125.48438 0 .75.125zm4.29724 3.78125-1.0625 1.09375v3.46875h-1.6875v-14h1.6875v8.46875l.90625-1.07813 3.0625-3.25h2.04688l-3.82813 4.125 4.28125 5.73438h-1.98437zm8.53379 4.5625h-1.6875v-9.85938h1.6875zm-1.82813-12.46875q0-.40625.25-.6875.25-.29688.73438-.29688.5 0 .75.29688.26562.28125.26562.6875 0 .40625-.26562.6875-.25.26562-.75.26562-.48438 0-.73438-.26562-.25-.28125-.25-.6875zm6.12119 2.60937.0469 1.23438q1.125-1.40625 2.95313-1.40625 3.125 0 3.15625 3.51562v6.51563h-1.6875v-6.51563q-.0156-1.07812-.5-1.57812-.46875-.51563-1.48438-.51563-.8125 0-1.4375.4375-.60937.4375-.96875 1.15625v7.01563h-1.67187v-9.85938zm8.29373 4.84375q0-2.29687 1.0625-3.65625 1.0625-1.35937 2.82812-1.35937 1.79688 0 2.8125 1.26562l.0781-1.09375h1.54687v9.625q0 1.90625-1.14062 3-1.125 1.10938-3.04688 1.10938-1.0625 0-2.09375-.45313-1.01562-.45312-1.54687-1.25l.875-1q1.07812 1.32813 2.65625 1.32813 1.21875 0 1.90625-.6875.6875-.6875.6875-1.95313v-.84375q-1 1.17188-2.75 1.17188-1.73438 0-2.8125-1.39063-1.0625-1.40625-1.0625-3.8125zm1.6875.20313q0 1.65625.6875 2.60937.6875.95313 1.92187.95313 1.59375 0 2.32813-1.45313v-4.5q-.76563-1.40625-2.3125-1.40625-1.23438 0-1.9375.95313-.6875.95312-.6875 2.84375z" fill="#434343"/><path d="m503.37796 242.80315h93.66928v52.40944h-93.66928z" fill="none"/><path d="m520.26337 251.66225 4.34375 10.82811 4.32812-10.82811h2.26563v13.26561h-1.75v-5.17188l.17187-5.56248-4.35937 10.73436h-1.34375l-4.34375-10.71873.17187 5.54685v5.17188h-1.73437v-13.26561zm19.85028 13.26561q-.14063-.29688-.23438-1.03125-1.17187 1.21875-2.8125 1.21875-1.45312 0-2.39062-.82813-.92188-.82812-.92188-2.09375 0-1.53125 1.15625-2.375 1.17188-.85937 3.29688-.85937h1.64062v-.78125q0-.89063-.53125-1.40625-.51562-.53125-1.54687-.53125-.90625 0-1.51563.46875-.60937.45312-.60937 1.09375h-1.70313q0-.73438.51563-1.42188.53125-.68748 1.42187-1.0781.90625-.40625 1.98438-.40625 1.70312 0 2.67187.85937.96875.84374 1 2.32811v4.53125q0 1.35937.34375 2.17187v.14063zm-2.79688-1.28125q.79688 0 1.5-.40625.71875-.42188 1.03125-1.07813v-2.01562h-1.3125q-3.10937 0-3.10937 1.8125 0 .79687.53125 1.25.53125.4375 1.35937.4375zm11.63233-7.0625q-.39063-.0625-.84375-.0625-1.65625 0-2.25 1.40625v7h-1.67188v-9.85936h1.64063l.0156 1.14061q.82813-1.31249 2.35938-1.31249.48437 0 .75.125zm4.29724 3.78125-1.0625 1.09375v3.46875h-1.6875v-13.99999h1.6875v8.46874l.90625-1.07813 3.0625-3.24998h2.04688l-3.82813 4.12498 4.28125 5.73438h-1.98437zm8.53381 4.5625h-1.6875v-9.85936h1.6875zm-1.82812-12.46874q0-.40625.25-.6875.25-.29687.73437-.29687.5 0 .75.29687.26563.28125.26563.6875 0 .40625-.26563.6875-.25.26563-.75.26563-.48437 0-.73437-.26563-.25-.28125-.25-.6875zm6.12115 2.60938.0469 1.23436q1.125-1.40624 2.95312-1.40624 3.125 0 3.15625 3.51561v6.51563h-1.6875v-6.51563q-.0156-1.07812-.5-1.57812-.46875-.51563-1.48437-.51563-.8125 0-1.4375.4375-.60938.4375-.96875 1.15625v7.01563h-1.67188v-9.85936zm8.29377 4.84373q0-2.29687 1.0625-3.65625 1.0625-1.35936 2.82812-1.35936 1.79688 0 2.8125 1.26561l.0781-1.09373h1.54687v9.62498q0 1.90625-1.14062 3-1.125 1.10938-3.04688 1.10938-1.0625 0-2.09375-.45313-1.01562-.45312-1.54687-1.25l.875-1q1.07812 1.32813 2.65625 1.32813 1.21875 0 1.90625-.6875.6875-.6875.6875-1.95313v-.84375q-1 1.17188-2.75 1.17188-1.73438 0-2.8125-1.39063-1.0625-1.40625-1.0625-3.8125zm1.6875.20313q0 1.65625.6875 2.60937.6875.95313 1.92187.95313 1.59375 0 2.32813-1.45313v-4.5q-.76563-1.40625-2.3125-1.40625-1.23438 0-1.9375.95313-.6875.95312-.6875 2.84375z" fill="#434343"/><path d="m539.196 284.31848q0-.6875-.51562-1.0625-.51563-.375-1.79688-.64062-1.28125-.28125-2.03125-.65625-.75-.39063-1.10937-.92188-.35938-.53125-.35938-1.26562 0-1.20313 1.01563-2.03125 1.03125-.84375 2.625-.84375 1.67187 0 2.71875.85937 1.04687.85938 1.04687 2.21875h-1.6875q0-.70312-.59375-1.20312-.59375-.5-1.48437-.5-.92188 0-1.4375.40625-.51563.39062-.51563 1.04687 0 .60938.48438.92188.48437.3125 1.73437.59375 1.26563.28125 2.04688.67187.78125.39063 1.15625.9375.39062.54688.39062 1.34375 0 1.32813-1.0625 2.125-1.04687.79688-2.73437.79688-1.1875 0-2.10938-.42188-.90625-.42187-1.42187-1.17187-.51563-.75-.51563-1.625h1.6875q.0469.84375.67188 1.34375.64062.5 1.6875.5.95312 0 1.53125-.39063.57812-.39062.57812-1.03125zm6.1665-9.64062v2.39062h1.84375v1.3125h-1.84375v6.10938q0 .59375.23438.89062.25.29688.84375.29688.29687 0 .8125-.10938v1.35938q-.67188.1875-1.29688.1875-1.125 0-1.70312-.6875-.57813-.6875-.57813-1.9375v-6.10938h-1.79687v-1.3125h1.79687v-2.39062zm7.89112 12.4375q-2 0-3.26563-1.3125-1.25-1.32813-1.25-3.53125v-.3125q0-1.46875.5625-2.60938.5625-1.15625 1.5625-1.79687 1.01563-.65625 2.1875-.65625 1.92188 0 2.98438 1.26562 1.0625 1.26563 1.0625 3.625v.6875h-6.67188q.0312 1.46875.84375 2.375.82813.89063 2.07813.89063.89062 0 1.51562-.35938.625-.375 1.07813-.96875l1.03125.79688q-1.23438 1.90625-3.71875 1.90625zm-.20313-8.84375q-1.01562 0-1.71875.75-.6875.73437-.84375 2.07812h4.9375v-.125q-.0781-1.28125-.70312-1.98437-.60938-.71875-1.67188-.71875zm14.32129 3.84375q0 2.25-1.03125 3.625-1.01562 1.375-2.78125 1.375-1.79687 0-2.82812-1.14063v4.75h-1.67188v-13.65625h1.53125l.0781 1.09375q1.03125-1.26562 2.85937-1.26562 1.78125 0 2.8125 1.34375 1.03125 1.32812 1.03125 3.71875zm-1.67187-.20313q0-1.65625-.71875-2.625-.70313-.96875-1.95313-.96875-1.53125 0-2.29687 1.35938v4.70312q.76562 1.35938 2.32812 1.35938 1.20313 0 1.92188-.95313.71875-.96875.71875-2.875z" fill="#434343"/><path d="m680.3202 242.80315h93.66931v52.40944h-93.66931z" fill="none"/><path d="m711.2364 259.06848h-5.57813v5.85938h-1.73437v-13.26561h8.20312v1.4375h-6.46875v4.54685h5.57813zm4.56195 5.85938h-1.6875v-9.85936h1.6875zm-1.82812-12.46874q0-.40625.25-.6875.25-.29687.73437-.29687.5 0 .75.29687.26563.28125.26563.6875 0 .40625-.26563.6875-.25.26563-.75.26563-.48437 0-.73437-.26563-.25-.28125-.25-.6875zm6.12115 2.60938.0469 1.23435q1.125-1.40623 2.95312-1.40623 3.125 0 3.15625 3.51561v6.51562h-1.6875v-6.51562q-.0156-1.07813-.5-1.57813-.46875-.51562-1.48437-.51562-.8125 0-1.4375.4375-.60938.4375-.96875 1.15625v7.01562h-1.67188v-9.85936zm10.52814 9.85936h-1.6875v-9.85936h1.6875zm-1.82813-12.46874q0-.40625.25-.6875.25-.29687.73438-.29687.5 0 .75.29687.26562.28125.26562.6875 0 .40625-.26562.6875-.25.26563-.75.26563-.48438 0-.73438-.26563-.25-.28125-.25-.6875zm10.26178 9.85936q0-.6875-.51562-1.0625-.51563-.375-1.79688-.64062-1.28125-.28125-2.03125-.65625-.75-.39063-1.10937-.92188-.35938-.53125-.35938-1.26562 0-1.20313 1.01563-2.03124 1.03125-.84375 2.625-.84375 1.67187 0 2.71875.85938 1.04687.85936 1.04687 2.21873h-1.6875q0-.70312-.59375-1.20312-.59375-.5-1.48437-.5-.92188 0-1.4375.40625-.51563.39062-.51563 1.04687 0 .60938.48438.92188.48437.3125 1.73437.59375 1.26563.28125 2.04688.67187.78125.39063 1.15625.9375.39062.54688.39062 1.34375 0 1.32813-1.0625 2.125-1.04687.79688-2.73437.79688-1.1875 0-2.10938-.42188-.90625-.42187-1.42187-1.17187-.51563-.75-.51563-1.625h1.6875q.0469.84375.67188 1.34375.64062.5 1.6875.5.95312 0 1.53125-.39063.57812-.39062.57812-1.03125zm5.55713-6.04687q1.125-1.37499 2.92188-1.37499 3.125 0 3.15625 3.51561v6.51563h-1.6875v-6.51563q-.0156-1.07812-.5-1.57812-.46875-.51563-1.48438-.51563-.8125 0-1.4375.4375-.60937.4375-.96875 1.15625v7.01563h-1.67187v-13.99999h1.67187z" fill="#434343"/><path d="m696.2362 277.06848.0469 1.09375q1.07812-1.26562 2.92187-1.26562 2.0625 0 2.8125 1.57812.5-.71875 1.28125-1.14062.79688-.4375 1.85938-.4375 3.25 0 3.29687 3.42187v6.60938h-1.67187v-6.5q0-1.0625-.48438-1.57813-.48437-.53125-1.625-.53125-.9375 0-1.5625.5625-.60937.5625-.71875 1.5v6.54688h-1.6875v-6.45313q0-2.15625-2.10937-2.15625-1.65625 0-2.26563 1.40625v7.20313h-1.6875v-9.85938zm20.85156 9.85938q-.14062-.29688-.23437-1.03125-1.17188 1.21875-2.8125 1.21875-1.45313 0-2.39063-.82813-.92187-.82812-.92187-2.09375 0-1.53125 1.15625-2.375 1.17187-.85937 3.29687-.85937h1.64063v-.78125q0-.89063-.53125-1.40625-.51563-.53125-1.54688-.53125-.90625 0-1.51562.46875-.60938.45312-.60938 1.09375h-1.70312q0-.73438.51562-1.42188.53125-.6875 1.42188-1.07812.90625-.40625 1.98437-.40625 1.70313 0 2.67188.85937.96875.84375 1 2.32813v4.53125q0 1.35937.34375 2.17187v.14063zm-2.79687-1.28125q.79687 0 1.5-.40625.71875-.42188 1.03125-1.07813v-2.01562h-1.3125q-3.10938 0-3.10938 1.8125 0 .79687.53125 1.25.53125.4375 1.35938.4375zm11.63232-7.0625q-.39062-.0625-.84375-.0625-1.65625 0-2.25 1.40625v7h-1.67187v-9.85938h1.64062l.0156 1.14063q.82812-1.3125 2.35937-1.3125.48438 0 .75.125zm4.2973 3.78125-1.0625 1.09375v3.46875h-1.6875v-14h1.6875v8.46875l.90625-1.07813 3.0625-3.25h2.04688l-3.82813 4.125 4.28125 5.73438h-1.98437zm8.53376 4.5625h-1.6875v-9.85938h1.6875zm-1.82813-12.46875q0-.40625.25-.6875.25-.29688.73438-.29688.5 0 .75.29688.26562.28125.26562.6875 0 .40625-.26562.6875-.25.26562-.75.26562-.48438 0-.73438-.26562-.25-.28125-.25-.6875zm6.12116 2.60937.0469 1.23438q1.125-1.40625 2.95313-1.40625 3.125 0 3.15625 3.51562v6.51563h-1.6875v-6.51563q-.0156-1.07812-.5-1.57812-.46875-.51563-1.48438-.51563-.8125 0-1.4375.4375-.60937.4375-.96875 1.15625v7.01563h-1.67187v-9.85938zm8.29376 4.84375q0-2.29687 1.0625-3.65625 1.0625-1.35937 2.82812-1.35937 1.79688 0 2.8125 1.26562l.0781-1.09375h1.54687v9.625q0 1.90625-1.14062 3-1.125 1.10938-3.04688 1.10938-1.0625 0-2.09375-.45313-1.01562-.45312-1.54687-1.25l.875-1q1.07812 1.32813 2.65625 1.32813 1.21875 0 1.90625-.6875.6875-.6875.6875-1.95313v-.84375q-1 1.17188-2.75 1.17188-1.73438 0-2.8125-1.39063-1.0625-1.40625-1.0625-3.8125zm1.6875.20313q0 1.65625.6875 2.60937.6875.95313 1.92187.95313 1.59375 0 2.32813-1.45313v-4.5q-.76563-1.40625-2.3125-1.40625-1.23438 0-1.9375.95313-.6875.95312-.6875 2.84375z" fill="#434343"/><path d="m440.0551 265.48032h62.80316v29.73227h-62.80316z" fill="none"/><path d="m467.86957 274.00082h1.76562v9.39062q0 1.90625-1.15625 2.98438-1.14062 1.07812-3.03125 1.07812-1.98437 0-3.09375-1.01562-1.09375-1.01563-1.09375-2.82813h1.75q0 1.14063.625 1.78125.625.625 1.8125.625 1.07813 0 1.75-.67187.67188-.6875.67188-1.92188zm8.65311 7.35937q-2.25-.65625-3.28125-1.59375-1.03125-.9375-1.03125-2.32812 0-1.5625 1.25-2.59375 1.26562-1.03125 3.26562-1.03125 1.35938 0 2.4375.53125 1.07813.53125 1.65625 1.46875.59375.92187.59375 2.03125h-1.76562q0-1.20313-.76563-1.89063-.76562-.6875-2.15625-.6875-1.29687 0-2.01562.5625-.71875.5625-.71875 1.57813 0 .8125.6875 1.375.6875.5625 2.32812 1.03125 1.65625.45312 2.59375 1.01562.9375.5625 1.375 1.3125.45313.75.45313 1.75 0 1.60938-1.25 2.59375-1.25.96875-3.35938.96875-1.375 0-2.5625-.51562-1.17187-.53125-1.8125-1.4375-.64062-.92188-.64062-2.07813h1.75q0 1.20313.89062 1.90625.89063.6875 2.375.6875 1.375 0 2.10938-.5625.75-.5625.75-1.53125 0-.98437-.6875-1.51562-.6875-.53125-2.46875-1.04688z" fill="#434343"/><path d="m597.23883 263.2546h62.80316v29.73227h-62.80316z" fill="none"/><path d="m625.0533 271.77512h1.76563v9.39063q0 1.90625-1.15625 2.98437-1.14063 1.07813-3.03125 1.07813-1.98438 0-3.09375-1.01563-1.09375-1.01562-1.09375-2.82812h1.75q0 1.14062.625 1.78125.625.625 1.8125.625 1.07812 0 1.75-.67188.67187-.6875.67187-1.92187zm8.65308 7.35938q-2.25-.65625-3.28125-1.59375-1.03125-.9375-1.03125-2.32813 0-1.5625 1.25-2.59375 1.26562-1.03125 3.26562-1.03125 1.35938 0 2.4375.53125 1.07813.53125 1.65625 1.46875.59375.92188.59375 2.03125h-1.76562q0-1.20312-.76563-1.89062-.76562-.6875-2.15625-.6875-1.29687 0-2.01562.5625-.71875.5625-.71875 1.57812 0 .8125.6875 1.375.6875.5625 2.32812 1.03125 1.65625.45313 2.59375 1.01563.9375.5625 1.375 1.3125.45313.75.45313 1.75 0 1.60937-1.25 2.59375-1.25.96875-3.35938.96875-1.375 0-2.5625-.51563-1.17187-.53125-1.8125-1.4375-.64056-.92187-.64056-2.07812h1.74994q0 1.20312.89062 1.90625.89063.6875 2.375.6875 1.375 0 2.10938-.5625.75-.5625.75-1.53125 0-.98438-.6875-1.51563-.6875-.53125-2.46875-1.04687z" fill="#434343"/><path d="m588.31494 304.20996h103.37012" fill="none"/><path d="m588.31494 304.20996h85.37012" fill-rule="evenodd" stroke="#93c47d" stroke-linecap="butt" stroke-linejoin="round" stroke-width="3"/><path d="m673.68506 309.16516 13.61426-4.9552-13.61426-4.95517z" fill="#93c47d" fill-rule="evenodd" stroke="#93c47d" stroke-linecap="butt" stroke-width="3"/><path d="m688.6667 304.2126h72" fill="none"/><path d="m688.6667 304.2126h54" fill-rule="evenodd" stroke="#e06666" stroke-linecap="butt" stroke-linejoin="round" stroke-width="3"/><path d="m742.6667 309.1678 13.61426-4.9552-13.61426-4.95517z" fill="#e06666" fill-rule="evenodd" stroke="#e06666" stroke-linecap="butt" stroke-width="3"/><path d="m514.2126 304.7139h72" fill="none"/><path d="m514.2126 304.7139h54" fill-rule="evenodd" stroke="#e06666" stroke-linecap="butt" stroke-linejoin="round" stroke-width="3"/><path d="m568.2126 309.6691 13.61432-4.9552-13.61432-4.95517z" fill="#e06666" fill-rule="evenodd" stroke="#e06666" stroke-linecap="butt" stroke-width="3"/><path d="m427.40945 305.20996h88.09451" fill="none"/><path d="m427.40945 305.20996h70.09448" fill-rule="evenodd" stroke="#93c47d" stroke-linecap="butt" stroke-linejoin="round" stroke-width="3"/><path d="m497.50394 310.16516 13.61429-4.9552-13.61429-4.95517z" fill="#93c47d" fill-rule="evenodd" stroke="#93c47d" stroke-linecap="butt" stroke-width="3"/><path d="m379 305.1076h49.19684" fill="none"/><path d="m379 305.1076h31.19684" fill-rule="evenodd" stroke="#e06666" stroke-linecap="butt" stroke-linejoin="round" stroke-width="3"/><path d="m410.19684 310.0628 13.61432-4.9552-13.61432-4.9552z" fill="#e06666" fill-rule="evenodd" stroke="#e06666" stroke-linecap="butt" stroke-width="3"/><path d="m216.66667 282.22046h129.00786v41.98425h-129.00786z" fill="none"/><path d="m240.35883 299.2811.0469 1.09375q1.07813-1.26563 2.92188-1.26563 2.0625 0 2.8125 1.57813.5-.71875 1.28125-1.14063.79687-.4375 1.85937-.4375 3.25 0 3.29688 3.42188v6.60937h-1.67188v-6.5q0-1.0625-.48437-1.57812-.48438-.53125-1.625-.53125-.9375 0-1.5625.5625-.60938.5625-.71875 1.5v6.54687h-1.6875v-6.45312q0-2.15625-2.10938-2.15625-1.65625 0-2.26562 1.40625v7.20312h-1.6875v-9.85937zm20.85153 9.85937q-.14062-.29687-.23437-1.03125-1.17188 1.21875-2.8125 1.21875-1.45313 0-2.39061-.82812-.92188-.82813-.92188-2.09375 0-1.53125 1.15624-2.375 1.17187-.85938 3.29687-.85938h1.64063v-.78125q0-.89062-.53125-1.40625-.51563-.53125-1.54688-.53125-.90625 0-1.51562.46875-.60938.45313-.60938 1.09375h-1.70311q0-.73437.51563-1.42187.53123-.6875 1.42186-1.07813.90625-.40625 1.98437-.40625 1.70313 0 2.67188.85938.96875.84375 1 2.32812v4.53125q0 1.35938.34375 2.17188v.14062zm-2.79687-1.28125q.79687 0 1.5-.40625.71875-.42187 1.03125-1.07812v-2.01563h-1.3125q-3.10938 0-3.10938 1.8125 0 .79688.53125 1.25.53125.4375 1.35938.4375zm8.69485 1.28125h-1.6875v-9.85937h1.6875zm-1.82812-12.46875q0-.40625.25-.6875.25-.29687.73437-.29687.5 0 .75.29687.26563.28125.26563.6875 0 .40625-.26563.6875-.25.26563-.75.26563-.48437 0-.73437-.26563-.25-.28125-.25-.6875zm6.12118 2.60938.0469 1.23437q1.125-1.40625 2.95312-1.40625 3.125 0 3.15625 3.51563v6.51562h-1.6875v-6.51562q-.0156-1.07813-.5-1.57813-.46875-.51562-1.48437-.51562-.8125 0-1.4375.4375-.60938.4375-.96875 1.15625v7.01562h-1.67188v-9.85937zm15.59973-2.39063v2.39063h1.84375v1.3125h-1.84375v6.10937q0 .59375.23438.89063.25.29687.84375.29687.29687 0 .8125-.10937v1.35937q-.67188.1875-1.29688.1875-1.125 0-1.70312-.6875-.57813-.6875-.57813-1.9375v-6.10937h-1.79687v-1.3125h1.79687v-2.39063zm5.4849 3.59375q1.125-1.375 2.92187-1.375 3.125 0 3.15625 3.51563v6.51562h-1.6875v-6.51562q-.0156-1.07813-.5-1.57813-.46875-.51562-1.48437-.51562-.8125 0-1.4375.4375-.60938.4375-.96875 1.15625v7.01562h-1.67188v-14h1.67188zm13.36926.3125q-.39062-.0625-.84375-.0625-1.65625 0-2.25 1.40625v7h-1.67187v-9.85937h1.64062l.0156 1.14062q.82812-1.3125 2.35937-1.3125.48438 0 .75.125zm5.62537 8.53125q-2 0-3.26563-1.3125-1.25-1.32812-1.25-3.53125v-.3125q0-1.46875.5625-2.60937.5625-1.15625 1.5625-1.79688 1.01563-.65625 2.1875-.65625 1.92188 0 2.98438 1.26563 1.0625 1.26562 1.0625 3.625v.6875h-6.67188q.0312 1.46875.84375 2.375.82813.89062 2.07813.89062.89062 0 1.51562-.35937.625-.375 1.07813-.96875l1.03125.79687q-1.23438 1.90625-3.71875 1.90625zm-.20313-8.84375q-1.01562 0-1.71875.75-.6875.73438-.84375 2.07813h4.9375v-.125q-.0781-1.28125-.70312-1.98438-.60938-.71875-1.67188-.71875zm12.08695 8.65625q-.14063-.29687-.23438-1.03125-1.17187 1.21875-2.8125 1.21875-1.45312 0-2.39062-.82812-.92188-.82813-.92188-2.09375 0-1.53125 1.15625-2.375 1.17188-.85938 3.29688-.85938h1.64062v-.78125q0-.89062-.53125-1.40625-.51562-.53125-1.54687-.53125-.90625 0-1.51563.46875-.60937.45313-.60937 1.09375h-1.70313q0-.73437.51563-1.42187.53125-.6875 1.42187-1.07813.90625-.40625 1.98438-.40625 1.70312 0 2.67187.85938.96875.84375 1 2.32812v4.53125q0 1.35938.34375 2.17188v.14062zm-2.79688-1.28125q.79688 0 1.5-.40625.71875-.42187 1.03125-1.07812v-2.01563h-1.3125q-3.10937 0-3.10937 1.8125 0 .79688.53125 1.25.53125.4375 1.35937.4375zm6.44486-3.73437q0-2.26563 1.07812-3.64063 1.07813-1.375 2.8125-1.375 1.73438 0 2.75 1.17188v-5.14063h1.6875v14h-1.54687l-.0937-1.0625q-1 1.25-2.8125 1.25-1.70313 0-2.79688-1.40625-1.07812-1.40625-1.07812-3.65625zm1.6875.20312q0 1.67188.6875 2.625.70312.9375 1.92187.9375 1.60938 0 2.34375-1.4375v-4.53125q-.76562-1.39062-2.32812-1.39062-1.23438 0-1.9375.95312-.6875.95313-.6875 2.84375z" fill="#434343"/><path d="m345.66666 370.2126h460.00003" fill="none"/><path d="m345.66666 370.2126h454.00003" fill-rule="evenodd" stroke="#000" stroke-dasharray="1 3" stroke-linecap="butt" stroke-linejoin="round"/><path d="m799.6667 371.86432 4.53809-1.65173-4.53809-1.65174z" fill="#000" fill-rule="evenodd" stroke="#000" stroke-linecap="butt"/><path d="m420.9895 332.48032h236v29.73227h-236z" fill="none"/><path d="m468.18704 350.06332q-.25 2.09375-1.5625 3.25-1.29687 1.14062-3.46875 1.14062-2.34375 0-3.76562-1.6875-1.42188-1.6875-1.42188-4.51562v-1.26563q0-1.85937.65625-3.25.67188-1.40625 1.875-2.15625 1.21875-.76562 2.8125-.76562 2.10938 0 3.39063 1.1875 1.28125 1.17187 1.48437 3.26562h-1.76562q-.21875-1.57812-.98438-2.28125-.76562-.71875-2.125-.71875-1.67187 0-2.625 1.23438-.95312 1.23437-.95312 3.53125v1.28125q0 2.15625.89062 3.4375.90625 1.26562 2.53125 1.26562 1.45313 0 2.23438-.65625.78125-.65625 1.03125-2.29687zm1.67419-.8125q0-1.45313.5625-2.60938.57813-1.15625 1.59375-1.78125 1.01563-.625 2.3125-.625 2.01563 0 3.25 1.39063 1.25 1.39062 1.25 3.70312v.125q0 1.4375-.54687 2.57813-.54688 1.14062-1.57813 1.78125-1.01562.64062-2.35937.64062-2 0-3.25-1.39062-1.23438-1.40625-1.23438-3.70313zm1.6875.20312q0 1.64063.76563 2.64063.76562.98437 2.03125.98437 1.29687 0 2.04687-1 .75-1.01562.75-2.82812 0-1.625-.76562-2.625-.76563-1.01563-2.04688-1.01563-1.25 0-2.01562 1-.76563.98438-.76563 2.84375zm10.99927-5.04687.0469 1.23437q1.125-1.40625 2.95312-1.40625 3.125 0 3.15625 3.51563v6.51562h-1.6875v-6.51562q-.0156-1.07813-.5-1.57813-.46875-.51562-1.48437-.51562-.8125 0-1.4375.4375-.60938.4375-.96875 1.15625v7.01562h-1.67188v-9.85937zm12.65311 8.67187q.89062 0 1.5625-.54687.6875-.54688.75-1.375h1.59375q-.0469.84375-.57813 1.60937-.53125.76563-1.4375 1.23438-.89062.45312-1.89062.45312-2.01563 0-3.20313-1.34375-1.1875-1.34375-1.1875-3.6875v-.28125q0-1.4375.51563-2.54687.53125-1.125 1.51562-1.73438 1-.625 2.34375-.625 1.65625 0 2.75 1 1.10938.98438 1.17188 2.5625h-1.59375q-.0625-.95312-.71875-1.5625-.65625-.625-1.60938-.625-1.28125 0-2 .92188-.70312.92187-.70312 2.67187v.32813q0 1.70312.70312 2.625.70313.92187 2.01563.92187zm11.89038.21875q-.98437 1.15625-2.89062 1.15625-1.57813 0-2.40625-.92187-.8125-.92188-.82813-2.70313v-6.42187h1.6875v6.375q0 2.23437 1.82813 2.23437 1.92187 0 2.5625-1.4375v-7.17187h1.6875v9.85937h-1.60938zm8.97211-7.375q-.39063-.0625-.84375-.0625-1.65625 0-2.25 1.40625v7h-1.67185v-9.85937h1.6406l.0156 1.14062q.82813-1.3125 2.35938-1.3125.48437 0 .75.125zm6.31292 0q-.39062-.0625-.84375-.0625-1.65625 0-2.25 1.40625v7h-1.67187v-9.85937h1.64062l.0156 1.14062q.82812-1.3125 2.35937-1.3125.48438 0 .75.125zm5.62537 8.53125q-2 0-3.26562-1.3125-1.25-1.32812-1.25-3.53125v-.3125q0-1.46875.5625-2.60937.5625-1.15625 1.5625-1.79688 1.01562-.65625 2.1875-.65625 1.92187 0 2.98437 1.26563 1.0625 1.26562 1.0625 3.625v.6875h-6.67187q.0312 1.46875.84375 2.375.82812.89062 2.07812.89062.89063 0 1.51563-.35937.625-.375 1.07812-.96875l1.03125.79687q-1.23437 1.90625-3.71875 1.90625zm-.20312-8.84375q-1.01563 0-1.71875.75-.6875.73438-.84375 2.07813h4.9375v-.125q-.0781-1.28125-.70313-1.98438-.60937-.71875-1.67187-.71875zm7.60253-1.20312.0469 1.23437q1.125-1.40625 2.95312-1.40625 3.125 0 3.15625 3.51563v6.51562h-1.6875v-6.51562q-.0156-1.07813-.5-1.57813-.46875-.51562-1.48437-.51562-.8125 0-1.4375.4375-.60938.4375-.96875 1.15625v7.01562h-1.67188v-9.85937zm10.98127-2.39063v2.39063h1.84375v1.3125h-1.84375v6.10937q0 .59375.23437.89063.25.29687.84375.29687.29688 0 .8125-.10937v1.35937q-.67187.1875-1.29687.1875-1.125 0-1.70313-.6875-.57812-.6875-.57812-1.9375v-6.10937h-1.79688v-1.3125h1.79688v-2.39063zm10.00958 2.39063.0469 1.09375q1.07813-1.26563 2.92188-1.26563 2.0625 0 2.8125 1.57813.5-.71875 1.28125-1.14063.79687-.4375 1.85937-.4375 3.25 0 3.29688 3.42188v6.60937h-1.67188v-6.5q0-1.0625-.48437-1.57812-.48438-.53125-1.625-.53125-.9375 0-1.5625.5625-.60938.5625-.71875 1.5v6.54687h-1.6875v-6.45312q0-2.15625-2.10938-2.15625-1.65625 0-2.26562 1.40625v7.20312h-1.6875v-9.85937zm20.85156 9.85937q-.14062-.29687-.23437-1.03125-1.17188 1.21875-2.8125 1.21875-1.45313 0-2.39063-.82812-.92187-.82813-.92187-2.09375 0-1.53125 1.15625-2.375 1.17187-.85938 3.29687-.85938h1.64063v-.78125q0-.89062-.53125-1.40625-.51563-.53125-1.54688-.53125-.90625 0-1.51562.46875-.60938.45313-.60938 1.09375h-1.70312q0-.73437.51562-1.42187.53125-.6875 1.42188-1.07813.90625-.40625 1.98437-.40625 1.70313 0 2.67188.85938.96875.84375 1 2.32812v4.53125q0 1.35938.34375 2.17188v.14062zm-2.79687-1.28125q.79687 0 1.5-.40625.71875-.42187 1.03125-1.07812v-2.01563h-1.3125q-3.10938 0-3.10938 1.8125 0 .79688.53125 1.25.53125.4375 1.35938.4375zm11.63238-7.0625q-.39062-.0625-.84375-.0625-1.65625 0-2.25 1.40625v7h-1.67187v-9.85937h1.64062l.0156 1.14062q.82812-1.3125 2.35937-1.3125.48438 0 .75.125zm4.29724 3.78125-1.0625 1.09375v3.46875h-1.6875v-14h1.6875v8.46875l.90625-1.07812 3.0625-3.25h2.04688l-3.82813 4.125 4.28125 5.73437h-1.98437zm8.53375 4.5625h-1.6875v-9.85937h1.6875zm-1.82812-12.46875q0-.40625.25-.6875.25-.29687.73437-.29687.5 0 .75.29687.26563.28125.26563.6875 0 .40625-.26563.6875-.25.26563-.75.26563-.48437 0-.73437-.26563-.25-.28125-.25-.6875zm6.12121 2.60938.0469 1.23437q1.125-1.40625 2.95312-1.40625 3.125 0 3.15625 3.51563v6.51562h-1.6875v-6.51562q-.0156-1.07813-.5-1.57813-.46875-.51562-1.48437-.51562-.8125 0-1.4375.4375-.60938.4375-.96875 1.15625v7.01562h-1.67188v-9.85937zm8.29371 4.84375q0-2.29688 1.0625-3.65625 1.0625-1.35938 2.82812-1.35938 1.79688 0 2.8125 1.26563l.0781-1.09375h1.54687v9.625q0 1.90625-1.14062 3-1.125 1.10937-3.04688 1.10937-1.0625 0-2.09375-.45312-1.01562-.45313-1.54687-1.25l.875-1q1.07812 1.32812 2.65625 1.32812 1.21875 0 1.90625-.6875.6875-.6875.6875-1.95312v-.84375q-1 1.17187-2.75 1.17187-1.73438 0-2.8125-1.39062-1.0625-1.40625-1.0625-3.8125zm1.6875.20312q0 1.65625.6875 2.60938.6875.95312 1.92187.95312 1.59375 0 2.32813-1.45312v-4.5q-.76563-1.40625-2.3125-1.40625-1.23438 0-1.9375.95312-.6875.95313-.6875 2.84375z" fill="#434343"/><path d="m450.70078 370.2126h208.09451" fill="none"/><path d="m450.70078 370.2126h190.09451" fill-rule="evenodd" stroke="#e06666" stroke-linecap="butt" stroke-linejoin="round" stroke-width="3"/><path d="m640.7953 375.1678 13.61426-4.9552-13.61426-4.95517z" fill="#e06666" fill-rule="evenodd" stroke="#e06666" stroke-linecap="butt" stroke-width="3"/><path d="m201.60104 349.22046h139.08661v41.98425h-139.08661z" fill="none"/><path d="m227.20862 373.81235 1.89062-7.53125h1.6875l-2.85937 9.85937h-1.375l-2.39063-7.46875-2.32812 7.46875h-1.375l-2.85938-9.85937h1.67188l1.95312 7.375 2.28125-7.375h1.35938zm4.84764-2.6875q0-1.45313.5625-2.60938.57813-1.15625 1.59375-1.78125 1.01563-.625 2.3125-.625 2.01563 0 3.25 1.39063 1.25 1.39062 1.25 3.70312v.125q0 1.4375-.54687 2.57813-.54688 1.14062-1.57813 1.78125-1.01562.64062-2.35937.64062-2 0-3.25-1.39062-1.23438-1.40625-1.23438-3.70313zm1.6875.20312q0 1.64063.76563 2.64063.76562.98437 2.03125.98437 1.29687 0 2.04687-1 .75-1.01562.75-2.82812 0-1.625-.76562-2.625-.76563-1.01563-2.04688-1.01563-1.25 0-2.01562 1-.76563.98438-.76563 2.84375zm14.17114-3.53125q-.39062-.0625-.84375-.0625-1.65625 0-2.25 1.40625v7h-1.67187v-9.85937h1.64062l.0156 1.14062q.82812-1.3125 2.35937-1.3125.48438 0 .75.125zm4.29726 3.78125-1.0625 1.09375v3.46875h-1.6875v-14h1.6875v8.46875l.90625-1.07812 3.0625-3.25h2.04688l-3.82813 4.125 4.28125 5.73437h-1.98437zm10.78378 4.75q-2 0-3.26562-1.3125-1.25-1.32812-1.25-3.53125v-.3125q0-1.46875.5625-2.60937.5625-1.15625 1.5625-1.79688 1.01562-.65625 2.1875-.65625 1.92187 0 2.98437 1.26563 1.0625 1.26562 1.0625 3.625v.6875h-6.67187q.0312 1.46875.84375 2.375.82812.89062 2.07812.89062.89063 0 1.51563-.35937.625-.375 1.07812-.96875l1.03125.79687q-1.23437 1.90625-3.71875 1.90625zm-.20312-8.84375q-1.01563 0-1.71875.75-.6875.73438-.84375 2.07813h4.9375v-.125q-.0781-1.28125-.70313-1.98438-.60937-.71875-1.67187-.71875zm10.77441.3125q-.39062-.0625-.84375-.0625-1.65625 0-2.25 1.40625v7h-1.67187v-9.85937h1.64062l.0156 1.14062q.82812-1.3125 2.35937-1.3125.48438 0 .75.125zm8.44702-3.90625v2.39063h1.84375v1.3125h-1.84375v6.10937q0 .59375.23438.89063.25.29687.84375.29687.29687 0 .8125-.10937v1.35937q-.67188.1875-1.29688.1875-1.125 0-1.70312-.6875-.57813-.6875-.57813-1.9375v-6.10937h-1.79687v-1.3125h1.79687v-2.39063zm5.4849 3.59375q1.125-1.375 2.92187-1.375 3.125 0 3.15625 3.51563v6.51562h-1.6875v-6.51562q-.0156-1.07813-.5-1.57813-.46875-.51562-1.48437-.51562-.8125 0-1.4375.4375-.60938.4375-.96875 1.15625v7.01562h-1.67188v-14h1.67188zm13.36926.3125q-.39062-.0625-.84375-.0625-1.65625 0-2.25 1.40625v7h-1.67187v-9.85937h1.64062l.0156 1.14062q.82812-1.3125 2.35937-1.3125.48438 0 .75.125zm5.62537 8.53125q-2 0-3.26563-1.3125-1.25-1.32812-1.25-3.53125v-.3125q0-1.46875.5625-2.60937.5625-1.15625 1.5625-1.79688 1.01563-.65625 2.1875-.65625 1.92188 0 2.98438 1.26563 1.0625 1.26562 1.0625 3.625v.6875h-6.67188q.0312 1.46875.84375 2.375.82813.89062 2.07813.89062.89062 0 1.51562-.35937.625-.375 1.07813-.96875l1.03125.79687q-1.23438 1.90625-3.71875 1.90625zm-.20313-8.84375q-1.01562 0-1.71875.75-.6875.73438-.84375 2.07813h4.9375v-.125q-.0781-1.28125-.70312-1.98438-.60938-.71875-1.67188-.71875zm12.08695 8.65625q-.14063-.29687-.23438-1.03125-1.17187 1.21875-2.8125 1.21875-1.45312 0-2.39062-.82812-.92188-.82813-.92188-2.09375 0-1.53125 1.15625-2.375 1.17188-.85938 3.29688-.85938h1.64062v-.78125q0-.89062-.53125-1.40625-.51562-.53125-1.54687-.53125-.90625 0-1.51563.46875-.60937.45313-.60937 1.09375h-1.70313q0-.73437.51563-1.42187.53125-.6875 1.42187-1.07813.90625-.40625 1.98438-.40625 1.70312 0 2.67187.85938.96875.84375 1 2.32812v4.53125q0 1.35938.34375 2.17188v.14062zm-2.79688-1.28125q.79688 0 1.5-.40625.71875-.42187 1.03125-1.07812v-2.01563h-1.3125q-3.10937 0-3.10937 1.8125 0 .79688.53125 1.25.53125.4375 1.35937.4375zm6.44486-3.73437q0-2.26563 1.07812-3.64063 1.07813-1.375 2.8125-1.375 1.73438 0 2.75 1.17188v-5.14063h1.6875v14h-1.54687l-.0937-1.0625q-1 1.25-2.8125 1.25-1.70313 0-2.79688-1.40625-1.07812-1.40625-1.07812-3.65625zm1.6875.20312q0 1.67188.6875 2.625.70312.9375 1.92187.9375 1.60938 0 2.34375-1.4375v-4.53125q-.76562-1.39062-2.32812-1.39062-1.23438 0-1.9375.95312-.6875.95313-.6875 2.84375z" fill="#434343"/><path d="m427.19946 307c0 15.74802 6 23.62204 12 31.49606 6 7.87403 12 15.74802 12 31.49607" fill="none"/><path d="m427.19946 307c0 15.74802 6 23.62204 12 31.49606 3 3.93701 6 7.87403 8.25 12.79529 1.125 2.46063 2.0625 5.1673 2.71875 8.2431.16406.76896.31055 1.56095.43802 2.37796.0637.40848.12265.82328.17667 1.24451.027.2106.0528.42285.0773.63675l.0223.20682" fill-rule="evenodd" stroke="#666" stroke-dasharray="1 3" stroke-linecap="butt" stroke-linejoin="round"/><path d="m449.2331 364.08777 1.88916 4.44449 1.40967-4.61902z" fill="#666" fill-rule="evenodd" stroke="#666" stroke-linecap="butt"/><path d="m658.09973 369.90027c0-15.92914 7.80316-23.89371 15.60632-31.85828s15.60626-15.92913 15.60626-31.85827" fill="none"/><path d="m658.09973 369.90027c0-15.92914 7.80316-23.89371 15.60632-31.85828 3.90155-3.98227 7.80316-7.96457 10.72931-12.94241 1.46308-2.48892 2.68231-5.22674 3.53583-8.33792.21338-.77777.40387-1.57889.56958-2.4053.0829-.41321.15955-.83274.2298-1.25882.0351-.21302.0687-.42771.10058-.64408l.0392-.2832" fill-rule="evenodd" stroke="#666" stroke-dasharray="1 3" stroke-linecap="butt" stroke-linejoin="round"/><path d="m690.5584 312.2809-1.34399-4.63858-1.95209 4.41727z" fill="#666" fill-rule="evenodd" stroke="#666" stroke-linecap="butt"/><path d="m345.66534 437.2126h460" fill="none"/><path d="m345.66534 437.2126h454" fill-rule="evenodd" stroke="#000" stroke-dasharray="1 3" stroke-linecap="butt" stroke-linejoin="round"/><path d="m799.66534 438.86432 4.53809-1.65173-4.53809-1.65174z" fill="#000" fill-rule="evenodd" stroke="#000" stroke-linecap="butt"/><path d="m420.9882 399.48032h235.99997v29.73227h-235.99997z" fill="none"/><path d="m468.18573 417.06332q-.25 2.09375-1.5625 3.25-1.29688 1.14062-3.46875 1.14062-2.34375 0-3.76563-1.6875-1.42187-1.6875-1.42187-4.51562v-1.26563q0-1.85937.65625-3.25.67187-1.40625 1.875-2.15625 1.21875-.76562 2.8125-.76562 2.10937 0 3.39062 1.1875 1.28125 1.17187 1.48438 3.26562h-1.76563q-.21875-1.57812-.98437-2.28125-.76563-.71875-2.125-.71875-1.67188 0-2.625 1.23438-.95313 1.23437-.95313 3.53125v1.28125q0 2.15625.89063 3.4375.90625 1.26562 2.53125 1.26562 1.45312 0 2.23437-.65625.78125-.65625 1.03125-2.29687zm1.67419-.8125q0-1.45313.5625-2.60938.57813-1.15625 1.59375-1.78125 1.01563-.625 2.3125-.625 2.01563 0 3.25 1.39063 1.25 1.39062 1.25 3.70312v.125q0 1.4375-.54687 2.57813-.54688 1.14062-1.57813 1.78125-1.01562.64062-2.35937.64062-2 0-3.25-1.39062-1.23438-1.40625-1.23438-3.70313zm1.6875.20312q0 1.64063.76563 2.64063.76562.98437 2.03125.98437 1.29687 0 2.04687-1 .75-1.01562.75-2.82812 0-1.625-.76562-2.625-.76563-1.01563-2.04688-1.01563-1.25 0-2.01562 1-.76563.98438-.76563 2.84375zm10.99927-5.04687.0469 1.23437q1.125-1.40625 2.95312-1.40625 3.125 0 3.15625 3.51563v6.51562h-1.6875v-6.51562q-.0156-1.07813-.5-1.57813-.46875-.51562-1.48437-.51562-.8125 0-1.4375.4375-.60938.4375-.96875 1.15625v7.01562h-1.67188v-9.85937zm12.65311 8.67187q.89062 0 1.5625-.54687.6875-.54688.75-1.375h1.59375q-.0469.84375-.57813 1.60937-.53125.76563-1.4375 1.23438-.89062.45312-1.89062.45312-2.01563 0-3.20313-1.34375-1.1875-1.34375-1.1875-3.6875v-.28125q0-1.4375.51563-2.54687.53125-1.125 1.51562-1.73438 1-.625 2.34375-.625 1.65625 0 2.75 1 1.10938.98438 1.17188 2.5625h-1.59375q-.0625-.95312-.71875-1.5625-.65625-.625-1.60938-.625-1.28125 0-2 .92188-.70312.92187-.70312 2.67187v.32813q0 1.70312.70312 2.625.70313.92187 2.01563.92187zm11.89038.21875q-.98437 1.15625-2.89062 1.15625-1.57813 0-2.40625-.92187-.8125-.92188-.82813-2.70313v-6.42187h1.6875v6.375q0 2.23437 1.82813 2.23437 1.92187 0 2.5625-1.4375v-7.17187h1.6875v9.85937h-1.60938zm8.97214-7.375q-.39063-.0625-.84375-.0625-1.65625 0-2.25 1.40625v7h-1.67188v-9.85937h1.64063l.0156 1.14062q.82813-1.3125 2.35938-1.3125.48437 0 .75.125zm6.31286 0q-.39062-.0625-.84375-.0625-1.65625 0-2.25 1.40625v7h-1.67187v-9.85937h1.64062l.0156 1.14062q.82812-1.3125 2.35937-1.3125.48438 0 .75.125zm5.62537 8.53125q-2 0-3.26563-1.3125-1.25-1.32812-1.25-3.53125v-.3125q0-1.46875.5625-2.60937.5625-1.15625 1.5625-1.79688 1.01563-.65625 2.1875-.65625 1.92188 0 2.98438 1.26563 1.0625 1.26562 1.0625 3.625v.6875h-6.67188q.0312 1.46875.84375 2.375.82813.89062 2.07813.89062.89062 0 1.51562-.35937.625-.375 1.07813-.96875l1.03125.79687q-1.23438 1.90625-3.71875 1.90625zm-.20313-8.84375q-1.01562 0-1.71875.75-.6875.73438-.84375 2.07813h4.9375v-.125q-.0781-1.28125-.70312-1.98438-.60938-.71875-1.67188-.71875zm7.6026-1.20312.0469 1.23437q1.125-1.40625 2.95312-1.40625 3.125 0 3.15625 3.51563v6.51562h-1.6875v-6.51562q-.0156-1.07813-.5-1.57813-.46875-.51562-1.48437-.51562-.8125 0-1.4375.4375-.60938.4375-.96875 1.15625v7.01562h-1.67188v-9.85937zm10.98121-2.39063v2.39063h1.84375v1.3125h-1.84375v6.10937q0 .59375.23437.89063.25.29687.84375.29687.29688 0 .8125-.10937v1.35937q-.67187.1875-1.29687.1875-1.125 0-1.70313-.6875-.57812-.6875-.57812-1.9375v-6.10937h-1.79688v-1.3125h1.79688v-2.39063zm10.00964 2.39063.0469 1.09375q1.07813-1.26563 2.92188-1.26563 2.0625 0 2.8125 1.57813.5-.71875 1.28125-1.14063.79687-.4375 1.85937-.4375 3.25 0 3.29688 3.42188v6.60937h-1.67188v-6.5q0-1.0625-.48437-1.57812-.48438-.53125-1.625-.53125-.9375 0-1.5625.5625-.60938.5625-.71875 1.5v6.54687h-1.6875v-6.45312q0-2.15625-2.10938-2.15625-1.65625 0-2.26562 1.40625v7.20312h-1.6875v-9.85937zm20.85156 9.85937q-.14062-.29687-.23437-1.03125-1.17188 1.21875-2.8125 1.21875-1.45313 0-2.39063-.82812-.92187-.82813-.92187-2.09375 0-1.53125 1.15625-2.375 1.17187-.85938 3.29687-.85938h1.64063v-.78125q0-.89062-.53125-1.40625-.51563-.53125-1.54688-.53125-.90625 0-1.51562.46875-.60938.45313-.60938 1.09375h-1.70312q0-.73437.51562-1.42187.53125-.6875 1.42188-1.07813.90625-.40625 1.98437-.40625 1.70313 0 2.67188.85938.96875.84375 1 2.32812v4.53125q0 1.35938.34375 2.17188v.14062zm-2.79687-1.28125q.79687 0 1.5-.40625.71875-.42187 1.03125-1.07812v-2.01563h-1.3125q-3.10938 0-3.10938 1.8125 0 .79688.53125 1.25.53125.4375 1.35938.4375zm11.63232-7.0625q-.39062-.0625-.84375-.0625-1.65625 0-2.25 1.40625v7h-1.67187v-9.85937h1.64062l.0156 1.14062q.82812-1.3125 2.35937-1.3125.48438 0 .75.125zm4.29724 3.78125-1.0625 1.09375v3.46875h-1.6875v-14h1.6875v8.46875l.90625-1.07812 3.0625-3.25h2.04688l-3.82813 4.125 4.28125 5.73437h-1.98437zm8.53381 4.5625h-1.6875v-9.85937h1.6875zm-1.82812-12.46875q0-.40625.25-.6875.25-.29687.73437-.29687.5 0 .75.29687.26563.28125.26563.6875 0 .40625-.26563.6875-.25.26563-.75.26563-.48437 0-.73437-.26563-.25-.28125-.25-.6875zm6.12115 2.60938.0469 1.23437q1.125-1.40625 2.95312-1.40625 3.125 0 3.15625 3.51563v6.51562h-1.6875v-6.51562q-.0156-1.07813-.5-1.57813-.46875-.51562-1.48437-.51562-.8125 0-1.4375.4375-.60938.4375-.96875 1.15625v7.01562h-1.67188v-9.85937zm8.29377 4.84375q0-2.29688 1.0625-3.65625 1.0625-1.35938 2.82812-1.35938 1.79688 0 2.8125 1.26563l.0781-1.09375h1.54687v9.625q0 1.90625-1.14062 3-1.125 1.10937-3.04688 1.10937-1.0625 0-2.09375-.45312-1.01562-.45313-1.54687-1.25l.875-1q1.07812 1.32812 2.65625 1.32812 1.21875 0 1.90625-.6875.6875-.6875.6875-1.95312v-.84375q-1 1.17187-2.75 1.17187-1.73438 0-2.8125-1.39062-1.0625-1.40625-1.0625-3.8125zm1.6875.20312q0 1.65625.6875 2.60938.6875.95312 1.92187.95312 1.59375 0 2.32813-1.45312v-4.5q-.76563-1.40625-2.3125-1.40625-1.23438 0-1.9375.95312-.6875.95313-.6875 2.84375z" fill="#434343"/><path d="m453.19946 437.2126h206.11023" fill="none"/><path d="m453.19946 437.2126h188.11023" fill-rule="evenodd" stroke="#e06666" stroke-linecap="butt" stroke-linejoin="round" stroke-width="3"/><path d="m641.3097 442.1678 13.61432-4.9552-13.61432-4.95517z" fill="#e06666" fill-rule="evenodd" stroke="#e06666" stroke-linecap="butt" stroke-width="3"/><path d="m201.59045 416.22046h139.08661v41.98425h-139.08661z" fill="none"/><path d="m227.19801 440.81235 1.89062-7.53125h1.6875l-2.85937 9.85937h-1.375l-2.39063-7.46875-2.32812 7.46875h-1.375l-2.85938-9.85937h1.67188l1.95312 7.375 2.28125-7.375h1.35938zm4.84764-2.6875q0-1.45313.5625-2.60938.57813-1.15625 1.59375-1.78125 1.01563-.625 2.3125-.625 2.01563 0 3.25 1.39063 1.25 1.39062 1.25 3.70312v.125q0 1.4375-.54687 2.57813-.54688 1.14062-1.57813 1.78125-1.01562.64062-2.35937.64062-2 0-3.25-1.39062-1.23438-1.40625-1.23438-3.70313zm1.6875.20312q0 1.64063.76563 2.64063.76562.98437 2.03125.98437 1.29687 0 2.04687-1 .75-1.01562.75-2.82812 0-1.625-.76562-2.625-.76563-1.01563-2.04688-1.01563-1.25 0-2.01562 1-.76563.98438-.76563 2.84375zm14.17114-3.53125q-.39062-.0625-.84375-.0625-1.65625 0-2.25 1.40625v7h-1.67187v-9.85937h1.64062l.0156 1.14062q.82812-1.3125 2.35937-1.3125.48438 0 .75.125zm4.29726 3.78125-1.0625 1.09375v3.46875h-1.6875v-14h1.6875v8.46875l.90625-1.07812 3.0625-3.25h2.04689l-3.82814 4.125 4.28127 5.73437h-1.98439zm10.7838 4.75q-2 0-3.26563-1.3125-1.25-1.32812-1.25-3.53125v-.3125q0-1.46875.5625-2.60937.5625-1.15625 1.5625-1.79688 1.01563-.65625 2.1875-.65625 1.92188 0 2.98438 1.26563 1.0625 1.26562 1.0625 3.625v.6875h-6.67188q.0312 1.46875.84375 2.375.82813.89062 2.07813.89062.89062 0 1.51562-.35937.625-.375 1.07813-.96875l1.03125.79687q-1.23438 1.90625-3.71875 1.90625zm-.20313-8.84375q-1.01562 0-1.71875.75-.6875.73438-.84375 2.07813h4.9375v-.125q-.0781-1.28125-.70312-1.98438-.60938-.71875-1.67188-.71875zm10.77442.3125q-.39063-.0625-.84375-.0625-1.65625 0-2.25 1.40625v7h-1.67188v-9.85937h1.64063l.0156 1.14062q.82813-1.3125 2.35938-1.3125.48437 0 .75.125zm8.44702-3.90625v2.39063h1.84375v1.3125h-1.84375v6.10937q0 .59375.23437.89063.25.29687.84375.29687.29688 0 .8125-.10937v1.35937q-.67187.1875-1.29687.1875-1.125 0-1.70313-.6875-.57812-.6875-.57812-1.9375v-6.10937h-1.79688v-1.3125h1.79688v-2.39063zm5.48489 3.59375q1.125-1.375 2.92188-1.375 3.125 0 3.15625 3.51563v6.51562h-1.6875v-6.51562q-.0156-1.07813-.5-1.57813-.46875-.51562-1.48438-.51562-.8125 0-1.4375.4375-.60937.4375-.96875 1.15625v7.01562h-1.67187v-14h1.67187zm13.36927.3125q-.39063-.0625-.84375-.0625-1.65625 0-2.25 1.40625v7h-1.67188v-9.85937h1.64063l.0156 1.14062q.82813-1.3125 2.35938-1.3125.48437 0 .75.125zm5.62536 8.53125q-2 0-3.26562-1.3125-1.25-1.32812-1.25-3.53125v-.3125q0-1.46875.5625-2.60937.5625-1.15625 1.5625-1.79688 1.01562-.65625 2.1875-.65625 1.92187 0 2.98437 1.26563 1.0625 1.26562 1.0625 3.625v.6875h-6.67187q.0312 1.46875.84375 2.375.82812.89062 2.07812.89062.89063 0 1.51563-.35937.625-.375 1.07812-.96875l1.03125.79687q-1.23437 1.90625-3.71875 1.90625zm-.20312-8.84375q-1.01563 0-1.71875.75-.6875.73438-.84375 2.07813h4.9375v-.125q-.0781-1.28125-.70313-1.98438-.60937-.71875-1.67187-.71875zm12.08694 8.65625q-.14062-.29687-.23437-1.03125-1.17188 1.21875-2.8125 1.21875-1.45313 0-2.39063-.82812-.92187-.82813-.92187-2.09375 0-1.53125 1.15625-2.375 1.17187-.85938 3.29687-.85938h1.64063v-.78125q0-.89062-.53125-1.40625-.51563-.53125-1.54688-.53125-.90625 0-1.51562.46875-.60938.45313-.60938 1.09375h-1.70312q0-.73437.51562-1.42187.53125-.6875 1.42188-1.07813.90625-.40625 1.98437-.40625 1.70313 0 2.67188.85938.96875.84375 1 2.32812v4.53125q0 1.35938.34375 2.17188v.14062zm-2.79687-1.28125q.79687 0 1.5-.40625.71875-.42187 1.03125-1.07812v-2.01563h-1.3125q-3.10938 0-3.10938 1.8125 0 .79688.53125 1.25.53125.4375 1.35938.4375zm6.44485-3.73437q0-2.26563 1.07813-3.64063 1.07812-1.375 2.8125-1.375 1.73437 0 2.75 1.17188v-5.14063h1.6875v14h-1.54688l-.0937-1.0625q-1 1.25-2.8125 1.25-1.70312 0-2.79687-1.40625-1.07813-1.40625-1.07813-3.65625zm1.6875.20312q0 1.67188.6875 2.625.70313.9375 1.92188.9375 1.60937 0 2.34375-1.4375v-4.53125q-.76563-1.39062-2.32813-1.39062-1.23437 0-1.9375.95312-.6875.95313-.6875 2.84375z" fill="#434343"/><path d="m426.70078 306.5013c0 32.62991 6.62994 48.94489 13.25986 65.25986 6.62991 16.31494 13.25982 32.62991 13.25982 65.25983" fill="none"/><path d="m426.70078 306.5013c0 32.62991 6.62994 48.94489 13.25986 65.25986 3.31497 8.15747 6.62991 16.31494 9.11615 26.51181 1.2431 5.09842 2.27902 10.70667 3.00418 17.07971.36258 3.18653.64746 6.56421.8417 10.16498.0486.90018.0914 1.8143.12848 2.74292.0185.46426.0356.93216.0511 1.40375l.0402 1.35714" fill-rule="evenodd" stroke="#666" stroke-dasharray="1 3" stroke-linecap="butt" stroke-linejoin="round"/><path d="m451.49078 431.043 1.71066 4.51621 1.59253-4.55921z" fill="#666" fill-rule="evenodd" stroke="#666" stroke-linecap="butt"/><path d="m658.09973 435.70078c0-30.24408 7.55121-45.36612 15.10236-60.48819 7.5512-15.12204 15.10235-30.24408 15.10235-60.48819" fill="none"/><path d="m658.09973 435.70078c0-30.24408 7.55121-45.36612 15.10236-60.48819 7.5512-15.12204 15.10235-30.24408 15.10235-60.48819" fill-rule="evenodd" stroke="#666" stroke-dasharray="1 3" stroke-linecap="butt" stroke-linejoin="round"/><path d="m691.15485 370.2126h72" fill="none"/><path d="m691.15485 370.2126h54" fill-rule="evenodd" stroke="#e06666" stroke-linecap="butt" stroke-linejoin="round" stroke-width="3"/><path d="m745.15485 375.1678 13.61432-4.9552-13.61432-4.95517z" fill="#e06666" fill-rule="evenodd" stroke="#e06666" stroke-linecap="butt" stroke-width="3"/><path d="m688.6667 437.2126h72" fill="none"/><path d="m688.6667 437.2126h54" fill-rule="evenodd" stroke="#e06666" stroke-linecap="butt" stroke-linejoin="round" stroke-width="3"/><path d="m742.6667 442.1678 13.61426-4.9552-13.61426-4.95517z" fill="#e06666" fill-rule="evenodd" stroke="#e06666" stroke-linecap="butt" stroke-width="3"/><path d="m680.3202 310.50787h93.66931v52.40945h-93.66931z" fill="none"/><path d="m699.5139 327.4451v5.1875h-1.73437v-13.26562h4.89062q2.17188 0 3.40625 1.10937 1.23438 1.10938 1.23438 2.95313 0 1.92187-1.21875 2.96875-1.20313 1.04687-3.45313 1.04687zm0-1.4375h3.15625q1.39063 0 2.14063-.65625.75-.65625.75-1.90625 0-1.1875-.75-1.89062-.75-.71875-2.04688-.75h-3.25zm15.84759 6.625q-.14062-.29687-.23437-1.03125-1.17188 1.21875-2.8125 1.21875-1.45313 0-2.39063-.82812-.92187-.82813-.92187-2.09375 0-1.53125 1.15625-2.375 1.17187-.85938 3.29687-.85938h1.64063v-.78125q0-.89062-.53125-1.40625-.51563-.53125-1.54688-.53125-.90625 0-1.51562.46875-.60938.45313-.60938 1.09375h-1.70312q0-.73437.51562-1.42187.53125-.6875 1.42188-1.07813.90625-.40625 1.98437-.40625 1.70313 0 2.67188.85938.96875.84375 1 2.32812v4.53125q0 1.35938.34375 2.17188v.14062zm-2.79687-1.28125q.79687 0 1.5-.40625.71875-.42187 1.03125-1.07812v-2.01563h-1.3125q-3.10938 0-3.10938 1.8125 0 .79688.53125 1.25.53125.4375 1.35938.4375zm11.63238-7.0625q-.39062-.0625-.84375-.0625-1.65625 0-2.25 1.40625v7h-1.67187v-9.85937h1.64062l.0156 1.14062q.82812-1.3125 2.35937-1.3125.48438 0 .75.125zm7.62537 8.34375q-.14062-.29687-.23437-1.03125-1.17188 1.21875-2.8125 1.21875-1.45313 0-2.39063-.82812-.92187-.82813-.92187-2.09375 0-1.53125 1.15625-2.375 1.17187-.85938 3.29687-.85938h1.64063v-.78125q0-.89062-.53125-1.40625-.51563-.53125-1.54688-.53125-.90625 0-1.51562.46875-.60938.45313-.60938 1.09375h-1.70312q0-.73437.51562-1.42187.53125-.6875 1.42188-1.07813.90625-.40625 1.98437-.40625 1.70313 0 2.67188.85938.96875.84375 1 2.32812v4.53125q0 1.35938.34375 2.17188v.14062zm-2.79687-1.28125q.79687 0 1.5-.40625.71875-.42187 1.03125-1.07812v-2.01563h-1.3125q-3.10938 0-3.10938 1.8125 0 .79688.53125 1.25.53125.4375 1.35938.4375zm8.69482 1.28125h-1.6875v-14h1.6875zm4.52747 0h-1.6875v-14h1.6875zm6.7774.1875q-2 0-3.26562-1.3125-1.25-1.32812-1.25-3.53125v-.3125q0-1.46875.5625-2.60937.5625-1.15625 1.5625-1.79688 1.01562-.65625 2.1875-.65625 1.92187 0 2.98437 1.26563 1.0625 1.26562 1.0625 3.625v.6875h-6.67187q.0312 1.46875.84375 2.375.82812.89062 2.07812.89062.89063 0 1.51563-.35937.625-.375 1.07812-.96875l1.03125.79687q-1.23437 1.90625-3.71875 1.90625zm-.20312-8.84375q-1.01563 0-1.71875.75-.6875.73438-.84375 2.07813h4.9375v-.125q-.0781-1.28125-.70313-1.98438-.60937-.71875-1.67187-.71875zm7.83691 8.65625h-1.6875v-14h1.6875z" fill="#434343"/><path d="m696.2362 344.77322.0469 1.09375q1.07812-1.26563 2.92187-1.26563 2.0625 0 2.8125 1.57813.5-.71875 1.28125-1.14063.79688-.4375 1.85938-.4375 3.25 0 3.29687 3.42188v6.60937h-1.67187v-6.5q0-1.0625-.48438-1.57812-.48437-.53125-1.625-.53125-.9375 0-1.5625.5625-.60937.5625-.71875 1.5v6.54687h-1.6875v-6.45312q0-2.15625-2.10937-2.15625-1.65625 0-2.26563 1.40625v7.20312h-1.6875v-9.85937zm20.85156 9.85937q-.14062-.29687-.23437-1.03125-1.17188 1.21875-2.8125 1.21875-1.45313 0-2.39063-.82812-.92187-.82813-.92187-2.09375 0-1.53125 1.15625-2.375 1.17187-.85938 3.29687-.85938h1.64063v-.78125q0-.89062-.53125-1.40625-.51563-.53125-1.54688-.53125-.90625 0-1.51562.46875-.60938.45313-.60938 1.09375h-1.70312q0-.73437.51562-1.42187.53125-.6875 1.42188-1.07813.90625-.40625 1.98437-.40625 1.70313 0 2.67188.85938.96875.84375 1 2.32812v4.53125q0 1.35938.34375 2.17188v.14062zm-2.79687-1.28125q.79687 0 1.5-.40625.71875-.42187 1.03125-1.07812v-2.01563h-1.3125q-3.10938 0-3.10938 1.8125 0 .79688.53125 1.25.53125.4375 1.35938.4375zm11.63232-7.0625q-.39062-.0625-.84375-.0625-1.65625 0-2.25 1.40625v7h-1.67187v-9.85937h1.64062l.0156 1.14062q.82812-1.3125 2.35937-1.3125.48438 0 .75.125zm4.2973 3.78125-1.0625 1.09375v3.46875h-1.6875v-14h1.6875v8.46875l.90625-1.07812 3.0625-3.25h2.04688l-3.82813 4.125 4.28125 5.73437h-1.98437zm8.53376 4.5625h-1.6875v-9.85937h1.6875zm-1.82813-12.46875q0-.40625.25-.6875.25-.29687.73438-.29687.5 0 .75.29687.26562.28125.26562.6875 0 .40625-.26562.6875-.25.26563-.75.26563-.48438 0-.73438-.26563-.25-.28125-.25-.6875zm6.12116 2.60938.0469 1.23437q1.125-1.40625 2.95313-1.40625 3.125 0 3.15625 3.51563v6.51562h-1.6875v-6.51562q-.0156-1.07813-.5-1.57813-.46875-.51562-1.48438-.51562-.8125 0-1.4375.4375-.60937.4375-.96875 1.15625v7.01562h-1.67187v-9.85937zm8.29376 4.84375q0-2.29688 1.0625-3.65625 1.0625-1.35938 2.82812-1.35938 1.79688 0 2.8125 1.26563l.0781-1.09375h1.54687v9.625q0 1.90625-1.14062 3-1.125 1.10937-3.04688 1.10937-1.0625 0-2.09375-.45312-1.01562-.45313-1.54687-1.25l.875-1q1.07812 1.32812 2.65625 1.32812 1.21875 0 1.90625-.6875.6875-.6875.6875-1.95312v-.84375q-1 1.17187-2.75 1.17187-1.73438 0-2.8125-1.39062-1.0625-1.40625-1.0625-3.8125zm1.6875.20312q0 1.65625.6875 2.60938.6875.95312 1.92187.95312 1.59375 0 2.32813-1.45312v-4.5q-.76563-1.40625-2.3125-1.40625-1.23438 0-1.9375.95312-.6875.95313-.6875 2.84375z" fill="#434343"/><path d="m677.83203 380.8701h93.66931v52.40945h-93.66931z" fill="none"/><g fill="#434343"><path d="m697.02576 397.8073v5.1875h-1.73438v-13.26563h4.89063q2.17187 0 3.40625 1.10938 1.23437 1.10937 1.23437 2.95312 0 1.92188-1.21875 2.96875-1.20312 1.04688-3.45312 1.04688zm0-1.4375h3.15625q1.39062 0 2.14062-.65625.75-.65625.75-1.90625 0-1.1875-.75-1.89063-.75-.71875-2.04687-.75h-3.25zm15.84759 6.625q-.14062-.29688-.23437-1.03125-1.17188 1.21875-2.8125 1.21875-1.45313 0-2.39063-.82813-.92187-.82812-.92187-2.09375 0-1.53125 1.15625-2.375 1.17187-.85937 3.29687-.85937h1.64063v-.78125q0-.89063-.53125-1.40625-.51563-.53125-1.54688-.53125-.90625 0-1.51562.46875-.60938.45312-.60938 1.09375h-1.70312q0-.73438.51562-1.42188.53125-.6875 1.42188-1.07812.90625-.40625 1.98437-.40625 1.70313 0 2.67188.85937.96875.84375 1 2.32813v4.53125q0 1.35937.34375 2.17187v.14063zm-2.79687-1.28125q.79687 0 1.5-.40625.71875-.42188 1.03125-1.07813v-2.01562h-1.3125q-3.10938 0-3.10938 1.8125 0 .79687.53125 1.25.53125.4375 1.35938.4375zm11.63232-7.0625q-.39062-.0625-.84375-.0625-1.65625 0-2.25 1.40625v7h-1.67187v-9.85938h1.64062l.0156 1.14063q.82812-1.3125 2.35937-1.3125.48438 0 .75.125zm7.62537 8.34375q-.14063-.29688-.23438-1.03125-1.17187 1.21875-2.8125 1.21875-1.45312 0-2.39062-.82813-.92188-.82812-.92188-2.09375 0-1.53125 1.15625-2.375 1.17188-.85937 3.29688-.85937h1.64062v-.78125q0-.89063-.53125-1.40625-.51562-.53125-1.54687-.53125-.90625 0-1.51563.46875-.60937.45312-.60937 1.09375h-1.70313q0-.73438.51563-1.42188.53125-.6875 1.42187-1.07812.90625-.40625 1.98438-.40625 1.70312 0 2.67187.85937.96875.84375 1 2.32813v4.53125q0 1.35937.34375 2.17187v.14063zm-2.79688-1.28125q.79688 0 1.5-.40625.71875-.42188 1.03125-1.07813v-2.01562h-1.3125q-3.10937 0-3.10937 1.8125 0 .79687.53125 1.25.53125.4375 1.35937.4375zm8.69489 1.28125h-1.6875v-14h1.6875zm4.52741 0h-1.6875v-14h1.6875zm6.7774.1875q-2 0-3.26562-1.3125-1.25-1.32813-1.25-3.53125v-.3125q0-1.46875.5625-2.60938.5625-1.15625 1.5625-1.79687 1.01562-.65625 2.1875-.65625 1.92187 0 2.98437 1.26562 1.0625 1.26563 1.0625 3.625v.6875h-6.67187q.0312 1.46875.84375 2.375.82812.89063 2.07812.89063.89063 0 1.51563-.35938.625-.375 1.07812-.96875l1.03125.79688q-1.23437 1.90625-3.71875 1.90625zm-.20312-8.84375q-1.01563 0-1.71875.75-.6875.73437-.84375 2.07812h4.9375v-.125q-.0781-1.28125-.70313-1.98437-.60937-.71875-1.67187-.71875zm7.83697 8.65625h-1.6875v-14h1.6875z"/><path d="m693.74805 415.13544.0469 1.09375q1.07812-1.26562 2.92187-1.26562 2.0625 0 2.8125 1.57812.5-.71875 1.28125-1.14062.79688-.4375 1.85938-.4375 3.25 0 3.29687 3.42187v6.60938h-1.67187v-6.5q0-1.0625-.48438-1.57813-.48437-.53125-1.625-.53125-.9375 0-1.5625.5625-.60937.5625-.71875 1.5v6.54688h-1.6875v-6.45313q0-2.15625-2.10937-2.15625-1.65625 0-2.26563 1.40625v7.20313h-1.6875v-9.85938zm20.8515 9.85938q-.14062-.29688-.23437-1.03125-1.17188 1.21875-2.8125 1.21875-1.45313 0-2.39063-.82813-.92187-.82812-.92187-2.09375 0-1.53125 1.15625-2.375 1.17187-.85937 3.29687-.85937h1.64063v-.78125q0-.89063-.53125-1.40625-.51563-.53125-1.54688-.53125-.90625 0-1.51562.46875-.60938.45312-.60938 1.09375h-1.70312q0-.73438.51562-1.42188.53125-.6875 1.42188-1.07812.90625-.40625 1.98437-.40625 1.70313 0 2.67188.85937.96875.84375 1 2.32813v4.53125q0 1.35937.34375 2.17187v.14063zm-2.79687-1.28125q.79687 0 1.5-.40625.71875-.42188 1.03125-1.07813v-2.01562h-1.3125q-3.10938 0-3.10938 1.8125 0 .79687.53125 1.25.53125.4375 1.35938.4375zm11.63238-7.0625q-.39062-.0625-.84375-.0625-1.65625 0-2.25 1.40625v7h-1.67187v-9.85938h1.64062l.0156 1.14063q.82812-1.3125 2.35937-1.3125.48438 0 .75.125zm4.29724 3.78125-1.0625 1.09375v3.46875h-1.6875v-14h1.6875v8.46875l.90625-1.07813 3.0625-3.25h2.04688l-3.82813 4.125 4.28125 5.73438h-1.98437zm8.53382 4.5625h-1.6875v-9.85938h1.6875zm-1.82813-12.46875q0-.40625.25-.6875.25-.29688.73438-.29688.5 0 .75.29688.26562.28125.26562.6875 0 .40625-.26562.6875-.25.26562-.75.26562-.48438 0-.73438-.26562-.25-.28125-.25-.6875zm6.12116 2.60937.0469 1.23438q1.125-1.40625 2.95313-1.40625 3.125 0 3.15625 3.51562v6.51563h-1.6875v-6.51563q-.0156-1.07812-.5-1.57812-.46875-.51563-1.48438-.51563-.8125 0-1.4375.4375-.60937.4375-.96875 1.15625v7.01563h-1.67187v-9.85938zm8.2937 4.84375q0-2.29687 1.0625-3.65625 1.0625-1.35937 2.82812-1.35937 1.79688 0 2.8125 1.26562l.0781-1.09375h1.54687v9.625q0 1.90625-1.14062 3-1.125 1.10938-3.04688 1.10938-1.0625 0-2.09375-.45313-1.01562-.45312-1.54687-1.25l.875-1q1.07812 1.32813 2.65625 1.32813 1.21875 0 1.90625-.6875.6875-.6875.6875-1.95313v-.84375q-1 1.17188-2.75 1.17188-1.73438 0-2.8125-1.39063-1.0625-1.40625-1.0625-3.8125zm1.6875.20313q0 1.65625.6875 2.60937.6875.95313 1.92187.95313 1.59375 0 2.32813-1.45313v-4.5q-.76563-1.40625-2.3125-1.40625-1.23438 0-1.9375.95313-.6875.95312-.6875 2.84375z"/></g></g><path d="m0 0h594.4068v212.03391h-594.4068z" stroke-width=".922323"/></svg>