<svg fill="none" height="287" stroke-linecap="square" stroke-miterlimit="10" width="464" xmlns="http://www.w3.org/2000/svg" xmlns:xlink="http://www.w3.org/1999/xlink"><clipPath id="a"><path d="m74.35 46.417h375.3v185.733h-375.3z"/></clipPath><path d="m0 0h464v287h-464z" fill="#fff"/><path d="m74.5 232.5h375" stroke="#333" stroke-linecap="butt"/><path d="m74.5 170.5h375m-375-62h375m-375-62h375" stroke="#ccc" stroke-linecap="butt"/><path clip-path="url(#a)" d="m261 232h-89v-117a2 2 0 0 1 2-2h85a2 2 0 0 1 2 2z"/><path clip-path="url(#a)" d="m261 232h-89v-117a2 2 0 0 1 2-2h85a2 2 0 0 1 2 2z" fill="#4285f4"/><path clip-path="url(#a)" d="m351 232h-89v-166a2 2 0 0 1 2-2h85a2 2 0 0 1 2 2z"/><path clip-path="url(#a)" d="m351 232h-89v-166a2 2 0 0 1 2-2h85a2 2 0 0 1 2 2z" fill="#6aa84f"/><path d="m204.281 271.353-.61-.422q.548-.765.579-1.594v-.968h1.063v.843q0 .594-.297 1.188t-.735.953zm2.063-2.266q0-.28.156-.468.172-.188.5-.188.344 0 .516.188.172.187.172.468 0 .266-.172.454-.172.171-.516.171-.328 0-.5-.171-.156-.188-.156-.454zm5.219-8.296h-1.11v9.796h1.11v.891h-2.204v-11.578h2.203v.89zm-.016-.891h2.219v11.578h-2.22v-.89h1.142v-9.797h-1.141zm3.734 6.281q0-1.312.344-2.531.36-1.219 1.063-2.219.703-1 1.468-1.406l.219.719q-.86.656-1.406 2-.547 1.343-.594 3.015l-.016.5q0 2.266.828 3.922.5 1 1.188 1.563l-.219.656q-.781-.422-1.5-1.453-1.375-1.985-1.375-4.766zm6.547.063q0 1.312-.344 2.515-.343 1.188-1.062 2.203-.703 1.016-1.469 1.438l-.234-.656q.906-.688 1.453-2.14.547-1.47.562-3.235v-.188q0-1.234-.265-2.297-.25-1.062-.719-1.89-.453-.844-1.031-1.313l.234-.656q.766.422 1.469 1.422.703 1 1.047 2.219.36 1.203.36 2.578zm4.375 5.547q-1.031-.282-1.562-.954-.516-.671-.516-1.78v-1.173q0-1.422-1.25-1.422v-.843q1.25 0 1.25-1.422v-1.219q0-1.062.516-1.719.515-.672 1.562-.968l.219.671q-1.219.391-1.219 2.047v1.188q0 1.328-.984 1.844.984.53.984 1.875v1.203q.016 1.61 1.219 2zm.406-.672q1.188-.375 1.235-1.938v-1.297q0-1.343 1.062-1.843-1.062-.47-1.062-1.844v-1.188q0-1.656-1.219-2.047l.219-.671q1.031.296 1.547.953.53.656.53 1.75v1.218q0 1.407 1.25 1.407v.843q-1.25 0-1.25 1.422v1.188q0 1.11-.53 1.765-.532.672-1.547.954zm8.625-1.469q-.093-.188-.156-.672-.75.797-1.797.797-.937 0-1.547-.531-.593-.532-.593-1.36 0-.984.75-1.53.75-.548 2.125-.548h1.047v-.5q0-.562-.344-.89-.328-.344-1-.344-.578 0-.969.297-.39.281-.39.703h-1.094q0-.485.328-.922.344-.438.922-.688.578-.265 1.265-.265 1.11 0 1.719.547.625.547.656 1.5v2.922q0 .875.219 1.39v.094h-1.14zm-1.797-.828q.516 0 .97-.266.452-.265.655-.687v-1.297h-.843q-2 0-2 1.172 0 .5.344.797.343.28.875.28zm5.688-7.375-.172 2.094h-.656v-2.891h.828zm1.578 0-.172 2.094h-.656l.016-2.891h.812zm2.422 0-.172 2.094h-.656v-2.891h.828zm1.578 0-.172 2.094h-.656l.016-2.891h.812zm3.875 5.015h-2.86v-.875h2.86zm3.844-1.39h2.39v1.031h-2.39v2.688h-1.078v-2.688h-2.39v-1.031h2.39v-2.485h1.078zm5.578-2.516-1.11 2.828h-1.015l1.75-4.265h.75l1.75 4.265h-1.016zm4.438 1.328-1.766-.515.265-.89 1.766.655-.047-2.015h.89l-.062 2.047 1.75-.641.266.89-1.797.532 1.156 1.578-.718.563-1.094-1.688-1.063 1.64-.734-.53zm3.671-1.125q0-.765.485-1.265.5-.5 1.265-.5.782 0 1.266.5t.484 1.297v.421q0 .766-.5 1.266-.484.484-1.234.484-.766 0-1.266-.484-.5-.5-.5-1.312zm.813.453q0 .454.25.75.265.297.703.297.422 0 .672-.28.25-.298.25-.798v-.422q0-.453-.25-.75-.25-.312-.688-.312-.437 0-.687.312-.25.297-.25.766v.438zm3.344 4.344q0-.765.484-1.25.5-.5 1.266-.5.765 0 1.25.5.5.485.5 1.297v.406q0 .766-.485 1.266-.484.5-1.25.5-.765 0-1.265-.484-.5-.5-.5-1.313zm.812.453q0 .47.25.766.266.297.703.297.422 0 .672-.281.25-.297.25-.797v-.438q0-.469-.265-.75-.25-.297-.672-.297-.422 0-.688.297-.25.281-.25.781zm-2.953 1-.625-.39 4.172-6.672.61.39zm12.156-4.125h-4.89v-.953h4.89zm0 2.422h-4.89v-.937h4.89zm3.25-.062h-.969l-.078-6.125h1.125zm-1.094 1.86q0-.267.157-.438.172-.188.484-.188.313 0 .469.188.172.171.172.437t-.172.438q-.156.171-.469.171-.312 0-.484-.171-.156-.172-.156-.438zm4.844-6.735h-.937l-1.516-1.719h1.313zm4 0h-.937l-1.516-1.719h1.313zm3.313 4.875q.015-.688.156-1.094.14-.406.594-.906l.765-.782q.5-.562.5-1.203 0-.609-.328-.953-.312-.36-.937-.36-.594 0-.953.329-.36.313-.36.844h-1.094q.016-.953.672-1.532.672-.593 1.735-.593 1.11 0 1.719.61.625.593.625 1.624 0 1.031-.938 2.016l-.64.64q-.438.47-.438 1.36zm-.047 1.86q0-.267.156-.438.172-.188.485-.188.312 0 .468.188.172.171.172.437t-.172.438q-.156.171-.469.171-.312 0-.484-.171-.156-.172-.156-.438zm4.984 1.28h-.922l3.563-9.265h.922zm4.813-1.297q0-.28.156-.468.172-.188.5-.188.344 0 .516.188.171.187.171.468 0 .266-.171.454-.172.171-.516.171-.328 0-.5-.171-.156-.188-.156-.454zm6.812-3.25-3.875-1.515v-1.11l5.016 2.22v.843l-5.016 2.219v-1.125zm2.89.032 3.673 1.484v1.156l-4.797-2.218v-.86l4.797-2.219v1.157l-3.672 1.5zm5.235 5.484-.61-.422q.548-.765.579-1.594v-.968h1.063v.843q0 .594-.297 1.188t-.735.953zm-301.462-120.507 6.953-2.797-6.953-2.781v-1.47h8.531v1.126h-3.328l-3.578-.11 6.906 2.813v.86l-6.89 2.796 3.562-.109h3.328v1.125h-8.531zm8.531-8.547h-8.531v-2.797q0-1.39.578-2.078.562-.703 1.687-.703.61 0 1.078.344.454.328.704.921.187-.703.734-1.093.531-.407 1.281-.407 1.156 0 1.813.75.656.735.656 2.094zm-3.984-1.125h3.062v-1.86q0-.796-.406-1.25-.406-.453-1.125-.453-1.531 0-1.531 1.688zm-.907 0v-1.703q0-.735-.359-1.172-.375-.453-1.016-.453-.703 0-1.015.406-.328.406-.328 1.25v1.672zm5.625-5.922v.922l-9.265-3.563v-.921zm-2.422-8.484q-.437 0-.671.343-.25.329-.422 1.157-.172.812-.422 1.297-.25.484-.578.718-.344.22-.813.22-.781 0-1.312-.657-.547-.656-.547-1.688 0-1.078.562-1.734.547-.672 1.407-.672v1.078q-.438 0-.75.39-.329.376-.329.938 0 .594.266.938.25.328.656.328.391 0 .594-.313.203-.312.39-1.125.173-.812.423-1.312t.609-.734q.36-.25.86-.25.859 0 1.374.687.516.672.516 1.75 0 .766-.266 1.36-.28.578-.765.906-.485.328-1.047.328v-1.078q.547-.032.875-.438.312-.406.312-1.078 0-.61-.25-.984-.25-.375-.672-.375z" fill="#424242"/><path d="m67.412 233.01q0 1.906-.656 2.843-.64.922-2.031.922-1.36 0-2.016-.906-.656-.906-.687-2.719v-1.438q0-1.89.64-2.796.657-.922 2.047-.922 1.375 0 2.032.89.656.875.671 2.72v1.405zm-1.093-1.485q0-1.375-.39-2-.376-.64-1.22-.64-.828 0-1.218.64-.375.625-.375 1.922v1.734q0 1.375.39 2.047.407.656 1.219.656.797 0 1.188-.625.39-.625.406-1.953zm-10.766-61.067.438-4.25h4.375v1h-3.453l-.266 2.328q.64-.375 1.437-.375 1.157 0 1.844.781.688.766.688 2.078 0 1.313-.72 2.078-.702.766-1.983.766-1.125 0-1.844-.625-.719-.64-.813-1.75h1.016q.11.734.531 1.11.422.374 1.11.374.75 0 1.187-.515.438-.516.438-1.422 0-.86-.47-1.375-.468-.516-1.25-.516-.702 0-1.109.297l-.28.234zm11.86.64q0 1.907-.657 2.844-.64.922-2.031.922-1.36 0-2.016-.906-.656-.907-.687-2.72v-1.437q0-1.89.64-2.796.657-.922 2.047-.922 1.375 0 2.032.89.656.875.671 2.719v1.406zm-1.094-1.484q0-1.375-.39-2-.376-.64-1.22-.64-.828 0-1.218.64-.375.625-.375 1.922v1.734q0 1.375.39 2.047.407.656 1.219.656.797 0 1.188-.625.39-.625.406-1.953zm-14.703-56.786h-1.078v-7.219l-2.188.797v-.984l3.11-1.172h.156zm8.797-3.64q0 1.905-.657 2.843-.64.922-2.031.922-1.36 0-2.016-.906-.656-.907-.687-2.72v-1.437q0-1.89.64-2.797.657-.921 2.047-.921 1.375 0 2.032.89.656.875.672 2.719v1.406zm-1.094-1.485q0-1.375-.39-2-.376-.64-1.22-.64-.828 0-1.218.64-.375.625-.375 1.922v1.734q0 1.375.39 2.047.407.656 1.219.656.797 0 1.188-.625.39-.625.406-1.953zm8.093 1.484q0 1.906-.656 2.844-.64.922-2.031.922-1.36 0-2.016-.906-.656-.907-.687-2.72v-1.437q0-1.89.64-2.797.657-.921 2.047-.921 1.375 0 2.032.89.656.875.671 2.719zm-1.093-1.484q0-1.375-.39-2-.376-.64-1.22-.64-.828 0-1.218.64-.375.625-.375 1.922v1.734q0 1.375.39 2.047.407.656 1.219.656.797 0 1.188-.625.39-.625.406-1.953zm-14.703-56.786h-1.078v-7.22l-2.188.798v-.985l3.11-1.171h.156zm3.937-4.282.438-4.25h4.375v1h-3.453l-.266 2.329q.64-.375 1.437-.375 1.157 0 1.844.78.688.766.688 2.079 0 1.312-.72 2.078-.702.766-1.983.766-1.125 0-1.844-.625-.719-.641-.813-1.75h1.016q.11.734.531 1.109.422.375 1.11.375.75 0 1.187-.516.438-.515.438-1.421 0-.86-.47-1.375-.468-.516-1.25-.516-.702 0-1.109.297l-.28.234zm11.86.641q0 1.906-.657 2.844-.64.922-2.031.922-1.36 0-2.016-.907-.656-.906-.687-2.718v-1.438q0-1.89.64-2.797.657-.922 2.047-.922 1.375 0 2.032.891.656.875.671 2.719v1.406zm-1.094-1.484q0-1.375-.39-2-.376-.641-1.22-.641-.828 0-1.218.64-.375.626-.375 1.923v1.734q0 1.375.39 2.047.407.656 1.219.656.797 0 1.188-.625.39-.625.406-1.953z" fill="#757575"/><path d="m159.5 16.85a1 1 0 0 1 1-1h10a1 1 0 0 1 1 1v10a1 1 0 0 1 -1 1h-10a1 1 0 0 1 -1-1z" fill="#4285f4"/><path d="m185.672 23.256q0 1.438-.656 2.328-.657.891-1.797.891-1.156 0-1.813-.734v3.047h-1.078v-8.782h.984l.047.703q.672-.812 1.844-.812 1.14 0 1.797.86.672.859.672 2.39v.11zm-1.078-.125q0-1.078-.469-1.687-.453-.625-1.25-.625-.984 0-1.469.86v3.03q.485.875 1.485.875.78 0 1.234-.609.469-.625.469-1.844zm5.797-2.156q-.25-.031-.532-.031-1.078 0-1.453.906v4.5h-1.078v-6.344h1.047l.016.735q.53-.844 1.515-.844.313 0 .485.078zm3.562 5.5q-1.297 0-2.11-.844-.796-.86-.796-2.281v-.188q0-.953.36-1.687.359-.75 1-1.156.655-.422 1.405-.422 1.235 0 1.922.812.688.813.688 2.329v.453h-4.297q.031.937.547 1.515.531.578 1.344.578.562 0 .953-.234.406-.234.719-.625l.656.516q-.797 1.234-2.39 1.234zm-.14-5.688q-.657 0-1.11.485-.437.469-.531 1.328h3.172v-.078q-.047-.828-.453-1.281-.391-.453-1.078-.453zm5.765 2.376h-2.86v-.875h2.86zm6.219 3.187h-5.594v-.781l2.953-3.281q.656-.75.906-1.204.25-.468.25-.968 0-.672-.406-1.094-.39-.438-1.078-.438-.797 0-1.25.47-.453.452-.453 1.28h-1.078q0-1.187.75-1.906.766-.734 2.031-.734 1.203 0 1.89.625.688.625.688 1.672 0 1.25-1.61 3l-2.28 2.468h4.28v.891zm6.766-3.64q0 1.906-.657 2.843-.64.922-2.031.922-1.36 0-2.016-.906-.656-.906-.687-2.719v-1.438q0-1.89.64-2.796.657-.922 2.047-.922 1.375 0 2.032.89.656.875.672 2.72v1.405zm-1.094-1.485q0-1.375-.39-2-.376-.64-1.22-.64-.828 0-1.218.64-.375.625-.375 1.922v1.734q0 1.375.39 2.047.406.656 1.219.656.797 0 1.188-.625.39-.625.406-1.953zm6.297 5.125h-1.078v-7.219l-2.188.797v-.984l3.11-1.172h.156zm3.937-4.281.438-4.25h4.375v1h-3.453l-.266 2.328q.64-.375 1.437-.375 1.157 0 1.844.781.688.766.688 2.078 0 1.313-.72 2.078-.702.766-1.983.766-1.125 0-1.844-.625-.719-.64-.813-1.75h1.016q.11.734.531 1.11.422.374 1.11.374.75 0 1.187-.515.438-.516.438-1.422 0-.86-.47-1.375-.468-.516-1.25-.516-.702 0-1.109.297l-.28.235-.876-.22z" fill="#757575"/><path d="m243.5 16.85a1 1 0 0 1 1-1h10a1 1 0 0 1 1 1v10a1 1 0 0 1 -1 1h-10a1 1 0 0 1 -1-1z" fill="#6aa84f"/><path d="m267.313 24.85 2.437-7.031h1.234l-3.171 8.531h-.985l-3.156-8.531h1.219l2.421 7.031zm10.078-4.813q0 .641-.344 1.141t-.906.781q.656.282 1.046.844.391.547.391 1.25 0 1.094-.75 1.766-.734.656-1.953.656-1.234 0-1.984-.656-.735-.672-.735-1.766 0-.703.375-1.25.375-.562 1.047-.844-.562-.28-.89-.78-.329-.5-.329-1.141 0-1.079.688-1.704.687-.64 1.828-.64 1.125 0 1.813.64.703.625.703 1.704zm-.891 3.985q0-.719-.453-1.156-.453-.453-1.188-.453-.734 0-1.187.453-.438.437-.438 1.172 0 .718.438 1.14.437.406 1.203.406.75 0 1.188-.421.437-.422.437-1.141zm-1.625-5.438q-.64 0-1.047.407-.39.39-.39 1.078 0 .64.39 1.047.39.406 1.031.406.657 0 1.047-.406.39-.407.39-1.047 0-.656-.405-1.063-.407-.422-1.016-.422zm9.531 6.297 1.578-4.875h1.11l-2.281 6.344h-.829l-2.296-6.344h1.109l1.61 4.875zm9.313-6.453-3.531 7.922h-1.141l3.515-7.64h-4.609v-.891h5.766v.61zm1.625 7.36q0-.282.156-.47.172-.187.5-.187.344 0 .516.188.171.187.171.469 0 .265-.171.453-.172.172-.516.172-.328 0-.5-.172-.156-.188-.156-.453zm3.36-3.72.437-4.25h4.375v1h-3.454l-.265 2.329q.64-.375 1.437-.375 1.157 0 1.844.781.688.766.688 2.078 0 1.313-.72 2.078-.702.766-1.983.766-1.125 0-1.844-.625-.719-.64-.813-1.75h1.016q.11.734.531 1.11.422.374 1.11.374.75 0 1.187-.515.438-.516.438-1.422 0-.86-.47-1.375-.468-.516-1.25-.516-.702 0-1.109.297l-.28.235-.876-.22z" fill="#757575"/></svg>