<svg fill="none" height="371" stroke-linecap="square" stroke-miterlimit="10" width="713" xmlns="http://www.w3.org/2000/svg" xmlns:xlink="http://www.w3.org/1999/xlink"><clipPath id="a"><path d="m153.55 44.917h540.9v255.533h-540.9z"/></clipPath><path d="m0 0h713v371h-713z" fill="#fff"/><path d="m153.5 44.5v256" stroke="#333" stroke-linecap="butt"/><path d="m261.5 44.5v256m108-256v256m109-256v256m108-256v256m108-256v256" stroke="#ccc" stroke-linecap="butt"/><path clip-path="url(#a)" d="m154 71v-12h32a2 2 0 0 1 2 2v8a2 2 0 0 1 -2 2z"/><path clip-path="url(#a)" d="m154 71v-12h32a2 2 0 0 1 2 2v8a2 2 0 0 1 -2 2z" fill="#4285f4"/><path clip-path="url(#a)" d="m154 111v-12h1a1 1 0 0 1 1 1v10a1 1 0 0 1 -1 1z"/><path clip-path="url(#a)" d="m154 111v-12h1a1 1 0 0 1 1 1v10a1 1 0 0 1 -1 1z" fill="#4285f4"/><path clip-path="url(#a)" d="m154 152v-12h2a2 2 0 0 1 2 2v8a2 2 0 0 1 -2 2z"/><path clip-path="url(#a)" d="m154 152v-12h2a2 2 0 0 1 2 2v8a2 2 0 0 1 -2 2z" fill="#4285f4"/><path clip-path="url(#a)" d="m154 192v-12h2a2 2 0 0 1 2 2v8a2 2 0 0 1 -2 2z"/><path clip-path="url(#a)" d="m154 192v-12h2a2 2 0 0 1 2 2v8a2 2 0 0 1 -2 2z" fill="#4285f4"/><path clip-path="url(#a)" d="m154 232v-12h2a2 2 0 0 1 2 2v8a2 2 0 0 1 -2 2z"/><path clip-path="url(#a)" d="m154 232v-12h2a2 2 0 0 1 2 2v8a2 2 0 0 1 -2 2z" fill="#4285f4"/><path clip-path="url(#a)" d="m154 272v-12h2a2 2 0 0 1 2 2v8a2 2 0 0 1 -2 2z"/><path clip-path="url(#a)" d="m154 272v-12h2a2 2 0 0 1 2 2v8a2 2 0 0 1 -2 2z" fill="#4285f4"/><path clip-path="url(#a)" d="m154 84v-12h440a2 2 0 0 1 2 2v8a2 2 0 0 1 -2 2z"/><path clip-path="url(#a)" d="m154 84v-12h440a2 2 0 0 1 2 2v8a2 2 0 0 1 -2 2z" fill="#0f9d58"/><path clip-path="url(#a)" d="m154 124v-12h3a2 2 0 0 1 2 2v8a2 2 0 0 1 -2 2z"/><path clip-path="url(#a)" d="m154 124v-12h3a2 2 0 0 1 2 2v8a2 2 0 0 1 -2 2z" fill="#0f9d58"/><path clip-path="url(#a)" d="m154 165v-12h95a2 2 0 0 1 2 2v8a2 2 0 0 1 -2 2z"/><path clip-path="url(#a)" d="m154 165v-12h95a2 2 0 0 1 2 2v8a2 2 0 0 1 -2 2z" fill="#0f9d58"/><path clip-path="url(#a)" d="m154 205v-12h143a2 2 0 0 1 2 2v8a2 2 0 0 1 -2 2z"/><path clip-path="url(#a)" d="m154 205v-12h143a2 2 0 0 1 2 2v8a2 2 0 0 1 -2 2z" fill="#0f9d58"/><path clip-path="url(#a)" d="m154 245v-12h379a2 2 0 0 1 2 2v8a2 2 0 0 1 -2 2z"/><path clip-path="url(#a)" d="m154 245v-12h379a2 2 0 0 1 2 2v8a2 2 0 0 1 -2 2z" fill="#0f9d58"/><path clip-path="url(#a)" d="m154 285v-12h196a2 2 0 0 1 2 2v8a2 2 0 0 1 -2 2z"/><path clip-path="url(#a)" d="m154 285v-12h196a2 2 0 0 1 2 2v8a2 2 0 0 1 -2 2z" fill="#0f9d58"/><path d="m331.016 349.45 1.812-8.594h2.656q.72 0 1.079.063.578.094.968.344.39.25.61.687.218.422.218.953 0 .703-.39 1.25-.39.531-1.188.813.688.234 1.031.703.36.453.36 1.062 0 .703-.422 1.36-.406.656-1.078 1.015-.656.344-1.485.344zm2.187-4.922h1.735q1.25 0 1.796-.39.547-.407.547-1.172 0-.36-.172-.625-.156-.266-.453-.375-.281-.125-1.062-.125h-1.828zm-.828 3.953h1.953q.781 0 1.047-.062.547-.094.89-.313.344-.234.532-.594.203-.375.203-.78 0-.595-.39-.907-.376-.313-1.438-.313h-2.172l-.625 2.97zm11.094-1.14 1.031.093q-.219.766-1.031 1.47-.797.687-1.89.687-.704 0-1.282-.313-.578-.328-.875-.937-.297-.61-.297-1.391 0-1.016.469-1.969.469-.969 1.219-1.422.75-.468 1.625-.468 1.109 0 1.765.687.672.688.672 1.89 0 .454-.078.938h-4.578q-.031.172-.031.328 0 .875.406 1.328.406.454.984.454.547 0 1.063-.344.53-.36.828-1.031zm-3.078-1.547h3.484q.016-.172.016-.235 0-.797-.407-1.218-.39-.422-1.015-.422-.688 0-1.25.469-.563.468-.828 1.406zm5.515 3.656 1.297-6.219h.953l-.219 1.078q.625-.64 1.172-.922.547-.296 1.11-.296.75 0 1.172.406.437.406.437 1.094 0 .343-.14 1.093l-.797 3.766h-1.063l.828-3.938q.125-.578.125-.859 0-.312-.219-.5-.203-.187-.609-.187-.812 0-1.453.593-.64.578-.938 2l-.609 2.891zm11.281-2.266 1.063.11q-.39 1.172-1.125 1.734-.734.563-1.672.563-1.015 0-1.656-.657-.625-.656-.625-1.828 0-1.031.406-2.015.406-.985 1.156-1.485.75-.515 1.72-.515 1 0 1.577.562.594.563.594 1.5l-1.031.063q-.016-.594-.36-.922-.328-.328-.875-.328-.64 0-1.109.406-.469.39-.734 1.219-.266.828-.266 1.578 0 .797.344 1.203.36.39.875.39t.984-.39q.469-.39.735-1.188zm1.72 2.266 1.78-8.594h1.063l-.688 3.297q.594-.562 1.094-.812.516-.25 1.063-.25.765 0 1.187.406.438.406.438 1.078 0 .328-.188 1.203l-.765 3.672h-1.063l.797-3.766q.172-.828.172-1.03 0-.313-.219-.5-.203-.188-.61-.188-.577 0-1.093.296-.516.297-.813.829-.296.515-.546 1.687l-.563 2.672h-1.047zm6.984 0 1.296-6.219h1.063l-.219 1.016q.594-.656 1.063-.906t1.015-.25q.579 0 .97.312.39.297.515.844.469-.578.984-.86.531-.296 1.11-.296.78 0 1.171.375.391.359.391 1.03 0 .282-.14.938l-.829 4.016h-1.062l.86-4.11q.108-.515.108-.718 0-.313-.203-.485-.187-.171-.53-.171-.485 0-.985.28-.485.282-.766.75-.265.47-.469 1.438l-.625 3.016h-1.062l.875-4.203q.094-.422.094-.61 0-.296-.188-.484-.187-.187-.5-.187-.453 0-.953.28-.484.282-.797.798-.312.515-.515 1.469l-.61 2.937zm14.203-.781q-.547.484-1.063.703-.5.219-1.094.219-.859 0-1.39-.5-.516-.516-.516-1.313 0-.516.235-.906.234-.406.625-.64.39-.25.968-.36.36-.078 1.36-.11 1-.046 1.422-.218.125-.438.125-.719 0-.375-.266-.578-.375-.297-1.078-.297-.672 0-1.094.297-.422.297-.625.844l-1.062-.094q.328-.922 1.03-1.406.72-.5 1.798-.5 1.156 0 1.828.546.515.407.515 1.063 0 .5-.14 1.156l-.344 1.547q-.172.734-.172 1.203 0 .297.14.844h-1.077q-.094-.313-.125-.781zm.39-2.375q-.218.094-.484.14-.25.047-.844.094-.922.078-1.312.219-.375.125-.578.406-.188.266-.188.594 0 .453.313.734.312.281.875.281.53 0 1.015-.265.485-.281.766-.781t.437-1.422zm2.422 3.156 1.297-6.219h.938l-.266 1.266q.484-.719.938-1.063.468-.343.937-.343.328 0 .781.218l-.437.985q-.266-.188-.594-.188-.563 0-1.156.625-.578.61-.906 2.219l-.532 2.5zm4 0 1.797-8.594h1.063l-1.11 5.328 3.094-2.953h1.39l-2.656 2.313 1.61 3.906h-1.156l-1.25-3.188-1.282 1.11-.437 2.078zm9.094-2.125 1.063-.063q0 .454.14.782.14.312.516.515.375.203.875.203.703 0 1.047-.28.359-.282.359-.657 0-.281-.203-.516-.219-.25-1.063-.609-.843-.36-1.078-.516-.39-.234-.594-.562-.187-.328-.187-.75 0-.735.578-1.25.594-.531 1.64-.531 1.173 0 1.782.546.625.532.64 1.422l-1.03.063q-.032-.563-.407-.89-.375-.329-1.062-.329-.547 0-.86.25-.297.25-.297.547 0 .297.266.516.172.156.906.468 1.219.532 1.531.828.516.5.516 1.188 0 .469-.297.922-.281.437-.86.703-.577.266-1.374.266-1.078 0-1.828-.532-.766-.53-.719-1.734zm10.188-.14 1.062.109q-.39 1.172-1.125 1.734-.734.563-1.672.563-1.015 0-1.656-.657-.625-.656-.625-1.828 0-1.031.406-2.015.406-.985 1.156-1.485.75-.515 1.72-.515 1 0 1.577.562.594.563.594 1.5l-1.031.063q-.016-.594-.36-.922-.328-.328-.875-.328-.64 0-1.109.406-.469.39-.734 1.219-.266.828-.266 1.578 0 .797.344 1.203.36.39.875.39t.984-.39q.469-.39.735-1.188zm1.906-.094q0-1.829 1.062-3.016.89-.984 2.328-.984 1.125 0 1.813.703.687.703.687 1.89 0 1.078-.437 2-.438.922-1.235 1.422-.796.485-1.687.485-.719 0-1.313-.313-.593-.312-.906-.875-.312-.578-.312-1.312zm1.047-.11q0 .875.421 1.328.422.453 1.079.453.343 0 .671-.125.344-.14.625-.421.282-.282.485-.641.203-.36.328-.781.188-.578.188-1.11 0-.843-.438-1.312-.422-.469-1.063-.469-.5 0-.906.25-.406.234-.75.688-.328.453-.484 1.062-.156.61-.156 1.078zm5.765 2.469 1.297-6.219h.938l-.266 1.266q.484-.719.938-1.063.468-.343.937-.343.328 0 .781.218l-.437.985q-.266-.188-.594-.188-.563 0-1.156.625-.578.61-.906 2.219l-.532 2.5zm8.563-2.11 1.031.094q-.219.766-1.031 1.47-.797.687-1.89.687-.704 0-1.282-.313-.578-.328-.875-.937-.297-.61-.297-1.391 0-1.016.469-1.969.469-.969 1.219-1.422.75-.468 1.625-.468 1.109 0 1.765.687.672.688.672 1.89 0 .454-.078.938h-4.578q-.031.172-.031.328 0 .875.406 1.328.406.454.984.454.547 0 1.063-.344.53-.36.828-1.031zm-3.078-1.546h3.484q.016-.172.016-.235 0-.797-.407-1.218-.39-.422-1.015-.422-.688 0-1.25.469-.563.468-.828 1.406zm10.046 6.187q-.921-2.015-.921-4.156 0-1.406.375-2.625.375-1.234 1.125-2.422.515-.797 1.609-2.062h.828q-.687.734-1.453 2.062-.75 1.328-1.11 2.61-.343 1.28-.343 2.578 0 1.937.672 4.015h-.781zm2.47-2.531 1.78-8.594h1.063l-.688 3.297q.594-.562 1.094-.812.516-.25 1.063-.25.765 0 1.187.406.438.406.438 1.078 0 .328-.188 1.203l-.765 3.672h-1.063l.797-3.766q.172-.828.172-1.03 0-.313-.219-.5-.203-.188-.61-.188-.577 0-1.093.296-.516.297-.813.829-.296.515-.546 1.687l-.563 2.672h-1.047zm8.5-7.39.25-1.204h1.062l-.266 1.203h-1.047zm-1.548 7.39 1.297-6.219h1.063l-1.297 6.219zm2.985.563 1.062.093q0 .375.094.547.094.188.313.281.296.141.75.141.953 0 1.375-.5.28-.344.515-1.453l.11-.516q-.829.844-1.766.844-.938 0-1.578-.688-.625-.703-.625-1.968 0-1.047.5-1.922.5-.89 1.187-1.328.688-.453 1.422-.453 1.219 0 1.89 1.156l.204-1.016h.984l-1.265 6q-.204 1-.547 1.547-.328.547-.922.844-.594.312-1.375.312-.75 0-1.297-.187-.531-.188-.797-.563-.265-.375-.265-.859 0-.14.03-.313zm1.328-3.313q0 .64.11.953.187.453.5.688.327.234.734.234.515 0 1.03-.36.517-.359.829-1.124.328-.782.328-1.47 0-.765-.422-1.218-.422-.469-1.047-.469-.39 0-.765.22-.36.202-.672.624-.313.422-.469 1.016-.156.594-.156.906zm5.734 2.75 1.781-8.594h1.063l-.688 3.297q.594-.562 1.094-.812.516-.25 1.063-.25.765 0 1.187.406.438.406.438 1.078 0 .328-.188 1.203l-.765 3.672h-1.063l.797-3.766q.172-.828.172-1.03 0-.313-.219-.5-.203-.188-.61-.188-.577 0-1.093.296-.516.297-.813.829-.296.515-.546 1.687l-.563 2.672zm11.563-2.11 1.031.094q-.219.766-1.031 1.47-.797.687-1.89.687-.704 0-1.282-.313-.578-.328-.875-.937-.297-.61-.297-1.391 0-1.016.469-1.969.469-.969 1.219-1.422.75-.468 1.625-.468 1.109 0 1.765.687.672.688.672 1.89 0 .454-.078.938h-4.578q-.031.172-.031.328 0 .875.406 1.328.406.454.984.454.547 0 1.063-.344.53-.36.828-1.031zm-3.078-1.546h3.484q.016-.172.016-.235 0-.797-.407-1.218-.39-.422-1.015-.422-.688 0-1.25.469-.563.468-.828 1.406zm5.515 3.656 1.297-6.219h.938l-.266 1.266q.484-.719.938-1.063.468-.343.937-.343.328 0 .781.218l-.437.985q-.266-.188-.594-.188-.563 0-1.156.625-.578.61-.906 2.219l-.532 2.5zm8.5-7.39.25-1.204h1.063l-.266 1.203h-1.047zm-1.547 7.39 1.297-6.219h1.063l-1.297 6.219zm3.141-2.125 1.063-.063q0 .454.14.782.14.312.516.515.375.203.875.203.703 0 1.047-.28.359-.282.359-.657 0-.281-.203-.516-.219-.25-1.063-.609-.843-.36-1.078-.516-.39-.234-.594-.562-.187-.328-.187-.75 0-.735.578-1.25.594-.531 1.64-.531 1.173 0 1.782.546.625.532.64 1.422l-1.03.063q-.032-.563-.407-.89-.375-.329-1.062-.329-.547 0-.86.25-.297.25-.297.547 0 .297.266.516.172.156.906.468 1.219.532 1.531.828.516.5.516 1.188 0 .469-.297.922-.281.437-.86.703-.577.266-1.374.266-1.078 0-1.828-.532-.766-.53-.719-1.734zm8.906 2.125 1.781-8.594h1.063l-.64 3.078q.515-.468.921-.656.406-.187.86-.187.859 0 1.437.656.594.64.594 1.875 0 .828-.235 1.515-.234.688-.578 1.157-.343.469-.718.75-.36.265-.75.406-.391.14-.75.14-.61 0-1.079-.327-.468-.329-.734-.985l-.25 1.172zm1.563-2.563v.204q0 .796.375 1.218.375.407.953.407.547 0 1.015-.375.47-.391.766-1.22.297-.827.297-1.53 0-.782-.375-1.22-.375-.437-.938-.437-.562 0-1.046.453-.485.438-.813 1.36-.234.687-.234 1.14zm10 .454 1.031.093q-.219.766-1.031 1.47-.797.687-1.89.687-.704 0-1.282-.313-.578-.328-.875-.937-.297-.61-.297-1.391 0-1.016.469-1.969.469-.969 1.219-1.422.75-.468 1.625-.468 1.109 0 1.765.687.672.688.672 1.89 0 .454-.078.938h-4.578q-.031.172-.031.328 0 .875.406 1.328.406.454.984.454.547 0 1.063-.344.53-.36.828-1.031zm-3.078-1.547h3.484q.016-.172.016-.235 0-.797-.407-1.218-.39-.422-1.015-.422-.688 0-1.25.469-.563.468-.828 1.406zm7.984 2.797-.172.859q-.375.11-.734.11-.64 0-1.016-.313-.281-.235-.281-.64 0-.204.156-.938l.75-3.625h-.828l.172-.813h.828l.328-1.531 1.203-.734-.469 2.265h1.047l-.171.813h-1.047l-.72 3.437q-.14.656-.14.797 0 .188.11.281.109.094.359.094.36 0 .625-.062zm3 0-.172.859q-.375.11-.734.11-.64 0-1.016-.313-.281-.235-.281-.64 0-.204.156-.938l.75-3.625h-.828l.172-.813h.828l.328-1.531 1.203-.734-.469 2.265h1.047l-.171.813h-1.047l-.72 3.437q-.14.656-.14.797 0 .188.11.281.109.094.359.094.36 0 .625-.062zm5.094-1.25 1.031.093q-.219.766-1.031 1.47-.797.687-1.89.687-.704 0-1.282-.313-.578-.328-.875-.937-.297-.61-.297-1.391 0-1.016.469-1.969.469-.969 1.219-1.422.75-.468 1.625-.468 1.109 0 1.765.687.672.688.672 1.89 0 .454-.078.938h-4.578q-.031.172-.031.328 0 .875.406 1.328.406.454.984.454.547 0 1.063-.344.53-.36.828-1.031zm-3.078-1.547h3.484q.016-.172.016-.235 0-.797-.407-1.218-.39-.422-1.015-.422-.688 0-1.25.469-.563.468-.828 1.406zm5.515 3.656 1.297-6.219h.938l-.266 1.266q.484-.719.938-1.063.468-.343.937-.343.328 0 .781.218l-.437.985q-.266-.188-.594-.188-.563 0-1.156.625-.578.61-.907 2.219l-.53 2.5h-1zm5.969-8.734q.938 2.015.938 4.14 0 1.422-.375 2.64-.375 1.22-1.141 2.423-.5.797-1.61 2.062h-.828q.688-.75 1.453-2.078.766-1.328 1.11-2.61.344-1.28.344-2.577 0-1.938-.672-4zm-429.2-264.636v-8.594h1.125v8.594zm2.672 0v-6.22h.937v.876q.688-1.016 1.985-1.016.562 0 1.031.203.484.204.719.532.234.328.328.765.047.297.047 1.032v3.828h-1.047v-3.782q0-.656-.125-.968-.125-.313-.438-.5-.312-.203-.734-.203-.672 0-1.172.437-.484.422-.484 1.61v3.406zm9.297-.938.156.922q-.453.094-.797.094-.578 0-.89-.172-.313-.188-.454-.484-.125-.297-.125-1.25v-3.579h-.765v-.812h.765v-1.547l1.047-.625v2.172h1.063v.812h-1.064v3.641q0 .453.047.578.063.125.188.203.125.078.359.078.188 0 .469-.03zm.672.938v-8.594h1.062v8.594zm3.328 0v-1.203h1.203v1.203zm8.968-3.016 1.126.297q-.36 1.39-1.282 2.125-.922.734-2.265.734-1.391 0-2.266-.562-.875-.563-1.328-1.625-.453-1.078-.453-2.313 0-1.343.515-2.343.516-1 1.453-1.516.954-.516 2.094-.516 1.281 0 2.156.657.891.656 1.235 1.843l-1.125.266q-.297-.938-.875-1.36-.563-.437-1.422-.437-.984 0-1.656.484-.657.47-.938 1.266-.265.797-.265 1.656 0 1.094.312 1.907.328.812 1 1.218.672.407 1.469.407.953 0 1.61-.547.671-.547.906-1.641zm2.344-.094q0-1.734.953-2.562.797-.688 1.953-.688 1.282 0 2.094.844.828.828.828 2.313 0 1.203-.359 1.89-.36.688-1.063 1.078-.687.375-1.5.375-1.296 0-2.109-.828-.797-.844-.797-2.422zm1.078 0q0 1.188.516 1.782.531.593 1.313.593.796 0 1.312-.593.516-.594.516-1.813 0-1.156-.532-1.75-.515-.594-1.297-.594-.78 0-1.312.594-.516.578-.516 1.781zm6.282 3.11v-8.594h1.062v8.594zm3 0v-8.594h1.062v8.594zm7.093-.766q-.593.5-1.14.703-.531.203-1.156.203-1.032 0-1.579-.5-.547-.5-.547-1.281 0-.453.204-.828.203-.39.546-.61.344-.234.766-.343.297-.094.938-.172 1.265-.14 1.875-.36v-.265q0-.656-.297-.922-.406-.344-1.203-.344-.735 0-1.094.266-.36.25-.531.906l-1.032-.14q.141-.657.47-1.063.327-.406.937-.625.609-.219 1.406-.219.797 0 1.297.188.5.187.734.469.235.28.328.718.047.266.047.969v1.406q0 1.469.063 1.86.078.39.28.75h-1.108q-.157-.328-.204-.766zm-.093-2.36q-.578.235-1.72.407-.655.094-.921.219-.266.109-.422.328-.14.219-.14.5 0 .422.312.703.328.281.938.281.609 0 1.078-.265.484-.266.703-.735.172-.36.172-1.047v-.39zm5.328 2.188.156.922q-.453.094-.797.094-.578 0-.89-.172-.313-.188-.454-.484-.125-.297-.125-1.25v-3.579h-.765v-.812h.765v-1.547l1.047-.625v2.172h1.063v.812h-1.063v3.641q0 .453.047.578.063.125.188.203.125.078.359.078.188 0 .469-.03zm.312-2.172q0-1.734.953-2.562.797-.688 1.954-.688 1.28 0 2.093.844.828.828.828 2.313 0 1.203-.359 1.89-.36.688-1.063 1.078-.687.375-1.5.375-1.296 0-2.109-.828-.797-.844-.797-2.422zm1.078 0q0 1.188.516 1.782.531.593 1.313.593.796 0 1.312-.593.516-.594.516-1.813 0-1.156-.532-1.75-.515-.594-1.296-.594-.782 0-1.313.594-.516.578-.516 1.781zm6.297 3.11v-6.22h.953v.938q.36-.656.657-.859.312-.219.687-.219.531 0 1.078.328l-.36.985q-.39-.235-.765-.235-.36 0-.64.22-.266.202-.375.577-.188.563-.188 1.219v3.266zm-105.656 40.241v-8.594h1.125v8.594zm2.672 0v-6.219h.937v.875q.688-1.015 1.985-1.015.562 0 1.031.203.484.203.719.531.234.328.328.766.047.297.047 1.031v3.828h-1.047v-3.781q0-.656-.125-.969-.125-.312-.438-.5-.312-.203-.734-.203-.672 0-1.172.438-.484.421-.484 1.609v3.406zm9.297-.937.156.922q-.453.093-.797.093-.578 0-.89-.172-.313-.187-.454-.484-.125-.297-.125-1.25v-3.578h-.765v-.813h.765v-1.546l1.047-.625v2.171h1.063v.813h-1.064v3.64q0 .454.047.579.063.125.188.203.125.078.359.078.188 0 .469-.031zm.672.937v-8.594h1.062v8.594zm3.328 0v-1.203h1.203v1.203zm2.828 0v-8.594h2.969q1 0 1.53.125.735.172 1.25.61.688.578 1.017 1.484.343.89.343 2.031 0 .985-.234 1.735-.219.75-.578 1.25-.36.5-.797.781-.422.281-1.016.438-.594.14-1.375.14h-3.11zm1.14-1.015h1.829q.859 0 1.343-.157.485-.156.766-.453.406-.39.625-1.078.234-.687.234-1.656 0-1.344-.453-2.063-.437-.734-1.062-.984-.469-.172-1.469-.172h-1.813zm11.797.25q-.593.5-1.14.703-.532.203-1.157.203-1.03 0-1.578-.5-.547-.5-.547-1.281 0-.454.204-.829.203-.39.546-.609.344-.234.766-.344.297-.093.938-.172 1.265-.14 1.875-.359v-.266q0-.656-.297-.921-.407-.344-1.203-.344-.735 0-1.094.265-.36.25-.531.907l-1.032-.141q.141-.656.47-1.062.327-.407.937-.625.609-.22 1.406-.22.797 0 1.297.188.5.188.734.469.234.281.328.719.047.265.047.969v1.406q0 1.469.063 1.86.078.39.28.75h-1.109q-.156-.329-.203-.766zm-.093-2.36q-.579.235-1.72.406-.655.094-.921.22-.266.109-.422.327-.14.219-.14.5 0 .422.312.703.328.282.938.282.609 0 1.078-.266.484-.266.703-.734.172-.36.172-1.047v-.39zm5.328 2.188.156.922q-.453.093-.797.093-.578 0-.89-.172-.313-.187-.454-.484-.125-.297-.125-1.25v-3.578h-.765v-.813h.765v-1.546l1.047-.625v2.171h1.063v.813h-1.064v3.64q0 .454.047.579.063.125.188.203.125.078.359.078.188 0 .469-.031zm4.953-1.063 1.094.125q-.25.953-.954 1.485-.703.53-1.78.53-1.36 0-2.173-.843-.797-.844-.797-2.36 0-1.562.813-2.421.813-.875 2.094-.875 1.25 0 2.031.844.797.843.797 2.39v.281h-4.64q.062 1.032.577 1.579.516.53 1.297.53.578 0 .985-.296.421-.313.656-.969zm-3.453-1.703h3.468q-.062-.797-.39-1.187-.516-.61-1.313-.61-.734 0-1.234.485-.484.484-.531 1.312zm8.515 3.703v-7.578h-2.828v-1.016h6.813v1.016h-2.844v7.578h-1.14zm4.688-7.375v-1.219h1.062v1.22h-1.062zm0 7.375v-6.219h1.062v6.22h-1.062zm3 0v-6.219h.937v.875q.297-.468.782-.734.484-.281 1.109-.281.688 0 1.125.281.453.281.625.797.75-1.078 1.922-1.078.937 0 1.422.515.5.5.5 1.579v4.265h-1.047v-3.921q0-.625-.11-.906-.093-.281-.359-.453t-.64-.172q-.657 0-1.094.438-.422.437-.422 1.406v3.61h-1.063v-4.048q0-.703-.265-1.047-.25-.359-.828-.359-.454 0-.829.234-.374.235-.546.688-.172.453-.172 1.297v3.234h-1.047zm14.25-2 1.094.125q-.25.953-.954 1.485-.703.53-1.78.53-1.36 0-2.173-.843-.797-.844-.797-2.36 0-1.562.813-2.421.813-.875 2.094-.875 1.25 0 2.031.844.797.843.797 2.39v.281h-4.64q.062 1.032.577 1.579.516.53 1.297.53.578 0 .985-.296.421-.313.656-.969zm-3.453-1.703h3.468q-.062-.797-.39-1.187-.516-.61-1.313-.61-.734 0-1.234.485-.484.484-.531 1.312zm6.39 3.703v-8.594h5.797v1.016h-4.656v2.656h4.031v1.016h-4.031v3.906h-1.14zm6.422-3.11q0-1.734.953-2.562.797-.687 1.953-.687 1.282 0 2.094.844.828.828.828 2.312 0 1.203-.359 1.89-.36.688-1.063 1.079-.687.375-1.5.375-1.296 0-2.109-.828-.797-.844-.797-2.422zm1.078 0q0 1.188.516 1.782.531.594 1.313.594.796 0 1.312-.594t.516-1.812q0-1.157-.532-1.75-.515-.594-1.297-.594-.78 0-1.312.594-.516.578-.516 1.78zm6.297 3.11v-6.219h.953v.938q.36-.656.657-.86.312-.218.687-.218.531 0 1.078.328l-.36.984q-.39-.234-.765-.234-.36 0-.64.219-.266.203-.375.578-.188.562-.188 1.219v3.265zm4.016 0v-6.219h.937v.875q.297-.468.782-.734.484-.281 1.109-.281.688 0 1.125.281.453.281.625.797.75-1.078 1.922-1.078.937 0 1.422.515.5.5.5 1.579v4.265h-1.047v-3.921q0-.625-.11-.906-.093-.281-.359-.453-.265-.172-.64-.172-.657 0-1.094.438-.422.437-.422 1.406v3.61h-1.063v-4.048q0-.703-.265-1.047-.25-.359-.828-.359-.453 0-.828.234-.375.235-.547.688-.172.453-.172 1.297v3.234h-1.047zm14.062-.765q-.593.5-1.14.703-.531.203-1.156.203-1.032 0-1.579-.5-.546-.5-.546-1.281 0-.454.203-.829.203-.39.547-.609.343-.234.765-.344.297-.093.938-.172 1.265-.14 1.875-.359v-.266q0-.656-.297-.921-.406-.344-1.203-.344-.735 0-1.094.265-.36.25-.531.907l-1.032-.141q.141-.656.47-1.062.327-.407.937-.625.609-.22 1.406-.22.797 0 1.297.188.5.188.734.469.235.281.328.719.047.265.047.969v1.406q0 1.469.063 1.86.078.39.28.75h-1.108q-.157-.329-.204-.766zm-.093-2.36q-.578.235-1.72.406-.655.094-.921.22-.266.109-.422.327-.14.219-.14.5 0 .422.312.703.328.282.938.282.609 0 1.078-.266.484-.266.703-.734.172-.36.172-1.047v-.39zm5.328 2.188.156.922q-.453.093-.797.093-.578 0-.89-.172-.313-.187-.454-.484-.125-.297-.125-1.25v-3.578h-.765v-.813h.765v-1.546l1.047-.625v2.171h1.063v.813h-1.063v3.64q0 .454.047.579.063.125.188.203.125.078.359.078.188 0 .469-.031zm-99.969 41.179v-8.594h1.125v8.594zm2.672 0v-6.22h.937v.876q.688-1.016 1.985-1.016.562 0 1.031.203.484.203.719.532.234.328.328.765.047.297.047 1.031v3.829h-1.047v-3.782q0-.656-.125-.968-.125-.313-.438-.5-.312-.204-.734-.204-.672 0-1.172.438-.484.422-.484 1.61v3.406zm9.297-.938.156.922q-.453.094-.797.094-.578 0-.89-.172-.313-.188-.454-.485-.125-.296-.125-1.25v-3.578h-.765v-.812h.765v-1.547l1.047-.625v2.172h1.063v.812h-1.064v3.641q0 .453.047.578.063.125.188.203.125.078.359.078.188 0 .469-.03zm.672.938v-8.594h1.062v8.594zm3.328 0v-1.204h1.203v1.204zm2.828 0v-8.594h1.156l4.516 6.75v-6.75h1.093v8.594h-1.171l-4.516-6.75v6.75zm12.953 0v-.922q-.734 1.062-1.984 1.062-.547 0-1.032-.203-.468-.219-.703-.531-.234-.328-.328-.797-.062-.297-.062-.984v-3.844h1.062v3.453q0 .812.063 1.11.093.406.406.656.328.234.812.234.47 0 .875-.234.422-.25.594-.672.188-.422.188-1.219v-3.328h1.046v6.219zm2.922 0v-6.22h.937v.876q.297-.469.782-.735.484-.28 1.109-.28.688 0 1.125.28.453.282.625.797.75-1.078 1.922-1.078.937 0 1.422.516.5.5.5 1.578v4.266h-1.047v-3.922q0-.625-.11-.907-.093-.28-.359-.453-.266-.172-.64-.172-.657 0-1.094.438-.422.437-.422 1.406v3.61h-1.063v-4.047q0-.703-.265-1.047-.25-.36-.828-.36-.454 0-.829.235-.374.234-.546.687-.172.453-.172 1.297v3.235zm10.969 0h-.985v-8.594h1.063v3.062q.672-.828 1.703-.828.578 0 1.078.235.516.218.844.64.343.422.531 1.016.188.594.188 1.265 0 1.594-.797 2.47-.797.874-1.891.874-1.11 0-1.734-.922zm-.016-3.157q0 1.11.313 1.61.5.812 1.343.812.688 0 1.188-.594.515-.593.515-1.796 0-1.22-.484-1.797-.484-.578-1.172-.578-.687 0-1.203.609-.5.594-.5 1.734zm10.297 1.157 1.094.125q-.25.953-.954 1.484-.703.531-1.78.531-1.36 0-2.173-.844-.797-.843-.797-2.359 0-1.562.813-2.422.813-.875 2.094-.875 1.25 0 2.031.844.797.844.797 2.39v.282h-4.64q.062 1.031.577 1.578.516.531 1.297.531.578 0 .985-.297.421-.312.656-.968zm-3.453-1.704h3.468q-.062-.796-.39-1.187-.516-.61-1.313-.61-.734 0-1.234.485-.484.484-.531 1.312zm6.187 3.704v-6.22h.953v.938q.36-.656.657-.859.312-.219.687-.219.531 0 1.078.328l-.36.985q-.39-.235-.765-.235-.36 0-.64.22-.266.202-.375.577-.188.563-.188 1.219v3.266zm4.203 0v-8.594h5.797v1.015h-4.656v2.657h4.031v1.015h-4.031v3.907h-1.14zm6.422-3.11q0-1.734.953-2.562.797-.688 1.953-.688 1.282 0 2.094.844.828.828.828 2.312 0 1.204-.359 1.891-.36.688-1.063 1.078-.687.375-1.5.375-1.296 0-2.109-.828-.797-.844-.797-2.422zm1.078 0q0 1.188.516 1.781.531.594 1.313.594.796 0 1.312-.594.516-.593.516-1.812 0-1.156-.532-1.75-.515-.594-1.297-.594-.78 0-1.312.594-.516.578-.516 1.781zm6.297 3.11v-6.22h.953v.938q.36-.656.657-.859.312-.219.687-.219.531 0 1.078.328l-.36.985q-.39-.235-.765-.235-.36 0-.64.22-.266.202-.375.577-.188.563-.188 1.219v3.266zm4.016 0v-6.22h.937v.876q.297-.469.782-.735.484-.28 1.109-.28.688 0 1.125.28.453.282.625.797.75-1.078 1.922-1.078.937 0 1.422.516.5.5.5 1.578v4.266h-1.047v-3.922q0-.625-.11-.907-.093-.28-.359-.453-.265-.172-.64-.172-.657 0-1.094.438-.422.437-.422 1.406v3.61h-1.063v-4.047q0-.703-.265-1.047-.25-.36-.828-.36-.453 0-.828.235-.375.234-.547.687-.172.453-.172 1.297v3.235zm14.062-.766q-.593.5-1.14.703-.531.203-1.156.203-1.032 0-1.579-.5-.546-.5-.546-1.281 0-.453.203-.828.203-.39.547-.61.343-.234.765-.343.297-.094.938-.172 1.265-.14 1.875-.36v-.265q0-.656-.297-.922-.406-.344-1.203-.344-.735 0-1.094.266-.36.25-.531.906l-1.032-.14q.141-.657.47-1.063.327-.406.937-.625.609-.219 1.406-.219.797 0 1.297.188.5.187.734.468.235.282.328.72.047.265.047.968v1.406q0 1.469.063 1.86.078.39.28.75h-1.108q-.157-.329-.204-.766zm-.093-2.36q-.578.235-1.72.407-.655.094-.921.219-.266.109-.422.328-.14.218-.14.5 0 .422.312.703.328.281.938.281.609 0 1.078-.266.484-.265.703-.734.172-.36.172-1.047v-.39zm5.328 2.188.156.922q-.453.094-.797.094-.578 0-.89-.172-.313-.188-.454-.485-.125-.296-.125-1.25v-3.578h-.765v-.812h.765v-1.547l1.047-.625v2.172h1.063v.812h-1.063v3.641q0 .453.047.578.063.125.188.203.125.078.359.078.188 0 .469-.03zm-81.969 41.179v-8.594h1.125v8.594zm2.672 0v-6.219h.937v.875q.688-1.015 1.985-1.015.562 0 1.031.203.484.203.719.531.234.328.328.766.047.297.047 1.03v3.83h-1.047v-3.782q0-.656-.125-.969-.125-.312-.438-.5-.312-.203-.734-.203-.672 0-1.172.437-.484.422-.484 1.61v3.406zm9.297-.937.156.921q-.453.094-.797.094-.578 0-.89-.172-.313-.187-.454-.484-.125-.297-.125-1.25v-3.578h-.765v-.813h.765v-1.547l1.047-.625v2.172h1.063v.813h-1.064v3.64q0 .454.047.579.063.125.188.203.125.078.359.078.188 0 .469-.031zm.672.937v-8.594h1.062v8.594zm3.328 0v-1.203h1.203v1.203zm2.828 0v-8.594h3.25q.844 0 1.297.078.64.11 1.062.407.438.297.688.828.265.531.265 1.172 0 1.093-.703 1.86-.687.75-2.515.75h-2.204v3.5h-1.14zm1.14-4.5h2.22q1.109 0 1.562-.406.468-.422.468-1.172 0-.531-.28-.906-.266-.39-.704-.516-.297-.078-1.062-.078h-2.204zm6.704 4.5v-8.594h1.062v8.594zm7.109 0v-.922q-.734 1.063-1.984 1.063-.547 0-1.032-.203-.468-.22-.703-.532-.234-.328-.328-.797-.062-.296-.062-.984v-3.844h1.062v3.453q0 .813.063 1.11.093.406.406.656.328.234.812.234.47 0 .875-.234.422-.25.594-.672.188-.422.188-1.219v-3.328h1.046v6.22h-.937zm2.906 0v-6.219h.953v.938q.36-.656.657-.86.312-.218.687-.218.531 0 1.078.328l-.36.984q-.39-.234-.765-.234-.36 0-.64.219-.266.203-.375.578-.188.562-.188 1.218v3.266zm8.078-.766q-.593.5-1.14.704-.532.203-1.157.203-1.03 0-1.578-.5-.547-.5-.547-1.282 0-.453.204-.828.203-.39.546-.61.344-.233.766-.343.297-.094.938-.172 1.265-.14 1.875-.36v-.265q0-.656-.297-.922-.407-.343-1.203-.343-.735 0-1.094.265-.36.25-.531.907l-1.032-.141q.141-.656.47-1.063.327-.406.937-.625.609-.218 1.406-.218.797 0 1.297.187.5.188.734.469.234.281.328.719.047.265.047.968v1.407q0 1.468.063 1.86.078.39.28.75h-1.109q-.156-.33-.203-.767zm-.093-2.359q-.579.234-1.72.406-.655.094-.921.22-.266.108-.422.327-.14.219-.14.5 0 .422.312.703.328.282.938.282.609 0 1.078-.266.484-.266.703-.734.172-.36.172-1.047v-.39zm3 3.125v-8.594h1.062v8.594zm3.171 0v-8.594h3.813q1.156 0 1.75.235.594.234.953.828.36.578.36 1.281 0 .922-.594 1.547-.594.625-1.828.797.453.219.687.422.5.453.938 1.14l1.5 2.344h-1.438l-1.125-1.781q-.5-.781-.828-1.188-.313-.406-.578-.562-.25-.172-.516-.25-.187-.031-.625-.031h-1.328v3.812h-1.14zm1.141-4.797h2.453q.766 0 1.203-.156.453-.172.672-.516.235-.36.235-.78 0-.61-.454-1-.437-.392-1.39-.392h-2.719zm11.797 4.797v-.922q-.734 1.063-1.984 1.063-.547 0-1.032-.203-.468-.22-.703-.532-.234-.328-.328-.797-.062-.296-.062-.984v-3.844h1.062v3.453q0 .813.063 1.11.093.406.406.656.328.234.812.234.47 0 .875-.234.422-.25.594-.672.188-.422.188-1.219v-3.328h1.047v6.22h-.938zm2.89 0v-8.594h1.063v8.594h-1.062zm7.282-2 1.094.125q-.25.953-.953 1.484-.704.532-1.782.532-1.36 0-2.172-.844-.796-.844-.796-2.36 0-1.562.812-2.421.813-.875 2.094-.875 1.25 0 2.031.843.797.844.797 2.391v.281h-4.64q.062 1.032.577 1.578.516.532 1.297.532.578 0 .985-.297.422-.313.656-.969zm-3.453-1.703h3.469q-.063-.797-.391-1.188-.516-.609-1.313-.609-.734 0-1.234.484-.484.485-.531 1.313zm5.781 1.844 1.031-.157q.094.625.485.954.406.328 1.14.328.719 0 1.063-.282.36-.296.36-.703 0-.36-.313-.562-.22-.14-1.078-.36-1.157-.296-1.61-.5-.437-.218-.672-.593-.234-.375-.234-.844 0-.406.187-.766.188-.36.516-.593.25-.172.672-.297.422-.125.922-.125.719 0 1.265.218.563.204.829.563.265.36.359.953l-1.031.14q-.063-.468-.407-.734-.328-.28-.953-.28-.718 0-1.031.25-.313.233-.313.562 0 .203.126.359.14.172.406.281.156.063.937.266 1.125.312 1.563.5.437.187.687.547.25.36.25.906 0 .531-.312 1-.297.453-.875.719-.578.25-1.313.25-1.218 0-1.86-.5-.624-.516-.796-1.5zm-69.25 42.101v-8.594h1.125v8.594zm2.672 0v-6.22h.937v.876q.688-1.016 1.985-1.016.562 0 1.031.203.484.203.719.532.234.328.328.765.047.297.047 1.031v3.829h-1.047v-3.782q0-.656-.125-.968-.125-.313-.438-.5-.312-.204-.734-.204-.672 0-1.172.438-.484.422-.484 1.61v3.406zm9.297-.938.156.922q-.453.094-.797.094-.578 0-.89-.172-.313-.188-.454-.485-.125-.296-.125-1.25v-3.578h-.765v-.812h.765v-1.547l1.047-.625v2.172h1.063v.812h-1.064v3.64q0 .454.047.579.063.125.188.203.125.078.359.078.188 0 .469-.031zm.672.938v-8.594h1.062v8.594zm3.328 0v-1.204h1.203v1.204zm2.781 0v-8.594h1.14v7.578h4.235v1.016zm6.922-7.375v-1.22h1.062v1.22zm0 7.375v-6.22h1.062v6.22zm2.578-1.86 1.031-.156q.094.625.485.953.406.328 1.14.328.719 0 1.063-.281.36-.297.36-.703 0-.36-.313-.563-.22-.14-1.079-.36-1.156-.296-1.609-.5-.437-.218-.672-.593-.234-.375-.234-.844 0-.406.187-.765.188-.36.516-.594.25-.172.672-.297.422-.125.922-.125.718 0 1.265.219.563.203.828.562.266.36.36.954l-1.031.14q-.063-.469-.407-.734-.328-.281-.953-.281-.719 0-1.031.25-.313.234-.313.562 0 .203.126.36.14.171.406.28.156.063.937.266 1.125.313 1.563.5.437.188.687.547.25.36.25.906 0 .532-.312 1-.297.454-.875.72-.578.25-1.313.25-1.219 0-1.86-.5-.624-.516-.796-1.5zm8.719.922.156.922q-.453.094-.797.094-.578 0-.89-.172-.313-.188-.454-.485-.125-.296-.125-1.25v-3.578h-.765v-.812h.765v-1.547l1.047-.625v2.172h1.063v.812h-1.063v3.64q0 .454.047.579.063.125.188.203.125.078.359.078.188 0 .469-.031zm.89.938v-8.594h5.797v1.015h-4.656v2.657h4.031v1.015h-4.031v3.907h-1.14zm6.422-3.11q0-1.734.953-2.562.797-.688 1.953-.688 1.282 0 2.094.844.828.828.828 2.312 0 1.204-.359 1.891-.36.688-1.063 1.078-.687.375-1.5.375-1.296 0-2.109-.828-.797-.844-.797-2.422zm1.078 0q0 1.188.516 1.781.531.594 1.313.594.796 0 1.312-.594.516-.593.516-1.812 0-1.156-.532-1.75-.515-.594-1.297-.594-.78 0-1.312.594-.516.578-.516 1.781zm6.297 3.11v-6.22h.953v.938q.36-.656.657-.86.312-.218.687-.218.531 0 1.078.328l-.36.985q-.39-.235-.765-.235-.36 0-.64.219-.266.203-.375.578-.188.563-.188 1.219v3.266zm4.016 0v-6.22h.937v.876q.297-.469.782-.735.484-.28 1.109-.28.688 0 1.125.28.453.282.625.797.75-1.078 1.922-1.078.937 0 1.422.516.5.5.5 1.578v4.266h-1.047v-3.922q0-.625-.11-.907-.093-.28-.359-.453-.265-.172-.64-.172-.657 0-1.094.438-.422.437-.422 1.406v3.61h-1.063v-4.047q0-.703-.265-1.047-.25-.36-.828-.36-.453 0-.828.235-.375.234-.547.687-.172.453-.172 1.297v3.235zm14.062-.766q-.593.5-1.14.703-.531.203-1.156.203-1.032 0-1.579-.5-.546-.5-.546-1.281 0-.453.203-.828.203-.39.547-.61.343-.234.765-.343.297-.094.938-.172 1.265-.14 1.875-.36v-.265q0-.656-.297-.922-.406-.344-1.203-.344-.735 0-1.094.266-.36.25-.531.906l-1.032-.14q.141-.657.47-1.063.327-.406.937-.625.609-.219 1.406-.219.797 0 1.297.188.5.187.734.468.235.282.328.72.047.265.047.968v1.406q0 1.469.063 1.86.078.39.28.75h-1.108q-.157-.329-.204-.766zm-.093-2.36q-.578.235-1.72.407-.655.094-.921.219-.266.109-.422.328-.14.218-.14.5 0 .422.312.703.328.281.938.281.609 0 1.078-.266.484-.265.703-.734.172-.36.172-1.047v-.39zm5.328 2.188.156.922q-.453.094-.797.094-.578 0-.89-.172-.313-.188-.454-.485-.125-.296-.125-1.25v-3.578h-.765v-.812h.765v-1.547l1.047-.625v2.172h1.063v.812h-1.063v3.64q0 .454.047.579.063.125.188.203.125.078.359.078.188 0 .469-.031zm-127.969 41.179v-8.594h1.125v8.594zm2.672 0v-6.219h.937v.875q.688-1.015 1.985-1.015.562 0 1.031.203.484.203.719.531.234.328.328.766.047.297.047 1.03v3.829h-1.047v-3.781q0-.656-.125-.969-.125-.312-.438-.5-.312-.203-.734-.203-.672 0-1.172.437-.484.422-.484 1.61v3.406zm9.297-.937.156.921q-.453.094-.797.094-.578 0-.89-.172-.313-.187-.454-.484-.125-.297-.125-1.25v-3.578h-.765v-.813h.765v-1.547l1.047-.625v2.172h1.063v.813h-1.064v3.64q0 .454.047.579.063.125.188.203.125.078.359.078.188 0 .469-.031zm.672.937v-8.594h1.062v8.594zm3.328 0v-1.203h1.203v1.203zm2.843 0v-8.594h3.813q1.156 0 1.75.235.594.234.953.828.36.578.36 1.281 0 .922-.594 1.547-.594.625-1.828.797.453.219.687.422.5.453.938 1.14l1.5 2.344h-1.438l-1.125-1.781q-.5-.781-.828-1.188-.313-.406-.578-.562-.25-.172-.516-.25-.187-.031-.625-.031h-1.328v3.812h-1.14zm1.141-4.797h2.453q.766 0 1.203-.156.453-.172.672-.516.235-.36.235-.781 0-.61-.454-1-.437-.39-1.39-.39h-2.719zm11.969 2.797 1.094.125q-.25.953-.954 1.484-.703.532-1.78.532-1.36 0-2.173-.844-.797-.844-.797-2.36 0-1.562.813-2.421.813-.875 2.094-.875 1.25 0 2.031.843.797.844.797 2.391v.281h-4.64q.062 1.032.577 1.578.516.532 1.297.532.578 0 .985-.297.421-.313.656-.969zm-3.453-1.703h3.468q-.062-.797-.39-1.188-.516-.609-1.313-.609-.734 0-1.234.484-.484.485-.531 1.313zm6.172 3.703v-8.594h1.062v8.594zm7.093-.766q-.593.5-1.14.704-.532.203-1.157.203-1.03 0-1.578-.5-.547-.5-.547-1.282 0-.453.204-.828.203-.39.546-.61.344-.233.766-.343.297-.094.938-.172 1.265-.14 1.875-.36v-.265q0-.656-.297-.922-.407-.343-1.203-.343-.735 0-1.094.265-.36.25-.531.907l-1.032-.141q.141-.656.47-1.063.327-.406.937-.625.609-.218 1.406-.218.797 0 1.297.187.5.188.734.469.234.281.328.719.047.265.047.968v1.407q0 1.468.063 1.859.078.39.28.75h-1.108q-.157-.328-.204-.766zm-.093-2.359q-.579.234-1.72.406-.655.094-.921.219-.266.11-.422.328-.14.219-.14.5 0 .422.312.703.328.282.938.282.609 0 1.078-.266.484-.266.703-.734.172-.36.172-1.047zm5.328 2.188.156.921q-.453.094-.797.094-.578 0-.89-.172-.313-.187-.454-.484-.125-.297-.125-1.25v-3.578h-.765v-.813h.765v-1.547l1.047-.625v2.172h1.063v.813h-1.064v3.64q0 .454.047.579.063.125.188.203.125.078.359.078.188 0 .469-.031zm.703-6.438v-1.219h1.062v1.219zm0 7.375v-6.219h1.062v6.219zm4.719 0-2.36-6.219h1.11l1.343 3.719q.203.61.391 1.25.14-.484.39-1.172l1.391-3.797h1.078l-2.359 6.219zm8.53-2 1.095.125q-.25.953-.954 1.484-.703.532-1.78.532-1.36 0-2.173-.844-.797-.844-.797-2.36 0-1.562.813-2.421.813-.875 2.094-.875 1.25 0 2.031.843.797.844.797 2.391v.281h-4.64q.062 1.032.577 1.578.516.532 1.297.532.578 0 .985-.297.421-.313.656-.969zm-3.452-1.703h3.468q-.062-.797-.39-1.188-.516-.609-1.313-.609-.734 0-1.234.484-.484.485-.531 1.313zm8.515 3.703v-7.578h-2.828v-1.016h6.813v1.016h-2.844v7.578h-1.14zm4.688-7.375v-1.219h1.062v1.219zm0 7.375v-6.219h1.062v6.219zm3 0v-6.219h.937v.875q.297-.468.782-.734.484-.281 1.109-.281.688 0 1.125.28.453.282.625.798.75-1.078 1.922-1.078.937 0 1.422.515.5.5.5 1.578v4.266h-1.047v-3.922q0-.625-.11-.906-.093-.281-.359-.453t-.64-.172q-.657 0-1.094.437-.422.438-.422 1.407v3.609h-1.063v-4.047q0-.703-.265-1.047-.25-.36-.828-.36-.454 0-.829.235-.374.235-.546.688-.172.453-.172 1.297v3.234zm14.25-2 1.094.125q-.25.953-.954 1.484-.703.532-1.78.532-1.36 0-2.173-.844-.797-.844-.797-2.36 0-1.562.813-2.421.813-.875 2.094-.875 1.25 0 2.031.843.797.844.797 2.391v.281h-4.64q.062 1.032.577 1.578.516.532 1.297.532.578 0 .985-.297.421-.313.656-.969zm-3.453-1.703h3.468q-.062-.797-.39-1.188-.516-.609-1.313-.609-.734 0-1.234.484-.484.485-.531 1.313zm6.39 3.703v-8.594h5.797v1.016h-4.656v2.656h4.031v1.016h-4.031v3.906h-1.14zm6.422-3.11q0-1.734.953-2.562.797-.687 1.953-.687 1.282 0 2.094.843.828.829.828 2.313 0 1.203-.359 1.89-.36.688-1.063 1.079-.687.375-1.5.375-1.296 0-2.109-.828-.797-.844-.797-2.422zm1.078 0q0 1.188.516 1.782.531.594 1.313.594.796 0 1.312-.594t.516-1.813q0-1.156-.532-1.75-.515-.593-1.297-.593-.78 0-1.312.593-.516.579-.516 1.782zm6.297 3.11v-6.219h.953v.938q.36-.656.657-.86.312-.218.687-.218.531 0 1.078.328l-.36.984q-.39-.234-.765-.234-.36 0-.64.219-.266.203-.375.578-.188.562-.188 1.218v3.266zm4.016 0v-6.219h.937v.875q.297-.468.782-.734.484-.281 1.109-.281.688 0 1.125.28.453.282.625.798.75-1.078 1.922-1.078.937 0 1.422.515.5.5.5 1.578v4.266h-1.047v-3.922q0-.625-.11-.906-.093-.281-.359-.453-.265-.172-.64-.172-.657 0-1.094.437-.422.438-.422 1.407v3.609h-1.063v-4.047q0-.703-.265-1.047-.25-.36-.828-.36-.453 0-.828.235-.375.235-.547.688-.172.453-.172 1.297v3.234zm14.062-.766q-.593.5-1.14.704-.531.203-1.156.203-1.032 0-1.579-.5-.546-.5-.546-1.282 0-.453.203-.828.203-.39.547-.61.343-.233.765-.343.297-.094.938-.172 1.265-.14 1.875-.36v-.265q0-.656-.297-.922-.406-.343-1.203-.343-.735 0-1.094.265-.36.25-.531.907l-1.032-.141q.141-.656.47-1.063.327-.406.937-.625.609-.218 1.406-.218.797 0 1.297.187.5.188.734.469.235.281.328.719.047.265.047.968v1.407q0 1.468.063 1.859.078.39.28.75h-1.108q-.157-.328-.204-.766zm-.093-2.359q-.578.234-1.72.406-.655.094-.921.219-.266.11-.422.328-.14.219-.14.5 0 .422.312.703.328.282.938.282.609 0 1.078-.266.484-.266.703-.734.172-.36.172-1.047zm5.328 2.188.156.921q-.453.094-.797.094-.578 0-.89-.172-.313-.187-.454-.484-.125-.297-.125-1.25v-3.578h-.765v-.813h.765v-1.547l1.047-.625v2.172h1.063v.813h-1.063v3.64q0 .454.047.579.063.125.188.203.125.078.359.078.188 0 .469-.031zm2.906 36.866q0-1.532.313-2.454.312-.937.921-1.437.625-.5 1.563-.5.687 0 1.203.281.531.281.875.813.344.515.531 1.265.188.75.188 2.032 0 1.515-.313 2.437-.297.922-.922 1.438-.609.5-1.562.5-1.234 0-1.953-.891-.844-1.063-.844-3.484zm1.078 0q0 2.109.5 2.812.5.703 1.219.703.734 0 1.219-.703.5-.703.5-2.812 0-2.125-.5-2.813-.485-.703-1.235-.703-.718 0-1.156.61-.547.78-.547 2.906zm100.102 1.984 1.11-.094q.124.813.562 1.219.453.406 1.094.406.75 0 1.28-.578.532-.578.532-1.516 0-.906-.516-1.421-.5-.532-1.328-.532-.5 0-.922.235-.406.234-.64.594l-.984-.125.828-4.407h4.28v1h-3.437l-.453 2.313q.766-.547 1.61-.547 1.125 0 1.89.781.781.781.781 2.016 0 1.156-.671 2.015-.828 1.032-2.25 1.032-1.172 0-1.922-.657-.735-.656-.844-1.734zm7-1.984q0-1.532.312-2.454.313-.937.922-1.437.625-.5 1.563-.5.687 0 1.203.281.531.281.875.813.344.515.531 1.265.188.75.188 2.032 0 1.515-.313 2.437-.297.922-.922 1.438-.609.5-1.562.5-1.235 0-1.953-.891-.844-1.063-.844-3.484zm1.078 0q0 2.109.5 2.812.5.703 1.219.703.734 0 1.219-.703.5-.703.5-2.812 0-2.125-.5-2.813-.485-.703-1.235-.703-.719 0-1.156.61-.547.78-.547 2.906zm5.922 0q0-1.532.312-2.454.313-.937.922-1.437.625-.5 1.563-.5.687 0 1.203.281.531.281.875.813.344.515.531 1.265.188.75.188 2.032 0 1.515-.313 2.437-.297.922-.922 1.438-.609.5-1.562.5-1.235 0-1.953-.891-.844-1.063-.844-3.484zm1.078 0q0 2.109.5 2.812.5.703 1.219.703.734 0 1.219-.703.5-.703.5-2.812 0-2.125-.5-2.813-.485-.703-1.235-.703-.719 0-1.156.61-.547.78-.547 2.906zm93.571 4.234h-1.047v-6.719q-.39.36-1.016.735-.61.359-1.093.53v-1.015q.875-.422 1.53-1 .673-.594.954-1.156h.672zm3.031-4.234q0-1.532.313-2.454.312-.937.921-1.437.625-.5 1.563-.5.687 0 1.203.281.531.281.875.813.344.515.531 1.265.188.75.188 2.032 0 1.515-.313 2.437-.297.922-.922 1.438-.609.5-1.562.5-1.234 0-1.953-.891-.844-1.063-.844-3.484zm1.078 0q0 2.109.5 2.812.5.703 1.219.703.734 0 1.219-.703.5-.703.5-2.812 0-2.125-.5-2.813-.485-.703-1.235-.703-.718 0-1.156.61-.547.78-.547 2.906zm5.922 0q0-1.532.313-2.454.312-.937.921-1.437.625-.5 1.563-.5.687 0 1.203.281.531.281.875.813.344.515.531 1.265.188.75.188 2.032 0 1.515-.313 2.437-.297.922-.922 1.438-.609.5-1.562.5-1.234 0-1.953-.891-.844-1.063-.844-3.484zm1.078 0q0 2.109.5 2.812.5.703 1.219.703.734 0 1.219-.703.5-.703.5-2.812 0-2.125-.5-2.813-.485-.703-1.235-.703-.718 0-1.156.61-.547.78-.547 2.906zm5.922 0q0-1.532.313-2.454.312-.937.921-1.437.625-.5 1.563-.5.687 0 1.203.281.531.281.875.813.344.515.531 1.265.188.75.188 2.032 0 1.515-.313 2.437-.297.922-.922 1.438-.609.5-1.562.5-1.234 0-1.953-.891-.844-1.063-.844-3.484zm1.078 0q0 2.109.5 2.812.5.703 1.219.703.734 0 1.219-.703.5-.703.5-2.812 0-2.125-.5-2.813-.485-.703-1.235-.703-.718 0-1.156.61-.547.78-.547 2.906zm90.071 4.234h-1.047v-6.719q-.39.36-1.016.735-.61.359-1.094.53v-1.015q.875-.422 1.532-1 .672-.594.953-1.156h.672zm3.031-2.25 1.11-.094q.124.813.562 1.219.453.406 1.094.406.75 0 1.28-.578.532-.578.532-1.516 0-.906-.516-1.421-.5-.532-1.328-.532-.5 0-.922.235-.406.234-.64.594l-.985-.125.829-4.407h4.28v1h-3.437l-.453 2.313q.766-.547 1.61-.547 1.125 0 1.89.781.781.781.781 2.016 0 1.156-.671 2.015-.829 1.032-2.25 1.032-1.172 0-1.922-.657-.735-.656-.844-1.734zm7-1.984q0-1.532.313-2.454.312-.937.921-1.437.625-.5 1.563-.5.687 0 1.203.281.531.281.875.813.344.515.531 1.265.188.75.188 2.032 0 1.515-.313 2.437-.297.922-.922 1.438-.609.5-1.562.5-1.235 0-1.953-.891-.844-1.063-.844-3.484zm1.078 0q0 2.109.5 2.812.5.703 1.219.703.734 0 1.219-.703.5-.703.5-2.812 0-2.125-.5-2.813-.485-.703-1.235-.703-.719 0-1.156.61-.547.78-.547 2.906zm5.922 0q0-1.532.313-2.454.312-.937.921-1.437.625-.5 1.563-.5.687 0 1.203.281.531.281.875.813.344.515.531 1.265.188.75.188 2.032 0 1.515-.313 2.437-.297.922-.922 1.438-.609.5-1.562.5-1.235 0-1.953-.891-.844-1.063-.844-3.484zm1.078 0q0 2.109.5 2.812.5.703 1.219.703.734 0 1.219-.703.5-.703.5-2.812 0-2.125-.5-2.813-.485-.703-1.235-.703-.719 0-1.156.61-.547.78-.547 2.906zm91.649 3.218v1.016h-5.688q0-.375.125-.734.22-.579.688-1.141.484-.563 1.39-1.297 1.407-1.156 1.891-1.828.5-.672.5-1.266 0-.625-.453-1.047-.453-.437-1.172-.437-.765 0-1.219.453-.453.453-.468 1.266l-1.078-.11q.109-1.218.828-1.843.734-.641 1.968-.641 1.235 0 1.953.688.72.687.72 1.703 0 .515-.22 1.015-.203.485-.703 1.047-.484.547-1.609 1.5-.953.797-1.234 1.094-.266.281-.438.562zm1.453-3.218q0-1.532.313-2.454.312-.937.921-1.437.625-.5 1.563-.5.687 0 1.203.281.531.281.875.813.344.515.531 1.265.188.75.188 2.032 0 1.515-.313 2.437-.297.922-.922 1.438-.609.5-1.562.5-1.235 0-1.953-.891-.844-1.063-.844-3.484zm1.078 0q0 2.109.5 2.812.5.703 1.219.703.734 0 1.219-.703.5-.703.5-2.812 0-2.125-.5-2.813-.485-.703-1.235-.703-.719 0-1.156.61-.547.78-.547 2.906zm5.922 0q0-1.532.313-2.454.312-.937.921-1.437.625-.5 1.563-.5.687 0 1.203.281.531.281.875.813.344.515.531 1.265.188.75.188 2.032 0 1.515-.313 2.437-.297.922-.922 1.438-.609.5-1.562.5-1.235 0-1.953-.891-.844-1.063-.844-3.484zm1.078 0q0 2.109.5 2.812.5.703 1.219.703.734 0 1.219-.703.5-.703.5-2.812 0-2.125-.5-2.813-.485-.703-1.235-.703-.719 0-1.156.61-.547.78-.547 2.906zm5.922 0q0-1.532.313-2.454.312-.937.921-1.437.625-.5 1.563-.5.687 0 1.203.281.531.281.875.813.344.515.531 1.265.188.75.188 2.032 0 1.515-.313 2.437-.297.922-.922 1.438-.609.5-1.562.5-1.235 0-1.953-.891-.844-1.063-.844-3.484zm1.078 0q0 2.109.5 2.812.5.703 1.219.703.734 0 1.219-.703.5-.703.5-2.812 0-2.125-.5-2.813-.485-.703-1.235-.703-.719 0-1.156.61-.547.78-.547 2.906zm91.649 3.218v1.016h-5.688q0-.375.125-.734.22-.579.688-1.141.484-.563 1.39-1.297 1.407-1.156 1.891-1.828.5-.672.5-1.266 0-.625-.453-1.047-.453-.437-1.172-.437-.765 0-1.219.453-.453.453-.468 1.266l-1.078-.11q.109-1.218.828-1.843.734-.641 1.968-.641 1.235 0 1.954.688.718.687.718 1.703 0 .515-.218 1.015-.204.485-.704 1.047-.484.547-1.609 1.5-.953.797-1.234 1.094-.266.281-.438.562zm1.453-1.234 1.11-.094q.124.813.562 1.219.453.406 1.094.406.75 0 1.28-.578.532-.578.532-1.516 0-.906-.515-1.421-.5-.532-1.329-.532-.5 0-.921.235-.407.234-.641.594l-.984-.125.828-4.407h4.28v1h-3.437l-.453 2.313q.766-.547 1.61-.547 1.125 0 1.89.781.782.781.782 2.016 0 1.156-.672 2.015-.828 1.032-2.25 1.032-1.172 0-1.922-.657-.735-.656-.844-1.734zm7-1.984q0-1.532.313-2.454.312-.937.921-1.437.625-.5 1.563-.5.687 0 1.203.281.531.281.875.813.344.515.531 1.265.188.75.188 2.032 0 1.515-.313 2.437-.297.922-.922 1.438-.609.5-1.562.5-1.234 0-1.953-.891-.844-1.063-.844-3.484zm1.078 0q0 2.109.5 2.812.5.703 1.219.703.734 0 1.219-.703.5-.703.5-2.812 0-2.125-.5-2.813-.485-.703-1.235-.703-.718 0-1.156.61-.547.78-.547 2.906zm5.922 0q0-1.532.313-2.454.312-.937.921-1.437.625-.5 1.563-.5.687 0 1.203.281.531.281.875.813.344.515.531 1.265.188.75.188 2.032 0 1.515-.313 2.437-.297.922-.922 1.438-.609.5-1.562.5-1.234 0-1.953-.891-.844-1.063-.844-3.484zm1.078 0q0 2.109.5 2.812.5.703 1.219.703.734 0 1.219-.703.5-.703.5-2.812 0-2.125-.5-2.813-.485-.703-1.235-.703-.718 0-1.156.61-.547.78-.547 2.906z" fill="#000"/><path d="m287.5 20.55a1 1 0 0 1 1-1h10a1 1 0 0 1 1 1v10a1 1 0 0 1 -1 1h-10a1 1 0 0 1 -1-1z" fill="#4285f4"/><path d="m310.875 29.55-3.328-8.594h1.234l2.235 6.25q.265.75.453 1.407.203-.704.469-1.407l2.312-6.25h1.156l-3.36 8.594zm6.75-4.656q-.656-.25-.984-.688-.313-.453-.313-1.062 0-.938.672-1.578.688-.641 1.797-.641 1.125 0 1.812.656.688.657.688 1.594 0 .594-.313 1.031-.312.438-.953.688.797.25 1.203.828.407.578.407 1.375 0 1.094-.782 1.844-.765.75-2.046.75-1.266 0-2.047-.75-.782-.75-.782-1.875 0-.844.422-1.407.438-.562 1.219-.765zm-.219-1.797q0 .61.39 1 .407.39 1.032.39.61 0 1-.374.39-.391.39-.954 0-.578-.406-.968-.406-.407-1-.407-.609 0-1.015.391-.39.39-.39.922zm-.328 3.969q0 .453.203.875.219.422.64.656.423.234.907.234.75 0 1.235-.484.5-.485.5-1.235 0-.765-.5-1.265-.5-.5-1.266-.5-.75 0-1.235.5-.484.484-.484 1.219zm10.938 2.484-2.36-6.219h1.11l1.343 3.719q.204.61.391 1.25.14-.484.39-1.172l1.391-3.797h1.078l-2.359 6.219zm4.046-7.469v-1.015h5.563v.828q-.813.875-1.625 2.328-.797 1.437-1.234 2.969-.329 1.078-.407 2.359h-1.093q.015-1.016.39-2.453.39-1.438 1.094-2.766.719-1.328 1.531-2.25zm7.532 7.469v-1.203h1.203v1.203zm2.406-2.266 1.063-.14q.171.89.609 1.297.437.39 1.062.39.75 0 1.266-.515.516-.516.516-1.282 0-.718-.485-1.187-.469-.485-1.203-.485-.297 0-.75.126l.125-.938q.11.016.172.016.672 0 1.203-.344.547-.36.547-1.094 0-.578-.39-.953-.391-.39-1.016-.39-.61 0-1.031.39-.407.39-.516 1.156l-1.063-.187q.188-1.047.875-1.625.688-.594 1.704-.594.703 0 1.296.313.594.296.907.812.312.516.312 1.11 0 .546-.297 1.015-.297.453-.875.719.75.172 1.172.734.422.547.422 1.39 0 1.126-.828 1.907-.813.781-2.063.781-1.125 0-1.875-.672-.75-.687-.859-1.75z" fill="#1a1a1a"/><path d="m364.5 20.55a1 1 0 0 1 1-1h10a1 1 0 0 1 1 1v10a1 1 0 0 1 -1 1h-10a1 1 0 0 1 -1-1z" fill="#0f9d58"/><path d="m387.875 29.55-3.328-8.594h1.234l2.235 6.25q.265.75.453 1.407.203-.704.469-1.407l2.312-6.25h1.156l-3.36 8.594zm6.75-4.656q-.656-.25-.984-.688-.313-.453-.313-1.062 0-.938.672-1.578.688-.641 1.797-.641 1.125 0 1.812.656.688.657.688 1.594 0 .594-.313 1.031-.312.438-.953.688.797.25 1.203.828.407.578.407 1.375 0 1.094-.782 1.844-.765.75-2.046.75-1.266 0-2.047-.75-.782-.75-.782-1.875 0-.844.422-1.407.438-.562 1.219-.765zm-.219-1.797q0 .61.39 1 .407.39 1.032.39.61 0 1-.374.39-.391.39-.954 0-.578-.406-.968-.406-.407-1-.407-.609 0-1.015.391-.39.39-.39.922zm-.328 3.969q0 .453.203.875.219.422.64.656.423.234.907.234.75 0 1.235-.484.5-.485.5-1.235 0-.765-.5-1.265-.5-.5-1.266-.5-.75 0-1.235.5-.484.484-.484 1.219zm10.938 2.484-2.36-6.219h1.11l1.343 3.719q.204.61.391 1.25.14-.484.39-1.172l1.391-3.797h1.078l-2.359 6.219zm4.046-7.469v-1.015h5.563v.828q-.813.875-1.625 2.328-.797 1.437-1.234 2.969-.329 1.078-.407 2.359h-1.093q.015-1.016.39-2.453.39-1.438 1.094-2.766.719-1.328 1.531-2.25zm7.532 7.469v-1.203h1.203v1.203zm5.781 0v-2.063h-3.719v-.968l3.922-5.563h.86v5.563h1.156v.969h-1.156v2.062zm0-3.031v-3.86l-2.688 3.86z" fill="#1a1a1a"/></svg>