<svg version="1.1" viewBox="0.0 0.0 600.0 371.0" fill="none" stroke="none" stroke-linecap="square" stroke-miterlimit="10" width="600" height="371" xmlns:xlink="http://www.w3.org/1999/xlink" xmlns="http://www.w3.org/2000/svg"><path fill="#ffffff" d="M0 0L600.0 0L600.0 371.0L0 371.0L0 0Z" fill-rule="nonzero"/><path stroke="#333333" stroke-width="1.0" stroke-linecap="butt" d="M45.5 332.5L581.5 332.5" fill-rule="nonzero"/><path stroke="#cccccc" stroke-width="1.0" stroke-linecap="butt" d="M45.5 283.5L581.5 283.5" fill-rule="nonzero"/><path stroke="#cccccc" stroke-width="1.0" stroke-linecap="butt" d="M45.5 234.5L581.5 234.5" fill-rule="nonzero"/><path stroke="#cccccc" stroke-width="1.0" stroke-linecap="butt" d="M45.5 185.5L581.5 185.5" fill-rule="nonzero"/><path stroke="#cccccc" stroke-width="1.0" stroke-linecap="butt" d="M45.5 137.5L581.5 137.5" fill-rule="nonzero"/><path stroke="#cccccc" stroke-width="1.0" stroke-linecap="butt" d="M45.5 88.5L581.5 88.5" fill-rule="nonzero"/><clipPath id="id_0"><path d="M45.55 88.28333L581.45 88.28333L581.45 332.45L45.55 332.45L45.55 88.28333Z" clip-rule="nonzero"/></clipPath><path stroke="#000000" stroke-width="2.0" stroke-linecap="butt" stroke-opacity="0.0" clip-path="url(#id_0)" d="M128.0 332.0L90.0 332.0L90.0 237.0C90.0 235.89543 90.89543 235.0 92.0 235.0L126.0 235.0C127.10457 235.0 128.0 235.89543 128.0 237.0Z" fill-rule="nonzero"/><path fill="#fbbc04" clip-path="url(#id_0)" d="M128.0 332.0L90.0 332.0L90.0 237.0C90.0 235.89543 90.89543 235.0 92.0 235.0L126.0 235.0C127.10457 235.0 128.0 235.89543 128.0 237.0Z" fill-rule="nonzero"/><path stroke="#000000" stroke-width="2.0" stroke-linecap="butt" stroke-opacity="0.0" clip-path="url(#id_0)" d="M251.0 332.0L213.0 332.0L213.0 237.0C213.0 235.89543 213.89543 235.0 215.0 235.0L249.0 235.0C250.10457 235.0 251.0 235.89543 251.0 237.0Z" fill-rule="nonzero"/><path fill="#fbbc04" clip-path="url(#id_0)" d="M251.0 332.0L213.0 332.0L213.0 237.0C213.0 235.89543 213.89543 235.0 215.0 235.0L249.0 235.0C250.10457 235.0 251.0 235.89543 251.0 237.0Z" fill-rule="nonzero"/><path stroke="#000000" stroke-width="2.0" stroke-linecap="butt" stroke-opacity="0.0" clip-path="url(#id_0)" d="M374.0 332.0L336.0 332.0L336.0 237.0C336.0 235.89543 336.89542 235.0 338.0 235.0L372.0 235.0C373.10458 235.0 374.0 235.89543 374.0 237.0Z" fill-rule="nonzero"/><path fill="#fbbc04" clip-path="url(#id_0)" d="M374.0 332.0L336.0 332.0L336.0 237.0C336.0 235.89543 336.89542 235.0 338.0 235.0L372.0 235.0C373.10458 235.0 374.0 235.89543 374.0 237.0Z" fill-rule="nonzero"/><path stroke="#000000" stroke-width="2.0" stroke-linecap="butt" stroke-opacity="0.0" clip-path="url(#id_0)" d="M497.0 332.0L459.0 332.0L459.0 237.0C459.0 235.89543 459.89542 235.0 461.0 235.0L495.0 235.0C496.10458 235.0 497.0 235.89543 497.0 237.0Z" fill-rule="nonzero"/><path fill="#fbbc04" clip-path="url(#id_0)" d="M497.0 332.0L459.0 332.0L459.0 237.0C459.0 235.89543 459.89542 235.0 461.0 235.0L495.0 235.0C496.10458 235.0 497.0 235.89543 497.0 237.0Z" fill-rule="nonzero"/><path stroke="#000000" stroke-width="2.0" stroke-linecap="butt" stroke-opacity="0.0" clip-path="url(#id_0)" d="M168.0 332.0L130.0 332.0L130.0 167.0C130.0 165.89543 130.89543 165.0 132.0 165.0L166.0 165.0C167.10457 165.0 168.0 165.89543 168.0 167.0Z" fill-rule="nonzero"/><path fill="#34a853" clip-path="url(#id_0)" d="M168.0 332.0L130.0 332.0L130.0 167.0C130.0 165.89543 130.89543 165.0 132.0 165.0L166.0 165.0C167.10457 165.0 168.0 165.89543 168.0 167.0Z" fill-rule="nonzero"/><path stroke="#000000" stroke-width="2.0" stroke-linecap="butt" stroke-opacity="0.0" clip-path="url(#id_0)" d="M291.0 332.0L253.0 332.0L253.0 141.0C253.0 139.89543 253.89543 139.0 255.0 139.0L289.0 139.0C290.10458 139.0 291.0 139.89543 291.0 141.0Z" fill-rule="nonzero"/><path fill="#34a853" clip-path="url(#id_0)" d="M291.0 332.0L253.0 332.0L253.0 141.0C253.0 139.89543 253.89543 139.0 255.0 139.0L289.0 139.0C290.10458 139.0 291.0 139.89543 291.0 141.0Z" fill-rule="nonzero"/><path stroke="#000000" stroke-width="2.0" stroke-linecap="butt" stroke-opacity="0.0" clip-path="url(#id_0)" d="M414.0 332.0L376.0 332.0L376.0 107.0C376.0 105.89543 376.89542 105.0 378.0 105.0L412.0 105.0C413.10458 105.0 414.0 105.89543 414.0 107.0Z" fill-rule="nonzero"/><path fill="#34a853" clip-path="url(#id_0)" d="M414.0 332.0L376.0 332.0L376.0 107.0C376.0 105.89543 376.89542 105.0 378.0 105.0L412.0 105.0C413.10458 105.0 414.0 105.89543 414.0 107.0Z" fill-rule="nonzero"/><path stroke="#000000" stroke-width="2.0" stroke-linecap="butt" stroke-opacity="0.0" clip-path="url(#id_0)" d="M537.0 332.0L499.0 332.0L499.0 191.0C499.0 189.89543 499.89542 189.0 501.0 189.0L535.0 189.0C536.10455 189.0 537.0 189.89543 537.0 191.0Z" fill-rule="nonzero"/><path fill="#34a853" clip-path="url(#id_0)" d="M537.0 332.0L499.0 332.0L499.0 191.0C499.0 189.89543 499.89542 189.0 501.0 189.0L535.0 189.0C536.10455 189.0 537.0 189.89543 537.0 191.0Z" fill-rule="nonzero"/><path fill="#000000" d="M23.05 332.21564Q23.05 330.6844 23.3625 329.7625Q23.675 328.825 24.284374 328.325Q24.909374 327.825 25.846874 327.825Q26.534374 327.825 27.05 328.10626Q27.58125 328.3875 27.925 328.91876Q28.26875 329.4344 28.45625 330.1844Q28.64375 330.9344 28.64375 332.21564Q28.64375 333.73126 28.33125 334.65314Q28.034374 335.575 27.409374 336.09064Q26.8 336.59064 25.846874 336.59064Q24.6125 336.59064 23.89375 335.7Q23.05 334.6375 23.05 332.21564ZM24.128124 332.21564Q24.128124 334.325 24.628124 335.02814Q25.128124 335.73126 25.846874 335.73126Q26.58125 335.73126 27.065624 335.02814Q27.565624 334.325 27.565624 332.21564Q27.565624 330.09064 27.065624 329.40314Q26.58125 328.7 25.83125 328.7Q25.1125 328.7 24.675 329.3094Q24.128124 330.09064 24.128124 332.21564ZM30.64375 336.45L30.64375 335.2469L31.846874 335.2469L31.846874 336.45L30.64375 336.45ZM33.05 332.21564Q33.05 330.6844 33.3625 329.7625Q33.675 328.825 34.284374 328.325Q34.909374 327.825 35.846874 327.825Q36.534374 327.825 37.05 328.10626Q37.58125 328.3875 37.925 328.91876Q38.26875 329.4344 38.45625 330.1844Q38.64375 330.9344 38.64375 332.21564Q38.64375 333.73126 38.33125 334.65314Q38.034374 335.575 37.409374 336.09064Q36.8 336.59064 35.846874 336.59064Q34.6125 336.59064 33.89375 335.7Q33.05 334.6375 33.05 332.21564ZM34.128124 332.21564Q34.128124 334.325 34.628124 335.02814Q35.128124 335.73126 35.846874 335.73126Q36.58125 335.73126 37.065624 335.02814Q37.565624 334.325 37.565624 332.21564Q37.565624 330.09064 37.065624 329.40314Q36.58125 328.7 35.83125 328.7Q35.1125 328.7 34.675 329.3094Q34.128124 330.09064 34.128124 332.21564Z" fill-rule="nonzero"/><path fill="#000000" d="M23.05 283.3823Q23.05 281.85104 23.3625 280.92917Q23.675 279.99167 24.284374 279.49167Q24.909374 278.99167 25.846874 278.99167Q26.534374 278.99167 27.05 279.27292Q27.58125 279.55417 27.925 280.08542Q28.26875 280.60104 28.45625 281.35104Q28.64375 282.10104 28.64375 283.3823Q28.64375 284.89792 28.33125 285.8198Q28.034374 286.74167 27.409374 287.2573Q26.8 287.7573 25.846874 287.7573Q24.6125 287.7573 23.89375 286.86667Q23.05 285.80417 23.05 283.3823ZM24.128124 283.3823Q24.128124 285.49167 24.628124 286.1948Q25.128124 286.89792 25.846874 286.89792Q26.58125 286.89792 27.065624 286.1948Q27.565624 285.49167 27.565624 283.3823Q27.565624 281.2573 27.065624 280.5698Q26.58125 279.86667 25.83125 279.86667Q25.1125 279.86667 24.675 280.47604Q24.128124 281.2573 24.128124 283.3823ZM30.64375 287.61667L30.64375 286.41354L31.846874 286.41354L31.846874 287.61667L30.64375 287.61667ZM33.05 285.36667L34.159374 285.27292Q34.284374 286.08542 34.721874 286.49167Q35.175 286.89792 35.815624 286.89792Q36.565624 286.89792 37.096874 286.3198Q37.628124 285.74167 37.628124 284.80417Q37.628124 283.89792 37.1125 283.3823Q36.6125 282.85104 35.784374 282.85104Q35.284374 282.85104 34.8625 283.08542Q34.45625 283.3198 34.221874 283.67917L33.2375 283.55417L34.065624 279.14792L38.346874 279.14792L38.346874 280.14792L34.909374 280.14792L34.45625 282.46042Q35.221874 281.91354 36.065624 281.91354Q37.190624 281.91354 37.95625 282.6948Q38.7375 283.47604 38.7375 284.71042Q38.7375 285.86667 38.065624 286.72604Q37.2375 287.7573 35.815624 287.7573Q34.64375 287.7573 33.89375 287.10104Q33.159374 286.4448 33.05 285.36667Z" fill-rule="nonzero"/><path fill="#000000" d="M27.01875 238.78334L25.971874 238.78334L25.971874 232.06459Q25.58125 232.42397 24.95625 232.79897Q24.346874 233.15834 23.8625 233.33022L23.8625 232.31459Q24.7375 231.89272 25.39375 231.31459Q26.065624 230.72084 26.346874 230.15834L27.01875 230.15834L27.01875 238.78334ZM30.64375 238.78334L30.64375 237.58022L31.846874 237.58022L31.846874 238.78334L30.64375 238.78334ZM33.05 234.54897Q33.05 233.01772 33.3625 232.09584Q33.675 231.15834 34.284374 230.65834Q34.909374 230.15834 35.846874 230.15834Q36.534374 230.15834 37.05 230.43959Q37.58125 230.72084 37.925 231.25209Q38.26875 231.76772 38.45625 232.51772Q38.64375 233.26772 38.64375 234.54897Q38.64375 236.06459 38.33125 236.98647Q38.034374 237.90834 37.409374 238.42397Q36.8 238.92397 35.846874 238.92397Q34.6125 238.92397 33.89375 238.03334Q33.05 236.97084 33.05 234.54897ZM34.128124 234.54897Q34.128124 236.65834 34.628124 237.36147Q35.128124 238.06459 35.846874 238.06459Q36.58125 238.06459 37.065624 237.36147Q37.565624 236.65834 37.565624 234.54897Q37.565624 232.42397 37.065624 231.73647Q36.58125 231.03334 35.83125 231.03334Q35.1125 231.03334 34.675 231.64272Q34.128124 232.42397 34.128124 234.54897Z" fill-rule="nonzero"/><path fill="#000000" d="M27.01875 189.95L25.971874 189.95L25.971874 183.23125Q25.58125 183.59062 24.95625 183.96562Q24.346874 184.325 23.8625 184.49687L23.8625 183.48125Q24.7375 183.05937 25.39375 182.48125Q26.065624 181.8875 26.346874 181.325L27.01875 181.325L27.01875 189.95ZM30.64375 189.95L30.64375 188.74687L31.846874 188.74687L31.846874 189.95L30.64375 189.95ZM33.05 187.7L34.159374 187.60625Q34.284374 188.41875 34.721874 188.825Q35.175 189.23125 35.815624 189.23125Q36.565624 189.23125 37.096874 188.65312Q37.628124 188.075 37.628124 187.1375Q37.628124 186.23125 37.1125 185.71562Q36.6125 185.18437 35.784374 185.18437Q35.284374 185.18437 34.8625 185.41875Q34.45625 185.65312 34.221874 186.0125L33.2375 185.8875L34.065624 181.48125L38.346874 181.48125L38.346874 182.48125L34.909374 182.48125L34.45625 184.79375Q35.221874 184.24687 36.065624 184.24687Q37.190624 184.24687 37.95625 185.02812Q38.7375 185.80937 38.7375 187.04375Q38.7375 188.2 38.065624 189.05937Q37.2375 190.09062 35.815624 190.09062Q34.64375 190.09062 33.89375 189.43437Q33.159374 188.77812 33.05 187.7Z" fill-rule="nonzero"/><path fill="#000000" d="M28.596874 140.10104L28.596874 141.11667L22.909374 141.11667Q22.909374 140.74167 23.034374 140.3823Q23.253124 139.80417 23.721874 139.24167Q24.20625 138.67917 25.1125 137.9448Q26.51875 136.78854 27.003124 136.11667Q27.503124 135.4448 27.503124 134.85104Q27.503124 134.22604 27.05 133.80417Q26.596874 133.36667 25.878124 133.36667Q25.1125 133.36667 24.659374 133.8198Q24.20625 134.27292 24.190624 135.08542L23.1125 134.97604Q23.221874 133.7573 23.940624 133.1323Q24.675 132.49167 25.909374 132.49167Q27.14375 132.49167 27.8625 133.17917Q28.58125 133.86667 28.58125 134.8823Q28.58125 135.39792 28.3625 135.89792Q28.159374 136.3823 27.659374 136.9448Q27.175 137.49167 26.05 138.4448Q25.096874 139.24167 24.815624 139.53854Q24.55 139.8198 24.378124 140.10104L28.596874 140.10104ZM30.64375 141.11667L30.64375 139.91354L31.846874 139.91354L31.846874 141.11667L30.64375 141.11667ZM33.05 136.8823Q33.05 135.35104 33.3625 134.42917Q33.675 133.49167 34.284374 132.99167Q34.909374 132.49167 35.846874 132.49167Q36.534374 132.49167 37.05 132.77292Q37.58125 133.05417 37.925 133.58542Q38.26875 134.10104 38.45625 134.85104Q38.64375 135.60104 38.64375 136.8823Q38.64375 138.39792 38.33125 139.3198Q38.034374 140.24167 37.409374 140.7573Q36.8 141.2573 35.846874 141.2573Q34.6125 141.2573 33.89375 140.36667Q33.05 139.30417 33.05 136.8823ZM34.128124 136.8823Q34.128124 138.99167 34.628124 139.6948Q35.128124 140.39792 35.846874 140.39792Q36.58125 140.39792 37.065624 139.6948Q37.565624 138.99167 37.565624 136.8823Q37.565624 134.7573 37.065624 134.0698Q36.58125 133.36667 35.83125 133.36667Q35.1125 133.36667 34.675 133.97604Q34.128124 134.7573 34.128124 136.8823Z" fill-rule="nonzero"/><path fill="#000000" d="M28.596874 91.26771L28.596874 92.28333L22.909374 92.28333Q22.909374 91.90833 23.034374 91.54896Q23.253124 90.97083 23.721874 90.40833Q24.20625 89.84583 25.1125 89.11146Q26.51875 87.95521 27.003124 87.28333Q27.503124 86.61146 27.503124 86.01771Q27.503124 85.39271 27.05 84.97083Q26.596874 84.53333 25.878124 84.53333Q25.1125 84.53333 24.659374 84.98646Q24.20625 85.43958 24.190624 86.25208L23.1125 86.14271Q23.221874 84.92396 23.940624 84.29896Q24.675 83.65833 25.909374 83.65833Q27.14375 83.65833 27.8625 84.34583Q28.58125 85.03333 28.58125 86.04896Q28.58125 86.56458 28.3625 87.06458Q28.159374 87.54896 27.659374 88.11146Q27.175 88.65833 26.05 89.61146Q25.096874 90.40833 24.815624 90.70521Q24.55 90.98646 24.378124 91.26771L28.596874 91.26771ZM30.64375 92.28333L30.64375 91.08021L31.846874 91.08021L31.846874 92.28333L30.64375 92.28333ZM33.05 90.03333L34.159374 89.93958Q34.284374 90.75208 34.721874 91.15833Q35.175 91.56458 35.815624 91.56458Q36.565624 91.56458 37.096874 90.98646Q37.628124 90.40833 37.628124 89.47083Q37.628124 88.56458 37.1125 88.04896Q36.6125 87.51771 35.784374 87.51771Q35.284374 87.51771 34.8625 87.75208Q34.45625 87.98646 34.221874 88.34583L33.2375 88.22083L34.065624 83.81458L38.346874 83.81458L38.346874 84.81458L34.909374 84.81458L34.45625 87.12708Q35.221874 86.58021 36.065624 86.58021Q37.190624 86.58021 37.95625 87.36146Q38.7375 88.14271 38.7375 89.37708Q38.7375 90.53333 38.065624 91.39271Q37.2375 92.42396 35.815624 92.42396Q34.64375 92.42396 33.89375 91.76771Q33.159374 91.11146 33.05 90.03333Z" fill-rule="nonzero"/><path fill="#000000" d="M111.581894 349.45L111.581894 340.85626L114.81627 340.85626Q115.800644 340.85626 116.394394 341.1219Q116.988144 341.3875 117.31627 341.9344Q117.66002 342.46564 117.66002 343.0594Q117.66002 343.60626 117.363144 344.09064Q117.06627 344.575 116.456894 344.8719Q117.238144 345.10626 117.644394 345.66876Q118.06627 346.21564 118.06627 346.96564Q118.06627 347.5594 117.81627 348.09064Q117.56627 348.60626 117.19127 348.8875Q116.81627 349.16876 116.238144 349.3094Q115.675644 349.45 114.863144 349.45L111.581894 349.45ZM112.72252 344.46564L114.581894 344.46564Q115.331894 344.46564 115.66002 344.3719Q116.09752 344.2469 116.31627 343.95Q116.53502 343.6375 116.53502 343.1844Q116.53502 342.7625 116.331894 342.4344Q116.12877 342.10626 115.738144 341.9969Q115.363144 341.8719 114.44127 341.8719L112.72252 341.8719L112.72252 344.46564ZM112.72252 348.4344L114.863144 348.4344Q115.41002 348.4344 115.62877 348.3875Q116.03502 348.325 116.28502 348.16876Q116.550644 347.9969 116.72252 347.6844Q116.894394 347.3719 116.894394 346.96564Q116.894394 346.48126 116.644394 346.1219Q116.41002 345.7625 115.97252 345.6219Q115.53502 345.48126 114.706894 345.48126L112.72252 345.48126L112.72252 348.4344ZM119.113144 346.34064Q119.113144 344.60626 120.06627 343.77814Q120.863144 343.09064 122.019394 343.09064Q123.300644 343.09064 124.113144 343.9344Q124.94127 344.7625 124.94127 346.2469Q124.94127 347.45 124.581894 348.1375Q124.22252 348.825 123.519394 349.21564Q122.831894 349.59064 122.019394 349.59064Q120.72252 349.59064 119.91002 348.7625Q119.113144 347.91876 119.113144 346.34064ZM120.19127 346.34064Q120.19127 347.52814 120.706894 348.1219Q121.238144 348.71564 122.019394 348.71564Q122.81627 348.71564 123.331894 348.1219Q123.84752 347.52814 123.84752 346.3094Q123.84752 345.15314 123.31627 344.5594Q122.800644 343.96564 122.019394 343.96564Q121.238144 343.96564 120.706894 344.5594Q120.19127 345.1375 120.19127 346.34064ZM125.800644 349.45L128.06627 346.21564L125.97252 343.23126L127.28502 343.23126L128.23814 344.6844Q128.50377 345.10626 128.67564 345.3875Q128.92564 344.9969 129.1444 344.7L130.19127 343.23126L131.4569 343.23126L129.30064 346.15314L131.61314 349.45L130.3319 349.45L129.05064 347.5125L128.7069 346.9969L127.06627 349.45L125.800644 349.45ZM136.75377 348.4344L136.75377 349.45L131.06627 349.45Q131.06627 349.075 131.19127 348.71564Q131.41002 348.1375 131.87877 347.575Q132.36314 347.0125 133.2694 346.27814Q134.67564 345.1219 135.16002 344.45Q135.66002 343.77814 135.66002 343.1844Q135.66002 342.5594 135.2069 342.1375Q134.75377 341.7 134.03502 341.7Q133.2694 341.7 132.81627 342.15314Q132.36314 342.60626 132.34752 343.41876L131.2694 343.3094Q131.37877 342.09064 132.09752 341.46564Q132.8319 340.825 134.06627 340.825Q135.30064 340.825 136.0194 341.5125Q136.73814 342.2 136.73814 343.21564Q136.73814 343.73126 136.5194 344.23126Q136.31627 344.71564 135.81627 345.27814Q135.3319 345.825 134.2069 346.77814Q133.25377 347.575 132.97252 347.8719Q132.7069 348.15314 132.53502 348.4344L136.75377 348.4344ZM138.62877 349.45L138.62877 340.85626L141.59752 340.85626Q142.59752 340.85626 143.12877 340.98126Q143.86314 341.15314 144.37877 341.59064Q145.06627 342.16876 145.3944 343.075Q145.73814 343.96564 145.73814 345.10626Q145.73814 346.09064 145.50377 346.84064Q145.28502 347.59064 144.92564 348.09064Q144.56627 348.59064 144.12877 348.8719Q143.7069 349.15314 143.11314 349.3094Q142.5194 349.45 141.73814 349.45L138.62877 349.45ZM139.7694 348.4344L141.59752 348.4344Q142.4569 348.4344 142.94127 348.27814Q143.42564 348.1219 143.7069 347.825Q144.11314 347.4344 144.3319 346.7469Q144.56627 346.0594 144.56627 345.09064Q144.56627 343.7469 144.11314 343.02814Q143.67564 342.29376 143.05064 342.04376Q142.5819 341.8719 141.5819 341.8719L139.7694 341.8719L139.7694 348.4344Z" fill-rule="nonzero"/><path fill="#000000" d="M225.82417 349.45L225.82417 340.85626L228.79292 340.85626Q229.79292 340.85626 230.32417 340.98126Q231.05855 341.15314 231.57417 341.59064Q232.26167 342.16876 232.5898 343.075Q232.93355 343.96564 232.93355 345.10626Q232.93355 346.09064 232.69917 346.84064Q232.48042 347.59064 232.12105 348.09064Q231.76167 348.59064 231.32417 348.8719Q230.9023 349.15314 230.30855 349.3094Q229.7148 349.45 228.93355 349.45L225.82417 349.45ZM226.9648 348.4344L228.79292 348.4344Q229.6523 348.4344 230.13667 348.27814Q230.62105 348.1219 230.9023 347.825Q231.30855 347.4344 231.5273 346.7469Q231.76167 346.0594 231.76167 345.09064Q231.76167 343.7469 231.30855 343.02814Q230.87105 342.29376 230.24605 342.04376Q229.7773 341.8719 228.7773 341.8719L226.9648 341.8719L226.9648 348.4344ZM238.94917 347.45L240.04292 347.575Q239.79292 348.52814 239.0898 349.0594Q238.38667 349.59064 237.30855 349.59064Q235.94917 349.59064 235.13667 348.7469Q234.3398 347.90314 234.3398 346.3875Q234.3398 344.825 235.1523 343.96564Q235.9648 343.09064 237.24605 343.09064Q238.49605 343.09064 239.2773 343.9344Q240.07417 344.77814 240.07417 346.325Q240.07417 346.41876 240.07417 346.60626L235.43355 346.60626Q235.49605 347.6375 236.01167 348.1844Q236.5273 348.71564 237.30855 348.71564Q237.88667 348.71564 238.29292 348.41876Q238.7148 348.10626 238.94917 347.45ZM235.49605 345.7469L238.9648 345.7469Q238.9023 344.95 238.57417 344.5594Q238.05855 343.95 237.26167 343.95Q236.5273 343.95 236.0273 344.4344Q235.54292 344.91876 235.49605 345.7469ZM241.66792 349.45L241.66792 340.85626L242.73042 340.85626L242.73042 349.45L241.66792 349.45ZM246.99605 348.5125L247.1523 349.4344Q246.69917 349.52814 246.35542 349.52814Q245.7773 349.52814 245.4648 349.35626Q245.1523 349.16876 245.01167 348.8719Q244.88667 348.575 244.88667 347.6219L244.88667 344.04376L244.12105 344.04376L244.12105 343.23126L244.88667 343.23126L244.88667 341.6844L245.93355 341.0594L245.93355 343.23126L246.99605 343.23126L246.99605 344.04376L245.93355 344.04376L245.93355 347.6844Q245.93355 348.1375 245.98042 348.2625Q246.04292 348.3875 246.16792 348.46564Q246.29292 348.54376 246.5273 348.54376Q246.7148 348.54376 246.99605 348.5125ZM251.76167 348.6844Q251.16792 349.1844 250.62105 349.3875Q250.0898 349.59064 249.4648 349.59064Q248.43355 349.59064 247.88667 349.09064Q247.3398 348.59064 247.3398 347.8094Q247.3398 347.35626 247.54292 346.98126Q247.74605 346.59064 248.0898 346.3719Q248.43355 346.1375 248.85542 346.02814Q249.1523 345.9344 249.79292 345.85626Q251.05855 345.71564 251.66792 345.4969Q251.66792 345.27814 251.66792 345.23126Q251.66792 344.575 251.37105 344.3094Q250.9648 343.96564 250.16792 343.96564Q249.43355 343.96564 249.07417 344.23126Q248.7148 344.48126 248.54292 345.1375L247.51167 344.9969Q247.6523 344.34064 247.98042 343.9344Q248.30855 343.52814 248.91792 343.3094Q249.5273 343.09064 250.32417 343.09064Q251.12105 343.09064 251.62105 343.27814Q252.12105 343.46564 252.35542 343.7469Q252.5898 344.02814 252.68355 344.46564Q252.73042 344.73126 252.73042 345.4344L252.73042 346.84064Q252.73042 348.3094 252.79292 348.7Q252.87105 349.09064 253.07417 349.45L251.9648 349.45Q251.80855 349.1219 251.76167 348.6844ZM251.66792 346.325Q251.0898 346.5594 249.94917 346.73126Q249.29292 346.825 249.0273 346.95Q248.76167 347.0594 248.60542 347.27814Q248.4648 347.4969 248.4648 347.77814Q248.4648 348.2 248.7773 348.48126Q249.10542 348.7625 249.7148 348.7625Q250.32417 348.7625 250.79292 348.4969Q251.2773 348.23126 251.49605 347.7625Q251.66792 347.40314 251.66792 346.71564L251.66792 346.325ZM254.7773 349.45L254.7773 340.85626L258.01166 340.85626Q258.99603 340.85626 259.58978 341.1219Q260.18353 341.3875 260.51166 341.9344Q260.8554 342.46564 260.8554 343.0594Q260.8554 343.60626 260.55853 344.09064Q260.26166 344.575 259.65228 344.8719Q260.43353 345.10626 260.83978 345.66876Q261.26166 346.21564 261.26166 346.96564Q261.26166 347.5594 261.01166 348.09064Q260.76166 348.60626 260.38666 348.8875Q260.01166 349.16876 259.43353 349.3094Q258.87103 349.45 258.05853 349.45L254.7773 349.45ZM255.91792 344.46564L257.77728 344.46564Q258.52728 344.46564 258.8554 344.3719Q259.2929 344.2469 259.51166 343.95Q259.7304 343.6375 259.7304 343.1844Q259.7304 342.7625 259.52728 342.4344Q259.32416 342.10626 258.93353 341.9969Q258.55853 341.8719 257.63666 341.8719L255.91792 341.8719L255.91792 344.46564ZM255.91792 348.4344L258.05853 348.4344Q258.6054 348.4344 258.82416 348.3875Q259.2304 348.325 259.4804 348.16876Q259.74603 347.9969 259.9179 347.6844Q260.08978 347.3719 260.08978 346.96564Q260.08978 346.48126 259.83978 346.1219Q259.6054 345.7625 259.1679 345.6219Q258.7304 345.48126 257.90228 345.48126L255.91792 345.48126L255.91792 348.4344ZM262.6679 349.45L262.6679 340.85626L263.7304 340.85626L263.7304 349.45L262.6679 349.45ZM269.77728 349.45L269.77728 348.52814Q269.0429 349.59064 267.7929 349.59064Q267.24603 349.59064 266.76166 349.3875Q266.2929 349.16876 266.05853 348.85626Q265.82416 348.52814 265.7304 348.0594Q265.6679 347.7625 265.6679 347.075L265.6679 343.23126L266.7304 343.23126L266.7304 346.6844Q266.7304 347.4969 266.7929 347.79376Q266.88666 348.2 267.19916 348.45Q267.52728 348.6844 268.01166 348.6844Q268.4804 348.6844 268.88666 348.45Q269.30853 348.2 269.4804 347.77814Q269.6679 347.35626 269.6679 346.5594L269.6679 343.23126L270.71478 343.23126L270.71478 349.45L269.77728 349.45ZM276.94916 347.45L278.0429 347.575Q277.7929 348.52814 277.08978 349.0594Q276.38666 349.59064 275.30853 349.59064Q273.94916 349.59064 273.13666 348.7469Q272.33978 347.90314 272.33978 346.3875Q272.33978 344.825 273.15228 343.96564Q273.96478 343.09064 275.24603 343.09064Q276.49603 343.09064 277.27728 343.9344Q278.07416 344.77814 278.07416 346.325Q278.07416 346.41876 278.07416 346.60626L273.43353 346.60626Q273.49603 347.6375 274.01166 348.1844Q274.52728 348.71564 275.30853 348.71564Q275.88666 348.71564 276.2929 348.41876Q276.71478 348.10626 276.94916 347.45ZM273.49603 345.7469L276.96478 345.7469Q276.90228 344.95 276.57416 344.5594Q276.05853 343.95 275.26166 343.95Q274.52728 343.95 274.02728 344.4344Q273.5429 344.91876 273.49603 345.7469Z" fill-rule="nonzero"/><path fill="#000000" d="M350.0352 349.45L350.0352 340.85626L353.8477 340.85626Q355.00394 340.85626 355.5977 341.09064Q356.19144 341.325 356.5508 341.91876Q356.9102 342.4969 356.9102 343.2Q356.9102 344.1219 356.31644 344.7469Q355.7227 345.3719 354.4883 345.54376Q354.94144 345.7625 355.1758 345.96564Q355.6758 346.41876 356.1133 347.10626L357.6133 349.45L356.1758 349.45L355.0508 347.66876Q354.5508 346.8875 354.2227 346.48126Q353.9102 346.075 353.64456 345.91876Q353.39456 345.7469 353.12894 345.66876Q352.94144 345.6375 352.50394 345.6375L351.1758 345.6375L351.1758 349.45L350.0352 349.45ZM351.1758 344.65314L353.62894 344.65314Q354.39456 344.65314 354.83206 344.4969Q355.2852 344.325 355.50394 343.98126Q355.7383 343.6219 355.7383 343.2Q355.7383 342.59064 355.2852 342.2Q354.8477 341.8094 353.89456 341.8094L351.1758 341.8094L351.1758 344.65314ZM362.95706 348.6844Q362.3633 349.1844 361.81644 349.3875Q361.2852 349.59064 360.6602 349.59064Q359.62894 349.59064 359.08206 349.09064Q358.5352 348.59064 358.5352 347.8094Q358.5352 347.35626 358.7383 346.98126Q358.94144 346.59064 359.2852 346.3719Q359.62894 346.1375 360.0508 346.02814Q360.3477 345.9344 360.9883 345.85626Q362.25394 345.71564 362.8633 345.4969Q362.8633 345.27814 362.8633 345.23126Q362.8633 344.575 362.56644 344.3094Q362.1602 343.96564 361.3633 343.96564Q360.62894 343.96564 360.26956 344.23126Q359.9102 344.48126 359.7383 345.1375L358.70706 344.9969Q358.8477 344.34064 359.1758 343.9344Q359.50394 343.52814 360.1133 343.3094Q360.7227 343.09064 361.51956 343.09064Q362.31644 343.09064 362.81644 343.27814Q363.31644 343.46564 363.5508 343.7469Q363.7852 344.02814 363.87894 344.46564Q363.9258 344.73126 363.9258 345.4344L363.9258 346.84064Q363.9258 348.3094 363.9883 348.7Q364.06644 349.09064 364.26956 349.45L363.1602 349.45Q363.00394 349.1219 362.95706 348.6844ZM362.8633 346.325Q362.2852 346.5594 361.14456 346.73126Q360.4883 346.825 360.2227 346.95Q359.95706 347.0594 359.8008 347.27814Q359.6602 347.4969 359.6602 347.77814Q359.6602 348.2 359.9727 348.48126Q360.3008 348.7625 360.9102 348.7625Q361.51956 348.7625 361.9883 348.4969Q362.4727 348.23126 362.69144 347.7625Q362.8633 347.40314 362.8633 346.71564L362.8633 346.325ZM365.8477 351.84064L365.7227 350.85626Q366.06644 350.95 366.33206 350.95Q366.6758 350.95 366.87894 350.825Q367.0977 350.71564 367.2383 350.5125Q367.33206 350.34064 367.56644 349.71564Q367.58206 349.6375 367.6602 349.46564L365.2852 343.23126L366.4258 343.23126L367.7227 346.825Q367.9727 347.5125 368.1758 348.27814Q368.3633 347.54376 368.6133 346.85626L369.94144 343.23126L370.9883 343.23126L368.62894 349.5594Q368.2383 350.575 368.0352 350.96564Q367.75394 351.4969 367.37894 351.73126Q367.01956 351.98126 366.51956 351.98126Q366.2227 351.98126 365.8477 351.84064ZM373.20706 349.45L373.20706 341.8719L370.37894 341.8719L370.37894 340.85626L377.19144 340.85626L377.19144 341.8719L374.3477 341.8719L374.3477 349.45L373.20706 349.45ZM377.87894 349.45L377.87894 343.23126L378.83206 343.23126L378.83206 344.16876Q379.19144 343.5125 379.4883 343.3094Q379.8008 343.09064 380.1758 343.09064Q380.70706 343.09064 381.25394 343.41876L380.89456 344.40314Q380.50394 344.16876 380.12894 344.16876Q379.76956 344.16876 379.4883 344.3875Q379.2227 344.59064 379.1133 344.96564Q378.9258 345.52814 378.9258 346.1844L378.9258 349.45L377.87894 349.45ZM385.95706 348.6844Q385.3633 349.1844 384.81644 349.3875Q384.2852 349.59064 383.6602 349.59064Q382.62894 349.59064 382.08206 349.09064Q381.5352 348.59064 381.5352 347.8094Q381.5352 347.35626 381.7383 346.98126Q381.94144 346.59064 382.2852 346.3719Q382.62894 346.1375 383.0508 346.02814Q383.3477 345.9344 383.9883 345.85626Q385.25394 345.71564 385.8633 345.4969Q385.8633 345.27814 385.8633 345.23126Q385.8633 344.575 385.56644 344.3094Q385.1602 343.96564 384.3633 343.96564Q383.62894 343.96564 383.26956 344.23126Q382.9102 344.48126 382.7383 345.1375L381.70706 344.9969Q381.8477 344.34064 382.1758 343.9344Q382.50394 343.52814 383.1133 343.3094Q383.7227 343.09064 384.51956 343.09064Q385.31644 343.09064 385.81644 343.27814Q386.31644 343.46564 386.5508 343.7469Q386.7852 344.02814 386.87894 344.46564Q386.9258 344.73126 386.9258 345.4344L386.9258 346.84064Q386.9258 348.3094 386.9883 348.7Q387.06644 349.09064 387.26956 349.45L386.1602 349.45Q386.00394 349.1219 385.95706 348.6844ZM385.8633 346.325Q385.2852 346.5594 384.14456 346.73126Q383.4883 346.825 383.2227 346.95Q382.95706 347.0594 382.8008 347.27814Q382.6602 347.4969 382.6602 347.77814Q382.6602 348.2 382.9727 348.48126Q383.3008 348.7625 383.9102 348.7625Q384.51956 348.7625 384.9883 348.4969Q385.4727 348.23126 385.69144 347.7625Q385.8633 347.40314 385.8633 346.71564L385.8633 346.325ZM392.95706 347.16876L393.9883 347.3094Q393.81644 348.3719 393.1133 348.98126Q392.4102 349.59064 391.39456 349.59064Q390.1133 349.59064 389.33206 348.7625Q388.56644 347.91876 388.56644 346.35626Q388.56644 345.35626 388.89456 344.60626Q389.2383 343.84064 389.9102 343.46564Q390.5977 343.09064 391.4102 343.09064Q392.4102 343.09064 393.0508 343.60626Q393.70706 344.10626 393.89456 345.0594L392.8633 345.21564Q392.7227 344.59064 392.3477 344.27814Q391.9727 343.95 391.44144 343.95Q390.64456 343.95 390.14456 344.52814Q389.64456 345.09064 389.64456 346.325Q389.64456 347.59064 390.12894 348.15314Q390.6133 348.71564 391.37894 348.71564Q392.00394 348.71564 392.4102 348.34064Q392.83206 347.96564 392.95706 347.16876ZM399.14456 347.45L400.2383 347.575Q399.9883 348.52814 399.2852 349.0594Q398.58206 349.59064 397.50394 349.59064Q396.14456 349.59064 395.33206 348.7469Q394.5352 347.90314 394.5352 346.3875Q394.5352 344.825 395.3477 343.96564Q396.1602 343.09064 397.44144 343.09064Q398.69144 343.09064 399.4727 343.9344Q400.26956 344.77814 400.26956 346.325Q400.26956 346.41876 400.26956 346.60626L395.62894 346.60626Q395.69144 347.6375 396.20706 348.1844Q396.7227 348.71564 397.50394 348.71564Q398.08206 348.71564 398.4883 348.41876Q398.9102 348.10626 399.14456 347.45ZM395.69144 345.7469L399.1602 345.7469Q399.0977 344.95 398.76956 344.5594Q398.25394 343.95 397.45706 343.95Q396.7227 343.95 396.2227 344.4344Q395.7383 344.91876 395.69144 345.7469Z" fill-rule="nonzero"/><path fill="#000000" d="M474.2306 349.45L474.2306 340.85626L478.0431 340.85626Q479.19934 340.85626 479.7931 341.09064Q480.38684 341.325 480.74622 341.91876Q481.1056 342.4969 481.1056 343.2Q481.1056 344.1219 480.51184 344.7469Q479.9181 345.3719 478.68372 345.54376Q479.13684 345.7625 479.37122 345.96564Q479.87122 346.41876 480.30872 347.10626L481.80872 349.45L480.37122 349.45L479.24622 347.66876Q478.74622 346.8875 478.4181 346.48126Q478.1056 346.075 477.83997 345.91876Q477.58997 345.7469 477.32434 345.66876Q477.13684 345.6375 476.69934 345.6375L475.37122 345.6375L475.37122 349.45L474.2306 349.45ZM475.37122 344.65314L477.82434 344.65314Q478.58997 344.65314 479.02747 344.4969Q479.4806 344.325 479.69934 343.98126Q479.93372 343.6219 479.93372 343.2Q479.93372 342.59064 479.4806 342.2Q479.0431 341.8094 478.08997 341.8094L475.37122 341.8094L475.37122 344.65314ZM483.08997 342.075L483.08997 340.85626L484.15247 340.85626L484.15247 342.075L483.08997 342.075ZM483.08997 349.45L483.08997 343.23126L484.15247 343.23126L484.15247 349.45L483.08997 349.45ZM490.15247 347.16876L491.18372 347.3094Q491.01184 348.3719 490.30872 348.98126Q489.6056 349.59064 488.58997 349.59064Q487.30872 349.59064 486.52747 348.7625Q485.76184 347.91876 485.76184 346.35626Q485.76184 345.35626 486.08997 344.60626Q486.43372 343.84064 487.1056 343.46564Q487.7931 343.09064 488.6056 343.09064Q489.6056 343.09064 490.24622 343.60626Q490.90247 344.10626 491.08997 345.0594L490.05872 345.21564Q489.9181 344.59064 489.5431 344.27814Q489.1681 343.95 488.63684 343.95Q487.83997 343.95 487.33997 344.52814Q486.83997 345.09064 486.83997 346.325Q486.83997 347.59064 487.32434 348.15314Q487.80872 348.71564 488.57434 348.71564Q489.19934 348.71564 489.6056 348.34064Q490.02747 347.96564 490.15247 347.16876ZM492.08997 349.45L492.08997 340.85626L493.13684 340.85626L493.13684 343.9344Q493.87122 343.09064 494.99622 343.09064Q495.69934 343.09064 496.19934 343.3719Q496.71497 343.6375 496.93372 344.1219Q497.15247 344.59064 497.15247 345.5125L497.15247 349.45L496.1056 349.45L496.1056 345.5125Q496.1056 344.71564 495.76184 344.35626Q495.4181 343.9969 494.7931 343.9969Q494.32434 343.9969 493.90247 344.2469Q493.49622 344.48126 493.30872 344.90314Q493.13684 345.3094 493.13684 346.04376L493.13684 349.45L492.08997 349.45ZM503.15247 348.6844Q502.55872 349.1844 502.01184 349.3875Q501.4806 349.59064 500.8556 349.59064Q499.82434 349.59064 499.27747 349.09064Q498.7306 348.59064 498.7306 347.8094Q498.7306 347.35626 498.93372 346.98126Q499.13684 346.59064 499.4806 346.3719Q499.82434 346.1375 500.24622 346.02814Q500.5431 345.9344 501.18372 345.85626Q502.44934 345.71564 503.05872 345.4969Q503.05872 345.27814 503.05872 345.23126Q503.05872 344.575 502.76184 344.3094Q502.3556 343.96564 501.55872 343.96564Q500.82434 343.96564 500.46497 344.23126Q500.1056 344.48126 499.93372 345.1375L498.90247 344.9969Q499.0431 344.34064 499.37122 343.9344Q499.69934 343.52814 500.30872 343.3094Q500.9181 343.09064 501.71497 343.09064Q502.51184 343.09064 503.01184 343.27814Q503.51184 343.46564 503.74622 343.7469Q503.9806 344.02814 504.07434 344.46564Q504.12122 344.73126 504.12122 345.4344L504.12122 346.84064Q504.12122 348.3094 504.18372 348.7Q504.26184 349.09064 504.46497 349.45L503.3556 349.45Q503.19934 349.1219 503.15247 348.6844ZM503.05872 346.325Q502.4806 346.5594 501.33997 346.73126Q500.68372 346.825 500.4181 346.95Q500.15247 347.0594 499.99622 347.27814Q499.8556 347.4969 499.8556 347.77814Q499.8556 348.2 500.1681 348.48126Q500.49622 348.7625 501.1056 348.7625Q501.71497 348.7625 502.18372 348.4969Q502.6681 348.23126 502.88684 347.7625Q503.05872 347.40314 503.05872 346.71564L503.05872 346.325ZM506.07434 349.45L506.07434 343.23126L507.02747 343.23126L507.02747 344.16876Q507.38684 343.5125 507.68372 343.3094Q507.99622 343.09064 508.37122 343.09064Q508.90247 343.09064 509.44934 343.41876L509.08997 344.40314Q508.69934 344.16876 508.32434 344.16876Q507.96497 344.16876 507.68372 344.3875Q507.4181 344.59064 507.30872 344.96564Q507.12122 345.52814 507.12122 346.1844L507.12122 349.45L506.07434 349.45ZM514.1212 349.45L514.1212 348.66876Q513.52747 349.59064 512.38684 349.59064Q511.63684 349.59064 511.01184 349.1844Q510.38684 348.7625 510.0431 348.02814Q509.69934 347.29376 509.69934 346.34064Q509.69934 345.41876 510.01184 344.65314Q510.32434 343.8875 510.94934 343.4969Q511.57434 343.09064 512.33997 343.09064Q512.90247 343.09064 513.33997 343.325Q513.77747 343.5594 514.0587 343.9344L514.0587 340.85626L515.1056 340.85626L515.1056 349.45L514.1212 349.45ZM510.7931 346.34064Q510.7931 347.54376 511.2931 348.1375Q511.7931 348.71564 512.4806 348.71564Q513.1681 348.71564 513.65247 348.15314Q514.13684 347.59064 514.13684 346.4344Q514.13684 345.15314 513.63684 344.5594Q513.15247 343.96564 512.4337 343.96564Q511.7306 343.96564 511.26184 344.54376Q510.7931 345.10626 510.7931 346.34064ZM516.6681 347.59064L517.69934 347.4344Q517.7931 348.0594 518.1837 348.3875Q518.58997 348.71564 519.32434 348.71564Q520.0431 348.71564 520.38684 348.4344Q520.7462 348.1375 520.7462 347.73126Q520.7462 347.3719 520.4337 347.16876Q520.21497 347.02814 519.3556 346.8094Q518.19934 346.5125 517.7462 346.3094Q517.3087 346.09064 517.07434 345.71564Q516.83997 345.34064 516.83997 344.8719Q516.83997 344.46564 517.02747 344.10626Q517.21497 343.7469 517.5431 343.5125Q517.7931 343.34064 518.21497 343.21564Q518.63684 343.09064 519.13684 343.09064Q519.8556 343.09064 520.40247 343.3094Q520.96497 343.5125 521.2306 343.8719Q521.4962 344.23126 521.58997 344.825L520.5587 344.96564Q520.4962 344.4969 520.15247 344.23126Q519.82434 343.95 519.19934 343.95Q518.4806 343.95 518.1681 344.2Q517.8556 344.4344 517.8556 344.7625Q517.8556 344.96564 517.9806 345.1219Q518.1212 345.29376 518.38684 345.40314Q518.5431 345.46564 519.32434 345.66876Q520.44934 345.98126 520.88684 346.16876Q521.32434 346.35626 521.57434 346.71564Q521.82434 347.075 521.82434 347.6219Q521.82434 348.15314 521.51184 348.6219Q521.21497 349.075 520.63684 349.34064Q520.0587 349.59064 519.32434 349.59064Q518.1056 349.59064 517.46497 349.09064Q516.83997 348.575 516.6681 347.59064Z" fill-rule="nonzero"/><path fill="#fbbc04" d="M136.0 56.916668C136.0 56.364384 136.44771 55.916668 137.0 55.916668L147.0 55.916668C147.55229 55.916668 148.0 56.364384 148.0 56.916668L148.0 66.916664C148.0 67.46895 147.55229 67.916664 147.0 67.916664L137.0 67.916664C136.44771 67.916664 136.0 67.46895 136.0 66.916664Z" fill-rule="nonzero"/><path fill="#1a1a1a" d="M157.9375 65.916664L156.03125 59.697914L157.125 59.697914L158.10938 63.291664L158.48438 64.61979Q158.51562 64.52604 158.8125 63.33854L159.79688 59.697914L160.875 59.697914L161.8125 63.30729L162.125 64.49479L162.48438 63.291664L163.54688 59.697914L164.57812 59.697914L162.625 65.916664L161.53125 65.916664L160.54688 62.18229L160.29688 61.135414L159.04688 65.916664L157.9375 65.916664ZM165.79688 58.541664L165.79688 57.322914L166.85938 57.322914L166.85938 58.541664L165.79688 58.541664ZM165.79688 65.916664L165.79688 59.697914L166.85938 59.697914L166.85938 65.916664L165.79688 65.916664ZM171.09375 64.979164L171.25 65.90104Q170.79688 65.99479 170.45312 65.99479Q169.875 65.99479 169.5625 65.822914Q169.25 65.635414 169.10938 65.33854Q168.98438 65.041664 168.98438 64.08854L168.98438 60.510414L168.21875 60.510414L168.21875 59.697914L168.98438 59.697914L168.98438 58.15104L170.03125 57.52604L170.03125 59.697914L171.09375 59.697914L171.09375 60.510414L170.03125 60.510414L170.03125 64.15104Q170.03125 64.604164 170.07812 64.729164Q170.14062 64.854164 170.26562 64.93229Q170.39062 65.010414 170.625 65.010414Q170.8125 65.010414 171.09375 64.979164ZM171.79688 65.916664L171.79688 57.322914L172.84375 57.322914L172.84375 60.40104Q173.57812 59.55729 174.70312 59.55729Q175.40625 59.55729 175.90625 59.83854Q176.42188 60.104164 176.64062 60.58854Q176.85938 61.05729 176.85938 61.979164L176.85938 65.916664L175.8125 65.916664L175.8125 61.979164Q175.8125 61.18229 175.46875 60.822914Q175.125 60.46354 174.5 60.46354Q174.03125 60.46354 173.60938 60.71354Q173.20312 60.947914 173.01562 61.36979Q172.84375 61.77604 172.84375 62.510414L172.84375 65.916664L171.79688 65.916664ZM178.40625 62.80729Q178.40625 61.072914 179.35938 60.24479Q180.15625 59.55729 181.3125 59.55729Q182.59375 59.55729 183.40625 60.40104Q184.23438 61.229164 184.23438 62.71354Q184.23438 63.916664 183.875 64.604164Q183.51562 65.291664 182.8125 65.68229Q182.125 66.05729 181.3125 66.05729Q180.01562 66.05729 179.20312 65.229164Q178.40625 64.385414 178.40625 62.80729ZM179.48438 62.80729Q179.48438 63.99479 180.0 64.58854Q180.53125 65.18229 181.3125 65.18229Q182.10938 65.18229 182.625 64.58854Q183.14062 63.99479 183.14062 62.77604Q183.14062 61.61979 182.60938 61.02604Q182.09375 60.43229 181.3125 60.43229Q180.53125 60.43229 180.0 61.02604Q179.48438 61.604164 179.48438 62.80729ZM189.875 65.916664L189.875 64.99479Q189.14062 66.05729 187.89062 66.05729Q187.34375 66.05729 186.85938 65.854164Q186.39062 65.635414 186.15625 65.322914Q185.92188 64.99479 185.82812 64.52604Q185.76562 64.229164 185.76562 63.541664L185.76562 59.697914L186.82812 59.697914L186.82812 63.15104Q186.82812 63.96354 186.89062 64.260414Q186.98438 64.666664 187.29688 64.916664Q187.625 65.15104 188.10938 65.15104Q188.57812 65.15104 188.98438 64.916664Q189.40625 64.666664 189.57812 64.24479Q189.76562 63.822914 189.76562 63.02604L189.76562 59.697914L190.8125 59.697914L190.8125 65.916664L189.875 65.916664ZM195.09375 64.979164L195.25 65.90104Q194.79688 65.99479 194.45312 65.99479Q193.875 65.99479 193.5625 65.822914Q193.25 65.635414 193.10938 65.33854Q192.98438 65.041664 192.98438 64.08854L192.98438 60.510414L192.21875 60.510414L192.21875 59.697914L192.98438 59.697914L192.98438 58.15104L194.03125 57.52604L194.03125 59.697914L195.09375 59.697914L195.09375 60.510414L194.03125 60.510414L194.03125 64.15104Q194.03125 64.604164 194.07812 64.729164Q194.14062 64.854164 194.26562 64.93229Q194.39062 65.010414 194.625 65.010414Q194.8125 65.010414 195.09375 64.979164ZM199.9375 65.916664L198.03125 59.697914L199.125 59.697914L200.10938 63.291664L200.48438 64.61979Q200.51562 64.52604 200.8125 63.33854L201.79688 59.697914L202.875 59.697914L203.8125 63.30729L204.125 64.49479L204.48438 63.291664L205.54688 59.697914L206.57812 59.697914L204.625 65.916664L203.53125 65.916664L202.54688 62.18229L202.29688 61.135414L201.04688 65.916664L199.9375 65.916664ZM211.85938 65.15104Q211.26562 65.65104 210.71875 65.854164Q210.1875 66.05729 209.5625 66.05729Q208.53125 66.05729 207.98438 65.55729Q207.4375 65.05729 207.4375 64.27604Q207.4375 63.822914 207.64062 63.447914Q207.84375 63.05729 208.1875 62.83854Q208.53125 62.604164 208.95312 62.49479Q209.25 62.40104 209.89062 62.322914Q211.15625 62.18229 211.76562 61.96354Q211.76562 61.74479 211.76562 61.697914Q211.76562 61.041664 211.46875 60.77604Q211.0625 60.43229 210.26562 60.43229Q209.53125 60.43229 209.17188 60.697914Q208.8125 60.947914 208.64062 61.604164L207.60938 61.46354Q207.75 60.80729 208.07812 60.40104Q208.40625 59.99479 209.01562 59.77604Q209.625 59.55729 210.42188 59.55729Q211.21875 59.55729 211.71875 59.74479Q212.21875 59.93229 212.45312 60.21354Q212.6875 60.49479 212.78125 60.93229Q212.82812 61.197914 212.82812 61.90104L212.82812 63.30729Q212.82812 64.77604 212.89062 65.166664Q212.96875 65.55729 213.17188 65.916664L212.0625 65.916664Q211.90625 65.58854 211.85938 65.15104ZM211.76562 62.791664Q211.1875 63.02604 210.04688 63.197914Q209.39062 63.291664 209.125 63.416664Q208.85938 63.52604 208.70312 63.74479Q208.5625 63.96354 208.5625 64.24479Q208.5625 64.666664 208.875 64.947914Q209.20312 65.229164 209.8125 65.229164Q210.42188 65.229164 210.89062 64.96354Q211.375 64.697914 211.59375 64.229164Q211.76562 63.86979 211.76562 63.18229L211.76562 62.791664ZM214.375 64.05729L215.40625 63.90104Q215.5 64.52604 215.89062 64.854164Q216.29688 65.18229 217.03125 65.18229Q217.75 65.18229 218.09375 64.90104Q218.45312 64.604164 218.45312 64.197914Q218.45312 63.83854 218.14062 63.635414Q217.92188 63.49479 217.0625 63.27604Q215.90625 62.979164 215.45312 62.77604Q215.01562 62.55729 214.78125 62.18229Q214.54688 61.80729 214.54688 61.33854Q214.54688 60.93229 214.73438 60.572914Q214.92188 60.21354 215.25 59.979164Q215.5 59.80729 215.92188 59.68229Q216.34375 59.55729 216.84375 59.55729Q217.5625 59.55729 218.10938 59.77604Q218.67188 59.979164 218.9375 60.33854Q219.20312 60.697914 219.29688 61.291664L218.26562 61.43229Q218.20312 60.96354 217.85938 60.697914Q217.53125 60.416664 216.90625 60.416664Q216.1875 60.416664 215.875 60.666664Q215.5625 60.90104 215.5625 61.229164Q215.5625 61.43229 215.6875 61.58854Q215.82812 61.760414 216.09375 61.86979Q216.25 61.93229 217.03125 62.135414Q218.15625 62.447914 218.59375 62.635414Q219.03125 62.822914 219.28125 63.18229Q219.53125 63.541664 219.53125 64.08854Q219.53125 64.61979 219.21875 65.08854Q218.92188 65.541664 218.34375 65.80729Q217.76562 66.05729 217.03125 66.05729Q215.8125 66.05729 215.17188 65.55729Q214.54688 65.041664 214.375 64.05729ZM221.79688 65.916664L221.79688 59.697914L222.73438 59.697914L222.73438 60.572914Q223.03125 60.104164 223.51562 59.83854Q224.0 59.55729 224.625 59.55729Q225.3125 59.55729 225.75 59.83854Q226.20312 60.11979 226.375 60.635414Q227.125 59.55729 228.29688 59.55729Q229.23438 59.55729 229.71875 60.072914Q230.21875 60.572914 230.21875 61.65104L230.21875 65.916664L229.17188 65.916664L229.17188 61.99479Q229.17188 61.36979 229.0625 61.08854Q228.96875 60.80729 228.70312 60.635414Q228.4375 60.46354 228.0625 60.46354Q227.40625 60.46354 226.96875 60.90104Q226.54688 61.33854 226.54688 62.30729L226.54688 65.916664L225.48438 65.916664L225.48438 61.86979Q225.48438 61.166664 225.21875 60.822914Q224.96875 60.46354 224.39062 60.46354Q223.9375 60.46354 223.5625 60.697914Q223.1875 60.93229 223.01562 61.385414Q222.84375 61.83854 222.84375 62.68229L222.84375 65.916664L221.79688 65.916664ZM232.375 63.33854L232.375 62.27604L235.625 62.27604L235.625 63.33854L232.375 63.33854ZM236.40625 62.80729Q236.40625 61.072914 237.35938 60.24479Q238.15625 59.55729 239.3125 59.55729Q240.59375 59.55729 241.40625 60.40104Q242.23438 61.229164 242.23438 62.71354Q242.23438 63.916664 241.875 64.604164Q241.51562 65.291664 240.8125 65.68229Q240.125 66.05729 239.3125 66.05729Q238.01562 66.05729 237.20312 65.229164Q236.40625 64.385414 236.40625 62.80729ZM237.48438 62.80729Q237.48438 63.99479 238.0 64.58854Q238.53125 65.18229 239.3125 65.18229Q240.10938 65.18229 240.625 64.58854Q241.14062 63.99479 241.14062 62.77604Q241.14062 61.61979 240.60938 61.02604Q240.09375 60.43229 239.3125 60.43229Q238.53125 60.43229 238.0 61.02604Q237.48438 61.604164 237.48438 62.80729ZM243.79688 68.30729L243.79688 59.697914L244.75 59.697914L244.75 60.49479Q245.09375 60.02604 245.51562 59.791664Q245.95312 59.55729 246.5625 59.55729Q247.35938 59.55729 247.96875 59.96354Q248.57812 60.36979 248.875 61.11979Q249.1875 61.86979 249.1875 62.760414Q249.1875 63.71354 248.84375 64.479164Q248.51562 65.24479 247.85938 65.65104Q247.20312 66.05729 246.48438 66.05729Q245.95312 66.05729 245.53125 65.83854Q245.10938 65.604164 244.84375 65.27604L244.84375 68.30729L243.79688 68.30729ZM244.75 62.83854Q244.75 64.041664 245.23438 64.61979Q245.71875 65.18229 246.40625 65.18229Q247.10938 65.18229 247.60938 64.58854Q248.10938 63.99479 248.10938 62.74479Q248.10938 61.55729 247.625 60.979164Q247.14062 60.385414 246.45312 60.385414Q245.78125 60.385414 245.26562 61.010414Q244.75 61.635414 244.75 62.83854ZM253.09375 64.979164L253.25 65.90104Q252.79688 65.99479 252.45312 65.99479Q251.875 65.99479 251.5625 65.822914Q251.25 65.635414 251.10938 65.33854Q250.98438 65.041664 250.98438 64.08854L250.98438 60.510414L250.21875 60.510414L250.21875 59.697914L250.98438 59.697914L250.98438 58.15104L252.03125 57.52604L252.03125 59.697914L253.09375 59.697914L253.09375 60.510414L252.03125 60.510414L252.03125 64.15104Q252.03125 64.604164 252.07812 64.729164Q252.14062 64.854164 252.26562 64.93229Q252.39062 65.010414 252.625 65.010414Q252.8125 65.010414 253.09375 64.979164ZM258.8125 68.447914Q257.9375 67.33854 257.32812 65.86979Q256.73438 64.385414 256.73438 62.80729Q256.73438 61.416664 257.17188 60.135414Q257.70312 58.65104 258.8125 57.18229L259.5625 57.18229Q258.85938 58.40104 258.625 58.916664Q258.26562 59.729164 258.0625 60.604164Q257.8125 61.697914 257.8125 62.80729Q257.8125 65.635414 259.5625 68.447914L258.8125 68.447914ZM260.79688 65.916664L260.79688 59.697914L261.73438 59.697914L261.73438 60.572914Q262.42188 59.55729 263.71875 59.55729Q264.28125 59.55729 264.75 59.760414Q265.23438 59.96354 265.46875 60.291664Q265.70312 60.61979 265.79688 61.05729Q265.84375 61.354164 265.84375 62.08854L265.84375 65.916664L264.79688 65.916664L264.79688 62.135414Q264.79688 61.479164 264.67188 61.166664Q264.54688 60.854164 264.23438 60.666664Q263.92188 60.46354 263.5 60.46354Q262.82812 60.46354 262.32812 60.90104Q261.84375 61.322914 261.84375 62.510414L261.84375 65.916664L260.79688 65.916664ZM267.40625 62.80729Q267.40625 61.072914 268.35938 60.24479Q269.15625 59.55729 270.3125 59.55729Q271.59375 59.55729 272.40625 60.40104Q273.23438 61.229164 273.23438 62.71354Q273.23438 63.916664 272.875 64.604164Q272.51562 65.291664 271.8125 65.68229Q271.125 66.05729 270.3125 66.05729Q269.01562 66.05729 268.20312 65.229164Q267.40625 64.385414 267.40625 62.80729ZM268.48438 62.80729Q268.48438 63.99479 269.0 64.58854Q269.53125 65.18229 270.3125 65.18229Q271.10938 65.18229 271.625 64.58854Q272.14062 63.99479 272.14062 62.77604Q272.14062 61.61979 271.60938 61.02604Q271.09375 60.43229 270.3125 60.43229Q269.53125 60.43229 269.0 61.02604Q268.48438 61.604164 268.48438 62.80729ZM274.78125 65.916664L274.78125 59.697914L275.73438 59.697914L275.73438 60.635414Q276.09375 59.979164 276.39062 59.77604Q276.70312 59.55729 277.07812 59.55729Q277.60938 59.55729 278.15625 59.885414L277.79688 60.86979Q277.40625 60.635414 277.03125 60.635414Q276.67188 60.635414 276.39062 60.854164Q276.125 61.05729 276.01562 61.43229Q275.82812 61.99479 275.82812 62.65104L275.82812 65.916664L274.78125 65.916664ZM278.79688 65.916664L278.79688 59.697914L279.73438 59.697914L279.73438 60.572914Q280.03125 60.104164 280.51562 59.83854Q281.0 59.55729 281.625 59.55729Q282.3125 59.55729 282.75 59.83854Q283.20312 60.11979 283.375 60.635414Q284.125 59.55729 285.29688 59.55729Q286.23438 59.55729 286.71875 60.072914Q287.21875 60.572914 287.21875 61.65104L287.21875 65.916664L286.17188 65.916664L286.17188 61.99479Q286.17188 61.36979 286.0625 61.08854Q285.96875 60.80729 285.70312 60.635414Q285.4375 60.46354 285.0625 60.46354Q284.40625 60.46354 283.96875 60.90104Q283.54688 61.33854 283.54688 62.30729L283.54688 65.916664L282.48438 65.916664L282.48438 61.86979Q282.48438 61.166664 282.21875 60.822914Q281.96875 60.46354 281.39062 60.46354Q280.9375 60.46354 280.5625 60.697914Q280.1875 60.93229 280.01562 61.385414Q279.84375 61.83854 279.84375 62.68229L279.84375 65.916664L278.79688 65.916664ZM293.85938 65.15104Q293.26562 65.65104 292.71875 65.854164Q292.1875 66.05729 291.5625 66.05729Q290.53125 66.05729 289.98438 65.55729Q289.4375 65.05729 289.4375 64.27604Q289.4375 63.822914 289.64062 63.447914Q289.84375 63.05729 290.1875 62.83854Q290.53125 62.604164 290.95312 62.49479Q291.25 62.40104 291.89062 62.322914Q293.15625 62.18229 293.76562 61.96354Q293.76562 61.74479 293.76562 61.697914Q293.76562 61.041664 293.46875 60.77604Q293.0625 60.43229 292.26562 60.43229Q291.53125 60.43229 291.17188 60.697914Q290.8125 60.947914 290.64062 61.604164L289.60938 61.46354Q289.75 60.80729 290.07812 60.40104Q290.40625 59.99479 291.01562 59.77604Q291.625 59.55729 292.42188 59.55729Q293.21875 59.55729 293.71875 59.74479Q294.21875 59.93229 294.45312 60.21354Q294.6875 60.49479 294.78125 60.93229Q294.82812 61.197914 294.82812 61.90104L294.82812 63.30729Q294.82812 64.77604 294.89062 65.166664Q294.96875 65.55729 295.17188 65.916664L294.0625 65.916664Q293.90625 65.58854 293.85938 65.15104ZM293.76562 62.791664Q293.1875 63.02604 292.04688 63.197914Q291.39062 63.291664 291.125 63.416664Q290.85938 63.52604 290.70312 63.74479Q290.5625 63.96354 290.5625 64.24479Q290.5625 64.666664 290.875 64.947914Q291.20312 65.229164 291.8125 65.229164Q292.42188 65.229164 292.89062 64.96354Q293.375 64.697914 293.59375 64.229164Q293.76562 63.86979 293.76562 63.18229L293.76562 62.791664ZM296.76562 65.916664L296.76562 57.322914L297.82812 57.322914L297.82812 65.916664L296.76562 65.916664ZM299.79688 58.541664L299.79688 57.322914L300.85938 57.322914L300.85938 58.541664L299.79688 58.541664ZM299.79688 65.916664L299.79688 59.697914L300.85938 59.697914L300.85938 65.916664L299.79688 65.916664ZM302.23438 65.916664L302.23438 65.05729L306.20312 60.510414Q305.51562 60.541664 305.0 60.541664L302.46875 60.541664L302.46875 59.697914L307.5625 59.697914L307.5625 60.385414L304.1875 64.33854L303.53125 65.05729Q304.25 65.010414 304.85938 65.010414L307.75 65.010414L307.75 65.916664L302.23438 65.916664ZM312.04688 63.916664L313.14062 64.041664Q312.89062 64.99479 312.1875 65.52604Q311.48438 66.05729 310.40625 66.05729Q309.04688 66.05729 308.23438 65.21354Q307.4375 64.36979 307.4375 62.854164Q307.4375 61.291664 308.25 60.43229Q309.0625 59.55729 310.34375 59.55729Q311.59375 59.55729 312.375 60.40104Q313.17188 61.24479 313.17188 62.791664Q313.17188 62.885414 313.17188 63.072914L308.53125 63.072914Q308.59375 64.104164 309.10938 64.65104Q309.625 65.18229 310.40625 65.18229Q310.98438 65.18229 311.39062 64.885414Q311.8125 64.572914 312.04688 63.916664ZM308.59375 62.21354L312.0625 62.21354Q312.0 61.416664 311.67188 61.02604Q311.15625 60.416664 310.35938 60.416664Q309.625 60.416664 309.125 60.90104Q308.64062 61.385414 308.59375 62.21354ZM318.82812 65.916664L318.82812 65.135414Q318.23438 66.05729 317.09375 66.05729Q316.34375 66.05729 315.71875 65.65104Q315.09375 65.229164 314.75 64.49479Q314.40625 63.760414 314.40625 62.80729Q314.40625 61.885414 314.71875 61.11979Q315.03125 60.354164 315.65625 59.96354Q316.28125 59.55729 317.04688 59.55729Q317.60938 59.55729 318.04688 59.791664Q318.48438 60.02604 318.76562 60.40104L318.76562 57.322914L319.8125 57.322914L319.8125 65.916664L318.82812 65.916664ZM315.5 62.80729Q315.5 64.010414 316.0 64.604164Q316.5 65.18229 317.1875 65.18229Q317.875 65.18229 318.35938 64.61979Q318.84375 64.05729 318.84375 62.90104Q318.84375 61.61979 318.34375 61.02604Q317.85938 60.43229 317.14062 60.43229Q316.4375 60.43229 315.96875 61.010414Q315.5 61.572914 315.5 62.80729ZM327.09375 64.979164L327.25 65.90104Q326.79688 65.99479 326.45312 65.99479Q325.875 65.99479 325.5625 65.822914Q325.25 65.635414 325.10938 65.33854Q324.98438 65.041664 324.98438 64.08854L324.98438 60.510414L324.21875 60.510414L324.21875 59.697914L324.98438 59.697914L324.98438 58.15104L326.03125 57.52604L326.03125 59.697914L327.09375 59.697914L327.09375 60.510414L326.03125 60.510414L326.03125 64.15104Q326.03125 64.604164 326.07812 64.729164Q326.14062 64.854164 326.26562 64.93229Q326.39062 65.010414 326.625 65.010414Q326.8125 65.010414 327.09375 64.979164ZM327.40625 62.80729Q327.40625 61.072914 328.35938 60.24479Q329.15625 59.55729 330.3125 59.55729Q331.59375 59.55729 332.40625 60.40104Q333.23438 61.229164 333.23438 62.71354Q333.23438 63.916664 332.875 64.604164Q332.51562 65.291664 331.8125 65.68229Q331.125 66.05729 330.3125 66.05729Q329.01562 66.05729 328.20312 65.229164Q327.40625 64.385414 327.40625 62.80729ZM328.48438 62.80729Q328.48438 63.99479 329.0 64.58854Q329.53125 65.18229 330.3125 65.18229Q331.10938 65.18229 331.625 64.58854Q332.14062 63.99479 332.14062 62.77604Q332.14062 61.61979 331.60938 61.02604Q331.09375 60.43229 330.3125 60.43229Q329.53125 60.43229 329.0 61.02604Q328.48438 61.604164 328.48438 62.80729ZM341.46875 65.916664L340.42188 65.916664L340.42188 59.197914Q340.03125 59.55729 339.40625 59.93229Q338.79688 60.291664 338.3125 60.46354L338.3125 59.447914Q339.1875 59.02604 339.84375 58.447914Q340.51562 57.854164 340.79688 57.291664L341.46875 57.291664L341.46875 65.916664ZM345.48438 68.447914L344.73438 68.447914Q346.48438 65.635414 346.48438 62.80729Q346.48438 61.71354 346.23438 60.61979Q346.03125 59.74479 345.67188 58.93229Q345.4375 58.416664 344.73438 57.18229L345.48438 57.18229Q346.57812 58.65104 347.10938 60.135414Q347.5625 61.416664 347.5625 62.80729Q347.5625 64.385414 346.95312 65.86979Q346.34375 67.33854 345.48438 68.447914Z" fill-rule="nonzero"/><path fill="#34a853" d="M364.0 56.916668C364.0 56.364384 364.44772 55.916668 365.0 55.916668L375.0 55.916668C375.55228 55.916668 376.0 56.364384 376.0 56.916668L376.0 66.916664C376.0 67.46895 375.55228 67.916664 375.0 67.916664L365.0 67.916664C364.44772 67.916664 364.0 67.46895 364.0 66.916664Z" fill-rule="nonzero"/><path fill="#1a1a1a" d="M385.9375 65.916664L384.03125 59.697914L385.125 59.697914L386.10938 63.291664L386.48438 64.61979Q386.51562 64.52604 386.8125 63.33854L387.79688 59.697914L388.875 59.697914L389.8125 63.30729L390.125 64.49479L390.48438 63.291664L391.54688 59.697914L392.57812 59.697914L390.625 65.916664L389.53125 65.916664L388.54688 62.18229L388.29688 61.135414L387.04688 65.916664L385.9375 65.916664ZM393.79688 58.541664L393.79688 57.322914L394.85938 57.322914L394.85938 58.541664L393.79688 58.541664ZM393.79688 65.916664L393.79688 59.697914L394.85938 59.697914L394.85938 65.916664L393.79688 65.916664ZM399.09375 64.979164L399.25 65.90104Q398.79688 65.99479 398.45312 65.99479Q397.875 65.99479 397.5625 65.822914Q397.25 65.635414 397.10938 65.33854Q396.98438 65.041664 396.98438 64.08854L396.98438 60.510414L396.21875 60.510414L396.21875 59.697914L396.98438 59.697914L396.98438 58.15104L398.03125 57.52604L398.03125 59.697914L399.09375 59.697914L399.09375 60.510414L398.03125 60.510414L398.03125 64.15104Q398.03125 64.604164 398.07812 64.729164Q398.14062 64.854164 398.26562 64.93229Q398.39062 65.010414 398.625 65.010414Q398.8125 65.010414 399.09375 64.979164ZM399.79688 65.916664L399.79688 57.322914L400.84375 57.322914L400.84375 60.40104Q401.57812 59.55729 402.70312 59.55729Q403.40625 59.55729 403.90625 59.83854Q404.42188 60.104164 404.64062 60.58854Q404.85938 61.05729 404.85938 61.979164L404.85938 65.916664L403.8125 65.916664L403.8125 61.979164Q403.8125 61.18229 403.46875 60.822914Q403.125 60.46354 402.5 60.46354Q402.03125 60.46354 401.60938 60.71354Q401.20312 60.947914 401.01562 61.36979Q400.84375 61.77604 400.84375 62.510414L400.84375 65.916664L399.79688 65.916664ZM410.9375 65.916664L409.03125 59.697914L410.125 59.697914L411.10938 63.291664L411.48438 64.61979Q411.51562 64.52604 411.8125 63.33854L412.79688 59.697914L413.875 59.697914L414.8125 63.30729L415.125 64.49479L415.48438 63.291664L416.54688 59.697914L417.57812 59.697914L415.625 65.916664L414.53125 65.916664L413.54688 62.18229L413.29688 61.135414L412.04688 65.916664L410.9375 65.916664ZM422.85938 65.15104Q422.26562 65.65104 421.71875 65.854164Q421.1875 66.05729 420.5625 66.05729Q419.53125 66.05729 418.98438 65.55729Q418.4375 65.05729 418.4375 64.27604Q418.4375 63.822914 418.64062 63.447914Q418.84375 63.05729 419.1875 62.83854Q419.53125 62.604164 419.95312 62.49479Q420.25 62.40104 420.89062 62.322914Q422.15625 62.18229 422.76562 61.96354Q422.76562 61.74479 422.76562 61.697914Q422.76562 61.041664 422.46875 60.77604Q422.0625 60.43229 421.26562 60.43229Q420.53125 60.43229 420.17188 60.697914Q419.8125 60.947914 419.64062 61.604164L418.60938 61.46354Q418.75 60.80729 419.07812 60.40104Q419.40625 59.99479 420.01562 59.77604Q420.625 59.55729 421.42188 59.55729Q422.21875 59.55729 422.71875 59.74479Q423.21875 59.93229 423.45312 60.21354Q423.6875 60.49479 423.78125 60.93229Q423.82812 61.197914 423.82812 61.90104L423.82812 63.30729Q423.82812 64.77604 423.89062 65.166664Q423.96875 65.55729 424.17188 65.916664L423.0625 65.916664Q422.90625 65.58854 422.85938 65.15104ZM422.76562 62.791664Q422.1875 63.02604 421.04688 63.197914Q420.39062 63.291664 420.125 63.416664Q419.85938 63.52604 419.70312 63.74479Q419.5625 63.96354 419.5625 64.24479Q419.5625 64.666664 419.875 64.947914Q420.20312 65.229164 420.8125 65.229164Q421.42188 65.229164 421.89062 64.96354Q422.375 64.697914 422.59375 64.229164Q422.76562 63.86979 422.76562 63.18229L422.76562 62.791664ZM425.375 64.05729L426.40625 63.90104Q426.5 64.52604 426.89062 64.854164Q427.29688 65.18229 428.03125 65.18229Q428.75 65.18229 429.09375 64.90104Q429.45312 64.604164 429.45312 64.197914Q429.45312 63.83854 429.14062 63.635414Q428.92188 63.49479 428.0625 63.27604Q426.90625 62.979164 426.45312 62.77604Q426.01562 62.55729 425.78125 62.18229Q425.54688 61.80729 425.54688 61.33854Q425.54688 60.93229 425.73438 60.572914Q425.92188 60.21354 426.25 59.979164Q426.5 59.80729 426.92188 59.68229Q427.34375 59.55729 427.84375 59.55729Q428.5625 59.55729 429.10938 59.77604Q429.67188 59.979164 429.9375 60.33854Q430.20312 60.697914 430.29688 61.291664L429.26562 61.43229Q429.20312 60.96354 428.85938 60.697914Q428.53125 60.416664 427.90625 60.416664Q427.1875 60.416664 426.875 60.666664Q426.5625 60.90104 426.5625 61.229164Q426.5625 61.43229 426.6875 61.58854Q426.82812 61.760414 427.09375 61.86979Q427.25 61.93229 428.03125 62.135414Q429.15625 62.447914 429.59375 62.635414Q430.03125 62.822914 430.28125 63.18229Q430.53125 63.541664 430.53125 64.08854Q430.53125 64.61979 430.21875 65.08854Q429.92188 65.541664 429.34375 65.80729Q428.76562 66.05729 428.03125 66.05729Q426.8125 66.05729 426.17188 65.55729Q425.54688 65.041664 425.375 64.05729ZM432.79688 65.916664L432.79688 59.697914L433.73438 59.697914L433.73438 60.572914Q434.03125 60.104164 434.51562 59.83854Q435.0 59.55729 435.625 59.55729Q436.3125 59.55729 436.75 59.83854Q437.20312 60.11979 437.375 60.635414Q438.125 59.55729 439.29688 59.55729Q440.23438 59.55729 440.71875 60.072914Q441.21875 60.572914 441.21875 61.65104L441.21875 65.916664L440.17188 65.916664L440.17188 61.99479Q440.17188 61.36979 440.0625 61.08854Q439.96875 60.80729 439.70312 60.635414Q439.4375 60.46354 439.0625 60.46354Q438.40625 60.46354 437.96875 60.90104Q437.54688 61.33854 437.54688 62.30729L437.54688 65.916664L436.48438 65.916664L436.48438 61.86979Q436.48438 61.166664 436.21875 60.822914Q435.96875 60.46354 435.39062 60.46354Q434.9375 60.46354 434.5625 60.697914Q434.1875 60.93229 434.01562 61.385414Q433.84375 61.83854 433.84375 62.68229L433.84375 65.916664L432.79688 65.916664ZM443.375 63.33854L443.375 62.27604L446.625 62.27604L446.625 63.33854L443.375 63.33854ZM447.40625 62.80729Q447.40625 61.072914 448.35938 60.24479Q449.15625 59.55729 450.3125 59.55729Q451.59375 59.55729 452.40625 60.40104Q453.23438 61.229164 453.23438 62.71354Q453.23438 63.916664 452.875 64.604164Q452.51562 65.291664 451.8125 65.68229Q451.125 66.05729 450.3125 66.05729Q449.01562 66.05729 448.20312 65.229164Q447.40625 64.385414 447.40625 62.80729ZM448.48438 62.80729Q448.48438 63.99479 449.0 64.58854Q449.53125 65.18229 450.3125 65.18229Q451.10938 65.18229 451.625 64.58854Q452.14062 63.99479 452.14062 62.77604Q452.14062 61.61979 451.60938 61.02604Q451.09375 60.43229 450.3125 60.43229Q449.53125 60.43229 449.0 61.02604Q448.48438 61.604164 448.48438 62.80729ZM454.79688 68.30729L454.79688 59.697914L455.75 59.697914L455.75 60.49479Q456.09375 60.02604 456.51562 59.791664Q456.95312 59.55729 457.5625 59.55729Q458.35938 59.55729 458.96875 59.96354Q459.57812 60.36979 459.875 61.11979Q460.1875 61.86979 460.1875 62.760414Q460.1875 63.71354 459.84375 64.479164Q459.51562 65.24479 458.85938 65.65104Q458.20312 66.05729 457.48438 66.05729Q456.95312 66.05729 456.53125 65.83854Q456.10938 65.604164 455.84375 65.27604L455.84375 68.30729L454.79688 68.30729ZM455.75 62.83854Q455.75 64.041664 456.23438 64.61979Q456.71875 65.18229 457.40625 65.18229Q458.10938 65.18229 458.60938 64.58854Q459.10938 63.99479 459.10938 62.74479Q459.10938 61.55729 458.625 60.979164Q458.14062 60.385414 457.45312 60.385414Q456.78125 60.385414 456.26562 61.010414Q455.75 61.635414 455.75 62.83854ZM464.09375 64.979164L464.25 65.90104Q463.79688 65.99479 463.45312 65.99479Q462.875 65.99479 462.5625 65.822914Q462.25 65.635414 462.10938 65.33854Q461.98438 65.041664 461.98438 64.08854L461.98438 60.510414L461.21875 60.510414L461.21875 59.697914L461.98438 59.697914L461.98438 58.15104L463.03125 57.52604L463.03125 59.697914L464.09375 59.697914L464.09375 60.510414L463.03125 60.510414L463.03125 64.15104Q463.03125 64.604164 463.07812 64.729164Q463.14062 64.854164 463.26562 64.93229Q463.39062 65.010414 463.625 65.010414Q463.8125 65.010414 464.09375 64.979164Z" fill-rule="nonzero"/><path fill="#757575" d="M19.128124 33.4875L20.83125 33.253124Q20.909374 34.89375 21.45625 35.503124Q22.003124 36.096874 22.971874 36.096874Q23.675 36.096874 24.190624 35.784374Q24.70625 35.45625 24.89375 34.89375Q25.096874 34.33125 25.096874 33.096874L25.096874 23.2375L27.003124 23.2375L27.003124 32.9875Q27.003124 34.784374 26.565624 35.76875Q26.128124 36.753124 25.175 37.284374Q24.2375 37.8 22.971874 37.8Q21.096874 37.8 20.08125 36.721874Q19.08125 35.628124 19.128124 33.4875ZM36.64375 36.26875Q35.659374 37.096874 34.753124 37.440624Q33.846874 37.784374 32.815624 37.784374Q31.1125 37.784374 30.190624 36.95625Q29.26875 36.1125 29.26875 34.815624Q29.26875 34.05 29.6125 33.425Q29.971874 32.8 30.534374 32.425Q31.096874 32.034374 31.8 31.83125Q32.315624 31.70625 33.3625 31.565624Q35.4875 31.315624 36.4875 30.971874Q36.503124 30.6125 36.503124 30.503124Q36.503124 29.440624 36.003124 28.9875Q35.33125 28.39375 34.003124 28.39375Q32.753124 28.39375 32.159374 28.83125Q31.58125 29.26875 31.3 30.378124L29.58125 30.14375Q29.815624 29.034374 30.346874 28.3625Q30.878124 27.675 31.89375 27.315624Q32.909374 26.940624 34.253124 26.940624Q35.58125 26.940624 36.409374 27.253124Q37.2375 27.565624 37.628124 28.05Q38.01875 28.51875 38.175 29.2375Q38.26875 29.690624 38.26875 30.8625L38.26875 33.20625Q38.26875 35.659374 38.378124 36.315624Q38.4875 36.95625 38.83125 37.55L36.9875 37.55Q36.721874 37.003124 36.64375 36.26875ZM36.4875 32.346874Q35.534374 32.7375 33.6125 33.003124Q32.534374 33.159374 32.08125 33.3625Q31.64375 33.55 31.39375 33.925Q31.14375 34.3 31.14375 34.76875Q31.14375 35.471874 31.675 35.940624Q32.20625 36.409374 33.2375 36.409374Q34.253124 36.409374 35.034374 35.971874Q35.83125 35.51875 36.20625 34.753124Q36.4875 34.14375 36.4875 32.9875L36.4875 32.346874ZM43.753124 37.55L39.8 27.175L41.659374 27.175L43.89375 33.39375Q44.253124 34.39375 44.55 35.471874Q44.784374 34.659374 45.20625 33.503124L47.503124 27.175L49.315624 27.175L45.39375 37.55L43.753124 37.55ZM56.64375 36.26875Q55.659374 37.096874 54.753124 37.440624Q53.846874 37.784374 52.815624 37.784374Q51.1125 37.784374 50.190624 36.95625Q49.26875 36.1125 49.26875 34.815624Q49.26875 34.05 49.6125 33.425Q49.971874 32.8 50.534374 32.425Q51.096874 32.034374 51.8 31.83125Q52.315624 31.70625 53.3625 31.565624Q55.4875 31.315624 56.4875 30.971874Q56.503124 30.6125 56.503124 30.503124Q56.503124 29.440624 56.003124 28.9875Q55.33125 28.39375 54.003124 28.39375Q52.753124 28.39375 52.159374 28.83125Q51.58125 29.26875 51.3 30.378124L49.58125 30.14375Q49.815624 29.034374 50.346874 28.3625Q50.878124 27.675 51.89375 27.315624Q52.909374 26.940624 54.253124 26.940624Q55.58125 26.940624 56.409374 27.253124Q57.2375 27.565624 57.628124 28.05Q58.01875 28.51875 58.175 29.2375Q58.26875 29.690624 58.26875 30.8625L58.26875 33.20625Q58.26875 35.659374 58.378124 36.315624Q58.4875 36.95625 58.83125 37.55L56.9875 37.55Q56.721874 37.003124 56.64375 36.26875ZM56.4875 32.346874Q55.534374 32.7375 53.6125 33.003124Q52.534374 33.159374 52.08125 33.3625Q51.64375 33.55 51.39375 33.925Q51.14375 34.3 51.14375 34.76875Q51.14375 35.471874 51.675 35.940624Q52.20625 36.409374 53.2375 36.409374Q54.253124 36.409374 55.034374 35.971874Q55.83125 35.51875 56.20625 34.753124Q56.4875 34.14375 56.4875 32.9875L56.4875 32.346874ZM70.70625 35.971874L70.95625 37.534374Q70.22188 37.690624 69.62813 37.690624Q68.675 37.690624 68.14375 37.39375Q67.62813 37.08125 67.40938 36.596874Q67.19063 36.096874 67.19063 34.51875L67.19063 28.55L65.90938 28.55L65.90938 27.175L67.19063 27.175L67.19063 24.6125L68.94063 23.55L68.94063 27.175L70.70625 27.175L70.70625 28.55L68.94063 28.55L68.94063 34.6125Q68.94063 35.3625 69.03438 35.58125Q69.12813 35.784374 69.33125 35.925Q69.55 36.05 69.94063 36.05Q70.22188 36.05 70.70625 35.971874ZM72.8625 37.55L72.8625 23.2375L74.62813 23.2375L74.62813 28.3625Q75.8625 26.940624 77.7375 26.940624Q78.87813 26.940624 79.72188 27.39375Q80.58125 27.846874 80.94063 28.659374Q81.31563 29.45625 81.31563 30.971874L81.31563 37.55L79.56563 37.55L79.56563 30.971874Q79.56563 29.659374 78.9875 29.065624Q78.40938 28.45625 77.37813 28.45625Q76.59688 28.45625 75.89375 28.8625Q75.20625 29.26875 74.90938 29.971874Q74.62813 30.659374 74.62813 31.878124L74.62813 37.55L72.8625 37.55ZM82.84688 37.55L82.84688 27.175L84.425 27.175L84.425 28.753124Q85.03438 27.64375 85.55 27.3Q86.06563 26.940624 86.675 26.940624Q87.56563 26.940624 88.4875 27.503124L87.87813 29.14375Q87.2375 28.753124 86.59688 28.753124Q86.01875 28.753124 85.55 29.1125Q85.09688 29.45625 84.89375 30.065624Q84.6125 31.003124 84.6125 32.1125L84.6125 37.55L82.84688 37.55ZM89.22188 32.3625Q89.22188 29.4875 90.81563 28.096874Q92.15938 26.940624 94.08125 26.940624Q96.22188 26.940624 97.56563 28.346874Q98.925 29.753124 98.925 32.221874Q98.925 34.221874 98.33125 35.378124Q97.7375 36.51875 96.58125 37.159374Q95.44063 37.784374 94.08125 37.784374Q91.89375 37.784374 90.55 36.39375Q89.22188 34.9875 89.22188 32.3625ZM91.01875 32.3625Q91.01875 34.3625 91.87813 35.346874Q92.75313 36.33125 94.08125 36.33125Q95.39375 36.33125 96.25313 35.346874Q97.12813 34.346874 97.12813 32.3Q97.12813 30.378124 96.25313 29.39375Q95.37813 28.39375 94.08125 28.39375Q92.75313 28.39375 91.87813 29.39375Q91.01875 30.378124 91.01875 32.3625ZM107.65938 37.55L107.65938 36.01875Q106.45625 37.784374 104.37813 37.784374Q103.45625 37.784374 102.65938 37.440624Q101.8625 37.08125 101.47188 36.55Q101.09688 36.01875 100.94063 35.2375Q100.83125 34.721874 100.83125 33.596874L100.83125 27.175L102.58125 27.175L102.58125 32.925Q102.58125 34.3 102.69063 34.784374Q102.8625 35.471874 103.39375 35.878124Q103.94063 36.26875 104.72188 36.26875Q105.51875 36.26875 106.20625 35.8625Q106.90938 35.45625 107.19063 34.76875Q107.4875 34.065624 107.4875 32.7375L107.4875 27.175L109.2375 27.175L109.2375 37.55L107.65938 37.55ZM110.55 38.409374L112.25313 38.659374Q112.3625 39.45625 112.84688 39.815624Q113.50313 40.3 114.64375 40.3Q115.8625 40.3 116.51875 39.815624Q117.19063 39.33125 117.425 38.45625Q117.56563 37.909374 117.55 36.190624Q116.39375 37.55 114.675 37.55Q112.53438 37.55 111.3625 36.003124Q110.19063 34.45625 110.19063 32.3Q110.19063 30.815624 110.72188 29.565624Q111.26875 28.315624 112.28438 27.628124Q113.31563 26.940624 114.69063 26.940624Q116.51875 26.940624 117.72188 28.425L117.72188 27.175L119.33125 27.175L119.33125 36.14375Q119.33125 38.565624 118.83125 39.565624Q118.34688 40.58125 117.26875 41.159374Q116.20625 41.753124 114.64375 41.753124Q112.8 41.753124 111.64375 40.925Q110.50313 40.096874 110.55 38.409374ZM112.00313 32.175Q112.00313 34.221874 112.81563 35.159374Q113.62813 36.096874 114.84688 36.096874Q116.05 36.096874 116.8625 35.159374Q117.69063 34.221874 117.69063 32.2375Q117.69063 30.33125 116.84688 29.3625Q116.00313 28.39375 114.81563 28.39375Q113.64375 28.39375 112.81563 29.346874Q112.00313 30.3 112.00313 32.175ZM121.8625 37.55L121.8625 23.2375L123.62813 23.2375L123.62813 28.3625Q124.8625 26.940624 126.7375 26.940624Q127.87813 26.940624 128.72188 27.39375Q129.58125 27.846874 129.94063 28.659374Q130.31563 29.45625 130.31563 30.971874L130.31563 37.55L128.56563 37.55L128.56563 30.971874Q128.56563 29.659374 127.9875 29.065624Q127.40938 28.45625 126.37813 28.45625Q125.59688 28.45625 124.89375 28.8625Q124.20625 29.26875 123.90938 29.971874Q123.62813 30.659374 123.62813 31.878124L123.62813 37.55L121.8625 37.55ZM131.8625 41.51875L131.8625 27.175L133.47188 27.175L133.47188 28.51875Q134.03438 27.7375 134.7375 27.346874Q135.45625 26.940624 136.47188 26.940624Q137.8 26.940624 138.81563 27.628124Q139.83125 28.315624 140.34688 29.565624Q140.87813 30.8 140.87813 32.284374Q140.87813 33.878124 140.3 35.159374Q139.7375 36.425 138.64375 37.1125Q137.55 37.784374 136.34688 37.784374Q135.47188 37.784374 134.76875 37.409374Q134.08125 37.034374 133.62813 36.471874L133.62813 41.51875L131.8625 41.51875ZM133.45625 32.425Q133.45625 34.425 134.26875 35.378124Q135.08125 36.33125 136.2375 36.33125Q137.40938 36.33125 138.2375 35.346874Q139.08125 34.3625 139.08125 32.26875Q139.08125 30.3 138.25313 29.315624Q137.44063 28.315624 136.31563 28.315624Q135.19063 28.315624 134.31563 29.378124Q133.45625 30.425 133.45625 32.425ZM149.65938 37.55L149.65938 36.01875Q148.45625 37.784374 146.37813 37.784374Q145.45625 37.784374 144.65938 37.440624Q143.8625 37.08125 143.47188 36.55Q143.09688 36.01875 142.94063 35.2375Q142.83125 34.721874 142.83125 33.596874L142.83125 27.175L144.58125 27.175L144.58125 32.925Q144.58125 34.3 144.69063 34.784374Q144.8625 35.471874 145.39375 35.878124Q145.94063 36.26875 146.72188 36.26875Q147.51875 36.26875 148.20625 35.8625Q148.90938 35.45625 149.19063 34.76875Q149.4875 34.065624 149.4875 32.7375L149.4875 27.175L151.2375 27.175L151.2375 37.55L149.65938 37.55ZM156.70625 35.971874L156.95625 37.534374Q156.22188 37.690624 155.62813 37.690624Q154.675 37.690624 154.14375 37.39375Q153.62813 37.08125 153.40938 36.596874Q153.19063 36.096874 153.19063 34.51875L153.19063 28.55L151.90938 28.55L151.90938 27.175L153.19063 27.175L153.19063 24.6125L154.94063 23.55L154.94063 27.175L156.70625 27.175L156.70625 28.55L154.94063 28.55L154.94063 34.6125Q154.94063 35.3625 155.03438 35.58125Q155.12813 35.784374 155.33125 35.925Q155.55 36.05 155.94063 36.05Q156.22188 36.05 156.70625 35.971874ZM164.22188 32.3625Q164.22188 29.4875 165.81563 28.096874Q167.15938 26.940624 169.08125 26.940624Q171.22188 26.940624 172.56563 28.346874Q173.925 29.753124 173.925 32.221874Q173.925 34.221874 173.33125 35.378124Q172.7375 36.51875 171.58125 37.159374Q170.44063 37.784374 169.08125 37.784374Q166.89375 37.784374 165.55 36.39375Q164.22188 34.9875 164.22188 32.3625ZM166.01875 32.3625Q166.01875 34.3625 166.87813 35.346874Q167.75313 36.33125 169.08125 36.33125Q170.39375 36.33125 171.25313 35.346874Q172.12813 34.346874 172.12813 32.3Q172.12813 30.378124 171.25313 29.39375Q170.37813 28.39375 169.08125 28.39375Q167.75313 28.39375 166.87813 29.39375Q166.01875 30.378124 166.01875 32.3625ZM175.8625 37.55L175.8625 27.175L177.45625 27.175L177.45625 28.659374Q178.59688 26.940624 180.75313 26.940624Q181.69063 26.940624 182.47188 27.284374Q183.26875 27.6125 183.65938 28.159374Q184.05 28.70625 184.20625 29.45625Q184.3 29.95625 184.3 31.175L184.3 37.55L182.53438 37.55L182.53438 31.2375Q182.53438 30.159374 182.33125 29.628124Q182.12813 29.096874 181.59688 28.784374Q181.08125 28.471874 180.37813 28.471874Q179.25313 28.471874 178.44063 29.190624Q177.62813 29.89375 177.62813 31.878124L177.62813 37.55L175.8625 37.55ZM194.59688 37.55L190.8 23.2375L192.7375 23.2375L194.90938 32.6125Q195.26875 34.096874 195.51875 35.55Q196.06563 33.253124 196.15938 32.89375L198.89375 23.2375L201.175 23.2375L203.22188 30.471874Q204.00313 33.175 204.34688 35.55Q204.6125 34.190624 205.05 32.425L207.3 23.2375L209.20625 23.2375L205.28438 37.55L203.45625 37.55L200.44063 26.64375Q200.05 25.26875 199.9875 24.95625Q199.75313 25.940624 199.56563 26.64375L196.53438 37.55L194.59688 37.55ZM217.64375 36.26875Q216.65938 37.096874 215.75313 37.440624Q214.84688 37.784374 213.81563 37.784374Q212.1125 37.784374 211.19063 36.95625Q210.26875 36.1125 210.26875 34.815624Q210.26875 34.05 210.6125 33.425Q210.97188 32.8 211.53438 32.425Q212.09688 32.034374 212.8 31.83125Q213.31563 31.70625 214.3625 31.565624Q216.4875 31.315624 217.4875 30.971874Q217.50313 30.6125 217.50313 30.503124Q217.50313 29.440624 217.00313 28.9875Q216.33125 28.39375 215.00313 28.39375Q213.75313 28.39375 213.15938 28.83125Q212.58125 29.26875 212.3 30.378124L210.58125 30.14375Q210.81563 29.034374 211.34688 28.3625Q211.87813 27.675 212.89375 27.315624Q213.90938 26.940624 215.25313 26.940624Q216.58125 26.940624 217.40938 27.253124Q218.2375 27.565624 218.62813 28.05Q219.01875 28.51875 219.175 29.2375Q219.26875 29.690624 219.26875 30.8625L219.26875 33.20625Q219.26875 35.659374 219.37813 36.315624Q219.4875 36.95625 219.83125 37.55L217.9875 37.55Q217.72188 37.003124 217.64375 36.26875ZM217.4875 32.346874Q216.53438 32.7375 214.6125 33.003124Q213.53438 33.159374 213.08125 33.3625Q212.64375 33.55 212.39375 33.925Q212.14375 34.3 212.14375 34.76875Q212.14375 35.471874 212.675 35.940624Q213.20625 36.409374 214.2375 36.409374Q215.25313 36.409374 216.03438 35.971874Q216.83125 35.51875 217.20625 34.753124Q217.4875 34.14375 217.4875 32.9875L217.4875 32.346874ZM221.15938 34.45625L222.90938 34.175Q223.05 35.221874 223.72188 35.784374Q224.39375 36.33125 225.59688 36.33125Q226.8 36.33125 227.37813 35.846874Q227.97188 35.346874 227.97188 34.690624Q227.97188 34.096874 227.45625 33.753124Q227.09688 33.51875 225.65938 33.159374Q223.72188 32.659374 222.97188 32.315624Q222.2375 31.95625 221.84688 31.33125Q221.45625 30.690624 221.45625 29.925Q221.45625 29.2375 221.76875 28.64375Q222.09688 28.05 222.64375 27.659374Q223.05 27.3625 223.75313 27.159374Q224.47188 26.940624 225.28438 26.940624Q226.50313 26.940624 227.425 27.3Q228.34688 27.64375 228.78438 28.253124Q229.22188 28.846874 229.39375 29.846874L227.675 30.08125Q227.55 29.284374 226.9875 28.846874Q226.425 28.39375 225.40938 28.39375Q224.19063 28.39375 223.675 28.8Q223.15938 29.190624 223.15938 29.721874Q223.15938 30.065624 223.37813 30.346874Q223.58125 30.628124 224.05 30.815624Q224.31563 30.909374 225.59688 31.253124Q227.47188 31.753124 228.20625 32.08125Q228.94063 32.39375 229.3625 33.003124Q229.78438 33.596874 229.78438 34.503124Q229.78438 35.378124 229.26875 36.159374Q228.75313 36.940624 227.78438 37.3625Q226.81563 37.784374 225.59688 37.784374Q223.58125 37.784374 222.51875 36.940624Q221.45625 36.096874 221.15938 34.45625ZM231.8625 37.55L231.8625 27.175L233.44063 27.175L233.44063 28.628124Q233.925 27.878124 234.7375 27.409374Q235.55 26.940624 236.58125 26.940624Q237.7375 26.940624 238.47188 27.425Q239.20625 27.89375 239.51875 28.753124Q240.75313 26.940624 242.72188 26.940624Q244.26875 26.940624 245.09688 27.8Q245.925 28.659374 245.925 30.425L245.925 37.55L244.175 37.55L244.175 31.01875Q244.175 29.95625 244.00313 29.503124Q243.83125 29.034374 243.37813 28.753124Q242.94063 28.471874 242.33125 28.471874Q241.2375 28.471874 240.50313 29.20625Q239.78438 29.925 239.78438 31.51875L239.78438 37.55L238.03438 37.55L238.03438 30.815624Q238.03438 29.64375 237.59688 29.065624Q237.175 28.471874 236.19063 28.471874Q235.45625 28.471874 234.81563 28.8625Q234.19063 29.253124 233.90938 30.003124Q233.62813 30.753124 233.62813 32.175L233.62813 37.55L231.8625 37.55ZM254.8 31.940624L254.8 30.253124L260.8625 30.2375L260.8625 35.55Q259.45624 36.675 257.97186 37.2375Q256.4875 37.8 254.925 37.8Q252.81563 37.8 251.09688 36.89375Q249.37813 35.9875 248.4875 34.284374Q247.6125 32.565624 247.6125 30.45625Q247.6125 28.3625 248.4875 26.565624Q249.3625 24.753124 251.00313 23.878124Q252.64375 22.9875 254.78438 22.9875Q256.33124 22.9875 257.58124 23.4875Q258.84686 23.9875 259.55 24.89375Q260.26874 25.784374 260.64374 27.2375L258.9406 27.70625Q258.6125 26.6125 258.1281 25.9875Q257.65936 25.3625 256.76874 24.9875Q255.87813 24.6125 254.8 24.6125Q253.4875 24.6125 252.53438 25.003124Q251.59688 25.39375 251.01875 26.05Q250.44063 26.690624 250.1125 27.45625Q249.56563 28.784374 249.56563 30.346874Q249.56563 32.253124 250.22188 33.55Q250.89375 34.83125 252.14375 35.45625Q253.40938 36.08125 254.81563 36.08125Q256.05 36.08125 257.22186 35.6125Q258.39374 35.14375 259.0031 34.596874L259.0031 31.940624L254.8 31.940624ZM274.3156 32.534374L276.20624 33.003124Q275.6125 35.346874 274.0656 36.58125Q272.51874 37.8 270.26874 37.8Q267.95624 37.8 266.5031 36.8625Q265.0656 35.909374 264.3 34.128124Q263.55 32.33125 263.55 30.284374Q263.55 28.05 264.39374 26.39375Q265.2531 24.721874 266.83124 23.8625Q268.40936 22.9875 270.3 22.9875Q272.45624 22.9875 273.90936 24.08125Q275.3781 25.175 275.95624 27.159374L274.09686 27.596874Q273.59686 26.034374 272.64374 25.33125Q271.70624 24.6125 270.26874 24.6125Q268.6125 24.6125 267.5031 25.409374Q266.39374 26.190624 265.9406 27.534374Q265.5031 28.8625 265.5031 30.26875Q265.5031 32.096874 266.03436 33.471874Q266.5656 34.83125 267.6906 35.503124Q268.8156 36.175 270.1125 36.175Q271.70624 36.175 272.8156 35.253124Q273.925 34.33125 274.3156 32.534374ZM287.22186 41.753124Q285.76874 39.925 284.76874 37.471874Q283.76874 35.003124 283.76874 32.3625Q283.76874 30.034374 284.51874 27.909374Q285.39374 25.440624 287.22186 22.9875L288.4875 22.9875Q287.3 25.01875 286.925 25.89375Q286.33124 27.2375 285.9875 28.70625Q285.5656 30.534374 285.5656 32.378124Q285.5656 37.065624 288.4875 41.753124L287.22186 41.753124ZM290.8625 37.55L290.8625 23.2375L292.6281 23.2375L292.6281 28.3625Q293.8625 26.940624 295.7375 26.940624Q296.8781 26.940624 297.72186 27.39375Q298.58124 27.846874 298.9406 28.659374Q299.3156 29.45625 299.3156 30.971874L299.3156 37.55L297.5656 37.55L297.5656 30.971874Q297.5656 29.659374 296.9875 29.065624Q296.40936 28.45625 295.3781 28.45625Q294.59686 28.45625 293.89374 28.8625Q293.20624 29.26875 292.90936 29.971874Q292.6281 30.659374 292.6281 31.878124L292.6281 37.55L290.8625 37.55ZM300.8781 25.253124L300.8781 23.2375L302.64374 23.2375L302.64374 25.253124L300.8781 25.253124ZM300.8781 37.55L300.8781 27.175L302.64374 27.175L302.64374 37.55L300.8781 37.55ZM304.55 38.409374L306.2531 38.659374Q306.3625 39.45625 306.84686 39.815624Q307.5031 40.3 308.64374 40.3Q309.8625 40.3 310.51874 39.815624Q311.1906 39.33125 311.425 38.45625Q311.5656 37.909374 311.55 36.190624Q310.39374 37.55 308.675 37.55Q306.53436 37.55 305.3625 36.003124Q304.1906 34.45625 304.1906 32.3Q304.1906 30.815624 304.72186 29.565624Q305.26874 28.315624 306.28436 27.628124Q307.3156 26.940624 308.6906 26.940624Q310.51874 26.940624 311.72186 28.425L311.72186 27.175L313.33124 27.175L313.33124 36.14375Q313.33124 38.565624 312.83124 39.565624Q312.34686 40.58125 311.26874 41.159374Q310.20624 41.753124 308.64374 41.753124Q306.8 41.753124 305.64374 40.925Q304.5031 40.096874 304.55 38.409374ZM306.0031 32.175Q306.0031 34.221874 306.8156 35.159374Q307.6281 36.096874 308.84686 36.096874Q310.05 36.096874 310.8625 35.159374Q311.6906 34.221874 311.6906 32.2375Q311.6906 30.33125 310.84686 29.3625Q310.0031 28.39375 308.8156 28.39375Q307.64374 28.39375 306.8156 29.346874Q306.0031 30.3 306.0031 32.175ZM315.8625 37.55L315.8625 23.2375L317.6281 23.2375L317.6281 28.3625Q318.8625 26.940624 320.7375 26.940624Q321.8781 26.940624 322.72186 27.39375Q323.58124 27.846874 323.9406 28.659374Q324.3156 29.45625 324.3156 30.971874L324.3156 37.55L322.5656 37.55L322.5656 30.971874Q322.5656 29.659374 321.9875 29.065624Q321.40936 28.45625 320.3781 28.45625Q319.59686 28.45625 318.89374 28.8625Q318.20624 29.26875 317.90936 29.971874Q317.6281 30.659374 317.6281 31.878124L317.6281 37.55L315.8625 37.55ZM332.97186 34.20625L334.78436 34.440624Q334.3625 36.01875 333.1906 36.909374Q332.03436 37.784374 330.22186 37.784374Q327.95624 37.784374 326.6125 36.39375Q325.28436 34.9875 325.28436 32.45625Q325.28436 29.83125 326.6281 28.39375Q327.97186 26.940624 330.1281 26.940624Q332.20624 26.940624 333.51874 28.3625Q334.84686 29.76875 334.84686 32.346874Q334.84686 32.503124 334.83124 32.815624L327.09686 32.815624Q327.1906 34.51875 328.0656 35.425Q328.9406 36.33125 330.2375 36.33125Q331.20624 36.33125 331.8781 35.83125Q332.5656 35.315624 332.97186 34.20625ZM327.1906 31.3625L332.9875 31.3625Q332.8781 30.065624 332.33124 29.409374Q331.4875 28.39375 330.14374 28.39375Q328.9406 28.39375 328.1125 29.20625Q327.28436 30.003124 327.1906 31.3625ZM336.84686 37.55L336.84686 27.175L338.425 27.175L338.425 28.753124Q339.03436 27.64375 339.55 27.3Q340.0656 26.940624 340.675 26.940624Q341.5656 26.940624 342.4875 27.503124L341.8781 29.14375Q341.2375 28.753124 340.59686 28.753124Q340.01874 28.753124 339.55 29.1125Q339.09686 29.45625 338.89374 30.065624Q338.6125 31.003124 338.6125 32.1125L338.6125 37.55L336.84686 37.55ZM349.8781 25.253124L349.8781 23.2375L351.64374 23.2375L351.64374 25.253124L349.8781 25.253124ZM349.8781 37.55L349.8781 27.175L351.64374 27.175L351.64374 37.55L349.8781 37.55ZM353.15936 34.45625L354.90936 34.175Q355.05 35.221874 355.72186 35.784374Q356.39374 36.33125 357.59686 36.33125Q358.8 36.33125 359.3781 35.846874Q359.97186 35.346874 359.97186 34.690624Q359.97186 34.096874 359.45624 33.753124Q359.09686 33.51875 357.65936 33.159374Q355.72186 32.659374 354.97186 32.315624Q354.2375 31.95625 353.84686 31.33125Q353.45624 30.690624 353.45624 29.925Q353.45624 29.2375 353.76874 28.64375Q354.09686 28.05 354.64374 27.659374Q355.05 27.3625 355.7531 27.159374Q356.47186 26.940624 357.28436 26.940624Q358.5031 26.940624 359.425 27.3Q360.34686 27.64375 360.78436 28.253124Q361.22186 28.846874 361.39374 29.846874L359.675 30.08125Q359.55 29.284374 358.9875 28.846874Q358.425 28.39375 357.40936 28.39375Q356.1906 28.39375 355.675 28.8Q355.15936 29.190624 355.15936 29.721874Q355.15936 30.065624 355.3781 30.346874Q355.58124 30.628124 356.05 30.815624Q356.3156 30.909374 357.59686 31.253124Q359.47186 31.753124 360.20624 32.08125Q360.9406 32.39375 361.3625 33.003124Q361.78436 33.596874 361.78436 34.503124Q361.78436 35.378124 361.26874 36.159374Q360.7531 36.940624 359.78436 37.3625Q358.8156 37.784374 357.59686 37.784374Q355.58124 37.784374 354.51874 36.940624Q353.45624 36.096874 353.15936 34.45625ZM371.4875 37.55L369.8625 37.55L369.8625 23.2375L371.6125 23.2375L371.6125 28.346874Q372.7375 26.940624 374.45624 26.940624Q375.40936 26.940624 376.26874 27.33125Q377.1281 27.721874 377.675 28.425Q378.22186 29.1125 378.53436 30.096874Q378.84686 31.08125 378.84686 32.20625Q378.84686 34.878124 377.53436 36.33125Q376.22186 37.784374 374.3781 37.784374Q372.53436 37.784374 371.4875 36.253124L371.4875 37.55ZM371.47186 32.284374Q371.47186 34.14375 371.97186 34.9875Q372.8156 36.33125 374.22186 36.33125Q375.3781 36.33125 376.20624 35.33125Q377.05 34.33125 377.05 32.346874Q377.05 30.315624 376.2375 29.3625Q375.4406 28.39375 374.3 28.39375Q373.14374 28.39375 372.3 29.39375Q371.47186 30.39375 371.47186 32.284374ZM387.97186 34.20625L389.78436 34.440624Q389.3625 36.01875 388.1906 36.909374Q387.03436 37.784374 385.22186 37.784374Q382.95624 37.784374 381.6125 36.39375Q380.28436 34.9875 380.28436 32.45625Q380.28436 29.83125 381.6281 28.39375Q382.97186 26.940624 385.1281 26.940624Q387.20624 26.940624 388.51874 28.3625Q389.84686 29.76875 389.84686 32.346874Q389.84686 32.503124 389.83124 32.815624L382.09686 32.815624Q382.1906 34.51875 383.0656 35.425Q383.9406 36.33125 385.2375 36.33125Q386.20624 36.33125 386.8781 35.83125Q387.5656 35.315624 387.97186 34.20625ZM382.1906 31.3625L387.9875 31.3625Q387.8781 30.065624 387.33124 29.409374Q386.4875 28.39375 385.14374 28.39375Q383.9406 28.39375 383.1125 29.20625Q382.28436 30.003124 382.1906 31.3625ZM395.70624 35.971874L395.95624 37.534374Q395.22186 37.690624 394.6281 37.690624Q393.675 37.690624 393.14374 37.39375Q392.6281 37.08125 392.40936 36.596874Q392.1906 36.096874 392.1906 34.51875L392.1906 28.55L390.90936 28.55L390.90936 27.175L392.1906 27.175L392.1906 24.6125L393.9406 23.55L393.9406 27.175L395.70624 27.175L395.70624 28.55L393.9406 28.55L393.9406 34.6125Q393.9406 35.3625 394.03436 35.58125Q394.1281 35.784374 394.33124 35.925Q394.55 36.05 394.9406 36.05Q395.22186 36.05 395.70624 35.971874ZM401.70624 35.971874L401.95624 37.534374Q401.22186 37.690624 400.6281 37.690624Q399.675 37.690624 399.14374 37.39375Q398.6281 37.08125 398.40936 36.596874Q398.1906 36.096874 398.1906 34.51875L398.1906 28.55L396.90936 28.55L396.90936 27.175L398.1906 27.175L398.1906 24.6125L399.9406 23.55L399.9406 27.175L401.70624 27.175L401.70624 28.55L399.9406 28.55L399.9406 34.6125Q399.9406 35.3625 400.03436 35.58125Q400.1281 35.784374 400.33124 35.925Q400.55 36.05 400.9406 36.05Q401.22186 36.05 401.70624 35.971874ZM410.97186 34.20625L412.78436 34.440624Q412.3625 36.01875 411.1906 36.909374Q410.03436 37.784374 408.22186 37.784374Q405.95624 37.784374 404.6125 36.39375Q403.28436 34.9875 403.28436 32.45625Q403.28436 29.83125 404.6281 28.39375Q405.97186 26.940624 408.1281 26.940624Q410.20624 26.940624 411.51874 28.3625Q412.84686 29.76875 412.84686 32.346874Q412.84686 32.503124 412.83124 32.815624L405.09686 32.815624Q405.1906 34.51875 406.0656 35.425Q406.9406 36.33125 408.2375 36.33125Q409.20624 36.33125 409.8781 35.83125Q410.5656 35.315624 410.97186 34.20625ZM405.1906 31.3625L410.9875 31.3625Q410.8781 30.065624 410.33124 29.409374Q409.4875 28.39375 408.14374 28.39375Q406.9406 28.39375 406.1125 29.20625Q405.28436 30.003124 405.1906 31.3625ZM414.84686 37.55L414.84686 27.175L416.425 27.175L416.425 28.753124Q417.03436 27.64375 417.55 27.3Q418.0656 26.940624 418.675 26.940624Q419.5656 26.940624 420.4875 27.503124L419.8781 29.14375Q419.2375 28.753124 418.59686 28.753124Q418.01874 28.753124 417.55 29.1125Q417.09686 29.45625 416.89374 30.065624Q416.6125 31.003124 416.6125 32.1125L416.6125 37.55L414.84686 37.55ZM423.01874 41.753124L421.76874 41.753124Q424.675 37.065624 424.675 32.378124Q424.675 30.534374 424.26874 28.7375Q423.925 27.26875 423.33124 25.925Q422.95624 25.034374 421.76874 22.9875L423.01874 22.9875Q424.8625 25.440624 425.7375 27.909374Q426.4875 30.034374 426.4875 32.3625Q426.4875 35.003124 425.47186 37.471874Q424.47186 39.925 423.01874 41.753124Z" fill-rule="nonzero"/></svg>