<svg xmlns="http://www.w3.org/2000/svg" xmlns:xlink="http://www.w3.org/1999/xlink" width="960" height="518"><defs/><defs><path id="p" d="M391.5 423.1h188.7v59.7H391.5z" class="m"/><path id="m" d="M85.8 346.6h163.5v59.7H85.8z" class="m"/><path id="o" d="M416.8 211h142.6v59.8H416.8z" class="m"/><path id="n" d="M0 0h960v540H0z" class="j"/></defs><style>.b{fill-rule:nonzero}.c{fill:#e67c73}.d{stroke-linejoin:round}.e{stroke:#666}.f{fill:#fff}.g{fill:#000}.h{fill:#673ab7}.i{stroke-width:4}.j{fill-rule:evenodd}.k{fill:#db4437}.l{fill:#4285f4}.m{fill:#bdbdbd}</style><mask id="a" class="f"><path d="M0 0h960v518H0z" class="j"/></mask><mask id="b" class="f"><use class="j" xlink:href="#n"/></mask><g mask="url(#a)"><g fill="none" mask="url(#b)"><use class="f" xlink:href="#n"/><g fill="#fff2cc"><use xlink:href="#d"/><use y="-2" xlink:href="#d"/></g><g class="b"><path fill="#ff0" d="M220.3 61.2H278v38.4h-57.6V61.2z"/><path d="M49.4 83.3c0-1.2.2-2.3.6-3.4.3-1 .8-2 1.5-2.7a7 7 0 012.4-1.8c1-.5 2-.7 3.2-.7 1.2 0 2.3.2 3.2.7a6.9 6.9 0 012.4 1.8 8 8 0 011.6 2.7c.3 1 .5 2.2.5 3.4v.4c0 1.2-.2 2.3-.5 3.4s-.9 2-1.6 2.7a7 7 0 01-2.4 1.8c-1 .4-2 .7-3.2.7a8 8 0 01-3.2-.7 7 7 0 01-2.4-1.8C50.8 89 50.3 88 50 87s-.6-2.2-.6-3.4v-.4zm3 .4c0 .8 0 1.6.2 2.4a6.3 6.3 0 00.9 2 4.5 4.5 0 001.5 1.3c.6.3 1.3.5 2.1.5s1.5-.2 2-.5a4.4 4.4 0 001.6-1.3 6 6 0 00.9-2l.3-2.4v-.4c0-.8-.1-1.6-.3-2.3a6 6 0 00-1-2 4.4 4.4 0 00-1.4-1.4 4.6 4.6 0 00-4.2 0 4.6 4.6 0 00-1.5 1.4 6.2 6.2 0 00-.9 2 9.2 9.2 0 00-.3 2.3z" class="g"/><path d="M102.6 79.7h-14v-2.5h14v2.5zm0 6.5h-14v-2.5h14zm37 11.5a5.7 5.7 0 01-1.8-.4 5.3 5.3 0 01-1.5-.8 5.8 5.8 0 01-1.2-1.3 8.3 8.3 0 01-.8-1.5 9.2 9.2 0 01-.6-3.3v-2.7c0-1.5-.3-2.5-1-3.2-.8-.7-1.9-1-3.3-1v-2.3c1.4 0 2.5-.4 3.2-1 .8-.7 1.1-1.8 1.1-3.3v-2.7a10.3 10.3 0 01.6-3.3 7.6 7.6 0 01.7-1.5 5.5 5.5 0 011.2-1.2 5.3 5.3 0 011.5-.9c.5-.2 1.2-.3 2-.3l.2 1.8a3 3 0 00-1.8.5c-.4.3-.7.8-1 1.3a5.8 5.8 0 00-.4 1.7 19.9 19.9 0 000 2v2.6c0 1.3-.4 2.4-1 3.3-.5 1-1.4 1.6-2.6 2.1 1.2.5 2 1.2 2.6 2.2.6 1 1 2 1 3.2v2.7a11.9 11.9 0 000 2l.6 1.6c.3.6.6 1 1 1.3.5.4 1 .5 1.6.6z" class="c"/><path d="M172.4 81.3L177 75h3.4l-6.3 8.4 6.4 8.5h-3.3l-4.7-6.4-4.7 6.4h-3.3l6.4-8.5-6.3-8.4h3.4z" class="g"/><path d="M190.7 90a2.7 2.7 0 01.1-.8 2.1 2.1 0 01.5-.7l.7-.5a2.6 2.6 0 011-.2c.3 0 .7 0 1 .2a1.9 1.9 0 01.7.5 1.8 1.8 0 01.4.7 2.4 2.4 0 010 1.7 1.9 1.9 0 01-.4.7l-.8.5-1 .1-1-.1a1.8 1.8 0 01-.6-.5 2.2 2.2 0 01-.5-.7 2.6 2.6 0 01-.1-.8zm0-14a2.7 2.7 0 01.1-.8 2.1 2.1 0 01.5-.7l.7-.5a2.6 2.6 0 011-.2c.3 0 .7 0 1 .2a1.9 1.9 0 01.7.5 1.8 1.8 0 01.4.7 2.4 2.4 0 010 1.7 1.9 1.9 0 01-.4.7 2 2 0 01-.8.5 2.9 2.9 0 01-1 .1 2.8 2.8 0 01-1-.1 2 2 0 01-.6-.5 2.2 2.2 0 01-.5-.7 2.6 2.6 0 01-.1-.8z" class="c"/><path d="M237.3 83.2c0 1.5-.1 2.8-.5 3.9-.3 1.1-.8 2-1.4 2.8a6 6 0 01-2.3 1.8 10 10 0 01-6.2 0 6.2 6.2 0 01-2.3-1.8 8.2 8.2 0 01-1.5-2.8c-.3-1.1-.5-2.4-.5-3.9V78c0-1.4.2-2.7.5-3.8.3-1.2.8-2.1 1.5-2.9a6.2 6.2 0 012.3-1.7c.9-.4 2-.6 3-.6a8 8 0 013.2.6 6 6 0 012.3 1.7 8 8 0 011.4 2.9c.4 1 .5 2.4.5 3.8zm-11.8-.5l8.9-6.8a5.9 5.9 0 00-1.4-3.5c-.7-.8-1.7-1.2-3-1.2-1.6 0-2.7.5-3.4 1.6-.7 1-1 2.5-1 4.5zm9-4l-9 6.7c.3 1.5.7 2.6 1.5 3.3s1.7 1.2 3 1.2c1.5 0 2.6-.5 3.4-1.6.7-1 1-2.5 1-4.5v-5.2zM247.2 90a2.7 2.7 0 01.1-1 2.1 2.1 0 01.5-.6 1.9 1.9 0 01.7-.5l1-.2c.4 0 .7 0 1 .2a1.9 1.9 0 01.7.5 1.8 1.8 0 01.4.7 2.4 2.4 0 010 1.7 1.8 1.8 0 01-.4.7l-.8.5-1 .1-1-.1a1.8 1.8 0 01-.6-.5 2.2 2.2 0 01-.5-.7 2.6 2.6 0 01-.1-.8zm23.5 1.8H268V73l-6 2.2v-2.6l8.6-3.3h.2z" class="k"/><path d="M302.2 95.9c.6 0 1.2-.2 1.6-.6a3.5 3.5 0 001-1.3 5.9 5.9 0 00.6-1.7 10.8 10.8 0 00.1-2v-2.6a5.7 5.7 0 013.6-5.4 5.4 5.4 0 01-2.7-2.1 6 6 0 01-.9-3.3v-2.7a17.1 17.1 0 000-1.9 5.5 5.5 0 00-.5-1.7 3 3 0 00-1-1.3 3 3 0 00-1.8-.5l.3-1.8a6 6 0 012 .3 5.2 5.2 0 011.5.9 5.2 5.2 0 011 1.2 7.1 7.1 0 01.8 1.5 8.9 8.9 0 01.6 3.3V77c0 1.5.4 2.6 1.1 3.3a5 5 0 003.3 1v2.2c-1.5 0-2.6.4-3.3 1s-1 1.8-1 3.3v2.7c0 .8-.2 1.7-.4 2.5a7.3 7.3 0 01-1.1 2.3 6 6 0 01-1.8 1.7c-.8.5-1.6.7-2.7.7l-.3-1.7zm23-19.8a2.7 2.7 0 010-1 2.1 2.1 0 01.5-.6 1.9 1.9 0 01.7-.5l1-.2c.4 0 .7 0 1 .2l.7.5.4.7a2.4 2.4 0 010 1.7 1.8 1.8 0 01-.4.7 2 2 0 01-.7.5 2.9 2.9 0 01-1 .1l-1-.1a2 2 0 01-.7-.5 2.2 2.2 0 01-.4-.7 2.6 2.6 0 01-.2-.8zm3.2 15.2c0 .5 0 1-.2 1.5a7.5 7.5 0 01-.5 1.6 8.6 8.6 0 01-.9 1.5 6.7 6.7 0 01-1.1 1.3l-1.8-1a10.9 10.9 0 001.4-4.9v-2.8h3.1z" class="c"/></g><use fill="#fbbc05" fill-opacity=".4" xlink:href="#e"/><use class="d e" xlink:href="#e"/><g class="b"><path d="M680 155.3v4.2h-2v-11.4h3.9c.6 0 1.1.1 1.6.3s1 .4 1.3.8a3.3 3.3 0 01.8 1.1l.3 1.5a3.6 3.6 0 01-.3 1.4 3.3 3.3 0 01-.8 1.1 3.8 3.8 0 01-1.3.8 5 5 0 01-1.6.2zm0-1.7h1.8c.3 0 .5 0 .8-.2a1.6 1.6 0 00.5-.4 1.6 1.6 0 00.4-.5l.1-.7a2.1 2.1 0 00-.1-.7 1.5 1.5 0 00-.4-.6 1.4 1.4 0 00-.5-.4 2 2 0 00-.8-.2H680zm13.5-2.7a5.8 5.8 0 011.6.2l-.4 2.2a6 6 0 00-.8-.2 8.3 8.3 0 00-1 0c-.5 0-1 .1-1.4.3a2 2 0 00-.8 1v5.1h-2.2v-8.4h2l.2 1.3a3 3 0 011.2-1 3.1 3.1 0 011.6-.5zm3.2 4.3a5.3 5.3 0 01.3-1.7 4 4 0 01.7-1.4l1.3-.9c.5-.2 1-.3 1.7-.3a3.7 3.7 0 013.7 2.6 5.3 5.3 0 01.3 1.7v.2c0 .6-.1 1.2-.3 1.7a4 4 0 01-.8 1.4 3.5 3.5 0 01-1.2.9 4 4 0 01-1.7.3c-.6 0-1.2-.1-1.7-.3s-1-.6-1.3-1a4 4 0 01-.7-1.3 5.4 5.4 0 01-.3-1.7zm2.2.2a5 5 0 000 1l.4.8c.1.2.3.4.6.5l.8.2c.3 0 .6 0 .8-.2a1.7 1.7 0 00.6-.5l.3-.8a4.4 4.4 0 00.1-1v-.2l-.1-1a2.4 2.4 0 00-.3-.8 1.6 1.6 0 00-.6-.5 1.6 1.6 0 00-.8-.2c-.3 0-.6 0-.8.2a1.6 1.6 0 00-.6.5l-.3.8a4.8 4.8 0 00-.1 1zm15.3 0c0 .6 0 1.1-.2 1.7a4 4 0 01-.7 1.3 2.9 2.9 0 01-1 1 3 3 0 01-1.4.3c-.5 0-.9-.1-1.2-.3a2.6 2.6 0 01-.9-.6v4h-2.2V151h2l.1.8a2.7 2.7 0 012.2-1 3 3 0 012.4 1.2l.7 1.4a6.4 6.4 0 01.2 1.7v.2zm-2.2-.2v-1a2.4 2.4 0 00-.4-.8 1.4 1.4 0 00-.5-.5 1.5 1.5 0 00-.8-.2c-.4 0-.7 0-1 .2l-.5.6v3.5a1.6 1.6 0 00.6.7l1 .2c.2 0 .5 0 .7-.2a1.6 1.6 0 00.5-.5 2.8 2.8 0 00.3-.8 5 5 0 00.1-1zm8.3 4.5a4.8 4.8 0 01-1.8-.3 4.5 4.5 0 01-1.3-1 4 4 0 01-1-1.2 4.2 4.2 0 01-.2-1.6v-.3c0-.7 0-1.3.3-1.8l.8-1.4a3.7 3.7 0 011.3-.9 4 4 0 011.7-.3c.6 0 1.1.1 1.6.3s.9.5 1.2.8c.3.4.6.9.7 1.4.2.5.3 1 .3 1.7v.9h-5.7l.2.8.5.6a2.3 2.3 0 001.5.5 3.2 3.2 0 00.7 0 3.6 3.6 0 00.6-.2l.5-.3a2.2 2.2 0 00.5-.5l1 1.2-.5.6a3.6 3.6 0 01-.8.5l-1 .3-1.1.2zm-.2-7a1.7 1.7 0 00-1.3.5 2.1 2.1 0 00-.3.5 3 3 0 00-.3.8h3.6v-.2a1.8 1.8 0 00-.2-.6 1.4 1.4 0 00-.3-.6 1.5 1.5 0 00-.5-.3 1.7 1.7 0 00-.7-.1zm11.8-1.8a6 6 0 01.9 0l.7.2-.4 2.2a6 6 0 00-.8-.2 8.3 8.3 0 00-.9 0c-.6 0-1 .1-1.5.3a2 2 0 00-.8 1v5.1H727v-8.4h2l.2 1.3c.3-.4.7-.8 1.2-1s1-.5 1.6-.5zm7.5-2v2.2h3.2v1.6h-3.2v4.4l.4.5a1.3 1.3 0 00.5.2h1.1a34.4 34.4 0 001 0l.3-.1.2 1.5a3.2 3.2 0 01-.5.2 5.2 5.2 0 01-.7.1 7.3 7.3 0 01-.7.1h-.7a4 4 0 01-1.3-.1 2.5 2.5 0 01-1-.6 2.7 2.7 0 01-.6-1l-.2-1.4v-3.8h-2V151h2v-2zm9.2 7l.2 1 2.3-5.8h2.4l-4.3 9.7-.4.7a3.2 3.2 0 01-1.3 1.2 2.7 2.7 0 01-1.5.2h-.2a2.2 2.2 0 01-.3 0 5.2 5.2 0 00-.2-.1l.2-1.7h.7a.7.7 0 00.5-.1 1.9 1.9 0 00.5-.7l.2-.2.5-1-3.6-8h2.4l1.9 4.9zm16.2-4.8h4.6v6.7h2.3v1.7h-7v-1.7h2.5v-5h-2.4zm2.2-2.2a1.3 1.3 0 01.1-.5 1.2 1.2 0 01.3-.3l.4-.3h.5c.4 0 .7 0 .9.3.2.2.3.5.3.8 0 .3 0 .6-.3.8-.2.2-.5.3-1 .3a1.6 1.6 0 01-.4 0 1.6 1.6 0 01-.4-.3 1.2 1.2 0 01-.3-.3 1.4 1.4 0 010-.5zm8.8 2.2l.1 1.1a3.2 3.2 0 011-1 3 3 0 011.5-.3c.5 0 .9 0 1.2.2l1 .6.5 1c.2.5.2 1 .2 1.6v5.2h-2.1v-5.2c0-.3 0-.6-.2-.8a1.1 1.1 0 00-.3-.5 1 1 0 00-.5-.2 2.6 2.6 0 00-.7-.1c-.3 0-.6 0-.9.2l-.6.6v6h-2.2v-8.4zm9.7 8.4v-6.8h-2.2V151h2.2v-.5c0-.6 0-1 .3-1.5a3 3 0 01.7-1c.4-.3.8-.6 1.2-.7a5 5 0 011.6-.2h1l.5.1h.5l-.1 1.8a7.3 7.3 0 00-1.6-.2c-.7 0-1.1.2-1.5.5-.3.3-.4.7-.4 1.2v.5h3v1.6h-3v6.8zm7.2-4.3a5.3 5.3 0 01.3-1.7c.1-.5.4-1 .7-1.4l1.3-.9c.5-.2 1-.3 1.7-.3a3.7 3.7 0 013.7 2.6 5.3 5.3 0 01.3 1.7v.2c0 .6-.1 1.2-.3 1.7a4 4 0 01-.8 1.4 3.5 3.5 0 01-1.2.9 4 4 0 01-1.7.3c-.6 0-1.2-.1-1.7-.3s-1-.6-1.3-1a4 4 0 01-.7-1.3 5.4 5.4 0 01-.3-1.7v-.2zm2.2.2a5.1 5.1 0 000 1l.4.8a1.7 1.7 0 00.6.5c.2.2.5.2.8.2.3 0 .6 0 .8-.2l.6-.5a2.5 2.5 0 00.3-.8 4.4 4.4 0 00.1-1v-.2l-.1-1a2.3 2.3 0 00-.3-.8 1.6 1.6 0 00-.6-.5 1.6 1.6 0 00-.8-.2c-.3 0-.6 0-.8.2a1.6 1.6 0 00-.6.5l-.3.8a4.8 4.8 0 00-.1 1zm13.8-4.5a5.8 5.8 0 011.6.2l-.4 2.2a6 6 0 00-.8-.2 8.3 8.3 0 00-1 0c-.5 0-1 .1-1.4.3a2 2 0 00-.8 1v5.1h-2.2v-8.4h2l.2 1.3a3.8 3.8 0 011.2-1 3.1 3.1 0 011.6-.5zm4.8.2l.1 1c.2-.4.4-.7.7-.9s.6-.3 1-.3c.7 0 1.1.3 1.4.9.1-.3.3-.5.6-.7l1-.2.6.1a1.5 1.5 0 01.6.5l.4.8.1 1.2v6h-2v-6a1 1 0 000-.4.6.6 0 00-.1-.3.4.4 0 00-.2-.1.9.9 0 00-.3 0 .6.6 0 00-.3 0 .7.7 0 00-.3.4v6.4H815v-6.4a.5.5 0 00-.2-.3.4.4 0 00-.2-.1.9.9 0 00-.2 0 .6.6 0 00-.4.1 1.1 1.1 0 00-.2.4v6.3h-2v-8.4zm13.6 8.4a2.3 2.3 0 01-.2-.3 13.2 13.2 0 010-.5 2.4 2.4 0 01-.5.4 3.2 3.2 0 01-.5.3 2.8 2.8 0 01-.6.2 3.3 3.3 0 01-.7 0l-1.2-.1a3 3 0 01-1-.5l-.6-.8a2.4 2.4 0 01-.2-1c0-1 .3-1.6 1-2.1s1.6-.8 3-.8h1.2v-.5c0-.4-.2-.7-.4-1-.3-.1-.7-.3-1.2-.3-.4 0-.7.1-1 .3a1 1 0 00-.2.8h-2.2a2.3 2.3 0 01.2-1 2.4 2.4 0 01.7-.9l1.1-.6 1.6-.2c.5 0 1 0 1.4.2a3.3 3.3 0 011.1.6 2.4 2.4 0 01.8.9c.2.3.2.8.2 1.3v3.6l.1 1.1c0 .3.2.6.3.8v.1H827zm-2-1.5a2.2 2.2 0 001-.3c.2 0 .3-.2.4-.3l.3-.3v-1.5h-1.1l-.9.1a1.7 1.7 0 00-.6.3 1 1 0 00-.3.4 1.3 1.3 0 00-.1.6c0 .2 0 .5.3.7.2.2.5.3 1 .3zm10.3-9v2h3.1v1.7h-3.1v4.4l.4.5.5.2a2.3 2.3 0 00.6 0h.5a32.2 32.2 0 001 0l.3-.1.2 1.5a3.3 3.3 0 01-.5.2 5.2 5.2 0 01-.7.1 7.5 7.5 0 01-.7.1 5.9 5.9 0 01-.7 0 4 4 0 01-1.3-.1 2.5 2.5 0 01-1-.6 2.7 2.7 0 01-.6-1l-.2-1.4v-3.8h-1.9V151h2v-2zm6.2 2h4.6v6.8h2.3v1.7h-7v-1.7h2.5v-5h-2.4zm2.2-2.1a1.3 1.3 0 01.1-.5 1.2 1.2 0 01.3-.3l.4-.3h.5c.4 0 .7 0 .9.3.2.2.3.5.3.8 0 .3 0 .6-.3.8-.2.2-.5.3-1 .3h-.4a1.6 1.6 0 01-.4-.3 1.2 1.2 0 01-.3-.3 1.4 1.4 0 010-.5zm6.5 6.3a5.3 5.3 0 01.3-1.7 4 4 0 01.7-1.4l1.3-.9c.5-.2 1-.3 1.7-.3a3.7 3.7 0 013.7 2.6 5.3 5.3 0 01.3 1.7v.2c0 .6-.1 1.2-.3 1.7a4 4 0 01-.8 1.4 3.5 3.5 0 01-1.2.9 4 4 0 01-1.7.3c-.6 0-1.2-.1-1.7-.3s-1-.6-1.3-1a4 4 0 01-.7-1.3 5.4 5.4 0 01-.3-1.7zm2.2.2a5 5 0 000 1l.4.8c.2.2.3.4.6.5l.8.2c.3 0 .6 0 .8-.2a1.7 1.7 0 00.6-.5l.3-.8a4.4 4.4 0 00.1-1v-1.2a2.4 2.4 0 00-.4-.8 1.6 1.6 0 00-.6-.5 1.6 1.6 0 00-.8-.2c-.3 0-.6 0-.8.2a1.6 1.6 0 00-.6.5l-.3.8a4.8 4.8 0 00-.1 1zm9.7-4.3l.1 1.1a3.2 3.2 0 011.1-1 3 3 0 011.5-.3c.4 0 .8 0 1.1.2l1 .6.5 1c.2.5.3 1 .3 1.6v5.2h-2.2v-5.2l-.1-.8a1.1 1.1 0 00-.4-.5 1 1 0 00-.5-.2 2.6 2.6 0 00-.6-.1c-.4 0-.7 0-1 .2l-.6.6v6h-2.2v-8.4z" class="g"/><path d="M685.5 198.5l-.1 1.2-.3 1.2a5 5 0 01-.6 1 3.8 3.8 0 01-.7 1 3.4 3.4 0 01-1 .6l-1.3.2-1.3-.2a3.4 3.4 0 01-1-.6 4.1 4.1 0 01-.7-1 5.4 5.4 0 01-.5-1 7.6 7.6 0 01-.4-1.2 10 10 0 010-1.2v-1.3a9.9 9.9 0 010-1.2 6.6 6.6 0 01.3-1.3 6.1 6.1 0 01.6-1 3.8 3.8 0 01.7-.9 3 3 0 011-.6 3.6 3.6 0 011.3-.2c.5 0 .9 0 1.3.2a3.1 3.1 0 011 .6 3.7 3.7 0 01.7.9l.5 1a5.7 5.7 0 01.4 1.3 9.9 9.9 0 010 1.2v1.3zm-1.5-1.3v-.9a4.8 4.8 0 00-.2-.8 4.4 4.4 0 00-.3-.9 2.6 2.6 0 00-.5-.7 2 2 0 00-.6-.4 2 2 0 00-1-.2 2 2 0 00-1.5.6 2.7 2.7 0 00-.4.7 5.2 5.2 0 00-.3.9 6.5 6.5 0 00-.2.8v3a6.3 6.3 0 00.2.9c0 .3.1.6.3.8l.4.7.7.5.9.2a2.2 2.2 0 00.9-.2 2 2 0 00.7-.5 2.7 2.7 0 00.4-.7 5 5 0 00.3-.8l.2-.9v-.8zm5.8 6.3v-7.3h-2.3V195h2.3v-.6c0-.6 0-1 .2-1.4.2-.5.4-.8.7-1a2.7 2.7 0 011-.7 4 4 0 011.4-.2h1l1 .3-.1 1.2a5.4 5.4 0 00-.8-.2 5 5 0 00-.9 0c-.7 0-1.2 0-1.5.4-.4.4-.5.9-.5 1.6v.6h3.2v1h-3.2v7.4zm9.6 0v-7.3h-2.3V195h2.3v-.6c0-.6 0-1 .2-1.4.2-.5.4-.8.7-1a2.7 2.7 0 011-.7 4 4 0 011.4-.2h1l1 .3-.1 1.2a5.4 5.4 0 00-.8-.2 5 5 0 00-.9 0c-.7 0-1.2 0-1.5.4-.4.4-.5.9-.5 1.6v.6h3.2v1H701v7.4h-1.5zm13-2.2a1 1 0 000-.5 1 1 0 00-.4-.4 2.4 2.4 0 00-.6-.3 7.6 7.6 0 00-1-.3 9.7 9.7 0 01-1.3-.3 4.8 4.8 0 01-1-.5 2.3 2.3 0 01-.7-.7 1.8 1.8 0 01-.2-1 2 2 0 01.2-.9l.7-.8 1-.5 1.4-.2c.5 0 1 0 1.4.2l1 .6.7.8c.2.3.2.7.2 1h-1.4l-.1-.5a1.5 1.5 0 00-.4-.5 2 2 0 00-.6-.3 2.3 2.3 0 00-.8-.1 2.8 2.8 0 00-.9.1 1.7 1.7 0 00-.5.3 1.3 1.3 0 00-.4.4 1 1 0 000 .9 1 1 0 00.3.3l.6.3a10.2 10.2 0 001 .3 10.1 10.1 0 011.4.3l1 .5c.3.1.6.5.7.8.2.2.2.5.2.9a2.1 2.1 0 01-.2 1 2.4 2.4 0 01-.7.8 3.5 3.5 0 01-1.1.5 5.2 5.2 0 01-1.4.2 4.6 4.6 0 01-1.5-.3 3.8 3.8 0 01-1.2-.6 2.6 2.6 0 01-.7-.8 2.4 2.4 0 01-.2-1h1.4c0 .2.1.5.3.7a1.9 1.9 0 00.5.5l.7.2.7.1c.6 0 1-.1 1.4-.3.4-.3.6-.6.6-1zm7.8 2.4c-.6 0-1.1-.1-1.6-.3a3.8 3.8 0 01-1.3-.9 3.9 3.9 0 01-.8-1.3 4.4 4.4 0 01-.3-1.6v-.4a4.9 4.9 0 01.3-1.8c.2-.5.5-1 .9-1.3a3.8 3.8 0 011.2-.9 3.6 3.6 0 011.4-.3c.6 0 1.2.1 1.6.3.5.2.8.5 1.1.9s.6.8.7 1.3c.2.5.2 1 .2 1.6v.7h-6a3.8 3.8 0 00.2 1.1 2.9 2.9 0 00.6.9 2.7 2.7 0 00.8.6l1 .2c.6 0 1-.1 1.4-.3a2.9 2.9 0 001-.9l1 .7a3.6 3.6 0 01-.6.7 4 4 0 01-2.8 1zm-.2-7.6a2.2 2.2 0 00-.8.1 2 2 0 00-.7.5 2.8 2.8 0 00-.6.8 3.9 3.9 0 00-.3 1h4.6a2.8 2.8 0 00-.2-1 2.4 2.4 0 00-.4-.7 2 2 0 00-.6-.5 2 2 0 00-1-.2zm9.5-3v2h3.2v1h-3.2v4.7l.1.8c0 .2.2.4.4.5l.5.2a2.4 2.4 0 00.6.1h.9l.5-.1.3-.1.2 1a2 2 0 01-.4.2 5.2 5.2 0 01-.6.1 5.5 5.5 0 01-.6.1 7.1 7.1 0 01-.7 0l-1-.1a2.3 2.3 0 01-.9-.5 2.5 2.5 0 01-.6-.9 4 4 0 01-.2-1.3v-4.6h-2.2V195h2.2v-2z" class="h"/><path d="M738.2 202.6a1.2 1.2 0 01.3-.8.9.9 0 01.3-.3h1a.9.9 0 01.4.3.9.9 0 01.2.3 1.2 1.2 0 010 .9.9.9 0 01-.2.4 1 1 0 01-.4.2 1.1 1.1 0 01-.5 0h-.5a1 1 0 01-.3-.2 1.2 1.2 0 01-.3-.8zm0-7a1.2 1.2 0 01.3-.8.9.9 0 01.3-.3h1a.9.9 0 01.4.3.9.9 0 01.2.3 1.2 1.2 0 010 .9.9.9 0 01-.2.4 1.1 1.1 0 01-.4.2 1.4 1.4 0 01-.5 0h-.5a1.2 1.2 0 01-.3-.2 1.2 1.2 0 01-.3-.8z" class="c"/><path d="M762 199.2c0 .7 0 1.3-.2 1.9a4 4 0 01-.7 1.4 3 3 0 01-1.2.9c-.5.2-1 .3-1.6.3a3.9 3.9 0 01-1.5-.3 3.1 3.1 0 01-1.2-.9 4 4 0 01-.7-1.4c-.2-.6-.2-1.2-.2-2v-2.6c0-.7 0-1.4.2-2 .2-.5.4-1 .7-1.3a3 3 0 011.2-1 3.7 3.7 0 011.5-.2c.6 0 1.1 0 1.6.3a3 3 0 011.2.9c.3.3.5.8.7 1.4l.2 1.9v2.7zm-5.9-.3l4.4-3.4c0-.8-.3-1.4-.6-1.8s-.9-.5-1.6-.5c-.7 0-1.3.2-1.7.7-.3.5-.5 1.3-.5 2.3zm4.5-2l-4.5 3.3c.1.8.4 1.3.7 1.7s.9.6 1.5.6c.8 0 1.4-.3 1.7-.8s.6-1.3.6-2.2v-2.6z" class="k"/><path fill="#ff0" d="M676.7 210.2h211.2v19.2H676.7v-19.2z"/><path d="M681.8 220.9h-2.2v4.6H678v-11.4h3.3c.6 0 1 .1 1.5.3.5.1 1 .3 1.3.6l.8 1 .3 1.5c0 .4 0 .8-.2 1a3 3 0 01-1 1.6l-1 .5 2.5 4.8v.1H684l-2.3-4.6zm-2.2-1.2h1.9c.3 0 .6 0 .9-.2a2 2 0 001.3-1 2.2 2.2 0 00.1-1l-.1-1-.5-.6a2 2 0 00-.8-.4 3.2 3.2 0 00-1-.2h-1.8zm11.8 6c-.6 0-1.2-.1-1.7-.3a3.8 3.8 0 01-1.2-.9 3.9 3.9 0 01-.8-1.3 4.4 4.4 0 01-.3-1.6v-.4a4.9 4.9 0 01.3-1.8l.8-1.3a3.8 3.8 0 011.3-.9 3.6 3.6 0 011.4-.3c.6 0 1.1.1 1.6.3.5.2.8.5 1.1.9s.6.8.7 1.3c.2.5.2 1 .2 1.6v.7h-6a3.8 3.8 0 00.2 1 2.9 2.9 0 00.6 1 2.7 2.7 0 00.8.6l1 .2c.6 0 1-.1 1.4-.3a2.9 2.9 0 001-.9l1 .7a3.6 3.6 0 01-2.3 1.5l-1.1.2zm-.2-7.6l-.8.1a2 2 0 00-.7.5 2.8 2.8 0 00-.6.8 3.9 3.9 0 00-.3 1h4.6v-.1a2.9 2.9 0 00-.2-.8 2.4 2.4 0 00-.4-.8 2 2 0 00-.6-.5 2 2 0 00-1-.2zm13.2 3.3c0 .6 0 1.1-.2 1.7a4 4 0 01-.7 1.3 3 3 0 01-1 1 3 3 0 01-1.4.3 3.5 3.5 0 01-1.4-.3 2.8 2.8 0 01-1-.7v4h-1.4v-11.6h1.3v.9c.3-.4.7-.6 1-.8l1.4-.3a3 3 0 012.5 1.2l.7 1.4.2 1.7zm-1.5-.2l-.1-1.2a2.7 2.7 0 00-.4-1 2 2 0 00-.7-.6 2 2 0 00-1-.3 2 2 0 00-1.3.4 2.5 2.5 0 00-.7.8v4a2.3 2.3 0 00.7.9l1.2.3c.4 0 .8-.1 1-.3a2.1 2.1 0 00.8-.6l.4-1a5 5 0 00.1-1.2v-.2zm9.5-4.3h.4a2.6 2.6 0 01.8.1l.3.1-.2 1.4a6 6 0 00-.8-.1 6.4 6.4 0 00-.8 0 3 3 0 00-1.7.4c-.4.3-.7.7-.9 1.3v5.4h-1.4v-8.4h1.3l.1 1.3a3.7 3.7 0 011.2-1 3.4 3.4 0 011.7-.5zm7.8 8.8a4.4 4.4 0 01-1.6-.3 3.8 3.8 0 01-1.3-.9 4 4 0 01-.8-1.3 4.4 4.4 0 01-.3-1.6v-.4a4.9 4.9 0 01.3-1.8c.2-.5.5-1 .9-1.3a3.8 3.8 0 011.2-.9 3.6 3.6 0 011.4-.3c.6 0 1.2.1 1.6.3a3 3 0 011.1.9c.4.4.6.8.7 1.3a5.4 5.4 0 01.3 1.6v.7h-6a3.8 3.8 0 00.1 1 2.9 2.9 0 00.6 1 2.7 2.7 0 00.8.6l1 .2c.6 0 1-.1 1.5-.3a2.9 2.9 0 001-.9l.9.7a3.6 3.6 0 01-1.3 1.2 4.3 4.3 0 01-1 .3l-1 .2zm-.2-7.6l-.8.1a2 2 0 00-.7.5 2.8 2.8 0 00-.5.8 3.8 3.8 0 00-.3 1h4.5v-.1a2.8 2.8 0 00-.2-.8 2.4 2.4 0 00-.4-.8 2 2 0 00-.6-.5 2 2 0 00-1-.2zm11.7 5.2a1 1 0 00-.1-.5 1 1 0 00-.4-.4 2.4 2.4 0 00-.6-.3 7.5 7.5 0 00-1-.3 9.6 9.6 0 01-1.3-.3 4.8 4.8 0 01-1-.5 2.3 2.3 0 01-.7-.7 1.8 1.8 0 01-.2-1 2 2 0 01.2-.9l.7-.8 1-.5a4.2 4.2 0 011.4-.2c.5 0 1 0 1.4.2l1 .6.7.8c.2.3.3.7.3 1h-1.5a1 1 0 00-.1-.5 1.5 1.5 0 00-.4-.5 2 2 0 00-.6-.3 2.3 2.3 0 00-.8-.1 2.8 2.8 0 00-.9.1c-.2 0-.4.2-.5.3a1.3 1.3 0 00-.4.4 1 1 0 000 .9 1 1 0 00.3.3l.6.3a10.2 10.2 0 001 .3c.6 0 1 .2 1.4.3l1 .5.7.7c.2.3.2.6.2 1a2.1 2.1 0 01-.2 1 2.4 2.4 0 01-.7.8 3.5 3.5 0 01-1.1.5 5.2 5.2 0 01-1.4.2 4.6 4.6 0 01-1.5-.3 3.8 3.8 0 01-1.2-.6 2.6 2.6 0 01-.7-.8 2.4 2.4 0 01-.2-1.1h1.4c0 .3.1.6.3.8a1.9 1.9 0 00.5.5 2.2 2.2 0 00.7.2l.7.1c.6 0 1-.1 1.4-.3.4-.3.6-.6.6-1zm7.7 2.4c-.6 0-1.1-.1-1.6-.3a3.8 3.8 0 01-1.3-.9 4 4 0 01-.8-1.3 4.4 4.4 0 01-.3-1.6v-.4a4.6 4.6 0 011.2-3.1 3.8 3.8 0 011.2-.9 3.6 3.6 0 011.4-.3c.6 0 1.2.1 1.6.3a3 3 0 011.1.9c.3.4.6.8.7 1.3a5.4 5.4 0 01.2 1.6v.7h-6a3.8 3.8 0 00.2 1 2.9 2.9 0 00.6 1l.8.6c.3.2.7.2 1 .2.6 0 1-.1 1.4-.3a2.9 2.9 0 001-.9l1 .7a3.6 3.6 0 01-2.3 1.5l-1.1.2zm-.2-7.6l-.8.1a2 2 0 00-.7.5 2.8 2.8 0 00-.6.8 3.9 3.9 0 00-.3 1h4.6v-.1a2.8 2.8 0 00-.2-.8 2.4 2.4 0 00-.4-.8 2 2 0 00-.6-.5 2 2 0 00-1-.2zm7.4-1v1.2a3.3 3.3 0 011.2-1 3 3 0 011.5-.4c.4 0 .8 0 1.2.2a2.2 2.2 0 011 .6l.5 1 .2 1.4v5.4h-1.4v-5.3c0-.4 0-.7-.2-1a1.4 1.4 0 00-.3-.6 1.3 1.3 0 00-.6-.4 2.8 2.8 0 00-.8 0c-.5 0-1 0-1.3.3-.4.2-.7.6-.9 1v6h-1.4v-8.4zm11.7-2v2h3.2v1h-3.2v4.7l.1.8c0 .2.2.4.4.5l.5.2a2.4 2.4 0 00.6.1h.9l.5-.1.3-.1.2 1a2 2 0 01-.4.2 5.2 5.2 0 01-.6.1 5.5 5.5 0 01-.6.1 7.1 7.1 0 01-.7 0l-1-.1a2.3 2.3 0 01-.9-.5 2.5 2.5 0 01-.6-.9 4 4 0 01-.2-1.3v-4.6h-2.2V217h2.2v-2zm11.7 10.4a1.4 1.4 0 01-.1-.4 7.5 7.5 0 010-.5 4.8 4.8 0 01-.6.4 4 4 0 01-.6.4 3.7 3.7 0 01-.7.2 3.8 3.8 0 01-2 0 3 3 0 01-.9-.6 2.6 2.6 0 01-.6-.8 2.4 2.4 0 01-.2-1c0-.5.1-.9.3-1.2l.8-1 1.2-.4a7 7 0 011.6-.2h1.6v-.7l-.1-.7a1.5 1.5 0 00-.5-.5 1.6 1.6 0 00-.6-.3 2.6 2.6 0 00-.8-.1 2.6 2.6 0 00-.8 0 1.8 1.8 0 00-.6.4 1.3 1.3 0 00-.3.4 1.1 1.1 0 00-.2.5h-1.4c0-.3 0-.6.2-.9a2.4 2.4 0 01.7-.8l1-.6 1.5-.2c.4 0 .9 0 1.3.2.4 0 .8.3 1 .5a2.5 2.5 0 01.8.9l.2 1.2v4l.1.9.2.8v.1zm-2.5-1l.7-.2c.3 0 .5-.2.7-.3l.5-.4a2 2 0 00.4-.5v-1.7h-1.4a4 4 0 00-2 .4 1.3 1.3 0 00-.6 1.2v.6a1.3 1.3 0 00.4.4l.5.3.8.1zm10-9.5v2h3.2v1.2h-3.2v4.6l.1.8.4.5.5.2a2.4 2.4 0 00.6.1h.9l.5-.1.3-.1.2 1a2 2 0 01-.4.2 5.2 5.2 0 01-.6.1 5.5 5.5 0 01-.6.1h-.7l-1-.1a2.3 2.3 0 01-.9-.5 2.5 2.5 0 01-.6-.9 4 4 0 01-.2-1.3v-4.6h-2.2V217h2.2v-2zm6.4 2h4.3v7.3h2.8v1.2h-7.1v-1.2h2.9v-6h-2.9zm2.7-2.2c0-.2 0-.4.2-.6l.6-.2c.2 0 .6 0 .7.2l.2.6c0 .3 0 .5-.2.6l-.7.3c-.3 0-.5-.1-.6-.3a.8.8 0 01-.2-.6zm6.3 6.4c0-.6 0-1.2.2-1.7a4 4 0 01.8-1.4 3.6 3.6 0 011.2-.9 3.8 3.8 0 011.6-.3c.6 0 1.1.1 1.6.3a3.4 3.4 0 011.2 1c.4.3.6.8.8 1.3a5.2 5.2 0 01.3 1.7v.2a5.3 5.3 0 01-.3 1.7 4 4 0 01-.8 1.3 3.4 3.4 0 01-1.2 1c-.5.2-1 .3-1.6.3a3 3 0 01-1.6-.4 3.6 3.6 0 01-1.2-.9 4 4 0 01-.8-1.3 5.2 5.2 0 01-.2-1.7v-.2zm1.4.2c0 .4 0 .8.2 1.2a3.4 3.4 0 00.4 1 2.2 2.2 0 00.8.6c.3.2.6.3 1 .3s.8 0 1-.3a2.2 2.2 0 00.8-.6 2.9 2.9 0 00.5-1l.1-1.2v-.2l-.1-1.2a3.1 3.1 0 00-.5-1 2.2 2.2 0 00-.7-.7 2.1 2.1 0 00-1-.2c-.5 0-.9 0-1.2.2a2.2 2.2 0 00-.7.7 3.1 3.1 0 00-.4 1 4.8 4.8 0 00-.2 1.2zm9.9-4.3v1.2a3.3 3.3 0 011.2-1 3 3 0 011.5-.4c.4 0 .8 0 1.2.2a2.2 2.2 0 011 .6l.5 1c.2.4.2.9.2 1.4v5.4h-1.4v-5.3l-.1-1a1.4 1.4 0 00-.4-.6 1.3 1.3 0 00-.6-.4 2.8 2.8 0 00-.8 0c-.5 0-1 0-1.3.3-.4.2-.7.6-.9 1v6H803v-8.4z" class="h"/><path d="M815 224.6a1.2 1.2 0 01.3-.8.9.9 0 01.3-.3h1l.4.3a.9.9 0 01.2.3 1.2 1.2 0 010 .9.9.9 0 01-.2.4 1 1 0 01-.4.2 1.1 1.1 0 01-.5 0h-.5a1 1 0 01-.3-.2 1.2 1.2 0 01-.2-.4 1.2 1.2 0 01-.1-.4zm0-7a1.2 1.2 0 01.3-.8.9.9 0 01.3-.3h1l.4.3a.9.9 0 01.2.3 1.2 1.2 0 010 .9.9.9 0 01-.2.4 1.1 1.1 0 01-.4.2 1.4 1.4 0 01-.5 0h-.5a1.2 1.2 0 01-.3-.2 1.2 1.2 0 01-.2-.4 1.2 1.2 0 01-.1-.4z" class="c"/><path d="M831.5 225.5v-11.4h2.7a5.4 5.4 0 013.7 1.5l1 1.7c.2.6.3 1.3.3 2.1v.8c0 .8-.1 1.5-.4 2.2a4.9 4.9 0 01-1 1.6 4.5 4.5 0 01-1.5 1.1c-.6.3-1.3.4-2.1.4h-2.7zm1.5-10.2v9h1.2c.6 0 1.1 0 1.6-.3a3.2 3.2 0 001-.9c.4-.3.6-.8.7-1.2.2-.5.2-1 .3-1.6v-.9a6 6 0 00-.3-1.6 3.5 3.5 0 00-.6-1.3 3 3 0 00-1.1-.8 4 4 0 00-1.6-.4H833zm7.9 5.9a5.2 5.2 0 01.2-1.7 4 4 0 01.8-1.4 3.6 3.6 0 011.2-.9 3.8 3.8 0 011.6-.3c.6 0 1.1.1 1.6.3a3.4 3.4 0 011.2 1l.8 1.3a5.2 5.2 0 01.2 1.7v.2a5.3 5.3 0 01-.2 1.7 4 4 0 01-.8 1.3 3.4 3.4 0 01-1.2 1c-.5.2-1 .3-1.6.3a3 3 0 01-1.6-.4 3.6 3.6 0 01-1.2-.9 4 4 0 01-.8-1.3 5.2 5.2 0 01-.2-1.7zm1.4.2c0 .4 0 .8.2 1.2a3.4 3.4 0 00.4 1 2.2 2.2 0 00.8.6c.3.2.6.3 1 .3s.8 0 1-.3a2.2 2.2 0 00.8-.6l.5-1 .1-1.2v-.2l-.1-1.2a3.1 3.1 0 00-.5-1 2.2 2.2 0 00-.7-.7 2.1 2.1 0 00-1-.2c-.5 0-.8 0-1.1.2a2.2 2.2 0 00-.8.7 3.1 3.1 0 00-.4 1 4.8 4.8 0 00-.2 1.2v.2zm14 3a3 3 0 01-1 1 3.4 3.4 0 01-2.7.1 2.5 2.5 0 01-.9-.7l-.6-1-.2-1.7v-5h1.5v6.1c0 .3.3.6.4.8a1.2 1.2 0 00.5.4 2.2 2.2 0 00.8 0c.6 0 1 0 1.4-.3s.6-.6.8-1v-6h1.5v8.4h-1.4v-1.1zm11.4-3a6.4 6.4 0 01-.3 1.7 4.2 4.2 0 01-.6 1.3 3 3 0 01-1 1 3 3 0 01-1.5.3c-.5 0-1-.1-1.4-.3a3 3 0 01-1-.9v1h-1.4v-12h1.4v4.5a2.8 2.8 0 011-.8c.4-.2.9-.3 1.4-.3a3 3 0 012.5 1.2c.3.4.5.9.6 1.4.2.5.3 1.1.3 1.7zm-1.5-.2l-.1-1.2a2.8 2.8 0 00-.4-1 2 2 0 00-.7-.6 2.4 2.4 0 00-1.7-.2 2 2 0 00-.6.3 1.9 1.9 0 00-.4.4 2.8 2.8 0 00-.4.5v3.7a3.5 3.5 0 00.4.5l.4.5a2 2 0 00.6.2l.7.1c.4 0 .7 0 1-.2l.7-.7.4-1 .1-1.1zm4.1-7.7h4.3v10.8h2.8v1.2h-7v-1.2h2.8v-9.5h-2.9zm13.1 12.2c-.6 0-1.1-.1-1.6-.3a3.8 3.8 0 01-1.3-.9 3.9 3.9 0 01-.8-1.3 4.4 4.4 0 01-.3-1.6v-.4a4.9 4.9 0 01.3-1.8c.2-.5.5-1 .9-1.3a3.8 3.8 0 011.2-.9 3.6 3.6 0 011.4-.3c.6 0 1.2.1 1.6.3.5.2.9.5 1.2.9s.5.8.6 1.3c.2.5.3 1 .3 1.6v.7h-6a3.8 3.8 0 00.1 1 2.9 2.9 0 00.6 1 2.7 2.7 0 00.8.6l1 .2c.6 0 1-.1 1.5-.3a2.9 2.9 0 001-.9l.9.7a3.6 3.6 0 01-2.2 1.5l-1.2.2zm-.2-7.6a2.2 2.2 0 00-.8.1 2 2 0 00-.7.5 2.8 2.8 0 00-.5.8 3.9 3.9 0 00-.3 1h4.5v-.1a2.8 2.8 0 00-.1-.8 2.4 2.4 0 00-.4-.8 2 2 0 00-.7-.5 2 2 0 00-1-.2z" class="k"/><use class="c" xlink:href="#f"/><path d="M702.9 244.4l.9-8.3h1.3l-1.3 11.4h-1.5l-1.5-8.6-1.5 8.6h-1.5l-1.3-11.4h1.3l1 8.3 1.4-8.3h1.2zm9.5-5.5h.4a2.6 2.6 0 01.8.1l.3.1-.2 1.4a6 6 0 00-.8-.1 6.4 6.4 0 00-.8 0 3 3 0 00-1.7.4c-.4.3-.7.7-.9 1.3v5.4h-1.4v-8.4h1.3l.1 1.3a3.7 3.7 0 011.2-1 3.4 3.4 0 011.7-.5zm4.3.2h4.3v7.2h2.8v1.2h-7.1v-1.2h2.9v-6h-3zm2.7-2.3c0-.2 0-.4.2-.6l.6-.2c.3 0 .5 0 .7.2s.2.4.2.6c0 .3 0 .5-.2.6l-.7.3c-.3 0-.5-.1-.6-.3a.8.8 0 01-.2-.6zm10 .2v2h3.3v1.2h-3.2v4.6l.1.8c0 .2.2.4.3.5l.5.2a2.4 2.4 0 00.7.1h.9l.5-.1.3-.1.2 1a2 2 0 01-.4.2 5.2 5.2 0 01-.6.1 5.5 5.5 0 01-.6.1h-.7a3.4 3.4 0 01-1-.1 2.3 2.3 0 01-.9-.5 2.5 2.5 0 01-.6-.9 4 4 0 01-.2-1.3v-4.6h-2.2V239h2.2v-2zm11.8 10.5a1.4 1.4 0 01-.1-.4 7 7 0 01-.1-.5 4.9 4.9 0 01-.5.4 4 4 0 01-.6.4 3.7 3.7 0 01-.7.2 3.8 3.8 0 01-2 0 3 3 0 01-.9-.6 2.6 2.6 0 01-.6-.8 2.4 2.4 0 01-.2-1c0-.5.1-1 .3-1.3a2.4 2.4 0 01.8-.8c.3-.3.7-.4 1.2-.5a7 7 0 011.6-.2h1.6v-.7c0-.2 0-.5-.2-.7a1.4 1.4 0 00-.4-.5 1.6 1.6 0 00-.6-.3 2.6 2.6 0 00-.8-.1 3 3 0 00-.8 0 1.8 1.8 0 00-.6.4 1.3 1.3 0 00-.3.4 1.1 1.1 0 00-.2.5h-1.4a2.2 2.2 0 01.2-1 2.4 2.4 0 01.7-.7 3.5 3.5 0 011-.6l1.5-.2c.4 0 .9 0 1.3.2.4 0 .8.3 1 .5a2.5 2.5 0 01.8.9l.2 1.2v4l.1.9.2.8v.1zm-2.5-1l.7-.2c.3 0 .5-.2.7-.3l.5-.4.4-.5v-1.7h-1.4a4 4 0 00-2 .4 1.3 1.3 0 00-.6 1.2v.6l.4.4.5.3.8.1zm13.7-3.1a6.4 6.4 0 01-.2 1.7c-.1.5-.3 1-.6 1.3a3 3 0 01-1 1 3 3 0 01-1.5.3c-.5 0-1-.1-1.4-.3a3 3 0 01-1-.8v1h-1.4v-12h1.4v4.4a2.8 2.8 0 011-.8c.4-.2.9-.3 1.4-.3.5 0 1 .1 1.4.3a2.9 2.9 0 011 1c.4.3.6.8.7 1.3.2.5.2 1 .2 1.7zm-1.4-.2l-.1-1.1a2.9 2.9 0 00-.4-1 2 2 0 00-.7-.7 2 2 0 00-1-.3 2 2 0 00-.8.1 1.9 1.9 0 00-1 .7 2.9 2.9 0 00-.3.5v3.7a3.5 3.5 0 00.3.6l.5.4a2 2 0 00.6.3h.6c.4 0 .8 0 1-.2.3-.2.6-.4.7-.7a2.9 2.9 0 00.5-1v-1.1zm4.1-7.7h4.3v10.8h2.8v1.2H755v-1.2h2.9v-9.5H755zm13.1 12.2c-.6 0-1.1-.1-1.6-.3a3.8 3.8 0 01-1.3-.9 3.9 3.9 0 01-.8-1.3 4.4 4.4 0 01-.3-1.6v-.3a4.9 4.9 0 01.3-1.9c.2-.5.5-1 .9-1.3a3.8 3.8 0 011.2-.9 3.6 3.6 0 011.4-.3c.6 0 1.2.1 1.6.3a3 3 0 011.1.9c.3.4.6.8.7 1.3a5.4 5.4 0 01.3 1.7v.6h-6l.1 1.1a3 3 0 00.6.9 2.7 2.7 0 00.8.6 2.5 2.5 0 001 .2 3 3 0 002.5-1.1l.9.6a3.6 3.6 0 01-.6.7 4 4 0 01-.7.5 4.3 4.3 0 01-1 .3l-1 .2zm-.2-7.6a2.2 2.2 0 00-.8.2 2 2 0 00-.7.4 2.8 2.8 0 00-.6.8 3.9 3.9 0 00-.2 1h4.5a2.8 2.8 0 00-.2-1 2.4 2.4 0 00-.4-.7 2 2 0 00-.6-.5 2 2 0 00-1-.2z" class="h"/><path d="M775.9 234.5h3V250h-3v-1.2h1.7v-13.1H776zm9.6 0h3V250h-3v-1.2h1.7v-13.1h-1.7zm10.3 12a1.2 1.2 0 01.3-.7.9.9 0 01.3-.3h1l.4.3a.9.9 0 01.2.3 1.2 1.2 0 010 .9.9.9 0 01-.2.4 1 1 0 01-.4.2 1.1 1.1 0 01-.5 0h-.5a1 1 0 01-.3-.2 1.2 1.2 0 01-.3-.8zm0-7a1.2 1.2 0 01.3-.7.9.9 0 01.3-.3h1l.4.3a.9.9 0 01.2.3 1.2 1.2 0 010 .9.9.9 0 01-.2.4 1.1 1.1 0 01-.4.2 1.4 1.4 0 01-.5 0h-.5a1.2 1.2 0 01-.3-.2 1.2 1.2 0 01-.3-.8z" class="c"/><path d="M815.9 237v2h3.2v1.2H816v4.6l.1.8.4.5.5.2a2.4 2.4 0 00.6.1h.9l.5-.1.3-.1.2 1a2 2 0 01-.4.2 5.2 5.2 0 01-.6.1 5.5 5.5 0 01-.6.1h-.7a3.4 3.4 0 01-1-.1 2.3 2.3 0 01-.9-.5 2.5 2.5 0 01-.6-.9 4 4 0 01-.2-1.3v-4.6h-2.2V239h2.2v-2zm11.7 2h.4a2.6 2.6 0 01.8 0l.3.1-.2 1.4a6 6 0 00-.8-.1 6.4 6.4 0 00-.8 0c-.7 0-1.2.1-1.6.4-.4.3-.8.8-1 1.3v5.4h-1.4v-8.4h1.4v1.3a3.7 3.7 0 011.3-1 3.4 3.4 0 011.6-.5zm9.6 7.4a3.1 3.1 0 01-1.1 1 3.4 3.4 0 01-2.7.1 2.5 2.5 0 01-.9-.7l-.6-1-.2-1.7v-5h1.5v6.2c0 .3.3.5.4.7l.5.4a2.2 2.2 0 00.8 0c.6 0 1 0 1.4-.3a2.2 2.2 0 00.8-1v-6h1.5v8.4h-1.4v-1.1zm7.8 1.3c-.6 0-1.1-.1-1.6-.3a3.8 3.8 0 01-1.3-.9 3.9 3.9 0 01-.8-1.3 4.4 4.4 0 01-.3-1.6v-.3a4.9 4.9 0 01.3-1.9c.2-.5.5-1 .9-1.3a3.8 3.8 0 011.2-.9 3.6 3.6 0 011.4-.3c.6 0 1.2.1 1.6.3.5.2.9.5 1.2.9s.5.8.6 1.3c.2.5.3 1 .3 1.7v.6h-6a3.8 3.8 0 00.1 1.1 2.9 2.9 0 00.6.9 2.7 2.7 0 00.8.6l1 .2c.6 0 1-.1 1.5-.3a2.9 2.9 0 001-.8l.9.6a3.6 3.6 0 01-2.2 1.5l-1.2.2zm-.2-7.6c-.3 0-.5 0-.8.2a2 2 0 00-.7.4 2.8 2.8 0 00-.5.8 3.9 3.9 0 00-.3 1h4.5a2.9 2.9 0 00-.1-1 2.3 2.3 0 00-.5-.7 2 2 0 00-.6-.5 2 2 0 00-1-.2z" class="l"/><use y="22" class="c" xlink:href="#f"/><path d="M703.5 264.3h-4.7v4h5.5v1.2h-7v-11.4h7v1.3h-5.5v3.6h4.7zm4.7-3.2v1.2a3.3 3.3 0 011.2-1 3 3 0 011.5-.4c.4 0 .8 0 1.2.2a2.2 2.2 0 011 .6l.5 1c.2.4.2.9.2 1.4v5.4h-1.4v-5.3c0-.4 0-.7-.2-1a1.4 1.4 0 00-.3-.6 1.3 1.3 0 00-.6-.4 2.8 2.8 0 00-.8 0c-.5 0-1 0-1.3.3-.4.2-.7.6-.9 1v6H707v-8.4zm13.7 7.2a3 3 0 01-1 1 3.4 3.4 0 01-2.7.1 2.5 2.5 0 01-.9-.6l-.6-1-.2-1.7v-5h1.5v6.1c0 .3.2.6.4.8a1.2 1.2 0 00.5.4 2.2 2.2 0 00.8 0c.5 0 1 0 1.4-.3s.6-.6.8-1v-6h1.4v8.4H722v-1.1zm4.8-7.2v.8a2 2 0 01.7-.7 2 2 0 011-.3c.8 0 1.4.3 1.6 1a2 2 0 01.7-.7c.2-.2.6-.3 1-.3.6 0 1 .2 1.4.6.3.4.5 1 .5 1.7v6.3h-1.4v-6.3c0-.7-.3-1-1-1a1.2 1.2 0 00-.4 0 .8.8 0 00-.3.2 1 1 0 00-.2.3 1.2 1.2 0 00-.1.3v6.5h-1.4v-6.3c0-.4 0-.6-.2-.8a1 1 0 00-.7-.3c-.3 0-.6 0-.7.2a1 1 0 00-.4.5v6.7h-1.4v-8.4zm12.7 8.6c-.6 0-1.1-.1-1.6-.3a3.8 3.8 0 01-1.3-.9 4 4 0 01-.8-1.3 4.4 4.4 0 01-.3-1.6v-.4a4.6 4.6 0 011.2-3.1 3.8 3.8 0 011.2-1 3.6 3.6 0 011.4-.2c.6 0 1.2.1 1.6.3a3 3 0 011.1.9c.3.4.6.8.7 1.3a5.4 5.4 0 01.3 1.6v.7h-6.1a3.8 3.8 0 00.2 1 2.9 2.9 0 00.6 1l.8.6c.3.2.7.2 1 .2.6 0 1-.1 1.4-.3a2.9 2.9 0 001-.9l1 .7a3.6 3.6 0 01-2.3 1.5l-1.1.2zm-.2-7.6l-.8.1a2 2 0 00-.7.5 2.8 2.8 0 00-.6.8 3.9 3.9 0 00-.2 1h4.5v-.1a2.8 2.8 0 00-.2-.8 2.4 2.4 0 00-.4-.8 2 2 0 00-.6-.5 2 2 0 00-1-.2zm11.6-1.2h.4a2.5 2.5 0 01.4 0 3.3 3.3 0 01.7.2l-.2 1.4a6 6 0 00-.8-.1 6.4 6.4 0 00-.8 0c-.7 0-1.2 0-1.6.4-.5.3-.8.7-1 1.3v5.4h-1.4v-8.4h1.4v1.3a3.7 3.7 0 011.3-1.1 3.4 3.4 0 011.6-.4zm9.6 8.6a1.4 1.4 0 01-.1-.4 7 7 0 010-.5 4.9 4.9 0 01-.6.4 4 4 0 01-.6.3 3.7 3.7 0 01-.7.3 3.7 3.7 0 01-2 0 3 3 0 01-.9-.7 2.6 2.6 0 01-.6-.8 2.4 2.4 0 01-.2-1l.3-1.2a2.4 2.4 0 01.8-.8c.3-.3.7-.4 1.2-.6a7 7 0 011.6-.1h1.6v-.7l-.1-.7a1.4 1.4 0 00-.5-.5 1.6 1.6 0 00-.6-.3 2.6 2.6 0 00-.8-.2 3 3 0 00-.8.1l-.5.3a1.3 1.3 0 00-.4.5 1.1 1.1 0 00-.1.5h-1.5a2.2 2.2 0 01.2-1 2.4 2.4 0 01.7-.7 2 2 0 011-.6c.5-.2 1-.2 1.5-.2l1.3.1c.4.2.8.3 1 .6a2.5 2.5 0 01.8.9l.2 1.2v4l.1.8.2.9zm-2.5-1.1l.7-.1c.3 0 .5-.2.7-.3l.5-.4.4-.5v-1.7h-1.4a4 4 0 00-2 .4 1.3 1.3 0 00-.6 1.2v.5l.4.5.5.3h.8zm13.7-3a6.4 6.4 0 01-.2 1.7c-.1.5-.3 1-.6 1.3a3 3 0 01-1 1 3 3 0 01-1.5.3c-.5 0-1-.1-1.4-.3a3 3 0 01-1-.9v1h-1.4v-12h1.4v4.5a2.8 2.8 0 011-.8c.4-.2.9-.3 1.4-.3a3 3 0 012.5 1.2c.3.4.5.9.6 1.4.2.5.2 1 .2 1.7zm-1.4-.2l-.1-1.2a2.9 2.9 0 00-.4-1 2 2 0 00-.7-.6 2 2 0 00-1-.3 2 2 0 00-.8.1 1.9 1.9 0 00-1 .7 2.9 2.9 0 00-.3.5v3.7a3.5 3.5 0 00.3.5l.5.5a2 2 0 00.6.2l.7.1c.3 0 .7 0 1-.2l.7-.7a3 3 0 00.4-1v-1.1zm4.1-7.7h4.3v10.8h2.8v1.2h-7.1v-1.2h2.9v-9.5h-2.9zm13.1 12.2a4.4 4.4 0 01-1.6-.3 3.8 3.8 0 01-1.3-.9 4 4 0 01-.8-1.3 4.4 4.4 0 01-.3-1.6v-.4a4.9 4.9 0 01.3-1.8c.2-.5.5-1 .9-1.3a3.8 3.8 0 011.2-1 3.6 3.6 0 011.4-.2c.6 0 1.2.1 1.6.3a3 3 0 011.2.9c.3.4.5.8.6 1.3a5.4 5.4 0 01.3 1.6v.7h-6a3.8 3.8 0 00.1 1 2.9 2.9 0 00.6 1 2.7 2.7 0 00.8.6l1 .2c.6 0 1-.1 1.5-.3a2.9 2.9 0 001-.9l.9.7a3.6 3.6 0 01-1.3 1.2 4.3 4.3 0 01-1 .3l-1 .2zm-.2-7.6l-.8.1a2 2 0 00-.7.5 2.8 2.8 0 00-.5.8 3.8 3.8 0 00-.3 1h4.5v-.1a2.8 2.8 0 00-.2-.8 2.4 2.4 0 00-.4-.8 2 2 0 00-.6-.5 2 2 0 00-1-.2z" class="h"/><path d="M795 256.5h3.2V272H795v-1.2h1.7v-13.1H795zm9.7 0h3V272h-3v-1.2h1.7v-13.1h-1.7zm10.3 12a1.2 1.2 0 01.3-.7.9.9 0 01.3-.3h1l.4.3a.9.9 0 01.2.3 1.2 1.2 0 010 .9.9.9 0 01-.2.4 1 1 0 01-.4.2 1.1 1.1 0 01-.5 0h-.5a1 1 0 01-.3-.2 1.2 1.2 0 01-.2-.4 1.2 1.2 0 01-.1-.4zm0-7a1.2 1.2 0 01.3-.7.9.9 0 01.3-.3h1l.4.3a.9.9 0 01.2.3 1.2 1.2 0 010 .9.9.9 0 01-.2.4 1.1 1.1 0 01-.4.2 1.4 1.4 0 01-.5 0h-.5a1.2 1.2 0 01-.3-.2 1.2 1.2 0 01-.2-.4 1.2 1.2 0 01-.1-.4z" class="c"/><path d="M835.1 259v2h3.2v1.2h-3.2v4.6l.1.8.4.5a1.3 1.3 0 00.5.2l.6.1h.9l.5-.1.3-.1.2 1a2 2 0 01-.4.2 5.1 5.1 0 01-.6.1 5.5 5.5 0 01-.6.1h-.7l-1-.1a2.3 2.3 0 01-.9-.5 2.5 2.5 0 01-.6-.9 4 4 0 01-.2-1.3v-4.6h-2.2V261h2.2v-2zm11.7 2h.4a2.6 2.6 0 01.8 0 1.4 1.4 0 01.3.1l-.2 1.4a6 6 0 00-.8-.1 6.4 6.4 0 00-.8 0c-.7 0-1.2.1-1.6.4-.4.3-.8.8-1 1.3v5.4h-1.4v-8.4h1.4v1.3a3.7 3.7 0 011.3-1 3.4 3.4 0 011.6-.5zm9.6 7.4a3 3 0 01-1.1 1 3.4 3.4 0 01-2.7.1 2.5 2.5 0 01-.9-.7l-.6-1-.2-1.7v-5h1.5v6.2c0 .4.3.5.4.7a1.2 1.2 0 00.5.4 2.2 2.2 0 00.8 0c.6 0 1 0 1.4-.3s.6-.6.8-1v-6h1.5v8.4h-1.4v-1.1zm7.8 1.3c-.6 0-1.1-.1-1.6-.3a3.8 3.8 0 01-1.3-.9 3.9 3.9 0 01-.8-1.3 4.4 4.4 0 01-.3-1.6v-.3a4.9 4.9 0 01.3-1.9c.2-.5.5-1 .9-1.3a3.8 3.8 0 011.2-.9 3.6 3.6 0 011.4-.3c.6 0 1.2.1 1.6.3.5.2.9.5 1.2.9s.5.8.6 1.3c.2.5.3 1 .3 1.7v.6h-6a3.8 3.8 0 00.1 1.1 2.9 2.9 0 00.6.9 2.7 2.7 0 00.8.6l1 .2c.6 0 1-.1 1.5-.3a2.9 2.9 0 001-.8l.9.6a3.6 3.6 0 01-2.2 1.5l-1.2.2zm-.2-7.6c-.3 0-.5 0-.8.2a2 2 0 00-.7.4 2.8 2.8 0 00-.5.8 3.9 3.9 0 00-.3 1h4.5a2.9 2.9 0 00-.1-1 2.4 2.4 0 00-.4-.7 2 2 0 00-.7-.5 2 2 0 00-1-.2z" class="l"/><use y="44" class="c" xlink:href="#f"/><path d="M704.6 288a5.1 5.1 0 01-.4 1.5 3.6 3.6 0 01-.8 1.2 3.5 3.5 0 01-1.1.7 4 4 0 01-1.5.3 3.7 3.7 0 01-2.3-.8 4.1 4.1 0 01-.8-.8 5.3 5.3 0 01-.5-1 7.1 7.1 0 01-.5-2.5V285l.1-1.2a7.1 7.1 0 01.3-1.2 5.4 5.4 0 01.6-1 3.6 3.6 0 011.8-1.4 3.9 3.9 0 011.3-.2c.5 0 1 0 1.5.2l1.1.8.8 1.1c.2.4.4 1 .4 1.5h-1.4a4 4 0 00-.3-1 2.4 2.4 0 00-.4-.7 1.9 1.9 0 00-.7-.5 2.2 2.2 0 00-1-.2l-1 .1a2 2 0 00-.6.5 2.7 2.7 0 00-.5.7 4.7 4.7 0 00-.3.8 5.9 5.9 0 00-.2.9v2.4a8.6 8.6 0 000 .9l.2.9a5.2 5.2 0 00.3.8 2.8 2.8 0 00.5.7l.6.4 1 .2c.3 0 .7 0 1-.2a2 2 0 00.7-.5 2.5 2.5 0 00.4-.8 3.9 3.9 0 00.3-1zm1.8-.8c0-.6.1-1.2.3-1.7a4 4 0 01.8-1.4 3.6 3.6 0 011.2-.9 3.8 3.8 0 011.6-.3c.6 0 1.1.1 1.6.3a3.4 3.4 0 011.2 1l.8 1.3a5.2 5.2 0 01.2 1.7v.2a5.3 5.3 0 01-.2 1.7 4 4 0 01-.8 1.3 3.4 3.4 0 01-1.2 1c-.5.2-1 .3-1.6.3a3 3 0 01-1.6-.4 3.6 3.6 0 01-1.2-.9 4 4 0 01-.8-1.3 5.2 5.2 0 01-.3-1.7v-.2zm1.5.2l.1 1.2a3.4 3.4 0 00.5 1 2.2 2.2 0 00.7.6c.3.2.7.3 1.1.3.4 0 .7 0 1-.3a2.2 2.2 0 00.8-.6 2.9 2.9 0 00.4-1l.2-1.2v-.2c0-.4 0-.8-.2-1.2a3.1 3.1 0 00-.4-1 2.2 2.2 0 00-.8-.7 2.1 2.1 0 00-1-.2c-.4 0-.8 0-1 .2a2.2 2.2 0 00-.8.7 3.1 3.1 0 00-.5 1 4.8 4.8 0 00-.1 1.2zm9.9-4.3v1.2a3.3 3.3 0 011.2-1 3 3 0 011.5-.4 3.6 3.6 0 011.2.2c.3.1.7.3.9.6a2.5 2.5 0 01.6 1l.2 1.4v5.4H722v-5.3c0-.4 0-.7-.2-1a1.4 1.4 0 00-.3-.6 1.3 1.3 0 00-.6-.4 2.8 2.8 0 00-.8 0c-.5 0-1 0-1.3.3-.4.2-.7.5-.9 1v6h-1.5v-8.4zm10.4 8.4v-7.3H726V283h2.3v-.6c0-.6 0-1 .2-1.5l.7-1a2.7 2.7 0 011-.6 4 4 0 011.4-.2h1l1 .3-.1 1.2a5.4 5.4 0 00-.8-.2 5 5 0 00-.9-.1c-.7 0-1.2.2-1.5.5-.4.4-.5.9-.5 1.6v.6h3.2v1h-3.2v7.4zm7.7-8.4h4.3v7.2h2.8v1.2h-7.1v-1.2h2.9v-6h-2.9zm2.7-2.3c0-.2 0-.4.2-.6l.6-.2c.2 0 .6 0 .7.2l.2.6c0 .3 0 .5-.2.6l-.7.2c-.3 0-.5 0-.6-.2a.8.8 0 01-.2-.6zm6.4 6.4c0-.6 0-1.2.2-1.7a4 4 0 01.7-1.4 3 3 0 011-.9l1.5-.3c.5 0 1 0 1.4.3.3.2.7.4 1 .8v-1h1.3v8.3c0 .6 0 1-.2 1.5a3.2 3.2 0 01-.8 1.1l-1 .7a4.3 4.3 0 01-1.5.2h-.8a4.1 4.1 0 01-1.7-.7 3 3 0 01-.7-.7l.8-.9.5.5.6.4.6.2a2.9 2.9 0 00.6 0l.9-.1a1.7 1.7 0 00.7-.4 1.8 1.8 0 00.4-.7l.2-1v-.7a3 3 0 01-1 .7c-.4.2-.8.3-1.3.3s-1-.1-1.4-.4a3.2 3.2 0 01-1.1-.9 4.3 4.3 0 01-.7-1.3 6 6 0 01-.2-1.7zm1.5.2v1.2l.5 1a2.2 2.2 0 00.7.6l1 .2a2.7 2.7 0 00.7 0 2 2 0 00.5-.3 2.5 2.5 0 00.5-.4 2.9 2.9 0 00.3-.5v-3.9a2.7 2.7 0 00-.3-.5 1.9 1.9 0 00-.5-.3 2 2 0 00-1.2-.4 2 2 0 00-1 .3 2.1 2.1 0 00-.7.7c-.2.2-.3.6-.4 1a5.3 5.3 0 00-.1 1.1zm13.9 3a3 3 0 01-1.1 1 3.4 3.4 0 01-2.7.1 2.5 2.5 0 01-.9-.7l-.6-1.1-.2-1.6v-5h1.5v6.1c0 .3.3.6.4.8a1.2 1.2 0 00.5.3l.8.1c.5 0 1 0 1.4-.3s.6-.6.8-1v-6h1.5v8.4h-1.4zm9.6-7.5h.4a2.5 2.5 0 01.4 0 3.3 3.3 0 01.7.2l-.2 1.4a6 6 0 00-.8-.1 6.4 6.4 0 00-.8 0c-.7 0-1.2 0-1.6.4-.5.3-.8.7-1 1.3v5.4h-1.4v-8.4h1.4v1.3a3.7 3.7 0 011.3-1.1 3.4 3.4 0 011.6-.4zm9.6 8.6a1.4 1.4 0 01-.1-.4 7 7 0 010-.5 4.9 4.9 0 01-.6.4 4 4 0 01-.6.3 3.7 3.7 0 01-.7.3 3.7 3.7 0 01-2 0 3 3 0 01-.9-.7 2.6 2.6 0 01-.6-.8 2.4 2.4 0 01-.2-1l.3-1.2a2.4 2.4 0 01.8-.8c.3-.3.7-.4 1.2-.6a7 7 0 011.6-.1h1.6v-.7l-.1-.7a1.4 1.4 0 00-.4-.5 1.6 1.6 0 00-.7-.3 2.6 2.6 0 00-.8-.2 3 3 0 00-.8.1l-.5.3a1.3 1.3 0 00-.4.5 1.1 1.1 0 00-.1.5H774a2.2 2.2 0 01.2-1 2.4 2.4 0 01.7-.7 3.5 3.5 0 011-.6c.5-.2 1-.2 1.5-.2l1.3.1c.4.2.8.3 1 .6a2.5 2.5 0 01.8.9c.2.3.2.7.2 1.2v4l.1.8.2.9zm-2.5-1.1l.8-.1.6-.3.6-.4.3-.5v-1.7h-1.3c-.9 0-1.5.1-2 .4a1.3 1.3 0 00-.7 1.2v.5l.4.5.5.3h.8zm13.7-3a6.4 6.4 0 01-.2 1.7c-.1.5-.3 1-.6 1.3a3 3 0 01-1 1 3 3 0 01-1.5.3c-.5 0-1-.1-1.4-.3a3 3 0 01-1-.9v1h-1.4v-12h1.4v4.5a2.8 2.8 0 011-.8c.4-.2.9-.3 1.4-.3.5 0 1 .1 1.4.3a2.9 2.9 0 011 1c.4.3.6.7.7 1.3.2.5.2 1 .2 1.7zm-1.4-.2l-.1-1.2a2.9 2.9 0 00-.4-1 2 2 0 00-.7-.6 2 2 0 00-1-.3 2 2 0 00-.7.1 1.9 1.9 0 00-1 .7 2.9 2.9 0 00-.4.5v3.7a3.5 3.5 0 00.4.5c0 .2.2.3.4.5a2 2 0 00.6.2l.7.1c.4 0 .7 0 1-.2l.7-.7a2.9 2.9 0 00.4-1v-1.1zm4.1-7.7h4.3v10.8h2.8v1.2h-7v-1.2h2.8v-9.5h-2.9zm13.1 12.2c-.6 0-1.1-.1-1.6-.3a3.8 3.8 0 01-1.3-.9 3.9 3.9 0 01-.8-1.3 4.4 4.4 0 01-.3-1.6v-.4a4.9 4.9 0 01.3-1.8c.2-.5.5-1 .9-1.4a3.8 3.8 0 011.2-.8 3.6 3.6 0 011.4-.3c.6 0 1.2.1 1.6.3a3 3 0 011.2.9c.3.4.5.8.6 1.3a5.4 5.4 0 01.3 1.6v.7h-6l.1 1a3 3 0 00.6 1 2.7 2.7 0 00.8.6 2.5 2.5 0 001 .2 3 3 0 002.5-1.2l.9.7a3.6 3.6 0 01-.6.6 4 4 0 01-.7.6 4.3 4.3 0 01-1 .3l-1 .2zm-.2-7.6a2.2 2.2 0 00-.8.1 2 2 0 00-.7.5 2.8 2.8 0 00-.5.8 3.9 3.9 0 00-.3 1h4.5v-.1a2.8 2.8 0 00-.1-.8 2.4 2.4 0 00-.5-.8 2 2 0 00-.6-.5 2 2 0 00-1-.2z" class="h"/><path d="M814.3 278.5h3V294h-3v-1.2h1.7v-13.1h-1.7zm9.6 0h3V294h-3v-1.2h1.7v-13.1H824zm10.3 12a1.2 1.2 0 01.3-.7.9.9 0 01.3-.3h1l.4.3a.9.9 0 01.2.3 1.2 1.2 0 010 .9.9.9 0 01-.2.4 1 1 0 01-.4.2 1.1 1.1 0 01-.5 0h-.5a1 1 0 01-.3-.2 1.2 1.2 0 01-.2-.4 1.2 1.2 0 01-.1-.4zm0-7a1.2 1.2 0 01.3-.7.9.9 0 01.3-.3h1l.4.3a.9.9 0 01.2.3 1.2 1.2 0 010 .9.9.9 0 01-.2.4 1.1 1.1 0 01-.4.2 1.4 1.4 0 01-.5 0h-.5a1.2 1.2 0 01-.3-.2 1.2 1.2 0 01-.2-.4 1.2 1.2 0 01-.1-.4z" class="c"/><path d="M854.3 281v2h3.2v1.2h-3.2v4.6l.1.8.4.5a1.3 1.3 0 00.5.2l.6.1h1l.4-.1.4-.1.2 1a2 2 0 01-.5.2 5.1 5.1 0 01-.6.1 5.5 5.5 0 01-.6.1h-.7l-1-.1a2.3 2.3 0 01-.9-.5 2.5 2.5 0 01-.5-.9 4 4 0 01-.2-1.3v-4.6h-2.3V283h2.3v-2zm11.7 2h.5a2.6 2.6 0 01.7 0l.3.1-.2 1.4a6 6 0 00-.8-.1 6.4 6.4 0 00-.8 0c-.7 0-1.2.1-1.6.4-.4.3-.7.8-1 1.3v5.4h-1.4v-8.4h1.4v1.3a3.7 3.7 0 011.3-1 3.4 3.4 0 011.6-.5zm9.6 7.4a3 3 0 01-1 1 3.4 3.4 0 01-2.7.1 2.5 2.5 0 01-1-.7l-.6-1-.2-1.7v-5h1.5v6.2c0 .4.3.5.4.7a1.2 1.2 0 00.5.4 2.2 2.2 0 00.8 0c.6 0 1 0 1.4-.3s.6-.6.8-1v-6h1.5v8.4h-1.3l-.1-1.1zm7.8 1.3c-.6 0-1.1-.1-1.6-.3a3.8 3.8 0 01-1.3-.9 3.9 3.9 0 01-.8-1.3 4.4 4.4 0 01-.3-1.6v-.3a4.9 4.9 0 01.3-1.9c.2-.5.5-1 .9-1.3a3.8 3.8 0 011.2-.9 3.6 3.6 0 011.4-.3 3.5 3.5 0 012.8 1.2c.3.4.5.8.6 1.3.2.5.3 1 .3 1.7v.6h-6a3.8 3.8 0 00.1 1.1 2.9 2.9 0 00.6.9 2.7 2.7 0 00.8.6l1.1.2c.5 0 1-.1 1.4-.3a2.9 2.9 0 001-.8l.9.6a3.6 3.6 0 01-2.2 1.5l-1.2.2zm-.2-7.6c-.3 0-.5 0-.8.2a2 2 0 00-.7.4 2.8 2.8 0 00-.5.8 3.9 3.9 0 00-.3 1h4.5a2.9 2.9 0 00-.1-1 2.3 2.3 0 00-.4-.7 2 2 0 00-.7-.5 2 2 0 00-1-.2z" class="l"/></g><use fill="#ff9800" xlink:href="#g"/><use class="d e" xlink:href="#g"/><path d="M459.7 170.4a2.4 2.4 0 00-.1-1 2.1 2.1 0 00-.6-.8l-1.1-.7-1.7-.6a17.2 17.2 0 01-2.4-.8 9.1 9.1 0 01-2-1.2 5.7 5.7 0 01-1.3-1.7 4.7 4.7 0 010-4.4 5 5 0 011.3-1.6 6.8 6.8 0 012.2-1 9 9 0 012.6-.5c1 0 2 .2 2.7.5a6.2 6.2 0 012.2 1.2 5.4 5.4 0 011.3 1.8c.4.7.5 1.5.5 2.4h-3.5a3.8 3.8 0 00-.3-1.2 2.4 2.4 0 00-.6-1 2.7 2.7 0 00-1-.5c-.3-.2-.8-.2-1.3-.2s-1 0-1.3.2a2.8 2.8 0 00-1 .4l-.6.8-.2 1a1.8 1.8 0 00.3 1l.7.7a7.2 7.2 0 001.3.6l1.6.5a15 15 0 012.4 1c.7.3 1.4.8 1.9 1.3a5.2 5.2 0 011.2 1.7 4.7 4.7 0 010 4.3 4.8 4.8 0 01-1.4 1.7 7.6 7.6 0 01-4.8 1.4 9.4 9.4 0 01-1.8-.3 8.8 8.8 0 01-1.7-.4 8 8 0 01-1.5-.9 6 6 0 01-1.2-1.2 5.9 5.9 0 01-.8-1.5 5.8 5.8 0 01-.3-2h3.6c0 .6 0 1.1.3 1.6.1.4.4.7.7 1a3.2 3.2 0 001.2.5 6.2 6.2 0 002.8 0 3 3 0 001-.4 2 2 0 00.5-.8c.2-.2.3-.5.3-.9zm10-7.2a5.2 5.2 0 011.6-1.6 4.4 4.4 0 012.3-.6c.8 0 1.4.1 2 .4a4 4 0 011.6 1c.5.5.8 1 1 1.8.3.7.4 1.6.4 2.6v8.6H475v-8.6c0-.5 0-1-.2-1.3a2 2 0 00-.5-.9 2 2 0 00-.9-.5 3.3 3.3 0 00-1-.1c-.7 0-1.2 0-1.7.3a3 3 0 00-1 .9v10.2H466v-20h3.6zm21.1 12.2a3.1 3.1 0 01-.2-.6 39.7 39.7 0 01-.2-.8 4.4 4.4 0 01-.6.7 5 5 0 01-1 .5 5 5 0 01-1 .3 5.6 5.6 0 01-1.2.1 6 6 0 01-2-.3 4.7 4.7 0 01-1.5-.9 4 4 0 01-1-1.3 4 4 0 01-.4-1.7c0-1.5.5-2.6 1.6-3.4s2.8-1.2 5-1.2h2v-.9a2 2 0 00-.7-1.6c-.4-.4-1-.6-1.9-.6-.7 0-1.2.2-1.6.5-.3.3-.5.8-.5 1.3H482a3.8 3.8 0 01.4-1.7 4.3 4.3 0 011.1-1.4c.5-.5 1.2-.8 2-1a8.5 8.5 0 014.9 0c.6.1 1.3.5 1.8.9a4.2 4.2 0 011.3 1.5c.3.6.4 1.3.4 2.2v6c0 .8 0 1.4.2 1.9 0 .5.2 1 .4 1.3v.2h-3.7zm-3.4-2.6h1a4.4 4.4 0 00.8-.4 3.1 3.1 0 00.7-.5 2.4 2.4 0 00.4-.6V169h-1.8c-.6 0-1 0-1.5.2-.4 0-.7.2-1 .4a2 2 0 00-.5.7l-.2 1c0 .4.2.8.5 1.2s.9.4 1.6.4zm23.3-4.3a9.4 9.4 0 01-1.4 5.1 5 5 0 01-1.8 1.5c-.6.3-1.4.5-2.3.5-.8 0-1.4-.1-2-.4a4.6 4.6 0 01-1.5-1v6.6H498v-19.5h3.3l.2 1.3a4.6 4.6 0 011.5-1.2 5.7 5.7 0 014.4.1 4.8 4.8 0 011.8 1.5 7 7 0 011 2.3c.3.8.4 1.8.4 2.9zm-3.6-.3c0-.6 0-1.2-.2-1.7a4.1 4.1 0 00-.5-1.3 2.6 2.6 0 00-.9-1l-1.3-.2a3 3 0 00-1.6.3 2.6 2.6 0 00-.9 1v6c.2.4.5.8 1 1 .3.3.9.4 1.5.4.5 0 1 0 1.3-.3a2.7 2.7 0 001-1l.4-1.3a8.3 8.3 0 00.2-1.6v-.3zm13.8 7.4c-1.1 0-2.1-.1-3-.5a7.3 7.3 0 01-2.3-1.5 6.4 6.4 0 01-1.4-2.1 7 7 0 01-.6-2.7v-.5c0-1 .2-2 .5-3a7 7 0 011.5-2.2 6.4 6.4 0 012.1-1.5 6.9 6.9 0 012.8-.6c1 0 1.9.2 2.7.5a5.5 5.5 0 012 1.4 6 6 0 011.2 2.2c.3.9.5 1.8.5 2.9v1.5h-9.6c0 .5.2.9.4 1.3l.9 1 1 .7a4 4 0 001.5.2h1a5.1 5.1 0 001-.4l1-.5a4 4 0 00.7-.7l1.8 2-.9.9a5.5 5.5 0 01-1.3.8 8.6 8.6 0 01-1.6.6 7.5 7.5 0 01-2 .2zm-.5-11.7a2 2 0 00-1.1.3 2.8 2.8 0 00-.9.6 3.8 3.8 0 00-.6 1 5.7 5.7 0 00-.4 1.2h6v-.3a3 3 0 00-.3-1 2.3 2.3 0 00-.6-1 2.6 2.6 0 00-.9-.5 3.2 3.2 0 00-1.2-.3zm-45.9 30.4a15 15 0 01.8-4.5 10.5 10.5 0 011.7-3.2 6.8 6.8 0 011-1 5.3 5.3 0 011-.7l.6 1.4a5.8 5.8 0 00-1 1l-1 1.7a12.7 12.7 0 00-.6 2.3c-.2.9-.3 1.9-.3 3v.2a15.9 15.9 0 001 5.3l.8 1.6 1 1-.4 1.5a4.5 4.5 0 01-1-.7 6.9 6.9 0 01-1-1 9.3 9.3 0 01-1-1.4 11.4 11.4 0 01-.8-1.8 14.6 14.6 0 01-.6-2 14.9 14.9 0 01-.2-2.5zm13.9-1.4l2.2-3h2.7l-3.3 4.8 3.4 5h-2.7l-2.3-3.2-2.3 3.2h-2.7l3.4-5-3.3-4.9h2.7zm13.4 1.6a13.1 13.1 0 01-.7 4.4l-.8 1.8a9.2 9.2 0 01-1 1.4l-1 1a4.6 4.6 0 01-1.1.7l-.5-1.3 1-1 1-1.7c.3-.7.4-1.4.6-2.3l.2-3v-.2a15 15 0 00-1-5.3c-.2-.7-.5-1.2-.8-1.7s-.7-.8-1-1l.5-1.4a5.2 5.2 0 011 .7 7.3 7.3 0 011 1 10 10 0 011.9 3.2 12.7 12.7 0 01.7 4.5z" class="b f"/><use class="m" xlink:href="#o"/><use class="d e" xlink:href="#o"/><path d="M474.1 232.8l-.2 4.3h-1.6v-5.6h1.8v1.3zm14 8.7l3.5-4.7h2.5l-4.7 6.3 4.8 6.4h-2.5l-3.5-4.9-3.5 4.9h-2.5l4.8-6.4-4.7-6.3h2.5l3.4 4.7zm14.8-8.7l-.2 4.3H501v-5.6h1.8v1.3z" class="b g"/><g class="e i"><path d="M548.6 237.5l86.1-12.8" class="d"/><g fill="#666"><path d="M535.5 239.4a6.6 6.6 0 1113-2 6.6 6.6 0 01-13 2z" class="b"/><path d="M635.7 231.2l17-9.2-19-3.9z"/></g></g><use fill="#34a853" xlink:href="#h"/><use class="d e" xlink:href="#h"/><path d="M103.1 303h3.7v13a6.2 6.2 0 01-.5 2.5 6 6 0 01-1.4 1.9 6.3 6.3 0 01-2 1.3 7.2 7.2 0 01-2.6.4c-1 0-1.8-.1-2.6-.4-.8-.2-1.4-.6-2-1a4.8 4.8 0 01-1.3-1.9c-.3-.7-.5-1.6-.5-2.6h3.7c0 1 .2 1.8.6 2.3.5.4 1.2.6 2.1.6.4 0 .8 0 1.1-.2a2.4 2.4 0 001-.7l.5-1a3.7 3.7 0 00.2-1.2zm16.9 14a2.4 2.4 0 00-.2-1 2.1 2.1 0 00-.6-.8l-1-.7-1.8-.6-2.3-.8a9 9 0 01-2-1.3 5.7 5.7 0 01-1.4-1.6c-.3-.7-.5-1.4-.5-2.2 0-.8.2-1.5.5-2.2a5 5 0 011.4-1.7 6.8 6.8 0 012.1-1 9 9 0 012.7-.4c1 0 1.9.2 2.7.4.8.3 1.5.7 2.1 1.2a5.4 5.4 0 011.4 1.9c.3.7.5 1.5.5 2.3H120a3.8 3.8 0 00-.2-1.1 2.4 2.4 0 00-.6-1 2.7 2.7 0 00-1-.6l-1.4-.2c-.5 0-1 0-1.3.2a2.8 2.8 0 00-1 .5 2 2 0 00-.5.7 2.2 2.2 0 00-.2 1c0 .4 0 .7.2 1l.8.7c.3.3.8.5 1.2.7l1.7.5 2.4 1c.8.3 1.3.7 1.8 1.2.6.5 1 1 1.3 1.7a5.4 5.4 0 01-.1 4.4 4.8 4.8 0 01-1.4 1.6c-.6.5-1.3.8-2 1s-1.8.4-2.8.4a9.4 9.4 0 01-1.7-.2 8.8 8.8 0 01-1.8-.5 8 8 0 01-1.5-.8 6 6 0 01-1.2-1.2 5.8 5.8 0 01-.8-1.6 5.8 5.8 0 01-.3-1.9h3.6c0 .6.1 1.1.3 1.5.2.4.4.8.8 1l1.1.6a6.2 6.2 0 002.8 0 3 3 0 001-.5 2 2 0 00.6-.7l.2-1zm19.4-3.2c0 1.3-.2 2.4-.5 3.4s-.8 2-1.4 2.6a6.3 6.3 0 01-2.2 1.8c-.9.4-1.9.6-3 .6s-2-.2-2.9-.6a6.2 6.2 0 01-2.1-1.8c-.6-.7-1-1.6-1.3-2.6s-.5-2.1-.5-3.4v-2.7c0-1.2.1-2.4.5-3.4s.7-1.9 1.3-2.6a6.1 6.1 0 012.1-1.8 7 7 0 013-.6c1 0 2 .2 2.9.6a6.3 6.3 0 012.2 1.8 9.2 9.2 0 011.9 6zm-3.7-2.8c0-.7 0-1.4-.2-2-.1-.7-.3-1.3-.6-1.8a3 3 0 00-1-1c-.5-.3-1-.4-1.6-.4s-1 0-1.5.4l-1 1-.4 1.7a13.4 13.4 0 00-.2 2.2v2.8c0 .7 0 1.4.2 2 0 .7.2 1.3.5 1.8.2.4.5.8 1 1 .3.4.8.5 1.4.5.6 0 1.1-.1 1.5-.4a3 3 0 001-1.1l.7-1.7.2-2.1zm19.3 4c0 1-.1 2-.4 3-.2.8-.6 1.6-1 2.2a4.9 4.9 0 01-1.7 1.5 6 6 0 01-2.4.5c-.9 0-1.6-.2-2.2-.5a4.5 4.5 0 01-1.5-1.3l-.2 1.5h-3.3v-20h3.7v7.2a4.6 4.6 0 011.4-1.1c.6-.3 1.3-.4 2-.4 1 0 1.8.2 2.5.5s1.2.9 1.7 1.5.8 1.4 1 2.3c.2.9.4 1.8.4 2.9zm-3.6-.2a9 9 0 00-.2-1.7 4.3 4.3 0 00-.4-1.3 2.4 2.4 0 00-.9-1c-.3-.2-.8-.3-1.4-.3-.6 0-1.2.2-1.6.4a2.9 2.9 0 00-1 1.2v5.6c.3.5.6.9 1 1.1.5.3 1 .4 1.7.4.5 0 1 0 1.3-.3.4-.2.7-.5.9-.9a4 4 0 00.4-1.3l.2-1.7v-.3zm9-7h7.3v14.5c0 .9-.2 1.7-.4 2.4a4 4 0 01-1.2 1.6c-.5.5-1.2.8-1.9 1-.7.2-1.6.3-2.5.3a15.2 15.2 0 01-1.2 0 7.8 7.8 0 01-1.1-.2l.1-3 .5.1h.5l.6.1h.4l1-.1c.3 0 .6-.2.8-.4a1.8 1.8 0 00.5-.7l.2-1.2v-11.4h-3.5zm3.4-3.6v-.7a1.8 1.8 0 01.5-.6 2 2 0 01.7-.4 2.5 2.5 0 01.8-.2 2 2 0 011.5.6c.4.3.6.8.6 1.3s-.2 1-.6 1.4c-.3.4-.8.6-1.5.6a2.5 2.5 0 01-.8-.2 2 2 0 01-.7-.4 2 2 0 01-.4-.6 2.1 2.1 0 01-.1-.7zm17.3 18c-1 0-2-.2-3-.5a7.3 7.3 0 01-2.2-1.5 6.4 6.4 0 01-1.5-2.1 7 7 0 01-.5-2.7v-.5c0-1.1.2-2.1.5-3a7 7 0 011.4-2.3 6.5 6.5 0 012.2-1.5 6.9 6.9 0 012.7-.5c1 0 2 .2 2.7.5a5.6 5.6 0 012 1.4 6 6 0 011.3 2.2c.3.9.4 1.8.4 2.8v1.6h-9.5a4.1 4.1 0 00.4 1.3l.8 1 1.1.7a4 4 0 001.4.2 6 6 0 001.1-.1 5 5 0 001-.3l1-.5a4 4 0 00.6-.7l1.8 2-.8.9-1.3.8a8.7 8.7 0 01-1.7.6 7.5 7.5 0 01-1.9.2zm-.4-11.7c-.4 0-.8 0-1.1.2a2.8 2.8 0 00-1 .7l-.6 1a5.7 5.7 0 00-.4 1.2h6v-.3a3 3 0 00-.2-1.1 2.3 2.3 0 00-.6-.9 2.6 2.6 0 00-.9-.6 3.2 3.2 0 00-1.2-.2zm15.8 8.8a3.2 3.2 0 001-.1 2.7 2.7 0 00.9-.5 2 2 0 00.5-.7c.2-.3.2-.6.2-.9h3.4a4.1 4.1 0 01-.4 2 4.9 4.9 0 01-1.3 1.7 6.3 6.3 0 01-2 1 6.9 6.9 0 01-2.2.4c-1.1 0-2-.2-2.9-.6a5.7 5.7 0 01-2-1.5 7 7 0 01-1.3-2.2 9 9 0 01-.4-2.8v-.4c0-1 .1-2 .4-2.8a6.4 6.4 0 011.2-2.2 5.9 5.9 0 012.1-1.6 8.4 8.4 0 015.3-.1c.8.3 1.3.6 1.9 1a4.8 4.8 0 011.2 1.8c.3.7.4 1.4.4 2.2h-3.4a2.3 2.3 0 00-.7-1.8 2.5 2.5 0 00-.8-.5 2.7 2.7 0 00-1-.2c-.7 0-1.1.1-1.5.4a2.5 2.5 0 00-.9.9l-.5 1.3a8.5 8.5 0 00-.1 1.6v.4a9.8 9.8 0 00.1 1.6 4.3 4.3 0 00.5 1.3c.2.4.5.7.9 1 .4.2.8.3 1.4.3zm16.4-14.9v3.5h5.3v2.6h-5.3v6c0 .6 0 1 .2 1.4l.5.8.8.4a4 4 0 001 .1h1.7l.8-.2.5-.1.4 2.4-.9.4a7.7 7.7 0 01-1 .3l-1.3.2a12.3 12.3 0 01-1.2 0 7 7 0 01-2.1-.3 4.3 4.3 0 01-1.6-1c-.5-.4-.8-.9-1-1.6s-.4-1.4-.4-2.4v-6.4h-3.2v-2.7h3.2v-3.4h3.6zm19.7 12.5a6 6 0 01.3-2 4.6 4.6 0 01.9-1.6c.4-.4.9-.8 1.4-1a5.6 5.6 0 014 0c.6.2 1 .6 1.5 1a4.3 4.3 0 01.9 1.6c.2.6.3 1.3.3 2v.2c0 .7-.1 1.4-.3 2a4.4 4.4 0 01-1 1.6 4 4 0 01-1.4 1c-.6.3-1.2.4-2 .4a5 5 0 01-2-.4 4 4 0 01-1.4-1 4.6 4.6 0 01-1-1.6 6.2 6.2 0 01-.2-2zm2.5.2a6 6 0 00.1 1.2l.4 1 .7.6c.3.2.6.2 1 .2.3 0 .6 0 .9-.2a1.9 1.9 0 00.6-.7l.4-1 .1-1V315.8a3.2 3.2 0 00-.5-1 1.8 1.8 0 00-.6-.6c-.3-.2-.6-.3-1-.3a2 2 0 00-1 .3 2 2 0 00-.6.6l-.4 1v1.3z" class="b f"/><use class="m" xlink:href="#m"/><g class="d"><use class="e" xlink:href="#m"/><path stroke="#595959" d="M262.1 312.3c36 0 53.9-33.9 71.9-67.8 9-16.9 18-33.9 29.1-46.6a67.4 67.4 0 0118.8-15.3l.5-.3" class="i"/></g><path fill="#595959" stroke="#595959" d="M384 188.8l16-10.7-19-2.1z" class="i"/><use fill="#674ea7" xlink:href="#i"/><use stroke="#351c75" class="d" xlink:href="#i"/><path d="M441.2 365.8l1.6 6.4 1.8-6.4h4.1v17h-3v-5l.1-8-2.2 7.4H442l-2-7 .1 7.6v5h-3v-17zm18.5 15.3a5 5 0 01-1.5 1.5 3.9 3.9 0 01-2 .5c-.7 0-1.3 0-1.8-.3a3.6 3.6 0 01-1.4-1c-.4-.4-.7-1-1-1.6l-.2-2.5v-7.5h3.2v7.5l.1 1.3.4.9.6.4 1 .2c.7 0 1.2-.2 1.6-.4a2.4 2.4 0 001-1v-9h3.2V383h-3l-.2-1.8zm12.3-14v3h4.8v2.5H472v5.4c0 .5 0 .9.2 1.2l.4.7a1.8 1.8 0 00.7.4 3.7 3.7 0 001 .1h1.5l.7-.2.5-.1.3 2.2-.8.4a8.4 8.4 0 01-1 .2 10.7 10.7 0 01-1 .2 9.4 9.4 0 01-1.1 0 6.1 6.1 0 01-2-.3 3.8 3.8 0 01-1.4-.8c-.4-.4-.7-.9-.9-1.5-.2-.6-.3-1.3-.3-2.1v-5.8h-3v-2.4h3V367h3.2zm16.4 15.8a2.4 2.4 0 01-.2-.6 10.3 10.3 0 01-.2-.6 4.2 4.2 0 01-.6.5 4.7 4.7 0 01-.8.5 4.7 4.7 0 01-.9.3h-1.1a5.5 5.5 0 01-1.8-.2 4.4 4.4 0 01-1.4-.8 3.8 3.8 0 01-1-1.2 3.5 3.5 0 01-.3-1.5c0-1.3.5-2.4 1.5-3s2.5-1.2 4.5-1.2h1.8v-.7a2 2 0 00-.6-1.5c-.4-.3-1-.5-1.7-.5s-1.1.1-1.4.4c-.3.3-.5.7-.5 1.2h-3.3a3.4 3.4 0 01.4-1.6 3.7 3.7 0 011-1.3c.5-.3 1-.6 1.7-.8a7.7 7.7 0 014.4 0 5 5 0 011.7.8c.5.3 1 .8 1.2 1.4.3.5.4 1.2.4 1.9v5.4l.1 1.7.4 1.2v.2zm-3.1-2.3a3.7 3.7 0 001-.1 3.5 3.5 0 00.7-.3l.6-.5a2.3 2.3 0 00.3-.5v-2.1h-1.6l-1.3.1-1 .4-.4.7a2 2 0 00-.2.8c0 .4.2.8.5 1 .3.3.8.5 1.4.5zm21-4c0 1-.1 1.9-.3 2.6s-.5 1.5-1 2a4.3 4.3 0 01-1.5 1.4c-.6.3-1.3.5-2.1.5s-1.4-.1-2-.4a4.2 4.2 0 01-1.4-1.2l-.1 1.4h-3v-18h3.3v6.4a4 4 0 011.3-1 4 4 0 011.8-.4c.9 0 1.6.2 2.2.5a4.3 4.3 0 011.5 1.4c.5.5.8 1.2 1 2 .2.8.3 1.7.3 2.6zm-3.3-.2V375a3.5 3.5 0 00-.5-1.2 2 2 0 00-.8-.8c-.3-.2-.7-.3-1.2-.3-.6 0-1 .1-1.4.4s-.7.6-.9 1v5c.2.5.5.8.9 1s.8.5 1.4.5c.5 0 1-.1 1.3-.3a2.2 2.2 0 00.7-.8l.4-1.2.1-1.6zm7-11.5h7v15.3h3.7v2.7h-10.8v-2.7h3.8v-12.7H510zm19.8 18.2a7 7 0 01-2.6-.5 6.5 6.5 0 01-2-1.3 5.8 5.8 0 01-1.4-2 6.3 6.3 0 01-.5-2.3v-.5c0-1 .2-1.8.5-2.7.3-.8.7-1.4 1.3-2a5.8 5.8 0 012-1.4 6.1 6.1 0 012.4-.5 6 6 0 012.4.5 5 5 0 013 3.2c.2.8.4 1.7.4 2.6v1.4h-8.6a3.6 3.6 0 00.3 1.2l.8.9a3.5 3.5 0 001 .6l1.2.2a4.8 4.8 0 001 0 4.1 4.1 0 00.9-.4 4.4 4.4 0 00.8-.4l.7-.7 1.6 1.8a5 5 0 01-.8.9l-1.2.7-1.4.5a7 7 0 01-1.8.2zm-.4-10.5a2.5 2.5 0 00-1 .2 2.3 2.3 0 00-.8.5l-.6 1a5 5 0 00-.3 1h5.3v-.2a2.7 2.7 0 00-.2-1 2.2 2.2 0 00-.5-.8 2.2 2.2 0 00-.8-.5 2.7 2.7 0 00-1-.2zm-102.6 39.3h-3.3v-7.4h-4.8v7.4h-3.3v-17.1h3.3v7h4.8v-7h3.3zm9.4.2a7 7 0 01-2.7-.5 6.5 6.5 0 01-2-1.3 5.7 5.7 0 01-1.3-2 6.3 6.3 0 01-.5-2.3v-.5c0-1 .2-1.8.5-2.7.3-.8.7-1.5 1.2-2a5.8 5.8 0 012-1.4 6.1 6.1 0 012.4-.5c1 0 1.8.2 2.5.5a5.1 5.1 0 011.8 1.3c.5.5.9 1.2 1.1 2 .3.7.4 1.6.4 2.5v1.4H433a3.6 3.6 0 00.4 1.2l.7.9a3.4 3.4 0 002.3.8 4.8 4.8 0 001 0 4.1 4.1 0 00.9-.4l.8-.4c.3-.1.4-.4.6-.7l1.7 1.8a5 5 0 01-.8.9 5.7 5.7 0 01-1.2.7l-1.4.5a7 7 0 01-1.8.2zm-.4-10.5c-.4 0-.7 0-1 .2a2.3 2.3 0 00-.8.5l-.6 1a4.9 4.9 0 00-.3 1h5.3v-.2a2.7 2.7 0 00-.2-1 2.2 2.2 0 00-.5-.8 2.2 2.2 0 00-.8-.5 2.7 2.7 0 00-1-.2zm16.6 10.3a2.4 2.4 0 01-.2-.6 10.3 10.3 0 01-.2-.6 4 4 0 01-.6.5 4.7 4.7 0 01-.8.5 4.7 4.7 0 01-1 .3h-1a5.5 5.5 0 01-1.8-.2 4.4 4.4 0 01-1.4-.8 3.8 3.8 0 01-1-1.2 3.5 3.5 0 01-.3-1.5c0-1.3.5-2.4 1.5-3s2.5-1.2 4.5-1.2h1.8v-.7a2 2 0 00-.6-1.5c-.4-.3-1-.5-1.7-.5s-1.2.1-1.5.4c-.3.3-.4.7-.4 1.2h-3.3a3.4 3.4 0 01.4-1.6c.2-.5.6-.9 1-1.3s1-.6 1.7-.8a7.7 7.7 0 014.4 0 5 5 0 011.7.8c.5.3.9.8 1.2 1.4.2.5.4 1.2.4 1.9v5.4l.1 1.7c0 .5.2.8.4 1.2v.2zm-3.1-2.3a3.7 3.7 0 00.9-.1 3.5 3.5 0 00.7-.3l.6-.5a2.3 2.3 0 00.4-.5v-2.1h-1.6l-1.4.1-.8.4c-.3.2-.4.4-.5.7a2 2 0 00-.2.8c0 .4.2.8.5 1 .3.3.7.5 1.4.5zm21-4a9.6 9.6 0 01-.4 2.6 6 6 0 01-1 2 4.6 4.6 0 01-1.5 1.4c-.6.3-1.3.5-2.1.5-.7 0-1.3-.1-1.8-.3a4.2 4.2 0 01-1.3-1v6h-3.3v-17.6h3l.1 1.2a4.3 4.3 0 011.4-1c.5-.3 1.2-.5 1.9-.5.8 0 1.5.2 2.1.5a4.3 4.3 0 011.6 1.3l1 2 .2 2.7zm-3.3-.2c0-.5 0-1-.2-1.5a3.7 3.7 0 00-.4-1.2 2.3 2.3 0 00-.8-.8c-.3-.2-.7-.3-1.2-.3-.6 0-1 .1-1.4.3a2.3 2.3 0 00-.9 1v5.3a2.5 2.5 0 001 1c.3.2.7.3 1.3.3.5 0 .9-.1 1.2-.3a2.3 2.3 0 00.8-.9l.4-1.2.2-1.5zm17.4 6.5H481l-4.7-11v11H473v-17.1h3.4l4.7 11v-11h3.3zm11.3-1.8a5 5 0 01-1.5 1.5 3.9 3.9 0 01-2 .5 5.3 5.3 0 01-1.8-.3 3.6 3.6 0 01-1.4-1c-.4-.4-.7-1-1-1.6l-.2-2.5v-7.5h3.2v7.5l.1 1.3.4.9c.1.2.4.3.6.4l1 .2a3 3 0 001.6-.4l1-1v-9h3.2V412h-3zm8.4-11v1.6l1-1.3a3 3 0 011.6-.5c1 0 1.7.5 2 1.4.3-.4.6-.8 1-1 .4-.2.9-.4 1.4-.4.4 0 .7.1 1 .3.4.1.7.3 1 .6l.5 1.2.2 1.8v9h-3v-9.6a.7.7 0 00-.2-.4.6.6 0 00-.3-.1 1 1 0 00-.4-.1 1 1 0 00-.6.2 1 1 0 00-.3.4v9.7h-3v-9.7a.8.8 0 00-.3-.4.6.6 0 00-.2-.1 1 1 0 00-.4-.1c-.2 0-.4 0-.6.2a1.3 1.3 0 00-.3.6v9.5h-3v-12.7zm23.8 6.5c0 1-.1 1.9-.3 2.6s-.5 1.5-1 2a4.3 4.3 0 01-1.5 1.4c-.6.3-1.3.5-2.1.5s-1.4-.1-2-.4a4.2 4.2 0 01-1.4-1.2l-.1 1.4h-3v-18h3.3v6.4a4 4 0 011.3-1 4 4 0 011.8-.4c.9 0 1.6.2 2.2.5a4.3 4.3 0 011.5 1.4c.5.5.8 1.2 1 2a10.2 10.2 0 01.3 2.6zm-3.3-.2V404a3.5 3.5 0 00-.5-1.2 2 2 0 00-.8-.8c-.3-.2-.7-.3-1.2-.3-.6 0-1 .1-1.4.4a2.4 2.4 0 00-1 1v5a2.4 2.4 0 001 1c.3.3.8.5 1.4.5.5 0 1-.1 1.2-.3a2.2 2.2 0 00.8-.8 3.5 3.5 0 00.4-1.2l.1-1.6zm12.4 6.7a7 7 0 01-2.6-.5 6.5 6.5 0 01-2-1.3 5.7 5.7 0 01-1.4-2 6.3 6.3 0 01-.5-2.3v-.5c0-1 .2-1.8.5-2.7a6.3 6.3 0 011.3-2 5.9 5.9 0 012-1.4 6.1 6.1 0 012.4-.5 6 6 0 012.4.5 5 5 0 013 3.2c.2.8.3 1.7.3 2.6v1.4h-8.6a3.6 3.6 0 00.4 1.2 3.3 3.3 0 00.7.9l1 .6 1.3.2a4.8 4.8 0 001 0 4.1 4.1 0 00.9-.4 4.4 4.4 0 00.8-.4l.7-.7 1.6 1.8a5 5 0 01-.8.9l-1.2.7a7.8 7.8 0 01-1.4.5 7 7 0 01-1.8.2zm-.4-10.5a2.5 2.5 0 00-1 .2 2.3 2.3 0 00-.8.5 3.1 3.1 0 00-.6 1 5 5 0 00-.3 1h5.3v-.2a2.7 2.7 0 00-.2-1 2.2 2.2 0 00-.5-.8 2.2 2.2 0 00-.8-.5 2.7 2.7 0 00-1-.2zm17.8-2.7a7.9 7.9 0 011.3.2c.4 0 .8 0 1 .2l-.4 3.2a13.6 13.6 0 00-1.4-.2 11.1 11.1 0 00-1.2 0 4 4 0 00-2.2.4c-.6.4-1 .9-1.3 1.5v7.7H547v-12.7h3l.2 2a5.8 5.8 0 011.8-1.6 4.6 4.6 0 012.4-.7z" class="b f"/><use class="m" xlink:href="#p"/><use class="d e" xlink:href="#p"/><g class="b"><path fill="#ff0" d="M464.3 438.5h43.2v28.8h-43.2z"/><path d="M477 455a8.2 8.2 0 01-1.4 5 4.6 4.6 0 01-1.8 1.3 5.9 5.9 0 01-4.7 0 4.8 4.8 0 01-1.7-1.3 9 9 0 01-1.4-5.1v-4c0-1 0-2 .3-2.8a7 7 0 011.1-2.1 4.7 4.7 0 011.8-1.3 5.6 5.6 0 014.6 0 4.5 4.5 0 011.7 1.3c.5.6.9 1.3 1.1 2.1.3.8.4 1.8.4 2.9zm-8.9-.4l6.7-5.1c-.1-1.2-.5-2-1-2.6a3 3 0 00-2.3-1c-1.2 0-2 .5-2.6 1.2-.5.8-.8 2-.8 3.4zm6.7-3l-6.6 5c.1 1.1.5 2 1 2.5a3 3 0 002.3.9c1.2 0 2-.4 2.5-1.2.6-.8.8-1.9.8-3.4zm9.7 8.5a1.9 1.9 0 010-.6l.4-.6a1.5 1.5 0 01.5-.3l.8-.2c.3 0 .5 0 .7.2a1.4 1.4 0 01.6.3 1.4 1.4 0 01.3.6l.1.6-.1.7a1.4 1.4 0 01-.9.8 2 2 0 01-.7.1h-.8a1.6 1.6 0 01-.5-.4 1.5 1.5 0 01-.3-.5 1.8 1.8 0 01-.1-.7zm17.6 1.4H500v-14.3l-4.5 1.7v-2l6.5-2.4h.1z" class="g"/></g><g class="e i"><path d="M209.5 380l143.5 7.6" class="d"/><g fill="#666"><path d="M196.4 379.2a6.6 6.6 0 1113.1.7 6.6 6.6 0 01-13.1-.7z" class="b"/><path d="M352.6 394.1l18.5-5.6-17.8-7.5z"/></g></g><use fill="#ff9800" xlink:href="#j"/><use class="d e" xlink:href="#j"/><path d="M459.7 42.2a2.4 2.4 0 00-.1-1 2.1 2.1 0 00-.6-.8l-1.1-.7-1.7-.6a17.2 17.2 0 01-2.4-.8 9.1 9.1 0 01-2-1.2 5.7 5.7 0 01-1.3-1.7 4.7 4.7 0 010-4.4 5 5 0 011.3-1.6 6.8 6.8 0 012.2-1 9 9 0 012.6-.5c1 0 2 .2 2.7.5a6.2 6.2 0 012.2 1.2 5.4 5.4 0 011.3 1.8c.4.7.5 1.5.5 2.4h-3.5a3.8 3.8 0 00-.3-1.2 2.4 2.4 0 00-.6-1 2.7 2.7 0 00-1-.5c-.3-.2-.8-.2-1.3-.2l-1.3.1a2.8 2.8 0 00-1 .5 2 2 0 00-.6.8 2.2 2.2 0 00-.2 1l.3 1 .7.7a7 7 0 001.3.6l1.6.5 2.4 1c.7.4 1.4.8 1.9 1.3a5.2 5.2 0 011.2 1.7 4.7 4.7 0 010 4.3 4.8 4.8 0 01-1.4 1.6c-.6.5-1.3.8-2.1 1s-1.7.4-2.7.4a9.4 9.4 0 01-1.8-.2 8.7 8.7 0 01-1.7-.4 8 8 0 01-1.5-.9 6 6 0 01-1.2-1.2 5.8 5.8 0 01-.8-1.5 5.8 5.8 0 01-.3-2h3.6c0 .6 0 1.1.3 1.6.1.4.4.7.7 1s.7.4 1.2.5a6.2 6.2 0 002.8 0 3 3 0 001-.4 2 2 0 00.5-.8 2 2 0 00.3-.9zm10-7.2a5.2 5.2 0 011.6-1.6 4.4 4.4 0 012.3-.6c.8 0 1.4.1 2 .4a4 4 0 011.6 1c.5.4.8 1 1 1.8.3.7.4 1.6.4 2.6v8.6H475v-8.6c0-.5 0-1-.2-1.3a2 2 0 00-.5-.9 2 2 0 00-.9-.5 3.3 3.3 0 00-1-.2 3 3 0 00-1.7.4 3 3 0 00-1 .9v10H466V27h3.6zm21.1 12.2a3.1 3.1 0 01-.2-.6l-.2-.8a4.4 4.4 0 01-.6.7 5.2 5.2 0 01-2 .8 5.6 5.6 0 01-1.2.1 6 6 0 01-2-.3 4.8 4.8 0 01-1.5-.9 4 4 0 01-1-1.3 4 4 0 01-.4-1.7c0-1.5.5-2.6 1.6-3.4s2.8-1.3 5-1.3h2v-.8a2 2 0 00-.7-1.6c-.4-.4-1-.6-1.9-.6-.7 0-1.2.2-1.6.5-.3.3-.5.7-.5 1.3H482a3.8 3.8 0 01.4-1.7 4.3 4.3 0 011.1-1.5c.5-.4 1.2-.7 2-1 .6-.2 1.5-.3 2.4-.3.9 0 1.7.1 2.4.3.7.2 1.4.5 1.9 1a4.2 4.2 0 011.3 1.5c.3.6.4 1.3.4 2.2v6c0 .7 0 1.4.2 1.9 0 .5.2.9.4 1.3v.2h-3.7zm-3.4-2.6a3.9 3.9 0 001.8-.4 3.1 3.1 0 001.1-1v-2.5h-1.8c-.6 0-1 0-1.5.2-.4 0-.7.2-1 .4a2 2 0 00-.5.7l-.2 1c0 .4.2.8.5 1.2s.9.4 1.6.4zm23.3-4.3a9.4 9.4 0 01-1.4 5.1 5 5 0 01-1.8 1.5c-.6.3-1.4.5-2.3.5-.8 0-1.4-.1-2-.4a4.5 4.5 0 01-1.5-1v6.6H498V33h3.3l.2 1.3a4.6 4.6 0 011.5-1.2 5.7 5.7 0 014.4.1 4.8 4.8 0 011.8 1.5 7 7 0 011 2.3c.3.8.4 1.8.4 2.9zM507 40c0-.6 0-1.2-.2-1.7a4.1 4.1 0 00-.5-1.3 2.6 2.6 0 00-.9-1c-.4-.1-.8-.3-1.3-.3a3 3 0 00-1.6.4 2.6 2.6 0 00-.9 1v6a2.9 2.9 0 001 1c.3.3.9.4 1.5.4.5 0 1 0 1.3-.3a2.7 2.7 0 001-1l.4-1.3.2-1.7V40zm13.8 7.4c-1.1 0-2.1-.2-3-.5a7.3 7.3 0 01-2.3-1.5 6.4 6.4 0 01-1.4-2.1 7 7 0 01-.6-2.7v-.5c0-1 .2-2 .5-3a7 7 0 011.5-2.3 6.4 6.4 0 012.1-1.5 6.9 6.9 0 012.8-.5c1 0 1.9.2 2.7.5a5.5 5.5 0 012 1.4 6 6 0 011.2 2.2c.3.9.5 1.8.5 2.9v1.5h-9.6a4.1 4.1 0 00.4 1.3l.9 1a3.8 3.8 0 002.5 1l1-.2a5 5 0 001-.3l1-.5.7-.7 1.8 2-.9.9-1.3.8c-.5.3-1 .4-1.6.6a7.5 7.5 0 01-2 .2zm-.5-11.7a2 2 0 00-1.1.3l-.9.6a3.8 3.8 0 00-.6 1 5.7 5.7 0 00-.4 1.2h6v-.3a3 3 0 00-.3-1 2.3 2.3 0 00-.6-1 2.6 2.6 0 00-.9-.5 3.2 3.2 0 00-1.2-.3zm-68.2 30.4a15 15 0 01.7-4.5 10.5 10.5 0 012.8-4.2l1-.7.5 1.4-1 1-1 1.7a12.7 12.7 0 00-.6 2.3c-.2.9-.3 1.9-.3 3v.2c0 1.1.1 2.1.3 3 .1.9.4 1.6.6 2.3s.6 1.2 1 1.6c.3.5.6.8 1 1l-.5 1.4a4.5 4.5 0 01-1-.6 6.9 6.9 0 01-1-1 9.2 9.2 0 01-1-1.4 11.3 11.3 0 01-.8-1.8 14.6 14.6 0 01-.6-2 14.9 14.9 0 01-.1-2.5zm14 5.6c-.7 0-1.4-.2-2-.4a5 5 0 01-1.6-1 4.5 4.5 0 01-1-1.5 4.9 4.9 0 01-.4-1.9v-.4c0-.7.1-1.4.4-2a5 5 0 011-1.6 4.3 4.3 0 011.5-1 4.8 4.8 0 011.9-.5 5 5 0 011.9.4 3.8 3.8 0 011.4 1c.4.4.7 1 .9 1.5a6 6 0 01.3 2v1h-6.7a2.8 2.8 0 00.3 1 3 3 0 00.6.7l.8.5 1 .1a3.5 3.5 0 00.7 0l.7-.3a3.4 3.4 0 00.6-.3 2.6 2.6 0 00.5-.5l1.3 1.4a3.7 3.7 0 01-.6.6 4 4 0 01-1 .6 5.9 5.9 0 01-1 .4 5.6 5.6 0 01-1.4.2zm-.2-8.2a2 2 0 00-.8.1l-.6.5a2.6 2.6 0 00-.5.6l-.3 1h4.2v-.3c0-.2 0-.5-.2-.7a1.5 1.5 0 00-.4-.6 1.6 1.6 0 00-.6-.5 2.1 2.1 0 00-.8-.1zm8.3-1.9v1.2l.8-1a2 2 0 011.2-.4c.8 0 1.3.4 1.6 1a2 2 0 011.8-1 2 2 0 01.9.2 1.6 1.6 0 01.6.5l.5 1 .1 1.4v7h-2.3v-7a1.4 1.4 0 000-.5.5.5 0 00-.2-.3.5.5 0 00-.2-.2.7.7 0 00-.3 0 .8.8 0 00-.4.1.8.8 0 00-.3.3v7.6h-2.2v-7l-.1-.5a.6.6 0 00-.2-.3.6.6 0 00-.2-.2.7.7 0 00-.3 0c-.1 0-.3 0-.4.2a1.1 1.1 0 00-.3.4v7.4H472v-9.9h2.2zm18.4 5c0 .8 0 1.4-.2 2a4.7 4.7 0 01-.8 1.6 3.6 3.6 0 01-1.2 1c-.4.3-1 .5-1.6.5-.5 0-1-.1-1.4-.3a3.2 3.2 0 01-1-.8v4.7h-2.6V61.6h2.4v1a3.1 3.1 0 011.1-.9l1.5-.3a3.6 3.6 0 012.9 1.4l.7 1.6c.2.6.3 1.3.3 2zm-2.5-.2a5.2 5.2 0 00-.1-1.1 2.7 2.7 0 00-.4-1 1.7 1.7 0 00-.6-.6l-.9-.2c-.4 0-.8 0-1 .3l-.7.7v4c.1.4.3.7.6.8s.7.3 1.1.3c.4 0 .7 0 1-.2a1.9 1.9 0 00.6-.7l.3-1 .1-1zm9.5-7.2v2.4h3.7v1.9h-3.7v4.2c0 .4 0 .7.2 1 0 .2.2.4.3.5.2.2.3.3.6.3l.7.1h1.2l.5-.2a5.5 5.5 0 00.4 0l.2 1.7a3 3 0 01-.6.2 5.4 5.4 0 01-.7.2l-.9.1h-.8a5.1 5.1 0 01-1.5-.1 3 3 0 01-1.1-.7 3.1 3.1 0 01-.8-1.2 5 5 0 01-.2-1.6v-4.5h-2.3v-1.9h2.3v-2.4zm10.8 8.1l.3 1.1 2.6-6.8h2.8l-5 11.3-.4.9a3.6 3.6 0 01-.7.8 3.3 3.3 0 01-1 .6 3 3 0 01-1.3.3 3.3 3.3 0 01-.3 0 2.5 2.5 0 01-.3-.1 2.8 2.8 0 01-.3 0 8.5 8.5 0 01-.3-.1l.3-2h.8a.8.8 0 00.6-.1 1.8 1.8 0 00.3-.4 2.4 2.4 0 00.3-.4l.2-.2.6-1.1-4.2-9.5h2.8l2.2 5.7zm13.7-1a13 13 0 01-1.5 6.2 9.2 9.2 0 01-1 1.4 7.3 7.3 0 01-1 1c-.4.4-.8.6-1.1.7l-.5-1.3 1-1 1-1.7c.3-.7.4-1.4.6-2.3l.2-3v-.2a15 15 0 00-1-5.3c-.2-.7-.5-1.2-.8-1.7s-.7-.8-1-1l.5-1.4 1 .7 1 1a10 10 0 011.9 3.3 14 14 0 01.7 4.4z" class="b f"/><g stroke-width="2" class="e"><path d="M488.2 94.7v36" class="d"/><path fill="#666" d="M491.5 94.7l-3.3-9-3.3 9zm-6.6 36l3.3 9 3.3-9z"/></g><path d="M505.9 106.6l-.3 3.4h-1.2v-4.4h1.5zm10.9 6.8l2.6-3.7h2l-3.7 4.9 3.8 5h-2l-2.7-3.8-2.7 3.8h-2l3.8-5-3.7-4.9h2zm11.4-6.8l-.2 3.4h-1.2v-4.4h1.4z" class="b g"/></g></g><defs><path id="d" d="M366.7 366.2a26.5 26.5 0 0126.5-26.5h187.4a26.5 26.5 0 0126.6 26.5v106.1a26.5 26.5 0 01-26.6 26.6H393.2a26.5 26.5 0 01-26.5-26.6z"/><path id="e" d="M658.4 158a31.6 31.6 0 0131.6-31.6h212.5a31.6 31.6 0 0131.6 31.6v126.3a31.6 31.6 0 01-31.6 31.6H690a31.6 31.6 0 01-31.6-31.6z"/><path id="f" d="M683.1 235.7h-1.7v13h1.7v1.3h-3v-15.5h3zm9.6 0H691v13h1.7v1.3h-3v-15.5h3z"/><path id="g" d="M405.8 154a11.4 11.4 0 0111.4-11.4h142a11.4 11.4 0 0111.4 11.4v45.5a11.4 11.4 0 01-11.4 11.4h-142a11.4 11.4 0 01-11.4-11.4z"/><path id="h" d="M73.2 289.6a11.4 11.4 0 0111.3-11.4h166.3a11.4 11.4 0 0111.3 11.4V335a11.4 11.4 0 01-11.3 11.3H84.5A11.4 11.4 0 0173.2 335z"/><path id="i" d="M377 366a11.4 11.4 0 0111.3-11.3h195.4a11.4 11.4 0 0111.4 11.4v45.5a11.4 11.4 0 01-11.4 11.3H388.3a11.4 11.4 0 01-11.3-11.3z"/><path id="j" d="M405.8 25.8a11.4 11.4 0 0111.4-11.4h142a11.4 11.4 0 0111.4 11.4v45.5a11.4 11.4 0 01-11.4 11.4h-142a11.4 11.4 0 01-11.4-11.4z"/></defs></svg>