<svg height="424" width="960" xmlns="http://www.w3.org/2000/svg" xmlns:xlink="http://www.w3.org/1999/xlink"><mask id="a" fill="#fff"><path d="m0 0h960v424h-960z" fill="#fff" fill-rule="evenodd"/></mask><mask id="b" fill="#fff"><path d="m0 0h960v540h-960z" fill="#fff" fill-rule="evenodd"/></mask><g fill="none" fill-rule="evenodd" mask="url(#a)"><g mask="url(#b)"><path d="m0 0h960v540h-960z" fill="#fff"/><path d="m38.514 52.213h331.78v321.26h-331.78z"/><path d="m49.264 81.482c0-1.115.162-2.151.485-3.11a7.496 7.496 0 0 1 1.39-2.5 6.638 6.638 0 0 1 2.22-1.671c.864-.407 1.843-.61 2.937-.61 1.093 0 2.078.203 2.953.61a6.458 6.458 0 0 1 2.219 1.672 7.483 7.483 0 0 1 1.39 2.5c.333.958.5 1.994.5 3.109v.312c0 1.115-.167 2.151-.5 3.11a7.496 7.496 0 0 1 -1.39 2.5 6.532 6.532 0 0 1 -2.22 1.656c-.864.396-1.838.594-2.921.594-1.104 0-2.094-.198-2.969-.594a6.753 6.753 0 0 1 -2.219-1.656 7.496 7.496 0 0 1 -1.39-2.5c-.323-.959-.485-1.995-.485-3.11zm2.641.312c0 .76.089 1.49.266 2.188a5.95 5.95 0 0 0 .828 1.828c.375.52.838.937 1.39 1.25.553.302 1.199.453 1.938.453.719 0 1.354-.151 1.906-.453a4.164 4.164 0 0 0 1.375-1.25c.365-.531.636-1.14.813-1.828.187-.698.28-1.427.28-2.188v-.312a8.19 8.19 0 0 0 -.28-2.156 5.787 5.787 0 0 0 -.828-1.828 4.1 4.1 0 0 0 -1.375-1.266c-.553-.313-1.193-.469-1.922-.469-.74 0-1.38.156-1.922.469s-1 .735-1.375 1.266c-.365.52-.64 1.13-.828 1.828a8.597 8.597 0 0 0 -.266 2.156z" fill="#000" fill-rule="nonzero"/><path d="m97.98 78.2h-12.782v-2.296h12.782zm0 5.938h-12.782v-2.281h12.782zm33.933 10.469a4.867 4.867 0 0 1 -1.687-.313 4.953 4.953 0 0 1 -1.36-.765 5.166 5.166 0 0 1 -1.03-1.14 7.235 7.235 0 0 1 -.735-1.376 7.653 7.653 0 0 1 -.438-1.515 8.765 8.765 0 0 1 -.14-1.547v-2.422c0-1.375-.328-2.37-.985-2.985-.656-.625-1.656-.942-3-.953v-2.078c1.344 0 2.344-.307 3-.922.657-.615.985-1.615.985-3v-2.421c0-.51.042-1.025.125-1.546a8.322 8.322 0 0 1 .39-1.516c.188-.49.423-.948.704-1.375.28-.437.619-.817 1.015-1.14.407-.323.87-.579 1.39-.766a5.434 5.434 0 0 1 1.766-.328l.313 1.656c-.687.02-1.234.182-1.64.484a2.846 2.846 0 0 0 -.923 1.172c-.208.469-.343 1-.406 1.594a20.209 20.209 0 0 0 -.078 1.765v2.422c-.01 1.147-.276 2.152-.797 3.016-.52.865-1.338 1.521-2.453 1.969 1.115.437 1.932 1.088 2.453 1.953.52.865.786 1.865.797 3v2.422c0 .593.047 1.182.14 1.765.105.594.271 1.125.5 1.594.24.48.553.87.938 1.172s.875.463 1.469.484l-.313 1.641z" fill="#e67c73" fill-rule="nonzero"/><path d="m162.004 79.623 4.14-5.75h3.11l-5.766 7.671 5.922 7.829h-3.063l-4.281-5.907-4.281 5.907h-3.094l5.922-7.829-5.766-7.671h3.063z" fill="#000" fill-rule="nonzero"/><path d="m178.822 87.654c0-.281.042-.547.125-.797a2.06 2.06 0 0 1 .39-.656c.177-.188.391-.334.641-.438.26-.104.562-.156.907-.156.343 0 .645.052.906.156.27.104.495.25.672.438.177.187.307.406.39.656.093.25.14.516.14.797s-.047.542-.14.781c-.083.24-.213.453-.39.64a1.74 1.74 0 0 1 -.672.407c-.26.104-.562.156-.906.156s-.646-.052-.907-.156a1.758 1.758 0 0 1 -.64-.406 2.137 2.137 0 0 1 -.391-.64c-.083-.24-.125-.5-.125-.782zm0-13c0-.281.042-.547.125-.797a2.06 2.06 0 0 1 .39-.656c.177-.188.391-.334.641-.438.26-.104.562-.156.907-.156.343 0 .645.052.906.156.27.104.495.25.672.438.177.187.307.406.39.656.093.25.14.516.14.797s-.047.542-.14.781c-.083.24-.213.453-.39.64a1.908 1.908 0 0 1 -.672.423c-.26.093-.562.14-.906.14s-.646-.047-.907-.14a1.968 1.968 0 0 1 -.64-.422 2.137 2.137 0 0 1 -.391-.64c-.083-.24-.125-.5-.125-.782z" fill="#e67c73" fill-rule="nonzero"/><path d="m216.99 89.373h-2.64v-17.47l-5.453 2.079v-2.422l7.89-3.031h.203z" fill="#db4437" fill-rule="nonzero"/><path d="m245.737 92.966c.583-.02 1.068-.181 1.453-.484.396-.302.708-.693.937-1.172.24-.469.407-1 .5-1.594a9.974 9.974 0 0 0 .157-1.765v-2.422c0-1.135.26-2.135.78-3 .532-.865 1.35-1.516 2.454-1.953-1.104-.448-1.922-1.104-2.453-1.969-.52-.865-.781-1.87-.781-3.016v-2.421c0-.583-.031-1.172-.094-1.765a5.285 5.285 0 0 0 -.406-1.594c-.198-.48-.5-.87-.907-1.172-.395-.302-.937-.463-1.625-.484l.282-1.656c.667.02 1.255.13 1.765.328.52.187.979.442 1.375.765.407.323.75.704 1.031 1.141.281.427.51.885.688 1.375.187.49.323.995.406 1.516.093.52.14 1.035.14 1.546v2.422c0 1.385.328 2.385.985 3s1.657.922 3 .922v2.078c-1.343.01-2.343.328-3 .953-.656.615-.984 1.61-.984 2.985v2.422c0 .77-.11 1.541-.328 2.312a6.617 6.617 0 0 1 -.985 2.125 5.257 5.257 0 0 1 -1.672 1.578c-.677.417-1.484.63-2.421.641l-.297-1.64zm21.084-18.312c0-.281.042-.547.125-.797a2.06 2.06 0 0 1 .39-.656c.177-.188.391-.334.641-.438.26-.104.562-.156.906-.156s.646.052.907.156c.27.104.494.25.671.438.177.187.308.406.391.656.093.25.14.516.14.797s-.047.542-.14.781c-.083.24-.213.453-.39.64a1.908 1.908 0 0 1 -.672.423c-.26.093-.563.14-.907.14-.343 0-.645-.047-.906-.14a1.968 1.968 0 0 1 -.64-.422 2.137 2.137 0 0 1 -.391-.64c-.083-.24-.125-.5-.125-.782zm3.094 14.11c0 .447-.057.916-.172 1.405-.105.49-.266.975-.485 1.454-.208.49-.468.953-.781 1.39a6.248 6.248 0 0 1 -1.047 1.172l-1.656-.906a6.52 6.52 0 0 0 .969-2.14c.198-.75.297-1.532.297-2.345v-2.562h2.875z" fill="#e67c73" fill-rule="nonzero"/><path d="m47.514 114.213h158.398v35.2h-158.398z" fill="#ff0" fill-rule="nonzero"/><path d="m47.514 111.641h17.6v38.68h-17.6z"/><path d="m49.264 134.482c0-1.115.162-2.151.485-3.11a7.496 7.496 0 0 1 1.39-2.5 6.638 6.638 0 0 1 2.22-1.671c.864-.407 1.843-.61 2.937-.61 1.093 0 2.078.203 2.953.61a6.458 6.458 0 0 1 2.219 1.672 7.483 7.483 0 0 1 1.39 2.5c.333.958.5 1.994.5 3.109v.312c0 1.115-.167 2.151-.5 3.11a7.496 7.496 0 0 1 -1.39 2.5 6.532 6.532 0 0 1 -2.22 1.656c-.864.396-1.838.594-2.921.594-1.104 0-2.094-.198-2.969-.594a6.753 6.753 0 0 1 -2.219-1.656 7.496 7.496 0 0 1 -1.39-2.5c-.323-.959-.485-1.995-.485-3.11zm2.641.312c0 .76.089 1.49.266 2.188a5.95 5.95 0 0 0 .828 1.828c.375.52.838.937 1.39 1.25.553.302 1.199.453 1.938.453.719 0 1.354-.151 1.906-.453a4.164 4.164 0 0 0 1.375-1.25c.365-.531.636-1.14.813-1.828.187-.698.28-1.427.28-2.188v-.312a8.19 8.19 0 0 0 -.28-2.156 5.787 5.787 0 0 0 -.828-1.828 4.1 4.1 0 0 0 -1.375-1.266c-.553-.313-1.193-.469-1.922-.469-.74 0-1.38.156-1.922.469s-1 .735-1.375 1.266c-.365.52-.64 1.13-.828 1.828a8.597 8.597 0 0 0 -.266 2.156z" fill="#000" fill-rule="nonzero"/><path d="m65.114 111.641h17.6v38.68h-17.6z"/><path d="m72.224 140.654c0-.281.042-.547.125-.797a2.06 2.06 0 0 1 .39-.656c.177-.188.39-.334.64-.438.26-.104.563-.156.907-.156s.646.052.906.156c.271.104.495.25.672.438.177.187.307.406.39.656.094.25.141.516.141.797s-.047.542-.14.781c-.083.24-.213.453-.39.64a1.74 1.74 0 0 1 -.673.407c-.26.104-.562.156-.906.156s-.646-.052-.906-.156a1.758 1.758 0 0 1 -.64-.406 2.137 2.137 0 0 1 -.391-.64c-.083-.24-.125-.5-.125-.782z" fill="#e67c73" fill-rule="nonzero"/><path d="m82.714 111.641h17.6v38.68h-17.6z"/><path d="m91.605 132.623 4.14-5.75h3.11l-5.766 7.671 5.922 7.829h-3.063l-4.28-5.907-4.282 5.907h-3.094l5.922-7.829-5.766-7.671h3.063z" fill="#000" fill-rule="nonzero"/><path d="m100.314 111.641h70.399v38.68h-70.4v-38.68z"/><path d="m128.085 131.185h5.828v2.64h-5.828v6.454h-2.656v-6.453h-5.812v-2.64h5.812v-6.079h2.656zm22.694.016h-12.781v-2.297h12.78v2.297zm0 5.937h-12.781v-2.281h12.78v2.281z" fill="#e67c73" fill-rule="nonzero"/><path d="m170.713 111.641h17.6v38.68h-17.6z"/><path d="m181.79 142.373h-2.64v-17.47l-5.453 2.079v-2.422l7.89-3.031h.204v20.844z" fill="#db4437" fill-rule="nonzero"/><path d="m188.312 111.641h17.6v38.68h-17.6z"/><path d="m196.422 127.654c0-.281.042-.547.125-.797a2.06 2.06 0 0 1 .39-.656c.177-.188.391-.334.641-.438.26-.104.562-.156.906-.156s.646.052.907.156c.27.104.494.25.671.438.177.187.308.406.391.656.093.25.14.516.14.797s-.047.542-.14.781c-.083.24-.213.453-.39.64a1.908 1.908 0 0 1 -.672.423c-.26.093-.563.14-.907.14-.343 0-.645-.047-.906-.14a1.968 1.968 0 0 1 -.64-.422 2.137 2.137 0 0 1 -.391-.64c-.083-.24-.125-.5-.125-.782zm3.094 14.11c0 .447-.057.916-.172 1.405-.105.49-.266.975-.485 1.454-.208.49-.468.953-.781 1.39a6.248 6.248 0 0 1 -1.047 1.172l-1.656-.906a6.52 6.52 0 0 0 .969-2.14c.198-.75.297-1.532.297-2.345v-2.562h2.875z" fill="#e67c73" fill-rule="nonzero"/><path d="m205.912 111.641v38.68z"/><path d="m658.44 157.995c0-17.441 14.14-31.58 31.582-31.58h212.492c17.441 0 31.58 14.139 31.58 31.58v126.32c0 17.44-14.139 31.58-31.58 31.58h-212.492c-17.442 0-31.582-14.14-31.582-31.58z" fill="#fbbc05" fill-opacity=".377"/><path d="m658.44 157.995c0-17.441 14.14-31.58 31.582-31.58h212.492c17.441 0 31.58 14.139 31.58 31.58v126.32c0 17.44-14.139 31.58-31.58 31.58h-212.492c-17.442 0-31.582-14.14-31.582-31.58z" stroke="#666" stroke-linejoin="round"/><g fill-rule="nonzero"><path d="m680.05 155.343v4.172h-2.188v-11.375h3.891c.615 0 1.172.088 1.672.265s.927.427 1.281.75.625.709.813 1.157c.187.448.281.943.281 1.484 0 .51-.094.985-.281 1.422a3.329 3.329 0 0 1 -.813 1.125 3.845 3.845 0 0 1 -1.281.734c-.5.177-1.057.266-1.672.266zm0-1.781h1.703c.313 0 .584-.047.813-.14.229-.095.416-.22.562-.376.156-.167.27-.354.344-.562.083-.22.125-.443.125-.672 0-.26-.042-.505-.125-.735a1.546 1.546 0 0 0 -.344-.593 1.405 1.405 0 0 0 -.562-.407c-.23-.104-.5-.156-.813-.156h-1.703zm13.414-2.657c.333 0 .635.021.906.063.281.041.51.088.688.14l-.328 2.172a5.949 5.949 0 0 0 -.875-.156 8.349 8.349 0 0 0 -.86-.047c-.604 0-1.093.12-1.468.36a2.047 2.047 0 0 0 -.813 1v5.078h-2.172v-8.453h2.016l.11 1.375c.343-.48.755-.854 1.234-1.125s1-.407 1.562-.407zm3.242 4.297c0-.615.089-1.182.266-1.703.177-.52.432-.974.765-1.36.344-.385.76-.686 1.25-.905.5-.22 1.068-.329 1.704-.329.635 0 1.198.11 1.687.329.5.219.917.52 1.25.906.344.385.604.839.781 1.36.177.52.266 1.087.266 1.702v.172c0 .615-.089 1.188-.266 1.719-.177.52-.437.974-.78 1.36-.333.385-.75.687-1.25.906-.49.219-1.048.328-1.673.328-.635 0-1.203-.11-1.703-.328-.5-.22-.922-.522-1.266-.907a4.032 4.032 0 0 1 -.765-1.359 5.397 5.397 0 0 1 -.266-1.719zm2.172.172c0 .354.031.687.094 1 .073.302.183.573.328.813.146.229.334.411.563.547.229.135.51.203.843.203.313 0 .584-.068.813-.203.229-.136.416-.318.562-.547.146-.24.25-.511.313-.813a4.37 4.37 0 0 0 .11-1v-.172c0-.343-.037-.666-.11-.968a2.355 2.355 0 0 0 -.313-.813 1.609 1.609 0 0 0 -.562-.562 1.595 1.595 0 0 0 -.828-.204c-.323 0-.6.068-.829.204a1.62 1.62 0 0 0 -.562.562c-.146.23-.255.5-.328.813a4.76 4.76 0 0 0 -.094.968zm15.32-.015c0 .614-.073 1.187-.218 1.718-.147.521-.36.975-.64 1.36a2.884 2.884 0 0 1 -1.032.906c-.407.219-.875.328-1.406.328-.459 0-.86-.078-1.204-.234a2.649 2.649 0 0 1 -.89-.657v3.985h-2.172v-11.703h2l.078.828c.26-.313.567-.552.922-.719.354-.177.77-.266 1.25-.266.531 0 1 .104 1.406.313.417.198.766.49 1.047.875.281.375.495.828.64 1.36.147.52.22 1.103.22 1.75v.156zm-2.171-.157c0-.353-.037-.687-.11-1a2.412 2.412 0 0 0 -.297-.797 1.443 1.443 0 0 0 -.53-.53 1.457 1.457 0 0 0 -.782-.204c-.385 0-.698.073-.938.219s-.427.354-.562.625v3.531a1.6 1.6 0 0 0 .562.64c.24.157.558.235.953.235.303 0 .563-.068.782-.203s.395-.318.53-.547c.136-.24.235-.51.298-.812.063-.313.094-.647.094-1zm8.273 4.47a4.793 4.793 0 0 1 -1.766-.313 4.453 4.453 0 0 1 -1.375-.875 4.09 4.09 0 0 1 -.875-1.297 4.15 4.15 0 0 1 -.312-1.61v-.312c0-.646.099-1.235.297-1.766.208-.531.495-.99.86-1.375a3.734 3.734 0 0 1 1.296-.89c.5-.22 1.047-.329 1.64-.329.605 0 1.147.099 1.626.297s.88.48 1.203.844c.333.365.583.807.75 1.328.177.51.265 1.073.265 1.688v.922h-5.734c.042.291.125.557.25.796.135.23.302.433.5.61a2.264 2.264 0 0 0 1.516.531c.208 0 .416-.02.625-.062.219-.042.422-.1.609-.172.198-.083.38-.182.547-.297.167-.125.312-.271.437-.438l1.078 1.172c-.135.198-.312.39-.53.578a3.591 3.591 0 0 1 -.766.485c-.292.145-.62.26-.985.343-.354.094-.74.141-1.156.141zm-.25-7.017a1.656 1.656 0 0 0 -1.218.516 2.103 2.103 0 0 0 -.376.578 3.036 3.036 0 0 0 -.234.735h3.562v-.172a1.837 1.837 0 0 0 -.14-.64 1.4 1.4 0 0 0 -.328-.532 1.545 1.545 0 0 0 -.547-.344 1.745 1.745 0 0 0 -.719-.14zm11.82-1.75c.333 0 .636.021.907.063.28.041.51.088.687.14l-.328 2.172a5.949 5.949 0 0 0 -.875-.156 8.349 8.349 0 0 0 -.86-.047c-.604 0-1.093.12-1.468.36a2.047 2.047 0 0 0 -.813 1v5.078h-2.172v-8.453h2.016l.11 1.375c.343-.48.755-.854 1.234-1.125.48-.271 1-.407 1.562-.407zm7.524-1.921v2.078h3.156v1.593h-3.156v3.641c0 .302.031.557.093.766.073.208.172.375.297.5.135.115.297.198.485.25.187.052.396.078.625.078.167 0 .333-.005.5-.016a34.35 34.35 0 0 0 .953-.125c.135-.031.255-.063.36-.094l.202 1.5a3.235 3.235 0 0 1 -.53.235 5.203 5.203 0 0 1 -.642.156 7.308 7.308 0 0 1 -.718.094c-.25.031-.495.047-.735.047a4.07 4.07 0 0 1 -1.265-.188 2.522 2.522 0 0 1 -.969-.578 2.688 2.688 0 0 1 -.61-.984c-.145-.396-.218-.875-.218-1.438v-3.844h-1.938v-1.593h1.938v-2.078zm9.21 6.984.25.906 2.25-5.812h2.407l-4.297 9.718c-.093.22-.213.454-.36.704-.145.25-.333.479-.562.687-.219.219-.49.401-.812.547-.323.146-.703.219-1.14.219-.105 0-.204-.005-.298-.016l-.25-.031a2.197 2.197 0 0 1 -.25-.047 5.208 5.208 0 0 0 -.25-.063l.266-1.656h.328c.146.01.26.016.344.016a.725.725 0 0 0 .453-.156c.135-.105.25-.22.344-.344.093-.125.166-.24.218-.344.063-.104.104-.156.125-.156l.516-.985-3.578-8.093h2.375l1.922 4.906zm16.188-4.906h4.594v6.687h2.297v1.766h-6.89v-1.766h2.405v-4.922h-2.406zm2.25-2.172c0-.167.026-.318.078-.453.063-.146.146-.271.25-.375.115-.105.25-.183.407-.235.156-.062.328-.093.515-.093.385 0 .687.11.906.328.23.219.344.495.344.828 0 .343-.115.625-.344.844-.219.208-.52.312-.906.312a1.62 1.62 0 0 1 -.515-.078 1.553 1.553 0 0 1 -.407-.234 1.2 1.2 0 0 1 -.25-.375 1.396 1.396 0 0 1 -.078-.47zm8.742 2.172.125 1.172a3.17 3.17 0 0 1 1.094-.985 3.08 3.08 0 0 1 1.453-.344c.427 0 .817.063 1.172.188.354.125.656.323.906.594.26.27.464.625.61 1.062.145.427.218.948.218 1.563v5.203h-2.171v-5.172c0-.333-.042-.61-.125-.828a1.138 1.138 0 0 0 -.329-.516 1.04 1.04 0 0 0 -.5-.25 2.639 2.639 0 0 0 -.671-.078c-.365 0-.677.073-.938.219-.26.146-.473.35-.64.61v6.015h-2.172v-8.453zm9.727 8.453v-6.86h-2.219v-1.593h2.219v-.469c0-.552.089-1.042.266-1.469a2.95 2.95 0 0 1 .75-1.078c.333-.291.734-.51 1.203-.656a4.96 4.96 0 0 1 1.578-.235c.177 0 .348.01.515.032.177.01.344.026.5.047.167.02.328.046.485.078.167.02.338.047.515.078l-.14 1.703a7.283 7.283 0 0 0 -1.547-.156c-.677 0-1.172.146-1.484.437-.303.281-.454.688-.454 1.219v.469h3.047v1.593h-3.047v6.86zm7.21-4.313c0-.615.089-1.182.266-1.703.177-.52.433-.974.766-1.36.344-.385.76-.686 1.25-.905.5-.22 1.068-.329 1.703-.329s1.198.11 1.688.329c.5.219.917.52 1.25.906.343.385.604.839.781 1.36.177.52.266 1.087.266 1.702v.172c0 .615-.089 1.188-.266 1.719-.177.52-.438.974-.781 1.36-.333.385-.75.687-1.25.906-.49.219-1.047.328-1.672.328-.635 0-1.203-.11-1.703-.328-.5-.22-.922-.522-1.266-.907a4.045 4.045 0 0 1 -.766-1.359 5.416 5.416 0 0 1 -.265-1.719v-.172zm2.173.172c0 .354.031.687.093 1 .073.302.183.573.329.813.145.229.333.411.562.547.23.135.51.203.844.203.313 0 .583-.068.812-.203.23-.136.417-.318.563-.547.146-.24.25-.511.312-.813a4.37 4.37 0 0 0 .11-1v-.172c0-.343-.037-.666-.11-.968a2.34 2.34 0 0 0 -.312-.813 1.606 1.606 0 0 0 -.563-.562 1.592 1.592 0 0 0 -.828-.204c-.323 0-.599.068-.828.204-.23.135-.417.323-.562.562-.147.23-.256.5-.329.813a4.809 4.809 0 0 0 -.093.968zm13.789-4.469c.333 0 .635.021.906.063.281.041.51.088.688.14l-.329 2.172a5.918 5.918 0 0 0 -.875-.156 8.34 8.34 0 0 0 -.859-.047c-.604 0-1.094.12-1.469.36a2.041 2.041 0 0 0 -.812 1v5.078h-2.172v-8.453h2.016l.109 1.375a3.84 3.84 0 0 1 1.234-1.125 3.123 3.123 0 0 1 1.563-.407zm4.883.157.062 1.015c.167-.365.39-.651.672-.859.281-.209.625-.313 1.031-.313.687 0 1.135.297 1.344.891.167-.281.375-.5.625-.656.26-.157.573-.235.938-.235.26 0 .5.047.718.141.219.093.411.244.578.453.167.198.292.464.375.797.094.323.141.719.141 1.188v6.03h-1.969v-6.046c0-.156-.02-.286-.062-.39a.582.582 0 0 0 -.14-.25.384.384 0 0 0 -.188-.126.89.89 0 0 0 -.235-.03.642.642 0 0 0 -.375.108.666.666 0 0 0 -.25.282v6.453h-1.906v-6.047c0-.167-.016-.302-.047-.406a.475.475 0 0 0 -.14-.235.386.386 0 0 0 -.188-.125.886.886 0 0 0 -.234-.03.589.589 0 0 0 -.407.14 1.1 1.1 0 0 0 -.234.375v6.328h-1.969v-8.453zm13.539 8.453a2.307 2.307 0 0 1 -.14-.36 13.208 13.208 0 0 1 -.095-.437c-.115.135-.25.26-.406.375a3.192 3.192 0 0 1 -.531.312 2.754 2.754 0 0 1 -.625.188c-.23.052-.474.078-.735.078-.437 0-.838-.062-1.203-.187a2.966 2.966 0 0 1 -.922-.516c-.26-.23-.463-.5-.609-.813a2.365 2.365 0 0 1 -.219-1.015c0-.885.328-1.573.985-2.063.667-.49 1.661-.734 2.984-.734h1.203v-.5c0-.407-.135-.724-.406-.953-.26-.24-.64-.36-1.14-.36-.438 0-.761.094-.97.282-.197.187-.296.442-.296.765h-2.172c0-.365.078-.708.234-1.03.157-.323.386-.605.688-.845.312-.25.687-.443 1.125-.578.437-.146.942-.219 1.515-.219.51 0 .985.063 1.422.188a3.33 3.33 0 0 1 1.14.562c.323.24.573.547.75.922.188.365.282.792.282 1.282v3.625c0 .458.026.838.078 1.14.063.292.151.542.266.75v.14h-2.203zm-2.078-1.531a2.243 2.243 0 0 0 1.109-.282c.156-.083.286-.177.39-.28.115-.105.203-.214.266-.329v-1.453h-1.11c-.333 0-.62.037-.859.11-.24.062-.437.15-.593.265a1.065 1.065 0 0 0 -.328.422c-.073.167-.11.344-.11.531 0 .291.099.536.297.734.209.188.521.282.938.282zm10.382-9v2.078h3.157v1.593h-3.157v3.641c0 .302.031.557.094.766.073.208.172.375.297.5.135.115.297.198.484.25.188.052.396.078.625.078.167 0 .333-.005.5-.016a32.2 32.2 0 0 0 .953-.125c.136-.031.256-.063.36-.094l.203 1.5a3.274 3.274 0 0 1 -.531.235 5.169 5.169 0 0 1 -.64.156c-.23.042-.47.073-.72.094a5.9 5.9 0 0 1 -.734.047c-.459 0-.88-.063-1.266-.188a2.523 2.523 0 0 1 -.968-.578 2.67 2.67 0 0 1 -.61-.984c-.146-.396-.219-.875-.219-1.438v-3.844h-1.937v-1.593h1.938v-2.078zm6.196 2.078h4.593v6.687h2.297v1.766h-6.89v-1.766h2.406v-4.922h-2.406zm2.25-2.172c0-.167.026-.318.078-.453.063-.146.146-.271.25-.375.115-.105.25-.183.406-.235.156-.062.328-.093.516-.093.385 0 .687.11.906.328.23.219.344.495.344.828 0 .343-.115.625-.344.844-.219.208-.52.312-.906.312-.188 0-.36-.026-.516-.078a1.558 1.558 0 0 1 -.406-.234 1.2 1.2 0 0 1 -.25-.375 1.396 1.396 0 0 1 -.078-.47zm6.476 6.312c0-.615.089-1.182.266-1.703.177-.52.432-.974.765-1.36.344-.385.76-.686 1.25-.905.5-.22 1.068-.329 1.704-.329.635 0 1.198.11 1.687.329.5.219.917.52 1.25.906.344.385.604.839.781 1.36.177.52.266 1.087.266 1.702v.172c0 .615-.089 1.188-.266 1.719-.177.52-.437.974-.78 1.36-.333.385-.75.687-1.25.906-.49.219-1.048.328-1.673.328-.635 0-1.203-.11-1.703-.328-.5-.22-.922-.522-1.266-.907a4.032 4.032 0 0 1 -.765-1.359 5.397 5.397 0 0 1 -.266-1.719zm2.172.172c0 .354.031.687.094 1 .073.302.183.573.328.813.146.229.334.411.563.547.229.135.51.203.843.203.313 0 .584-.068.813-.203.229-.136.416-.318.562-.547.146-.24.25-.511.313-.813a4.37 4.37 0 0 0 .11-1v-.172c0-.343-.037-.666-.11-.968a2.355 2.355 0 0 0 -.313-.813 1.609 1.609 0 0 0 -.562-.562 1.595 1.595 0 0 0 -.828-.204c-.323 0-.6.068-.829.204a1.62 1.62 0 0 0 -.562.562c-.146.23-.255.5-.328.813a4.76 4.76 0 0 0 -.094.968zm9.695-4.312.125 1.172a3.18 3.18 0 0 1 1.094-.985 3.08 3.08 0 0 1 1.453-.344c.427 0 .817.063 1.172.188.354.125.656.323.906.594.26.27.464.625.61 1.062.146.427.219.948.219 1.563v5.203h-2.172v-5.172c0-.333-.042-.61-.125-.828a1.142 1.142 0 0 0 -.328-.516 1.046 1.046 0 0 0 -.5-.25 2.65 2.65 0 0 0 -.672-.078c-.365 0-.677.073-.938.219-.26.146-.473.35-.64.61v6.015h-2.172v-8.453z" fill="#000"/><path d="m685.456 198.484c-.01.406-.047.817-.11 1.234-.062.407-.16.802-.296 1.187a4.936 4.936 0 0 1 -.531 1.079 3.806 3.806 0 0 1 -.75.875c-.292.25-.625.448-1 .593-.375.147-.797.22-1.266.22s-.896-.073-1.281-.22a3.415 3.415 0 0 1 -1-.593 4.116 4.116 0 0 1 -.766-.875 5.414 5.414 0 0 1 -.515-1.079 7.565 7.565 0 0 1 -.313-1.187 10.07 10.07 0 0 1 -.11-1.234v-1.297c.01-.407.047-.818.11-1.235s.162-.818.297-1.203c.146-.385.323-.745.531-1.078.209-.333.459-.625.75-.875.292-.26.625-.458 1-.594a3.605 3.605 0 0 1 1.281-.218c.47 0 .891.073 1.266.218a3.15 3.15 0 0 1 1.016.578c.291.25.541.547.75.891.208.333.38.693.515 1.078.147.385.251.786.313 1.203.063.417.1.828.11 1.235v1.297zm-1.437-1.313c0-.27-.016-.552-.047-.844a4.829 4.829 0 0 0 -.172-.875 4.407 4.407 0 0 0 -.297-.828 2.576 2.576 0 0 0 -.469-.703 2.036 2.036 0 0 0 -.672-.469 1.937 1.937 0 0 0 -.875-.187 2.034 2.034 0 0 0 -1.546.672 2.679 2.679 0 0 0 -.47.687c-.125.26-.229.536-.312.828a6.497 6.497 0 0 0 -.156.875c-.031.292-.052.573-.062.844v1.313c.01.26.03.541.062.843.031.292.083.584.156.875.083.292.188.573.313.844.125.26.281.49.469.688.187.197.405.359.656.484.26.115.562.172.906.172.333 0 .63-.057.89-.172.26-.125.48-.287.657-.484.187-.198.344-.427.469-.688.125-.27.224-.547.297-.828.073-.292.125-.584.156-.875.031-.302.047-.589.047-.86zm5.789 6.344v-7.344h-2.328v-1.11h2.328v-.593c0-.542.078-1.016.234-1.422.167-.417.39-.76.672-1.031a2.73 2.73 0 0 1 1.047-.625c.407-.146.86-.219 1.36-.219.343 0 .677.031 1 .094.333.052.672.125 1.015.219l-.172 1.187a5.446 5.446 0 0 0 -.75-.187 4.924 4.924 0 0 0 -.906-.079c-.677 0-1.188.172-1.531.516-.344.333-.516.849-.516 1.547v.594h3.266v1.11h-3.266v7.343zm9.61 0v-7.344h-2.329v-1.11h2.328v-.593c0-.542.078-1.016.235-1.422.167-.417.39-.76.671-1.031a2.73 2.73 0 0 1 1.047-.625c.407-.146.86-.219 1.36-.219.343 0 .677.031 1 .094.333.052.672.125 1.015.219l-.172 1.187a5.446 5.446 0 0 0 -.75-.187 4.914 4.914 0 0 0 -.906-.079c-.677 0-1.187.172-1.531.516-.344.333-.516.849-.516 1.547v.594h3.266v1.11h-3.266v7.343h-1.453zm13.077-2.25a.935.935 0 0 0 -.11-.453.917.917 0 0 0 -.343-.39 2.402 2.402 0 0 0 -.64-.313 7.554 7.554 0 0 0 -.985-.266 9.688 9.688 0 0 1 -1.328-.344 4.784 4.784 0 0 1 -1.031-.515 2.272 2.272 0 0 1 -.656-.688 1.752 1.752 0 0 1 -.235-.922c0-.343.078-.661.235-.953.167-.302.396-.562.687-.781.292-.23.641-.406 1.047-.531.407-.136.85-.204 1.328-.204.52 0 .99.068 1.406.204.417.135.771.323 1.063.562.291.24.515.521.672.844.167.313.25.656.25 1.031h-1.453c0-.187-.047-.364-.141-.531a1.505 1.505 0 0 0 -.39-.469 1.997 1.997 0 0 0 -.61-.328 2.329 2.329 0 0 0 -.797-.125 2.77 2.77 0 0 0 -.812.11 1.74 1.74 0 0 0 -.579.265c-.145.115-.26.25-.343.406a1.065 1.065 0 0 0 -.016.906.96.96 0 0 0 .313.344c.156.104.364.198.625.281.26.083.588.167.984.25.52.105.984.23 1.39.375.417.147.766.319 1.047.516.281.198.495.432.641.703.146.26.219.567.219.922 0 .375-.083.719-.25 1.031a2.392 2.392 0 0 1 -.703.782 3.54 3.54 0 0 1 -1.094.515 5.173 5.173 0 0 1 -1.375.172 4.637 4.637 0 0 1 -1.531-.234 3.825 3.825 0 0 1 -1.14-.61 2.605 2.605 0 0 1 -.72-.875 2.442 2.442 0 0 1 -.234-1.047h1.437c.021.303.1.558.235.766.146.198.318.36.515.484.209.125.438.214.688.266s.5.078.75.078c.604 0 1.083-.11 1.437-.328.355-.23.537-.531.547-.906zm7.711 2.406c-.593 0-1.14-.099-1.64-.297a3.818 3.818 0 0 1 -1.266-.86 3.89 3.89 0 0 1 -.828-1.296 4.416 4.416 0 0 1 -.297-1.64v-.329c0-.677.11-1.286.328-1.828.219-.541.505-.995.86-1.36a3.822 3.822 0 0 1 1.234-.859 3.625 3.625 0 0 1 1.422-.297c.615 0 1.146.104 1.593.313.459.208.839.5 1.141.875s.526.817.672 1.328c.156.5.234 1.042.234 1.625v.656h-6.047c.021.385.095.75.22 1.094.135.333.317.625.546.875.24.25.521.448.844.594s.677.219 1.062.219c.521 0 .98-.104 1.375-.313a2.87 2.87 0 0 0 1-.828l.891.687c-.146.22-.323.428-.531.625-.209.188-.454.36-.735.516-.27.146-.583.266-.937.36-.344.093-.724.14-1.14.14zm-.187-7.578c-.292 0-.568.052-.828.156s-.495.26-.704.469a2.76 2.76 0 0 0 -.53.766 3.864 3.864 0 0 0 -.298 1.03h4.547v-.109a2.824 2.824 0 0 0 -.156-.828 2.357 2.357 0 0 0 -.406-.75 1.995 1.995 0 0 0 -.672-.53c-.26-.136-.578-.204-.953-.204zm9.476-3.078v2.047h3.22v1.11h-3.22v4.593c0 .333.042.61.125.828.083.208.198.375.344.5s.313.213.5.266c.198.052.401.078.61.078.156 0 .317-.005.484-.016.167-.02.328-.041.484-.062.167-.031.318-.063.453-.094l.344-.078.203 1.031a1.98 1.98 0 0 1 -.453.187c-.167.053-.354.1-.562.141a5.453 5.453 0 0 1 -.641.094 7.14 7.14 0 0 1 -.672.031c-.375 0-.724-.052-1.047-.156a2.34 2.34 0 0 1 -.844-.516 2.5 2.5 0 0 1 -.578-.89c-.135-.375-.203-.823-.203-1.344v-4.594h-2.219v-1.11h2.22v-2.046z" fill="#673ab7"/><path d="m738.19 202.577a1.194 1.194 0 0 1 .297-.797.883.883 0 0 1 .344-.234c.146-.063.313-.094.5-.094s.349.031.485.094c.145.052.265.13.359.234a.872.872 0 0 1 .219.36 1.208 1.208 0 0 1 0 .859.872.872 0 0 1 -.219.36.948.948 0 0 1 -.36.218 1.144 1.144 0 0 1 -.484.094c-.187 0-.354-.031-.5-.094a.98.98 0 0 1 -.344-.218 1.167 1.167 0 0 1 -.296-.782zm0-7a1.194 1.194 0 0 1 .297-.797.883.883 0 0 1 .344-.234c.146-.063.313-.094.5-.094s.349.031.485.094c.145.052.265.13.359.234a.872.872 0 0 1 .219.36 1.208 1.208 0 0 1 0 .859.872.872 0 0 1 -.219.36 1.13 1.13 0 0 1 -.36.234 1.35 1.35 0 0 1 -.484.078c-.187 0-.354-.026-.5-.078a1.195 1.195 0 0 1 -.344-.234 1.167 1.167 0 0 1 -.296-.782z" fill="#e67c73"/><path d="m762.019 199.155c0 .73-.083 1.375-.25 1.938a4.07 4.07 0 0 1 -.719 1.406 3 3 0 0 1 -1.156.875c-.448.198-.964.297-1.547.297a3.862 3.862 0 0 1 -1.547-.297 3.124 3.124 0 0 1 -1.172-.875 4.07 4.07 0 0 1 -.719-1.406c-.167-.563-.25-1.209-.25-1.938v-2.655c0-.73.083-1.37.25-1.922.167-.562.407-1.036.72-1.422a2.992 2.992 0 0 1 1.155-.875 3.705 3.705 0 0 1 1.547-.312c.583 0 1.104.104 1.563.312a3 3 0 0 1 1.156.875c.313.386.552.86.719 1.422.167.552.25 1.193.25 1.922v2.656zm-5.907-.28 4.422-3.407c-.083-.75-.302-1.323-.656-1.719s-.87-.594-1.547-.594c-.76 0-1.322.26-1.687.782-.355.51-.532 1.255-.532 2.234zm4.454-2.016-4.422 3.375c.093.74.322 1.302.687 1.687s.87.578 1.516.578c.77 0 1.333-.26 1.687-.781.355-.52.532-1.27.532-2.25v-2.61z" fill="#db4437"/><path d="m681.816 220.874h-2.266v4.64h-1.438v-11.374h3.329c.53.01 1.03.088 1.5.234.469.135.88.344 1.234.625s.63.636.828 1.063c.198.417.297.911.297 1.484 0 .375-.052.719-.156 1.031-.105.302-.25.578-.438.828-.187.25-.411.474-.672.672-.26.188-.546.35-.859.485l2.406 4.86v.093h-1.531l-2.234-4.64zm-2.266-1.187h1.937c.323-.01.626-.063.907-.157a2.027 2.027 0 0 0 1.265-1.078 2.17 2.17 0 0 0 .188-.922c0-.364-.063-.682-.188-.953-.115-.27-.281-.5-.5-.687a2.037 2.037 0 0 0 -.75-.422 3.161 3.161 0 0 0 -.968-.14h-1.891zm11.836 5.984c-.593 0-1.14-.099-1.64-.297a3.818 3.818 0 0 1 -1.266-.86 3.869 3.869 0 0 1 -.828-1.296 4.416 4.416 0 0 1 -.297-1.64v-.329c0-.677.11-1.286.328-1.828.219-.541.505-.995.86-1.36a3.822 3.822 0 0 1 1.234-.859 3.623 3.623 0 0 1 1.421-.297c.615 0 1.146.104 1.594.313.459.208.839.5 1.14.875.303.375.527.817.673 1.328.156.5.234 1.042.234 1.625v.656h-6.047c.02.385.094.75.219 1.094.135.333.318.625.547.875.24.25.521.448.844.594s.677.219 1.062.219c.52 0 .979-.104 1.375-.313a2.87 2.87 0 0 0 1-.828l.89.687c-.145.22-.322.428-.53.625-.209.188-.454.36-.735.516-.27.146-.583.266-.937.36-.344.093-.724.14-1.141.14zm-.188-7.578c-.291 0-.567.052-.828.156-.26.104-.494.26-.703.469a2.777 2.777 0 0 0 -.531.766 3.89 3.89 0 0 0 -.297 1.03h4.547v-.109a2.868 2.868 0 0 0 -.156-.828 2.372 2.372 0 0 0 -.407-.75 1.985 1.985 0 0 0 -.671-.53c-.26-.136-.579-.204-.954-.204zm13.196 3.281c0 .604-.073 1.172-.219 1.703-.146.521-.36.975-.64 1.36a3.027 3.027 0 0 1 -1.048.906c-.417.219-.89.328-1.421.328a3.48 3.48 0 0 1 -1.36-.25 2.81 2.81 0 0 1 -1.015-.719v4.063h-1.438v-11.703h1.313l.078.922c.281-.355.62-.62 1.015-.797.396-.188.86-.282 1.391-.282.541 0 1.02.11 1.437.329.417.208.766.505 1.047.89.281.375.495.829.641 1.36.146.52.219 1.098.219 1.734zm-1.453-.156c0-.417-.047-.807-.141-1.172a2.712 2.712 0 0 0 -.422-.984 2.057 2.057 0 0 0 -.719-.688c-.291-.167-.64-.25-1.047-.25-.458 0-.848.11-1.171.328a2.467 2.467 0 0 0 -.75.828v4.079c.187.333.437.604.75.812.312.209.708.313 1.187.313.407 0 .756-.083 1.047-.25a2.12 2.12 0 0 0 .719-.672c.187-.292.323-.625.406-1 .093-.375.14-.771.14-1.188v-.156zm9.46-4.313c.136 0 .277.005.422.016.147 0 .282.01.407.031.135.021.26.047.375.078.115.021.208.048.28.079l-.202 1.406a5.921 5.921 0 0 0 -.797-.125 6.416 6.416 0 0 0 -.797-.047c-.677 0-1.224.156-1.64.469-.417.302-.725.729-.922 1.281v5.422h-1.454v-8.453h1.375l.063 1.343a3.735 3.735 0 0 1 1.234-1.093 3.362 3.362 0 0 1 1.657-.407zm7.79 8.766a4.418 4.418 0 0 1 -1.641-.297 3.832 3.832 0 0 1 -1.266-.86 3.91 3.91 0 0 1 -.828-1.296 4.416 4.416 0 0 1 -.297-1.64v-.329c0-.677.11-1.286.328-1.828.22-.541.506-.995.86-1.36a3.836 3.836 0 0 1 1.234-.859 3.625 3.625 0 0 1 1.422-.297c.615 0 1.146.104 1.594.313.458.208.838.5 1.14.875.303.375.527.817.672 1.328.157.5.235 1.042.235 1.625v.656h-6.047c.02.385.094.75.219 1.094.135.333.317.625.546.875.24.25.521.448.844.594s.678.219 1.063.219c.52 0 .979-.104 1.375-.313a2.87 2.87 0 0 0 1-.828l.89.687c-.145.22-.322.428-.53.625-.209.188-.454.36-.735.516a4.311 4.311 0 0 1 -.938.36c-.343.093-.723.14-1.14.14zm-.188-7.578c-.291 0-.567.052-.828.156-.26.104-.494.26-.703.469a2.75 2.75 0 0 0 -.531.766 3.84 3.84 0 0 0 -.297 1.03h4.547v-.109a2.847 2.847 0 0 0 -.157-.828 2.357 2.357 0 0 0 -.406-.75 1.995 1.995 0 0 0 -.672-.53c-.26-.136-.578-.204-.953-.204zm11.68 5.172a.935.935 0 0 0 -.11-.453.917.917 0 0 0 -.343-.39 2.42 2.42 0 0 0 -.641-.313 7.505 7.505 0 0 0 -.984-.266 9.638 9.638 0 0 1 -1.328-.344 4.808 4.808 0 0 1 -1.032-.515 2.272 2.272 0 0 1 -.656-.688 1.758 1.758 0 0 1 -.234-.922c0-.343.078-.661.234-.953.167-.302.396-.562.688-.781.291-.23.64-.406 1.046-.531.407-.136.85-.204 1.329-.204.52 0 .989.068 1.406.204.417.135.77.323 1.062.562.292.24.516.521.672.844.167.313.25.656.25 1.031h-1.453a1.07 1.07 0 0 0 -.14-.531 1.518 1.518 0 0 0 -.391-.469 1.997 1.997 0 0 0 -.61-.328 2.32 2.32 0 0 0 -.796-.125c-.303 0-.574.037-.813.11-.23.062-.422.15-.578.265a1.28 1.28 0 0 0 -.344.406 1.056 1.056 0 0 0 -.015.906.95.95 0 0 0 .312.344c.156.104.364.198.625.281.26.083.588.167.984.25.521.105.985.23 1.391.375.417.147.766.319 1.047.516.281.198.495.432.64.703.147.26.22.567.22.922 0 .375-.083.719-.25 1.031a2.388 2.388 0 0 1 -.704.782 3.54 3.54 0 0 1 -1.094.515 5.173 5.173 0 0 1 -1.375.172 4.633 4.633 0 0 1 -1.53-.234 3.823 3.823 0 0 1 -1.141-.61 2.605 2.605 0 0 1 -.72-.875 2.442 2.442 0 0 1 -.234-1.047h1.438c.02.303.099.558.234.766.146.198.318.36.516.484.208.125.437.214.687.266s.5.078.75.078c.605 0 1.084-.11 1.438-.328.354-.23.536-.531.547-.906zm7.71 2.406c-.593 0-1.14-.099-1.64-.297a3.832 3.832 0 0 1 -1.266-.86 3.91 3.91 0 0 1 -.828-1.296 4.416 4.416 0 0 1 -.297-1.64v-.329c0-.677.11-1.286.329-1.828.219-.541.505-.995.859-1.36a3.836 3.836 0 0 1 1.234-.859 3.625 3.625 0 0 1 1.422-.297c.615 0 1.146.104 1.594.313.458.208.838.5 1.14.875.303.375.527.817.672 1.328.157.5.235 1.042.235 1.625v.656h-6.047c.02.385.094.75.219 1.094.135.333.318.625.547.875.24.25.52.448.843.594s.678.219 1.063.219c.52 0 .979-.104 1.375-.313a2.87 2.87 0 0 0 1-.828l.89.687c-.145.22-.322.428-.53.625-.209.188-.454.36-.735.516-.27.146-.583.266-.938.36-.343.093-.723.14-1.14.14zm-.187-7.578c-.291 0-.567.052-.828.156-.26.104-.494.26-.703.469a2.75 2.75 0 0 0 -.531.766 3.89 3.89 0 0 0 -.297 1.03h4.547v-.109a2.847 2.847 0 0 0 -.157-.828 2.357 2.357 0 0 0 -.406-.75 1.983 1.983 0 0 0 -.672-.53c-.26-.136-.578-.204-.953-.204zm7.352-1.031.11 1.25a3.31 3.31 0 0 1 1.124-1.032c.448-.25.948-.375 1.5-.375.448 0 .849.063 1.203.188.365.125.672.323.922.594.26.26.458.593.594 1 .146.407.219.891.219 1.453v5.375h-1.453v-5.344c0-.375-.042-.692-.125-.953a1.441 1.441 0 0 0 -.375-.625 1.333 1.333 0 0 0 -.594-.36 2.803 2.803 0 0 0 -.813-.109c-.49 0-.916.125-1.281.375-.365.24-.656.558-.875.953v6.063h-1.453v-8.453zm11.726-2.047v2.047h3.22v1.11h-3.22v4.593c0 .333.042.61.125.828.083.208.198.375.344.5s.313.213.5.266c.198.052.401.078.61.078.156 0 .317-.005.484-.016.167-.02.328-.041.484-.062.167-.031.318-.063.453-.094l.344-.078.203 1.031a1.98 1.98 0 0 1 -.453.187c-.167.053-.354.1-.562.141a5.453 5.453 0 0 1 -.641.094 7.14 7.14 0 0 1 -.672.031c-.375 0-.724-.052-1.047-.156a2.34 2.34 0 0 1 -.844-.516 2.5 2.5 0 0 1 -.578-.89c-.135-.375-.203-.823-.203-1.344v-4.594h-2.219v-1.11h2.22v-2.046zm11.743 10.5a1.431 1.431 0 0 1 -.141-.406 7.479 7.479 0 0 1 -.078-.516 4.818 4.818 0 0 1 -.485.422c-.177.125-.374.24-.593.344a3.711 3.711 0 0 1 -.703.218c-.24.063-.495.094-.766.094-.448 0-.854-.062-1.219-.187a2.95 2.95 0 0 1 -.922-.532 2.591 2.591 0 0 1 -.593-.797 2.368 2.368 0 0 1 -.204-.984c0-.469.094-.875.282-1.219.187-.353.447-.645.78-.875.345-.229.751-.4 1.22-.515a6.92 6.92 0 0 1 1.609-.172h1.578v-.672c0-.25-.047-.474-.14-.672a1.456 1.456 0 0 0 -.407-.531 1.619 1.619 0 0 0 -.625-.328 2.606 2.606 0 0 0 -.828-.125 2.56 2.56 0 0 0 -.781.11c-.219.072-.406.17-.563.296a1.329 1.329 0 0 0 -.375.422 1.139 1.139 0 0 0 -.125.515h-1.453c.01-.312.089-.614.235-.906a2.43 2.43 0 0 1 .672-.797c.291-.24.64-.432 1.046-.578.417-.146.89-.219 1.422-.219.48 0 .922.057 1.328.172.417.115.771.292 1.063.532.302.24.536.536.703.89.177.354.266.766.266 1.235v3.937c0 .281.026.578.078.89.052.313.125.59.219.829v.125zm-2.563-1.11c.281 0 .542-.036.781-.109.25-.073.474-.167.672-.281.209-.125.386-.26.531-.406a2.04 2.04 0 0 0 .344-.485v-1.719h-1.344c-.843 0-1.5.125-1.968.375-.469.25-.703.646-.703 1.188 0 .208.031.4.093.578.073.177.178.328.313.453.146.125.323.224.531.297.219.073.469.11.75.11zm10.023-9.39v2.047h3.22v1.11h-3.22v4.593c0 .333.042.61.125.828.083.208.198.375.344.5s.313.213.5.266c.198.052.401.078.61.078.156 0 .317-.005.484-.016.167-.02.328-.041.484-.062.167-.031.318-.063.453-.094l.344-.078.203 1.031a1.98 1.98 0 0 1 -.453.187c-.167.053-.354.1-.562.141a5.456 5.456 0 0 1 -.64.094c-.22.02-.444.031-.673.031-.375 0-.724-.052-1.047-.156a2.33 2.33 0 0 1 -.843-.516 2.492 2.492 0 0 1 -.579-.89c-.135-.375-.203-.823-.203-1.344v-4.594h-2.218v-1.11h2.218v-2.046zm6.415 2.047h4.312v7.203h2.766v1.25h-7.078v-1.25h2.875v-5.953h-2.875zm2.687-2.219c0-.24.068-.443.203-.61.146-.167.365-.25.656-.25.292 0 .511.083.657.25.145.167.218.37.218.61 0 .23-.073.422-.218.578-.147.156-.366.234-.657.234s-.51-.078-.656-.234a.85.85 0 0 1 -.203-.578zm6.273 6.36c0-.605.089-1.167.266-1.688a4.02 4.02 0 0 1 .766-1.375 3.564 3.564 0 0 1 1.203-.906 3.825 3.825 0 0 1 1.61-.329c.593 0 1.13.11 1.609.329s.88.52 1.203.906c.333.385.588.844.765 1.375a5.2 5.2 0 0 1 .266 1.687v.172c0 .615-.089 1.182-.266 1.703a4.03 4.03 0 0 1 -.765 1.36 3.379 3.379 0 0 1 -1.203.906c-.47.219-1 .328-1.594.328-.604 0-1.146-.11-1.625-.328a3.564 3.564 0 0 1 -1.203-.906 4.044 4.044 0 0 1 -.766-1.36 5.246 5.246 0 0 1 -.266-1.703v-.172zm1.454.171c0 .417.047.818.14 1.203.104.375.255.709.453 1 .198.281.448.505.75.672s.656.25 1.063.25c.396 0 .74-.083 1.031-.25.302-.167.552-.39.75-.672a2.9 2.9 0 0 0 .453-1c.104-.385.156-.786.156-1.203v-.172c0-.406-.052-.797-.156-1.172a3.145 3.145 0 0 0 -.453-1 2.157 2.157 0 0 0 -.75-.687 2.132 2.132 0 0 0 -1.047-.25c-.407 0-.76.083-1.062.25a2.202 2.202 0 0 0 -.735.687 3.145 3.145 0 0 0 -.453 1 4.84 4.84 0 0 0 -.14 1.172zm9.851-4.312.11 1.25a3.319 3.319 0 0 1 1.125-1.032c.447-.25.947-.375 1.5-.375.447 0 .848.063 1.203.188.365.125.672.323.922.594.26.26.458.593.593 1 .146.407.219.891.219 1.453v5.375h-1.453v-5.344c0-.375-.042-.692-.125-.953a1.441 1.441 0 0 0 -.375-.625 1.326 1.326 0 0 0 -.594-.36 2.8 2.8 0 0 0 -.812-.109c-.49 0-.917.125-1.282.375-.364.24-.656.558-.875.953v6.063h-1.453v-8.453z" fill="#673ab7"/><path d="m814.987 224.577a1.194 1.194 0 0 1 .297-.797.883.883 0 0 1 .344-.234c.146-.063.313-.094.5-.094s.349.031.484.094c.147.052.267.13.36.234a.872.872 0 0 1 .219.36 1.208 1.208 0 0 1 0 .859.867.867 0 0 1 -.22.36.948.948 0 0 1 -.359.218 1.144 1.144 0 0 1 -.484.094c-.187 0-.354-.031-.5-.094a.98.98 0 0 1 -.344-.218 1.162 1.162 0 0 1 -.218-.36 1.154 1.154 0 0 1 -.079-.422zm0-7a1.194 1.194 0 0 1 .297-.797.883.883 0 0 1 .344-.234c.146-.063.313-.094.5-.094s.349.031.484.094c.147.052.267.13.36.234a.872.872 0 0 1 .219.36 1.208 1.208 0 0 1 0 .859.867.867 0 0 1 -.22.36 1.132 1.132 0 0 1 -.359.234 1.35 1.35 0 0 1 -.484.078c-.187 0-.354-.026-.5-.078a1.195 1.195 0 0 1 -.344-.234 1.162 1.162 0 0 1 -.218-.36 1.154 1.154 0 0 1 -.079-.422z" fill="#e67c73"/><path d="m837.628 222.64c0-.354-.078-.65-.234-.89a1.962 1.962 0 0 0 -.61-.595 3.595 3.595 0 0 0 -.828-.406 29.048 29.048 0 0 0 -.86-.312 12.945 12.945 0 0 1 -1.234-.453 6.132 6.132 0 0 1 -1.125-.672 3.515 3.515 0 0 1 -.843-.953c-.209-.365-.313-.792-.313-1.282s.104-.927.313-1.312c.219-.385.5-.708.843-.969.355-.27.75-.474 1.188-.61a4.648 4.648 0 0 1 1.344-.202c.5 0 .979.083 1.437.25.459.156.865.385 1.219.687.354.292.635.651.844 1.078.219.417.333.885.343 1.406h-1.484a3.017 3.017 0 0 0 -.25-.89c-.115-.27-.271-.5-.469-.688a1.966 1.966 0 0 0 -.718-.453 2.561 2.561 0 0 0 -.922-.156 2.75 2.75 0 0 0 -.813.125c-.26.073-.494.188-.703.344-.198.156-.36.349-.484.578-.125.23-.188.495-.188.797.01.323.094.599.25.828.167.23.37.422.61.578.25.156.52.286.812.39.292.105.563.193.813.266.28.093.562.198.843.313.292.104.568.229.828.375.271.145.521.312.75.5a2.8 2.8 0 0 1 .594.625c.177.229.313.484.406.765.105.271.157.579.157.922 0 .51-.115.959-.344 1.344-.23.375-.526.687-.89.937-.355.25-.761.443-1.22.579a4.91 4.91 0 0 1 -2.843-.047 4.399 4.399 0 0 1 -1.297-.672 3.804 3.804 0 0 1 -.922-1.078 3.156 3.156 0 0 1 -.39-1.453h1.484c.041.353.135.666.281.937.146.27.334.505.563.703.229.187.494.328.796.422.303.093.631.14.985.14.281 0 .557-.031.828-.093.27-.073.51-.183.719-.328.219-.157.396-.344.531-.563.135-.229.203-.5.203-.812zm4.32-5.578.032.797c.177-.303.4-.537.672-.704.28-.167.619-.25 1.015-.25.781 0 1.302.302 1.563.907.167-.271.385-.49.656-.657.27-.167.604-.25 1-.25.615 0 1.089.193 1.422.579.333.375.5.947.5 1.718v6.313h-1.375v-6.328c0-.709-.323-1.063-.969-1.063-.177 0-.328.026-.453.078a.789.789 0 0 0 -.313.188 1.075 1.075 0 0 0 -.203.281 1.179 1.179 0 0 0 -.078.328v6.516h-1.375v-6.344c0-.333-.078-.589-.234-.766-.146-.187-.386-.28-.719-.28-.302 0-.536.062-.703.187a.958.958 0 0 0 -.36.468v6.735h-1.374v-8.453zm9.164 0h4.313v7.203h2.766v1.25h-7.079v-1.25h2.875v-5.953h-2.875zm2.688-2.219c0-.24.068-.443.203-.61.146-.167.365-.25.656-.25.292 0 .511.083.657.25.145.167.218.37.218.61 0 .23-.073.422-.218.578-.147.156-.366.234-.657.234s-.51-.078-.656-.234a.85.85 0 0 1 -.203-.578z" fill="#db4437"/><path d="m683.112 235.702h-1.718v13.063h1.718v1.187h-3.093v-15.437h3.093zm9.602 0h-1.719v13.063h1.72v1.187h-3.095v-15.437h3.094z" fill="#e67c73"/><path d="m702.894 244.437.875-8.297h1.36l-1.376 11.375h-1.484l-1.453-8.578-1.485 8.578h-1.484l-1.375-11.375h1.375l.86 8.297 1.468-8.297h1.25zm9.508-5.532c.135 0 .276.005.421.016.147 0 .282.01.407.031.135.021.26.047.375.078.115.021.208.048.28.079l-.202 1.406a5.921 5.921 0 0 0 -.797-.125 6.416 6.416 0 0 0 -.797-.047c-.677 0-1.224.156-1.64.469-.417.302-.725.729-.922 1.281v5.422h-1.454v-8.453h1.375l.063 1.343a3.735 3.735 0 0 1 1.234-1.093 3.362 3.362 0 0 1 1.657-.407zm4.289.157h4.312v7.203h2.766v1.25h-7.078v-1.25h2.875v-5.953h-2.875zm2.687-2.219c0-.24.068-.443.203-.61.146-.167.365-.25.656-.25.292 0 .511.083.657.25.145.167.218.37.218.61 0 .23-.073.422-.218.578-.146.156-.365.234-.657.234-.291 0-.51-.078-.656-.234a.85.85 0 0 1 -.203-.578zm10.102.172v2.047h3.218v1.11h-3.218v4.593c0 .333.042.61.125.828.083.208.198.375.343.5.147.125.313.213.5.266.198.052.401.078.61.078.156 0 .317-.005.484-.016l.485-.062c.167-.031.318-.063.453-.094l.343-.078.204 1.031a2.002 2.002 0 0 1 -.454.187c-.167.053-.354.1-.562.141a5.456 5.456 0 0 1 -.64.094c-.22.02-.444.031-.673.031-.375 0-.723-.052-1.046-.156a2.33 2.33 0 0 1 -.844-.516 2.482 2.482 0 0 1 -.578-.89c-.135-.375-.203-.823-.203-1.344v-4.594h-2.22v-1.11h2.22v-2.046zm11.742 10.5a1.41 1.41 0 0 1 -.14-.406 7.088 7.088 0 0 1 -.079-.516 4.879 4.879 0 0 1 -.484.422c-.177.125-.375.24-.594.344a3.711 3.711 0 0 1 -.703.218c-.24.063-.495.094-.766.094-.448 0-.854-.062-1.219-.187a2.952 2.952 0 0 1 -.921-.532 2.605 2.605 0 0 1 -.594-.797 2.378 2.378 0 0 1 -.203-.984c0-.469.094-.875.281-1.219.187-.353.448-.645.781-.875.344-.229.75-.4 1.219-.515a6.933 6.933 0 0 1 1.61-.172h1.577v-.672c0-.25-.047-.474-.14-.672a1.446 1.446 0 0 0 -.406-.531 1.619 1.619 0 0 0 -.625-.328 2.61 2.61 0 0 0 -.829-.125c-.291 0-.551.037-.78.11a1.77 1.77 0 0 0 -.563.296 1.313 1.313 0 0 0 -.375.422 1.139 1.139 0 0 0 -.125.515h-1.453a2.16 2.16 0 0 1 .234-.906 2.43 2.43 0 0 1 .672-.797 3.49 3.49 0 0 1 1.047-.578c.417-.146.89-.219 1.422-.219.479 0 .921.057 1.328.172.417.115.77.292 1.062.532.302.24.536.536.703.89.177.354.266.766.266 1.235v3.937c0 .281.026.578.078.89.052.313.125.59.219.829v.125zm-2.563-1.11c.281 0 .542-.036.782-.109.25-.073.474-.167.671-.281.209-.125.386-.26.532-.406.145-.157.26-.318.343-.485v-1.719h-1.343c-.844 0-1.5.125-1.969.375s-.703.646-.703 1.188c0 .208.031.4.094.578.073.177.177.328.312.453.146.125.323.224.531.297.219.073.469.11.75.11zm13.774-3.03a6.4 6.4 0 0 1 -.219 1.702c-.146.521-.36.975-.64 1.36-.281.385-.63.687-1.047.906s-.89.328-1.422.328c-.542 0-1.016-.094-1.422-.281a2.924 2.924 0 0 1 -1.016-.844l-.062.969h-1.328v-12h1.437v4.453a2.776 2.776 0 0 1 1-.781c.396-.188.854-.282 1.375-.282.542 0 1.021.11 1.438.329.417.208.765.505 1.046.89.281.375.495.829.641 1.36.146.52.219 1.098.219 1.734zm-1.453-.157c0-.417-.042-.807-.125-1.172a2.868 2.868 0 0 0 -.375-.984 1.937 1.937 0 0 0 -.703-.688c-.281-.167-.63-.25-1.047-.25-.25 0-.48.037-.688.11a1.877 1.877 0 0 0 -1 .687 2.902 2.902 0 0 0 -.328.516v3.687c.093.187.203.364.328.531.135.157.286.297.453.422.167.115.354.203.563.266.208.063.437.094.687.094.396 0 .735-.078 1.016-.235.281-.167.51-.39.687-.672a2.87 2.87 0 0 0 .407-.968c.083-.375.125-.771.125-1.188zm4.117-7.703h4.312v10.75h2.766v1.25h-7.078v-1.25h2.875v-9.5h-2.875zm13.101 12.156c-.593 0-1.14-.099-1.64-.297a3.818 3.818 0 0 1 -1.266-.86 3.89 3.89 0 0 1 -.828-1.296 4.416 4.416 0 0 1 -.297-1.64v-.329c0-.677.11-1.286.328-1.828.219-.541.505-.995.86-1.36a3.836 3.836 0 0 1 1.234-.859 3.625 3.625 0 0 1 1.422-.297c.615 0 1.146.104 1.594.313.458.208.838.5 1.14.875s.526.817.672 1.328c.157.5.235 1.042.235 1.625v.656h-6.047c.02.385.093.75.218 1.094.136.333.318.625.547.875.24.25.521.448.844.594s.677.219 1.063.219c.52 0 .978-.104 1.375-.313.406-.208.74-.484 1-.828l.89.687c-.146.22-.323.428-.531.625-.209.188-.453.36-.734.516a4.311 4.311 0 0 1 -.938.36c-.344.093-.724.14-1.14.14zm-.187-7.578c-.292 0-.568.052-.828.156s-.494.26-.703.469a2.766 2.766 0 0 0 -.532.766 3.866 3.866 0 0 0 -.296 1.03h4.546v-.109a2.824 2.824 0 0 0 -.156-.828 2.357 2.357 0 0 0 -.406-.75 1.995 1.995 0 0 0 -.672-.53c-.26-.136-.578-.204-.953-.204z" fill="#673ab7"/><path d="m775.878 234.515h3.094v15.437h-3.094v-1.187h1.734v-13.063h-1.734zm9.602 0h3.093v15.437h-3.093v-1.187h1.734v-13.063h-1.734zm10.304 12.062a1.167 1.167 0 0 1 .298-.797.875.875 0 0 1 .343-.234c.146-.063.313-.094.5-.094s.349.031.484.094c.147.052.267.13.36.234a.863.863 0 0 1 .218.36 1.194 1.194 0 0 1 0 .859.863.863 0 0 1 -.218.36.948.948 0 0 1 -.36.218 1.144 1.144 0 0 1 -.484.094c-.187 0-.354-.031-.5-.094a.98.98 0 0 1 -.344-.218 1.177 1.177 0 0 1 -.297-.782zm0-7a1.167 1.167 0 0 1 .298-.797.875.875 0 0 1 .343-.234c.146-.063.313-.094.5-.094s.349.031.484.094c.147.052.267.13.36.234a.863.863 0 0 1 .218.36 1.194 1.194 0 0 1 0 .859.863.863 0 0 1 -.218.36 1.13 1.13 0 0 1 -.36.234 1.35 1.35 0 0 1 -.484.078c-.187 0-.354-.026-.5-.078a1.195 1.195 0 0 1 -.344-.234 1.177 1.177 0 0 1 -.297-.782z" fill="#e67c73"/><path d="m815.894 237.015v2.047h3.218v1.11h-3.218v4.593c0 .333.042.61.125.828.083.208.198.375.343.5.147.125.313.213.5.266.198.052.401.078.61.078.156 0 .317-.005.484-.016l.485-.062c.167-.031.318-.063.453-.094l.343-.078.204 1.031a2.002 2.002 0 0 1 -.454.187c-.167.053-.354.1-.562.141a5.456 5.456 0 0 1 -.64.094c-.22.02-.444.031-.673.031-.375 0-.723-.052-1.046-.156a2.33 2.33 0 0 1 -.844-.516 2.482 2.482 0 0 1 -.578-.89c-.135-.375-.203-.823-.203-1.344v-4.594h-2.22v-1.11h2.22v-2.046zm11.726 1.89c.135 0 .276.005.422.016.146 0 .281.01.406.031.136.021.261.047.375.078.115.021.209.048.282.079l-.203 1.406a5.921 5.921 0 0 0 -.797-.125 6.416 6.416 0 0 0 -.797-.047c-.677 0-1.224.156-1.64.469-.417.302-.725.729-.923 1.281v5.422h-1.453v-8.453h1.375l.063 1.343a3.722 3.722 0 0 1 1.234-1.093 3.357 3.357 0 0 1 1.656-.407zm9.54 7.438a3.105 3.105 0 0 1 -1.063.984c-.417.23-.901.344-1.453.344-.438 0-.839-.068-1.203-.203a2.495 2.495 0 0 1 -.922-.656c-.25-.292-.448-.662-.594-1.11-.135-.448-.203-.99-.203-1.625v-5.015h1.453v5.031c0 .458.037.838.11 1.14.073.303.182.548.327.735.147.177.324.302.532.375s.453.11.734.11c.583 0 1.057-.12 1.422-.36s.635-.563.812-.969v-6.062h1.454v8.453h-1.313l-.094-1.172zm7.85 1.328c-.593 0-1.14-.099-1.64-.297a3.82 3.82 0 0 1 -1.265-.86 3.869 3.869 0 0 1 -.828-1.296 4.416 4.416 0 0 1 -.297-1.64v-.329c0-.677.11-1.286.328-1.828.219-.541.505-.995.86-1.36a3.822 3.822 0 0 1 1.234-.859 3.623 3.623 0 0 1 1.421-.297c.615 0 1.146.104 1.594.313.459.208.839.5 1.14.875.303.375.527.817.673 1.328.156.5.234 1.042.234 1.625v.656h-6.047c.02.385.094.75.219 1.094.135.333.318.625.547.875.24.25.521.448.844.594s.677.219 1.062.219c.52 0 .979-.104 1.375-.313a2.87 2.87 0 0 0 1-.828l.89.687c-.145.22-.322.428-.53.625-.209.188-.454.36-.735.516-.27.146-.583.266-.937.36-.344.093-.724.14-1.141.14zm-.187-7.578c-.291 0-.567.052-.828.156-.26.104-.494.26-.703.469a2.777 2.777 0 0 0 -.531.766 3.89 3.89 0 0 0 -.297 1.03h4.547v-.109a2.868 2.868 0 0 0 -.156-.828 2.346 2.346 0 0 0 -.407-.75 1.985 1.985 0 0 0 -.671-.53c-.26-.136-.579-.204-.954-.204z" fill="#4285f4"/><path d="m683.112 257.702h-1.718v13.063h1.718v1.187h-3.093v-15.437h3.093zm9.602 0h-1.719v13.063h1.72v1.187h-3.095v-15.437h3.094z" fill="#e67c73"/><path d="m703.519 264.25h-4.75v4.03h5.531v1.235h-6.984v-11.375h6.921v1.234h-5.468v3.656h4.75zm4.633-3.188.109 1.25a3.319 3.319 0 0 1 1.125-1.032c.448-.25.948-.375 1.5-.375.448 0 .849.063 1.203.188.365.125.672.323.922.594.26.26.458.593.594 1 .145.407.218.891.218 1.453v5.375h-1.453v-5.344c0-.375-.042-.692-.125-.953a1.441 1.441 0 0 0 -.375-.625 1.326 1.326 0 0 0 -.593-.36 2.803 2.803 0 0 0 -.813-.109c-.49 0-.916.125-1.281.375-.365.24-.656.558-.875.953v6.063h-1.453v-8.453zm13.789 7.28a3.09 3.09 0 0 1 -1.063.985c-.417.23-.901.344-1.453.344-.437 0-.838-.068-1.203-.203a2.506 2.506 0 0 1 -.922-.656c-.25-.292-.448-.662-.594-1.11-.135-.448-.203-.99-.203-1.625v-5.015h1.453v5.03c0 .459.037.84.11 1.142s.182.547.328.734c.145.177.322.302.531.375.208.073.453.11.734.11.583 0 1.057-.12 1.422-.36s.636-.563.813-.969v-6.062h1.453v8.453h-1.313l-.093-1.172zm4.789-7.28.03.797c.178-.303.402-.537.673-.704.281-.167.62-.25 1.015-.25.781 0 1.302.302 1.563.907.167-.271.385-.49.656-.657.27-.167.604-.25 1-.25.615 0 1.089.193 1.422.579.333.375.5.947.5 1.718v6.313h-1.375v-6.328c0-.709-.323-1.063-.969-1.063a1.18 1.18 0 0 0 -.453.078.79.79 0 0 0 -.312.188 1.075 1.075 0 0 0 -.203.281 1.157 1.157 0 0 0 -.079.328v6.516h-1.375v-6.344c0-.333-.078-.589-.234-.766-.146-.187-.386-.28-.719-.28-.302 0-.536.062-.703.187a.958.958 0 0 0 -.36.468v6.735h-1.374v-8.453zm12.664 8.61c-.593 0-1.14-.1-1.64-.298a3.83 3.83 0 0 1 -1.267-.86 3.91 3.91 0 0 1 -.828-1.296 4.416 4.416 0 0 1 -.297-1.64v-.329c0-.677.11-1.286.329-1.828.219-.541.505-.995.859-1.36a3.836 3.836 0 0 1 1.234-.859 3.625 3.625 0 0 1 1.422-.297c.615 0 1.146.104 1.594.313.458.208.838.5 1.14.875.303.375.527.817.672 1.328.157.5.235 1.042.235 1.625v.656h-6.047c.02.385.094.75.219 1.094.135.333.318.625.547.875.24.25.52.448.843.594s.678.219 1.063.219c.52 0 .979-.104 1.375-.313a2.87 2.87 0 0 0 1-.828l.89.687c-.145.22-.322.428-.53.625-.209.188-.454.36-.735.516-.27.146-.583.266-.938.36-.343.093-.723.14-1.14.14zm-.188-7.58c-.291 0-.567.052-.828.157-.26.104-.494.26-.703.469a2.75 2.75 0 0 0 -.531.766 3.89 3.89 0 0 0 -.297 1.03h4.547v-.109a2.847 2.847 0 0 0 -.157-.828 2.357 2.357 0 0 0 -.406-.75 1.983 1.983 0 0 0 -.672-.53c-.26-.136-.578-.204-.953-.204zm11.602-1.187c.135 0 .276.005.422.016.145 0 .28.01.406.031.135.021.26.047.375.078.115.021.208.048.281.079l-.203 1.406a5.921 5.921 0 0 0 -.797-.125 6.416 6.416 0 0 0 -.797-.047c-.677 0-1.223.156-1.64.469-.417.302-.724.729-.922 1.28v5.423h-1.453v-8.453h1.375l.062 1.343a3.731 3.731 0 0 1 1.235-1.093 3.357 3.357 0 0 1 1.656-.407zm9.617 8.61a1.41 1.41 0 0 1 -.14-.406 7.088 7.088 0 0 1 -.079-.516 4.879 4.879 0 0 1 -.484.422c-.177.125-.375.24-.594.344a3.711 3.711 0 0 1 -.703.218c-.24.063-.495.094-.766.094-.448 0-.854-.062-1.218-.187a2.95 2.95 0 0 1 -.922-.532 2.605 2.605 0 0 1 -.594-.797 2.378 2.378 0 0 1 -.203-.984c0-.469.094-.875.281-1.219.187-.353.448-.645.781-.875.344-.229.75-.4 1.22-.515a6.915 6.915 0 0 1 1.608-.172h1.579v-.672c0-.25-.047-.474-.141-.672a1.446 1.446 0 0 0 -.406-.531 1.619 1.619 0 0 0 -.625-.328 2.606 2.606 0 0 0 -.828-.125c-.292 0-.553.037-.782.11-.219.072-.406.17-.562.296a1.313 1.313 0 0 0 -.375.422 1.139 1.139 0 0 0 -.125.515h-1.453a2.16 2.16 0 0 1 .234-.906 2.43 2.43 0 0 1 .672-.797c.291-.24.64-.433 1.047-.578.417-.146.89-.219 1.422-.219.479 0 .921.057 1.328.172.417.115.77.292 1.062.532.302.24.536.536.703.89.177.354.266.766.266 1.235v3.937c0 .281.026.578.078.89.052.313.125.59.219.829v.125zm-2.563-1.11c.281 0 .542-.036.782-.109.25-.073.474-.167.672-.281.208-.125.385-.26.53-.406.147-.157.262-.318.345-.485v-1.719h-1.344c-.844 0-1.5.125-1.969.375s-.703.646-.703 1.188c0 .208.031.4.094.578.073.177.177.328.312.453.146.125.323.224.531.297.22.073.47.11.75.11zm13.774-3.03a6.4 6.4 0 0 1 -.219 1.702c-.146.521-.36.975-.64 1.36-.281.385-.63.687-1.047.906s-.89.328-1.422.328c-.542 0-1.016-.094-1.422-.281a2.924 2.924 0 0 1 -1.016-.844l-.062.969h-1.328v-12h1.437v4.453a2.776 2.776 0 0 1 1-.781c.396-.188.854-.282 1.375-.282.542 0 1.021.11 1.438.329.417.208.766.505 1.047.89.28.375.494.829.64 1.36.146.52.219 1.098.219 1.734zm-1.453-.157c0-.417-.042-.807-.125-1.172a2.868 2.868 0 0 0 -.375-.984 1.937 1.937 0 0 0 -.703-.688c-.281-.167-.63-.25-1.047-.25-.25 0-.48.037-.688.11a1.877 1.877 0 0 0 -1 .687 2.902 2.902 0 0 0 -.328.516v3.687c.093.187.203.364.328.531.135.157.286.297.453.422.167.115.354.203.563.266.208.063.437.094.687.094.396 0 .735-.078 1.016-.235.281-.167.51-.39.688-.672a2.91 2.91 0 0 0 .406-.968c.083-.375.125-.771.125-1.188zm4.117-7.703h4.312v10.75h2.766v1.25h-7.078v-1.25h2.875v-9.5h-2.875zm13.102 12.156a4.418 4.418 0 0 1 -1.641-.297 3.832 3.832 0 0 1 -1.266-.86 3.91 3.91 0 0 1 -.828-1.296 4.416 4.416 0 0 1 -.297-1.64v-.329c0-.677.11-1.286.328-1.828.22-.541.506-.995.86-1.36a3.836 3.836 0 0 1 1.234-.859 3.625 3.625 0 0 1 1.422-.297c.615 0 1.146.104 1.594.313.458.208.838.5 1.14.875.303.375.527.817.672 1.328.157.5.235 1.042.235 1.625v.656h-6.047c.02.385.094.75.219 1.094.135.333.317.625.546.875.24.25.521.448.844.594s.678.219 1.063.219c.52 0 .978-.104 1.375-.313a2.87 2.87 0 0 0 1-.828l.89.687c-.145.22-.322.428-.53.625-.209.188-.454.36-.735.516a4.311 4.311 0 0 1 -.938.36c-.343.093-.723.14-1.14.14zm-.188-7.578c-.291 0-.567.052-.828.156-.26.104-.494.26-.703.469a2.75 2.75 0 0 0 -.531.766 3.84 3.84 0 0 0 -.297 1.03h4.547v-.109a2.847 2.847 0 0 0 -.157-.828 2.357 2.357 0 0 0 -.406-.75 1.995 1.995 0 0 0 -.672-.53c-.26-.136-.578-.204-.953-.204z" fill="#673ab7"/><path d="m795.081 256.515h3.094v15.437h-3.094v-1.187h1.735v-13.063h-1.735zm9.602 0h3.094v15.437h-3.094v-1.187h1.734v-13.063h-1.734zm10.304 12.062a1.194 1.194 0 0 1 .297-.797.883.883 0 0 1 .344-.234c.146-.063.313-.094.5-.094s.349.031.484.094c.147.052.267.13.36.234a.872.872 0 0 1 .219.36 1.208 1.208 0 0 1 0 .859.867.867 0 0 1 -.22.36.948.948 0 0 1 -.359.218 1.144 1.144 0 0 1 -.484.094c-.187 0-.354-.031-.5-.094a.98.98 0 0 1 -.344-.218 1.162 1.162 0 0 1 -.218-.36 1.154 1.154 0 0 1 -.079-.422zm0-7a1.194 1.194 0 0 1 .297-.797.883.883 0 0 1 .344-.234c.146-.063.313-.094.5-.094s.349.031.484.094c.147.052.267.13.36.234a.872.872 0 0 1 .219.36 1.208 1.208 0 0 1 0 .859.867.867 0 0 1 -.22.36 1.132 1.132 0 0 1 -.359.234 1.35 1.35 0 0 1 -.484.078c-.187 0-.354-.026-.5-.078a1.195 1.195 0 0 1 -.344-.234 1.162 1.162 0 0 1 -.218-.36 1.154 1.154 0 0 1 -.079-.422z" fill="#e67c73"/><path d="m835.097 259.015v2.047h3.219v1.11h-3.22v4.593c0 .333.042.61.126.828.083.208.198.375.344.5.145.125.312.213.5.266.197.052.4.078.609.078.156 0 .317-.005.484-.016l.485-.062c.167-.031.318-.063.453-.094l.344-.078.203 1.031a2.006 2.006 0 0 1 -.453.187c-.167.053-.354.1-.563.141a5.456 5.456 0 0 1 -.64.094c-.22.02-.443.031-.672.031-.375 0-.724-.052-1.047-.156a2.33 2.33 0 0 1 -.844-.516 2.482 2.482 0 0 1 -.578-.89c-.135-.375-.203-.823-.203-1.344v-4.594h-2.219v-1.11h2.219v-2.046zm11.726 1.89c.136 0 .277.005.422.016.146 0 .282.01.407.031.135.021.26.047.375.078.114.021.207.048.28.079l-.202 1.406a5.921 5.921 0 0 0 -.797-.125 6.416 6.416 0 0 0 -.797-.047c-.677 0-1.224.156-1.64.469-.417.302-.725.729-.923 1.281v5.422h-1.453v-8.453h1.375l.063 1.343a3.722 3.722 0 0 1 1.234-1.093 3.36 3.36 0 0 1 1.656-.407zm9.54 7.438a3.093 3.093 0 0 1 -1.063.984c-.417.23-.901.344-1.453.344-.437 0-.838-.068-1.203-.203a2.495 2.495 0 0 1 -.922-.656c-.25-.292-.448-.662-.594-1.11-.135-.448-.203-.99-.203-1.625v-5.015h1.453v5.031c0 .458.037.838.11 1.14.073.303.182.548.328.735.145.177.322.302.53.375.209.073.454.11.735.11.583 0 1.057-.12 1.422-.36s.636-.563.813-.969v-6.062h1.453v8.453h-1.313l-.094-1.172zm7.851 1.328c-.593 0-1.14-.099-1.64-.297a3.818 3.818 0 0 1 -1.266-.86 3.89 3.89 0 0 1 -.828-1.296 4.416 4.416 0 0 1 -.297-1.64v-.329c0-.677.11-1.286.328-1.828.219-.541.505-.995.86-1.36a3.822 3.822 0 0 1 1.234-.859 3.625 3.625 0 0 1 1.422-.297c.614 0 1.145.104 1.593.313.459.208.839.5 1.14.875.303.375.527.817.673 1.328.156.5.234 1.042.234 1.625v.656h-6.047c.021.385.094.75.219 1.094.135.333.318.625.547.875.24.25.521.448.844.594s.677.219 1.062.219c.52 0 .979-.104 1.375-.313a2.87 2.87 0 0 0 1-.828l.89.687c-.145.22-.322.428-.53.625-.209.188-.454.36-.735.516-.27.146-.583.266-.937.36-.344.093-.724.14-1.141.14zm-.187-7.578c-.292 0-.568.052-.829.156-.26.104-.494.26-.703.469a2.777 2.777 0 0 0 -.531.766 3.89 3.89 0 0 0 -.297 1.03h4.547v-.109a2.868 2.868 0 0 0 -.156-.828 2.357 2.357 0 0 0 -.406-.75 1.995 1.995 0 0 0 -.672-.53c-.26-.136-.578-.204-.953-.204z" fill="#4285f4"/><path d="m683.112 279.702h-1.718v13.063h1.718v1.187h-3.093v-15.437h3.093zm9.602 0h-1.719v13.063h1.72v1.187h-3.095v-15.437h3.094z" fill="#e67c73"/><path d="m704.628 288.093a5.128 5.128 0 0 1 -.422 1.453 3.635 3.635 0 0 1 -.781 1.125 3.467 3.467 0 0 1 -1.156.734 4.002 4.002 0 0 1 -1.485.266 3.737 3.737 0 0 1 -2.312-.75 4.148 4.148 0 0 1 -.766-.828 5.255 5.255 0 0 1 -.547-1.047 7.14 7.14 0 0 1 -.422-2.422v-1.594c0-.417.037-.828.11-1.234.073-.417.177-.812.312-1.187.147-.375.329-.724.547-1.047.219-.323.474-.6.766-.828.302-.24.64-.422 1.015-.547a3.902 3.902 0 0 1 1.297-.203c.563 0 1.068.088 1.516.265.448.167.833.412 1.156.735s.584.708.781 1.156c.198.448.328.943.391 1.484h-1.453a3.92 3.92 0 0 0 -.234-.953 2.43 2.43 0 0 0 -.47-.781 1.863 1.863 0 0 0 -.702-.531 2.239 2.239 0 0 0 -.985-.204c-.343 0-.65.057-.922.172-.26.115-.484.271-.671.47a2.67 2.67 0 0 0 -.485.671 4.73 4.73 0 0 0 -.312.812 5.863 5.863 0 0 0 -.157.875c-.03.292-.046.579-.046.86v1.61c0 .28.015.572.046.874.031.292.084.584.157.875.083.292.187.568.312.828.125.25.282.474.469.672.198.187.427.338.687.453s.568.172.922.172c.375 0 .704-.057.985-.172a1.95 1.95 0 0 0 .703-.515c.198-.219.354-.474.469-.766.114-.291.192-.609.234-.953zm1.82-.89c0-.605.089-1.167.266-1.688a4.02 4.02 0 0 1 .766-1.375 3.564 3.564 0 0 1 1.203-.906 3.825 3.825 0 0 1 1.61-.329c.593 0 1.13.11 1.609.329s.88.52 1.203.906c.333.385.588.844.765 1.375a5.2 5.2 0 0 1 .266 1.687v.172c0 .615-.089 1.182-.266 1.703a4.03 4.03 0 0 1 -.765 1.36 3.379 3.379 0 0 1 -1.203.906c-.47.219-1 .328-1.594.328-.604 0-1.146-.11-1.625-.328a3.564 3.564 0 0 1 -1.203-.906 4.044 4.044 0 0 1 -.766-1.36 5.246 5.246 0 0 1 -.266-1.703v-.172zm1.454.171c0 .417.047.818.14 1.203.104.375.255.709.453 1 .198.281.448.505.75.672s.656.25 1.063.25c.396 0 .74-.083 1.031-.25.302-.167.552-.39.75-.672a2.9 2.9 0 0 0 .453-1c.104-.385.156-.786.156-1.203v-.172c0-.406-.052-.797-.156-1.172a3.145 3.145 0 0 0 -.453-1 2.157 2.157 0 0 0 -.75-.687 2.132 2.132 0 0 0 -1.047-.25c-.407 0-.76.083-1.062.25a2.202 2.202 0 0 0 -.735.687 3.145 3.145 0 0 0 -.453 1 4.84 4.84 0 0 0 -.14 1.172zm9.851-4.312.11 1.25a3.322 3.322 0 0 1 1.124-1.032c.448-.25.948-.375 1.5-.375a3.6 3.6 0 0 1 1.204.188c.364.125.671.323.921.594.26.26.459.593.594 1 .146.407.219.891.219 1.453v5.375h-1.453v-5.344c0-.375-.042-.692-.125-.953a1.441 1.441 0 0 0 -.375-.625 1.333 1.333 0 0 0 -.594-.36 2.8 2.8 0 0 0 -.812-.109c-.49 0-.917.125-1.282.375-.365.24-.656.558-.875.953v6.063h-1.453v-8.453zm10.461 8.453v-7.344h-2.328v-1.11h2.328v-.593c0-.542.078-1.016.234-1.422.167-.417.39-.76.672-1.031a2.73 2.73 0 0 1 1.047-.625c.407-.146.86-.219 1.36-.219.343 0 .677.031 1 .094.333.052.672.125 1.015.219l-.172 1.187a5.446 5.446 0 0 0 -.75-.187 4.924 4.924 0 0 0 -.906-.079c-.677 0-1.188.172-1.531.516-.344.333-.516.849-.516 1.547v.594h3.266v1.11h-3.266v7.343zm7.688-8.453h4.312v7.203h2.766v1.25h-7.078v-1.25h2.875v-5.953h-2.875zm2.687-2.219c0-.24.068-.443.203-.61.146-.167.365-.25.656-.25.292 0 .511.083.657.25.145.167.218.37.218.61 0 .23-.073.422-.218.578-.147.156-.366.234-.657.234s-.51-.078-.656-.234a.85.85 0 0 1 -.203-.578zm6.414 6.375c0-.635.078-1.213.234-1.734a4.07 4.07 0 0 1 .672-1.36 3.006 3.006 0 0 1 1.063-.89c.417-.22.885-.329 1.406-.329.52 0 .979.094 1.375.282.396.177.73.442 1 .797l.078-.922h1.313v8.265c0 .563-.089 1.058-.266 1.485a3.197 3.197 0 0 1 -.734 1.11c-.313.301-.688.53-1.125.687a4.305 4.305 0 0 1 -1.453.234c-.22 0-.47-.026-.75-.078a4.11 4.11 0 0 1 -1.704-.688 3.053 3.053 0 0 1 -.687-.687l.75-.875c.177.219.36.401.547.547.187.145.375.26.562.343.198.094.39.162.578.204a2.9 2.9 0 0 0 .594.062c.344 0 .651-.052.922-.156a1.67 1.67 0 0 0 .703-.438c.198-.187.349-.421.453-.703.105-.281.157-.604.157-.969v-.734a2.949 2.949 0 0 1 -1 .75c-.375.167-.818.25-1.329.25-.51 0-.973-.11-1.39-.328a3.17 3.17 0 0 1 -1.063-.906 4.268 4.268 0 0 1 -.672-1.36 6.018 6.018 0 0 1 -.234-1.703zm1.453.156c0 .417.042.813.125 1.188.083.365.219.687.406.968.188.281.423.505.704.672.291.157.635.235 1.03.235.25 0 .475-.026.673-.078.208-.063.39-.146.547-.25.156-.115.296-.245.421-.391a2.87 2.87 0 0 0 .329-.516v-3.875a2.653 2.653 0 0 0 -.329-.484 1.877 1.877 0 0 0 -.437-.375 2.086 2.086 0 0 0 -1.188-.344c-.406 0-.755.083-1.046.25a2.114 2.114 0 0 0 -.704.688c-.187.281-.322.61-.406.984a5.252 5.252 0 0 0 -.125 1.172zm13.899 2.969a3.093 3.093 0 0 1 -1.063.984c-.417.23-.901.344-1.453.344-.437 0-.838-.068-1.203-.203a2.506 2.506 0 0 1 -.922-.656c-.25-.292-.448-.662-.594-1.11-.135-.448-.203-.99-.203-1.625v-5.015h1.453v5.031c0 .458.037.838.11 1.14.073.303.182.548.328.735.146.177.323.302.531.375.209.073.453.11.734.11.583 0 1.057-.12 1.422-.36s.636-.563.813-.969v-6.062h1.453v8.453h-1.313zm9.664-7.438c.135 0 .276.005.422.016.145 0 .28.01.406.031.135.021.26.047.375.078.115.021.208.048.281.079l-.203 1.406a5.921 5.921 0 0 0 -.797-.125 6.416 6.416 0 0 0 -.797-.047c-.677 0-1.223.156-1.64.469-.417.302-.724.729-.922 1.281v5.422h-1.453v-8.453h1.375l.062 1.343a3.735 3.735 0 0 1 1.234-1.093 3.362 3.362 0 0 1 1.657-.407zm9.617 8.61a1.41 1.41 0 0 1 -.14-.406 7.088 7.088 0 0 1 -.079-.516 4.879 4.879 0 0 1 -.484.422c-.177.125-.375.24-.594.344a3.711 3.711 0 0 1 -.703.218c-.24.063-.495.094-.766.094-.448 0-.854-.062-1.218-.187a2.95 2.95 0 0 1 -.922-.532 2.605 2.605 0 0 1 -.594-.797 2.378 2.378 0 0 1 -.203-.984c0-.469.094-.875.281-1.219.187-.353.448-.645.781-.875.344-.229.75-.4 1.219-.515a6.933 6.933 0 0 1 1.61-.172h1.578v-.672c0-.25-.047-.474-.141-.672a1.446 1.446 0 0 0 -.406-.531 1.619 1.619 0 0 0 -.625-.328 2.606 2.606 0 0 0 -.828-.125c-.292 0-.553.037-.782.11-.219.072-.406.17-.562.296a1.313 1.313 0 0 0 -.375.422 1.139 1.139 0 0 0 -.125.515h-1.453a2.16 2.16 0 0 1 .234-.906 2.43 2.43 0 0 1 .672-.797 3.49 3.49 0 0 1 1.047-.578c.417-.146.89-.219 1.422-.219.479 0 .921.057 1.328.172.417.115.77.292 1.062.532.302.24.536.536.703.89.177.354.266.766.266 1.235v3.937c0 .281.026.578.078.89.052.313.125.59.219.829v.125zm-2.563-1.11c.281 0 .542-.036.782-.109.25-.073.474-.167.672-.281.208-.125.385-.26.53-.406.147-.157.262-.318.345-.485v-1.719h-1.344c-.844 0-1.5.125-1.969.375s-.703.646-.703 1.188c0 .208.031.4.094.578.073.177.177.328.312.453.146.125.323.224.531.297.22.073.47.11.75.11zm13.774-3.03a6.4 6.4 0 0 1 -.219 1.702c-.146.521-.36.975-.64 1.36-.281.385-.63.687-1.047.906s-.89.328-1.422.328c-.542 0-1.016-.094-1.422-.281a2.924 2.924 0 0 1 -1.016-.844l-.062.969h-1.328v-12h1.437v4.453a2.776 2.776 0 0 1 1-.781c.396-.188.854-.282 1.375-.282.542 0 1.021.11 1.438.329.417.208.765.505 1.046.89.281.375.495.829.641 1.36.146.52.219 1.098.219 1.734zm-1.453-.157c0-.417-.042-.807-.125-1.172a2.868 2.868 0 0 0 -.375-.984 1.937 1.937 0 0 0 -.703-.688c-.281-.167-.63-.25-1.047-.25-.25 0-.48.037-.688.11a1.877 1.877 0 0 0 -1 .687 2.902 2.902 0 0 0 -.328.516v3.687c.093.187.203.364.328.531.135.157.286.297.453.422.167.115.354.203.563.266.208.063.437.094.687.094.396 0 .735-.078 1.016-.235.281-.167.51-.39.687-.672a2.87 2.87 0 0 0 .407-.968c.083-.375.125-.771.125-1.188zm4.117-7.703h4.312v10.75h2.766v1.25h-7.078v-1.25h2.875v-9.5h-2.875zm13.101 12.156c-.593 0-1.14-.099-1.64-.297a3.818 3.818 0 0 1 -1.266-.86 3.89 3.89 0 0 1 -.828-1.296 4.416 4.416 0 0 1 -.297-1.64v-.329c0-.677.11-1.286.328-1.828.219-.541.505-.995.86-1.36a3.836 3.836 0 0 1 1.234-.859 3.625 3.625 0 0 1 1.422-.297c.615 0 1.146.104 1.594.313.458.208.838.5 1.14.875s.526.817.672 1.328c.157.5.235 1.042.235 1.625v.656h-6.047c.02.385.093.75.218 1.094.136.333.318.625.547.875.24.25.521.448.844.594s.677.219 1.063.219c.52 0 .978-.104 1.375-.313.406-.208.74-.484 1-.828l.89.687c-.146.22-.323.428-.531.625-.209.188-.453.36-.734.516a4.311 4.311 0 0 1 -.938.36c-.344.093-.724.14-1.14.14zm-.187-7.578c-.292 0-.568.052-.828.156s-.494.26-.703.469a2.766 2.766 0 0 0 -.532.766 3.866 3.866 0 0 0 -.296 1.03h4.546v-.109a2.824 2.824 0 0 0 -.156-.828 2.357 2.357 0 0 0 -.406-.75 1.995 1.995 0 0 0 -.672-.53c-.26-.136-.578-.204-.953-.204z" fill="#673ab7"/><path d="m814.292 278.515h3.094v15.437h-3.094v-1.187h1.735v-13.063h-1.735zm9.602 0h3.094v15.437h-3.094v-1.187h1.734v-13.063h-1.734zm10.304 12.062a1.194 1.194 0 0 1 .297-.797.874.874 0 0 1 .344-.234c.146-.063.313-.094.5-.094s.349.031.484.094c.147.052.267.13.36.234a.872.872 0 0 1 .219.36 1.208 1.208 0 0 1 0 .859.867.867 0 0 1 -.22.36.948.948 0 0 1 -.359.218 1.144 1.144 0 0 1 -.484.094c-.187 0-.354-.031-.5-.094a.98.98 0 0 1 -.344-.218 1.162 1.162 0 0 1 -.218-.36 1.154 1.154 0 0 1 -.079-.422zm0-7a1.194 1.194 0 0 1 .297-.797.874.874 0 0 1 .344-.234c.146-.063.313-.094.5-.094s.349.031.484.094c.147.052.267.13.36.234a.872.872 0 0 1 .219.36 1.208 1.208 0 0 1 0 .859.867.867 0 0 1 -.22.36 1.132 1.132 0 0 1 -.359.234 1.35 1.35 0 0 1 -.484.078c-.187 0-.354-.026-.5-.078a1.195 1.195 0 0 1 -.344-.234 1.162 1.162 0 0 1 -.218-.36 1.154 1.154 0 0 1 -.079-.422z" fill="#e67c73"/><path d="m854.308 281.015v2.047h3.219v1.11h-3.22v4.593c0 .333.042.61.126.828.083.208.198.375.344.5.145.125.312.213.5.266.197.052.4.078.609.078.156 0 .317-.005.484-.016l.485-.062c.167-.031.318-.063.453-.094l.344-.078.203 1.031a2.006 2.006 0 0 1 -.453.187c-.167.053-.354.1-.563.141a5.456 5.456 0 0 1 -.64.094c-.22.02-.443.031-.672.031-.375 0-.724-.052-1.047-.156a2.33 2.33 0 0 1 -.844-.516 2.482 2.482 0 0 1 -.578-.89c-.135-.375-.203-.823-.203-1.344v-4.594h-2.22v-1.11h2.22v-2.046zm11.726 1.89c.135 0 .276.005.422.016.146 0 .281.01.406.031.136.021.261.047.375.078.115.021.209.048.282.079l-.203 1.406a5.921 5.921 0 0 0 -.797-.125 6.416 6.416 0 0 0 -.797-.047c-.677 0-1.224.156-1.64.469-.417.302-.725.729-.923 1.281v5.422h-1.453v-8.453h1.375l.063 1.343a3.722 3.722 0 0 1 1.234-1.093 3.357 3.357 0 0 1 1.656-.407zm9.54 7.438a3.093 3.093 0 0 1 -1.063.984c-.417.23-.901.344-1.453.344-.437 0-.838-.068-1.203-.203a2.495 2.495 0 0 1 -.922-.656c-.25-.292-.448-.662-.594-1.11-.135-.448-.203-.99-.203-1.625v-5.015h1.453v5.031c0 .458.037.838.11 1.14.073.303.182.548.328.735.145.177.322.302.53.375.209.073.454.11.735.11.583 0 1.057-.12 1.422-.36s.636-.563.813-.969v-6.062h1.453v8.453h-1.313l-.094-1.172zm7.851 1.328c-.593 0-1.14-.099-1.64-.297a3.818 3.818 0 0 1 -1.266-.86 3.869 3.869 0 0 1 -.828-1.296 4.416 4.416 0 0 1 -.297-1.64v-.329c0-.677.11-1.286.328-1.828.219-.541.505-.995.86-1.36a3.822 3.822 0 0 1 1.234-.859 3.623 3.623 0 0 1 1.421-.297c.615 0 1.146.104 1.594.313.459.208.839.5 1.14.875.303.375.527.817.673 1.328.156.5.234 1.042.234 1.625v.656h-6.047c.02.385.094.75.219 1.094.135.333.318.625.547.875.24.25.521.448.844.594s.677.219 1.062.219c.52 0 .979-.104 1.375-.313a2.87 2.87 0 0 0 1-.828l.89.687c-.145.22-.322.428-.53.625-.209.188-.454.36-.735.516-.27.146-.583.266-.937.36-.344.093-.724.14-1.141.14zm-.188-7.578c-.291 0-.567.052-.828.156-.26.104-.494.26-.703.469a2.777 2.777 0 0 0 -.531.766 3.89 3.89 0 0 0 -.297 1.03h4.547v-.109a2.868 2.868 0 0 0 -.156-.828 2.346 2.346 0 0 0 -.407-.75 1.985 1.985 0 0 0 -.671-.53c-.26-.136-.579-.204-.954-.204z" fill="#4285f4"/></g><path d="m381.777 154.01c0-6.282 5.093-11.375 11.375-11.375h142.068a11.376 11.376 0 0 1 11.376 11.376v45.5c0 6.283-5.093 11.376-11.376 11.376h-142.068c-6.282 0-11.375-5.093-11.375-11.375z" fill="#ff9800"/><path d="m381.777 154.01c0-6.282 5.093-11.375 11.375-11.375h142.068a11.376 11.376 0 0 1 11.376 11.376v45.5c0 6.283-5.093 11.376-11.376 11.376h-142.068c-6.282 0-11.375-5.093-11.375-11.375z" stroke="#666" stroke-linejoin="round"/><path d="m435.742 170.408c0-.333-.062-.646-.187-.937a2.115 2.115 0 0 0 -.594-.829c-.281-.26-.651-.494-1.11-.703-.447-.219-1.01-.416-1.687-.593a17.16 17.16 0 0 1 -2.36-.844 9.142 9.142 0 0 1 -1.984-1.219 5.717 5.717 0 0 1 -1.375-1.672c-.343-.635-.515-1.364-.515-2.187 0-.802.167-1.526.5-2.172a5.036 5.036 0 0 1 1.406-1.672 6.768 6.768 0 0 1 2.125-1.063 8.996 8.996 0 0 1 2.656-.375c.99 0 1.891.146 2.703.438a6.237 6.237 0 0 1 2.125 1.203 5.408 5.408 0 0 1 1.375 1.844c.333.708.5 1.49.5 2.344h-3.562a3.775 3.775 0 0 0 -.234-1.172 2.372 2.372 0 0 0 -.61-.907 2.677 2.677 0 0 0 -.984-.609c-.385-.146-.844-.219-1.375-.219-.49 0-.922.063-1.297.188a2.832 2.832 0 0 0 -.953.484c-.26.209-.458.459-.594.75-.135.292-.203.61-.203.953 0 .355.089.678.266.969.177.281.432.537.765.766a7.2 7.2 0 0 0 1.235.64c.479.188 1.025.36 1.64.516.865.26 1.661.572 2.39.937.73.365 1.355.797 1.876 1.297.531.49.943 1.058 1.234 1.703.292.636.438 1.344.438 2.125 0 .833-.172 1.573-.516 2.22a4.788 4.788 0 0 1 -1.39 1.64c-.584.448-1.282.786-2.094 1.015-.813.23-1.703.344-2.672.344a9.377 9.377 0 0 1 -1.781-.172 8.776 8.776 0 0 1 -1.72-.484 7.966 7.966 0 0 1 -1.515-.844 5.988 5.988 0 0 1 -1.219-1.187 5.86 5.86 0 0 1 -.796-1.547 5.81 5.81 0 0 1 -.297-1.906h3.593c.021.573.12 1.067.297 1.484.188.407.443.74.766 1s.713.453 1.172.578c.458.115.958.172 1.5.172.49 0 .922-.057 1.297-.172s.692-.271.953-.469a1.98 1.98 0 0 0 .594-.718c.145-.281.218-.594.218-.938zm9.903-7.187a5.208 5.208 0 0 1 1.703-1.61 4.406 4.406 0 0 1 2.266-.594c.74 0 1.417.115 2.031.344.615.219 1.14.562 1.578 1.031.448.459.797 1.058 1.047 1.797.25.73.375 1.61.375 2.64v8.532h-3.625v-8.547c0-.51-.063-.947-.188-1.312a2.06 2.06 0 0 0 -.546-.875c-.23-.23-.51-.396-.844-.5a3.312 3.312 0 0 0 -1.11-.172c-.614 0-1.145.11-1.593.328-.438.219-.803.52-1.094.906v10.172h-3.625v-20h3.625zm21.184 12.14a3.125 3.125 0 0 1 -.235-.594 39.713 39.713 0 0 1 -.156-.718 4.361 4.361 0 0 1 -.687.609c-.26.187-.552.354-.875.5a4.96 4.96 0 0 1 -1.047.344 5.62 5.62 0 0 1 -1.219.125 6.04 6.04 0 0 1 -1.984-.313 4.735 4.735 0 0 1 -1.563-.875 3.927 3.927 0 0 1 -1.015-1.328 3.98 3.98 0 0 1 -.36-1.687c0-1.49.552-2.641 1.656-3.453 1.105-.813 2.756-1.22 4.954-1.22h2.015v-.827c0-.677-.224-1.214-.672-1.61-.437-.395-1.073-.593-1.906-.593-.74 0-1.282.161-1.625.484-.333.313-.5.735-.5 1.266h-3.61c0-.605.13-1.173.391-1.704a4.308 4.308 0 0 1 1.157-1.421c.51-.407 1.13-.73 1.859-.97.74-.24 1.584-.359 2.531-.359.844 0 1.63.104 2.36.313.74.208 1.375.515 1.906.922.541.407.963.922 1.265 1.547.313.615.47 1.333.47 2.156v6.031c0 .76.047 1.39.14 1.89.093.49.229.912.406 1.266v.22h-3.656zm-3.453-2.531c.365 0 .703-.042 1.015-.125a4.39 4.39 0 0 0 .844-.344c.25-.146.463-.307.64-.484.188-.177.334-.354.438-.531v-2.422h-1.844c-.562 0-1.046.052-1.453.156-.395.104-.718.255-.968.453a1.92 1.92 0 0 0 -.563.703c-.125.27-.187.567-.187.89 0 .49.172.897.515 1.22.344.323.865.484 1.563.484zm23.293-4.375c0 1.02-.12 1.969-.36 2.844s-.593 1.635-1.062 2.28a4.938 4.938 0 0 1 -1.719 1.5c-.677.365-1.458.548-2.343.548-.76 0-1.427-.13-2-.39a4.556 4.556 0 0 1 -1.5-1.095v6.641h-3.61v-19.5h3.344l.125 1.375a4.59 4.59 0 0 1 1.531-1.203c.593-.292 1.286-.438 2.078-.438.896 0 1.683.172 2.36.516a4.813 4.813 0 0 1 1.734 1.469c.469.625.823 1.38 1.063 2.265.24.875.359 1.844.359 2.907zm-3.61-.281c0-.583-.057-1.136-.171-1.657a4.129 4.129 0 0 0 -.5-1.343 2.602 2.602 0 0 0 -.891-.891c-.365-.219-.802-.328-1.312-.328-.636 0-1.157.125-1.563.375a2.61 2.61 0 0 0 -.937 1.047v5.89c.229.438.541.792.937 1.063.407.26.938.39 1.594.39.51 0 .942-.11 1.297-.328.365-.229.661-.536.89-.921.23-.396.396-.854.5-1.375a8.322 8.322 0 0 0 .157-1.641v-.281zm13.794 7.453c-1.083 0-2.068-.177-2.953-.531a7.315 7.315 0 0 1 -2.282-1.454 6.381 6.381 0 0 1 -1.468-2.156 6.933 6.933 0 0 1 -.516-2.672v-.515c0-1.083.167-2.068.5-2.953a7.059 7.059 0 0 1 1.422-2.297 6.42 6.42 0 0 1 2.172-1.5 6.87 6.87 0 0 1 2.719-.532c1.01 0 1.911.167 2.703.5a5.54 5.54 0 0 1 2.03 1.422c.553.605.97 1.334 1.25 2.188.292.854.438 1.797.438 2.828v1.531h-9.562c.073.48.214.917.422 1.313.219.395.49.739.812 1.03.333.282.713.501 1.14.657a4.02 4.02 0 0 0 1.392.235c.353 0 .707-.031 1.062-.094a5.13 5.13 0 0 0 1-.313c.323-.135.625-.302.906-.5.281-.208.526-.442.735-.703l1.797 1.953c-.22.313-.511.625-.875.938a5.545 5.545 0 0 1 -1.282.828 8.6 8.6 0 0 1 -1.64.562 7.516 7.516 0 0 1 -1.922.235zm-.438-11.688c-.407 0-.782.073-1.125.219-.333.146-.63.354-.89.625a3.82 3.82 0 0 0 -.641.969 5.704 5.704 0 0 0 -.39 1.234h5.937v-.281a3.068 3.068 0 0 0 -.219-1.078 2.255 2.255 0 0 0 -.562-.875 2.579 2.579 0 0 0 -.891-.594 3.176 3.176 0 0 0 -1.219-.219zm-45.881 30.351c0-.853.062-1.66.187-2.421.135-.76.312-1.459.531-2.094.23-.646.495-1.23.797-1.75.302-.531.62-1 .953-1.406.333-.407.677-.75 1.032-1.032a5.3 5.3 0 0 1 1.03-.656l.5 1.39a5.79 5.79 0 0 0 -1.03 1.048c-.333.437-.636.984-.907 1.64a12.66 12.66 0 0 0 -.671 2.282c-.167.864-.25 1.859-.25 2.984v.234c0 1.125.083 2.12.25 2.985.177.865.4 1.625.671 2.28.271.657.574 1.204.907 1.642.343.447.687.801 1.03 1.062l-.5 1.36a4.48 4.48 0 0 1 -1.03-.657 6.878 6.878 0 0 1 -1.032-1.031 9.286 9.286 0 0 1 -.953-1.39 11.354 11.354 0 0 1 -.797-1.75 14.595 14.595 0 0 1 -.53-2.094 14.897 14.897 0 0 1 -.188-2.422zm13.851-1.39 2.172-3.078h2.72l-3.313 4.844 3.421 5.015h-2.718l-2.282-3.219-2.25 3.22h-2.734l3.422-5.016-3.297-4.844h2.719zm13.43 1.594a13.096 13.096 0 0 1 -.75 4.437c-.229.646-.5 1.235-.812 1.766a9.242 9.242 0 0 1 -.984 1.422c-.344.417-.698.77-1.063 1.062a4.58 4.58 0 0 1 -1.062.656l-.485-1.359c.333-.26.672-.614 1.016-1.062.343-.438.65-.98.922-1.625.27-.647.49-1.407.656-2.282.177-.875.266-1.875.266-3v-.234c0-1.125-.089-2.12-.266-2.984-.177-.875-.407-1.641-.688-2.297-.27-.657-.573-1.209-.906-1.657-.333-.447-.667-.796-1-1.046l.485-1.36c.343.157.697.38 1.062.672a7.34 7.34 0 0 1 1.063 1.063c.353.417.681.89.984 1.421.313.531.583 1.12.812 1.766.23.635.412 1.328.547 2.078.135.74.203 1.527.203 2.36z" fill="#fff" fill-rule="nonzero"/><path d="m392.784 211.065h142.583v59.717h-142.583z" fill="#bdbdbd"/><path d="m392.784 211.065h142.583v59.717h-142.583z" stroke="#666" stroke-linejoin="round"/><path d="m450.129 232.76-.25 4.313h-1.61v-5.609h1.86v1.297zm14.027 8.72 3.39-4.704h2.532l-4.719 6.281 4.86 6.407h-2.516l-3.5-4.828-3.5 4.828h-2.531l4.843-6.407-4.718-6.28h2.5l3.359 4.702zm14.777-8.72-.25 4.313h-1.61v-5.609h1.86v1.297z" fill="#000" fill-rule="nonzero"/><path d="m501.15 242.163 157.29-21.008"/><g stroke="#666" stroke-width="4"><path d="m516.176 240.156 118.476-15.824" stroke-linejoin="round"/><g fill="#666"><path d="m503.132 241.898a6.58 6.58 0 1 1 13.035-1.813 6.58 6.58 0 0 1 -13.035 1.813z" fill-rule="nonzero"/><path d="m635.527 230.88 17.118-8.951-18.867-4.146z"/></g></g><path d="m73.152 289.572c0-6.282 5.093-11.375 11.376-11.375h166.225c6.282 0 11.376 5.093 11.376 11.375v45.501c0 6.283-5.093 11.376-11.376 11.376h-166.225c-6.283 0-11.376-5.093-11.376-11.376z" fill="#34a853"/><path d="m73.152 289.572c0-6.282 5.093-11.375 11.376-11.375h166.225c6.282 0 11.376 5.093 11.376 11.375v45.501c0 6.283-5.093 11.376-11.376 11.376h-166.225c-6.283 0-11.376-5.093-11.376-11.376z" stroke="#666" stroke-linejoin="round"/><path d="m103.1 302.97h3.656l.016 13.14a6.203 6.203 0 0 1 -.516 2.47 5.914 5.914 0 0 1 -1.375 1.921 6.254 6.254 0 0 1 -2.047 1.25 7.179 7.179 0 0 1 -2.53.437c-.949 0-1.814-.12-2.595-.359-.78-.25-1.452-.615-2.015-1.094a4.84 4.84 0 0 1 -1.313-1.812c-.312-.73-.473-1.589-.484-2.578h3.672c.01 1.02.234 1.76.672 2.218.448.448 1.135.672 2.062.672.417 0 .797-.078 1.14-.234.355-.156.652-.375.891-.656.25-.281.438-.615.563-1a3.7 3.7 0 0 0 .203-1.235zm16.903 14c0-.333-.063-.646-.188-.938a2.116 2.116 0 0 0 -.594-.828c-.28-.26-.65-.494-1.109-.703-.448-.219-1.01-.417-1.687-.594-.823-.23-1.61-.51-2.36-.844a9.082 9.082 0 0 1 -1.984-1.218 5.713 5.713 0 0 1 -1.375-1.672c-.344-.635-.516-1.365-.516-2.188 0-.802.167-1.526.5-2.172a5.055 5.055 0 0 1 1.406-1.671 6.783 6.783 0 0 1 2.125-1.063 9.006 9.006 0 0 1 2.657-.375c.99 0 1.89.146 2.703.438.823.28 1.531.682 2.125 1.203a5.415 5.415 0 0 1 1.375 1.843c.333.709.5 1.49.5 2.344h-3.563a3.783 3.783 0 0 0 -.234-1.172 2.369 2.369 0 0 0 -.61-.906 2.688 2.688 0 0 0 -.984-.61c-.385-.145-.844-.218-1.375-.218-.49 0-.922.062-1.297.187a2.834 2.834 0 0 0 -.953.485 2.07 2.07 0 0 0 -.594.75 2.234 2.234 0 0 0 -.203.953c0 .354.089.677.266.969.177.281.433.536.766.765.343.23.755.443 1.234.64.48.188 1.026.36 1.64.517.865.26 1.662.572 2.391.937.73.365 1.354.797 1.875 1.297.531.49.943 1.057 1.235 1.703.291.635.437 1.344.437 2.125 0 .833-.172 1.573-.516 2.219a4.775 4.775 0 0 1 -1.39 1.64c-.583.448-1.281.787-2.094 1.016-.813.23-1.703.344-2.672.344a9.377 9.377 0 0 1 -1.781-.172 8.78 8.78 0 0 1 -1.719-.484 7.966 7.966 0 0 1 -1.515-.844 5.998 5.998 0 0 1 -1.22-1.188 5.84 5.84 0 0 1 -.796-1.547 5.804 5.804 0 0 1 -.297-1.906h3.594c.02.573.12 1.068.297 1.485.187.406.442.74.765 1s.714.453 1.172.578c.459.115.959.172 1.5.172.49 0 .922-.057 1.297-.172s.693-.271.953-.47a1.97 1.97 0 0 0 .594-.718c.146-.281.219-.594.219-.937zm19.371-3.125c0 1.208-.161 2.328-.484 3.36-.313 1.02-.777 1.9-1.391 2.64a6.338 6.338 0 0 1 -2.219 1.734c-.865.407-1.844.61-2.937.61s-2.067-.203-2.922-.61a6.168 6.168 0 0 1 -2.14-1.734c-.584-.75-1.027-1.636-1.329-2.657-.302-1.02-.453-2.134-.453-3.343v-2.766c0-1.219.151-2.339.453-3.36.302-1.02.745-1.9 1.328-2.64a6.107 6.107 0 0 1 2.14-1.75c.845-.417 1.814-.625 2.907-.625 1.104 0 2.088.208 2.953.625.875.417 1.615 1 2.219 1.75.615.74 1.078 1.62 1.39 2.64.323 1.021.485 2.141.485 3.36zm-3.703-2.797c0-.77-.063-1.479-.188-2.125-.125-.657-.322-1.22-.593-1.688a3.024 3.024 0 0 0 -1.047-1.093c-.417-.26-.922-.391-1.516-.391-.593 0-1.088.13-1.484.39s-.719.625-.969 1.094c-.24.469-.412 1.031-.516 1.688a13.409 13.409 0 0 0 -.156 2.125v2.797c0 .76.052 1.468.156 2.125.105.645.277 1.208.516 1.687.25.48.573.854.969 1.125.396.26.896.39 1.5.39.583 0 1.083-.13 1.5-.39.427-.27.77-.64 1.031-1.11.27-.479.469-1.041.594-1.687.135-.656.203-1.37.203-2.14zm19.309 3.984c0 1.042-.12 2.005-.36 2.89-.229.875-.572 1.63-1.03 2.266a4.877 4.877 0 0 1 -1.72 1.47c-.677.353-1.473.53-2.39.53-.823 0-1.537-.151-2.14-.453a4.544 4.544 0 0 1 -1.548-1.312l-.172 1.5h-3.265v-20h3.625v7.187a4.551 4.551 0 0 1 1.469-1.125c.573-.27 1.24-.406 2-.406.927 0 1.734.177 2.421.531.688.355 1.261.85 1.72 1.485.458.635.801 1.395 1.03 2.28.24.875.36 1.834.36 2.876zm-3.625-.281c0-.573-.047-1.115-.14-1.625a4.271 4.271 0 0 0 -.438-1.344 2.445 2.445 0 0 0 -.86-.922c-.365-.229-.823-.343-1.375-.343-.656 0-1.193.14-1.61.421a2.858 2.858 0 0 0 -.952 1.141v5.61c.23.49.547.875.953 1.156.417.27.963.406 1.64.406.542 0 .99-.104 1.344-.313.365-.219.651-.515.86-.89a4.08 4.08 0 0 0 .437-1.328c.093-.521.14-1.084.14-1.688v-.281zm9.09-6.906h7.203v14.406c0 .937-.135 1.74-.406 2.406a4.016 4.016 0 0 1 -1.172 1.672c-.51.437-1.136.76-1.875.969-.73.208-1.568.312-2.516.312-.396 0-.792-.016-1.187-.047a7.803 7.803 0 0 1 -1.14-.171l.171-2.938c.104.02.25.042.437.063.188.02.381.035.579.046.197.021.385.032.562.032.177.01.307.015.39.015.355 0 .683-.042.985-.125.313-.073.578-.203.797-.39.219-.177.39-.417.516-.72.135-.301.203-.676.203-1.124v-11.453h-3.547zm3.297-3.61c0-.281.047-.541.14-.78.105-.24.245-.443.422-.61a2.06 2.06 0 0 1 .656-.39c.26-.095.547-.142.86-.142.635 0 1.14.182 1.515.547.386.355.579.813.579 1.375 0 .563-.193 1.026-.579 1.39-.375.355-.88.532-1.515.532-.313 0-.6-.047-.86-.14a2.074 2.074 0 0 1 -.656-.391 2.082 2.082 0 0 1 -.422-.61c-.093-.24-.14-.5-.14-.78zm17.371 17.953c-1.083 0-2.068-.177-2.953-.53a7.326 7.326 0 0 1 -2.281-1.454 6.407 6.407 0 0 1 -1.469-2.156 6.933 6.933 0 0 1 -.516-2.672v-.516c0-1.083.167-2.068.5-2.953a7.073 7.073 0 0 1 1.422-2.297 6.459 6.459 0 0 1 2.172-1.5 6.893 6.893 0 0 1 2.719-.53c1.01 0 1.911.167 2.703.5a5.556 5.556 0 0 1 2.031 1.421c.552.604.969 1.333 1.25 2.187.292.855.438 1.798.438 2.829v1.53h-9.563c.073.48.214.918.422 1.313.219.396.49.74.813 1.032.333.28.713.5 1.14.656s.89.234 1.39.234c.355 0 .709-.031 1.063-.094a5.056 5.056 0 0 0 1-.312c.323-.135.626-.302.907-.5a3.98 3.98 0 0 0 .734-.703l1.797 1.953c-.219.313-.51.625-.875.937-.354.313-.781.59-1.281.829a8.721 8.721 0 0 1 -1.641.562 7.54 7.54 0 0 1 -1.922.234zm-.437-11.687c-.407 0-.782.073-1.125.219-.333.145-.63.354-.891.625-.25.27-.463.593-.64.968a5.738 5.738 0 0 0 -.391 1.235h5.937v-.281a3.04 3.04 0 0 0 -.219-1.079 2.265 2.265 0 0 0 -.562-.875 2.57 2.57 0 0 0 -.89-.593 3.17 3.17 0 0 0 -1.22-.22zm15.824 8.797a3.2 3.2 0 0 0 1.016-.156 2.71 2.71 0 0 0 .843-.438c.25-.198.443-.432.579-.703.135-.27.192-.567.171-.89h3.407a4.112 4.112 0 0 1 -.453 2.03 4.86 4.86 0 0 1 -1.297 1.61 6.263 6.263 0 0 1 -1.907 1.062 6.89 6.89 0 0 1 -2.28.375c-1.094 0-2.058-.182-2.891-.546a5.711 5.711 0 0 1 -2.063-1.516 6.981 6.981 0 0 1 -1.25-2.25 8.936 8.936 0 0 1 -.422-2.781v-.39c0-.99.14-1.917.422-2.782a6.409 6.409 0 0 1 1.25-2.25 5.865 5.865 0 0 1 2.063-1.531c.823-.375 1.776-.563 2.859-.563.865 0 1.667.13 2.406.39.74.26 1.375.63 1.906 1.11a4.783 4.783 0 0 1 1.235 1.719c.302.667.443 1.417.422 2.25h-3.407a2.28 2.28 0 0 0 -.703-1.797 2.502 2.502 0 0 0 -.843-.547 2.726 2.726 0 0 0 -1.063-.203c-.573 0-1.047.12-1.422.36a2.48 2.48 0 0 0 -.89.937c-.22.385-.376.833-.47 1.344-.093.5-.14 1.02-.14 1.562v.39c0 .542.042 1.068.125 1.579.093.51.25.958.469 1.344.219.385.515.698.89.937.386.23.865.344 1.438.344zm16.403-14.906v3.453h5.265v2.656h-5.265v6.062c0 .51.057.938.172 1.282.125.343.291.62.5.828.219.198.484.344.796.437a4.01 4.01 0 0 0 1.032.125c.281 0 .568-.01.859-.03.292-.032.568-.069.828-.11.27-.042.52-.084.75-.125.23-.042.422-.084.578-.125l.36 2.484c-.25.146-.547.276-.891.39a7.66 7.66 0 0 1 -1.078.25c-.375.073-.771.126-1.188.157a12.34 12.34 0 0 1 -1.218.062 7.091 7.091 0 0 1 -2.11-.296 4.253 4.253 0 0 1 -1.61-.954c-.447-.427-.79-.973-1.03-1.64s-.36-1.463-.36-2.39v-6.408h-3.218v-2.656h3.218v-3.453h3.61zm19.66 12.515c0-.719.104-1.38.313-1.984.208-.615.51-1.146.906-1.594.396-.458.88-.812 1.453-1.062s1.23-.375 1.969-.375c.75 0 1.411.125 1.984.375s1.058.604 1.453 1.062c.407.448.709.98.907 1.594.208.604.312 1.265.312 1.984v.188c0 .719-.104 1.385-.312 2a4.418 4.418 0 0 1 -.89 1.593 4.077 4.077 0 0 1 -1.47 1.047c-.573.25-1.224.375-1.953.375-.75 0-1.417-.125-2-.375a4.088 4.088 0 0 1 -1.453-1.047 4.592 4.592 0 0 1 -.906-1.593 6.184 6.184 0 0 1 -.313-2zm2.532.188c0 .417.036.807.109 1.172.083.353.208.666.375.937.177.27.401.484.672.64.27.157.599.235.984.235.365 0 .677-.078.938-.234.27-.157.49-.37.656-.64.167-.271.292-.584.375-.938.083-.365.125-.755.125-1.172v-.188c0-.407-.042-.787-.125-1.14a3.151 3.151 0 0 0 -.375-.954 1.839 1.839 0 0 0 -.656-.64c-.26-.157-.583-.235-.969-.235-.375 0-.698.078-.969.235-.26.156-.479.37-.656.64-.167.271-.292.59-.375.954-.073.353-.11.733-.11 1.14v.188z" fill="#fff" fill-rule="nonzero"/><path d="m85.773 346.626h163.497v59.717h-163.497z" fill="#bdbdbd"/><path d="m85.773 346.626h163.497v59.717h-163.497z" stroke="#666" stroke-linejoin="round"/><path d="m160.32 361.984h14.402v28.8h-14.402z" fill="#ff0" fill-rule="nonzero"/><path d="m160.32 359.876h14.402v31.652h-14.402z"/><path d="m172.82 385.024h-11.172v-1.562l5.594-6.203c.5-.563.917-1.058 1.25-1.485s.599-.822.797-1.187c.208-.365.354-.708.437-1.031.093-.323.14-.657.14-1 0-.427-.073-.823-.218-1.188a2.706 2.706 0 0 0 -.594-.969 2.783 2.783 0 0 0 -.953-.64 2.976 2.976 0 0 0 -1.25-.25c-.573 0-1.068.083-1.484.25a2.699 2.699 0 0 0 -1.047.687c-.27.302-.479.672-.625 1.11a4.742 4.742 0 0 0 -.203 1.437h-2.172c0-.719.125-1.396.375-2.031.25-.646.61-1.203 1.078-1.672.48-.48 1.058-.86 1.735-1.14.687-.281 1.468-.422 2.343-.422.802 0 1.526.12 2.172.359.646.24 1.188.573 1.625 1 .448.417.792.917 1.031 1.5.24.573.36 1.198.36 1.875 0 .51-.089 1.016-.266 1.516-.167.49-.396.979-.687 1.468-.292.48-.63.96-1.016 1.438a29.85 29.85 0 0 1 -1.234 1.406l-4.578 4.969h8.562z" fill="#000" fill-rule="nonzero"/><path d="m174.722 359.876v31.652zm87.407-47.553c29.912 0 44.867-33.89 59.824-67.78s29.915-67.78 59.83-67.78z"/><path d="m262.129 312.323c29.912 0 44.867-33.89 59.824-67.78 7.478-16.945 14.957-33.89 24.305-46.598 2.337-3.177 4.791-6.09 7.391-8.671a53.937 53.937 0 0 1 4.014-3.616c.344-.28.69-.553 1.04-.82l.378-.286" stroke="#595959" stroke-linejoin="round" stroke-width="4"/><path d="m361.225 190.801 15.026-12.14-19.314-.358z" fill="#595959" stroke="#595959" stroke-width="4"/><path d="m381.667 25.642c0-6.283 5.093-11.376 11.375-11.376h142.068c6.283 0 11.376 5.093 11.376 11.376v45.5c0 6.283-5.093 11.376-11.376 11.376h-142.068c-6.282 0-11.375-5.093-11.375-11.375z" fill="#ff9800"/><path d="m381.667 25.642c0-6.283 5.093-11.376 11.375-11.376h142.068c6.283 0 11.376 5.093 11.376 11.376v45.5c0 6.283-5.093 11.376-11.376 11.376h-142.068c-6.282 0-11.375-5.093-11.375-11.375z" stroke="#666" stroke-linejoin="round"/><path d="m435.632 42.04c0-.333-.062-.646-.187-.938a2.116 2.116 0 0 0 -.594-.828c-.281-.26-.651-.495-1.11-.703-.447-.22-1.01-.417-1.687-.594a17.16 17.16 0 0 1 -2.36-.844 9.142 9.142 0 0 1 -1.984-1.219 5.68 5.68 0 0 1 -1.375-1.672c-.343-.635-.515-1.364-.515-2.187 0-.802.167-1.526.5-2.172a5.049 5.049 0 0 1 1.406-1.672 6.78 6.78 0 0 1 2.125-1.062 8.996 8.996 0 0 1 2.656-.375c.99 0 1.89.146 2.703.437a6.237 6.237 0 0 1 2.125 1.203 5.438 5.438 0 0 1 1.375 1.844c.333.709.5 1.49.5 2.344h-3.562a3.802 3.802 0 0 0 -.235-1.172 2.364 2.364 0 0 0 -.609-.906 2.67 2.67 0 0 0 -.984-.61c-.386-.145-.844-.218-1.375-.218-.49 0-.922.062-1.297.187a2.832 2.832 0 0 0 -.953.484c-.26.209-.459.459-.594.75a2.24 2.24 0 0 0 -.203.954c0 .353.088.676.265.968.177.281.433.537.766.766.344.23.755.443 1.234.64.48.188 1.027.36 1.641.516.865.26 1.661.573 2.39.938.73.365 1.355.797 1.876 1.297.53.49.942 1.057 1.234 1.703.291.635.437 1.344.437 2.125 0 .833-.172 1.573-.515 2.218a4.772 4.772 0 0 1 -1.39 1.641c-.584.448-1.282.787-2.095 1.016-.812.229-1.702.343-2.671.343a9.435 9.435 0 0 1 -1.782-.171 8.806 8.806 0 0 1 -1.718-.485 7.954 7.954 0 0 1 -1.516-.844 5.988 5.988 0 0 1 -1.219-1.187 5.882 5.882 0 0 1 -.797-1.547 5.81 5.81 0 0 1 -.297-1.906h3.594c.02.573.12 1.068.297 1.484.187.407.443.74.766 1s.713.453 1.172.578c.458.115.958.172 1.5.172.49 0 .921-.057 1.296-.172s.693-.27.954-.468c.26-.198.458-.438.593-.72.147-.28.22-.593.22-.937zm9.903-7.188a5.222 5.222 0 0 1 1.703-1.61 4.407 4.407 0 0 1 2.265-.593c.74 0 1.417.114 2.032.343.615.22 1.14.563 1.578 1.032.448.458.797 1.057 1.047 1.797.25.729.375 1.609.375 2.64v8.531h-3.625v-8.546c0-.51-.063-.948-.188-1.313a2.055 2.055 0 0 0 -.547-.875 2.016 2.016 0 0 0 -.843-.5 3.312 3.312 0 0 0 -1.11-.172c-.615 0-1.146.11-1.594.328a3.07 3.07 0 0 0 -1.093.907v10.171h-3.625v-20h3.625zm21.184 12.14a3.046 3.046 0 0 1 -.235-.593 40.03 40.03 0 0 1 -.156-.72c-.198.22-.427.423-.688.61-.26.188-.552.355-.875.5-.312.146-.66.26-1.046.344a5.626 5.626 0 0 1 -1.22.125c-.718 0-1.38-.104-1.984-.312a4.761 4.761 0 0 1 -1.562-.875 3.948 3.948 0 0 1 -1.016-1.329 3.976 3.976 0 0 1 -.36-1.687c0-1.49.552-2.64 1.657-3.453 1.104-.813 2.755-1.219 4.953-1.219h2.016v-.828c0-.677-.224-1.214-.672-1.61-.437-.395-1.073-.593-1.906-.593-.74 0-1.282.161-1.625.484-.333.313-.5.735-.5 1.266h-3.61c0-.604.13-1.172.391-1.703a4.293 4.293 0 0 1 1.156-1.422c.51-.407 1.13-.73 1.86-.969.74-.24 1.583-.36 2.53-.36.845 0 1.631.104 2.36.313.74.209 1.376.516 1.907.922.541.407.963.922 1.265 1.547.313.615.469 1.333.469 2.156v6.031c0 .76.047 1.391.14 1.891.094.49.23.911.407 1.266v.218zm-3.454-2.53c.365 0 .703-.042 1.016-.126a4.39 4.39 0 0 0 .844-.344c.25-.145.463-.307.64-.484.188-.177.334-.354.438-.531v-2.422h-1.844c-.563 0-1.047.052-1.453.156-.396.104-.719.255-.969.453a1.91 1.91 0 0 0 -.562.703 2.099 2.099 0 0 0 -.188.891c0 .49.172.896.516 1.219s.865.484 1.562.484zm23.294-4.376c0 1.02-.12 1.969-.36 2.844s-.594 1.635-1.062 2.281a4.964 4.964 0 0 1 -1.719 1.5c-.677.365-1.459.547-2.344.547-.76 0-1.427-.13-2-.39a4.563 4.563 0 0 1 -1.5-1.094v6.64h-3.61v-19.5h3.345l.125 1.375c.437-.52.947-.922 1.53-1.203.595-.291 1.288-.437 2.079-.437.896 0 1.683.172 2.36.515a4.813 4.813 0 0 1 1.734 1.469c.469.625.823 1.38 1.062 2.266.24.875.36 1.843.36 2.906zm-3.61-.281c0-.583-.057-1.135-.172-1.656a4.087 4.087 0 0 0 -.5-1.344 2.585 2.585 0 0 0 -.89-.89c-.365-.22-.802-.329-1.313-.329-.635 0-1.156.125-1.562.375-.396.25-.709.599-.938 1.047v5.89c.23.438.542.792.938 1.063.407.26.938.39 1.594.39.51 0 .942-.109 1.296-.327.365-.23.662-.537.891-.922.23-.396.396-.854.5-1.375.104-.52.156-1.067.156-1.64zm13.794 7.453c-1.083 0-2.068-.177-2.954-.531a7.3 7.3 0 0 1 -2.28-1.453 6.397 6.397 0 0 1 -1.47-2.157 6.942 6.942 0 0 1 -.515-2.671v-.516c0-1.083.167-2.068.5-2.953a7.05 7.05 0 0 1 1.422-2.297 6.44 6.44 0 0 1 2.172-1.5 6.88 6.88 0 0 1 2.718-.531c1.01 0 1.912.167 2.703.5.803.333 1.48.807 2.032 1.422.552.604.969 1.333 1.25 2.187.291.854.437 1.797.437 2.828v1.531h-9.562c.073.48.213.918.422 1.313.219.396.49.74.812 1.031.333.281.713.5 1.14.656.427.157.891.235 1.391.235.355 0 .709-.031 1.063-.094a5.174 5.174 0 0 0 1.906-.812c.281-.209.526-.443.734-.704l1.797 1.954c-.219.312-.51.624-.875.937a5.524 5.524 0 0 1 -1.281.828c-.49.23-1.036.417-1.64.563a7.547 7.547 0 0 1 -1.922.234zm-.438-11.687c-.407 0-.782.073-1.125.218-.333.146-.63.354-.89.625-.25.271-.464.594-.641.969a5.704 5.704 0 0 0 -.39 1.234h5.937v-.28a3.056 3.056 0 0 0 -.22-1.079 2.255 2.255 0 0 0 -.562-.875 2.568 2.568 0 0 0 -.89-.594 3.189 3.189 0 0 0 -1.219-.218zm-68.273 30.351c0-.854.063-1.661.188-2.422.135-.76.312-1.458.531-2.094.23-.646.495-1.23.797-1.75.302-.531.62-1 .953-1.406.333-.407.677-.75 1.031-1.031s.698-.5 1.031-.657l.5 1.391a5.76 5.76 0 0 0 -1.03 1.047c-.333.437-.636.984-.907 1.64a12.71 12.71 0 0 0 -.672 2.282c-.167.865-.25 1.86-.25 2.984v.235c0 1.125.083 2.12.25 2.984.177.865.401 1.625.672 2.281.27.657.573 1.203.906 1.64.344.449.688.803 1.031 1.063l-.5 1.36a4.48 4.48 0 0 1 -1.03-.657 6.838 6.838 0 0 1 -1.032-1.03 9.332 9.332 0 0 1 -.953-1.391 11.297 11.297 0 0 1 -.797-1.75 14.683 14.683 0 0 1 -.531-2.094 14.885 14.885 0 0 1 -.188-2.422zm14.118 5.578c-.76 0-1.453-.125-2.078-.375a5.024 5.024 0 0 1 -1.594-1.016 4.463 4.463 0 0 1 -1.016-1.515 4.84 4.84 0 0 1 -.36-1.86v-.375c0-.75.12-1.432.36-2.047.24-.625.568-1.161.985-1.609a4.262 4.262 0 0 1 1.515-1.047 4.788 4.788 0 0 1 1.906-.375c.709 0 1.339.115 1.891.344.563.23 1.037.557 1.422.984s.677.942.875 1.547a5.92 5.92 0 0 1 .312 1.969v1.078h-6.687c.041.333.135.64.281.922.157.27.35.51.578.719.23.198.49.354.782.468.302.105.63.157.984.157a3.714 3.714 0 0 0 1.437-.298 3.41 3.41 0 0 0 .641-.343c.198-.146.37-.313.516-.5l1.265 1.375a3.613 3.613 0 0 1 -.625.656c-.25.219-.547.411-.89.578a5.616 5.616 0 0 1 -2.5.563zm-.297-8.172c-.281 0-.542.052-.781.156-.24.093-.448.234-.625.422a2.62 2.62 0 0 0 -.454.672c-.125.26-.213.552-.265.875h4.14v-.203c-.01-.26-.062-.51-.156-.75a1.501 1.501 0 0 0 -.39-.61 1.634 1.634 0 0 0 -.625-.406 2.11 2.11 0 0 0 -.844-.156zm8.29-1.875.077 1.203c.187-.427.443-.76.766-1 .333-.25.74-.375 1.219-.375.791 0 1.312.349 1.562 1.047.187-.333.432-.589.734-.766.303-.187.667-.28 1.094-.28.292 0 .568.057.828.171.26.104.485.276.672.516.198.24.349.547.453.922.105.375.157.838.157 1.39v7.031h-2.313v-7.046c0-.188-.02-.34-.062-.454a.52.52 0 0 0 -.157-.28.512.512 0 0 0 -.234-.157.75.75 0 0 0 -.266-.047.8.8 0 0 0 -.453.125.818.818 0 0 0 -.265.328v7.531h-2.235v-7.046c0-.188-.02-.345-.062-.47a.594.594 0 0 0 -.14-.28.6.6 0 0 0 -.235-.141.75.75 0 0 0 -.266-.047c-.198 0-.354.057-.469.172a1.12 1.12 0 0 0 -.28.437v7.375h-2.298v-9.859zm18.476 5.016c0 .719-.083 1.385-.25 2a4.69 4.69 0 0 1 -.75 1.593 3.565 3.565 0 0 1 -1.203 1.063c-.48.25-1.026.375-1.64.375-.532 0-1.001-.089-1.407-.266a3.139 3.139 0 0 1 -1.031-.781v4.656h-2.532v-13.656h2.329l.093.969a3.132 3.132 0 0 1 1.078-.844c.417-.198.901-.297 1.454-.297.625 0 1.177.12 1.656.36.48.24.88.578 1.203 1.015.333.437.583.963.75 1.578s.25 1.297.25 2.047zm-2.531-.188c0-.407-.042-.792-.125-1.156a2.722 2.722 0 0 0 -.36-.938 1.673 1.673 0 0 0 -1.515-.859c-.448 0-.813.089-1.094.266a1.79 1.79 0 0 0 -.656.734v4.11c.156.312.375.562.656.75.281.187.651.28 1.11.28.353 0 .655-.078.906-.234.26-.167.468-.385.625-.656.156-.27.27-.588.343-.953s.11-.75.11-1.156zm9.523-7.234v2.406h3.672v1.875h-3.672v4.234c0 .355.037.652.11.891.083.24.198.433.344.578.156.146.343.25.562.313.219.052.458.078.719.078.198 0 .396-.005.594-.016.208-.02.406-.041.593-.062.188-.031.36-.063.516-.094a5.47 5.47 0 0 0 .422-.094l.234 1.735c-.167.104-.37.197-.61.28-.24.073-.494.131-.765.173a6.6 6.6 0 0 1 -.828.109 7.897 7.897 0 0 1 -.844.047 5.117 5.117 0 0 1 -1.484-.203 2.93 2.93 0 0 1 -1.125-.672 3.117 3.117 0 0 1 -.734-1.14c-.167-.47-.25-1.027-.25-1.673v-4.484h-2.25v-1.875h2.25v-2.406zm10.743 8.125.297 1.062 2.625-6.781h2.797l-5.016 11.328c-.104.25-.245.521-.422.813a3.62 3.62 0 0 1 -.64.812c-.26.25-.579.458-.954.625-.375.177-.817.266-1.328.266-.125 0-.24-.005-.344-.016a2.329 2.329 0 0 1 -.296-.047 2.44 2.44 0 0 1 -.282-.047 5.316 5.316 0 0 1 -.312-.078l.312-1.922h.391c.167.01.297.016.39.016a.832.832 0 0 0 .532-.187c.156-.115.286-.245.39-.391.115-.146.203-.281.266-.406.073-.115.12-.172.14-.172l.61-1.156-4.172-9.438h2.781zm13.742-1.047a13.112 13.112 0 0 1 -.75 4.437c-.229.647-.5 1.235-.812 1.766a9.199 9.199 0 0 1 -.985 1.422 7.26 7.26 0 0 1 -1.062 1.062 4.6 4.6 0 0 1 -1.063.657l-.484-1.36c.333-.26.672-.614 1.016-1.062.343-.437.65-.979.922-1.625.27-.646.49-1.406.656-2.281.177-.875.265-1.875.265-3v-.235c0-1.125-.088-2.12-.265-2.984-.177-.875-.407-1.641-.688-2.297-.27-.656-.573-1.208-.906-1.656s-.667-.797-1-1.047l.484-1.36c.344.157.698.38 1.063.672s.719.646 1.062 1.063c.355.417.683.89.985 1.422.313.531.583 1.12.812 1.765.23.635.412 1.328.547 2.078.135.74.203 1.527.203 2.36z" fill="#fff" fill-rule="nonzero"/><path d="m464.076 82.518v59.937"/><path d="m464.076 94.518v35.937" stroke="#666" stroke-linejoin="round" stroke-width="2"/><path d="m467.38 94.518-3.304-9.076-3.303 9.076zm-6.607 35.937 3.303 9.077 3.304-9.077z" fill="#666" stroke="#666" stroke-width="2"/><path d="m464.076 86.952h57.008v51.086h-57.008z"/><path d="m481.74 106.43-.203 3.36h-1.25l.015-3.203v-1.172h1.438zm10.899 6.782 2.64-3.657h1.969l-3.672 4.875 3.766 4.985h-1.938l-2.734-3.75-2.719 3.75h-1.969l3.766-4.985-3.656-4.875h1.937zm11.492-6.782-.203 3.36h-1.25l.015-3.203v-1.172h1.438z" fill="#000" fill-rule="nonzero"/></g></g></svg>