<svg fill="none" stroke-linecap="square" stroke-miterlimit="10" viewBox="0 0 960 540" xmlns="http://www.w3.org/2000/svg" xmlns:xlink="http://www.w3.org/1999/xlink"><clipPath id="a"><path d="m0 0h960v540h-960z"/></clipPath><g clip-path="url(#a)"><path d="m0 0h960v540h-960z" fill="#fff" fill-rule="evenodd"/><path d="m38.514 28.213h515.748v303.622h-515.748z" fill="none"/><path d="m60.186 65.373q-.156-.297-.25-.75-.093-.454-.14-.938-.39.406-.89.766-.5.343-1.095.625-.593.265-1.265.422-.672.156-1.422.156-1.235 0-2.235-.344-1-.36-1.687-.969-.688-.609-1.078-1.453-.375-.844-.375-1.812 0-1.282.5-2.235.515-.953 1.437-1.593.938-.641 2.25-.954 1.313-.312 2.922-.312h2.906v-1.219q0-.703-.265-1.265-.25-.563-.735-.954-.468-.39-1.156-.593-.672-.219-1.515-.219-.782 0-1.407.203-.625.188-1.062.516-.422.328-.656.781-.235.453-.235.937h-2.672q.016-.843.438-1.656.422-.812 1.219-1.469.796-.656 1.937-1.046 1.14-.407 2.578-.407 1.313 0 2.438.328 1.14.313 1.968.97.829.655 1.297 1.624.47.969.47 2.281v7.204q0 .765.14 1.64.14.86.406 1.5v.235zm-4.686-2.016q.781 0 1.453-.203t1.219-.531q.562-.329.953-.75.406-.422.64-.875v-3.141h-2.468q-2.328 0-3.61.687-1.28.688-1.28 2.157 0 .578.187 1.062.187.485.578.844.39.344.968.547.594.203 1.36.203z" fill="#000"/><path d="m97.98 54.2h-12.782v-2.296h12.782zm0 5.938h-12.782v-2.281h12.782zm33.933 10.469q-.921-.016-1.687-.313-.75-.28-1.36-.765-.593-.485-1.03-1.14-.438-.641-.735-1.376-.297-.734-.438-1.515-.14-.782-.14-1.547v-2.422q0-2.063-.985-2.985-.984-.937-3-.953v-2.078q2.016 0 3-.922.985-.922.985-3v-2.421q0-.765.125-1.546.125-.782.39-1.516.282-.734.704-1.375.421-.656 1.015-1.14.61-.485 1.39-.766.782-.297 1.766-.328l.313 1.656q-1.031.031-1.64.484-.61.453-.923 1.172-.312.703-.406 1.594-.078.89-.078 1.765v2.422q-.016 1.72-.797 3.016-.781 1.297-2.453 1.969 1.672.656 2.453 1.953.781 1.297.797 3v2.422q0 .89.14 1.765.157.891.5 1.594.36.719.938 1.172.578.453 1.469.484l-.313 1.641z" fill="#e67c73"/><path d="m162.004 55.623 4.14-5.75h3.11l-5.766 7.671 5.922 7.829h-3.063l-4.281-5.907-4.281 5.907h-3.094l5.922-7.829-5.766-7.671h3.063z" fill="#000"/><path d="m178.822 63.654q0-.422.125-.797.14-.375.39-.656.266-.282.641-.438.39-.156.907-.156.515 0 .906.156.406.156.672.438.265.281.39.656.14.375.14.797 0 .422-.14.781-.125.36-.39.64-.266.266-.672.407-.39.156-.906.156t-.907-.156q-.375-.14-.64-.406-.25-.282-.391-.64-.125-.36-.125-.782zm0-13q0-.422.125-.797.14-.375.39-.656.266-.282.641-.438.39-.156.907-.156.515 0 .906.156.406.156.672.438.265.281.39.656.14.375.14.797 0 .422-.14.781-.125.36-.39.64-.266.266-.672.423-.39.14-.906.14t-.907-.14q-.375-.157-.64-.422-.25-.282-.391-.64-.125-.36-.125-.782z" fill="#e67c73"/><path d="m216.99 65.373h-2.64v-17.47l-5.453 2.079v-2.422l7.89-3.031h.203z" fill="#db4437"/><path d="m245.737 68.966q.875-.03 1.453-.484.594-.453.937-1.172.36-.703.5-1.594.157-.875.157-1.765v-2.422q0-1.703.78-3 .798-1.297 2.454-1.953-1.656-.672-2.453-1.969-.781-1.297-.781-3.016v-2.421q0-.875-.094-1.765-.094-.89-.406-1.594-.297-.719-.907-1.172-.593-.453-1.625-.484l.282-1.656q1 .03 1.765.328.781.281 1.375.765.61.485 1.031 1.141.422.64.688 1.375.281.734.406 1.516.14.78.14 1.546v2.422q0 2.078.985 3 .985.922 3 .922v2.078q-2.015.016-3 .953-.984.922-.984 2.985v2.422q0 1.156-.328 2.312-.313 1.172-.985 2.125-.656.969-1.672 1.578-1.015.625-2.421.641l-.297-1.64zm21.084-18.312q0-.422.125-.797.14-.375.39-.656.266-.282.641-.438.39-.156.906-.156t.907.156q.406.156.671.438.266.281.391.656.14.375.14.797 0 .422-.14.781-.125.36-.39.64-.266.266-.672.423-.391.14-.907.14-.515 0-.906-.14-.375-.157-.64-.422-.25-.282-.391-.64-.125-.36-.125-.782zm3.094 14.11q0 .671-.172 1.405-.157.735-.485 1.454-.312.734-.781 1.39-.453.656-1.047 1.172l-1.656-.906q.687-1 .969-2.14.297-1.126.297-2.345v-2.562h2.875v2.531z" fill="#e67c73"/><path d="m63.14 110.794q0 1.657-.407 3.11-.39 1.437-1.172 2.5-.765 1.047-1.906 1.656-1.14.594-2.625.594-1.484 0-2.578-.516-1.094-.531-1.875-1.531l-.125 1.766h-2.438v-22h2.657v8.171q.765-.953 1.828-1.453 1.078-.5 2.515-.5 1.485 0 2.625.594 1.157.578 1.922 1.625.782 1.047 1.172 2.5.406 1.453.406 3.188v.296zm-2.657-.296q0-1.125-.219-2.157-.218-1.03-.703-1.797-.484-.78-1.28-1.234-.782-.469-1.938-.469-.688 0-1.266.188-.563.172-1.016.5-.453.312-.797.75-.343.437-.593.953v6.766q.25.515.593.953.36.437.813.781.469.328 1.031.5.578.172 1.266.172 1.094 0 1.875-.438.781-.453 1.265-1.218.5-.782.735-1.797.234-1.016.234-2.157z" fill="#000"/><path d="m97.98 107.2h-12.782v-2.296h12.782v2.297zm0 5.938h-12.782v-2.281h12.782zm33.933 10.469q-.921-.016-1.687-.313-.75-.28-1.36-.765-.593-.485-1.03-1.14-.438-.641-.735-1.376-.297-.734-.438-1.515-.14-.782-.14-1.547v-2.422q0-2.063-.985-2.985-.984-.937-3-.953v-2.078q2.016 0 3-.922.985-.922.985-3v-2.422q0-.765.125-1.546.125-.782.39-1.516.282-.734.704-1.375.421-.656 1.015-1.14.61-.485 1.39-.766.782-.297 1.766-.328l.313 1.656q-1.031.031-1.64.484-.61.453-.923 1.172-.312.703-.406 1.594-.078.89-.078 1.765v2.422q-.016 1.72-.797 3.016-.781 1.297-2.453 1.969 1.672.656 2.453 1.953.781 1.297.797 3v2.422q0 .89.14 1.765.157.891.5 1.594.36.719.938 1.172.578.453 1.469.484z" fill="#e67c73"/><path d="m162.004 108.623 4.14-5.75h3.11l-5.766 7.671 5.922 7.829h-3.063l-4.281-5.907-4.281 5.907h-3.094l5.922-7.829-5.766-7.671h3.063z" fill="#000"/><path d="m178.822 116.654q0-.422.125-.797.14-.375.39-.656.266-.282.641-.438.39-.156.907-.156.515 0 .906.156.406.156.672.438.265.281.39.656.14.375.14.797 0 .422-.14.781-.125.36-.39.64-.266.266-.672.407-.39.156-.906.156t-.907-.156q-.375-.14-.64-.406-.25-.282-.391-.64-.125-.36-.125-.782zm0-13q0-.422.125-.797.14-.375.39-.656.266-.282.641-.438.39-.156.907-.156.515 0 .906.156.406.156.672.438.265.281.39.656.14.375.14.797 0 .422-.14.781-.125.36-.39.64-.266.266-.672.423-.39.14-.906.14t-.907-.14q-.375-.157-.64-.422-.25-.282-.391-.64-.125-.36-.125-.782z" fill="#e67c73"/><path d="m221.193 118.373h-13.656v-1.907l6.828-7.593q.907-1.016 1.516-1.797.625-.797 1-1.453.375-.672.531-1.266.156-.594.156-1.219 0-.781-.25-1.453-.25-.687-.734-1.187-.469-.5-1.156-.782-.688-.297-1.547-.297-1.031 0-1.797.297t-1.281.86q-.516.547-.766 1.328t-.25 1.765h-2.656q0-1.328.453-2.484.469-1.172 1.328-2.047.86-.875 2.11-1.39 1.265-.516 2.859-.516 1.484 0 2.656.437 1.188.438 2 1.22.828.765 1.266 1.827.437 1.063.437 2.313 0 .922-.328 1.828-.312.906-.86 1.797-.53.89-1.234 1.765-.703.86-1.5 1.72l-5.593 6.077h10.468z" fill="#db4437"/><path d="m245.737 121.966q.875-.03 1.453-.484.594-.453.937-1.172.36-.703.5-1.594.157-.875.157-1.765v-2.422q0-1.703.78-3 .798-1.297 2.454-1.953-1.656-.672-2.453-1.969-.781-1.297-.781-3.016v-2.422q0-.875-.094-1.765-.094-.89-.406-1.594-.297-.719-.907-1.172-.593-.453-1.625-.484l.282-1.656q1 .03 1.765.328.781.281 1.375.765.61.485 1.031 1.141.422.64.688 1.375.281.734.406 1.516.14.78.14 1.546v2.422q0 2.078.985 3 .985.922 3 .922v2.078q-2.015.016-3 .953-.984.922-.984 2.985v2.422q0 1.156-.328 2.312-.313 1.172-.985 2.125-.656.969-1.672 1.578-1.015.625-2.421.641l-.297-1.64zm21.084-18.312q0-.422.125-.797.14-.375.39-.656.266-.282.641-.438.39-.156.906-.156t.907.156q.406.156.671.438.266.281.391.656.14.375.14.797 0 .422-.14.781-.125.36-.39.64-.266.266-.672.423-.391.14-.907.14-.515 0-.906-.14-.375-.157-.64-.422-.25-.282-.391-.64-.125-.36-.125-.782zm3.094 14.11q0 .671-.172 1.405-.157.735-.485 1.454-.312.734-.781 1.39-.453.656-1.047 1.172l-1.656-.906q.687-1 .969-2.14.297-1.126.297-2.345v-2.562h2.875v2.531z" fill="#e67c73"/><path d="m766.283 236.218c0-10.718 8.69-19.407 19.408-19.407h133.752a19.407 19.407 0 0 1 19.407 19.407v77.627c0 10.718-8.689 19.407-19.407 19.407h-133.752c-10.719 0-19.408-8.689-19.408-19.407z" fill="#fbbc05" fill-opacity=".377" fill-rule="evenodd"/><path d="m766.283 236.218c0-10.718 8.69-19.407 19.408-19.407h133.752a19.407 19.407 0 0 1 19.407 19.407v77.627c0 10.718-8.689 19.407-19.407 19.407h-133.752c-10.719 0-19.408-8.689-19.408-19.407z" stroke="#666" stroke-linecap="butt" stroke-linejoin="round"/><path d="m783.202 229.99v2.781h-1.453v-7.578h2.578q.625 0 1.125.188.5.172.844.5.36.312.547.766.187.437.187.984 0 .516-.187.953-.188.422-.547.75-.344.313-.844.484-.5.172-1.125.172zm0-1.187h1.125q.313 0 .547-.094.234-.094.375-.25.156-.156.234-.36.078-.218.078-.452 0-.266-.078-.485-.078-.234-.234-.406-.14-.172-.375-.266-.235-.11-.547-.11h-1.125zm8.942-1.766q.328 0 .593.047.282.047.454.094l-.204 1.437q-.296-.062-.593-.094-.297-.03-.563-.03-.61 0-.984.234-.36.234-.547.672v3.375h-1.438v-5.625h1.344l.063.921q.343-.484.812-.75.485-.28 1.063-.28zm2.144 2.875q0-.625.172-1.14.188-.532.532-.907.343-.39.828-.61.5-.218 1.125-.218.64 0 1.125.219.5.219.843.61.344.374.516.905.172.516.172 1.141v.11q0 .609-.172 1.14-.172.516-.516.906-.343.375-.843.594-.485.219-1.11.219-.64 0-1.14-.219-.485-.219-.828-.594-.344-.39-.532-.906-.172-.531-.172-1.14zm1.454.11q0 .343.062.656.078.312.219.547.14.218.375.359.234.14.562.14.313 0 .532-.14.234-.14.375-.36.156-.234.218-.546.063-.313.063-.656v-.11q0-.344-.063-.656-.062-.313-.218-.547-.141-.234-.375-.36-.22-.14-.547-.14-.328 0-.563.14-.219.126-.36.36-.14.234-.218.547-.062.312-.062.656zm10.207-.016q0 .61-.156 1.14-.141.532-.422.922-.266.375-.688.594-.406.219-.937.219-.453 0-.797-.156-.344-.157-.594-.438v2.656h-1.453v-7.797h1.344l.047.547q.265-.312.609-.484.36-.172.828-.172.547 0 .953.203.407.203.688.594.281.375.422.906.156.516.156 1.156zm-1.453-.11q0-.343-.063-.656-.062-.312-.203-.531-.14-.234-.36-.36-.218-.14-.515-.14-.39 0-.625.156-.234.14-.375.422v2.344q.14.266.375.422.235.156.625.156.313 0 .531-.125.22-.14.344-.375.14-.234.203-.547.063-.312.063-.656zm5.52 2.985q-.657 0-1.188-.219-.531-.219-.906-.578-.375-.375-.594-.86-.203-.5-.203-1.077v-.204q0-.64.203-1.172.203-.53.563-.921.375-.391.875-.594.5-.219 1.078-.219.609 0 1.078.203.484.203.812.563.344.36.516.875.172.515.172 1.14v.61h-3.828q.047.281.172.515.125.235.312.407.203.172.453.265.266.094.563.094.218 0 .422-.031.218-.047.406-.125.203-.078.36-.203.171-.125.296-.282l.719.782q-.125.187-.344.375-.219.187-.516.328-.296.14-.656.234-.36.094-.765.094zm-.172-4.672q-.25 0-.453.094-.204.078-.36.25-.14.156-.25.375-.11.219-.156.5h2.375v-.11q-.016-.234-.094-.437-.078-.203-.234-.344-.14-.156-.36-.234-.203-.094-.468-.094zm7.879-1.172q.328 0 .594.047.28.047.453.094l-.203 1.437q-.297-.062-.594-.094-.297-.03-.563-.03-.61 0-.984.234-.36.234-.547.672v3.375h-1.437v-5.625h1.343l.063.921q.344-.484.812-.75.485-.28 1.063-.28zm5.004-1.281v1.39h2.094v1.063h-2.094v2.422q0 .297.062.516.079.203.204.328.125.109.312.172.188.046.422.046.156 0 .328-.015l.344-.031q.156-.032.297-.047.14-.032.234-.063l.14 1q-.156.078-.359.156-.203.063-.437.094-.219.047-.469.063-.25.03-.484.03-.469 0-.844-.124-.375-.125-.64-.375-.266-.266-.423-.656-.14-.407-.14-.953v-2.563h-1.281v-1.063h1.28v-1.39zm6.13 4.656.171.594 1.5-3.86h1.594l-2.86 6.47q-.093.218-.25.468-.14.25-.359.453-.219.219-.547.36-.312.156-.75.156-.11 0-.203-.016-.078 0-.172-.016l-.156-.03q-.078-.016-.172-.048l.172-1.109h.234q.14.016.219.016.172 0 .297-.11.14-.094.234-.219.094-.124.14-.234.063-.094.095-.094l.343-.656-2.39-5.39h1.594l1.265 3.265zm10.789-3.266h3.062v4.454h1.516v1.172h-4.578v-1.172h1.593v-3.282h-1.593zm1.5-1.453q0-.156.047-.297.062-.156.171-.25.11-.109.266-.156.156-.062.344-.062.375 0 .594.219.234.218.234.546 0 .344-.234.563-.22.219-.594.219-.188 0-.344-.063-.156-.062-.266-.156-.109-.11-.171-.25-.047-.14-.047-.313zm5.816 1.453.094.782q.297-.422.719-.656.437-.235.969-.235.422 0 .765.125.36.125.61.406.265.266.406.703.156.422.156 1.032v3.469h-1.453v-3.438q0-.344-.078-.547-.078-.219-.219-.344-.14-.125-.344-.172-.187-.062-.437-.062-.375 0-.64.156-.25.14-.407.406v4h-1.453v-5.624h1.312zm6.489 5.626v-4.563h-1.484v-1.063h1.484v-.312q0-.563.172-.984.172-.422.5-.72.328-.296.797-.437.468-.14 1.047-.14.187 0 .343.015.172 0 .328.032.172.015.329.047.171.015.343.046l-.093 1.141q-.188-.047-.438-.078t-.594-.031q-.672 0-.984.297-.313.28-.313.812v.313h2.032v1.062h-2.032v4.563zm4.785-2.86q0-.625.172-1.14.188-.532.531-.907.344-.39.829-.61.5-.218 1.125-.218.64 0 1.125.219.5.219.843.61.344.374.516.905.172.516.172 1.141v.11q0 .609-.172 1.14-.172.516-.516.906-.343.375-.843.594-.485.219-1.11.219-.64 0-1.14-.219-.485-.219-.829-.594-.343-.39-.53-.906-.173-.531-.173-1.14zm1.453.11q0 .343.063.656.078.312.219.547.14.218.375.359.234.14.562.14.313 0 .531-.14.235-.14.375-.36.157-.234.22-.546.062-.313.062-.656v-.11q0-.344-.063-.656-.062-.313-.219-.547-.14-.234-.375-.36-.218-.14-.546-.14-.329 0-.563.14-.219.126-.36.36-.14.234-.218.547-.063.312-.063.656zm9.192-2.985q.328 0 .594.047.281.047.453.094l-.203 1.437q-.297-.062-.594-.094-.297-.03-.562-.03-.61 0-.985.234-.36.234-.547.672v3.375h-1.437v-5.625h1.344l.062.921q.344-.484.813-.75.484-.28 1.062-.28zm3.254.11.032.671q.171-.359.453-.562.28-.219.687-.219.672 0 .89.594.157-.281.407-.438.266-.156.64-.156.25 0 .47.094.218.094.374.297.172.203.266.531.094.328.094.797v4.016h-1.313v-4.016q0-.172-.047-.266-.03-.11-.093-.172-.047-.062-.125-.078-.078-.031-.157-.031-.14 0-.25.078-.109.063-.156.188v4.297h-1.281v-4.032q0-.156-.031-.25-.032-.11-.094-.172-.047-.062-.125-.078-.063-.031-.14-.031-.173 0-.282.094-.094.094-.156.25v4.219h-1.313v-5.625zm9.004 5.625q-.046-.11-.093-.235-.032-.14-.063-.297-.11.14-.265.25-.157.11-.36.203-.187.078-.422.125-.218.063-.484.063-.422 0-.797-.125-.36-.125-.625-.344-.25-.234-.406-.547-.14-.312-.14-.672 0-.89.655-1.375.672-.484 1.985-.484h.812v-.328q0-.406-.265-.64-.266-.25-.766-.25-.437 0-.64.202-.204.188-.204.5h-1.453q0-.359.156-.672.172-.328.47-.578.312-.25.75-.39.437-.14 1-.14.515 0 .952.124.438.125.75.375.328.234.516.61.187.375.187.859v2.422q0 .453.047.75.063.297.172.5v.094zm-1.375-1.016q.22 0 .407-.047.187-.063.328-.14.156-.079.265-.188.11-.11.172-.219v-.969h-.734q-.344 0-.578.063-.235.062-.39.187-.157.11-.235.282-.063.156-.063.359 0 .281.203.484.204.188.625.188zm6.91-6v1.39h2.095v1.063h-2.094v2.422q0 .297.062.516.079.203.204.328.125.109.312.172.188.046.422.046.156 0 .328-.015l.344-.031q.156-.032.297-.047.14-.032.234-.063l.14 1q-.156.078-.359.156-.203.063-.437.094-.219.047-.469.063-.25.03-.484.03-.47 0-.844-.124-.375-.125-.64-.375-.266-.266-.423-.656-.14-.407-.14-.953v-2.563h-1.281v-1.063h1.28v-1.39h1.454zm4.13 1.39h3.063v4.454h1.515v1.172h-4.578v-1.172h1.594v-3.282h-1.594zm1.5-1.453q0-.156.047-.297.062-.156.172-.25.11-.109.265-.156.157-.062.344-.062.375 0 .594.219.234.218.234.546 0 .344-.234.563-.219.219-.594.219-.187 0-.344-.063-.156-.062-.265-.156-.11-.11-.172-.25-.047-.14-.047-.313zm4.301 4.22q0-.626.172-1.142.187-.53.531-.906.344-.39.828-.61.5-.218 1.125-.218.64 0 1.125.219.5.219.844.61.344.374.516.905.172.516.172 1.141v.11q0 .609-.172 1.14-.172.516-.516.906-.344.375-.844.594-.484.219-1.11.219-.64 0-1.14-.219-.484-.219-.828-.594-.344-.39-.531-.906-.172-.531-.172-1.14v-.11zm1.453.108q0 .344.063.657.078.312.218.547.141.218.375.359.235.14.563.14.312 0 .531-.14.235-.14.375-.36.156-.234.219-.546.062-.313.062-.656v-.11q0-.344-.062-.656-.063-.313-.219-.547-.14-.234-.375-.36-.219-.14-.547-.14-.328 0-.562.14-.219.126-.36.36-.14.234-.218.547-.063.312-.063.656v.11zm6.458-2.874.093.78q.297-.421.719-.655.438-.235.969-.235.422 0 .765.125.36.125.61.406.265.266.406.703.156.422.156 1.032v3.469h-1.453v-3.438q0-.344-.078-.547-.078-.219-.219-.344-.14-.125-.343-.172-.188-.062-.438-.062-.375 0-.64.156-.25.14-.407.406v4h-1.453v-5.624z" fill="#000"/><path d="m786.796 259.428q0 .406-.063.812-.062.406-.203.797-.14.39-.36.719-.202.328-.5.578-.28.25-.655.406-.375.14-.844.14t-.844-.14q-.375-.156-.672-.406-.297-.25-.515-.578-.204-.344-.344-.719-.14-.39-.203-.797-.063-.406-.078-.812v-.875q.015-.407.078-.813.062-.422.203-.797.14-.39.344-.718.218-.344.5-.594.296-.25.671-.39.375-.157.844-.157t.844.156q.39.14.672.39.297.25.5.595.219.328.36.718.14.375.202.797.063.406.063.813zm-.953-.875q0-.282-.032-.563-.03-.297-.109-.578-.078-.297-.203-.562-.125-.266-.313-.47-.187-.202-.437-.312-.25-.125-.594-.125-.328 0-.594.125-.25.125-.437.328-.188.188-.313.454-.125.265-.203.562-.062.281-.11.578-.03.297-.03.563v.875q0 .265.03.562.048.281.126.578.078.282.203.547.125.266.313.469.187.203.437.328.25.11.594.11.328 0 .578-.11.266-.125.453-.328.188-.203.313-.453.125-.266.187-.547.078-.297.11-.594.03-.297.03-.562v-.875zm3.863 4.218v-4.89h-1.547v-.735h1.547v-.406q0-.531.156-.937.157-.422.438-.688.297-.281.703-.422.406-.14.906-.14.344 0 .672.062.328.063.672.14l-.125.798q-.203-.078-.5-.125-.281-.063-.594-.063-.687.016-1.03.36-.329.328-.329 1.015v.406h2.172v.735h-2.172v4.89zm6.4 0v-4.89h-1.547v-.735h1.547v-.406q0-.531.156-.937.157-.422.438-.688.297-.281.703-.422.406-.14.906-.14.344 0 .672.062.328.063.672.14l-.125.798q-.203-.078-.5-.125-.281-.063-.594-.063-.687.016-1.03.36-.329.328-.329 1.015v.406h2.172v.735h-2.172v4.89zm8.697-1.5q0-.171-.062-.296-.063-.141-.235-.25-.156-.125-.422-.22-.265-.093-.656-.171-.484-.11-.89-.234-.391-.141-.672-.329-.282-.203-.438-.468-.156-.266-.156-.61 0-.343.156-.64.156-.313.453-.532.297-.218.688-.343.406-.14.89-.14.516 0 .938.14.422.125.703.375.297.234.453.562.156.313.156.688h-.953q0-.188-.094-.36-.093-.172-.265-.312-.172-.14-.406-.219-.235-.078-.532-.078-.312 0-.547.062-.218.063-.375.188-.156.11-.234.266-.078.14-.078.312 0 .156.062.297.063.125.22.234.155.094.405.188.266.078.657.156.515.11.922.25.421.14.703.344.28.203.422.469.156.265.156.609 0 .375-.172.687-.172.297-.469.516-.297.219-.719.344-.421.125-.921.125-.579 0-1.032-.156-.437-.157-.75-.407-.312-.25-.484-.578-.156-.344-.156-.703h.968q.016.297.157.5.14.203.343.328.204.125.454.188.25.047.5.047.609 0 .953-.22.36-.234.36-.609zm5.145 1.61q-.594 0-1.094-.203-.484-.203-.844-.563-.359-.375-.562-.875-.188-.5-.188-1.094v-.203q0-.687.22-1.218.218-.547.577-.922.36-.375.813-.563.468-.203.953-.203.61 0 1.062.219.453.203.75.578.313.375.453.875.157.5.157 1.094v.422h-4.016q.016.39.14.734.141.328.36.594.234.25.547.39.328.141.719.141.515 0 .922-.203.406-.203.671-.547l.579.453q-.141.219-.36.422-.203.187-.484.344-.266.14-.625.234-.344.094-.75.094zm-.125-5.047q-.297 0-.563.11-.25.093-.453.312-.203.203-.36.5-.14.297-.187.687h3.016v-.078q-.016-.281-.11-.547-.078-.28-.265-.5-.172-.218-.438-.343-.265-.141-.64-.141zm6.317-2.063v1.375h2.14v.735h-2.14v3.062q0 .328.078.547.078.203.218.344.157.125.344.172.188.047.406.047.157 0 .313-.016l.328-.031q.172-.031.297-.063.14-.03.234-.047l.14.672q-.124.078-.296.141-.172.047-.375.078-.203.047-.437.063-.22.03-.438.03-.375 0-.703-.109-.328-.109-.563-.343-.234-.235-.375-.594-.14-.375-.14-.89v-3.063h-1.485v-.735h1.485v-1.375z" fill="#673ab7"/><path d="m821.925 262.146q0-.156.047-.28.047-.141.14-.235.094-.11.235-.172.14-.063.328-.063.187 0 .328.063.156.062.25.172.094.094.14.234.048.125.048.281 0 .157-.047.297-.047.125-.141.22-.094.093-.25.14-.14.062-.328.062t-.328-.062q-.14-.047-.235-.14-.093-.095-.14-.22-.047-.14-.047-.297zm0-5q0-.156.047-.28.047-.141.14-.235.094-.11.235-.172.14-.063.328-.063.187 0 .328.063.156.062.25.172.094.094.14.234.048.125.048.281 0 .157-.047.297-.047.125-.141.22-.094.093-.25.155-.14.047-.328.047t-.328-.047q-.14-.062-.235-.156-.093-.094-.14-.219-.047-.14-.047-.297z" fill="#e67c73"/><path d="m837.793 259.88q0 .72-.172 1.282-.157.547-.469.938-.313.375-.766.578-.453.203-1.03.203-.579 0-1.032-.203-.453-.203-.781-.578-.313-.391-.485-.938-.172-.562-.172-1.281v-1.781q0-.72.172-1.282t.485-.937q.312-.39.765-.594.453-.203 1.031-.203.579 0 1.032.203.468.203.781.594.312.375.469.937.172.563.172 1.282zm-3.938-.202 2.953-2.266q-.078-.75-.437-1.14-.36-.391-1.032-.391-.75 0-1.125.515-.359.5-.359 1.485zm2.969-1.344-2.938 2.25q.094.734.453 1.125.36.39 1.016.39.766 0 1.11-.515.359-.531.359-1.5z" fill="#db4437"/><path d="m780.968 267.531h121.5v12.8h-121.5z" fill="#ff0"/><path d="m780.968 266.605h89.527v14.054h-89.527z" fill="none"/><path d="m784.374 274.678h-1.5v3.093h-.969v-7.578h2.219q.531.016 1 .157.469.14.812.421.36.282.563.704.203.421.203 1 0 .359-.11.671-.109.313-.296.563-.188.25-.453.437-.25.188-.563.329l1.61 3.234v.062h-1.016zm-1.5-.782h1.281q.328-.015.61-.109.28-.094.5-.266.218-.187.343-.453.125-.265.125-.609 0-.36-.125-.625-.11-.281-.328-.469-.219-.187-.515-.281-.282-.094-.641-.094h-1.25zm7.88 3.985q-.595 0-1.095-.203-.484-.203-.843-.563-.36-.375-.563-.875-.187-.5-.187-1.094v-.203q0-.687.218-1.218.22-.547.578-.922.36-.375.813-.563.469-.203.953-.203.61 0 1.063.219.453.203.75.578.312.375.453.875.156.5.156 1.094v.422h-4.016q.016.39.14.734.142.328.36.594.235.25.547.39.328.141.719.141.516 0 .922-.203t.672-.547l.578.453q-.14.219-.36.422-.203.187-.484.344-.266.14-.625.234-.344.094-.75.094zm-.126-5.047q-.297 0-.562.11-.25.093-.454.312-.203.203-.359.5-.14.297-.187.687h3.015v-.078q-.015-.281-.11-.547-.077-.28-.265-.5-.172-.218-.437-.343-.266-.141-.64-.141zm8.785 2.187q0 .594-.156 1.125-.14.516-.422.907-.28.39-.703.61-.406.218-.937.218-.516 0-.907-.172-.39-.172-.671-.484v2.718h-.954v-7.797h.875l.047.61q.282-.344.672-.531.406-.188.922-.188.547 0 .953.219.422.203.703.594.282.375.422.906.156.531.156 1.156v.11zm-.968-.109q0-.406-.094-.781-.078-.375-.281-.656-.188-.282-.485-.454-.28-.171-.687-.171-.469 0-.781.218-.313.22-.5.563v2.703q.187.328.5.547.312.203.796.203.391 0 .688-.156.297-.172.484-.453.188-.297.266-.672.094-.375.094-.782zm6.3-2.875q.141 0 .282.016.14 0 .266.015.14.016.25.047.125.031.187.063l-.125.937q-.281-.062-.531-.094-.25-.03-.531-.03-.672 0-1.094.312-.422.312-.625.86v3.608h-.953v-5.625h.906l.047.891q.344-.469.828-.734.484-.266 1.094-.266zm5.192 5.844q-.593 0-1.093-.203-.485-.203-.844-.563-.36-.375-.563-.875-.187-.5-.187-1.094v-.203q0-.687.219-1.218.218-.547.578-.922t.812-.563q.47-.203.953-.203.61 0 1.063.219.453.203.75.578.312.375.453.875.156.5.156 1.094v.422h-4.015q.015.39.14.734.14.328.36.594.234.25.547.39.328.141.718.141.516 0 .922-.203t.672-.547l.578.453q-.14.219-.36.422-.202.187-.484.344-.265.14-.625.234-.343.094-.75.094zm-.125-5.047q-.296 0-.562.11-.25.093-.453.312-.203.203-.36.5-.14.297-.187.687h3.016v-.078q-.016-.281-.11-.547-.078-.28-.265-.5-.172-.218-.438-.343-.266-.141-.64-.141zm7.77 3.437q0-.171-.062-.296-.063-.141-.235-.25-.156-.125-.422-.22-.265-.093-.656-.171-.484-.11-.89-.234-.391-.141-.672-.329-.282-.203-.438-.468-.156-.266-.156-.61 0-.343.156-.64.156-.313.453-.532.297-.218.688-.343.406-.14.89-.14.516 0 .938.14.422.125.703.375.297.234.453.562.156.313.156.688h-.953q0-.188-.093-.36-.094-.172-.266-.312-.172-.14-.406-.219-.235-.078-.532-.078-.312 0-.546.062-.22.063-.375.188-.157.11-.235.266-.078.14-.078.312 0 .156.063.297.062.125.218.234.157.094.407.188.265.078.656.156.515.11.922.25.422.14.703.344.281.203.422.469.156.265.156.609 0 .375-.172.687-.172.297-.469.516-.297.219-.718.344-.422.125-.922.125-.578 0-1.032-.156-.437-.157-.75-.407-.312-.25-.484-.578-.156-.344-.156-.703h.969q.015.297.156.5.14.203.344.328.203.125.453.188.25.047.5.047.61 0 .953-.22.36-.234.36-.609zm5.145 1.61q-.594 0-1.094-.203-.484-.203-.844-.563-.359-.375-.562-.875-.188-.5-.188-1.094v-.203q0-.687.22-1.218.218-.547.577-.922.36-.375.813-.563.469-.203.953-.203.61 0 1.062.219.454.203.75.578.313.375.454.875.156.5.156 1.094v.422h-4.016q.016.39.14.734.141.328.36.594.235.25.547.39.328.141.719.141.515 0 .922-.203.406-.203.672-.547l.578.453q-.14.219-.36.422-.203.187-.484.344-.266.14-.625.234-.344.094-.75.094zm-.125-5.047q-.297 0-.563.11-.25.093-.453.312-.203.203-.359.5-.14.297-.188.687h3.016v-.078q-.016-.281-.11-.547-.077-.28-.265-.5-.172-.218-.437-.343-.266-.141-.641-.141zm4.895-.688.078.829q.297-.438.734-.688.453-.25 1.016-.25.437 0 .797.125.36.125.61.39.265.266.405.673.141.406.141.968v3.578h-.969v-3.546q0-.375-.093-.641-.079-.266-.25-.422-.157-.156-.391-.234-.234-.078-.547-.078-.484 0-.844.25-.36.234-.578.64v4.031h-.969v-5.625zm7.816-1.375v1.375h2.141v.735h-2.14v3.062q0 .328.078.547.078.203.218.344.157.125.344.172.188.047.406.047.157 0 .313-.016l.328-.031q.172-.031.297-.063.14-.03.234-.047l.14.672q-.124.078-.296.141-.172.047-.375.078-.203.047-.438.063-.218.03-.437.03-.375 0-.703-.109-.328-.109-.563-.343-.234-.235-.375-.594-.14-.375-.14-.89v-3.063h-1.485v-.735h1.485v-1.375zm7.817 7q-.062-.109-.094-.265-.03-.172-.046-.344-.157.14-.344.281-.172.125-.39.22-.204.093-.454.155-.25.063-.516.063-.453 0-.812-.125-.36-.14-.61-.36-.25-.218-.39-.515-.14-.313-.14-.672 0-.469.187-.813.187-.343.515-.578.344-.234.813-.343.484-.11 1.062-.11h1.063v-.453q0-.25-.094-.453t-.265-.344q-.172-.14-.422-.219-.25-.078-.563-.078-.281 0-.515.078-.22.063-.375.188-.157.11-.25.281-.079.156-.079.344h-.968q.015-.313.156-.61.156-.296.437-.53.297-.235.704-.376.421-.156.953-.156.468 0 .875.125.422.11.718.344.297.234.47.594.171.359.171.828v2.61q0 .28.047.608.062.313.156.547v.078zm-1.703-.734q.281 0 .516-.062.25-.079.453-.204.203-.125.344-.265.14-.156.234-.328v-1.14h-.906q-.844 0-1.313.25-.453.25-.453.78 0 .22.063.391.078.172.218.312.14.125.344.204.219.062.5.062zm6.676-6.266v1.375h2.14v.735h-2.14v3.062q0 .328.078.547.078.203.219.344.156.125.344.172.187.047.406.047.156 0 .312-.016l.329-.031q.171-.031.296-.063.141-.03.235-.047l.14.672q-.125.078-.296.141-.172.047-.375.078-.204.047-.438.063-.219.03-.437.03-.375 0-.704-.109-.328-.109-.562-.343-.234-.235-.375-.594-.14-.375-.14-.89v-3.063h-1.485v-.735h1.484v-1.375zm4.27 1.375h2.875v4.797h1.828v.828h-4.703v-.828h1.906v-3.968h-1.906zm1.781-1.484q0-.234.14-.39.141-.172.438-.172.281 0 .422.171.156.157.156.391t-.156.39q-.14.157-.422.157-.297 0-.437-.156-.14-.157-.14-.39zm4.192 4.25q0-.61.172-1.125.172-.531.5-.922.343-.39.812-.61.469-.218 1.063-.218.593 0 1.062.219.485.219.813.61.343.39.515.921.172.516.172 1.125v.11q0 .609-.172 1.124-.172.516-.515.907-.328.39-.797.61-.469.218-1.063.218-.593 0-1.078-.219-.469-.219-.812-.61-.328-.39-.5-.906-.172-.515-.172-1.125zm.953.11q0 .406.094.796.109.375.312.657.203.28.5.453.297.172.703.172.39 0 .688-.172.297-.172.5-.453.203-.282.297-.657.109-.39.109-.797v-.109q0-.422-.11-.797-.093-.375-.296-.656-.203-.297-.5-.453-.297-.172-.703-.172-.407 0-.703.172-.282.156-.485.453-.203.281-.312.656-.094.375-.094.797zm6.567-2.876.078.829q.297-.438.734-.688.453-.25 1.016-.25.437 0 .797.125.359.125.609.39.266.266.406.673.14.406.14.968v3.578h-.968v-3.546q0-.375-.094-.641-.078-.266-.25-.422-.156-.156-.39-.234-.235-.078-.547-.078-.485 0-.844.25-.36.234-.578.64v4.031h-.969v-5.625z" fill="#673ab7"/><path d="m870.495 266.605h6.395v14.054h-6.395z" fill="none"/><path d="m873.073 277.146q0-.156.047-.28.047-.141.14-.235.094-.11.235-.172.14-.063.328-.063.187 0 .328.063.156.062.25.172.094.094.14.234.047.125.047.281 0 .157-.046.297-.047.125-.141.22-.094.093-.25.14-.14.062-.328.062t-.328-.062q-.14-.047-.235-.14-.093-.095-.14-.22-.047-.14-.047-.297zm0-5q0-.156.047-.28.047-.141.14-.235.094-.11.235-.172.14-.063.328-.063.187 0 .328.063.156.062.25.172.094.094.14.234.047.125.047.281 0 .157-.046.297-.047.125-.141.22-.094.093-.25.155-.14.047-.328.047t-.328-.047q-.14-.062-.235-.156-.093-.094-.14-.219-.047-.14-.047-.297z" fill="#e67c73"/><path d="m876.89 266.605h6.394v14.054h-6.395v-14.054zm6.394 0h19.185v14.054h-19.185z" fill="none"/><path d="m888.16 275.85q0-.344-.173-.579-.156-.234-.406-.39-.25-.172-.547-.281-.297-.11-.578-.204-.39-.125-.812-.312-.407-.188-.75-.453-.344-.266-.563-.625-.203-.36-.203-.844 0-.5.203-.875.219-.39.563-.656.36-.266.797-.406.437-.141.89-.141.5 0 .953.172.453.156.813.453.36.297.562.719.22.422.235.953h-1q-.032-.328-.157-.594-.125-.281-.328-.469-.187-.187-.468-.297-.266-.109-.61-.109-.281 0-.547.078-.25.078-.453.235-.203.156-.328.39-.125.219-.125.531 0 .329.156.563.172.219.422.375t.531.266q.282.093.547.171.282.094.563.204.281.109.547.265.265.14.5.328.234.172.406.407.172.234.266.515.093.266.093.61 0 .5-.234.89-.219.375-.578.625-.36.25-.813.39-.453.126-.906.126-.5 0-.984-.156-.485-.157-.875-.454-.375-.296-.625-.718-.235-.422-.25-.969h.984q.047.36.188.64.156.266.375.454.234.187.53.281.298.094.657.094.281 0 .547-.063.281-.078.484-.219.22-.156.36-.375.14-.234.14-.546zm2.863-3.704.031.532q.172-.297.453-.469t.672-.172q.766 0 1.031.61.172-.282.438-.438.281-.172.672-.172.61 0 .937.39.344.376.344 1.141v4.203h-.922v-4.218q0-.703-.64-.703-.172 0-.297.046-.125.047-.22.141-.077.078-.124.188-.047.093-.063.218v4.328h-.922v-4.218q0-.344-.156-.516-.14-.187-.469-.187-.296 0-.468.125-.157.125-.235.312v4.484h-.922v-5.625zm6.113 0h2.875v4.797h1.828v.828h-4.703v-.828h1.907v-3.968h-1.907zm1.782-1.484q0-.234.14-.39.14-.172.438-.172.281 0 .422.171.156.157.156.391t-.156.39q-.141.157-.422.157-.297 0-.438-.156-.14-.157-.14-.39z" fill="#db4437"/><path d="m902.469 266.605v14.054z" fill="none"/><path d="m785.249 284.896h-1.156v8.704h1.156v.796h-2.063v-10.28h2.063zm6.395 0h-1.157v8.704h1.157v.796h-2.063v-10.28h2.063z" fill="#e67c73"/><path d="m798.413 290.725.579-5.532h.921l-.921 7.578h-.985l-.984-5.703-.969 5.703h-1l-.922-7.578h.922l.578 5.532.969-5.532h.844zm6.333-3.688q.14 0 .281.016.14 0 .266.015.14.016.25.047.125.031.187.063l-.125.937q-.281-.062-.531-.094-.25-.03-.531-.03-.672 0-1.094.312-.422.312-.625.86v3.608h-.953v-5.625h.906l.047.891q.344-.469.828-.734.484-.266 1.094-.266zm2.863.11h2.875v4.796h1.828v.828h-4.703v-.828h1.907v-3.968h-1.907v-.829zm1.782-1.485q0-.234.14-.39.14-.172.438-.172.28 0 .422.171.156.157.156.391t-.156.39q-.141.157-.422.157-.297 0-.438-.156-.14-.157-.14-.39zm6.738.11v1.374h2.14v.735h-2.14v3.062q0 .328.078.547.078.203.219.344.156.125.344.172.187.047.406.047.156 0 .312-.016l.329-.031q.171-.031.296-.063.141-.03.235-.047l.14.672q-.125.078-.296.141-.172.047-.375.078-.204.047-.438.063-.219.03-.437.03-.375 0-.704-.109-.328-.109-.562-.343-.234-.235-.375-.594-.14-.375-.14-.89v-3.063h-1.485v-.735h1.484v-1.375h.97zm7.817 7q-.063-.11-.094-.266-.031-.172-.047-.344-.156.14-.344.281-.172.125-.39.22-.203.093-.453.155-.25.063-.516.063-.453 0-.813-.125-.359-.14-.609-.36-.25-.218-.39-.515-.141-.313-.141-.672 0-.469.187-.813.188-.343.516-.578.344-.234.812-.343.485-.11 1.063-.11h1.062v-.453q0-.25-.093-.453-.094-.203-.266-.344-.172-.14-.422-.219-.25-.078-.562-.078-.282 0-.516.078-.219.063-.375.188-.156.11-.25.281-.078.156-.078.344h-.969q.016-.313.156-.61.157-.296.438-.53.297-.235.703-.376.422-.156.953-.156.469 0 .875.125.422.11.719.344.297.234.469.594.172.359.172.828v2.61q0 .28.046.608.063.313.157.547v.078h-1zm-1.703-.735q.28 0 .515-.062.25-.079.453-.204.203-.125.344-.265.14-.156.234-.328v-1.14h-.906q-.844 0-1.312.25-.453.25-.453.78 0 .22.062.391.078.172.219.312.14.125.344.204.218.062.5.062zm9.16-2.016q0 .594-.14 1.125-.141.516-.422.907-.282.39-.704.61-.406.218-.953.218-.53 0-.937-.188-.39-.203-.672-.562l-.047.64h-.89v-8h.968v2.97q.281-.345.656-.516.391-.188.922-.188.532 0 .953.219.422.203.704.594.28.375.421.906.141.531.141 1.156v.11zm-.953-.109q0-.406-.094-.781-.078-.375-.25-.656-.172-.282-.469-.454-.28-.171-.703-.171-.25 0-.453.078-.203.062-.375.187-.156.11-.281.266-.125.156-.219.344v2.453q.094.187.219.36.125.155.297.28.172.11.375.172.203.063.453.063.39 0 .672-.157.297-.171.469-.453.187-.28.265-.64.094-.375.094-.782zm2.738-5.14h2.875v7.171h1.829v.828h-4.704v-.828h1.907v-6.328h-1.907v-.844zm8.723 8.109q-.593 0-1.093-.203-.485-.203-.844-.563-.36-.375-.563-.875-.187-.5-.187-1.094v-.203q0-.687.219-1.218.218-.547.578-.922t.812-.563q.469-.203.953-.203.61 0 1.063.219.453.203.75.578.312.375.453.875.156.5.156 1.094v.422h-4.015q.015.39.14.734.14.328.36.594.234.25.546.39.329.141.72.141.515 0 .921-.203t.672-.547l.578.453q-.14.219-.36.422-.202.187-.484.344-.265.14-.625.234-.343.094-.75.094zm-.125-5.047q-.297 0-.562.11-.25.093-.453.312-.203.203-.36.5-.14.297-.187.687h3.015v-.078q-.015-.281-.109-.547-.078-.28-.266-.5-.171-.218-.437-.343-.266-.141-.64-.141z" fill="#673ab7"/><path d="m847.025 284.115h2.062v10.281h-2.062v-.796h1.156v-8.704h-1.156v-.78zm6.395 0h2.062v10.281h-2.062v-.796h1.156v-8.704h-1.156v-.78zm6.863 8.031q0-.156.047-.28.047-.141.14-.235.095-.11.235-.172.14-.063.328-.063t.328.063q.157.062.25.172.094.094.141.234.047.125.047.281 0 .157-.047.297-.047.125-.14.22-.094.093-.25.14-.141.062-.329.062-.187 0-.328-.062-.14-.047-.234-.14-.094-.095-.14-.22-.048-.14-.048-.297zm0-5q0-.156.047-.28.047-.141.14-.235.095-.11.235-.172.14-.063.328-.063t.328.063q.157.062.25.172.094.094.141.234.047.125.047.281 0 .157-.047.297-.047.125-.14.22-.094.093-.25.155-.141.047-.329.047-.187 0-.328-.047-.14-.062-.234-.156t-.14-.219q-.048-.14-.048-.297z" fill="#e67c73"/><path d="m873.682 285.771v1.375h2.14v.735h-2.14v3.062q0 .328.078.547.078.203.22.344.155.125.343.172.187.047.406.047.156 0 .313-.016l.328-.031q.172-.031.297-.063.14-.03.234-.047l.14.672q-.124.078-.296.141-.172.047-.375.078-.203.047-.438.063-.219.03-.437.03-.375 0-.703-.109-.329-.109-.563-.343-.234-.235-.375-.594-.14-.375-.14-.89v-3.063h-1.485v-.735h1.484v-1.375h.97zm7.801 1.266q.14 0 .282.016.14 0 .265.015.14.016.25.047.125.031.188.063l-.125.937q-.282-.062-.532-.094-.25-.03-.53-.03-.673 0-1.095.312-.421.312-.625.86v3.608h-.953v-5.625h.907l.046.891q.344-.469.829-.734.484-.266 1.093-.266zm6.364 4.953q-.281.422-.703.656-.422.235-.985.235-.437 0-.797-.14-.359-.141-.609-.423-.25-.297-.39-.75-.141-.453-.141-1.078v-3.344h.969v3.344q0 .469.062.766.078.297.219.484.156.172.36.25.202.078.484.078.593 0 .953-.234.36-.25.53-.656v-4.032h.97v5.625h-.875l-.047-.78zm5.223.89q-.594 0-1.094-.202-.484-.203-.844-.563-.36-.375-.562-.875-.188-.5-.188-1.094v-.203q0-.687.219-1.218.219-.547.578-.922.36-.375.813-.563.468-.203.953-.203.61 0 1.062.219.453.203.75.578.313.375.453.875.157.5.157 1.094v.422h-4.016q.016.39.14.734.141.328.36.594.234.25.547.39.328.141.719.141.515 0 .921-.203.407-.203.672-.547l.578.453q-.14.219-.359.422-.203.187-.484.344-.266.14-.625.234-.344.094-.75.094zm-.125-5.046q-.297 0-.563.11-.25.093-.453.312-.203.203-.36.5-.14.297-.187.687h3.016v-.078q-.016-.281-.11-.547-.078-.28-.265-.5-.172-.218-.438-.343-.265-.141-.64-.141z" fill="#4285f4"/><path d="m785.249 299.896h-1.156v8.704h1.156v.796h-2.063v-10.28h2.063zm6.395 0h-1.157v8.704h1.157v.796h-2.063v-10.28h2.063z" fill="#e67c73"/><path d="m798.835 304.271h-3.172v2.688h3.688v.812h-4.64v-7.578h4.593v.828h-3.64v2.438h3.171zm3.083-2.125.078.829q.297-.438.734-.688.453-.25 1.016-.25.437 0 .797.125.359.125.609.39.266.266.406.673.14.406.14.968v3.578h-.968v-3.546q0-.375-.094-.641-.078-.266-.25-.422-.156-.156-.39-.234-.235-.078-.547-.078-.484 0-.844.25-.36.234-.578.64v4.031h-.969v-5.625zm9.191 4.844q-.281.422-.703.656-.422.235-.984.235-.438 0-.797-.14-.36-.141-.61-.423-.25-.297-.39-.75t-.14-1.078v-3.344h.968v3.344q0 .469.063.766.078.297.218.484.157.172.36.25.203.078.484.078.594 0 .953-.234.36-.25.531-.656v-4.032h.97v5.625h-.876l-.047-.78zm3.176-4.844.032.532q.171-.297.453-.469.28-.172.672-.172.765 0 1.03.61.173-.282.438-.438.282-.172.672-.172.61 0 .938.39.343.376.343 1.141v4.203h-.921v-4.218q0-.703-.641-.703-.172 0-.297.046-.125.047-.219.141-.078.078-.125.188-.047.093-.062.218v4.328h-.922v-4.218q0-.344-.156-.516-.14-.187-.47-.187-.296 0-.468.125-.156.125-.234.312v4.484h-.922v-5.625h.86zm8.442 5.735q-.594 0-1.094-.203-.484-.203-.844-.563-.359-.375-.562-.875-.188-.5-.188-1.094v-.203q0-.687.22-1.218.218-.547.577-.922.36-.375.813-.563.469-.203.953-.203.61 0 1.062.219.454.203.75.578.313.375.454.875.156.5.156 1.094v.422h-4.016q.016.39.14.734.141.328.36.594.235.25.547.39.328.141.719.141.515 0 .922-.203.406-.203.672-.547l.578.453q-.14.219-.36.422-.203.187-.484.344-.266.14-.625.234-.344.094-.75.094zm-.125-5.047q-.297 0-.563.11-.25.093-.453.312-.203.203-.359.5-.14.297-.188.687h3.016v-.078q-.016-.281-.11-.547-.077-.28-.265-.5-.172-.218-.437-.343-.266-.141-.641-.141zm7.723-.797q.14 0 .281.016.14 0 .266.015.14.016.25.047.125.031.187.063l-.125.937q-.281-.062-.531-.094-.25-.03-.531-.03-.672 0-1.094.312-.422.312-.625.86v3.608h-.953v-5.625h.906l.047.891q.344-.469.828-.734.485-.266 1.094-.266zm6.41 5.734q-.062-.109-.093-.265-.032-.172-.047-.344-.157.14-.344.281-.172.125-.39.22-.204.093-.454.155-.25.063-.515.063-.454 0-.813-.125-.36-.14-.61-.36-.25-.218-.39-.515-.14-.313-.14-.672 0-.469.187-.813.187-.343.516-.578.343-.234.812-.343.484-.11 1.063-.11h1.062v-.453q0-.25-.094-.453-.093-.203-.265-.344-.172-.14-.422-.219-.25-.078-.563-.078-.28 0-.515.078-.22.063-.375.188-.157.11-.25.281-.078.156-.078.344h-.97q.016-.313.157-.61.156-.296.438-.53.296-.235.703-.376.422-.156.953-.156.469 0 .875.125.422.11.719.344.296.234.468.594.172.359.172.828v2.61q0 .28.047.608.063.313.156.547v.078zm-1.703-.734q.281 0 .516-.062.25-.079.453-.204.203-.125.344-.265.14-.156.234-.328v-1.14h-.906q-.844 0-1.313.25-.453.25-.453.78 0 .22.063.391.078.172.218.312.141.125.344.204.219.062.5.062zm9.16-2.016q0 .594-.14 1.125-.14.516-.422.907-.281.39-.703.61-.406.218-.953.218-.531 0-.938-.188-.39-.203-.672-.562l-.046.64h-.891v-8h.969v2.97q.281-.345.656-.516.39-.188.922-.188.531 0 .953.219.422.203.703.594.281.375.422.906.14.531.14 1.156v.11zm-.953-.109q0-.406-.093-.781-.078-.375-.25-.656-.172-.282-.469-.454-.281-.171-.703-.171-.25 0-.453.078-.203.062-.375.187-.157.11-.282.266-.125.156-.218.344v2.453q.093.187.218.36.125.155.297.28.172.11.375.172.203.063.453.063.391 0 .672-.157.297-.171.47-.453.187-.28.265-.64.093-.375.093-.782zm2.739-5.14h2.875v7.171h1.828v.828h-4.703v-.828h1.906v-6.328h-1.906v-.844zm8.723 8.109q-.594 0-1.094-.203-.484-.203-.844-.563-.359-.375-.562-.875-.188-.5-.188-1.094v-.203q0-.687.22-1.218.218-.547.577-.922.36-.375.813-.563.469-.203.953-.203.61 0 1.062.219.454.203.75.578.313.375.454.875.156.5.156 1.094v.422h-4.016q.016.39.14.734.141.328.36.594.235.25.547.39.328.141.719.141.515 0 .922-.203.406-.203.672-.547l.578.453q-.14.219-.36.422-.203.187-.484.344-.266.14-.625.234-.344.094-.75.094zm-.125-5.047q-.297 0-.563.11-.25.093-.453.312-.203.203-.359.5-.14.297-.188.687h3.016v-.078q-.016-.281-.11-.547-.077-.28-.265-.5-.172-.218-.437-.343-.266-.141-.641-.141z" fill="#673ab7"/><path d="m859.814 299.115h2.063v10.281h-2.063v-.796h1.157v-8.704h-1.157v-.78zm6.395 0h2.063v10.281h-2.063v-.796h1.157v-8.704h-1.157v-.78zm6.864 8.031q0-.156.047-.28.047-.141.14-.235.094-.11.235-.172.14-.063.328-.063.187 0 .328.063.156.062.25.172.094.094.14.234.047.125.047.281 0 .157-.046.297-.047.125-.141.22-.094.093-.25.14-.14.062-.328.062t-.328-.062q-.14-.047-.235-.14-.093-.095-.14-.22-.047-.14-.047-.297zm0-5q0-.156.047-.28.047-.141.14-.235.094-.11.235-.172.14-.063.328-.063.187 0 .328.063.156.062.25.172.094.094.14.234.047.125.047.281 0 .157-.046.297-.047.125-.141.22-.094.093-.25.155-.14.047-.328.047t-.328-.047q-.14-.062-.235-.156-.093-.094-.14-.219-.047-.14-.047-.297z" fill="#e67c73"/><path d="m886.472 300.771v1.375h2.14v.735h-2.14v3.062q0 .328.078.547.078.203.219.344.156.125.343.172.188.047.407.047.156 0 .312-.016l.328-.031q.172-.031.297-.063.14-.03.235-.047l.14.672q-.125.078-.297.141-.172.047-.375.078-.203.047-.437.063-.219.03-.438.03-.375 0-.703-.109-.328-.109-.562-.343-.235-.235-.375-.594-.14-.375-.14-.89v-3.063h-1.485v-.735h1.484v-1.375zm7.8 1.266q.141 0 .282.016.14 0 .266.015.14.016.25.047.125.031.187.063l-.125.937q-.281-.062-.531-.094-.25-.03-.531-.03-.672 0-1.094.312-.422.312-.625.86v3.608h-.953v-5.625h.906l.047.891q.344-.469.828-.734.484-.266 1.094-.266zm6.364 4.953q-.28.422-.703.656-.422.235-.984.235-.438 0-.797-.14-.36-.141-.61-.423-.25-.297-.39-.75t-.14-1.078v-3.344h.968v3.344q0 .469.063.766.078.297.218.484.157.172.36.25.203.078.484.078.594 0 .953-.234.36-.25.531-.656v-4.032h.97v5.625h-.876l-.047-.78zm5.223.89q-.593 0-1.093-.202-.485-.203-.844-.563-.36-.375-.563-.875-.187-.5-.187-1.094v-.203q0-.687.219-1.218.218-.547.578-.922t.812-.563q.469-.203.953-.203.61 0 1.063.219.453.203.75.578.312.375.453.875.156.5.156 1.094v.422h-4.015q.015.39.14.734.14.328.36.594.234.25.546.39.329.141.72.141.515 0 .921-.203t.672-.547l.578.453q-.14.219-.36.422-.202.187-.484.344-.265.14-.625.234-.343.094-.75.094zm-.125-5.046q-.297 0-.562.11-.25.093-.453.312-.203.203-.36.5-.14.297-.187.687h3.015v-.078q-.015-.281-.109-.547-.078-.28-.266-.5-.171-.218-.437-.343-.266-.141-.64-.141z" fill="#4285f4"/><path d="m785.249 314.896h-1.156v8.704h1.156v.796h-2.063v-10.28h2.063zm6.395 0h-1.157v8.704h1.157v.796h-2.063v-10.28h2.063z" fill="#e67c73"/><path d="m799.57 320.49q-.063.531-.266.969-.203.437-.531.75-.328.312-.781.5-.438.172-.985.172-.469 0-.86-.125-.374-.14-.671-.375-.297-.235-.516-.547-.218-.328-.36-.703-.14-.375-.218-.781-.062-.407-.062-.829v-1.062q0-.422.062-.828.078-.422.219-.797.14-.375.36-.688.218-.328.515-.562.297-.234.672-.36.39-.14.86-.14.562 0 1.015.187.453.172.765.5.329.313.516.766.203.438.266.984h-.97q-.046-.343-.155-.64-.11-.297-.313-.516-.187-.234-.469-.36-.28-.124-.656-.124-.344 0-.61.11-.25.109-.452.312-.188.187-.313.437t-.203.547q-.078.281-.11.578-.03.297-.03.578v1.078q0 .282.03.579.032.296.11.593.078.282.203.532.125.25.313.453.203.187.453.312.265.11.61.11.374 0 .655-.125.282-.125.47-.329.202-.218.312-.515.11-.297.156-.64h.969zm1.223-.578q0-.61.172-1.125.171-.531.5-.922.343-.39.812-.61.469-.218 1.063-.218.593 0 1.062.219.484.219.813.61.343.39.515.921.172.516.172 1.125v.11q0 .609-.172 1.124-.172.516-.515.907-.329.39-.797.61-.47.218-1.063.218-.594 0-1.078-.219-.469-.219-.812-.61-.329-.39-.5-.906-.172-.515-.172-1.125zm.953.11q0 .406.094.796.109.375.312.657.203.28.5.453.297.172.703.172.39 0 .688-.172.297-.172.5-.453.203-.282.297-.657.109-.39.109-.797v-.109q0-.422-.11-.797-.093-.375-.296-.656-.203-.297-.5-.453-.297-.172-.703-.172-.407 0-.704.172-.28.156-.484.453-.203.281-.312.656-.094.375-.094.797zm6.566-2.876.079.829q.296-.438.734-.688.453-.25 1.016-.25.437 0 .796.125.36.125.61.39.265.266.406.673.14.406.14.968v3.578h-.968v-3.546q0-.375-.094-.641-.078-.266-.25-.422-.156-.156-.39-.234-.235-.078-.547-.078-.485 0-.844.25-.36.234-.578.64v4.031h-.969v-5.625h.86zm6.973 5.625v-4.89h-1.547v-.735h1.547v-.406q0-.531.157-.937.156-.422.437-.688.297-.281.703-.422.406-.14.906-.14.344 0 .672.062.328.063.672.14l-.125.798q-.203-.078-.5-.125-.281-.063-.594-.063-.687.016-1.03.36-.329.328-.329 1.015v.406h2.172v.735h-2.172v4.89zm5.12-5.625h2.874v4.797h1.828v.828h-4.703v-.828h1.906v-3.968h-1.906v-.829zm1.78-1.484q0-.234.141-.39.14-.172.437-.172.282 0 .422.171.157.157.157.391t-.157.39q-.14.157-.422.157-.296 0-.437-.156-.14-.157-.14-.39zm4.286 4.25q0-.625.14-1.156.157-.531.454-.906.296-.391.703-.594.422-.219.937-.219.531 0 .922.188.39.187.672.53l.047-.609h.875v5.5q0 .563-.188.985-.172.437-.484.734-.313.313-.75.469-.438.156-.969.156-.219 0-.5-.047t-.578-.172q-.281-.109-.547-.296-.265-.188-.453-.454l.5-.578q.172.203.36.344.187.156.374.25.204.094.391.125.188.047.375.047.344 0 .625-.11.281-.093.469-.28.203-.188.297-.47.109-.28.109-.656v-.484q-.281.328-.672.5-.375.172-.875.172-.515 0-.937-.219-.407-.219-.703-.61-.282-.39-.438-.906-.156-.53-.156-1.125zm.953.11q0 .406.078.78.094.36.281.641.188.282.469.453.281.157.688.157.25 0 .453-.047.203-.063.359-.172.156-.11.281-.266.125-.156.219-.328v-2.578q-.094-.187-.219-.328-.125-.14-.297-.25-.156-.11-.359-.172-.187-.062-.422-.062-.406 0-.703.171-.281.172-.469.454-.187.28-.281.656-.078.375-.078.781zm9.27 1.968q-.282.422-.703.656-.422.235-.985.235-.437 0-.797-.14-.36-.141-.61-.423-.25-.297-.39-.75t-.14-1.078v-3.344h.968v3.344q0 .469.063.766.078.297.219.484.156.172.359.25.203.078.484.078.594 0 .954-.234.359-.25.53-.656v-4.032h.97v5.625h-.875l-.047-.78zm6.426-4.953q.14 0 .28.016.142 0 .267.015.14.016.25.047.125.031.187.063l-.125.937q-.281-.062-.531-.094-.25-.03-.531-.03-.672 0-1.094.312-.422.312-.625.86v3.608h-.953v-5.625h.906l.047.891q.344-.469.828-.734.484-.266 1.094-.266zm6.41 5.734q-.062-.109-.094-.265-.03-.172-.046-.344-.157.14-.344.281-.172.125-.39.22-.204.093-.454.155-.25.063-.516.063-.453 0-.812-.125-.36-.14-.61-.36-.25-.218-.39-.515-.14-.313-.14-.672 0-.469.187-.813.187-.343.515-.578.344-.234.813-.343.484-.11 1.062-.11h1.063v-.453q0-.25-.094-.453t-.265-.344q-.172-.14-.422-.219-.25-.078-.563-.078-.281 0-.515.078-.22.063-.375.188-.157.11-.25.281-.079.156-.079.344h-.968q.015-.313.156-.61.156-.296.437-.53.297-.235.704-.376.421-.156.953-.156.468 0 .875.125.422.11.718.344.297.234.47.594.171.359.171.828v2.61q0 .28.047.608.062.313.156.547v.078zm-1.703-.734q.281 0 .516-.062.25-.079.453-.204.203-.125.344-.265.14-.156.234-.328v-1.14h-.906q-.844 0-1.313.25-.453.25-.453.78 0 .22.063.391.078.172.218.312.14.125.344.204.219.062.5.062zm9.16-2.016q0 .594-.14 1.125-.14.516-.422.907-.281.39-.703.61-.406.218-.953.218-.532 0-.938-.188-.39-.203-.672-.562l-.047.64h-.89v-8h.969v2.97q.28-.345.656-.516.39-.188.922-.188.53 0 .953.219.422.203.703.594.281.375.422.906.14.531.14 1.156v.11zm-.953-.109q0-.406-.093-.781-.079-.375-.25-.656-.172-.282-.47-.454-.28-.171-.702-.171-.25 0-.453.078-.204.062-.375.187-.157.11-.282.266-.125.156-.218.344v2.453q.093.187.218.36.125.155.297.28.172.11.375.172.203.063.453.063.39 0 .672-.157.297-.171.469-.453.187-.28.266-.64.093-.375.093-.782zm2.739-5.14h2.875v7.171h1.828v.828h-4.703v-.828h1.906v-6.328h-1.906v-.844zm8.723 8.109q-.594 0-1.094-.203-.484-.203-.844-.563-.36-.375-.562-.875-.188-.5-.188-1.094v-.203q0-.687.219-1.218.219-.547.578-.922.36-.375.813-.563.468-.203.953-.203.61 0 1.062.219.453.203.75.578.313.375.453.875.157.5.157 1.094v.422h-4.016q.016.39.14.734.141.328.36.594.234.25.547.39.328.141.719.141.515 0 .921-.203.407-.203.672-.547l.578.453q-.14.219-.359.422-.203.187-.484.344-.266.14-.625.234-.344.094-.75.094zm-.125-5.047q-.297 0-.563.11-.25.093-.453.312-.203.203-.36.5-.14.297-.187.687h3.016v-.078q-.016-.281-.11-.547-.078-.28-.265-.5-.172-.218-.438-.343-.265-.141-.64-.141z" fill="#673ab7"/><path d="m872.61 314.115h2.062v10.281h-2.063v-.796h1.157v-8.704h-1.157v-.78zm6.394 0h2.063v10.281h-2.063v-.796h1.156v-8.704h-1.156v-.78zm6.864 8.031q0-.156.046-.28.047-.141.141-.235.094-.11.234-.172.141-.063.329-.063.187 0 .328.063.156.062.25.172.093.094.14.234.047.125.047.281 0 .157-.047.297-.047.125-.14.22-.094.093-.25.14-.14.062-.328.062t-.329-.062q-.14-.047-.234-.14-.094-.095-.14-.22-.047-.14-.047-.297zm0-5q0-.156.046-.28.047-.141.141-.235.094-.11.234-.172.141-.063.329-.063.187 0 .328.063.156.062.25.172.093.094.14.234.047.125.047.281 0 .157-.047.297-.047.125-.14.22-.094.093-.25.155-.14.047-.328.047t-.329-.047q-.14-.062-.234-.156t-.14-.219q-.047-.14-.047-.297z" fill="#e67c73"/><path d="m899.267 315.771v1.375h2.14v.735h-2.14v3.062q0 .328.078.547.078.203.218.344.157.125.344.172.188.047.406.047.157 0 .313-.016l.328-.031q.172-.031.297-.063.14-.03.234-.047l.141.672q-.125.078-.297.141-.172.047-.375.078-.203.047-.437.063-.22.03-.438.03-.375 0-.703-.109-.328-.109-.563-.343-.234-.235-.375-.594-.14-.375-.14-.89v-3.063h-1.485v-.735h1.485v-1.375zm7.8 1.266q.141 0 .282.016.14 0 .266.015.14.016.25.047.125.031.187.063l-.125.937q-.281-.062-.531-.094-.25-.03-.531-.03-.672 0-1.094.312-.422.312-.625.86v3.608h-.953v-5.625h.906l.047.891q.344-.469.828-.734.484-.266 1.094-.266zm6.364 4.953q-.281.422-.703.656-.422.235-.984.235-.438 0-.797-.14-.36-.141-.61-.423-.25-.297-.39-.75t-.14-1.078v-3.344h.968v3.344q0 .469.062.766.079.297.22.484.155.172.359.25.203.078.484.078.594 0 .953-.234.36-.25.531-.656v-4.032h.969v5.625h-.875l-.047-.78zm5.223.89q-.594 0-1.094-.202-.484-.203-.843-.563-.36-.375-.563-.875-.187-.5-.187-1.094v-.203q0-.687.218-1.218.22-.547.578-.922.36-.375.813-.563.469-.203.953-.203.61 0 1.063.219.453.203.75.578.312.375.453.875.156.5.156 1.094v.422h-4.016q.016.39.14.734.142.328.36.594.235.25.547.39.328.141.719.141.516 0 .922-.203t.672-.547l.578.453q-.14.219-.36.422-.203.187-.484.344-.266.14-.625.234-.344.094-.75.094zm-.125-5.046q-.297 0-.562.11-.25.093-.454.312-.203.203-.359.5-.14.297-.187.687h3.015v-.078q-.015-.281-.11-.547-.077-.28-.265-.5-.172-.218-.437-.343-.266-.141-.64-.141z" fill="#4285f4"/><path d="m573.672 194.058c0-6.283 5.093-11.376 11.375-11.376h142.068a11.376 11.376 0 0 1 11.376 11.376v45.5c0 6.283-5.093 11.376-11.376 11.376h-142.068c-6.282 0-11.375-5.093-11.375-11.375z" fill="#ff9800" fill-rule="evenodd"/><path d="m573.672 194.058c0-6.283 5.093-11.376 11.375-11.376h142.068a11.376 11.376 0 0 1 11.376 11.376v45.5c0 6.283-5.093 11.376-11.376 11.376h-142.068c-6.282 0-11.375-5.093-11.375-11.375z" stroke="#666" stroke-linecap="butt" stroke-linejoin="round"/><path d="m627.637 210.455q0-.5-.187-.937-.172-.453-.594-.828-.422-.391-1.11-.703-.671-.329-1.687-.594-1.234-.344-2.36-.844-1.124-.516-1.984-1.219-.859-.718-1.375-1.672-.515-.953-.515-2.187 0-1.203.5-2.172.515-.984 1.406-1.672.906-.687 2.125-1.062 1.219-.375 2.656-.375 1.485 0 2.703.437 1.235.422 2.125 1.203.891.782 1.375 1.844.5 1.063.5 2.344h-3.562q-.031-.64-.234-1.172-.204-.531-.61-.906-.39-.391-.984-.61-.578-.218-1.375-.218-.735 0-1.297.187-.563.172-.953.484-.39.313-.594.75-.203.438-.203.954 0 .53.266.968.265.422.765.766.516.344 1.235.64.718.282 1.64.516 1.297.39 2.39.938 1.095.547 1.876 1.297.797.734 1.234 1.703.438.953.438 2.125 0 1.25-.516 2.218-.5.97-1.39 1.641-.876.672-2.094 1.016-1.22.343-2.672.343-.89 0-1.781-.171-.891-.157-1.72-.485-.812-.344-1.515-.844-.703-.515-1.219-1.187-.5-.688-.796-1.547-.297-.86-.297-1.906h3.593q.032.86.297 1.484.282.61.766 1 .484.39 1.172.578.687.172 1.5.172.734 0 1.297-.172.562-.172.953-.468.39-.297.594-.72.218-.421.218-.937zm9.903-7.187q.703-1.031 1.703-1.61 1.016-.593 2.266-.593 1.11 0 2.03.343.923.329 1.58 1.032.67.687 1.046 1.797.375 1.093.375 2.64v8.531h-3.625v-8.546q0-.766-.188-1.313-.187-.547-.546-.875-.344-.344-.844-.5-.485-.172-1.11-.172-.921 0-1.593.328-.657.328-1.094.907v10.171h-3.625v-20h3.625zm21.184 12.14q-.14-.265-.235-.593-.078-.344-.156-.72-.297.329-.687.61-.391.282-.875.5-.47.219-1.047.344-.563.125-1.219.125-1.078 0-1.984-.312-.907-.313-1.563-.875-.656-.563-1.015-1.329-.36-.78-.36-1.687 0-2.234 1.656-3.453 1.657-1.219 4.954-1.219h2.015v-.828q0-1.016-.672-1.61-.656-.593-1.906-.593-1.11 0-1.625.484-.5.469-.5 1.266h-3.61q0-.906.391-1.703.407-.813 1.157-1.422.765-.61 1.859-.969 1.11-.36 2.531-.36 1.266 0 2.36.313 1.109.313 1.906.922.812.61 1.265 1.547.47.922.47 2.156v6.031q0 1.141.14 1.891.14.734.406 1.266v.218zm-3.453-2.53q.547 0 1.015-.126.469-.14.844-.344.375-.218.64-.484.282-.266.438-.531v-2.422h-1.844q-.843 0-1.453.156-.593.156-.968.453-.375.297-.563.703-.187.407-.187.891 0 .734.515 1.219.516.484 1.563.484zm23.293-4.376q0 1.531-.36 2.844-.359 1.312-1.062 2.281-.688.953-1.719 1.5-1.015.547-2.343.547-1.141 0-2-.39-.86-.391-1.5-1.094v6.64h-3.61v-19.5h3.344l.125 1.375q.656-.781 1.531-1.203.89-.437 2.078-.437 1.344 0 2.36.515 1.03.516 1.734 1.469.703.938 1.063 2.266.359 1.312.359 2.906zm-3.61-.281q0-.875-.171-1.656-.157-.782-.5-1.344-.344-.563-.891-.89-.547-.329-1.313-.329-.953 0-1.562.375-.594.375-.938 1.047v5.89q.344.657.938 1.063.61.39 1.594.39.765 0 1.297-.327.547-.344.89-.922.344-.594.5-1.375.157-.781.157-1.64v-.282zm13.794 7.453q-1.625 0-2.953-.531-1.329-.547-2.282-1.453-.953-.922-1.468-2.157-.516-1.25-.516-2.671v-.516q0-1.625.5-2.953.516-1.328 1.422-2.297.922-.969 2.172-1.5t2.718-.531q1.516 0 2.704.5 1.203.5 2.03 1.422.829.906 1.25 2.187.438 1.281.438 2.828v1.531h-9.562q.11.72.422 1.313.328.594.812 1.031.5.422 1.14.656.641.235 1.391.235.532 0 1.063-.094.531-.11 1-.312.484-.204.906-.5.422-.313.735-.704l1.796 1.954q-.328.468-.875.937-.53.469-1.28.828-.735.344-1.641.563-.891.234-1.922.234zm-.438-11.687q-.61 0-1.125.218-.5.219-.89.625-.375.407-.641.969-.25.547-.39 1.234h5.937v-.28q-.016-.579-.219-1.079-.187-.516-.562-.875-.36-.375-.891-.594-.531-.218-1.219-.218zm-45.881 30.351q0-1.281.187-2.422.203-1.14.531-2.094.344-.969.797-1.75.453-.797.953-1.406.5-.61 1.032-1.031.53-.422 1.03-.657l.5 1.391q-.515.39-1.03 1.047-.5.656-.907 1.64-.406.985-.671 2.282-.25 1.297-.25 2.984v.235q0 1.687.25 2.984.265 1.297.671 2.281.407.985.907 1.64.515.673 1.03 1.063l-.5 1.36q-.5-.22-1.03-.657-.532-.421-1.032-1.03-.5-.595-.953-1.391-.453-.797-.797-1.75-.328-.97-.53-2.094-.188-1.14-.188-2.422zm13.851-1.39 2.172-3.079h2.72l-3.313 4.844 3.421 5.015h-2.718l-2.282-3.218-2.25 3.218h-2.734l3.422-5.015-3.297-4.844h2.719l2.14 3.078zm13.43 1.593q0 1.25-.203 2.36-.203 1.109-.547 2.077-.343.97-.812 1.766-.453.797-.984 1.422-.516.625-1.063 1.062-.547.438-1.062.657l-.485-1.36q.5-.39 1.016-1.062.515-.656.922-1.625.406-.969.656-2.281.266-1.313.266-3v-.235q0-1.687-.266-2.984-.266-1.313-.688-2.297-.406-.984-.906-1.656-.5-.672-1-1.047l.485-1.36q.515.235 1.062.672.547.438 1.063 1.063.53.625.984 1.422.469.797.812 1.765.344.953.547 2.078.203 1.11.203 2.36z" fill="#fff"/><path d="m584.68 251.113h142.582v59.716h-142.582z" fill="#bdbdbd" fill-rule="evenodd"/><path d="m584.68 251.113h142.582v59.716h-142.582z" stroke="#666" stroke-linecap="butt" stroke-linejoin="round"/><path d="m642.024 272.808-.25 4.312h-1.61v-5.609h1.86zm14.027 8.719 3.39-4.704h2.532l-4.719 6.282 4.86 6.406h-2.516l-3.5-4.828-3.5 4.828h-2.531l4.843-6.406-4.718-6.282h2.5zm14.777-8.72-.25 4.313h-1.61v-5.609h1.86v1.297z" fill="#000"/><path d="m690.661 282.685 75.622-7.654" fill="none"/><g stroke="#666"><path d="m705.744 281.159 36.661-3.71" stroke-linecap="butt" stroke-linejoin="round" stroke-width="4"/><path d="m692.651 282.484a6.58 6.58 0 1 1 13.093-1.325 6.58 6.58 0 0 1 -13.093 1.325z" fill="#666" stroke-linecap="butt" stroke-width="4"/><path d="m743.07 284.021 17.396-8.4-18.726-4.746z" fill="#666" fill-rule="evenodd" stroke-linecap="butt" stroke-width="4"/></g><path d="m140.024 272.515c0-6.283 5.093-11.376 11.375-11.376h166.225a11.376 11.376 0 0 1 11.376 11.376v45.5c0 6.283-5.093 11.376-11.376 11.376h-166.224c-6.282 0-11.375-5.093-11.375-11.375z" fill="#34a853" fill-rule="evenodd"/><path d="m140.024 272.515c0-6.283 5.093-11.376 11.375-11.376h166.225a11.376 11.376 0 0 1 11.376 11.376v45.5c0 6.283-5.093 11.376-11.376 11.376h-166.224c-6.282 0-11.375-5.093-11.375-11.375z" stroke="#666" stroke-linecap="butt" stroke-linejoin="round"/><path d="m169.971 285.912h3.657l.015 13.14q-.015 1.344-.515 2.47-.5 1.109-1.375 1.921-.86.797-2.047 1.25-1.172.438-2.531.438-1.422 0-2.594-.36-1.172-.375-2.016-1.093-.844-.72-1.312-1.813-.469-1.094-.485-2.578h3.672q.016 1.531.672 2.219.672.672 2.063.672.625 0 1.14-.235.531-.234.89-.656.376-.422.563-1 .203-.578.203-1.234zm16.903 14q0-.5-.187-.938-.172-.453-.594-.828-.422-.39-1.11-.703-.671-.328-1.687-.594-1.234-.343-2.36-.843-1.124-.516-1.984-1.219-.86-.719-1.375-1.672t-.515-2.187q0-1.204.5-2.172.515-.985 1.406-1.672.906-.688 2.125-1.063 1.219-.375 2.656-.375 1.484 0 2.703.438 1.235.422 2.125 1.203.89.781 1.375 1.844.5 1.062.5 2.343h-3.562q-.032-.64-.235-1.171-.203-.532-.61-.907-.39-.39-.983-.609-.579-.219-1.375-.219-.735 0-1.297.188-.563.172-.953.484-.391.313-.594.75-.203.438-.203.953 0 .531.265.969.266.422.766.766.516.343 1.234.64.72.281 1.64.516 1.298.39 2.392.937 1.093.547 1.875 1.297.796.735 1.234 1.703.437.953.437 2.125 0 1.25-.515 2.22-.5.968-1.39 1.64-.876.672-2.095 1.015-1.218.344-2.671.344-.891 0-1.782-.172-.89-.156-1.718-.484-.813-.344-1.516-.844-.703-.516-1.219-1.187-.5-.688-.797-1.547-.297-.86-.297-1.907h3.594q.031.86.297 1.485.281.61.766 1 .484.39 1.172.578.687.172 1.5.172.734 0 1.296-.172.563-.172.954-.469.39-.297.593-.719.22-.421.22-.937zm19.371-3.125q0 1.812-.484 3.36-.469 1.53-1.39 2.64-.907 1.11-2.22 1.734-1.296.61-2.937.61-1.64 0-2.922-.61-1.265-.625-2.14-1.734-.875-1.125-1.328-2.656-.454-1.532-.454-3.344v-2.766q0-1.828.454-3.359.453-1.531 1.328-2.64.875-1.126 2.14-1.75 1.266-.626 2.907-.626 1.656 0 2.953.625 1.312.625 2.218 1.75.922 1.11 1.391 2.641.484 1.531.484 3.36zm-3.703-2.797q0-1.156-.187-2.125-.188-.984-.594-1.687-.406-.704-1.047-1.094-.625-.39-1.515-.39-.891 0-1.485.39-.594.39-.969 1.094-.359.703-.515 1.687-.156.969-.156 2.125v2.797q0 1.14.156 2.125.156.969.515 1.687.375.72.97 1.125.593.391 1.5.391.874 0 1.5-.39.64-.407 1.03-1.11.407-.719.594-1.687.203-.985.203-2.141zm19.31 3.984q0 1.563-.36 2.891-.344 1.313-1.031 2.266-.688.937-1.72 1.468-1.015.532-2.39.532-1.234 0-2.14-.453-.907-.47-1.547-1.313l-.172 1.5h-3.266v-20h3.625v7.188q.625-.72 1.469-1.125.86-.407 2-.407 1.39 0 2.422.532 1.031.53 1.719 1.484.687.953 1.03 2.281.36 1.313.36 2.875v.281zm-3.626-.28q0-.86-.14-1.626-.125-.765-.438-1.344-.312-.578-.86-.921-.546-.344-1.374-.344-.985 0-1.61.422-.61.422-.953 1.14v5.61q.344.734.953 1.156.625.406 1.64.406.813 0 1.345-.312.547-.328.859-.89.313-.563.438-1.329.14-.781.14-1.688zm9.09-6.907h7.203v14.406q0 1.406-.406 2.406-.39 1.016-1.172 1.672-.765.657-1.875.97-1.094.312-2.515.312-.594 0-1.188-.047t-1.14-.172l.171-2.938q.157.032.438.063t.578.047q.297.031.562.031.266.016.391.016.531 0 .984-.125.47-.11.797-.391.328-.266.516-.719.203-.453.203-1.125v-11.453h-3.547zm3.297-3.61q0-.421.14-.78.157-.36.423-.61.28-.25.656-.39.39-.141.86-.141.952 0 1.515.547.578.53.578 1.375 0 .843-.578 1.39-.563.531-1.516.531-.469 0-.86-.14-.374-.14-.655-.39-.266-.266-.422-.61-.14-.36-.14-.781zm17.371 17.954q-1.625 0-2.953-.532-1.328-.546-2.28-1.453-.954-.922-1.47-2.156-.515-1.25-.515-2.672v-.515q0-1.625.5-2.954.515-1.328 1.422-2.296.921-.97 2.171-1.5 1.25-.532 2.72-.532 1.515 0 2.702.5 1.203.5 2.032 1.422.828.906 1.25 2.188.437 1.281.437 2.828v1.531h-9.562q.109.719.421 1.313.329.593.813 1.03.5.423 1.14.657.641.234 1.391.234.531 0 1.063-.093.531-.11 1-.313.484-.203.906-.5.422-.312.734-.703l1.797 1.953q-.328.469-.875.938-.531.468-1.281.828-.734.344-1.64.562-.891.235-1.923.235zm-.437-11.688q-.61 0-1.125.219-.5.219-.89.625-.376.406-.641.969-.25.547-.39 1.234h5.937v-.281q-.016-.578-.22-1.078-.187-.516-.562-.875-.359-.375-.89-.594-.532-.219-1.219-.219zm15.824 8.797q.547 0 1.016-.156.484-.156.844-.438.375-.297.578-.703.203-.406.172-.89h3.406q.031 1.093-.453 2.03-.469.938-1.297 1.61-.812.672-1.906 1.063-1.078.375-2.281.375-1.641 0-2.891-.547-1.234-.547-2.063-1.516-.812-.969-1.25-2.25-.421-1.297-.421-2.781v-.39q0-1.485.421-2.782.422-1.297 1.25-2.25.829-.969 2.063-1.531 1.234-.563 2.86-.563 1.296 0 2.406.391 1.109.39 1.906 1.11.797.702 1.234 1.718.453 1 .422 2.25h-3.406q.031-.516-.156-.984-.188-.469-.547-.813-.344-.344-.844-.547-.484-.203-1.063-.203-.859 0-1.421.36-.563.343-.891.937-.328.578-.469 1.344-.14.75-.14 1.562v.391q0 .812.125 1.578.14.766.468 1.344.328.578.891.937.578.344 1.437.344zm16.403-14.906v3.453h5.266v2.656h-5.266v6.063q0 .765.172 1.281.187.516.5.828.328.297.797.438.469.125 1.031.125.422 0 .86-.032.437-.047.828-.109.406-.063.75-.125.343-.063.578-.125l.359 2.484q-.375.22-.89.391-.5.156-1.079.25-.562.11-1.187.156-.625.063-1.219.063-1.156 0-2.11-.297-.937-.313-1.609-.953-.672-.64-1.031-1.64-.36-1-.36-2.392v-6.406h-3.218v-2.656h3.219v-3.453zm26.161 17.531q-.094-.187-.157-.422-.062-.234-.109-.5-.203.235-.484.438-.266.187-.61.343-.328.157-.734.235-.39.094-.86.094-.75 0-1.39-.22-.625-.218-1.078-.609-.453-.39-.719-.937-.25-.547-.25-1.188 0-1.546 1.156-2.39 1.172-.86 3.47-.86h1.421v-.593q0-.703-.469-1.11-.469-.422-1.344-.422-.765 0-1.125.329-.359.328-.359.89h-2.531q0-.625.281-1.187.281-.578.813-1 .53-.422 1.296-.672.766-.25 1.766-.25.89 0 1.656.219.782.218 1.344.64.563.422.875 1.078.328.657.328 1.5v4.235q0 .797.094 1.312.094.516.297.89v.157zm-2.407-1.781q.375 0 .704-.078.328-.094.593-.235.266-.156.453-.343.204-.188.313-.375v-1.704h-1.297q-.594 0-1.016.125-.421.11-.687.313-.266.203-.39.5-.126.281-.126.625 0 .5.36.844.36.328 1.093.328z" fill="#fff"/><path d="m152.645 329.568h163.495v59.717h-163.495z" fill="#bdbdbd" fill-rule="evenodd"/><path d="m152.645 329.568h163.495v59.717h-163.495z" stroke="#666" stroke-linecap="butt" stroke-linejoin="round"/><path d="m236.27 367.967h-2.172v-14.297l-4.47 1.703v-1.984l6.454-2.485h.188z" fill="#000"/><path d="m573.672 26.726c0-6.283 5.093-11.376 11.375-11.376h142.068a11.376 11.376 0 0 1 11.376 11.376v45.5c0 6.283-5.093 11.376-11.376 11.376h-142.068c-6.282 0-11.375-5.093-11.375-11.375z" fill="#ff9800" fill-rule="evenodd"/><path d="m573.672 26.726c0-6.283 5.093-11.376 11.375-11.376h142.068a11.376 11.376 0 0 1 11.376 11.376v45.5c0 6.283-5.093 11.376-11.376 11.376h-142.068c-6.282 0-11.375-5.093-11.375-11.375z" stroke="#666" stroke-linecap="butt" stroke-linejoin="round"/><path d="m627.637 43.123q0-.5-.187-.937-.172-.453-.594-.828-.422-.391-1.11-.703-.671-.329-1.687-.594-1.234-.344-2.36-.844-1.124-.516-1.984-1.219-.859-.718-1.375-1.672-.515-.953-.515-2.187 0-1.203.5-2.172.515-.984 1.406-1.672.906-.687 2.125-1.062 1.219-.375 2.656-.375 1.485 0 2.703.437 1.235.422 2.125 1.203.891.782 1.375 1.844.5 1.063.5 2.344h-3.562q-.031-.64-.234-1.172-.204-.531-.61-.906-.39-.391-.984-.61-.578-.218-1.375-.218-.735 0-1.297.187-.563.172-.953.484-.39.313-.594.75-.203.438-.203.954 0 .53.266.968.265.422.765.766.516.344 1.235.64.718.282 1.64.516 1.297.39 2.39.938 1.095.547 1.876 1.297.797.734 1.234 1.703.438.953.438 2.125 0 1.25-.516 2.218-.5.97-1.39 1.641-.876.672-2.094 1.016-1.22.343-2.672.343-.89 0-1.781-.171-.891-.157-1.72-.485-.812-.344-1.515-.844-.703-.515-1.219-1.187-.5-.688-.796-1.547-.297-.86-.297-1.906h3.593q.032.86.297 1.484.282.61.766 1 .484.39 1.172.578.687.172 1.5.172.734 0 1.297-.172.562-.172.953-.468.39-.297.594-.72.218-.421.218-.937zm9.903-7.187q.703-1.032 1.703-1.61 1.016-.593 2.266-.593 1.11 0 2.03.343.923.328 1.58 1.032.67.687 1.046 1.797.375 1.093.375 2.64v8.531h-3.625v-8.546q0-.765-.188-1.312-.187-.547-.546-.875-.344-.344-.844-.5-.485-.172-1.11-.172-.921 0-1.593.328-.657.328-1.094.907v10.171h-3.625v-20h3.625v7.86zm21.184 12.14q-.14-.265-.235-.593-.078-.344-.156-.72-.297.329-.687.61-.391.282-.875.5-.47.219-1.047.344-.563.125-1.219.125-1.078 0-1.984-.313-.907-.312-1.563-.875-.656-.562-1.015-1.328-.36-.78-.36-1.687 0-2.235 1.656-3.453 1.657-1.219 4.954-1.219h2.015v-.828q0-1.016-.672-1.61-.656-.593-1.906-.593-1.11 0-1.625.484-.5.469-.5 1.266h-3.61q0-.907.391-1.703.407-.813 1.157-1.422.765-.61 1.859-.969 1.11-.36 2.531-.36 1.266 0 2.36.313 1.109.313 1.906.922.812.61 1.265 1.547.47.922.47 2.156v6.031q0 1.141.14 1.891.14.734.406 1.266v.218zm-3.453-2.53q.547 0 1.015-.126.469-.14.844-.344.375-.218.64-.484.282-.266.438-.531v-2.422h-1.844q-.843 0-1.453.156-.593.156-.968.453-.375.297-.563.703-.187.407-.187.891 0 .734.515 1.219.516.484 1.563.484zm23.293-4.376q0 1.531-.36 2.844-.359 1.312-1.062 2.281-.688.953-1.719 1.5-1.015.547-2.343.547-1.141 0-2-.39-.86-.391-1.5-1.094v6.64h-3.61v-19.5h3.344l.125 1.375q.656-.781 1.531-1.203.89-.437 2.078-.437 1.344 0 2.36.515 1.03.516 1.734 1.469.703.938 1.063 2.266.359 1.312.359 2.906zm-3.61-.281q0-.875-.171-1.656-.157-.782-.5-1.344-.344-.563-.891-.89-.547-.329-1.313-.329-.953 0-1.562.375-.594.375-.938 1.047v5.89q.344.657.938 1.063.61.39 1.594.39.765 0 1.297-.327.547-.344.89-.922.344-.594.5-1.375.157-.782.157-1.64v-.282zm13.794 7.453q-1.625 0-2.953-.531-1.329-.547-2.282-1.453-.953-.922-1.468-2.157-.516-1.25-.516-2.672v-.515q0-1.625.5-2.953.516-1.328 1.422-2.297.922-.969 2.172-1.5t2.718-.531q1.516 0 2.704.5 1.203.5 2.03 1.422.829.906 1.25 2.187.438 1.281.438 2.828v1.531h-9.562q.11.72.422 1.313.328.594.812 1.031.5.422 1.14.656.641.235 1.391.235.532 0 1.063-.094.531-.11 1-.313.484-.203.906-.5.422-.312.735-.703l1.796 1.953q-.328.47-.875.938-.53.469-1.28.828-.735.344-1.641.563-.891.234-1.922.234zm-.438-11.688q-.61 0-1.125.22-.5.218-.89.624-.375.407-.641.969-.25.547-.39 1.234h5.937v-.28q-.016-.579-.219-1.079-.187-.516-.562-.875-.36-.375-.891-.594-.531-.218-1.219-.218zm-68.272 30.352q0-1.281.187-2.422.203-1.14.531-2.094.344-.969.797-1.75.453-.797.953-1.406.5-.61 1.032-1.031.53-.422 1.03-.657l.5 1.391q-.515.39-1.03 1.047-.5.656-.907 1.64-.406.985-.672 2.282-.25 1.297-.25 2.984v.235q0 1.687.25 2.984.266 1.297.672 2.281.407.985.907 1.64.515.673 1.03 1.063l-.5 1.36q-.5-.22-1.03-.657-.532-.421-1.032-1.03-.5-.595-.953-1.391-.453-.797-.797-1.75-.328-.97-.531-2.094-.188-1.14-.188-2.422v-.203zm14.117 5.578q-1.14 0-2.078-.375-.922-.375-1.594-1.016-.656-.64-1.016-1.515-.359-.875-.359-1.86v-.375q0-1.125.36-2.047.359-.937.984-1.609.64-.688 1.515-1.047.875-.375 1.907-.375 1.062 0 1.89.344.844.344 1.422.984t.875 1.547q.313.89.313 1.969v1.078h-6.688q.063.5.281.922.235.406.579.719.343.297.78.468.454.157.985.157.375 0 .735-.078.375-.079.703-.22.343-.14.64-.343.297-.219.516-.5l1.266 1.375q-.235.328-.625.656-.375.328-.891.578-.516.25-1.14.407-.626.156-1.36.156zm-.297-8.172q-.422 0-.781.156-.36.14-.625.422-.266.281-.453.672-.188.39-.266.875h4.14v-.203q-.015-.39-.156-.75-.125-.36-.39-.61-.25-.265-.625-.406-.36-.156-.844-.156zm8.29-1.875.078 1.203q.28-.64.765-1 .5-.375 1.219-.375 1.187 0 1.562 1.047.282-.5.735-.766.453-.28 1.094-.28.437 0 .828.171.39.156.672.516.296.359.453.921.156.563.156 1.391v7.031h-2.313v-7.046q0-.282-.062-.454-.047-.187-.156-.28-.094-.11-.235-.157-.125-.047-.265-.047-.266 0-.453.125-.172.125-.266.328v7.531h-2.234v-7.046q0-.282-.063-.47-.047-.187-.14-.28-.094-.094-.235-.141-.125-.047-.266-.047-.296 0-.468.172-.172.156-.282.437v7.375h-2.296v-9.859h2.171zm18.476 5.016q0 1.078-.25 2-.25.922-.75 1.593-.484.672-1.203 1.063-.719.375-1.64.375-.797 0-1.407-.266-.594-.281-1.031-.781v4.656h-2.531v-13.656h2.328l.094.969q.453-.547 1.078-.844.625-.297 1.453-.297.937 0 1.656.36.719.359 1.203 1.015.5.656.75 1.578t.25 2.047zm-2.531-.188q0-.61-.125-1.156-.11-.547-.36-.938-.234-.406-.609-.625-.375-.234-.906-.234-.672 0-1.094.266-.422.265-.656.734v4.11q.234.468.656.75.422.28 1.11.28.53 0 .906-.234.39-.25.625-.656.234-.406.344-.953.109-.547.109-1.156zm9.524-7.234v2.406h3.672v1.875h-3.672v4.234q0 .532.109.891.125.36.344.578.234.219.562.313.328.078.719.078.297 0 .594-.016.312-.031.594-.062.28-.047.515-.094.25-.047.422-.094l.234 1.735q-.25.156-.609.28-.36.11-.766.173-.39.078-.828.109-.437.047-.843.047-.813 0-1.485-.203-.656-.219-1.125-.672-.469-.453-.734-1.14-.25-.704-.25-1.673v-4.484h-2.25v-1.875h2.25v-2.406zm10.742 8.125.297 1.062 2.625-6.781h2.797l-5.016 11.328q-.156.375-.422.813-.25.437-.64.812-.39.375-.953.625-.563.266-1.329.266-.187 0-.343-.016-.157-.015-.297-.047-.14-.015-.281-.047-.141-.03-.313-.078l.313-1.922h.39q.25.016.39.016.298 0 .532-.187.234-.172.39-.391.173-.219.266-.406.11-.172.141-.172l.61-1.156-4.173-9.438h2.782zm13.743-1.047q0 1.25-.204 2.36-.203 1.109-.546 2.077-.344.97-.813 1.766-.453.797-.984 1.422-.516.625-1.063 1.062-.547.438-1.062.657l-.485-1.36q.5-.39 1.016-1.062.516-.656.922-1.625t.656-2.281q.266-1.313.266-3v-.235q0-1.687-.266-2.984-.266-1.313-.687-2.297-.407-.985-.907-1.656-.5-.672-1-1.047l.485-1.36q.515.235 1.062.672.547.438 1.063 1.063.531.625.984 1.422.469.796.813 1.765.343.953.546 2.078.204 1.11.204 2.36z" fill="#fff"/><path d="m329 295.265c61.168 0 91.753-19.614 122.336-39.228 30.582-19.614 61.163-39.229 122.325-39.229" fill="none"/><path d="m329 295.265c61.168 0 91.753-19.614 122.336-39.228 15.29-9.807 30.582-19.614 49.695-26.97 9.557-3.677 20.069-6.742 32.015-8.887a198.19 198.19 0 0 1 9.235-1.432 211.464 211.464 0 0 1 7.307-.83l.099-.01" stroke="#595959" stroke-linecap="butt" stroke-linejoin="round" stroke-width="4"/><path d="m549.99 224.508 17.83-7.432-18.436-5.768z" fill="#595959" fill-rule="evenodd" stroke="#595959" stroke-linecap="butt" stroke-width="4"/><path d="m656.081 83.602v99.087" fill="none"/><path d="m656.081 95.602v75.087" stroke="#666" stroke-linecap="butt" stroke-linejoin="round" stroke-width="2"/><path d="m659.385 95.602-3.304-9.076-3.303 9.076zm-6.607 75.087 3.303 9.076 3.304-9.076z" fill="#666" fill-rule="evenodd" stroke="#666" stroke-linecap="butt" stroke-width="2"/><path d="m658.06 117.108h57.008v51.086h-57.008z" fill="none"/><path d="m675.724 136.587-.203 3.359h-1.25l.016-3.203v-1.172h1.437zm10.899 6.78 2.64-3.655h1.97l-3.673 4.875 3.766 4.984h-1.938l-2.734-3.75-2.719 3.75h-1.969l3.766-4.984-3.656-4.875h1.937l2.61 3.656zm11.492-6.78-.203 3.359h-1.25l.016-3.203v-1.172h1.437z" fill="#000"/><path d="m140.024 408.628c0-6.283 5.093-11.376 11.375-11.376h166.225a11.376 11.376 0 0 1 11.376 11.376v45.5c0 6.283-5.093 11.376-11.376 11.376h-166.224c-6.282 0-11.375-5.093-11.375-11.376z" fill="#34a853" fill-rule="evenodd"/><path d="m140.024 408.628c0-6.283 5.093-11.376 11.375-11.376h166.225a11.376 11.376 0 0 1 11.376 11.376v45.5c0 6.283-5.093 11.376-11.376 11.376h-166.224c-6.282 0-11.375-5.093-11.375-11.376z" stroke="#666" stroke-linecap="butt" stroke-linejoin="round"/><path d="m169.971 422.025h3.657l.015 13.14q-.015 1.344-.515 2.47-.5 1.109-1.375 1.921-.86.797-2.047 1.25-1.172.438-2.531.438-1.422 0-2.594-.36-1.172-.375-2.016-1.094-.844-.718-1.312-1.812-.469-1.094-.485-2.578h3.672q.016 1.531.672 2.219.672.671 2.063.671.625 0 1.14-.234.531-.234.89-.656.376-.422.563-1 .203-.578.203-1.235zm16.903 14q0-.5-.187-.938-.172-.453-.594-.828-.422-.39-1.11-.703-.671-.328-1.687-.594-1.234-.343-2.36-.843-1.124-.516-1.984-1.22-.86-.718-1.375-1.671-.515-.953-.515-2.188 0-1.203.5-2.171.515-.985 1.406-1.672.906-.688 2.125-1.063 1.219-.375 2.656-.375 1.484 0 2.703.438 1.235.422 2.125 1.203.89.781 1.375 1.844.5 1.062.5 2.343h-3.562q-.032-.64-.235-1.172-.203-.53-.61-.906-.39-.39-.983-.61-.579-.218-1.375-.218-.735 0-1.297.188-.563.171-.953.484-.391.312-.594.75-.203.437-.203.953 0 .531.265.969.266.422.766.765.516.344 1.234.641.72.281 1.64.516 1.298.39 2.392.937 1.093.547 1.875 1.297.796.734 1.234 1.703.437.953.437 2.125 0 1.25-.515 2.219-.5.969-1.39 1.64-.876.672-2.095 1.016-1.218.344-2.671.344-.891 0-1.782-.172-.89-.156-1.718-.484-.813-.344-1.516-.844-.703-.516-1.219-1.188-.5-.687-.797-1.546-.297-.86-.297-1.907h3.594q.031.86.297 1.485.281.61.766 1 .484.39 1.172.578.687.172 1.5.172.734 0 1.296-.172.563-.172.954-.469.39-.297.593-.719.22-.422.22-.937zm19.371-3.125q0 1.812-.484 3.36-.469 1.53-1.39 2.64-.907 1.11-2.22 1.734-1.296.61-2.937.61-1.64 0-2.922-.61-1.265-.625-2.14-1.734-.875-1.125-1.328-2.656-.454-1.532-.454-3.344v-2.766q0-1.828.454-3.36.453-1.53 1.328-2.64.875-1.125 2.14-1.75 1.266-.625 2.907-.625 1.656 0 2.953.625 1.312.625 2.218 1.75.922 1.11 1.391 2.64.484 1.532.484 3.36zm-3.703-2.797q0-1.156-.187-2.125-.188-.984-.594-1.688-.406-.703-1.047-1.093-.625-.39-1.515-.39-.891 0-1.485.39-.594.39-.969 1.093-.359.704-.515 1.688-.156.969-.156 2.125v2.797q0 1.14.156 2.125.156.969.515 1.687.375.72.97 1.125.593.39 1.5.39.874 0 1.5-.39.64-.406 1.03-1.11.407-.718.594-1.687.203-.984.203-2.14zm19.31 3.984q0 1.563-.36 2.89-.344 1.313-1.031 2.267-.688.937-1.72 1.468-1.015.532-2.39.532-1.234 0-2.14-.454-.907-.468-1.547-1.312l-.172 1.5h-3.266v-20h3.625v7.187q.625-.718 1.469-1.125.86-.406 2-.406 1.39 0 2.422.531 1.031.532 1.719 1.485.687.953 1.03 2.281.36 1.313.36 2.875v.281zm-3.626-.28q0-.86-.14-1.626-.125-.766-.438-1.344-.312-.578-.86-.922-.546-.343-1.374-.343-.985 0-1.61.422-.61.421-.953 1.14v5.61q.344.734.953 1.156.625.406 1.64.406.813 0 1.345-.312.547-.329.859-.891.313-.563.438-1.328.14-.781.14-1.688zm9.09-6.907h7.203v14.406q0 1.406-.406 2.406-.39 1.016-1.172 1.672-.765.656-1.875.969-1.094.312-2.515.312-.594 0-1.188-.046-.594-.047-1.14-.172l.171-2.938q.157.031.438.063.281.03.578.047.297.03.562.03.266.016.391.016.531 0 .984-.125.47-.109.797-.39.328-.266.516-.719.203-.453.203-1.125v-11.453h-3.547zm3.297-3.61q0-.421.14-.78.157-.36.423-.61.28-.25.656-.39.39-.141.86-.141.952 0 1.515.546.578.532.578 1.375 0 .844-.578 1.391-.563.531-1.516.531-.469 0-.86-.14-.374-.14-.655-.39-.266-.267-.422-.61-.14-.36-.14-.782zm17.371 17.954q-1.625 0-2.953-.532-1.328-.547-2.28-1.453-.954-.922-1.47-2.156-.515-1.25-.515-2.672v-.516q0-1.625.5-2.953.515-1.328 1.422-2.297.921-.968 2.171-1.5 1.25-.53 2.72-.53 1.515 0 2.702.5 1.203.5 2.032 1.421.828.906 1.25 2.188.437 1.28.437 2.828v1.53h-9.562q.109.72.421 1.313.329.594.813 1.032.5.422 1.14.656.641.234 1.391.234.531 0 1.063-.093.531-.11 1-.313.484-.203.906-.5.422-.312.734-.703l1.797 1.953q-.328.469-.875.938-.531.468-1.281.828-.734.343-1.64.562-.891.235-1.923.235zm-.437-11.688q-.61 0-1.125.219-.5.219-.89.625-.376.406-.641.969-.25.546-.39 1.234h5.937v-.281q-.016-.578-.22-1.078-.187-.516-.562-.875-.359-.375-.89-.594-.532-.219-1.219-.219zm15.824 8.797q.547 0 1.016-.156.484-.157.844-.438.375-.297.578-.703.203-.406.172-.89h3.406q.031 1.093-.453 2.03-.469.938-1.297 1.61-.812.672-1.906 1.063-1.078.375-2.281.375-1.641 0-2.891-.547-1.234-.547-2.063-1.516-.812-.969-1.25-2.25-.421-1.297-.421-2.781v-.39q0-1.485.421-2.782.422-1.297 1.25-2.25.829-.969 2.063-1.531 1.234-.563 2.86-.563 1.296 0 2.406.39 1.109.391 1.906 1.11.797.703 1.234 1.719.453 1 .422 2.25h-3.406q.031-.516-.156-.984-.188-.47-.547-.813-.344-.344-.844-.547-.484-.203-1.063-.203-.859 0-1.421.36-.563.343-.891.937-.328.578-.469 1.344-.14.75-.14 1.562v.39q0 .813.125 1.579.14.766.468 1.344.328.578.891.937.578.344 1.437.344zm16.403-14.906v3.453h5.266v2.656h-5.266v6.063q0 .765.172 1.28.187.516.5.829.328.297.797.437.469.125 1.031.125.422 0 .86-.03.437-.048.828-.11.406-.063.75-.125.343-.063.578-.125l.359 2.484q-.375.219-.89.39-.5.157-1.079.25-.562.11-1.187.157-.625.063-1.219.063-1.156 0-2.11-.297-.937-.313-1.609-.953-.672-.641-1.031-1.641-.36-1-.36-2.39v-6.407h-3.218v-2.656h3.219v-3.453zm28.896 12.703q0 1.11-.25 2.031-.235.906-.72 1.578-.484.656-1.203 1.031-.719.375-1.672.375-.875 0-1.515-.328-.625-.328-1.078-.906l-.125 1.047h-2.266v-14h2.531v5.031q.438-.5 1.031-.781.594-.281 1.391-.281.969 0 1.688.375.734.36 1.218 1.03.485.657.72 1.595.25.922.25 2.015zm-2.532-.188q0-.61-.094-1.14-.094-.547-.328-.938-.219-.406-.61-.64-.374-.25-.937-.25-.703 0-1.14.296-.422.297-.657.797v3.938q.235.5.656.797.438.28 1.157.28.578 0 .937-.218.375-.219.594-.61.234-.405.328-.937.094-.547.094-1.187z" fill="#fff"/><path d="m152.645 465.681h163.495v59.717h-163.495z" fill="#bdbdbd" fill-rule="evenodd"/><path d="m152.645 465.681h163.495v59.717h-163.495z" stroke="#666" stroke-linecap="butt" stroke-linejoin="round"/><path d="m239.691 504.08h-11.171v-1.563l5.593-6.203q.75-.844 1.25-1.484.5-.641.797-1.188.313-.547.438-1.031.14-.485.14-1 0-.64-.218-1.188-.204-.562-.594-.968-.39-.407-.953-.641-.547-.25-1.25-.25-.86 0-1.485.25-.625.234-1.047.687-.406.454-.625 1.11-.203.64-.203 1.437h-2.172q0-1.078.375-2.03.375-.97 1.079-1.673.718-.719 1.734-1.14 1.031-.422 2.344-.422 1.203 0 2.172.36.968.358 1.625 1 .671.624 1.03 1.5.36.858.36 1.874 0 .766-.265 1.516-.25.734-.688 1.468-.437.72-1.016 1.438-.578.703-1.234 1.406l-4.578 4.969h8.562z" fill="#000"/><path d="m329 431.378c61.168 0 91.753-53.646 122.336-107.291 30.582-53.646 61.163-107.292 122.325-107.292" fill="none"/><path d="m329 431.378c61.168 0 91.753-53.646 122.336-107.291 15.29-26.823 30.582-53.646 49.695-73.763 9.557-10.059 20.069-18.44 32.015-24.308a89.689 89.689 0 0 1 9.235-3.916 88.11 88.11 0 0 1 7.307-2.271l.257-.067" stroke="#595959" stroke-linecap="butt" stroke-linejoin="round" stroke-width="4"/><path d="m550.662 226.318 17.197-8.8-18.83-4.313z" fill="#595959" fill-rule="evenodd" stroke="#595959" stroke-linecap="butt" stroke-width="4"/></g></svg>