<svg fill="none" stroke-linecap="square" stroke-miterlimit="10" viewBox="0 0 960 540" xmlns="http://www.w3.org/2000/svg" xmlns:xlink="http://www.w3.org/1999/xlink"><clipPath id="a"><path d="m0 0h960v540h-960z"/></clipPath><g clip-path="url(#a)"><path d="m0 0h960v540h-960z" fill="#fff" fill-rule="evenodd"/><path d="m735.987 351.049h57.008v51.086h-57.008z" fill="none"/><path d="m753.65 370.528-.203 3.359h-1.25l.016-3.203v-1.172h1.438v1.016zm8.852 11.609h6.282v1.375h-8.438v-1.234l5.89-7.235h-5.796v-1.39h8.016v1.203zm13.54-11.61-.203 3.36h-1.25l.015-3.203v-1.172h1.438v1.016z" fill="#000"/><path d="m38.514 28.213h515.748v303.622h-515.748z" fill="none"/><path d="m49.264 57.482q0-1.672.485-3.11.484-1.437 1.39-2.5.922-1.062 2.22-1.671 1.296-.61 2.937-.61 1.64 0 2.953.61 1.312.61 2.219 1.672.906 1.062 1.39 2.5.5 1.437.5 3.109v.312q0 1.672-.5 3.11-.484 1.437-1.39 2.5-.907 1.047-2.22 1.656-1.296.594-2.921.594-1.656 0-2.969-.594-1.297-.61-2.219-1.656-.906-1.063-1.39-2.5-.485-1.438-.485-3.11zm2.641.312q0 1.141.266 2.188.28 1.031.828 1.828.562.781 1.39 1.25.829.453 1.938.453 1.078 0 1.906-.453.828-.469 1.375-1.25.547-.797.813-1.828.28-1.047.28-2.188v-.312q0-1.125-.28-2.156-.282-1.047-.828-1.828-.547-.797-1.375-1.266-.829-.469-1.922-.469-1.11 0-1.922.469-.813.469-1.375 1.266-.547.78-.828 1.828-.266 1.031-.266 2.156z" fill="#000"/><path d="m97.98 54.2h-12.782v-2.296h12.782zm0 5.938h-12.782v-2.281h12.782zm33.933 10.469q-.921-.016-1.687-.313-.75-.28-1.36-.765-.593-.485-1.03-1.14-.438-.641-.735-1.376-.297-.734-.438-1.515-.14-.782-.14-1.547v-2.422q0-2.063-.985-2.985-.984-.937-3-.953v-2.078q2.016 0 3-.922.985-.922.985-3v-2.421q0-.765.125-1.546.125-.782.39-1.516.282-.734.704-1.375.421-.656 1.015-1.14.61-.485 1.39-.766.782-.297 1.766-.328l.313 1.656q-1.031.031-1.64.484-.61.453-.923 1.172-.312.703-.406 1.594-.078.89-.078 1.765v2.422q-.016 1.72-.797 3.016-.781 1.297-2.453 1.969 1.672.656 2.453 1.953.781 1.297.797 3v2.422q0 .89.14 1.765.157.891.5 1.594.36.719.938 1.172.578.453 1.469.484l-.313 1.641z" fill="#e67c73"/><path d="m162.004 55.623 4.14-5.75h3.11l-5.766 7.671 5.922 7.829h-3.063l-4.281-5.907-4.281 5.907h-3.094l5.922-7.829-5.766-7.671h3.063z" fill="#000"/><path d="m178.822 63.654q0-.422.125-.797.14-.375.39-.656.266-.282.641-.438.39-.156.907-.156.515 0 .906.156.406.156.672.438.265.281.39.656.14.375.14.797 0 .422-.14.781-.125.36-.39.64-.266.266-.672.407-.39.156-.906.156t-.907-.156q-.375-.14-.64-.406-.25-.282-.391-.64-.125-.36-.125-.782zm0-13q0-.422.125-.797.14-.375.39-.656.266-.282.641-.438.39-.156.907-.156.515 0 .906.156.406.156.672.438.265.281.39.656.14.375.14.797 0 .422-.14.781-.125.36-.39.64-.266.266-.672.423-.39.14-.906.14t-.907-.14q-.375-.157-.64-.422-.25-.282-.391-.64-.125-.36-.125-.782z" fill="#e67c73"/><path d="m216.99 65.373h-2.64v-17.47l-5.453 2.079v-2.422l7.89-3.031h.203z" fill="#db4437"/><path d="m232.715 64.763q0 .672-.172 1.406-.156.735-.484 1.454-.313.734-.781 1.39-.454.656-1.047 1.172l-1.657-.906q.688-1 .97-2.14.296-1.126.296-2.345v-2.562h2.875z" fill="#e67c73"/><path d="m266.899 59.873.687 1.875 4.735-11.875h2.953l-7.86 17.89q-.265.61-.687 1.281-.422.672-1.031 1.235-.594.578-1.406.969-.797.39-1.844.39-.188 0-.422-.031-.219-.016-.453-.063-.219-.03-.422-.078-.203-.03-.328-.062l.422-2.172q.109 0 .28.016l.345.03q.187.016.359.016.172.016.281.016.547 0 .985-.297.453-.297.797-.719.359-.421.609-.859.25-.437.406-.734l1.047-2.063-6.672-14.765h2.969l4.25 10z" fill="#000"/><path d="m284.42 63.654q0-.422.126-.797.14-.375.39-.656.266-.282.64-.438.391-.156.907-.156t.906.156q.407.156.672.438.266.281.39.656.141.375.141.797 0 .422-.14.781-.125.36-.39.64-.266.266-.673.407-.39.156-.906.156t-.906-.156q-.375-.14-.64-.406-.25-.282-.391-.64-.125-.36-.125-.782zm0-13q0-.422.126-.797.14-.375.39-.656.266-.282.64-.438.391-.156.907-.156t.906.156q.407.156.672.438.266.281.39.656.141.375.141.797 0 .422-.14.781-.125.36-.39.64-.266.266-.673.423-.39.14-.906.14t-.906-.14q-.375-.157-.64-.422-.25-.282-.391-.64-.125-.36-.125-.782z" fill="#e67c73"/><path d="m326.792 65.373h-13.656v-1.907l6.828-7.593q.906-1.016 1.515-1.797.625-.797 1-1.453.375-.672.532-1.266.156-.594.156-1.219 0-.781-.25-1.453-.25-.687-.734-1.187-.47-.5-1.157-.782-.687-.297-1.547-.297-1.03 0-1.796.297t-1.282.86q-.515.547-.765 1.328t-.25 1.765h-2.657q0-1.328.454-2.484.468-1.172 1.328-2.047.859-.875 2.109-1.39 1.266-.516 2.86-.516 1.484 0 2.656.437 1.187.438 2 1.22.828.765 1.265 1.827.438 1.063.438 2.313 0 .922-.328 1.828-.313.906-.86 1.797-.531.89-1.234 1.765-.703.86-1.5 1.72l-5.594 6.077h10.469z" fill="#db4437"/><path d="m338.313 64.763q0 .672-.171 1.406-.157.735-.485 1.454-.312.734-.781 1.39-.453.656-1.047 1.172l-1.656-.906q.687-1 .969-2.14.296-1.126.296-2.345v-2.562h2.875z" fill="#e67c73"/><path d="m369.982 63.216h9.86v2.157h-13.235v-1.954l9.25-11.343h-9.125v-2.203h12.593v1.875z" fill="#000"/><path d="m390.019 63.654q0-.422.125-.797.14-.375.39-.656.266-.282.641-.438.39-.156.906-.156t.907.156q.406.156.672.438.265.281.39.656.14.375.14.797 0 .422-.14.781-.125.36-.39.64-.266.266-.672.407-.39.156-.906.156t-.907-.156q-.375-.14-.64-.406-.25-.282-.391-.64-.125-.36-.125-.782zm0-13q0-.422.125-.797.14-.375.39-.656.266-.282.641-.438.39-.156.906-.156t.907.156q.406.156.672.438.265.281.39.656.14.375.14.797 0 .422-.14.781-.125.36-.39.64-.266.266-.672.423-.39.14-.906.14t-.907-.14q-.375-.157-.64-.422-.25-.282-.391-.64-.125-.36-.125-.782z" fill="#e67c73"/><path d="m422.687 53.67h1.89q1.017 0 1.782-.266.766-.281 1.281-.75.532-.469.797-1.125.266-.656.266-1.453 0-1.813-.938-2.735-.921-.922-2.703-.922-.843 0-1.547.25-.687.25-1.187.72-.5.468-.766 1.124-.265.656-.265 1.485h-2.672q0-1.188.469-2.235.468-1.062 1.312-1.844.844-.78 2.016-1.234 1.187-.453 2.64-.453 1.39 0 2.547.39 1.172.376 2 1.126.828.734 1.281 1.843.47 1.094.47 2.547 0 .594-.188 1.25-.188.64-.578 1.25-.375.61-.985 1.14-.61.532-1.453.891 1.016.329 1.688.86.687.531 1.093 1.203.407.656.563 1.39.172.72.172 1.438 0 1.453-.5 2.594-.5 1.125-1.391 1.906-.89.781-2.11 1.188-1.202.406-2.593.406-1.375 0-2.594-.375-1.203-.39-2.094-1.125-.89-.75-1.421-1.828-.516-1.078-.516-2.453h2.656q0 .812.266 1.484.281.672.797 1.156.515.469 1.25.735.75.25 1.656.25.89 0 1.625-.235.734-.234 1.25-.719.516-.5.797-1.218.281-.719.281-1.703 0-.985-.328-1.688t-.906-1.172q-.578-.484-1.407-.703-.812-.234-1.812-.234h-1.89v-2.157z" fill="#db4437"/><path d="m456.934 68.966q.875-.03 1.453-.484.593-.453.937-1.172.36-.703.5-1.594.156-.875.156-1.765v-2.422q0-1.703.782-3 .797-1.297 2.453-1.953-1.656-.672-2.453-1.969-.782-1.297-.782-3.016v-2.421q0-.875-.093-1.765-.094-.89-.407-1.594-.296-.719-.906-1.172-.594-.453-1.625-.484l.281-1.656q1 .03 1.766.328.781.281 1.375.765.61.485 1.031 1.141.422.64.688 1.375.281.734.406 1.516.14.78.14 1.546v2.422q0 2.078.985 3 .984.922 3 .922v2.078q-2.016.016-3 .953-.984.922-.984 2.985v2.422q0 1.156-.328 2.312-.313 1.172-.985 2.125-.656.969-1.672 1.578-1.015.625-2.422.641l-.296-1.64zm21.084-18.312q0-.422.125-.797.14-.375.39-.656.266-.282.641-.438.39-.156.906-.156t.906.156q.407.156.672.438.266.281.391.656.14.375.14.797 0 .422-.14.781-.125.36-.39.64-.266.266-.673.423-.39.14-.906.14-.515 0-.906-.14-.375-.157-.64-.422-.25-.282-.391-.64-.125-.36-.125-.782zm3.093 14.11q0 .671-.171 1.405-.157.735-.485 1.454-.312.734-.781 1.39-.453.656-1.047 1.172l-1.656-.906q.687-1 .969-2.14.296-1.126.296-2.345v-2.562h2.875v2.531z" fill="#e67c73"/><path d="m49.264 110.482q0-1.672.485-3.11.484-1.437 1.39-2.5.922-1.062 2.22-1.671 1.296-.61 2.937-.61 1.64 0 2.953.61 1.312.61 2.219 1.672.906 1.062 1.39 2.5.5 1.437.5 3.109v.312q0 1.672-.5 3.11-.484 1.437-1.39 2.5-.907 1.047-2.22 1.656-1.296.594-2.921.594-1.656 0-2.969-.594-1.297-.61-2.219-1.656-.906-1.063-1.39-2.5-.485-1.438-.485-3.11zm2.641.312q0 1.141.266 2.188.28 1.031.828 1.828.562.781 1.39 1.25.829.453 1.938.453 1.078 0 1.906-.453.828-.469 1.375-1.25.547-.797.813-1.828.28-1.047.28-2.188v-.312q0-1.125-.28-2.156-.282-1.047-.828-1.828-.547-.797-1.375-1.266-.829-.469-1.922-.469-1.11 0-1.922.469-.813.469-1.375 1.266-.547.78-.828 1.828-.266 1.031-.266 2.156z" fill="#000"/><path d="m72.224 116.654q0-.422.125-.797.14-.375.39-.656.266-.282.64-.438.391-.156.907-.156t.906.156q.407.156.672.438.266.281.39.656.141.375.141.797 0 .422-.14.781-.125.36-.39.64-.266.266-.673.407-.39.156-.906.156t-.906-.156q-.375-.14-.64-.406-.25-.282-.391-.64-.125-.36-.125-.782z" fill="#e67c73"/><path d="m90.901 112.873.688 1.875 4.734-11.875h2.953l-7.859 17.89q-.266.61-.687 1.281-.422.672-1.032 1.235-.593.578-1.406.969-.797.39-1.844.39-.187 0-.422-.031-.218-.016-.453-.063-.218-.03-.422-.078-.203-.03-.328-.062l.422-2.172q.11 0 .281.016l.344.03q.188.016.36.016.171.016.28.016.548 0 .985-.297.453-.297.797-.719.36-.421.61-.859.25-.437.406-.734l1.047-2.063-6.672-14.765h2.968z" fill="#000"/><path d="m133.179 107.2h-12.781v-2.296h12.781v2.297zm0 5.938h-12.781v-2.281h12.781z" fill="#e67c73"/><path d="m168.691 110.404q0 1.984-.453 3.531-.453 1.531-1.313 2.594-.859 1.047-2.109 1.594-1.25.53-2.86.53-1.577 0-2.843-.53-1.25-.547-2.125-1.594-.875-1.063-1.344-2.594-.453-1.547-.453-3.531v-4.89q0-1.985.453-3.516.469-1.547 1.328-2.61.86-1.062 2.11-1.61 1.265-.562 2.859-.562t2.844.563q1.265.547 2.125 1.61.875 1.062 1.328 2.609.453 1.53.453 3.515v4.89zm-10.844-.531 8.125-6.235q-.234-2.078-1.218-3.156-.97-1.078-2.813-1.078-2.094 0-3.094 1.406t-1 4.11zm8.188-3.704-8.11 6.204q.25 2.015 1.25 3.078 1 1.062 2.782 1.062 2.109 0 3.093-1.422.985-1.437.985-4.14zm11.787 10.485q0-.422.125-.797.14-.375.39-.656.266-.282.641-.438.39-.156.907-.156.515 0 .906.156.406.156.672.438.265.281.39.656.14.375.14.797 0 .422-.14.781-.125.36-.39.64-.266.266-.672.407-.39.156-.906.156t-.907-.156q-.375-.14-.64-.406-.25-.282-.391-.64-.125-.36-.125-.782zm21.569 1.719h-2.641v-17.47l-5.453 2.079v-2.422l7.89-3.031h.204z" fill="#db4437"/><path d="m214.022 103.654q0-.422.125-.797.14-.375.39-.656.266-.282.64-.438.391-.156.907-.156t.906.156q.407.156.672.438.266.281.39.656.141.375.141.797 0 .422-.14.781-.125.36-.39.64-.266.266-.673.423-.39.14-.906.14t-.906-.14q-.375-.157-.64-.422-.25-.282-.391-.64-.125-.36-.125-.782zm3.093 14.11q0 .671-.172 1.405-.156.735-.484 1.454-.312.734-.781 1.39-.453.656-1.047 1.172l-1.656-.906q.687-1 .968-2.14.297-1.126.297-2.345v-2.562h2.875v2.531z" fill="#e67c73"/><path d="m653.672 128.54c0-6.282 5.093-11.375 11.375-11.375h142.068a11.376 11.376 0 0 1 11.376 11.376v45.5c0 6.283-5.093 11.376-11.376 11.376h-142.068c-6.282 0-11.375-5.093-11.375-11.375z" fill="#ff9800" fill-rule="evenodd"/><path d="m653.672 128.54c0-6.282 5.093-11.375 11.375-11.375h142.068a11.376 11.376 0 0 1 11.376 11.376v45.5c0 6.283-5.093 11.376-11.376 11.376h-142.068c-6.282 0-11.375-5.093-11.375-11.375z" stroke="#666" stroke-linecap="butt" stroke-linejoin="round"/><path d="m707.637 144.938q0-.5-.187-.937-.172-.453-.594-.828-.422-.391-1.11-.704-.671-.328-1.687-.593-1.234-.344-2.36-.844-1.124-.516-1.984-1.219-.859-.719-1.375-1.672-.515-.953-.515-2.187 0-1.203.5-2.172.515-.984 1.406-1.672.906-.687 2.125-1.062 1.219-.375 2.656-.375 1.485 0 2.703.437 1.235.422 2.125 1.203.891.781 1.375 1.844.5 1.062.5 2.344h-3.562q-.031-.64-.234-1.172-.204-.531-.61-.906-.39-.391-.984-.61-.578-.219-1.375-.219-.735 0-1.297.188-.563.172-.953.484-.39.313-.594.75-.203.438-.203.953 0 .532.266.97.265.421.765.765.516.344 1.235.64.718.282 1.64.516 1.297.39 2.39.938 1.095.546 1.876 1.296.797.735 1.234 1.704.438.953.438 2.125 0 1.25-.516 2.218-.5.97-1.39 1.641-.876.672-2.094 1.016-1.22.343-2.672.343-.89 0-1.781-.172-.891-.156-1.72-.484-.812-.344-1.515-.844-.703-.515-1.219-1.187-.5-.688-.796-1.547-.297-.86-.297-1.906h3.593q.032.86.297 1.484.282.61.766 1 .484.39 1.172.578.687.172 1.5.172.734 0 1.297-.172.562-.172.953-.469.39-.296.594-.718.218-.422.218-.938zm9.903-7.187q.703-1.032 1.703-1.61 1.016-.593 2.266-.593 1.11 0 2.03.343.923.328 1.58 1.032.67.687 1.046 1.796.375 1.094.375 2.641v8.531h-3.625v-8.547q0-.765-.188-1.312-.187-.547-.546-.875-.344-.344-.844-.5-.485-.172-1.11-.172-.921 0-1.593.328-.657.328-1.094.906v10.172h-3.625v-20h3.625zm21.184 12.14q-.14-.265-.235-.593-.078-.344-.156-.72-.297.329-.687.61-.391.281-.875.5-.47.219-1.047.344-.563.125-1.219.125-1.078 0-1.984-.313-.907-.312-1.563-.875-.656-.562-1.015-1.328-.36-.78-.36-1.687 0-2.235 1.656-3.453 1.657-1.219 4.954-1.219h2.015v-.828q0-1.016-.672-1.61-.656-.593-1.906-.593-1.11 0-1.625.484-.5.469-.5 1.266h-3.61q0-.907.391-1.703.407-.813 1.157-1.422.765-.61 1.859-.969 1.11-.36 2.531-.36 1.266 0 2.36.313 1.109.313 1.906.922.812.61 1.265 1.547.47.922.47 2.156v6.031q0 1.141.14 1.891.14.734.406 1.266v.218zm-3.453-2.53q.547 0 1.015-.126.469-.14.844-.344.375-.218.64-.484.282-.266.438-.531v-2.422h-1.844q-.843 0-1.453.156-.593.156-.968.453-.375.297-.563.703-.187.407-.187.891 0 .734.515 1.219.516.484 1.563.484zm23.293-4.376q0 1.531-.36 2.844-.359 1.312-1.062 2.281-.688.953-1.719 1.5-1.015.547-2.343.547-1.141 0-2-.39-.86-.391-1.5-1.094v6.64h-3.61v-19.5h3.344l.125 1.375q.656-.781 1.531-1.203.89-.437 2.078-.437 1.344 0 2.36.515 1.03.516 1.734 1.469.703.937 1.063 2.266.359 1.312.359 2.906zm-3.61-.281q0-.875-.171-1.656-.157-.782-.5-1.344-.344-.563-.891-.89-.547-.329-1.313-.329-.953 0-1.562.375-.594.375-.938 1.047v5.89q.344.657.938 1.063.61.39 1.594.39.765 0 1.297-.327.547-.344.89-.922.344-.594.5-1.375.157-.782.157-1.64v-.282zm13.794 7.453q-1.625 0-2.953-.531-1.329-.547-2.282-1.453-.953-.922-1.468-2.157-.516-1.25-.516-2.672v-.515q0-1.625.5-2.953.516-1.328 1.422-2.297.922-.969 2.172-1.5t2.718-.531q1.516 0 2.704.5 1.203.5 2.03 1.421.829.907 1.25 2.188.438 1.281.438 2.828v1.531h-9.562q.11.72.422 1.313.328.594.812 1.031.5.422 1.14.656.641.235 1.391.235.532 0 1.063-.094.531-.11 1-.313.484-.203.906-.5.422-.312.735-.703l1.796 1.953q-.328.47-.875.938-.53.469-1.28.828-.735.344-1.641.563-.891.234-1.922.234zm-.438-11.688q-.61 0-1.125.22-.5.218-.89.624-.375.406-.641.969-.25.547-.39 1.234h5.937v-.28q-.016-.579-.219-1.079-.187-.516-.562-.875-.36-.375-.891-.594-.531-.219-1.219-.219zm-45.881 30.351q0-1.28.187-2.421.203-1.14.531-2.094.344-.969.797-1.75.453-.797.953-1.406.5-.61 1.032-1.031.53-.422 1.03-.657l.5 1.391q-.515.39-1.03 1.047-.5.656-.907 1.64-.406.985-.671 2.282-.25 1.297-.25 2.984v.234q0 1.688.25 2.985.265 1.297.671 2.281.407.984.907 1.64.515.673 1.03 1.063l-.5 1.36q-.5-.22-1.03-.657-.532-.422-1.032-1.03-.5-.595-.953-1.392-.453-.796-.797-1.75-.328-.968-.53-2.093-.188-1.14-.188-2.422v-.203zm13.851-1.39 2.172-3.078h2.72l-3.313 4.844 3.421 5.015h-2.718l-2.282-3.218-2.25 3.218h-2.734l3.422-5.015-3.297-4.844h2.719zm13.43 1.594q0 1.25-.203 2.36-.203 1.109-.547 2.077-.343.97-.812 1.766-.453.797-.984 1.422-.516.625-1.063 1.062-.547.438-1.062.657l-.485-1.36q.5-.39 1.016-1.062.515-.657.922-1.625.406-.969.656-2.282.266-1.312.266-3v-.234q0-1.687-.266-2.984-.266-1.313-.688-2.297-.406-.985-.906-1.656-.5-.672-1-1.047l.485-1.36q.515.235 1.062.672.547.438 1.063 1.063.53.625.984 1.422.469.796.812 1.765.344.953.547 2.078.203 1.11.203 2.36z" fill="#fff"/><path d="m664.68 185.596h142.582v30.015h-142.582z" fill="#bdbdbd" fill-rule="evenodd"/><path d="m664.68 185.596h142.582v30.015h-142.582z" stroke="#666" stroke-linecap="butt" stroke-linejoin="round"/><path d="m697.142 194.54-.203 3.359h-1.25l.015-3.204v-1.171h1.438v1.015zm10.899 6.78 2.64-3.656h1.969l-3.672 4.875 3.766 4.985h-1.938l-2.734-3.75-2.719 3.75h-1.969l3.766-4.985-3.656-4.875h1.937zm11.492-6.78-.203 3.359h-1.25l.016-3.204v-1.171h1.437v1.015zm9.758 11.89q0-.266.078-.5.094-.25.25-.422.172-.188.422-.281.25-.094.578-.094.328 0 .578.094.25.093.407.281.172.172.25.422.093.234.093.5 0 .265-.093.5-.078.234-.25.406-.157.172-.407.266-.25.093-.578.093-.328 0-.578-.093-.25-.094-.422-.266-.156-.172-.25-.406-.078-.235-.078-.5zm0-8q0-.266.078-.5.094-.25.25-.422.172-.188.422-.281.25-.094.578-.094.328 0 .578.094.25.093.407.281.172.172.25.422.093.234.093.5 0 .265-.093.5-.078.234-.25.406-.157.172-.407.266-.25.093-.578.093-.328 0-.578-.093-.25-.094-.422-.266-.156-.172-.25-.406-.078-.235-.078-.5zm26.407 5.734q0-.61-.281-1.015-.282-.422-.72-.704-.437-.296-.968-.484-.515-.187-1-.344-.703-.234-1.422-.547-.718-.328-1.328-.78-.594-.47-.969-1.095-.375-.64-.375-1.5 0-.859.375-1.53.375-.673.985-1.141.61-.47 1.375-.704.781-.25 1.578-.25.86 0 1.656.297.813.282 1.422.813.625.515 1 1.25.375.734.39 1.64h-1.734q-.078-.562-.28-1.03-.204-.47-.563-.813-.344-.344-.829-.516-.468-.187-1.062-.187-.484 0-.953.14-.453.125-.813.406-.36.266-.578.672-.219.391-.219.922.016.578.297.985.282.39.72.671.437.266.937.454.5.171.953.312.484.156.984.36.5.187.969.437t.86.578q.405.313.702.719.313.406.47.89.17.485.17 1.079 0 .89-.405 1.562-.39.672-1.016 1.11-.625.437-1.422.671-.781.22-1.578.22-.89 0-1.734-.267-.844-.28-1.516-.796t-1.094-1.25q-.406-.75-.437-1.704h1.719q.078.625.328 1.11.265.469.656.812.406.328.922.5.531.157 1.156.157.484 0 .969-.125.484-.125.844-.375.375-.266.609-.657.25-.406.25-.953zm5.024-6.5.046.938q.297-.532.782-.813.5-.297 1.187-.297 1.36 0 1.813 1.047.297-.469.765-.75.485-.297 1.157-.297 1.093 0 1.671.672.579.656.579 2v7.36h-1.594v-7.375q0-1.25-1.14-1.235-.298 0-.516.094-.22.078-.375.219-.141.14-.22.328-.077.187-.109.375v7.594h-1.609v-7.391q0-.594-.266-.906-.265-.328-.828-.313-.53 0-.828.219-.281.203-.422.547v7.844h-1.609v-9.86zm10.68 0h5.046v8.406h3.22v1.454h-8.266v-1.454h3.359v-6.937h-3.36v-1.469zm3.14-2.578q0-.422.25-.703.25-.297.766-.297.5 0 .75.297.25.281.25.703 0 .406-.25.688-.25.265-.75.265-.516 0-.766-.265-.25-.282-.25-.688z" fill="#000"/><path d="m148.024 248.515c0-6.283 5.093-11.376 11.375-11.376h166.225a11.376 11.376 0 0 1 11.376 11.376v45.5c0 6.283-5.093 11.376-11.376 11.376h-166.224c-6.282 0-11.375-5.093-11.375-11.375z" fill="#34a853" fill-rule="evenodd"/><path d="m148.024 248.515c0-6.283 5.093-11.376 11.375-11.376h166.225a11.376 11.376 0 0 1 11.376 11.376v45.5c0 6.283-5.093 11.376-11.376 11.376h-166.224c-6.282 0-11.375-5.093-11.375-11.375z" stroke="#666" stroke-linecap="butt" stroke-linejoin="round"/><path d="m177.971 261.912h3.657l.015 13.14q-.015 1.344-.515 2.47-.5 1.109-1.375 1.921-.86.797-2.047 1.25-1.172.438-2.531.438-1.422 0-2.594-.36-1.172-.375-2.016-1.093-.844-.72-1.312-1.813-.469-1.094-.485-2.578h3.672q.016 1.531.672 2.219.672.672 2.063.672.625 0 1.14-.235.531-.234.89-.656.376-.422.563-1 .203-.578.203-1.234zm16.903 14q0-.5-.187-.938-.172-.453-.594-.828-.422-.39-1.11-.703-.671-.328-1.687-.594-1.234-.343-2.36-.843-1.124-.516-1.984-1.219-.86-.719-1.375-1.672t-.515-2.187q0-1.204.5-2.172.515-.985 1.406-1.672.906-.688 2.125-1.063 1.219-.375 2.656-.375 1.484 0 2.703.438 1.235.422 2.125 1.203.89.781 1.375 1.844.5 1.062.5 2.343h-3.562q-.032-.64-.235-1.171-.203-.532-.61-.907-.39-.39-.983-.609-.579-.219-1.375-.219-.735 0-1.297.188-.563.172-.953.484-.391.313-.594.75-.203.438-.203.953 0 .531.265.969.266.422.766.766.516.343 1.234.64.72.281 1.64.516 1.298.39 2.392.937 1.093.547 1.875 1.297.796.735 1.234 1.703.437.953.437 2.125 0 1.25-.515 2.22-.5.968-1.39 1.64-.876.672-2.095 1.015-1.218.344-2.671.344-.891 0-1.782-.172-.89-.156-1.718-.484-.813-.344-1.516-.844-.703-.516-1.219-1.187-.5-.688-.797-1.547-.297-.86-.297-1.907h3.594q.031.86.297 1.485.281.61.766 1 .484.39 1.172.578.687.172 1.5.172.734 0 1.296-.172.563-.172.954-.469.39-.297.593-.719.22-.421.22-.937zm19.371-3.125q0 1.812-.484 3.36-.469 1.53-1.39 2.64-.907 1.11-2.22 1.734-1.296.61-2.937.61-1.64 0-2.922-.61-1.265-.625-2.14-1.734-.875-1.125-1.328-2.656-.454-1.532-.454-3.344v-2.766q0-1.828.454-3.359.453-1.531 1.328-2.64.875-1.126 2.14-1.75 1.266-.626 2.907-.626 1.656 0 2.953.625 1.312.625 2.218 1.75.922 1.11 1.391 2.641.484 1.531.484 3.36zm-3.703-2.797q0-1.156-.187-2.125-.188-.984-.594-1.687-.406-.704-1.047-1.094-.625-.39-1.515-.39-.891 0-1.485.39-.594.39-.969 1.094-.359.703-.515 1.687-.156.969-.156 2.125v2.797q0 1.14.156 2.125.156.969.515 1.687.375.72.97 1.125.593.391 1.5.391.874 0 1.5-.39.64-.407 1.03-1.11.407-.719.594-1.687.203-.985.203-2.141zm19.31 3.984q0 1.563-.36 2.891-.344 1.313-1.031 2.266-.688.937-1.72 1.468-1.015.532-2.39.532-1.234 0-2.14-.453-.907-.47-1.547-1.313l-.172 1.5h-3.266v-20h3.625v7.188q.625-.72 1.469-1.125.86-.407 2-.407 1.39 0 2.422.532 1.031.53 1.719 1.484.687.953 1.03 2.281.36 1.313.36 2.875v.281zm-3.626-.28q0-.86-.14-1.626-.125-.765-.438-1.344-.312-.578-.86-.921-.546-.344-1.374-.344-.985 0-1.61.422-.61.422-.953 1.14v5.61q.344.734.953 1.156.625.406 1.64.406.813 0 1.345-.312.547-.328.859-.89.313-.563.438-1.329.14-.781.14-1.688zm9.09-6.907h7.203v14.406q0 1.406-.406 2.406-.39 1.016-1.172 1.672-.765.657-1.875.97-1.094.312-2.515.312-.594 0-1.188-.047t-1.14-.172l.171-2.938q.157.032.438.063t.578.047q.297.031.562.031.266.016.391.016.531 0 .984-.125.47-.11.797-.391.328-.266.516-.719.203-.453.203-1.125v-11.453h-3.547zm3.297-3.61q0-.421.14-.78.157-.36.423-.61.28-.25.656-.39.39-.141.86-.141.952 0 1.515.547.578.53.578 1.375 0 .843-.578 1.39-.563.531-1.516.531-.469 0-.86-.14-.374-.14-.655-.39-.266-.266-.422-.61-.14-.36-.14-.781zm17.371 17.954q-1.625 0-2.953-.532-1.328-.546-2.28-1.453-.954-.922-1.47-2.156-.515-1.25-.515-2.672v-.515q0-1.625.5-2.954.515-1.328 1.422-2.296.921-.97 2.171-1.5 1.25-.532 2.72-.532 1.515 0 2.702.5 1.203.5 2.032 1.422.828.906 1.25 2.188.437 1.281.437 2.828v1.531h-9.562q.109.719.421 1.313.329.593.813 1.03.5.423 1.14.657.641.234 1.391.234.531 0 1.063-.093.531-.11 1-.313.484-.203.906-.5.422-.312.734-.703l1.797 1.953q-.328.469-.875.938-.531.468-1.281.828-.734.344-1.64.562-.891.235-1.923.235zm-.437-11.688q-.61 0-1.125.219-.5.219-.89.625-.376.406-.641.969-.25.547-.39 1.234h5.937v-.281q-.016-.578-.22-1.078-.187-.516-.562-.875-.359-.375-.89-.594-.532-.219-1.219-.219zm15.824 8.797q.547 0 1.016-.156.484-.156.844-.438.375-.297.578-.703.203-.406.172-.89h3.406q.031 1.093-.453 2.03-.469.938-1.297 1.61-.812.672-1.906 1.063-1.078.375-2.281.375-1.641 0-2.891-.547-1.234-.547-2.063-1.516-.812-.969-1.25-2.25-.421-1.297-.421-2.781v-.39q0-1.485.421-2.782.422-1.297 1.25-2.25.829-.969 2.063-1.531 1.234-.563 2.86-.563 1.296 0 2.406.391 1.109.39 1.906 1.11.797.702 1.234 1.718.453 1 .422 2.25h-3.406q.031-.516-.156-.984-.188-.469-.547-.813-.344-.344-.844-.547-.484-.203-1.063-.203-.859 0-1.421.36-.563.343-.891.937-.328.578-.469 1.344-.14.75-.14 1.562v.391q0 .812.125 1.578.14.766.468 1.344.328.578.891.937.578.344 1.437.344zm16.403-14.906v3.453h5.266v2.656h-5.266v6.063q0 .765.172 1.281.187.516.5.828.328.297.797.438.469.125 1.031.125.422 0 .86-.032.437-.047.828-.109.406-.063.75-.125.343-.063.578-.125l.359 2.484q-.375.22-.89.391-.5.156-1.079.25-.562.11-1.187.156-.625.063-1.219.063-1.156 0-2.11-.297-.937-.313-1.609-.953-.672-.64-1.031-1.64-.36-1-.36-2.392v-6.406h-3.218v-2.656h3.219v-3.453zm19.661 12.516q0-1.079.312-1.985.313-.922.906-1.594.594-.687 1.454-1.062.859-.375 1.968-.375 1.125 0 1.985.375.86.375 1.453 1.062.61.672.906 1.594.313.906.313 1.984v.188q0 1.078-.313 2-.297.922-.89 1.594-.594.672-1.47 1.047-.859.375-1.952.375-1.125 0-2-.375-.86-.375-1.454-1.047-.593-.672-.906-1.594-.312-.922-.312-2v-.188zm2.531.187q0 .625.11 1.172.124.531.374.937.266.407.672.641.406.234.985.234.546 0 .937-.234.406-.234.656-.64.25-.407.375-.938.125-.547.125-1.172v-.188q0-.609-.125-1.14-.125-.547-.375-.953-.25-.407-.656-.64-.39-.235-.969-.235-.562 0-.968.234-.391.234-.657.64-.25.407-.375.954-.109.531-.109 1.14z" fill="#fff"/><path d="m160.645 305.568h163.495v59.717h-163.495z" fill="#bdbdbd" fill-rule="evenodd"/><path d="m160.645 305.568h163.495v59.717h-163.495z" stroke="#666" stroke-linecap="butt" stroke-linejoin="round"/><path d="m244.27 343.967h-2.172v-14.297l-4.47 1.703v-1.984l6.454-2.485h.188z" fill="#000"/><path d="m653.672 18.726c0-6.283 5.093-11.376 11.375-11.376h142.068a11.376 11.376 0 0 1 11.376 11.376v45.5c0 6.283-5.093 11.376-11.376 11.376h-142.068c-6.282 0-11.375-5.093-11.375-11.375z" fill="#ff9800" fill-rule="evenodd"/><path d="m653.672 18.726c0-6.283 5.093-11.376 11.375-11.376h142.068a11.376 11.376 0 0 1 11.376 11.376v45.5c0 6.283-5.093 11.376-11.376 11.376h-142.068c-6.282 0-11.375-5.093-11.375-11.375z" stroke="#666" stroke-linecap="butt" stroke-linejoin="round"/><path d="m707.637 35.123q0-.5-.187-.937-.172-.453-.594-.828-.422-.391-1.11-.703-.671-.329-1.687-.594-1.234-.344-2.36-.844-1.124-.516-1.984-1.219-.859-.718-1.375-1.672-.515-.953-.515-2.187 0-1.203.5-2.172.515-.984 1.406-1.672.906-.687 2.125-1.062 1.219-.375 2.656-.375 1.485 0 2.703.437 1.235.422 2.125 1.203.891.782 1.375 1.844.5 1.063.5 2.344h-3.562q-.031-.64-.234-1.172-.204-.531-.61-.906-.39-.391-.984-.61-.578-.218-1.375-.218-.735 0-1.297.187-.563.172-.953.484-.39.313-.594.75-.203.438-.203.954 0 .53.266.968.265.422.765.766.516.344 1.235.64.718.282 1.64.516 1.297.39 2.39.938 1.095.547 1.876 1.297.797.734 1.234 1.703.438.953.438 2.125 0 1.25-.516 2.218-.5.97-1.39 1.641-.876.672-2.094 1.016-1.22.343-2.672.343-.89 0-1.781-.172-.891-.156-1.72-.484-.812-.344-1.515-.844-.703-.515-1.219-1.187-.5-.688-.796-1.547-.297-.86-.297-1.906h3.593q.032.86.297 1.484.282.61.766 1 .484.39 1.172.578.687.172 1.5.172.734 0 1.297-.172.562-.172.953-.468.39-.297.594-.72.218-.421.218-.937zm9.903-7.187q.703-1.031 1.703-1.61 1.016-.593 2.266-.593 1.11 0 2.03.343.923.329 1.58 1.032.67.687 1.046 1.797.375 1.093.375 2.64v8.531h-3.625v-8.546q0-.766-.188-1.313-.187-.547-.546-.875-.344-.344-.844-.5-.485-.172-1.11-.172-.921 0-1.593.328-.657.328-1.094.907v10.171h-3.625v-20h3.625zm21.184 12.14q-.14-.265-.235-.593-.078-.344-.156-.72-.297.329-.687.61-.391.282-.875.5-.47.219-1.047.344-.563.125-1.219.125-1.078 0-1.984-.313-.907-.312-1.563-.875-.656-.562-1.015-1.328-.36-.78-.36-1.687 0-2.235 1.656-3.453 1.657-1.219 4.954-1.219h2.015v-.828q0-1.016-.672-1.61-.656-.593-1.906-.593-1.11 0-1.625.484-.5.469-.5 1.266h-3.61q0-.906.391-1.703.407-.813 1.157-1.422.765-.61 1.859-.969 1.11-.36 2.531-.36 1.266 0 2.36.313 1.109.313 1.906.922.812.61 1.265 1.547.47.922.47 2.156v6.031q0 1.141.14 1.891.14.734.406 1.266v.218zm-3.453-2.53q.547 0 1.015-.126.469-.14.844-.344.375-.218.64-.484.282-.266.438-.531v-2.422h-1.844q-.843 0-1.453.156-.593.156-.968.453-.375.297-.563.703-.187.407-.187.891 0 .734.515 1.219.516.484 1.563.484zm23.293-4.376q0 1.531-.36 2.844-.359 1.312-1.062 2.281-.688.953-1.719 1.5-1.015.547-2.343.547-1.141 0-2-.39-.86-.391-1.5-1.094v6.64h-3.61v-19.5h3.344l.125 1.375q.656-.781 1.531-1.203.89-.437 2.078-.437 1.344 0 2.36.515 1.03.516 1.734 1.469.703.938 1.063 2.266.359 1.312.359 2.906zm-3.61-.281q0-.875-.171-1.656-.157-.782-.5-1.344-.344-.563-.891-.89-.547-.329-1.313-.329-.953 0-1.562.375-.594.375-.938 1.047v5.89q.344.657.938 1.063.61.39 1.594.39.765 0 1.297-.327.547-.344.89-.922.344-.594.5-1.375.157-.782.157-1.64v-.282zm13.794 7.453q-1.625 0-2.953-.531-1.329-.547-2.282-1.453-.953-.922-1.468-2.157-.516-1.25-.516-2.672v-.515q0-1.625.5-2.953.516-1.328 1.422-2.297.922-.969 2.172-1.5t2.718-.531q1.516 0 2.704.5 1.203.5 2.03 1.422.829.906 1.25 2.187.438 1.281.438 2.828v1.531h-9.562q.11.72.422 1.313.328.594.812 1.031.5.422 1.14.656.641.235 1.391.235.532 0 1.063-.094.531-.11 1-.313.484-.203.906-.5.422-.312.735-.703l1.796 1.953q-.328.47-.875.938-.53.469-1.28.828-.735.344-1.641.563-.891.234-1.922.234zm-.438-11.687q-.61 0-1.125.218-.5.219-.89.625-.375.407-.641.969-.25.547-.39 1.234h5.937v-.28q-.016-.579-.219-1.079-.187-.516-.562-.875-.36-.375-.891-.594-.531-.218-1.219-.218zm-68.272 30.351q0-1.282.187-2.422.203-1.14.531-2.094.344-.969.797-1.75.453-.797.953-1.406.5-.61 1.032-1.031.53-.422 1.03-.657l.5 1.391q-.515.39-1.03 1.047-.5.656-.907 1.64-.406.985-.672 2.282-.25 1.297-.25 2.984v.234q0 1.688.25 2.985.266 1.297.672 2.281.407.985.907 1.64.515.673 1.03 1.063l-.5 1.36q-.5-.22-1.03-.657-.532-.421-1.032-1.03-.5-.595-.953-1.391-.453-.797-.797-1.75-.328-.97-.531-2.094-.188-1.14-.188-2.422v-.203zm14.117 5.578q-1.14 0-2.078-.375-.922-.375-1.594-1.016-.656-.64-1.016-1.515-.359-.875-.359-1.86v-.375q0-1.125.36-2.047.359-.937.984-1.609.64-.687 1.515-1.047.875-.375 1.907-.375 1.062 0 1.89.344.844.344 1.422.984t.875 1.547q.313.89.313 1.969v1.078h-6.688q.063.5.281.922.235.406.579.719.343.297.78.468.454.157.985.157.375 0 .735-.078.375-.079.703-.22.343-.14.64-.343.297-.219.516-.5l1.266 1.375q-.235.328-.625.656-.375.328-.891.578-.516.25-1.14.407-.626.156-1.36.156zm-.297-8.172q-.422 0-.781.156-.36.14-.625.422-.266.281-.453.672-.188.39-.266.875h4.14v-.203q-.015-.39-.156-.75-.125-.36-.39-.61-.25-.265-.625-.406-.36-.156-.844-.156zm8.29-1.875.078 1.203q.28-.64.765-1 .5-.375 1.219-.375 1.187 0 1.562 1.047.282-.5.735-.766.453-.28 1.094-.28.437 0 .828.171.39.156.672.516.296.359.453.921.156.563.156 1.391v7.031h-2.313v-7.046q0-.28-.062-.453-.047-.187-.156-.28-.094-.11-.235-.157-.125-.047-.265-.047-.266 0-.453.125-.172.125-.266.328v7.531h-2.234v-7.047q0-.28-.063-.468-.047-.188-.14-.282-.094-.093-.235-.14-.125-.047-.266-.047-.296 0-.468.172-.172.156-.282.437v7.375h-2.296v-9.859h2.171zm18.476 5.016q0 1.078-.25 2-.25.921-.75 1.593-.484.672-1.203 1.063-.719.375-1.64.375-.797 0-1.407-.266-.594-.281-1.031-.781v4.656h-2.531v-13.656h2.328l.094.969q.453-.547 1.078-.844.625-.297 1.453-.297.937 0 1.656.36.719.359 1.203 1.015.5.656.75 1.578t.25 2.047zm-2.531-.188q0-.61-.125-1.156-.11-.547-.36-.938-.234-.406-.609-.625-.375-.234-.906-.234-.672 0-1.094.266-.422.265-.656.734v4.11q.234.468.656.75.422.28 1.11.28.53 0 .906-.234.39-.25.625-.656.234-.406.344-.953.109-.547.109-1.156zm9.524-7.234v2.406h3.672v1.875h-3.672v4.234q0 .532.109.891.125.36.344.578.234.219.562.313.328.078.719.078.297 0 .594-.016.312-.031.594-.062.28-.047.515-.094.25-.047.422-.094l.234 1.734q-.25.157-.609.282-.36.11-.766.172-.39.078-.828.109-.437.047-.843.047-.813 0-1.485-.203-.656-.219-1.125-.672-.469-.453-.734-1.14-.25-.704-.25-1.673v-4.484h-2.25v-1.875h2.25v-2.406zm10.742 8.125.297 1.062 2.625-6.781h2.797l-5.016 11.328q-.156.375-.422.813-.25.437-.64.812-.39.375-.953.625-.563.266-1.329.266-.187 0-.343-.016-.157-.015-.297-.047-.14-.015-.281-.047-.141-.03-.313-.078l.313-1.922h.39q.25.016.39.016.298 0 .532-.187.234-.172.39-.391.173-.219.266-.406.11-.172.141-.172l.61-1.156-4.173-9.438h2.782zm13.743-1.047q0 1.25-.204 2.36-.203 1.109-.546 2.077-.344.97-.813 1.766-.453.797-.984 1.422-.516.625-1.063 1.062-.547.438-1.062.657l-.485-1.36q.5-.39 1.016-1.062.516-.656.922-1.625t.656-2.282q.266-1.312.266-3v-.234q0-1.687-.266-2.984-.266-1.313-.687-2.297-.407-.985-.907-1.656-.5-.672-1-1.047l.485-1.36q.515.235 1.062.672.547.438 1.063 1.063.531.625.984 1.422.469.796.813 1.765.343.953.546 2.078.204 1.11.204 2.36z" fill="#fff"/><path d="m337 271.265c33.083 0 49.623 40.126 66.167 80.252 16.543 40.126 33.09 80.252 66.18 80.252" fill="none"/><path d="m337 271.265c33.083 0 49.623 40.126 66.167 80.252 8.271 20.063 16.544 40.126 26.885 55.173 2.585 3.762 5.3 7.21 8.175 10.267a61.287 61.287 0 0 0 4.44 4.28 52.574 52.574 0 0 0 3.503 2.79l.37.266" stroke="#595959" stroke-linecap="butt" stroke-linejoin="round" stroke-width="4"/><path d="m444.483 430.57 19.307-.623-15.191-11.933z" fill="#595959" fill-rule="evenodd" stroke="#595959" stroke-linecap="butt" stroke-width="4"/><path d="m736.081 75.602v41.575" fill="none"/><path d="m736.081 87.602v17.575" stroke="#666" stroke-linecap="butt" stroke-linejoin="round" stroke-width="2"/><path d="m739.385 87.602-3.304-9.076-3.303 9.076zm-6.607 17.575 3.303 9.076 3.304-9.076z" fill="#666" fill-rule="evenodd" stroke="#666" stroke-linecap="butt" stroke-width="2"/><path d="m736.081 70.848h57.008v51.086h-57.008z" fill="none"/><path d="m753.745 90.327-.203 3.36h-1.25l.016-3.204v-1.172h1.437zm10.899 6.781 2.64-3.656h1.97l-3.673 4.875 3.766 4.984h-1.938l-2.734-3.75-2.719 3.75h-1.969l3.766-4.984-3.656-4.875h1.937zm11.492-6.781-.203 3.36h-1.25l.016-3.204v-1.172h1.437z" fill="#000"/><path d="m653.672 268.74c0-6.282 5.093-11.375 11.375-11.375h142.068a11.376 11.376 0 0 1 11.376 11.375v45.501c0 6.283-5.093 11.376-11.376 11.376h-142.068c-6.282 0-11.375-5.093-11.375-11.376z" fill="#b45f06" fill-rule="evenodd"/><path d="m653.672 268.74c0-6.282 5.093-11.375 11.375-11.375h142.068a11.376 11.376 0 0 1 11.376 11.375v45.501c0 6.283-5.093 11.376-11.376 11.376h-142.068c-6.282 0-11.375-5.093-11.375-11.376z" stroke="#666" stroke-linecap="butt" stroke-linejoin="round"/><path d="m707.637 285.138q0-.5-.187-.938-.172-.453-.594-.828-.422-.39-1.11-.703-.671-.328-1.687-.594-1.234-.344-2.36-.844-1.124-.515-1.984-1.218-.859-.719-1.375-1.672-.515-.953-.515-2.188 0-1.203.5-2.172.515-.984 1.406-1.671.906-.688 2.125-1.063 1.219-.375 2.656-.375 1.485 0 2.703.438 1.235.421 2.125 1.203.891.781 1.375 1.843.5 1.063.5 2.344h-3.562q-.031-.64-.234-1.172-.204-.53-.61-.906-.39-.39-.984-.61-.578-.218-1.375-.218-.735 0-1.297.187-.563.172-.953.485-.39.312-.594.75-.203.437-.203.953 0 .531.266.969.265.422.765.765.516.344 1.235.64.718.282 1.64.517 1.297.39 2.39.937 1.095.547 1.876 1.297.797.734 1.234 1.703.438.953.438 2.125 0 1.25-.516 2.219-.5.969-1.39 1.64-.876.672-2.094 1.016-1.22.344-2.672.344-.89 0-1.781-.172-.891-.156-1.72-.484-.812-.344-1.515-.844-.703-.516-1.219-1.188-.5-.687-.796-1.547-.297-.859-.297-1.906h3.593q.032.86.297 1.485.282.609.766 1 .484.39 1.172.578.687.172 1.5.172.734 0 1.297-.172.562-.172.953-.469.39-.297.594-.719.218-.422.218-.937zm9.903-7.188q.703-1.031 1.703-1.61 1.016-.593 2.266-.593 1.11 0 2.03.344.923.328 1.58 1.031.67.688 1.046 1.797.375 1.094.375 2.64v8.532h-3.625v-8.547q0-.766-.188-1.313-.187-.546-.546-.875-.344-.343-.844-.5-.485-.171-1.11-.171-.921 0-1.593.328-.657.328-1.094.906v10.172h-3.625v-20h3.625v7.86zm21.184 12.14q-.14-.265-.235-.593-.078-.344-.156-.719-.297.328-.687.61-.391.281-.875.5-.47.218-1.047.343-.563.125-1.219.125-1.078 0-1.984-.312-.907-.313-1.563-.875-.656-.563-1.015-1.328-.36-.781-.36-1.688 0-2.234 1.656-3.453 1.657-1.219 4.954-1.219h2.015v-.828q0-1.015-.672-1.61-.656-.593-1.906-.593-1.11 0-1.625.485-.5.468-.5 1.265h-3.61q0-.906.391-1.703.407-.812 1.157-1.422.765-.61 1.859-.969 1.11-.359 2.531-.359 1.266 0 2.36.313 1.109.312 1.906.921.812.61 1.265 1.547.47.922.47 2.157v6.03q0 1.141.14 1.891.14.735.406 1.266v.219h-3.656zm-3.453-2.53q.547 0 1.015-.125.469-.141.844-.344.375-.219.64-.485.282-.265.438-.53v-2.423h-1.844q-.843 0-1.453.157-.593.156-.968.453-.375.297-.563.703-.187.406-.187.89 0 .735.515 1.22.516.484 1.563.484zm23.293-4.375q0 1.53-.36 2.843-.359 1.313-1.062 2.282-.688.953-1.719 1.5-1.015.546-2.343.546-1.141 0-2-.39-.86-.39-1.5-1.094v6.64h-3.61v-19.5h3.344l.125 1.376q.656-.782 1.531-1.203.89-.438 2.078-.438 1.344 0 2.36.516 1.03.515 1.734 1.468.703.938 1.063 2.266.359 1.313.359 2.906zm-3.61-.282q0-.875-.171-1.656-.157-.781-.5-1.344-.344-.562-.891-.89-.547-.328-1.313-.328-.953 0-1.562.375-.594.375-.938 1.046v5.891q.344.656.938 1.063.61.39 1.594.39.765 0 1.297-.328.547-.344.89-.922.344-.594.5-1.375.157-.781.157-1.64v-.282zm13.794 7.453q-1.625 0-2.953-.53-1.329-.548-2.282-1.454-.953-.922-1.468-2.156-.516-1.25-.516-2.672v-.516q0-1.625.5-2.953.516-1.328 1.422-2.297.922-.968 2.172-1.5 1.25-.53 2.718-.53 1.516 0 2.704.5 1.203.5 2.03 1.421.829.906 1.25 2.187.438 1.282.438 2.829v1.53h-9.562q.11.72.422 1.313.328.594.812 1.032.5.421 1.14.656.641.234 1.391.234.532 0 1.063-.094.531-.109 1-.312.484-.203.906-.5.422-.313.735-.703l1.796 1.953q-.328.469-.875.937-.53.47-1.28.829-.735.343-1.641.562-.891.234-1.922.234zm-.438-11.687q-.61 0-1.125.219-.5.218-.89.625-.375.406-.641.968-.25.547-.39 1.235h5.937v-.281q-.016-.579-.219-1.079-.187-.515-.562-.875-.36-.375-.891-.593-.531-.219-1.219-.219zm-95.824 30.945 2.203 3.625h-1.64l-2.563-3.547v-.172l2.563-3.547h1.64l-2.203 3.64zm4 0 2.203 3.625h-1.64l-2.563-3.547v-.172l2.563-3.547h1.64l-2.203 3.64zm4.633-.203q0-1.125.266-2.047.265-.938.765-1.594.5-.672 1.204-1.031.718-.36 1.64-.36.781 0 1.36.282.593.265 1.046.781v-5.031h2.547v14h-2.297l-.125-1.031q-.468.578-1.093.906-.625.312-1.453.312-.907 0-1.625-.375-.704-.39-1.204-1.047-.5-.671-.765-1.578-.266-.922-.266-2zm2.531.187q0 .625.11 1.157.11.53.344.937.234.39.609.625.375.219.906.219.656 0 1.094-.281.437-.282.687-.782v-3.984q-.25-.5-.687-.781-.422-.282-1.078-.282-.531 0-.906.235-.375.234-.625.64-.235.407-.344.954-.11.53-.11 1.156zm13.712 5q-1.141 0-2.079-.375-.921-.375-1.593-1.015-.657-.641-1.016-1.516-.36-.875-.36-1.86v-.374q0-1.125.36-2.047.36-.938.984-1.61.641-.687 1.516-1.046.875-.375 1.906-.375 1.063 0 1.891.343.844.344 1.422.985.578.64.875 1.547.312.89.312 1.968v1.078h-6.687q.062.5.281.922.234.407.578.719.344.297.781.469.454.156.985.156.375 0 .734-.078.375-.078.703-.219.344-.14.641-.344.297-.218.516-.5l1.265 1.375q-.234.329-.625.657-.375.328-.89.578-.516.25-1.141.406-.625.156-1.36.156zm-.297-8.172q-.422 0-.782.157-.359.14-.625.422-.265.28-.453.671-.187.391-.265.875h4.14v-.203q-.015-.39-.156-.75-.125-.36-.39-.61-.25-.265-.626-.405-.359-.157-.843-.157zm15.57 3.141q0 1.078-.25 2-.25.922-.75 1.594-.484.672-1.203 1.062-.719.375-1.64.375-.797 0-1.407-.265-.593-.282-1.031-.782v4.657h-2.531v-13.658h2.328l.094.97q.453-.548 1.078-.845.625-.296 1.453-.296.937 0 1.656.359.719.36 1.203 1.016.5.656.75 1.578t.25 2.047v.187zm-2.531-.187q0-.61-.125-1.157-.11-.547-.36-.937-.234-.406-.609-.625-.375-.235-.906-.235-.672 0-1.094.266-.422.266-.656.734v4.11q.234.469.656.75.422.281 1.11.281.53 0 .906-.234.39-.25.625-.657.234-.406.344-.953.109-.547.109-1.156zm11.946-5q.578 0 1.062.078.485.062.797.156l-.375 2.531q-.5-.125-1.031-.172-.516-.062-1-.062-1.063 0-1.703.406-.641.406-.97 1.172v5.922h-2.53v-9.86h2.359l.125 1.61q.594-.828 1.438-1.297.843-.484 1.828-.484zm8.898 10.218q-1.14 0-2.078-.375-.922-.375-1.594-1.015-.656-.641-1.015-1.516-.36-.875-.36-1.86v-.374q0-1.125.36-2.047.36-.938.984-1.61.64-.687 1.516-1.046.875-.375 1.906-.375 1.063 0 1.89.343.844.344 1.423.985.578.64.875 1.547.312.89.312 1.968v1.078h-6.687q.062.5.28.922.235.407.579.719.344.297.781.469.453.156.985.156.375 0 .734-.078.375-.078.703-.219.344-.14.64-.344.298-.218.516-.5l1.266 1.375q-.234.329-.625.657-.375.328-.89.578-.516.25-1.141.406-.625.156-1.36.156zm-.297-8.172q-.421 0-.78.157-.36.14-.626.422-.265.28-.453.671-.187.391-.266.875h4.141v-.203q-.016-.39-.156-.75-.125-.36-.39-.61-.25-.265-.626-.405-.36-.157-.844-.157zm11.071 6.141q.375 0 .719-.11.344-.109.594-.296.25-.203.39-.485.14-.296.125-.64h2.39q.016.765-.327 1.422-.328.656-.907 1.14-.562.469-1.328.735-.75.265-1.61.265-1.14 0-2.015-.375-.86-.39-1.437-1.062-.578-.688-.875-1.594-.297-.906-.297-1.937v-.282q0-1.031.297-1.937.297-.906.875-1.578.578-.672 1.437-1.063.86-.39 2-.39.922 0 1.688.28.781.266 1.328.766.562.485.875 1.188.312.703.297 1.578h-2.39q.015-.36-.11-.687-.125-.329-.375-.563-.25-.234-.594-.375-.344-.14-.75-.14-.61 0-1 .25-.39.234-.625.656-.219.406-.328.937-.094.516-.094 1.078v.282q0 .578.094 1.109t.328.937q.234.407.625.657.39.234 1 .234zm12.992 1.844q-.093-.188-.156-.422-.062-.234-.11-.5-.202.234-.484.437-.265.188-.609.344-.328.156-.734.235-.39.093-.86.093-.75 0-1.39-.218-.625-.22-1.078-.61-.454-.39-.72-.937-.25-.547-.25-1.188 0-1.547 1.157-2.39 1.172-.86 3.469-.86h1.422v-.594q0-.703-.47-1.109-.468-.422-1.343-.422-.765 0-1.125.328t-.36.89h-2.53q0-.624.28-1.187.282-.578.813-1 .532-.421 1.297-.671.766-.25 1.766-.25.89 0 1.656.218.781.219 1.344.64.562.423.875 1.079.328.656.328 1.5v4.234q0 .797.094 1.313.093.516.297.89v.157zm-2.406-1.781q.375 0 .703-.079.328-.093.594-.234.266-.156.453-.344.203-.187.313-.375v-1.703h-1.297q-.594 0-1.016.125-.422.11-.687.313-.266.203-.39.5-.126.28-.126.625 0 .5.36.843.359.329 1.093.329zm12.102-10.485v2.406h3.672v1.875h-3.672v4.235q0 .531.11.89.124.36.343.579.235.218.563.312.328.078.718.078.297 0 .594-.015.313-.032.594-.063.281-.047.516-.094.25-.047.421-.093l.235 1.734q-.25.156-.61.281-.359.11-.765.172-.39.078-.828.11-.438.046-.844.046-.813 0-1.484-.203-.657-.219-1.125-.672-.47-.453-.735-1.14-.25-.703-.25-1.672v-4.485h-2.25v-1.875h2.25v-2.406zm11.32 12.453q-1.14 0-2.078-.375-.921-.375-1.593-1.015-.657-.641-1.016-1.516-.36-.875-.36-1.86v-.374q0-1.125.36-2.047.36-.938.984-1.61.641-.687 1.516-1.046.875-.375 1.906-.375 1.063 0 1.891.343.844.344 1.422.985.578.64.875 1.547.312.89.312 1.968v1.078h-6.687q.062.5.281.922.234.407.578.719.344.297.781.469.454.156.985.156.375 0 .734-.078.375-.078.703-.219.344-.14.641-.344.297-.218.516-.5l1.265 1.375q-.234.329-.625.657-.375.328-.89.578-.516.25-1.141.406-.625.156-1.36.156zm-.296-8.172q-.422 0-.782.157-.359.14-.625.422-.265.28-.453.671-.187.391-.265.875h4.14v-.203q-.015-.39-.156-.75-.125-.36-.39-.61-.25-.265-.626-.405-.359-.157-.843-.157zm6.445 2.985q0-1.125.266-2.047.266-.938.766-1.594.5-.672 1.203-1.031.718-.36 1.64-.36.782 0 1.36.282.593.265 1.047.781v-5.031h2.546v14h-2.296l-.125-1.031q-.47.578-1.094.906-.625.312-1.453.312-.907 0-1.625-.375-.703-.39-1.203-1.047-.5-.671-.766-1.578-.266-.922-.266-2zm2.532.187q0 .625.109 1.157.11.53.344.937.234.39.609.625.375.219.906.219.657 0 1.094-.281.438-.282.688-.782v-3.984q-.25-.5-.688-.781-.422-.282-1.078-.282-.531 0-.906.235-.375.234-.625.64-.235.407-.344.954-.11.53-.11 1.156v.187zm11.804-3.625 2.579 3.563v.172l-2.579 3.547h-1.656l2.203-3.641-2.203-3.64h1.656zm3 0 2.579 3.563v.172l-2.579 3.547h-1.656l2.203-3.641-2.203-3.64h1.656z" fill="#fff"/><path d="m160.763 365.285h163.496v59.717h-163.496z" fill="#bdbdbd" fill-rule="evenodd"/><path d="m160.763 365.285h163.496v59.717h-163.496z" stroke="#666" stroke-linecap="butt" stroke-linejoin="round"/><path d="m160.645 425.002h163.495v59.716h-163.495z" fill="#bdbdbd" fill-rule="evenodd"/><path d="m160.645 425.002h163.495v59.716h-163.495z" stroke="#666" stroke-linecap="butt" stroke-linejoin="round"/><path d="m239.77 453.822h1.546q.813 0 1.438-.219t1.047-.61q.437-.39.656-.921.234-.547.234-1.188 0-1.484-.765-2.234-.766-.766-2.235-.766-.687 0-1.265.203-.563.203-.969.594-.39.39-.625.938-.219.53-.219 1.187h-2.172q0-.969.375-1.828.375-.86 1.063-1.5.703-.64 1.672-1 .969-.375 2.14-.375 1.157 0 2.094.312.953.313 1.625.922.688.61 1.063 1.516.375.89.375 2.078 0 .484-.157 1.016-.14.531-.468 1.031-.313.5-.813.937-.484.438-1.187.735.843.265 1.39.703.563.422.89.969.345.531.47 1.14.14.594.14 1.172 0 1.203-.422 2.125-.406.922-1.14 1.563-.719.64-1.703.984-.985.328-2.14.328-1.126 0-2.126-.312-.984-.328-1.719-.938-.718-.61-1.14-1.484-.422-.875-.422-2h2.156q0 .672.234 1.219.235.546.657.937.422.39 1.015.61.61.203 1.344.203.734 0 1.328-.188.61-.203 1.031-.594.422-.406.641-1 .234-.593.234-1.406 0-.797-.265-1.375-.266-.578-.735-.953-.468-.39-1.156-.578-.672-.188-1.469-.188h-1.546z" fill="#000"/><path d="m664.79 325.617h142.583v30.015h-142.583z" fill="#bdbdbd" fill-rule="evenodd"/><path d="m664.79 325.617h142.583v30.015h-142.583z" stroke="#666" stroke-linecap="butt" stroke-linejoin="round"/><path d="m697.252 334.56-.203 3.36h-1.25l.016-3.204v-1.171h1.437zm10.446 9.485.437 1.187 3.016-7.547h1.89l-5.015 11.375q-.172.39-.438.813-.265.437-.656.797-.375.359-.89.609-.5.25-1.172.25-.11 0-.266-.016-.14-.015-.297-.047-.14-.015-.265-.046-.125-.016-.204-.047l.266-1.375q.063 0 .172.015.11.016.219.016.125.016.234.016h.172q.36 0 .64-.188.282-.187.5-.453.235-.266.391-.547.156-.281.25-.469l.672-1.312-4.234-9.39h1.875zm11.945-9.485-.203 3.36h-1.25l.016-3.204v-1.171h1.437zm9.758 11.89q0-.265.079-.5.093-.25.25-.421.171-.188.421-.281.25-.094.579-.094.328 0 .578.094.25.093.406.281.172.172.25.422.094.234.094.5 0 .265-.094.5-.078.234-.25.406-.156.172-.406.266-.25.093-.578.093-.329 0-.579-.093-.25-.094-.421-.266-.157-.172-.25-.406-.079-.235-.079-.5zm0-8q0-.265.079-.5.093-.25.25-.421.171-.188.421-.281.25-.094.579-.094.328 0 .578.094.25.093.406.281.172.172.25.422.094.234.094.5 0 .265-.094.5-.078.234-.25.406-.156.172-.406.266-.25.093-.578.093-.329 0-.579-.093-.25-.094-.421-.266-.157-.172-.25-.406-.079-.235-.079-.5zm26.407 5.735q0-.61-.281-1.015-.281-.422-.719-.704-.437-.296-.969-.484-.515-.187-1-.344-.703-.234-1.421-.547-.72-.328-1.329-.78-.593-.47-.968-1.095-.375-.64-.375-1.5 0-.859.375-1.53.375-.673.984-1.141.61-.47 1.375-.704.781-.25 1.578-.25.86 0 1.656.297.813.282 1.422.813.625.515 1 1.25.375.734.39 1.64h-1.733q-.079-.562-.282-1.03-.203-.47-.562-.813-.344-.344-.828-.516-.47-.187-1.063-.187-.484 0-.953.14-.453.125-.812.406-.36.266-.579.672-.218.391-.218.922.015.578.297.985.28.39.718.671.438.266.938.454.5.171.953.312.484.156.984.36.5.187.969.437t.86.578q.406.313.703.719.312.406.468.89.172.485.172 1.079 0 .89-.406 1.562-.39.672-1.016 1.11-.625.437-1.422.671-.78.22-1.578.22-.89 0-1.734-.267-.844-.28-1.516-.796t-1.093-1.25q-.407-.75-.438-1.704h1.719q.078.625.328 1.11.266.469.656.812.406.328.922.5.531.157 1.156.157.485 0 .969-.125t.844-.375q.375-.266.61-.657.25-.406.25-.953zm5.024-6.5.047.938q.297-.532.781-.813.5-.297 1.188-.297 1.359 0 1.812 1.047.297-.469.766-.75.484-.297 1.156-.297 1.094 0 1.672.672.578.656.578 2v7.36h-1.594v-7.375q0-1.25-1.14-1.235-.297 0-.516.094-.219.078-.375.219-.14.14-.219.328-.078.187-.11.375v7.594h-1.609v-7.391q0-.594-.265-.906-.266-.328-.828-.313-.532 0-.828.219-.282.203-.422.547v7.844h-1.61v-9.86zm10.68 0h5.047v8.406h3.218v1.454h-8.265v-1.454h3.36v-6.937h-3.36zm3.14-2.578q0-.422.25-.703.25-.297.766-.297.5 0 .75.297.25.281.25.703 0 .406-.25.688-.25.265-.75.265-.516 0-.766-.265-.25-.282-.25-.688z" fill="#000"/><path d="m653.562 408.94c0-6.283 5.093-11.376 11.375-11.376h142.068a11.376 11.376 0 0 1 11.376 11.376v45.5c0 6.283-5.093 11.376-11.376 11.376h-142.068c-6.282 0-11.375-5.093-11.375-11.375z" fill="#b45f06" fill-rule="evenodd"/><path d="m653.562 408.94c0-6.283 5.093-11.376 11.375-11.376h142.068a11.376 11.376 0 0 1 11.376 11.376v45.5c0 6.283-5.093 11.376-11.376 11.376h-142.068c-6.282 0-11.375-5.093-11.375-11.375z" stroke="#666" stroke-linecap="butt" stroke-linejoin="round"/><path d="m707.527 425.337q0-.5-.187-.937-.172-.453-.594-.828-.422-.391-1.11-.704-.671-.328-1.687-.593-1.234-.344-2.36-.844-1.124-.516-1.984-1.219-.86-.719-1.375-1.672t-.515-2.187q0-1.203.5-2.172.515-.984 1.406-1.672.906-.687 2.125-1.062 1.219-.375 2.656-.375 1.484 0 2.703.437 1.235.422 2.125 1.203.89.781 1.375 1.844.5 1.062.5 2.344h-3.562q-.032-.641-.235-1.172-.203-.531-.609-.906-.39-.391-.984-.61-.579-.219-1.375-.219-.735 0-1.297.188-.563.172-.953.484-.391.313-.594.75-.203.438-.203.953 0 .532.265.97.266.421.766.765.516.344 1.234.64.72.282 1.641.516 1.297.39 2.39.938 1.094.546 1.876 1.296.796.735 1.234 1.704.437.953.437 2.125 0 1.25-.515 2.218-.5.969-1.39 1.64-.876.673-2.095 1.017-1.218.343-2.671.343-.891 0-1.782-.172-.89-.156-1.718-.484-.813-.344-1.516-.844-.703-.515-1.219-1.187-.5-.688-.797-1.547-.297-.86-.297-1.906h3.594q.031.859.297 1.484.281.61.766 1 .484.39 1.172.578.687.172 1.5.172.734 0 1.296-.172.563-.172.954-.469.39-.296.593-.718.22-.422.22-.938zm9.903-7.187q.703-1.032 1.703-1.61 1.015-.593 2.265-.593 1.11 0 2.032.343.922.328 1.578 1.032.672.687 1.047 1.796.375 1.094.375 2.641v8.531h-3.625v-8.547q0-.765-.188-1.312-.187-.547-.547-.875-.343-.344-.843-.5-.485-.172-1.11-.172-.922 0-1.594.328-.656.328-1.093.906v10.172h-3.625v-20h3.625zm21.184 12.14q-.141-.265-.235-.593-.078-.344-.156-.72-.297.329-.688.61-.39.281-.875.5-.468.219-1.046.344-.563.125-1.22.125-1.077 0-1.984-.313-.906-.312-1.562-.875-.656-.562-1.016-1.328-.359-.781-.359-1.687 0-2.235 1.656-3.453 1.656-1.22 4.953-1.22h2.016v-.827q0-1.016-.672-1.61-.656-.593-1.906-.593-1.11 0-1.625.484-.5.469-.5 1.266h-3.61q0-.907.391-1.703.406-.813 1.156-1.422.766-.61 1.86-.97 1.11-.358 2.531-.358 1.266 0 2.36.312 1.109.313 1.906.922.812.61 1.265 1.547.469.922.469 2.156v6.031q0 1.14.14 1.89.141.735.407 1.267v.218zm-3.454-2.531q.547 0 1.016-.125.469-.14.844-.344.375-.218.64-.484.282-.266.438-.531v-2.422h-1.844q-.844 0-1.453.156-.594.156-.969.453-.375.297-.562.703-.188.407-.188.89 0 .735.516 1.22.516.484 1.562.484zm23.294-4.375q0 1.531-.36 2.844-.36 1.312-1.062 2.281-.688.953-1.719 1.5-1.016.547-2.344.547-1.14 0-2-.39-.86-.391-1.5-1.094v6.64h-3.61v-19.5h3.345l.125 1.375q.656-.781 1.53-1.203.892-.437 2.08-.437 1.343 0 2.358.515 1.032.516 1.735 1.469.703.937 1.062 2.266.36 1.312.36 2.906zm-3.61-.281q0-.875-.172-1.656-.156-.782-.5-1.344-.343-.563-.89-.89-.547-.329-1.313-.329-.953 0-1.562.375-.594.375-.938 1.047v5.89q.344.657.938 1.063.61.39 1.594.39.765 0 1.296-.327.547-.344.891-.922.344-.594.5-1.375.156-.782.156-1.641zm13.794 7.453q-1.625 0-2.954-.531-1.328-.547-2.28-1.453-.954-.922-1.47-2.157-.515-1.25-.515-2.672v-.515q0-1.625.5-2.953.515-1.328 1.422-2.297.922-.969 2.172-1.5t2.718-.531q1.516 0 2.703.5 1.204.5 2.032 1.421.828.907 1.25 2.188.437 1.281.437 2.828v1.531h-9.562q.109.719.422 1.313.328.594.812 1.031.5.422 1.14.656.641.235 1.391.235.532 0 1.063-.094.531-.11 1-.313.484-.203.906-.5.422-.312.734-.703l1.797 1.953q-.328.47-.875.938-.531.469-1.281.828-.734.344-1.64.563-.891.234-1.922.234zm-.438-11.688q-.61 0-1.125.22-.5.218-.89.624-.376.406-.641.969-.25.547-.39 1.234h5.937v-.281q-.016-.578-.22-1.078-.187-.516-.562-.875-.359-.375-.89-.594-.531-.219-1.219-.219zm-95.824 30.945 2.203 3.625h-1.64l-2.563-3.546v-.172l2.562-3.547h1.64zm4 0 2.203 3.625h-1.64l-2.563-3.546v-.172l2.562-3.547h1.64zm4.633-.203q0-1.125.266-2.047.265-.937.765-1.593.5-.672 1.203-1.032.719-.359 1.64-.359.782 0 1.36.281.594.266 1.047.782v-5.032h2.547v14h-2.297l-.125-1.031q-.469.578-1.094.906-.625.313-1.453.313-.906 0-1.625-.375-.703-.39-1.203-1.047-.5-.672-.765-1.578-.266-.922-.266-2zm2.531.188q0 .625.11 1.156.109.531.343.938.235.39.61.625.375.218.906.218.656 0 1.094-.281.437-.281.687-.781v-3.985q-.25-.5-.687-.78-.422-.282-1.078-.282-.532 0-.907.234-.375.235-.625.64-.234.407-.343.954-.11.531-.11 1.156zm13.711 5q-1.14 0-2.078-.375-.922-.375-1.594-1.016-.656-.64-1.015-1.515-.36-.875-.36-1.86v-.375q0-1.125.36-2.047.36-.937.984-1.61.64-.687 1.516-1.046.875-.375 1.906-.375 1.063 0 1.89.344.844.344 1.423.984.578.64.875 1.547.312.89.312 1.969v1.078h-6.687q.062.5.28.922.235.406.579.719.344.296.781.468.453.157.985.157.375 0 .734-.079.375-.078.703-.218.344-.141.64-.344.298-.219.516-.5l1.266 1.375q-.234.328-.625.656-.375.328-.89.578-.516.25-1.141.407-.625.156-1.36.156zm-.297-8.172q-.421 0-.78.156-.36.14-.626.422-.265.281-.453.672-.187.39-.266.875h4.141v-.203q-.016-.39-.156-.75-.125-.36-.39-.61-.25-.265-.626-.406-.36-.156-.844-.156zm15.571 3.14q0 1.079-.25 2-.25.922-.75 1.594-.484.672-1.203 1.063-.719.375-1.64.375-.798 0-1.407-.266-.594-.281-1.031-.781v4.656h-2.531v-13.656h2.328l.093.969q.454-.547 1.079-.844.625-.297 1.453-.297.937 0 1.656.36.719.359 1.203 1.015.5.656.75 1.578t.25 2.047v.188zm-2.531-.187q0-.61-.125-1.156-.11-.547-.36-.938-.234-.406-.609-.625-.375-.234-.906-.234-.672 0-1.094.266-.422.265-.656.734v4.11q.234.468.656.75.422.28 1.11.28.53 0 .906-.234.39-.25.625-.656.234-.406.343-.953.11-.547.11-1.156zm11.945-5q.578 0 1.063.078.484.063.797.156l-.375 2.532q-.5-.125-1.032-.172-.515-.063-1-.063-1.062 0-1.703.407-.64.406-.968 1.171v5.922h-2.532v-9.86h2.36l.125 1.61q.593-.828 1.437-1.297.844-.484 1.828-.484zm8.9 10.219q-1.142 0-2.079-.375-.922-.375-1.594-1.016-.656-.64-1.015-1.515-.36-.875-.36-1.86v-.375q0-1.125.36-2.047.359-.937.984-1.61.64-.687 1.516-1.046.875-.375 1.906-.375 1.062 0 1.89.344.844.344 1.422.984t.875 1.547q.313.89.313 1.969v1.078h-6.688q.063.5.282.922.234.406.578.719.343.296.781.468.453.157.984.157.375 0 .735-.079.375-.078.703-.218.344-.141.64-.344.297-.219.516-.5l1.266 1.375q-.235.328-.625.656-.375.328-.89.578-.517.25-1.142.407-.625.156-1.359.156zm-.298-8.172q-.422 0-.781.156-.36.14-.625.422-.266.281-.453.672-.188.39-.266.875h4.14v-.203q-.015-.39-.155-.75-.125-.36-.391-.61-.25-.265-.625-.406-.36-.156-.844-.156zm11.07 6.14q.376 0 .72-.109.343-.11.593-.297.25-.203.39-.484.142-.297.126-.64h2.39q.016.765-.328 1.421-.328.656-.906 1.14-.562.47-1.328.735-.75.266-1.61.266-1.14 0-2.015-.375-.86-.39-1.437-1.063-.579-.687-.875-1.593-.297-.907-.297-1.938v-.281q0-1.031.297-1.938.296-.906.875-1.578.578-.672 1.437-1.062.86-.391 2-.391.922 0 1.688.281.78.266 1.328.766.562.484.875 1.187.312.704.297 1.579h-2.391q.016-.36-.11-.688-.124-.328-.374-.562-.25-.235-.594-.375-.344-.141-.75-.141-.61 0-1 .25-.39.234-.625.656-.219.406-.328.938-.094.515-.094 1.078v.281q0 .578.094 1.11.093.53.328.937.234.406.625.656.39.235 1 .235zm12.993 1.844q-.094-.187-.156-.422-.063-.234-.11-.5-.203.235-.484.438-.265.187-.61.344-.327.156-.734.234-.39.094-.859.094-.75 0-1.39-.219-.626-.219-1.079-.61-.453-.39-.718-.937-.25-.547-.25-1.187 0-1.547 1.156-2.391 1.172-.86 3.469-.86h1.421v-.593q0-.703-.468-1.11-.47-.421-1.344-.421-.766 0-1.125.328-.36.328-.36.89h-2.53q0-.625.28-1.187.282-.578.813-1 .531-.422 1.297-.672.766-.25 1.766-.25.89 0 1.656.219.781.219 1.344.64.562.422.875 1.079.328.656.328 1.5v4.234q0 .797.093 1.312.094.516.297.891v.156zm-2.406-1.781q.375 0 .703-.078.328-.094.594-.234.265-.157.453-.344.203-.188.312-.375v-1.703h-1.296q-.594 0-1.016.125-.422.109-.688.312-.265.203-.39.5-.125.281-.125.625 0 .5.36.844.359.328 1.093.328zm12.102-10.484v2.406h3.672v1.875h-3.672v4.234q0 .532.11.89.124.36.343.579.234.219.562.313.329.078.72.078.296 0 .593-.016.312-.031.594-.062.28-.047.515-.094.25-.047.422-.094l.235 1.734q-.25.157-.61.282-.36.109-.765.172-.391.078-.829.109-.437.047-.843.047-.813 0-1.485-.203-.656-.22-1.125-.672-.468-.453-.734-1.14-.25-.704-.25-1.673v-4.484h-2.25v-1.875h2.25v-2.406zm11.32 12.453q-1.14 0-2.078-.375-.922-.375-1.594-1.016-.656-.64-1.015-1.515-.36-.875-.36-1.86v-.375q0-1.125.36-2.047.36-.937.984-1.61.64-.687 1.516-1.046.875-.375 1.906-.375 1.063 0 1.89.344.844.344 1.423.984.578.64.875 1.547.312.89.312 1.969v1.078h-6.687q.062.5.28.922.235.406.579.719.344.296.781.468.453.157.985.157.375 0 .734-.079.375-.078.703-.218.344-.141.64-.344.298-.219.516-.5l1.266 1.375q-.234.328-.625.656-.375.328-.89.578-.516.25-1.141.407-.625.156-1.36.156zm-.297-8.172q-.421 0-.78.156-.36.14-.626.422-.265.281-.453.672-.187.39-.266.875h4.141v-.203q-.016-.39-.156-.75-.125-.36-.39-.61-.25-.265-.626-.406-.36-.156-.844-.156zm6.446 2.984q0-1.125.266-2.047.265-.937.765-1.593.5-.672 1.203-1.032.72-.359 1.641-.359.781 0 1.36.281.593.266 1.046.782v-5.032h2.547v14h-2.297l-.125-1.031q-.468.578-1.093.906-.625.313-1.454.313-.906 0-1.625-.375-.703-.39-1.203-1.047-.5-.672-.765-1.578-.266-.922-.266-2zm2.531.188q0 .625.11 1.156.11.531.343.938.235.39.61.625.375.218.906.218.656 0 1.094-.281.437-.281.687-.781v-3.985q-.25-.5-.687-.78-.422-.282-1.078-.282-.532 0-.907.234-.375.235-.625.64-.234.407-.343.954-.11.531-.11 1.156zm11.805-3.625 2.578 3.562v.172l-2.578 3.547h-1.656l2.203-3.64-2.203-3.641zm3 0 2.578 3.562v.172l-2.578 3.547h-1.656l2.203-3.64-2.203-3.641z" fill="#fff"/><path d="m664.68 465.638h142.582v30.015h-142.582z" fill="#bdbdbd" fill-rule="evenodd"/><path d="m664.68 465.638h142.582v30.015h-142.582z" stroke="#666" stroke-linecap="butt" stroke-linejoin="round"/><path d="m697.142 474.581-.203 3.36h-1.25l.015-3.204v-1.171h1.438zm8.852 11.61h6.281v1.375h-8.437v-1.235l5.89-7.234h-5.797v-1.39h8.016v1.202zm13.54-11.61-.204 3.36h-1.25l.016-3.204v-1.171h1.437v1.015zm9.757 11.89q0-.265.078-.5.094-.25.25-.421.172-.188.422-.281.25-.094.578-.094.328 0 .578.094.25.093.407.281.172.172.25.422.093.234.093.5 0 .265-.093.5-.078.234-.25.406-.157.172-.407.266-.25.093-.578.093-.328 0-.578-.093-.25-.094-.422-.266-.156-.172-.25-.406-.078-.235-.078-.5zm0-8q0-.265.078-.5.094-.25.25-.421.172-.188.422-.281.25-.094.578-.094.328 0 .578.094.25.093.407.281.172.172.25.422.093.234.093.5 0 .265-.093.5-.078.234-.25.406-.157.172-.407.266-.25.093-.578.093-.328 0-.578-.093-.25-.094-.422-.266-.156-.172-.25-.406-.078-.235-.078-.5zm26.407 5.735q0-.61-.281-1.015-.282-.422-.72-.704-.437-.296-.968-.484-.515-.187-1-.344-.703-.234-1.422-.547-.718-.328-1.328-.78-.594-.47-.969-1.095-.375-.64-.375-1.5 0-.859.375-1.53.375-.673.985-1.141.61-.47 1.375-.704.781-.25 1.578-.25.86 0 1.656.297.813.282 1.422.813.625.515 1 1.25.375.734.39 1.64h-1.734q-.078-.562-.28-1.03-.204-.47-.563-.813-.344-.344-.829-.516-.468-.187-1.062-.187-.484 0-.953.14-.453.125-.813.406-.36.266-.578.672-.219.391-.219.922.016.578.297.985.282.39.72.671.437.266.937.454.5.171.953.312.484.156.984.36.5.187.969.437t.86.578q.405.313.702.719.313.406.47.89.17.485.17 1.079 0 .89-.405 1.562-.39.672-1.016 1.11-.625.437-1.422.671-.781.22-1.578.22-.89 0-1.734-.267-.844-.28-1.516-.796t-1.094-1.25q-.406-.75-.437-1.704h1.719q.078.625.328 1.11.265.469.656.812.406.328.922.5.531.157 1.156.157.484 0 .969-.125.484-.125.844-.375.375-.266.609-.657.25-.406.25-.953zm5.024-6.5.046.938q.297-.532.782-.813.5-.297 1.187-.297 1.36 0 1.813 1.047.297-.469.765-.75.485-.297 1.157-.297 1.093 0 1.671.672.579.656.579 2v7.36h-1.594v-7.375q0-1.25-1.14-1.235-.298 0-.516.094-.22.078-.375.219-.141.14-.22.328-.077.187-.109.375v7.594h-1.609v-7.391q0-.594-.266-.906-.265-.328-.828-.313-.53 0-.828.219-.281.203-.422.547v7.844h-1.609v-9.86zm10.68 0h5.046v8.406h3.22v1.454h-8.266v-1.454h3.359v-6.937h-3.36v-1.469zm3.14-2.578q0-.422.25-.703.25-.297.766-.297.5 0 .75.297.25.281.25.703 0 .406-.25.688-.25.265-.75.265-.516 0-.766-.265-.25-.282-.25-.688z" fill="#000"/><path d="m735.971 215.611.126 41.764" fill="none"/><path d="m736.007 227.611.09 29.764" stroke="#666" stroke-linecap="butt" stroke-linejoin="round" stroke-width="2"/><path d="m739.31 227.601-3.33-9.066-3.276 9.086z" fill="#666" fill-rule="evenodd" stroke="#666" stroke-linecap="butt" stroke-width="2"/><path d="m736.081 355.632-.094 41.922" fill="none"/><path d="m736.054 367.632-.04 17.922" stroke="#666" stroke-linecap="butt" stroke-linejoin="round" stroke-width="2"/><path d="m739.358 367.64-3.283-9.084-3.324 9.069zm-6.648 17.906 3.283 9.084 3.324-9.069z" fill="#666" fill-rule="evenodd" stroke="#666" stroke-linecap="butt" stroke-width="2"/><path d="m469.444 268.824c0-6.282 5.093-11.375 11.375-11.375h142.068a11.376 11.376 0 0 1 11.375 11.375v45.501c0 6.283-5.093 11.376-11.375 11.376h-142.068c-6.282 0-11.375-5.093-11.375-11.376z" fill="#ff9800" fill-rule="evenodd"/><path d="m469.444 268.824c0-6.282 5.093-11.375 11.375-11.375h142.068a11.376 11.376 0 0 1 11.375 11.375v45.501c0 6.283-5.093 11.376-11.375 11.376h-142.068c-6.282 0-11.375-5.093-11.375-11.376z" stroke="#666" stroke-linecap="butt" stroke-linejoin="round"/><path d="m523.409 285.222q0-.5-.188-.938-.171-.453-.593-.828-.422-.39-1.11-.703-.672-.328-1.687-.594-1.235-.344-2.36-.844-1.125-.515-1.984-1.218-.86-.72-1.375-1.672-.515-.953-.515-2.188 0-1.203.5-2.172.515-.984 1.406-1.671.906-.688 2.125-1.063 1.218-.375 2.656-.375 1.484 0 2.703.438 1.235.421 2.125 1.203.89.78 1.375 1.843.5 1.063.5 2.344h-3.562q-.032-.64-.235-1.172-.203-.53-.61-.906-.39-.39-.984-.61-.578-.218-1.375-.218-.734 0-1.296.187-.563.172-.953.485-.391.312-.594.75-.203.437-.203.953 0 .531.265.969.266.422.766.765.515.344 1.234.64.719.282 1.64.517 1.298.39 2.391.937 1.094.547 1.875 1.297.797.734 1.235 1.703.437.953.437 2.125 0 1.25-.515 2.219-.5.969-1.39 1.64-.876.672-2.095 1.016-1.218.344-2.672.344-.89 0-1.78-.172-.891-.156-1.72-.484-.812-.344-1.515-.844-.703-.516-1.219-1.188-.5-.687-.797-1.547-.297-.859-.297-1.906h3.594q.031.86.297 1.485.281.609.766 1 .484.39 1.172.578.687.172 1.5.172.734 0 1.296-.172.563-.172.953-.47.391-.296.594-.718.219-.422.219-.937zm9.903-7.188q.703-1.031 1.703-1.61 1.015-.593 2.265-.593 1.11 0 2.032.344.921.328 1.578 1.031.672.688 1.047 1.797.375 1.094.375 2.64v8.532h-3.625v-8.547q0-.766-.188-1.313-.187-.546-.547-.875-.344-.343-.844-.5-.484-.171-1.109-.171-.922 0-1.594.328-.656.328-1.093.906v10.172h-3.625v-20h3.625v7.86zm21.183 12.14q-.14-.265-.234-.593-.078-.344-.156-.719-.297.328-.688.61-.39.28-.875.5-.468.218-1.047.343-.562.125-1.218.125-1.078 0-1.985-.312-.906-.313-1.562-.875-.656-.563-1.016-1.328-.36-.781-.36-1.688 0-2.234 1.657-3.453 1.656-1.219 4.953-1.219h2.016v-.828q0-1.015-.672-1.61-.656-.593-1.906-.593-1.11 0-1.625.485-.5.468-.5 1.265h-3.61q0-.906.391-1.703.406-.812 1.156-1.422.766-.61 1.86-.969 1.109-.359 2.53-.359 1.266 0 2.36.313 1.11.312 1.906.921.813.61 1.266 1.547.469.922.469 2.157v6.03q0 1.141.14 1.891.141.735.407 1.266v.219h-3.657zm-3.453-2.53q.547 0 1.016-.125.469-.141.844-.344.375-.219.64-.485.282-.265.438-.53v-2.423h-1.844q-.844 0-1.453.157-.594.156-.969.453-.375.297-.562.703-.188.406-.188.89 0 .735.516 1.22.515.484 1.562.484zm23.294-4.375q0 1.53-.36 2.843t-1.062 2.282q-.688.953-1.719 1.5-1.016.546-2.344.546-1.14 0-2-.39-.86-.39-1.5-1.094v6.64h-3.61v-19.5h3.345l.125 1.376q.656-.782 1.53-1.203.891-.438 2.079-.438 1.344 0 2.36.516 1.03.515 1.734 1.468.703.938 1.062 2.266.36 1.313.36 2.906zm-3.61-.282q0-.875-.172-1.656-.156-.781-.5-1.344-.343-.562-.89-.89-.547-.328-1.313-.328-.953 0-1.562.375-.594.375-.938 1.046v5.891q.344.656.938 1.063.61.39 1.593.39.766 0 1.297-.328.547-.344.891-.922.344-.594.5-1.375.156-.781.156-1.64zm13.793 7.453q-1.625 0-2.953-.53-1.328-.548-2.281-1.454-.953-.922-1.469-2.156-.515-1.25-.515-2.672v-.516q0-1.625.5-2.953.515-1.328 1.422-2.297.921-.968 2.171-1.5 1.25-.53 2.72-.53 1.515 0 2.702.5 1.203.5 2.032 1.42.828.907 1.25 2.188.437 1.282.437 2.829v1.53h-9.562q.109.72.421 1.313.329.594.813 1.032.5.421 1.14.656.641.234 1.391.234.531 0 1.063-.094.53-.109 1-.312.484-.203.906-.5.422-.313.734-.703l1.797 1.953q-.328.469-.875.937-.531.47-1.281.829-.734.343-1.64.562-.891.234-1.923.234zm-.437-11.687q-.61 0-1.125.219-.5.218-.89.625-.376.406-.641.968-.25.547-.391 1.235h5.938v-.281q-.016-.579-.22-1.079-.187-.515-.562-.875-.36-.375-.89-.593-.532-.22-1.22-.22zm-57.077 30.351q0-1.281.187-2.422.203-1.14.531-2.093.344-.97.797-1.75.453-.797.953-1.407.5-.61 1.032-1.03.53-.423 1.03-.657l.5 1.39q-.515.391-1.03 1.047-.5.657-.907 1.64-.406.985-.671 2.282-.25 1.297-.25 2.985v.234q0 1.687.25 2.984.265 1.297.671 2.282.407.984.907 1.64.515.672 1.03 1.063l-.5 1.36q-.5-.22-1.03-.657-.532-.422-1.032-1.031-.5-.594-.953-1.391-.453-.797-.797-1.75-.328-.969-.53-2.094-.188-1.14-.188-2.422zm13.852-1.39 2.171-3.079h2.72l-3.313 4.844 3.422 5.016h-2.72l-2.28-3.219-2.25 3.219h-2.735l3.422-5.016-3.297-4.844h2.719l2.14 3.079zm11.867 6.578q0 .515-.14 1.062-.141.547-.391 1.063-.25.515-.594.968-.328.454-.719.813l-1.344-.703q.172-.328.313-.672.156-.328.266-.703.109-.375.171-.797.063-.406.063-.906v-2.14h2.39zm10.211-3.938.297 1.063 2.625-6.782h2.797l-5.016 11.329q-.156.375-.422.812-.25.438-.64.813-.39.375-.953.625-.563.265-1.328.265-.188 0-.344-.015-.156-.016-.297-.047-.14-.016-.281-.047-.14-.031-.313-.078l.313-1.922h.39q.25.015.39.015.298 0 .532-.187.235-.172.39-.39.173-.22.266-.407.11-.172.141-.172l.61-1.156-4.172-9.438h2.78l2.235 5.72zm13.743-1.047q0 1.25-.204 2.36-.203 1.11-.546 2.078-.344.969-.813 1.765-.453.797-.984 1.422-.516.625-1.063 1.063-.547.437-1.062.656l-.485-1.36q.5-.39 1.016-1.062.516-.656.922-1.625t.656-2.281q.266-1.313.266-3v-.234q0-1.688-.266-2.985-.266-1.312-.687-2.297-.407-.984-.907-1.656-.5-.672-1-1.047l.485-1.36q.515.235 1.062.673.547.437 1.063 1.062.531.625.984 1.422.469.797.813 1.766.343.953.546 2.078.204 1.11.204 2.36z" fill="#fff"/><path d="m480.562 325.7h142.582v30.016h-142.582z" fill="#bdbdbd" fill-rule="evenodd"/><path d="m480.562 325.7h142.582v30.016h-142.582z" stroke="#666" stroke-linecap="butt" stroke-linejoin="round"/><path d="m496.23 334.644-.203 3.36h-1.25l.016-3.204v-1.171h1.438v1.015zm10.446 9.485.438 1.187 3.015-7.547h1.89l-5.015 11.375q-.172.39-.437.813-.266.437-.657.797-.375.359-.89.609-.5.25-1.172.25-.11 0-.266-.016-.14-.015-.297-.047-.14-.015-.265-.046-.125-.016-.203-.047l.265-1.375q.063 0 .172.015.11.016.219.016.125.016.234.016h.172q.36 0 .64-.188.282-.187.5-.453.235-.266.391-.547.157-.281.25-.469l.672-1.312-4.234-9.39h1.875zm11.946-9.485-.203 3.36h-1.25l.015-3.204v-1.171h1.438zm9.758 11.89q0-.265.078-.5.094-.25.25-.421.172-.188.422-.281.25-.094.578-.094.328 0 .578.094.25.093.406.281.172.172.25.422.094.234.094.5 0 .265-.094.5-.078.234-.25.406-.156.172-.406.266-.25.093-.578.093-.328 0-.578-.093-.25-.094-.422-.266-.156-.172-.25-.406-.078-.235-.078-.5zm0-8q0-.265.078-.5.094-.25.25-.421.172-.188.422-.281.25-.094.578-.094.328 0 .578.094.25.093.406.281.172.172.25.422.094.234.094.5 0 .265-.094.5-.078.234-.25.406-.156.172-.406.266-.25.093-.578.093-.328 0-.578-.093-.25-.094-.422-.266-.156-.172-.25-.406-.078-.235-.078-.5zm19.282 9.095v-13.266h3.078q1.375.016 2.468.469 1.094.453 1.844 1.265.75.797 1.14 1.922.407 1.125.407 2.5v.969q0 1.375-.406 2.5-.39 1.125-1.14 1.937-.75.797-1.845 1.25-1.093.438-2.468.454zm1.718-11.875v10.5h1.36q1.078-.016 1.859-.375.781-.375 1.297-1 .516-.641.766-1.5.25-.875.25-1.891v-.984q0-1.016-.266-1.875-.25-.86-.766-1.485-.5-.64-1.281-1-.781-.375-1.86-.39zm9.18 6.859q0-1.063.313-1.984.312-.922.89-1.594.578-.672 1.407-1.047.828-.39 1.859-.39 1.047 0 1.875.39.844.375 1.422 1.047.578.672.89 1.594.313.921.313 1.984v.203q0 1.063-.313 1.969-.312.906-.89 1.594-.578.671-1.406 1.062-.829.375-1.86.375-1.047 0-1.89-.375-.829-.39-1.407-1.062-.578-.688-.89-1.594-.313-.906-.313-1.969zm1.688.203q0 .719.172 1.39.171.657.515 1.157.36.5.89.797.532.281 1.235.281.688 0 1.203-.281.532-.297.875-.797.36-.5.532-1.156.171-.672.171-1.39v-.204q0-.719-.187-1.375-.172-.672-.531-1.172-.344-.5-.875-.797-.516-.297-1.22-.297-.702 0-1.218.297-.515.297-.875.797-.344.5-.515 1.172-.172.656-.172 1.375zm16.383 3.453q-.5.735-1.235 1.14-.734.407-1.703.407-.781 0-1.406-.234-.625-.25-1.078-.766-.438-.516-.688-1.297-.234-.781-.234-1.89v-5.86h1.687v5.875q0 .813.125 1.344.125.516.375.828.266.313.625.453.375.125.86.125 1.031 0 1.656-.422.64-.422.953-1.125v-7.078h1.688v9.86h-1.532zm13.148-3.453q0 1.047-.265 1.969-.25.906-.75 1.594-.485.671-1.203 1.062-.719.375-1.657.375-.953 0-1.656-.328-.687-.344-1.187-.984l-.078 1.125h-1.547v-14h1.687v5.203q.485-.61 1.156-.922.688-.313 1.61-.313.937 0 1.656.375.734.36 1.219 1.032.5.656.75 1.593.265.922.265 2.016zm-1.687-.203q0-.719-.14-1.36-.141-.656-.454-1.156-.312-.5-.812-.78-.5-.298-1.219-.298-.438 0-.813.125-.359.11-.656.313-.281.203-.5.484-.219.266-.375.594v4.312q.156.328.375.61.235.281.516.5.297.203.656.312.375.11.813.11.687 0 1.187-.282.5-.297.813-.78.312-.5.453-1.142.156-.64.156-1.359zm4.79-8.984h5.046v12.546h3.219v1.454h-8.266v-1.454h3.36v-11.078h-3.36v-1.468zm15.289 14.187q-1.032 0-1.907-.36-.875-.359-1.5-.984-.609-.64-.953-1.515-.344-.875-.344-1.907v-.39q0-1.188.375-2.125.391-.953 1.016-1.594.64-.656 1.438-1 .812-.344 1.656-.344 1.062 0 1.86.375.796.36 1.327 1.016.532.64.782 1.531.265.875.265 1.906v.75h-7.031q.016.688.25 1.282.234.578.64 1.031.407.437.97.703.562.25 1.25.25.906 0 1.593-.36.703-.374 1.172-.968l1.031.797q-.25.375-.625.719-.36.328-.844.593-.484.266-1.093.422-.61.172-1.328.172zm-.22-8.844q-.515 0-.968.188-.453.187-.812.547-.36.36-.625.89-.25.516-.344 1.203h5.297v-.125q-.016-.5-.188-.984-.156-.484-.469-.86-.296-.39-.765-.624-.469-.235-1.125-.235z" fill="#000"/><path d="m469.333 409.024c0-6.283 5.093-11.376 11.376-11.376h142.068a11.376 11.376 0 0 1 11.375 11.376v45.5c0 6.283-5.093 11.376-11.375 11.376h-142.068c-6.283 0-11.376-5.093-11.376-11.375z" fill="#ff9800" fill-rule="evenodd"/><path d="m469.333 409.024c0-6.283 5.093-11.376 11.376-11.376h142.068a11.376 11.376 0 0 1 11.375 11.376v45.5c0 6.283-5.093 11.376-11.375 11.376h-142.068c-6.283 0-11.376-5.093-11.376-11.375z" stroke="#666" stroke-linecap="butt" stroke-linejoin="round"/><path d="m523.299 425.421q0-.5-.188-.937-.172-.453-.593-.828-.422-.391-1.11-.704-.672-.328-1.687-.593-1.235-.344-2.36-.844-1.125-.516-1.984-1.219-.86-.719-1.375-1.672-.516-.953-.516-2.187 0-1.203.5-2.172.516-.984 1.407-1.672.906-.687 2.125-1.062 1.218-.375 2.656-.375 1.484 0 2.703.437 1.234.422 2.125 1.203.89.781 1.375 1.844.5 1.062.5 2.344h-3.563q-.03-.641-.234-1.172-.203-.531-.61-.906-.39-.391-.984-.61-.578-.219-1.375-.219-.734 0-1.297.188-.562.172-.953.484-.39.313-.593.75-.204.438-.204.953 0 .532.266.97.266.421.766.765.515.344 1.234.64.719.282 1.64.516 1.298.39 2.391.938 1.094.546 1.875 1.296.797.735 1.235 1.704.437.953.437 2.125 0 1.25-.515 2.218-.5.969-1.391 1.64-.875.673-2.094 1.017-1.219.343-2.672.343-.89 0-1.781-.172-.89-.156-1.719-.484-.812-.344-1.515-.844-.703-.515-1.22-1.187-.5-.688-.796-1.547-.297-.86-.297-1.906h3.594q.031.859.297 1.484.281.61.765 1 .485.39 1.172.578.688.172 1.5.172.735 0 1.297-.172.563-.172.953-.469.39-.296.594-.718.219-.422.219-.938zm9.902-7.187q.703-1.032 1.703-1.61 1.016-.593 2.266-.593 1.11 0 2.031.343.922.328 1.578 1.032.672.687 1.047 1.796.375 1.094.375 2.641v8.531h-3.625v-8.547q0-.765-.187-1.312-.188-.547-.547-.875-.344-.344-.844-.5-.484-.172-1.11-.172-.921 0-1.593.328-.656.328-1.094.906v10.172h-3.625v-20h3.625zm21.184 12.14q-.14-.265-.234-.593-.078-.344-.156-.72-.297.329-.688.61-.39.281-.875.5-.469.219-1.047.344-.562.125-1.218.125-1.079 0-1.985-.313-.906-.312-1.562-.875-.657-.562-1.016-1.328-.36-.781-.36-1.687 0-2.235 1.657-3.453 1.656-1.22 4.953-1.22h2.016v-.827q0-1.016-.672-1.61-.656-.593-1.906-.593-1.11 0-1.625.484-.5.469-.5 1.266h-3.61q0-.907.39-1.703.407-.813 1.157-1.422.766-.61 1.86-.97 1.109-.358 2.53-.358 1.266 0 2.36.312 1.11.313 1.906.922.813.61 1.266 1.547.469.922.469 2.156v6.031q0 1.14.14 1.89.14.735.407 1.267v.218zm-3.453-2.531q.547 0 1.016-.125.469-.14.844-.344.375-.218.64-.484.281-.266.438-.531v-2.422h-1.844q-.844 0-1.453.156-.594.156-.969.453-.375.297-.562.703-.188.407-.188.89 0 .735.516 1.22.515.484 1.562.484zm23.293-4.375q0 1.531-.359 2.844-.36 1.312-1.063 2.281-.687.953-1.718 1.5-1.016.547-2.344.547-1.14 0-2-.39-.86-.391-1.5-1.094v6.64h-3.61v-19.5h3.344l.125 1.375q.657-.781 1.532-1.203.89-.437 2.078-.437 1.343 0 2.36.515 1.03.516 1.733 1.469.704.937 1.063 2.266.36 1.312.36 2.906v.281zm-3.609-.281q0-.875-.172-1.656-.156-.782-.5-1.344-.344-.563-.89-.89-.547-.329-1.313-.329-.953 0-1.563.375-.593.375-.937 1.047v5.89q.344.657.937 1.063.61.39 1.594.39.766 0 1.297-.327.547-.344.89-.922.344-.594.5-1.375.157-.782.157-1.641zm13.793 7.453q-1.625 0-2.953-.531-1.328-.547-2.281-1.453-.953-.922-1.469-2.157-.516-1.25-.516-2.672v-.515q0-1.625.5-2.953.516-1.328 1.422-2.297.922-.969 2.172-1.5t2.719-.531q1.516 0 2.703.5 1.203.5 2.031 1.421.828.907 1.25 2.188.438 1.281.438 2.828v1.531h-9.563q.11.719.422 1.313.328.594.813 1.031.5.422 1.14.656.64.235 1.39.235.532 0 1.063-.094.532-.11 1-.313.485-.203.907-.5.422-.312.734-.703l1.797 1.953q-.328.47-.875.938-.531.469-1.281.828-.735.344-1.64.563-.892.234-1.923.234zm-.437-11.688q-.61 0-1.125.22-.5.218-.89.624-.376.406-.642.969-.25.547-.39 1.234h5.937v-.281q-.015-.578-.218-1.078-.188-.516-.563-.875-.36-.375-.89-.594-.532-.219-1.22-.219zm-68.273 30.352q0-1.282.187-2.422.204-1.14.532-2.094.343-.969.797-1.75.453-.797.953-1.406.5-.61 1.03-1.031.532-.422 1.032-.657l.5 1.39q-.515.392-1.031 1.048-.5.656-.906 1.64-.407.985-.672 2.282-.25 1.297-.25 2.984v.234q0 1.688.25 2.985.265 1.297.672 2.281.406.984.906 1.64.516.673 1.031 1.063l-.5 1.36q-.5-.22-1.031-.657-.531-.422-1.031-1.031-.5-.594-.953-1.39-.454-.797-.797-1.75-.328-.97-.532-2.094-.187-1.141-.187-2.422zm13.852-1.391 2.172-3.078h2.718l-3.312 4.844 3.422 5.015h-2.719l-2.281-3.218-2.25 3.218h-2.735l3.422-5.015-3.297-4.844h2.72zm11.867 6.578q0 .516-.14 1.063-.141.547-.391 1.062-.25.516-.594.969-.328.453-.719.812l-1.343-.703q.172-.328.312-.672.156-.328.266-.703.11-.375.172-.797.062-.406.062-.906v-2.14h2.39zm10.211-3.937.297 1.062 2.625-6.781h2.797l-5.015 11.328q-.157.375-.422.813-.25.437-.641.812-.39.375-.953.625-.563.266-1.328.266-.188 0-.344-.016-.156-.016-.297-.047-.14-.015-.281-.047-.14-.031-.313-.078l.313-1.922h.39q.25.016.391.016.297 0 .531-.188.235-.171.391-.39.172-.219.266-.406.109-.172.14-.172l.61-1.157-4.172-9.437h2.781zm12.18 3.937q0 .516-.14 1.063-.14.547-.39 1.062-.25.516-.595.969-.328.453-.718.812l-1.344-.703q.172-.328.312-.672.157-.328.266-.703.11-.375.172-.797.062-.406.062-.906v-2.14h2.39zm9.258-1.828h5.813v2.031h-9.266v-1.562l5.516-6.235h-5.39v-2.062h8.905v1.531zm14.696-3.156q0 1.25-.203 2.36-.203 1.109-.547 2.077-.344.969-.813 1.766-.453.797-.984 1.422-.516.625-1.062 1.062-.547.438-1.063.657l-.484-1.36q.5-.39 1.015-1.062.516-.657.922-1.625.406-.97.656-2.282.266-1.312.266-3v-.234q0-1.687-.266-2.984-.265-1.313-.687-2.297-.406-.985-.906-1.656-.5-.672-1-1.047l.484-1.36q.516.235 1.063.672.546.438 1.062 1.063.531.625.984 1.422.47.796.813 1.765.344.953.547 2.078.203 1.11.203 2.36z" fill="#fff"/><path d="m480.451 465.722h142.583v30.015h-142.583z" fill="#bdbdbd" fill-rule="evenodd"/><path d="m480.451 465.722h142.583v30.015h-142.583z" stroke="#666" stroke-linecap="butt" stroke-linejoin="round"/><path d="m512.914 474.665-.203 3.36h-1.25l.015-3.204v-1.171h1.438zm8.851 11.61h6.282v1.375h-8.438v-1.235l5.89-7.234h-5.796v-1.39h8.016v1.202zm13.54-11.61-.203 3.36h-1.25l.015-3.204v-1.171h1.438zm9.758 11.89q0-.265.078-.5.094-.25.25-.421.172-.188.422-.281.25-.094.578-.094.328 0 .578.094.25.093.406.281.172.172.25.422.094.234.094.5 0 .265-.094.5-.078.234-.25.406-.156.172-.406.266-.25.093-.578.093-.328 0-.578-.093-.25-.094-.422-.266-.156-.172-.25-.406-.078-.235-.078-.5zm0-8q0-.265.078-.5.094-.25.25-.421.172-.188.422-.281.25-.094.578-.094.328 0 .578.094.25.093.406.281.172.172.25.422.094.234.094.5 0 .265-.094.5-.078.234-.25.406-.156.172-.406.266-.25.093-.578.093-.328 0-.578-.093-.25-.094-.422-.266-.156-.172-.25-.406-.078-.235-.078-.5zm26.407 5.735q0-.61-.282-1.015-.28-.422-.718-.704-.438-.296-.97-.484-.515-.187-1-.344-.702-.234-1.421-.547-.719-.328-1.328-.78-.594-.47-.969-1.095-.375-.64-.375-1.5 0-.859.375-1.53.375-.673.984-1.141.61-.47 1.375-.704.782-.25 1.579-.25.859 0 1.656.297.812.282 1.422.813.625.515 1 1.25.375.734.39 1.64h-1.734q-.078-.562-.281-1.03-.203-.47-.563-.813-.344-.344-.828-.516-.469-.187-1.062-.187-.485 0-.954.14-.453.125-.812.406-.36.266-.578.672-.219.391-.219.922.016.578.297.985.281.39.719.671.437.266.937.454.5.171.953.312.485.156.985.36.5.187.968.437.47.25.86.578.406.313.703.719.312.406.469.89.172.485.172 1.079 0 .89-.407 1.562-.39.672-1.015 1.11-.625.437-1.422.671-.781.22-1.578.22-.89 0-1.735-.267-.843-.28-1.515-.796-.672-.516-1.094-1.25-.406-.75-.438-1.704h1.72q.077.625.327 1.11.266.469.657.812.406.328.921.5.532.157 1.157.157.484 0 .968-.125.485-.125.844-.375.375-.266.61-.657.25-.406.25-.953zm5.023-6.5.047.938q.297-.532.781-.813.5-.297 1.188-.297 1.36 0 1.812 1.047.297-.469.766-.75.484-.297 1.156-.297 1.094 0 1.672.672.578.656.578 2v7.36h-1.593v-7.375q0-1.25-1.141-1.235-.297 0-.516.094-.218.078-.375.219-.14.14-.218.328-.079.187-.11.375v7.594h-1.61v-7.391q0-.594-.265-.906-.265-.328-.828-.313-.531 0-.828.219-.281.203-.422.547v7.844h-1.61v-9.86zm10.68 0h5.047v8.406h3.219v1.454h-8.266v-1.454h3.36v-6.937h-3.36zm3.14-2.578q0-.422.25-.703.25-.297.766-.297.5 0 .75.297.25.281.25.703 0 .406-.25.688-.25.265-.75.265-.515 0-.765-.265-.25-.282-.25-.688z" fill="#000"/><path d="m551.759 351.133h57.007v51.086h-57.006z" fill="none"/><path d="m569.422 370.612-.203 3.359h-1.25l.016-3.203v-1.172h1.437zm8.852 11.609h6.281v1.375h-8.437v-1.234l5.89-7.235h-5.796v-1.39h8.015v1.203l-5.953 7.28zm13.54-11.61-.204 3.36h-1.25l.016-3.203v-1.172h1.437v1.016z" fill="#000"/><path d="m551.853 355.716-.094 41.922" fill="none"/><path d="m551.826 367.716-.04 17.922" stroke="#666" stroke-linecap="butt" stroke-linejoin="round" stroke-width="2"/><path d="m555.13 367.724-3.284-9.084-3.323 9.069zm-6.648 17.906 3.283 9.084 3.324-9.069z" fill="#666" fill-rule="evenodd" stroke="#666" stroke-linecap="butt" stroke-width="2"/><path d="m584.584 195.726h57.008v51.086h-57.008z" fill="none"/><path d="m602.248 215.205-.203 3.36h-1.25l.015-3.204v-1.172h1.438zm10.445 9.484.438 1.188 3.015-7.547h1.891l-5.016 11.375q-.171.39-.437.812-.266.438-.656.797-.375.36-.891.61-.5.25-1.172.25-.11 0-.265-.016-.141-.016-.297-.047-.141-.016-.266-.047-.125-.016-.203-.047l.266-1.375q.062 0 .171.016.11.015.22.015.124.016.234.016h.171q.36 0 .641-.187.281-.188.5-.454.234-.265.39-.546.157-.282.25-.47l.673-1.312-4.235-9.39h1.875l2.703 6.36zm11.946-9.484-.203 3.36h-1.25l.015-3.204v-1.172h1.438z" fill="#000"/><path d="m9.546 378.924c0-4.317 3.5-7.816 7.816-7.816h115.518a7.816 7.816 0 0 1 7.817 7.816v31.265c0 4.317-3.5 7.816-7.817 7.816h-115.518a7.816 7.816 0 0 1 -7.816-7.816z" fill="#674ea7" fill-rule="evenodd"/><path d="m9.546 378.924c0-4.317 3.5-7.816 7.816-7.816h115.518a7.816 7.816 0 0 1 7.817 7.816v31.265c0 4.317-3.5 7.816-7.817 7.816h-115.518a7.816 7.816 0 0 1 -7.816-7.816z" stroke="#351c75" stroke-linecap="butt" stroke-linejoin="round"/><path d="m45.234 379.541 1.078 4.266 1.235-4.266h2.718v11.375h-2.015v-3.375l.093-5.312-1.484 4.937h-1.094l-1.328-4.734.094 5.11v3.374h-2.016v-11.375zm12.383 10.188q-.438.625-1.047 1-.594.36-1.313.36-.656 0-1.203-.204-.547-.219-.937-.656-.39-.438-.61-1.125-.218-.688-.218-1.64v-5h2.172v5.015q0 .516.078.875.078.344.234.562.172.204.438.297.265.094.64.094.656 0 1.063-.234.406-.25.61-.688v-5.922h2.187v8.453h-1.97zm8.195-9.344v2.078h3.156v1.594h-3.156v3.64q0 .454.094.766.11.313.297.5.203.172.484.25.281.078.625.078.25 0 .5-.015.266-.031.5-.063.25-.03.453-.062.203-.047.36-.094l.203 1.5q-.219.125-.531.234-.297.094-.641.157-.344.062-.719.093-.375.047-.734.047-.688 0-1.266-.187-.562-.188-.969-.578-.39-.39-.609-.985-.219-.593-.219-1.437v-3.844h-1.937v-1.594h1.937v-2.078zm10.899 10.531q-.079-.156-.141-.359-.047-.203-.094-.437-.172.203-.406.375-.234.171-.531.312-.282.125-.625.188-.344.078-.735.078-.656 0-1.203-.188-.531-.187-.922-.515-.39-.344-.609-.813-.219-.469-.219-1.016 0-1.328.985-2.062 1-.734 2.984-.734h1.203v-.5q0-.61-.406-.954-.39-.359-1.14-.359-.657 0-.97.281-.296.282-.296.766h-2.172q0-.547.234-1.031.234-.485.688-.844.468-.375 1.125-.578.656-.219 1.515-.219.766 0 1.422.188.656.187 1.14.562.485.36.75.922.282.547.282 1.281v3.625q0 .688.078 1.14.094.438.266.75v.141h-2.204zm-2.079-1.53q.329 0 .61-.079.281-.078.5-.203.234-.125.39-.281.172-.157.266-.328v-1.454h-1.11q-.5 0-.859.11-.359.094-.593.265-.22.172-.329.422-.109.25-.109.532 0 .437.297.734.312.281.937.281zm14.008-2.61q0 .937-.203 1.734-.203.781-.625 1.36-.406.562-1.031.89-.61.313-1.438.313-.734 0-1.28-.282-.548-.28-.938-.78l-.094.905h-1.953v-12h2.172v4.313q.375-.438.875-.672.515-.25 1.203-.25.828 0 1.453.328.625.313 1.031.89.422.563.625 1.36.203.781.203 1.719zm-2.172-.172q0-.516-.078-.969-.078-.469-.265-.812-.188-.344-.516-.547-.328-.203-.828-.203-.594 0-.969.25-.36.25-.562.687v3.36q.203.437.562.687.375.25.985.25.5 0 .812-.187.328-.188.516-.532.187-.343.265-.797.078-.468.078-1.015zm4.618-7.688h4.718v10.235h2.422v1.765h-7.14v-1.765h2.53v-8.469h-2.53zm13.242 12.157q-.969 0-1.766-.313-.797-.328-1.375-.875-.562-.562-.875-1.297-.312-.75-.312-1.61v-.312q0-.968.297-1.765.312-.797.859-1.375.547-.578 1.297-.89.75-.329 1.64-.329.907 0 1.625.297.72.297 1.204.844.5.547.75 1.328.265.765.265 1.687v.922h-5.734q.062.438.25.797.203.344.5.61.297.25.672.39.39.14.843.14.313 0 .625-.062.329-.062.61-.172.297-.125.547-.297.25-.187.437-.437l1.078 1.172q-.203.297-.531.578-.312.266-.766.484-.437.22-.984.344-.531.14-1.156.14zm-.25-7.016q-.375 0-.688.14-.297.126-.531.376-.219.234-.375.578-.156.328-.234.734h3.562v-.172q-.015-.343-.14-.64-.11-.313-.329-.532-.218-.218-.546-.343-.313-.14-.72-.14zm-68.434 25.859h-2.172v-4.937h-3.218v4.937h-2.172v-11.375h2.172v4.657h3.218v-4.657h2.172zm6.274.157q-.97 0-1.766-.313-.797-.328-1.375-.875-.563-.562-.875-1.297-.313-.75-.313-1.61v-.312q0-.968.297-1.765.313-.797.86-1.375.547-.578 1.297-.89.75-.329 1.64-.329.906 0 1.625.297t1.203.844q.5.547.75 1.328.266.765.266 1.687v.922h-5.734q.062.438.25.797.203.344.5.61.296.25.671.39.391.14.844.14.313 0 .625-.062.328-.062.61-.172.296-.125.546-.297.25-.187.438-.437l1.078 1.172q-.203.297-.531.578-.313.266-.766.484-.437.22-.984.344-.531.14-1.156.14zm-.25-7.016q-.375 0-.688.14-.297.126-.531.376-.219.234-.375.578-.156.328-.235.734h3.563v-.172q-.016-.343-.14-.64-.11-.313-.329-.532-.219-.218-.547-.343-.312-.14-.718-.14zm11.039 6.86q-.078-.157-.141-.36-.047-.203-.094-.437-.172.203-.406.375-.234.171-.531.312-.281.125-.625.188-.344.078-.735.078-.656 0-1.203-.188-.531-.187-.922-.515-.39-.344-.609-.813-.219-.469-.219-1.016 0-1.328.985-2.062 1-.734 2.984-.734h1.203v-.5q0-.61-.406-.954-.39-.359-1.14-.359-.657 0-.97.281-.296.282-.296.766h-2.172q0-.547.234-1.031.235-.485.688-.844.468-.375 1.125-.578.656-.219 1.515-.219.766 0 1.422.188.656.187 1.14.562.485.36.75.922.282.547.282 1.281v3.625q0 .688.078 1.14.094.438.266.75v.141h-2.203zm-2.078-1.532q.328 0 .609-.078.281-.078.5-.203.234-.125.39-.281.172-.157.266-.328v-1.454h-1.11q-.5 0-.859.11-.359.094-.593.265-.22.172-.328.422-.11.25-.11.532 0 .437.297.734.313.281.938.281zm13.992-2.625q0 .922-.219 1.719-.219.781-.64 1.36-.407.577-1.032.906-.61.328-1.406.328-.688 0-1.203-.235-.516-.234-.89-.656v3.984h-2.173v-11.703h2l.078.828q.391-.468.922-.718.531-.266 1.25-.266.797 0 1.406.313.625.296 1.047.875.422.562.641 1.359.219.781.219 1.75zm-2.172-.156q0-.531-.11-1-.093-.469-.296-.797-.204-.344-.532-.531-.328-.203-.78-.203-.579 0-.938.218-.36.22-.563.625v3.532q.203.406.563.64.359.235.953.235.453 0 .781-.203.328-.204.531-.547.203-.36.297-.813.094-.469.094-1zm11.601 4.312h-2.187l-3.172-7.343v7.343h-2.203v-11.375h2.203l3.14 7.297.016-7.297h2.203zm7.57-1.187q-.437.625-1.046 1-.594.36-1.313.36-.656 0-1.203-.204-.547-.219-.937-.656-.39-.438-.61-1.125-.218-.688-.218-1.64v-5h2.171v5.015q0 .516.079.875.078.344.234.562.172.204.437.297.266.094.641.094.656 0 1.063-.234.406-.25.609-.688v-5.922h2.187v8.453h-1.968l-.125-1.187zm5.555-7.266.063 1.016q.25-.547.672-.86.422-.312 1.031-.312 1.031 0 1.344.89.25-.421.625-.656.39-.234.937-.234.39 0 .719.14.328.141.578.454.25.297.375.797.14.484.14 1.187v6.031h-1.968v-6.046q0-.235-.062-.391-.047-.156-.141-.25-.078-.094-.188-.125-.109-.031-.234-.031-.219 0-.375.11-.156.093-.25.28v6.453h-1.906v-6.046q0-.25-.047-.407-.047-.156-.14-.234-.079-.094-.188-.125-.11-.031-.235-.031-.25 0-.406.14-.14.14-.234.375v6.328h-1.969v-8.453h1.86zm15.868 4.313q0 .937-.204 1.734-.203.781-.625 1.36-.406.562-1.03.89-.61.313-1.438.313-.735 0-1.282-.282-.546-.28-.937-.78l-.094.905h-1.953v-12h2.172v4.313q.375-.438.875-.672.516-.25 1.203-.25.828 0 1.453.328.625.313 1.031.89.422.563.625 1.36.204.781.204 1.719zm-2.172-.172q0-.516-.078-.969-.079-.469-.266-.812-.188-.344-.516-.547-.328-.203-.828-.203-.594 0-.969.25-.359.25-.562.687v3.36q.203.437.562.687.375.25.985.25.5 0 .812-.187.328-.188.516-.532.187-.343.266-.797.078-.468.078-1.015zm8.258 4.469q-.97 0-1.766-.313-.797-.328-1.375-.875-.563-.562-.875-1.297-.313-.75-.313-1.61v-.312q0-.968.297-1.765.313-.797.86-1.375.547-.578 1.297-.89.75-.329 1.64-.329.906 0 1.625.297t1.203.844q.5.547.75 1.328.266.765.266 1.687v.922h-5.734q.062.438.25.797.203.344.5.61.296.25.671.39.391.14.844.14.313 0 .625-.062.328-.062.61-.172.296-.125.546-.297.25-.187.438-.437l1.078 1.172q-.203.297-.531.578-.313.266-.766.484-.437.22-.984.344-.531.14-1.156.14zm-.25-7.016q-.375 0-.688.14-.297.126-.531.376-.219.234-.375.578-.156.328-.235.734h3.563v-.172q-.016-.343-.14-.64-.11-.313-.329-.532-.219-.218-.547-.343-.312-.14-.718-.14zm11.82-1.75q.5 0 .906.063.422.062.688.14l-.329 2.172q-.421-.11-.875-.156-.453-.047-.859-.047-.906 0-1.469.36-.547.343-.812 1v5.077h-2.172v-8.453h2.016l.109 1.375q.516-.718 1.234-1.125.72-.406 1.563-.406z" fill="#fff"/><path d="m18.304 418.102h113.449v41.008h-113.449z" fill="#bdbdbd" fill-rule="evenodd"/><path d="m18.304 418.102h113.449v41.008h-113.449z" stroke="#666" stroke-linecap="butt" stroke-linejoin="round"/><path d="m69.126 440.107q0 1.094-.25 1.938-.25.828-.719 1.406-.468.578-1.156.875-.672.297-1.547.297-.859 0-1.547-.297-.687-.297-1.171-.875-.47-.578-.72-1.406-.25-.844-.25-1.938v-2.656q0-1.094.25-1.922.25-.844.72-1.422.468-.578 1.156-.875.687-.313 1.547-.313.875 0 1.562.313.688.297 1.156.875.47.578.72 1.422.25.828.25 1.922v2.656zm-5.906-.281 4.422-3.406q-.125-1.125-.656-1.72-.532-.593-1.547-.593-1.14 0-1.688.781-.531.766-.531 2.235zm4.453-2.016-4.422 3.375q.14 1.11.688 1.688.547.578 1.515.578 1.157 0 1.688-.781.531-.782.531-2.25zm6.43 5.719q0-.234.078-.438.078-.203.219-.359.14-.156.343-.234.22-.094.5-.094.282 0 .485.094.219.078.36.234.155.156.218.36.078.203.078.437 0 .219-.078.422-.063.203-.219.36-.14.14-.36.218-.202.094-.484.094-.28 0-.5-.094-.203-.078-.343-.219-.141-.156-.22-.36-.077-.202-.077-.421zm14.07.937h-7.453v-1.046l3.719-4.141q.5-.547.828-.969.344-.437.547-.797.203-.375.281-.687.094-.328.094-.672 0-.422-.14-.797-.126-.375-.392-.64-.265-.282-.64-.438-.36-.156-.828-.156-.578 0-1 .172-.407.156-.688.453-.281.297-.422.734-.125.422-.125.953h-1.453q0-.719.25-1.344.25-.64.719-1.109.469-.484 1.156-.766.688-.28 1.563-.28.797 0 1.437.234.656.234 1.094.656.453.422.687 1 .235.578.235 1.265 0 .5-.172 1t-.469.985q-.281.484-.672.953-.39.469-.812.937l-3.063 3.313h5.72v1.187z" fill="#000"/><path d="m252.633 395.942-111.937-1.386" fill="none"/><g stroke="#666" stroke-linecap="butt"><path d="m237.474 395.755-72.78-.901" stroke-linejoin="round" stroke-width="4"/><path d="m250.633 395.918a6.58 6.58 0 1 1 -13.16-.163 6.58 6.58 0 0 1 13.16.162z" fill="#666" stroke-width="4"/><path d="m164.775 388.247-18.232 6.382 18.069 6.831z" fill="#666" fill-rule="evenodd" stroke-width="4"/></g><path d="m551.853 257.449c0-10.46 46.031-15.69 92.063-20.919 46.031-5.228 92.063-10.454 92.063-20.908" fill="none"/><path d="m561.216 249.943.021-.008a65.455 65.455 0 0 1 2.697-.92 95.854 95.854 0 0 1 4.911-1.403c3.506-.909 7.462-1.767 11.778-2.584 17.262-3.269 40.277-5.884 63.293-8.498s46.032-5.228 63.293-8.494c4.316-.817 8.272-1.675 11.778-2.583a95.935 95.935 0 0 0 4.911-1.402 65.508 65.508 0 0 0 2.697-.92l.019-.006" stroke="#666" stroke-linecap="butt" stroke-linejoin="round" stroke-width="2"/><path d="m559.15 247.365-5.016 8.255 9.148-3.1zm169.53-21.662 5.017-8.253-9.149 3.097z" fill="#666" fill-rule="evenodd" stroke="#666" stroke-linecap="butt" stroke-width="2"/></g></svg>