<svg xmlns="http://www.w3.org/2000/svg" xmlns:xlink="http://www.w3.org/1999/xlink" fill="none" stroke-linecap="square" stroke-miterlimit="10" viewBox="0 0 960 540"><defs/><defs><path id="q" d="M39.8 255.9h163.5v59.7H39.8z" class="c n"/><path id="p" d="M39.8 410.3h163.5V470H39.8z" class="c n"/><path id="m" d="M573.7 26.7A11.4 11.4 0 01585 15.4h142.1a11.4 11.4 0 0111.4 11.3v45.5A11.4 11.4 0 01727 83.6H585a11.4 11.4 0 01-11.4-11.4z" class="c m"/><path id="o" d="M584.7 251.1h142.6v59.7H584.7z" class="c n"/><path id="n" d="M0 0h960v540H0z"/></defs><style>.b{fill:#e67c73}.c{fill-rule:evenodd}.d{stroke-linejoin:round}.e{fill:#000}.f{stroke:#666}.g{fill:#fff}.h{fill:#673ab7}.i{stroke-linecap:butt}.j{fill:#db4437}.k{stroke-width:4}.l{fill:#4285f4}.m{fill:#ff9800}.n{fill:#bdbdbd}</style><clipPath id="a"><use xlink:href="#n"/></clipPath><g clip-path="url(#a)"><use class="c g" xlink:href="#n"/><path d="M57.9 60.3l-.2-.6-.1-.8-.7.6-1 .5-1 .4-1.1.1q-1 0-1.9-.3-.8-.3-1.4-.8-.5-.5-.8-1.2-.3-.7-.3-1.5 0-1 .4-1.8t1.1-1.3q.8-.5 1.9-.8 1-.2 2.4-.2h2.3v-1q0-.6-.2-1-.2-.5-.6-.8-.3-.3-1-.5-.5-.2-1.2-.2-.6 0-1.1.2-.5.1-.9.4l-.5.6-.2.8h-2.2q0-.7.4-1.4.3-.6 1-1.2.6-.5 1.5-.8 1-.4 2.2-.4 1 0 2 .3.9.3 1.6.8.6.5 1 1.3t.4 2v5.8l.1 1.3q.1.7.4 1.3v.2zm-3.8-1.7q.6 0 1.1-.2.6-.1 1-.4l.8-.6.5-.7V54h-2q-1.9 0-3 .6-1 .5-1 1.7l.2 1 .4.6.8.5 1.2.1z" class="e"/><path d="M88.8 51.1H78.3v-1.9h10.5zm0 4.9H78.3v-2h10.5v2zm27.8 8.6q-.8 0-1.4-.3l-1.1-.7q-.5-.3-.9-.9l-.6-1.1-.3-1.3-.1-1.2v-2q0-1.7-.8-2.4-.8-.8-2.5-.8v-1.7q1.7 0 2.5-.8.8-.7.8-2.4v-3.3l.4-1.2q.2-.6.6-1.1.3-.6.8-1t1.2-.6l1.4-.3.2 1.4q-.8 0-1.3.4t-.8 1l-.3 1.3V49q0 1.4-.7 2.5-.6 1-2 1.6 1.4.5 2 1.6.7 1 .7 2.4v3.4q.2.8.5 1.3l.7 1q.5.4 1.2.4z" class="b"/><use class="e" xlink:href="#c"/><use class="b" xlink:href="#d"/><path d="M186.2 60.3H184V46l-4.4 1.7v-2l6.4-2.5h.2z" class="j"/><path d="M209.7 63.2q.7 0 1.2-.4t.8-1q.3-.5.4-1.3l.1-1.4v-2q0-1.4.7-2.4.6-1.1 2-1.6-1.4-.6-2-1.7-.7-1-.7-2.4v-3.4q-.1-.8-.4-1.4-.2-.5-.7-1-.5-.3-1.4-.3l.3-1.4q.8 0 1.4.3.7.2 1.1.6.5.4.9 1l.6 1 .3 1.3V49q0 1.7.9 2.4.8.8 2.4.8v1.7q-1.6 0-2.4.8-.8.7-.8 2.4v2q0 1-.3 1.9-.2 1-.8 1.7-.5.8-1.4 1.3-.8.5-2 .6zm16.5-14.3v-.7l.4-.5q.2-.3.5-.4l.7-.1.8.1q.3.1.5.4l.4.5v1.3q-.1.3-.4.5l-.5.4H227l-.5-.4-.3-.5-.1-.6zm3.7 10.9l-.2 1.1q0 .6-.4 1.2-.2.6-.6 1.1-.4.6-.9 1l-1.3-.7q.6-.9.8-1.8l.2-2v-2h2.4z" class="b"/><path d="M60.3 97q0 1.4-.3 2.6-.4 1.2-1 2-.6.9-1.6 1.4-.9.5-2 .5-1.3 0-2.2-.5-1-.4-1.5-1.2l-.1 1.5h-2v-18h2.1v6.6q.7-.7 1.5-1.1 1-.5 2-.5 1.3 0 2.2.5 1 .5 1.6 1.4.6.8 1 2 .3 1.2.3 2.6v.2zm-2.2-.2L58 95q-.2-.8-.6-1.4-.4-.7-1-1-.7-.4-1.7-.4l-1 .1-.8.4-.7.7-.5.7v5.6l.5.8.7.6.8.4 1 .1q1 0 1.6-.3.6-.4 1-1 .4-.7.6-1.5.2-.8.2-1.8v-.2z" class="e"/><path d="M88.8 94.1H78.3v-1.9h10.5zm0 4.9H78.3v-2h10.5v2zm27.8 8.5q-.8 0-1.4-.2l-1.1-.7q-.5-.3-.9-.9l-.6-1.1-.3-1.3-.1-1.2v-2q0-1.7-.8-2.4-.8-.8-2.5-.8v-1.7q1.7 0 2.5-.8.8-.7.8-2.4v-3.3l.4-1.2q.2-.6.6-1.1.3-.6.8-1t1.2-.6l1.4-.3.2 1.4q-.8 0-1.3.4t-.8 1l-.3 1.3V92q0 1.4-.7 2.5-.6 1-2 1.6 1.4.5 2 1.6.7 1 .7 2.4v3.4q.2.8.5 1.3l.7 1q.5.4 1.2.4z" class="b"/><path d="M141.2 95.3l3.4-4.7h2.5l-4.7 6.2 4.9 6.5h-2.5l-3.5-4.9-3.5 4.9h-2.6l4.9-6.5-4.8-6.2h2.5z" class="e"/><path d="M155.1 101.8l.1-.6q.1-.3.4-.5.2-.3.5-.4l.7-.1.8.1q.3.1.5.4l.3.5.1.6v.7l-.4.5-.5.3q-.3.2-.8.2-.4 0-.7-.2-.3 0-.5-.3l-.4-.5v-.7zm0-10l.1-.6q.1-.3.4-.5.2-.3.5-.4l.7-.1.8.1q.3.1.5.4l.3.5.1.6v.7l-.4.5-.5.3q-.3.2-.8.2-.4 0-.7-.2-.3 0-.5-.3l-.4-.5v-.7z" class="b"/><path d="M189.6 103.3h-11.1v-1.6l5.6-6.2 1.2-1.5.8-1.2.4-1 .2-1-.2-1.2q-.2-.6-.6-1-.4-.4-1-.6-.5-.3-1.2-.3-.9 0-1.5.3-.6.2-1 .7-.5.4-.7 1-.2.7-.2 1.5h-2.2q0-1 .4-2t1-1.7q.8-.7 1.8-1.1 1-.4 2.4-.4 1.2 0 2.1.3 1 .4 1.7 1 .6.6 1 1.5t.4 1.9q0 .8-.3 1.5l-.7 1.5-1 1.4-1.2 1.4-4.6 5h8.5z" class="j"/><path d="M209.7 106.2q.7 0 1.2-.4t.8-1q.3-.5.4-1.3l.1-1.4v-2q0-1.4.7-2.4.6-1.1 2-1.6-1.4-.6-2-1.7-.7-1-.7-2.4v-3.4q-.1-.8-.4-1.4-.2-.5-.7-1-.5-.3-1.4-.3l.3-1.4q.8 0 1.4.3.7.2 1.1.6.5.4.9 1l.6 1 .3 1.3V92q0 1.7.9 2.4.8.8 2.4.8v1.7q-1.6 0-2.4.8-.8.7-.8 2.4v2q0 1-.3 1.9-.2 1-.8 1.7-.5.8-1.4 1.3-.8.5-2 .6zm16.5-14.3v-.7l.4-.5q.2-.3.5-.4l.7-.1.8.1q.3.1.5.4l.4.5v1.3q-.1.3-.4.5l-.5.4H227l-.5-.4-.3-.5-.1-.6zm3.7 10.9l-.2 1.1q0 .6-.4 1.2-.2.6-.6 1.1-.4.6-.9 1l-1.3-.7q.6-.9.8-1.8l.2-2v-2h2.4z" class="b"/><path fill="#ff0" d="M47.5 123.2h403.3V152H47.5z"/><path d="M60.7 138.7q0 1-.2 1.8l-.5 1.9-.7 1.6q-.5.7-1.2 1.3-.6.5-1.5.9-.8.3-1.9.3-1 0-1.9-.3-.8-.4-1.5-1-.6-.5-1.1-1.2-.5-.8-.8-1.7l-.5-1.8-.1-1.8v-2l.1-1.8.5-1.8q.3-.9.8-1.6.4-.8 1-1.3l1.6-1q.8-.3 1.9-.3 1 0 2 .4.8.3 1.4.8.7.6 1.1 1.4.5.7.8 1.6l.5 1.8.2 1.8zm-2.2-2v-1.2l-.3-1.3-.5-1.3q-.2-.6-.7-1-.4-.5-1-.7-.5-.3-1.3-.3-.7 0-1.3.3-.6.2-1 .7l-.7 1-.5 1.3-.2 1.3-.1 1.2v3.3l.3 1.3.5 1.2.7 1q.4.5 1 .8.6.3 1.3.3.8 0 1.4-.3l1-.7.6-1 .5-1.3.2-1.3.1-1.3v-2zm16.2 3.3q0 1.4-.3 2.6-.4 1.2-1 2-.6.9-1.6 1.4-.9.5-2 .5-1.3 0-2.2-.5-.9-.4-1.5-1.2l-.1 1.5h-2v-18h2v6.6q.7-.7 1.5-1.1 1-.5 2-.5 1.3 0 2.2.5 1 .5 1.6 1.4.7.8 1 2 .3 1.2.3 2.6zm-2.2-.2l-.1-1.8q-.2-.8-.6-1.4-.4-.7-1-1-.7-.4-1.6-.4l-1 .1-1 .4-.6.7-.5.7v5.6l.5.8.7.6.8.4 1 .1q1 0 1.6-.3.6-.4 1-1 .5-.7.6-1.5.2-.8.2-1.8zm7.3-6.2h6.4v12.7q0 1.2-.3 2.2-.3 1-1 1.6-.6.6-1.5 1-1 .3-2.1.3H80l-1.2-.2.1-1.8h.5l.7.1h1l1.2-.1q.5-.2.9-.6.4-.3.6-1 .3-.6.3-1.5v-10.8h-4.3v-2zm4-3.4q0-.5.3-.9.3-.3 1-.3.6 0 1 .3.3.4.3 1 0 .4-.4.8-.3.4-1 .4-.6 0-1-.4-.2-.4-.2-.9zm14.6 16.3q-1.4 0-2.5-.5-1.1-.4-2-1.2-.7-.9-1.2-2-.4-1.1-.4-2.4v-.5q0-1.6.5-2.8.5-1.2 1.3-2 .8-.9 1.9-1.3 1-.5 2-.5 1.5 0 2.5.5t1.7 1.3q.7.9 1 2 .3 1.1.3 2.5v1h-9q0 .8.3 1.6.3.7.8 1.3.5.6 1.3.9.7.3 1.6.3 1.1 0 2-.4 1-.5 1.5-1.3l1.4 1-.8 1-1.1.7q-.6.4-1.4.6-.8.2-1.7.2zM98 135q-.7 0-1.3.3-.5.2-1 .7-.5.4-.8 1.1-.3.7-.4 1.6h6.8v-.2q0-.6-.3-1.3-.2-.6-.6-1-.4-.6-1-.9-.6-.3-1.4-.3zm14.5 9.6q.6 0 1.1-.2l1-.5q.4-.3.7-.8.3-.4.3-1h2q0 .9-.4 1.7-.4.7-1.2 1.3-.7.6-1.6 1-1 .3-2 .3-1.4 0-2.5-.5-1-.6-1.7-1.4-.8-1-1.1-2-.4-1.2-.4-2.5v-.5q0-1.2.4-2.4.3-1.1 1-2 .8-.9 1.8-1.4 1.1-.5 2.6-.5 1 0 2 .4 1 .3 1.7 1 .7.5 1 1.4.4.8.4 1.8h-2q0-.6-.3-1-.2-.6-.6-1-.4-.4-1-.6l-1.2-.2q-1 0-1.7.4t-1.1 1q-.4.7-.6 1.5l-.2 1.6v.5l.2 1.7q.2.8.6 1.4.4.7 1 1 .8.5 1.8.5zm14.1-14.2v3h4.8v1.7h-4.8v7q0 .7.2 1.2l.5.7q.3.3.8.4l.9.1h.7l.7-.1.7-.1.5-.1.3 1.5-.6.3-.9.2-1 .1h-1l-1.5-.1q-.8-.3-1.3-.8-.6-.5-.9-1.3-.3-.9-.3-2v-7h-3.3v-1.6h3.3v-3.1h2.2z" class="h"/><path d="M139.7 144.8l.1-.6q.1-.3.4-.5.2-.3.5-.4l.7-.1.8.1q.3.1.5.4l.3.5.2.6-.1.7-.4.5-.5.3q-.3.2-.8.2-.4 0-.7-.2-.3 0-.5-.3l-.3-.5q-.2-.3-.2-.7z" class="b"/><path d="M161 140q0 1.4-.3 2.6-.3 1.2-1 2-.6.9-1.5 1.4-1 .5-2.1.5-1.2 0-2-.4-1-.4-1.6-1v6h-2.1v-17.5h2v1.4q.7-.8 1.6-1.2.9-.5 2-.5 1.3 0 2.2.5 1 .5 1.6 1.4.6.8 1 2 .3 1.2.3 2.6v.3zm-2-.2q0-1-.3-1.8-.2-.8-.6-1.4-.5-.7-1.1-1-.7-.4-1.6-.4-1 0-1.7.5-.7.4-1.2 1.2v6.1q.5.8 1.2 1.2.7.5 1.7.5t1.6-.4q.6-.4 1-1 .5-.7.7-1.5.2-.8.2-1.8v-.2zm14-6.5h.7l.6.1.6.1.4.1-.3 2.2-1.2-.2-1.2-.1q-1.5 0-2.4.7-1 .7-1.4 2v8h-2.2v-12.6h2l.1 2q.8-1 1.9-1.7 1-.6 2.5-.6zm11.8 13.2q-1.4 0-2.5-.5-1.1-.4-1.9-1.2-.8-.9-1.2-2-.5-1.1-.5-2.4v-.5q0-1.6.5-2.8.5-1.2 1.3-2 .8-.9 1.9-1.3 1-.5 2.1-.5 1.4 0 2.4.5t1.7 1.3q.7.9 1 2 .4 1.1.4 2.5v1h-9.1q0 .8.3 1.6.3.7.9 1.3.5.6 1.2.9.7.3 1.6.3 1.2 0 2-.4 1-.5 1.6-1.3l1.3 1-.8 1-1.1.7q-.6.4-1.4.6-.8.2-1.7.2zm-.3-11.4q-.7 0-1.3.3-.5.2-1 .7-.5.4-.8 1.1-.3.7-.4 1.6h6.8v-.2q0-.6-.3-1.3-.2-.6-.6-1-.4-.6-1-.9-.6-.3-1.4-.3zm14 8l.2.8.3-.8 3.5-9.5h2.2l-5.1 12.7h-1.7l-5.2-12.7h2.2l3.7 9.5zm15 3.4q-1.2 0-2.4-.5-1.1-.4-1.9-1.2-.8-.9-1.2-2-.5-1.1-.5-2.4v-.5q0-1.6.5-2.8.5-1.2 1.3-2 .8-.9 1.9-1.3 1-.5 2.1-.5 1.4 0 2.4.5t1.7 1.3q.7.9 1 2 .4 1.1.4 2.5v1h-9.1q0 .8.3 1.6.3.7.9 1.3.5.6 1.2 1 .7.2 1.6.2 1.2 0 2-.4 1-.5 1.6-1.3l1.3 1-.8 1-1.1.7q-.6.4-1.4.6-.8.2-1.7.2zm-.2-11.4q-.7 0-1.2.3-.6.2-1.1.7-.5.4-.8 1.1-.3.7-.4 1.6h6.8v-.2q0-.6-.3-1.3-.2-.6-.6-1-.4-.6-1-.9-.6-.3-1.4-.3zm11-1.5l.2 1.8q.7-1 1.7-1.5 1-.6 2.2-.6 1 0 1.8.3.9.3 1.4 1 .6.5 1 1.4.2 1 .2 2.2v8h-2.1v-8q0-.8-.2-1.4-.2-.6-.6-1-.3-.3-.9-.4-.5-.2-1.2-.2-1.1 0-2 .5-.8.6-1.3 1.5v9h-2.1v-12.6zm17.6-3.1v3h4.9v1.8h-4.9v6.9q0 .7.2 1.2l.5.7.8.4.9.1h1.5l.6-.2.5-.1.3 1.5-.6.3-.9.2-1 .2h-1q-.8 0-1.5-.2-.8-.3-1.3-.8t-.8-1.3q-.3-.9-.3-2v-7h-3.4v-1.6h3.4v-3zm18.7 7.9h-7.1v6h8.3v1.9h-10.5v-17.1h10.4v1.8h-8.2v5.5h7zm10.2-.1l3.4-4.7h2.6l-4.7 6.2 4.8 6.5h-2.5l-3.5-4.9-3.5 4.9h-2.5l4.8-6.5-4.7-6.2h2.5zm14.3-7.8v3h4.9v1.8h-5v6.9q0 .7.2 1.2l.5.7.8.4 1 .1h1.4l.6-.2.5-.1.3 1.5-.6.3-.9.2-1 .2h-1q-.8 0-1.5-.2-.7-.3-1.3-.8-.5-.5-.8-1.3-.3-.9-.3-2v-7h-3.4v-1.6h3.4v-3zm15 16q-1.4 0-2.5-.5-1.2-.4-2-1.2-.8-.9-1.2-2-.5-1.1-.5-2.4v-.5q0-1.6.5-2.8.5-1.2 1.3-2 .9-.9 1.9-1.3 1-.5 2.1-.5 1.4 0 2.4.5t1.7 1.3q.7.9 1 2 .4 1.1.4 2.5v1h-9q0 .8.3 1.6.3.7.8 1.3.5.6 1.2 1l1.6.2q1.2 0 2-.4 1-.5 1.6-1.3l1.3 1-.8 1-1 .8-1.5.5q-.8.2-1.7.2zm-.4-11.4q-.6 0-1.2.3-.6.2-1 .7-.5.4-.9 1.1-.3.7-.4 1.6h6.8v-.2l-.2-1.3q-.2-.6-.6-1-.4-.6-1-.9-.6-.3-1.5-.3zm11-1.5l.2 1.8q.7-1 1.7-1.5 1-.6 2.3-.6 1 0 1.8.3t1.4 1q.5.5.9 1.4.3 1 .3 2.2v8H317v-8q0-.8-.2-1.4-.2-.6-.6-1-.3-.3-.9-.4-.5-.2-1.2-.2-1 0-1.9.5-.8.6-1.3 1.5v9h-2.2v-12.6zm21 9.3q0-.4-.2-.7l-.5-.6-1-.5-1.5-.4-2-.5q-.9-.3-1.5-.8-.6-.4-1-1-.3-.6-.3-1.4 0-.7.3-1.4.4-.7 1-1.2.7-.5 1.6-.8 1-.3 2-.3 1.2 0 2.1.3 1 .3 1.6.9.7.5 1 1.2.4.8.4 1.6h-2.2l-.2-.8q-.2-.4-.6-.7l-1-.5q-.4-.2-1.1-.2-.7 0-1.2.2-.5.1-.9.4-.3.2-.5.6-.2.3-.2.7 0 .4.2.7 0 .2.4.5l1 .4 1.4.3 2.1.6q1 .3 1.6.8.6.4 1 1 .3.6.3 1.4 0 .9-.4 1.6-.4.6-1 1.1-.7.5-1.7.8-1 .3-2 .3-1.3 0-2.4-.4-1-.3-1.7-.9-.6-.6-1-1.3-.4-.8-.4-1.6h2.2q0 .7.3 1.2l.8.7 1 .4 1.1.1q1.4 0 2.2-.5.8-.5.8-1.3zm6.2-9.3h6.5v10.8h4.2v1.9h-10.7v-2h4.4v-8.8h-4.4v-2zm4-3.4q0-.5.4-.9.3-.3 1-.3.6 0 1 .3.3.4.3 1 0 .5-.3.8-.4.4-1 .4-.7 0-1-.4-.3-.3-.3-.9zm9.5 9.6q0-1.4.4-2.5.4-1.2 1.2-2 .7-1 1.8-1.5 1-.5 2.4-.5 1.3 0 2.4.5 1 .5 1.8 1.4.8.9 1.1 2 .5 1.2.5 2.6v.3q0 1.3-.5 2.5-.4 1.2-1 2-.8 1-2 1.4-1 .5-2.3.5-1.4 0-2.4-.5-1.1-.5-1.8-1.4-.8-.8-1.2-2-.4-1.2-.4-2.5v-.3zm2.2.3q0 .9.2 1.7.2.9.7 1.5.4.7 1.1 1 .7.4 1.6.4.9 0 1.5-.4.7-.3 1.2-1 .4-.6.6-1.5.3-.8.3-1.7v-.3q0-1-.3-1.8-.2-.8-.6-1.5-.5-.6-1.2-1-.6-.4-1.5-.4-1 0-1.6.4-.7.4-1.1 1-.5.7-.7 1.5l-.2 1.8zm14.8-6.5l.1 1.8q.7-1 1.7-1.5 1-.6 2.3-.6 1 0 1.8.3t1.4 1q.5.5.9 1.4.3 1 .3 2.2v8h-2.2v-8q0-.8-.2-1.4l-.5-1q-.4-.3-1-.4-.5-.2-1.2-.2-1 0-1.9.5-.8.6-1.3 1.5v9h-2.2v-12.6zm20.8 9.3l-.1-.7-.5-.6-1-.5-1.5-.4-2-.5q-.9-.3-1.5-.8-.6-.4-1-1-.3-.6-.3-1.4 0-.7.3-1.4.4-.7 1-1.2.7-.5 1.6-.8 1-.3 2-.3 1.2 0 2.1.3 1 .3 1.6.9.7.5 1 1.2.4.8.4 1.6H389l-.2-.8q-.2-.4-.6-.7l-1-.5q-.4-.2-1-.2-.8 0-1.3.2-.5.1-.9.4-.3.2-.5.6-.2.3-.2.7 0 .4.2.7l.4.5 1 .4 1.4.3 2.1.6q1 .3 1.6.8.6.4 1 1 .3.6.3 1.4 0 .9-.4 1.6-.4.6-1 1.1-.7.5-1.7.8-1 .3-2 .3-1.3 0-2.4-.4-1-.3-1.7-.9-.6-.6-1-1.3-.4-.8-.4-1.6h2.2q0 .7.3 1.2.3.4.8.7l1 .4 1.1.1q1.4 0 2.2-.5.8-.5.8-1.3z" class="e"/><path d="M397.4 139.3q0-1.7.2-3.1l.7-2.8 1-2.3 1.3-1.8q.6-.8 1.3-1.4.6-.6 1.2-.9l.4 1.4q-.7.6-1.4 1.5-.7 1-1.3 2.3-.6 1.4-1 3.1-.3 1.8-.3 4v.2q0 2.1.4 4 .3 1.7.9 3 .6 1.4 1.3 2.4.7 1 1.4 1.5l-.4 1.4-1.3-1q-.6-.5-1.2-1.3-.7-.8-1.3-1.9l-1-2.3-.7-2.7q-.2-1.5-.2-3.2z" class="b"/><path d="M420.4 140q0 1.4-.4 2.6-.3 1.2-1 2-.6.9-1.5 1.4-1 .5-2.1.5-1.3 0-2.2-.5-.9-.4-1.5-1.2v1.5h-2v-18h2.1v6.6q.6-.7 1.5-1.1.9-.5 2-.5 1.3 0 2.2.5 1 .5 1.6 1.4.6.8 1 2 .3 1.2.3 2.6v.2zm-2.2-.2q0-1-.2-1.8t-.6-1.4q-.4-.7-1-1-.7-.4-1.6-.4l-1 .1-.9.4-.6.7-.5.7v5.6l.5.8.6.6.9.4 1 .1q1 0 1.6-.3.6-.4 1-1 .4-.7.6-1.5.2-.8.2-1.8v-.2z" class="e"/><path d="M432 139.4q0 1.7-.3 3.2-.3 1.5-.8 2.7-.4 1.3-1 2.3l-1.2 1.9q-.6.8-1.3 1.4l-1.2.9-.5-1.4q.8-.5 1.5-1.5t1.3-2.3q.5-1.4.9-3.2.3-1.7.3-4v-.1q0-2.2-.3-4-.4-1.8-1-3.1-.6-1.4-1.3-2.4-.7-1-1.4-1.5l.5-1.3q.6.3 1.2 1 .7.5 1.3 1.3l1.2 1.8q.6 1 1 2.3.5 1.3.8 2.8.2 1.4.2 3.1v.1zm10.2-4.6v-.6l.4-.5q.2-.3.5-.4l.8-.1.7.1.6.4.3.5v1.3l-.3.5-.6.3q-.3.2-.7.2l-.8-.2q-.3 0-.5-.3l-.3-.5-.1-.7zm3.7 11l-.1 1-.4 1.3-.7 1.1q-.3.6-.8 1l-1.4-.7q.6-.9.8-1.8.3-1 .3-2v-2h2.3z" class="b"/><g stroke="#595959" class="k"><path d="M216.1 376c89.4 0 134 17 178.7 34.2a517.8 517.8 0 0072.6 23.5 396.2 396.2 0 0074.7 10 559.7 559.7 0 005.6.2h1.9" class="d i"/><path fill="#595959" d="M549.4 450.6l18.3-6.3-18-7z" class="c"/></g><use fill="#fbbc05" fill-opacity=".4" class="c" xlink:href="#e"/><use class="d f" xlink:href="#e"/><path d="M783.2 230v2.8h-1.5v-7.6h2.6q.7 0 1.2.2l.8.5q.4.3.5.8.2.4.2 1 0 .5-.2.9-.1.4-.5.7-.3.4-.8.5-.5.2-1.2.2zm0-1.2h1.7l.3-.3.3-.4v-.9q0-.3-.3-.4 0-.2-.3-.3l-.6-.1h-1.1zm9-1.8h.5l.5.2-.2 1.4h-.6l-.6-.1q-.6 0-1 .2l-.5.7v3.4h-1.4v-5.6h1.3v.9q.4-.5.9-.8.5-.3 1-.3zm2 3q0-.7.3-1.2.1-.6.5-1l.8-.5q.5-.2 1.1-.2.7 0 1.2.2t.8.6q.4.4.5.9.2.5.2 1.1v.1l-.2 1.2q-.1.5-.5.9l-.8.6q-.5.2-1.1.2-.7 0-1.2-.2l-.8-.6-.5-1-.2-1zm1.5 0l.1.7q0 .3.2.5l.4.4.6.1.5-.1.4-.4.2-.5v-1.4l-.2-.6-.4-.3q-.2-.2-.6-.2-.3 0-.5.2-.2 0-.4.3l-.2.6v.6zm10.2 0l-.1 1.1q-.1.6-.4 1l-.7.6q-.4.2-1 .2l-.8-.2q-.3-.1-.5-.4v2.6h-1.5v-7.8h1.3v.6l.7-.5.8-.2q.6 0 1 .2t.7.6q.3.4.4 1 .2.5.2 1.1zm-1.4 0v-.7l-.3-.6-.3-.3q-.2-.2-.5-.2-.4 0-.7.2-.2.1-.3.4v2.3l.3.5.7.1.5-.1q.2-.1.3-.4.2-.2.2-.5l.1-.7zm5.5 2.9l-1.2-.2q-.5-.2-.9-.6-.4-.4-.6-.9l-.2-1v-.2q0-.7.2-1.2.2-.6.6-1l.9-.5q.5-.3 1-.3.7 0 1.1.2l.8.6q.4.4.5.9.2.5.2 1.1v.6h-3.8q0 .3.2.5 0 .3.3.4l.4.3.6.1h.4l.4-.1.4-.3q.2 0 .3-.2l.7.7-.3.4-.6.4-.6.2h-.8zm-.2-4.7l-.4.1q-.2 0-.4.3l-.2.3-.2.5h2.4v-.5l-.3-.3-.4-.3h-.5zm8-1.2h.5l.5.2-.2 1.4h-.6l-.6-.1q-.6 0-1 .2l-.5.7v3.4h-1.5v-5.6h1.4v.9q.4-.5.9-.8.4-.3 1-.3zm5-1.2v1.4h2v1h-2v3q0 .2.2.3l.3.2h1.4l.2-.1.2 1-.4.1-.4.1h-.5l-.5.1-.8-.1q-.4-.1-.7-.4l-.4-.7-.1-1v-2.5H820v-1h1.3v-1.4zm6 4.6l.2.6 1.5-3.8h1.6l-2.8 6.4-.3.5-.3.4-.6.4q-.3.2-.7.2h-.4l-.2-.1h-.1l.1-1.2h.8l.2-.3.1-.2h.1l.4-.7-2.4-5.4h1.6l1.2 3.2zm10.8-3.2h3.1v4.4h1.5v1.2h-4.6v-1.2h1.6v-3.3h-1.6zm1.5-1.5v-.3l.3-.2q0-.2.2-.2h.4l.6.2q.2.2.2.5l-.2.6-.6.2h-.4l-.2-.2-.2-.3v-.3zm5.9 1.5v.7l.8-.6q.4-.3 1-.3.4 0 .7.2.4.1.6.4.3.2.4.7.2.4.2 1v3.5h-1.5v-4l-.3-.3q-.1-.2-.3-.2h-1.1l-.4.5v4h-1.5v-5.6h1.4zm6.5 5.6v-4.6H852v-1h1.5v-.4l.1-1 .5-.7.8-.4 1-.1h1.1l.3.1v1.1h-1.1q-.7 0-1 .2-.3.3-.3.8v.4h2v1h-2v4.6zm4.7-2.9q0-.6.2-1.1l.5-1 .9-.5q.5-.2 1.1-.2.6 0 1.1.2.5.2.9.6l.5.9q.2.5.2 1.1v.1l-.2 1.2-.5.9-.9.6-1 .2q-.7 0-1.2-.2l-.8-.6q-.4-.4-.6-1l-.2-1zm1.5.1v.7l.3.5.3.4.6.1.5-.1.4-.4q.2-.2.2-.5l.1-.7v-.7l-.3-.6q-.1-.2-.4-.3-.2-.2-.5-.2l-.6.2q-.2 0-.3.3l-.2.6-.1.6zm9.2-3h.6l.4.2-.2 1.4h-.6l-.5-.1q-.6 0-1 .2-.4.3-.6.7v3.4h-1.4V227h1.3l.1 1 .8-.8q.5-.3 1-.3zm3.2.1v.7q.2-.4.5-.6.3-.2.7-.2.7 0 1 .6 0-.3.3-.4.3-.2.7-.2l.4.1.4.3.3.5v4.8h-1.3v-4.4h-.2l-.2-.1h-.2l-.2.3v4.3H873v-4.5h-.2l-.1-.1h-.3l-.2.3v4.3H871V227zm9 5.7v-.3l-.1-.3-.3.3-.3.2-.5.1h-1.2l-.7-.4-.4-.5-.1-.7q0-1 .6-1.4.7-.5 2-.5h.8v-.3q0-.4-.2-.6-.3-.3-.8-.3-.4 0-.6.2-.2.2-.2.5h-1.5q0-.4.2-.7.1-.3.4-.5.3-.3.8-.4.4-.2 1-.2l1 .1.7.4.5.6q.2.4.2.9v3.2l.2.5zm-1.3-1l.4-.1.3-.1.3-.2.1-.2v-1h-1.3l-.4.2-.2.3v.4l.1.5.7.1zm6.9-6v1.3h2v1.1h-2v2.9l.2.4.3.1h1.8l.1 1-.3.1h-.5l-.5.2h-.4l-.9-.1-.6-.4q-.3-.3-.4-.7-.2-.4-.2-1v-2.5H884v-1h1.3v-1.5h1.5zm4.1 1.3h3v4.5h1.6v1.2h-4.6v-1.2h1.6v-3.3h-1.6zm1.5-1.4v-.3l.2-.3.3-.1h.3l.6.1q.3.3.3.6t-.3.6q-.2.2-.6.2h-.3l-.3-.2-.2-.3v-.3zm4.3 4.2q0-.6.2-1.1l.5-1 .8-.5q.5-.3 1.2-.3.6 0 1 .3.6.2 1 .6.3.3.4.9.2.5.2 1.1v.1l-.2 1.2q-.1.5-.5.9l-.8.6q-.5.2-1.1.2-.7 0-1.2-.2l-.8-.6-.5-1-.2-1v-.2zm1.4.1l.1.7q0 .3.2.5l.4.4.6.1.5-.1.4-.4.2-.5v-1.4l-.2-.6-.4-.3q-.2-.2-.5-.2-.4 0-.6.2-.2 0-.4.3l-.2.6v.7zm6.5-2.9l.1.8q.3-.4.7-.6.5-.3 1-.3l.8.2q.3 0 .6.4l.4.7.1 1v3.5h-1.4v-3.5l-.1-.5-.2-.4-.4-.1H905l-.4.5v4h-1.4V227z" class="e"/><path d="M786.8 259.4v.8l-.3.8-.3.8-.5.5q-.3.3-.7.4l-.8.2q-.5 0-.9-.2l-.6-.4-.6-.5-.3-.8-.2-.8v-2.5l.2-.8.3-.7.5-.6.7-.4.9-.1.8.1.7.4.5.6.3.7.2.8.1.9zm-1-.8v-.6l-.1-.6q0-.3-.2-.5l-.3-.5-.5-.3q-.2-.2-.5-.2-.4 0-.6.2-.3 0-.5.3l-.3.4-.2.6v.6l-.1.6v1.4l.1.6.2.5.3.5.5.3.6.1h.6l.4-.4.3-.5.2-.5.1-.6v-1.4zm4 4.2v-5h-1.6v-.7h1.5v-.4l.2-1 .4-.6q.3-.3.7-.4.4-.2 1-.2l.6.1.7.1-.2.8h-.5l-.6-.1q-.7 0-1 .3-.3.3-.3 1v.4h2.1v.8h-2.1v4.9zm6.3 0v-5h-1.5v-.7h1.5v-.4l.2-1 .4-.6q.3-.3.7-.4.4-.2 1-.2l.6.1.7.1-.2.8h-.5l-.6-.1q-.7 0-1 .3-.3.3-.3 1v.4h2.1v.8h-2.1v4.9zm8.7-1.5v-.3l-.3-.3-.4-.2-.7-.2q-.5 0-.9-.2l-.6-.3-.5-.5-.1-.6.1-.6q.2-.4.5-.6l.7-.3q.4-.2.9-.2t.9.2q.4.1.7.4l.5.5.1.7h-1v-.3l-.3-.4-.4-.2h-1.1l-.4.2-.2.3v.6l.2.2.4.2.7.1.9.3.7.3q.3.2.4.5l.2.6q0 .4-.2.7l-.5.5-.7.4h-2l-.7-.5-.5-.5-.1-.8h1v.5l.4.4.5.2h.5q.6 0 1-.2.3-.2.3-.6zm5.1 1.6l-1-.2q-.5-.2-.9-.6-.4-.4-.6-.9l-.1-1v-.3q0-.7.2-1.2l.6-1 .8-.5q.4-.2 1-.2l1 .2.7.6.5.9.1 1v.5h-4l.2.8.3.5.6.4q.3.2.7.2l1-.2.6-.6.6.5-.4.4-.5.4-.6.2h-.8zm0-5h-.6l-.5.3-.4.5-.1.7h3l-.1-.6-.3-.5-.4-.3q-.3-.2-.7-.2zm6.2-2.1v1.3h2.2v.8H816v3l.1.6.2.3.4.2h1.3l.3-.1.1.7-.3.1h-.4l-.4.1h-1.1q-.3-.1-.5-.4l-.4-.6-.1-.9v-3h-1.5v-.8h1.5v-1.3z" class="h"/><path d="M822 262.1v-.2l.1-.3.2-.1.4-.1h.3l.3.2v.3l.1.2v.3l-.1.3-.3.1h-.7l-.2-.1-.1-.3v-.3zm0-5v-.2l.1-.3.2-.1.4-.1h.3l.3.2v.3l.1.2v.3l-.1.3-.3.1h-.7l-.2-.1-.1-.3v-.3z" class="b"/><path d="M837.8 259.9q0 .7-.2 1.3-.1.5-.4.9l-.8.6-1 .2q-.6 0-1-.2-.5-.2-.9-.6-.3-.4-.4-1-.2-.5-.2-1.2V258q0-.7.2-1.3l.4-1 .8-.5 1-.2q.6 0 1 .2.5.2.9.6.3.4.4 1 .2.5.2 1.2zm-4-.2l3-2.3q0-.7-.4-1.1-.4-.4-1-.4-.8 0-1.2.5-.3.5-.3 1.5zm3-1.4l-3 2.3q.2.7.5 1.1.4.4 1 .4.8 0 1.2-.5.3-.5.3-1.5z" class="j"/><path d="M784.4 274.7h-1.5v3h-1v-7.5h2.2q.6 0 1 .2.5 0 .8.4.4.3.6.7.2.4.2 1l-.1.6-.3.6-.4.4-.6.4 1.6 3.2h-1zm-1.5-.8h1.3l.6-.1.5-.3.3-.4.1-.6-.1-.7-.3-.4-.5-.3-.7-.1H783zm7.9 4q-.6 0-1.1-.2-.5-.2-.9-.6l-.5-.9-.2-1v-.3l.2-1.2q.2-.5.6-.9.3-.4.8-.6.4-.2 1-.2.5 0 1 .3l.7.5q.4.4.5 1l.1 1v.4h-4l.2.8.3.6.6.4h.7l1-.1.6-.6.6.5-.4.4-.5.4-.6.2h-.7zm-.2-5h-.5l-.5.3-.3.5q-.2.3-.2.7h3l-.1-.6-.3-.5-.4-.3q-.3-.2-.7-.2zm8.8 2.1l-.1 1.1-.5 1q-.2.4-.7.6-.4.2-.9.2l-1-.2-.6-.5v2.7h-1v-7.8h1v.6l.7-.5q.4-.2.9-.2l1 .2q.4.2.6.6l.5 1 .1 1v.2zm-1 0v-.9l-.3-.6-.5-.5-.7-.1q-.5 0-.8.2l-.5.5v2.7q.2.4.5.6.3.2.8.2.4 0 .7-.2.3-.1.5-.4l.3-.7v-.8zm6.3-3h.6l.2.1h.2l-.1 1h-.5l-.6-.1q-.6 0-1 .3-.5.3-.7.9v3.6h-1V272h1v1q.4-.5.9-.8.4-.3 1-.3zm5.2 5.9q-.6 0-1-.2-.5-.2-.9-.6-.4-.4-.6-.9l-.1-1v-.3l.2-1.2.5-.9q.4-.4.9-.6.4-.2 1-.2.5 0 1 .3l.7.5.5 1 .1 1v.4h-4l.2.8.3.6.6.4h.7l1-.1.6-.6.6.5-.4.4-.5.4-.6.2h-.8zm0-5h-.6l-.5.3-.4.5-.1.7h3l-.1-.6-.3-.5-.4-.3q-.3-.2-.7-.2zm7.7 3.4v-.3l-.3-.3-.4-.2-.7-.2q-.5 0-.9-.2l-.7-.3-.4-.5-.2-.6.2-.6.4-.6.7-.3q.4-.2 1-.2.5 0 .9.2.4.1.7.4.3.2.4.5.2.3.2.7h-1v-.3l-.3-.4-.4-.2h-1.1l-.4.2-.2.3-.1.3v.3l.3.2.4.2.6.1 1 .3.7.3q.3.2.4.5l.2.6q0 .4-.2.7l-.5.5-.7.4h-2l-.7-.5-.5-.5-.2-.8h1q0 .3.2.5l.3.4.5.2h.5q.6 0 1-.2.3-.2.3-.6zm5.1 1.6q-.6 0-1-.2-.6-.2-1-.6l-.5-.9-.2-1v-.3q0-.7.3-1.2l.5-1 .8-.5 1-.2q.6 0 1 .2.5.2.8.6l.5.9.1 1v.5h-4l.1.7.4.6q.2.3.6.4.3.2.7.2.5 0 .9-.2t.7-.6l.5.5q0 .2-.3.4l-.5.4-.6.2h-.8zm-.1-5h-.6l-.4.3-.4.5-.2.7h3v-.6l-.3-.5-.4-.3q-.3-.2-.7-.2zm4.9-.8v.9q.4-.5.8-.7.5-.3 1-.3t.8.2q.4 0 .6.4.3.2.4.6.2.4.2 1v3.6h-1v-3.6l-.1-.6q0-.3-.2-.4l-.4-.3h-.6q-.5 0-.8.2-.4.2-.6.6v4h-1v-5.6zm7.8-1.3v1.3h2.2v.8h-2.2v3.6l.3.3.4.2h1.3l.2-.1.2.7-.3.1h-.4l-.4.1h-1.2l-.5-.4q-.3-.2-.4-.6-.2-.4-.2-.9v-3H833v-.8h1.4v-1.4zm7.8 7v-.3l-.1-.3-.4.2q-.1.2-.4.3l-.4.1h-1.3l-.6-.4q-.3-.2-.4-.5-.2-.3-.2-.7 0-.5.2-.8.2-.4.5-.6l.8-.3 1.1-.1h1v-.9l-.3-.4-.4-.2H841l-.4.2-.2.3-.1.3h-1l.2-.6q.1-.3.4-.5.3-.3.7-.4.4-.2 1-.2l.9.2q.4 0 .7.3.3.2.4.6l.2.8v3.2l.2.6zm-1.7-.8h.5l.5-.2.3-.3.3-.3V275h-1q-.8 0-1.2.3-.5.2-.5.8v.3l.3.4.3.2h.5zm6.7-6.2v1.3h2.1v.8h-2.1v3.6l.3.3.3.2h1.4l.2-.1.2.7-.3.1h-.4l-.4.1h-1.2l-.5-.4q-.3-.2-.4-.6-.2-.4-.2-.9v-3h-1.4v-.8h1.4v-1.4zm4.3 1.3h2.8v4.8h1.9v.9h-4.7v-.9h1.9v-4h-2zm1.8-1.4v-.4q.2-.2.5-.2l.5.1.1.4-.1.4q-.2.2-.5.2t-.4-.2l-.1-.4zm4.1 4.2q0-.6.2-1.1l.5-1 .8-.5q.5-.3 1-.3.7 0 1.2.3l.8.6.5.9q.2.5.2 1.1v.1q0 .6-.2 1.1l-.5 1-.8.5q-.5.3-1 .3-.7 0-1.2-.3l-.8-.6-.5-.9q-.2-.5-.2-1.1zm1 .1v.8l.4.7.5.4q.3.2.7.2.4 0 .7-.2l.5-.4.3-.7.1-.8v-.1l-.1-.8q0-.4-.3-.7-.2-.3-.5-.4-.3-.2-.7-.2-.4 0-.7.2-.3.1-.5.4l-.3.7v.8zm6.6-2.9v.9q.3-.5.8-.7.4-.3 1-.3l.8.1.6.4q.3.3.4.7l.1 1v3.6h-1v-4.2q0-.3-.3-.4-.1-.2-.4-.3h-.5q-.5 0-.9.2-.3.2-.5.6v4h-1v-5.6z" class="h"/><path d="M873 277.1l.1-.2q0-.2.2-.3l.2-.1.3-.1h.4l.2.2.1.3v.5l-.1.3-.2.1h-.7l-.2-.1-.2-.3v-.3zm0-5l.1-.2q0-.2.2-.3l.2-.1.3-.1h.4l.2.2.1.3v.5l-.1.3-.2.1h-.7l-.2-.1-.2-.3v-.3z" class="b"/><path d="M888.2 275.9q0-.4-.2-.6l-.4-.4-.6-.3-.5-.2-.9-.3-.7-.5-.6-.6-.2-.8.2-1 .6-.6.8-.4.9-.1 1 .1.8.5.5.7.3 1h-1q0-.4-.2-.6l-.3-.5-.5-.3-.6-.1h-.5l-.5.3-.3.4q-.2.2-.2.5 0 .4.2.6l.4.4.6.2.5.2.6.2.5.3.5.3.4.4.3.5v.6l-.2 1-.5.6-.8.4h-2l-.8-.5q-.4-.3-.6-.7-.3-.5-.3-1h1q0 .4.2.6.1.3.4.5l.5.3h1.2q.3 0 .5-.2l.3-.4q.2-.2.2-.5zm2.8-3.8v.6l.5-.5q.3-.2.7-.2.7 0 1 .6l.4-.4q.3-.2.7-.2.6 0 1 .4.3.4.3 1.2v4.2h-1v-4.2q0-.8-.6-.8h-.3l-.2.2-.1.2v4.6h-1v-4.3l-.1-.5q-.2-.2-.5-.2t-.5.2l-.2.3v4.5h-1V272zm6.1 0h3v4.8h1.7v.9h-4.7v-.9h2v-4h-2zm1.8-1.4q0-.3.2-.4.1-.2.4-.2.3 0 .4.2.2.1.2.4l-.2.4-.4.1-.4-.1-.2-.4z" class="j"/><use class="b" xlink:href="#f"/><path d="M798.4 290.7l.6-5.5h1l-1 7.6h-1l-1-5.7-1 5.7h-1l-.9-7.6h1l.5 5.5 1-5.5h.8zm6.3-3.7h.6l.2.1h.2l-.1 1h-.5l-.6-.1q-.6 0-1 .3-.5.3-.7.9v3.6h-1V287h1v1q.4-.5.9-.8.4-.3 1-.3zm3 .1h2.8v4.8h1.8v.9h-4.7v-.9h2v-4h-2v-.8zm1.7-1.4l.1-.4q.2-.2.5-.2l.4.2.1.3-.1.4q-.1.2-.4.2-.3 0-.5-.2l-.1-.4zm6.7 0v1.4h2.2v.8H816v3l.1.6q0 .2.2.3l.4.2h1.3l.3-.1v.6l-.2.2h-.4l-.4.1h-1.2l-.5-.4q-.3-.2-.4-.6l-.1-.9v-3h-1.5v-.8h1.5v-1.4h1zm7.8 7V292.1l-.4.3-.4.2-.5.2h-1.3l-.6-.4q-.3-.2-.4-.5l-.2-.7q0-.5.2-.8.2-.4.5-.6l.8-.3 1.1-.1h1v-1l-.3-.3-.4-.2h-1.1l-.4.2-.2.3v.3h-1v-.6l.5-.5q.3-.3.7-.4l1-.2q.5 0 .9.2.4 0 .7.3.3.2.5.6l.1.8v3.2l.2.6h-1zm-1.7-.7h.6l.4-.2.4-.3.2-.3V290h-1q-.8 0-1.2.3-.5.2-.5.7v.4l.3.4.3.2h.5zm9.2-2l-.1 1.1-.5 1q-.2.3-.7.5-.4.3-1 .3l-.9-.2q-.4-.2-.6-.6v.6h-1v-8h1v3l.7-.5q.3-.2.9-.2l1 .2.6.6.5 1v1.2zm-1-.1v-.8l-.3-.6-.5-.5q-.2-.2-.7-.2l-.4.1-.4.2-.3.3-.2.3v2.5l.2.3.3.3.4.2h.5l.6-.1.5-.5.3-.6v-.8zm2.8-5.1h2.9v7.1h1.8v.8h-4.7v-.8h1.9v-6.3h-2v-.9zm8.7 8l-1-.1q-.6-.2-1-.6l-.5-.9-.2-1v-.3q0-.7.2-1.2l.6-1 .8-.5 1-.2q.6 0 1 .2.5.2.8.6l.5.9.1 1v.5h-4l.1.7.4.6q.2.3.5.4l.8.2q.5 0 .9-.2t.7-.6l.5.5-.3.4-.5.3-.6.3h-.8zm-.1-5l-.6.1-.4.3-.4.5-.2.7h3v-.6l-.3-.5-.5-.4h-.6z" class="h"/><path d="M847 284.1h2v10.3h-2v-.8h1.2v-8.7H847v-.8zm6.4 0h2v10.3h-2v-.8h1.2v-8.7h-1.2v-.8zm6.9 8v-.2q0-.2.2-.3l.2-.1.3-.1h.4l.2.2.2.3v.5l-.2.3-.2.1h-.7l-.2-.1-.2-.3v-.3zm0-5v-.2q0-.2.2-.3l.2-.1.3-.1h.4l.2.2.2.3v.5l-.2.3-.2.1h-.7l-.2-.1-.2-.3v-.3z" class="b"/><path d="M873.7 285.8v1.3h2.1v.8h-2.1v3.6l.3.3q.1.2.3.2h1.4l.2-.1.1.7-.3.1h-.3l-.5.1h-1.1l-.6-.4-.3-.6q-.2-.3-.2-.9v-3h-1.5v-.8h1.5v-1.3h1zm7.8 1.2h.5l.3.1h.2l-.2 1h-.5l-.5-.1q-.7 0-1.1.3-.4.3-.6.9v3.6h-1V287h1v1q.3-.5.8-.8.5-.3 1-.3zm6.3 5q-.2.4-.7.6-.4.3-1 .3-.4 0-.7-.2-.4-.1-.6-.4-.3-.3-.4-.7-.2-.5-.2-1.1V287h1v4.2l.3.4.3.3h.5q.6 0 1-.2.3-.2.5-.6v-4h1v5.6h-1v-.8zm5.3.9q-.6 0-1.1-.2-.5-.2-.9-.6l-.5-.9-.2-1v-.2q0-.7.2-1.3.2-.5.6-.9.3-.4.8-.6l1-.2q.5 0 1 .3l.8.5q.3.4.4 1 .2.4.2 1v.4h-4v.8l.5.6.5.4.7.1 1-.2.6-.5.6.4-.4.4-.5.4-.6.2-.7.1zm-.2-5h-.5q-.3.1-.5.4l-.3.5-.2.6h3l-.1-.6q0-.3-.3-.5-.1-.2-.4-.3l-.6-.2z" class="l"/><path d="M785.3 299.9H784v8.7h1.2v.8h-2.1v-10.3h2zm6.3 0h-1.1v8.7h1.1v.8h-2v-10.3h2z" class="b"/><path d="M798.8 304.3h-3.1v2.7h3.7v.8h-4.7v-7.6h4.6v.8h-3.6v2.5h3.1zm3.1-2.2l.1.9q.3-.5.7-.7.5-.3 1-.3t.8.2q.4 0 .7.4l.4.6.1 1v3.6h-1v-4.2l-.3-.4-.4-.3h-.6l-.8.2q-.4.2-.6.7v4h-1v-5.6zm9.2 4.9q-.3.4-.7.6-.4.3-1 .3l-.8-.2-.6-.4-.4-.7-.1-1.1V302h1v4.2q0 .3.2.4l.4.3h.5q.6 0 1-.2.3-.2.5-.6v-4h1v5.6h-1v-.8zm3.2-4.9v.6l.5-.5q.2-.2.6-.2.8 0 1 .6l.5-.4q.3-.2.7-.2.6 0 1 .4.3.4.3 1.2v4.2h-1v-4.3q0-.7-.6-.7h-.3l-.2.2-.1.2-.1.2v4.4h-1V303q-.2-.2-.5-.2t-.5.2l-.3.3v4.5h-.9V302h.9zm8.4 5.8q-.6 0-1-.2-.6-.2-1-.6l-.5-.9-.2-1v-.3q0-.6.3-1.2l.5-.9.8-.6 1-.2q.6 0 1 .3l.8.5.5 1 .1 1v.4h-4l.1.8.4.6.6.4h.7l.9-.1q.4-.2.7-.6l.5.5q0 .2-.3.4l-.5.4-.6.2h-.8zm-.1-5h-.6l-.4.3-.4.5-.2.7h3v-.6l-.3-.5-.4-.3q-.3-.2-.7-.2zm7.7-.9h.6l.2.1h.2l-.1 1h-.5l-.6-.1q-.6 0-1 .3-.5.3-.7.9v3.6h-1V302h1v1q.3-.5.8-.8.5-.3 1.1-.3zm6.4 5.8v-.3l-.1-.3-.4.2q-.1.2-.4.3l-.4.1H834l-.6-.4q-.3-.2-.4-.5-.2-.3-.2-.7 0-.5.2-.8l.5-.6.8-.3 1.1-.1h1v-.9l-.3-.4-.4-.2h-1.1l-.4.2-.2.3-.1.3h-1l.2-.6q.1-.3.4-.5.3-.3.7-.4l1-.1h.9l.7.4.4.6.2.8v3.3l.2.5zm-1.7-.8h.5l.5-.2.3-.3.3-.3V305h-1q-.8 0-1.3.3-.4.2-.4.8v.4l.3.3.3.2h.5zm9.2-2q0 .6-.2 1.1-.1.6-.4 1-.3.4-.7.6-.4.2-1 .2-.5 0-.9-.2t-.6-.6v.7h-1v-8h1v3l.6-.6q.4-.2 1-.2l1 .2.6.6q.3.4.4 1 .2.5.2 1.1v.1zm-1 0v-.9l-.3-.6-.5-.5q-.3-.2-.7-.2l-.4.1-.4.2-.3.3-.2.3v2.5q0 .2.2.3l.3.3.4.2h.4l.7-.1.5-.5q.2-.2.2-.6l.1-.8zm2.8-5.2h2.8v7.1h1.9v.9H846v-.9h1.9v-6.3h-2v-.8zm8.7 8l-1.1-.1q-.5-.2-.8-.6-.4-.4-.6-.9l-.2-1v-.3l.2-1.2q.2-.5.6-.9l.8-.6 1-.2q.6 0 1 .3l.8.5q.3.4.4 1 .2.4.2 1v.4h-4l.1.8.4.6.5.4h.7l1-.1q.4-.2.6-.6l.6.5-.3.4-.5.4-.7.2h-.7zm-.1-5l-.6.1-.4.3q-.3.2-.4.5l-.2.7h3v-.6l-.3-.5-.5-.3-.6-.2z" class="h"/><path d="M859.8 299.1h2v10.3h-2v-.8h1.2v-8.7h-1.2v-.8zm6.4 0h2v10.3h-2v-.8h1.2v-8.7h-1.2v-.8zm6.9 8v-.2q0-.2.2-.3l.2-.1.3-.1h.4l.2.2.1.3v.5l-.1.3-.2.1h-.7l-.2-.1-.2-.3v-.3zm0-5v-.2q0-.2.2-.3l.2-.1.3-.1h.4l.2.2.1.3v.5l-.1.3-.2.1h-.7l-.2-.1-.2-.3v-.3z" class="b"/><path d="M886.5 300.8v1.3h2.1v.8h-2.1v3.6l.3.3q.1.2.3.2h1.4l.2-.1.1.7-.3.1h-.3l-.5.1h-1.1l-.6-.4-.4-.6-.1-.9v-3H884v-.8h1.5v-1.3zm7.8 1.2h.5l.3.1h.2l-.2 1h-.5l-.5-.1q-.7 0-1.1.3-.4.3-.6.9v3.6h-1V302h1v1q.3-.5.8-.8.5-.3 1-.3zm6.3 5q-.2.4-.7.6-.4.3-1 .3-.4 0-.7-.2-.4-.1-.6-.4-.3-.3-.4-.7-.2-.5-.2-1.1V302h1v4.2l.3.4.3.3h.5q.6 0 1-.2.3-.2.5-.6v-4h1v5.6h-1v-.8zm5.3.9q-.6 0-1.1-.2-.5-.2-.9-.6l-.5-.9-.2-1v-.2q0-.7.2-1.3.2-.5.6-.9.3-.4.8-.6l1-.2q.5 0 1 .3.5.2.7.5.4.4.5 1 .2.4.2 1v.4h-4v.8l.4.6.6.4.7.1 1-.2.6-.5.6.4-.4.4-.5.4-.6.2-.7.1zm-.2-5h-.5q-.3.1-.5.4l-.3.5-.2.6h3l-.1-.6-.3-.5-.4-.3q-.3-.2-.7-.2z" class="l"/><path d="M785.3 314.9H784v8.7h1.2v.8h-2.1v-10.3h2zm6.3 0h-1.1v8.7h1.1v.8h-2v-10.3h2z" class="b"/><path d="M799.6 320.5q0 .5-.3 1l-.5.7-.8.5q-.4.2-1 .2l-.9-.1-.6-.4q-.3-.2-.5-.6-.3-.3-.4-.7l-.2-.7v-2.8l.2-.8.4-.6q.2-.4.5-.6l.7-.4.8-.1q.6 0 1 .2l.8.5.5.7.3 1h-1l-.2-.6q0-.3-.3-.5l-.4-.4-.7-.1h-.6l-.4.4-.4.4-.2.6v3.4l.2.5.4.5.4.3h1.3l.4-.4.3-.5.2-.6h1zm1.2-.6q0-.6.2-1.1.1-.5.5-1l.8-.5q.4-.2 1-.2t1.1.2q.5.2.8.6.4.4.5.9.2.5.2 1.1v.1q0 .6-.2 1.1-.1.6-.5 1-.3.4-.8.6l-1 .2q-.6 0-1.1-.2l-.8-.6q-.4-.4-.5-1l-.2-1zm1 .1v.8l.4.7q.2.3.5.4.2.2.7.2.4 0 .6-.2.3-.1.5-.4l.3-.7.2-.8-.1-.9-.3-.6-.5-.5q-.3-.2-.7-.2-.5 0-.8.2l-.4.5-.3.6-.1.8zm6.5-2.9v.9q.4-.5.8-.7.5-.3 1-.3t.8.2q.4 0 .6.4.3.2.4.6.2.4.2 1v3.6h-1v-4.2l-.3-.4-.4-.3h-.6q-.5 0-.8.2-.4.2-.6.7v4h-1v-5.6h.9zm7 5.7v-5h-1.6v-.7h1.6v-.4l.1-1 .5-.6q.3-.3.7-.4.4-.2.9-.2l.7.1.6.1v.8h-.6l-.6-.1q-.7 0-1 .3-.3.3-.3 1v.4h2.1v.8h-2.1v4.9zm5.1-5.7h2.9v4.8h1.8v.9h-4.7v-.9h2v-4h-2v-.8zm1.8-1.4l.1-.4q.2-.2.5-.2l.4.2.1.4-.1.4-.4.1-.5-.1-.1-.4zm4.3 4.2l.1-1.1.5-1 .7-.5q.4-.3.9-.3l1 .2.6.6v-.7h1v5.5q0 .6-.3 1-.1.5-.5.8-.3.3-.7.4-.4.2-1 .2h-.5l-.5-.2-.6-.3q-.3-.2-.4-.5l.5-.6.3.4.4.2.4.2h1l.4-.4.3-.4q.2-.3.2-.7v-.5l-.7.5q-.4.2-.9.2l-1-.2-.6-.6-.5-1-.1-1zm1 .1v.8l.3.6.5.5.6.1h.5l.4-.2.2-.2.3-.4v-2.5l-.3-.4-.3-.2-.3-.2h-.4l-.7.1-.5.5-.3.6v.8zm9.2 2q-.3.4-.7.6-.4.3-1 .3l-.8-.2q-.4-.1-.6-.4l-.4-.7-.1-1.1V317h1v4.1q0 .3.2.5l.4.3h.5q.6 0 1-.2.3-.2.4-.6v-4h1v5.6h-.9v-.8zm6.4-5h.6l.2.1h.2l-.1 1h-.6l-.5-.1q-.7 0-1 .3-.5.3-.7.9v3.6h-1V317h1v1q.3-.5.8-.8.5-.3 1.1-.3zm6.4 5.8v-.3l-.1-.3-.4.2q-.1.2-.4.3l-.4.1h-1.3l-.6-.4q-.3-.2-.4-.5-.2-.3-.2-.7 0-.5.2-.8.2-.4.5-.6l.8-.3 1-.1h1.2v-.5l-.1-.4-.3-.4-.4-.2h-1.1l-.4.2-.2.3-.1.3h-1l.2-.6q.1-.3.4-.5.3-.3.7-.4.4-.2 1-.2l.8.2q.5 0 .8.3.3.2.4.6l.2.8v3.2l.2.6zm-1.7-.8h.5l.5-.2.3-.3.3-.3V320h-1q-.8 0-1.3.3-.4.2-.4.8v.3l.3.4.3.2h.5zm9.2-2q0 .6-.2 1.1-.1.6-.4 1l-.7.5q-.4.3-1 .3-.5 0-.9-.2t-.7-.6v.7h-.9v-8h1v3l.6-.6q.4-.2 1-.2.5 0 .9.2t.7.6q.3.4.4 1l.2 1v.2zm-1-.1v-.8l-.3-.6-.5-.5q-.3-.2-.7-.2l-.4.1-.4.2-.3.3-.2.3v2.5q0 .2.2.3l.3.3.4.2h.4l.7-.1.5-.5q.2-.2.2-.6l.1-.8zm2.8-5.1h2.8v7.1h1.9v.9h-4.7v-.9h1.9v-6.3h-2v-.8zm8.7 8l-1.1-.1q-.5-.2-.9-.6l-.5-.9-.2-1v-.3q0-.7.2-1.2l.6-1 .8-.5 1-.2q.6 0 1 .2l.8.6q.3.4.4.9l.2 1v.5h-4l.1.8q.1.3.4.5.2.3.5.4.3.2.7.2.6 0 1-.2t.6-.6l.6.5-.4.4-.4.4-.7.2h-.7zm-.1-5l-.6.1-.5.3-.3.5q-.2.3-.2.7h3v-.6l-.4-.5q-.1-.2-.4-.3l-.6-.2z" class="h"/><path d="M872.6 314.1h2v10.3h-2v-.8h1.2v-8.7h-1.2v-.8zm6.4 0h2v10.3h-2v-.8h1.2v-8.7H879v-.8zm6.9 8v-.2l.1-.3.3-.1.3-.1h.3l.3.2.1.3v.5l-.1.3-.3.1h-.6l-.3-.1-.1-.3v-.3zm0-5v-.2l.1-.3.3-.1.3-.1h.3l.3.2.1.3v.5l-.1.3-.3.1h-.6l-.3-.1-.1-.3v-.3z" class="b"/><path d="M899.3 315.8v1.3h2.1v.8h-2.1v3.6l.3.3q.1.2.3.2h1.4l.2-.1.1.7-.3.1h-.3l-.5.1h-1.1q-.4-.1-.6-.4l-.4-.6-.1-.9v-3h-1.5v-.8h1.5v-1.3zm7.8 1.2h.5l.3.1h.2l-.2 1h-.5l-.5-.1q-.7 0-1.1.3-.4.3-.7.9v3.6h-.9V317h.9v1q.4-.5.9-.8.5-.3 1-.3zm6.3 5l-.7.7q-.4.2-1 .2l-.8-.1-.6-.5-.4-.7v-4.4h.9v4.1l.3.5.3.2h.5q.6 0 1-.2.3-.2.5-.6v-4h1v5.6h-1v-.8zm5.3.9q-.6 0-1.1-.2-.5-.2-.9-.6l-.5-.8q-.2-.5-.2-1.1v-.2q0-.7.2-1.3.2-.5.6-.9.3-.4.8-.5.4-.2 1-.2l1 .2q.4.2.7.6.4.3.5.8l.1 1.1v.4h-4l.2.8.3.6.6.4.7.1 1-.2.6-.5.6.4-.4.4-.5.4-.6.2-.7.1zm-.2-5h-.5q-.3.1-.5.4l-.3.5q-.2.3-.2.7h3v-.1l-.1-.6-.3-.5-.4-.3q-.3-.2-.7-.2z" class="l"/><use class="c m" xlink:href="#g"/><use class="d f" xlink:href="#g"/><path d="M627.6 210.5l-.2-1q-.1-.4-.5-.8l-1.1-.7-1.7-.6-2.4-.9q-1.1-.5-2-1.2-.8-.7-1.4-1.6-.5-1-.5-2.2 0-1.2.5-2.2.5-1 1.4-1.7 1-.7 2.2-1 1.2-.4 2.6-.4 1.5 0 2.7.4 1.3.4 2.1 1.2 1 .8 1.4 1.9.5 1 .5 2.3h-3.5q0-.6-.3-1.2-.2-.5-.6-.9-.4-.4-1-.6-.5-.2-1.3-.2t-1.3.2l-1 .5q-.4.3-.6.7l-.2 1q0 .5.3 1 .3.4.8.7l1.2.7 1.6.5q1.3.4 2.4 1 1.1.5 1.9 1.2.8.8 1.2 1.7.5 1 .5 2.1 0 1.3-.5 2.3-.5 1-1.4 1.6-1 .7-2.1 1-1.3.4-2.7.4-1 0-1.8-.2l-1.7-.5q-.8-.3-1.5-.8t-1.2-1.2q-.5-.7-.8-1.6-.3-.8-.3-1.9h3.6q0 .9.3 1.5.2.6.7 1 .5.4 1.2.6.7.2 1.5.2.7 0 1.3-.2l1-.5.5-.7q.3-.4.3-1zm10-7.2q.6-1 1.6-1.6 1-.6 2.3-.6 1.1 0 2 .3 1 .3 1.6 1 .7.7 1 1.8.4 1.1.4 2.7v8.5H643V207q0-.8-.2-1.3l-.5-1q-.4-.3-.9-.4-.4-.2-1-.2-1 0-1.7.3-.6.4-1 1v10.1H634v-20h3.6zm21.1 12.1l-.2-.6-.2-.7-.7.6-.8.5-1 .3q-.6.2-1.3.2-1 0-2-.3-.9-.4-1.5-1-.7-.5-1-1.3-.4-.7-.4-1.6 0-2.3 1.6-3.5 1.7-1.2 5-1.2h2v-.8q0-1-.7-1.6-.6-.6-1.9-.6-1 0-1.6.4-.5.5-.5 1.3h-3.6q0-.9.4-1.7.4-.8 1.2-1.4.7-.6 1.8-1 1.1-.3 2.5-.3 1.3 0 2.4.3 1.1.3 2 .9.7.6 1.2 1.5.4 1 .4 2.2v6q0 1.2.2 2 .1.7.4 1.2v.2zm-3.4-2.5l1-.1.8-.4.7-.5q.3-.2.4-.5V209h-1.8l-1.5.1-1 .5-.5.7q-.2.4-.2.9 0 .7.5 1.2t1.6.5zm23.3-4.4q0 1.5-.4 2.8-.4 1.4-1 2.3-.7 1-1.8 1.5-1 .6-2.3.6-1.2 0-2-.4-.9-.4-1.5-1.1v6.6H666v-19.5h3.3l.1 1.4q.7-.8 1.6-1.2.9-.4 2-.4 1.4 0 2.4.5t1.7 1.4q.8 1 1.1 2.3.4 1.3.4 3zm-3.6-.3q0-.9-.2-1.6l-.5-1.4q-.3-.5-.9-.9-.5-.3-1.3-.3-1 0-1.6.4-.6.3-1 1v6q.4.6 1 1t1.6.4q.8 0 1.3-.4.6-.3 1-.9.3-.6.4-1.3.2-.8.2-1.7v-.3zm13.8 7.5q-1.7 0-3-.6-1.3-.5-2.3-1.4-1-1-1.4-2.2-.6-1.2-.6-2.6v-.6q0-1.6.5-2.9.6-1.3 1.5-2.3.9-1 2.1-1.5 1.3-.5 2.8-.5 1.5 0 2.7.5 1.2.5 2 1.4.8.9 1.2 2.2.5 1.3.5 2.8v1.5h-9.6q.1.8.4 1.3l.8 1q.5.5 1.2.7.6.3 1.4.3l1-.1 1-.3 1-.5.7-.7 1.8 2-1 .9q-.4.4-1.2.8l-1.6.5q-1 .3-2 .3zm-.5-11.7q-.6 0-1.1.2l-1 .6-.5 1q-.3.5-.4 1.2h5.9v-.2q0-.6-.2-1.1-.2-.5-.6-.9-.4-.4-.9-.6-.5-.2-1.2-.2zm-45.9 30.3l.2-2.4q.2-1.1.6-2 .3-1 .8-1.8.4-.8 1-1.4.4-.6 1-1 .5-.5 1-.7l.5 1.4-1 1q-.6.7-1 1.7t-.6 2.2q-.3 1.3-.3 3v.3q0 1.6.3 3 .2 1.2.6 2.2.4 1 1 1.7l1 1-.5 1.4q-.5-.2-1-.7-.6-.4-1-1-.6-.6-1-1.4-.5-.8-.8-1.7-.4-1-.6-2.1-.2-1.2-.2-2.5zm13.9-1.4l2.2-3h2.7l-3.3 4.8 3.4 5h-2.7l-2.3-3.2-2.3 3.2h-2.7l3.4-5-3.3-4.8h2.7l2.2 3zm13.4 1.6q0 1.3-.2 2.4l-.5 2-.8 1.8-1 1.5-1 1q-.6.5-1.2.7l-.4-1.4 1-1q.5-.7.9-1.7l.7-2.3q.2-1.3.2-3v-.2q0-1.7-.2-3l-.7-2.3q-.4-1-1-1.6-.4-.7-1-1l.5-1.4q.6.2 1.1.6.6.5 1 1.1.6.6 1 1.4l.9 1.8.5 2 .2 2.4z" class="g"/><use class="c n" xlink:href="#o"/><use class="d f" xlink:href="#o"/><path d="M642 272.8l-.2 4.3h-1.6v-5.6h1.8zm14 8.7l3.5-4.7h2.5l-4.7 6.3 4.8 6.4h-2.5l-3.5-4.8-3.5 4.8h-2.5l4.8-6.4-4.7-6.3h2.5zm14.8-8.7l-.2 4.3H669v-5.6h1.8v1.3z" class="e"/><g class="f k"><path d="M705.7 281.2l36.7-3.7" class="d i"/><g fill="#666"><path d="M692.6 282.5a6.6 6.6 0 1113.1-1.3 6.6 6.6 0 01-13 1.3z"/><path d="M743 284l17.5-8.4-18.8-4.7z" class="c"/></g></g><use class="c m" xlink:href="#m"/><use class="d f" xlink:href="#m"/><path d="M627.6 43.1l-.2-1q-.1-.4-.5-.7l-1.1-.7q-.7-.4-1.7-.6l-2.4-.9q-1.1-.5-2-1.2-.8-.7-1.4-1.7-.5-1-.5-2.2 0-1.2.5-2.1.5-1 1.4-1.7 1-.7 2.2-1 1.2-.4 2.6-.4 1.5 0 2.7.4 1.3.4 2.1 1.2 1 .8 1.4 1.8.5 1.1.5 2.4h-3.5q0-.7-.3-1.2-.2-.5-.6-.9-.4-.4-1-.6-.5-.2-1.3-.2t-1.3.2q-.6.1-1 .5-.4.3-.6.7-.2.4-.2 1 0 .5.3 1 .3.4.8.7l1.2.6 1.6.6 2.4.9q1.1.5 1.9 1.3.8.7 1.2 1.7.5 1 .5 2.1 0 1.3-.5 2.2-.5 1-1.4 1.7-1 .6-2.1 1-1.3.3-2.7.3l-1.8-.1-1.7-.5-1.5-.9q-.7-.5-1.2-1.2-.5-.6-.8-1.5-.3-.9-.3-1.9h3.6q0 .9.3 1.5.2.6.7 1 .5.4 1.2.6l1.5.1 1.3-.1 1-.5.5-.7q.3-.5.3-1zm10-7.2q.6-1 1.6-1.6 1-.6 2.3-.6 1.1 0 2 .4 1 .3 1.6 1 .7.7 1 1.8.4 1.1.4 2.7V48H643v-8.6q0-.7-.2-1.3l-.5-.9-.9-.5-1-.1q-1 0-1.7.3-.6.3-1 1v10H634V28h3.6v8zm21.1 12.2l-.2-.6q0-.4-.2-.7l-.7.6-.8.5-1 .3-1.3.1q-1 0-2-.3-.9-.3-1.5-.9-.7-.5-1-1.3-.4-.8-.4-1.7 0-2.2 1.6-3.4 1.7-1.2 5-1.2h2v-.9q0-1-.7-1.6-.6-.6-1.9-.6-1 0-1.6.5-.5.5-.5 1.3h-3.6q0-1 .4-1.7.4-.8 1.2-1.4.7-.6 1.8-1t2.5-.4q1.3 0 2.4.3 1.1.4 2 1 .7.6 1.2 1.5.4 1 .4 2.2v6q0 1.1.2 1.9.1.7.4 1.3v.2zm-3.4-2.6h1l.8-.4.7-.5.4-.5v-2.5h-1.8q-.9 0-1.5.2l-1 .4-.5.8-.2.8q0 .8.5 1.3.5.4 1.6.4zm23.3-4.3q0 1.5-.4 2.8-.4 1.3-1 2.3-.7 1-1.8 1.5-1 .5-2.3.5-1.2 0-2-.4-.9-.3-1.5-1v6.6H666V34h3.3l.1 1.4q.7-.8 1.6-1.2.9-.5 2-.5 1.4 0 2.4.5 1 .6 1.7 1.5.8 1 1.1 2.3.4 1.3.4 2.9zm-3.6-.3q0-.9-.2-1.7l-.5-1.3q-.3-.6-.9-1-.5-.2-1.3-.2-1 0-1.6.3-.6.4-1 1v6q.4.6 1 1t1.6.4q.8 0 1.3-.3.6-.3 1-.9.3-.6.4-1.4l.2-1.6v-.3zm13.8 7.4q-1.7 0-3-.5t-2.3-1.4q-1-1-1.4-2.2-.6-1.2-.6-2.7V41q0-1.6.5-3 .6-1.3 1.5-2.2.9-1 2.1-1.5 1.3-.6 2.8-.6 1.5 0 2.7.5 1.2.5 2 1.5.8.9 1.2 2.1.5 1.3.5 2.9v1.5h-9.6q.1.7.4 1.3l.8 1q.5.5 1.2.7.6.2 1.4.2h1l1-.4 1-.5.7-.7 1.8 2-1 1q-.4.4-1.2.7-.7.4-1.6.6l-2 .2zm-.5-11.6q-.6 0-1.1.2l-1 .6-.5 1q-.3.5-.4 1.2h5.9v-.3q0-.6-.2-1-.2-.6-.6-1l-.9-.5q-.5-.2-1.2-.2zM620 67q0-1.3.2-2.4.2-1.2.6-2.1.3-1 .8-1.8.4-.8 1-1.4.4-.6 1-1l1-.7.5 1.4-1 1q-.6.7-1 1.7t-.6 2.3q-.3 1.3-.3 3v.2q0 1.7.3 3 .2 1.3.6 2.3.4 1 1 1.6.5.7 1 1l-.5 1.5-1-.7q-.6-.4-1-1-.6-.6-1-1.4-.5-.8-.8-1.8l-.6-2q-.2-1.2-.2-2.5V67zm14.2 5.6q-1.2 0-2.1-.4-1-.4-1.6-1-.7-.6-1-1.5-.4-.9-.4-1.9v-.4q0-1 .4-2 .3-1 1-1.6.6-.7 1.5-1 .9-.4 1.9-.4 1 0 1.9.3.8.4 1.4 1 .6.6.9 1.5.3 1 .3 2v1h-6.7q0 .6.3 1 .2.4.6.7l.7.5 1 .2.8-.1.7-.2.6-.4.5-.5 1.3 1.4-.6.6q-.4.4-1 .6-.4.3-1 .4l-1.4.2zm-.3-8.2q-.5 0-.8.2-.4.1-.6.4l-.5.7-.3.8h4.2v-.2q0-.4-.2-.7-.1-.4-.4-.6-.2-.3-.6-.4l-.8-.2zm8.3-1.9v1.2q.3-.6.8-1 .5-.3 1.2-.3 1.2 0 1.6 1 .3-.5.7-.8.5-.2 1.1-.2l.8.1q.4.2.7.6.3.3.5.9l.1 1.4v7h-2.3v-7.5q0-.2-.2-.3l-.2-.1h-.8l-.2.4v7.5h-2.3v-7.5q0-.2-.2-.3l-.2-.1h-.7l-.3.5v7.4H640v-9.9h2.2zm18.4 5q0 1.1-.2 2-.3 1-.8 1.6-.4.7-1.2 1.1-.7.4-1.6.4-.8 0-1.4-.3-.6-.3-1-.8v4.7h-2.6V62.5h2.4v1q.5-.5 1.1-.8.7-.3 1.5-.3 1 0 1.6.3.8.4 1.2 1 .5.7.8 1.6l.2 2zm-2.5-.1l-.1-1.2-.4-1-.6-.6q-.4-.2-.9-.2-.7 0-1 .3-.5.2-.7.7v4.1q.2.5.6.8.4.2 1.1.2l1-.2q.3-.2.5-.6l.4-1 .1-1.2zm9.5-7.3v2.4h3.7v2h-3.7v4.1l.1 1 .4.5.6.3.7.1h1.2l.5-.2h.4l.2 1.7-.6.3-.7.1-.9.1h-.8l-1.5-.1q-.7-.2-1.1-.7-.5-.4-.8-1.1-.2-.7-.2-1.7v-4.5h-2.3v-1.9h2.3v-2.4zm10.8 8.2l.3 1 2.6-6.8h2.8l-5 11.4-.4.8-.7.8q-.4.4-1 .6-.5.3-1.3.3h-.6l-.3-.1-.3-.1.3-2h.8l.5-.1.4-.4.3-.4.2-.2.6-1.1-4.2-9.5h2.8zm13.7-1q0 1.2-.2 2.3l-.5 2-.8 1.8-1 1.4q-.5.7-1 1.1l-1.1.7-.5-1.4 1-1q.5-.7.9-1.7l.7-2.3q.2-1.3.2-3V67q0-1.7-.2-3l-.7-2.3q-.4-1-1-1.6-.4-.7-1-1l.6-1.4 1 .6 1 1q.6.7 1 1.5l.9 1.8.5 2 .2 2.4z" class="g"/><path d="M675.7 128.6l-.2 3.3h-1.2v-4.3h1.4zm11 6.8l2.6-3.7h2l-3.7 4.9 3.7 5h-2l-2.6-3.8-2.8 3.8h-2l3.8-5-3.6-4.9h2l2.5 3.7zm11.4-6.8l-.2 3.3h-1.2v-4.3h1.4z" class="e"/><g stroke-width="2" class="f"><path d="M656 95.6v75" class="d i"/><path fill="#666" d="M659.4 95.6l-3.3-9-3.3 9zm-6.6 75l3.3 9.2 3.3-9.1z" class="c"/><path d="M656 322.8v75.5" class="d i"/><path fill="#666" d="M659.3 322.8l-3.3-9-3.3 9zm-6.6 75.5l3.3 9 3.3-9z" class="c"/></g><use class="c m" xlink:href="#h"/><use class="d f" xlink:href="#h"/><path d="M627.5 435l-.2-1q-.1-.4-.6-.7l-1-.7q-.7-.4-1.7-.6l-2.4-.9q-1.1-.5-2-1.2-.8-.7-1.4-1.7-.5-1-.5-2.2 0-1.2.5-2.1.5-1 1.4-1.7 1-.7 2.2-1 1.2-.4 2.6-.4 1.5 0 2.7.4 1.2.4 2.1 1.2 1 .8 1.4 1.8.5 1.1.5 2.4h-3.5q0-.6-.3-1.2-.2-.5-.6-.9-.4-.4-1-.6-.6-.2-1.4-.2-.7 0-1.2.2-.6.1-1 .5-.4.3-.6.7-.2.4-.2 1 0 .5.3 1l.7.7 1.3.6 1.6.5q1.3.4 2.4 1 1.1.5 1.9 1.3.8.7 1.2 1.7.5 1 .5 2.1 0 1.3-.6 2.2-.5 1-1.4 1.7-.8.6-2 1-1.3.3-2.7.3l-1.8-.1-1.7-.5-1.5-.9q-.7-.5-1.3-1.2-.5-.6-.8-1.5-.3-.9-.3-2h3.6q0 1 .3 1.6.3.6.8 1t1.2.6l1.5.1 1.3-.1 1-.5.5-.7.2-1zm10-7.2q.6-1 1.6-1.6 1-.6 2.3-.6 1.1 0 2 .4 1 .3 1.6 1 .7.7 1 1.8.4 1.1.4 2.7v8.5h-3.6v-8.6q0-.7-.2-1.3l-.5-.8q-.4-.4-.9-.5l-1-.2q-1 0-1.7.3-.6.3-1 1v10h-3.7v-20h3.6zm21.1 12.2l-.2-.6-.2-.7-.7.6-.8.5-1 .3-1.3.1q-1 0-2-.3-.9-.3-1.6-.8-.6-.6-1-1.4-.3-.8-.3-1.7 0-2.2 1.6-3.4 1.7-1.2 5-1.2h2v-.9q0-1-.7-1.6-.6-.6-1.9-.6-1 0-1.6.5-.5.5-.5 1.3h-3.6q0-1 .4-1.7.4-.8 1.1-1.4.8-.6 1.9-1 1.1-.4 2.5-.4 1.3 0 2.4.4 1.1.3 1.9.9.8.6 1.3 1.5.4 1 .4 2.2v6q0 1.1.2 2l.4 1.2v.2h-3.7zm-3.4-2.5l1-.2.8-.3.7-.5.4-.5v-2.5h-1.8q-.9 0-1.5.2l-1 .5-.5.7q-.2.4-.2.9 0 .7.5 1.2t1.6.5zm23.3-4.4q0 1.5-.4 2.8-.4 1.3-1 2.3-.8 1-1.8 1.5t-2.3.5q-1.2 0-2-.4-.9-.3-1.5-1v6.6h-3.6v-19.5h3.3l.1 1.4q.7-.8 1.6-1.2.9-.5 2-.5 1.4 0 2.4.5 1 .6 1.7 1.5.7 1 1.1 2.3.4 1.3.4 2.9v.3zm-3.6-.3q0-.9-.2-1.7l-.5-1.3q-.4-.6-1-.9-.5-.3-1.2-.3-1 0-1.6.3-.6.4-1 1v6q.4.6 1 1 .6.5 1.6.5.8 0 1.3-.4.5-.3.9-.9l.5-1.4.1-1.6zm13.7 7.5q-1.6 0-3-.6-1.2-.5-2.2-1.4-1-1-1.5-2.2-.5-1.2-.5-2.7v-.5q0-1.6.5-3 .5-1.3 1.5-2.2.9-1 2.1-1.5 1.3-.6 2.7-.6 1.6 0 2.7.5 1.2.5 2 1.5.9.9 1.3 2.2.5 1.2.5 2.8v1.5H685q.1.7.4 1.3l.8 1q.5.5 1.2.7.6.2 1.4.2h1q.6-.1 1-.4l1-.5.7-.7 1.8 2-1 1q-.4.4-1.2.8l-1.6.5q-1 .3-2 .3zm-.4-11.7q-.6 0-1.1.2l-1 .6-.6 1-.4 1.2h6v-.3l-.2-1q-.2-.6-.6-1l-.9-.5q-.5-.2-1.2-.2zm-41 25.8l.1-1.5.4-1.4.5-1 .6-1 .7-.7.6-.4.3 1-.6.6q-.4.4-.6 1-.3.7-.4 1.5-.2.9-.2 2 0 1.2.2 2 .1.9.4 1.5.2.6.6 1l.6.7-.3.9-.6-.4-.7-.7-.6-.9-.5-1.1-.4-1.4-.1-1.5zm9-.9l1.3-2h1.8l-2.2 3.2 2.2 3.2h-1.7l-1.5-2-1.4 2h-1.8l2.2-3.2-2-3.1h1.7zm8.5 1v1.6l-.4 1.3-.6 1.2q-.2.5-.6.9-.3.4-.7.6l-.7.5-.3-1q.4-.2.7-.6l.6-1 .4-1.5q.2-.9.2-2 0-1.2-.2-2l-.4-1.5-.6-1q-.3-.5-.7-.7l.3-.9q.4.1.7.4l.7.7q.4.4.6 1l.6 1 .3 1.4.1 1.5zM601 468.9l1.4 2.3h-1l-1.7-2.2v-.1l1.6-2.3h1l-1.3 2.3zm2 0l1.4 2.3h-1l-1.7-2.2v-.1l1.6-2.3h1l-1.3 2.3zm4.9-3.2v.8l.9-.7q.5-.3 1-.3l1 .2.6.4.5.8.1 1.2v3.9h-1.6v-4.6l-.3-.4-.4-.2h-.5l-.7.1-.5.5v4.5h-1.6v-6.4h1.5zm5.5 3l.2-1.2.5-1q.4-.5 1-.7.5-.3 1.3-.3.7 0 1.2.3.6.2 1 .7.4.4.6 1 .2.6.2 1.3 0 .8-.2 1.4-.2.6-.6 1l-1 .7q-.5.2-1.2.2t-1.3-.2l-1-.7-.5-1q-.2-.6-.2-1.3zm1.6.2v.7l.3.6.4.5.7.1.6-.1.4-.5q.2-.2.2-.6l.1-.7v-.9l-.3-.6-.4-.4-.6-.1-.7.1-.4.4-.2.6-.1.8zm7.3-3.2v.8l.9-.7q.5-.3 1-.3l1 .2.6.4.5.8q.2.5.2 1.2v3.9h-1.7v-4.6l-.3-.4-.4-.2h-.5l-.7.1-.5.5v4.5h-1.6v-6.4zm11.4 3.2h-4.9v-1.3h5zm4.6 3.2q-.8 0-1.4-.2l-1-.7q-.4-.4-.6-1-.3-.5-.3-1.2v-.2q0-.7.3-1.3.2-.6.6-1 .4-.5 1-.7.5-.3 1.2-.3t1.2.3q.6.2 1 .6l.5 1q.2.6.2 1.3v.7h-4.3q0 .3.2.5l.3.5.6.3.6.1h.5l.4-.2.4-.2.4-.3.8.9-.4.4-.6.3-.7.3-1 .1zm-.2-5.2h-.5l-.4.3-.3.5-.2.5h2.7v-.1l-.1-.5q0-.2-.3-.4-.1-.2-.4-.3h-.5zm7.2.7l1.4-2h1.8l-2.2 3.2 2.2 3.2h-1.7l-1.5-2-1.4 2H642l2.2-3.2-2-3.1h1.7l1.3 2zm7.3-3.5v1.6h2.4v1.2h-2.4v3.1l.3.3q.1.2.4.2h1.7l.1 1-.4.2-.5.1h-.5l-.5.1-1-.1-.7-.5q-.3-.2-.5-.7l-.1-1v-3h-1.5v-1.2h1.5V464h1.6zm7.3 8l-1.4-.2-1-.7q-.4-.4-.6-1-.3-.5-.3-1.2v-.2q0-.7.3-1.3.2-.6.6-1 .4-.5 1-.7.5-.3 1.2-.3t1.2.3q.6.2 1 .6l.5 1q.2.6.2 1.3v.7h-4.3q0 .3.2.5l.3.5.6.3.6.1h.5l.4-.2.4-.2.4-.3.8.9-.4.4-.6.3-.7.3-1 .1zm-.2-5.2h-.5l-.4.3-.3.5-.2.5h2.7v-.1l-.1-.5q0-.2-.3-.4-.1-.2-.4-.3h-.5zm5.8-1.2v.8l1-.7q.4-.3 1-.3.5 0 .8.2.5.1.7.4l.5.8q.2.5.2 1.2v3.9H668v-4.6l-.3-.4-.4-.2h-.5l-.7.1-.5.5v4.5H664v-6.4zm9.8 4.6v-.3l-.3-.2-.5-.2-.7-.2q-.6 0-1-.2l-.8-.4-.5-.6q-.2-.3-.2-.7l.2-.8.5-.6q.4-.3.9-.4.5-.2 1.1-.2.7 0 1.2.2l1 .4.5.6q.2.4.2.9h-1.7q0-.4-.3-.6-.3-.3-.9-.3-.5 0-.8.2-.3.2-.3.5v.3l.2.2.4.2.7.1 1 .3q.6 0 1 .3.3.2.5.6.2.3.2.8l-.2.8-.6.6-.9.4-1.2.1q-.7 0-1.2-.2l-1-.5-.5-.7-.2-.7h1.6l.1.4.3.3.5.2h.5q.6 0 .9-.2.3-.2.3-.5zm3.6-4.6h3.4v5h1.7v1.3h-5.2v-1.3h1.8V467h-1.8zm1.6-1.7l.1-.3q0-.2.2-.3l.3-.2h.4q.4 0 .7.2l.2.6q0 .4-.2.7-.3.2-.7.2h-.4l-.3-.2-.2-.3v-.4zm10.8 4.9l-.1 1.3-.5 1q-.3.4-.8.7-.4.2-1 .2t-1-.2q-.4-.2-.7-.6v.7h-1.6v-9h1.7v3.2q.2-.3.6-.5.4-.2 1-.2.5 0 1 .3.5.2.8.6l.5 1 .1 1.4zm-1.6-.1v-.8l-.3-.6-.4-.4-.6-.1q-.4 0-.7.2-.3.1-.4.5v2.5q.1.3.4.5.3.2.7.2l.6-.1.4-.4.2-.6v-.9zm3.5-5.8h3.5v7.7h1.8v1.3h-5.3v-1.3h1.8v-6.4h-1.9zm9.9 9.1q-.7 0-1.3-.2l-1-.7q-.5-.4-.7-1-.3-.5-.3-1.2v-.2q0-.7.3-1.3.2-.6.6-1 .4-.5 1-.7.6-.3 1.2-.3.7 0 1.2.3.6.2 1 .6l.5 1q.2.6.2 1.3v.7h-4.3q0 .3.2.5.1.3.4.5l.5.3.6.1h.5l.4-.2.4-.2.4-.3.8.9-.4.4-.6.3-.7.3-.9.1zm-.2-5.2h-.5l-.4.3-.3.5-.2.5h2.7v-.1l-.1-.5-.2-.4-.5-.3h-.5zm5.8-.3l1.6 2.3-1.6 2.3h-1l1.4-2.3-1.5-2.3h1zm2 0l1.6 2.3-1.6 2.3h-1l1.4-2.3-1.5-2.3h1z" class="g"/><path fill="#ff0" d="M665.6 349.5H819V372H665.6z"/><path d="M676.2 360.2l-.2 1-.3.9-.4.9-.5.8q-.3.4-.7.6-.4.2-1 .2-.5 0-.8-.3-.3-.3-.4-.9l-.4.5-.5.3-.4.3h-.6l-.6-.1q-.3-.2-.4-.5-.2-.2-.2-.6l-.1-.6V361.4l.3-1 .3-1 .5-1 .7-.8.9-.5q.4-.2 1-.2 1 0 1.6.9l-1 4.6-.1.3v.7l.4.2q.4 0 .6-.2l.5-.5.3-.6.3-.8v-.7l.2-.6v-2.1q0-.6-.2-1l-.5-.9q-.3-.4-.8-.6l-1.1-.3q-.8 0-1.4.3-.7.2-1.2.7-.6.4-1 1l-.7 1.3-.6 1.3-.3 1.3-.1 1.2v1.2q0 .6.3 1 .1.6.5 1l.9.6q.5.2 1.2.2.6 0 1-.2.6-.1 1.1-.4l.2 1.1-1.1.5-1.2.2q-1 0-1.6-.3l-1.1-.7-.8-1-.4-1.4-.1-1.4.1-1.5.4-1.6.7-1.7.9-1.5q.5-.7 1.2-1.2.6-.5 1.4-.8.8-.3 1.7-.3.8 0 1.4.3l1 .7q.5.5.7 1l.4 1.3.1 1.4v1.4zm-6.3 1.2v1.5q0 .2.2.3l.3.1h.5l.4-.3.3-.3.3-.4 1-4.1-.2-.1h-1l-.6.5-.5.6-.3.8-.2.7-.2.7zm10.4-3.8l-.2 1.5.7-.7.7-.5.9-.4h1q.7 0 1.3.3.6.3.9.8.3.5.4 1.2v1.4l-1 6.3h-1.6l1-6.3v-.9q0-.4-.2-.7-.2-.4-.6-.5-.3-.2-.9-.2h-.8l-.7.4-.6.5-.6.6-1.2 7h-1.7l1.8-9.8h1.4zm8.2 5q0-.8.3-1.4l.5-1.2q.3-.6.8-1 .4-.5 1-.9l1-.5q.7-.2 1.5-.2 1 0 1.7.5.8.4 1.2 1.1.5.7.6 1.6.2 1 0 1.8v.2q0 1-.5 2-.4.9-1 1.6-.7.7-1.5 1-1 .5-2 .5t-1.8-.5q-.7-.4-1.1-1-.5-.8-.6-1.7-.2-.8-.1-1.8zm1.6.1v1.6l.3.8.4.6.6.4q.3.2.8.2.8 0 1.3-.3.6-.3 1-.9.5-.5.7-1.2l.3-1.3v-1.4q0-.6-.2-1.1-.2-.6-.7-1-.4-.3-1.1-.3-.8 0-1.4.3-.5.3-1 .9l-.6 1.2-.3 1.3zm12.1-5l-.2 1.4.7-.7.7-.5.9-.3q.4-.2 1-.2.7 0 1.3.4.6.3.9.8l.5 1.2v1.4l-1 6.3h-1.7l1-6.3v-.9q0-.4-.2-.7l-.5-.5q-.4-.2-1-.2h-.8l-.7.4-.6.5-.6.6-1.2 7h-1.6l1.7-9.8zm12.1 10q-1 0-1.7-.5-.8-.4-1.3-1t-.7-1.5q-.2-.8-.1-1.8v-.4l.3-1.3.6-1.2.7-1 1-.8q.5-.4 1.2-.6.6-.2 1.3-.2 1 0 1.7.5.7.4 1.1 1 .5.7.6 1.6v2.5h-7v1.2l.5 1q.3.5.7.8l1.2.3q.8 0 1.6-.4.7-.3 1.3-1l1 .9-.9.8-1 .6-1 .3-1.2.1zm1.2-8.9q-.6 0-1.1.2l-1 .7-.6.9-.5 1h5.1q.2-.6 0-1 0-.5-.3-1-.2-.3-.6-.5-.4-.3-1-.3zm10.4 2.5l3.1-3.7h2l-4.3 5 2.8 4.9h-1.8l-2-3.8-3.2 3.8h-2l4.4-5-2.7-4.9h1.8l2 3.7zm12-6l-.4 2.3h3.6l-.2 1.3h-3.6l-1 5.4v.7l.3.6q.1.3.4.5l.7.1h1l1-.3.2 1.2q-.6.4-1.3.5h-1.3q-.8 0-1.3-.2-.5-.3-.8-.8-.3-.4-.4-1v-1.3l.8-5.4h-2.5l.2-1.3h2.5l.5-2.4h1.6zm9.3 12.4q-1 0-1.8-.5-.7-.4-1.2-1t-.8-1.5q-.2-.8 0-1.8v-.4q0-.6.3-1.3l.5-1.2.8-1q.4-.5 1-.8.5-.4 1.1-.6l1.4-.2q1 0 1.7.5.7.4 1 1 .5.7.6 1.6.2.9 0 1.8v.7H745v1.2q0 .6.4 1 .3.5.8.8l1.1.3q.9 0 1.6-.4.7-.3 1.3-1l1 .9-.8.8-1 .6-1 .3-1.2.1zm1.2-8.9q-.7 0-1.2.2l-.9.7-.7.9-.4 1h5.1v-1q0-.5-.3-1l-.7-.5q-.4-.3-1-.3zm8.6-1.2l-.2 1.5.6-.7.8-.5.8-.3 1-.2q.8 0 1.4.4.5.3.9.8.3.5.4 1.2v1.4l-1 6.3h-1.6l1-6.3v-.9q0-.4-.2-.7-.2-.3-.6-.5-.4-.2-.9-.2h-.8l-.7.4-.7.5-.5.6-1.2 7h-1.7l1.7-9.8h1.5zm14.6 7.2l-.1-.7q-.2-.3-.5-.4l-.7-.3-.7-.2-1.1-.3-1.1-.5-.8-.8q-.3-.5-.3-1.2l.2-1 .5-.7.7-.6.8-.4 1-.2h.9q.7 0 1.3.2l1.1.5q.5.4.8 1 .3.6.3 1.3h-1.7l-.1-.7-.4-.5-.7-.4h-1.5l-.7.3-.6.4q-.2.3-.2.7v.7l.6.4.6.3.7.1.8.2.7.3.8.4.6.5.3.6q.2.4.2.9 0 .8-.5 1.4-.4.5-1 .9l-1.3.5-1.4.2-1.4-.2-1.2-.7q-.6-.4-.9-1-.3-.6-.3-1.4h1.7l.1.9.5.5q.3.3.7.4h1.6l.8-.2q.4-.2.6-.5.3-.3.3-.7zm6-7.2h5L781 366h3.1l-.2 1.5h-8l.2-1.5h3.2l1.3-7h-3.3l.3-1.4zm3.6-2.5q0-.5.2-.8l.8-.3.4.1.3.2.2.3v.4q0 .5-.2.7-.3.3-.8.3-.4 0-.7-.2-.2-.3-.2-.7zm14.4 7.5l-.2 1.2-.5 1.2q-.2.6-.6 1l-.8 1-1.1.5q-.6.2-1.3.2-.8 0-1.5-.4-.6-.3-1-1l-.4 1.2h-1.5l2.4-14h1.7l-1 5.2q.5-.6 1.2-1 .7-.3 1.6-.3.7 0 1.2.3.5.2.8.6.4.3.6.8l.4 1v2.3zm-1.6-.2v-1.2q0-.6-.2-1.1-.2-.5-.6-.9-.4-.3-1.1-.3h-.8l-.7.4-.6.5-.5.6-.7 4.3q.2.7.7 1.1.5.4 1.3.4t1.3-.3q.6-.3 1-.8l.5-1.2.4-1.3zm6.3-9h4.9L803 366h3.1l-.2 1.5h-8l.2-1.5h3.2l2-11H800zm12.6 14.3q-1 0-1.8-.5-.7-.4-1.2-1t-.7-1.5q-.2-.8-.2-1.8v-.4l.4-1.3.5-1.2.8-1q.4-.5 1-.8.5-.4 1.1-.6l1.4-.2q1 0 1.7.5.7.4 1.1 1 .4.7.6 1.6v1.8l-.1.7h-6.8v1.2q.1.6.4 1 .3.5.8.8l1.2.3q.8 0 1.5-.4.8-.3 1.3-1l1 .9-.8.8-1 .6-1 .3-1.2.1zm1.2-8.9l-1.2.2-.9.7q-.4.4-.6.9l-.5 1h5.1v-1q0-.5-.3-1l-.7-.5q-.4-.3-.9-.3z" class="e"/><use fill="#34a853" class="c" xlink:href="#i"/><use class="d f" xlink:href="#i"/><path d="M57.1 366.6h3.7v13.1q0 1.4-.5 2.5t-1.4 2q-.9.7-2 1.2-1.2.4-2.6.4-1.4 0-2.6-.3-1.2-.4-2-1.1-.8-.8-1.3-1.8-.5-1.1-.5-2.6h3.7q0 1.5.6 2.2.7.7 2.1.7.6 0 1.2-.3.5-.2.8-.6.4-.4.6-1 .2-.6.2-1.3zm17 14q0-.5-.3-1-.1-.4-.6-.8l-1-.7-1.8-.6q-1.2-.3-2.3-.8-1.1-.5-2-1.2-.9-.7-1.4-1.7-.5-1-.5-2.2 0-1.2.5-2.2.5-1 1.4-1.6 1-.7 2.1-1 1.3-.5 2.7-.5 1.5 0 2.7.5 1.2.4 2.1 1.2 1 .8 1.4 1.8.5 1 .5 2.4H74q0-.7-.2-1.2l-.6-1-1-.5q-.6-.2-1.4-.2-.7 0-1.3.2l-1 .4-.5.8q-.2.4-.2 1 0 .5.3 1l.7.7 1.3.6 1.6.5q1.3.4 2.4 1 1 .5 1.9 1.3.8.7 1.2 1.7.4 1 .4 2.1 0 1.2-.5 2.2-.5 1-1.4 1.7-.9.6-2 1-1.3.3-2.7.3-1 0-1.8-.2-1-.1-1.7-.4l-1.6-.9q-.7-.5-1.2-1.2t-.8-1.5q-.3-.9-.3-2h3.6q0 1 .3 1.6.3.6.8 1t1.2.5q.6.2 1.5.2.7 0 1.3-.2l1-.4.5-.8q.2-.4.2-.9zm19.3-3.1q0 1.8-.5 3.3-.5 1.6-1.4 2.7-.9 1-2.2 1.7-1.3.6-3 .6-1.6 0-2.9-.6-1.2-.6-2.1-1.7-.9-1.1-1.3-2.7-.5-1.5-.5-3.3v-2.8q0-1.8.5-3.3.4-1.6 1.3-2.7t2.1-1.7q1.3-.7 3-.7 1.6 0 2.9.7 1.3.6 2.2 1.7 1 1.1 1.4 2.7.5 1.5.5 3.3v2.8zm-3.7-2.8q0-1.2-.2-2.1-.2-1-.6-1.7-.4-.7-1-1.1-.7-.4-1.6-.4-.9 0-1.4.4-.6.4-1 1-.4.8-.5 1.8l-.2 2v2.9q0 1.1.2 2.1.1 1 .5 1.7t1 1.1q.5.4 1.5.4.8 0 1.5-.4.6-.4 1-1 .4-.8.6-1.8.2-1 .2-2.1zm19.3 4q0 1.5-.4 2.9-.3 1.3-1 2.2-.7 1-1.7 1.5t-2.4.5q-1.3 0-2.2-.4-.9-.5-1.5-1.3l-.2 1.5h-3.2v-20h3.6v7.1q.6-.7 1.4-1 1-.5 2-.5 1.4 0 2.5.5 1 .6 1.7 1.5.7 1 1 2.3.4 1.3.4 2.9zm-3.6-.3q0-.9-.2-1.6-.1-.8-.4-1.4-.3-.6-.9-1-.5-.3-1.3-.3-1 0-1.6.5-.7.4-1 1.1v5.6q.3.7 1 1.2.6.4 1.6.4.8 0 1.3-.3.6-.4.9-1 .3-.5.4-1.3.2-.8.2-1.7v-.2zm9-7h7.3V386q0 1.4-.4 2.4T120 390q-.8.6-1.9 1-1 .2-2.5.2h-1.2q-.6 0-1.1-.2l.1-3 .5.2h2.5l.8-.5q.3-.2.5-.7.2-.5.2-1.1v-11.5h-3.5zm3.4-3.5l.1-.8.4-.6q.3-.3.7-.4l.8-.1q1 0 1.6.5.5.5.5 1.4 0 .8-.5 1.4-.6.5-1.6.5l-.8-.1-.7-.4-.4-.6-.1-.8zm17.3 18q-1.6 0-3-.6-1.2-.5-2.2-1.5-1-.9-1.5-2.1-.5-1.3-.5-2.7v-.5q0-1.6.5-3 .5-1.3 1.4-2.2 1-1 2.2-1.5 1.3-.6 2.7-.6 1.5 0 2.7.5 1.2.5 2 1.4.9 1 1.3 2.2.4 1.3.4 2.9v1.5h-9.5q0 .7.4 1.3.3.6.8 1 .5.5 1.2.7.6.2 1.4.2h1l1-.4 1-.5.7-.7 1.8 2-1 1q-.4.4-1.2.7-.7.4-1.6.6l-2 .2zm-.4-11.8q-.6 0-1.1.3l-1 .6-.6 1-.4 1.2h6v-.3q0-.6-.2-1-.2-.6-.6-1l-1-.5q-.4-.3-1.1-.3zm15.8 8.8l1-.1.9-.5q.4-.3.6-.7.2-.4.1-.9h3.4q0 1.1-.4 2-.5 1-1.3 1.7-.8.6-2 1-1 .4-2.2.4-1.6 0-2.9-.5-1.2-.6-2-1.6-.9-1-1.3-2.2-.4-1.3-.4-2.8v-.4q0-1.5.4-2.8.4-1.2 1.2-2.2.9-1 2.1-1.5 1.2-.6 2.9-.6 1.3 0 2.4.4 1 .4 1.9 1.1.8.7 1.2 1.7.5 1 .4 2.3h-3.4l-.1-1q-.2-.5-.6-.8-.3-.4-.8-.6l-1-.2q-1 0-1.5.4-.6.3-.9 1-.3.5-.5 1.3l-.1 1.5v.4l.1 1.6.5 1.4q.3.5.9.9.6.3 1.4.3zM167 368v3.5h5.3v2.6H167v6.1q0 .8.2 1.3l.5.8.8.5h2.7l.8-.2.5-.1.4 2.5-.9.4-1 .2-1.3.2h-1.2q-1.1 0-2-.2-1-.4-1.7-1-.6-.6-1-1.6t-.4-2.4v-6.4h-3.2v-2.7h3.2V368zm29 12.7q0 1.1-.3 2-.3 1-.8 1.6-.4.7-1.2 1-.7.5-1.6.5-.9 0-1.5-.4-.7-.3-1.1-.9l-.1 1H187v-14h2.5v5l1-.7q.6-.3 1.4-.3 1 0 1.7.4.8.4 1.3 1l.7 1.6.2 2zm-2.6-.2l-.1-1-.3-1-.6-.7q-.4-.2-1-.2-.7 0-1.1.3-.4.3-.7.8v4l.7.7q.4.3 1.1.3.6 0 1-.2l.6-.6.3-1v-1.2z" class="g"/><use class="c n" xlink:href="#p"/><use class="d f" xlink:href="#p"/><path d="M126.8 448.7h-11.1V447l5.6-6.2 1.2-1.5.8-1.2.4-1 .2-1q0-.7-.2-1.2-.2-.6-.6-1-.4-.4-1-.6-.5-.3-1.2-.3-.9 0-1.5.3-.7.2-1 .7-.5.4-.7 1-.2.7-.2 1.5h-2.2q0-1 .4-2t1-1.7q.8-.7 1.8-1.1 1-.5 2.4-.5 1.2 0 2.1.4 1 .4 1.7 1 .6.6 1 1.5.3.9.3 1.9 0 .8-.2 1.5l-.7 1.5-1 1.4-1.3 1.4-4.5 5h8.5z" class="e"/><use fill="#34a853" class="c" xlink:href="#j"/><use class="d f" xlink:href="#j"/><path d="M57.1 212.2h3.7v13.2q0 1.3-.5 2.4-.5 1.1-1.4 2-.9.8-2 1.2-1.2.4-2.6.4-1.4 0-2.6-.3-1.2-.4-2-1.1-.8-.7-1.3-1.8t-.5-2.6h3.7q0 1.5.6 2.2.7.7 2.1.7l1.2-.2q.5-.3.8-.7.4-.4.6-1l.2-1.2v-13.2zm17 14q0-.5-.3-1-.1-.4-.6-.7l-1-.7q-.7-.4-1.8-.6l-2.3-.9q-1.1-.5-2-1.2-.9-.7-1.4-1.7-.5-1-.5-2.2 0-1.2.5-2.1.5-1 1.4-1.7 1-.7 2.1-1 1.3-.4 2.7-.4 1.5 0 2.7.4 1.2.4 2.1 1.2 1 .8 1.4 1.8.5 1.1.5 2.4H74q0-.7-.2-1.2t-.6-.9q-.4-.4-1-.6-.6-.2-1.4-.2-.7 0-1.3.2-.5.1-1 .5l-.5.7q-.2.4-.2 1 0 .5.3 1 .2.4.7.7l1.3.6 1.6.6 2.4.9q1 .5 1.9 1.3.8.7 1.2 1.7.4 1 .4 2.1 0 1.3-.5 2.2-.5 1-1.4 1.7-.9.6-2 1-1.3.3-2.7.3l-1.8-.1-1.7-.5-1.6-.9q-.7-.5-1.2-1.2-.5-.6-.8-1.5-.3-.9-.3-1.9h3.6q0 .9.3 1.5t.8 1q.5.4 1.2.6l1.5.1 1.3-.1 1-.5.5-.7.2-1zm19.3-3.1q0 1.8-.5 3.4-.5 1.5-1.4 2.6-.9 1.1-2.2 1.7-1.3.6-3 .6-1.6 0-2.9-.6-1.2-.6-2.1-1.7-.9-1.1-1.3-2.6-.5-1.6-.5-3.4v-2.8q0-1.8.5-3.3.4-1.5 1.3-2.7.9-1 2.1-1.7 1.3-.6 3-.6 1.6 0 2.9.6 1.3.6 2.2 1.7 1 1.2 1.4 2.7.5 1.5.5 3.3v2.8zm-3.7-2.8q0-1.2-.2-2.1-.2-1-.6-1.7-.4-.7-1-1.1-.7-.4-1.6-.4-.9 0-1.4.4-.6.4-1 1-.4.8-.5 1.8-.2 1-.2 2.1v2.8q0 1.1.2 2.1.1 1 .5 1.7t1 1.1q.5.4 1.5.4.8 0 1.5-.4.6-.4 1-1 .4-.8.6-1.8l.2-2zm19.3 4q0 1.5-.4 2.9-.3 1.3-1 2.3-.7.9-1.7 1.4-1 .6-2.4.6-1.3 0-2.2-.5-.9-.5-1.5-1.3l-.2 1.5h-3.2v-20h3.6v7.2q.6-.7 1.4-1.2 1-.4 2-.4 1.4 0 2.5.6 1 .5 1.7 1.5t1 2.2q.4 1.4.4 3v.2zm-3.6-.3q0-.9-.2-1.6-.1-.8-.4-1.4-.3-.5-.9-.9-.5-.3-1.3-.3-1 0-1.6.4-.7.4-1 1.1v5.6q.3.8 1 1.2.6.4 1.6.4.8 0 1.3-.3.6-.3.9-1 .3-.5.4-1.2.2-.8.2-1.7v-.3zm9-6.9h7.3v14.4q0 1.4-.4 2.4t-1.2 1.7q-.8.6-1.9 1-1 .3-2.5.3h-1.2l-1.1-.3.1-2.9h.5l.6.1h1.9l.8-.5q.3-.2.5-.7.2-.4.2-1.1V220h-3.5v-2.9zm3.4-3.6l.1-.8.4-.6.7-.4.8-.1q1 0 1.6.5.5.6.5 1.4 0 .8-.5 1.4-.6.5-1.6.5l-.8-.1q-.4-.1-.7-.4l-.4-.6-.1-.8zm17.3 18q-1.6 0-3-.6-1.2-.5-2.2-1.4-1-1-1.5-2.2-.5-1.2-.5-2.7v-.5q0-1.6.5-3 .5-1.3 1.4-2.2 1-1 2.2-1.5 1.3-.6 2.7-.6 1.5 0 2.7.5 1.2.5 2 1.5.9.9 1.3 2.2.4 1.2.4 2.8v1.5h-9.5q0 .7.4 1.3.3.6.8 1 .5.5 1.2.7.6.2 1.4.2h1q.6-.1 1-.4l1-.5.7-.7 1.8 2-1 1q-.4.4-1.2.8l-1.6.5q-1 .3-2 .3zm-.4-11.7q-.6 0-1.1.2l-1 .6-.6 1-.4 1.2h6v-.3l-.2-1q-.2-.6-.6-1l-1-.5q-.4-.2-1.1-.2zm15.8 8.8q.6 0 1-.2.5-.1.9-.4.4-.3.6-.7.2-.4.1-1h3.4q0 1.2-.4 2.1-.5 1-1.3 1.6-.8.7-2 1-1 .4-2.2.4-1.6 0-2.9-.5-1.2-.6-2-1.5-.9-1-1.3-2.3-.4-1.3-.4-2.7v-.5q0-1.4.4-2.7.4-1.3 1.2-2.3.9-1 2.1-1.5 1.2-.6 2.9-.6 1.3 0 2.4.4 1 .4 1.9 1.1.8.7 1.2 1.7.5 1 .4 2.3h-3.4l-.1-1q-.2-.5-.6-.8l-.8-.6-1-.2q-1 0-1.5.4-.6.4-.9 1-.3.5-.5 1.3l-.1 1.6v.4l.1 1.5.5 1.4q.3.6.9 1 .6.3 1.4.3zm16.4-15v3.5h5.3v2.7h-5.3v6q0 .8.2 1.3l.5.8.8.5 1 .1h.9l.8-.1.8-.2h.5l.4 2.4-.9.4-1 .3-1.3.1h-1.2q-1.1 0-2-.2-1-.3-1.7-1-.6-.6-1-1.6t-.4-2.4v-6.4h-3.2V217h3.2v-3.5zm26.2 17.6l-.2-.4v-.5l-.6.4-.6.3-.7.3h-.9l-1.4-.1-1-.6q-.5-.4-.8-1-.2-.5-.2-1.2 0-1.5 1.2-2.4 1.1-.8 3.4-.8h1.4v-.6q0-.7-.4-1.1-.5-.4-1.4-.4-.7 0-1 .3-.5.3-.5.9H187q0-.6.3-1.2t.8-1q.5-.4 1.3-.7.8-.2 1.8-.2.9 0 1.6.2.8.2 1.4.6.5.5.8 1.1.4.7.4 1.5v5.6l.4.9v.1zm-2.4-1.8h.7l.6-.3.4-.4.3-.3v-1.7h-1.3l-1 .1-.7.3-.4.5v.6q0 .5.3.9.3.3 1 .3z" class="g"/><use class="c n" xlink:href="#q"/><use class="d f" xlink:href="#q"/><path d="M123.4 294.3h-2.2V280l-4.4 1.7v-2l6.4-2.5h.2v17z" class="e"/><g stroke="#595959" class="k"><path d="M216.1 221.6l178.8-2.4 72.6-1.6 46.8-.6 35.4-.1" class="d i"/><path fill="#595959" d="M549.7 223.5l18.1-6.7-18.1-6.6z" class="c"/></g></g><defs><path id="c" d="M141.2 52.3l3.4-4.7h2.5l-4.7 6.2 4.9 6.5h-2.5l-3.5-4.9-3.5 4.9h-2.6l4.9-6.5-4.8-6.2h2.5z"/><path id="d" d="M155.1 58.8l.1-.6q.1-.3.4-.5.2-.3.5-.4l.7-.1.8.1q.3.1.5.4l.3.5.1.6v.7l-.4.5-.5.3q-.3.2-.8.2-.4 0-.7-.2-.3 0-.5-.3l-.4-.5v-.7zm0-10l.1-.6q.1-.3.4-.5.2-.3.5-.4l.7-.1.8.1q.3.1.5.4l.3.5.1.6v.7l-.4.5-.5.3q-.3.2-.8.2-.4 0-.7-.2-.3 0-.5-.3l-.4-.5v-.7z"/><path id="e" d="M766.3 236.2c0-10.7 8.7-19.4 19.4-19.4h133.7a19.4 19.4 0 0119.5 19.4v77.6a19.4 19.4 0 01-19.5 19.5H785.7a19.4 19.4 0 01-19.4-19.5z"/><path id="f" d="M785.3 284.9H784v8.7h1.2v.8h-2.1v-10.3h2zm6.3 0h-1.1v8.7h1.1v.8h-2v-10.3h2z"/><path id="g" d="M573.7 194a11.4 11.4 0 0111.3-11.3h142.1a11.4 11.4 0 0111.4 11.4v45.5a11.4 11.4 0 01-11.4 11.3h-142a11.4 11.4 0 01-11.4-11.3z"/><path id="h" d="M573.6 421.6a11.4 11.4 0 0111.3-11.3H727a11.4 11.4 0 0111.4 11.3v45.5a11.4 11.4 0 01-11.4 11.4H585a11.4 11.4 0 01-11.4-11.4z"/><path id="i" d="M27.2 353.2a11.4 11.4 0 0111.3-11.4h166.3a11.4 11.4 0 0111.3 11.4v45.5a11.4 11.4 0 01-11.3 11.4H38.5a11.4 11.4 0 01-11.3-11.4z"/><path id="j" d="M27.2 198.8a11.4 11.4 0 0111.3-11.3h166.3a11.4 11.4 0 0111.3 11.3v45.5a11.4 11.4 0 01-11.3 11.4H38.5a11.4 11.4 0 01-11.3-11.4z"/></defs></svg>