<svg xmlns="http://www.w3.org/2000/svg" xmlns:xlink="http://www.w3.org/1999/xlink" fill="none" stroke-linecap="square" stroke-miterlimit="10" viewBox="0 0 960 540"><defs/><defs><path id="q" d="M704.8 325.6h142.6v30H704.8z" class="b i"/><path id="p" d="M32.7 450.1h163.5V510H32.7z" class="b i"/><path id="m" d="M32.5 390.4H196v59.7H32.5z" class="b i"/><path id="o" d="M704.7 185.6h142.6v30H704.7z" class="b i"/><path id="n" d="M0 0h960v540H0z"/></defs><style>.b{fill-rule:evenodd}.c{stroke-linejoin:round}.d{fill:#000}.e{stroke:#666}.f{fill:#e67c73}.g{fill:#fff}.h{fill:#ff9800}.i{fill:#bdbdbd}.j{stroke-linecap:butt}</style><clipPath id="a"><use xlink:href="#n"/></clipPath><g clip-path="url(#a)"><use class="b g" xlink:href="#n"/><path d="M49.3 57.5q0-1.7.4-3.1.5-1.5 1.4-2.5 1-1 2.3-1.7 1.3-.6 3-.6 1.5 0 2.9.6 1.3.6 2.2 1.7.9 1 1.4 2.5.5 1.4.5 3v.4q0 1.7-.5 3.1-.5 1.4-1.4 2.5-1 1-2.2 1.7-1.3.6-3 .6-1.6 0-3-.6-1.2-.6-2.2-1.7-.9-1-1.4-2.5-.4-1.4-.4-3zm2.6.3q0 1.1.3 2.2.2 1 .8 1.8.6.8 1.4 1.3.8.4 2 .4 1 0 1.8-.4.9-.5 1.4-1.3.6-.8.8-1.8.3-1 .3-2.2v-.3q0-1.1-.3-2.2-.3-1-.8-1.8t-1.4-1.3q-.8-.4-1.9-.4-1 0-2 .4-.7.5-1.3 1.3-.5.8-.8 1.8-.3 1-.3 2.2z" class="d"/><path d="M98 54.2H85.2v-2.3H98zm0 6H85.2v-2.3H98zm34 10.4q-1 0-1.8-.3-.7-.3-1.3-.8-.6-.5-1-1.1L127 67q-.3-.7-.4-1.5l-.2-1.5v-2.5q0-2-1-3-1-.9-3-1v-2q2 0 3-1 1-.8 1-3v-2.3l.1-1.6.4-1.5.8-1.4q.4-.6 1-1.1.6-.5 1.4-.8.7-.3 1.7-.3l.3 1.7q-1 0-1.6.4-.6.5-1 1.2l-.3 1.6-.1 1.8v2.4q0 1.7-.8 3t-2.5 2q1.7.6 2.5 2 .8 1.2.8 3V64l.1 1.7q.2 1 .5 1.6.4.7 1 1.2.6.4 1.4.5l-.3 1.6z" class="f"/><path d="M162 55.6l4.1-5.7h3.1l-5.7 7.6 5.9 7.9h-3l-4.3-6-4.3 6h-3.1l6-7.9-5.9-7.6h3.1z" class="d"/><path d="M178.8 63.7l.1-.8.4-.7q.3-.3.7-.4.4-.2.9-.2t.9.2q.4.1.7.4l.4.7.1.8-.1.7-.4.7-.7.4-1 .1-.8-.1-.7-.4-.3-.7q-.2-.3-.2-.7zm0-13l.1-.8.4-.7q.3-.3.7-.4.4-.2.9-.2t.9.2q.4.1.7.4l.4.7.1.8-.1.7-.4.7-.7.4-1 .1-.8-.1-.7-.4-.3-.7q-.2-.3-.2-.7z" class="f"/><path fill="#db4437" d="M217 65.4h-2.6V47.9l-5.5 2v-2.3l8-3h.1z"/><path d="M232.7 64.8l-.2 1.4-.4 1.4-.8 1.4-1 1.2-1.7-1q.7-1 1-2l.2-2.4v-2.6h3z" class="f"/><path d="M266.9 59.9l.7 1.8 4.7-11.8h3l-7.9 17.9-.7 1.3-1 1.2q-.6.6-1.4 1-.8.4-1.9.4h-.4l-.4-.1-.4-.1h-.4l.4-2.2h1.3q.6 0 1-.3l.8-.7.6-.8.4-.8 1-2-6.6-14.8h3l4.2 10z" class="d"/><path d="M284.4 63.7l.1-.8.4-.7q.3-.3.7-.4.4-.2.9-.2t.9.2q.4.1.7.4l.4.7v1.5l-.4.7-.7.4-1 .1-.8-.1-.7-.4-.4-.7v-.7zm0-13l.1-.8.4-.7q.3-.3.7-.4.4-.2.9-.2t.9.2q.4.1.7.4l.4.7v1.5l-.4.7-.7.4-1 .1-.8-.1-.7-.4-.4-.7v-.7z" class="f"/><path fill="#db4437" d="M326.8 65.4H313v-2l7-7.4 1.5-1.8 1-1.5q.4-.6.5-1.2.2-.6.2-1.3 0-.7-.3-1.4-.2-.7-.7-1.2-.5-.5-1.2-.8-.7-.3-1.5-.3-1 0-1.8.3t-1.3.9q-.5.5-.8 1.3t-.2 1.8h-2.7q0-1.4.5-2.5.5-1.2 1.3-2 .9-1 2.1-1.5 1.3-.5 2.9-.5 1.5 0 2.6.5 1.2.4 2 1.2.9.8 1.3 1.8t.4 2.3q0 1-.3 1.9l-.8 1.8-1.3 1.7-1.5 1.7-5.6 6.1h10.5z"/><path d="M351.3 69q1 0 1.5-.5.6-.5 1-1.2.3-.7.4-1.6l.2-1.7v-2.5q0-1.7.8-3t2.4-2q-1.6-.6-2.4-1.9-.8-1.3-.8-3v-2.4l-.1-1.8q-.1-.9-.4-1.6-.3-.7-1-1.2-.5-.4-1.5-.4l.2-1.7q1 0 1.8.3t1.4.8q.6.5 1 1.1l.7 1.4q.3.7.4 1.5l.1 1.6v2.4q0 2 1 3t3 1v2q-2 0-3 1-1 .9-1 3V64q0 1.1-.3 2.3-.3 1.1-1 2-.6 1-1.6 1.7-1 .6-2.5.6l-.3-1.6zm21.1-18.3l.1-.8.4-.7q.3-.3.7-.4.4-.2.9-.2t.9.2q.4.1.7.4l.4.7.1.8-.1.7-.4.7-.7.4-.9.1-.9-.1-.6-.4q-.3-.3-.4-.7-.2-.3-.2-.7zm3.1 14l-.2 1.5-.4 1.4-.8 1.4-1 1.2-1.7-1q.7-1 1-2l.2-2.4v-2.6h3v2.6z" class="f"/><path fill="#673ab7" d="M63.6 109.2l-.2 2.2-.6 2.2q-.3 1-1 2-.5.9-1.3 1.6-.8.7-1.9 1-1 .5-2.3.5-1.3 0-2.3-.4-1-.4-1.9-1.1-.8-.7-1.4-1.6l-1-2-.5-2.2-.2-2.2v-2.4l.2-2.3.6-2.2 1-2q.5-.9 1.3-1.6.8-.7 1.8-1 1-.5 2.4-.5 1.3 0 2.3.4 1 .4 1.8 1.1.9.7 1.4 1.6l1 2q.4 1 .6 2.2l.2 2.3zm-2.6-2.5l-.1-1.5-.3-1.6q-.2-.8-.6-1.5-.3-.7-.9-1.3l-1.2-.9q-.7-.3-1.6-.3-1 0-1.6.3-.7.4-1.2 1-.6.5-.9 1.2l-.5 1.5-.3 1.6-.1 1.6v3.9l.4 1.6.5 1.5q.4.8.9 1.3.5.6 1.2.9.7.3 1.6.3 1 0 1.7-.3t1.2-.9q.5-.5.8-1.3.4-.7.6-1.5l.3-1.6v-3.9zm19.7 4q0 1.8-.4 3.2-.4 1.4-1.1 2.5-.8 1-2 1.6-1 .6-2.6.6-1.4 0-2.5-.5t-2-1.5v1.8h-2.5v-22h2.7v8.1q.7-1 1.8-1.4 1-.5 2.5-.5t2.6.6q1.2.6 2 1.6t1.1 2.5q.4 1.5.4 3.2zm-2.6-.2l-.2-2.2q-.2-1-.7-1.8-.5-.7-1.3-1.2t-2-.5l-1.2.2-1 .5q-.5.3-.8.8-.4.4-.6 1v6.7l.6 1q.3.4.8.7.5.4 1 .5.6.2 1.3.2 1 0 1.9-.4.7-.5 1.2-1.3.5-.7.8-1.8.2-1 .2-2.1zm8.9-7.6h7.8v15.6q0 1.5-.4 2.6t-1.2 2q-.8.7-1.9 1.1-1.1.4-2.5.4h-1.6l-1.5-.2.2-2.2h.7l.7.1h1.3l1.4-.1q.6-.2 1.1-.7.5-.4.8-1.2.3-.7.3-1.8v-13.3H87zm4.8-4.1q0-.6.4-1.1.4-.5 1.2-.5.8 0 1.2.5.4.5.4 1 0 .7-.4 1.2-.4.4-1.2.4-.8 0-1.2-.4-.4-.5-.4-1.1zm17.9 19.9q-1.7 0-3-.6-1.4-.6-2.4-1.6t-1.5-2.3q-.5-1.4-.5-3v-.6q0-2 .6-3.4.6-1.5 1.5-2.5 1-1 2.3-1.6 1.3-.5 2.6-.5 1.7 0 3 .6 1.2.5 2 1.6.8 1 1.2 2.4.5 1.4.5 3v1.2h-11.1q0 1 .4 2 .4.9 1 1.6.6.7 1.5 1.1 1 .4 2 .4 1.4 0 2.5-.6 1.1-.5 1.8-1.5l1.7 1.3-1 1q-.6.6-1.3 1-.8.5-1.8.7-1 .3-2 .3zm-.4-14q-.8 0-1.5.3t-1.3 1q-.6.5-1 1.3t-.5 2h8.3v-.3q0-.8-.3-1.5-.2-.8-.7-1.4-.5-.6-1.2-1-.8-.3-1.8-.3zm17.7 11.8l1.4-.2 1.2-.7q.6-.4.9-1 .3-.5.3-1.1h2.5q0 1-.5 2-.5.9-1.4 1.6-.9.7-2 1.1-1.1.4-2.4.4-1.7 0-3-.6-1.4-.6-2.3-1.7-.8-1-1.3-2.4-.4-1.4-.4-3v-.6q0-1.5.4-3 .5-1.3 1.3-2.4 1-1 2.2-1.7 1.4-.6 3.1-.6 1.4 0 2.5.4 1.2.5 2 1.2.9.8 1.3 1.8.5 1 .5 2.2h-2.5q0-.7-.3-1.3-.3-.7-.8-1.1-.5-.5-1.2-.8-.7-.3-1.5-.3-1.2 0-2 .5-.9.5-1.4 1.3-.5.8-.7 1.8-.3 1-.3 2v.6q0 1 .3 2 .2 1 .7 1.8.5.8 1.3 1.3.9.5 2.1.5zm17.3-17.4v3.8h5.9v2h-6v8.4q0 1 .3 1.5.2.6.6 1l1 .5h2.9l.8-.2.6-.1.4 1.8-.8.4-1 .2-1.2.2h-1.3q-1 0-1.9-.2-.9-.3-1.6-1-.6-.6-1-1.6t-.4-2.5V105h-4v-2h4v-4z"/><path d="M160.2 116.7l.1-.8.4-.7q.3-.3.7-.4.4-.2.9-.2t.9.2q.4.1.7.4l.4.7.1.8-.1.7-.4.7-.7.4-.9.1-.9-.1-.6-.4q-.3-.3-.4-.7-.2-.3-.2-.7z" class="f"/><path d="M186.3 110.8q0 1.7-.4 3-.4 1.5-1.2 2.6-.8 1-2 1.6-1 .6-2.5.6-1.4 0-2.5-.4-1-.5-1.9-1.3v7.4h-2.6V103h2.4l.1 1.6q.8-.9 1.9-1.4 1.1-.5 2.6-.5 1.4 0 2.6.6 1.1.6 1.9 1.6.8 1 1.2 2.5.4 1.5.4 3.2zm-2.7-.3l-.2-2.2q-.3-1-.8-1.8-.5-.7-1.3-1.2t-2-.5q-1.2 0-2 .6-1 .6-1.5 1.6v7.4q.6 1 1.4 1.5.9.6 2.2.6 1 0 1.9-.5.8-.4 1.3-1.2.5-.8.8-1.8.2-1 .2-2.2zm17.4-8l.7.1h.8l.7.2q.3 0 .5.2l-.4 2.6-1.5-.3h-1.4q-1.9 0-3 .8-1.2.8-1.7 2.3v10H193v-15.5h2.5l.2 2.4q1-1.2 2.2-2 1.4-.7 3-.7zm14.3 16.2q-1.7 0-3-.6-1.4-.6-2.4-1.6t-1.5-2.3q-.5-1.4-.5-3v-.6q0-2 .5-3.4.6-1.5 1.6-2.5t2.3-1.6q1.3-.5 2.6-.5 1.7 0 3 .6 1.2.5 2 1.6.8 1 1.2 2.4.5 1.4.5 3v1.2h-11.1q0 1 .4 2 .4.9 1 1.6.6.7 1.5 1.1 1 .4 2 .4 1.4 0 2.5-.6 1.1-.5 1.8-1.5l1.7 1.3-1 1q-.6.6-1.3 1-.8.5-1.8.7-1 .3-2 .3zm-.4-14q-.8 0-1.5.3t-1.3 1q-.6.5-1 1.3t-.5 2h8.3v-.3q0-.8-.3-1.5-.2-.8-.7-1.4-.5-.6-1.2-1-.8-.3-1.8-.3zm17.2 9.8l.2 1 .3-1 4.3-11.6h2.7l-6.3 15.5h-2l-6.4-15.5h2.7zm18.4 4.1q-1.7 0-3-.5-1.4-.6-2.4-1.6t-1.5-2.3q-.6-1.4-.6-3v-.6q0-2 .6-3.4.6-1.5 1.6-2.5t2.3-1.6q1.3-.5 2.6-.5 1.7 0 3 .6 1.2.5 2 1.6.8 1 1.2 2.4.5 1.4.5 3v1.2h-11.1q0 1 .4 2 .4.9 1 1.6.6.7 1.5 1 1 .5 2 .5 1.4 0 2.5-.6t1.8-1.5l1.7 1.3-1 1q-.6.6-1.3 1l-1.8.7-2 .2zm-.4-13.9q-.8 0-1.5.3t-1.3.9q-.6.6-1 1.4-.4.8-.5 1.9h8.3v-.2q0-.8-.3-1.5-.2-.8-.7-1.4-.5-.6-1.2-1-.8-.3-1.8-.3zm13.5-1.8l.2 2.2q.8-1.2 2-1.8 1.3-.7 2.8-.7 1.2 0 2.2.3 1 .4 1.7 1 .7.8 1 2 .5 1 .5 2.6v9.9h-2.7v-9.8q0-1-.2-1.8-.2-.7-.7-1.1-.5-.5-1.1-.7-.6-.2-1.5-.2-1.3 0-2.3.7-1 .6-1.6 1.7v11.1h-2.7v-15.5zM285 99v3.8h5.9v2h-6v8.4q0 1 .3 1.5.2.6.6 1l1 .4 1 .2h1l.9-.2.8-.1.6-.2.4 2-.8.3-1 .2-1.2.2h-1.3l-2-.2q-.8-.3-1.5-1-.6-.6-1-1.6t-.4-2.5V105h-4v-2h4v-4h2.7zm22.8 9.6h-8.7v7.4h10.1v2.3h-12.8V97.5h12.7v2.3h-10v6.7h8.7v2.2zm12.5 0l4.1-5.8h3.1l-5.7 7.6 6 7.9h-3.2l-4.2-6-4.3 6H313l6-7.9-5.9-7.6h3.1l4.1 5.7zM338 99v3.8h5.9v2h-6v8.4q0 1 .3 1.5.2.6.6 1l1 .5h2.9l.8-.2.6-.1.4 1.8-.8.4-1 .2-1.2.2H340l-2-.2q-.8-.3-1.5-1-.6-.6-1-1.6t-.4-2.5V105h-4v-2h4v-4h2.7zm18.2 19.5q-1.7 0-3-.5-1.4-.6-2.4-1.6t-1.5-2.3q-.5-1.4-.5-3v-.6q0-2 .6-3.4.6-1.5 1.5-2.5 1-1 2.3-1.6 1.3-.5 2.6-.5 1.7 0 3 .6 1.2.5 2 1.6.8 1 1.2 2.4.5 1.4.5 3v1.2h-11.1q0 1 .4 2 .4.9 1 1.6.6.7 1.5 1 1 .5 2 .5 1.4 0 2.5-.6t1.8-1.5l1.7 1.3-1 1q-.6.6-1.4 1-.7.4-1.7.7l-2 .2zm-.4-13.9q-.8 0-1.5.3t-1.3.9q-.6.6-1 1.4-.4.8-.5 1.9h8.3v-.2q0-.8-.3-1.5-.2-.8-.7-1.4-.5-.6-1.2-1-.8-.3-1.8-.3zm13.5-1.8l.2 2.3q.8-1.3 2-2 1.3-.6 2.8-.6 1.2 0 2.2.3 1 .4 1.7 1.1.7.7 1 1.8.5 1.2.5 2.7v9.9H377v-9.8q0-1-.2-1.8-.2-.7-.7-1.1-.4-.5-1.1-.7-.6-.2-1.5-.2-1.3 0-2.3.7-1 .7-1.6 1.7v11.1h-2.7v-15.5h2.4zm25.5 11.4q0-.5-.2-.9t-.6-.7l-1.2-.6-1.8-.5q-1.3-.2-2.4-.6-1.1-.4-2-1-.7-.5-1.1-1.2-.4-.7-.4-1.7t.4-1.7q.4-.9 1.2-1.5.9-.6 2-1 1-.3 2.4-.3t2.6.4q1.1.3 2 1 .7.6 1.2 1.5.4 1 .4 2h-2.7q0-.6-.2-1l-.7-.9q-.5-.4-1.1-.6-.7-.2-1.5-.2t-1.5.2q-.6.1-1 .5-.5.3-.7.7l-.2.8q0 .5.2.9l.6.6q.4.3 1.1.5.7.3 1.8.5l2.6.7q1.1.4 1.9 1 .8.5 1.2 1.2.4.7.4 1.7t-.5 1.9q-.5.8-1.3 1.4-.8.6-2 1-1.1.3-2.5.3-1.6 0-2.8-.5-1.3-.4-2.1-1-.9-.8-1.3-1.7-.5-.9-.5-1.9h2.7q0 .8.4 1.4.4.6 1 .9l1.2.5 1.4.1q1.7 0 2.6-.6 1-.6 1-1.6zm7.7-11.4h8V116h5v2.3h-13V116h5.3v-11h-5.3zm5-4.1q0-.7.3-1.1.4-.5 1.2-.5.8 0 1.2.5.4.4.4 1 0 .7-.4 1.2-.4.4-1.2.4-.8 0-1.2-.4-.4-.5-.4-1.1zm11.5 11.7q0-1.7.5-3.1.4-1.5 1.3-2.5 1-1.1 2.3-1.7 1.3-.6 2.9-.6 1.6 0 3 .6 1.3.6 2.2 1.7.9 1 1.4 2.5.5 1.4.5 3v.4q0 1.7-.5 3-.5 1.5-1.4 2.6-1 1-2.2 1.6-1.3.6-3 .6-1.6 0-3-.6-1.2-.6-2.2-1.6-.9-1-1.4-2.5-.4-1.4-.4-3.1zm2.6.3q0 1.1.3 2.2.3 1 .8 1.8.6.8 1.4 1.2.8.5 2 .5 1 0 1.8-.5.9-.4 1.4-1.2.6-.8.8-1.8.3-1 .3-2.2v-.3q0-1.2-.3-2.2-.3-1-.8-1.8-.6-.8-1.4-1.3-.8-.5-1.9-.5-1.1 0-2 .5-.7.5-1.3 1.3-.5.8-.8 1.8-.3 1-.3 2.2v.3zm18-8l.3 2.4q.8-1.3 2-2 1.3-.6 2.8-.6 1.2 0 2.2.3 1 .4 1.7 1.1.7.7 1 1.8.5 1.2.5 2.7v9.9h-2.7v-9.8q0-1-.2-1.8-.2-.7-.7-1.1-.4-.5-1.1-.7-.6-.2-1.5-.2-1.3 0-2.3.7-1 .7-1.6 1.7v11.1h-2.7v-15.5h2.4zm25.6 11.5q0-.5-.2-.9t-.6-.7l-1.2-.6-1.8-.5q-1.3-.2-2.4-.6-1.1-.4-2-1-.7-.5-1.1-1.2-.5-.7-.5-1.7t.5-1.7q.4-.9 1.2-1.5.8-.6 2-1 1-.3 2.4-.3t2.6.4q1.1.3 2 1 .7.6 1.2 1.5.4 1 .4 2H465q0-.6-.2-1l-.7-.9q-.5-.4-1.1-.6-.7-.2-1.5-.2t-1.5.2q-.6.1-1 .5-.5.3-.7.7l-.2.8q0 .5.2.9l.6.6q.4.3 1.1.5.7.3 1.8.5l2.6.7q1.1.4 1.9 1 .8.5 1.2 1.2.4.7.4 1.7t-.5 1.9q-.5.8-1.3 1.4-.8.6-2 1-1.1.3-2.5.3-1.6 0-2.8-.5-1.3-.4-2.1-1-.9-.8-1.3-1.7-.5-.9-.5-1.9h2.7q0 .8.4 1.4.4.6 1 .9l1.2.5 1.4.1q1.7 0 2.6-.6 1-.6 1-1.6z" class="d"/><path d="M475 109.9q0-2 .3-3.8l.9-3.4 1.3-2.8q.7-1.3 1.5-2.3.7-1 1.5-1.6.8-.8 1.5-1.1l.6 1.7q-1 .7-1.8 1.8-.9 1.2-1.6 2.9-.7 1.6-1 3.8-.5 2.1-.5 4.8v.2q0 2.7.4 4.8.4 2.2 1.1 3.9.7 1.6 1.6 2.8.9 1.2 1.8 1.9l-.6 1.6-1.5-1-1.6-1.8-1.5-2.2q-.7-1.3-1.2-2.8l-.9-3.4q-.3-1.8-.3-3.8z" class="f"/><path d="M489.3 110.5q0-1.7.4-3.1.5-1.5 1.4-2.5 1-1 2.3-1.7 1.2-.6 2.9-.6 1.6 0 3 .6 1.3.6 2.2 1.7.9 1 1.4 2.5.5 1.4.5 3v.4q0 1.7-.5 3.1-.5 1.4-1.4 2.5-1 1-2.3 1.7-1.3.6-2.9.6-1.6 0-3-.6-1.2-.6-2.2-1.7-.9-1-1.4-2.5-.5-1.4-.5-3zm2.6.3q0 1.1.3 2.2.2 1 .8 1.8.6.8 1.4 1.3.8.4 2 .4 1 0 1.8-.4.9-.5 1.4-1.3.5-.8.8-1.8.3-1 .3-2.2v-.3q0-1.1-.3-2.2-.3-1-.8-1.8-.6-.8-1.4-1.3-.8-.4-2-.4-1 0-1.8.4-.8.5-1.4 1.3-.6.8-.8 1.8-.3 1-.3 2.2v.3z" class="d"/><path d="M517.3 110q0 2.1-.4 4-.3 1.7-.8 3.3l-1.3 2.8-1.5 2.2q-.7 1-1.5 1.7t-1.6 1.1l-.5-1.6q.9-.7 1.8-1.9.9-1.1 1.5-2.8.7-1.7 1.2-3.9.4-2.1.4-4.8v-.2q0-2.7-.5-4.9-.4-2.2-1.1-3.8-.8-1.7-1.6-2.9-.9-1.2-1.7-1.8l.5-1.7q.8.4 1.6 1.1.8.7 1.5 1.7.8 1 1.5 2.3l1.3 2.8q.5 1.5.8 3.4.4 1.7.4 3.8zm13.5-6.3l.1-.8.4-.7q.3-.3.7-.4.4-.2.9-.2t.9.2q.4.1.7.4l.4.7.1.8-.1.7-.4.7-.7.4-1 .1-.8-.1-.7-.4-.3-.7q-.2-.3-.2-.7zm3.1 14l-.2 1.5-.4 1.4-.8 1.4-1 1.2-1.7-1q.7-1 1-2l.2-2.4v-2.6h3v2.6z" class="f"/><use class="b h" xlink:href="#c"/><use class="c e" xlink:href="#c"/><path d="M747.6 145q0-.6-.2-1-.1-.5-.5-.8l-1.1-.7q-.7-.4-1.7-.6l-2.4-.9q-1.1-.5-2-1.2-.8-.7-1.4-1.7-.5-1-.5-2.1 0-1.3.5-2.2.5-1 1.4-1.7 1-.7 2.2-1 1.2-.4 2.6-.4 1.5 0 2.7.4 1.3.4 2.1 1.2 1 .8 1.4 1.9.5 1 .5 2.3h-3.5q0-.6-.3-1.2-.2-.5-.6-.9-.4-.4-1-.6-.5-.2-1.3-.2t-1.3.2l-1 .5q-.4.3-.6.7l-.2 1q0 .5.3 1 .3.4.8.7l1.2.7 1.6.5q1.3.4 2.4 1 1.1.5 1.9 1.2.8.7 1.2 1.7.5 1 .5 2.1 0 1.3-.5 2.2-.5 1-1.4 1.7-1 .7-2.1 1-1.3.3-2.7.3l-1.8-.1-1.7-.5-1.5-.9q-.7-.5-1.2-1.1-.5-.7-.8-1.6-.3-.8-.3-1.9h3.6q0 .9.3 1.5.2.6.7 1 .5.4 1.2.6l1.5.1 1.3-.1 1-.5.5-.7q.3-.4.3-1zm10-7.2q.6-1 1.6-1.6 1-.6 2.3-.6 1.1 0 2 .3 1 .3 1.6 1 .7.7 1 1.8.4 1.1.4 2.7v8.5H763v-8.5q0-.8-.2-1.4l-.5-.8q-.4-.4-.9-.5-.4-.2-1-.2-1 0-1.7.3-.6.3-1 1v10.1H754v-20h3.6zm21.1 12l-.2-.5-.2-.7-.7.6-.8.5-1 .3-1.3.1q-1 0-2-.3-.9-.3-1.5-.8-.7-.6-1-1.4-.4-.7-.4-1.7 0-2.2 1.6-3.4 1.7-1.2 5-1.2h2v-.9q0-1-.7-1.6-.6-.6-1.9-.6-1 0-1.6.5-.5.5-.5 1.3h-3.6q0-1 .4-1.7.4-.8 1.2-1.4.7-.6 1.8-1t2.5-.4q1.3 0 2.4.4 1.1.3 2 .9.7.6 1.2 1.5.4 1 .4 2.2v6q0 1.2.2 1.9.1.7.4 1.3v.2zm-3.4-2.4l1-.2.8-.3.7-.5.4-.5v-2.4h-1.8l-1.5.1-1 .5-.5.7q-.2.4-.2.9 0 .7.5 1.2t1.6.5zm23.3-4.4q0 1.5-.4 2.8-.4 1.3-1 2.3-.7 1-1.8 1.5-1 .6-2.3.6-1.2 0-2-.4-.9-.4-1.5-1.1v6.6H786v-19.5h3.3l.1 1.4q.7-.8 1.6-1.2.9-.5 2-.5 1.4 0 2.4.6 1 .5 1.7 1.4.8 1 1.1 2.3.4 1.3.4 2.9zm-3.6-.3q0-.9-.2-1.7l-.5-1.3q-.3-.6-.9-.9-.5-.3-1.3-.3-1 0-1.6.3-.6.4-1 1.1v5.9q.4.7 1 1 .6.5 1.6.5.8 0 1.3-.4.6-.3 1-.9.3-.6.4-1.4.2-.7.2-1.6v-.3zm13.8 7.5q-1.7 0-3-.6-1.3-.5-2.3-1.4-1-1-1.4-2.2-.6-1.2-.6-2.7v-.5q0-1.6.5-3 .6-1.3 1.5-2.2.9-1 2.1-1.5 1.3-.5 2.8-.5 1.5 0 2.7.5 1.2.5 2 1.4.8.9 1.2 2.2.5 1.2.5 2.8v1.5h-9.6q.1.7.4 1.3l.8 1q.5.5 1.2.7.6.3 1.4.3l1-.1q.6-.1 1-.4l1-.5.7-.7 1.8 2-1 1q-.4.4-1.2.8l-1.6.5q-1 .3-2 .3zm-.5-11.7q-.6 0-1.1.2l-1 .6-.5 1q-.3.5-.4 1.2h5.9v-.3l-.2-1q-.2-.6-.6-1l-.9-.5q-.5-.2-1.2-.2zm-45.9 30.3q0-1.3.2-2.4.2-1.1.6-2 .3-1 .8-1.8.4-.8 1-1.5.4-.6 1-1l1-.6.5 1.4-1 1q-.6.7-1 1.6-.4 1-.6 2.3-.3 1.3-.3 3v.2q0 1.7.3 3 .2 1.3.6 2.3.4 1 1 1.6.5.7 1 1.1l-.5 1.4-1-.7q-.6-.4-1-1-.6-.6-1-1.4-.5-.8-.8-1.8l-.6-2q-.2-1.2-.2-2.5v-.2zm13.9-1.4l2.2-3h2.7l-3.3 4.8 3.4 5h-2.7l-2.3-3.2-2.3 3.2h-2.7l3.4-5-3.3-4.9h2.7zm13.4 1.6q0 1.3-.2 2.4l-.5 2-.8 1.8-1 1.4q-.5.7-1 1.1l-1.2.7-.4-1.4 1-1q.5-.7.9-1.7l.7-2.3q.2-1.3.2-3v-.2q0-1.7-.2-3l-.7-2.3q-.4-1-1-1.6-.4-.7-1-1l.5-1.4q.6.2 1.1.6l1 1q.6.7 1 1.5l.9 1.8.5 2 .2 2.4z" class="g"/><use class="b i" xlink:href="#o"/><use class="c e" xlink:href="#o"/><path d="M737.1 194.5l-.2 3.4h-1.2v-4.4h1.4v1zm11 6.8l2.6-3.6h2l-3.7 4.8 3.7 5h-1.9l-2.7-3.7-2.7 3.7h-2l3.7-5-3.6-4.8h2zm11.4-6.8l-.2 3.4h-1.2v-4.4h1.4v1zm9.8 12v-.6l.3-.4.4-.3h1.2l.4.3.3.4v1l-.3.4-.4.3-.6.1h-.6l-.4-.4-.2-.4-.1-.5zm0-8v-.6l.3-.4.4-.3h1.2l.4.3.3.4v1l-.3.4-.4.3-.6.1h-.6l-.4-.4-.2-.4-.1-.5zm26.4 5.7q0-.6-.3-1-.3-.5-.7-.7l-1-.5-1-.4-1.4-.5q-.7-.3-1.3-.8l-1-1q-.4-.7-.4-1.6 0-.9.4-1.5.4-.7 1-1.2l1.4-.7 1.5-.2q1 0 1.7.3.8.3 1.4.8.7.5 1 1.2.4.8.4 1.7h-1.7q0-.6-.3-1l-.5-.9-.9-.5q-.4-.2-1-.2l-1 .2-.8.4q-.4.2-.6.7-.2.3-.2.9 0 .6.3 1t.7.6l1 .5.9.3 1 .4 1 .4.8.6.7.7.5.9.2 1q0 1-.4 1.6-.4.7-1 1.1-.7.5-1.5.7l-1.6.2q-.9 0-1.7-.2-.8-.3-1.5-.8-.7-.6-1.1-1.3-.4-.7-.4-1.7h1.7q0 .6.3 1.1.3.5.7.8l.9.5q.5.2 1.1.2l1-.1.9-.4.6-.7q.2-.4.2-1zm5-6.5v1q.4-.6.9-.9.5-.3 1.1-.3 1.4 0 1.9 1 .2-.4.7-.7.5-.3 1.2-.3 1 0 1.6.7.6.6.6 2v7.3h-1.6v-7.3q0-1.3-1.1-1.3l-.5.1-.4.2-.2.4-.1.3v7.6h-1.6v-7.4q0-.5-.3-.9-.3-.3-.8-.3-.6 0-.9.2l-.4.6v7.8h-1.6v-9.8zm10.7 0h5v8.4h3.3v1.4h-8.3v-1.4h3.4v-7h-3.4v-1.4zm3.1-2.6q0-.4.3-.7.2-.3.8-.3.5 0 .7.3.3.3.3.7 0 .4-.3.7-.2.2-.7.2-.6 0-.8-.2-.3-.3-.3-.7z" class="d"/><use fill="#34a853" class="b" xlink:href="#d"/><use class="c e" xlink:href="#d"/><path d="M49.9 346.8h3.6v13.1q0 1.4-.5 2.5-.5 1-1.4 1.9-.8.8-2 1.3-1.2.4-2.5.4-1.5 0-2.6-.4-1.2-.3-2-1-.9-.8-1.4-1.9-.4-1-.4-2.6h3.6q0 1.6.7 2.3.7.6 2 .6.7 0 1.2-.2t1-.7l.5-1q.2-.5.2-1.2v-13.1zm16.9 14l-.2-1-.6-.8q-.4-.4-1.1-.7l-1.7-.6-2.4-.8-2-1.3q-.8-.7-1.3-1.6-.5-1-.5-2.2 0-1.2.5-2.2.5-1 1.4-1.7.9-.6 2.1-1 1.2-.4 2.7-.4 1.4 0 2.7.4 1.2.5 2 1.2 1 .8 1.5 1.9.5 1 .5 2.3h-3.6q0-.6-.2-1.1-.2-.6-.6-1l-1-.5q-.6-.3-1.4-.3-.7 0-1.3.2l-1 .5-.5.8q-.2.4-.2 1l.2.9q.3.4.8.7l1.2.7 1.7.5q1.3.4 2.4 1 1 .5 1.8 1.2.8.8 1.3 1.7.4 1 .4 2.2 0 1.2-.5 2.2-.5 1-1.4 1.6-.9.7-2.1 1-1.2.4-2.7.4l-1.8-.2q-.9-.1-1.7-.5-.8-.3-1.5-.8t-1.2-1.2q-.5-.7-.8-1.6-.3-.8-.3-1.9H60q0 .9.3 1.5l.7 1q.5.4 1.2.6.7.2 1.5.2t1.3-.2l1-.5q.4-.3.6-.7.2-.4.2-1zm19.3-3.2q0 1.9-.4 3.4-.5 1.5-1.4 2.6-1 1.1-2.3 1.8-1.3.6-2.9.6-1.6 0-3-.6-1.2-.6-2-1.7-1-1.2-1.4-2.7-.4-1.5-.4-3.3v-2.8q0-1.8.4-3.4.5-1.5 1.3-2.6 1-1.1 2.2-1.8 1.2-.6 2.9-.6 1.6 0 3 .6 1.2.7 2.2 1.8.9 1.1 1.3 2.6.5 1.6.5 3.4zm-3.7-2.8q0-1.1-.2-2-.1-1-.5-1.8-.5-.7-1-1-.7-.5-1.6-.5-.9 0-1.5.4t-1 1.1l-.5 1.7-.1 2.1v2.8l.1 2.2.5 1.7q.4.7 1 1 .6.5 1.5.5t1.5-.4q.6-.4 1-1.1.4-.7.6-1.7.2-1 .2-2.1zm19.3 4q0 1.6-.3 3-.4 1.2-1 2.2-.7 1-1.8 1.5-1 .5-2.4.5-1.2 0-2.1-.5-1-.4-1.6-1.3l-.1 1.5H89v-20h3.6v7.2q.7-.7 1.5-1.1.9-.4 2-.4 1.4 0 2.4.5 1 .6 1.8 1.5.6 1 1 2.3.3 1.3.3 2.9v.2zm-3.6-.2l-.1-1.7-.5-1.3q-.3-.6-.8-1-.6-.3-1.4-.3-1 0-1.6.4-.6.5-1 1.2v5.6q.4.7 1 1.1.6.4 1.6.4.9 0 1.4-.3.5-.3.8-.9.4-.5.5-1.3l.1-1.7zm9.1-7h7.2v14.5q0 1.4-.4 2.4t-1.2 1.6q-.7.7-1.8 1-1.1.3-2.6.3h-1.1l-1.2-.2.2-3 .4.1h1.2l.4.1 1-.1q.4-.1.7-.4.4-.3.6-.7.2-.5.2-1.2v-11.4h-3.6zm3.3-3.6l.1-.7q.2-.4.5-.6.2-.3.6-.4.4-.2.9-.2 1 0 1.5.6.6.5.6 1.3 0 .9-.6 1.4-.6.6-1.5.6-.5 0-.9-.2l-.6-.4q-.3-.2-.5-.6v-.7zm17.4 18q-1.6 0-3-.5-1.3-.6-2.3-1.5-1-1-1.4-2.1-.5-1.3-.5-2.7v-.5q0-1.7.5-3t1.4-2.3q.9-1 2.2-1.5 1.2-.5 2.7-.5 1.5 0 2.7.5 1.2.5 2 1.4.8 1 1.3 2.2.4 1.3.4 2.8v1.6h-9.6q.1.7.5 1.3.3.6.8 1l1.1.7q.6.2 1.4.2l1-.1 1-.3 1-.5.7-.7 1.8 2-.9.9-1.3.8-1.6.6q-.9.2-2 .2zm-.5-11.7q-.6 0-1 .2-.6.2-1 .7-.4.4-.6 1-.3.5-.4 1.2h6v-.3l-.3-1.1q-.2-.5-.6-.9-.3-.4-.9-.6-.5-.2-1.2-.2zm15.9 8.8l1-.1.8-.5q.4-.3.6-.7.2-.4.2-.9h3.4q0 1.1-.5 2-.4 1-1.3 1.6-.8.7-1.9 1.1-1 .4-2.3.4-1.6 0-2.8-.6-1.3-.5-2.1-1.5t-1.3-2.2q-.4-1.3-.4-2.8v-.4q0-1.5.4-2.8.5-1.3 1.3-2.2.8-1 2-1.6 1.3-.5 3-.5 1.2 0 2.3.4 1.1.4 2 1 .7.8 1.2 1.8.4 1 .4 2.2h-3.4l-.2-1-.5-.8-.9-.5-1-.2q-.9 0-1.5.4-.5.3-.8.9-.4.6-.5 1.3l-.2 1.6v.4l.2 1.6q.1.7.4 1.3.4.6 1 1 .5.3 1.4.3zm16.4-14.9v3.5h5.2v2.6h-5.2v6l.1 1.4.5.8.8.4 1 .1h1.8l.7-.2.6-.1.3 2.4q-.3.3-.8.4l-1.1.3-1.2.2h-1.2q-1.2 0-2.1-.3-1-.3-1.6-1-.7-.6-1-1.6-.4-1-.4-2.4v-6.4h-3.3v-2.7h3.3v-3.4h3.6zm19.6 12.5q0-1 .3-2 .4-.9 1-1.6.5-.6 1.4-1 .9-.4 2-.4 1 0 2 .4.8.4 1.4 1 .6.7 1 1.6l.2 2v.2q0 1-.3 2t-.9 1.6q-.6.7-1.5 1-.8.4-2 .4-1 0-2-.4-.8-.3-1.4-1-.6-.7-.9-1.6-.3-1-.3-2zm2.6.2v1.2l.4 1 .7.6q.4.2 1 .2l1-.2.6-.7.4-1v-2.4l-.4-1q-.3-.4-.7-.6-.4-.3-1-.3-.5 0-1 .3l-.6.6-.3 1q-.2.5-.2 1.1z" class="g"/><use class="b i" xlink:href="#m"/><use class="c e" xlink:href="#m"/><path d="M116.2 428.8H114v-14.3l-4.5 1.7v-2l6.5-2.4h.2z" class="d"/><use class="b h" xlink:href="#e"/><use class="c e" xlink:href="#e"/><path d="M747.6 35.1l-.2-1q-.1-.4-.5-.7l-1.1-.7q-.7-.4-1.7-.6l-2.4-.9q-1.1-.5-2-1.2-.8-.7-1.4-1.7-.5-1-.5-2.2 0-1.2.5-2.1.5-1 1.4-1.7 1-.7 2.2-1 1.2-.4 2.6-.4 1.5 0 2.7.4 1.3.4 2.1 1.2 1 .8 1.4 1.8.5 1.1.5 2.4h-3.5q0-.7-.3-1.2-.2-.5-.6-.9-.4-.4-1-.6-.5-.2-1.3-.2t-1.3.2q-.6.1-1 .5-.4.3-.6.7-.2.4-.2 1 0 .5.3 1 .3.4.8.7l1.2.6 1.6.6 2.4.9q1.1.5 1.9 1.3.8.7 1.2 1.7.5 1 .5 2.1 0 1.3-.5 2.2-.5 1-1.4 1.7-1 .6-2.1 1-1.3.3-2.7.3l-1.8-.1-1.7-.5-1.5-.9q-.7-.5-1.2-1.2-.5-.6-.8-1.5-.3-.9-.3-2h3.6q0 1 .3 1.6.2.6.7 1 .5.4 1.2.6l1.5.1 1.3-.1 1-.5.5-.7q.3-.5.3-1zm10-7.2q.6-1 1.6-1.6 1-.6 2.3-.6 1.1 0 2 .4 1 .3 1.6 1 .7.7 1 1.8.4 1.1.4 2.7V40H763v-8.6q0-.7-.2-1.3l-.5-.9-.9-.5-1-.1q-1 0-1.7.3-.6.3-1 1v10H754V20h3.6zm21.1 12.2l-.2-.6q0-.4-.2-.7l-.7.6-.8.5-1 .3-1.3.1q-1 0-2-.3-.9-.3-1.5-.9-.7-.5-1-1.3-.4-.8-.4-1.7 0-2.2 1.6-3.4 1.7-1.2 5-1.2h2v-.9q0-1-.7-1.6-.6-.6-1.9-.6-1 0-1.6.5-.5.5-.5 1.3h-3.6q0-1 .4-1.7.4-.8 1.2-1.4.7-.6 1.8-1t2.5-.4q1.3 0 2.4.3 1.1.4 2 1 .7.6 1.2 1.5.4 1 .4 2.2v6q0 1.1.2 1.9.1.7.4 1.3v.2zm-3.4-2.6h1l.8-.4.7-.5.4-.5v-2.5h-1.8q-.9 0-1.5.2l-1 .4-.5.8-.2.8q0 .8.5 1.3.5.4 1.6.4zm23.3-4.3q0 1.5-.4 2.8-.4 1.3-1 2.3-.7 1-1.8 1.5-1 .5-2.3.5-1.2 0-2-.4-.9-.3-1.5-1v6.6H786V26h3.3l.1 1.4q.7-.8 1.6-1.2.9-.5 2-.5 1.4 0 2.4.5 1 .6 1.7 1.5.8 1 1.1 2.3.4 1.3.4 2.9zm-3.6-.3q0-.9-.2-1.7l-.5-1.3q-.3-.6-.9-1-.5-.2-1.3-.2-1 0-1.6.3-.6.4-1 1v6q.4.6 1 1t1.6.4q.8 0 1.3-.3.6-.3 1-.9.3-.6.4-1.4l.2-1.6v-.3zm13.8 7.4q-1.7 0-3-.5t-2.3-1.4q-1-1-1.4-2.2-.6-1.2-.6-2.7V33q0-1.6.5-3 .6-1.3 1.5-2.2.9-1 2.1-1.5 1.3-.6 2.8-.6 1.5 0 2.7.5 1.2.5 2 1.5.8.9 1.2 2.1.5 1.3.5 2.9v1.5h-9.6q.1.7.4 1.3l.8 1q.5.5 1.2.7.6.2 1.4.2h1l1-.4 1-.5.7-.7 1.8 2-1 1q-.4.4-1.2.7-.7.4-1.6.6l-2 .2zm-.5-11.6q-.6 0-1.1.2l-1 .6-.5 1q-.3.5-.4 1.2h5.9v-.3q0-.6-.2-1-.2-.6-.6-1l-.9-.5q-.5-.2-1.2-.2zM740 59q0-1.3.2-2.4.2-1.2.6-2.1.3-1 .8-1.8.4-.8 1-1.4.4-.6 1-1l1-.7.5 1.4-1 1q-.6.7-1 1.7t-.6 2.3q-.3 1.3-.3 3v.2q0 1.7.3 3 .2 1.3.6 2.3.4 1 1 1.6.5.7 1 1l-.5 1.5-1-.7q-.6-.4-1-1-.6-.6-1-1.4-.5-.8-.8-1.8l-.6-2q-.2-1.2-.2-2.5V59zm14.2 5.6q-1.2 0-2.1-.4-1-.4-1.6-1-.7-.6-1-1.5-.4-.9-.4-1.9v-.4q0-1 .4-2 .3-1 1-1.6.6-.7 1.5-1 .9-.4 1.9-.4 1 0 1.9.3.8.4 1.4 1 .6.6.9 1.5.3 1 .3 2v1h-6.7q0 .6.3 1 .2.4.6.7l.7.5 1 .2.8-.1.7-.2.6-.4.5-.5 1.3 1.4-.6.6q-.4.4-1 .6-.4.3-1 .4l-1.4.2zm-.3-8.2q-.5 0-.8.2-.4.1-.6.4l-.5.7-.3.8h4.2v-.2q0-.4-.2-.7-.1-.4-.4-.6-.2-.3-.6-.4l-.8-.2zm8.3-1.9v1.2q.3-.6.8-1 .5-.3 1.2-.3 1.2 0 1.6 1 .3-.5.7-.8.5-.2 1.1-.2l.8.1q.4.2.7.6.3.3.5.9l.1 1.4v7h-2.3v-7.5q0-.2-.2-.3l-.2-.1h-.8l-.2.4v7.5h-2.3v-7.5q0-.2-.2-.3l-.2-.1h-.7l-.3.5v7.4H760v-9.9h2.2zm18.4 5q0 1.1-.2 2-.3 1-.8 1.6-.4.7-1.2 1.1-.7.4-1.6.4-.8 0-1.4-.3-.6-.3-1-.8v4.7h-2.6V54.5h2.4v1q.5-.5 1.1-.8.7-.3 1.5-.3 1 0 1.6.3.8.4 1.2 1 .5.7.8 1.6l.2 2zm-2.5-.1l-.1-1.2-.4-1-.6-.6q-.4-.2-.9-.2-.7 0-1 .3-.5.2-.7.7v4.1q.2.5.6.8.4.2 1.1.2l1-.2q.3-.2.5-.6l.4-1 .1-1.2zm9.5-7.3v2.4h3.7v2h-3.7v4.1l.1 1 .4.5.6.3.7.1h1.2l.5-.2h.4l.2 1.7-.6.3-.7.1-.9.1h-.8l-1.5-.1q-.7-.2-1.1-.7-.5-.4-.8-1.1-.2-.7-.2-1.7v-4.5h-2.3v-1.9h2.3v-2.4zm10.8 8.2l.3 1 2.6-6.8h2.8l-5 11.4-.4.8-.7.8q-.4.4-1 .6-.5.3-1.3.3h-.6l-.3-.1-.3-.1.3-2h.8l.5-.1.4-.4.3-.4.2-.2.6-1.1-4.2-9.5h2.8zm13.7-1q0 1.2-.2 2.3l-.5 2-.8 1.8-1 1.4q-.5.7-1 1.1l-1.1.7-.5-1.4 1-1q.5-.7.9-1.7l.7-2.3q.2-1.3.2-3V59q0-1.7-.2-3l-.7-2.3q-.4-1-1-1.6-.4-.7-1-1l.6-1.4 1 .6 1 1q.6.7 1 1.5l.9 1.8.5 2 .2 2.4z" class="g"/><g stroke="#595959" stroke-width="4"><path d="M208.9 356.1c121.2 0 181.7 19 242.3 37.8 30.3 9.4 60.6 18.9 98.5 26a650 650 0 0063.4 8.5c11.8 1 24.4 1.9 37.7 2.4a946 946 0 0018 .6h.8" class="c j"/><path fill="#595959" d="M669.5 438l18.2-6.4-18-6.8z" class="b"/></g><g stroke-width="2" class="e"><path d="M776 87.6v17.6" class="c j"/><path fill="#666" d="M779.4 87.6l-3.3-9-3.3 9zm-6.6 17.6l3.3 9 3.3-9z" class="b"/></g><path d="M793.7 90.3l-.2 3.4h-1.2v-4.4h1.4zm11 6.8l2.6-3.6h2l-3.7 4.8 3.7 5h-1.9l-2.7-3.7-2.7 3.7h-2l3.8-5-3.7-4.8h2zm11.4-6.8l-.2 3.4h-1.2v-4.4h1.4z" class="d"/><use class="b h" xlink:href="#f"/><use class="c e" xlink:href="#f"/><path d="M747.6 285.1q0-.5-.2-.9-.1-.5-.5-.8l-1.1-.7q-.7-.4-1.7-.6l-2.4-.9q-1.1-.5-2-1.2-.8-.7-1.4-1.7-.5-1-.5-2.1 0-1.2.5-2.2.5-1 1.4-1.7 1-.7 2.2-1 1.2-.4 2.6-.4 1.5 0 2.7.4 1.3.4 2.1 1.2 1 .8 1.4 1.9.5 1 .5 2.3h-3.5q0-.6-.3-1.2-.2-.5-.6-.9-.4-.4-1-.6-.5-.2-1.3-.2t-1.3.2l-1 .5q-.4.3-.6.7l-.2 1q0 .5.3 1 .3.4.8.7l1.2.7 1.6.5q1.3.4 2.4 1 1.1.5 1.9 1.2.8.7 1.2 1.7.5 1 .5 2.1 0 1.3-.5 2.3-.5 1-1.4 1.6-1 .7-2.1 1-1.3.4-2.7.4-1 0-1.8-.2l-1.7-.5q-.8-.3-1.5-.8l-1.2-1.2q-.5-.7-.8-1.6-.3-.8-.3-1.9h3.6q0 .9.3 1.5.2.6.7 1 .5.4 1.2.6l1.5.1 1.3-.1 1-.5.5-.7q.3-.4.3-1zm10-7.2q.6-1 1.6-1.5 1-.6 2.3-.6 1.1 0 2 .3 1 .3 1.6 1 .7.7 1 1.8.4 1.1.4 2.7v8.5H763v-8.5q0-.8-.2-1.4l-.5-.8q-.4-.4-.9-.5-.4-.2-1-.2-1 0-1.7.3-.6.4-1 1v10H754v-20h3.6v7.9zm21.1 12.2l-.2-.6-.2-.7-.7.6-.8.5-1 .3-1.3.1q-1 0-2-.3-.9-.3-1.5-.8-.7-.6-1-1.4-.4-.8-.4-1.7 0-2.2 1.6-3.4 1.7-1.2 5-1.2h2v-.9q0-1-.7-1.6-.6-.6-1.9-.6-1 0-1.6.5-.5.5-.5 1.3h-3.6q0-1 .4-1.7.4-.8 1.2-1.4.7-.6 1.8-1t2.5-.4q1.3 0 2.4.4 1.1.3 2 .9.7.6 1.2 1.5.4 1 .4 2.2v6q0 1.1.2 1.9.1.7.4 1.3v.2h-3.7zm-3.4-2.5l1-.2.8-.3.7-.5.4-.5v-2.4h-1.8l-1.5.1-1 .5-.5.7q-.2.4-.2.9 0 .7.5 1.2t1.6.5zm23.3-4.4q0 1.5-.4 2.8-.4 1.3-1 2.3-.7 1-1.8 1.5-1 .6-2.3.6-1.2 0-2-.4-.9-.4-1.5-1.1v6.6H786V276h3.3l.1 1.4q.7-.8 1.6-1.2.9-.5 2-.5 1.4 0 2.4.6 1 .5 1.7 1.4.8 1 1.1 2.3.4 1.3.4 2.9zm-3.6-.3q0-.9-.2-1.7l-.5-1.3q-.3-.6-.9-.9-.5-.3-1.3-.3-1 0-1.6.4-.6.3-1 1v5.9q.4.6 1 1t1.6.4q.8 0 1.3-.3.6-.3 1-.9.3-.6.4-1.4l.2-1.6v-.3zm13.8 7.5q-1.7 0-3-.6-1.3-.5-2.3-1.4-1-1-1.4-2.2-.6-1.2-.6-2.7v-.5q0-1.6.5-3 .6-1.3 1.5-2.2.9-1 2.1-1.5 1.3-.6 2.8-.6 1.5 0 2.7.5 1.2.5 2 1.5.8.9 1.2 2.2.5 1.2.5 2.8v1.5h-9.6q.1.7.4 1.3l.8 1q.5.5 1.2.7.6.2 1.4.2h1l1-.4 1-.5.7-.7 1.8 2-1 1q-.4.4-1.2.8l-1.6.5q-1 .3-2 .3zm-.5-11.7q-.6 0-1.1.2l-1 .6-.5 1q-.3.5-.4 1.2h5.9v-.3l-.2-1q-.2-.6-.6-1l-.9-.5q-.5-.2-1.2-.2zm-57 30.3l.1-2.4q.2-1.1.6-2.1.3-1 .8-1.7.4-.8 1-1.5.4-.6 1-1l1-.6.5 1.4-1 1q-.6.7-1 1.6-.4 1-.6 2.3-.3 1.3-.3 3v.2q0 1.7.3 3 .2 1.3.6 2.3.4 1 1 1.7l1 1-.5 1.4q-.5-.2-1-.7-.6-.4-1-1-.6-.6-1-1.4-.5-.8-.8-1.7-.4-1-.6-2.1-.2-1.2-.2-2.5zm13.8-1.4l2.2-3h2.7l-3.3 4.8 3.4 5h-2.7l-2.3-3.2-2.3 3.2h-2.7l3.4-5-3.3-4.9h2.7l2.2 3.1zm11.9 6.6l-.2 1q-.1.6-.4 1.1l-.6 1-.7.8-1.3-.7.3-.7.2-.7.2-.8v-3h2.5zm10.2-4l.3 1.1 2.6-6.8h2.8l-5 11.4-.4.8-.7.8q-.4.4-1 .6-.5.3-1.3.3h-.6l-.3-.1-.3-.1.3-2h.8l.5-.1.4-.4.3-.4.1-.2.6-1.1-4.1-9.5h2.7l2.3 5.8zm13.7-1q0 1.3-.2 2.4l-.5 2-.8 1.8-1 1.4q-.5.7-1 1.1l-1.2.7-.4-1.4 1-1q.5-.7.9-1.7l.7-2.3q.2-1.3.2-3v-.2q0-1.7-.2-3l-.7-2.3q-.4-1-1-1.6-.4-.7-1-1l.5-1.5 1.1.7 1 1q.6.7 1 1.5l.9 1.8.5 2 .2 2.4z" class="g"/><use class="b i" xlink:href="#p"/><use class="c e" xlink:href="#p"/><path d="M119.7 488.5h-11.2V487l5.6-6.2 1.3-1.5.8-1.2.4-1 .2-1q0-.7-.3-1.2-.2-.6-.6-1-.4-.4-1-.6-.5-.3-1.2-.3-.8 0-1.4.3-.7.2-1 .7-.5.4-.7 1-.2.7-.2 1.5h-2.2q0-1 .4-2t1-1.7q.8-.7 1.8-1.1 1-.5 2.3-.5 1.2 0 2.2.4 1 .4 1.6 1 .7.6 1 1.5.4.9.4 1.9l-.2 1.5-.7 1.5-1 1.4-1.3 1.4-4.6 5h8.6z" class="d"/><use class="b i" xlink:href="#q"/><use class="c e" xlink:href="#q"/><path d="M737.3 334.6l-.3 3.3h-1.2v-4.4h1.5zm10.4 9.4l.4 1.2 3-7.5h2l-5 11.4-.5.8-.7.8-.9.6q-.5.2-1.1.2h-.9l-.2-.1.3-1.4h.8l.6-.1.5-.5.4-.5.3-.5.7-1.3-4.3-9.4h1.9zm12-9.4l-.3 3.3h-1.2v-4.4h1.4zm9.7 11.9v-.5l.3-.5.5-.2.5-.1h.6l.4.3.3.5v1l-.3.4-.4.2-.6.1h-.5l-.5-.3-.2-.4-.1-.5zm0-8v-.5l.3-.5.5-.2.5-.1h.6l.4.3.3.5v1l-.3.4-.4.2-.6.1h-.5l-.5-.3-.2-.4-.1-.5zm26.4 5.7q0-.6-.3-1l-.7-.7-1-.5-1-.4-1.4-.5q-.7-.3-1.3-.8-.6-.4-1-1-.4-.7-.4-1.6 0-.8.4-1.5t1-1.1q.6-.5 1.4-.7.8-.3 1.6-.3t1.6.3q.8.3 1.4.8.7.5 1 1.3.4.7.4 1.6h-1.7q0-.6-.3-1l-.5-.8q-.4-.4-.9-.6l-1-.1-1 .1-.8.4q-.4.3-.6.7-.2.4-.2.9 0 .6.3 1l.7.7 1 .4 1 .3.9.4 1 .4.8.6.7.7.5 1q.2.4.2 1 0 .9-.4 1.6-.4.6-1 1-.7.5-1.5.7l-1.6.2q-.9 0-1.7-.2-.8-.3-1.5-.8t-1.1-1.3q-.4-.7-.4-1.7h1.7q0 .7.3 1.1.3.5.7.8.4.4.9.5.5.2 1.1.2l1-.1.9-.4.6-.7q.2-.4.2-1zm5-6.5v1q.4-.6.9-.9.5-.3 1.1-.3 1.4 0 1.9 1l.7-.7q.5-.3 1.2-.3 1 0 1.7.7.5.7.5 2v7.4h-1.6v-7.4q0-1.3-1.1-1.3l-.5.1-.4.3-.2.3-.1.4v7.6h-1.6v-7.4q0-.6-.3-1-.3-.3-.8-.3t-.8.3l-.5.5v7.9h-1.6v-9.9zm10.7 0h5v8.4h3.3v1.5h-8.3V346h3.4v-7h-3.4zm3.2-2.6q0-.4.2-.7.3-.3.8-.3t.7.3q.3.3.3.7 0 .4-.3.7-.2.3-.7.3-.5 0-.8-.3-.2-.3-.2-.7z" class="d"/><g stroke-width="2" class="e"><path d="M776 227.6v17.8" class="c j"/><path fill="#666" d="M779.3 227.6l-3.3-9-3.3 9zm-6.6 17.8l3.4 9 3.3-9z" class="b"/><path d="M776 367.6v18" class="c j"/><path fill="#666" d="M779.4 367.6l-3.3-9-3.3 9zm-6.7 18l3.3 9 3.3-9z" class="b"/></g><path d="M793.6 232.7l-.2 3.4h-1.2v-4.4h1.4v1zm10.5 9.5l.4 1.2 3-7.6h2l-5 11.4-.5.8q-.3.5-.7.8-.4.4-.9.6-.5.3-1.2.3h-.5l-.3-.1h-.2l.3-1.4h.8l.6-.2.5-.4.4-.6.3-.5.6-1.3-4.2-9.4h1.9zm12-9.5l-.3 3.4h-1.2v-4.4h1.4z" class="d"/><use class="b h" xlink:href="#g"/><use class="c e" xlink:href="#g"/><path d="M747.5 422.3q0-.5-.2-.9-.1-.5-.6-.8l-1-.7q-.7-.4-1.7-.6l-2.4-.9q-1.1-.5-2-1.2-.8-.7-1.4-1.7-.5-1-.5-2.1 0-1.3.5-2.2.5-1 1.4-1.7 1-.7 2.2-1 1.2-.4 2.6-.4 1.5 0 2.7.4 1.2.4 2.1 1.2 1 .8 1.4 1.9.5 1 .5 2.3h-3.5q0-.6-.3-1.2-.2-.5-.6-.9-.4-.4-1-.6-.6-.2-1.4-.2-.7 0-1.2.2l-1 .5q-.4.3-.6.7l-.2 1q0 .5.3 1 .2.4.7.7.5.4 1.3.7l1.6.5 2.4.9q1.1.6 1.9 1.3.8.7 1.2 1.7.5 1 .5 2.1 0 1.3-.6 2.2-.5 1-1.4 1.7-.8.7-2 1-1.3.3-2.7.3l-1.8-.1-1.7-.5-1.5-.9-1.3-1.1q-.5-.7-.8-1.6-.3-.8-.3-1.9h3.6q0 .9.3 1.5t.8 1q.5.4 1.2.6l1.5.1 1.3-.1 1-.5.5-.7q.2-.4.2-1zm10-7.2q.6-1 1.6-1.6 1-.5 2.3-.5 1.1 0 2 .3 1 .3 1.6 1 .7.7 1 1.8.4 1.1.4 2.7v8.5h-3.6v-8.5q0-.8-.2-1.4l-.5-.8q-.4-.4-.9-.5l-1-.2q-1 0-1.7.3-.6.3-1 1v10.1h-3.7v-20h3.6zm21.1 12.2l-.2-.6-.2-.7-.7.6-.8.5-1 .3-1.3.1q-1 0-2-.3-.9-.3-1.6-.8-.6-.6-1-1.4-.3-.8-.3-1.7 0-2.2 1.6-3.4 1.7-1.2 5-1.2h2v-.9q0-1-.7-1.6-.6-.6-1.9-.6-1 0-1.6.5-.5.5-.5 1.3h-3.6q0-1 .4-1.7.4-.8 1.1-1.4.8-.6 1.9-1 1.1-.4 2.5-.4 1.3 0 2.4.4 1.1.3 1.9.9.8.6 1.3 1.5.4 1 .4 2.2v6q0 1.2.2 2l.4 1.2v.2zm-3.4-2.5l1-.2.8-.3.7-.5.4-.5v-2.4h-1.8l-1.5.1-1 .5-.5.7q-.2.4-.2.9 0 .7.5 1.2t1.6.5zm23.3-4.4q0 1.5-.4 2.8-.4 1.3-1 2.3-.8 1-1.8 1.5-1 .6-2.3.6-1.2 0-2-.4-.9-.4-1.5-1.1v6.6h-3.6v-19.5h3.3l.1 1.4q.7-.8 1.6-1.2.9-.5 2-.5 1.4 0 2.4.6 1 .5 1.7 1.4.7 1 1.1 2.3.4 1.3.4 2.9zm-3.6-.3q0-.9-.2-1.7l-.5-1.3q-.4-.6-1-.9-.5-.3-1.2-.3-1 0-1.6.4-.6.3-1 1v5.9q.4.7 1 1 .6.5 1.6.5.8 0 1.3-.4.5-.3.9-.9l.5-1.4.1-1.6zm13.7 7.5q-1.6 0-3-.6-1.2-.5-2.2-1.4-1-1-1.5-2.2-.5-1.2-.5-2.7v-.5q0-1.6.5-3 .5-1.2 1.5-2.2.9-1 2.1-1.5 1.3-.5 2.7-.5 1.6 0 2.7.5 1.2.5 2 1.4.9.9 1.3 2.2.5 1.2.5 2.8v1.5H805q.1.7.4 1.3l.8 1q.5.5 1.2.7.6.3 1.4.3l1-.1q.6-.1 1-.4l1-.5.7-.7 1.8 2-1 1q-.4.4-1.2.8l-1.6.5q-1 .3-2 .3zm-.4-11.7q-.6 0-1.1.2l-1 .6-.6 1-.4 1.2h6v-.3l-.2-1q-.2-.6-.6-1l-.9-.5q-.5-.2-1.2-.2zM760 441.7l.1-1.5.4-1.3.5-1.2.6-.9q.3-.4.7-.6l.6-.5.3 1-.6.6q-.4.4-.6 1-.3.7-.4 1.5-.2.9-.2 2v.1l.2 2q.1.8.4 1.4.2.6.6 1l.6.7-.3.9-.6-.4-.7-.7-.6-.9-.5-1.1-.4-1.4-.1-1.5zm9-.8l1.3-2h1.8l-2.2 3 2.2 3.3h-1.7l-1.5-2-1.4 2h-1.8l2.2-3.2-2-3.1h1.7zm7.5 4.2v.7l-.3.6-.4.7-.5.5-.8-.4q0-.3.2-.5l.2-.4v-.6l.1-.5v-1.4h1.5zm6.6-2.5l.2.6 1.7-4.3h1.8l-3.2 7.3-.3.5-.4.5-.6.4q-.4.2-.9.2h-.4l-.2-.1h-.2l.2-1.3h.9l.2-.3.2-.3v-.1l.5-.8-2.7-6h1.8l1.4 3.7zm8.8-.7v1.5l-.4 1.3-.6 1.2q-.2.5-.6.9l-.7.7-.7.4-.3-.9q.4-.2.7-.7l.6-1 .4-1.5q.2-.8.2-2 0-1.1-.2-2l-.4-1.5-.6-1q-.3-.5-.7-.7l.3-.9.7.4.7.7q.4.4.6 1l.6 1 .3 1.4.1 1.5zM721 456l1.5 2.4h-1l-1.7-2.3v-.1l1.6-2.3h1zm2 0l1.5 2.4h-1l-1.7-2.3v-.1l1.6-2.3h1zm5-3.2v.8l.9-.7 1-.2 1 .1q.3.1.6.5l.5.7.1 1.2v4h-1.6v-4.6l-.3-.4-.4-.2h-.5l-.7.1-.5.5v4.5h-1.6V453zm5.5 3l.2-1.2.5-1q.4-.5 1-.7.5-.2 1.3-.2.7 0 1.2.2.6.2 1 .7.4.4.6 1 .2.6.2 1.3v.1q0 .7-.2 1.3-.2.6-.6 1-.4.5-1 .7-.5.2-1.2.2t-1.3-.2q-.6-.2-1-.7l-.5-1q-.2-.6-.2-1.3zm1.6.2v.8l.3.6.4.4.7.1.6-.1.4-.4.2-.6.1-.8v-.8l-.3-.6-.4-.5-.6-.1-.7.1-.4.5-.2.6-.1.7zm7.3-3.2v.8l.9-.7 1-.2 1 .1q.3.1.6.5l.5.7q.2.5.2 1.2v4h-1.7v-4.6l-.3-.4-.4-.2h-.5l-.7.1-.5.5v4.5h-1.6V453zm11.4 3.2h-4.9v-1.3h5zm4.6 3.2q-.8 0-1.4-.2-.6-.2-1-.7-.4-.4-.6-1-.3-.5-.3-1.1v-.3q0-.7.3-1.3.2-.6.6-1 .4-.5 1-.7.5-.2 1.2-.2t1.2.2q.6.2 1 .6l.5 1q.2.6.2 1.3v.7h-4.3l.2.6.3.4.6.3.6.1h.5l.4-.2.4-.2.4-.3.8.9-.4.4-.6.4-.7.2-1 .1zm-.2-5.2h-.5l-.4.3-.3.5-.2.5h2.7l-.1-.6q0-.2-.3-.4l-.4-.2-.5-.1zm7.2.8l1.4-2h1.8l-2.2 3 2.2 3.3h-1.7l-1.5-2-1.4 2h-2l2.2-3.2-2-3.1h1.7l1.3 2zm7.3-3.6v1.6h2.4v1.2h-2.4v3.4l.3.3q.1.2.4.2l.4.1h.8l.3-.1h.3l.1 1-.4.2-.5.1-.5.1h-.5l-1-.1q-.4-.1-.7-.4l-.5-.8-.1-1v-3h-1.5v-1h1.5v-1.6h1.6zm7.3 8l-1.4-.2q-.5-.2-1-.7-.4-.4-.6-1-.3-.5-.3-1.1v-.3q0-.7.3-1.3.2-.6.6-1 .4-.5 1-.7.5-.2 1.2-.2t1.2.2q.6.2 1 .6l.5 1q.2.6.2 1.3v.7h-4.3l.2.6.3.4.6.3.6.1h.5l.4-.2.4-.2.4-.3.8.9-.4.4-.6.4-.7.2-1 .1zm-.2-5.2h-.5l-.4.3-.3.5-.2.5h2.7l-.1-.6q0-.2-.3-.4l-.4-.2-.5-.1zm5.8-1.2v.8l1-.7q.4-.2 1-.2l.8.1q.5.1.7.5l.5.7q.2.5.2 1.2v4H788v-4.6l-.3-.4-.4-.2h-.5l-.7.1-.5.5v4.5H784V453zm9.8 4.6v-.3l-.3-.2-.5-.2-.7-.1-1-.3-.8-.4-.5-.6q-.2-.3-.2-.7 0-.4.2-.7l.5-.7.9-.4 1.1-.1 1.2.1 1 .4.5.7.2.8h-1.7q0-.4-.3-.6-.3-.3-.9-.3-.5 0-.8.2-.3.2-.3.5v.3l.2.2.4.2.7.1 1 .3q.6.1 1 .4l.5.5q.2.3.2.8l-.2.8-.6.6-.9.4-1.2.1q-.7 0-1.2-.2-.6-.1-1-.4l-.5-.7-.2-.8h1.6l.1.4.3.3.5.2h.5l.9-.1q.3-.2.3-.5zm3.6-4.6h3.4v5h1.7v1.3H799V458h1.7v-3.7H799V453zm1.6-1.6l.1-.4.2-.3.3-.1.4-.1q.4 0 .7.2l.2.6q0 .4-.2.7-.3.2-.7.2h-.4l-.3-.2-.2-.3v-.4zm10.8 4.8l-.1 1.3-.5 1q-.3.5-.8.7-.4.3-1 .3t-1-.3l-.7-.5v.6h-1.6v-9h1.7v3.3q.2-.4.6-.5.4-.2 1-.2l1 .2q.5.2.8.7l.5 1 .1 1.3zm-1.6-.1v-.7l-.3-.6q-.1-.3-.4-.4-.2-.2-.6-.2-.4 0-.7.2-.3.2-.4.5v2.5q.1.4.4.5.3.2.7.2l.6-.1q.3-.1.4-.4l.2-.6v-.8zm3.5-5.8h3.5v7.7h1.8v1.3h-5.3V458h1.8v-6.3h-1.9zm9.9 9.2q-.7 0-1.3-.3-.6-.2-1-.6-.5-.5-.7-1-.3-.6-.3-1.2v-.3q0-.7.3-1.3.2-.6.6-1 .4-.5 1-.7l1.2-.2q.7 0 1.2.2.6.2 1 .6l.5 1q.2.6.2 1.3v.7h-4.3l.2.6.4.4.5.3.6.1h.5l.4-.2.4-.2.4-.3.8.9-.4.4-.6.4-.7.2-.9.1zm-.2-5.3h-.5l-.4.4q-.2.1-.3.4l-.2.6h2.7v-.2l-.1-.4q0-.3-.2-.5l-.5-.2-.5-.1zm5.8-.3l1.6 2.3-1.6 2.4h-1l1.4-2.4-1.5-2.3h1zm2 0l1.6 2.3-1.6 2.4h-1l1.4-2.4-1.5-2.3h1z" class="g"/><path d="M796.2 376.2l-.2 1-.3.9-.4.9-.5.8q-.3.4-.7.6-.4.2-1 .2-.5 0-.8-.3-.3-.3-.4-.9l-.4.5-.5.3-.4.3h-.6l-.6-.1q-.3-.2-.4-.5-.2-.2-.2-.6l-.1-.6v-1.3l.3-1 .3-1 .5-1 .7-.8.9-.5q.4-.2 1-.2 1 0 1.6.9l-1 4.6-.1.3v.7l.4.2q.4 0 .6-.2l.5-.5.3-.6.3-.8v-.7l.2-.6v-2.1q0-.6-.2-1l-.5-.9q-.3-.4-.8-.6l-1.1-.3q-.8 0-1.4.3-.7.2-1.2.7-.6.4-1 1l-.7 1.3-.6 1.3-.3 1.3-.1 1.2v1.2q0 .6.3 1 .1.6.5 1l.9.6q.5.2 1.2.2.6 0 1-.2.6-.1 1.1-.4l.2 1.1-1.1.5-1.2.2q-1 0-1.6-.3l-1.1-.7-.8-1-.4-1.4-.1-1.4.1-1.5.4-1.6.7-1.7.9-1.5q.5-.7 1.2-1.2.6-.5 1.4-.8.8-.3 1.7-.3.8 0 1.4.3l1 .7q.5.5.7 1l.4 1.3.1 1.4v1.4zm-6.3 1.2v1.5q0 .2.2.3l.3.1h.5l.4-.3.3-.3.3-.4 1-4.1-.2-.1h-1l-.6.5-.5.6-.3.8-.2.7-.2.7zm10.4-3.8l-.2 1.5.7-.7.7-.5.9-.4h1q.7 0 1.3.3.6.3.9.8.3.5.4 1.2v1.4l-1 6.3h-1.6l1-6.3v-.9q0-.4-.2-.7-.2-.4-.6-.5-.3-.2-.9-.2h-.8l-.7.4-.6.5-.6.6-1.2 7h-1.7l1.8-9.8h1.4zm8.2 5q0-.8.3-1.4l.5-1.2q.3-.6.8-1 .4-.5 1-.9l1-.5q.7-.2 1.5-.2 1 0 1.7.5.8.4 1.2 1.1.5.7.6 1.6.2 1 0 1.8v.2q0 1-.5 2-.4.9-1 1.6-.7.7-1.5 1-1 .5-2 .5t-1.8-.5q-.7-.4-1.1-1-.5-.8-.6-1.7-.2-.8-.1-1.8zm1.6.1v1.6l.3.8.4.6.6.4q.3.2.8.2.8 0 1.3-.3.6-.3 1-.9.5-.5.7-1.2l.3-1.3v-1.4q0-.6-.2-1.1-.2-.6-.7-1-.4-.3-1.1-.3-.8 0-1.4.3-.5.3-1 .9l-.6 1.2-.3 1.3zm12.1-5l-.2 1.4.7-.7.7-.5.9-.3q.4-.2 1-.2.7 0 1.3.4.6.3.9.8l.5 1.2v1.4l-1 6.3h-1.7l1-6.3v-.9q0-.4-.2-.7l-.5-.5q-.4-.2-1-.2h-.8l-.7.4-.6.5-.6.6-1.2 7h-1.6l1.7-9.8zm12.1 10q-1 0-1.7-.5-.8-.4-1.3-1t-.7-1.5q-.2-.8-.1-1.8v-.4l.3-1.3.6-1.2.7-1 1-.8q.5-.4 1.2-.6.6-.2 1.3-.2 1 0 1.7.5.7.4 1.1 1 .5.7.6 1.6v2.5h-7v1.2l.5 1q.3.5.7.8l1.2.3q.8 0 1.6-.4.7-.3 1.3-1l1 .9-.9.8-1 .6-1 .3-1.2.1zm1.2-8.9q-.6 0-1.1.2l-1 .7-.6.9-.5 1h5.1q.2-.6 0-1 0-.5-.3-1-.2-.3-.6-.5-.4-.3-1-.3zm10.4 2.5l3.1-3.7h2l-4.3 5 2.8 4.9h-1.8l-2-3.8-3.2 3.8h-2l4.4-5-2.7-4.9h1.8l2 3.7zm12-6l-.4 2.3h3.6l-.2 1.3h-3.6l-1 5.4v.7l.3.6q.1.3.4.5l.7.1h1l1-.3.2 1.2q-.6.4-1.3.5h-1.3q-.8 0-1.3-.2-.5-.3-.8-.8-.3-.4-.4-1v-1.3l.8-5.4h-2.5l.2-1.3h2.5l.5-2.4h1.6zm9.3 12.4q-1 0-1.8-.5-.7-.4-1.2-1t-.8-1.5q-.2-.8 0-1.8v-.4q0-.6.3-1.3l.5-1.2.8-1q.4-.5 1-.8.5-.4 1.1-.6l1.4-.2q1 0 1.7.5.7.4 1 1 .5.7.6 1.6.2.9 0 1.8v.7H865v1.2q0 .6.4 1 .3.5.8.8l1.1.3q.9 0 1.6-.4.7-.3 1.3-1l1 .9-.8.8-1 .6-1 .3-1.2.1zm1.2-8.9q-.7 0-1.2.2l-.9.7-.7.9-.4 1h5.1v-1q0-.5-.3-1l-.7-.5q-.4-.3-1-.3zm8.6-1.2l-.2 1.5.6-.7.8-.5.8-.3 1-.2q.8 0 1.4.4.5.3.9.8.3.5.4 1.2v1.4l-1 6.3h-1.6l1-6.3v-.9q0-.4-.2-.7-.2-.3-.6-.5-.4-.2-.9-.2h-.8l-.7.4-.7.5-.5.6-1.2 7h-1.7l1.7-9.8h1.5zm14.6 7.2l-.1-.7q-.2-.3-.5-.4l-.7-.3-.7-.2-1.1-.3-1.1-.5-.8-.8q-.3-.5-.3-1.2l.2-1 .5-.7.7-.6.8-.4 1-.2h.9q.7 0 1.3.2l1.1.5q.5.4.8 1 .3.6.3 1.3h-1.7l-.1-.7-.4-.5-.7-.4h-1.5l-.7.3-.6.4q-.2.3-.2.7v.7l.6.4.6.3.7.1.8.2.7.3.8.4.6.5.3.6q.2.4.2.9 0 .8-.5 1.4-.4.5-1 .9l-1.3.5-1.4.2-1.4-.2-1.2-.7q-.6-.4-.9-1-.3-.6-.3-1.4h1.7l.1.9.5.5q.3.3.7.4h1.6l.8-.2q.4-.2.6-.5.3-.3.3-.7zm6-7.2h5L901 382h3.1l-.2 1.5h-8l.2-1.5h3.2l1.3-7h-3.3l.3-1.4zm3.6-2.5q0-.5.2-.8l.8-.3.4.1.3.2.2.3v.4q0 .5-.2.7-.3.3-.8.3-.4 0-.7-.2-.2-.3-.2-.7zm14.4 7.5l-.2 1.2-.5 1.2q-.2.6-.6 1l-.8 1-1.1.5q-.6.2-1.3.2-.8 0-1.5-.4-.6-.3-1-1l-.4 1.2h-1.5l2.4-14h1.7l-1 5.2q.5-.6 1.2-1 .7-.3 1.6-.3.7 0 1.2.3.5.2.8.6.4.3.6.8l.4 1v2.3zm-1.6-.2v-1.2q0-.6-.2-1.1-.2-.5-.6-.9-.4-.3-1.1-.3h-.8l-.7.4-.6.5-.5.6-.7 4.3q.2.7.7 1.1.5.4 1.3.4t1.3-.3q.6-.3 1-.8l.5-1.2.4-1.3zm6.3-9h4.9L923 382h3.1l-.2 1.5h-8l.2-1.5h3.2l2-11H920zm12.6 14.3q-1 0-1.8-.5-.7-.4-1.2-1t-.7-1.5q-.2-.8-.2-1.8v-.4l.4-1.3.5-1.2.8-1q.4-.5 1-.8.5-.4 1.1-.6l1.4-.2q1 0 1.7.5.7.4 1.1 1 .4.7.6 1.6v1.8l-.1.7h-6.8v1.2q.1.6.4 1 .3.5.8.8l1.2.3q.8 0 1.5-.4.8-.3 1.3-1l1 .9-.8.8-1 .6-1 .3-1.2.1zm1.2-8.9l-1.2.2-.9.7q-.4.4-.6.9l-.5 1h5.1v-1q0-.5-.3-1l-.7-.5q-.4-.3-.9-.3z" class="d"/></g><defs><path id="c" d="M693.7 128.5a11.4 11.4 0 0111.3-11.3h142.1a11.4 11.4 0 0111.4 11.3V174a11.4 11.4 0 01-11.4 11.4h-142a11.4 11.4 0 01-11.4-11.4z"/><path id="d" d="M20 333.4A11.4 11.4 0 0131.2 322h166.2a11.4 11.4 0 0111.4 11.4v45.5a11.4 11.4 0 01-11.4 11.3H31.3A11.4 11.4 0 0119.9 379z"/><path id="e" d="M693.7 18.7A11.4 11.4 0 01705 7.4h142.1a11.4 11.4 0 0111.4 11.3v45.5A11.4 11.4 0 01847 75.6H705a11.4 11.4 0 01-11.4-11.4z"/><path id="f" d="M693.7 268.7a11.4 11.4 0 0111.3-11.3h142.1a11.4 11.4 0 0111.4 11.3v45.5a11.4 11.4 0 01-11.4 11.4h-142a11.4 11.4 0 01-11.4-11.4z"/><path id="g" d="M693.6 409a11.4 11.4 0 0111.3-11.4H847a11.4 11.4 0 0111.4 11.3v45.5a11.4 11.4 0 01-11.4 11.4H705a11.4 11.4 0 01-11.4-11.4z"/></defs></svg>