<svg fill="none" stroke-linecap="square" stroke-miterlimit="10" viewBox="0 0 960 540" xmlns="http://www.w3.org/2000/svg" xmlns:xlink="http://www.w3.org/1999/xlink"><clipPath id="a"><path d="m0 0h960v540h-960z"/></clipPath><g clip-path="url(#a)"><path d="m0 0h960v540h-960z" fill="#fff" fill-rule="evenodd"/><path d="m693.672 192.54c0-6.282 5.093-11.375 11.375-11.375h142.068a11.376 11.376 0 0 1 11.376 11.376v45.5c0 6.283-5.093 11.376-11.376 11.376h-142.068c-6.282 0-11.375-5.093-11.375-11.375z" fill="#ff9800" fill-rule="evenodd"/><path d="m693.672 192.54c0-6.282 5.093-11.375 11.375-11.375h142.068a11.376 11.376 0 0 1 11.376 11.376v45.5c0 6.283-5.093 11.376-11.376 11.376h-142.068c-6.282 0-11.375-5.093-11.375-11.375z" stroke="#666" stroke-linecap="butt" stroke-linejoin="round"/><path d="m747.637 211.938q0-.5-.187-.937-.172-.453-.594-.828-.422-.391-1.11-.704-.671-.328-1.687-.593-1.234-.344-2.36-.844-1.124-.516-1.984-1.219-.859-.719-1.375-1.672-.515-.953-.515-2.187 0-1.203.5-2.172.515-.984 1.406-1.672.906-.687 2.125-1.062 1.219-.375 2.656-.375 1.485 0 2.703.437 1.235.422 2.125 1.203.891.781 1.375 1.844.5 1.062.5 2.344h-3.562q-.031-.64-.234-1.172-.204-.531-.61-.906-.39-.391-.984-.61-.578-.219-1.375-.219-.735 0-1.297.188-.563.172-.953.484-.39.313-.594.75-.203.438-.203.953 0 .532.266.97.265.421.765.765.516.344 1.235.64.718.282 1.64.516 1.297.39 2.39.938 1.095.546 1.876 1.296.797.735 1.234 1.704.438.953.438 2.125 0 1.25-.516 2.218-.5.97-1.39 1.641-.876.672-2.094 1.016-1.22.343-2.672.343-.89 0-1.781-.172-.891-.156-1.72-.484-.812-.344-1.515-.844-.703-.515-1.219-1.187-.5-.688-.796-1.547-.297-.86-.297-1.906h3.593q.032.86.297 1.484.282.61.766 1 .484.39 1.172.578.687.172 1.5.172.734 0 1.297-.172.562-.172.953-.469.39-.296.594-.718.218-.422.218-.938zm9.903-7.187q.703-1.032 1.703-1.61 1.016-.593 2.266-.593 1.11 0 2.03.343.923.328 1.58 1.032.67.687 1.046 1.796.375 1.094.375 2.641v8.531h-3.625v-8.547q0-.765-.188-1.312-.187-.547-.546-.875-.344-.344-.844-.5-.485-.172-1.11-.172-.921 0-1.593.328-.657.328-1.094.906v10.172h-3.625v-20h3.625zm21.184 12.14q-.14-.265-.235-.593-.078-.344-.156-.72-.297.329-.687.61-.391.281-.875.5-.47.219-1.047.344-.563.125-1.219.125-1.078 0-1.984-.313-.907-.312-1.563-.875-.656-.562-1.015-1.328-.36-.78-.36-1.687 0-2.235 1.656-3.453 1.657-1.219 4.954-1.219h2.015v-.828q0-1.016-.672-1.61-.656-.593-1.906-.593-1.11 0-1.625.484-.5.469-.5 1.266h-3.61q0-.907.391-1.703.407-.813 1.157-1.422.765-.61 1.859-.969 1.11-.36 2.531-.36 1.266 0 2.36.313 1.109.313 1.906.922.812.61 1.265 1.547.47.922.47 2.156v6.031q0 1.141.14 1.891.14.734.406 1.266v.218zm-3.453-2.53q.547 0 1.015-.126.469-.14.844-.344.375-.218.64-.484.282-.266.438-.531v-2.422h-1.844q-.843 0-1.453.156-.593.156-.968.453-.375.297-.563.703-.187.407-.187.891 0 .734.515 1.219.516.484 1.563.484zm23.293-4.376q0 1.531-.36 2.844-.359 1.312-1.062 2.281-.688.953-1.719 1.5-1.015.547-2.343.547-1.141 0-2-.39-.86-.391-1.5-1.094v6.64h-3.61v-19.5h3.344l.125 1.375q.656-.781 1.531-1.203.89-.437 2.078-.437 1.344 0 2.36.515 1.03.516 1.734 1.469.703.937 1.063 2.266.359 1.312.359 2.906zm-3.61-.281q0-.875-.171-1.656-.157-.782-.5-1.344-.344-.563-.891-.89-.547-.329-1.313-.329-.953 0-1.562.375-.594.375-.938 1.047v5.89q.344.657.938 1.063.61.39 1.594.39.765 0 1.297-.327.547-.344.89-.922.344-.594.5-1.375.157-.782.157-1.64v-.282zm13.794 7.453q-1.625 0-2.953-.531-1.329-.547-2.282-1.453-.953-.922-1.468-2.157-.516-1.25-.516-2.672v-.515q0-1.625.5-2.953.516-1.328 1.422-2.297.922-.969 2.172-1.5t2.718-.531q1.516 0 2.704.5 1.203.5 2.03 1.421.829.907 1.25 2.188.438 1.281.438 2.828v1.531h-9.562q.11.72.422 1.313.328.594.812 1.031.5.422 1.14.656.641.235 1.391.235.532 0 1.063-.094.531-.11 1-.313.484-.203.906-.5.422-.312.735-.703l1.796 1.953q-.328.47-.875.938-.53.469-1.28.828-.735.344-1.641.563-.891.234-1.922.234zm-.438-11.688q-.61 0-1.125.22-.5.218-.89.624-.375.406-.641.969-.25.547-.39 1.234h5.937v-.28q-.016-.579-.219-1.079-.187-.516-.562-.875-.36-.375-.891-.594-.531-.219-1.219-.219zm-97.963 26.763q0-.906.14-1.719.141-.812.375-1.5.235-.687.563-1.25.328-.562.672-1 .36-.437.734-.734.39-.313.75-.469l.36.984q-.375.282-.735.75-.36.47-.656 1.172-.281.703-.469 1.641-.187.922-.187 2.125v.156q0 1.203.187 2.14.188.938.469 1.626.297.703.656 1.172.36.484.735.765l-.36.97q-.36-.157-.75-.47-.375-.297-.734-.734-.344-.438-.672-1-.328-.563-.563-1.25-.234-.688-.375-1.484-.14-.813-.14-1.735zm11.06 3.86q-.062-.126-.109-.298-.047-.171-.078-.359-.14.156-.344.313-.187.14-.437.25-.235.093-.516.156-.281.062-.625.062-.531 0-.984-.156-.453-.156-.782-.422-.328-.281-.515-.672-.172-.39-.172-.843 0-1.11.828-1.72.828-.609 2.469-.609h1.015v-.421q0-.5-.328-.797-.328-.297-.953-.297-.562 0-.812.234-.25.235-.25.625h-1.814q0-.437.188-.844.203-.406.578-.703.39-.312.937-.484.547-.188 1.266-.188.64 0 1.187.157.547.156.954.468.406.297.625.766.234.469.234 1.078v3.016q0 .562.062.937.079.375.22.641v.11h-1.845zm-1.718-1.266q.265 0 .5-.063.234-.078.422-.172.203-.109.328-.234.14-.14.218-.281v-1.203h-.921q-.422 0-.72.078-.296.078-.5.234-.187.14-.28.344-.079.203-.079.453 0 .36.25.61.266.234.782.234zm8.435-.047q.266 0 .5-.078.25-.078.422-.219.188-.14.282-.344.109-.203.109-.453h1.703q0 .547-.234 1.016-.235.468-.641.812-.406.328-.953.531-.547.188-1.156.188-.813 0-1.438-.281-.61-.282-1.031-.75-.406-.485-.625-1.125-.203-.657-.203-1.407v-.187q0-.75.203-1.39.203-.657.625-1.126.422-.484 1.031-.765.61-.282 1.422-.282.656 0 1.203.204.563.187.953.546.407.344.625.86.219.5.219 1.125h-1.703q0-.266-.094-.5-.078-.235-.265-.39-.172-.173-.422-.266-.235-.11-.532-.11-.437 0-.718.172-.266.172-.438.469t-.234.672q-.063.375-.063.781v.187q0 .422.063.797.062.375.219.672.171.281.453.469.28.172.718.172zm8.202-7.453v1.718h2.625v1.344h-2.625v3.016q0 .39.078.656.094.25.25.406.172.141.406.22.234.062.516.062.203 0 .422-.016.218-.031.421-.047.204-.031.375-.062.172-.047.297-.079l.172 1.25q-.187.11-.453.188-.25.078-.531.125-.281.062-.594.094-.312.031-.61.031-.577 0-1.046-.156-.469-.157-.813-.469-.328-.328-.515-.828-.188-.5-.188-1.188v-3.203h-1.61v-1.344h1.61v-1.718zm9.17 7.781q-.36.516-.86.828-.5.297-1.109.297-.547 0-1-.172-.453-.172-.781-.531-.328-.375-.516-.938-.172-.578-.172-1.375v-4.172h1.813v4.188q0 .422.062.719.063.297.203.484.141.172.36.25.219.078.531.078.547 0 .875-.203.344-.219.531-.578v-4.938h1.813v7.047h-1.64zm7.904.984q-.062-.125-.11-.297-.046-.171-.077-.359-.14.156-.344.313-.188.14-.438.25-.234.093-.515.156-.281.062-.625.062-.531 0-.985-.156-.453-.156-.78-.422-.329-.281-.516-.672-.172-.39-.172-.843 0-1.11.828-1.72.828-.609 2.469-.609h1.015v-.421q0-.5-.328-.797-.328-.297-.953-.297-.563 0-.813.234-.25.235-.25.625h-1.812q0-.437.187-.844.204-.406.579-.703.39-.312.937-.484.547-.188 1.266-.188.64 0 1.187.157.547.156.953.468.407.297.625.766.235.469.235 1.078v3.016q0 .562.062.937.078.375.219.641v.11h-1.844zm-1.719-1.265q.266 0 .5-.063.235-.078.422-.172.203-.109.328-.234.141-.14.22-.281v-1.203h-.923q-.422 0-.718.078-.297.078-.5.234-.188.14-.282.344-.078.203-.078.453 0 .36.25.61.266.234.781.234zm5.702-8.735h3.937v8.532h2.016v1.468h-5.953v-1.468h2.11v-7.047h-2.11zm12.467 7.532q0-.266-.094-.485-.078-.219-.297-.406-.203-.188-.547-.344-.344-.172-.844-.312-.625-.157-1.187-.407-.563-.265-1-.625-.422-.359-.688-.828-.25-.484-.25-1.093 0-.594.25-1.079.266-.5.704-.843.453-.344 1.062-.532.625-.187 1.328-.187.75 0 1.36.219.625.218 1.062.61.438.374.688.921.25.531.25 1.156h-1.782q-.015-.312-.125-.578-.093-.266-.297-.453-.187-.203-.484-.297-.297-.11-.703-.11-.36 0-.64.094-.282.079-.485.235-.188.156-.297.375-.094.219-.094.469 0 .265.125.484.141.219.391.39.25.172.61.313.374.14.827.266.657.187 1.204.468.546.266.937.641.39.375.61.86.218.468.218 1.062 0 .625-.25 1.11-.25.484-.703.827-.437.329-1.047.5-.61.172-1.328.172-.453 0-.906-.078-.438-.078-.844-.25-.406-.172-.766-.422-.343-.265-.609-.593-.25-.344-.406-.766-.14-.438-.14-.953h1.796q.016.422.14.734.141.297.391.5.25.188.578.281.344.094.766.094.36 0 .64-.078.282-.094.47-.234.203-.157.296-.36.11-.218.11-.468zm6.467-6.297v1.718h2.625v1.344h-2.625v3.016q0 .39.078.656.094.25.25.406.172.141.406.22.234.062.516.062.203 0 .422-.016.218-.031.421-.047.204-.031.375-.062.172-.047.297-.079l.172 1.25q-.187.11-.453.188-.25.078-.531.125-.281.062-.594.094-.312.031-.61.031-.577 0-1.046-.156-.469-.157-.813-.469-.328-.328-.515-.828-.188-.5-.188-1.188v-3.203h-1.61v-1.344h1.61v-1.718zm9.076 8.765q-.063-.125-.11-.297-.046-.171-.078-.359-.14.156-.343.313-.188.14-.438.25-.234.093-.515.156-.282.062-.625.062-.532 0-.985-.156-.453-.156-.781-.422-.328-.281-.516-.672-.172-.39-.172-.843 0-1.11.829-1.72.828-.609 2.468-.609h1.016v-.421q0-.5-.328-.797-.328-.297-.953-.297-.563 0-.813.234-.25.235-.25.625h-1.812q0-.437.187-.844.203-.406.578-.703.39-.312.938-.484.547-.188 1.265-.188.641 0 1.188.157.547.156.953.468.406.297.625.766.234.469.234 1.078v3.016q0 .562.063.937.078.375.219.641v.11h-1.844zm-1.719-1.265q.266 0 .5-.063.235-.078.422-.172.203-.109.328-.234.14-.14.219-.281v-1.203h-.922q-.422 0-.719.078t-.5.234q-.187.14-.28.344-.08.203-.08.453 0 .36.25.61.267.234.782.234zm10.373-5.907q.422 0 .766.063.344.047.562.11l-.265 1.812q-.36-.094-.735-.125-.375-.047-.718-.047-.75 0-1.219.297-.453.281-.688.828v4.234h-1.796v-7.047h1.671l.094 1.157q.422-.594 1.016-.938.61-.344 1.312-.344zm6.264-1.593v1.718h2.625v1.344h-2.625v3.016q0 .39.078.656.094.25.25.406.172.141.407.22.234.062.515.062.203 0 .422-.016.219-.031.422-.047.203-.031.375-.062.172-.047.297-.079l.172 1.25q-.188.11-.453.188-.25.078-.532.125-.28.062-.593.094-.313.031-.61.031-.578 0-1.047-.156-.468-.157-.812-.469-.328-.328-.516-.828-.187-.5-.187-1.188v-3.203h-1.61v-1.344h1.61v-1.718zm11.577.781h-2.922v7.984h-1.828v-7.984h-2.891v-1.484h7.64v1.484zm1.591.937h3.829v5.579h1.906v1.468h-5.735v-1.468h2v-4.094h-2zm1.875-1.796q0-.204.063-.375.078-.188.219-.313.14-.14.328-.203.187-.078.422-.078.484 0 .765.281.282.266.282.688 0 .421-.282.703-.28.265-.765.265-.235 0-.422-.078-.188-.078-.328-.203t-.22-.297q-.062-.187-.062-.39zm6.764 1.796.047.86q.203-.453.547-.719.36-.266.875-.266.844 0 1.11.75.202-.359.53-.546.329-.204.782-.204.312 0 .594.125.28.11.484.375.203.25.312.657.11.406.11.984v5.031h-1.64v-5.03q0-.204-.048-.329-.03-.14-.109-.203-.063-.078-.172-.11-.094-.03-.187-.03-.188 0-.329.093-.125.078-.187.234v5.375h-1.594v-5.03q0-.204-.047-.329-.03-.14-.109-.203-.063-.078-.156-.11-.094-.03-.188-.03-.219 0-.344.124-.125.11-.187.313v5.265h-1.656v-7.047zm10.28 7.172q-.813 0-1.485-.265-.656-.266-1.125-.719-.468-.469-.734-1.078-.25-.625-.25-1.344v-.25q0-.812.25-1.469.25-.672.703-1.156.453-.484 1.078-.75t1.36-.266q.765 0 1.359.25t1 .704q.422.453.64 1.093.22.641.22 1.422v.766h-4.782q.047.36.203.656.172.297.406.516.25.203.563.328.328.11.703.11.281 0 .531-.048.266-.047.5-.14.25-.11.453-.25.22-.157.375-.36l.907.97q-.172.25-.453.483-.266.22-.641.407-.36.172-.813.281-.437.11-.968.11zm-.203-5.828q-.313 0-.563.11-.25.093-.453.296-.188.204-.328.485-.125.281-.188.625h2.97v-.14q-.017-.282-.11-.532-.094-.266-.282-.453-.187-.188-.453-.281-.25-.11-.593-.11zm9.607 2q0 .89-.14 1.688-.141.797-.391 1.484-.25.688-.578 1.25-.328.578-.703 1.016-.375.453-.766.765-.39.313-.75.47l-.344-.97q.36-.28.719-.75.36-.468.656-1.172.297-.703.469-1.64.187-.938.187-2.14v-.157q0-1.203-.187-2.14-.188-.938-.484-1.641-.297-.703-.657-1.172-.359-.485-.703-.75l.344-.969q.36.156.75.469.39.312.766.765.375.438.703 1.016.328.563.578 1.25.25.688.39 1.484.141.797.141 1.688z" fill="#fff"/><path d="m704.68 249.596h142.582v30.015h-142.582z" fill="#bdbdbd" fill-rule="evenodd"/><path d="m704.68 249.596h142.582v30.015h-142.582z" stroke="#666" stroke-linecap="butt" stroke-linejoin="round"/><path d="m717.364 261.58-.094 1.671h-.625v-2.187h.72v.515zm6.66 6.484q-.046-.094-.078-.235-.031-.14-.047-.297-.125.125-.28.235-.157.11-.345.203-.187.078-.406.125-.219.062-.453.062-.39 0-.719-.109-.312-.125-.531-.313-.219-.203-.344-.468-.125-.266-.125-.563 0-.406.157-.703.171-.312.468-.516.297-.203.703-.296.422-.11.938-.11h.922v-.39q0-.22-.078-.391-.078-.188-.235-.313-.14-.125-.36-.187-.218-.078-.483-.078-.25 0-.454.062-.203.063-.343.172-.125.11-.203.25-.079.14-.079.297h-.843q0-.266.125-.516.14-.265.39-.468.266-.219.625-.344.36-.125.828-.125.407 0 .766.11.36.093.625.296.266.203.406.516.157.312.157.734v2.281q0 .25.046.532.047.265.125.468v.079zm-1.484-.641q.234 0 .453-.063.219-.062.39-.171.173-.11.298-.235.14-.14.203-.281v-1h-.781q-.735 0-1.157.219-.406.218-.406.687 0 .188.063.344.062.14.187.266.125.109.313.171.187.063.437.063zm5.942.047q.234 0 .437-.063.219-.078.39-.203.173-.14.266-.312.11-.172.11-.375h.797q0 .328-.172.625-.156.297-.438.531-.281.219-.64.36-.36.124-.75.124-.563 0-.985-.203-.406-.203-.687-.531-.281-.344-.422-.781-.14-.453-.14-.953v-.188q0-.484.14-.922.14-.453.422-.797.281-.343.687-.53.422-.204.985-.204.437 0 .797.14.375.141.64.376.266.234.406.562.157.328.157.703h-.797q0-.219-.094-.422-.094-.203-.25-.343-.156-.157-.39-.235-.22-.094-.47-.094-.39 0-.656.157-.265.156-.437.422-.156.25-.234.562-.063.313-.063.625v.188q0 .328.063.656.078.312.234.562.172.25.437.407.266.156.657.156zm5.488-5.531v1.203h1.89v.64h-1.89v2.688q0 .281.078.469.078.187.203.296.125.11.282.157.171.047.359.047.14 0 .281-.016.156-.016.281-.031.141-.032.266-.047.125-.031.203-.047l.11.594q-.094.062-.25.11-.141.046-.329.077-.171.031-.375.047-.203.031-.39.031-.328 0-.625-.093-.281-.094-.485-.297-.203-.203-.328-.516-.125-.328-.125-.781v-2.688h-1.297v-.64h1.297v-1.203zm6.8 5.453q-.233.36-.608.562-.375.203-.86.203-.375 0-.703-.125-.312-.125-.531-.375-.219-.25-.344-.64-.125-.407-.125-.953v-2.922h.844v2.937q0 .39.062.656.078.266.203.422.125.157.297.22.188.062.438.062.515 0 .828-.204.312-.203.469-.562v-3.531h.86v4.922h-.767l-.062-.672zm5.646.672q-.047-.094-.079-.235-.03-.14-.046-.297-.125.125-.282.235-.156.11-.343.203-.188.078-.407.125-.218.062-.453.062-.39 0-.719-.109-.312-.125-.53-.313-.22-.203-.345-.468-.125-.266-.125-.563 0-.406.157-.703.172-.312.468-.516.297-.203.704-.296.421-.11.937-.11h.922v-.39q0-.22-.078-.391-.078-.188-.235-.313-.14-.125-.359-.187-.219-.078-.484-.078-.25 0-.453.062-.204.063-.344.172-.125.11-.203.25-.078.14-.078.297h-.844q0-.266.125-.516.14-.265.39-.468.266-.219.625-.344.36-.125.829-.125.406 0 .765.11.36.093.625.296.266.203.406.516.157.312.157.734v2.281q0 .25.047.532.046.265.125.468v.079zm-1.485-.641q.235 0 .453-.063.22-.062.391-.171.172-.11.297-.235.14-.14.203-.281v-1h-.781q-.735 0-1.157.219-.406.218-.406.687 0 .188.063.344.062.14.187.266.125.109.313.171.187.063.437.063zm3.973-6.36h2.516v6.266h1.61v.735h-4.126v-.735h1.672v-5.531h-1.672v-.734zm8.942 5.329q0-.313-.141-.516-.14-.219-.36-.36-.218-.14-.484-.234-.25-.093-.5-.172-.344-.109-.719-.265-.359-.172-.656-.406-.297-.235-.484-.547-.188-.313-.188-.75 0-.422.188-.75.187-.344.484-.578.313-.235.703-.344.391-.125.782-.125.437 0 .828.14.406.141.703.407.312.25.5.625.187.375.203.828h-.86q-.046-.297-.156-.531-.093-.235-.265-.391-.172-.172-.422-.266-.235-.093-.531-.093-.25 0-.485.078-.219.062-.406.203-.172.125-.281.328-.11.203-.11.469 0 .281.141.484.156.188.36.328.218.14.468.235.266.078.484.156.25.078.5.172.25.093.47.234.234.125.437.281.203.157.343.36.157.203.235.453.094.234.094.531 0 .453-.204.781-.187.328-.5.563-.312.219-.718.328-.39.11-.797.11-.438 0-.86-.141-.421-.14-.765-.39-.328-.267-.547-.626-.203-.375-.219-.844h.86q.046.297.171.547.125.235.329.406.203.157.468.25.266.079.563.079.25 0 .484-.063.25-.062.438-.187.187-.125.297-.329.125-.203.125-.468zm4.113-4.453v1.203h1.89v.64h-1.89v2.688q0 .281.078.469.078.187.203.296.125.11.281.157.172.047.36.047.14 0 .281-.016.156-.016.281-.031.141-.032.266-.047.125-.031.203-.047l.11.594q-.094.062-.25.11-.141.046-.329.077-.172.031-.375.047-.203.031-.39.031-.328 0-.625-.093-.282-.094-.485-.297-.203-.203-.328-.516-.125-.328-.125-.781v-2.688h-1.297v-.64h1.297v-1.203zm6.848 6.125q-.047-.094-.078-.235-.032-.14-.047-.297-.125.125-.281.235-.157.11-.344.203-.188.078-.406.125-.22.062-.454.062-.39 0-.718-.109-.313-.125-.532-.313-.218-.203-.343-.468-.125-.266-.125-.563 0-.406.156-.703.172-.312.469-.516.297-.203.703-.296.422-.11.937-.11h.922v-.39q0-.22-.078-.391-.078-.188-.234-.313-.141-.125-.36-.187-.218-.078-.484-.078-.25 0-.453.062-.203.063-.344.172-.125.11-.203.25-.078.14-.078.297h-.844q0-.266.125-.516.14-.265.39-.468.266-.219.626-.344.359-.125.828-.125.406 0 .765.11.36.093.625.296.266.203.407.516.156.312.156.734v2.281q0 .25.047.532.047.265.125.468v.079zm-1.485-.641q.235 0 .454-.063.218-.062.39-.171.172-.11.297-.235.14-.14.203-.281v-1h-.781q-.734 0-1.156.219-.407.218-.407.687 0 .188.063.344.062.14.187.266.125.109.313.171.187.063.437.063zm7.067-4.375q.125 0 .25.016.125 0 .234.015.125.016.22.047.108.016.171.031l-.125.828q-.234-.046-.469-.078-.219-.03-.453-.03-.594 0-.969.28-.359.266-.53.75v3.157h-.845v-4.922h.797l.047.781q.297-.406.719-.64.422-.235.953-.235zm4.363-1.11v1.204h1.891v.64h-1.89v2.688q0 .281.078.469.078.187.203.296.125.11.28.157.173.047.36.047.14 0 .282-.016.156-.016.28-.031.141-.032.266-.047.125-.031.204-.047l.109.594q-.094.062-.25.11-.14.046-.328.077-.172.031-.375.047-.203.031-.39.031-.329 0-.626-.093-.281-.094-.484-.297-.203-.203-.328-.516-.125-.328-.125-.781v-2.688h-1.297v-.64h1.297v-1.203h.843zm8.083.22h-2.047v5.906h-.828v-5.907h-2.047v-.718h4.922v.718zm1.254.984h2.515v4.187h1.61v.735h-4.125v-.735h1.671v-3.453h-1.671zm1.562-1.297q0-.219.125-.36.125-.14.39-.14.25 0 .376.14.125.141.125.36 0 .203-.125.344-.125.125-.375.125-.266 0-.39-.125-.126-.141-.126-.344zm4.285 1.297.032.453q.156-.25.39-.39.25-.157.594-.157.672 0 .906.531.14-.25.375-.39.25-.141.594-.141.531 0 .828.328.297.328.297 1v3.688h-.812v-3.688q0-.625-.563-.61-.156 0-.266.048-.109.03-.187.109-.063.062-.11.156-.03.094-.046.188v3.797h-.797v-3.688q0-.297-.14-.453-.126-.172-.423-.156-.265 0-.406.11-.14.093-.219.265v3.922h-.797v-4.922zm7.395 5.015q-.516 0-.953-.172-.438-.187-.75-.5-.297-.328-.484-.765-.172-.438-.172-.953v-.188q0-.594.187-1.062.203-.469.516-.797.312-.328.719-.5.406-.172.828-.172.53 0 .922.187.406.172.671.5.266.329.391.782.14.437.14.953v.375h-3.53q.015.328.124.625.125.297.329.515.203.22.484.36.281.125.625.125.453 0 .797-.188.36-.187.594-.484l.515.406q-.125.188-.312.36-.188.171-.438.312-.234.125-.547.203-.297.078-.656.078zm-.11-4.422q-.25 0-.484.094-.218.094-.406.281-.187.172-.312.438t-.172.594h2.656v-.063q-.016-.234-.094-.469-.078-.25-.234-.437-.156-.203-.39-.313-.235-.125-.563-.125zm5.708-2.156-.094 1.672h-.625v-2.187h.719zm4.894 5.938q0-.14.032-.25.047-.125.125-.203.093-.094.203-.141.125-.063.297-.063.156 0 .281.063.125.047.203.14.094.079.14.204.048.11.048.25 0 .125-.047.25-.047.11-.14.203-.079.078-.204.125-.125.062-.281.062-.172 0-.297-.062-.11-.047-.203-.125-.078-.094-.125-.203-.032-.125-.032-.25zm0-4q0-.14.032-.25.047-.125.125-.203.093-.094.203-.141.125-.063.297-.063.156 0 .281.063.125.047.203.14.094.079.14.204.048.11.048.25 0 .125-.047.25-.047.11-.14.203-.079.078-.204.14-.125.047-.281.047-.172 0-.297-.047-.11-.062-.203-.14-.078-.094-.125-.203-.032-.125-.032-.25zm13.196 2.875q0-.313-.14-.516-.141-.219-.36-.36-.219-.14-.484-.234-.25-.093-.5-.172-.344-.109-.719-.265-.36-.172-.656-.406-.297-.235-.485-.547-.187-.313-.187-.75 0-.422.187-.75.188-.344.485-.578.312-.235.703-.344.39-.125.781-.125.438 0 .828.14.406.141.703.407.313.25.5.625.188.375.203.828h-.859q-.047-.297-.156-.531-.094-.235-.266-.391-.172-.172-.422-.266-.234-.093-.53-.093-.25 0-.485.078-.219.062-.407.203-.171.125-.28.328-.11.203-.11.469 0 .281.14.484.157.188.36.328.219.14.469.235.265.078.484.156.25.078.5.172.25.093.469.234.234.125.437.281.203.157.344.36.156.203.234.453.094.234.094.531 0 .453-.203.781-.188.328-.5.563-.313.219-.719.328-.39.11-.797.11-.437 0-.859-.141-.422-.14-.766-.39-.328-.267-.547-.626-.203-.375-.218-.844h.86q.046.297.171.547.125.235.328.406.203.157.469.25.265.079.562.079.25 0 .485-.063.25-.062.437-.187.188-.125.297-.329.125-.203.125-.468zm2.504-3.25.031.453q.157-.25.391-.39.25-.157.594-.157.672 0 .906.531.14-.25.375-.39.25-.141.594-.141.531 0 .828.328.297.328.297 1v3.688h-.813v-3.688q0-.625-.562-.61-.156 0-.266.048-.11.03-.187.109-.063.062-.11.156-.031.094-.047.188v3.797h-.796v-3.688q0-.297-.141-.453-.125-.172-.422-.156-.266 0-.406.11-.14.093-.219.265v3.922h-.797v-4.922zm5.348 0h2.516v4.187h1.609v.735h-4.125v-.735h1.672v-3.453h-1.672zm1.562-1.297q0-.219.125-.36.125-.14.391-.14.25 0 .375.14.125.141.125.36 0 .203-.125.344-.125.125-.375.125-.266 0-.39-.125-.126-.141-.126-.344z" fill="#000"/><path d="m161.75 249.158c0-6.283 5.094-11.376 11.376-11.376h166.225a11.376 11.376 0 0 1 11.376 11.376v45.5c0 6.283-5.093 11.376-11.376 11.376h-166.225c-6.282 0-11.375-5.093-11.375-11.375z" fill="#34a853" fill-rule="evenodd"/><path d="m161.75 249.158c0-6.283 5.094-11.376 11.376-11.376h166.225a11.376 11.376 0 0 1 11.376 11.376v45.5c0 6.283-5.093 11.376-11.376 11.376h-166.225c-6.282 0-11.375-5.093-11.375-11.375z" stroke="#666" stroke-linecap="butt" stroke-linejoin="round"/><path d="m197.99 262.664h-8.125v7.844h-3.672v-18.953h12.812v2.984h-9.14v5.157h8.125zm5.058-6.234h7.672v11.14h3.813v2.938h-11.485v-2.937h4.016v-8.188h-4.016zm3.75-3.61q0-.421.141-.78.156-.36.422-.61.281-.25.656-.39.39-.141.86-.141.968 0 1.53.547.563.53.563 1.375 0 .843-.562 1.39-.563.532-1.531.532-.47 0-.86-.141-.375-.14-.656-.39-.266-.266-.422-.61-.14-.36-.14-.781zm23.981 10.798q0 1.562-.36 2.89-.343 1.313-1.03 2.266-.688.937-1.72 1.469-1.015.53-2.39.53-1.234 0-2.14-.452-.907-.47-1.547-1.313l-.172 1.5h-3.266v-20h3.625v7.188q.625-.72 1.469-1.125.86-.407 2-.407 1.39 0 2.422.532 1.031.53 1.719 1.484.687.953 1.03 2.281.36 1.313.36 2.875zm-3.625-.282q0-.86-.14-1.625-.125-.765-.438-1.343-.312-.579-.86-.922-.546-.344-1.374-.344-.985 0-1.61.422-.609.422-.953 1.14v5.61q.344.734.953 1.156.625.406 1.641.406.812 0 1.344-.312.547-.328.86-.89.312-.563.437-1.329.14-.781.14-1.687zm13.762 7.438q-1.625 0-2.953-.531-1.328-.547-2.281-1.454-.953-.921-1.469-2.156-.516-1.25-.516-2.672v-.515q0-1.625.5-2.953.516-1.329 1.422-2.297.922-.97 2.172-1.5 1.25-.532 2.719-.532 1.516 0 2.703.5 1.203.5 2.031 1.422.828.907 1.25 2.188.438 1.281.438 2.828v1.531h-9.563q.11.719.422 1.313.328.593.813 1.03.5.423 1.14.657.64.235 1.39.235.532 0 1.063-.094.532-.11 1-.313.485-.203.907-.5.422-.312.734-.703l1.797 1.953q-.328.469-.875.938-.531.469-1.281.828-.735.344-1.64.562-.892.235-1.923.235zm-.437-11.688q-.61 0-1.125.219-.5.219-.89.625-.376.406-.642.969-.25.547-.39 1.234h5.937v-.281q-.015-.578-.218-1.078-.188-.516-.563-.875-.36-.375-.89-.594-.532-.219-1.22-.219zm19.715-2.922q.812 0 1.5.11.703.11 1.14.25l-.53 3.594q-.72-.172-1.47-.25-.75-.079-1.421-.079-1.532 0-2.454.594-.906.578-1.359 1.672v8.453h-3.625v-14.078h3.375l.172 2.297q.86-1.203 2.047-1.875 1.203-.688 2.625-.688zm18.246 14.344h-3.64l-5.282-12.219v12.22h-3.687v-18.954h3.687l5.235 12.172.015-12.172h3.672zm3.137-7.172q0-1.531.438-2.843.437-1.313 1.296-2.266.86-.969 2.079-1.516 1.234-.547 2.828-.547 1.578 0 2.812.547 1.25.547 2.094 1.516.86.953 1.297 2.266.437 1.312.437 2.843v.282q0 1.546-.437 2.859-.438 1.297-1.297 2.266-.844.953-2.078 1.5-1.235.53-2.813.53t-2.828-.53q-1.234-.547-2.094-1.5-.859-.97-1.296-2.266-.438-1.313-.438-2.86v-.28zm3.61.282q0 .875.171 1.656.172.765.532 1.344.375.578.953.921.578.344 1.39.344.797 0 1.36-.344.578-.343.937-.921.36-.579.531-1.344.172-.781.172-1.656v-.282q0-.86-.172-1.625-.171-.765-.53-1.343-.36-.594-.938-.938-.563-.344-1.375-.344-.813 0-1.39.344-.563.344-.938.938-.36.578-.532 1.343-.172.766-.172 1.625v.282zm12.496-.25q0-1.61.375-2.938t1.078-2.266q.719-.953 1.734-1.468 1.032-.532 2.344-.532 1.11 0 1.953.407.844.39 1.485 1.109v-7.172h3.64v20h-3.265l-.188-1.469q-.672.813-1.578 1.282-.89.453-2.063.453-1.296 0-2.328-.531-1.015-.547-1.718-1.5-.704-.954-1.094-2.266-.375-1.313-.375-2.844zm3.625.265q0 .89.14 1.656.157.75.485 1.329.344.562.875.89.547.313 1.312.313.938 0 1.547-.391.625-.406.985-1.11v-5.702q-.36-.72-.97-1.11-.609-.406-1.546-.406-.766 0-1.313.344-.53.328-.875.906-.328.578-.484 1.36-.156.765-.156 1.656zm19.59 7.14q-1.625 0-2.953-.53-1.328-.547-2.281-1.454-.954-.921-1.47-2.156-.515-1.25-.515-2.672v-.515q0-1.625.5-2.953.516-1.329 1.422-2.297.922-.97 2.172-1.5 1.25-.532 2.719-.532 1.515 0 2.703.5 1.203.5 2.031 1.422.828.907 1.25 2.188.438 1.281.438 2.828v1.531h-9.563q.11.719.422 1.313.328.593.812 1.03.5.423 1.141.657.64.235 1.39.235.532 0 1.063-.094.531-.11 1-.313.485-.203.906-.5.422-.312.735-.703l1.797 1.953q-.328.469-.875.938-.532.469-1.282.828-.734.344-1.64.562-.89.235-1.922.235zm-.438-11.687q-.609 0-1.125.219-.5.219-.89.625-.375.406-.64.969-.25.547-.391 1.234h5.937v-.281q-.016-.578-.219-1.078-.187-.516-.562-.875-.36-.375-.89-.594-.532-.219-1.22-.219zm-88.632 25.883.156 1.375q.532-.75 1.282-1.14.765-.407 1.687-.407.734 0 1.36.219.624.218 1.062.703.453.469.703 1.219.25.75.25 1.828v6.062h-2.531v-6.031q0-.578-.14-.953-.126-.39-.376-.61-.234-.218-.578-.296-.344-.094-.781-.094-.656 0-1.11.265-.453.266-.734.72v7h-2.547v-9.86zm8.555 4.844q0-1.079.312-1.985.313-.922.907-1.594.593-.687 1.453-1.062.86-.375 1.969-.375 1.125 0 1.984.375.86.375 1.453 1.062.61.672.906 1.594.313.906.313 1.985v.187q0 1.078-.313 2-.297.922-.89 1.594-.594.672-1.469 1.047-.86.375-1.953.375-1.125 0-2-.375-.86-.375-1.453-1.047-.594-.672-.907-1.594-.312-.922-.312-2v-.188zm2.531.187q0 .625.11 1.172.125.531.375.937.265.407.671.641.407.234.985.234.547 0 .937-.234.407-.234.657-.64.25-.407.375-.938.125-.547.125-1.172v-.188q0-.609-.125-1.14-.125-.547-.375-.953-.25-.406-.657-.64-.39-.235-.968-.235-.563 0-.97.234-.39.235-.655.64-.25.407-.375.954-.11.531-.11 1.14zm8.743-.172q0-1.125.265-2.047.266-.937.766-1.594.5-.671 1.203-1.03.719-.36 1.64-.36.782 0 1.36.281.594.266 1.047.781v-5.03h2.547v14h-2.297l-.125-1.032q-.469.578-1.094.906-.625.313-1.453.313-.906 0-1.625-.375-.703-.391-1.203-1.047-.5-.672-.766-1.578-.265-.922-.265-2zm2.53.188q0 .625.11 1.156.11.531.344.937.234.391.61.625.374.22.906.22.656 0 1.093-.282.438-.281.688-.781v-3.985q-.25-.5-.688-.781-.421-.281-1.078-.281-.531 0-.906.234-.375.235-.625.64-.234.407-.344.954-.11.531-.11 1.156zm13.712 5q-1.14 0-2.078-.375-.922-.375-1.594-1.016-.656-.64-1.015-1.516-.36-.875-.36-1.859v-.375q0-1.125.36-2.047.359-.937.984-1.61.64-.687 1.516-1.046.875-.375 1.906-.375 1.062 0 1.89.344.844.343 1.422.984.579.64.875 1.547.313.89.313 1.969v1.078h-6.688q.063.5.282.922.234.406.578.718.344.297.781.47.453.155.984.155.375 0 .735-.078.375-.078.703-.219.344-.14.64-.343.297-.219.516-.5l1.266 1.375q-.235.328-.625.656-.375.328-.89.578-.516.25-1.141.406-.625.157-1.36.157zm-.297-8.172q-.422 0-.781.156-.36.14-.625.422-.266.281-.453.672-.188.39-.266.875h4.14v-.203q-.015-.391-.155-.75-.125-.36-.391-.61-.25-.265-.625-.406-.36-.156-.844-.156zm12.915 7.984h-2.563v-10.172l-3.344 1.203v-2.203l5.766-2.094h.14v13.266z" fill="#fff"/><path d="m174.372 306.212h163.496v59.716h-163.496z" fill="#bdbdbd" fill-rule="evenodd"/><path d="m174.372 306.212h163.496v59.716h-163.496z" stroke="#666" stroke-linecap="butt" stroke-linejoin="round"/><path d="m261.668 338.079q0 1.625-.375 2.89-.375 1.266-1.078 2.125-.703.86-1.718 1.313-1.016.437-2.329.437-1.312 0-2.343-.437-1.016-.453-1.735-1.313-.703-.86-1.093-2.125-.375-1.265-.375-2.89v-4q0-1.625.375-2.875.375-1.266 1.078-2.125.718-.875 1.734-1.329 1.031-.453 2.328-.453 1.313 0 2.328.453 1.032.454 1.735 1.329.718.859 1.093 2.125.375 1.25.375 2.875zm-8.875-.438 6.657-5.094q-.188-1.703-1-2.578-.797-.89-2.313-.89-1.703 0-2.531 1.156-.813 1.156-.813 3.375zm6.704-3.016-6.641 5.079q.203 1.64 1.016 2.515.828.86 2.296.86 1.72 0 2.516-1.172.813-1.172.813-3.375z" fill="#000"/><path d="m693.672 82.726c0-6.283 5.093-11.376 11.375-11.376h142.068a11.376 11.376 0 0 1 11.376 11.376v45.5c0 6.283-5.093 11.376-11.376 11.376h-142.068c-6.282 0-11.375-5.093-11.375-11.375z" fill="#ff9800" fill-rule="evenodd"/><path d="m693.672 82.726c0-6.283 5.093-11.376 11.375-11.376h142.068a11.376 11.376 0 0 1 11.376 11.376v45.5c0 6.283-5.093 11.376-11.376 11.376h-142.068c-6.282 0-11.375-5.093-11.375-11.375z" stroke="#666" stroke-linecap="butt" stroke-linejoin="round"/><path d="m747.637 99.123q0-.5-.187-.937-.172-.453-.594-.828-.422-.391-1.11-.704-.671-.328-1.687-.593-1.234-.344-2.36-.844-1.124-.516-1.984-1.219-.859-.719-1.375-1.672-.515-.953-.515-2.187 0-1.203.5-2.172.515-.984 1.406-1.672.906-.687 2.125-1.062 1.219-.375 2.656-.375 1.485 0 2.703.437 1.235.422 2.125 1.203.891.781 1.375 1.844.5 1.063.5 2.344h-3.562q-.031-.64-.234-1.172-.204-.531-.61-.906-.39-.391-.984-.61-.578-.219-1.375-.219-.735 0-1.297.188-.563.172-.953.484-.39.313-.594.75-.203.438-.203.954 0 .53.266.968.265.422.765.766.516.344 1.235.64.718.282 1.64.516 1.297.39 2.39.938 1.095.546 1.876 1.296.797.735 1.234 1.704.438.953.438 2.125 0 1.25-.516 2.218-.5.97-1.39 1.641-.876.672-2.094 1.016-1.22.343-2.672.343-.89 0-1.781-.171-.891-.157-1.72-.485-.812-.344-1.515-.844-.703-.515-1.219-1.187-.5-.688-.796-1.547-.297-.86-.297-1.906h3.593q.032.86.297 1.484.282.61.766 1 .484.39 1.172.578.687.172 1.5.172.734 0 1.297-.172.562-.172.953-.469.39-.296.594-.718.218-.422.218-.938zm9.903-7.187q.703-1.032 1.703-1.61 1.016-.593 2.266-.593 1.11 0 2.03.343.923.329 1.58 1.032.67.687 1.046 1.796.375 1.094.375 2.641v8.531h-3.625v-8.546q0-.766-.188-1.313-.187-.547-.546-.875-.344-.344-.844-.5-.485-.172-1.11-.172-.921 0-1.593.328-.657.328-1.094.906v10.172h-3.625v-20h3.625zm21.184 12.14q-.14-.265-.235-.593-.078-.344-.156-.72-.297.329-.687.61-.391.281-.875.5-.47.219-1.047.344-.563.125-1.219.125-1.078 0-1.984-.313-.907-.312-1.563-.874-.656-.563-1.015-1.329-.36-.78-.36-1.687 0-2.234 1.656-3.453 1.657-1.219 4.954-1.219h2.015v-.828q0-1.016-.672-1.61-.656-.593-1.906-.593-1.11 0-1.625.484-.5.469-.5 1.266h-3.61q0-.907.391-1.703.407-.813 1.157-1.422.765-.61 1.859-.969 1.11-.36 2.531-.36 1.266 0 2.36.313 1.109.313 1.906.922.812.61 1.265 1.547.47.922.47 2.156v6.031q0 1.141.14 1.891.14.734.406 1.266v.218zm-3.453-2.53q.547 0 1.015-.126.469-.14.844-.344.375-.218.64-.484.282-.266.438-.531v-2.422h-1.844q-.843 0-1.453.156-.593.156-.968.453-.375.297-.563.703-.187.407-.187.891 0 .734.515 1.219.516.484 1.563.484zm23.293-4.376q0 1.531-.36 2.844-.359 1.312-1.062 2.281-.688.953-1.719 1.5-1.015.547-2.343.547-1.141 0-2-.39-.86-.391-1.5-1.094v6.64h-3.61v-19.5h3.344l.125 1.375q.656-.781 1.531-1.203.89-.437 2.078-.437 1.344 0 2.36.515 1.03.516 1.734 1.469.703.938 1.063 2.266.359 1.312.359 2.906zm-3.61-.281q0-.875-.171-1.656-.157-.782-.5-1.344-.344-.563-.891-.89-.547-.329-1.313-.329-.953 0-1.562.375-.594.375-.938 1.047v5.89q.344.657.938 1.063.61.39 1.594.39.765 0 1.297-.327.547-.344.89-.922.344-.594.5-1.375.157-.782.157-1.64v-.282zm13.794 7.453q-1.625 0-2.953-.531-1.329-.547-2.282-1.453-.953-.922-1.468-2.157-.516-1.25-.516-2.671v-.516q0-1.625.5-2.953.516-1.328 1.422-2.297.922-.969 2.172-1.5t2.718-.531q1.516 0 2.704.5 1.203.5 2.03 1.421.829.907 1.25 2.188.438 1.281.438 2.828v1.531h-9.562q.11.72.422 1.313.328.594.812 1.031.5.422 1.14.656.641.235 1.391.235.532 0 1.063-.094.531-.11 1-.313.484-.203.906-.5.422-.312.735-.703l1.796 1.954q-.328.468-.875.937-.53.469-1.28.828-.735.344-1.641.563-.891.234-1.922.234zm-.438-11.688q-.61 0-1.125.22-.5.218-.89.624-.375.406-.641.969-.25.547-.39 1.234h5.937v-.28q-.016-.579-.219-1.079-.187-.516-.562-.875-.36-.375-.891-.594-.531-.219-1.219-.219zm-68.272 30.352q0-1.281.187-2.422.203-1.14.531-2.094.344-.969.797-1.75.453-.797.953-1.406.5-.61 1.032-1.031.53-.422 1.03-.657l.5 1.391q-.515.39-1.03 1.047-.5.656-.907 1.64-.406.985-.672 2.282-.25 1.297-.25 2.984v.235q0 1.687.25 2.984.266 1.297.672 2.281.407.984.907 1.64.515.673 1.03 1.063l-.5 1.36q-.5-.22-1.03-.657-.532-.421-1.032-1.03-.5-.595-.953-1.392-.453-.796-.797-1.75-.328-.968-.531-2.093-.188-1.14-.188-2.422v-.203zm14.117 5.578q-1.14 0-2.078-.375-.922-.375-1.594-1.016-.656-.64-1.016-1.515-.359-.875-.359-1.86v-.375q0-1.125.36-2.047.359-.937.984-1.609.64-.688 1.515-1.047.875-.375 1.907-.375 1.062 0 1.89.344.844.344 1.422.984t.875 1.547q.313.89.313 1.969v1.078h-6.688q.063.5.281.922.235.406.579.719.343.297.78.468.454.157.985.157.375 0 .735-.078.375-.079.703-.22.343-.14.64-.343.297-.219.516-.5l1.266 1.375q-.235.328-.625.656-.375.328-.891.578-.516.25-1.14.407-.626.156-1.36.156zm-.297-8.172q-.422 0-.781.156-.36.14-.625.422-.266.281-.453.672-.188.39-.266.875h4.14v-.203q-.015-.39-.156-.75-.125-.36-.39-.61-.25-.265-.625-.406-.36-.156-.844-.156zm8.29-1.875.078 1.203q.28-.64.765-1 .5-.375 1.219-.375 1.187 0 1.562 1.047.282-.5.735-.766.453-.28 1.094-.28.437 0 .828.171.39.156.672.516.296.359.453.922.156.562.156 1.39v7.031h-2.313v-7.046q0-.282-.062-.454-.047-.187-.156-.28-.094-.11-.235-.157-.125-.047-.265-.047-.266 0-.453.125-.172.125-.266.328v7.531h-2.234v-7.046q0-.282-.063-.47-.047-.187-.14-.28-.094-.094-.235-.141-.125-.047-.266-.047-.296 0-.468.172-.172.156-.282.437v7.375h-2.296v-9.859h2.171zm18.476 5.016q0 1.078-.25 2-.25.922-.75 1.593-.484.672-1.203 1.063-.719.375-1.64.375-.797 0-1.407-.266-.594-.281-1.031-.781v4.656h-2.531v-13.656h2.328l.094.969q.453-.547 1.078-.844.625-.297 1.453-.297.937 0 1.656.36.719.359 1.203 1.015.5.656.75 1.578t.25 2.047zm-2.531-.188q0-.61-.125-1.156-.11-.547-.36-.938-.234-.406-.609-.625-.375-.234-.906-.234-.672 0-1.094.266-.422.265-.656.734v4.11q.234.468.656.75.422.28 1.11.28.53 0 .906-.234.39-.25.625-.656.234-.406.344-.953.109-.547.109-1.156zm9.524-7.234v2.406h3.672v1.875h-3.672v4.234q0 .532.109.891.125.36.344.578.234.219.562.313.328.078.719.078.297 0 .594-.016.312-.031.594-.062.28-.047.515-.094.25-.047.422-.094l.234 1.735q-.25.156-.609.28-.36.11-.766.173-.39.078-.828.109-.437.047-.843.047-.813 0-1.485-.203-.656-.219-1.125-.672-.469-.453-.734-1.14-.25-.704-.25-1.673v-4.484h-2.25v-1.875h2.25v-2.406zm10.742 8.125.297 1.062 2.625-6.781h2.797l-5.016 11.328q-.156.375-.422.813-.25.437-.64.812-.39.375-.953.625-.563.266-1.329.266-.187 0-.343-.016-.157-.016-.297-.047-.14-.015-.281-.047-.141-.03-.313-.078l.313-1.922h.39q.25.016.39.016.298 0 .532-.188.234-.171.39-.39.173-.219.266-.406.11-.172.141-.172l.61-1.156-4.173-9.438h2.782zm13.743-1.047q0 1.25-.204 2.36-.203 1.109-.546 2.077-.344.97-.813 1.766-.453.797-.984 1.422-.516.625-1.063 1.062-.547.438-1.062.657l-.485-1.36q.5-.39 1.016-1.062.516-.656.922-1.625t.656-2.281q.266-1.313.266-3v-.235q0-1.687-.266-2.984-.266-1.313-.687-2.297-.407-.984-.907-1.656-.5-.672-1-1.047l.485-1.36q.515.235 1.062.672.547.438 1.063 1.063.531.625.984 1.422.469.797.813 1.765.343.953.546 2.078.204 1.11.204 2.36z" fill="#fff"/><path d="m350.727 271.908c85.707 0 128.56 22.142 171.414 44.284 42.854 22.141 85.71 44.283 171.42 44.283" fill="none"/><path d="m350.727 271.908c85.707 0 128.56 22.142 171.414 44.284 21.427 11.07 42.855 22.141 69.64 30.444 13.392 4.152 28.123 7.612 44.864 10.033 8.37 1.211 17.242 2.163 26.7 2.811a398.12 398.12 0 0 0 5.383.333l.842.045" stroke="#595959" stroke-linecap="butt" stroke-linejoin="round" stroke-width="4"/><path d="m669.4 366.462 18.316-6.137-17.976-7.072z" fill="#595959" fill-rule="evenodd" stroke="#595959" stroke-linecap="butt" stroke-width="4"/><path d="m776.081 139.602v41.575" fill="none"/><path d="m776.081 151.602v17.575" stroke="#666" stroke-linecap="butt" stroke-linejoin="round" stroke-width="2"/><path d="m779.385 151.602-3.304-9.076-3.303 9.076zm-6.607 17.575 3.303 9.076 3.304-9.076z" fill="#666" fill-rule="evenodd" stroke="#666" stroke-linecap="butt" stroke-width="2"/><path d="m776.081 134.848h183.906v51.086h-183.907z" fill="none"/><path d="m791.53 155.11-.172 2.875h-1.078l.016-2.75v-.984h1.234v.86zm11.414 11.141q-.093-.172-.14-.406-.047-.25-.078-.516-.22.219-.485.422-.265.188-.594.344-.328.14-.703.219-.36.093-.765.093-.672 0-1.22-.187-.546-.203-.921-.531-.375-.344-.594-.797-.203-.453-.203-.985 0-.703.281-1.218.282-.532.782-.875.515-.344 1.218-.516.72-.172 1.61-.172h1.578v-.672q0-.375-.14-.672-.141-.312-.407-.53-.25-.22-.625-.33-.375-.124-.828-.124-.438 0-.781.11-.328.109-.563.296-.234.172-.375.422-.125.25-.125.516h-1.453q.016-.47.234-.907.235-.453.672-.796.438-.36 1.047-.579.625-.218 1.422-.218.719 0 1.328.172.625.171 1.063.53.453.36.703.891.265.532.265 1.235v3.937q0 .422.079.89.078.47.218.83v.124zm-2.562-1.11q.422 0 .781-.109.375-.11.672-.28.312-.188.531-.407.219-.235.344-.485v-1.718h-1.344q-1.265 0-1.969.375-.703.375-.703 1.187 0 .313.094.578.11.266.313.453.218.188.53.297.329.11.75.11zm10.21.094q.391 0 .75-.125.376-.125.657-.343.297-.235.469-.532.187-.296.187-.656h1.375q-.015.563-.297 1.078-.28.516-.765.907-.469.375-1.094.609-.61.234-1.281.234-.969 0-1.688-.343-.719-.344-1.203-.922-.469-.594-.719-1.344-.234-.766-.234-1.61v-.328q0-.843.234-1.609.25-.766.72-1.344.483-.578 1.202-.922.719-.343 1.688-.343.75 0 1.375.234t1.078.656q.469.407.719.97.265.562.265 1.202h-1.375q0-.39-.172-.719-.156-.343-.437-.593-.266-.266-.64-.407-.376-.156-.813-.156-.672 0-1.14.266-.454.265-.735.703-.282.437-.407.984-.109.532-.109 1.078v.329q0 .546.11 1.093.124.547.406.985.281.422.734.703.453.265 1.14.265zm9.415-9.484v2.047h3.219v1.11h-3.22v4.593q0 .5.126.828.125.313.344.5.218.188.5.266.296.078.609.078.234 0 .484-.016.25-.03.485-.062.25-.047.453-.094l.344-.078.203 1.031q-.188.11-.453.188-.25.078-.563.14-.297.063-.64.094-.329.031-.672.031-.563 0-1.047-.156-.485-.172-.844-.516-.36-.343-.578-.89-.203-.563-.203-1.344v-4.594h-2.22v-1.11h2.22v-2.046zm11.664 9.328q-.422.625-1.063.985-.625.343-1.453.343-.656 0-1.203-.203-.531-.219-.922-.656-.375-.438-.594-1.11-.203-.671-.203-1.624v-5.016h1.453v5.031q0 .688.11 1.14.11.454.328.735.219.266.531.375.313.11.735.11.875 0 1.421-.36.547-.36.813-.969v-6.062h1.453v8.453h-1.312zm9.68 1.172q-.094-.172-.141-.406-.047-.25-.078-.516-.219.219-.485.422-.265.188-.593.344-.328.14-.703.219-.36.093-.766.093-.672 0-1.219-.187-.547-.203-.922-.531-.375-.344-.593-.797-.204-.453-.204-.985 0-.703.282-1.218.28-.532.78-.875.517-.344 1.22-.516.718-.172 1.609-.172h1.578v-.672q0-.375-.14-.672-.141-.312-.407-.53-.25-.22-.625-.33-.375-.124-.828-.124-.437 0-.781.11-.328.109-.563.296-.234.172-.375.422-.125.25-.125.516h-1.453q.016-.47.235-.907.234-.453.672-.796.437-.36 1.046-.579.625-.218 1.422-.218.719 0 1.328.172.625.171 1.063.53.453.36.703.891.266.532.266 1.235v3.937q0 .422.078.89.078.47.219.83v.124zm-2.563-1.11q.422 0 .781-.109.375-.11.672-.28.313-.188.531-.407.22-.235.344-.485v-1.718h-1.344q-1.265 0-1.968.375-.703.375-.703 1.187 0 .313.093.578.11.266.313.453.219.188.531.297.328.11.75.11zm6.836-10.89h4.312v10.75h2.766v1.25h-7.078v-1.25h2.875v-9.5h-2.875zm15.32 9.125q0-.531-.234-.89-.234-.36-.61-.594-.374-.25-.828-.407-.453-.171-.859-.312-.61-.188-1.234-.453-.61-.281-1.125-.672-.516-.406-.844-.953-.313-.547-.313-1.281 0-.735.313-1.313.328-.578.844-.969.53-.406 1.187-.61.672-.202 1.344-.202.75 0 1.437.25.688.234 1.22.687.53.438.843 1.078.328.625.344 1.407h-1.485q-.062-.485-.25-.89-.172-.407-.468-.688-.297-.297-.72-.454-.405-.156-.921-.156-.406 0-.813.125-.39.11-.703.344-.297.234-.484.578-.188.344-.188.797.016.484.25.828.25.344.61.578.375.235.812.39.438.157.813.266.422.141.844.313.437.156.828.375.406.219.75.5.343.266.593.625.266.344.407.766.156.406.156.921 0 .766-.344 1.344-.344.563-.89.938-.532.375-1.22.578-.671.187-1.343.187-.766 0-1.5-.234-.719-.234-1.297-.672-.562-.453-.922-1.078-.36-.64-.39-1.453h1.484q.063.531.281.937.219.407.563.703.344.282.797.422.453.14.984.14.422 0 .828-.093.406-.11.719-.328.328-.234.531-.562.203-.344.203-.813zm7.07-7.625v2.047h3.22v1.11h-3.22v4.593q0 .5.126.828.125.313.343.5.22.188.5.266.297.078.61.078.234 0 .484-.016.25-.03.484-.062.25-.047.454-.094l.343-.078.203 1.031q-.187.11-.453.188-.25.078-.562.14-.297.063-.64.094-.329.031-.673.031-.562 0-1.047-.156-.484-.172-.843-.516-.36-.343-.578-.89-.204-.563-.204-1.344v-4.594h-2.218v-1.11h2.218v-2.046h1.454zm11.743 10.5q-.094-.172-.14-.406-.048-.25-.079-.516-.219.219-.484.422-.266.188-.594.344-.328.14-.703.219-.36.093-.766.093-.672 0-1.219-.187-.546-.203-.921-.531-.375-.344-.594-.797-.203-.453-.203-.985 0-.703.28-1.218.282-.532.782-.875.516-.344 1.219-.516.719-.172 1.61-.172h1.577v-.672q0-.375-.14-.672-.14-.312-.406-.53-.25-.22-.625-.33-.375-.124-.829-.124-.437 0-.78.11-.329.109-.563.296-.235.172-.375.422-.125.25-.125.516h-1.453q.015-.47.234-.907.234-.453.672-.796.437-.36 1.047-.579.625-.218 1.422-.218.718 0 1.328.172.625.171 1.062.53.453.36.703.891.266.532.266 1.235v3.937q0 .422.078.89.078.47.219.83v.124zm-2.563-1.11q.422 0 .782-.109.375-.11.671-.28.313-.188.532-.407.218-.235.343-.485v-1.718h-1.343q-1.266 0-1.97.375-.702.375-.702 1.187 0 .313.094.578.109.266.312.453.219.188.531.297.328.11.75.11zm12.149-7.5q.203 0 .422.016.218 0 .406.032.203.03.375.078.172.03.281.078l-.203 1.406q-.422-.094-.797-.125-.375-.047-.797-.047-1.015 0-1.64.469-.625.453-.922 1.281v5.422h-1.453v-8.453h1.375l.062 1.344q.516-.703 1.234-1.094.735-.406 1.657-.406zm7.476-1.89v2.047h3.219v1.11h-3.219v4.593q0 .5.125.828.125.313.344.5.219.188.5.266.297.078.61.078.234 0 .484-.016.25-.03.484-.062.25-.047.453-.094l.344-.078.203 1.031q-.187.11-.453.188-.25.078-.562.14-.297.063-.641.094-.328.031-.672.031-.562 0-1.047-.156-.484-.172-.844-.516-.359-.343-.578-.89-.203-.563-.203-1.344v-4.594h-2.219v-1.11h2.22v-2.046zm13.852.36h-3.516v10.14h-1.406v-10.14h-3.516v-1.235h8.438v1.234zm2.164 1.687h4.312v7.202h2.766v1.25h-7.078v-1.25h2.875v-5.953h-2.875v-1.25zm2.687-2.219q0-.36.204-.61.218-.25.656-.25.437 0 .656.25.219.25.219.61 0 .344-.219.578-.219.235-.656.235-.438 0-.656-.235-.204-.234-.204-.578zm7.352 2.219.031.797q.266-.453.672-.703.422-.25 1.016-.25 1.172 0 1.562.906.25-.406.656-.656.407-.25 1-.25.922 0 1.422.578.5.562.5 1.719v6.312h-1.375v-6.328q0-1.063-.968-1.063-.266 0-.454.079-.187.062-.312.187t-.203.281q-.063.157-.078.328v6.516h-1.375v-6.344q0-.5-.235-.765-.218-.282-.718-.282-.454 0-.704.188-.25.172-.359.469v6.734h-1.375v-8.453zm12.664 8.61q-.89 0-1.64-.298-.735-.312-1.266-.859-.531-.547-.828-1.297-.297-.75-.297-1.64v-.329q0-1.015.328-1.828.328-.812.86-1.36.546-.562 1.234-.858.703-.297 1.422-.297.921 0 1.593.312.688.313 1.14.875.454.563.673 1.328.234.75.234 1.625v.657h-6.047q.032.578.219 1.093.203.5.547.875.36.375.844.594.484.219 1.062.219.781 0 1.375-.313.61-.312 1-.828l.89.688q-.218.328-.53.625-.313.28-.735.515-.406.22-.937.36-.516.14-1.141.14zm-.187-7.579q-.438 0-.829.156-.39.157-.703.47-.312.312-.531.765-.203.437-.297 1.031h4.547v-.11q-.016-.421-.156-.827-.14-.422-.406-.75-.266-.329-.672-.532-.391-.203-.953-.203zm9.804-3.719-.172 2.875h-1.078l.016-2.75v-.984h1.234v.86z" fill="#000"/><path d="m775.971 279.611v46.74" fill="none"/><path d="m775.971 291.611v22.74" stroke="#666" stroke-linecap="butt" stroke-linejoin="round" stroke-width="2"/><path d="m779.275 291.611-3.304-9.076-3.303 9.076zm-6.607 22.741 3.303 9.076 3.304-9.076z" fill="#666" fill-rule="evenodd" stroke="#666" stroke-linecap="butt" stroke-width="2"/><path d="m693.556 337.73c0-6.283 5.093-11.376 11.376-11.376h142.068a11.376 11.376 0 0 1 11.375 11.376v45.5c0 6.283-5.093 11.376-11.375 11.376h-142.068c-6.283 0-11.376-5.093-11.376-11.375z" fill="#ff9800" fill-rule="evenodd"/><path d="m693.556 337.73c0-6.283 5.093-11.376 11.376-11.376h142.068a11.376 11.376 0 0 1 11.375 11.376v45.5c0 6.283-5.093 11.376-11.375 11.376h-142.068c-6.283 0-11.376-5.093-11.376-11.375z" stroke="#666" stroke-linecap="butt" stroke-linejoin="round"/><path d="m747.522 351.127q0-.5-.188-.937-.172-.453-.593-.828-.422-.391-1.11-.704-.672-.328-1.687-.593-1.235-.344-2.36-.844-1.125-.516-1.984-1.219-.86-.719-1.375-1.672-.516-.953-.516-2.187 0-1.203.5-2.172.516-.984 1.407-1.672.906-.687 2.125-1.062 1.218-.375 2.656-.375 1.484 0 2.703.437 1.234.422 2.125 1.203.89.781 1.375 1.844.5 1.062.5 2.344h-3.563q-.03-.64-.234-1.172-.203-.531-.61-.906-.39-.391-.984-.61-.578-.219-1.375-.219-.734 0-1.297.188-.562.172-.953.484-.39.313-.593.75-.204.438-.204.953 0 .532.266.97.266.421.766.765.515.344 1.234.64.719.282 1.64.516 1.298.39 2.391.938 1.094.546 1.875 1.296.797.735 1.235 1.704.437.953.437 2.125 0 1.25-.515 2.218-.5.97-1.391 1.641-.875.672-2.094 1.016-1.219.343-2.672.343-.89 0-1.78-.172-.892-.156-1.72-.484-.812-.344-1.515-.844-.703-.515-1.219-1.187-.5-.688-.797-1.547-.297-.86-.297-1.906h3.594q.031.86.297 1.484.281.61.765 1 .485.39 1.172.578.688.172 1.5.172.735 0 1.297-.172.563-.172.953-.469.391-.296.594-.718.219-.422.219-.938zm9.902-7.187q.704-1.032 1.704-1.61 1.015-.593 2.265-.593 1.11 0 2.031.343.922.328 1.579 1.032.671.687 1.046 1.796.375 1.094.375 2.641v8.531h-3.624v-8.547q0-.765-.187-1.312-.188-.547-.547-.875-.344-.344-.844-.5-.484-.172-1.109-.172-.922 0-1.594.328-.656.328-1.094.906v10.172h-3.625v-20h3.625v7.86zm21.184 12.14q-.14-.265-.234-.593-.078-.344-.156-.72-.297.329-.688.61-.39.281-.875.5-.469.219-1.047.344-.562.125-1.218.125-1.079 0-1.985-.313-.906-.312-1.562-.875-.657-.562-1.016-1.328-.36-.78-.36-1.687 0-2.235 1.657-3.453 1.656-1.219 4.953-1.219h2.016v-.828q0-1.016-.672-1.61-.656-.593-1.906-.593-1.11 0-1.625.484-.5.469-.5 1.266h-3.61q0-.907.39-1.703.407-.813 1.157-1.422.766-.61 1.86-.969 1.109-.36 2.53-.36 1.266 0 2.36.313 1.11.313 1.906.922.813.61 1.266 1.547.469.922.469 2.156v6.031q0 1.141.14 1.891.141.734.407 1.266v.218zm-3.453-2.53q.547 0 1.016-.126.469-.14.844-.344.375-.218.64-.484.281-.266.438-.531v-2.422h-1.844q-.844 0-1.453.156-.594.156-.969.453-.375.297-.562.703-.188.407-.188.891 0 .734.516 1.219.515.484 1.562.484zm23.293-4.376q0 1.531-.359 2.844-.36 1.312-1.062 2.281-.688.953-1.72 1.5-1.015.547-2.343.547-1.14 0-2-.39-.86-.391-1.5-1.094v6.64h-3.61v-19.5h3.344l.125 1.375q.657-.781 1.532-1.203.89-.437 2.078-.437 1.344 0 2.36.515 1.03.516 1.734 1.469.703.937 1.062 2.266.36 1.312.36 2.906v.281zm-3.609-.281q0-.875-.172-1.656-.156-.782-.5-1.344-.344-.563-.89-.89-.547-.329-1.313-.329-.953 0-1.562.375-.594.375-.938 1.047v5.89q.344.657.938 1.063.609.39 1.593.39.766 0 1.297-.327.547-.344.89-.922.345-.594.5-1.375.157-.782.157-1.64zm13.793 7.453q-1.625 0-2.953-.531-1.328-.547-2.281-1.453-.953-.922-1.469-2.157-.515-1.25-.515-2.672v-.515q0-1.625.5-2.953.515-1.328 1.421-2.297.922-.969 2.172-1.5t2.719-.531q1.516 0 2.703.5 1.203.5 2.031 1.421.829.907 1.25 2.188.438 1.281.438 2.828v1.531h-9.563q.11.72.422 1.313.328.594.813 1.031.5.422 1.14.656.641.235 1.391.235.531 0 1.063-.094.53-.11 1-.313.484-.203.906-.5.422-.312.734-.703l1.797 1.953q-.328.47-.875.938-.531.469-1.281.828-.735.344-1.64.563-.891.234-1.923.234zm-.437-11.688q-.61 0-1.125.22-.5.218-.89.624-.376.406-.641.969-.25.547-.391 1.234h5.937v-.28q-.015-.579-.218-1.079-.188-.516-.563-.875-.36-.375-.89-.594-.532-.219-1.22-.219zm-91.423 25.874q0-.829.125-1.547.14-.735.343-1.344.22-.625.5-1.14.297-.516.625-.907.328-.39.672-.656.344-.281.656-.422l.313.89q-.328.25-.656.672-.328.422-.594 1.063-.25.625-.422 1.469-.156.828-.156 1.906v.156q0 1.078.156 1.922.172.844.422 1.469.266.625.594 1.047.328.437.656.687l-.313.875q-.312-.14-.656-.422-.344-.265-.672-.656-.328-.39-.625-.906-.28-.5-.5-1.125-.203-.625-.343-1.344-.125-.734-.125-1.562zm9.966 3.468q-.047-.125-.093-.265-.047-.157-.063-.328-.14.14-.328.28-.172.126-.39.22-.204.093-.47.156-.25.062-.546.062-.485 0-.89-.14-.407-.157-.704-.407-.297-.25-.469-.593-.156-.344-.156-.766 0-1 .75-1.547.75-.547 2.234-.547h.907v-.375q0-.453-.297-.718-.297-.266-.86-.266-.5 0-.734.219-.234.203-.234.562h-1.625q0-.406.171-.765.188-.36.532-.641.343-.281.828-.438.5-.156 1.14-.156.579 0 1.063.14.5.141.86.423.374.265.577.687.204.422.204.969v2.719q0 .5.062.843.063.329.188.579v.093zm-1.547-1.14q.25 0 .454-.063.218-.062.39-.156.172-.094.281-.203.125-.125.204-.25v-1.094h-.829q-.39 0-.656.078-.265.078-.437.219-.172.125-.266.312-.078.172-.078.391 0 .328.234.547.235.219.703.219zm7.608-.047q.234 0 .453-.063.219-.078.375-.203.172-.125.25-.312.094-.188.094-.407h1.531q.016.5-.203.922-.219.422-.594.735-.36.297-.86.468-.484.172-1.03.172-.735 0-1.297-.25-.547-.25-.922-.687-.375-.438-.563-1.016-.187-.578-.187-1.25v-.172q0-.672.187-1.25.188-.593.563-1.015.375-.438.922-.688.562-.25 1.297-.25.578 0 1.078.172.5.172.859.5.36.313.563.766.203.453.187 1.015h-1.531q0-.234-.078-.437-.078-.219-.235-.36-.156-.156-.39-.25-.22-.093-.485-.093-.39 0-.64.156t-.407.422q-.14.265-.203.61-.062.343-.062.702v.172q0 .375.062.719.063.344.203.61.157.25.407.406.25.156.656.156zm7.373-6.703v1.547h2.375v1.203h-2.375v2.718q0 .36.078.594.078.219.219.36.156.14.36.203.218.047.468.047.187 0 .375-.016l.375-.031q.187-.032.344-.063.156-.031.265-.062l.157 1.125q-.172.093-.407.172-.218.062-.484.109-.25.062-.531.078-.266.031-.547.031-.516 0-.938-.14-.422-.14-.734-.422-.297-.297-.469-.735-.156-.453-.156-1.078v-2.89h-1.453v-1.203h1.453v-1.547zm8.264 7q-.329.468-.782.75-.453.265-1 .265-.484 0-.906-.156-.406-.156-.703-.484-.281-.328-.453-.844-.156-.516-.156-1.234v-3.75h1.64v3.765q0 .39.047.656.063.25.172.422.125.157.328.235.203.062.484.062.485 0 .782-.187.312-.188.484-.5v-4.453h1.625v6.343h-1.469zm7.107.89q-.047-.125-.094-.265-.047-.157-.062-.328-.14.14-.328.28-.172.126-.391.22-.203.093-.469.156-.25.062-.547.062-.484 0-.89-.14-.406-.157-.703-.407-.297-.25-.47-.593-.155-.344-.155-.766 0-1 .75-1.547.75-.547 2.234-.547h.906v-.375q0-.453-.297-.718-.296-.266-.859-.266-.5 0-.734.219-.235.203-.235.562h-1.625q0-.406.172-.765.188-.36.531-.641.344-.281.829-.438.5-.156 1.14-.156.578 0 1.063.14.5.141.859.423.375.265.578.687.203.422.203.969v2.719q0 .5.063.843.062.329.187.579v.093zm-1.547-1.14q.25 0 .453-.063.219-.062.39-.156.173-.094.282-.203.125-.125.203-.25v-1.094h-.828q-.39 0-.656.078t-.438.219q-.171.125-.265.312-.078.172-.078.391 0 .328.234.547.234.219.703.219zm5.139-7.86h3.547v7.672h1.812v1.328h-5.36v-1.328h1.891v-6.344h-1.89zm11.232 6.766q0-.219-.078-.422-.078-.203-.281-.375-.188-.172-.5-.312-.297-.141-.75-.266-.563-.156-1.078-.375-.5-.234-.89-.547-.376-.328-.61-.75-.235-.437-.235-1 0-.531.22-.969.234-.437.64-.75.406-.312.953-.484.547-.172 1.203-.172t1.203.203q.563.188.953.547.407.344.625.828.235.469.235 1.047h-1.61q-.015-.281-.11-.516-.077-.25-.265-.421-.172-.172-.437-.266-.266-.11-.625-.11-.328 0-.594.094-.25.078-.422.22-.172.14-.265.343-.094.187-.094.422 0 .234.11.437.124.188.359.344.234.156.546.281.329.125.75.235.579.171 1.063.421.5.25.844.594.359.328.562.766.203.422.203.953 0 .562-.234 1-.219.437-.625.734-.39.297-.953.453-.547.157-1.188.157-.406 0-.812-.078-.406-.063-.781-.22-.36-.155-.672-.374-.313-.235-.547-.531-.235-.313-.375-.704-.125-.39-.125-.859h1.625q.015.39.125.672.125.266.344.453.234.172.53.25.313.078.688.078.328 0 .578-.062.25-.078.422-.22.188-.14.282-.327.093-.188.093-.422zm5.81-5.656v1.547h2.376v1.203h-2.375v2.718q0 .36.078.594.078.219.219.36.156.14.36.203.218.047.468.047.187 0 .375-.016l.375-.031q.187-.032.344-.063.156-.031.265-.062l.156 1.125q-.171.093-.406.172-.219.062-.484.109-.25.062-.531.078-.266.031-.547.031-.516 0-.938-.14-.422-.14-.734-.422-.297-.297-.469-.735-.156-.453-.156-1.078v-2.89h-1.453v-1.203h1.453v-1.547h1.625zm8.17 7.89q-.046-.125-.093-.265-.047-.157-.063-.328-.14.14-.328.28-.172.126-.39.22-.203.093-.469.156-.25.062-.547.062-.484 0-.89-.14-.407-.157-.704-.407-.297-.25-.468-.593-.157-.344-.157-.766 0-1 .75-1.547.75-.547 2.235-.547h.906v-.375q0-.453-.297-.718-.297-.266-.86-.266-.5 0-.734.219-.234.203-.234.562h-1.625q0-.406.172-.765.187-.36.531-.641.344-.281.828-.438.5-.156 1.14-.156.579 0 1.063.14.5.141.86.423.375.265.578.687.203.422.203.969v2.719q0 .5.062.843.063.329.188.579v.093h-1.656zm-1.546-1.14q.25 0 .453-.063.219-.062.39-.156.172-.094.282-.203.125-.125.203-.25v-1.094h-.828q-.39 0-.656.078t-.438.219q-.172.125-.266.312-.078.172-.078.391 0 .328.235.547.234.219.703.219zm9.342-5.313q.375 0 .687.047.313.047.5.11l-.234 1.624q-.328-.078-.672-.109-.328-.047-.625-.047-.688 0-1.11.266-.406.265-.609.75v3.812h-1.625v-6.343h1.516l.078 1.046q.375-.546.906-.843.547-.313 1.188-.313zm5.638-1.437v1.547h2.375v1.203h-2.375v2.718q0 .36.078.594.079.219.22.36.155.14.359.203.218.047.468.047.188 0 .375-.016l.375-.031q.188-.032.344-.063.156-.031.266-.062l.156 1.125q-.172.093-.406.172-.22.062-.485.109-.25.062-.53.078-.267.031-.548.031-.515 0-.937-.14-.422-.14-.735-.422-.297-.297-.468-.735-.157-.453-.157-1.078v-2.89h-1.453v-1.203h1.453v-1.547zm10.42.703h-2.625v7.187h-1.656v-7.187h-2.594v-1.344h6.875zm1.436.844h3.453v5.015h1.703v1.328h-5.156v-1.328h1.797v-3.687h-1.797zm1.687-1.625q0-.188.063-.344.062-.156.187-.266.125-.125.297-.187.172-.063.39-.063.423 0 .673.25.265.235.265.61 0 .39-.265.64-.25.235-.672.235-.219 0-.39-.063-.173-.062-.298-.172-.125-.125-.187-.281-.063-.172-.063-.36zm6.092 1.625.047.765q.172-.406.484-.64.328-.235.797-.235.766 0 1 .672.188-.312.469-.484.297-.188.703-.188.281 0 .531.11.25.093.438.328.187.234.281.61.11.358.11.874v4.531h-1.485v-4.53q0-.188-.047-.298-.031-.125-.094-.187-.062-.063-.156-.094-.078-.031-.156-.031-.172 0-.297.093-.11.079-.172.204v4.843h-1.437v-4.53q0-.188-.047-.298-.031-.125-.094-.187-.062-.063-.14-.094-.079-.031-.172-.031-.188 0-.313.11-.11.108-.172.28v4.75h-1.484v-6.343zm9.264 6.468q-.735 0-1.344-.234-.594-.25-1.016-.656-.421-.422-.656-.985-.234-.562-.234-1.203v-.234q0-.719.219-1.313.234-.61.64-1.047.422-.437.985-.671.562-.235 1.218-.235.688 0 1.219.235.547.218.906.625.375.406.563.984.203.578.203 1.281v.688h-4.297q.047.312.188.593.14.266.359.454.234.187.516.296.28.11.625.11.25 0 .484-.047.234-.047.453-.14.219-.094.406-.22.188-.14.328-.328l.813.891q-.156.203-.406.422-.235.203-.563.375-.328.156-.734.25-.406.11-.875.11zm-.203-5.265q-.266 0-.5.093-.22.094-.407.282-.171.187-.296.437-.11.25-.157.563h2.672v-.125q-.015-.266-.11-.485-.077-.234-.25-.406-.155-.172-.405-.266-.235-.093-.547-.093zm8.654 1.797q0 .812-.125 1.53-.125.704-.36 1.329-.218.625-.515 1.14-.281.516-.625.907-.328.406-.688.687-.343.282-.687.422l-.297-.875q.313-.25.64-.672.329-.422.594-1.062.266-.625.422-1.469.172-.844.172-1.922v-.156q0-1.078-.172-1.922-.172-.844-.437-1.469-.266-.64-.594-1.062-.312-.438-.625-.672l.297-.875q.344.14.687.422.36.281.688.687.344.407.625.922.297.5.516 1.125.234.625.359 1.344.125.719.125 1.516zm-114.181 14.25 1.422 2.343h-1.062l-1.657-2.28v-.11l1.657-2.297h1.062zm2 0 1.422 2.343h-1.062l-1.657-2.28v-.11l1.657-2.297h1.062zm4.905-3.25.109.875q.344-.47.828-.72.484-.265 1.078-.265.469 0 .86.14.406.141.703.454.297.297.453.781.156.485.156 1.172v3.906h-1.625v-3.875q0-.375-.094-.61-.078-.25-.234-.39-.156-.14-.39-.203-.22-.062-.5-.062-.407 0-.704.172-.297.171-.469.468v4.5h-1.64v-6.343zm5.513 3.109q0-.688.188-1.266.203-.593.578-1.03.39-.438.937-.673.563-.25 1.282-.25.718 0 1.265.25.563.235.938.672.39.438.593 1.031.204.578.204 1.266v.125q0 .703-.204 1.297-.203.578-.593 1.015-.375.438-.938.688-.547.234-1.25.234-.719 0-1.281-.234-.563-.25-.953-.688-.375-.437-.578-1.015-.188-.594-.188-1.297zm1.625.125q0 .406.078.75t.235.61q.172.265.422.421.265.14.64.14.36 0 .61-.14.265-.156.421-.422.157-.265.235-.61.078-.343.078-.75v-.124q0-.375-.078-.719-.078-.36-.235-.61-.156-.265-.421-.421-.25-.156-.625-.156-.36 0-.625.156-.25.156-.422.422-.157.25-.235.61-.078.343-.078.718zm7.264-3.234.11.875q.343-.47.827-.72.485-.265 1.079-.265.468 0 .859.14.406.141.703.454.297.297.453.781.156.485.156 1.172v3.906h-1.625v-3.875q0-.375-.093-.61-.078-.25-.235-.39-.156-.14-.39-.203-.22-.062-.5-.062-.407 0-.703.172-.297.171-.47.468v4.5h-1.64v-6.343zm11.435 3.234h-4.875v-1.313h4.875zm4.577 3.234q-.735 0-1.344-.234-.594-.25-1.016-.656-.422-.422-.656-.985-.234-.562-.234-1.203v-.234q0-.719.218-1.313.235-.61.641-1.047.422-.437.984-.671.563-.235 1.22-.235.687 0 1.218.235.547.218.906.625.375.406.563.984.203.578.203 1.281v.688h-4.297q.047.312.187.593.141.266.36.454.234.187.515.296.282.11.625.11.25 0 .485-.047.234-.047.453-.14.219-.094.406-.22.188-.14.328-.328l.813.891q-.157.203-.407.422-.234.203-.562.375-.328.156-.734.25-.407.11-.875.11zm-.204-5.265q-.265 0-.5.093-.218.094-.406.282-.172.187-.297.437-.109.25-.156.563h2.672v-.125q-.016-.266-.11-.485-.078-.234-.25-.406-.156-.172-.406-.266-.234-.093-.547-.093zm7.233.78 1.39-1.983h1.75l-2.124 3.109 2.203 3.234h-1.766l-1.453-2.078-1.453 2.078h-1.766l2.203-3.234-2.11-3.11h1.75l1.376 1.985zm7.28-3.53v1.547h2.374v1.203h-2.375v2.718q0 .36.078.594.078.219.22.36.155.14.358.203.22.047.47.047.187 0 .374-.016l.375-.031q.188-.032.344-.063.156-.031.266-.062l.156 1.125q-.172.093-.406.172-.22.062-.485.109-.25.062-.531.078-.266.031-.547.031-.516 0-.937-.14-.422-.14-.735-.422-.297-.297-.469-.735-.156-.453-.156-1.078v-2.89h-1.452v-1.203h1.453v-1.547zm7.294 8.015q-.734 0-1.344-.234-.593-.25-1.015-.656-.422-.422-.656-.985-.235-.562-.235-1.203v-.234q0-.719.219-1.313.234-.61.64-1.047.422-.437.985-.671.562-.235 1.219-.235.687 0 1.218.235.547.218.907.625.375.406.562.984.203.578.203 1.281v.688h-4.297q.047.312.188.593.14.266.36.454.234.187.515.296.281.11.625.11.25 0 .484-.047.235-.047.453-.14.22-.094.407-.22.187-.14.328-.328l.812.891q-.156.203-.406.422-.234.203-.562.375-.329.156-.735.25-.406.11-.875.11zm-.203-5.265q-.266 0-.5.093-.219.094-.406.282-.172.187-.297.437-.11.25-.156.563h2.672v-.125q-.016-.266-.11-.485-.078-.234-.25-.406-.156-.172-.406-.266-.234-.093-.547-.093zm5.795-1.203.11.875q.343-.47.827-.72.485-.265 1.079-.265.468 0 .859.14.406.141.703.454.297.297.453.781.156.485.156 1.172v3.906h-1.625v-3.875q0-.375-.093-.61-.078-.25-.235-.39-.156-.14-.39-.203-.22-.062-.5-.062-.407 0-.703.172-.297.171-.47.468v4.5h-1.64v-6.343zm9.826 4.609q0-.156-.078-.266-.063-.11-.234-.203-.172-.094-.47-.172-.28-.093-.718-.172-.562-.109-1.016-.28-.453-.173-.78-.407-.329-.234-.516-.547-.188-.312-.188-.719 0-.39.188-.75.187-.36.53-.625.36-.265.86-.422.5-.156 1.14-.156.657 0 1.188.156.532.157.891.422.375.266.562.64.188.376.188.83h-1.625q0-.376-.297-.626t-.906-.25q-.563 0-.86.203-.296.203-.296.5 0 .14.062.266.063.125.203.219.156.093.406.171.266.079.672.141.563.094 1.047.25.5.14.86.375.359.219.562.563.203.328.203.78 0 .423-.203.782-.203.344-.578.61-.375.25-.906.406-.516.14-1.172.14-.703 0-1.266-.187-.547-.188-.922-.485-.359-.312-.547-.687-.187-.39-.187-.781h1.547q.015.265.14.453.125.172.313.297.203.11.453.172.25.046.516.046.593 0 .906-.187.328-.203.328-.5zm3.545-4.61h3.453v5.016h1.703v1.328h-5.156v-1.328h1.797v-3.687h-1.797v-1.328zm1.688-1.624q0-.188.062-.344.063-.156.188-.266.125-.125.296-.187.172-.063.391-.063.422 0 .672.25.266.235.266.61 0 .39-.266.64-.25.235-.672.235-.219 0-.39-.063-.172-.062-.297-.172-.125-.125-.188-.281-.062-.172-.062-.36zm10.794 4.859q0 .719-.156 1.312-.156.579-.469 1.016-.312.422-.78.672-.454.234-1.079.234-.547 0-.953-.203-.406-.219-.703-.594l-.078.672h-1.47v-9h1.626v3.235q.281-.328.672-.5.39-.188.906-.188.61 0 1.078.235.469.234.781.671.313.422.47 1.016.155.594.155 1.297zm-1.64-.125q0-.375-.063-.719-.047-.36-.203-.61-.14-.265-.39-.421-.235-.156-.61-.156-.437 0-.719.187-.28.188-.437.516v2.531q.156.328.437.516.282.187.735.187.375 0 .61-.14.234-.141.374-.391.156-.266.203-.61.063-.359.063-.765zm3.467-5.766h3.546v7.672h1.813v1.328h-5.36v-1.328h1.891v-6.344h-1.89zm9.935 9.125q-.734 0-1.344-.234-.593-.25-1.015-.656-.422-.422-.656-.985-.235-.562-.235-1.203v-.234q0-.719.219-1.313.234-.61.64-1.047.422-.437.985-.671.562-.235 1.219-.235.687 0 1.218.235.547.218.907.625.375.406.562.984.203.578.203 1.281v.688h-4.297q.047.312.188.593.14.266.36.454.234.187.515.296.281.11.625.11.25 0 .484-.047.235-.047.453-.14.22-.094.407-.22.187-.14.328-.328l.812.891q-.156.203-.406.422-.234.203-.562.375-.329.156-.735.25-.406.11-.875.11zm-.203-5.265q-.266 0-.5.093-.219.094-.406.282-.172.187-.297.437-.11.25-.156.563h2.672v-.125q-.016-.266-.11-.485-.078-.234-.25-.406-.156-.172-.406-.266-.234-.093-.547-.093zm5.81-.282 1.657 2.282v.11l-1.656 2.28h-1.063l1.422-2.328-1.422-2.344h1.063zm2 0 1.657 2.282v.11l-1.656 2.28h-1.063l1.422-2.328-1.422-2.344h1.063z" fill="#fff"/><path d="m775.971 277.438h172.567v51.087h-172.567z" fill="none"/><path d="m796.17 302.667q-.063.39-.172.875-.094.469-.266.953-.156.485-.39.938-.22.453-.547.812-.313.344-.719.563-.39.203-.906.203-.547-.031-.875-.312-.313-.282-.422-.813-.188.219-.39.422-.188.203-.423.36-.218.14-.484.234-.266.093-.562.093-.375 0-.625-.171-.235-.172-.391-.438-.14-.266-.203-.61-.063-.343-.078-.687-.016-.36.015-.687.032-.328.078-.563.063-.469.204-.984.14-.516.343-1.016.22-.515.5-.969.297-.453.672-.796.375-.344.844-.532.469-.203 1.047-.187 1 .031 1.594.844l-1.079 4.593q-.03.157-.062.36-.016.203.016.39.03.172.125.313.109.125.343.125.344.015.61-.156.265-.172.453-.47.203-.296.328-.655.14-.375.234-.75t.14-.72l.08-.562q.077-.531.093-1.078.015-.562-.063-1.094-.062-.546-.234-1.03-.172-.485-.484-.845-.313-.375-.782-.593-.468-.235-1.125-.266-.765-.016-1.422.234-.656.25-1.187.688-.531.437-.953 1.047-.422.594-.735 1.25-.312.656-.53 1.36-.204.687-.313 1.327-.094.578-.14 1.188-.032.594.03 1.172.063.562.235 1.062.187.5.53.89.345.376.86.595.516.218 1.25.234.563 0 1.094-.156.547-.157 1.047-.422l.187 1.078q-.515.344-1.125.516-.609.156-1.234.14-.89-.015-1.562-.265-.657-.266-1.125-.72-.47-.452-.766-1.062-.281-.61-.406-1.297-.125-.703-.125-1.453.015-.765.14-1.5.125-.781.375-1.61.266-.827.657-1.608.406-.797.937-1.5.531-.704 1.188-1.22.656-.53 1.437-.827.781-.297 1.688-.282.812.016 1.421.297.61.266 1.032.719.422.438.687 1.031.266.594.375 1.266.125.656.125 1.36 0 .702-.11 1.374zm-6.219 1.172q-.031.11-.062.281-.016.172-.032.391-.015.219-.015.438.015.203.062.39.063.172.172.297.11.11.297.125.266.016.484-.078.22-.094.407-.25.187-.156.343-.344.172-.203.297-.406l1.031-4.094q-.109-.047-.218-.078-.11-.031-.235-.047-.437-.031-.78.125-.33.156-.595.422-.265.266-.468.625-.188.344-.329.734-.125.375-.218.766-.094.375-.14.703zm10.372-3.797-.22 1.453q.313-.359.657-.656.36-.312.75-.531.406-.219.86-.328.453-.125.937-.11.828.016 1.39.329.563.296.891.812.344.516.453 1.203.11.688.032 1.422l-1.047 6.266h-1.641l1.047-6.235q.047-.5 0-.922-.047-.437-.25-.75-.188-.312-.547-.5-.36-.187-.906-.203-.422-.015-.813.11-.39.109-.734.312-.328.203-.625.5-.297.281-.531.61l-1.235 7.078h-1.656l1.719-9.86zm8.184 4.907q.078-.672.28-1.313.22-.64.532-1.203.313-.578.75-1.047.438-.484.969-.828.531-.344 1.156-.531.64-.188 1.375-.157 1.031.016 1.766.454.734.437 1.172 1.14.453.688.625 1.578.171.89.062 1.813l-.016.203q-.125 1-.53 1.922-.407.922-1.063 1.625-.641.687-1.516 1.094-.875.406-1.953.39-1.031-.031-1.766-.453-.734-.422-1.187-1.11-.438-.702-.61-1.577-.171-.875-.078-1.797zm1.625.203q-.047.375-.047.797.015.406.078.796.062.391.203.75.156.344.39.625.25.266.594.438.36.156.844.172.75.031 1.328-.297.594-.328 1-.86.422-.53.656-1.187.25-.672.36-1.328l.015-.188q.063-.578.016-1.203-.031-.64-.266-1.172-.234-.53-.671-.875-.422-.359-1.141-.375-.766-.03-1.36.297-.578.328-.984.875-.406.532-.656 1.203-.25.672-.328 1.329zm12.09-5.11-.219 1.453q.312-.359.656-.656.36-.312.75-.531.406-.219.86-.328.453-.125.937-.11.828.016 1.39.329.563.296.891.812.344.516.453 1.203.11.688.032 1.422l-1.047 6.266h-1.64l1.046-6.235q.047-.5 0-.922-.047-.437-.25-.75-.187-.312-.547-.5-.36-.187-.906-.203-.422-.015-.813.11-.39.109-.734.312-.328.203-.625.5-.297.281-.531.61l-1.235 7.078h-1.656l1.719-9.86zm12.106 10.047q-1-.031-1.766-.422-.766-.39-1.266-1.031-.484-.64-.703-1.484-.203-.86-.125-1.813l.047-.39q.078-.641.281-1.266.22-.64.547-1.203.328-.578.766-1.063.453-.484.984-.828.547-.36 1.172-.547.64-.203 1.344-.172 1.016.016 1.719.438.703.406 1.109 1.094.422.672.547 1.53.14.86.016 1.767l-.11.75h-6.781q-.078.609.031 1.187.11.563.406 1.031.297.453.782.735.484.28 1.14.297.86.03 1.578-.329.735-.375 1.313-.968l.953.797q-.344.468-.797.828-.453.359-.969.609-.515.234-1.078.344-.562.11-1.14.11zm1.203-8.844q-.64-.03-1.156.22-.5.234-.907.64-.39.406-.687.922-.281.515-.485 1.047l5.141.015.047-.156q.078-.516-.016-.984-.093-.47-.36-.844-.25-.375-.655-.61-.391-.234-.922-.25zm10.371 2.438 3.125-3.64h2.047l-4.406 4.952 2.844 4.907h-1.782l-2.062-3.75-3.219 3.75h-2.047l4.516-5.063-2.766-4.797h1.797l1.953 3.64zm11.997-6.031-.422 2.39h3.64l-.218 1.313h-3.64l-.892 5.36q-.046.405 0 .75.047.343.204.609.156.25.437.406.297.14.734.156.5.016.985-.078.5-.094 1-.203l.156 1.219q-.578.312-1.281.406-.703.11-1.344.094-.75-.016-1.266-.282-.5-.281-.812-.734-.297-.469-.422-1.063-.11-.609-.047-1.296l.89-5.344h-2.515l.235-1.313h2.5l.421-2.39zm9.277 12.437q-1-.031-1.765-.422-.766-.39-1.266-1.031-.484-.64-.703-1.484-.203-.86-.125-1.813l.047-.39q.078-.641.281-1.266.219-.64.547-1.203.328-.578.766-1.063.453-.484.984-.828.547-.36 1.172-.547.64-.203 1.344-.172 1.015.016 1.718.438.704.406 1.11 1.094.422.672.547 1.53.14.86.015 1.767l-.109.75h-6.781q-.078.609.031 1.187.11.563.406 1.031.297.453.781.735.485.28 1.141.297.86.03 1.578-.329.735-.375 1.313-.968l.953.797q-.344.468-.797.828-.453.359-.969.609-.515.234-1.078.344-.562.11-1.14.11zm1.204-8.844q-.641-.03-1.157.22-.5.234-.906.64-.39.406-.687.922-.282.515-.485 1.047l5.14.015.048-.156q.078-.516-.016-.984-.094-.47-.36-.844-.25-.375-.656-.61-.39-.234-.921-.25zm8.59-1.203-.219 1.453q.313-.359.656-.656.36-.312.75-.531.407-.219.86-.328.453-.125.937-.11.828.016 1.39.329.563.296.891.812.344.516.454 1.203.109.688.03 1.422l-1.046 6.266h-1.64l1.046-6.235q.047-.5 0-.922-.047-.437-.25-.75-.187-.312-.547-.5-.359-.187-.906-.203-.422-.015-.812.11-.391.109-.735.312-.328.203-.625.5-.297.281-.531.61l-1.234 7.078h-1.657l1.72-9.86zm14.637 7.188q.047-.422-.14-.688-.188-.281-.5-.453-.313-.172-.688-.281-.375-.11-.672-.172-.547-.14-1.14-.344-.594-.203-1.094-.515-.485-.328-.797-.797-.297-.485-.266-1.172.016-.5.203-.906.188-.422.485-.75.296-.328.687-.578.406-.25.844-.407.437-.156.89-.234.47-.078.922-.063.688.016 1.328.22.641.187 1.125.577.485.39.766.969.281.563.281 1.313h-1.64q0-.422-.157-.72-.14-.312-.421-.53-.266-.22-.625-.329-.344-.109-.72-.109-.374-.016-.765.078-.375.078-.719.25-.328.172-.578.469-.234.281-.28.687-.063.422.124.688.188.25.484.406.313.156.672.25.36.078.657.14.375.095.765.22.406.109.781.28.391.157.735.376t.594.5q.25.281.375.656.14.375.125.844-.032.797-.438 1.375-.406.562-1.016.922-.593.359-1.328.53-.718.173-1.406.157-.734-.015-1.422-.219-.672-.218-1.203-.625-.516-.406-.844-1-.312-.593-.297-1.39l1.641.015q.016.47.188.813.171.344.453.578.297.219.687.344.406.11.844.11.36 0 .766-.063.421-.078.78-.25.376-.172.626-.453.265-.297.328-.72zm6.043-7.188h4.907l-1.454 8.407h3.125l-.265 1.453h-8.016l.266-1.453h3.234l1.203-6.938h-3.25zm3.5-2.562q0-.438.266-.719.281-.281.719-.312.218 0 .39.078.188.062.313.203.14.125.203.312.062.172.062.39 0 .438-.28.704-.266.266-.704.281-.422.032-.703-.234-.266-.266-.266-.703zm14.434 7.547q-.078.609-.25 1.234-.156.61-.422 1.172-.265.562-.64 1.062-.36.485-.828.86-.47.36-1.063.547-.578.203-1.281.187-.797-.015-1.484-.328-.672-.312-1.11-.984l-.328 1.125h-1.531l2.437-14h1.64l-.983 5.203q.562-.625 1.265-.938.703-.328 1.563-.297.656.016 1.156.235.516.219.875.594.36.359.578.843.234.485.344 1.032.11.546.125 1.125.031.578-.031 1.14zm-1.61-.203q.063-.547.032-1.157-.015-.625-.219-1.14-.187-.516-.593-.86-.407-.36-1.125-.375-.422-.015-.797.094-.36.11-.672.328-.313.203-.578.485-.266.28-.5.609l-.75 4.328q.25.688.75 1.11.5.406 1.265.421.75.016 1.297-.312.563-.328.938-.844.39-.531.61-1.187.218-.657.312-1.297zm6.294-8.922h4.907l-2.172 12.547h3.125l-.266 1.453h-8.016l.266-1.453h3.234l1.922-11.079h-3.265zm12.606 14.187q-1-.031-1.765-.422-.766-.39-1.266-1.031-.484-.64-.703-1.484-.203-.86-.125-1.813l.047-.39q.078-.641.28-1.266.22-.64.548-1.203.328-.578.765-1.063.454-.484.985-.828.547-.36 1.172-.547.64-.203 1.343-.172 1.016.016 1.72.438.702.406 1.109 1.094.421.672.546 1.53.141.86.016 1.767l-.11.75h-6.78q-.079.609.03 1.187.11.563.407 1.031.297.453.781.735.485.28 1.14.297.86.03 1.579-.329.734-.375 1.312-.968l.954.797q-.344.468-.797.828-.453.359-.97.609-.515.234-1.077.344-.563.11-1.14.11zm1.203-8.844q-.64-.03-1.156.22-.5.234-.906.64-.39.406-.688.922-.281.515-.484 1.047l5.14.015.047-.156q.079-.516-.015-.984-.094-.47-.36-.844-.25-.375-.656-.61-.39-.234-.922-.25z" fill="#000"/><path d="m161.75 412.562c0-6.283 5.094-11.376 11.376-11.376h166.225a11.376 11.376 0 0 1 11.376 11.376v45.5c0 6.283-5.093 11.376-11.376 11.376h-166.225c-6.282 0-11.375-5.093-11.375-11.375z" fill="#34a853" fill-rule="evenodd"/><path d="m161.75 412.562c0-6.283 5.094-11.376 11.376-11.376h166.225a11.376 11.376 0 0 1 11.376 11.376v45.5c0 6.283-5.093 11.376-11.376 11.376h-166.225c-6.282 0-11.375-5.093-11.375-11.375z" stroke="#666" stroke-linecap="butt" stroke-linejoin="round"/><path d="m197.99 426.069h-8.125v7.843h-3.672v-18.952h12.812v2.985h-9.14v5.156h8.125v2.969zm5.058-6.235h7.672v11.14h3.813v2.938h-11.485v-2.937h4.016v-8.188h-4.016zm3.75-3.61q0-.421.141-.78.156-.36.422-.61.281-.25.656-.39.39-.141.86-.141.968 0 1.53.547.563.531.563 1.375t-.562 1.39q-.563.532-1.531.532-.47 0-.86-.14-.375-.142-.656-.392-.266-.265-.422-.609-.14-.36-.14-.781zm23.981 10.798q0 1.562-.36 2.89-.343 1.313-1.03 2.266-.688.937-1.72 1.469-1.015.53-2.39.53-1.234 0-2.14-.452-.907-.469-1.547-1.313l-.172 1.5h-3.266v-20h3.625v7.188q.625-.719 1.469-1.125.86-.406 2-.406 1.39 0 2.422.53 1.031.532 1.719 1.485.687.953 1.03 2.281.36 1.313.36 2.875zm-3.625-.282q0-.859-.14-1.625-.125-.765-.438-1.343-.312-.578-.86-.922-.546-.344-1.374-.344-.985 0-1.61.422-.609.422-.953 1.14v5.61q.344.734.953 1.156.625.406 1.641.406.812 0 1.344-.312.547-.328.86-.89.312-.563.437-1.329.14-.781.14-1.687zm13.762 7.438q-1.625 0-2.953-.531-1.328-.547-2.281-1.453-.953-.922-1.469-2.157-.516-1.25-.516-2.672v-.515q0-1.625.5-2.953.516-1.328 1.422-2.297.922-.969 2.172-1.5t2.719-.531q1.516 0 2.703.5 1.203.5 2.031 1.421.828.907 1.25 2.188.438 1.281.438 2.828v1.531h-9.563q.11.72.422 1.313.328.594.813 1.031.5.422 1.14.656.64.235 1.39.235.532 0 1.063-.094.532-.11 1-.313.485-.203.907-.5.422-.312.734-.703l1.797 1.953q-.328.47-.875.938-.531.469-1.281.828-.735.344-1.64.563-.892.234-1.923.234zm-.437-11.688q-.61 0-1.125.22-.5.218-.89.624-.376.406-.642.969-.25.547-.39 1.234h5.937v-.28q-.015-.58-.218-1.08-.188-.515-.563-.874-.36-.375-.89-.594-.532-.219-1.22-.219zm19.715-2.921q.812 0 1.5.109.703.11 1.14.25l-.53 3.594q-.72-.172-1.47-.25-.75-.078-1.421-.078-1.532 0-2.454.593-.906.578-1.359 1.672v8.453h-3.625v-14.078h3.375l.172 2.297q.86-1.203 2.047-1.875 1.203-.687 2.625-.687zm18.246 14.343h-3.64l-5.282-12.218v12.218h-3.687v-18.952h3.687l5.235 12.172.015-12.172h3.672v18.953zm3.137-7.172q0-1.53.438-2.843.437-1.313 1.296-2.266.86-.969 2.079-1.516 1.234-.546 2.828-.546 1.578 0 2.812.546 1.25.547 2.094 1.516.86.953 1.297 2.266.437 1.312.437 2.843v.282q0 1.547-.437 2.86-.438 1.296-1.297 2.265-.844.953-2.078 1.5-1.235.53-2.813.53t-2.828-.53q-1.234-.547-2.094-1.5-.859-.97-1.296-2.266-.438-1.312-.438-2.86v-.28zm3.61.282q0 .875.171 1.656.172.766.532 1.344.375.578.953.922.578.343 1.39.343.797 0 1.36-.343.578-.344.937-.922.36-.578.531-1.344.172-.781.172-1.656v-.282q0-.859-.172-1.625-.171-.765-.53-1.343-.36-.594-.938-.938-.563-.344-1.375-.344-.813 0-1.39.344-.563.344-.938.938-.36.578-.532 1.343-.172.766-.172 1.625v.282zm12.496-.25q0-1.61.375-2.938t1.078-2.265q.719-.954 1.734-1.47 1.032-.53 2.344-.53 1.11 0 1.953.406.844.39 1.485 1.11v-7.173h3.64v20h-3.265l-.188-1.468q-.672.812-1.578 1.28-.89.454-2.063.454-1.296 0-2.328-.531-1.015-.547-1.718-1.5-.704-.953-1.094-2.266-.375-1.312-.375-2.844zm3.625.265q0 .89.14 1.657.157.75.485 1.328.344.562.875.89.547.313 1.312.313.938 0 1.547-.39.625-.407.985-1.11v-5.703q-.36-.72-.97-1.11-.609-.406-1.546-.406-.766 0-1.313.344-.53.328-.875.906-.328.578-.484 1.36-.156.765-.156 1.656zm19.59 7.14q-1.625 0-2.953-.53-1.328-.547-2.281-1.453-.954-.922-1.47-2.157-.515-1.25-.515-2.672v-.515q0-1.625.5-2.953.516-1.328 1.422-2.297.922-.969 2.172-1.5t2.719-.531q1.515 0 2.703.5 1.203.5 2.031 1.421.828.907 1.25 2.188.438 1.281.438 2.828v1.531h-9.563q.11.72.422 1.313.328.594.812 1.031.5.422 1.141.656.64.235 1.39.235.532 0 1.063-.094.531-.11 1-.313.485-.203.906-.5.422-.312.735-.703l1.797 1.953q-.328.47-.875.938-.532.469-1.282.828-.734.344-1.64.563-.89.234-1.922.234zm-.438-11.687q-.609 0-1.125.22-.5.218-.89.624-.375.406-.64.969-.25.547-.391 1.234h5.937v-.28q-.016-.58-.219-1.08-.187-.515-.562-.874-.36-.375-.89-.594-.532-.219-1.22-.219zm-88.632 25.883.156 1.375q.532-.75 1.282-1.14.765-.407 1.687-.407.734 0 1.36.219.624.219 1.062.703.453.469.703 1.219.25.75.25 1.828v6.062h-2.531v-6.03q0-.579-.14-.954-.126-.39-.376-.61-.234-.218-.578-.296-.344-.094-.781-.094-.656 0-1.11.266-.453.265-.734.718v7h-2.547v-9.859zm8.555 4.844q0-1.078.312-1.985.313-.922.907-1.593.593-.688 1.453-1.063.86-.375 1.969-.375 1.125 0 1.984.375.86.375 1.453 1.063.61.671.906 1.593.313.907.313 1.985v.187q0 1.078-.313 2-.297.922-.89 1.594-.594.672-1.469 1.047-.86.375-1.953.375-1.125 0-2-.375-.86-.375-1.453-1.047-.594-.672-.907-1.594-.312-.922-.312-2zm2.531.187q0 .625.11 1.172.125.531.375.938.265.406.671.64.407.235.985.235.547 0 .937-.235.407-.234.657-.64.25-.407.375-.938.125-.547.125-1.172v-.187q0-.61-.125-1.14-.125-.548-.375-.954-.25-.406-.657-.64-.39-.235-.968-.235-.563 0-.97.234-.39.235-.655.641-.25.406-.375.953-.11.531-.11 1.14zm8.743-.172q0-1.125.265-2.047.266-.937.766-1.593.5-.672 1.203-1.032.719-.359 1.64-.359.782 0 1.36.281.594.266 1.047.782v-5.032h2.547v14h-2.297l-.125-1.03q-.469.577-1.094.905-.625.313-1.453.313-.906 0-1.625-.375-.703-.39-1.203-1.047-.5-.672-.766-1.578-.265-.922-.265-2zm2.53.188q0 .625.11 1.156.11.531.344.938.234.39.61.625.374.218.906.218.656 0 1.093-.28.438-.282.688-.782v-3.985q-.25-.5-.688-.78-.421-.282-1.078-.282-.531 0-.906.234-.375.235-.625.641-.234.406-.344.953-.11.531-.11 1.156zm13.712 5q-1.14 0-2.078-.375-.922-.375-1.594-1.016-.656-.64-1.015-1.515-.36-.875-.36-1.86v-.375q0-1.125.36-2.047.359-.937.984-1.609.64-.688 1.516-1.047.875-.375 1.906-.375 1.062 0 1.89.344.844.344 1.422.984.579.64.875 1.547.313.89.313 1.969v1.078h-6.688q.063.5.282.922.234.406.578.719.344.296.781.468.453.157.984.157.375 0 .735-.079.375-.078.703-.218.344-.14.64-.344.297-.219.516-.5l1.266 1.375q-.235.328-.625.656-.375.328-.89.578-.516.25-1.141.407-.625.156-1.36.156zm-.297-8.172q-.422 0-.781.156-.36.14-.625.422-.266.281-.453.672-.188.39-.266.875h4.14v-.203q-.015-.39-.155-.75-.125-.36-.391-.61-.25-.265-.625-.406-.36-.156-.844-.156zm15.383 7.984h-9.047v-1.734l4.297-4.61q.5-.546.844-.984.344-.453.563-.812.218-.375.312-.688.094-.328.094-.625 0-.453-.125-.797-.125-.343-.36-.578-.234-.25-.562-.375-.328-.125-.719-.125-1.047 0-1.562.578-.516.578-.516 1.625h-2.531q0-.875.328-1.656.344-.797.953-1.39.625-.594 1.484-.938.875-.344 1.938-.344 1 0 1.781.297.781.281 1.297.797.531.5.797 1.219.281.703.281 1.578 0 .656-.203 1.25t-.594 1.187q-.375.578-.906 1.188-.516.594-1.172 1.265l-2.484 2.641h5.812z" fill="#fff"/><path d="m174.372 469.616h163.496v59.716h-163.496z" fill="#bdbdbd" fill-rule="evenodd"/><path d="m174.372 469.616h163.496v59.716h-163.496z" stroke="#666" stroke-linecap="butt" stroke-linejoin="round"/><path d="m261.668 501.483q0 1.625-.375 2.89-.375 1.266-1.078 2.125-.703.86-1.718 1.313-1.016.437-2.329.437-1.312 0-2.343-.437-1.016-.453-1.735-1.313-.703-.859-1.093-2.125-.375-1.265-.375-2.89v-4q0-1.625.375-2.875.375-1.266 1.078-2.125.718-.875 1.734-1.328 1.031-.454 2.328-.454 1.313 0 2.328.454 1.032.453 1.735 1.328.718.86 1.093 2.125.375 1.25.375 2.875zm-8.875-.438 6.657-5.094q-.188-1.703-1-2.578-.797-.89-2.313-.89-1.703 0-2.531 1.156-.813 1.156-.813 3.375zm6.704-3.015-6.641 5.078q.203 1.64 1.016 2.515.828.86 2.296.86 1.72 0 2.516-1.172.813-1.172.813-3.375z" fill="#000"/><path d="m350.727 435.312c85.707 0 128.56-18.708 171.414-37.417s85.71-37.417 171.42-37.417" fill="none"/><g stroke="#595959" stroke-linecap="butt" stroke-width="4"><path d="m350.727 435.312c85.707 0 128.56-18.708 171.414-37.417 21.427-9.354 42.855-18.709 69.64-25.724 13.392-3.508 28.123-6.431 44.864-8.478 8.37-1.023 17.242-1.827 26.7-2.375a472.436 472.436 0 0 1 5.383-.281l.84-.037" stroke-linejoin="round"/><path d="m669.711 367.605 18.004-7-18.291-6.21z" fill="#595959" fill-rule="evenodd"/></g></g></svg>