<svg fill="none" stroke-linecap="square" stroke-miterlimit="10" viewBox="0 0 960 540" xmlns="http://www.w3.org/2000/svg" xmlns:xlink="http://www.w3.org/1999/xlink"><defs><filter id="a" filterUnits="userSpaceOnUse"><feGaussianBlur in="SourceAlpha" stdDeviation="2"/><feComponentTransfer color-interpolation-filters="sRGB"><feFuncR intercept="1" slope="0" type="linear"/><feFuncG intercept=".9" slope="0" type="linear"/><feFuncB intercept=".8" slope="0" type="linear"/><feFuncA slope=".5" type="linear"/></feComponentTransfer></filter><clipPath id="b"><use xlink:href="#g"/></clipPath><path id="c" d="m436.3 469.6h142.6v30h-142.6z" fill="#bdbdbd" fill-rule="evenodd"/><path id="d" d="m21.9 488.3h113.4v41h-113.3z" fill="#bdbdbd" fill-rule="evenodd"/><path id="e" d="m174.4 469.6h163.5v59.7h-163.5z" fill="#bdbdbd" fill-rule="evenodd"/><path id="f" d="m704.7 249.6h142.6v30h-142.6z" fill="#bdbdbd" fill-rule="evenodd"/><path id="g" d="m0 0h960v540h-960z"/><path id="h" d="m693.7 192.5a11.4 11.4 0 0 1 11.3-11.3h142.1a11.4 11.4 0 0 1 11.4 11.3v45.5a11.4 11.4 0 0 1 -11.4 11.4h-142a11.4 11.4 0 0 1 -11.4-11.4z"/><path id="i" d="m161.8 249.2a11.4 11.4 0 0 1 11.3-11.4h166.3a11.4 11.4 0 0 1 11.3 11.4v45.5a11.4 11.4 0 0 1 -11.3 11.3h-166.4a11.4 11.4 0 0 1 -11.3-11.3z"/><path id="j" d="m174.4 306.2h163.5v59.8h-163.5z"/><path id="k" d="m693.7 82.7a11.4 11.4 0 0 1 11.3-11.4h142.1a11.4 11.4 0 0 1 11.4 11.4v45.5a11.4 11.4 0 0 1 -11.4 11.4h-142a11.4 11.4 0 0 1 -11.4-11.4z"/><path id="l" d="m693.6 337.7a11.4 11.4 0 0 1 11.3-11.3h142.1a11.4 11.4 0 0 1 11.4 11.3v45.5a11.4 11.4 0 0 1 -11.4 11.4h-142a11.4 11.4 0 0 1 -11.4-11.4z"/><path id="m" d="m425.1 249.2a11.4 11.4 0 0 1 11.4-11.4h142a11.4 11.4 0 0 1 11.5 11.4v45.5a11.4 11.4 0 0 1 -11.4 11.3h-142a11.4 11.4 0 0 1 -11.5-11.3z"/><path id="n" d="m436.3 306.2h142.6v30h-142.6z"/><path id="o" d="m13.1 285a7.8 7.8 0 0 1 7.9-7.8h115.5a7.8 7.8 0 0 1 7.8 7.8v31.3a7.8 7.8 0 0 1 -7.8 7.8h-115.5a7.8 7.8 0 0 1 -7.9-7.8z"/><path id="p" d="m21.9 324.2h113.4v41h-113.3z"/><path id="q" d="m13.1 449.1a7.8 7.8 0 0 1 7.9-7.8h115.5a7.8 7.8 0 0 1 7.8 7.8v31.3a7.8 7.8 0 0 1 -7.8 7.8h-115.5a7.8 7.8 0 0 1 -7.9-7.8z"/><path id="r" d="m425.1 412.6a11.4 11.4 0 0 1 11.4-11.4h142a11.4 11.4 0 0 1 11.5 11.4v45.4a11.4 11.4 0 0 1 -11.4 11.3h-142a11.4 11.4 0 0 1 -11.5-11.3z"/></defs><g clip-path="url(#b)"><use fill="#fff" fill-rule="evenodd" xlink:href="#g"/><use filter="url(#a)" xlink:href="#s" y="2"/><path id="s" d="m7.8 396.9a7.1 7.1 0 0 1 7.1-7.2h577a7.1 7.1 0 0 1 7.2 7.2v131a7.1 7.1 0 0 1 -7.1 7.2h-577a7.1 7.1 0 0 1 -7.2-7.1z" fill="#f5dfff" fill-rule="evenodd"/><use filter="url(#a)" xlink:href="#t" y="2"/><path id="t" d="m7.8 234.3a7.1 7.1 0 0 1 7.1-7h577a7.1 7.1 0 0 1 7.2 7v131.2a7.1 7.1 0 0 1 -7.1 7.1h-577a7.1 7.1 0 0 1 -7.2-7.1z" fill="#f5dfff" fill-rule="evenodd"/><use fill="#ff9800" fill-rule="evenodd" xlink:href="#h"/><use stroke="#666" stroke-linejoin="round" xlink:href="#h"/><path d="m747.6 212q0-.6-.2-1-.1-.5-.5-.8l-1.1-.7q-.7-.4-1.7-.6l-2.4-.9q-1.1-.5-2-1.2-.8-.7-1.4-1.7-.5-1-.5-2.1 0-1.3.5-2.2.5-1 1.4-1.7 1-.7 2.2-1 1.2-.4 2.6-.4 1.5 0 2.7.4 1.3.4 2.1 1.2 1 .8 1.4 1.9.5 1 .5 2.3h-3.5q0-.6-.3-1.2-.2-.5-.6-.9-.4-.4-1-.6-.5-.2-1.3-.2t-1.3.2l-1 .5q-.4.3-.6.7l-.2 1q0 .5.3 1 .3.4.8.7l1.2.7 1.6.5q1.3.4 2.4 1 1.1.5 1.9 1.2.8.7 1.2 1.7.5 1 .5 2.1 0 1.3-.5 2.2-.5 1-1.4 1.7-1 .7-2.1 1-1.3.3-2.7.3l-1.8-.1-1.7-.5-1.5-.9q-.7-.5-1.2-1.1-.5-.7-.8-1.6-.3-.8-.3-1.9h3.6q0 .9.3 1.5.2.6.7 1 .5.4 1.2.6l1.5.1 1.3-.1 1-.5.5-.7q.3-.4.3-1zm10-7.2q.6-1 1.6-1.6 1-.6 2.3-.6 1.1 0 2 .3 1 .3 1.6 1 .7.7 1 1.8.4 1.1.4 2.7v8.5h-3.5v-8.5q0-.8-.2-1.4l-.5-.8q-.4-.4-.9-.5-.4-.2-1-.2-1 0-1.7.3-.6.3-1 1v10.1h-3.7v-20h3.6zm21.1 12-.2-.5-.2-.7-.7.6-.8.5-1 .3-1.3.1q-1 0-2-.3-.9-.3-1.5-.8-.7-.6-1-1.4-.4-.7-.4-1.7 0-2.2 1.6-3.4 1.7-1.2 5-1.2h2v-.9q0-1-.7-1.6-.6-.6-1.9-.6-1 0-1.6.5-.5.5-.5 1.3h-3.6q0-1 .4-1.7.4-.8 1.2-1.4.7-.6 1.8-1t2.5-.4q1.3 0 2.4.4 1.1.3 2 .9.7.6 1.2 1.5.4 1 .4 2.2v6q0 1.2.2 1.9.1.7.4 1.3v.2zm-3.4-2.4 1-.2.8-.3.7-.5.4-.5v-2.4h-1.8l-1.5.1-1 .5-.5.7q-.2.4-.2.9 0 .7.5 1.2t1.6.5zm23.3-4.4q0 1.5-.4 2.8-.4 1.3-1 2.3-.7 1-1.8 1.5-1 .6-2.3.6-1.2 0-2-.4-.9-.4-1.5-1.1v6.6h-3.6v-19.5h3.3l.1 1.4q.7-.8 1.6-1.2.9-.5 2-.5 1.4 0 2.4.6 1 .5 1.7 1.4.8 1 1.1 2.3.4 1.3.4 2.9zm-3.6-.3q0-.9-.2-1.7l-.5-1.3q-.3-.6-.9-.9-.5-.3-1.3-.3-1 0-1.6.3-.6.4-1 1.1v5.9q.4.7 1 1 .6.5 1.6.5.8 0 1.3-.4.6-.3 1-.9.3-.6.4-1.4.2-.7.2-1.6zm13.8 7.5q-1.7 0-3-.6-1.3-.5-2.3-1.4-1-1-1.4-2.2-.6-1.2-.6-2.7v-.5q0-1.6.5-3 .6-1.3 1.5-2.2.9-1 2.1-1.5 1.3-.5 2.8-.5 1.5 0 2.7.5 1.2.5 2 1.4.8.9 1.2 2.2.5 1.2.5 2.8v1.5h-9.6q.1.7.4 1.3l.8 1q.5.5 1.2.7.6.3 1.4.3l1-.1q.6-.1 1-.4l1-.5.7-.7 1.8 2-1 1q-.4.4-1.2.8l-1.6.5q-1 .3-2 .3zm-.5-11.7q-.6 0-1.1.2l-1 .6-.5 1q-.3.5-.4 1.2h5.9v-.3l-.2-1q-.2-.6-.6-1l-.9-.5q-.5-.2-1.2-.2zm-98 26.7q0-.9.2-1.7.1-.8.4-1.5l.5-1.2.7-1 .7-.8.8-.4.4 1q-.4.2-.8.7l-.6 1.2-.5 1.6q-.2 1-.2 2.1v.2q0 1.2.2 2.1l.5 1.7.6 1.1.8.8-.4 1-.8-.5-.7-.7-.7-1-.5-1.3q-.3-.7-.4-1.5l-.1-1.7zm11.1 3.9v-.3l-.2-.4-.3.3-.5.3-.5.2h-.6l-1-.1-.8-.5q-.3-.2-.5-.6l-.1-.9q0-1 .8-1.7.8-.6 2.5-.6h1v-.4q0-.5-.4-.8-.3-.3-1-.3-.5 0-.7.2-.3.2-.3.6h-1.8l.2-.8q.2-.4.6-.7l.9-.5q.5-.2 1.3-.2l1.2.2 1 .4.5.8q.3.5.3 1v4.1l.3.6h-1.9zm-1.7-1.3h.5l.4-.2.3-.2.3-.3v-1.2h-1.7l-.5.3-.3.3v.5l.2.6q.3.2.8.2zm8.4 0 .5-.1q.3 0 .5-.2l.2-.4.1-.4h1.8q0 .5-.3 1-.2.5-.6.8l-1 .5q-.5.2-1.1.2-.8 0-1.5-.2-.6-.3-1-.8t-.6-1.1l-.2-1.4v-.2q0-.8.2-1.4.2-.7.6-1.1.4-.5 1-.8.6-.3 1.5-.3l1.2.2 1 .6.5.8q.3.5.3 1.1h-1.8v-.5l-.3-.4-.4-.2-.6-.1-.7.1-.4.5-.3.7v1.8l.3.6q.1.3.4.5.3.2.7.2zm8.2-7.5v1.7h2.7v1.4h-2.7v3l.1.7.3.4.4.2h1.7l.3-.2.2 1.3-.5.2-.5.1-.6.1h-.6l-1-.1-.9-.5-.5-.8q-.2-.5-.2-1.2v-3.2h-1.5v-1.4h1.6v-1.7zm9.2 7.8q-.4.5-.9.8-.5.3-1 .3l-1-.1q-.5-.2-.8-.6-.4-.3-.6-1l-.1-1.3v-4.2h1.8v5l.2.4.4.3h.5l1-.1.4-.6v-5h1.9v7h-1.7zm8 1q-.2-.1-.2-.3v-.4l-.4.3-.4.3-.6.2h-.6l-1-.1-.8-.5q-.3-.2-.5-.6l-.1-.9q0-1 .8-1.7.8-.6 2.5-.6h1v-.4q0-.5-.4-.8-.3-.3-1-.3-.5 0-.7.2-.3.2-.3.6h-1.8l.2-.8q.2-.4.6-.7l1-.5q.5-.2 1.2-.2l1.2.2 1 .4.5.8q.3.5.3 1v4.1l.3.6h-1.9zm-1.8-1.3h.5l.4-.2.3-.2.3-.3v-1.2h-1.7l-.5.3-.3.3v.5l.2.6q.3.2.8.2zm5.7-8.7h4v8.5h2v1.5h-6v-1.5h2v-7h-2zm12.5 7.5-.1-.5-.3-.4-.6-.3-.8-.3-1.2-.4-1-.7q-.4-.3-.7-.8l-.2-1q0-.7.2-1.2.3-.5.7-.8l1-.5 1.4-.2 1.4.2q.6.2 1 .6.5.4.7 1 .3.5.3 1h-1.8l-.2-.5q0-.3-.2-.5l-.5-.3h-1.4l-.5.3-.3.4v.9l.5.4.6.3.8.3 1.2.5 1 .6.5.9q.2.4.2 1t-.2 1.1q-.3.5-.7.8-.4.4-1 .5l-1.4.2h-.9l-.8-.3-.8-.4-.6-.6-.4-.8q-.2-.4-.2-1h1.8q0 .5.2.8.1.3.4.5l.6.3h1.4l.4-.3.3-.3.1-.5zm6.4-6.3v1.7h2.7v1.4h-2.7v3l.1.7.3.4.4.2h1.7l.3-.2.2 1.3-.5.2-.5.1-.6.1h-.6l-1-.1-.9-.5-.5-.8q-.2-.5-.2-1.2v-3.2h-1.5v-1.4h1.6v-1.7zm9.1 8.8-.1-.3v-.4l-.4.3-.5.3-.5.2h-.6l-1-.1-.8-.5q-.3-.2-.5-.6-.2-.4-.2-.9 0-1 .9-1.7.8-.6 2.4-.6h1v-.4q0-.5-.3-.8-.3-.3-1-.3-.5 0-.7.2-.3.2-.3.6h-1.8l.2-.8q.2-.4.6-.7l1-.5q.5-.2 1.2-.2l1.2.2 1 .4.5.8q.3.5.3 1v4.1l.3.6h-1.9zm-1.7-1.3h.5l.4-.2.3-.2.3-.3v-1.2h-1.7l-.5.3-.3.3v.5l.2.6q.3.2.8.2zm10.3-5.8h.7l.6.2-.3 1.8-.7-.1h-.7q-.8 0-1.3.2-.4.3-.6.8v4.3h-1.7v-7h1.6l.1 1q.4-.5 1-.8.6-.4 1.4-.4zm6.2-1.6v1.7h2.6v1.4h-2.6v3l.1.7.2.4.5.2h1.8l.3-.2.2 1.3-.5.2-.5.1-.6.1h-.6l-1-.1-.9-.5-.5-.8q-.2-.5-.2-1.2v-3.2h-1.5v-1.5h1.6v-1.7zm11.6.8h-3v8h-1.8v-8h-2.8v-1.5h7.6zm1.6 1h3.8v5.5h2v1.5h-5.8v-1.5h2v-4h-2zm1.9-1.9v-.3l.2-.3.4-.2.4-.1q.5 0 .8.3.2.2.2.6 0 .5-.2.7-.3.3-.8.3h-.4l-.4-.3-.2-.3zm6.7 1.8v.9l.6-.7q.4-.3.9-.3.8 0 1 .8l.6-.6.8-.2.6.1q.3.1.5.4l.3.7.1 1v5h-1.6v-5.4l-.2-.2h-.2l-.2-.1h-.3l-.2.3v5.4h-1.6v-5.4l-.1-.2h-.2l-.2-.1-.3.1-.2.3v5.3h-1.7v-7zm10.3 7.2q-.8 0-1.5-.2-.6-.3-1.1-.8-.5-.4-.7-1-.3-.7-.3-1.4v-.2q0-.9.3-1.5.2-.7.7-1.2.4-.5 1-.7.7-.3 1.4-.3.8 0 1.4.3.6.2 1 .7.4.4.6 1 .2.7.2 1.5v.8h-4.8l.2.6.4.5.6.4h1.2l.5-.1.5-.3.4-.3.9 1-.5.4-.6.4-.8.3h-1zm-.2-5.8h-.6l-.4.4-.3.5q-.2.2-.2.6h3v-.1l-.2-.6-.2-.4-.5-.3zm9.6 2-.1 1.7-.4 1.5-.6 1.2-.7 1-.8.8-.7.5-.4-1 .8-.8.6-1.1.5-1.7q.2-1 .2-2.1v-.2q0-1.2-.2-2.1-.2-1-.5-1.6-.3-.8-.7-1.2-.3-.5-.7-.8l.4-1 .7.5.8.8.7 1 .6 1.3.4 1.4.1 1.7z" fill="#fff"/><use fill="#bdbdbd" fill-rule="evenodd" xlink:href="#f"/><use stroke="#666" stroke-linejoin="round" xlink:href="#f"/><path d="m717.4 261.6-.1 1.6h-.7v-2.1h.8zm6.6 6.5v-.3l-.1-.3-.3.3-.3.2h-.4l-.5.2q-.4 0-.7-.2-.3 0-.5-.3l-.4-.4-.1-.6q0-.4.2-.7.1-.3.4-.5l.7-.3 1-.1h.9v-.8l-.3-.3-.4-.2h-.9l-.4.2-.2.2v.3h-.9l.1-.5.4-.5.7-.3q.3-.2.8-.2l.7.1.7.3.4.6.1.7v2.8l.2.5zm-1.5-.7h.5l.4-.2.3-.2.2-.3v-1h-.8q-.7 0-1.1.2-.4.2-.4.7v.3q0 .2.2.3l.3.2h.5zm6 0h.4l.4-.2.3-.3v-.4h.9l-.2.6-.4.6-.7.3q-.3.2-.7.2-.6 0-1-.2t-.7-.6q-.3-.3-.4-.8-.2-.4-.2-1v-.1l.2-1q.1-.4.4-.7.3-.4.7-.5.4-.2 1-.2h.8q.4.2.6.5.3.2.4.5l.2.7h-.8l-.1-.4-.3-.3q-.1-.2-.4-.3h-1.1q-.3.2-.4.5l-.3.6v1.4l.3.6q.1.3.4.4.3.2.7.2zm5.5-5.5v1.2h1.9v.7h-2v2.7l.1.4.3.3.2.2h1.2l.2-.1.1.6-.2.1h-.4l-.3.1h-1.1l-.4-.3-.4-.6-.1-.7v-2.7h-1.3v-.7h1.3v-1.1zm6.8 5.5-.6.6q-.4.2-.9.2-.4 0-.7-.2-.3 0-.5-.3-.3-.3-.4-.7l-.1-1v-2.9h.8v3l.1.6q0 .3.2.5l.3.2h.4q.6 0 .9-.2.3-.2.4-.5v-3.7h.9v5h-.8v-.7zm5.6.7v-.3l-.1-.3-.3.3-.3.2-.4.1h-1.3l-.5-.4-.4-.4-.1-.6.1-.7.5-.5.7-.3 1-.1h.9v-.4l-.1-.4q0-.2-.2-.3l-.4-.2h-.9l-.4.2-.2.2v.3h-1q0-.3.2-.5l.4-.5.6-.3.9-.1h.7l.7.3.4.6.1.7v2.8l.2.5zm-1.5-.7h.5l.4-.2.3-.2.2-.3v-1h-.8q-.7 0-1.2.2-.4.2-.4.7v.3l.3.3.3.2zm4-6.3h2.5v6.2h1.6v.8h-4v-.8h1.7v-5.5h-1.7v-.7zm9 5.3q0-.3-.2-.5l-.4-.4-.4-.2-.5-.2-.8-.3-.6-.4-.5-.5q-.2-.3-.2-.8 0-.4.2-.7l.5-.6.7-.3.8-.2.8.2q.4.1.7.4.3.2.5.6l.2.8h-.9l-.1-.5-.3-.4-.4-.2-.5-.1h-.5l-.4.3q-.2 0-.3.3l-.1.4.1.5.4.4.5.2.5.2.5.1.4.3q.3 0 .5.2l.3.4q.2.2.2.5l.1.5-.2.8-.5.5-.7.4h-1.6l-.8-.5-.6-.6q-.2-.4-.2-.9h.9l.2.6q0 .2.3.4l.4.2.6.1h.5l.4-.2.3-.4zm4-4.5v1.2h2v.7h-2v2.7l.1.4.2.3.3.2h1.2l.2-.1.1.6-.2.1h-.4l-.3.1h-1.1l-.5-.3-.3-.6-.1-.7v-2.7h-1.3v-.7h1.3v-1.1zm7 6.2-.2-.3v-.3l-.3.3q-.2 0-.3.2l-.4.1h-1.2l-.6-.4-.3-.4-.1-.6.1-.7.5-.5.7-.3 1-.1h.9v-.4l-.1-.4q0-.2-.2-.3l-.4-.2h-.9l-.4.2-.2.2v.3h-1q0-.3.2-.5l.4-.5.6-.3.9-.1h.7l.7.3.4.6.1.7v2.8l.2.5zm-1.6-.7h.5l.4-.2.3-.2.2-.3v-1h-.8q-.7 0-1.2.2-.4.2-.4.7l.1.3q0 .2.2.3l.3.2zm7-4.3h1l-.2.9h-.4l-.5-.1q-.6 0-1 .3-.3.2-.5.7v3.2h-.8v-5h.8v.8q.3-.4.7-.6l1-.2zm4.5-1.1v1.2h1.8v.6h-1.9v2.7l.1.5.2.3.3.1h1.4l.1.5-.2.1h-.4l-.3.1h-1.1l-.5-.3-.3-.5-.1-.8v-2.7h-1.3v-.7h1.3v-1.1h.8zm8 .2h-2v5.9h-.8v-6h-2v-.6h4.8zm1.3 1h2.5v4.1h1.6v.8h-4.1v-.8h1.6v-3.3h-1.6zm1.6-1.3v-.4l.5-.1.4.1v.7l-.4.1-.4-.1zm4.2 1.3v.4l.5-.4.6-.1q.6 0 .9.5l.3-.4.6-.2q.6 0 .9.4.3.3.3 1v3.7h-.9v-3.7q0-.7-.5-.6h-.3l-.2.1v.2l-.1.2v3.8h-.8v-3.7l-.1-.5-.5-.1h-.4l-.2.3v4h-.8v-5zm7.4 5-1-.2-.7-.5-.5-.8-.1-1v-.1q0-.6.2-1l.5-.9.7-.5.8-.1 1 .1q.4.2.6.6.3.3.4.7l.1 1v.4h-3.5l.1.6.4.5.5.4h.6l.8-.1.6-.5.5.4-.3.4-.5.3-.5.2h-.7zm0-4.4h-.6l-.4.3-.3.5-.1.6h2.6v-.6l-.3-.4-.4-.3-.6-.2zm5.6-2.2v1.7h-.7v-2.3h.7zm5 6v-.5l.3-.2h.6l.2.2.1.2v.5l-.1.2-.2.1h-.6l-.2-.1-.1-.2v-.3zm0-4v-.5l.3-.2h.6l.2.2.1.2v.5l-.1.2-.2.1h-.6l-.2-.1-.1-.2v-.3zm13.1 2.8-.1-.5-.4-.4-.5-.2-.5-.2-.7-.2-.6-.4-.5-.6q-.2-.3-.2-.7 0-.5.2-.8l.5-.6.7-.3.8-.1.8.1q.4.1.7.4l.5.6q.2.4.2.9h-.9l-.1-.6-.3-.4-.4-.2-.5-.1h-.5l-.4.3q-.2 0-.3.3l-.1.5.1.4.4.4.4.2q.3 0 .5.2l.5.1.5.3.4.2.4.4.2.5.1.5-.2.8-.5.5q-.3.3-.7.4h-1.7l-.7-.5q-.4-.2-.6-.6l-.2-.8h.9l.1.5.4.4.4.3h1.1l.4-.2.3-.3zm2.5-3.2v.4l.5-.4.5-.1q.7 0 1 .5 0-.3.3-.4l.6-.2q.6 0 .8.4.3.3.3 1v3.7h-.8v-3.7q0-.7-.5-.6h-.3l-.2.1v.2l-.1.2v3.8h-.8v-3.7q0-.3-.2-.5l-.4-.1h-.4l-.2.3v4h-.8v-5zm5.4 0h2.5v4.1h1.6v.8h-4v-.8h1.7v-3.3h-1.7zm1.5-1.3q0-.3.2-.4l.4-.1.3.1q.2.1.2.4 0 .2-.2.3l-.3.1-.4-.1q-.2-.1-.2-.3z" fill="#000"/><use fill="#34a853" fill-rule="evenodd" xlink:href="#i"/><use stroke="#666" stroke-linejoin="round" xlink:href="#i"/><path d="m198 262.7h-8.1v7.8h-3.7v-19h12.8v3h-9v5.2h8.1zm5-6.3h7.7v11.2h3.8v3h-11.4v-3h4v-8.2h-4zm3.8-3.6.1-.7q.2-.4.5-.6.2-.3.6-.4.4-.2.9-.2 1 0 1.5.6.6.5.6 1.3 0 .9-.6 1.4-.5.6-1.5.6-.5 0-.9-.2l-.6-.4q-.3-.2-.5-.6v-.8zm24 10.8q0 1.6-.4 3-.3 1.2-1 2.2-.7 1-1.7 1.5t-2.4.5q-1.3 0-2.2-.5-.9-.4-1.5-1.3l-.2 1.5h-3.2v-20h3.6v7.2q.6-.7 1.4-1.1 1-.4 2-.4 1.4 0 2.5.5 1 .5 1.7 1.5t1 2.3q.4 1.3.4 2.9zm-3.6-.3-.2-1.6q-.1-.7-.4-1.3-.3-.6-.9-1-.5-.3-1.3-.3-1 0-1.6.4-.7.5-1 1.2v5.6q.3.7 1 1.1.6.4 1.6.4.8 0 1.3-.3.6-.3.9-.9.3-.5.4-1.3.2-.8.2-1.7zm13.7 7.5q-1.6 0-3-.5-1.3-.6-2.2-1.5-1-1-1.5-2.2-.5-1.2-.5-2.6v-.5q0-1.7.5-3t1.4-2.3q1-1 2.2-1.5 1.2-.5 2.7-.5 1.5 0 2.7.5 1.2.5 2 1.4.9.9 1.3 2.2.4 1.3.4 2.8v1.5h-9.5q0 .8.4 1.4l.8 1q.5.4 1.2.6.6.3 1.4.3l1-.1 1-.3 1-.5.7-.7 1.8 2-1 .9-1.2.8-1.6.5q-1 .3-2 .3zm-.4-11.7q-.6 0-1.1.2l-1 .6-.6 1-.4 1.2h6v-.2q0-.6-.3-1.1-.1-.5-.5-.9t-1-.6q-.5-.2-1.1-.2zm19.7-3q.8 0 1.5.2.7 0 1.1.2l-.5 3.6q-.7-.2-1.5-.2l-1.4-.1q-1.5 0-2.4.6-1 .6-1.4 1.7v8.4h-3.6v-14h3.4l.1 2.2q.9-1.2 2-1.8 1.3-.7 2.7-.7zm18.2 14.4h-3.6l-5.3-12.2v12.2h-3.7v-19h3.7l5.3 12.2v-12.1h3.6zm3.2-7.2q0-1.5.4-2.8.5-1.3 1.3-2.3.9-1 2.1-1.5 1.2-.5 2.8-.5 1.6 0 2.8.5 1.3.6 2.1 1.5.9 1 1.3 2.3.5 1.3.5 2.8v.3q0 1.6-.5 2.9-.4 1.3-1.3 2.3-.8 1-2 1.5-1.3.5-2.9.5-1.5 0-2.8-.5-1.2-.6-2-1.5-1-1-1.4-2.3-.4-1.3-.4-2.9zm3.6.3q0 .9.2 1.7.1.7.5 1.3.4.6 1 1 .5.3 1.3.3t1.4-.4q.6-.3 1-.9l.5-1.3.1-1.7v-.3l-.1-1.6q-.2-.7-.6-1.3-.3-.6-.9-1-.6-.3-1.4-.3-.8 0-1.4.3l-1 1q-.3.6-.4 1.3l-.2 1.6zm12.5-.2q0-1.6.4-3 .3-1.3 1-2.2.8-1 1.8-1.5t2.3-.5q1.1 0 2 .4.8.4 1.5 1v-7h3.6v20h-3.3l-.2-1.6q-.6.9-1.5 1.3-1 .5-2.1.5-1.3 0-2.3-.5-1-.6-1.7-1.5-.8-1-1.1-2.3-.4-1.3-.4-2.9zm3.6.2.1 1.7.5 1.3q.4.6 1 1 .5.2 1.2.2 1 0 1.6-.3.6-.5 1-1.1v-5.8q-.4-.7-1-1-.6-.5-1.6-.5-.7 0-1.3.4-.5.3-.9.9-.3.6-.4 1.4-.2.7-.2 1.6zm19.6 7.2q-1.6 0-3-.5-1.3-.6-2.2-1.5-1-1-1.5-2.2-.5-1.2-.5-2.6v-.5q0-1.7.5-3t1.4-2.3q1-1 2.2-1.5 1.2-.5 2.7-.5 1.5 0 2.7.5 1.2.5 2 1.4.9.9 1.3 2.2.4 1.3.4 2.8v1.5h-9.5q0 .8.4 1.4l.8 1q.5.4 1.1.6.7.3 1.4.3l1.1-.1 1-.3.9-.5.7-.7 1.8 2-.8.9-1.3.8-1.7.5q-.9.3-1.9.3zm-.4-11.7-1.2.2q-.5.2-.9.6l-.6 1-.4 1.2h6v-.2q0-.6-.3-1.1l-.5-.9q-.4-.4-1-.6-.5-.2-1.2-.2zm-88.7 25.9.2 1.4q.5-.8 1.3-1.2.7-.4 1.7-.4.7 0 1.3.2.6.2 1 .7.5.5.8 1.2.2.8.2 1.9v6h-2.5v-6l-.1-1-.4-.5q-.2-.3-.6-.3l-.8-.1q-.6 0-1 .2-.5.3-.8.8v7h-2.5v-10zm8.6 4.8q0-1 .3-2 .3-.9 1-1.6.5-.6 1.4-1 .8-.4 2-.4 1 0 2 .4.8.4 1.4 1 .6.7.9 1.6.3 1 .3 2v.2q0 1-.3 2t-1 1.6q-.5.7-1.4 1-.9.4-2 .4-1 0-2-.4-.8-.3-1.4-1-.6-.7-1-1.6l-.2-2zm2.5.2.1 1.2.4 1 .7.6q.4.2 1 .2.5 0 .9-.2.4-.3.6-.7.3-.4.4-1l.1-1v-1.4l-.5-1q-.2-.4-.6-.6-.4-.2-1-.2l-1 .2-.6.6q-.3.4-.4 1v1.1zm8.8-.2.2-2q.3-1 .8-1.6.5-.7 1.2-1 .7-.4 1.6-.4.8 0 1.4.3.6.3 1 .8v-5h2.6v14h-2.3l-.1-1.1q-.5.6-1.1 1-.6.2-1.5.2t-1.6-.4q-.7-.3-1.2-1t-.8-1.6q-.2-.9-.2-2zm2.5.2.1 1.2q0 .5.3 1l.6.5q.4.3 1 .3t1-.3q.5-.3.7-.8v-4q-.2-.5-.7-.8-.4-.2-1-.2t-1 .2l-.6.6-.3 1-.1 1.1zm13.7 5q-1.1 0-2-.3-1-.4-1.7-1-.6-.7-1-1.6-.3-.9-.3-1.8v-.4q0-1.1.3-2 .4-1 1-1.7t1.5-1q.9-.4 2-.4 1 0 1.8.4.9.3 1.4 1 .6.6 1 1.5.2.9.2 2v1h-6.7l.3 1 .6.7.8.4q.4.2 1 .2h.7l.7-.3.6-.3.6-.5 1.2 1.3q-.2.4-.6.7l-.9.6-1.1.4zm-.3-8.1-.8.1-.6.4q-.3.3-.4.7l-.3.9h4.1v-.2l-.1-.8-.4-.6-.6-.4zm13 8h-2.6v-10.2l-3.4 1.2v-2.2l5.8-2.1h.1v13.2z" fill="#fff"/><use fill="#bdbdbd" fill-rule="evenodd" xlink:href="#j"/><use stroke="#666" stroke-linejoin="round" xlink:href="#j"/><use fill="#ff9800" fill-rule="evenodd" xlink:href="#k"/><use stroke="#666" stroke-linejoin="round" xlink:href="#k"/><path d="m747.6 99.1-.2-1q-.1-.4-.5-.7l-1.1-.7q-.7-.4-1.7-.6l-2.4-.9q-1.1-.5-2-1.2-.8-.7-1.4-1.7-.5-1-.5-2.2 0-1.2.5-2.1.5-1 1.4-1.7 1-.7 2.2-1 1.2-.4 2.6-.4 1.5 0 2.7.4 1.3.4 2.1 1.2 1 .8 1.4 1.8.5 1.1.5 2.4h-3.5q0-.7-.3-1.2-.2-.5-.6-.9-.4-.4-1-.6-.5-.2-1.3-.2t-1.3.2q-.6.1-1 .5-.4.3-.6.7-.2.4-.2 1 0 .5.3 1 .3.4.8.7l1.2.6 1.6.6 2.4.9q1.1.5 1.9 1.3.8.7 1.2 1.7.5 1 .5 2.1 0 1.3-.5 2.2-.5 1-1.4 1.7-1 .6-2.1 1-1.3.3-2.7.3l-1.8-.1-1.7-.5-1.5-.9q-.7-.5-1.2-1.2-.5-.6-.8-1.5-.3-.9-.3-2h3.6q0 1 .3 1.6.2.6.7 1 .5.4 1.2.6l1.5.1 1.3-.1 1-.5.5-.7q.3-.5.3-1zm10-7.2q.6-1 1.6-1.6 1-.6 2.3-.6 1.1 0 2 .4 1 .3 1.6 1 .7.7 1 1.8.4 1.1.4 2.7v8.5h-3.5v-8.6q0-.7-.2-1.3l-.5-.9-.9-.5-1-.1q-1 0-1.7.3-.6.3-1 .9v10.2h-3.7v-20.1h3.6zm21.1 12.2-.2-.6q0-.4-.2-.7l-.7.6-.8.5-1 .3-1.3.1q-1 0-2-.3-.9-.3-1.5-.9-.7-.5-1-1.3-.4-.8-.4-1.7 0-2.2 1.6-3.4 1.7-1.2 5-1.2h2v-.9q0-1-.7-1.6-.6-.6-1.9-.6-1 0-1.6.5-.5.5-.5 1.3h-3.6q0-1 .4-1.7.4-.8 1.2-1.4.7-.6 1.8-1t2.5-.4q1.3 0 2.4.3 1.1.4 2 1 .7.6 1.2 1.5.4 1 .4 2.2v6q0 1.1.2 1.9.1.7.4 1.3v.2zm-3.4-2.6h1l.8-.4.7-.5.4-.5v-2.5h-1.8q-.9 0-1.5.2l-1 .4-.5.8-.2.8q0 .8.5 1.3.5.4 1.6.4zm23.3-4.3q0 1.5-.4 2.8-.4 1.3-1 2.3-.7 1-1.8 1.5-1 .5-2.3.5-1.2 0-2-.4-.9-.3-1.5-1v6.6h-3.6v-19.5h3.3l.1 1.4q.7-.8 1.6-1.2.9-.5 2-.5 1.4 0 2.4.5 1 .6 1.7 1.5.8 1 1.1 2.3.4 1.3.4 2.9zm-3.6-.3q0-.9-.2-1.7l-.5-1.3q-.3-.6-.9-1-.5-.2-1.3-.2-1 0-1.6.3-.6.4-1 1v6q.4.6 1 1t1.6.4q.8 0 1.3-.3.6-.3 1-.9.3-.6.4-1.4l.2-1.6zm13.8 7.4q-1.7 0-3-.5t-2.3-1.4q-1-1-1.4-2.2-.6-1.2-.6-2.7v-.5q0-1.6.5-3 .6-1.3 1.5-2.2.9-1 2.1-1.5 1.3-.6 2.8-.6 1.5 0 2.7.5 1.2.5 2 1.5.8.9 1.2 2.1.5 1.3.5 2.9v1.5h-9.6q.1.7.4 1.3l.8 1q.5.5 1.2.7.6.2 1.4.2h1l1-.4 1-.5.7-.7 1.8 2-1 1q-.4.4-1.2.7-.7.4-1.6.6l-2 .2zm-.5-11.6q-.6 0-1.1.2l-1 .6-.5 1q-.3.5-.4 1.2h5.9v-.3q0-.6-.2-1-.2-.6-.6-1l-.9-.5q-.5-.2-1.2-.2zm-68.3 30.3q0-1.3.2-2.4.2-1.2.6-2.1.3-1 .8-1.8.4-.8 1-1.4.4-.6 1-1l1-.7.5 1.4-1 1q-.6.7-1 1.7t-.6 2.3q-.3 1.3-.3 3v.2q0 1.7.3 3 .2 1.3.6 2.3.4 1 1 1.6.5.7 1 1l-.5 1.5-1-.7q-.6-.4-1-1-.6-.6-1-1.4-.5-.8-.8-1.8l-.6-2q-.2-1.2-.2-2.5zm14.2 5.6q-1.2 0-2.1-.4-1-.4-1.6-1-.7-.6-1-1.5-.4-.9-.4-1.9v-.4q0-1 .4-2 .3-1 1-1.6.6-.7 1.5-1 .9-.4 1.9-.4 1 0 1.9.3.8.4 1.4 1 .6.6.9 1.5.3 1 .3 2v1h-6.7q0 .6.3 1 .2.4.6.7l.7.5 1 .2.8-.1.7-.2.6-.4.5-.5 1.3 1.4-.6.6q-.4.4-1 .6-.4.3-1 .4zm-.3-8.2q-.5 0-.8.2-.4.1-.6.4l-.5.7-.3.8h4.2v-.2q0-.4-.2-.7-.1-.4-.4-.6-.2-.3-.6-.4zm8.3-1.9v1.2q.3-.6.8-1 .5-.3 1.2-.3 1.2 0 1.6 1 .3-.5.7-.8.5-.2 1.1-.2l.8.1q.4.2.7.6.3.3.5.9l.1 1.4v7h-2.3v-7.5q0-.2-.2-.3l-.2-.1h-.8l-.2.4v7.5h-2.3v-7.5q0-.2-.2-.3l-.2-.1h-.7l-.3.5v7.4h-2.3v-9.9zm18.4 5q0 1.1-.2 2-.3 1-.8 1.6-.4.7-1.2 1.1-.7.4-1.6.4-.8 0-1.4-.3-.6-.3-1-.8v4.7h-2.6v-13.7h2.4v1q.5-.5 1.1-.8.7-.3 1.5-.3 1 0 1.6.3.8.4 1.2 1 .5.7.8 1.6l.2 2zm-2.5-.1-.1-1.2-.4-1-.6-.6q-.4-.2-.9-.2-.7 0-1 .3-.5.2-.7.7v4.1q.2.5.6.8.4.2 1.1.2l1-.2q.3-.2.5-.6l.4-1 .1-1.2zm9.5-7.3v2.4h3.7v2h-3.7v4.1l.1 1 .4.5.6.3.7.1h1.2l.5-.2h.4l.2 1.7-.6.3-.7.1-.9.1h-.8l-1.5-.1q-.7-.2-1.1-.7-.5-.4-.8-1.1-.2-.7-.2-1.7v-4.5h-2.3v-1.9h2.3v-2.4zm10.8 8.2.3 1 2.6-6.8h2.8l-5 11.4-.4.8-.7.8q-.4.4-1 .6-.5.3-1.3.3h-.6l-.3-.1-.3-.1.3-2h.8l.5-.1.4-.4.3-.4.2-.2.6-1.1-4.2-9.5h2.8zm13.7-1q0 1.2-.2 2.3l-.5 2-.8 1.8-1 1.4q-.5.7-1 1.1l-1.1.7-.5-1.4 1-1q.5-.7.9-1.7l.7-2.3q.2-1.3.2-3v-.2q0-1.7-.2-3l-.7-2.3q-.4-1-1-1.6-.4-.7-1-1l.6-1.4 1 .6 1 1q.6.7 1 1.5l.9 1.8.5 2 .2 2.4z" fill="#fff"/><g stroke="#595959" stroke-width="4"><path d="m350.7 272h50.5" stroke-linecap="butt" stroke-linejoin="round"/><path d="m401.1 278.6 18.2-6.6-18.1-6.6z" fill="#595959" fill-rule="evenodd"/></g><g stroke="#666" stroke-width="2"><path d="m776 151.6v17.6" stroke-linecap="butt" stroke-linejoin="round"/><path d="m779.4 151.6-3.3-9-3.3 9zm-6.6 17.6 3.3 9 3.3-9z" fill="#666" fill-rule="evenodd"/></g><path d="m791.5 155.1-.1 2.9h-1.1v-3.8h1.2zm11.4 11.1-.1-.4v-.5l-.6.4-.6.4-.7.2-.7.1q-.7 0-1.2-.2l-1-.5-.6-.8-.2-1q0-.7.3-1.2.3-.6.8-.9l1.2-.5q.7-.2 1.6-.2h1.6v-.7l-.1-.6-.4-.6-.7-.3-.8-.1h-.8l-.5.4-.4.4-.1.5h-1.5l.2-.9.7-.8 1-.6q.7-.2 1.5-.2.7 0 1.3.2l1 .5q.5.4.8 1 .2.4.2 1.1v4l.1.9.2.8v.1zm-2.5-1 .8-.2.6-.2.6-.5.3-.4v-1.9h-1.3q-1.3 0-2 .4t-.7 1.2v.6l.4.4.5.3.8.1zm10.2 0h.7l.7-.4.5-.6.1-.6h1.4q0 .5-.3 1l-.7 1-1.1.6q-.6.2-1.3.2-1 0-1.7-.3-.7-.4-1.2-1t-.7-1.3q-.3-.8-.3-1.6v-.3q0-.9.3-1.6.2-.8.7-1.4.5-.6 1.2-1 .7-.2 1.7-.2l1.4.2q.6.2 1 .6.5.4.8 1l.2 1.2h-1.4l-.1-.7-.5-.6q-.2-.3-.6-.4l-.8-.2q-.7 0-1.2.3l-.7.7q-.3.4-.4 1l-.1 1v1.4l.5 1q.3.5.7.8.5.2 1.2.2zm9.4-9.4v2h3.2v1.1h-3.2v4.6l.1.8q.1.3.4.5l.5.3h1.5l.5-.1h.3l.2 1-.4.1-.6.2h-2.3q-.5-.2-.9-.6l-.6-.9q-.2-.5-.2-1.3v-4.6h-2.2v-1.1h2.2v-2zm11.7 9.3q-.5.6-1.1 1-.6.3-1.5.3l-1.2-.2q-.5-.2-.9-.7-.4-.4-.6-1-.2-.7-.2-1.7v-5h1.5v6.2l.4.7q.2.3.5.4h.8q.8 0 1.4-.3.5-.3.8-1v-6h1.5v8.4h-1.4zm9.6 1.2-.1-.5v-.5l-.6.4-.6.4-.7.2-.7.1q-.7 0-1.2-.2l-1-.5-.6-.8-.2-1q0-.7.3-1.2t.8-.9l1.2-.5q.7-.2 1.6-.2h1.6v-.6l-.1-.7-.4-.5q-.3-.3-.7-.4l-.8-.1-.8.1-.5.3-.4.4-.1.5h-1.5l.2-.9.7-.8 1-.6q.7-.2 1.5-.2.7 0 1.3.2l1 .5q.5.4.8 1 .2.5.2 1.2v3.9l.1.9.2.8v.1zm-2.5-1.2h.8l.6-.3.6-.4.3-.5v-1.9h-1.3q-1.3 0-2 .4t-.7 1.2v.6l.4.4.5.3.8.1zm6.8-10.8h4.3v10.7h2.8v1.3h-7v-1.3h2.8v-9.5h-2.9zm15.3 9q0-.5-.2-.8-.2-.4-.6-.6l-.8-.4-.9-.3-1.2-.5-1.1-.7q-.6-.4-.9-1-.3-.5-.3-1.2t.3-1.3q.3-.6.9-1 .5-.4 1.1-.6l1.4-.2q.7 0 1.4.3.7.2 1.2.7.6.4.9 1 .3.7.3 1.4h-1.4l-.2-.9q-.2-.4-.5-.6l-.7-.5q-.4-.2-1-.2l-.7.2q-.4 0-.7.3-.3.2-.5.6-.2.3-.2.8t.2.8l.6.6.9.4.8.3.8.3.8.3.8.5.6.7q.3.3.4.7.2.4.2 1 0 .7-.4 1.3-.3.6-.9 1l-1.2.5-1.4.2-1.5-.2-1.3-.7-.9-1q-.3-.7-.4-1.5h1.5q0 .5.3.9.2.4.6.7.3.3.7.4l1 .2.9-.1q.4-.1.7-.4l.5-.5.2-.8zm7.1-7.6v2.1h3.2v1.1h-3.2v4.6l.1.8.4.5.5.3h1.5l.5-.1h.3l.2 1-.4.1-.6.2h-2.3q-.5-.2-.9-.6l-.6-.9q-.2-.5-.2-1.3v-4.6h-2.2v-1.1h2.2v-2h1.5zm11.7 10.6v-.5l-.2-.5-.5.4-.6.4-.7.2-.7.1q-.7 0-1.2-.2l-1-.5-.6-.8-.2-1q0-.7.3-1.2t.8-.9l1.2-.5q.7-.2 1.6-.2h1.6v-.6l-.1-.7-.4-.5q-.3-.3-.7-.4l-.8-.1-.8.1-.5.3-.4.4-.1.5h-1.5l.2-.9.7-.8 1-.6q.7-.2 1.5-.2.7 0 1.3.2l1 .5q.5.4.8 1 .2.5.2 1.2v3.9l.1.9.2.8v.1zm-2.5-1.2h.8l.6-.3.6-.4.3-.5v-1.9h-1.3q-1.3 0-2 .4t-.7 1.2v.6l.4.4.5.3.8.1zm12.1-7.4h1.2l.3.2-.2 1.4-.8-.2h-.8q-1 0-1.6.5-.6.4-1 1.2v5.5h-1.4v-8.5h1.4v1.4q.6-.8 1.3-1.1.7-.4 1.6-.4zm7.5-2v2.1h3.2v1.1h-3.2v4.6l.1.8.4.5.5.3h1.5l.5-.1h.3l.2 1-.4.1-.6.2h-2.3q-.5-.2-.9-.6-.3-.3-.5-.9-.3-.5-.3-1.3v-4.6h-2.2v-1.1h2.2v-2zm13.9.4h-3.7v10.2h-1.4v-10.3h-3.5v-1h8.5v1.2zm2.1 1.7h4.3v7.2h2.8v1.3h-7v-1.3h2.8v-6h-2.9zm2.7-2.2q0-.4.2-.6.2-.3.7-.3.4 0 .6.3.2.2.2.6l-.2.6q-.2.2-.6.2-.5 0-.7-.2zm7.4 2.2v.8q.3-.5.7-.7.4-.3 1-.3 1.2 0 1.5 1 .3-.5.7-.7.4-.3 1-.3 1 0 1.4.6.5.6.5 1.7v6.4h-1.4v-6.4q0-1-1-1h-.4l-.3.2-.2.3v6.9h-1.4v-6.4q0-.5-.3-.8-.2-.2-.7-.2l-.7.1-.4.5v6.8h-1.3v-8.5zm12.6 8.6q-.9 0-1.6-.3-.7-.3-1.3-.9-.5-.5-.8-1.3-.3-.7-.3-1.6v-.3q0-1 .3-1.9.4-.8.9-1.3.5-.6 1.2-.9.7-.3 1.4-.3 1 0 1.6.3.7.4 1.2 1 .4.5.6 1.2.3.8.3 1.7v.6h-6q0 .6.2 1.1l.5.9.8.6q.5.2 1.1.2.8 0 1.4-.3.6-.3 1-.8l.9.7-.5.6-.8.5-1 .4h-1zm-.2-7.6-.8.2q-.4.1-.7.4l-.5.8-.3 1h4.5l-.1-.9-.4-.7q-.3-.4-.7-.6-.4-.2-1-.2zm9.8-3.7-.1 2.9h-1.1v-3.8h1.2z" fill="#000"/><g stroke="#666" stroke-width="2"><path d="m776 291.6v22.7" stroke-linecap="butt" stroke-linejoin="round"/><path d="m779.3 291.6-3.3-9-3.3 9zm-6.6 22.7 3.3 9.1 3.3-9z" fill="#666" fill-rule="evenodd"/></g><use fill="#ff9800" fill-rule="evenodd" xlink:href="#l"/><use stroke="#666" stroke-linejoin="round" xlink:href="#l"/><path d="m747.5 351.1-.2-1q-.1-.4-.6-.7l-1-.7q-.7-.4-1.7-.6l-2.4-.9q-1.1-.5-2-1.2-.9-.7-1.4-1.7-.5-1-.5-2.2 0-1.2.5-2.1.5-1 1.4-1.7 1-.7 2.2-1 1.2-.4 2.6-.4 1.5 0 2.7.4 1.2.4 2.1 1.2 1 .8 1.4 1.8.5 1.1.5 2.4h-3.6q0-.7-.2-1.2t-.6-.9q-.4-.4-1-.6-.5-.2-1.3-.2t-1.3.2l-1 .5q-.4.3-.6.7l-.2 1q0 .5.3 1 .2.4.7.7l1.3.6 1.6.6 2.4.9q1.1.5 1.9 1.3.8.7 1.2 1.7.4 1 .4 2.1 0 1.3-.5 2.2-.5 1-1.4 1.7-.8.6-2 1-1.3.3-2.7.3l-1.8-.1-1.7-.5-1.5-.9q-.7-.5-1.3-1.2-.5-.6-.8-1.5-.3-.9-.3-1.9h3.6q0 .9.3 1.5t.8 1q.5.4 1.2.6l1.5.1 1.3-.1 1-.5.5-.7zm10-7.2q.6-1 1.6-1.6 1-.6 2.3-.6 1 0 2 .4 1 .3 1.6 1 .7.7 1 1.8.4 1.1.4 2.7v8.5h-3.6v-8.6q0-.7-.2-1.3l-.5-.8q-.4-.4-.9-.5l-1-.2q-1 0-1.7.3-.6.3-1 1v10h-3.7v-20h3.6v8zm21.1 12.2-.2-.6-.2-.7-.7.6-.8.5-1 .3-1.3.1q-1 0-2-.3-.9-.3-1.6-.9-.6-.5-1-1.3-.3-.8-.3-1.7 0-2.2 1.6-3.4 1.7-1.2 5-1.2h2v-.9q0-1-.7-1.6-.6-.6-1.9-.6-1 0-1.6.5-.5.5-.5 1.3h-3.6q0-1 .4-1.7.4-.8 1.1-1.4.8-.6 2-1 1-.4 2.4-.4 1.3 0 2.4.3 1.1.4 1.9 1 .8.6 1.3 1.5.4 1 .4 2.2v6q0 1.1.2 1.9.1.7.4 1.3v.2zm-3.4-2.6h1l.8-.4.7-.5.4-.5v-2.5h-1.9q-.8 0-1.4.2l-1 .5-.5.7-.2.8q0 .8.5 1.3t1.6.5zm23.2-4.3q0 1.5-.3 2.8-.4 1.3-1 2.3-.8 1-1.8 1.5t-2.3.5q-1.2 0-2-.4-.9-.3-1.5-1v6.6h-3.6v-19.5h3.3l.1 1.4q.7-.8 1.6-1.2.9-.5 2-.5 1.4 0 2.4.5 1 .6 1.7 1.5.7 1 1.1 2.3.4 1.3.4 2.9v.3zm-3.6-.3-.1-1.7-.5-1.3q-.4-.6-1-1-.5-.2-1.2-.2-1 0-1.6.3-.6.4-1 1v6q.4.6 1 1t1.6.4q.8 0 1.3-.3t.9-.9l.5-1.4.1-1.6zm13.8 7.4q-1.6 0-3-.5-1.2-.5-2.2-1.4-1-1-1.5-2.2-.5-1.2-.5-2.7v-.5q0-1.6.5-3 .5-1.3 1.4-2.2 1-1 2.2-1.5 1.3-.6 2.7-.6 1.5 0 2.7.5 1.2.5 2 1.5.9.9 1.3 2.1.4 1.3.4 2.9v1.5h-9.5q0 .7.4 1.3.3.6.8 1 .5.5 1.2.7.6.2 1.3.2h1.1l1-.4 1-.5.7-.7 1.7 2-.8 1-1.3.7q-.7.4-1.6.6zm-.4-11.6q-.6 0-1.1.2l-1 .6-.6 1-.4 1.2h6v-.3q0-.6-.2-1-.2-.6-.6-1l-.9-.5q-.5-.2-1.2-.2zm-91.4 25.8.1-1.5.3-1.4.5-1.1.7-.9.6-.7.7-.4.3 1-.7.6-.5 1-.5 1.5-.1 2 .1 2 .5 1.5.5 1 .7.7-.3.9-.7-.4-.6-.7-.7-.9-.5-1.1-.3-1.4-.1-1.5zm10 3.5-.2-.3v-.3l-.3.3-.4.2-.5.2h-.6l-.9-.1-.7-.4-.4-.6-.2-.8q0-1 .8-1.5.7-.6 2.2-.6h.9v-.3q0-.5-.3-.8-.3-.2-.9-.2-.5 0-.7.2-.2.2-.2.5h-1.7q0-.4.2-.7.2-.4.6-.7l.8-.4 1.1-.1h1l1 .5.5.7q.2.4.2 1v3.5l.3.6v.1zm-1.6-1.1.4-.1q.3 0 .4-.2.2 0 .3-.2l.2-.2v-1.2h-1.5l-.4.3-.3.3v.4q0 .3.2.5.2.3.7.3zm7.6 0 .5-.1.3-.3q.2 0 .3-.3v-.4h1.6l-.2 1q-.2.4-.6.7l-.9.5-1 .1q-.7 0-1.3-.2l-1-.7-.5-1q-.2-.6-.2-1.3v-.1q0-.7.2-1.3.2-.6.6-1 .4-.5 1-.7.5-.3 1.2-.3.6 0 1 .2l1 .5.5.8q.2.4.2 1h-1.5l-.1-.4q0-.3-.2-.4l-.4-.2-.5-.1-.7.1-.4.4-.2.6v1.6q0 .4.2.6l.4.4q.3.2.7.2zm7.4-6.8v1.6h2.3v1.2h-2.3v3.3l.3.3q.1.2.3.2h1.9l.1 1-.4.2-.5.1-.5.1h-.6l-.9-.1-.7-.4-.5-.8q-.2-.4-.2-1v-3h-1.4v-1.2h1.4v-1.5zm8.2 7q-.3.5-.7.8l-1 .2-1-.1-.7-.5-.4-.9q-.2-.5-.2-1.2v-3.7h1.7v4.4l.2.4q.1.2.3.2l.5.1q.5 0 .8-.2l.5-.5v-4.4h1.6v6.3h-1.5zm7.1 1v-.4l-.1-.3-.3.3-.4.2-.5.2h-.5l-1-.1-.7-.4-.4-.6q-.2-.3-.2-.8 0-1 .8-1.5.7-.6 2.2-.6h1v-.3q0-.5-.4-.8-.3-.2-.8-.2t-.8.2q-.2.2-.2.6h-1.6l.1-.8q.2-.4.6-.6l.8-.5 1.1-.1 1.1.1q.5.1.9.4l.5.7q.2.4.2 1v2.7l.1.8q0 .4.2.6v.1zm-1.5-1.2h.4l.4-.2.3-.3q.2 0 .2-.2v-1h-1.5l-.4.2-.3.3v.4l.2.6q.2.2.7.2zm5.1-7.9h3.6v7.7h1.8v1.3h-5.5v-1.3h2v-6.4h-2zm11.3 6.8-.1-.4q0-.2-.3-.4l-.5-.3-.7-.3-1.1-.4-1-.5-.5-.8q-.3-.4-.3-1 0-.5.3-1 .2-.4.6-.7l1-.5 1.2-.1 1.2.2q.5.1 1 .5l.5.8q.3.5.3 1h-1.6l-.1-.4-.3-.5-.4-.2-.6-.1h-.6l-.5.3-.2.3-.1.5v.4l.4.3.6.3.7.3q.6.1 1 .4.6.2 1 .6l.5.7.2 1-.2 1-.7.7-1 .5-1.1.1h-.8l-.8-.3-.7-.3-.5-.6-.4-.7-.1-.8h1.6l.1.6.4.5q.2.2.5.2l.7.1h.6l.4-.3.3-.3v-.4zm5.8-5.7v1.6h2.3v1.2h-2.3v3.3l.3.3q.1.2.3.2h1.9l.1 1-.4.2-.5.1-.5.1h-.6l-.9-.1q-.4-.1-.7-.4l-.5-.8q-.2-.4-.2-1v-3h-1.4v-1.1h1.5v-1.7h1.6zm8.1 8v-.3l-.1-.4-.3.3-.4.2-.5.2h-1.5l-.7-.5-.4-.6q-.2-.3-.2-.8 0-1 .8-1.5.7-.6 2.2-.6h.9v-.3q0-.5-.3-.7-.3-.3-.9-.3-.5 0-.7.2-.2.2-.2.6h-1.7l.2-.8q.2-.4.5-.6l.9-.5 1.1-.1 1 .1 1 .4.5.7q.2.4.2 1v3.6l.3.5v.1h-1.7zm-1.5-1.2h.4l.4-.2.3-.2.2-.3v-1h-1.5l-.4.2-.3.3v.4l.2.6q.2.2.7.2zm9.3-5.3h.7l.5.1-.2 1.6h-.7l-.6-.1q-.7 0-1.1.2-.4.3-.6.8v3.8h-1.6v-6.3h1.5v1q.4-.5 1-.8.5-.4 1.1-.4zm5.7-1.5v1.6h2.3v1.2h-2.3v3.3l.3.4.3.2h1.2l.4-.1h.3l.1 1-.4.2-.5.1-.5.1h-1.5l-.7-.5-.5-.7q-.2-.5-.2-1.1v-3h-1.4v-1.1h1.4v-1.7zm10.4.7h-2.6v7.2h-1.7v-7.2h-2.6v-1.3h6.9zm1.4.9h3.5v5h1.7v1.3h-5.2v-1.3h1.8v-3.7h-1.8zm1.7-1.6v-.4l.3-.3.3-.1.4-.1q.4 0 .6.2.3.3.3.6 0 .4-.3.7-.2.2-.6.2h-.4l-.3-.2q-.2-.1-.2-.3v-.4zm6.1 1.6v.7q.2-.4.5-.6l.8-.2q.8 0 1 .6.2-.3.5-.4.3-.2.7-.2h.5l.5.4.3.6v5.4h-1.4v-4.8l-.2-.2-.1-.1h-.5l-.2.3v4.8h-1.4v-4.8l-.1-.2-.2-.1h-.5l-.1.3v4.8h-1.5v-6.3zm9.3 6.4q-.8 0-1.4-.2-.6-.2-1-.6l-.6-1q-.3-.6-.3-1.2v-.3q0-.7.2-1.3l.7-1q.4-.5 1-.7.5-.2 1.2-.2t1.2.2l1 .6.5 1q.2.6.2 1.3v.7h-4.4l.2.6.3.4.5.3.7.1h.5l.4-.2.4-.2.3-.3.9.9-.5.4-.5.4-.8.2-.8.1zm-.2-5.2h-.5l-.4.4q-.2.1-.3.4l-.2.6h2.7v-.2l-.1-.5-.3-.4-.4-.2zm8.6 1.8-.1 1.5q-.1.7-.4 1.3l-.5 1.2-.6.9-.7.7q-.3.3-.7.4l-.3-.9.7-.7.6-1 .4-1.5q.2-.8.2-2 0-1.1-.2-2l-.5-1.5q-.2-.6-.6-1l-.6-.7.3-.9.7.5q.4.2.7.6l.6 1 .5 1 .4 1.4.1 1.6zm-114.1 14.2 1.5 2.4h-1.1l-1.7-2.3v-.1l1.7-2.3h1zm2 0 1.5 2.4h-1.1l-1.7-2.3v-.1l1.7-2.3h1zm5-3.2v.9q.4-.5.9-.8l1-.2 1 .1q.3.1.6.5l.5.7.1 1.2v3.9h-1.6v-4.5l-.3-.4-.4-.2h-.5l-.7.1-.5.5v4.5h-1.6v-6.3zm5.5 3 .1-1.2q.2-.6.6-1l1-.7q.5-.2 1.2-.2.8 0 1.3.2l1 .7.5 1q.2.6.2 1.3v.1q0 .7-.2 1.3-.2.6-.6 1-.3.5-.9.7-.5.2-1.2.2-.8 0-1.3-.2-.6-.2-1-.7l-.6-1-.1-1.3zm1.6.2v.8l.3.6.4.4.7.1.6-.1.4-.4.2-.6v-1.6q0-.4-.2-.6l-.4-.5-.7-.1-.6.1-.4.5q-.2.2-.2.6l-.1.7zm7.2-3.2.1.9q.4-.5.9-.8l1-.2 1 .1q.3.1.6.5l.5.7.1 1.2v3.9h-1.6v-4.5l-.3-.4-.4-.2h-.5l-.7.1-.5.5v4.5h-1.6v-6.3zm11.5 3.2h-4.9v-1.3h4.9zm4.6 3.2q-.8 0-1.4-.2-.6-.2-1-.6l-.7-1-.2-1.2v-.3q0-.7.2-1.3l.7-1q.4-.5 1-.7.5-.2 1.2-.2t1.2.2q.5.2.9.6.4.4.6 1 .2.6.2 1.3v.7h-4.3l.2.6q0 .2.3.4l.5.3.7.1h.4q.3 0 .5-.2l.4-.2.3-.3.8.9-.4.4-.5.4-.8.2zm-.2-5.2h-.5l-.5.4-.2.4q-.2.2-.2.6h2.7v-.2l-.1-.5-.3-.4-.4-.2zm7.2.8 1.4-2h1.7l-2 3 2.1 3.3h-1.7l-1.5-2-1.5 2h-1.7l2.2-3.2-2.1-3.1h1.7zm7.3-3.6v1.6h2.3v1.2h-2.3v3.3l.3.4.3.2h1.2l.4-.1h.3l.1 1-.4.2-.5.1-.5.1h-1.5l-.7-.5-.5-.7q-.2-.5-.2-1.1v-3h-1.4v-1.1h1.5v-1.7zm7.3 8q-.8 0-1.4-.2-.6-.2-1-.6l-.7-1-.2-1.2v-.3q0-.7.2-1.3l.7-1q.4-.5 1-.7.5-.2 1.2-.2t1.2.2q.5.2.9.6.4.4.6 1 .2.6.2 1.3v.7h-4.3l.2.6.3.4.5.3.7.1h.4q.3 0 .5-.2l.4-.2.3-.3.8.9-.4.4-.5.4-.8.2zm-.2-5.2h-.5l-.4.4q-.2.1-.3.4l-.2.6h2.7v-.2l-.1-.5-.3-.4-.4-.2zm5.8-1.2v.9q.4-.5.9-.8l1-.2 1 .1q.3.1.6.5l.5.7.1 1.2v3.9h-1.7v-4.5l-.3-.4-.4-.2h-.5l-.7.1-.5.5v4.5h-1.6v-6.3zm9.8 4.6-.1-.3-.2-.2-.5-.2-.7-.1-1-.3-.8-.4q-.3-.2-.5-.6-.2-.3-.2-.7 0-.4.2-.7l.5-.7.9-.4 1.1-.1 1.2.1.9.4q.4.3.5.7l.2.8h-1.6q0-.4-.3-.6-.3-.3-.9-.3-.6 0-.9.2-.3.2-.3.5l.1.3.2.2.4.2.7.1 1 .3q.5.1.9.4.4.2.6.5l.2.8-.2.8-.6.6-1 .4-1.1.1q-.7 0-1.3-.2-.5-.1-.9-.4l-.5-.7-.2-.8h1.5q0 .3.2.5l.3.2.4.2h.5l1-.1q.3-.2.3-.5zm3.5-4.6h3.5v5h1.7v1.3h-5.2v-1.3h1.8v-3.7h-1.8zm1.7-1.6v-.4l.3-.2q0-.2.3-.2h.3q.5 0 .7.2.3.2.3.6 0 .4-.3.6-.2.2-.7.2h-.4l-.2-.2q-.2-.1-.2-.3zm10.8 4.8-.1 1.3-.5 1q-.3.5-.8.7-.5.3-1 .3-.6 0-1-.2l-.7-.6-.1.6h-1.5v-9h1.6v3.3q.3-.4.7-.5.4-.2 1-.2l1 .2q.5.3.8.7.3.4.4 1 .2.6.2 1.3zm-1.6-.1-.1-.7q0-.4-.2-.6-.1-.3-.4-.4-.2-.2-.6-.2-.4 0-.7.2l-.5.5v2.5q.2.4.5.6l.7.1.6-.1q.3-.1.4-.4l.2-.6v-.8zm3.4-5.8h3.6v7.7h1.8v1.3h-5.6v-1.3h2v-6.4h-2zm10 9.2q-.8 0-1.4-.3-.6-.2-1-.6l-.6-1q-.3-.6-.3-1.2v-.3q0-.7.2-1.3l.7-1 1-.7q.5-.2 1.2-.2t1.2.2l1 .6.5 1q.2.6.2 1.3v.7h-4.3l.2.6.3.4.5.3.7.1h.4l.5-.1.4-.3.3-.3.8.9-.4.4-.5.4-.8.2-.8.1zm-.2-5.3h-.5l-.4.4-.3.4-.2.6h2.7v-.2l-.1-.4-.3-.4q-.1-.2-.4-.3zm5.8-.3 1.6 2.3-1.6 2.4h-1.1l1.4-2.4-1.4-2.3h1zm2 0 1.6 2.3-1.6 2.4h-1.1l1.4-2.4-1.4-2.3h1z" fill="#fff"/><path d="m796.2 302.7-.2.8-.3 1-.4 1-.5.7q-.3.4-.7.6-.4.2-1 .2-.5 0-.8-.3-.3-.3-.4-.8l-.4.4-.5.4-.4.2h-1.2q-.3-.2-.4-.5l-.2-.6-.1-.7v-1.3l.3-1 .3-1 .5-1 .7-.7q.4-.4.9-.5.4-.3 1-.2 1 0 1.6.8l-1 4.6-.1.4v.7l.4.1q.4 0 .6-.2.3-.1.5-.4l.3-.7.3-.7v-.8l.2-.5v-2.2l-.2-1-.5-.9-.8-.6q-.5-.2-1.1-.2-.8 0-1.4.2l-1.2.7q-.6.4-1 1l-.7 1.3-.6 1.4-.3 1.3-.1 1.2v1.1q0 .6.3 1.1.1.5.5 1 .3.3.9.5.5.2 1.2.2l1-.1 1.1-.4.2 1q-.5.4-1.1.6h-1.2q-1 0-1.6-.2-.6-.2-1.1-.7-.5-.4-.8-1l-.4-1.4-.1-1.4.1-1.5.4-1.6.7-1.6.9-1.5q.5-.7 1.2-1.2.6-.6 1.4-.9.8-.3 1.7-.2.8 0 1.4.3.6.2 1 .7.5.4.7 1 .3.6.4 1.3l.1 1.3zm-6.3 1.1v1.5q0 .2.2.3l.3.2.5-.1.4-.3.3-.3.3-.4 1-4.1h-.2l-.2-.1-.8.1-.6.4-.5.6-.3.8-.2.7zm10.4-3.8-.2 1.5.7-.7.7-.5.9-.3 1-.1q.7 0 1.3.3.6.3.9.8.3.5.4 1.2v1.4l-1 6.3h-1.6l1-6.2v-1q0-.4-.2-.7-.2-.3-.6-.5-.3-.2-.9-.2l-.8.1-.7.3-.6.5-.6.6-1.2 7h-1.7l1.8-9.8zm8.2 5q0-.7.3-1.4l.5-1.2.8-1q.4-.5 1-.8l1-.6q.7-.2 1.5-.1 1 0 1.7.4.8.5 1.2 1.2.5.7.6 1.5.2 1 0 1.9v.2q0 1-.5 1.9-.4.9-1 1.6-.7.7-1.5 1.1-1 .4-2 .4t-1.8-.5q-.7-.4-1.1-1-.5-.8-.6-1.6-.2-1-.1-1.8zm1.6.2v1.5l.3.8.4.6q.2.3.6.5l.8.1q.8 0 1.3-.3.6-.3 1-.8.5-.6.7-1.2l.3-1.3v-1.4q0-.7-.2-1.2t-.7-.9q-.4-.3-1.1-.4-.8 0-1.4.3l-1 1-.6 1.1-.3 1.3zm12.1-5.1-.2 1.4.7-.7.7-.5.9-.3 1-.1q.7 0 1.3.3.6.3.9.8l.5 1.2v1.5l-1 6.2h-1.7l1-6.2v-1q0-.4-.2-.7l-.5-.5q-.4-.2-1-.2l-.8.1-.7.3-.6.5-.6.6-1.2 7.1h-1.6l1.7-9.9zm12.1 10q-1 0-1.7-.4-.8-.4-1.3-1-.5-.7-.7-1.5-.2-.9-.1-1.9v-.4l.3-1.2q.2-.7.6-1.2l.7-1 1-1 1.2-.5q.6-.2 1.3-.1 1 0 1.7.4t1.1 1.1q.5.7.6 1.5v2.5h-7v1.2l.5 1q.3.5.7.8.5.3 1.2.3.8 0 1.6-.3.7-.4 1.3-1l1 .8q-.4.5-.9.8-.4.4-1 .6l-1 .4h-1.2zm1.2-8.8q-.6 0-1.1.2l-1 .6-.6 1-.5 1h5.1v-.2q.2-.5 0-1 0-.4-.3-.8-.2-.4-.6-.6-.4-.2-1-.2zm10.4 2.4 3.1-3.6h2l-4.3 4.9 2.8 5h-1.8l-2-3.8-3.2 3.7h-2l4.4-5-2.7-4.8h1.8l2 3.6zm12-6-.4 2.4h3.6l-.2 1.3h-3.6l-1 5.3v.8l.3.6.4.4.7.2 1-.1 1-.2.2 1.2q-.6.3-1.3.4l-1.3.1q-.8 0-1.3-.3t-.8-.7l-.4-1v-1.4l.8-5.3h-2.5l.2-1.3h2.5l.5-2.4zm9.3 12.4q-1 0-1.8-.4-.7-.4-1.2-1-.5-.7-.8-1.5-.2-.9 0-1.8v-.4q0-.7.3-1.3l.5-1.2q.3-.6.8-1 .4-.6 1-1l1.1-.5q.7-.2 1.4-.1 1 0 1.7.4t1 1.1q.5.7.6 1.5.2.9 0 1.8v.8h-6.8v1.1q0 .6.4 1 .3.5.8.8.5.3 1.1.3.9 0 1.6-.3.7-.4 1.3-1l1 .8-.8.8-1 .6-1 .4h-1.2zm1.2-8.8q-.7 0-1.2.2t-.9.6l-.7 1-.4 1h5l.1-.2v-1q0-.4-.3-.8t-.7-.6q-.4-.2-1-.2zm8.6-1.2-.2 1.4.6-.7.8-.5.8-.3 1-.1q.8 0 1.4.3.5.3.9.8.3.5.4 1.2v1.5l-1 6.2h-1.6l1-6.2v-1q0-.4-.2-.7-.2-.3-.6-.5-.4-.2-.9-.2l-.8.1-.7.3-.7.5-.5.6-1.2 7.1h-1.7l1.7-9.9zm14.6 7.1-.1-.6-.5-.5-.7-.3q-.4 0-.7-.2-.5 0-1.1-.3l-1.1-.5q-.5-.3-.8-.8-.3-.5-.3-1.2 0-.5.2-.9l.5-.7q.3-.4.7-.6l.8-.4 1-.3h.9q.7 0 1.3.2.6.2 1.1.6.5.4.8 1 .3.5.3 1.3h-1.7l-.1-.8-.4-.5-.7-.3-.7-.1h-.8l-.7.3-.6.5q-.2.3-.2.7v.6l.6.5.6.2.7.1.8.3q.4 0 .7.2l.8.4.6.5.3.7q.2.3.2.8 0 .8-.5 1.4-.4.6-1 1-.6.3-1.3.4l-1.4.2-1.4-.2q-.7-.2-1.2-.6-.6-.4-.9-1-.3-.6-.3-1.4h1.7l.1.8.5.6.7.3.8.1h.8l.8-.3q.4-.2.6-.5.3-.3.3-.7zm6-7.1h5l-1.5 8.4h3.1l-.2 1.4h-8l.2-1.4h3.3l1.2-7h-3.3zm3.6-2.6q0-.4.2-.7.3-.3.8-.3h.4l.3.2.2.4v.4q0 .4-.2.7-.3.2-.8.2-.4 0-.7-.2-.2-.3-.2-.7zm14.4 7.5-.2 1.3-.5 1.1q-.2.6-.6 1.1l-.8.9-1.1.5q-.6.2-1.3.2-.8 0-1.5-.3-.6-.3-1-1l-.4 1.1h-1.5l2.4-14h1.7l-1 5.2q.5-.6 1.2-1 .7-.2 1.6-.2.7 0 1.2.2t.8.6q.4.4.6.9l.4 1v2.3zm-1.6-.2v-1.1l-.2-1.2q-.2-.5-.6-.8-.4-.4-1.1-.4l-.8.1-.7.3-.6.5-.5.6-.7 4.3q.2.7.7 1.1.5.5 1.3.5t1.3-.3q.6-.4 1-.9l.5-1.2q.3-.6.4-1.3zm6.3-8.9h4.9l-2.2 12.6h3.2l-.3 1.4h-8l.2-1.4h3.3l1.9-11.1h-3.3zm12.6 14.2q-1 0-1.8-.4-.7-.4-1.2-1-.5-.7-.7-1.5l-.2-1.8v-.4l.4-1.3.5-1.2q.3-.6.8-1 .4-.6 1-1l1.1-.5q.7-.2 1.4-.1 1 0 1.7.4t1.1 1.1q.4.7.6 1.5v1.8l-.1.8h-6.8v1.1q.1.6.4 1 .3.5.8.8.5.3 1.2.3.8 0 1.5-.3.8-.4 1.3-1l1 .8q-.3.5-.8.8l-1 .6-1 .4h-1.2zm1.2-8.8-1.2.2q-.5.2-.9.6-.4.4-.6 1l-.5 1h5.1v-1.2q0-.4-.3-.8t-.7-.6q-.4-.2-.9-.2z" fill="#000"/><path d="m161.8 412.6a11.4 11.4 0 0 1 11.3-11.4h166.3a11.4 11.4 0 0 1 11.3 11.4v45.4a11.4 11.4 0 0 1 -11.3 11.3h-166.4a11.4 11.4 0 0 1 -11.3-11.3z" fill="#34a853" fill-rule="evenodd"/><path d="m161.8 412.6a11.4 11.4 0 0 1 11.3-11.4h166.3a11.4 11.4 0 0 1 11.3 11.4v45.4a11.4 11.4 0 0 1 -11.3 11.3h-166.4a11.4 11.4 0 0 1 -11.3-11.3z" stroke="#666" stroke-linejoin="round"/><path d="m198 426h-8.1v8h-3.7v-19h12.8v3h-9v5.1h8.1v3zm5-6.2h7.7v11.2h3.8v3h-11.4v-3h4v-8.2h-4zm3.8-3.6.1-.7q.2-.4.5-.6.2-.3.6-.4.4-.2.9-.2 1 0 1.5.6.6.5.6 1.3 0 .9-.6 1.4-.5.6-1.5.6-.5 0-.9-.2l-.6-.4q-.3-.2-.5-.6v-.8zm24 10.8q0 1.6-.4 3-.3 1.2-1 2.2-.7 1-1.7 1.5t-2.4.5q-1.3 0-2.2-.5-.9-.4-1.5-1.3l-.2 1.5h-3.2v-20h3.6v7.2q.6-.7 1.4-1.1 1-.4 2-.4 1.4 0 2.5.5 1 .6 1.7 1.5.7 1 1 2.3.4 1.3.4 2.9zm-3.6-.2q0-1-.2-1.7-.1-.7-.4-1.3-.3-.6-.9-1-.5-.3-1.3-.3-1 0-1.6.4-.7.5-1 1.2v5.6q.3.7 1 1.1.6.4 1.6.4.8 0 1.3-.3.6-.3.9-.9.3-.5.4-1.3.2-.8.2-1.7zm13.7 7.4q-1.6 0-3-.5-1.3-.6-2.2-1.5-1-1-1.5-2.2-.5-1.2-.5-2.6v-.5q0-1.7.5-3t1.4-2.3q1-1 2.2-1.5 1.2-.5 2.7-.5 1.5 0 2.7.5 1.2.5 2 1.4.9 1 1.3 2.2.4 1.3.4 2.8v1.5h-9.5q0 .8.4 1.4.3.6.8 1t1.2.6q.6.3 1.4.3l1-.1 1-.3 1-.5.7-.7 1.8 2-1 .9-1.2.8-1.6.6zm-.4-11.7q-.6 0-1.1.2l-1 .6-.6 1-.4 1.2h6v-.2q0-.6-.3-1.1-.1-.5-.5-.9t-1-.6q-.5-.2-1.1-.2zm19.7-3q.8 0 1.5.2.7 0 1.1.2l-.5 3.6-1.5-.2h-1.4q-1.5 0-2.4.5-1 .6-1.4 1.7v8.4h-3.6v-14h3.4l.1 2.2q.9-1.2 2-1.8 1.3-.7 2.7-.7zm18.2 14.4h-3.6l-5.3-12.2v12.3h-3.7v-19h3.7l5.3 12.2v-12.2h3.6v19zm3.2-7.1q0-1.6.4-2.9.5-1.3 1.3-2.3.9-1 2.1-1.5 1.2-.5 2.8-.5 1.6 0 2.8.5 1.3.6 2.1 1.5.9 1 1.3 2.3.5 1.3.5 2.9v.2q0 1.6-.5 2.9-.4 1.3-1.3 2.3-.8 1-2 1.5-1.3.5-2.9.5-1.5 0-2.8-.5-1.2-.6-2-1.5-1-1-1.4-2.3-.4-1.3-.4-2.9zm3.6.2q0 1 .2 1.7.1.8.5 1.3.4.6 1 1 .5.3 1.3.3t1.4-.3q.6-.4 1-1 .3-.5.5-1.3l.1-1.7v-.2l-.1-1.7q-.2-.7-.6-1.3-.3-.6-.9-1-.6-.3-1.4-.3-.8 0-1.4.3l-1 1q-.3.6-.4 1.3-.2.8-.2 1.7zm12.5-.2q0-1.6.4-3 .3-1.3 1-2.2.8-1 1.8-1.5t2.3-.5q1.1 0 2 .4.8.4 1.5 1v-7h3.6v20h-3.3l-.2-1.6q-.6.9-1.5 1.3-1 .5-2.1.5-1.3 0-2.3-.6-1-.5-1.7-1.5-.8-.9-1.1-2.2-.4-1.3-.4-2.9zm3.6.2.1 1.7q.2.8.5 1.3.4.6 1 1 .5.2 1.2.2 1 0 1.6-.4.6-.4 1-1v-5.8q-.4-.7-1-1-.6-.5-1.6-.5-.7 0-1.3.4-.5.3-.9.9-.3.6-.4 1.3-.2.8-.2 1.7zm19.6 7.2q-1.6 0-3-.5-1.3-.6-2.2-1.5-1-1-1.5-2.2-.5-1.2-.5-2.6v-.5q0-1.7.5-3t1.4-2.3q1-1 2.2-1.5 1.2-.5 2.7-.5 1.5 0 2.7.5 1.2.5 2 1.4.9 1 1.3 2.2.4 1.3.4 2.8v1.5h-9.5q0 .8.4 1.4.3.6.8 1t1.1.6q.7.3 1.4.3l1.1-.1 1-.3.9-.5.7-.7 1.8 2-.8.9-1.3.8-1.7.6q-.9.2-1.9.2zm-.4-11.7-1.2.2q-.5.2-.9.6l-.6 1-.4 1.2h6v-.2q0-.6-.3-1.1l-.5-.9q-.4-.4-1-.6-.5-.2-1.2-.2zm-88.7 25.9.2 1.4q.5-.8 1.3-1.2.7-.4 1.7-.4.7 0 1.3.2l1 .7q.5.5.8 1.3.2.7.2 1.8v6h-2.5v-6l-.1-1-.4-.5q-.2-.3-.6-.3l-.8-.1q-.6 0-1 .2-.5.3-.8.8v7h-2.5v-9.9zm8.6 4.8q0-1 .3-2 .3-.9 1-1.5.5-.7 1.4-1.1.8-.4 2-.4 1 0 2 .4.8.4 1.4 1 .6.7.9 1.6.3 1 .3 2v.2q0 1-.3 2t-1 1.6q-.5.7-1.4 1-.9.4-2 .4-1 0-2-.3-.8-.4-1.4-1-.6-.8-1-1.7l-.2-2zm2.5.2.1 1.2.4 1 .7.6q.4.2 1 .2.5 0 .9-.2.4-.3.6-.7.3-.4.4-1l.1-1v-1.4l-.5-1q-.2-.4-.6-.6-.4-.2-1-.2l-1 .2-.6.6q-.3.4-.4 1v1.1zm8.8-.2.2-2q.3-1 .8-1.6.5-.7 1.2-1 .7-.4 1.6-.4.8 0 1.4.3.6.3 1 .8v-5h2.6v14h-2.3l-.1-1q-.5.5-1.1.8-.6.3-1.5.3t-1.6-.3q-.7-.4-1.2-1-.5-.8-.8-1.7-.2-.9-.2-2zm2.5.2.1 1.2q0 .5.3 1l.6.6q.4.2 1 .2t1-.3q.5-.3.7-.8v-4q-.2-.5-.7-.8-.4-.3-1-.3t-1 .3l-.6.6-.3 1-.1 1.1zm13.7 5q-1.1 0-2-.3-1-.4-1.7-1-.6-.7-1-1.6-.3-.8-.3-1.8v-.4q0-1.1.3-2 .4-1 1-1.7t1.5-1q.9-.4 2-.4 1 0 1.8.4.9.3 1.4 1 .6.6 1 1.5.2.9.2 2v1h-6.7l.3 1 .6.7.8.4q.4.2 1 .2h.7l.7-.3.6-.3.6-.5 1.2 1.3q-.2.4-.6.7l-.9.6-1.1.4zm-.3-8.1-.8.1-.6.4q-.3.3-.4.7l-.3.9h4.1v-.2l-.1-.8-.4-.6-.6-.4zm15.4 8h-9v-1.8l4.2-4.6.9-1 .5-.8.4-.7v-1.4l-.4-.6-.6-.3q-.3-.2-.7-.2-1 0-1.6.6-.5.6-.5 1.6h-2.5q0-.8.3-1.6.4-.8 1-1.4.6-.6 1.4-1 1-.3 2-.3t1.8.3q.7.3 1.3.8.5.5.8 1.2.2.7.2 1.6l-.2 1.2-.6 1.2q-.3.6-.9 1.2l-1.1 1.3-2.5 2.6h5.8z" fill="#fff"/><use fill="#bdbdbd" fill-rule="evenodd" xlink:href="#e"/><g stroke-linejoin="round"><use stroke="#666" xlink:href="#e"/><path d="m350.7 435.3h50.5" stroke="#595959" stroke-linecap="butt" stroke-width="4"/></g><path d="m401.1 442 18.2-6.6-18.1-6.6z" fill="#595959" fill-rule="evenodd" stroke="#595959" stroke-width="4"/><path d="m51 46.4.2 1.7q.6-.9 1.5-1.4.9-.5 2-.5.9 0 1.6.3.7.2 1.2.8.6.5.8 1.3.3.8.3 2v7h-2v-7l-.1-1.3-.5-.8-.8-.5-1-.1q-1 0-1.8.4-.7.5-1.2 1.3v8.1h-1.9v-11.3zm10.7 5.6q0-1.3.3-2.3.4-1 1-1.8.7-.8 1.7-1.2 1-.5 2-.5 1.3 0 2.2.5 1 .4 1.6 1.2.7.7 1 1.8.4 1 .4 2.3v.2q0 1.2-.4 2.2-.3 1-1 1.9-.6.7-1.6 1.2-.9.4-2 .4-1.3 0-2.2-.4-1-.5-1.7-1.2-.6-.8-1-1.9-.3-1-.3-2.2zm2 .2.1 1.6q.2.7.6 1.3.4.6 1 1 .6.2 1.4.2.8 0 1.4-.3.6-.3 1-.9.4-.6.6-1.3l.2-1.6v-.2q0-.9-.2-1.6-.2-.8-.6-1.3-.4-.6-1-1-.6-.3-1.4-.3-.8 0-1.4.3-.6.4-1 1-.4.5-.6 1.3-.2.7-.2 1.6zm11-.2q0-1.3.3-2.4.3-1 .9-1.8.6-.7 1.4-1.2.8-.4 1.9-.4 1 0 1.7.4.8.3 1.3 1v-6h2v16h-1.8v-1.1q-.6.7-1.4 1-.8.4-1.9.4-1 0-1.8-.4-.8-.5-1.4-1.2-.6-.8-1-1.9-.2-1-.2-2.2zm1.9.2.2 1.6q.1.7.5 1.3.4.5 1 .9.5.3 1.3.3l1-.1.6-.3.6-.6.5-.6v-5.3q-.4-.6-1-1-.7-.5-1.6-.5-.9 0-1.4.3-.6.3-1 1-.4.5-.5 1.2l-.2 1.6zm16.2 5.7q-1.2 0-2.2-.4-1-.4-1.7-1.1-.7-.8-1-1.8-.5-1-.5-2.1v-.5q0-1.4.5-2.4.4-1.1 1.1-1.8.7-.8 1.7-1.2.9-.4 1.9-.4 1.2 0 2 .4 1 .5 1.6 1.2.6.8.9 1.8.3 1 .3 2.1v1h-8l.2 1.4q.3.6.8 1.1.4.5 1 .8.7.3 1.5.3 1 0 1.8-.4t1.4-1.1l1.1 1-.7.7-1 .7-1.2.5q-.7.2-1.5.2zm-.2-10.1q-.6 0-1.1.2-.6.2-1 .6l-.7 1q-.3.6-.4 1.4h6l-.1-1.1q-.2-.6-.6-1-.3-.5-.9-.7-.5-.3-1.2-.3zm14.3 9.9h-2v-12.7l-4 1.5v-1.8l5.8-2.2h.2z" fill="#000"/><path d="m116.7 56.4v-.4l.4-.5q.1-.2.4-.3l.7-.1h.6l.5.4.3.5.1.5v.6l-.4.5-.5.3h-1.3l-.4-.3-.3-.5-.1-.6z" fill="#e67c73"/><path d="m133.5 57.7-.2-.6v-.6l-.7.5-.8.5-1 .3h-1q-.9 0-1.6-.2-.7-.2-1.2-.7-.5-.4-.8-1-.3-.6-.3-1.3 0-1 .4-1.7t1-1.1q.7-.5 1.7-.7 1-.2 2.1-.2h2.1v-1q0-.5-.2-.9l-.5-.7-.9-.4-1-.1h-1l-.8.5-.5.5-.2.7h-2q0-.6.4-1.2.3-.6.9-1 .6-.5 1.4-.8.8-.3 1.9-.3 1 0 1.7.2.9.3 1.5.7.6.5.9 1.2.3.7.3 1.7v5.2l.1 1.2.3 1.1v.2zm-3.4-1.5 1-.1 1-.4.7-.6.4-.6v-2.3h-1.8q-1.7 0-2.6.5-1 .5-1 1.6l.2.8.4.6.7.4zm13.6.1 1-.1 1-.5.5-.7q.3-.4.3-.9h1.8q0 .8-.4 1.5l-1 1.2q-.6.5-1.5.8-.8.3-1.7.3-1.3 0-2.2-.5-1-.4-1.6-1.2-.7-.8-1-1.8-.3-1-.3-2.1v-.5q0-1 .3-2.1.3-1 1-1.8.6-.8 1.6-1.2 1-.5 2.2-.5 1 0 1.8.3.9.3 1.5.9.6.5 1 1.3.3.7.3 1.6h-1.8q0-.5-.3-1l-.5-.8-.9-.5-1-.2q-1 0-1.6.4-.6.3-1 .9-.4.6-.5 1.3l-.2 1.4v.5l.2 1.4q.1.7.5 1.3.4.6 1 1 .6.3 1.5.3zm12.6-12.6v2.7h4.3v1.6h-4.3v6l.1 1.1.5.7.7.4h2.1l.6-.2h.4l.3 1.3-.6.3-.7.1-.9.1h-.9l-1.4-.1q-.6-.2-1.1-.7-.5-.5-.8-1.2-.3-.7-.3-1.8v-6h-3v-1.6h3v-2.7zm15.5 12.3q-.5.9-1.4 1.3-.8.5-2 .5-.8 0-1.5-.3t-1.3-.8q-.5-.6-.8-1.5-.2-1-.2-2.2v-6.7h1.9v6.7l.1 1.6.5 1q.3.3.7.4.4.2 1 .2 1.2 0 1.9-.5t1-1.3v-8h2v11.2h-1.7l-.1-1.6zm13 1.6-.3-.6v-.7l-.7.6-.8.5-1 .3h-1q-.9 0-1.6-.2-.7-.2-1.2-.7-.5-.4-.8-1-.3-.6-.3-1.4 0-.9.4-1.6.4-.7 1-1.1.7-.5 1.7-.7 1-.3 2.1-.3h2.1v-.7q0-.5-.2-.9l-.5-.7-.9-.4q-.4-.2-1-.2t-1 .2q-.5.1-.8.4-.4.2-.5.5l-.2.7h-2q0-.6.4-1.2.3-.6.9-1 .6-.5 1.4-.8.8-.3 1.9-.3 1 0 1.7.2.9.3 1.5.7.6.5.9 1.2.3.7.3 1.7v5.2l.1 1.2.3 1v.3zm-3.5-1.5 1-.1 1-.4.6-.6.5-.6v-2.3h-1.8q-1.7 0-2.6.5-1 .5-1 1.6 0 .4.2.7.1.4.4.7l.7.4zm9.1-14.5h5.8v14.4h3.6v1.7h-9.4v-1.7h3.9v-12.6h-3.9v-1.7zm20.6 12.3q0-.8-.4-1.2-.3-.5-.8-.8l-1-.6-1.2-.4-1.7-.6-1.5-.9q-.7-.5-1-1.2-.5-.8-.5-1.7 0-1 .4-1.8.5-.8 1.1-1.3.7-.5 1.6-.8 1-.3 1.8-.3 1 0 2 .3.8.4 1.5 1 .8.6 1.2 1.4.4.8.4 2h-2q0-.8-.3-1.3-.2-.5-.6-.9-.4-.4-1-.6-.5-.2-1.2-.2l-1 .1-1 .5q-.4.3-.7.8-.2.4-.2 1 0 .7.3 1.1l.8.8 1.1.5 1.1.4 1.1.4 1.1.5 1 .7q.5.3.8.8l.6 1 .2 1.2q0 1-.5 1.8t-1.2 1.3q-.7.5-1.6.7-.9.3-1.8.3-1 0-2-.3t-1.7-1q-.8-.5-1.3-1.4-.4-.8-.5-1.9h2q.1.7.4 1.3l.7.9q.5.4 1.1.6.6.2 1.3.2.6 0 1.1-.2.6-.1 1-.4.4-.3.7-.8.3-.4.3-1zm9.4-10.2v2.7h4.3v1.6h-4.3v6l.1 1.1.5.7.7.4h2l.6-.2h.4l.3 1.3-.6.3-.7.1-.9.1h-.9l-1.4-.1q-.6-.2-1.1-.7-.5-.5-.8-1.2-.3-.7-.3-1.8v-6h-3v-1.6h3v-2.7zm15.6 14-.2-.6v-.7l-.7.6-.8.5-1 .3h-1q-.9 0-1.6-.2-.7-.2-1.2-.7-.5-.4-.8-1-.3-.6-.3-1.4 0-.9.4-1.6.4-.7 1-1.1.7-.5 1.7-.7 1-.3 2.1-.3h2.1v-.8q0-.5-.2-.9l-.5-.7-.9-.4-1-.2q-.6 0-1 .2-.5.1-.8.4-.4.2-.5.5l-.2.7h-2q0-.6.4-1.2.3-.6.9-1 .6-.5 1.4-.8.8-.3 1.9-.3 1 0 1.7.2.9.3 1.5.7.6.5.9 1.2.3.7.3 1.7v5.2l.1 1.2.3 1v.3zm-3.4-1.5 1-.1 1-.4.6-.6.5-.6v-2.3h-1.8q-1.7 0-2.6.5-1 .5-1 1.6 0 .4.2.7.1.4.4.7l.7.4zm16.2-10h1.1l.5.2h.4l-.3 2-1-.2h-1q-1.5 0-2.3.5-.8.6-1.2 1.7v7.3h-2v-11.3h1.9v1.8q.8-1 1.7-1.4 1-.6 2.2-.6zm10-2.5v2.7h4.3v1.6h-4.3v6l.1 1.1.5.7.7.4h1.9l.6-.2h.4l.3 1.3-.6.3-.7.1-.9.1h-.9l-1.4-.1q-.6-.2-1.1-.7-.5-.5-.8-1.2-.3-.7-.3-1.8v-6h-3v-1.6h3v-2.7h2zm18.4.5h-4.6v13.5h-2v-13.5h-4.6v-1.7h11.2zm3 2.2h5.7v9.6h3.7v1.7h-9.6v-1.7h3.9v-7.9h-3.9v-1.7zm3.5-3q0-.4.3-.7.3-.4.9-.4.5 0 .8.4.3.3.3.8 0 .4-.3.7-.3.4-.8.4-.6 0-1-.4-.2-.3-.2-.7zm9.8 3v1q.4-.5 1-.8.5-.4 1.3-.4 1.6 0 2 1.2.4-.5 1-.9.5-.3 1.3-.3 1.2 0 1.9.8.7.7.7 2.3v8.4h-1.9v-8.5q0-1.4-1.3-1.4l-.6.1-.4.3-.2.4-.1.4v8.7h-1.9v-8.5q0-.6-.3-1t-1-.4q-.5 0-.9.3-.3.2-.5.6v9h-1.8v-11.3zm16.8 11.6q-1.2 0-2.2-.4-1-.4-1.7-1.1-.7-.8-1-1.8-.5-1-.5-2.2v-.5q0-1.4.4-2.4.5-1.1 1.2-1.9.7-.7 1.7-1 .9-.5 1.9-.5 1.2 0 2 .4 1 .4 1.6 1.2.6.7.9 1.8.3 1 .3 2.1v.9h-8q0 .8.2 1.5.3.6.8 1.1.4.5 1 .8.7.3 1.5.3 1 0 1.8-.4t1.4-1.1l1.1 1-.7.7-1 .7-1.2.5q-.7.2-1.5.2zm-.2-10.1q-.6 0-1.1.2-.6.2-1 .6l-.7 1q-.3.6-.4 1.4h6v-.1q0-.6-.2-1.1-.1-.6-.5-1-.3-.5-.9-.7-.5-.3-1.2-.3z" fill="#000"/><path d="m340.2 49.6h-9.3v-1.7h9.3zm0 4.3h-9.3v-1.7h9.3z" fill="#e67c73"/><path d="m366 52.2q0 1.2-.3 2.2-.3 1-.8 1.9-.6.7-1.4 1.2-.9.4-2 .4-1 0-1.8-.3-.7-.4-1.3-1v5.4h-2v-15.6h1.8l.1 1.2q.6-.6 1.4-1 .8-.4 1.8-.4 1.1 0 2 .4.8.5 1.4 1.2.5.8.8 1.8.3 1.1.3 2.4zm-2-.2-.1-1.6q-.2-.8-.6-1.3-.3-.6-1-1-.5-.3-1.3-.3-1 0-1.6.5-.6.4-1 1v5.5q.4.7 1 1 .6.5 1.6.5.8 0 1.4-.3.6-.4 1-1 .3-.5.5-1.3.2-.7.2-1.5zm10.3 5.9q-1.2 0-2.2-.4-1-.4-1.7-1.1-.7-.8-1.1-1.8-.4-1-.4-2.1v-.5q0-1.4.4-2.4.5-1.1 1.2-1.8.7-.8 1.6-1.2 1-.4 2-.4 1.2 0 2 .4 1 .5 1.6 1.2.6.8.9 1.8.3 1 .3 2.1v1h-8l.2 1.4q.3.6.8 1.1.4.5 1 .8.7.3 1.5.3 1 0 1.8-.4t1.3-1.1l1.2 1-.7.7-1 .7-1.2.5q-.7.2-1.5.2zm-.3-10.1q-.6 0-1 .2-.6.2-1 .6l-.7 1q-.3.6-.4 1.4h6q0-.6-.2-1.1l-.5-1q-.4-.5-1-.7-.4-.3-1.2-.3zm15.5-1.6h1.1l.5.2h.4l-.3 2-1-.2h-1.2q-1.4 0-2.2.5-.8.6-1.3 1.7v7.3h-1.9v-11.3h1.9v1.8q.7-1 1.7-1.4 1-.6 2.2-.6zm8.3 11.5v-9.8h-3.1v-1.5h3v-.8q0-1 .4-1.9.3-.8.9-1.4.6-.5 1.4-.8.8-.3 1.8-.3l1.3.1 1.4.3-.3 1.6-1-.2-1.2-.1q-1.3 0-2 .7-.7.6-.7 2v.8h4.4v1.5h-4.4v9.8h-2zm9.4-5.7q0-1.3.3-2.3.4-1 1-1.8.7-.8 1.6-1.2 1-.5 2.2-.5 1.2 0 2.1.5 1 .4 1.6 1.2.7.7 1 1.8.4 1 .4 2.3v.2q0 1.2-.4 2.2-.3 1-1 1.9-.6.7-1.6 1.2-1 .4-2.1.4-1.2 0-2.2-.4-1-.5-1.6-1.2-.6-.8-1-1.9-.3-1-.3-2.2zm1.9.2.2 1.6q.2.7.6 1.3.4.6 1 1 .6.2 1.4.2.8 0 1.4-.3.6-.3 1-.9.4-.6.6-1.3l.2-1.6v-.2q0-.9-.2-1.6-.2-.8-.6-1.3-.4-.6-1-1-.6-.3-1.4-.3-.8 0-1.4.3-.6.4-1 1-.4.5-.6 1.3-.2.7-.2 1.6zm18.8-6h1.1l.5.2h.4l-.3 2-1-.2h-1.1q-1.4 0-2.2.5-.8.6-1.2 1.7v7.3h-2v-11.3h1.9v1.8q.7-1 1.7-1.4 1-.6 2.2-.6zm6.3.2v1q.4-.5 1-.8.5-.4 1.3-.4 1.6 0 2 1.2.4-.5 1-.8.5-.4 1.3-.4 1.2 0 1.9.8.7.7.7 2.3v8.4h-1.9v-8.4q0-1.5-1.3-1.4h-.6l-.4.3-.2.4-.2.4v8.7h-1.8v-8.5q0-.6-.3-1t-1-.4q-.6 0-.9.3-.3.2-.5.6v9h-1.8v-11.3zm19.3 11.3-.2-.6v-.6l-.7.5-.8.5-1 .3h-1q-.9 0-1.6-.2-.7-.2-1.2-.7-.5-.4-.8-1-.3-.6-.3-1.3 0-1 .4-1.7t1-1.1q.7-.5 1.7-.7l2-.2h2.2v-1q0-.5-.2-.9l-.5-.7-.9-.4-1-.1h-1l-.8.5q-.4.2-.5.5l-.2.7h-2q0-.6.4-1.2.3-.6.9-1 .6-.5 1.4-.8.8-.3 1.9-.3 1 0 1.7.2.9.3 1.5.7.6.5.9 1.2.3.7.3 1.7v5.2l.1 1.2.3 1.1v.2zm-3.4-1.5 1-.1 1-.4.6-.6.5-.6v-2.3h-1.8q-1.7 0-2.6.5-1 .5-1 1.6l.2.8.4.6.7.4zm10.5-9.8.2 1.7q.6-.9 1.5-1.4.9-.5 2-.5.9 0 1.6.3.7.2 1.2.8.5.5.8 1.3.3.8.3 2v7h-2v-7l-.1-1.3-.5-.8-.8-.5-1.1-.1q-1 0-1.7.4-.7.5-1.2 1.3v8.1h-2v-11.3zm15.9 10 1-.2.9-.5q.4-.3.6-.7.3-.4.3-.9h1.8q0 .8-.4 1.5t-1 1.2q-.7.5-1.5.8-.8.3-1.7.3-1.3 0-2.2-.5-1-.4-1.6-1.2-.7-.8-1-1.8-.3-1-.3-2.1v-.5q0-1 .3-2 .3-1.1 1-1.9.6-.8 1.6-1.2 1-.5 2.2-.5 1 0 1.8.3.9.3 1.5.9.6.5 1 1.3.3.7.3 1.6h-1.8q0-.5-.3-1l-.6-.8-.8-.5q-.5-.2-1.1-.2-1 0-1.5.4-.6.3-1 .9-.4.6-.5 1.3l-.2 1.4v.5l.2 1.4q.1.8.5 1.3.4.6 1 1 .6.3 1.5.3zm13 1.5q-1.2 0-2.2-.4-1-.4-1.7-1.1-.7-.8-1.1-1.8-.4-1-.4-2.1v-.5q0-1.4.4-2.4.5-1.1 1.2-1.8.7-.8 1.6-1.2 1-.4 2-.4 1.2 0 2 .4 1 .5 1.6 1.2.6.8.9 1.8.3 1 .3 2.1v1h-8l.2 1.4q.3.6.8 1.1.4.5 1 .8.7.3 1.5.3 1 0 1.8-.4t1.4-1.1l1.1 1-.7.7-1 .7-1.2.5q-.7.2-1.5.2zm-.3-10.1q-.6 0-1 .2-.6.2-1 .6l-.7 1q-.3.6-.4 1.4h6q0-.6-.2-1.1-.1-.6-.5-1-.3-.5-.9-.7-.5-.3-1.3-.3z" fill="#000"/><path d="m500.7 56.4v-.4l.3-.5.5-.3.7-.1h.6l.5.4.3.5v1l-.3.5-.5.3h-1.3l-.5-.3q-.2-.2-.2-.5z" fill="#e67c73"/><path d="m511.8 46.4.2 1.7q.6-.9 1.5-1.4.9-.5 2-.5.9 0 1.6.3.7.2 1.2.8.5.5.8 1.3.3.8.3 2v7h-2v-7l-.1-1.3-.5-.8-.8-.5-1.1-.1q-1 0-1.7.4-.8.5-1.2 1.3v8.1h-1.9v-11.3zm10.6 5.6q0-1.3.3-2.3.4-1 1-1.8.7-.8 1.6-1.2 1-.5 2.2-.5 1.2 0 2.1.5 1 .4 1.6 1.2.7.7 1 1.8.4 1 .4 2.3v.2q0 1.2-.4 2.2-.3 1-1 1.9-.6.7-1.6 1.2-1 .4-2.1.4-1.2 0-2.2-.4-1-.5-1.6-1.2-.6-.8-1-1.9-.3-1-.3-2.2zm1.9.2.2 1.6q.2.7.6 1.3.4.6 1 1 .6.2 1.4.2.8 0 1.4-.3.6-.3 1-.9.4-.6.6-1.3l.2-1.6v-.2q0-.9-.2-1.6-.2-.8-.6-1.3-.4-.6-1-1-.6-.3-1.4-.3-.8 0-1.4.3-.6.4-1 1-.4.5-.6 1.3-.2.7-.2 1.6zm13.1 1.4.2 1.6.3-1.6 1.8-7.2h1.3l1.7 7.2.4 1.8.2-1.8 1.3-7.2h1.7l-2.4 11.3h-1.5l-1.8-7-.3-1.7-.3 1.8-1.7 6.9h-1.5l-2.4-11.3h1.7z" fill="#000"/><path d="m550.4 51.5.2-2.8.7-2.4.9-2 1-1.7 1.2-1.2 1.1-.8.4 1.3-1.3 1.3q-.6.8-1.1 2-.5 1.2-.9 2.8-.3 1.6-.3 3.5v.2q0 2 .3 3.5.4 1.6.9 2.8.5 1.2 1.1 2l1.3 1.4-.4 1.2-1.1-.8-1.2-1.2-1-1.7-1-2-.6-2.5q-.2-1.3-.2-2.8zm18 .1q0 1.5-.3 2.8-.2 1.3-.6 2.5l-1 2q-.5 1-1 1.6-.6.8-1.2 1.3l-1 .8-.5-1.2q.7-.5 1.3-1.3.7-.9 1.2-2.1.5-1.2.8-2.8.3-1.6.3-3.6t-.3-3.6q-.4-1.6-1-2.8-.4-1.3-1-2.1l-1.3-1.4.4-1.1q.6.3 1.1.8l1.2 1.2 1 1.7q.6.9 1 2t.6 2.4q.2 1.3.2 2.8zm9-4.2.1-.5.3-.5.5-.3.7-.1h.6l.5.4.3.5v1.1l-.3.5-.5.3h-1.3l-.5-.3-.3-.5v-.6zm2.6 9.8-.1 1-.4 1.1q-.2.6-.6 1l-.7.9-1.2-.7q.5-.7.7-1.5.2-.8.2-1.7v-1.9h2z" fill="#e67c73"/><path d="m51 84.4.2 1.7q.6-.9 1.5-1.4.9-.5 2-.5.9 0 1.6.3.7.2 1.2.8.6.5.8 1.3.3.8.3 2v7h-2v-7l-.1-1.3-.5-.8-.8-.5-1-.1q-1 0-1.8.4-.7.5-1.2 1.3v8.1h-1.9v-11.3zm10.7 5.6q0-1.3.3-2.3.4-1 1-1.8.7-.8 1.7-1.2 1-.5 2-.5 1.3 0 2.2.5 1 .4 1.6 1.2.7.7 1 1.8.4 1 .4 2.3v.2q0 1.2-.4 2.2-.3 1-1 1.9-.6.7-1.6 1.2-.9.4-2 .4-1.3 0-2.2-.4-1-.5-1.7-1.2-.6-.8-1-1.9-.3-1-.3-2.2zm2 .2.1 1.6q.2.7.6 1.3.4.6 1 1 .6.2 1.4.2.8 0 1.4-.3.6-.3 1-.9.4-.6.6-1.3l.2-1.6v-.2q0-.9-.2-1.6-.2-.8-.6-1.3-.4-.6-1-1-.6-.3-1.4-.3-.8 0-1.4.3-.6.4-1 1-.4.5-.6 1.3-.2.7-.2 1.6zm11-.2q0-1.3.3-2.4.3-1 .9-1.8.6-.7 1.4-1.2.8-.4 1.9-.4 1 0 1.7.4.8.3 1.3 1v-6h2v16h-1.8v-1.1q-.6.7-1.4 1-.8.4-1.9.4-1 0-1.8-.4-.8-.5-1.4-1.2-.6-.8-1-1.9-.2-1-.2-2.2zm1.9.2.2 1.6q.1.7.5 1.3.4.5 1 .9.5.3 1.3.3l1-.1.6-.3.6-.6.5-.6v-5.3q-.4-.6-1-1-.7-.5-1.6-.5-.9 0-1.4.3-.6.3-1 1-.4.5-.5 1.2l-.2 1.6zm16.2 5.7q-1.2 0-2.2-.4-1-.4-1.7-1.1-.7-.8-1-1.8-.5-1-.5-2.1v-.5q0-1.4.5-2.4.4-1.1 1.1-1.8.7-.8 1.7-1.2.9-.4 1.9-.4 1.2 0 2 .4 1 .5 1.6 1.2.6.8.9 1.8.3 1 .3 2.1v1h-8l.2 1.4q.3.6.8 1.1.4.5 1 .8.7.3 1.5.3 1 0 1.8-.4t1.4-1.1l1.1 1-.7.7-1 .7-1.2.5q-.7.2-1.5.2zm-.2-10.1q-.6 0-1.1.2-.6.2-1 .6l-.7 1q-.3.6-.4 1.4h6l-.1-1.1q-.2-.6-.6-1-.3-.5-.9-.7-.5-.3-1.2-.3zm17.3 9.9h-10v-1.4l5-5.5 1.1-1.3.8-1 .4-1v-1.9l-.6-.9q-.4-.4-.9-.6l-1-.2q-.8 0-1.4.2-.6.2-1 .6l-.5 1q-.2.6-.2 1.3h-1.9q0-1 .3-1.8.4-.9 1-1.5t1.5-1q1-.4 2.1-.4 1 0 2 .3.8.3 1.4 1 .6.5.9 1.3.3.7.3 1.6l-.2 1.5-.6 1.3-1 1.2q-.4.7-1 1.3l-4 4.4h7.5v1.6z" fill="#000"/><path d="m116.7 94.4v-.4l.4-.5q.1-.2.4-.3l.7-.1h.6l.5.4.3.5.1.5v.6l-.4.5-.5.3h-1.3l-.4-.3-.3-.5-.1-.6z" fill="#e67c73"/><path d="m133.5 95.7-.2-.6v-.6l-.7.5-.8.5-1 .3h-1q-.9 0-1.6-.2-.7-.2-1.2-.7-.5-.4-.8-1-.3-.6-.3-1.3 0-1 .4-1.7t1-1.1q.7-.5 1.7-.7 1-.2 2.1-.2h2.1v-1q0-.5-.2-.9l-.5-.7-.9-.4-1-.1h-1l-.8.5-.5.5-.2.7h-2q0-.6.4-1.2.3-.6.9-1 .6-.5 1.4-.8.8-.3 1.9-.3 1 0 1.7.2.9.3 1.5.7.6.5.9 1.2.3.7.3 1.7v5.2l.1 1.2.3 1.1v.2zm-3.4-1.5 1-.1 1-.4.7-.6.4-.6v-2.3h-1.8q-1.7 0-2.6.5-1 .5-1 1.6l.2.8.4.6.7.4zm13.6.1 1-.1 1-.5.5-.7q.3-.4.3-.9h1.8q0 .8-.4 1.5l-1 1.2q-.6.5-1.5.8-.8.3-1.7.3-1.3 0-2.2-.5-1-.4-1.6-1.2-.7-.8-1-1.8-.3-1-.3-2.1v-.5q0-1 .3-2.1.3-1 1-1.8.6-.8 1.6-1.2 1-.5 2.2-.5 1 0 1.8.3.9.3 1.5.9.6.5 1 1.3.3.7.3 1.6h-1.8q0-.5-.3-1l-.5-.8-.9-.5-1-.2q-1 0-1.6.4-.6.3-1 .9-.4.6-.5 1.3l-.2 1.4v.5l.2 1.4q.1.7.5 1.3.4.6 1 1 .6.3 1.5.3zm12.6-12.6v2.7h4.3v1.6h-4.3v6l.1 1.1.5.7.7.4h2.1l.6-.2h.4l.3 1.3-.6.3-.7.1-.9.1h-.9l-1.4-.1q-.6-.2-1.1-.7-.5-.5-.8-1.2-.3-.7-.3-1.8v-6h-3v-1.6h3v-2.7zm15.5 12.3q-.5.9-1.4 1.3-.8.5-2 .5-.8 0-1.5-.3t-1.3-.8q-.5-.6-.8-1.5-.2-1-.2-2.2v-6.7h1.9v6.7l.1 1.6.5 1q.3.3.7.4.4.2 1 .2 1.2 0 1.9-.5t1-1.3v-8h2v11.2h-1.7l-.1-1.6zm13 1.6-.3-.6v-.7l-.7.6-.8.5-1 .3h-1q-.9 0-1.6-.2-.7-.2-1.2-.7-.5-.4-.8-1-.3-.6-.3-1.4 0-.9.4-1.6.4-.7 1-1.1.7-.5 1.7-.7 1-.3 2.1-.3h2.1v-.7q0-.5-.2-.9l-.5-.7-.9-.4q-.4-.2-1-.2t-1 .2q-.5.1-.8.4-.4.2-.5.5l-.2.7h-2q0-.6.4-1.2.3-.6.9-1 .6-.5 1.4-.8.8-.3 1.9-.3 1 0 1.7.2.9.3 1.5.7.6.5.9 1.2.3.7.3 1.7v5.2l.1 1.2.3 1v.3zm-3.5-1.5 1-.1 1-.4.6-.6.5-.6v-2.3h-1.8q-1.7 0-2.6.5-1 .5-1 1.6 0 .4.2.7.1.4.4.7l.7.4zm9.1-14.5h5.8v14.4h3.6v1.7h-9.4v-1.7h3.9v-12.6h-3.9v-1.7zm20.6 12.3q0-.8-.4-1.2-.3-.5-.8-.8l-1-.6-1.2-.4-1.7-.6-1.5-.9q-.7-.5-1-1.2-.5-.8-.5-1.7 0-1 .4-1.8.5-.8 1.1-1.3.7-.5 1.6-.8 1-.3 1.8-.3 1 0 2 .3.8.4 1.5 1 .8.6 1.2 1.4.4.8.4 2h-2q0-.8-.3-1.3-.2-.5-.6-.9-.4-.4-1-.6-.5-.2-1.2-.2l-1 .1-1 .5q-.4.3-.7.8-.2.4-.2 1 0 .7.3 1.1l.8.8 1.1.5 1.1.4 1.1.4 1.1.5 1 .7q.5.3.8.8l.6 1 .2 1.2q0 1-.5 1.8t-1.2 1.3q-.7.5-1.6.7-.9.3-1.8.3-1 0-2-.3t-1.7-1q-.8-.5-1.3-1.4-.4-.8-.5-1.9h2q.1.7.4 1.3l.7.9q.5.4 1.1.6.6.2 1.3.2.6 0 1.1-.2.6-.1 1-.4.4-.3.7-.8.3-.4.3-1zm9.4-10.2v2.7h4.3v1.6h-4.3v6l.1 1.1.5.7.7.4h2l.6-.2h.4l.3 1.3-.6.3-.7.1-.9.1h-.9l-1.4-.1q-.6-.2-1.1-.7-.5-.5-.8-1.2-.3-.7-.3-1.8v-6h-3v-1.6h3v-2.7zm15.6 14-.2-.6v-.7l-.7.6-.8.5-1 .3h-1q-.9 0-1.6-.2-.7-.2-1.2-.7-.5-.4-.8-1-.3-.6-.3-1.4 0-.9.4-1.6.4-.7 1-1.1.7-.5 1.7-.7 1-.3 2.1-.3h2.1v-.8q0-.5-.2-.9l-.5-.7-.9-.4-1-.2q-.6 0-1 .2-.5.1-.8.4-.4.2-.5.5l-.2.7h-2q0-.6.4-1.2.3-.6.9-1 .6-.5 1.4-.8.8-.3 1.9-.3 1 0 1.7.2.9.3 1.5.7.6.5.9 1.2.3.7.3 1.7v5.2l.1 1.2.3 1v.3zm-3.4-1.5 1-.1 1-.4.6-.6.5-.6v-2.3h-1.8q-1.7 0-2.6.5-1 .5-1 1.6 0 .4.2.7.1.4.4.7l.7.4zm16.2-10h1.1l.5.2h.4l-.3 2-1-.2h-1q-1.5 0-2.3.5-.8.6-1.2 1.7v7.3h-2v-11.3h1.9v1.8q.8-1 1.7-1.4 1-.6 2.2-.6zm10-2.5v2.7h4.3v1.6h-4.3v6l.1 1.1.5.7.7.4h1.9l.6-.2h.4l.3 1.3-.6.3-.7.1-.9.1h-.9l-1.4-.1q-.6-.2-1.1-.7-.5-.5-.8-1.2-.3-.7-.3-1.8v-6h-3v-1.6h3v-2.7h2zm18.4.5h-4.6v13.5h-2v-13.5h-4.6v-1.7h11.2zm3 2.2h5.7v9.6h3.7v1.7h-9.6v-1.7h3.9v-7.9h-3.9v-1.7zm3.5-3q0-.4.3-.7.3-.4.9-.4.5 0 .8.4.3.3.3.8 0 .4-.3.7-.3.4-.8.4-.6 0-1-.4-.2-.3-.2-.7zm9.8 3v1q.4-.5 1-.8.5-.4 1.3-.4 1.6 0 2 1.2.4-.5 1-.9.5-.3 1.3-.3 1.2 0 1.9.8.7.7.7 2.3v8.4h-1.9v-8.5q0-1.4-1.3-1.4l-.6.1-.4.3-.2.4-.1.4v8.7h-1.9v-8.5q0-.6-.3-1t-1-.4q-.5 0-.9.3-.3.2-.5.6v9h-1.8v-11.3zm16.8 11.6q-1.2 0-2.2-.4-1-.4-1.7-1.1-.7-.8-1-1.8-.5-1-.5-2.2v-.5q0-1.4.4-2.4.5-1.1 1.2-1.9.7-.7 1.7-1 .9-.5 1.9-.5 1.2 0 2 .4 1 .4 1.6 1.2.6.7.9 1.8.3 1 .3 2.1v1h-8l.2 1.4q.3.6.8 1.1.4.5 1 .8.7.3 1.5.3 1 0 1.8-.4t1.4-1.1l1.1 1-.7.7-1 .7-1.2.5q-.7.2-1.5.2zm-.2-10.1q-.6 0-1.1.2-.6.2-1 .6l-.7 1q-.3.6-.4 1.4h6v-.1q0-.6-.2-1.1-.1-.6-.5-1-.3-.5-.9-.7-.5-.3-1.2-.3z" fill="#000"/><path d="m340.2 87.6h-9.3v-1.7h9.3zm0 4.3h-9.3v-1.7h9.3z" fill="#e67c73"/><path d="m366 90.2q0 1.2-.3 2.2-.3 1-.8 1.9-.6.7-1.4 1.2-.9.4-2 .4-1 0-1.8-.3-.7-.4-1.3-1v5.4h-2v-15.6h1.8l.1 1.2q.6-.6 1.4-1 .8-.4 1.8-.4 1.1 0 2 .4.8.5 1.4 1.2.5.8.8 1.8.3 1.1.3 2.4zm-2-.2-.1-1.6q-.2-.8-.6-1.3-.3-.6-1-1-.5-.3-1.3-.3-1 0-1.6.5-.6.4-1 1v5.5q.4.7 1 1 .6.5 1.6.5.8 0 1.4-.3.6-.4 1-1 .3-.5.5-1.3.2-.7.2-1.5zm10.3 5.9q-1.2 0-2.2-.4-1-.4-1.7-1.1-.7-.8-1.1-1.8-.4-1-.4-2.1v-.5q0-1.4.4-2.4.5-1.1 1.2-1.8.7-.8 1.6-1.2 1-.4 2-.4 1.2 0 2 .4 1 .5 1.6 1.2.6.8.9 1.8.3 1 .3 2.1v1h-8l.2 1.4q.3.6.8 1.1.4.5 1 .8.7.3 1.5.3 1 0 1.8-.4t1.3-1.1l1.2 1-.7.7-1 .7-1.2.5q-.7.2-1.5.2zm-.3-10.1q-.6 0-1 .2-.6.2-1 .6l-.7 1q-.3.6-.4 1.4h6q0-.6-.2-1.1l-.5-1q-.4-.5-1-.7-.4-.3-1.2-.3zm15.5-1.6h1.1l.5.2h.4l-.3 2-1-.2h-1.2q-1.4 0-2.2.5-.8.6-1.3 1.7v7.3h-1.9v-11.3h1.9v1.8q.7-1 1.7-1.4 1-.6 2.2-.6zm8.3 11.5v-9.8h-3.1v-1.5h3v-.8q0-1 .4-1.9.3-.8.9-1.4.6-.5 1.4-.8.8-.3 1.8-.3l1.3.1 1.4.3-.3 1.6-1-.2-1.2-.1q-1.3 0-2 .7-.7.6-.7 2v.8h4.4v1.5h-4.4v9.8h-2zm9.4-5.7q0-1.3.3-2.3.4-1 1-1.8.7-.8 1.6-1.2 1-.5 2.2-.5 1.2 0 2.1.5 1 .4 1.6 1.2.7.7 1 1.8.4 1 .4 2.3v.2q0 1.2-.4 2.2-.3 1-1 1.9-.6.7-1.6 1.2-1 .4-2.1.4-1.2 0-2.2-.4-1-.5-1.6-1.2-.6-.8-1-1.9-.3-1-.3-2.2zm1.9.2.2 1.6q.2.7.6 1.3.4.6 1 1 .6.2 1.4.2.8 0 1.4-.3.6-.3 1-.9.4-.6.6-1.3l.2-1.6v-.2q0-.9-.2-1.6-.2-.8-.6-1.3-.4-.6-1-1-.6-.3-1.4-.3-.8 0-1.4.3-.6.4-1 1-.4.5-.6 1.3-.2.7-.2 1.6zm18.8-6h1.1l.5.2h.4l-.3 2-1-.2h-1.1q-1.4 0-2.2.5-.8.6-1.2 1.7v7.3h-2v-11.3h1.9v1.8q.7-1 1.7-1.4 1-.6 2.2-.6zm6.3.2v1q.4-.5 1-.8.5-.4 1.3-.4 1.6 0 2 1.2.4-.5 1-.8.5-.4 1.3-.4 1.2 0 1.9.8.7.7.7 2.3v8.4h-1.9v-8.4q0-1.5-1.3-1.4h-.6l-.4.3-.2.4-.2.4v8.7h-1.8v-8.5q0-.6-.3-1t-1-.4q-.6 0-.9.3-.3.2-.5.6v9h-1.8v-11.3zm19.3 11.3-.2-.6v-.6l-.7.5-.8.5-1 .3h-1q-.9 0-1.6-.2-.7-.2-1.2-.7-.5-.4-.8-1-.3-.6-.3-1.3 0-1 .4-1.7t1-1.1q.7-.5 1.7-.7l2-.2h2.2v-1q0-.5-.2-.9l-.5-.7-.9-.4-1-.1h-1l-.8.5q-.4.2-.5.5l-.2.7h-2q0-.6.4-1.2.3-.6.9-1 .6-.5 1.4-.8.8-.3 1.9-.3 1 0 1.7.2.9.3 1.5.7.6.5.9 1.2.3.7.3 1.7v5.2l.1 1.2.3 1.1v.2zm-3.4-1.5 1-.1 1-.4.6-.6.5-.6v-2.3h-1.8q-1.7 0-2.6.5-1 .5-1 1.6l.2.8.4.6.7.4zm10.5-9.8.2 1.7q.6-.9 1.5-1.4.9-.5 2-.5.9 0 1.6.3.7.2 1.2.8.5.5.8 1.3.3.8.3 2v7h-2v-7l-.1-1.3-.5-.8-.8-.5-1.1-.1q-1 0-1.7.4-.7.5-1.2 1.3v8.1h-2v-11.3zm15.9 10 1-.2.9-.5q.4-.3.6-.7.3-.4.3-.9h1.8q0 .8-.4 1.5t-1 1.2q-.7.5-1.5.8-.8.3-1.7.3-1.3 0-2.2-.5-1-.4-1.6-1.2-.7-.8-1-1.8-.3-1-.3-2.1v-.5q0-1 .3-2 .3-1.1 1-1.9.6-.8 1.6-1.2 1-.5 2.2-.5 1 0 1.8.3.9.3 1.5.9.6.5 1 1.3.3.7.3 1.6h-1.8q0-.5-.3-1l-.6-.8-.8-.5q-.5-.2-1.1-.2-1 0-1.5.4-.6.3-1 .9-.4.6-.5 1.3l-.2 1.4v.5l.2 1.4q.1.8.5 1.3.4.6 1 1 .6.3 1.5.3zm13 1.5q-1.2 0-2.2-.4-1-.4-1.7-1.1-.7-.8-1.1-1.8-.4-1-.4-2.1v-.5q0-1.4.4-2.4.5-1.1 1.2-1.8.7-.8 1.6-1.2 1-.4 2-.4 1.2 0 2 .4 1 .5 1.6 1.2.6.8.9 1.8.3 1 .3 2.1v1h-8l.2 1.4q.3.6.8 1.1.4.5 1 .8.7.3 1.5.3 1 0 1.8-.4t1.4-1.1l1.1 1-.7.7-1 .7-1.2.5q-.7.2-1.5.2zm-.3-10.1q-.6 0-1 .2-.6.2-1 .6l-.7 1q-.3.6-.4 1.4h6q0-.6-.2-1.1-.1-.6-.5-1-.3-.5-.9-.7-.5-.3-1.3-.3z" fill="#000"/><path d="m500.7 94.4v-.4l.3-.5.5-.3.7-.1h.6l.5.4.3.5v1l-.3.5-.5.3h-1.3l-.5-.3q-.2-.2-.2-.5z" fill="#e67c73"/><path d="m511.8 84.4.2 1.7q.6-.9 1.5-1.4.9-.5 2-.5.9 0 1.6.3.7.2 1.2.8.5.5.8 1.3.3.8.3 2v7h-2v-7l-.1-1.3-.5-.8-.8-.5-1.1-.1q-1 0-1.7.4-.8.5-1.2 1.3v8.1h-1.9v-11.3zm10.6 5.6q0-1.3.3-2.3.4-1 1-1.8.7-.8 1.6-1.2 1-.5 2.2-.5 1.2 0 2.1.5 1 .4 1.6 1.2.7.7 1 1.8.4 1 .4 2.3v.2q0 1.2-.4 2.2-.3 1-1 1.9-.6.7-1.6 1.2-1 .4-2.1.4-1.2 0-2.2-.4-1-.5-1.6-1.2-.6-.8-1-1.9-.3-1-.3-2.2zm1.9.2.2 1.6q.2.7.6 1.3.4.6 1 1 .6.2 1.4.2.8 0 1.4-.3.6-.3 1-.9.4-.6.6-1.3l.2-1.6v-.2q0-.9-.2-1.6-.2-.8-.6-1.3-.4-.6-1-1-.6-.3-1.4-.3-.8 0-1.4.3-.6.4-1 1-.4.5-.6 1.3-.2.7-.2 1.6zm13.1 1.4.2 1.6.3-1.6 1.8-7.2h1.3l1.7 7.2.4 1.8.2-1.8 1.3-7.2h1.7l-2.4 11.3h-1.5l-1.8-7-.3-1.7-.3 1.8-1.7 6.9h-1.5l-2.4-11.3h1.7z" fill="#000"/><path d="m550.4 89.5.2-2.8.7-2.4.9-2 1-1.7 1.2-1.2 1.1-.8.4 1.3-1.3 1.3q-.6.8-1.1 2-.5 1.2-.9 2.8-.3 1.6-.3 3.5v.2q0 2 .3 3.5.4 1.6.9 2.8.5 1.2 1.1 2l1.3 1.4-.4 1.2-1.1-.8-1.2-1.2-1-1.7-1-2-.6-2.5q-.2-1.3-.2-2.8zm18 .1q0 1.5-.3 2.8-.2 1.3-.6 2.5l-1 2q-.5 1-1 1.6-.6.8-1.2 1.3l-1 .8-.5-1.2q.7-.5 1.3-1.3.7-.9 1.2-2.1.5-1.2.8-2.8.3-1.6.3-3.6t-.3-3.6q-.4-1.6-1-2.8-.4-1.3-1-2.1l-1.3-1.4.4-1.1q.6.3 1.1.8l1.2 1.2 1 1.7q.6.9 1 2t.6 2.4q.2 1.3.2 2.8zm9-4.2.1-.5.3-.5.5-.3.7-.1h.6l.5.4.3.5v1.1l-.3.5-.5.3h-1.3l-.5-.3-.3-.5v-.6zm2.6 9.8-.1 1-.4 1.1q-.2.6-.6 1l-.7.9-1.2-.7q.5-.7.7-1.5.2-.8.2-1.7v-1.9h2z" fill="#e67c73"/><use fill="#ff9800" fill-rule="evenodd" xlink:href="#m"/><use stroke="#666" stroke-linejoin="round" xlink:href="#m"/><path d="m479.1 262.6-.2-1q-.1-.4-.6-.8l-1-.7-1.8-.6-2.3-.9q-1.1-.5-2-1.2-.9-.7-1.4-1.6-.5-1-.5-2.2 0-1.2.5-2.2.5-1 1.4-1.7 1-.7 2.1-1 1.3-.4 2.7-.4 1.5 0 2.7.4 1.2.4 2.1 1.2 1 .8 1.4 1.9.5 1 .5 2.3h-3.6l-.2-1.2q-.2-.5-.6-.9-.4-.4-1-.6-.6-.2-1.4-.2-.7 0-1.2.2l-1 .5q-.4.3-.6.7l-.2 1q0 .5.3 1 .2.4.7.7.5.4 1.3.7l1.6.5q1.3.4 2.4 1 1 .5 1.9 1.2.8.7 1.2 1.7.4 1 .4 2.1 0 1.3-.5 2.3-.5 1-1.4 1.6-.8.7-2 1-1.3.4-2.7.4-1 0-1.8-.2l-1.7-.5-1.6-.8-1.2-1.2q-.5-.7-.8-1.6-.3-.8-.3-1.9h3.6q0 .9.3 1.5t.8 1q.5.4 1.2.6l1.5.1 1.3-.1 1-.5.5-.7q.2-.4.2-1zm10-7.2q.6-1 1.6-1.6 1-.6 2.3-.6 1 0 2 .3t1.6 1q.7.7 1 1.8.4 1.1.4 2.7v8.5h-3.6v-8.5q0-.8-.2-1.3l-.5-1q-.4-.3-.9-.4l-1-.2q-1 0-1.7.3-.6.4-1 1v10.1h-3.7v-20h3.6zm21.1 12.1-.2-.6-.2-.7-.7.6-.9.5-1 .3-1.2.2q-1 0-2-.3-1-.4-1.6-1-.6-.5-1-1.2-.3-.8-.3-1.7 0-2.3 1.6-3.5 1.7-1.2 5-1.2h2v-.8q0-1-.7-1.6-.6-.6-1.9-.6-1 0-1.6.5-.5.4-.5 1.2h-3.6q0-.9.4-1.7.4-.8 1.1-1.4.8-.6 1.9-1 1.1-.3 2.5-.3 1.3 0 2.4.3 1 .3 1.9 1 .8.5 1.3 1.5.4.9.4 2.1v6q0 1.2.2 2 .1.7.4 1.2v.2zm-3.5-2.5 1-.1 1-.4.5-.5.5-.5v-2.4h-1.9l-1.4.1-1 .5q-.4.3-.5.7-.2.4-.2.9 0 .7.5 1.2t1.5.5zm23.3-4.4q0 1.5-.3 2.8-.4 1.4-1 2.3-.8 1-1.8 1.5-1 .6-2.3.6-1.2 0-2-.4-.9-.4-1.5-1.1v6.6h-3.6v-19.5h3.3l.1 1.4q.7-.8 1.6-1.2.8-.4 2-.4 1.4 0 2.4.5t1.7 1.4q.7 1 1 2.3.5 1.3.5 3v.2zm-3.6-.3-.1-1.6-.5-1.4q-.4-.5-1-.9-.5-.3-1.2-.3-1 0-1.6.4-.6.4-1 1v6q.4.6 1 1t1.6.4q.8 0 1.3-.3.5-.4.9-1l.5-1.3.1-1.7zm13.8 7.5q-1.6 0-3-.6-1.2-.5-2.2-1.4-1-1-1.5-2.2-.5-1.2-.5-2.6v-.6q0-1.6.5-2.9.5-1.3 1.4-2.3 1-1 2.2-1.5 1.3-.5 2.7-.5 1.5 0 2.7.5 1.2.5 2 1.4.9.9 1.3 2.2.5 1.3.5 2.8v1.5h-9.6q.1.8.4 1.3.3.6.8 1 .5.5 1.2.7.6.3 1.4.3l1-.1 1-.3 1-.5.7-.7 1.8 2-1 .9-1.2.8-1.6.5q-1 .3-2 .3zm-.4-11.7q-.6 0-1.1.2l-1 .6-.6 1-.4 1.2h6v-.2q0-.6-.2-1.1-.2-.5-.6-.9-.4-.4-1-.6-.4-.2-1.1-.2zm-91.4 25.9.1-1.6.3-1.3.5-1.2.7-.9.6-.6.7-.5.3 1-.6.6q-.4.4-.6 1l-.5 1.6-.1 1.9v.1l.1 2 .5 1.4q.2.6.6 1l.6.7-.3 1-.7-.5-.6-.7-.7-.9-.5-1-.3-1.4-.1-1.6zm10 3.4-.2-.2v-.4l-.3.3-.4.2-.5.2h-1.5l-.7-.5q-.3-.2-.4-.6-.2-.3-.2-.8 0-1 .8-1.5.7-.5 2.2-.5h.9v-.4q0-.5-.3-.7-.3-.3-.9-.3-.5 0-.7.2-.2.2-.2.6h-1.6l.1-.8.6-.6.8-.5 1.1-.1 1 .1 1 .4.5.7q.2.4.2 1v3.6l.3.5v.1zm-1.6-1.1h.4l.4-.2.3-.2.2-.3v-1h-1.5l-.4.2-.3.3v.4q0 .4.2.6.2.2.7.2zm7.6 0 .5-.1.3-.2.3-.3v-.4h1.6q0 .5-.2.9t-.6.7l-.9.5q-.4.2-1 .2-.7 0-1.3-.3-.5-.2-.9-.7-.4-.4-.6-1l-.2-1.2v-.2q0-.7.2-1.3.2-.6.6-1l1-.7q.5-.2 1.2-.2l1 .1 1 .5.5.8.2 1h-1.5l-.1-.4-.2-.4-.4-.2-.5-.1-.7.1-.4.5-.2.6v1.5l.2.6.4.4.7.1zm7.4-6.8v1.6h2.3v1.2h-2.3v3.3l.3.4.3.2h1.3l.3-.1h.3l.1 1-.4.2-.5.1-.5.1h-.6l-.9-.1q-.4-.1-.7-.4l-.5-.8-.1-1v-3h-1.5v-1.1h1.5v-1.6zm8.2 7q-.3.5-.7.8-.5.3-1 .3l-1-.2-.7-.5-.4-.8q-.2-.5-.2-1.3v-3.7h1.7v4.4q0 .3.2.4l.3.3h.5q.5 0 .8-.2.3-.1.5-.5v-4.4h1.6v6.3h-1.5zm7.1 1v-.3l-.1-.4-.3.3-.4.2-.5.2h-1.4l-.7-.5q-.3-.2-.5-.6-.2-.3-.2-.7 0-1 .8-1.6.7-.5 2.2-.5h1v-.4q0-.5-.4-.7-.3-.3-.8-.3t-.8.2q-.2.2-.2.6h-1.6l.1-.8.6-.6.8-.5 1.1-.1 1.1.1.9.4.5.7.2 1v2.7l.1.9q0 .3.2.5v.1zm-1.5-1.2h.5l.3-.2.3-.2.2-.3v-1h-1.5l-.4.2-.3.3v.4q0 .4.2.6.2.2.7.2zm5.1-7.9h3.6v7.7h1.8v1.3h-5.4v-1.3h2v-6.3h-2zm11.3 6.8-.1-.4q0-.2-.3-.4l-.5-.3-.7-.3-1.1-.3-1-.6-.5-.7-.2-1q0-.6.2-1l.6-.8q.4-.3 1-.4.5-.2 1.2-.2l1.2.2 1 .5.5.9q.3.4.3 1h-1.6l-.1-.5-.3-.4-.4-.3-.7-.1-.6.1-.4.2-.2.4-.1.4v.4l.4.4.6.2.7.3 1 .4 1 .6.5.8q.2.4.2 1l-.2 1q-.3.4-.7.6l-1 .5q-.5.2-1.1.2l-.8-.1-.8-.2-.7-.4-.5-.5-.4-.7-.1-1h1.6l.1.8.4.4.5.3h1.3l.4-.2.3-.4v-.4zm5.8-5.6v1.5h2.4v1.2h-2.4v3.3l.3.4.3.2h1.6l.3-.1.1 1q-.1.2-.4.2l-.5.1-.5.1h-1.5l-.7-.5-.5-.7-.1-1.1v-3h-1.5v-1.1h1.5v-1.6zm8.2 7.9-.1-.3-.1-.3-.3.2-.4.3-.5.1h-1.5l-.6-.5q-.3-.2-.5-.6-.2-.3-.2-.7 0-1 .8-1.6.7-.5 2.2-.5h1v-.4q0-.5-.4-.7-.3-.3-.8-.3t-.8.2q-.2.2-.2.6h-1.6l.1-.8.6-.6q.3-.3.8-.4.5-.2 1.1-.2l1.1.1.9.5q.3.2.5.6l.2 1v2.7l.1.9.2.6zm-1.6-1.2h.5l.4-.2.2-.2q.2-.1.2-.3v-1h-1.4l-.5.2-.2.4-.1.4q0 .3.2.5t.7.2zm9.3-5.3h.7l.5.1-.2 1.7-.7-.1h-.6q-.7 0-1.1.2-.4.3-.6.7v3.9h-1.7v-6.5h1.5v1q.4-.5 1-.8.5-.3 1.2-.3zm5.7-1.4v1.5h2.4v1.2h-2.4v3.3l.3.4.3.2h1.6l.3-.1.1 1q-.1.2-.4.3h-.5l-.5.1h-1.5l-.7-.5-.5-.7-.1-1.1v-3h-1.5v-1.1h1.5v-1.6zm10.4.7h-2.6v7.2h-1.7v-7.2h-2.5v-1.4h6.9v1.4zm1.4.8h3.5v5h1.7v1.4h-5.2v-1.5h1.8v-3.7h-1.8zm1.7-1.6v-.4l.3-.2q.1-.2.3-.2h.4q.4 0 .6.2.3.2.3.6 0 .4-.3.6-.2.2-.6.2h-.4q-.2 0-.3-.2-.2-.1-.2-.3v-.3zm6.1 1.6v.8q.2-.4.6-.7.3-.2.7-.2.8 0 1 .7l.5-.5q.3-.2.7-.2l.6.1q.2 0 .4.3l.3.6v5.4h-1.4v-4.7l-.2-.2h-.1l-.2-.1-.3.1-.1.2v4.8h-1.5v-4.8l-.1-.2h-.2l-.1-.1-.3.1-.2.3v4.7h-1.5v-6.3zm9.3 6.5q-.8 0-1.4-.3-.6-.2-1-.6-.4-.4-.6-1-.3-.6-.3-1.2v-.2q0-.8.3-1.3.2-.6.6-1.1l1-.7q.5-.2 1.2-.2t1.2.2l1 .7.5 1q.2.5.2 1.2v.7h-4.3l.2.6.3.5.6.3h1.1l.4-.1.4-.3q.2 0 .4-.3l.8 1-.4.3-.6.4-.7.3h-1zm-.2-5.3-.5.1-.4.3-.3.4-.2.6h2.7v-.1l-.1-.5-.3-.4q-.1-.2-.4-.3h-.5zm8.6 1.8v1.5l-.5 1.4-.5 1.1-.6 1-.7.6q-.3.3-.7.4l-.3-.9q.4-.2.7-.6l.6-1 .4-1.6q.2-.8.2-1.9v-.1q0-1.1-.2-2l-.4-1.4q-.3-.7-.6-1-.3-.5-.7-.8l.3-.8q.4.1.7.4l.7.7q.4.4.6.9l.6 1.1.3 1.4.1 1.5zm-114.1 14.3 1.4 2.3h-1l-1.7-2.3 1.6-2.4h1zm2 0 1.4 2.3h-1l-1.7-2.3 1.6-2.4h1zm4.9-3.3v.9q.4-.5.9-.7.5-.3 1-.3l1 .1.6.5.5.8.1 1.1v4h-1.6v-4.5l-.3-.4-.4-.2h-1.3l-.5.5v4.5h-1.5v-6.3zm5.5 3.1q0-.7.2-1.3l.5-1 1-.7q.5-.2 1.3-.2.7 0 1.2.2l1 .7q.4.4.6 1 .2.6.2 1.3v.1q0 .7-.2 1.3-.2.6-.6 1-.4.5-1 .7-.5.3-1.2.3t-1.3-.3q-.6-.2-1-.7l-.5-1q-.2-.6-.2-1.3zm1.6.1v.8l.3.6.4.4.7.1.6-.1.4-.4.2-.6.1-.8v-.8l-.3-.6-.4-.4q-.3-.2-.7-.2l-.6.2-.4.4q-.2.2-.2.6l-.1.7zm7.3-3.2v.9q.4-.5.9-.7.5-.3 1-.3l1 .1.6.5.5.8.1 1.1v4h-1.6v-4.5l-.3-.4-.4-.2-.5-.1q-.4 0-.7.2-.3.1-.5.4v4.5h-1.6v-6.3h1.4zm11.4 3.2h-4.9v-1.3h4.9zm4.6 3.3q-.8 0-1.4-.3-.6-.2-1-.6-.4-.4-.6-1-.3-.6-.3-1.2v-.2q0-.8.2-1.4l.7-1 1-.7q.5-.2 1.2-.2t1.2.2q.6.2 1 .6l.5 1q.2.6.2 1.3v.7h-4.3l.2.6.3.4.5.3.7.1h.5l.4-.1.4-.3.3-.3.9 1-.5.3-.5.4-.7.3h-1zm-.2-5.3h-.5l-.4.4-.3.4-.2.6h2.7v-.1l-.1-.5q0-.3-.3-.4-.1-.2-.4-.3zm7.2.8 1.4-2h1.8l-2.2 3.1 2.2 3.2h-1.7l-1.5-2-1.4 2h-1.8l2.2-3.2-2.1-3.1h1.7zm7.3-3.5v1.5h2.4v1.2h-2.4v3.3l.3.4.3.2h1.6l.3-.1.1 1q-.1.2-.4.2l-.5.1-.5.1h-1.5l-.7-.5-.5-.7-.1-1.1v-3h-1.6v-1.1h1.5v-1.6h1.6zm7.3 8q-.8 0-1.4-.3-.6-.2-1-.6-.4-.4-.6-1-.3-.6-.3-1.2v-.2q0-.8.2-1.4l.7-1 1-.7q.5-.2 1.2-.2t1.2.2q.6.2 1 .6l.5 1q.2.6.2 1.3v.7h-4.3l.2.6.3.4.5.3.7.1h.5l.4-.1.4-.3.3-.3.9 1-.4.3-.6.4-.7.3h-1zm-.2-5.3h-.5l-.4.4-.3.4-.2.6h2.7v-.1l-.1-.5q0-.3-.3-.4-.1-.2-.4-.3zm5.8-1.2v.9q.4-.5.9-.7.5-.3 1-.3l1 .1.6.5.5.8.1 1.1v4h-1.6v-4.5l-.3-.4-.4-.2-.5-.1q-.4 0-.7.2-.3.1-.5.4v4.5h-1.6v-6.3zm9.8 4.6v-.3l-.3-.2-.5-.1-.7-.2-1-.3-.8-.4-.5-.5-.2-.8q0-.4.2-.7.2-.4.5-.6l.9-.5 1.1-.1 1.2.1.9.5q.4.2.6.6l.1.8h-1.6q0-.4-.3-.6-.3-.3-.9-.3-.5 0-.8.3-.3.2-.3.5v.2l.2.2.4.2.7.1 1 .3q.6.1 1 .4l.5.5.2.8-.2.8-.6.6-1 .4-1 .1-1.3-.1-1-.5-.5-.7-.2-.8h1.5q0 .3.2.5l.3.3.5.1h.5l.9-.1q.3-.2.3-.5zm3.5-4.6h3.5v5h1.7v1.3h-5.2v-1.3h1.8v-3.7h-1.8zm1.7-1.6v-.4l.3-.2q.1-.2.3-.2h.4q.4 0 .6.2.3.2.3.6 0 .4-.3.6-.2.2-.6.2h-.4q-.2 0-.3-.2l-.2-.3v-.3zm10.8 4.8-.1 1.3-.5 1q-.3.5-.8.7-.4.3-1 .3t-1-.2l-.7-.6-.1.6h-1.5v-9h1.7v3.3q.2-.4.6-.5.4-.2 1-.2l1 .2q.5.3.8.7l.5 1 .1 1.3zm-1.6 0v-.8l-.3-.6q-.1-.3-.4-.4-.2-.2-.6-.2-.4 0-.7.2-.3.2-.4.5v2.5q.1.4.4.6l.7.1h.6q.3-.2.4-.5.2-.2.2-.6v-.7zm3.4-5.9h3.6v7.7h1.8v1.3h-5.4v-1.3h2v-6.3h-2zm10 9.2q-.7 0-1.4-.3-.6-.2-1-.6-.4-.4-.6-1-.3-.6-.3-1.2v-.2q0-.8.3-1.4.2-.6.6-1l1-.7q.5-.2 1.2-.2t1.2.2q.6.2 1 .6l.5 1q.2.6.2 1.3v.7h-4.4l.2.6.3.4.6.3.6.1h.5l.4-.1.4-.3.4-.3.8 1-.4.3-.6.4-.7.3h-1zm-.2-5.3h-.5l-.4.4-.3.4-.2.6h2.7v-.1l-.1-.5q0-.3-.3-.4-.1-.2-.4-.3zm5.8-.3 1.6 2.3v.1l-1.6 2.3h-1l1.3-2.3-1.4-2.4h1zm2 0 1.6 2.3v.1l-1.6 2.3h-1l1.3-2.3-1.4-2.4h1z" fill="#fff"/><use fill="#bdbdbd" fill-rule="evenodd" xlink:href="#n"/><use stroke="#666" stroke-linejoin="round" xlink:href="#n"/><path d="m450.1 318.3v1.5h-.6v-1.9h.6zm5.7 5.6v-.5l-.3.3-.3.1-.4.1h-1l-.5-.3-.2-.4-.1-.5.1-.6q.1-.3.4-.4l.6-.3h1.6v-.7l-.3-.3-.3-.2h-.8q-.2 0-.3.2l-.2.2v.2h-.8l.1-.4.4-.4.5-.3.7-.1h.7l.5.3.4.5v2.6l.1.4.1.4v.1zm-1.3-.5h.4l.4-.2.2-.3.2-.2v-.8h-.7l-1 .1q-.3.2-.3.6v.3l.2.3.3.1h.3zm5.1 0h.4l.3-.2.3-.3v-.3h.8q0 .3-.2.5-.1.3-.4.5l-.5.3h-.7l-.8-.1q-.4-.2-.6-.5l-.4-.6v-1.8q.1-.4.4-.7.2-.3.6-.5l.8-.1.7.1.5.3q.3.2.4.5l.1.6h-.6l-.1-.3-.2-.3-.4-.2-.4-.1-.6.1-.3.4q-.2.2-.2.5v1.2q0 .3.2.5l.3.4h.6zm4.7-4.7v1h1.6v.5h-1.6v2.3l.1.4q0 .2.2.3l.2.1h1.2l.1.4-.2.2h-1.5l-.4-.2-.3-.5v-3h-1.2v-.5h1.1v-1zm5.9 4.6q-.2.3-.6.5-.3.2-.7.2l-.6-.1-.4-.3-.3-.6-.1-.8v-2.5h.7v3.1q0 .2.2.3.1.2.3.2h.3l.7-.1.5-.5v-3h.7v4.2h-.7zm4.8.6v-.5l-.3.3-.3.1-.4.1h-1l-.4-.3-.3-.4-.1-.5.1-.6q.1-.3.4-.4l.6-.3h1.6v-.7l-.3-.3-.3-.2h-.8q-.2 0-.3.2l-.2.2v.2h-.8l.1-.4.4-.4.5-.3.7-.1h.7l.5.3.4.5v2.6l.1.4.1.4v.1zm-1.3-.5h.4l.4-.2.2-.3.2-.2v-.8h-.7l-1 .1q-.3.2-.3.6v.3l.2.3.3.1h.4zm3.4-5.5h2.2v5.4h1.4v.6h-3.7v-.6h1.5v-4.8h-1.5zm7.7 4.6-.1-.5-.3-.3-.4-.2-.5-.1-.6-.3-.6-.3-.4-.5-.1-.6.1-.7.5-.5.6-.3h1.3l.6.4q.3.2.5.6l.1.7h-.7l-.1-.5-.3-.3-.3-.3h-.9q-.2 0-.3.2l-.3.3v.8l.3.3.4.2.4.1q.3 0 .5.2l.4.2.4.2.3.3.2.4v.5l-.1.6-.5.5-.6.3-.7.1-.7-.1-.7-.3-.4-.6q-.2-.3-.2-.7h.7q0 .3.2.5 0 .2.3.3l.4.2.5.1h.4l.3-.2.3-.3zm3.5-3.8v1h1.6v.5h-1.6v2.3l.1.4q0 .2.2.3l.2.1h1.2l.1.4-.2.2h-1.5l-.4-.2-.3-.5v-3h-1.2v-.5h1.1v-1zm5.9 5.2v-.5l-.3.3-.3.1-.4.1h-1l-.5-.3-.3-.4v-.5l.1-.6q.1-.3.4-.4l.6-.3h1.6v-.7l-.3-.3-.3-.2h-.8q-.2 0-.3.2l-.2.2v.2h-.8l.1-.4.4-.4.5-.3.7-.1h.7l.5.3.4.5v2.6l.1.4.1.4v.1zm-1.3-.5h.4l.4-.2.2-.3.2-.2v-.8h-.7l-1 .1q-.3.2-.3.6v.3l.2.3.3.1h.3zm6.1-3.8h.6l.1.1v.7h-.9l-.8.1q-.3.3-.4.7v2.7h-.8v-4.2h.7v.6l.7-.5q.3-.2.8-.2zm3.7-1v1h1.7v.6h-1.6v2.8q0 .2.2.3l.2.1h1.2l.1.4-.2.2h-1.5l-.4-.2-.3-.5v-3h-1.2v-.5h1.1v-1zm7 .2h-1.8v5.1h-.7v-5h-1.8v-.7h4.3zm1 .9h2.2v3.6h1.4v.6h-3.6v-.6h1.5v-3h-1.5zm1.4-1.1v-.3l.4-.2q.2 0 .3.2l.1.3v.3h-.7zm3.7 1v.5l.3-.4.5-.1q.6 0 .8.4l.3-.3.5-.1q.5 0 .8.3.2.3.2.8v3.2h-.7v-3.2q0-.5-.5-.5h-.2l-.2.1v.2l-.1.2v3.2h-.7v-3.2l-.1-.4q-.1-.1-.4 0h-.3l-.2.2v3.4h-.7v-4.2zm6.3 4.4-.8-.2q-.4-.1-.7-.4l-.4-.7-.1-.8v-.1l.1-1q.2-.4.5-.6l.6-.5.7-.1q.5 0 .8.2l.6.4.3.7.1.8v.3h-3v.5l.4.5q.1.2.4.3h1.2l.5-.5.5.4-.3.3-.4.2-.5.2h-.5zm0-3.8h-.5l-.4.3-.2.4-.2.5h2.3v-.5l-.3-.3-.3-.3-.5-.1zm4.8-1.9v1.5h-.6v-1.9h.6zm4.2 5.1v-.2l.1-.2h.2l.2-.1h.3l.2.1v.2l.1.2v.3l-.1.1-.2.1h-.7v-.2zm0-3v-.2l.1-.2h.2l.2-.1h.3l.2.1v.2l.1.2v.3l-.1.1-.2.1h-.7v-.2zm8.3 3.5v-5.7h1.3q.6 0 1 .2l.8.5.5.9.2 1v.5q0 .6-.2 1l-.5.9-.8.5q-.4.2-1 .2zm.7-5v4.4h.6l.8-.1.5-.5.4-.6v-2.1l-.4-.6q-.2-.3-.5-.4-.3-.2-.8-.2zm4 2.8v-.8l.4-.7.6-.4.8-.2q.5 0 .8.2.4.1.6.4.3.3.4.7l.2.8v.1q0 .5-.2.9-.1.4-.4.7-.2.3-.6.4-.3.2-.8.2l-.8-.2-.6-.4-.3-.7q-.2-.4-.2-.9zm.7.1v.6l.3.5.3.4h1.1l.4-.4.2-.5v-1.2q0-.3-.2-.5l-.4-.4-.6-.1-.5.1q-.2.1-.3.4l-.3.5zm7 1.5q-.2.3-.6.5-.3.2-.7.2l-.6-.1-.4-.3-.3-.6-.1-.8v-2.5h.7v3.1l.2.3q.1.2.3.2h.3l.8-.1.4-.5v-3h.7v4.2h-.7zm5.6-1.5v.9l-.4.7-.5.4q-.3.2-.7.2-.4 0-.7-.2-.3-.1-.5-.4v.5h-.7v-6h.7v2.2l.5-.4.7-.1q.4 0 .7.2.3.1.5.4l.3.7.1.8zm-.7 0v-.6l-.3-.5q0-.2-.3-.4h-.9l-.3.1-.2.2-.1.3v1.8l.1.3.3.2.2.1h.9l.3-.4q.2-.2.2-.5zm2-3.9h2.2v5.4h1.4v.6h-3.5v-.6h1.4v-4.8h-1.4zm6.6 6h-.8q-.4-.2-.6-.5l-.5-.7-.1-.8v-.1l.1-1q.2-.4.5-.6l.6-.5.7-.1q.5 0 .8.2l.6.4.3.7.1.8v.3h-3l.1.5.3.5q.1.2.4.3h1.2l.5-.5.5.4-.3.3-.4.2-.5.2zm0-3.7h-.5l-.4.3-.2.4-.2.5h2.3v-.5l-.3-.3-.3-.3-.5-.1z" fill="#000"/><use fill="#674ea7" fill-rule="evenodd" xlink:href="#o"/><use stroke="#351c75" stroke-linejoin="round" xlink:href="#o"/><path d="m48.8 285.7 1.1 4.2 1.2-4.2h2.9v11.3h-2v-8.7l-1.4 5h-1.1l-1.4-4.8.1 5.2v3.3h-2v-11.3zm12.4 10.1q-.4.7-1 1-.6.4-1.4.4l-1.2-.2q-.5-.2-.9-.7-.4-.4-.6-1-.2-.8-.2-1.7v-5h2.1v5l.1.9.3.5q.1.2.4.3l.6.1q.7 0 1.1-.2.4-.3.6-.7v-6h2.2v8.5h-2v-1.2zm8.2-9.3v2h3.2v1.7h-3.2v3.6l.1.8.3.5.5.2.6.1h1l.5-.1.3-.1.2 1.5-.5.2-.7.2h-.7l-.7.1q-.7 0-1.3-.2l-1-.6-.5-1q-.3-.5-.3-1.4v-3.8h-2v-1.6h2v-2.1zm10.9 10.5-.1-.3-.1-.5-.4.4-.6.3-.6.2h-.7l-1.2-.1-1-.5-.6-.8-.2-1q0-1.4 1-2.1 1-.7 3-.7h1.2v-.5q0-.6-.4-1t-1.1-.4q-.7 0-1 .3-.3.3-.3.8h-2.2q0-.6.2-1l.7-.9q.5-.4 1.2-.6.6-.2 1.5-.2l1.4.2q.7.2 1.1.6.5.3.8.9.3.5.3 1.3v4.7l.3.8v.1zm-2-1.5h.5l.5-.3.4-.3.3-.3v-1.4h-2l-.6.3-.3.4v.6q0 .4.2.7.3.3 1 .3zm14-2.6q0 1-.3 1.7-.2.8-.6 1.4-.4.6-1 .9-.6.3-1.5.3-.7 0-1.2-.3-.6-.3-1-.8v1h-2v-12h2.1v4.3q.4-.5 1-.7.4-.3 1.1-.3.8 0 1.5.4.6.3 1 .9.4.5.6 1.3.2.8.2 1.7zm-2.2-.2-.1-1-.3-.8-.5-.5q-.3-.2-.8-.2-.6 0-1 .2-.4.3-.6.7v3.4q.2.4.6.7.4.2 1 .2.5 0 .8-.2.3-.1.5-.5l.3-.8v-1zm4.6-7.7h4.7v10.3h2.4v1.7h-7.1v-1.7h2.5v-8.5h-2.5zm13.2 12.2q-1 0-1.7-.3-.8-.3-1.4-.9-.6-.6-.9-1.3-.3-.7-.3-1.6v-.3q0-1 .3-1.8t.8-1.3q.6-.6 1.3-1 .8-.3 1.7-.3.9 0 1.6.3.7.3 1.2.9.5.5.8 1.3.2.8.2 1.7v1h-5.7l.2.7.5.6q.3.3.7.4.4.2.9.2l.6-.1.6-.2.5-.3.5-.4 1 1.2-.5.5-.8.5-1 .4-1 .1zm-.2-7-.7.1q-.3.1-.5.4-.3.2-.4.6l-.3.7h3.6v-.2l-.1-.6q-.1-.3-.4-.5-.2-.3-.5-.4zm-68.5 25.8h-2.1v-4.9h-3.3v5h-2.1v-11.4h2.1v4.6h3.3v-4.6h2.1zm6.3.2q-1 0-1.8-.3t-1.3-.9q-.6-.6-1-1.3-.2-.7-.2-1.6v-.3q0-1 .3-1.8t.8-1.3q.6-.6 1.3-1 .8-.3 1.7-.3.9 0 1.6.3.7.3 1.2.9.5.5.8 1.3.2.8.2 1.7v1h-5.7l.2.7.5.6q.3.3.7.4l.8.2.7-.1.6-.2.5-.3.5-.4 1 1.2-.5.5-.8.5-1 .4zm-.2-7-.7.1-.6.4-.3.6-.3.7h3.6v-.2l-.1-.6q-.1-.3-.4-.5-.2-.3-.5-.4zm11 6.8-.1-.3-.1-.5-.4.4-.6.3-.6.2-.7.1q-.7 0-1.2-.2l-1-.5-.6-.8-.2-1q0-1.4 1-2.1 1-.7 3-.7h1.2v-.5q0-.6-.4-1-.4-.3-1.2-.3-.6 0-1 .2-.2.3-.2.8h-2.2l.2-1 .7-.9 1.1-.6q.7-.2 1.6-.2l1.4.2q.6.2 1.1.6.5.3.8.9.3.5.3 1.3v4.7l.3.8v.1zm-2-1.5h.5l.5-.3.4-.3.3-.3v-1.4h-2l-.6.3-.3.5-.1.5q0 .4.3.7.3.3 1 .3zm14-2.6q0 1-.3 1.7-.2.8-.6 1.4l-1 .9q-.7.3-1.5.3-.7 0-1.2-.2l-.9-.7v4h-2.1v-11.7h2v.8q.4-.5 1-.7.5-.3 1.2-.3.8 0 1.4.3.6.3 1 1 .5.5.7 1.3.2.8.2 1.7v.2zm-2.3-.2v-1l-.4-.8-.5-.5q-.3-.2-.8-.2-.6 0-1 .2-.3.2-.5.6v3.6q.2.4.6.6.3.2 1 .2.4 0 .7-.2l.5-.5q.3-.4.3-.8l.1-1zm11.6 4.3h-2.1l-3.2-7.3v7.3h-2.3v-11.3h2.2l3.1 7.3v-7.3h2.2zm7.6-1.1q-.4.6-1 1-.6.3-1.3.3-.7 0-1.3-.2-.5-.2-.9-.6-.4-.5-.6-1.2-.2-.7-.2-1.6v-5h2.1v5.9l.3.5q.1.2.4.3l.7.1q.6 0 1-.2.4-.3.6-.7v-6h2.2v8.5h-2zm5.6-7.3v1l.7-.9q.4-.3 1-.3 1 0 1.4 1 .2-.5.6-.7.4-.3 1-.3l.7.2q.3.1.5.4.3.3.4.8.2.5.2 1.2v6h-2v-6.4l-.2-.2-.2-.2h-.2l-.4.1-.3.3v6.4h-1.9v-6.4q0-.2-.2-.2l-.1-.2h-.3l-.4.1-.2.4v6.3h-2v-8.4zm15.8 4.3q0 1-.2 1.7-.2.8-.6 1.4-.4.6-1 .9-.6.3-1.5.3-.7 0-1.2-.3-.6-.3-1-.8v1h-2v-12h2.1v4.3q.4-.5 1-.7.4-.3 1.1-.3.8 0 1.5.4.6.3 1 .9.4.5.6 1.3.2.8.2 1.8zm-2.1-.2-.1-1-.3-.8-.5-.5q-.3-.2-.8-.2-.6 0-1 .2-.4.3-.6.7v3.4q.2.4.6.7.4.2 1 .2.5 0 .8-.2.3-.1.5-.5l.3-.8v-1zm8.2 4.5q-1 0-1.7-.3-.8-.3-1.4-.9-.6-.6-.9-1.3-.3-.7-.3-1.6v-.3q0-1 .3-1.8t.8-1.3q.6-.6 1.3-1 .8-.3 1.7-.3.9 0 1.6.3.7.3 1.2.9.5.5.8 1.3.2.8.2 1.7v1h-5.7l.2.7q.2.4.5.6.3.3.7.4.4.2.9.2l.6-.1.6-.2.5-.3.5-.4 1 1.2-.5.5-.7.5-1 .4zm-.2-7-.7.1-.6.4-.3.6-.3.7h3.6v-.2l-.1-.6q-.1-.3-.4-.5-.2-.3-.5-.4zm11.8-1.8h.9l.7.2-.3 2.2-1-.1-.8-.1q-.9 0-1.4.4-.6.3-.9 1v5h-2.1v-8.4h2v1.4q.6-.8 1.3-1.2.7-.4 1.6-.4z" fill="#fff"/><use fill="#bdbdbd" fill-rule="evenodd" xlink:href="#p"/><use stroke="#666" stroke-linejoin="round" xlink:href="#p"/><path d="m43.8 350.6h-7.5v-1l3.7-4.2.9-1 .5-.8.3-.7v-1.4l-.5-.7q-.2-.3-.6-.4l-.8-.2q-.6 0-1 .2l-.7.5q-.3.3-.4.7-.2.4-.2 1h-1.4q0-.8.2-1.4l.7-1.1q.5-.5 1.2-.8.7-.2 1.6-.2.8 0 1.4.2.7.2 1 .6l.8 1q.2.6.2 1.3l-.2 1-.4 1-.7 1-.8.9-3 3.3h5.6zm7.3 0h-1.5v-9.6l-3 1.2v-1.3l4.4-1.7zm6.4-1.3 1.4-.1 1-.4.7-.6.5-.8.3-.8v-1l-.3.5-.6.3-.7.3h-.8q-.8 0-1.4-.3-.6-.3-1-.8l-.6-1.2-.2-1.4q0-.8.2-1.5.2-.8.7-1.3.4-.5 1-.8.7-.4 1.6-.4.7 0 1.2.2l.9.5.7.8.5 1 .2 1 .1 1.1v2l-.3 1.5-.6 1.4q-.4.6-1 1-.6.5-1.4.8-.9.3-2 .3h-.2v-1.3zm1.8-3.7.7-.1.6-.4.5-.5q.3-.3.4-.7v-.4q0-.8-.2-1.4l-.4-1q-.3-.4-.8-.6-.4-.3-.8-.3-.5 0-.9.3-.4.2-.6.5-.3.4-.4.9-.2.4-.2 1l.1 1 .4.8q.3.4.7.6.3.3.9.3zm7.8 3.7 1.4-.1 1-.4.7-.6.5-.8.3-.8v-1q0 .3-.3.5l-.6.3-.7.3h-.8q-.8 0-1.4-.3-.6-.3-1-.8l-.6-1.2-.2-1.4q0-.8.2-1.5.2-.8.7-1.3.4-.5 1-.8.7-.4 1.6-.4.7 0 1.2.2l1 .5.6.8.5 1 .3 1v3.1q0 .8-.3 1.5l-.6 1.4q-.4.6-1 1-.6.5-1.4.8-.9.3-2 .3h-.2v-1.3zm1.8-3.7.7-.1.6-.4.5-.5q.3-.3.4-.7v-.4q0-.8-.2-1.4l-.4-1q-.3-.4-.8-.6-.4-.3-.8-.3-.5 0-.9.3-.4.2-.6.5-.3.4-.4.9-.2.4-.2 1l.1 1 .4.8q.3.4.7.6.4.3.9.3zm11.6-6.4v1.3h-.1l-1.3.1-1 .4-.7.6-.5.8-.4 1-.1.9.5-.5.5-.3.7-.3h.8q.8 0 1.4.2.6.4 1 .9t.6 1.2l.2 1.4q0 .8-.2 1.5t-.7 1.2q-.4.5-1 .8-.7.3-1.6.3l-1.1-.1-1-.5q-.4-.3-.7-.8l-.5-.9-.3-1v-3.3q.1-.8.4-1.5.2-.7.6-1.3.4-.7 1-1.1.6-.5 1.4-.7.9-.3 2-.3zm-1.9 5.1-.7.1-.6.4-.6.5-.3.6v.5l.1 1.3.5 1q.3.4.7.6.4.2.9.2t.9-.2q.4-.2.6-.5l.4-.8.2-1-.1-1-.4-.9q-.3-.4-.7-.6-.4-.2-.9-.2zm13.4-4.3-4.7 10.6h-1.5l4.6-10.1h-6.1v-1.3h7.7zm4.9 9.6v-.4l.3-.4.3-.2h1l.4.2.2.4v.9q0 .2-.2.3l-.4.2-.5.1h-.5l-.3-.3q-.2-.1-.2-.3zm13-2.9h1.5v1.2h-1.6v2.7h-1.4v-2.7h-5.2v-.8l5.1-8h1.5v7.6zm-5.1 0h3.6v-5.6l-.2.4zm9.3-1.8.6-5.7h5.8v1.4h-4.6l-.3 3 .8-.3 1-.2q.9 0 1.5.3t1 .8q.5.5.7 1.2.3.7.3 1.5t-.3 1.5q-.2.7-.6 1.2-.5.5-1.1.8-.7.3-1.6.3-.7 0-1.3-.2-.6-.2-1.1-.6-.5-.4-.8-1-.3-.5-.4-1.3h1.4q.1 1 .7 1.4.6.5 1.5.5l.9-.1q.4-.2.7-.6l.4-.8.1-1-.1-1-.5-.8q-.3-.4-.7-.6-.4-.2-1-.2h-.6l-.5.2-.4.3-.3.3z" fill="#000"/><g stroke="#666" stroke-width="4"><path d="m243.4 338.5-84.1 4.8" stroke-linecap="butt" stroke-linejoin="round"/><g fill="#666"><path d="m256.6 337.7a6.6 6.6 0 1 1 -13.2.8 6.6 6.6 0 0 1 13.2-.8z"/><path d="m159 336.7-17.8 7.7 18.5 5.5z" fill-rule="evenodd"/></g></g><use fill="#674ea7" fill-rule="evenodd" xlink:href="#q"/><use stroke="#351c75" stroke-linejoin="round" xlink:href="#q"/><path d="m48.8 449.8 1.2 4.2 1.2-4.2h2.8v11.2h-2v-8.6l-1.4 4.9h-1.1l-1.4-4.7.1 5v3.4h-2v-11.3zm12.4 10.2q-.4.6-1 1-.6.3-1.4.3l-1.2-.2q-.5-.2-.9-.6-.4-.5-.6-1.2-.2-.7-.2-1.6v-5h2.1v5l.1.9.3.5q.1.2.4.3l.6.1q.7 0 1.1-.2.4-.3.6-.7v-6h2.2v8.5h-2v-1.1zm8.2-9.4v2h3.2v1.7h-3.2v3.6l.1.8.3.5q.2.2.5.2l.6.1h1l.5-.1.3-.1.2 1.5-.5.2-.7.2h-.7l-.7.1q-.7 0-1.3-.2l-1-.6-.5-1q-.3-.5-.3-1.4v-3.8h-2v-1.6h2v-2zm10.9 10.5-.1-.3-.1-.5-.4.4-.6.3-.6.2h-1.9l-1-.6-.6-.8-.2-1q0-1.4 1-2.1 1-.7 3-.7h1.2v-.5q0-.6-.4-1-.4-.3-1.1-.3-.7 0-1 .2-.3.3-.3.8h-2.2l.2-1 .7-.9q.5-.4 1.2-.6.6-.2 1.5-.2l1.4.2q.7.2 1.1.6.5.3.8.9.3.5.3 1.3v4.7l.3.8v.1zm-2-1.5h.5l.5-.3.4-.3.3-.3v-1.4h-2l-.6.3-.3.5v.5q0 .4.2.7.3.3 1 .3zm14-2.6q0 1-.3 1.7-.2.8-.6 1.4-.4.6-1 .9-.6.3-1.5.3-.7 0-1.2-.3-.6-.2-1-.7v.9h-2v-12h2.1v4.3q.4-.5 1-.7.4-.3 1.1-.3.8 0 1.5.4.6.3 1 .9.4.5.6 1.3.2.8.2 1.8v.1zm-2.2-.2-.1-1-.3-.7q-.2-.4-.5-.6-.3-.2-.8-.2-.6 0-1 .3-.4.2-.6.6v3.4q.2.4.6.7.4.2 1 .2l.8-.1q.3-.2.5-.6l.3-.8v-1zm4.6-7.7h4.7v10.3h2.4v1.7h-7.1v-1.7h2.5v-8.5h-2.5zm13.2 12.2q-1 0-1.7-.3-.8-.3-1.4-.9-.6-.5-.9-1.3-.3-.7-.3-1.6v-.3q0-1 .3-1.8t.8-1.3q.6-.6 1.3-1 .8-.2 1.7-.2.9 0 1.6.2.7.3 1.2.9.5.5.8 1.3.2.8.2 1.7v1h-5.7q0 .4.2.7.2.4.5.6.3.3.7.4.4.2.9.2l.6-.1.6-.2q.3 0 .5-.3l.5-.4 1 1.2-.5.5-.8.5q-.4.3-1 .4l-1 .1zm-.2-7-.7.1-.5.4q-.3.2-.4.6l-.3.7h3.6v-.2l-.1-.6q-.1-.3-.4-.5l-.5-.4zm-68.5 25.7h-2.1v-4.9h-3.3v5h-2.1v-11.4h2.1v4.6h3.3v-4.6h2.1zm6.3.2q-1 0-1.8-.3t-1.3-.9q-.6-.5-1-1.3-.2-.7-.2-1.6v-.3q0-1 .3-1.8t.8-1.3q.6-.6 1.3-1 .8-.2 1.7-.2.9 0 1.6.2.7.3 1.2.9.5.5.8 1.3.2.8.2 1.7v1h-5.7q0 .4.2.7.2.4.5.6.3.3.7.4l.8.2h.7l.6-.3q.3 0 .5-.3l.5-.4 1 1.2-.5.5-.8.5q-.4.3-1 .4zm-.2-7-.7.1-.6.4-.3.6-.3.7h3.6v-.2l-.1-.6q-.1-.3-.4-.5l-.5-.4zm11 6.9-.1-.4-.1-.4-.4.3-.6.3-.6.2-.7.1q-.7 0-1.2-.2l-1-.5q-.4-.3-.6-.8l-.2-1q0-1.4 1-2 1-.8 3-.8h1.2v-.5q0-.6-.4-1-.4-.3-1.2-.3-.6 0-1 .2-.2.3-.2.8h-2.2l.2-1 .7-.9 1.1-.5q.7-.3 1.6-.3l1.4.2q.6.2 1.1.6.5.4.8 1 .3.5.3 1.2v4.8l.3.7v.1h-2.2zm-2-1.6h.5l.5-.3q.3 0 .4-.2l.3-.4v-1.4h-2l-.6.3-.3.5-.1.5q0 .4.3.7.3.3 1 .3zm14-2.6q0 1-.3 1.7-.2.8-.6 1.4-.5.6-1 .9-.7.3-1.5.3-.7 0-1.2-.2l-.9-.7v4h-2.1v-11.7h2v.8l1-.7q.5-.3 1.2-.3.8 0 1.4.4.6.3 1 .8.5.6.7 1.4.2.8.2 1.7v.2zm-2.3-.2v-1l-.4-.8-.5-.5q-.3-.2-.8-.2-.6 0-1 .2-.3.2-.5.7v3.5q.2.4.6.6.3.3 1 .3.4 0 .7-.2l.5-.6q.3-.4.3-.8l.1-1zm11.6 4.4h-2.1l-3.2-7.4v7.4h-2.3v-11.4h2.2l3.1 7.3v-7.3h2.2zm7.6-1.2q-.4.6-1 1-.6.3-1.3.3-.7 0-1.3-.2-.5-.2-.9-.6-.4-.5-.6-1.2-.2-.6-.2-1.6v-5h2.1v5.9l.3.5q.1.3.4.3l.7.1q.6 0 1-.2t.6-.7v-5.9h2.2v8.5h-2zm5.6-7.3v1q.3-.5.7-.8.4-.4 1-.4 1 0 1.4 1 .2-.5.6-.7.4-.2 1-.2h.7l.5.5q.3.3.4.8.2.5.2 1.2v6h-2v-6.4l-.2-.2-.2-.2h-.2l-.4.1-.3.3v6.4h-1.9v-6.4q0-.2-.2-.2l-.1-.2h-.3l-.4.1-.2.4v6.3h-2v-8.4zm15.8 4.3q0 1-.2 1.7-.2.8-.6 1.4-.4.6-1 .9-.6.3-1.5.3-.7 0-1.2-.3-.6-.2-1-.7v.9h-2v-12h2.1v4.3q.4-.5 1-.7.4-.2 1.1-.2.8 0 1.5.3.6.3 1 .9.4.5.6 1.3.2.8.2 1.8zm-2.1-.2-.1-1-.3-.7q-.2-.4-.5-.6-.3-.2-.8-.2-.6 0-1 .3-.4.2-.6.6v3.4q.2.4.6.7.4.2 1 .2l.8-.1q.3-.2.5-.6l.3-.8v-1zm8.2 4.5q-1 0-1.7-.3-.8-.3-1.4-.9-.6-.5-.9-1.3-.3-.7-.3-1.6v-.3q0-1 .3-1.8t.8-1.3q.6-.6 1.3-1 .8-.2 1.7-.2.9 0 1.6.2.7.3 1.2.9.5.5.8 1.3.2.8.2 1.7v1h-5.7q0 .4.2.7.2.4.5.6.3.3.7.4.4.2.9.2h.6l.6-.3q.3 0 .5-.3l.5-.4 1 1.2-.5.5-.7.5-1 .4zm-.2-7-.7.1-.6.4-.3.6-.3.7h3.6v-.2l-.1-.6q-.1-.3-.4-.5l-.5-.4zm11.8-1.8.9.1.7.1-.3 2.2-1-.1h-.8q-.9 0-1.4.3-.6.3-.9 1v5h-2.1v-8.4h2v1.4q.6-.7 1.3-1.2.7-.4 1.6-.4z" fill="#fff"/><use fill="#bdbdbd" fill-rule="evenodd" xlink:href="#d"/><use stroke="#666" stroke-linejoin="round" xlink:href="#d"/><path d="m43.8 514.7h-7.5v-1l3.7-4.2.9-1 .5-.8.3-.7v-1.4l-.5-.7-.6-.4-.8-.2q-.6 0-1 .2l-.7.5q-.3.3-.4.7-.2.4-.2 1h-1.4q0-.8.2-1.4l.7-1q.5-.6 1.2-.9.7-.2 1.6-.2.8 0 1.4.2.7.2 1 .7.5.4.8 1 .2.5.2 1.2l-.2 1-.4 1-.7 1-.8.9-3 3.3h5.6zm7.3 0h-1.5v-9.5l-3 1v-1.2l4.4-1.7zm6.4-1.3 1.4-.1 1-.4.7-.6.5-.8.3-.8v-1l-.3.5-.6.3-.7.3h-.8q-.8 0-1.4-.3-.6-.3-1-.8l-.6-1.2-.2-1.4q0-.8.2-1.5t.7-1.3q.4-.5 1-.8.7-.3 1.6-.3l1.2.1.9.5.7.8.5 1 .2 1 .1 1.1v2.1l-.3 1.4-.6 1.4q-.4.6-1 1-.6.5-1.4.8-.9.3-2 .3h-.2v-1.3zm1.8-3.7.7-.1.6-.4.5-.5q.3-.3.4-.7v-.4q0-.8-.2-1.4l-.4-1q-.3-.4-.8-.6l-.8-.2q-.5 0-.9.2t-.6.5q-.3.4-.4.9l-.2 1 .1 1 .4.8q.3.4.7.6.3.3.9.3zm7.8 3.7 1.4-.1 1-.4.7-.6.5-.8.3-.8v-1q0 .3-.3.5l-.6.3-.7.3h-.8q-.8 0-1.4-.3-.6-.3-1-.8l-.6-1.2-.2-1.4q0-.8.2-1.5t.7-1.3q.4-.5 1-.8.7-.3 1.6-.3l1.2.1 1 .5.6.8.5 1 .3 1v3.2q0 .7-.3 1.4l-.6 1.4q-.4.6-1 1-.6.5-1.4.8-.9.3-2 .3h-.2v-1.3zm1.8-3.7.7-.1.6-.4.5-.5q.3-.3.4-.7v-.4q0-.8-.2-1.4l-.4-1q-.3-.4-.8-.6l-.8-.2q-.5 0-.9.2t-.6.5q-.3.4-.4.9l-.2 1 .1 1 .4.8q.3.4.7.6.4.3.9.3zm13.5-5.6-4.7 10.6h-1.5l4.7-10.1h-6.2v-1.3h7.7zm9.5 6.2q0 1.1-.2 2l-.7 1.4q-.5.6-1.2.8-.7.3-1.6.3-.8 0-1.5-.3-.7-.2-1.2-.8l-.7-1.4q-.2-.9-.2-2v-2.6q0-1.1.2-2l.7-1.4q.5-.5 1.2-.8.7-.4 1.5-.4 1 0 1.6.4.7.3 1.2.8.4.6.7 1.5.2.8.2 1.9zm-5.9-.3 4.4-3.4q0-1-.6-1.7-.5-.6-1.6-.6t-1.7.8q-.5.8-.5 2.2zm4.5-2-4.5 3.4q.2 1.1.7 1.7.6.6 1.5.6 1.2 0 1.7-.8.6-.8.6-2.3zm6.4 5.8v-.5l.3-.3.3-.3h1l.4.3.2.3v.9q0 .2-.2.3l-.4.3h-1l-.3-.3-.2-.3zm14.2-3.5q0 1.1-.2 2l-.7 1.4q-.5.6-1.2.8-.7.3-1.5.3-1 0-1.6-.3-.7-.2-1.2-.8l-.7-1.4q-.2-.9-.2-2v-2.6q0-1.1.2-2l.7-1.4q.5-.5 1.2-.8.7-.4 1.5-.4 1 0 1.6.4.7.3 1.2.8.4.6.7 1.5.2.8.2 1.9zm-5.9-.2 4.4-3.5q0-1-.6-1.7-.5-.6-1.6-.6t-1.7.8q-.5.8-.5 2.2zm4.5-2-4.5 3.3q.2 1.1.7 1.7.6.6 1.6.6 1.1 0 1.6-.8.6-.8.6-2.3v-2.6zm8.6 6.6h-1.5v-9.5l-3 1v-1.2l4.4-1.7v11.4z" fill="#000"/><g stroke="#666" stroke-width="4"><path d="m243.4 502.6-84.1 4.8" stroke-linecap="butt" stroke-linejoin="round"/><g fill="#666"><path d="m256.6 501.8a6.6 6.6 0 1 1 -13.2.8 6.6 6.6 0 0 1 13.2-.8z"/><path d="m159 500.8-17.8 7.7 18.5 5.5z" fill-rule="evenodd"/></g></g><use fill="#ff9800" fill-rule="evenodd" xlink:href="#r"/><use stroke="#666" stroke-linejoin="round" xlink:href="#r"/><path d="m479.1 426-.2-1q-.1-.4-.6-.8l-1-.7-1.8-.6q-1.2-.3-2.3-.8l-2-1.3q-.9-.7-1.4-1.6-.5-1-.5-2.2 0-1.2.5-2.2.5-1 1.4-1.7 1-.7 2.1-1 1.3-.4 2.7-.4 1.5 0 2.7.4 1.2.5 2.1 1.2 1 .8 1.4 1.9.5 1 .5 2.3h-3.6l-.2-1.2q-.2-.5-.6-.9l-1-.6q-.6-.2-1.4-.2-.7 0-1.2.2l-1 .5q-.4.3-.6.7l-.2 1q0 .5.3 1 .2.4.7.7.5.4 1.3.7l1.6.5q1.3.4 2.4 1 1 .5 1.9 1.2.8.8 1.2 1.7.4 1 .4 2.2 0 1.2-.5 2.2-.5 1-1.4 1.6-.8.7-2 1-1.3.4-2.7.4-1 0-1.8-.2l-1.7-.5-1.6-.8q-.7-.5-1.2-1.2t-.8-1.6q-.3-.8-.3-1.9h3.6q0 .9.3 1.5t.8 1q.5.4 1.2.6.6.2 1.5.2.7 0 1.3-.2l1-.5.5-.7q.2-.4.2-1zm10-7.2q.6-1 1.6-1.6 1-.6 2.3-.6 1 0 2 .3t1.6 1q.7.7 1 1.8.4 1.1.4 2.7v8.5h-3.6v-8.5q0-.8-.2-1.3l-.5-1q-.4-.3-.9-.4l-1-.2q-1 0-1.7.3-.6.4-1 1v10.1h-3.7v-20h3.6zm21.1 12.1-.2-.6-.2-.7-.7.6-.9.5-1 .3-1.2.2q-1 0-2-.3-1-.4-1.6-1-.6-.5-1-1.2-.3-.8-.3-1.7 0-2.3 1.6-3.5 1.7-1.2 5-1.2h2v-.8q0-1-.7-1.6-.6-.6-1.9-.6-1 0-1.6.5-.5.4-.5 1.2h-3.6q0-.9.4-1.7.4-.8 1.1-1.4.8-.6 1.9-1 1.1-.3 2.5-.3 1.3 0 2.4.3 1 .3 1.9.9.8.6 1.3 1.5.4 1 .4 2.2v6q0 1.2.2 2 .1.7.4 1.2v.2zm-3.5-2.5 1-.1 1-.4.5-.5.5-.5v-2.4h-1.9l-1.4.1-1 .5q-.4.3-.5.7-.2.4-.2.9 0 .7.5 1.2t1.5.5zm23.3-4.4q0 1.5-.3 2.9-.4 1.3-1 2.2-.8 1-1.8 1.5-1 .6-2.3.6-1.2 0-2-.4-.9-.4-1.5-1.1v6.6h-3.6v-19.5h3.3l.1 1.4q.7-.8 1.6-1.2.8-.4 2-.4 1.4 0 2.4.5t1.7 1.4q.7 1 1 2.3.5 1.3.5 3zm-3.6-.3-.1-1.6-.5-1.4q-.4-.5-1-.9-.5-.3-1.2-.3-1 0-1.6.4-.6.3-1 1v6q.4.6 1 1t1.6.4q.8 0 1.3-.3.5-.4.9-1l.5-1.3.1-1.7zm13.8 7.5q-1.6 0-3-.6-1.2-.5-2.2-1.4-1-1-1.5-2.2-.5-1.2-.5-2.6v-.5q0-1.7.5-3t1.4-2.3q1-1 2.2-1.5 1.3-.5 2.7-.5 1.5 0 2.7.5 1.2.5 2 1.4.9.9 1.3 2.2.5 1.3.5 2.8v1.5h-9.6q.1.8.4 1.4l.8 1q.5.4 1.2.6.6.3 1.4.3l1-.1 1-.3 1-.5.7-.7 1.8 2-1 .9-1.2.8-1.6.5q-1 .3-2 .3zm-.4-11.7q-.6 0-1.1.2l-1 .6-.6 1-.4 1.2h6v-.2q0-.6-.2-1.1-.2-.5-.6-.9-.4-.4-1-.6-.4-.2-1.1-.2zm-91.4 25.9.1-1.6.3-1.3.5-1.2.7-.9.6-.6.7-.5.3 1-.6.6q-.4.4-.6 1l-.5 1.6-.1 1.9v.1l.1 2 .5 1.4q.2.6.6 1l.6.7-.3 1-.7-.5-.6-.7-.7-.9-.5-1-.3-1.4-.1-1.6zm10 3.4-.2-.2v-.4l-.3.3-.4.2-.5.2h-1.5l-.7-.5q-.3-.2-.4-.6-.2-.3-.2-.7 0-1 .8-1.6.7-.5 2.2-.5h.9v-.4q0-.5-.3-.7-.3-.3-.9-.3-.5 0-.7.2-.2.2-.2.6h-1.6l.1-.8.6-.6.8-.5 1.1-.1 1 .1 1 .4.5.7.2 1v3.6l.3.5v.1zm-1.6-1.1h.4l.4-.2.3-.2.2-.3v-1h-1.5l-.4.2-.3.3v.4q0 .4.2.6.2.2.7.2zm7.6 0 .5-.1q.2 0 .3-.2l.3-.3v-.4h1.6q0 .5-.2.9t-.6.7l-.9.5q-.4.2-1 .2-.7 0-1.3-.3-.5-.2-.9-.7-.4-.4-.6-1l-.2-1.2v-.2q0-.7.2-1.3.2-.6.6-1l1-.7q.5-.2 1.2-.2.6 0 1 .2.6.1 1 .5l.5.7.2 1h-1.5l-.1-.4-.2-.4-.4-.2-.5-.1-.7.1-.4.5-.2.6v1.6l.2.6.4.4.7.1zm7.4-6.8v1.6h2.3v1.2h-2.3v3.3l.3.4.3.2h1.6l.3-.2.1 1.2-.4.1-.5.2h-2l-.7-.5-.5-.7-.1-1.1v-3h-1.5v-1.1h1.5v-1.6zm8.2 7q-.3.5-.7.8-.5.3-1 .3l-1-.2-.7-.5-.4-.8q-.2-.5-.2-1.3v-3.7h1.7v4.4q0 .3.2.4l.3.3h.5q.5 0 .8-.2.3-.1.5-.5v-4.4h1.6v6.3h-1.5zm7.1 1v-.3l-.1-.3-.3.2-.4.3-.5.1h-1.4l-.7-.5q-.3-.2-.5-.6-.2-.3-.2-.7 0-1 .8-1.6.7-.5 2.2-.5h1v-.4q0-.5-.4-.7-.3-.3-.8-.3t-.8.2q-.2.2-.2.6h-1.6l.1-.8.6-.6.8-.5 1.1-.1 1.1.1.9.5q.3.2.5.6l.2 1v2.7l.1.9.2.6zm-1.5-1.2h.5l.3-.2.3-.2.2-.3v-1h-1.5l-.4.2-.3.3v.4q0 .4.2.6.2.2.7.2zm5.1-7.9h3.6v7.7h1.8v1.3h-5.4v-1.3h2v-6.3h-2zm11.3 6.8-.1-.4q0-.2-.3-.4l-.5-.3-.7-.3-1.1-.3-1-.6-.5-.7-.2-1q0-.6.2-1l.6-.8q.4-.3 1-.4.5-.2 1.2-.2l1.2.2 1 .5.5.9q.3.4.3 1h-1.6l-.1-.5-.3-.4-.4-.3h-1.3l-.4.2-.2.4-.1.4v.4l.4.4.6.2.7.3 1 .4 1 .6.5.8q.2.4.2 1l-.2 1-.7.7-1 .4q-.5.2-1.1.2l-.8-.1-.8-.2-.7-.4-.5-.5-.4-.7-.1-1h1.6l.1.8.4.4.5.3h1.3l.4-.2.3-.4v-.4zm5.8-5.6v1.5h2.4v1.2h-2.4v3.3l.3.4.3.2h1.6l.3-.1.1 1q-.1.2-.4.3h-.5l-.5.1h-1.5l-.7-.5-.5-.7-.1-1.1v-3h-1.5v-1.1h1.5v-1.6zm8.2 7.9-.1-.3-.1-.3-.3.2-.4.3-.5.1h-1.5l-.6-.5q-.3-.2-.5-.6-.2-.3-.2-.7 0-1 .8-1.6.7-.5 2.2-.5h1v-.4q0-.4-.4-.7-.3-.3-.8-.3t-.8.2q-.2.2-.2.6h-1.6l.1-.8.6-.6q.3-.3.8-.4.5-.2 1.1-.2l1.1.1.9.5q.3.2.5.7.2.4.2 1v2.6l.1.9.2.6zm-1.6-1.2h.5l.4-.2.2-.2q.2-.1.2-.3v-1h-1.4l-.5.2-.2.4-.1.3q0 .4.2.6.2.2.7.2zm9.3-5.3h.7l.5.1-.2 1.7-.7-.1h-.6q-.7 0-1.1.2-.4.2-.6.7v3.8h-1.7v-6.3h1.5v1q.4-.5 1-.8.5-.3 1.2-.3zm5.7-1.4v1.5h2.4v1.2h-2.4v3.3l.3.4.3.2h1.6l.3-.1.1 1q-.1.2-.4.3h-.5l-.5.1h-1.5l-.7-.5-.5-.7-.1-1.1v-2.9h-1.5v-1.2h1.5v-1.5zm10.4.7h-2.6v7.2h-1.7v-7.2h-2.5v-1.4h6.9v1.3zm1.4.8h3.5v5h1.7v1.4h-5.2v-1.4h1.8v-3.7h-1.8zm1.7-1.6v-.4l.3-.2.3-.2h.4q.4 0 .6.2.3.2.3.6 0 .4-.3.6-.2.3-.6.3l-.4-.1q-.2 0-.3-.2-.2-.1-.2-.3v-.3zm6.1 1.6v.8q.2-.4.6-.7.3-.2.7-.2.8 0 1 .7l.5-.5q.3-.2.7-.2l.6.1q.2 0 .4.3l.3.6v5.4h-1.4v-4.8l-.2-.2h-.1l-.2-.1h-.3l-.1.3v4.8h-1.5v-4.8l-.1-.2h-.2l-.1-.1h-.3l-.2.4v4.7h-1.5v-6.3zm9.3 6.5q-.8 0-1.4-.3-.6-.2-1-.6-.4-.4-.6-1-.3-.6-.3-1.2v-.2q0-.8.3-1.3.2-.7.6-1 .4-.5 1-.8.5-.2 1.2-.2t1.2.2l1 .7.5 1q.2.5.2 1.2v.7h-4.3l.2.6.3.5.6.3h1.1l.4-.1.4-.3q.2 0 .4-.3l.8 1-.4.3-.6.4-.7.3h-1zm-.2-5.3-.5.1-.4.3-.3.4-.2.6h2.7v-.1l-.1-.5-.3-.4q-.1-.2-.4-.3h-.5zm8.6 1.8v1.5l-.5 1.4-.5 1.1-.6 1-.7.6q-.3.3-.7.4l-.3-.8.7-.7.6-1 .4-1.6q.2-.8.2-1.9v-.1q0-1.1-.2-2l-.4-1.4q-.3-.7-.6-1-.3-.5-.7-.8l.3-.8q.4.1.7.4l.7.7q.4.4.6.9l.6 1.1.3 1.4.1 1.5zm-114.1 14.3 1.4 2.3h-1l-1.7-2.3 1.6-2.4h1zm2 0 1.4 2.3h-1l-1.7-2.3 1.6-2.4h1zm4.9-3.3v.9q.4-.5.9-.7.5-.3 1-.3l1 .1.6.5.5.8.1 1.1v4h-1.6v-4.5l-.3-.4-.4-.2-.5-.1q-.4 0-.7.2-.3.1-.5.4v4.5h-1.6v-6.3zm5.5 3.1q0-.7.2-1.2l.5-1q.4-.5 1-.7.5-.3 1.3-.3.7 0 1.2.3.6.2 1 .6l.6 1q.2.6.2 1.3v.1q0 .7-.2 1.3-.2.6-.6 1-.4.5-1 .7-.5.3-1.2.3t-1.3-.3q-.6-.2-1-.6l-.5-1-.2-1.4zm1.6.1v.8l.3.6.4.4q.3.2.7.2l.6-.2.4-.4.2-.6.1-.8v-.8l-.3-.6-.4-.4q-.3-.2-.7-.2l-.6.2-.4.4q-.2.2-.2.6l-.1.7zm7.3-3.2v.9q.4-.5.9-.7.5-.3 1-.3l1 .1.6.5.5.8.1 1.1v4h-1.6v-4.5l-.3-.4-.4-.2-.5-.1q-.4 0-.7.2-.3.1-.5.4v4.5h-1.6v-6.3h1.4zm11.4 3.2h-4.9v-1.3h4.9zm4.6 3.3q-.8 0-1.4-.3-.6-.2-1-.6-.4-.4-.6-1-.3-.6-.3-1.2v-.2q0-.8.2-1.3.3-.7.7-1 .4-.5 1-.8.5-.2 1.2-.2t1.2.2l1 .7.5 1q.2.5.2 1.2v.7h-4.3l.2.6.3.5.5.3h1.2l.4-.1.4-.2.3-.4.9 1-.5.3-.5.4-.7.3h-1zm-.2-5.3-.5.1-.4.3-.3.4-.2.6h2.7v-.1l-.1-.5q0-.3-.3-.4-.1-.2-.4-.3h-.5zm7.2.8 1.4-2h1.8l-2.2 3.1 2.2 3.3h-1.7l-1.5-2.1-1.4 2h-1.8l2.2-3.2-2.1-3h1.7zm7.3-3.5v1.5h2.4v1.2h-2.4v3.3l.3.4.3.2h1.6l.3-.1.1 1q-.1.2-.4.3h-.5l-.5.2h-.5q-.6 0-1-.2-.4-.1-.7-.4l-.5-.7-.1-1v-3h-1.6v-1.2h1.5v-1.5h1.6zm7.3 8q-.8 0-1.4-.3-.6-.2-1-.6-.4-.4-.6-1-.3-.6-.3-1.2v-.2q0-.8.2-1.3.3-.7.7-1 .4-.5 1-.8.5-.2 1.2-.2t1.2.2l1 .7.5 1q.2.5.2 1.2v.7h-4.3l.2.6.3.5.5.3h1.2l.4-.1.4-.2.3-.4.9 1-.4.3-.6.4-.7.3h-1zm-.2-5.3-.5.1-.4.3-.3.4-.2.6h2.7v-.1l-.1-.5q0-.3-.3-.4-.1-.2-.4-.3h-.5zm5.8-1.2v.9q.4-.5.9-.7.5-.3 1-.3l1 .1.6.5.5.8.1 1.1v4h-1.6v-4.5l-.3-.4-.4-.2-.5-.1q-.4 0-.7.2-.3.1-.5.4v4.5h-1.6v-6.3zm9.8 4.6v-.2q-.1-.2-.3-.2l-.5-.2-.7-.2-1-.3q-.5-.1-.8-.4l-.5-.5q-.2-.3-.2-.7l.2-.8q.2-.4.5-.6.4-.3.9-.4.5-.2 1.1-.2.7 0 1.2.2.5.1.9.4.4.2.6.6l.1.8h-1.6q0-.3-.3-.6-.3-.2-.9-.2-.5 0-.8.2-.3.2-.3.5v.2q0 .2.2.3l.4.1.7.2q.6 0 1 .2l1 .4q.3.2.5.6.2.3.2.7 0 .5-.2.8-.2.4-.6.6-.4.3-1 .4-.4.2-1 .2-.8 0-1.3-.2l-1-.5-.5-.7-.2-.8h1.5q0 .3.2.5l.3.3.5.2h.5q.6 0 .9-.2.3-.2.3-.5zm3.5-4.6h3.5v5h1.7v1.4h-5.2v-1.4h1.8v-3.5h-1.8v-1.4zm1.7-1.6v-.3l.3-.3.3-.2h.4q.4 0 .6.2.3.2.3.6 0 .4-.3.6-.2.3-.6.3l-.4-.1q-.2 0-.3-.2l-.2-.3v-.3zm10.8 4.9-.1 1.3-.5 1q-.3.4-.8.7-.4.2-1 .2t-1-.2q-.4-.2-.7-.6l-.1.7h-1.5v-9h1.7v3.2q.2-.3.6-.5.4-.2 1-.2l1 .2q.5.3.8.7l.5 1 .1 1.3zm-1.6-.2v-.7l-.3-.6q-.1-.3-.4-.4-.2-.2-.6-.2-.4 0-.7.2-.3.2-.4.5v2.6q.1.3.4.5.3.2.7.2.4 0 .6-.2.3-.1.4-.4.2-.2.2-.6v-.7zm3.4-5.7h3.6v7.6h1.8v1.4h-5.4v-1.4h2v-6.3h-2zm10 9-1.4-.1-1-.7q-.4-.4-.6-1-.3-.5-.3-1.2v-.2q0-.7.3-1.3.2-.6.6-1 .4-.5 1-.8.5-.2 1.2-.2t1.2.2l1 .7.5 1q.2.5.2 1.2v.7h-4.4l.2.6.3.5.6.3h1.1l.4-.1.4-.2.4-.4.8 1-.4.3-.6.4-.7.3h-1zm-.2-5.2-.5.1-.4.3-.3.4-.2.6h2.7v-.1l-.1-.5q0-.2-.3-.4-.1-.2-.4-.3h-.5zm5.8-.3 1.6 2.3v.1l-1.6 2.3h-1l1.3-2.3-1.4-2.4h1zm2 0 1.6 2.3v.1l-1.6 2.3h-1l1.3-2.3-1.4-2.4h1z" fill="#fff"/><use fill="#bdbdbd" fill-rule="evenodd" xlink:href="#c"/><use stroke="#666" stroke-linejoin="round" xlink:href="#c"/><path d="m450.1 481.7v1.5h-.6v-1.9h.6zm5.7 5.6v-.5l-.3.3-.3.1-.4.1h-1l-.5-.3-.2-.4-.1-.5.1-.6q.1-.3.4-.4l.6-.3h1.6v-.7l-.3-.3-.3-.2h-.8q-.2 0-.3.2l-.2.2v.2h-.8l.1-.4.4-.4.5-.3.7-.1h.7l.5.3.4.5v2.6l.1.4.1.4zm-1.3-.5h.4l.4-.2.2-.2.2-.3v-.8h-.7l-1 .1q-.3.2-.3.6v.3l.2.3.3.1h.3zm5.1 0h.4l.3-.2.3-.3v-.3h.8q0 .3-.2.5-.1.3-.4.5l-.5.3h-.7l-.8-.1q-.4-.2-.6-.5l-.4-.6v-1.8q.1-.4.4-.7.2-.3.6-.4.3-.2.8-.2l.7.1.5.3q.3.2.4.5l.1.6h-.6l-.1-.3-.2-.3-.4-.2-.4-.1-.6.1-.3.4q-.2.2-.2.5v1.2q0 .3.2.5l.3.4h.6zm4.7-4.7v1h1.6v.5h-1.6v2.3l.1.4q0 .2.2.3l.2.1h1.2l.1.4-.2.1-.3.1h-1.2q-.2 0-.4-.3-.2-.1-.3-.4v-3h-1.2v-.5h1.1v-1zm5.9 4.6q-.2.3-.6.5-.3.2-.7.2l-.6-.1-.4-.3-.3-.6-.1-.8v-2.6h.7v3.1q0 .2.2.3.1.2.3.2h.3l.7-.1.5-.5v-3h.7v4.2h-.7zm4.8.6v-.5l-.3.3-.3.1-.4.1h-1l-.4-.3-.3-.4-.1-.5.1-.6q.1-.3.4-.4l.6-.3h1.6v-.7l-.3-.3-.3-.2h-.8q-.2 0-.3.2l-.2.2v.2h-.8l.1-.4.4-.4.5-.3.7-.1h.7l.5.3.4.5v2.6l.1.4.1.4zm-1.3-.5h.4l.4-.2.2-.3.2-.2v-.8h-.7l-1 .1q-.3.2-.3.6v.3l.2.3.3.1h.4zm3.4-5.5h2.2v5.4h1.4v.6h-3.7v-.6h1.5v-4.8h-1.5zm7.7 4.6-.1-.5-.3-.3-.4-.2-.5-.1-.6-.3-.6-.3-.4-.5-.1-.6.1-.7.5-.5.6-.3h1.3l.6.4q.3.2.5.6l.1.7h-.7l-.1-.5-.3-.3-.3-.3h-.9q-.2 0-.3.2-.2 0-.3.3v.8l.3.3.4.2.4.1q.3 0 .5.2l.4.2.4.2.3.3.2.4v.5l-.1.6-.5.5-.6.3-.7.1-.7-.1-.7-.3-.4-.6q-.2-.3-.2-.7h.7q0 .3.2.5 0 .2.3.3l.4.2.5.1h.4l.3-.2.3-.3zm3.5-3.8v1h1.6v.5h-1.6v2.3l.1.4q0 .2.2.3l.2.1h1.2l.1.4-.2.1-.3.1h-1.2q-.2 0-.4-.3-.2-.1-.3-.4v-3h-1.2v-.5h1.1v-1zm5.9 5.2v-.5l-.3.3-.3.1-.4.1h-1l-.5-.3-.3-.4v-.5l.1-.6q.1-.3.4-.4l.6-.3h1.6v-.7l-.3-.3-.3-.2h-.8q-.2 0-.3.2l-.2.2v.2h-.8l.1-.4.4-.4.5-.3.7-.1h.7l.5.3.4.5v2.6l.1.4.1.4zm-1.3-.5h.4l.4-.2.2-.3.2-.2v-.8h-.7l-1 .1q-.3.2-.3.6v.3l.2.3.3.1h.3zm6.1-3.8h.6l.1.1v.7h-.9l-.8.1q-.3.3-.4.7v2.7h-.8v-4.2h.7v.6l.7-.5q.3-.2.8-.2zm3.7-1v1h1.7v.6h-1.6v2.7q0 .2.2.3l.2.1h1.2l.1.4-.2.1-.3.1h-1.2q-.2 0-.4-.3-.2-.1-.3-.4v-3h-1.2v-.5h1.1v-1zm7 .2h-1.8v5.1h-.7v-5h-1.8v-.7h4.3zm1 .9h2.2v3.6h1.4v.6h-3.6v-.6h1.5v-3h-1.5zm1.4-1.1v-.3l.4-.2q.2 0 .3.2l.1.3v.3h-.7zm3.7 1v.5l.3-.4.5-.1q.6 0 .8.4l.3-.3.5-.1q.5 0 .8.3.2.3.2.8v3.2h-.7v-3.2q0-.5-.5-.5h-.2l-.2.1v.2l-.1.2v3.2h-.7v-3.2l-.1-.4-.4-.1-.3.1-.2.2v3.4h-.7v-4.3zm6.3 4.4-.8-.2q-.4-.1-.7-.4l-.4-.7-.1-.8v-.1l.1-1q.2-.4.5-.6l.6-.5.7-.1q.5 0 .8.2l.6.4.3.7.1.8v.3h-3v.5l.4.5q.1.2.4.3h1.2l.5-.5.5.4-.3.3-.4.2-.5.2h-.5zm0-3.8h-.5l-.4.3-.2.4-.2.5h2.3v-.5l-.3-.3-.3-.3-.5-.1zm4.8-1.9v1.5h-.6v-1.9h.6zm4.2 5.1v-.2l.1-.2h.2l.2-.1h.3l.2.1v.2l.1.2v.3l-.1.1-.2.1h-.7v-.2zm0-3v-.2l.1-.2h.2l.2-.1h.3l.2.1v.2l.1.2v.3l-.1.1-.2.1h-.7v-.2zm8.3 3.5v-5.7h1.3q.6 0 1 .2l.8.5.5.9.2 1v.5q0 .6-.2 1l-.5.9-.8.5q-.4.2-1 .2zm.7-5v4.4h.6l.8-.1.5-.5.4-.6v-2.1l-.4-.6q-.2-.3-.5-.4-.3-.2-.8-.2zm4 2.8v-.8l.4-.7.6-.4.8-.2q.5 0 .8.2.4.1.6.4.3.3.4.7l.2.8v.1q0 .5-.2.9-.1.4-.4.7-.2.3-.6.4-.3.2-.8.2l-.8-.2-.6-.4-.3-.7q-.2-.4-.2-.9zm.7.1v.6l.3.5.3.4h1.1l.4-.4.2-.5v-1.2q0-.3-.2-.5l-.4-.4-.6-.1-.5.1q-.2.1-.3.4l-.3.5zm7 1.5q-.2.3-.6.5-.3.2-.7.2l-.6-.1-.4-.3-.3-.6-.1-.8v-2.6h.7v3.1l.2.3q.1.2.3.2h.3l.8-.1.4-.5v-3h.7v4.2h-.7zm5.6-1.5v.9l-.4.7q-.2.3-.5.4-.3.2-.7.2-.4 0-.7-.2-.3-.1-.5-.4v.5h-.7v-6h.7v2.2l.5-.4.7-.1q.4 0 .7.2.3.1.5.4l.3.7.1.8zm-.7 0v-.6l-.3-.5q0-.2-.3-.4h-.9l-.3.1-.2.2-.1.3v1.8l.1.3.3.2.2.1h.9l.3-.4q.2-.2.2-.5zm2-3.9h2.2v5.4h1.4v.6h-3.5v-.6h1.4v-4.8h-1.4zm6.6 6h-.8q-.4-.2-.6-.5l-.5-.7-.1-.8v-.1l.1-1 .5-.6.6-.5.7-.1q.5 0 .8.2l.6.4.3.7.1.8v.3h-3l.1.5.3.5q.1.2.4.3h1.2l.5-.5.5.4-.3.3-.4.2-.5.2zm0-3.7h-.5l-.4.3-.2.4-.2.5h2.3v-.5l-.3-.3-.3-.3-.5-.1z" fill="#000"/></g></svg>