<svg fill="none" stroke-linecap="square" stroke-miterlimit="10" viewBox="0 0 960 540" xmlns="http://www.w3.org/2000/svg" xmlns:xlink="http://www.w3.org/1999/xlink"><clipPath id="a"><path d="m0 0h960v540h-960z"/></clipPath><g clip-path="url(#a)"><path d="m0 0h960v540h-960z" fill="#fff" fill-rule="evenodd"/><path d="m693.672 192.54c0-6.282 5.093-11.375 11.375-11.375h142.068a11.376 11.376 0 0 1 11.376 11.376v45.5c0 6.283-5.093 11.376-11.376 11.376h-142.068c-6.282 0-11.375-5.093-11.375-11.375z" fill="#ff9800" fill-rule="evenodd"/><path d="m693.672 192.54c0-6.282 5.093-11.375 11.375-11.375h142.068a11.376 11.376 0 0 1 11.376 11.376v45.5c0 6.283-5.093 11.376-11.376 11.376h-142.068c-6.282 0-11.375-5.093-11.375-11.375z" stroke="#666" stroke-linecap="butt" stroke-linejoin="round"/><path d="m747.637 211.938q0-.5-.187-.937-.172-.453-.594-.828-.422-.391-1.11-.704-.671-.328-1.687-.593-1.234-.344-2.36-.844-1.124-.516-1.984-1.219-.859-.719-1.375-1.672-.515-.953-.515-2.187 0-1.203.5-2.172.515-.984 1.406-1.672.906-.687 2.125-1.062 1.219-.375 2.656-.375 1.485 0 2.703.437 1.235.422 2.125 1.203.891.781 1.375 1.844.5 1.062.5 2.344h-3.562q-.031-.64-.234-1.172-.204-.531-.61-.906-.39-.391-.984-.61-.578-.219-1.375-.219-.735 0-1.297.188-.563.172-.953.484-.39.313-.594.75-.203.438-.203.953 0 .532.266.97.265.421.765.765.516.344 1.235.64.718.282 1.64.516 1.297.39 2.39.938 1.095.546 1.876 1.296.797.735 1.234 1.704.438.953.438 2.125 0 1.25-.516 2.218-.5.97-1.39 1.641-.876.672-2.094 1.016-1.22.343-2.672.343-.89 0-1.781-.172-.891-.156-1.72-.484-.812-.344-1.515-.844-.703-.515-1.219-1.187-.5-.688-.796-1.547-.297-.86-.297-1.906h3.593q.032.86.297 1.484.282.61.766 1 .484.39 1.172.578.687.172 1.5.172.734 0 1.297-.172.562-.172.953-.469.39-.296.594-.718.218-.422.218-.938zm9.903-7.187q.703-1.032 1.703-1.61 1.016-.593 2.266-.593 1.11 0 2.03.343.923.328 1.58 1.032.67.687 1.046 1.796.375 1.094.375 2.641v8.531h-3.625v-8.547q0-.765-.188-1.312-.187-.547-.546-.875-.344-.344-.844-.5-.485-.172-1.11-.172-.921 0-1.593.328-.657.328-1.094.906v10.172h-3.625v-20h3.625zm21.184 12.14q-.14-.265-.235-.593-.078-.344-.156-.72-.297.329-.687.61-.391.281-.875.5-.47.219-1.047.344-.563.125-1.219.125-1.078 0-1.984-.313-.907-.312-1.563-.875-.656-.562-1.015-1.328-.36-.78-.36-1.687 0-2.235 1.656-3.453 1.657-1.219 4.954-1.219h2.015v-.828q0-1.016-.672-1.61-.656-.593-1.906-.593-1.11 0-1.625.484-.5.469-.5 1.266h-3.61q0-.907.391-1.703.407-.813 1.157-1.422.765-.61 1.859-.969 1.11-.36 2.531-.36 1.266 0 2.36.313 1.109.313 1.906.922.812.61 1.265 1.547.47.922.47 2.156v6.031q0 1.141.14 1.891.14.734.406 1.266v.218zm-3.453-2.53q.547 0 1.015-.126.469-.14.844-.344.375-.218.64-.484.282-.266.438-.531v-2.422h-1.844q-.843 0-1.453.156-.593.156-.968.453-.375.297-.563.703-.187.407-.187.891 0 .734.515 1.219.516.484 1.563.484zm23.293-4.376q0 1.531-.36 2.844-.359 1.312-1.062 2.281-.688.953-1.719 1.5-1.015.547-2.343.547-1.141 0-2-.39-.86-.391-1.5-1.094v6.64h-3.61v-19.5h3.344l.125 1.375q.656-.781 1.531-1.203.89-.437 2.078-.437 1.344 0 2.36.515 1.03.516 1.734 1.469.703.937 1.063 2.266.359 1.312.359 2.906zm-3.61-.281q0-.875-.171-1.656-.157-.782-.5-1.344-.344-.563-.891-.89-.547-.329-1.313-.329-.953 0-1.562.375-.594.375-.938 1.047v5.89q.344.657.938 1.063.61.39 1.594.39.765 0 1.297-.327.547-.344.89-.922.344-.594.5-1.375.157-.782.157-1.64v-.282zm13.794 7.453q-1.625 0-2.953-.531-1.329-.547-2.282-1.453-.953-.922-1.468-2.157-.516-1.25-.516-2.672v-.515q0-1.625.5-2.953.516-1.328 1.422-2.297.922-.969 2.172-1.5t2.718-.531q1.516 0 2.704.5 1.203.5 2.03 1.421.829.907 1.25 2.188.438 1.281.438 2.828v1.531h-9.562q.11.72.422 1.313.328.594.812 1.031.5.422 1.14.656.641.235 1.391.235.532 0 1.063-.094.531-.11 1-.313.484-.203.906-.5.422-.312.735-.703l1.796 1.953q-.328.47-.875.938-.53.469-1.28.828-.735.344-1.641.563-.891.234-1.922.234zm-.438-11.688q-.61 0-1.125.22-.5.218-.89.624-.375.406-.641.969-.25.547-.39 1.234h5.937v-.28q-.016-.579-.219-1.079-.187-.516-.562-.875-.36-.375-.891-.594-.531-.219-1.219-.219zm-97.963 26.763q0-.906.14-1.719.141-.812.375-1.5.235-.687.563-1.25.328-.562.672-1 .36-.437.734-.734.39-.313.75-.469l.36.984q-.375.282-.735.75-.36.47-.656 1.172-.281.703-.469 1.641-.187.922-.187 2.125v.156q0 1.203.187 2.14.188.938.469 1.626.297.703.656 1.172.36.484.735.765l-.36.97q-.36-.157-.75-.47-.375-.297-.734-.734-.344-.438-.672-1-.328-.563-.563-1.25-.234-.688-.375-1.484-.14-.813-.14-1.735zm11.06 3.86q-.062-.126-.109-.298-.047-.171-.078-.359-.14.156-.344.313-.187.14-.437.25-.235.093-.516.156-.281.062-.625.062-.531 0-.984-.156-.453-.156-.782-.422-.328-.281-.515-.672-.172-.39-.172-.843 0-1.11.828-1.72.828-.609 2.469-.609h1.015v-.421q0-.5-.328-.797-.328-.297-.953-.297-.562 0-.812.234-.25.235-.25.625h-1.814q0-.437.188-.844.203-.406.578-.703.39-.312.937-.484.547-.188 1.266-.188.64 0 1.187.157.547.156.954.468.406.297.625.766.234.469.234 1.078v3.016q0 .562.062.937.079.375.22.641v.11h-1.845zm-1.718-1.266q.265 0 .5-.063.234-.078.422-.172.203-.109.328-.234.14-.14.218-.281v-1.203h-.921q-.422 0-.72.078-.296.078-.5.234-.187.14-.28.344-.079.203-.079.453 0 .36.25.61.266.234.782.234zm8.435-.047q.266 0 .5-.078.25-.078.422-.219.188-.14.282-.344.109-.203.109-.453h1.703q0 .547-.234 1.016-.235.468-.641.812-.406.328-.953.531-.547.188-1.156.188-.813 0-1.438-.281-.61-.282-1.031-.75-.406-.485-.625-1.125-.203-.657-.203-1.407v-.187q0-.75.203-1.39.203-.657.625-1.126.422-.484 1.031-.765.61-.282 1.422-.282.656 0 1.203.204.563.187.953.546.407.344.625.86.219.5.219 1.125h-1.703q0-.266-.094-.5-.078-.235-.265-.39-.172-.173-.422-.266-.235-.11-.532-.11-.437 0-.718.172-.266.172-.438.469t-.234.672q-.063.375-.063.781v.187q0 .422.063.797.062.375.219.672.171.281.453.469.28.172.718.172zm8.202-7.453v1.718h2.625v1.344h-2.625v3.016q0 .39.078.656.094.25.25.406.172.141.406.22.234.062.516.062.203 0 .422-.016.218-.031.421-.047.204-.031.375-.062.172-.047.297-.079l.172 1.25q-.187.11-.453.188-.25.078-.531.125-.281.062-.594.094-.312.031-.61.031-.577 0-1.046-.156-.469-.157-.813-.469-.328-.328-.515-.828-.188-.5-.188-1.188v-3.203h-1.61v-1.344h1.61v-1.718zm9.17 7.781q-.36.516-.86.828-.5.297-1.109.297-.547 0-1-.172-.453-.172-.781-.531-.328-.375-.516-.938-.172-.578-.172-1.375v-4.172h1.813v4.188q0 .422.062.719.063.297.203.484.141.172.36.25.219.078.531.078.547 0 .875-.203.344-.219.531-.578v-4.938h1.813v7.047h-1.64zm7.904.984q-.062-.125-.11-.297-.046-.171-.077-.359-.14.156-.344.313-.188.14-.438.25-.234.093-.515.156-.281.062-.625.062-.531 0-.985-.156-.453-.156-.78-.422-.329-.281-.516-.672-.172-.39-.172-.843 0-1.11.828-1.72.828-.609 2.469-.609h1.015v-.421q0-.5-.328-.797-.328-.297-.953-.297-.563 0-.813.234-.25.235-.25.625h-1.812q0-.437.187-.844.204-.406.579-.703.39-.312.937-.484.547-.188 1.266-.188.64 0 1.187.157.547.156.953.468.407.297.625.766.235.469.235 1.078v3.016q0 .562.062.937.078.375.219.641v.11h-1.844zm-1.719-1.265q.266 0 .5-.063.235-.078.422-.172.203-.109.328-.234.141-.14.22-.281v-1.203h-.923q-.422 0-.718.078-.297.078-.5.234-.188.14-.282.344-.078.203-.078.453 0 .36.25.61.266.234.781.234zm5.702-8.735h3.937v8.532h2.016v1.468h-5.953v-1.468h2.11v-7.047h-2.11zm12.467 7.532q0-.266-.094-.485-.078-.219-.297-.406-.203-.188-.547-.344-.344-.172-.844-.312-.625-.157-1.187-.407-.563-.265-1-.625-.422-.359-.688-.828-.25-.484-.25-1.093 0-.594.25-1.079.266-.5.704-.843.453-.344 1.062-.532.625-.187 1.328-.187.75 0 1.36.219.625.218 1.062.61.438.374.688.921.25.531.25 1.156h-1.782q-.015-.312-.125-.578-.093-.266-.297-.453-.187-.203-.484-.297-.297-.11-.703-.11-.36 0-.64.094-.282.079-.485.235-.188.156-.297.375-.094.219-.094.469 0 .265.125.484.141.219.391.39.25.172.61.313.374.14.827.266.657.187 1.204.468.546.266.937.641.39.375.61.86.218.468.218 1.062 0 .625-.25 1.11-.25.484-.703.827-.437.329-1.047.5-.61.172-1.328.172-.453 0-.906-.078-.438-.078-.844-.25-.406-.172-.766-.422-.343-.265-.609-.593-.25-.344-.406-.766-.14-.438-.14-.953h1.796q.016.422.14.734.141.297.391.5.25.188.578.281.344.094.766.094.36 0 .64-.078.282-.094.47-.234.203-.157.296-.36.11-.218.11-.468zm6.467-6.297v1.718h2.625v1.344h-2.625v3.016q0 .39.078.656.094.25.25.406.172.141.406.22.234.062.516.062.203 0 .422-.016.218-.031.421-.047.204-.031.375-.062.172-.047.297-.079l.172 1.25q-.187.11-.453.188-.25.078-.531.125-.281.062-.594.094-.312.031-.61.031-.577 0-1.046-.156-.469-.157-.813-.469-.328-.328-.515-.828-.188-.5-.188-1.188v-3.203h-1.61v-1.344h1.61v-1.718zm9.076 8.765q-.063-.125-.11-.297-.046-.171-.078-.359-.14.156-.343.313-.188.14-.438.25-.234.093-.515.156-.282.062-.625.062-.532 0-.985-.156-.453-.156-.781-.422-.328-.281-.516-.672-.172-.39-.172-.843 0-1.11.829-1.72.828-.609 2.468-.609h1.016v-.421q0-.5-.328-.797-.328-.297-.953-.297-.563 0-.813.234-.25.235-.25.625h-1.812q0-.437.187-.844.203-.406.578-.703.39-.312.938-.484.547-.188 1.265-.188.641 0 1.188.157.547.156.953.468.406.297.625.766.234.469.234 1.078v3.016q0 .562.063.937.078.375.219.641v.11h-1.844zm-1.719-1.265q.266 0 .5-.063.235-.078.422-.172.203-.109.328-.234.14-.14.219-.281v-1.203h-.922q-.422 0-.719.078t-.5.234q-.187.14-.28.344-.08.203-.08.453 0 .36.25.61.267.234.782.234zm10.373-5.907q.422 0 .766.063.344.047.562.11l-.265 1.812q-.36-.094-.735-.125-.375-.047-.718-.047-.75 0-1.219.297-.453.281-.688.828v4.234h-1.796v-7.047h1.671l.094 1.157q.422-.594 1.016-.938.61-.344 1.312-.344zm6.264-1.593v1.718h2.625v1.344h-2.625v3.016q0 .39.078.656.094.25.25.406.172.141.407.22.234.062.515.062.203 0 .422-.016.219-.031.422-.047.203-.031.375-.062.172-.047.297-.079l.172 1.25q-.188.11-.453.188-.25.078-.532.125-.28.062-.593.094-.313.031-.61.031-.578 0-1.047-.156-.468-.157-.812-.469-.328-.328-.516-.828-.187-.5-.187-1.188v-3.203h-1.61v-1.344h1.61v-1.718zm11.577.781h-2.922v7.984h-1.828v-7.984h-2.891v-1.484h7.64v1.484zm1.591.937h3.829v5.579h1.906v1.468h-5.735v-1.468h2v-4.094h-2zm1.875-1.796q0-.204.063-.375.078-.188.219-.313.14-.14.328-.203.187-.078.422-.078.484 0 .765.281.282.266.282.688 0 .421-.282.703-.28.265-.765.265-.235 0-.422-.078-.188-.078-.328-.203t-.22-.297q-.062-.187-.062-.39zm6.764 1.796.047.86q.203-.453.547-.719.36-.266.875-.266.844 0 1.11.75.202-.359.53-.546.329-.204.782-.204.312 0 .594.125.28.11.484.375.203.25.312.657.11.406.11.984v5.031h-1.64v-5.03q0-.204-.048-.329-.03-.14-.109-.203-.063-.078-.172-.11-.094-.03-.187-.03-.188 0-.329.093-.125.078-.187.234v5.375h-1.594v-5.03q0-.204-.047-.329-.03-.14-.109-.203-.063-.078-.156-.11-.094-.03-.188-.03-.219 0-.344.124-.125.11-.187.313v5.265h-1.656v-7.047zm10.28 7.172q-.813 0-1.485-.265-.656-.266-1.125-.719-.468-.469-.734-1.078-.25-.625-.25-1.344v-.25q0-.812.25-1.469.25-.672.703-1.156.453-.484 1.078-.75t1.36-.266q.765 0 1.359.25t1 .704q.422.453.64 1.093.22.641.22 1.422v.766h-4.782q.047.36.203.656.172.297.406.516.25.203.563.328.328.11.703.11.281 0 .531-.048.266-.047.5-.14.25-.11.453-.25.22-.157.375-.36l.907.97q-.172.25-.453.483-.266.22-.641.407-.36.172-.813.281-.437.11-.968.11zm-.203-5.828q-.313 0-.563.11-.25.093-.453.296-.188.204-.328.485-.125.281-.188.625h2.97v-.14q-.017-.282-.11-.532-.094-.266-.282-.453-.187-.188-.453-.281-.25-.11-.593-.11zm9.607 2q0 .89-.14 1.688-.141.797-.391 1.484-.25.688-.578 1.25-.328.578-.703 1.016-.375.453-.766.765-.39.313-.75.47l-.344-.97q.36-.28.719-.75.36-.468.656-1.172.297-.703.469-1.64.187-.938.187-2.14v-.157q0-1.203-.187-2.14-.188-.938-.484-1.641-.297-.703-.657-1.172-.359-.485-.703-.75l.344-.969q.36.156.75.469.39.312.766.765.375.438.703 1.016.328.563.578 1.25.25.688.39 1.484.141.797.141 1.688z" fill="#fff"/><path d="m704.68 249.596h142.582v30.015h-142.582z" fill="#bdbdbd" fill-rule="evenodd"/><path d="m704.68 249.596h142.582v30.015h-142.582z" stroke="#666" stroke-linecap="butt" stroke-linejoin="round"/><path d="m717.364 261.58-.094 1.671h-.625v-2.187h.72v.515zm6.66 6.484q-.046-.094-.078-.235-.031-.14-.047-.297-.125.125-.28.235-.157.11-.345.203-.187.078-.406.125-.219.062-.453.062-.39 0-.719-.109-.312-.125-.531-.313-.219-.203-.344-.468-.125-.266-.125-.563 0-.406.157-.703.171-.312.468-.516.297-.203.703-.296.422-.11.938-.11h.922v-.39q0-.22-.078-.391-.078-.188-.235-.313-.14-.125-.36-.187-.218-.078-.483-.078-.25 0-.454.062-.203.063-.343.172-.125.11-.203.25-.079.14-.079.297h-.843q0-.266.125-.516.14-.265.39-.468.266-.219.625-.344.36-.125.828-.125.407 0 .766.11.36.093.625.296.266.203.406.516.157.312.157.734v2.281q0 .25.046.532.047.265.125.468v.079zm-1.484-.641q.234 0 .453-.063.219-.062.39-.171.173-.11.298-.235.14-.14.203-.281v-1h-.781q-.735 0-1.157.219-.406.218-.406.687 0 .188.063.344.062.14.187.266.125.109.313.171.187.063.437.063zm5.942.047q.234 0 .437-.063.219-.078.39-.203.173-.14.266-.312.11-.172.11-.375h.797q0 .328-.172.625-.156.297-.438.531-.281.219-.64.36-.36.124-.75.124-.563 0-.985-.203-.406-.203-.687-.531-.281-.344-.422-.781-.14-.453-.14-.953v-.188q0-.484.14-.922.14-.453.422-.797.281-.343.687-.53.422-.204.985-.204.437 0 .797.14.375.141.64.376.266.234.406.562.157.328.157.703h-.797q0-.219-.094-.422-.094-.203-.25-.343-.156-.157-.39-.235-.22-.094-.47-.094-.39 0-.656.157-.265.156-.437.422-.156.25-.234.562-.063.313-.063.625v.188q0 .328.063.656.078.312.234.562.172.25.437.407.266.156.657.156zm5.488-5.531v1.203h1.89v.64h-1.89v2.688q0 .281.078.469.078.187.203.296.125.11.282.157.171.047.359.047.14 0 .281-.016.156-.016.281-.031.141-.032.266-.047.125-.031.203-.047l.11.594q-.094.062-.25.11-.141.046-.329.077-.171.031-.375.047-.203.031-.39.031-.328 0-.625-.093-.281-.094-.485-.297-.203-.203-.328-.516-.125-.328-.125-.781v-2.688h-1.297v-.64h1.297v-1.203zm6.8 5.453q-.233.36-.608.562-.375.203-.86.203-.375 0-.703-.125-.312-.125-.531-.375-.219-.25-.344-.64-.125-.407-.125-.953v-2.922h.844v2.937q0 .39.062.656.078.266.203.422.125.157.297.22.188.062.438.062.515 0 .828-.204.312-.203.469-.562v-3.531h.86v4.922h-.767l-.062-.672zm5.646.672q-.047-.094-.079-.235-.03-.14-.046-.297-.125.125-.282.235-.156.11-.343.203-.188.078-.407.125-.218.062-.453.062-.39 0-.719-.109-.312-.125-.53-.313-.22-.203-.345-.468-.125-.266-.125-.563 0-.406.157-.703.172-.312.468-.516.297-.203.704-.296.421-.11.937-.11h.922v-.39q0-.22-.078-.391-.078-.188-.235-.313-.14-.125-.359-.187-.219-.078-.484-.078-.25 0-.453.062-.204.063-.344.172-.125.11-.203.25-.078.14-.078.297h-.844q0-.266.125-.516.14-.265.39-.468.266-.219.625-.344.36-.125.829-.125.406 0 .765.11.36.093.625.296.266.203.406.516.157.312.157.734v2.281q0 .25.047.532.046.265.125.468v.079zm-1.485-.641q.235 0 .453-.063.22-.062.391-.171.172-.11.297-.235.14-.14.203-.281v-1h-.781q-.735 0-1.157.219-.406.218-.406.687 0 .188.063.344.062.14.187.266.125.109.313.171.187.063.437.063zm3.973-6.36h2.516v6.266h1.61v.735h-4.126v-.735h1.672v-5.531h-1.672v-.734zm8.942 5.329q0-.313-.141-.516-.14-.219-.36-.36-.218-.14-.484-.234-.25-.093-.5-.172-.344-.109-.719-.265-.359-.172-.656-.406-.297-.235-.484-.547-.188-.313-.188-.75 0-.422.188-.75.187-.344.484-.578.313-.235.703-.344.391-.125.782-.125.437 0 .828.14.406.141.703.407.312.25.5.625.187.375.203.828h-.86q-.046-.297-.156-.531-.093-.235-.265-.391-.172-.172-.422-.266-.235-.093-.531-.093-.25 0-.485.078-.219.062-.406.203-.172.125-.281.328-.11.203-.11.469 0 .281.141.484.156.188.36.328.218.14.468.235.266.078.484.156.25.078.5.172.25.093.47.234.234.125.437.281.203.157.343.36.157.203.235.453.094.234.094.531 0 .453-.204.781-.187.328-.5.563-.312.219-.718.328-.39.11-.797.11-.438 0-.86-.141-.421-.14-.765-.39-.328-.267-.547-.626-.203-.375-.219-.844h.86q.046.297.171.547.125.235.329.406.203.157.468.25.266.079.563.079.25 0 .484-.063.25-.062.438-.187.187-.125.297-.329.125-.203.125-.468zm4.113-4.453v1.203h1.89v.64h-1.89v2.688q0 .281.078.469.078.187.203.296.125.11.281.157.172.047.36.047.14 0 .281-.016.156-.016.281-.031.141-.032.266-.047.125-.031.203-.047l.11.594q-.094.062-.25.11-.141.046-.329.077-.172.031-.375.047-.203.031-.39.031-.328 0-.625-.093-.282-.094-.485-.297-.203-.203-.328-.516-.125-.328-.125-.781v-2.688h-1.297v-.64h1.297v-1.203zm6.848 6.125q-.047-.094-.078-.235-.032-.14-.047-.297-.125.125-.281.235-.157.11-.344.203-.188.078-.406.125-.22.062-.454.062-.39 0-.718-.109-.313-.125-.532-.313-.218-.203-.343-.468-.125-.266-.125-.563 0-.406.156-.703.172-.312.469-.516.297-.203.703-.296.422-.11.937-.11h.922v-.39q0-.22-.078-.391-.078-.188-.234-.313-.141-.125-.36-.187-.218-.078-.484-.078-.25 0-.453.062-.203.063-.344.172-.125.11-.203.25-.078.14-.078.297h-.844q0-.266.125-.516.14-.265.39-.468.266-.219.626-.344.359-.125.828-.125.406 0 .765.11.36.093.625.296.266.203.407.516.156.312.156.734v2.281q0 .25.047.532.047.265.125.468v.079zm-1.485-.641q.235 0 .454-.063.218-.062.39-.171.172-.11.297-.235.14-.14.203-.281v-1h-.781q-.734 0-1.156.219-.407.218-.407.687 0 .188.063.344.062.14.187.266.125.109.313.171.187.063.437.063zm7.067-4.375q.125 0 .25.016.125 0 .234.015.125.016.22.047.108.016.171.031l-.125.828q-.234-.046-.469-.078-.219-.03-.453-.03-.594 0-.969.28-.359.266-.53.75v3.157h-.845v-4.922h.797l.047.781q.297-.406.719-.64.422-.235.953-.235zm4.363-1.11v1.204h1.891v.64h-1.89v2.688q0 .281.078.469.078.187.203.296.125.11.28.157.173.047.36.047.14 0 .282-.016.156-.016.28-.031.141-.032.266-.047.125-.031.204-.047l.109.594q-.094.062-.25.11-.14.046-.328.077-.172.031-.375.047-.203.031-.39.031-.329 0-.626-.093-.281-.094-.484-.297-.203-.203-.328-.516-.125-.328-.125-.781v-2.688h-1.297v-.64h1.297v-1.203h.843zm8.083.22h-2.047v5.906h-.828v-5.907h-2.047v-.718h4.922v.718zm1.254.984h2.515v4.187h1.61v.735h-4.125v-.735h1.671v-3.453h-1.671zm1.562-1.297q0-.219.125-.36.125-.14.39-.14.25 0 .376.14.125.141.125.36 0 .203-.125.344-.125.125-.375.125-.266 0-.39-.125-.126-.141-.126-.344zm4.285 1.297.032.453q.156-.25.39-.39.25-.157.594-.157.672 0 .906.531.14-.25.375-.39.25-.141.594-.141.531 0 .828.328.297.328.297 1v3.688h-.812v-3.688q0-.625-.563-.61-.156 0-.266.048-.109.03-.187.109-.063.062-.11.156-.03.094-.046.188v3.797h-.797v-3.688q0-.297-.14-.453-.126-.172-.423-.156-.265 0-.406.11-.14.093-.219.265v3.922h-.797v-4.922zm7.395 5.015q-.516 0-.953-.172-.438-.187-.75-.5-.297-.328-.484-.765-.172-.438-.172-.953v-.188q0-.594.187-1.062.203-.469.516-.797.312-.328.719-.5.406-.172.828-.172.53 0 .922.187.406.172.671.5.266.329.391.782.14.437.14.953v.375h-3.53q.015.328.124.625.125.297.329.515.203.22.484.36.281.125.625.125.453 0 .797-.188.36-.187.594-.484l.515.406q-.125.188-.312.36-.188.171-.438.312-.234.125-.547.203-.297.078-.656.078zm-.11-4.422q-.25 0-.484.094-.218.094-.406.281-.187.172-.312.438t-.172.594h2.656v-.063q-.016-.234-.094-.469-.078-.25-.234-.437-.156-.203-.39-.313-.235-.125-.563-.125zm5.708-2.156-.094 1.672h-.625v-2.187h.719zm4.894 5.938q0-.14.032-.25.047-.125.125-.203.093-.094.203-.141.125-.063.297-.063.156 0 .281.063.125.047.203.14.094.079.14.204.048.11.048.25 0 .125-.047.25-.047.11-.14.203-.079.078-.204.125-.125.062-.281.062-.172 0-.297-.062-.11-.047-.203-.125-.078-.094-.125-.203-.032-.125-.032-.25zm0-4q0-.14.032-.25.047-.125.125-.203.093-.094.203-.141.125-.063.297-.063.156 0 .281.063.125.047.203.14.094.079.14.204.048.11.048.25 0 .125-.047.25-.047.11-.14.203-.079.078-.204.14-.125.047-.281.047-.172 0-.297-.047-.11-.062-.203-.14-.078-.094-.125-.203-.032-.125-.032-.25zm13.196 2.875q0-.313-.14-.516-.141-.219-.36-.36-.219-.14-.484-.234-.25-.093-.5-.172-.344-.109-.719-.265-.36-.172-.656-.406-.297-.235-.485-.547-.187-.313-.187-.75 0-.422.187-.75.188-.344.485-.578.312-.235.703-.344.39-.125.781-.125.438 0 .828.14.406.141.703.407.313.25.5.625.188.375.203.828h-.859q-.047-.297-.156-.531-.094-.235-.266-.391-.172-.172-.422-.266-.234-.093-.53-.093-.25 0-.485.078-.219.062-.407.203-.171.125-.28.328-.11.203-.11.469 0 .281.14.484.157.188.36.328.219.14.469.235.265.078.484.156.25.078.5.172.25.093.469.234.234.125.437.281.203.157.344.36.156.203.234.453.094.234.094.531 0 .453-.203.781-.188.328-.5.563-.313.219-.719.328-.39.11-.797.11-.437 0-.859-.141-.422-.14-.766-.39-.328-.267-.547-.626-.203-.375-.218-.844h.86q.046.297.171.547.125.235.328.406.203.157.469.25.265.079.562.079.25 0 .485-.063.25-.062.437-.187.188-.125.297-.329.125-.203.125-.468zm2.504-3.25.031.453q.157-.25.391-.39.25-.157.594-.157.672 0 .906.531.14-.25.375-.39.25-.141.594-.141.531 0 .828.328.297.328.297 1v3.688h-.813v-3.688q0-.625-.562-.61-.156 0-.266.048-.11.03-.187.109-.063.062-.11.156-.031.094-.047.188v3.797h-.796v-3.688q0-.297-.141-.453-.125-.172-.422-.156-.266 0-.406.11-.14.093-.219.265v3.922h-.797v-4.922zm5.348 0h2.516v4.187h1.609v.735h-4.125v-.735h1.672v-3.453h-1.672zm1.562-1.297q0-.219.125-.36.125-.14.391-.14.25 0 .375.14.125.141.125.36 0 .203-.125.344-.125.125-.375.125-.266 0-.39-.125-.126-.141-.126-.344z" fill="#000"/><path d="m161.75 249.158c0-6.283 5.094-11.376 11.376-11.376h166.225a11.376 11.376 0 0 1 11.376 11.376v45.5c0 6.283-5.093 11.376-11.376 11.376h-166.225c-6.282 0-11.375-5.093-11.375-11.375z" fill="#34a853" fill-rule="evenodd"/><path d="m161.75 249.158c0-6.283 5.094-11.376 11.376-11.376h166.225a11.376 11.376 0 0 1 11.376 11.376v45.5c0 6.283-5.093 11.376-11.376 11.376h-166.225c-6.282 0-11.375-5.093-11.375-11.375z" stroke="#666" stroke-linecap="butt" stroke-linejoin="round"/><path d="m197.99 262.664h-8.125v7.844h-3.672v-18.953h12.812v2.984h-9.14v5.157h8.125zm5.058-6.234h7.672v11.14h3.813v2.938h-11.485v-2.937h4.016v-8.188h-4.016zm3.75-3.61q0-.421.141-.78.156-.36.422-.61.281-.25.656-.39.39-.141.86-.141.968 0 1.53.547.563.53.563 1.375 0 .843-.562 1.39-.563.532-1.531.532-.47 0-.86-.141-.375-.14-.656-.39-.266-.266-.422-.61-.14-.36-.14-.781zm23.981 10.798q0 1.562-.36 2.89-.343 1.313-1.03 2.266-.688.937-1.72 1.469-1.015.53-2.39.53-1.234 0-2.14-.452-.907-.47-1.547-1.313l-.172 1.5h-3.266v-20h3.625v7.188q.625-.72 1.469-1.125.86-.407 2-.407 1.39 0 2.422.532 1.031.53 1.719 1.484.687.953 1.03 2.281.36 1.313.36 2.875zm-3.625-.282q0-.86-.14-1.625-.125-.765-.438-1.343-.312-.579-.86-.922-.546-.344-1.374-.344-.985 0-1.61.422-.609.422-.953 1.14v5.61q.344.734.953 1.156.625.406 1.641.406.812 0 1.344-.312.547-.328.86-.89.312-.563.437-1.329.14-.781.14-1.687zm13.762 7.438q-1.625 0-2.953-.531-1.328-.547-2.281-1.454-.953-.921-1.469-2.156-.516-1.25-.516-2.672v-.515q0-1.625.5-2.953.516-1.329 1.422-2.297.922-.97 2.172-1.5 1.25-.532 2.719-.532 1.516 0 2.703.5 1.203.5 2.031 1.422.828.907 1.25 2.188.438 1.281.438 2.828v1.531h-9.563q.11.719.422 1.313.328.593.813 1.03.5.423 1.14.657.64.235 1.39.235.532 0 1.063-.094.532-.11 1-.313.485-.203.907-.5.422-.312.734-.703l1.797 1.953q-.328.469-.875.938-.531.469-1.281.828-.735.344-1.64.562-.892.235-1.923.235zm-.437-11.688q-.61 0-1.125.219-.5.219-.89.625-.376.406-.642.969-.25.547-.39 1.234h5.937v-.281q-.015-.578-.218-1.078-.188-.516-.563-.875-.36-.375-.89-.594-.532-.219-1.22-.219zm19.715-2.922q.812 0 1.5.11.703.11 1.14.25l-.53 3.594q-.72-.172-1.47-.25-.75-.079-1.421-.079-1.532 0-2.454.594-.906.578-1.359 1.672v8.453h-3.625v-14.078h3.375l.172 2.297q.86-1.203 2.047-1.875 1.203-.688 2.625-.688zm18.246 14.344h-3.64l-5.282-12.219v12.22h-3.687v-18.954h3.687l5.235 12.172.015-12.172h3.672zm3.137-7.172q0-1.531.438-2.843.437-1.313 1.296-2.266.86-.969 2.079-1.516 1.234-.547 2.828-.547 1.578 0 2.812.547 1.25.547 2.094 1.516.86.953 1.297 2.266.437 1.312.437 2.843v.282q0 1.546-.437 2.859-.438 1.297-1.297 2.266-.844.953-2.078 1.5-1.235.53-2.813.53t-2.828-.53q-1.234-.547-2.094-1.5-.859-.97-1.296-2.266-.438-1.313-.438-2.86v-.28zm3.61.282q0 .875.171 1.656.172.765.532 1.344.375.578.953.921.578.344 1.39.344.797 0 1.36-.344.578-.343.937-.921.36-.579.531-1.344.172-.781.172-1.656v-.282q0-.86-.172-1.625-.171-.765-.53-1.343-.36-.594-.938-.938-.563-.344-1.375-.344-.813 0-1.39.344-.563.344-.938.938-.36.578-.532 1.343-.172.766-.172 1.625v.282zm12.496-.25q0-1.61.375-2.938t1.078-2.266q.719-.953 1.734-1.468 1.032-.532 2.344-.532 1.11 0 1.953.407.844.39 1.485 1.109v-7.172h3.64v20h-3.265l-.188-1.469q-.672.813-1.578 1.282-.89.453-2.063.453-1.296 0-2.328-.531-1.015-.547-1.718-1.5-.704-.954-1.094-2.266-.375-1.313-.375-2.844zm3.625.265q0 .89.14 1.656.157.75.485 1.329.344.562.875.89.547.313 1.312.313.938 0 1.547-.391.625-.406.985-1.11v-5.702q-.36-.72-.97-1.11-.609-.406-1.546-.406-.766 0-1.313.344-.53.328-.875.906-.328.578-.484 1.36-.156.765-.156 1.656zm19.59 7.14q-1.625 0-2.953-.53-1.328-.547-2.281-1.454-.954-.921-1.47-2.156-.515-1.25-.515-2.672v-.515q0-1.625.5-2.953.516-1.329 1.422-2.297.922-.97 2.172-1.5 1.25-.532 2.719-.532 1.515 0 2.703.5 1.203.5 2.031 1.422.828.907 1.25 2.188.438 1.281.438 2.828v1.531h-9.563q.11.719.422 1.313.328.593.812 1.03.5.423 1.141.657.64.235 1.39.235.532 0 1.063-.094.531-.11 1-.313.485-.203.906-.5.422-.312.735-.703l1.797 1.953q-.328.469-.875.938-.532.469-1.282.828-.734.344-1.64.562-.89.235-1.922.235zm-.438-11.687q-.609 0-1.125.219-.5.219-.89.625-.375.406-.64.969-.25.547-.391 1.234h5.937v-.281q-.016-.578-.219-1.078-.187-.516-.562-.875-.36-.375-.89-.594-.532-.219-1.22-.219zm-88.632 25.883.156 1.375q.532-.75 1.282-1.14.765-.407 1.687-.407.734 0 1.36.219.624.218 1.062.703.453.469.703 1.219.25.75.25 1.828v6.062h-2.531v-6.031q0-.578-.14-.953-.126-.39-.376-.61-.234-.218-.578-.296-.344-.094-.781-.094-.656 0-1.11.265-.453.266-.734.72v7h-2.547v-9.86zm8.555 4.844q0-1.079.312-1.985.313-.922.907-1.594.593-.687 1.453-1.062.86-.375 1.969-.375 1.125 0 1.984.375.86.375 1.453 1.062.61.672.906 1.594.313.906.313 1.985v.187q0 1.078-.313 2-.297.922-.89 1.594-.594.672-1.469 1.047-.86.375-1.953.375-1.125 0-2-.375-.86-.375-1.453-1.047-.594-.672-.907-1.594-.312-.922-.312-2v-.188zm2.531.187q0 .625.11 1.172.125.531.375.937.265.407.671.641.407.234.985.234.547 0 .937-.234.407-.234.657-.64.25-.407.375-.938.125-.547.125-1.172v-.188q0-.609-.125-1.14-.125-.547-.375-.953-.25-.406-.657-.64-.39-.235-.968-.235-.563 0-.97.234-.39.235-.655.64-.25.407-.375.954-.11.531-.11 1.14zm8.743-.172q0-1.125.265-2.047.266-.937.766-1.594.5-.671 1.203-1.03.719-.36 1.64-.36.782 0 1.36.281.594.266 1.047.781v-5.03h2.547v14h-2.297l-.125-1.032q-.469.578-1.094.906-.625.313-1.453.313-.906 0-1.625-.375-.703-.391-1.203-1.047-.5-.672-.766-1.578-.265-.922-.265-2zm2.53.188q0 .625.11 1.156.11.531.344.937.234.391.61.625.374.22.906.22.656 0 1.093-.282.438-.281.688-.781v-3.985q-.25-.5-.688-.781-.421-.281-1.078-.281-.531 0-.906.234-.375.235-.625.64-.234.407-.344.954-.11.531-.11 1.156zm13.712 5q-1.14 0-2.078-.375-.922-.375-1.594-1.016-.656-.64-1.015-1.516-.36-.875-.36-1.859v-.375q0-1.125.36-2.047.359-.937.984-1.61.64-.687 1.516-1.046.875-.375 1.906-.375 1.062 0 1.89.344.844.343 1.422.984.579.64.875 1.547.313.89.313 1.969v1.078h-6.688q.063.5.282.922.234.406.578.718.344.297.781.47.453.155.984.155.375 0 .735-.078.375-.078.703-.219.344-.14.64-.343.297-.219.516-.5l1.266 1.375q-.235.328-.625.656-.375.328-.89.578-.516.25-1.141.406-.625.157-1.36.157zm-.297-8.172q-.422 0-.781.156-.36.14-.625.422-.266.281-.453.672-.188.39-.266.875h4.14v-.203q-.015-.391-.155-.75-.125-.36-.391-.61-.25-.265-.625-.406-.36-.156-.844-.156zm12.915 7.984h-2.563v-10.172l-3.344 1.203v-2.203l5.766-2.094h.14v13.266z" fill="#fff"/><path d="m174.372 306.212h163.496v59.716h-163.496z" fill="#bdbdbd" fill-rule="evenodd"/><path d="m174.372 306.212h163.496v59.716h-163.496z" stroke="#666" stroke-linecap="butt" stroke-linejoin="round"/><path d="m261.668 338.079q0 1.625-.375 2.89-.375 1.266-1.078 2.125-.703.86-1.718 1.313-1.016.437-2.329.437-1.312 0-2.343-.437-1.016-.453-1.735-1.313-.703-.86-1.093-2.125-.375-1.265-.375-2.89v-4q0-1.625.375-2.875.375-1.266 1.078-2.125.718-.875 1.734-1.329 1.031-.453 2.328-.453 1.313 0 2.328.453 1.032.454 1.735 1.329.718.859 1.093 2.125.375 1.25.375 2.875zm-8.875-.438 6.657-5.094q-.188-1.703-1-2.578-.797-.89-2.313-.89-1.703 0-2.531 1.156-.813 1.156-.813 3.375zm6.704-3.016-6.641 5.079q.203 1.64 1.016 2.515.828.86 2.296.86 1.72 0 2.516-1.172.813-1.172.813-3.375z" fill="#000"/><path d="m693.672 82.726c0-6.283 5.093-11.376 11.375-11.376h142.068a11.376 11.376 0 0 1 11.376 11.376v45.5c0 6.283-5.093 11.376-11.376 11.376h-142.068c-6.282 0-11.375-5.093-11.375-11.375z" fill="#ff9800" fill-rule="evenodd"/><path d="m693.672 82.726c0-6.283 5.093-11.376 11.375-11.376h142.068a11.376 11.376 0 0 1 11.376 11.376v45.5c0 6.283-5.093 11.376-11.376 11.376h-142.068c-6.282 0-11.375-5.093-11.375-11.375z" stroke="#666" stroke-linecap="butt" stroke-linejoin="round"/><path d="m747.637 99.123q0-.5-.187-.937-.172-.453-.594-.828-.422-.391-1.11-.704-.671-.328-1.687-.593-1.234-.344-2.36-.844-1.124-.516-1.984-1.219-.859-.719-1.375-1.672-.515-.953-.515-2.187 0-1.203.5-2.172.515-.984 1.406-1.672.906-.687 2.125-1.062 1.219-.375 2.656-.375 1.485 0 2.703.437 1.235.422 2.125 1.203.891.781 1.375 1.844.5 1.063.5 2.344h-3.562q-.031-.64-.234-1.172-.204-.531-.61-.906-.39-.391-.984-.61-.578-.219-1.375-.219-.735 0-1.297.188-.563.172-.953.484-.39.313-.594.75-.203.438-.203.954 0 .53.266.968.265.422.765.766.516.344 1.235.64.718.282 1.64.516 1.297.39 2.39.938 1.095.546 1.876 1.296.797.735 1.234 1.704.438.953.438 2.125 0 1.25-.516 2.218-.5.97-1.39 1.641-.876.672-2.094 1.016-1.22.343-2.672.343-.89 0-1.781-.171-.891-.157-1.72-.485-.812-.344-1.515-.844-.703-.515-1.219-1.187-.5-.688-.796-1.547-.297-.86-.297-1.906h3.593q.032.86.297 1.484.282.61.766 1 .484.39 1.172.578.687.172 1.5.172.734 0 1.297-.172.562-.172.953-.469.39-.296.594-.718.218-.422.218-.938zm9.903-7.187q.703-1.032 1.703-1.61 1.016-.593 2.266-.593 1.11 0 2.03.343.923.329 1.58 1.032.67.687 1.046 1.796.375 1.094.375 2.641v8.531h-3.625v-8.546q0-.766-.188-1.313-.187-.547-.546-.875-.344-.344-.844-.5-.485-.172-1.11-.172-.921 0-1.593.328-.657.328-1.094.906v10.172h-3.625v-20h3.625zm21.184 12.14q-.14-.265-.235-.593-.078-.344-.156-.72-.297.329-.687.61-.391.281-.875.5-.47.219-1.047.344-.563.125-1.219.125-1.078 0-1.984-.313-.907-.312-1.563-.874-.656-.563-1.015-1.329-.36-.78-.36-1.687 0-2.234 1.656-3.453 1.657-1.219 4.954-1.219h2.015v-.828q0-1.016-.672-1.61-.656-.593-1.906-.593-1.11 0-1.625.484-.5.469-.5 1.266h-3.61q0-.907.391-1.703.407-.813 1.157-1.422.765-.61 1.859-.969 1.11-.36 2.531-.36 1.266 0 2.36.313 1.109.313 1.906.922.812.61 1.265 1.547.47.922.47 2.156v6.031q0 1.141.14 1.891.14.734.406 1.266v.218zm-3.453-2.53q.547 0 1.015-.126.469-.14.844-.344.375-.218.64-.484.282-.266.438-.531v-2.422h-1.844q-.843 0-1.453.156-.593.156-.968.453-.375.297-.563.703-.187.407-.187.891 0 .734.515 1.219.516.484 1.563.484zm23.293-4.376q0 1.531-.36 2.844-.359 1.312-1.062 2.281-.688.953-1.719 1.5-1.015.547-2.343.547-1.141 0-2-.39-.86-.391-1.5-1.094v6.64h-3.61v-19.5h3.344l.125 1.375q.656-.781 1.531-1.203.89-.437 2.078-.437 1.344 0 2.36.515 1.03.516 1.734 1.469.703.938 1.063 2.266.359 1.312.359 2.906zm-3.61-.281q0-.875-.171-1.656-.157-.782-.5-1.344-.344-.563-.891-.89-.547-.329-1.313-.329-.953 0-1.562.375-.594.375-.938 1.047v5.89q.344.657.938 1.063.61.39 1.594.39.765 0 1.297-.327.547-.344.89-.922.344-.594.5-1.375.157-.782.157-1.64v-.282zm13.794 7.453q-1.625 0-2.953-.531-1.329-.547-2.282-1.453-.953-.922-1.468-2.157-.516-1.25-.516-2.671v-.516q0-1.625.5-2.953.516-1.328 1.422-2.297.922-.969 2.172-1.5t2.718-.531q1.516 0 2.704.5 1.203.5 2.03 1.421.829.907 1.25 2.188.438 1.281.438 2.828v1.531h-9.562q.11.72.422 1.313.328.594.812 1.031.5.422 1.14.656.641.235 1.391.235.532 0 1.063-.094.531-.11 1-.313.484-.203.906-.5.422-.312.735-.703l1.796 1.954q-.328.468-.875.937-.53.469-1.28.828-.735.344-1.641.563-.891.234-1.922.234zm-.438-11.688q-.61 0-1.125.22-.5.218-.89.624-.375.406-.641.969-.25.547-.39 1.234h5.937v-.28q-.016-.579-.219-1.079-.187-.516-.562-.875-.36-.375-.891-.594-.531-.219-1.219-.219zm-68.272 30.352q0-1.281.187-2.422.203-1.14.531-2.094.344-.969.797-1.75.453-.797.953-1.406.5-.61 1.032-1.031.53-.422 1.03-.657l.5 1.391q-.515.39-1.03 1.047-.5.656-.907 1.64-.406.985-.672 2.282-.25 1.297-.25 2.984v.235q0 1.687.25 2.984.266 1.297.672 2.281.407.984.907 1.64.515.673 1.03 1.063l-.5 1.36q-.5-.22-1.03-.657-.532-.421-1.032-1.03-.5-.595-.953-1.392-.453-.796-.797-1.75-.328-.968-.531-2.093-.188-1.14-.188-2.422v-.203zm14.117 5.578q-1.14 0-2.078-.375-.922-.375-1.594-1.016-.656-.64-1.016-1.515-.359-.875-.359-1.86v-.375q0-1.125.36-2.047.359-.937.984-1.609.64-.688 1.515-1.047.875-.375 1.907-.375 1.062 0 1.89.344.844.344 1.422.984t.875 1.547q.313.89.313 1.969v1.078h-6.688q.063.5.281.922.235.406.579.719.343.297.78.468.454.157.985.157.375 0 .735-.078.375-.079.703-.22.343-.14.64-.343.297-.219.516-.5l1.266 1.375q-.235.328-.625.656-.375.328-.891.578-.516.25-1.14.407-.626.156-1.36.156zm-.297-8.172q-.422 0-.781.156-.36.14-.625.422-.266.281-.453.672-.188.39-.266.875h4.14v-.203q-.015-.39-.156-.75-.125-.36-.39-.61-.25-.265-.625-.406-.36-.156-.844-.156zm8.29-1.875.078 1.203q.28-.64.765-1 .5-.375 1.219-.375 1.187 0 1.562 1.047.282-.5.735-.766.453-.28 1.094-.28.437 0 .828.171.39.156.672.516.296.359.453.922.156.562.156 1.39v7.031h-2.313v-7.046q0-.282-.062-.454-.047-.187-.156-.28-.094-.11-.235-.157-.125-.047-.265-.047-.266 0-.453.125-.172.125-.266.328v7.531h-2.234v-7.046q0-.282-.063-.47-.047-.187-.14-.28-.094-.094-.235-.141-.125-.047-.266-.047-.296 0-.468.172-.172.156-.282.437v7.375h-2.296v-9.859h2.171zm18.476 5.016q0 1.078-.25 2-.25.922-.75 1.593-.484.672-1.203 1.063-.719.375-1.64.375-.797 0-1.407-.266-.594-.281-1.031-.781v4.656h-2.531v-13.656h2.328l.094.969q.453-.547 1.078-.844.625-.297 1.453-.297.937 0 1.656.36.719.359 1.203 1.015.5.656.75 1.578t.25 2.047zm-2.531-.188q0-.61-.125-1.156-.11-.547-.36-.938-.234-.406-.609-.625-.375-.234-.906-.234-.672 0-1.094.266-.422.265-.656.734v4.11q.234.468.656.75.422.28 1.11.28.53 0 .906-.234.39-.25.625-.656.234-.406.344-.953.109-.547.109-1.156zm9.524-7.234v2.406h3.672v1.875h-3.672v4.234q0 .532.109.891.125.36.344.578.234.219.562.313.328.078.719.078.297 0 .594-.016.312-.031.594-.062.28-.047.515-.094.25-.047.422-.094l.234 1.735q-.25.156-.609.28-.36.11-.766.173-.39.078-.828.109-.437.047-.843.047-.813 0-1.485-.203-.656-.219-1.125-.672-.469-.453-.734-1.14-.25-.704-.25-1.673v-4.484h-2.25v-1.875h2.25v-2.406zm10.742 8.125.297 1.062 2.625-6.781h2.797l-5.016 11.328q-.156.375-.422.813-.25.437-.64.812-.39.375-.953.625-.563.266-1.329.266-.187 0-.343-.016-.157-.016-.297-.047-.14-.015-.281-.047-.141-.03-.313-.078l.313-1.922h.39q.25.016.39.016.298 0 .532-.188.234-.171.39-.39.173-.219.266-.406.11-.172.141-.172l.61-1.156-4.173-9.438h2.782zm13.743-1.047q0 1.25-.204 2.36-.203 1.109-.546 2.077-.344.97-.813 1.766-.453.797-.984 1.422-.516.625-1.063 1.062-.547.438-1.062.657l-.485-1.36q.5-.39 1.016-1.062.516-.656.922-1.625t.656-2.281q.266-1.313.266-3v-.235q0-1.687-.266-2.984-.266-1.313-.687-2.297-.407-.984-.907-1.656-.5-.672-1-1.047l.485-1.36q.515.235 1.062.672.547.438 1.063 1.063.531.625.984 1.422.469.797.813 1.765.343.953.546 2.078.204 1.11.204 2.36z" fill="#fff"/><path d="m350.727 271.908c85.707 0 128.56 22.142 171.414 44.284 42.854 22.141 85.71 44.283 171.42 44.283" fill="none"/><path d="m350.727 271.908c85.707 0 128.56 22.142 171.414 44.284 21.427 11.07 42.855 22.141 69.64 30.444 13.392 4.152 28.123 7.612 44.864 10.033 8.37 1.211 17.242 2.163 26.7 2.811a398.12 398.12 0 0 0 5.383.333l.842.045" stroke="#595959" stroke-linecap="butt" stroke-linejoin="round" stroke-width="4"/><path d="m669.4 366.462 18.316-6.137-17.976-7.072z" fill="#595959" fill-rule="evenodd" stroke="#595959" stroke-linecap="butt" stroke-width="4"/><path d="m776.081 139.602v41.575" fill="none"/><path d="m776.081 151.602v17.575" stroke="#666" stroke-linecap="butt" stroke-linejoin="round" stroke-width="2"/><path d="m779.385 151.602-3.304-9.076-3.303 9.076zm-6.607 17.575 3.303 9.076 3.304-9.076z" fill="#666" fill-rule="evenodd" stroke="#666" stroke-linecap="butt" stroke-width="2"/><path d="m776.081 134.848h183.906v51.086h-183.907z" fill="none"/><path d="m789.331 155.91-.14 2.406h-.89v-3.125h1.03zm9.514 9.281q-.078-.14-.125-.344-.031-.203-.062-.422-.172.188-.407.344-.218.156-.5.281-.265.125-.578.188-.297.078-.64.078-.563 0-1.016-.156-.453-.156-.766-.438-.312-.28-.484-.656-.172-.39-.172-.828 0-.578.235-1.016.234-.437.656-.718.422-.297 1.015-.438.594-.14 1.329-.14h1.312v-.563q0-.313-.125-.563-.11-.265-.328-.437-.203-.172-.516-.266-.312-.11-.703-.11-.344 0-.64.095-.282.093-.485.25-.187.14-.297.343-.093.204-.093.422h-1.22q.016-.375.204-.75.187-.375.547-.672.36-.296.875-.468.531-.188 1.187-.188.594 0 1.11.156.515.141.89.438.375.297.578.734.22.438.22 1.032v3.28q0 .345.062.75.062.391.187.673v.11h-1.25zm-2.14-.922q.359 0 .656-.078.312-.094.562-.25.25-.156.422-.344.188-.187.297-.39v-1.438h-1.125q-1.047 0-1.64.313-.579.312-.579.984 0 .266.078.484.094.22.266.391.188.156.453.25.266.078.61.078zm8.498.078q.328 0 .64-.093.313-.11.547-.297.25-.188.39-.438.142-.25.157-.547h1.14q-.015.47-.25.907-.234.421-.64.75-.39.312-.906.5-.516.187-1.078.187-.797 0-1.39-.281-.595-.281-1-.766-.407-.484-.61-1.125-.188-.64-.188-1.344v-.265q0-.703.188-1.328.203-.64.61-1.125.405-.485 1-.766.593-.297 1.39-.297.625 0 1.156.203.531.188.906.532.375.343.594.812.219.469.219 1h-1.14q-.016-.312-.157-.594-.125-.28-.36-.5-.218-.218-.53-.343-.313-.125-.688-.125-.547 0-.938.234-.375.219-.61.578-.233.36-.343.813-.094.453-.094.906v.265q0 .47.094.922.11.453.344.813.234.36.61.594.374.218.937.218zm7.857-7.906v1.703h2.688v.938h-2.688v3.828q0 .406.094.672.11.265.297.437.187.156.422.219.234.062.5.062.203 0 .406-.015l.406-.063q.203-.03.375-.062.172-.047.282-.063l.171.844q-.156.094-.375.172-.203.062-.468.11-.25.046-.532.062-.28.031-.562.031-.469 0-.875-.125-.406-.14-.703-.422-.297-.297-.485-.75-.171-.469-.171-1.11v-3.827h-1.844v-.938h1.844v-1.703zm9.717 7.781q-.36.516-.89.813-.516.281-1.204.281-.562 0-1.015-.172-.438-.172-.766-.531-.312-.36-.484-.922t-.172-1.36v-4.187h1.203v4.203q0 .578.094.953t.265.61q.188.219.454.312.265.078.609.078.734 0 1.187-.296.454-.297.672-.797v-5.063h1.203v7.047h-1.093zm8.06.97q-.077-.142-.124-.345l-.063-.422q-.171.188-.406.344-.219.156-.5.281-.265.125-.578.188-.297.078-.64.078-.563 0-1.016-.156-.453-.156-.766-.438-.312-.28-.484-.656-.172-.39-.172-.828 0-.578.234-1.016.235-.437.657-.718.421-.297 1.015-.438.594-.14 1.328-.14h1.313v-.563q0-.313-.125-.563-.11-.265-.328-.437-.203-.172-.516-.266-.312-.11-.703-.11-.344 0-.64.095-.282.093-.485.25-.188.14-.297.343-.094.204-.094.422h-1.218q.015-.375.203-.75.187-.375.547-.672.359-.296.875-.468.53-.188 1.187-.188.594 0 1.11.156.515.141.89.438.375.297.578.734.219.438.219 1.032v3.28q0 .345.062.75.063.391.188.673v.11h-1.25zm-2.14-.923q.36 0 .657-.078.312-.094.562-.25.25-.156.422-.344.187-.187.297-.39v-1.438h-1.125q-1.047 0-1.64.313-.579.312-.579.984 0 .266.078.484.094.22.266.391.187.156.453.25.266.078.61.078zm5.702-9.078h3.593v8.953h2.297v1.047h-5.89v-1.047h2.39v-7.906h-2.39zm12.763 7.61q0-.438-.203-.735t-.515-.5q-.313-.219-.688-.344-.36-.14-.719-.25-.5-.172-1.015-.39-.516-.235-.938-.563-.422-.328-.703-.781-.265-.453-.265-1.063 0-.625.265-1.093.281-.485.703-.813.438-.344.985-.515.562-.172 1.125-.172.625 0 1.187.203.578.203 1.016.578.453.375.719.906.265.516.28 1.172h-1.25q-.046-.406-.202-.734-.141-.344-.391-.578-.25-.25-.594-.375-.328-.141-.765-.141-.344 0-.672.11-.328.093-.594.296-.25.188-.406.469-.156.281-.156.656.015.422.218.703.203.282.5.485.313.187.672.312.36.125.688.235.343.109.703.25.36.14.687.328.344.172.625.406.282.219.5.516.219.28.328.64.125.344.125.766 0 .64-.28 1.125-.282.469-.735.781-.438.313-1.016.469-.562.156-1.125.156-.64 0-1.25-.187-.594-.204-1.078-.563-.469-.375-.781-.906-.297-.531-.313-1.203h1.235q.062.437.234.78.188.345.469.595.297.234.656.36.375.108.828.108.344 0 .688-.078.343-.093.609-.28.266-.188.438-.47.171-.28.171-.672zm5.89-6.36v1.703h2.687v.938h-2.688v3.828q0 .406.094.672.11.265.297.437.187.156.422.219.234.062.5.062.203 0 .406-.015l.406-.063q.203-.03.375-.062.172-.047.281-.063l.172.844q-.156.094-.375.172-.203.062-.468.11-.25.046-.532.062-.28.031-.562.031-.469 0-.875-.125-.406-.14-.703-.422-.297-.297-.485-.75-.172-.469-.172-1.11v-3.827h-1.843v-.938h1.843v-1.703zm9.779 8.75q-.078-.14-.125-.344-.032-.203-.063-.422-.172.188-.406.344-.219.156-.5.281-.266.125-.578.188-.297.078-.64.078-.563 0-1.016-.156-.454-.156-.766-.438-.313-.28-.484-.656-.172-.39-.172-.828 0-.578.234-1.016.234-.437.656-.718.422-.297 1.016-.438.594-.14 1.328-.14h1.313v-.563q0-.313-.125-.563-.11-.265-.329-.437-.203-.172-.515-.266-.313-.11-.703-.11-.344 0-.641.095-.281.093-.484.25-.188.14-.297.343-.094.204-.094.422h-1.219q.016-.375.203-.75.188-.375.547-.672.36-.296.875-.468.532-.188 1.188-.188.594 0 1.11.156.515.141.89.438.375.297.578.734.219.438.219 1.032v3.28q0 .345.062.75.063.391.188.673v.11h-1.25zm-2.141-.922q.36 0 .656-.078.313-.094.563-.25.25-.156.422-.344.187-.187.297-.39v-1.438h-1.125q-1.047 0-1.641.313-.578.312-.578.984 0 .266.078.484.094.22.266.391.187.156.453.25.265.078.609.078zm10.123-6.25q.172 0 .344.016.187 0 .344.031.172.016.312.047t.235.078l-.172 1.172q-.344-.078-.657-.11-.312-.03-.656-.03-.86 0-1.39.39-.516.375-.766 1.062v4.516h-1.203v-7.047h1.14l.063 1.125q.437-.578 1.031-.906.61-.344 1.375-.344zm6.233-1.578v1.703h2.687v.938h-2.687v3.828q0 .406.094.672.109.265.296.437.188.156.422.219.235.062.5.062.203 0 .407-.015l.406-.063q.203-.03.375-.062.172-.047.281-.063l.172.844q-.156.094-.375.172-.203.062-.469.11-.25.046-.531.062-.281.031-.563.031-.468 0-.875-.125-.406-.14-.703-.422-.297-.297-.484-.75-.172-.469-.172-1.11v-3.827h-1.844v-.938h1.844v-1.703zm11.53.297h-2.923v8.453h-1.172v-8.453h-2.921v-1.016h7.015v1.016zm1.81 1.406h3.594v6h2.296v1.047h-5.89v-1.047h2.39v-4.953h-2.39zm2.234-1.844q0-.296.172-.5.188-.203.547-.203.36 0 .531.203.188.204.188.5 0 .297-.188.5-.172.188-.531.188-.36 0-.547-.188-.172-.203-.172-.5zm6.123 1.844.032.672q.218-.375.562-.578.344-.219.844-.219.969 0 1.297.75.203-.328.547-.531.343-.219.828-.219.781 0 1.187.485.422.468.422 1.421v5.266h-1.14v-5.266q0-.89-.813-.89-.219 0-.375.062-.156.063-.266.172-.093.094-.156.235-.062.125-.078.265v5.422h-1.156v-5.281q0-.422-.188-.64-.187-.235-.593-.235-.375 0-.594.156-.203.156-.297.39v5.61h-1.14v-7.047zm10.561 7.172q-.75 0-1.375-.25-.61-.25-1.062-.703-.438-.453-.688-1.078-.25-.625-.25-1.375v-.266q0-.86.266-1.531.281-.672.734-1.125.453-.469 1.031-.719.579-.25 1.188-.25.75 0 1.312.266.579.265.954.734.375.453.562 1.094.188.625.188 1.36v.546h-5.032q.032.485.188.906.172.422.453.735.297.312.687.5.407.172.907.172.64 0 1.14-.25.5-.266.828-.688l.735.563q-.172.265-.438.515-.265.25-.61.438-.343.187-.78.297-.438.11-.938.11zm-.156-6.312q-.375 0-.703.14-.313.125-.578.39-.266.25-.453.626-.172.375-.235.86h3.781v-.079q-.015-.36-.14-.703-.11-.344-.328-.61-.22-.28-.563-.453-.328-.171-.781-.171zm8.154-3.094-.14 2.406h-.89v-3.125h1.03z" fill="#000"/><path d="m775.971 279.611v46.74" fill="none"/><path d="m775.971 291.611v22.74" stroke="#666" stroke-linecap="butt" stroke-linejoin="round" stroke-width="2"/><path d="m779.275 291.611-3.304-9.076-3.303 9.076zm-6.607 22.741 3.303 9.076 3.304-9.076z" fill="#666" fill-rule="evenodd" stroke="#666" stroke-linecap="butt" stroke-width="2"/><path d="m693.556 337.73c0-6.283 5.093-11.376 11.376-11.376h142.068a11.376 11.376 0 0 1 11.375 11.376v45.5c0 6.283-5.093 11.376-11.375 11.376h-142.068c-6.283 0-11.376-5.093-11.376-11.375z" fill="#ff9800" fill-rule="evenodd"/><path d="m693.556 337.73c0-6.283 5.093-11.376 11.376-11.376h142.068a11.376 11.376 0 0 1 11.375 11.376v45.5c0 6.283-5.093 11.376-11.375 11.376h-142.068c-6.283 0-11.376-5.093-11.376-11.375z" stroke="#666" stroke-linecap="butt" stroke-linejoin="round"/><path d="m747.522 351.127q0-.5-.188-.937-.172-.453-.593-.828-.422-.391-1.11-.704-.672-.328-1.687-.593-1.235-.344-2.36-.844-1.125-.516-1.984-1.219-.86-.719-1.375-1.672-.516-.953-.516-2.187 0-1.203.5-2.172.516-.984 1.407-1.672.906-.687 2.125-1.062 1.218-.375 2.656-.375 1.484 0 2.703.437 1.234.422 2.125 1.203.89.781 1.375 1.844.5 1.062.5 2.344h-3.563q-.03-.64-.234-1.172-.203-.531-.61-.906-.39-.391-.984-.61-.578-.219-1.375-.219-.734 0-1.297.188-.562.172-.953.484-.39.313-.593.75-.204.438-.204.953 0 .532.266.97.266.421.766.765.515.344 1.234.64.719.282 1.64.516 1.298.39 2.391.938 1.094.546 1.875 1.296.797.735 1.235 1.704.437.953.437 2.125 0 1.25-.515 2.218-.5.97-1.391 1.641-.875.672-2.094 1.016-1.219.343-2.672.343-.89 0-1.78-.172-.892-.156-1.72-.484-.812-.344-1.515-.844-.703-.515-1.219-1.187-.5-.688-.797-1.547-.297-.86-.297-1.906h3.594q.031.86.297 1.484.281.61.765 1 .485.39 1.172.578.688.172 1.5.172.735 0 1.297-.172.563-.172.953-.469.391-.296.594-.718.219-.422.219-.938zm9.902-7.187q.704-1.032 1.704-1.61 1.015-.593 2.265-.593 1.11 0 2.031.343.922.328 1.579 1.032.671.687 1.046 1.796.375 1.094.375 2.641v8.531h-3.624v-8.547q0-.765-.187-1.312-.188-.547-.547-.875-.344-.344-.844-.5-.484-.172-1.109-.172-.922 0-1.594.328-.656.328-1.094.906v10.172h-3.625v-20h3.625v7.86zm21.184 12.14q-.14-.265-.234-.593-.078-.344-.156-.72-.297.329-.688.61-.39.281-.875.5-.469.219-1.047.344-.562.125-1.218.125-1.079 0-1.985-.313-.906-.312-1.562-.875-.657-.562-1.016-1.328-.36-.78-.36-1.687 0-2.235 1.657-3.453 1.656-1.219 4.953-1.219h2.016v-.828q0-1.016-.672-1.61-.656-.593-1.906-.593-1.11 0-1.625.484-.5.469-.5 1.266h-3.61q0-.907.39-1.703.407-.813 1.157-1.422.766-.61 1.86-.969 1.109-.36 2.53-.36 1.266 0 2.36.313 1.11.313 1.906.922.813.61 1.266 1.547.469.922.469 2.156v6.031q0 1.141.14 1.891.141.734.407 1.266v.218zm-3.453-2.53q.547 0 1.016-.126.469-.14.844-.344.375-.218.64-.484.281-.266.438-.531v-2.422h-1.844q-.844 0-1.453.156-.594.156-.969.453-.375.297-.562.703-.188.407-.188.891 0 .734.516 1.219.515.484 1.562.484zm23.293-4.376q0 1.531-.359 2.844-.36 1.312-1.062 2.281-.688.953-1.72 1.5-1.015.547-2.343.547-1.14 0-2-.39-.86-.391-1.5-1.094v6.64h-3.61v-19.5h3.344l.125 1.375q.657-.781 1.532-1.203.89-.437 2.078-.437 1.344 0 2.36.515 1.03.516 1.734 1.469.703.937 1.062 2.266.36 1.312.36 2.906v.281zm-3.609-.281q0-.875-.172-1.656-.156-.782-.5-1.344-.344-.563-.89-.89-.547-.329-1.313-.329-.953 0-1.562.375-.594.375-.938 1.047v5.89q.344.657.938 1.063.609.39 1.593.39.766 0 1.297-.327.547-.344.89-.922.345-.594.5-1.375.157-.782.157-1.64zm13.793 7.453q-1.625 0-2.953-.531-1.328-.547-2.281-1.453-.953-.922-1.469-2.157-.515-1.25-.515-2.672v-.515q0-1.625.5-2.953.515-1.328 1.421-2.297.922-.969 2.172-1.5t2.719-.531q1.516 0 2.703.5 1.203.5 2.031 1.421.829.907 1.25 2.188.438 1.281.438 2.828v1.531h-9.563q.11.72.422 1.313.328.594.813 1.031.5.422 1.14.656.641.235 1.391.235.531 0 1.063-.094.53-.11 1-.313.484-.203.906-.5.422-.312.734-.703l1.797 1.953q-.328.47-.875.938-.531.469-1.281.828-.735.344-1.64.563-.891.234-1.923.234zm-.437-11.688q-.61 0-1.125.22-.5.218-.89.624-.376.406-.641.969-.25.547-.391 1.234h5.937v-.28q-.015-.579-.218-1.079-.188-.516-.563-.875-.36-.375-.89-.594-.532-.219-1.22-.219zm-91.423 25.874q0-.829.125-1.547.14-.735.343-1.344.22-.625.5-1.14.297-.516.625-.907.328-.39.672-.656.344-.281.656-.422l.313.89q-.328.25-.656.672-.328.422-.594 1.063-.25.625-.422 1.469-.156.828-.156 1.906v.156q0 1.078.156 1.922.172.844.422 1.469.266.625.594 1.047.328.437.656.687l-.313.875q-.312-.14-.656-.422-.344-.265-.672-.656-.328-.39-.625-.906-.28-.5-.5-1.125-.203-.625-.343-1.344-.125-.734-.125-1.562zm9.966 3.468q-.047-.125-.093-.265-.047-.157-.063-.328-.14.14-.328.28-.172.126-.39.22-.204.093-.47.156-.25.062-.546.062-.485 0-.89-.14-.407-.157-.704-.407-.297-.25-.469-.593-.156-.344-.156-.766 0-1 .75-1.547.75-.547 2.234-.547h.907v-.375q0-.453-.297-.718-.297-.266-.86-.266-.5 0-.734.219-.234.203-.234.562h-1.625q0-.406.171-.765.188-.36.532-.641.343-.281.828-.438.5-.156 1.14-.156.579 0 1.063.14.5.141.86.423.374.265.577.687.204.422.204.969v2.719q0 .5.062.843.063.329.188.579v.093zm-1.547-1.14q.25 0 .454-.063.218-.062.39-.156.172-.094.281-.203.125-.125.204-.25v-1.094h-.829q-.39 0-.656.078-.265.078-.437.219-.172.125-.266.312-.078.172-.078.391 0 .328.234.547.235.219.703.219zm7.608-.047q.234 0 .453-.063.219-.078.375-.203.172-.125.25-.312.094-.188.094-.407h1.531q.016.5-.203.922-.219.422-.594.735-.36.297-.86.468-.484.172-1.03.172-.735 0-1.297-.25-.547-.25-.922-.687-.375-.438-.563-1.016-.187-.578-.187-1.25v-.172q0-.672.187-1.25.188-.593.563-1.015.375-.438.922-.688.562-.25 1.297-.25.578 0 1.078.172.5.172.859.5.36.313.563.766.203.453.187 1.015h-1.531q0-.234-.078-.437-.078-.219-.235-.36-.156-.156-.39-.25-.22-.093-.485-.093-.39 0-.64.156t-.407.422q-.14.265-.203.61-.062.343-.062.702v.172q0 .375.062.719.063.344.203.61.157.25.407.406.25.156.656.156zm7.373-6.703v1.547h2.375v1.203h-2.375v2.718q0 .36.078.594.078.219.219.36.156.14.36.203.218.047.468.047.187 0 .375-.016l.375-.031q.187-.032.344-.063.156-.031.265-.062l.157 1.125q-.172.093-.407.172-.218.062-.484.109-.25.062-.531.078-.266.031-.547.031-.516 0-.938-.14-.422-.14-.734-.422-.297-.297-.469-.735-.156-.453-.156-1.078v-2.89h-1.453v-1.203h1.453v-1.547zm8.264 7q-.329.468-.782.75-.453.265-1 .265-.484 0-.906-.156-.406-.156-.703-.484-.281-.328-.453-.844-.156-.516-.156-1.234v-3.75h1.64v3.765q0 .39.047.656.063.25.172.422.125.157.328.235.203.062.484.062.485 0 .782-.187.312-.188.484-.5v-4.453h1.625v6.343h-1.469zm7.107.89q-.047-.125-.094-.265-.047-.157-.062-.328-.14.14-.328.28-.172.126-.391.22-.203.093-.469.156-.25.062-.547.062-.484 0-.89-.14-.406-.157-.703-.407-.297-.25-.47-.593-.155-.344-.155-.766 0-1 .75-1.547.75-.547 2.234-.547h.906v-.375q0-.453-.297-.718-.296-.266-.859-.266-.5 0-.734.219-.235.203-.235.562h-1.625q0-.406.172-.765.188-.36.531-.641.344-.281.829-.438.5-.156 1.14-.156.578 0 1.063.14.5.141.859.423.375.265.578.687.203.422.203.969v2.719q0 .5.063.843.062.329.187.579v.093zm-1.547-1.14q.25 0 .453-.063.219-.062.39-.156.173-.094.282-.203.125-.125.203-.25v-1.094h-.828q-.39 0-.656.078t-.438.219q-.171.125-.265.312-.078.172-.078.391 0 .328.234.547.234.219.703.219zm5.139-7.86h3.547v7.672h1.812v1.328h-5.36v-1.328h1.891v-6.344h-1.89zm11.232 6.766q0-.219-.078-.422-.078-.203-.281-.375-.188-.172-.5-.312-.297-.141-.75-.266-.563-.156-1.078-.375-.5-.234-.89-.547-.376-.328-.61-.75-.235-.437-.235-1 0-.531.22-.969.234-.437.64-.75.406-.312.953-.484.547-.172 1.203-.172t1.203.203q.563.188.953.547.407.344.625.828.235.469.235 1.047h-1.61q-.015-.281-.11-.516-.077-.25-.265-.421-.172-.172-.437-.266-.266-.11-.625-.11-.328 0-.594.094-.25.078-.422.22-.172.14-.265.343-.094.187-.094.422 0 .234.11.437.124.188.359.344.234.156.546.281.329.125.75.235.579.171 1.063.421.5.25.844.594.359.328.562.766.203.422.203.953 0 .562-.234 1-.219.437-.625.734-.39.297-.953.453-.547.157-1.188.157-.406 0-.812-.078-.406-.063-.781-.22-.36-.155-.672-.374-.313-.235-.547-.531-.235-.313-.375-.704-.125-.39-.125-.859h1.625q.015.39.125.672.125.266.344.453.234.172.53.25.313.078.688.078.328 0 .578-.062.25-.078.422-.22.188-.14.282-.327.093-.188.093-.422zm5.81-5.656v1.547h2.376v1.203h-2.375v2.718q0 .36.078.594.078.219.219.36.156.14.36.203.218.047.468.047.187 0 .375-.016l.375-.031q.187-.032.344-.063.156-.031.265-.062l.156 1.125q-.171.093-.406.172-.219.062-.484.109-.25.062-.531.078-.266.031-.547.031-.516 0-.938-.14-.422-.14-.734-.422-.297-.297-.469-.735-.156-.453-.156-1.078v-2.89h-1.453v-1.203h1.453v-1.547h1.625zm8.17 7.89q-.046-.125-.093-.265-.047-.157-.063-.328-.14.14-.328.28-.172.126-.39.22-.203.093-.469.156-.25.062-.547.062-.484 0-.89-.14-.407-.157-.704-.407-.297-.25-.468-.593-.157-.344-.157-.766 0-1 .75-1.547.75-.547 2.235-.547h.906v-.375q0-.453-.297-.718-.297-.266-.86-.266-.5 0-.734.219-.234.203-.234.562h-1.625q0-.406.172-.765.187-.36.531-.641.344-.281.828-.438.5-.156 1.14-.156.579 0 1.063.14.5.141.86.423.375.265.578.687.203.422.203.969v2.719q0 .5.062.843.063.329.188.579v.093h-1.656zm-1.546-1.14q.25 0 .453-.063.219-.062.39-.156.172-.094.282-.203.125-.125.203-.25v-1.094h-.828q-.39 0-.656.078t-.438.219q-.172.125-.266.312-.078.172-.078.391 0 .328.235.547.234.219.703.219zm9.342-5.313q.375 0 .687.047.313.047.5.11l-.234 1.624q-.328-.078-.672-.109-.328-.047-.625-.047-.688 0-1.11.266-.406.265-.609.75v3.812h-1.625v-6.343h1.516l.078 1.046q.375-.546.906-.843.547-.313 1.188-.313zm5.638-1.437v1.547h2.375v1.203h-2.375v2.718q0 .36.078.594.079.219.22.36.155.14.359.203.218.047.468.047.188 0 .375-.016l.375-.031q.188-.032.344-.063.156-.031.266-.062l.156 1.125q-.172.093-.406.172-.22.062-.485.109-.25.062-.53.078-.267.031-.548.031-.515 0-.937-.14-.422-.14-.735-.422-.297-.297-.468-.735-.157-.453-.157-1.078v-2.89h-1.453v-1.203h1.453v-1.547zm10.42.703h-2.625v7.187h-1.656v-7.187h-2.594v-1.344h6.875zm1.436.844h3.453v5.015h1.703v1.328h-5.156v-1.328h1.797v-3.687h-1.797zm1.687-1.625q0-.188.063-.344.062-.156.187-.266.125-.125.297-.187.172-.063.39-.063.423 0 .673.25.265.235.265.61 0 .39-.265.64-.25.235-.672.235-.219 0-.39-.063-.173-.062-.298-.172-.125-.125-.187-.281-.063-.172-.063-.36zm6.092 1.625.047.765q.172-.406.484-.64.328-.235.797-.235.766 0 1 .672.188-.312.469-.484.297-.188.703-.188.281 0 .531.11.25.093.438.328.187.234.281.61.11.358.11.874v4.531h-1.485v-4.53q0-.188-.047-.298-.031-.125-.094-.187-.062-.063-.156-.094-.078-.031-.156-.031-.172 0-.297.093-.11.079-.172.204v4.843h-1.437v-4.53q0-.188-.047-.298-.031-.125-.094-.187-.062-.063-.14-.094-.079-.031-.172-.031-.188 0-.313.11-.11.108-.172.28v4.75h-1.484v-6.343zm9.264 6.468q-.735 0-1.344-.234-.594-.25-1.016-.656-.421-.422-.656-.985-.234-.562-.234-1.203v-.234q0-.719.219-1.313.234-.61.64-1.047.422-.437.985-.671.562-.235 1.218-.235.688 0 1.219.235.547.218.906.625.375.406.563.984.203.578.203 1.281v.688h-4.297q.047.312.188.593.14.266.359.454.234.187.516.296.28.11.625.11.25 0 .484-.047.234-.047.453-.14.219-.094.406-.22.188-.14.328-.328l.813.891q-.156.203-.406.422-.235.203-.563.375-.328.156-.734.25-.406.11-.875.11zm-.203-5.265q-.266 0-.5.093-.22.094-.407.282-.171.187-.296.437-.11.25-.157.563h2.672v-.125q-.015-.266-.11-.485-.077-.234-.25-.406-.155-.172-.405-.266-.235-.093-.547-.093zm8.654 1.797q0 .812-.125 1.53-.125.704-.36 1.329-.218.625-.515 1.14-.281.516-.625.907-.328.406-.688.687-.343.282-.687.422l-.297-.875q.313-.25.64-.672.329-.422.594-1.062.266-.625.422-1.469.172-.844.172-1.922v-.156q0-1.078-.172-1.922-.172-.844-.437-1.469-.266-.64-.594-1.062-.312-.438-.625-.672l.297-.875q.344.14.687.422.36.281.688.687.344.407.625.922.297.5.516 1.125.234.625.359 1.344.125.719.125 1.516zm-114.181 14.25 1.422 2.343h-1.062l-1.657-2.28v-.11l1.657-2.297h1.062zm2 0 1.422 2.343h-1.062l-1.657-2.28v-.11l1.657-2.297h1.062zm4.905-3.25.109.875q.344-.47.828-.72.484-.265 1.078-.265.469 0 .86.14.406.141.703.454.297.297.453.781.156.485.156 1.172v3.906h-1.625v-3.875q0-.375-.094-.61-.078-.25-.234-.39-.156-.14-.39-.203-.22-.062-.5-.062-.407 0-.704.172-.297.171-.469.468v4.5h-1.64v-6.343zm5.513 3.109q0-.688.188-1.266.203-.593.578-1.03.39-.438.937-.673.563-.25 1.282-.25.718 0 1.265.25.563.235.938.672.39.438.593 1.031.204.578.204 1.266v.125q0 .703-.204 1.297-.203.578-.593 1.015-.375.438-.938.688-.547.234-1.25.234-.719 0-1.281-.234-.563-.25-.953-.688-.375-.437-.578-1.015-.188-.594-.188-1.297zm1.625.125q0 .406.078.75t.235.61q.172.265.422.421.265.14.64.14.36 0 .61-.14.265-.156.421-.422.157-.265.235-.61.078-.343.078-.75v-.124q0-.375-.078-.719-.078-.36-.235-.61-.156-.265-.421-.421-.25-.156-.625-.156-.36 0-.625.156-.25.156-.422.422-.157.25-.235.61-.078.343-.078.718zm7.264-3.234.11.875q.343-.47.827-.72.485-.265 1.079-.265.468 0 .859.14.406.141.703.454.297.297.453.781.156.485.156 1.172v3.906h-1.625v-3.875q0-.375-.093-.61-.078-.25-.235-.39-.156-.14-.39-.203-.22-.062-.5-.062-.407 0-.703.172-.297.171-.47.468v4.5h-1.64v-6.343zm11.435 3.234h-4.875v-1.313h4.875zm4.577 3.234q-.735 0-1.344-.234-.594-.25-1.016-.656-.422-.422-.656-.985-.234-.562-.234-1.203v-.234q0-.719.218-1.313.235-.61.641-1.047.422-.437.984-.671.563-.235 1.22-.235.687 0 1.218.235.547.218.906.625.375.406.563.984.203.578.203 1.281v.688h-4.297q.047.312.187.593.141.266.36.454.234.187.515.296.282.11.625.11.25 0 .485-.047.234-.047.453-.14.219-.094.406-.22.188-.14.328-.328l.813.891q-.157.203-.407.422-.234.203-.562.375-.328.156-.734.25-.407.11-.875.11zm-.204-5.265q-.265 0-.5.093-.218.094-.406.282-.172.187-.297.437-.109.25-.156.563h2.672v-.125q-.016-.266-.11-.485-.078-.234-.25-.406-.156-.172-.406-.266-.234-.093-.547-.093zm7.233.78 1.39-1.983h1.75l-2.124 3.109 2.203 3.234h-1.766l-1.453-2.078-1.453 2.078h-1.766l2.203-3.234-2.11-3.11h1.75l1.376 1.985zm7.28-3.53v1.547h2.374v1.203h-2.375v2.718q0 .36.078.594.078.219.22.36.155.14.358.203.22.047.47.047.187 0 .374-.016l.375-.031q.188-.032.344-.063.156-.031.266-.062l.156 1.125q-.172.093-.406.172-.22.062-.485.109-.25.062-.531.078-.266.031-.547.031-.516 0-.937-.14-.422-.14-.735-.422-.297-.297-.469-.735-.156-.453-.156-1.078v-2.89h-1.452v-1.203h1.453v-1.547zm7.294 8.015q-.734 0-1.344-.234-.593-.25-1.015-.656-.422-.422-.656-.985-.235-.562-.235-1.203v-.234q0-.719.219-1.313.234-.61.64-1.047.422-.437.985-.671.562-.235 1.219-.235.687 0 1.218.235.547.218.907.625.375.406.562.984.203.578.203 1.281v.688h-4.297q.047.312.188.593.14.266.36.454.234.187.515.296.281.11.625.11.25 0 .484-.047.235-.047.453-.14.22-.094.407-.22.187-.14.328-.328l.812.891q-.156.203-.406.422-.234.203-.562.375-.329.156-.735.25-.406.11-.875.11zm-.203-5.265q-.266 0-.5.093-.219.094-.406.282-.172.187-.297.437-.11.25-.156.563h2.672v-.125q-.016-.266-.11-.485-.078-.234-.25-.406-.156-.172-.406-.266-.234-.093-.547-.093zm5.795-1.203.11.875q.343-.47.827-.72.485-.265 1.079-.265.468 0 .859.14.406.141.703.454.297.297.453.781.156.485.156 1.172v3.906h-1.625v-3.875q0-.375-.093-.61-.078-.25-.235-.39-.156-.14-.39-.203-.22-.062-.5-.062-.407 0-.703.172-.297.171-.47.468v4.5h-1.64v-6.343zm9.826 4.609q0-.156-.078-.266-.063-.11-.234-.203-.172-.094-.47-.172-.28-.093-.718-.172-.562-.109-1.016-.28-.453-.173-.78-.407-.329-.234-.516-.547-.188-.312-.188-.719 0-.39.188-.75.187-.36.53-.625.36-.265.86-.422.5-.156 1.14-.156.657 0 1.188.156.532.157.891.422.375.266.562.64.188.376.188.83h-1.625q0-.376-.297-.626t-.906-.25q-.563 0-.86.203-.296.203-.296.5 0 .14.062.266.063.125.203.219.156.093.406.171.266.079.672.141.563.094 1.047.25.5.14.86.375.359.219.562.563.203.328.203.78 0 .423-.203.782-.203.344-.578.61-.375.25-.906.406-.516.14-1.172.14-.703 0-1.266-.187-.547-.188-.922-.485-.359-.312-.547-.687-.187-.39-.187-.781h1.547q.015.265.14.453.125.172.313.297.203.11.453.172.25.046.516.046.593 0 .906-.187.328-.203.328-.5zm3.545-4.61h3.453v5.016h1.703v1.328h-5.156v-1.328h1.797v-3.687h-1.797v-1.328zm1.688-1.624q0-.188.062-.344.063-.156.188-.266.125-.125.296-.187.172-.063.391-.063.422 0 .672.25.266.235.266.61 0 .39-.266.64-.25.235-.672.235-.219 0-.39-.063-.172-.062-.297-.172-.125-.125-.188-.281-.062-.172-.062-.36zm10.794 4.859q0 .719-.156 1.312-.156.579-.469 1.016-.312.422-.78.672-.454.234-1.079.234-.547 0-.953-.203-.406-.219-.703-.594l-.078.672h-1.47v-9h1.626v3.235q.281-.328.672-.5.39-.188.906-.188.61 0 1.078.235.469.234.781.671.313.422.47 1.016.155.594.155 1.297zm-1.64-.125q0-.375-.063-.719-.047-.36-.203-.61-.14-.265-.39-.421-.235-.156-.61-.156-.437 0-.719.187-.28.188-.437.516v2.531q.156.328.437.516.282.187.735.187.375 0 .61-.14.234-.141.374-.391.156-.266.203-.61.063-.359.063-.765zm3.467-5.766h3.546v7.672h1.813v1.328h-5.36v-1.328h1.891v-6.344h-1.89zm9.935 9.125q-.734 0-1.344-.234-.593-.25-1.015-.656-.422-.422-.656-.985-.235-.562-.235-1.203v-.234q0-.719.219-1.313.234-.61.64-1.047.422-.437.985-.671.562-.235 1.219-.235.687 0 1.218.235.547.218.907.625.375.406.562.984.203.578.203 1.281v.688h-4.297q.047.312.188.593.14.266.36.454.234.187.515.296.281.11.625.11.25 0 .484-.047.235-.047.453-.14.22-.094.407-.22.187-.14.328-.328l.812.891q-.156.203-.406.422-.234.203-.562.375-.329.156-.735.25-.406.11-.875.11zm-.203-5.265q-.266 0-.5.093-.219.094-.406.282-.172.187-.297.437-.11.25-.156.563h2.672v-.125q-.016-.266-.11-.485-.078-.234-.25-.406-.156-.172-.406-.266-.234-.093-.547-.093zm5.81-.282 1.657 2.282v.11l-1.656 2.28h-1.063l1.422-2.328-1.422-2.344h1.063zm2 0 1.657 2.282v.11l-1.656 2.28h-1.063l1.422-2.328-1.422-2.344h1.063z" fill="#fff"/><path d="m161.75 412.562c0-6.283 5.094-11.376 11.376-11.376h166.225a11.376 11.376 0 0 1 11.376 11.376v45.5c0 6.283-5.093 11.376-11.376 11.376h-166.225c-6.282 0-11.375-5.093-11.375-11.375z" fill="#34a853" fill-rule="evenodd"/><path d="m161.75 412.562c0-6.283 5.094-11.376 11.376-11.376h166.225a11.376 11.376 0 0 1 11.376 11.376v45.5c0 6.283-5.093 11.376-11.376 11.376h-166.225c-6.282 0-11.375-5.093-11.375-11.375z" stroke="#666" stroke-linecap="butt" stroke-linejoin="round"/><path d="m197.99 426.069h-8.125v7.843h-3.672v-18.952h12.812v2.985h-9.14v5.156h8.125v2.969zm5.058-6.235h7.672v11.14h3.813v2.938h-11.485v-2.937h4.016v-8.188h-4.016zm3.75-3.61q0-.421.141-.78.156-.36.422-.61.281-.25.656-.39.39-.141.86-.141.968 0 1.53.547.563.531.563 1.375t-.562 1.39q-.563.532-1.531.532-.47 0-.86-.14-.375-.142-.656-.392-.266-.265-.422-.609-.14-.36-.14-.781zm23.981 10.798q0 1.562-.36 2.89-.343 1.313-1.03 2.266-.688.937-1.72 1.469-1.015.53-2.39.53-1.234 0-2.14-.452-.907-.469-1.547-1.313l-.172 1.5h-3.266v-20h3.625v7.188q.625-.719 1.469-1.125.86-.406 2-.406 1.39 0 2.422.53 1.031.532 1.719 1.485.687.953 1.03 2.281.36 1.313.36 2.875zm-3.625-.282q0-.859-.14-1.625-.125-.765-.438-1.343-.312-.578-.86-.922-.546-.344-1.374-.344-.985 0-1.61.422-.609.422-.953 1.14v5.61q.344.734.953 1.156.625.406 1.641.406.812 0 1.344-.312.547-.328.86-.89.312-.563.437-1.329.14-.781.14-1.687zm13.762 7.438q-1.625 0-2.953-.531-1.328-.547-2.281-1.453-.953-.922-1.469-2.157-.516-1.25-.516-2.672v-.515q0-1.625.5-2.953.516-1.328 1.422-2.297.922-.969 2.172-1.5t2.719-.531q1.516 0 2.703.5 1.203.5 2.031 1.421.828.907 1.25 2.188.438 1.281.438 2.828v1.531h-9.563q.11.72.422 1.313.328.594.813 1.031.5.422 1.14.656.64.235 1.39.235.532 0 1.063-.094.532-.11 1-.313.485-.203.907-.5.422-.312.734-.703l1.797 1.953q-.328.47-.875.938-.531.469-1.281.828-.735.344-1.64.563-.892.234-1.923.234zm-.437-11.688q-.61 0-1.125.22-.5.218-.89.624-.376.406-.642.969-.25.547-.39 1.234h5.937v-.28q-.015-.58-.218-1.08-.188-.515-.563-.874-.36-.375-.89-.594-.532-.219-1.22-.219zm19.715-2.921q.812 0 1.5.109.703.11 1.14.25l-.53 3.594q-.72-.172-1.47-.25-.75-.078-1.421-.078-1.532 0-2.454.593-.906.578-1.359 1.672v8.453h-3.625v-14.078h3.375l.172 2.297q.86-1.203 2.047-1.875 1.203-.687 2.625-.687zm18.246 14.343h-3.64l-5.282-12.218v12.218h-3.687v-18.952h3.687l5.235 12.172.015-12.172h3.672v18.953zm3.137-7.172q0-1.53.438-2.843.437-1.313 1.296-2.266.86-.969 2.079-1.516 1.234-.546 2.828-.546 1.578 0 2.812.546 1.25.547 2.094 1.516.86.953 1.297 2.266.437 1.312.437 2.843v.282q0 1.547-.437 2.86-.438 1.296-1.297 2.265-.844.953-2.078 1.5-1.235.53-2.813.53t-2.828-.53q-1.234-.547-2.094-1.5-.859-.97-1.296-2.266-.438-1.312-.438-2.86v-.28zm3.61.282q0 .875.171 1.656.172.766.532 1.344.375.578.953.922.578.343 1.39.343.797 0 1.36-.343.578-.344.937-.922.36-.578.531-1.344.172-.781.172-1.656v-.282q0-.859-.172-1.625-.171-.765-.53-1.343-.36-.594-.938-.938-.563-.344-1.375-.344-.813 0-1.39.344-.563.344-.938.938-.36.578-.532 1.343-.172.766-.172 1.625v.282zm12.496-.25q0-1.61.375-2.938t1.078-2.265q.719-.954 1.734-1.47 1.032-.53 2.344-.53 1.11 0 1.953.406.844.39 1.485 1.11v-7.173h3.64v20h-3.265l-.188-1.468q-.672.812-1.578 1.28-.89.454-2.063.454-1.296 0-2.328-.531-1.015-.547-1.718-1.5-.704-.953-1.094-2.266-.375-1.312-.375-2.844zm3.625.265q0 .89.14 1.657.157.75.485 1.328.344.562.875.89.547.313 1.312.313.938 0 1.547-.39.625-.407.985-1.11v-5.703q-.36-.72-.97-1.11-.609-.406-1.546-.406-.766 0-1.313.344-.53.328-.875.906-.328.578-.484 1.36-.156.765-.156 1.656zm19.59 7.14q-1.625 0-2.953-.53-1.328-.547-2.281-1.453-.954-.922-1.47-2.157-.515-1.25-.515-2.672v-.515q0-1.625.5-2.953.516-1.328 1.422-2.297.922-.969 2.172-1.5t2.719-.531q1.515 0 2.703.5 1.203.5 2.031 1.421.828.907 1.25 2.188.438 1.281.438 2.828v1.531h-9.563q.11.72.422 1.313.328.594.812 1.031.5.422 1.141.656.64.235 1.39.235.532 0 1.063-.094.531-.11 1-.313.485-.203.906-.5.422-.312.735-.703l1.797 1.953q-.328.47-.875.938-.532.469-1.282.828-.734.344-1.64.563-.89.234-1.922.234zm-.438-11.687q-.609 0-1.125.22-.5.218-.89.624-.375.406-.64.969-.25.547-.391 1.234h5.937v-.28q-.016-.58-.219-1.08-.187-.515-.562-.874-.36-.375-.89-.594-.532-.219-1.22-.219zm-88.632 25.883.156 1.375q.532-.75 1.282-1.14.765-.407 1.687-.407.734 0 1.36.219.624.219 1.062.703.453.469.703 1.219.25.75.25 1.828v6.062h-2.531v-6.03q0-.579-.14-.954-.126-.39-.376-.61-.234-.218-.578-.296-.344-.094-.781-.094-.656 0-1.11.266-.453.265-.734.718v7h-2.547v-9.859zm8.555 4.844q0-1.078.312-1.985.313-.922.907-1.593.593-.688 1.453-1.063.86-.375 1.969-.375 1.125 0 1.984.375.86.375 1.453 1.063.61.671.906 1.593.313.907.313 1.985v.187q0 1.078-.313 2-.297.922-.89 1.594-.594.672-1.469 1.047-.86.375-1.953.375-1.125 0-2-.375-.86-.375-1.453-1.047-.594-.672-.907-1.594-.312-.922-.312-2zm2.531.187q0 .625.11 1.172.125.531.375.938.265.406.671.64.407.235.985.235.547 0 .937-.235.407-.234.657-.64.25-.407.375-.938.125-.547.125-1.172v-.187q0-.61-.125-1.14-.125-.548-.375-.954-.25-.406-.657-.64-.39-.235-.968-.235-.563 0-.97.234-.39.235-.655.641-.25.406-.375.953-.11.531-.11 1.14zm8.743-.172q0-1.125.265-2.047.266-.937.766-1.593.5-.672 1.203-1.032.719-.359 1.64-.359.782 0 1.36.281.594.266 1.047.782v-5.032h2.547v14h-2.297l-.125-1.03q-.469.577-1.094.905-.625.313-1.453.313-.906 0-1.625-.375-.703-.39-1.203-1.047-.5-.672-.766-1.578-.265-.922-.265-2zm2.53.188q0 .625.11 1.156.11.531.344.938.234.39.61.625.374.218.906.218.656 0 1.093-.28.438-.282.688-.782v-3.985q-.25-.5-.688-.78-.421-.282-1.078-.282-.531 0-.906.234-.375.235-.625.641-.234.406-.344.953-.11.531-.11 1.156zm13.712 5q-1.14 0-2.078-.375-.922-.375-1.594-1.016-.656-.64-1.015-1.515-.36-.875-.36-1.86v-.375q0-1.125.36-2.047.359-.937.984-1.609.64-.688 1.516-1.047.875-.375 1.906-.375 1.062 0 1.89.344.844.344 1.422.984.579.64.875 1.547.313.89.313 1.969v1.078h-6.688q.063.5.282.922.234.406.578.719.344.296.781.468.453.157.984.157.375 0 .735-.079.375-.078.703-.218.344-.14.64-.344.297-.219.516-.5l1.266 1.375q-.235.328-.625.656-.375.328-.89.578-.516.25-1.141.407-.625.156-1.36.156zm-.297-8.172q-.422 0-.781.156-.36.14-.625.422-.266.281-.453.672-.188.39-.266.875h4.14v-.203q-.015-.39-.155-.75-.125-.36-.391-.61-.25-.265-.625-.406-.36-.156-.844-.156zm15.383 7.984h-9.047v-1.734l4.297-4.61q.5-.546.844-.984.344-.453.563-.812.218-.375.312-.688.094-.328.094-.625 0-.453-.125-.797-.125-.343-.36-.578-.234-.25-.562-.375-.328-.125-.719-.125-1.047 0-1.562.578-.516.578-.516 1.625h-2.531q0-.875.328-1.656.344-.797.953-1.39.625-.594 1.484-.938.875-.344 1.938-.344 1 0 1.781.297.781.281 1.297.797.531.5.797 1.219.281.703.281 1.578 0 .656-.203 1.25t-.594 1.187q-.375.578-.906 1.188-.516.594-1.172 1.265l-2.484 2.641h5.812z" fill="#fff"/><path d="m174.372 469.616h163.496v59.716h-163.496z" fill="#bdbdbd" fill-rule="evenodd"/><path d="m174.372 469.616h163.496v59.716h-163.496z" stroke="#666" stroke-linecap="butt" stroke-linejoin="round"/><path d="m261.668 501.483q0 1.625-.375 2.89-.375 1.266-1.078 2.125-.703.86-1.718 1.313-1.016.437-2.329.437-1.312 0-2.343-.437-1.016-.453-1.735-1.313-.703-.859-1.093-2.125-.375-1.265-.375-2.89v-4q0-1.625.375-2.875.375-1.266 1.078-2.125.718-.875 1.734-1.328 1.031-.454 2.328-.454 1.313 0 2.328.454 1.032.453 1.735 1.328.718.86 1.093 2.125.375 1.25.375 2.875zm-8.875-.438 6.657-5.094q-.188-1.703-1-2.578-.797-.89-2.313-.89-1.703 0-2.531 1.156-.813 1.156-.813 3.375zm6.704-3.015-6.641 5.078q.203 1.64 1.016 2.515.828.86 2.296.86 1.72 0 2.516-1.172.813-1.172.813-3.375z" fill="#000"/><path d="m350.727 435.312c85.707 0 128.56-18.708 171.414-37.417s85.71-37.417 171.42-37.417" fill="none"/><path d="m350.727 435.312c85.707 0 128.56-18.708 171.414-37.417 21.427-9.354 42.855-18.709 69.64-25.724 13.392-3.508 28.123-6.431 44.864-8.478 8.37-1.023 17.242-1.827 26.7-2.375a472.436 472.436 0 0 1 5.383-.281l.84-.037" stroke="#595959" stroke-linecap="butt" stroke-linejoin="round" stroke-width="4"/><path d="m669.711 367.605 18.004-7-18.291-6.21z" fill="#595959" fill-rule="evenodd" stroke="#595959" stroke-linecap="butt" stroke-width="4"/><path d="m775.971 277.438h154.236v51.087h-154.236z" fill="none"/><path d="m792.518 302.61q-.047.281-.125.625-.063.343-.188.687-.109.344-.28.672-.157.328-.391.578-.22.25-.516.406-.281.141-.64.141-.391-.016-.626-.219-.234-.218-.296-.578-.141.156-.282.297-.14.14-.312.25-.156.11-.344.172-.188.062-.39.062-.266 0-.454-.109-.172-.125-.281-.312-.094-.204-.14-.438-.048-.25-.063-.5 0-.25.015-.484.032-.235.047-.407.063-.343.157-.703.093-.375.234-.734.156-.36.36-.688.218-.328.484-.562.265-.25.594-.39.343-.141.765-.126.703.016 1.125.594l-.765 3.281-.032.266q-.015.14 0 .281.016.125.094.219.078.078.234.094.25.015.438-.11.187-.14.328-.343.14-.204.234-.47.094-.265.157-.53.078-.266.109-.516t.063-.406q.046-.375.062-.766.016-.406-.047-.781-.047-.39-.172-.735-.11-.343-.343-.609-.22-.266-.563-.422-.328-.172-.797-.187-.547-.016-1.015.172-.47.171-.844.484-.375.312-.688.75-.297.422-.531.89-.219.47-.375.97-.14.5-.219.952-.078.407-.11.844-.015.422.032.828.047.407.172.766.14.36.375.64.25.266.61.438.374.156.89.156.406 0 .797-.109.39-.125.734-.313l.14.782q-.374.25-.812.36-.421.108-.875.108-.625-.015-1.109-.203-.484-.187-.828-.5-.328-.328-.531-.765-.188-.438-.282-.922-.093-.5-.093-1.031.015-.547.093-1.079.094-.562.282-1.156.187-.594.468-1.156.282-.563.657-1.063.375-.5.843-.875.485-.375 1.032-.578.562-.218 1.218-.203.579.016 1 .203.438.188.735.516.312.312.5.75.187.422.265.89.094.47.094.97t-.078.984zm-4.453.843q-.016.079-.031.204-.016.125-.032.28v.298q.016.156.047.281.047.125.125.219.078.078.203.078.188.015.344-.047.156-.063.281-.172.141-.125.25-.25.125-.14.22-.297l.734-2.922q-.079-.03-.157-.047-.078-.03-.172-.03-.312-.032-.546.077-.235.11-.438.313-.188.187-.328.437-.125.25-.235.532-.093.265-.156.546-.062.266-.11.5zm7.416-2.718-.156 1.047q.219-.266.469-.485.265-.219.546-.375.282-.156.594-.234.328-.078.688-.078.593.015.984.234.406.219.64.594.25.36.329.86.078.484.015 1.015l-.75 4.469h-1.171l.75-4.454q.03-.359 0-.656-.032-.312-.172-.531-.14-.234-.407-.36-.25-.14-.64-.156-.297 0-.578.078-.282.079-.516.235-.234.14-.453.344-.203.203-.39.437l-.876 5.063h-1.172l1.22-7.047zm5.854 3.5q.062-.469.203-.922.14-.469.36-.875.234-.406.546-.75.313-.344.688-.578.39-.25.843-.375.454-.14.97-.125.734.015 1.265.328.531.312.844.812.312.5.437 1.141.125.625.047 1.281l-.016.156q-.093.704-.39 1.36-.282.656-.75 1.156-.453.5-1.078.797-.625.297-1.391.266-.734-.016-1.266-.313-.515-.312-.843-.797-.313-.5-.438-1.125t-.047-1.281zm1.156.156q-.031.266-.031.562 0 .297.047.579.062.265.156.53.11.25.281.438.172.188.422.313.25.11.594.125.547.031.953-.203.422-.235.719-.61.297-.39.468-.859.172-.469.25-.938l.016-.14q.047-.422.016-.86-.032-.453-.203-.828-.157-.39-.47-.64-.312-.25-.812-.266-.547-.016-.968.219-.422.234-.72.625-.28.375-.468.86-.172.468-.234.937zm8.635-3.656-.156 1.047q.219-.266.469-.485.265-.219.546-.375.282-.156.594-.234.328-.078.688-.078.593.015.984.234.406.219.64.594.25.36.329.86.078.484.015 1.015l-.75 4.469h-1.171l.75-4.454q.03-.359 0-.656-.032-.312-.172-.531-.141-.234-.407-.36-.25-.14-.64-.156-.297 0-.578.078-.282.079-.516.235-.234.14-.453.344-.203.203-.39.437l-.876 5.063h-1.172l1.22-7.047zm8.65 7.172q-.718-.016-1.265-.282-.531-.28-.89-.734-.344-.469-.5-1.078-.157-.61-.094-1.281l.03-.282q.048-.468.188-.922.157-.453.391-.859.25-.406.562-.75.313-.344.704-.594.39-.25.843-.39.453-.14.953-.125.72.015 1.22.312t.796.781q.297.485.39 1.11.094.61.016 1.25l-.078.547h-4.86q-.046.422.032.843.078.407.281.735.22.312.563.515.344.204.828.22.61.015 1.125-.235.516-.266.937-.703l.672.578q-.234.344-.562.61-.328.25-.703.421-.36.156-.766.234-.406.094-.812.079zm.86-6.313q-.453-.016-.828.156-.36.172-.64.47-.282.28-.5.655-.204.36-.345.735l3.672.015.032-.109q.062-.36-.016-.688-.063-.343-.25-.609-.172-.281-.469-.437-.281-.172-.656-.188zm7.416 1.75 2.235-2.61h1.453l-3.14 3.548 2.03 3.5h-1.28l-1.47-2.672-2.312 2.672h-1.453l3.234-3.61-1.984-3.437h1.297l1.39 2.61zm8.573-4.312-.313 1.703h2.61l-.157.937h-2.61l-.64 3.828q-.031.297 0 .547.047.235.157.422.109.188.312.297.203.11.516.11.359.015.703-.048.36-.062.719-.14l.109.86q-.406.234-.906.296-.5.078-.97.063-.53-.016-.89-.204-.36-.203-.593-.53-.22-.329-.297-.75-.078-.438-.032-.923l.641-3.828h-1.797l.156-.937h1.797l.297-1.703zm6.619 8.875q-.719-.016-1.266-.282-.53-.28-.89-.734-.344-.469-.5-1.078-.156-.61-.094-1.281l.031-.282q.047-.468.188-.922.156-.453.39-.859.25-.406.563-.75.312-.344.703-.594.39-.25.844-.39.453-.14.953-.125.719.015 1.219.312.5.297.797.781.296.485.39 1.11.094.61.016 1.25l-.078.547h-4.86q-.047.422.032.843.078.407.28.735.22.312.563.515.344.204.828.22.61.015 1.125-.235.516-.266.938-.703l.672.578q-.235.344-.563.61-.328.25-.703.421-.36.156-.765.234-.407.094-.813.079zm.86-6.313q-.454-.016-.829.156-.36.172-.64.47-.282.28-.5.655-.203.36-.344.735l3.672.015.031-.109q.063-.36-.016-.688-.062-.343-.25-.609-.171-.281-.468-.437-.282-.172-.657-.188zm6.134-.86-.156 1.048q.219-.266.469-.485.265-.219.547-.375.281-.156.593-.234.329-.078.688-.078.594.015.984.234.407.219.641.594.25.36.328.86.078.484.016 1.015l-.75 4.469h-1.172l.75-4.454q.031-.359 0-.656-.031-.312-.172-.531-.14-.234-.406-.36-.25-.14-.64-.156-.298 0-.579.078-.281.079-.516.235-.234.14-.453.344-.203.203-.39.437l-.875 5.063h-1.172l1.218-7.047h1.047zm10.463 5.141q.032-.312-.109-.5-.125-.203-.36-.312-.218-.125-.484-.203-.265-.078-.484-.125-.39-.11-.813-.25-.421-.14-.78-.36-.345-.234-.563-.578-.22-.344-.203-.828.015-.36.14-.656.14-.297.36-.531.218-.235.5-.407.28-.187.593-.297.313-.109.64-.156.329-.062.657-.062.485.015.938.156.468.14.812.422.344.281.547.687.203.407.203.938h-1.172q0-.297-.11-.516-.108-.219-.312-.375-.187-.156-.437-.234-.25-.078-.516-.078-.265-.016-.547.047-.265.062-.515.187-.235.125-.406.328-.172.203-.204.5-.046.297.079.485.14.187.359.296.219.11.469.172.265.063.484.11.266.062.547.156.281.078.547.203.281.11.531.266.25.14.422.36.172.202.266.468.109.265.093.594-.031.562-.328.984-.281.406-.719.672-.421.25-.937.36-.516.124-1.016.109-.515 0-1-.141-.484-.156-.875-.438-.375-.296-.593-.718-.22-.438-.22-1h1.173q.015.343.14.593.125.25.328.407.204.156.485.234.281.078.61.078.25.016.546-.031.297-.063.547-.172.266-.125.453-.328.188-.219.234-.516zm4.323-5.14h3.5l-1.047 6h2.234l-.187 1.047h-5.735l.188-1.047h2.328l.86-4.953h-2.329zm2.484-1.828q.016-.313.203-.516.203-.203.516-.219.156 0 .281.047.125.047.219.14.094.094.14.235.047.125.047.281 0 .313-.203.5-.187.188-.5.203-.297.016-.5-.171-.203-.188-.203-.5zm10.323 5.39q-.063.438-.188.875-.11.438-.297.844-.187.406-.453.766-.265.343-.61.609-.327.25-.75.39-.405.157-.905.141-.579-.015-1.063-.234-.484-.235-.797-.719l-.234.813h-1.094l1.734-10h1.188l-.703 3.718q.406-.453.906-.672.5-.234 1.11-.218.468.015.828.172.359.156.609.421.266.266.422.61.172.344.25.734.078.39.094.813.015.406-.032.797zm-1.157-.14q.047-.391.032-.829-.016-.453-.157-.812-.14-.375-.437-.625-.281-.25-.797-.266-.297 0-.562.078-.266.079-.485.235-.219.14-.422.344-.187.203-.343.437l-.532 3.094q.172.484.532.781.359.297.89.297.547.016.938-.203.406-.235.672-.61.28-.39.437-.859.156-.469.219-.922zm4.51-6.375h3.5l-1.562 8.953h2.234l-.187 1.047h-5.735l.188-1.047h2.328l1.375-7.907h-2.344zm8.995 10.125q-.719-.016-1.266-.282-.531-.28-.89-.734-.344-.469-.5-1.078-.157-.61-.094-1.281l.031-.282q.047-.468.188-.922.156-.453.39-.859.25-.406.563-.75.312-.344.703-.594.39-.25.844-.39.453-.14.953-.125.718.015 1.218.312t.797.781q.297.485.39 1.11.095.61.017 1.25l-.079.547h-4.859q-.047.422.031.843.078.407.282.735.218.312.562.515.344.204.828.22.61.015 1.125-.235.516-.266.938-.703l.672.578q-.235.344-.563.61-.328.25-.703.421-.36.156-.766.234-.406.094-.812.079zm.86-6.313q-.454-.016-.829.156-.36.172-.64.47-.282.28-.5.655-.204.36-.344.735l3.672.015.03-.109q.063-.36-.015-.688-.062-.343-.25-.609-.172-.281-.469-.437-.28-.172-.656-.188z" fill="#000"/></g></svg>