<svg xmlns="http://www.w3.org/2000/svg" xmlns:xlink="http://www.w3.org/1999/xlink" fill="none" stroke-linecap="square" stroke-miterlimit="10" viewBox="0 0 960 540"><defs/><defs><path id="r" d="M21.9 324.2h113.4v41H22z" class="b h"/><path id="q" d="M468 206.8h142.6v30H468z" class="b h"/><path id="p" d="M174.4 469.6h163.5v59.7H174.4z" class="b h"/><path id="m" d="M174.4 306.2h163.5V366H174.4z" class="b h"/><path id="o" d="M704.7 249.6h142.6v30H704.7z" class="b h"/><path id="n" d="M0 0h960v540H0z"/></defs><style>.b{fill-rule:evenodd}.c{stroke-linejoin:round}.d{stroke:#666}.e{fill:#000}.f{fill:#fff}.g{stroke-linecap:butt}.h{fill:#bdbdbd}.i{fill:#e67c73}.j{fill:#ff9800}.k{stroke-width:4}</style><clipPath id="a"><use xlink:href="#n"/></clipPath><g clip-path="url(#a)"><g class="b"><use class="f" xlink:href="#n"/><use fill="#b45f06" xlink:href="#c"/></g><use class="c d" xlink:href="#c"/><path d="M747.6 209q0-.6-.2-1-.1-.5-.5-.8l-1.1-.7q-.7-.4-1.7-.6l-2.4-.9q-1.1-.5-2-1.2-.8-.7-1.4-1.7-.5-1-.5-2.1 0-1.3.5-2.2.5-1 1.4-1.7 1-.7 2.2-1 1.2-.4 2.6-.4 1.5 0 2.7.4 1.3.4 2.1 1.2 1 .8 1.4 1.9.5 1 .5 2.3h-3.5q0-.6-.3-1.2-.2-.5-.6-.9-.4-.4-1-.6-.5-.2-1.3-.2t-1.3.2l-1 .5q-.4.3-.6.7l-.2 1q0 .5.3 1 .3.4.8.7l1.2.7 1.6.5q1.3.4 2.4 1 1.1.5 1.9 1.2.8.7 1.2 1.7.5 1 .5 2.1 0 1.3-.5 2.2-.5 1-1.4 1.7-1 .7-2.1 1-1.3.3-2.7.3l-1.8-.1-1.7-.5-1.5-.9q-.7-.5-1.2-1.1-.5-.7-.8-1.6-.3-.8-.3-1.9h3.6q0 .9.3 1.5.2.6.7 1 .5.4 1.2.6l1.5.1 1.3-.1 1-.5.5-.7q.3-.4.3-1zm10-7.2q.6-1 1.6-1.6 1-.6 2.3-.6 1.1 0 2 .3 1 .3 1.6 1 .7.7 1 1.8.4 1.1.4 2.7v8.5H763v-8.5q0-.8-.2-1.4l-.5-.8q-.4-.4-.9-.5-.4-.2-1-.2-1 0-1.7.3-.6.3-1 1v10.1H754v-20h3.6zm21.1 12l-.2-.5-.2-.7-.7.6-.8.5-1 .3-1.3.1q-1 0-2-.3-.9-.3-1.5-.8-.7-.6-1-1.4-.4-.7-.4-1.7 0-2.2 1.6-3.4 1.7-1.2 5-1.2h2v-.9q0-1-.7-1.6-.6-.6-1.9-.6-1 0-1.6.5-.5.5-.5 1.3h-3.6q0-1 .4-1.7.4-.8 1.2-1.4.7-.6 1.8-1t2.5-.4q1.3 0 2.4.4 1.1.3 2 .9.7.6 1.2 1.5.4 1 .4 2.2v6q0 1.2.2 1.9.1.7.4 1.3v.2zm-3.4-2.4l1-.2.8-.3.7-.5.4-.5v-2.4h-1.8l-1.5.1-1 .5-.5.7q-.2.4-.2.9 0 .7.5 1.2t1.6.5zm23.3-4.4q0 1.5-.4 2.8-.4 1.3-1 2.3-.7 1-1.8 1.5-1 .6-2.3.6-1.2 0-2-.4-.9-.4-1.5-1.1v6.6H786v-19.5h3.3l.1 1.4q.7-.8 1.6-1.2.9-.5 2-.5 1.4 0 2.4.6 1 .5 1.7 1.4.8 1 1.1 2.3.4 1.3.4 2.9zm-3.6-.3q0-.9-.2-1.7l-.5-1.3q-.3-.6-.9-.9-.5-.3-1.3-.3-1 0-1.6.3-.6.4-1 1.1v5.9q.4.7 1 1 .6.5 1.6.5.8 0 1.3-.4.6-.3 1-.9.3-.6.4-1.4.2-.7.2-1.6v-.3zm13.8 7.5q-1.7 0-3-.6-1.3-.5-2.3-1.4-1-1-1.4-2.2-.6-1.2-.6-2.7v-.5q0-1.6.5-3 .6-1.3 1.5-2.2.9-1 2.1-1.5 1.3-.5 2.8-.5 1.5 0 2.7.5 1.2.5 2 1.4.8.9 1.2 2.2.5 1.2.5 2.8v1.5h-9.6q.1.7.4 1.3l.8 1q.5.5 1.2.7.6.3 1.4.3l1-.1q.6-.1 1-.4l1-.5.7-.7 1.8 2-1 1q-.4.4-1.2.8l-1.6.5q-1 .3-2 .3zm-.5-11.7q-.6 0-1.1.2l-1 .6-.5 1q-.3.5-.4 1.2h5.9v-.3l-.2-1q-.2-.6-.6-1l-.9-.5q-.5-.2-1.2-.2zm-95.8 31l2.2 3.5h-1.6l-2.6-3.5v-.2l2.6-3.5h1.6zm4 0l2.2 3.5h-1.6l-2.6-3.5v-.2l2.6-3.5h1.6zm4.6-.3q0-1.1.3-2 .3-1 .8-1.6.5-.7 1.2-1 .7-.4 1.6-.4.8 0 1.4.3.6.2 1 .7v-5h2.6v14h-2.3l-.2-1q-.4.6-1 .9-.7.3-1.5.3-1 0-1.6-.4-.7-.4-1.2-1-.5-.7-.8-1.6-.3-1-.3-2zm2.6.2v1.2l.4.9q.2.4.6.6.4.2 1 .2t1-.2q.5-.3.7-.8v-4q-.2-.5-.7-.8-.4-.3-1-.3t-1 .3l-.6.6-.3 1-.1 1.1zm13.7 5q-1.2 0-2.1-.4-1-.4-1.6-1-.7-.6-1-1.5-.4-.9-.4-1.9v-.3q0-1.2.4-2 .3-1 1-1.7.6-.7 1.5-1 .9-.4 1.9-.4 1 0 1.9.3.8.4 1.4 1 .6.6.9 1.6.3.9.3 2v1h-6.7q0 .5.3 1l.6.6.7.5 1 .2.8-.1.7-.2.6-.4.5-.5 1.3 1.4-.6.7-1 .5-1 .4-1.4.2zm-.3-8.2l-.8.2q-.4.1-.6.4l-.5.7-.3.9h4.2v-.3q0-.4-.2-.7 0-.4-.4-.6-.2-.3-.6-.4l-.8-.2zm15.5 3.2l-.2 2q-.3.9-.8 1.6-.4.6-1.2 1-.7.4-1.6.4-.8 0-1.4-.3-.6-.2-1-.7v4.6h-2.6v-13.6h2.4v1q.5-.6 1.1-1 .7-.2 1.5-.2 1 0 1.6.3.8.4 1.2 1 .5.7.8 1.6l.2 2v.3zm-2.5-.2l-.1-1.2-.4-1q-.2-.3-.6-.5-.4-.3-.9-.3-.7 0-1 .3-.5.3-.7.7v4.1q.2.5.6.8.4.3 1.1.3.5 0 1-.3.3-.2.5-.6.3-.4.4-1l.1-1.1zm12-5h1l.8.2-.4 2.5-1-.1h-1q-1 0-1.7.3-.6.4-1 1.2v6h-2.5v-10h2.4l.1 1.7q.6-.9 1.4-1.3.9-.5 1.9-.5zm8.9 10.2q-1.2 0-2.1-.4-1-.3-1.6-1-.7-.6-1-1.5-.4-.9-.4-1.9v-.3q0-1.2.4-2 .3-1 1-1.7.6-.7 1.5-1 .8-.4 1.9-.4 1 0 1.9.3.8.4 1.4 1 .6.6.9 1.6.3.9.3 2v1h-6.7q0 .5.3 1l.6.6.7.5 1 .2.8-.1.7-.2.6-.4.5-.5 1.3 1.4-.6.7-1 .5-1 .4-1.4.2zm-.3-8.2q-.5 0-.8.2-.4.1-.6.4l-.5.7-.3.9h4.2v-.2l-.2-.8q-.1-.4-.4-.6-.2-.3-.6-.4l-.8-.2zm11 6.2l.8-.1.5-.3q.3-.2.4-.5.2-.3.2-.7h2.4q0 .8-.4 1.5-.3.6-.9 1.1-.5.5-1.3.7-.7.3-1.6.3-1.1 0-2-.4-.9-.4-1.4-1-.6-.7-1-1.6l-.2-2v-.3q0-1 .3-1.9.3-.9.9-1.6.5-.6 1.4-1 .9-.4 2-.4 1 0 1.7.3.8.2 1.3.7.6.5.9 1.2.3.7.3 1.6h-2.4l-.1-.7-.4-.6-.6-.3q-.3-.2-.7-.2-.6 0-1 .3-.4.2-.7.6l-.3 1v2.4l.3 1q.3.4.7.6.4.2 1 .2zm13 1.8l-.1-.4-.1-.5-.5.4-.6.4-.8.2-.8.1q-.8 0-1.4-.2-.6-.2-1.1-.6-.5-.4-.7-1-.3-.5-.3-1.1 0-1.6 1.2-2.4 1.2-.9 3.5-.9h1.4v-.6q0-.7-.5-1.1-.5-.4-1.3-.4t-1.2.3q-.3.3-.3 1h-2.5q0-.7.2-1.3.3-.6.8-1 .6-.4 1.3-.6.8-.3 1.8-.3t1.7.2q.7.2 1.3.7.6.4.9 1 .3.7.3 1.5v4.3l.1 1.3.3.9v.1zm-2.4-1.8h.7l.6-.3.5-.3.3-.4v-1.7H793l-1 .1q-.5.1-.7.3-.3.2-.4.5l-.1.7q0 .5.3.8.4.3 1.1.3zm12.1-10.5v2.5h3.7v1.8h-3.7v4.3l.1.9.3.5q.3.3.6.3l.7.1h1.2l.5-.2h.4l.3 1.7-.6.3-.8.1-.8.2h-.9q-.8 0-1.4-.2-.7-.2-1.2-.7-.4-.4-.7-1.1-.2-.7-.2-1.7v-4.5h-2.3v-1.8h2.3v-2.5zm11.3 12.5q-1.1 0-2-.4-1-.3-1.6-1-.7-.6-1-1.5-.4-.9-.4-1.9v-.3q0-1.2.4-2 .3-1 1-1.7.6-.7 1.5-1 .8-.4 1.9-.4 1 0 1.8.3.9.4 1.5 1 .5.6.8 1.6.4.9.4 2v1h-6.7q0 .5.3 1l.5.6.8.5 1 .2.7-.1q.4 0 .7-.2l.7-.4.5-.5 1.3 1.4-.7.7q-.3.3-.9.5-.5.3-1.1.4-.6.2-1.4.2zm-.3-8.2q-.4 0-.7.2-.4.1-.7.4l-.4.7-.3.9h4.2v-.2l-.2-.8q-.1-.4-.4-.6-.2-.3-.6-.4-.4-.2-.9-.2zm6.5 3q0-1.1.3-2 .2-1 .7-1.6.5-.7 1.2-1 .7-.4 1.7-.4.7 0 1.3.3.6.2 1 .7v-5h2.6v14h-2.3l-.1-1q-.5.6-1.1.9-.6.3-1.5.3t-1.6-.4q-.7-.4-1.2-1-.5-.7-.7-1.6-.3-1-.3-2zm2.5.2l.1 1.2q.1.5.4.9.2.4.6.6.4.2.9.2.6 0 1-.2.5-.3.8-.8v-4q-.3-.5-.7-.8-.4-.3-1-.3t-1 .3q-.4.2-.6.6-.3.4-.4 1v1.3zm11.8-3.6l2.6 3.5v.2l-2.6 3.6h-1.6l2.2-3.7-2.2-3.6zm3 0l2.6 3.5v.2l-2.6 3.6h-1.6l2.2-3.7-2.2-3.6z" class="f"/><use class="b h" xlink:href="#o"/><use class="c d" xlink:href="#o"/><path d="M717.4 261.6l-.1 1.6h-.7v-2.1h.8v.5zm6.6 6.5v-.3l-.1-.3-.3.3-.3.2h-.4l-.5.2q-.4 0-.7-.2-.3 0-.5-.3l-.4-.4-.1-.6q0-.4.2-.7.1-.3.4-.5l.7-.3 1-.1h.9v-.8l-.3-.3-.4-.2h-.9l-.4.2-.2.2v.3h-.9l.1-.5.4-.5.7-.3q.3-.2.8-.2l.7.1.7.3.4.6.1.7v2.8l.2.5zm-1.5-.7h.5l.4-.2.3-.2.2-.3v-1h-.8q-.7 0-1.1.2-.4.2-.4.7v.3q0 .2.2.3l.3.2h.5zm6 0h.4l.4-.2.3-.3v-.4h.9l-.2.6-.4.6-.7.3q-.3.2-.7.2-.6 0-1-.2t-.7-.6q-.3-.3-.4-.8-.2-.4-.2-1v-.1l.2-1q.1-.4.4-.7.3-.4.7-.5.4-.2 1-.2h.8q.4.2.6.5.3.2.4.5l.2.7h-.8l-.1-.4-.3-.3q-.1-.2-.4-.3h-1.1q-.3.2-.4.5l-.3.6v1.4l.3.6q.1.3.4.4.3.2.7.2zm5.5-5.5v1.2h1.9v.7h-2v2.7l.1.4.3.3.2.2h1.2l.2-.1.1.6-.2.1h-.4l-.3.1H734l-.4-.3-.4-.6-.1-.7v-2.7h-1.3v-.7h1.3V262zm6.8 5.5l-.6.6q-.4.2-.9.2-.4 0-.7-.2-.3 0-.5-.3-.3-.3-.4-.7l-.1-1v-2.9h.8v3l.1.6q0 .3.2.5l.3.2h.4q.6 0 .9-.2.3-.2.4-.5V263h.9v5h-.8v-.7zm5.6.7v-.3l-.1-.3-.3.3-.3.2-.4.1H744l-.5-.4-.4-.4-.1-.6.1-.7.5-.5.7-.3 1-.1h.9v-.4l-.1-.4q0-.2-.2-.3l-.4-.2h-.9l-.4.2-.2.2v.3h-1q0-.3.2-.5l.4-.5.6-.3.9-.1h.7l.7.3.4.6.1.7v2.8l.2.5zm-1.5-.7h.5l.4-.2.3-.2.2-.3v-1h-.8q-.7 0-1.2.2-.4.2-.4.7v.3l.3.3.3.2h.4zm4-6.3h2.5v6.2h1.6v.8h-4v-.8h1.7v-5.5H749v-.7zm9 5.3q0-.3-.2-.5l-.4-.4-.4-.2-.5-.2-.8-.3-.6-.4-.5-.5q-.2-.3-.2-.8 0-.4.2-.7l.5-.6.7-.3.8-.2.8.2q.4.1.7.4.3.2.5.6l.2.8h-.9l-.1-.5-.3-.4-.4-.2-.5-.1h-.5l-.4.3q-.2 0-.3.3l-.1.4.1.5.4.4.5.2.5.2.5.1.4.3q.3 0 .5.2l.3.4q.2.2.2.5l.1.5-.2.8-.5.5-.7.4h-1.6l-.8-.5-.6-.6q-.2-.4-.2-.9h.9l.2.6q0 .2.3.4l.4.2.6.1h.5l.4-.2.3-.4.2-.4zm4-4.5v1.2h2v.7h-2v2.7l.1.4.2.3.3.2h1.2l.2-.1.1.6-.2.1h-.4l-.3.1H762l-.5-.3-.3-.6-.1-.7v-2.7h-1.3v-.7h1.3V262zm7 6.2l-.2-.3v-.3l-.3.3q-.2 0-.3.2l-.4.1h-1.2l-.6-.4-.3-.4-.1-.6.1-.7.5-.5.7-.3 1-.1h.9v-.4l-.1-.4q0-.2-.2-.3l-.4-.2h-.9l-.4.2-.2.2v.3h-1q0-.3.2-.5l.4-.5.6-.3.9-.1h.7l.7.3.4.6.1.7v2.8l.2.5zm-1.6-.7h.5l.4-.2.3-.2.2-.3v-1h-.8q-.7 0-1.2.2-.4.2-.4.7l.1.3q0 .2.2.3l.3.2h.4zm7-4.3h1l-.2.9h-.4l-.5-.1q-.6 0-1 .3-.3.2-.5.7v3.2h-.8v-5h.8v.8q.3-.4.7-.6l1-.2zm4.5-1.1v1.2h1.8v.6h-1.9v2.7l.1.5.2.3.3.1h1.4l.1.5-.2.1h-.4l-.3.1h-1.1l-.5-.3-.3-.5-.1-.8v-2.7h-1.3v-.7h1.3V262h.8zm8 .2h-2v5.9h-.8v-6h-2v-.6h4.8v.7zm1.3 1h2.5v4.1h1.6v.8h-4.1v-.8h1.6V264h-1.6zm1.6-1.3v-.4l.5-.1.4.1v.7l-.4.1-.4-.1-.1-.3zm4.2 1.3v.4l.5-.4.6-.1q.6 0 .9.5l.3-.4.6-.2q.6 0 .9.4.3.3.3 1v3.7h-.9v-3.7q0-.7-.5-.6h-.3l-.2.1v.2l-.1.2v3.8h-.8v-3.7l-.1-.5-.5-.1h-.4l-.2.3v4h-.8v-5zm7.4 5l-1-.2-.7-.5-.5-.8-.1-1v-.1q0-.6.2-1l.5-.9.7-.5.8-.1 1 .1q.4.2.6.6.3.3.4.7l.1 1v.4h-3.5l.1.6.4.5.5.4h.6l.8-.1.6-.5.5.4-.3.4-.5.3-.5.2h-.7zm0-4.4h-.6l-.4.3-.3.5-.1.6h2.6v-.6l-.3-.4-.4-.3-.6-.2zm5.6-2.2v1.7h-.7V261h.7zm5 6v-.5l.3-.2h.6l.2.2.1.2v.5l-.1.2-.2.1h-.6l-.2-.1-.1-.2v-.3zm0-4v-.5l.3-.2h.6l.2.2.1.2v.5l-.1.2-.2.1h-.6l-.2-.1-.1-.2v-.3zm13.1 2.8l-.1-.5-.4-.4-.5-.2-.5-.2-.7-.2-.6-.4-.5-.6q-.2-.3-.2-.7 0-.5.2-.8l.5-.6.7-.3.8-.1.8.1q.4.1.7.4l.5.6q.2.4.2.9h-.9l-.1-.6-.3-.4-.4-.2-.5-.1h-.5l-.4.3q-.2 0-.3.3l-.1.5.1.4.4.4.4.2q.3 0 .5.2l.5.1.5.3.4.2.4.4.2.5.1.5-.2.8-.5.5q-.3.3-.7.4h-1.7l-.7-.5q-.4-.2-.6-.6l-.2-.8h.9l.1.5.4.4.4.3h1.1l.4-.2.3-.3.1-.5zm2.5-3.2v.4l.5-.4.5-.1q.7 0 1 .5 0-.3.3-.4l.6-.2q.6 0 .8.4.3.3.3 1v3.7h-.8v-3.7q0-.7-.5-.6h-.3l-.2.1v.2l-.1.2v3.8h-.8v-3.7q0-.3-.2-.5l-.4-.1h-.4l-.2.3v4h-.8v-5zm5.4 0h2.5v4.1h1.6v.8h-4v-.8h1.7V264H833zm1.5-1.3q0-.3.2-.4l.4-.1.3.1q.2.1.2.4 0 .2-.2.3l-.3.1-.4-.1q-.2-.1-.2-.3z" class="e"/><use fill="#34a853" class="b" xlink:href="#d"/><use class="c d" xlink:href="#d"/><path d="M198 262.7h-8.1v7.8h-3.7v-19H199v3h-9v5.2h8.1zm5-6.3h7.7v11.2h3.8v3h-11.4v-3h4v-8.2h-4zm3.8-3.6l.1-.7q.2-.4.5-.6.2-.3.6-.4.4-.2.9-.2 1 0 1.5.6.6.5.6 1.3 0 .9-.6 1.4-.5.6-1.5.6-.5 0-.9-.2l-.6-.4q-.3-.2-.5-.6v-.8zm24 10.8q0 1.6-.4 3-.3 1.2-1 2.2-.7 1-1.7 1.5t-2.4.5q-1.3 0-2.2-.5-.9-.4-1.5-1.3l-.2 1.5h-3.2v-20h3.6v7.2q.6-.7 1.4-1.1 1-.4 2-.4 1.4 0 2.5.5 1 .5 1.7 1.5t1 2.3q.4 1.3.4 2.9zm-3.6-.3l-.2-1.6q-.1-.7-.4-1.3-.3-.6-.9-1-.5-.3-1.3-.3-1 0-1.6.4-.7.5-1 1.2v5.6q.3.7 1 1.1.6.4 1.6.4.8 0 1.3-.3.6-.3.9-.9.3-.5.4-1.3.2-.8.2-1.7zm13.7 7.5q-1.6 0-3-.5-1.3-.6-2.2-1.5-1-1-1.5-2.2-.5-1.2-.5-2.6v-.5q0-1.7.5-3t1.4-2.3q1-1 2.2-1.5 1.2-.5 2.7-.5 1.5 0 2.7.5 1.2.5 2 1.4.9.9 1.3 2.2.4 1.3.4 2.8v1.5h-9.5q0 .8.4 1.4l.8 1q.5.4 1.2.6.6.3 1.4.3l1-.1 1-.3 1-.5.7-.7 1.8 2-1 .9-1.2.8-1.6.5q-1 .3-2 .3zm-.4-11.7q-.6 0-1.1.2l-1 .6-.6 1-.4 1.2h6v-.2q0-.6-.3-1.1-.1-.5-.5-.9t-1-.6q-.5-.2-1.1-.2zm19.7-3q.8 0 1.5.2.7 0 1.1.2l-.5 3.6q-.7-.2-1.5-.2l-1.4-.1q-1.5 0-2.4.6-1 .6-1.4 1.7v8.4H252v-14h3.4l.1 2.2q.9-1.2 2-1.8 1.3-.7 2.7-.7zm18.2 14.4h-3.6l-5.3-12.2v12.2h-3.7v-19h3.7l5.3 12.2v-12.1h3.6zm3.2-7.2q0-1.5.4-2.8.5-1.3 1.3-2.3.9-1 2.1-1.5 1.2-.5 2.8-.5 1.6 0 2.8.5 1.3.6 2.1 1.5.9 1 1.3 2.3.5 1.3.5 2.8v.3q0 1.6-.5 2.9-.4 1.3-1.3 2.3-.8 1-2 1.5-1.3.5-2.9.5-1.5 0-2.8-.5-1.2-.6-2-1.5-1-1-1.4-2.3-.4-1.3-.4-2.9v-.3zm3.6.3q0 .9.2 1.7.1.7.5 1.3.4.6 1 1 .5.3 1.3.3t1.4-.4q.6-.3 1-.9l.5-1.3.1-1.7v-.3l-.1-1.6q-.2-.7-.6-1.3-.3-.6-.9-1-.6-.3-1.4-.3-.8 0-1.4.3l-1 1q-.3.6-.4 1.3l-.2 1.6v.3zm12.5-.2q0-1.6.4-3 .3-1.3 1-2.2.8-1 1.8-1.5t2.3-.5q1.1 0 2 .4.8.4 1.5 1v-7h3.6v20H307l-.2-1.6q-.6.9-1.5 1.3-1 .5-2.1.5-1.3 0-2.3-.5-1-.6-1.7-1.5-.8-1-1.1-2.3-.4-1.3-.4-2.9zm3.6.2l.1 1.7.5 1.3q.4.6 1 1 .5.2 1.2.2 1 0 1.6-.3.6-.5 1-1.1v-5.8q-.4-.7-1-1-.6-.5-1.6-.5-.7 0-1.3.4-.5.3-.9.9-.3.6-.4 1.4-.2.7-.2 1.6zm19.6 7.2q-1.6 0-3-.5-1.3-.6-2.2-1.5-1-1-1.5-2.2-.5-1.2-.5-2.6v-.5q0-1.7.5-3t1.4-2.3q1-1 2.2-1.5 1.2-.5 2.7-.5 1.5 0 2.7.5 1.2.5 2 1.4.9.9 1.3 2.2.4 1.3.4 2.8v1.5h-9.5q0 .8.4 1.4l.8 1q.5.4 1.1.6.7.3 1.4.3l1.1-.1 1-.3.9-.5.7-.7 1.8 2-.8.9-1.3.8-1.7.5q-.9.3-1.9.3zm-.4-11.7l-1.2.2q-.5.2-.9.6l-.6 1-.4 1.2h6v-.2q0-.6-.3-1.1l-.5-.9q-.4-.4-1-.6-.5-.2-1.2-.2zM231.8 285l.2 1.4q.5-.8 1.3-1.2.7-.4 1.7-.4.7 0 1.3.2.6.2 1 .7.5.5.8 1.2.2.8.2 1.9v6h-2.5v-6l-.1-1-.4-.5q-.2-.3-.6-.3l-.8-.1q-.6 0-1 .2-.5.3-.8.8v7h-2.5v-10zm8.6 4.8q0-1 .3-2 .3-.9 1-1.6.5-.6 1.4-1 .8-.4 2-.4 1 0 2 .4.8.4 1.4 1 .6.7.9 1.6.3 1 .3 2v.2q0 1-.3 2t-1 1.6q-.5.7-1.4 1-.9.4-2 .4-1 0-2-.4-.8-.3-1.4-1-.6-.7-1-1.6l-.2-2v-.2zm2.5.2l.1 1.2.4 1 .7.6q.4.2 1 .2.5 0 .9-.2.4-.3.6-.7.3-.4.4-1l.1-1V288.7l-.5-1q-.2-.4-.6-.6-.4-.2-1-.2l-1 .2-.6.6q-.3.4-.4 1v1.1zm8.8-.2l.2-2q.3-1 .8-1.6.5-.7 1.2-1 .7-.4 1.6-.4.8 0 1.4.3.6.3 1 .8v-5h2.6v14h-2.3l-.1-1.1q-.5.6-1.1 1-.6.2-1.5.2t-1.6-.4q-.7-.3-1.2-1t-.8-1.6q-.2-.9-.2-2zm2.5.2l.1 1.2q0 .5.3 1l.6.5q.4.3 1 .3t1-.3q.5-.3.7-.8v-4q-.2-.5-.7-.8-.4-.2-1-.2t-1 .2l-.6.6-.3 1-.1 1.1zm13.7 5q-1.1 0-2-.3-1-.4-1.7-1-.6-.7-1-1.6-.3-.9-.3-1.8v-.4q0-1.1.3-2 .4-1 1-1.7t1.5-1q.9-.4 2-.4 1 0 1.8.4.9.3 1.4 1 .6.6 1 1.5.2.9.2 2v1h-6.7l.3 1 .6.7.8.4q.4.2 1 .2h.7l.7-.3.6-.3.6-.5 1.2 1.3q-.2.4-.6.7l-.9.6-1.1.4-1.4.1zm-.3-8.1l-.8.1-.6.4q-.3.3-.4.7l-.3.9h4.1v-.2l-.1-.8-.4-.6-.6-.4-.9-.1zm13 8H278v-10.2l-3.4 1.2v-2.2l5.8-2.1h.1v13.2z" class="f"/><use class="b h" xlink:href="#m"/><use class="c d" xlink:href="#m"/><use class="b j" xlink:href="#e"/><use class="c d" xlink:href="#e"/><path d="M747.6 99.1l-.2-1q-.1-.4-.5-.7l-1.1-.7q-.7-.4-1.7-.6l-2.4-.9q-1.1-.5-2-1.2-.8-.7-1.4-1.7-.5-1-.5-2.2 0-1.2.5-2.1.5-1 1.4-1.7 1-.7 2.2-1 1.2-.4 2.6-.4 1.5 0 2.7.4 1.3.4 2.1 1.2 1 .8 1.4 1.8.5 1.1.5 2.4h-3.5q0-.7-.3-1.2-.2-.5-.6-.9-.4-.4-1-.6-.5-.2-1.3-.2t-1.3.2q-.6.1-1 .5-.4.3-.6.7-.2.4-.2 1 0 .5.3 1 .3.4.8.7l1.2.6 1.6.6 2.4.9q1.1.5 1.9 1.3.8.7 1.2 1.7.5 1 .5 2.1 0 1.3-.5 2.2-.5 1-1.4 1.7-1 .6-2.1 1-1.3.3-2.7.3l-1.8-.1-1.7-.5-1.5-.9q-.7-.5-1.2-1.2-.5-.6-.8-1.5-.3-.9-.3-2h3.6q0 1 .3 1.6.2.6.7 1 .5.4 1.2.6l1.5.1 1.3-.1 1-.5.5-.7q.3-.5.3-1zm10-7.2q.6-1 1.6-1.6 1-.6 2.3-.6 1.1 0 2 .4 1 .3 1.6 1 .7.7 1 1.8.4 1.1.4 2.7v8.5H763v-8.6q0-.7-.2-1.3l-.5-.9-.9-.5-1-.1q-1 0-1.7.3-.6.3-1 .9v10.2H754V84h3.6zm21.1 12.2l-.2-.6q0-.4-.2-.7l-.7.6-.8.5-1 .3-1.3.1q-1 0-2-.3-.9-.3-1.5-.9-.7-.5-1-1.3-.4-.8-.4-1.7 0-2.2 1.6-3.4 1.7-1.2 5-1.2h2v-.9q0-1-.7-1.6-.6-.6-1.9-.6-1 0-1.6.5-.5.5-.5 1.3h-3.6q0-1 .4-1.7.4-.8 1.2-1.4.7-.6 1.8-1t2.5-.4q1.3 0 2.4.3 1.1.4 2 1 .7.6 1.2 1.5.4 1 .4 2.2v6q0 1.1.2 1.9.1.7.4 1.3v.2zm-3.4-2.6h1l.8-.4.7-.5.4-.5v-2.5h-1.8q-.9 0-1.5.2l-1 .4-.5.8-.2.8q0 .8.5 1.3.5.4 1.6.4zm23.3-4.3q0 1.5-.4 2.8-.4 1.3-1 2.3-.7 1-1.8 1.5-1 .5-2.3.5-1.2 0-2-.4-.9-.3-1.5-1v6.6H786V90h3.3l.1 1.4q.7-.8 1.6-1.2.9-.5 2-.5 1.4 0 2.4.5 1 .6 1.7 1.5.8 1 1.1 2.3.4 1.3.4 2.9zm-3.6-.3q0-.9-.2-1.7l-.5-1.3q-.3-.6-.9-1-.5-.2-1.3-.2-1 0-1.6.3-.6.4-1 1v6q.4.6 1 1t1.6.4q.8 0 1.3-.3.6-.3 1-.9.3-.6.4-1.4l.2-1.6v-.3zm13.8 7.4q-1.7 0-3-.5t-2.3-1.4q-1-1-1.4-2.2-.6-1.2-.6-2.7V97q0-1.6.5-3 .6-1.3 1.5-2.2.9-1 2.1-1.5 1.3-.6 2.8-.6 1.5 0 2.7.5 1.2.5 2 1.5.8.9 1.2 2.1.5 1.3.5 2.9v1.5h-9.6q.1.7.4 1.3l.8 1q.5.5 1.2.7.6.2 1.4.2h1l1-.4 1-.5.7-.7 1.8 2-1 1q-.4.4-1.2.7-.7.4-1.6.6l-2 .2zm-.5-11.6q-.6 0-1.1.2l-1 .6-.5 1q-.3.5-.4 1.2h5.9v-.3q0-.6-.2-1-.2-.6-.6-1l-.9-.5q-.5-.2-1.2-.2zM740 123q0-1.3.2-2.4.2-1.2.6-2.1.3-1 .8-1.8.4-.8 1-1.4.4-.6 1-1l1-.7.5 1.4-1 1q-.6.7-1 1.7t-.6 2.3q-.3 1.3-.3 3v.2q0 1.7.3 3 .2 1.3.6 2.3.4 1 1 1.6.5.7 1 1l-.5 1.5-1-.7q-.6-.4-1-1-.6-.6-1-1.4-.5-.8-.8-1.8l-.6-2q-.2-1.2-.2-2.5v-.2zm14.2 5.6q-1.2 0-2.1-.4-1-.4-1.6-1-.7-.6-1-1.5-.4-.9-.4-1.9v-.4q0-1 .4-2 .3-1 1-1.6.6-.7 1.5-1 .9-.4 1.9-.4 1 0 1.9.3.8.4 1.4 1 .6.6.9 1.5.3 1 .3 2v1h-6.7q0 .6.3 1 .2.4.6.7l.7.5 1 .2.8-.1.7-.2.6-.4.5-.5 1.3 1.4-.6.6q-.4.4-1 .6-.4.3-1 .4l-1.4.2zm-.3-8.2q-.5 0-.8.2-.4.1-.6.4l-.5.7-.3.8h4.2v-.2q0-.4-.2-.7-.1-.4-.4-.6-.2-.3-.6-.4l-.8-.2zm8.3-1.9v1.2q.3-.6.8-1 .5-.3 1.2-.3 1.2 0 1.6 1 .3-.5.7-.8.5-.2 1.1-.2l.8.1q.4.2.7.6.3.3.5.9l.1 1.4v7h-2.3v-7.5q0-.2-.2-.3l-.2-.1h-.8l-.2.4v7.5h-2.3v-7.5q0-.2-.2-.3l-.2-.1h-.7l-.3.5v7.4H760v-9.9h2.2zm18.4 5q0 1.1-.2 2-.3 1-.8 1.6-.4.7-1.2 1.1-.7.4-1.6.4-.8 0-1.4-.3-.6-.3-1-.8v4.7h-2.6v-13.7h2.4v1q.5-.5 1.1-.8.7-.3 1.5-.3 1 0 1.6.3.8.4 1.2 1 .5.7.8 1.6l.2 2zm-2.5-.1l-.1-1.2-.4-1-.6-.6q-.4-.2-.9-.2-.7 0-1 .3-.5.2-.7.7v4.1q.2.5.6.8.4.2 1.1.2l1-.2q.3-.2.5-.6l.4-1 .1-1.2zm9.5-7.3v2.4h3.7v2h-3.7v4.1l.1 1 .4.5.6.3.7.1h1.2l.5-.2h.4l.2 1.7-.6.3-.7.1-.9.1h-.8l-1.5-.1q-.7-.2-1.1-.7-.5-.4-.8-1.1-.2-.7-.2-1.7v-4.5h-2.3v-1.9h2.3v-2.4zm10.8 8.2l.3 1 2.6-6.8h2.8l-5 11.4-.4.8-.7.8q-.4.4-1 .6-.5.3-1.3.3h-.6l-.3-.1-.3-.1.3-2h.8l.5-.1.4-.4.3-.4.2-.2.6-1.1-4.2-9.5h2.8zm13.7-1q0 1.2-.2 2.3l-.5 2-.8 1.8-1 1.4q-.5.7-1 1.1l-1.1.7-.5-1.4 1-1q.5-.7.9-1.7l.7-2.3q.2-1.3.2-3v-.2q0-1.7-.2-3l-.7-2.3q-.4-1-1-1.6-.4-.7-1-1l.6-1.4 1 .6 1 1q.6.7 1 1.5l.9 1.8.5 2 .2 2.4z" class="f"/><g stroke="#595959" class="k"><path d="M350.7 272c26.6 0 39.8 11.3 53.1 22.8 6.7 5.7 13.3 11.4 21.6 15.7a61.8 61.8 0 007.4 3.2l.4.2" class="c g"/><path fill="#595959" d="M432.2 320.4l19-3.7-17-9.3z" class="b"/></g><g stroke-width="2" class="d"><path d="M776 151.6v29.6" class="c g"/><path fill="#666" d="M779.4 151.6l-3.3-9-3.3 9z" class="b"/><path d="M776 291.6v22.7" class="c g"/><path fill="#666" d="M779.3 291.6l-3.3-9-3.3 9zm-6.6 22.7l3.3 9.1 3.3-9z" class="b"/></g><use fill="#b45f06" class="b" xlink:href="#f"/><use class="c d" xlink:href="#f"/><path d="M747.5 354.1l-.2-1q-.1-.4-.6-.7l-1-.7q-.7-.4-1.7-.6l-2.4-.9q-1.1-.5-2-1.2-.9-.7-1.4-1.7-.5-1-.5-2.2 0-1.2.5-2.1.5-1 1.4-1.7 1-.7 2.2-1 1.2-.4 2.6-.4 1.5 0 2.7.4 1.2.4 2.1 1.2 1 .8 1.4 1.8.5 1.1.5 2.4h-3.6q0-.7-.2-1.2t-.6-.9q-.4-.4-1-.6-.5-.2-1.3-.2t-1.3.2l-1 .5q-.4.3-.6.7l-.2 1q0 .5.3 1 .2.4.7.7l1.3.6 1.6.6 2.4.9q1.1.5 1.9 1.3.8.7 1.2 1.7.4 1 .4 2.1 0 1.3-.5 2.2-.5 1-1.4 1.7-.8.6-2 1-1.3.3-2.7.3l-1.8-.1-1.7-.5-1.5-.9q-.7-.5-1.3-1.2-.5-.6-.8-1.5-.3-.9-.3-1.9h3.6q0 .9.3 1.5t.8 1q.5.4 1.2.6l1.5.1 1.3-.1 1-.5.5-.7.2-1zm10-7.2q.6-1 1.6-1.6 1-.6 2.3-.6 1 0 2 .4 1 .3 1.6 1 .7.7 1 1.8.4 1.1.4 2.7v8.5h-3.6v-8.6q0-.7-.2-1.3l-.5-.8q-.4-.4-.9-.5l-1-.2q-1 0-1.7.3-.6.3-1 1v10h-3.7v-20h3.6v8zm21.1 12.2l-.2-.6-.2-.7-.7.6-.8.5-1 .3-1.3.1q-1 0-2-.3-.9-.3-1.6-.9-.6-.5-1-1.3-.3-.8-.3-1.7 0-2.2 1.6-3.4 1.7-1.2 5-1.2h2v-.9q0-1-.7-1.6-.6-.6-1.9-.6-1 0-1.6.5-.5.5-.5 1.3h-3.6q0-1 .4-1.7.4-.8 1.1-1.4.8-.6 2-1 1-.4 2.4-.4 1.3 0 2.4.3 1.1.4 1.9 1 .8.6 1.3 1.5.4 1 .4 2.2v6q0 1.1.2 1.9.1.7.4 1.3v.2zm-3.4-2.6h1l.8-.4.7-.5.4-.5v-2.5h-1.9q-.8 0-1.4.2l-1 .5-.5.7-.2.8q0 .8.5 1.3t1.6.5zm23.2-4.3q0 1.5-.3 2.8-.4 1.3-1 2.3-.8 1-1.8 1.5t-2.3.5q-1.2 0-2-.4-.9-.3-1.5-1v6.6h-3.6V345h3.3l.1 1.4q.7-.8 1.6-1.2.9-.5 2-.5 1.4 0 2.4.5 1 .6 1.7 1.5.7 1 1.1 2.3.4 1.3.4 2.9v.3zm-3.6-.3l-.1-1.7-.5-1.3q-.4-.6-1-1-.5-.2-1.2-.2-1 0-1.6.3-.6.4-1 1v6q.4.6 1 1t1.6.4q.8 0 1.3-.3t.9-.9l.5-1.4.1-1.6zm13.8 7.4q-1.6 0-3-.5-1.2-.5-2.2-1.4-1-1-1.5-2.2-.5-1.2-.5-2.7v-.5q0-1.6.5-3 .5-1.3 1.4-2.2 1-1 2.2-1.5 1.3-.6 2.7-.6 1.5 0 2.7.5 1.2.5 2 1.5.9.9 1.3 2.1.4 1.3.4 2.9v1.5h-9.5q0 .7.4 1.3.3.6.8 1 .5.5 1.2.7.6.2 1.3.2h1.1l1-.4 1-.5.7-.7 1.7 2-.8 1-1.3.7q-.7.4-1.6.6l-2 .2zm-.4-11.6q-.6 0-1.1.2l-1 .6-.6 1-.4 1.2h6v-.3q0-.6-.2-1-.2-.6-.6-1l-.9-.5q-.5-.2-1.2-.2zm-95.8 30.9l2.2 3.6h-1.7l-2.5-3.5v-.2l2.5-3.5h1.7l-2.2 3.6zm4 0l2.2 3.6h-1.7l-2.5-3.5v-.2l2.5-3.5h1.7l-2.2 3.6zm4.6-.2q0-1.1.3-2 .2-1 .7-1.6.5-.7 1.2-1 .8-.4 1.7-.4.8 0 1.3.2.6.3 1 .8v-5h2.6v14h-2.3v-1l-1.2.9q-.6.3-1.4.3-1 0-1.7-.4t-1.2-1q-.5-.7-.7-1.6-.3-1-.3-2zm2.5.2l.1 1.1q.1.6.4 1 .2.4.6.6.4.2.9.2.6 0 1-.3.5-.2.8-.7v-4q-.3-.5-.7-.8-.4-.3-1.1-.3-.5 0-1 .3-.3.2-.5.6-.3.4-.4 1v1.1zm13.7 5q-1.1 0-2-.4-1-.4-1.6-1-.7-.6-1-1.5-.4-.9-.4-1.9v-.4q0-1 .4-2 .3-1 1-1.6.6-.7 1.5-1 .8-.4 1.9-.4 1 0 1.9.3.8.4 1.4 1 .6.6.9 1.6.3.9.3 2v1h-6.7q0 .5.3 1l.5.6.8.5 1 .2.7-.1q.4 0 .7-.2l.7-.4.5-.5 1.3 1.4-.7.7q-.3.3-.9.5-.5.3-1.1.4-.6.2-1.4.2zm-.3-8.2q-.4 0-.7.2-.4.1-.7.4l-.4.7-.3.8h4.2v-.2q0-.4-.2-.7-.1-.4-.4-.6-.2-.3-.6-.4l-.8-.2zm15.6 3.2l-.2 2q-.3.9-.8 1.6-.5.6-1.2 1t-1.6.4q-.8 0-1.4-.3-.6-.3-1-.8v4.7h-2.6v-13.7h2.3l.1 1q.5-.5 1.1-.8.6-.3 1.5-.3t1.6.3q.7.4 1.2 1 .5.7.8 1.6l.2 2v.3zm-2.5-.2l-.1-1.2-.4-1q-.2-.3-.6-.5-.4-.3-.9-.3-.7 0-1.1.3-.4.2-.7.7v4.1q.3.5.7.8.4.2 1.1.2l1-.2q.3-.2.5-.6.3-.4.4-1v-1.2zm12-5h1l.8.2-.4 2.5-1-.1-1-.1q-1 0-1.7.4t-1 1.2v5.9h-2.5v-9.9h2.3l.2 1.6q.6-.8 1.4-1.3.8-.4 1.8-.4zm8.8 10.2q-1.1 0-2-.4-1-.4-1.6-1-.7-.6-1-1.5-.4-.9-.4-1.9v-.4q0-1 .3-2 .4-1 1-1.6.7-.7 1.5-1 1-.4 2-.4t1.9.3q.8.4 1.4 1 .6.6.8 1.6.4.9.4 2v1h-6.7q0 .5.3 1l.5.6.8.5 1 .2.7-.1q.4 0 .7-.2l.7-.4.5-.5 1.3 1.4-.7.7q-.3.3-.9.5-.5.3-1.1.4-.6.2-1.4.2zm-.3-8.2q-.4 0-.7.2-.4.1-.7.4l-.4.7-.3.8h4.2v-.2q0-.4-.2-.7-.1-.4-.4-.6l-.6-.4q-.4-.2-.9-.2zm11.1 6.2q.4 0 .7-.2.4 0 .6-.2l.4-.5q.2-.3.1-.7h2.4q0 .8-.3 1.4-.3.7-.9 1.2-.6.5-1.3.7-.8.3-1.6.3-1.2 0-2-.4-.9-.4-1.5-1-.5-.7-.8-1.6-.3-1-.3-2v-.3q0-1 .3-1.9.3-.9.8-1.6.6-.6 1.5-1 .8-.4 2-.4.9 0 1.7.3.7.2 1.3.7l.9 1.2q.3.7.3 1.6h-2.4l-.1-.7-.4-.6-.6-.3-.8-.2q-.6 0-1 .3-.4.2-.6.6l-.3 1-.1 1v1.4l.4 1q.2.4.6.6.4.2 1 .2zm13 1.8l-.2-.4v-.5l-.5.4-.6.4-.8.2h-.8l-1.4-.1-1.1-.6q-.5-.4-.7-1-.3-.5-.3-1.2 0-1.5 1.2-2.3 1.1-1 3.4-1h1.5v-.5q0-.7-.5-1.1-.5-.4-1.3-.4t-1.2.3q-.3.3-.3 1h-2.6q0-.7.3-1.3.3-.6.8-1l1.3-.7q.8-.2 1.8-.2.9 0 1.6.2.8.2 1.4.7.6.4.9 1 .3.7.3 1.5v5.6l.4.9v.1zm-2.4-1.8h.7l.6-.3.4-.3.4-.4v-1.7H793l-1 .1q-.5.1-.7.3-.3.2-.4.5l-.2.6q0 .5.4.9.4.3 1 .3zm12-10.5v2.4h3.8v2h-3.7v5l.4.5q.3.3.6.3l.7.1h1.2l.5-.2h.4l.3 1.7-.6.3-.8.1-.8.2h-.9q-.8 0-1.4-.2-.7-.2-1.2-.7-.4-.4-.7-1.1-.3-.7-.3-1.7v-4.5h-2.2v-1.8h2.2V371zm11.4 12.5q-1.1 0-2-.4-1-.4-1.7-1-.6-.6-1-1.5-.3-.9-.3-1.9v-.4q0-1 .3-2 .4-1 1-1.6.7-.7 1.5-1 .9-.4 2-.4 1 0 1.8.3.9.4 1.5 1 .5.6.8 1.6.3.9.3 2v1h-6.6l.2 1 .6.6.8.5q.4.2 1 .2l.7-.1q.4 0 .7-.2l.7-.4.5-.5 1.2 1.4-.6.7-.9.5q-.5.3-1.1.4l-1.4.2zm-.3-8.2l-.8.2-.6.4q-.3.3-.4.7l-.3.8h4.1v-.2l-.1-.7q-.1-.4-.4-.6l-.6-.4q-.4-.2-.9-.2zm6.5 3q0-1.1.2-2 .3-1 .8-1.6.5-.7 1.2-1 .7-.4 1.6-.4.8 0 1.4.2.6.3 1 .8v-5h2.6v14h-2.3l-.1-1-1.1.9q-.6.3-1.5.3t-1.6-.4q-.7-.4-1.2-1-.5-.7-.8-1.6l-.2-2zm2.5.2v1.1l.4 1 .6.6q.4.2 1 .2t1-.3q.5-.2.7-.7v-4q-.2-.5-.7-.8-.4-.3-1-.3t-1 .3l-.6.6-.3 1-.1 1.1zM836 375l2.6 3.5v.2l-2.6 3.5h-1.7l2.2-3.6-2.2-3.6zm3 0l2.6 3.5v.2l-2.6 3.5h-1.7l2.2-3.6-2.2-3.6z" class="f"/><path d="M792.5 302.6l-.1.6q0 .4-.2.7l-.3.7-.4.6-.5.4-.6.1q-.4 0-.6-.2-.3-.2-.3-.6l-.3.3-.3.3-.4.1h-.8l-.3-.3-.2-.5v-1.4l.2-.7.2-.7.4-.7.5-.5q.2-.3.6-.4.3-.2.7-.2.7 0 1.2.6l-.8 3.3v.8h.7l.4-.4.2-.5.2-.5v-.5l.1-.4v-1.5l-.1-.8-.4-.6q-.2-.3-.5-.4l-.8-.2q-.6 0-1 .2-.5.1-.9.5l-.7.7-.5.9-.4 1-.2 1-.1.8v.8l.2.8.4.6q.2.3.6.4.3.2.9.2l.8-.1.7-.3.1.8-.8.3-.8.1q-.7 0-1.2-.2l-.8-.5-.5-.7-.3-1v-2l.3-1.2.5-1.2q.2-.6.6-1 .4-.6.9-1l1-.5q.5-.2 1.2-.2.6 0 1 .2l.7.5q.4.3.5.8l.3.9.1 1v1zm-4.4.8v.2l-.1.3v.6l.2.2.2.1h.3l.3-.2.3-.3.2-.3.7-2.9H789.3l-.4.3-.3.5-.3.5-.1.5-.1.5zm7.4-2.7l-.2 1 .5-.4.5-.4.6-.2.7-.1q.6 0 1 .2l.6.6q.3.4.4.9v1l-.8 4.5h-1.1l.7-4.5v-.6l-.1-.6-.5-.3q-.2-.2-.6-.2l-.6.1q-.3 0-.5.2l-.4.4-.4.4-1 5h-1l1.1-7zm5.8 3.5l.2-.9.4-.9.5-.7.7-.6q.4-.3.9-.4l1-.1q.7 0 1.2.3t.9.8q.3.5.4 1.2v1.4q0 .7-.4 1.4l-.7 1.1q-.5.5-1.1.8-.6.3-1.4.3-.7 0-1.3-.3-.5-.3-.8-.8-.3-.5-.4-1.1-.2-.7 0-1.3zm1.2.2v1.1l.2.6.2.4.5.3.6.1 1-.2.6-.6.5-.8.3-1v-1l-.2-.8q-.2-.4-.5-.6-.3-.3-.8-.3l-1 .2q-.4.2-.7.6l-.5.9-.2 1zm8.6-3.7l-.1 1 .4-.4.6-.4.6-.2.7-.1q.6 0 1 .2l.6.6.3.9v1l-.7 4.5h-1.2l.8-4.5v-.6l-.2-.6q-.1-.2-.4-.3-.3-.2-.7-.2l-.5.1q-.3 0-.5.2l-.5.4-.4.4-.9 5h-1l1.2-7zm8.7 7.2q-.7 0-1.3-.3l-.9-.7-.5-1.1v-1.6l.1-.9.4-.8.6-.8.7-.6.8-.4 1-.1q.7 0 1.2.3t.8.8l.4 1v1.9h-5l.1.8q0 .4.3.8.2.3.6.5.3.2.8.2.6 0 1.1-.2l1-.7.6.5q-.2.4-.5.6l-.7.5-.8.2h-.8zm.8-6.3l-.8.1q-.4.2-.6.5l-.5.7-.4.7h3.7v-.8l-.2-.6q-.2-.3-.5-.4-.3-.2-.7-.2zm7.5 1.7l2.2-2.6h1.4l-3.1 3.6 2 3.5h-1.2l-1.5-2.7-2.3 2.7H824l3.2-3.6-2-3.5h1.4l1.4 2.6zm8.5-4.3l-.3 1.7h2.6l-.1 1h-2.6l-.7 3.8v.5q0 .3.2.5l.3.3h1.2l.7-.1.1.8q-.4.3-.9.3h-1l-.8-.1q-.4-.2-.6-.5-.3-.4-.3-.8v-1l.6-3.7h-1.8l.1-1h1.8l.3-1.7zm6.6 8.9q-.7 0-1.2-.3l-1-.7q-.3-.5-.4-1.1-.2-.6-.1-1.3v-.3l.2-.9.4-.8.6-.8.7-.6.8-.4 1-.1q.7 0 1.2.3t.8.8l.4 1v1.9h-5v.8l.4.8.5.5q.4.2.9.2.6 0 1-.2l1-.7.7.5q-.2.4-.6.6l-.7.5-.7.2h-.8zm1-6.3l-1 .1-.6.5-.5.7-.3.7h3.7v-.8q0-.3-.3-.6-.1-.3-.4-.4-.3-.2-.7-.2zm6-.9l-.1 1 .5-.4.5-.4.6-.2.7-.1q.6 0 1 .2l.6.6q.3.4.3.9v1l-.7 4.5h-1.2l.8-4.5v-.6l-.2-.6q-.1-.2-.4-.3l-.6-.2-.6.1q-.3 0-.5.2l-.5.4-.4.4-.9 5H848l1.2-7h1zm10.5 5.2l-.1-.5q-.1-.2-.4-.3l-.5-.3h-.4l-.8-.3-.8-.4q-.4-.2-.6-.6-.2-.3-.2-.8l.1-.6.4-.6.5-.4.6-.3.6-.1.7-.1 1 .2q.4.1.7.4.4.3.6.7.2.4.2.9h-1.2v-.5l-.4-.4-.4-.2-.5-.1h-.6l-.5.2-.4.4q-.2.2-.2.5v.4l.4.3.5.2.5.1.5.2.6.2q.3 0 .5.2l.4.4.3.5v.6l-.2 1q-.3.4-.8.6-.4.3-.9.4h-2l-.9-.5q-.4-.3-.6-.7-.2-.4-.2-1h1.2l.1.6.3.4.5.2.6.1h.6q.3 0 .5-.2l.5-.3q.2-.2.2-.5zm4.3-5.2h3.5l-1 6h2.2l-.2 1h-5.7l.2-1h2.3l.9-5h-2.4zm2.5-1.8q0-.3.2-.5t.5-.2h.3l.2.1.2.3v.3q0 .3-.2.5t-.5.2q-.3 0-.5-.2t-.2-.5zm10.3 5.4l-.2.9q0 .4-.3.8l-.4.8-.6.6-.8.4-.9.1-1-.2q-.5-.2-.8-.7l-.3.8h-1l1.7-10h1.2l-.7 3.7.9-.7 1-.2q.5 0 .9.2.4.1.6.4l.4.6.3.7v.9q.1.4 0 .8zm-1.1-.1v-.9l-.1-.8q-.2-.4-.5-.6-.3-.3-.8-.3l-.5.1q-.3 0-.5.2l-.5.4-.3.4-.5 3.1q.1.5.5.8.4.3.9.3.6 0 1-.2l.6-.6.5-.9.2-.9zm4.5-6.4h3.5l-1.6 9h2.2l-.1 1h-5.8l.2-1h2.3l1.4-8H881zm9 10.1q-.7 0-1.3-.3l-.9-.7-.5-1q-.2-.7 0-1.4v-.2l.1-1 .4-.8.6-.8.7-.6.8-.4 1-.1q.7 0 1.2.3t.8.8l.4 1v1.9h-5l.1.8q0 .4.3.8.2.3.6.5.3.2.8.2.6 0 1.1-.2l1-.7.6.5q-.2.4-.5.6l-.7.5-.8.2h-.8zm.8-6.3l-.8.1q-.4.2-.6.5l-.5.7-.4.7h3.7v-.8l-.2-.6q-.2-.3-.5-.4-.3-.2-.7-.2z" class="e"/><path fill="#34a853" d="M161.8 412.6a11.4 11.4 0 0111.3-11.4h166.3a11.4 11.4 0 0111.3 11.4V458a11.4 11.4 0 01-11.3 11.3H173a11.4 11.4 0 01-11.3-11.3z" class="b"/><path d="M161.8 412.6a11.4 11.4 0 0111.3-11.4h166.3a11.4 11.4 0 0111.3 11.4V458a11.4 11.4 0 01-11.3 11.3H173a11.4 11.4 0 01-11.3-11.3z" class="c d"/><path d="M198 426h-8.1v8h-3.7v-19H199v3h-9v5.1h8.1v3zm5-6.2h7.7V431h3.8v3h-11.4v-3h4v-8.2h-4zm3.8-3.6l.1-.7q.2-.4.5-.6.2-.3.6-.4.4-.2.9-.2 1 0 1.5.6.6.5.6 1.3 0 .9-.6 1.4-.5.6-1.5.6-.5 0-.9-.2l-.6-.4q-.3-.2-.5-.6v-.8zm24 10.8q0 1.6-.4 3-.3 1.2-1 2.2-.7 1-1.7 1.5t-2.4.5q-1.3 0-2.2-.5-.9-.4-1.5-1.3l-.2 1.5h-3.2v-20h3.6v7.2q.6-.7 1.4-1.1 1-.4 2-.4 1.4 0 2.5.5 1 .6 1.7 1.5.7 1 1 2.3.4 1.3.4 2.9zm-3.6-.2q0-1-.2-1.7-.1-.7-.4-1.3-.3-.6-.9-1-.5-.3-1.3-.3-1 0-1.6.4-.7.5-1 1.2v5.6q.3.7 1 1.1.6.4 1.6.4.8 0 1.3-.3.6-.3.9-.9.3-.5.4-1.3.2-.8.2-1.7zm13.7 7.4q-1.6 0-3-.5-1.3-.6-2.2-1.5-1-1-1.5-2.2-.5-1.2-.5-2.6v-.5q0-1.7.5-3t1.4-2.3q1-1 2.2-1.5 1.2-.5 2.7-.5 1.5 0 2.7.5 1.2.5 2 1.4.9 1 1.3 2.2.4 1.3.4 2.8v1.5h-9.5q0 .8.4 1.4.3.6.8 1t1.2.6q.6.3 1.4.3l1-.1 1-.3 1-.5.7-.7 1.8 2-1 .9-1.2.8-1.6.6-2 .2zm-.4-11.7q-.6 0-1.1.2l-1 .6-.6 1-.4 1.2h6v-.2q0-.6-.3-1.1-.1-.5-.5-.9t-1-.6q-.5-.2-1.1-.2zm19.7-3q.8 0 1.5.2.7 0 1.1.2l-.5 3.6-1.5-.2h-1.4q-1.5 0-2.4.5-1 .6-1.4 1.7v8.4H252v-14h3.4l.1 2.2q.9-1.2 2-1.8 1.3-.7 2.7-.7zm18.2 14.4h-3.6l-5.3-12.2V434h-3.7v-19h3.7l5.3 12.2V415h3.6v19zm3.2-7.1q0-1.6.4-2.9.5-1.3 1.3-2.3.9-1 2.1-1.5 1.2-.5 2.8-.5 1.6 0 2.8.5 1.3.6 2.1 1.5.9 1 1.3 2.3.5 1.3.5 2.9v.2q0 1.6-.5 2.9-.4 1.3-1.3 2.3-.8 1-2 1.5-1.3.5-2.9.5-1.5 0-2.8-.5-1.2-.6-2-1.5-1-1-1.4-2.3-.4-1.3-.4-2.9v-.2zm3.6.2q0 1 .2 1.7.1.8.5 1.3.4.6 1 1 .5.3 1.3.3t1.4-.3q.6-.4 1-1 .3-.5.5-1.3l.1-1.7v-.2l-.1-1.7q-.2-.7-.6-1.3-.3-.6-.9-1-.6-.3-1.4-.3-.8 0-1.4.3l-1 1q-.3.6-.4 1.3-.2.8-.2 1.7v.2zm12.5-.2q0-1.6.4-3 .3-1.3 1-2.2.8-1 1.8-1.5t2.3-.5q1.1 0 2 .4.8.4 1.5 1v-7h3.6v20H307l-.2-1.6q-.6.9-1.5 1.3-1 .5-2.1.5-1.3 0-2.3-.6-1-.5-1.7-1.5-.8-.9-1.1-2.2-.4-1.3-.4-2.9zm3.6.2l.1 1.7q.2.8.5 1.3.4.6 1 1 .5.2 1.2.2 1 0 1.6-.4.6-.4 1-1V424q-.4-.7-1-1-.6-.5-1.6-.5-.7 0-1.3.4-.5.3-.9.9-.3.6-.4 1.3-.2.8-.2 1.7zm19.6 7.2q-1.6 0-3-.5-1.3-.6-2.2-1.5-1-1-1.5-2.2-.5-1.2-.5-2.6v-.5q0-1.7.5-3t1.4-2.3q1-1 2.2-1.5 1.2-.5 2.7-.5 1.5 0 2.7.5 1.2.5 2 1.4.9 1 1.3 2.2.4 1.3.4 2.8v1.5h-9.5q0 .8.4 1.4.3.6.8 1t1.1.6q.7.3 1.4.3l1.1-.1 1-.3.9-.5.7-.7 1.8 2-.8.9-1.3.8-1.7.6q-.9.2-1.9.2zm-.4-11.7l-1.2.2q-.5.2-.9.6l-.6 1-.4 1.2h6v-.2q0-.6-.3-1.1l-.5-.9q-.4-.4-1-.6-.5-.2-1.2-.2zm-88.7 25.9l.2 1.4q.5-.8 1.3-1.2.7-.4 1.7-.4.7 0 1.3.2l1 .7q.5.5.8 1.3.2.7.2 1.8v6h-2.5v-6l-.1-1-.4-.5q-.2-.3-.6-.3l-.8-.1q-.6 0-1 .2-.5.3-.8.8v7h-2.5v-9.9zm8.6 4.8q0-1 .3-2 .3-.9 1-1.5.5-.7 1.4-1.1.8-.4 2-.4 1 0 2 .4.8.4 1.4 1 .6.7.9 1.6.3 1 .3 2v.2q0 1-.3 2t-1 1.6q-.5.7-1.4 1-.9.4-2 .4-1 0-2-.3-.8-.4-1.4-1-.6-.8-1-1.7l-.2-2zm2.5.2l.1 1.2.4 1 .7.6q.4.2 1 .2.5 0 .9-.2.4-.3.6-.7.3-.4.4-1l.1-1V452.1l-.5-1q-.2-.4-.6-.6-.4-.2-1-.2l-1 .2-.6.6q-.3.4-.4 1v1.1zm8.8-.2l.2-2q.3-1 .8-1.6.5-.7 1.2-1 .7-.4 1.6-.4.8 0 1.4.3.6.3 1 .8v-5h2.6v14h-2.3l-.1-1q-.5.5-1.1.8-.6.3-1.5.3t-1.6-.3q-.7-.4-1.2-1-.5-.8-.8-1.7-.2-.9-.2-2zm2.5.2l.1 1.2q0 .5.3 1l.6.6q.4.2 1 .2t1-.3q.5-.3.7-.8v-4q-.2-.5-.7-.8-.4-.3-1-.3t-1 .3l-.6.6-.3 1-.1 1.1zm13.7 5q-1.1 0-2-.3-1-.4-1.7-1-.6-.7-1-1.6-.3-.8-.3-1.8v-.4q0-1.1.3-2 .4-1 1-1.7t1.5-1q.9-.4 2-.4 1 0 1.8.4.9.3 1.4 1 .6.6 1 1.5.2.9.2 2v1h-6.7l.3 1 .6.7.8.4q.4.2 1 .2h.7l.7-.3.6-.3.6-.5 1.2 1.3q-.2.4-.6.7l-.9.6-1.1.4-1.4.1zm-.3-8.1l-.8.1-.6.4q-.3.3-.4.7l-.3.9h4.1v-.2l-.1-.8-.4-.6-.6-.4-.9-.1zm15.4 8h-9v-1.8l4.2-4.6.9-1 .5-.8.4-.7V448l-.4-.6-.6-.3q-.3-.2-.7-.2-1 0-1.6.6-.5.6-.5 1.6h-2.5q0-.8.3-1.6.4-.8 1-1.4.6-.6 1.4-1 1-.3 2-.3t1.8.3q.7.3 1.3.8.5.5.8 1.2.2.7.2 1.6l-.2 1.2-.6 1.2q-.3.6-.9 1.2l-1.1 1.3-2.5 2.6h5.8z" class="f"/><use class="b h" xlink:href="#p"/><use class="c d" xlink:href="#p"/><path d="M261.7 501.5q0 1.6-.4 2.9-.4 1.2-1 2.1-.8.9-1.8 1.3-1 .5-2.3.5-1.3 0-2.4-.5-1-.4-1.7-1.3t-1.1-2.1q-.4-1.3-.4-3v-4q0-1.5.4-2.8.4-1.3 1-2.1.8-.9 1.8-1.3 1-.5 2.3-.5 1.3 0 2.4.5 1 .4 1.7 1.3.7.8 1 2.1.5 1.3.5 2.9zm-9-.5l6.8-5q-.2-1.8-1-2.6-.8-1-2.4-1-1.7 0-2.5 1.2t-.8 3.4zm6.8-3l-6.6 5.1q.2 1.6 1 2.5.8.9 2.3.9 1.7 0 2.5-1.2t.8-3.4z" class="e"/><g stroke="#595959" class="k"><path d="M350.7 435.3c85.7 0 128.6-18.7 171.4-37.4a450.3 450.3 0 0169.7-25.7c13.4-3.5 28.1-6.5 44.8-8.5 8.4-1 17.3-1.8 26.7-2.4a472.4 472.4 0 015.4-.3h.9" class="c g"/><path fill="#595959" d="M669.7 367.6l18-7-18.3-6.2z" class="b"/></g><use class="b j" xlink:href="#g"/><use class="c d" xlink:href="#g"/><path d="M511 169.1l-.2-1-.6-.8-1-.7-1.8-.6q-1.2-.3-2.3-.8-1.2-.5-2-1.2-.9-.7-1.4-1.7-.5-1-.5-2.2 0-1.2.5-2.2.5-1 1.4-1.6 1-.7 2.1-1 1.2-.5 2.7-.5 1.5 0 2.7.5 1.2.4 2.1 1.2 1 .8 1.4 1.8.5 1 .5 2.4H511q0-.7-.2-1.2l-.6-1-1-.5q-.6-.2-1.4-.2-.7 0-1.3.2l-1 .4-.5.8q-.2.4-.2 1l.2 1 .8.7 1.2.6 1.7.5q1.3.4 2.4 1 1 .5 1.9 1.3.7.7 1.2 1.7.4 1 .4 2 0 1.3-.5 2.3-.5 1-1.4 1.7-.9.6-2 1-1.3.3-2.8.3-.9 0-1.7-.2-1-.1-1.8-.4l-1.5-.9q-.7-.5-1.2-1.2t-.8-1.5q-.3-.9-.3-2h3.6q0 1 .3 1.6.3.6.8 1t1.1.5q.7.2 1.5.2t1.3-.2q.6-.1 1-.4.4-.3.6-.8.2-.4.2-.9zm9.9-7.2q.7-1 1.7-1.6 1-.6 2.3-.6 1 0 2 .4 1 .3 1.6 1 .6.7 1 1.8.4 1 .4 2.6v8.6h-3.6v-8.6q0-.8-.2-1.3t-.6-.9l-.8-.5-1.1-.1q-1 0-1.6.3-.7.3-1.1.9V174h-3.6v-20h3.6v7.8zm21.2 12.1l-.3-.5-.1-.8q-.3.4-.7.6l-.9.5q-.4.3-1 .4l-1.2.1q-1.1 0-2-.3-1-.3-1.6-.9-.6-.5-1-1.3t-.4-1.7q0-2.2 1.7-3.5 1.7-1.2 5-1.2h2v-.8q0-1-.7-1.6-.7-.6-2-.6-1 0-1.5.5t-.5 1.3h-3.6q0-1 .4-1.7.4-.9 1.1-1.5.8-.6 1.9-1 1-.3 2.5-.3 1.3 0 2.4.3 1 .3 1.9 1 .8.5 1.2 1.5.5.9.5 2.1v6q0 1.2.2 2 0 .7.4 1.2v.2H542zm-3.5-2.5l1-.1q.5-.1.9-.4l.6-.4.5-.6v-2.4h-1.9q-.8 0-1.4.2-.6.1-1 .4-.4.3-.6.7l-.1 1q0 .7.5 1.1.5.5 1.5.5zm23.3-4.4q0 1.6-.3 2.9-.4 1.3-1.1 2.3-.7 1-1.7 1.5t-2.4.5q-1.1 0-2-.4-.8-.4-1.5-1v6.6h-3.6V160h3.4l.1 1.3q.7-.7 1.5-1.2 1-.4 2.1-.4 1.4 0 2.4.5t1.7 1.5q.7 1 1 2.2.4 1.4.4 3zm-3.6-.2l-.1-1.7q-.2-.8-.5-1.3-.4-.6-1-1-.5-.3-1.3-.3-1 0-1.5.4-.6.4-1 1v6q.4.6 1 1t1.6.4q.7 0 1.3-.3.5-.4.9-1 .3-.5.5-1.3l.1-1.7zm13.8 7.4q-1.6 0-3-.5-1.3-.6-2.2-1.5-1-.9-1.5-2.1-.5-1.3-.5-2.7v-.5q0-1.6.5-3 .5-1.3 1.4-2.3 1-1 2.2-1.5 1.2-.5 2.7-.5 1.5 0 2.7.5 1.2.5 2 1.4.9 1 1.3 2.2.4 1.3.4 2.8v1.6h-9.5q0 .7.4 1.3.3.6.8 1l1.1.7 1.4.2h1.1l1-.4.9-.5.7-.7 1.8 2-.8.9q-.6.5-1.3.8-.8.4-1.7.6-.9.2-1.9.2zm-.4-11.7q-.6 0-1.1.2l-1 .7-.6 1-.4 1.2h6v-.3q0-.6-.3-1-.1-.6-.5-1l-1-.6q-.5-.2-1.1-.2zm-98 26.8l.1-1.7.4-1.5.6-1.3.7-1 .7-.7.7-.5.4 1q-.4.3-.7.8-.4.4-.7 1.1l-.5 1.7-.1 2.1v.2l.1 2.1q.2 1 .5 1.6l.7 1.2q.3.5.7.8l-.4 1-.7-.5q-.4-.3-.7-.8l-.7-1-.6-1.2-.4-1.5v-1.9zm11 3.9v-.3l-.1-.4-.4.3q-.1.2-.4.3l-.5.1h-1.6l-.8-.5-.5-.7-.2-.8q0-1.1.8-1.7.9-.6 2.5-.6h1v-.4q0-.5-.3-.8-.3-.3-1-.3-.5 0-.8.2-.2.2-.2.6h-1.8l.2-.8.5-.7 1-.5q.5-.2 1.2-.2t1.2.2q.6.1 1 .4.4.3.6.8l.2 1v3l.1 1q0 .4.2.7zM483 192h.5l.5-.2.3-.3.2-.3V190h-1l-.6.1-.5.3q-.2 0-.3.3v.5l.2.6q.2.2.7.2zm8.5 0l.5-.1.4-.3q.2 0 .3-.3v-.4h1.8l-.2 1-.7.8-1 .5q-.5.2-1.1.2-.8 0-1.4-.3l-1-.7q-.5-.5-.7-1.2-.2-.6-.2-1.4v-.2l.2-1.4q.2-.6.6-1 .5-.6 1-.8.7-.3 1.5-.3l1.2.2 1 .5.6.9q.2.5.2 1.1h-1.7l-.1-.5q0-.2-.3-.4-.1-.2-.4-.3h-.5l-.7.1-.5.5q-.2.3-.2.7v1.7q0 .4.2.7l.5.5.7.1zm8.2-7.5v1.7h2.6v1.4h-2.6v3.6l.3.4.4.3h1.4l.4-.1h.2l.2 1.2-.4.2h-.6l-.6.2h-.6l-1-.2q-.5-.1-.8-.4l-.5-.9q-.2-.5-.2-1.1v-3.2h-1.6v-1.4h1.6v-1.7zm9.2 7.8q-.4.5-1 .8-.4.3-1 .3t-1-.2q-.5-.1-.8-.5l-.5-1q-.2-.5-.2-1.3v-4.2h1.8v4.2l.1.7q0 .3.2.5.1.2.4.3h.5q.5 0 .9-.2l.5-.5v-5h1.8v7H509zm7.9 1l-.1-.3-.1-.4-.4.3-.4.3-.5.1h-1.6l-.8-.5-.5-.7-.2-.8q0-1.1.8-1.7.9-.6 2.5-.6h1v-.4q0-.5-.3-.8-.3-.3-1-.3-.5 0-.8.2-.2.2-.2.6h-1.8l.1-.8.6-.7 1-.5q.5-.2 1.2-.2t1.2.2q.6.1 1 .4.4.3.6.8l.2 1v4l.3.7zM515 192h.5l.5-.2.3-.3.2-.3V190h-1l-.6.1-.5.3q-.2 0-.3.3v.4q0 .4.2.6.2.3.7.3zm5.7-8.7h4v8.5h2v1.5h-6v-1.5h2.1v-7h-2zm12.5 7.5v-.5l-.4-.4-.5-.3-.9-.4-1.2-.4-1-.6q-.4-.3-.7-.8-.2-.5-.2-1.1 0-.6.2-1 .3-.6.8-1l1-.5q.6-.2 1.3-.2.8 0 1.4.3.6.2 1 .6.5.4.8.9.2.5.2 1.2h-1.8l-.1-.6-.3-.5-.5-.3H531l-.5.3-.3.3-.1.5.1.5.4.4.6.3.8.3q.7.1 1.3.4l.9.7q.4.3.6.8l.2 1q0 .7-.2 1.2-.3.5-.7.8l-1 .5-1.4.2h-1l-.8-.3-.7-.5q-.4-.2-.6-.6-.3-.3-.4-.7l-.2-1h1.8l.2.8q.1.3.4.5l.5.2.8.1h.7l.4-.3.3-.3.1-.5zm6.5-6.3v1.7h2.6v1.4h-2.6v3.6l.3.4.4.3h1.4l.3-.1h.3l.2 1.2-.4.2h-.6l-.6.2h-.6l-1-.2q-.5-.1-.8-.4-.4-.4-.5-.9-.2-.5-.2-1.1v-3.2h-1.6v-1.4h1.6v-1.7zm9 8.8v-.3l-.1-.4-.4.3-.4.3-.5.1h-1.7l-.7-.5-.5-.7-.2-.8q0-1.1.8-1.7.9-.6 2.5-.6h1v-.5q0-.5-.3-.7-.3-.3-1-.3-.5 0-.8.2-.2.2-.2.6h-1.8l.1-.8q.2-.4.6-.7l1-.5q.5-.2 1.2-.2t1.2.2q.6.1 1 .4.4.3.6.8l.2 1v4l.3.7zM547 192h.5l.5-.2.3-.3.2-.3V190h-1l-.6.1-.5.3q-.2 0-.3.3l-.1.4q0 .4.2.6.3.3.8.3zm10.4-6l.8.1.5.1-.2 1.9-.8-.2h-.7q-.7 0-1.2.3t-.7.8v4.2h-1.8v-7h1.7v1.2l1-1q.7-.3 1.4-.3zm6.3-1.5v1.7h2.6v1.4h-2.6v3.6l.3.4.4.3h1.4l.3-.1h.3l.2 1.2-.5.2h-.5l-.6.2h-.6q-.6 0-1-.2-.5-.1-.8-.4-.4-.4-.5-.9-.2-.5-.2-1.1v-3.2h-1.6v-1.4h1.6v-1.7zm11.5.8h-2.9v8h-1.8v-8h-3v-1.5h7.7zm1.6 1h3.9v5.5h1.9v1.5h-5.8v-1.5h2v-4.1h-2zm2-1.9v-.4l.2-.3.3-.2h.4q.5 0 .8.2.3.3.3.7 0 .4-.3.7-.3.3-.8.3l-.4-.1q-.2 0-.3-.2-.2-.1-.2-.3v-.4zm6.7 1.8v.9q.2-.5.6-.7.3-.3.8-.3.9 0 1.2.7l.5-.5q.3-.2.8-.2l.6.1.4.4.4.6v6h-1.6v-5.3l-.1-.2-.2-.1h-.5l-.2.3v5.4h-1.6v-5.4l-.1-.2-.2-.1h-.2l-.3.1q-.2.1-.2.3v5.3h-1.7v-7zm10.3 7.2q-.9 0-1.5-.3-.7-.2-1.2-.7l-.7-1-.2-1.4v-.3q0-.8.2-1.4l.7-1.2q.5-.5 1-.7.7-.3 1.4-.3.8 0 1.4.2l1 .7q.4.5.6 1.1.3.7.3 1.5v.7H594q0 .4.2.7l.4.5.6.3.7.1h.5q.3 0 .5-.2l.4-.2.4-.4 1 1-.5.5-.7.4-.8.3h-1zm-.3-5.8h-.5q-.3.1-.5.4l-.3.4-.2.7h3v-.2l-.1-.5-.3-.5-.4-.2-.6-.1zm9.7 2q0 .9-.2 1.6-.1.8-.4 1.5-.2.7-.6 1.3l-.7 1-.7.8-.8.4-.3-1 .7-.7.7-1.2q.3-.7.4-1.6.2-1 .2-2.1v-.2q0-1.2-.2-2.1l-.5-1.7-.6-1.2-.7-.7.3-1 .8.5q.4.3.7.8l.7 1q.4.5.6 1.2.3.7.4 1.5.2.8.2 1.7v.2z" class="f"/><use class="b h" xlink:href="#q"/><use class="c d" xlink:href="#q"/><path fill="#ff0" d="M570.5 216.8h28.8v9.6h-28.8z"/><path d="M481.9 218.9l-.1 1.4h-.5v-1.9h.6zm5.7 5.5v-.2l-.1-.2-.3.2-.3.2h-.3l-.4.1h-.6l-.5-.3-.3-.4v-1.1l.5-.5q.2-.2.6-.2l.8-.1h.8v-.4l-.1-.3q0-.2-.2-.3l-.3-.1h-.8l-.3.1-.2.2v.3h-.8l.1-.5.3-.4.6-.3h1.2l.6.3.3.4q.2.3.2.7v2.4l.1.4zm-1.3-.5h.4l.3-.2.3-.2.2-.3v-.8h-.7q-.6 0-1 .2-.3.2-.3.6v.3l.2.2.2.1.4.1zm5.1 0h.4l.3-.2q.2-.1.2-.3l.1-.3h.7l-.1.5-.4.5-.6.3-.6.1q-.5 0-.8-.2-.4-.1-.6-.4-.3-.3-.4-.7l-.1-.8v-.2l.1-.8q.1-.4.4-.6.2-.3.6-.5.3-.2.8-.2l.7.1.5.4q.3.2.4.5l.1.6h-.7v-.4l-.3-.3-.3-.2h-1l-.3.4q-.2.2-.2.5l-.1.5v.7l.3.5.3.4.6.1zm4.7-4.7v1h1.6v.6h-1.6v2.7l.2.2.3.2h1l.2-.1v.5h-.1l-.3.1-.3.1h-.9l-.4-.3-.3-.5-.1-.6v-2.3h-1.1v-.6h1.1v-1zm5.8 4.7q-.2.3-.5.4-.3.2-.7.2h-.6l-.5-.4-.3-.6v-3.3h.7v3.1l.2.4.2.2h.4q.5 0 .7-.2.3-.1.4-.5v-3h.8v4.2h-.7zm4.9.5v-.2l-.1-.2-.3.2-.3.2h-.3l-.4.1h-.6l-.5-.4-.3-.3v-1.1l.5-.5q.2-.2.6-.2l.8-.1h.8v-.4l-.1-.3q0-.2-.2-.3l-.3-.1h-.8l-.3.1-.2.2v.3h-.8l.1-.5.3-.4.6-.3h1.4l.5.3.3.4.2.6v2.5l.1.4zm-1.3-.5h.4l.3-.2.3-.2.2-.3v-.8h-.7q-.6 0-1 .2-.3.2-.3.6v.3l.2.2.2.1h.4zm3.4-5.5h2.2v5.4h1.3v.6H509v-.6h1.5v-4.7H509v-.7zm7.7 4.6q0-.3-.2-.4 0-.2-.2-.3l-.5-.3h-.4l-.6-.3-.6-.4-.4-.4-.1-.7.1-.6.4-.5.6-.3.7-.1.7.1q.4.1.6.4.3.2.4.5.2.3.2.7h-.7l-.2-.4q0-.3-.2-.4l-.3-.2-.5-.1h-.4l-.4.2-.2.3v.8l.3.3.4.2.4.2.5.1.4.2.3.3q.2 0 .3.3.2.1.2.4l.1.4q0 .4-.2.7-.1.3-.4.5l-.6.3h-1.4l-.7-.4q-.3-.2-.4-.5l-.2-.8h.7q0 .3.2.5l.2.4.4.2h.9q.3 0 .4-.2.2 0 .3-.2v-.5zm3.5-3.8v1h1.6v.6h-1.6v2.7l.2.2.3.2h1l.2-.1v.5h-.1l-.3.1-.3.1h-.9l-.4-.3-.3-.5-.1-.6v-2.3h-1.1v-.6h1v-1zm5.9 5.2v-.2l-.1-.2-.3.2-.3.2h-.3l-.4.1h-.6l-.5-.4-.3-.3v-1.1l.5-.5q.2-.2.6-.2l.8-.1h.8v-.4l-.1-.3q0-.2-.2-.3l-.3-.1h-.8l-.3.1-.2.2v.3h-.8l.1-.5.3-.4.6-.3h1.3l.6.3.3.4.2.6v2.5l.1.4zm-1.3-.5h.4l.3-.2.3-.2.2-.3v-.8h-.7q-.6 0-1 .2-.3.2-.3.6v.3l.2.2.2.1h.4zm6-3.8h.7l.1.1v.7h-.9q-.5 0-.8.2-.3.2-.5.6v2.7h-.7v-4.2h.7v.7l.6-.6q.4-.2.9-.2zm3.8-1v1.1h1.6v.6h-1.6v2.7l.2.2.3.2h1l.2-.1v.5h-.1l-.3.1-.3.1h-.9l-.4-.3-.3-.5-.1-.6v-2.3h-1.1v-.6h1v-1zm7 .3h-1.8v5h-.7v-5h-1.8v-.6h4.2zm1 .8h2.2v3.6h1.3v.6h-3.5v-.6h1.5v-3h-1.5zm1.4-1v-.4l.4-.1.3.1.1.3-.1.3-.3.1h-.3l-.1-.4zm3.6 1v.4l.4-.3q.2-.2.5-.2.6 0 .8.5l.3-.3q.2-.2.5-.2.5 0 .7.3.3.3.3.9v3.1h-.7v-3.1q0-.6-.5-.5h-.4v.2l-.1.2v3.2h-.7v-3.1l-.1-.4q-.1-.2-.4-.2l-.3.1q-.2.1-.2.3v3.3h-.7v-4.2zm6.4 4.3l-.8-.1-.7-.5-.4-.6-.1-.8v-.2l.1-1 .4-.6q.3-.3.7-.4.3-.2.7-.2l.8.2.5.4q.3.3.4.7v1.1h-3l.2.6.2.4.5.3.5.1.7-.1.5-.4.4.3q0 .2-.2.3l-.4.3-.5.1-.5.1zm-.1-3.8l-.4.1q-.2 0-.4.3l-.3.3-.1.5h2.3l-.1-.4-.2-.4-.3-.3h-.5zm4.9-1.8l-.1 1.4h-.5v-1.9h.6v.5zm4.2 5V223.6l.3-.1h.6l.1.3v.6h-.2l-.3.1h-.2l-.2-.1-.1-.2v-.2zm0-3V220.6l.3-.1h.6l.1.3v.6h-.2l-.3.1h-.2l-.2-.1-.1-.2v-.2zm8.2 3.5v-5.6h1.4q.6 0 1 .2.5.1.8.5l.5.8.2 1v.5q0 .6-.2 1l-.5 1-.8.5-1 .1zm.8-5v4.4h.6l.8-.1.5-.4.3-.7.1-.8V220.6l-.4-.7-.5-.4-.8-.2zm4 2.9v-.9l.4-.6.6-.5.8-.2q.5 0 .8.2.4.2.6.5.3.2.4.6l.1.9v1l-.5.6q-.2.3-.6.5l-.8.1-.8-.1-.6-.5-.4-.7v-.9zm.6 0l.1.7q0 .3.2.5l.4.3.5.1.6-.1.3-.3.3-.5V221.7l-.3-.5-.3-.3-.6-.2q-.3 0-.5.2-.2 0-.4.3l-.2.5v.6zm7 1.6q-.1.3-.5.4-.3.2-.7.2h-.6l-.5-.4-.3-.6v-3.3h.7v3.1l.2.4.3.2h.3q.5 0 .7-.2.3-.2.4-.5v-3h.8v4.2h-.7v-.5zm5.7-1.5l-.1.8-.3.7-.5.5-.8.1-.7-.1-.5-.4v.4h-.7v-6h.8v2.3q.2-.3.5-.4l.6-.2.8.2q.3.1.5.4l.3.7.1.9zm-.7-.1v-.6l-.3-.5-.3-.3-.6-.1h-.3l-.3.1-.2.2-.2.3v1.9l.2.2.2.2.3.2h.4l.5-.1.3-.3.2-.5v-.6zm2-3.9h2.2v5.4h1.4v.6h-3.6v-.6h1.5v-4.7h-1.5v-.7zm6.6 6.1l-.8-.1-.7-.5-.4-.6-.1-.8v-.2l.1-1 .5-.6q.2-.3.6-.4.3-.2.7-.2l.8.2.6.4.3.7.1.8v.3h-3l.1.6.3.4.4.3.5.1.7-.1.5-.4.5.3-.3.3-.4.3-.5.1-.5.1zm-.1-3.8l-.4.1-.4.2-.2.4-.2.5h2.3v-.4l-.3-.4-.3-.3h-.5z" class="e"/><use class="b j" xlink:href="#h"/><use class="c d" xlink:href="#h"/><path d="M510.9 308.3l-.2-1-.6-.8q-.4-.4-1.1-.7l-1.7-.6q-1.2-.3-2.3-.8-1.2-.5-2-1.2-.9-.8-1.4-1.7-.5-1-.5-2.2 0-1.2.5-2.2.5-1 1.4-1.6.9-.7 2.1-1.1 1.2-.4 2.7-.4 1.4 0 2.7.5 1.2.4 2 1.2 1 .7 1.5 1.8.5 1 .5 2.3h-3.6q0-.6-.2-1.1-.2-.6-.6-1l-1-.5q-.6-.2-1.4-.2l-1.3.1-1 .5-.5.8q-.2.4-.2 1 0 .5.2.9l.8.8 1.2.6 1.7.5q1.3.4 2.4 1 1 .5 1.8 1.3.8.7 1.3 1.7.4 1 .4 2 0 1.3-.5 2.3-.5 1-1.4 1.6-.9.7-2 1-1.3.4-2.8.4-.9 0-1.7-.2-1-.1-1.8-.5-.8-.3-1.5-.8t-1.2-1.2q-.5-.7-.8-1.5-.3-.9-.3-2h3.6q0 1 .3 1.5.3.7.8 1 .5.4 1.1.6.7.2 1.5.2t1.3-.2q.6-.1 1-.4.4-.3.6-.8.2-.4.2-.9zm9.9-7.2q.7-1 1.7-1.6 1-.6 2.3-.6 1 0 2 .3.9.4 1.6 1 .6.8 1 1.9.4 1 .4 2.6v8.5h-3.6v-8.5q0-.8-.2-1.3-.2-.6-.6-.9l-.8-.5q-.5-.2-1.1-.2-1 0-1.6.4-.7.3-1.1.9v10.1h-3.6v-20h3.6v8zm21.2 12.1l-.3-.6-.1-.7q-.3.4-.7.6l-.9.5-1 .4h-1.3l-2-.2q-.8-.3-1.5-.9-.7-.6-1-1.3-.4-.8-.4-1.7 0-2.2 1.7-3.5 1.6-1.2 5-1.2h2v-.8q0-1-.7-1.6-.7-.6-2-.6-1 0-1.6.5-.5.4-.5 1.2h-3.6q0-.9.4-1.7.4-.8 1.2-1.4.8-.6 1.9-1 1-.3 2.5-.3 1.2 0 2.3.3 1.2.3 2 1 .8.5 1.2 1.5.5.9.5 2.1v6l.1 2 .4 1.2v.2H542zm-3.5-2.5l1-.1.9-.4.6-.4.5-.6v-2.4h-1.9q-.8 0-1.4.2-.6.1-1 .4-.4.3-.6.7-.2.4-.2 1t.6 1.1q.5.5 1.5.5zm23.3-4.4q0 1.6-.4 2.9-.3 1.3-1 2.3-.7 1-1.7 1.5t-2.4.5q-1.1 0-2-.4-.8-.4-1.5-1v6.5h-3.6v-19.5h3.4v1.4q.7-.8 1.6-1.2 1-.4 2.1-.4 1.3 0 2.4.5 1 .5 1.7 1.5t1 2.2q.4 1.3.4 3zm-3.6-.2q0-1-.2-1.7-.1-.8-.5-1.3-.3-.6-.9-1-.5-.3-1.3-.3-1 0-1.5.4-.6.4-1 1v6q.4.6 1 1t1.6.4q.7 0 1.3-.3.5-.4.9-1 .3-.5.5-1.3l.1-1.7v-.3zm13.8 7.4q-1.6 0-3-.5-1.3-.6-2.2-1.5-1-.9-1.5-2.1-.5-1.3-.5-2.7v-.5q0-1.6.5-3 .5-1.3 1.4-2.3 1-1 2.2-1.5 1.2-.5 2.7-.5 1.5 0 2.7.5 1.2.5 2 1.4.9 1 1.3 2.2.4 1.3.4 2.8v1.6h-9.5q0 .7.4 1.3.3.6.8 1l1.1.7 1.4.2 1-.1 1-.3 1-.5.7-.7 1.8 2-.8.9q-.6.5-1.3.8-.8.4-1.7.6-.9.2-1.9.2zm-.4-11.7l-1.2.2-.9.7-.6 1q-.3.5-.4 1.2h6v-.3q0-.6-.3-1.1l-.5-.9-1-.6q-.5-.2-1.2-.2zM480 327.7q0-.8.2-1.5 0-.8.3-1.4l.5-1.1.6-1 .7-.6q.3-.3.7-.4l.3.9q-.4.2-.7.6l-.6 1.1-.4 1.5q-.2.8-.2 1.9v.1q0 1.1.2 2l.4 1.4q.3.7.6 1 .3.5.7.8l-.3.8q-.4-.1-.7-.4l-.7-.6-.6-1-.5-1-.3-1.4q-.2-.7-.2-1.6v-.1zm10 3.5l-.1-.3v-.3l-.4.3-.4.2-.4.1h-1.5l-.7-.5-.5-.5-.1-.8q0-1 .7-1.6.8-.5 2.3-.5h.9v-.4q0-.4-.3-.7-.3-.3-.9-.3-.5 0-.7.3-.3.2-.3.5H486l.2-.8.5-.6.8-.4q.5-.2 1.2-.2.6 0 1 .2.6 0 1 .4.3.2.5.7.2.4.2 1v3.5l.2.6zm-1.6-1.2h.5l.4-.2q.2 0 .3-.2l.2-.2v-1.1h-1.5l-.4.3q-.2 0-.3.3v.4q0 .3.2.5t.7.2zm7.7 0h.4l.4-.3q.2-.1.2-.3l.1-.4h1.6l-.2 1-.6.7-.9.4-1 .2q-.8 0-1.3-.3-.6-.2-1-.6l-.5-1q-.2-.6-.2-1.3v-.2q0-.7.2-1.2.2-.6.6-1 .3-.5.9-.7.5-.3 1.3-.3.6 0 1 .2l1 .5.5.8q.2.4.2 1h-1.6v-.5l-.3-.3q-.1-.2-.4-.3h-1.1q-.3.2-.4.5l-.2.6v1.6l.2.6.4.4q.2.2.6.2zm7.3-6.7v1.5h2.4v1.2h-2.4v2.7l.1.6q0 .3.2.4l.4.2h1.6l.2-.1.2 1.1-.4.2h-.5l-.5.2h-.6l-1-.2q-.4-.1-.7-.4-.3-.3-.4-.7l-.2-1v-3h-1.4v-1.2h1.4v-1.5zm8.3 7q-.3.4-.8.7-.4.3-1 .3-.5 0-.9-.2-.4-.1-.7-.4-.3-.4-.4-.9-.2-.5-.2-1.2v-3.8h1.6v4.4l.3.5.3.2h.5l.7-.1q.4-.2.5-.5v-4.5h1.7v6.4h-1.5l-.1-1zm7.1.9v-.3l-.2-.3-.3.3-.4.2-.5.1-.5.1-.9-.1-.7-.4-.5-.6-.1-.8q0-1 .7-1.6.8-.5 2.3-.5h.9v-.4q0-.4-.3-.7-.3-.3-.9-.3-.5 0-.7.3-.3.2-.3.5H515q0-.4.2-.7l.5-.7.8-.4q.5-.2 1.2-.2.6 0 1 .2.5.1.9.4.4.3.6.7.2.4.2 1v3.5l.2.6H519zm-1.5-1.2h.4l.4-.2q.2 0 .3-.2l.2-.2v-1.1h-1.5l-.4.3q-.2 0-.3.3v.4q0 .3.2.5t.7.2zm5-7.8h3.6v7.7h1.9v1.3h-5.4v-1.3h1.9v-6.4h-2v-1.3zm11.3 6.7v-.4l-.3-.4-.5-.3-.8-.2-1-.4q-.6-.2-1-.6l-.6-.7q-.2-.4-.2-1l.2-1 .7-.7 1-.5q.5-.2 1.1-.2.7 0 1.2.2.6.2 1 .6.4.3.6.8l.2 1h-1.6v-.5l-.3-.4-.5-.3h-1.2l-.4.2-.3.4v.9l.4.3.5.3.8.2 1 .4.9.6.5.8q.3.4.3 1 0 .5-.3 1-.2.4-.6.7-.4.3-1 .4-.5.2-1.1.2h-.9l-.7-.3-.7-.4-.6-.5-.3-.7q-.2-.4-.2-.9h1.7v.7l.4.4.6.3h1.2q.3 0 .4-.2l.3-.3.1-.5zm5.8-5.6v1.5h2.4v1.2h-2.4v2.8l.1.6q0 .2.2.3l.4.2h1.6l.3-.1.2 1.1-.4.2h-.5l-.6.2h-.5l-1-.1-.7-.5q-.3-.3-.4-.7l-.2-1v-3h-1.5v-1.2h1.5v-1.5zm8.2 7.9l-.1-.3v-.3l-.4.3-.4.2-.5.1-.5.1-.9-.1-.7-.4-.5-.6-.1-.8q0-1 .7-1.5.8-.6 2.3-.6h.9v-.4q0-.4-.3-.7-.3-.2-.9-.2-.5 0-.7.2-.3.2-.3.5h-1.6q0-.4.2-.7l.5-.7.8-.4q.5-.2 1.2-.2.6 0 1 .2.6.1 1 .4l.5.7q.2.4.2 1v3.5l.2.6h-1.6zM546 330h.5l.4-.2q.2 0 .3-.2l.2-.2v-1.1H546l-.4.3-.3.3v.4q0 .3.2.5.2.3.7.3zm9.4-5.3h.7l.5.2-.3 1.6h-.6l-.7-.1q-.6 0-1 .2-.5.3-.7.8v3.8h-1.6v-6.3h1.5l.1 1q.4-.5 1-.8.5-.4 1.1-.4zm5.6-1.4v1.5h2.4v1.2H561v2.8l.1.6q0 .2.2.3l.4.2h1.6l.2-.1.2 1.1-.4.2-.5.1h-.5l-.6.1-1-.1-.7-.5q-.3-.3-.4-.7-.2-.4-.2-1v-3H558v-1.2h1.4v-1.5zm10.5.7h-2.7v7.2h-1.6V324h-2.6v-1.3h6.9zm1.4.8h3.4v5h1.7v1.4h-5v-1.3h1.8v-3.7H573zm1.7-1.6v-.3l.2-.3.3-.2h.4q.4 0 .7.2.3.2.3.6 0 .4-.3.7-.3.2-.7.2h-.4l-.3-.3-.2-.2v-.4zm6 1.6l.1.8q.2-.4.5-.6.3-.3.8-.3.8 0 1 .7l.5-.5q.3-.2.7-.2l.5.1.4.4.3.6.1.8v4.6H584V326.3l-.1-.1-.2-.1h-.4l-.2.2v4.9h-1.4V326.3l-.2-.1-.1-.1h-.5l-.2.3v4.8h-1.4v-6.4zm9.3 6.5q-.7 0-1.3-.2l-1-.7q-.5-.4-.7-1-.2-.5-.2-1.2v-.2q0-.7.2-1.3.2-.6.6-1 .5-.5 1-.7.6-.3 1.2-.3.7 0 1.3.3.5.2.9.6l.5 1q.2.6.2 1.3v.6h-4.3q0 .4.2.6l.4.5.5.3h1.1l.5-.1.4-.2.3-.3.8.9-.4.4-.6.4-.7.2-.9.1zm-.2-5.3l-.5.1-.4.3-.3.5-.1.5h2.6v-.6l-.3-.4-.4-.3h-.6zm8.7 1.8l-.1 1.6-.4 1.3-.5 1.1-.6 1-.7.6-.7.5-.3-1 .6-.6q.4-.4.6-1 .3-.7.4-1.5.2-.9.2-2v-.1l-.2-2q-.1-.8-.4-1.4l-.6-1-.6-.7.3-.9.7.4.7.7.6 1 .5 1 .4 1.4v1.5zm-114.2 14.3l1.4 2.3h-1l-1.7-2.2v-.1l1.7-2.3h1zm2 0l1.4 2.3h-1l-1.7-2.2v-.1l1.7-2.3h1zm4.9-3.3l.1 1q.3-.5.8-.8.5-.3 1.1-.3.5 0 .9.2.4.1.7.4.3.3.4.8.2.5.2 1.2v3.9h-1.6v-3.9l-.1-.6-.3-.4-.4-.2h-.5l-.7.1q-.3.2-.4.5v4.5h-1.7v-6.4zm5.5 3.1l.2-1.2q.2-.6.6-1 .4-.5 1-.7.5-.3 1.2-.3t1.3.3q.5.2.9.6l.6 1 .2 1.3v.2q0 .7-.2 1.3l-.6 1-1 .7q-.5.2-1.2.2t-1.3-.2l-1-.7-.5-1q-.2-.6-.2-1.3v-.2zm1.6.2l.1.7.3.6q.1.3.4.4.2.2.6.2.4 0 .6-.2.3-.1.4-.4l.3-.6v-1.5l-.3-.6-.4-.4q-.2-.2-.6-.2-.4 0-.6.2l-.5.4-.2.6v.7zm7.3-3.3l.1 1q.3-.6.8-.8.5-.3 1.1-.3.5 0 .9.2.4.1.7.4.3.3.4.8.2.5.2 1.2v3.9h-1.6v-3.9l-.1-.6-.3-.4-.4-.2h-.5l-.7.1q-.3.2-.4.5v4.5H504v-6.4zm11.4 3.3h-4.8v-1.3h4.8zm4.6 3.2q-.7 0-1.3-.2l-1-.7q-.5-.4-.7-1-.2-.5-.2-1.2v-.2q0-.7.2-1.3.2-.6.6-1 .4-.5 1-.7.6-.3 1.2-.3.7 0 1.3.3.5.2.9.6l.5 1q.2.5.2 1.3v.6H520q0 .4.2.6l.4.5.5.3h1.1l.5-.1.4-.2.3-.4.8 1-.4.4-.6.3-.7.3h-.9zm-.2-5.3l-.5.1-.4.3-.3.5-.1.5h2.6v-.6l-.3-.4-.4-.3h-.6zm7.2.8l1.4-2h1.8l-2.1 3.1 2.2 3.3H530l-1.5-2.1-1.4 2h-1.8l2.2-3.2-2-3h1.7zm7.3-3.5v1.5h2.4v1.2h-2.4v2.8l.1.6q0 .2.2.3l.4.2h1.5l.3-.1.2 1.1-.4.2h-.5l-.6.2h-.5l-1-.1-.7-.5q-.3-.3-.4-.7l-.2-1v-3h-1.4v-1.2h1.4v-1.5h1.6zm7.3 8q-.7 0-1.3-.2l-1-.7q-.5-.4-.7-1-.2-.5-.2-1.2v-.2q0-.7.2-1.3.2-.6.6-1 .5-.5 1-.7.6-.3 1.2-.3.7 0 1.3.3.5.2.9.6l.5 1q.2.5.2 1.2v.7h-4.3l.2.6.4.5.5.3h1.1l.5-.1.4-.2.3-.4.8 1-.4.4-.6.3-.7.3h-.9zm-.2-5.3l-.5.1-.4.3-.3.4-.1.6h2.6v-.6l-.3-.4-.4-.3h-.6zm5.8-1.2l.1 1q.4-.6.8-.8.5-.3 1.1-.3.5 0 .9.2.4.1.7.4.3.3.4.8.2.5.2 1.2v3.9h-1.6v-3.9l-.1-.6-.3-.4-.4-.2h-.5l-.7.1q-.3.2-.4.5v4.5h-1.7v-6.4zm9.8 4.6v-.2l-.3-.2-.4-.2-.8-.2q-.5 0-1-.3l-.8-.4-.5-.5q-.2-.3-.2-.7l.2-.8.6-.6q.3-.3.8-.4.5-.2 1.2-.2.6 0 1.1.2.6.1 1 .4l.5.6q.2.4.2.9h-1.6q0-.4-.3-.7-.3-.2-1-.2-.5 0-.8.2-.3.2-.3.5v.3l.3.2.4.1.7.2 1 .2.9.4q.3.2.5.6.2.3.2.8 0 .4-.2.7-.2.4-.6.6-.3.3-.9.5h-2.3l-1-.6-.5-.7-.2-.7h1.6l.1.4.3.3.5.2h.5q.6 0 1-.2.2-.2.2-.5zm3.6-4.6h3.4v5h1.7v1.4h-5.1v-1.3h1.8v-3.7h-1.8zm1.7-1.6v-.3l.2-.3.3-.2h.4q.4 0 .7.2.3.2.3.6 0 .4-.3.6-.3.3-.7.3h-.4l-.3-.3-.2-.2v-.4zm10.8 4.9q0 .7-.2 1.3-.1.6-.5 1l-.7.7q-.5.2-1.1.2-.6 0-1-.2t-.7-.6v.7H569v-9h1.6v3.2l.7-.5q.4-.2.9-.2.6 0 1 .3.5.2.8.6.4.5.5 1 .2.6.2 1.3v.2zm-1.7-.2v-.7l-.2-.6-.4-.4-.6-.2q-.5 0-.8.2l-.4.6v2.5l.4.5q.3.2.8.2l.6-.2.3-.3.3-.7v-.8zm3.5-5.7h3.5v7.7h1.9v1.3h-5.4v-1.3h1.9v-6.4h-2zm10 9.1q-.8 0-1.4-.2l-1-.7q-.5-.4-.7-1-.2-.5-.2-1.2v-.2q0-.7.2-1.3.2-.6.6-1 .5-.5 1-.7.6-.3 1.2-.3.7 0 1.3.3.5.2.9.6l.5 1q.2.5.2 1.3v.6h-4.3q0 .4.2.6l.4.5.5.3h1.1l.5-.1.4-.2.3-.4.8 1-.4.4-.6.3-.7.3h-.9zm-.3-5.3l-.5.1-.4.3-.3.4-.1.6h2.6v-.6l-.3-.4-.4-.3h-.6zm5.8-.2l1.7 2.2v.1l-1.7 2.3h-1l1.4-2.3-1.4-2.4zm2 0l1.7 2.2v.1l-1.7 2.3h-1l1.4-2.3-1.4-2.4z" class="f"/><path d="M554 87.9l-.2 2.4h-.9v-3.1h1v.7zm9.5 9.3l-.1-.4v-.4l-.5.3-.5.3-.6.2h-1.6l-.8-.5-.5-.7-.2-.8q0-.6.3-1 .2-.4.6-.7l1-.5 1.4-.1h1.3v-.6l-.1-.5q-.1-.3-.4-.5l-.5-.2-.7-.1h-.6l-.5.3-.3.4v.4h-1.3l.2-.8.5-.6 1-.5q.4-.2 1.1-.2.6 0 1.1.2l1 .4.5.7.2 1v4.1l.3.7h-1.3zm-2.1-1h.6l.6-.3.4-.3.3-.4v-1.5h-1.1q-1 0-1.7.3-.5.4-.5 1v.5l.3.4.4.3h.6zm8.5.1h.6l.5-.4.4-.4.2-.6h1.1l-.2 1-.7.7-.9.5-1 .2q-.8 0-1.4-.3-.6-.3-1-.8-.5-.4-.6-1l-.2-1.4v-.3q0-.7.2-1.3.2-.7.6-1.1.4-.5 1-.8.5-.3 1.4-.3.6 0 1.1.2l1 .5.5.8.2 1h-1.1l-.2-.6q0-.2-.3-.5l-.6-.3-.6-.1q-.6 0-1 .2t-.6.6l-.3.8-.1 1v1.1l.4.8q.2.4.6.6.4.2 1 .2zm7.8-7.9v1.7h2.7v1h-2.7v3.8l.1.7.3.4.4.2h1.7l.3-.1.2.8-.4.2h-.5l-.5.2h-.6l-.8-.1q-.5-.2-.7-.5l-.5-.7q-.2-.5-.2-1.1V91h-1.8v-1h1.8v-1.7zm9.7 7.8q-.3.5-.9.8-.5.3-1.2.3l-1-.2-.8-.5q-.3-.4-.4-1-.2-.5-.2-1.3v-4.2h1.2v5.2l.4.6q.1.2.4.3h.6q.7 0 1.2-.2.4-.3.7-.8v-5h1.2v7h-1.1zm8 1v-.4l-.1-.4-.4.3-.5.3-.6.2h-1.6l-.8-.5-.5-.7-.2-.8q0-.6.3-1 .2-.4.6-.7l1-.5 1.4-.1h1.3v-.6l-.1-.5q-.1-.3-.4-.5l-.5-.2-.7-.1h-.6l-.5.3-.3.4-.1.4h-1.2l.2-.8.5-.6 1-.5q.4-.2 1-.2.7 0 1.2.2.5.1.9.4.4.3.6.7l.2 1v4.1l.2.7h-1.2zm-2-1h.6l.6-.3.4-.3.3-.4v-1.5h-1.1q-1 0-1.7.3-.6.4-.6 1l.1.5.3.4.4.3h.6zm5.7-9h3.5v9h2.3v1H599v-1h2.4v-8H599v-1zm12.7 7.6q0-.5-.2-.8l-.5-.5-.7-.3-.7-.3-1-.4-1-.5-.7-.8-.2-1q0-.7.2-1.2l.7-.8 1-.5 1.1-.2q.7 0 1.2.2.6.2 1 .6.5.4.8 1 .2.4.2 1.1h-1.2q0-.4-.2-.7-.1-.4-.4-.6l-.6-.4-.8-.1h-.6l-.6.4-.4.4q-.2.3-.2.7 0 .4.2.7l.5.5.7.3.7.2.7.3.7.3.6.4.5.5.3.7q.2.3.2.7 0 .7-.3 1.2-.3.4-.8.7-.4.4-1 .5-.5.2-1.1.2l-1.3-.2-1-.6q-.5-.4-.8-.9-.3-.5-.3-1.2h1.2q0 .5.2.8l.5.6.7.3q.3.2.8.2l.7-.1.6-.3q.3-.2.4-.5l.2-.6zm5.9-6.4v1.7h2.7v1h-2.7v3.8l.1.6.3.5.4.2h1.7l.3-.1.2.8-.4.2h-.5l-.5.1h-1.5l-.7-.5q-.3-.3-.4-.7-.2-.5-.2-1.1V91h-1.9v-.9h1.9v-1.7zm9.8 8.8l-.1-.4-.1-.4-.4.3-.5.3-.6.2h-1.6l-.8-.5-.5-.7-.2-.8q0-.6.3-1 .2-.4.6-.7l1-.5 1.4-.1h1.3v-.6l-.1-.5q-.1-.3-.4-.5l-.5-.2-.7-.1h-.6l-.5.3q-.2.1-.3.4l-.1.4h-1.2l.2-.8q.2-.4.5-.6l.9-.5q.5-.2 1.2-.2l1 .1 1 .5q.4.3.6.7l.2 1v4.1l.2.7h-1.2zm-2.2-1h.7l.6-.3.4-.3.3-.4v-1.5h-1.1q-1 0-1.7.3-.6.4-.6 1l.1.5.3.4.4.3h.6zm10.2-6.2h1l.2.2-.2 1.1h-.6l-.7-.1q-.8 0-1.4.4-.5.4-.8 1v4.6h-1.2v-7h1.2v1l1-.9q.7-.3 1.5-.3zm6.2-1.6v1.7h2.7v1h-2.7v4.3l.4.5.4.2h1.7l.3-.1.2.8-.4.2h-.5l-.5.1h-1.5l-.7-.5q-.3-.3-.4-.7-.2-.5-.2-1.1V91h-1.9v-.9h1.9v-1.7h1.2zm11.5.3h-2.9v8.5h-1.2v-8.5h-2.9v-1h7v1zm1.8 1.4h3.6v6h2.3v1H655v-1h2.4v-5H655v-1zm2.3-1.8l.1-.5q.2-.2.6-.2.3 0 .5.2t.2.5q0 .3-.2.5t-.5.2q-.4 0-.6-.2l-.1-.5zm6 1.8l.1.7q.2-.4.6-.6.3-.2.8-.2 1 0 1.3.7.2-.3.6-.5.3-.2.8-.2.8 0 1.2.5.4.4.4 1.4v5.3H668v-5.3q0-1-.9-1-.2 0-.3.2l-.3.1-.1.3-.1.2v5.4H665V92q0-.5-.2-.7-.2-.2-.6-.2l-.6.1-.3.4v5.6h-1v-7h1zm10.6 7.2q-.7 0-1.3-.3-.6-.2-1-.7-.5-.4-.8-1l-.2-1.4v-.3q0-.9.2-1.5.3-.7.8-1.1.4-.5 1-.8l1.2-.2q.7 0 1.3.2.6.3 1 .8l.5 1 .2 1.4v.6h-5q0 .5.2.9.1.4.4.7l.7.5q.4.2 1 .2.5 0 1-.3.5-.2.9-.6l.7.5-.4.5-.6.5-.8.3h-1zm-.1-6.3l-.7.1-.6.4q-.3.2-.4.6l-.3.9h3.8v-.1l-.1-.7-.4-.6-.5-.5-.8-.1zm8.1-3.1l-.1 2.4h-.9v-3.1h1v.7z" class="e"/><g stroke-width="2" class="d"><path d="M681.7 105.6h-.7a579 579 0 00-16.1.6 578.9 578.9 0 00-27.9 2.1c-18 1.8-35 4.4-49.4 7.4s-26.5 6.7-35 10.6a64.5 64.5 0 00-2.9 1.4 51.4 51.4 0 00-2 1.1l-.5.3" class="c g"/><path fill="#666" d="M681.7 108.9l9-3.4-9-3.2zm-137 18.1l-3.4 9 8.4-4.7z" class="b"/><path d="M539.3 248.8v22.7" class="c g"/><path fill="#666" d="M542.6 248.8l-3.3-9.1-3.3 9zm-6.6 22.7l3.3 9 3.3-9z" class="b"/></g><path d="M555.9 259.8l-.1.6-.2.7-.3.7-.4.5q-.2.3-.5.4-.3.2-.7.2-.4 0-.6-.2l-.3-.6-.3.3-.3.2-.3.2h-.9l-.3-.4-.1-.4v-1.4l.2-.7q0-.4.2-.7l.3-.7.5-.6.6-.4q.4-.1.8 0 .7 0 1.1.5l-.7 3.3v.7l.3.1h.4l.3-.4.3-.5.1-.5.1-.5v-.4l.1-.8v-.8q0-.4-.2-.7 0-.4-.3-.6l-.6-.4q-.3-.2-.8-.2l-1 .2q-.5.1-.8.4l-.7.8-.6.9-.3 1-.3 1v1.6l.1.8.4.6.6.4q.4.2 1 .2l.7-.1.7-.3.2.8-.8.3-.9.1q-.6 0-1.1-.2l-.8-.5q-.4-.3-.6-.8l-.2-.9-.1-1v-1l.3-1.2.5-1.2.7-1q.3-.6.8-1l1-.5q.6-.2 1.3-.2l1 .2.7.5.5.7.3 1v1.9zm-4.5.8v1.1l.1.2h.6l.3-.1.2-.3.2-.3.8-3H552.7l-.4.4-.4.4-.2.6-.2.5v.5zm7.4-2.7l-.1 1 .5-.4q.2-.3.5-.4l.6-.3h.7q.6 0 1 .2t.6.6q.3.4.3.9v1l-.7 4.4H561l.8-4.4v-.7q0-.3-.2-.5l-.4-.4-.6-.1h-.6l-.5.3-.5.3-.4.5-.9 5h-1.1l1.2-7zm5.9 3.5l.2-1 .4-.8.5-.8.7-.5.8-.4 1-.1q.7 0 1.3.3.5.3.8.8l.5 1.1v1.5q-.1.7-.4 1.3-.3.7-.8 1.2-.4.5-1 .8-.7.3-1.4.3-.8 0-1.3-.3l-.9-.8q-.3-.5-.4-1.2v-1.3zm1.2.1v1.2l.1.5.3.5.4.3h.6q.6.1 1-.1t.7-.6l.5-.9.2-1v-1q0-.4-.2-.7-.1-.4-.4-.7-.3-.2-.8-.2-.6 0-1 .2t-.7.6l-.5.9q-.2.4-.2.9zm8.6-3.6l-.2 1 .5-.4.5-.4.6-.3h.7q.6 0 1 .2t.7.6l.3.9v1l-.8 4.4h-1.1l.7-4.4v-.7l-.1-.5-.5-.4-.6-.1h-.6l-.5.3-.4.3-.4.5-1 5h-1l1.1-7zm8.6 7.2q-.7 0-1.2-.3-.6-.3-1-.8-.3-.4-.4-1-.2-.6-.1-1.3v-.3l.2-1 .4-.8q.2-.4.6-.7.3-.4.7-.6l.8-.4q.5-.2 1-.1.7 0 1.2.3t.8.8q.3.4.4 1v1.8h-5v.9l.4.7.5.5.9.3q.6 0 1-.3.6-.2 1-.7l.7.6-.6.6q-.3.3-.7.4l-.7.3h-.9zm.9-6.3l-.8.1-.7.5-.5.6-.3.8h3.7V260q0-.3-.3-.6-.2-.3-.5-.4-.2-.2-.6-.2zm7.4 1.7l2.2-2.6h1.5l-3.1 3.5 2 3.5h-1.3l-1.5-2.6-2.3 2.6h-1.4l3.2-3.6-2-3.4h1.3l1.4 2.6zm8.6-4.3l-.3 1.7h2.6l-.2 1h-2.6l-.6 3.8v.5l.1.4.3.3.6.1h.7l.7-.2v.9l-.8.3h-1l-.9-.1-.6-.6-.3-.7v-1l.6-3.8h-1.8l.2-1h1.8l.3-1.6zm6.6 8.9q-.7 0-1.3-.3-.5-.3-.9-.8l-.5-1v-1.6l.2-1 .4-.8.5-.7q.3-.4.7-.6.4-.3.9-.4.4-.2 1-.1.6 0 1.1.3.5.3.8.8.3.4.4 1v1.8H605v.9l.3.7.6.5.8.3q.6 0 1.1-.3.6-.2 1-.7l.7.6-.6.6q-.3.3-.7.4l-.8.3h-.8zm.9-6.3l-.9.1-.6.5-.5.6-.3.8h3.6V260l-.2-.6q-.2-.3-.5-.4l-.6-.2zm6.1-1l-.2 1.1.5-.4.6-.4.6-.3h.6q.6 0 1 .2t.7.6l.3.9v1l-.7 4.4h-1.2l.7-4.4v-.7l-.1-.5-.4-.4-.7-.1h-.6l-.5.3-.4.3-.4.5-.9 5h-1.2l1.2-7zm10.5 5.2l-.1-.5-.4-.3-.5-.2-.5-.1-.8-.3-.8-.3-.5-.6q-.2-.3-.2-.8l.1-.7.4-.5.5-.4.6-.3.6-.2h.7l.9.1.8.4q.4.3.6.7.2.4.2 1h-1.2l-.1-.5-.3-.4-.5-.3h-1q-.3 0-.5.2l-.4.3q-.2.2-.2.5v.5l.4.3.5.2h.4l.6.2.5.2.6.3.4.4.3.4v.6q0 .6-.3 1l-.7.7-1 .3q-.4.2-1 .1l-1-.1-.8-.4q-.4-.3-.6-.8-.2-.4-.2-1h1.1q0 .4.2.6l.3.4.5.3h1.1l.6-.1.4-.4.3-.5zm4.3-5.1h3.5l-1 6h2.2l-.2 1h-5.7l.1-1h2.4l.8-5h-2.3zm2.5-1.8l.2-.6q.2-.2.5-.2h.3l.2.2.1.3v.2l-.1.5q-.2.2-.5.2l-.5-.1q-.2-.2-.2-.5zm10.3 5.4l-.2.8-.3.9-.4.7-.6.6-.8.4q-.4.2-.9.2-.6 0-1-.2-.5-.3-.9-.8l-.2.8h-1.1l1.7-10h1.2l-.7 3.8q.4-.5 1-.7.4-.2 1-.2l.9.1.6.5.4.6.2.7.1.8v.8zm-1.2-.2v-1.6q-.2-.4-.5-.6-.3-.3-.8-.3h-.6l-.5.3-.4.3-.3.5-.6 3q.2.6.6.9.3.3.9.3.5 0 .9-.2l.7-.6q.3-.4.4-1l.2-.8v-.2zm4.5-6.4h3.5l-1.5 9h2.2l-.2 1h-5.7l.2-1h2.3l1.4-8h-2.4zm9 10.2q-.7 0-1.2-.3l-1-.7q-.3-.5-.4-1.1-.2-.6-.1-1.3v-.3q0-.5.2-.9.1-.5.4-.9.2-.4.6-.7.3-.4.7-.6l.8-.4 1-.1q.7 0 1.2.3t.8.8q.3.4.4 1v1.9h-5v.8l.4.7.5.5q.4.3.8.3.6 0 1.2-.3.5-.2 1-.7l.6.6-.6.6q-.3.3-.7.4l-.7.3h-.9zm.9-6.3l-.8.1-.7.5-.5.6-.3.8h3.6V260l-.2-.6q-.2-.3-.5-.4-.2-.2-.6-.2zM50.6 45.3l.1 1.4q.6-.7 1.3-1.2.8-.4 1.8-.4.8 0 1.4.2.6.2 1 .7.5.5.8 1.2.2.7.2 1.7V55h-1.7v-6l-.1-1-.4-.8q-.3-.3-.8-.4-.4-.2-.9-.2-.8 0-1.5.5-.6.4-1 1v7.1H49v-9.8zm9.2 4.8q0-1 .3-2 .3-.9 1-1.6.5-.6 1.3-1 .9-.4 1.9-.4 1 0 1.9.4.8.4 1.4 1 .6.7.9 1.6.3 1 .3 2v.2q0 1-.3 2-.3.9-1 1.6-.5.7-1.3 1-.8.4-1.9.4-1 0-1.9-.4-.8-.4-1.4-1-.6-.7-.9-1.6-.3-1-.3-2zm1.7.2l.2 1.4q.1.7.5 1.2.3.5.9.8.5.3 1.2.3t1.2-.3q.6-.3.9-.8.4-.5.5-1.2l.2-1.4v-.2l-.2-1.4-.5-1.1q-.4-.5-.9-.8-.5-.3-1.2-.3t-1.2.3l-1 .8q-.3.5-.4 1.1l-.2 1.4zm9.7-.2l.2-2q.3-1 .8-1.6.5-.7 1.3-1 .7-.4 1.6-.4.9 0 1.5.3.7.3 1.2.9V41h1.7v14h-1.6v-1q-.5.6-1.2 1-.7.2-1.6.2-1 0-1.6-.4-.8-.4-1.3-1-.5-.7-.8-1.6l-.2-2V50zm1.6.2l.2 1.4.5 1.1q.3.5.8.8.5.3 1.2.3l.8-.1.6-.3.5-.4.4-.6v-4.6q-.3-.6-1-1-.5-.4-1.3-.4-.7 0-1.2.3t-.8.8q-.4.5-.5 1.1l-.2 1.4zm14.2 5q-1 0-1.9-.3-.9-.4-1.5-1-.6-.7-1-1.5-.3-1-.3-2v-.3q0-1.2.4-2.2.4-1 1-1.6.7-.6 1.5-1 .8-.3 1.6-.3 1 0 1.9.4.8.3 1.3 1 .5.6.8 1.5.2.9.2 2v.7h-7q0 .7.3 1.2.2.6.6 1 .4.5 1 .8.5.2 1.2.2 1 0 1.6-.3.7-.4 1.2-1l1 .8q-.2.4-.6.7l-.9.6q-.4.3-1 .4-.6.2-1.4.2zm-.2-8.8l-1 .2-.8.5-.6 1-.3 1.1h5.3v-.1l-.2-1-.5-.9q-.3-.4-.8-.6-.4-.2-1-.2zM99.3 55h-1.7V44l-3.4 1.2v-1.5l5-2h.1z" class="e"/><path d="M108 54v-.5l.3-.4.5-.3h1.1l.4.3.3.4v1l-.3.4q-.1.2-.4.3l-.6.1h-.5l-.5-.4-.2-.4V54z" class="i"/><path d="M122.8 55.1l-.2-.4-.1-.6-.6.5-.7.3-.8.3-.9.1q-.8 0-1.4-.2-.6-.2-1-.6-.5-.4-.8-1-.2-.5-.2-1.1 0-.8.3-1.4.3-.6 1-1 .5-.5 1.4-.6.8-.2 1.8-.2h1.9v-.8q0-.5-.2-.8-.2-.4-.5-.6-.3-.3-.7-.4-.4-.2-1-.2-.5 0-.9.2l-.6.3-.5.5-.1.6h-1.7q0-.5.3-1 .2-.6.7-1 .5-.4 1.3-.7.7-.2 1.6-.2.9 0 1.6.2.7.2 1.2.6.6.4.8 1 .3.7.3 1.5V53l.1 1 .3 1v.1h-1.8zm-3-1.2q.5 0 .9-.2l.8-.3.6-.5.4-.5v-2h-1.6q-1.5 0-2.3.4-.8.4-.8 1.4l.1.6.4.6.6.3.9.1zm11.9 0h.9l.7-.5.6-.6.2-.8h1.6q0 .7-.4 1.3-.3.6-.8 1-.6.5-1.3.8-.7.2-1.5.2-1.1 0-2-.4-.8-.4-1.4-1-.5-.7-.8-1.6-.3-1-.3-1.9V50q0-1 .3-1.9.3-.9.8-1.5.6-.7 1.4-1 .9-.5 2-.5.9 0 1.6.3.7.2 1.2.7.6.5.9 1.2.3.6.3 1.4H134q0-.5-.2-.9l-.5-.7-.8-.5-1-.1q-.7 0-1.2.3-.6.3-.9.8l-.5 1.2-.1 1.2v.4l.1 1.3.5 1.1q.3.5.8.8.6.3 1.4.3zm11-11v2.4h3.7v1.3h-3.7v5.3l.1 1q.1.4.4.6l.6.3h1.8l.5-.1.4-.1.3 1.2-.5.2-.7.2h-.7l-.8.1q-.7 0-1.3-.2l-1-.6q-.4-.4-.6-1-.2-.6-.2-1.6v-5.3h-2.6v-1.3h2.6v-2.4zm13.6 10.9q-.5.7-1.3 1.1-.7.4-1.7.4-.8 0-1.4-.2-.6-.3-1-.8-.5-.5-.7-1.3-.3-.7-.3-1.9v-5.8h1.7V51l.1 1.4.4.8.6.5.9.1q1 0 1.6-.4.7-.4 1-1.1v-7.1h1.7V55h-1.5zm11.2 1.3l-.1-.4-.1-.6-.6.5-.7.4-.8.2-.9.1q-.8 0-1.4-.2-.6-.2-1-.6-.5-.4-.8-1-.2-.5-.2-1.1 0-.8.3-1.4.3-.6 1-1 .5-.4 1.3-.6.9-.2 2-.2h1.8v-.8q0-.5-.2-.8-.2-.4-.5-.6-.3-.3-.7-.4-.4-.2-1-.2-.5 0-.9.2l-.7.3-.4.5-.1.6H161q0-.5.3-1 .2-.6.7-1 .5-.4 1.3-.6.7-.3 1.6-.3.9 0 1.6.2.7.2 1.2.6.5.4.8 1 .3.7.3 1.5V53l.1 1 .3 1v.1h-1.8zm-3-1.2l1-.2.8-.3.5-.5.5-.5v-2h-1.6q-1.5 0-2.3.4-.8.4-.8 1.4l.1.6q.1.4.4.6l.6.3.8.2zm8-12.8h5v12.6h3.3V55h-8.3v-1.4h3.4v-11h-3.4zm17.9 10.7q0-.6-.3-1-.3-.5-.7-.7l-1-.5-1-.4-1.4-.5q-.7-.3-1.3-.8l-1-1q-.4-.7-.4-1.6 0-.8.4-1.5t1-1.2l1.4-.7q.7-.2 1.5-.2.9 0 1.7.3.8.3 1.4.8.6.5 1 1.3.4.7.4 1.6h-1.7q0-.6-.3-1-.2-.5-.6-.9l-.8-.5-1-.2-1 .2q-.5.1-.8.4-.4.3-.6.7-.2.4-.2.9 0 .6.3 1t.7.6l1 .5.9.3 1 .4 1 .4.8.6.7.7.5.9.2 1q0 1-.5 1.6-.4.7-1 1.1-.6.5-1.4.7l-1.6.2q-.9 0-1.7-.2-.8-.3-1.5-.8t-1.1-1.3q-.4-.7-.4-1.7h1.7q0 .6.3 1.1.3.5.7.8.4.4.9.5.5.2 1.1.2l1-.1.8-.4q.4-.3.6-.7.3-.4.3-1zm8.2-9v2.5h3.8v1.3h-3.8v5.3q0 .6.2 1 .1.4.4.6l.6.3h1.8l.5-.1.4-.1.3 1.2-.6.2-.6.2h-.8l-.7.1q-.7 0-1.3-.2l-1-.6q-.4-.4-.6-1-.3-.6-.3-1.6v-5.3h-2.5v-1.3h2.5v-2.4zm13.7 12.3l-.1-.4-.1-.6-.6.5-.7.3-.8.3-1 .1-1.4-.2q-.6-.2-1-.6-.5-.4-.7-1-.2-.5-.2-1.1 0-.8.3-1.4.3-.6.9-1 .6-.5 1.4-.6.9-.2 1.9-.2h1.8v-.8l-.1-.8q-.2-.4-.5-.6-.3-.3-.7-.4l-1-.2-1 .2-.6.3-.4.5-.1.6h-1.7l.2-1q.3-.6.8-1l1.2-.7q.8-.2 1.7-.2l1.6.2q.7.2 1.2.6.5.4.8 1 .3.7.3 1.5V53l.1 1 .3 1v.1h-1.8zm-3-1.2l1-.2.7-.3q.4-.2.6-.5l.4-.5v-2h-1.5q-1.5 0-2.3.4-.8.4-.8 1.4v.6l.4.6.7.3.8.1zm14.2-8.8h1l.4.1.3.1-.2 1.7-1-.2h-.9q-1.2 0-1.9.5t-1 1.5V55h-1.8v-9.8h1.6l.1 1.5q.6-.8 1.5-1.2.8-.5 1.9-.5zm8.7-2.2v2.4h3.8v1.3h-3.8v5.3q0 .6.2 1 .1.4.4.6l.5.3h1.9l.5-.1.4-.1.2 1.2-.5.2-.6.2h-.8l-.8.1-1.2-.2q-.6-.2-1-.6-.4-.4-.6-1-.3-.6-.3-1.6v-5.3H228v-1.3h2.6v-2.4zm16.2.4h-4.1v11.8h-1.7V43.3h-4v-1.4h9.8zm2.5 2h5v8.4h3.2V55H251v-1.4h3.3v-7H251v-1.4zm3.1-2.6q0-.4.3-.7.2-.3.7-.3.5 0 .8.3.2.3.2.7 0 .4-.2.7-.3.2-.8.2t-.7-.2q-.3-.3-.3-.7zm8.6 2.6v1q.3-.6.8-.9.5-.3 1.2-.3 1.4 0 1.8 1 .3-.4.8-.7.5-.3 1.1-.3 1.1 0 1.7.7.6.6.6 2V55H269v-7.3q0-1.3-1.1-1.3l-.6.1q-.2 0-.3.2l-.3.4V55H265v-7.4q0-.6-.2-.9-.3-.3-.9-.3-.5 0-.8.2-.3.2-.4.6V55H261v-9.8h1.5zm14.8 10q-1 0-2-.3-.8-.4-1.4-1-.6-.7-1-1.5-.3-1-.3-2v-.3q0-1.2.3-2.2.4-1 1-1.6.7-.6 1.5-1 .8-.3 1.6-.3 1.1 0 1.9.4.8.3 1.3 1 .6.6.8 1.5.3.9.3 2v.7h-7q0 .7.2 1.2.2.6.6 1 .4.5 1 .8.6.2 1.3.2.9 0 1.6-.3.7-.4 1.1-1l1 .8q-.2.4-.6.7l-.8.6q-.5.3-1.1.4-.6.2-1.3.2zm-.3-8.8l-1 .2q-.4.1-.7.5l-.7 1-.3 1.1h5.3v-.1l-.2-1-.5-.9q-.3-.4-.7-.6-.5-.2-1.2-.2z" class="e"/><path d="M303.5 48h-8.1v-1.4h8.1V48zm0 3.8h-8.1v-1.4h8.1z" class="i"/><path d="M326.1 50.3q0 1-.3 2-.2.9-.7 1.6-.5.7-1.2 1-.7.4-1.7.4-.9 0-1.6-.3-.6-.3-1.1-.8v4.7h-1.7V45.3h1.5l.1 1q.5-.6 1.2-.9.7-.3 1.6-.3 1 0 1.7.4.7.3 1.2 1t.7 1.6q.3 1 .3 2zm-1.7-.2l-.1-1.3-.5-1.2q-.4-.5-.9-.8-.5-.3-1.2-.3-.8 0-1.4.4-.5.4-.8 1v4.7q.3.6.8 1 .6.3 1.4.3.7 0 1.2-.3.5-.2.9-.7l.5-1.2.1-1.4zm9 5.2q-1 0-2-.3-.8-.4-1.5-1-.6-.7-1-1.5-.3-1-.3-2v-.3q0-1.2.4-2.2.4-1 1-1.6.7-.6 1.5-1 .8-.3 1.6-.3 1 0 1.9.4.8.3 1.3 1 .5.6.8 1.5.3.9.3 2v.7h-7q0 .7.2 1.2.2.6.6 1 .4.5 1 .8.5.2 1.2.2 1 0 1.6-.3.7-.4 1.2-1l1 .8q-.2.4-.6.7l-.8.6q-.5.3-1.1.4-.6.2-1.4.2zm-.3-8.8l-1 .2-.8.5-.6 1-.3 1.1h5.3v-.1l-.2-1-.5-.9q-.3-.4-.8-.6-.4-.2-1-.2zm13.5-1.4h1l.4.1.4.1-.3 1.7-.9-.2h-1q-1.1 0-1.8.5-.8.5-1.1 1.5V55h-1.7v-9.8h1.6v1.5q.7-.8 1.5-1.2.9-.5 2-.5zm7.3 10v-8.5h-2.7v-1.3h2.7v-.7q0-1 .3-1.7.2-.7.7-1.2.6-.5 1.3-.7.7-.3 1.6-.3l1.1.1 1.2.3-.2 1.4-.9-.2-1-.1q-1.2 0-1.8.6-.6.6-.6 1.8v.7h3.8v1.3h-3.8V55zm8.2-5q0-1 .3-2 .3-.9 1-1.6.5-.6 1.3-1t1.9-.4q1 0 1.9.4.8.4 1.4 1 .6.7.9 1.6.3 1 .3 2v.2q0 1-.3 2-.3.9-1 1.6-.5.7-1.3 1-.9.4-1.9.4-1 0-1.9-.4-.8-.4-1.4-1-.6-.7-.9-1.6-.3-1-.3-2zm1.7.2l.2 1.4q.1.7.5 1.2.3.5.9.8.5.3 1.2.3t1.2-.3q.6-.3.9-.8.4-.5.5-1.2l.2-1.4v-.2l-.2-1.4-.5-1.1q-.4-.5-.9-.8-.5-.3-1.2-.3t-1.2.3l-1 .8q-.3.5-.4 1.1l-.2 1.4zm16.4-5.2h1l.4.1.4.1-.3 1.7-.9-.2h-1q-1.1 0-1.8.5-.8.5-1.1 1.5V55h-1.7v-9.8h1.6v1.5q.7-.8 1.5-1.2.9-.5 2-.5zm5.5.2l.1 1q.3-.6.8-.9.5-.3 1.2-.3 1.3 0 1.8 1l.7-.7q.5-.3 1.2-.3 1 0 1.7.7.5.6.5 2V55h-1.5v-7.3q0-1.3-1.2-1.3l-.5.1-.4.2-.2.4-.1.3V55h-1.6v-7.4q0-.6-.3-.9-.2-.3-.8-.3-.5 0-.8.2-.3.2-.5.6V55h-1.6v-9.8zm17 9.8l-.2-.4-.1-.6-.6.5-.7.3-.8.3-.9.1q-.8 0-1.4-.2-.6-.2-1-.6-.5-.4-.8-1-.2-.5-.2-1.1 0-.8.3-1.4.3-.6 1-1 .5-.5 1.4-.6.8-.2 1.8-.2h1.9v-.8q0-.5-.2-.8-.2-.4-.5-.6-.3-.3-.7-.4-.4-.2-1-.2-.5 0-.9.2l-.6.3-.5.5-.1.6h-1.7q0-.5.3-1 .3-.6.8-1l1.2-.7q.7-.2 1.6-.2.9 0 1.6.2.7.2 1.2.6.6.4.9 1 .3.6.3 1.5V54l.3 1v.1h-1.8zm-3-1.3h.9l.8-.4.6-.5.4-.6v-2h-1.6q-1.5 0-2.3.5-.8.4-.8 1.4l.1.6.4.6.6.3.9.1zm9.2-8.5l.1 1.4q.5-.7 1.3-1.2.8-.4 1.8-.4l1.4.2q.6.2 1 .7.5.5.7 1.2.3.7.3 1.7V55h-1.7v-6q0-.6-.2-1.1-.1-.5-.4-.7l-.7-.5h-1q-.8 0-1.4.3-.7.5-1 1.2v7h-1.7v-9.8zm13.9 8.6l.9-.1q.4-.1.7-.4l.6-.6.2-.8h1.6q0 .7-.4 1.3-.3.6-.8 1-.6.5-1.3.8-.7.2-1.5.2-1.1 0-2-.4-.8-.4-1.4-1-.5-.7-.8-1.6-.3-1-.3-1.9V50q0-1 .3-1.9.3-.9.8-1.5.6-.7 1.4-1 .9-.5 2-.5.8 0 1.6.3.7.2 1.2.7.6.5.9 1.2.3.6.3 1.4h-1.6q0-.5-.2-.9l-.5-.7-.8-.5-1-.1q-.7 0-1.3.3-.5.3-.8.8l-.5 1.2-.1 1.2v.4l.1 1.3.5 1.1q.3.5.8.8.6.3 1.4.3zm11.3 1.4q-1 0-1.9-.3-.9-.4-1.5-1-.6-.7-1-1.5-.3-1-.3-2v-.3q0-1.2.4-2.2.4-1 1-1.6.6-.6 1.4-1 .8-.3 1.7-.3 1 0 1.9.4.7.3 1.3 1 .5.6.8 1.5.2.9.2 2v.7h-7q0 .7.2 1.2l.7 1q.4.5 1 .8.5.2 1.2.2 1 0 1.6-.3.7-.4 1.2-1l1 .8-.6.7-.9.6-1 .4-1.4.2zm-.2-8.8l-1 .2q-.4.1-.8.5t-.6 1q-.3.4-.4 1.1h5.3v-.1l-.2-1q-.1-.5-.4-.9-.3-.4-.8-.6-.5-.2-1.1-.2z" class="e"/><path d="M443.9 54v-.5l.3-.4.4-.3h1.2l.4.3.2.4.1.5v.5l-.3.4-.4.3-.6.1h-.6l-.4-.4-.2-.4-.1-.5z" class="i"/><path d="M453.7 45.3v1.4q.6-.7 1.4-1.2.8-.4 1.7-.4.8 0 1.5.2.6.2 1 .7.5.5.7 1.2.3.7.3 1.7V55h-1.7v-6q0-.6-.2-1.1-.1-.5-.4-.7l-.7-.5h-1q-.8 0-1.4.3-.7.5-1 1.2v7H452v-9.8zm9.2 4.8q0-1 .3-2 .3-.9.9-1.6.6-.6 1.4-1 .8-.4 1.8-.4t2 .4q.8.4 1.3 1 .6.7 1 1.6.3 1 .3 2v.2q0 1-.4 2-.3.9-.9 1.6-.5.7-1.4 1-.8.4-1.8.4t-2-.4q-.8-.4-1.3-1-.6-.7-1-1.6l-.2-2zm1.7.2l.1 1.4.5 1.2q.4.5 1 .8.5.3 1.2.3t1.2-.3q.5-.3.9-.8l.5-1.2.2-1.4v-.2l-.2-1.4q-.2-.6-.6-1.1-.3-.5-.8-.8-.6-.3-1.3-.3-.7 0-1.2.3t-.8.8q-.4.5-.6 1.1l-.1 1.4zm11.4 1.3l.2 1.4.3-1.4 1.5-6.3h1.1l1.6 6.3.3 1.5.2-1.5 1.1-6.3h1.5l-2.1 9.8h-1.3l-1.6-6-.2-1.5-.3 1.5-1.5 6h-1.3l-2.1-9.8h1.5z" class="e"/><path d="M487.4 49.7q0-1.3.2-2.4.2-1.2.6-2.1l.7-1.8 1-1.5 1-1q.5-.5 1-.7l.3 1-1.1 1.2q-.6.8-1 1.8t-.7 2.5q-.3 1.3-.3 3v.1q0 1.7.3 3.1l.7 2.5q.4 1 1 1.8l1.1 1.2-.3 1q-.5-.2-1-.7l-1-1-1-1.5-.8-1.8-.5-2.1q-.2-1.2-.2-2.5zm15.7.1q0 1.3-.2 2.5-.2 1.1-.6 2.1-.3 1-.8 1.8-.4.8-1 1.4-.4.7-1 1.1-.4.5-.9.7l-.3-1q.5-.4 1-1.2.6-.7 1-1.8.5-1 .8-2.5.3-1.4.3-3v-.2q0-1.7-.3-3-.3-1.5-.8-2.5-.4-1.1-1-1.8-.5-.8-1-1.2l.3-1q.5.2 1 .7l1 1 1 1.5.7 1.8q.4 1 .6 2.1.2 1.1.2 2.4v.1zm8-3.8v-.5l.3-.4.4-.3h1.2l.4.3.2.4.1.5v.5l-.3.4-.4.3-.6.1h-.6l-.4-.4q-.2-.1-.3-.4V46zm2.3 8.7l-.1 1-.3.9-.5.9-.7.7-1-.6q.4-.6.6-1.3l.2-1.5V53h1.8z" class="i"/><use fill="#674ea7" class="b" xlink:href="#i"/><use stroke="#351c75" class="c" xlink:href="#i"/><path d="M48.8 285.7l1.1 4.2 1.2-4.2H54V297h-2v-8.7l-1.4 5h-1.1l-1.4-4.8.1 5.2v3.3h-2v-11.3zm12.4 10.1q-.4.7-1 1-.6.4-1.4.4l-1.2-.2q-.5-.2-.9-.7-.4-.4-.6-1-.2-.8-.2-1.7v-5H58v5l.1.9.3.5q.1.2.4.3l.6.1q.7 0 1.1-.2.4-.3.6-.7v-6h2.2v8.5h-2v-1.2zm8.2-9.3v2h3.2v1.7h-3.2v3.6l.1.8.3.5.5.2.6.1h1l.5-.1.3-.1.2 1.5-.5.2-.7.2H71l-.7.1q-.7 0-1.3-.2l-1-.6-.5-1q-.3-.5-.3-1.4v-3.8h-2v-1.6h2v-2.1zM80.3 297l-.1-.3-.1-.5-.4.4-.6.3-.6.2h-.7l-1.2-.1-1-.5-.6-.8-.2-1q0-1.4 1-2.1 1-.7 3-.7H80v-.5q0-.6-.4-1t-1.1-.4q-.7 0-1 .3-.3.3-.3.8H75q0-.6.2-1l.7-.9q.5-.4 1.2-.6.6-.2 1.5-.2l1.4.2q.7.2 1.1.6.5.3.8.9.3.5.3 1.3v4.7l.3.8v.1zm-2-1.5h.5l.5-.3.4-.3.3-.3v-1.4h-2l-.6.3-.3.4v.6q0 .4.2.7.3.3 1 .3zm14-2.6q0 1-.3 1.7-.2.8-.6 1.4-.4.6-1 .9-.6.3-1.5.3-.7 0-1.2-.3-.6-.3-1-.8v1h-2v-12h2.1v4.3q.4-.5 1-.7.4-.3 1.1-.3.8 0 1.5.4.6.3 1 .9.4.5.6 1.3.2.8.2 1.7zm-2.2-.2l-.1-1-.3-.8-.5-.5q-.3-.2-.8-.2-.6 0-1 .2-.4.3-.6.7v3.4q.2.4.6.7.4.2 1 .2.5 0 .8-.2.3-.1.5-.5l.3-.8v-1zm4.6-7.7h4.7v10.3h2.4v1.7h-7.1v-1.7h2.5v-8.5h-2.5V285zm13.2 12.2q-1 0-1.7-.3-.8-.3-1.4-.9-.6-.6-.9-1.3-.3-.7-.3-1.6v-.3q0-1 .3-1.8t.8-1.3q.6-.6 1.3-1 .8-.3 1.7-.3.9 0 1.6.3.7.3 1.2.9.5.5.8 1.3.2.8.2 1.7v1h-5.7l.2.7.5.6q.3.3.7.4.4.2.9.2l.6-.1.6-.2.5-.3.5-.4 1 1.2-.5.5-.8.5-1 .4-1 .1zm-.2-7l-.7.1q-.3.1-.5.4-.3.2-.4.6l-.3.7h3.6v-.2l-.1-.6q-.1-.3-.4-.5-.2-.3-.5-.4l-.7-.1zM39.2 316h-2.1v-4.9h-3.3v5h-2.1v-11.4h2.1v4.6h3.3v-4.6h2.1zm6.3.2q-1 0-1.8-.3t-1.3-.9q-.6-.6-1-1.3-.2-.7-.2-1.6v-.3q0-1 .3-1.8t.8-1.3q.6-.6 1.3-1 .8-.3 1.7-.3.9 0 1.6.3.7.3 1.2.9.5.5.8 1.3.2.8.2 1.7v1h-5.7l.2.7.5.6q.3.3.7.4l.8.2.7-.1.6-.2.5-.3.5-.4 1 1.2-.5.5-.8.5-1 .4-1.1.1zm-.2-7l-.7.1-.6.4-.3.6-.3.7H47v-.2l-.1-.6q-.1-.3-.4-.5-.2-.3-.5-.4l-.7-.1zm11 6.8l-.1-.3-.1-.5-.4.4-.6.3-.6.2-.7.1q-.7 0-1.2-.2l-1-.5-.6-.8-.2-1q0-1.4 1-2.1 1-.7 3-.7H56v-.5q0-.6-.4-1-.4-.3-1.2-.3-.6 0-1 .2-.2.3-.2.8H51l.2-1 .7-.9 1.1-.6q.7-.2 1.6-.2l1.4.2q.6.2 1.1.6.5.3.8.9.3.5.3 1.3v4.7l.3.8v.1h-2.2zm-2-1.5h.5l.5-.3.4-.3.3-.3v-1.4h-2l-.6.3-.3.5-.1.5q0 .4.3.7.3.3 1 .3zm14-2.6q0 1-.3 1.7-.2.8-.6 1.4l-1 .9q-.7.3-1.5.3-.7 0-1.2-.2l-.9-.7v4h-2.1v-11.7h2v.8q.4-.5 1-.7.5-.3 1.2-.3.8 0 1.4.3.6.3 1 1 .5.5.7 1.3.2.8.2 1.7v.2zm-2.3-.2v-1l-.4-.8-.5-.5q-.3-.2-.8-.2-.6 0-1 .2-.3.2-.5.6v3.6q.2.4.6.6.3.2 1 .2.4 0 .7-.2l.5-.5q.3-.4.3-.8l.1-1zm11.6 4.3h-2.1l-3.2-7.3v7.3H70v-11.3h2.2l3.1 7.3v-7.3h2.2zm7.6-1.1q-.4.6-1 1-.6.3-1.3.3-.7 0-1.3-.2-.5-.2-.9-.6-.4-.5-.6-1.2-.2-.7-.2-1.6v-5H82v5.9l.3.5q.1.2.4.3l.7.1q.6 0 1-.2.4-.3.6-.7v-6h2.2v8.5h-2zm5.6-7.3v1l.7-.9q.4-.3 1-.3 1 0 1.4 1 .2-.5.6-.7.4-.3 1-.3l.7.2q.3.1.5.4.3.3.4.8.2.5.2 1.2v6h-2v-6.4l-.2-.2-.2-.2h-.2l-.4.1-.3.3v6.4h-1.9v-6.4q0-.2-.2-.2l-.1-.2h-.3l-.4.1-.2.4v6.3h-2v-8.4zm15.8 4.3q0 1-.2 1.7-.2.8-.6 1.4-.4.6-1 .9-.6.3-1.5.3-.7 0-1.2-.3-.6-.3-1-.8v1h-2v-12h2.1v4.3q.4-.5 1-.7.4-.3 1.1-.3.8 0 1.5.4.6.3 1 .9.4.5.6 1.3.2.8.2 1.8v.1zm-2.1-.2l-.1-1-.3-.8-.5-.5q-.3-.2-.8-.2-.6 0-1 .2-.4.3-.6.7v3.4q.2.4.6.7.4.2 1 .2.5 0 .8-.2.3-.1.5-.5l.3-.8v-1zm8.2 4.5q-1 0-1.7-.3-.8-.3-1.4-.9-.6-.6-.9-1.3-.3-.7-.3-1.6v-.3q0-1 .3-1.8t.8-1.3q.6-.6 1.3-1 .8-.3 1.7-.3.9 0 1.6.3.7.3 1.2.9.5.5.8 1.3.2.8.2 1.7v1h-5.7l.2.7q.2.4.5.6.3.3.7.4.4.2.9.2l.6-.1.6-.2.5-.3.5-.4 1 1.2-.5.5-.7.5-1 .4-1.2.1zm-.2-7l-.7.1-.6.4-.3.6-.3.7h3.6v-.2l-.1-.6q-.1-.3-.4-.5-.2-.3-.5-.4l-.7-.1zm11.8-1.8h.9l.7.2-.3 2.2-1-.1-.8-.1q-.9 0-1.4.4-.6.3-.9 1v5h-2.1v-8.4h2v1.4q.6-.8 1.3-1.2.7-.4 1.6-.4z" class="f"/><use class="b h" xlink:href="#r"/><use class="c d" xlink:href="#r"/><path d="M43.8 350.6h-7.5v-1l3.7-4.2.9-1 .5-.8.3-.7v-1.4l-.5-.7q-.2-.3-.6-.4l-.8-.2q-.6 0-1 .2l-.7.5q-.3.3-.4.7-.2.4-.2 1h-1.4q0-.8.2-1.4l.7-1.1q.5-.5 1.2-.8.7-.2 1.6-.2.8 0 1.4.2.7.2 1 .6l.8 1q.2.6.2 1.3l-.2 1-.4 1-.7 1-.8.9-3 3.3h5.6zm7.3 0h-1.5V341l-3 1.2v-1.3l4.4-1.7zm6.4-1.3l1.4-.1 1-.4.7-.6.5-.8.3-.8v-1l-.3.5-.6.3-.7.3H59q-.8 0-1.4-.3-.6-.3-1-.8l-.6-1.2-.2-1.4q0-.8.2-1.5.2-.8.7-1.3.4-.5 1-.8.7-.4 1.6-.4.7 0 1.2.2l.9.5.7.8.5 1 .2 1 .1 1.1v2l-.3 1.5-.6 1.4q-.4.6-1 1-.6.5-1.4.8-.9.3-2 .3h-.2v-1.3zm1.8-3.7l.7-.1.6-.4.5-.5q.3-.3.4-.7v-.4q0-.8-.2-1.4l-.4-1q-.3-.4-.8-.6-.4-.3-.8-.3-.5 0-.9.3-.4.2-.6.5-.3.4-.4.9-.2.4-.2 1l.1 1 .4.8q.3.4.7.6.3.3.9.3zm7.8 3.7l1.4-.1 1-.4.7-.6.5-.8.3-.8v-1q0 .3-.3.5l-.6.3-.7.3h-.8q-.8 0-1.4-.3-.6-.3-1-.8l-.6-1.2-.2-1.4q0-.8.2-1.5.2-.8.7-1.3.4-.5 1-.8.7-.4 1.6-.4.7 0 1.2.2l1 .5.6.8.5 1 .3 1v3.1q0 .8-.3 1.5l-.6 1.4q-.4.6-1 1-.6.5-1.4.8-.9.3-2 .3H67v-1.3zm1.8-3.7l.7-.1.6-.4.5-.5q.3-.3.4-.7v-.4q0-.8-.2-1.4l-.4-1q-.3-.4-.8-.6-.4-.3-.8-.3-.5 0-.9.3-.4.2-.6.5-.3.4-.4.9-.2.4-.2 1l.1 1 .4.8q.3.4.7.6.4.3.9.3zm11.6-6.4v1.3h-.1l-1.3.1-1 .4-.7.6-.5.8-.4 1-.1.9.5-.5.5-.3.7-.3h.8q.8 0 1.4.2.6.4 1 .9t.6 1.2l.2 1.4q0 .8-.2 1.5t-.7 1.2q-.4.5-1 .8-.7.3-1.6.3l-1.1-.1-1-.5q-.4-.3-.7-.8l-.5-.9-.3-1v-3.3q.1-.8.4-1.5.2-.7.6-1.3.4-.7 1-1.1.6-.5 1.4-.7.9-.3 2-.3zm-1.9 5.1l-.7.1-.6.4-.6.5-.3.6v.5l.1 1.3.5 1q.3.4.7.6.4.2.9.2t.9-.2q.4-.2.6-.5l.4-.8.2-1-.1-1-.4-.9q-.3-.4-.7-.6-.4-.2-.9-.2zM92 340l-4.7 10.6h-1.5l4.6-10.1h-6.1v-1.3H92zm4.9 9.6v-.4l.3-.4.3-.2h1l.4.2.2.4v.9q0 .2-.2.3l-.4.2-.5.1h-.5l-.3-.3q-.2-.1-.2-.3l-.1-.5zm13-2.9h1.5v1.2h-1.6v2.7h-1.4v-2.7h-5.2v-.8l5.1-8h1.5v7.6zm-5.1 0h3.6v-5.6l-.2.4-3.4 5.2zm9.3-1.8l.6-5.7h5.8v1.4h-4.6l-.3 3 .8-.3 1-.2q.9 0 1.5.3t1 .8q.5.5.7 1.2.3.7.3 1.5t-.3 1.5q-.2.7-.6 1.2-.5.5-1.1.8-.7.3-1.6.3-.7 0-1.3-.2-.6-.2-1.1-.6-.5-.4-.8-1-.3-.5-.4-1.3h1.4q.1 1 .7 1.4.6.5 1.5.5l.9-.1q.4-.2.7-.6l.4-.8.1-1-.1-1-.5-.8q-.3-.4-.7-.6-.4-.2-1-.2h-.6l-.5.2-.4.3-.3.3z" class="e"/><g class="d k"><path d="M243.4 338.5l-84.1 4.8" class="c g"/><g fill="#666"><path d="M256.6 337.7a6.6 6.6 0 11-13.2.8 6.6 6.6 0 0113.2-.8z"/><path d="M159 336.7l-17.8 7.7 18.5 5.5z" class="b"/></g></g></g><defs><path id="c" d="M693.7 192.5a11.4 11.4 0 0111.3-11.3h142.1a11.4 11.4 0 0111.4 11.3V238a11.4 11.4 0 01-11.4 11.4h-142a11.4 11.4 0 01-11.4-11.4z"/><path id="d" d="M161.8 249.2a11.4 11.4 0 0111.3-11.4h166.3a11.4 11.4 0 0111.3 11.4v45.5a11.4 11.4 0 01-11.3 11.3H173a11.4 11.4 0 01-11.3-11.3z"/><path id="e" d="M693.7 82.7A11.4 11.4 0 01705 71.3h142.1a11.4 11.4 0 0111.4 11.4v45.5a11.4 11.4 0 01-11.4 11.4h-142a11.4 11.4 0 01-11.4-11.4z"/><path id="f" d="M693.6 337.7a11.4 11.4 0 0111.3-11.3H847a11.4 11.4 0 0111.4 11.3v45.5a11.4 11.4 0 01-11.4 11.4H705a11.4 11.4 0 01-11.4-11.4z"/><path id="g" d="M457 149.7a11.4 11.4 0 0111.4-11.4h142a11.4 11.4 0 0111.4 11.4v45.5a11.4 11.4 0 01-11.3 11.4h-142a11.4 11.4 0 01-11.5-11.4z"/><path id="h" d="M457 294.9a11.4 11.4 0 0111.3-11.4h142a11.4 11.4 0 0111.4 11.4v45.5a11.4 11.4 0 01-11.3 11.4H468.3a11.4 11.4 0 01-11.4-11.4z"/><path id="i" d="M13.1 285a7.8 7.8 0 017.9-7.8h115.5a7.8 7.8 0 017.8 7.8v31.3a7.8 7.8 0 01-7.8 7.8H21a7.8 7.8 0 01-7.9-7.8z"/></defs></svg>