<svg version="1.1" viewBox="0.0 0.0 600.0 371.0" fill="none" stroke="none" stroke-linecap="square" stroke-miterlimit="10" width="600" height="371" xmlns:xlink="http://www.w3.org/1999/xlink" xmlns="http://www.w3.org/2000/svg"><path fill="#ffffff" d="M0 0L600.0 0L600.0 371.0L0 371.0L0 0Z" fill-rule="nonzero"/><path stroke="#333333" stroke-width="1.0" stroke-linecap="butt" d="M45.5 332.5L581.5 332.5" fill-rule="nonzero"/><path stroke="#cccccc" stroke-width="1.0" stroke-linecap="butt" d="M45.5 271.5L581.5 271.5" fill-rule="nonzero"/><path stroke="#cccccc" stroke-width="1.0" stroke-linecap="butt" d="M45.5 210.5L581.5 210.5" fill-rule="nonzero"/><path stroke="#cccccc" stroke-width="1.0" stroke-linecap="butt" d="M45.5 149.5L581.5 149.5" fill-rule="nonzero"/><path stroke="#cccccc" stroke-width="1.0" stroke-linecap="butt" d="M45.5 88.5L581.5 88.5" fill-rule="nonzero"/><clipPath id="id_0"><path d="M45.55 88.28333L581.45 88.28333L581.45 332.45L45.55 332.45L45.55 88.28333Z" clip-rule="nonzero"/></clipPath><path stroke="#000000" stroke-width="0.0" stroke-linecap="butt" stroke-opacity="0.0" clip-path="url(#id_0)" d="M248.0 332.0L184.0 332.0L184.0 304.0C184.0 302.89542 184.89543 302.0 186.0 302.0L246.0 302.0C247.10457 302.0 248.0 302.89542 248.0 304.0Z" fill-rule="nonzero"/><path fill="#4285f4" clip-path="url(#id_0)" d="M248.0 332.0L184.0 332.0L184.0 304.0C184.0 302.89542 184.89543 302.0 186.0 302.0L246.0 302.0C247.10457 302.0 248.0 302.89542 248.0 304.0Z" fill-rule="nonzero"/><path stroke="#000000" stroke-width="0.0" stroke-linecap="butt" stroke-opacity="0.0" clip-path="url(#id_0)" d="M313.0 332.0L249.0 332.0L249.0 252.0C249.0 250.89543 249.89543 250.0 251.0 250.0L311.0 250.0C312.10458 250.0 313.0 250.89543 313.0 252.0Z" fill-rule="nonzero"/><path fill="#ea4335" clip-path="url(#id_0)" d="M313.0 332.0L249.0 332.0L249.0 252.0C249.0 250.89543 249.89543 250.0 251.0 250.0L311.0 250.0C312.10458 250.0 313.0 250.89543 313.0 252.0Z" fill-rule="nonzero"/><path stroke="#000000" stroke-width="0.0" stroke-linecap="butt" stroke-opacity="0.0" clip-path="url(#id_0)" d="M378.0 332.0L314.0 332.0L314.0 249.0C314.0 247.89543 314.89542 247.0 316.0 247.0L376.0 247.0C377.10458 247.0 378.0 247.89543 378.0 249.0Z" fill-rule="nonzero"/><path fill="#fbbc04" clip-path="url(#id_0)" d="M378.0 332.0L314.0 332.0L314.0 249.0C314.0 247.89543 314.89542 247.0 316.0 247.0L376.0 247.0C377.10458 247.0 378.0 247.89543 378.0 249.0Z" fill-rule="nonzero"/><path stroke="#000000" stroke-width="0.0" stroke-linecap="butt" stroke-opacity="0.0" clip-path="url(#id_0)" d="M443.0 332.0L379.0 332.0L379.0 106.0C379.0 104.89543 379.89542 104.0 381.0 104.0L441.0 104.0C442.10458 104.0 443.0 104.89543 443.0 106.0Z" fill-rule="nonzero"/><path fill="#34a853" clip-path="url(#id_0)" d="M443.0 332.0L379.0 332.0L379.0 106.0C379.0 104.89543 379.89542 104.0 381.0 104.0L441.0 104.0C442.10458 104.0 443.0 104.89543 443.0 106.0Z" fill-rule="nonzero"/><path fill="#000000" d="M33.05 332.21564Q33.05 330.6844 33.3625 329.7625Q33.675 328.825 34.284374 328.325Q34.909374 327.825 35.846874 327.825Q36.534374 327.825 37.05 328.10626Q37.58125 328.3875 37.925 328.91876Q38.26875 329.4344 38.45625 330.1844Q38.64375 330.9344 38.64375 332.21564Q38.64375 333.73126 38.33125 334.65314Q38.034374 335.575 37.409374 336.09064Q36.8 336.59064 35.846874 336.59064Q34.6125 336.59064 33.89375 335.7Q33.05 334.6375 33.05 332.21564ZM34.128124 332.21564Q34.128124 334.325 34.628124 335.02814Q35.128124 335.73126 35.846874 335.73126Q36.58125 335.73126 37.065624 335.02814Q37.565624 334.325 37.565624 332.21564Q37.565624 330.09064 37.065624 329.40314Q36.58125 328.7 35.83125 328.7Q35.1125 328.7 34.675 329.3094Q34.128124 330.09064 34.128124 332.21564Z" fill-rule="nonzero"/><path fill="#000000" d="M38.596874 274.3927L38.596874 275.40833L32.909374 275.40833Q32.909374 275.03333 33.034374 274.67395Q33.253124 274.09583 33.721874 273.53333Q34.20625 272.97083 35.1125 272.23645Q36.51875 271.0802 37.003124 270.40833Q37.503124 269.73645 37.503124 269.1427Q37.503124 268.5177 37.05 268.09583Q36.596874 267.65833 35.878124 267.65833Q35.1125 267.65833 34.659374 268.11145Q34.20625 268.56458 34.190624 269.37708L33.1125 269.2677Q33.221874 268.04895 33.940624 267.42395Q34.675 266.78333 35.909374 266.78333Q37.14375 266.78333 37.8625 267.47083Q38.58125 268.15833 38.58125 269.17395Q38.58125 269.68958 38.3625 270.18958Q38.159374 270.67395 37.659374 271.23645Q37.175 271.78333 36.05 272.73645Q35.096874 273.53333 34.815624 273.8302Q34.55 274.11145 34.378124 274.3927L38.596874 274.3927Z" fill-rule="nonzero"/><path fill="#000000" d="M36.425 214.36667L36.425 212.30417L32.70625 212.30417L32.70625 211.33542L36.628124 205.77292L37.4875 205.77292L37.4875 211.33542L38.64375 211.33542L38.64375 212.30417L37.4875 212.30417L37.4875 214.36667L36.425 214.36667ZM36.425 211.33542L36.425 207.47604L33.7375 211.33542L36.425 211.33542Z" fill-rule="nonzero"/><path fill="#000000" d="M38.51875 146.84062L37.471874 146.91875Q37.33125 146.29375 37.08125 146.0125Q36.64375 145.55937 36.01875 145.55937Q35.51875 145.55937 35.128124 145.84062Q34.64375 146.21562 34.346874 146.91875Q34.065624 147.60625 34.05 148.8875Q34.425 148.30937 34.971874 148.02812Q35.534374 147.74687 36.14375 147.74687Q37.190624 147.74687 37.925 148.52812Q38.675 149.30937 38.675 150.52812Q38.675 151.34062 38.315624 152.04375Q37.971874 152.73125 37.3625 153.10625Q36.753124 153.46562 35.9875 153.46562Q34.659374 153.46562 33.83125 152.49687Q33.003124 151.52812 33.003124 149.30937Q33.003124 146.80937 33.925 145.68437Q34.721874 144.7 36.08125 144.7Q37.096874 144.7 37.7375 145.27812Q38.39375 145.84062 38.51875 146.84062ZM34.221874 150.54375Q34.221874 151.09062 34.440624 151.59062Q34.675 152.075 35.08125 152.34062Q35.503124 152.60625 35.971874 152.60625Q36.628124 152.60625 37.1125 152.075Q37.596874 151.52812 37.596874 150.60625Q37.596874 149.71562 37.1125 149.2Q36.64375 148.68437 35.925 148.68437Q35.20625 148.68437 34.70625 149.2Q34.221874 149.71562 34.221874 150.54375Z" fill-rule="nonzero"/><path fill="#000000" d="M34.675 87.62708Q34.01875 87.37708 33.690624 86.93958Q33.378124 86.48646 33.378124 85.87708Q33.378124 84.93958 34.05 84.29896Q34.7375 83.65833 35.846874 83.65833Q36.971874 83.65833 37.659374 84.31458Q38.346874 84.97083 38.346874 85.90833Q38.346874 86.50208 38.034374 86.93958Q37.721874 87.37708 37.08125 87.62708Q37.878124 87.87708 38.284374 88.45521Q38.690624 89.03333 38.690624 89.83021Q38.690624 90.92396 37.909374 91.67396Q37.14375 92.42396 35.8625 92.42396Q34.596874 92.42396 33.815624 91.67396Q33.034374 90.92396 33.034374 89.79896Q33.034374 88.95521 33.45625 88.39271Q33.89375 87.83021 34.675 87.62708ZM34.45625 85.83021Q34.45625 86.43958 34.846874 86.83021Q35.253124 87.22083 35.878124 87.22083Q36.4875 87.22083 36.878124 86.84583Q37.26875 86.45521 37.26875 85.89271Q37.26875 85.31458 36.8625 84.92396Q36.45625 84.51771 35.8625 84.51771Q35.253124 84.51771 34.846874 84.90833Q34.45625 85.29896 34.45625 85.83021ZM34.128124 89.79896Q34.128124 90.25208 34.33125 90.67396Q34.55 91.09583 34.971874 91.33021Q35.39375 91.56458 35.878124 91.56458Q36.628124 91.56458 37.1125 91.08021Q37.6125 90.59583 37.6125 89.84583Q37.6125 89.08021 37.1125 88.58021Q36.6125 88.08021 35.846874 88.08021Q35.096874 88.08021 34.6125 88.58021Q34.128124 89.06458 34.128124 89.79896Z" fill-rule="nonzero"/><path fill="#4285f4" d="M85.0 56.916668C85.0 56.364384 85.447716 55.916668 86.0 55.916668L96.0 55.916668C96.552284 55.916668 97.0 56.364384 97.0 56.916668L97.0 66.916664C97.0 67.46895 96.552284 67.916664 96.0 67.916664L86.0 67.916664C85.447716 67.916664 85.0 67.46895 85.0 66.916664Z" fill-rule="nonzero"/><path fill="#1a1a1a" d="M105.875 65.916664L105.875 57.322914L107.015625 57.322914L107.015625 64.90104L111.25 64.90104L111.25 65.916664L105.875 65.916664ZM112.796875 58.541664L112.796875 57.322914L113.859375 57.322914L113.859375 58.541664L112.796875 58.541664ZM112.796875 65.916664L112.796875 59.697914L113.859375 59.697914L113.859375 65.916664L112.796875 65.916664ZM116.046875 65.916664L116.046875 60.510414L115.109375 60.510414L115.109375 59.697914L116.046875 59.697914L116.046875 59.02604Q116.046875 58.40104 116.15625 58.104164Q116.3125 57.68229 116.6875 57.43229Q117.078125 57.18229 117.765625 57.18229Q118.21875 57.18229 118.75 57.291664L118.59375 58.197914Q118.265625 58.15104 117.96875 58.15104Q117.484375 58.15104 117.28125 58.354164Q117.09375 58.55729 117.09375 59.11979L117.09375 59.697914L118.3125 59.697914L118.3125 60.510414L117.09375 60.510414L117.09375 65.916664L116.046875 65.916664ZM121.09375 64.979164L121.25 65.90104Q120.796875 65.99479 120.453125 65.99479Q119.875 65.99479 119.5625 65.822914Q119.25 65.635414 119.109375 65.33854Q118.984375 65.041664 118.984375 64.08854L118.984375 60.510414L118.21875 60.510414L118.21875 59.697914L118.984375 59.697914L118.984375 58.15104L120.03125 57.52604L120.03125 59.697914L121.09375 59.697914L121.09375 60.510414L120.03125 60.510414L120.03125 64.15104Q120.03125 64.604164 120.078125 64.729164Q120.140625 64.854164 120.265625 64.93229Q120.390625 65.010414 120.625 65.010414Q120.8125 65.010414 121.09375 64.979164ZM121.40625 62.80729Q121.40625 61.072914 122.359375 60.24479Q123.15625 59.55729 124.3125 59.55729Q125.59375 59.55729 126.40625 60.40104Q127.234375 61.229164 127.234375 62.71354Q127.234375 63.916664 126.875 64.604164Q126.515625 65.291664 125.8125 65.68229Q125.125 66.05729 124.3125 66.05729Q123.015625 66.05729 122.203125 65.229164Q121.40625 64.385414 121.40625 62.80729ZM122.484375 62.80729Q122.484375 63.99479 123.0 64.58854Q123.53125 65.18229 124.3125 65.18229Q125.109375 65.18229 125.625 64.58854Q126.140625 63.99479 126.140625 62.77604Q126.140625 61.61979 125.609375 61.02604Q125.09375 60.43229 124.3125 60.43229Q123.53125 60.43229 123.0 61.02604Q122.484375 61.604164 122.484375 62.80729ZM129.04688 65.916664L129.04688 60.510414L128.10938 60.510414L128.10938 59.697914L129.04688 59.697914L129.04688 59.02604Q129.04688 58.40104 129.15625 58.104164Q129.3125 57.68229 129.6875 57.43229Q130.07812 57.18229 130.76562 57.18229Q131.21875 57.18229 131.75 57.291664L131.59375 58.197914Q131.26562 58.15104 130.96875 58.15104Q130.48438 58.15104 130.28125 58.354164Q130.09375 58.55729 130.09375 59.11979L130.09375 59.697914L131.3125 59.697914L131.3125 60.510414L130.09375 60.510414L130.09375 65.916664L129.04688 65.916664ZM132.04688 65.916664L132.04688 60.510414L131.10938 60.510414L131.10938 59.697914L132.04688 59.697914L132.04688 59.02604Q132.04688 58.40104 132.15625 58.104164Q132.3125 57.68229 132.6875 57.43229Q133.07812 57.18229 133.76562 57.18229Q134.21875 57.18229 134.75 57.291664L134.59375 58.197914Q134.26562 58.15104 133.96875 58.15104Q133.48438 58.15104 133.28125 58.354164Q133.09375 58.55729 133.09375 59.11979L133.09375 59.697914L134.3125 59.697914L134.3125 60.510414L133.09375 60.510414L133.09375 65.916664L132.04688 65.916664ZM137.375 64.05729L138.40625 63.90104Q138.5 64.52604 138.89062 64.854164Q139.29688 65.18229 140.03125 65.18229Q140.75 65.18229 141.09375 64.90104Q141.45312 64.604164 141.45312 64.197914Q141.45312 63.83854 141.14062 63.635414Q140.92188 63.49479 140.0625 63.27604Q138.90625 62.979164 138.45312 62.77604Q138.01562 62.55729 137.78125 62.18229Q137.54688 61.80729 137.54688 61.33854Q137.54688 60.93229 137.73438 60.572914Q137.92188 60.21354 138.25 59.979164Q138.5 59.80729 138.92188 59.68229Q139.34375 59.55729 139.84375 59.55729Q140.5625 59.55729 141.10938 59.77604Q141.67188 59.979164 141.9375 60.33854Q142.20312 60.697914 142.29688 61.291664L141.26562 61.43229Q141.20312 60.96354 140.85938 60.697914Q140.53125 60.416664 139.90625 60.416664Q139.1875 60.416664 138.875 60.666664Q138.5625 60.90104 138.5625 61.229164Q138.5625 61.43229 138.6875 61.58854Q138.82812 61.760414 139.09375 61.86979Q139.25 61.93229 140.03125 62.135414Q141.15625 62.447914 141.59375 62.635414Q142.03125 62.822914 142.28125 63.18229Q142.53125 63.541664 142.53125 64.08854Q142.53125 64.61979 142.21875 65.08854Q141.92188 65.541664 141.34375 65.80729Q140.76562 66.05729 140.03125 66.05729Q138.8125 66.05729 138.17188 65.55729Q137.54688 65.041664 137.375 64.05729ZM147.85938 63.635414L148.89062 63.77604Q148.71875 64.83854 148.01562 65.447914Q147.3125 66.05729 146.29688 66.05729Q145.01562 66.05729 144.23438 65.229164Q143.46875 64.385414 143.46875 62.822914Q143.46875 61.822914 143.79688 61.072914Q144.14062 60.30729 144.8125 59.93229Q145.5 59.55729 146.3125 59.55729Q147.3125 59.55729 147.95312 60.072914Q148.60938 60.572914 148.79688 61.52604L147.76562 61.68229Q147.625 61.05729 147.25 60.74479Q146.875 60.416664 146.34375 60.416664Q145.54688 60.416664 145.04688 60.99479Q144.54688 61.55729 144.54688 62.791664Q144.54688 64.05729 145.03125 64.61979Q145.51562 65.18229 146.28125 65.18229Q146.90625 65.18229 147.3125 64.80729Q147.73438 64.43229 147.85938 63.635414ZM153.85938 65.15104Q153.26562 65.65104 152.71875 65.854164Q152.1875 66.05729 151.5625 66.05729Q150.53125 66.05729 149.98438 65.55729Q149.4375 65.05729 149.4375 64.27604Q149.4375 63.822914 149.64062 63.447914Q149.84375 63.05729 150.1875 62.83854Q150.53125 62.604164 150.95312 62.49479Q151.25 62.40104 151.89062 62.322914Q153.15625 62.18229 153.76562 61.96354Q153.76562 61.74479 153.76562 61.697914Q153.76562 61.041664 153.46875 60.77604Q153.0625 60.43229 152.26562 60.43229Q151.53125 60.43229 151.17188 60.697914Q150.8125 60.947914 150.64062 61.604164L149.60938 61.46354Q149.75 60.80729 150.07812 60.40104Q150.40625 59.99479 151.01562 59.77604Q151.625 59.55729 152.42188 59.55729Q153.21875 59.55729 153.71875 59.74479Q154.21875 59.93229 154.45312 60.21354Q154.6875 60.49479 154.78125 60.93229Q154.82812 61.197914 154.82812 61.90104L154.82812 63.30729Q154.82812 64.77604 154.89062 65.166664Q154.96875 65.55729 155.17188 65.916664L154.0625 65.916664Q153.90625 65.58854 153.85938 65.15104ZM153.76562 62.791664Q153.1875 63.02604 152.04688 63.197914Q151.39062 63.291664 151.125 63.416664Q150.85938 63.52604 150.70312 63.74479Q150.5625 63.96354 150.5625 64.24479Q150.5625 64.666664 150.875 64.947914Q151.20312 65.229164 151.8125 65.229164Q152.42188 65.229164 152.89062 64.96354Q153.375 64.697914 153.59375 64.229164Q153.76562 63.86979 153.76562 63.18229L153.76562 62.791664ZM156.76562 65.916664L156.76562 57.322914L157.82812 57.322914L157.82812 65.916664L156.76562 65.916664ZM163.85938 65.15104Q163.26562 65.65104 162.71875 65.854164Q162.1875 66.05729 161.5625 66.05729Q160.53125 66.05729 159.98438 65.55729Q159.4375 65.05729 159.4375 64.27604Q159.4375 63.822914 159.64062 63.447914Q159.84375 63.05729 160.1875 62.83854Q160.53125 62.604164 160.95312 62.49479Q161.25 62.40104 161.89062 62.322914Q163.15625 62.18229 163.76562 61.96354Q163.76562 61.74479 163.76562 61.697914Q163.76562 61.041664 163.46875 60.77604Q163.0625 60.43229 162.26562 60.43229Q161.53125 60.43229 161.17188 60.697914Q160.8125 60.947914 160.64062 61.604164L159.60938 61.46354Q159.75 60.80729 160.07812 60.40104Q160.40625 59.99479 161.01562 59.77604Q161.625 59.55729 162.42188 59.55729Q163.21875 59.55729 163.71875 59.74479Q164.21875 59.93229 164.45312 60.21354Q164.6875 60.49479 164.78125 60.93229Q164.82812 61.197914 164.82812 61.90104L164.82812 63.30729Q164.82812 64.77604 164.89062 65.166664Q164.96875 65.55729 165.17188 65.916664L164.0625 65.916664Q163.90625 65.58854 163.85938 65.15104ZM163.76562 62.791664Q163.1875 63.02604 162.04688 63.197914Q161.39062 63.291664 161.125 63.416664Q160.85938 63.52604 160.70312 63.74479Q160.5625 63.96354 160.5625 64.24479Q160.5625 64.666664 160.875 64.947914Q161.20312 65.229164 161.8125 65.229164Q162.42188 65.229164 162.89062 64.96354Q163.375 64.697914 163.59375 64.229164Q163.76562 63.86979 163.76562 63.18229L163.76562 62.791664ZM166.78125 65.916664L166.78125 59.697914L167.73438 59.697914L167.73438 60.635414Q168.09375 59.979164 168.39062 59.77604Q168.70312 59.55729 169.07812 59.55729Q169.60938 59.55729 170.15625 59.885414L169.79688 60.86979Q169.40625 60.635414 169.03125 60.635414Q168.67188 60.635414 168.39062 60.854164Q168.125 61.05729 168.01562 61.43229Q167.82812 61.99479 167.82812 62.65104L167.82812 65.916664L166.78125 65.916664Z" fill-rule="nonzero"/><path fill="#ea4335" d="M186.0 56.916668C186.0 56.364384 186.44771 55.916668 187.0 55.916668L197.0 55.916668C197.55229 55.916668 198.0 56.364384 198.0 56.916668L198.0 66.916664C198.0 67.46895 197.55229 67.916664 197.0 67.916664L187.0 67.916664C186.44771 67.916664 186.0 67.46895 186.0 66.916664Z" fill-rule="nonzero"/><path fill="#1a1a1a" d="M209.10938 65.916664L209.10938 58.33854L206.28125 58.33854L206.28125 57.322914L213.09375 57.322914L213.09375 58.33854L210.25 58.33854L210.25 65.916664L209.10938 65.916664ZM217.875 65.916664L217.875 64.99479Q217.14062 66.05729 215.89062 66.05729Q215.34375 66.05729 214.85938 65.854164Q214.39062 65.635414 214.15625 65.322914Q213.92188 64.99479 213.82812 64.52604Q213.76562 64.229164 213.76562 63.541664L213.76562 59.697914L214.82812 59.697914L214.82812 63.15104Q214.82812 63.96354 214.89062 64.260414Q214.98438 64.666664 215.29688 64.916664Q215.625 65.15104 216.10938 65.15104Q216.57812 65.15104 216.98438 64.916664Q217.40625 64.666664 217.57812 64.24479Q217.76562 63.822914 217.76562 63.02604L217.76562 59.697914L218.8125 59.697914L218.8125 65.916664L217.875 65.916664ZM220.78125 65.916664L220.78125 59.697914L221.73438 59.697914L221.73438 60.635414Q222.09375 59.979164 222.39062 59.77604Q222.70312 59.55729 223.07812 59.55729Q223.60938 59.55729 224.15625 59.885414L223.79688 60.86979Q223.40625 60.635414 223.03125 60.635414Q222.67188 60.635414 222.39062 60.854164Q222.125 61.05729 222.01562 61.43229Q221.82812 61.99479 221.82812 62.65104L221.82812 65.916664L220.78125 65.916664ZM225.76562 65.916664L224.78125 65.916664L224.78125 57.322914L225.84375 57.322914L225.84375 60.385414Q226.51562 59.55729 227.54688 59.55729Q228.125 59.55729 228.625 59.791664Q229.14062 60.010414 229.46875 60.43229Q229.8125 60.854164 230.0 61.447914Q230.1875 62.041664 230.1875 62.71354Q230.1875 64.30729 229.39062 65.18229Q228.59375 66.05729 227.5 66.05729Q226.39062 66.05729 225.76562 65.135414L225.76562 65.916664ZM225.75 62.760414Q225.75 63.86979 226.0625 64.36979Q226.5625 65.18229 227.40625 65.18229Q228.09375 65.18229 228.59375 64.58854Q229.10938 63.99479 229.10938 62.791664Q229.10938 61.572914 228.625 60.99479Q228.14062 60.416664 227.45312 60.416664Q226.76562 60.416664 226.25 61.02604Q225.75 61.61979 225.75 62.760414ZM231.40625 62.80729Q231.40625 61.072914 232.35938 60.24479Q233.15625 59.55729 234.3125 59.55729Q235.59375 59.55729 236.40625 60.40104Q237.23438 61.229164 237.23438 62.71354Q237.23438 63.916664 236.875 64.604164Q236.51562 65.291664 235.8125 65.68229Q235.125 66.05729 234.3125 66.05729Q233.01562 66.05729 232.20312 65.229164Q231.40625 64.385414 231.40625 62.80729ZM232.48438 62.80729Q232.48438 63.99479 233.0 64.58854Q233.53125 65.18229 234.3125 65.18229Q235.10938 65.18229 235.625 64.58854Q236.14062 63.99479 236.14062 62.77604Q236.14062 61.61979 235.60938 61.02604Q235.09375 60.43229 234.3125 60.43229Q233.53125 60.43229 233.0 61.02604Q232.48438 61.604164 232.48438 62.80729ZM238.98438 65.916664L238.98438 57.322914L244.78125 57.322914L244.78125 58.33854L240.125 58.33854L240.125 60.99479L244.15625 60.99479L244.15625 62.010414L240.125 62.010414L240.125 65.916664L238.98438 65.916664ZM249.85938 65.15104Q249.26562 65.65104 248.71875 65.854164Q248.1875 66.05729 247.5625 66.05729Q246.53125 66.05729 245.98438 65.55729Q245.4375 65.05729 245.4375 64.27604Q245.4375 63.822914 245.64062 63.447914Q245.84375 63.05729 246.1875 62.83854Q246.53125 62.604164 246.95312 62.49479Q247.25 62.40104 247.89062 62.322914Q249.15625 62.18229 249.76562 61.96354Q249.76562 61.74479 249.76562 61.697914Q249.76562 61.041664 249.46875 60.77604Q249.0625 60.43229 248.26562 60.43229Q247.53125 60.43229 247.17188 60.697914Q246.8125 60.947914 246.64062 61.604164L245.60938 61.46354Q245.75 60.80729 246.07812 60.40104Q246.40625 59.99479 247.01562 59.77604Q247.625 59.55729 248.42188 59.55729Q249.21875 59.55729 249.71875 59.74479Q250.21875 59.93229 250.45312 60.21354Q250.6875 60.49479 250.78125 60.93229Q250.82812 61.197914 250.82812 61.90104L250.82812 63.30729Q250.82812 64.77604 250.89062 65.166664Q250.96875 65.55729 251.17188 65.916664L250.0625 65.916664Q249.90625 65.58854 249.85938 65.15104ZM249.76562 62.791664Q249.1875 63.02604 248.04688 63.197914Q247.39062 63.291664 247.125 63.416664Q246.85938 63.52604 246.70312 63.74479Q246.5625 63.96354 246.5625 64.24479Q246.5625 64.666664 246.875 64.947914Q247.20312 65.229164 247.8125 65.229164Q248.42188 65.229164 248.89062 64.96354Q249.375 64.697914 249.59375 64.229164Q249.76562 63.86979 249.76562 63.18229L249.76562 62.791664ZM252.79688 65.916664L252.79688 59.697914L253.73438 59.697914L253.73438 60.572914Q254.42188 59.55729 255.71875 59.55729Q256.28125 59.55729 256.75 59.760414Q257.23438 59.96354 257.46875 60.291664Q257.70312 60.61979 257.79688 61.05729Q257.84375 61.354164 257.84375 62.08854L257.84375 65.916664L256.79688 65.916664L256.79688 62.135414Q256.79688 61.479164 256.67188 61.166664Q256.54688 60.854164 256.23438 60.666664Q255.92188 60.46354 255.5 60.46354Q254.82812 60.46354 254.32812 60.90104Q253.84375 61.322914 253.84375 62.510414L253.84375 65.916664L252.79688 65.916664ZM262.375 64.05729L263.40625 63.90104Q263.5 64.52604 263.89062 64.854164Q264.29688 65.18229 265.03125 65.18229Q265.75 65.18229 266.09375 64.90104Q266.45312 64.604164 266.45312 64.197914Q266.45312 63.83854 266.14062 63.635414Q265.92188 63.49479 265.0625 63.27604Q263.90625 62.979164 263.45312 62.77604Q263.01562 62.55729 262.78125 62.18229Q262.54688 61.80729 262.54688 61.33854Q262.54688 60.93229 262.73438 60.572914Q262.92188 60.21354 263.25 59.979164Q263.5 59.80729 263.92188 59.68229Q264.34375 59.55729 264.84375 59.55729Q265.5625 59.55729 266.10938 59.77604Q266.67188 59.979164 266.9375 60.33854Q267.20312 60.697914 267.29688 61.291664L266.26562 61.43229Q266.20312 60.96354 265.85938 60.697914Q265.53125 60.416664 264.90625 60.416664Q264.1875 60.416664 263.875 60.666664Q263.5625 60.90104 263.5625 61.229164Q263.5625 61.43229 263.6875 61.58854Q263.82812 61.760414 264.09375 61.86979Q264.25 61.93229 265.03125 62.135414Q266.15625 62.447914 266.59375 62.635414Q267.03125 62.822914 267.28125 63.18229Q267.53125 63.541664 267.53125 64.08854Q267.53125 64.61979 267.21875 65.08854Q266.92188 65.541664 266.34375 65.80729Q265.76562 66.05729 265.03125 66.05729Q263.8125 66.05729 263.17188 65.55729Q262.54688 65.041664 262.375 64.05729ZM272.85938 63.635414L273.89062 63.77604Q273.71875 64.83854 273.01562 65.447914Q272.3125 66.05729 271.29688 66.05729Q270.01562 66.05729 269.23438 65.229164Q268.46875 64.385414 268.46875 62.822914Q268.46875 61.822914 268.79688 61.072914Q269.14062 60.30729 269.8125 59.93229Q270.5 59.55729 271.3125 59.55729Q272.3125 59.55729 272.95312 60.072914Q273.60938 60.572914 273.79688 61.52604L272.76562 61.68229Q272.625 61.05729 272.25 60.74479Q271.875 60.416664 271.34375 60.416664Q270.54688 60.416664 270.04688 60.99479Q269.54688 61.55729 269.54688 62.791664Q269.54688 64.05729 270.03125 64.61979Q270.51562 65.18229 271.28125 65.18229Q271.90625 65.18229 272.3125 64.80729Q272.73438 64.43229 272.85938 63.635414ZM278.85938 65.15104Q278.26562 65.65104 277.71875 65.854164Q277.1875 66.05729 276.5625 66.05729Q275.53125 66.05729 274.98438 65.55729Q274.4375 65.05729 274.4375 64.27604Q274.4375 63.822914 274.64062 63.447914Q274.84375 63.05729 275.1875 62.83854Q275.53125 62.604164 275.95312 62.49479Q276.25 62.40104 276.89062 62.322914Q278.15625 62.18229 278.76562 61.96354Q278.76562 61.74479 278.76562 61.697914Q278.76562 61.041664 278.46875 60.77604Q278.0625 60.43229 277.26562 60.43229Q276.53125 60.43229 276.17188 60.697914Q275.8125 60.947914 275.64062 61.604164L274.60938 61.46354Q274.75 60.80729 275.07812 60.40104Q275.40625 59.99479 276.01562 59.77604Q276.625 59.55729 277.42188 59.55729Q278.21875 59.55729 278.71875 59.74479Q279.21875 59.93229 279.45312 60.21354Q279.6875 60.49479 279.78125 60.93229Q279.82812 61.197914 279.82812 61.90104L279.82812 63.30729Q279.82812 64.77604 279.89062 65.166664Q279.96875 65.55729 280.17188 65.916664L279.0625 65.916664Q278.90625 65.58854 278.85938 65.15104ZM278.76562 62.791664Q278.1875 63.02604 277.04688 63.197914Q276.39062 63.291664 276.125 63.416664Q275.85938 63.52604 275.70312 63.74479Q275.5625 63.96354 275.5625 64.24479Q275.5625 64.666664 275.875 64.947914Q276.20312 65.229164 276.8125 65.229164Q277.42188 65.229164 277.89062 64.96354Q278.375 64.697914 278.59375 64.229164Q278.76562 63.86979 278.76562 63.18229L278.76562 62.791664ZM281.76562 65.916664L281.76562 57.322914L282.82812 57.322914L282.82812 65.916664L281.76562 65.916664ZM288.85938 65.15104Q288.26562 65.65104 287.71875 65.854164Q287.1875 66.05729 286.5625 66.05729Q285.53125 66.05729 284.98438 65.55729Q284.4375 65.05729 284.4375 64.27604Q284.4375 63.822914 284.64062 63.447914Q284.84375 63.05729 285.1875 62.83854Q285.53125 62.604164 285.95312 62.49479Q286.25 62.40104 286.89062 62.322914Q288.15625 62.18229 288.76562 61.96354Q288.76562 61.74479 288.76562 61.697914Q288.76562 61.041664 288.46875 60.77604Q288.0625 60.43229 287.26562 60.43229Q286.53125 60.43229 286.17188 60.697914Q285.8125 60.947914 285.64062 61.604164L284.60938 61.46354Q284.75 60.80729 285.07812 60.40104Q285.40625 59.99479 286.01562 59.77604Q286.625 59.55729 287.42188 59.55729Q288.21875 59.55729 288.71875 59.74479Q289.21875 59.93229 289.45312 60.21354Q289.6875 60.49479 289.78125 60.93229Q289.82812 61.197914 289.82812 61.90104L289.82812 63.30729Q289.82812 64.77604 289.89062 65.166664Q289.96875 65.55729 290.17188 65.916664L289.0625 65.916664Q288.90625 65.58854 288.85938 65.15104ZM288.76562 62.791664Q288.1875 63.02604 287.04688 63.197914Q286.39062 63.291664 286.125 63.416664Q285.85938 63.52604 285.70312 63.74479Q285.5625 63.96354 285.5625 64.24479Q285.5625 64.666664 285.875 64.947914Q286.20312 65.229164 286.8125 65.229164Q287.42188 65.229164 287.89062 64.96354Q288.375 64.697914 288.59375 64.229164Q288.76562 63.86979 288.76562 63.18229L288.76562 62.791664ZM291.78125 65.916664L291.78125 59.697914L292.73438 59.697914L292.73438 60.635414Q293.09375 59.979164 293.39062 59.77604Q293.70312 59.55729 294.07812 59.55729Q294.60938 59.55729 295.15625 59.885414L294.79688 60.86979Q294.40625 60.635414 294.03125 60.635414Q293.67188 60.635414 293.39062 60.854164Q293.125 61.05729 293.01562 61.43229Q292.82812 61.99479 292.82812 62.65104L292.82812 65.916664L291.78125 65.916664Z" fill-rule="nonzero"/><path fill="#fbbc04" d="M311.0 56.916668C311.0 56.364384 311.44772 55.916668 312.0 55.916668L322.0 55.916668C322.55228 55.916668 323.0 56.364384 323.0 56.916668L323.0 66.916664C323.0 67.46895 322.55228 67.916664 322.0 67.916664L312.0 67.916664C311.44772 67.916664 311.0 67.46895 311.0 66.916664Z" fill-rule="nonzero"/><path fill="#1a1a1a" d="M331.875 65.916664L331.875 57.322914L333.01562 57.322914L333.01562 64.90104L337.25 64.90104L337.25 65.916664L331.875 65.916664ZM338.79688 58.541664L338.79688 57.322914L339.85938 57.322914L339.85938 58.541664L338.79688 58.541664ZM338.79688 65.916664L338.79688 59.697914L339.85938 59.697914L339.85938 65.916664L338.79688 65.916664ZM342.04688 65.916664L342.04688 60.510414L341.10938 60.510414L341.10938 59.697914L342.04688 59.697914L342.04688 59.02604Q342.04688 58.40104 342.15625 58.104164Q342.3125 57.68229 342.6875 57.43229Q343.07812 57.18229 343.76562 57.18229Q344.21875 57.18229 344.75 57.291664L344.59375 58.197914Q344.26562 58.15104 343.96875 58.15104Q343.48438 58.15104 343.28125 58.354164Q343.09375 58.55729 343.09375 59.11979L343.09375 59.697914L344.3125 59.697914L344.3125 60.510414L343.09375 60.510414L343.09375 65.916664L342.04688 65.916664ZM347.09375 64.979164L347.25 65.90104Q346.79688 65.99479 346.45312 65.99479Q345.875 65.99479 345.5625 65.822914Q345.25 65.635414 345.10938 65.33854Q344.98438 65.041664 344.98438 64.08854L344.98438 60.510414L344.21875 60.510414L344.21875 59.697914L344.98438 59.697914L344.98438 58.15104L346.03125 57.52604L346.03125 59.697914L347.09375 59.697914L347.09375 60.510414L346.03125 60.510414L346.03125 64.15104Q346.03125 64.604164 346.07812 64.729164Q346.14062 64.854164 346.26562 64.93229Q346.39062 65.010414 346.625 65.010414Q346.8125 65.010414 347.09375 64.979164ZM347.40625 62.80729Q347.40625 61.072914 348.35938 60.24479Q349.15625 59.55729 350.3125 59.55729Q351.59375 59.55729 352.40625 60.40104Q353.23438 61.229164 353.23438 62.71354Q353.23438 63.916664 352.875 64.604164Q352.51562 65.291664 351.8125 65.68229Q351.125 66.05729 350.3125 66.05729Q349.01562 66.05729 348.20312 65.229164Q347.40625 64.385414 347.40625 62.80729ZM348.48438 62.80729Q348.48438 63.99479 349.0 64.58854Q349.53125 65.18229 350.3125 65.18229Q351.10938 65.18229 351.625 64.58854Q352.14062 63.99479 352.14062 62.77604Q352.14062 61.61979 351.60938 61.02604Q351.09375 60.43229 350.3125 60.43229Q349.53125 60.43229 349.0 61.02604Q348.48438 61.604164 348.48438 62.80729ZM355.04688 65.916664L355.04688 60.510414L354.10938 60.510414L354.10938 59.697914L355.04688 59.697914L355.04688 59.02604Q355.04688 58.40104 355.15625 58.104164Q355.3125 57.68229 355.6875 57.43229Q356.07812 57.18229 356.76562 57.18229Q357.21875 57.18229 357.75 57.291664L357.59375 58.197914Q357.26562 58.15104 356.96875 58.15104Q356.48438 58.15104 356.28125 58.354164Q356.09375 58.55729 356.09375 59.11979L356.09375 59.697914L357.3125 59.697914L357.3125 60.510414L356.09375 60.510414L356.09375 65.916664L355.04688 65.916664ZM358.04688 65.916664L358.04688 60.510414L357.10938 60.510414L357.10938 59.697914L358.04688 59.697914L358.04688 59.02604Q358.04688 58.40104 358.15625 58.104164Q358.3125 57.68229 358.6875 57.43229Q359.07812 57.18229 359.76562 57.18229Q360.21875 57.18229 360.75 57.291664L360.59375 58.197914Q360.26562 58.15104 359.96875 58.15104Q359.48438 58.15104 359.28125 58.354164Q359.09375 58.55729 359.09375 59.11979L359.09375 59.697914L360.3125 59.697914L360.3125 60.510414L359.09375 60.510414L359.09375 65.916664L358.04688 65.916664ZM363.54688 63.15104L364.60938 63.05729Q364.6875 63.71354 364.96875 64.11979Q365.25 64.52604 365.82812 64.791664Q366.42188 65.041664 367.15625 65.041664Q367.79688 65.041664 368.29688 64.854164Q368.79688 64.65104 369.03125 64.322914Q369.28125 63.979164 369.28125 63.58854Q369.28125 63.18229 369.04688 62.885414Q368.8125 62.572914 368.28125 62.36979Q367.92188 62.229164 366.73438 61.947914Q365.5625 61.666664 365.09375 61.416664Q364.46875 61.08854 364.17188 60.61979Q363.875 60.135414 363.875 59.541664Q363.875 58.90104 364.23438 58.33854Q364.60938 57.760414 365.3125 57.479164Q366.03125 57.18229 366.89062 57.18229Q367.84375 57.18229 368.57812 57.49479Q369.3125 57.791664 369.70312 58.40104Q370.09375 58.99479 370.125 59.74479L369.03125 59.822914Q368.9375 59.010414 368.42188 58.604164Q367.92188 58.18229 366.9375 58.18229Q365.90625 58.18229 365.4375 58.55729Q364.96875 58.93229 364.96875 59.46354Q364.96875 59.93229 365.29688 60.229164Q365.625 60.52604 367.0 60.83854Q368.39062 61.15104 368.90625 61.385414Q369.65625 61.74479 370.01562 62.27604Q370.375 62.791664 370.375 63.49479Q370.375 64.18229 369.98438 64.791664Q369.59375 65.385414 368.85938 65.729164Q368.125 66.05729 367.20312 66.05729Q366.03125 66.05729 365.23438 65.729164Q364.45312 65.385414 364.0 64.697914Q363.5625 64.010414 363.54688 63.15104ZM372.125 65.916664L372.125 57.322914L373.25 57.322914L373.25 65.916664L372.125 65.916664ZM374.89062 65.916664L374.89062 57.322914L376.60938 57.322914L378.64062 63.40104Q378.92188 64.260414 379.04688 64.68229Q379.1875 64.21354 379.5 63.30729L381.5625 57.322914L383.09375 57.322914L383.09375 65.916664L382.0 65.916664L382.0 58.729164L379.5 65.916664L378.46875 65.916664L375.98438 58.604164L375.98438 65.916664L374.89062 65.916664ZM384.92188 65.916664L384.92188 57.322914L387.89062 57.322914Q388.89062 57.322914 389.42188 57.447914Q390.15625 57.61979 390.67188 58.05729Q391.35938 58.635414 391.6875 59.541664Q392.03125 60.43229 392.03125 61.572914Q392.03125 62.55729 391.79688 63.30729Q391.57812 64.05729 391.21875 64.55729Q390.85938 65.05729 390.42188 65.33854Q390.0 65.61979 389.40625 65.77604Q388.8125 65.916664 388.03125 65.916664L384.92188 65.916664ZM386.0625 64.90104L387.89062 64.90104Q388.75 64.90104 389.23438 64.74479Q389.71875 64.58854 390.0 64.291664Q390.40625 63.90104 390.625 63.21354Q390.85938 62.52604 390.85938 61.55729Q390.85938 60.21354 390.40625 59.49479Q389.96875 58.760414 389.34375 58.510414Q388.875 58.33854 387.875 58.33854L386.0625 58.33854L386.0625 64.90104Z" fill-rule="nonzero"/><path fill="#34a853" d="M409.0 56.916668C409.0 56.364384 409.44772 55.916668 410.0 55.916668L420.0 55.916668C420.55228 55.916668 421.0 56.364384 421.0 56.916668L421.0 66.916664C421.0 67.46895 420.55228 67.916664 420.0 67.916664L410.0 67.916664C409.44772 67.916664 409.0 67.46895 409.0 66.916664Z" fill-rule="nonzero"/><path fill="#1a1a1a" d="M432.10938 65.916664L432.10938 58.33854L429.28125 58.33854L429.28125 57.322914L436.09375 57.322914L436.09375 58.33854L433.25 58.33854L433.25 65.916664L432.10938 65.916664ZM440.875 65.916664L440.875 64.99479Q440.14062 66.05729 438.89062 66.05729Q438.34375 66.05729 437.85938 65.854164Q437.39062 65.635414 437.15625 65.322914Q436.92188 64.99479 436.82812 64.52604Q436.76562 64.229164 436.76562 63.541664L436.76562 59.697914L437.82812 59.697914L437.82812 63.15104Q437.82812 63.96354 437.89062 64.260414Q437.98438 64.666664 438.29688 64.916664Q438.625 65.15104 439.10938 65.15104Q439.57812 65.15104 439.98438 64.916664Q440.40625 64.666664 440.57812 64.24479Q440.76562 63.822914 440.76562 63.02604L440.76562 59.697914L441.8125 59.697914L441.8125 65.916664L440.875 65.916664ZM443.78125 65.916664L443.78125 59.697914L444.73438 59.697914L444.73438 60.635414Q445.09375 59.979164 445.39062 59.77604Q445.70312 59.55729 446.07812 59.55729Q446.60938 59.55729 447.15625 59.885414L446.79688 60.86979Q446.40625 60.635414 446.03125 60.635414Q445.67188 60.635414 445.39062 60.854164Q445.125 61.05729 445.01562 61.43229Q444.82812 61.99479 444.82812 62.65104L444.82812 65.916664L443.78125 65.916664ZM448.76562 65.916664L447.78125 65.916664L447.78125 57.322914L448.84375 57.322914L448.84375 60.385414Q449.51562 59.55729 450.54688 59.55729Q451.125 59.55729 451.625 59.791664Q452.14062 60.010414 452.46875 60.43229Q452.8125 60.854164 453.0 61.447914Q453.1875 62.041664 453.1875 62.71354Q453.1875 64.30729 452.39062 65.18229Q451.59375 66.05729 450.5 66.05729Q449.39062 66.05729 448.76562 65.135414L448.76562 65.916664ZM448.75 62.760414Q448.75 63.86979 449.0625 64.36979Q449.5625 65.18229 450.40625 65.18229Q451.09375 65.18229 451.59375 64.58854Q452.10938 63.99479 452.10938 62.791664Q452.10938 61.572914 451.625 60.99479Q451.14062 60.416664 450.45312 60.416664Q449.76562 60.416664 449.25 61.02604Q448.75 61.61979 448.75 62.760414ZM454.40625 62.80729Q454.40625 61.072914 455.35938 60.24479Q456.15625 59.55729 457.3125 59.55729Q458.59375 59.55729 459.40625 60.40104Q460.23438 61.229164 460.23438 62.71354Q460.23438 63.916664 459.875 64.604164Q459.51562 65.291664 458.8125 65.68229Q458.125 66.05729 457.3125 66.05729Q456.01562 66.05729 455.20312 65.229164Q454.40625 64.385414 454.40625 62.80729ZM455.48438 62.80729Q455.48438 63.99479 456.0 64.58854Q456.53125 65.18229 457.3125 65.18229Q458.10938 65.18229 458.625 64.58854Q459.14062 63.99479 459.14062 62.77604Q459.14062 61.61979 458.60938 61.02604Q458.09375 60.43229 457.3125 60.43229Q456.53125 60.43229 456.0 61.02604Q455.48438 61.604164 455.48438 62.80729ZM461.98438 65.916664L461.98438 57.322914L467.78125 57.322914L467.78125 58.33854L463.125 58.33854L463.125 60.99479L467.15625 60.99479L467.15625 62.010414L463.125 62.010414L463.125 65.916664L461.98438 65.916664ZM472.85938 65.15104Q472.26562 65.65104 471.71875 65.854164Q471.1875 66.05729 470.5625 66.05729Q469.53125 66.05729 468.98438 65.55729Q468.4375 65.05729 468.4375 64.27604Q468.4375 63.822914 468.64062 63.447914Q468.84375 63.05729 469.1875 62.83854Q469.53125 62.604164 469.95312 62.49479Q470.25 62.40104 470.89062 62.322914Q472.15625 62.18229 472.76562 61.96354Q472.76562 61.74479 472.76562 61.697914Q472.76562 61.041664 472.46875 60.77604Q472.0625 60.43229 471.26562 60.43229Q470.53125 60.43229 470.17188 60.697914Q469.8125 60.947914 469.64062 61.604164L468.60938 61.46354Q468.75 60.80729 469.07812 60.40104Q469.40625 59.99479 470.01562 59.77604Q470.625 59.55729 471.42188 59.55729Q472.21875 59.55729 472.71875 59.74479Q473.21875 59.93229 473.45312 60.21354Q473.6875 60.49479 473.78125 60.93229Q473.82812 61.197914 473.82812 61.90104L473.82812 63.30729Q473.82812 64.77604 473.89062 65.166664Q473.96875 65.55729 474.17188 65.916664L473.0625 65.916664Q472.90625 65.58854 472.85938 65.15104ZM472.76562 62.791664Q472.1875 63.02604 471.04688 63.197914Q470.39062 63.291664 470.125 63.416664Q469.85938 63.52604 469.70312 63.74479Q469.5625 63.96354 469.5625 64.24479Q469.5625 64.666664 469.875 64.947914Q470.20312 65.229164 470.8125 65.229164Q471.42188 65.229164 471.89062 64.96354Q472.375 64.697914 472.59375 64.229164Q472.76562 63.86979 472.76562 63.18229L472.76562 62.791664ZM475.79688 65.916664L475.79688 59.697914L476.73438 59.697914L476.73438 60.572914Q477.42188 59.55729 478.71875 59.55729Q479.28125 59.55729 479.75 59.760414Q480.23438 59.96354 480.46875 60.291664Q480.70312 60.61979 480.79688 61.05729Q480.84375 61.354164 480.84375 62.08854L480.84375 65.916664L479.79688 65.916664L479.79688 62.135414Q479.79688 61.479164 479.67188 61.166664Q479.54688 60.854164 479.23438 60.666664Q478.92188 60.46354 478.5 60.46354Q477.82812 60.46354 477.32812 60.90104Q476.84375 61.322914 476.84375 62.510414L476.84375 65.916664L475.79688 65.916664ZM485.54688 63.15104L486.60938 63.05729Q486.6875 63.71354 486.96875 64.11979Q487.25 64.52604 487.82812 64.791664Q488.42188 65.041664 489.15625 65.041664Q489.79688 65.041664 490.29688 64.854164Q490.79688 64.65104 491.03125 64.322914Q491.28125 63.979164 491.28125 63.58854Q491.28125 63.18229 491.04688 62.885414Q490.8125 62.572914 490.28125 62.36979Q489.92188 62.229164 488.73438 61.947914Q487.5625 61.666664 487.09375 61.416664Q486.46875 61.08854 486.17188 60.61979Q485.875 60.135414 485.875 59.541664Q485.875 58.90104 486.23438 58.33854Q486.60938 57.760414 487.3125 57.479164Q488.03125 57.18229 488.89062 57.18229Q489.84375 57.18229 490.57812 57.49479Q491.3125 57.791664 491.70312 58.40104Q492.09375 58.99479 492.125 59.74479L491.03125 59.822914Q490.9375 59.010414 490.42188 58.604164Q489.92188 58.18229 488.9375 58.18229Q487.90625 58.18229 487.4375 58.55729Q486.96875 58.93229 486.96875 59.46354Q486.96875 59.93229 487.29688 60.229164Q487.625 60.52604 489.0 60.83854Q490.39062 61.15104 490.90625 61.385414Q491.65625 61.74479 492.01562 62.27604Q492.375 62.791664 492.375 63.49479Q492.375 64.18229 491.98438 64.791664Q491.59375 65.385414 490.85938 65.729164Q490.125 66.05729 489.20312 66.05729Q488.03125 66.05729 487.23438 65.729164Q486.45312 65.385414 486.0 64.697914Q485.5625 64.010414 485.54688 63.15104ZM494.125 65.916664L494.125 57.322914L495.25 57.322914L495.25 65.916664L494.125 65.916664ZM496.89062 65.916664L496.89062 57.322914L498.60938 57.322914L500.64062 63.40104Q500.92188 64.260414 501.04688 64.68229Q501.1875 64.21354 501.5 63.30729L503.5625 57.322914L505.09375 57.322914L505.09375 65.916664L504.0 65.916664L504.0 58.729164L501.5 65.916664L500.46875 65.916664L497.98438 58.604164L497.98438 65.916664L496.89062 65.916664ZM506.92188 65.916664L506.92188 57.322914L509.89062 57.322914Q510.89062 57.322914 511.42188 57.447914Q512.15625 57.61979 512.6719 58.05729Q513.3594 58.635414 513.6875 59.541664Q514.03125 60.43229 514.03125 61.572914Q514.03125 62.55729 513.7969 63.30729Q513.5781 64.05729 513.21875 64.55729Q512.8594 65.05729 512.4219 65.33854Q512.0 65.61979 511.40625 65.77604Q510.8125 65.916664 510.03125 65.916664L506.92188 65.916664ZM508.0625 64.90104L509.89062 64.90104Q510.75 64.90104 511.23438 64.74479Q511.71875 64.58854 512.0 64.291664Q512.40625 63.90104 512.625 63.21354Q512.8594 62.52604 512.8594 61.55729Q512.8594 60.21354 512.40625 59.49479Q511.96875 58.760414 511.34375 58.510414Q510.875 58.33854 509.875 58.33854L508.0625 58.33854L508.0625 64.90104Z" fill-rule="nonzero"/><path fill="#757575" d="M19.45625 32.95625L21.2375 32.8Q21.3625 33.8625 21.815624 34.55Q22.284374 35.2375 23.253124 35.675Q24.2375 36.096874 25.471874 36.096874Q26.55 36.096874 27.378124 35.784374Q28.20625 35.45625 28.6125 34.89375Q29.01875 34.33125 29.01875 33.659374Q29.01875 32.9875 28.628124 32.4875Q28.2375 31.9875 27.346874 31.64375Q26.76875 31.409374 24.784374 30.940624Q22.815624 30.471874 22.034374 30.05Q21.003124 29.51875 20.503124 28.721874Q20.003124 27.925 20.003124 26.940624Q20.003124 25.846874 20.6125 24.909374Q21.221874 23.971874 22.409374 23.4875Q23.596874 22.9875 25.034374 22.9875Q26.628124 22.9875 27.846874 23.503124Q29.065624 24.01875 29.70625 25.01875Q30.3625 26.003124 30.409374 27.26875L28.596874 27.409374Q28.45625 26.05 27.6125 25.3625Q26.76875 24.659374 25.1125 24.659374Q23.39375 24.659374 22.596874 25.3Q21.815624 25.925 21.815624 26.8Q21.815624 27.58125 22.378124 28.08125Q22.925 28.58125 25.2375 29.096874Q27.55 29.6125 28.409374 30.003124Q29.659374 30.58125 30.253124 31.471874Q30.846874 32.346874 30.846874 33.503124Q30.846874 34.64375 30.190624 35.659374Q29.534374 36.675 28.3 37.2375Q27.08125 37.8 25.55 37.8Q23.6125 37.8 22.3 37.2375Q20.9875 36.659374 20.2375 35.51875Q19.4875 34.378124 19.45625 32.95625ZM32.8625 41.51875L32.8625 27.175L34.471874 27.175L34.471874 28.51875Q35.034374 27.7375 35.7375 27.346874Q36.45625 26.940624 37.471874 26.940624Q38.8 26.940624 39.815624 27.628124Q40.83125 28.315624 41.346874 29.565624Q41.878124 30.8 41.878124 32.284374Q41.878124 33.878124 41.3 35.159374Q40.7375 36.425 39.64375 37.1125Q38.55 37.784374 37.346874 37.784374Q36.471874 37.784374 35.76875 37.409374Q35.08125 37.034374 34.628124 36.471874L34.628124 41.51875L32.8625 41.51875ZM34.45625 32.425Q34.45625 34.425 35.26875 35.378124Q36.08125 36.33125 37.2375 36.33125Q38.409374 36.33125 39.2375 35.346874Q40.08125 34.3625 40.08125 32.26875Q40.08125 30.3 39.253124 29.315624Q38.440624 28.315624 37.315624 28.315624Q36.190624 28.315624 35.315624 29.378124Q34.45625 30.425 34.45625 32.425ZM50.971874 34.20625L52.784374 34.440624Q52.3625 36.01875 51.190624 36.909374Q50.034374 37.784374 48.221874 37.784374Q45.95625 37.784374 44.6125 36.39375Q43.284374 34.9875 43.284374 32.45625Q43.284374 29.83125 44.628124 28.39375Q45.971874 26.940624 48.128124 26.940624Q50.20625 26.940624 51.51875 28.3625Q52.846874 29.76875 52.846874 32.346874Q52.846874 32.503124 52.83125 32.815624L45.096874 32.815624Q45.190624 34.51875 46.065624 35.425Q46.940624 36.33125 48.2375 36.33125Q49.20625 36.33125 49.878124 35.83125Q50.565624 35.315624 50.971874 34.20625ZM45.190624 31.3625L50.9875 31.3625Q50.878124 30.065624 50.33125 29.409374Q49.4875 28.39375 48.14375 28.39375Q46.940624 28.39375 46.1125 29.20625Q45.284374 30.003124 45.190624 31.3625ZM61.971874 34.20625L63.784374 34.440624Q63.3625 36.01875 62.190624 36.909374Q61.034374 37.784374 59.221874 37.784374Q56.95625 37.784374 55.6125 36.39375Q54.284374 34.9875 54.284374 32.45625Q54.284374 29.83125 55.628124 28.39375Q56.971874 26.940624 59.128124 26.940624Q61.20625 26.940624 62.51875 28.3625Q63.846874 29.76875 63.846874 32.346874Q63.846874 32.503124 63.83125 32.815624L56.096874 32.815624Q56.190624 34.51875 57.065624 35.425Q57.940624 36.33125 59.2375 36.33125Q60.20625 36.33125 60.878124 35.83125Q61.565624 35.315624 61.971874 34.20625ZM56.190624 31.3625L61.9875 31.3625Q61.878124 30.065624 61.33125 29.409374Q60.4875 28.39375 59.14375 28.39375Q57.940624 28.39375 57.1125 29.20625Q56.284374 30.003124 56.190624 31.3625ZM72.59688 37.55L72.59688 36.2375Q71.6125 37.784374 69.69063 37.784374Q68.45625 37.784374 67.40938 37.096874Q66.37813 36.409374 65.8 35.190624Q65.2375 33.971874 65.2375 32.378124Q65.2375 30.815624 65.75313 29.55Q66.26875 28.284374 67.3 27.6125Q68.34688 26.940624 69.6125 26.940624Q70.55 26.940624 71.28438 27.346874Q72.01875 27.7375 72.4875 28.3625L72.4875 23.2375L74.22188 23.2375L74.22188 37.55L72.59688 37.55ZM67.03438 32.378124Q67.03438 34.3625 67.87813 35.346874Q68.72188 36.33125 69.8625 36.33125Q71.01875 36.33125 71.81563 35.39375Q72.62813 34.45625 72.62813 32.51875Q72.62813 30.39375 71.8 29.39375Q70.9875 28.39375 69.78438 28.39375Q68.6125 28.39375 67.81563 29.3625Q67.03438 30.315624 67.03438 32.378124ZM83.65938 37.55L83.65938 36.01875Q82.45625 37.784374 80.37813 37.784374Q79.45625 37.784374 78.65938 37.440624Q77.8625 37.08125 77.47188 36.55Q77.09688 36.01875 76.94063 35.2375Q76.83125 34.721874 76.83125 33.596874L76.83125 27.175L78.58125 27.175L78.58125 32.925Q78.58125 34.3 78.69063 34.784374Q78.8625 35.471874 79.39375 35.878124Q79.94063 36.26875 80.72188 36.26875Q81.51875 36.26875 82.20625 35.8625Q82.90938 35.45625 83.19063 34.76875Q83.4875 34.065624 83.4875 32.7375L83.4875 27.175L85.2375 27.175L85.2375 37.55L83.65938 37.55ZM87.8625 41.51875L87.8625 27.175L89.47188 27.175L89.47188 28.51875Q90.03438 27.7375 90.7375 27.346874Q91.45625 26.940624 92.47188 26.940624Q93.8 26.940624 94.81563 27.628124Q95.83125 28.315624 96.34688 29.565624Q96.87813 30.8 96.87813 32.284374Q96.87813 33.878124 96.3 35.159374Q95.7375 36.425 94.64375 37.1125Q93.55 37.784374 92.34688 37.784374Q91.47188 37.784374 90.76875 37.409374Q90.08125 37.034374 89.62813 36.471874L89.62813 41.51875L87.8625 41.51875ZM89.45625 32.425Q89.45625 34.425 90.26875 35.378124Q91.08125 36.33125 92.2375 36.33125Q93.40938 36.33125 94.2375 35.346874Q95.08125 34.3625 95.08125 32.26875Q95.08125 30.3 94.25313 29.315624Q93.44063 28.315624 92.31563 28.315624Q91.19063 28.315624 90.31563 29.378124Q89.45625 30.425 89.45625 32.425ZM108.22188 41.753124Q106.76875 39.925 105.76875 37.471874Q104.76875 35.003124 104.76875 32.3625Q104.76875 30.034374 105.51875 27.909374Q106.39375 25.440624 108.22188 22.9875L109.4875 22.9875Q108.3 25.01875 107.925 25.89375Q107.33125 27.2375 106.9875 28.70625Q106.56563 30.534374 106.56563 32.378124Q106.56563 37.065624 109.4875 41.753124L108.22188 41.753124ZM111.8625 37.55L111.8625 27.175L113.45625 27.175L113.45625 28.659374Q114.59688 26.940624 116.75313 26.940624Q117.69063 26.940624 118.47188 27.284374Q119.26875 27.6125 119.65938 28.159374Q120.05 28.70625 120.20625 29.45625Q120.3 29.95625 120.3 31.175L120.3 37.55L118.53438 37.55L118.53438 31.2375Q118.53438 30.159374 118.33125 29.628124Q118.12813 29.096874 117.59688 28.784374Q117.08125 28.471874 116.37813 28.471874Q115.25313 28.471874 114.44063 29.190624Q113.62813 29.89375 113.62813 31.878124L113.62813 37.55L111.8625 37.55ZM122.22188 32.3625Q122.22188 29.4875 123.81563 28.096874Q125.15938 26.940624 127.08125 26.940624Q129.22188 26.940624 130.56563 28.346874Q131.925 29.753124 131.925 32.221874Q131.925 34.221874 131.33125 35.378124Q130.7375 36.51875 129.58125 37.159374Q128.44063 37.784374 127.08125 37.784374Q124.89375 37.784374 123.55 36.39375Q122.22188 34.9875 122.22188 32.3625ZM124.01875 32.3625Q124.01875 34.3625 124.87813 35.346874Q125.75313 36.33125 127.08125 36.33125Q128.39375 36.33125 129.25313 35.346874Q130.12813 34.346874 130.12813 32.3Q130.12813 30.378124 129.25313 29.39375Q128.37813 28.39375 127.08125 28.39375Q125.75313 28.39375 124.87813 29.39375Q124.01875 30.378124 124.01875 32.3625ZM133.84688 37.55L133.84688 27.175L135.425 27.175L135.425 28.753124Q136.03438 27.64375 136.55 27.3Q137.06563 26.940624 137.675 26.940624Q138.56563 26.940624 139.4875 27.503124L138.87813 29.14375Q138.2375 28.753124 137.59688 28.753124Q137.01875 28.753124 136.55 29.1125Q136.09688 29.45625 135.89375 30.065624Q135.6125 31.003124 135.6125 32.1125L135.6125 37.55L133.84688 37.55ZM140.8625 37.55L140.8625 27.175L142.44063 27.175L142.44063 28.628124Q142.925 27.878124 143.7375 27.409374Q144.55 26.940624 145.58125 26.940624Q146.7375 26.940624 147.47188 27.425Q148.20625 27.89375 148.51875 28.753124Q149.75313 26.940624 151.72188 26.940624Q153.26875 26.940624 154.09688 27.8Q154.925 28.659374 154.925 30.425L154.925 37.55L153.175 37.55L153.175 31.01875Q153.175 29.95625 153.00313 29.503124Q152.83125 29.034374 152.37813 28.753124Q151.94063 28.471874 151.33125 28.471874Q150.2375 28.471874 149.50313 29.20625Q148.78438 29.925 148.78438 31.51875L148.78438 37.55L147.03438 37.55L147.03438 30.815624Q147.03438 29.64375 146.59688 29.065624Q146.175 28.471874 145.19063 28.471874Q144.45625 28.471874 143.81563 28.8625Q143.19063 29.253124 142.90938 30.003124Q142.62813 30.753124 142.62813 32.175L142.62813 37.55L140.8625 37.55ZM164.64375 36.26875Q163.65938 37.096874 162.75313 37.440624Q161.84688 37.784374 160.81563 37.784374Q159.1125 37.784374 158.19063 36.95625Q157.26875 36.1125 157.26875 34.815624Q157.26875 34.05 157.6125 33.425Q157.97188 32.8 158.53438 32.425Q159.09688 32.034374 159.8 31.83125Q160.31563 31.70625 161.3625 31.565624Q163.4875 31.315624 164.4875 30.971874Q164.50313 30.6125 164.50313 30.503124Q164.50313 29.440624 164.00313 28.9875Q163.33125 28.39375 162.00313 28.39375Q160.75313 28.39375 160.15938 28.83125Q159.58125 29.26875 159.3 30.378124L157.58125 30.14375Q157.81563 29.034374 158.34688 28.3625Q158.87813 27.675 159.89375 27.315624Q160.90938 26.940624 162.25313 26.940624Q163.58125 26.940624 164.40938 27.253124Q165.2375 27.565624 165.62813 28.05Q166.01875 28.51875 166.175 29.2375Q166.26875 29.690624 166.26875 30.8625L166.26875 33.20625Q166.26875 35.659374 166.37813 36.315624Q166.4875 36.95625 166.83125 37.55L164.9875 37.55Q164.72188 37.003124 164.64375 36.26875ZM164.4875 32.346874Q163.53438 32.7375 161.6125 33.003124Q160.53438 33.159374 160.08125 33.3625Q159.64375 33.55 159.39375 33.925Q159.14375 34.3 159.14375 34.76875Q159.14375 35.471874 159.675 35.940624Q160.20625 36.409374 161.2375 36.409374Q162.25313 36.409374 163.03438 35.971874Q163.83125 35.51875 164.20625 34.753124Q164.4875 34.14375 164.4875 32.9875L164.4875 32.346874ZM168.83125 37.55L168.83125 23.2375L170.58125 23.2375L170.58125 37.55L168.83125 37.55ZM172.87813 25.253124L172.87813 23.2375L174.64375 23.2375L174.64375 25.253124L172.87813 25.253124ZM172.87813 37.55L172.87813 27.175L174.64375 27.175L174.64375 37.55L172.87813 37.55ZM175.94063 37.55L175.94063 36.128124L182.55 28.55Q181.425 28.596874 180.56563 28.596874L176.33125 28.596874L176.33125 27.175L184.81563 27.175L184.81563 28.346874L179.19063 34.925L178.1125 36.128124Q179.28438 36.034374 180.33125 36.034374L185.12813 36.034374L185.12813 37.55L175.94063 37.55ZM193.97188 34.20625L195.78438 34.440624Q195.3625 36.01875 194.19063 36.909374Q193.03438 37.784374 191.22188 37.784374Q188.95625 37.784374 187.6125 36.39375Q186.28438 34.9875 186.28438 32.45625Q186.28438 29.83125 187.62813 28.39375Q188.97188 26.940624 191.12813 26.940624Q193.20625 26.940624 194.51875 28.3625Q195.84688 29.76875 195.84688 32.346874Q195.84688 32.503124 195.83125 32.815624L188.09688 32.815624Q188.19063 34.51875 189.06563 35.425Q189.94063 36.33125 191.2375 36.33125Q192.20625 36.33125 192.87813 35.83125Q193.56563 35.315624 193.97188 34.20625ZM188.19063 31.3625L193.9875 31.3625Q193.87813 30.065624 193.33125 29.409374Q192.4875 28.39375 191.14375 28.39375Q189.94063 28.39375 189.1125 29.20625Q188.28438 30.003124 188.19063 31.3625ZM204.59688 37.55L204.59688 36.2375Q203.6125 37.784374 201.69063 37.784374Q200.45625 37.784374 199.40938 37.096874Q198.37813 36.409374 197.8 35.190624Q197.2375 33.971874 197.2375 32.378124Q197.2375 30.815624 197.75313 29.55Q198.26875 28.284374 199.3 27.6125Q200.34688 26.940624 201.6125 26.940624Q202.55 26.940624 203.28438 27.346874Q204.01875 27.7375 204.4875 28.3625L204.4875 23.2375L206.22188 23.2375L206.22188 37.55L204.59688 37.55ZM199.03438 32.378124Q199.03438 34.3625 199.87813 35.346874Q200.72188 36.33125 201.8625 36.33125Q203.01875 36.33125 203.81563 35.39375Q204.62813 34.45625 204.62813 32.51875Q204.62813 30.39375 203.8 29.39375Q202.9875 28.39375 201.78438 28.39375Q200.6125 28.39375 199.81563 29.3625Q199.03438 30.315624 199.03438 32.378124ZM218.70625 35.971874L218.95625 37.534374Q218.22188 37.690624 217.62813 37.690624Q216.675 37.690624 216.14375 37.39375Q215.62813 37.08125 215.40938 36.596874Q215.19063 36.096874 215.19063 34.51875L215.19063 28.55L213.90938 28.55L213.90938 27.175L215.19063 27.175L215.19063 24.6125L216.94063 23.55L216.94063 27.175L218.70625 27.175L218.70625 28.55L216.94063 28.55L216.94063 34.6125Q216.94063 35.3625 217.03438 35.58125Q217.12813 35.784374 217.33125 35.925Q217.55 36.05 217.94063 36.05Q218.22188 36.05 218.70625 35.971874ZM220.22188 32.3625Q220.22188 29.4875 221.81563 28.096874Q223.15938 26.940624 225.08125 26.940624Q227.22188 26.940624 228.56563 28.346874Q229.925 29.753124 229.925 32.221874Q229.925 34.221874 229.33125 35.378124Q228.7375 36.51875 227.58125 37.159374Q226.44063 37.784374 225.08125 37.784374Q222.89375 37.784374 221.55 36.39375Q220.22188 34.9875 220.22188 32.3625ZM222.01875 32.3625Q222.01875 34.3625 222.87813 35.346874Q223.75313 36.33125 225.08125 36.33125Q226.39375 36.33125 227.25313 35.346874Q228.12813 34.346874 228.12813 32.3Q228.12813 30.378124 227.25313 29.39375Q226.37813 28.39375 225.08125 28.39375Q223.75313 28.39375 222.87813 29.39375Q222.01875 30.378124 222.01875 32.3625ZM238.01875 37.55L238.01875 23.2375L239.90938 23.2375L239.90938 35.8625L246.95625 35.8625L246.95625 37.55L238.01875 37.55ZM248.87813 25.253124L248.87813 23.2375L250.64375 23.2375L250.64375 25.253124L248.87813 25.253124ZM248.87813 37.55L248.87813 27.175L250.64375 27.175L250.64375 37.55L248.87813 37.55ZM253.28438 37.55L253.28438 28.55L251.7375 28.55L251.7375 27.175L253.28438 27.175L253.28438 26.08125Q253.28438 25.034374 253.47188 24.51875Q253.72188 23.83125 254.3625 23.409374Q255.00313 22.9875 256.15936 22.9875Q256.90936 22.9875 257.8 23.159374L257.53436 24.690624Q256.9875 24.596874 256.5031 24.596874Q255.70625 24.596874 255.3625 24.940624Q255.03438 25.284374 255.03438 26.221874L255.03438 27.175L257.0656 27.175L257.0656 28.55L255.03438 28.55L255.03438 37.55L253.28438 37.55ZM262.70624 35.971874L262.95624 37.534374Q262.22186 37.690624 261.6281 37.690624Q260.675 37.690624 260.14374 37.39375Q259.6281 37.08125 259.40936 36.596874Q259.1906 36.096874 259.1906 34.51875L259.1906 28.55L257.90936 28.55L257.90936 27.175L259.1906 27.175L259.1906 24.6125L260.9406 23.55L260.9406 27.175L262.70624 27.175L262.70624 28.55L260.9406 28.55L260.9406 34.6125Q260.9406 35.3625 261.03436 35.58125Q261.1281 35.784374 261.33124 35.925Q261.55 36.05 261.9406 36.05Q262.22186 36.05 262.70624 35.971874ZM264.22186 32.3625Q264.22186 29.4875 265.8156 28.096874Q267.15936 26.940624 269.08124 26.940624Q271.22186 26.940624 272.5656 28.346874Q273.925 29.753124 273.925 32.221874Q273.925 34.221874 273.33124 35.378124Q272.7375 36.51875 271.58124 37.159374Q270.4406 37.784374 269.08124 37.784374Q266.89374 37.784374 265.55 36.39375Q264.22186 34.9875 264.22186 32.3625ZM266.01874 32.3625Q266.01874 34.3625 266.8781 35.346874Q267.7531 36.33125 269.08124 36.33125Q270.39374 36.33125 271.2531 35.346874Q272.1281 34.346874 272.1281 32.3Q272.1281 30.378124 271.2531 29.39375Q270.3781 28.39375 269.08124 28.39375Q267.7531 28.39375 266.8781 29.39375Q266.01874 30.378124 266.01874 32.3625ZM276.28436 37.55L276.28436 28.55L274.7375 28.55L274.7375 27.175L276.28436 27.175L276.28436 26.08125Q276.28436 25.034374 276.47186 24.51875Q276.72186 23.83125 277.3625 23.409374Q278.0031 22.9875 279.15936 22.9875Q279.90936 22.9875 280.8 23.159374L280.53436 24.690624Q279.9875 24.596874 279.5031 24.596874Q278.70624 24.596874 278.3625 24.940624Q278.03436 25.284374 278.03436 26.221874L278.03436 27.175L280.0656 27.175L280.0656 28.55L278.03436 28.55L278.03436 37.55L276.28436 37.55ZM282.28436 37.55L282.28436 28.55L280.7375 28.55L280.7375 27.175L282.28436 27.175L282.28436 26.08125Q282.28436 25.034374 282.47186 24.51875Q282.72186 23.83125 283.3625 23.409374Q284.0031 22.9875 285.15936 22.9875Q285.90936 22.9875 286.8 23.159374L286.53436 24.690624Q285.9875 24.596874 285.5031 24.596874Q284.70624 24.596874 284.3625 24.940624Q284.03436 25.284374 284.03436 26.221874L284.03436 27.175L286.0656 27.175L286.0656 28.55L284.03436 28.55L284.03436 37.55L282.28436 37.55ZM293.15936 34.45625L294.90936 34.175Q295.05 35.221874 295.72186 35.784374Q296.39374 36.33125 297.59686 36.33125Q298.8 36.33125 299.3781 35.846874Q299.97186 35.346874 299.97186 34.690624Q299.97186 34.096874 299.45624 33.753124Q299.09686 33.51875 297.65936 33.159374Q295.72186 32.659374 294.97186 32.315624Q294.2375 31.95625 293.84686 31.33125Q293.45624 30.690624 293.45624 29.925Q293.45624 29.2375 293.76874 28.64375Q294.09686 28.05 294.64374 27.659374Q295.05 27.3625 295.7531 27.159374Q296.47186 26.940624 297.28436 26.940624Q298.5031 26.940624 299.425 27.3Q300.34686 27.64375 300.78436 28.253124Q301.22186 28.846874 301.39374 29.846874L299.675 30.08125Q299.55 29.284374 298.9875 28.846874Q298.425 28.39375 297.40936 28.39375Q296.1906 28.39375 295.675 28.8Q295.15936 29.190624 295.15936 29.721874Q295.15936 30.065624 295.3781 30.346874Q295.58124 30.628124 296.05 30.815624Q296.3156 30.909374 297.59686 31.253124Q299.47186 31.753124 300.20624 32.08125Q300.9406 32.39375 301.3625 33.003124Q301.78436 33.596874 301.78436 34.503124Q301.78436 35.378124 301.26874 36.159374Q300.7531 36.940624 299.78436 37.3625Q298.8156 37.784374 297.59686 37.784374Q295.58124 37.784374 294.51874 36.940624Q293.45624 36.096874 293.15936 34.45625ZM310.64374 33.753124L312.3625 33.971874Q312.08124 35.76875 310.90936 36.784374Q309.7531 37.784374 308.05 37.784374Q305.925 37.784374 304.6281 36.39375Q303.33124 35.003124 303.33124 32.409374Q303.33124 30.721874 303.8781 29.471874Q304.4406 28.20625 305.58124 27.58125Q306.72186 26.940624 308.0656 26.940624Q309.7531 26.940624 310.8156 27.8Q311.89374 28.659374 312.20624 30.221874L310.4875 30.4875Q310.2531 29.440624 309.6281 28.925Q309.0031 28.39375 308.1281 28.39375Q306.8 28.39375 305.97186 29.346874Q305.14374 30.3 305.14374 32.346874Q305.14374 34.440624 305.9406 35.39375Q306.7375 36.33125 308.03436 36.33125Q309.0656 36.33125 309.7531 35.70625Q310.45624 35.065624 310.64374 33.753124ZM320.64374 36.26875Q319.65936 37.096874 318.7531 37.440624Q317.84686 37.784374 316.8156 37.784374Q315.1125 37.784374 314.1906 36.95625Q313.26874 36.1125 313.26874 34.815624Q313.26874 34.05 313.6125 33.425Q313.97186 32.8 314.53436 32.425Q315.09686 32.034374 315.8 31.83125Q316.3156 31.70625 317.3625 31.565624Q319.4875 31.315624 320.4875 30.971874Q320.5031 30.6125 320.5031 30.503124Q320.5031 29.440624 320.0031 28.9875Q319.33124 28.39375 318.0031 28.39375Q316.7531 28.39375 316.15936 28.83125Q315.58124 29.26875 315.3 30.378124L313.58124 30.14375Q313.8156 29.034374 314.34686 28.3625Q314.8781 27.675 315.89374 27.315624Q316.90936 26.940624 318.2531 26.940624Q319.58124 26.940624 320.40936 27.253124Q321.2375 27.565624 321.6281 28.05Q322.01874 28.51875 322.175 29.2375Q322.26874 29.690624 322.26874 30.8625L322.26874 33.20625Q322.26874 35.659374 322.3781 36.315624Q322.4875 36.95625 322.83124 37.55L320.9875 37.55Q320.72186 37.003124 320.64374 36.26875ZM320.4875 32.346874Q319.53436 32.7375 317.6125 33.003124Q316.53436 33.159374 316.08124 33.3625Q315.64374 33.55 315.39374 33.925Q315.14374 34.3 315.14374 34.76875Q315.14374 35.471874 315.675 35.940624Q316.20624 36.409374 317.2375 36.409374Q318.2531 36.409374 319.03436 35.971874Q319.83124 35.51875 320.20624 34.753124Q320.4875 34.14375 320.4875 32.9875L320.4875 32.346874ZM324.83124 37.55L324.83124 23.2375L326.58124 23.2375L326.58124 37.55L324.83124 37.55ZM335.64374 36.26875Q334.65936 37.096874 333.7531 37.440624Q332.84686 37.784374 331.8156 37.784374Q330.1125 37.784374 329.1906 36.95625Q328.26874 36.1125 328.26874 34.815624Q328.26874 34.05 328.6125 33.425Q328.97186 32.8 329.53436 32.425Q330.09686 32.034374 330.8 31.83125Q331.3156 31.70625 332.3625 31.565624Q334.4875 31.315624 335.4875 30.971874Q335.5031 30.6125 335.5031 30.503124Q335.5031 29.440624 335.0031 28.9875Q334.33124 28.39375 333.0031 28.39375Q331.7531 28.39375 331.15936 28.83125Q330.58124 29.26875 330.3 30.378124L328.58124 30.14375Q328.8156 29.034374 329.34686 28.3625Q329.8781 27.675 330.89374 27.315624Q331.90936 26.940624 333.2531 26.940624Q334.58124 26.940624 335.40936 27.253124Q336.2375 27.565624 336.6281 28.05Q337.01874 28.51875 337.175 29.2375Q337.26874 29.690624 337.26874 30.8625L337.26874 33.20625Q337.26874 35.659374 337.3781 36.315624Q337.4875 36.95625 337.83124 37.55L335.9875 37.55Q335.72186 37.003124 335.64374 36.26875ZM335.4875 32.346874Q334.53436 32.7375 332.6125 33.003124Q331.53436 33.159374 331.08124 33.3625Q330.64374 33.55 330.39374 33.925Q330.14374 34.3 330.14374 34.76875Q330.14374 35.471874 330.675 35.940624Q331.20624 36.409374 332.2375 36.409374Q333.2531 36.409374 334.03436 35.971874Q334.83124 35.51875 335.20624 34.753124Q335.4875 34.14375 335.4875 32.9875L335.4875 32.346874ZM339.84686 37.55L339.84686 27.175L341.425 27.175L341.425 28.753124Q342.03436 27.64375 342.55 27.3Q343.0656 26.940624 343.675 26.940624Q344.5656 26.940624 345.4875 27.503124L344.8781 29.14375Q344.2375 28.753124 343.59686 28.753124Q343.01874 28.753124 342.55 29.1125Q342.09686 29.45625 341.89374 30.065624Q341.6125 31.003124 341.6125 32.1125L341.6125 37.55L339.84686 37.55ZM348.01874 41.753124L346.76874 41.753124Q349.675 37.065624 349.675 32.378124Q349.675 30.534374 349.26874 28.7375Q348.925 27.26875 348.33124 25.925Q347.95624 25.034374 346.76874 22.9875L348.01874 22.9875Q349.8625 25.440624 350.7375 27.909374Q351.4875 30.034374 351.4875 32.3625Q351.4875 35.003124 350.47186 37.471874Q349.47186 39.925 348.01874 41.753124Z" fill-rule="nonzero"/></svg>