<svg fill="none" stroke-linecap="square" stroke-miterlimit="10" viewBox="0 0 960 540" xmlns="http://www.w3.org/2000/svg" xmlns:xlink="http://www.w3.org/1999/xlink"><clipPath id="a"><path d="m0 0h960v540h-960z"/></clipPath><g clip-path="url(#a)"><path d="m0 0h960v540h-960z" fill="#fff" fill-rule="evenodd"/><path d="m28.603 83.185h252.14v74.726h-252.139z" fill="#eee" fill-rule="evenodd"/><path d="m28.603 83.185h252.14v74.726h-252.139z" stroke="#595959" stroke-linecap="butt" stroke-linejoin="round"/><path d="m74.197 121.8v3.828h-2.015v-10.422h3.562q.86 0 1.547.25.688.25 1.172.687.484.438.734 1.063.266.61.266 1.36 0 .702-.266 1.296-.25.594-.734 1.031-.484.422-1.172.672-.687.235-1.547.235zm0-1.625h1.547q.438 0 .75-.125.313-.125.516-.344.219-.234.312-.516.11-.297.11-.609 0-.36-.11-.672-.093-.328-.312-.562-.203-.235-.516-.36-.312-.14-.75-.14h-1.547zm11.78 3.281h-3.125l-.625 2.172h-2.11l3.407-10.422h1.828l3.344 10.422h-2.11l-.61-2.172zm-2.64-1.719h2.171l-1.078-3.828-1.094 3.828zm13.544.625q-.046.797-.343 1.422-.282.625-.782 1.078-.484.438-1.156.688-.672.234-1.484.234-.922 0-1.64-.344-.72-.343-1.204-.953-.484-.61-.75-1.469-.25-.859-.25-1.89v-1.406q0-1.032.266-1.891.28-.86.78-1.469.5-.625 1.204-.953.719-.344 1.61-.344.859 0 1.53.25.673.235 1.141.688.469.437.735 1.094.28.656.359 1.468h-2.016q-.03-.468-.14-.812-.11-.36-.328-.578-.203-.235-.532-.36-.312-.125-.75-.125-.468 0-.812.203-.344.204-.578.594-.219.39-.328.953-.094.547-.094 1.266v1.422q0 1.531.422 2.281.437.734 1.375.734.797 0 1.25-.421.453-.422.5-1.36zm4.67-1.015-1.109 1.218v3.063h-2.015v-10.422h2.015v4.781l.953-1.281 2.532-3.5h2.453l-3.5 4.61 3.64 5.812h-2.39l-2.578-4.281zm12.093-.282h-4.282v2.938h5.016v1.625h-7.031v-10.422h7v1.64h-4.985v2.626h4.282zm2.342 4.563v-10.422h2.703q1.031 0 1.875.36.844.343 1.437.984.594.64.922 1.515.328.875.328 1.938v.86q0 1.046-.328 1.921t-.922 1.516q-.578.625-1.406.984-.812.344-1.812.344zm2.03-8.781v7.156h.767q.578 0 1.015-.203.453-.219.766-.625.312-.407.469-.985.171-.593.171-1.328v-.875q0-.703-.171-1.281-.157-.578-.485-.984-.312-.422-.781-.641-.469-.234-1.078-.234h-.672zm13.452 10.328h-6.515v-1.547h6.515zm7.561-4.266q0-.281-.094-.516-.093-.25-.328-.453-.234-.218-.61-.39-.374-.188-.937-.328-.671-.188-1.296-.47-.61-.28-1.094-.671-.469-.39-.75-.906-.281-.532-.281-1.219 0-.656.28-1.188.282-.53.766-.906.5-.39 1.172-.594.672-.203 1.453-.203.829 0 1.5.235.672.234 1.157.672.484.421.75 1.015.28.578.28 1.281h-1.952q-.016-.359-.125-.64-.11-.297-.328-.5-.22-.219-.547-.328-.328-.125-.766-.125-.406 0-.719.093-.296.094-.515.266-.219.172-.328.422-.11.234-.11.516 0 .296.14.53.157.235.423.423.281.187.672.343.406.157.906.297.719.203 1.312.516.61.297 1.032.703.437.406.672.938.25.53.25 1.171 0 .688-.282 1.22-.265.53-.75.905-.484.36-1.172.563-.671.187-1.453.187-.5 0-1-.093-.484-.094-.937-.282-.438-.187-.828-.453-.375-.28-.672-.656-.281-.375-.438-.844-.156-.468-.156-1.047h1.969q.015.47.156.813.156.328.422.547.281.219.656.328.375.094.828.094.39 0 .703-.094.313-.094.532-.25.218-.172.328-.406.11-.235.11-.516zm5.858-7.703.984 3.922 1.125-3.922h2.5v10.422h-1.844v-3.078l.079-4.875-1.36 4.515h-1l-1.219-4.328.079 4.688v3.078h-1.844v-10.422zm6.764 0h6.031v1.625h-2.031v7.172h2.031v1.625h-6.031v-1.625h1.984v-7.172h-1.984zm14.998 11.969h-6.516v-1.547h6.516zm8.56-6.11h-4.28v2.938h5.015v1.625h-7.031v-10.422h7v1.64h-4.984v2.626h4.28zm4.546 2.938h4.875v1.625h-6.89v-10.422h2.015zm13.045-2.938h-4.281v2.938h5.016v1.625h-7.032v-10.422h7v1.64h-4.984v2.626h4.281zm4.858-5.859.984 3.922 1.125-3.922h2.5v10.422h-1.843v-3.078l.078-4.875-1.36 4.515h-1l-1.218-4.328.078 4.688v3.078h-1.844v-10.422zm12.733 5.86h-4.282v2.937h5.016v1.625h-7.031v-10.422h7v1.64h-4.985v2.626h4.282v1.593zm9.264 4.562h-2.016l-2.89-6.719v6.719h-2.032v-10.422h2.031l2.875 6.687.016-6.687h2.016zm9.576-8.781h-3.219v8.78h-2.015v-8.78h-3.172v-1.641h8.406v1.64zm6.545 6.062q0-.281-.094-.516-.093-.25-.328-.453-.234-.218-.61-.39-.374-.188-.937-.328-.671-.188-1.296-.47-.61-.28-1.094-.671-.469-.39-.75-.906-.281-.532-.281-1.219 0-.656.28-1.188.282-.53.766-.906.5-.39 1.172-.594.672-.203 1.453-.203.829 0 1.5.235.672.234 1.157.672.484.421.75 1.015.28.578.28 1.281h-1.952q-.016-.359-.125-.64-.11-.297-.328-.5-.22-.219-.547-.328-.328-.125-.766-.125-.406 0-.719.093-.296.094-.515.266-.219.172-.328.422-.11.234-.11.516 0 .296.14.53.157.235.423.423.281.187.672.343.406.157.906.297.719.203 1.312.516.61.297 1.032.703.437.406.672.938.25.53.25 1.171 0 .688-.282 1.22-.265.53-.75.905-.484.36-1.172.563-.671.187-1.453.187-.5 0-1-.093-.484-.094-.937-.282-.438-.187-.828-.453-.375-.28-.672-.656-.281-.375-.438-.844-.156-.468-.156-1.047h1.969q.015.47.156.813.156.328.422.547.281.219.656.328.375.094.828.094.39 0 .703-.094.313-.094.532-.25.218-.172.328-.406.11-.235.11-.516z" fill="#000"/><path d="m28.603 232.637h252.14v74.726h-252.139z" fill="#eee" fill-rule="evenodd"/><path d="m28.603 232.637h252.14v74.726h-252.139z" stroke="#595959" stroke-linecap="butt" stroke-linejoin="round"/><path d="m83.33 275.08h-1.985v-4.515h-2.953v4.515h-2v-10.422h2v4.282h2.953v-4.282h1.984v10.422zm9.185-4.437q0 1-.266 1.843-.265.844-.765 1.454-.5.609-1.219.953-.719.328-1.61.328-.906 0-1.609-.328-.703-.344-1.187-.953-.469-.625-.719-1.454-.25-.843-.25-1.843v-1.532q0-1 .25-1.843.25-.844.719-1.453.484-.61 1.172-.954.703-.343 1.609-.343t1.625.343q.719.344 1.219.954.5.609.765 1.453.266.843.266 1.843zm-2.031-1.532q0-.64-.11-1.171-.093-.547-.328-.922-.218-.391-.562-.61-.344-.218-.844-.218-.484 0-.812.218-.329.219-.532.61-.203.375-.297.922-.078.53-.078 1.171v1.532q0 .625.078 1.172.094.53.297.921.203.391.532.61.328.219.828.219.484 0 .828-.22.344-.218.562-.609.219-.39.328-.921.11-.547.11-1.172zm5.717 4.344h4.875v1.625h-6.89v-10.422h2.014v8.797zm13.045-2.937h-4.281v2.937h5.015v1.625h-7.03v-10.422h7v1.64h-4.985v2.626h4.281zm5.951-1.063 2.047-4.797h2.22l-3.282 6.813-.016 3.61h-2v-3.688l-3.234-6.735h2.203zm11.874 7.172h-6.516v-1.547h6.516zm7.56-4.266q0-.28-.093-.515-.094-.25-.328-.453-.235-.22-.61-.391-.375-.187-.937-.328-.672-.188-1.297-.469-.61-.281-1.094-.672-.469-.39-.75-.906-.281-.531-.281-1.219 0-.656.281-1.187t.766-.906q.5-.391 1.172-.594.672-.203 1.453-.203.828 0 1.5.234t1.156.672q.484.422.75 1.016.281.578.281 1.28h-1.953q-.015-.359-.125-.64-.11-.297-.328-.5-.219-.219-.547-.328-.328-.125-.765-.125-.407 0-.72.094-.296.094-.515.265-.219.172-.328.422-.11.235-.11.516 0 .297.141.531.157.235.422.422.281.188.672.344.406.156.906.297.72.203 1.313.515.61.297 1.031.703.438.407.672.938.25.531.25 1.172 0 .687-.281 1.219-.266.53-.75.906-.485.36-1.172.562-.672.188-1.453.188-.5 0-1-.094-.485-.094-.938-.281-.437-.188-.828-.453-.375-.282-.672-.657-.281-.375-.437-.843-.157-.47-.157-1.047h1.97q.015.469.155.812.157.328.422.547.282.219.657.328.375.094.828.094.39 0 .703-.094.312-.093.531-.25.219-.172.328-.406.11-.234.11-.516zm5.858-7.703.985 3.922 1.125-3.922h2.5v10.422h-1.844v-3.078l.078-4.875-1.36 4.516h-1l-1.218-4.328.078 4.687v3.078h-1.844v-10.422zm6.764 0h6.031v1.625h-2.03v7.172h2.03v1.625h-6.03v-1.625h1.984v-7.172h-1.985zm14.998 11.969h-6.515v-1.547h6.515zm8.561-6.11h-4.28v2.938h5.015v1.625h-7.032v-10.422h7v1.64h-4.984v2.626h4.281v1.594zm4.545 2.938h4.875v1.625h-6.89v-10.422h2.015zm13.046-2.937h-4.282v2.937h5.016v1.625h-7.031v-10.422h7v1.64h-4.985v2.626h4.282zm4.857-5.86.985 3.922 1.125-3.922h2.5v10.422h-1.844v-3.078l.078-4.875-1.36 4.516h-1l-1.218-4.328.078 4.687v3.078h-1.844v-10.422zm12.733 5.86h-4.281v2.937h5.015v1.625h-7.03v-10.422h7v1.64h-4.985v2.626h4.281zm9.264 4.562h-2.016l-2.89-6.719v6.72h-2.032v-10.423h2.032l2.875 6.688.015-6.688h2.016zm9.576-8.781h-3.218v8.781h-2.016v-8.78h-3.172v-1.64h8.406v1.64zm6.546 6.062q0-.28-.094-.515-.094-.25-.328-.453-.235-.22-.61-.391-.375-.187-.937-.328-.672-.188-1.297-.469-.61-.281-1.094-.672-.469-.39-.75-.906-.281-.531-.281-1.219 0-.656.281-1.187t.766-.906q.5-.391 1.172-.594.672-.203 1.453-.203.828 0 1.5.234t1.156.672q.484.422.75 1.016.281.578.281 1.28h-1.953q-.015-.359-.125-.64-.11-.297-.328-.5-.219-.219-.547-.328-.328-.125-.765-.125-.407 0-.72.094-.296.094-.515.265-.219.172-.328.422-.11.235-.11.516 0 .297.141.531.157.235.422.422.281.188.672.344.406.156.906.297.72.203 1.313.515.61.297 1.031.703.438.407.672.938.25.531.25 1.172 0 .687-.281 1.219-.266.53-.75.906-.485.36-1.172.562-.672.188-1.453.188-.5 0-1-.094-.485-.094-.938-.281-.437-.188-.828-.453-.375-.282-.672-.657-.281-.375-.437-.843-.157-.47-.157-1.047h1.97q.015.469.155.812.157.328.422.547.282.219.657.328.375.094.828.094.39 0 .703-.094.312-.093.531-.25.219-.172.328-.406.11-.234.11-.516z" fill="#000"/><path d="m353.93 157.91h252.14v74.727h-252.14z" fill="#eee" fill-rule="evenodd"/><path d="m353.93 157.91h252.14v74.727h-252.14z" stroke="#595959" stroke-linecap="butt" stroke-linejoin="round"/><path d="m386.33 196.526v3.828h-2.015v-10.422h3.562q.86 0 1.547.25.688.25 1.172.688.485.437.735 1.062.265.61.265 1.36 0 .703-.265 1.296-.25.594-.735 1.032-.484.422-1.172.672-.687.234-1.547.234h-1.546zm0-1.625h1.547q.438 0 .75-.125.313-.125.516-.344.219-.234.313-.515.109-.297.109-.61 0-.36-.11-.672-.093-.328-.312-.562-.203-.235-.516-.36-.312-.14-.75-.14h-1.546v3.328zm11.78 3.281h-3.125l-.625 2.172h-2.11l3.407-10.422h1.828l3.344 10.422h-2.11zm-2.64-1.719h2.171l-1.078-3.828zm13.545.625q-.047.797-.344 1.422-.281.625-.781 1.078-.485.438-1.157.688-.671.234-1.484.234-.922 0-1.64-.343-.72-.344-1.204-.954-.484-.609-.75-1.468-.25-.86-.25-1.891v-1.406q0-1.031.266-1.89.281-.86.781-1.47.5-.625 1.203-.953.72-.343 1.61-.343.86 0 1.531.25.672.234 1.14.687.47.438.735 1.094.281.656.36 1.469h-2.016q-.032-.47-.14-.813-.11-.36-.329-.578-.203-.234-.531-.36-.313-.124-.75-.124-.469 0-.813.203t-.578.593q-.219.391-.328.954-.094.546-.094 1.265v1.422q0 1.531.422 2.281.438.735 1.375.735.797 0 1.25-.422.453-.422.5-1.36zm4.67-1.015-1.11 1.219v3.062h-2.015v-10.422h2.016v4.781l.953-1.28 2.53-3.5h2.454l-3.5 4.609 3.64 5.812h-2.39zm12.092-.281h-4.281v2.937h5.015v1.625h-7.03v-10.422h7v1.64h-4.985v2.626h4.281zm2.342 4.562v-10.422h2.703q1.031 0 1.875.36.844.343 1.438.984.593.64.921 1.516.329.875.329 1.937v.86q0 1.046-.329 1.921-.328.875-.921 1.516-.579.625-1.407.984-.812.344-1.812.344zm2.031-8.781v7.156h.766q.578 0 1.015-.203.454-.219.766-.625.313-.406.469-.984.172-.594.172-1.329v-.875q0-.703-.172-1.28-.156-.579-.485-.985-.312-.422-.78-.64-.47-.235-1.079-.235zm13.452 10.328h-6.516v-1.547h6.516zm2.107-1.547v-10.422h2.703q1.032 0 1.875.36.844.343 1.438.984.594.64.922 1.516.328.875.328 1.937v.86q0 1.046-.328 1.921t-.922 1.516q-.578.625-1.406.984-.813.344-1.813.344zm2.032-8.781v7.156h.765q.578 0 1.016-.203.453-.219.765-.625.313-.406.47-.984.171-.594.171-1.329v-.875q0-.703-.172-1.28-.156-.579-.484-.985-.313-.422-.781-.64-.47-.235-1.079-.235zm14.076 4.344q0 1-.266 1.843-.265.844-.765 1.453-.5.61-1.219.954-.719.328-1.61.328-.906 0-1.609-.328-.703-.344-1.187-.954-.469-.625-.719-1.453-.25-.843-.25-1.843v-1.532q0-1 .25-1.843.25-.844.719-1.454.484-.609 1.172-.953.703-.343 1.61-.343.905 0 1.624.343.719.344 1.219.953.5.61.765 1.454.266.843.266 1.843zm-2.031-1.532q0-.64-.11-1.172-.093-.546-.328-.921-.218-.391-.562-.61-.344-.219-.844-.219-.484 0-.812.22-.329.218-.532.609-.203.375-.297.921-.078.532-.078 1.172v1.532q0 .625.078 1.171.094.532.297.922.203.39.532.61.328.218.828.218.484 0 .828-.218.344-.22.562-.61.22-.39.328-.922.11-.546.11-1.171zm10.498-4.453.016 6.906q0 .875-.25 1.563-.235.672-.688 1.14-.453.47-1.11.72-.655.234-1.5.234-.78 0-1.421-.235-.625-.25-1.078-.718-.453-.47-.703-1.141-.235-.688-.235-1.563v-6.906h2.016v6.906q.016 1.016.375 1.532.36.515 1.047.515.75 0 1.14-.515.391-.516.391-1.532v-6.906zm1.842 10.422v-10.422h3.5q.86 0 1.547.172.703.172 1.188.531.5.344.765.89.266.532.266 1.25 0 .735-.39 1.313-.376.579-1.126.891.453.11.781.344.329.219.547.531.219.313.328.688.11.359.11.75 0 .765-.266 1.343-.25.563-.734.953-.485.375-1.172.579-.688.187-1.547.187zm2.016-4.594v2.969h1.797q.812 0 1.25-.39.437-.407.437-1.047 0-.72-.39-1.125-.391-.407-1.22-.407zm0-1.453h1.5q.844 0 1.281-.344.453-.343.469-1.015 0-.735-.453-1.047-.453-.328-1.297-.328h-1.5zm8.951 4.422h4.875v1.625h-6.89v-10.422h2.015zm13.045-2.937h-4.28v2.937h5.015v1.625h-7.031v-10.422h7v1.64h-4.985v2.626h4.281zm9.03 6.109h-6.516v-1.547h6.516zm8.56-6.11h-4.28v2.938h5.015v1.625h-7.031v-10.422h7v1.64h-4.984v2.626h4.28v1.594zm4.546 2.938h4.875v1.625h-6.89v-10.422h2.015zm13.045-2.937h-4.281v2.937h5.015v1.625h-7.03v-10.422h7v1.64h-4.985v2.626h4.281zm4.858-5.86.984 3.922 1.125-3.922h2.5v10.422h-1.844v-3.078l.079-4.875-1.36 4.516h-1l-1.219-4.329.079 4.688v3.078h-1.844v-10.422zm12.732 5.86h-4.28v2.937h5.015v1.625h-7.031v-10.422h7v1.64h-4.985v2.626h4.281zm9.264 4.562h-2.015l-2.89-6.719v6.719h-2.032v-10.422h2.031l2.875 6.688.016-6.688h2.015zm9.577-8.781h-3.219v8.781h-2.016v-8.781h-3.171v-1.64h8.406zm6.545 6.062q0-.281-.094-.515-.094-.25-.328-.453-.234-.22-.61-.391-.374-.188-.937-.328-.672-.188-1.297-.469-.609-.281-1.093-.672-.47-.39-.75-.906-.282-.531-.282-1.219 0-.656.282-1.187.28-.532.765-.907.5-.39 1.172-.593.672-.203 1.453-.203.828 0 1.5.234t1.156.672q.485.422.75 1.015.282.579.282 1.282h-1.953q-.016-.36-.125-.641-.11-.297-.329-.5-.218-.219-.546-.328-.329-.125-.766-.125-.406 0-.719.094-.297.093-.515.265-.22.172-.329.422-.109.235-.109.516 0 .297.14.531.157.234.423.422.28.187.671.344.407.156.907.297.718.203 1.312.515.61.297 1.031.703.438.407.672.938.25.531.25 1.172 0 .687-.28 1.218-.267.532-.75.907-.485.359-1.173.562-.672.188-1.453.188-.5 0-1-.094-.484-.094-.937-.281-.438-.188-.829-.453-.375-.282-.671-.657-.282-.375-.438-.843-.156-.47-.156-1.047h1.969q.015.468.156.812.156.328.422.547.281.219.656.328.375.094.828.094.39 0 .703-.094.313-.094.531-.25.22-.172.329-.406.109-.234.109-.516z" fill="#000"/><path d="m353.93 307.363h252.14v74.726h-252.14z" fill="#eee" fill-rule="evenodd"/><path d="m353.93 307.363h252.14v74.726h-252.14z" stroke="#595959" stroke-linecap="butt" stroke-linejoin="round"/><path d="m395.463 349.806h-1.985v-4.515h-2.953v4.515h-2v-10.422h2v4.282h2.953v-4.282h1.985zm9.185-4.437q0 1-.265 1.844-.266.843-.766 1.453-.5.61-1.219.953-.718.328-1.609.328-.906 0-1.61-.328-.703-.344-1.187-.953-.469-.625-.719-1.453-.25-.844-.25-1.844v-1.531q0-1 .25-1.844.25-.844.72-1.453.483-.61 1.171-.953.703-.344 1.61-.344.906 0 1.624.344.72.343 1.22.953.5.61.765 1.453.265.844.265 1.844v1.53zm-2.03-1.531q0-.641-.11-1.172-.094-.547-.328-.922-.22-.39-.563-.61-.344-.218-.844-.218-.484 0-.812.218-.328.22-.531.61-.204.375-.297.922-.078.53-.078 1.172v1.53q0 .626.078 1.173.093.53.297.922.203.39.53.609.329.219.829.219.484 0 .828-.22.344-.218.563-.608.218-.391.328-.922.11-.547.11-1.172zm5.716 4.343h4.875v1.625h-6.89v-10.422h2.015zm13.045-2.937h-4.28v2.937h5.015v1.625h-7.032v-10.422h7v1.641h-4.984v2.625h4.281zm5.952-1.063 2.047-4.797h2.218l-3.28 6.813-.016 3.61h-2v-3.688l-3.235-6.735h2.203zm11.873 7.172h-6.516v-1.547h6.516zm2.108-1.547v-10.422h2.703q1.031 0 1.875.36.844.344 1.437.984.594.64.922 1.516.328.875.328 1.937v.86q0 1.047-.328 1.922t-.922 1.515q-.578.625-1.406.985-.812.343-1.812.343zm2.031-8.78v7.155h.766q.578 0 1.015-.203.453-.219.766-.625.312-.406.469-.984.172-.594.172-1.328v-.875q0-.703-.172-1.282-.157-.578-.485-.984-.312-.422-.781-.64-.469-.235-1.078-.235h-.672zm14.076 4.343q0 1-.265 1.844-.266.843-.766 1.453-.5.61-1.219.953-.718.328-1.609.328-.906 0-1.61-.328-.702-.344-1.187-.953-.469-.625-.719-1.453-.25-.844-.25-1.844v-1.531q0-1 .25-1.844.25-.844.72-1.453.484-.61 1.171-.953.703-.344 1.61-.344.906 0 1.624.344.72.343 1.22.953.5.61.765 1.453.265.844.265 1.844v1.53zm-2.03-1.531q0-.641-.11-1.172-.094-.547-.328-.922-.22-.39-.563-.61-.344-.218-.844-.218-.484 0-.812.218-.328.22-.531.61-.203.375-.297.922-.078.53-.078 1.172v1.53q0 .626.078 1.173.094.53.297.922.203.39.53.609.33.219.83.219.483 0 .827-.22.344-.218.563-.608.218-.391.328-.922.11-.547.11-1.172zm10.498-4.454.015 6.907q0 .875-.25 1.562-.234.672-.687 1.14-.453.47-1.11.72-.656.234-1.5.234-.781 0-1.422-.234-.625-.25-1.078-.72-.453-.468-.703-1.14-.234-.687-.234-1.562v-6.907h2.015v6.907q.016 1.015.375 1.53.36.517 1.047.517.75 0 1.14-.516.392-.516.392-1.531v-6.907zm1.842 10.422v-10.422h3.5q.859 0 1.546.172.704.172 1.188.532.5.343.766.89.265.531.265 1.25 0 .735-.39 1.313-.375.578-1.125.89.453.11.78.344.329.219.548.531.218.313.328.688.11.36.11.75 0 .765-.266 1.344-.25.562-.735.953-.484.375-1.172.578-.687.187-1.547.187zm2.015-4.593v2.968h1.797q.813 0 1.25-.39.438-.407.438-1.047 0-.719-.391-1.125-.39-.406-1.219-.406zm0-1.454h1.5q.844 0 1.281-.343.454-.344.47-1.016 0-.734-.454-1.047-.453-.328-1.297-.328h-1.5zm8.952 4.422h4.875v1.625h-6.891v-10.422h2.016zm13.045-2.937h-4.281v2.937h5.015v1.625h-7.031v-10.422h7v1.641h-4.984v2.625h4.28v1.594zm9.03 6.11h-6.516v-1.548h6.515v1.547zm8.56-6.11h-4.281v2.937h5.016v1.625h-7.032v-10.422h7v1.641h-4.984v2.625h4.281zm4.545 2.937h4.875v1.625h-6.89v-10.422h2.015zm13.046-2.937h-4.282v2.937h5.016v1.625h-7.031v-10.422h7v1.641h-4.985v2.625h4.282zm4.857-5.86.985 3.922 1.125-3.922h2.5v10.422h-1.844v-3.078l.078-4.875-1.36 4.516h-1l-1.218-4.328.078 4.687v3.078h-1.844v-10.422zm12.733 5.86h-4.281v2.937h5.015v1.625h-7.031v-10.422h7v1.641h-4.984v2.625h4.28v1.594zm9.264 4.562h-2.016l-2.89-6.718v6.718h-2.032v-10.422h2.032l2.875 6.688.015-6.688h2.016zm9.576-8.78h-3.219v8.78h-2.015v-8.78h-3.172v-1.642h8.406v1.641zm6.545 6.062q0-.282-.093-.516-.094-.25-.328-.453-.235-.219-.61-.39-.375-.188-.937-.329-.672-.187-1.297-.469-.61-.28-1.094-.672-.469-.39-.75-.906-.281-.531-.281-1.219 0-.656.281-1.187t.766-.906q.5-.39 1.172-.594.671-.203 1.453-.203.828 0 1.5.234.672.235 1.156.672.484.422.75 1.016.281.578.281 1.28h-1.953q-.016-.358-.125-.64-.11-.297-.328-.5-.219-.218-.547-.328-.328-.125-.766-.125-.406 0-.718.094-.297.094-.516.266-.219.171-.328.421-.11.235-.11.516 0 .297.141.531.156.235.422.422.281.188.672.344.406.156.906.297.719.203 1.313.515.609.297 1.03.704.438.406.673.937.25.531.25 1.172 0 .687-.281 1.219-.266.53-.75.906-.485.36-1.172.562-.672.188-1.453.188-.5 0-1-.094-.485-.094-.938-.281-.437-.188-.828-.453-.375-.281-.672-.656-.281-.375-.437-.844-.157-.469-.157-1.047h1.969q.016.469.156.812.157.329.422.547.281.22.656.328.375.094.829.094.39 0 .703-.094.312-.093.53-.25.22-.171.329-.406.11-.234.11-.515z" fill="#000"/><path d="m679.255 232.637h252.14v74.726h-252.14z" fill="#eee" fill-rule="evenodd"/><path d="m679.255 232.637h252.14v74.726h-252.14z" stroke="#595959" stroke-linecap="butt" stroke-linejoin="round"/><path d="m742.44 271.252v3.828h-2.016v-10.422h3.563q.86 0 1.547.25.687.25 1.171.688.485.437.735 1.062.265.61.265 1.36 0 .703-.265 1.297-.25.593-.735 1.03-.484.423-1.171.673-.688.234-1.547.234zm0-1.625h1.547q.437 0 .75-.125.312-.125.515-.344.22-.234.313-.515.11-.297.11-.61 0-.36-.11-.672-.094-.328-.313-.562-.203-.234-.515-.36-.313-.14-.75-.14h-1.547zm11.78 3.281h-3.126l-.625 2.172h-2.109l3.406-10.422h1.828l3.344 10.422h-2.11l-.609-2.172zm-2.641-1.719h2.172l-1.079-3.828-1.093 3.829zm13.545.625q-.047.797-.344 1.422-.281.625-.781 1.079-.484.437-1.156.687-.672.234-1.485.234-.922 0-1.64-.343-.72-.344-1.203-.953-.485-.61-.75-1.47-.25-.859-.25-1.89v-1.406q0-1.031.265-1.89.281-.86.781-1.47.5-.625 1.204-.953.718-.343 1.609-.343.86 0 1.531.25.672.234 1.14.687.47.438.735 1.094.281.656.36 1.469h-2.016q-.031-.47-.14-.813-.11-.36-.329-.578-.203-.234-.531-.36-.313-.124-.75-.124-.469 0-.813.203-.343.203-.578.594-.218.39-.328.953-.094.547-.094 1.265v1.422q0 1.531.422 2.281.438.735 1.375.735.797 0 1.25-.422.453-.422.5-1.36zm4.67-1.015-1.11 1.219v3.062h-2.015v-10.422h2.016v4.781l.953-1.28 2.531-3.5h2.453l-3.5 4.609 3.64 5.812h-2.39zm12.092-.281h-4.281v2.937h5.016v1.625h-7.032v-10.422h7v1.64h-4.984v2.626h4.281zm2.342 4.562v-10.422h2.703q1.032 0 1.875.36.844.343 1.438.984.594.64.922 1.516.328.875.328 1.937v.86q0 1.046-.328 1.921t-.922 1.516q-.578.625-1.406.984-.813.344-1.813.344zm2.031-8.781v7.156h.766q.578 0 1.016-.203.453-.219.765-.625.313-.406.47-.984.17-.594.17-1.328v-.875q0-.704-.17-1.282-.157-.578-.485-.984-.313-.422-.782-.64-.468-.235-1.078-.235zm13.452 10.328h-6.516v-1.547h6.516zm8.56-6.11h-4.28v2.938h5.015v1.625h-7.031v-10.422h7v1.64h-4.985v2.626h4.282v1.594zm4.546 2.938h4.875v1.625h-6.89v-10.422h2.015zm13.045-2.937h-4.281v2.937h5.015v1.625h-7.03v-10.422h7v1.64h-4.985v2.626h4.281zm4.858-5.86.984 3.922 1.125-3.922h2.5v10.422h-1.844v-3.078l.078-4.875-1.359 4.516h-1l-1.219-4.328.078 4.687v3.078h-1.843v-10.422zm12.732 5.86h-4.28v2.937h5.015v1.625h-7.032v-10.422h7v1.64h-4.984v2.626h4.281zm9.264 4.562h-2.015l-2.89-6.719v6.72h-2.032v-10.423h2.031l2.875 6.688.016-6.688h2.015zm9.577-8.781h-3.219v8.781h-2.016v-8.78h-3.171v-1.64h8.406v1.64zm6.545 6.062q0-.28-.094-.515-.094-.25-.328-.453-.234-.22-.61-.391-.374-.188-.937-.328-.672-.188-1.297-.469-.61-.281-1.093-.672-.47-.39-.75-.906-.282-.531-.282-1.219 0-.656.282-1.187.28-.531.765-.906.5-.391 1.172-.594.672-.203 1.453-.203.828 0 1.5.234t1.156.672q.485.422.75 1.016.282.578.282 1.28h-1.953q-.016-.359-.125-.64-.11-.297-.329-.5-.218-.219-.546-.328-.329-.125-.766-.125-.406 0-.719.094-.297.094-.515.265-.22.172-.329.422-.109.235-.109.516 0 .297.14.531.157.235.423.422.28.188.671.344.407.156.907.297.718.203 1.312.515.61.297 1.031.703.438.407.672.938.25.531.25 1.172 0 .687-.28 1.219-.267.53-.75.906-.485.36-1.173.562-.672.188-1.453.188-.5 0-1-.094-.484-.094-.937-.281-.438-.188-.829-.453-.375-.282-.671-.657-.282-.375-.438-.843-.156-.47-.156-1.047h1.969q.015.469.156.812.156.328.422.547.28.219.656.328.375.094.828.094.39 0 .703-.094.313-.094.531-.25.22-.172.329-.406.109-.234.109-.516z" fill="#000"/><path d="m679.255 382.09h252.14v74.726h-252.14z" fill="#eee" fill-rule="evenodd"/><path d="m679.255 382.09h252.14v74.726h-252.14z" stroke="#595959" stroke-linecap="butt" stroke-linejoin="round"/><path d="m751.572 424.532h-1.985v-4.515h-2.953v4.515h-2v-10.421h2v4.28h2.953v-4.28h1.985zm9.186-4.437q0 1-.266 1.844-.266.843-.766 1.453-.5.61-1.218.953-.72.328-1.61.328-.906 0-1.61-.328-.702-.344-1.187-.953-.468-.625-.718-1.453-.25-.844-.25-1.844v-1.531q0-1 .25-1.844.25-.844.718-1.453.485-.61 1.172-.953.703-.344 1.61-.344.906 0 1.625.344.718.343 1.218.953.5.61.766 1.453.266.844.266 1.844v1.53zm-2.032-1.531q0-.64-.109-1.172-.094-.547-.328-.922-.219-.39-.563-.61-.343-.218-.843-.218-.485 0-.813.219-.328.218-.531.609-.203.375-.297.922-.078.531-.078 1.172v1.53q0 .626.078 1.173.094.531.297.922.203.39.531.61.328.218.828.218.485 0 .828-.219.344-.219.563-.61.219-.39.328-.921.11-.547.11-1.172v-1.531zm5.717 4.343h4.875v1.625h-6.89v-10.421h2.015zm13.046-2.937h-4.282v2.937h5.016v1.625h-7.031v-10.421h7v1.64h-4.985v2.625h4.282zm5.951-1.063 2.047-4.796h2.219l-3.282 6.812-.015 3.61h-2v-3.688l-3.235-6.734h2.204zm11.873 7.172h-6.515v-1.547h6.515zm8.561-6.11h-4.281v2.938h5.015v1.625h-7.03v-10.421h7v1.64h-4.985v2.625h4.281v1.594zm4.545 2.938h4.875v1.625h-6.89v-10.421h2.015zm13.045-2.937h-4.28v2.937h5.015v1.625h-7.031v-10.421h7v1.64h-4.985v2.625h4.281zm4.858-5.86.985 3.922 1.125-3.921h2.5v10.421h-1.844v-3.078l.078-4.875-1.36 4.516h-1l-1.218-4.328.078 4.687v3.078h-1.844v-10.421h2.5zm12.733 5.86h-4.281v2.937h5.015v1.625h-7.031v-10.421h7v1.64h-4.984v2.625h4.28v1.594zm9.264 4.562h-2.016l-2.89-6.718v6.718h-2.032v-10.421h2.031l2.875 6.687.016-6.687h2.016zm9.576-8.78h-3.219v8.78h-2.015v-8.78h-3.172v-1.641h8.406v1.64zm6.545 6.062q0-.282-.093-.516-.094-.25-.328-.453-.235-.219-.61-.39-.375-.188-.937-.329-.672-.187-1.297-.469-.61-.28-1.094-.671-.469-.391-.75-.907-.281-.53-.281-1.218 0-.657.281-1.188.281-.531.766-.906.5-.39 1.172-.594.671-.203 1.453-.203.828 0 1.5.234.672.235 1.156.672.484.422.75 1.016.281.578.281 1.281h-1.953q-.016-.36-.125-.64-.11-.297-.328-.5-.219-.22-.547-.329-.328-.125-.766-.125-.406 0-.718.094-.297.094-.516.266-.219.172-.328.422-.11.234-.11.515 0 .297.141.531.156.235.422.422.281.188.672.344.406.156.906.297.719.203 1.313.516.609.296 1.03.703.438.406.673.937.25.531.25 1.172 0 .688-.281 1.219-.266.531-.75.906-.485.36-1.172.563-.672.187-1.453.187-.5 0-1-.094-.485-.093-.938-.28-.437-.188-.828-.454-.375-.281-.672-.656-.281-.375-.437-.844-.157-.469-.157-1.047h1.969q.016.469.156.813.157.328.422.546.281.22.656.329.375.093.829.093.39 0 .703-.093.312-.094.53-.25.22-.172.329-.407.11-.234.11-.515z" fill="#000"/><path d="m280.738 121.54 73.191 73.734" fill="none"/><path d="m280.738 121.54 68.964 69.476" stroke="#595959" stroke-linecap="butt" stroke-linejoin="round"/><path d="m348.53 192.18 4.37 2.056-2.025-4.384z" fill="#595959" fill-rule="evenodd" stroke="#595959" stroke-linecap="butt"/><path d="m280.744 270 73.191 74.723" fill="none"/><path d="m280.744 270 68.993 70.437" stroke="#595959" stroke-linecap="butt" stroke-linejoin="round"/><path d="m348.557 341.593 4.355 2.086-1.995-4.398z" fill="#595959" fill-rule="evenodd" stroke="#595959" stroke-linecap="butt"/><path d="m606.07 195.274 73.191 74.723" fill="none"/><path d="m606.07 195.274 68.993 70.437" stroke="#595959" stroke-linecap="butt" stroke-linejoin="round"/><path d="m673.883 266.867 4.355 2.086-1.995-4.398z" fill="#595959" fill-rule="evenodd" stroke="#595959" stroke-linecap="butt"/><path d="m606.07 344.726 73.191 74.723" fill="none"/><path d="m606.07 344.726 68.993 70.437" stroke="#595959" stroke-linecap="butt" stroke-linejoin="round"/><path d="m673.883 416.319 4.355 2.086-1.995-4.398z" fill="#595959" fill-rule="evenodd" stroke="#595959" stroke-linecap="butt"/><path d="m154.673 157.91v74.724" fill="none"/><path d="m154.673 157.91v68.724" stroke="#595959" stroke-linecap="butt" stroke-linejoin="round"/><path d="m153.022 226.634 1.651 4.538 1.652-4.538z" fill="#595959" fill-rule="evenodd" stroke="#595959" stroke-linecap="butt"/><path d="m480 232.637v74.723" fill="none"/><path d="m480 232.637v68.723" stroke="#595959" stroke-linecap="butt" stroke-linejoin="round"/><path d="m478.348 301.36 1.651 4.538 1.652-4.538z" fill="#595959" fill-rule="evenodd" stroke="#595959" stroke-linecap="butt"/><path d="m805.326 307.363v74.723" fill="none"/><g stroke="#595959" stroke-linecap="butt"><path d="m805.326 307.363v68.723" stroke-linejoin="round"/><path d="m803.674 376.086 1.652 4.538 1.651-4.538z" fill="#595959" fill-rule="evenodd"/></g></g></svg>