<svg version="1.1" viewBox="0.0 0.0 600.0 371.0" fill="none" stroke="none" stroke-linecap="square" stroke-miterlimit="10" width="600" height="371" xmlns:xlink="http://www.w3.org/1999/xlink" xmlns="http://www.w3.org/2000/svg"><path fill="#ffffff" d="M0 0L600.0 0L600.0 371.0L0 371.0L0 0Z" fill-rule="nonzero"/><path stroke="#cccccc" stroke-width="1.0" stroke-linecap="butt" d="M102.5 332.5L581.5 332.5" fill-rule="nonzero"/><path stroke="#cccccc" stroke-width="1.0" stroke-linecap="butt" d="M102.5 255.5L581.5 255.5" fill-rule="nonzero"/><path stroke="#cccccc" stroke-width="1.0" stroke-linecap="butt" d="M102.5 179.5L581.5 179.5" fill-rule="nonzero"/><path stroke="#cccccc" stroke-width="1.0" stroke-linecap="butt" d="M102.5 102.5L581.5 102.5" fill-rule="nonzero"/><path stroke="#333333" stroke-width="1.0" stroke-linecap="butt" d="M102.5 25.5L581.5 25.5" fill-rule="nonzero"/><clipPath id="id_0"><path d="M102.55 25.55L581.45 25.55L581.45 332.45L102.55 332.45L102.55 25.55Z" clip-rule="nonzero"/></clipPath><path stroke="#000000" stroke-width="2.0" stroke-linecap="butt" stroke-opacity="0.0" clip-path="url(#id_0)" d="M192.0 26.0L134.0 26.0L134.0 159.0C134.0 160.10457 134.89543 161.0 136.0 161.0L190.0 161.0C191.10457 161.0 192.0 160.10457 192.0 159.0Z" fill-rule="nonzero"/><path fill="#4285f4" clip-path="url(#id_0)" d="M192.0 26.0L134.0 26.0L134.0 159.0C134.0 160.10457 134.89543 161.0 136.0 161.0L190.0 161.0C191.10457 161.0 192.0 160.10457 192.0 159.0Z" fill-rule="nonzero"/><path stroke="#000000" stroke-width="2.0" stroke-linecap="butt" stroke-opacity="0.0" clip-path="url(#id_0)" d="M281.0 26.0L223.0 26.0L223.0 94.0C223.0 95.10457 223.89543 96.0 225.0 96.0L279.0 96.0C280.10458 96.0 281.0 95.10457 281.0 94.0Z" fill-rule="nonzero"/><path fill="#4285f4" clip-path="url(#id_0)" d="M281.0 26.0L223.0 26.0L223.0 94.0C223.0 95.10457 223.89543 96.0 225.0 96.0L279.0 96.0C280.10458 96.0 281.0 95.10457 281.0 94.0Z" fill-rule="nonzero"/><path stroke="#000000" stroke-width="2.0" stroke-linecap="butt" stroke-opacity="0.0" clip-path="url(#id_0)" d="M371.0 26.0L313.0 26.0L313.0 175.0C313.0 176.10457 313.89542 177.0 315.0 177.0L369.0 177.0C370.10458 177.0 371.0 176.10457 371.0 175.0Z" fill-rule="nonzero"/><path fill="#4285f4" clip-path="url(#id_0)" d="M371.0 26.0L313.0 26.0L313.0 175.0C313.0 176.10457 313.89542 177.0 315.0 177.0L369.0 177.0C370.10458 177.0 371.0 176.10457 371.0 175.0Z" fill-rule="nonzero"/><path stroke="#000000" stroke-width="2.0" stroke-linecap="butt" stroke-opacity="0.0" clip-path="url(#id_0)" d="M461.0 26.0L403.0 26.0L403.0 67.0C403.0 68.10457 403.89542 69.0 405.0 69.0L459.0 69.0C460.10458 69.0 461.0 68.10457 461.0 67.0Z" fill-rule="nonzero"/><path fill="#4285f4" clip-path="url(#id_0)" d="M461.0 26.0L403.0 26.0L403.0 67.0C403.0 68.10457 403.89542 69.0 405.0 69.0L459.0 69.0C460.10458 69.0 461.0 68.10457 461.0 67.0Z" fill-rule="nonzero"/><path stroke="#000000" stroke-width="2.0" stroke-linecap="butt" stroke-opacity="0.0" clip-path="url(#id_0)" d="M550.0 26.0L492.0 26.0L492.0 269.0C492.0 270.10458 492.89542 271.0 494.0 271.0L548.0 271.0C549.10455 271.0 550.0 270.10458 550.0 269.0Z" fill-rule="nonzero"/><path fill="#4285f4" clip-path="url(#id_0)" d="M550.0 26.0L492.0 26.0L492.0 269.0C492.0 270.10458 492.89542 271.0 494.0 271.0L548.0 271.0C549.10455 271.0 550.0 270.10458 550.0 269.0Z" fill-rule="nonzero"/><path fill="#000000" d="M29.550013 317.95312L25.065638 314.625L20.956263 317.54688L20.956263 316.20312L23.159388 314.64062Q23.846888 314.15625 24.221888 313.95312Q23.753138 313.65625 23.237513 313.26562L20.956263 311.54688L20.956263 310.3125L25.003138 313.32812L29.550013 310.07812L29.550013 311.48438L26.487513 313.64062Q26.221888 313.82812 25.909388 314.01562Q26.378138 314.29688 26.550013 314.42188L29.550013 316.57812L29.550013 317.95312ZM24.893763 307.875Q24.643763 308.53125 24.206263 308.85938Q23.753138 309.17188 23.143763 309.17188Q22.206263 309.17188 21.565638 308.5Q20.925013 307.8125 20.925013 306.70312Q20.925013 305.57812 21.581263 304.89062Q22.237513 304.20312 23.175013 304.20312Q23.768763 304.20312 24.206263 304.51562Q24.643763 304.82812 24.893763 305.46875Q25.143763 304.67188 25.721888 304.26562Q26.300013 303.85938 27.096888 303.85938Q28.190638 303.85938 28.940638 304.64062Q29.690638 305.40625 29.690638 306.6875Q29.690638 307.95312 28.940638 308.73438Q28.190638 309.51562 27.065638 309.51562Q26.221888 309.51562 25.659388 309.09375Q25.096888 308.65625 24.893763 307.875ZM23.096888 308.09375Q23.706263 308.09375 24.096888 307.70312Q24.487513 307.29688 24.487513 306.67188Q24.487513 306.0625 24.112513 305.67188Q23.721888 305.28125 23.159388 305.28125Q22.581263 305.28125 22.190638 305.6875Q21.784388 306.09375 21.784388 306.6875Q21.784388 307.29688 22.175013 307.70312Q22.565638 308.09375 23.096888 308.09375ZM27.065638 308.42188Q27.518763 308.42188 27.940638 308.21875Q28.362513 308.0 28.596888 307.57812Q28.831263 307.15625 28.831263 306.67188Q28.831263 305.92188 28.346888 305.4375Q27.862513 304.9375 27.112513 304.9375Q26.346888 304.9375 25.846888 305.4375Q25.346888 305.9375 25.346888 306.70312Q25.346888 307.45312 25.846888 307.9375Q26.331263 308.42188 27.065638 308.42188ZM23.065638 297.03125L23.143763 298.07812Q22.518763 298.21875 22.237513 298.46875Q21.784388 298.90625 21.784388 299.53125Q21.784388 300.03125 22.065638 300.42188Q22.440638 300.90625 23.143763 301.20312Q23.831263 301.48438 25.112513 301.5Q24.534388 301.125 24.253138 300.57812Q23.971888 300.01562 23.971888 299.40625Q23.971888 298.35938 24.753138 297.625Q25.534388 296.875 26.753138 296.875Q27.565638 296.875 28.268763 297.23438Q28.956263 297.57812 29.331263 298.1875Q29.690638 298.79688 29.690638 299.5625Q29.690638 300.89062 28.721888 301.71875Q27.753138 302.54688 25.534388 302.54688Q23.034388 302.54688 21.909388 301.625Q20.925013 300.82812 20.925013 299.46875Q20.925013 298.45312 21.503138 297.8125Q22.065638 297.15625 23.065638 297.03125ZM26.768763 301.32812Q27.315638 301.32812 27.815638 301.10938Q28.300013 300.875 28.565638 300.46875Q28.831263 300.04688 28.831263 299.57812Q28.831263 298.92188 28.300013 298.4375Q27.753138 297.95312 26.831263 297.95312Q25.940638 297.95312 25.425013 298.4375Q24.909388 298.90625 24.909388 299.625Q24.909388 300.34375 25.425013 300.84375Q25.940638 301.32812 26.768763 301.32812ZM26.971888 295.625L25.909388 295.625L25.909388 292.375L26.971888 292.375L26.971888 295.625ZM23.065638 286.03125L23.143763 287.07812Q22.518763 287.21875 22.237513 287.46875Q21.784388 287.90625 21.784388 288.53125Q21.784388 289.03125 22.065638 289.42188Q22.440638 289.90625 23.143763 290.20312Q23.831263 290.48438 25.112513 290.5Q24.534388 290.125 24.253138 289.57812Q23.971888 289.01562 23.971888 288.40625Q23.971888 287.35938 24.753138 286.625Q25.534388 285.875 26.753138 285.875Q27.565638 285.875 28.268763 286.23438Q28.956263 286.57812 29.331263 287.1875Q29.690638 287.79688 29.690638 288.5625Q29.690638 289.89062 28.721888 290.71875Q27.753138 291.54688 25.534388 291.54688Q23.034388 291.54688 21.909388 290.625Q20.925013 289.82812 20.925013 288.46875Q20.925013 287.45312 21.503138 286.8125Q22.065638 286.15625 23.065638 286.03125ZM26.768763 290.32812Q27.315638 290.32812 27.815638 290.10938Q28.300013 289.875 28.565638 289.46875Q28.831263 289.04688 28.831263 288.57812Q28.831263 287.92188 28.300013 287.4375Q27.753138 286.95312 26.831263 286.95312Q25.940638 286.95312 25.425013 287.4375Q24.909388 287.90625 24.909388 288.625Q24.909388 289.34375 25.425013 289.84375Q25.940638 290.32812 26.768763 290.32812ZM29.550013 281.125L27.487513 281.125L27.487513 284.84375L26.518763 284.84375L20.956263 280.92188L20.956263 280.0625L26.518763 280.0625L26.518763 278.90625L27.487513 278.90625L27.487513 280.0625L29.550013 280.0625L29.550013 281.125ZM26.518763 281.125L22.659388 281.125L26.518763 283.8125L26.518763 281.125ZM32.08126 272.1875Q30.971888 273.0625 29.503138 273.67188Q28.018763 274.26562 26.440638 274.26562Q25.050013 274.26562 23.768763 273.82812Q22.284388 273.29688 20.815638 272.1875L20.815638 271.4375Q22.034388 272.14062 22.550013 272.375Q23.362513 272.73438 24.237513 272.9375Q25.331263 273.1875 26.440638 273.1875Q29.268763 273.1875 32.08126 271.4375L32.08126 272.1875ZM29.550013 270.04688L20.956263 270.04688L20.956263 263.84375L21.971888 263.84375L21.971888 268.90625L24.596888 268.90625L24.596888 264.15625L25.612513 264.15625L25.612513 268.90625L28.534388 268.90625L28.534388 263.64062L29.550013 263.64062L29.550013 270.04688ZM27.284388 262.5L27.143763 261.4375Q28.034388 261.26562 28.440638 260.82812Q28.831263 260.39062 28.831263 259.76562Q28.831263 259.01562 28.315638 258.5Q27.800013 257.98438 27.034388 257.98438Q26.315638 257.98438 25.846888 258.46875Q25.362513 258.9375 25.362513 259.67188Q25.362513 259.96875 25.487513 260.42188L24.550013 260.29688Q24.565638 260.1875 24.565638 260.125Q24.565638 259.45312 24.221888 258.92188Q23.862513 258.375 23.128138 258.375Q22.550013 258.375 22.175013 258.76562Q21.784388 259.15625 21.784388 259.78125Q21.784388 260.39062 22.175013 260.8125Q22.565638 261.21875 23.331263 261.32812L23.143763 262.39062Q22.096888 262.20312 21.518763 261.51562Q20.925013 260.82812 20.925013 259.8125Q20.925013 259.10938 21.237513 258.51562Q21.534388 257.92188 22.050013 257.60938Q22.565638 257.29688 23.159388 257.29688Q23.706263 257.29688 24.175013 257.59375Q24.628138 257.89062 24.893763 258.46875Q25.065638 257.71875 25.628138 257.29688Q26.175013 256.875 27.018763 256.875Q28.143763 256.875 28.925013 257.70312Q29.706263 258.51562 29.706263 259.76562Q29.706263 260.89062 29.034388 261.64062Q28.346888 262.39062 27.284388 262.5ZM26.971888 255.625L25.909388 255.625L25.909388 252.375L26.971888 252.375L26.971888 255.625ZM29.550013 247.53125L29.550013 248.57812L22.831263 248.57812Q23.190638 248.96875 23.565638 249.59375Q23.925013 250.20312 24.096888 250.6875L23.081263 250.6875Q22.659388 249.8125 22.081263 249.15625Q21.487513 248.48438 20.925013 248.20312L20.925013 247.53125L29.550013 247.53125ZM28.534388 238.95312L29.550013 238.95312L29.550013 244.64062Q29.175013 244.64062 28.815638 244.51562Q28.237513 244.29688 27.675013 243.82812Q27.112513 243.34375 26.378138 242.4375Q25.221888 241.03125 24.550013 240.54688Q23.878138 240.04688 23.284388 240.04688Q22.659388 240.04688 22.237513 240.5Q21.800013 240.95312 21.800013 241.67188Q21.800013 242.4375 22.253138 242.89062Q22.706263 243.34375 23.518763 243.35938L23.409388 244.4375Q22.190638 244.32812 21.565638 243.60938Q20.925013 242.875 20.925013 241.64062Q20.925013 240.40625 21.612513 239.6875Q22.300013 238.96875 23.315638 238.96875Q23.831263 238.96875 24.331263 239.1875Q24.815638 239.39062 25.378138 239.89062Q25.925013 240.375 26.878138 241.5Q27.675013 242.45312 27.971888 242.73438Q28.253138 243.0 28.534388 243.17188L28.534388 238.95312ZM27.284388 237.5L27.143763 236.4375Q28.034388 236.26562 28.440638 235.82812Q28.831263 235.39062 28.831263 234.76562Q28.831263 234.01562 28.315638 233.5Q27.800013 232.98438 27.034388 232.98438Q26.315638 232.98438 25.846888 233.46875Q25.362513 233.9375 25.362513 234.67188Q25.362513 234.96875 25.487513 235.42188L24.550013 235.29688Q24.565638 235.1875 24.565638 235.125Q24.565638 234.45312 24.221888 233.92188Q23.862513 233.375 23.128138 233.375Q22.550013 233.375 22.175013 233.76562Q21.784388 234.15625 21.784388 234.78125Q21.784388 235.39062 22.175013 235.8125Q22.565638 236.21875 23.331263 236.32812L23.143763 237.39062Q22.096888 237.20312 21.518763 236.51562Q20.925013 235.82812 20.925013 234.8125Q20.925013 234.10938 21.237513 233.51562Q21.534388 232.92188 22.050013 232.60938Q22.565638 232.29688 23.159388 232.29688Q23.706263 232.29688 24.175013 232.59375Q24.628138 232.89062 24.893763 233.46875Q25.065638 232.71875 25.628138 232.29688Q26.175013 231.875 27.018763 231.875Q28.143763 231.875 28.925013 232.70312Q29.706263 233.51562 29.706263 234.76562Q29.706263 235.89062 29.034388 236.64062Q28.346888 237.39062 27.284388 237.5ZM25.315638 230.5Q23.784388 230.5 22.862513 230.1875Q21.925013 229.875 21.425013 229.26562Q20.925013 228.64062 20.925013 227.70312Q20.925013 227.01562 21.206263 226.5Q21.487513 225.96875 22.018763 225.625Q22.534388 225.28125 23.284388 225.09375Q24.034388 224.90625 25.315638 224.90625Q26.831263 224.90625 27.753138 225.21875Q28.675013 225.51562 29.190638 226.14062Q29.690638 226.75 29.690638 227.70312Q29.690638 228.9375 28.800013 229.65625Q27.737513 230.5 25.315638 230.5ZM25.315638 229.42188Q27.425013 229.42188 28.128138 228.92188Q28.831263 228.42188 28.831263 227.70312Q28.831263 226.96875 28.128138 226.48438Q27.425013 225.98438 25.315638 225.98438Q23.190638 225.98438 22.503138 226.48438Q21.800013 226.96875 21.800013 227.71875Q21.800013 228.4375 22.409388 228.875Q23.190638 229.42188 25.315638 229.42188ZM32.08126 222.51562L32.08126 223.26562Q29.268763 221.51562 26.440638 221.51562Q25.346888 221.51562 24.253138 221.76562Q23.378138 221.96875 22.565638 222.32812Q22.050013 222.5625 20.815638 223.26562L20.815638 222.51562Q22.284388 221.42188 23.768763 220.89062Q25.050013 220.4375 26.440638 220.4375Q28.018763 220.4375 29.503138 221.04688Q30.971888 221.65625 32.08126 222.51562ZM29.550013 213.625L20.956263 216.95312L20.956263 215.71875L27.206263 213.48438Q27.956263 213.21875 28.612513 213.03125Q27.909388 212.82812 27.206263 212.5625L20.956263 210.25L20.956263 209.09375L29.550013 212.45312L29.550013 213.625ZM24.893763 206.875Q24.643763 207.53125 24.206263 207.85938Q23.753138 208.17188 23.143763 208.17188Q22.206263 208.17188 21.565638 207.5Q20.925013 206.8125 20.925013 205.70312Q20.925013 204.57812 21.581263 203.89062Q22.237513 203.20312 23.175013 203.20312Q23.768763 203.20312 24.206263 203.51562Q24.643763 203.82812 24.893763 204.46875Q25.143763 203.67188 25.721888 203.26562Q26.300013 202.85938 27.096888 202.85938Q28.190638 202.85938 28.940638 203.64062Q29.690638 204.40625 29.690638 205.6875Q29.690638 206.95312 28.940638 207.73438Q28.190638 208.51562 27.065638 208.51562Q26.221888 208.51562 25.659388 208.09375Q25.096888 207.65625 24.893763 206.875ZM23.096888 207.09375Q23.706263 207.09375 24.096888 206.70312Q24.487513 206.29688 24.487513 205.67188Q24.487513 205.0625 24.112513 204.67188Q23.721888 204.28125 23.159388 204.28125Q22.581263 204.28125 22.190638 204.6875Q21.784388 205.09375 21.784388 205.6875Q21.784388 206.29688 22.175013 206.70312Q22.565638 207.09375 23.096888 207.09375ZM27.065638 207.42188Q27.518763 207.42188 27.940638 207.21875Q28.362513 207.0 28.596888 206.57812Q28.831263 206.15625 28.831263 205.67188Q28.831263 204.92188 28.346888 204.4375Q27.862513 203.9375 27.112513 203.9375Q26.346888 203.9375 25.846888 204.4375Q25.346888 204.9375 25.346888 205.70312Q25.346888 206.45312 25.846888 206.9375Q26.331263 207.42188 27.065638 207.42188ZM29.550013 198.20312L23.331263 198.20312L23.331263 197.26562L24.206263 197.26562Q23.737513 196.96875 23.471888 196.48438Q23.190638 196.0 23.190638 195.375Q23.190638 194.6875 23.471888 194.25Q23.753138 193.79688 24.268763 193.625Q23.190638 192.875 23.190638 191.70312Q23.190638 190.76562 23.706263 190.28125Q24.206263 189.78125 25.284388 189.78125L29.550013 189.78125L29.550013 190.82812L25.628138 190.82812Q25.003138 190.82812 24.721888 190.9375Q24.440638 191.03125 24.268763 191.29688Q24.096888 191.5625 24.096888 191.9375Q24.096888 192.59375 24.534388 193.03125Q24.971888 193.45312 25.940638 193.45312L29.550013 193.45312L29.550013 194.51562L25.503138 194.51562Q24.800013 194.51562 24.456263 194.78125Q24.096888 195.03125 24.096888 195.60938Q24.096888 196.0625 24.331263 196.4375Q24.565638 196.8125 25.018763 196.98438Q25.471888 197.15625 26.315638 197.15625L29.550013 197.15625L29.550013 198.20312ZM28.784388 184.14062Q29.284388 184.73438 29.487513 185.28125Q29.690638 185.8125 29.690638 186.4375Q29.690638 187.46875 29.190638 188.01562Q28.690638 188.5625 27.909388 188.5625Q27.456263 188.5625 27.081263 188.35938Q26.690638 188.15625 26.471888 187.8125Q26.237513 187.46875 26.128138 187.04688Q26.034388 186.75 25.956263 186.10938Q25.815638 184.84375 25.596888 184.23438Q25.378138 184.23438 25.331263 184.23438Q24.675013 184.23438 24.409388 184.53125Q24.065638 184.9375 24.065638 185.73438Q24.065638 186.46875 24.331263 186.82812Q24.581263 187.1875 25.237513 187.35938L25.096888 188.39062Q24.440638 188.25 24.034388 187.92188Q23.628138 187.59375 23.409388 186.98438Q23.190638 186.375 23.190638 185.57812Q23.190638 184.78125 23.378138 184.28125Q23.565638 183.78125 23.846888 183.54688Q24.128138 183.3125 24.565638 183.21875Q24.831263 183.17188 25.534388 183.17188L26.940638 183.17188Q28.409388 183.17188 28.800013 183.10938Q29.190638 183.03125 29.550013 182.82812L29.550013 183.9375Q29.221888 184.09375 28.784388 184.14062ZM26.425013 184.23438Q26.659388 184.8125 26.831263 185.95312Q26.925013 186.60938 27.050013 186.875Q27.159388 187.14062 27.378138 187.29688Q27.596888 187.4375 27.878138 187.4375Q28.300013 187.4375 28.581263 187.125Q28.862513 186.79688 28.862513 186.1875Q28.862513 185.57812 28.596888 185.10938Q28.331263 184.625 27.862513 184.40625Q27.503138 184.23438 26.815638 184.23438L26.425013 184.23438ZM22.175013 181.20312L20.956263 181.20312L20.956263 180.14062L22.175013 180.14062L22.175013 181.20312ZM29.550013 181.20312L23.331263 181.20312L23.331263 180.14062L29.550013 180.14062L29.550013 181.20312ZM29.550013 178.20312L23.331263 178.20312L23.331263 177.26562L24.206263 177.26562Q23.190638 176.57812 23.190638 175.28125Q23.190638 174.71875 23.393763 174.25Q23.596888 173.76562 23.925013 173.53125Q24.253138 173.29688 24.690638 173.20312Q24.987513 173.15625 25.721888 173.15625L29.550013 173.15625L29.550013 174.20312L25.768763 174.20312Q25.112513 174.20312 24.800013 174.32812Q24.487513 174.45312 24.300013 174.76562Q24.096888 175.07812 24.096888 175.5Q24.096888 176.17188 24.534388 176.67188Q24.956263 177.15625 26.143763 177.15625L29.550013 177.15625L29.550013 178.20312ZM26.971888 171.625L25.909388 171.625L25.909388 168.375L26.971888 168.375L26.971888 171.625ZM28.612513 164.90625L29.534388 164.75Q29.628138 165.20312 29.628138 165.54688Q29.628138 166.125 29.456263 166.4375Q29.268763 166.75 28.971888 166.89062Q28.675013 167.01562 27.721888 167.01562L24.143763 167.01562L24.143763 167.78125L23.331263 167.78125L23.331263 167.01562L21.784388 167.01562L21.159388 165.96875L23.331263 165.96875L23.331263 164.90625L24.143763 164.90625L24.143763 165.96875L27.784388 165.96875Q28.237513 165.96875 28.362513 165.92188Q28.487513 165.85938 28.565638 165.73438Q28.643763 165.60938 28.643763 165.375Q28.643763 165.1875 28.612513 164.90625ZM29.550013 164.20312L20.956263 164.20312L20.956263 163.15625L24.034388 163.15625Q23.190638 162.42188 23.190638 161.29688Q23.190638 160.59375 23.471888 160.09375Q23.737513 159.57812 24.221888 159.35938Q24.690638 159.14062 25.612513 159.14062L29.550013 159.14062L29.550013 160.1875L25.612513 160.1875Q24.815638 160.1875 24.456263 160.53125Q24.096888 160.875 24.096888 161.5Q24.096888 161.96875 24.346888 162.39062Q24.581263 162.79688 25.003138 162.98438Q25.409388 163.15625 26.143763 163.15625L29.550013 163.15625L29.550013 164.20312ZM29.550013 157.21875L23.331263 157.21875L23.331263 156.26562L24.268763 156.26562Q23.612513 155.90625 23.409388 155.60938Q23.190638 155.29688 23.190638 154.92188Q23.190638 154.39062 23.518763 153.84375L24.503138 154.20312Q24.268763 154.59375 24.268763 154.96875Q24.268763 155.32812 24.487513 155.60938Q24.690638 155.875 25.065638 155.98438Q25.628138 156.17188 26.284388 156.17188L29.550013 156.17188L29.550013 157.21875ZM27.550013 148.95312L27.675013 147.85938Q28.628138 148.10938 29.159388 148.8125Q29.690638 149.51562 29.690638 150.59375Q29.690638 151.95312 28.846888 152.76562Q28.003138 153.5625 26.487513 153.5625Q24.925013 153.5625 24.065638 152.75Q23.190638 151.9375 23.190638 150.65625Q23.190638 149.40625 24.034388 148.625Q24.878138 147.82812 26.425013 147.82812Q26.518763 147.82812 26.706263 147.82812L26.706263 152.46875Q27.737513 152.40625 28.284388 151.89062Q28.815638 151.375 28.815638 150.59375Q28.815638 150.01562 28.518763 149.60938Q28.206263 149.1875 27.550013 148.95312ZM25.846888 152.40625L25.846888 148.9375Q25.050013 149.0 24.659388 149.32812Q24.050013 149.84375 24.050013 150.64062Q24.050013 151.375 24.534388 151.875Q25.018763 152.35938 25.846888 152.40625ZM28.784388 142.14062Q29.284388 142.73438 29.487513 143.28125Q29.690638 143.8125 29.690638 144.4375Q29.690638 145.46875 29.190638 146.01562Q28.690638 146.5625 27.909388 146.5625Q27.456263 146.5625 27.081263 146.35938Q26.690638 146.15625 26.471888 145.8125Q26.237513 145.46875 26.128138 145.04688Q26.034388 144.75 25.956263 144.10938Q25.815638 142.84375 25.596888 142.23438Q25.378138 142.23438 25.331263 142.23438Q24.675013 142.23438 24.409388 142.53125Q24.065638 142.9375 24.065638 143.73438Q24.065638 144.46875 24.331263 144.82812Q24.581263 145.1875 25.237513 145.35938L25.096888 146.39062Q24.440638 146.25 24.034388 145.92188Q23.628138 145.59375 23.409388 144.98438Q23.190638 144.375 23.190638 143.57812Q23.190638 142.78125 23.378138 142.28125Q23.565638 141.78125 23.846888 141.54688Q24.128138 141.3125 24.565638 141.21875Q24.831263 141.17188 25.534388 141.17188L26.940638 141.17188Q28.409388 141.17188 28.800013 141.10938Q29.190638 141.03125 29.550013 140.82812L29.550013 141.9375Q29.221888 142.09375 28.784388 142.14062ZM26.425013 142.23438Q26.659388 142.8125 26.831263 143.95312Q26.925013 144.60938 27.050013 144.875Q27.159388 145.14062 27.378138 145.29688Q27.596888 145.4375 27.878138 145.4375Q28.300013 145.4375 28.581263 145.125Q28.862513 144.79688 28.862513 144.1875Q28.862513 143.57812 28.596888 143.10938Q28.331263 142.625 27.862513 142.40625Q27.503138 142.23438 26.815638 142.23438L26.425013 142.23438ZM29.550013 135.17188L28.768763 135.17188Q29.690638 135.76562 29.690638 136.90625Q29.690638 137.65625 29.284388 138.28125Q28.862513 138.90625 28.128138 139.25Q27.393763 139.59375 26.440638 139.59375Q25.518763 139.59375 24.753138 139.28125Q23.987513 138.96875 23.596888 138.34375Q23.190638 137.71875 23.190638 136.95312Q23.190638 136.39062 23.425013 135.95312Q23.659388 135.51562 24.034388 135.23438L20.956263 135.23438L20.956263 134.1875L29.550013 134.1875L29.550013 135.17188ZM26.440638 138.5Q27.643763 138.5 28.237513 138.0Q28.815638 137.5 28.815638 136.8125Q28.815638 136.125 28.253138 135.64062Q27.690638 135.15625 26.534388 135.15625Q25.253138 135.15625 24.659388 135.65625Q24.065638 136.14062 24.065638 136.85938Q24.065638 137.5625 24.643763 138.03125Q25.206263 138.5 26.440638 138.5ZM28.612513 126.90625L29.534388 126.75Q29.628138 127.203125 29.628138 127.546875Q29.628138 128.125 29.456263 128.4375Q29.268763 128.75 28.971888 128.89062Q28.675013 129.01562 27.721888 129.01562L24.143763 129.01562L24.143763 129.78125L23.331263 129.78125L23.331263 129.01562L21.784388 129.01562L21.159388 127.96875L23.331263 127.96875L23.331263 126.90625L24.143763 126.90625L24.143763 127.96875L27.784388 127.96875Q28.237513 127.96875 28.362513 127.921875Q28.487513 127.859375 28.565638 127.734375Q28.643763 127.609375 28.643763 127.375Q28.643763 127.1875 28.612513 126.90625ZM22.175013 126.203125L20.956263 126.203125L20.956263 125.140625L22.175013 125.140625L22.175013 126.203125ZM29.550013 126.203125L23.331263 126.203125L23.331263 125.140625L29.550013 125.140625L29.550013 126.203125ZM29.550013 123.203125L23.331263 123.203125L23.331263 122.265625L24.206263 122.265625Q23.737513 121.96875 23.471888 121.484375Q23.190638 121.0 23.190638 120.375Q23.190638 119.6875 23.471888 119.25Q23.753138 118.796875 24.268763 118.625Q23.190638 117.875 23.190638 116.703125Q23.190638 115.765625 23.706263 115.28125Q24.206263 114.78125 25.284388 114.78125L29.550013 114.78125L29.550013 115.828125L25.628138 115.828125Q25.003138 115.828125 24.721888 115.9375Q24.440638 116.03125 24.268763 116.296875Q24.096888 116.5625 24.096888 116.9375Q24.096888 117.59375 24.534388 118.03125Q24.971888 118.453125 25.940638 118.453125L29.550013 118.453125L29.550013 119.515625L25.503138 119.515625Q24.800013 119.515625 24.456263 119.78125Q24.096888 120.03125 24.096888 120.609375Q24.096888 121.0625 24.331263 121.4375Q24.565638 121.8125 25.018763 121.984375Q25.471888 122.15625 26.315638 122.15625L29.550013 122.15625L29.550013 123.203125ZM27.550013 108.953125L27.675013 107.859375Q28.628138 108.109375 29.159388 108.8125Q29.690638 109.515625 29.690638 110.59375Q29.690638 111.953125 28.846888 112.765625Q28.003138 113.5625 26.487513 113.5625Q24.925013 113.5625 24.065638 112.75Q23.190638 111.9375 23.190638 110.65625Q23.190638 109.40625 24.034388 108.625Q24.878138 107.828125 26.425013 107.828125Q26.518763 107.828125 26.706263 107.828125L26.706263 112.46875Q27.737513 112.40625 28.284388 111.890625Q28.815638 111.375 28.815638 110.59375Q28.815638 110.015625 28.518763 109.609375Q28.206263 109.1875 27.550013 108.953125ZM25.846888 112.40625L25.846888 108.9375Q25.050013 109.0 24.659388 109.328125Q24.050013 109.84375 24.050013 110.640625Q24.050013 111.375 24.534388 111.875Q25.018763 112.359375 25.846888 112.40625ZM29.550013 103.21875L23.331263 103.21875L23.331263 102.265625L24.268763 102.265625Q23.612513 101.90625 23.409388 101.609375Q23.190638 101.296875 23.190638 100.921875Q23.190638 100.390625 23.518763 99.84375L24.503138 100.203125Q24.268763 100.59375 24.268763 100.96875Q24.268763 101.328125 24.487513 101.609375Q24.690638 101.875 25.065638 101.984375Q25.628138 102.171875 26.284388 102.171875L29.550013 102.171875L29.550013 103.21875ZM27.550013 94.953125L27.675013 93.859375Q28.628138 94.109375 29.159388 94.8125Q29.690638 95.515625 29.690638 96.59375Q29.690638 97.953125 28.846888 98.765625Q28.003138 99.5625 26.487513 99.5625Q24.925013 99.5625 24.065638 98.75Q23.190638 97.9375 23.190638 96.65625Q23.190638 95.40625 24.034388 94.625Q24.878138 93.828125 26.425013 93.828125Q26.518763 93.828125 26.706263 93.828125L26.706263 98.46875Q27.737513 98.40625 28.284388 97.890625Q28.815638 97.375 28.815638 96.59375Q28.815638 96.015625 28.518763 95.609375Q28.206263 95.1875 27.550013 94.953125ZM25.846888 98.40625L25.846888 94.9375Q25.050013 95.0 24.659388 95.328125Q24.050013 95.84375 24.050013 96.640625Q24.050013 97.375 24.534388 97.875Q25.018763 98.359375 25.846888 98.40625ZM29.550013 88.171875L28.768763 88.171875Q29.690638 88.765625 29.690638 89.90625Q29.690638 90.65625 29.284388 91.28125Q28.862513 91.90625 28.128138 92.25Q27.393763 92.59375 26.440638 92.59375Q25.518763 92.59375 24.753138 92.28125Q23.987513 91.96875 23.596888 91.34375Q23.190638 90.71875 23.190638 89.953125Q23.190638 89.390625 23.425013 88.953125Q23.659388 88.515625 24.034388 88.234375L20.956263 88.234375L20.956263 87.1875L29.550013 87.1875L29.550013 88.171875ZM26.440638 91.5Q27.643763 91.5 28.237513 91.0Q28.815638 90.5 28.815638 89.8125Q28.815638 89.125 28.253138 88.640625Q27.690638 88.15625 26.534388 88.15625Q25.253138 88.15625 24.659388 88.65625Q24.065638 89.140625 24.065638 89.859375Q24.065638 90.5625 24.643763 91.03125Q25.206263 91.5 26.440638 91.5ZM29.550013 81.125L28.628138 81.125Q29.690638 81.859375 29.690638 83.109375Q29.690638 83.65625 29.487513 84.140625Q29.268763 84.609375 28.956263 84.84375Q28.628138 85.078125 28.159388 85.171875Q27.862513 85.234375 27.175013 85.234375L23.331263 85.234375L23.331263 84.171875L26.784388 84.171875Q27.596888 84.171875 27.893763 84.109375Q28.300013 84.015625 28.550013 83.703125Q28.784388 83.375 28.784388 82.890625Q28.784388 82.421875 28.550013 82.015625Q28.300013 81.59375 27.878138 81.421875Q27.456263 81.234375 26.659388 81.234375L23.331263 81.234375L23.331263 80.1875L29.550013 80.1875L29.550013 81.125ZM27.268763 74.140625L27.409388 73.109375Q28.471888 73.28125 29.081263 73.984375Q29.690638 74.6875 29.690638 75.703125Q29.690638 76.984375 28.862513 77.765625Q28.018763 78.53125 26.456263 78.53125Q25.456263 78.53125 24.706263 78.203125Q23.940638 77.859375 23.565638 77.1875Q23.190638 76.5 23.190638 75.6875Q23.190638 74.6875 23.706263 74.046875Q24.206263 73.390625 25.159388 73.203125L25.315638 74.234375Q24.690638 74.375 24.378138 74.75Q24.050013 75.125 24.050013 75.65625Q24.050013 76.453125 24.628138 76.953125Q25.190638 77.453125 26.425013 77.453125Q27.690638 77.453125 28.253138 76.96875Q28.815638 76.484375 28.815638 75.71875Q28.815638 75.09375 28.440638 74.6875Q28.065638 74.265625 27.268763 74.140625ZM28.612513 69.90625L29.534388 69.75Q29.628138 70.203125 29.628138 70.546875Q29.628138 71.125 29.456263 71.4375Q29.268763 71.75 28.971888 71.890625Q28.675013 72.015625 27.721888 72.015625L24.143763 72.015625L24.143763 72.78125L23.331263 72.78125L23.331263 72.015625L21.784388 72.015625L21.159388 70.96875L23.331263 70.96875L23.331263 69.90625L24.143763 69.90625L24.143763 70.96875L27.784388 70.96875Q28.237513 70.96875 28.362513 70.921875Q28.487513 70.859375 28.565638 70.734375Q28.643763 70.609375 28.643763 70.375Q28.643763 70.1875 28.612513 69.90625ZM22.175013 69.203125L20.956263 69.203125L20.956263 68.140625L22.175013 68.140625L22.175013 69.203125ZM29.550013 69.203125L23.331263 69.203125L23.331263 68.140625L29.550013 68.140625L29.550013 69.203125ZM26.440638 66.59375Q24.706263 66.59375 23.878138 65.640625Q23.190638 64.84375 23.190638 63.6875Q23.190638 62.40625 24.034388 61.59375Q24.862513 60.765625 26.346888 60.765625Q27.550013 60.765625 28.237513 61.125Q28.925013 61.484375 29.315638 62.1875Q29.690638 62.875 29.690638 63.6875Q29.690638 64.984375 28.862513 65.796875Q28.018763 66.59375 26.440638 66.59375ZM26.440638 65.515625Q27.628138 65.515625 28.221888 65.0Q28.815638 64.46875 28.815638 63.6875Q28.815638 62.890625 28.221888 62.375Q27.628138 61.859375 26.409388 61.859375Q25.253138 61.859375 24.659388 62.390625Q24.065638 62.90625 24.065638 63.6875Q24.065638 64.46875 24.659388 65.0Q25.237513 65.515625 26.440638 65.515625ZM29.550013 59.203125L23.331263 59.203125L23.331263 58.265625L24.206263 58.265625Q23.190638 57.578125 23.190638 56.28125Q23.190638 55.71875 23.393763 55.25Q23.596888 54.765625 23.925013 54.53125Q24.253138 54.296875 24.690638 54.203125Q24.987513 54.15625 25.721888 54.15625L29.550013 54.15625L29.550013 55.203125L25.768763 55.203125Q25.112513 55.203125 24.800013 55.328125Q24.487513 55.453125 24.300013 55.765625Q24.096888 56.078125 24.096888 56.5Q24.096888 57.171875 24.534388 57.671875Q24.956263 58.15625 26.143763 58.15625L29.550013 58.15625L29.550013 59.203125Z" fill-rule="nonzero"/><path fill="#000000" d="M50.925 333.8719L50.925 332.8094L54.175 332.8094L54.175 333.8719L50.925 333.8719ZM60.596874 335.4344L60.596874 336.45L54.909374 336.45Q54.909374 336.075 55.034374 335.71564Q55.253124 335.1375 55.721874 334.575Q56.20625 334.0125 57.1125 333.27814Q58.51875 332.1219 59.003124 331.45Q59.503124 330.77814 59.503124 330.1844Q59.503124 329.5594 59.05 329.1375Q58.596874 328.7 57.878124 328.7Q57.1125 328.7 56.659374 329.15314Q56.20625 329.60626 56.190624 330.41876L55.1125 330.3094Q55.221874 329.09064 55.940624 328.46564Q56.675 327.825 57.909374 327.825Q59.14375 327.825 59.8625 328.5125Q60.58125 329.2 60.58125 330.21564Q60.58125 330.73126 60.3625 331.23126Q60.159374 331.71564 59.659374 332.27814Q59.175 332.825 58.05 333.77814Q57.096874 334.575 56.815624 334.8719Q56.55 335.15314 56.378124 335.4344L60.596874 335.4344ZM62.05 332.21564Q62.05 330.6844 62.3625 329.7625Q62.675 328.825 63.284374 328.325Q63.909374 327.825 64.84688 327.825Q65.53438 327.825 66.05 328.10626Q66.58125 328.3875 66.925 328.91876Q67.26875 329.4344 67.45625 330.1844Q67.64375 330.9344 67.64375 332.21564Q67.64375 333.73126 67.33125 334.65314Q67.03438 335.575 66.40938 336.09064Q65.8 336.59064 64.84688 336.59064Q63.6125 336.59064 62.89375 335.7Q62.05 334.6375 62.05 332.21564ZM63.128124 332.21564Q63.128124 334.325 63.628124 335.02814Q64.12813 335.73126 64.84688 335.73126Q65.58125 335.73126 66.06563 335.02814Q66.56563 334.325 66.56563 332.21564Q66.56563 330.09064 66.06563 329.40314Q65.58125 328.7 64.83125 328.7Q64.1125 328.7 63.675 329.3094Q63.128124 330.09064 63.128124 332.21564ZM69.64375 336.45L69.64375 335.2469L70.84688 335.2469L70.84688 336.45L69.64375 336.45ZM72.05 332.21564Q72.05 330.6844 72.3625 329.7625Q72.675 328.825 73.28438 328.325Q73.90938 327.825 74.84688 327.825Q75.53438 327.825 76.05 328.10626Q76.58125 328.3875 76.925 328.91876Q77.26875 329.4344 77.45625 330.1844Q77.64375 330.9344 77.64375 332.21564Q77.64375 333.73126 77.33125 334.65314Q77.03438 335.575 76.40938 336.09064Q75.8 336.59064 74.84688 336.59064Q73.6125 336.59064 72.89375 335.7Q72.05 334.6375 72.05 332.21564ZM73.12813 332.21564Q73.12813 334.325 73.62813 335.02814Q74.12813 335.73126 74.84688 335.73126Q75.58125 335.73126 76.06563 335.02814Q76.56563 334.325 76.56563 332.21564Q76.56563 330.09064 76.06563 329.40314Q75.58125 328.7 74.83125 328.7Q74.1125 328.7 73.675 329.3094Q73.12813 330.09064 73.12813 332.21564ZM79.05 332.21564Q79.05 330.6844 79.3625 329.7625Q79.675 328.825 80.28438 328.325Q80.90938 327.825 81.84688 327.825Q82.53438 327.825 83.05 328.10626Q83.58125 328.3875 83.925 328.91876Q84.26875 329.4344 84.45625 330.1844Q84.64375 330.9344 84.64375 332.21564Q84.64375 333.73126 84.33125 334.65314Q84.03438 335.575 83.40938 336.09064Q82.8 336.59064 81.84688 336.59064Q80.6125 336.59064 79.89375 335.7Q79.05 334.6375 79.05 332.21564ZM80.12813 332.21564Q80.12813 334.325 80.62813 335.02814Q81.12813 335.73126 81.84688 335.73126Q82.58125 335.73126 83.06563 335.02814Q83.56563 334.325 83.56563 332.21564Q83.56563 330.09064 83.06563 329.40314Q82.58125 328.7 81.83125 328.7Q81.1125 328.7 80.675 329.3094Q80.12813 330.09064 80.12813 332.21564ZM86.25313 329.91876Q86.25313 328.9969 86.70625 328.35626Q87.175 327.71564 88.05 327.71564Q88.8625 327.71564 89.39375 328.29376Q89.925 328.8719 89.925 329.98126Q89.925 331.075 89.37813 331.66876Q88.84688 332.2469 88.06563 332.2469Q87.28438 332.2469 86.76875 331.66876Q86.25313 331.09064 86.25313 329.91876ZM88.08125 328.4344Q87.69063 328.4344 87.425 328.77814Q87.175 329.1219 87.175 330.02814Q87.175 330.85626 87.425 331.2Q87.69063 331.52814 88.08125 331.52814Q88.4875 331.52814 88.7375 331.1844Q89.00313 330.84064 89.00313 329.95Q89.00313 329.10626 88.7375 328.77814Q88.47188 328.4344 88.08125 328.4344ZM88.08125 336.7625L92.78438 327.71564L93.64375 327.71564L88.95625 336.7625L88.08125 336.7625ZM91.8 334.4344Q91.8 333.5125 92.25313 332.8719Q92.72188 332.23126 93.6125 332.23126Q94.425 332.23126 94.95625 332.8094Q95.4875 333.3719 95.4875 334.4969Q95.4875 335.59064 94.94063 336.1844Q94.40938 336.7625 93.6125 336.7625Q92.84688 336.7625 92.31563 336.1844Q91.8 335.60626 91.8 334.4344ZM93.64375 332.95Q93.2375 332.95 92.97188 333.29376Q92.72188 333.6375 92.72188 334.54376Q92.72188 335.35626 92.9875 335.7Q93.25313 336.04376 93.64375 336.04376Q94.03438 336.04376 94.3 335.7Q94.56563 335.35626 94.56563 334.45Q94.56563 333.6219 94.3 333.29376Q94.03438 332.95 93.64375 332.95Z" fill-rule="nonzero"/><path fill="#000000" d="M50.925 257.14688L50.925 256.08438L54.175 256.08438L54.175 257.14688L50.925 257.14688ZM59.01875 259.725L57.971874 259.725L57.971874 253.00626Q57.58125 253.36563 56.95625 253.74063Q56.346874 254.1 55.8625 254.27188L55.8625 253.25626Q56.7375 252.83438 57.39375 252.25626Q58.065624 251.6625 58.346874 251.1L59.01875 251.1L59.01875 259.725ZM62.05 257.475L63.159374 257.38126Q63.284374 258.19376 63.721874 258.6Q64.175 259.00626 64.81563 259.00626Q65.56563 259.00626 66.09688 258.42813Q66.62813 257.85 66.62813 256.9125Q66.62813 256.00626 66.1125 255.49063Q65.6125 254.95938 64.78438 254.95938Q64.28438 254.95938 63.8625 255.19376Q63.45625 255.42813 63.221874 255.7875L62.2375 255.6625L63.065624 251.25626L67.34688 251.25626L67.34688 252.25626L63.909374 252.25626L63.45625 254.56876Q64.22188 254.02188 65.06563 254.02188Q66.19063 254.02188 66.95625 254.80313Q67.7375 255.58438 67.7375 256.81876Q67.7375 257.975 67.06563 258.83438Q66.2375 259.86563 64.81563 259.86563Q63.64375 259.86563 62.89375 259.20938Q62.159374 258.55313 62.05 257.475ZM69.64375 259.725L69.64375 258.52188L70.84688 258.52188L70.84688 259.725L69.64375 259.725ZM72.05 255.49063Q72.05 253.95938 72.3625 253.0375Q72.675 252.1 73.28438 251.6Q73.90938 251.1 74.84688 251.1Q75.53438 251.1 76.05 251.38126Q76.58125 251.6625 76.925 252.19376Q77.26875 252.70938 77.45625 253.45938Q77.64375 254.20938 77.64375 255.49063Q77.64375 257.00626 77.33125 257.92813Q77.03438 258.85 76.40938 259.36563Q75.8 259.86563 74.84688 259.86563Q73.6125 259.86563 72.89375 258.975Q72.05 257.9125 72.05 255.49063ZM73.12813 255.49063Q73.12813 257.6 73.62813 258.30313Q74.12813 259.00626 74.84688 259.00626Q75.58125 259.00626 76.06563 258.30313Q76.56563 257.6 76.56563 255.49063Q76.56563 253.36563 76.06563 252.67813Q75.58125 251.975 74.83125 251.975Q74.1125 251.975 73.675 252.58438Q73.12813 253.36563 73.12813 255.49063ZM79.05 255.49063Q79.05 253.95938 79.3625 253.0375Q79.675 252.1 80.28438 251.6Q80.90938 251.1 81.84688 251.1Q82.53438 251.1 83.05 251.38126Q83.58125 251.6625 83.925 252.19376Q84.26875 252.70938 84.45625 253.45938Q84.64375 254.20938 84.64375 255.49063Q84.64375 257.00626 84.33125 257.92813Q84.03438 258.85 83.40938 259.36563Q82.8 259.86563 81.84688 259.86563Q80.6125 259.86563 79.89375 258.975Q79.05 257.9125 79.05 255.49063ZM80.12813 255.49063Q80.12813 257.6 80.62813 258.30313Q81.12813 259.00626 81.84688 259.00626Q82.58125 259.00626 83.06563 258.30313Q83.56563 257.6 83.56563 255.49063Q83.56563 253.36563 83.06563 252.67813Q82.58125 251.975 81.83125 251.975Q81.1125 251.975 80.675 252.58438Q80.12813 253.36563 80.12813 255.49063ZM86.25313 253.19376Q86.25313 252.27188 86.70625 251.63126Q87.175 250.99063 88.05 250.99063Q88.8625 250.99063 89.39375 251.56876Q89.925 252.14688 89.925 253.25626Q89.925 254.35 89.37813 254.94376Q88.84688 255.52188 88.06563 255.52188Q87.28438 255.52188 86.76875 254.94376Q86.25313 254.36563 86.25313 253.19376ZM88.08125 251.70938Q87.69063 251.70938 87.425 252.05313Q87.175 252.39688 87.175 253.30313Q87.175 254.13126 87.425 254.475Q87.69063 254.80313 88.08125 254.80313Q88.4875 254.80313 88.7375 254.45938Q89.00313 254.11563 89.00313 253.225Q89.00313 252.38126 88.7375 252.05313Q88.47188 251.70938 88.08125 251.70938ZM88.08125 260.0375L92.78438 250.99063L93.64375 250.99063L88.95625 260.0375L88.08125 260.0375ZM91.8 257.70938Q91.8 256.7875 92.25313 256.14688Q92.72188 255.50626 93.6125 255.50626Q94.425 255.50626 94.95625 256.08438Q95.4875 256.64688 95.4875 257.77188Q95.4875 258.86563 94.94063 259.45938Q94.40938 260.0375 93.6125 260.0375Q92.84688 260.0375 92.31563 259.45938Q91.8 258.88126 91.8 257.70938ZM93.64375 256.225Q93.2375 256.225 92.97188 256.56876Q92.72188 256.9125 92.72188 257.81876Q92.72188 258.63126 92.9875 258.975Q93.25313 259.31876 93.64375 259.31876Q94.03438 259.31876 94.3 258.975Q94.56563 258.63126 94.56563 257.725Q94.56563 256.89688 94.3 256.56876Q94.03438 256.225 93.64375 256.225Z" fill-rule="nonzero"/><path fill="#000000" d="M50.925 180.42188L50.925 179.35938L54.175 179.35938L54.175 180.42188L50.925 180.42188ZM59.01875 183.0L57.971874 183.0L57.971874 176.28125Q57.58125 176.64062 56.95625 177.01562Q56.346874 177.375 55.8625 177.54688L55.8625 176.53125Q56.7375 176.10938 57.39375 175.53125Q58.065624 174.9375 58.346874 174.375L59.01875 174.375L59.01875 183.0ZM62.05 178.76562Q62.05 177.23438 62.3625 176.3125Q62.675 175.375 63.284374 174.875Q63.909374 174.375 64.84688 174.375Q65.53438 174.375 66.05 174.65625Q66.58125 174.9375 66.925 175.46875Q67.26875 175.98438 67.45625 176.73438Q67.64375 177.48438 67.64375 178.76562Q67.64375 180.28125 67.33125 181.20312Q67.03438 182.125 66.40938 182.64062Q65.8 183.14062 64.84688 183.14062Q63.6125 183.14062 62.89375 182.25Q62.05 181.1875 62.05 178.76562ZM63.128124 178.76562Q63.128124 180.875 63.628124 181.57812Q64.12813 182.28125 64.84688 182.28125Q65.58125 182.28125 66.06563 181.57812Q66.56563 180.875 66.56563 178.76562Q66.56563 176.64062 66.06563 175.95312Q65.58125 175.25 64.83125 175.25Q64.1125 175.25 63.675 175.85938Q63.128124 176.64062 63.128124 178.76562ZM69.64375 183.0L69.64375 181.79688L70.84688 181.79688L70.84688 183.0L69.64375 183.0ZM72.05 178.76562Q72.05 177.23438 72.3625 176.3125Q72.675 175.375 73.28438 174.875Q73.90938 174.375 74.84688 174.375Q75.53438 174.375 76.05 174.65625Q76.58125 174.9375 76.925 175.46875Q77.26875 175.98438 77.45625 176.73438Q77.64375 177.48438 77.64375 178.76562Q77.64375 180.28125 77.33125 181.20312Q77.03438 182.125 76.40938 182.64062Q75.8 183.14062 74.84688 183.14062Q73.6125 183.14062 72.89375 182.25Q72.05 181.1875 72.05 178.76562ZM73.12813 178.76562Q73.12813 180.875 73.62813 181.57812Q74.12813 182.28125 74.84688 182.28125Q75.58125 182.28125 76.06563 181.57812Q76.56563 180.875 76.56563 178.76562Q76.56563 176.64062 76.06563 175.95312Q75.58125 175.25 74.83125 175.25Q74.1125 175.25 73.675 175.85938Q73.12813 176.64062 73.12813 178.76562ZM79.05 178.76562Q79.05 177.23438 79.3625 176.3125Q79.675 175.375 80.28438 174.875Q80.90938 174.375 81.84688 174.375Q82.53438 174.375 83.05 174.65625Q83.58125 174.9375 83.925 175.46875Q84.26875 175.98438 84.45625 176.73438Q84.64375 177.48438 84.64375 178.76562Q84.64375 180.28125 84.33125 181.20312Q84.03438 182.125 83.40938 182.64062Q82.8 183.14062 81.84688 183.14062Q80.6125 183.14062 79.89375 182.25Q79.05 181.1875 79.05 178.76562ZM80.12813 178.76562Q80.12813 180.875 80.62813 181.57812Q81.12813 182.28125 81.84688 182.28125Q82.58125 182.28125 83.06563 181.57812Q83.56563 180.875 83.56563 178.76562Q83.56563 176.64062 83.06563 175.95312Q82.58125 175.25 81.83125 175.25Q81.1125 175.25 80.675 175.85938Q80.12813 176.64062 80.12813 178.76562ZM86.25313 176.46875Q86.25313 175.54688 86.70625 174.90625Q87.175 174.26562 88.05 174.26562Q88.8625 174.26562 89.39375 174.84375Q89.925 175.42188 89.925 176.53125Q89.925 177.625 89.37813 178.21875Q88.84688 178.79688 88.06563 178.79688Q87.28438 178.79688 86.76875 178.21875Q86.25313 177.64062 86.25313 176.46875ZM88.08125 174.98438Q87.69063 174.98438 87.425 175.32812Q87.175 175.67188 87.175 176.57812Q87.175 177.40625 87.425 177.75Q87.69063 178.07812 88.08125 178.07812Q88.4875 178.07812 88.7375 177.73438Q89.00313 177.39062 89.00313 176.5Q89.00313 175.65625 88.7375 175.32812Q88.47188 174.98438 88.08125 174.98438ZM88.08125 183.3125L92.78438 174.26562L93.64375 174.26562L88.95625 183.3125L88.08125 183.3125ZM91.8 180.98438Q91.8 180.0625 92.25313 179.42188Q92.72188 178.78125 93.6125 178.78125Q94.425 178.78125 94.95625 179.35938Q95.4875 179.92188 95.4875 181.04688Q95.4875 182.14062 94.94063 182.73438Q94.40938 183.3125 93.6125 183.3125Q92.84688 183.3125 92.31563 182.73438Q91.8 182.15625 91.8 180.98438ZM93.64375 179.5Q93.2375 179.5 92.97188 179.84375Q92.72188 180.1875 92.72188 181.09375Q92.72188 181.90625 92.9875 182.25Q93.25313 182.59375 93.64375 182.59375Q94.03438 182.59375 94.3 182.25Q94.56563 181.90625 94.56563 181.0Q94.56563 180.17188 94.3 179.84375Q94.03438 179.5 93.64375 179.5Z" fill-rule="nonzero"/><path fill="#000000" d="M57.925 103.69688L57.925 102.63438L61.175 102.63438L61.175 103.69688L57.925 103.69688ZM62.05 104.025L63.159374 103.93125Q63.284374 104.74375 63.721874 105.15Q64.175 105.55625 64.81563 105.55625Q65.56563 105.55625 66.09688 104.97813Q66.62813 104.4 66.62813 103.4625Q66.62813 102.55625 66.1125 102.04063Q65.6125 101.50938 64.78438 101.50938Q64.28438 101.50938 63.8625 101.74375Q63.45625 101.97813 63.221874 102.3375L62.2375 102.2125L63.065624 97.80625L67.34688 97.80625L67.34688 98.80625L63.909374 98.80625L63.45625 101.11875Q64.22188 100.57188 65.06563 100.57188Q66.19063 100.57188 66.95625 101.35313Q67.7375 102.13438 67.7375 103.36875Q67.7375 104.525 67.06563 105.38438Q66.2375 106.41563 64.81563 106.41563Q63.64375 106.41563 62.89375 105.75938Q62.159374 105.10313 62.05 104.025ZM69.64375 106.275L69.64375 105.07188L70.84688 105.07188L70.84688 106.275L69.64375 106.275ZM72.05 102.04063Q72.05 100.50938 72.3625 99.5875Q72.675 98.65 73.28438 98.15Q73.90938 97.65 74.84688 97.65Q75.53438 97.65 76.05 97.93125Q76.58125 98.2125 76.925 98.74375Q77.26875 99.25938 77.45625 100.00938Q77.64375 100.75938 77.64375 102.04063Q77.64375 103.55625 77.33125 104.47813Q77.03438 105.4 76.40938 105.91563Q75.8 106.41563 74.84688 106.41563Q73.6125 106.41563 72.89375 105.525Q72.05 104.4625 72.05 102.04063ZM73.12813 102.04063Q73.12813 104.15 73.62813 104.85313Q74.12813 105.55625 74.84688 105.55625Q75.58125 105.55625 76.06563 104.85313Q76.56563 104.15 76.56563 102.04063Q76.56563 99.91563 76.06563 99.22813Q75.58125 98.525 74.83125 98.525Q74.1125 98.525 73.675 99.13438Q73.12813 99.91563 73.12813 102.04063ZM79.05 102.04063Q79.05 100.50938 79.3625 99.5875Q79.675 98.65 80.28438 98.15Q80.90938 97.65 81.84688 97.65Q82.53438 97.65 83.05 97.93125Q83.58125 98.2125 83.925 98.74375Q84.26875 99.25938 84.45625 100.00938Q84.64375 100.75938 84.64375 102.04063Q84.64375 103.55625 84.33125 104.47813Q84.03438 105.4 83.40938 105.91563Q82.8 106.41563 81.84688 106.41563Q80.6125 106.41563 79.89375 105.525Q79.05 104.4625 79.05 102.04063ZM80.12813 102.04063Q80.12813 104.15 80.62813 104.85313Q81.12813 105.55625 81.84688 105.55625Q82.58125 105.55625 83.06563 104.85313Q83.56563 104.15 83.56563 102.04063Q83.56563 99.91563 83.06563 99.22813Q82.58125 98.525 81.83125 98.525Q81.1125 98.525 80.675 99.13438Q80.12813 99.91563 80.12813 102.04063ZM86.25313 99.74375Q86.25313 98.82188 86.70625 98.18125Q87.175 97.54063 88.05 97.54063Q88.8625 97.54063 89.39375 98.11875Q89.925 98.69688 89.925 99.80625Q89.925 100.9 89.37813 101.49375Q88.84688 102.07188 88.06563 102.07188Q87.28438 102.07188 86.76875 101.49375Q86.25313 100.91563 86.25313 99.74375ZM88.08125 98.25938Q87.69063 98.25938 87.425 98.60313Q87.175 98.94688 87.175 99.85313Q87.175 100.68125 87.425 101.025Q87.69063 101.35313 88.08125 101.35313Q88.4875 101.35313 88.7375 101.00938Q89.00313 100.66563 89.00313 99.775Q89.00313 98.93125 88.7375 98.60313Q88.47188 98.25938 88.08125 98.25938ZM88.08125 106.5875L92.78438 97.54063L93.64375 97.54063L88.95625 106.5875L88.08125 106.5875ZM91.8 104.25938Q91.8 103.3375 92.25313 102.69688Q92.72188 102.05625 93.6125 102.05625Q94.425 102.05625 94.95625 102.63438Q95.4875 103.19688 95.4875 104.32188Q95.4875 105.41563 94.94063 106.00938Q94.40938 106.5875 93.6125 106.5875Q92.84688 106.5875 92.31563 106.00938Q91.8 105.43125 91.8 104.25938ZM93.64375 102.775Q93.2375 102.775 92.97188 103.11875Q92.72188 103.4625 92.72188 104.36875Q92.72188 105.18125 92.9875 105.525Q93.25313 105.86875 93.64375 105.86875Q94.03438 105.86875 94.3 105.525Q94.56563 105.18125 94.56563 104.275Q94.56563 103.44688 94.3 103.11875Q94.03438 102.775 93.64375 102.775Z" fill-rule="nonzero"/><path fill="#000000" d="M62.05 25.315624Q62.05 23.784374 62.3625 22.8625Q62.675 21.925 63.284374 21.425Q63.909374 20.925 64.84688 20.925Q65.53438 20.925 66.05 21.20625Q66.58125 21.4875 66.925 22.01875Q67.26875 22.534374 67.45625 23.284374Q67.64375 24.034374 67.64375 25.315624Q67.64375 26.83125 67.33125 27.753124Q67.03438 28.675 66.40938 29.190624Q65.8 29.690624 64.84688 29.690624Q63.6125 29.690624 62.89375 28.8Q62.05 27.7375 62.05 25.315624ZM63.128124 25.315624Q63.128124 27.425 63.628124 28.128124Q64.12813 28.83125 64.84688 28.83125Q65.58125 28.83125 66.06563 28.128124Q66.56563 27.425 66.56563 25.315624Q66.56563 23.190624 66.06563 22.503124Q65.58125 21.8 64.83125 21.8Q64.1125 21.8 63.675 22.409374Q63.128124 23.190624 63.128124 25.315624ZM69.64375 29.55L69.64375 28.346874L70.84688 28.346874L70.84688 29.55L69.64375 29.55ZM72.05 25.315624Q72.05 23.784374 72.3625 22.8625Q72.675 21.925 73.28438 21.425Q73.90938 20.925 74.84688 20.925Q75.53438 20.925 76.05 21.20625Q76.58125 21.4875 76.925 22.01875Q77.26875 22.534374 77.45625 23.284374Q77.64375 24.034374 77.64375 25.315624Q77.64375 26.83125 77.33125 27.753124Q77.03438 28.675 76.40938 29.190624Q75.8 29.690624 74.84688 29.690624Q73.6125 29.690624 72.89375 28.8Q72.05 27.7375 72.05 25.315624ZM73.12813 25.315624Q73.12813 27.425 73.62813 28.128124Q74.12813 28.83125 74.84688 28.83125Q75.58125 28.83125 76.06563 28.128124Q76.56563 27.425 76.56563 25.315624Q76.56563 23.190624 76.06563 22.503124Q75.58125 21.8 74.83125 21.8Q74.1125 21.8 73.675 22.409374Q73.12813 23.190624 73.12813 25.315624ZM79.05 25.315624Q79.05 23.784374 79.3625 22.8625Q79.675 21.925 80.28438 21.425Q80.90938 20.925 81.84688 20.925Q82.53438 20.925 83.05 21.20625Q83.58125 21.4875 83.925 22.01875Q84.26875 22.534374 84.45625 23.284374Q84.64375 24.034374 84.64375 25.315624Q84.64375 26.83125 84.33125 27.753124Q84.03438 28.675 83.40938 29.190624Q82.8 29.690624 81.84688 29.690624Q80.6125 29.690624 79.89375 28.8Q79.05 27.7375 79.05 25.315624ZM80.12813 25.315624Q80.12813 27.425 80.62813 28.128124Q81.12813 28.83125 81.84688 28.83125Q82.58125 28.83125 83.06563 28.128124Q83.56563 27.425 83.56563 25.315624Q83.56563 23.190624 83.06563 22.503124Q82.58125 21.8 81.83125 21.8Q81.1125 21.8 80.675 22.409374Q80.12813 23.190624 80.12813 25.315624ZM86.25313 23.01875Q86.25313 22.096874 86.70625 21.45625Q87.175 20.815624 88.05 20.815624Q88.8625 20.815624 89.39375 21.39375Q89.925 21.971874 89.925 23.08125Q89.925 24.175 89.37813 24.76875Q88.84688 25.346874 88.06563 25.346874Q87.28438 25.346874 86.76875 24.76875Q86.25313 24.190624 86.25313 23.01875ZM88.08125 21.534374Q87.69063 21.534374 87.425 21.878124Q87.175 22.221874 87.175 23.128124Q87.175 23.95625 87.425 24.3Q87.69063 24.628124 88.08125 24.628124Q88.4875 24.628124 88.7375 24.284374Q89.00313 23.940624 89.00313 23.05Q89.00313 22.20625 88.7375 21.878124Q88.47188 21.534374 88.08125 21.534374ZM88.08125 29.8625L92.78438 20.815624L93.64375 20.815624L88.95625 29.8625L88.08125 29.8625ZM91.8 27.534374Q91.8 26.6125 92.25313 25.971874Q92.72188 25.33125 93.6125 25.33125Q94.425 25.33125 94.95625 25.909374Q95.4875 26.471874 95.4875 27.596874Q95.4875 28.690624 94.94063 29.284374Q94.40938 29.8625 93.6125 29.8625Q92.84688 29.8625 92.31563 29.284374Q91.8 28.70625 91.8 27.534374ZM93.64375 26.05Q93.2375 26.05 92.97188 26.39375Q92.72188 26.7375 92.72188 27.64375Q92.72188 28.45625 92.9875 28.8Q93.25313 29.14375 93.64375 29.14375Q94.03438 29.14375 94.3 28.8Q94.56563 28.45625 94.56563 27.55Q94.56563 26.721874 94.3 26.39375Q94.03438 26.05 93.64375 26.05Z" fill-rule="nonzero"/><path fill="#000000" d="M144.51884 346.6844L145.58134 346.59064Q145.65947 347.2469 145.94072 347.65314Q146.22197 348.0594 146.8001 348.325Q147.39384 348.575 148.12822 348.575Q148.76884 348.575 149.26884 348.3875Q149.76884 348.1844 150.00322 347.85626Q150.25322 347.5125 150.25322 347.1219Q150.25322 346.71564 150.01884 346.41876Q149.78447 346.10626 149.25322 345.90314Q148.89384 345.7625 147.70634 345.48126Q146.53447 345.2 146.06572 344.95Q145.44072 344.6219 145.14384 344.15314Q144.84697 343.66876 144.84697 343.075Q144.84697 342.4344 145.20634 341.8719Q145.58134 341.29376 146.28447 341.0125Q147.00322 340.71564 147.8626 340.71564Q148.81572 340.71564 149.5501 341.02814Q150.28447 341.325 150.6751 341.9344Q151.06572 342.52814 151.09697 343.27814L150.00322 343.35626Q149.90947 342.54376 149.39384 342.1375Q148.89384 341.71564 147.90947 341.71564Q146.87822 341.71564 146.40947 342.09064Q145.94072 342.46564 145.94072 342.9969Q145.94072 343.46564 146.26884 343.7625Q146.59697 344.0594 147.97197 344.3719Q149.3626 344.6844 149.87822 344.91876Q150.62822 345.27814 150.9876 345.8094Q151.34697 346.325 151.34697 347.02814Q151.34697 347.71564 150.95634 348.325Q150.56572 348.91876 149.83134 349.2625Q149.09697 349.59064 148.1751 349.59064Q147.00322 349.59064 146.20634 349.2625Q145.4251 348.91876 144.97197 348.23126Q144.53447 347.54376 144.51884 346.6844ZM152.76884 349.45L152.76884 340.85626L153.81572 340.85626L153.81572 343.9344Q154.5501 343.09064 155.6751 343.09064Q156.37822 343.09064 156.87822 343.3719Q157.39384 343.6375 157.6126 344.1219Q157.83134 344.59064 157.83134 345.5125L157.83134 349.45L156.78447 349.45L156.78447 345.5125Q156.78447 344.71564 156.44072 344.35626Q156.09697 343.9969 155.47197 343.9969Q155.00322 343.9969 154.58134 344.2469Q154.1751 344.48126 153.9876 344.90314Q153.81572 345.3094 153.81572 346.04376L153.81572 349.45L152.76884 349.45ZM164.01884 347.45L165.1126 347.575Q164.8626 348.52814 164.15947 349.0594Q163.45634 349.59064 162.37822 349.59064Q161.01884 349.59064 160.20634 348.7469Q159.40947 347.90314 159.40947 346.3875Q159.40947 344.825 160.22197 343.96564Q161.03447 343.09064 162.31572 343.09064Q163.56572 343.09064 164.34697 343.9344Q165.14384 344.77814 165.14384 346.325Q165.14384 346.41876 165.14384 346.60626L160.50322 346.60626Q160.56572 347.6375 161.08134 348.1844Q161.59697 348.71564 162.37822 348.71564Q162.95634 348.71564 163.3626 348.41876Q163.78447 348.10626 164.01884 347.45ZM160.56572 345.7469L164.03447 345.7469Q163.97197 344.95 163.64384 344.5594Q163.12822 343.95 162.33134 343.95Q161.59697 343.95 161.09697 344.4344Q160.6126 344.91876 160.56572 345.7469ZM171.01884 347.45L172.1126 347.575Q171.8626 348.52814 171.15947 349.0594Q170.45634 349.59064 169.37822 349.59064Q168.01884 349.59064 167.20634 348.7469Q166.40947 347.90314 166.40947 346.3875Q166.40947 344.825 167.22197 343.96564Q168.03447 343.09064 169.31572 343.09064Q170.56572 343.09064 171.34697 343.9344Q172.14384 344.77814 172.14384 346.325Q172.14384 346.41876 172.14384 346.60626L167.50322 346.60626Q167.56572 347.6375 168.08134 348.1844Q168.59697 348.71564 169.37822 348.71564Q169.95634 348.71564 170.3626 348.41876Q170.78447 348.10626 171.01884 347.45ZM167.56572 345.7469L171.03447 345.7469Q170.97197 344.95 170.64384 344.5594Q170.12822 343.95 169.33134 343.95Q168.59697 343.95 168.09697 344.4344Q167.6126 344.91876 167.56572 345.7469ZM176.06572 348.5125L176.22197 349.4344Q175.76884 349.52814 175.4251 349.52814Q174.84697 349.52814 174.53447 349.35626Q174.22197 349.16876 174.08134 348.8719Q173.95634 348.575 173.95634 347.6219L173.95634 344.04376L173.19072 344.04376L173.19072 343.23126L173.95634 343.23126L173.95634 341.6844L175.00322 341.0594L175.00322 343.23126L176.06572 343.23126L176.06572 344.04376L175.00322 344.04376L175.00322 347.6844Q175.00322 348.1375 175.0501 348.2625Q175.1126 348.3875 175.2376 348.46564Q175.3626 348.54376 175.59697 348.54376Q175.78447 348.54376 176.06572 348.5125ZM176.34697 347.59064L177.37822 347.4344Q177.47197 348.0594 177.8626 348.3875Q178.26884 348.71564 179.00322 348.71564Q179.72197 348.71564 180.06572 348.4344Q180.4251 348.1375 180.4251 347.73126Q180.4251 347.3719 180.1126 347.16876Q179.89384 347.02814 179.03447 346.8094Q177.87822 346.5125 177.4251 346.3094Q176.9876 346.09064 176.75322 345.71564Q176.51884 345.34064 176.51884 344.8719Q176.51884 344.46564 176.70634 344.10626Q176.89384 343.7469 177.22197 343.5125Q177.47197 343.34064 177.89384 343.21564Q178.31572 343.09064 178.81572 343.09064Q179.53447 343.09064 180.08134 343.3094Q180.64384 343.5125 180.90947 343.8719Q181.1751 344.23126 181.26884 344.825L180.2376 344.96564Q180.1751 344.4969 179.83134 344.23126Q179.50322 343.95 178.87822 343.95Q178.15947 343.95 177.84697 344.2Q177.53447 344.4344 177.53447 344.7625Q177.53447 344.96564 177.65947 345.1219Q177.8001 345.29376 178.06572 345.40314Q178.22197 345.46564 179.00322 345.66876Q180.12822 345.98126 180.56572 346.16876Q181.00322 346.35626 181.25322 346.71564Q181.50322 347.075 181.50322 347.6219Q181.50322 348.15314 181.19072 348.6219Q180.89384 349.075 180.31572 349.34064Q179.7376 349.59064 179.00322 349.59064Q177.78447 349.59064 177.14384 349.09064Q176.51884 348.575 176.34697 347.59064Z" fill-rule="nonzero"/><path fill="#000000" d="M225.90785 349.45L225.90785 340.85626L228.8766 340.85626Q229.8766 340.85626 230.40785 340.98126Q231.14223 341.15314 231.65785 341.59064Q232.34535 342.16876 232.67348 343.075Q233.01723 343.96564 233.01723 345.10626Q233.01723 346.09064 232.78285 346.84064Q232.5641 347.59064 232.20473 348.09064Q231.84535 348.59064 231.40785 348.8719Q230.98598 349.15314 230.39223 349.3094Q229.79848 349.45 229.01723 349.45L225.90785 349.45ZM227.04848 348.4344L228.8766 348.4344Q229.73598 348.4344 230.22035 348.27814Q230.70473 348.1219 230.98598 347.825Q231.39223 347.4344 231.61098 346.7469Q231.84535 346.0594 231.84535 345.09064Q231.84535 343.7469 231.39223 343.02814Q230.95473 342.29376 230.32973 342.04376Q229.86098 341.8719 228.86098 341.8719L227.04848 341.8719L227.04848 348.4344ZM234.78285 342.075L234.78285 340.85626L235.84535 340.85626L235.84535 342.075L234.78285 342.075ZM234.78285 349.45L234.78285 343.23126L235.84535 343.23126L235.84535 349.45L234.78285 349.45ZM237.36098 347.59064L238.39223 347.4344Q238.48598 348.0594 238.8766 348.3875Q239.28285 348.71564 240.01723 348.71564Q240.73598 348.71564 241.07973 348.4344Q241.4391 348.1375 241.4391 347.73126Q241.4391 347.3719 241.1266 347.16876Q240.90785 347.02814 240.04848 346.8094Q238.89223 346.5125 238.4391 346.3094Q238.0016 346.09064 237.76723 345.71564Q237.53285 345.34064 237.53285 344.8719Q237.53285 344.46564 237.72035 344.10626Q237.90785 343.7469 238.23598 343.5125Q238.48598 343.34064 238.90785 343.21564Q239.32973 343.09064 239.82973 343.09064Q240.54848 343.09064 241.09535 343.3094Q241.65785 343.5125 241.92348 343.8719Q242.1891 344.23126 242.28285 344.825L241.2516 344.96564Q241.1891 344.4969 240.84535 344.23126Q240.51723 343.95 239.89223 343.95Q239.17348 343.95 238.86098 344.2Q238.54848 344.4344 238.54848 344.7625Q238.54848 344.96564 238.67348 345.1219Q238.8141 345.29376 239.07973 345.40314Q239.23598 345.46564 240.01723 345.66876Q241.14223 345.98126 241.57973 346.16876Q242.01723 346.35626 242.26723 346.71564Q242.51723 347.075 242.51723 347.6219Q242.51723 348.15314 242.20473 348.6219Q241.90785 349.075 241.32973 349.34064Q240.7516 349.59064 240.01723 349.59064Q238.79848 349.59064 238.15785 349.09064Q237.53285 348.575 237.36098 347.59064ZM247.84535 347.16876L248.8766 347.3094Q248.70473 348.3719 248.0016 348.98126Q247.29848 349.59064 246.28285 349.59064Q245.0016 349.59064 244.22035 348.7625Q243.45473 347.91876 243.45473 346.35626Q243.45473 345.35626 243.78285 344.60626Q244.1266 343.84064 244.79848 343.46564Q245.48598 343.09064 246.29848 343.09064Q247.29848 343.09064 247.9391 343.60626Q248.59535 344.10626 248.78285 345.0594L247.7516 345.21564Q247.61098 344.59064 247.23598 344.27814Q246.86098 343.95 246.32973 343.95Q245.53285 343.95 245.03285 344.52814Q244.53285 345.09064 244.53285 346.325Q244.53285 347.59064 245.01723 348.15314Q245.5016 348.71564 246.26723 348.71564Q246.89223 348.71564 247.29848 348.34064Q247.72035 347.96564 247.84535 347.16876ZM249.39223 346.34064Q249.39223 344.60626 250.34535 343.77814Q251.14223 343.09064 252.29848 343.09064Q253.57973 343.09064 254.39223 343.9344Q255.22035 344.7625 255.22035 346.2469Q255.22035 347.45 254.86098 348.1375Q254.5016 348.825 253.79848 349.21564Q253.11098 349.59064 252.29848 349.59064Q251.0016 349.59064 250.1891 348.7625Q249.39223 347.91876 249.39223 346.34064ZM250.47035 346.34064Q250.47035 347.52814 250.98598 348.1219Q251.51723 348.71564 252.29848 348.71564Q253.09535 348.71564 253.61098 348.1219Q254.1266 347.52814 254.1266 346.3094Q254.1266 345.15314 253.59535 344.5594Q253.07973 343.96564 252.29848 343.96564Q251.51723 343.96564 250.98598 344.5594Q250.47035 345.1375 250.47035 346.34064ZM260.86096 349.45L260.86096 348.52814Q260.1266 349.59064 258.8766 349.59064Q258.3297 349.59064 257.84534 349.3875Q257.3766 349.16876 257.1422 348.85626Q256.90784 348.52814 256.8141 348.0594Q256.7516 347.7625 256.7516 347.075L256.7516 343.23126L257.8141 343.23126L257.8141 346.6844Q257.8141 347.4969 257.8766 347.79376Q257.97034 348.2 258.28284 348.45Q258.61096 348.6844 259.09534 348.6844Q259.5641 348.6844 259.97034 348.45Q260.3922 348.2 260.5641 347.77814Q260.7516 347.35626 260.7516 346.5594L260.7516 343.23126L261.79846 343.23126L261.79846 349.45L260.86096 349.45ZM263.7672 349.45L263.7672 343.23126L264.72034 343.23126L264.72034 344.16876Q265.0797 343.5125 265.3766 343.3094Q265.6891 343.09064 266.0641 343.09064Q266.59534 343.09064 267.1422 343.41876L266.78284 344.40314Q266.3922 344.16876 266.0172 344.16876Q265.65784 344.16876 265.3766 344.3875Q265.11096 344.59064 265.0016 344.96564Q264.8141 345.52814 264.8141 346.1844L264.8141 349.45L263.7672 349.45ZM267.36096 347.59064L268.3922 347.4344Q268.48596 348.0594 268.8766 348.3875Q269.28284 348.71564 270.0172 348.71564Q270.73596 348.71564 271.0797 348.4344Q271.4391 348.1375 271.4391 347.73126Q271.4391 347.3719 271.1266 347.16876Q270.90784 347.02814 270.04846 346.8094Q268.8922 346.5125 268.4391 346.3094Q268.0016 346.09064 267.7672 345.71564Q267.53284 345.34064 267.53284 344.8719Q267.53284 344.46564 267.72034 344.10626Q267.90784 343.7469 268.23596 343.5125Q268.48596 343.34064 268.90784 343.21564Q269.3297 343.09064 269.8297 343.09064Q270.54846 343.09064 271.09534 343.3094Q271.65784 343.5125 271.92346 343.8719Q272.1891 344.23126 272.28284 344.825L271.2516 344.96564Q271.1891 344.4969 270.84534 344.23126Q270.5172 343.95 269.8922 343.95Q269.17346 343.95 268.86096 344.2Q268.54846 344.4344 268.54846 344.7625Q268.54846 344.96564 268.67346 345.1219Q268.8141 345.29376 269.0797 345.40314Q269.23596 345.46564 270.0172 345.66876Q271.1422 345.98126 271.5797 346.16876Q272.0172 346.35626 272.2672 346.71564Q272.5172 347.075 272.5172 347.6219Q272.5172 348.15314 272.2047 348.6219Q271.90784 349.075 271.3297 349.34064Q270.7516 349.59064 270.0172 349.59064Q268.79846 349.59064 268.15784 349.09064Q267.53284 348.575 267.36096 347.59064ZM278.03284 347.45L279.1266 347.575Q278.8766 348.52814 278.17346 349.0594Q277.47034 349.59064 276.3922 349.59064Q275.03284 349.59064 274.22034 348.7469Q273.42346 347.90314 273.42346 346.3875Q273.42346 344.825 274.23596 343.96564Q275.04846 343.09064 276.3297 343.09064Q277.5797 343.09064 278.36096 343.9344Q279.15784 344.77814 279.15784 346.325Q279.15784 346.41876 279.15784 346.60626L274.5172 346.60626Q274.5797 347.6375 275.09534 348.1844Q275.61096 348.71564 276.3922 348.71564Q276.97034 348.71564 277.3766 348.41876Q277.79846 348.10626 278.03284 347.45ZM274.5797 345.7469L278.04846 345.7469Q277.98596 344.95 277.65784 344.5594Q277.1422 343.95 276.34534 343.95Q275.61096 343.95 275.11096 344.4344Q274.6266 344.91876 274.5797 345.7469Z" fill-rule="nonzero"/><path fill="#000000" d="M315.98438 349.45L315.98438 340.85626L321.78125 340.85626L321.78125 341.8719L317.125 341.8719L317.125 344.52814L321.15625 344.52814L321.15625 345.54376L317.125 345.54376L317.125 349.45L315.98438 349.45ZM326.85938 348.6844Q326.26562 349.1844 325.71875 349.3875Q325.1875 349.59064 324.5625 349.59064Q323.53125 349.59064 322.98438 349.09064Q322.4375 348.59064 322.4375 347.8094Q322.4375 347.35626 322.64062 346.98126Q322.84375 346.59064 323.1875 346.3719Q323.53125 346.1375 323.95312 346.02814Q324.25 345.9344 324.89062 345.85626Q326.15625 345.71564 326.76562 345.4969Q326.76562 345.27814 326.76562 345.23126Q326.76562 344.575 326.46875 344.3094Q326.0625 343.96564 325.26562 343.96564Q324.53125 343.96564 324.17188 344.23126Q323.8125 344.48126 323.64062 345.1375L322.60938 344.9969Q322.75 344.34064 323.07812 343.9344Q323.40625 343.52814 324.01562 343.3094Q324.625 343.09064 325.42188 343.09064Q326.21875 343.09064 326.71875 343.27814Q327.21875 343.46564 327.45312 343.7469Q327.6875 344.02814 327.78125 344.46564Q327.82812 344.73126 327.82812 345.4344L327.82812 346.84064Q327.82812 348.3094 327.89062 348.7Q327.96875 349.09064 328.17188 349.45L327.0625 349.45Q326.90625 349.1219 326.85938 348.6844ZM326.76562 346.325Q326.1875 346.5594 325.04688 346.73126Q324.39062 346.825 324.125 346.95Q323.85938 347.0594 323.70312 347.27814Q323.5625 347.4969 323.5625 347.77814Q323.5625 348.2 323.875 348.48126Q324.20312 348.7625 324.8125 348.7625Q325.42188 348.7625 325.89062 348.4969Q326.375 348.23126 326.59375 347.7625Q326.76562 347.40314 326.76562 346.71564L326.76562 346.325ZM333.85938 347.16876L334.89062 347.3094Q334.71875 348.3719 334.01562 348.98126Q333.3125 349.59064 332.29688 349.59064Q331.01562 349.59064 330.23438 348.7625Q329.46875 347.91876 329.46875 346.35626Q329.46875 345.35626 329.79688 344.60626Q330.14062 343.84064 330.8125 343.46564Q331.5 343.09064 332.3125 343.09064Q333.3125 343.09064 333.95312 343.60626Q334.60938 344.10626 334.79688 345.0594L333.76562 345.21564Q333.625 344.59064 333.25 344.27814Q332.875 343.95 332.34375 343.95Q331.54688 343.95 331.04688 344.52814Q330.54688 345.09064 330.54688 346.325Q330.54688 347.59064 331.03125 348.15314Q331.51562 348.71564 332.28125 348.71564Q332.90625 348.71564 333.3125 348.34064Q333.73438 347.96564 333.85938 347.16876ZM340.04688 347.45L341.14062 347.575Q340.89062 348.52814 340.1875 349.0594Q339.48438 349.59064 338.40625 349.59064Q337.04688 349.59064 336.23438 348.7469Q335.4375 347.90314 335.4375 346.3875Q335.4375 344.825 336.25 343.96564Q337.0625 343.09064 338.34375 343.09064Q339.59375 343.09064 340.375 343.9344Q341.17188 344.77814 341.17188 346.325Q341.17188 346.41876 341.17188 346.60626L336.53125 346.60626Q336.59375 347.6375 337.10938 348.1844Q337.625 348.71564 338.40625 348.71564Q338.98438 348.71564 339.39062 348.41876Q339.8125 348.10626 340.04688 347.45ZM336.59375 345.7469L340.0625 345.7469Q340.0 344.95 339.67188 344.5594Q339.15625 343.95 338.35938 343.95Q337.625 343.95 337.125 344.4344Q336.64062 344.91876 336.59375 345.7469ZM343.76562 349.45L342.78125 349.45L342.78125 340.85626L343.84375 340.85626L343.84375 343.91876Q344.51562 343.09064 345.54688 343.09064Q346.125 343.09064 346.625 343.325Q347.14062 343.54376 347.46875 343.96564Q347.8125 344.3875 348.0 344.98126Q348.1875 345.575 348.1875 346.2469Q348.1875 347.84064 347.39062 348.71564Q346.59375 349.59064 345.5 349.59064Q344.39062 349.59064 343.76562 348.66876L343.76562 349.45ZM343.75 346.29376Q343.75 347.40314 344.0625 347.90314Q344.5625 348.71564 345.40625 348.71564Q346.09375 348.71564 346.59375 348.1219Q347.10938 347.52814 347.10938 346.325Q347.10938 345.10626 346.625 344.52814Q346.14062 343.95 345.45312 343.95Q344.76562 343.95 344.25 344.5594Q343.75 345.15314 343.75 346.29376ZM349.40625 346.34064Q349.40625 344.60626 350.35938 343.77814Q351.15625 343.09064 352.3125 343.09064Q353.59375 343.09064 354.40625 343.9344Q355.23438 344.7625 355.23438 346.2469Q355.23438 347.45 354.875 348.1375Q354.51562 348.825 353.8125 349.21564Q353.125 349.59064 352.3125 349.59064Q351.01562 349.59064 350.20312 348.7625Q349.40625 347.91876 349.40625 346.34064ZM350.48438 346.34064Q350.48438 347.52814 351.0 348.1219Q351.53125 348.71564 352.3125 348.71564Q353.10938 348.71564 353.625 348.1219Q354.14062 347.52814 354.14062 346.3094Q354.14062 345.15314 353.60938 344.5594Q353.09375 343.96564 352.3125 343.96564Q351.53125 343.96564 351.0 344.5594Q350.48438 345.1375 350.48438 346.34064ZM356.40625 346.34064Q356.40625 344.60626 357.35938 343.77814Q358.15625 343.09064 359.3125 343.09064Q360.59375 343.09064 361.40625 343.9344Q362.23438 344.7625 362.23438 346.2469Q362.23438 347.45 361.875 348.1375Q361.51562 348.825 360.8125 349.21564Q360.125 349.59064 359.3125 349.59064Q358.01562 349.59064 357.20312 348.7625Q356.40625 347.91876 356.40625 346.34064ZM357.48438 346.34064Q357.48438 347.52814 358.0 348.1219Q358.53125 348.71564 359.3125 348.71564Q360.10938 348.71564 360.625 348.1219Q361.14062 347.52814 361.14062 346.3094Q361.14062 345.15314 360.60938 344.5594Q360.09375 343.96564 359.3125 343.96564Q358.53125 343.96564 358.0 344.5594Q357.48438 345.1375 357.48438 346.34064ZM363.79688 349.45L363.79688 340.85626L364.85938 340.85626L364.85938 345.7625L367.34375 343.23126L368.71875 343.23126L366.32812 345.52814L368.95312 349.45L367.65625 349.45L365.59375 346.2625L364.85938 346.98126L364.85938 349.45L363.79688 349.45Z" fill-rule="nonzero"/><path fill="#000000" d="M425.0765 346.4344L426.2015 346.73126Q425.84213 348.1219 424.92026 348.85626Q423.99838 349.59064 422.65463 349.59064Q421.264 349.59064 420.389 349.02814Q419.514 348.46564 419.06088 347.40314Q418.60776 346.325 418.60776 345.09064Q418.60776 343.7469 419.12338 342.7469Q419.639 341.7469 420.5765 341.23126Q421.52963 340.71564 422.67026 340.71564Q423.9515 340.71564 424.8265 341.3719Q425.71713 342.02814 426.06088 343.21564L424.93588 343.48126Q424.639 342.54376 424.06088 342.1219Q423.49838 341.6844 422.639 341.6844Q421.65463 341.6844 420.98276 342.16876Q420.3265 342.6375 420.04526 343.4344Q419.77963 344.23126 419.77963 345.09064Q419.77963 346.1844 420.09213 346.9969Q420.42026 347.8094 421.09213 348.21564Q421.764 348.6219 422.56088 348.6219Q423.514 348.6219 424.17026 348.075Q424.84213 347.52814 425.0765 346.4344ZM427.93588 349.45L427.93588 340.85626L429.09213 340.85626L433.60776 347.60626L433.60776 340.85626L434.7015 340.85626L434.7015 349.45L433.52963 349.45L429.014 342.7L429.014 349.45L427.93588 349.45ZM436.93588 349.45L436.93588 340.85626L438.09213 340.85626L442.60776 347.60626L442.60776 340.85626L443.7015 340.85626L443.7015 349.45L442.52963 349.45L438.014 342.7L438.014 349.45L436.93588 349.45Z" fill-rule="nonzero"/><path fill="#000000" d="M501.3718 349.45L501.3718 345.8094L498.0593 340.85626L499.44992 340.85626L501.13742 343.45Q501.60617 344.16876 502.01242 344.90314Q502.40305 344.23126 502.94992 343.3875L504.6218 340.85626L505.9343 340.85626L502.51242 345.8094L502.51242 349.45L501.3718 349.45ZM506.4343 346.34064Q506.4343 344.60626 507.38742 343.77814Q508.1843 343.09064 509.34055 343.09064Q510.6218 343.09064 511.4343 343.9344Q512.26245 344.7625 512.26245 346.2469Q512.26245 347.45 511.90305 348.1375Q511.54367 348.825 510.84055 349.21564Q510.15305 349.59064 509.34055 349.59064Q508.04367 349.59064 507.23117 348.7625Q506.4343 347.91876 506.4343 346.34064ZM507.51242 346.34064Q507.51242 347.52814 508.02805 348.1219Q508.5593 348.71564 509.34055 348.71564Q510.13742 348.71564 510.65305 348.1219Q511.16867 347.52814 511.16867 346.3094Q511.16867 345.15314 510.63742 344.5594Q510.1218 343.96564 509.34055 343.96564Q508.5593 343.96564 508.02805 344.5594Q507.51242 345.1375 507.51242 346.34064ZM517.9031 349.45L517.9031 348.52814Q517.1687 349.59064 515.9187 349.59064Q515.3718 349.59064 514.88745 349.3875Q514.4187 349.16876 514.1843 348.85626Q513.94995 348.52814 513.8562 348.0594Q513.7937 347.7625 513.7937 347.075L513.7937 343.23126L514.8562 343.23126L514.8562 346.6844Q514.8562 347.4969 514.9187 347.79376Q515.01245 348.2 515.32495 348.45Q515.6531 348.6844 516.13745 348.6844Q516.6062 348.6844 517.01245 348.45Q517.4343 348.2 517.6062 347.77814Q517.7937 347.35626 517.7937 346.5594L517.7937 343.23126L518.8406 343.23126L518.8406 349.45L517.9031 349.45ZM523.1218 348.5125L523.2781 349.4344Q522.82495 349.52814 522.4812 349.52814Q521.9031 349.52814 521.5906 349.35626Q521.2781 349.16876 521.13745 348.8719Q521.01245 348.575 521.01245 347.6219L521.01245 344.04376L520.2468 344.04376L520.2468 343.23126L521.01245 343.23126L521.01245 341.6844L522.0593 341.0594L522.0593 343.23126L523.1218 343.23126L523.1218 344.04376L522.0593 344.04376L522.0593 347.6844Q522.0593 348.1375 522.1062 348.2625Q522.1687 348.3875 522.2937 348.46564Q522.4187 348.54376 522.6531 348.54376Q522.8406 348.54376 523.1218 348.5125ZM527.9031 349.45L527.9031 348.52814Q527.1687 349.59064 525.9187 349.59064Q525.3718 349.59064 524.88745 349.3875Q524.4187 349.16876 524.1843 348.85626Q523.94995 348.52814 523.8562 348.0594Q523.7937 347.7625 523.7937 347.075L523.7937 343.23126L524.8562 343.23126L524.8562 346.6844Q524.8562 347.4969 524.9187 347.79376Q525.01245 348.2 525.32495 348.45Q525.6531 348.6844 526.13745 348.6844Q526.6062 348.6844 527.01245 348.45Q527.4343 348.2 527.6062 347.77814Q527.7937 347.35626 527.7937 346.5594L527.7937 343.23126L528.8406 343.23126L528.8406 349.45L527.9031 349.45ZM531.7937 349.45L530.8093 349.45L530.8093 340.85626L531.8718 340.85626L531.8718 343.91876Q532.5437 343.09064 533.57495 343.09064Q534.1531 343.09064 534.6531 343.325Q535.1687 343.54376 535.4968 343.96564Q535.8406 344.3875 536.0281 344.98126Q536.2156 345.575 536.2156 346.2469Q536.2156 347.84064 535.4187 348.71564Q534.6218 349.59064 533.5281 349.59064Q532.4187 349.59064 531.7937 348.66876L531.7937 349.45ZM531.7781 346.29376Q531.7781 347.40314 532.0906 347.90314Q532.5906 348.71564 533.4343 348.71564Q534.1218 348.71564 534.6218 348.1219Q535.13745 347.52814 535.13745 346.325Q535.13745 345.10626 534.6531 344.52814Q534.1687 343.95 533.4812 343.95Q532.7937 343.95 532.2781 344.5594Q531.7781 345.15314 531.7781 346.29376ZM542.07495 347.45L543.1687 347.575Q542.9187 348.52814 542.2156 349.0594Q541.51245 349.59064 540.4343 349.59064Q539.07495 349.59064 538.26245 348.7469Q537.4656 347.90314 537.4656 346.3875Q537.4656 344.825 538.2781 343.96564Q539.0906 343.09064 540.3718 343.09064Q541.6218 343.09064 542.4031 343.9344Q543.19995 344.77814 543.19995 346.325Q543.19995 346.41876 543.19995 346.60626L538.5593 346.60626Q538.6218 347.6375 539.13745 348.1844Q539.6531 348.71564 540.4343 348.71564Q541.01245 348.71564 541.4187 348.41876Q541.8406 348.10626 542.07495 347.45ZM538.6218 345.7469L542.0906 345.7469Q542.0281 344.95 541.69995 344.5594Q541.1843 343.95 540.38745 343.95Q539.6531 343.95 539.1531 344.4344Q538.6687 344.91876 538.6218 345.7469Z" fill-rule="nonzero"/></svg>