<svg fill="none" height="440" stroke-linecap="square" stroke-miterlimit="10" width="712" xmlns="http://www.w3.org/2000/svg" xmlns:xlink="http://www.w3.org/1999/xlink"><clipPath id="a"><path d="m95.083 67.502h594.904v267.538h-594.904z"/></clipPath><path d="m0 0h712v440h-712z" fill="#fff"/><path d="m95.5 335.5h594" stroke="#333" stroke-linecap="butt"/><path d="m95.5 268.5h594m-594-67h594m-594-67h594m-594-67h594" stroke="#ccc" stroke-linecap="butt"/><path clip-path="url(#a)" d="m119 335h-15v-111a2 2 0 0 1 2-2h11a2 2 0 0 1 2 2z"/><path clip-path="url(#a)" d="m119 335h-15v-111a2 2 0 0 1 2-2h11a2 2 0 0 1 2 2z" fill="#36c"/><path clip-path="url(#a)" d="m142 335h-15v-60a2 2 0 0 1 2-2h11a2 2 0 0 1 2 2z"/><path clip-path="url(#a)" d="m142 335h-15v-60a2 2 0 0 1 2-2h11a2 2 0 0 1 2 2z" fill="#36c"/><path clip-path="url(#a)" d="m166 335h-15v-47a2 2 0 0 1 2-2h11a2 2 0 0 1 2 2z"/><path clip-path="url(#a)" d="m166 335h-15v-47a2 2 0 0 1 2-2h11a2 2 0 0 1 2 2z" fill="#36c"/><path clip-path="url(#a)" d="m189 335h-15v-35a2 2 0 0 1 2-2h11a2 2 0 0 1 2 2z"/><path clip-path="url(#a)" d="m189 335h-15v-35a2 2 0 0 1 2-2h11a2 2 0 0 1 2 2z" fill="#36c"/><path clip-path="url(#a)" d="m213 335h-15v-34a2 2 0 0 1 2-2h11a2 2 0 0 1 2 2z"/><path clip-path="url(#a)" d="m213 335h-15v-34a2 2 0 0 1 2-2h11a2 2 0 0 1 2 2z" fill="#36c"/><path clip-path="url(#a)" d="m236 335h-15v-34a2 2 0 0 1 2-2h11a2 2 0 0 1 2 2z"/><path clip-path="url(#a)" d="m236 335h-15v-34a2 2 0 0 1 2-2h11a2 2 0 0 1 2 2z" fill="#36c"/><path clip-path="url(#a)" d="m260 335h-15v-33a2 2 0 0 1 2-2h11a2 2 0 0 1 2 2z"/><path clip-path="url(#a)" d="m260 335h-15v-33a2 2 0 0 1 2-2h11a2 2 0 0 1 2 2z" fill="#36c"/><path clip-path="url(#a)" d="m283 335h-15v-25a2 2 0 0 1 2-2h11a2 2 0 0 1 2 2z"/><path clip-path="url(#a)" d="m283 335h-15v-25a2 2 0 0 1 2-2h11a2 2 0 0 1 2 2z" fill="#36c"/><path clip-path="url(#a)" d="m307 335h-15v-23a2 2 0 0 1 2-2h11a2 2 0 0 1 2 2z"/><path clip-path="url(#a)" d="m307 335h-15v-23a2 2 0 0 1 2-2h11a2 2 0 0 1 2 2z" fill="#36c"/><path clip-path="url(#a)" d="m330 335h-15v-22a2 2 0 0 1 2-2h11a2 2 0 0 1 2 2z"/><path clip-path="url(#a)" d="m330 335h-15v-22a2 2 0 0 1 2-2h11a2 2 0 0 1 2 2z" fill="#36c"/><path clip-path="url(#a)" d="m354 335h-15v-14a2 2 0 0 1 2-2h11a2 2 0 0 1 2 2z"/><path clip-path="url(#a)" d="m354 335h-15v-14a2 2 0 0 1 2-2h11a2 2 0 0 1 2 2z" fill="#36c"/><path clip-path="url(#a)" d="m377 335h-15v-14a2 2 0 0 1 2-2h11a2 2 0 0 1 2 2z"/><path clip-path="url(#a)" d="m377 335h-15v-14a2 2 0 0 1 2-2h11a2 2 0 0 1 2 2z" fill="#36c"/><path clip-path="url(#a)" d="m401 335h-15v-12a2 2 0 0 1 2-2h11a2 2 0 0 1 2 2z"/><path clip-path="url(#a)" d="m401 335h-15v-12a2 2 0 0 1 2-2h11a2 2 0 0 1 2 2z" fill="#36c"/><path clip-path="url(#a)" d="m424 335h-15v-11a2 2 0 0 1 2-2h11a2 2 0 0 1 2 2z"/><path clip-path="url(#a)" d="m424 335h-15v-11a2 2 0 0 1 2-2h11a2 2 0 0 1 2 2z" fill="#36c"/><path clip-path="url(#a)" d="m447 335h-15v-10a2 2 0 0 1 2-2h11a2 2 0 0 1 2 2z"/><path clip-path="url(#a)" d="m447 335h-15v-10a2 2 0 0 1 2-2h11a2 2 0 0 1 2 2z" fill="#36c"/><path clip-path="url(#a)" d="m471 335h-15v-9a2 2 0 0 1 2-2h11a2 2 0 0 1 2 2z"/><path clip-path="url(#a)" d="m471 335h-15v-9a2 2 0 0 1 2-2h11a2 2 0 0 1 2 2z" fill="#36c"/><path clip-path="url(#a)" d="m494 335h-15v-9a2 2 0 0 1 2-2h11a2 2 0 0 1 2 2z"/><path clip-path="url(#a)" d="m494 335h-15v-9a2 2 0 0 1 2-2h11a2 2 0 0 1 2 2z" fill="#36c"/><path clip-path="url(#a)" d="m518 335h-15v-7a2 2 0 0 1 2-2h11a2 2 0 0 1 2 2z"/><path clip-path="url(#a)" d="m518 335h-15v-7a2 2 0 0 1 2-2h11a2 2 0 0 1 2 2z" fill="#36c"/><path clip-path="url(#a)" d="m541 335h-15v-7a2 2 0 0 1 2-2h11a2 2 0 0 1 2 2z"/><path clip-path="url(#a)" d="m541 335h-15v-7a2 2 0 0 1 2-2h11a2 2 0 0 1 2 2z" fill="#36c"/><path clip-path="url(#a)" d="m565 335h-15v-7a2 2 0 0 1 2-2h11a2 2 0 0 1 2 2z"/><path clip-path="url(#a)" d="m565 335h-15v-7a2 2 0 0 1 2-2h11a2 2 0 0 1 2 2z" fill="#36c"/><path clip-path="url(#a)" d="m588 335h-15v-3a2 2 0 0 1 2-2h11a2 2 0 0 1 2 2z"/><path clip-path="url(#a)" d="m588 335h-15v-3a2 2 0 0 1 2-2h11a2 2 0 0 1 2 2z" fill="#36c"/><path clip-path="url(#a)" d="m612 335h-15v-3a2 2 0 0 1 2-2h11a2 2 0 0 1 2 2z"/><path clip-path="url(#a)" d="m612 335h-15v-3a2 2 0 0 1 2-2h11a2 2 0 0 1 2 2z" fill="#36c"/><path clip-path="url(#a)" d="m635 335h-15v-3a2 2 0 0 1 2-2h11a2 2 0 0 1 2 2z"/><path clip-path="url(#a)" d="m635 335h-15v-3a2 2 0 0 1 2-2h11a2 2 0 0 1 2 2z" fill="#36c"/><path clip-path="url(#a)" d="m659 335h-15v-1.5a1.5 1.5 0 0 1 1.5-1.5h12a1.5 1.5 0 0 1 1.5 1.5z"/><path clip-path="url(#a)" d="m659 335h-15v-1.5a1.5 1.5 0 0 1 1.5-1.5h12a1.5 1.5 0 0 1 1.5 1.5z" fill="#36c"/><path clip-path="url(#a)" d="m682 335h-15z"/><path clip-path="url(#a)" d="m682 335h-15z" fill="#36c"/><path d="m32.129 324.345q2.03.25 3.14 1.515 1.094 1.25 1.094 3.344 0 2.266-1.625 3.64-1.625 1.36-4.344 1.36h-1.234q-1.781 0-3.125-.64-1.36-.641-2.078-1.797-.735-1.172-.735-2.719 0-2.031 1.141-3.266 1.125-1.234 3.14-1.437v1.703q-1.53.219-2.203.953-.687.735-.687 2.047 0 1.625 1.203 2.547 1.188.906 3.39.906h1.235q2.078 0 3.313-.86 1.234-.874 1.234-2.437 0-1.406-.64-2.156-.641-.75-2.22-1v-1.703zm-.782-1.89q-1.39 0-2.5-.548-1.125-.562-1.734-1.53-.61-.985-.61-2.235 0-1.953 1.344-3.14 1.344-1.204 3.578-1.204h.11q1.39 0 2.5.531 1.094.531 1.719 1.516.609.984.609 2.265 0 1.938-1.344 3.141t-3.562 1.203h-.11zm.188-1.641q1.594 0 2.547-.735.953-.734.953-1.969 0-1.234-.969-1.953-.969-.734-2.719-.734-1.562 0-2.53.75-.97.734-.97 1.969 0 1.203.953 1.937.954.735 2.735.735zm-4.86-10.329 1.063-.03q-1.234-1.048-1.234-2.829 0-2 1.53-2.719-.687-.468-1.109-1.234-.421-.766-.421-1.797 0-3.125 3.312-3.187h6.375v1.64h-6.281q-1.016 0-1.516.469-.515.453-.515 1.547 0 .906.546 1.515.547.594 1.454.688h6.312v1.64h-6.234q-2.078 0-2.078 2.032 0 1.594 1.375 2.187h6.937v1.625h-9.516v-1.546zm4.86-22.5q2.172 0 3.5 1 1.328.985 1.328 2.688 0 1.734-1.094 2.719h4.578v1.625h-13.172v-1.485l1.063-.078q-1.234-.984-1.234-2.765 0-1.704 1.296-2.704 1.282-1 3.594-1h.14zm-.172 1.625q-1.61 0-2.547.688t-.937 1.875q0 1.484 1.312 2.219h4.547q1.297-.735 1.297-2.235 0-1.171-.922-1.859t-2.75-.688zm4.828-5.359v1.625h-9.516v-1.625zm-12.031 1.766q-.39 0-.656-.235-.282-.25-.282-.718 0-.485.282-.735.265-.25.656-.25.39 0 .656.25t.266.735q0 .468-.266.718-.266.235-.656.235zm12.031-5.766v1.625h-13.5v-1.625zm.172-6.172q0 1.922-1.266 3.14-1.265 1.22-3.39 1.22h-.313q-1.406 0-2.515-.547-1.11-.547-1.735-1.516-.64-.969-.64-2.094 0-1.859 1.218-2.89 1.22-1.031 3.5-1.031h.672v6.453q1.406-.047 2.281-.829.86-.78.86-2 0-.859-.344-1.453-.36-.609-.937-1.046l.78-1q1.829 1.203 1.829 3.593zm-8.516.203q0 .985.72 1.657.702.656 2 .812v-4.765h-.126q-1.234.078-1.906.671-.688.594-.688 1.625zm-3.468-12.468h2.296v-1.782h1.266v1.782h5.89q.579 0 .86-.235.281-.234.281-.812 0-.281-.093-.766h1.312q.172.64.172 1.235 0 1.093-.656 1.656-.657.547-1.875.547h-5.89v1.734h-1.267v-1.734h-2.295v-1.625zm11.812-5.563v1.625h-9.516v-1.625zm-12.031 1.766q-.39 0-.656-.235-.282-.25-.282-.718 0-.485.282-.735.265-.25.656-.25.39 0 .656.25t.266.735q0 .468-.266.718-.266.235-.656.235zm2.515-5.531 1.063-.032q-1.234-1.047-1.234-2.828 0-2 1.53-2.719-.687-.468-1.109-1.234-.421-.766-.421-1.797 0-3.125 3.312-3.187h6.375v1.64h-6.281q-1.016 0-1.516.469-.515.453-.515 1.547 0 .906.546 1.516.547.593 1.454.687h6.312v1.64h-6.234q-2.078 0-2.078 2.032 0 1.594 1.375 2.187h6.937v1.625h-9.516v-1.547zm9.688-18.407q0 1.922-1.266 3.14-1.265 1.22-3.39 1.22h-.313q-1.406 0-2.515-.547-1.11-.547-1.735-1.516-.64-.969-.64-2.094 0-1.859 1.218-2.89 1.22-1.031 3.5-1.031h.672v6.453q1.406-.047 2.281-.828.86-.782.86-2 0-.86-.344-1.454-.36-.609-.937-1.047l.78-1q1.829 1.204 1.829 3.594zm-8.516.203q0 .985.72 1.657.702.656 2 .812v-4.766h-.126q-1.234.079-1.906.672-.688.594-.688 1.625zm.297-14.859q-.062.375-.062.797 0 1.61 1.36 2.172h6.75v1.625h-9.517v-1.578l1.11-.032q-1.281-.797-1.281-2.265 0-.469.125-.719zm8.219-5.344q0 1.922-1.266 3.14-1.265 1.22-3.39 1.22h-.313q-1.406 0-2.515-.547-1.11-.547-1.735-1.516-.64-.969-.64-2.094 0-1.859 1.218-2.89 1.22-1.031 3.5-1.031h.672v6.453q1.406-.047 2.281-.828.86-.782.86-2 0-.86-.344-1.454-.36-.609-.937-1.047l.78-1q1.829 1.204 1.829 3.594zm-8.516.203q0 .985.72 1.657.702.656 2 .812v-4.766h-.126q-1.234.079-1.906.672-.688.594-.688 1.625zm3.516-5.859q-2.188 0-3.516-1.031-1.343-1.047-1.343-2.735 0-1.672 1.14-2.64h-4.953v-1.625h13.5v1.5l-1.016.078q1.188.969 1.188 2.703 0 1.656-1.344 2.703-1.36 1.047-3.547 1.047zm.172-1.64q1.625 0 2.547-.657.906-.672.906-1.844 0-1.547-1.39-2.265h-4.376q-1.343.734-1.343 2.234 0 1.203.937 1.875.922.656 2.719.656zm3.719-14.641q1.109.953 1.109 2.797 0 1.515-.875 2.312-.89.797-2.625.797h-6.188v-1.625h6.157q2.156 0 2.156-1.75 0-1.86-1.39-2.484h-6.923v-1.625h9.516v1.547l-.937.03zm-.22-7.938q0-.875-.515-1.515-.531-.657-1.328-.72v-1.546q.813.047 1.563.563.734.515 1.171 1.39.438.86.438 1.828 0 1.938-1.297 3.094-1.297 1.14-3.547 1.14h-.265q-1.391 0-2.47-.5-1.077-.515-1.671-1.468-.61-.953-.61-2.25 0-1.61.97-2.656.952-1.063 2.484-1.141v1.547q-.922.062-1.516.703-.594.625-.594 1.547 0 1.234.891 1.922.89.672 2.578.672h.297q1.656 0 2.547-.672.875-.672.875-1.938zm-10.655-7.39h2.296v-1.782h1.266v1.782h5.89q.579 0 .86-.235.281-.234.281-.812 0-.281-.093-.766h1.312q.172.64.172 1.234 0 1.094-.656 1.657-.657.547-1.875.547h-5.89v1.734h-1.267v-1.734h-2.295v-1.625zm11.812-5.563v1.625h-9.516v-1.625zm-12.031 1.766q-.39 0-.656-.235-.282-.25-.282-.718 0-.485.282-.735.265-.25.656-.25.39 0 .656.25t.266.735q0 .468-.266.718-.266.235-.656.235zm7.187-3.563q-1.39 0-2.5-.547-1.125-.562-1.734-1.53-.61-.985-.61-2.235 0-1.953 1.344-3.14 1.344-1.204 3.578-1.204h.11q1.39 0 2.5.531 1.094.531 1.719 1.516.609.984.609 2.266 0 1.937-1.344 3.14t-3.562 1.203zm.188-1.64q1.594 0 2.547-.735.953-.734.953-1.969 0-1.234-.969-1.953-.969-.734-2.719-.734-1.562 0-2.53.75-.97.734-.97 1.969 0 1.203.953 1.937.954.735 2.735.735zm-4.86-10.328 1.204-.063q-1.375-1.078-1.375-2.844 0-3.015 3.406-3.031h6.281v1.625h-6.297q-1.031 0-1.515.469-.5.453-.5 1.437 0 .781.421 1.39.422.595 1.11.923h6.781v1.625h-9.516z" fill="#424242"/><path d="m74.161 335.681q0 2.547-.875 3.781-.86 1.235-2.703 1.235-1.812 0-2.687-1.203-.875-1.22-.907-3.61v-1.937q0-2.5.86-3.72.875-1.218 2.718-1.218 1.844 0 2.704 1.172.875 1.172.89 3.625zm-1.437-1.969q0-1.843-.516-2.672-.516-.843-1.64-.843-1.11 0-1.626.843-.5.829-.515 2.563v2.312q0 1.844.531 2.72.547.874 1.625.874 1.078 0 1.594-.828.515-.828.547-2.61zm3.187-2.36q0-1.03.64-1.687.657-.671 1.688-.671 1.032 0 1.672.671.656.672.656 1.735v.547q0 1.03-.656 1.687-.656.656-1.656.656-1.016 0-1.688-.656-.656-.656-.656-1.734v-.547zm1.078.595q0 .61.344 1.015.344.39.922.39.547 0 .89-.374.344-.39.344-1.063v-.562q0-.61-.343-1-.329-.406-.907-.406-.578 0-.922.406-.328.39-.328 1.031zm4.453 5.797q0-1.016.657-1.672.656-.672 1.672-.672 1.03 0 1.687.656.656.656.656 1.75v.547q0 1.031-.656 1.703-.656.656-1.672.656-1.015 0-1.687-.656-.657-.656-.657-1.75zm1.079.609q0 .625.343 1.016.344.39.922.39.563 0 .89-.375.345-.39.345-1.062v-.578q0-.61-.344-1-.328-.391-.906-.391-.547 0-.907.39-.343.376-.343 1.032zm-3.938 1.328-.828-.516 5.562-8.89.813.515zm-13.093-66.025h-7.454v-1.047l3.938-4.375q.875-.984 1.203-1.61.328-.624.328-1.28 0-.891-.547-1.454-.531-.578-1.422-.578-1.078 0-1.687.61-.594.609-.594 1.703h-1.438q0-1.563 1-2.532 1.016-.968 2.72-.968 1.577 0 2.5.828.921.828.921 2.219 0 1.671-2.14 4l-3.047 3.296h5.718v1.188zm8.671-4.86q0 2.547-.875 3.782-.86 1.234-2.703 1.234-1.812 0-2.687-1.203-.875-1.219-.907-3.61v-1.937q0-2.5.86-3.719.875-1.218 2.718-1.218 1.844 0 2.704 1.171.875 1.172.89 3.625zm-1.437-1.968q0-1.844-.516-2.672-.516-.844-1.64-.844-1.11 0-1.626.844-.5.828-.515 2.562v2.313q0 1.844.531 2.719.547.875 1.625.875 1.078 0 1.594-.829.515-.828.547-2.609v-2.36zm3.187-2.36q0-1.03.64-1.687.657-.672 1.688-.672 1.032 0 1.672.672.656.672.656 1.734v.547q0 1.031-.656 1.688-.656.656-1.656.656-1.016 0-1.688-.656-.656-.657-.656-1.735zm1.078.594q0 .61.344 1.016.344.39.922.39.547 0 .89-.375.344-.39.344-1.062v-.563q0-.609-.343-1-.329-.406-.907-.406-.578 0-.922.406-.328.391-.328 1.032zm4.453 5.797q0-1.016.657-1.672.656-.672 1.672-.672 1.03 0 1.687.656.656.657.656 1.75v.547q0 1.032-.656 1.703-.656.657-1.672.657-1.015 0-1.687-.656-.657-.657-.657-1.75zm1.079.61q0 .624.343 1.015.344.39.922.39.563 0 .89-.374.345-.391.345-1.063v-.578q0-.61-.344-1-.328-.39-.906-.39-.547 0-.907.39-.343.375-.343 1.031v.578zm-3.938 1.327-.828-.515 5.562-8.89.813.515zm-14.453-69.853h1.578v1.188h-1.578v2.64h-1.453v-2.64h-5.172v-.86l5.094-7.875h1.53v7.547zm-4.984 0h3.53v-5.578l-.171.313-3.36 5.265zm15.015-1.031q0 2.547-.875 3.781-.86 1.235-2.703 1.235-1.812 0-2.687-1.204-.875-1.218-.907-3.609v-1.937q0-2.5.86-3.72.875-1.218 2.718-1.218 1.844 0 2.704 1.172.875 1.172.89 3.625zm-1.437-1.969q0-1.844-.516-2.672-.516-.843-1.64-.843-1.11 0-1.626.843-.5.828-.515 2.563v2.312q0 1.844.531 2.72.547.874 1.625.874 1.078 0 1.594-.828.515-.828.547-2.61zm3.187-2.36q0-1.03.64-1.687.657-.672 1.688-.672 1.032 0 1.672.672.656.672.656 1.735v.547q0 1.03-.656 1.687-.656.656-1.656.656-1.016 0-1.688-.656-.656-.656-.656-1.734v-.547zm1.078.595q0 .609.344 1.015.344.39.922.39.547 0 .89-.374.344-.39.344-1.063v-.562q0-.61-.343-1-.329-.406-.907-.406-.578 0-.922.406-.328.39-.328 1.031zm4.453 5.796q0-1.015.657-1.671.656-.672 1.672-.672 1.03 0 1.687.656.656.656.656 1.75v.547q0 1.031-.656 1.703-.656.656-1.672.656-1.015 0-1.687-.656-.657-.656-.657-1.75zm1.079.61q0 .625.343 1.015.344.391.922.391.563 0 .89-.375.345-.39.345-1.062v-.579q0-.609-.344-1-.328-.39-.906-.39-.547 0-.907.39-.343.375-.343 1.032zm-3.938 1.328-.828-.516 5.562-8.89.813.515zm-14.875-77.416v1.235h-.266q-1.687.03-2.687 1-1 .968-1.156 2.718.89-1.031 2.453-1.031 1.484 0 2.36 1.047.89 1.047.89 2.703 0 1.766-.953 2.828-.953 1.047-2.563 1.047-1.64 0-2.656-1.25-1.016-1.266-1.016-3.234v-.563q0-3.14 1.344-4.797 1.344-1.656 3.984-1.703zm-1.906 5.125q-.735 0-1.36.453-.625.438-.875 1.11v.53q0 1.407.625 2.267.641.859 1.594.859.969 0 1.531-.719.563-.719.563-1.875 0-1.172-.578-1.89-.563-.735-1.5-.735zm12.36 1.406q0 2.547-.876 3.782-.86 1.234-2.703 1.234-1.812 0-2.687-1.203-.875-1.219-.907-3.61v-1.937q0-2.5.86-3.719.875-1.218 2.718-1.218 1.844 0 2.704 1.171.875 1.172.89 3.625v1.875zm-1.438-1.968q0-1.844-.516-2.672-.516-.844-1.64-.844-1.11 0-1.626.844-.5.828-.515 2.562v2.313q0 1.844.531 2.719.547.875 1.625.875 1.078 0 1.594-.829.515-.828.547-2.609v-2.36zm3.187-2.36q0-1.031.64-1.687.657-.672 1.688-.672 1.032 0 1.672.672.656.672.656 1.734v.547q0 1.031-.656 1.688-.656.656-1.656.656-1.016 0-1.688-.656-.656-.657-.656-1.735zm1.078.594q0 .61.344 1.016.344.39.922.39.547 0 .89-.375.344-.39.344-1.062v-.563q0-.61-.343-1-.329-.406-.907-.406-.578 0-.922.406-.328.39-.328 1.032zm4.453 5.797q0-1.016.657-1.672.656-.672 1.672-.672 1.03 0 1.687.656.656.657.656 1.75v.547q0 1.032-.656 1.703-.656.657-1.672.657-1.015 0-1.687-.657-.657-.656-.657-1.75zm1.079.61q0 .624.343 1.015.344.39.922.39.563 0 .89-.374.345-.391.345-1.063v-.578q0-.61-.344-1-.328-.39-.906-.39-.547 0-.907.39-.343.375-.343 1.031v.578zm-3.938 1.327-.828-.515 5.562-8.89.813.515zm-13.656-74.431q0 .844-.453 1.516-.438.656-1.203 1.03.89.391 1.406 1.126.515.734.515 1.656 0 1.484-1 2.36-.984.874-2.609.874-1.64 0-2.64-.875-.985-.89-.985-2.359 0-.922.5-1.656.516-.75 1.406-1.125-.765-.375-1.203-1.031-.437-.672-.437-1.516 0-1.438.922-2.281.921-.844 2.437-.844 1.5 0 2.422.844.922.843.922 2.281zm-1.172 5.297q0-.953-.61-1.547-.609-.61-1.593-.61-.969 0-1.563.594-.578.594-.578 1.563t.563 1.531q.578.547 1.61.547 1.015 0 1.593-.547.578-.562.578-1.531zm-2.172-7.235q-.86 0-1.39.532-.516.515-.516 1.422 0 .875.515 1.406.516.531 1.375.531.875 0 1.391-.531.531-.531.531-1.39 0-.876-.547-1.423-.53-.547-1.359-.547zm12.578 5.485q0 2.547-.875 3.781-.86 1.234-2.703 1.234-1.812 0-2.687-1.203-.875-1.218-.907-3.609v-1.938q0-2.5.86-3.718.875-1.219 2.718-1.219 1.844 0 2.704 1.172.875 1.172.89 3.625zm-1.437-1.969q0-1.844-.516-2.672-.516-.844-1.64-.844-1.11 0-1.626.844-.5.828-.515 2.563v2.312q0 1.844.531 2.719.547.875 1.625.875 1.078 0 1.594-.828.515-.828.547-2.61zm3.187-2.36q0-1.03.64-1.687.657-.672 1.688-.672 1.032 0 1.672.672.656.672.656 1.735v.546q0 1.032-.656 1.688-.656.656-1.656.656-1.016 0-1.688-.656-.656-.656-.656-1.734v-.547zm1.078.594q0 .61.344 1.016.344.39.922.39.547 0 .89-.374.344-.39.344-1.063v-.562q0-.61-.343-1-.329-.407-.907-.407-.578 0-.922.407-.328.39-.328 1.031zm4.453 5.797q0-1.015.657-1.672.656-.671 1.672-.671 1.03 0 1.687.656.656.656.656 1.75v.547q0 1.031-.656 1.703-.656.656-1.672.656-1.015 0-1.687-.656-.657-.656-.657-1.75zm1.079.61q0 .625.343 1.015.344.391.922.391.563 0 .89-.375.345-.39.345-1.063v-.578q0-.609-.344-1-.328-.39-.906-.39-.547 0-.907.39-.343.375-.343 1.032zm-3.938 1.328-.828-.516 5.562-8.89.813.515-5.547 8.89zm26.466 307.632 9.281-3.719-9.281-3.719v-1.937h11.375v1.5h-4.438l-4.781-.14 9.219 3.734v1.14l-9.188 3.735 4.75-.157h4.438v1.5h-11.375zm11.375-17.047q-.25.125-.89.203 1.046 1 1.046 2.406 0 1.25-.703 2.047-.719.797-1.797.797-1.328 0-2.047-1-.734-1-.734-2.828v-1.406h-.672q-.75 0-1.203.453-.453.453-.453 1.344 0 .765.39 1.296.39.516.953.516v1.453q-.64 0-1.218-.437-.594-.453-.938-1.22-.344-.78-.344-1.702 0-1.453.735-2.281.718-.829 2-.86h3.89q1.172 0 1.86-.297h.125zm-1.11 2.39q0-.671-.343-1.28-.36-.61-.922-.891h-1.735v1.14q0 2.657 1.563 2.657.672 0 1.062-.454.375-.453.375-1.171zm-3.03-13.312q1.937 0 3.124.89 1.172.876 1.172 2.376 0 1.547-.984 2.422h4.078v1.453h-11.704v-1.328l.937-.063q-1.094-.89-1.094-2.453 0-1.531 1.157-2.406 1.14-.89 3.187-.89h.125zm-.157 1.438q-1.438 0-2.266.609-.828.61-.828 1.672 0 1.312 1.172 1.969h4.031q1.156-.641 1.156-1.985 0-1.031-.812-1.64-.828-.625-2.453-.625zm2.047-8.22q-.578 0-.907.438-.328.438-.562 1.547-.234 1.094-.563 1.735-.328.64-.78.953-.454.312-1.079.312-1.031 0-1.75-.875-.719-.89-.719-2.25 0-1.437.75-2.328.735-.906 1.891-.906v1.453q-.594 0-1.016.516-.437.5-.437 1.265 0 .781.344 1.235.343.437.89.437.531 0 .797-.406.266-.422.516-1.5.234-1.078.578-1.75.328-.672.797-1 .468-.328 1.156-.328 1.125 0 1.812.906.688.906.688 2.36 0 1.015-.36 1.796-.359.781-1 1.219-.656.437-1.406.437v-1.437q.735-.047 1.157-.578.421-.547.421-1.438 0-.828-.328-1.312-.328-.5-.89-.5zm24.217 38.298q.828.578 1.25 1.61.407 1.03.407 2.405 0 1.39-.657 2.47-.656 1.077-1.859 1.67-1.203.595-2.781.61h-1q-2.563 0-3.97-1.203-1.42-1.203-1.42-3.375 0-1.781.905-2.86.907-1.093 2.578-1.327v1.5q-2.25.422-2.25 2.687 0 1.5 1.063 2.281 1.047.782 3.062.782h.922q1.922 0 3.047-.875 1.125-.875 1.125-2.36 0-.843-.187-1.468-.188-.641-.625-1.063h-2.563v2.64h-1.219v-4.124zm-2.812-2q-1.235 0-2.219-.485-1-.484-1.531-1.36-.547-.874-.547-1.983 0-1.735 1.203-2.797 1.188-1.063 3.172-1.063h.094q1.234 0 2.218.469.985.469 1.532 1.36.547.874.547 2.015 0 1.719-1.188 2.781-1.203 1.063-3.172 1.063h-.11zm.172-1.453q1.406 0 2.265-.641.844-.656.844-1.75 0-1.11-.86-1.75-.859-.656-2.421-.656-1.39 0-2.25.672-.86.656-.86 1.75 0 1.062.86 1.718.844.657 2.422.657zm-.172-7.547q-1.235 0-2.219-.485-1-.484-1.531-1.36-.547-.874-.547-1.983 0-1.735 1.203-2.797 1.188-1.063 3.172-1.063h.094q1.234 0 2.218.469.985.469 1.532 1.36.547.874.547 2.015 0 1.719-1.188 2.781-1.203 1.063-3.172 1.063h-.11zm.172-1.453q1.406 0 2.265-.641.844-.656.844-1.75 0-1.11-.86-1.75-.859-.656-2.421-.656-1.39 0-2.25.672-.86.656-.86 1.75 0 1.062.86 1.718.844.657 2.422.657zm-.157-7.579q-1.984 0-3.14-.906-1.172-.922-1.172-2.437 0-1.547 1.094-2.407l-.938-.078v-1.312h8.25q1.64 0 2.578.969.953.968.953 2.609 0 .922-.39 1.797-.39.875-1.063 1.328l-.875-.75q1.157-.922 1.157-2.266 0-1.062-.594-1.64-.594-.594-1.688-.594h-.718q1 .86 1 2.36 0 1.484-1.188 2.406-1.203.921-3.266.921zm.157-1.453q1.437 0 2.25-.578.812-.594.812-1.656 0-1.36-1.234-2h-3.86q-1.218.656-1.218 1.984 0 1.063.828 1.657.812.593 2.422.593zm4.14-9.468v1.453h-12v-1.453zm.157-5.938q0 1.719-1.125 2.797-1.141 1.078-3.032 1.078h-.265q-1.25 0-2.235-.469-1-.484-1.547-1.343-.562-.875-.562-1.875 0-1.657 1.094-2.563 1.078-.922 3.093-.922h.61v5.735q1.25-.032 2.015-.735.766-.703.766-1.781 0-.766-.312-1.297-.313-.531-.829-.922l.688-.89q1.64 1.062 1.64 3.187zm-7.579.188q0 .875.641 1.468.625.594 1.781.735v-4.235h-.109q-1.11.063-1.703.594-.61.531-.61 1.438zm29.656 53.593v-5.39h1.234v6.89h-11.375v-1.5h10.14zm1.234-8.843v1.453h-8.453v-1.453zm-10.703 1.562q-.344 0-.578-.203-.25-.219-.25-.64 0-.423.25-.641.234-.22.593-.22.344 0 .579.22.234.218.234.64 0 .422-.234.64-.235.204-.594.204zm2.25-5.36 1.062-.046q-1.218-.969-1.218-2.531 0-2.672 3.015-2.704h5.594v1.454h-5.594q-.922 0-1.36.421-.437.407-.437 1.266 0 .703.375 1.234.375.532.985.829h6.03v1.453h-8.452v-1.375zm4.531-9.984.953.907h2.969v1.437h-12v-1.437h7.25l-.922-.782-2.781-2.625v-1.765l3.531 3.297 4.922-3.672v1.687zm4.078-9.156q0 1.719-1.125 2.797-1.14 1.078-3.031 1.078h-.266q-1.25 0-2.234-.469-1-.484-1.547-1.343-.562-.875-.562-1.875 0-1.657 1.093-2.563 1.078-.922 3.094-.922h.61v5.735q1.25-.032 2.015-.735.766-.703.766-1.781 0-.766-.313-1.297-.312-.531-.828-.922l.688-.89q1.64 1.062 1.64 3.187zm-7.578.188q0 .875.64 1.468.626.594 1.782.735v-4.235h-.11q-1.109.063-1.703.594-.609.531-.609 1.438zm3.125-4.329q-1.953 0-3.125-.921-1.187-.922-1.187-2.407 0-1.484 1.015-2.36h-4.406v-1.437h12v1.329l-.906.062q1.062.875 1.062 2.422 0 1.469-1.203 2.39-1.203.922-3.14.922zm.156-1.437q1.438 0 2.25-.594.813-.594.813-1.64 0-1.375-1.235-2.016h-3.875q-1.203.656-1.203 2 0 1.062.828 1.656.813.594 2.422.594zm4.141-9.75v1.5h-11.375v-1.5zm-8.453-3.531 1.062-.047q-1.218-.969-1.218-2.531 0-2.672 3.015-2.704h5.594v1.454h-5.594q-.922 0-1.36.421-.437.407-.437 1.266 0 .703.375 1.234.375.532.985.829h6.03v1.453h-8.452zm26.249 34.672-5.703-2.97v-1.702l7.125 3.922h4.25v1.5h-4.25l-7.125 3.921v-1.718zm5.672-11.516q-.25.125-.891.203 1.047 1 1.047 2.406 0 1.25-.703 2.047-.719.797-1.797.797-1.328 0-2.047-1-.734-1-.734-2.828v-1.406h-.672q-.75 0-1.203.453-.454.453-.454 1.344 0 .765.391 1.296.39.516.953.516v1.453q-.64 0-1.219-.437-.593-.453-.937-1.22-.344-.78-.344-1.702 0-1.453.735-2.281.718-.829 2-.86h3.89q1.172 0 1.86-.297h.125zm-1.11 2.39q0-.671-.344-1.28-.359-.61-.921-.891h-1.735v1.14q0 2.657 1.563 2.657.672 0 1.062-.454.375-.453.375-1.171zm-6.328-7.624q-1.172-.954-1.172-2.5 0-2.672 3.016-2.704h5.594v1.454h-5.594q-.922 0-1.36.421-.437.407-.437 1.266 0 .703.375 1.234.375.532.984.829h6.032v1.453h-12v-1.453zm3.125-7.172q-1.234 0-2.219-.485-1-.484-1.53-1.36-.548-.874-.548-1.983 0-1.735 1.203-2.797 1.188-1.063 3.172-1.063h.094q1.234 0 2.219.469.984.469 1.531 1.36.547.874.547 2.015 0 1.719-1.188 2.781-1.203 1.063-3.172 1.063zm.172-1.453q1.406 0 2.266-.641.843-.656.843-1.75 0-1.11-.859-1.75-.86-.656-2.422-.656-1.39 0-2.25.672-.86.656-.86 1.75 0 1.062.86 1.718.844.657 2.422.657zm-.172-7.547q-1.234 0-2.219-.485-1-.484-1.53-1.36-.548-.874-.548-1.983 0-1.735 1.203-2.797 1.188-1.063 3.172-1.063h.094q1.234 0 2.219.469.984.469 1.531 1.36.547.874.547 2.015 0 1.719-1.188 2.781-1.203 1.063-3.172 1.063zm.172-1.453q1.406 0 2.266-.641.843-.656.843-1.75 0-1.11-.859-1.75-.86-.656-2.422-.656-1.39 0-2.25.672-.86.656-.86 1.75 0 1.062.86 1.718.844.657 2.422.657zm22.577 54.578v4.765h5.031v1.5h-11.374v-7.047h1.235v5.547h3.89v-4.765h1.219zm5.031-7.72q-.25.126-.89.204 1.046 1 1.046 2.406 0 1.25-.703 2.047-.718.797-1.797.797-1.328 0-2.046-1-.735-1-.735-2.828v-1.406h-.672q-.75 0-1.203.453-.453.453-.453 1.344 0 .765.39 1.296.391.516.954.516v1.453q-.64 0-1.219-.437-.594-.453-.937-1.22-.344-.78-.344-1.702 0-1.453.734-2.281.719-.829 2-.86h3.89q1.173 0 1.86-.297h.125v1.516zm-1.11 2.392q0-.672-.343-1.282-.36-.61-.922-.89h-1.734v1.14q0 2.657 1.562 2.657.672 0 1.063-.454.375-.453.375-1.171zm.079-9.563q0-.781-.469-1.36-.469-.577-1.172-.64v-1.36q.735.032 1.39.5.657.454 1.048 1.235.39.766.39 1.625 0 1.719-1.156 2.75-1.156 1.016-3.156 1.016h-.234q-1.235 0-2.188-.453-.969-.454-1.5-1.297-.531-.86-.531-2.016 0-1.422.86-2.36.843-.937 2.202-1v1.36q-.828.063-1.343.625-.532.563-.532 1.375 0 1.11.797 1.719.781.594 2.281.594h.282q1.453 0 2.25-.594.78-.61.78-1.719zm1.187-8.125q0 1.719-1.125 2.797-1.14 1.078-3.03 1.078h-.266q-1.25 0-2.235-.469-1-.484-1.547-1.343-.562-.875-.562-1.875 0-1.657 1.094-2.563 1.078-.922 3.093-.922h.61v5.735q1.25-.032 2.015-.735.766-.703.766-1.781 0-.766-.313-1.297-.312-.531-.828-.922l.688-.89q1.64 1.062 1.64 3.187zm-7.578.188q0 .875.64 1.468.626.594 1.782.735v-4.235h-.11q-1.109.063-1.702.594-.61.531-.61 1.438zm3.282-11.829q1.937 0 3.125.891 1.171.89 1.171 2.39 0 1.594-1.14 2.47l.984.078v1.328h-12v-1.453h4.469q-1.078-.875-1.078-2.407 0-1.547 1.172-2.422 1.156-.875 3.172-.875zm-.157 1.438q-1.484 0-2.28.578-.813.563-.813 1.64 0 1.423 1.328 2.048h3.656q1.328-.657 1.328-2.063 0-1.047-.797-1.625-.812-.578-2.422-.578zm-.015-2.906q-1.235 0-2.22-.485-1-.484-1.53-1.36-.547-.874-.547-1.983 0-1.735 1.203-2.797 1.187-1.063 3.172-1.063h.094q1.234 0 2.218.469.985.469 1.532 1.36.546.874.546 2.015 0 1.719-1.187 2.781-1.203 1.063-3.172 1.063h-.11zm.172-1.453q1.406 0 2.265-.641.844-.656.844-1.75 0-1.11-.86-1.75-.859-.656-2.421-.656-1.39 0-2.25.672-.86.656-.86 1.75 0 1.062.86 1.718.843.657 2.422.657zm-.172-7.547q-1.235 0-2.22-.485-1-.484-1.53-1.36-.547-.874-.547-1.983 0-1.735 1.203-2.797 1.187-1.063 3.172-1.063h.094q1.234 0 2.218.469.985.469 1.532 1.36.546.874.546 2.015 0 1.719-1.187 2.781-1.203 1.063-3.172 1.063h-.11zm.172-1.453q1.406 0 2.265-.641.844-.656.844-1.75 0-1.11-.86-1.75-.859-.656-2.421-.656-1.39 0-2.25.672-.86.656-.86 1.75 0 1.062.86 1.718.843.657 2.422.657zm.218-10.282.953.907h2.97v1.437h-12v-1.437h7.25l-.923-.782-2.78-2.625v-1.765l3.53 3.297 4.922-3.672v1.687zm22.124 22.703v4.922h4.031v-5.718h1.235v7.218h-11.375v-7.14h1.234v5.64h3.656v-4.922h1.22zm1.125-9.5q1.938 0 3.125.891 1.172.89 1.172 2.39 0 1.594-1.14 2.47l.984.078v1.328h-12v-1.453h4.469q-1.079-.875-1.079-2.407 0-1.547 1.172-2.422 1.157-.875 3.172-.875zm-.156 1.438q-1.484 0-2.281.578-.813.563-.813 1.64 0 1.423 1.328 2.048h3.657q1.328-.657 1.328-2.063 0-1.047-.797-1.625-.813-.578-2.422-.578zm4.297-8.5q-.25.125-.89.203 1.046 1 1.046 2.406 0 1.25-.703 2.047-.719.797-1.797.797-1.328 0-2.047-1-.734-1-.734-2.828v-1.406h-.672q-.75 0-1.203.453-.453.453-.453 1.344 0 .765.39 1.296.39.516.953.516v1.453q-.64 0-1.218-.437-.594-.453-.938-1.22-.344-.78-.344-1.702 0-1.453.735-2.281.719-.829 2-.86h3.89q1.172 0 1.86-.297h.125zm-1.11 2.39q0-.671-.343-1.28-.36-.61-.922-.891h-1.735v1.14q0 2.657 1.563 2.657.672 0 1.062-.454.375-.453.375-1.171zm-1.015-8.937-6.328-1.969v-1.547l9.765 3.391q2.11.797 2.11 2.516l-.032.265-.093.547h-1.172l.031-.39q0-.735-.297-1.141-.297-.422-1.094-.688l-.859-.312-8.36 3.016v-1.579zm22.623 47.25v4.766l2.97 1.078v1.547l-11.376-4.344v-1.313l11.375-4.359v1.547l-2.968 1.078zm-1.234 4.313v-3.86l-5.328 1.938zm-4.25-9.157.938-.047q-1.094-.921-1.094-2.5 0-1.78 1.36-2.421-.61-.422-.985-1.094-.375-.672-.375-1.594 0-2.781 2.938-2.828h5.671v1.437h-5.578q-.906 0-1.359.422-.453.407-.453 1.39 0 .798.484 1.33.485.53 1.297.624h5.61v1.453h-5.547q-1.844 0-1.844 1.797 0 1.422 1.219 1.953h6.171v1.438h-8.453zm8.453-17.86q-.25.126-.89.204 1.047 1 1.047 2.406 0 1.25-.703 2.047-.72.797-1.797.797-1.328 0-2.047-1-.735-1-.735-2.828v-1.406h-.671q-.75 0-1.204.453-.453.453-.453 1.344 0 .765.391 1.296.39.516.953.516v1.453q-.64 0-1.219-.437-.593-.453-.937-1.22-.344-.78-.344-1.702 0-1.453.734-2.281.72-.829 2-.86h3.891q1.172 0 1.86-.297h.124v1.516zm-1.109 2.392q0-.672-.344-1.282-.359-.61-.922-.89h-1.734v1.14q0 2.657 1.563 2.657.671 0 1.062-.454.375-.453.375-1.171zm-.078-7.532v-4.953h1.187v6.719h-1.062l-6.203-4.672v4.594h-1.188v-6.406h1.016zm-3.125-6.265q-1.234 0-2.219-.485-1-.484-1.531-1.36-.547-.874-.547-1.983 0-1.735 1.203-2.797 1.188-1.063 3.172-1.063h.094q1.234 0 2.219.469.984.469 1.53 1.36.548.874.548 2.015 0 1.719-1.188 2.781-1.203 1.063-3.172 1.063zm.172-1.453q1.406 0 2.265-.641.844-.656.844-1.75 0-1.11-.86-1.75-.859-.656-2.421-.656-1.39 0-2.25.672-.86.656-.86 1.75 0 1.062.86 1.718.844.657 2.422.657zm-4.313-9.297 1.063-.047q-1.219-.969-1.219-2.531 0-2.672 3.016-2.704h5.593v1.454h-5.593q-.922 0-1.36.421-.437.407-.437 1.266 0 .703.375 1.234.375.532.984.829h6.031v1.453h-8.453zm27.312 32.968v2.672h4.61v1.516h-11.376v-3.766q0-1.922.875-2.953.875-1.047 2.547-1.047 1.062 0 1.86.578.78.579 1.171 1.594l4.828-2.672h.094v1.61l-4.61 2.468zm-1.219 2.672v-2.297q0-1.125-.578-1.78-.578-.657-1.547-.657-1.063 0-1.625.625-.563.625-.563 1.812v2.297zm5.984-11.78q0 1.718-1.125 2.796-1.14 1.078-3.03 1.078h-.267q-1.25 0-2.234-.469-1-.484-1.547-1.343-.562-.875-.562-1.875 0-1.657 1.093-2.563 1.079-.922 3.094-.922h.61v5.735q1.25-.032 2.015-.735.766-.703.766-1.781 0-.766-.313-1.297-.312-.531-.828-.922l.688-.89q1.64 1.062 1.64 3.187zm-7.578.187q0 .875.64 1.468.626.594 1.782.735v-4.235h-.11q-1.109.063-1.702.594-.61.531-.61 1.438zm3.125-4.329q-1.953 0-3.125-.921-1.187-.922-1.187-2.407 0-1.484 1.015-2.36h-4.406v-1.437h12v1.329l-.906.062q1.062.875 1.062 2.422 0 1.469-1.203 2.39-1.203.922-3.14.922zm.156-1.437q1.438 0 2.25-.594.813-.594.813-1.64 0-1.375-1.234-2.016h-3.875q-1.204.656-1.204 2 0 1.062.829 1.656.812.594 2.421.594zm-.156-7.563q-1.953 0-3.125-.921-1.187-.922-1.187-2.407 0-1.484 1.015-2.36h-4.406v-1.437h12v1.329l-.906.062q1.062.875 1.062 2.422 0 1.469-1.203 2.39-1.203.922-3.14.922zm.156-1.437q1.438 0 2.25-.594.813-.594.813-1.64 0-1.375-1.234-2.016h-3.875q-1.204.656-1.204 2 0 1.062.829 1.656.812.594 2.421.594zm4.141-9.484v1.453h-8.453v-1.453zm-10.703 1.562q-.344 0-.578-.203-.25-.219-.25-.64 0-.423.25-.641.234-.22.594-.22.343 0 .578.22.234.218.234.64 0 .422-.234.64-.235.204-.594.204zm.203-5.953h2.047v-1.578h1.11v1.578h5.25q.5 0 .765-.203.25-.219.25-.719 0-.25-.094-.687h1.172q.156.562.156 1.109 0 .969-.578 1.469-.594.484-1.672.484h-5.25v1.531h-1.109v-1.53h-2.047zm30.358 20.375q1.797.203 2.782 1.328.984 1.125.984 2.984 0 2.016-1.438 3.235-1.453 1.203-3.875 1.203h-1.093q-1.594 0-2.797-.563-1.203-.562-1.844-1.593-.64-1.047-.64-2.422 0-1.813 1.015-2.906 1-1.094 2.797-1.266v1.5q-1.36.203-1.969.86-.61.64-.61 1.812 0 1.437 1.063 2.265 1.063.813 3.016.813h1.11q1.843 0 2.937-.766 1.094-.78 1.094-2.172 0-1.25-.563-1.921-.562-.672-1.969-.891zm3.61-10.375v1.5l-8.766 5.734h8.766v1.5h-11.375v-1.5l8.797-5.75h-8.797v-1.484zm0-11v1.5l-8.766 5.734h8.766v1.5h-11.375v-1.5l8.797-5.75h-8.797v-1.484zm19.874 64.282 1.5-.22-1.344-.312-7.938-2.25v-1.266l7.938-2.203 1.375-.312-1.531-.235-7.782-1.765v-1.516l11.375 2.766v1.36l-8.297 2.343-.859.187.86.172 8.296 2.438v1.36l-11.375 2.75v-1.5l7.782-1.798zm3.593-12.891v1.453h-8.453v-1.453zm-10.703 1.562q-.344 0-.578-.203-.25-.219-.25-.64 0-.423.25-.641.234-.22.594-.22.344 0 .578.22.234.218.234.64 0 .422-.234.64-.234.204-.594.204zm6.781-6.344.954.907h2.968v1.437h-12v-1.437h7.25l-.922-.782-2.78-2.625v-1.765l3.53 3.297 4.922-3.672v1.687zm3.922-7.218v1.453h-8.453v-1.453zm-10.703 1.562q-.344 0-.578-.203-.25-.219-.25-.64 0-.423.25-.641.234-.22.594-.22.344 0 .578.22.234.218.234.64 0 .422-.234.64-.234.204-.594.204zm6.563-11.125q1.937 0 3.125.89 1.172.876 1.172 2.376 0 1.547-.985 2.422h4.078v1.453h-11.702v-1.328l.938-.063q-1.094-.89-1.094-2.453 0-1.531 1.156-2.406 1.14-.89 3.188-.89h.125zm-.157 1.438q-1.437 0-2.265.609-.828.61-.828 1.672 0 1.312 1.172 1.969h4.03q1.157-.641 1.157-1.985 0-1.031-.812-1.64-.829-.625-2.454-.625zm4.454-6.813q0 1.719-1.125 2.797-1.141 1.078-3.032 1.078h-.265q-1.25 0-2.235-.469-1-.484-1.547-1.343-.562-.875-.562-1.875 0-1.657 1.094-2.563 1.078-.922 3.093-.922h.61v5.735q1.25-.032 2.015-.735.766-.703.766-1.781 0-.766-.312-1.297-.313-.531-.829-.922l.688-.89q1.64 1.062 1.64 3.187zm-7.579.188q0 .875.641 1.468.625.594 1.781.735v-4.235h-.11q-1.108.063-1.702.594-.61.531-.61 1.438zm3.125-4.329q-1.953 0-3.125-.921-1.187-.922-1.187-2.407 0-1.484 1.016-2.36h-4.407v-1.437h12v1.329l-.906.062q1.063.875 1.063 2.422 0 1.469-1.204 2.39-1.203.922-3.14.922zm.157-1.437q1.437 0 2.25-.594.812-.594.812-1.64 0-1.375-1.234-2.016h-3.875q-1.203.656-1.203 2 0 1.062.828 1.656.812.594 2.422.594zm4.14-9.484v1.453h-8.453v-1.453zm-10.703 1.562q-.344 0-.578-.203-.25-.219-.25-.64 0-.423.25-.641.234-.22.594-.22.344 0 .578.22.234.218.234.64 0 .422-.234.64-.234.204-.594.204zm10.703-9.203q-.25.125-.89.203 1.047 1 1.047 2.406 0 1.25-.704 2.047-.718.797-1.796.797-1.329 0-2.047-1-.735-1-.735-2.828v-1.406h-.672q-.75 0-1.203.453-.453.453-.453 1.344 0 .765.39 1.296.391.516.954.516v1.453q-.64 0-1.219-.437-.594-.453-.937-1.22-.344-.78-.344-1.702 0-1.453.734-2.281.72-.829 2-.86h3.89q1.173 0 1.86-.297h.125zm-1.11 2.39q0-.671-.343-1.28-.36-.61-.922-.891h-1.734v1.14q0 2.657 1.562 2.657.672 0 1.063-.454.375-.453.375-1.171zm20.984 60.142 1.5-.22-1.344-.312-7.937-2.25v-1.266l7.937-2.203 1.375-.312-1.53-.235-7.782-1.765v-1.516l11.375 2.766v1.36l-8.297 2.343-.86.187.86.172 8.297 2.438v1.36l-11.375 2.75v-1.5l7.781-1.798zm3.594-12.891v1.453h-8.453v-1.453zm-10.703 1.562q-.344 0-.578-.203-.25-.219-.25-.64 0-.423.25-.641.234-.22.593-.22.344 0 .579.22.234.218.234.64 0 .422-.234.64-.235.204-.594.204zm6.781-6.344.953.907h2.969v1.437h-12v-1.437h7.25l-.922-.782-2.781-2.625v-1.765l3.531 3.297 4.922-3.672v1.687zm3.922-7.218v1.453h-8.453v-1.453zm-10.703 1.562q-.344 0-.578-.203-.25-.219-.25-.64 0-.423.25-.641.234-.22.593-.22.344 0 .579.22.234.218.234.64 0 .422-.234.64-.235.204-.594.204zm6.562-11.125q1.938 0 3.125.89 1.172.876 1.172 2.376 0 1.547-.984 2.422h4.078v1.453h-11.703v-1.328l.937-.063q-1.093-.89-1.093-2.453 0-1.531 1.156-2.406 1.14-.89 3.187-.89h.125zm-.156 1.438q-1.437 0-2.266.609-.828.61-.828 1.672 0 1.312 1.172 1.969h4.031q1.157-.641 1.157-1.985 0-1.031-.813-1.64-.828-.625-2.453-.625zm4.453-6.813q0 1.719-1.125 2.797-1.14 1.078-3.031 1.078h-.266q-1.25 0-2.234-.469-1-.484-1.547-1.343-.562-.875-.562-1.875 0-1.657 1.093-2.563 1.078-.922 3.094-.922h.61v5.735q1.25-.032 2.015-.735.766-.703.766-1.781 0-.766-.313-1.297-.312-.531-.828-.922l.688-.89q1.64 1.062 1.64 3.187zm-7.578.188q0 .875.64 1.468.626.594 1.782.735v-4.235h-.11q-1.109.063-1.703.594-.609.531-.609 1.438zm3.125-4.329q-1.953 0-3.125-.921-1.187-.922-1.187-2.407 0-1.484 1.015-2.36h-4.406v-1.437h12v1.329l-.906.062q1.062.875 1.062 2.422 0 1.469-1.203 2.39-1.203.922-3.14.922zm.156-1.437q1.438 0 2.25-.594.813-.594.813-1.64 0-1.375-1.235-2.016h-3.875q-1.203.656-1.203 2 0 1.062.828 1.656.813.594 2.422.594zm4.14-9.484v1.453h-8.452v-1.453h8.453zm-10.702 1.562q-.344 0-.578-.203-.25-.219-.25-.64 0-.423.25-.641.234-.22.593-.22.344 0 .579.22.234.218.234.64 0 .422-.234.64-.235.204-.594.204zm10.703-9.203q-.25.125-.89.203 1.046 1 1.046 2.406 0 1.25-.703 2.047-.719.797-1.797.797-1.328 0-2.047-1-.734-1-.734-2.828v-1.406h-.672q-.75 0-1.203.453-.453.453-.453 1.344 0 .765.39 1.296.391.516.954.516v1.453q-.641 0-1.22-.437-.593-.453-.937-1.22-.343-.78-.343-1.702 0-1.453.734-2.281.719-.829 2-.86h3.89q1.172 0 1.86-.297h.125zm-1.11 2.39q0-.671-.343-1.28-.36-.61-.922-.891h-1.734v1.14q0 2.657 1.562 2.657.672 0 1.063-.454.375-.453.375-1.171zm14.437 34.735v3.656h10.14v1.5h-10.14v3.64h-1.234v-8.796zm8.14-9.39-6.453-1.626v-1.453l8.454 2.469v1.172l-6.407 2.047 6.407 2v1.172l-8.454 2.453v-1.438l6.329-1.656-6.329-1.969v-1.172l6.454-2zm2-6.094v1.453h-8.453v-1.453h8.454zm-10.703 1.562q-.343 0-.578-.203-.25-.219-.25-.64 0-.423.25-.641.235-.22.594-.22.344 0 .578.22.235.218.235.64 0 .422-.235.64-.234.204-.594.204zm.204-5.953h2.046v-1.578h1.11v1.578h5.25q.5 0 .765-.203.25-.219.25-.719 0-.25-.093-.687h1.172q.156.562.156 1.109 0 .969-.578 1.469-.594.484-1.672.484h-5.25v1.531h-1.11v-1.53h-2.046zm0-5h2.046v-1.578h1.11v1.578h5.25q.5 0 .765-.203.25-.219.25-.719 0-.25-.093-.687h1.172q.156.562.156 1.109 0 .969-.578 1.469-.594.484-1.672.484h-5.25v1.531h-1.11v-1.53h-2.046zm10.656-6.547q0 1.719-1.125 2.797-1.14 1.078-3.031 1.078h-.266q-1.25 0-2.234-.469-1-.484-1.547-1.343-.563-.875-.563-1.875 0-1.657 1.094-2.563 1.078-.922 3.094-.922h.61v5.735q1.25-.032 2.015-.735.765-.703.765-1.781 0-.766-.312-1.297-.313-.531-.828-.922l.687-.89q1.64 1.062 1.64 3.187zm-7.578.188q0 .875.64 1.468.625.594 1.782.735v-4.235h-.11q-1.11.063-1.703.594-.61.531-.61 1.438zm.265-8.766q-.062.328-.062.719 0 1.422 1.219 1.922h6v1.453h-8.454v-1.407l.97-.03q-1.126-.704-1.126-2.016 0-.422.11-.641zm24.952 59.391-5.703-2.97v-1.702l7.125 3.922h4.25v1.5h-4.25l-7.125 3.921v-1.718zm1.36-5.922q-1.235 0-2.22-.485-1-.484-1.53-1.36-.547-.874-.547-1.983 0-1.735 1.203-2.797 1.187-1.063 3.172-1.063h.094q1.234 0 2.218.469.985.469 1.532 1.36.546.874.546 2.015 0 1.719-1.187 2.781-1.203 1.063-3.172 1.063h-.11zm.172-1.453q1.406 0 2.265-.641.844-.656.844-1.75 0-1.11-.86-1.75-.859-.656-2.421-.656-1.39 0-2.25.672-.86.656-.86 1.75 0 1.062.86 1.718.843.657 2.422.657zm3.296-13.141q1 .844 1 2.469 0 1.36-.78 2.062-.798.703-2.329.719h-5.5v-1.453h5.453q1.922 0 1.922-1.563 0-1.656-1.234-2.203h-6.14v-1.437h8.452v1.375l-.844.03zm-9.296-11.875v3.656h10.14v1.5h-10.14v3.64h-1.235v-8.796zm9.296-7.125q1 .844 1 2.469 0 1.36-.78 2.062-.798.703-2.329.719h-5.5v-1.453h5.453q1.922 0 1.922-1.563 0-1.656-1.234-2.203h-6.14v-1.437h8.452v1.375l-.844.03zm-3.296-10.938q1.937 0 3.125.891 1.171.89 1.171 2.39 0 1.594-1.14 2.47l.984.078v1.328h-12v-1.453h4.469q-1.078-.875-1.078-2.407 0-1.547 1.172-2.422 1.156-.875 3.172-.875zm-.157 1.438q-1.484 0-2.28.578-.813.563-.813 1.64 0 1.423 1.328 2.048h3.656q1.328-.657 1.328-2.063 0-1.047-.797-1.625-.812-.578-2.422-.578zm4.453-6.797q0 1.719-1.125 2.797-1.14 1.078-3.03 1.078h-.266q-1.25 0-2.235-.469-1-.484-1.547-1.343-.562-.875-.562-1.875 0-1.657 1.094-2.563 1.078-.922 3.093-.922h.61v5.735q1.25-.032 2.015-.735.766-.703.766-1.781 0-.766-.313-1.297-.312-.531-.828-.922l.688-.89q1.64 1.062 1.64 3.187zm-7.578.188q0 .875.64 1.468.626.594 1.782.735v-4.235h-.11q-1.109.063-1.702.594-.61.531-.61 1.438zm30.89 65.484v1.5h-11.375v-1.5zm-8.453-3.531 1.062-.047q-1.219-.969-1.219-2.531 0-2.672 3.016-2.704h5.594v1.454h-5.594q-.922 0-1.36.421-.437.407-.437 1.266 0 .703.375 1.234.375.532.985.829h6.03v1.453h-8.452zm6.203-12.547q-.578 0-.906.437-.329.438-.563 1.547-.234 1.094-.562 1.735-.329.64-.782.953-.453.312-1.078.312-1.031 0-1.75-.875-.719-.89-.719-2.25 0-1.437.75-2.328.735-.906 1.891-.906v1.453q-.594 0-1.016.516-.437.5-.437 1.265 0 .781.344 1.235.343.437.89.437.532 0 .797-.406.266-.422.516-1.5.234-1.078.578-1.75.328-.672.797-1 .469-.328 1.156-.328 1.125 0 1.813.906.687.906.687 2.36 0 1.015-.36 1.796-.359.781-1 1.219-.656.437-1.406.437v-1.437q.735-.047 1.157-.578.422-.547.422-1.438 0-.828-.329-1.312-.328-.5-.89-.5zm-8.25-5.047h2.047v-1.578h1.11v1.578h5.25q.5 0 .765-.203.25-.219.25-.719 0-.25-.094-.687h1.172q.156.562.156 1.109 0 .969-.578 1.469-.594.484-1.672.484h-5.25v1.531h-1.11v-1.531h-2.046zm10.5-8.25q-.25.125-.89.203 1.046 1 1.046 2.406 0 1.25-.703 2.047-.719.797-1.797.797-1.328 0-2.047-1-.734-1-.734-2.828v-1.406h-.672q-.75 0-1.203.453-.453.453-.453 1.344 0 .765.39 1.296.39.516.953.516v1.453q-.64 0-1.218-.437-.594-.453-.938-1.22-.344-.78-.344-1.702 0-1.453.735-2.281.719-.829 2-.86h3.89q1.172 0 1.86-.297h.125zm-1.11 2.39q0-.671-.343-1.28-.36-.61-.922-.891h-1.735v1.14q0 2.657 1.563 2.657.672 0 1.062-.454.375-.453.375-1.171zm-3.187-5.828q-1.984 0-3.14-.906-1.173-.922-1.173-2.437 0-1.547 1.094-2.407l-.937-.078v-1.312h8.25q1.64 0 2.578.969.953.968.953 2.609 0 .922-.39 1.797-.391.875-1.063 1.328l-.875-.75q1.156-.922 1.156-2.266 0-1.062-.594-1.64-.593-.594-1.687-.594h-.719q1 .86 1 2.36 0 1.484-1.187 2.406-1.204.921-3.266.921zm.156-1.453q1.438 0 2.25-.578.813-.594.813-1.656 0-1.36-1.235-2h-3.86q-1.218.656-1.218 1.984 0 1.063.828 1.657.813.593 2.422.593zm-3.015-11.984q-.063.328-.063.719 0 1.422 1.219 1.922h6v1.453h-8.453v-1.407l.968-.03q-1.125-.704-1.125-2.016 0-.422.11-.641zm7.156-6.125q-.25.125-.89.203 1.046 1 1.046 2.406 0 1.25-.703 2.047-.719.797-1.797.797-1.328 0-2.047-1-.734-1-.734-2.828v-1.406h-.672q-.75 0-1.203.453-.453.453-.453 1.344 0 .765.39 1.296.39.516.953.516v1.453q-.64 0-1.218-.437-.594-.453-.938-1.22-.344-.78-.344-1.702 0-1.453.735-2.281.719-.829 2-.86h3.89q1.172 0 1.86-.297h.125zm-1.11 2.39q0-.671-.343-1.28-.36-.61-.922-.891h-1.735v1.14q0 2.657 1.563 2.657.672 0 1.062-.454.375-.453.375-1.171zm-7.343-7.53.937-.048q-1.094-.921-1.094-2.5 0-1.78 1.36-2.421-.61-.422-.985-1.094-.375-.672-.375-1.594 0-2.781 2.938-2.828h5.672v1.437h-5.578q-.907 0-1.36.422-.453.407-.453 1.39 0 .798.485 1.329.484.531 1.296.625h5.61v1.453h-5.547q-1.844 0-1.844 1.797 0 1.422 1.219 1.953h6.172v1.438h-8.453v-1.36zm27.467 47.624h4.453v1.5h-11.375v-4.187q0-1.875.954-2.922.953-1.063 2.515-1.063 1.656 0 2.563 1.032.89 1.03.89 2.968zm-1.234 0v-2.687q0-1.203-.563-1.844-.562-.64-1.64-.64-1.016 0-1.625.64-.61.64-.625 1.75v2.781zm5.687-9.843v1.453h-8.453v-1.453zm-10.703 1.562q-.343 0-.578-.203-.25-.219-.25-.64 0-.423.25-.641.235-.22.594-.22.344 0 .578.22.234.218.234.64 0 .422-.234.64-.234.204-.594.204zm2.25-5.36 1.063-.046q-1.219-.969-1.219-2.531 0-2.672 3.016-2.704h5.593v1.454h-5.593q-.922 0-1.36.421-.437.407-.437 1.266 0 .703.375 1.234.375.532.984.829h6.031v1.453h-8.453v-1.375zm-2.047-9.593h2.047v-1.578h1.11v1.578h5.25q.5 0 .765-.203.25-.219.25-.719 0-.25-.093-.687h1.171q.157.562.157 1.109 0 .969-.578 1.469-.594.484-1.672.484h-5.25v1.531h-1.11v-1.53h-2.047zm10.657-6.547q0 1.719-1.125 2.797-1.14 1.078-3.032 1.078h-.265q-1.25 0-2.235-.469-1-.484-1.546-1.343-.563-.875-.563-1.875 0-1.657 1.094-2.563 1.078-.922 3.094-.922h.609v5.735q1.25-.032 2.016-.735.765-.703.765-1.781 0-.766-.312-1.297-.313-.531-.828-.922l.687-.89q1.64 1.062 1.64 3.187zm-7.578.188q0 .875.64 1.468.625.594 1.781.735v-4.235h-.109q-1.11.063-1.703.594-.61.531-.61 1.438zm.265-8.766q-.062.328-.062.719 0 1.422 1.218 1.922h6v1.453h-8.453v-1.407l.97-.03q-1.126-.704-1.126-2.016 0-.422.11-.641zm7.313-4.422q0 1.719-1.125 2.797-1.14 1.078-3.032 1.078h-.265q-1.25 0-2.235-.469-1-.484-1.546-1.343-.563-.875-.563-1.875 0-1.657 1.094-2.563 1.078-.922 3.094-.922h.609v5.735q1.25-.032 2.016-.735.765-.703.765-1.781 0-.766-.312-1.297-.313-.531-.828-.922l.687-.89q1.64 1.062 1.64 3.187zm-7.578.188q0 .875.64 1.468.625.594 1.781.735v-4.235h-.109q-1.11.063-1.703.594-.61.531-.61 1.438zm5.171-9.594q-.578 0-.906.437-.328.438-.562 1.547-.235 1.094-.563 1.735-.328.64-.781.953-.453.312-1.078.312-1.031 0-1.75-.875-.719-.89-.719-2.25 0-1.437.75-2.328.734-.906 1.89-.906v1.453q-.593 0-1.015.516-.437.5-.437 1.265 0 .781.343 1.235.344.437.891.437.531 0 .797-.406.265-.422.515-1.5.235-1.078.579-1.75.328-.672.796-1 .47-.328 1.157-.328 1.125 0 1.812.906.688.906.688 2.36 0 1.015-.36 1.796-.359.781-1 1.219-.656.437-1.406.437v-1.437q.734-.047 1.156-.578.422-.547.422-1.438 0-.828-.328-1.312-.328-.5-.89-.5zm-8.25-5.047h2.047v-1.578h1.11v1.578h5.25q.5 0 .765-.203.25-.219.25-.719 0-.25-.093-.687h1.171q.157.562.157 1.109 0 .969-.578 1.469-.594.484-1.672.484h-5.25v1.531h-1.11v-1.53h-2.047zm30.374 63.282 1.5-.22-1.343-.312-7.938-2.25v-1.266l7.938-2.203 1.375-.312-1.532-.235-7.78-1.765v-1.516l11.374 2.766v1.36l-8.297 2.343-.86.187.86.172 8.297 2.438v1.36l-11.375 2.75v-1.5l7.781-1.798zm3.594-12.891v1.453h-8.453v-1.453zm-10.703 1.562q-.344 0-.578-.203-.25-.219-.25-.64 0-.423.25-.641.234-.22.594-.22.343 0 .578.22.234.218.234.64 0 .422-.234.64-.235.204-.594.204zm6.781-6.344.953.907h2.97v1.437h-12v-1.437h7.25l-.923-.782-2.781-2.625v-1.765l3.531 3.297 4.922-3.672v1.687zm3.922-7.218v1.453h-8.453v-1.453zm-10.703 1.562q-.344 0-.578-.203-.25-.219-.25-.64 0-.423.25-.641.234-.22.594-.22.343 0 .578.22.234.218.234.64 0 .422-.234.64-.235.204-.594.204zm8.703-11.469-6.453-1.625v-1.453l8.453 2.469v1.172l-6.406 2.047 6.406 2v1.172l-8.453 2.453v-1.438l6.328-1.656-6.328-1.969v-1.172zm2-9.734q-.25.125-.89.203 1.046 1 1.046 2.406 0 1.25-.703 2.047-.719.797-1.797.797-1.328 0-2.047-1-.734-1-.734-2.828v-1.406h-.672q-.75 0-1.203.453-.453.453-.453 1.344 0 .765.39 1.296.391.516.954.516v1.453q-.64 0-1.219-.437-.594-.453-.938-1.22-.343-.78-.343-1.702 0-1.453.734-2.281.719-.829 2-.86h3.89q1.173 0 1.86-.297h.125zm-1.11 2.39q0-.671-.343-1.28-.36-.61-.922-.891h-1.734v1.14q0 2.657 1.562 2.657.672 0 1.063-.454.375-.453.375-1.171zm-7.343-7.546 1.062-.047q-1.218-.969-1.218-2.531 0-2.672 3.015-2.704h5.594v1.454h-5.594q-.922 0-1.359.421-.438.407-.438 1.266 0 .703.375 1.234.375.532.985.829h6.031v1.453h-8.453zm4.156-7.282q-1.953 0-3.125-.921-1.187-.922-1.187-2.407 0-1.484 1.015-2.36h-4.406v-1.437h12v1.329l-.906.062q1.062.875 1.062 2.422 0 1.469-1.203 2.39-1.203.922-3.14.922zm.156-1.437q1.438 0 2.25-.594.813-.594.813-1.64 0-1.375-1.234-2.016h-3.875q-1.204.656-1.204 2 0 1.062.829 1.656.812.594 2.421.594zm17.468 39v3.656h10.14v1.5h-10.14v3.64h-1.234v-8.796zm10.14-7.125q-.25.125-.89.203 1.047 1 1.047 2.406 0 1.25-.703 2.047-.719.797-1.797.797-1.328 0-2.047-1-.734-1-.734-2.828v-1.406h-.672q-.75 0-1.203.453-.453.453-.453 1.344 0 .765.39 1.296.39.516.953.516v1.453q-.64 0-1.218-.437-.594-.453-.938-1.22-.344-.78-.344-1.702 0-1.453.735-2.281.718-.829 2-.86h3.89q1.172 0 1.86-.297h.125v1.516zm-1.109 2.39q0-.671-.343-1.28-.36-.61-.922-.891h-1.735v1.14q0 2.657 1.563 2.657.672 0 1.062-.454.375-.453.375-1.171zm-3.203-5.796q-1.234 0-2.219-.485-1-.484-1.53-1.359-.548-.875-.548-1.984 0-1.735 1.203-2.797 1.188-1.063 3.172-1.063h.094q1.234 0 2.219.469.984.469 1.531 1.36.547.874.547 2.015 0 1.719-1.188 2.781-1.203 1.063-3.171 1.063zm.172-1.453q1.406 0 2.266-.641.843-.656.843-1.75 0-1.11-.859-1.75-.86-.656-2.422-.656-1.39 0-2.25.672-.86.656-.86 1.75 0 1.062.86 1.718.844.657 2.422.657zm0-15.079q1.938 0 3.125.891 1.172.89 1.172 2.39 0 1.594-1.14 2.47l.984.078v1.328h-12v-1.453h4.468q-1.078-.875-1.078-2.407 0-1.547 1.172-2.422 1.156-.875 3.172-.875zm-.156 1.438q-1.485 0-2.281.578-.813.563-.813 1.64 0 1.423 1.328 2.048h3.656q1.329-.657 1.329-2.063 0-1.047-.797-1.625-.813-.578-2.422-.578zm4.297-8.5q-.25.125-.89.203 1.046 1 1.046 2.406 0 1.25-.703 2.047-.719.797-1.797.797-1.328 0-2.047-1-.734-1-.734-2.828v-1.406h-.672q-.75 0-1.203.453-.453.453-.453 1.344 0 .765.39 1.296.39.516.953.516v1.453q-.64 0-1.218-.437-.594-.453-.938-1.219-.344-.781-.344-1.703 0-1.453.735-2.281.718-.829 2-.86h3.89q1.172 0 1.86-.297h.125zm-1.11 2.39q0-.671-.343-1.28-.36-.61-.922-.891h-1.735v1.14q0 2.657 1.563 2.657.672 0 1.062-.454.375-.453.375-1.171zm-3.203-5.796q-1.234 0-2.219-.485-1-.484-1.53-1.359-.548-.875-.548-1.984 0-1.735 1.203-2.797 1.188-1.063 3.172-1.063h.094q1.234 0 2.219.469.984.469 1.531 1.36.547.874.547 2.015 0 1.719-1.188 2.781-1.203 1.063-3.171 1.063zm.172-1.453q1.406 0 2.266-.641.843-.656.843-1.75 0-1.11-.859-1.75-.86-.656-2.422-.656-1.39 0-2.25.672-.86.656-.86 1.75 0 1.062.86 1.718.844.657 2.422.657zm16.233 24.906 9.282-3.719-9.282-3.719v-1.937h11.375v1.5h-4.437l-4.781-.14 9.218 3.734v1.14l-9.187 3.735 4.75-.157h4.437v1.5h-11.375zm6.297-15.406q-.547 1.921-1.36 2.812-.812.875-2 .875-1.343 0-2.218-1.078t-.875-2.797q0-1.172.453-2.078.453-.922 1.25-1.422.797-.516 1.735-.516v1.516q-1.032 0-1.61.656-.594.657-.594 1.844 0 1.11.485 1.734.484.625 1.36.625.687 0 1.171-.593.484-.594.89-2 .391-1.422.876-2.22.468-.812 1.11-1.187.64-.39 1.515-.39 1.375 0 2.218 1.078.829 1.078.829 2.875 0 1.172-.454 2.187-.453 1.016-1.234 1.579-.781.546-1.766.546v-1.515q1.032 0 1.625-.75.594-.766.594-2.047 0-1.188-.484-1.813-.485-.64-1.313-.64-.843 0-1.297.594-.453.578-.906 2.125zm5.078-15.391v1.5l-8.765 5.734h8.765v1.5h-11.375v-1.5l8.797-5.75h-8.797v-1.484zm23.467 29.734h-11.374v-3.718q0-1.844.766-2.782.765-.937 2.265-.937.797 0 1.406.453.61.453.954 1.234.25-.922.984-1.453.719-.531 1.719-.531 1.53 0 2.406 1 .875.984.875 2.797v3.937zm-5.327-1.5h4.094v-2.468q0-1.047-.532-1.657-.547-.61-1.5-.61-2.062 0-2.062 2.235zm-1.203 0v-2.265q0-.985-.485-1.563-.5-.594-1.343-.594-.938 0-1.36.547-.422.547-.422 1.657v2.218zm6.53-9.843v1.453h-8.452v-1.453h8.453zm-10.702 1.562q-.344 0-.578-.203-.25-.219-.25-.64 0-.423.25-.641.234-.22.593-.22.344 0 .579.22.234.218.234.64 0 .422-.234.64-.235.204-.594.204zm2.25-5.36 1.062-.046q-1.218-.969-1.218-2.531 0-2.672 3.015-2.704h5.594v1.454h-5.594q-.922 0-1.36.421-.437.407-.437 1.266 0 .703.375 1.234.375.532.985.829h6.03v1.453h-8.452v-1.375zm4.156-7.28q-1.984 0-3.14-.907-1.172-.922-1.172-2.437 0-1.547 1.093-2.407l-.937-.078v-1.312h8.25q1.64 0 2.578.969.953.968.953 2.609 0 .922-.39 1.797-.391.875-1.063 1.328l-.875-.75q1.156-.922 1.156-2.266 0-1.062-.594-1.64-.593-.594-1.687-.594h-.719q1 .86 1 2.36 0 1.484-1.187 2.406-1.203.921-3.266.921zm.156-1.454q1.438 0 2.25-.578.813-.594.813-1.656 0-1.36-1.235-2h-3.859q-1.219.656-1.219 1.984 0 1.063.828 1.657.813.593 2.422.593zm22.28 5.188q1.657 0 2.844.531 1.188.516 1.86 1.469l1.609-2.031.937 1.015-1.906 2.406q.14.563.14 1.188 0 1.344-.655 2.39-.672 1.032-1.891 1.61-1.219.562-2.828.578h-.828q-1.64 0-2.89-.562-1.267-.579-1.923-1.61-.672-1.047-.672-2.39 0-1.375.672-2.422.656-1.047 1.906-1.61 1.235-.562 2.907-.562zm-.734 1.5q-2 0-3.094.812-1.093.797-1.093 2.282 0 1.406 1.093 2.234 1.078.812 3 .828h.828q1.954 0 3.079-.812 1.125-.813 1.125-2.266t-1.047-2.25q-1.063-.797-3.047-.828zm.734-12.5q1.657 0 2.844.531 1.188.516 1.86 1.469l1.609-2.031.937 1.015-1.906 2.406q.14.563.14 1.188 0 1.344-.655 2.39-.672 1.032-1.891 1.61-1.219.562-2.828.578h-.828q-1.64 0-2.89-.562-1.267-.579-1.923-1.61-.672-1.047-.672-2.39 0-1.375.672-2.422.656-1.047 1.906-1.61 1.235-.562 2.907-.562zm-.734 1.5q-2 0-3.094.812-1.093.797-1.093 2.282 0 1.406 1.093 2.234 1.078.812 3 .828h.828q1.954 0 3.079-.812 1.125-.813 1.125-2.266t-1.047-2.25q-1.063-.797-3.047-.828zm29.53 33.578v1.5h-11.375v-1.5zm-8.453-3.531 1.063-.047q-1.22-.969-1.22-2.531 0-2.672 3.016-2.704h5.594v1.454h-5.594q-.921 0-1.359.421-.437.407-.437 1.266 0 .703.375 1.234.375.532.984.829h6.031v1.453h-8.453zm4.313-14.782q1.937 0 3.125.891 1.171.89 1.171 2.39 0 1.594-1.14 2.47l.984.078v1.328h-12v-1.453h4.469q-1.078-.875-1.078-2.407 0-1.547 1.172-2.422 1.156-.875 3.172-.875zm-.157 1.438q-1.484 0-2.28.578-.813.563-.813 1.64 0 1.423 1.328 2.048h3.656q1.328-.657 1.328-2.063 0-1.047-.797-1.625-.812-.578-2.422-.578zm-.015-2.906q-1.235 0-2.22-.485-1-.484-1.53-1.36-.547-.874-.547-1.983 0-1.735 1.203-2.797 1.187-1.063 3.172-1.063h.094q1.234 0 2.218.469.985.469 1.532 1.36.546.874.546 2.015 0 1.719-1.187 2.781-1.203 1.063-3.172 1.063h-.11zm.172-1.453q1.406 0 2.265-.641.844-.656.844-1.75 0-1.11-.86-1.75-.859-.656-2.421-.656-1.39 0-2.25.672-.86.656-.86 1.75 0 1.062.86 1.718.843.657 2.422.657zm-1.235-10.766-3.078-1.875v-1.688l4.172 2.766 4.281-2.844v1.672l-3.172 1.953 3.172 1.953v1.672l-4.281-2.843-4.172 2.765v-1.672l3.078-1.86zm28.843 64.609h-11.375v-3.203q0-1.484.656-2.625.656-1.14 1.875-1.765 1.203-.625 2.766-.625h.734q1.61 0 2.828.625 1.203.609 1.86 1.765.64 1.156.656 2.688zm-10.14-1.5h8.905v-1.578q0-1.734-1.078-2.687-1.078-.97-3.062-.97h-.672q-1.938 0-3 .907-1.078.906-1.094 2.578v1.75zm10.14-10.843v1.453h-8.453v-1.453zm-10.703 1.562q-.344 0-.578-.203-.25-.219-.25-.64 0-.423.25-.641.234-.22.593-.22.344 0 .578.22.235.218.235.64 0 .422-.235.64-.234.204-.593.204zm8.453-8.906q-.578 0-.906.437-.329.438-.563 1.547-.234 1.094-.562 1.735-.329.64-.782.953-.453.312-1.078.312-1.031 0-1.75-.875-.719-.89-.719-2.25 0-1.437.75-2.328.735-.906 1.891-.906v1.453q-.594 0-1.016.516-.437.5-.437 1.265 0 .781.344 1.235.343.437.89.437.532 0 .797-.406.266-.422.516-1.5.234-1.078.578-1.75.328-.672.797-1 .469-.328 1.156-.328 1.125 0 1.813.906.687.906.687 2.36 0 1.015-.36 1.796-.359.781-1 1.219-.656.437-1.406.437v-1.437q.735-.047 1.157-.578.422-.547.422-1.438 0-.828-.329-1.312-.328-.5-.89-.5zm1.219-6.469q0-.781-.47-1.36-.468-.577-1.171-.64v-1.36q.734.032 1.39.5.657.454 1.047 1.235.391.766.391 1.625 0 1.719-1.156 2.75-1.156 1.016-3.156 1.016h-.235q-1.234 0-2.187-.453-.969-.454-1.5-1.297-.532-.86-.532-2.016 0-1.422.86-2.36.844-.937 2.203-1v1.36q-.828.063-1.344.625-.531.563-.531 1.375 0 1.11.797 1.719.781.594 2.281.594h.281q1.453 0 2.25-.594.782-.61.782-1.719zm-3.282-4.234q-1.234 0-2.218-.485-1-.484-1.532-1.36-.547-.874-.547-1.983 0-1.735 1.204-2.797 1.187-1.063 3.171-1.063h.094q1.235 0 2.219.469.984.469 1.531 1.36.547.874.547 2.015 0 1.719-1.187 2.781-1.204 1.063-3.172 1.063zm.172-1.453q1.406 0 2.266-.641.844-.656.844-1.75 0-1.11-.86-1.75-.86-.656-2.422-.656-1.39 0-2.25.672-.859.656-.859 1.75 0 1.062.86 1.718.843.657 2.421.657zm3.297-13.141q1 .844 1 2.469 0 1.36-.781 2.062-.797.703-2.328.719h-5.5v-1.453h5.453q1.922 0 1.922-1.563 0-1.656-1.235-2.203h-6.14v-1.437h8.453v1.375l-.844.03zm-6.312-7.875q-.063.328-.063.719 0 1.422 1.219 1.922h6v1.453h-8.453v-1.407l.968-.03q-1.125-.704-1.125-2.016 0-.422.11-.641zm4.906-5.828q-.578 0-.906.437-.329.438-.563 1.547-.234 1.094-.562 1.735-.329.64-.782.953-.453.312-1.078.312-1.031 0-1.75-.875-.719-.89-.719-2.25 0-1.437.75-2.328.735-.906 1.891-.906v1.453q-.594 0-1.016.516-.437.5-.437 1.265 0 .781.344 1.235.343.437.89.437.532 0 .797-.406.266-.422.516-1.5.234-1.078.578-1.75.328-.672.797-1 .469-.328 1.156-.328 1.125 0 1.813.906.687.906.687 2.36 0 1.015-.36 1.796-.359.781-1 1.219-.656.437-1.406.437v-1.437q.735-.047 1.157-.578.422-.547.422-1.438 0-.828-.329-1.312-.328-.5-.89-.5zm2.406-6.594q0 1.719-1.125 2.797-1.14 1.078-3.031 1.078h-.266q-1.25 0-2.234-.469-1-.484-1.547-1.343-.563-.875-.563-1.875 0-1.657 1.094-2.563 1.078-.922 3.094-.922h.61v5.735q1.25-.032 2.015-.735.766-.703.766-1.781 0-.766-.313-1.297-.312-.531-.828-.922l.687-.89q1.641 1.062 1.641 3.187zm-7.578.188q0 .875.64 1.468.626.594 1.782.735v-4.235h-.11q-1.109.063-1.703.594-.609.531-.609 1.438zm25.218 44.625-5.704-2.97v-1.702l7.125 3.922h4.25v1.5h-4.25l-7.125 3.921v-1.718zm5.671-11.516q-.25.125-.89.203 1.047 1 1.047 2.406 0 1.25-.703 2.047-.72.797-1.797.797-1.328 0-2.047-1-.735-1-.735-2.828v-1.406h-.671q-.75 0-1.204.453-.453.453-.453 1.344 0 .765.39 1.296.392.516.954.516v1.453q-.64 0-1.219-.437-.593-.453-.937-1.22-.344-.78-.344-1.702 0-1.453.734-2.281.72-.829 2-.86h3.891q1.172 0 1.86-.297h.124zm-1.109 2.39q0-.671-.344-1.28-.36-.61-.922-.891h-1.734v1.14q0 2.657 1.563 2.657.671 0 1.062-.454.375-.453.375-1.171zm-7.344-7.546 1.063-.047q-1.219-.969-1.219-2.531 0-2.672 3.016-2.704h5.593v1.454h-5.593q-.922 0-1.36.421-.437.407-.437 1.266 0 .703.375 1.234.375.532.984.829h6.031v1.453h-8.453zm4.157-7.282q-1.954 0-3.125-.921-1.188-.922-1.188-2.407 0-1.484 1.016-2.36h-4.407v-1.437h12v1.329l-.906.062q1.063.875 1.063 2.422 0 1.469-1.203 2.39-1.204.922-3.141.922h-.11zm.156-1.437q1.437 0 2.25-.594.812-.594.812-1.64 0-1.375-1.234-2.016h-3.875q-1.203.656-1.203 2 0 1.062.828 1.656.812.594 2.422.594zm4.297-11.422q0 1.719-1.125 2.797-1.141 1.078-3.032 1.078h-.265q-1.25 0-2.235-.469-1-.484-1.546-1.343-.563-.875-.563-1.875 0-1.657 1.094-2.563 1.078-.922 3.094-.922h.609v5.735q1.25-.032 2.016-.735.765-.703.765-1.781 0-.766-.312-1.297-.313-.531-.828-.922l.687-.89q1.64 1.062 1.64 3.187zm-7.578.188q0 .875.64 1.468.625.594 1.781.735v-4.235h-.109q-1.11.063-1.703.594-.61.531-.61 1.438zm2.046-7.516-3.078-1.875v-1.688l4.172 2.766 4.281-2.844v1.672l-3.171 1.953 3.171 1.953v1.672l-4.28-2.843-4.173 2.765v-1.672l3.078-1.86zm25.874 50.328v4.766l2.97 1.078v1.547l-11.376-4.344v-1.313l11.375-4.359v1.547zm-1.234 4.313v-3.86l-5.328 1.938zm-.094-7.454q-1.953 0-3.125-.921-1.187-.922-1.187-2.407 0-1.484 1.015-2.359h-4.406v-1.438h12v1.329l-.906.062q1.062.875 1.062 2.422 0 1.469-1.203 2.39-1.203.922-3.14.922zm.156-1.437q1.438 0 2.25-.594.813-.594.813-1.64 0-1.375-1.234-2.016h-3.875q-1.204.656-1.204 2 0 1.062.829 1.656.812.594 2.421.594zm2.141-15.39-6.453-1.626v-1.453l8.453 2.469v1.172l-6.406 2.047 6.406 2v1.172l-8.453 2.453v-1.438l6.328-1.656-6.328-1.969v-1.172l6.453-2zm-2.312-4.141q-1.235 0-2.22-.485-1-.484-1.53-1.359-.547-.875-.547-1.984 0-1.735 1.203-2.797 1.187-1.063 3.172-1.063h.093q1.235 0 2.22.469.984.469 1.53 1.36.547.874.547 2.015 0 1.719-1.187 2.781-1.203 1.063-3.172 1.063h-.11zm.171-1.453q1.407 0 2.266-.641.844-.656.844-1.75 0-1.11-.86-1.75-.859-.656-2.421-.656-1.391 0-2.25.672-.86.656-.86 1.75 0 1.062.86 1.718.843.657 2.421.657zm-3.015-12.016q-.063.328-.063.719 0 1.422 1.22 1.922h6v1.453h-8.454v-1.407l.969-.03q-1.125-.704-1.125-2.016 0-.422.11-.641zm2.86-.563q-1.954 0-3.126-.921-1.187-.922-1.187-2.407 0-1.484 1.015-2.359h-4.406v-1.438h12v1.329l-.906.062q1.062.875 1.062 2.422 0 1.469-1.203 2.39-1.203.922-3.14.922h-.11zm.155-1.437q1.438 0 2.25-.594.813-.594.813-1.64 0-1.375-1.234-2.016h-3.875q-1.204.656-1.204 2 0 1.062.829 1.656.812.594 2.421.594zm1.891-12.828q-.578 0-.906.437-.328.438-.563 1.547-.234 1.094-.562 1.735-.328.64-.781.953-.454.312-1.079.312-1.03 0-1.75-.875-.718-.89-.718-2.25 0-1.437.75-2.328.734-.906 1.89-.906v1.453q-.593 0-1.015.516-.438.5-.438 1.265 0 .781.344 1.235.344.437.89.437.532 0 .797-.406.266-.422.516-1.5.234-1.078.578-1.75.328-.672.797-1 .469-.328 1.156-.328 1.125 0 1.813.906.687.906.687 2.36 0 1.015-.36 1.796-.358.781-1 1.219-.655.437-1.405.437v-1.437q.734-.047 1.156-.578.422-.547.422-1.438 0-.828-.328-1.312-.328-.5-.89-.5zm22.124 38.235 1.5-.22-1.344-.312-7.937-2.25v-1.266l7.937-2.203 1.375-.312-1.531-.235-7.781-1.765v-1.516l11.375 2.766v1.36l-8.297 2.343-.86.187.86.172 8.297 2.438v1.36l-11.375 2.75v-1.5l7.78-1.798zm3.75-14.829q0 1.719-1.125 2.797-1.14 1.078-3.031 1.078h-.266q-1.25 0-2.234-.469-1-.484-1.547-1.343-.563-.875-.563-1.875 0-1.657 1.094-2.563 1.078-.922 3.094-.922h.61v5.735q1.25-.032 2.015-.735.765-.703.765-1.781 0-.766-.312-1.297-.313-.531-.828-.922l.687-.89q1.64 1.062 1.64 3.187zm-7.578.188q0 .875.64 1.468.625.594 1.782.735v-4.235h-.11q-1.11.063-1.703.594-.61.531-.61 1.438zm7.422-6.25v1.453h-8.453v-1.453zm-10.703 1.562q-.344 0-.579-.203-.25-.219-.25-.64 0-.423.25-.641.235-.22.594-.22.344 0 .578.22.235.218.235.64 0 .422-.235.64-.234.204-.593.204zm6.562-11.14q1.938 0 3.125.89 1.172.89 1.172 2.39 0 1.594-1.14 2.47l.984.078v1.328h-12v-1.453h4.468q-1.078-.875-1.078-2.407 0-1.547 1.172-2.422 1.156-.875 3.172-.875h.125zm-.156 1.437q-1.485 0-2.281.578-.813.563-.813 1.64 0 1.423 1.328 2.048h3.656q1.329-.657 1.329-2.063 0-1.047-.797-1.625-.813-.578-2.422-.578zm-.016-2.906q-1.234 0-2.219-.485-1-.484-1.53-1.36-.548-.874-.548-1.983 0-1.735 1.203-2.797 1.188-1.063 3.172-1.063h.094q1.234 0 2.219.469.984.469 1.531 1.36.547.874.547 2.015 0 1.719-1.188 2.781-1.203 1.063-3.171 1.063zm.172-1.453q1.406 0 2.266-.641.843-.656.843-1.75 0-1.11-.859-1.75-.86-.656-2.422-.656-1.39 0-2.25.672-.86.656-.86 1.75 0 1.062.86 1.718.844.657 2.422.657zm-362.926-307.112v-17.063h4.812q2.235 0 3.938.985 1.719.984 2.64 2.797.938 1.812.954 4.171v1.094q0 2.406-.938 4.235-.937 1.812-2.672 2.78-1.718.97-4.015 1h-4.72zm2.25-15.219v13.375h2.36q2.609 0 4.046-1.61 1.453-1.624 1.453-4.609v-1q0-2.906-1.375-4.515-1.36-1.61-3.86-1.641zm18.672 15.453q-2.578 0-4.203-1.687-1.61-1.703-1.61-4.532v-.406q0-1.89.719-3.36.719-1.484 2.016-2.327 1.297-.844 2.812-.844 2.469 0 3.828 1.64 1.375 1.626 1.375 4.657v.906h-8.578q.047 1.875 1.094 3.031 1.047 1.157 2.656 1.157 1.156 0 1.953-.47.797-.468 1.39-1.25l1.329 1.032q-1.594 2.453-4.781 2.453zm-.266-11.375q-1.312 0-2.203.969-.89.953-1.11 2.672h6.36v-.172q-.094-1.64-.89-2.547-.797-.922-2.157-.922zm15.39 7.781q0-.89-.671-1.375-.656-.484-2.313-.828-1.64-.36-2.609-.843-.969-.5-1.437-1.172-.454-.688-.454-1.625 0-1.563 1.313-2.641 1.328-1.078 3.375-1.078 2.156 0 3.5 1.125 1.344 1.11 1.344 2.844h-2.188q0-.891-.75-1.532-.75-.656-1.906-.656-1.188 0-1.86.516-.656.515-.656 1.36 0 .78.61 1.187.625.39 2.25.75 1.625.359 2.625.875 1.015.5 1.5 1.218.484.704.484 1.72 0 1.702-1.36 2.734-1.359 1.015-3.515 1.015-1.531 0-2.703-.531-1.172-.547-1.844-1.516-.656-.968-.656-2.093h2.172q.062 1.093.875 1.734.812.64 2.156.64 1.219 0 1.969-.5t.75-1.328zm8.157-2.515-1.36 1.422v4.453h-2.171v-18h2.172v10.89l1.156-1.406 3.953-4.172h2.625l-4.922 5.297 5.5 7.39h-2.547zm11.39-9.875v3.062h2.376v1.688h-2.375v7.86q0 .765.312 1.14.328.375 1.094.375.375 0 1.031-.14v1.765q-.86.234-1.672.234-1.453 0-2.187-.875-.735-.89-.735-2.5v-7.86h-2.312v-1.686h2.312v-3.062h2.157zm4.485 9.297q0-1.875.734-3.36.735-1.484 2.032-2.297 1.312-.812 3-.812 2.578 0 4.172 1.797 1.609 1.797 1.609 4.765v.157q0 1.859-.719 3.328-.703 1.469-2.015 2.297-1.313.812-3.032.812-2.578 0-4.187-1.797-1.594-1.797-1.594-4.75zm2.188.25q0 2.109.968 3.39.985 1.282 2.625 1.282 1.657 0 2.625-1.297.969-1.297.969-3.625 0-2.094-.984-3.391-.985-1.297-2.625-1.297-1.61 0-2.594 1.281-.984 1.282-.984 3.657zm23.109 0q0 2.89-1.328 4.672-1.328 1.765-3.594 1.765-2.297 0-3.625-1.469v6.11h-2.172v-17.563h1.985l.109 1.407q1.312-1.641 3.672-1.641 2.281 0 3.61 1.734 1.343 1.719 1.343 4.782zm-2.172-.25q0-2.141-.922-3.375-.906-1.25-2.5-1.25-1.969 0-2.953 1.75v6.062q.969 1.735 2.969 1.735 1.562 0 2.484-1.235.922-1.25.922-3.687z" fill="#757575"/></svg>