<svg fill="none" stroke-linecap="square" stroke-miterlimit="10" viewBox="0 0 1280 960" xmlns="http://www.w3.org/2000/svg" xmlns:xlink="http://www.w3.org/1999/xlink"><clipPath id="a"><path d="m0 0h1280v960h-1280z"/></clipPath><g clip-path="url(#a)"><path d="m0 0h1280v960h-1280z" fill="none"/><path d="m232 301h28v41.007874h-28z" fill="#cfe2f3" fill-rule="evenodd"/><path d="m232 301h28v41.007874h-28z" fill-rule="evenodd" stroke="#000" stroke-linecap="butt" stroke-linejoin="round"/><path d="m260 301-1.0078735-61.007874" fill="none"/><path d="m260 301-.90878296-55.008698" fill-rule="evenodd" stroke="#000" stroke-linecap="butt" stroke-linejoin="round"/><path d="m260.74274 245.96402-1.726471-4.510193-1.5765381 4.5647583z" fill="#000" fill-rule="evenodd" stroke="#000" stroke-linecap="butt"/><path d="m258.99213 198.98425h111.02362v41.007874h-111.02362z" fill="#fce5cd" fill-rule="evenodd"/><path d="m258.99213 198.98425h111.02362v41.007874h-111.02362z" fill-rule="evenodd" stroke="#000" stroke-linecap="butt" stroke-linejoin="round"/><path d="m291.57352 226.40819v-13.359375h5.046875q1.328125 0 2.03125.125.96875.171875 1.640625.640625.671875.453125 1.078125 1.28125.40625.828125.40625 1.828125 0 1.703125-1.09375 2.890625-1.078125 1.171875-3.921875 1.171875h-3.421875v5.421875zm1.765625-7h3.453125q1.71875 0 2.4375-.640625.71875-.640625.71875-1.796875 0-.84375-.421875-1.4375-.421875-.59375-1.125-.78125-.4375-.125-1.640625-.125h-3.421875zm16.787323 5.8125q-.921875.765625-1.765625 1.09375-.828125.3125-1.796875.3125-1.59375 0-2.453125-.78125-.859375-.78125-.859375-1.984375 0-.71875.328125-1.296875.328125-.59375.84375-.9375.53125-.359375 1.1875-.546875.46875-.125 1.453125-.25 1.984375-.234375 2.921875-.5625.015625-.34375.015625-.421875 0-1-.46875-1.421875-.625-.546875-1.875-.546875-1.15625 0-1.703125.40625-.546875.40625-.8125 1.421875l-1.609375-.21875q.21875-1.015625.71875-1.640625.5-.640625 1.453125-.984375.953125-.34375 2.1875-.34375 1.25 0 2.015625.296875.78125.28125 1.140625.734375.375.4375.515625 1.109375.078125.421875.078125 1.515625v2.1875q0 2.28125.109375 2.890625.109375.59375.40625 1.15625h-1.703125q-.265625-.515625-.328125-1.1875zm-.140625-3.671875q-.890625.375-2.671875.625-1.015625.140625-1.4375.328125-.421875.1875-.65625.53125-.21875.34375-.21875.78125 0 .65625.5 1.09375.5.4375 1.453125.4375.9375 0 1.671875-.40625.75-.421875 1.09375-1.140625.265625-.5625.265625-1.640625zm4.1882324 4.859375v-9.671875h1.46875v1.46875q.5625-1.03125 1.03125-1.359375.484375-.328125 1.0625-.328125.828125 0 1.6875.53125l-.5625 1.515625q-.609375-.359375-1.203125-.359375-.546875 0-.96875.328125-.421875.328125-.609375.890625-.28125.875-.28125 1.921875v5.0625zm5.572052-2.890625 1.625-.25q.125.96875.75 1.5.625.515625 1.75.515625 1.125 0 1.671875-.453125.546875-.46875.546875-1.09375 0-.546875-.484375-.875-.328125-.21875-1.671875-.546875-1.8125-.46875-2.515625-.796875-.6875-.328125-1.046875-.90625-.359375-.59375-.359375-1.3125 0-.640625.296875-1.1875.296875-.5625.8125-.921875.375-.28125 1.03125-.46875.671875-.203125 1.421875-.203125 1.140625 0 2 .328125.859375.328125 1.265625.890625.421875.5625.578125 1.5l-1.609375.21875q-.109375-.75-.640625-1.171875-.515625-.421875-1.46875-.421875-1.140625 0-1.625.375-.46875.375-.46875.875 0 .3125.1875.578125.203125.265625.640625.4375.234375.09375 1.4375.421875 1.75.453125 2.4375.75.6875.296875 1.078125.859375.390625.5625.390625 1.40625 0 .828125-.484375 1.546875-.46875.71875-1.375 1.125-.90625.390625-2.046875.390625-1.875 0-2.875-.78125-.984375-.78125-1.25-2.328125zm16.609375-.21875 1.6875.203125q-.40625 1.484375-1.484375 2.3125-1.078125.8125-2.765625.8125-2.125 0-3.375-1.296875-1.234375-1.3125-1.234375-3.671875 0-2.453125 1.25-3.796875 1.265625-1.34375 3.265625-1.34375 1.9375 0 3.15625 1.328125 1.234375 1.3125 1.234375 3.703125 0 .15625 0 .4375h-7.21875q.09375 1.59375.90625 2.453125.8125.84375 2.015625.84375.90625 0 1.546875-.46875.640625-.484375 1.015625-1.515625zm-5.390625-2.65625h5.40625q-.109375-1.21875-.625-1.828125-.78125-.953125-2.03125-.953125-1.125 0-1.90625.765625-.765625.75-.84375 2.015625z" fill="#000"/><path d="m370.02362 239.99213v62.015747" fill="none"/><g fill-rule="evenodd"><path d="m370.02362 239.99213v56.015747" stroke="#000" stroke-linecap="butt" stroke-linejoin="round"/><path d="m368.3719 296.00787 1.6517334 4.538086 1.6517334-4.538086z" fill="#000" stroke="#000" stroke-linecap="butt"/><path d="m370.02362 301h28v41.007874h-28z" fill="#cfe2f3"/><path d="m370.02362 301h28v41.007874h-28z" stroke="#000" stroke-linecap="butt" stroke-linejoin="round"/><path d="m398.2756 301h111.02362v41.007874h-111.02362z" fill="#d9ead3"/><path d="m398.2756 301h111.02362v41.007874h-111.02362z" stroke="#000" stroke-linecap="butt" stroke-linejoin="round"/></g><path d="m430.5409 323.73645 1.765625.453125q-.5625 2.171875-2 3.328125-1.4375 1.140625-3.53125 1.140625-2.15625 0-3.515625-.875-1.34375-.890625-2.0625-2.546875-.703125-1.671875-.703125-3.59375 0-2.078125.796875-3.625.796875-1.5625 2.265625-2.359375 1.484375-.8125 3.25-.8125 2 0 3.359375 1.015625 1.375 1.015625 1.90625 2.875l-1.734375.40625q-.46875-1.453125-1.359375-2.109375-.875-.671875-2.203125-.671875-1.546875 0-2.578125.734375-1.03125.734375-1.453125 1.984375-.421875 1.234375-.421875 2.5625 0 1.703125.5 2.96875.5 1.265625 1.546875 1.90625 1.046875.625 2.265625.625 1.484375 0 2.515625-.859375 1.03125-.859375 1.390625-2.546875zm3.129181-.15625q0-2.6875 1.484375-3.96875 1.25-1.078125 3.046875-1.078125 2 0 3.265625 1.3125 1.265625 1.296875 1.265625 3.609375 0 1.859375-.5625 2.9375-.5625 1.0625-1.640625 1.65625-1.0625.59375-2.328125.59375-2.03125 0-3.28125-1.296875-1.25-1.3125-1.25-3.765625zm1.6875 0q0 1.859375.796875 2.796875.8125.921875 2.046875.921875 1.21875 0 2.03125-.921875.8125-.9375.8125-2.84375 0-1.796875-.8125-2.71875-.8125-.921875-2.03125-.921875-1.234375 0-2.046875.921875-.796875.90625-.796875 2.765625zm9.297607 4.84375v-9.671875h1.46875v1.359375q.453125-.71875 1.203125-1.140625.765625-.4375 1.71875-.4375 1.078125 0 1.765625.453125.6875.4375.96875 1.234375 1.15625-1.6875 2.984375-1.6875 1.453125 0 2.21875.796875.78125.796875.78125 2.453125v6.640625h-1.640625v-6.09375q0-.984375-.15625-1.40625-.15625-.4375-.578125-.703125-.421875-.265625-.984375-.265625-1.015625 0-1.6875.6875-.671875.671875-.671875 2.15625v5.625h-1.640625v-6.28125q0-1.09375-.40625-1.640625-.40625-.546875-1.3125-.546875-.6875 0-1.28125.359375-.59375.359375-.859375 1.0625-.25.703125-.25 2.03125v5.015625zm15.540802 3.703125v-13.375h1.484375v1.25q.53125-.734375 1.1875-1.09375.671875-.375 1.625-.375 1.234375 0 2.171875.640625.953125.625 1.4375 1.796875.484375 1.15625.484375 2.546875 0 1.484375-.53125 2.671875-.53125 1.1875-1.546875 1.828125-1.015625.625-2.140625.625-.8125 0-1.46875-.34375-.65625-.34375-1.0625-.875v4.703125zm1.484375-8.484375q0 1.859375.75 2.765625.765625.890625 1.828125.890625 1.09375 0 1.875-.921875.78125-.9375.78125-2.875 0-1.84375-.765625-2.765625-.75-.921875-1.8125-.921875-1.046875 0-1.859375.984375-.796875.96875-.796875 2.84375zm8.891327-6.6875v-1.890625h1.640625v1.890625zm0 11.46875v-9.671875h1.640625v9.671875zm4.0979614 0v-13.359375h1.640625v13.359375zm10.816681-3.109375 1.6875.203125q-.40625 1.484375-1.484375 2.3125-1.078125.8125-2.765625.8125-2.125 0-3.375-1.296875-1.234375-1.3125-1.234375-3.671875 0-2.453125 1.25-3.796875 1.265625-1.34375 3.265625-1.34375 1.9375 0 3.15625 1.328125 1.234375 1.3125 1.234375 3.703125 0 .15625 0 .4375h-7.21875q.09375 1.59375.90625 2.453125.8125.84375 2.015625.84375.90625 0 1.546875-.46875.640625-.484375 1.015625-1.515625zm-5.390625-2.65625h5.40625q-.109375-1.21875-.625-1.828125-.78125-.953125-2.03125-.953125-1.125 0-1.90625.765625-.765625.75-.84375 2.015625z" fill="#000"/><path d="m269.0315 301h90.456696v41.007874h-90.456696z" fill="#fff2cc" fill-rule="evenodd"/><path d="m269.0315 301h90.456696v41.007874h-90.456696z" fill-rule="evenodd" stroke="#000" stroke-dasharray="4 3" stroke-linecap="butt" stroke-linejoin="round"/><path d="m291.83667 321.92395q0-3.328125 1.78125-5.203125 1.78125-1.890625 4.609375-1.890625 1.84375 0 3.328125.890625 1.484375.875 2.265625 2.46875.78125 1.578125.78125 3.578125 0 2.03125-.828125 3.640625-.8125 1.59375-2.3125 2.421875-1.5.828125-3.25.828125-1.875 0-3.359375-.90625-1.484375-.921875-2.25-2.5-.765625-1.578125-.765625-3.328125zm1.8125.015625q0 2.421875 1.296875 3.8125 1.296875 1.390625 3.265625 1.390625 2 0 3.28125-1.40625 1.28125-1.40625 1.28125-3.984375 0-1.625-.546875-2.84375-.546875-1.21875-1.609375-1.875-1.0625-.671875-2.375-.671875-1.890625 0-3.25 1.296875-1.34375 1.28125-1.34375 4.28125zm16.605194 5.015625.234375 1.453125q-.6875.140625-1.234375.140625-.890625 0-1.390625-.28125-.484375-.28125-.6875-.734375-.203125-.46875-.203125-1.9375v-5.578125h-1.203125v-1.265625h1.203125v-2.390625l1.625-.984375v3.375h1.65625v1.265625h-1.65625v5.671875q0 .6875.078125.890625.09375.203125.28125.328125.203125.109375.578125.109375.265625 0 .71875-.0625zm1.6051636 1.46875v-13.359375h1.640625v4.796875q1.140625-1.328125 2.890625-1.328125 1.078125 0 1.859375.421875.796875.421875 1.140625 1.171875.34375.75.34375 2.171875v6.125h-1.640625v-6.125q0-1.234375-.53125-1.796875-.53125-.5625-1.515625-.5625-.71875 0-1.359375.390625-.640625.375-.921875 1.015625-.265625.640625-.265625 1.78125v5.296875zm17.000732-3.109375 1.6875.203125q-.40625 1.484375-1.484375 2.3125-1.078125.8125-2.765625.8125-2.125 0-3.375-1.296875-1.234375-1.3125-1.234375-3.671875 0-2.453125 1.25-3.796875 1.265625-1.34375 3.265625-1.34375 1.9375 0 3.15625 1.328125 1.234375 1.3125 1.234375 3.703125 0 .15625 0 .4375h-7.21875q.09375 1.59375.90625 2.453125.8125.84375 2.015625.84375.90625 0 1.546875-.46875.640625-.484375 1.015625-1.515625zm-5.390625-2.65625h5.40625q-.109375-1.21875-.625-1.828125-.78125-.953125-2.03125-.953125-1.125 0-1.90625.765625-.765625.75-.84375 2.015625zm9.125702 5.765625v-9.671875h1.46875v1.46875q.5625-1.03125 1.03125-1.359375.484375-.328125 1.0625-.328125.828125 0 1.6875.53125l-.5625 1.515625q-.609375-.359375-1.203125-.359375-.546875 0-.96875.328125-.421875.328125-.609375.890625-.28125.875-.28125 1.921875v5.0625z" fill="#000"/><path d="m509.55118 301h28.00003v41.007874h-28.00003z" fill="#cfe2f3" fill-rule="evenodd"/><path d="m509.55118 301h28.00003v41.007874h-28.00003z" fill-rule="evenodd" stroke="#000" stroke-linecap="butt" stroke-linejoin="round"/><path d="m208 336h76v61.007874h-76z" fill="none"/><path d="m226.60794 362.91998v-13.359375h1.78125v11.78125h6.5625v1.578125zm9.641342-4.84375q0-2.6875 1.484375-3.96875 1.25-1.078125 3.046875-1.078125 2 0 3.265625 1.3125 1.265625 1.296875 1.265625 3.609375 0 1.859375-.5625 2.9375-.5625 1.0625-1.640625 1.65625-1.0625.59375-2.328125.59375-2.03125 0-3.28125-1.296875-1.25-1.3125-1.25-3.765625zm1.6875 0q0 1.859375.796875 2.796875.8125.921875 2.046875.921875 1.21875 0 2.03125-.921875.8125-.9375.8125-2.84375 0-1.796875-.8125-2.71875-.8125-.921875-2.03125-.921875-1.234375 0-2.046875.921875-.796875.90625-.796875 2.765625zm15.610092 3.65625q-.921875.765625-1.765625 1.09375-.828125.3125-1.796875.3125-1.59375 0-2.453125-.78125-.859375-.78125-.859375-1.984375 0-.71875.328125-1.296875.328125-.59375.84375-.9375.53125-.359375 1.1875-.546875.46875-.125 1.453125-.25 1.984375-.234375 2.921875-.5625.015625-.34375.015625-.421875 0-1-.46875-1.421875-.625-.546875-1.875-.546875-1.15625 0-1.703125.40625-.546875.40625-.8125 1.421875l-1.609375-.21875q.21875-1.015625.71875-1.640625.5-.640625 1.453125-.984375.953125-.34375 2.1875-.34375 1.25 0 2.015625.296875.78125.28125 1.140625.734375.375.4375.515625 1.109375.078125.421875.078125 1.515625v2.1875q0 2.28125.109375 2.890625.109375.59375.40625 1.15625h-1.703125q-.265625-.515625-.328125-1.1875zm-.140625-3.671875q-.890625.375-2.671875.625-1.015625.140625-1.4375.328125-.421875.1875-.65625.53125-.21875.34375-.21875.78125 0 .65625.5 1.09375.5.4375 1.453125.4375.9375 0 1.671875-.40625.75-.421875 1.09375-1.140625.265625-.5625.265625-1.640625zm10.469482 4.859375v-1.21875q-.90625 1.4375-2.703125 1.4375-1.15625 0-2.125-.640625-.96875-.640625-1.5-1.78125-.53125-1.140625-.53125-2.625 0-1.453125.484375-2.625.484375-1.1875 1.4375-1.8125.96875-.625 2.171875-.625.875 0 1.546875.375.6875.359375 1.109375.953125v-4.796875h1.640625v13.359375zm-5.171875-4.828125q0 1.859375.78125 2.78125.78125.921875 1.84375.921875 1.078125 0 1.828125-.875.75-.890625.75-2.6875 0-1.984375-.765625-2.90625-.765625-.9375-1.890625-.9375-1.078125 0-1.8125.890625-.734375.890625-.734375 2.8125z" fill="#000"/><path d="m222.99963 380.6231 1.65625-.140625q.125 1 .546875 1.640625.4375.640625 1.34375 1.046875.921875.390625 2.0625.390625 1 0 1.78125-.296875.78125-.296875 1.15625-.8125.375-.53125.375-1.15625 0-.625-.375-1.09375-.359375-.46875-1.1875-.796875-.546875-.203125-2.390625-.640625-1.828125-.453125-2.5625-.84375-.96875-.5-1.4375-1.234375-.46875-.75-.46875-1.671875 0-1 .578125-1.875.578125-.890625 1.671875-1.34375 1.109375-.453125 2.453125-.453125 1.484375 0 2.609375.484375 1.140625.46875 1.75 1.40625.609375.921875.65625 2.09375l-1.6875.125q-.140625-1.265625-.9375-1.90625-.78125-.65625-2.3125-.65625-1.609375 0-2.34375.59375-.734375.59375-.734375 1.421875 0 .71875.53125 1.171875.5.46875 2.65625.96875 2.15625.484375 2.953125.84375 1.171875.53125 1.71875 1.359375.5625.828125.5625 1.90625 0 1.0625-.609375 2.015625-.609375.9375-1.75 1.46875-1.140625.515625-2.578125.515625-1.8125 0-3.046875-.53125-1.21875-.53125-1.921875-1.59375-.6875-1.0625-.71875-2.40625zm19.146698.75 1.609375.21875q-.265625 1.65625-1.359375 2.609375-1.078125.9375-2.671875.9375-1.984375 0-3.1875-1.296875-1.203125-1.296875-1.203125-3.71875 0-1.578125.515625-2.75.515625-1.171875 1.578125-1.75 1.0625-.59375 2.3125-.59375 1.578125 0 2.578125.796875 1 .796875 1.28125 2.265625l-1.59375.234375q-.234375-.96875-.8125-1.453125-.578125-.5-1.390625-.5-1.234375 0-2.015625.890625-.78125.890625-.78125 2.8125 0 1.953125.75 2.84375.75.875 1.953125.875.96875 0 1.609375-.59375.65625-.59375.828125-1.828125zm3 3.546875v-9.671875h1.46875v1.46875q.5625-1.03125 1.03125-1.359375.484375-.328125 1.0625-.328125.828125 0 1.6875.53125l-.5625 1.515625q-.609375-.359375-1.203125-.359375-.546875 0-.96875.328125-.421875.328125-.609375.890625-.28125.875-.28125 1.921875v5.0625zm6.228302-11.46875v-1.890625h1.640625v1.890625zm0 11.46875v-9.671875h1.640625v9.671875zm4.1448364 3.703125v-13.375h1.484375v1.25q.53125-.734375 1.1875-1.09375.671875-.375 1.625-.375 1.234375 0 2.171875.640625.953125.625 1.4375 1.796875.484375 1.15625.484375 2.546875 0 1.484375-.53125 2.671875-.53125 1.1875-1.546875 1.828125-1.015625.625-2.140625.625-.8125 0-1.46875-.34375-.65625-.34375-1.0625-.875v4.703125zm1.484375-8.484375q0 1.859375.75 2.765625.765625.890625 1.828125.890625 1.09375 0 1.875-.921875.78125-.9375.78125-2.875 0-1.84375-.765625-2.765625-.75-.921875-1.8125-.921875-1.046875 0-1.859375.984375-.796875.96875-.796875 2.84375zm12.469452 3.3125.234375 1.453125q-.6875.140625-1.234375.140625-.890625 0-1.390625-.28125-.484375-.28125-.6875-.734375-.203125-.46875-.203125-1.9375v-5.578125h-1.203125v-1.265625h1.203125v-2.390625l1.625-.984375v3.375h1.65625v1.265625h-1.65625v5.671875q0 .6875.078125.890625.09375.203125.28125.328125.203125.109375.578125.109375.265625 0 .71875-.0625z" fill="#000"/><path d="m314.77692 336h136.22046v61.007874h-136.22046z" fill="none"/><path d="m364.71432 362.91998 5.125-13.359375h1.90625l5.46875 13.359375h-2.015625l-1.546875-4.046875h-5.59375l-1.46875 4.046875zm3.859375-5.484375h4.53125l-1.40625-3.703125q-.625-1.6875-.9375-2.765625-.265625 1.28125-.71875 2.546875zm9.459198 1.1875 1.65625-.140625q.125 1 .546875 1.640625.4375.640625 1.34375 1.046875.921875.390625 2.0625.390625 1 0 1.78125-.296875.78125-.296875 1.15625-.8125.375-.53125.375-1.15625 0-.625-.375-1.09375-.359375-.46875-1.1875-.796875-.546875-.203125-2.390625-.640625-1.828125-.453125-2.5625-.84375-.96875-.5-1.4375-1.234375-.46875-.75-.46875-1.671875 0-1 .578125-1.875.578125-.890625 1.671875-1.34375 1.109375-.453125 2.453125-.453125 1.484375 0 2.609375.484375 1.140625.46875 1.75 1.40625.609375.921875.65625 2.09375l-1.6875.125q-.140625-1.265625-.9375-1.90625-.78125-.65625-2.3125-.65625-1.609375 0-2.34375.59375-.734375.59375-.734375 1.421875 0 .71875.53125 1.171875.5.46875 2.65625.96875 2.15625.484375 2.953125.84375 1.171875.53125 1.71875 1.359375.5625.828125.5625 1.90625 0 1.0625-.609375 2.015625-.609375.9375-1.75 1.46875-1.140625.515625-2.578125.515625-1.8125 0-3.046875-.53125-1.21875-.53125-1.921875-1.59375-.6875-1.0625-.71875-2.40625zm16.443573 4.296875v-11.78125h-4.40625v-1.578125h10.578125v1.578125h-4.40625v11.78125z" fill="#000"/><path d="m326.5439 384.91998v-13.359375h1.765625v13.359375zm4.683319 0v-9.671875h1.46875v1.375q1.0625-1.59375 3.078125-1.59375.875 0 1.609375.3125.734375.3125 1.09375.828125.375.5.515625 1.203125.09375.453125.09375 1.59375v5.953125h-1.640625v-5.890625q0-1-.203125-1.484375-.1875-.5-.671875-.796875-.484375-.296875-1.140625-.296875-1.046875 0-1.8125.671875-.75.65625-.75 2.515625v5.28125zm13.953827-1.46875.234375 1.453125q-.6875.140625-1.234375.140625-.890625 0-1.390625-.28125-.484375-.28125-.6875-.734375-.203125-.46875-.203125-1.9375v-5.578125h-1.203125v-1.265625h1.203125v-2.390625l1.625-.984375v3.375h1.65625v1.265625h-1.65625v5.671875q0 .6875.078125.890625.09375.203125.28125.328125.203125.109375.578125.109375.265625 0 .71875-.0625zm8.230194-1.640625 1.6875.203125q-.40625 1.484375-1.484375 2.3125-1.078125.8125-2.765625.8125-2.125 0-3.375-1.296875-1.234375-1.3125-1.234375-3.671875 0-2.453125 1.25-3.796875 1.265625-1.34375 3.265625-1.34375 1.9375 0 3.15625 1.328125 1.234375 1.3125 1.234375 3.703125 0 .15625 0 .4375h-7.21875q.09375 1.59375.90625 2.453125.8125.84375 2.015625.84375.90625 0 1.546875-.46875.640625-.484375 1.015625-1.515625zm-5.390625-2.65625h5.40625q-.109375-1.21875-.625-1.828125-.78125-.953125-2.03125-.953125-1.125 0-1.90625.765625-.765625.75-.84375 2.015625zm9.125702 5.765625v-9.671875h1.46875v1.46875q.5625-1.03125 1.03125-1.359375.484375-.328125 1.0625-.328125.828125 0 1.6875.53125l-.5625 1.515625q-.609375-.359375-1.203125-.359375-.546875 0-.96875.328125-.421875.328125-.609375.890625-.28125.875-.28125 1.921875v5.0625zm6.228302 0v-9.671875h1.46875v1.375q1.0625-1.59375 3.078125-1.59375.875 0 1.609375.3125.734375.3125 1.09375.828125.375.5.515625 1.203125.09375.453125.09375 1.59375v5.953125h-1.640625v-5.890625q0-1-.203125-1.484375-.1875-.5-.671875-.796875-.484375-.296875-1.140625-.296875-1.046875 0-1.8125.671875-.75.65625-.75 2.515625v5.28125zm16.688232-1.1875q-.921875.765625-1.765625 1.09375-.828125.3125-1.796875.3125-1.59375 0-2.453125-.78125-.859375-.78125-.859375-1.984375 0-.71875.328125-1.296875.328125-.59375.84375-.9375.53125-.359375 1.1875-.546875.46875-.125 1.453125-.25 1.984375-.234375 2.921875-.5625.015625-.34375.015625-.421875 0-1-.46875-1.421875-.625-.546875-1.875-.546875-1.15625 0-1.703125.40625-.546875.40625-.8125 1.421875l-1.609375-.21875q.21875-1.015625.71875-1.640625.5-.640625 1.453125-.984375.953125-.34375 2.1875-.34375 1.25 0 2.015625.296875.78125.28125 1.140625.734375.375.4375.515625 1.109375.078125.421875.078125 1.515625v2.1875q0 2.28125.109375 2.890625.109375.59375.40625 1.15625h-1.703125q-.265625-.515625-.328125-1.1875zm-.140625-3.671875q-.890625.375-2.671875.625-1.015625.140625-1.4375.328125-.421875.1875-.65625.53125-.21875.34375-.21875.78125 0 .65625.5 1.09375.5.4375 1.453125.4375.9375 0 1.671875-.40625.75-.421875 1.09375-1.140625.265625-.5625.265625-1.640625zm4.156952 4.859375v-13.359375h1.640625v13.359375zm4.1917114-11.46875v-1.890625h1.640625v1.890625zm0 11.46875v-9.671875h1.640625v9.671875zm3.269806 0v-1.328125l6.15625-7.078125q-1.046875.0625-1.84375.0625h-3.9375v-1.328125h7.90625v1.078125l-5.25 6.140625-1 1.125q1.09375-.078125 2.0625-.078125h4.46875v1.40625zm16.515625-1.1875q-.921875.765625-1.765625 1.09375-.828125.3125-1.796875.3125-1.59375 0-2.453125-.78125-.859375-.78125-.859375-1.984375 0-.71875.328125-1.296875.328125-.59375.84375-.9375.53125-.359375 1.1875-.546875.46875-.125 1.453125-.25 1.984375-.234375 2.921875-.5625.015625-.34375.015625-.421875 0-1-.46875-1.421875-.625-.546875-1.875-.546875-1.15625 0-1.703125.40625-.546875.40625-.8125 1.421875l-1.609375-.21875q.21875-1.015625.71875-1.640625.5-.640625 1.453125-.984375.953125-.34375 2.1875-.34375 1.25 0 2.015625.296875.78125.28125 1.140625.734375.375.4375.515625 1.109375.078125.421875.078125 1.515625v2.1875q0 2.28125.109375 2.890625.109375.59375.40625 1.15625h-1.703125q-.265625-.515625-.328125-1.1875zm-.140625-3.671875q-.890625.375-2.671875.625-1.015625.140625-1.4375.328125-.421875.1875-.65625.53125-.21875.34375-.21875.78125 0 .65625.5 1.09375.5.4375 1.453125.4375.9375 0 1.671875-.40625.75-.421875 1.09375-1.140625.265625-.5625.265625-1.640625zm7.7819824 3.390625.234375 1.453125q-.6875.140625-1.234375.140625-.890625 0-1.390625-.28125-.484375-.28125-.6875-.734375-.203125-.46875-.203125-1.9375v-5.578125h-1.203125v-1.265625h1.203125v-2.390625l1.625-.984375v3.375h1.65625v1.265625h-1.65625v5.671875q0 .6875.078125.890625.09375.203125.28125.328125.203125.109375.578125.109375.265625 0 .71875-.0625zm1.6051636-10v-1.890625h1.640625v1.890625zm0 11.46875v-9.671875h1.640625v9.671875zm3.5354614-4.84375q0-2.6875 1.484375-3.96875 1.25-1.078125 3.046875-1.078125 2 0 3.265625 1.3125 1.265625 1.296875 1.265625 3.609375 0 1.859375-.5625 2.9375-.5625 1.0625-1.640625 1.65625-1.0625.59375-2.328125.59375-2.03125 0-3.28125-1.296875-1.25-1.3125-1.25-3.765625zm1.6875 0q0 1.859375.796875 2.796875.8125.921875 2.046875.921875 1.21875 0 2.03125-.921875.8125-.9375.8125-2.84375 0-1.796875-.8125-2.71875-.8125-.921875-2.03125-.921875-1.234375 0-2.046875.921875-.796875.90625-.796875 2.765625zm9.297577 4.84375v-9.671875h1.46875v1.375q1.0625-1.59375 3.078125-1.59375.875 0 1.609375.3125.734375.3125 1.09375.828125.375.5.515625 1.203125.09375.453125.09375 1.59375v5.953125h-1.640625v-5.890625q0-1-.203125-1.484375-.1875-.5-.671875-.796875-.484375-.296875-1.140625-.296875-1.046875 0-1.8125.671875-.75.65625-.75 2.515625v5.28125z" fill="#000"/><path d="m455.44095 338h136.22049v61.007874h-136.22049z" fill="none"/><path d="m486.01755 364.91998v-13.359375h5.015625q1.53125 0 2.453125.40625.921875.40625 1.4375 1.25.53125.84375.53125 1.765625 0 .859375-.46875 1.625-.453125.75-1.390625 1.203125 1.203125.359375 1.859375 1.21875.65625.859375.65625 2.015625 0 .9375-.40625 1.75-.390625.796875-.984375 1.234375-.578125.4375-1.453125.671875-.875.21875-2.15625.21875zm1.78125-7.75h2.875q1.1875 0 1.6875-.140625.671875-.203125 1.015625-.671875.34375-.46875.34375-1.171875 0-.65625-.328125-1.15625-.3125-.515625-.90625-.703125-.59375-.1875-2.03125-.1875h-2.65625zm0 6.171875h3.3125q.859375 0 1.203125-.0625.609375-.109375 1.015625-.359375.421875-.265625.6875-.75.265625-.484375.265625-1.125 0-.75-.390625-1.296875-.375-.546875-1.0625-.765625-.671875-.234375-1.953125-.234375h-3.078125zm10.459198 5.296875-.1875-1.53125q.546875.140625.9375.140625.546875 0 .875-.1875.328125-.171875.546875-.5.15625-.25.5-1.21875.046875-.140625.140625-.40625l-3.671875-9.6875h1.765625l2.015625 5.59375q.390625 1.078125.703125 2.25.28125-1.125.671875-2.203125l2.078125-5.640625h1.640625l-3.6875 9.828125q-.59375 1.609375-.921875 2.203125-.4375.8125-1 1.1875-.5625.375-1.34375.375-.484375 0-1.0625-.203125zm12.984375-5.1875.234375 1.453125q-.6875.140625-1.234375.140625-.890625 0-1.390625-.28125-.484375-.28125-.6875-.734375-.203125-.46875-.203125-1.9375v-5.578125h-1.203125v-1.265625h1.203125v-2.390625l1.625-.984375v3.375h1.65625v1.265625h-1.65625v5.671875q0 .6875.078125.890625.09375.203125.28125.328125.203125.109375.578125.109375.265625 0 .71875-.0625zm8.230164-1.640625 1.6875.203125q-.40625 1.484375-1.484375 2.3125-1.078125.8125-2.765625.8125-2.125 0-3.375-1.296875-1.234375-1.3125-1.234375-3.671875 0-2.453125 1.25-3.796875 1.265625-1.34375 3.265625-1.34375 1.9375 0 3.15625 1.328125 1.234375 1.3125 1.234375 3.703125 0 .15625 0 .4375h-7.21875q.09375 1.59375.90625 2.453125.8125.84375 2.015625.84375.90625 0 1.546875-.46875.640625-.484375 1.015625-1.515625zm-5.390625-2.65625h5.40625q-.109375-1.21875-.625-1.828125-.78125-.953125-2.03125-.953125-1.125 0-1.90625.765625-.765625.75-.84375 2.015625zm15.453857 2.21875 1.609375.21875q-.265625 1.65625-1.359375 2.609375-1.078125.9375-2.671875.9375-1.984375 0-3.1875-1.296875-1.203125-1.296875-1.203125-3.71875 0-1.578125.515625-2.75.515625-1.171875 1.578125-1.75 1.0625-.59375 2.3125-.59375 1.578125 0 2.578125.796875 1 .796875 1.28125 2.265625l-1.59375.234375q-.234375-.96875-.8125-1.453125-.578125-.5-1.390625-.5-1.234375 0-2.015625.890625-.78125.890625-.78125 2.8125 0 1.953125.75 2.84375.75.875 1.953125.875.96875 0 1.609375-.59375.65625-.59375.828125-1.828125zm2.40625-1.296875q0-2.6875 1.484375-3.96875 1.25-1.078125 3.046875-1.078125 2 0 3.265625 1.3125 1.265625 1.296875 1.265625 3.609375 0 1.859375-.5625 2.9375-.5625 1.0625-1.640625 1.65625-1.0625.59375-2.328125.59375-2.03125 0-3.28125-1.296875-1.25-1.3125-1.25-3.765625zm1.6875 0q0 1.859375.796875 2.796875.8125.921875 2.046875.921875 1.21875 0 2.03125-.921875.8125-.9375.8125-2.84375 0-1.796875-.8125-2.71875-.8125-.921875-2.03125-.921875-1.234375 0-2.046875.921875-.796875.90625-.796875 2.765625zm15.563232 4.84375v-1.21875q-.90625 1.4375-2.703125 1.4375-1.15625 0-2.125-.640625-.96875-.640625-1.5-1.78125-.53125-1.140625-.53125-2.625 0-1.453125.484375-2.625.484375-1.1875 1.4375-1.8125.96875-.625 2.171875-.625.875 0 1.546875.375.6875.359375 1.109375.953125v-4.796875h1.640625v13.359375zm-5.171875-4.828125q0 1.859375.78125 2.78125.78125.921875 1.84375.921875 1.078125 0 1.828125-.875.75-.890625.75-2.6875 0-1.984375-.765625-2.90625-.765625-.9375-1.890625-.9375-1.078125 0-1.8125.890625-.734375.890625-.734375 2.8125zm15.906982 1.71875 1.6875.203125q-.40625 1.484375-1.484375 2.3125-1.078125.8125-2.765625.8125-2.125 0-3.375-1.296875-1.234375-1.3125-1.234375-3.671875 0-2.453125 1.25-3.796875 1.265625-1.34375 3.265625-1.34375 1.9375 0 3.15625 1.328125 1.234375 1.3125 1.234375 3.703125 0 .15625 0 .4375h-7.21875q.09375 1.59375.90625 2.453125.8125.84375 2.015625.84375.90625 0 1.546875-.46875.640625-.484375 1.015625-1.515625zm-5.390625-2.65625h5.40625q-.109375-1.21875-.625-1.828125-.78125-.953125-2.03125-.953125-1.125 0-1.90625.765625-.765625.75-.84375 2.015625z" fill="#000"/><path d="m477.89978 386.91998v-13.359375h9.015625v1.578125h-7.25v4.140625h6.265625v1.578125h-6.265625v6.0625zm11.099121-11.46875v-1.890625h1.640625v1.890625zm0 11.46875v-9.671875h1.640625v9.671875zm4.144806 0v-9.671875h1.46875v1.375q1.0625-1.59375 3.078125-1.59375.875 0 1.609375.3125.734375.3125 1.09375.828125.375.5.515625 1.203125.09375.453125.09375 1.59375v5.953125h-1.640625v-5.890625q0-1-.203125-1.484375-.1875-.5-.671875-.796875-.484375-.296875-1.140625-.296875-1.046875 0-1.8125.671875-.75.65625-.75 2.515625v5.28125zm16.688232-1.1875q-.921875.765625-1.765625 1.09375-.828125.3125-1.796875.3125-1.59375 0-2.453125-.78125-.859375-.78125-.859375-1.984375 0-.71875.328125-1.296875.328125-.59375.84375-.9375.53125-.359375 1.1875-.546875.46875-.125 1.453125-.25 1.984375-.234375 2.921875-.5625.015625-.34375.015625-.421875 0-1-.46875-1.421875-.625-.546875-1.875-.546875-1.15625 0-1.703125.40625-.546875.40625-.8125 1.421875l-1.609375-.21875q.21875-1.015625.71875-1.640625.5-.640625 1.453125-.984375.953125-.34375 2.1875-.34375 1.25 0 2.015625.296875.78125.28125 1.140625.734375.375.4375.515625 1.109375.078125.421875.078125 1.515625v2.1875q0 2.28125.109375 2.890625.109375.59375.40625 1.15625h-1.703125q-.265625-.515625-.328125-1.1875zm-.140625-3.671875q-.890625.375-2.671875.625-1.015625.140625-1.4375.328125-.421875.1875-.65625.53125-.21875.34375-.21875.78125 0 .65625.5 1.09375.5.4375 1.453125.4375.9375 0 1.671875-.40625.75-.421875 1.09375-1.140625.265625-.5625.265625-1.640625zm4.156952 4.859375v-13.359375h1.640625v13.359375zm4.1917114-11.46875v-1.890625h1.640625v1.890625zm0 11.46875v-9.671875h1.640625v9.671875zm3.2698364 0v-1.328125l6.15625-7.078125q-1.046875.0625-1.84375.0625h-3.9375v-1.328125h7.90625v1.078125l-5.25 6.140625-1 1.125q1.09375-.078125 2.0625-.078125h4.46875v1.40625zm16.515625-1.1875q-.921875.765625-1.765625 1.09375-.828125.3125-1.796875.3125-1.59375 0-2.453125-.78125-.859375-.78125-.859375-1.984375 0-.71875.328125-1.296875.328125-.59375.84375-.9375.53125-.359375 1.1875-.546875.46875-.125 1.453125-.25 1.984375-.234375 2.921875-.5625.015625-.34375.015625-.421875 0-1-.46875-1.421875-.625-.546875-1.875-.546875-1.15625 0-1.703125.40625-.546875.40625-.8125 1.421875l-1.609375-.21875q.21875-1.015625.71875-1.640625.5-.640625 1.453125-.984375.953125-.34375 2.1875-.34375 1.25 0 2.015625.296875.78125.28125 1.140625.734375.375.4375.515625 1.109375.078125.421875.078125 1.515625v2.1875q0 2.28125.109375 2.890625.109375.59375.40625 1.15625h-1.703125q-.265625-.515625-.328125-1.1875zm-.140625-3.671875q-.890625.375-2.671875.625-1.015625.140625-1.4375.328125-.421875.1875-.65625.53125-.21875.34375-.21875.78125 0 .65625.5 1.09375.5.4375 1.453125.4375.9375 0 1.671875-.40625.75-.421875 1.09375-1.140625.265625-.5625.265625-1.640625zm7.7819214 3.390625.234375 1.453125q-.6875.140625-1.234375.140625-.890625 0-1.390625-.28125-.484375-.28125-.6875-.734375-.203125-.46875-.203125-1.9375v-5.578125h-1.203125v-1.265625h1.203125v-2.390625l1.625-.984375v3.375h1.65625v1.265625h-1.65625v5.671875q0 .6875.078125.890625.09375.203125.28125.328125.203125.109375.578125.109375.265625 0 .71875-.0625zm1.6052246-10v-1.890625h1.640625v1.890625zm0 11.46875v-9.671875h1.640625v9.671875zm3.5354004-4.84375q0-2.6875 1.484375-3.96875 1.25-1.078125 3.046875-1.078125 2 0 3.265625 1.3125 1.265625 1.296875 1.265625 3.609375 0 1.859375-.5625 2.9375-.5625 1.0625-1.640625 1.65625-1.0625.59375-2.328125.59375-2.03125 0-3.28125-1.296875-1.25-1.3125-1.25-3.765625zm1.6875 0q0 1.859375.796875 2.796875.8125.921875 2.046875.921875 1.21875 0 2.03125-.921875.8125-.9375.8125-2.84375 0-1.796875-.8125-2.71875-.8125-.921875-2.03125-.921875-1.234375 0-2.046875.921875-.796875.90625-.796875 2.765625zm9.297607 4.84375v-9.671875h1.46875v1.375q1.0625-1.59375 3.078125-1.59375.875 0 1.609375.3125.734375.3125 1.09375.828125.375.5.515625 1.203125.09375.453125.09375 1.59375v5.953125h-1.640625v-5.890625q0-1-.203125-1.484375-.1875-.5-.671875-.796875-.484375-.296875-1.140625-.296875-1.046875 0-1.8125.671875-.75.65625-.75 2.515625v5.28125z" fill="#000"/><path d="m77.291336 301h131.2126v41.007874h-131.2126z" fill="none"/><path d="m96.162674 327.91998v-13.359375h2.65625l3.15625 9.453125q.4375 1.328125.640625 1.984375.234375-.734375.703125-2.140625l3.203125-9.296875h2.375v13.359375h-1.703125v-11.171875l-3.875 11.171875h-1.59375l-3.859375-11.375v11.375zm21.697052-1.1875q-.921875.765625-1.765625 1.09375-.828125.3125-1.796875.3125-1.59375 0-2.453125-.78125-.859375-.78125-.859375-1.984375 0-.71875.328125-1.296875.328125-.59375.84375-.9375.53125-.359375 1.1875-.546875.46875-.125 1.453125-.25 1.984375-.234375 2.921875-.5625.015625-.34375.015625-.421875 0-1-.46875-1.421875-.625-.546875-1.875-.546875-1.15625 0-1.703125.40625-.546875.40625-.8125 1.421875l-1.609375-.21875q.21875-1.015625.71875-1.640625.5-.640625 1.453125-.984375.953125-.34375 2.1875-.34375 1.25 0 2.015625.296875.78125.28125 1.140625.734375.375.4375.515625 1.109375.078125.421875.078125 1.515625v2.1875q0 2.28125.109375 2.890625.109375.59375.40625 1.15625h-1.703125q-.265625-.515625-.328125-1.1875zm-.140625-3.671875q-.890625.375-2.671875.625-1.015625.140625-1.4375.328125-.421875.1875-.65625.53125-.21875.34375-.21875.78125 0 .65625.5 1.09375.5.4375 1.453125.4375.9375 0 1.671875-.40625.75-.421875 1.09375-1.140625.265625-.5625.265625-1.640625zm4.203842-6.609375v-1.890625h1.640625v1.890625zm0 11.46875v-9.671875h1.640625v9.671875zm4.144821 0v-9.671875h1.46875v1.375q1.0625-1.59375 3.078125-1.59375.875 0 1.609375.3125.734375.3125 1.09375.828125.375.5.515625 1.203125.09375.453125.09375 1.59375v5.953125h-1.640625v-5.890625q0-1-.203125-1.484375-.1875-.5-.671875-.796875-.484375-.296875-1.140625-.296875-1.046875 0-1.8125.671875-.75.65625-.75 2.515625v5.28125zm19.168396 0v-11.78125h-4.40625v-1.578125h10.578125v1.578125h-4.40625v11.78125zm7.786606 0v-13.359375h1.640625v4.796875q1.140625-1.328125 2.890625-1.328125 1.078125 0 1.859375.421875.796875.421875 1.140625 1.171875.34375.75.34375 2.171875v6.125h-1.640625v-6.125q0-1.234375-.53125-1.796875-.53125-.5625-1.515625-.5625-.71875 0-1.359375.390625-.640625.375-.921875 1.015625-.265625.640625-.265625 1.78125v5.296875zm10.360092 0v-9.671875h1.46875v1.46875q.5625-1.03125 1.03125-1.359375.484375-.328125 1.0625-.328125.828125 0 1.6875.53125l-.5625 1.515625q-.609375-.359375-1.203125-.359375-.546875 0-.96875.328125-.421875.328125-.609375.890625-.28125.875-.28125 1.921875v5.0625zm12.853302-3.109375 1.6875.203125q-.40625 1.484375-1.484375 2.3125-1.078125.8125-2.765625.8125-2.125 0-3.375-1.296875-1.234375-1.3125-1.234375-3.671875 0-2.453125 1.25-3.796875 1.265625-1.34375 3.265625-1.34375 1.9375 0 3.15625 1.328125 1.234375 1.3125 1.234375 3.703125 0 .15625 0 .4375h-7.21875q.09375 1.59375.90625 2.453125.8125.84375 2.015625.84375.90625 0 1.546875-.46875.640625-.484375 1.015625-1.515625zm-5.390625-2.65625h5.40625q-.109375-1.21875-.625-1.828125-.78125-.953125-2.03125-.953125-1.125 0-1.90625.765625-.765625.75-.84375 2.015625zm15.453842 4.578125q-.921875.765625-1.765625 1.09375-.828125.3125-1.796875.3125-1.59375 0-2.453125-.78125-.859375-.78125-.859375-1.984375 0-.71875.328125-1.296875.328125-.59375.84375-.9375.53125-.359375 1.1875-.546875.46875-.125 1.453125-.25 1.984375-.234375 2.921875-.5625.015625-.34375.015625-.421875 0-1-.46875-1.421875-.625-.546875-1.875-.546875-1.15625 0-1.703125.40625-.546875.40625-.8125 1.421875l-1.609375-.21875q.21875-1.015625.71875-1.640625.5-.640625 1.453125-.984375.953125-.34375 2.1875-.34375 1.25 0 2.015625.296875.78125.28125 1.140625.734375.375.4375.515625 1.109375.078125.421875.078125 1.515625v2.1875q0 2.28125.109375 2.890625.109375.59375.40625 1.15625h-1.703125q-.265625-.515625-.328125-1.1875zm-.140625-3.671875q-.890625.375-2.671875.625-1.015625.140625-1.4375.328125-.421875.1875-.65625.53125-.21875.34375-.21875.78125 0 .65625.5 1.09375.5.4375 1.453125.4375.9375 0 1.671875-.40625.75-.421875 1.09375-1.140625.265625-.5625.265625-1.640625zm10.469467 4.859375v-1.21875q-.90625 1.4375-2.703125 1.4375-1.15625 0-2.125-.640625-.96875-.640625-1.5-1.78125-.53125-1.140625-.53125-2.625 0-1.453125.484375-2.625.484375-1.1875 1.4375-1.8125.96875-.625 2.171875-.625.875 0 1.546875.375.6875.359375 1.109375.953125v-4.796875h1.640625v13.359375zm-5.171875-4.828125q0 1.859375.78125 2.78125.78125.921875 1.84375.921875 1.078125 0 1.828125-.875.75-.890625.75-2.6875 0-1.984375-.765625-2.90625-.765625-.9375-1.890625-.9375-1.078125 0-1.8125.890625-.734375.890625-.734375 2.8125z" fill="#000"/><path d="m40 188.98425h170.01575v61.007874h-170.01575z" fill="none"/><path d="m72.26779 211.60738 1.65625-.140625q.125 1 .546875 1.640625.4375.640625 1.34375 1.046875.921875.390625 2.0625.390625 1 0 1.78125-.296875.78125-.296875 1.15625-.8125.375-.53125.375-1.15625 0-.625-.375-1.09375-.359375-.46875-1.1875-.796875-.546875-.203125-2.390625-.640625-1.828125-.453125-2.5625-.84375-.96875-.5-1.4375-1.234375-.46875-.75-.46875-1.671875 0-1 .578125-1.875.578125-.890625 1.671875-1.34375 1.109375-.453125 2.453125-.453125 1.484375 0 2.609375.484375 1.140625.46875 1.75 1.40625.609375.921875.65625 2.09375l-1.6875.125q-.140625-1.265625-.9375-1.90625-.78125-.65625-2.3125-.65625-1.609375 0-2.34375.59375-.734375.59375-.734375 1.421875 0 .71875.53125 1.171875.5.46875 2.65625.96875 2.15625.484375 2.953125.84375 1.171875.53125 1.71875 1.359375.5625.828125.5625 1.90625 0 1.0625-.609375 2.015625-.609375.9375-1.75 1.46875-1.140625.515625-2.578125.515625-1.8125 0-3.046875-.53125-1.21875-.53125-1.921875-1.59375-.6875-1.0625-.71875-2.40625zm19.146698.75 1.609375.21875q-.265625 1.65625-1.359375 2.609375-1.078125.9375-2.671875.9375-1.984375 0-3.1875-1.296875-1.203125-1.296875-1.203125-3.71875 0-1.578125.515625-2.75.515625-1.171875 1.578125-1.75 1.0625-.59375 2.3125-.59375 1.578125 0 2.578125.796875 1 .796875 1.28125 2.265625l-1.59375.234375q-.234375-.96875-.8125-1.453125-.578125-.5-1.390625-.5-1.234375 0-2.015625.890625-.78125.890625-.78125 2.8125 0 1.953125.75 2.84375.75.875 1.953125.875.96875 0 1.609375-.59375.65625-.59375.828125-1.828125zm3 3.546875v-9.671875h1.46875v1.46875q.5625-1.03125 1.03125-1.359375.484375-.328125 1.0625-.328125.828125 0 1.6875.53125l-.5625 1.515625q-.609375-.359375-1.203125-.359375-.546875 0-.96875.328125-.421875.328125-.609375.890625-.28125.875-.28125 1.921875v5.0625zm6.228302-11.46875v-1.890625h1.640625v1.890625zm0 11.46875v-9.671875h1.640625v9.671875zm4.144821 3.703125v-13.375h1.484375v1.25q.53125-.734375 1.1875-1.09375.671875-.375 1.625-.375 1.234375 0 2.171875.640625.953125.625 1.4375 1.796875.484375 1.15625.484375 2.546875 0 1.484375-.53125 2.671875-.53125 1.1875-1.546875 1.828125-1.015625.625-2.140625.625-.8125 0-1.46875-.34375-.65625-.34375-1.0625-.875v4.703125zm1.484375-8.484375q0 1.859375.75 2.765625.765625.890625 1.828125.890625 1.09375 0 1.875-.921875.78125-.9375.78125-2.875 0-1.84375-.765625-2.765625-.75-.921875-1.8125-.921875-1.046875 0-1.859375.984375-.796875.96875-.796875 2.84375zm12.469467 3.3125.234375 1.453125q-.6875.140625-1.234375.140625-.890625 0-1.390625-.28125-.484375-.28125-.6875-.734375-.203125-.46875-.203125-1.9375v-5.578125h-1.203125v-1.265625h1.203125v-2.390625l1.625-.984375v3.375h1.65625v1.265625h-1.65625v5.671875q0 .6875.078125.890625.09375.203125.28125.328125.203125.109375.578125.109375.265625 0 .71875-.0625zm6.3978577-2.828125 1.65625-.140625q.125 1 .546875 1.640625.4375.640625 1.34375 1.046875.921875.390625 2.0625.390625 1 0 1.78125-.296875.78125-.296875 1.15625-.8125.375-.53125.375-1.15625 0-.625-.375-1.09375-.359375-.46875-1.1875-.796875-.546875-.203125-2.390625-.640625-1.828125-.453125-2.5625-.84375-.96875-.5-1.4375-1.234375-.46875-.75-.46875-1.671875 0-1 .578125-1.875.578125-.890625 1.671875-1.34375 1.109375-.453125 2.453125-.453125 1.484375 0 2.609375.484375 1.140625.46875 1.75 1.40625.609375.921875.65625 2.09375l-1.6875.125q-.140625-1.265625-.9375-1.90625-.78125-.65625-2.3125-.65625-1.609375 0-2.34375.59375-.734375.59375-.734375 1.421875 0 .71875.53125 1.171875.5.46875 2.65625.96875 2.15625.484375 2.953125.84375 1.171875.53125 1.71875 1.359375.5625.828125.5625 1.90625 0 1.0625-.609375 2.015625-.609375.9375-1.75 1.46875-1.140625.515625-2.578125.515625-1.8125 0-3.046875-.53125-1.21875-.53125-1.921875-1.59375-.6875-1.0625-.71875-2.40625zm16.412323 2.828125.234375 1.453125q-.6875.140625-1.234375.140625-.890625 0-1.390625-.28125-.484375-.28125-.6875-.734375-.203125-.46875-.203125-1.9375v-5.578125h-1.203125v-1.265625h1.203125v-2.390625l1.625-.984375v3.375h1.65625v1.265625h-1.65625v5.671875q0 .6875.078125.890625.09375.203125.28125.328125.203125.109375.578125.109375.265625 0 .71875-.0625zm1.5895538 1.46875v-9.671875h1.46875v1.46875q.5625-1.03125 1.03125-1.359375.484375-.328125 1.0625-.328125.828125 0 1.6875.53125l-.5625 1.515625q-.609375-.359375-1.203125-.359375-.546875 0-.96875.328125-.421875.328125-.609375.890625-.28125.875-.28125 1.921875v5.0625zm12.853302-3.109375 1.6875.203125q-.40625 1.484375-1.484375 2.3125-1.078125.8125-2.765625.8125-2.125 0-3.375-1.296875-1.234375-1.3125-1.234375-3.671875 0-2.453125 1.25-3.796875 1.265625-1.34375 3.265625-1.34375 1.9375 0 3.15625 1.328125 1.234375 1.3125 1.234375 3.703125 0 .15625 0 .4375h-7.21875q.09375 1.59375.90625 2.453125.8125.84375 2.015625.84375.90625 0 1.546875-.46875.640625-.484375 1.015625-1.515625zm-5.390625-2.65625h5.40625q-.109375-1.21875-.625-1.828125-.78125-.953125-2.03125-.953125-1.125 0-1.90625.765625-.765625.75-.84375 2.015625zm15.453842 4.578125q-.921875.765625-1.765625 1.09375-.828125.3125-1.796875.3125-1.59375 0-2.453125-.78125-.859375-.78125-.859375-1.984375 0-.71875.328125-1.296875.328125-.59375.84375-.9375.53125-.359375 1.1875-.546875.46875-.125 1.453125-.25 1.984375-.234375 2.921875-.5625.015625-.34375.015625-.421875 0-1-.46875-1.421875-.625-.546875-1.875-.546875-1.15625 0-1.703125.40625-.546875.40625-.8125 1.421875l-1.609375-.21875q.21875-1.015625.71875-1.640625.5-.640625 1.453125-.984375.953125-.34375 2.1875-.34375 1.25 0 2.015625.296875.78125.28125 1.140625.734375.375.4375.515625 1.109375.078125.421875.078125 1.515625v2.1875q0 2.28125.109375 2.890625.109375.59375.40625 1.15625h-1.703125q-.265625-.515625-.328125-1.1875zm-.140625-3.671875q-.890625.375-2.671875.625-1.015625.140625-1.4375.328125-.421875.1875-.65625.53125-.21875.34375-.21875.78125 0 .65625.5 1.09375.5.4375 1.453125.4375.9375 0 1.671875-.40625.75-.421875 1.09375-1.140625.265625-.5625.265625-1.640625zm4.203842 4.859375v-9.671875h1.46875v1.359375q.453125-.71875 1.203125-1.140625.765625-.4375 1.71875-.4375 1.078125 0 1.765625.453125.6875.4375.96875 1.234375 1.15625-1.6875 2.984375-1.6875 1.453125 0 2.21875.796875.78125.796875.78125 2.453125v6.640625h-1.640625v-6.09375q0-.984375-.15625-1.40625-.15625-.4375-.578125-.703125-.421875-.265625-.984375-.265625-1.015625 0-1.6875.6875-.671875.671875-.671875 2.15625v5.625h-1.640625v-6.28125q0-1.09375-.40625-1.640625-.40625-.546875-1.3125-.546875-.6875 0-1.28125.359375-.59375.359375-.859375 1.0625-.25.703125-.25 2.03125v5.015625zm22.165802-3.109375 1.6875.203125q-.40625 1.484375-1.484375 2.3125-1.078125.8125-2.765625.8125-2.125 0-3.375-1.296875-1.234375-1.3125-1.234375-3.671875 0-2.453125 1.25-3.796875 1.265625-1.34375 3.265625-1.34375 1.9375 0 3.15625 1.328125 1.234375 1.3125 1.234375 3.703125 0 .15625 0 .4375h-7.21875q.09375 1.59375.90625 2.453125.8125.84375 2.015625.84375.90625 0 1.546875-.46875.640625-.484375 1.015625-1.515625zm-5.390625-2.65625h5.40625q-.109375-1.21875-.625-1.828125-.78125-.953125-2.03125-.953125-1.125 0-1.90625.765625-.765625.75-.84375 2.015625zm9.125717 5.765625v-9.671875h1.46875v1.46875q.5625-1.03125 1.03125-1.359375.484375-.328125 1.0625-.328125.828125 0 1.6875.53125l-.5625 1.515625q-.609375-.359375-1.203125-.359375-.546875 0-.96875.328125-.421875.328125-.609375.890625-.28125.875-.28125 1.921875v5.0625z" fill="#000"/><path d="m146.74797 237.90425v-11.78125h-4.40625v-1.578125h10.578125v1.578125h-4.40625v11.78125zm7.786606 0v-13.359375h1.640625v4.796875q1.140625-1.328125 2.890625-1.328125 1.078125 0 1.859375.421875.796875.421875 1.140625 1.171875.34375.75.34375 2.171875v6.125h-1.640625v-6.125q0-1.234375-.53125-1.796875-.53125-.5625-1.515625-.5625-.71875 0-1.359375.390625-.640625.375-.921875 1.015625-.265625.640625-.265625 1.78125v5.296875zm10.360092 0v-9.671875h1.46875v1.46875q.5625-1.03125 1.03125-1.359375.484375-.328125 1.0625-.328125.828125 0 1.6875.53125l-.5625 1.515625q-.609375-.359375-1.203125-.359375-.546875 0-.96875.328125-.421875.328125-.609375.890625-.28125.875-.28125 1.921875v5.0625zm12.853302-3.109375 1.6875.203125q-.40625 1.484375-1.484375 2.3125-1.078125.8125-2.765625.8125-2.125 0-3.375-1.296875-1.234375-1.3125-1.234375-3.671875 0-2.453125 1.25-3.796875 1.265625-1.34375 3.265625-1.34375 1.9375 0 3.15625 1.328125 1.234375 1.3125 1.234375 3.703125 0 .15625 0 .4375h-7.21875q.09375 1.59375.90625 2.453125.8125.84375 2.015625.84375.90625 0 1.546875-.46875.640625-.484375 1.015625-1.515625zm-5.390625-2.65625h5.40625q-.109375-1.21875-.625-1.828125-.78125-.953125-2.03125-.953125-1.125 0-1.90625.765625-.765625.75-.84375 2.015625zm15.453842 4.578125q-.921875.765625-1.765625 1.09375-.828125.3125-1.796875.3125-1.59375 0-2.453125-.78125-.859375-.78125-.859375-1.984375 0-.71875.328125-1.296875.328125-.59375.84375-.9375.53125-.359375 1.1875-.546875.46875-.125 1.453125-.25 1.984375-.234375 2.921875-.5625.015625-.34375.015625-.421875 0-1-.46875-1.421875-.625-.546875-1.875-.546875-1.15625 0-1.703125.40625-.546875.40625-.8125 1.421875l-1.609375-.21875q.21875-1.015625.71875-1.640625.5-.640625 1.453125-.984375.953125-.34375 2.1875-.34375 1.25 0 2.015625.296875.78125.28125 1.140625.734375.375.4375.515625 1.109375.078125.421875.078125 1.515625v2.1875q0 2.28125.109375 2.890625.109375.59375.40625 1.15625h-1.703125q-.265625-.515625-.328125-1.1875zm-.140625-3.671875q-.890625.375-2.671875.625-1.015625.140625-1.4375.328125-.421875.1875-.65625.53125-.21875.34375-.21875.78125 0 .65625.5 1.09375.5.4375 1.453125.4375.9375 0 1.671875-.40625.75-.421875 1.09375-1.140625.265625-.5625.265625-1.640625zm10.469467 4.859375v-1.21875q-.90625 1.4375-2.703125 1.4375-1.15625 0-2.125-.640625-.96875-.640625-1.5-1.78125-.53125-1.140625-.53125-2.625 0-1.453125.484375-2.625.484375-1.1875 1.4375-1.8125.96875-.625 2.171875-.625.875 0 1.546875.375.6875.359375 1.109375.953125v-4.796875h1.640625v13.359375zm-5.171875-4.828125q0 1.859375.78125 2.78125.78125.921875 1.84375.921875 1.078125 0 1.828125-.875.75-.890625.75-2.6875 0-1.984375-.765625-2.90625-.765625-.9375-1.890625-.9375-1.078125 0-1.8125.890625-.734375.890625-.734375 2.8125z" fill="#000"/><path d="m537.5512 301h111.02362v41.007874h-111.02362z" fill="#ea9999" fill-rule="evenodd"/><path d="m537.5512 301h111.02362v41.007874h-111.02362z" fill-rule="evenodd" stroke="#000" stroke-linecap="butt" stroke-linejoin="round"/><path d="m560.8266 328.42395v-13.359375h9.65625v1.578125h-7.875v4.09375h7.375v1.5625h-7.375v4.546875h8.1875v1.578125zm11.1154785 0 3.53125-5.03125-3.265625-4.640625h2.046875l1.484375 2.265625q.421875.640625.671875 1.078125.40625-.59375.734375-1.0625l1.640625-2.28125h1.953125l-3.34375 4.546875 3.59375 5.125h-2.015625l-1.984375-3-.515625-.8125-2.546875 3.8125zm17.046875-3.109375 1.6875.203125q-.40625 1.484375-1.484375 2.3125-1.078125.8125-2.765625.8125-2.125 0-3.375-1.296875-1.234375-1.3125-1.234375-3.671875 0-2.453125 1.25-3.796875 1.265625-1.34375 3.265625-1.34375 1.9375 0 3.15625 1.328125 1.234375 1.3125 1.234375 3.703125 0 .15625 0 .4375h-7.21875q.09375 1.59375.90625 2.453125.8125.84375 2.015625.84375.90625 0 1.546875-.46875.640625-.484375 1.015625-1.515625zm-5.390625-2.65625h5.40625q-.109375-1.21875-.625-1.828125-.78125-.953125-2.03125-.953125-1.125 0-1.90625.765625-.765625.75-.84375 2.015625zm15.453796 2.21875 1.609375.21875q-.265625 1.65625-1.359375 2.609375-1.078125.9375-2.671875.9375-1.984375 0-3.1875-1.296875-1.203125-1.296875-1.203125-3.71875 0-1.578125.515625-2.75.515625-1.171875 1.578125-1.75 1.0625-.59375 2.3125-.59375 1.578125 0 2.578125.796875 1 .796875 1.28125 2.265625l-1.59375.234375q-.234375-.96875-.8125-1.453125-.578125-.5-1.390625-.5-1.234375 0-2.015625.890625-.78125.890625-.78125 2.8125 0 1.953125.75 2.84375.75.875 1.953125.875.96875 0 1.609375-.59375.65625-.59375.828125-1.828125zm9.34375 3.546875v-1.421875q-1.125 1.640625-3.0625 1.640625-.859375 0-1.609375-.328125-.734375-.328125-1.09375-.828125-.359375-.5-.5-1.21875-.109375-.46875-.109375-1.53125v-5.984375h1.640625v5.359375q0 1.28125.109375 1.734375.15625.640625.65625 1.015625.5.375 1.234375.375.734375 0 1.375-.375.65625-.390625.921875-1.03125.265625-.65625.265625-1.890625v-5.1875h1.640625v9.671875zm7.6257324-1.46875.234375 1.453125q-.6875.140625-1.234375.140625-.890625 0-1.390625-.28125-.484375-.28125-.6875-.734375-.203125-.46875-.203125-1.9375v-5.578125h-1.203125v-1.265625h1.203125v-2.390625l1.625-.984375v3.375h1.65625v1.265625h-1.65625v5.671875q0 .6875.078125.890625.09375.203125.28125.328125.203125.109375.578125.109375.265625 0 .71875-.0625zm8.230164-1.640625 1.6875.203125q-.40625 1.484375-1.484375 2.3125-1.078125.8125-2.765625.8125-2.125 0-3.375-1.296875-1.234375-1.3125-1.234375-3.671875 0-2.453125 1.25-3.796875 1.265625-1.34375 3.265625-1.34375 1.9375 0 3.15625 1.328125 1.234375 1.3125 1.234375 3.703125 0 .15625 0 .4375h-7.21875q.09375 1.59375.90625 2.453125.8125.84375 2.015625.84375.90625 0 1.546875-.46875.640625-.484375 1.015625-1.515625zm-5.390625-2.65625h5.40625q-.109375-1.21875-.625-1.828125-.78125-.953125-2.03125-.953125-1.125 0-1.90625.765625-.765625.75-.84375 2.015625z" fill="#000"/><path d="m213 179v204" fill="none"/><path d="m213 179v204" fill-rule="evenodd" stroke="#000" stroke-dasharray="8 3" stroke-linecap="butt" stroke-linejoin="round"/><path d="m774 185.98425v204" fill="none"/><path d="m774 185.98425v204" fill-rule="evenodd" stroke="#000" stroke-dasharray="8 3" stroke-linecap="butt" stroke-linejoin="round"/><path d="m447.4882 117.99213h136.22049v61.007874h-136.22049z" fill="none"/><path d="m470.80154 157.71213v-22.90625h8.59375q2.625 0 4.203125.703125 1.59375.6875 2.484375 2.140625.90625 1.4375.90625 3.015625 0 1.46875-.796875 2.765625-.796875 1.296875-2.40625 2.09375 2.078125.609375 3.1875 2.078125 1.125 1.46875 1.125 3.46875 0 1.609375-.6875 3-.671875 1.375-1.671875 2.125-1 .75-2.515625 1.140625-1.5.375-3.6875.375zm3.03125-13.28125h4.953125q2.015625 0 2.890625-.265625 1.15625-.34375 1.734375-1.140625.59375-.796875.59375-2 0-1.140625-.546875-2-.546875-.875-1.5625-1.1875-1.015625-.328125-3.484375-.328125h-4.578125zm0 10.578125h5.703125q1.46875 0 2.0625-.109375 1.046875-.1875 1.75-.625.703125-.4375 1.15625-1.265625.453125-.84375.453125-1.9375 0-1.28125-.65625-2.21875-.65625-.953125-1.828125-1.328125-1.15625-.390625-3.34375-.390625h-5.296875zm29.4375-2.640625 2.90625.359375q-.6875 2.546875-2.546875 3.953125-1.859375 1.40625-4.75 1.40625-3.640625 0-5.78125-2.234375-2.125-2.25-2.125-6.296875 0-4.1875 2.15625-6.5 2.15625-2.3125 5.59375-2.3125 3.328125 0 5.4375 2.265625 2.109375 2.265625 2.109375 6.375 0 .25-.015625.75h-12.375q.15625 2.734375 1.546875 4.1875 1.390625 1.453125 3.46875 1.453125 1.546875 0 2.640625-.8125 1.09375-.8125 1.734375-2.59375zm-9.234375-4.546875h9.265625q-.1875-2.09375-1.0625-3.140625-1.34375-1.625-3.484375-1.625-1.9375 0-3.265625 1.296875-1.3125 1.296875-1.453125 3.46875zm16.34375 9.890625v-14.40625h-2.484375v-2.1875h2.484375v-1.765625q0-1.671875.296875-2.484375.40625-1.09375 1.4219055-1.765625 1.03125-.6875 2.875-.6875 1.1875 0 2.625.28125l-.421875 2.453125q-.875-.15625-1.65625-.15625-1.28125 0-1.8125.546875-.53125.546875-.53125 2.046875v1.53125h3.234375v2.1875h-3.234375v14.40625zm7.1719055-8.296875q0-4.609375 2.5625-6.828125 2.140625-1.84375 5.21875-1.84375 3.421875 0 5.59375 2.25 2.171875 2.234375 2.171875 6.1875 0 3.203125-.96875 5.046875-.953125 1.828125-2.796875 2.84375-1.828125 1.015625-4 1.015625-3.484375 0-5.640625-2.234375-2.140625-2.234375-2.140625-6.4375zm2.890625 0q0 3.1875 1.390625 4.78125 1.390625 1.578125 3.5 1.578125 2.09375 0 3.484375-1.59375 1.390625-1.59375 1.390625-4.859375 0-3.078125-1.40625-4.65625-1.390625-1.59375-3.46875-1.59375-2.109375 0-3.5 1.578125-1.390625 1.578125-1.390625 4.765625zm15.921875 8.296875v-16.59375h2.53125v2.515625q.96875-1.765625 1.78125-2.328125.828125-.5625 1.8125-.5625 1.421875 0 2.890625.90625l-.96875 2.609375q-1.03125-.609375-2.0625-.609375-.921875 0-1.65625.5625-.734375.546875-1.046875 1.53125-.46875 1.5-.46875 3.28125v8.6875zm22.046875-5.34375 2.90625.359375q-.6875 2.546875-2.546875 3.953125-1.859375 1.40625-4.75 1.40625-3.640625 0-5.78125-2.234375-2.125-2.25-2.125-6.296875 0-4.1875 2.15625-6.5 2.15625-2.3125 5.59375-2.3125 3.328125 0 5.4375 2.265625 2.109375 2.265625 2.109375 6.375 0 .25-.015625.75h-12.375q.15625 2.734375 1.546875 4.1875 1.390625 1.453125 3.46875 1.453125 1.546875 0 2.640625-.8125 1.09375-.8125 1.734375-2.59375zm-9.234375-4.546875h9.265625q-.1875-2.09375-1.0625-3.140625-1.34375-1.625-3.484375-1.625-1.9375 0-3.265625 1.296875-1.3125 1.296875-1.453125 3.46875z" fill="#000"/><path d="m800 301h28v41.007874h-28z" fill="#cfe2f3" fill-rule="evenodd"/><path d="m800 301h28v41.007874h-28z" fill-rule="evenodd" stroke="#000" stroke-linecap="butt" stroke-linejoin="round"/><path d="m828 301-1.0078735-61.007874" fill="none"/><path d="m828 301-.9088135-55.008698" fill-rule="evenodd" stroke="#000" stroke-linecap="butt" stroke-linejoin="round"/><path d="m828.74274 245.96402-1.7264404-4.510193-1.5765991 4.5647583z" fill="#000" fill-rule="evenodd" stroke="#000" stroke-linecap="butt"/><path d="m826.9921 198.98425h111.02362v41.007874h-111.02362z" fill="#fce5cd" fill-rule="evenodd"/><path d="m826.9921 198.98425h111.02362v41.007874h-111.02362z" fill-rule="evenodd" stroke="#000" stroke-linecap="butt" stroke-linejoin="round"/><path d="m859.57355 226.40819v-13.359375h5.046875q1.328125 0 2.03125.125.96875.171875 1.640625.640625.671875.453125 1.078125 1.28125.40625.828125.40625 1.828125 0 1.703125-1.09375 2.890625-1.078125 1.171875-3.921875 1.171875h-3.421875v5.421875zm1.765625-7h3.453125q1.71875 0 2.4375-.640625.71875-.640625.71875-1.796875 0-.84375-.421875-1.4375-.421875-.59375-1.125-.78125-.4375-.125-1.640625-.125h-3.421875zm16.787292 5.8125q-.921875.765625-1.765625 1.09375-.828125.3125-1.796875.3125-1.59375 0-2.453125-.78125-.859375-.78125-.859375-1.984375 0-.71875.328125-1.296875.328125-.59375.84375-.9375.53125-.359375 1.1875-.546875.46875-.125 1.453125-.25 1.984375-.234375 2.921875-.5625.015625-.34375.015625-.421875 0-1-.46875-1.421875-.625-.546875-1.875-.546875-1.15625 0-1.703125.40625-.546875.40625-.8125 1.421875l-1.609375-.21875q.21875-1.015625.71875-1.640625.5-.640625 1.453125-.984375.953125-.34375 2.1875-.34375 1.25 0 2.015625.296875.78125.28125 1.140625.734375.375.4375.515625 1.109375.078125.421875.078125 1.515625v2.1875q0 2.28125.109375 2.890625.109375.59375.40625 1.15625h-1.703125q-.265625-.515625-.328125-1.1875zm-.140625-3.671875q-.890625.375-2.671875.625-1.015625.140625-1.4375.328125-.421875.1875-.65625.53125-.21875.34375-.21875.78125 0 .65625.5 1.09375.5.4375 1.453125.4375.9375 0 1.671875-.40625.75-.421875 1.09375-1.140625.265625-.5625.265625-1.640625zm4.1882324 4.859375v-9.671875h1.46875v1.46875q.5625-1.03125 1.03125-1.359375.484375-.328125 1.0625-.328125.828125 0 1.6875.53125l-.5625 1.515625q-.609375-.359375-1.203125-.359375-.546875 0-.96875.328125-.421875.328125-.609375.890625-.28125.875-.28125 1.921875v5.0625zm5.5720215-2.890625 1.625-.25q.125.96875.75 1.5.625.515625 1.75.515625 1.125 0 1.671875-.453125.546875-.46875.546875-1.09375 0-.546875-.484375-.875-.328125-.21875-1.671875-.546875-1.8125-.46875-2.515625-.796875-.6875-.328125-1.046875-.90625-.359375-.59375-.359375-1.3125 0-.640625.296875-1.1875.296875-.5625.8125-.921875.375-.28125 1.03125-.46875.671875-.203125 1.421875-.203125 1.140625 0 2 .328125.859375.328125 1.265625.890625.421875.5625.578125 1.5l-1.609375.21875q-.109375-.75-.640625-1.171875-.515625-.421875-1.46875-.421875-1.140625 0-1.625.375-.46875.375-.46875.875 0 .3125.1875.578125.203125.265625.640625.4375.234375.09375 1.4375.421875 1.75.453125 2.4375.75.6875.296875 1.078125.859375.390625.5625.390625 1.40625 0 .828125-.484375 1.546875-.46875.71875-1.375 1.125-.90625.390625-2.046875.390625-1.875 0-2.875-.78125-.984375-.78125-1.25-2.328125zm16.609375-.21875 1.6875.203125q-.40625 1.484375-1.484375 2.3125-1.078125.8125-2.765625.8125-2.125 0-3.375-1.296875-1.234375-1.3125-1.234375-3.671875 0-2.453125 1.25-3.796875 1.265625-1.34375 3.265625-1.34375 1.9375 0 3.15625 1.328125 1.234375 1.3125 1.234375 3.703125 0 .15625 0 .4375h-7.21875q.09375 1.59375.90625 2.453125.8125.84375 2.015625.84375.90625 0 1.546875-.46875.640625-.484375 1.015625-1.515625zm-5.390625-2.65625h5.40625q-.109375-1.21875-.625-1.828125-.78125-.953125-2.03125-.953125-1.125 0-1.90625.765625-.765625.75-.84375 2.015625z" fill="#000"/><path d="m1049.0472 239.48819v62.015747" fill="none"/><path d="m1049.0472 239.48819v56.015747" fill-rule="evenodd" stroke="#000" stroke-linecap="butt" stroke-linejoin="round"/><path d="m1047.3955 295.50394 1.6517334 4.538086 1.6517334-4.538086z" fill="#000" fill-rule="evenodd" stroke="#000" stroke-linecap="butt"/><path d="m1049.2743 301h28v41.007874h-28z" fill="#cfe2f3" fill-rule="evenodd"/><path d="m1049.2743 301h28v41.007874h-28z" fill-rule="evenodd" stroke="#000" stroke-linecap="butt" stroke-linejoin="round"/><path d="m938.0236 198.98425h111.02362v41.007874h-111.02362z" fill="#d9ead3" fill-rule="evenodd"/><path d="m938.0236 198.98425h111.02362v41.007874h-111.02362z" fill-rule="evenodd" stroke="#000" stroke-linecap="butt" stroke-linejoin="round"/><path d="m970.28894 221.72069 1.765625.453125q-.5625 2.171875-2 3.328125-1.4375 1.140625-3.53125 1.140625-2.15625 0-3.515625-.875-1.34375-.890625-2.0625-2.546875-.703125-1.671875-.703125-3.59375 0-2.078125.796875-3.625.796875-1.5625 2.265625-2.359375 1.484375-.8125 3.25-.8125 2 0 3.359375 1.015625 1.375 1.015625 1.90625 2.875l-1.734375.40625q-.46875-1.453125-1.359375-2.109375-.875-.671875-2.203125-.671875-1.546875 0-2.578125.734375-1.03125.734375-1.453125 1.984375-.421875 1.234375-.421875 2.5625 0 1.703125.5 2.96875.5 1.265625 1.546875 1.90625 1.046875.625 2.265625.625 1.484375 0 2.515625-.859375 1.03125-.859375 1.390625-2.546875zm3.1291504-.15625q0-2.6875 1.484375-3.96875 1.25-1.078125 3.046875-1.078125 2 0 3.265625 1.3125 1.265625 1.296875 1.265625 3.609375 0 1.859375-.5625 2.9375-.5625 1.0625-1.640625 1.65625-1.0625.59375-2.328125.59375-2.03125 0-3.28125-1.296875-1.25-1.3125-1.25-3.765625zm1.6875 0q0 1.859375.796875 2.796875.8125.921875 2.046875.921875 1.21875 0 2.03125-.921875.8125-.9375.8125-2.84375 0-1.796875-.8125-2.71875-.8125-.921875-2.03125-.921875-1.234375 0-2.046875.921875-.796875.90625-.796875 2.765625zm9.297607 4.84375v-9.671875h1.46875v1.359375q.453125-.71875 1.203125-1.140625.765625-.4375 1.71875-.4375 1.078125 0 1.765625.453125.6875.4375.96875 1.234375 1.15625-1.6875 2.984375-1.6875 1.453125 0 2.21875.796875.78125.796875.78125 2.453125v6.640625h-1.640625v-6.09375q0-.984375-.15625-1.40625-.15625-.4375-.578125-.703125-.421875-.265625-.984375-.265625-1.015625 0-1.6875.6875-.671875.671875-.671875 2.15625v5.625h-1.640625v-6.28125q0-1.09375-.40625-1.640625-.40625-.546875-1.3125-.546875-.6875 0-1.28125.359375-.59375.359375-.859375 1.0625-.25.703125-.25 2.03125v5.015625zm15.5408325 3.703125v-13.375h1.484375v1.25q.53125-.734375 1.1875-1.09375.671875-.375 1.625-.375 1.234375 0 2.171875.640625.953125.625 1.4375 1.796875.484375 1.15625.484375 2.546875 0 1.484375-.53125 2.671875-.53125 1.1875-1.546875 1.828125-1.015625.625-2.140625.625-.8125 0-1.46875-.34375-.65625-.34375-1.0625-.875v4.703125zm1.484375-8.484375q0 1.859375.75 2.765625.765625.890625 1.828125.890625 1.09375 0 1.875-.921875.78125-.9375.78125-2.875 0-1.84375-.765625-2.765625-.75-.921875-1.8125-.921875-1.046875 0-1.859375.984375-.796875.96875-.796875 2.84375zm8.891296-6.6875v-1.890625h1.640625v1.890625zm0 11.46875v-9.671875h1.640625v9.671875zm4.0979614 0v-13.359375h1.640625v13.359375zm10.816711-3.109375 1.6875.203125q-.40625 1.484375-1.484375 2.3125-1.078125.8125-2.765625.8125-2.125 0-3.375-1.296875-1.234375-1.3125-1.234375-3.671875 0-2.453125 1.25-3.796875 1.265625-1.34375 3.265625-1.34375 1.9375 0 3.15625 1.328125 1.234375 1.3125 1.234375 3.703125 0 .15625 0 .4375h-7.21875q.09375 1.59375.90625 2.453125.8125.84375 2.015625.84375.90625 0 1.546875-.46875.640625-.484375 1.015625-1.515625zm-5.390625-2.65625h5.40625q-.109375-1.21875-.625-1.828125-.78125-.953125-2.03125-.953125-1.125 0-1.90625.765625-.765625.75-.84375 2.015625z" fill="#000"/><path d="m1077.5511 301h28v41.007874h-28z" fill="#cfe2f3" fill-rule="evenodd"/><path d="m1077.5511 301h28v41.007874h-28z" fill-rule="evenodd" stroke="#000" stroke-linecap="butt" stroke-linejoin="round"/><path d="m776 336h76v61.007874h-76z" fill="none"/><path d="m794.6079 362.91998v-13.359375h1.78125v11.78125h6.5625v1.578125zm9.641357-4.84375q0-2.6875 1.484375-3.96875 1.25-1.078125 3.046875-1.078125 2 0 3.265625 1.3125 1.265625 1.296875 1.265625 3.609375 0 1.859375-.5625 2.9375-.5625 1.0625-1.640625 1.65625-1.0625.59375-2.328125.59375-2.03125 0-3.28125-1.296875-1.25-1.3125-1.25-3.765625zm1.6875 0q0 1.859375.796875 2.796875.8125.921875 2.046875.921875 1.21875 0 2.03125-.921875.8125-.9375.8125-2.84375 0-1.796875-.8125-2.71875-.8125-.921875-2.03125-.921875-1.234375 0-2.046875.921875-.796875.90625-.796875 2.765625zm15.610107 3.65625q-.921875.765625-1.765625 1.09375-.828125.3125-1.796875.3125-1.59375 0-2.453125-.78125-.859375-.78125-.859375-1.984375 0-.71875.328125-1.296875.328125-.59375.84375-.9375.53125-.359375 1.1875-.546875.46875-.125 1.453125-.25 1.984375-.234375 2.921875-.5625.015625-.34375.015625-.421875 0-1-.46875-1.421875-.625-.546875-1.875-.546875-1.15625 0-1.703125.40625-.546875.40625-.8125 1.421875l-1.609375-.21875q.21875-1.015625.71875-1.640625.5-.640625 1.453125-.984375.953125-.34375 2.1875-.34375 1.25 0 2.015625.296875.78125.28125 1.140625.734375.375.4375.515625 1.109375.078125.421875.078125 1.515625v2.1875q0 2.28125.109375 2.890625.109375.59375.40625 1.15625h-1.703125q-.265625-.515625-.328125-1.1875zm-.140625-3.671875q-.890625.375-2.671875.625-1.015625.140625-1.4375.328125-.421875.1875-.65625.53125-.21875.34375-.21875.78125 0 .65625.5 1.09375.5.4375 1.453125.4375.9375 0 1.671875-.40625.75-.421875 1.09375-1.140625.265625-.5625.265625-1.640625zm10.469482 4.859375v-1.21875q-.90625 1.4375-2.703125 1.4375-1.15625 0-2.125-.640625-.96875-.640625-1.5-1.78125-.53125-1.140625-.53125-2.625 0-1.453125.484375-2.625.484375-1.1875 1.4375-1.8125.96875-.625 2.171875-.625.875 0 1.546875.375.6875.359375 1.109375.953125v-4.796875h1.640625v13.359375zm-5.171875-4.828125q0 1.859375.78125 2.78125.78125.921875 1.84375.921875 1.078125 0 1.828125-.875.75-.890625.75-2.6875 0-1.984375-.765625-2.90625-.765625-.9375-1.890625-.9375-1.078125 0-1.8125.890625-.734375.890625-.734375 2.8125z" fill="#000"/><path d="m790.99963 380.6231 1.65625-.140625q.125 1 .546875 1.640625.4375.640625 1.34375 1.046875.921875.390625 2.0625.390625 1 0 1.78125-.296875.78125-.296875 1.15625-.8125.375-.53125.375-1.15625 0-.625-.375-1.09375-.359375-.46875-1.1875-.796875-.546875-.203125-2.390625-.640625-1.828125-.453125-2.5625-.84375-.96875-.5-1.4375-1.234375-.46875-.75-.46875-1.671875 0-1 .578125-1.875.578125-.890625 1.671875-1.34375 1.109375-.453125 2.453125-.453125 1.484375 0 2.609375.484375 1.140625.46875 1.75 1.40625.609375.921875.65625 2.09375l-1.6875.125q-.140625-1.265625-.9375-1.90625-.78125-.65625-2.3125-.65625-1.609375 0-2.34375.59375-.734375.59375-.734375 1.421875 0 .71875.53125 1.171875.5.46875 2.65625.96875 2.15625.484375 2.953125.84375 1.171875.53125 1.71875 1.359375.5625.828125.5625 1.90625 0 1.0625-.609375 2.015625-.609375.9375-1.75 1.46875-1.140625.515625-2.578125.515625-1.8125 0-3.046875-.53125-1.21875-.53125-1.921875-1.59375-.6875-1.0625-.71875-2.40625zm19.146729.75 1.609375.21875q-.265625 1.65625-1.359375 2.609375-1.078125.9375-2.671875.9375-1.984375 0-3.1875-1.296875-1.203125-1.296875-1.203125-3.71875 0-1.578125.515625-2.75.515625-1.171875 1.578125-1.75 1.0625-.59375 2.3125-.59375 1.578125 0 2.578125.796875 1 .796875 1.28125 2.265625l-1.59375.234375q-.234375-.96875-.8125-1.453125-.578125-.5-1.390625-.5-1.234375 0-2.015625.890625-.78125.890625-.78125 2.8125 0 1.953125.75 2.84375.75.875 1.953125.875.96875 0 1.609375-.59375.65625-.59375.828125-1.828125zm3 3.546875v-9.671875h1.46875v1.46875q.5625-1.03125 1.03125-1.359375.484375-.328125 1.0625-.328125.828125 0 1.6875.53125l-.5625 1.515625q-.609375-.359375-1.203125-.359375-.546875 0-.96875.328125-.421875.328125-.609375.890625-.28125.875-.28125 1.921875v5.0625zm6.2282715-11.46875v-1.890625h1.640625v1.890625zm0 11.46875v-9.671875h1.640625v9.671875zm4.1448364 3.703125v-13.375h1.484375v1.25q.53125-.734375 1.1875-1.09375.671875-.375 1.625-.375 1.234375 0 2.171875.640625.953125.625 1.4375 1.796875.484375 1.15625.484375 2.546875 0 1.484375-.53125 2.671875-.53125 1.1875-1.546875 1.828125-1.015625.625-2.140625.625-.8125 0-1.46875-.34375-.65625-.34375-1.0625-.875v4.703125zm1.484375-8.484375q0 1.859375.75 2.765625.765625.890625 1.828125.890625 1.09375 0 1.875-.921875.78125-.9375.78125-2.875 0-1.84375-.765625-2.765625-.75-.921875-1.8125-.921875-1.046875 0-1.859375.984375-.796875.96875-.796875 2.84375zm12.469482 3.3125.234375 1.453125q-.6875.140625-1.234375.140625-.890625 0-1.390625-.28125-.484375-.28125-.6875-.734375-.203125-.46875-.203125-1.9375v-5.578125h-1.203125v-1.265625h1.203125v-2.390625l1.625-.984375v3.375h1.65625v1.265625h-1.65625v5.671875q0 .6875.078125.890625.09375.203125.28125.328125.203125.109375.578125.109375.265625 0 .71875-.0625z" fill="#000"/><path d="m964.4488 338h226.55121v61.007874h-226.55121z" fill="none"/><path d="m994.733 364.91998 5.125-13.359375h1.90625l5.46875 13.359375h-2.015625l-1.546875-4.046875h-5.59375l-1.46875 4.046875zm3.859375-5.484375h4.53125l-1.40625-3.703125q-.625-1.6875-.9375-2.765625-.265625 1.28125-.71875 2.546875zm9.1935425 2.59375 1.625-.25q.125.96875.75 1.5.625.515625 1.75.515625 1.125 0 1.671875-.453125.546875-.46875.546875-1.09375 0-.546875-.484375-.875-.328125-.21875-1.671875-.546875-1.8125-.46875-2.515625-.796875-.6875-.328125-1.046875-.90625-.359375-.59375-.359375-1.3125 0-.640625.296875-1.1875.296875-.5625.8125-.921875.375-.28125 1.03125-.46875.671875-.203125 1.421875-.203125 1.140625 0 2 .328125.859375.328125 1.265625.890625.421875.5625.578125 1.5l-1.609375.21875q-.109375-.75-.640625-1.171875-.515625-.421875-1.46875-.421875-1.140625 0-1.625.375-.46875.375-.46875.875 0 .3125.1875.578125.203125.265625.640625.4375.234375.09375 1.4375.421875 1.75.453125 2.4375.75.6875.296875 1.078125.859375.390625.5625.390625 1.40625 0 .828125-.484375 1.546875-.46875.71875-1.375 1.125-.90625.390625-2.046875.390625-1.875 0-2.875-.78125-.984375-.78125-1.25-2.328125zm13.5625 1.421875.234375 1.453125q-.6875.140625-1.234375.140625-.890625 0-1.390625-.28125-.484375-.28125-.6875-.734375-.203125-.46875-.203125-1.9375v-5.578125h-1.203125v-1.265625h1.203125v-2.390625l1.625-.984375v3.375h1.65625v1.265625h-1.65625v5.671875q0 .6875.078125.890625.09375.203125.28125.328125.203125.109375.578125.109375.265625 0 .71875-.0625zm7.288452 1.46875v-13.359375h1.765625v13.359375zm4.6833496 0v-9.671875h1.46875v1.375q1.0625-1.59375 3.078125-1.59375.875 0 1.609375.3125.734375.3125 1.09375.828125.375.5.515625 1.203125.09375.453125.09375 1.59375v5.953125h-1.640625v-5.890625q0-1-.203125-1.484375-.1875-.5-.671875-.796875-.484375-.296875-1.140625-.296875-1.046875 0-1.8125.671875-.75.65625-.75 2.515625v5.28125zm13.953857-1.46875.234375 1.453125q-.6875.140625-1.234375.140625-.890625 0-1.390625-.28125-.484375-.28125-.6875-.734375-.203125-.46875-.203125-1.9375v-5.578125h-1.203125v-1.265625h1.203125v-2.390625l1.625-.984375v3.375h1.65625v1.265625h-1.65625v5.671875q0 .6875.078125.890625.09375.203125.28125.328125.203125.109375.578125.109375.265625 0 .71875-.0625zm8.230225-1.640625 1.6875.203125q-.40625 1.484375-1.484375 2.3125-1.078125.8125-2.765625.8125-2.125 0-3.375-1.296875-1.234375-1.3125-1.234375-3.671875 0-2.453125 1.25-3.796875 1.265625-1.34375 3.265625-1.34375 1.9375 0 3.15625 1.328125 1.234375 1.3125 1.234375 3.703125 0 .15625 0 .4375h-7.21875q.09375 1.59375.90625 2.453125.8125.84375 2.015625.84375.90625 0 1.546875-.46875.640625-.484375 1.015625-1.515625zm-5.390625-2.65625h5.40625q-.109375-1.21875-.625-1.828125-.78125-.953125-2.03125-.953125-1.125 0-1.90625.765625-.765625.75-.84375 2.015625zm9.12561 5.765625v-9.671875h1.46875v1.46875q.5625-1.03125 1.03125-1.359375.484375-.328125 1.0625-.328125.828125 0 1.6875.53125l-.5625 1.515625q-.609375-.359375-1.203125-.359375-.546875 0-.96875.328125-.421875.328125-.609375.890625-.28125.875-.28125 1.921875v5.0625zm6.2283936 0v-9.671875h1.46875v1.375q1.0625-1.59375 3.078125-1.59375.875 0 1.609375.3125.734375.3125 1.09375.828125.375.5.515625 1.203125.09375.453125.09375 1.59375v5.953125h-1.640625v-5.890625q0-1-.203125-1.484375-.1875-.5-.671875-.796875-.484375-.296875-1.140625-.296875-1.046875 0-1.8125.671875-.75.65625-.75 2.515625v5.28125zm16.688232-1.1875q-.921875.765625-1.765625 1.09375-.828125.3125-1.796875.3125-1.59375 0-2.453125-.78125-.859375-.78125-.859375-1.984375 0-.71875.328125-1.296875.328125-.59375.84375-.9375.53125-.359375 1.1875-.546875.46875-.125 1.453125-.25 1.984375-.234375 2.921875-.5625.015625-.34375.015625-.421875 0-1-.46875-1.421875-.625-.546875-1.875-.546875-1.15625 0-1.703125.40625-.546875.40625-.8125 1.421875l-1.609375-.21875q.21875-1.015625.71875-1.640625.5-.640625 1.453125-.984375.953125-.34375 2.1875-.34375 1.25 0 2.015625.296875.78125.28125 1.140625.734375.375.4375.515625 1.109375.078125.421875.078125 1.515625v2.1875q0 2.28125.109375 2.890625.109375.59375.40625 1.15625h-1.703125q-.265625-.515625-.328125-1.1875zm-.140625-3.671875q-.890625.375-2.671875.625-1.015625.140625-1.4375.328125-.421875.1875-.65625.53125-.21875.34375-.21875.78125 0 .65625.5 1.09375.5.4375 1.453125.4375.9375 0 1.671875-.40625.75-.421875 1.09375-1.140625.265625-.5625.265625-1.640625zm4.1568604 4.859375v-13.359375h1.640625v13.359375zm4.1917725-11.46875v-1.890625h1.640625v1.890625zm0 11.46875v-9.671875h1.640625v9.671875zm3.2697754 0v-1.328125l6.15625-7.078125q-1.046875.0625-1.84375.0625h-3.9375v-1.328125h7.90625v1.078125l-5.25 6.140625-1 1.125q1.09375-.078125 2.0625-.078125h4.46875v1.40625zm16.515625-1.1875q-.921875.765625-1.765625 1.09375-.828125.3125-1.796875.3125-1.59375 0-2.453125-.78125-.859375-.78125-.859375-1.984375 0-.71875.328125-1.296875.328125-.59375.84375-.9375.53125-.359375 1.1875-.546875.46875-.125 1.453125-.25 1.984375-.234375 2.921875-.5625.015625-.34375.015625-.421875 0-1-.46875-1.421875-.625-.546875-1.875-.546875-1.15625 0-1.703125.40625-.546875.40625-.8125 1.421875l-1.609375-.21875q.21875-1.015625.71875-1.640625.5-.640625 1.453125-.984375.953125-.34375 2.1875-.34375 1.25 0 2.015625.296875.78125.28125 1.140625.734375.375.4375.515625 1.109375.078125.421875.078125 1.515625v2.1875q0 2.28125.109375 2.890625.109375.59375.40625 1.15625h-1.703125q-.265625-.515625-.328125-1.1875zm-.140625-3.671875q-.890625.375-2.671875.625-1.015625.140625-1.4375.328125-.421875.1875-.65625.53125-.21875.34375-.21875.78125 0 .65625.5 1.09375.5.4375 1.453125.4375.9375 0 1.671875-.40625.75-.421875 1.09375-1.140625.265625-.5625.265625-1.640625zm7.7819824 3.390625.234375 1.453125q-.6875.140625-1.234375.140625-.890625 0-1.390625-.28125-.484375-.28125-.6875-.734375-.203125-.46875-.203125-1.9375v-5.578125h-1.203125v-1.265625h1.203125v-2.390625l1.625-.984375v3.375h1.65625v1.265625h-1.65625v5.671875q0 .6875.078125.890625.09375.203125.28125.328125.203125.109375.578125.109375.265625 0 .71875-.0625zm1.6052246-10v-1.890625h1.640625v1.890625zm0 11.46875v-9.671875h1.640625v9.671875zm3.5354004-4.84375q0-2.6875 1.484375-3.96875 1.25-1.078125 3.046875-1.078125 2 0 3.265625 1.3125 1.265625 1.296875 1.265625 3.609375 0 1.859375-.5625 2.9375-.5625 1.0625-1.640625 1.65625-1.0625.59375-2.328125.59375-2.03125 0-3.28125-1.296875-1.25-1.3125-1.25-3.765625zm1.6875 0q0 1.859375.796875 2.796875.8125.921875 2.046875.921875 1.21875 0 2.03125-.921875.8125-.9375.8125-2.84375 0-1.796875-.8125-2.71875-.8125-.921875-2.03125-.921875-1.234375 0-2.046875.921875-.796875.90625-.796875 2.765625zm9.297607 4.84375v-9.671875h1.46875v1.375q1.0625-1.59375 3.078125-1.59375.875 0 1.609375.3125.734375.3125 1.09375.828125.375.5.515625 1.203125.09375.453125.09375 1.59375v5.953125h-1.640625v-5.890625q0-1-.203125-1.484375-.1875-.5-.671875-.796875-.484375-.296875-1.140625-.296875-1.046875 0-1.8125.671875-.75.65625-.75 2.515625v5.28125zm23.18396-1.578125q-.8125.90625-1.765625 1.359375-.953125.453125-2.0625.453125-2.046875 0-3.25-1.390625-.984375-1.125-.984375-2.53125 0-1.234375.796875-2.234375.796875-1 2.390625-1.75-.90625-1.03125-1.203125-1.671875-.296875-.65625-.296875-1.265625 0-1.203125.9375-2.078125.9375-.890625 2.375-.890625 1.359375 0 2.234375.84375.875.828125.875 2 0 1.90625-2.53125 3.25l2.390625 3.0625q.421875-.8125.640625-1.859375l1.703125.359375q-.4375 1.75-1.1875 2.875.921875 1.21875 2.09375 2.046875l-1.109375 1.3125305q-.984375-.6406555-2.046875-1.8906555zm-3.328125-6.953125q1.0625-.640625 1.375-1.109375.3125-.46875.3125-1.046875 0-.6875-.4375-1.109375-.421875-.4375-1.0625-.4375-.671875 0-1.125.4375-.4375.421875-.4375 1.03125 0 .3125.15625.65625.171875.34375.484375.734375zm2.296875 5.65625-3-3.71875q-1.328125.796875-1.796875 1.46875-.46875.671875-.46875 1.34375 0 .8125.640625 1.6875.65625.875 1.84375.875.734375 0 1.515625-.453125.796875-.46875 1.265625-1.203125z" fill="#000"/><path d="m990.4165 386.92v-13.359375h5.015625q1.53125 0 2.453125.40625.921875.40625 1.4375 1.25.53125.84375.53125 1.765625 0 .859375-.46875 1.625-.453125.75-1.390625 1.203125 1.203125.359375 1.859375 1.21875.65625.859375.65625 2.015625 0 .9375-.40625 1.75-.390625.796875-.984375 1.234375-.578125.4375-1.453125.671875-.875.21875-2.15625.21875zm1.78125-7.75h2.875q1.1875 0 1.6875-.140625.671875-.203125 1.015625-.671875.34375-.46875.34375-1.171875 0-.65625-.328125-1.15625-.3125-.515625-.90625-.703125-.59375-.1875-2.03125-.1875h-2.65625zm0 6.171875h3.3125q.859375 0 1.203125-.0625.609375-.109375 1.015625-.359375.421875-.265625.6875-.75.265625-.484375.265625-1.125 0-.75-.390625-1.296875-.375-.546875-1.0625-.765625-.671875-.234375-1.953125-.234375h-3.078125zm10.4591675 5.296875-.1875-1.53125q.546875.140625.9375.140625.546875 0 .875-.1875.328125-.171875.546875-.5.15625-.25.5-1.21875.046875-.140625.140625-.40625l-3.671875-9.6875h1.765625l2.015625 5.59375q.390625 1.078125.703125 2.25.28125-1.125.671875-2.203125l2.078125-5.640625h1.640625l-3.6875 9.828125q-.59375 1.609375-.921875 2.203125-.4375.8125-1 1.1875-.5625.375-1.34375.375-.484375 0-1.0625-.203125zm12.984375-5.1875.234375 1.453125q-.6875.140625-1.234375.140625-.890625 0-1.390625-.28125-.484375-.28125-.6875-.734375-.203125-.46875-.203125-1.9375v-5.578125h-1.203125v-1.265625h1.203125v-2.390625l1.625-.984375v3.375h1.65625v1.265625h-1.65625v5.671875q0 .6875.078125.890625.09375.203125.28125.328125.203125.109375.578125.109375.265625 0 .71875-.0625zm8.230225-1.640625 1.687439.203125q-.40625 1.484375-1.484375 2.3125-1.078064.8125-2.765564.8125-2.125 0-3.375-1.296875-1.234375-1.3125-1.234375-3.671875 0-2.453125 1.25-3.796875 1.265625-1.34375 3.265625-1.34375 1.9375 0 3.156189 1.328125 1.234375 1.3125 1.234375 3.703125 0 .15625 0 .4375h-7.218689q.09375 1.59375.90625 2.453125.8125.84375 2.015625.84375.90625 0 1.546875-.46875.640625-.484375 1.015625-1.515625zm-5.390625-2.65625h5.40625q-.109375-1.21875-.625-1.828125-.78125-.953125-2.03125-.953125-1.125 0-1.90625.765625-.765625.75-.84375 2.015625zm15.453796 2.21875 1.609375.21875q-.265625 1.65625-1.359375 2.609375-1.078125.9375-2.671875.9375-1.984375 0-3.1875-1.296875-1.203125-1.296875-1.203125-3.71875 0-1.578125.515625-2.75.515625-1.171875 1.578125-1.75 1.0625-.59375 2.3125-.59375 1.578125 0 2.578125.796875 1 .796875 1.28125 2.265625l-1.59375.234375q-.234375-.96875-.8125-1.453125-.578125-.5-1.390625-.5-1.234375 0-2.015625.890625-.78125.890625-.78125 2.8125 0 1.953125.75 2.84375.75.875 1.953125.875.96875 0 1.609375-.59375.65625-.59375.828125-1.828125zm2.40625-1.296875q0-2.6875 1.484375-3.96875 1.25-1.078125 3.046875-1.078125 2 0 3.265625 1.3125 1.265625 1.296875 1.265625 3.609375 0 1.859375-.5625 2.9375-.5625 1.0625-1.640625 1.65625-1.0625.59375-2.328125.59375-2.03125 0-3.28125-1.296875-1.25-1.3125-1.25-3.765625zm1.6875 0q0 1.859375.796875 2.796875.8125.921875 2.046875.921875 1.21875 0 2.03125-.921875.8125-.9375.8125-2.84375 0-1.796875-.8125-2.71875-.8125-.921875-2.03125-.921875-1.234375 0-2.046875.921875-.796875.90625-.796875 2.765625zm15.563232 4.84375v-1.21875q-.90625 1.4375-2.703125 1.4375-1.15625 0-2.125-.640625-.96875-.640625-1.5-1.78125-.53125-1.140625-.53125-2.625 0-1.453125.484375-2.625.484375-1.1875 1.4375-1.8125.96875-.625 2.171875-.625.875 0 1.546875.375.6875.359375 1.109375.953125v-4.796875h1.640625v13.359375zm-5.171875-4.828125q0 1.859375.78125 2.78125.78125.921875 1.84375.921875 1.078125 0 1.828125-.875.75-.890625.75-2.6875 0-1.984375-.765625-2.90625-.765625-.9375-1.890625-.9375-1.078125 0-1.8125.890625-.734375.890625-.734375 2.8125zm15.906982 1.71875 1.6875.203125q-.40625 1.484375-1.484375 2.3125-1.078125.8125-2.765625.8125-2.125 0-3.375-1.296875-1.234375-1.3125-1.234375-3.671875 0-2.453125 1.25-3.796875 1.265625-1.34375 3.265625-1.34375 1.9375 0 3.15625 1.328125 1.234375 1.3125 1.234375 3.703125 0 .15625 0 .4375h-7.21875q.09375 1.59375.90625 2.453125.8125.84375 2.015625.84375.90625 0 1.546875-.46875.640625-.484375 1.015625-1.515625zm-5.390625-2.65625h5.40625q-.109375-1.21875-.625-1.828125-.78125-.953125-2.03125-.953125-1.125 0-1.90625.765625-.765625.75-.84375 2.015625zm14.62146 5.765625v-13.359375h9.015625v1.578125h-7.25v4.140625h6.265625v1.578125h-6.265625v6.0625zm11.099121-11.46875v-1.890625h1.640625v1.890625zm0 11.46875v-9.671875h1.640625v9.671875zm4.1448975 0v-9.671875h1.46875v1.375q1.0625-1.59375 3.078125-1.59375.875 0 1.609375.3125.734375.3125 1.09375.828125.375.5.515625 1.203125.09375.453125.09375 1.59375v5.953125h-1.640625v-5.890625q0-1-.203125-1.484375-.1875-.5-.671875-.796875-.484375-.296875-1.140625-.296875-1.046875 0-1.8125.671875-.75.65625-.75 2.515625v5.28125zm16.68811-1.1875q-.921875.765625-1.765625 1.09375-.828125.3125-1.796875.3125-1.59375 0-2.453125-.78125-.859375-.78125-.859375-1.984375 0-.71875.328125-1.296875.328125-.59375.84375-.9375.53125-.359375 1.1875-.546875.46875-.125 1.453125-.25 1.984375-.234375 2.921875-.5625.015625-.34375.015625-.421875 0-1-.46875-1.421875-.625-.546875-1.875-.546875-1.15625 0-1.703125.40625-.546875.40625-.8125 1.421875l-1.609375-.21875q.21875-1.015625.71875-1.640625.5-.640625 1.453125-.984375.953125-.34375 2.1875-.34375 1.25 0 2.015625.296875.78125.28125 1.140625.734375.375.4375.515625 1.109375.078125.421875.078125 1.515625v2.1875q0 2.28125.109375 2.890625.109375.59375.40625 1.15625h-1.703125q-.265625-.515625-.328125-1.1875zm-.140625-3.671875q-.890625.375-2.671875.625-1.015625.140625-1.4375.328125-.421875.1875-.65625.53125-.21875.34375-.21875.78125 0 .65625.5 1.09375.5.4375 1.453125.4375.9375 0 1.671875-.40625.75-.421875 1.09375-1.140625.265625-.5625.265625-1.640625zm4.1569824 4.859375v-13.359375h1.640625v13.359375zm4.1917725-11.46875v-1.890625h1.640625v1.890625zm0 11.46875v-9.671875h1.640625v9.671875zm3.2697754 0v-1.328125l6.15625-7.078125q-1.046875.0625-1.84375.0625h-3.9375v-1.328125h7.90625v1.078125l-5.25 6.140625-1 1.125q1.09375-.078125 2.0625-.078125h4.46875v1.40625zm16.515625-1.1875q-.921875.765625-1.765625 1.09375-.828125.3125-1.796875.3125-1.59375 0-2.453125-.78125-.859375-.78125-.859375-1.984375 0-.71875.328125-1.296875.328125-.59375.84375-.9375.53125-.359375 1.1875-.546875.46875-.125 1.453125-.25 1.984375-.234375 2.921875-.5625.015625-.34375.015625-.421875 0-1-.46875-1.421875-.625-.546875-1.875-.546875-1.15625 0-1.703125.40625-.546875.40625-.8125 1.421875l-1.609375-.21875q.21875-1.015625.71875-1.640625.5-.640625 1.453125-.984375.953125-.34375 2.1875-.34375 1.25 0 2.015625.296875.78125.28125 1.140625.734375.375.4375.515625 1.109375.078125.421875.078125 1.515625v2.1875q0 2.28125.109375 2.890625.109375.59375.40625 1.15625h-1.703125q-.265625-.515625-.328125-1.1875zm-.140625-3.671875q-.890625.375-2.671875.625-1.015625.140625-1.4375.328125-.421875.1875-.65625.53125-.21875.34375-.21875.78125 0 .65625.5 1.09375.5.4375 1.453125.4375.9375 0 1.671875-.40625.75-.421875 1.09375-1.140625.265625-.5625.265625-1.640625zm7.7819824 3.390625.234375 1.453125q-.6875.140625-1.234375.140625-.890625 0-1.390625-.28125-.484375-.28125-.6875-.734375-.203125-.46875-.203125-1.9375v-5.578125h-1.203125v-1.265625h1.203125v-2.390625l1.625-.984375v3.375h1.65625v1.265625h-1.65625v5.671875q0 .6875.078125.890625.09375.203125.28125.328125.203125.109375.578125.109375.265625 0 .71875-.0625zm1.6052246-10v-1.890625h1.640625v1.890625zm0 11.46875v-9.671875h1.640625v9.671875zm3.5354004-4.84375q0-2.6875 1.484375-3.96875 1.25-1.078125 3.046875-1.078125 2 0 3.265625 1.3125 1.265625 1.296875 1.265625 3.609375 0 1.859375-.5625 2.9375-.5625 1.0625-1.640625 1.65625-1.0625.59375-2.328125.59375-2.03125 0-3.28125-1.296875-1.25-1.3125-1.25-3.765625zm1.6875 0q0 1.859375.796875 2.796875.8125.921875 2.046875.921875 1.21875 0 2.03125-.921875.8125-.9375.8125-2.84375 0-1.796875-.8125-2.71875-.8125-.921875-2.03125-.921875-1.234375 0-2.046875.921875-.796875.90625-.796875 2.765625zm9.297607 4.84375v-9.671875h1.46875v1.375q1.0625-1.59375 3.078125-1.59375.875 0 1.609375.3125.734375.3125 1.09375.828125.375.5.515625 1.203125.09375.453125.09375 1.59375v5.953125h-1.640625v-5.890625q0-1-.203125-1.484375-.1875-.5-.671875-.796875-.484375-.296875-1.140625-.296875-1.046875 0-1.8125.671875-.75.65625-.75 2.515625v5.28125z" fill="#000"/><path d="m1105.5511 301h111.02368v41.007874h-111.02368z" fill="#ea9999" fill-rule="evenodd"/><path d="m1105.5511 301h111.02368v41.007874h-111.02368z" fill-rule="evenodd" stroke="#000" stroke-linecap="butt" stroke-linejoin="round"/><path d="m1128.8267 328.42395v-13.359375h9.65625v1.578125h-7.875v4.09375h7.375v1.5625h-7.375v4.546875h8.1875v1.578125zm11.115356 0 3.53125-5.03125-3.265625-4.640625h2.046875l1.484375 2.265625q.421875.640625.671875 1.078125.40625-.59375.734375-1.0625l1.640625-2.28125h1.953125l-3.34375 4.546875 3.59375 5.125h-2.015625l-1.984375-3-.515625-.8125-2.546875 3.8125zm17.046875-3.109375 1.6875.203125q-.40625 1.484375-1.484375 2.3125-1.078125.8125-2.765625.8125-2.125 0-3.375-1.296875-1.234375-1.3125-1.234375-3.671875 0-2.453125 1.25-3.796875 1.265625-1.34375 3.265625-1.34375 1.9375 0 3.15625 1.328125 1.234375 1.3125 1.234375 3.703125 0 .15625 0 .4375h-7.21875q.09375 1.59375.90625 2.453125.8125.84375 2.015625.84375.90625 0 1.546875-.46875.640625-.484375 1.015625-1.515625zm-5.390625-2.65625h5.40625q-.109375-1.21875-.625-1.828125-.78125-.953125-2.03125-.953125-1.125 0-1.90625.765625-.765625.75-.84375 2.015625zm15.453857 2.21875 1.609375.21875q-.265625 1.65625-1.359375 2.609375-1.078125.9375-2.671875.9375-1.984375 0-3.1875-1.296875-1.203125-1.296875-1.203125-3.71875 0-1.578125.515625-2.75.515625-1.171875 1.578125-1.75 1.0625-.59375 2.3125-.59375 1.578125 0 2.578125.796875 1 .796875 1.28125 2.265625l-1.59375.234375q-.234375-.96875-.8125-1.453125-.578125-.5-1.390625-.5-1.234375 0-2.015625.890625-.78125.890625-.78125 2.8125 0 1.953125.75 2.84375.75.875 1.953125.875.96875 0 1.609375-.59375.65625-.59375.828125-1.828125zm9.34375 3.546875v-1.421875q-1.125 1.640625-3.0625 1.640625-.859375 0-1.609375-.328125-.734375-.328125-1.09375-.828125-.359375-.5-.5-1.21875-.109375-.46875-.109375-1.53125v-5.984375h1.640625v5.359375q0 1.28125.109375 1.734375.15625.640625.65625 1.015625.5.375 1.234375.375.734375 0 1.375-.375.65625-.390625.921875-1.03125.265625-.65625.265625-1.890625v-5.1875h1.640625v9.671875zm7.6257324-1.46875.234375 1.453125q-.6875.140625-1.234375.140625-.890625 0-1.390625-.28125-.484375-.28125-.6875-.734375-.203125-.46875-.203125-1.9375v-5.578125h-1.203125v-1.265625h1.203125v-2.390625l1.625-.984375v3.375h1.65625v1.265625h-1.65625v5.671875q0 .6875.078125.890625.09375.203125.28125.328125.203125.109375.578125.109375.265625 0 .71875-.0625zm8.230225-1.640625 1.6875.203125q-.40625 1.484375-1.484375 2.3125-1.078125.8125-2.765625.8125-2.125 0-3.375-1.296875-1.234375-1.3125-1.234375-3.671875 0-2.453125 1.25-3.796875 1.265625-1.34375 3.265625-1.34375 1.9375 0 3.15625 1.328125 1.234375 1.3125 1.234375 3.703125 0 .15625 0 .4375h-7.21875q.09375 1.59375.90625 2.453125.8125.84375 2.015625.84375.90625 0 1.546875-.46875.640625-.484375 1.015625-1.515625zm-5.390625-2.65625h5.40625q-.109375-1.21875-.625-1.828125-.78125-.953125-2.03125-.953125-1.125 0-1.90625.765625-.765625.75-.84375 2.015625z" fill="#000"/><path d="m927.48816 117.99213h136.22046v61.007874h-136.22046z" fill="none"/><path d="m961.7625 157.71213 8.796875-22.90625h3.265625l9.375 22.90625h-3.453125l-2.671875-6.9375h-9.578125l-2.515625 6.9375zm6.609375-9.40625h7.765625l-2.390625-6.34375q-1.09375-2.890625-1.625-4.75-.4375 2.203125-1.234375 4.375zm17.5625 9.40625v-14.40625h-2.484375v-2.1875h2.484375v-1.765625q0-1.671875.296875-2.484375.40625-1.09375 1.421875-1.765625 1.03125-.6875 2.875-.6875 1.1875 0 2.625.28125l-.421875 2.453125q-.875-.15625-1.65625-.15625-1.28125 0-1.8125.546875-.53125.546875-.53125 2.046875v1.53125h3.234375v2.1875h-3.234375v14.40625zm14.359375-2.515625.40625 2.484375q-1.1875.25-2.125.25-1.53125 0-2.375-.484375-.84375-.484375-1.1875-1.265625-.34375-.796875-.34375-3.328125v-9.546875h-2.0625v-2.1875h2.0625v-4.109375l2.796875-1.6875v5.796875h2.828125v2.1875h-2.828125v9.703125q0 1.203125.140625 1.546875.15625.34375.484375.546875.34375.203125.96875.203125.46875 0 1.234375-.109375zm14.109375-2.828125 2.90625.359375q-.6875 2.546875-2.546875 3.953125-1.859375 1.40625-4.75 1.40625-3.640625 0-5.78125-2.234375-2.125-2.25-2.125-6.296875 0-4.1875 2.15625-6.5 2.15625-2.3125 5.59375-2.3125 3.328125 0 5.4375 2.265625 2.109375 2.265625 2.109375 6.375 0 .25-.015625.75h-12.375q.15625 2.734375 1.546875 4.1875 1.390625 1.453125 3.46875 1.453125 1.546875 0 2.640625-.8125 1.09375-.8125 1.734375-2.59375zm-9.234375-4.546875h9.265625q-.1875-2.09375-1.0625-3.140625-1.34375-1.625-3.484375-1.625-1.9375 0-3.265625 1.296875-1.3125 1.296875-1.453125 3.46875zm15.640625 9.890625v-16.59375h2.53125v2.515625q.96868896-1.765625 1.781189-2.328125.828125-.5625 1.8125-.5625 1.421875 0 2.890625.90625l-.96875 2.609375q-1.03125-.609375-2.0625-.609375-.921875 0-1.65625.5625-.734375.546875-1.046875 1.53125-.46868896 1.5-.46868896 3.28125v8.6875h-2.8125z" fill="#000"/><path d="m1232 185.98425v204" fill="none"/><path d="m1232 185.98425v204" fill-rule="evenodd" stroke="#000" stroke-dasharray="8 3" stroke-linecap="butt" stroke-linejoin="round"/><path d="m660.78345 301h90.456726v41.007874h-90.456726z" fill="#fff2cc" fill-rule="evenodd"/><path d="m660.78345 301h90.456726v41.007874h-90.456726z" fill-rule="evenodd" stroke="#000" stroke-dasharray="4 3" stroke-linecap="butt" stroke-linejoin="round"/><path d="m683.5886 321.92395q0-3.328125 1.78125-5.203125 1.78125-1.890625 4.609375-1.890625 1.84375 0 3.328125.890625 1.484375.875 2.265625 2.46875.78125 1.578125.78125 3.578125 0 2.03125-.828125 3.640625-.8125 1.59375-2.3125 2.421875-1.5.828125-3.25.828125-1.875 0-3.359375-.90625-1.484375-.921875-2.25-2.5-.765625-1.578125-.765625-3.328125zm1.8125.015625q0 2.421875 1.296875 3.8125 1.296875 1.390625 3.265625 1.390625 2 0 3.28125-1.40625 1.28125-1.40625 1.28125-3.984375 0-1.625-.546875-2.84375-.546875-1.21875-1.609375-1.875-1.0625-.671875-2.375-.671875-1.890625 0-3.25 1.296875-1.34375 1.28125-1.34375 4.28125zm16.605225 5.015625.234375 1.453125q-.6875.140625-1.234375.140625-.890625 0-1.390625-.28125-.484375-.28125-.6875-.734375-.203125-.46875-.203125-1.9375v-5.578125h-1.203125v-1.265625h1.203125v-2.390625l1.625-.984375v3.375h1.65625v1.265625h-1.65625v5.671875q0 .6875.078125.890625.09375.203125.28125.328125.203125.109375.578125.109375.265625 0 .71875-.0625zm1.6051636 1.46875v-13.359375h1.640625v4.796875q1.140625-1.328125 2.890625-1.328125 1.078125 0 1.859375.421875.796875.421875 1.140625 1.171875.34375.75.34375 2.171875v6.125h-1.640625v-6.125q0-1.234375-.53125-1.796875-.53125-.5625-1.515625-.5625-.71875 0-1.359375.390625-.640625.375-.921875 1.015625-.265625.640625-.265625 1.78125v5.296875zm17.000732-3.109375 1.6875.203125q-.40625 1.484375-1.484375 2.3125-1.078125.8125-2.765625.8125-2.125 0-3.375-1.296875-1.234375-1.3125-1.234375-3.671875 0-2.453125 1.25-3.796875 1.265625-1.34375 3.265625-1.34375 1.9375 0 3.15625 1.328125 1.234375 1.3125 1.234375 3.703125 0 .15625 0 .4375h-7.21875q.09375 1.59375.90625 2.453125.8125.84375 2.015625.84375.90625 0 1.546875-.46875.640625-.484375 1.015625-1.515625zm-5.390625-2.65625h5.40625q-.109375-1.21875-.625-1.828125-.78125-.953125-2.03125-.953125-1.125 0-1.90625.765625-.765625.75-.84375 2.015625zm9.125671 5.765625v-9.671875h1.46875v1.46875q.5625-1.03125 1.03125-1.359375.484375-.328125 1.0625-.328125.828125 0 1.6875.53125l-.5625 1.515625q-.609375-.359375-1.203125-.359375-.546875 0-.96875.328125-.421875.328125-.609375.890625-.28125.875-.28125 1.921875v5.0625z" fill="#000"/><path d="m839.54596 301h90.456665v41.007874h-90.456665z" fill="#fff2cc" fill-rule="evenodd"/><path d="m839.54596 301h90.456665v41.007874h-90.456665z" fill-rule="evenodd" stroke="#000" stroke-dasharray="4 3" stroke-linecap="butt" stroke-linejoin="round"/><path d="m862.35114 321.92395q0-3.328125 1.78125-5.203125 1.78125-1.890625 4.609375-1.890625 1.84375 0 3.328125.890625 1.484375.875 2.265625 2.46875.78125 1.578125.78125 3.578125 0 2.03125-.828125 3.640625-.8125 1.59375-2.3125 2.421875-1.5.828125-3.25.828125-1.875 0-3.359375-.90625-1.484375-.921875-2.25-2.5-.765625-1.578125-.765625-3.328125zm1.8125.015625q0 2.421875 1.296875 3.8125 1.296875 1.390625 3.265625 1.390625 2 0 3.28125-1.40625 1.28125-1.40625 1.28125-3.984375 0-1.625-.546875-2.84375-.546875-1.21875-1.609375-1.875-1.0625-.671875-2.375-.671875-1.890625 0-3.25 1.296875-1.34375 1.28125-1.34375 4.28125zm16.605164 5.015625.234375 1.453125q-.6875.140625-1.234375.140625-.890625 0-1.390625-.28125-.484375-.28125-.6875-.734375-.203125-.46875-.203125-1.9375v-5.578125h-1.203125v-1.265625h1.203125v-2.390625l1.625-.984375v3.375h1.65625v1.265625h-1.65625v5.671875q0 .6875.078125.890625.09375.203125.28125.328125.203125.109375.578125.109375.265625 0 .71875-.0625zm1.6051636 1.46875v-13.359375h1.640625v4.796875q1.140625-1.328125 2.890625-1.328125 1.078125 0 1.859375.421875.796875.421875 1.140625 1.171875.34375.75.34375 2.171875v6.125h-1.640625v-6.125q0-1.234375-.53125-1.796875-.53125-.5625-1.515625-.5625-.71875 0-1.359375.390625-.640625.375-.921875 1.015625-.265625.640625-.265625 1.78125v5.296875zm17.000732-3.109375 1.6875.203125q-.40625 1.484375-1.484375 2.3125-1.078125.8125-2.765625.8125-2.125 0-3.375-1.296875-1.234375-1.3125-1.234375-3.671875 0-2.453125 1.25-3.796875 1.265625-1.34375 3.265625-1.34375 1.9375 0 3.15625 1.328125 1.234375 1.3125 1.234375 3.703125 0 .15625 0 .4375h-7.21875q.09375 1.59375.90625 2.453125.8125.84375 2.015625.84375.90625 0 1.546875-.46875.640625-.484375 1.015625-1.515625zm-5.390625-2.65625h5.40625q-.109375-1.21875-.625-1.828125-.78125-.953125-2.03125-.953125-1.125 0-1.90625.765625-.765625.75-.84375 2.015625zm9.125732 5.765625v-9.671875h1.46875v1.46875q.5625-1.03125 1.03125-1.359375.484375-.328125 1.0625-.328125.828125 0 1.6875.53125l-.5625 1.515625q-.609375-.359375-1.203125-.359375-.546875 0-.96875.328125-.421875.328125-.609375.890625-.28125.875-.28125 1.921875v5.0625z" fill="#000"/><path d="m944.4094 301h90.456665v41.007874h-90.456665z" fill="#fff2cc" fill-rule="evenodd"/><path d="m944.4094 301h90.456665v41.007874h-90.456665z" fill-rule="evenodd" stroke="#000" stroke-dasharray="4 3" stroke-linecap="butt" stroke-linejoin="round"/><path d="m967.2146 321.92395q0-3.328125 1.78125-5.203125 1.78125-1.890625 4.609375-1.890625 1.84375 0 3.328125.890625 1.484375.875 2.265625 2.46875.78125 1.578125.78125 3.578125 0 2.03125-.828125 3.640625-.8125 1.59375-2.3125 2.421875-1.5.828125-3.25.828125-1.875 0-3.359375-.90625-1.484375-.921875-2.25-2.5-.765625-1.578125-.765625-3.328125zm1.8125.015625q0 2.421875 1.296875 3.8125 1.296875 1.390625 3.265625 1.390625 2 0 3.28125-1.40625 1.28125-1.40625 1.28125-3.984375 0-1.625-.546875-2.84375-.546875-1.21875-1.609375-1.875-1.0625-.671875-2.375-.671875-1.890625 0-3.25 1.296875-1.34375 1.28125-1.34375 4.28125zm16.605225 5.015625.234375 1.453125q-.6875.140625-1.234375.140625-.890625 0-1.390625-.28125-.484375-.28125-.6875-.734375-.203125-.46875-.203125-1.9375v-5.578125h-1.203125v-1.265625h1.203125v-2.390625l1.625-.984375v3.375h1.65625v1.265625h-1.65625v5.671875q0 .6875.078125.890625.09375.203125.28125.328125.203125.109375.578125.109375.265625 0 .71875-.0625zm1.6051636 1.46875v-13.359375h1.640625v4.796875q1.140625-1.328125 2.890625-1.328125 1.078125 0 1.859375.421875.796875.421875 1.140625 1.171875.34375.75.34375 2.171875v6.125h-1.640625v-6.125q0-1.234375-.53125-1.796875-.53125-.5625-1.515625-.5625-.71875 0-1.359375.390625-.640625.375-.921875 1.015625-.265625.640625-.265625 1.78125v5.296875zm17.000732-3.109375 1.6875.203125q-.40625 1.484375-1.484375 2.3125-1.078125.8125-2.765625.8125-2.125 0-3.375-1.296875-1.234375-1.3125-1.234375-3.671875 0-2.453125 1.25-3.796875 1.265625-1.34375 3.265625-1.34375 1.9375 0 3.15625 1.328125 1.234375 1.3125 1.234375 3.703125 0 .15625 0 .4375h-7.21875q.09375 1.59375.90625 2.453125.8125.84375 2.015625.84375.90625 0 1.546875-.46875.640625-.484375 1.015625-1.515625zm-5.390625-2.65625h5.40625q-.109375-1.21875-.625-1.828125-.78125-.953125-2.03125-.953125-1.125 0-1.90625.765625-.765625.75-.84375 2.015625zm9.125671 5.765625v-9.671875h1.46875v1.46875q.5625-1.03125 1.03125-1.359375.484375-.328125 1.0625-.328125.828125 0 1.6875.53125l-.5625 1.515625q-.609375-.359375-1.203125-.359375-.546875 0-.96875.328125-.421875.328125-.609375.890625-.28125.875-.28125 1.921875v5.0625z" fill="#000"/></g></svg>