<svg height="296" width="1185" xmlns="http://www.w3.org/2000/svg" xmlns:xlink="http://www.w3.org/1999/xlink"><defs><path id="a" d="m0 0h1185v296h-1185z"/><mask id="b" fill="#fff"><use fill="#fff" fill-rule="evenodd" xlink:href="#a"/></mask><mask id="c" fill="#fff"><path d="m0 0h1280v960h-1280z" fill="#fff" fill-rule="evenodd"/></mask></defs><g fill="none" fill-rule="evenodd"><use fill="#fff" xlink:href="#a"/><g mask="url(#b)"><g mask="url(#c)" transform="translate(-59 -117)"><path d="m0 0h1280v960h-1280z"/><path d="m232 301h28v41.008h-28z" fill="#cfe2f3"/><path d="m232 301h28v41.008h-28z" stroke="#000" stroke-linejoin="round"/><path d="m260 301-1.008-61.008"/><path d="m260 301-.909-55.009" stroke="#000" stroke-linejoin="round"/><path d="m260.743 245.964-1.727-4.51-1.576 4.565z" fill="#000" stroke="#000"/><path d="m258.992 198.984h111.024v41.008h-111.024z" fill="#fce5cd"/><path d="m258.992 198.984h111.024v41.008h-111.024z" stroke="#000" stroke-linejoin="round"/><path d="m291.574 226.408v-13.36h5.046c.886 0 1.563.042 2.032.126.645.114 1.192.328 1.64.64.448.303.808.73 1.078 1.282.271.552.407 1.161.407 1.828 0 1.135-.365 2.099-1.094 2.89-.719.782-2.026 1.172-3.922 1.172h-3.422v5.422zm1.765-7h3.453c1.146 0 1.959-.213 2.438-.64.479-.428.719-1.026.719-1.797 0-.563-.141-1.042-.422-1.438a1.96 1.96 0 0 0 -1.125-.781c-.292-.083-.839-.125-1.641-.125h-3.422zm16.787 5.813c-.614.51-1.203.875-1.765 1.093a5.049 5.049 0 0 1 -1.797.313c-1.063 0-1.88-.26-2.453-.781s-.86-1.183-.86-1.985c0-.479.11-.911.329-1.297.218-.395.5-.708.843-.937.355-.24.75-.422 1.188-.547.312-.083.797-.167 1.453-.25 1.323-.156 2.297-.344 2.922-.562.01-.23.015-.37.015-.422 0-.667-.156-1.14-.468-1.422-.417-.365-1.042-.547-1.875-.547-.771 0-1.339.135-1.703.406-.365.271-.636.745-.813 1.422l-1.61-.219c.147-.677.386-1.224.72-1.64.333-.427.817-.756 1.453-.985.635-.229 1.364-.343 2.187-.343.833 0 1.505.099 2.016.296.52.188.9.433 1.14.735.25.291.422.661.516 1.11.052.28.078.786.078 1.515v2.187c0 1.521.037 2.485.11 2.89.072.397.208.782.406 1.157h-1.703a3.222 3.222 0 0 1 -.329-1.187zm-.14-3.672c-.594.25-1.485.458-2.672.625-.677.094-1.156.203-1.438.328-.28.125-.5.302-.656.531-.146.23-.219.49-.219.781 0 .438.167.803.5 1.094.334.292.818.438 1.454.438.625 0 1.182-.136 1.671-.407.5-.28.865-.661 1.094-1.14.177-.375.266-.922.266-1.64zm4.188 4.86v-9.673h1.469v1.47c.375-.688.719-1.142 1.031-1.36a1.855 1.855 0 0 1 1.063-.328c.552 0 1.114.177 1.687.53l-.562 1.516c-.407-.24-.808-.359-1.204-.359-.364 0-.687.11-.968.328a1.827 1.827 0 0 0 -.61.89 6.253 6.253 0 0 0 -.28 1.923v5.062h-1.626zm5.572-2.891 1.625-.25c.083.645.333 1.145.75 1.5.417.343 1 .515 1.75.515s1.307-.15 1.672-.453c.365-.312.547-.677.547-1.094 0-.364-.162-.656-.484-.875-.22-.146-.777-.328-1.672-.547-1.209-.312-2.047-.578-2.516-.796-.458-.22-.807-.521-1.047-.907a2.486 2.486 0 0 1 -.36-1.312c0-.427.1-.823.298-1.188.198-.375.468-.682.812-.922.25-.187.594-.343 1.031-.468a4.888 4.888 0 0 1 1.422-.203c.76 0 1.427.109 2 .328.573.218.995.515 1.266.89.281.375.474.875.578 1.5l-1.61.22c-.072-.5-.286-.892-.64-1.173-.344-.281-.833-.422-1.469-.422-.76 0-1.302.125-1.625.375-.312.25-.468.542-.468.875 0 .209.062.401.187.578.135.178.349.323.64.438.157.062.636.203 1.438.422 1.167.302 1.98.552 2.438.75s.817.484 1.078.86c.26.374.39.843.39 1.405 0 .553-.161 1.068-.484 1.547-.312.48-.77.854-1.375 1.125-.604.26-1.286.39-2.047.39-1.25 0-2.208-.26-2.875-.78-.656-.521-1.073-1.297-1.25-2.328zm16.61-.22 1.687.204c-.27.99-.766 1.76-1.484 2.312-.72.542-1.641.813-2.766.813-1.417 0-2.542-.432-3.375-1.297-.823-.875-1.234-2.099-1.234-3.672 0-1.635.416-2.9 1.25-3.797.843-.896 1.932-1.343 3.265-1.343 1.292 0 2.344.442 3.157 1.328.822.875 1.234 2.11 1.234 3.703v.437h-7.219c.063 1.063.365 1.88.906 2.453.542.563 1.214.844 2.016.844.604 0 1.12-.156 1.547-.469.427-.322.766-.828 1.016-1.515zm-5.391-2.655h5.406c-.073-.813-.281-1.422-.625-1.829-.52-.635-1.198-.953-2.031-.953-.75 0-1.386.256-1.906.766-.51.5-.792 1.172-.844 2.016z" fill="#000" fill-rule="nonzero"/><path d="m370.024 239.992v62.016"/><path d="m370.024 239.992v56.016" stroke="#000" stroke-linejoin="round"/><path d="m368.372 296.008 1.652 4.538 1.651-4.538z" fill="#000" fill-rule="nonzero" stroke="#000"/><path d="m370.024 301h28v41.008h-28z" fill="#cfe2f3" fill-rule="nonzero"/><path d="m370.024 301h28v41.008h-28z" stroke="#000" stroke-linejoin="round"/><path d="m398.276 301h111.023v41.008h-111.023z" fill="#d9ead3" fill-rule="nonzero"/><path d="m398.276 301h111.023v41.008h-111.023z" stroke="#000" stroke-linejoin="round"/><path d="m430.54 323.736 1.767.454c-.375 1.447-1.042 2.557-2 3.328-.959.76-2.136 1.14-3.532 1.14-1.437 0-2.61-.291-3.515-.875-.896-.593-1.584-1.442-2.063-2.547a9.175 9.175 0 0 1 -.703-3.593c0-1.386.266-2.594.797-3.625.531-1.042 1.286-1.828 2.266-2.36a6.658 6.658 0 0 1 3.25-.812c1.333 0 2.453.338 3.359 1.015.917.678 1.552 1.636 1.906 2.875l-1.734.407c-.313-.969-.766-1.672-1.36-2.11-.583-.448-1.317-.672-2.203-.672-1.031 0-1.89.245-2.578.735-.687.49-1.172 1.15-1.453 1.984a7.869 7.869 0 0 0 -.422 2.563c0 1.135.167 2.125.5 2.968.333.844.85 1.48 1.547 1.907a4.342 4.342 0 0 0 2.266.625c.99 0 1.828-.287 2.515-.86.688-.573 1.151-1.422 1.39-2.547zm3.13-.156c0-1.791.495-3.114 1.484-3.969.834-.718 1.85-1.078 3.047-1.078 1.334 0 2.422.438 3.266 1.313.844.864 1.266 2.068 1.266 3.61 0 1.239-.188 2.218-.563 2.937a3.99 3.99 0 0 1 -1.64 1.656 4.692 4.692 0 0 1 -2.329.594c-1.354 0-2.448-.433-3.28-1.297-.834-.875-1.25-2.13-1.25-3.766zm1.688 0c0 1.24.265 2.172.796 2.797.542.615 1.224.922 2.047.922.813 0 1.49-.307 2.032-.922.541-.625.812-1.573.812-2.844 0-1.198-.27-2.104-.812-2.718-.542-.615-1.22-.922-2.032-.922-.823 0-1.505.307-2.047.922-.53.604-.796 1.526-.796 2.765zm9.297 4.844v-9.672h1.469v1.36c.302-.48.703-.86 1.203-1.141a3.402 3.402 0 0 1 1.719-.438c.719 0 1.307.151 1.765.453.459.292.782.704.97 1.235.77-1.125 1.765-1.688 2.984-1.688.968 0 1.708.266 2.218.797.521.531.782 1.35.782 2.453v6.64h-1.641v-6.093c0-.656-.052-1.125-.156-1.406a1.357 1.357 0 0 0 -.578-.703 1.808 1.808 0 0 0 -.985-.266c-.677 0-1.24.23-1.687.688-.448.448-.672 1.166-.672 2.156v5.625h-1.64v-6.281c0-.73-.136-1.276-.407-1.64-.27-.366-.708-.548-1.313-.548-.458 0-.885.12-1.28.36-.397.24-.683.593-.86 1.062-.167.469-.25 1.146-.25 2.031v5.016h-1.64zm15.541 3.703v-13.375h1.484v1.25c.355-.49.75-.854 1.188-1.094.448-.25.99-.375 1.625-.375.823 0 1.547.214 2.172.64.635.418 1.114 1.017 1.437 1.798.323.77.485 1.62.485 2.547 0 .99-.177 1.88-.532 2.672-.354.791-.87 1.4-1.547 1.828a4.02 4.02 0 0 1 -2.14.625 3.117 3.117 0 0 1 -1.469-.344 3.155 3.155 0 0 1 -1.062-.875v4.703zm1.484-8.484c0 1.24.25 2.161.75 2.765.51.594 1.12.89 1.828.89.73 0 1.355-.306 1.875-.92.521-.626.782-1.584.782-2.876 0-1.23-.255-2.151-.766-2.766-.5-.614-1.104-.921-1.812-.921-.698 0-1.318.328-1.86.984-.531.646-.797 1.594-.797 2.844zm8.892-6.688v-1.89h1.64v1.89zm0 11.469v-9.672h1.64v9.672zm4.098 0v-13.36h1.64v13.36zm10.816-3.11 1.688.204c-.271.99-.766 1.76-1.485 2.312-.718.542-1.64.813-2.765.813-1.417 0-2.542-.433-3.375-1.297-.823-.875-1.235-2.1-1.235-3.672 0-1.635.417-2.901 1.25-3.797.844-.896 1.933-1.344 3.266-1.344 1.292 0 2.344.443 3.156 1.328.823.875 1.235 2.11 1.235 3.704v.437h-7.219c.062 1.063.365 1.88.906 2.453.542.563 1.214.844 2.016.844.604 0 1.12-.156 1.547-.469.427-.323.765-.828 1.015-1.515zm-5.39-2.656h5.406c-.073-.812-.281-1.422-.625-1.828-.52-.635-1.198-.953-2.031-.953-.75 0-1.386.255-1.907.766-.51.5-.791 1.172-.843 2.015z" fill="#000" fill-rule="nonzero"/><path d="m269.031 301h90.457v41.008h-90.457z" fill="#fff2cc"/><path d="m269.031 301h90.457v41.008h-90.457z" stroke="#000" stroke-dasharray="4" stroke-linejoin="round"/><path d="m291.837 321.924c0-2.219.593-3.953 1.78-5.203 1.188-1.26 2.725-1.89 4.61-1.89 1.23 0 2.339.296 3.328.89.99.583 1.745 1.406 2.266 2.469.52 1.052.781 2.244.781 3.578 0 1.354-.276 2.567-.828 3.64-.541 1.063-1.312 1.87-2.312 2.422s-2.084.828-3.25.828c-1.25 0-2.37-.302-3.36-.906a5.933 5.933 0 0 1 -2.25-2.5 7.53 7.53 0 0 1 -.765-3.328zm1.812.016c0 1.614.432 2.885 1.297 3.812s1.953 1.39 3.266 1.39c1.333 0 2.427-.468 3.28-1.406.855-.937 1.282-2.265 1.282-3.984 0-1.083-.182-2.031-.547-2.844-.364-.812-.9-1.437-1.61-1.875a4.352 4.352 0 0 0 -2.374-.672c-1.26 0-2.344.433-3.25 1.297-.896.854-1.344 2.282-1.344 4.282zm16.605 5.015.235 1.453c-.459.094-.87.14-1.235.14-.593 0-1.057-.093-1.39-.28a1.606 1.606 0 0 1 -.688-.735c-.135-.312-.203-.958-.203-1.937v-5.578h-1.203v-1.266h1.203v-2.39l1.625-.985v3.375h1.656v1.266h-1.656v5.672c0 .458.026.755.078.89a.78.78 0 0 0 .281.328c.136.073.329.11.579.11.177 0 .416-.021.718-.063zm1.606 1.469v-13.36h1.64v4.797c.76-.885 1.724-1.328 2.89-1.328.72 0 1.34.14 1.86.422.531.281.912.672 1.14 1.172.23.5.345 1.224.345 2.172v6.125h-1.641v-6.125c0-.823-.177-1.422-.531-1.797-.355-.375-.86-.562-1.516-.562-.48 0-.932.13-1.36.39a2.17 2.17 0 0 0 -.921 1.016c-.177.427-.266 1.02-.266 1.781v5.297zm17-3.11 1.688.204c-.271.99-.766 1.76-1.485 2.312-.718.542-1.64.813-2.765.813-1.417 0-2.542-.433-3.375-1.297-.823-.875-1.235-2.1-1.235-3.672 0-1.635.417-2.901 1.25-3.797.844-.896 1.933-1.344 3.266-1.344 1.292 0 2.344.443 3.156 1.328.823.875 1.235 2.11 1.235 3.704v.437h-7.22c.063 1.063.365 1.88.907 2.453.542.563 1.214.844 2.016.844.604 0 1.12-.156 1.547-.469.427-.323.765-.828 1.015-1.515zm-5.39-2.656h5.406c-.073-.812-.281-1.422-.625-1.828-.52-.635-1.198-.953-2.031-.953-.75 0-1.386.255-1.907.766-.51.5-.791 1.172-.843 2.015zm9.125 5.766v-9.672h1.47v1.469c.374-.688.718-1.14 1.03-1.36a1.855 1.855 0 0 1 1.063-.328c.552 0 1.114.177 1.687.532l-.562 1.515c-.406-.24-.807-.36-1.203-.36-.365 0-.688.11-.969.329a1.827 1.827 0 0 0 -.61.89 6.253 6.253 0 0 0 -.28 1.922v5.063z" fill="#000" fill-rule="nonzero"/><path d="m509.551 301h28v41.008h-28z" fill="#cfe2f3"/><path d="m509.551 301h28v41.008h-28z" stroke="#000" stroke-linejoin="round"/><path d="m208 336h76v61.008h-76z"/><path d="m226.608 362.92v-13.36h1.781v11.782h6.563v1.578zm9.641-4.844c0-1.791.495-3.114 1.485-3.969.833-.718 1.849-1.078 3.047-1.078 1.333 0 2.421.438 3.265 1.313.844.864 1.266 2.068 1.266 3.61 0 1.239-.188 2.218-.563 2.937a3.99 3.99 0 0 1 -1.64 1.656 4.692 4.692 0 0 1 -2.328.594c-1.355 0-2.448-.433-3.282-1.297-.833-.875-1.25-2.13-1.25-3.766zm1.688 0c0 1.24.265 2.172.797 2.797.541.615 1.224.922 2.047.922.812 0 1.49-.307 2.03-.922.542-.625.813-1.573.813-2.844 0-1.198-.27-2.104-.812-2.718-.542-.615-1.219-.922-2.031-.922-.823 0-1.506.307-2.047.922-.532.604-.797 1.526-.797 2.765zm15.61 3.656c-.615.51-1.203.875-1.766 1.094a5.049 5.049 0 0 1 -1.797.313c-1.062 0-1.88-.26-2.453-.782-.573-.52-.86-1.182-.86-1.984 0-.48.11-.911.329-1.297.219-.396.5-.708.844-.937.354-.24.75-.422 1.187-.547.313-.083.797-.167 1.453-.25 1.323-.156 2.297-.344 2.922-.563.01-.229.016-.37.016-.422 0-.666-.156-1.14-.469-1.421-.417-.365-1.042-.547-1.875-.547-.77 0-1.338.135-1.703.406-.365.27-.635.745-.813 1.422l-1.609-.219c.146-.677.386-1.224.719-1.64.333-.428.818-.756 1.453-.985.635-.23 1.365-.344 2.187-.344.834 0 1.506.1 2.016.297.521.188.901.433 1.14.735.25.291.423.661.516 1.109.052.281.078.786.078 1.516v2.187c0 1.52.037 2.484.11 2.89.073.397.208.782.406 1.157h-1.703a3.222 3.222 0 0 1 -.328-1.188zm-.14-3.671c-.595.25-1.485.458-2.673.625-.677.093-1.156.203-1.437.328s-.5.302-.656.531c-.146.23-.22.49-.22.781 0 .438.168.802.5 1.094.334.292.819.437 1.454.437.625 0 1.182-.135 1.672-.406.5-.281.864-.661 1.094-1.14.177-.375.265-.922.265-1.641v-.61zm10.469 4.859v-1.219c-.604.959-1.505 1.438-2.703 1.438-.771 0-1.48-.214-2.125-.64-.646-.428-1.146-1.022-1.5-1.782-.355-.76-.532-1.636-.532-2.625 0-.969.162-1.844.485-2.625.323-.792.802-1.396 1.437-1.813a3.92 3.92 0 0 1 2.172-.625c.583 0 1.1.125 1.547.375.458.24.828.558 1.11.953v-4.796h1.64v13.359zm-5.172-4.828c0 1.24.26 2.167.781 2.781.52.615 1.136.922 1.844.922.719 0 1.328-.292 1.828-.875.5-.594.75-1.49.75-2.688 0-1.322-.255-2.291-.766-2.906-.51-.625-1.14-.937-1.89-.937-.719 0-1.323.297-1.813.89-.49.594-.734 1.532-.734 2.813zm-35.704 22.531 1.656-.14c.083.666.266 1.213.547 1.64.291.427.74.776 1.344 1.047.614.26 1.302.39 2.062.39.667 0 1.26-.098 1.781-.296s.907-.469 1.157-.813c.25-.354.375-.74.375-1.156a1.7 1.7 0 0 0 -.375-1.094c-.24-.312-.636-.578-1.188-.797-.365-.135-1.161-.349-2.39-.64-1.22-.302-2.074-.584-2.563-.844-.646-.333-1.125-.745-1.438-1.234a3.09 3.09 0 0 1 -.468-1.672c0-.667.192-1.292.578-1.875.385-.594.942-1.042 1.672-1.344.74-.302 1.557-.453 2.453-.453.99 0 1.86.161 2.61.484.76.313 1.343.781 1.75 1.406.405.615.624 1.313.655 2.094l-1.687.125c-.094-.844-.406-1.479-.938-1.906-.52-.438-1.291-.656-2.312-.656-1.073 0-1.854.198-2.344.593-.49.396-.734.87-.734 1.422 0 .48.177.87.531 1.172.333.313 1.219.636 2.656.969 1.438.323 2.422.604 2.953.844.782.354 1.355.807 1.72 1.36.374.551.562 1.187.562 1.905 0 .709-.203 1.38-.61 2.016-.406.625-.99 1.115-1.75 1.469-.76.343-1.62.515-2.578.515-1.208 0-2.224-.177-3.047-.53a4.315 4.315 0 0 1 -1.922-1.595c-.458-.708-.698-1.51-.718-2.406zm19.146.75 1.61.219c-.177 1.104-.63 1.974-1.36 2.61-.718.624-1.609.937-2.672.937-1.322 0-2.385-.433-3.187-1.297-.802-.865-1.203-2.104-1.203-3.719 0-1.052.172-1.969.515-2.75.344-.781.87-1.364 1.579-1.75a4.662 4.662 0 0 1 2.312-.594c1.052 0 1.912.266 2.578.797.667.531 1.094 1.287 1.281 2.266l-1.593.234c-.157-.646-.427-1.13-.813-1.453-.385-.333-.849-.5-1.39-.5-.823 0-1.495.297-2.016.89-.52.594-.781 1.532-.781 2.813 0 1.302.25 2.25.75 2.844.5.583 1.15.875 1.953.875.646 0 1.182-.198 1.61-.594.437-.396.713-1.005.827-1.828zm3 3.547v-9.672h1.47v1.469c.374-.688.718-1.14 1.03-1.36a1.855 1.855 0 0 1 1.063-.328c.552 0 1.114.177 1.687.532l-.562 1.515c-.406-.24-.807-.36-1.203-.36-.365 0-.688.11-.969.329a1.827 1.827 0 0 0 -.61.89 6.253 6.253 0 0 0 -.28 1.922v5.063zm6.229-11.469v-1.89h1.64v1.89zm0 11.469v-9.672h1.64v9.672zm4.144 3.703v-13.375h1.485v1.25c.354-.49.75-.854 1.187-1.094.448-.25.99-.375 1.625-.375.823 0 1.547.214 2.172.641.636.417 1.115 1.016 1.438 1.797.323.77.484 1.62.484 2.547 0 .99-.177 1.88-.531 2.672-.354.791-.87 1.4-1.547 1.828a4.02 4.02 0 0 1 -2.14.625 3.117 3.117 0 0 1 -1.47-.344 3.155 3.155 0 0 1 -1.062-.875v4.703h-1.64zm1.485-8.484c0 1.24.25 2.161.75 2.765.51.594 1.12.891 1.828.891.73 0 1.354-.307 1.875-.922.52-.625.781-1.583.781-2.875 0-1.23-.255-2.15-.765-2.766-.5-.614-1.105-.921-1.813-.921-.698 0-1.318.328-1.86.984-.53.646-.796 1.594-.796 2.844zm12.47 3.312.234 1.453c-.459.094-.87.141-1.235.141-.593 0-1.057-.094-1.39-.281a1.606 1.606 0 0 1 -.688-.735c-.135-.312-.203-.958-.203-1.937v-5.578h-1.203v-1.266h1.203v-2.39l1.625-.985v3.375h1.656v1.266h-1.656v5.672c0 .458.026.755.078.89a.78.78 0 0 0 .281.328c.136.073.329.11.579.11.177 0 .416-.021.718-.063z" fill="#000" fill-rule="nonzero"/><path d="m314.777 336h136.22v61.008h-136.22z"/><path d="m364.714 362.92 5.125-13.36h1.907l5.468 13.36h-2.014l-1.547-4.047h-5.594l-1.469 4.047h-1.875zm3.86-5.484h4.53l-1.405-3.704a41.94 41.94 0 0 1 -.938-2.765 18.98 18.98 0 0 1 -.719 2.547zm9.459 1.187 1.656-.14c.083.666.266 1.213.547 1.64.292.427.74.776 1.344 1.047.614.26 1.302.39 2.062.39.667 0 1.26-.098 1.782-.296.52-.198.906-.469 1.156-.813.25-.354.375-.74.375-1.156a1.7 1.7 0 0 0 -.375-1.094c-.24-.312-.636-.578-1.188-.797-.364-.135-1.161-.349-2.39-.64-1.22-.302-2.073-.584-2.563-.844-.646-.333-1.125-.745-1.437-1.234a3.09 3.09 0 0 1 -.47-1.672c0-.667.194-1.292.579-1.875.385-.594.943-1.042 1.672-1.344.74-.302 1.557-.453 2.453-.453.99 0 1.86.161 2.61.484.76.313 1.343.781 1.75 1.406.406.615.624 1.313.656 2.094l-1.688.125c-.094-.844-.406-1.479-.937-1.906-.521-.438-1.292-.656-2.313-.656-1.073 0-1.854.198-2.344.593-.49.396-.734.87-.734 1.422 0 .48.177.87.531 1.172.334.313 1.219.636 2.657.969 1.437.323 2.421.604 2.953.844.78.354 1.354.807 1.718 1.36.375.551.563 1.187.563 1.905 0 .709-.203 1.38-.61 2.016-.406.625-.99 1.115-1.75 1.469-.76.343-1.62.515-2.578.515-1.208 0-2.224-.177-3.046-.53a4.315 4.315 0 0 1 -1.922-1.595c-.459-.708-.698-1.51-.72-2.406zm16.443 4.297v-11.781h-4.406v-1.578h10.578v1.578h-4.406v11.781zm-67.932 22v-13.36h1.766v13.36zm4.683 0v-9.672h1.469v1.375c.708-1.062 1.734-1.594 3.078-1.594.583 0 1.12.105 1.61.313s.854.484 1.093.828c.25.333.422.734.516 1.203.062.302.094.833.094 1.594v5.953h-1.641v-5.89c0-.667-.068-1.162-.203-1.485a1.562 1.562 0 0 0 -.672-.797c-.323-.198-.703-.297-1.14-.297-.699 0-1.303.224-1.813.672-.5.438-.75 1.276-.75 2.516v5.281h-1.64zm13.954-1.469.234 1.453c-.458.094-.87.141-1.234.141-.594 0-1.057-.094-1.39-.281a1.606 1.606 0 0 1 -.688-.735c-.135-.312-.203-.958-.203-1.937v-5.578h-1.203v-1.266h1.203v-2.39l1.625-.985v3.375h1.656v1.266h-1.656v5.672c0 .458.026.755.078.89a.78.78 0 0 0 .281.328c.136.073.328.11.578.11.177 0 .417-.021.719-.063zm8.23-1.64 1.688.203c-.271.99-.766 1.76-1.485 2.312-.718.542-1.64.813-2.765.813-1.417 0-2.542-.433-3.375-1.297-.823-.875-1.235-2.1-1.235-3.672 0-1.635.417-2.901 1.25-3.797.844-.896 1.933-1.344 3.266-1.344 1.292 0 2.344.443 3.156 1.328.823.875 1.235 2.11 1.235 3.704v.437h-7.22c.063 1.063.365 1.88.907 2.453.542.563 1.214.844 2.016.844.604 0 1.12-.156 1.547-.469.427-.323.765-.828 1.015-1.515zm-5.39-2.657h5.406c-.073-.812-.281-1.422-.625-1.828-.521-.635-1.198-.953-2.031-.953-.75 0-1.386.255-1.907.766-.51.5-.791 1.172-.843 2.015zm9.125 5.766v-9.672h1.47v1.469c.374-.688.718-1.14 1.03-1.36a1.855 1.855 0 0 1 1.063-.328c.552 0 1.114.177 1.687.532l-.562 1.515c-.406-.24-.807-.36-1.203-.36-.365 0-.688.11-.97.329a1.827 1.827 0 0 0 -.608.89 6.253 6.253 0 0 0 -.282 1.922v5.063zm6.229 0v-9.672h1.468v1.375c.709-1.062 1.735-1.594 3.078-1.594.584 0 1.12.105 1.61.313s.854.484 1.094.828c.25.333.421.734.515 1.203.063.302.094.833.094 1.594v5.953h-1.64v-5.89c0-.667-.068-1.162-.204-1.485a1.562 1.562 0 0 0 -.672-.797c-.323-.198-.703-.297-1.14-.297-.698 0-1.302.224-1.813.672-.5.438-.75 1.276-.75 2.516v5.281zm16.688-1.188c-.615.51-1.203.875-1.766 1.094a5.049 5.049 0 0 1 -1.797.313c-1.062 0-1.88-.26-2.453-.782-.573-.52-.86-1.182-.86-1.984 0-.48.11-.911.329-1.297.219-.396.5-.708.844-.937.354-.24.75-.422 1.187-.547.313-.083.797-.167 1.453-.25 1.323-.156 2.297-.344 2.922-.563.01-.229.016-.37.016-.422 0-.666-.156-1.14-.469-1.421-.417-.365-1.042-.547-1.875-.547-.77 0-1.338.135-1.703.406-.365.27-.635.745-.813 1.422l-1.609-.219c.146-.677.386-1.224.719-1.64.333-.428.818-.756 1.453-.985.635-.23 1.365-.344 2.187-.344.834 0 1.506.1 2.016.297.52.188.901.433 1.14.735.25.291.423.661.516 1.109.052.281.078.786.078 1.516v2.187c0 1.52.037 2.484.11 2.89.073.397.208.782.406 1.157h-1.703a3.222 3.222 0 0 1 -.328-1.188zm-.14-3.671c-.595.25-1.485.458-2.673.625-.677.093-1.156.203-1.437.328s-.5.302-.656.531c-.146.23-.22.49-.22.781 0 .438.168.802.5 1.094.334.292.819.437 1.454.437.625 0 1.182-.135 1.672-.406.5-.281.864-.661 1.094-1.14.177-.375.265-.922.265-1.641v-.61zm4.156 4.859v-13.36h1.64v13.36zm4.192-11.469v-1.89h1.64v1.89zm0 11.469v-9.672h1.64v9.672zm3.27 0v-1.328l6.156-7.078c-.698.041-1.313.062-1.844.062h-3.937v-1.328h7.906v1.078l-5.25 6.14-1 1.126c.73-.052 1.417-.078 2.062-.078h4.47v1.406zm16.515-1.188c-.614.51-1.203.875-1.765 1.094a5.049 5.049 0 0 1 -1.797.313c-1.063 0-1.88-.26-2.453-.782-.573-.52-.86-1.182-.86-1.984 0-.48.11-.911.328-1.297.22-.396.5-.708.844-.937.354-.24.75-.422 1.188-.547.312-.083.797-.167 1.453-.25 1.323-.156 2.297-.344 2.922-.563.01-.229.015-.37.015-.422 0-.666-.156-1.14-.468-1.421-.417-.365-1.042-.547-1.875-.547-.771 0-1.339.135-1.704.406-.364.27-.635.745-.812 1.422l-1.61-.219c.146-.677.386-1.224.72-1.64.333-.428.817-.756 1.452-.985.636-.23 1.365-.344 2.188-.344.833 0 1.505.1 2.016.297.52.188.9.433 1.14.735.25.291.422.661.516 1.109.052.281.078.786.078 1.516v2.187c0 1.52.036 2.484.11 2.89.072.397.208.782.406 1.157h-1.704a3.222 3.222 0 0 1 -.328-1.188zm-.14-3.671c-.594.25-1.485.458-2.672.625-.677.093-1.156.203-1.438.328-.28.125-.5.302-.656.531-.146.23-.219.49-.219.781 0 .438.167.802.5 1.094.334.292.818.437 1.453.437.625 0 1.183-.135 1.672-.406.5-.281.865-.661 1.094-1.14.177-.375.266-.922.266-1.641v-.61zm7.782 3.39.234 1.453c-.458.094-.87.141-1.234.141-.594 0-1.058-.094-1.39-.281a1.606 1.606 0 0 1 -.688-.735c-.136-.312-.204-.958-.204-1.937v-5.578h-1.203v-1.266h1.203v-2.39l1.625-.985v3.375h1.657v1.266h-1.657v5.672c0 .458.026.755.079.89a.78.78 0 0 0 .28.328c.136.073.329.11.579.11.177 0 .417-.021.719-.063zm1.605-10v-1.89h1.64v1.89zm0 11.469v-9.672h1.64v9.672zm3.535-4.844c0-1.791.495-3.114 1.485-3.969.833-.718 1.849-1.078 3.047-1.078 1.333 0 2.421.438 3.265 1.313.844.864 1.266 2.068 1.266 3.61 0 1.239-.188 2.218-.563 2.937a3.99 3.99 0 0 1 -1.64 1.656 4.692 4.692 0 0 1 -2.328.594c-1.355 0-2.448-.433-3.282-1.297-.833-.875-1.25-2.13-1.25-3.766zm1.688 0c0 1.24.265 2.172.797 2.797.541.615 1.224.922 2.047.922.812 0 1.49-.307 2.03-.922.542-.625.813-1.573.813-2.844 0-1.198-.27-2.104-.812-2.718-.542-.615-1.219-.922-2.031-.922-.823 0-1.506.307-2.047.922-.532.604-.797 1.526-.797 2.765zm9.297 4.844v-9.672h1.47v1.375c.707-1.062 1.734-1.594 3.077-1.594.584 0 1.12.105 1.61.313s.854.484 1.093.828c.25.333.422.734.516 1.203.063.302.094.833.094 1.594v5.953h-1.64v-5.89c0-.667-.069-1.162-.204-1.485a1.562 1.562 0 0 0 -.672-.797c-.323-.198-.703-.297-1.14-.297-.698 0-1.303.224-1.813.672-.5.438-.75 1.276-.75 2.516v5.281h-1.64z" fill="#000" fill-rule="nonzero"/><path d="m455.44 338h136.221v61.008h-136.22z"/><path d="m486.018 364.92v-13.36h5.015c1.021 0 1.839.136 2.453.407.615.27 1.094.687 1.438 1.25.354.562.531 1.15.531 1.765 0 .573-.156 1.115-.469 1.625-.302.5-.765.902-1.39 1.204.802.24 1.422.645 1.86 1.218.437.573.655 1.245.655 2.016 0 .625-.135 1.208-.406 1.75-.26.531-.588.943-.984 1.234-.386.292-.87.516-1.453.672-.584.146-1.303.219-2.157.219zm1.78-7.75h2.876c.791 0 1.354-.047 1.687-.14.448-.136.787-.36 1.016-.673.23-.312.344-.703.344-1.171 0-.438-.11-.823-.328-1.157a1.578 1.578 0 0 0 -.907-.703c-.396-.125-1.073-.187-2.03-.187h-2.657v4.031zm0 6.172h3.313c.573 0 .974-.021 1.203-.063.407-.073.745-.192 1.016-.359a2 2 0 0 0 .688-.75c.177-.323.265-.698.265-1.125 0-.5-.13-.932-.39-1.297-.25-.364-.605-.62-1.063-.766-.448-.156-1.099-.234-1.953-.234h-3.078v4.594zm10.46 5.297-.188-1.532c.365.094.678.141.938.141.365 0 .656-.062.875-.187.219-.115.401-.282.547-.5.104-.167.27-.573.5-1.22.031-.093.078-.228.14-.405l-3.671-9.688h1.765l2.016 5.594c.26.719.495 1.469.703 2.25.187-.75.411-1.485.672-2.203l2.078-5.64h1.64l-3.687 9.827c-.396 1.073-.703 1.808-.922 2.203-.291.542-.625.938-1 1.188s-.823.375-1.344.375c-.322 0-.677-.068-1.062-.203zm12.984-5.188.235 1.453c-.459.094-.87.141-1.235.141-.593 0-1.057-.094-1.39-.281a1.606 1.606 0 0 1 -.688-.735c-.135-.312-.203-.958-.203-1.937v-5.578h-1.203v-1.266h1.203v-2.39l1.625-.985v3.375h1.656v1.266h-1.656v5.672c0 .458.026.755.078.89a.78.78 0 0 0 .281.328c.136.073.329.11.579.11.177 0 .416-.021.718-.063zm8.23-1.64 1.688.203c-.27.99-.766 1.76-1.484 2.312-.72.542-1.641.813-2.766.813-1.417 0-2.542-.433-3.375-1.297-.823-.875-1.234-2.1-1.234-3.672 0-1.635.416-2.901 1.25-3.797.843-.896 1.932-1.344 3.265-1.344 1.292 0 2.344.443 3.157 1.328.822.875 1.234 2.11 1.234 3.704v.437h-7.219c.063 1.063.365 1.88.906 2.453.542.563 1.214.844 2.016.844.604 0 1.12-.156 1.547-.469.427-.323.766-.828 1.016-1.515zm-5.39-2.657h5.406c-.073-.812-.281-1.422-.625-1.828-.52-.635-1.198-.953-2.031-.953-.75 0-1.386.255-1.906.766-.51.5-.792 1.172-.844 2.015zm15.454 2.22 1.61.218c-.178 1.104-.631 1.974-1.36 2.61-.719.624-1.61.937-2.672.937-1.323 0-2.386-.433-3.188-1.297-.802-.865-1.203-2.104-1.203-3.719 0-1.052.172-1.969.516-2.75s.87-1.364 1.578-1.75a4.662 4.662 0 0 1 2.313-.594c1.052 0 1.911.266 2.578.797.666.531 1.093 1.287 1.28 2.266l-1.593.234c-.156-.646-.427-1.13-.812-1.453-.386-.333-.85-.5-1.391-.5-.823 0-1.495.297-2.016.89-.52.594-.78 1.532-.78 2.813 0 1.302.25 2.25.75 2.844.5.583 1.15.875 1.952.875.646 0 1.183-.198 1.61-.594.437-.396.713-1.005.828-1.828zm2.406-1.298c0-1.791.495-3.114 1.484-3.969.834-.718 1.85-1.078 3.047-1.078 1.334 0 2.422.438 3.266 1.313.844.864 1.266 2.068 1.266 3.61 0 1.239-.188 2.218-.563 2.937a3.99 3.99 0 0 1 -1.64 1.656 4.692 4.692 0 0 1 -2.329.594c-1.354 0-2.448-.433-3.281-1.297-.833-.875-1.25-2.13-1.25-3.766zm1.688 0c0 1.24.265 2.172.796 2.797.542.615 1.224.922 2.047.922.813 0 1.49-.307 2.032-.922.541-.625.812-1.573.812-2.844 0-1.198-.27-2.104-.812-2.718-.542-.615-1.22-.922-2.032-.922-.823 0-1.505.307-2.047.922-.53.604-.796 1.526-.796 2.765zm15.563 4.844v-1.219c-.604.959-1.505 1.438-2.703 1.438-.771 0-1.48-.214-2.125-.64-.646-.428-1.146-1.022-1.5-1.782-.355-.76-.532-1.636-.532-2.625 0-.969.162-1.844.485-2.625.323-.792.802-1.396 1.437-1.813a3.92 3.92 0 0 1 2.172-.625c.583 0 1.1.125 1.547.375.458.24.828.558 1.11.953v-4.796h1.64v13.359zm-5.172-4.828c0 1.24.26 2.167.781 2.781.521.615 1.136.922 1.844.922.719 0 1.328-.292 1.828-.875.5-.594.75-1.49.75-2.688 0-1.322-.255-2.291-.766-2.906-.51-.625-1.14-.937-1.89-.937-.719 0-1.323.297-1.813.89-.49.594-.734 1.532-.734 2.813zm15.907 1.719 1.687.203c-.27.99-.765 1.76-1.484 2.312-.719.542-1.64.813-2.766.813-1.416 0-2.541-.433-3.375-1.297-.823-.875-1.234-2.1-1.234-3.672 0-1.635.417-2.901 1.25-3.797.844-.896 1.932-1.344 3.266-1.344 1.291 0 2.343.443 3.156 1.328.823.875 1.234 2.11 1.234 3.704v.437h-7.219c.063 1.063.365 1.88.907 2.453.541.563 1.213.844 2.015.844.605 0 1.12-.156 1.547-.469.427-.323.766-.828 1.016-1.515zm-5.39-2.657h5.405c-.072-.812-.28-1.422-.625-1.828-.52-.635-1.197-.953-2.03-.953-.75 0-1.386.255-1.907.766-.51.5-.792 1.172-.844 2.015zm-76.638 27.766v-13.36h9.015v1.579h-7.25v4.14h6.266v1.578h-6.266v6.063zm11.099-11.469v-1.89h1.64v1.89h-1.639zm0 11.469v-9.672h1.64v9.672h-1.639zm4.145 0v-9.672h1.468v1.375c.709-1.062 1.735-1.594 3.079-1.594.583 0 1.12.105 1.609.313.49.208.854.484 1.094.828.25.333.422.734.515 1.203.063.302.094.833.094 1.594v5.953h-1.64v-5.89c0-.667-.068-1.162-.204-1.485a1.562 1.562 0 0 0 -.672-.797c-.322-.198-.703-.297-1.14-.297-.698 0-1.302.224-1.813.672-.5.438-.75 1.276-.75 2.516v5.281zm16.688-1.188c-.615.51-1.203.875-1.766 1.094a5.049 5.049 0 0 1 -1.797.313c-1.062 0-1.88-.26-2.453-.782-.573-.52-.86-1.182-.86-1.984 0-.48.11-.911.33-1.297.218-.396.5-.708.843-.937.354-.24.75-.422 1.187-.547.313-.083.797-.167 1.453-.25 1.323-.156 2.297-.344 2.922-.563.01-.229.016-.37.016-.422 0-.666-.156-1.14-.469-1.421-.416-.365-1.041-.547-1.875-.547-.77 0-1.338.135-1.703.406-.365.27-.635.745-.812 1.422l-1.61-.219c.146-.677.386-1.224.719-1.64.333-.428.818-.756 1.453-.985.635-.23 1.365-.344 2.188-.344.833 0 1.505.1 2.015.297.521.188.901.433 1.14.735.25.291.423.661.516 1.109.053.281.079.786.079 1.516v2.187c0 1.52.036 2.484.109 2.89.073.397.208.782.406 1.157h-1.703a3.222 3.222 0 0 1 -.328-1.188zm-.14-3.671c-.594.25-1.485.458-2.673.625-.677.093-1.156.203-1.437.328s-.5.302-.656.531c-.146.23-.22.49-.22.781 0 .438.168.802.5 1.094.334.292.819.437 1.454.437.625 0 1.182-.135 1.672-.406.5-.281.865-.661 1.094-1.14.177-.375.265-.922.265-1.641v-.61zm4.156 4.859v-13.36h1.64v13.36zm4.192-11.469v-1.89h1.64v1.89zm0 11.469v-9.672h1.64v9.672zm3.27 0v-1.328l6.156-7.078c-.698.041-1.312.062-1.844.062h-3.937v-1.328h7.906v1.078l-5.25 6.14-1 1.126c.73-.052 1.417-.078 2.063-.078h4.468v1.406zm16.515-1.188c-.614.51-1.203.875-1.765 1.094a5.049 5.049 0 0 1 -1.797.313c-1.063 0-1.88-.26-2.453-.782-.573-.52-.86-1.182-.86-1.984 0-.48.11-.911.329-1.297.218-.396.5-.708.843-.937.354-.24.75-.422 1.188-.547.312-.083.797-.167 1.453-.25 1.323-.156 2.297-.344 2.922-.563.01-.229.015-.37.015-.422 0-.666-.156-1.14-.468-1.421-.417-.365-1.042-.547-1.875-.547-.771 0-1.339.135-1.703.406-.365.27-.636.745-.813 1.422l-1.61-.219c.147-.677.386-1.224.72-1.64.333-.428.817-.756 1.453-.985.635-.23 1.364-.344 2.187-.344.833 0 1.505.1 2.016.297.52.188.9.433 1.14.735.25.291.422.661.516 1.109.052.281.078.786.078 1.516v2.187c0 1.52.037 2.484.11 2.89.072.397.208.782.406 1.157h-1.703a3.222 3.222 0 0 1 -.329-1.188zm-.14-3.671c-.594.25-1.485.458-2.672.625-.677.093-1.156.203-1.438.328-.28.125-.5.302-.656.531-.146.23-.219.49-.219.781 0 .438.167.802.5 1.094.334.292.818.437 1.454.437.625 0 1.182-.135 1.671-.406.5-.281.865-.661 1.094-1.14.177-.375.266-.922.266-1.641v-.61zm7.782 3.39.234 1.453c-.458.094-.87.141-1.234.141-.594 0-1.058-.094-1.39-.281a1.606 1.606 0 0 1 -.688-.735c-.136-.312-.204-.958-.204-1.937v-5.578h-1.203v-1.266h1.203v-2.39l1.625-.985v3.375h1.657v1.266h-1.657v5.672c0 .458.027.755.079.89a.78.78 0 0 0 .28.328c.136.073.329.11.579.11.177 0 .417-.021.719-.063zm1.605-10v-1.89h1.64v1.89zm0 11.469v-9.672h1.64v9.672zm3.535-4.844c0-1.791.495-3.114 1.485-3.969.833-.718 1.849-1.078 3.047-1.078 1.333 0 2.421.438 3.265 1.313.844.864 1.266 2.068 1.266 3.61 0 1.239-.188 2.218-.563 2.937a3.99 3.99 0 0 1 -1.64 1.656 4.692 4.692 0 0 1 -2.328.594c-1.355 0-2.448-.433-3.282-1.297-.833-.875-1.25-2.13-1.25-3.766zm1.688 0c0 1.24.265 2.172.797 2.797.541.615 1.224.922 2.047.922.812 0 1.49-.307 2.03-.922.543-.625.813-1.573.813-2.844 0-1.198-.27-2.104-.812-2.718-.542-.615-1.219-.922-2.031-.922-.823 0-1.506.307-2.047.922-.532.604-.797 1.526-.797 2.765zm9.297 4.844v-9.672h1.47v1.375c.708-1.062 1.734-1.594 3.077-1.594.584 0 1.12.105 1.61.313s.854.484 1.093.828c.25.333.422.734.516 1.203.063.302.094.833.094 1.594v5.953h-1.64v-5.89c0-.667-.068-1.162-.204-1.485a1.562 1.562 0 0 0 -.672-.797c-.323-.198-.703-.297-1.14-.297-.698 0-1.302.224-1.813.672-.5.438-.75 1.276-.75 2.516v5.281h-1.64z" fill="#000" fill-rule="nonzero"/><path d="m77.291 301h131.213v41.008h-131.214z"/><path d="m96.163 327.92v-13.36h2.656l3.156 9.454c.292.885.505 1.547.64 1.984.157-.49.391-1.203.704-2.14l3.203-9.297h2.375v13.359h-1.703v-11.172l-3.875 11.172h-1.594l-3.86-11.375v11.375zm21.697-1.188c-.615.51-1.203.875-1.766 1.094a5.049 5.049 0 0 1 -1.797.313c-1.062 0-1.88-.26-2.453-.782-.573-.52-.86-1.182-.86-1.984 0-.48.11-.911.329-1.297.219-.396.5-.708.844-.937.354-.24.75-.422 1.187-.547.313-.083.797-.167 1.453-.25 1.323-.156 2.297-.344 2.922-.563.01-.229.016-.37.016-.422 0-.666-.157-1.14-.469-1.421-.417-.365-1.042-.547-1.875-.547-.77 0-1.339.135-1.703.406-.365.27-.636.745-.813 1.422l-1.609-.219c.146-.677.385-1.224.719-1.64.333-.428.817-.756 1.453-.985.635-.23 1.364-.344 2.187-.344.834 0 1.506.1 2.016.297.52.188.901.433 1.14.735.25.291.422.661.516 1.109.052.281.078.786.078 1.516v2.187c0 1.52.037 2.484.11 2.89.073.397.208.782.406 1.157h-1.703a3.222 3.222 0 0 1 -.328-1.188zm-.14-3.671c-.595.25-1.485.458-2.673.625-.677.093-1.156.203-1.437.328-.282.125-.5.302-.657.531-.145.23-.218.49-.218.781 0 .438.166.802.5 1.094.333.292.817.437 1.453.437.625 0 1.182-.135 1.672-.406.5-.281.864-.661 1.093-1.14.178-.375.266-.922.266-1.641v-.61zm4.203-6.61v-1.89h1.64v1.89zm0 11.469v-9.672h1.64v9.672zm4.145 0v-9.672h1.469v1.375c.708-1.062 1.734-1.594 3.078-1.594.583 0 1.12.105 1.609.313.49.208.854.484 1.094.828.25.333.422.734.515 1.203.063.302.094.833.094 1.594v5.953h-1.64v-5.89c0-.667-.068-1.162-.204-1.485a1.562 1.562 0 0 0 -.671-.797c-.323-.198-.704-.297-1.141-.297-.698 0-1.302.224-1.813.672-.5.438-.75 1.276-.75 2.516v5.281zm19.168 0v-11.781h-4.406v-1.578h10.578v1.578h-4.406v11.781zm7.787 0v-13.36h1.64v4.797c.76-.885 1.724-1.328 2.891-1.328.719 0 1.339.141 1.86.422.53.281.91.672 1.14 1.172s.344 1.224.344 2.172v6.125h-1.64v-6.125c0-.823-.178-1.422-.532-1.797s-.86-.562-1.516-.562c-.479 0-.932.13-1.36.39a2.17 2.17 0 0 0 -.921 1.016c-.177.427-.266 1.02-.266 1.781v5.297zm10.36 0v-9.672h1.469v1.469c.375-.688.718-1.14 1.03-1.36a1.855 1.855 0 0 1 1.063-.328c.552 0 1.115.177 1.688.532l-.563 1.515c-.406-.24-.807-.36-1.203-.36-.364 0-.687.11-.969.329a1.827 1.827 0 0 0 -.609.89 6.253 6.253 0 0 0 -.281 1.922v5.063zm12.853-3.11 1.688.204c-.271.99-.766 1.76-1.485 2.312-.718.542-1.64.813-2.765.813-1.417 0-2.542-.433-3.375-1.297-.823-.875-1.235-2.1-1.235-3.672 0-1.635.417-2.901 1.25-3.797.844-.896 1.933-1.344 3.266-1.344 1.292 0 2.344.443 3.156 1.328.823.875 1.235 2.11 1.235 3.704v.437h-7.22c.063 1.063.365 1.88.907 2.453.542.563 1.214.844 2.016.844.604 0 1.12-.156 1.547-.469.427-.323.765-.828 1.015-1.515zm-5.39-2.656h5.406c-.073-.812-.281-1.422-.625-1.828-.521-.635-1.198-.953-2.031-.953-.75 0-1.386.255-1.907.766-.51.5-.791 1.172-.843 2.015zm15.453 4.578c-.614.51-1.203.875-1.765 1.094a5.049 5.049 0 0 1 -1.797.313c-1.063 0-1.88-.26-2.453-.782-.573-.52-.86-1.182-.86-1.984 0-.48.11-.911.329-1.297.218-.396.5-.708.843-.937.354-.24.75-.422 1.188-.547.312-.083.797-.167 1.453-.25 1.323-.156 2.297-.344 2.922-.563.01-.229.015-.37.015-.422 0-.666-.156-1.14-.468-1.421-.417-.365-1.042-.547-1.875-.547-.771 0-1.339.135-1.703.406-.365.27-.636.745-.813 1.422l-1.61-.219c.146-.677.386-1.224.72-1.64.333-.428.817-.756 1.453-.985.635-.23 1.364-.344 2.187-.344.833 0 1.505.1 2.016.297.52.188.9.433 1.14.735.25.291.422.661.516 1.109.052.281.078.786.078 1.516v2.187c0 1.52.036 2.484.11 2.89.072.397.208.782.406 1.157h-1.703a3.222 3.222 0 0 1 -.329-1.188zm-.14-3.671c-.594.25-1.485.458-2.672.625-.677.093-1.156.203-1.438.328-.28.125-.5.302-.656.531-.146.23-.219.49-.219.781 0 .438.167.802.5 1.094.334.292.818.437 1.454.437.625 0 1.182-.135 1.671-.406.5-.281.865-.661 1.094-1.14.177-.375.266-.922.266-1.641v-.61zm10.47 4.859v-1.219c-.605.959-1.506 1.438-2.704 1.438-.77 0-1.48-.214-2.125-.64-.646-.428-1.146-1.022-1.5-1.782s-.531-1.636-.531-2.625c0-.969.161-1.844.484-2.625.323-.792.802-1.396 1.438-1.813a3.92 3.92 0 0 1 2.172-.625c.583 0 1.099.125 1.546.375.459.24.829.558 1.11.953v-4.796h1.64v13.359zm-5.173-4.828c0 1.24.26 2.167.782 2.781.52.615 1.135.922 1.843.922.72 0 1.328-.292 1.828-.875.5-.594.75-1.49.75-2.688 0-1.322-.255-2.291-.765-2.906-.51-.625-1.14-.937-1.89-.937-.72 0-1.324.297-1.813.89-.49.594-.735 1.532-.735 2.813z" fill="#000" fill-rule="nonzero"/><path d="m40 188.984h170.016v61.008h-170.016z"/><path d="m72.268 211.607 1.656-.14c.083.666.266 1.213.547 1.64.292.427.74.776 1.344 1.047.614.26 1.302.39 2.062.39.667 0 1.26-.098 1.781-.296s.907-.469 1.157-.812c.25-.355.375-.74.375-1.157a1.7 1.7 0 0 0 -.375-1.093c-.24-.313-.636-.579-1.188-.797-.364-.136-1.161-.35-2.39-.641-1.22-.302-2.073-.583-2.563-.844-.646-.333-1.125-.745-1.437-1.234a3.09 3.09 0 0 1 -.47-1.672c0-.667.193-1.292.579-1.875.385-.594.943-1.042 1.672-1.344.74-.302 1.557-.453 2.453-.453.99 0 1.86.162 2.61.485.76.312 1.343.78 1.75 1.406.406.614.624 1.312.656 2.094l-1.688.125c-.094-.844-.406-1.48-.937-1.907-.521-.437-1.292-.656-2.313-.656-1.073 0-1.854.198-2.344.594s-.734.87-.734 1.422c0 .479.177.87.531 1.172.333.312 1.219.635 2.656.968 1.438.323 2.422.604 2.954.844.78.354 1.354.807 1.718 1.36.375.551.563 1.187.563 1.906 0 .708-.203 1.38-.61 2.015-.406.625-.99 1.115-1.75 1.469-.76.344-1.62.516-2.578.516-1.208 0-2.224-.177-3.047-.532a4.315 4.315 0 0 1 -1.921-1.593c-.459-.709-.698-1.51-.72-2.407zm19.146.75 1.61.22c-.177 1.103-.63 1.973-1.36 2.609-.718.625-1.609.937-2.671.937-1.323 0-2.386-.432-3.188-1.297-.802-.864-1.203-2.104-1.203-3.719 0-1.052.172-1.968.516-2.75.343-.78.87-1.364 1.578-1.75a4.662 4.662 0 0 1 2.312-.593c1.052 0 1.912.265 2.578.797.667.53 1.094 1.286 1.282 2.265l-1.594.235c-.156-.646-.427-1.13-.813-1.454-.385-.333-.849-.5-1.39-.5-.823 0-1.495.297-2.016.891-.52.594-.781 1.531-.781 2.813 0 1.302.25 2.25.75 2.843.5.584 1.15.875 1.953.875.646 0 1.182-.198 1.61-.593.437-.396.713-1.006.827-1.829zm3 3.547v-9.672h1.47v1.47c.374-.688.718-1.141 1.03-1.36a1.855 1.855 0 0 1 1.063-.328c.552 0 1.115.177 1.687.53l-.562 1.517c-.406-.24-.807-.36-1.203-.36-.365 0-.688.11-.969.328a1.827 1.827 0 0 0 -.61.89 6.253 6.253 0 0 0 -.28 1.923v5.062zm6.229-11.468v-1.891h1.64v1.89h-1.64zm0 11.468v-9.672h1.64v9.672zm4.145 3.703v-13.375h1.484v1.25c.354-.49.75-.854 1.187-1.093.448-.25.99-.375 1.625-.375.823 0 1.547.213 2.172.64.636.417 1.115 1.016 1.438 1.797.323.771.484 1.62.484 2.547 0 .99-.177 1.88-.531 2.672s-.87 1.4-1.547 1.828a4.02 4.02 0 0 1 -2.14.625 3.117 3.117 0 0 1 -1.47-.344 3.155 3.155 0 0 1 -1.062-.875v4.703zm1.484-8.484c0 1.24.25 2.161.75 2.766.51.593 1.12.89 1.828.89.73 0 1.354-.307 1.875-.922.52-.625.781-1.583.781-2.875 0-1.229-.255-2.15-.765-2.765-.5-.615-1.104-.922-1.813-.922-.698 0-1.317.328-1.86.984-.53.646-.796 1.594-.796 2.844zm12.47 3.313.234 1.453c-.459.093-.87.14-1.235.14-.593 0-1.057-.093-1.39-.281a1.606 1.606 0 0 1 -.688-.734c-.135-.313-.203-.959-.203-1.938v-5.578h-1.203v-1.266h1.203v-2.39l1.625-.985v3.375h1.656v1.266h-1.656v5.672c0 .458.026.755.078.89a.78.78 0 0 0 .282.329c.135.073.328.109.578.109.177 0 .416-.02.718-.062zm6.397-2.829 1.657-.14c.083.666.265 1.213.546 1.64.292.427.74.776 1.344 1.047.615.26 1.302.39 2.063.39.666 0 1.26-.098 1.78-.296.522-.198.907-.469 1.157-.812.25-.355.375-.74.375-1.157a1.7 1.7 0 0 0 -.375-1.093c-.24-.313-.635-.579-1.187-.797-.365-.136-1.162-.35-2.39-.641-1.22-.302-2.074-.583-2.563-.844-.646-.333-1.125-.745-1.438-1.234a3.09 3.09 0 0 1 -.469-1.672c0-.667.193-1.292.578-1.875.386-.594.943-1.042 1.672-1.344.74-.302 1.558-.453 2.453-.453.99 0 1.86.162 2.61.485.76.312 1.344.78 1.75 1.406.406.614.625 1.312.656 2.094l-1.687.125c-.094-.844-.407-1.48-.938-1.907-.52-.437-1.292-.656-2.312-.656-1.073 0-1.855.198-2.344.594-.49.396-.735.87-.735 1.422 0 .479.178.87.532 1.172.333.312 1.218.635 2.656.968 1.437.323 2.422.604 2.953.844.781.354 1.354.807 1.719 1.36.375.551.562 1.187.562 1.906 0 .708-.203 1.38-.61 2.015-.405.625-.989 1.115-1.75 1.469-.76.344-1.619.516-2.577.516-1.209 0-2.224-.177-3.047-.532a4.315 4.315 0 0 1 -1.922-1.593c-.458-.709-.698-1.51-.719-2.407zm16.413 2.829.234 1.453c-.458.093-.87.14-1.234.14-.594 0-1.058-.093-1.391-.281a1.606 1.606 0 0 1 -.687-.734c-.136-.313-.204-.959-.204-1.938v-5.578h-1.203v-1.266h1.203v-2.39l1.625-.985v3.375h1.657v1.266h-1.657v5.672c0 .458.026.755.079.89a.78.78 0 0 0 .28.329c.136.073.329.109.579.109.177 0 .417-.02.719-.062zm1.59 1.468v-9.672h1.468v1.47c.375-.688.719-1.141 1.031-1.36a1.855 1.855 0 0 1 1.063-.328c.552 0 1.114.177 1.687.53l-.562 1.517c-.407-.24-.808-.36-1.203-.36-.365 0-.688.11-.97.328a1.827 1.827 0 0 0 -.609.89 6.253 6.253 0 0 0 -.28 1.923v5.062h-1.626zm12.852-3.11 1.688.204c-.27.99-.766 1.76-1.484 2.313-.72.541-1.641.812-2.766.812-1.417 0-2.542-.432-3.375-1.297-.823-.875-1.234-2.099-1.234-3.672 0-1.635.416-2.9 1.25-3.797.843-.895 1.932-1.343 3.265-1.343 1.292 0 2.344.442 3.156 1.328.823.875 1.235 2.11 1.235 3.703v.437h-7.219c.063 1.063.365 1.88.906 2.454.542.562 1.214.843 2.016.843.604 0 1.12-.156 1.547-.468.427-.323.765-.829 1.015-1.516zm-5.39-2.655h5.406c-.073-.813-.281-1.422-.625-1.828-.52-.636-1.198-.954-2.031-.954-.75 0-1.386.256-1.906.766-.51.5-.792 1.172-.844 2.016zm15.454 4.578c-.615.51-1.203.875-1.766 1.094a5.049 5.049 0 0 1 -1.797.312c-1.062 0-1.88-.26-2.453-.781s-.86-1.183-.86-1.985c0-.479.11-.911.329-1.296.219-.396.5-.709.844-.938.354-.24.75-.422 1.187-.547.313-.083.797-.167 1.453-.25 1.323-.156 2.297-.344 2.922-.562.01-.23.016-.37.016-.422 0-.667-.157-1.14-.469-1.422-.417-.365-1.042-.547-1.875-.547-.77 0-1.339.135-1.703.406-.365.271-.636.745-.813 1.422l-1.609-.219c.146-.677.385-1.224.719-1.64.333-.427.817-.755 1.453-.985.635-.229 1.364-.343 2.187-.343.834 0 1.506.099 2.016.297.52.187.901.432 1.14.734.25.292.422.661.516 1.11.052.28.078.786.078 1.515v2.187c0 1.521.037 2.485.11 2.891.073.396.208.781.406 1.156h-1.703a3.222 3.222 0 0 1 -.328-1.187zm-.14-3.672c-.595.25-1.485.458-2.673.625-.677.094-1.156.203-1.437.328-.282.125-.5.302-.657.531-.145.23-.218.49-.218.782 0 .437.166.802.5 1.093.333.292.817.438 1.453.438.625 0 1.182-.136 1.672-.406.5-.282.864-.662 1.093-1.141.178-.375.266-.922.266-1.64v-.61zm4.203 4.86v-9.673h1.469v1.36c.302-.48.703-.86 1.203-1.14a3.402 3.402 0 0 1 1.719-.438c.718 0 1.307.15 1.765.453.459.291.781.703.969 1.234.77-1.125 1.766-1.687 2.984-1.687.969 0 1.709.265 2.219.797.52.53.781 1.348.781 2.453v6.64h-1.64v-6.093c0-.657-.052-1.125-.157-1.407a1.357 1.357 0 0 0 -.578-.703 1.808 1.808 0 0 0 -.984-.265c-.677 0-1.24.229-1.688.687-.447.448-.671 1.167-.671 2.156v5.625h-1.641v-6.281c0-.73-.135-1.276-.406-1.64-.271-.365-.709-.547-1.313-.547-.458 0-.885.12-1.281.359-.396.24-.682.594-.86 1.062-.166.47-.25 1.146-.25 2.032v5.015h-1.64zm22.166-3.11 1.687.203c-.27.99-.765 1.76-1.484 2.313-.719.541-1.64.812-2.766.812-1.416 0-2.541-.432-3.375-1.297-.823-.875-1.234-2.099-1.234-3.672 0-1.635.417-2.9 1.25-3.797.844-.895 1.932-1.343 3.265-1.343 1.292 0 2.344.442 3.157 1.328.823.875 1.234 2.11 1.234 3.703v.437h-7.219c.063 1.063.365 1.88.907 2.454.541.562 1.213.843 2.015.843.604 0 1.12-.156 1.547-.468.427-.323.766-.829 1.016-1.516zm-5.39-2.656h5.405c-.073-.813-.28-1.422-.625-1.828-.52-.636-1.198-.954-2.03-.954-.75 0-1.386.256-1.907.766-.51.5-.792 1.172-.844 2.016zm9.125 5.765v-9.672h1.469v1.47c.375-.688.718-1.141 1.03-1.36a1.855 1.855 0 0 1 1.063-.328c.552 0 1.115.177 1.688.53l-.563 1.517c-.406-.24-.807-.36-1.203-.36-.364 0-.687.11-.969.328a1.827 1.827 0 0 0 -.609.89 6.253 6.253 0 0 0 -.281 1.923v5.062zm-49.274 22v-11.781h-4.406v-1.578h10.578v1.578h-4.406v11.781zm7.787 0v-13.36h1.64v4.798c.76-.886 1.724-1.328 2.89-1.328.72 0 1.34.14 1.86.421.531.282.912.672 1.14 1.172.23.5.345 1.224.345 2.172v6.125h-1.641v-6.125c0-.823-.177-1.422-.531-1.797s-.86-.562-1.516-.562c-.48 0-.932.13-1.36.39a2.17 2.17 0 0 0 -.921 1.016c-.177.427-.266 1.021-.266 1.781v5.297zm10.36 0v-9.672h1.468v1.47c.375-.688.72-1.142 1.032-1.36a1.855 1.855 0 0 1 1.062-.328c.552 0 1.115.177 1.688.53l-.563 1.516c-.406-.24-.807-.359-1.203-.359-.365 0-.687.11-.969.328a1.827 1.827 0 0 0 -.61.89 6.253 6.253 0 0 0 -.28 1.923v5.062zm12.853-3.11 1.687.204c-.27.99-.765 1.76-1.484 2.313-.719.541-1.64.812-2.766.812-1.416 0-2.541-.432-3.375-1.297-.822-.875-1.234-2.099-1.234-3.672 0-1.635.417-2.9 1.25-3.797.844-.895 1.932-1.343 3.266-1.343 1.291 0 2.343.442 3.156 1.328.823.875 1.234 2.11 1.234 3.703v.437h-7.218c.062 1.063.364 1.88.906 2.453.542.563 1.213.844 2.015.844.605 0 1.12-.156 1.547-.469.427-.322.766-.828 1.016-1.515zm-5.39-2.655h5.406c-.073-.813-.282-1.422-.625-1.829-.521-.635-1.198-.953-2.032-.953-.75 0-1.385.256-1.906.766-.51.5-.792 1.172-.844 2.016zm15.453 4.578c-.614.51-1.203.875-1.765 1.093a5.049 5.049 0 0 1 -1.797.313c-1.063 0-1.88-.26-2.453-.781s-.86-1.183-.86-1.985c0-.479.11-.911.328-1.297.22-.395.5-.708.844-.937.354-.24.75-.422 1.188-.547.312-.083.796-.167 1.453-.25 1.323-.156 2.297-.344 2.922-.562.01-.23.015-.37.015-.422 0-.667-.156-1.14-.469-1.422-.416-.365-1.041-.547-1.875-.547-.77 0-1.338.135-1.703.406-.364.271-.635.745-.812 1.422l-1.61-.219c.146-.677.386-1.224.72-1.64.333-.427.817-.755 1.452-.985.636-.229 1.365-.343 2.188-.343.833 0 1.505.099 2.015.296.521.188.901.433 1.141.735.25.292.422.661.516 1.11.052.28.078.786.078 1.515v2.187c0 1.521.036 2.485.11 2.891.072.396.208.781.405 1.156h-1.703a3.222 3.222 0 0 1 -.328-1.187zm-.14-3.672c-.594.25-1.485.458-2.672.625-.677.094-1.157.203-1.438.328s-.5.302-.656.531c-.146.23-.219.49-.219.781 0 .438.167.803.5 1.094.334.292.818.438 1.453.438.625 0 1.183-.136 1.672-.407.5-.28.865-.661 1.094-1.14.177-.375.266-.922.266-1.64zm10.469 4.86v-1.22c-.604.959-1.505 1.438-2.703 1.438-.77 0-1.48-.214-2.125-.64-.646-.428-1.146-1.021-1.5-1.782-.354-.76-.531-1.635-.531-2.625 0-.969.161-1.844.484-2.625.323-.792.802-1.396 1.438-1.812a3.92 3.92 0 0 1 2.171-.625c.584 0 1.1.125 1.547.375.459.24.828.557 1.11.953v-4.797h1.64v13.36zm-5.172-4.829c0 1.24.26 2.167.781 2.781.521.615 1.136.922 1.844.922.719 0 1.328-.291 1.828-.875.5-.594.75-1.49.75-2.687 0-1.323-.255-2.292-.765-2.907-.51-.625-1.141-.937-1.891-.937-.719 0-1.323.297-1.812.89-.49.594-.735 1.532-.735 2.813z" fill="#000" fill-rule="nonzero"/><path d="m537.551 301h111.024v41.008h-111.025z" fill="#ea9999"/><path d="m537.551 301h111.024v41.008h-111.025z" stroke="#000" stroke-linejoin="round"/><path d="m560.827 328.424v-13.36h9.656v1.579h-7.875v4.093h7.375v1.563h-7.375v4.547h8.187v1.578zm11.115 0 3.531-5.031-3.265-4.64h2.047l1.484 2.265c.281.427.505.786.672 1.078.27-.396.515-.75.734-1.063l1.64-2.28h1.954l-3.344 4.546 3.594 5.125h-2.016l-1.984-3-.516-.813-2.547 3.813zm17.047-3.11 1.687.204c-.27.99-.765 1.76-1.484 2.312-.719.542-1.64.813-2.766.813-1.416 0-2.541-.433-3.375-1.297-.822-.875-1.234-2.1-1.234-3.672 0-1.635.417-2.901 1.25-3.797.844-.896 1.932-1.344 3.266-1.344 1.291 0 2.343.443 3.156 1.328.823.875 1.234 2.11 1.234 3.704v.437h-7.218c.062 1.063.364 1.88.906 2.453.541.563 1.213.844 2.015.844.605 0 1.12-.156 1.547-.469.427-.323.766-.828 1.016-1.515zm-5.39-2.656h5.406c-.073-.812-.282-1.422-.625-1.828-.521-.635-1.198-.953-2.032-.953-.75 0-1.385.255-1.906.766-.51.5-.792 1.172-.844 2.015zm15.453 2.22 1.61.218c-.178 1.104-.63 1.974-1.36 2.61-.719.624-1.61.937-2.672.937-1.323 0-2.385-.433-3.187-1.297-.802-.865-1.203-2.104-1.203-3.719 0-1.052.171-1.969.515-2.75s.87-1.365 1.578-1.75a4.662 4.662 0 0 1 2.313-.594c1.052 0 1.911.266 2.578.797s1.094 1.287 1.281 2.266l-1.594.234c-.156-.646-.427-1.13-.812-1.453-.385-.333-.849-.5-1.39-.5-.824 0-1.495.297-2.016.89-.521.594-.782 1.532-.782 2.813 0 1.302.25 2.25.75 2.844.5.583 1.152.875 1.954.875.645 0 1.182-.198 1.609-.594.437-.396.714-1.005.828-1.828zm9.344 3.546v-1.422c-.75 1.094-1.771 1.64-3.063 1.64a3.97 3.97 0 0 1 -1.609-.327c-.49-.22-.854-.495-1.094-.829-.24-.333-.406-.74-.5-1.218-.073-.313-.11-.823-.11-1.532v-5.984h1.641v5.36c0 .854.037 1.432.11 1.734.104.427.323.765.656 1.015s.745.375 1.234.375c.49 0 .948-.125 1.375-.375.438-.26.745-.604.922-1.03.177-.438.266-1.069.266-1.891v-5.188h1.64v9.672zm7.626-1.469.234 1.453c-.458.094-.87.14-1.234.14-.594 0-1.058-.093-1.391-.28a1.606 1.606 0 0 1 -.688-.735c-.135-.312-.203-.958-.203-1.937v-5.578h-1.203v-1.266h1.203v-2.39l1.625-.985v3.375h1.657v1.266h-1.657v5.672c0 .458.026.755.078.89a.78.78 0 0 0 .282.328c.135.073.328.11.578.11.177 0 .417-.021.719-.063zm8.23-1.64 1.687.203c-.27.99-.765 1.76-1.484 2.312-.719.542-1.64.813-2.766.813-1.416 0-2.541-.433-3.375-1.297-.823-.875-1.234-2.1-1.234-3.672 0-1.635.417-2.901 1.25-3.797.844-.896 1.932-1.344 3.266-1.344 1.291 0 2.343.443 3.156 1.328.823.875 1.234 2.11 1.234 3.704v.437h-7.219c.063 1.063.365 1.88.907 2.453.541.563 1.213.844 2.015.844.604 0 1.12-.156 1.547-.469.427-.323.766-.828 1.016-1.515zm-5.39-2.657h5.405c-.073-.812-.28-1.422-.625-1.828-.52-.635-1.198-.953-2.03-.953-.75 0-1.386.255-1.907.766-.51.5-.792 1.172-.844 2.015z" fill="#000" fill-rule="nonzero"/><path d="m213 179v204"/><path d="m213 179v204" stroke="#000" stroke-dasharray="8" stroke-linejoin="round"/><path d="m774 185.984v204"/><path d="m774 185.984v204" stroke="#000" stroke-dasharray="8" stroke-linejoin="round"/><path d="m447.488 117.992h136.22v61.008h-136.22z"/><path d="m470.802 157.712v-22.906h8.593c1.75 0 3.151.234 4.203.703a5.305 5.305 0 0 1 2.485 2.14c.604.959.906 1.964.906 3.016 0 .98-.266 1.901-.797 2.766-.531.864-1.333 1.562-2.406 2.094 1.385.406 2.448 1.099 3.187 2.078.75.979 1.125 2.135 1.125 3.469 0 1.072-.229 2.072-.687 3-.448.916-1.005 1.625-1.672 2.125s-1.505.88-2.516 1.14c-1 .25-2.229.375-3.687.375zm3.03-13.281h4.954c1.344 0 2.307-.089 2.89-.266.771-.229 1.35-.61 1.735-1.14.396-.532.594-1.198.594-2 0-.76-.183-1.427-.547-2a2.724 2.724 0 0 0 -1.563-1.188c-.677-.219-1.838-.328-3.484-.328h-4.578v6.922zm0 10.578h5.704c.98 0 1.667-.036 2.062-.11.698-.124 1.282-.333 1.75-.624.47-.292.855-.714 1.157-1.266.302-.562.453-1.208.453-1.937 0-.855-.219-1.594-.656-2.22-.438-.635-1.047-1.077-1.829-1.327-.77-.26-1.885-.391-3.343-.391h-5.297v7.875zm29.438-2.64 2.907.359c-.459 1.698-1.308 3.015-2.547 3.953-1.24.937-2.823 1.406-4.75 1.406-2.427 0-4.355-.745-5.782-2.234-1.416-1.5-2.125-3.6-2.125-6.297 0-2.792.72-4.958 2.157-6.5s3.302-2.313 5.593-2.313c2.22 0 4.032.756 5.438 2.266s2.11 3.635 2.11 6.375c0 .167-.006.417-.016.75h-12.375c.104 1.823.62 3.219 1.547 4.188.927.968 2.083 1.453 3.468 1.453 1.032 0 1.912-.271 2.64-.813.73-.542 1.308-1.406 1.735-2.594zm-9.234-4.547h9.266c-.125-1.396-.48-2.443-1.063-3.141-.896-1.083-2.057-1.625-3.484-1.625-1.292 0-2.38.432-3.266 1.297-.875.864-1.36 2.02-1.453 3.469zm16.344 9.89v-14.406h-2.485v-2.188h2.485v-1.765c0-1.115.099-1.943.297-2.485.27-.729.744-1.317 1.421-1.765.688-.459 1.646-.688 2.875-.688.792 0 1.667.094 2.625.282l-.421 2.453a9.438 9.438 0 0 0 -1.657-.157c-.854 0-1.458.183-1.812.547-.354.365-.531 1.047-.531 2.047v1.531h3.234v2.188h-3.234v14.406zm7.172-8.297c0-3.073.854-5.349 2.562-6.828 1.427-1.229 3.167-1.844 5.219-1.844 2.281 0 4.146.75 5.594 2.25 1.447 1.49 2.171 3.552 2.171 6.188 0 2.135-.322 3.818-.968 5.047-.636 1.219-1.568 2.166-2.797 2.844-1.219.677-2.552 1.015-4 1.015-2.323 0-4.203-.745-5.64-2.234-1.428-1.49-2.141-3.636-2.141-6.438zm2.89 0c0 2.125.464 3.719 1.39 4.782.928 1.052 2.095 1.578 3.5 1.578 1.397 0 2.558-.532 3.485-1.594.927-1.063 1.39-2.682 1.39-4.86 0-2.052-.468-3.604-1.405-4.656-.928-1.062-2.084-1.593-3.47-1.593-1.405 0-2.572.526-3.5 1.578-.926 1.052-1.39 2.64-1.39 4.765zm15.922 8.297v-16.594h2.531v2.516c.646-1.177 1.24-1.953 1.782-2.328a3.159 3.159 0 0 1 1.812-.563c.948 0 1.912.302 2.89.907l-.968 2.609c-.688-.406-1.375-.61-2.063-.61-.614 0-1.166.188-1.656.563-.49.365-.838.875-1.047 1.531-.312 1-.468 2.094-.468 3.282v8.687zm22.047-5.344 2.906.36c-.458 1.698-1.307 3.015-2.547 3.953-1.24.937-2.823 1.406-4.75 1.406-2.427 0-4.354-.745-5.78-2.234-1.418-1.5-2.126-3.6-2.126-6.297 0-2.792.719-4.958 2.156-6.5 1.438-1.542 3.302-2.313 5.594-2.313 2.219 0 4.031.756 5.438 2.266 1.406 1.51 2.109 3.635 2.109 6.375 0 .167-.005.417-.016.75h-12.375c.104 1.823.62 3.219 1.547 4.188.927.968 2.084 1.453 3.469 1.453 1.031 0 1.911-.271 2.64-.813.73-.542 1.308-1.406 1.735-2.594zm-9.234-4.546h9.265c-.125-1.396-.479-2.443-1.062-3.141-.896-1.083-2.058-1.625-3.485-1.625-1.291 0-2.38.432-3.265 1.297-.875.864-1.36 2.02-1.453 3.469z" fill="#000" fill-rule="nonzero"/><path d="m800 301h28v41.008h-28z" fill="#cfe2f3"/><path d="m800 301h28v41.008h-28z" stroke="#000" stroke-linejoin="round"/><path d="m828 301-1.008-61.008"/><path d="m828 301-.909-55.009" stroke="#000" stroke-linejoin="round"/><path d="m828.743 245.964-1.727-4.51-1.576 4.565z" fill="#000" stroke="#000"/><path d="m826.992 198.984h111.024v41.008h-111.024z" fill="#fce5cd"/><path d="m826.992 198.984h111.024v41.008h-111.024z" stroke="#000" stroke-linejoin="round"/><path d="m859.574 226.408v-13.36h5.046c.886 0 1.563.042 2.032.126.646.114 1.192.328 1.64.64.448.303.808.73 1.078 1.282.271.552.407 1.161.407 1.828 0 1.135-.365 2.099-1.094 2.89-.719.782-2.026 1.172-3.922 1.172h-3.422v5.422zm1.765-7h3.453c1.146 0 1.959-.213 2.438-.64.479-.428.719-1.026.719-1.797 0-.563-.141-1.042-.422-1.438a1.96 1.96 0 0 0 -1.125-.781c-.292-.083-.839-.125-1.641-.125h-3.422zm16.787 5.813c-.614.51-1.203.875-1.765 1.093a5.049 5.049 0 0 1 -1.797.313c-1.063 0-1.88-.26-2.453-.781s-.86-1.183-.86-1.985c0-.479.11-.911.329-1.297.218-.395.5-.708.843-.937.355-.24.75-.422 1.188-.547.312-.083.797-.167 1.453-.25 1.323-.156 2.297-.344 2.922-.562.01-.23.015-.37.015-.422 0-.667-.156-1.14-.468-1.422-.417-.365-1.042-.547-1.875-.547-.771 0-1.339.135-1.703.406-.365.271-.636.745-.813 1.422l-1.61-.219c.147-.677.386-1.224.72-1.64.333-.427.817-.756 1.453-.985.635-.229 1.364-.343 2.187-.343.833 0 1.505.099 2.016.296.52.188.9.433 1.14.735.25.291.422.661.516 1.11.052.28.078.786.078 1.515v2.187c0 1.521.037 2.485.11 2.89.072.397.208.782.406 1.157h-1.703a3.222 3.222 0 0 1 -.329-1.187zm-.14-3.672c-.594.25-1.485.458-2.672.625-.677.094-1.156.203-1.438.328-.28.125-.5.302-.656.531-.146.23-.219.49-.219.781 0 .438.167.803.5 1.094.334.292.818.438 1.454.438.625 0 1.182-.136 1.671-.407.5-.28.865-.661 1.094-1.14.177-.375.266-.922.266-1.64zm4.188 4.86v-9.673h1.469v1.47c.375-.688.719-1.142 1.031-1.36a1.855 1.855 0 0 1 1.063-.328c.552 0 1.114.177 1.687.53l-.562 1.516c-.407-.24-.808-.359-1.204-.359-.364 0-.687.11-.968.328a1.827 1.827 0 0 0 -.61.89 6.253 6.253 0 0 0 -.28 1.923v5.062h-1.626zm5.572-2.891 1.625-.25c.083.645.333 1.145.75 1.5.417.343 1 .515 1.75.515s1.307-.15 1.672-.453c.365-.312.547-.677.547-1.094 0-.364-.162-.656-.485-.875-.218-.146-.776-.328-1.671-.547-1.209-.312-2.047-.578-2.516-.796-.458-.22-.807-.521-1.047-.907a2.486 2.486 0 0 1 -.36-1.312c0-.427.1-.823.298-1.188.198-.375.468-.682.812-.922.25-.187.594-.343 1.031-.468a4.888 4.888 0 0 1 1.422-.203c.76 0 1.427.109 2 .328.573.218.995.515 1.266.89.281.375.474.875.578 1.5l-1.61.22c-.072-.5-.286-.892-.64-1.173-.344-.281-.833-.422-1.469-.422-.76 0-1.302.125-1.625.375-.312.25-.469.542-.469.875 0 .209.063.401.188.578.135.178.349.323.64.438.157.062.636.203 1.438.422 1.167.302 1.98.552 2.438.75s.817.484 1.078.86c.26.374.39.843.39 1.405 0 .553-.161 1.068-.484 1.547-.313.48-.77.854-1.375 1.125-.604.26-1.286.39-2.047.39-1.25 0-2.208-.26-2.875-.78-.656-.521-1.073-1.297-1.25-2.328zm16.61-.22 1.687.204c-.27.99-.766 1.76-1.484 2.312-.72.542-1.641.813-2.766.813-1.417 0-2.542-.432-3.375-1.297-.823-.875-1.234-2.099-1.234-3.672 0-1.635.416-2.9 1.25-3.797.843-.896 1.932-1.343 3.265-1.343 1.292 0 2.344.442 3.156 1.328.823.875 1.235 2.11 1.235 3.703v.437h-7.219c.063 1.063.365 1.88.906 2.453.542.563 1.214.844 2.016.844.604 0 1.12-.156 1.547-.469.427-.322.765-.828 1.015-1.515zm-5.391-2.655h5.406c-.073-.813-.281-1.422-.625-1.829-.52-.635-1.198-.953-2.031-.953-.75 0-1.386.256-1.906.766-.51.5-.792 1.172-.844 2.016z" fill="#000" fill-rule="nonzero"/><path d="m1049.047 239.488v62.016"/><path d="m1049.047 239.488v56.016" stroke="#000" stroke-linejoin="round"/><path d="m1047.396 295.504 1.651 4.538 1.652-4.538z" fill="#000" stroke="#000"/><path d="m1049.274 301h28v41.008h-28z" fill="#cfe2f3"/><path d="m1049.274 301h28v41.008h-28z" stroke="#000" stroke-linejoin="round"/><path d="m938.024 198.984h111.023v41.008h-111.023z" fill="#d9ead3"/><path d="m938.024 198.984h111.023v41.008h-111.023z" stroke="#000" stroke-linejoin="round"/><path d="m970.289 221.72 1.766.454c-.375 1.448-1.042 2.557-2 3.328-.959.76-2.136 1.14-3.532 1.14-1.437 0-2.61-.291-3.515-.874-.896-.594-1.584-1.443-2.063-2.547a9.175 9.175 0 0 1 -.703-3.594c0-1.385.266-2.594.797-3.625.531-1.042 1.286-1.828 2.266-2.36a6.658 6.658 0 0 1 3.25-.812c1.333 0 2.453.339 3.359 1.016.917.677 1.552 1.635 1.906 2.875l-1.734.406c-.313-.969-.766-1.672-1.36-2.11-.583-.447-1.317-.671-2.203-.671-1.03 0-1.89.244-2.578.734-.687.49-1.172 1.151-1.453 1.984a7.869 7.869 0 0 0 -.422 2.563c0 1.135.167 2.125.5 2.969.334.843.85 1.479 1.547 1.906a4.342 4.342 0 0 0 2.266.625c.99 0 1.828-.287 2.515-.86.688-.572 1.151-1.421 1.39-2.546zm3.13-.156c0-1.791.494-3.114 1.483-3.968.834-.72 1.85-1.078 3.047-1.078 1.334 0 2.422.437 3.266 1.312.844.865 1.266 2.068 1.266 3.61 0 1.239-.188 2.218-.563 2.937a3.99 3.99 0 0 1 -1.64 1.656 4.692 4.692 0 0 1 -2.329.594c-1.354 0-2.448-.432-3.28-1.297-.834-.875-1.25-2.13-1.25-3.766zm1.687 0c0 1.24.265 2.172.796 2.797.542.615 1.224.922 2.047.922.813 0 1.49-.307 2.032-.922.541-.625.812-1.573.812-2.843 0-1.198-.27-2.105-.812-2.72-.542-.614-1.22-.921-2.032-.921-.823 0-1.505.307-2.047.922-.53.604-.796 1.526-.796 2.765zm9.297 4.844v-9.672h1.469v1.36c.302-.48.703-.86 1.203-1.14a3.402 3.402 0 0 1 1.719-.438c.719 0 1.307.15 1.765.453.459.291.782.703.97 1.234.77-1.125 1.765-1.687 2.984-1.687.968 0 1.708.265 2.218.796.521.532.782 1.35.782 2.454v6.64h-1.641v-6.094c0-.656-.052-1.125-.156-1.406a1.357 1.357 0 0 0 -.578-.703 1.808 1.808 0 0 0 -.985-.266c-.677 0-1.24.23-1.687.688-.448.448-.672 1.167-.672 2.156v5.625h-1.64v-6.281c0-.73-.136-1.276-.407-1.64-.27-.365-.708-.548-1.313-.548-.458 0-.885.12-1.28.36-.397.24-.683.594-.86 1.062-.167.47-.25 1.146-.25 2.032v5.015h-1.64zm15.541 3.703v-13.375h1.484v1.25c.355-.49.75-.854 1.188-1.093.448-.25.99-.375 1.625-.375.823 0 1.547.213 2.172.64.635.417 1.114 1.016 1.437 1.797.323.77.485 1.62.485 2.547 0 .99-.177 1.88-.532 2.672-.354.791-.87 1.4-1.546 1.828a4.02 4.02 0 0 1 -2.141.625 3.117 3.117 0 0 1 -1.469-.344 3.155 3.155 0 0 1 -1.062-.875v4.703zm1.484-8.484c0 1.24.25 2.161.75 2.766.51.593 1.12.89 1.829.89.729 0 1.354-.307 1.875-.922.52-.625.78-1.583.78-2.875 0-1.229-.254-2.15-.765-2.765-.5-.615-1.104-.922-1.812-.922-.698 0-1.318.328-1.86.984-.531.646-.797 1.594-.797 2.844zm8.892-6.688v-1.89h1.64v1.89zm0 11.47v-9.673h1.64v9.672h-1.64zm4.098 0v-13.36h1.64v13.36zm10.816-3.11 1.688.203c-.271.99-.766 1.76-1.485 2.312-.718.542-1.64.813-2.765.813-1.417 0-2.542-.432-3.375-1.297-.823-.875-1.235-2.099-1.235-3.672 0-1.635.417-2.9 1.25-3.797.844-.896 1.933-1.343 3.266-1.343 1.292 0 2.344.442 3.156 1.328.823.875 1.235 2.11 1.235 3.703v.437h-7.219c.063 1.063.365 1.88.906 2.453.542.563 1.214.844 2.016.844.604 0 1.12-.156 1.547-.469.427-.322.765-.828 1.015-1.515zm-5.39-2.656h5.406c-.073-.813-.281-1.422-.625-1.829-.52-.635-1.198-.953-2.031-.953-.75 0-1.386.256-1.907.766-.51.5-.791 1.172-.843 2.016z" fill="#000" fill-rule="nonzero"/><path d="m1077.551 301h28v41.008h-28z" fill="#cfe2f3"/><path d="m1077.551 301h28v41.008h-28z" stroke="#000" stroke-linejoin="round"/><path d="m776 336h76v61.008h-76z"/><path d="m794.608 362.92v-13.36h1.781v11.782h6.563v1.578zm9.641-4.844c0-1.791.495-3.114 1.485-3.969.833-.718 1.849-1.078 3.047-1.078 1.333 0 2.421.438 3.265 1.313.844.864 1.266 2.068 1.266 3.61 0 1.239-.188 2.218-.563 2.937a3.99 3.99 0 0 1 -1.64 1.656 4.692 4.692 0 0 1 -2.328.594c-1.355 0-2.448-.433-3.282-1.297-.833-.875-1.25-2.13-1.25-3.766zm1.688 0c0 1.24.265 2.172.797 2.797.541.615 1.224.922 2.047.922.812 0 1.49-.307 2.03-.922.542-.625.813-1.573.813-2.844 0-1.198-.27-2.104-.812-2.718-.542-.615-1.219-.922-2.031-.922-.823 0-1.506.307-2.047.922-.532.604-.797 1.526-.797 2.765zm15.61 3.656c-.615.51-1.203.875-1.766 1.094a5.049 5.049 0 0 1 -1.797.313c-1.062 0-1.88-.26-2.453-.782-.573-.52-.86-1.182-.86-1.984 0-.48.11-.911.329-1.297.219-.396.5-.708.844-.937.354-.24.75-.422 1.187-.547.313-.083.797-.167 1.453-.25 1.323-.156 2.297-.344 2.922-.563.01-.229.016-.37.016-.422 0-.666-.156-1.14-.469-1.421-.417-.365-1.042-.547-1.875-.547-.77 0-1.338.135-1.703.406-.365.27-.635.745-.813 1.422l-1.609-.219c.146-.677.386-1.224.719-1.64.333-.428.818-.756 1.453-.985.635-.23 1.365-.344 2.187-.344.834 0 1.506.1 2.016.297.52.188.901.433 1.14.735.25.291.423.661.516 1.109.052.281.078.786.078 1.516v2.187c0 1.52.037 2.484.11 2.89.073.397.208.782.406 1.157h-1.703a3.222 3.222 0 0 1 -.328-1.188zm-.14-3.671c-.595.25-1.485.458-2.673.625-.677.093-1.156.203-1.437.328s-.5.302-.656.531c-.146.23-.22.49-.22.781 0 .438.168.802.5 1.094.334.292.819.437 1.454.437.625 0 1.182-.135 1.672-.406.5-.281.864-.661 1.094-1.14.177-.375.265-.922.265-1.641v-.61zm10.469 4.859v-1.219c-.604.959-1.505 1.438-2.703 1.438-.771 0-1.48-.214-2.125-.64-.646-.428-1.146-1.022-1.5-1.782-.355-.76-.532-1.636-.532-2.625 0-.969.162-1.844.485-2.625.323-.792.802-1.396 1.437-1.813a3.92 3.92 0 0 1 2.172-.625c.583 0 1.1.125 1.547.375.458.24.828.558 1.11.953v-4.796h1.64v13.359zm-5.172-4.828c0 1.24.26 2.167.781 2.781.52.615 1.136.922 1.844.922.719 0 1.328-.292 1.828-.875.5-.594.75-1.49.75-2.688 0-1.322-.255-2.291-.766-2.906-.51-.625-1.14-.937-1.89-.937-.719 0-1.323.297-1.813.89-.49.594-.734 1.532-.734 2.813zm-35.704 22.531 1.656-.14c.083.666.266 1.213.547 1.64.291.427.74.776 1.344 1.047.614.26 1.302.39 2.062.39.667 0 1.26-.098 1.781-.296s.907-.469 1.157-.813c.25-.354.375-.74.375-1.156a1.7 1.7 0 0 0 -.375-1.094c-.24-.312-.636-.578-1.188-.797-.365-.135-1.161-.349-2.39-.64-1.22-.302-2.074-.584-2.563-.844-.646-.333-1.125-.745-1.438-1.234a3.09 3.09 0 0 1 -.468-1.672c0-.667.192-1.292.578-1.875.385-.594.942-1.042 1.672-1.344.74-.302 1.557-.453 2.453-.453.99 0 1.86.161 2.61.484.76.313 1.343.781 1.75 1.406.405.615.624 1.313.655 2.094l-1.687.125c-.094-.844-.406-1.479-.938-1.906-.52-.438-1.291-.656-2.312-.656-1.073 0-1.854.198-2.344.593-.49.396-.734.87-.734 1.422 0 .48.177.87.531 1.172.333.313 1.219.636 2.656.969 1.438.323 2.422.604 2.953.844.782.354 1.355.807 1.72 1.36.374.551.562 1.187.562 1.905 0 .709-.203 1.38-.61 2.016-.406.625-.99 1.115-1.75 1.469-.76.343-1.62.515-2.578.515-1.208 0-2.224-.177-3.047-.53a4.315 4.315 0 0 1 -1.922-1.595c-.458-.708-.698-1.51-.718-2.406zm19.146.75 1.61.219c-.177 1.104-.63 1.974-1.36 2.61-.718.624-1.609.937-2.672.937-1.322 0-2.385-.433-3.187-1.297-.802-.865-1.203-2.104-1.203-3.719 0-1.052.172-1.969.515-2.75.344-.781.87-1.364 1.579-1.75a4.662 4.662 0 0 1 2.312-.594c1.052 0 1.912.266 2.578.797.667.531 1.094 1.287 1.281 2.266l-1.593.234c-.157-.646-.427-1.13-.813-1.453-.385-.333-.849-.5-1.39-.5-.823 0-1.495.297-2.016.89-.52.594-.781 1.532-.781 2.813 0 1.302.25 2.25.75 2.844.5.583 1.15.875 1.953.875.646 0 1.182-.198 1.61-.594.437-.396.713-1.005.827-1.828zm3 3.547v-9.672h1.47v1.469c.374-.688.718-1.14 1.03-1.36a1.855 1.855 0 0 1 1.063-.328c.552 0 1.114.177 1.687.532l-.562 1.515c-.406-.24-.807-.36-1.203-.36-.365 0-.688.11-.969.329a1.827 1.827 0 0 0 -.61.89 6.253 6.253 0 0 0 -.28 1.922v5.063zm6.229-11.469v-1.89h1.64v1.89zm0 11.469v-9.672h1.64v9.672zm4.144 3.703v-13.375h1.485v1.25c.354-.49.75-.854 1.187-1.094.448-.25.99-.375 1.625-.375.823 0 1.547.214 2.172.641.636.417 1.115 1.016 1.438 1.797.323.77.484 1.62.484 2.547 0 .99-.177 1.88-.531 2.672-.354.791-.87 1.4-1.547 1.828a4.02 4.02 0 0 1 -2.14.625 3.117 3.117 0 0 1 -1.47-.344 3.155 3.155 0 0 1 -1.062-.875v4.703h-1.64zm1.485-8.484c0 1.24.25 2.161.75 2.765.51.594 1.12.891 1.828.891.73 0 1.354-.307 1.875-.922.52-.625.781-1.583.781-2.875 0-1.23-.255-2.15-.765-2.766-.5-.614-1.105-.921-1.813-.921-.698 0-1.318.328-1.86.984-.53.646-.796 1.594-.796 2.844zm12.47 3.312.234 1.453c-.459.094-.87.141-1.235.141-.593 0-1.057-.094-1.39-.281a1.606 1.606 0 0 1 -.688-.735c-.135-.312-.203-.958-.203-1.937v-5.578h-1.203v-1.266h1.203v-2.39l1.625-.985v3.375h1.656v1.266h-1.656v5.672c0 .458.026.755.078.89a.78.78 0 0 0 .281.328c.136.073.329.11.579.11.177 0 .416-.021.718-.063z" fill="#000" fill-rule="nonzero"/><path d="m964.449 338h226.551v61.008h-226.551z"/><path d="m994.733 364.92 5.125-13.36h1.906l5.469 13.36h-2.016l-1.547-4.047h-5.593l-1.469 4.047zm3.86-5.484h4.53l-1.406-3.704a41.949 41.949 0 0 1 -.937-2.765 18.98 18.98 0 0 1 -.719 2.547l-1.469 3.922zm9.193 2.593 1.625-.25c.083.646.333 1.146.75 1.5.417.344 1 .516 1.75.516s1.307-.151 1.672-.453c.364-.313.547-.677.547-1.094 0-.364-.162-.656-.485-.875-.218-.146-.776-.328-1.672-.547-1.208-.312-2.046-.578-2.515-.797-.459-.218-.808-.52-1.047-.906a2.486 2.486 0 0 1 -.36-1.312c0-.427.1-.823.297-1.188.198-.375.47-.682.813-.922.25-.187.594-.344 1.031-.469a4.888 4.888 0 0 1 1.422-.203c.76 0 1.427.11 2 .328.573.22.995.516 1.266.891.28.375.474.875.578 1.5l-1.61.219c-.072-.5-.286-.89-.64-1.172-.344-.281-.834-.422-1.469-.422-.76 0-1.302.125-1.625.375-.312.25-.469.542-.469.875 0 .208.063.401.188.578.135.177.349.323.64.438.157.062.636.203 1.438.422 1.167.302 1.98.552 2.437.75.459.198.818.484 1.079.859.26.375.39.844.39 1.406 0 .552-.161 1.068-.484 1.547-.313.48-.771.854-1.375 1.125-.604.26-1.287.39-2.047.39-1.25 0-2.208-.26-2.875-.78-.656-.521-1.073-1.297-1.25-2.329zm13.562 1.422.235 1.453c-.459.094-.87.141-1.235.141-.593 0-1.057-.094-1.39-.281a1.606 1.606 0 0 1 -.688-.735c-.135-.312-.203-.958-.203-1.937v-5.578h-1.203v-1.266h1.203v-2.39l1.625-.985v3.375h1.656v1.266h-1.656v5.672c0 .458.026.755.078.89a.78.78 0 0 0 .282.328c.135.073.328.11.578.11.177 0 .416-.021.718-.063zm7.289 1.469v-13.36h1.765v13.36zm4.683 0v-9.672h1.469v1.375c.708-1.062 1.734-1.594 3.078-1.594.583 0 1.12.105 1.61.313.489.208.854.484 1.093.828.25.333.422.734.516 1.203.062.302.094.833.094 1.594v5.953h-1.641v-5.89c0-.667-.068-1.162-.203-1.485a1.562 1.562 0 0 0 -.672-.797c-.323-.198-.703-.297-1.14-.297-.699 0-1.303.224-1.813.672-.5.438-.75 1.276-.75 2.516v5.281h-1.64zm13.954-1.469.234 1.453c-.458.094-.87.141-1.234.141-.594 0-1.057-.094-1.39-.281a1.606 1.606 0 0 1 -.688-.735c-.135-.312-.203-.958-.203-1.937v-5.578h-1.203v-1.266h1.203v-2.39l1.625-.985v3.375h1.656v1.266h-1.656v5.672c0 .458.026.755.078.89a.78.78 0 0 0 .281.328c.136.073.328.11.578.11.177 0 .417-.021.72-.063zm8.23-1.64 1.688.203c-.271.99-.766 1.76-1.485 2.312-.718.542-1.64.813-2.765.813-1.417 0-2.542-.433-3.375-1.297-.823-.875-1.235-2.1-1.235-3.672 0-1.635.417-2.901 1.25-3.797.844-.896 1.933-1.344 3.266-1.344 1.292 0 2.344.443 3.156 1.328.823.875 1.235 2.11 1.235 3.704v.437h-7.22c.063 1.063.366 1.88.907 2.453.542.563 1.214.844 2.016.844.604 0 1.12-.156 1.547-.469.427-.323.765-.828 1.015-1.515zm-5.39-2.657h5.406c-.073-.812-.281-1.422-.625-1.828-.52-.635-1.198-.953-2.031-.953-.75 0-1.386.255-1.907.766-.51.5-.791 1.172-.843 2.015zm9.125 5.766v-9.672h1.469v1.469c.375-.688.719-1.14 1.031-1.36a1.855 1.855 0 0 1 1.063-.328c.552 0 1.114.177 1.687.532l-.562 1.515c-.406-.24-.808-.36-1.203-.36-.365 0-.688.11-.97.329a1.827 1.827 0 0 0 -.608.89 6.253 6.253 0 0 0 -.282 1.922v5.063zm6.229 0v-9.672h1.468v1.375c.709-1.062 1.735-1.594 3.079-1.594.583 0 1.12.105 1.609.313.49.208.854.484 1.094.828.25.333.422.734.515 1.203.063.302.094.833.094 1.594v5.953h-1.64v-5.89c0-.667-.068-1.162-.204-1.485a1.562 1.562 0 0 0 -.672-.797c-.322-.198-.703-.297-1.14-.297-.698 0-1.302.224-1.813.672-.5.438-.75 1.276-.75 2.516v5.281zm16.688-1.188c-.615.51-1.203.875-1.766 1.094a5.049 5.049 0 0 1 -1.797.313c-1.062 0-1.88-.26-2.453-.782-.573-.52-.86-1.182-.86-1.984 0-.48.11-.911.329-1.297.219-.396.5-.708.844-.937.354-.24.75-.422 1.187-.547.313-.083.797-.167 1.453-.25 1.323-.156 2.297-.344 2.922-.563.01-.229.016-.37.016-.422 0-.666-.156-1.14-.469-1.421-.416-.365-1.041-.547-1.875-.547-.77 0-1.338.135-1.703.406-.365.27-.635.745-.812 1.422l-1.61-.219c.146-.677.386-1.224.719-1.64.333-.428.818-.756 1.453-.985.635-.23 1.365-.344 2.188-.344.833 0 1.505.1 2.015.297.521.188.901.433 1.14.735.25.291.423.661.516 1.109.053.281.079.786.079 1.516v2.187c0 1.52.036 2.484.109 2.89.073.397.208.782.406 1.157h-1.703a3.222 3.222 0 0 1 -.328-1.188zm-.14-3.671c-.594.25-1.485.458-2.673.625-.677.093-1.156.203-1.437.328s-.5.302-.656.531c-.146.23-.22.49-.22.781 0 .438.168.802.5 1.094.334.292.819.437 1.454.437.625 0 1.182-.135 1.672-.406.5-.281.865-.661 1.094-1.14.177-.375.265-.922.265-1.641v-.61zm4.156 4.859v-13.36h1.64v13.36zm4.192-11.469v-1.89h1.64v1.89zm0 11.469v-9.672h1.64v9.672zm3.27 0v-1.328l6.156-7.078c-.698.041-1.313.062-1.844.062h-3.937v-1.328h7.906v1.078l-5.25 6.14-1 1.126c.73-.052 1.417-.078 2.062-.078h4.47v1.406zm16.515-1.188c-.614.51-1.203.875-1.765 1.094a5.049 5.049 0 0 1 -1.797.313c-1.063 0-1.88-.26-2.453-.782-.573-.52-.86-1.182-.86-1.984 0-.48.11-.911.328-1.297.22-.396.5-.708.844-.937.354-.24.75-.422 1.188-.547.312-.083.797-.167 1.453-.25 1.323-.156 2.297-.344 2.922-.563.01-.229.015-.37.015-.422 0-.666-.156-1.14-.468-1.421-.417-.365-1.042-.547-1.875-.547-.771 0-1.339.135-1.704.406-.364.27-.635.745-.812 1.422l-1.61-.219c.146-.677.386-1.224.72-1.64.333-.428.817-.756 1.452-.985.636-.23 1.365-.344 2.188-.344.833 0 1.505.1 2.016.297.52.188.9.433 1.14.735.25.291.422.661.516 1.109.052.281.078.786.078 1.516v2.187c0 1.52.036 2.484.11 2.89.072.397.208.782.406 1.157h-1.704a3.222 3.222 0 0 1 -.328-1.188zm-.14-3.671c-.594.25-1.485.458-2.672.625-.677.093-1.156.203-1.438.328-.28.125-.5.302-.656.531-.146.23-.219.49-.219.781 0 .438.167.802.5 1.094.334.292.818.437 1.453.437.625 0 1.183-.135 1.672-.406.5-.281.865-.661 1.094-1.14.177-.375.266-.922.266-1.641v-.61zm7.782 3.39.234 1.453c-.458.094-.87.141-1.234.141-.594 0-1.058-.094-1.39-.281a1.606 1.606 0 0 1 -.688-.735c-.136-.312-.204-.958-.204-1.937v-5.578h-1.203v-1.266h1.203v-2.39l1.625-.985v3.375h1.657v1.266h-1.657v5.672c0 .458.026.755.079.89a.78.78 0 0 0 .28.328c.136.073.329.11.579.11.177 0 .417-.021.719-.063zm1.605-10v-1.89h1.64v1.89zm0 11.469v-9.672h1.64v9.672zm3.535-4.844c0-1.791.495-3.114 1.485-3.969.833-.718 1.849-1.078 3.047-1.078 1.333 0 2.421.438 3.265 1.313.844.864 1.266 2.068 1.266 3.61 0 1.239-.188 2.218-.563 2.937a3.99 3.99 0 0 1 -1.64 1.656 4.692 4.692 0 0 1 -2.328.594c-1.355 0-2.448-.433-3.282-1.297-.833-.875-1.25-2.13-1.25-3.766zm1.688 0c0 1.24.265 2.172.797 2.797.541.615 1.224.922 2.047.922.812 0 1.49-.307 2.03-.922.542-.625.813-1.573.813-2.844 0-1.198-.27-2.104-.812-2.718-.542-.615-1.219-.922-2.031-.922-.823 0-1.506.307-2.047.922-.532.604-.797 1.526-.797 2.765zm9.297 4.844v-9.672h1.47v1.375c.707-1.062 1.734-1.594 3.077-1.594.584 0 1.12.105 1.61.313s.854.484 1.093.828c.25.333.422.734.516 1.203.063.302.094.833.094 1.594v5.953h-1.64v-5.89c0-.667-.069-1.162-.204-1.485a1.562 1.562 0 0 0 -.672-.797c-.323-.198-.703-.297-1.14-.297-.698 0-1.303.224-1.813.672-.5.438-.75 1.276-.75 2.516v5.281h-1.64zm23.184-1.578c-.541.604-1.13 1.057-1.765 1.36a4.742 4.742 0 0 1 -2.063.452c-1.364 0-2.448-.463-3.25-1.39-.656-.75-.984-1.594-.984-2.532 0-.822.265-1.567.797-2.234.531-.667 1.328-1.25 2.39-1.75-.604-.687-1.005-1.245-1.203-1.672a3.065 3.065 0 0 1 -.297-1.265c0-.802.313-1.495.938-2.079.625-.593 1.417-.89 2.375-.89.906 0 1.65.281 2.234.844.584.552.875 1.218.875 2 0 1.27-.844 2.354-2.531 3.25l2.39 3.062a7.228 7.228 0 0 0 .641-1.86l1.703.36c-.291 1.167-.687 2.125-1.187 2.875a9.495 9.495 0 0 0 2.094 2.047l-1.11 1.313c-.656-.428-1.338-1.058-2.047-1.891zm-3.328-6.953c.709-.427 1.167-.797 1.375-1.11.209-.312.313-.661.313-1.047 0-.458-.146-.828-.438-1.109a1.414 1.414 0 0 0 -1.062-.437c-.448 0-.823.145-1.125.437a1.378 1.378 0 0 0 -.438 1.031c0 .209.052.427.156.657.115.229.277.474.485.734zm2.297 5.656-3-3.719c-.885.531-1.484 1.021-1.797 1.469-.312.448-.469.896-.469 1.344 0 .541.214 1.104.641 1.687.438.584 1.052.875 1.844.875.49 0 .995-.15 1.515-.453a3.694 3.694 0 0 0 1.266-1.203zm-165.652 24.875v-13.36h5.015c1.021 0 1.839.136 2.453.407.615.27 1.094.687 1.438 1.25.354.562.531 1.15.531 1.766 0 .572-.156 1.114-.469 1.625-.302.5-.765.9-1.39 1.203.802.24 1.422.645 1.859 1.218.438.573.656 1.245.656 2.016 0 .625-.135 1.208-.406 1.75-.26.531-.589.943-.984 1.234-.386.292-.87.516-1.453.672-.584.146-1.303.219-2.157.219zm1.78-7.75h2.876c.791 0 1.354-.047 1.687-.14.448-.136.787-.36 1.016-.672.229-.313.344-.704.344-1.172 0-.438-.11-.823-.328-1.157a1.578 1.578 0 0 0 -.907-.703c-.396-.125-1.073-.187-2.031-.187h-2.656v4.031zm0 6.172h3.313c.573 0 .974-.021 1.203-.063.407-.073.745-.192 1.016-.359a2 2 0 0 0 .688-.75c.177-.323.265-.698.265-1.125 0-.5-.13-.932-.39-1.297-.25-.364-.605-.62-1.063-.765-.448-.157-1.099-.235-1.953-.235h-3.078v4.594zm10.46 5.297-.188-1.531c.365.093.677.14.938.14.364 0 .656-.062.875-.187.219-.115.401-.282.547-.5.104-.167.27-.573.5-1.22.031-.093.078-.228.14-.405l-3.671-9.688h1.765l2.016 5.594c.26.719.495 1.469.703 2.25.187-.75.411-1.484.672-2.203l2.078-5.64h1.64l-3.687 9.827c-.396 1.073-.703 1.808-.922 2.203-.292.542-.625.938-1 1.188s-.823.375-1.344.375c-.323 0-.677-.068-1.062-.203zm12.984-5.188.235 1.453c-.459.094-.87.141-1.235.141-.593 0-1.057-.094-1.39-.281a1.606 1.606 0 0 1 -.688-.735c-.135-.312-.203-.958-.203-1.937v-5.578h-1.203v-1.266h1.203v-2.39l1.625-.985v3.375h1.656v1.266h-1.656v5.672c0 .458.026.755.078.89a.78.78 0 0 0 .281.328c.136.073.329.11.579.11.177 0 .416-.021.718-.063zm8.23-1.64 1.688.203c-.27.99-.766 1.76-1.484 2.312-.72.542-1.641.813-2.766.813-1.417 0-2.542-.433-3.375-1.297-.823-.875-1.234-2.1-1.234-3.672 0-1.635.416-2.901 1.25-3.797.843-.896 1.932-1.344 3.265-1.344 1.292 0 2.344.443 3.156 1.329.823.875 1.235 2.109 1.235 3.703v.437h-7.219c.063 1.063.365 1.88.906 2.453.542.563 1.214.844 2.016.844.604 0 1.12-.156 1.547-.469.427-.323.766-.828 1.016-1.515zm-5.39-2.657h5.406c-.073-.812-.281-1.421-.625-1.828-.52-.635-1.198-.953-2.031-.953-.75 0-1.386.255-1.906.766-.51.5-.792 1.172-.844 2.015zm15.454 2.22 1.61.218c-.178 1.104-.631 1.974-1.36 2.61-.72.624-1.61.937-2.672.937-1.323 0-2.386-.433-3.188-1.297-.802-.865-1.203-2.104-1.203-3.719 0-1.052.172-1.969.516-2.75s.87-1.364 1.578-1.75a4.662 4.662 0 0 1 2.312-.594c1.053 0 1.912.266 2.579.797.666.531 1.093 1.287 1.28 2.266l-1.593.234c-.156-.646-.427-1.13-.812-1.453-.386-.333-.85-.5-1.391-.5-.823 0-1.495.297-2.016.89-.52.595-.78 1.532-.78 2.813 0 1.302.25 2.25.75 2.844.5.583 1.15.875 1.952.875.646 0 1.182-.198 1.61-.594.437-.396.713-1.005.828-1.828zm2.406-1.298c0-1.791.495-3.114 1.484-3.969.834-.718 1.85-1.078 3.047-1.078 1.334 0 2.422.438 3.266 1.313.844.864 1.265 2.068 1.265 3.61 0 1.239-.187 2.218-.562 2.937a3.99 3.99 0 0 1 -1.64 1.656 4.692 4.692 0 0 1 -2.329.594c-1.354 0-2.448-.433-3.281-1.297-.833-.875-1.25-2.13-1.25-3.766zm1.687 0c0 1.24.266 2.172.797 2.797.542.615 1.224.922 2.047.922.813 0 1.49-.307 2.031-.922.542-.625.813-1.573.813-2.844 0-1.198-.27-2.104-.813-2.718-.541-.615-1.218-.922-2.03-.922-.824 0-1.506.307-2.048.922-.53.604-.797 1.526-.797 2.765zm15.564 4.844v-1.219c-.605.959-1.506 1.438-2.703 1.438-.771 0-1.48-.214-2.125-.64-.646-.428-1.146-1.022-1.5-1.782-.355-.76-.532-1.636-.532-2.625 0-.969.162-1.844.485-2.625.323-.792.802-1.396 1.437-1.813a3.92 3.92 0 0 1 2.172-.625c.583 0 1.099.125 1.547.375.458.24.828.558 1.11.954v-4.797h1.64v13.359zm-5.172-4.828c0 1.24.26 2.167.781 2.781.52.615 1.135.922 1.844.922.719 0 1.328-.292 1.828-.875.5-.594.75-1.49.75-2.688 0-1.322-.255-2.291-.766-2.906-.51-.625-1.14-.937-1.89-.937-.72 0-1.323.297-1.813.89-.49.594-.734 1.532-.734 2.813zm15.907 1.719 1.687.203c-.27.99-.765 1.76-1.484 2.312-.719.542-1.64.813-2.766.813-1.416 0-2.541-.433-3.375-1.297-.823-.875-1.234-2.1-1.234-3.672 0-1.635.417-2.901 1.25-3.797.844-.896 1.932-1.344 3.266-1.344 1.291 0 2.343.443 3.156 1.329.823.875 1.234 2.109 1.234 3.703v.437h-7.219c.063 1.063.365 1.88.907 2.453.541.563 1.213.844 2.015.844.604 0 1.12-.156 1.547-.469.427-.323.766-.828 1.016-1.515zm-5.39-2.657h5.405c-.073-.812-.28-1.421-.625-1.828-.52-.635-1.198-.953-2.03-.953-.75 0-1.386.255-1.907.766-.51.5-.792 1.172-.844 2.015zm14.62 5.766v-13.36h9.016v1.579h-7.25v4.14h6.266v1.579h-6.266v6.062h-1.765zm11.1-11.469v-1.89h1.64v1.89zm0 11.469v-9.672h1.64v9.672zm4.145 0v-9.672h1.468v1.375c.709-1.062 1.735-1.594 3.079-1.594.583 0 1.12.105 1.609.313.49.208.854.484 1.094.828.25.333.422.734.515 1.203.063.302.094.833.094 1.594v5.953h-1.64v-5.89c0-.667-.068-1.162-.204-1.485a1.562 1.562 0 0 0 -.672-.797c-.323-.198-.703-.297-1.14-.297-.698 0-1.302.224-1.813.672-.5.438-.75 1.276-.75 2.516v5.281zm16.688-1.188c-.615.51-1.203.875-1.766 1.094a5.049 5.049 0 0 1 -1.797.313c-1.062 0-1.88-.26-2.453-.781s-.86-1.183-.86-1.985c0-.479.11-.911.329-1.297.219-.396.5-.708.844-.937.354-.24.75-.422 1.187-.547.313-.083.797-.167 1.453-.25 1.323-.156 2.297-.344 2.922-.563.01-.229.016-.37.016-.421 0-.667-.157-1.141-.469-1.422-.417-.365-1.042-.547-1.875-.547-.77 0-1.339.135-1.703.406-.365.27-.636.745-.813 1.422l-1.609-.219c.146-.677.385-1.224.719-1.64.333-.428.817-.756 1.453-.985.635-.229 1.364-.344 2.187-.344.834 0 1.506.1 2.016.297.52.188.901.433 1.14.735.25.291.422.661.516 1.109.052.281.078.786.078 1.516v2.187c0 1.521.037 2.485.11 2.89.073.397.208.782.406 1.157h-1.703a3.222 3.222 0 0 1 -.328-1.188zm-.14-3.671c-.595.25-1.485.458-2.673.625-.677.093-1.156.203-1.437.328-.282.125-.5.302-.657.531-.145.23-.218.49-.218.781 0 .438.166.802.5 1.094.333.292.817.438 1.453.438.625 0 1.182-.136 1.672-.407.5-.281.864-.661 1.093-1.14.178-.375.266-.922.266-1.641v-.61zm4.156 4.859v-13.36h1.64v13.36zm4.192-11.469v-1.89h1.64v1.89zm0 11.469v-9.672h1.64v9.672zm3.27 0v-1.328l6.156-7.078c-.698.041-1.313.062-1.844.062h-3.937v-1.328h7.906v1.078l-5.25 6.14-1 1.126c.73-.052 1.417-.078 2.062-.078h4.47v1.406zm16.515-1.188c-.614.51-1.203.875-1.765 1.094a5.049 5.049 0 0 1 -1.797.313c-1.063 0-1.88-.26-2.453-.781s-.86-1.183-.86-1.985c0-.479.11-.911.328-1.297.22-.396.5-.708.844-.937.354-.24.75-.422 1.188-.547.312-.083.797-.167 1.453-.25 1.323-.156 2.297-.344 2.922-.563.01-.229.015-.37.015-.421 0-.667-.156-1.141-.468-1.422-.417-.365-1.042-.547-1.875-.547-.771 0-1.339.135-1.704.406-.364.27-.635.745-.812 1.422l-1.61-.219c.146-.677.386-1.224.72-1.64.333-.428.817-.756 1.452-.985.636-.229 1.365-.344 2.188-.344.833 0 1.505.1 2.016.297.52.188.9.433 1.14.735.25.291.422.661.516 1.109.052.281.078.786.078 1.516v2.187c0 1.521.036 2.485.11 2.89.072.397.208.782.406 1.157h-1.704a3.222 3.222 0 0 1 -.328-1.188zm-.14-3.671c-.594.25-1.485.458-2.672.625-.677.093-1.156.203-1.438.328-.281.125-.5.302-.656.531-.146.23-.219.49-.219.781 0 .438.167.802.5 1.094.334.292.818.438 1.453.438.625 0 1.183-.136 1.672-.407.5-.281.865-.661 1.094-1.14.177-.375.266-.922.266-1.641v-.61zm7.782 3.39.234 1.453c-.458.094-.87.141-1.234.141-.594 0-1.058-.094-1.391-.281a1.606 1.606 0 0 1 -.688-.735c-.135-.312-.203-.958-.203-1.937v-5.578h-1.203v-1.266h1.203v-2.39l1.625-.985v3.375h1.657v1.266h-1.657v5.672c0 .458.026.755.078.89a.78.78 0 0 0 .282.328c.135.073.328.11.578.11.177 0 .417-.021.719-.063zm1.605-10v-1.89h1.64v1.89zm0 11.469v-9.672h1.64v9.672zm3.535-4.844c0-1.791.495-3.114 1.485-3.969.833-.718 1.849-1.078 3.046-1.078 1.334 0 2.422.438 3.266 1.313.844.864 1.266 2.068 1.266 3.61 0 1.239-.188 2.218-.563 2.937a3.99 3.99 0 0 1 -1.64 1.656 4.692 4.692 0 0 1 -2.329.594c-1.354 0-2.447-.433-3.28-1.297-.834-.875-1.25-2.13-1.25-3.766zm1.688 0c0 1.24.265 2.172.797 2.797.541.615 1.224.922 2.046.922.813 0 1.49-.307 2.032-.922.541-.625.812-1.573.812-2.844 0-1.198-.27-2.104-.812-2.718-.542-.615-1.219-.922-2.032-.922-.822 0-1.505.307-2.046.922-.532.604-.797 1.526-.797 2.765zm9.297 4.844v-9.672h1.47v1.375c.707-1.062 1.733-1.594 3.077-1.594.584 0 1.12.105 1.61.313s.854.484 1.093.828c.25.333.422.734.516 1.203.062.302.094.833.094 1.594v5.953h-1.64v-5.89c0-.667-.069-1.162-.204-1.485a1.562 1.562 0 0 0 -.672-.797c-.323-.198-.703-.297-1.14-.297-.698 0-1.303.224-1.813.672-.5.438-.75 1.276-.75 2.516v5.281h-1.64z" fill="#000" fill-rule="nonzero"/><path d="m1105.551 301h111.024v41.008h-111.025z" fill="#ea9999"/><path d="m1105.551 301h111.024v41.008h-111.025z" stroke="#000" stroke-linejoin="round"/><path d="m1128.827 328.424v-13.36h9.656v1.579h-7.875v4.093h7.375v1.563h-7.375v4.547h8.187v1.578zm11.115 0 3.531-5.031-3.265-4.64h2.047l1.484 2.265c.281.427.505.786.672 1.078.27-.396.515-.75.734-1.063l1.64-2.28h1.954l-3.344 4.546 3.594 5.125h-2.016l-1.984-3-.516-.813-2.547 3.813zm17.047-3.11 1.687.204c-.27.99-.765 1.76-1.484 2.312-.719.542-1.64.813-2.766.813-1.416 0-2.541-.433-3.375-1.297-.822-.875-1.234-2.1-1.234-3.672 0-1.635.417-2.901 1.25-3.797.844-.896 1.932-1.344 3.266-1.344 1.291 0 2.343.443 3.156 1.328.823.875 1.234 2.11 1.234 3.704v.437h-7.218c.062 1.063.364 1.88.906 2.453.541.563 1.213.844 2.015.844.605 0 1.12-.156 1.547-.469.427-.323.766-.828 1.016-1.515zm-5.39-2.656h5.406c-.073-.812-.282-1.422-.625-1.828-.521-.635-1.198-.953-2.032-.953-.75 0-1.385.255-1.906.766-.51.5-.792 1.172-.844 2.015zm15.453 2.22 1.61.218c-.178 1.104-.63 1.974-1.36 2.61-.719.624-1.61.937-2.672.937-1.323 0-2.385-.433-3.187-1.297-.802-.865-1.203-2.104-1.203-3.719 0-1.052.172-1.969.515-2.75.344-.781.87-1.365 1.578-1.75a4.662 4.662 0 0 1 2.313-.594c1.052 0 1.911.266 2.578.797s1.094 1.287 1.281 2.266l-1.593.234c-.157-.646-.428-1.13-.813-1.453-.385-.333-.849-.5-1.39-.5-.823 0-1.495.297-2.016.89-.521.594-.781 1.532-.781 2.813 0 1.302.25 2.25.75 2.844.5.583 1.15.875 1.953.875.646 0 1.182-.198 1.609-.594.438-.396.714-1.005.828-1.828zm9.344 3.546v-1.422c-.75 1.094-1.77 1.64-3.063 1.64a3.97 3.97 0 0 1 -1.609-.327c-.49-.22-.854-.495-1.094-.829-.24-.333-.406-.74-.5-1.218-.073-.313-.11-.823-.11-1.532v-5.984h1.642v5.36c0 .854.036 1.432.109 1.734.104.427.323.765.656 1.015.334.25.745.375 1.235.375s.947-.125 1.375-.375c.437-.26.744-.604.921-1.03.178-.438.266-1.069.266-1.891v-5.188h1.64v9.672zm7.626-1.469.234 1.453c-.458.094-.87.14-1.234.14-.594 0-1.058-.093-1.391-.28a1.606 1.606 0 0 1 -.687-.735c-.136-.312-.204-.958-.204-1.937v-5.578h-1.203v-1.266h1.203v-2.39l1.625-.985v3.375h1.657v1.266h-1.657v5.672c0 .458.026.755.079.89a.78.78 0 0 0 .28.328c.136.073.329.11.579.11.177 0 .417-.021.719-.063zm8.23-1.64 1.687.203c-.27.99-.765 1.76-1.484 2.312-.719.542-1.64.813-2.766.813-1.416 0-2.541-.433-3.375-1.297-.823-.875-1.234-2.1-1.234-3.672 0-1.635.417-2.901 1.25-3.797.844-.896 1.932-1.344 3.266-1.344 1.291 0 2.343.443 3.156 1.328.823.875 1.234 2.11 1.234 3.704v.437h-7.219c.063 1.063.365 1.88.907 2.453.541.563 1.213.844 2.015.844.605 0 1.12-.156 1.547-.469.427-.323.766-.828 1.016-1.515zm-5.39-2.657h5.405c-.072-.812-.28-1.422-.625-1.828-.52-.635-1.197-.953-2.03-.953-.75 0-1.386.255-1.907.766-.51.5-.792 1.172-.844 2.015z" fill="#000" fill-rule="nonzero"/><path d="m927.488 117.992h136.22v61.008h-136.22z"/><path d="m961.763 157.712 8.796-22.906h3.266l9.375 22.906h-3.453l-2.672-6.937h-9.578l-2.516 6.937zm6.609-9.406h7.766l-2.391-6.344c-.73-1.927-1.271-3.51-1.625-4.75a29.2 29.2 0 0 1 -1.234 4.375zm17.562 9.406v-14.406h-2.484v-2.188h2.484v-1.765c0-1.115.1-1.943.297-2.485.271-.729.745-1.317 1.422-1.765.688-.459 1.646-.688 2.875-.688.792 0 1.667.094 2.625.282l-.422 2.453a9.438 9.438 0 0 0 -1.656-.157c-.854 0-1.458.183-1.813.547-.354.365-.53 1.047-.53 2.047v1.531h3.234v2.188h-3.235v14.406zm14.36-2.515.406 2.484c-.792.167-1.5.25-2.125.25-1.02 0-1.813-.162-2.375-.484-.563-.323-.958-.745-1.188-1.266-.229-.531-.343-1.64-.343-3.328v-9.547h-2.063v-2.188h2.063v-4.109l2.797-1.687v5.796h2.828v2.188h-2.828v9.703c0 .802.047 1.318.14 1.547.104.229.266.411.485.547.229.135.552.203.968.203a9.15 9.15 0 0 0 1.235-.11zm14.11-2.829 2.905.36c-.458 1.698-1.307 3.015-2.546 3.953-1.24.937-2.823 1.406-4.75 1.406-2.428 0-4.355-.745-5.782-2.234-1.416-1.5-2.125-3.6-2.125-6.297 0-2.792.719-4.958 2.157-6.5 1.437-1.542 3.302-2.313 5.593-2.313 2.219 0 4.032.756 5.438 2.266s2.11 3.635 2.11 6.375c0 .167-.006.417-.016.75h-12.375c.104 1.823.62 3.219 1.546 4.188.927.968 2.084 1.453 3.47 1.453 1.03 0 1.91-.271 2.64-.813.729-.542 1.307-1.406 1.734-2.594zm-9.235-4.546h9.265c-.125-1.396-.479-2.443-1.062-3.141-.896-1.083-2.057-1.625-3.484-1.625-1.292 0-2.38.432-3.266 1.297-.875.864-1.36 2.02-1.453 3.469zm15.64 9.89v-16.594h2.532v2.516c.645-1.177 1.24-1.953 1.78-2.328a3.159 3.159 0 0 1 1.813-.563c.948 0 1.912.302 2.89.907l-.968 2.609c-.687-.406-1.375-.61-2.062-.61-.615 0-1.167.188-1.657.563-.49.365-.838.875-1.046 1.531-.313 1-.47 2.094-.47 3.282v8.687z" fill="#000" fill-rule="nonzero"/><path d="m1232 185.984v204"/><path d="m1232 185.984v204" stroke="#000" stroke-dasharray="8" stroke-linejoin="round"/><path d="m660.783 301h90.457v41.008h-90.457z" fill="#fff2cc"/><path d="m660.783 301h90.457v41.008h-90.457z" stroke="#000" stroke-dasharray="4" stroke-linejoin="round"/><path d="m683.589 321.924c0-2.219.593-3.953 1.78-5.203 1.188-1.26 2.725-1.89 4.61-1.89 1.23 0 2.339.296 3.328.89.99.583 1.745 1.406 2.266 2.469.52 1.052.781 2.244.781 3.578 0 1.354-.276 2.567-.828 3.64-.542 1.063-1.312 1.87-2.312 2.422s-2.084.828-3.25.828c-1.25 0-2.37-.302-3.36-.906a5.933 5.933 0 0 1 -2.25-2.5 7.53 7.53 0 0 1 -.765-3.328zm1.812.016c0 1.614.432 2.885 1.297 3.812s1.953 1.39 3.266 1.39c1.333 0 2.427-.468 3.28-1.406.855-.937 1.282-2.265 1.282-3.984 0-1.083-.182-2.031-.547-2.844-.364-.812-.9-1.437-1.61-1.875a4.352 4.352 0 0 0 -2.374-.672c-1.26 0-2.344.433-3.25 1.297-.896.854-1.344 2.282-1.344 4.282zm16.605 5.015.235 1.453c-.459.094-.87.14-1.235.14-.593 0-1.057-.093-1.39-.28a1.606 1.606 0 0 1 -.688-.735c-.135-.312-.203-.958-.203-1.937v-5.578h-1.203v-1.266h1.203v-2.39l1.625-.985v3.375h1.656v1.266h-1.656v5.672c0 .458.026.755.078.89a.78.78 0 0 0 .281.328c.136.073.329.11.579.11.177 0 .416-.021.718-.063zm1.605 1.469v-13.36h1.641v4.797c.76-.885 1.724-1.328 2.89-1.328.72 0 1.34.14 1.86.422.531.281.912.672 1.14 1.172.23.5.344 1.224.344 2.172v6.125h-1.64v-6.125c0-.823-.177-1.422-.531-1.797-.355-.375-.86-.562-1.516-.562-.48 0-.932.13-1.36.39a2.17 2.17 0 0 0 -.921 1.016c-.177.427-.266 1.02-.266 1.781v5.297h-1.64zm17.001-3.11 1.688.204c-.271.99-.766 1.76-1.485 2.312-.718.542-1.64.813-2.765.813-1.417 0-2.542-.433-3.375-1.297-.823-.875-1.235-2.1-1.235-3.672 0-1.635.417-2.901 1.25-3.797.844-.896 1.933-1.344 3.266-1.344 1.292 0 2.344.443 3.156 1.328.823.875 1.235 2.11 1.235 3.704v.437h-7.22c.063 1.063.365 1.88.907 2.453.542.563 1.214.844 2.016.844.604 0 1.12-.156 1.547-.469.427-.323.765-.828 1.015-1.515zm-5.39-2.656h5.406c-.073-.812-.281-1.422-.625-1.828-.521-.635-1.198-.953-2.031-.953-.75 0-1.386.255-1.907.766-.51.5-.791 1.172-.843 2.015zm9.125 5.766v-9.672h1.469v1.469c.375-.688.719-1.14 1.031-1.36a1.855 1.855 0 0 1 1.063-.328c.552 0 1.114.177 1.687.532l-.562 1.515c-.406-.24-.808-.36-1.203-.36-.365 0-.688.11-.97.329a1.827 1.827 0 0 0 -.608.89 6.253 6.253 0 0 0 -.282 1.922v5.063z" fill="#000" fill-rule="nonzero"/><path d="m839.546 301h90.457v41.008h-90.457z" fill="#fff2cc"/><path d="m839.546 301h90.457v41.008h-90.457z" stroke="#000" stroke-dasharray="4" stroke-linejoin="round"/><path d="m862.351 321.924c0-2.219.594-3.953 1.781-5.203 1.188-1.26 2.724-1.89 4.61-1.89 1.229 0 2.338.296 3.328.89.99.583 1.745 1.406 2.266 2.469.52 1.052.78 2.244.78 3.578 0 1.354-.275 2.567-.827 3.64-.542 1.063-1.313 1.87-2.313 2.422s-2.083.828-3.25.828c-1.25 0-2.37-.302-3.36-.906a5.933 5.933 0 0 1 -2.25-2.5 7.53 7.53 0 0 1 -.765-3.328zm1.813.016c0 1.614.432 2.885 1.297 3.812.864.927 1.953 1.39 3.265 1.39 1.333 0 2.427-.468 3.281-1.406.855-.937 1.282-2.265 1.282-3.984 0-1.083-.183-2.031-.547-2.844-.365-.812-.901-1.437-1.61-1.875a4.352 4.352 0 0 0 -2.375-.672c-1.26 0-2.343.433-3.25 1.297-.895.854-1.343 2.282-1.343 4.282zm16.605 5.015.234 1.453c-.458.094-.87.14-1.234.14-.594 0-1.057-.093-1.39-.28a1.606 1.606 0 0 1 -.688-.735c-.136-.312-.203-.958-.203-1.937v-5.578h-1.204v-1.266h1.204v-2.39l1.625-.985v3.375h1.656v1.266h-1.656v5.672c0 .458.026.755.078.89a.78.78 0 0 0 .28.328c.136.073.33.11.58.11.176 0 .416-.021.718-.063zm1.605 1.469v-13.36h1.64v4.797c.761-.885 1.725-1.328 2.891-1.328.719 0 1.339.14 1.86.422.53.281.911.672 1.14 1.172.23.5.344 1.224.344 2.172v6.125h-1.64v-6.125c0-.823-.178-1.422-.532-1.797s-.86-.562-1.516-.562c-.479 0-.932.13-1.359.39a2.17 2.17 0 0 0 -.922 1.016c-.177.427-.265 1.02-.265 1.781v5.297zm17-3.11 1.688.204c-.27.99-.765 1.76-1.484 2.312-.719.542-1.64.813-2.766.813-1.416 0-2.541-.433-3.375-1.297-.823-.875-1.234-2.1-1.234-3.672 0-1.635.416-2.901 1.25-3.797.844-.896 1.932-1.344 3.265-1.344 1.292 0 2.344.443 3.157 1.328.823.875 1.234 2.11 1.234 3.704v.437h-7.219c.063 1.063.365 1.88.907 2.453.541.563 1.213.844 2.015.844.604 0 1.12-.156 1.547-.469.427-.323.766-.828 1.016-1.515zm-5.39-2.656h5.406c-.073-.812-.28-1.422-.625-1.828-.52-.635-1.198-.953-2.03-.953-.75 0-1.386.255-1.907.766-.51.5-.792 1.172-.844 2.015zm9.126 5.766v-9.672h1.469v1.469c.375-.688.718-1.14 1.03-1.36a1.855 1.855 0 0 1 1.063-.328c.552 0 1.115.177 1.688.532l-.563 1.515c-.406-.24-.807-.36-1.203-.36-.364 0-.687.11-.969.329a1.827 1.827 0 0 0 -.609.89 6.253 6.253 0 0 0 -.281 1.922v5.063z" fill="#000" fill-rule="nonzero"/><path d="m944.41 301h90.456v41.008h-90.456z" fill="#fff2cc"/><path d="m944.41 301h90.456v41.008h-90.456z" stroke="#000" stroke-dasharray="4" stroke-linejoin="round"/><path d="m967.215 321.924c0-2.219.593-3.953 1.78-5.203 1.188-1.26 2.725-1.89 4.61-1.89 1.23 0 2.339.296 3.328.89.99.583 1.745 1.406 2.266 2.469.52 1.052.781 2.244.781 3.578 0 1.354-.276 2.567-.828 3.64-.542 1.063-1.312 1.87-2.312 2.422s-2.084.828-3.25.828c-1.25 0-2.37-.302-3.36-.906a5.933 5.933 0 0 1 -2.25-2.5 7.53 7.53 0 0 1 -.765-3.328zm1.812.016c0 1.614.432 2.885 1.297 3.812s1.953 1.39 3.266 1.39c1.333 0 2.427-.468 3.28-1.406.855-.937 1.282-2.265 1.282-3.984 0-1.083-.182-2.031-.547-2.844-.364-.812-.9-1.437-1.61-1.875a4.352 4.352 0 0 0 -2.374-.672c-1.26 0-2.344.433-3.25 1.297-.896.854-1.344 2.282-1.344 4.282zm16.605 5.015.235 1.453c-.459.094-.87.14-1.235.14-.593 0-1.057-.093-1.39-.28a1.606 1.606 0 0 1 -.688-.735c-.135-.312-.203-.958-.203-1.937v-5.578h-1.203v-1.266h1.203v-2.39l1.625-.985v3.375h1.656v1.266h-1.656v5.672c0 .458.026.755.078.89a.78.78 0 0 0 .281.328c.136.073.329.11.579.11.177 0 .416-.021.718-.063zm1.605 1.469v-13.36h1.641v4.797c.76-.885 1.724-1.328 2.89-1.328.72 0 1.34.14 1.86.422.531.281.912.672 1.14 1.172.23.5.344 1.224.344 2.172v6.125h-1.64v-6.125c0-.823-.177-1.422-.531-1.797-.355-.375-.86-.562-1.516-.562-.48 0-.932.13-1.36.39a2.17 2.17 0 0 0 -.921 1.016c-.177.427-.266 1.02-.266 1.781v5.297h-1.64zm17.001-3.11 1.688.204c-.271.99-.766 1.76-1.485 2.312-.718.542-1.64.813-2.765.813-1.417 0-2.542-.433-3.375-1.297-.823-.875-1.235-2.1-1.235-3.672 0-1.635.417-2.901 1.25-3.797.844-.896 1.933-1.344 3.266-1.344 1.292 0 2.344.443 3.156 1.328.823.875 1.235 2.11 1.235 3.704v.437h-7.22c.063 1.063.365 1.88.907 2.453.542.563 1.214.844 2.016.844.604 0 1.12-.156 1.547-.469.427-.323.765-.828 1.015-1.515zm-5.39-2.656h5.406c-.073-.812-.281-1.422-.625-1.828-.521-.635-1.198-.953-2.031-.953-.75 0-1.386.255-1.907.766-.51.5-.791 1.172-.843 2.015zm9.125 5.766v-9.672h1.469v1.469c.375-.688.719-1.14 1.031-1.36a1.855 1.855 0 0 1 1.063-.328c.552 0 1.114.177 1.687.532l-.562 1.515c-.406-.24-.808-.36-1.203-.36-.365 0-.688.11-.97.329a1.827 1.827 0 0 0 -.608.89 6.253 6.253 0 0 0 -.282 1.922v5.063z" fill="#000" fill-rule="nonzero"/></g></g></g></svg>