<?xml version="1.0" encoding="UTF-8"?>
<svg width="986.72" height="327.12" fill="none" stroke-linecap="square" stroke-miterlimit="10" version="1.1" viewBox="0 0 986.72 327.12" xmlns="http://www.w3.org/2000/svg">
 <clipPath id="p.0">
  <path d="m0 0h1280v960h-1280z"/>
 </clipPath>
 <g transform="translate(-21.871 -26.551)" clip-path="url(#p.0)">
  <g fill-rule="evenodd">
   <path d="m0 0h1280v960h-1280z" fill="#000" fill-opacity="0"/>
   <path d="m731.8 82.514v116.85h89.228" fill="#000" fill-opacity="0"/>
   <path d="m731.8 82.514v116.85h77.228" stroke="#6d9eeb" stroke-linecap="butt" stroke-linejoin="round" stroke-width="2"/>
   <path d="m809.03 202.67 9.0762-3.3035-9.0762-3.3034z" fill="#6d9eeb" stroke="#6d9eeb" stroke-linecap="butt" stroke-width="2"/>
   <path d="m31.738 54.757h976.85" fill="#000" fill-opacity="0"/>
   <path d="m31.738 54.757h963.14" stroke="#4a86e8" stroke-linecap="butt" stroke-linejoin="round" stroke-width="4"/>
   <path d="m994.88 54.757-4.4984 4.4983 12.359-4.4983-12.359-4.4983z" fill="#4a86e8" stroke="#4a86e8" stroke-linecap="butt" stroke-width="4"/>
   <path d="m140.64 27.551h461.04v52.756h-461.04z" fill="#6aa84f"/>
   <path d="m140.64 27.551h461.04v52.756h-461.04z" stroke="#38761d" stroke-linecap="butt" stroke-linejoin="round" stroke-width="2"/>
  </g>
  <path d="m362.98 60.849q-0.14062-0.29688-0.23437-1.0312-1.1719 1.2188-2.8125 1.2188-1.4531 0-2.3906-0.82812-0.92187-0.82812-0.92187-2.0938 0-1.5312 1.1562-2.375 1.1719-0.85938 3.2969-0.85938h1.6406v-0.78125q0-0.89062-0.53125-1.4062-0.51563-0.53125-1.5469-0.53125-0.90625 0-1.5156 0.46875-0.60938 0.45312-0.60938 1.0938h-1.7031q0-0.73438 0.51562-1.4219 0.53125-0.6875 1.4219-1.0781 0.90625-0.40625 1.9844-0.40625 1.7031 0 2.6719 0.85938 0.96875 0.84375 1 2.3281v4.5312q0 1.3594 0.34375 2.1719v0.14062zm-2.7969-1.2812q0.79687 0 1.5-0.40625 0.71875-0.42188 1.0312-1.0781v-2.0156h-1.3125q-3.1094 0-3.1094 1.8125 0 0.79688 0.53125 1.25 0.53125 0.4375 1.3594 0.4375zm15.179-3.5312q0 2.25-1.0312 3.625-1.0156 1.375-2.7812 1.375-1.7969 0-2.8281-1.1406v4.75h-1.6719v-13.656h1.5312l0.0781 1.0938q1.0312-1.2656 2.8594-1.2656 1.7812 0 2.8125 1.3438 1.0312 1.3281 1.0312 3.7188zm-1.6719-0.20312q0-1.6562-0.71875-2.625-0.70312-0.96875-1.9531-0.96875-1.5312 0-2.2969 1.3594v4.7031q0.76563 1.3594 2.3281 1.3594 1.2031 0 1.9219-0.95312 0.71875-0.96875 0.71875-2.875zm12.139 0.20312q0 2.25-1.0312 3.625-1.0156 1.375-2.7812 1.375-1.7969 0-2.8281-1.1406v4.75h-1.6719v-13.656h1.5312l0.0781 1.0938q1.0312-1.2656 2.8594-1.2656 1.7812 0 2.8125 1.3438 1.0312 1.3281 1.0312 3.7188zm-1.6719-0.20312q0-1.6562-0.71875-2.625-0.70313-0.96875-1.9531-0.96875-1.5312 0-2.2969 1.3594v4.7031q0.76562 1.3594 2.3281 1.3594 1.2031 0 1.9219-0.95312 0.71875-0.96875 0.71875-2.875z" fill="#fff"/>
  <g fill-rule="evenodd">
   <path d="m31.738 317.54h976.85" fill="#000" fill-opacity="0"/>
   <path d="m31.738 317.54h963.14" stroke="#4a86e8" stroke-linecap="butt" stroke-linejoin="round" stroke-width="4"/>
   <path d="m994.88 317.54-4.4984 4.4983 12.359-4.4983-12.359-4.4983z" fill="#4a86e8" stroke="#4a86e8" stroke-linecap="butt" stroke-width="4"/>
   <path d="m226.52 290.58h105.45v52.756h-105.45z" fill="#cc4125"/>
   <path d="m226.52 290.58h105.45v52.756h-105.45z" stroke="#900" stroke-linecap="butt" stroke-linejoin="round" stroke-width="2"/>
  </g>
  <path d="m248.94 317.97q-2.25-0.65625-3.2812-1.5938t-1.0312-2.3281q0-1.5625 1.25-2.5938 1.2656-1.0312 3.2656-1.0312 1.3594 0 2.4375 0.53125 1.0781 0.53125 1.6562 1.4688 0.59375 0.92188 0.59375 2.0312h-1.7656q0-1.2031-0.76563-1.8906-0.76562-0.6875-2.1562-0.6875-1.2969 0-2.0156 0.5625t-0.71875 1.5781q0 0.8125 0.6875 1.375t2.3281 1.0312q1.6562 0.45313 2.5938 1.0156t1.375 1.3125q0.45313 0.75 0.45313 1.75 0 1.6094-1.25 2.5938-1.25 0.96875-3.3594 0.96875-1.375 0-2.5625-0.51563-1.1719-0.53125-1.8125-1.4375-0.64062-0.92187-0.64062-2.0781h1.75q0 1.2031 0.89062 1.9062 0.89063 0.6875 2.375 0.6875 1.375 0 2.1094-0.5625 0.75-0.5625 0.75-1.5312 0-0.98438-0.6875-1.5156t-2.4688-1.0469zm15.615 3.5781 1.8906-7.5312h1.6875l-2.8594 9.8594h-1.375l-2.3906-7.4688-2.3281 7.4688h-1.375l-2.8594-9.8594h1.6719l1.9531 7.375 2.2812-7.375h1.3594zm9.3789 2.5156q-2 0-3.2656-1.3125-1.25-1.3281-1.25-3.5312v-0.3125q0-1.4688 0.5625-2.6094 0.5625-1.1562 1.5625-1.7969 1.0156-0.65625 2.1875-0.65625 1.9219 0 2.9844 1.2656 1.0625 1.2656 1.0625 3.625v0.6875h-6.6719q0.0312 1.4688 0.84375 2.375 0.82813 0.89063 2.0781 0.89063 0.89062 0 1.5156-0.35938 0.625-0.375 1.0781-0.96875l1.0312 0.79688q-1.2344 1.9062-3.7188 1.9062zm-0.20313-8.8438q-1.0156 0-1.7188 0.75-0.6875 0.73437-0.84375 2.0781h4.9375v-0.125q-0.0781-1.2812-0.70312-1.9844-0.60938-0.71875-1.6719-0.71875zm10.087 8.8438q-2 0-3.2656-1.3125-1.25-1.3281-1.25-3.5312v-0.3125q0-1.4688 0.5625-2.6094 0.5625-1.1562 1.5625-1.7969 1.0156-0.65625 2.1875-0.65625 1.9219 0 2.9844 1.2656 1.0625 1.2656 1.0625 3.625v0.6875h-6.6719q0.0312 1.4688 0.84375 2.375 0.82812 0.89063 2.0781 0.89063 0.89063 0 1.5156-0.35938 0.625-0.375 1.0781-0.96875l1.0312 0.79688q-1.2344 1.9062-3.7188 1.9062zm-0.20312-8.8438q-1.0156 0-1.7188 0.75-0.6875 0.73437-0.84375 2.0781h4.9375v-0.125q-0.0781-1.2812-0.70313-1.9844-0.60937-0.71875-1.6719-0.71875zm14.321 3.8438q0 2.25-1.0312 3.625-1.0156 1.375-2.7812 1.375-1.7969 0-2.8281-1.1406v4.75h-1.6719v-13.656h1.5312l0.0781 1.0938q1.0312-1.2656 2.8594-1.2656 1.7812 0 2.8125 1.3438 1.0312 1.3281 1.0312 3.7188zm-1.6719-0.20313q0-1.6562-0.71875-2.625-0.70312-0.96875-1.9531-0.96875-1.5312 0-2.2969 1.3594v4.7031q0.76563 1.3594 2.3281 1.3594 1.2031 0 1.9219-0.95313 0.71875-0.96875 0.71875-2.875zm7.9043 5.2031q-2 0-3.2656-1.3125-1.25-1.3281-1.25-3.5312v-0.3125q0-1.4688 0.5625-2.6094 0.5625-1.1562 1.5625-1.7969 1.0156-0.65625 2.1875-0.65625 1.9219 0 2.9844 1.2656 1.0625 1.2656 1.0625 3.625v0.6875h-6.6719q0.0312 1.4688 0.84375 2.375 0.82812 0.89063 2.0781 0.89063 0.89063 0 1.5156-0.35938 0.625-0.375 1.0781-0.96875l1.0312 0.79688q-1.2344 1.9062-3.7188 1.9062zm-0.20312-8.8438q-1.0156 0-1.7188 0.75-0.6875 0.73437-0.84375 2.0781h4.9375v-0.125q-0.0781-1.2812-0.70313-1.9844-0.60937-0.71875-1.6719-0.71875zm10.774 0.3125q-0.39062-0.0625-0.84375-0.0625-1.6562 0-2.25 1.4062v7h-1.6719v-9.8594h1.6406l0.0156 1.1406q0.82812-1.3125 2.3594-1.3125 0.48438 0 0.75 0.125z" fill="#fff"/>
  <path d="m432.18 138.41h181.26v52.756h-181.26z" fill="#f90" fill-rule="evenodd"/>
  <path d="m432.18 138.41h181.26v52.756h-181.26z" fill-rule="evenodd" stroke="#b45f06" stroke-linecap="butt" stroke-linejoin="round" stroke-width="2"/>
  <path d="m451.89 171.71 1.4844-8.5469h-1.5156l0.23437-1.3125h1.5156l0.125-0.92187q0.25-1.6562 1.3438-2.5781 1.0469-0.85937 2.6406-0.84375 0.64063 0.0156 1.25 0.1875 0.60938 0.15625 1.2344 0.375l-0.39063 1.4375q-1.0312-0.46875-2.0469-0.48437-2.0781-0.0312-2.3906 2.0312l-0.125 0.79687h1.9688l-0.23437 1.3125h-1.9531l-1.4844 8.5469zm6.8281 0h-1.6562l1.7188-9.8594h1.6562zm6.0022-9.8594-0.23437 1.2344q1.3281-1.4531 3.0312-1.4062 1.3906 0.0312 2.0469 0.96875 0.67188 0.92187 0.5 2.6094l-1.0781 6.4531h-1.6406l1.0781-6.4844q0.0625-0.45312 0.0156-0.82812-0.15625-1.2812-1.5156-1.3125-1.4844-0.0156-2.5938 1.5938l-1.2188 7.0312h-1.6562l1.7188-9.8594zm12.841 9.8594q-0.0625-0.26563-0.0625-0.51563l0.0312-0.51562q-1.3594 1.25-2.8906 1.2188-1.2969-0.0312-2.1094-0.82813-0.8125-0.8125-0.75-2.0156 0.0937-1.5781 1.375-2.4531 1.2812-0.875 3.375-0.875l1.7188 0.0156 0.10938-0.79688q0.0937-0.875-0.34375-1.3906-0.4375-0.51563-1.2969-0.53125-0.84375-0.0156-1.5 0.42187-0.65625 0.42188-0.79687 1.1406h-1.6562q0.0781-0.85938 0.67187-1.5312 0.59375-0.67188 1.5156-1.0312 0.9375-0.375 1.9219-0.35938 1.5469 0.0312 2.3906 0.9375 0.85937 0.89063 0.73437 2.375l-0.8125 4.8906-0.0469 0.70312q-0.0156 0.5 0.10937 0.98438l-0.0156 0.15625zm-2.5938-1.2812q0.79688 0.0312 1.5-0.35938 0.71875-0.40625 1.2188-1.1094l0.35938-2.0312-1.25-0.0156q-1.5625 0-2.3906 0.5-0.82812 0.48438-0.9375 1.3906-0.0781 0.6875 0.32813 1.1562 0.40625 0.45312 1.1719 0.46875zm8.2822 1.2812h-1.6406l2.4219-14h1.6562zm4.4819 0h-1.6406l1.7188-9.8594h1.6406zm1.3594-13.453q0.42187-0.0156 0.70312 0.25 0.28125 0.26563 0.28125 0.70313-0.0156 0.4375-0.28125 0.70312-0.26562 0.26563-0.70312 0.29688-0.42188 0.0156-0.70313-0.25-0.26562-0.26563-0.26562-0.6875 0.0156-0.4375 0.28125-0.71875 0.26562-0.28125 0.6875-0.29688zm3.185 12.078h5.5469l-0.25 1.375h-7.5938l0.21875-1.3281 6.4688-7.1406h-5.1562l0.26562-1.3906h7.25l-0.21875 1.2812zm13.251 1.375q-0.0625-0.26563-0.0625-0.51563l0.0312-0.51562q-1.3594 1.25-2.8906 1.2188-1.2969-0.0312-2.1094-0.82813-0.8125-0.8125-0.75-2.0156 0.0937-1.5781 1.375-2.4531 1.2812-0.875 3.375-0.875l1.7188 0.0156 0.10937-0.79688q0.0937-0.875-0.34375-1.3906-0.4375-0.51563-1.2969-0.53125-0.84375-0.0156-1.5 0.42187-0.65625 0.42188-0.79688 1.1406h-1.6562q0.0781-0.85938 0.67188-1.5312 0.59375-0.67188 1.5156-1.0312 0.9375-0.375 1.9219-0.35938 1.5469 0.0312 2.3906 0.9375 0.85938 0.89063 0.73438 2.375l-0.8125 4.8906-0.0469 0.70312q-0.0156 0.5 0.10938 0.98438l-0.0156 0.15625zm-2.5938-1.2812q0.79687 0.0312 1.5-0.35938 0.71875-0.40625 1.2188-1.1094l0.35937-2.0312-1.25-0.0156q-1.5625 0-2.3906 0.5-0.82813 0.48438-0.9375 1.3906-0.0781 0.6875 0.32812 1.1562 0.40625 0.45312 1.1719 0.46875zm10.86-10.969-0.42188 2.3906h1.7969l-0.23438 1.3125h-1.7812l-1.0312 6.125q-0.0312 0.23438-0.0156 0.4375 0.0781 0.70313 0.78125 0.70313 0.29687 0 0.79687-0.0781l-0.125 1.375q-0.59375 0.15625-1.2031 0.15625-0.98435-0.0156-1.4844-0.71875-0.48437-0.70312-0.375-1.9062l1-6.0938h-1.7344l0.23437-1.3125h1.7344l0.42184-2.3906zm3.425 12.25h-1.6406l1.7188-9.8594h1.6406zm1.3594-13.453q0.42188-0.0156 0.70313 0.25 0.28125 0.26563 0.28125 0.70313-0.0156 0.4375-0.28125 0.70312-0.26563 0.26563-0.70313 0.29688-0.42187 0.0156-0.70312-0.25-0.26563-0.26563-0.26563-0.6875 0.0156-0.4375 0.28125-0.71875 0.26563-0.28125 0.6875-0.29688zm6.81 3.4219q1.25 0.0156 2.125 0.67187 0.89062 0.65625 1.3125 1.8125 0.42187 1.1406 0.28125 2.5156l-0.0156 0.1875q-0.17187 1.4531-0.85937 2.6094-0.67188 1.1562-1.7656 1.8125-1.0781 0.64063-2.375 0.60938-1.2344-0.0312-2.125-0.67188-0.875-0.65625-1.2969-1.7812-0.40625-1.1406-0.28125-2.5 0.14062-1.5312 0.82812-2.75t1.7812-1.8906q1.0938-0.67188 2.3906-0.625zm-3.3438 5.2812q-0.0625 0.5625 0 1.1875 0.0937 1.0781 0.64062 1.7188 0.54688 0.625 1.4688 0.65625 0.82813 0.0312 1.5156-0.39063 0.6875-0.4375 1.1562-1.3125 0.48437-0.875 0.625-1.9531 0.0625-0.82813 0.0156-1.4062-0.10937-1.0938-0.67187-1.7344-0.54688-0.64062-1.4688-0.67187-1.2656-0.0312-2.1719 1-0.89062 1.0312-1.0938 2.6875zm11.553-5.1094-0.23437 1.2344q1.3281-1.4531 3.0312-1.4062 1.3906 0.0312 2.0469 0.96875 0.67188 0.92187 0.5 2.6094l-1.0781 6.4531h-1.6406l1.0781-6.4844q0.0625-0.45312 0.0156-0.82812-0.15625-1.2812-1.5156-1.3125-1.4844-0.0156-2.5938 1.5938l-1.2188 7.0312h-1.6562l1.7188-9.8594zm16.429-0.1875q1.6719 0.0312 2.5469 1.1875l0.29688-1h1.5156l-2.3594 13.656h-1.6406l0.89063-4.7031q-1.1875 1.125-2.75 1.0938-1.3906-0.0312-2.2188-1.0469-0.82813-1.0312-0.89063-2.7812-0.0469-1.125 0.26563-2.375 0.3125-1.2656 0.9375-2.1875 0.64062-0.9375 1.5-1.4062 0.875-0.46875 1.9062-0.4375zm-2.9219 5.2969-0.0312 0.76562q-0.0312 1.3125 0.46875 2.0469 0.51563 0.73437 1.4531 0.75 1.3906 0.0469 2.4688-1.3281l0.85937-4.8438q-0.60937-1.2656-1.9688-1.2969-1.25-0.0312-2.1094 0.95312-0.84375 0.98438-1.1406 2.9531zm14.516 3.7812q-1.1562 1.1875-2.9531 1.1562-1.4062-0.0469-2.0938-1.0156-0.67187-0.96875-0.5-2.6562l1.0625-6.375h1.6406l-1.0625 6.3906q-0.0469 0.40625-0.0156 0.79687 0.0469 0.65625 0.39063 1.0312 0.34375 0.35938 0.96875 0.39063 1.7656 0.0625 2.7344-1.4219l1.2344-7.1875h1.6406l-1.7031 9.8594h-1.5625zm8.066 1.1562q-1.8438-0.0469-2.8906-1.3594-1.0312-1.3281-0.85937-3.3906l0.0469-0.39063q0.15625-1.4531 0.85938-2.6719 0.71875-1.2188 1.75-1.8281 1.0312-0.60937 2.2188-0.57812 1.5312 0.0312 2.3906 1.0156 0.85938 0.96875 0.95313 2.625 0.0156 0.59375-0.0469 1.1875l-0.0937 0.75h-6.4375q-0.17187 1.3438 0.4375 2.2812 0.60938 0.9375 1.8125 0.98438 1.4531 0.0312 2.6875-1.3125l0.95313 0.79687q-0.625 0.89063-1.6094 1.4062-0.96875 0.5-2.1719 0.48438zm1.0469-8.8438q-1.0156-0.0312-1.7812 0.6875-0.76562 0.71875-1.2031 2.1406h4.7812l0.0469-0.14062q0.14063-1.1406-0.375-1.9062-0.51562-0.76563-1.4688-0.78125zm10.627 7.6875q-1.1562 1.1875-2.9531 1.1562-1.4062-0.0469-2.0938-1.0156-0.67188-0.96875-0.5-2.6562l1.0625-6.375h1.6406l-1.0625 6.3906q-0.0469 0.40625-0.0156 0.79687 0.0469 0.65625 0.39062 1.0312 0.34375 0.35938 0.96875 0.39063 1.7656 0.0625 2.7344-1.4219l1.2344-7.1875h1.6406l-1.7031 9.8594h-1.5625zm8.066 1.1562q-1.8438-0.0469-2.8906-1.3594-1.0312-1.3281-0.85938-3.3906l0.0469-0.39063q0.15625-1.4531 0.85937-2.6719 0.71875-1.2188 1.75-1.8281 1.0312-0.60937 2.2188-0.57812 1.5312 0.0312 2.3906 1.0156 0.85937 0.96875 0.95312 2.625 0.0156 0.59375-0.0469 1.1875l-0.0937 0.75h-6.4375q-0.17188 1.3438 0.4375 2.2812 0.60937 0.9375 1.8125 0.98438 1.4531 0.0312 2.6875-1.3125l0.95312 0.79687q-0.625 0.89063-1.6094 1.4062-0.96875 0.5-2.1719 0.48438zm1.0469-8.8438q-1.0156-0.0312-1.7812 0.6875-0.76563 0.71875-1.2031 2.1406h4.7812l0.0469-0.14062q0.14062-1.1406-0.375-1.9062-0.51563-0.76563-1.4688-0.78125z" fill="#fff"/>
  <g fill-rule="evenodd">
   <path d="m279.25 290.58v-125.8h152.94" fill="#000" fill-opacity="0"/>
   <path d="m279.25 290.58v-125.8h140.94" stroke="#e06666" stroke-linecap="butt" stroke-linejoin="round" stroke-width="2"/>
   <path d="m420.19 168.09 9.0762-3.3035-9.0762-3.3035z" fill="#e06666" stroke="#e06666" stroke-linecap="butt" stroke-width="2"/>
   <path d="m352.02 158.8h77.26v25.449h-77.26z" fill="#000" fill-opacity="0"/>
  </g>
  <path d="m374.42 185.72h-2.9375l-1.1719-3.0312h-5.3281l-1.1094 3.0312h-2.8594l5.2031-13.359h2.8438zm-4.9688-5.2812-1.8438-4.9531-1.7969 4.9531zm15.254 5.2812h-2.3906v-1.4219q-0.59375 0.82813-1.4062 1.2344-0.79688 0.40625-1.6094 0.40625-1.6719 0-2.8594-1.3438t-1.1875-3.75q0-2.4531 1.1562-3.7344t2.9219-1.2812q1.625 0 2.8125 1.3438v-4.8125h2.5625zm-6.8438-5.0469q0 1.5469 0.4375 2.2344 0.60938 1.0156 1.7188 1.0156 0.89063 0 1.5-0.75 0.625-0.76562 0.625-2.25 0-1.6719-0.60937-2.4062-0.59375-0.73437-1.5312-0.73437-0.90625 0-1.5312 0.73437-0.60938 0.71875-0.60938 2.1562zm18.24 5.0469h-2.3906v-1.4219q-0.59375 0.82813-1.4062 1.2344-0.79687 0.40625-1.6094 0.40625-1.6719 0-2.8594-1.3438t-1.1875-3.75q0-2.4531 1.1562-3.7344t2.9219-1.2812q1.625 0 2.8125 1.3438v-4.8125h2.5625zm-6.8438-5.0469q0 1.5469 0.4375 2.2344 0.60937 1.0156 1.7188 1.0156 0.89062 0 1.5-0.75 0.625-0.76562 0.625-2.25 0-1.6719-0.60938-2.4062-0.59375-0.73437-1.5312-0.73437-0.90625 0-1.5312 0.73437-0.60937 0.71875-0.60937 2.1562zm13.599 8.9688h-1.75q-1.3906-2.0938-2.125-4.3594-0.73438-2.2812-0.73438-4.4062 0-2.625 0.90625-4.9688 0.78125-2.0469 1.9844-3.7656h1.75q-1.25 2.75-1.7188 4.6875t-0.46875 4.1094q0 1.5 0.28125 3.0625t0.76562 2.9688q0.3125 0.9375 1.1094 2.6719zm1.2596 0q0.76562-1.6094 1.0625-2.4844 0.3125-0.85938 0.57812-1.9844 0.26563-1.1406 0.39063-2.1562 0.125-1.0156 0.125-2.0781 0-2.1719-0.46875-4.1094-0.45313-1.9375-1.7031-4.6875h1.7344q1.375 1.9531 2.1406 4.1562 0.76563 2.1875 0.76563 4.4531 0 1.9062-0.60938 4.0781-0.67187 2.4375-2.25 4.8125z" fill="#cc4125"/>
  <path d="m58.366 158.8h169.07v25.449h-169.07z" fill="#000" fill-opacity="0" fill-rule="evenodd"/>
  <path d="m72.569 181.38 2.625-0.25q0.23438 1.3125 0.95312 1.9375 0.73438 0.60937 1.9688 0.60937 1.2969 0 1.9531-0.54687 0.67188-0.54688 0.67188-1.2812 0-0.48438-0.28125-0.8125-0.28125-0.32813-0.96875-0.57813-0.48438-0.15625-2.1719-0.57812-2.1562-0.54688-3.0312-1.3281-1.2344-1.0938-1.2344-2.6875 0-1.0156 0.57812-1.9062 0.57812-0.89062 1.6562-1.3438 1.0938-0.46875 2.6406-0.46875 2.5156 0 3.7812 1.1094 1.2812 1.0938 1.3438 2.9375l-2.7031 0.10937q-0.17188-1.0312-0.75-1.4688-0.5625-0.45312-1.7031-0.45312-1.1719 0-1.8438 0.46875-0.42188 0.3125-0.42188 0.84375 0 0.46875 0.40625 0.79687 0.5 0.4375 2.4688 0.90625 1.9688 0.45313 2.9062 0.95313 0.95312 0.5 1.4844 1.3594 0.53125 0.85938 0.53125 2.125 0 1.1562-0.64062 2.1562t-1.8125 1.4844q-1.1562 0.48437-2.8906 0.48437-2.5312 0-3.8906-1.1719-1.3594-1.1719-1.625-3.4062zm17.553-5.3281v2.0312h-1.75v3.9062q0 1.1875 0.04687 1.3906 0.04687 0.1875 0.21875 0.3125 0.1875 0.125 0.4375 0.125 0.35938 0 1.0312-0.25l0.21875 2q-0.89062 0.375-2.0156 0.375-0.70312 0-1.2656-0.23438-0.54688-0.23437-0.8125-0.59375-0.25-0.375-0.34375-1-0.09375-0.45312-0.09375-1.8125v-4.2188h-1.1719v-2.0312h1.1719v-1.9219l2.5781-1.5v3.4219zm3.6814 2.9531-2.3281-0.42188q0.40625-1.4062 1.3594-2.0781 0.95312-0.67188 2.8438-0.67188 1.7031 0 2.5469 0.40625t1.1719 1.0312q0.34375 0.625 0.34375 2.2812l-0.01563 3q0 1.2656 0.10938 1.875 0.125 0.60938 0.46874 1.2969h-2.5312q-0.10938-0.25-0.25-0.75-0.0625-0.23438-0.09375-0.3125-0.65625 0.64062-1.4062 0.96875-0.73438 0.3125-1.5938 0.3125-1.4844 0-2.3438-0.8125t-0.85938-2.0469q0-0.82812 0.39062-1.4688 0.39062-0.64062 1.0938-0.96875 0.70312-0.34375 2.0312-0.60937 1.7969-0.32813 2.4844-0.625v-0.25q0-0.75-0.35938-1.0625t-1.375-0.3125q-0.6875 0-1.0781 0.28125-0.375 0.26562-0.60938 0.9375zm3.4219 2.0781q-0.48438 0.15625-1.5625 0.39063-1.0625 0.21875-1.3906 0.4375-0.5 0.35937-0.5 0.90625 0 0.53125 0.40625 0.9375 0.40625 0.39062 1.0156 0.39062 0.70312 0 1.3281-0.46875 0.46875-0.34375 0.60938-0.84375 0.09375-0.32812 0.09375-1.25zm7.5007 4.6406h-2.5625v-9.6719h2.375v1.375q0.60937-0.98437 1.0938-1.2812 0.48437-0.3125 1.1094-0.3125 0.875 0 1.6875 0.48438l-0.79687 2.2344q-0.64063-0.42187-1.2031-0.42187-0.53125 0-0.90625 0.29687-0.375 0.29688-0.59375 1.0781-0.20312 0.76562-0.20312 3.2344zm9.2446-9.6719v2.0312h-1.75v3.9062q0 1.1875 0.0469 1.3906 0.0469 0.1875 0.21875 0.3125 0.1875 0.125 0.4375 0.125 0.35937 0 1.0312-0.25l0.21875 2q-0.89063 0.375-2.0156 0.375-0.70312 0-1.2656-0.23438-0.54688-0.23437-0.8125-0.59375-0.25-0.375-0.34375-1-0.0937-0.45312-0.0937-1.8125v-4.2188h-1.1719v-2.0312h1.1719v-1.9219l2.5781-1.5v3.4219zm1.1033 5.3281 2.625-0.25q0.23438 1.3125 0.95313 1.9375 0.73437 0.60937 1.9688 0.60937 1.2969 0 1.9531-0.54687 0.67188-0.54688 0.67188-1.2812 0-0.48438-0.28125-0.8125-0.28125-0.32813-0.96875-0.57813-0.48438-0.15625-2.1719-0.57812-2.1562-0.54688-3.0312-1.3281-1.2344-1.0938-1.2344-2.6875 0-1.0156 0.57812-1.9062 0.57813-0.89062 1.6562-1.3438 1.0938-0.46875 2.6406-0.46875 2.5156 0 3.7812 1.1094 1.2812 1.0938 1.3438 2.9375l-2.7031 0.10937q-0.17187-1.0312-0.75-1.4688-0.5625-0.45312-1.7031-0.45312-1.1719 0-1.8438 0.46875-0.42188 0.3125-0.42188 0.84375 0 0.46875 0.40625 0.79687 0.5 0.4375 2.4688 0.90625 1.9688 0.45313 2.9062 0.95313 0.95313 0.5 1.4844 1.3594 0.53125 0.85938 0.53125 2.125 0 1.1562-0.64063 2.1562-0.64062 1-1.8125 1.4844-1.1562 0.48437-2.8906 0.48437-2.5312 0-3.8906-1.1719-1.3594-1.1719-1.625-3.4062zm14.912 4.3438-3.0625-9.6719h2.4844l1.8125 6.3438 1.6719-6.3438h2.4688l1.6094 6.3438 1.8594-6.3438h2.5156l-3.1094 9.6719h-2.4531l-1.6719-6.2188-1.6406 6.2188zm18.308-3.0781 2.5469 0.42188q-0.48437 1.4062-1.5469 2.1406-1.0625 0.73438-2.6562 0.73438-2.5156 0-3.7344-1.6562-0.95312-1.3125-0.95312-3.3281 0-2.4062 1.25-3.7656 1.2656-1.3594 3.1875-1.3594 2.1562 0 3.4062 1.4219 1.25 1.4219 1.1875 4.375h-6.4062q0.0312 1.1406 0.60937 1.7812 0.59375 0.625 1.4844 0.625 0.59375 0 1-0.32813 0.42187-0.32812 0.625-1.0625zm0.15625-2.5938q-0.0312-1.1094-0.57813-1.6875-0.54687-0.57812-1.3281-0.57812-0.84375 0-1.3906 0.60937-0.54687 0.60938-0.53125 1.6562zm10.219 2.5938 2.5469 0.42188q-0.48437 1.4062-1.5469 2.1406-1.0625 0.73438-2.6562 0.73438-2.5156 0-3.7344-1.6562-0.95312-1.3125-0.95312-3.3281 0-2.4062 1.25-3.7656 1.2656-1.3594 3.1875-1.3594 2.1562 0 3.4062 1.4219 1.25 1.4219 1.1875 4.375h-6.4062q0.0312 1.1406 0.60937 1.7812 0.59375 0.625 1.4844 0.625 0.59375 0 1-0.32813 0.42187-0.32812 0.625-1.0625zm0.15625-2.5938q-0.0312-1.1094-0.57813-1.6875-0.54687-0.57812-1.3281-0.57812-0.84375 0-1.3906 0.60937-0.54687 0.60938-0.53125 1.6562zm4.5476-4h2.3906v1.4219q0.46875-0.73438 1.25-1.1875 0.79688-0.45313 1.7656-0.45313 1.6875 0 2.8594 1.3281 1.1719 1.3125 1.1719 3.6719 0 2.4219-1.1875 3.7656t-2.8594 1.3438q-0.8125 0-1.4688-0.3125-0.64062-0.32813-1.3594-1.0938v4.875h-2.5625zm2.5312 4.6719q0 1.625 0.64062 2.4062 0.65625 0.78125 1.5781 0.78125 0.90625 0 1.4844-0.71875 0.59375-0.71875 0.59375-2.3438 0-1.5156-0.60937-2.25-0.60938-0.75-1.5156-0.75-0.9375 0-1.5625 0.73437-0.60937 0.71875-0.60937 2.1406zm8.9428-5.9844v-2.375h2.5625v2.375zm0 10.984v-9.6719h2.5625v9.6719zm13.98 0h-2.5625v-4.9375q0-1.5625-0.17187-2.0156-0.15625-0.46875-0.53125-0.71875-0.35938-0.26562-0.875-0.26562-0.67188 0-1.2031 0.375-0.53125 0.35937-0.73437 0.96875-0.1875 0.59375-0.1875 2.2188v4.375h-2.5469v-9.6719h2.375v1.4219q1.2656-1.6406 3.1875-1.6406 0.84374 0 1.5469 0.3125 0.70313 0.29688 1.0625 0.78125 0.35938 0.46875 0.5 1.0781 0.14063 0.59375 0.14063 1.7031zm2.3647 0.64062 2.9219 0.35938q0.0625 0.5 0.32812 0.6875 0.375 0.28125 1.1562 0.28125 1 0 1.5-0.29688 0.32813-0.20312 0.51563-0.65625 0.10937-0.3125 0.10937-1.1719v-1.4062q-1.1406 1.5625-2.8906 1.5625-1.9531 0-3.0938-1.6562-0.89063-1.2969-0.89063-3.2344 0-2.4375 1.1719-3.7188 1.1719-1.2812 2.9062-1.2812 1.7969 0 2.9688 1.5781v-1.3594h2.3906v8.6719q0 1.7188-0.28125 2.5625t-0.79687 1.3281q-0.5 0.48438-1.3594 0.75-0.84375 0.28125-2.1562 0.28125-2.4531 0-3.4844-0.84375t-1.0312-2.125q0-0.14062 0.0156-0.3125zm2.2812-5.6719q0 1.5312 0.59375 2.25t1.4688 0.71875q0.9375 0 1.5781-0.73438 0.65625-0.73437 0.65625-2.1719 0-1.5156-0.625-2.2344-0.60938-0.73437-1.5625-0.73437-0.92188 0-1.5156 0.71875t-0.59375 2.1875zm13.583 8.9531h-1.75q-1.3906-2.0938-2.125-4.3594-0.73437-2.2812-0.73437-4.4062 0-2.625 0.90625-4.9688 0.78125-2.0469 1.9844-3.7656h1.75q-1.25 2.75-1.7188 4.6875t-0.46875 4.1094q0 1.5 0.28125 3.0625t0.76563 2.9688q0.3125 0.9375 1.1094 2.6719zm1.2596 0q0.76563-1.6094 1.0625-2.4844 0.3125-0.85938 0.57813-1.9844 0.26562-1.1406 0.39062-2.1562 0.125-1.0156 0.125-2.0781 0-2.1719-0.46875-4.1094-0.45312-1.9375-1.7031-4.6875h1.7344q1.375 1.9531 2.1406 4.1562 0.76562 2.1875 0.76562 4.4531 0 1.9062-0.60937 4.0781-0.67188 2.4375-2.25 4.8125z" fill="#38761d"/>
  <path d="m621.86 27.751h133.61v52.756h-133.61z" fill="#c27ba0" fill-rule="evenodd"/>
  <path d="m621.86 27.751h133.61v52.756h-133.61z" fill-rule="evenodd" stroke="#741b47" stroke-linecap="butt" stroke-linejoin="round" stroke-width="2"/>
  <path d="m653.13 61.049v-8.5469h-1.5625v-1.3125h1.5625v-0.82812q0-1.6562 0.9375-2.5781t2.6719-0.92188q1.0156 0 2.5781 0.5625l-0.28125 1.4219q-1.1406-0.45312-2.1719-0.45312-1.0938 0-1.5781 0.48438-0.46875 0.48438-0.46875 1.4531v0.85938h2.0156v1.3125h-2.0156v8.5469zm7.0156 0h-1.6875v-9.8594h1.6875zm4.3458-9.8594 0.0469 1.2344q1.125-1.4062 2.9531-1.4062 3.125 0 3.1562 3.5156v6.5156h-1.6875v-6.5156q-0.0156-1.0781-0.5-1.5781-0.46875-0.51562-1.4844-0.51562-0.8125 0-1.4375 0.4375-0.60937 0.4375-0.96875 1.1562v7.0156h-1.6719v-9.8594zm14.778 9.8594q-0.14063-0.29688-0.23438-1.0312-1.1719 1.2188-2.8125 1.2188-1.4531 0-2.3906-0.82812-0.92188-0.82812-0.92188-2.0938 0-1.5312 1.1562-2.375 1.1719-0.85938 3.2969-0.85938h1.6406v-0.78125q0-0.89062-0.53125-1.4062-0.51562-0.53125-1.5469-0.53125-0.90625 0-1.5156 0.46875-0.60937 0.45312-0.60937 1.0938h-1.7031q0-0.73438 0.51563-1.4219 0.53125-0.6875 1.4219-1.0781 0.90625-0.40625 1.9844-0.40625 1.7031 0 2.6719 0.85938 0.96875 0.84375 1 2.3281v4.5312q0 1.3594 0.34375 2.1719v0.14062zm-2.7969-1.2812q0.79688 0 1.5-0.40625 0.71875-0.42188 1.0312-1.0781v-2.0156h-1.3125q-3.1094 0-3.1094 1.8125 0 0.79688 0.53125 1.25 0.53125 0.4375 1.3594 0.4375zm8.6949 1.2812h-1.6875v-14h1.6875zm4.5274 0h-1.6875v-9.8594h1.6875zm-1.8281-12.469q0-0.40625 0.25-0.6875 0.25-0.29688 0.73437-0.29688 0.5 0 0.75 0.29688 0.26563 0.28125 0.26563 0.6875t-0.26563 0.6875q-0.25 0.26562-0.75 0.26562-0.48437 0-0.73437-0.26562-0.25-0.28125-0.25-0.6875zm6.1055 11.094h5.7656v1.375h-7.8281v-1.2344l5.4375-7.2344h-5.3438v-1.3906h7.4688v1.2031zm11.6 1.5625q-2 0-3.2656-1.3125-1.25-1.3281-1.25-3.5312v-0.3125q0-1.4688 0.5625-2.6094 0.5625-1.1562 1.5625-1.7969 1.0156-0.65625 2.1875-0.65625 1.9219 0 2.9844 1.2656t1.0625 3.625v0.6875h-6.6719q0.0312 1.4688 0.84375 2.375 0.82813 0.89062 2.0781 0.89062 0.89062 0 1.5156-0.35938 0.625-0.375 1.0781-0.96875l1.0312 0.79688q-1.2344 1.9062-3.7188 1.9062zm-0.20313-8.8438q-1.0156 0-1.7188 0.75-0.6875 0.73438-0.84375 2.0781h4.9375v-0.125q-0.0781-1.2812-0.70312-1.9844-0.60938-0.71875-1.6719-0.71875zm10.774 0.3125q-0.39063-0.0625-0.84375-0.0625-1.6562 0-2.25 1.4062v7h-1.6719v-9.8594h1.6406l0.0156 1.1406q0.82813-1.3125 2.3594-1.3125 0.48437 0 0.75 0.125zm7.2816 5.7344q0-0.6875-0.51562-1.0625-0.51563-0.375-1.7969-0.64062-1.2812-0.28125-2.0312-0.65625-0.75-0.39062-1.1094-0.92188-0.35938-0.53125-0.35938-1.2656 0-1.2031 1.0156-2.0312 1.0312-0.84375 2.625-0.84375 1.6719 0 2.7188 0.85938 1.0469 0.85938 1.0469 2.2188h-1.6875q0-0.70312-0.59375-1.2031t-1.4844-0.5q-0.92188 0-1.4375 0.40625-0.51563 0.39062-0.51563 1.0469 0 0.60938 0.48438 0.92188 0.48437 0.3125 1.7344 0.59375 1.2656 0.28125 2.0469 0.67188t1.1562 0.9375q0.39062 0.54688 0.39062 1.3438 0 1.3281-1.0625 2.125-1.0469 0.79688-2.7344 0.79688-1.1875 0-2.1094-0.42188-0.90625-0.42188-1.4219-1.1719-0.51563-0.75-0.51563-1.625h1.6875q0.0469 0.84375 0.67188 1.3438 0.64062 0.5 1.6875 0.5 0.95312 0 1.5312-0.39062 0.57812-0.39062 0.57812-1.0312z" fill="#fff"/>
  <g fill-rule="evenodd">
   <path d="m688.66 80.507v84.283h-75.213" fill="#000" fill-opacity="0"/>
   <path d="m688.66 92.507v72.283h-75.213" stroke="#a64d79" stroke-linecap="butt" stroke-linejoin="round" stroke-width="2"/>
   <path d="m691.97 92.507-3.3035-9.0762-3.3035 9.0762z" fill="#a64d79" stroke="#a64d79" stroke-linecap="butt" stroke-width="2"/>
   <path d="m615.61 158.8h105.45v25.449h-105.45z" fill="#000" fill-opacity="0"/>
  </g>
  <path d="m625.97 185.72v-13.359h5.6875q2.1406 0 3.1094 0.35938 0.96875 0.35937 1.5469 1.2812 0.57812 0.92187 0.57812 2.1094 0 1.5-0.89062 2.4844-0.875 0.96875-2.625 1.2344 0.875 0.5 1.4375 1.125 0.57812 0.60938 1.5312 2.1562l1.6406 2.6094h-3.2344l-1.9375-2.9062q-1.0469-1.5625-1.4375-1.9688-0.375-0.40625-0.8125-0.54688-0.42188-0.15625-1.3438-0.15625h-0.54688v5.5781zm2.7031-7.7031h2q1.9375 0 2.4219-0.15625 0.48437-0.17187 0.75-0.57812 0.28125-0.40625 0.28125-1 0-0.67188-0.35938-1.0781-0.35937-0.42187-1.0156-0.53125-0.32813-0.0469-1.9688-0.0469h-2.1094zm16.348 4.625 2.5469 0.42188q-0.48438 1.4062-1.5469 2.1406-1.0625 0.73438-2.6562 0.73438-2.5156 0-3.7344-1.6562-0.95313-1.3125-0.95313-3.3281 0-2.4062 1.25-3.7656 1.2656-1.3594 3.1875-1.3594 2.1562 0 3.4062 1.4219 1.25 1.4219 1.1875 4.375h-6.4062q0.0312 1.1406 0.60938 1.7812 0.59375 0.625 1.4844 0.625 0.59375 0 1-0.32813 0.42188-0.32812 0.625-1.0625zm0.15625-2.5938q-0.0312-1.1094-0.57812-1.6875-0.54688-0.57812-1.3281-0.57812-0.84375 0-1.3906 0.60937-0.54688 0.60938-0.53125 1.6562zm4.4226-4h2.3594v1.3125q1.2656-1.5312 3.0156-1.5312 0.9375 0 1.6094 0.39063 0.6875 0.375 1.125 1.1406 0.64062-0.76562 1.375-1.1406 0.75-0.39063 1.5781-0.39063 1.0625 0 1.7969 0.4375 0.75 0.42188 1.1094 1.2656 0.26563 0.625 0.26563 2v6.1875h-2.5625v-5.5312q0-1.4375-0.26563-1.8594-0.34375-0.54687-1.0938-0.54687-0.53125 0-1.0156 0.32812-0.46875 0.32813-0.67188 0.96875-0.20312 0.625-0.20312 2v4.6406h-2.5625v-5.2969q0-1.4219-0.14063-1.8281-0.14062-0.40625-0.42187-0.60938-0.28125-0.20312-0.78125-0.20312-0.59375 0-1.0625 0.32812-0.46875 0.3125-0.6875 0.92188-0.20313 0.59375-0.20313 1.9844v4.7031h-2.5625zm16.198 4.7031q0-1.2812 0.625-2.4688 0.625-1.2031 1.7812-1.8281t2.5781-0.625q2.1875 0 3.5938 1.4219 1.4062 1.4219 1.4062 3.6094t-1.4219 3.6406q-1.4219 1.4375-3.5625 1.4375-1.3281 0-2.5469-0.59375-1.2031-0.60938-1.8281-1.7656-0.625-1.1719-0.625-2.8281zm2.625 0.125q0 1.4531 0.67187 2.2188 0.6875 0.75 1.6875 0.75t1.6719-0.75q0.6875-0.76563 0.6875-2.2344 0-1.4219-0.6875-2.1875-0.67188-0.76562-1.6719-0.76562t-1.6875 0.76562q-0.67187 0.76563-0.67187 2.2031zm12.021 4.8438-3.9062-9.6719h2.6875l1.8281 4.9375 0.53125 1.6406q0.20312-0.625 0.26562-0.82813 0.125-0.40625 0.26563-0.8125l1.8438-4.9375h2.625l-3.8438 9.6719zm13.313-3.0781 2.5469 0.42188q-0.48438 1.4062-1.5469 2.1406-1.0625 0.73438-2.6562 0.73438-2.5156 0-3.7344-1.6562-0.95313-1.3125-0.95313-3.3281 0-2.4062 1.25-3.7656 1.2656-1.3594 3.1875-1.3594 2.1562 0 3.4062 1.4219 1.25 1.4219 1.1875 4.375h-6.4062q0.0312 1.1406 0.60938 1.7812 0.59375 0.625 1.4844 0.625 0.59375 0 1-0.32813 0.42188-0.32812 0.625-1.0625zm0.15625-2.5938q-0.0312-1.1094-0.57812-1.6875-0.54688-0.57812-1.3281-0.57812-0.84375 0-1.3906 0.60937-0.54688 0.60938-0.53125 1.6562zm8.8601 9.5938h-1.75q-1.3906-2.0938-2.125-4.3594-0.73437-2.2812-0.73437-4.4062 0-2.625 0.90625-4.9688 0.78125-2.0469 1.9844-3.7656h1.75q-1.25 2.75-1.7188 4.6875t-0.46875 4.1094q0 1.5 0.28125 3.0625t0.76563 2.9688q0.3125 0.9375 1.1094 2.6719zm1.2595 0q0.76563-1.6094 1.0625-2.4844 0.3125-0.85938 0.57813-1.9844 0.26562-1.1406 0.39062-2.1562 0.125-1.0156 0.125-2.0781 0-2.1719-0.46875-4.1094-0.45312-1.9375-1.7031-4.6875h1.7344q1.375 1.9531 2.1406 4.1562 0.76562 2.1875 0.76562 4.4531 0 1.9062-0.60937 4.0781-0.67188 2.4375-2.25 4.8125z" fill="#741b47"/>
  <path d="m21.871 316.28h177.13v37.386h-177.13z" fill="#000" fill-opacity="0" fill-rule="evenodd"/>
  <path d="m31.496 343.2 2.7812-13.359h1.6562l-1 4.7812q0.78125-0.71875 1.4219-1.0156 0.64062-0.29687 1.3281-0.29687 1.3594 0 2.2656 1.0156 0.90625 1 0.90625 2.9375 0 1.2812-0.375 2.3594-0.35938 1.0625-0.89062 1.7812t-1.1094 1.1562-1.1875 0.64062q-0.59375 0.21875-1.1406 0.21875-0.96875 0-1.7031-0.5-0.71875-0.51562-1.125-1.5469l-0.39062 1.8281zm2.4375-3.9688-0.01563 0.3125q0 1.2344 0.59375 1.8906 0.59375 0.64062 1.4844 0.64062 0.85938 0 1.5781-0.60937 0.73438-0.60938 1.1875-1.8906 0.46875-1.2812 0.46875-2.375 0-1.2188-0.59375-1.8906-0.57812-0.67188-1.4375-0.67188-0.90625 0-1.6562 0.6875-0.73438 0.6875-1.2344 2.125-0.375 1.0625-0.375 1.7812zm14.454 2.7656q-0.85938 0.73437-1.6562 1.0781-0.78125 0.34375-1.6875 0.34375-1.3438 0-2.1719-0.78125-0.8125-0.79687-0.8125-2.0312 0-0.79687 0.375-1.4219t0.98438-1q0.60938-0.39063 1.4844-0.54688 0.5625-0.10937 2.1094-0.17187 1.5625-0.0625 2.2344-0.32813 0.1875-0.67187 0.1875-1.125 0-0.57812-0.42188-0.90625-0.5625-0.45312-1.6719-0.45312-1.0312 0-1.7031 0.46875-0.65625 0.45312-0.95312 1.2969l-1.6719-0.14062q0.51562-1.4375 1.6094-2.2031 1.1094-0.76562 2.7969-0.76562 1.7969 0 2.8438 0.85937 0.79688 0.625 0.79688 1.6562 0 0.76563-0.21875 1.7969l-0.53125 2.4062q-0.26562 1.1406-0.26562 1.8594 0 0.45313 0.20312 1.3125h-1.6719q-0.125-0.46875-0.1875-1.2031zm0.60938-3.7031q-0.34375 0.14063-0.75 0.21875-0.39062 0.0625-1.3125 0.15625-1.4375 0.125-2.0312 0.32813-0.59375 0.1875-0.90625 0.625-0.29688 0.42187-0.29688 0.9375 0 0.6875 0.48438 1.1406 0.48438 0.4375 1.3594 0.4375 0.82812 0 1.5781-0.42187 0.75-0.4375 1.1875-1.2031 0.4375-0.78125 0.6875-2.2188zm9.9226 1.375 1.6562 0.17188q-0.625 1.8125-1.7656 2.7031-1.1406 0.875-2.6094 0.875-1.5781 0-2.5625-1.0156-0.96875-1.0312-0.96875-2.8594 0-1.5781 0.625-3.1094 0.64062-1.5312 1.7969-2.3281 1.1719-0.79687 2.6875-0.79687 1.5469 0 2.4531 0.875 0.92188 0.875 0.92188 2.3281l-1.625 0.10938q-0.01563-0.92188-0.54688-1.4375-0.51562-0.51563-1.3594-0.51563-1 0-1.7344 0.625-0.71875 0.625-1.1406 1.9062-0.40625 1.2812-0.40625 2.4688 0 1.2344 0.54688 1.8594 0.54688 0.60937 1.3438 0.60937t1.5312-0.60937q0.73438-0.60938 1.1562-1.8594zm2.6719 3.5312 2.7969-13.359h1.6406l-1.7344 8.2812 4.8125-4.5938h2.1719l-4.125 3.6094 2.5 6.0625h-1.8125l-1.9219-4.9688-2.0156 1.7344-0.67188 3.2344zm9.2188 0.875 1.6719 0.15625q-0.03125 0.5625 0.125 0.84375t0.5 0.4375q0.4375 0.20313 1.1562 0.20313 1.4844 0 2.1406-0.78125 0.4375-0.51563 0.79688-2.25l0.17188-0.78125q-1.2969 1.2969-2.7344 1.2969-1.4688 0-2.4688-1.0781-0.98438-1.0781-0.98438-3.0625 0-1.625 0.78125-2.9844 0.78125-1.375 1.8594-2.0625 1.0781-0.70312 2.2031-0.70312 1.9062 0 2.9375 1.7969l0.32812-1.5781h1.5156l-1.9531 9.3281q-0.3125 1.5469-0.84375 2.4062-0.51562 0.85938-1.4375 1.3281-0.92188 0.48437-2.1406 0.48437-1.1562 0-2-0.3125-0.84375-0.29687-1.2656-0.875-0.40625-0.57812-0.40625-1.3281 0-0.21875 0.04687-0.48438zm2.0625-5.1562q0 1 0.1875 1.5 0.26562 0.6875 0.76562 1.0625 0.51562 0.375 1.1406 0.375 0.8125 0 1.6094-0.5625 0.79688-0.57812 1.2969-1.7656 0.5-1.2031 0.5-2.2812 0-1.2031-0.67188-1.9062-0.65625-0.70313-1.625-0.70313-0.60938 0-1.1719 0.32813-0.5625 0.3125-1.0469 0.98437-0.48438 0.65625-0.73438 1.5781-0.25 0.92187-0.25 1.3906zm8.407 4.2812 2.0156-9.6719h1.4531l-0.40625 1.9688q0.75-1.1094 1.4531-1.6406 0.71875-0.54687 1.4688-0.54687 0.5 0 1.2188 0.35937l-0.67188 1.5312q-0.4375-0.3125-0.9375-0.3125-0.875 0-1.7812 0.96875-0.90625 0.95313-1.4375 3.4688l-0.8125 3.875zm6.4939-3.6719q0-2.8281 1.6719-4.6875 1.375-1.5312 3.6094-1.5312 1.75 0 2.8125 1.0938 1.0781 1.0938 1.0781 2.9531 0 1.6562-0.67188 3.0938t-1.9219 2.2031q-1.25 0.76562-2.625 0.76562-1.125 0-2.0469-0.48437-0.92188-0.48438-1.4219-1.3594-0.48438-0.89062-0.48438-2.0469zm1.6562-0.15625q0 1.3594 0.65625 2.0625 0.65625 0.70312 1.6562 0.70312 0.53125 0 1.0469-0.20312 0.53125-0.21875 0.96875-0.65625 0.45312-0.4375 0.76562-1t0.5-1.2031q0.28125-0.90625 0.28125-1.7344 0-1.3125-0.65625-2.0312-0.65625-0.73438-1.6562-0.73438-0.78125 0-1.4219 0.375-0.625 0.375-1.1406 1.0938-0.51562 0.70313-0.76562 1.6406-0.23438 0.9375-0.23438 1.6875zm15.032 2.0781q-1.7344 1.9688-3.5625 1.9688-1.1094 0-1.7969-0.64062-0.6875-0.64063-0.6875-1.5781 0-0.60937 0.29688-2.0938l1.1719-5.5781h1.6562l-1.2969 6.1875q-0.17188 0.76562-0.17188 1.2031 0 0.54688 0.32813 0.85938 0.34375 0.29687 0.98437 0.29687 0.70313 0 1.3594-0.32812 0.65625-0.34375 1.125-0.92188 0.48437-0.57812 0.79687-1.3594 0.1875-0.5 0.45313-1.7656l0.875-4.1719h1.6562l-2.0312 9.6719h-1.5156zm3.782 1.75 2.0156-9.6719h1.5l-0.35938 1.6875q0.96875-1 1.8125-1.4531 0.85938-0.45312 1.7344-0.45312 1.1875 0 1.8438 0.64062 0.67187 0.625 0.67187 1.7031 0 0.53125-0.23437 1.6875l-1.2344 5.8594h-1.6406l1.2812-6.125q0.1875-0.89062 0.1875-1.3281 0-0.48438-0.32813-0.78125-0.32812-0.29688-0.95312-0.29688-1.2812 0-2.2656 0.90625-0.98437 0.90625-1.4531 3.125l-0.9375 4.5zm16.891-1.4062q-1.4062 1.625-2.9531 1.625-1.375 0-2.2969-1.0156-0.90625-1.0156-0.90625-2.9531 0-1.7656 0.71875-3.2188 0.73437-1.4688 1.8125-2.1875 1.0938-0.73437 2.1875-0.73437 1.7969 0 2.7188 1.7344l1.0938-5.2031h1.6406l-2.7812 13.359h-1.5312zm-4.5156-2.6406q0 1 0.20313 1.5938 0.20312 0.57812 0.67187 0.96875 0.48438 0.375 1.1719 0.375 1.1094 0 2.0312-1.1562 1.2188-1.5469 1.2188-3.8281 0-1.1406-0.60938-1.7812-0.59375-0.65625-1.5156-0.65625-0.59375 0-1.0781 0.26563-0.48437 0.26562-0.96875 0.90625-0.46875 0.625-0.79687 1.5938-0.32813 0.96875-0.32813 1.7188zm17.403 2.7031-0.26562 1.3594q-0.59375 0.14062-1.1562 0.14062-0.98438 0-1.5625-0.46875-0.4375-0.375-0.4375-1 0-0.3125 0.23437-1.4688l1.1719-5.625h-1.2969l0.26563-1.2656h1.2969l0.5-2.375 1.8906-1.1406-0.73438 3.5156h1.625l-0.28125 1.2656h-1.6094l-1.125 5.3594q-0.20313 1.0156-0.20313 1.2188 0 0.28125 0.15625 0.4375 0.17188 0.15625 0.5625 0.15625 0.54688 0 0.96875-0.10938zm7.8552 0.14063q-0.85937 0.73437-1.6562 1.0781-0.78125 0.34375-1.6875 0.34375-1.3438 0-2.1719-0.78125-0.8125-0.79687-0.8125-2.0312 0-0.79687 0.375-1.4219t0.98437-1q0.60938-0.39063 1.4844-0.54688 0.5625-0.10937 2.1094-0.17187 1.5625-0.0625 2.2344-0.32813 0.1875-0.67187 0.1875-1.125 0-0.57812-0.42188-0.90625-0.5625-0.45312-1.6719-0.45312-1.0312 0-1.7031 0.46875-0.65625 0.45312-0.95312 1.2969l-1.6719-0.14062q0.51563-1.4375 1.6094-2.2031 1.1094-0.76562 2.7969-0.76562 1.7969 0 2.8438 0.85937 0.79688 0.625 0.79688 1.6562 0 0.76563-0.21875 1.7969l-0.53125 2.4062q-0.26563 1.1406-0.26563 1.8594 0 0.45313 0.20313 1.3125h-1.6719q-0.125-0.46875-0.1875-1.2031zm0.60938-3.7031q-0.34375 0.14063-0.75 0.21875-0.39063 0.0625-1.3125 0.15625-1.4375 0.125-2.0312 0.32813-0.59375 0.1875-0.90625 0.625-0.29688 0.42187-0.29688 0.9375 0 0.6875 0.48438 1.1406 0.48437 0.4375 1.3594 0.4375 0.82813 0 1.5781-0.42187 0.75-0.4375 1.1875-1.2031 0.4375-0.78125 0.6875-2.2188zm3.407 1.5938 1.6406-0.0937q0 0.70313 0.21875 1.2188 0.21875 0.5 0.79687 0.8125 0.59375 0.3125 1.375 0.3125 1.0938 0 1.6406-0.4375 0.54687-0.4375 0.54687-1.0156 0-0.4375-0.32812-0.8125-0.32813-0.39063-1.6406-0.95313t-1.6719-0.78125q-0.60938-0.375-0.92188-0.875-0.3125-0.51562-0.3125-1.1719 0-1.1406 0.90625-1.9531 0.92188-0.82812 2.5625-0.82812 1.8281 0 2.7656 0.84375 0.95312 0.84375 1 2.2188l-1.6094 0.10937q-0.0469-0.875-0.625-1.3906-0.57812-0.51563-1.6562-0.51563-0.84375 0-1.3281 0.40625-0.46875 0.39063-0.46875 0.84375 0 0.45313 0.40625 0.79688 0.28125 0.23437 1.4219 0.73437 1.8906 0.8125 2.375 1.2812 0.78125 0.76563 0.78125 1.8438 0 0.71875-0.4375 1.4219-0.4375 0.6875-1.3438 1.1094-0.90625 0.40625-2.1406 0.40625-1.6719 0-2.8438-0.82812-1.1875-0.82813-1.1094-2.7031zm9.1875 3.3125 2.7969-13.359h1.6406l-1.7344 8.2812 4.8125-4.5938h2.1719l-4.125 3.6094 2.5 6.0625h-1.8125l-1.9219-4.9688-2.0156 1.7344-0.67187 3.2344z" fill="#3d85c6"/>
  <path d="m21.871 54.759h157.51v37.386h-157.51z" fill="#000" fill-opacity="0" fill-rule="evenodd"/>
  <path d="m31.481 81.679 2.0156-9.6719h1.6562l-0.34375 1.5938q0.92188-1.0312 1.6406-1.4219 0.73438-0.39062 1.5781-0.39062 0.90625 0 1.5156 0.48438 0.60938 0.46875 0.79688 1.3281 0.73438-0.90625 1.5469-1.3594t1.7188-0.45312q1.2188 0 1.8125 0.57812 0.60938 0.5625 0.60938 1.6094 0 0.4375-0.20312 1.4688l-1.3125 6.2344h-1.6406l1.3281-6.3906q0.17188-0.78125 0.17188-1.125 0-0.46875-0.29688-0.73438-0.29688-0.28125-0.84375-0.28125-0.75 0-1.5156 0.45312-0.76562 0.4375-1.1875 1.1719-0.42188 0.71875-0.73438 2.2188l-0.98438 4.6875h-1.6562l1.375-6.5312q0.14062-0.67188 0.14062-0.95312 0-0.46875-0.29688-0.75-0.29688-0.29688-0.76562-0.29688-0.70312 0-1.4844 0.45312-0.76562 0.4375-1.25 1.2344-0.46875 0.79688-0.78125 2.2656l-0.95312 4.5781zm22.072-1.2031q-0.85938 0.73438-1.6562 1.0781-0.78125 0.34375-1.6875 0.34375-1.3438 0-2.1719-0.78125-0.8125-0.79688-0.8125-2.0312 0-0.79688 0.375-1.4219t0.98438-1q0.60938-0.39062 1.4844-0.54688 0.5625-0.10938 2.1094-0.17188 1.5625-0.0625 2.2344-0.32812 0.1875-0.67188 0.1875-1.125 0-0.57812-0.42188-0.90625-0.5625-0.45312-1.6719-0.45312-1.0312 0-1.7031 0.46875-0.65625 0.45312-0.95312 1.2969l-1.6719-0.14062q0.51562-1.4375 1.6094-2.2031 1.1094-0.76562 2.7969-0.76562 1.7969 0 2.8438 0.85938 0.79688 0.625 0.79688 1.6562 0 0.76562-0.21875 1.7969l-0.53125 2.4062q-0.26562 1.1406-0.26562 1.8594 0 0.45312 0.20312 1.3125h-1.6719q-0.125-0.46875-0.1875-1.2031zm0.60938-3.7031q-0.34375 0.14062-0.75 0.21875-0.39062 0.0625-1.3125 0.15625-1.4375 0.125-2.0312 0.32812-0.59375 0.1875-0.90625 0.625-0.29688 0.42188-0.29688 0.9375 0 0.6875 0.48438 1.1406 0.48438 0.4375 1.3594 0.4375 0.82812 0 1.5781-0.42188 0.75-0.4375 1.1875-1.2031 0.4375-0.78125 0.6875-2.2188zm5.5788-6.5781 0.40625-1.875h1.625l-0.39062 1.875zm-2.3906 11.484 2.0156-9.6719h1.6562l-2.0312 9.6719zm4.2073 0 2.0156-9.6719h1.5l-0.35938 1.6875q0.96875-1 1.8125-1.4531 0.85938-0.45312 1.7344-0.45312 1.1875 0 1.8438 0.64062 0.67188 0.625 0.67188 1.7031 0 0.53125-0.23438 1.6875l-1.2344 5.8594h-1.6406l1.2812-6.125q0.1875-0.89062 0.1875-1.3281 0-0.48438-0.32812-0.78125t-0.95312-0.29688q-1.2812 0-2.2656 0.90625t-1.4531 3.125l-0.9375 4.5zm19.403-1.3438-0.26562 1.3594q-0.59375 0.14062-1.1562 0.14062-0.98438 0-1.5625-0.46875-0.4375-0.375-0.4375-1 0-0.3125 0.23438-1.4688l1.1719-5.625h-1.2969l0.26562-1.2656h1.2969l0.5-2.375 1.8906-1.1406-0.73438 3.5156h1.625l-0.28125 1.2656h-1.6094l-1.125 5.3594q-0.20312 1.0156-0.20312 1.2188 0 0.28125 0.15625 0.4375 0.17188 0.15625 0.5625 0.15625 0.54688 0 0.96875-0.10938zm1.3396 1.3438 2.7812-13.359h1.6562l-1.0781 5.1406q0.92188-0.90625 1.7188-1.2812 0.79688-0.39062 1.625-0.39062 1.2031 0 1.8594 0.64062 0.67188 0.625 0.67188 1.6562 0 0.51562-0.28125 1.875l-1.2031 5.7188h-1.6406l1.2344-5.8594q0.25-1.2656 0.25-1.5938 0-0.48438-0.32812-0.78125t-0.9375-0.29688q-0.89062 0-1.7031 0.46875t-1.2812 1.2812q-0.45312 0.8125-0.82812 2.625l-0.875 4.1562zm10.376 0 2.0156-9.6719h1.4531l-0.40625 1.9688q0.75-1.1094 1.4531-1.6406 0.71875-0.54688 1.4688-0.54688 0.5 0 1.2188 0.35938l-0.67188 1.5312q-0.4375-0.3125-0.9375-0.3125-0.875 0-1.7812 0.96875-0.90625 0.95312-1.4375 3.4688l-0.8125 3.875zm13.306-3.2812 1.6094 0.15625q-0.34375 1.1875-1.5938 2.2656-1.2344 1.0781-2.9688 1.0781-1.0625 0-1.9688-0.5-0.89062-0.5-1.3594-1.4375-0.46875-0.95312-0.46875-2.1562 0-1.5938 0.73438-3.0781t1.8906-2.2031q1.1719-0.73438 2.5312-0.73438 1.7344 0 2.7656 1.0781 1.0312 1.0625 1.0312 2.9219 0 0.71875-0.125 1.4688h-7.125q-0.0469 0.28125-0.0469 0.5 0 1.3594 0.625 2.0781t1.5312 0.71875q0.84375 0 1.6562-0.54688 0.82812-0.5625 1.2812-1.6094zm-4.7812-2.4062h5.4219q0.0156-0.25 0.0156-0.35938 0-1.2344-0.625-1.8906-0.625-0.67188-1.5938-0.67188-1.0625 0-1.9375 0.73438-0.85938 0.71875-1.2812 2.1875zm14.579 4.4844q-0.85937 0.73438-1.6562 1.0781-0.78125 0.34375-1.6875 0.34375-1.3438 0-2.1719-0.78125-0.8125-0.79688-0.8125-2.0312 0-0.79688 0.375-1.4219t0.98437-1q0.60938-0.39062 1.4844-0.54688 0.5625-0.10938 2.1094-0.17188 1.5625-0.0625 2.2344-0.32812 0.1875-0.67188 0.1875-1.125 0-0.57812-0.42188-0.90625-0.5625-0.45312-1.6719-0.45312-1.0312 0-1.7031 0.46875-0.65625 0.45312-0.95312 1.2969l-1.6719-0.14062q0.51563-1.4375 1.6094-2.2031 1.1094-0.76562 2.7969-0.76562 1.7969 0 2.8438 0.85938 0.79688 0.625 0.79688 1.6562 0 0.76562-0.21875 1.7969l-0.53125 2.4062q-0.26563 1.1406-0.26563 1.8594 0 0.45312 0.20313 1.3125h-1.6719q-0.125-0.46875-0.1875-1.2031zm0.60938-3.7031q-0.34375 0.14062-0.75 0.21875-0.39063 0.0625-1.3125 0.15625-1.4375 0.125-2.0312 0.32812-0.59375 0.1875-0.90625 0.625-0.29688 0.42188-0.29688 0.9375 0 0.6875 0.48438 1.1406 0.48437 0.4375 1.3594 0.4375 0.82813 0 1.5781-0.42188 0.75-0.4375 1.1875-1.2031 0.4375-0.78125 0.6875-2.2188zm9.7663 3.5q-1.4062 1.625-2.9531 1.625-1.375 0-2.2969-1.0156-0.90625-1.0156-0.90625-2.9531 0-1.7656 0.71875-3.2188 0.73437-1.4688 1.8125-2.1875 1.0938-0.73438 2.1875-0.73438 1.7969 0 2.7188 1.7344l1.0937-5.2031h1.6406l-2.7812 13.359h-1.5312zm-4.5156-2.6406q0 1 0.20313 1.5938 0.20312 0.57812 0.67187 0.96875 0.48438 0.375 1.1719 0.375 1.1094 0 2.0312-1.1562 1.2188-1.5469 1.2188-3.8281 0-1.1406-0.60938-1.7812-0.59375-0.65625-1.5156-0.65625-0.59375 0-1.0781 0.26562-0.48437 0.26562-0.96875 0.90625-0.46875 0.625-0.79687 1.5938-0.32813 0.96875-0.32813 1.7188z" fill="#3d85c6"/>
  <path d="m821.03 172.99h86.362v52.756h-86.362z" fill="#a4c2f4" fill-rule="evenodd"/>
  <path d="m821.03 172.99h86.362v52.756h-86.362z" fill-rule="evenodd" stroke="#3c78d8" stroke-linecap="butt" stroke-linejoin="round" stroke-width="2"/>
  <path d="m834.93 206.28 1.5-8.5469h-1.5156l0.21875-1.3125h1.5156l0.15625-1.1562q0.25-1.4844 1.1562-2.3281 0.95312-0.875 2.4375-0.85938 0.46875 0 1.1719 0.15625l-0.1875 1.375q-0.4375-0.0937-0.89062-0.10937-0.85938 0-1.3906 0.53125t-0.65625 1.4219l-0.14062 0.96875h2.0312l-0.21875 1.3125h-2.0469l-1.4844 8.5469zm11.705-8.3594-0.76562-0.0781q-1.5938 0-2.5 1.4375l-1.2031 7h-1.6562l1.7188-9.8594h1.5938l-0.25 1.1406q1.0469-1.375 2.4688-1.3438 0.29688 0 0.78125 0.14062zm4.1801 8.5469q-1.8438-0.0469-2.8906-1.3594-1.0312-1.3281-0.85937-3.3906l0.0469-0.39063q0.15625-1.4531 0.85938-2.6719 0.71875-1.2188 1.75-1.8281 1.0312-0.60937 2.2188-0.57812 1.5312 0.0312 2.3906 1.0156 0.85938 0.96875 0.95313 2.625 0.0156 0.59375-0.0469 1.1875l-0.0937 0.75h-6.4375q-0.17187 1.3438 0.4375 2.2812 0.60938 0.9375 1.8125 0.98438 1.4531 0.0312 2.6875-1.3125l0.95313 0.79687q-0.625 0.89063-1.6094 1.4062-0.96875 0.5-2.1719 0.48438zm1.0469-8.8438q-1.0156-0.0312-1.7812 0.6875-0.76562 0.71875-1.2031 2.1406h4.7812l0.0469-0.14062q0.14063-1.1406-0.375-1.9062-0.51562-0.76563-1.4688-0.78125zm8.6274 8.8438q-1.8438-0.0469-2.8906-1.3594-1.0312-1.3281-0.85938-3.3906l0.0469-0.39063q0.15625-1.4531 0.85937-2.6719 0.71875-1.2188 1.75-1.8281 1.0312-0.60937 2.2188-0.57812 1.5312 0.0312 2.3906 1.0156 0.85937 0.96875 0.95312 2.625 0.0156 0.59375-0.0469 1.1875l-0.0937 0.75h-6.4375q-0.17188 1.3438 0.4375 2.2812 0.60937 0.9375 1.8125 0.98438 1.4531 0.0312 2.6875-1.3125l0.95312 0.79687q-0.625 0.89063-1.6094 1.4062-0.96875 0.5-2.1719 0.48438zm1.0469-8.8438q-1.0156-0.0312-1.7812 0.6875-0.76563 0.71875-1.2031 2.1406h4.7812l0.0469-0.14062q0.14062-1.1406-0.375-1.9062-0.51563-0.76563-1.4688-0.78125zm10.716 8.6562h-1.6406l2.4219-14h1.6562zm4.4819 0h-1.6406l1.7188-9.8594h1.6406zm1.3594-13.453q0.42187-0.0156 0.70312 0.25 0.28125 0.26563 0.28125 0.70313-0.0156 0.4375-0.28125 0.70312-0.26562 0.26563-0.70312 0.29688-0.42188 0.0156-0.70313-0.25-0.26562-0.26563-0.26562-0.6875 0.0156-0.4375 0.28125-0.71875 0.26562-0.28125 0.6875-0.29688zm7.4507 10.781q0.125-1.0156-1.1251-1.4375l-1.7188-0.5q-2.1562-0.75-2.0938-2.4844 0.0625-1.2969 1.1875-2.125 1.125-0.84375 2.6562-0.8125 1.4844 0.0156 2.4219 0.875 0.9375 0.84375 0.90625 2.2031h-1.6406q0.0156-0.75-0.46875-1.2031-0.48437-0.46875-1.2813-0.48438-0.85937-0.0156-1.4844 0.42188-0.57813 0.40625-0.65625 1.0625-0.125 0.85937 1.0469 1.25l0.82813 0.23437q1.6876 0.4375 2.3907 1.1406 0.71875 0.70312 0.67188 1.7344-0.0625 0.92188-0.60938 1.6094-0.54687 0.67187-1.4531 1.0312-0.90631 0.35937-1.9376 0.34375-1.5781-0.0312-2.5938-0.92188-1.0156-0.89062-0.98438-2.3125l1.6562 0.0156q0 0.82812 0.51563 1.3281 0.53125 0.5 1.4531 0.5 0.90625 0.0156 1.5625-0.375 0.65631-0.40625 0.75006-1.0938zm7.6692-9.5781-0.42187 2.3906h1.7969l-0.23437 1.3125h-1.7812l-1.0312 6.125q-0.0312 0.23438-0.0156 0.4375 0.0781 0.70313 0.78125 0.70313 0.29688 0 0.79688-0.0781l-0.125 1.375q-0.59375 0.15625-1.2031 0.15625-0.98437-0.0156-1.4844-0.71875-0.48438-0.70312-0.375-1.9062l1-6.0938h-1.7344l0.23438-1.3125h1.7344l0.42188-2.3906z" fill="#fff"/>
  <path d="m733.2 158.8h70.898v25.449h-70.898z" fill="#000" fill-opacity="0" fill-rule="evenodd"/>
  <path d="m743.56 185.72v-13.359h4.3281q2.4531 0 3.2031 0.20313 1.1406 0.29687 1.9219 1.3125 0.78125 1 0.78125 2.5938 0 1.2344-0.45313 2.0781-0.45312 0.82813-1.1406 1.3125-0.6875 0.46875-1.3906 0.625-0.96875 0.20313-2.7969 0.20313h-1.7656v5.0312zm2.6875-11.094v3.7812h1.4844q1.5938 0 2.125-0.20313 0.54687-0.20312 0.84375-0.65625 0.3125-0.45312 0.3125-1.0312 0-0.73437-0.4375-1.2031-0.42188-0.48438-1.0781-0.59375-0.48437-0.0937-1.9375-0.0937zm16.1 11.094v-1.4531q-0.53125 0.78125-1.3906 1.2344-0.85938 0.4375-1.8125 0.4375-0.96875 0-1.75-0.42188-0.76563-0.4375-1.125-1.2031-0.34375-0.78125-0.34375-2.1406v-6.125h2.5625v4.4375q0 2.0469 0.14062 2.5156 0.14063 0.45312 0.51563 0.71875 0.375 0.26562 0.95312 0.26562 0.65625 0 1.1719-0.35937 0.51562-0.35938 0.70312-0.89063 0.20313-0.53125 0.20313-2.6094v-4.0781h2.5469v9.6719zm9.4741-9.6719v2.0312h-1.75v3.9062q0 1.1875 0.0469 1.3906 0.0469 0.1875 0.21875 0.3125 0.1875 0.125 0.4375 0.125 0.35937 0 1.0312-0.25l0.21875 2q-0.89063 0.375-2.0156 0.375-0.70312 0-1.2656-0.23438-0.54688-0.23437-0.8125-0.59375-0.25-0.375-0.34375-1-0.0937-0.45312-0.0937-1.8125v-4.2188h-1.1719v-2.0312h1.1719v-1.9219l2.5781-1.5v3.4219zm6.0096 13.594h-1.75q-1.3906-2.0938-2.125-4.3594-0.73438-2.2812-0.73438-4.4062 0-2.625 0.90625-4.9688 0.78125-2.0469 1.9844-3.7656h1.75q-1.25 2.75-1.7188 4.6875t-0.46875 4.1094q0 1.5 0.28125 3.0625t0.76562 2.9688q0.3125 0.9375 1.1094 2.6719zm1.2595 0q0.76562-1.6094 1.0625-2.4844 0.3125-0.85938 0.57812-1.9844 0.26563-1.1406 0.39063-2.1562 0.125-1.0156 0.125-2.0781 0-2.1719-0.46875-4.1094-0.45313-1.9375-1.7031-4.6875h1.7344q1.375 1.9531 2.1406 4.1562 0.76563 2.1875 0.76563 4.4531 0 1.9062-0.60938 4.0781-0.67187 2.4375-2.25 4.8125z" fill="#3c78d8"/>
  <g fill-rule="evenodd">
   <path d="m228.07 80.486-0.62991 209.73" fill="#000" fill-opacity="0"/>
   <path d="m228.07 80.486-0.59387 197.73" stroke="#38761d" stroke-linecap="butt" stroke-linejoin="round" stroke-width="2"/>
   <path d="m224.17 278.21 3.2762 9.0861 3.3307-9.0662z" fill="#38761d" stroke="#38761d" stroke-linecap="butt" stroke-width="2"/>
   <path d="m609.75 249.27h105.45v-49.89h105.45" fill="#000" fill-opacity="0"/>
   <path d="m609.75 249.27h105.45v-49.89h93.449" stroke="#6d9eeb" stroke-linecap="butt" stroke-linejoin="round" stroke-width="2"/>
   <path d="m808.65 202.68 9.0762-3.3034-9.0762-3.3035z" fill="#6d9eeb" stroke="#6d9eeb" stroke-linecap="butt" stroke-width="2"/>
   <path d="m697.39 249.27h-417.45" fill="#000" fill-opacity="0"/>
   <path d="m697.39 249.27h-417.45" stroke="#6d9eeb" stroke-linecap="butt" stroke-linejoin="round" stroke-width="2"/>
   <path d="m273.5 250.27c0-3.1746 2.5735-5.748 5.748-5.748 1.5245 0 2.9865 0.60559 4.0645 1.6836 1.078 1.078 1.6836 2.54 1.6836 4.0645 0 3.1746-2.5735 5.748-5.748 5.748-3.1745 0-5.748-2.5735-5.748-5.748z" fill="#6d9eeb"/>
   <path d="m273.5 250.27c0-3.1746 2.5735-5.748 5.748-5.748 1.5245 0 2.9865 0.60559 4.0645 1.6836 1.078 1.078 1.6836 2.54 1.6836 4.0645 0 3.1746-2.5735 5.748-5.748 5.748-3.1745 0-5.748-2.5735-5.748-5.748z" stroke="#6d9eeb" stroke-linecap="butt" stroke-linejoin="round"/>
  </g>
  <g fill="#000">
   <path d="m320.85 210.7h139.59v37.386h-139.59z" fill-opacity="0" fill-rule="evenodd"/>
   <path d="m350.23 226.45-0.21875 1.1562q1.1875-1.375 2.8594-1.3281 1.4062 0.0156 2.0625 1.0156 0.67188 0.98437 0.48438 2.75l-1.0312 6.2656h-2.5781l1.0625-6.2969q0.0469-0.35938 0.0156-0.64063-0.125-0.9375-1.1719-0.95312-1-0.0469-1.8125 0.9375l-1.2188 6.9531h-2.5781l1.7188-9.8594zm11.808-0.17188q1.2969 0.0156 2.2344 0.67188 0.95312 0.64062 1.3906 1.7812 0.4375 1.1406 0.3125 2.5469-0.20312 2.3438-1.6406 3.7969-1.4219 1.4531-3.5156 1.4219-1.2812-0.0312-2.2188-0.67187-0.9375-0.64063-1.3906-1.7656-0.4375-1.1406-0.3125-2.5156 0.23437-2.4531 1.6562-3.8906 1.4219-1.4375 3.4844-1.375zm-2.6094 6.2031q0.0312 0.875 0.42187 1.375 0.39063 0.5 1.0938 0.51562 1.1875 0.0469 1.8594-1.0781 0.67187-1.125 0.625-2.9531-0.0312-0.875-0.42188-1.3906-0.375-0.53125-1.1094-0.5625-1.1406-0.0312-1.8281 1.0938-0.6875 1.1094-0.64062 3z"/>
   <path d="m372.09 236.31 1.4844-8.5469h-1.5156l0.23437-1.3125h1.5156l0.125-0.92187q0.25-1.6562 1.3438-2.5781 1.0469-0.85937 2.6406-0.84375 0.64063 0.0156 1.25 0.1875 0.60938 0.15625 1.2344 0.375l-0.39063 1.4375q-1.0312-0.46875-2.0469-0.48437-2.0781-0.0312-2.3906 2.0312l-0.125 0.79687h1.9688l-0.23437 1.3125h-1.9531l-1.4844 8.5469zm6.8281 0h-1.6562l1.7188-9.8594h1.6562zm6.0022-9.8594-0.23437 1.2344q1.3281-1.4531 3.0312-1.4062 1.3906 0.0312 2.0469 0.96875 0.67188 0.92187 0.5 2.6094l-1.0781 6.4531h-1.6406l1.0781-6.4844q0.0625-0.45312 0.0156-0.82812-0.15625-1.2812-1.5156-1.3125-1.4844-0.0156-2.5938 1.5938l-1.2188 7.0312h-1.6562l1.7188-9.8594zm12.841 9.8594q-0.0625-0.26563-0.0625-0.51563l0.0312-0.51562q-1.3594 1.25-2.8906 1.2188-1.2969-0.0312-2.1094-0.82813-0.8125-0.8125-0.75-2.0156 0.0937-1.5781 1.375-2.4531 1.2812-0.875 3.375-0.875l1.7188 0.0156 0.10938-0.79688q0.0937-0.875-0.34375-1.3906-0.4375-0.51563-1.2969-0.53125-0.84375-0.0156-1.5 0.42187-0.65625 0.42188-0.79687 1.1406h-1.6562q0.0781-0.85938 0.67187-1.5312 0.59375-0.67188 1.5156-1.0312 0.9375-0.375 1.9219-0.35938 1.5469 0.0312 2.3906 0.9375 0.85937 0.89063 0.73437 2.375l-0.8125 4.8906-0.0469 0.70312q-0.0156 0.5 0.10937 0.98438l-0.0156 0.15625zm-2.5938-1.2812q0.79688 0.0312 1.5-0.35938 0.71875-0.40625 1.2188-1.1094l0.35938-2.0312-1.25-0.0156q-1.5625 0-2.3906 0.5-0.82812 0.48438-0.9375 1.3906-0.0781 0.6875 0.32813 1.1562 0.40625 0.45312 1.1719 0.46875zm8.2822 1.2812h-1.6406l2.4219-14h1.6562zm4.4819 0h-1.6406l1.7188-9.8594h1.6406zm1.3594-13.453q0.42188-0.0156 0.70313 0.25 0.28125 0.26563 0.28125 0.70313-0.0156 0.4375-0.28125 0.70312-0.26563 0.26563-0.70313 0.29688-0.42187 0.0156-0.70312-0.25-0.26563-0.26563-0.26563-0.6875 0.0156-0.4375 0.28125-0.71875 0.26563-0.28125 0.6875-0.29688zm3.185 12.078h5.5469l-0.25 1.375h-7.5938l0.21875-1.3281 6.4688-7.1406h-5.1562l0.26562-1.3906h7.25l-0.21875 1.2812zm11.34 1.5625q-1.8438-0.0469-2.8906-1.3594-1.0312-1.3281-0.85937-3.3906l0.0469-0.39063q0.15625-1.4531 0.85938-2.6719 0.71875-1.2188 1.75-1.8281 1.0312-0.60937 2.2188-0.57812 1.5312 0.0312 2.3906 1.0156 0.85938 0.96875 0.95313 2.625 0.0156 0.59375-0.0469 1.1875l-0.0937 0.75h-6.4375q-0.17187 1.3438 0.4375 2.2812 0.60938 0.9375 1.8125 0.98438 1.4531 0.0312 2.6875-1.3125l0.95313 0.79687q-0.625 0.89063-1.6094 1.4062-0.96875 0.5-2.1719 0.48438zm1.0469-8.8438q-1.0156-0.0312-1.7812 0.6875-0.76562 0.71875-1.2031 2.1406h4.7812l0.0469-0.14062q0.14063-1.1406-0.375-1.9062-0.51562-0.76563-1.4688-0.78125zm10.487 0.29687-0.76563-0.0781q-1.5938 0-2.5 1.4375l-1.2031 7h-1.6562l1.7188-9.8594h1.5938l-0.25 1.1406q1.0469-1.375 2.4688-1.3438 0.29687 0 0.78125 0.14062z"/>
   <path d="m228.07 126.81h139.59v37.386h-139.59z" fill-opacity="0" fill-rule="evenodd"/>
   <path d="m255.16 143.66q1.1563-1.2969 2.6719-1.2656 1.4688 0.0312 2.1562 1.0469 0.6875 1.0156 0.51563 2.7656l-1.0312 6.2188h-2.5781l1.0469-6.2344q0.0469-0.35938 0.0156-0.65625-0.0781-0.98438-1.1406-1.0156-1.0313-0.0312-1.8282 0.89063l-1.2344 7.0156h-2.5625l2.4219-14h2.5782zm12.018 8.7656q-0.125-0.375-0.10938-0.89062-1.1094 1.1094-2.5156 1.0781-1.2812-0.0312-2.1406-0.84375-0.84375-0.82812-0.79687-2.0469 0.0625-1.6094 1.3438-2.4688 1.2969-0.85938 3.4688-0.85938l1.2031 0.0156 0.125-0.59375q0.0625-0.29688 0.0312-0.5625-0.0469-0.4375-0.32812-0.67188-0.28125-0.25-0.73438-0.25-0.59375-0.0156-1.0156 0.29688-0.42188 0.3125-0.54688 0.90625h-2.5781q0.0781-1.4062 1.3125-2.2812 1.2344-0.89063 3.0469-0.85938 1.6719 0.0312 2.6094 1 0.95312 0.95313 0.79687 2.4688l-0.75 4.7188-0.0469 0.57813q-0.0156 0.64062 0.15625 1.0938l-0.0156 0.17187zm-1.9844-1.8125q1.1094 0.0312 1.9375-0.96875l0.32813-1.7031h-0.89063q-1.4219 0.0312-2.0625 0.85937-0.21875 0.29688-0.28125 0.73438-0.0625 0.5 0.20313 0.78125 0.28125 0.28125 0.76562 0.29687zm11.777-0.96875q0.15625-0.71875-1-1.0469l-0.82813-0.21875q-2.9531-0.8125-2.875-2.8594 0.0469-1.3906 1.2344-2.2656 1.2031-0.89063 2.875-0.85938 1.6719 0.0156 2.6875 0.875 1.0312 0.85938 1.0469 2.3125l-2.5469-0.0156q0.0156-1.2656-1.25-1.2812-0.60938 0-1.0469 0.29687-0.4375 0.29688-0.54687 0.8125-0.125 0.73438 1.1094 1.0312l0.35938 0.0781q1.2656 0.29687 1.9219 0.6875 0.67188 0.39062 1.0312 0.96875 0.35938 0.5625 0.32813 1.375-0.0312 0.9375-0.60938 1.6406-0.57812 0.6875-1.5938 1.0781-1 0.375-2.1094 0.35937-1.6406-0.0312-2.7344-0.95312-1.0938-0.92188-1.1094-2.3906l2.4219 0.0156q0.0469 1.4219 1.5156 1.4375 0.71875 0 1.1719-0.28125 0.45313-0.29688 0.54688-0.79688z"/>
   <path d="m286.03 152.42 1.4844-8.5469h-1.5156l0.23437-1.3125h1.5156l0.125-0.92187q0.25-1.6562 1.3438-2.5781 1.0469-0.85937 2.6406-0.84375 0.64063 0.0156 1.25 0.1875 0.60938 0.15625 1.2344 0.375l-0.39063 1.4375q-1.0312-0.46875-2.0469-0.48437-2.0781-0.0312-2.3906 2.0312l-0.125 0.79687h1.9688l-0.23437 1.3125h-1.9531l-1.4844 8.5469zm6.8281 0h-1.6562l1.7188-9.8594h1.6562zm6.0022-9.8594-0.23437 1.2344q1.3281-1.4531 3.0312-1.4062 1.3906 0.0312 2.0469 0.96875 0.67188 0.92187 0.5 2.6094l-1.0781 6.4531h-1.6406l1.0781-6.4844q0.0625-0.45312 0.0156-0.82812-0.15625-1.2812-1.5156-1.3125-1.4844-0.0156-2.5938 1.5938l-1.2188 7.0312h-1.6562l1.7188-9.8594zm12.841 9.8594q-0.0625-0.26563-0.0625-0.51563l0.0312-0.51562q-1.3594 1.25-2.8906 1.2188-1.2969-0.0312-2.1094-0.82813-0.8125-0.8125-0.75-2.0156 0.0937-1.5781 1.375-2.4531 1.2812-0.875 3.375-0.875l1.7188 0.0156 0.10938-0.79688q0.0937-0.875-0.34375-1.3906-0.4375-0.51563-1.2969-0.53125-0.84375-0.0156-1.5 0.42187-0.65625 0.42188-0.79687 1.1406h-1.6562q0.0781-0.85938 0.67187-1.5312 0.59375-0.67188 1.5156-1.0312 0.9375-0.375 1.9219-0.35938 1.5469 0.0312 2.3906 0.9375 0.85937 0.89063 0.73437 2.375l-0.8125 4.8906-0.0469 0.70312q-0.0156 0.5 0.10937 0.98438l-0.0156 0.15625zm-2.5938-1.2812q0.79688 0.0312 1.5-0.35938 0.71875-0.40625 1.2188-1.1094l0.35938-2.0312-1.25-0.0156q-1.5625 0-2.3906 0.5-0.82812 0.48438-0.9375 1.3906-0.0781 0.6875 0.32813 1.1562 0.40625 0.45312 1.1719 0.46875zm8.2822 1.2812h-1.6406l2.4219-14h1.6562zm4.4819 0h-1.6406l1.7188-9.8594h1.6406zm1.3594-13.453q0.42188-0.0156 0.70313 0.25 0.28125 0.26563 0.28125 0.70313-0.0156 0.4375-0.28125 0.70312-0.26563 0.26563-0.70313 0.29688-0.42187 0.0156-0.70312-0.25-0.26563-0.26563-0.26563-0.6875 0.0156-0.4375 0.28125-0.71875 0.26563-0.28125 0.6875-0.29688zm3.185 12.078h5.5469l-0.25 1.375h-7.5938l0.21875-1.3281 6.4688-7.1406h-5.1562l0.26562-1.3906h7.25l-0.21875 1.2812zm11.34 1.5625q-1.8438-0.0469-2.8906-1.3594-1.0312-1.3281-0.85937-3.3906l0.0469-0.39063q0.15625-1.4531 0.85938-2.6719 0.71875-1.2188 1.75-1.8281 1.0312-0.60937 2.2188-0.57812 1.5312 0.0312 2.3906 1.0156 0.85938 0.96875 0.95313 2.625 0.0156 0.59375-0.0469 1.1875l-0.0937 0.75h-6.4375q-0.17187 1.3438 0.4375 2.2812 0.60938 0.9375 1.8125 0.98438 1.4531 0.0312 2.6875-1.3125l0.95313 0.79687q-0.625 0.89063-1.6094 1.4062-0.96875 0.5-2.1719 0.48438zm1.0469-8.8438q-1.0156-0.0312-1.7812 0.6875-0.76562 0.71875-1.2031 2.1406h4.7812l0.0469-0.14062q0.14063-1.1406-0.375-1.9062-0.51562-0.76563-1.4688-0.78125zm10.487 0.29687-0.76563-0.0781q-1.5938 0-2.5 1.4375l-1.2031 7h-1.6562l1.7188-9.8594h1.5938l-0.25 1.1406q1.0469-1.375 2.4688-1.3438 0.29687 0 0.78125 0.14062z"/>
  </g>
  <path d="m775.64 28.433h177.13v52.756h-177.13z" fill="#6aa84f" fill-rule="evenodd"/>
  <path d="m775.64 28.433h177.13v52.756h-177.13z" fill-rule="evenodd" stroke="#38761d" stroke-linecap="butt" stroke-linejoin="round" stroke-width="2"/>
  <path d="m856.03 61.731q-0.14063-0.29688-0.23438-1.0312-1.1719 1.2188-2.8125 1.2188-1.4531 0-2.3906-0.82812-0.92188-0.82812-0.92188-2.0938 0-1.5312 1.1562-2.375 1.1719-0.85938 3.2969-0.85938h1.6406v-0.78125q0-0.89062-0.53125-1.4062-0.51562-0.53125-1.5469-0.53125-0.90625 0-1.5156 0.46875-0.60937 0.45312-0.60937 1.0938h-1.7031q0-0.73438 0.51563-1.4219 0.53125-0.6875 1.4219-1.0781 0.90625-0.40625 1.9844-0.40625 1.7031 0 2.6719 0.85938 0.96875 0.84375 1 2.3281v4.5312q0 1.3594 0.34375 2.1719v0.14062zm-2.7969-1.2812q0.79688 0 1.5-0.40625 0.71875-0.42188 1.0312-1.0781v-2.0156h-1.3125q-3.1094 0-3.1094 1.8125 0 0.79688 0.53125 1.25 0.53125 0.4375 1.3594 0.4375zm15.179-3.5312q0 2.25-1.0312 3.625-1.0156 1.375-2.7812 1.375-1.7969 0-2.8281-1.1406v4.75h-1.6719v-13.656h1.5312l0.0781 1.0938q1.0312-1.2656 2.8594-1.2656 1.7812 0 2.8125 1.3438 1.0312 1.3281 1.0312 3.7188zm-1.6719-0.20312q0-1.6562-0.71875-2.625-0.70313-0.96875-1.9531-0.96875-1.5312 0-2.2969 1.3594v4.7031q0.76562 1.3594 2.3281 1.3594 1.2031 0 1.9219-0.95312 0.71875-0.96875 0.71875-2.875zm12.139 0.20312q0 2.25-1.0312 3.625-1.0156 1.375-2.7812 1.375-1.7969 0-2.8281-1.1406v4.75h-1.6719v-13.656h1.5312l0.0781 1.0938q1.0312-1.2656 2.8594-1.2656 1.7812 0 2.8125 1.3438 1.0312 1.3281 1.0312 3.7188zm-1.6719-0.20312q0-1.6562-0.71875-2.625-0.70313-0.96875-1.9531-0.96875-1.5312 0-2.2969 1.3594v4.7031q0.76562 1.3594 2.3281 1.3594 1.2031 0 1.9219-0.95312 0.71875-0.96875 0.71875-2.875z" fill="#fff"/>
  <g fill-rule="evenodd">
   <path d="m864.21 172.99v-91.811" fill="#000" fill-opacity="0"/>
   <path d="m864.21 172.99v-79.811" stroke="#38761d" stroke-linecap="butt" stroke-linejoin="round" stroke-width="2"/>
   <path d="m867.51 93.176-3.3035-9.0762-3.3035 9.0762z" fill="#38761d" stroke="#38761d" stroke-linecap="butt" stroke-width="2"/>
   <path d="m839.52 109.92h169.07v25.449h-169.07z" fill="#000" fill-opacity="0"/>
  </g>
  <path d="m894.96 136.84h-2.9375l-1.1719-3.0312h-5.3281l-1.1094 3.0312h-2.8594l5.2031-13.359h2.8438zm-4.9688-5.2812-1.8438-4.9531-1.7969 4.9531zm6.3792 5.2812v-13.359h2.5625v13.359zm5.1834 0v-13.359h2.5625v13.359zm4.5895-4.9688q0-1.2812 0.625-2.4688 0.625-1.2031 1.7812-1.8281t2.5781-0.625q2.1875 0 3.5938 1.4219 1.4062 1.4219 1.4062 3.6094t-1.4219 3.6406q-1.4219 1.4375-3.5625 1.4375-1.3281 0-2.5469-0.59375-1.2031-0.60938-1.8281-1.7656-0.625-1.1719-0.625-2.8281zm2.625 0.125q0 1.4531 0.67187 2.2188 0.6875 0.75 1.6875 0.75t1.6719-0.75q0.6875-0.76563 0.6875-2.2344 0-1.4219-0.6875-2.1875-0.67188-0.76562-1.6719-0.76562t-1.6875 0.76562q-0.67187 0.76563-0.67187 2.2031zm17.802-1.9688-2.5312 0.45312q-0.125-0.75-0.57812-1.125-0.45313-0.39062-1.1719-0.39062-0.95312 0-1.5312 0.65625-0.5625 0.65625-0.5625 2.2031 0 1.7344 0.57813 2.4375 0.57812 0.70313 1.5469 0.70313 0.73438 0 1.2031-0.40625 0.46875-0.42188 0.65625-1.4219l2.5156 0.42188q-0.39062 1.7344-1.5156 2.625-1.1094 0.875-2.9688 0.875-2.125 0-3.3906-1.3281-1.25-1.3438-1.25-3.7188 0-2.3906 1.2656-3.7188 1.2656-1.3438 3.4219-1.3438 1.7656 0 2.7969 0.76562 1.0469 0.75001 1.5156 2.3125zm3.8444 0.0937-2.3281-0.42188q0.40625-1.4062 1.3594-2.0781 0.95312-0.67187 2.8438-0.67187 1.7031 0 2.5469 0.40625t1.1719 1.0312q0.34375 0.625 0.34375 2.2812l-0.0156 3q0 1.2656 0.10938 1.875 0.125 0.60938 0.46875 1.2969h-2.5312q-0.10938-0.25-0.25-0.75-0.0625-0.23438-0.0937-0.3125-0.65625 0.64062-1.4062 0.96875-0.73438 0.3125-1.5938 0.3125-1.4844 0-2.3438-0.8125-0.85938-0.8125-0.85938-2.0469 0-0.82812 0.39063-1.4688 0.39062-0.64062 1.0938-0.96875 0.70312-0.34375 2.0312-0.60937 1.7969-0.32813 2.4844-0.625v-0.25q0-0.75-0.35937-1.0625-0.35938-0.3125-1.375-0.3125-0.6875 0-1.0781 0.28125-0.375 0.26562-0.60937 0.9375zm3.4219 2.0781q-0.48437 0.15625-1.5625 0.39063-1.0625 0.21875-1.3906 0.4375-0.5 0.35937-0.5 0.90625 0 0.53125 0.40625 0.9375 0.40625 0.39062 1.0156 0.39062 0.70313 0 1.3281-0.46875 0.46875-0.34375 0.60937-0.84375 0.0937-0.32812 0.0937-1.25zm9.4851-5.0312v2.0312h-1.75v3.9062q0 1.1875 0.0469 1.3906 0.0469 0.1875 0.21875 0.3125 0.1875 0.125 0.4375 0.125 0.35938 0 1.0312-0.25l0.21875 2q-0.89062 0.375-2.0156 0.375-0.70313 0-1.2656-0.23438-0.54687-0.23437-0.8125-0.59375-0.25-0.375-0.34375-1-0.0937-0.45312-0.0937-1.8125v-4.2188h-1.1719v-2.0312h1.1719v-1.9219l2.5781-1.5v3.4219zm7.369 6.5938 2.5469 0.42188q-0.48437 1.4062-1.5469 2.1406-1.0625 0.73438-2.6562 0.73438-2.5156 0-3.7344-1.6562-0.95312-1.3125-0.95312-3.3281 0-2.4062 1.25-3.7656 1.2656-1.3594 3.1875-1.3594 2.1562 0 3.4062 1.4219 1.25 1.4219 1.1875 4.375h-6.4062q0.0312 1.1406 0.60937 1.7812 0.59375 0.625 1.4844 0.625 0.59375 0 1-0.32813 0.42187-0.32812 0.625-1.0625zm0.15625-2.5938q-0.0312-1.1094-0.57813-1.6875-0.54687-0.57812-1.3281-0.57812-0.84375 0-1.3906 0.60937-0.54687 0.60938-0.53125 1.6562zm8.86 9.5938h-1.75q-1.3906-2.0938-2.125-4.3594-0.73437-2.2812-0.73437-4.4062 0-2.625 0.90625-4.9688 0.78125-2.0469 1.9844-3.7656h1.75q-1.25 2.75-1.7188 4.6875t-0.46875 4.1094q0 1.5 0.28125 3.0625t0.76563 2.9688q0.3125 0.9375 1.1094 2.6719zm1.2596 0q0.76563-1.6094 1.0625-2.4844 0.3125-0.85938 0.57813-1.9844 0.26562-1.1406 0.39062-2.1562 0.125-1.0156 0.125-2.0781 0-2.1719-0.46875-4.1094-0.45312-1.9375-1.7031-4.6875h1.7344q1.375 1.9531 2.1406 4.1562 0.76562 2.1875 0.76562 4.4531 0 1.9062-0.60937 4.0781-0.67188 2.4375-2.25 4.8125z" fill="#38761d"/>
 </g>
</svg>
