<?xml version="1.0" encoding="UTF-8"?>
<svg width="600" height="371" fill="none" stroke-linecap="square" stroke-miterlimit="10" version="1.1" viewBox="0 0 600 371" xmlns="http://www.w3.org/2000/svg">
 <g>
  <path d="m0 0h600v371h-600z" fill="#fff"/>
  <path d="m74.5 44.5v288" stroke="#333" stroke-linecap="butt"/>
  <g stroke="#ccc" stroke-linecap="butt">
   <path d="m201.5 44.5v288"/>
   <path d="m328.5 44.5v288"/>
   <path d="m454.5 44.5v288"/>
   <path d="m581.5 44.5v288"/>
  </g>
 </g>
 <clipPath id="id_0">
  <path d="m74.55 44.917h506.9v287.53h-506.9z"/>
 </clipPath>
 <g>
  <path d="m75 65v-9h270c1.1046 0 2 0.89543 2 2v5c0 1.1046-0.89542 2-2 2z" clip-path="url(#id_0)" stroke="#000" stroke-linecap="butt" stroke-opacity="0" stroke-width="0"/>
  <path d="m75 65v-9h270c1.1046 0 2 0.89543 2 2v5c0 1.1046-0.89542 2-2 2z" clip-path="url(#id_0)" fill="#4285f4"/>
  <path d="m75 95v-9h74c1.1046 0 2 0.89543 2 2v5c0 1.1046-0.89543 2-2 2z" clip-path="url(#id_0)" stroke="#000" stroke-linecap="butt" stroke-opacity="0" stroke-width="0"/>
  <path d="m75 95v-9h74c1.1046 0 2 0.89543 2 2v5c0 1.1046-0.89543 2-2 2z" clip-path="url(#id_0)" fill="#4285f4"/>
  <path d="m75 126v-9h295c1.1046 0 2 0.89543 2 2v5c0 1.1046-0.89542 2-2 2z" clip-path="url(#id_0)" stroke="#000" stroke-linecap="butt" stroke-opacity="0" stroke-width="0"/>
  <path d="m75 126v-9h295c1.1046 0 2 0.89543 2 2v5c0 1.1046-0.89542 2-2 2z" clip-path="url(#id_0)" fill="#4285f4"/>
  <path d="m75 157v-9h99c1.1046 0 2 0.89543 2 2v5c0 1.1046-0.89543 2-2 2z" clip-path="url(#id_0)" stroke="#000" stroke-linecap="butt" stroke-opacity="0" stroke-width="0"/>
  <path d="m75 157v-9h99c1.1046 0 2 0.89543 2 2v5c0 1.1046-0.89543 2-2 2z" clip-path="url(#id_0)" fill="#4285f4"/>
  <path d="m75 188v-9h504c1.1046 0 2 0.89543 2 2v5c0 1.1046-0.89545 2-2 2z" clip-path="url(#id_0)" stroke="#000" stroke-linecap="butt" stroke-opacity="0" stroke-width="0"/>
  <path d="m75 188v-9h504c1.1046 0 2 0.89543 2 2v5c0 1.1046-0.89545 2-2 2z" clip-path="url(#id_0)" fill="#4285f4"/>
  <path d="m75 218v-9h352c1.1046 0 2 0.89543 2 2v5c0 1.1046-0.89542 2-2 2z" clip-path="url(#id_0)" stroke="#000" stroke-linecap="butt" stroke-opacity="0" stroke-width="0"/>
  <path d="m75 218v-9h352c1.1046 0 2 0.89543 2 2v5c0 1.1046-0.89542 2-2 2z" clip-path="url(#id_0)" fill="#4285f4"/>
  <path d="m75 249v-9h48c1.1046 0 2 0.89543 2 2v5c0 1.1046-0.89543 2-2 2z" clip-path="url(#id_0)" stroke="#000" stroke-linecap="butt" stroke-opacity="0" stroke-width="0"/>
  <path d="m75 249v-9h48c1.1046 0 2 0.89543 2 2v5c0 1.1046-0.89543 2-2 2z" clip-path="url(#id_0)" fill="#4285f4"/>
  <path d="m75 280v-9h219c1.1046 0 2 0.89542 2 2v5c0 1.1046-0.89542 2-2 2z" clip-path="url(#id_0)" stroke="#000" stroke-linecap="butt" stroke-opacity="0" stroke-width="0"/>
  <path d="m75 280v-9h219c1.1046 0 2 0.89542 2 2v5c0 1.1046-0.89542 2-2 2z" clip-path="url(#id_0)" fill="#4285f4"/>
  <path d="m75 311v-9h99c1.1046 0 2 0.89542 2 2v5c0 1.1046-0.89543 2-2 2z" clip-path="url(#id_0)" stroke="#000" stroke-linecap="butt" stroke-opacity="0" stroke-width="0"/>
  <path d="m75 311v-9h99c1.1046 0 2 0.89542 2 2v5c0 1.1046-0.89543 2-2 2z" clip-path="url(#id_0)" fill="#4285f4"/>
  <path d="m75 75v-9h124c1.1046 0 2 0.89543 2 2v5c0 1.1046-0.89543 2-2 2z" clip-path="url(#id_0)" stroke="#000" stroke-linecap="butt" stroke-opacity="0" stroke-width="0"/>
  <path d="m75 75v-9h124c1.1046 0 2 0.89543 2 2v5c0 1.1046-0.89543 2-2 2z" clip-path="url(#id_0)" fill="#ea4335"/>
  <path d="m75 105v-9h48c1.1046 0 2 0.89543 2 2v5c0 1.1046-0.89543 2-2 2z" clip-path="url(#id_0)" stroke="#000" stroke-linecap="butt" stroke-opacity="0" stroke-width="0"/>
  <path d="m75 105v-9h48c1.1046 0 2 0.89543 2 2v5c0 1.1046-0.89543 2-2 2z" clip-path="url(#id_0)" fill="#ea4335"/>
  <path d="m75 136v-9h143c1.1046 0 2 0.89543 2 2v5c0 1.1046-0.89543 2-2 2z" clip-path="url(#id_0)" stroke="#000" stroke-linecap="butt" stroke-opacity="0" stroke-width="0"/>
  <path d="m75 136v-9h143c1.1046 0 2 0.89543 2 2v5c0 1.1046-0.89543 2-2 2z" clip-path="url(#id_0)" fill="#ea4335"/>
  <path d="m75 167v-9h48c1.1046 0 2 0.89543 2 2v5c0 1.1046-0.89543 2-2 2z" clip-path="url(#id_0)" stroke="#000" stroke-linecap="butt" stroke-opacity="0" stroke-width="0"/>
  <path d="m75 167v-9h48c1.1046 0 2 0.89543 2 2v5c0 1.1046-0.89543 2-2 2z" clip-path="url(#id_0)" fill="#ea4335"/>
  <path d="m75 198v-9h378c1.1046 0 2 0.89543 2 2v5c0 1.1046-0.89542 2-2 2z" clip-path="url(#id_0)" stroke="#000" stroke-linecap="butt" stroke-opacity="0" stroke-width="0"/>
  <path d="m75 198v-9h378c1.1046 0 2 0.89543 2 2v5c0 1.1046-0.89542 2-2 2z" clip-path="url(#id_0)" fill="#ea4335"/>
  <path d="m75 228v-9h264c1.1046 0 2 0.89543 2 2v5c0 1.1046-0.89542 2-2 2z" clip-path="url(#id_0)" stroke="#000" stroke-linecap="butt" stroke-opacity="0" stroke-width="0"/>
  <path d="m75 228v-9h264c1.1046 0 2 0.89543 2 2v5c0 1.1046-0.89542 2-2 2z" clip-path="url(#id_0)" fill="#ea4335"/>
  <path d="m75 259v-9h23c1.1046 0 2 0.89543 2 2v5c0 1.1046-0.89543 2-2 2z" clip-path="url(#id_0)" stroke="#000" stroke-linecap="butt" stroke-opacity="0" stroke-width="0"/>
  <path d="m75 259v-9h23c1.1046 0 2 0.89543 2 2v5c0 1.1046-0.89543 2-2 2z" clip-path="url(#id_0)" fill="#ea4335"/>
  <path d="m75 290v-9h131c1.1046 0 2 0.89542 2 2v5c0 1.1046-0.89543 2-2 2z" clip-path="url(#id_0)" stroke="#000" stroke-linecap="butt" stroke-opacity="0" stroke-width="0"/>
  <path d="m75 290v-9h131c1.1046 0 2 0.89542 2 2v5c0 1.1046-0.89543 2-2 2z" clip-path="url(#id_0)" fill="#ea4335"/>
  <path d="m75 321v-9h48c1.1046 0 2 0.89542 2 2v5c0 1.1046-0.89543 2-2 2z" clip-path="url(#id_0)" stroke="#000" stroke-linecap="butt" stroke-opacity="0" stroke-width="0"/>
  <path d="m75 321v-9h48c1.1046 0 2 0.89542 2 2v5c0 1.1046-0.89543 2-2 2z" clip-path="url(#id_0)" fill="#ea4335"/>
 </g>
 <g fill="#000">
  <path d="m19.597 69.674v-5.4062h-0.9375v-0.8125h0.9375v-0.67187q0-0.625 0.10938-0.92188 0.15625-0.42187 0.53125-0.67187 0.39062-0.25 1.0781-0.25 0.45313 0 0.98438 0.10937l-0.15625 0.90625q-0.32813-0.04687-0.625-0.04687-0.48438 0-0.6875 0.20312-0.1875 0.20313-0.1875 0.76563v0.57812h1.2188v0.8125h-1.2188v5.4062zm6.8125-0.76562q-0.59375 0.5-1.1406 0.70312-0.53125 0.20313-1.1562 0.20313-1.0312 0-1.5781-0.5-0.54687-0.5-0.54687-1.2812 0-0.45313 0.20312-0.82813 0.20313-0.39062 0.54688-0.60937 0.34375-0.23438 0.76562-0.34375 0.29688-0.09375 0.9375-0.17188 1.2656-0.14062 1.875-0.35937 0-0.21875 0-0.26563 0-0.65625-0.29687-0.92187-0.40625-0.34375-1.2031-0.34375-0.73437 0-1.0938 0.26562-0.35937 0.25-0.53125 0.90625l-1.0312-0.14062q0.14063-0.65625 0.46875-1.0625 0.32813-0.40625 0.9375-0.625 0.60938-0.21875 1.4062-0.21875 0.79688 0 1.2969 0.1875t0.73437 0.46875q0.23438 0.28125 0.32813 0.71875 0.04687 0.26562 0.04687 0.96875v1.4062q0 1.4688 0.0625 1.8594 0.07813 0.39063 0.28125 0.75h-1.1094q-0.15625-0.32812-0.20313-0.76562zm-0.09375-2.3594q-0.57812 0.23438-1.7188 0.40625-0.65625 0.09375-0.92187 0.21875-0.26563 0.10938-0.42188 0.32813-0.14062 0.21875-0.14062 0.5 0 0.42187 0.3125 0.70312 0.32812 0.28125 0.9375 0.28125 0.60937 0 1.0781-0.26562 0.48438-0.26563 0.70313-0.73438 0.17187-0.35937 0.17187-1.0469zm7.0938 0.84375 1.0312 0.14063q-0.17187 1.0625-0.875 1.6719-0.70312 0.60938-1.7188 0.60938-1.2812 0-2.0625-0.82813-0.76562-0.84375-0.76562-2.4062 0-1 0.32812-1.75 0.34375-0.76562 1.0156-1.1406 0.6875-0.375 1.5-0.375 1 0 1.6406 0.51562 0.65625 0.5 0.84375 1.4531l-1.0312 0.15625q-0.14062-0.625-0.51562-0.9375-0.375-0.32813-0.90625-0.32813-0.79688 0-1.2969 0.57813-0.5 0.5625-0.5 1.7969 0 1.2656 0.48438 1.8281 0.48437 0.5625 1.25 0.5625 0.625 0 1.0312-0.375 0.42187-0.375 0.54687-1.1719zm6.1875 0.28125 1.0938 0.125q-0.25 0.95313-0.95312 1.4844-0.70313 0.53125-1.7812 0.53125-1.3594 0-2.1719-0.84375-0.79687-0.84375-0.79687-2.3594 0-1.5625 0.8125-2.4219 0.8125-0.875 2.0938-0.875 1.25 0 2.0312 0.84375 0.79687 0.84375 0.79687 2.3906 0 0.09375 0 0.28125h-4.6406q0.0625 1.0312 0.57812 1.5781 0.51563 0.53125 1.2969 0.53125 0.57812 0 0.98437-0.29688 0.42188-0.3125 0.65625-0.96875zm-3.4531-1.7031h3.4688q-0.0625-0.79688-0.39063-1.1875-0.51562-0.60938-1.3125-0.60938-0.73437 0-1.2344 0.48438-0.48438 0.48437-0.53125 1.3125zm7.1719 3.7031h-0.98437v-8.5937h1.0625v3.0625q0.67187-0.82812 1.7031-0.82812 0.57813 0 1.0781 0.23437 0.51562 0.21875 0.84375 0.64063 0.34375 0.42187 0.53125 1.0156t0.1875 1.2656q0 1.5938-0.79688 2.4688-0.79687 0.875-1.8906 0.875-1.1094 0-1.7344-0.92188zm-0.015624-3.1562q0 1.1094 0.3125 1.6094 0.5 0.8125 1.3438 0.8125 0.6875 0 1.1875-0.59375 0.51562-0.59375 0.51562-1.7969 0-1.2188-0.48437-1.7969-0.48438-0.57813-1.1719-0.57813t-1.2031 0.60938q-0.5 0.59375-0.5 1.7344zm5.6562 0.04688q0-1.7344 0.95312-2.5625 0.79688-0.6875 1.9531-0.6875 1.2812 0 2.0938 0.84375 0.82812 0.82812 0.82812 2.3125 0 1.2031-0.35937 1.8906-0.35938 0.6875-1.0625 1.0781-0.6875 0.375-1.5 0.375-1.2969 0-2.1094-0.82813-0.79687-0.84375-0.79687-2.4219zm1.0781 0q0 1.1875 0.51563 1.7812 0.53125 0.59375 1.3125 0.59375 0.79687 0 1.3125-0.59375 0.51562-0.59375 0.51562-1.8125 0-1.1562-0.53125-1.75-0.51562-0.59375-1.2969-0.59375t-1.3125 0.59375q-0.51563 0.57812-0.51563 1.7812zm5.9219 0q0-1.7344 0.95312-2.5625 0.79688-0.6875 1.9531-0.6875 1.2812 0 2.0938 0.84375 0.82812 0.82812 0.82812 2.3125 0 1.2031-0.35937 1.8906-0.35938 0.6875-1.0625 1.0781-0.6875 0.375-1.5 0.375-1.2969 0-2.1094-0.82813-0.79687-0.84375-0.79687-2.4219zm1.0781 0q0 1.1875 0.51563 1.7812 0.53125 0.59375 1.3125 0.59375 0.79687 0 1.3125-0.59375 0.51562-0.59375 0.51562-1.8125 0-1.1562-0.53125-1.75-0.51562-0.59375-1.2969-0.59375t-1.3125 0.59375q-0.51563 0.57812-0.51563 1.7812zm6.3125 3.1094v-8.5937h1.0625v4.9062l2.4844-2.5312h1.375l-2.3906 2.2969 2.625 3.9219h-1.2969l-2.0625-3.1875-0.73437 0.71875v2.4688z"/>
  <path d="m31.144 100.94 1.0312 0.15625q0.0625 0.46875 0.35937 0.6875 0.39063 0.29687 1.0625 0.29687 0.73438 0 1.125-0.29687 0.40625-0.29688 0.54688-0.8125 0.09375-0.32813 0.07812-1.3594-0.6875 0.8125-1.7188 0.8125-1.2812 0-1.9844-0.92187-0.70313-0.9375-0.70313-2.2188 0-0.89063 0.3125-1.6406 0.32813-0.76562 0.9375-1.1719 0.60938-0.40625 1.4375-0.40625 1.1094 0 1.8281 0.89062v-0.75h0.96875v5.375q0 1.4531-0.29688 2.0625-0.29687 0.60938-0.9375 0.95313-0.64062 0.35937-1.5781 0.35937-1.1094 0-1.7969-0.5t-0.67187-1.5156zm0.875-3.7344q0 1.2188 0.48437 1.7812 0.48438 0.5625 1.2188 0.5625 0.73438 0 1.2188-0.5625 0.5-0.5625 0.5-1.75 0-1.1406-0.51562-1.7188-0.5-0.57812-1.2188-0.57812-0.70313 0-1.2031 0.57812-0.48437 0.5625-0.48437 1.6875zm5.9375 0.10938q0-1.7344 0.95312-2.5625 0.79688-0.6875 1.9531-0.6875 1.2812 0 2.0938 0.84375 0.82812 0.82812 0.82812 2.3125 0 1.2031-0.35937 1.8906-0.35938 0.6875-1.0625 1.0781-0.6875 0.375-1.5 0.375-1.2969 0-2.1094-0.82813-0.79687-0.84375-0.79687-2.4219zm1.0781 0q0 1.1875 0.51563 1.7812 0.53125 0.59375 1.3125 0.59375 0.79687 0 1.3125-0.59375 0.51562-0.59375 0.51562-1.8125 0-1.1562-0.53125-1.75-0.51562-0.59375-1.2969-0.59375t-1.3125 0.59375q-0.51563 0.57812-0.51563 1.7812zm5.9219 0q0-1.7344 0.95312-2.5625 0.79688-0.6875 1.9531-0.6875 1.2812 0 2.0938 0.84375 0.82812 0.82812 0.82812 2.3125 0 1.2031-0.35937 1.8906-0.35938 0.6875-1.0625 1.0781-0.6875 0.375-1.5 0.375-1.2969 0-2.1094-0.82813-0.79687-0.84375-0.79687-2.4219zm1.0781 0q0 1.1875 0.51563 1.7812 0.53125 0.59375 1.3125 0.59375 0.79687 0 1.3125-0.59375 0.51562-0.59375 0.51562-1.8125 0-1.1562-0.53125-1.75-0.51562-0.59375-1.2969-0.59375t-1.3125 0.59375q-0.51563 0.57812-0.51563 1.7812zm6.1094 3.625 1.0312 0.15625q0.0625 0.46875 0.35937 0.6875 0.39063 0.29687 1.0625 0.29687 0.73438 0 1.125-0.29687 0.40625-0.29688 0.54688-0.8125 0.09375-0.32813 0.07812-1.3594-0.6875 0.8125-1.7188 0.8125-1.2812 0-1.9844-0.92187-0.70313-0.9375-0.70313-2.2188 0-0.89063 0.3125-1.6406 0.32813-0.76562 0.9375-1.1719 0.60938-0.40625 1.4375-0.40625 1.1094 0 1.8281 0.89062v-0.75h0.96875v5.375q0 1.4531-0.29688 2.0625-0.29687 0.60938-0.9375 0.95313-0.64062 0.35937-1.5781 0.35937-1.1094 0-1.7969-0.5t-0.67187-1.5156zm0.875-3.7344q0 1.2188 0.48437 1.7812 0.48438 0.5625 1.2188 0.5625 0.73438 0 1.2188-0.5625 0.5-0.5625 0.5-1.75 0-1.1406-0.51562-1.7188-0.5-0.57812-1.2188-0.57812-0.70313 0-1.2031 0.57812-0.48437 0.5625-0.48437 1.6875zm6.2969 3.2188v-8.5938h1.0625v8.5938zm7.2813-2 1.0938 0.125q-0.25 0.95313-0.95313 1.4844-0.70312 0.53125-1.7812 0.53125-1.3594 0-2.1719-0.84375-0.79687-0.84375-0.79687-2.3594 0-1.5625 0.8125-2.4219 0.8125-0.875 2.0938-0.875 1.25 0 2.0312 0.84375 0.79688 0.84375 0.79688 2.3906 0 0.09375 0 0.28125h-4.6406q0.0625 1.0312 0.57812 1.5781 0.51563 0.53125 1.2969 0.53125 0.57813 0 0.98438-0.29688 0.42187-0.3125 0.65625-0.96875zm-3.4531-1.7031h3.4688q-0.0625-0.79688-0.39062-1.1875-0.51563-0.60938-1.3125-0.60938-0.73438 0-1.2344 0.48438-0.48438 0.48437-0.53125 1.3125z"/>
  <path d="m25.3 133.57-0.125-0.98437q0.34375 0.0937 0.60937 0.0937 0.34375 0 0.54688-0.125 0.21875-0.10938 0.35937-0.3125 0.09375-0.17188 0.32813-0.79688 0.01562-0.0781 0.09375-0.25l-2.375-6.2344h1.1406l1.2969 3.5938q0.25 0.6875 0.45312 1.4531 0.1875-0.73437 0.4375-1.4219l1.3281-3.625h1.0469l-2.3594 6.3281q-0.39063 1.0156-0.59375 1.4062-0.28125 0.53125-0.65625 0.76563-0.35938 0.25-0.85938 0.25-0.29687 0-0.67187-0.14063zm5.6562-5.5q0-1.7344 0.95312-2.5625 0.79688-0.6875 1.9531-0.6875 1.2812 0 2.0938 0.84375 0.82812 0.82813 0.82812 2.3125 0 1.2031-0.35937 1.8906-0.35938 0.6875-1.0625 1.0781-0.6875 0.375-1.5 0.375-1.2969 0-2.1094-0.82812-0.79687-0.84375-0.79687-2.4219zm1.0781 0q0 1.1875 0.51563 1.7812 0.53125 0.59375 1.3125 0.59375 0.79687 0 1.3125-0.59375 0.51562-0.59375 0.51562-1.8125 0-1.1562-0.53125-1.75-0.51562-0.59375-1.2969-0.59375t-1.3125 0.59375q-0.51563 0.57813-0.51563 1.7812zm10.391 3.1094v-0.92188q-0.73438 1.0625-1.9844 1.0625-0.54687 0-1.0312-0.20312-0.46875-0.21875-0.70312-0.53125-0.23438-0.32813-0.32813-0.79688-0.0625-0.29687-0.0625-0.98437v-3.8438h1.0625v3.4531q0 0.8125 0.0625 1.1094 0.09375 0.40625 0.40625 0.65625 0.32813 0.23437 0.8125 0.23437 0.46875 0 0.875-0.23437 0.42188-0.25 0.59375-0.67188 0.1875-0.42187 0.1875-1.2188v-3.3281h1.0469v6.2188zm5.2188-0.9375 0.15625 0.92187q-0.45313 0.0937-0.79688 0.0937-0.57812 0-0.89062-0.17187-0.3125-0.1875-0.45313-0.48438-0.125-0.29687-0.125-1.25v-3.5781h-0.76562v-0.8125h0.76562v-1.5469l1.0469-0.625v2.1719h1.0625v0.8125h-1.0625v3.6406q0 0.45313 0.04687 0.57813 0.0625 0.125 0.1875 0.20312 0.125 0.0781 0.35938 0.0781 0.1875 0 0.46875-0.0312zm4.7812 0.9375v-0.92188q-0.73438 1.0625-1.9844 1.0625-0.54687 0-1.0312-0.20312-0.46875-0.21875-0.70312-0.53125-0.23438-0.32813-0.32813-0.79688-0.0625-0.29687-0.0625-0.98437v-3.8438h1.0625v3.4531q0 0.8125 0.0625 1.1094 0.09375 0.40625 0.40625 0.65625 0.32813 0.23437 0.8125 0.23437 0.46875 0 0.875-0.23437 0.42188-0.25 0.59375-0.67188 0.1875-0.42187 0.1875-1.2188v-3.3281h1.0469v6.2188zm3.8906 0h-0.98437v-8.5938h1.0625v3.0625q0.67187-0.82813 1.7031-0.82813 0.57813 0 1.0781 0.23438 0.51562 0.21875 0.84375 0.64062 0.34375 0.42188 0.53125 1.0156t0.1875 1.2656q0 1.5938-0.79688 2.4688-0.79687 0.875-1.8906 0.875-1.1094 0-1.7344-0.92187zm-0.015624-3.1562q0 1.1094 0.3125 1.6094 0.5 0.8125 1.3438 0.8125 0.6875 0 1.1875-0.59375 0.51562-0.59375 0.51562-1.7969 0-1.2188-0.48437-1.7969-0.48438-0.57812-1.1719-0.57812t-1.2031 0.60937q-0.5 0.59375-0.5 1.7344zm10.297 1.1562 1.0938 0.125q-0.25 0.95312-0.95313 1.4844-0.70312 0.53125-1.7812 0.53125-1.3594 0-2.1719-0.84375-0.79687-0.84375-0.79687-2.3594 0-1.5625 0.8125-2.4219 0.8125-0.875 2.0938-0.875 1.25 0 2.0312 0.84375 0.79688 0.84375 0.79688 2.3906 0 0.0937 0 0.28125h-4.6406q0.0625 1.0312 0.57812 1.5781 0.51563 0.53125 1.2969 0.53125 0.57813 0 0.98438-0.29687 0.42187-0.3125 0.65625-0.96875zm-3.4531-1.7031h3.4688q-0.0625-0.79687-0.39062-1.1875-0.51563-0.60937-1.3125-0.60937-0.73438 0-1.2344 0.48437-0.48438 0.48438-0.53125 1.3125z"/>
  <path d="m39.644 160.99 0.15625 0.92188q-0.45313 0.0937-0.79688 0.0937-0.57812 0-0.89062-0.17187-0.3125-0.1875-0.45313-0.48438-0.125-0.29688-0.125-1.25v-3.5781h-0.76562v-0.8125h0.76562v-1.5469l1.0469-0.625v2.1719h1.0625v0.8125h-1.0625v3.6406q0 0.45312 0.04687 0.57812 0.0625 0.125 0.1875 0.20313 0.125 0.0781 0.35938 0.0781 0.1875 0 0.46875-0.0313zm1.8438 0.9375-1.9062-6.2187h1.0938l0.98437 3.5937 0.375 1.3281q0.03125-0.0937 0.32813-1.2812l0.98437-3.6406h1.0781l0.9375 3.6094 0.3125 1.1875 0.35937-1.2031 1.0625-3.5937h1.0312l-1.9531 6.2187h-1.0938l-0.98438-3.7344-0.25-1.0469-1.25 4.7812zm7.8594-7.375v-1.2187h1.0625v1.2187zm0 7.375v-6.2187h1.0625v6.2187zm5.2969-0.9375 0.15625 0.92188q-0.45313 0.0937-0.79688 0.0937-0.57812 0-0.89062-0.17187-0.3125-0.1875-0.45313-0.48438-0.125-0.29688-0.125-1.25v-3.5781h-0.76562v-0.8125h0.76562v-1.5469l1.0469-0.625v2.1719h1.0625v0.8125h-1.0625v3.6406q0 0.45312 0.04687 0.57812 0.0625 0.125 0.1875 0.20313 0.125 0.0781 0.35938 0.0781 0.1875 0 0.46875-0.0313zm3 0 0.15625 0.92188q-0.45313 0.0937-0.79688 0.0937-0.57812 0-0.89062-0.17187-0.3125-0.1875-0.45313-0.48438-0.125-0.29688-0.125-1.25v-3.5781h-0.76562v-0.8125h0.76562v-1.5469l1.0469-0.625v2.1719h1.0625v0.8125h-1.0625v3.6406q0 0.45312 0.04687 0.57812 0.0625 0.125 0.1875 0.20313 0.125 0.0781 0.35938 0.0781 0.1875 0 0.46875-0.0313zm4.9531-1.0625 1.0938 0.125q-0.25 0.95313-0.95312 1.4844-0.70313 0.53125-1.7812 0.53125-1.3594 0-2.1719-0.84375-0.79687-0.84375-0.79687-2.3594 0-1.5625 0.8125-2.4219 0.8125-0.875 2.0938-0.875 1.25 0 2.0312 0.84375 0.79687 0.84375 0.79687 2.3906 0 0.0938 0 0.28126h-4.6406q0.0625 1.0312 0.57812 1.5781 0.51563 0.53125 1.2969 0.53125 0.57812 0 0.98437-0.29687 0.42188-0.3125 0.65625-0.96876zm-3.4531-1.7031h3.4688q-0.0625-0.79688-0.39063-1.1875-0.51562-0.60938-1.3125-0.60938-0.73437 0-1.2344 0.48438-0.48438 0.48438-0.53125 1.3125zm6.1875 3.7031v-6.2187h0.95313v0.9375q0.35937-0.65626 0.65625-0.85938 0.3125-0.21875 0.6875-0.21875 0.53125 0 1.0781 0.32813l-0.35937 0.98437q-0.39063-0.23437-0.76563-0.23437-0.35937 0-0.64062 0.21874-0.26563 0.20313-0.375 0.57813-0.1875 0.5625-0.1875 1.2188v3.2656z"/>
  <path d="m53.409 190.4 1.0312 0.14063q-0.17187 1.0625-0.875 1.6719-0.70312 0.60938-1.7188 0.60938-1.2812 0-2.0625-0.82813-0.76562-0.84375-0.76562-2.4062 0-1 0.32812-1.75 0.34375-0.76562 1.0156-1.1406 0.6875-0.375 1.5-0.375 1 0 1.6406 0.51562 0.65625 0.5 0.84375 1.4531l-1.0312 0.15625q-0.14062-0.625-0.51562-0.9375-0.375-0.32813-0.90625-0.32813-0.79688 0-1.2969 0.57813-0.5 0.5625-0.5 1.7969 0 1.2656 0.48438 1.8281 0.48437 0.5625 1.25 0.5625 0.625 0 1.0312-0.375 0.42187-0.375 0.54687-1.1719zm1.9375 2.2812v-6.2188h0.9375v0.875q0.6875-1.0156 1.9844-1.0156 0.5625 0 1.0312 0.20312 0.48437 0.20313 0.71875 0.53125 0.23437 0.32813 0.32812 0.76563 0.04688 0.29687 0.04688 1.0312v3.8281h-1.0469v-3.7812q0-0.65625-0.125-0.96875t-0.4375-0.5q-0.3125-0.20312-0.73437-0.20312-0.67188 0-1.1719 0.4375-0.48437 0.42187-0.48437 1.6094v3.4062zm7 0v-6.2188h0.9375v0.875q0.6875-1.0156 1.9844-1.0156 0.5625 0 1.0312 0.20312 0.48438 0.20313 0.71875 0.53125 0.23438 0.32813 0.32813 0.76563 0.04687 0.29687 0.04687 1.0312v3.8281h-1.0469v-3.7812q0-0.65625-0.125-0.96875t-0.4375-0.5q-0.3125-0.20312-0.73438-0.20312-0.67187 0-1.1719 0.4375-0.48437 0.42187-0.48437 1.6094v3.4062z"/>
  <path d="m38.331 223.44v-6.2188h0.95312v0.9375q0.35938-0.65625 0.65625-0.85937 0.3125-0.21875 0.6875-0.21875 0.53125 0 1.0781 0.32812l-0.35938 0.98438q-0.39062-0.23438-0.76562-0.23438-0.35938 0-0.64063 0.21875-0.26562 0.20313-0.375 0.57813-0.1875 0.5625-0.1875 1.2188v3.2656zm8.2656-2 1.0938 0.125q-0.25 0.95313-0.95312 1.4844-0.70313 0.53125-1.7812 0.53125-1.3594 0-2.1719-0.84375-0.79687-0.84375-0.79687-2.3594 0-1.5625 0.8125-2.4219 0.8125-0.875 2.0938-0.875 1.25 0 2.0312 0.84375 0.79687 0.84375 0.79687 2.3906 0 0.0937 0 0.28125h-4.6406q0.0625 1.0312 0.57812 1.5781 0.51563 0.53125 1.2969 0.53125 0.57812 0 0.98437-0.29688 0.42188-0.3125 0.65625-0.96875zm-3.4531-1.7031h3.4688q-0.0625-0.79688-0.39063-1.1875-0.51562-0.60938-1.3125-0.60938-0.73437 0-1.2344 0.48438-0.48438 0.48437-0.53125 1.3125zm10.234 3.7031v-0.78125q-0.59375 0.92188-1.7344 0.92188-0.75 0-1.375-0.40625-0.625-0.42188-0.96875-1.1562-0.34375-0.73438-0.34375-1.6875 0-0.92188 0.3125-1.6875 0.3125-0.76563 0.9375-1.1562 0.625-0.40625 1.3906-0.40625 0.5625 0 1 0.23437 0.4375 0.23438 0.71875 0.60938v-3.0781h1.0469v8.5938zm-3.3281-3.1094q0 1.2031 0.5 1.7969 0.5 0.57813 1.1875 0.57813t1.1719-0.5625q0.48438-0.5625 0.48438-1.7188 0-1.2812-0.5-1.875-0.48438-0.59375-1.2031-0.59375-0.70312 0-1.1719 0.57812-0.46875 0.5625-0.46875 1.7969zm10.328 3.1094v-0.78125q-0.59375 0.92188-1.7344 0.92188-0.75 0-1.375-0.40625-0.625-0.42188-0.96875-1.1562-0.34375-0.73438-0.34375-1.6875 0-0.92188 0.3125-1.6875 0.3125-0.76563 0.9375-1.1562 0.625-0.40625 1.3906-0.40625 0.5625 0 1 0.23437 0.4375 0.23438 0.71875 0.60938v-3.0781h1.0469v8.5938zm-3.3281-3.1094q0 1.2031 0.5 1.7969 0.5 0.57813 1.1875 0.57813t1.1719-0.5625q0.48438-0.5625 0.48438-1.7188 0-1.2812-0.5-1.875-0.48438-0.59375-1.2031-0.59375-0.70312 0-1.1719 0.57812-0.46875 0.5625-0.46875 1.7969zm6.2969-4.2656v-1.2188h1.0625v1.2188zm0 7.375v-6.2188h1.0625v6.2188zm5.2969-0.9375 0.15625 0.92188q-0.45312 0.0937-0.79687 0.0937-0.57813 0-0.89063-0.17188-0.3125-0.1875-0.45312-0.48437-0.125-0.29688-0.125-1.25v-3.5781h-0.76563v-0.8125h0.76563v-1.5469l1.0469-0.625v2.1719h1.0625v0.8125h-1.0625v3.6406q0 0.45312 0.04688 0.57812 0.0625 0.125 0.1875 0.20313 0.125 0.0781 0.35937 0.0781 0.1875 0 0.46875-0.0312z"/>
  <path d="m37.644 253.25 0.15625 0.92187q-0.45313 0.0937-0.79688 0.0937-0.57812 0-0.89062-0.17187-0.3125-0.1875-0.45313-0.48438-0.125-0.29687-0.125-1.25v-3.5781h-0.76562v-0.8125h0.76562v-1.5469l1.0469-0.625v2.1719h1.0625v0.8125h-1.0625v3.6406q0 0.45313 0.04687 0.57813 0.0625 0.125 0.1875 0.20312 0.125 0.0781 0.35938 0.0781 0.1875 0 0.46875-0.0312zm4.7812 0.9375v-0.92188q-0.73438 1.0625-1.9844 1.0625-0.54687 0-1.0312-0.20312-0.46875-0.21875-0.70312-0.53125-0.23438-0.32813-0.32813-0.79688-0.0625-0.29687-0.0625-0.98437v-3.8438h1.0625v3.4531q0 0.8125 0.0625 1.1094 0.09375 0.40625 0.40625 0.65625 0.32813 0.23437 0.8125 0.23437 0.46875 0 0.875-0.23437 0.42188-0.25 0.59375-0.67188 0.1875-0.42187 0.1875-1.2188v-3.3281h1.0469v6.2188zm2.9219 0v-6.2188h0.9375v0.875q0.29688-0.46875 0.78125-0.73438 0.48438-0.28125 1.1094-0.28125 0.6875 0 1.125 0.28125 0.45312 0.28125 0.625 0.79688 0.75-1.0781 1.9219-1.0781 0.9375 0 1.4219 0.51563 0.5 0.5 0.5 1.5781v4.2656h-1.0469v-3.9219q0-0.625-0.10937-0.90625-0.09375-0.28125-0.35938-0.45312-0.26562-0.17188-0.64062-0.17188-0.65625 0-1.0938 0.4375-0.42188 0.4375-0.42188 1.4062v3.6094h-1.0625v-4.0469q0-0.70312-0.26562-1.0469-0.25-0.35938-0.82813-0.35938-0.45312 0-0.82812 0.23438-0.375 0.23437-0.54688 0.6875-0.17187 0.45312-0.17187 1.2969v3.2344zm10.969 0h-0.98437v-8.5938h1.0625v3.0625q0.67187-0.82813 1.7031-0.82813 0.57813 0 1.0781 0.23438 0.51562 0.21875 0.84375 0.64062 0.34375 0.42188 0.53125 1.0156t0.1875 1.2656q0 1.5938-0.79688 2.4688-0.79687 0.875-1.8906 0.875-1.1094 0-1.7344-0.92187zm-0.015624-3.1562q0 1.1094 0.3125 1.6094 0.5 0.8125 1.3438 0.8125 0.6875 0 1.1875-0.59375 0.51562-0.59375 0.51562-1.7969 0-1.2188-0.48437-1.7969-0.48438-0.57812-1.1719-0.57812t-1.2031 0.60937q-0.5 0.59375-0.5 1.7344zm6.0156 3.1562v-8.5938h1.0625v8.5938zm3.0156 0v-6.2188h0.95313v0.9375q0.35937-0.65625 0.65625-0.85938 0.3125-0.21875 0.6875-0.21875 0.53125 0 1.0781 0.32813l-0.35937 0.98437q-0.39063-0.23437-0.76563-0.23437-0.35937 0-0.64062 0.21875-0.26563 0.20312-0.375 0.57812-0.1875 0.5625-0.1875 1.2188v3.2656z"/>
  <path d="m22.347 287.33v-8.6094h0.95313v0.79688q0.34375-0.46876 0.76562-0.70313 0.4375-0.23437 1.0469-0.23437 0.79687 0 1.4062 0.40624 0.60937 0.40626 0.90625 1.1563 0.3125 0.75 0.3125 1.6406 0 0.95312-0.34375 1.7188-0.32813 0.76563-0.98438 1.1719-0.65625 0.40626-1.375 0.40626-0.53125 0-0.95312-0.21876-0.42188-0.23437-0.6875-0.5625v3.0313zm0.95313-5.4688q0 1.2031 0.48437 1.7813 0.48438 0.5625 1.1719 0.5625 0.70312 0 1.2031-0.59376 0.5-0.59374 0.5-1.8437 0-1.1875-0.48437-1.7656-0.48438-0.59375-1.1719-0.59375-0.67187 0-1.1875 0.625-0.51562 0.625-0.51562 1.8281zm6.0469-4.2969v-1.2188h1.0625v1.2188zm0 7.375v-6.2188h1.0625v6.2188zm3 0v-6.2188h0.9375v0.875q0.6875-1.0156 1.9844-1.0156 0.5625 0 1.0312 0.20312 0.48437 0.20312 0.71875 0.53125 0.23437 0.32813 0.32812 0.76563 0.04688 0.29687 0.04688 1.0312v3.8281h-1.0469v-3.7812q0-0.65625-0.125-0.96875t-0.4375-0.5q-0.3125-0.20313-0.73437-0.20313-0.67188 0-1.1719 0.4375-0.48437 0.42188-0.48437 1.6094v3.4062zm9.2969-0.9375 0.15625 0.92187q-0.45313 0.0938-0.79688 0.0938-0.57812 0-0.89062-0.17188-0.3125-0.1875-0.45313-0.48438-0.125-0.29687-0.125-1.25v-3.5781h-0.76562v-0.8125h0.76562v-1.5469l1.0469-0.625v2.1719h1.0625v0.8125h-1.0625v3.6406q0 0.45313 0.04687 0.57813 0.0625 0.125 0.1875 0.20313 0.125 0.0781 0.35938 0.0781 0.1875 0 0.46875-0.0312zm4.9531-1.0625 1.0938 0.125q-0.25 0.95313-0.95312 1.4844-0.70313 0.53126-1.7812 0.53126-1.3594 0-2.1719-0.84376-0.79687-0.84374-0.79687-2.3594 0-1.5625 0.8125-2.4219 0.8125-0.875 2.0938-0.875 1.25 0 2.0312 0.84374 0.79687 0.84376 0.79687 2.3906 0 0.0937 0 0.28125h-4.6406q0.0625 1.0312 0.57812 1.5781 0.51563 0.53126 1.2969 0.53126 0.57812 0 0.98437-0.29688 0.42188-0.3125 0.65625-0.96875zm-3.4531-1.7031h3.4688q-0.0625-0.79687-0.39063-1.1875-0.51562-0.60937-1.3125-0.60937-0.73437 0-1.2344 0.48437-0.48438 0.48438-0.53125 1.3125zm6.1875 3.7031v-6.2188h0.95312v0.9375q0.35938-0.65625 0.65625-0.85938 0.3125-0.21874 0.6875-0.21874 0.53125 0 1.0781 0.32812l-0.35938 0.98438q-0.39062-0.23438-0.76562-0.23438-0.35938 0-0.64063 0.21875-0.26562 0.20313-0.375 0.57813-0.1875 0.5625-0.1875 1.2187v3.2656zm8.2656-2 1.0938 0.125q-0.25 0.95313-0.95312 1.4844-0.70313 0.53126-1.7812 0.53126-1.3594 0-2.1719-0.84376-0.79687-0.84374-0.79687-2.3594 0-1.5625 0.8125-2.4219 0.8125-0.875 2.0938-0.875 1.25 0 2.0312 0.84374 0.79687 0.84376 0.79687 2.3906 0 0.0937 0 0.28125h-4.6406q0.0625 1.0312 0.57812 1.5781 0.51563 0.53126 1.2969 0.53126 0.57812 0 0.98437-0.29688 0.42188-0.3125 0.65625-0.96875zm-3.4531-1.7031h3.4688q-0.0625-0.79687-0.39063-1.1875-0.51562-0.60937-1.3125-0.60937-0.73437 0-1.2344 0.48437-0.48438 0.48438-0.53125 1.3125zm5.7812 1.8438 1.0312-0.15626q0.09375 0.625 0.48437 0.95313 0.40625 0.32813 1.1406 0.32813 0.71875 0 1.0625-0.28126 0.35938-0.29687 0.35938-0.70312 0-0.35938-0.31251-0.5625-0.21875-0.14062-1.0781-0.35938-1.1562-0.29687-1.6094-0.5-0.4375-0.21874-0.67187-0.59374-0.23438-0.375-0.23438-0.84376 0-0.40624 0.1875-0.76562t0.51563-0.59375q0.25-0.17187 0.67187-0.29687 0.42188-0.125 0.92188-0.125 0.71875 0 1.2656 0.21874 0.56251 0.20313 0.82813 0.5625 0.26563 0.35938 0.35938 0.95313l-1.0313 0.14063q-0.0625-0.46876-0.40625-0.73438-0.32812-0.28125-0.95312-0.28125-0.71875 0-1.0312 0.25-0.3125 0.23437-0.3125 0.5625 0 0.20313 0.125 0.35937 0.14062 0.17188 0.40625 0.28126 0.15625 0.0625 0.9375 0.26562 1.125 0.3125 1.5625 0.5t0.6875 0.54688q0.25 0.35937 0.25 0.90624 0 0.53126-0.3125 1-0.29687 0.45313-0.875 0.71876-0.57813 0.25-1.3125 0.25-1.2188 0-1.8594-0.5-0.625-0.51563-0.79687-1.5zm8.7188 0.92187 0.15625 0.92187q-0.45312 0.0938-0.79687 0.0938-0.57813 0-0.89063-0.17188-0.3125-0.1875-0.45312-0.48438-0.125-0.29687-0.125-1.25v-3.5781h-0.76563v-0.8125h0.76563v-1.5469l1.0469-0.625v2.1719h1.0625v0.8125h-1.0625v3.6406q0 0.45313 0.04688 0.57813 0.0625 0.125 0.1875 0.20313 0.125 0.0781 0.35937 0.0781 0.1875 0 0.46875-0.0312z"/>
  <path d="m44.597 315.69v-5.4063h-0.9375v-0.8125h0.9375v-0.67186q0-0.625 0.10938-0.92188 0.15625-0.42186 0.53125-0.67186 0.39062-0.25 1.0781-0.25 0.45313 0 0.98438 0.10936l-0.15625 0.90624q-0.32813-0.0469-0.625-0.0469-0.48438 0-0.6875 0.20312-0.1875 0.20314-0.1875 0.76564v0.5781h1.2188v0.8125h-1.2188v5.4063zm2.7188 0v-8.5938h1.0625v8.5938zm3.0312-7.375v-1.2188h1.0625v1.2188zm0 7.375v-6.2188h1.0625v6.2188zm7.0625-2.2813 1.0312 0.14064q-0.17187 1.0625-0.875 1.6719-0.70312 0.6094-1.7188 0.6094-1.2812 0-2.0625-0.82814-0.76562-0.84376-0.76562-2.4063 0-1 0.32812-1.75 0.34375-0.7656 1.0156-1.1406 0.6875-0.375 1.5-0.375 1 0 1.6406 0.5156 0.65625 0.5 0.84375 1.4531l-1.0312 0.15626q-0.14062-0.625-0.51562-0.9375-0.375-0.32814-0.90625-0.32814-0.79688 0-1.2969 0.57814-0.5 0.5625-0.5 1.7969 0 1.2656 0.48438 1.8281 0.48437 0.5625 1.25 0.5625 0.625 0 1.0312-0.375 0.42187-0.375 0.54687-1.1719zm1.9375 2.2813v-8.5938h1.0625v4.9063l2.4844-2.5313h1.375l-2.3906 2.2969 2.625 3.9219h-1.2969l-2.0625-3.1875-0.73438 0.71874v2.4688zm5.9844 0v-6.2188h0.95313v0.9375q0.35937-0.65624 0.65625-0.85936 0.3125-0.21874 0.6875-0.21874 0.53125 0 1.0781 0.3281l-0.35937 0.9844q-0.39063-0.2344-0.76563-0.2344-0.35937 0-0.64062 0.21876-0.26563 0.20314-0.375 0.57814-0.1875 0.5625-0.1875 1.2187v3.2656z"/>
  <path d="m71.55 345.22q0-1.5312 0.3125-2.4531 0.3125-0.9375 0.92188-1.4375 0.625-0.5 1.5625-0.5 0.6875 0 1.2031 0.28126 0.53125 0.28124 0.875 0.8125 0.34375 0.51564 0.53125 1.2656t0.1875 2.0312q0 1.5156-0.3125 2.4375-0.29687 0.92186-0.92187 1.4375-0.60938 0.5-1.5625 0.5-1.2344 0-1.9531-0.89064-0.84375-1.0625-0.84375-3.4844zm1.0781 0q0 2.1094 0.5 2.8125 0.5 0.70312 1.2188 0.70312 0.73437 0 1.2188-0.70312 0.5-0.70314 0.5-2.8125 0-2.125-0.5-2.8125-0.48438-0.70314-1.2344-0.70314-0.71875 0-1.1562 0.6094-0.54687 0.78124-0.54687 2.9062z"/>
  <path d="m200.32 348.43v1.0156h-5.6875q0-0.375 0.125-0.73436 0.21875-0.57814 0.6875-1.1406 0.48437-0.5625 1.3906-1.2969 1.4062-1.1562 1.8906-1.8281 0.5-0.67186 0.5-1.2656 0-0.625-0.45312-1.0469-0.45313-0.4375-1.1719-0.4375-0.76562 0-1.2188 0.45314-0.45313 0.45312-0.46875 1.2656l-1.0781-0.10936q0.10937-1.2188 0.82812-1.8438 0.73438-0.64064 1.9688-0.64064t1.9531 0.6875q0.71874 0.6875 0.71874 1.7031 0 0.51562-0.21874 1.0156-0.20313 0.48438-0.70313 1.0469-0.48437 0.54686-1.6094 1.5-0.95313 0.79686-1.2344 1.0938-0.26562 0.28124-0.4375 0.5625zm1.4531-3.2188q0-1.5312 0.3125-2.4531 0.3125-0.9375 0.92187-1.4375 0.625-0.5 1.5625-0.5 0.6875 0 1.2031 0.28126 0.53124 0.28124 0.875 0.8125 0.34374 0.51564 0.53124 1.2656t0.1875 2.0312q0 1.5156-0.3125 2.4375-0.29687 0.92186-0.92187 1.4375-0.60937 0.5-1.5625 0.5-1.2344 0-1.9531-0.89064-0.84374-1.0625-0.84374-3.4844zm1.0781 0q0 2.1094 0.5 2.8125 0.5 0.70312 1.2188 0.70312 0.73437 0 1.2188-0.70312 0.5-0.70314 0.5-2.8125 0-2.125-0.5-2.8125-0.48438-0.70314-1.2344-0.70314-0.71874 0-1.1562 0.6094-0.54688 0.78124-0.54688 2.9062z"/>
  <path d="m324.88 349.45v-2.0625h-3.7188v-0.96874l3.9219-5.5625h0.85938v5.5625h1.1562v0.96874h-1.1562v2.0625zm0-3.0312v-3.8594l-2.6875 3.8594zm3.625-1.2031q0-1.5312 0.3125-2.4531 0.3125-0.9375 0.92188-1.4375 0.625-0.5 1.5625-0.5 0.6875 0 1.2031 0.28126 0.53125 0.28124 0.875 0.8125 0.34375 0.51564 0.53125 1.2656t0.1875 2.0312q0 1.5156-0.3125 2.4375-0.29687 0.92186-0.92187 1.4375-0.60938 0.5-1.5625 0.5-1.2344 0-1.9531-0.89064-0.84375-1.0625-0.84375-3.4844zm1.0781 0q0 2.1094 0.5 2.8125 0.5 0.70312 1.2188 0.70312 0.73437 0 1.2187-0.70312 0.5-0.70314 0.5-2.8125 0-2.125-0.5-2.8125-0.48437-0.70314-1.2344-0.70314-0.71875 0-1.1562 0.6094-0.54688 0.78124-0.54688 2.9062z"/>
  <path d="m453.69 342.97-1.0469 0.0781q-0.14062-0.625-0.39062-0.90626-0.4375-0.4531-1.0625-0.4531-0.5 0-0.89063 0.28124-0.48437 0.375-0.78125 1.0781-0.28125 0.6875-0.29688 1.9687 0.375-0.5781 0.92188-0.85936 0.5625-0.28124 1.1719-0.28124 1.0469 0 1.7812 0.78124 0.75 0.78126 0.75 2 0 0.8125-0.35937 1.5156-0.34375 0.6875-0.95313 1.0625-0.60937 0.35938-1.375 0.35938-1.3281 0-2.1562-0.96874-0.82813-0.96876-0.82813-3.1875 0-2.5 0.92187-3.625 0.79688-0.9844 2.1563-0.9844 1.0156 0 1.6562 0.57814 0.65626 0.5625 0.78126 1.5625zm-4.2969 3.7031q0 0.54688 0.21875 1.0469 0.23437 0.48436 0.64063 0.75 0.42187 0.26562 0.89062 0.26562 0.65625 0 1.1406-0.53126 0.48438-0.54686 0.48438-1.4687 0-0.89062-0.48438-1.4063-0.46874-0.5156-1.1875-0.5156-0.71874 0-1.2187 0.5156-0.48438 0.51564-0.48438 1.3438zm5.8281-1.4531q0-1.5312 0.3125-2.4531 0.3125-0.9375 0.92188-1.4375 0.625-0.5 1.5625-0.5 0.6875 0 1.2031 0.28126 0.53126 0.28124 0.875 0.8125 0.34376 0.51564 0.53126 1.2656t0.1875 2.0312q0 1.5156-0.3125 2.4375-0.29688 0.92186-0.92188 1.4375-0.60938 0.5-1.5625 0.5-1.2344 0-1.9531-0.89064-0.84376-1.0625-0.84376-3.4844zm1.0781 0q0 2.1094 0.5 2.8125 0.5 0.70312 1.2188 0.70312 0.73438 0 1.2188-0.70312 0.5-0.70314 0.5-2.8125 0-2.125-0.5-2.8125-0.48437-0.70314-1.2344-0.70314-0.71876 0-1.1563 0.6094-0.54687 0.78124-0.54687 2.9062z"/>
  <path d="m576.58 344.79q-0.65624-0.25-0.98436-0.6875-0.3125-0.45312-0.3125-1.0625 0-0.9375 0.67186-1.5781 0.6875-0.64064 1.7969-0.64064 1.125 0 1.8125 0.65626 0.6875 0.65624 0.6875 1.5937 0 0.59376-0.3125 1.0313t-0.95314 0.6875q0.79688 0.25 1.2031 0.82814 0.40624 0.5781 0.40624 1.375 0 1.0937-0.78124 1.8437-0.76564 0.75-2.0469 0.75-1.2656 0-2.0469-0.75-0.78124-0.75-0.78124-1.875 0-0.84374 0.42186-1.4062 0.4375-0.5625 1.2187-0.76564zm-0.21874-1.7969q0 0.60936 0.39064 1 0.40624 0.3906 1.0312 0.3906 0.60936 0 1-0.375 0.39062-0.3906 0.39062-0.9531 0-0.57814-0.40626-0.96876-0.40624-0.40624-1-0.40624-0.60936 0-1.0156 0.3906-0.39064 0.39064-0.39064 0.9219zm-0.32812 3.9687q0 0.45312 0.20312 0.875 0.21874 0.42186 0.64064 0.65626 0.42186 0.23436 0.90624 0.23436 0.75 0 1.2344-0.48436 0.5-0.4844 0.5-1.2344 0-0.7656-0.5-1.2656t-1.2656-0.5q-0.75 0-1.2344 0.5-0.48436 0.48436-0.48436 1.2187zm5.9219-1.75q0-1.5312 0.3125-2.4531 0.3125-0.9375 0.9219-1.4375 0.625-0.5 1.5625-0.5 0.6875 0 1.2031 0.28126 0.53126 0.28124 0.875 0.8125 0.34376 0.51564 0.53126 1.2656t0.1875 2.0312q0 1.5156-0.3125 2.4375-0.29686 0.92186-0.92186 1.4375-0.6094 0.5-1.5625 0.5-1.2344 0-1.9531-0.89064-0.84376-1.0625-0.84376-3.4844zm1.0781 0q0 2.1094 0.5 2.8125 0.5 0.70312 1.2188 0.70312 0.73436 0 1.2187-0.70312 0.5-0.70314 0.5-2.8125 0-2.125-0.5-2.8125-0.48438-0.70314-1.2344-0.70314-0.71876 0-1.1563 0.6094-0.54686 0.78124-0.54686 2.9062z"/>
 </g>
 <g>
  <path d="m94.5 20.55c0-0.55228 0.44772-1 1-1h10c0.55228 0 1 0.44772 1 1v10c0 0.55228-0.44772 1-1 1h-10c-0.55228 0-1-0.44772-1-1z" fill="#4285f4"/>
  <path d="m115.39 29.55v-8.5938h1.7188l2.0312 6.0781q0.28125 0.85938 0.40625 1.2812 0.14062-0.46875 0.45312-1.375l2.0625-5.9844h1.5312v8.5938h-1.0938v-7.1875l-2.5 7.1875h-1.0312l-2.4844-7.3125v7.3125zm9.6719-7.4688v-1.0156h5.5625v0.82813q-0.8125 0.875-1.625 2.3281-0.79688 1.4375-1.2344 2.9688-0.32813 1.0781-0.40625 2.3594h-1.0938q0.0156-1.0156 0.39062-2.4531 0.39063-1.4375 1.0938-2.7656 0.71875-1.3281 1.5312-2.25zm7 0v-1.0156h5.5625v0.82813q-0.8125 0.875-1.625 2.3281-0.79688 1.4375-1.2344 2.9688-0.32812 1.0781-0.40624 2.3594h-1.0938q0.0156-1.0156 0.39063-2.4531 0.39063-1.4375 1.0938-2.7656 0.71875-1.3281 1.5312-2.25zm7.5156 2.4531v-1.2031h1.2031v1.2031zm0 5.0156v-1.2031h1.2031v1.2031zm6.8594 0-1.9062-6.2188h1.0938l0.98438 3.5938 0.375 1.3281q0.0312-0.09375 0.32812-1.2812l0.98438-3.6406h1.0781l0.9375 3.6094 0.3125 1.1875 0.35938-1.2031 1.0625-3.5938h1.0312l-1.9531 6.2188h-1.0938l-0.98437-3.7344-0.25-1.0469-1.25 4.7812zm7.8594-7.375v-1.2188h1.0625v1.2188zm0 7.375v-6.2188h1.0625v6.2188zm5.2969-0.9375 0.15625 0.92187q-0.45312 0.09375-0.79688 0.09375-0.57812 0-0.89062-0.17187-0.3125-0.1875-0.45312-0.48438-0.125-0.29687-0.125-1.25v-3.5781h-0.76563v-0.8125h0.76563v-1.5469l1.0469-0.625v2.1719h1.0625v0.8125h-1.0625v3.6406q0 0.45313 0.0469 0.57813 0.0625 0.125 0.1875 0.20312 0.125 0.07813 0.35938 0.07813 0.1875 0 0.46875-0.03125zm0.70313 0.9375v-8.5938h1.0469v3.0781q0.73437-0.84375 1.8594-0.84375 0.70313 0 1.2031 0.28125 0.51563 0.26563 0.73437 0.75 0.21876 0.46875 0.21876 1.3906v3.9375h-1.0469v-3.9375q0-0.79688-0.34375-1.1562-0.34375-0.35938-0.96875-0.35938-0.46875 0-0.89062 0.25-0.40626 0.23438-0.59376 0.65625-0.17187 0.40625-0.17187 1.1406v3.4062zm6.6094-3.1094q0-1.7344 0.95313-2.5625 0.79687-0.6875 1.9531-0.6875 1.2812 0 2.0938 0.84375 0.82813 0.82813 0.82813 2.3125 0 1.2031-0.35938 1.8906t-1.0625 1.0781q-0.6875 0.375-1.5 0.375-1.2969 0-2.1094-0.82812-0.79687-0.84375-0.79687-2.4219zm1.0781 0q0 1.1875 0.51562 1.7812 0.53125 0.59375 1.3125 0.59375 0.79688 0 1.3125-0.59375t0.51562-1.8125q0-1.1562-0.53124-1.75-0.51563-0.59375-1.2969-0.59375t-1.3125 0.59375q-0.51562 0.57813-0.51562 1.7812zm10.391 3.1094v-0.92188q-0.73438 1.0625-1.9844 1.0625-0.54687 0-1.0312-0.20312-0.46876-0.21875-0.70313-0.53125-0.23437-0.32813-0.32813-0.79688-0.0625-0.29687-0.0625-0.98437v-3.8438h1.0625v3.4531q0 0.8125 0.0625 1.1094 0.0938 0.40625 0.40626 0.65625 0.32812 0.23437 0.8125 0.23437 0.46874 0 0.875-0.23437 0.42187-0.25 0.59374-0.67188 0.1875-0.42187 0.1875-1.2188v-3.3281h1.0469v6.2188zm5.2188-0.9375 0.15625 0.92187q-0.45312 0.09375-0.79688 0.09375-0.57812 0-0.89062-0.17187-0.3125-0.1875-0.45312-0.48438-0.125-0.29687-0.125-1.25v-3.5781h-0.76563v-0.8125h0.76563v-1.5469l1.0469-0.625v2.1719h1.0625v0.8125h-1.0625v3.6406q0 0.45313 0.0469 0.57813 0.0625 0.125 0.1875 0.20312 0.125 0.07813 0.35938 0.07813 0.1875 0 0.46875-0.03125zm7.7656-1.3438 1.0312 0.14062q-0.17187 1.0625-0.875 1.6719-0.70312 0.60937-1.7187 0.60937-1.2813 0-2.0625-0.82812-0.76563-0.84375-0.76563-2.4062 0-1 0.32813-1.75 0.34374-0.76563 1.0156-1.1406 0.6875-0.375 1.5-0.375 1 0 1.6406 0.51563 0.65626 0.5 0.84376 1.4531l-1.0313 0.15625q-0.14062-0.625-0.51562-0.9375-0.375-0.32812-0.90625-0.32812-0.79687 0-1.2969 0.57812-0.5 0.5625-0.5 1.7969 0 1.2656 0.48437 1.8281t1.25 0.5625q0.625 0 1.0312-0.375 0.42188-0.375 0.54688-1.1719zm1.5469-0.82813q0-1.7344 0.95313-2.5625 0.79687-0.6875 1.9531-0.6875 1.2812 0 2.0938 0.84375 0.82813 0.82813 0.82813 2.3125 0 1.2031-0.35938 1.8906t-1.0625 1.0781q-0.6875 0.375-1.5 0.375-1.2969 0-2.1094-0.82812-0.79687-0.84375-0.79687-2.4219zm1.0781 0q0 1.1875 0.51562 1.7812 0.53125 0.59375 1.3125 0.59375 0.79688 0 1.3125-0.59375t0.51562-1.8125q0-1.1562-0.53124-1.75-0.51563-0.59375-1.2969-0.59375t-1.3125 0.59375q-0.51562 0.57813-0.51562 1.7812zm6.3125 3.1094v-6.2188h0.9375v0.875q0.6875-1.0156 1.9844-1.0156 0.5625 0 1.0312 0.20313 0.48438 0.20312 0.71875 0.53125 0.23437 0.32812 0.32813 0.76562 0.0469 0.29688 0.0469 1.0312v3.8281h-1.0469v-3.7812q0-0.65625-0.125-0.96875t-0.4375-0.5q-0.3125-0.20313-0.73438-0.20313-0.67188 0-1.1719 0.4375-0.48437 0.42188-0.48437 1.6094v3.4062zm11.062-2.2812 1.0312 0.14062q-0.17187 1.0625-0.875 1.6719-0.70312 0.60937-1.7187 0.60937-1.2813 0-2.0625-0.82812-0.76563-0.84375-0.76563-2.4062 0-1 0.32813-1.75 0.34374-0.76563 1.0156-1.1406 0.6875-0.375 1.5-0.375 1 0 1.6406 0.51563 0.65626 0.5 0.84376 1.4531l-1.0313 0.15625q-0.14062-0.625-0.51562-0.9375-0.375-0.32812-0.90625-0.32812-0.79687 0-1.2969 0.57812-0.5 0.5625-0.5 1.7969 0 1.2656 0.48437 1.8281t1.25 0.5625q0.625 0 1.0312-0.375 0.42188-0.375 0.54688-1.1719zm6.0156 2.2812v-0.92188q-0.73438 1.0625-1.9844 1.0625-0.54687 0-1.0312-0.20312-0.46876-0.21875-0.70313-0.53125-0.23437-0.32813-0.32813-0.79688-0.0625-0.29687-0.0625-0.98437v-3.8438h1.0625v3.4531q0 0.8125 0.0625 1.1094 0.0938 0.40625 0.40626 0.65625 0.32812 0.23437 0.8125 0.23437 0.46874 0 0.875-0.23437 0.42187-0.25 0.59374-0.67188 0.1875-0.42187 0.1875-1.2188v-3.3281h1.0469v6.2188zm2.9062 0v-6.2188h0.95313v0.9375q0.35937-0.65625 0.65624-0.85938 0.3125-0.21875 0.6875-0.21875 0.53126 0 1.0781 0.32813l-0.35937 0.98437q-0.39063-0.23437-0.76563-0.23437-0.35937 0-0.64063 0.21875-0.26562 0.20312-0.375 0.57812-0.1875 0.5625-0.1875 1.2188v3.2656zm4 0v-6.2188h0.95313v0.9375q0.35937-0.65625 0.65624-0.85938 0.3125-0.21875 0.6875-0.21875 0.53126 0 1.0781 0.32813l-0.35937 0.98437q-0.39063-0.23437-0.76563-0.23437-0.35937 0-0.64063 0.21875-0.26562 0.20312-0.375 0.57812-0.1875 0.5625-0.1875 1.2188v3.2656zm8.2656-2 1.0937 0.125q-0.25 0.95312-0.95312 1.4844t-1.7812 0.53125q-1.3594 0-2.1719-0.84375-0.79688-0.84375-0.79688-2.3594 0-1.5625 0.8125-2.4219 0.8125-0.875 2.0938-0.875 1.25 0 2.0312 0.84375 0.79688 0.84375 0.79688 2.3906 0 0.09375 0 0.28125h-4.6406q0.0625 1.0312 0.57813 1.5781 0.51562 0.53125 1.2969 0.53125 0.57813 0 0.98437-0.29687 0.42188-0.3125 0.65626-0.96875zm-3.4531-1.7031h3.4688q-0.0625-0.79687-0.39062-1.1875-0.51563-0.60937-1.3125-0.60937-0.73438 0-1.2344 0.48437-0.48438 0.48438-0.53125 1.3125zm6.2031 3.7031v-6.2188h0.9375v0.875q0.6875-1.0156 1.9844-1.0156 0.5625 0 1.0312 0.20313 0.48438 0.20312 0.71875 0.53125 0.23437 0.32812 0.32813 0.76562 0.0469 0.29688 0.0469 1.0312v3.8281h-1.0469v-3.7812q0-0.65625-0.125-0.96875t-0.4375-0.5q-0.3125-0.20313-0.73438-0.20313-0.67188 0-1.1719 0.4375-0.48437 0.42188-0.48437 1.6094v3.4062zm9.2969-0.9375 0.15625 0.92187q-0.45312 0.09375-0.79688 0.09375-0.57812 0-0.89062-0.17187-0.3125-0.1875-0.45312-0.48438-0.125-0.29687-0.125-1.25v-3.5781h-0.76563v-0.8125h0.76563v-1.5469l1.0469-0.625v2.1719h1.0625v0.8125h-1.0625v3.6406q0 0.45313 0.0469 0.57813 0.0625 0.125 0.1875 0.20312 0.125 0.07813 0.35938 0.07813 0.1875 0 0.46875-0.03125zm3.2812-0.92188 1.0312-0.15625q0.0937 0.625 0.48437 0.95313 0.40626 0.32812 1.1406 0.32812 0.71875 0 1.0625-0.28125 0.35937-0.29687 0.35937-0.70312 0-0.35938-0.3125-0.5625-0.21874-0.14063-1.0781-0.35938-1.1562-0.29687-1.6094-0.5-0.4375-0.21875-0.67187-0.59375t-0.23437-0.84375q0-0.40625 0.1875-0.76562 0.1875-0.35938 0.51562-0.59375 0.25-0.17188 0.67188-0.29688 0.42187-0.125 0.92187-0.125 0.71875 0 1.2656 0.21875 0.5625 0.20313 0.82812 0.5625 0.26562 0.35938 0.35938 0.95313l-1.0313 0.14062q-0.0625-0.46875-0.40624-0.73437-0.32813-0.28125-0.95313-0.28125-0.71875 0-1.0312 0.25-0.3125 0.23437-0.3125 0.5625 0 0.20312 0.125 0.35937 0.14062 0.17188 0.40625 0.28125 0.15625 0.0625 0.9375 0.26563 1.125 0.3125 1.5625 0.5t0.6875 0.54687q0.25 0.35938 0.25 0.90625 0 0.53125-0.3125 1-0.29687 0.45313-0.875 0.71875-0.57813 0.25-1.3125 0.25-1.2188 0-1.8594-0.5-0.625-0.51562-0.79688-1.5zm7.5625 1.8594-1.9062-6.2188h1.0938l0.98438 3.5938 0.375 1.3281q0.0312-0.09375 0.32812-1.2812l0.98438-3.6406h1.0781l0.9375 3.6094 0.3125 1.1875 0.35938-1.2031 1.0625-3.5938h1.0312l-1.9531 6.2188h-1.0938l-0.98437-3.7344-0.25-1.0469-1.25 4.7812zm12.109-2 1.0937 0.125q-0.25 0.95312-0.95312 1.4844t-1.7812 0.53125q-1.3594 0-2.1719-0.84375-0.79688-0.84375-0.79688-2.3594 0-1.5625 0.8125-2.4219 0.8125-0.875 2.0938-0.875 1.25 0 2.0312 0.84375 0.79688 0.84375 0.79688 2.3906 0 0.09375 0 0.28125h-4.6406q0.0625 1.0312 0.57813 1.5781 0.51562 0.53125 1.2969 0.53125 0.57813 0 0.98437-0.29687 0.42188-0.3125 0.65626-0.96875zm-3.4531-1.7031h3.4688q-0.0625-0.79687-0.39062-1.1875-0.51563-0.60937-1.3125-0.60937-0.73438 0-1.2344 0.48437-0.48438 0.48438-0.53125 1.3125zm10.453 1.7031 1.0937 0.125q-0.25 0.95312-0.95312 1.4844t-1.7812 0.53125q-1.3594 0-2.1719-0.84375-0.79688-0.84375-0.79688-2.3594 0-1.5625 0.8125-2.4219 0.8125-0.875 2.0938-0.875 1.25 0 2.0312 0.84375 0.79688 0.84375 0.79688 2.3906 0 0.09375 0 0.28125h-4.6406q0.0625 1.0312 0.57813 1.5781 0.51562 0.53125 1.2969 0.53125 0.57813 0 0.98437-0.29687 0.42188-0.3125 0.65626-0.96875zm-3.4531-1.7031h3.4688q-0.0625-0.79687-0.39062-1.1875-0.51563-0.60937-1.3125-0.60937-0.73438 0-1.2344 0.48437-0.48438 0.48438-0.53125 1.3125zm6.2031 6.0938v-8.6094h0.95312v0.79687q0.34375-0.46875 0.76562-0.70312 0.4375-0.23438 1.0469-0.23438 0.79688 0 1.4062 0.40625t0.90625 1.1562q0.3125 0.75 0.3125 1.6406 0 0.95312-0.34375 1.7188-0.32813 0.76562-0.98437 1.1719-0.65626 0.40625-1.375 0.40625-0.53126 0-0.95313-0.21875-0.42187-0.23437-0.6875-0.5625v3.0312zm0.95312-5.4688q0 1.2031 0.48438 1.7812 0.48437 0.5625 1.1719 0.5625 0.70313 0 1.2031-0.59375t0.5-1.8438q0-1.1875-0.48438-1.7656-0.48438-0.59375-1.1719-0.59375-0.67187 0-1.1875 0.625-0.51562 0.625-0.51562 1.8281zm6.0469-4.2969v-1.2188h1.0625v1.2188zm0 7.375v-6.2188h1.0625v6.2188zm3 0v-6.2188h0.9375v0.875q0.6875-1.0156 1.9844-1.0156 0.5625 0 1.0312 0.20313 0.48438 0.20312 0.71875 0.53125 0.23437 0.32812 0.32813 0.76562 0.0469 0.29688 0.0469 1.0312v3.8281h-1.0469v-3.7812q0-0.65625-0.125-0.96875t-0.4375-0.5q-0.3125-0.20313-0.73438-0.20313-0.67188 0-1.1719 0.4375-0.48437 0.42188-0.48437 1.6094v3.4062zm6.7969 0.51562 1.0312 0.15625q0.0625 0.46875 0.35938 0.6875 0.39062 0.29688 1.0625 0.29688 0.73437 0 1.125-0.29688 0.40624-0.29687 0.54687-0.8125 0.0937-0.32812 0.0781-1.3594-0.6875 0.8125-1.7188 0.8125-1.2812 0-1.9844-0.92188-0.70313-0.9375-0.70313-2.2188 0-0.89062 0.3125-1.6406 0.32813-0.76563 0.9375-1.1719 0.60938-0.40625 1.4375-0.40625 1.1094 0 1.8281 0.89063v-0.75h0.96875v5.375q0 1.4531-0.29688 2.0625-0.29687 0.60937-0.9375 0.95312-0.64062 0.35938-1.5781 0.35938-1.1094 0-1.7969-0.5t-0.67187-1.5156zm0.875-3.7344q0 1.2188 0.48437 1.7812 0.48438 0.5625 1.2188 0.5625 0.73437 0 1.2187-0.5625 0.5-0.5625 0.5-1.75 0-1.1406-0.51562-1.7188-0.5-0.57813-1.2188-0.57813-0.70313 0-1.2031 0.57813-0.48437 0.5625-0.48437 1.6875z" fill="#1a1a1a"/>
  <path d="m316.5 20.55c0-0.55228 0.44772-1 1-1h10c0.55228 0 1 0.44772 1 1v10c0 0.55228-0.44772 1-1 1h-10c-0.55228 0-1-0.44772-1-1z" fill="#ea4335"/>
  <path d="m337.39 29.55v-8.5938h1.7188l2.0312 6.0781q0.28126 0.85938 0.40626 1.2812 0.14062-0.46875 0.45312-1.375l2.0625-5.9844h1.5312v8.5938h-1.0938v-7.1875l-2.5 7.1875h-1.0312l-2.4844-7.3125v7.3125zm9.6719-7.4688v-1.0156h5.5625v0.82813q-0.8125 0.875-1.625 2.3281-0.79688 1.4375-1.2344 2.9688-0.32812 1.0781-0.40624 2.3594h-1.0938q0.0156-1.0156 0.39063-2.4531 0.39063-1.4375 1.0938-2.7656 0.71875-1.3281 1.5312-2.25zm8.5625 2.8125q-0.65625-0.25-0.98438-0.6875-0.3125-0.45313-0.3125-1.0625 0-0.9375 0.67188-1.5781 0.6875-0.64062 1.7969-0.64062 1.125 0 1.8125 0.65625t0.6875 1.5938q0 0.59375-0.3125 1.0312t-0.95313 0.6875q0.79687 0.25 1.2031 0.82812 0.40624 0.57813 0.40624 1.375 0 1.0938-0.78124 1.8438-0.76563 0.75-2.0469 0.75-1.2656 0-2.0469-0.75-0.78124-0.75-0.78124-1.875 0-0.84375 0.42187-1.4062 0.4375-0.5625 1.2188-0.76562zm-0.21875-1.7969q0 0.60938 0.39063 1 0.40624 0.39063 1.0312 0.39063 0.60938 0 1-0.375 0.39063-0.39063 0.39063-0.95313 0-0.57812-0.40625-0.96875-0.40625-0.40625-1-0.40625-0.60938 0-1.0156 0.39063-0.39063 0.39062-0.39063 0.92187zm-0.32813 3.9688q0 0.45313 0.20313 0.875 0.21875 0.42188 0.64063 0.65625 0.42187 0.23438 0.90624 0.23438 0.75 0 1.2344-0.48438 0.5-0.48437 0.5-1.2344 0-0.76563-0.5-1.2656t-1.2656-0.5q-0.75 0-1.2344 0.5-0.48438 0.48438-0.48438 1.2188zm6.5-2.5312v-1.2031h1.2031v1.2031zm0 5.0156v-1.2031h1.2031v1.2031zm6.8594 0-1.9062-6.2188h1.0938l0.98438 3.5938 0.375 1.3281q0.0312-0.09375 0.32812-1.2812l0.98438-3.6406h1.0781l0.9375 3.6094 0.3125 1.1875 0.35938-1.2031 1.0625-3.5938h1.0312l-1.9531 6.2188h-1.0938l-0.98437-3.7344-0.25-1.0469-1.25 4.7812zm7.8594-7.375v-1.2188h1.0625v1.2188zm0 7.375v-6.2188h1.0625v6.2188zm5.2969-0.9375 0.15625 0.92187q-0.45312 0.09375-0.79688 0.09375-0.57812 0-0.89062-0.17187-0.3125-0.1875-0.45312-0.48438-0.125-0.29687-0.125-1.25v-3.5781h-0.76563v-0.8125h0.76563v-1.5469l1.0469-0.625v2.1719h1.0625v0.8125h-1.0625v3.6406q0 0.45313 0.0469 0.57813 0.0625 0.125 0.1875 0.20312 0.125 0.07813 0.35938 0.07813 0.1875 0 0.46875-0.03125zm0.70313 0.9375v-8.5938h1.0469v3.0781q0.73437-0.84375 1.8594-0.84375 0.70313 0 1.2031 0.28125 0.51563 0.26563 0.73437 0.75 0.21876 0.46875 0.21876 1.3906v3.9375h-1.0469v-3.9375q0-0.79688-0.34375-1.1562-0.34375-0.35938-0.96875-0.35938-0.46875 0-0.89062 0.25-0.40626 0.23438-0.59376 0.65625-0.17187 0.40625-0.17187 1.1406v3.4062zm14.062-2.2812 1.0312 0.14062q-0.17187 1.0625-0.875 1.6719-0.70312 0.60937-1.7187 0.60937-1.2813 0-2.0625-0.82812-0.76563-0.84375-0.76563-2.4062 0-1 0.32813-1.75 0.34374-0.76563 1.0156-1.1406 0.6875-0.375 1.5-0.375 1 0 1.6406 0.51563 0.65626 0.5 0.84376 1.4531l-1.0313 0.15625q-0.14062-0.625-0.51562-0.9375-0.375-0.32812-0.90625-0.32812-0.79687 0-1.2969 0.57812-0.5 0.5625-0.5 1.7969 0 1.2656 0.48437 1.8281t1.25 0.5625q0.625 0 1.0312-0.375 0.42188-0.375 0.54688-1.1719zm1.5469-0.82813q0-1.7344 0.95313-2.5625 0.79687-0.6875 1.9531-0.6875 1.2812 0 2.0938 0.84375 0.82813 0.82813 0.82813 2.3125 0 1.2031-0.35938 1.8906t-1.0625 1.0781q-0.6875 0.375-1.5 0.375-1.2969 0-2.1094-0.82812-0.79687-0.84375-0.79687-2.4219zm1.0781 0q0 1.1875 0.51562 1.7812 0.53125 0.59375 1.3125 0.59375 0.79688 0 1.3125-0.59375t0.51562-1.8125q0-1.1562-0.53124-1.75-0.51563-0.59375-1.2969-0.59375t-1.3125 0.59375q-0.51562 0.57813-0.51562 1.7812zm6.3125 3.1094v-6.2188h0.9375v0.875q0.6875-1.0156 1.9844-1.0156 0.5625 0 1.0312 0.20313 0.48438 0.20312 0.71875 0.53125 0.23437 0.32812 0.32813 0.76562 0.0469 0.29688 0.0469 1.0312v3.8281h-1.0469v-3.7812q0-0.65625-0.125-0.96875t-0.4375-0.5q-0.3125-0.20313-0.73438-0.20313-0.67188 0-1.1719 0.4375-0.48437 0.42188-0.48437 1.6094v3.4062zm11.062-2.2812 1.0312 0.14062q-0.17187 1.0625-0.875 1.6719-0.70312 0.60937-1.7187 0.60937-1.2813 0-2.0625-0.82812-0.76563-0.84375-0.76563-2.4062 0-1 0.32813-1.75 0.34374-0.76563 1.0156-1.1406 0.6875-0.375 1.5-0.375 1 0 1.6406 0.51563 0.65626 0.5 0.84376 1.4531l-1.0313 0.15625q-0.14062-0.625-0.51562-0.9375-0.375-0.32812-0.90625-0.32812-0.79687 0-1.2969 0.57812-0.5 0.5625-0.5 1.7969 0 1.2656 0.48437 1.8281t1.25 0.5625q0.625 0 1.0312-0.375 0.42188-0.375 0.54688-1.1719zm6.0156 2.2812v-0.92188q-0.73438 1.0625-1.9844 1.0625-0.54687 0-1.0312-0.20312-0.46876-0.21875-0.70313-0.53125-0.23437-0.32813-0.32813-0.79688-0.0625-0.29687-0.0625-0.98437v-3.8438h1.0625v3.4531q0 0.8125 0.0625 1.1094 0.0938 0.40625 0.40626 0.65625 0.32812 0.23437 0.8125 0.23437 0.46874 0 0.875-0.23437 0.42187-0.25 0.59374-0.67188 0.1875-0.42187 0.1875-1.2188v-3.3281h1.0469v6.2188zm2.9062 0v-6.2188h0.95313v0.9375q0.35937-0.65625 0.65624-0.85938 0.3125-0.21875 0.6875-0.21875 0.53126 0 1.0781 0.32813l-0.35937 0.98437q-0.39063-0.23437-0.76563-0.23437-0.35937 0-0.64063 0.21875-0.26562 0.20312-0.375 0.57812-0.1875 0.5625-0.1875 1.2188v3.2656zm4 0v-6.2188h0.95313v0.9375q0.35937-0.65625 0.65624-0.85938 0.3125-0.21875 0.6875-0.21875 0.53126 0 1.0781 0.32813l-0.35937 0.98437q-0.39063-0.23437-0.76563-0.23437-0.35937 0-0.64063 0.21875-0.26562 0.20312-0.375 0.57812-0.1875 0.5625-0.1875 1.2188v3.2656zm8.2656-2 1.0937 0.125q-0.25 0.95312-0.95312 1.4844t-1.7812 0.53125q-1.3594 0-2.1719-0.84375-0.79688-0.84375-0.79688-2.3594 0-1.5625 0.8125-2.4219 0.8125-0.875 2.0938-0.875 1.25 0 2.0312 0.84375 0.79688 0.84375 0.79688 2.3906 0 0.09375 0 0.28125h-4.6406q0.0625 1.0312 0.57813 1.5781 0.51562 0.53125 1.2969 0.53125 0.57813 0 0.98437-0.29687 0.42188-0.3125 0.65626-0.96875zm-3.4531-1.7031h3.4688q-0.0625-0.79687-0.39062-1.1875-0.51563-0.60937-1.3125-0.60937-0.73438 0-1.2344 0.48437-0.48438 0.48438-0.53125 1.3125zm6.2031 3.7031v-6.2188h0.9375v0.875q0.6875-1.0156 1.9844-1.0156 0.5625 0 1.0312 0.20313 0.48438 0.20312 0.71875 0.53125 0.23437 0.32812 0.32813 0.76562 0.0469 0.29688 0.0469 1.0312v3.8281h-1.0469v-3.7812q0-0.65625-0.125-0.96875t-0.4375-0.5q-0.3125-0.20313-0.73438-0.20313-0.67188 0-1.1719 0.4375-0.48437 0.42188-0.48437 1.6094v3.4062zm9.2969-0.9375 0.15625 0.92187q-0.45312 0.09375-0.79688 0.09375-0.57812 0-0.89062-0.17187-0.3125-0.1875-0.45312-0.48438-0.125-0.29687-0.125-1.25v-3.5781h-0.76563v-0.8125h0.76563v-1.5469l1.0469-0.625v2.1719h1.0625v0.8125h-1.0625v3.6406q0 0.45313 0.0469 0.57813 0.0625 0.125 0.1875 0.20312 0.125 0.07813 0.35938 0.07813 0.1875 0 0.46875-0.03125zm3.2812-0.92188 1.0312-0.15625q0.0937 0.625 0.48437 0.95313 0.40626 0.32812 1.1406 0.32812 0.71875 0 1.0625-0.28125 0.35937-0.29687 0.35937-0.70312 0-0.35938-0.3125-0.5625-0.21874-0.14063-1.0781-0.35938-1.1562-0.29687-1.6094-0.5-0.4375-0.21875-0.67187-0.59375t-0.23437-0.84375q0-0.40625 0.1875-0.76562 0.1875-0.35938 0.51562-0.59375 0.25-0.17188 0.67188-0.29688 0.42187-0.125 0.92187-0.125 0.71875 0 1.2656 0.21875 0.5625 0.20313 0.82812 0.5625 0.26562 0.35938 0.35938 0.95313l-1.0313 0.14062q-0.0625-0.46875-0.40624-0.73437-0.32813-0.28125-0.95313-0.28125-0.71875 0-1.0312 0.25-0.3125 0.23437-0.3125 0.5625 0 0.20312 0.125 0.35937 0.14062 0.17188 0.40625 0.28125 0.15625 0.0625 0.9375 0.26563 1.125 0.3125 1.5625 0.5t0.6875 0.54687q0.25 0.35938 0.25 0.90625 0 0.53125-0.3125 1-0.29687 0.45313-0.875 0.71875-0.57813 0.25-1.3125 0.25-1.2188 0-1.8594-0.5-0.625-0.51562-0.79688-1.5zm7.5625 1.8594-1.9062-6.2188h1.0938l0.98438 3.5938 0.375 1.3281q0.0312-0.09375 0.32812-1.2812l0.98438-3.6406h1.0781l0.9375 3.6094 0.3125 1.1875 0.35938-1.2031 1.0625-3.5938h1.0312l-1.9531 6.2188h-1.0938l-0.98437-3.7344-0.25-1.0469-1.25 4.7812zm12.109-2 1.0937 0.125q-0.25 0.95312-0.95312 1.4844t-1.7812 0.53125q-1.3594 0-2.1719-0.84375-0.79688-0.84375-0.79688-2.3594 0-1.5625 0.8125-2.4219 0.8125-0.875 2.0938-0.875 1.25 0 2.0312 0.84375 0.79688 0.84375 0.79688 2.3906 0 0.09375 0 0.28125h-4.6406q0.0625 1.0312 0.57813 1.5781 0.51562 0.53125 1.2969 0.53125 0.57813 0 0.98437-0.29687 0.42188-0.3125 0.65626-0.96875zm-3.4531-1.7031h3.4688q-0.0625-0.79687-0.39062-1.1875-0.51563-0.60937-1.3125-0.60937-0.73438 0-1.2344 0.48437-0.48438 0.48438-0.53125 1.3125zm10.453 1.7031 1.0937 0.125q-0.25 0.95312-0.95312 1.4844t-1.7812 0.53125q-1.3594 0-2.1719-0.84375-0.79688-0.84375-0.79688-2.3594 0-1.5625 0.8125-2.4219 0.8125-0.875 2.0938-0.875 1.25 0 2.0312 0.84375 0.79688 0.84375 0.79688 2.3906 0 0.09375 0 0.28125h-4.6406q0.0625 1.0312 0.57813 1.5781 0.51562 0.53125 1.2969 0.53125 0.57813 0 0.98437-0.29687 0.42188-0.3125 0.65626-0.96875zm-3.4531-1.7031h3.4688q-0.0625-0.79687-0.39062-1.1875-0.51563-0.60937-1.3125-0.60937-0.73438 0-1.2344 0.48437-0.48438 0.48438-0.53125 1.3125zm6.2031 6.0938v-8.6094h0.95312v0.79687q0.34375-0.46875 0.76562-0.70312 0.4375-0.23438 1.0469-0.23438 0.79688 0 1.4062 0.40625t0.90625 1.1562q0.3125 0.75 0.3125 1.6406 0 0.95312-0.34375 1.7188-0.32813 0.76562-0.98437 1.1719-0.65626 0.40625-1.375 0.40625-0.53126 0-0.95313-0.21875-0.42187-0.23437-0.6875-0.5625v3.0312zm0.95312-5.4688q0 1.2031 0.48438 1.7812 0.48437 0.5625 1.1719 0.5625 0.70313 0 1.2031-0.59375t0.5-1.8438q0-1.1875-0.48438-1.7656-0.48438-0.59375-1.1719-0.59375-0.67187 0-1.1875 0.625-0.51562 0.625-0.51562 1.8281zm6.0469-4.2969v-1.2188h1.0625v1.2188zm0 7.375v-6.2188h1.0625v6.2188zm3 0v-6.2188h0.9375v0.875q0.6875-1.0156 1.9844-1.0156 0.5625 0 1.0312 0.20313 0.48438 0.20312 0.71875 0.53125 0.23437 0.32812 0.32813 0.76562 0.0469 0.29688 0.0469 1.0312v3.8281h-1.0469v-3.7812q0-0.65625-0.125-0.96875t-0.4375-0.5q-0.3125-0.20313-0.73438-0.20313-0.67188 0-1.1719 0.4375-0.48437 0.42188-0.48437 1.6094v3.4062zm6.7969 0.51562 1.0312 0.15625q0.0625 0.46875 0.35938 0.6875 0.39062 0.29688 1.0625 0.29688 0.73437 0 1.125-0.29688 0.40624-0.29687 0.54687-0.8125 0.0937-0.32812 0.0781-1.3594-0.6875 0.8125-1.7188 0.8125-1.2812 0-1.9844-0.92188-0.70313-0.9375-0.70313-2.2188 0-0.89062 0.3125-1.6406 0.32813-0.76563 0.9375-1.1719 0.60938-0.40625 1.4375-0.40625 1.1094 0 1.8281 0.89063v-0.75h0.96875v5.375q0 1.4531-0.29688 2.0625-0.29687 0.60937-0.9375 0.95312-0.64062 0.35938-1.5781 0.35938-1.1094 0-1.7969-0.5t-0.67187-1.5156zm0.875-3.7344q0 1.2188 0.48437 1.7812 0.48438 0.5625 1.2188 0.5625 0.73437 0 1.2187-0.5625 0.5-0.5625 0.5-1.75 0-1.1406-0.51562-1.7188-0.5-0.57813-1.2188-0.57813-0.70313 0-1.2031 0.57813-0.48437 0.5625-0.48437 1.6875z" fill="#1a1a1a"/>
 </g>
</svg>
