<svg viewBox="0 0 960 333.4" xmlns="http://www.w3.org/2000/svg" xmlns:xlink="http://www.w3.org/1999/xlink"><clipPath id="a"><path d="m0-206.6h960v720h-960z"/></clipPath><g clip-path="url(#a)"><g clip-rule="evenodd"><path d="m0-206.6h960v720h-960z" fill="none"/><path d="m0 0h960v333.4h-960z" fill="#f3f3f3" fill-rule="evenodd"/><path d="m610.5 49.5v256.7" fill="none"/></g><path d="m610.5 49.5v256.7" fill="none" stroke="#595959" stroke-linejoin="round" stroke-miterlimit="10"/><path clip-rule="evenodd" d="m213.4 25.7h182.5v49.5h-182.5z" fill="none"/><path d="m232 51.2-4.5-7.2h1.8l3.4 5.6h.1l3.4-5.6h1.9l-4.5 7.2v6.2h-1.6zm11.9 6.4c-.9 0-1.8-.2-2.5-.7-.7-.4-1.3-1.1-1.7-1.8-.4-.8-.6-1.6-.6-2.5s.2-1.8.6-2.6 1-1.4 1.7-1.8c.8-.4 1.6-.7 2.5-.7s1.8.2 2.5.7c.8.4 1.3 1.1 1.8 1.8.4.8.6 1.6.6 2.6 0 .9-.2 1.8-.6 2.5-.4.8-1 1.4-1.8 1.8-.7.5-1.6.7-2.5.7zm0-1.4c.6 0 1.1-.1 1.6-.4s.9-.7 1.2-1.2c.3-.6.5-1.2.5-1.9s-.2-1.4-.5-1.9c-.3-.6-.7-1-1.2-1.3s-1-.4-1.6-.4-1.1.1-1.6.4-.9.7-1.2 1.3c-.3.5-.5 1.2-.5 1.9s.2 1.4.5 1.9.7 1 1.2 1.2 1 .4 1.6.4zm10.2 1.4c-1.1 0-2-.3-2.6-1s-.9-1.6-.9-2.8v-6h1.6v5.8c0 .9.2 1.6.6 2s1 .6 1.7.6c.5 0 1-.1 1.4-.4s.7-.7 1-1.1c.2-.5.3-.9.3-1.5v-5.4h1.6v9.5h-1.5v-1.3h-.1c-.3.5-.7.9-1.2 1.2-.6.3-1.3.4-1.9.4zm7-9.8h1.5v1.4h.1c.3-.5.7-.9 1.2-1.2.6-.3 1.2-.5 1.8-.5 1.1 0 2 .3 2.6 1s.9 1.6.9 2.7v6.1h-1.6v-5.9c0-.9-.2-1.5-.6-1.9s-1-.6-1.7-.6c-.5 0-1 .1-1.4.4s-.7.7-.9 1.1c-.2.5-.3.9-.3 1.5v5.4h-1.6zm14.7 13.9c-1.1 0-2.1-.3-2.8-.8s-1.2-1.2-1.5-1.9l1.5-.6c.2.5.5 1 1 1.3s1.1.5 1.8.5c1 0 1.7-.3 2.3-.9.5-.6.8-1.4.8-2.4v-1.1h-.1c-.3.5-.8.9-1.3 1.2-.6.3-1.2.5-1.9.5-.8 0-1.6-.2-2.2-.6-.7-.4-1.2-1-1.6-1.8s-.6-1.6-.6-2.6.2-1.8.6-2.6.9-1.4 1.6-1.8 1.4-.6 2.2-.6c.7 0 1.4.2 1.9.5.6.3 1 .7 1.3 1.2h.1v-1.4h1.5v9.2c0 1.5-.4 2.7-1.3 3.5s-2 1.2-3.3 1.2zm0-5.6c.6 0 1.1-.1 1.5-.4.5-.3.8-.7 1.1-1.2s.4-1.2.4-1.9c0-.8-.1-1.4-.4-1.9s-.7-.9-1.1-1.2c-.5-.3-1-.4-1.5-.4-.6 0-1.1.1-1.6.4s-.8.7-1.1 1.2-.4 1.2-.4 1.9.1 1.4.4 1.9.7 1 1.1 1.2c.5.2 1 .4 1.6.4zm17.8 1.5c-1.3 0-2.4-.3-3.5-.9s-1.9-1.5-2.5-2.5c-.6-1.1-.9-2.3-.9-3.5 0-1.3.3-2.5.9-3.5.6-1.1 1.5-1.9 2.5-2.5 1.1-.6 2.2-.9 3.5-.9 1 0 1.9.2 2.8.5s1.6.8 2.1 1.5l-1.1 1.1c-.4-.5-1-.9-1.6-1.2-.7-.3-1.4-.4-2.1-.4-.9 0-1.8.2-2.6.7-.8.4-1.5 1.1-2 1.9s-.7 1.8-.7 2.9.2 2 .7 2.9c.5.8 1.2 1.5 2 1.9s1.7.7 2.6.7 1.6-.1 2.2-.4 1.1-.7 1.5-1.1c.3-.3.6-.8.8-1.2.2-.5.3-1 .4-1.6h-5v-1.5h6.4c.1.4.1.7.1 1 0 .8-.1 1.6-.4 2.4s-.7 1.4-1.2 2c-1.2 1.1-2.8 1.7-4.9 1.7zm12.8 0c-.9 0-1.7-.2-2.4-.6s-1.3-1-1.7-1.8-.6-1.6-.6-2.6c0-.9.2-1.8.6-2.5.4-.8.9-1.4 1.6-1.9s1.5-.7 2.4-.7 1.7.2 2.4.6 1.2 1 1.6 1.7.5 1.6.5 2.5v.5h-7.5c0 .7.2 1.3.5 1.8s.7.9 1.2 1.1 1 .4 1.5.4c1.2 0 2.2-.6 2.8-1.7l1.3.7c-.4.8-.9 1.4-1.7 1.8-.6.5-1.5.7-2.5.7zm2.8-6c0-.4-.1-.8-.3-1.2s-.5-.7-.9-1-.9-.4-1.6-.4c-.8 0-1.4.2-1.9.7s-.9 1.1-1 1.9zm3.5-3.8h1.5v1.4h.1c.3-.5.7-.9 1.2-1.2.6-.3 1.2-.5 1.8-.5 1.1 0 2 .3 2.6 1s.9 1.6.9 2.7v6.1h-1.6v-5.9c0-.9-.2-1.5-.6-1.9s-1-.6-1.7-.6c-.5 0-1 .1-1.4.4s-.7.7-.9 1.1c-.2.5-.3.9-.3 1.5v5.4h-1.6zm14.7 9.8c-.9 0-1.7-.2-2.4-.6s-1.3-1-1.7-1.8-.6-1.6-.6-2.6c0-.9.2-1.8.6-2.5.4-.8.9-1.4 1.6-1.9s1.5-.7 2.4-.7 1.7.2 2.4.6 1.2 1 1.6 1.7.5 1.6.5 2.5v.5h-7.5c0 .7.2 1.3.5 1.8s.7.9 1.2 1.1 1 .4 1.5.4c1.2 0 2.2-.6 2.8-1.7l1.3.7c-.4.8-.9 1.4-1.7 1.8-.6.5-1.5.7-2.5.7zm2.8-6c0-.4-.1-.8-.3-1.2s-.5-.7-.9-1-.9-.4-1.6-.4c-.8 0-1.4.2-1.9.7s-.9 1.1-1 1.9zm3.5-3.8h1.5v1.5h.1c.2-.5.5-1 1.1-1.3s1.1-.5 1.7-.5c.4 0 .8.1 1.1.2v1.7c-.4-.2-.8-.3-1.3-.3s-.9.1-1.3.4-.7.6-.9 1.1c-.2.4-.3.9-.3 1.4v5.3h-1.6v-9.5zm10 9.8c-.7 0-1.3-.1-1.9-.4-.5-.3-1-.6-1.3-1.1s-.4-1-.4-1.6c0-1 .4-1.8 1.1-2.4.8-.6 1.7-.8 2.9-.8.6 0 1.1.1 1.6.2s.9.3 1.1.4v-.6c0-.7-.3-1.3-.8-1.7s-1.1-.6-1.9-.6c-.5 0-1 .1-1.5.3-.4.2-.8.5-1.1 1l-1.2-.9c.4-.6.9-1 1.5-1.3.7-.3 1.4-.5 2.2-.5 1.3 0 2.3.3 3 1s1.1 1.6 1.1 2.8v6h-1.5v-1.4h-.1c-.3.5-.7.8-1.2 1.2-.3.3-.9.4-1.6.4zm.2-1.4c.5 0 1-.1 1.5-.4s.8-.7 1.1-1.1c.3-.5.4-1 .4-1.5-.3-.2-.7-.4-1.1-.5s-.9-.2-1.4-.2c-.9 0-1.5.2-2 .5-.4.4-.7.8-.7 1.4 0 .5.2.9.6 1.3.5.4 1 .5 1.6.5zm10.3 1.3c-.4 0-.7-.1-1.1-.2-.3-.1-.6-.3-.8-.5-.5-.5-.7-1.1-.7-2v-5.6h-1.7v-1.4h1.7v-2.7h1.6v2.7h2.3v1.4h-2.3v5.2c0 .5.1.9.3 1.2s.6.4 1 .4.7-.1 1-.3v1.5c-.2.1-.4.1-.6.2-.1.1-.4.1-.7.1zm4.2-11.4c-.3 0-.6-.1-.8-.3s-.3-.5-.3-.8.1-.6.3-.8.5-.3.8-.3.6.1.8.3.3.5.3.8-.1.6-.3.8c-.3.2-.5.3-.8.3zm-.8 1.7h1.6v9.5h-1.6zm8.4 9.8c-.9 0-1.8-.2-2.5-.7-.7-.4-1.3-1.1-1.7-1.8-.4-.8-.6-1.6-.6-2.5s.2-1.8.6-2.6 1-1.4 1.7-1.8c.8-.4 1.6-.7 2.5-.7s1.8.2 2.5.7c.8.4 1.3 1.1 1.8 1.8.4.8.6 1.6.6 2.6 0 .9-.2 1.8-.6 2.5-.4.8-1 1.4-1.8 1.8-.7.5-1.6.7-2.5.7zm0-1.4c.6 0 1.1-.1 1.6-.4s.9-.7 1.2-1.2c.3-.6.5-1.2.5-1.9s-.2-1.4-.5-1.9c-.3-.6-.7-1-1.2-1.3s-1-.4-1.6-.4-1.1.1-1.6.4-.9.7-1.2 1.3c-.3.5-.5 1.2-.5 1.9s.2 1.4.5 1.9.7 1 1.2 1.2 1 .4 1.6.4zm6.7-8.4h1.5v1.4h.1c.3-.5.7-.9 1.2-1.2.6-.3 1.2-.5 1.8-.5 1.1 0 2 .3 2.6 1s.9 1.6.9 2.7v6.1h-1.6v-5.9c0-.9-.2-1.5-.6-1.9s-1-.6-1.7-.6c-.5 0-1 .1-1.4.4s-.7.7-.9 1.1c-.2.5-.3.9-.3 1.5v5.4h-1.6z" fill="#595959"/><path clip-rule="evenodd" d="m705.1 25.7h182.5v49.5h-182.5z" fill="none"/><path d="m738.5 57.6c-1.3 0-2.4-.3-3.5-.9-1-.6-1.9-1.5-2.5-2.5-.6-1.1-.9-2.2-.9-3.5s.3-2.4.9-3.5 1.4-1.9 2.5-2.5 2.2-.9 3.5-.9 2.4.3 3.5.9 1.9 1.5 2.5 2.5c.6 1.1.9 2.2.9 3.5s-.3 2.4-.9 3.5-1.4 1.9-2.5 2.5-2.2.9-3.5.9zm0-1.5c1 0 1.8-.2 2.6-.7s1.4-1.1 1.9-1.9.7-1.8.7-2.8c0-1.1-.2-2-.7-2.8s-1.1-1.5-1.9-1.9c-.8-.5-1.7-.7-2.6-.7-1 0-1.8.2-2.6.7s-1.4 1.1-1.9 1.9-.7 1.8-.7 2.8c0 1.1.2 2 .7 2.8s1.1 1.5 1.9 1.9c.7.5 1.6.7 2.6.7zm8.8-12.1h1.6v13.4h-1.6zm8 13.6c-.9 0-1.6-.2-2.3-.6s-1.2-1-1.6-1.8-.6-1.6-.6-2.6.2-1.8.6-2.6.9-1.4 1.6-1.8 1.5-.7 2.3-.7c.7 0 1.4.2 1.9.5.6.3 1 .7 1.3 1.2h.1l-.1-1.3v-3.9h1.6v13.4h-1.5v-1.4h-.1c-.3.5-.7.9-1.3 1.2-.5.3-1.1.4-1.9.4zm.2-1.4c.6 0 1.1-.1 1.6-.4s.9-.7 1.2-1.3.4-1.2.4-1.9-.1-1.4-.4-1.9c-.3-.6-.7-1-1.2-1.3s-1-.5-1.6-.5c-.5 0-1.1.2-1.5.5-.5.3-.9.7-1.2 1.3s-.4 1.2-.4 1.9.1 1.3.4 1.9.7 1 1.2 1.3c.4.2 1 .4 1.5.4zm17.9 1.4c-1.3 0-2.4-.3-3.5-.9s-1.9-1.5-2.5-2.5c-.6-1.1-.9-2.3-.9-3.5 0-1.3.3-2.5.9-3.5.6-1.1 1.5-1.9 2.5-2.5 1.1-.6 2.2-.9 3.5-.9 1 0 1.9.2 2.8.5s1.6.8 2.1 1.5l-1.1 1.1c-.4-.5-1-.9-1.6-1.2-.7-.3-1.4-.4-2.1-.4-.9 0-1.8.2-2.6.7-.8.4-1.5 1.1-2 1.9s-.7 1.8-.7 2.9.2 2 .7 2.9c.5.8 1.2 1.5 2 1.9s1.7.7 2.6.7 1.6-.1 2.2-.4 1.1-.7 1.5-1.1c.3-.3.6-.8.8-1.2.2-.5.3-1 .4-1.6h-5v-1.5h6.4c.1.4.1.7.1 1 0 .8-.1 1.6-.4 2.4s-.7 1.4-1.2 2c-1.2 1.1-2.8 1.7-4.9 1.7zm12.8 0c-.9 0-1.7-.2-2.4-.6s-1.3-1-1.7-1.8-.6-1.6-.6-2.6c0-.9.2-1.8.6-2.5.4-.8.9-1.4 1.6-1.9s1.5-.7 2.4-.7 1.7.2 2.4.6 1.2 1 1.6 1.7.5 1.6.5 2.5v.5h-7.5c0 .7.2 1.3.5 1.8s.7.9 1.2 1.1 1 .4 1.5.4c1.2 0 2.2-.6 2.8-1.7l1.3.7c-.4.8-.9 1.4-1.7 1.8-.6.5-1.5.7-2.5.7zm2.8-6c0-.4-.1-.8-.3-1.2s-.5-.7-.9-1-.9-.4-1.6-.4c-.8 0-1.4.2-1.9.7s-.9 1.1-1 1.9zm3.5-3.8h1.5v1.4h.1c.3-.5.7-.9 1.2-1.2.6-.3 1.2-.5 1.8-.5 1.1 0 2 .3 2.6 1s.9 1.6.9 2.7v6.1h-1.6v-5.9c0-.9-.2-1.5-.6-1.9s-1-.6-1.7-.6c-.5 0-1 .1-1.4.4s-.7.7-.9 1.1c-.2.5-.3.9-.3 1.5v5.4h-1.6zm14.7 9.8c-.9 0-1.7-.2-2.4-.6s-1.3-1-1.7-1.8-.6-1.6-.6-2.6c0-.9.2-1.8.6-2.5.4-.8.9-1.4 1.6-1.9s1.5-.7 2.4-.7 1.7.2 2.4.6 1.2 1 1.6 1.7.5 1.6.5 2.5v.5h-7.5c0 .7.2 1.3.5 1.8s.7.9 1.2 1.1 1 .4 1.5.4c1.2 0 2.2-.6 2.8-1.7l1.3.7c-.4.8-.9 1.4-1.7 1.8-.6.5-1.5.7-2.5.7zm2.8-6c0-.4-.1-.8-.3-1.2s-.5-.7-.9-1-.9-.4-1.6-.4c-.8 0-1.4.2-1.9.7s-.9 1.1-1 1.9zm3.5-3.8h1.5v1.5h.1c.2-.5.5-1 1.1-1.3s1.1-.5 1.7-.5c.4 0 .8.1 1.1.2v1.7c-.4-.2-.8-.3-1.3-.3s-.9.1-1.3.4-.7.6-.9 1.1c-.2.4-.3.9-.3 1.4v5.3h-1.6v-9.5zm10 9.8c-.7 0-1.3-.1-1.9-.4-.5-.3-1-.6-1.3-1.1s-.4-1-.4-1.6c0-1 .4-1.8 1.1-2.4.8-.6 1.7-.8 2.9-.8.6 0 1.1.1 1.6.2s.9.3 1.1.4v-.6c0-.7-.2-1.3-.8-1.7-.5-.4-1.1-.6-1.9-.6-.5 0-1 .1-1.5.3-.4.2-.8.5-1.1 1l-1.2-.9c.4-.6.9-1 1.5-1.3.7-.3 1.4-.5 2.2-.5 1.3 0 2.3.3 3 1s1.1 1.6 1.1 2.8v6h-1.5v-1.4h-.1c-.3.5-.7.8-1.2 1.2-.3.3-.9.4-1.6.4zm.2-1.4c.5 0 1-.1 1.5-.4s.8-.7 1.1-1.1c.3-.5.4-1 .4-1.5-.3-.2-.7-.4-1.1-.5s-.9-.2-1.4-.2c-.9 0-1.5.2-2 .5-.4.4-.7.8-.7 1.4 0 .5.2.9.6 1.3.5.4 1 .5 1.6.5zm10.3 1.3c-.4 0-.7-.1-1.1-.2-.3-.1-.6-.3-.8-.5-.5-.5-.7-1.1-.7-2v-5.6h-1.7v-1.4h1.7v-2.7h1.6v2.7h2.3v1.4h-2.3v5.2c0 .5.1.9.3 1.2s.6.4 1 .4.7-.1 1-.3v1.5c-.2.1-.4.1-.6.2-.1.1-.4.1-.7.1zm4.1-11.4c-.3 0-.6-.1-.8-.3s-.3-.5-.3-.8.1-.6.3-.8.5-.3.8-.3.6.1.8.3.3.5.3.8-.1.6-.3.8-.4.3-.8.3zm-.7 1.7h1.6v9.5h-1.6zm8.4 9.8c-.9 0-1.8-.2-2.5-.7-.7-.4-1.3-1.1-1.7-1.8-.4-.8-.6-1.6-.6-2.5s.2-1.8.6-2.6 1-1.4 1.7-1.8c.8-.4 1.6-.7 2.5-.7s1.8.2 2.5.7c.8.4 1.3 1.1 1.8 1.8.4.8.6 1.6.6 2.6 0 .9-.2 1.8-.6 2.5-.4.8-1 1.4-1.8 1.8-.7.5-1.6.7-2.5.7zm0-1.4c.6 0 1.1-.1 1.6-.4s.9-.7 1.2-1.2c.3-.6.5-1.2.5-1.9s-.2-1.4-.5-1.9c-.3-.6-.7-1-1.2-1.3s-1-.4-1.6-.4-1.1.1-1.6.4-.9.7-1.2 1.3c-.3.5-.5 1.2-.5 1.9s.2 1.4.5 1.9.7 1 1.2 1.2 1 .4 1.6.4zm6.7-8.4h1.5v1.4h.1c.3-.5.7-.9 1.2-1.2.6-.3 1.2-.5 1.8-.5 1.1 0 2 .3 2.6 1s.9 1.6.9 2.7v6.1h-1.6v-5.9c0-.9-.2-1.5-.6-1.9s-1-.6-1.7-.6c-.5 0-1 .1-1.4.4s-.7.7-.9 1.1c-.2.5-.3.9-.3 1.5v5.4h-1.6z" fill="#595959"/><path clip-rule="evenodd" d="m119.7 126.8c0-2 1.7-3.7 3.7-3.7h119.4c1 0 1.9.4 2.6 1.1s1.1 1.6 1.1 2.6v163.9c0 2-1.7 3.7-3.7 3.7h-119.4c-2 0-3.7-1.7-3.7-3.7z" fill="#4285f4" fill-rule="evenodd"/><path d="m119.7 126.8c0-2 1.7-3.7 3.7-3.7h119.4c1 0 1.9.4 2.6 1.1s1.1 1.6 1.1 2.6v163.9c0 2-1.7 3.7-3.7 3.7h-119.4c-2 0-3.7-1.7-3.7-3.7z" fill="none" stroke="#595959" stroke-linejoin="round" stroke-miterlimit="10"/><path clip-rule="evenodd" d="m370.2 126.8c0-2 1.7-3.7 3.7-3.7h119.4c1 0 1.9.4 2.6 1.1s1.1 1.6 1.1 2.6v163.9c0 2-1.7 3.7-3.7 3.7h-119.4c-2 0-3.7-1.7-3.7-3.7z" fill="#4285f4" fill-rule="evenodd"/><path d="m370.2 126.8c0-2 1.7-3.7 3.7-3.7h119.4c1 0 1.9.4 2.6 1.1s1.1 1.6 1.1 2.6v163.9c0 2-1.7 3.7-3.7 3.7h-119.4c-2 0-3.7-1.7-3.7-3.7z" fill="none" stroke="#595959" stroke-linejoin="round" stroke-miterlimit="10"/><path clip-rule="evenodd" d="m138.6 85.7h89.2v26.9h-89.2z" fill="none"/><path d="m155.9 93.5h1.7l5.8 9.1h.1l-.1-2.2v-6.9h1.4v11.5h-1.4l-6-9.5h-.1l.1 2.2v7.3h-1.4v-11.5zm14 11.7c-1 0-1.7-.3-2.2-.9s-.8-1.4-.8-2.4v-5.1h1.4v4.9c0 .8.2 1.4.5 1.7s.8.5 1.4.5c.5 0 .9-.1 1.2-.4.4-.2.6-.6.8-1s.3-.8.3-1.2v-4.6h1.4v8.2h-1.3v-1.2h-.1c-.2.4-.6.8-1.1 1-.5.4-1 .5-1.5.5zm6-8.4h1.3v1.3h.1c.2-.4.5-.8.9-1.1.5-.3.9-.5 1.4-.5.4 0 .7.1 1 .2v1.5c-.3-.2-.7-.3-1.2-.3-.4 0-.8.1-1.1.3s-.6.5-.8.9-.3.8-.3 1.2v4.6h-1.4v-8.1zm8.8 8.4c-.9 0-1.6-.2-2.2-.6s-1-.9-1.2-1.6l1.2-.5c.2.5.5.9.9 1.1.4.3.8.4 1.3.4s.9-.1 1.3-.3.5-.5.5-.9c0-.3-.1-.6-.4-.8s-.7-.4-1.4-.5l-1-.3c-.6-.2-1.2-.4-1.6-.8s-.6-.9-.6-1.5c0-.5.1-.9.4-1.2.3-.4.7-.6 1.1-.8.5-.2 1-.3 1.5-.3.7 0 1.3.2 1.9.5s1 .7 1.2 1.3l-1.2.5c-.4-.7-1-1.1-1.9-1.1-.4 0-.8.1-1.2.3-.3.2-.5.5-.5.8s.1.5.3.7.6.3 1.1.5l1.2.3c.8.2 1.4.5 1.8.9s.6.9.6 1.5c0 .5-.1.9-.4 1.3s-.7.7-1.2.9c-.3.1-.9.2-1.5.2zm8.4 0c-.8 0-1.5-.2-2.1-.5-.6-.4-1.1-.9-1.4-1.5s-.5-1.4-.5-2.2.2-1.5.5-2.2.8-1.2 1.4-1.6 1.3-.6 2.1-.6 1.5.2 2.1.5c.6.4 1 .8 1.3 1.5.3.6.5 1.3.5 2.2v.4h-6.5c0 .6.2 1.2.4 1.6.3.4.6.8 1 1s.8.3 1.3.3c1.1 0 1.9-.5 2.4-1.5l1.1.6c-.3.7-.8 1.2-1.4 1.6-.6.2-1.4.4-2.2.4zm2.3-5.2c0-.3-.1-.7-.3-1s-.4-.6-.8-.9c-.4-.2-.8-.4-1.4-.4s-1.2.2-1.6.6-.7.9-.9 1.6h5zm3.1-3.2h1.3v1.3h.1c.2-.4.5-.8.9-1.1.5-.3.9-.5 1.4-.5.4 0 .7.1 1 .2v1.5c-.3-.2-.7-.3-1.2-.3-.4 0-.8.1-1.1.3s-.6.5-.8.9-.3.8-.3 1.2v4.6h-1.4v-8.1zm8.5 7.7-3.4-7.6h1.5l2.6 6.1 2.5-6.1h1.5l-5 11.6h-1.4z" fill="#595959"/><path clip-rule="evenodd" d="m374.5 85.7h118.2v26.9h-118.2z" fill="none"/><path d="m388.2 93.5h1.4v11.5h-1.4zm3.6 3.3h1.3v1.2h.1c.2-.4.6-.8 1.1-1 .5-.3 1-.4 1.6-.4 1 0 1.7.3 2.2.9s.8 1.3.8 2.3v5.2h-1.4v-5c0-.8-.2-1.3-.5-1.6-.4-.3-.9-.5-1.5-.5-.4 0-.8.1-1.2.4-.3.2-.6.6-.8 1s-.3.8-.3 1.2v4.6h-1.4zm12.1 8.3c-.3 0-.6-.1-.9-.2s-.5-.2-.7-.4c-.4-.4-.6-1-.6-1.7v-4.8h-1.4v-1.2h1.4v-2.3h1.4v2.3h2v1.2h-2v4.4c0 .4.1.8.2 1 .2.2.5.3.9.3.3 0 .6-.1.9-.3v1.3c-.2.1-.3.1-.5.2-.2.2-.4.2-.7.2zm6.4.1c-.8 0-1.5-.2-2.1-.5-.6-.4-1.1-.9-1.4-1.5s-.5-1.4-.5-2.2.2-1.5.5-2.2.8-1.2 1.4-1.6 1.3-.6 2.1-.6 1.5.2 2.1.5c.6.4 1 .8 1.3 1.5.3.6.5 1.3.5 2.2v.4h-6.5c0 .6.2 1.2.4 1.6.3.4.6.8 1 1s.8.3 1.3.3c1.1 0 1.9-.5 2.4-1.5l1.1.6c-.3.7-.8 1.2-1.4 1.6-.6.2-1.4.4-2.2.4zm2.3-5.2c0-.3-.1-.7-.3-1s-.4-.6-.8-.9c-.4-.2-.8-.4-1.4-.4s-1.2.2-1.6.6-.7.9-.9 1.6h5zm3.1-3.2h1.3v1.3h.1c.2-.4.5-.8.9-1.1.5-.3.9-.5 1.4-.5.4 0 .7.1 1 .2v1.5c-.3-.2-.7-.3-1.2-.3-.4 0-.8.1-1.1.3s-.6.5-.8.9-.3.8-.3 1.2v4.6h-1.4v-8.1zm6 0h1.3v1.2h.1c.2-.4.6-.8 1-1 .5-.3 1-.4 1.5-.4.6 0 1.1.1 1.6.4.4.3.8.7 1 1.2.3-.5.7-.9 1.1-1.2.5-.3 1-.4 1.7-.4.9 0 1.6.3 2.1.9s.7 1.3.7 2.3v5.2h-1.3v-5c0-.8-.2-1.3-.5-1.6s-.8-.5-1.4-.5c-.4 0-.8.1-1.1.4-.3.2-.6.5-.8.9s-.3.8-.3 1.3v4.6h-1.4v-5c0-.8-.2-1.3-.5-1.7-.3-.3-.8-.5-1.4-.5-.4 0-.8.1-1.1.4-.3.2-.6.6-.8 1s-.3.8-.3 1.3v4.6h-1.4v-8.4zm17.6 8.4c-.8 0-1.5-.2-2.1-.5-.6-.4-1.1-.9-1.4-1.5s-.5-1.4-.5-2.2.2-1.5.5-2.2.8-1.2 1.4-1.6 1.3-.6 2.1-.6 1.5.2 2.1.5c.6.4 1 .8 1.3 1.5.3.6.5 1.3.5 2.2v.4h-6.5c0 .6.2 1.2.4 1.6.3.4.6.8 1 1s.8.3 1.3.3c1.1 0 1.9-.5 2.4-1.5l1.1.6c-.3.7-.8 1.2-1.4 1.6-.6.2-1.4.4-2.2.4zm2.3-5.2c0-.3-.1-.7-.3-1s-.4-.6-.8-.9c-.4-.2-.8-.4-1.4-.4s-1.2.2-1.6.6-.7.9-.9 1.6h5zm6.5 5.2c-.7 0-1.4-.2-2-.5-.6-.4-1.1-.9-1.4-1.5-.3-.7-.5-1.4-.5-2.2s.2-1.6.5-2.2c.3-.7.8-1.2 1.4-1.6s1.3-.6 2-.6c.6 0 1.2.1 1.7.4s.9.6 1.1 1h.1l-.1-1.1v-3.4h1.4v11.5h-1.3v-1.2h-.1c-.3.4-.6.8-1.1 1-.5.3-1 .4-1.7.4zm.2-1.2c.5 0 .9-.1 1.3-.4s.8-.6 1-1.1.4-1 .4-1.6-.1-1.2-.4-1.6-.6-.8-1-1.1-.8-.4-1.3-.4-.9.1-1.3.4c-.4.2-.8.6-1 1.1s-.4 1-.4 1.6.1 1.1.4 1.6c.2.5.6.8 1 1.1s.8.4 1.3.4zm6.8-8.7c-.3 0-.5-.1-.7-.3s-.3-.4-.3-.7.1-.5.3-.7.4-.3.7-.3.5.1.7.3.3.4.3.7-.1.5-.3.7-.4.3-.7.3zm-.7 1.5h1.4v8.2h-1.4zm6.1 8.4c-.6 0-1.1-.1-1.6-.3s-.8-.6-1.1-1c-.2-.4-.4-.9-.4-1.4 0-.9.3-1.5 1-2s1.5-.7 2.5-.7c.5 0 .9.1 1.4.2.4.1.8.2 1 .4v-.5c0-.6-.2-1.1-.6-1.5s-1-.6-1.6-.6c-.4 0-.9.1-1.3.3s-.7.5-.9.8l-1-.8c.3-.5.8-.9 1.3-1.2.6-.3 1.2-.4 1.9-.4 1.1 0 2 .3 2.6.9s.9 1.4.9 2.4v5.2h-1.3v-1.2h-.1c-.2.4-.6.7-1 1-.6.3-1.1.4-1.7.4zm.2-1.2c.5 0 .9-.1 1.3-.3s.7-.6.9-1 .4-.8.4-1.3c-.2-.2-.6-.3-.9-.4s-.8-.2-1.2-.2c-.7 0-1.3.2-1.7.5s-.6.7-.6 1.2c0 .4.2.8.5 1.1s.7.4 1.3.4zm8.8 1.1c-.3 0-.6-.1-.9-.2s-.5-.2-.7-.4c-.4-.4-.6-1-.6-1.7v-4.8h-1.4v-1.2h1.4v-2.3h1.4v2.3h2v1.2h-2v4.4c0 .4.1.8.2 1 .2.2.5.3.9.3.3 0 .6-.1.9-.3v1.3c-.2.1-.3.1-.5.2-.2.2-.4.2-.7.2zm6.4.1c-.8 0-1.5-.2-2.1-.5-.6-.4-1.1-.9-1.4-1.5s-.5-1.4-.5-2.2.2-1.5.5-2.2.8-1.2 1.4-1.6 1.3-.6 2.1-.6 1.5.2 2.1.5c.6.4 1 .8 1.3 1.5.3.6.5 1.3.5 2.2v.4h-6.5c0 .6.2 1.2.4 1.6.3.4.6.8 1 1s.8.3 1.3.3c1.1 0 1.9-.5 2.4-1.5l1.1.6c-.3.7-.8 1.2-1.4 1.6-.6.2-1.3.4-2.2.4zm2.3-5.2c0-.3-.1-.7-.3-1s-.4-.6-.8-.9c-.4-.2-.8-.4-1.4-.4s-1.2.2-1.6.6-.7.9-.9 1.6h5z" fill="#595959"/><path clip-rule="evenodd" d="m119.7 172h126.8v11.7h-126.8z" fill="#fbbc04" fill-rule="evenodd"/><path d="m119.7 172h126.8v11.7h-126.8z" fill="none" stroke="#595959" stroke-linejoin="round" stroke-miterlimit="10"/><path clip-rule="evenodd" d="m372.1 123.1h122.9c.5 0 1 .2 1.4.6s.6.9.6 1.4v9.8h-126.8v-9.8c0-1.1.8-2 1.9-2z" fill="#fbbc04" fill-rule="evenodd"/><path d="m372.1 123.1h122.9c.5 0 1 .2 1.4.6s.6.9.6 1.4v9.8h-126.8v-9.8c0-1.1.8-2 1.9-2z" fill="none" stroke="#595959" stroke-linejoin="round" stroke-miterlimit="10"/><path clip-rule="evenodd" d="m246.5 177.8 123.7-48.8" fill="none"/><path d="m246.5 177.8 118-46.6" fill="none" stroke="#595959" stroke-dasharray="4 3" stroke-linejoin="round" stroke-miterlimit="10"/><path clip-rule="evenodd" d="m365.2 132.7 3.6-3.2-4.8.1z" fill="#595959" fill-rule="evenodd" stroke="#595959" stroke-miterlimit="10"/><path clip-rule="evenodd" d="m732.9 126.8c0-2 1.7-3.7 3.7-3.7h119.4c1 0 1.9.4 2.6 1.1s1.1 1.6 1.1 2.6v163.9c0 2-1.7 3.7-3.7 3.7h-119.4c-2 0-3.7-1.7-3.7-3.7z" fill="#4285f4" fill-rule="evenodd"/><path d="m732.9 126.8c0-2 1.7-3.7 3.7-3.7h119.4c1 0 1.9.4 2.6 1.1s1.1 1.6 1.1 2.6v163.9c0 2-1.7 3.7-3.7 3.7h-119.4c-2 0-3.7-1.7-3.7-3.7z" fill="none" stroke="#595959" stroke-linejoin="round" stroke-miterlimit="10"/><path clip-rule="evenodd" d="m734.9 123.1h122.9c.5 0 1 .2 1.4.6s.6.9.6 1.4v9.8h-126.8v-9.8c-.1-1.1.8-2 1.9-2z" fill="#fbbc04" fill-rule="evenodd"/><path d="m734.9 123.1h122.9c.5 0 1 .2 1.4.6s.6.9.6 1.4v9.8h-126.8v-9.8c-.1-1.1.8-2 1.9-2z" fill="none" stroke="#595959" stroke-linejoin="round" stroke-miterlimit="10"/><path clip-rule="evenodd" d="m498.6 129.9 234.4-.9" fill="none"/><path d="m498.6 129.9 228.4-.9" fill="none" stroke="#595959" stroke-dasharray="4 3" stroke-linejoin="round" stroke-miterlimit="10"/><path clip-rule="evenodd" d="m726.9 130.6 4.5-1.7-4.5-1.6z" fill="#595959" fill-rule="evenodd" stroke="#595959" stroke-miterlimit="10"/><path clip-rule="evenodd" d="m276.8 118.4h55.7v34.6h-55.7z" fill="none"/><path d="m298.4 142.1c-1.2 0-2.2-.3-3.2-.8-1-.6-1.8-1.4-2.3-2.3-.6-1-.9-2.1-.9-3.3s.3-2.3.9-3.3 1.4-1.8 2.3-2.3c1-.6 2.1-.9 3.2-.9.9 0 1.8.2 2.6.5s1.5.8 2 1.4l-1 1.1c-.4-.5-.9-.9-1.5-1.1-.6-.3-1.3-.4-2-.4-.9 0-1.7.2-2.4.6-.8.4-1.4 1-1.8 1.8-.5.8-.7 1.6-.7 2.7 0 1 .2 1.9.7 2.7s1.1 1.4 1.8 1.8c.8.4 1.6.6 2.4.6s1.5-.1 2.1-.4 1-.6 1.5-1c.3-.3.5-.7.7-1.2s.3-1 .3-1.5h-4.6v-1.4h6c.1.3.1.6.1.9 0 .8-.1 1.5-.4 2.2-.2.7-.6 1.3-1.2 1.9-1.2 1.1-2.7 1.7-4.6 1.7zm14.1 0c-1.2 0-2.3-.3-3.3-.8-1-.6-1.8-1.4-2.3-2.3-.6-1-.8-2.1-.8-3.3s.3-2.3.8-3.3c.6-1 1.3-1.8 2.3-2.3 1-.6 2.1-.9 3.3-.9.9 0 1.8.2 2.5.5.8.3 1.4.8 2 1.5l-1.1 1c-.5-.6-1-1-1.5-1.2-.6-.3-1.2-.4-1.9-.4-.9 0-1.7.2-2.5.6s-1.3 1-1.8 1.8c-.4.8-.7 1.6-.7 2.7 0 1 .2 1.9.7 2.7.4.8 1 1.4 1.8 1.8s1.6.6 2.5.6c1.5 0 2.8-.6 3.8-1.9l1.1 1c-.6.7-1.3 1.2-2.1 1.6-.9.4-1.8.6-2.8.6z" fill="#595959"/><path clip-rule="evenodd" d="m554.8 100.2h55.7v34.6h-55.7z" fill="none"/><path d="m576.4 123.9c-1.2 0-2.2-.3-3.2-.8-1-.6-1.8-1.4-2.3-2.3-.6-1-.9-2.1-.9-3.3s.3-2.3.9-3.3 1.4-1.8 2.3-2.3c1-.6 2.1-.9 3.2-.9.9 0 1.8.2 2.6.5s1.5.8 2 1.4l-1 1.1c-.4-.5-.9-.9-1.5-1.1-.6-.3-1.3-.4-2-.4-.9 0-1.7.2-2.4.6-.8.4-1.4 1-1.8 1.8-.5.8-.7 1.6-.7 2.7 0 1 .2 1.9.7 2.7s1.1 1.4 1.8 1.8c.8.4 1.6.6 2.4.6s1.5-.1 2.1-.4 1-.6 1.5-1c.3-.3.5-.7.7-1.2s.3-1 .3-1.5h-4.6v-1.4h6c.1.3.1.6.1.9 0 .8-.1 1.5-.4 2.2-.2.7-.6 1.3-1.2 1.9-1.2 1.1-2.7 1.7-4.6 1.7zm14.1 0c-1.2 0-2.3-.3-3.3-.8-1-.6-1.8-1.4-2.3-2.3-.6-1-.8-2.1-.8-3.3s.3-2.3.8-3.3c.6-1 1.3-1.8 2.3-2.3 1-.6 2.1-.9 3.3-.9.9 0 1.8.2 2.5.5.8.3 1.4.8 2 1.5l-1.1 1c-.5-.6-1-1-1.5-1.2-.6-.3-1.2-.4-1.9-.4-.9 0-1.7.2-2.5.6s-1.3 1-1.8 1.8c-.4.8-.7 1.6-.7 2.7 0 1 .2 1.9.7 2.7.4.8 1 1.4 1.8 1.8s1.6.6 2.5.6c1.5 0 2.8-.6 3.8-1.9l1.1 1c-.6.7-1.3 1.2-2.1 1.6-.9.4-1.8.6-2.8.6z" fill="#595959"/></g></svg>