<svg fill="none" height="432" stroke-linecap="square" stroke-miterlimit="10" width="699" xmlns="http://www.w3.org/2000/svg" xmlns:xlink="http://www.w3.org/1999/xlink"><clipPath id="a"><path d="m110.6 31.1h566.8v306.307h-566.8z"/></clipPath><path d="m0 0h699v432h-699z" fill="#fff"/><path d="m110.5 337.5h567" stroke="#333" stroke-linecap="butt"/><path d="m110.5 235.5h567m-567-102h567m-567-102h567" stroke="#ccc" stroke-linecap="butt"/><path clip-path="url(#a)" d="m188 337h-50v-254a2 2 0 0 1 2-2h46a2 2 0 0 1 2 2z"/><path clip-path="url(#a)" d="m188 337h-50v-254a2 2 0 0 1 2-2h46a2 2 0 0 1 2 2z" fill="#3c78d8"/><path clip-path="url(#a)" d="m265 337h-50v-232a2 2 0 0 1 2-2h46a2 2 0 0 1 2 2z"/><path clip-path="url(#a)" d="m265 337h-50v-232a2 2 0 0 1 2-2h46a2 2 0 0 1 2 2z" fill="#3c78d8"/><path clip-path="url(#a)" d="m342 337h-50v-221a2 2 0 0 1 2-2h46a2 2 0 0 1 2 2z"/><path clip-path="url(#a)" d="m342 337h-50v-221a2 2 0 0 1 2-2h46a2 2 0 0 1 2 2z" fill="#3c78d8"/><path clip-path="url(#a)" d="m419 337h-50v-220a2 2 0 0 1 2-2h46a2 2 0 0 1 2 2z"/><path clip-path="url(#a)" d="m419 337h-50v-220a2 2 0 0 1 2-2h46a2 2 0 0 1 2 2z" fill="#3c78d8"/><path clip-path="url(#a)" d="m496 337h-50v-212a2 2 0 0 1 2-2h46a2 2 0 0 1 2 2z"/><path clip-path="url(#a)" d="m496 337h-50v-212a2 2 0 0 1 2-2h46a2 2 0 0 1 2 2z" fill="#3c78d8"/><path clip-path="url(#a)" d="m573 337h-50v-136a2 2 0 0 1 2-2h46a2 2 0 0 1 2 2z"/><path clip-path="url(#a)" d="m573 337h-50v-136a2 2 0 0 1 2-2h46a2 2 0 0 1 2 2z" fill="#3c78d8"/><path clip-path="url(#a)" d="m650 337h-50v-111a2 2 0 0 1 2-2h46a2 2 0 0 1 2 2z"/><path clip-path="url(#a)" d="m650 337h-50v-111a2 2 0 0 1 2-2h46a2 2 0 0 1 2 2z" fill="#3c78d8"/><path d="m40.6 329.922h-14.313v-6.344q0-1.906.391-2.906.375-1 1.36-1.594.968-.594 2.156-.594 1.515 0 2.562.985 1.047.984 1.328 3.047.36-.75.72-1.141.75-.828 1.905-1.578l3.891-2.485v2.375l-2.984 1.907q-1.282.828-1.97 1.36-.687.53-.952.968-.282.422-.39.86-.063.327-.063 1.046v2.203h6.359v1.89zm-8-1.89v-4.079q0-1.297-.266-2.015-.265-.735-.859-1.11-.594-.39-1.281-.39-1.016 0-1.672.734-.656.734-.656 2.328v4.531h4.734zm4.656-18.954.235-1.812q1.578.421 2.468 1.593.875 1.157.875 2.97 0 2.265-1.39 3.608-1.407 1.329-3.938 1.329-2.625 0-4.062-1.344-1.453-1.344-1.453-3.5 0-2.078 1.421-3.39 1.407-1.329 3.985-1.329.156 0 .469.016v7.734q1.703-.094 2.609-.969.906-.875.906-2.171 0-.97-.5-1.641-.515-.688-1.625-1.094zm-2.844 5.781v-5.796q-1.296.109-1.953.656-1.015.844-1.015 2.187 0 1.203.812 2.031.797.829 2.156.922zm6.188-16.406h-1.313q1.547.985 1.547 2.906 0 1.235-.687 2.282-.688 1.03-1.906 1.609-1.22.563-2.813.563-1.562 0-2.828-.516-1.266-.516-1.938-1.547-.671-1.047-.671-2.313 0-.937.406-1.671.39-.735 1.015-1.204h-5.125v-1.734h14.313zm-5.172 5.563q1.984 0 2.969-.844.984-.844.984-1.985 0-1.156-.937-1.953-.938-.812-2.875-.812-2.125 0-3.125.828-1 .813-1 2.016 0 1.171.968 1.968.954.782 3.016.782zm5.172-16.626h-1.531q1.765 1.203 1.765 3.28 0 .923-.343 1.72-.36.796-.891 1.187-.531.375-1.313.531-.515.11-1.64.11h-6.422v-1.75h5.75q1.375 0 1.86-.11.687-.171 1.093-.703.39-.547.39-1.328 0-.797-.406-1.484-.406-.703-1.093-.985-.703-.296-2.032-.296h-5.562v-1.75h10.375zm-3.797-10.985.219-1.719q1.797.282 2.812 1.454 1 1.156 1 2.859 0 2.125-1.39 3.422-1.39 1.297-3.985 1.297-1.687 0-2.937-.547-1.266-.563-1.89-1.703-.641-1.14-.641-2.485 0-1.687.859-2.75.86-1.078 2.422-1.39l.265 1.719q-1.046.234-1.562.859-.531.625-.531 1.5 0 1.328.953 2.156.953.828 3 .828 2.094 0 3.047-.797.937-.796.937-2.093 0-1.032-.625-1.72-.64-.702-1.953-.89zm2.219-7.062 1.562-.25q.157.734.157 1.328 0 .953-.297 1.484-.313.516-.797.735-.5.218-2.078.218h-5.969v1.282h-1.375v-1.282h-2.563l-1.062-1.75h3.625v-1.765h1.375v1.765h6.062q.75 0 .97-.093.202-.094.343-.297.125-.219.125-.61 0-.28-.078-.765zm-10.719-2.172h-2.016v-1.766h2.016zm12.297 0h-10.375v-1.766h10.375zm-5.188-3.344q-2.875 0-4.265-1.594-1.156-1.343-1.156-3.265 0-2.14 1.406-3.485 1.406-1.359 3.875-1.359 2 0 3.156.594 1.14.594 1.781 1.75.625 1.14.625 2.5 0 2.187-1.39 3.531-1.407 1.328-4.032 1.328zm0-1.797q2 0 2.985-.86.984-.874.984-2.202 0-1.313-.984-2.172-1-.875-3.047-.875-1.922 0-2.906.875-1 .875-1 2.172 0 1.328 1 2.203.984.86 2.968.86zm5.188-9.844h-10.375v-1.593h1.484q-1.718-1.14-1.718-3.297 0-.938.343-1.719.328-.797.875-1.187.547-.391 1.297-.547.5-.094 1.719-.094h6.375v1.766h-6.313q-1.078 0-1.609.203-.531.203-.844.734-.312.516-.312 1.219 0 1.125.719 1.937.703.813 2.687.813h5.672v1.766zm-12.297-17.015h-2.016v-1.766h2.016zm12.297 0h-10.375v-1.766h10.375zm0-3.984h-10.375v-1.594h1.484q-1.718-1.14-1.718-3.297 0-.938.343-1.719.328-.797.875-1.187.547-.391 1.297-.547.5-.094 1.719-.094h6.375v1.766h-6.313q-1.078 0-1.609.203-.531.203-.844.734-.312.516-.312 1.219 0 1.125.719 1.937.703.813 2.687.813h5.672zm0-21.329-14.313 5.547v-2.047l10.391-3.718q1.25-.453 2.344-.75-1.172-.328-2.344-.782l-10.39-3.859v-1.938l14.312 5.61zm-7.766-10.89q-.406 1.094-1.14 1.625-.75.515-1.782.515-1.562 0-2.625-1.125-1.062-1.125-1.062-2.984 0-1.875 1.094-3.016 1.078-1.14 2.64-1.14 1 0 1.735.531.734.516 1.14 1.578.438-1.328 1.391-2.016.953-.687 2.281-.687 1.844 0 3.094 1.313 1.25 1.296 1.25 3.406 0 2.125-1.25 3.422-1.266 1.297-3.14 1.297-1.391 0-2.329-.704-.953-.718-1.297-2.015zm-2.984.344q1.016 0 1.672-.657.64-.656.64-1.687 0-1.016-.64-1.672-.64-.656-1.563-.656-.968 0-1.625.672-.672.671-.672 1.671t.657 1.672q.64.656 1.531.656zm6.625.562q.75 0 1.453-.344.703-.36 1.094-1.062.375-.703.375-1.516 0-1.266-.813-2.078-.812-.828-2.062-.828-1.266 0-2.094.844-.828.843-.828 2.125 0 1.234.828 2.047.813.812 2.047.812zm4.125-15.688h-14.313v-1.765h5.125q-1.421-1.234-1.421-3.11 0-1.14.453-1.984.453-.86 1.265-1.219.797-.375 2.313-.375h6.578v1.75h-6.578q-1.313 0-1.906.578-.61.579-.61 1.61 0 .781.406 1.484.407.688 1.11.985.687.28 1.906.28h5.672v1.767zm-3.344-18.109.235-1.812q1.578.422 2.468 1.593.875 1.157.875 2.97 0 2.265-1.39 3.608-1.407 1.329-3.938 1.329-2.625 0-4.062-1.344-1.453-1.344-1.453-3.5 0-2.078 1.421-3.39 1.407-1.329 3.985-1.329.156 0 .469.016v7.734q1.703-.094 2.609-.969.906-.875.906-2.172 0-.968-.5-1.64-.515-.688-1.625-1.094zm-2.844 5.781v-5.797q-1.296.11-1.953.657-1.015.844-1.015 2.187 0 1.203.812 2.031.797.829 2.156.922zm4.907-16.453q.828.985 1.172 1.89.343.907.343 1.938 0 1.703-.828 2.625-.844.922-2.14.922-.766 0-1.391-.344-.625-.359-1-.921-.39-.563-.594-1.266-.125-.516-.265-1.563-.25-2.125-.594-3.125-.36-.015-.469-.015-1.062 0-1.516.5-.593.672-.593 2 0 1.25.437 1.844.438.578 1.547.859l-.234 1.719q-1.11-.235-1.782-.766-.687-.531-1.046-1.547-.375-1.015-.375-2.36 0-1.327.312-2.155.313-.828.797-1.22.469-.39 1.187-.546.454-.094 1.625-.094h2.344q2.453 0 3.11-.11.64-.108 1.234-.452v1.844q-.547.265-1.281.343zm-3.922.156q.39.954.656 2.875.156 1.079.36 1.532.187.437.562.687.375.25.844.25.703 0 1.172-.531.468-.531.468-1.563 0-1.015-.437-1.796-.453-.797-1.219-1.172-.61-.281-1.766-.281h-.64zm9.172-4.375h-14.344v-1.609h1.344q-.782-.562-1.172-1.266-.406-.718-.406-1.734 0-1.328.687-2.344.688-1.015 1.938-1.53 1.234-.532 2.718-.532 1.594 0 2.875.578 1.266.563 1.953 1.656.672 1.094.672 2.297 0 .875-.375 1.578-.375.688-.937 1.14h5.047v1.767zm-9.094-1.593q2 0 2.953-.813.953-.812.953-1.969 0-1.171-.984-2-.985-.843-3.078-.843-1.969 0-2.953.828-1 .812-1 1.937t1.062 2q1.047.86 3.047.86zm2.031-14.703-.281-1.75q1.047-.141 1.61-.813.546-.672.546-1.875 0-1.203-.484-1.781-.5-.594-1.156-.594-.594 0-.938.516-.234.36-.594 1.797-.5 1.937-.843 2.687-.36.734-.985 1.125-.64.39-1.406.39-.688 0-1.281-.312-.594-.328-.985-.875-.297-.406-.5-1.11-.218-.718-.218-1.53 0-1.22.359-2.141.344-.922.953-1.36.594-.437 1.594-.609l.234 1.719q-.797.125-1.234.688-.453.562-.453 1.578 0 1.218.406 1.734.39.516.922.516.344 0 .625-.22.281-.202.469-.671.093-.266.437-1.547.5-1.875.828-2.61.313-.734.922-1.156.594-.421 1.5-.421.875 0 1.656.515.782.516 1.203 1.485.422.968.422 2.187 0 2.016-.843 3.078-.844 1.063-2.485 1.36zm-9.203-10.72h-2.016v-1.765h2.016v1.766zm12.297 0h-10.375v-1.765h10.375v1.766zm0-3.062h-1.422l-7.578-6.608q.047 1.125.047 1.984v4.235h-1.422v-8.485h1.172l6.578 5.625 1.203 1.079q-.094-1.172-.094-2.22v-4.796h1.516v9.187zm-3.344-18.03.235-1.813q1.578.421 2.468 1.593.875 1.157.875 2.97 0 2.265-1.39 3.609-1.407 1.328-3.938 1.328-2.625 0-4.062-1.344-1.453-1.344-1.453-3.5 0-2.078 1.421-3.39 1.407-1.329 3.985-1.329.156 0 .469.016v7.734q1.703-.094 2.609-.969.906-.875.906-2.171 0-.97-.5-1.641-.515-.688-1.625-1.094zm-2.844 5.78v-5.796q-1.296.109-1.953.656-1.015.844-1.015 2.187 0 1.203.812 2.031.797.829 2.156.922zm45.86 228.392q0-2.03.406-3.265.422-1.234 1.25-1.906.828-.672 2.078-.672.922 0 1.61.375.703.36 1.156 1.062.453.703.703 1.703.266 1 .266 2.704 0 2.015-.422 3.265-.407 1.235-1.235 1.922-.828.672-2.078.672-1.656 0-2.61-1.203-1.124-1.422-1.124-4.656zm1.437 0q0 2.829.657 3.766.671.922 1.64.922.969 0 1.625-.937.656-.938.656-3.75 0-2.829-.656-3.75-.656-.938-1.64-.938-.97 0-1.547.828-.735 1.047-.735 3.86zm7.828-3.046q0-1.235.61-2.094.625-.86 1.797-.86 1.078 0 1.781.782.703.765.703 2.25 0 1.453-.719 2.25-.703.781-1.75.781-1.047 0-1.734-.766-.688-.78-.688-2.343zm2.438-1.985q-.516 0-.875.453-.344.454-.344 1.672 0 1.094.344 1.547.36.453.875.453.531 0 .875-.453.36-.453.36-1.656 0-1.11-.36-1.563-.344-.453-.875-.453zm.016 11.11 6.265-12.078h1.14l-6.25 12.078zm4.953-3.11q0-1.234.61-2.093.624-.86 1.796-.86 1.078 0 1.781.781.719.766.719 2.25 0 1.454-.719 2.25-.719.782-1.765.782-1.047 0-1.735-.782-.687-.78-.687-2.328zm2.453-1.984q-.531 0-.89.453-.345.453-.345 1.672 0 1.094.344 1.547.36.453.875.453.547 0 .89-.453.345-.453.345-1.656 0-1.11-.36-1.563-.344-.453-.86-.453zm-13.828-97.43h-1.407v-8.97q-.515.485-1.343.97-.813.484-1.469.734v-1.36q1.172-.562 2.047-1.343.89-.797 1.265-1.531h.907zm3.968-8.704q0-1.234.61-2.093.625-.86 1.797-.86 1.078 0 1.781.782.703.765.703 2.25 0 1.453-.719 2.25-.703.78-1.75.78-1.047 0-1.734-.765-.688-.781-.688-2.344zm2.438-1.984q-.516 0-.875.453-.344.453-.344 1.672 0 1.094.344 1.547.36.453.875.453.531 0 .875-.453.36-.453.36-1.656 0-1.11-.36-1.563-.344-.453-.875-.453zm.016 11.11 6.265-12.079h1.14l-6.25 12.078h-1.155zm4.953-3.11q0-1.234.61-2.094.624-.86 1.796-.86 1.078 0 1.781.782.719.766.719 2.25 0 1.453-.719 2.25-.719.781-1.765.781-1.047 0-1.735-.78-.687-.782-.687-2.329zm2.453-1.984q-.531 0-.89.453-.345.453-.345 1.672 0 1.093.344 1.547.36.453.875.453.547 0 .89-.453.345-.454.345-1.657 0-1.11-.36-1.562-.344-.453-.86-.453zm-11.735-98.79v1.36h-7.578q-.015-.516.172-.985.281-.766.922-1.516.64-.75 1.844-1.734 1.86-1.531 2.515-2.422.657-.906.657-1.703 0-.828-.594-1.406t-1.563-.578q-1.015 0-1.625.609-.609.61-.609 1.687l-1.453-.14q.156-1.625 1.125-2.469.969-.844 2.594-.844 1.656 0 2.61.922.968.906.968 2.25 0 .688-.281 1.36-.282.656-.938 1.39-.656.735-2.172 2.016-1.265 1.062-1.625 1.453-.36.375-.594.75zm1.875-7.344q0-1.234.61-2.094.625-.859 1.797-.859 1.078 0 1.781.781.703.766.703 2.25 0 1.453-.719 2.25-.703.782-1.75.782-1.047 0-1.734-.766-.688-.781-.688-2.344zm2.438-1.984q-.516 0-.875.453-.344.453-.344 1.672 0 1.094.344 1.547.36.453.875.453.531 0 .875-.453.36-.453.36-1.657 0-1.109-.36-1.562-.344-.453-.875-.453zm.016 11.11 6.265-12.079h1.14l-6.25 12.078h-1.155zm4.953-3.11q0-1.235.61-2.094.624-.86 1.796-.86 1.078 0 1.781.782.719.766.719 2.25 0 1.453-.719 2.25-.719.781-1.765.781-1.047 0-1.735-.781-.687-.781-.687-2.328zm2.453-1.985q-.531 0-.89.454-.345.453-.345 1.671 0 1.094.344 1.547.36.453.875.453.547 0 .89-.453.345-.453.345-1.656 0-1.11-.36-1.562-.344-.454-.86-.454zm-19.125-100.461 1.406-.188q.25 1.203.828 1.735.578.515 1.422.515.984 0 1.672-.687.688-.688.688-1.703 0-.97-.641-1.594-.625-.625-1.61-.625-.39 0-.984.156l.156-1.234q.141.015.22.015.905 0 1.624-.468.719-.47.719-1.454 0-.765-.531-1.265-.516-.516-1.344-.516-.828 0-1.375.516-.547.515-.703 1.547l-1.407-.25q.266-1.422 1.172-2.188.922-.781 2.282-.781.937 0 1.718.406.797.39 1.203 1.094.422.687.422 1.469 0 .75-.406 1.36-.39.608-1.172.968 1.016.234 1.578.969.563.734.563 1.843 0 1.5-1.094 2.547-1.094 1.047-2.766 1.047-1.5 0-2.5-.89-1-.907-1.14-2.344zm9.265-5.672q0-1.235.61-2.094.625-.86 1.797-.86 1.078 0 1.781.782.703.766.703 2.25 0 1.453-.719 2.25-.703.781-1.75.781-1.047 0-1.734-.765-.688-.782-.688-2.344zm2.438-1.985q-.516 0-.875.454-.344.453-.344 1.671 0 1.094.344 1.547.36.453.875.453.531 0 .875-.453.36-.453.36-1.656 0-1.11-.36-1.562-.344-.454-.875-.454zm.016 11.11 6.265-12.078h1.14l-6.25 12.078zm4.953-3.11q0-1.234.61-2.093.624-.86 1.796-.86 1.078 0 1.781.782.719.765.719 2.25 0 1.453-.719 2.25-.719.78-1.765.78-1.047 0-1.735-.78-.687-.782-.687-2.328zm2.453-1.984q-.531 0-.89.453-.345.453-.345 1.672 0 1.094.344 1.547.36.453.875.453.547 0 .89-.453.345-.453.345-1.656 0-1.11-.36-1.563-.344-.453-.86-.453z" fill="#666"/><path d="m119.862 413.24-9.115-9.116 6.143-6.143 1.083 1.083-4.939 4.939 2.817 2.817 4.276-4.275 1.072 1.071-4.276 4.276 4.143 4.143-1.204 1.204zm11.06-12.695q-.089 1.149-.453 1.955-.354.796-1.006 1.448-1.094 1.093-2.21 1.149-1.115.033-1.944-.796-.475-.475-.652-1.094-.188-.63-.077-1.226.11-.597.442-1.171.243-.42.828-1.16 1.183-1.514 1.602-2.376-.22-.243-.287-.309-.674-.674-1.281-.64-.807.054-1.647.894-.795.796-.895 1.447-.1.652.431 1.536l-1.248.94q-.553-.862-.652-1.625-.089-.773.32-1.646.42-.884 1.282-1.746.84-.84 1.569-1.17.729-.332 1.281-.266.553.044 1.105.398.343.232 1.094.983l1.492 1.492q1.558 1.557 2.044 1.911.486.331 1.071.497l-1.17 1.171q-.531-.176-1.04-.596zm-2.597-2.398q-.353.862-1.403 2.243-.586.784-.74 1.204-.166.41-.078.807.078.387.376.685.442.442 1.072.409.64-.045 1.293-.696.651-.652.872-1.426.221-.795-.033-1.513-.21-.564-.95-1.304zm8.066-6.275 1.237-.95q.961 1.314.873 2.706-.1 1.381-1.182 2.464-1.36 1.36-3.072 1.304-1.712-.077-3.359-1.724-1.071-1.071-1.513-2.22-.453-1.16-.133-2.276.32-1.138 1.171-1.99 1.083-1.082 2.31-1.203 1.226-.144 2.42.651l-.929 1.26q-.817-.508-1.547-.442-.729.044-1.292.608-.84.84-.763 1.977.078 1.138 1.392 2.453 1.326 1.326 2.442 1.425 1.105.089 1.934-.74.651-.652.696-1.491.033-.851-.685-1.812zm6.872-6.276 1.304-1.016q.729 1.281.552 2.585-.177 1.304-1.326 2.453-1.447 1.447-3.193 1.403-1.746-.044-3.359-1.657-1.657-1.658-1.723-3.425-.066-1.79 1.304-3.16 1.325-1.326 3.071-1.26 1.735.055 3.37 1.69.1.1.287.31l-4.916 4.917q1.149 1.038 2.276 1.06 1.138.011 1.955-.806.619-.62.73-1.37.12-.763-.332-1.724zm-5.491 1.867 3.69-3.69q-.906-.751-1.668-.829-1.194-.11-2.044.74-.763.763-.774 1.813 0 1.038.796 1.966zm11.192-3.325-1.039 1.038-9.115-9.115 1.127-1.127 3.26 3.26q-.188-1.603.906-2.696.607-.608 1.403-.895.795-.31 1.58-.21.795.088 1.624.52.828.43 1.536 1.137 1.701 1.702 1.79 3.47.099 1.756-1.083 2.938-1.16 1.16-2.818.851zm-3.359-3.337q1.182 1.182 2.033 1.392 1.392.332 2.298-.574.73-.73.63-1.89-.1-1.182-1.359-2.441-1.293-1.293-2.43-1.393-1.128-.11-1.857.62-.73.728-.63 1.91.11 1.172 1.315 2.376zm5.68-5.59q-1.835-1.835-1.691-3.746.121-1.58 1.337-2.795 1.37-1.37 3.126-1.337 1.757.033 3.326 1.602 1.27 1.27 1.613 2.386.354 1.105.033 2.243-.32 1.138-1.193 2.011-1.381 1.381-3.127 1.359-1.746-.044-3.425-1.724zm1.148-1.15q1.27 1.27 2.453 1.348 1.182.078 2.022-.762.84-.84.762-2.022-.088-1.193-1.38-2.486-1.227-1.226-2.42-1.293-1.183-.077-2.011.752-.84.84-.763 2.022.078 1.182 1.337 2.441zm5.922-5.922q-1.834-1.834-1.69-3.745.121-1.58 1.337-2.795 1.37-1.37 3.126-1.337 1.757.033 3.326 1.602 1.27 1.27 1.613 2.386.354 1.105.033 2.243-.32 1.138-1.193 2.01-1.381 1.382-3.127 1.36-1.745-.044-3.425-1.724zm1.15-1.149q1.27 1.27 2.452 1.348 1.182.078 2.022-.762.84-.84.762-2.022-.088-1.193-1.38-2.486-1.227-1.226-2.42-1.293-1.183-.077-2.011.752-.84.84-.763 2.022.078 1.182 1.337 2.441zm9.656-3.05-9.115-9.114 1.115-1.116 5.204 5.204-.044-5.326 1.448-1.447-.078 4.96 6.939 1.37-1.381 1.382-5.558-1.182-.033 1.535 2.619 2.619-1.116 1.116zm27.242 49.874-9.115-9.115 1.215-1.215 9.116 9.115zm3.193-3.193-6.596-6.596 1.006-1.005.939.939q-.365-1.823 1.005-3.193.597-.597 1.315-.873.718-.298 1.315-.188.596.088 1.17.464.365.254 1.15 1.039l4.055 4.054-1.116 1.116-4.01-4.01q-.686-.685-1.16-.895-.465-.221-1.006-.078-.53.133-.973.575-.718.718-.784 1.69-.066.973 1.204 2.243l3.602 3.602zm4.652-8.585.939-1.292q.751.574 1.524.508.785-.078 1.547-.84.774-.773.84-1.458.055-.696-.365-1.116-.375-.376-.928-.265-.375.088-1.524.773-1.536.917-2.232 1.171-.707.243-1.36.1-.651-.166-1.137-.652-.442-.442-.619-1.017-.166-.585-.066-1.17.066-.465.386-1.05.32-.586.83-1.094.784-.785 1.601-1.138.807-.365 1.47-.254.663.088 1.403.63l-.95 1.237q-.586-.431-1.227-.365-.64.067-1.292.718-.774.774-.851 1.36-.078.585.265.927.22.221.541.255.31.044.719-.122.232-.122 1.281-.707 1.492-.873 2.166-1.127.674-.276 1.325-.155.663.11 1.227.674.563.564.73 1.392.176.818-.167 1.713-.353.884-1.127 1.657-1.292 1.293-2.497 1.436-1.215.133-2.452-.729zm10.22-8.297 1.16.828q-.376.575-.752.95-.607.608-1.138.763-.53.133-.972-.044-.453-.188-1.458-1.193l-3.801-3.801-.829.828-.861-.861.828-.829-1.635-1.635.43-1.779 2.31 2.31 1.127-1.128.862.862-1.127 1.127 3.867 3.867q.475.475.674.563.199.067.409.012.21-.056.464-.31.176-.177.442-.53zm5.59-5.215q-.088 1.149-.453 1.955-.353.796-1.005 1.448-1.094 1.094-2.21 1.149-1.116.033-1.945-.796-.475-.475-.651-1.093-.188-.63-.078-1.227.11-.596.442-1.17.243-.42.829-1.161 1.182-1.514 1.602-2.376-.221-.243-.287-.309-.674-.674-1.282-.64-.807.055-1.646.894-.796.796-.895 1.448-.1.652.43 1.535l-1.248.94q-.552-.862-.652-1.625-.088-.773.32-1.646.42-.884 1.282-1.746.84-.84 1.57-1.17.728-.332 1.28-.266.553.044 1.106.398.342.232 1.094.983l1.491 1.492q1.558 1.558 2.044 1.911.486.332 1.072.497l-1.171 1.171q-.53-.176-1.039-.596zm-2.596-2.398q-.354.862-1.403 2.243-.586.785-.74 1.205-.166.408-.078.806.077.387.376.685.442.442 1.071.409.641-.044 1.293-.696.652-.652.873-1.425.22-.796-.033-1.514-.21-.564-.95-1.304l-.41-.409zm6.518 1.216 1.249-.94q.574.442 1.116.365.729-.11 1.447-.828.773-.774.873-1.514.121-.74-.287-1.436-.254-.431-1.348-1.525.121 1.602-.973 2.696-1.359 1.359-3.093 1.127-1.724-.243-3.094-1.613-.95-.95-1.403-2.089-.453-1.138-.232-2.22.21-1.094 1.083-1.967 1.171-1.171 2.872-.972l-.795-.796 1.039-1.038 5.7 5.7q1.547 1.548 1.868 2.509.331.95.01 2-.297 1.05-1.292 2.043-1.182 1.183-2.442 1.382-1.26.198-2.298-.884zm-3.038-4.895q1.293 1.293 2.409 1.37 1.115.078 1.889-.696.773-.773.707-1.878-.077-1.116-1.348-2.387-1.215-1.215-2.364-1.281-1.15-.089-1.912.674-.74.74-.663 1.878.089 1.127 1.282 2.32zm9.756-2.928-6.596-6.596 1.005-1.005.995.994q-.31-1.082-.21-1.624.1-.563.486-.95.574-.575 1.514-.784l.662 1.414q-.662.177-1.071.585-.365.365-.442.884-.067.508.199 1.017.408.784 1.116 1.491l3.458 3.458zm7.745-9.38q-.089 1.15-.453 1.956-.354.795-1.006 1.447-1.093 1.094-2.21 1.15-1.115.032-1.944-.796-.475-.475-.652-1.094-.187-.63-.077-1.227.11-.596.442-1.17.243-.42.829-1.16 1.182-1.514 1.602-2.376-.221-.243-.288-.31-.674-.674-1.281-.64-.807.055-1.646.894-.796.796-.895 1.448-.1.652.43 1.536l-1.248.939q-.552-.862-.652-1.624-.088-.774.32-1.647.42-.884 1.282-1.745.84-.84 1.57-1.171.728-.332 1.28-.266.553.045 1.106.398.342.232 1.093.983l1.492 1.492q1.558 1.558 2.044 1.911.486.332 1.072.498l-1.172 1.17q-.53-.176-1.038-.596zm-2.597-2.397q-.353.861-1.403 2.242-.585.785-.74 1.205-.166.409-.077.806.077.387.375.685.442.442 1.072.41.64-.045 1.293-.697.652-.652.873-1.425.22-.796-.034-1.514-.21-.563-.95-1.304zm6.177.453-6.596-6.596 1.005-1.006.917.917q-.166-.784.044-1.59.221-.818.884-1.481.73-.73 1.503-.884.773-.177 1.513.188-.375-1.945.884-3.204.984-.984 2.055-.95 1.072.01 2.199 1.137l4.53 4.53-1.105 1.105-4.154-4.154q-.674-.674-1.083-.862-.409-.188-.873-.077-.464.11-.85.497-.697.696-.697 1.624.011.917 1.028 1.934l3.834 3.833-1.116 1.116-4.287-4.286q-.751-.752-1.392-.84-.652-.1-1.27.52-.476.474-.62 1.126-.154.64.133 1.304.299.652 1.204 1.558l3.426 3.425zm38.81 38.305-3.856-3.856-8.773-1.746 1.47-1.47 4.552.951q1.27.276 2.464.608-.299-1.116-.608-2.597l-.928-4.441 1.403-1.403 1.624 8.894 3.856 3.856zm2.055-8.662q-1.834-1.834-1.69-3.746.121-1.58 1.336-2.795 1.37-1.37 3.127-1.337 1.757.033 3.326 1.602 1.27 1.27 1.613 2.387.353 1.105.033 2.243-.32 1.138-1.193 2.01-1.381 1.382-3.127 1.36-1.746-.045-3.425-1.724zm1.149-1.15q1.27 1.271 2.453 1.349 1.182.077 2.022-.763.84-.84.762-2.022-.088-1.193-1.381-2.485-1.226-1.227-2.42-1.293-1.182-.077-2.01.751-.84.84-.763 2.022.077 1.182 1.337 2.442zm13.965-7.358-.972-.972q.365 1.89-.961 3.215-.586.586-1.315.873-.74.276-1.315.188-.585-.1-1.182-.497-.398-.265-1.105-.973l-4.088-4.087 1.116-1.116 3.657 3.657q.873.873 1.249 1.116.552.331 1.149.243.585-.1 1.083-.597.508-.508.696-1.204.187-.696-.078-1.315-.265-.64-1.105-1.48l-3.535-3.536 1.116-1.116 6.596 6.596zm5.215-5.214-8.032-8.033-3.005 3.005-1.083-1.082 7.226-7.226 1.083 1.083-3.017 3.016 8.033 8.032-1.205 1.204zm9.635-9.635-.973-.972q.365 1.89-.96 3.215-.586.586-1.316.873-.74.276-1.314.188-.586-.1-1.183-.497-.397-.266-1.104-.973l-4.088-4.088 1.115-1.116 3.658 3.657q.872.873 1.248 1.116.552.332 1.15.243.585-.099 1.082-.596.508-.508.696-1.204.188-.697-.077-1.315-.266-.641-1.105-1.48l-3.536-3.536 1.116-1.116 6.596 6.596zm3.778-3.778-1.038 1.038-9.115-9.115 1.127-1.127 3.259 3.26q-.188-1.603.906-2.696.608-.608 1.403-.895.796-.31 1.58-.21.796.088 1.624.519.829.431 1.536 1.138 1.701 1.702 1.79 3.47.1 1.756-1.083 2.938-1.16 1.16-2.817.851zm-3.359-3.337q1.183 1.182 2.033 1.392 1.393.332 2.299-.574.729-.73.63-1.89-.1-1.182-1.36-2.441-1.292-1.293-2.43-1.393-1.127-.11-1.857.62-.729.728-.63 1.91.111 1.172 1.315 2.376zm11.8-9.347 1.304-1.017q.73 1.282.553 2.586-.177 1.303-1.326 2.453-1.448 1.447-3.193 1.403-1.746-.045-3.36-1.658-1.656-1.657-1.723-3.425-.066-1.79 1.304-3.16 1.326-1.325 3.072-1.259 1.734.055 3.37 1.69.099.1.287.31l-4.917 4.916q1.149 1.039 2.276 1.061 1.138.011 1.956-.807.618-.618.729-1.37.121-.762-.332-1.723zm-5.49 1.867 3.69-3.69q-.907-.751-1.669-.829-1.193-.11-2.044.74-.762.763-.773 1.812 0 1.039.795 1.967zm56.277 28.704-9.115-9.115 1.812-1.812 8.607 4.298q1.204.608 1.779.917-.343-.652-.972-1.944l-4.155-8.53 1.613-1.613 9.115 9.115-1.16 1.16-7.623-7.623 4.983 10.264-1.094 1.094-10.386-5.127 7.756 7.756zm13.988-15.622q-.089 1.149-.453 1.955-.354.796-1.006 1.447-1.093 1.094-2.21 1.15-1.115.033-1.944-.796-.475-.475-.652-1.094-.188-.63-.077-1.226.11-.597.442-1.171.243-.42.828-1.16 1.183-1.514 1.603-2.376-.221-.243-.288-.31-.674-.673-1.281-.64-.807.055-1.647.895-.795.795-.895 1.447-.099.652.431 1.536l-1.248.94q-.553-.863-.652-1.625-.088-.773.32-1.646.42-.884 1.282-1.746.84-.84 1.569-1.171.73-.332 1.282-.265.552.044 1.104.398.343.232 1.094.983l1.492 1.491q1.558 1.558 2.044 1.912.486.331 1.071.497l-1.17 1.171q-.531-.177-1.04-.596zm-2.597-2.398q-.353.862-1.403 2.243-.585.784-.74 1.204-.166.409-.077.807.077.386.375.685.442.442 1.072.408.64-.044 1.293-.696.651-.651.872-1.425.221-.795-.033-1.513-.21-.564-.95-1.304zm8.707 2.983-9.127-9.126 1.017-1.016.85.85q-.132-.862.067-1.569t.84-1.348q.85-.85 1.933-1.05 1.083-.22 2.21.244 1.116.453 2.066 1.403 1.005 1.006 1.458 2.188.442 1.17.188 2.309-.265 1.127-1.027 1.89-.553.552-1.238.773-.685.198-1.337.121l3.216 3.215zm-4.773-6.806q1.27 1.27 2.386 1.37 1.127.089 1.856-.64.752-.752.652-1.912-.1-1.16-1.425-2.486-1.26-1.26-2.409-1.37-1.149-.11-1.867.608t-.597 1.944q.122 1.205 1.404 2.486zm6.894-4.309.94-1.292q.75.574 1.524.508.784-.078 1.547-.84.773-.773.84-1.458.054-.696-.365-1.116-.376-.376-.928-.265-.376.088-1.525.773-1.536.917-2.232 1.171-.707.243-1.359.1-.652-.166-1.138-.652-.442-.442-.619-1.017-.165-.585-.066-1.17.066-.465.387-1.05.32-.586.828-1.094.785-.785 1.602-1.138.807-.365 1.47-.254.663.088 1.403.63l-.95 1.237q-.586-.431-1.226-.365-.641.067-1.293.718-.774.774-.85 1.36-.078.585.264.927.221.221.542.255.309.044.718-.122.232-.122 1.281-.707 1.492-.873 2.166-1.127.674-.276 1.326-.155.663.11 1.226.674.564.564.73 1.392.176.818-.166 1.713-.354.884-1.127 1.657-1.293 1.293-2.497 1.436-1.216.133-2.453-.729zm38.368 42.681-5.612-12.618 1.303-1.303 12.839 5.391-1.37 1.37-3.823-1.701-3.812 3.812 1.757 3.767zm-1.116-6.375 3.094-3.094-3.47-1.569q-1.59-.707-2.54-1.237.707 1.038 1.248 2.22zm10.463-2.972-6.596-6.596 1.006-1.006.917.917q-.166-.784.044-1.59.221-.818.884-1.481.73-.73 1.503-.884.773-.177 1.513.188-.375-1.945.884-3.204.983-.984 2.055-.95 1.072.01 2.199 1.138l4.53 4.53-1.105 1.104-4.154-4.154q-.674-.674-1.083-.862-.409-.188-.873-.077-.464.11-.85.497-.697.696-.697 1.624.011.917 1.028 1.934l3.833 3.834-1.115 1.116-4.287-4.287q-.752-.752-1.392-.84-.652-.1-1.27.52-.476.474-.62 1.126-.154.641.133 1.304.298.652 1.204 1.558l3.425 3.425zm14.098-15.733q-.088 1.149-.453 1.955-.353.796-1.005 1.448-1.094 1.093-2.21 1.149-1.116.033-1.944-.796-.475-.475-.652-1.094-.188-.63-.078-1.226.11-.597.442-1.171.243-.42.829-1.16 1.182-1.514 1.602-2.376-.22-.243-.287-.31-.674-.673-1.282-.64-.806.055-1.646.895-.796.795-.895 1.447-.1.652.43 1.536l-1.248.94q-.552-.863-.651-1.625-.089-.773.32-1.646.42-.884 1.282-1.746.84-.84 1.568-1.17.73-.332 1.282-.266.553.044 1.105.398.342.232 1.094.983l1.491 1.491q1.558 1.558 2.044 1.912.486.331 1.072.497l-1.171 1.171q-.53-.177-1.039-.596zm-2.596-2.398q-.354.862-1.403 2.243-.586.784-.74 1.204-.166.409-.078.807.078.386.376.685.442.442 1.072.409.64-.045 1.292-.696.652-.652.873-1.426.221-.795-.033-1.513-.21-.564-.95-1.304l-.41-.409zm5.59 1.039-.906-.906-.63-9.027q-.673.762-1.215 1.304l-2.695 2.696-.906-.906 5.391-5.392.74.74.62 7.756.065 1.459q.697-.807 1.36-1.47l3.049-3.05.961.962zm3.227-9.834q-1.834-1.834-1.69-3.745.12-1.58 1.336-2.795 1.37-1.37 3.127-1.337 1.757.033 3.325 1.602 1.271 1.27 1.614 2.386.353 1.105.033 2.243-.32 1.138-1.194 2.011-1.38 1.381-3.126 1.359-1.746-.044-3.425-1.724zm1.149-1.149q1.27 1.271 2.452 1.348 1.183.078 2.022-.762.84-.84.763-2.022-.089-1.193-1.381-2.486-1.227-1.226-2.42-1.293-1.182-.077-2.01.752-.84.84-.763 2.022.077 1.182 1.337 2.441zm9.645-3.038-6.596-6.596 1.005-1.005.94.939q-.365-1.823 1.005-3.193.597-.597 1.315-.873.718-.298 1.315-.188.596.088 1.17.464.365.254 1.15 1.039l4.055 4.055-1.116 1.115-4.01-4.01q-.686-.685-1.161-.895-.464-.221-1.005-.078-.53.133-.973.575-.718.718-.784 1.69-.066.973 1.204 2.243l3.602 3.602zm42.555 34.56-9.114-9.115 1.215-1.215 8.044 8.043 4.485-4.486 1.072 1.072-5.701 5.7zm10.475-12.11q-.088 1.15-.453 1.956-.354.796-1.005 1.448-1.094 1.093-2.21 1.149-1.116.033-1.945-.796-.475-.475-.652-1.094-.187-.63-.077-1.226.11-.597.442-1.171.243-.42.829-1.16 1.182-1.514 1.602-2.376-.221-.243-.288-.31-.674-.673-1.281-.64-.807.055-1.646.895-.796.796-.895 1.447-.1.652.43 1.536l-1.248.94q-.552-.863-.652-1.625-.088-.773.32-1.646.42-.884 1.282-1.746.84-.84 1.57-1.17.728-.332 1.28-.266.553.044 1.106.398.342.232 1.093.983l1.492 1.492q1.558 1.557 2.044 1.911.486.331 1.072.497l-1.172 1.171q-.53-.177-1.038-.596zm-2.596-2.397q-.354.862-1.404 2.243-.585.784-.74 1.204-.166.41-.077.807.077.387.375.685.442.442 1.072.409.64-.045 1.293-.696.652-.652.873-1.426.22-.795-.034-1.513-.21-.564-.95-1.304l-.409-.409zm5.59 1.039-.906-.906-.63-9.027q-.674.762-1.215 1.304l-2.696 2.696-.906-.906 5.392-5.392.74.74.619 7.756.066 1.459q.696-.807 1.36-1.47l3.048-3.05.962.962zm10.44-12.076q-.087 1.149-.452 1.955-.354.796-1.005 1.448-1.094 1.093-2.21 1.149-1.116.033-1.945-.796-.475-.475-.652-1.094-.187-.63-.077-1.226.11-.597.442-1.171.243-.42.829-1.16 1.182-1.514 1.602-2.376-.221-.243-.288-.31-.674-.673-1.281-.64-.807.055-1.646.895-.796.796-.895 1.447-.1.652.43 1.536l-1.248.94q-.552-.863-.652-1.625-.088-.773.32-1.646.42-.884 1.282-1.746.84-.84 1.57-1.17.728-.332 1.28-.266.553.044 1.106.398.342.232 1.093.983l1.492 1.492q1.558 1.557 2.044 1.91.486.332 1.072.498l-1.172 1.171q-.53-.177-1.038-.596zm-2.595-2.398q-.354.862-1.404 2.243-.585.784-.74 1.204-.166.41-.077.807.077.386.375.685.442.442 1.072.409.64-.045 1.293-.696.652-.652.873-1.426.22-.795-.034-1.513-.21-.564-.95-1.304zm10.462-3.834-.828-.828q.353 1.613-.873 2.84-.784.784-1.878 1.016-1.105.22-2.243-.188-1.15-.42-2.166-1.437-.994-.994-1.458-2.12-.475-1.139-.254-2.222.232-1.093 1.05-1.911.596-.597 1.314-.807.718-.21 1.414-.11l-3.27-3.27 1.105-1.105 9.115 9.115zm-6.839.254q1.271 1.271 2.431 1.37 1.16.078 1.89-.651.729-.73.64-1.835-.077-1.115-1.315-2.353-1.347-1.348-2.496-1.458-1.16-.122-1.923.64-.751.752-.652 1.868.11 1.105 1.425 2.42zm13.115-8.164q-.088 1.149-.453 1.955-.353.796-1.005 1.447-1.094 1.094-2.21 1.15-1.116.033-1.945-.796-.475-.475-.651-1.094-.188-.63-.078-1.226.11-.597.442-1.171.243-.42.829-1.16 1.182-1.514 1.602-2.376-.221-.243-.287-.31-.674-.673-1.282-.64-.807.055-1.646.895-.796.795-.895 1.447-.1.652.43 1.536l-1.248.94q-.552-.863-.652-1.625-.088-.773.32-1.646.42-.884 1.282-1.746.84-.84 1.57-1.171.728-.332 1.28-.265.553.044 1.106.398.342.232 1.094.983l1.491 1.491q1.558 1.558 2.044 1.912.486.331 1.072.497l-1.171 1.171q-.53-.177-1.039-.596zm-2.596-2.398q-.354.862-1.404 2.243-.585.784-.74 1.204-.166.409-.077.807.077.386.376.685.442.442 1.071.408.641-.044 1.293-.696.652-.651.873-1.425.22-.795-.033-1.513-.21-.564-.95-1.304l-.41-.409zm51.107 32.637-9.115-9.115 1.215-1.215 9.115 9.115zm3.193-3.193-6.596-6.596 1.006-1.005.917.917q-.166-.784.044-1.591.22-.818.884-1.48.729-.73 1.502-.884.774-.177 1.514.187-.376-1.944.884-3.204.983-.983 2.055-.95 1.071.011 2.198 1.138l4.53 4.53-1.105 1.105-4.154-4.154q-.674-.674-1.082-.862-.41-.188-.873-.077-.464.11-.851.497-.696.696-.696 1.624.01.917 1.027 1.933l3.834 3.834-1.116 1.116-4.287-4.287q-.75-.751-1.392-.84-.651-.099-1.27.52-.475.475-.619 1.127-.155.64.133 1.304.298.651 1.204 1.557l3.425 3.425zm10.95-9.844 1.248-.939q.574.442 1.116.365.729-.11 1.447-.83.773-.773.873-1.513.121-.74-.288-1.436-.254-.43-1.347-1.525.121 1.602-.973 2.696-1.359 1.36-3.093 1.127-1.724-.243-3.094-1.613-.95-.95-1.403-2.088-.453-1.138-.232-2.221.21-1.094 1.083-1.967 1.17-1.17 2.872-.972l-.795-.795 1.038-1.039 5.701 5.701q1.547 1.547 1.868 2.508.331.95.01 2-.298 1.05-1.292 2.044-1.182 1.182-2.442 1.381-1.26.199-2.298-.884zm-3.04-4.894q1.293 1.292 2.41 1.37 1.115.077 1.889-.696.773-.774.707-1.879-.077-1.116-1.348-2.386-1.215-1.216-2.365-1.282-1.149-.088-1.91.674-.741.74-.664 1.878.089 1.127 1.282 2.32zm14.088-7.26-.973-.972q.365 1.89-.96 3.216-.586.585-1.316.872-.74.277-1.314.188-.586-.1-1.183-.497-.397-.265-1.104-.972l-4.088-4.088 1.116-1.116 3.657 3.657q.873.873 1.248 1.116.553.331 1.15.243.585-.1 1.082-.597.508-.508.696-1.204.188-.696-.077-1.315-.265-.64-1.105-1.48l-3.536-3.536 1.116-1.116 6.596 6.596-1.005 1.006zm2.74-2.74-6.596-6.595 1.005-1.006.995.995q-.31-1.083-.21-1.625.1-.563.486-.95.574-.574 1.513-.784l.663 1.414q-.663.177-1.071.586-.365.364-.442.884-.067.508.199 1.016.408.784 1.115 1.492l3.459 3.458-1.116 1.116z" fill="#434343"/></svg>