<svg xmlns="http://www.w3.org/2000/svg" xmlns:xlink="http://www.w3.org/1999/xlink" fill="none" stroke-linecap="square" stroke-miterlimit="10" viewBox="0 0 4410 1990"><path fill="#adadad" d="M1325 3h1544v383H1325zM722 1603h1435v383H722zM3397 3h1002v383H3397zm-527 0h522v383h-523zM12 3h1313v383H12zm324 800h1566v383H336z"/><path stroke="#303030" stroke-width="10" d="M1325 3h1544v383H1325zm2072 0h1002v383H3397zM722 1603h1435v383H722zM2870 3h522v383h-523zM12 3h1313v383H12zm324 800h1566v383H336z"/><path fill="#000" d="M1448 212v52h-18V130h49q21 0 34 10 12 12 12 30 0 20-12 30t-35 10zm0-15h31q14 0 22-6 7-7 7-20 0-11-7-18-8-7-20-8h-33zm157 67l-2-10q-12 11-28 11-15 0-24-8-10-8-10-20 0-16 12-24 12-10 33-10h17v-7q0-9-6-14-5-5-15-5t-15 4q-6 5-6 11h-17q0-7 5-14t14-10q10-5 20-5 17 0 27 9 10 8 10 23v45q0 14 3 22v2h-18zm-28-13q8 0 15-4 8-4 10-11v-20h-12q-32 0-32 18 0 8 6 12 5 5 13 5zm117-70l-9-1q-16 0-22 14v70h-17v-99h16v11q9-13 24-13 5 0 8 2v15zm72 57q0-7-5-11t-18-7q-12-2-20-6-7-4-10-10-5-5-5-12 0-12 10-20 10-9 27-9t27 9q10 8 10 22h-16q0-7-6-12t-15-5q-10 0-14 4-6 4-6 10 0 7 5 10t18 6l20 6q8 4 12 10 4 5 4 13 0 14-11 22-10 7-27 7-12 0-21-4-10-4-15-11-5-8-5-17h17q0 9 7 14 6 5 17 5 10 0 15-4 6-4 6-10zm80 27q-20 0-33-13-12-13-12-35v-3q0-15 6-26 5-12 15-18 10-7 22-7 20 0 30 13t10 36v7h-66q0 15 8 24 9 9 21 9 10 0 15-4 6-3 11-10l10 9q-12 19-37 19zm-2-88q-10 0-17 8-7 7-9 20h50q0-14-7-20-6-8-17-8zm210 87h-17v-62h-67v62h-17V130h17v57h67v-57h18zm121-119h-43v119h-17V145h-43v-14h103zm42-14l44 108 43-108h23v133h-18v-52l2-56-44 108h-13l-44-108 2 56v52h-17V130zm158 118h63v15h-80V130h17zm80 6q0-5 3-7 3-3 8-3t8 3q3 2 3 7 0 4-3 7t-8 3-8-3q-2-3-2-7zm50 0q0-5 2-7 3-3 8-3t8 3q3 2 3 7 0 4-3 7t-8 3-8-3q-2-3-2-7zm49 0q0-5 2-7 3-3 8-3t8 3q3 2 3 7 0 4-3 7t-8 3-8-3q-2-3-2-7zm1086-33q-3 20-16 32-13 11-34 11-24 0-38-16-14-17-14-46v-12q0-19 6-33 7-14 19-21 12-8 28-8 21 0 34 12t15 33h-18q-2-16-10-23-7-7-20-7-17 0-27 12t-10 35v13q0 22 10 34 9 13 25 13 14 0 22-6 8-7 10-23zm17-9q0-14 5-26 6-11 16-17 10-7 23-7 20 0 33 14 12 14 12 37v2q0 14-5 25-6 12-16 18-10 7-24 7-20 0-32-14t-12-37zm16 2q0 17 8 27t20 10q13 0 20-10 8-10 8-29 0-16-7-26-8-10-20-10-13 0-20 10-9 10-9 28zm110-50l1 12q11-14 30-14 30 0 31 35v66h-17v-66q0-10-5-15t-15-5q-8 0-14 4t-10 11v70h-16v-98h15zm110-24v24h19v13h-19v62q0 6 3 10 2 2 8 2h8v13l-13 2q-11 0-17-7t-6-20v-60h-18v-14h18v-24h17zm57 123h-17v-99h17v99zm-20-125q0-4 3-7 2-3 7-3t8 3q2 3 2 7t-2 7q-3 2-8 2t-7-2q-3-3-3-7zm62 26v12q11-14 30-14 30 0 31 35v66h-17v-66q0-10-5-15-4-6-15-6-8 0-14 5-6 4-10 11v70h-16v-98h16zm147 89q-10 11-28 11-16 0-25-9-8-9-8-27v-64h17v64q0 22 18 22 20 0 26-14v-72h17v99h-16zm83 11q-20 0-32-13-13-13-13-35v-3q0-15 6-26 5-12 15-18 10-7 22-7 20 0 30 13t10 36v7h-66q0 15 8 24 9 9 21 9 10 0 15-4 7-3 11-10l10 9q-12 19-37 19zm-2-88q-10 0-17 8-7 7-8 20h49q0-14-7-20-6-8-17-8zM1210 1822q-3 20-16 32-13 11-34 11-24 0-38-16-14-17-14-46v-12q0-19 6-33 7-14 19-21 12-8 28-8 21 0 34 12t15 33h-18q-2-16-10-23-7-7-20-7-17 0-27 12t-10 35v13q0 22 10 34 9 13 25 13 14 0 22-6 8-7 10-23zm17-9q0-14 5-26 6-11 16-17 10-7 23-7 20 0 33 14 12 14 12 37v2q0 14-5 25-6 12-16 18-10 7-24 7-20 0-32-14t-12-37zm17 2q0 17 7 27 8 10 20 10 13 0 20-10 8-10 8-29 0-16-7-26-8-10-20-10-13 0-20 10-9 10-9 28zm110-50v11q10-13 29-13 20 0 28 16 5-7 13-11 8-5 19-5 32 0 33 35v66h-17v-65q0-11-5-16t-16-5q-10 0-16 5-6 6-7 15v66h-17v-65q0-21-21-21-17 0-23 14v72h-17v-99h16zm230 50q0 23-10 37-10 13-28 13t-28-10v47h-18v-137h15l1 11q10-13 29-13 18 0 28 14 10 13 10 37zm-17-2q0-16-7-26t-20-10q-15 0-22 14v47q7 14 23 14 12 0 20-10 6-10 6-29zm57 50h-17v-98h17zm-18-124q0-4 2-7 3-3 8-3t7 3q3 3 3 7t-3 7q-2 2-7 2t-8-2q-2-3-2-7zm63 125h-17v-140h17zm68 1q-20 0-33-13-12-13-12-35v-3q0-15 6-26 5-12 15-18 10-7 22-7 20 0 30 13t10 36v7h-65q0 15 8 24t21 9q9 0 15-4 6-3 10-10l11 9q-12 19-37 19zm-2-88q-10 0-17 8-7 7-9 20h50q-1-14-7-20-6-8-17-8zM3023 210h-31v54h-18V130h44q23 0 35 10t12 30q0 12-7 22-6 9-18 13l30 57h-18l-29-53zm-30-14h26q13 0 20-7 8-7 8-18 0-12-7-19t-20-7h-28zm155 58q-10 11-30 11-15 0-23-9t-8-27v-64h16v64q0 22 19 22t25-14v-72h17v99h-16zm58-90v13q11-14 30-14 31 0 31 35v66h-17v-66q0-10-5-15-4-6-14-6-9 0-15 5-6 4-10 11v70h-16v-98h16zM135 212v52h-17V130h49q21 0 34 10 12 12 12 30 0 20-12 30t-35 10zm0-15h32q14 0 21-6 7-7 7-20 0-11-7-18-8-7-20-8h-33zm145-17h-8q-17 0-23 14v70h-16v-99h16v11q9-13 24-13 5 0 7 2v15zm55 85q-20 0-33-13-12-12-12-35v-3q0-15 5-26 6-12 16-18 10-7 22-7 20 0 30 13t10 36v7h-66q0 15 8 24t20 9q10 0 16-4 6-3 10-10l11 9q-12 19-37 19zm-2-88q-10 0-17 8-7 7-9 20h50q-1-14-7-20-6-8-17-8zm78 87h-17V124h17zm23-50q0-15 5-27 6-11 16-17 10-7 23-7 20 0 33 14 12 14 12 37v2q0 14-5 25-6 12-16 18-10 7-23 7-20 0-33-14-12-14-12-37zm17 1q0 17 7 27 8 10 20 10 13 0 21-10 7-10 7-29 0-16-7-26-8-10-20-10-13 0-20 10-8 10-8 28zm154 49l-2-10q-12 11-28 11-15 0-24-8-10-8-10-20 0-16 12-24 12-10 33-10h17v-7q0-9-6-14-5-5-15-5t-15 4q-6 5-6 11h-17q0-7 5-14t14-10q10-5 20-5 17 0 27 9 10 8 10 23v45q0 14 3 22v2h-18zm-28-14q8 0 15-4 8-4 10-11v-20h-12q-31 0-31 18 0 8 5 12 5 5 14 5zm65-38q0-22 10-36 11-14 29-14 17 0 27 12v-51h17v140h-15l-1-11q-10 12-28 12-17 0-28-14t-11-36zm17 2q0 17 7 27t19 10q16 0 23-15v-46q-7-13-23-13-12 0-20 10-6 9-6 27zm196 23q0-7-5-11-6-4-18-7-13-2-20-6-8-4-12-10-3-5-3-12 0-12 10-20 10-9 26-9 17 0 27 9 10 8 10 22h-16q0-7-6-12t-15-5q-10 0-14 4-6 4-6 10 0 7 5 10t18 6l20 6q8 4 12 10 4 5 4 13 0 14-10 22-11 7-28 7-12 0-21-4-10-4-14-11-6-8-6-17h17q0 9 7 14 6 5 17 5 10 0 15-4 6-4 6-10zm78 14q10 0 16-6 7-5 7-13h16q0 8-6 16-5 7-14 12-9 4-19 4-20 0-32-13t-12-37v-3q0-14 5-25 6-11 15-17 10-7 24-7 16 0 27 10t12 26h-16q0-10-7-16t-16-6q-13 0-20 10-7 8-7 26v3q0 17 7 27 7 9 20 9zm120 12q-2-3-3-10-12 11-28 11-15 0-24-8-10-8-10-20 0-16 12-24 12-10 33-10h16v-7q0-9-5-14t-15-5-16 4q-6 5-6 11h-17q0-7 6-14 5-7 14-10 9-5 20-5 17 0 26 9 10 8 10 23v46q0 14 4 22v2h-18zm-29-13q8 0 15-4t10-11v-20h-13q-30 0-30 18 0 8 5 12 5 5 13 5zm85-86v12q11-14 30-14 31 0 31 35v66h-17v-66q0-10-5-15-4-5-14-5-9 0-15 4t-10 11v70h-16v-98h16zm-648 886h65v14h-82V930h17zm88-37q0-10 3-20 4-9 10-15 5-7 13-10 9-5 20-5 10 0 18 4t14 10q6 7 10 17 2 9 2 20v1q0 11-3 20-3 10-9 16-6 7-14 10-8 4-19 4-10 0-19-3-8-4-14-10l-9-17q-3-9-3-20v-2zm17 2q0 8 2 14l5 12q4 5 10 8 4 3 11 3t12-3q6-3 10-8 3-5 4-12 2-6 2-14v-2q0-7-2-13-1-7-5-12-3-5-9-8-5-3-12-3t-12 3q-5 3-9 8l-5 12q-2 6-2 13zm165 49l-2-5v-6l-6 5-7 4-8 2-10 1-14-2q-6-2-10-6-5-4-7-10-3-4-3-10 0-9 3-15 4-6 10-10t14-6q8-2 19-2h18v-8l-2-8-4-6-8-4-10-1-8 1q-4 1-7 4l-4 4-2 6h-17q0-5 3-10l8-10q5-4 12-6 7-3 17-3 8 0 15 2t12 7q6 4 9 10t3 14v56l3 10v2h-17zm-30-13l10-1 7-4 6-5q3-2 4-5v-20h-16q-14 0-23 4-8 5-8 14l1 7 4 5 6 4h9zm74-38q0-10 3-20 2-10 7-16 6-6 13-10t16-4q10 0 16 3t11 9v-51h17v140h-15l-1-10q-5 5-12 8-7 4-16 4t-16-4q-7-4-12-10-5-8-8-17t-3-20zm17 2l1 14 5 11q3 5 8 8t12 3h8l6-4 5-4 4-6v-46q-3-6-9-10-5-4-14-4-7 0-12 3t-8 8l-5 12-1 13zm218-50v10q3-6 8-9t12-3q13 0 18 10 3-4 8-7 4-3 11-3 11 0 17 7t6 20v74h-16v-74q0-13-12-12h-5l-4 3-2 3v80h-17v-74q0-6-3-10-2-3-8-3-5 0-8 3-3 2-4 5v79h-16V964h15zm169 99l-2-5v-6l-7 5-7 4q-3 2-8 2l-9 1q-8 0-14-2t-10-6q-5-4-8-10-2-4-2-10 0-9 3-15 4-6 10-10 5-4 14-6 8-2 18-2h19v-8l-2-8-5-6-7-4-10-1-9 1q-4 1-6 4l-5 4-1 6h-17q0-5 3-10l8-10q5-4 12-6 7-3 16-3t16 2q7 2 12 7 6 4 9 10t3 14v56l3 10v2zm-30-13l9-1 8-4 6-5 4-5v-20h-16q-15 0-23 4-8 5-8 14l1 7 4 5 6 4h9zm80-86h50v84h32v15h-83v-15h34v-70h-34zm30-26q0-4 3-7t8-3 7 3q3 3 3 7t-3 7q-2 3-7 3t-8-3q-2-3-2-7zm94 26l1 15q5-8 13-12 8-5 18-5 8 0 14 3 6 2 10 6 5 5 7 12 3 7 3 17v63h-17v-64q0-6-2-10 0-5-4-8-3-3-7-4l-10-1q-8 0-14 4-7 4-10 11v70h-17v-98h15zm126 88v-5l3-5 4-2 6-1h6l4 3 3 5v10l-3 4-4 2-6 1h-6l-4-3-2-4-1-5zm94-88h50v100q0 9-3 16-2 7-7 12t-13 8q-7 2-16 2h-10l-9-1 1-14h9l5 1h3l10-1 6-4q4-3 5-8 2-5 2-12v-84h-33v-15zm30-26q0-4 3-7 2-3 8-3 5 0 7 3 3 3 3 7t-3 7q-2 3-7 3-6 0-8-3t-2-7zm136 99l-1-6-4-4-8-4-11-3-16-4-12-6-7-8q-3-5-3-10 0-7 3-12l8-10 12-5q7-3 16-3t16 3q7 2 12 6t8 10q3 6 3 12h-17l-2-6-4-6-7-3q-4-2-10-2l-9 1q-4 1-7 4l-4 4-1 6v5l5 4q2 2 7 3l11 3 17 5q7 2 12 6 5 3 7 8 3 4 3 10 0 7-3 12-3 6-8 10l-13 5q-7 3-16 3-10 0-18-3t-13-7q-6-5-9-10-2-6-2-13h17l2 10 6 5 8 3h9q10 0 17-3 6-4 6-10z"/><g stroke="#434343" stroke-width="20"><g stroke-linecap="butt" stroke-linejoin="round"><path d="M336 448v196m2469-94l-642 1019"/><path stroke-dasharray="80 60" d="M722 1226v196m240-196v196m240-196v196m240-196v196m240-196v196m240-196v196"/></g><g fill="#434343"><use xlink:href="#a"/><path d="M303 644l33 90 33-90zm2530-77l20-94-76 59z"/><use x="240" xlink:href="#a"/><use x="480" xlink:href="#a"/><use x="720" xlink:href="#a"/><use x="960" xlink:href="#a"/><use x="1200" xlink:href="#a"/></g></g><path id="a" d="M689 1422l33 91 33-90z"/></svg>