<svg fill="none" height="494" stroke-linecap="square" stroke-miterlimit="10" width="799" xmlns="http://www.w3.org/2000/svg" xmlns:xlink="http://www.w3.org/1999/xlink"><clipPath id="a"><path d="m75.7 61.667h698.6v386.633h-698.6z"/></clipPath><path d="m0 0h799v494h-799z" fill="#fff"/><path d="m75.5 448.5h699" stroke="#333" stroke-linecap="butt"/><path d="m75.5 351.5h699m-699-97h699m-699-96h699m-699-97h699" stroke="#ccc" stroke-linecap="butt"/><path clip-path="url(#a)" d="m117 448h-15v-194a2 2 0 0 1 2-2h11a2 2 0 0 1 2 2z"/><path clip-path="url(#a)" d="m117 448h-15v-194a2 2 0 0 1 2-2h11a2 2 0 0 1 2 2z" fill="#9fc5e8"/><path clip-path="url(#a)" d="m192 448h-15v-191a2 2 0 0 1 2-2h11a2 2 0 0 1 2 2z"/><path clip-path="url(#a)" d="m192 448h-15v-191a2 2 0 0 1 2-2h11a2 2 0 0 1 2 2z" fill="#9fc5e8"/><path clip-path="url(#a)" d="m267 448h-15v-8a2 2 0 0 1 2-2h11a2 2 0 0 1 2 2z"/><path clip-path="url(#a)" d="m267 448h-15v-8a2 2 0 0 1 2-2h11a2 2 0 0 1 2 2z" fill="#9fc5e8"/><path clip-path="url(#a)" d="m341 448h-15v-35a2 2 0 0 1 2-2h11a2 2 0 0 1 2 2z"/><path clip-path="url(#a)" d="m341 448h-15v-35a2 2 0 0 1 2-2h11a2 2 0 0 1 2 2z" fill="#9fc5e8"/><path clip-path="url(#a)" d="m416 448h-15v-13a2 2 0 0 1 2-2h11a2 2 0 0 1 2 2z"/><path clip-path="url(#a)" d="m416 448h-15v-13a2 2 0 0 1 2-2h11a2 2 0 0 1 2 2z" fill="#9fc5e8"/><path clip-path="url(#a)" d="m491 448h-15v-123a2 2 0 0 1 2-2h11a2 2 0 0 1 2 2z"/><path clip-path="url(#a)" d="m491 448h-15v-123a2 2 0 0 1 2-2h11a2 2 0 0 1 2 2z" fill="#9fc5e8"/><path clip-path="url(#a)" d="m565 448h-15v-115a2 2 0 0 1 2-2h11a2 2 0 0 1 2 2z"/><path clip-path="url(#a)" d="m565 448h-15v-115a2 2 0 0 1 2-2h11a2 2 0 0 1 2 2z" fill="#9fc5e8"/><path clip-path="url(#a)" d="m640 448h-15v-57a2 2 0 0 1 2-2h11a2 2 0 0 1 2 2z"/><path clip-path="url(#a)" d="m640 448h-15v-57a2 2 0 0 1 2-2h11a2 2 0 0 1 2 2z" fill="#9fc5e8"/><path clip-path="url(#a)" d="m715 448h-15v-295a2 2 0 0 1 2-2h11a2 2 0 0 1 2 2z"/><path clip-path="url(#a)" d="m715 448h-15v-295a2 2 0 0 1 2-2h11a2 2 0 0 1 2 2z" fill="#9fc5e8"/><path clip-path="url(#a)" d="m133 448h-15v-227a2 2 0 0 1 2-2h11a2 2 0 0 1 2 2z"/><path clip-path="url(#a)" d="m133 448h-15v-227a2 2 0 0 1 2-2h11a2 2 0 0 1 2 2z" fill="#3d85c6"/><path clip-path="url(#a)" d="m208 448h-15v-220a2 2 0 0 1 2-2h11a2 2 0 0 1 2 2z"/><path clip-path="url(#a)" d="m208 448h-15v-220a2 2 0 0 1 2-2h11a2 2 0 0 1 2 2z" fill="#3d85c6"/><path clip-path="url(#a)" d="m283 448h-15v-10a2 2 0 0 1 2-2h11a2 2 0 0 1 2 2z"/><path clip-path="url(#a)" d="m283 448h-15v-10a2 2 0 0 1 2-2h11a2 2 0 0 1 2 2z" fill="#3d85c6"/><path clip-path="url(#a)" d="m357 448h-15v-52a2 2 0 0 1 2-2h11a2 2 0 0 1 2 2z"/><path clip-path="url(#a)" d="m357 448h-15v-52a2 2 0 0 1 2-2h11a2 2 0 0 1 2 2z" fill="#3d85c6"/><path clip-path="url(#a)" d="m432 448h-15v-10a2 2 0 0 1 2-2h11a2 2 0 0 1 2 2z"/><path clip-path="url(#a)" d="m432 448h-15v-10a2 2 0 0 1 2-2h11a2 2 0 0 1 2 2z" fill="#3d85c6"/><path clip-path="url(#a)" d="m507 448h-15v-109a2 2 0 0 1 2-2h11a2 2 0 0 1 2 2z"/><path clip-path="url(#a)" d="m507 448h-15v-109a2 2 0 0 1 2-2h11a2 2 0 0 1 2 2z" fill="#3d85c6"/><path clip-path="url(#a)" d="m581 448h-15v-115a2 2 0 0 1 2-2h11a2 2 0 0 1 2 2z"/><path clip-path="url(#a)" d="m581 448h-15v-115a2 2 0 0 1 2-2h11a2 2 0 0 1 2 2z" fill="#3d85c6"/><path clip-path="url(#a)" d="m656 448h-15v-60a2 2 0 0 1 2-2h11a2 2 0 0 1 2 2z"/><path clip-path="url(#a)" d="m656 448h-15v-60a2 2 0 0 1 2-2h11a2 2 0 0 1 2 2z" fill="#3d85c6"/><path clip-path="url(#a)" d="m731 448h-15v-327a2 2 0 0 1 2-2h11a2 2 0 0 1 2 2z"/><path clip-path="url(#a)" d="m731 448h-15v-327a2 2 0 0 1 2-2h11a2 2 0 0 1 2 2z" fill="#3d85c6"/><path clip-path="url(#a)" d="m149 448h-15v-220a2 2 0 0 1 2-2h11a2 2 0 0 1 2 2z"/><path clip-path="url(#a)" d="m149 448h-15v-220a2 2 0 0 1 2-2h11a2 2 0 0 1 2 2z" fill="#1c4587"/><path clip-path="url(#a)" d="m224 448h-15v-226a2 2 0 0 1 2-2h11a2 2 0 0 1 2 2z"/><path clip-path="url(#a)" d="m224 448h-15v-226a2 2 0 0 1 2-2h11a2 2 0 0 1 2 2z" fill="#1c4587"/><path clip-path="url(#a)" d="m299 448h-15v-23a2 2 0 0 1 2-2h11a2 2 0 0 1 2 2z"/><path clip-path="url(#a)" d="m299 448h-15v-23a2 2 0 0 1 2-2h11a2 2 0 0 1 2 2z" fill="#1c4587"/><path clip-path="url(#a)" d="m373 448h-15v-49a2 2 0 0 1 2-2h11a2 2 0 0 1 2 2z"/><path clip-path="url(#a)" d="m373 448h-15v-49a2 2 0 0 1 2-2h11a2 2 0 0 1 2 2z" fill="#1c4587"/><path clip-path="url(#a)" d="m448 448h-15v-236a2 2 0 0 1 2-2h11a2 2 0 0 1 2 2z"/><path clip-path="url(#a)" d="m448 448h-15v-236a2 2 0 0 1 2-2h11a2 2 0 0 1 2 2z" fill="#1c4587"/><path clip-path="url(#a)" d="m523 448h-15v-9a2 2 0 0 1 2-2h11a2 2 0 0 1 2 2z"/><path clip-path="url(#a)" d="m523 448h-15v-9a2 2 0 0 1 2-2h11a2 2 0 0 1 2 2z" fill="#1c4587"/><path clip-path="url(#a)" d="m597 448h-15v-10a2 2 0 0 1 2-2h11a2 2 0 0 1 2 2z"/><path clip-path="url(#a)" d="m597 448h-15v-10a2 2 0 0 1 2-2h11a2 2 0 0 1 2 2z" fill="#1c4587"/><path clip-path="url(#a)" d="m672 448h-15v-49a2 2 0 0 1 2-2h11a2 2 0 0 1 2 2z"/><path clip-path="url(#a)" d="m672 448h-15v-49a2 2 0 0 1 2-2h11a2 2 0 0 1 2 2z" fill="#1c4587"/><path clip-path="url(#a)" d="m747 448h-15v-267a2 2 0 0 1 2-2h11a2 2 0 0 1 2 2z"/><path clip-path="url(#a)" d="m747 448h-15v-267a2 2 0 0 1 2-2h11a2 2 0 0 1 2 2z" fill="#1c4587"/><path d="m32.872 360.952q-.781-.11-1.14.813l-.313.843-.125.282q-.64 1.421-1.828 1.328-.594-.047-1.047-.39-.453-.36-.688-.954-.25-.594-.234-1.25.015-.656.297-1.156.265-.5.75-.766.484-.266 1.11-.234v.922q-.657-.047-1.017.296-.359.344-.375.97-.015.671.313 1.124.328.453.875.516.734.094 1.11-.89l.265-.735.156-.36q.625-1.375 1.875-1.28.61.062 1.047.421.438.344.672.953.234.594.219 1.281 0 .672-.282 1.235-.28.547-.765.844-.5.28-1.11.25v-.922q.641.047 1.016-.344.375-.39.39-1.094 0-.719-.312-1.172-.328-.453-.86-.53zm-.797-6.656q.812.094 1.469.437.64.328.968.828.313.5.297 1.11-.03.922-.625 1.406l2.547.469v.89l-7.312-1.265v-.813l.578.11q-.703-.657-.672-1.578.016-.766.562-1.188.532-.422 1.485-.437.312-.016.61.015zm-.094.875-.406-.031q-.719 0-1.094.28-.375.266-.406.782-.016.766.734 1.313l2.532.453q.703-.297.718-1.078.016-.657-.515-1.11-.532-.469-1.563-.61zm2.813-4.375q-.016.984-.719 1.547-.719.547-1.813.468l-.218-.03q-.782-.079-1.422-.454-.656-.39-.985-.937-.328-.563-.312-1.204.016-.812.547-1.265.515-.469 1.406-.516.313-.015.64.016l.391.062v3.453q.72.079 1.235-.234.5-.328.515-.984.016-.782-.703-1.438l.438-.515q.468.343.75.875.265.515.25 1.156zm-4.735-.563q-.015.547.375.953.375.407 1.141.657v-2.578l-.078-.016q-.61-.078-1.016.203-.406.266-.422.781zm4.735-4.437q-.016.984-.719 1.547-.719.547-1.813.468l-.218-.03q-.782-.079-1.422-.454-.656-.39-.985-.937-.328-.563-.312-1.204.016-.812.547-1.265.515-.469 1.406-.516.313-.015.64.016l.391.062v3.453q.72.079 1.235-.234.5-.328.515-.984.016-.782-.703-1.438l.438-.515q.468.343.75.875.265.515.25 1.156zm-4.735-.563q-.015.547.375.953.375.407 1.141.657v-2.578l-.078-.016q-.61-.078-1.016.203-.406.266-.422.781zm1.985-2.406q-.797-.094-1.438-.437-.656-.36-.984-.86-.328-.515-.313-1.125.032-.875.657-1.36l-2.766-.5v-.89l7.5 1.313v.797l-.563-.094q.688.625.657 1.547-.016.734-.563 1.172-.562.421-1.5.468-.281.016-.687-.03zm.515-.844q.688.016 1.078-.25.391-.265.391-.78.047-.767-.766-1.36l-2.437-.422q-.719.297-.75 1.062-.016.532.328.938.328.39.922.594.594.203 1.234.218zm-.515-7.187v2.312l-.735-.125v-2.328l.735.14zm2.14-4.063q.641.61.61 1.578-.016.75-.532 1.125-.53.36-1.437.266l-3.406-.578v-.875l3.422.562q.218.032.421.016.36-.031.563-.203.187-.188.203-.531.031-.938-.766-1.453l-3.843-.672v-.875l5.281.906v.844zm-2.109-6.437q.812.094 1.469.437.64.328.968.828.313.5.297 1.11-.03.922-.625 1.406l2.547.469v.89l-7.312-1.265v-.813l.578.11q-.703-.657-.672-1.578.016-.766.562-1.188.532-.422 1.485-.437.312-.016.61.015zm-.094.875-.406-.031q-.719 0-1.094.28-.375.266-.406.782-.016.766.734 1.313l2.532.453q.703-.297.718-1.078.016-.657-.515-1.11-.532-.469-1.563-.61zm2.078-6.328q.016-.469-.265-.844-.297-.39-.75-.5l-.016-.844q.5.078.922.406.406.329.64.829.22.484.204 1 0 .656-.328 1.125-.344.453-.938.671-.61.204-1.36.141l-.234-.031q-.765-.094-1.359-.438-.61-.359-.938-.922-.343-.562-.312-1.25.016-.828.562-1.328.532-.5 1.344-.5v.828q-.515.016-.828.297-.328.266-.344.735-.015.703.516 1.156.516.453 1.469.562l.125.016q.312.031.64.016.578-.032.907-.313.328-.297.343-.812zm-4.734-5.703q0-.657.36-1.125.343-.485.968-.704.61-.234 1.344-.156l.11.016q.765.094 1.39.453.625.36.984.953.344.578.313 1.266 0 .656-.344 1.14-.36.47-.969.688-.61.219-1.328.156-.828-.062-1.484-.437-.657-.375-1.016-.954-.36-.593-.328-1.296zm2.828 1.796q.313.047.64 0 .579-.046.923-.328.328-.297.343-.797.016-.437-.203-.812-.234-.375-.703-.625t-1.047-.328q-.453-.031-.75-.016-.594.063-.937.36-.344.296-.36.796-.015.672.532 1.157.546.484 1.453.593h.11zm-2.734-6.593.578.11q-.703-.673-.672-1.61 0-.5.219-.844.218-.36.625-.484-.875-.75-.844-1.75.016-.797.531-1.172.5-.375 1.375-.282l3.469.579v.89l-3.484-.578q-.25-.031-.47 0-.655.094-.671.86-.016.484.297.89.312.39.812.5l3.516.594v.89l-3.484-.578q-.532-.078-.829.157-.296.234-.296.703-.032.828.75 1.312l3.859.672v.89l-5.281-.921zm2.656-12.047q.812.094 1.469.437.64.328.968.828.313.5.297 1.11-.03.922-.625 1.406l2.547.469v.89l-7.312-1.265v-.813l.578.11q-.703-.657-.672-1.578.016-.766.562-1.188.532-.422 1.485-.437.312-.016.61.015zm-.094.875-.406-.031q-.719 0-1.094.28-.375.266-.406.782-.016.766.734 1.313l2.532.453q.703-.297.718-1.078.016-.657-.515-1.11-.532-.469-1.563-.61zm2.719-5.328q-.14.047-.281.047l-.282-.016q.688.719.657 1.531 0 .703-.438 1.14-.437.438-1.078.407-.844-.062-1.312-.734-.47-.688-.47-1.813v-.922l-.421-.062q-.469-.047-.75.187-.281.235-.281.688-.016.469.218.812.235.344.61.422l.015.89q-.468-.046-.828-.359-.359-.312-.547-.812-.203-.5-.203-1.031.032-.828.516-1.282.469-.468 1.266-.39l2.625.422.375.031q.265.016.53-.063l.079.016v.89zm-.688 1.39q.016-.422-.187-.797-.219-.375-.594-.656l-1.094-.187v.672q0 .828.266 1.28.25.438.734.5.375.048.625-.171.25-.219.25-.64zm-3.796-6.437-.032.422q0 .843.766 1.328l3.75.656v.875l-5.281-.906v-.86l.61.125q-.735-.562-.72-1.312 0-.172.078-.422zm4.578-2q-.016.984-.719 1.547-.719.547-1.813.468l-.218-.03q-.782-.079-1.422-.454-.656-.39-.985-.937-.328-.563-.312-1.204.016-.812.547-1.265.515-.469 1.406-.516.313-.015.64.016l.391.062v3.453q.72.079 1.235-.234.5-.328.515-.984.016-.782-.703-1.438l.438-.515q.468.343.75.875.265.515.25 1.156zm-4.735-.563q-.015.547.375.953.375.407 1.141.657v-2.578l-.078-.016q-.61-.078-1.016.203-.406.266-.422.781zm1.985-2.406q-.797-.094-1.438-.437-.656-.36-.984-.86-.328-.515-.313-1.125.032-.875.657-1.36l-2.766-.5v-.89l7.5 1.313v.797l-.563-.094q.688.625.657 1.547-.016.734-.563 1.172-.562.421-1.5.468-.281.016-.687-.03zm.515-.844q.688.016 1.078-.25.391-.265.391-.78.047-.767-.766-1.36l-2.437-.422q-.719.297-.75 1.062-.016.532.328.938.328.39.922.594.594.203 1.234.218zm-4.422-9.234 1.282.219v-.953l.703.125v.953l3.281.547q.125.015.234 0 .375-.032.375-.407 0-.156-.046-.437l.734.078q.094.312.094.64-.016.532-.39.797-.376.25-1.017.204l-3.265-.547v.937l-.703-.125v-.922l-1.282-.234zm1.188-3.61q0-.656.36-1.124.343-.485.968-.704.61-.234 1.344-.156l.11.016q.765.094 1.39.453.625.36.984.953.344.578.313 1.266 0 .656-.344 1.14-.36.47-.969.688-.61.219-1.328.156-.828-.062-1.484-.437-.657-.375-1.016-.954-.36-.593-.328-1.296zm2.828 1.797q.313.047.64 0 .579-.046.923-.328.328-.297.343-.797.016-.437-.203-.812-.234-.375-.703-.625t-1.047-.328q-.453-.031-.75-.016-.594.063-.937.36-.344.296-.36.796-.015.672.532 1.157.546.484 1.453.593h.11zm1.297-9.5-5.86-2.89v-1.031l7.11 3.671v.814l-7.11 1.437v-.968l5.86-1.032zm-4.047-8.406q.531.047.969.39.422.329.687.907.266-.453.72-.672.437-.234.952-.187.953.062 1.531.765.563.703.532 1.688-.016.922-.563 1.469-.562.53-1.406.453-.61-.047-1.063-.422-.468-.39-.75-1.031-.265.375-.656.562-.406.188-.86.14-.905-.062-1.468-.702-.562-.641-.531-1.579.015-.843.547-1.343.531-.5 1.36-.438zm3.313 1.313q-.547-.063-.907.234-.375.281-.406.844 0 .61.39 1.047.391.422 1.016.484.563.063.907-.234.343-.297.343-.844.032-.61-.343-1.031-.391-.438-1-.5zm-3.297-.422q-.5-.047-.828.219-.344.25-.36.718-.015.547.344.922.36.375.922.438.515.062.844-.203.328-.266.328-.735.015-.531-.328-.906-.36-.39-.922-.453zm4.047-5.766-4.047-1.89v-.938l5.281 2.656v.672l-5.281 1.047v-.875zm-5.891-7.578.766.078v.156q.03.985.625 1.688.578.687 1.718 1.062-.672-.656-.64-1.546 0-.563.312-.954.297-.406.828-.593.516-.203 1.157-.14 1.078.093 1.78.78.704.672.673 1.657-.016.796-.578 1.312-.563.5-1.5.563-.516.046-1.391-.11-1.828-.344-2.781-1.328-.969-1-.969-2.531zm3.203 1.625q0 .469.281.89.282.407.72.641l.327.032.39.015q.407 0 .782-.125.375-.125.578-.36.188-.25.188-.562.031-.593-.422-1.015-.469-.422-1.235-.516-.437-.047-.796.063-.375.093-.579.343-.218.235-.234.594zm2.89-3.766q0-.25.157-.406.14-.156.39-.14.235 0 .391.156.14.156.14.39.016.235-.124.391-.14.14-.375.14-.25 0-.406-.14-.157-.156-.172-.39zm-1.359-6.39v-.953l.735.125v.953l1.656.297v.89l-1.656-.297v3.141l-.578-.094-4.875-3.906v-.969zm0 3v-2.11l-3.5-.64.22.14zm-.468-7.469q-1.141-.156-2.204-.594-1.078-.437-1.828-1.062-.75-.64-1.14-1.422l.61-.14q.577.78 1.5 1.327.905.547 2.187.844 1.265.297 2.484.281 1.016 0 1.781-.25.766-.265 1.219-.765l.547.219q-.563.828-1.672 1.265-1.11.422-2.547.375-.469 0-.89-.062zm-1.782-4.14q-.75-.704-.734-1.61.016-.734.516-1.094.5-.359 1.39-.265l3.469.578v.875l-3.484-.578q-.235-.032-.438 0-.687.078-.703.797-.016.812.86 1.406l3.765.656v.875l-7.5-1.297v-.89l2.86.546zm4.641-4.313v.875l-5.281-.906v-.89zm-7.219-.734q0-.22.14-.36.141-.156.376-.156.234 0 .39.156.141.14.157.375 0 .219-.14.375-.142.14-.376.14-.234-.015-.375-.155-.156-.141-.172-.375zm4.563-.563q-.86-.125-1.5-.469-.64-.343-.938-.843-.312-.516-.297-1.11.032-.906.703-1.375l-.593-.187v-.813l5.172.89q1.015.141 1.609.829.61.672.578 1.656 0 .547-.25 1.047-.234.484-.672.766l-.531-.5q.703-.485.719-1.266.031-.64-.344-1.078-.375-.438-1.063-.578l-.468-.094q.656.64.625 1.516-.016.484-.266.86-.25.358-.719.562-.484.187-1.062.218-.297 0-.703-.03zm.5-.86q.703.016 1.093-.234.375-.265.391-.78.031-.798-.766-1.36l-2.437-.422q-.719.297-.75 1.062-.016.72.594 1.188.61.453 1.64.531l.235.016zm-2.485-6.53q-.75-.704-.734-1.61.016-.734.516-1.094.5-.359 1.39-.265l3.469.578v.875l-3.484-.578q-.235-.032-.438 0-.687.078-.703.797-.016.812.86 1.406l3.765.656v.875l-7.5-1.297v-.89l2.86.546zm4.735-5.641q-.016.984-.719 1.547-.719.547-1.813.468l-.218-.03q-.782-.079-1.422-.454-.656-.39-.985-.937-.328-.563-.312-1.204.016-.812.547-1.265.515-.469 1.406-.516.313-.015.64.016l.391.062v3.453q.72.079 1.235-.234.5-.328.515-.984.016-.782-.703-1.438l.438-.515q.468.343.75.875.265.515.25 1.156zm-4.735-.563q-.015.547.375.953.375.407 1.141.657v-2.578l-.078-.016q-.61-.078-1.016.203-.406.266-.422.781zm.157-5.437-.032.422q0 .843.766 1.328l3.75.656v.875l-5.281-.906v-.86l.61.125q-.735-.562-.72-1.312 0-.172.078-.422zm4.484-2.672v.875l-5.281-.906v-.89zm-7.219-.734q0-.22.14-.36.141-.156.376-.156.234 0 .39.156.141.14.157.375 0 .219-.14.375-.142.14-.376.14-.234-.015-.375-.155-.156-.141-.172-.375zm5.781-3.579q-.546-.078-.765.594l-.266.922q-.406 1.156-1.328 1.125-.703-.031-1.14-.625-.454-.61-.438-1.437 0-.797.469-1.297.453-.5 1.187-.485l-.015.891q-.391-.016-.641.25-.25.25-.266.687 0 .454.235.782.218.312.578.36.453.062.656-.563l.125-.438q.234-.906.61-1.281.374-.39.937-.36.5.032.86.329.359.28.562.78.187.485.172 1.032 0 .844-.485 1.39-.484.548-1.234.516v-.875q.437 0 .719-.28.265-.282.265-.782 0-.485-.203-.828-.219-.36-.594-.407zm-1.187-8.53q.812.109 1.469.452.64.344.968.844.313.484.297 1.094-.03.953-.718 1.422l.609.172v.812l-7.5-1.297v-.89l2.797.53q-.703-.624-.672-1.53.016-.766.562-1.188.532-.437 1.485-.453.312 0 .61.031h.093zm-.5.843q-.719-.016-1.094.25-.375.25-.406.766-.016.828.828 1.406l2.313.39q.796-.296.812-1.093.031-.532-.297-.907-.328-.39-.906-.593-.594-.203-1.25-.219zm3.219-4.328q-.016.984-.719 1.547-.719.547-1.813.468l-.218-.03q-.782-.079-1.422-.454-.656-.39-.985-.937-.328-.563-.312-1.204.016-.812.547-1.265.515-.469 1.406-.516.313-.015.64.016l.391.062v3.453q.72.079 1.235-.234.5-.328.515-.984.016-.782-.703-1.438l.438-.515q.468.343.75.875.265.515.25 1.156zm-4.735-.563q-.015.547.375.953.375.407 1.141.657v-2.578l-.078-.016q-.61-.078-1.016.203-.406.266-.422.781zm-1.922-4.484 1.282.219v-.953l.703.125v.953l3.281.547q.125.015.234 0 .375-.032.375-.407 0-.156-.046-.437l.734.078q.094.312.094.64-.016.532-.39.797-.376.25-1.017.204l-3.265-.547v.937l-.703-.125v-.922l-1.282-.234zm0-3 1.282.219v-.953l.703.125v.953l3.281.547q.125.015.234 0 .375-.032.375-.407 0-.156-.046-.437l.734.078q.094.312.094.64-.016.532-.39.797-.376.25-1.017.204l-3.265-.547v.937l-.703-.125v-.922l-1.282-.234zm6.657-2.953q-.016.984-.719 1.547-.719.547-1.813.468l-.218-.03q-.782-.079-1.422-.454-.656-.39-.985-.937-.328-.563-.312-1.204.016-.812.547-1.265.515-.469 1.406-.516.313-.015.64.016l.391.062v3.453q.72.079 1.235-.234.5-.328.515-.984.016-.782-.703-1.438l.438-.515q.468.343.75.875.265.515.25 1.156zm-4.735-.563q-.015.547.375.953.375.407 1.141.657v-2.578l-.078-.016q-.61-.078-1.016.203-.406.266-.422.781zm.157-5.437-.032.422q0 .843.766 1.328l3.75.656v.875l-5.281-.906v-.86l.61.125q-.735-.562-.72-1.312 0-.172.078-.422zm1.625-2.235q1.187.172 2.25.625 1.062.438 1.796 1.079.735.625 1.11 1.39l-.563.125q-1.25-1.672-4.047-2.234-1.125-.219-2.156-.219-2.094.031-3 1.016l-.547-.219q.375-.547 1.016-.922.625-.39 1.469-.562.828-.188 1.734-.157.469.016.89.063zm32.906 289.208q0 1.578-.547 2.36-.531.765-1.688.765-1.14 0-1.687-.75-.547-.75-.563-2.25v-1.203q0-1.578.532-2.328.547-.766 1.703-.766 1.156 0 1.687.734.547.735.563 2.266zm-.906-1.235q0-1.156-.328-1.671-.313-.532-1.016-.532-.688 0-1.016.531-.312.516-.312 1.594v1.453q0 1.157.328 1.704.344.546 1.016.546.671 0 .984-.515.328-.516.344-1.625zm2.297 2.657 1.609-1.641-1.61-1.64.594-.594 1.594 1.64 1.61-1.64.578.593-1.594 1.641 1.61 1.64-.579.61-1.625-1.656-1.61 1.656-.578-.61zm-8.875-95.049h-.907v-6.016l-1.828.656v-.812l2.594-.969h.14v7.14zm7.484-3.032q0 1.579-.547 2.36-.531.765-1.688.765-1.14 0-1.687-.75-.547-.75-.563-2.25v-1.203q0-1.578.532-2.328.547-.765 1.703-.765 1.156 0 1.687.734.547.734.563 2.266zm-.906-1.234q0-1.156-.328-1.672-.313-.531-1.016-.531-.688 0-1.016.531-.312.516-.312 1.594v1.453q0 1.156.328 1.703.344.547 1.016.547.671 0 .984-.516.328-.515.344-1.625zm2.297 2.656 1.609-1.64-1.61-1.641.594-.594 1.594 1.64 1.61-1.64.578.594-1.594 1.64 1.61 1.641-.579.61-1.625-1.657-1.61 1.657-.578-.61zm-7.188-95.049h-4.656v-.656l2.453-2.734q.547-.61.75-1 .219-.39.219-.813 0-.547-.344-.906-.328-.36-.89-.36-.673 0-1.048.391-.375.375-.375 1.063h-.906q0-.985.625-1.578.64-.61 1.703-.61.985 0 1.563.516.578.515.578 1.39 0 1.047-1.344 2.5l-1.89 2.063h3.562zm5.797-3.03q0 1.577-.547 2.358-.531.766-1.688.766-1.14 0-1.687-.75-.547-.75-.563-2.25v-1.203q0-1.578.532-2.328.547-.766 1.703-.766 1.156 0 1.687.735.547.734.563 2.265v1.172zm-.906-1.235q0-1.157-.328-1.672-.313-.531-1.016-.531-.688 0-1.016.53-.312.516-.312 1.595v1.453q0 1.156.328 1.703.344.547 1.016.547.671 0 .984-.516.328-.516.344-1.625zm2.297 2.656 1.609-1.64-1.61-1.641.594-.594 1.594 1.64 1.61-1.64.578.594-1.594 1.64 1.61 1.641-.579.61-1.625-1.657-1.61 1.656-.578-.609zm-10.532-99.049h.672q.64 0 1-.328.375-.328.375-.89 0-1.25-1.25-1.25-.578 0-.937.343-.344.328-.344.875h-.906q0-.844.625-1.39.625-.563 1.562-.563 1.016 0 1.578.531.578.531.578 1.469 0 .469-.296.906-.297.438-.829.656.594.172.907.61.328.422.328 1.047 0 .953-.625 1.515-.625.563-1.625.563t-1.64-.532q-.626-.546-.626-1.437h.922q0 .563.36.906.359.328.984.328.656 0 1-.343.344-.344.344-.985 0-.61-.391-.937-.375-.344-1.094-.344h-.672zm9.14.969q0 1.578-.546 2.36-.531.765-1.688.765-1.14 0-1.687-.75-.547-.75-.563-2.25v-1.203q0-1.579.532-2.329.547-.765 1.703-.765 1.156 0 1.687.734.547.735.563 2.266v1.172zm-.905-1.235q0-1.156-.328-1.672-.313-.53-1.016-.53-.688 0-1.016.53-.312.516-.312 1.594v1.453q0 1.157.328 1.703.344.547 1.016.547.671 0 .984-.515.328-.516.344-1.625zm2.297 2.657 1.609-1.641-1.61-1.64.594-.594 1.594 1.64 1.61-1.64.578.593-1.594 1.641 1.61 1.64-.579.61-1.625-1.656-1.61 1.656-.578-.61zm-8.032-97.44h.985v.734h-.985v1.657h-.906v-1.657h-3.234v-.53l3.172-4.923h.968zm-3.125 0h2.219v-3.484l-.11.203zm9.766-.64q0 1.578-.547 2.359-.531.765-1.688.765-1.14 0-1.687-.75-.547-.75-.563-2.25v-1.203q0-1.578.532-2.328.547-.765 1.703-.765 1.156 0 1.687.734.547.734.563 2.266v1.171zm-.907-1.236q0-1.156-.328-1.672-.313-.531-1.016-.531-.688 0-1.016.531-.312.516-.312 1.594v1.453q0 1.156.328 1.703.344.547 1.016.547.671 0 .984-.516.328-.515.344-1.625zm2.297 2.656 1.609-1.64-1.61-1.641.594-.594 1.594 1.64 1.61-1.64.578.594-1.594 1.64 1.61 1.641-.579.61-1.625-1.657-1.61 1.657-.578-.61z" fill="#b7b7b7"/><path d="m115.587 466.425q-1.297 0-2.11-.844-.796-.86-.796-2.281v-.188q0-.953.359-1.687.36-.75 1-1.156.656-.422 1.406-.422 1.235 0 1.922.812.688.813.688 2.329v.453h-4.297q.03.937.547 1.515.53.578 1.343.578.563 0 .953-.234.407-.234.72-.625l.655.516q-.796 1.234-2.39 1.234zm-.14-5.688q-.657 0-1.11.485-.438.469-.531 1.328h3.171v-.078q-.046-.828-.453-1.281-.39-.453-1.078-.453zm5.593 4.094 1.578-4.875h1.11l-2.282 6.344h-.828l-2.297-6.344h1.11zm6.547 1.594q-1.297 0-2.11-.844-.796-.86-.796-2.281v-.188q0-.953.359-1.687.36-.75 1-1.156.656-.422 1.406-.422 1.235 0 1.922.812.688.813.688 2.329v.453h-4.297q.03.937.547 1.515.53.578 1.343.578.563 0 .953-.234.407-.234.72-.625l.655.516q-.796 1.234-2.39 1.234zm-.14-5.688q-.657 0-1.11.485-.438.469-.531 1.328h3.171v-.078q-.046-.828-.453-1.281-.39-.453-1.078-.453zm6.577.188q-.25-.031-.53-.031-1.079 0-1.454.906v4.5h-1.078v-6.344h1.047l.015.735q.532-.844 1.516-.844.312 0 .484.078zm3 3.781 1.485-4.75h1.156l-2.547 7.328q-.594 1.579-1.875 1.579l-.219-.016-.39-.078v-.875l.281.015q.562 0 .86-.218.312-.22.515-.813l.234-.656-2.265-6.266h1.187zm53.342-.093q0-.438-.344-.672-.328-.25-1.156-.422-.813-.172-1.297-.422t-.719-.578q-.218-.344-.218-.813 0-.781.656-1.312.656-.547 1.687-.547 1.078 0 1.735.562.672.547.672 1.407h-1.079q0-.438-.39-.75-.375-.328-.938-.328-.593 0-.937.265-.328.25-.328.656 0 .391.312.594.313.203 1.125.39.813.173 1.313.423t.734.609q.25.36.25.86 0 .859-.687 1.374-.672.516-1.75.516-.766 0-1.36-.266-.578-.28-.906-.765-.328-.485-.328-1.047h1.078q.031.547.437.875.407.312 1.079.312.609 0 .984-.25t.375-.671zm2.016-1.547q0-.922.359-1.672.375-.75 1.031-1.14.656-.407 1.485-.407 1.296 0 2.093.89.813.891.813 2.391v.078q0 .922-.36 1.656-.359.735-1.015 1.157-.656.406-1.516.406-1.281 0-2.094-.89-.796-.907-.796-2.391zm1.093.14q0 1.047.485 1.688.5.64 1.312.64.828 0 1.313-.64.484-.656.484-1.828 0-1.032-.5-1.672-.484-.656-1.312-.656-.797 0-1.297.64-.485.625-.485 1.828zm7.219-3.25.031.703q.688-.812 1.875-.812 1.328 0 1.813 1.016.312-.454.812-.735.516-.281 1.203-.281 2.094 0 2.125 2.203v4.25h-1.078v-4.188q0-.671-.312-1-.313-.343-1.047-.343-.61 0-1.016.36-.39.358-.453.968v4.203h-1.078v-4.156q0-1.375-1.36-1.375-1.062 0-1.452.906v4.625h-1.094v-6.344zm12.61 6.469q-1.297 0-2.11-.844-.797-.86-.797-2.281v-.188q0-.953.36-1.687.359-.75 1-1.156.656-.422 1.406-.422 1.234 0 1.922.812.687.813.687 2.329v.453h-4.297q.032.937.547 1.515.531.578 1.344.578.562 0 .953-.234.406-.234.719-.625l.656.516q-.797 1.234-2.39 1.234zm-.141-5.688q-.656 0-1.11.485-.437.469-.53 1.328h3.171v-.078q-.047-.828-.453-1.281-.39-.453-1.078-.453zm51.747-.781.032.703q.687-.812 1.875-.812 1.328 0 1.812 1.016.313-.454.813-.735.515-.281 1.203-.281 2.094 0 2.125 2.203v4.25h-1.078v-4.188q0-.671-.313-1-.312-.343-1.047-.343-.609 0-1.015.36-.39.358-.453.968v4.203h-1.078v-4.156q0-1.375-1.36-1.375-1.062 0-1.453.906v4.625h-1.094v-6.344h1.032zm13.891 6.344q-.094-.188-.156-.672-.75.797-1.797.797-.937 0-1.547-.531-.594-.531-.594-1.36 0-.984.75-1.53.75-.548 2.125-.548h1.047v-.5q0-.562-.343-.89-.329-.344-1-.344-.579 0-.97.297-.39.281-.39.703h-1.094q0-.484.329-.922.343-.438.921-.688.579-.265 1.266-.265 1.11 0 1.719.547.625.547.656 1.5v2.922q0 .875.219 1.39v.094h-1.14zm-1.797-.828q.516 0 .97-.266.452-.265.655-.687v-1.297h-.843q-2 0-2 1.172 0 .5.343.797.344.28.875.28zm10.235-2.266q0 1.438-.657 2.328-.656.891-1.796.891-1.157 0-1.813-.734v3.047h-1.078v-8.782h.984l.047.703q.672-.812 1.844-.812 1.14 0 1.797.86.672.859.672 2.39v.11zm-1.078-.125q0-1.078-.47-1.687-.452-.625-1.25-.625-.984 0-1.468.86v3.03q.484.875 1.484.875.782 0 1.235-.609.469-.625.469-1.844zm53.482 3.219v-5.5h-1v-.844h1v-.64q0-1.032.531-1.578.547-.563 1.547-.563.375 0 .75.094l-.063.89q-.28-.062-.578-.062-.531 0-.828.312-.281.313-.281.875v.672h1.36v.844h-1.36v5.5zm4.64 0h-1.078v-6.344h1.078zm-1.171-8.016q0-.265.156-.453.172-.187.484-.187.313 0 .469.187.172.188.172.453 0 .25-.172.438-.156.172-.469.172-.312 0-.484-.172-.156-.188-.156-.438zm4.171 8.016h-1.078v-9h1.078zm3.297-7.875v1.531h1.172v.844h-1.172v3.922q0 .39.157.578.156.188.53.188.188 0 .516-.063v.875q-.421.125-.828.125-.718 0-1.093-.438-.375-.453-.375-1.265v-3.922h-1.157v-.844h1.157v-1.531zm5.157 8q-1.297 0-2.11-.844-.797-.86-.797-2.281v-.188q0-.953.36-1.687.359-.75 1-1.156.656-.422 1.406-.422 1.234 0 1.922.812.687.813.687 2.329v.453h-4.297q.032.937.547 1.515.532.578 1.344.578.563 0 .953-.234.406-.234.719-.625l.656.516q-.797 1.234-2.39 1.234zm-.141-5.688q-.656 0-1.11.485-.437.469-.53 1.328h3.171v-.078q-.047-.828-.453-1.281-.39-.453-1.078-.453zm6.578.188q-.25-.031-.531-.031-1.078 0-1.453.906v4.5h-1.078v-6.344h1.046l.016.735q.531-.844 1.516-.844.312 0 .484.078zm43.186 5.375v-5.5h-1v-.844h1v-.64q0-1.032.53-1.578.548-.563 1.548-.563.375 0 .75.094l-.063.89q-.281-.062-.578-.062-.531 0-.828.312-.281.313-.281.875v.672h1.359v.844h-1.36v5.5h-1.078zm3.171-3.234q0-.922.36-1.672.375-.75 1.03-1.14.657-.407 1.485-.407 1.297 0 2.094.89.813.891.813 2.391v.078q0 .922-.36 1.656-.36.735-1.015 1.157-.657.406-1.516.406-1.281 0-2.094-.89-.797-.907-.797-2.391zm1.094.14q0 1.047.484 1.688.5.64 1.313.64.828 0 1.312-.64.485-.656.485-1.828 0-1.032-.5-1.672-.485-.656-1.313-.656-.797 0-1.297.64-.484.625-.484 1.828zm9.266-2.281q-.25-.031-.532-.031-1.078 0-1.453.906v4.5h-1.078v-6.344h1.047l.016.735q.53-.844 1.515-.844.313 0 .485.078zm5.921 1.438h-3.703v3.015h4.297v.922h-5.422v-8.531h5.375v.922h-4.25v2.75h3.704v.922zm5.922 3.937q-.093-.188-.156-.672-.75.797-1.797.797-.937 0-1.547-.531-.593-.531-.593-1.36 0-.984.75-1.53.75-.548 2.125-.548h1.046v-.5q0-.562-.343-.89-.328-.344-1-.344-.578 0-.969.297-.39.281-.39.703h-1.094q0-.484.328-.922.344-.438.922-.688.578-.265 1.265-.265 1.11 0 1.719.547.625.547.656 1.5v2.922q0 .875.219 1.39v.094h-1.14zm-1.796-.828q.515 0 .968-.266.453-.265.656-.687v-1.297h-.843q-2 0-2 1.172 0 .5.344.797.343.28.875.28zm7.421.062q.579 0 1.016-.343.438-.36.484-.891h1.032q-.032.547-.391 1.047-.344.484-.922.781-.562.297-1.219.297-1.296 0-2.062-.86-.75-.874-.75-2.374v-.188q0-.922.328-1.64.344-.72.969-1.11.64-.406 1.515-.406 1.063 0 1.766.64.719.625.766 1.657h-1.032q-.046-.625-.468-1.016-.422-.39-1.032-.39-.828 0-1.28.593-.454.594-.454 1.719v.203q0 1.094.453 1.688.453.593 1.281.593zm4.547-4.812q.719-.875 1.875-.875 2.016 0 2.031 2.266v4.187h-1.093v-4.203q0-.672-.313-1-.297-.328-.953-.328-.531 0-.937.281-.391.281-.61.734v4.516h-1.078v-9h1.078zm49.67 5.578v-5.5h-1v-.844h1v-.64q0-1.032.531-1.578.547-.563 1.547-.563.375 0 .75.094l-.062.89q-.282-.062-.579-.062-.53 0-.828.312-.28.313-.28.875v.672h1.358v.844h-1.359v5.5zm4.64 0h-1.078v-6.344h1.079v6.344zm-1.171-8.016q0-.265.156-.453.172-.187.484-.187.313 0 .47.187.171.188.171.453 0 .25-.172.438-.156.172-.469.172-.312 0-.484-.172-.156-.188-.156-.438zm4.015 1.672.032.797q.734-.906 1.906-.906 2.015 0 2.031 2.266v4.187h-1.094v-4.203q0-.672-.312-1-.297-.328-.953-.328-.532 0-.938.281-.39.281-.61.734v4.516h-1.077v-6.344zm5.72 3.125q0-1.469.687-2.344.687-.89 1.812-.89 1.11 0 1.766.75v-3.297h1.078v9h-1l-.047-.688q-.656.813-1.813.813-1.093 0-1.796-.906-.688-.906-.688-2.36v-.078zm1.077.125q0 1.078.438 1.688.453.61 1.234.61 1.031 0 1.516-.938v-2.907q-.485-.89-1.5-.89-.797 0-1.25.61-.438.608-.438 1.827zm45.936 3.094v-5.5h-1v-.844h1v-.64q0-1.032.53-1.578.548-.563 1.548-.563.375 0 .75.094l-.063.89q-.281-.062-.578-.062-.531 0-.828.312-.281.313-.281.875v.672h1.359v.844h-1.36v5.5zm4.64 0h-1.078v-6.344h1.078zm-1.172-8.016q0-.265.157-.453.171-.187.484-.187.312 0 .469.187.172.188.172.453 0 .25-.172.438-.157.172-.47.172-.312 0-.483-.172-.157-.188-.157-.438zm4.016 1.672.031.797q.735-.906 1.906-.906 2.016 0 2.032 2.266v4.187h-1.094v-4.203q0-.672-.313-1-.296-.328-.953-.328-.531 0-.937.281-.39.281-.61.734v4.516h-1.078v-6.344zm5.719 3.125q0-1.469.687-2.344.688-.89 1.813-.89 1.109 0 1.765.75v-3.297h1.078v9h-1l-.046-.688q-.657.813-1.813.813-1.094 0-1.797-.906-.687-.906-.687-2.36zm1.078.125q0 1.078.437 1.688.453.61 1.235.61 1.03 0 1.515-.938v-2.907q-.484-.89-1.5-.89-.797 0-1.25.61-.437.608-.437 1.827zm7.562 3.094h-1.125v-8.531h1.125zm2.64-6.344.032.797q.735-.906 1.906-.906 2.016 0 2.032 2.266v4.187h-1.094v-4.203q0-.672-.313-1-.296-.328-.953-.328-.531 0-.937.281-.39.281-.61.734v4.516h-1.078v-6.344h1.016zm5.72 3.125q0-1.469.687-2.344.688-.89 1.813-.89 1.109 0 1.765.75v-3.297h1.078v9h-1l-.046-.688q-.657.813-1.813.813-1.094 0-1.797-.906-.687-.906-.687-2.36zm1.078.125q0 1.078.437 1.688.453.61 1.235.61 1.03 0 1.515-.938v-2.907q-.484-.89-1.5-.89-.797 0-1.25.61-.437.608-.437 1.827zm8.812 3.219q-1.297 0-2.11-.844-.796-.86-.796-2.281v-.188q0-.953.36-1.687.359-.75 1-1.156.656-.422 1.406-.422 1.234 0 1.922.812.687.813.687 2.329v.453h-4.297q.031.937.547 1.515.531.578 1.344.578.562 0 .953-.234.406-.234.719-.625l.656.516q-.797 1.234-2.39 1.234zm-.14-5.688q-.657 0-1.11.485-.437.469-.531 1.328h3.172v-.078q-.047-.828-.453-1.281-.39-.453-1.078-.453zm5.64 1.532 1.407-2.313h1.265l-2.078 3.14 2.14 3.204h-1.25l-1.468-2.375-1.469 2.375h-1.265l2.14-3.203-2.062-3.14h1.25zm38.654-1.344q-.25-.031-.53-.031-1.079 0-1.454.906v4.5h-1.078v-6.344h1.047l.015.735q.532-.844 1.516-.844.312 0 .484.078zm3.563 5.5q-1.297 0-2.11-.844-.796-.86-.796-2.281v-.188q0-.953.359-1.687.36-.75 1-1.156.656-.422 1.406-.422 1.235 0 1.922.812.688.813.688 2.329v.453h-4.297q.031.937.547 1.515.53.578 1.343.578.563 0 .953-.234.407-.234.72-.625l.655.516q-.796 1.234-2.39 1.234zm-.14-5.688q-.657 0-1.11.485-.438.469-.531 1.328h3.171v-.078q-.046-.828-.453-1.281-.39-.453-1.078-.453zm3.25 2.344q0-1.469.687-2.344.687-.89 1.812-.89 1.11 0 1.766.75v-3.297h1.078v9h-1l-.047-.688q-.656.813-1.812.813-1.094 0-1.797-.906-.688-.906-.688-2.36v-.078zm1.077.125q0 1.078.438 1.688.453.61 1.234.61 1.031 0 1.516-.938v-2.907q-.485-.89-1.5-.89-.797 0-1.25.61-.438.608-.438 1.827zm10.094 2.469q-.625.75-1.86.75-1.015 0-1.546-.594-.531-.594-.531-1.75v-4.125h1.078v4.094q0 1.453 1.172 1.453 1.25 0 1.656-.937v-4.61h1.094v6.344h-1.032l-.03-.625zm5.625-.14q.578 0 1.016-.344.437-.36.484-.891h1.031q-.03.547-.39 1.047-.344.484-.922.781-.563.297-1.219.297-1.297 0-2.062-.86-.75-.874-.75-2.374v-.188q0-.922.328-1.64.343-.72.968-1.11.641-.406 1.516-.406 1.063 0 1.766.64.718.625.765 1.657h-1.03q-.048-.625-.47-1.016-.422-.39-1.03-.39-.829 0-1.282.593-.453.594-.453 1.719v.203q0 1.094.453 1.688.453.593 1.281.593zm6.094.89q-1.297 0-2.11-.844-.796-.86-.796-2.281v-.188q0-.953.359-1.687.36-.75 1-1.156.656-.422 1.406-.422 1.235 0 1.922.812.688.813.688 2.329v.453h-4.297q.031.937.547 1.515.53.578 1.343.578.563 0 .953-.234.407-.234.72-.625l.655.516q-.796 1.234-2.39 1.234zm-.14-5.688q-.657 0-1.11.485-.438.469-.531 1.328h3.171v-.078q-.046-.828-.453-1.281-.39-.453-1.078-.453zm31.294.188q-.25-.031-.531-.031-1.078 0-1.453.906v4.5h-1.079v-6.344h1.047l.016.735q.531-.844 1.516-.844.312 0 .484.078zm3.562 5.5q-1.296 0-2.109-.844-.797-.86-.797-2.281v-.188q0-.953.36-1.687.359-.75 1-1.156.656-.422 1.406-.422 1.234 0 1.922.812.687.813.687 2.329v.453h-4.297q.032.937.547 1.515.531.578 1.344.578.562 0 .953-.234.406-.234.719-.625l.656.516q-.797 1.234-2.39 1.234zm-.14-5.688q-.656 0-1.11.485-.437.469-.53 1.328h3.171v-.078q-.047-.828-.453-1.281-.39-.453-1.078-.453zm3.25 2.344q0-1.469.687-2.344.688-.89 1.813-.89 1.11 0 1.765.75v-3.297h1.079v9h-1l-.047-.688q-.657.813-1.813.813-1.094 0-1.797-.906-.687-.906-.687-2.36zm1.078.125q0 1.078.437 1.688.454.61 1.235.61 1.031 0 1.515-.938v-2.907q-.484-.89-1.5-.89-.796 0-1.25.61-.437.608-.437 1.827zm10.094 2.469q-.625.75-1.86.75-1.015 0-1.547-.594-.53-.594-.53-1.75v-4.125h1.077v4.094q0 1.453 1.172 1.453 1.25 0 1.656-.937v-4.61h1.094v6.344h-1.031zm5.625-.14q.578 0 1.015-.344.438-.36.485-.891h1.031q-.031.547-.39 1.047-.344.484-.923.781-.562.297-1.218.297-1.297 0-2.063-.86-.75-.874-.75-2.374v-.188q0-.922.328-1.64.344-.72.97-1.11.64-.406 1.515-.406 1.062 0 1.765.64.72.625.766 1.657h-1.031q-.047-.625-.469-1.016-.422-.39-1.031-.39-.828 0-1.282.593-.453.594-.453 1.719v.203q0 1.094.453 1.688.454.593 1.282.593zm6.093.89q-1.296 0-2.109-.844-.797-.86-.797-2.281v-.188q0-.953.36-1.687.359-.75 1-1.156.656-.422 1.406-.422 1.234 0 1.922.812.687.813.687 2.329v.453h-4.297q.032.937.547 1.515.531.578 1.344.578.562 0 .953-.234.406-.234.719-.625l.656.516q-.797 1.234-2.39 1.234zm-.14-5.688q-.656 0-1.11.485-.437.469-.53 1.328h3.171v-.078q-.047-.828-.453-1.281-.39-.453-1.078-.453zm6.812 2.11h-2.015v3.453h-1.125v-8.531h2.828q1.437 0 2.203.656.781.656.781 1.906 0 .797-.437 1.39-.422.595-1.188.892l2 3.609v.078h-1.203zm-2.015-.922h1.734q.844 0 1.328-.422.5-.437.5-1.172 0-.781-.469-1.203-.468-.422-1.359-.437h-1.734zm6.89 4.375h-1.078v-6.344h1.078zm-1.172-8.016q0-.265.157-.453.172-.187.484-.187.313 0 .469.187.172.188.172.453 0 .25-.172.438-.156.172-.469.172-.312 0-.484-.172-.157-.188-.157-.438zm2.735 4.797q0-1.484.687-2.36.688-.874 1.813-.874 1.156 0 1.812.812l.047-.703h1v6.188q0 1.234-.734 1.937-.735.719-1.953.719-.688 0-1.344-.297-.656-.297-1-.797l.562-.656q.688.86 1.704.86.78 0 1.218-.454.453-.437.453-1.25v-.547q-.656.766-1.78.766-1.11 0-1.798-.89-.687-.907-.687-2.454zm1.094.125q0 1.063.437 1.688.438.61 1.234.61 1.016 0 1.5-.938v-2.891q-.5-.906-1.5-.906-.78 0-1.234.61-.437.608-.437 1.827zm7.25-2.484q.718-.875 1.875-.875 2.015 0 2.03 2.266v4.187h-1.093v-4.203q0-.672-.312-1-.297-.328-.954-.328-.53 0-.937.281-.39.281-.61.734v4.516h-1.078v-9h1.079zm7.39-2.297v1.531h1.172v.844h-1.172v3.922q0 .39.156.578.157.188.532.188.187 0 .515-.063v.875q-.422.125-.828.125-.719 0-1.094-.438-.375-.453-.375-1.265v-3.922h-1.156v-.844h1.156v-1.531z" fill="#000"/><path d="m198.5 26.7a1 1 0 0 1 1-1h10a1 1 0 0 1 1 1v10a1 1 0 0 1 -1 1h-10a1 1 0 0 1 -1-1z" fill="#9fc5e8"/><path d="m224.156 32.856q0 1.328-.61 2.14-.593.813-1.64.813t-1.656-.671v2.796h-1v-8.046h.906l.047.64q.61-.75 1.688-.75 1.047 0 1.656.797.61.781.61 2.188v.093zm-.984-.11q0-.984-.422-1.546-.422-.578-1.156-.578-.89 0-1.344.797v2.781q.438.797 1.36.797.718 0 1.14-.563.422-.578.422-1.687zm5.672 2.954q-.094-.172-.14-.61-.704.72-1.657.72-.86 0-1.422-.485-.547-.484-.547-1.234 0-.907.688-1.407.703-.515 1.953-.515h.969v-.453q0-.516-.313-.829-.313-.312-.922-.312-.531 0-.89.281-.36.266-.36.64h-1q0-.437.313-.843.312-.406.828-.64.531-.235 1.172-.235 1 0 1.562.5.578.5.594 1.39v2.673q0 .797.203 1.265v.094zm-1.656-.75q.468 0 .89-.234.422-.25.61-.641v-1.188h-.782q-1.828 0-1.828 1.063 0 .469.313.734.312.266.797.266zm6.39.047q.531 0 .922-.313.406-.328.453-.812h.938q-.032.5-.344.953-.313.438-.844.719-.531.265-1.125.265-1.187 0-1.89-.796-.688-.797-.688-2.172v-.157q0-.859.313-1.515.312-.657.89-1.016.578-.375 1.375-.375.984 0 1.625.594.64.578.688 1.515h-.938q-.047-.562-.437-.921-.375-.375-.938-.375-.75 0-1.172.546-.422.547-.422 1.579v.187q0 1.016.407 1.563.422.53 1.187.53zm5.297-1.984-.625.64v2.047h-1v-8.25h1v4.984l.531-.64 1.813-1.907h1.203l-2.25 2.422 2.516 3.391h-1.157l-2.031-2.688zm6.781 2.796q-1.172 0-1.922-.765-.734-.781-.734-2.094v-.172q0-.875.328-1.547.328-.687.922-1.062.594-.39 1.297-.39 1.125 0 1.75.75.64.75.64 2.14v.406h-3.937q.016.86.484 1.39.485.532 1.235.532.531 0 .89-.219.36-.219.641-.562l.61.468q-.735 1.125-2.204 1.125zm-.11-5.218q-.608 0-1.015.437-.406.438-.5 1.235h2.906v-.079q-.046-.75-.421-1.171-.36-.422-.97-.422zm3.47 2.156q0-1.344.625-2.156.64-.813 1.656-.813 1.031 0 1.625.703v-3.031h1v8.25h-.922l-.047-.625q-.594.734-1.656.734-1.016 0-1.656-.828-.625-.828-.625-2.156zm.984.11q0 .984.406 1.546.422.563 1.14.563.938 0 1.376-.844v-2.672q-.453-.828-1.375-.828-.719 0-1.14.562-.407.563-.407 1.672zm9.328 2.843h-.984v-5.813h.984zm-1.078-7.36q0-.234.14-.39.157-.172.454-.172.297 0 .437.172.156.156.156.406 0 .235-.156.39-.14.157-.437.157t-.453-.156q-.141-.156-.141-.406zm3.938 1.547.03.735q.673-.844 1.75-.844 1.844 0 1.86 2.078v3.844h-1v-3.844q0-.625-.281-.922-.281-.312-.89-.312-.47 0-.844.265-.36.25-.563.672v4.141h-1v-5.813zm6.406-1.406v1.406h1.094v.766h-1.094v3.61q0 .343.14.53.157.173.5.173.172 0 .485-.078v.812q-.406.11-.766.11-.672 0-1.015-.407-.329-.406-.329-1.14v-3.61h-1.062v-.765h1.062v-1.408h.985zm5.062 7.328q-1.172 0-1.922-.765-.734-.781-.734-2.094v-.172q0-.875.328-1.547.328-.687.922-1.062.594-.39 1.297-.39 1.125 0 1.75.75.64.75.64 2.14v.406h-3.937q.016.86.484 1.39.485.532 1.235.532.531 0 .89-.219.36-.219.641-.562l.61.468q-.735 1.125-2.204 1.125zm-.11-5.218q-.608 0-1.015.437-.406.438-.5 1.235h2.906v-.079q-.046-.75-.421-1.171-.36-.422-.97-.422zm3.47 2.156q0-1.36.625-2.156.625-.813 1.671-.813 1.063 0 1.657.75l.047-.64h.906v5.671q0 1.125-.672 1.766-.656.656-1.797.656-.625 0-1.234-.265-.594-.266-.906-.735l.515-.593q.64.796 1.563.796.718 0 1.125-.421.406-.407.406-1.141v-.5q-.594.687-1.625.687-1.016 0-1.656-.812-.625-.828-.625-2.25zm1 .11q0 .984.406 1.546.406.563 1.125.563.937 0 1.375-.86v-2.656q-.453-.828-1.36-.828-.734 0-1.14.562-.406.563-.406 1.672zm7.64 2.952q-1.172 0-1.922-.765-.734-.781-.734-2.094v-.172q0-.875.328-1.547.328-.687.922-1.062.594-.39 1.297-.39 1.125 0 1.75.75.64.75.64 2.14v.406h-3.937q.016.86.484 1.39.485.532 1.235.532.531 0 .89-.219.36-.219.641-.562l.61.468q-.735 1.125-2.204 1.125zm-.11-5.218q-.608 0-1.015.437-.406.438-.5 1.235h2.906v-.079q-.046-.75-.421-1.171-.36-.422-.97-.422zm6.517.187q-.235-.031-.485-.031-.984 0-1.328.828v4.125h-1v-5.813h.969l.015.672q.485-.78 1.391-.78.281 0 .438.077zm7.78 4.922q-.093-.172-.14-.61-.703.72-1.656.72-.86 0-1.422-.485-.547-.484-.547-1.234 0-.907.688-1.407.703-.515 1.953-.515h.969v-.453q0-.516-.313-.829-.313-.312-.922-.312-.531 0-.89.281-.36.266-.36.64h-1q0-.437.313-.843.312-.406.828-.64.531-.235 1.172-.235 1 0 1.562.5.578.5.594 1.39v2.673q0 .797.203 1.265v.094h-1.031zm-1.656-.75q.47 0 .891-.234.422-.25.61-.641v-1.188h-.782q-1.828 0-1.828 1.063 0 .469.313.734.312.266.796.266zm6.875-4.172q-.234-.031-.484-.031-.984 0-1.328.828v4.125h-1v-5.813h.969l.015.672q.485-.78 1.391-.78.281 0 .438.077v.922zm4 0q-.234-.031-.484-.031-.984 0-1.328.828v4.125h-1v-5.813h.969l.015.672q.485-.78 1.391-.78.281 0 .438.077v.922zm4.782 4.922q-.094-.172-.14-.61-.704.72-1.657.72-.86 0-1.422-.485-.547-.484-.547-1.234 0-.907.688-1.407.703-.515 1.953-.515h.969v-.453q0-.516-.313-.829-.313-.312-.922-.312-.531 0-.89.281-.36.266-.36.64h-1q0-.437.313-.843.312-.406.828-.64.531-.235 1.172-.235 1 0 1.562.5.578.5.594 1.39v2.673q0 .797.203 1.265v.094zm-1.656-.75q.468 0 .89-.234.422-.25.61-.641v-1.188h-.782q-1.828 0-1.828 1.063 0 .469.313.734.312.266.796.266zm5.968-.703 1.344-4.36h1.078l-2.344 6.704q-.546 1.453-1.718 1.453l-.188-.016-.375-.062v-.813l.266.031q.5 0 .781-.218.281-.203.469-.735l.219-.593-2.063-5.75h1.078zm6.485-.094q0-.39-.313-.61-.297-.234-1.062-.39-.75-.172-1.188-.39-.437-.22-.656-.532-.219-.312-.219-.75 0-.719.61-1.203.609-.5 1.546-.5.985 0 1.594.516.625.5.625 1.297h-1q0-.407-.344-.704-.343-.296-.875-.296-.546 0-.859.25-.297.234-.297.609 0 .36.281.547.282.172 1.032.344t1.203.406q.469.219.687.547.219.328.219.797 0 .78-.625 1.25-.61.468-1.61.468-.702 0-1.234-.25-.531-.25-.844-.687-.296-.438-.296-.953h.984q.031.484.406.781.375.297.985.297.562 0 .906-.219.344-.234.344-.625z" fill="#666"/><path d="m342.5 26.7a1 1 0 0 1 1-1h10a1 1 0 0 1 1 1v10a1 1 0 0 1 -1 1h-10a1 1 0 0 1 -1-1z" fill="#3d85c6"/><path d="m368.156 32.856q0 1.328-.61 2.14-.593.813-1.64.813t-1.656-.671v2.796h-1v-8.046h.906l.047.64q.61-.75 1.688-.75 1.046 0 1.656.797.61.781.61 2.188v.093zm-.984-.11q0-.984-.422-1.546-.422-.578-1.156-.578-.89 0-1.344.797v2.781q.438.797 1.36.797.718 0 1.14-.563.422-.578.422-1.687zm5.672 2.954q-.094-.172-.14-.61-.704.72-1.657.72-.86 0-1.422-.485-.547-.484-.547-1.234 0-.907.688-1.407.703-.515 1.953-.515h.969v-.453q0-.516-.313-.829-.313-.312-.922-.312-.531 0-.89.281-.36.266-.36.64h-1q0-.437.313-.843.312-.406.828-.64.531-.235 1.172-.235 1 0 1.562.5.578.5.594 1.39v2.673q0 .797.203 1.265v.094zm-1.656-.75q.468 0 .89-.234.422-.25.61-.641v-1.188h-.782q-1.828 0-1.828 1.063 0 .469.313.734.312.266.796.266zm6.39.047q.531 0 .922-.313.406-.328.453-.812h.938q-.032.5-.344.953-.313.438-.844.719-.531.265-1.125.265-1.187 0-1.89-.796-.688-.797-.688-2.172v-.157q0-.859.313-1.515.312-.657.89-1.016.578-.375 1.375-.375.985 0 1.625.594.64.578.688 1.515h-.938q-.047-.562-.437-.921-.375-.375-.938-.375-.75 0-1.172.546-.422.547-.422 1.579v.187q0 1.016.407 1.563.421.53 1.187.53zm5.297-1.984-.625.64v2.047h-1v-8.25h1v4.984l.531-.64 1.813-1.907h1.203l-2.25 2.422 2.515 3.391h-1.156l-2.031-2.688zm6.781 2.796q-1.172 0-1.922-.765-.734-.781-.734-2.094v-.172q0-.875.328-1.547.328-.687.922-1.062.594-.39 1.297-.39 1.125 0 1.75.75.64.75.64 2.14v.406h-3.937q.016.86.484 1.39.485.532 1.235.532.531 0 .89-.219.36-.219.641-.562l.61.468q-.735 1.125-2.204 1.125zm-.11-5.218q-.608 0-1.015.437-.406.438-.5 1.235h2.906v-.079q-.046-.75-.421-1.171-.36-.422-.97-.422zm3.47 2.156q0-1.344.625-2.156.64-.813 1.656-.813 1.031 0 1.625.703v-3.031h1v8.25h-.922l-.047-.625q-.594.734-1.656.734-1.016 0-1.656-.828-.625-.828-.625-2.156zm.984.11q0 .984.406 1.546.422.563 1.14.563.938 0 1.376-.844v-2.672q-.453-.828-1.375-.828-.719 0-1.14.562-.407.563-.407 1.672zm8.016-.11q0-1.344.625-2.156.64-.813 1.656-.813 1.031 0 1.625.703v-3.031h1v8.25h-.922l-.047-.625q-.594.734-1.656.734-1.016 0-1.656-.828-.625-.828-.625-2.156zm.984.11q0 .984.406 1.546.422.563 1.14.563.938 0 1.376-.844v-2.672q-.453-.828-1.375-.828-.719 0-1.14.562-.407.563-.407 1.672zm4.984-.11q0-.86.329-1.531.343-.688.937-1.063.61-.375 1.375-.375 1.188 0 1.922.828.734.813.734 2.188v.062q0 .844-.328 1.532-.328.671-.937 1.046-.594.375-1.375.375-1.188 0-1.922-.812-.735-.828-.735-2.188zm1 .11q0 .968.454 1.562.453.578 1.203.578t1.187-.594q.453-.594.453-1.656 0-.969-.453-1.563-.453-.593-1.203-.593-.734 0-1.188.593-.453.578-.453 1.672zm8.86 2.265q-.578.687-1.703.687-.938 0-1.422-.53-.485-.548-.485-1.61v-3.781h.985v3.75q0 1.328 1.078 1.328 1.14 0 1.515-.844v-4.235h1v5.813h-.953zm7.328-2.266q0 1.328-.61 2.14-.609.813-1.64.813-1.11 0-1.703-.78l-.047.671h-.922v-8.25h1v3.078q.594-.75 1.656-.75 1.063 0 1.656.813.61.796.61 2.187zm-1-.11q0-1.015-.39-1.562-.391-.562-1.126-.562-.984 0-1.406.922v2.5q.453.922 1.422.922.719 0 1.11-.547.39-.563.39-1.672zm3.156 2.954h-.984v-8.25h.984zm4.328.11q-1.172 0-1.922-.766-.734-.781-.734-2.094v-.172q0-.875.328-1.547.328-.687.922-1.062.594-.39 1.297-.39 1.125 0 1.75.75.64.75.64 2.14v.406h-3.937q.016.86.484 1.39.485.532 1.235.532.531 0 .89-.219.36-.219.641-.562l.61.468q-.735 1.125-2.204 1.125zm-.11-5.22q-.608 0-1.015.438-.406.438-.5 1.235h2.906v-.079q-.046-.75-.421-1.171-.36-.422-.97-.422zm10.298 5.11q-.094-.172-.14-.61-.704.72-1.657.72-.86 0-1.422-.485-.547-.484-.547-1.234 0-.907.688-1.407.703-.515 1.953-.515h.969v-.453q0-.516-.313-.829-.313-.312-.922-.312-.531 0-.89.281-.36.266-.36.64h-1q0-.437.313-.843.312-.406.828-.64.531-.235 1.172-.235 1 0 1.562.5.578.5.594 1.39v2.673q0 .797.203 1.265v.094zm-1.656-.75q.468 0 .89-.234.422-.25.61-.641v-1.188h-.782q-1.828 0-1.828 1.063 0 .469.313.734.312.266.796.266zm6.875-4.172q-.235-.031-.485-.031-.984 0-1.328.828v4.125h-1v-5.813h.969l.015.672q.485-.78 1.391-.78.281 0 .438.077zm4 0q-.235-.031-.485-.031-.984 0-1.328.828v4.125h-1v-5.813h.969l.015.672q.485-.78 1.391-.78.281 0 .438.077zm4.78 4.922q-.093-.172-.14-.61-.703.72-1.656.72-.86 0-1.422-.485-.547-.484-.547-1.234 0-.907.688-1.407.703-.515 1.953-.515h.969v-.453q0-.516-.313-.829-.313-.312-.922-.312-.531 0-.89.281-.36.266-.36.64h-1q0-.437.313-.843.312-.406.828-.64.531-.235 1.172-.235 1 0 1.562.5.578.5.594 1.39v2.673q0 .797.203 1.265v.094h-1.031zm-1.656-.75q.47 0 .891-.234.422-.25.61-.641v-1.188h-.782q-1.828 0-1.828 1.063 0 .469.313.734.312.266.796.266zm5.97-.703 1.343-4.36h1.078l-2.344 6.704q-.546 1.453-1.718 1.453l-.188-.016-.375-.062v-.813l.266.031q.5 0 .781-.218.281-.203.469-.735l.219-.593-2.063-5.75h1.078l1.453 4.359zm6.484-.094q0-.39-.313-.61-.297-.234-1.062-.39-.75-.172-1.188-.39-.437-.22-.656-.532-.219-.312-.219-.75 0-.719.61-1.203.609-.5 1.546-.5.985 0 1.594.516.625.5.625 1.297h-1q0-.407-.344-.704-.343-.296-.875-.296-.546 0-.859.25-.297.234-.297.609 0 .36.281.547.282.172 1.032.344t1.203.406q.469.219.687.547.219.328.219.797 0 .78-.625 1.25-.61.468-1.61.468-.702 0-1.234-.25-.531-.25-.844-.687-.296-.438-.296-.953h.984q.031.484.406.781.375.297.985.297.562 0 .906-.219.344-.234.344-.625z" fill="#666"/><path d="m484.5 26.7a1 1 0 0 1 1-1h10a1 1 0 0 1 1 1v10a1 1 0 0 1 -1 1h-10a1 1 0 0 1 -1-1z" fill="#1c4587"/><path d="m506.25 30.59q.656-.812 1.719-.812 1.844 0 1.86 2.078v3.844h-1v-3.844q0-.625-.282-.922-.281-.312-.89-.312-.47 0-.844.265-.36.25-.563.672v4.141h-1v-8.25h1zm4.734 2.157q0-.86.329-1.531.343-.688.937-1.063.61-.375 1.375-.375 1.188 0 1.922.828.734.813.734 2.188v.062q0 .844-.328 1.532-.328.671-.937 1.046-.594.375-1.375.375-1.188 0-1.922-.812-.735-.828-.735-2.188zm1 .11q0 .968.454 1.562.453.578 1.203.578t1.187-.594q.453-.594.453-1.656 0-.969-.453-1.563-.453-.593-1.203-.593-.734 0-1.188.593-.453.578-.453 1.672zm6.344 2.843h-.984v-8.25h.984zm4.328.11q-1.172 0-1.922-.766-.734-.781-.734-2.094v-.172q0-.875.328-1.547.328-.687.922-1.062.594-.39 1.297-.39 1.125 0 1.75.75.64.75.64 2.14v.406h-3.937q.016.86.484 1.39.485.532 1.235.532.531 0 .89-.219.36-.219.641-.562l.61.468q-.735 1.125-2.204 1.125zm-.11-5.22q-.609 0-1.015.438-.406.438-.5 1.235h2.907v-.079q-.047-.75-.422-1.171-.36-.422-.97-.422zm5.61 3.657 1.344-4.36h1.078l-2.344 6.704q-.547 1.453-1.718 1.453l-.188-.016-.375-.062v-.813l.266.031q.5 0 .781-.218.281-.203.469-.735l.218-.593-2.062-5.75h1.078zm5.86-1.5q0-1.344.625-2.156.64-.813 1.656-.813 1.031 0 1.625.703v-3.031h1v8.25h-.922l-.047-.625q-.594.734-1.656.734-1.016 0-1.656-.828-.625-.828-.625-2.156zm.984.11q0 .984.406 1.546.422.563 1.14.563.938 0 1.376-.844v-2.672q-.453-.828-1.375-.828-.719 0-1.14.562-.407.563-.407 1.672zm4.984-.11q0-.86.328-1.531.344-.688.938-1.063.61-.375 1.375-.375 1.188 0 1.922.828.734.813.734 2.188v.062q0 .844-.328 1.532-.328.671-.937 1.046-.594.375-1.375.375-1.188 0-1.922-.812-.735-.828-.735-2.188zm1 .11q0 .968.453 1.562.454.578 1.204.578t1.187-.594q.453-.594.453-1.656 0-.969-.453-1.563-.453-.593-1.203-.593-.734 0-1.188.593-.453.578-.453 1.672zm8.86 2.265q-.578.687-1.703.687-.938 0-1.422-.53-.485-.548-.485-1.61v-3.781h.985v3.75q0 1.328 1.078 1.328 1.14 0 1.515-.844v-4.235h1v5.813h-.953zm7.328-2.266q0 1.328-.61 2.14-.609.813-1.64.813-1.11 0-1.703-.78l-.047.671h-.922v-8.25h1v3.078q.594-.75 1.656-.75 1.063 0 1.657.813.609.796.609 2.187zm-1-.11q0-1.015-.39-1.562-.391-.562-1.126-.562-.984 0-1.406.922v2.5q.453.922 1.422.922.719 0 1.11-.547.39-.563.39-1.672zm3.156 2.954h-.984v-8.25h.984zm4.328.11q-1.172 0-1.922-.766-.734-.781-.734-2.094v-.172q0-.875.328-1.547.328-.687.922-1.062.594-.39 1.297-.39 1.125 0 1.75.75.64.75.64 2.14v.406h-3.937q.016.86.484 1.39.485.532 1.235.532.531 0 .89-.219.36-.219.641-.562l.61.468q-.735 1.125-2.204 1.125zm-.11-5.22q-.609 0-1.015.438-.406.438-.5 1.235h2.907v-.079q-.047-.75-.422-1.171-.36-.422-.97-.422zm10.298 5.11q-.094-.172-.14-.61-.704.72-1.657.72-.86 0-1.422-.485-.547-.484-.547-1.234 0-.907.688-1.407.703-.515 1.953-.515h.968v-.453q0-.516-.312-.829-.313-.312-.922-.312-.531 0-.89.281-.36.266-.36.64h-1q0-.437.313-.843.312-.406.828-.64.531-.235 1.172-.235 1 0 1.562.5.578.5.594 1.39v2.673q0 .797.203 1.265v.094zm-1.657-.75q.47 0 .891-.234.422-.25.61-.641v-1.188h-.782q-1.828 0-1.828 1.063 0 .469.313.734.312.266.797.266zm6.875-4.172q-.234-.031-.484-.031-.984 0-1.328.828v4.125h-1v-5.813h.969l.015.672q.485-.78 1.391-.78.281 0 .438.077v.922zm4 0q-.234-.031-.484-.031-.984 0-1.328.828v4.125h-1v-5.813h.969l.015.672q.485-.78 1.391-.78.281 0 .438.077v.922zm4.782 4.922q-.094-.172-.14-.61-.704.72-1.657.72-.86 0-1.422-.485-.547-.484-.547-1.234 0-.907.688-1.407.703-.515 1.953-.515h.968v-.453q0-.516-.312-.829-.313-.312-.922-.312-.531 0-.89.281-.36.266-.36.64h-1q0-.437.313-.843.312-.406.828-.64.531-.235 1.172-.235 1 0 1.562.5.578.5.594 1.39v2.673q0 .797.203 1.265v.094zm-1.657-.75q.47 0 .891-.234.422-.25.61-.641v-1.188h-.782q-1.828 0-1.828 1.063 0 .469.313.734.312.266.797.266zm5.97-.703 1.343-4.36h1.078l-2.344 6.704q-.547 1.453-1.718 1.453l-.188-.016-.375-.062v-.813l.266.031q.5 0 .781-.218.281-.203.469-.735l.218-.593-2.062-5.75h1.078l1.453 4.359zm6.484-.094q0-.39-.313-.61-.297-.234-1.062-.39-.75-.172-1.188-.39-.437-.22-.656-.532-.219-.312-.219-.75 0-.719.61-1.203.609-.5 1.546-.5.985 0 1.594.516.625.5.625 1.297h-1q0-.407-.344-.704-.343-.296-.875-.296-.547 0-.859.25-.297.234-.297.609 0 .36.281.547.282.172 1.032.344t1.203.406q.468.219.687.547.219.328.219.797 0 .78-.625 1.25-.61.468-1.61.468-.702 0-1.234-.25-.531-.25-.843-.687-.297-.438-.297-.953h.984q.031.484.406.781.375.297.985.297.562 0 .906-.219.344-.234.344-.625z" fill="#666"/></svg>