<svg xmlns="http://www.w3.org/2000/svg" fill="none" stroke-linecap="square" stroke-miterlimit="10" viewBox="62 0 740.76 439.05"><clipPath id="a"><path d="M0 0h1024v768H0z"/></clipPath><g clip-path="url(#a)"><path d="M0 0h1024v768H0z"/><g fill-rule="evenodd"><path d="M62 0h740.756v439.055H62z" fill="#fff"/><path d="M435.966 247.56c0-7.618 6.176-13.795 13.795-13.795H661.95a13.796 13.796 0 0 1 13.795 13.796v55.18c0 7.62-6.176 13.796-13.795 13.796H449.76c-7.619 0-13.795-6.177-13.795-13.796zm-1.935-218.985c0-7.619 6.177-13.795 13.796-13.795h212.188a13.796 13.796 0 0 1 13.796 13.795v55.18c0 7.62-6.177 13.796-13.796 13.796H447.827c-7.62 0-13.796-6.176-13.796-13.795z" fill="#6d9eeb" fill-opacity=".268"/><path d="M316.992 31.939h115.244v38.929H316.992z" fill="#cfe2f3"/><path d="M436.283 31.939h115.244v38.929H436.283zm119.291 0h115.244v38.929H555.574z" fill="#a7d4fc"/><path d="M675.605 32.396H790.85v38.929H675.605z" fill="#cfe2f3"/></g><path d="M44.512 28.073h239.78v61.418H44.511z"/><path d="M84.046 43.04h-6.86v3.813h5.891v1.61h-5.89v6.53H75.39V41.431h8.656v1.61zm10.597 6.875q0 2.485-1.281 3.922-1.266 1.438-3.407 1.438-2.172 0-3.437-1.438-1.266-1.437-1.266-3.922 0-2.484 1.266-3.922 1.265-1.453 3.437-1.453 2.14 0 3.407 1.453 1.28 1.438 1.28 3.922zm-1.766 0q0-1.984-.781-2.937-.766-.969-2.14-.969-1.407 0-2.173.969-.765.953-.765 2.937 0 1.907.765 2.907.782.984 2.172.984 1.36 0 2.14-.984.782-.985.782-2.907zm13.089 0q0 2.485-1.281 3.922-1.266 1.438-3.407 1.438-2.171 0-3.437-1.438-1.266-1.437-1.266-3.922 0-2.484 1.266-3.922 1.266-1.453 3.437-1.453 2.141 0 3.407 1.453 1.28 1.438 1.28 3.922zm-1.766 0q0-1.984-.781-2.937-.766-.969-2.14-.969-1.407 0-2.172.969-.766.953-.766 2.937 0 1.907.766 2.907.78.984 2.171.984 1.36 0 2.141-.984.781-.985.781-2.907zm13.089-3-.578 1-3.297-1.937.047 3.281h-1.172l.047-3.281-3.297 1.953-.594-1.016 3.469-1.875-3.469-1.89.594-1 3.297 1.937-.047-3.265h1.172l-.063 3.265 3.313-1.922.578 1-3.469 1.86zm15.216-4.437h-.093q-.282-.078-.735-.156-.453-.094-.797-.094-1.11 0-1.61.484-.483.485-.483 1.766v.344h3.078v1.437h-3.032v8.734h-1.703V46.26h-1.156v-1.437h1.156v-.344q0-1.813.89-2.781.907-.97 2.61-.97.578 0 1.032.063.468.047.843.125v1.563zm9.762 7.437q0 2.485-1.281 3.922-1.266 1.438-3.406 1.438-2.172 0-3.438-1.438-1.265-1.437-1.265-3.922 0-2.484 1.265-3.922 1.266-1.453 3.438-1.453 2.14 0 3.406 1.453 1.281 1.438 1.281 3.922zm-1.765 0q0-1.984-.782-2.937-.765-.969-2.14-.969-1.407 0-2.172.969-.766.953-.766 2.937 0 1.907.766 2.907.781.984 2.172.984 1.36 0 2.14-.984.782-.985.782-2.907zm13.088 0q0 2.485-1.28 3.922-1.267 1.438-3.407 1.438-2.172 0-3.438-1.438-1.265-1.437-1.265-3.922 0-2.484 1.265-3.922 1.266-1.453 3.438-1.453 2.14 0 3.406 1.453 1.281 1.438 1.281 3.922zm-1.765 0q0-1.984-.782-2.937-.765-.969-2.14-.969-1.406 0-2.172.969-.766.953-.766 2.937 0 1.907.766 2.907.781.984 2.172.984 1.36 0 2.14-.984.782-.985.782-2.907zm22.32-2.047h-10.798v-1.453h10.797v1.453zm0 3.829h-10.798v-1.454h10.797v1.454z" fill="#000"/><path d="M194.767 54.993h-3.296v-5.078q0-.609-.063-1.218-.062-.625-.219-.922-.187-.328-.547-.485-.343-.156-.968-.156-.453 0-.922.156-.453.141-.985.453v7.25h-3.28V44.76h3.28v1.14q.875-.687 1.672-1.046.813-.375 1.797-.375 1.656 0 2.594.969.937.968.937 2.89v6.656zm13.088-4.515h-7.5q.063 1.203.906 1.844.844.64 2.485.64 1.03 0 2-.375.984-.375 1.547-.797h.375v2.625q-1.11.453-2.094.641-.985.203-2.188.203-3.078 0-4.718-1.375-1.641-1.39-1.641-3.953 0-2.531 1.547-4 1.562-1.484 4.265-1.484 2.5 0 3.75 1.265 1.266 1.25 1.266 3.625v1.14zm-3.266-1.922q-.03-1.016-.515-1.531-.469-.532-1.5-.532-.938 0-1.547.5-.61.485-.688 1.563zm21.89-3.797-3.173 10.234h-3.468l-2.094-6.89-2.047 6.89h-3.531l-3.14-10.234h3.452l1.75 7.063 2.172-7.063h2.906l2.079 7.063 1.734-7.063z" fill="#1c4587"/><path d="M243.936 43.04h-6.86v3.813h5.891v1.61h-5.89v6.53h-1.797V41.431h8.656v1.61zm10.597 6.875q0 2.485-1.282 3.922-1.265 1.438-3.406 1.438-2.172 0-3.437-1.438-1.266-1.437-1.266-3.922 0-2.484 1.266-3.922 1.265-1.453 3.437-1.453 2.14 0 3.406 1.453 1.282 1.438 1.282 3.922zm-1.766 0q0-1.984-.781-2.937-.766-.969-2.14-.969-1.407 0-2.173.969-.765.953-.765 2.937 0 1.907.765 2.907.782.984 2.172.984 1.36 0 2.14-.984.782-.985.782-2.907zm13.089 0q0 2.485-1.281 3.922-1.266 1.438-3.407 1.438-2.172 0-3.437-1.438-1.266-1.437-1.266-3.922 0-2.484 1.266-3.922 1.265-1.453 3.437-1.453 2.14 0 3.407 1.453 1.28 1.438 1.28 3.922zm-1.766 0q0-1.984-.781-2.937-.766-.969-2.14-.969-1.407 0-2.173.969-.765.953-.765 2.937 0 1.907.765 2.907.782.984 2.172.984 1.36 0 2.14-.984.782-.985.782-2.907zm8.058-2.5h-2.172v-2.593h2.172zm.672 4.985-2.579 5.968h-1.328l1.594-5.968z" fill="#000"/><path d="m85.76 62.677-8.203 14.531h-1.39l8.171-14.53h1.422zm7.266 0-8.203 14.531h-1.391l8.172-14.53h1.422zm14.562 3.703q0 1.547-.578 3.641-.562 2.094-1.422 3.219-.719.937-1.61 1.39-.874.453-2.03.453-1.579 0-2.36-.843-.765-.86-.765-2.578 0-1.407.53-3.532.548-2.125 1.47-3.328.703-.937 1.593-1.39.907-.454 2.047-.454 1.578 0 2.344.86.781.844.781 2.562zm-1.578-.03q0-1.048-.39-1.595-.391-.562-1.407-.562-.75 0-1.328.328-.578.328-1.047 1.156-.547.969-1 2.875-.437 1.89-.437 3.125 0 1.047.39 1.61.391.546 1.407.546.718 0 1.328-.343.61-.344 1.047-1.14.546-.97.984-2.876.453-1.906.453-3.125zm5.89 4.062-2.437-4.313h1.64l1.798 3.328 3.25-3.328h1.812l-4.453 4.406 2.438 4.328h-1.657l-1.797-3.343-3.28 3.343H107.4zm16.563-3.641q0 1.61-.375 3.156-.375 1.531-1.11 2.64-.827 1.25-1.937 1.891-1.093.625-2.515.625-2.032 0-3.125-.921-1.078-.938-1.078-2.907 0-1.672.359-3.14.375-1.485 1.11-2.657.75-1.156 1.874-1.828 1.141-.672 2.61-.672 2.078 0 3.125.97 1.062.952 1.062 2.843zm-3.015.125q0-.922-.344-1.36-.328-.437-.985-.437-.609 0-1.156.563-.547.546-.937 1.578-.344.906-.516 1.968-.172 1.063-.172 1.938 0 .922.328 1.36.328.421 1.032.421.671 0 1.187-.594.516-.609.86-1.546.328-.86.515-1.907.188-1.047.188-1.984zm14.921-3.703-.5 2.203h-5.437l-.484 2.078h5.046l-.515 2.219h-5.047l-.672 2.937h5.422l-.5 2.203h-8.422l2.688-11.64zm9.165 3.187q0 1.547-.579 3.641-.562 2.094-1.421 3.219-.72.937-1.61 1.39-.875.453-2.031.453-1.578 0-2.36-.843-.765-.86-.765-2.578 0-1.407.531-3.532.547-2.125 1.469-3.328.703-.937 1.594-1.39.906-.454 2.047-.454 1.578 0 2.343.86.782.844.782 2.562zm-1.579-.03q0-1.048-.39-1.595-.39-.562-1.406-.562-.75 0-1.329.328-.578.328-1.046 1.156-.547.969-1 2.875-.438 1.89-.438 3.125 0 1.047.39 1.61.391.546 1.407.546.719 0 1.328-.343.61-.344 1.047-1.14.547-.97.984-2.876.453-1.906.453-3.125zm11.75.03q0 1.547-.578 3.641-.562 2.094-1.422 3.219-.718.937-1.609 1.39-.875.453-2.031.453-1.578 0-2.36-.843-.765-.86-.765-2.578 0-1.407.531-3.532.547-2.125 1.469-3.328.703-.937 1.594-1.39.906-.454 2.046-.454 1.579 0 2.344.86.781.844.781 2.562zm-1.578-.03q0-1.048-.39-1.595-.391-.562-1.407-.562-.75 0-1.328.328-.578.328-1.047 1.156-.546.969-1 2.875-.437 1.89-.437 3.125 0 1.047.39 1.61.391.546 1.407.546.719 0 1.328-.343.61-.344 1.047-1.14.547-.97.984-2.876.453-1.906.453-3.125zm12.36-1.407-7.47 9.89h-1.78l7.953-10.328h-6.625l.297-1.312h8.015zm10.125-.422h-5.875l-.782 3.375h5.047l-.297 1.312h-5.046l-1.313 5.625h-1.562l2.687-11.64h7.438zm9.195 0h-5.875l-.781 3.375h5.047l-.297 1.312h-5.047l-1.313 5.625h-1.562l2.687-11.64h7.438zm9.195 0h-5.875l-.781 3.375h5.047l-.297 1.312h-5.047l-1.312 5.625h-1.563l2.688-11.64h7.437zm9.196 0h-5.875l-.782 3.375h5.047l-.297 1.312h-5.047l-1.312 5.625h-1.563l2.688-11.64h7.437zm9.195 0h-5.875l-.781 3.375h5.047l-.297 1.312h-5.047l-1.313 5.625h-1.562l2.687-11.64h7.438zm9.195 0h-5.875l-.781 3.375h5.047l-.297 1.312h-5.047l-1.312 5.625h-1.563l2.688-11.64h7.437zm9.196 0h-5.875l-.782 3.375h5.047l-.297 1.312h-5.047l-1.312 5.625h-1.563l2.688-11.64h7.437zm6.351 10.312h-6.312l.265-1.14h2.39l1.829-7.906h-2.422l.219-1q1.36 0 2.094-.375.75-.391 1-1.25h1.218l-2.422 10.53h2.407zm10.797 0h-7.89l.374-1.64q1.094-.797 1.86-1.36.781-.578 1.86-1.437 1.905-1.531 2.687-2.563.796-1.046.796-2.03 0-.766-.546-1.157-.547-.39-1.391-.39-.703 0-1.594.265-.89.25-1.75.75h-.078l.313-1.594q.609-.281 1.562-.5.969-.219 1.86-.219 1.562 0 2.406.688.86.672.86 1.844 0 1.25-.72 2.375-.718 1.125-2.515 2.61-1.063.89-2.203 1.718-1.125.828-1.86 1.36h6.25zm9.453-1.03q-.687.609-1.578.952-.89.328-2.078.328-.938 0-1.828-.25-.89-.234-1.5-.562l.375-1.5h.11q.546.406 1.358.703.813.297 1.72.297 1.405 0 2.296-.828.906-.844.906-2.172 0-.828-.578-1.234-.562-.407-1.765-.407h-.75l.312-1.234h.734q1.329 0 2.172-.61.844-.609.844-1.64 0-.656-.516-1.016-.5-.375-1.484-.375-.812 0-1.734.297-.922.297-1.625.719h-.078l.328-1.578q.625-.281 1.593-.5.97-.235 1.829-.235 1.546 0 2.421.61.891.61.891 1.672 0 1.156-.86 2.062-.843.89-2.156 1.125v.078q.313.063.672.235.375.172.657.422.296.265.5.671.203.407.203.97 0 .843-.375 1.64-.36.797-1.016 1.36zm12.547-7.423q0 1.547-.578 3.641-.563 2.094-1.422 3.219-.719.937-1.61 1.39-.874.453-2.03.453-1.579 0-2.36-.843-.766-.86-.766-2.578 0-1.407.532-3.532.546-2.125 1.468-3.328.703-.937 1.594-1.39.906-.454 2.047-.454 1.578 0 2.344.86.781.844.781 2.562zm-1.578-.03q0-1.048-.39-1.595-.391-.562-1.407-.562-.75 0-1.328.328-.578.328-1.047 1.156-.547.969-1 2.875-.438 1.89-.438 3.125 0 1.047.391 1.61.39.546 1.406.546.72 0 1.328-.343.61-.344 1.047-1.14.547-.97.985-2.876.453-1.906.453-3.125z" fill="#666"/><path d="M528.188 65.564h51.464v42.016h-51.464z"/><path d="M544.344 79.968h-.094q-.28-.078-.734-.156-.453-.094-.797-.094-1.11 0-1.61.485-.484.484-.484 1.765v.344h3.078v1.437h-3.03v8.735h-1.704v-8.735h-1.156v-1.437h1.156v-.344q0-1.812.89-2.781.907-.969 2.61-.969.578 0 1.031.063.47.047.844.125zm9.762 7.438q0 2.484-1.281 3.922-1.266 1.437-3.406 1.437-2.172 0-3.438-1.437-1.266-1.438-1.266-3.922 0-2.485 1.266-3.922 1.266-1.453 3.438-1.453 2.14 0 3.406 1.453 1.281 1.437 1.281 3.922zm-1.766 0q0-1.985-.78-2.938-.766-.969-2.141-.969-1.407 0-2.172.97-.766.952-.766 2.937 0 1.906.766 2.906.78.984 2.172.984 1.359 0 2.14-.984.781-.984.781-2.906zm13.09 0q0 2.484-1.282 3.922-1.266 1.437-3.406 1.437-2.172 0-3.438-1.437-1.266-1.438-1.266-3.922 0-2.485 1.266-3.922 1.266-1.453 3.438-1.453 2.14 0 3.406 1.453 1.281 1.437 1.281 3.922zm-1.767 0q0-1.985-.78-2.938-.766-.969-2.141-.969-1.407 0-2.172.97-.766.952-.766 2.937 0 1.906.766 2.906.781.984 2.172.984 1.359 0 2.14-.984.781-.984.781-2.906z" fill="#000"/><path d="M406.634 40.28h35.905v38.772h-35.905z"/><path d="M420.806 64.64v-2.75h-4.97v-1.28l5.235-7.422h1.14v7.422h1.548v1.28h-1.547v2.75zm0-4.03v-5.172l-3.579 5.172z" fill="#000"/><path d="M525.911 40.28h35.906v38.772H525.91z"/><path d="M536.177 64.64V53.189h8.281v1.343h-6.766v3.516h6.344v1.344h-6.344v3.89h7.032v1.36h-8.547z" fill="#000"/><path d="M642.242 40.28h35.905v38.772h-35.905z"/><path d="M652.507 64.64V53.189h8.282v1.343h-6.766v3.516h6.344v1.344h-6.344v3.89h7.031v1.36h-8.547z" fill="#000"/><path d="M764.885 40.738h35.906v38.771h-35.906z"/><path d="m774.76 62.441 1.36-.125q.172.953.656 1.39.484.423 1.234.423.657 0 1.141-.297t.797-.781q.312-.5.516-1.344.218-.844.218-1.719v-.281q-.422.672-1.156 1.094-.734.406-1.578.406-1.422 0-2.406-1.031-.985-1.032-.985-2.72 0-1.733 1.016-2.796 1.031-1.062 2.578-1.062 1.125 0 2.047.609.922.594 1.406 1.703.485 1.11.485 3.219 0 2.203-.485 3.5-.469 1.297-1.422 1.984-.937.688-2.203.688-1.344 0-2.203-.75-.844-.75-1.016-2.11zm5.766-5.047q0-1.218-.656-1.921-.64-.72-1.547-.72-.938 0-1.64.766-.688.766-.688 1.985 0 1.094.656 1.781.672.688 1.64.688.97 0 1.594-.688.641-.687.641-1.89z" fill="#000"/><path d="M46.446 241.65h239.78v61.418H46.446z"/><path d="M88.782 264.4q0 1.015-.39 1.796-.376.766-1.017 1.266-.765.593-1.687.859-.906.25-2.328.25h-4.797v-13.563h4.016q1.484 0 2.218.11.735.11 1.407.453.75.39 1.078 1.016.343.609.343 1.468 0 .953-.5 1.64-.484.673-1.296 1.095v.062q1.375.281 2.156 1.219.797.922.797 2.328zm-3.032-6.11q0-.5-.171-.828-.157-.344-.516-.547-.438-.25-1.047-.313-.61-.062-1.5-.062H80.36v3.922h2.328q.86 0 1.36-.079.5-.093.921-.359.422-.281.594-.703.187-.438.187-1.031zm1.157 6.187q0-.828-.25-1.312-.235-.485-.89-.813-.438-.234-1.063-.297-.625-.078-1.516-.078H80.36v5.047h2.39q1.188 0 1.938-.11.75-.124 1.234-.452.516-.36.75-.813.235-.453.235-1.172zm12.211 4.094h-1.703v-1.078q-.234.156-.625.437-.375.266-.75.438-.422.203-.984.344-.547.14-1.297.14-1.375 0-2.328-.906-.953-.922-.953-2.328 0-1.156.484-1.86.5-.718 1.422-1.14.937-.406 2.234-.547 1.297-.156 2.797-.219v-.265q0-.579-.203-.954-.203-.39-.594-.609-.36-.219-.875-.281-.5-.078-1.062-.078-.672 0-1.5.187-.828.172-1.719.5h-.094v-1.734q.5-.14 1.453-.297.954-.172 1.875-.172 1.063 0 1.86.188.797.171 1.39.593.563.422.86 1.094.312.656.312 1.64zm-1.703-2.5v-2.844q-.781.047-1.844.14-1.062.095-1.687.266-.734.204-1.188.657-.453.437-.453 1.218 0 .86.516 1.313.531.437 1.625.437.89 0 1.64-.343.75-.36 1.391-.844zm11.345-5.813h-.093q-.375-.093-.735-.125-.359-.046-.859-.046-.781 0-1.531.359-.735.344-1.422.906v7.219h-1.703v-10.172h1.703v1.5q1.031-.812 1.797-1.156.781-.344 1.593-.344.454 0 .657.031.203.016.593.078zm10.29.235-.578 1-3.297-1.938.047 3.282h-1.172l.047-3.282-3.297 1.953-.593-1.015 3.468-1.875-3.468-1.89.593-1 3.297 1.937-.047-3.266h1.172l-.062 3.266 3.312-1.922.578 1-3.468 1.86zm18.7 2.906q0 1.281-.358 2.313-.36 1.015-.97 1.703-.655.718-1.437 1.078-.765.36-1.687.36-.875 0-1.516-.204-.64-.203-1.281-.547l-.11.469h-1.593v-14.172h1.703v5.063q.734-.594 1.531-.97.813-.374 1.828-.374 1.797 0 2.844 1.39 1.047 1.375 1.047 3.891zm-1.765.047q0-1.813-.61-2.75-.593-.953-1.937-.953-.75 0-1.515.328-.766.312-1.422.828v5.828q.734.328 1.25.469.531.125 1.203.125 1.422 0 2.219-.938.812-.937.812-2.937zm12.343 5.125h-1.703v-1.078q-.235.156-.625.437-.375.266-.75.438-.422.203-.985.344-.547.14-1.297.14-1.375 0-2.328-.906-.953-.922-.953-2.328 0-1.156.485-1.86.5-.718 1.421-1.14.938-.406 2.235-.547 1.297-.156 2.797-.219v-.265q0-.579-.203-.954-.204-.39-.594-.609-.36-.219-.875-.281-.5-.078-1.063-.078-.672 0-1.5.187-.828.172-1.718.5h-.094v-1.734q.5-.14 1.453-.297.953-.172 1.875-.172 1.062 0 1.86.188.796.171 1.39.593.562.422.86 1.094.312.656.312 1.64zm-1.703-2.5v-2.844q-.782.047-1.844.14-1.063.095-1.688.266-.734.204-1.187.657-.453.437-.453 1.218 0 .86.515 1.313.532.437 1.625.437.891 0 1.641-.343.75-.36 1.39-.844zm11.345-5.813h-.094q-.375-.093-.734-.125-.36-.046-.86-.046-.78 0-1.53.359-.735.344-1.423.906v7.219h-1.703v-10.172h1.703v1.5q1.032-.812 1.797-1.156.781-.344 1.594-.344.453 0 .656.031.203.016.594.078zm19.52 1.188h-10.796v-1.453h10.797v1.453zm0 3.828h-10.796v-1.453h10.797v1.453z" fill="#000"/><path d="M198.114 268.57h-3.297v-5.077q0-.61-.063-1.219-.062-.625-.218-.922-.188-.328-.547-.484-.344-.156-.969-.156-.453 0-.922.156-.453.14-.984.453v7.25h-3.282v-10.234h3.282v1.14q.875-.687 1.672-1.047.812-.375 1.796-.375 1.657 0 2.594.969.938.969.938 2.89v6.657zm13.087-4.515h-7.5q.063 1.203.907 1.844.843.64 2.484.64 1.031 0 2-.374.984-.375 1.547-.797h.375v2.625q-1.11.453-2.094.64-.984.204-2.187.204-3.079 0-4.72-1.375-1.64-1.391-1.64-3.954 0-2.53 1.547-4 1.563-1.484 4.266-1.484 2.5 0 3.75 1.266 1.265 1.25 1.265 3.625zm-3.265-1.922q-.032-1.015-.516-1.53-.469-.532-1.5-.532-.937 0-1.547.5-.61.484-.687 1.562zm21.889-3.796-3.172 10.234h-3.469l-2.094-6.89-2.047 6.89h-3.53l-3.141-10.234h3.453l1.75 7.062 2.172-7.062h2.906l2.078 7.062 1.734-7.062z" fill="#1c4587"/><path d="M248.845 264.4q0 1.015-.391 1.796-.375.766-1.016 1.266-.765.593-1.687.859-.906.25-2.328.25h-4.797v-13.563h4.016q1.484 0 2.218.11.735.11 1.407.453.75.39 1.078 1.016.343.609.343 1.468 0 .953-.5 1.64-.484.673-1.296 1.095v.062q1.375.281 2.156 1.219.797.922.797 2.328zm-3.032-6.11q0-.5-.171-.828-.157-.344-.516-.547-.438-.25-1.047-.313-.61-.062-1.5-.062h-2.156v3.922h2.328q.86 0 1.36-.079.5-.093.921-.359.422-.281.594-.703.187-.438.187-1.031zm1.157 6.187q0-.828-.25-1.312-.235-.485-.891-.813-.437-.234-1.062-.297-.625-.078-1.516-.078h-2.828v5.047h2.39q1.188 0 1.938-.11.75-.124 1.234-.452.516-.36.75-.813.235-.453.235-1.172zm12.211 4.094h-1.703v-1.078q-.234.156-.625.437-.375.266-.75.438-.422.203-.984.344-.547.14-1.297.14-1.375 0-2.328-.906-.953-.922-.953-2.328 0-1.156.484-1.86.5-.718 1.422-1.14.937-.406 2.234-.547 1.297-.156 2.797-.219v-.265q0-.579-.203-.954-.203-.39-.594-.609-.36-.219-.875-.281-.5-.078-1.062-.078-.672 0-1.5.187-.828.172-1.719.5h-.094v-1.734q.5-.14 1.453-.297.954-.172 1.875-.172 1.063 0 1.86.188.797.171 1.39.593.563.422.86 1.094.312.656.312 1.64zm-1.703-2.5v-2.844q-.781.047-1.844.14-1.062.095-1.687.266-.734.204-1.188.657-.453.437-.453 1.218 0 .86.516 1.313.531.437 1.625.437.89 0 1.64-.343.75-.36 1.391-.844zm11.345-5.813h-.093q-.375-.093-.735-.125-.36-.046-.86-.046-.78 0-1.53.359-.735.344-1.422.906v7.219h-1.703v-10.172h1.703v1.5q1.031-.812 1.797-1.156.78-.344 1.593-.344.454 0 .657.031.203.016.593.078zm5.259.735h-2.172v-2.594h2.172zm.672 4.984-2.578 5.969h-1.328l1.593-5.969z" fill="#000"/><path d="m81.527 276.255-8.203 14.53h-1.39l8.171-14.53zm7.266 0-8.203 14.53H79.2l8.171-14.53zm14.562 3.703q0 1.547-.578 3.64-.562 2.094-1.422 3.22-.718.937-1.609 1.39-.875.453-2.031.453-1.578 0-2.36-.844-.765-.86-.765-2.578 0-1.406.531-3.531.547-2.125 1.469-3.328.703-.938 1.594-1.391.906-.453 2.046-.453 1.579 0 2.344.86.781.843.781 2.562zm-1.578-.031q0-1.047-.39-1.594-.39-.563-1.407-.563-.75 0-1.328.328-.578.329-1.047 1.157-.546.968-1 2.875-.437 1.89-.437 3.125 0 1.047.39 1.609.391.547 1.407.547.719 0 1.328-.344.61-.344 1.047-1.14.547-.97.984-2.875.453-1.907.453-3.125zm5.891 4.062-2.438-4.312h1.641l1.797 3.328 3.25-3.328h1.812l-4.453 4.406 2.438 4.328h-1.656l-1.797-3.344-3.282 3.344h-1.812zm16.562-3.641q0 1.61-.375 3.157-.375 1.53-1.109 2.64-.828 1.25-1.937 1.89-1.094.626-2.516.626-2.031 0-3.125-.922-1.078-.937-1.078-2.906 0-1.672.36-3.14.374-1.485 1.109-2.657.75-1.156 1.875-1.828 1.14-.672 2.609-.672 2.078 0 3.125.969 1.062.953 1.062 2.843zm-3.015.125q0-.921-.344-1.359-.328-.437-.984-.437-.61 0-1.157.562-.546.547-.937 1.578-.344.906-.516 1.969-.172 1.062-.172 1.937 0 .922.329 1.36.328.422 1.03.422.673 0 1.188-.594.516-.61.86-1.547.328-.86.515-1.906.188-1.047.188-1.985zm14.844-3.703-.532 2.25h-5.343l-.5 2.172h4.953l-.516 2.25h-4.953l-1.14 4.969h-3l2.687-11.64h8.344zm8.718 3.188q0 1.547-.578 3.64-.562 2.094-1.422 3.22-.718.937-1.609 1.39-.875.453-2.031.453-1.578 0-2.36-.844-.765-.86-.765-2.578 0-1.406.531-3.531.547-2.125 1.469-3.328.703-.938 1.593-1.39.907-.454 2.047-.454 1.578 0 2.344.86.781.843.781 2.562zm-1.578-.031q0-1.047-.39-1.594-.391-.563-1.407-.563-.75 0-1.328.328-.578.329-1.047 1.157-.547.968-1 2.875-.437 1.89-.437 3.125 0 1.047.39 1.61.391.546 1.407.546.718 0 1.328-.344.61-.344 1.047-1.14.547-.97.984-2.875.453-1.907.453-3.125zm11.75.03q0 1.548-.578 3.641-.562 2.094-1.422 3.22-.719.937-1.61 1.39-.874.453-2.03.453-1.579 0-2.36-.844-.765-.86-.765-2.578 0-1.406.53-3.531.548-2.125 1.47-3.328.703-.938 1.593-1.39.907-.454 2.047-.454 1.578 0 2.344.86.781.843.781 2.562zm-1.578-.03q0-1.047-.39-1.594-.391-.563-1.407-.563-.75 0-1.328.328-.578.329-1.047 1.157-.547.968-1 2.875-.437 1.89-.437 3.125 0 1.047.39 1.61.391.546 1.407.546.718 0 1.328-.344.61-.344 1.047-1.14.546-.97.984-2.875.453-1.907.453-3.125zm12.36-1.407-7.47 9.89h-1.78l7.953-10.327h-6.625l.296-1.313h8.016zm10.124-.422h-5.875l-.78 3.375h5.046l-.297 1.313h-5.047l-1.312 5.625h-1.563l2.688-11.64h7.437zm9.196 0h-5.875l-.781 3.375h5.046l-.296 1.313h-5.047l-1.313 5.625h-1.562l2.687-11.64h7.438zm9.195 0h-5.875l-.781 3.375h5.047l-.297 1.313h-5.047l-1.313 5.625h-1.562l2.687-11.64h7.438zm9.195 0h-5.875l-.78 3.375h5.046l-.297 1.313h-5.047l-1.312 5.625h-1.563l2.688-11.64h7.437zm9.196 0h-5.875l-.782 3.375h5.047l-.297 1.313h-5.046l-1.313 5.625h-1.562l2.687-11.64h7.438zm9.195 0h-5.875l-.781 3.375h5.047l-.297 1.313h-5.047l-1.313 5.625h-1.562l2.687-11.64h7.438zm9.195 0h-5.875l-.78 3.375h5.046l-.297 1.313h-5.047l-1.312 5.625h-1.563l2.688-11.64h7.437zm6.352 10.313h-6.313l.266-1.14h2.39l1.829-7.907h-2.422l.219-1q1.36 0 2.093-.375.75-.39 1-1.25h1.22l-2.423 10.531h2.407l-.266 1.14zm10.797 0h-7.89l.374-1.64q1.094-.798 1.86-1.36.78-.578 1.859-1.438 1.906-1.53 2.687-2.562.797-1.047.797-2.031 0-.766-.547-1.157-.546-.39-1.39-.39-.703 0-1.594.265-.89.25-1.75.75h-.078l.312-1.593q.61-.282 1.563-.5.969-.22 1.86-.22 1.562 0 2.406.688.859.672.859 1.844 0 1.25-.719 2.375t-2.515 2.61q-1.063.89-2.204 1.718-1.125.828-1.859 1.36h6.25l-.281 1.28zm9.453-1.031q-.688.61-1.578.953-.89.328-2.078.328-.938 0-1.828-.25-.891-.234-1.5-.563l.375-1.5h.109q.547.407 1.36.704.812.296 1.718.296 1.406 0 2.297-.828.906-.843.906-2.172 0-.828-.578-1.234-.562-.406-1.766-.406h-.75l.313-1.235h.734q1.328 0 2.172-.609.844-.61.844-1.64 0-.657-.516-1.016-.5-.375-1.484-.375-.813 0-1.734.297-.922.297-1.625.718h-.079l.329-1.578q.625-.28 1.593-.5.97-.234 1.828-.234 1.547 0 2.422.61.89.609.89 1.671 0 1.156-.858 2.063-.844.89-2.157 1.125v.078q.313.062.672.234.375.172.656.422.297.266.5.672.204.406.204.969 0 .843-.375 1.64-.36.797-1.016 1.36zm12.547-7.422q0 1.547-.578 3.64-.563 2.094-1.422 3.22-.719.937-1.61 1.39-.875.453-2.03.453-1.579 0-2.36-.844-.766-.86-.766-2.578 0-1.406.531-3.531.547-2.125 1.47-3.328.702-.938 1.593-1.39.906-.454 2.047-.454 1.578 0 2.344.86.78.843.78 2.562zm-1.578-.031q0-1.047-.39-1.594-.392-.563-1.407-.563-.75 0-1.328.328-.578.329-1.047 1.157-.547.968-1 2.875-.438 1.89-.438 3.125 0 1.047.39 1.61.392.546 1.407.546.719 0 1.328-.344.61-.344 1.047-1.14.547-.97.985-2.875.453-1.907.453-3.125z" fill="#666"/><path d="M44.512 141.706h239.78v42.016H44.511z"/><path d="M177.468 168.626h-3.281v-1.062q-.844.687-1.594 1.015-.734.328-1.703.328-1.86 0-2.984-1.437-1.125-1.438-1.125-3.875 0-1.313.375-2.313.39-1.015 1.047-1.734.609-.672 1.5-1.047.89-.39 1.765-.39.922 0 1.5.203.594.187 1.219.5v-4.36h3.281zm-3.281-2.828v-5.016q-.344-.14-.734-.203-.375-.062-.703-.062-1.282 0-1.938.812-.64.797-.64 2.219 0 1.5.515 2.187.516.672 1.672.672.437 0 .937-.156.5-.172.891-.453zm16.451-1.688h-7.5q.063 1.204.906 1.844.844.64 2.485.64 1.03 0 2-.374.984-.375 1.547-.797h.375v2.625q-1.11.453-2.094.64-.985.204-2.188.204-3.078 0-4.718-1.375-1.641-1.391-1.641-3.953 0-2.532 1.547-4 1.562-1.485 4.265-1.485 2.5 0 3.75 1.266 1.266 1.25 1.266 3.625zm-3.266-1.921q-.03-1.016-.515-1.532-.469-.531-1.5-.531-.938 0-1.547.5-.61.484-.688 1.563zm8.858 6.437h-3.281v-14.172h3.281zm13.174-4.516h-7.5q.062 1.204.906 1.844.844.64 2.484.64 1.031 0 2-.374.985-.375 1.547-.797h.375v2.625q-1.11.453-2.094.64-.984.204-2.187.204-3.078 0-4.719-1.375-1.64-1.391-1.64-3.953 0-2.532 1.546-4 1.563-1.485 4.266-1.485 2.5 0 3.75 1.266 1.266 1.25 1.266 3.625zm-3.266-1.921q-.031-1.016-.516-1.532-.468-.531-1.5-.531-.937 0-1.547.5-.609.484-.687 1.563zm12.123 6.343q-.531.14-1.125.219-.593.078-1.453.078-1.906 0-2.844-.765-.937-.782-.937-2.657v-4.781h-1.344v-2.234h1.344v-2.922h3.281v2.922h3.078v2.234h-3.078v4.563q.016.39.156.718.125.313.454.5.328.188.937.188.266 0 .672-.11.422-.109.578-.203h.281zm12.03-4.422h-7.5q.063 1.204.907 1.844.844.64 2.484.64 1.032 0 2-.374.985-.375 1.547-.797h.375v2.625q-1.11.453-2.094.64-.984.204-2.187.204-3.078 0-4.719-1.375-1.64-1.391-1.64-3.953 0-2.532 1.546-4 1.563-1.485 4.266-1.485 2.5 0 3.75 1.266 1.266 1.25 1.266 3.625v1.14zm-3.265-1.921q-.031-1.016-.516-1.532-.468-.531-1.5-.531-.937 0-1.546.5-.61.484-.688 1.563z" fill="#1c4587"/><path d="M244.77 156.11h-.093q-.281-.078-.734-.156-.454-.094-.797-.094-1.11 0-1.61.485-.484.484-.484 1.765v.344h3.078v1.438h-3.03v8.734h-1.703v-8.734h-1.157v-1.438h1.157v-.344q0-1.812.89-2.78.907-.97 2.61-.97.578 0 1.031.063.469.047.844.125v1.562zm9.763 7.438q0 2.484-1.282 3.922-1.265 1.437-3.406 1.437-2.172 0-3.437-1.437-1.266-1.438-1.266-3.922t1.266-3.922q1.265-1.453 3.437-1.453 2.14 0 3.406 1.453 1.282 1.438 1.282 3.922zm-1.766 0q0-1.984-.781-2.938-.766-.968-2.14-.968-1.407 0-2.173.968-.765.954-.765 2.938 0 1.906.765 2.906.782.985 2.172.985 1.36 0 2.14-.985.782-.984.782-2.906zm13.089 0q0 2.484-1.281 3.922-1.266 1.437-3.407 1.437-2.172 0-3.437-1.437-1.266-1.438-1.266-3.922t1.266-3.922q1.265-1.453 3.437-1.453 2.14 0 3.407 1.453 1.28 1.438 1.28 3.922zm-1.766 0q0-1.984-.781-2.938-.766-.968-2.14-.968-1.407 0-2.173.968-.765.954-.765 2.938 0 1.906.765 2.906.782.985 2.172.985 1.36 0 2.14-.985.782-.984.782-2.906zm8.058-2.5h-2.172v-2.594h2.172zm.672 4.984-2.579 5.969h-1.328l1.594-5.969z" fill="#000"/><path d="M46.446 356.782h237.858v42.016H46.446z"/><path d="M175.896 383.702h-3.28v-1.062q-.845.687-1.595 1.015-.734.328-1.703.328-1.86 0-2.984-1.437-1.125-1.438-1.125-3.875 0-1.313.375-2.313.39-1.015 1.047-1.734.61-.672 1.5-1.047.89-.39 1.765-.39.922 0 1.5.203.594.187 1.22.5v-4.36h3.28zm-3.28-2.828v-5.016q-.345-.14-.735-.203-.375-.062-.703-.062-1.282 0-1.938.812-.64.797-.64 2.219 0 1.5.515 2.188.516.671 1.672.671.437 0 .937-.156.5-.172.891-.453zm16.45-1.687h-7.5q.063 1.203.906 1.843.844.64 2.485.64 1.031 0 2-.374.984-.375 1.547-.797h.375v2.625q-1.11.453-2.094.64-.984.204-2.188.204-3.078 0-4.718-1.375-1.641-1.39-1.641-3.953 0-2.532 1.547-4 1.562-1.485 4.266-1.485 2.5 0 3.75 1.266 1.265 1.25 1.265 3.625v1.14zm-3.265-1.922q-.032-1.016-.516-1.532-.469-.53-1.5-.53-.938 0-1.547.5-.61.484-.687 1.562zm8.857 6.437h-3.281V369.53h3.281zm13.174-4.515h-7.5q.062 1.203.906 1.843.844.64 2.484.64 1.032 0 2-.374.985-.375 1.547-.797h.375v2.625q-1.11.453-2.094.64-.984.204-2.187.204-3.078 0-4.719-1.375-1.64-1.39-1.64-3.953 0-2.532 1.546-4 1.563-1.485 4.266-1.485 2.5 0 3.75 1.266 1.266 1.25 1.266 3.625v1.14zm-3.266-1.922q-.031-1.016-.516-1.532-.468-.53-1.5-.53-.937 0-1.546.5-.61.484-.688 1.562zm12.123 6.343q-.53.141-1.125.22-.593.077-1.453.077-1.906 0-2.844-.765-.937-.782-.937-2.657v-4.78h-1.344v-2.235h1.344v-2.922h3.281v2.922h3.078v2.234h-3.078v4.563q.016.39.156.718.125.313.454.5.328.188.937.188.266 0 .672-.11.422-.109.578-.203h.281zm12.03-4.421h-7.5q.063 1.203.907 1.843.844.64 2.484.64 1.032 0 2-.374.985-.375 1.547-.797h.375v2.625q-1.11.453-2.093.64-.985.204-2.188.204-3.078 0-4.719-1.375-1.64-1.39-1.64-3.953 0-2.532 1.547-4 1.562-1.485 4.265-1.485 2.5 0 3.75 1.266 1.266 1.25 1.266 3.625v1.14zm-3.265-1.922q-.031-1.016-.515-1.532-.47-.53-1.5-.53-.938 0-1.547.5-.61.484-.688 1.562z" fill="#1c4587"/><path d="M246.683 378.53q0 1.282-.36 2.313-.359 1.015-.968 1.703-.656.719-1.437 1.078-.766.36-1.688.36-.875 0-1.516-.204-.64-.203-1.28-.547l-.11.47h-1.594V369.53h1.703v5.063q.735-.594 1.531-.969.813-.375 1.829-.375 1.796 0 2.843 1.39 1.047 1.376 1.047 3.891zm-1.765.047q0-1.812-.61-2.75-.594-.953-1.937-.953-.75 0-1.516.328-.766.313-1.422.828v5.828q.735.329 1.25.47.531.124 1.203.124 1.422 0 2.219-.937.813-.938.813-2.938zm12.342 5.125h-1.703v-1.078q-.235.156-.625.438-.375.265-.75.437-.422.203-.985.344-.546.14-1.296.14-1.375 0-2.329-.906-.953-.922-.953-2.328 0-1.156.485-1.86.5-.718 1.422-1.14.937-.406 2.234-.547 1.297-.156 2.797-.219v-.265q0-.578-.203-.953-.203-.391-.594-.61-.36-.218-.875-.281-.5-.078-1.063-.078-.671 0-1.5.187-.828.172-1.718.5h-.094v-1.734q.5-.14 1.453-.297.953-.172 1.875-.172 1.063 0 1.86.188.796.172 1.39.594.563.421.86 1.093.312.657.312 1.64zm-1.703-2.5v-2.844q-.781.047-1.844.141-1.062.094-1.687.266-.735.203-1.188.656-.453.437-.453 1.219 0 .859.516 1.312.53.438 1.625.438.89 0 1.64-.344.75-.36 1.39-.844zm11.345-5.812h-.094q-.375-.094-.734-.125-.36-.047-.86-.047-.78 0-1.53.36-.735.343-1.422.905v7.22h-1.704V373.53h1.704v1.5q1.03-.812 1.796-1.156.782-.344 1.594-.344.453 0 .656.032.204.015.594.078zm5.259.734h-2.172v-2.594h2.172zm.672 4.984-2.579 5.97h-1.328l1.594-5.97z" fill="#000"/><path d="M316.992 142.023h115.244v38.929H316.992z" fill="#cfe2f3" fill-rule="evenodd"/><path d="M436.283 142.023h115.244v38.929H436.283zm119.291 0h115.244v38.929H555.574z" fill="#59a7ec" fill-rule="evenodd"/><path d="M675.605 142.48H790.85v38.929H675.605z" fill="#cfe2f3" fill-rule="evenodd"/><path d="M406.634 150.365h35.905v38.771h-35.905z"/><path d="M420.806 174.725v-2.75h-4.97v-1.281l5.235-7.422h1.14v7.422h1.548v1.28h-1.547v2.75h-1.406zm0-4.031v-5.172l-3.579 5.172z" fill="#000"/><path d="M525.911 150.365h35.906v38.771H525.91z"/><path d="M536.224 174.725v-11.453h7.734v1.343h-6.219v3.547h5.375v1.36h-5.375v5.203z" fill="#000"/><path d="M642.242 150.365h35.905v38.771h-35.905z"/><path d="M652.554 174.725v-11.453h7.735v1.343h-6.22v3.547h5.376v1.36h-5.375v5.203z" fill="#000"/><path d="M764.885 150.821h35.906v38.772h-35.906z"/><path d="m774.76 172.525 1.36-.125q.172.953.656 1.39.484.423 1.234.423.657 0 1.141-.297t.797-.781q.312-.5.516-1.344.218-.844.218-1.719v-.281q-.422.672-1.156 1.094-.734.406-1.578.406-1.422 0-2.406-1.031-.985-1.032-.985-2.72 0-1.733 1.016-2.796 1.031-1.063 2.578-1.063 1.125 0 2.047.61.922.594 1.406 1.703.485 1.11.485 3.219 0 2.203-.485 3.5-.469 1.297-1.422 1.984-.937.688-2.203.688-1.344 0-2.203-.75-.844-.75-1.016-2.11zm5.766-5.047q0-1.218-.656-1.922-.64-.718-1.547-.718-.938 0-1.64.765-.688.766-.688 1.985 0 1.094.656 1.781.672.688 1.64.688.97 0 1.594-.688.641-.688.641-1.89z" fill="#000"/><path d="M318.926 247.738h115.245v38.93H318.926z" fill="#cfe2f3" fill-rule="evenodd"/><path d="M438.217 247.738h115.245v38.93H438.217zm119.292 0h115.244v38.93H557.509z" fill="#59a7ec" fill-rule="evenodd"/><path d="M677.54 248.195h115.244v38.929H677.54z" fill="#cfe2f3" fill-rule="evenodd"/><path d="M408.568 256.08h35.906v38.772h-35.906z"/><path d="M422.74 280.44v-2.75h-4.969v-1.281l5.235-7.422h1.14v7.422h1.547v1.281h-1.547v2.75zm0-4.031v-5.172l-3.578 5.172z" fill="#000"/><path d="M527.846 256.08h35.905v38.772h-35.905z"/><path d="M538.158 280.44v-11.453h7.734v1.344h-6.218v3.547h5.375v1.359h-5.375v5.203z" fill="#000"/><path d="M644.176 256.08h35.906v38.772h-35.906z"/><path d="M654.489 280.44v-11.453h7.734v1.344h-6.219v3.547h5.375v1.359h-5.375v5.203z" fill="#000"/><path d="M766.82 256.537h35.905v38.771H766.82z"/><path d="m776.695 278.24 1.36-.125q.171.954.655 1.391.485.422 1.235.422.656 0 1.14-.297.485-.297.797-.781.313-.5.516-1.344.219-.844.219-1.719v-.28q-.422.671-1.157 1.093-.734.406-1.578.406-1.422 0-2.406-1.031-.984-1.031-.984-2.719 0-1.734 1.015-2.797 1.032-1.062 2.578-1.062 1.125 0 2.047.61.922.593 1.407 1.702.484 1.11.484 3.219 0 2.203-.484 3.5-.47 1.297-1.422 1.984-.938.688-2.203.688-1.344 0-2.204-.75-.843-.75-1.015-2.11zm5.765-5.046q0-1.22-.656-1.922-.64-.719-1.547-.719-.937 0-1.64.766-.688.765-.688 1.984 0 1.094.656 1.781.672.688 1.641.688t1.594-.688q.64-.687.64-1.89z" fill="#000"/><path d="M530.122 281.931h51.465v42.016h-51.465z"/><path d="M549.763 303.68q0 1.28-.36 2.312-.359 1.016-.968 1.703-.657.719-1.438 1.078-.765.36-1.687.36-.875 0-1.516-.204-.64-.203-1.281-.546l-.11.468h-1.593V294.68h1.703v5.063q.734-.594 1.531-.969.813-.375 1.828-.375 1.797 0 2.844 1.39 1.047 1.376 1.047 3.891zm-1.766.046q0-1.812-.61-2.75-.593-.953-1.937-.953-.75 0-1.515.328-.766.313-1.422.828v5.829q.734.328 1.25.468.531.125 1.203.125 1.422 0 2.219-.937.812-.938.812-2.938zm12.343 5.125h-1.704v-1.078q-.234.156-.625.438-.375.265-.75.437-.421.203-.984.344-.547.14-1.297.14-1.375 0-2.328-.906-.953-.922-.953-2.328 0-1.156.484-1.86.5-.718 1.422-1.14.938-.406 2.235-.547 1.296-.156 2.796-.218v-.266q0-.578-.203-.953-.203-.39-.593-.61-.36-.218-.875-.28-.5-.079-1.063-.079-.672 0-1.5.188-.828.171-1.719.5h-.093v-1.735q.5-.14 1.453-.297.953-.172 1.875-.172 1.062 0 1.86.188.796.172 1.39.594.562.422.86 1.093.312.657.312 1.641zm-1.704-2.5v-2.843q-.78.046-1.843.14-1.063.094-1.688.266-.734.203-1.187.656-.453.438-.453 1.219 0 .86.515 1.312.531.438 1.625.438.89 0 1.64-.344.75-.36 1.391-.844zm11.346-5.812h-.094q-.375-.094-.734-.125-.36-.047-.86-.047-.78 0-1.53.36-.735.343-1.423.906v7.218h-1.703V298.68h1.703v1.5q1.031-.812 1.797-1.156.781-.344 1.594-.344.453 0 .656.032.203.015.594.078v1.75z" fill="#000"/><path d="M435.966 355.088c0-7.619 6.176-13.795 13.795-13.795H661.95a13.795 13.795 0 0 1 13.795 13.795v55.18c0 7.62-6.176 13.796-13.795 13.796H449.76c-7.619 0-13.795-6.176-13.795-13.795z" fill="#d9d9d9" fill-opacity=".436" fill-rule="evenodd"/><path d="M318.926 355.266h115.245v38.929H318.926z" fill="#cfe2f3" fill-rule="evenodd"/><path d="M438.217 355.266h115.245v38.929H438.217zm119.292 0h115.244v38.929H557.509z" fill="#ccc" fill-rule="evenodd"/><path d="M677.54 355.722h115.244v38.93H677.54z" fill="#cfe2f3" fill-rule="evenodd"/><path d="M408.568 363.608h35.906v38.771h-35.906z"/><path d="M422.74 387.968v-2.75h-4.969v-1.282l5.235-7.422h1.14v7.422h1.547v1.282h-1.547v2.75zm0-4.032v-5.172l-3.578 5.172z" fill="#000"/><path d="M527.846 363.608h35.905v38.771h-35.905z"/><path d="M537.517 382.311q0-2.03.407-3.265.422-1.235 1.25-1.907.828-.671 2.078-.671.922 0 1.61.375.702.359 1.155 1.062.454.703.704 1.703.265 1 .265 2.703 0 2.016-.422 3.266-.406 1.234-1.234 1.922-.828.672-2.078.672-1.656 0-2.61-1.203-1.125-1.422-1.125-4.657zm1.438 0q0 2.828.656 3.766.672.922 1.64.922.97 0 1.626-.938.656-.937.656-3.75 0-2.828-.656-3.75-.656-.937-1.64-.937-.97 0-1.548.828-.734 1.047-.734 3.86z" fill="#000"/><path d="M644.176 363.608h35.906v38.771h-35.906z"/><path d="M653.848 382.311q0-2.03.406-3.265.422-1.235 1.25-1.907.828-.671 2.078-.671.922 0 1.61.375.703.359 1.156 1.062.453.703.703 1.703.266 1 .266 2.703 0 2.016-.422 3.266-.406 1.234-1.235 1.922-.828.672-2.078.672-1.656 0-2.609-1.203-1.125-1.422-1.125-4.657zm1.438 0q0 2.828.656 3.766.672.922 1.64.922.97 0 1.625-.938.657-.937.657-3.75 0-2.828-.657-3.75-.656-.937-1.64-.937-.969 0-1.547.828-.735 1.047-.735 3.86z" fill="#000"/><path d="M766.82 364.064h35.905v38.772H766.82z"/><path d="m776.695 385.768 1.36-.125q.171.953.655 1.39.485.423 1.235.423.656 0 1.14-.297.485-.297.797-.782.313-.5.516-1.343.219-.844.219-1.72v-.28q-.422.672-1.157 1.093-.734.407-1.578.407-1.422 0-2.406-1.032-.984-1.03-.984-2.718 0-1.735 1.015-2.797 1.032-1.063 2.578-1.063 1.125 0 2.047.61.922.593 1.407 1.703.484 1.11.484 3.219 0 2.203-.484 3.5-.47 1.296-1.422 1.984-.938.687-2.203.687-1.344 0-2.204-.75-.843-.75-1.015-2.109zm5.765-5.047q0-1.219-.656-1.922-.64-.718-1.547-.718-.937 0-1.64.765-.688.766-.688 1.985 0 1.093.656 1.78.672.688 1.641.688t1.594-.687q.64-.688.64-1.89z" fill="#000"/><path d="M474.127 388.155h204.126v42.016H474.127z"/><path d="M495.955 414.372 485.44 409.7v-1.125l10.516-4.672v1.64l-8.297 3.594 8.297 3.594v1.64zm12.377 4.453h-1.719v-4.89q-.781.671-1.578 1.015-.781.328-1.687.328-1.813 0-2.891-1.39-1.078-1.407-1.078-3.876 0-1.312.375-2.312.375-1 1-1.688.594-.672 1.406-1.03.813-.36 1.719-.36.812 0 1.437.187.64.172 1.297.531l.11-.437h1.609zm-1.719-6.344v-5.75q-.703-.312-1.25-.437-.547-.141-1.187-.141-1.485 0-2.266 1.016-.766 1-.766 2.765 0 1.781.625 2.75.625.953 1.97.953.734 0 1.484-.312.75-.328 1.39-.844zm13.53 2.594h-1.719v-1.125q-.859.672-1.656 1.047-.797.36-1.75.36-1.61 0-2.5-.97-.89-.984-.89-2.89v-6.594h1.718v5.797q0 .765.063 1.328.078.547.312.937.25.391.64.579.392.187 1.142.187.671 0 1.453-.344.78-.359 1.468-.89v-7.594h1.72v10.172zm11.275 0h-1.703v-1.078q-.235.156-.625.437-.375.266-.75.438-.422.203-.985.343-.547.141-1.297.141-1.375 0-2.328-.906-.953-.922-.953-2.328 0-1.157.485-1.86.5-.718 1.421-1.14.938-.407 2.235-.547 1.297-.156 2.797-.219v-.266q0-.578-.203-.953-.204-.39-.594-.609-.36-.219-.875-.281-.5-.078-1.063-.078-.672 0-1.5.187-.828.172-1.718.5h-.094v-1.734q.5-.14 1.453-.297.953-.172 1.875-.172 1.062 0 1.86.187.796.172 1.39.594.562.422.86 1.094.312.656.312 1.64zm-1.703-2.5v-2.844q-.782.047-1.844.14-1.063.094-1.688.266-.734.203-1.187.657-.453.437-.453 1.218 0 .86.515 1.313.532.437 1.625.437.891 0 1.641-.343.75-.36 1.39-.844zm11.345-5.813h-.094q-.375-.093-.734-.125-.36-.047-.86-.047-.78 0-1.53.36-.735.344-1.423.906v7.219h-1.703v-10.172h1.703v1.5q1.032-.813 1.797-1.156.782-.344 1.594-.344.453 0 .656.031.203.016.594.078zm9.524 8.313h-1.703v-1.078q-.234.156-.625.437-.375.266-.75.438-.422.203-.984.343-.547.141-1.297.141-1.375 0-2.328-.906-.953-.922-.953-2.328 0-1.157.484-1.86.5-.718 1.422-1.14.937-.407 2.234-.547 1.297-.156 2.797-.219v-.266q0-.578-.203-.953-.203-.39-.594-.609-.36-.219-.875-.281-.5-.078-1.062-.078-.672 0-1.5.187-.828.172-1.719.5h-.094v-1.734q.5-.14 1.453-.297.953-.172 1.875-.172 1.063 0 1.86.187.797.172 1.39.594.563.422.86 1.094.312.656.312 1.64zm-1.703-2.5v-2.844q-.781.047-1.844.14-1.062.094-1.687.266-.735.203-1.188.657-.453.437-.453 1.218 0 .86.516 1.313.531.437 1.625.437.89 0 1.64-.343.75-.36 1.391-.844zm13.502 2.5h-1.703v-5.797q0-.703-.094-1.313-.078-.609-.297-.968-.219-.375-.656-.563-.422-.187-1.11-.187-.703 0-1.468.343-.766.344-1.47.891v7.594h-1.702v-10.172h1.703v1.125q.812-.656 1.656-1.031.86-.375 1.766-.375 1.656 0 2.515 1 .86.984.86 2.843zm8.587-.094q-.485.125-1.063.203-.562.094-1 .094-1.562 0-2.375-.828-.812-.844-.812-2.703v-5.407h-1.156v-1.437h1.156v-2.922h1.719v2.922h3.53v1.437h-3.53v4.641q0 .797.03 1.25.032.453.25.844.204.36.548.531.359.172 1.078.172.422 0 .875-.125t.656-.203h.094zm3.914-11.781h-1.938v-1.781h1.938v1.78zm-.11 11.875h-1.718v-10.172h1.718zm11.885 0h-1.703v-5.797q0-.703-.093-1.313-.079-.609-.297-.968-.22-.375-.657-.563-.421-.187-1.109-.187-.703 0-1.469.343-.765.344-1.468.891v7.594h-1.704v-10.172h1.704v1.125q.812-.656 1.656-1.031.86-.375 1.765-.375 1.657 0 2.516 1 .86.984.86 2.843v6.61zm11.822-4.906h-7.5q0 .937.281 1.64.281.688.781 1.14.47.438 1.11.657.656.219 1.453.219 1.031 0 2.078-.422 1.063-.422 1.5-.813h.094v1.86q-.86.375-1.766.625-.906.234-1.89.234-2.532 0-3.954-1.36-1.421-1.374-1.421-3.905 0-2.5 1.359-3.954 1.36-1.468 3.578-1.468 2.063 0 3.172 1.203 1.125 1.203 1.125 3.406zm-1.672-1.313q0-1.344-.672-2.078-.672-.75-2.031-.75-1.375 0-2.203.812-.813.813-.922 2.016zm12.52 6.219h-1.719v-1.063q-.734.641-1.531 1-.797.344-1.734.344-1.829 0-2.907-1.39-1.062-1.407-1.062-3.907 0-1.281.36-2.297.374-1.015 1-1.718.624-.704 1.452-1.063.828-.36 1.703-.36.797 0 1.422.173.625.156 1.297.515v-4.406h1.719zm-1.719-2.5v-5.844q-.687-.312-1.234-.422-.547-.125-1.188-.125-1.437 0-2.25 1-.797 1-.797 2.844 0 1.812.61 2.766.625.937 2 .937.719 0 1.469-.328.75-.328 1.39-.828zm16.358-2.875-10.515 4.672v-1.64l8.297-3.595-8.297-3.593v-1.641l10.515 4.672z" fill="#000"/></g></svg>