<svg xmlns="http://www.w3.org/2000/svg" fill="none" stroke-linecap="square" stroke-miterlimit="10" viewBox="159.69 38.55 820.5 414.83"><clipPath id="a"><path d="M0 0h1280v960H0z"/></clipPath><g clip-path="url(#a)"><path d="M0 0h1280v960H0z"/><path d="M159.693 38.546h820.504V453.38H159.693z" fill="#fff" fill-rule="evenodd"/><path d="M280.688 91.622h663.748"/><path d="M280.688 91.622h657.748" stroke="#000" stroke-dasharray="4 3" stroke-linecap="butt" stroke-linejoin="round"/><path d="m938.436 93.274 4.538-1.652-4.538-1.652z" fill="#000" fill-rule="evenodd" stroke="#000" stroke-linecap="butt"/><path d="M280.688 161.577h663.748"/><path d="M280.688 161.577h657.748" stroke="#000" stroke-dasharray="4 3" stroke-linecap="butt" stroke-linejoin="round"/><path d="m938.436 163.23 4.538-1.653-4.538-1.651z" fill="#000" fill-rule="evenodd" stroke="#000" stroke-linecap="butt"/><path d="M880.3 49.606h131.338v42.016H880.299z"/><path d="M932.072 76.433q-.484.125-1.063.203-.562.093-1 .093-1.562 0-2.375-.828-.812-.843-.812-2.703v-5.406h-1.156v-1.438h1.156v-2.921h1.719v2.921h3.531v1.438h-3.531v4.64q0 .797.031 1.25.031.454.25.844.203.36.547.532.36.171 1.078.171.422 0 .875-.125t.656-.203h.094zm3.914-11.782h-1.938v-1.78h1.938zm-.11 11.875h-1.718V66.354h1.718zm18.23 0h-1.704V70.73q0-.656-.062-1.265-.063-.61-.25-.969-.219-.39-.61-.594-.39-.203-1.125-.203-.718 0-1.437.36-.719.359-1.438.921.016.204.032.485.03.281.03.547v6.515h-1.718V70.73q0-.671-.062-1.265-.047-.61-.25-.985-.204-.39-.594-.578-.39-.203-1.125-.203-.703 0-1.422.344-.703.344-1.406.89v7.594h-1.703V66.354h1.703v1.125q.812-.656 1.61-1.03.796-.376 1.702-.376 1.031 0 1.75.438.735.437 1.078 1.203 1.047-.875 1.891-1.25.86-.39 1.844-.39 1.672 0 2.468 1.015.797 1.015.797 2.828v6.61zm11.817-4.906h-7.5q0 .938.282 1.64.28.688.78 1.141.47.438 1.11.657.656.218 1.453.218 1.032 0 2.078-.422 1.063-.421 1.5-.812h.094v1.86q-.86.374-1.765.624-.907.235-1.891.235-2.531 0-3.953-1.36-1.422-1.375-1.422-3.906 0-2.5 1.36-3.953 1.359-1.469 3.577-1.469 2.063 0 3.172 1.203 1.125 1.203 1.125 3.407zm-1.672-1.312q0-1.344-.671-2.079-.672-.75-2.032-.75-1.375 0-2.203.813-.812.812-.922 2.016z" fill="#000"/><path d="M149.35 105.59h131.338v42.016H149.349z"/><path d="m177.972 131.042.234 1.453q-.687.14-1.234.14-.89 0-1.39-.28-.485-.282-.688-.735-.203-.469-.203-1.938v-5.578h-1.204v-1.265h1.204v-2.39l1.625-.985v3.375h1.656v1.265h-1.656v5.672q0 .688.078.89.093.204.281.329.203.11.578.11.266 0 .719-.063zm1.605 1.469v-13.36h1.64v4.797q1.141-1.328 2.891-1.328 1.078 0 1.86.422.797.422 1.14 1.172.344.75.344 2.172v6.125h-1.64v-6.125q0-1.235-.532-1.797-.531-.563-1.515-.563-.72 0-1.36.39-.64.376-.922 1.016-.265.641-.265 1.782v5.297zm10.36 0v-9.672h1.469v1.468q.562-1.03 1.031-1.359.484-.328 1.063-.328.828 0 1.687.531l-.562 1.516q-.61-.36-1.204-.36-.546 0-.968.329-.422.328-.61.89-.28.875-.28 1.922v5.063zm12.853-3.11 1.688.203q-.406 1.485-1.484 2.313-1.079.812-2.766.812-2.125 0-3.375-1.297-1.234-1.312-1.234-3.671 0-2.454 1.25-3.797 1.265-1.344 3.265-1.344 1.938 0 3.156 1.328 1.235 1.313 1.235 3.703v.438h-7.219q.094 1.593.906 2.453.813.844 2.016.844.906 0 1.547-.47.64-.484 1.015-1.515zm-5.39-2.656h5.406q-.11-1.219-.625-1.828-.781-.953-2.031-.953-1.125 0-1.906.765-.766.75-.844 2.016zm15.454 4.578q-.922.766-1.766 1.094-.828.312-1.797.312-1.594 0-2.453-.781-.86-.781-.86-1.984 0-.72.329-1.297.328-.594.844-.938.53-.36 1.187-.547.469-.125 1.453-.25 1.985-.234 2.922-.562.016-.344.016-.422 0-1-.47-1.422-.624-.547-1.874-.547-1.156 0-1.703.407-.547.406-.813 1.421l-1.61-.218q.22-1.016.72-1.64.5-.642 1.453-.985.953-.344 2.187-.344 1.25 0 2.016.297.781.281 1.14.734.376.438.516 1.11.078.421.078 1.515v2.188q0 2.28.11 2.89.109.594.406 1.157h-1.703q-.266-.516-.328-1.188zm-.141-3.672q-.89.375-2.672.625-1.015.14-1.437.328-.422.188-.657.532-.218.343-.218.78 0 .657.5 1.095.5.437 1.453.437.937 0 1.672-.406.75-.422 1.093-1.14.266-.563.266-1.641zm10.47 4.86v-1.22q-.907 1.438-2.704 1.438-1.156 0-2.125-.64-.968-.641-1.5-1.782-.53-1.14-.53-2.625 0-1.453.483-2.625.485-1.187 1.438-1.812.969-.625 2.172-.625.875 0 1.547.375.687.36 1.11.953v-4.797h1.64v13.36h-1.532zm-5.172-4.829q0 1.86.78 2.782.782.922 1.845.922 1.078 0 1.828-.875.75-.891.75-2.688 0-1.984-.766-2.906-.766-.938-1.89-.938-1.079 0-1.813.89-.734.892-.734 2.813zm8.625 1.938 1.625-.25q.125.969.75 1.5.625.516 1.75.516t1.672-.454q.547-.468.547-1.093 0-.547-.484-.875-.328-.22-1.672-.547-1.813-.469-2.516-.797-.687-.328-1.047-.906-.36-.594-.36-1.313 0-.64.298-1.187.297-.563.812-.922.375-.281 1.032-.469.671-.203 1.421-.203 1.141 0 2 .328.86.328 1.266.89.422.563.578 1.5l-1.61.22q-.109-.75-.64-1.172-.515-.422-1.469-.422-1.14 0-1.625.375-.468.375-.468.875 0 .312.187.578.203.265.64.437.235.094 1.438.422 1.75.453 2.438.75.687.297 1.078.86.39.562.39 1.406 0 .828-.484 1.547-.469.718-1.375 1.125-.906.39-2.047.39-1.875 0-2.875-.781-.984-.781-1.25-2.328zm20.887 2.89h-1.64v-10.453q-.595.563-1.563 1.141-.953.563-1.72.844v-1.594q1.376-.64 2.407-1.562 1.031-.922 1.453-1.782h1.063v13.407zm5.11 0v-1.874h1.875v1.875h-1.875zm5.183 0v-1.874h1.875v1.875h-1.875zm4.73 0v-9.671h1.47v1.375q1.062-1.594 3.077-1.594.875 0 1.61.312.734.313 1.093.829.375.5.516 1.203.094.453.094 1.593v5.954h-1.64v-5.891q0-1-.204-1.484-.188-.5-.672-.797-.484-.297-1.14-.297-1.047 0-1.813.672-.75.656-.75 2.515v5.282h-1.64z" fill="#000"/><path d="M362.12 59.402h500.883v134.393H362.12z" fill="#3d85c6" fill-rule="evenodd"/><path d="M362.12 59.402h500.883v134.393H362.12z" stroke="#000" stroke-linecap="butt" stroke-linejoin="round"/><path d="M567.957 133.518h-3.61l-.952-2.734h-5.016l-.937 2.734h-3.532l5.016-13.562h4.016zm-5.406-5.234-1.656-4.86-1.672 4.86zm17.843-.016q0 1.266-.39 2.313-.375 1.031-1 1.703-.656.703-1.485 1.078-.828.36-1.78.36-.876 0-1.485-.188-.61-.187-1.25-.531v4.265h-3.281v-13.984h3.28v1.063q.75-.594 1.532-.97.797-.374 1.828-.374 1.922 0 2.969 1.406 1.062 1.406 1.062 3.86zm-3.375.063q0-1.5-.515-2.172-.5-.672-1.61-.672-.453 0-.953.14-.484.141-.937.407v5.14q.328.126.703.173.375.03.734.03 1.297 0 1.938-.75.64-.765.64-2.296zm16.42-.063q0 1.266-.39 2.313-.375 1.031-1 1.703-.657.703-1.485 1.078-.828.36-1.781.36-.875 0-1.484-.188-.61-.187-1.25-.531v4.265h-3.282v-13.984h3.282v1.063q.75-.594 1.53-.97.798-.374 1.829-.374 1.922 0 2.969 1.406 1.062 1.406 1.062 3.86zm-3.375.063q0-1.5-.515-2.172-.5-.672-1.61-.672-.453 0-.953.14-.484.141-.937.407v5.14q.328.126.703.173.375.03.734.03 1.297 0 1.938-.75.64-.765.64-2.296zm9.03 5.187h-3.282v-14.171h3.281v14.171zm6.376 0h-3.281v-10.234h3.281zm.094-11.687h-3.469v-2.484h3.469zm8.33 11.953q-1.344 0-2.454-.312-1.093-.313-1.921-.985-.813-.656-1.266-1.672-.438-1.015-.438-2.375 0-1.422.485-2.453.484-1.047 1.328-1.734.828-.64 1.906-.938 1.094-.312 2.266-.312 1.047 0 1.922.234.89.219 1.656.594v2.797h-.469q-.187-.172-.453-.39-.266-.22-.672-.423-.36-.203-.812-.328-.453-.14-1.032-.14-1.312 0-2.03.843-.704.828-.704 2.25 0 1.485.719 2.25.734.766 2.062.766.625 0 1.11-.14.5-.141.828-.344.312-.172.547-.375.234-.204.437-.391h.469v2.797q-.781.36-1.625.562-.844.22-1.86.22zm11.851-2.937v-2.125q-.671.046-1.453.14-.765.094-1.172.235-.484.156-.75.453-.25.28-.25.765 0 .328.047.532.063.187.282.375.203.187.484.28.297.079.922.079.484 0 .984-.203.516-.203.906-.531zm0 1.593q-.265.188-.656.485-.39.28-.75.437-.484.219-1 .313-.515.11-1.14.11-1.454 0-2.438-.892-.984-.906-.984-2.312 0-1.11.5-1.813.5-.718 1.422-1.14.906-.406 2.25-.578 1.359-.172 2.812-.25v-.063q0-.844-.703-1.156-.688-.328-2.031-.328-.813 0-1.735.281-.922.281-1.312.438h-.313v-2.47q.532-.124 1.688-.312 1.172-.187 2.36-.187 2.796 0 4.03.86 1.25.859 1.25 2.702v6.953h-3.25zm12.806.985q-.531.14-1.125.218-.594.079-1.453.079-1.906 0-2.844-.766-.937-.781-.937-2.656v-4.782h-1.344v-2.234h1.344v-2.922h3.28v2.922h3.079v2.234h-3.078v4.563q.016.39.156.719.125.312.453.5.328.187.938.187.265 0 .672-.11.422-.109.578-.202h.281zm5.234.093h-3.282v-10.234h3.282zm.093-11.687h-3.468v-2.484h3.468zm13.455 6.578q0 2.516-1.469 3.969-1.468 1.453-4.125 1.453-2.656 0-4.14-1.453-1.469-1.453-1.469-3.969 0-2.547 1.484-3.984 1.485-1.453 4.125-1.453 2.672 0 4.125 1.453 1.47 1.453 1.47 3.984zm-4.031 2.484q.328-.39.484-.937.156-.563.156-1.531 0-.907-.171-1.516-.157-.61-.454-.969-.28-.375-.703-.531-.406-.156-.875-.156-.468 0-.843.14-.375.125-.704.5-.296.36-.484.985-.172.61-.172 1.547 0 .843.156 1.453.157.61.454.984.28.36.687.531.406.157.938.157.437 0 .843-.14.407-.157.688-.517zm16.667 2.625h-3.297v-5.078q0-.61-.062-1.218-.063-.625-.219-.922-.187-.328-.547-.485-.344-.156-.969-.156-.453 0-.921.156-.454.14-.985.453v7.25h-3.281v-10.234h3.281v1.14q.875-.687 1.672-1.046.813-.375 1.797-.375 1.656 0 2.594.969.937.968.937 2.89z" fill="#fff"/><path d="M280.688 392.934h663.748"/><path d="M280.688 392.934h657.748" stroke="#000" stroke-dasharray="4 3" stroke-linecap="butt" stroke-linejoin="round"/><path d="m938.436 394.586 4.538-1.652-4.538-1.651z" fill="#000" fill-rule="evenodd" stroke="#000" stroke-linecap="butt"/><path d="M362.12 231.451h212.064v82.552H362.12z" fill="#93c47d" fill-rule="evenodd"/><path d="M362.12 231.451h212.064v82.552H362.12z" stroke="#000" stroke-linecap="butt" stroke-linejoin="round"/><path d="M435.386 279.647h-3.61l-.953-2.734h-5.016l-.937 2.734h-3.531l5.015-13.562h4.016zm-5.407-5.234-1.656-4.86-1.672 4.86zm10.453 5.234h-3.281v-14.172h3.281zm6.377 0h-3.281v-14.172h3.28v14.172zm13.548-5.11q0 2.516-1.468 3.97-1.47 1.453-4.125 1.453-2.657 0-4.141-1.454-1.469-1.453-1.469-3.968 0-2.547 1.485-3.985 1.484-1.453 4.125-1.453 2.671 0 4.125 1.453 1.468 1.453 1.468 3.985zm-4.03 2.485q.327-.39.483-.937.157-.563.157-1.532 0-.906-.172-1.515-.156-.61-.453-.97-.282-.374-.703-.53-.407-.157-.875-.157-.47 0-.844.141-.375.125-.703.5-.297.36-.485.984-.172.61-.172 1.547 0 .844.157 1.453.156.61.453.985.281.36.687.531.407.156.938.156.437 0 .844-.14.406-.157.687-.516zm11.713 2.89q-1.343 0-2.453-.312-1.094-.312-1.922-.984-.812-.656-1.265-1.672-.438-1.016-.438-2.375 0-1.422.485-2.453.484-1.047 1.328-1.735.828-.64 1.906-.937 1.094-.313 2.266-.313 1.046 0 1.921.235.891.219 1.657.594v2.796h-.47q-.187-.171-.452-.39-.266-.219-.672-.422-.36-.203-.813-.328-.453-.14-1.03-.14-1.313 0-2.032.843-.703.828-.703 2.25 0 1.484.719 2.25.734.766 2.062.766.625 0 1.11-.141.5-.14.828-.344.312-.172.546-.375.235-.203.438-.39h.469v2.796q-.782.36-1.625.563-.844.219-1.86.219zm11.852-2.937v-2.125q-.672.047-1.453.14-.766.095-1.172.235-.484.156-.75.453-.25.282-.25.766 0 .328.047.531.063.188.281.375.203.188.485.281.297.079.922.079.484 0 .984-.204.516-.203.906-.53zm0 1.594q-.265.187-.656.484-.39.282-.75.438-.484.219-1 .312-.516.11-1.14.11-1.454 0-2.438-.891-.985-.906-.985-2.312 0-1.11.5-1.813.5-.719 1.422-1.14.907-.407 2.25-.579 1.36-.172 2.813-.25v-.062q0-.844-.703-1.156-.688-.329-2.032-.329-.812 0-1.734.282-.922.28-1.312.437h-.313v-2.469q.531-.125 1.688-.312 1.171-.188 2.359-.188 2.797 0 4.031.86 1.25.86 1.25 2.703v6.953h-3.25zm12.806.984q-.532.14-1.125.219-.594.078-1.453.078-1.907 0-2.844-.765-.938-.782-.938-2.657v-4.781h-1.343v-2.234h1.343v-2.922h3.282v2.922h3.078v2.234h-3.078v4.563q.015.39.156.718.125.313.453.5.328.188.937.188.266 0 .672-.11.422-.109.578-.203h.282zm12.405-5.015q0 2.515-1.469 3.968-1.468 1.454-4.125 1.454-2.656 0-4.14-1.454-1.469-1.453-1.469-3.968 0-2.547 1.484-3.985 1.485-1.453 4.125-1.453 2.672 0 4.125 1.453 1.47 1.453 1.47 3.985zm-4.031 2.484q.328-.39.484-.937.157-.563.157-1.532 0-.906-.172-1.515-.157-.61-.453-.97-.282-.374-.704-.53-.406-.157-.875-.157-.468 0-.843.141-.375.125-.703.5-.297.36-.485.984-.172.61-.172 1.547 0 .844.157 1.453.156.61.453.985.28.36.687.531.406.156.938.156.437 0 .843-.14.407-.157.688-.516zm13.808-4.484h-.297q-.203-.063-.672-.094-.469-.047-.781-.047-.703 0-1.235.094-.53.094-1.156.312v6.844h-3.281v-10.234h3.281v1.5q1.078-.922 1.875-1.22.813-.312 1.485-.312.171 0 .39.016.219 0 .39.016v3.125z" fill="#fff"/><path d="M645.43 231.533h217.575v82.551H645.43z" fill="#e06666" fill-rule="evenodd"/><path d="M645.43 231.533h217.575v82.551H645.43z" stroke="#000" stroke-linecap="butt" stroke-linejoin="round"/><path d="M705.902 276.385q.516-.625.75-1.453.25-.844.25-1.985 0-1.219-.281-2.078-.281-.86-.734-1.39-.47-.547-1.078-.782-.594-.25-1.25-.25-.672 0-1.266.235-.578.234-1.063.78-.468.516-.75 1.407-.28.89-.28 2.078 0 1.219.265 2.078.281.844.734 1.375.469.547 1.078.797.61.25 1.282.25.671 0 1.28-.25.61-.265 1.063-.812zm.375 3.187q.032.89.485 1.281.468.391 1.562.391.375 0 .875-.125.516-.125.719-.219h.344v2.407q-.5.109-1.11.203-.593.093-1.812.093-1.094 0-1.906-.28-.797-.266-1.329-.75-.53-.485-.796-1.141-.266-.657-.313-1.454-3.031-.171-4.734-2.03-1.703-1.876-1.703-5 0-3.266 1.859-5.157 1.86-1.906 5.125-1.906 3.266 0 5.125 1.906 1.875 1.89 1.875 5.156 0 2.422-1.094 4.172-1.094 1.75-3.172 2.453zm16.938.156h-3.266v-1.125q-.921.688-1.671 1.047-.75.36-1.813.36-1.687 0-2.61-.97-.906-.983-.906-2.89v-6.656h3.297v5.078q0 .781.047 1.297.047.5.235.844.171.344.515.5.36.14.985.14.421 0 .921-.14.516-.156 1-.469v-7.25h3.266zm9.306-2.671v-2.125q-.671.046-1.453.14-.765.094-1.172.235-.484.156-.75.453-.25.28-.25.765 0 .328.047.532.063.187.282.375.203.187.484.28.297.079.922.079.484 0 .984-.203.516-.203.906-.531zm0 1.593q-.265.188-.656.485-.39.28-.75.437-.484.219-1 .313-.515.109-1.14.109-1.454 0-2.438-.89-.984-.907-.984-2.313 0-1.11.5-1.813.5-.718 1.422-1.14.906-.406 2.25-.578 1.359-.172 2.812-.25v-.063q0-.844-.703-1.156-.688-.328-2.031-.328-.813 0-1.735.281-.922.281-1.312.438h-.313v-2.47q.532-.124 1.688-.312 1.172-.187 2.36-.187 2.796 0 4.03.86 1.25.859 1.25 2.702v6.953h-3.25zm13.681-6.031h-.297q-.203-.062-.672-.094-.469-.047-.781-.047-.703 0-1.234.094-.532.094-1.157.313v6.843h-3.28v-10.234h3.28v1.5q1.078-.922 1.875-1.219.813-.312 1.485-.312.172 0 .39.015.22 0 .391.016zm8.055 4.438v-2.125q-.672.046-1.453.14-.766.094-1.172.235-.485.156-.75.453-.25.28-.25.765 0 .328.047.532.062.187.28.375.204.187.485.28.297.079.922.079.484 0 .984-.203.516-.203.907-.531zm0 1.593q-.266.188-.657.485-.39.28-.75.437-.484.219-1 .313-.515.109-1.14.109-1.453 0-2.438-.89-.984-.907-.984-2.313 0-1.11.5-1.813.5-.718 1.422-1.14.906-.406 2.25-.578 1.36-.172 2.812-.25v-.063q0-.844-.703-1.156-.687-.328-2.031-.328-.813 0-1.734.281-.922.281-1.313.438h-.312v-2.47q.53-.124 1.687-.312 1.172-.187 2.36-.187 2.796 0 4.03.86 1.25.859 1.25 2.702v6.953h-3.25v-1.078zm16.54 1.078H767.5v-5.078q0-.61-.063-1.218-.062-.625-.219-.922-.187-.328-.546-.485-.344-.156-.97-.156-.452 0-.921.156-.453.14-.984.453v7.25h-3.282v-10.234h3.282v1.14q.875-.687 1.671-1.046.813-.375 1.797-.375 1.657 0 2.594.969.938.968.938 2.89zm9.556-.093q-.531.14-1.125.218-.594.079-1.453.079-1.906 0-2.844-.766-.937-.781-.937-2.656v-4.782h-1.344v-2.234h1.344v-2.922h3.28v2.922h3.079v2.234h-3.078v4.563q.015.39.156.719.125.312.453.5.328.187.938.187.265 0 .672-.11.421-.109.578-.202h.281zm5.234.093h-3.282v-10.234h3.282zm.093-11.687h-3.468v-2.484h3.468zm13.283 11.687h-3.297v-5.078q0-.61-.062-1.218-.063-.625-.219-.922-.187-.328-.547-.485-.344-.156-.969-.156-.453 0-.921.156-.454.14-.985.453v7.25h-3.281v-10.234h3.281v1.14q.875-.687 1.672-1.046.813-.375 1.797-.375 1.656 0 2.594.969.937.968.937 2.89zm13.088-4.515h-7.5q.062 1.203.906 1.844.844.64 2.484.64 1.032 0 2-.375.985-.375 1.547-.797h.375v2.625q-1.11.453-2.093.64-.985.204-2.188.204-3.078 0-4.719-1.375-1.64-1.39-1.64-3.953 0-2.531 1.547-4 1.562-1.484 4.265-1.484 2.5 0 3.75 1.265 1.266 1.25 1.266 3.625v1.14zm-3.266-1.922q-.031-1.016-.515-1.531-.47-.532-1.5-.532-.938 0-1.547.5-.61.485-.688 1.563z" fill="#fff"/><path d="M353.688 351.659H863.01v82.551H353.688z" fill="#fff" fill-rule="evenodd"/><path d="M353.688 351.659H863.01v82.551H353.688z" stroke="#000" stroke-linecap="butt" stroke-linejoin="round"/><path d="M572.067 399.854h-1.813v-6.64h-6.765v6.64h-1.797v-13.562h1.797v5.312h6.765v-5.312h1.813zm12.02-4.906h-7.5q0 .938.28 1.64.282.688.782 1.141.469.438 1.11.657.656.218 1.452.218 1.032 0 2.079-.422 1.062-.421 1.5-.812h.093v1.86q-.86.374-1.765.624-.907.235-1.89.235-2.532 0-3.954-1.36-1.422-1.375-1.422-3.906 0-2.5 1.36-3.953 1.359-1.469 3.578-1.469 2.062 0 3.171 1.203 1.125 1.203 1.125 3.407v.937zm-1.672-1.312q0-1.344-.672-2.079-.672-.75-2.032-.75-1.375 0-2.203.813-.812.812-.922 2.016zm12.176 6.218h-1.703v-1.078q-.235.156-.625.438-.375.265-.75.437-.422.203-.985.344-.547.14-1.297.14-1.375 0-2.328-.906-.953-.922-.953-2.328 0-1.156.484-1.86.5-.718 1.422-1.14.938-.406 2.235-.547 1.297-.156 2.797-.218v-.266q0-.578-.204-.953-.203-.39-.593-.61-.36-.218-.875-.28-.5-.079-1.063-.079-.672 0-1.5.188-.828.171-1.719.5h-.093V389.9q.5-.14 1.453-.297.953-.172 1.875-.172 1.062 0 1.86.188.796.172 1.39.594.562.422.86 1.093.312.657.312 1.641v6.906zm-1.703-2.5v-2.843q-.782.046-1.844.14-1.063.094-1.688.266-.734.203-1.187.656-.453.438-.453 1.219 0 .86.515 1.312.532.438 1.625.438.89 0 1.64-.344.75-.36 1.392-.844zm13.954-2.703q0 1.235-.36 2.266-.359 1.015-1 1.719-.593.687-1.421 1.062-.813.36-1.719.36-.797 0-1.437-.172-.641-.172-1.313-.547v4.265h-1.703v-13.922h1.703v1.063q.688-.578 1.531-.953.86-.39 1.829-.39 1.843 0 2.859 1.39 1.031 1.39 1.031 3.86zm-1.765.031q0-1.828-.641-2.734-.625-.922-1.922-.922-.734 0-1.484.328-.75.313-1.438.828v5.766q.735.328 1.25.453.531.11 1.203.11 1.422 0 2.219-.954.813-.968.813-2.875zm18.26 2.235q0 1.39-1.156 2.297-1.14.89-3.14.89-1.126 0-2.079-.265-.937-.282-1.578-.594v-1.922h.094q.812.61 1.797.969 1 .36 1.906.36 1.14 0 1.766-.36.64-.375.64-1.156 0-.594-.343-.907-.344-.312-1.329-.53-.359-.079-.953-.188-.593-.11-1.078-.235-1.328-.36-1.89-1.047-.563-.687-.563-1.687 0-.625.25-1.188.266-.562.797-.984.516-.438 1.297-.688.797-.25 1.765-.25.907 0 1.844.235.938.219 1.547.531v1.828h-.078q-.656-.484-1.594-.812-.937-.328-1.844-.328-.937 0-1.593.359-.641.36-.641 1.062 0 .625.39.954.391.312 1.235.515.484.11 1.063.219.593.11.984.203 1.187.266 1.844.938.64.671.64 1.78zm9.97 2.297q-.844.406-1.625.64-.766.235-1.625.235-1.11 0-2.031-.328-.922-.329-1.578-.985-.657-.656-1.032-1.656-.359-1-.359-2.344 0-2.484 1.375-3.906 1.375-1.422 3.625-1.422.875 0 1.719.25.844.234 1.531.594v1.906h-.078q-.797-.61-1.625-.937-.828-.329-1.625-.329-1.453 0-2.297.985-.844.969-.844 2.86 0 1.843.813 2.843.828.984 2.328.984.516 0 1.047-.14.547-.14.969-.36.375-.187.703-.406.328-.219.53-.36h.08v1.876zm10.11.64h-1.703v-1.078q-.234.156-.625.438-.375.265-.75.437-.421.203-.984.344-.547.14-1.297.14-1.375 0-2.328-.906-.953-.922-.953-2.328 0-1.156.484-1.86.5-.718 1.422-1.14.938-.406 2.235-.547 1.296-.156 2.796-.218v-.266q0-.578-.203-.953-.203-.39-.593-.61-.36-.218-.875-.28-.5-.079-1.063-.079-.672 0-1.5.188-.828.171-1.719.5h-.093V389.9q.5-.14 1.453-.297.953-.172 1.875-.172 1.062 0 1.859.188.797.172 1.39.594.563.422.86 1.093.313.657.313 1.641v6.906zm-1.703-2.5v-2.843q-.78.046-1.843.14-1.063.094-1.688.266-.734.203-1.187.656-.453.438-.453 1.219 0 .86.515 1.312.531.438 1.625.438.89 0 1.64-.344.75-.36 1.391-.844zm13.502 2.5h-1.703v-5.797q0-.703-.094-1.312-.078-.61-.297-.969-.218-.375-.656-.562-.422-.188-1.11-.188-.702 0-1.468.344t-1.469.89v7.594h-1.703v-10.172h1.703v1.125q.813-.656 1.656-1.03.86-.376 1.766-.376 1.656 0 2.516 1 .859.985.859 2.844v6.61z" fill="#000"/><path d="M149.35 371.926h131.338v42.016H149.349z"/><path d="m171.926 394.55 1.656-.141q.125 1 .547 1.64.438.641 1.344 1.047.922.391 2.063.391 1 0 1.78-.297.782-.297 1.157-.812.375-.532.375-1.157t-.375-1.093q-.36-.469-1.187-.797-.547-.203-2.391-.64-1.828-.454-2.563-.845-.968-.5-1.437-1.234-.469-.75-.469-1.672 0-1 .578-1.875.578-.89 1.672-1.344 1.11-.453 2.453-.453 1.485 0 2.61.485 1.14.468 1.75 1.406.609.922.656 2.094l-1.688.125q-.14-1.266-.937-1.907-.781-.656-2.313-.656-1.609 0-2.343.594-.735.594-.735 1.422 0 .719.532 1.172.5.468 2.656.968 2.156.485 2.953.844 1.172.531 1.719 1.36.562.828.562 1.906 0 1.062-.61 2.015-.609.938-1.75 1.47-1.14.515-2.577.515-1.813 0-3.047-.531-1.219-.532-1.922-1.594-.688-1.063-.719-2.406zm19.147.75 1.61.218q-.266 1.657-1.36 2.61-1.078.937-2.672.937-1.984 0-3.188-1.297-1.203-1.297-1.203-3.718 0-1.579.516-2.75.516-1.172 1.578-1.75 1.063-.594 2.313-.594 1.578 0 2.578.797 1 .797 1.281 2.265l-1.594.235q-.234-.969-.812-1.453-.578-.5-1.39-.5-1.235 0-2.017.89-.78.89-.78 2.813 0 1.953.75 2.843.75.875 1.952.875.97 0 1.61-.593.656-.594.828-1.828zm9.328 2.359q-.922.766-1.766 1.094-.828.312-1.797.312-1.593 0-2.453-.781-.859-.781-.859-1.984 0-.72.328-1.297.328-.594.844-.938.531-.36 1.187-.547.47-.125 1.453-.25 1.985-.234 2.922-.562.016-.344.016-.422 0-1-.469-1.422-.625-.547-1.875-.547-1.156 0-1.703.406-.547.407-.812 1.422l-1.61-.218q.219-1.016.719-1.641.5-.64 1.453-.984.953-.344 2.188-.344 1.25 0 2.015.297.781.281 1.14.734.376.438.516 1.11.079.421.079 1.515v2.188q0 2.28.109 2.89.11.594.406 1.156h-1.703q-.266-.515-.328-1.187zm-.14-3.672q-.891.375-2.673.625-1.015.14-1.437.328-.422.188-.656.531-.219.344-.219.782 0 .656.5 1.093.5.438 1.453.438.938 0 1.672-.406.75-.422 1.094-1.14.265-.563.265-1.642v-.609zm4.203 4.86v-9.672h1.469v1.375q1.062-1.594 3.078-1.594.875 0 1.61.312.734.313 1.093.828.375.5.516 1.204.094.453.094 1.593v5.953h-1.641v-5.89q0-1-.203-1.485-.188-.5-.672-.796-.484-.297-1.14-.297-1.048 0-1.813.672-.75.656-.75 2.515v5.281h-1.64zm19.137-1.47.235 1.454q-.688.14-1.235.14-.89 0-1.39-.28-.485-.282-.688-.735-.203-.469-.203-1.938v-5.578h-1.203v-1.265h1.203v-2.391l1.625-.984v3.375h1.656v1.265h-1.656v5.672q0 .688.078.89.094.204.281.329.204.11.579.11.265 0 .718-.063zm1.605 1.47v-13.36h1.641v4.797q1.14-1.328 2.89-1.328 1.079 0 1.86.422.797.422 1.14 1.172.344.75.344 2.171v6.125h-1.64v-6.125q0-1.234-.531-1.796-.532-.563-1.516-.563-.719 0-1.36.39-.64.376-.921 1.016-.266.641-.266 1.782v5.296h-1.64zm10.36 0v-9.672h1.47v1.468q.562-1.03 1.03-1.359.485-.328 1.063-.328.828 0 1.688.531l-.563 1.516q-.61-.36-1.203-.36-.547 0-.969.328-.422.329-.61.891-.28.875-.28 1.922v5.062h-1.625zm12.854-3.11 1.687.203q-.406 1.485-1.484 2.313-1.078.812-2.766.812-2.125 0-3.375-1.297-1.234-1.312-1.234-3.672 0-2.453 1.25-3.796 1.266-1.344 3.266-1.344 1.937 0 3.156 1.328 1.234 1.312 1.234 3.703v.438h-7.218q.093 1.593.906 2.453.812.843 2.015.843.907 0 1.547-.468.64-.485 1.016-1.516zm-5.39-2.656h5.406q-.11-1.219-.625-1.828-.782-.953-2.032-.953-1.125 0-1.906.765-.766.75-.844 2.016zm15.453 4.578q-.922.766-1.766 1.094-.828.312-1.796.312-1.594 0-2.454-.781-.859-.781-.859-1.984 0-.72.328-1.297.328-.594.844-.938.531-.36 1.187-.547.47-.125 1.454-.25 1.984-.234 2.921-.562.016-.344.016-.422 0-1-.469-1.422-.625-.547-1.875-.547-1.156 0-1.703.406-.547.407-.812 1.422l-1.61-.218q.22-1.016.72-1.641.5-.64 1.452-.984.953-.344 2.188-.344 1.25 0 2.015.297.782.281 1.141.734.375.438.516 1.11.078.421.078 1.515v2.188q0 2.28.11 2.89.108.594.405 1.156h-1.703q-.265-.515-.328-1.187zm-.14-3.672q-.891.375-2.672.625-1.016.14-1.438.328-.422.188-.656.531-.219.344-.219.782 0 .656.5 1.093.5.438 1.453.438.938 0 1.672-.406.75-.422 1.094-1.14.265-.563.265-1.642v-.609zm10.469 4.86v-1.22q-.906 1.438-2.703 1.438-1.156 0-2.125-.64-.969-.641-1.5-1.782-.531-1.14-.531-2.625 0-1.453.484-2.625.484-1.187 1.437-1.812.97-.625 2.172-.625.875 0 1.547.375.688.36 1.11.953v-4.797h1.64v13.36zm-5.172-4.829q0 1.86.781 2.782.782.921 1.844.921 1.078 0 1.828-.875.75-.89.75-2.687 0-1.984-.765-2.906-.766-.938-1.891-.938-1.078 0-1.813.89-.734.891-.734 2.813z" fill="#000"/><path d="M705.54 224.885v-24.441"/><path d="M705.54 218.885v-18.441" stroke="#000" stroke-linecap="butt" stroke-linejoin="round"/><path d="m703.889 218.885 1.652 4.538 1.651-4.538z" fill="#000" fill-rule="evenodd" stroke="#000" stroke-linecap="butt"/><path d="M729.88 224.885v-24.441"/><path d="M729.88 218.885v-18.441" stroke="#000" stroke-linecap="butt" stroke-linejoin="round"/><path d="m728.228 218.885 1.651 4.538 1.652-4.538z" fill="#000" fill-rule="evenodd" stroke="#000" stroke-linecap="butt"/><path d="M754.218 224.885v-24.441"/><path d="M754.218 218.885v-18.441" stroke="#000" stroke-linecap="butt" stroke-linejoin="round"/><path d="m752.566 218.885 1.652 4.538 1.652-4.538z" fill="#000" fill-rule="evenodd" stroke="#000" stroke-linecap="butt"/><path d="M778.556 224.885v-24.441"/><path d="M778.556 218.885v-18.441" stroke="#000" stroke-linecap="butt" stroke-linejoin="round"/><path d="m776.905 218.885 1.651 4.538 1.652-4.538z" fill="#000" fill-rule="evenodd" stroke="#000" stroke-linecap="butt"/><path d="M802.895 224.885v-24.441"/><path d="M802.895 218.885v-18.441" stroke="#000" stroke-linecap="butt" stroke-linejoin="round"/><path d="m801.243 218.885 1.652 4.538 1.652-4.538z" fill="#000" fill-rule="evenodd" stroke="#000" stroke-linecap="butt"/><path d="M827.234 224.885v-24.441"/><path d="M827.234 218.885v-18.441" stroke="#000" stroke-linecap="butt" stroke-linejoin="round"/><path d="m825.582 218.885 1.652 4.538 1.651-4.538z" fill="#000" fill-rule="evenodd" stroke="#000" stroke-linecap="butt"/><path d="M681.202 224.885v-24.441"/><path d="M681.202 218.885v-18.441" stroke="#000" stroke-linecap="butt" stroke-linejoin="round"/><path d="m679.55 218.885 1.652 4.538 1.652-4.538z" fill="#000" fill-rule="evenodd" stroke="#000" stroke-linecap="butt"/><path d="M516.83 200.403v24.44"/><path d="M516.83 206.403v18.44" stroke="#000" stroke-linecap="butt" stroke-linejoin="round"/><path d="m518.481 206.403-1.652-4.538-1.651 4.538z" fill="#000" fill-rule="evenodd" stroke="#000" stroke-linecap="butt"/><path d="M492.49 200.403v24.44"/><path d="M492.49 206.403v18.44" stroke="#000" stroke-linecap="butt" stroke-linejoin="round"/><path d="m494.143 206.403-1.652-4.538-1.652 4.538z" fill="#000" fill-rule="evenodd" stroke="#000" stroke-linecap="butt"/><path d="M468.152 200.403v24.44"/><path d="M468.152 206.403v18.44" stroke="#000" stroke-linecap="butt" stroke-linejoin="round"/><path d="m469.804 206.403-1.652-4.538-1.652 4.538z" fill="#000" fill-rule="evenodd" stroke="#000" stroke-linecap="butt"/><path d="M443.814 200.403v24.44"/><path d="M443.814 206.403v18.44" stroke="#000" stroke-linecap="butt" stroke-linejoin="round"/><path d="m445.465 206.403-1.651-4.538-1.652 4.538z" fill="#000" fill-rule="evenodd" stroke="#000" stroke-linecap="butt"/><path d="M419.475 200.403v24.44"/><path d="M419.475 206.403v18.44" stroke="#000" stroke-linecap="butt" stroke-linejoin="round"/><path d="m421.127 206.403-1.652-4.538-1.652 4.538z" fill="#000" fill-rule="evenodd" stroke="#000" stroke-linecap="butt"/><path d="M395.136 200.403v24.44"/><path d="M395.136 206.403v18.44" stroke="#000" stroke-linecap="butt" stroke-linejoin="round"/><path d="m396.788 206.403-1.652-4.538-1.651 4.538z" fill="#000" fill-rule="evenodd" stroke="#000" stroke-linecap="butt"/><path d="M541.168 200.403v24.44"/><path d="M541.168 206.403v18.44" stroke="#000" stroke-linecap="butt" stroke-linejoin="round"/><path d="m542.82 206.403-1.652-4.538-1.652 4.538z" fill="#000" fill-rule="evenodd" stroke="#000" stroke-linecap="butt"/><path d="M705.54 345.092V320.65"/><path d="M705.54 339.092V320.65" stroke="#000" stroke-linecap="butt" stroke-linejoin="round"/><path d="m703.889 339.092 1.652 4.538 1.651-4.538z" fill="#000" fill-rule="evenodd" stroke="#000" stroke-linecap="butt"/><path d="M729.88 345.092V320.65"/><path d="M729.88 339.092V320.65" stroke="#000" stroke-linecap="butt" stroke-linejoin="round"/><path d="m728.228 339.092 1.651 4.538 1.652-4.538z" fill="#000" fill-rule="evenodd" stroke="#000" stroke-linecap="butt"/><path d="M754.218 345.092V320.65"/><path d="M754.218 339.092V320.65" stroke="#000" stroke-linecap="butt" stroke-linejoin="round"/><path d="m752.566 339.092 1.652 4.538 1.652-4.538z" fill="#000" fill-rule="evenodd" stroke="#000" stroke-linecap="butt"/><path d="M778.556 345.092V320.65"/><path d="M778.556 339.092V320.65" stroke="#000" stroke-linecap="butt" stroke-linejoin="round"/><path d="m776.905 339.092 1.651 4.538 1.652-4.538z" fill="#000" fill-rule="evenodd" stroke="#000" stroke-linecap="butt"/><path d="M802.895 345.092V320.65"/><path d="M802.895 339.092V320.65" stroke="#000" stroke-linecap="butt" stroke-linejoin="round"/><path d="m801.243 339.092 1.652 4.538 1.652-4.538z" fill="#000" fill-rule="evenodd" stroke="#000" stroke-linecap="butt"/><path d="M827.234 345.092V320.65"/><path d="M827.234 339.092V320.65" stroke="#000" stroke-linecap="butt" stroke-linejoin="round"/><path d="m825.582 339.092 1.652 4.538 1.651-4.538z" fill="#000" fill-rule="evenodd" stroke="#000" stroke-linecap="butt"/><path d="M681.202 345.092V320.65"/><path d="M681.202 339.092V320.65" stroke="#000" stroke-linecap="butt" stroke-linejoin="round"/><path d="m679.55 339.092 1.652 4.538 1.652-4.538z" fill="#000" fill-rule="evenodd" stroke="#000" stroke-linecap="butt"/><path d="M516.83 320.609v24.44"/><path d="M516.83 326.609v18.44" stroke="#000" stroke-linecap="butt" stroke-linejoin="round"/><path d="m518.481 326.609-1.652-4.538-1.651 4.538z" fill="#000" fill-rule="evenodd" stroke="#000" stroke-linecap="butt"/><path d="M492.49 320.609v24.44"/><path d="M492.49 326.609v18.44" stroke="#000" stroke-linecap="butt" stroke-linejoin="round"/><path d="m494.143 326.609-1.652-4.538-1.652 4.538z" fill="#000" fill-rule="evenodd" stroke="#000" stroke-linecap="butt"/><path d="M468.152 320.609v24.44"/><path d="M468.152 326.609v18.44" stroke="#000" stroke-linecap="butt" stroke-linejoin="round"/><path d="m469.804 326.609-1.652-4.538-1.652 4.538z" fill="#000" fill-rule="evenodd" stroke="#000" stroke-linecap="butt"/><path d="M443.814 320.609v24.44"/><path d="M443.814 326.609v18.44" stroke="#000" stroke-linecap="butt" stroke-linejoin="round"/><path d="m445.465 326.609-1.651-4.538-1.652 4.538z" fill="#000" fill-rule="evenodd" stroke="#000" stroke-linecap="butt"/><path d="M419.475 320.609v24.44"/><path d="M419.475 326.609v18.44" stroke="#000" stroke-linecap="butt" stroke-linejoin="round"/><path d="m421.127 326.609-1.652-4.538-1.652 4.538z" fill="#000" fill-rule="evenodd" stroke="#000" stroke-linecap="butt"/><path d="M395.136 320.609v24.44"/><path d="M395.136 326.609v18.44" stroke="#000" stroke-linecap="butt" stroke-linejoin="round"/><path d="m396.788 326.609-1.652-4.538-1.651 4.538z" fill="#000" fill-rule="evenodd" stroke="#000" stroke-linecap="butt"/><path d="M541.168 320.609v24.44"/><g stroke="#000" stroke-linecap="butt"><path d="M541.168 326.609v18.44" stroke-linejoin="round"/><path d="m542.82 326.609-1.652-4.538-1.652 4.538z" fill="#000" fill-rule="evenodd"/></g></g></svg>