<?xml version="1.0" encoding="UTF-8" standalone="no"?>
<svg width="600" height="60" style='overflow: visible; margin: 5px;'
     xmlns="http://www.w3.org/2000/svg">
  <defs>
      <marker id="red-arrowhead" viewBox="0 0 10 10" refX="7" refY="5" markerUnits="strokeWidth" markerWidth="10" markerHeight="3" orient="auto">
        <path d="M 0 0 L 10 5 L 0 10 z" stroke="none" fill="red"/>
      </marker>
  </defs>

  <rect x="60" y="20" width="10" height="30" stroke="black" fill="red" stroke-width="2"/>
  <rect x="70" y="20" width="10" height="30" stroke="black" fill="transparent" stroke-width="2"/>
  <rect x="80" y="20" width="10" height="30" stroke="black" fill="transparent" stroke-width="2"/>
  <rect x="90" y="20" width="10" height="30" stroke="black" fill="transparent" stroke-width="2"/>
  <rect x="100" y="20" width="10" height="30" stroke="black" fill="transparent" stroke-width="2"/>
  <rect x="110" y="20" width="10" height="30" stroke="black" fill="yellow" stroke-width="2"/>
  <rect x="120" y="20" width="10" height="30" stroke="black" fill="yellow" stroke-width="2"/>
  <rect x="130" y="20" width="10" height="30" stroke="black" fill="yellow" stroke-width="2"/>
  <rect x="140" y="20" width="10" height="30" stroke="black" fill="yellow" stroke-width="2"/>
  <rect x="150" y="20" width="10" height="30" stroke="black" fill="yellow" stroke-width="2"/>
  <rect x="160" y="20" width="10" height="30" stroke="black" fill="yellow" stroke-width="2"/>
  <rect x="170" y="20" width="10" height="30" stroke="black" fill="yellow" stroke-width="2"/>
  <rect x="180" y="20" width="10" height="30" stroke="black" fill="yellow" stroke-width="2"/>
  <rect x="190" y="20" width="10" height="30" stroke="black" fill="yellow" stroke-width="2"/>
  <rect x="200" y="20" width="10" height="30" stroke="black" fill="yellow" stroke-width="2"/>
  <rect x="210" y="20" width="10" height="30" stroke="black" fill="red" stroke-width="2"/>
  <rect x="220" y="20" width="10" height="30" stroke="black" fill="transparent" stroke-width="2"/>
  <circle cx="240" cy="35" r="5"/>
  <circle cx="260" cy="35" r="5"/>
  <circle cx="280" cy="35" r="5"/>

  <path stroke="black" d="M 65 20 Q 140 -10 215 20" stroke-width="3" marker-end="url(#red-arrowhead)" 
       fill="transparent"/>
  <path stroke="black" d="M 215 20 Q 265 -10 315 20" stroke-width="3" marker-end="url(#red-arrowhead)"   
       fill="transparent"/>

</svg>
