<?xml version="1.0" encoding="UTF-8" standalone="no"?>
<svg width="600" height="80" style='overflow: visible; margin: 5px;'
     xmlns="http://www.w3.org/2000/svg">
  <defs>
      <marker id="red-arrowhead" viewBox="0 0 10 10" refX="7" refY="5" markerUnits="strokeWidth" markerWidth="10" markerHeight="3" orient="auto">
        <path d="M 0 0 L 10 5 L 0 10 z" stroke="none" fill="red"/>
      </marker>
  </defs>

  <rect x="10" y="20" width="10" height="30" stroke="black" fill="red" stroke-width="2"/>
  <rect x="20" y="20" width="10" height="30" stroke="black" fill="transparent" stroke-width="2"/>
  <rect x="30" y="20" width="10" height="30" stroke="black" fill="transparent" stroke-width="2"/>
  <rect x="40" y="20" width="10" height="30" stroke="black" fill="transparent" stroke-width="2"/>
  <rect x="50" y="20" width="10" height="30" stroke="black" fill="transparent" stroke-width="2"/>
  <rect x="60" y="20" width="10" height="30" stroke="black" fill="red" stroke-width="2"/>
  <rect x="70" y="20" width="10" height="30" stroke="black" fill="transparent" stroke-width="2"/>
  <rect x="80" y="20" width="10" height="30" stroke="black" fill="transparent" stroke-width="2"/>
  <rect x="90" y="20" width="10" height="30" stroke="black" fill="transparent" stroke-width="2"/>
  <rect x="100" y="20" width="10" height="30" stroke="black" fill="transparent" stroke-width="2"/>
  <rect x="110" y="20" width="10" height="30" stroke="black" fill="transparent" stroke-width="2"/>
  <rect x="120" y="20" width="10" height="30" stroke="black" fill="transparent" stroke-width="2"/>
  <rect x="130" y="20" width="10" height="30" stroke="black" fill="red" stroke-width="2"/>
  <rect x="140" y="20" width="10" height="30" stroke="black" fill="transparent" stroke-width="2"/>
  <circle cx="160" cy="35" r="5"/>
  <circle cx="180" cy="35" r="5"/>
  <circle cx="200" cy="35" r="5"/>

  <path stroke="black" d="M 15 20 Q 40 -10 65 20" stroke-width="3" marker-end="url(#red-arrowhead)" 
       fill="transparent"/>
  <path stroke="black" d="M 65 20 Q 100 -10 135 20" stroke-width="3" marker-end="url(#red-arrowhead)"   
       fill="transparent"/>
  <path stroke="black" d="M 135 20 Q 185 -10 235 20" stroke-width="3" marker-end="url(#red-arrowhead)"   
       fill="transparent"/>
</svg>

