<svg viewBox="0 0 2452 1329" xmlns="http://www.w3.org/2000/svg" overflow="hidden"><defs><clipPath id="a"><path d="M1640 481h2452v1329H1640z"/></clipPath><clipPath id="b"><path d="M1640 483h2450v1327H1640z"/></clipPath><clipPath id="c"><path d="M1907 743h1692v976H1907z"/></clipPath><clipPath id="d"><path d="M1907 743h1692v976H1907z"/></clipPath><clipPath id="e"><path d="M1907 743h1692v976H1907z"/></clipPath><clipPath id="f"><path d="M1907 743h1692v976H1907z"/></clipPath><clipPath id="g"><path d="M1907 743h1692v976H1907z"/></clipPath><clipPath id="h"><path d="M1640 483h2450v1327H1640z"/></clipPath><clipPath id="i"><path d="M1640 483h2450v1327H1640z"/></clipPath><clipPath id="j"><path d="M1640 483h2450v1327H1640z"/></clipPath><clipPath id="k"><path d="M1640 483h2450v1327H1640z"/></clipPath><clipPath id="l"><path d="M1640 483h2450v1327H1640z"/></clipPath><clipPath id="m"><path d="M1640 483h2450v1327H1640z"/></clipPath><clipPath id="n"><path d="M1640 483h2450v1327H1640z"/></clipPath><clipPath id="o"><path d="M1640 483h2450v1327H1640z"/></clipPath><clipPath id="p"><path d="M1640 483h2450v1327H1640z"/></clipPath><clipPath id="q"><path d="M1640 483h2450v1327H1640z"/></clipPath><clipPath id="r"><path d="M1686 1727h1287v66H1686z"/></clipPath><clipPath id="s"><path d="M1640 483h2450v1327H1640z"/></clipPath><clipPath id="t"><path d="M2657 1727h1034v66H2657z"/></clipPath><clipPath id="u"><path d="M1640 483h2450v1327H1640z"/></clipPath><clipPath id="v"><path d="M1640 483h2450v1327H1640z"/></clipPath><clipPath id="w"><path d="M1640 483h2450v1327H1640z"/></clipPath><clipPath id="x"><path d="M1640 483h2450v1327H1640z"/></clipPath><clipPath id="y"><path d="M1640 483h2450v1327H1640z"/></clipPath><clipPath id="z"><path d="M1640 483h2450v1327H1640z"/></clipPath><clipPath id="A"><path d="M1640 483h2450v1327H1640z"/></clipPath><clipPath id="B"><path d="M1640 483h2450v1327H1640z"/></clipPath><clipPath id="C"><path d="M1640 483h2450v1327H1640z"/></clipPath><clipPath id="D"><path d="M1640 483h2450v1327H1640z"/></clipPath><clipPath id="E"><path d="M1640 483h2450v1327H1640z"/></clipPath><clipPath id="F"><path d="M1640 483h2450v1327H1640z"/></clipPath><clipPath id="G"><path d="M1640 483h2450v1327H1640z"/></clipPath><clipPath id="H"><path d="M1640 483h2451v1328H1640z"/></clipPath><clipPath id="I"><path d="M1640 483h2451v1328H1640z"/></clipPath><clipPath id="J"><path d="M1640 483h2451v1328H1640z"/></clipPath><clipPath id="K"><path d="M1640 483h2451v1328H1640z"/></clipPath><clipPath id="L"><path d="M1640 483h2451v1328H1640z"/></clipPath><clipPath id="M"><path d="M1640 483h2451v1328H1640z"/></clipPath><clipPath id="N"><path d="M1640 483h2451v1328H1640z"/></clipPath></defs><g clip-path="url(#a)" transform="translate(-1640 -481)"><g clip-path="url(#b)"><path d="M1907.5 1554.55h1688m-1688-162h1688m-1688-163.01h1688m-1688-162h1688m-1688-162.01h1688m-1688-162.03h1688" stroke="#D9D9D9" stroke-width="3.438" stroke-linejoin="round" stroke-miterlimit="10" fill="none"/></g><g clip-path="url(#c)"><path d="M2005.07 947.031h130V1716h-130Zm844.02-27.001h130.01V1716h-130.01Z" fill="#4472C4"/></g><g clip-path="url(#d)"><path d="M2135.07 1009.03h130V1716h-130Zm844.03-18.998h130V1716h-130Z" fill="#ED7D31"/></g><g clip-path="url(#e)"><path d="M2265.07 1657.05h130.01V1716h-130.01Zm844.03-671.018h130.01V1716H3109.1Z" fill="#A5A5A5"/></g><g clip-path="url(#f)"><path d="M2395.08 1645.05h130V1716h-130Zm844.03-693.019h130V1716h-130Z" fill="#FFC000"/></g><g clip-path="url(#g)"><path d="M2525.08 1657.05h129.01V1716h-129.01Zm844.03-716.019h129V1716h-129Z" fill="#5B9BD5"/></g><g clip-path="url(#h)"><path d="M1907.5 1716.5v-973" stroke="#D9D9D9" stroke-width="3.438" stroke-linejoin="round" stroke-miterlimit="10" fill="none"/></g><g clip-path="url(#i)"><path d="M1907.5 1716.5h1688" stroke="#D9D9D9" stroke-width="3.438" stroke-linejoin="round" stroke-miterlimit="10" fill="none"/></g><g clip-path="url(#j)"><text fill="#595959" font-family="Arial,Arial_MSFontService,sans-serif" font-weight="400" font-size="41" transform="translate(1849.45 1729)">0</text></g><g clip-path="url(#k)"><text fill="#595959" font-family="Arial,Arial_MSFontService,sans-serif" font-weight="400" font-size="41" transform="translate(1780.63 1566)">2000</text></g><g clip-path="url(#l)"><text fill="#595959" font-family="Arial,Arial_MSFontService,sans-serif" font-weight="400" font-size="41" transform="translate(1780.63 1404)">4000</text></g><g clip-path="url(#m)"><text fill="#595959" font-family="Arial,Arial_MSFontService,sans-serif" font-weight="400" font-size="41" transform="translate(1780.63 1242)">6000</text></g><g clip-path="url(#n)"><text fill="#595959" font-family="Arial,Arial_MSFontService,sans-serif" font-weight="400" font-size="41" transform="translate(1780.63 1080)">8000</text></g><g clip-path="url(#o)"><text fill="#595959" font-family="Arial,Arial_MSFontService,sans-serif" font-weight="400" font-size="41" transform="translate(1757.69 918)">10000</text></g><g clip-path="url(#p)"><text fill="#595959" font-family="Arial,Arial_MSFontService,sans-serif" font-weight="400" font-size="41" transform="translate(1757.69 756)">12000</text></g><g clip-path="url(#q)"><g clip-path="url(#r)"><text fill="#595959" font-family="Arial,Arial_MSFontService,sans-serif" font-weight="400" font-size="37" transform="translate(2237.99 1773)">BEFORE</text></g></g><g clip-path="url(#s)"><g clip-path="url(#t)"><text fill="#595959" font-family="Arial,Arial_MSFontService,sans-serif" font-weight="400" font-size="37" transform="translate(3100.04 1773)">AFTER</text></g></g><g clip-path="url(#u)"><text fill="#595959" font-family="Arial,Arial_MSFontService,sans-serif" font-weight="400" font-size="41" transform="rotate(-90 1569.28 -166.28)">Operations/second</text></g><g clip-path="url(#v)"><text fill="#595959" font-family="Arial,Arial_MSFontService,sans-serif" font-weight="700" font-size="73" transform="translate(2162.57 587)">Performance of initializations, optimized</text></g><g clip-path="url(#w)"><text fill="#595959" font-family="Arial,Arial_MSFontService,sans-serif" font-weight="700" font-size="73" transform="translate(2586.36 671)">(higher is better)</text></g><g clip-path="url(#x)"><path fill="#4472C4" d="M3673 1095h21v21h-21z"/></g><g clip-path="url(#y)"><text fill="#595959" font-family="Arial,Arial_MSFontService,sans-serif" font-weight="400" font-size="41" transform="translate(3702.57 1118)">Named property</text></g><g clip-path="url(#z)"><path fill="#ED7D31" d="M3673 1168h21v21h-21z"/></g><g clip-path="url(#A)"><text fill="#595959" font-family="Arial,Arial_MSFontService,sans-serif" font-weight="400" font-size="41" transform="translate(3702.57 1191)">Symbol property</text></g><g clip-path="url(#B)"><path fill="#A5A5A5" d="M3673 1241h21v21h-21z"/></g><g clip-path="url(#C)"><text fill="#595959" font-family="Arial,Arial_MSFontService,sans-serif" font-weight="400" font-size="41" transform="translate(3702.57 1264)">Public field</text></g><g clip-path="url(#D)"><path fill="#FFC000" d="M3673 1314h21v21h-21z"/></g><g clip-path="url(#E)"><text fill="#595959" font-family="Arial,Arial_MSFontService,sans-serif" font-weight="400" font-size="41" transform="translate(3702.57 1337)">Private field</text></g><g clip-path="url(#F)"><path fill="#5B9BD5" d="M3673 1387h21v21h-21z"/></g><g clip-path="url(#G)"><text fill="#595959" font-family="Arial,Arial_MSFontService,sans-serif" font-weight="400" font-size="41" transform="translate(3702.57 1410)">Computed field</text></g><g clip-path="url(#H)"><text fill="#7F7F7F" font-family="Arial,Arial_MSFontService,sans-serif" font-weight="400" font-size="41" transform="translate(3670.33 1528)">Restuls are </text></g><g clip-path="url(#I)"><text fill="#7F7F7F" font-family="Arial,Arial_MSFontService,sans-serif" font-weight="400" font-size="41" transform="translate(3670.33 1575)">generated with </text></g><g clip-path="url(#J)"><text fill="#7F7F7F" font-family="Arial,Arial_MSFontService,sans-serif" font-weight="400" font-size="41" transform="translate(3670.33 1622)">macOS 11.4</text></g><g clip-path="url(#K)"><text fill="#7F7F7F" font-family="Arial,Arial_MSFontService,sans-serif" font-weight="400" font-size="41" transform="translate(3911.05 1622)">on</text></g><g clip-path="url(#L)"><text fill="#7F7F7F" font-family="Arial,Arial_MSFontService,sans-serif" font-weight="400" font-size="41" transform="translate(3670.33 1670)">Intel Core i9</text></g><g clip-path="url(#M)"><text fill="#7F7F7F" font-family="Arial,Arial_MSFontService,sans-serif" font-weight="400" font-size="41" transform="translate(3892.72 1670)">-</text></g><g clip-path="url(#N)"><text fill="#7F7F7F" font-family="Arial,Arial_MSFontService,sans-serif" font-weight="400" font-size="41" transform="translate(3670.33 1718)">9880H@2.30GHz</text></g></g></svg>